<?xml version="1.0" encoding="iso-8859-1"?>
<!-- Generator: Adobe Illustrator 19.0.0, SVG Export Plug-In . SVG Version: 6.00 Build 0)  -->
<svg version="1.1" id="Layer_1" xmlns="http://www.w3.org/2000/svg" xmlns:xlink="http://www.w3.org/1999/xlink" x="0px" y="0px"
	 viewBox="0 0 512 512" style="enable-background:new 0 0 512 512;" xml:space="preserve">
<g>
	<g>
		<rect x="318.284" y="265.011" width="46.193" height="80.838"/>
	</g>
</g>
<g>
	<g>
		<rect x="237.445" y="149.528" width="46.193" height="80.838"/>
	</g>
</g>
<g>
	<g>
		<rect x="237.445" y="265.011" width="46.193" height="80.838"/>
	</g>
</g>
<g>
	<g>
		<rect x="318.284" y="149.528" width="46.193" height="80.838"/>
	</g>
</g>
<g>
	<g>
		<polygon points="399.117,149.528 399.117,230.366 477.356,230.366 512,149.528 		"/>
	</g>
</g>
<g>
	<g>
		<rect x="121.962" y="265.011" width="80.838" height="80.838"/>
	</g>
</g>
<g>
	<g>
		<rect x="121.962" y="149.528" width="80.838" height="80.838"/>
	</g>
</g>
<g>
	<g>
		<polygon points="399.117,265.011 399.117,345.849 427.863,345.849 462.507,265.011 		"/>
	</g>
</g>
<g>
	<g>
		<path d="M404.891,380.495H87.312V67.289L24.497,4.474L0,28.971L52.667,81.64v333.5h76.259c-4.445,8.669-6.969,18.477-6.969,28.871
			c0,35.023,28.493,63.516,63.516,63.516c35.023,0,63.516-28.493,63.516-63.516c0-10.393-2.526-20.201-6.969-28.871h106.326
			c-4.445,8.669-6.969,18.477-6.969,28.871c0,35.023,28.493,63.516,63.516,63.516s63.516-28.493,63.516-63.516
			C468.407,408.988,439.915,380.495,404.891,380.495z"/>
	</g>
</g>
<g>
</g>
<g>
</g>
<g>
</g>
<g>
</g>
<g>
</g>
<g>
</g>
<g>
</g>
<g>
</g>
<g>
</g>
<g>
</g>
<g>
</g>
<g>
</g>
<g>
</g>
<g>
</g>
<g>
</g>
</svg>
