<svg id="Capa_1" enable-background="new 0 0 512 512" height="512" viewBox="0 0 512 512" width="512" xmlns="http://www.w3.org/2000/svg"><g><path d="m464.531 385.944h37.469v57.458h-37.469z"/><path d="m464.531 275.235h47.469v-13.618c0-75.435-71.371-146.805-146.805-146.805s-146.805 71.37-146.805 146.805v13.618h47.469v-13.618c0-54.774 44.562-99.336 99.336-99.336 26.542 0 51.488 10.335 70.242 29.102 18.761 18.761 29.095 43.705 29.095 70.234v13.618z"/><path d="m57.469 329.688v-261.1h-57.469v374.824l265.859-.01v-57.458h-152.134z"/><path d="m414.22 212.592c-13.09-13.099-30.5-20.311-49.025-20.311-38.232 0-69.336 31.104-69.336 69.336v181.784h138.672v-181.784c0-18.516-7.213-35.927-20.311-49.025zm-49.025 86.929-21.213-21.213 21.213-21.213 21.213 21.213z"/><path d="m87.469 72.323h45.557v30h-45.557z"/><path d="m87.469 139.791h45.557v30h-45.557z"/><path d="m87.469 207.26h45.557v30h-45.557z"/></g></svg>