<svg id="Capa_1" enable-background="new 0 0 512 512" height="512" viewBox="0 0 512 512" width="512" xmlns="http://www.w3.org/2000/svg"><g><path d="m241 0h30v31h-30z"/><path d="m241 421h30v60h210v-450h-210v60h-30v-60h-210v450h210zm177.422-23.789-21.211 21.211-21.211-21.211-21.211 21.211-21.211-21.211 21.211-21.211-21.211-21.211 21.211-21.211 21.211 21.211 21.211-21.211 21.211 21.211-21.211 21.211zm-76.817-271.816 19.395 19.394 49.395-49.395 21.211 21.211-70.606 70.606-40.605-40.605zm0 120 19.395 19.394 49.395-49.395 21.211 21.211-70.606 70.606-40.605-40.605zm-100.605-124.395h30v60h-30zm0 90h30v90h-30zm0 120h30v60h-30zm-62.578 66.211-21.211 21.211-21.211-21.211-21.211 21.211-21.211-21.211 21.211-21.211-21.211-21.211 21.211-21.211 21.211 21.211 21.211-21.211 21.211 21.211-21.211 21.211zm0-120-21.211 21.211-21.211-21.211-21.211 21.211-21.211-21.211 21.211-21.211-21.211-21.211 21.211-21.211 21.211 21.211 21.211-21.211 21.211 21.211-21.211 21.211zm-57.422-90-40.605-40.605 21.211-21.211 19.394 19.394 49.395-49.395 21.211 21.211z"/><path d="m241 481h30v31h-30z"/></g></svg>