<?xml version="1.0" encoding="iso-8859-1"?>
<!-- Generator: Adobe Illustrator 19.0.0, SVG Export Plug-In . SVG Version: 6.00 Build 0)  -->
<svg xmlns="http://www.w3.org/2000/svg" xmlns:xlink="http://www.w3.org/1999/xlink" version="1.1" id="Layer_1" x="0px" y="0px" viewBox="0 0 512 512" style="enable-background:new 0 0 512 512;" xml:space="preserve">
<g>
	<g>
		<path d="M213.704,260.521c-9.512,9.512-14.988,22.12-18.12,34.184l26.152-26.152l21.213,21.213l-26.154,26.154    c12.063-3.132,24.672-8.608,34.185-18.122c16.767-16.768,21.004-43.156,21.942-59.219    C256.87,239.517,230.476,243.751,213.704,260.521z"/>
	</g>
</g>
<g>
	<g>
		<path d="M353.798,417.893L367.22,315.36h23.711c37.978,0,68.874-30.896,68.874-68.873s-30.896-68.873-68.874-68.873h-5.68    l6.71-51.261H72.726l38.163,291.54C114.192,443.127,126.14,465.44,143.5,482H52.195v30h360.296v-30h-91.306    C338.545,465.44,350.495,443.126,353.798,417.893z M381.323,207.613h9.607c21.436,0,38.874,17.438,38.874,38.873    s-17.438,38.873-38.874,38.873h-19.784L381.323,207.613z M272.194,319.01c-27.83,27.83-70.5,30.984-88.398,30.984    c-4.747,0-7.749-0.222-8.271-0.264l-12.731-1.021l-1.021-12.731c-0.2-2.493-4.49-61.457,30.722-96.67    c35.211-35.213,94.176-30.921,96.67-30.721l12.731,1.021l1.021,12.731C303.116,224.833,307.406,283.797,272.194,319.01z"/>
	</g>
</g>
<g>
	<g>
		<path d="M242.84,58.994c0-3.157,0.488-3.956,2.306-6.932c2.669-4.37,6.703-10.975,6.703-22.567s-4.035-18.197-6.704-22.567    C243.327,3.954,242.84,3.154,242.84,0h-30c0,11.592,4.034,18.196,6.703,22.566c1.817,2.974,2.305,3.773,2.305,6.929    s-0.488,3.956-2.305,6.931c-2.67,4.37-6.703,10.974-6.703,22.568c0,11.593,4.034,18.197,6.703,22.567    c1.817,2.976,2.306,3.774,2.306,6.932h30c0-11.594-4.034-18.198-6.704-22.568C243.327,62.95,242.84,62.151,242.84,58.994z"/>
	</g>
</g>
<g>
	<g>
		<path d="M313.765,58.994c0-3.157,0.488-3.956,2.306-6.932c2.669-4.37,6.703-10.975,6.703-22.567s-4.034-18.197-6.704-22.567    c-1.816-2.974-2.305-3.773-2.305-6.928h-30c0,11.593,4.034,18.196,6.704,22.566c1.816,2.975,2.305,3.773,2.305,6.929    s-0.488,3.955-2.306,6.931c-2.668,4.37-6.703,10.974-6.703,22.568c0,11.593,4.034,18.197,6.703,22.567    c1.817,2.976,2.306,3.775,2.306,6.932h30c0-11.594-4.034-18.198-6.703-22.568C314.254,62.949,313.765,62.151,313.765,58.994z"/>
	</g>
</g>
<g>
	<g>
		<path d="M171.913,58.994c0-3.157,0.488-3.956,2.306-6.932c2.669-4.37,6.703-10.975,6.703-22.567s-4.034-18.197-6.704-22.567    c-1.816-2.974-2.305-3.773-2.305-6.928h-30c0,11.592,4.034,18.196,6.703,22.566c1.817,2.974,2.305,3.773,2.305,6.929    s-0.488,3.956-2.305,6.931c-2.67,4.37-6.704,10.974-6.704,22.568c0,11.593,4.034,18.197,6.703,22.567    c1.817,2.976,2.306,3.774,2.306,6.932h30c0-11.594-4.034-18.198-6.703-22.568C172.401,62.95,171.913,62.151,171.913,58.994z"/>
	</g>
</g>
<g>
</g>
<g>
</g>
<g>
</g>
<g>
</g>
<g>
</g>
<g>
</g>
<g>
</g>
<g>
</g>
<g>
</g>
<g>
</g>
<g>
</g>
<g>
</g>
<g>
</g>
<g>
</g>
<g>
</g>
</svg>
