<svg id="Capa_1" enable-background="new 0 0 512 512" height="512" viewBox="0 0 512 512" width="512" xmlns="http://www.w3.org/2000/svg"><g><path d="m148.24 264.671c25.453 0 46.16-20.707 46.16-46.16s-20.707-46.16-46.16-46.16c-25.452 0-46.159 20.708-46.159 46.16s20.706 46.16 46.159 46.16zm-15.001-61.16h30.002v30h-30.002z"/><path d="m363.76 264.671c25.452 0 46.159-20.707 46.159-46.16s-20.707-46.16-46.159-46.16c-25.453 0-46.16 20.708-46.16 46.16s20.707 46.16 46.16 46.16zm-15.001-61.16h30.002v30h-30.002z"/><path d="m106.751 346.257c-9.011 0-16.341 7.33-16.341 16.34s7.33 16.34 16.341 16.34c9.01 0 16.34-7.33 16.34-16.34s-7.33-16.34-16.34-16.34z"/><path d="m405.249 346.257c-9.01 0-16.34 7.33-16.34 16.34s7.33 16.34 16.34 16.34c9.011 0 16.341-7.33 16.341-16.34s-7.33-16.34-16.341-16.34z"/><path d="m458.784 99.699c-5.643-3.692-19.929-9.457-38.952-11.353-31.979-3.184-51.178 6.88-59.772 13.164l-17.709-24.216c19.84-14.508 46.738-21.245 76.115-19.164-45.685-37.648-102.5-58.13-162.466-58.13-59.933 0-116.719 20.459-162.391 58.068 25.021-1.796 52.808 2.662 75.459 19.227l-17.709 24.216c-34.412-25.164-87.11-10.019-98.574-1.246-34.23 44.477-52.785 98.677-52.785 155.735 0 68.38 26.629 132.667 74.98 181.02 48.353 48.351 112.64 74.98 181.02 74.98s132.667-26.629 181.02-74.98c48.351-48.353 74.98-112.64 74.98-181.02 0-57.299-18.708-111.718-53.216-156.301zm-95.024 42.652c41.994 0 76.159 34.166 76.159 76.16s-34.165 76.16-76.159 76.16c-41.995 0-76.16-34.165-76.16-76.16s34.165-76.16 76.16-76.16zm-215.52 0c41.995 0 76.16 34.166 76.16 76.16s-34.165 76.16-76.16 76.16c-41.994 0-76.159-34.165-76.159-76.16s34.164-76.16 76.159-76.16zm-41.489 266.587c-25.553 0-46.341-20.788-46.341-46.34s20.788-46.34 46.341-46.34c25.552 0 46.34 20.788 46.34 46.34s-20.788 46.34-46.34 46.34zm206.107-10.731h-113.716v-30h113.717v30zm92.391 10.731c-25.552 0-46.34-20.788-46.34-46.34s20.788-46.34 46.34-46.34c25.553 0 46.341 20.788 46.341 46.34s-20.788 46.34-46.341 46.34z"/></g></svg>