<svg id="Capa_1" enable-background="new 0 0 512 512" height="512" viewBox="0 0 512 512" width="512" xmlns="http://www.w3.org/2000/svg"><g><path d="m255.229 287.892c-4.341 5.452-9.486 12.156-14.592 19.376-22.07 31.209-23.785 44.045-23.785 47.236 0 21.161 17.216 38.377 38.377 38.377s38.377-17.216 38.377-38.377c0-3.191-1.715-16.027-23.785-47.236-5.105-7.22-10.25-13.924-14.592-19.376z"/><path d="m362.038 0h-212.076l-149.962 149.961v212.078l149.962 149.961h212.076l149.962-149.961v-212.078zm32.142 285.474c0 76.192-61.987 138.18-138.18 138.18s-138.18-61.987-138.18-138.18v-134.79h27.586c17.57 0 33.716 6.193 46.389 16.499 7.418-31.918 27.745-60.022 56.676-76.81l7.529-4.369 7.528 4.369c29.006 16.832 49.361 45.037 56.731 77.057 12.719-10.458 28.989-16.745 46.702-16.745h27.218v134.789z"/><path d="m323.312 224.335h-30v-30.152c0-28.966-14.1-56.175-37.312-72.972-23.212 16.797-37.188 44.006-37.188 72.972v30.152h-29.755-.367v-5.578c-2.648-20.661-19.783-36.853-40.869-38.007v104.724c0 34.214 15.97 64.765 40.843 84.602-1.171-5.006-1.81-10.214-1.81-15.572 0-15.61 9.632-36.799 29.447-64.779 13.646-19.269 38.93-48.031 38.93-48.031s25.284 28.763 38.93 48.031c19.815 27.979 29.447 49.169 29.447 64.779 0 5.88-.747 11.589-2.149 17.037 25.945-19.78 42.722-50.999 42.722-86.067v-104.702c-22.78 1.439-40.869 20.428-40.869 43.563z"/></g></svg>