<svg id="Capa_1" enable-background="new 0 0 512 512" height="512" viewBox="0 0 512 512" width="512" xmlns="http://www.w3.org/2000/svg"><g><path d="m405.938 183.569v328.431h37.469v-193.411h30v193.411h37.469v-380.9h-123.828c11.795 14.267 18.89 32.555 18.89 52.469z"/><path d="m375.938 318.589v-135.02c0-28.931-23.538-52.469-52.469-52.469h-138.829c11.795 14.267 18.891 32.554 18.891 52.469v328.431h37.469v-193.411h30v193.411h37.469v-328.431h30v135.021c0 10.33 8.404 18.734 18.734 18.734s18.735-8.405 18.735-18.735z"/><path d="m173.531 183.569c0-28.932-23.538-52.469-52.469-52.469h-119.937v380.9h37.469v-193.411h30v193.411h37.469v-193.399c0-.011 0-135.032 0-135.032h30v135.026c.003 10.327 8.406 18.729 18.734 18.729 10.33 0 18.734-8.404 18.734-18.734 0-.001 0-135.021 0-135.021z"/><circle cx="53.593" cy="50" r="50"/><circle cx="256" cy="50" r="50"/><circle cx="458.407" cy="50" r="50"/></g></svg>