<svg id="Layer_1" enable-background="new 0 0 511.976 511.976" height="512" viewBox="0 0 511.976 511.976" width="512" xmlns="http://www.w3.org/2000/svg"><g><path d="m436.999 74.977c-48.35-48.35-112.634-74.977-181.011-74.977s-132.661 26.627-181.011 74.977-74.977 112.634-74.977 181.011 26.627 132.661 74.977 181.011 112.634 74.977 181.011 74.977 132.661-26.627 181.011-74.977 74.977-112.634 74.977-181.011-26.628-132.661-74.977-181.011zm-305.612 307.401-11.832-27.568 108.767-46.68 11.832 27.568zm-24.388-56.826-11.832-27.568 133.155-57.147 11.832 27.568zm-24.528-56.765-11.832-27.568 157.683-67.674 11.832 27.568zm350.231-10.654c0 55.878-45.46 101.339-101.338 101.339h-55.73v-209.701h55.73c55.878 0 101.338 45.46 101.338 101.339z"/><path d="m331.363 179.771h-25.73v149.701h25.73c39.336 0 71.338-32.002 71.338-71.339v-7.023c.001-39.337-32.002-71.339-71.338-71.339z"/></g></svg>