<svg id="Capa_1" enable-background="new 0 0 512 512" height="512" viewBox="0 0 512 512" width="512" xmlns="http://www.w3.org/2000/svg"><g><path d="m256.001 444.531c38.993 0 72-26.043 82.591-61.642-24.366 13.945-52.564 21.924-82.592 21.924-30.027 0-58.224-7.979-82.589-21.923 10.591 35.599 43.598 61.641 82.59 61.641z"/><path d="m448.26 395.391-76.824-24.021c-6.486 57.955-55.776 103.161-115.434 103.161s-108.949-45.206-115.435-103.161l-76.827 24.022c-38.125 11.92-63.74 46.767-63.74 86.712v29.896h512v-29.896c0-39.945-25.615-74.792-63.74-86.713z"/><path d="m89.195 151.805h-1.867c-19.631 0-35.602 15.971-35.602 35.602s15.971 35.602 35.602 35.602h1.867z"/><path d="m424.672 223.008c19.631 0 35.602-15.971 35.602-35.602s-15.971-35.602-35.602-35.602h-1.867v71.203h1.867z"/><path d="m391.979 253.008h-271.958c2.154 19.655 8.487 38.069 18.091 54.336h235.776c9.604-16.267 15.938-34.68 18.091-54.336z"/><path d="m162.036 337.344c24.526 23.212 57.61 37.469 93.964 37.469s69.438-14.257 93.964-37.469z"/><path d="m352.182 88.07h31.644c-11.657-30.471-33.905-55.744-62.224-71.285v40.705c0 16.862 13.718 30.58 30.58 30.58z"/><path d="m261.021 88.07c16.862 0 30.58-13.718 30.58-30.58v-52.782c-11.356-3.064-23.289-4.708-35.601-4.708-58.275 0-108.147 36.63-127.826 88.07z"/><path d="m392.805 136.805c0-6.355-.446-12.608-1.289-18.735h-39.335c-18.16 0-34.467-8.043-45.58-20.742-11.113 12.698-27.42 20.742-45.58 20.742h-140.538c-.843 6.127-1.289 12.38-1.289 18.735v86.203h273.61v-86.203zm-187.407 48.735h-33.734v-30h33.734zm134.938 0h-33.734v-30h33.734z"/></g></svg>