<svg id="Capa_1" enable-background="new 0 0 512 512" height="512" viewBox="0 0 512 512" width="512" xmlns="http://www.w3.org/2000/svg"><g><path d="m364.23 221.14c0 31.83-25.89 57.73-57.73 57.73-31.83 0-57.73-25.9-57.73-57.73v-10.86h-62.77v120.68h59.95v80.03l33.69 101.01h152.17l20.93-301.72h-88.51z"/><path d="m334.23 221.14v-10.86h-55.46v10.86c1.525 36.791 53.944 36.774 55.46 0z"/><path d="m313.82 25.64c-13.765-39.67-71.868-30.841-72.72 11.65 0-.001 0 30.179 0 30.179h-15c-20.84 0-38.02 15.98-39.92 36.34h96.36z"/><path d="m428.17 103.81-22.19-55.46c-5.33 0-65.791 0-68.94 0-4.682 11.705-17.345 43.363-22.19 55.46z"/><path d="m54.4 428.43-27.88 83.57h221.5l-27.88-83.57s-143.85 0-165.74 0z"/><path d="m186 133.81v46.47h299.48v-46.47s-277.595 0-299.48 0z"/><path d="m156 330.96c.096-64.391 0-330.96 0-330.96h-37.47v330.96z"/><path d="m215.95 398.43v-37.47c-43.305 0-113.502 0-157.36 0v37.47z"/></g></svg>