<svg id="Capa_1" enable-background="new 0 0 510 510" height="512" viewBox="0 0 510 510" width="512" xmlns="http://www.w3.org/2000/svg"><g><path d="m349.291 189.959-25.02 50.041h110.729c-18.149 0-49.255-27.341-85.709-50.041z"/><path d="m247.155 270 32.819 82.049c15.451-4.475 29.813-10.515 43.13-17.3l-32.375-64.749z"/><path d="m280.001 157.885-32.846 82.115h43.574l32.436-64.871c-13.312-6.769-27.681-12.791-43.164-17.244z"/><path d="m324.271 270 24.955 49.91c36.352-22.624 67.613-49.91 85.774-49.91z"/><path d="m250.187 151.645c-8.128-1.062-16.52-1.645-25.187-1.645-47.107 0-83.014 43.31-73.474 90h.001 63.317z"/><path d="m214.845 270h-63.318c-9.544 46.71 26.383 90 73.474 90 8.659 0 17.048-.591 25.179-1.664z"/><path d="m151.528 240c-53.918 4.141-85.313 32.09-86.723 33.372l20.121 22.252c.266-.237 24.871-21.616 66.601-25.624 1.049-5.373 2.441-10.507 4.634-15.529-2.033-4.656-3.582-9.507-4.633-14.471z"/><path d="m120 63.887 31.174 56.113h28.826v-120h-30v56.113l-31.174-56.113h-28.826v120h30z"/><path d="m360 63.887 31.174 56.113h28.826v-120h-30v56.113l-31.174-56.113h-28.826v120h30z"/><path d="m255 120c24.814 0 45-20.187 45-45v-30c0-24.813-20.186-45-45-45-24.813 0-45 20.187-45 45v30c0 24.813 20.187 45 45 45zm-15-75c0-8.271 6.729-15 15-15 8.272 0 15 6.729 15 15v30c0 8.271-6.728 15-15 15-8.271 0-15-6.729-15-15z"/><path d="m165 390c-24.813 0-45 20.186-45 45v30c0 24.814 20.187 45 45 45s45-20.186 45-45v-30c0-24.814-20.187-45-45-45zm15 75c0 8.272-6.729 15-15 15s-15-6.728-15-15v-30c0-8.272 6.729-15 15-15s15 6.728 15 15z"/><path d="m0 420h30v90h30v-90h30v-30h-90z"/><path d="m300 413.787-15 15-15-15v-23.787h-30v36.213l23.787 23.787-23.787 23.787v36.213h30v-23.787l15-15 15 15v23.787h30v-36.213l-23.787-23.787 23.787-23.787v-36.213h-30z"/><path d="m360 390h30v120h-30z"/><path d="m465 480c-8.271 0-15-6.728-15-15v-30c0-8.272 6.729-15 15-15s15 6.728 15 15h30c0-24.814-20.187-45-45-45s-45 20.186-45 45v30c0 24.814 20.187 45 45 45s45-20.186 45-45h-30c0 8.272-6.729 15-15 15z"/></g></svg>