<svg id="Capa_1" enable-background="new 0 0 512 512" height="512" viewBox="0 0 512 512" width="512" xmlns="http://www.w3.org/2000/svg"><g><g id="Podium_1_"><g><path d="m329.612 245.226-72.612-37.705-72.612 37.705 13.418-80.728-58.286-57.422 80.889-12.173 36.591-73.168 36.592 73.169 80.889 12.173-58.286 57.422z"/></g><g><path d="m84.1 212.763h60.01v30.005h-60.01z" transform="matrix(.866 -.5 .5 .866 -98.583 87.547)"/></g><g><path d="m369.891 47.763h60.01v30.005h-60.01z" transform="matrix(.866 -.5 .5 .866 22.18 208.322)"/></g><g><path d="m384.893 197.76h30.005v60.01h-30.005z" transform="matrix(.5 -.866 .866 .5 2.719 460.239)"/></g><g><path d="m99.102 32.76h30.005v60.01h-30.005z" transform="matrix(.5 -.866 .866 .5 2.702 130.21)"/></g><g><path d="m62 130.265h60v30h-60z"/></g><g><path d="m392 130.265h60v30h-60z"/></g></g><path d="m92 340.265h60v60h-60z"/><path d="m0 430.265h152v60h-152z"/><path d="m362 340.265h60v60h-60z"/><path d="m362 430.265h150v60h-150z"/><path d="m182 280.265h150v210h-150z"/></g></svg>