<?xml version="1.0" encoding="iso-8859-1"?>
<!-- Generator: Adobe Illustrator 19.0.0, SVG Export Plug-In . SVG Version: 6.00 Build 0)  -->
<svg xmlns="http://www.w3.org/2000/svg" xmlns:xlink="http://www.w3.org/1999/xlink" version="1.1" id="Layer_1" x="0px" y="0px" viewBox="0 0 512 512" style="enable-background:new 0 0 512 512;" xml:space="preserve">
<g>
	<g>
		<polygon points="435.044,379.568 419.402,379.579 403.76,379.589 108.146,379.756 92.504,379.766 76.863,379.777 76.967,446.608     435.137,446.076   "/>
	</g>
</g>
<g>
	<g>
		<path d="M393.395,237.063c-3.587-40.355-16.392-74.402-37.029-98.448c-14.734-17.174-32.972-29.208-54.506-36.028V0h-91.764    v102.483c-53.077,16.507-85.893,63.713-92.014,134.987c-4.369,50.866-25.527,94.339-34.63,111.013l17.706-0.01l17.477-0.01    l274.666-0.146l17.498-0.01l17.717-0.01C419.465,331.945,397.973,288.472,393.395,237.063z"/>
	</g>
</g>
<g>
	<g>
		<path d="M293.937,472.896h-75.916c-0.01,0.372-0.028,0.742-0.028,1.118C217.993,494.993,235,512,255.979,512    c20.979,0,37.986-17.008,37.986-37.986C293.965,473.64,293.947,473.268,293.937,472.896z"/>
	</g>
</g>
<g>
</g>
<g>
</g>
<g>
</g>
<g>
</g>
<g>
</g>
<g>
</g>
<g>
</g>
<g>
</g>
<g>
</g>
<g>
</g>
<g>
</g>
<g>
</g>
<g>
</g>
<g>
</g>
<g>
</g>
</svg>
