<svg id="Capa_1" enable-background="new 0 0 512.526 512.526" height="512" viewBox="0 0 512.526 512.526" width="512" xmlns="http://www.w3.org/2000/svg"><g><path d="m460.576 221.619c-19.429 9.717-49.819 24.935-69.46 34.77 19.64 9.832 49.455 24.756 68.88 34.48 18.309-8.804 36.34-22.277 52.53-34.77-16.038-12.365-33.844-25.715-51.95-34.48z"/><path d="m52.566 290.519c19.198-9.61 48.77-24.428 68.17-34.13-19.576-9.793-49.385-24.721-68.74-34.41-17.812 8.681-35.454 21.956-51.26 34.12 16.005 12.326 33.784 25.653 51.83 34.42z"/><path d="m255.926 391.579c-5.796 11.579-34.02 67.97-34.02 67.97 8.808 18.285 22.256 36.275 34.73 52.44 12.134-15.759 25.316-33.288 34.02-51.03-4.331-8.649-34.73-69.38-34.73-69.38z"/><path d="m255.926 121.199c9.892-19.76 25.097-50.144 34.88-69.67-8.691-17.826-21.984-35.499-34.17-51.32-12.559 16.277-26.051 34.32-34.88 52.73 4.358 8.717 34.17 68.26 34.17 68.26z"/><path d="m487.396 338.129c-49.954-25.004-113.622-56.868-163.3-81.74 28.303-14.33 71.349-35.598 99.33-49.72 0 0 63.97-32.02 63.97-32.02 18.84-9.44 28.39-30.65 22.69-50.43-1.17-4.08-3.22-9.1-9.56-15.43-8.75-8.75-15.12-9.85-24.76-11.5-11.31-1.94-25.4-4.35-40.9-19.85s-17.91-29.58-19.85-40.9c-1.65-9.64-2.74-16-11.49-24.76-6.34-6.33-11.36-8.38-15.43-9.56-19.79-5.69-40.99 3.86-50.43 22.7l-31.85 63.62c-14.193 28.146-35.579 71.258-49.89 99.68-13.531-27.044-35.681-71.284-49.02-97.92v-.01l-32.72-65.37c-9.43-18.84-30.65-28.39-50.43-22.69-4.07 1.17-9.09 3.22-15.43 9.56-8.75 8.75-9.85 15.12-11.5 24.76-3.464 31.718-29.199 57.311-60.75 60.75-9.64 1.651-16 2.741-24.75 11.491-20.704 20.598-11.071 53.783 13.13 65.86 48.803 24.386 114.604 57.396 163.3 81.74-28.596 14.435-69.691 34.797-98.07 49.09 0 0-65.23 32.65-65.23 32.65-18.84 9.44-28.39 30.64-22.69 50.43 1.17 4.07 3.22 9.09 9.56 15.42 8.75 8.76 15.11 9.85 24.75 11.5 11.32 1.94 25.4 4.35 40.9 19.85s17.91 29.58 19.85 40.9c1.65 9.64 2.75 16.01 11.5 24.76 6.34 6.34 11.36 8.39 15.43 9.56 19.78 5.7 40.99-3.85 50.43-22.69l32.83-65.59c14.388-28.676 34.473-68.913 48.91-97.71 24.802 49.607 56.822 113.461 81.74 163.3 12.086 24.218 45.266 33.823 65.86 13.14 8.75-8.76 9.84-15.12 11.49-24.76 3.439-31.665 29.195-57.322 60.75-60.75 9.64-1.65 16.01-2.75 24.76-11.5 20.708-20.501 11.034-53.872-13.13-65.861zm-356.77-187.95 21.21-21.22c13.96 13.963 48.757 48.769 62.22 62.23l-21.21 21.21c-6.109-6.109-62.22-62.22-62.22-62.22zm21.15 232.99-21.22-21.21c5.764-5.764 58.149-58.149 62.23-62.23 6.262 6.261 14.974 14.974 21.21 21.21zm212.13-254.56 21.21 21.21c-9.64 9.642-53.549 53.561-62.22 62.23l-21.22-21.21zm.06 254.91c-4.554-4.554-59.126-59.126-62.22-62.22 6.293-6.289 14.921-14.935 21.21-21.22 2.631 2.63 58.097 58.106 62.22 62.23z"/></g></svg>