<svg id="Capa_1" enable-background="new 0 0 509.93 509.93" height="512" viewBox="0 0 509.93 509.93" width="512" xmlns="http://www.w3.org/2000/svg"><g id="XMLID_2025_"><path id="XMLID_2033_" d="m254.965 284.93c34.849 0 65.054-19.816 80.006-48.787l-80.007-39.943-79.989 39.975c14.959 28.953 45.154 48.755 79.99 48.755z"/><path id="XMLID_3128_" d="m344.125 207.24c1.462-10.713.575-11.359.84-87.81h-180v75.5c0 4.17.29 8.28.84 12.3l89.16-44.57z"/><path id="XMLID_3132_" d="m358.015 89.43 38.799-55.15-141.849-34.28-141.85 34.28 38.8 55.15z"/><path id="XMLID_3144_" d="m119.965 299.93h64.634l1.181-7.006c-30.722-21.754-50.815-57.57-50.815-97.994v-68.331c-18.937 19.86-30 46.545-30 74.913v37.352c0 10.287-4.086 20.153-11.36 27.426l-9.32 9.32c-8.522 8.521-11.465 21.077-7.726 32.446 13.468-5.243 28.106-8.126 43.406-8.126z"/><path id="XMLID_3145_" d="m374.965 126.599v68.331c0 40.434-20.104 76.258-50.837 98.01l1.184 6.99h64.653c15.3 0 29.938 2.884 43.405 8.127 3.736-11.358.805-23.917-7.726-32.446l-9.319-9.32c-7.274-7.273-11.36-17.139-11.36-27.426v-37.352c0-28.369-11.063-55.054-30-74.914z"/><path id="XMLID_3151_" d="m119.965 329.93c-49.71 0-90 40.29-90 90v90h262.892l-147.273-180z"/><path id="XMLID_3152_" d="m256.748 418.421 68.83-88.491h-25.613l-3.775-22.296c-25.943 9.52-55.363 9.942-82.465-.006l-3.759 22.302h-25.619z"/><path id="XMLID_3153_" d="m389.965 329.93h-26.382l-87.352 112.304 55.388 67.696h148.346v-90c0-49.71-40.29-90-90-90z"/></g></svg>