<svg id="Capa_1" enable-background="new 0 0 512 512" height="512" viewBox="0 0 512 512" width="512" xmlns="http://www.w3.org/2000/svg"><g><path d="m136.889 386.747v-100.253c-.005.001-.01.001-.015.002-5.291.568-10.661.867-16.1.867-4.778 0-9.502-.236-14.167-.676v100.473c0 26.113-10.458 51.334-29.584 69.111-15.558 14.46-35.911 23.826-58.379 25.418l-18.644.03v30.281h187.793c-16.47-16.522-27.12-38.844-28.595-63.596-14.063-16.84-22.309-38.558-22.309-61.657z"/><path d="m120.774 258.363c66.595 0 120.775-54.179 120.775-120.775v-137.588h-241.549v137.589c0 66.595 54.179 120.774 120.774 120.774zm-42.986-177.491h28.354v-27.934h30v27.934h28.355v30h-28.355v52.348h-30v-52.348h-28.354z"/><path d="m423.364 353.847h-3.975c6.914 10.486 10.953 23.028 10.953 36.5v2.638h-30v-2.638c0-20.126-16.374-36.5-36.5-36.5h-31.645c6.914 10.486 10.953 23.028 10.953 36.5v2.638h-30v-2.638c0-20.126-16.374-36.5-36.5-36.5-48.873 0-88.635 39.761-88.635 88.635 0 38.333 31.186 69.519 69.518 69.519h184.949c38.332-.001 69.518-31.187 69.518-69.52 0-48.873-39.762-88.634-88.636-88.634z"/></g></svg>