<svg id="Capa_1" enable-background="new 0 0 512 512" height="512" viewBox="0 0 512 512" width="512" xmlns="http://www.w3.org/2000/svg"><g><path d="m64.691 426.097 71.116-71.116c-37.736-19.305-63.17-58.559-63.275-103.106-.066-28.262 10.158-55.521 28.789-76.755 11.107-12.66 19.96-24.412 27.065-35.925 13.142-21.297 31.564-39.118 53.273-51.536 22.404-12.815 47.962-19.621 73.912-19.682h.35c25.831 0 51.289 6.683 73.653 19.336 15.341 8.68 29.05 20.06 40.45 33.452l56.074-56.074c-46.911-41.817-106.743-64.691-170.098-64.691-68.38 0-132.667 26.629-181.019 74.981s-74.981 112.639-74.981 181.019c0 63.355 22.874 123.187 64.691 170.097z"/><path d="m323.469 270.256c10.33 0 18.734-8.404 18.734-18.734 0-10.331-8.404-18.735-18.734-18.735s-18.734 8.404-18.734 18.735c-.001 10.33 8.404 18.734 18.734 18.734z"/><path d="m207.266 251.521c0-10.331-8.404-18.735-18.734-18.735s-18.734 8.404-18.734 18.735c0 10.33 8.404 18.734 18.734 18.734s18.734-8.403 18.734-18.734z"/><path d="m189.204 338.352 12.287 66.69 109.738-.257 11.974-66.747 10.958-1.367c43.035-5.368 75.41-42.162 75.308-85.585-.049-20.952-7.722-41.124-21.606-56.799-12.289-13.875-22.177-26.899-30.231-39.814-22.07-35.391-60.074-56.496-101.703-56.496-.097 0-.191 0-.288 0-41.743.098-79.771 21.396-101.725 56.973-7.994 12.953-17.821 26.023-30.044 39.955-13.811 15.741-21.389 35.948-21.34 56.9.102 43.424 32.649 80.065 75.708 85.231zm134.265-135.565c26.872 0 48.734 21.862 48.734 48.735 0 26.872-21.862 48.734-48.734 48.734s-48.734-21.862-48.734-48.734c-.001-26.873 21.862-48.735 48.734-48.735zm-84.336 117.948h33.734v30h-33.734zm-99.336-69.214c0-26.873 21.862-48.735 48.734-48.735s48.734 21.862 48.734 48.735c0 26.872-21.862 48.734-48.734 48.734s-48.734-21.861-48.734-48.734z"/><path d="m447.309 85.903-59.663 59.663c6.297 9.265 13.755 18.759 22.674 28.83 18.729 21.146 29.081 48.357 29.147 76.619.128 54.78-38.082 101.738-90.537 113.501l-12.595 70.209-159.812.375-12.199-66.213-78.422 78.422c46.911 41.817 106.743 64.691 170.098 64.691 68.38 0 132.667-26.629 181.019-74.981s74.981-112.639 74.981-181.019c0-63.355-22.874-123.187-64.691-170.097z"/></g></svg>