<svg id="Capa_1" enable-background="new 0 0 512 512" height="512" viewBox="0 0 512 512" width="512" xmlns="http://www.w3.org/2000/svg"><g><path d="m352.621 293.724v-30.128h23.523c-6.824-54.743-50.337-98.257-105.08-105.08v23.523h-30.128v-23.523c-54.743 6.824-98.257 50.337-105.08 105.08h23.523v30.128h-23.523c6.824 54.743 50.337 98.257 105.08 105.08v-23.523h30.128v23.523c54.743-6.824 98.257-50.337 105.08-105.08zm-81.557-11.028-36.823 63.78-26.092-15.064 32.787-56.788v-65.574h30.128z"/><path d="m489.864 45.272c-29.464-29.465-77.408-29.465-106.872 0l-10.652 10.652 32.045 32.045-21.393 21.393c-31.636-23.79-70.125-38.932-111.927-41.885v-30.911h27.861v-30.128h-85.851v30.128h27.861v30.911c-41.802 2.953-80.292 18.095-111.927 41.885l-21.393-21.393 32.045-32.045-10.652-10.652c-29.465-29.465-77.408-29.466-106.875.002-14.273 14.273-22.134 33.251-22.134 53.437s7.861 39.163 22.134 53.436l10.652 10.651 32.044-32.044 21.461 21.461c-26.373 35.308-42.004 79.085-42.004 126.444 0 60.641 25.628 115.409 66.621 154.043l-36.43 72.86h60.508l20.346-40.692c29.957 16.26 64.254 25.502 100.669 25.502s70.712-9.241 100.669-25.502l20.346 40.692h60.508l-36.43-72.86c40.993-38.633 66.621-93.402 66.621-154.043 0-47.36-15.631-91.137-42.005-126.444l21.461-21.461 32.044 32.044 10.652-10.651c14.272-14.273 22.133-33.251 22.133-53.436s-7.861-39.164-22.136-53.439zm-233.864 384.593c-83.375 0-151.206-67.831-151.206-151.206s67.831-151.205 151.206-151.205 151.206 67.831 151.206 151.206-67.831 151.205-151.206 151.205z"/></g></svg>