<svg id="Capa_1" enable-background="new 0 0 512 512" height="512" viewBox="0 0 512 512" width="512" xmlns="http://www.w3.org/2000/svg"><g><path d="m0 377.569h88.07v60.445h-88.07z"/><path d="m21.213 122.187h75.677l54.738-54.336h-76.079z"/><path d="m0 152.187h88.07v195.382h-88.07z"/><path d="m360.372 67.851 54.738 54.336h75.677l-54.336-54.336z"/><path d="m423.93 152.187h88.07v195.382h-88.07z"/><path d="m423.93 377.569h88.07v60.445h-88.07z"/><path d="m139.473 122.187h233.054l-116.527-115.67z"/><path d="m271 287.125h55.46v150.89h-55.46z"/><path d="m185.54 219.656h140.921v37.469h-140.921z"/><path d="m185.54 287.125h55.46v150.89h-55.46z"/><path d="m393.93 438.014v-285.827h-275.86v285.827h37.47v-248.358h200.92v248.358z"/><path d="m176.753 468.014-37.469 37.469h233.432l-37.469-37.469z"/></g></svg>