<svg id="Capa_1" enable-background="new 0 0 512 512" height="512" viewBox="0 0 512 512" width="512" xmlns="http://www.w3.org/2000/svg"><g><path d="m332.333 216v-30h-33.493v-69.16c0-23.66-19.18-42.84-42.84-42.84-23.66 0-42.84 19.18-42.84 42.84v69.16h-33.493v30z"/><path d="m241 45.561c4.843-1.018 9.859-1.561 15-1.561s10.157.543 15 1.561v-15.561h42.84v-30h-115.68v30h42.84z"/><path d="m0 384.203v30h28.613v97.797h454.774v-97.797h28.613v-30z"/><path d="m420.902 340.617c-1.269 0-2.522.064-3.766.16-8.798-12.443-23.288-20.576-39.687-20.576-3.749 0-7.393.439-10.898 1.242-12.337-8.675-27.366-13.776-43.595-13.776-11.94 0-23.232 2.762-33.284 7.671-10.052-4.909-21.344-7.671-33.284-7.671s-23.232 2.762-33.284 7.671c-10.052-4.909-21.344-7.671-33.284-7.671-15.519 0-29.939 4.665-41.959 12.658-1.094-.074-2.195-.125-3.308-.125-16.399 0-30.889 8.133-39.687 20.576-1.244-.096-2.498-.16-3.766-.16-13.081 0-24.945 5.179-33.679 13.586h387.163c-8.737-8.406-20.601-13.585-33.682-13.585z"/><path d="m256.387 277.667c10.154 0 20.059 1.412 29.613 4.198v-35.865h-60v36.105c9.793-2.939 19.957-4.438 30.387-4.438z"/></g></svg>