<svg id="Capa_1" enable-background="new 0 0 512.27 512.27" height="512" viewBox="0 0 512.27 512.27" width="512" xmlns="http://www.w3.org/2000/svg"><g><path d="m241.135 246h30v-50h50v-30h-50v-50h-30v50h-50v30h50z"/><path d="m256.135 0c-104.71 0-189.9 85.19-189.9 189.9 0 34.85 9.67 73.19 28.74 113.93 14.96 31.95 35.74 65.54 61.76 99.85 55.363 70.843 81.206 91.336 99.4 108.59 35.469-28.525 130.095-135.129 161.158-208.441 19.072-40.738 28.742-79.079 28.742-113.929 0-104.71-85.19-189.9-189.9-189.9zm-95 226v-90h50v-50h90v50h50v90h-50v50h-90v-50z"/></g></svg>