<svg id="Capa_1" enable-background="new 0 0 512 512" height="512" viewBox="0 0 512 512" width="512" xmlns="http://www.w3.org/2000/svg"><g><path d="m371.687 431.416c-34.276 11.37-73.203 17.135-115.697 17.135s-81.421-5.765-115.697-17.135c-19.475-6.46-33.936-13.619-43.477-18.926l-26.104 54.567c7.372 4.932 19.529 12.075 36.822 19.168 28.666 11.758 77.692 25.775 148.456 25.775 106.662 0 164.754-31.085 185.299-44.899l-26.125-54.611c-9.542 5.307-24.002 12.466-43.477 18.926z"/><path d="m255.99 163.204c14.834 0 27.519-1.369 38.346-3.287l-20.167-42.157c-5.824 1.456-11.911 2.24-18.179 2.24s-12.355-.784-18.179-2.24l-20.167 42.156c10.827 1.919 23.512 3.288 38.346 3.288z"/><path d="m255.99 331.231c57.743 0 91.995-14.717 109.428-22.729l-23.561-49.251c-1.968.555-4.265 1.256-6.525 1.946-15.571 4.755-41.631 12.713-79.342 12.713-37.71 0-63.771-7.958-79.342-12.713-2.26-.69-4.557-1.392-6.525-1.946l-23.561 49.251c17.433 8.012 51.684 22.729 109.428 22.729z"/><path d="m149.737 402.942c31.225 10.357 66.973 15.609 106.252 15.609s75.027-5.251 106.252-15.609c18.452-6.121 31.502-12.761 39.949-17.57l-23.825-49.803c-18.099 8.332-57.791 25.662-122.376 25.662s-104.277-17.33-122.376-25.663l-23.825 49.803c8.448 4.81 21.497 11.45 39.949 17.571z"/><path d="m185.41 232.506c14.873 4.542 37.348 11.405 70.58 11.405s55.708-6.864 70.58-11.405c.744-.227 1.464-.447 2.175-.663l-21.04-43.98c-13.865 2.946-31.034 5.341-51.716 5.341s-37.851-2.395-51.716-5.341l-21.04 43.98c.712.216 1.433.436 2.177.663z"/><circle cx="255.99" cy="45" r="45"/></g></svg>