<svg id="Layer_1" enable-background="new 0 0 510 510" height="512" viewBox="0 0 510 510" width="512" xmlns="http://www.w3.org/2000/svg"><g><path d="m450 297.427-60 60-60-60v-27.427h-150v27.427l-60 60-60-60v-27.427h-60v225h510v-225h-60zm-135 107.573h-45v45h-30v-45h-45v-30h45v-45h30v45h45z"/><path d="m150 285v-75h-60v75l30 30z"/><path d="m420 285v-75h-60v75l30 30z"/><path d="m390 135v-90h-60v-30h-150v30h-60v90h-120v105h60v-60h120v60h150v-60h120v60h60v-105zm-30 0h-210v-60h30v30h150v-30h30z"/></g></svg>