<svg id="Capa_1" enable-background="new 0 0 512 512" height="512" viewBox="0 0 512 512" width="512" xmlns="http://www.w3.org/2000/svg"><g><path d="m76 376h.76c-.412-4.958-.76-9.937-.76-15v-75c-24.853 0-45 20.147-45 45s20.147 45 45 45z"/><path d="m481 331c0-24.853-20.147-45-45-45v75c0 5.063-.348 10.042-.76 15h.76c24.853 0 45-20.147 45-45z"/><path d="m166 166h4.001c18.981 27.149 50.359 45 85.999 45s67.018-17.851 85.999-45h4.001c33.137 0 60-26.863 60-60s-26.863-60-60-60h-4.001c-18.981-27.149-50.359-46-85.999-46s-67.018 18.851-85.999 46h-4.001c-33.137 0-60 26.863-60 60s26.863 60 60 60zm75-120h30v60h-30zm0 90h30v30h-30z"/><path d="m256 512c82.842 0 150-68.158 150-151v-90c0-30.522-9.234-58.839-24.891-82.527-7.604 3.252-15.575 5.812-24.078 6.854-25.504 28.842-62.257 45.673-101.031 45.673s-75.527-16.831-101.03-45.674c-8.503-1.042-16.474-3.602-24.078-6.854-15.658 23.691-24.892 52.006-24.892 82.528v90c0 82.842 67.158 151 150 151zm34.395-50.395c-18.955-18.955-49.834-18.955-68.789 0l-21.211-21.211c30.674-30.674 80.537-30.674 111.211 0zm-19.395-115.605v-15c0-24.814 20.186-45 45-45h45v30h-45c-8.276 0-15 6.724-15 15v15c0 24.814-20.186 45-45 45h-15v-30h15c8.276 0 15-6.724 15-15zm-90-60h60v30h-60z"/></g></svg>