<svg id="Capa_1" enable-background="new 0 0 512 512" height="512" viewBox="0 0 512 512" width="512" xmlns="http://www.w3.org/2000/svg"><g><path d="m224.732 249.307v30.549c0 17.471 14.195 31.634 31.706 31.634 17.511 0 31.706-14.163 31.706-31.634v-74.644c-.063-71.767 20.915-143.261 60.019-203.817l-1.535-1.395c-76.523 59.595-122.042 151.951-121.896 249.307z"/><path d="m0 319.443 170.587.004c11.399 38.052 45.365 64.182 85.414 64.182 40.051 0 74.014-26.131 85.414-64.183l170.582-.003.003-34.216h-174.211c-6.762 0-13.482.67-20.057 1.943-3.639 30.532-29.73 54.29-61.295 54.29-31.502 0-57.551-23.665-61.271-54.109-6.77-1.38-13.668-2.125-20.547-2.125-.119 0-.234 0-.353 0h-174.266z"/><path d="m511.986 484.803c-12.164-2.36-20.118-7.355-26.857-11.594-7.702-4.844-13.267-8.344-25.866-8.344s-18.165 3.5-25.867 8.345c-9.182 5.775-20.609 12.961-41.886 12.961s-32.704-7.187-41.885-12.961c-7.702-4.845-13.268-8.345-25.867-8.345-12.598 0-18.163 3.5-25.866 8.344-9.181 5.775-20.608 12.962-41.884 12.962-21.277 0-32.704-7.187-41.886-12.961-7.702-4.845-13.268-8.345-25.867-8.345-12.6 0-18.165 3.5-25.868 8.345-9.182 5.775-20.609 12.961-41.886 12.961-21.278 0-32.706-7.187-41.888-12.961-7.703-4.844-13.269-8.345-25.87-8.345s-18.167 3.5-25.87 8.345c-6.742 4.24-14.701 9.238-26.875 11.597v27.193h511.984z"/><path d="m129.474 255.257v-42.722c-.064-74.328 21.219-148.373 60.892-211.09l-1.558-1.445c-77.166 61.349-123.248 155.112-123.657 255.257z"/><path d="m446.863 255.257v-42.722c-.064-74.328 21.219-148.373 60.892-211.09l-1.558-1.445c-77.167 61.35-123.25 155.111-123.657 255.257z"/><path d="m361.728 349.417c-18.999 38.785-60.195 64.183-105.726 64.183s-86.727-25.398-105.726-64.183l-150.276-.003v104.334c3.823-1.474 7.086-3.52 10.857-5.892 9.182-5.775 20.61-12.961 41.888-12.961s32.706 7.187 41.888 12.961c7.703 4.844 13.269 8.345 25.87 8.345 12.6 0 18.165-3.5 25.868-8.345 9.182-5.775 20.609-12.961 41.887-12.961 21.277 0 32.704 7.187 41.886 12.961 7.702 4.845 13.268 8.345 25.867 8.345 12.598 0 18.163-3.5 25.865-8.344 9.182-5.775 20.608-12.962 41.885-12.962s32.704 7.187 41.885 12.961c7.702 4.845 13.268 8.345 25.867 8.345s18.165-3.5 25.867-8.345c9.182-5.775 20.609-12.961 41.886-12.961s32.703 7.187 41.884 12.962c3.766 2.368 7.024 4.411 10.84 5.885l.007-104.328zm-282.707 57.792h-30.03v-29.971h30.03zm64.332 14.914h-30.03v-29.971h30.03zm255.325 0h-30.03v-29.971h30.03zm64.332-14.914h-30.03v-29.971h30.03z"/></g></svg>