<svg id="Capa_1" enable-background="new 0 0 512.001 512.001" height="512" viewBox="0 0 512.001 512.001" width="512" xmlns="http://www.w3.org/2000/svg"><g><path d="m363.75 256c0-59.414-48.336-107.75-107.75-107.75s-107.75 48.337-107.75 107.75 48.337 107.75 107.75 107.75 107.75-48.336 107.75-107.75zm-107.75 60.188c-33.188 0-60.188-27-60.188-60.188s27-60.188 60.188-60.188 60.188 27 60.188 60.188-27 60.188-60.188 60.188z"/><circle cx="256" cy="256" r="30.188"/><path d="m118.25 256c0-62.506 41.851-115.413 99.001-132.193-44.933 7.516-91.551 27.769-136.807 59.685-43.671 30.798-70.643 61.333-71.77 62.618l-8.674 9.89 8.674 9.891c1.127 1.285 28.098 31.819 71.77 62.618 45.256 31.916 91.874 52.168 136.807 59.685-57.149-16.781-99.001-69.688-99.001-132.194z"/><path d="m503.327 246.11c-1.127-1.285-28.098-31.819-71.77-62.618-45.256-31.916-91.874-52.168-136.807-59.685 57.15 16.78 99.001 69.687 99.001 132.193s-41.851 115.413-99.001 132.193c44.933-7.516 91.551-27.769 136.807-59.685 43.671-30.798 70.643-61.333 71.77-62.618l8.674-9.891z"/></g></svg>