<svg id="Capa_1" enable-background="new 0 0 512 512" height="512" viewBox="0 0 512 512" width="512" xmlns="http://www.w3.org/2000/svg"><g><circle cx="196" cy="196" r="15"/><circle cx="316" cy="316" r="15"/><path d="m489.833 180.019-74.707-39.639-14.619-83.306-83.73 11.851-60.777-68.925-60.776 68.925-83.73-11.851-14.62 83.306-74.707 39.639 37.134 75.981-37.134 75.981 74.707 39.639 14.619 83.306 83.73-11.851 60.777 68.925 60.776-68.925 83.73 11.851 14.619-83.306 74.707-39.639-37.133-75.981zm-338.833 15.981c0-24.814 20.186-45 45-45s45 20.186 45 45-20.186 45-45 45-45-20.186-45-45zm45 141.211-21.211-21.211 141.211-141.211 21.211 21.211zm120 23.789c-24.814 0-45-20.186-45-45s20.186-45 45-45 45 20.186 45 45-20.186 45-45 45z"/></g></svg>