<?xml version="1.0" encoding="iso-8859-1"?>
<!-- Generator: Adobe Illustrator 19.0.0, SVG Export Plug-In . SVG Version: 6.00 Build 0)  -->
<svg xmlns="http://www.w3.org/2000/svg" xmlns:xlink="http://www.w3.org/1999/xlink" version="1.1" id="Layer_1" x="0px" y="0px" viewBox="0 0 512 512" style="enable-background:new 0 0 512 512;" xml:space="preserve">
<g>
	<g>
		<path d="M380.447,295.027h-15.673H143.799h-15.674h-15.673v75.139c0,78.211,63.624,141.834,141.834,141.834    s141.834-63.624,141.834-141.834v-75.139H380.447z"/>
	</g>
</g>
<g>
	<g>
		<path d="M379.873,106.924h19.675V75.577h-19.675c-15.464,0-28.035-12.57-28.035-28.035v-0.46    c0.167-4.106-0.125-18.338-11.212-30.469C330.543,5.59,315.214,0,295.058,0c-20.072,0-35.474,5.538-45.798,16.447    c-11.609,12.288-12.089,26.823-12.016,30.427v41.942h-12.884v30.511h-24.931c-47.961,0-86.977,39.016-86.977,86.977v57.375h15.674    h15.673h92.954V150.674v-15.674h0.491v-14.838H268.1v14.838v15.674V263.68h96.674h15.673h15.673v-57.375    c0-47.961-39.016-86.977-86.977-86.977H281.13V88.816h-12.539V46.676l0.073-0.021l-0.084-0.7    c0.104-3.73,2.456-14.608,26.478-14.608c10.459,0,18.348,2.194,22.204,6.175c2.936,3.041,3.239,6.823,3.26,7.868l-0.031,2.152    C320.491,80.29,347.126,106.924,379.873,106.924z"/>
	</g>
</g>
<g>
</g>
<g>
</g>
<g>
</g>
<g>
</g>
<g>
</g>
<g>
</g>
<g>
</g>
<g>
</g>
<g>
</g>
<g>
</g>
<g>
</g>
<g>
</g>
<g>
</g>
<g>
</g>
<g>
</g>
</svg>
