<svg id="Capa_1" enable-background="new 0 0 512 512" height="512" viewBox="0 0 512 512" width="512" xmlns="http://www.w3.org/2000/svg"><g id="Rainbow_1_"><g><path d="m255 181c-140.61 0-255 114.39-255 255v15h60.912c-3.391-45.205 8.187-89.603 34.581-127.075 36.592-51.929 96.211-82.925 159.507-82.925 65.127 0 125.728 32.417 162.1 86.704 24.69 36.848 35.283 79.697 31.979 123.296h62.921v-15c0-140.61-116.39-255-257-255z"/><path d="m146.133 356.239c25.4-34.585 66.108-55.239 108.867-55.239 44.561 0 86.235 22.031 111.489 58.931 18.475 27.003 26.003 58.856 22.493 91.069h29.978c3.327-37.78-5.526-74.874-26.777-106.597-30.806-45.966-82.076-73.403-137.183-73.403-53.555 0-104.004 26.25-134.985 70.21-22.716 32.241-32.487 70.664-29.074 109.79h30.092c-3.65-33.798 4.885-67.231 25.1-94.761z"/><path d="m358.865 451c3.598-26.285-2.206-52.3-17.146-74.121-19.644-28.726-52.075-45.879-86.719-45.879-33.252 0-64.907 16.069-84.683 42.993-16.333 22.229-22.434 49.504-18.682 77.007h58.365v-15c0-24.814 20.186-45 45-45s45 20.186 45 45v15z"/></g><g><path d="m154.587 72.241h29.997v90.004h-29.997z" transform="matrix(.966 -.259 .259 .966 -24.563 47.878)"/></g><g><path d="m74.998 105.215h30.005v90.002h-30.005z" transform="matrix(.866 -.5 .5 .866 -63.05 65.123)"/></g><g><path d="m295.413 102.244h90.004v29.997h-90.004z" transform="matrix(.259 -.966 .966 .259 139.062 415.714)"/></g><g><path d="m374.999 135.214h90.002v30.005h-90.002z" transform="matrix(.5 -.866 .866 .5 79.936 438.87)"/></g><g><path d="m240 61h30v90h-30z"/></g></g></svg>