<svg id="Capa_1" enable-background="new 0 0 510 510" height="512" viewBox="0 0 510 510" width="512" xmlns="http://www.w3.org/2000/svg"><g><path d="m510 270v-30h-75.63c-1.14-13.755-3.834-27.076-7.905-39.787l42.149-17.459-11.481-27.716-42.179 17.472c-6.259-12.087-13.852-23.374-22.576-33.675l53.541-53.541-21.213-21.213-53.541 53.541c-10.301-8.724-21.587-16.317-33.674-22.575l17.471-42.18-27.717-11.48-17.458 42.149c-12.711-4.071-26.031-6.765-39.787-7.905v-75.631h-30v75.63c-13.756 1.14-27.076 3.834-39.787 7.905l-17.458-42.149-27.717 11.48 17.472 42.179c-12.087 6.259-23.374 13.851-33.675 22.575l-53.54-53.54-21.214 21.214 53.54 53.54c-8.724 10.301-16.316 21.588-22.575 33.675l-42.179-17.472-11.48 27.717 42.149 17.459c-4.072 12.711-6.766 26.032-7.906 39.787h-75.63v30h75.63c1.14 13.755 3.834 27.076 7.905 39.787l-42.149 17.458 11.48 27.717 42.18-17.471c6.258 12.087 13.851 23.374 22.575 33.674l-53.541 53.541 21.213 21.213 53.541-53.541c10.301 8.724 21.588 16.316 33.675 22.575l-17.472 42.179 27.716 11.48 17.459-42.148c12.711 4.071 26.031 6.765 39.787 7.905v75.631h30v-75.63c13.755-1.14 27.075-3.834 39.787-7.905l17.458 42.148 27.717-11.48-17.471-42.18c12.086-6.259 23.374-13.851 33.674-22.575l53.541 53.541 21.213-21.213-53.541-53.541c8.724-10.301 16.316-21.588 22.575-33.674l42.18 17.471 11.481-27.717-42.149-17.458c4.071-12.711 6.765-26.031 7.905-39.787zm-255 90c-57.897 0-105-47.103-105-105s47.103-105 105-105 105 47.103 105 105-47.103 105-105 105z"/><circle cx="255" cy="255" r="75"/></g></svg>