<?xml version="1.0" encoding="iso-8859-1"?>
<!-- Generator: Adobe Illustrator 19.0.0, SVG Export Plug-In . SVG Version: 6.00 Build 0)  -->
<svg xmlns="http://www.w3.org/2000/svg" xmlns:xlink="http://www.w3.org/1999/xlink" version="1.1" id="Layer_1" x="0px" y="0px" viewBox="0 0 512 512" style="enable-background:new 0 0 512 512;" xml:space="preserve">
<g>
	<g>
		<path d="M198.302,42.235c-15.049-18.765-30.011-31.542-30.641-32.076l-9.71-8.247l-9.71,8.247    c-0.63,0.534-15.591,13.311-30.641,32.076c-21.198,26.433-31.946,51.191-31.946,73.586c-0.002,22.864,11.001,44.628,29.432,58.216    l14.42,10.632l7.932-16.064c5.393-10.924,13.902-21.086,20.52-28.063c6.921,7.338,15.327,17.575,20.504,28.062l7.931,16.065    l14.421-10.632c18.431-13.589,29.435-35.352,29.435-58.216C230.25,93.426,219.5,68.668,198.302,42.235z"/>
	</g>
</g>
<g>
	<g>
		<path d="M508.626,333.783c-10.106-31.105-40.403-50.129-71.683-47.265c-6.949-30.631-34.397-53.569-67.101-53.569    c-32.7,0-60.144,22.929-67.099,53.554c-12.816-1.196-25.736,1.251-37.487,7.238c-16.375,8.343-28.52,22.563-34.199,40.041    c-10.106,31.104,3.228,64.299,30.211,80.371c-12.382,28.866-3.658,63.556,22.799,82.778c11.883,8.634,25.883,13.156,40.294,13.155    c3.619,0,7.266-0.285,10.909-0.862c13.02-2.063,24.904-7.673,34.571-16.168c9.665,8.496,21.55,14.105,34.571,16.168    c18.153,2.875,36.336-1.491,51.203-12.293c26.458-19.224,35.182-53.917,22.798-82.779    C505.4,398.077,518.733,364.886,508.626,333.783z M429.068,378.876c0,14.223-5.043,27.289-13.43,37.511l15.637,21.524    l-24.271,17.633l-15.628-21.511c-6.679,2.616-13.936,4.069-21.531,4.069c-7.595,0-14.853-1.453-21.532-4.069l-15.628,21.512    l-24.271-17.633l15.637-21.524c-8.387-10.221-13.43-23.287-13.43-37.511c0-1.154,0.042-2.298,0.107-3.437l-25.28-8.214    l9.27-28.531l25.306,8.222c7.931-12.32,20.29-21.529,34.823-25.336v-26.572h30v26.572c14.532,3.807,26.891,13.016,34.822,25.336    l25.306-8.222l9.27,28.531l-25.28,8.214C429.026,376.577,429.068,377.721,429.068,378.876z"/>
	</g>
</g>
<g>
	<g>
		<path d="M172.949,225.541v-41.424h-30v41.424H0v61.24c0,57.78,47.008,104.788,104.788,104.788h99.944    c-0.163-0.407-0.331-0.813-0.488-1.222c-8.066-21.036-8.676-44.417-1.717-65.834c8.155-25.099,25.597-45.521,49.111-57.501    c9.422-4.801,19.588-8.064,29.974-9.664c6.147-12.162,14.801-23.047,25.411-31.806H172.949z"/>
	</g>
</g>
<g>
</g>
<g>
</g>
<g>
</g>
<g>
</g>
<g>
</g>
<g>
</g>
<g>
</g>
<g>
</g>
<g>
</g>
<g>
</g>
<g>
</g>
<g>
</g>
<g>
</g>
<g>
</g>
<g>
</g>
</svg>
