<svg id="Capa_1" enable-background="new 0 0 512 512" height="512" viewBox="0 0 512 512" width="512" xmlns="http://www.w3.org/2000/svg"><g><path d="m256 352.757c-19.363 0-37.636-5.015-53.725-13.871l-9.814 16.888c10.052 33.687 39.631 45.957 63.54 45.957s53.487-12.27 63.54-45.956l-9.814-16.889c-16.091 8.856-34.364 13.871-53.727 13.871z"/><path d="m342.646 177.569c-22.666-4.108-41.719-18.733-51.898-38.62-9.839 7.766-22.254 12.405-35.733 12.405s-25.894-4.639-35.733-12.405c-9.882 19.308-28.13 33.656-49.927 38.235v52.376c0 51.389 38.869 93.197 86.646 93.197s86.646-41.808 86.646-93.197v-51.991zm-64.386 110.167c-.646-2.834-4.752-16.969-22.26-16.969s-21.614 14.135-22.26 16.969l.04-.19-29.424-5.853c2.816-14.156 17.233-40.926 51.644-40.926s48.828 26.77 51.644 40.926l-29.424 5.853z"/><path d="m447.836 430.796c35.44 0 64.165-28.725 64.165-64.164 0-23.746-12.909-44.463-32.082-55.559v-154.016h-64.164v34.164h32.082v30h-32.082v34.164h32.082v30h-32.082v25.688c-19.558 11.319-32.598 32.65-32.066 56.994.749 34.293 28.908 62.23 63.205 62.722.311.005.629.007.942.007zm-15.975-79.164h31.949v30h-31.949z"/><path d="m447.836 460.796c-.454 0-.916-.003-1.374-.01-6.63-.095-13.153-.907-19.498-2.351v53.565h85.036c-2.136-22.379-9.212-43.447-20.222-62.107-13.126 6.955-28.081 10.903-43.942 10.903z"/><path d="m353.695 368.722c-.002-.105-.001-.21-.003-.315l-6.274-1.379c-5.931 17.931-16.448 33.099-30.985 44.422-16.792 13.079-38.254 20.282-60.433 20.282s-43.641-7.203-60.433-20.282c-14.537-11.323-25.054-26.49-30.985-44.422l-41.449 9.112c-67.086 14.659-116.799 69.51-123.133 135.86h85.036v-62.388h30v62.388h281.927v-66.229c-5.481-3.548-10.645-7.669-15.385-12.373-17.448-17.313-27.351-40.283-27.883-64.676z"/><path d="m479.918 108.32c0-17.718-14.364-32.082-32.082-32.082-17.718 0-32.082 14.364-32.082 32.082v18.738h64.164z"/><path d="m154.354 148.735c23.646 0 42.885-19.238 42.885-42.885v-12.272h30c0 15.315 12.46 27.775 27.775 27.775s27.775-12.46 27.775-27.775h30v12.272c0 23.647 19.238 42.885 42.884 42.885h14.627c.937-2.499 1.466-5.198 1.466-8.025v-24.943c0-64.952-53.49-117.411-118.823-115.728-62.938 1.621-112.711 54.025-112.711 116.984v23.686c0 2.826.522 5.527 1.459 8.025h12.663z"/><path d="m55.845 139.266 24.559 13.158 10.431 17.168 25.639-15.579-14.684-24.165-13.77-7.378 2.235-19.074-8.578-17.182 10.448-11.615 5.608-27.715-29.404-5.949-3.984 19.688-18.634 20.714 13.706 27.453z"/><path d="m51.166 261.853 25.662-2.76 15.141-18.207 22.088 3.549 4.759-29.62-38.977-6.263-18.305 22.013-31.447 3.381-10.543 26.083h-19.544v30h39.776z"/></g></svg>