<svg id="Capa_1" enable-background="new 0 0 512 512" height="512" viewBox="0 0 512 512" width="512" xmlns="http://www.w3.org/2000/svg"><g><path d="m512 192c0-53.019-42.981-96-96-96 0-53.019-42.981-96-96-96-24.589 0-47.015 9.249-64 24.453-16.985-15.204-39.411-24.453-64-24.453-53.019 0-96 42.981-96 96-53.019 0-96 42.981-96 96s42.981 96 96 96 96-42.981 96-96c24.589 0 47.015-9.249 64-24.453 16.985 15.204 39.411 24.453 64 24.453 0 53.019 42.981 96 96 96s96-42.981 96-96zm-416-17c-9.374 0-17 7.626-17 17s7.626 17 17 17v30c-25.916 0-47-21.084-47-47s21.084-47 47-47zm113-79c0-9.374-7.626-17-17-17s-17 7.626-17 17h-30c0-25.916 21.084-47 47-47s47 21.084 47 47z"/><path d="m334.517 288.109-36.878 43.483c-4.927-1.574-4.712-1.505-9.639-3.079v-110.635c-11.221-2.943-21.99-7.426-32-13.335-10.011 5.908-20.779 10.392-32 13.335v110.634c-4.927 1.574-4.712 1.505-9.639 3.079l-36.878-43.483c-17.24 14.665-37.823 24.275-59.927 28.064l48.818 59.329v136.499h179.253v-136.498l48.818-59.329c-22.105-3.789-42.688-13.4-59.928-28.064z"/></g></svg>