<svg id="Capa_1" enable-background="new 0 0 512 512" height="512" viewBox="0 0 512 512" width="512" xmlns="http://www.w3.org/2000/svg"><g><path d="m237.018 282.735v38.192h37.964v-38.192c0-29.404 15.423-55.258 38.591-69.948-13.146-12.005-21.409-29.274-21.409-48.438 0-12.993 3.812-25.104 10.354-35.306-9.087-16.912-26.934-27.841-46.518-27.841-14.102 0-27.354 5.491-37.314 15.46-3.655 3.655-6.754 7.863-9.194 12.396 6.536 10.198 10.344 22.304 10.344 35.29 0 19.164-8.262 36.433-21.409 48.438 23.168 14.691 38.591 40.545 38.591 69.949z"/><circle cx="154.234" cy="164.35" r="35.602"/><circle cx="256" cy="35.602" r="35.602"/><path d="m207.018 282.735c0-29.105-23.679-52.784-52.784-52.784s-52.784 23.679-52.784 52.784v38.192h105.568z"/><path d="m304.982 320.927h105.568v-38.192c0-29.105-23.679-52.784-52.784-52.784s-52.784 23.679-52.784 52.784z"/><circle cx="357.766" cy="164.35" r="35.602"/><path d="m442.664 422.13c19.631 0 35.602-15.971 35.602-35.602s-15.971-35.602-35.602-35.602h-53.031v71.203h-30v-71.203h-88.633v71.203h-30v-71.203h-88.633v71.203h-30v-71.203h-53.031c-19.631 0-35.602 15.971-35.602 35.602s15.971 35.602 35.602 35.602h-69.336v30h512v-30z"/><path d="m115.5 482h396.5v30h-396.5z"/><path d="m0 482h85.22v30h-85.22z"/></g></svg>