<svg id="Capa_1" enable-background="new 0 0 510 510" height="512" viewBox="0 0 510 510" width="512" xmlns="http://www.w3.org/2000/svg"><g><path d="m229.257 239.564c9.777-1.43 18.497-6.27 25.743-13.647 7.246 7.378 15.966 12.218 25.743 13.647 33.056 4.833 65.682-31.119 72.873-80.302s-13.775-92.971-46.831-97.804c-11.323-1.656-22.594 1.478-32.811 8.287 2.966-14.998 8.638-26.177 16.824-32.908 8.217-6.756 16.31-6.837 16.67-6.837h.001.03l-.01-30c-.007 0-.014 0-.021 0-4.511 0-20.314.993-35.725 13.665-15.993 13.15-25.682 33.715-28.937 61.279-11.885-10.335-25.699-15.517-39.593-13.486-33.055 4.833-54.022 48.622-46.831 97.804 7.193 49.183 39.819 85.136 72.875 80.302z"/><path d="m450 300c0-33.137-26.863-60-60-60h-390v30h30v60h-30v30h390c33.137 0 60-26.863 60-60z"/><path d="m510 420v-30h-390c-33.137 0-60 26.863-60 60 0 33.137 26.863 60 60 60h390v-30h-30v-60z"/></g></svg>