<svg id="Capa_1" enable-background="new 0 0 512 512" height="512" viewBox="0 0 512 512" width="512" xmlns="http://www.w3.org/2000/svg"><g><g><path d="m358.73 512h-322.37v-56.4h303.6c0 20.712 5.348 40.23 18.77 56.4z"/><path d="m360.05 0v105.67h-50.68v-48.06h-30v48.06h-34.79v-48.06h-30v48.06h-34.79v-48.06h-30v48.06h-50.68v-105.67z"/><path d="m401.15 192.61h-343.14l41.1-56.94h260.94z"/><path d="m36.36 222.61v202.99h303.6v-86.37c0-45.048 37.747-82.84 82.84-82.84v-33.78zm250.98 116.5h-42.76v42.76h-30v-42.76h-42.76v-30h42.76v-42.76h30v42.76h42.76z"/></g><g><path d="m475.64 414.19v45.52c0 28.841-24.163 52.29-52.84 52.29s-52.84-23.449-52.84-52.29v-45.52z"/><path d="m475.64 339.23v44.96h-105.68v-44.96c0-29.14 23.7-52.84 52.84-52.84 28.799 0 52.84 24.092 52.84 52.84z"/></g></g></svg>