<svg id="Capa_1" enable-background="new 0 0 512.221 512.221" height="512" viewBox="0 0 512.221 512.221" width="512" xmlns="http://www.w3.org/2000/svg"><g><path d="m320.221 147.583c-10.515 0-19.104 5.835-22.978 15.61s-1.613 19.911 6.047 27.113l16.931 15.918 16.931-15.918c7.66-7.203 9.921-17.338 6.047-27.113s-12.463-15.61-22.978-15.61z"/><path d="m62.354 399.873-50.324 46.896c-15.655 14.588-16.089 39.25-.959 54.381 15.131 15.131 39.793 14.696 54.381-.959l46.896-50.325z"/><path d="m320.221 78.924c-62.351 0-113.076 50.726-113.076 113.076s50.726 113.076 113.076 113.076 113.076-50.725 113.076-113.076-50.725-113.076-113.076-113.076zm45.538 170.117-20.55 21.856-24.988-23.495-24.988 23.495-20.55-21.856 23.64-22.227-15.583-14.651c-16.452-15.469-21.707-39.029-13.387-60.022s28.286-34.558 50.868-34.558 42.548 13.565 50.868 34.558 3.065 44.553-13.387 60.022l-15.583 14.651z"/><path d="m320.221 0c-106.039 0-192 85.961-192 192 0 47.62 17.344 91.183 46.049 124.738l-43.405 43.405-12.482-12.482-34.067 31.746 48.498 48.498 31.746-34.067-12.482-12.482 43.405-43.405c33.555 28.705 77.118 46.049 124.738 46.049 106.039 0 192-85.961 192-192s-85.961-192-192-192zm0 335.076c-78.893 0-143.076-64.184-143.076-143.076s64.184-143.076 143.076-143.076 143.076 64.183 143.076 143.076-64.183 143.076-143.076 143.076z"/></g></svg>