<?xml version="1.0" encoding="iso-8859-1"?>
<!-- Generator: Adobe Illustrator 19.0.0, SVG Export Plug-In . SVG Version: 6.00 Build 0)  -->
<svg xmlns="http://www.w3.org/2000/svg" xmlns:xlink="http://www.w3.org/1999/xlink" version="1.1" id="Layer_1" x="0px" y="0px" viewBox="0 0 512 512" style="enable-background:new 0 0 512 512;" xml:space="preserve">
<g>
	<g>
		<path d="M415.347,167.184c-11.084,0-21.736,1.882-31.66,5.332L298.692,15.673H256V47.02h24.025l29.161,53.812H185.494    L156.333,47.02h44.809V15.673H96.653V47.02h24.025l37.728,69.622l-30.377,55.774c-9.843-3.388-20.397-5.232-31.376-5.232    C43.358,167.184,0,210.542,0,263.837s43.358,96.653,96.653,96.653c47.959,0,87.864-35.113,95.375-80.98h73.314l70.263-129.925    l20.541,37.904c-22.771,17.699-37.452,45.339-37.452,76.348c0,53.295,43.358,96.653,96.653,96.653    c53.295,0,96.653-43.358,96.653-96.653S468.642,167.184,415.347,167.184z M96.653,329.143c-36.01,0-65.306-29.296-65.306-65.306    s29.296-65.306,65.306-65.306c5.541,0,10.92,0.699,16.061,2.004L80.98,258.8v20.71h79.065    C153.005,307.973,127.26,329.143,96.653,329.143z M122.468,248.163l17.875-32.818c9.536,8.6,16.523,19.965,19.702,32.818H122.468z     M192.028,248.163c-4.037-24.655-17.435-46.2-36.415-60.856l20.596-37.814l53.469,98.67H192.028z M255.986,230.914l-53.505-98.734    h106.901L255.986,230.914z M415.347,329.143c-36.01,0-65.306-29.296-65.306-65.306c0-19.09,8.235-36.29,21.336-48.242    l30.189,55.709l27.561-14.935l-30.208-55.744c5.251-1.366,10.755-2.095,16.427-2.095c36.01,0,65.306,29.296,65.306,65.306    S451.357,329.143,415.347,329.143z"/>
	</g>
</g>
<g>
	<g>
		<path d="M436.248,391.837c-30.041,0-30.041,15.673-60.082,15.673s-30.041-15.673-60.081-15.673    c-30.039,0-30.039,15.673-60.078,15.673c-30.041,0-30.041-15.673-60.081-15.673c-30.041,0-30.041,15.673-60.083,15.673    c-30.043,0-30.043-15.673-60.086-15.673c-30.042,0-30.042,15.673-60.085,15.673v88.816h480.653V407.51    C466.287,407.51,466.287,391.837,436.248,391.837z"/>
	</g>
</g>
<g>
</g>
<g>
</g>
<g>
</g>
<g>
</g>
<g>
</g>
<g>
</g>
<g>
</g>
<g>
</g>
<g>
</g>
<g>
</g>
<g>
</g>
<g>
</g>
<g>
</g>
<g>
</g>
<g>
</g>
</svg>
