<svg id="Capa_1" enable-background="new 0 0 501.201 501.201" height="512" viewBox="0 0 501.201 501.201" width="512" xmlns="http://www.w3.org/2000/svg"><g><path d="m142.111 316.663-75.132 75.132c-7.611 7.611-18.715 10.917-29.098 8.083-10.62-2.897-22.521.144-30.45 9.122-9.909 11.22-9.909 28.415 0 39.635 11.563 13.094 31.574 13.56 43.738 1.396-12.164 12.164-11.699 32.174 1.396 43.738 11.22 9.909 28.416 9.909 39.635 0 8.979-7.929 12.02-19.83 9.122-30.449-2.834-10.384.473-21.488 8.083-29.099l75.158-75.157c-19.038-9.387-32.979-23.289-42.452-42.401z"/><path d="m459.278 41.923c-53.365-53.365-138.38-55.782-194.617-7.258 5.212 5.121 8.587 5.9 14.618 7.275 7.577 1.728 17.955 4.093 29.447 15.586 11.493 11.492 13.858 21.87 15.586 29.447 1.4 6.14 2.171 9.522 7.549 14.901 5.377 5.377 8.759 6.147 14.898 7.547 7.577 1.727 17.954 4.092 29.446 15.584s13.857 21.869 15.584 29.446c1.399 6.14 2.17 9.522 7.547 14.899s8.759 6.148 14.899 7.547c7.576 1.726 17.953 4.092 29.444 15.583s13.856 21.868 15.583 29.445c1.375 6.029 2.153 9.403 7.272 14.614 48.525-56.235 46.108-141.251-7.256-194.616z"/><path d="m422.468 213.694c-5.376-5.376-8.758-6.147-14.898-7.547-7.577-1.728-17.954-4.092-29.446-15.584s-13.857-21.869-15.583-29.446c-1.4-6.139-2.171-9.521-7.548-14.898s-8.759-6.147-14.898-7.547c-7.577-1.727-17.954-4.091-29.446-15.584s-13.858-21.87-15.585-29.446c-1.4-6.141-2.171-9.523-7.55-14.902-5.378-5.379-8.761-6.149-14.902-7.55-7.484-1.706-17.703-4.052-29.029-15.186-79.535 89.397-109.064 217.85-62.649 264.265 46.394 46.394 175.507 16.153 264.257-62.657-11.126-11.322-13.471-21.538-15.176-29.02-1.401-6.14-2.172-9.522-7.547-14.898zm-114.036-20.925v29.999h-29.999v-29.999zm-60 90h-30v-29.999h30zm0-60h-30v-30h30zm0-60v-30.001h30l.001 30zm60 120h-30.001v-30h30.001zm60-30h-30v-29.999l30-.001z"/></g></svg>