<svg id="Capa_1" enable-background="new 0 0 513 513" height="512" viewBox="0 0 513 513" width="512" xmlns="http://www.w3.org/2000/svg"><g id="XMLID_431_"><path id="XMLID_436_" d="m131.629 262.658h56.008v71.995h-56.008z"/><path id="XMLID_479_" d="m10.041 179v207.916c0 2.689-.704 5.345-2.035 7.682-8.12 14.249-8.048 31.222.193 45.402 8.24 14.18 22.952 22.646 39.352 22.646h61.62v49.354h30v-49.354h44.521v26.354h30v-26.354h61.62c16.401 0 31.112-8.466 39.352-22.646 8.241-14.18 8.312-31.153.192-45.401-1.332-2.337-2.035-4.993-2.035-7.682v-207.917zm91.588 53.658h116.008v131.995h-116.008z"/><path id="XMLID_497_" d="m511.033 31v-30h-324.8v42.4c0 14.667-11.933 26.6-26.6 26.6s-26.6-11.933-26.6-26.6v-43.4h-30v43.4c0 9.61 2.415 18.664 6.658 26.6h-99.65v79h302.779v-79h-103.246c4.244-7.935 6.658-16.989 6.658-26.6v-12.4zm-366.4 91v-24.033c4.781 1.316 9.807 2.033 15 2.033s10.219-.717 15-2.033v24.033z"/><path id="XMLID_498_" d="m395.686 61h60.241v452h-60.241z"/></g></svg>