<svg id="Capa_1" enable-background="new 0 0 512 512" height="512" viewBox="0 0 512 512" width="512" xmlns="http://www.w3.org/2000/svg"><g><path d="m256 121c-74.443 0-135 60.557-135 135s60.557 135 135 135 135-60.557 135-135-60.557-135-135-135zm51.211 165-21.211 21.211-30-30-30 30-21.211-21.211 30-30-30-30 21.211-21.211 30 30 30-30 21.211 21.211-30 30z"/><path d="m512 241h-31.76c-7.443-112.092-97.148-201.797-209.24-209.24v-31.76h-30v31.76c-112.092 7.443-201.797 97.148-209.24 209.24h-31.76v30h31.76c7.443 112.092 97.148 201.797 209.24 209.24v31.76h30v-31.76c112.092-7.443 201.797-97.148 209.24-209.24h31.76zm-241 209.24v-29.24h-30v29.24c-95.548-7.328-171.912-83.692-179.24-179.24h29.24v-30h-29.24c7.328-95.548 83.692-171.912 179.24-179.24v29.24h30v-29.24c95.548 7.328 171.912 83.692 179.24 179.24h-29.24v30h29.24c-7.328 95.548-83.692 171.912-179.24 179.24z"/></g></svg>