<svg id="Capa_1" enable-background="new 0 0 510 510" height="512" viewBox="0 0 510 510" width="512" xmlns="http://www.w3.org/2000/svg"><g><path d="m286.819 138.967-31.819 31.82-31.82-31.82c-2.834-2.833-6.6-4.393-10.607-4.393-8.29 0-15 6.708-15 15 0 4.006 1.56 7.773 4.393 10.606l53.034 53.033 53.033-53.033c5.863-5.864 5.862-15.35 0-21.213-5.861-5.862-15.351-5.862-21.214 0z"/><path d="m255 0c-90.981 0-165 74.019-165 165s74.019 165 165 165 165-74.019 165-165-74.019-165-165-165zm74.246 181.394-74.246 74.246-74.246-74.246c-8.5-8.5-13.18-19.8-13.18-31.82 0-24.871 20.126-45 45-45 12.02 0 23.32 4.681 31.82 13.18l10.606 10.606 10.606-10.606c17.584-17.585 46.052-17.589 63.64 0 17.586 17.584 17.59 46.051 0 63.64z"/><path d="m285 357.692c-19.828 3.074-40.133 3.08-60 0v32.308h-60v60h60v60h60v-60h60v-60h-60z"/></g></svg>