<svg id="Capa_1" enable-background="new 0 0 512 512" height="512" viewBox="0 0 512 512" width="512" xmlns="http://www.w3.org/2000/svg"><g><path d="m156.886 254.412h56.988v167.588h-56.988z"/><path d="m110.38 147.424h150v76.988h-150z"/><path d="m110.38 452h150v60h-150z"/><path d="m483.138 367-36.815-50.376c11.69-7.527 19.677-20.317 20.589-35.016 1.073-17.286-7.591-33.355-22.612-41.935-4.502-2.572-7.3-7.656-7.3-13.267v-21.994h74.998v-77.685l-293.519-126.727h-68.692l-149.787 129.736v74.675h80.38v-56.988h-54.979l131.485-113.883v83.884h56.988v-83.884l270.378 113.885h-193.872v56.988h116.62v21.994c0 16.352 8.59 31.417 22.419 39.316 5.017 2.865 7.91 8.24 7.55 14.027-.458 7.383-6.601 13.526-13.984 13.984-4.212.264-8.207-1.172-11.253-4.035-3.051-2.868-4.731-6.75-4.731-10.934h-30c0 12.368 5.17 24.321 14.186 32.794 2.03 1.908 4.202 3.599 6.484 5.075l-36.809 50.366h-28.862v90h180v-90zm-85.118 0 23.98-32.813 23.98 32.813"/></g></svg>