<svg id="Capa_1" enable-background="new 0 0 512 512" height="512" viewBox="0 0 512 512" width="512" xmlns="http://www.w3.org/2000/svg"><g><path d="m391 90h-270c-33.091 0-60 27.909-60 61h390c0-33.091-26.909-61-60-61z"/><path d="m121 512h270c33.091 0 60-27.909 60-61v-270h-390v270c0 33.091 26.909 61 60 61zm210-136c0-21.211 11.206-32.417 19.395-40.605 7.353-7.354 10.605-10.957 10.605-19.395s-3.252-12.041-10.605-19.395c-8.189-8.188-19.395-19.394-19.395-40.605v-15h30v15c0 8.438 3.252 12.041 10.605 19.395 8.189 8.188 19.395 19.394 19.395 40.605s-11.206 32.417-19.395 40.605c-7.353 7.354-10.605 10.958-10.605 19.395v15h-30zm-60-165h30v30h-30zm-30 90h30v30h-30zm30 60v30h-45c-8.276 0-15 6.724-15 15s6.724 15 15 15h105v30h-105c-24.814 0-45-20.186-45-45s20.186-45 45-45zm-150-150h30v30h-30zm0 165c0-36.211 19.072-55.283 34.395-70.605 14.311-14.312 25.605-25.606 25.605-49.395v-15h30v15c0 36.211-19.072 55.283-34.395 70.605-14.311 14.312-25.605 25.606-25.605 49.395v15h-30z"/><path d="m151 60h210c16.569 0 30-13.431 30-30s-13.431-30-30-30h-210c-16.569 0-30 13.431-30 30s13.431 30 30 30z"/></g></svg>