<svg id="Capa_1" enable-background="new 0 0 512 512" height="512" viewBox="0 0 512 512" width="512" xmlns="http://www.w3.org/2000/svg"><g><path d="m0 343.949c0 35.2 28.535 63.734 63.734 63.734h384.531c35.2 0 63.734-28.535 63.734-63.734v-22.68h-511.999z"/><path d="m28.001 291.269h142.283c-11.707-27.729-39.151-47.189-71.142-47.189s-59.434 19.461-71.141 47.189z"/><path d="m181.614 291.269h164.352c-12.242-33.525-44.414-57.458-82.176-57.458-37.762.001-69.934 23.934-82.176 57.458z"/><path d="m19.105 215.193c-13.985 15.803-18.942 36.786-14.883 56.265 18.409-35.127 54.745-57.378 94.921-57.378 28.821 0 55.66 11.458 75.332 30.897 6.215-7.263 13.327-13.802 21.261-19.449 19.959-14.207 43.492-21.716 68.055-21.716 4.294 0 8.553.243 12.77.698-1.831-2.653-3.869-5.204-6.142-7.611-13.985-14.814-33.163-21.532-51.874-20.195 1.295-18.123-4.967-36.685-18.823-50.542-24.39-24.39-63.356-25.296-88.844-2.741-.032-.032-.061-.065-.093-.097-25.344-25.344-66.433-25.344-91.777 0-25.344 25.344-25.344 66.433 0 91.777.031.032.065.06.097.092z"/><path d="m477.199 291.269c19.726-18.546 34.801-48.614 34.801-97.211-29.028 0-51.44 5.381-68.74 13.916 1.28 6.29 2.095 12.623 2.419 18.995 1.1 21.639-3.601 43.564-13.637 64.3z"/><path d="m374.145 280.979 3.758 10.29h19.819c20.458-31.843 36.217-86.101-26.061-148.379-28.889 28.889-40.979 56.05-43.605 80.05 1.276.836 2.539 1.699 3.787 2.587 19.495 13.876 34.122 33.051 42.302 55.452z"/></g></svg>