<svg id="Capa_1" enable-background="new 0 0 512 512" height="512" viewBox="0 0 512 512" width="512" xmlns="http://www.w3.org/2000/svg"><g><g><path d="m388.632 221.449 52.219 97.073h63.445c5.023-20.012 7.704-40.953 7.704-62.522 0-22.058-2.791-43.465-8.037-63.886h-117.609c.987 9.64 1.744 19.431 2.278 29.335z"/><path d="m476.869 385.478c6.928-11.792 12.94-24.186 17.936-37.088h-37.886z"/><path d="m382.501 162.245h111.785c-29.1-73.902-91.589-130.997-168.883-152.718 10.332 13.163 19.811 29.424 28.189 48.594 13.11 30.002 22.882 65.493 28.909 104.124z"/><path d="m315.838 318.522 43.463-80.846c-.458-15.505-1.494-30.738-3.09-45.561h-153.602c-6.048 23.006-25.724 40.532-49.839 43.414-.225 6.775-.347 13.6-.347 20.472 0 21.364 1.1 42.315 3.225 62.522h160.19z"/><circle cx="145.756" cy="177.179" r="28.913"/><path d="m138.165 118.904c5.435-21.958 12.211-42.403 20.243-60.783 8.377-19.17 17.857-35.431 28.189-48.594-77.294 21.721-139.783 78.816-168.883 152.718h71.188c6-22.823 25.412-40.25 49.263-43.341z"/><path d="m122.423 256c0-8.281.179-16.5.494-24.657-16.624-7.036-29.358-21.513-34.016-39.229h-80.864c-5.246 20.421-8.037 41.828-8.037 63.886 0 21.569 2.681 42.51 7.704 62.522h117.799c-2.032-20.296-3.08-41.235-3.08-62.522z"/><path d="m129.281 348.391h-112.086c28.866 74.559 91.631 132.225 169.395 154.08-10.33-13.16-19.806-29.425-28.182-48.592-13.264-30.356-23.116-66.329-29.127-105.488z"/><path d="m220.653 495.578 79.128-147.188h-140.151c5.65 34.77 14.519 66.587 26.269 93.476 10.257 23.473 22.156 41.684 34.754 53.712z"/></g><path d="m185.898 70.134c-6.975 15.962-12.935 33.661-17.809 52.683 16.868 6.956 29.816 21.535 34.52 39.428h149.541c-5.659-34.239-14.452-65.574-26.048-92.111-18.157-41.55-41.457-66.647-64.671-70.065-1.807-.038-3.615-.069-5.431-.069s-3.624.031-5.431.069c-23.214 3.418-46.513 28.515-64.671 70.065z"/></g><g><path d="m378.333 263.518-133.583 248.482h267.25zm14.629 96.533-4.86 71.649h-19.441l-4.86-71.649zm-14.43 122.096c-7.918 0-14.337-6.419-14.337-14.337s6.419-14.337 14.337-14.337 14.337 6.419 14.337 14.337-6.419 14.337-14.337 14.337z"/></g></svg>