<?xml version="1.0" encoding="iso-8859-1"?>
<!-- Generator: Adobe Illustrator 19.0.0, SVG Export Plug-In . SVG Version: 6.00 Build 0)  -->
<svg version="1.1" id="Layer_1" xmlns="http://www.w3.org/2000/svg" xmlns:xlink="http://www.w3.org/1999/xlink" x="0px" y="0px"
	 viewBox="0 0 512 512" style="enable-background:new 0 0 512 512;" xml:space="preserve">
<g>
	<g>
		<rect x="83.592" y="386.987" width="344.816" height="31.347"/>
	</g>
</g>
<g>
	<g>
		<path d="M480.653,162.331v45.777h-131.64c-9.067-36.833-39.494-65.348-77.339-71.605V93.666H256h-15.673v42.837
			c-37.845,6.257-68.273,34.772-77.339,71.605H31.347v-45.777H0v45.777v45.777l60.04,5.138c-3.615,6.541-5.681,14.054-5.681,22.042
			c0,25.207,20.507,45.714,45.714,45.714c25.207,0,45.714-20.507,45.714-45.714c0-5.223-0.892-10.239-2.512-14.918l24.48,2.095
			c14.561,34.367,48.634,58.537,88.245,58.537c39.611,0,73.685-24.171,88.245-58.537l24.48-2.095
			c-1.621,4.679-2.512,9.695-2.512,14.918c0,25.207,20.507,45.714,45.714,45.714s45.714-20.507,45.714-45.714
			c0-7.988-2.066-15.5-5.681-22.042l60.04-5.138v-45.777v-45.777H480.653z M100.073,295.431c-7.922,0-14.367-6.445-14.367-14.367
			s6.445-14.367,14.367-14.367c7.922,0,14.367,6.445,14.367,14.367S107.995,295.431,100.073,295.431z M290.333,235.225h-68.665
			v-31.347h68.665V235.225z M411.927,295.431c-7.922,0-14.367-6.445-14.367-14.367s6.445-14.367,14.367-14.367
			c7.922,0,14.367,6.445,14.367,14.367S419.849,295.431,411.927,295.431z"/>
	</g>
</g>
<g>
</g>
<g>
</g>
<g>
</g>
<g>
</g>
<g>
</g>
<g>
</g>
<g>
</g>
<g>
</g>
<g>
</g>
<g>
</g>
<g>
</g>
<g>
</g>
<g>
</g>
<g>
</g>
<g>
</g>
</svg>
