<svg id="Capa_1" enable-background="new 0 0 512 512" height="512" viewBox="0 0 512 512" width="512" xmlns="http://www.w3.org/2000/svg"><g><path d="m86 512h210v-61h120v-60h-45c-24.814 0-45-20.186-45-45h30c0 8.276 6.724 15 15 15h45v-30h70l-70.029-138.604c-1.934-105.864-88.653-192.396-194.971-192.396-107.52 0-195 88.48-195 196 0 52.896 21.782 103.682 60 140.42zm135-421c57.891 0 105 47.109 105 105s-47.109 105-105 105-105-47.109-105-105 47.109-105 105-105z"/><path d="m221 271c41.353 0 75-33.647 75-75s-33.647-75-75-75-75 33.647-75 75 33.647 75 75 75zm-15-75c0 8.276 6.724 15 15 15s15-6.724 15-15.01h30c0 24.824-20.186 45.01-45 45.01s-45-20.186-45-45z"/></g></svg>