<svg id="Capa_1" enable-background="new 0 0 512 512" height="512" viewBox="0 0 512 512" width="512" xmlns="http://www.w3.org/2000/svg"><g><path d="m319 91.666v-61.666h22.333v-30h-148.333v91.666z"/><path d="m377.667 253.333c0-25.348-17.241-46.733-40.607-53.077v-78.59h-162.119v78.59c-23.367 6.343-40.607 27.729-40.607 53.077v23.333h243.333z"/><path d="m262.708 418.75c-29.985 14.992-63.554 22.917-97.078 22.917h-31.297v15.333c0 30.327 24.673 55 55 55h133.333c30.327 0 55-24.673 55-55v-58h-31.297c-28.89 0-57.819 6.83-83.661 19.75z"/><path d="m134.333 306.667v105h31.297c28.891 0 57.821-6.829 83.662-19.75 29.985-14.992 63.554-22.917 97.077-22.917h31.297v-62.333z"/></g></svg>