<?xml version="1.0" encoding="iso-8859-1"?>
<!-- Generator: Adobe Illustrator 19.0.0, SVG Export Plug-In . SVG Version: 6.00 Build 0)  -->
<svg xmlns="http://www.w3.org/2000/svg" xmlns:xlink="http://www.w3.org/1999/xlink" version="1.1" id="Layer_1" x="0px" y="0px" viewBox="0 0 512 512" style="enable-background:new 0 0 512 512;" xml:space="preserve">
<g>
	<g>
		<path d="M415.347,235.102c-11.084,0-21.736,1.882-31.66,5.332L298.692,83.592h-55.754v31.347h37.087l29.161,53.812H185.493    l-29.161-53.812h44.81V83.592H96.653v31.347h24.025l37.729,69.623l-30.377,55.772c-9.843-3.388-20.398-5.232-31.377-5.232    C43.358,235.102,0,278.46,0,331.755c0,53.295,43.358,96.653,96.653,96.653c47.959,0,87.864-35.113,95.375-80.98h73.314    l70.263-129.925l20.541,37.904c-22.771,17.698-37.452,45.339-37.452,76.348c0,53.295,43.358,96.653,96.653,96.653    c53.295,0,96.653-43.358,96.653-96.653C512,278.46,468.642,235.102,415.347,235.102z M96.653,397.061    c-36.009,0-65.306-29.296-65.306-65.306c0-36.01,29.297-65.306,65.306-65.306c5.541,0,10.921,0.699,16.061,2.004L80.98,326.719    v20.71h79.065C153.005,375.892,127.26,397.061,96.653,397.061z M122.468,316.082l17.875-32.818    c9.536,8.6,16.523,19.965,19.702,32.818H122.468z M192.028,316.083v-0.001c-4.037-24.655-17.435-46.2-36.415-60.856l20.595-37.813    l53.47,98.67H192.028z M255.986,298.832l-53.505-98.734h106.901L255.986,298.832z M415.347,397.061    c-36.01,0-65.306-29.296-65.306-65.306c0-19.09,8.235-36.29,21.336-48.242l30.189,55.709l27.561-14.935l-30.208-55.744    c5.251-1.366,10.755-2.095,16.427-2.095c36.01,0,65.306,29.296,65.306,65.306C480.652,367.764,451.357,397.061,415.347,397.061z"/>
	</g>
</g>
<g>
</g>
<g>
</g>
<g>
</g>
<g>
</g>
<g>
</g>
<g>
</g>
<g>
</g>
<g>
</g>
<g>
</g>
<g>
</g>
<g>
</g>
<g>
</g>
<g>
</g>
<g>
</g>
<g>
</g>
</svg>
