<svg id="Capa_1" enable-background="new 0 0 510 510" height="512" viewBox="0 0 510 510" width="512" xmlns="http://www.w3.org/2000/svg"><g id="XMLID_246_"><path id="XMLID_582_" d="m250 285c-27.614 0-50 22.386-50 50 0-27.614-22.386-50-50-50s-50 22.386-50 50c0-27.614-22.386-50-50-50s-50 22.386-50 50v175h300v-175c0-27.614-22.386-50-50-50zm-160 120h-30v-30h30zm45 45h-30v-30h30zm75 30h-30v-30h30zm30-75h-30v-30h30z"/><path id="XMLID_592_" d="m450 165v-165h-315v105h-31.301l13.334 60h65.934l13.333-60h-31.3v-75h255v135h-60v180h150v-180z"/><path id="XMLID_593_" d="m207.033 195h-114.066l-18.223-82.005-74.744 59.795v99.826c13.707-11.008 31.092-17.616 50-17.616 18.903 0 36.294 6.589 50 17.593 13.706-11.004 31.097-17.593 50-17.593s36.294 6.589 50 17.593c13.706-11.004 31.097-17.593 50-17.593 18.908 0 36.293 6.608 50 17.616v-99.826l-74.744-59.795z"/></g></svg>