<svg id="Capa_1" enable-background="new 0 0 509.78 509.78" height="512" viewBox="0 0 509.78 509.78" width="512" xmlns="http://www.w3.org/2000/svg"><g><path d="m170.53 218.775c-14.799-43.627-14.82-94.378-.01-138-21.05-16.873-47.361-28.496-73.28-37.16-22.234 52.835-25.069 108.798-5.76 159.85 24.35 5.78 51.3 11.26 79.05 15.31z"/><path d="m418.3 203.465c19.312-51.075 16.473-107.007-5.76-159.85-25.979 8.685-52.302 20.32-73.39 37.24 14.77 43.616 14.759 94.332-.05 137.94 27.81-4.05 54.8-9.54 79.2-15.33z"/><path d="m440.31 229.115c-37.975 9.539-74.671 16.925-114.97 21.84-12.643 25.069-32.691 47.346-53.251 66.93-4.96 4.961-12.306 12.307-17.269 17.271-4.953-4.953-12.222-12.221-17.17-17.17-20.576-19.598-40.714-41.964-53.36-67.05-59.397-6.797-132.355-24.744-184.29-41.741 54.833 147.77 219.302 66.485 229.62 193.09h50.54c10.265-126.566 174.769-45.32 229.62-193.09-16.8 5.42-40.93 12.73-69.47 19.92z"/><path d="m230.28 432.285h49.22v70.73h-49.22z"/><path d="m211.81 238.615c10.716 20.56 26.253 38.123 43.01 54.12 12.183-11.939 24.201-24.17 33.49-38.36 53.434-79.354 37.889-184.594-33.49-247.61-66.195 58.683-85.083 153.589-43.01 231.85z"/></g></svg>