<svg id="Capa_1" enable-background="new 0 0 512.001 512.001" height="512" viewBox="0 0 512.001 512.001" width="512" xmlns="http://www.w3.org/2000/svg"><g><path d="m51.644 85.857 66.123 66.123c-12.501 6.954-24.963 14.796-37.323 23.512-43.671 30.798-70.643 61.333-71.77 62.618l-8.674 9.891 8.674 9.891c1.127 1.285 28.098 31.819 71.77 62.618 45.256 31.916 91.874 52.168 136.807 59.685-57.15-16.78-99.001-69.687-99.001-132.193 0-27.196 7.926-52.574 21.585-73.953l21.869 21.869c-8.566 15.447-13.453 33.204-13.453 52.084 0 59.414 48.336 107.75 107.75 107.75 18.88 0 36.637-4.887 52.084-13.453l21.867 21.867c-10.806 6.901-22.633 12.339-35.201 16.029 13.538-2.265 27.229-5.692 40.99-10.241l77.404 77.404 21.213-21.213-361.5-361.5z"/><path d="m350.45 299.812c8.472-15.383 13.3-33.043 13.3-51.812 0-59.414-48.337-107.75-107.75-107.75-18.768 0-36.429 4.828-51.812 13.3z"/><path d="m217.251 115.808c-13.434 2.247-27.018 5.637-40.672 10.134l5.729 5.729c10.735-6.826 22.475-12.202 34.943-15.863z"/><path d="m503.327 238.11c-1.127-1.285-28.099-31.819-71.77-62.618-45.256-31.916-91.874-52.168-136.807-59.685 57.15 16.78 99 69.687 99 132.193 0 27.086-7.863 52.368-21.419 73.693l22.173 22.173c12.411-6.919 24.782-14.704 37.053-23.358 43.671-30.798 70.643-61.333 71.77-62.618l8.675-9.891z"/></g></svg>