<svg id="Capa_1" enable-background="new 0 0 512 512" height="512" viewBox="0 0 512 512" width="512" xmlns="http://www.w3.org/2000/svg"><g><path d="m226 0h60v60h-60z"/><path d="m226 90h60v30h-60z"/><path d="m331 211h-15c-16.569 0-30-13.431-30-30v-31h-60v31c0 16.569-13.431 30-30 30h-15v60h150z"/><path d="m0 318.951v106.02l28.758-2.857c33.003-3.279 65.267-14.375 93.304-32.09l28.938-18.283v-236.741c-87.774 17.439-151 94.462-151 183.951z"/><path d="m31.724 451.968-31.724 3.151v56.881l82.963-8.241c38.617-3.837 68.037-36.323 68.037-75.13v-21.401l-12.913 8.159c-31.961 20.194-68.741 32.843-106.363 36.581z"/><path d="m429.037 503.759 82.963 8.241v-56.881l-31.724-3.151c-37.623-3.738-74.402-16.388-106.363-36.582l-12.913-8.159v21.401c0 38.808 29.419 71.294 68.037 75.131z"/><path d="m361 135v236.741l28.938 18.284c28.037 17.715 60.301 28.811 93.305 32.09l28.757 2.856v-106.02c0-89.489-63.226-166.512-151-183.951z"/></g></svg>