<?xml version="1.0" encoding="iso-8859-1"?>
<!-- Generator: Adobe Illustrator 19.0.0, SVG Export Plug-In . SVG Version: 6.00 Build 0)  -->
<svg xmlns="http://www.w3.org/2000/svg" xmlns:xlink="http://www.w3.org/1999/xlink" version="1.1" id="Layer_1" x="0px" y="0px" viewBox="0 0 512 512" style="enable-background:new 0 0 512 512;" xml:space="preserve">
<g>
	<g>
		<path d="M480.611,90.367c-7.023-20.379-17.706-38.075-31.123-52.111c-13.417-14.035-29.576-24.419-47.562-30.185    C353.995-7.3,312.05,1.987,283.87,13.558l64.4,65.338l-55.243,62.645l39.262,34.983l-19.91,22.344l-61.487-54.794l56.48-64.041    l-51.562-52.33c-21.576-13.526-77.637-41.477-145.738-19.631c-35.981,11.541-64.66,41.546-78.695,82.345    C12.913,144.064,22.21,205.95,56.245,255.946c22.734,33.407,37.577,71.103,42.933,109.019c0.309,2.194,0.609,4.429,0.908,6.713    c5.147,39.971,12.738,72.061,22.554,95.363c11.761,27.911,26.923,42.983,45.088,44.799c1.027,0.11,2.055,0.16,3.062,0.16    c17.876,0,32.819-16.04,44.43-47.741c8.599-23.442,15.372-54.844,19.073-88.44c2.075-18.783,6.923-33.986,14.015-43.981    c2.544-3.571,6.225-3.96,7.691-3.96s5.147,0.389,7.691,3.96c7.092,9.995,11.94,25.197,14.015,43.981    c3.701,33.597,10.474,64.999,19.073,88.44C308.399,495.96,323.332,512,341.207,512c1.008,0,2.035-0.05,3.063-0.16    c18.165-1.816,33.327-16.888,45.088-44.799c9.816-23.302,17.407-55.392,22.554-95.363c0.289-2.204,0.578-4.359,0.878-6.474    c5.337-37.976,20.23-75.802,43.043-109.368C489.818,205.84,499.075,143.984,480.611,90.367z"/>
	</g>
</g>
<g>
</g>
<g>
</g>
<g>
</g>
<g>
</g>
<g>
</g>
<g>
</g>
<g>
</g>
<g>
</g>
<g>
</g>
<g>
</g>
<g>
</g>
<g>
</g>
<g>
</g>
<g>
</g>
<g>
</g>
</svg>
