<svg id="Capa_1" enable-background="new 0 0 512 512" height="512" viewBox="0 0 512 512" width="512" xmlns="http://www.w3.org/2000/svg"><g><path d="m271.123 301.12v-90.37h-30.25v120.62h103.668l52.478 57.874 22.782-21.761-61.508-66.363z"/><path d="m210.873 361.37v-108.412c-27.425 15.917-45.313 45.756-45.313 78.352 0 49.869 40.571 90.44 90.44 90.44 35.577 0 67.59-20.863 82.201-52.711l-6.954-7.669z"/><path d="m0 0v512h512v-512zm255.998 60.25c28.898 0 52.409 23.511 52.409 52.409s-23.511 52.409-52.409 52.409-52.409-23.511-52.409-52.409 23.511-52.409 52.409-52.409zm139.478 371.954-35.831-39.516c-21.376 36.077-60.554 59.062-103.645 59.062-66.411 0-120.44-54.029-120.44-120.44 0-26.468 8.425-51.586 24.365-72.639 13.112-17.319 30.929-30.886 50.948-39.019v-38.902h90.25v30.125h60.312v30h-60.312v30.245h70.27l90.5 97.645z"/><circle cx="255.998" cy="112.659" r="22.409"/></g></svg>