<svg id="Capa_1" enable-background="new 0 0 512 512" height="512" viewBox="0 0 512 512" width="512" xmlns="http://www.w3.org/2000/svg"><g><path d="m190 308c24.813 0 45-20.187 45-45v-109h-30v109c0 8.271-6.729 15-15 15s-15-6.729-15-15v-218c0-8.271 6.729-15 15-15h60c6.516 0 12.059 4.184 14.125 10h30.591c-2.497-22.468-21.593-40-44.716-40h-60c-24.813 0-45 20.187-45 45v218c0 24.813 20.187 45 45 45z"/><path d="m351 71.076v88.924h88.924c-6.597-45.916-43.008-82.327-88.924-88.924z"/><path d="m321 190v-120h-116v54h60v139c0 41.355-33.645 75-75 75s-75-33.645-75-75v-193h-44v442h370v-322z"/></g></svg>