<svg id="Capa_1" enable-background="new 0 0 510 510" height="512" viewBox="0 0 510 510" width="512" xmlns="http://www.w3.org/2000/svg"><g><path d="m0 510h510v-375h-510zm164.784-279.633c11.338-11.339 26.414-17.583 42.45-17.583 16.036-.001 31.112 6.244 42.451 17.583l5.315 5.315 5.315-5.315c11.34-11.339 26.416-17.584 42.451-17.584 16.036 0 31.111 6.245 42.451 17.584 23.407 23.407 23.407 61.494 0 84.901l-.374.361-89.843 83.828-90.216-84.188c-11.339-11.339-17.584-26.415-17.584-42.45 0-16.037 6.245-31.113 17.584-42.452z"/><path d="m0 0h105v105h-105z"/><path d="m255 358.426 69.168-64.536c5.568-5.653 8.633-13.127 8.633-21.071 0-8.022-3.125-15.565-8.797-21.237-5.674-5.673-13.216-8.797-21.238-8.797-8.022-.001-15.564 3.124-21.237 8.796l-26.529 26.528-26.529-26.529c-5.672-5.672-13.215-8.797-21.237-8.797s-15.564 3.124-21.237 8.797c-11.655 11.655-11.71 30.586-.164 42.309z"/><path d="m135 0v105h375v-105zm195 75h-30v-30h30zm60 0h-30v-30h30zm60 0h-30v-30h30z"/></g></svg>