<svg id="Capa_1" enable-background="new 0 0 510 510" height="512" viewBox="0 0 510 510" width="512" xmlns="http://www.w3.org/2000/svg"><g><path d="m111.366 238.644-53.119-53.118c-11.25 9.39-21.613 20.562-30.376 33.263l51.28 51.28c9.92-10.524 20.574-20.989 32.215-31.425z"/><path d="m100.376 291.295 42.068 42.068c10.743-10.095 21.165-20.727 31.398-32.242l-41.224-41.224c-11.515 10.231-22.146 20.654-32.242 31.398z"/><path d="m313.839 80.493 39.406 39.407c13.647-16.54 24.97-32.775 33.051-47.582 3.981-7.294 15.356-31.29 10.886-35.761-4.43-4.433-28.148 6.731-35.762 10.886-14.806 8.081-31.041 19.404-47.581 33.05z"/><path d="m270.069 79.15-51.281-51.28c-12.064 8.324-23.374 18.53-33.263 30.377l53.119 53.119c9.658-10.773 20.049-21.492 31.425-32.216z"/><path d="m405.869 214.95-51.281-51.28c-10.318 10.947-20.994 21.367-32.215 31.424l53.119 53.119c11.273-9.409 21.63-20.586 30.377-33.263z"/><path d="m333.363 142.444-42.068-42.068c-10.743 10.095-21.166 20.726-31.398 32.242l41.225 41.224c11.513-10.231 22.145-20.654 32.241-31.398z"/><path d="m421.022 187.678c16.808-38.694 17.058-81.609.136-117.14-9.7 21.983-26.535 46.753-46.593 70.683z"/><path d="m119.9 353.246-39.407-39.407c-13.647 16.54-24.969 32.775-33.05 47.581-13.703 25.108-11.797 34.852-10.886 35.762s10.653 2.817 35.762-10.886c14.805-8.081 31.041-19.403 47.581-33.05z"/><path d="m163.669 354.588 51.281 51.281c12.014-8.29 23.335-18.483 33.263-30.377l-53.119-53.119c-10.043 11.204-20.46 21.88-31.425 32.215z"/><path d="m363.201 12.581c-35.531-16.922-78.445-16.671-117.14.136l46.457 46.457c23.93-20.058 48.7-36.893 70.683-46.593z"/><path d="m12.716 246.061c-16.807 38.694-17.057 81.608-.136 117.14 9.7-21.983 26.536-46.753 46.593-70.683z"/><path d="m299.355 214.502c-18.051 14.258-21.646 15.049-35.949 27.691l42.592 42.592c12.856-7.705 21.107-6.25 44.369-19.271z"/><path d="m214.502 299.355 51.013 51.012c12.653-22.605 11.776-31.865 19.271-44.369l-42.592-42.591c-10.79 12.205-17.54 23.097-27.692 35.948z"/><path d="m220.933 242.146-29.34-29.339c-15.723 14.129-21.96 17.179-35.791 27.848l37.284 37.283c10.954-14.203 13.652-19.995 27.847-35.792z"/><path d="m70.537 421.158c35.532 16.921 78.446 16.671 117.141-.135l-46.457-46.457c-23.93 20.057-48.701 36.892-70.684 46.592z"/><path d="m277.937 193.085-37.283-37.283c-10.334 13.397-13.857 20.221-27.848 35.792l29.34 29.339c15.723-14.129 21.96-17.18 35.791-27.848z"/><path d="m170.332 191.546-42.591-42.591c-12.856 7.705-21.108 6.249-44.369 19.27l51.012 51.012c18.05-14.259 21.646-15.05 35.948-27.691z"/><path d="m219.237 134.384-51.012-51.012c-12.913 23.069-11.618 31.6-19.271 44.369l42.591 42.591c12.641-14.3 13.434-17.898 27.692-35.948z"/><path d="m469.721 330c-27.439 0-53.756 10.9-73.158 30.303l-36.26 36.26c-19.403 19.402-30.303 45.718-30.303 73.158v40.279h40.279c27.44 0 53.756-10.9 73.158-30.303l36.26-36.259c19.403-19.403 30.303-45.719 30.303-73.159v-40.279z"/></g></svg>