<svg id="Capa_1" enable-background="new 0 0 510 510" height="512" viewBox="0 0 510 510" width="512" xmlns="http://www.w3.org/2000/svg"><g><circle cx="326.25" cy="375" r="30"/><path d="m266.25 150h45v30h-45z"/><path d="m386.25 254.091v-194.091c0-33.137-26.863-60-60-60-33.137 0-60 26.863-60 60v60h45v-30h30v226.898c25.85 6.678 45 30.195 45 58.102 0 33.084-26.916 60-60 60s-60-26.916-60-60c0-27.906 19.15-51.424 45-58.102v-106.898h-45v44.091c-44.413 22.129-75 68.01-75 120.909 0 74.44 60.561 135 135 135s135-60.56 135-135c0-52.898-30.587-98.78-75-120.909z"/><path d="m431.25 30h45v30h-45z"/><path d="m431.25 90h60v30h-60z"/><path d="m431.25 150h45v30h-45z"/><path d="m431.25 210h60v30h-60z"/><path d="m173.278 154.707 27.337 15.783 15-25.98-27.307-15.766c5.162-15.422 5.172-32.035 0-47.488l27.307-15.766-15-25.98-27.337 15.783c-10.583-11.93-24.892-20.481-41.095-23.784v-31.509h-30v31.509c-16.204 3.303-30.513 11.854-41.096 23.784l-27.337-15.783-15 25.98 27.307 15.766c-5.162 15.422-5.173 32.035 0 47.488l-27.307 15.766 15 25.98 27.337-15.783c10.583 11.93 24.892 20.482 41.095 23.784v31.509h30v-31.509c16.204-3.302 30.513-11.854 41.096-23.784z"/></g></svg>