<?xml version="1.0" encoding="iso-8859-1"?>
<!-- Generator: Adobe Illustrator 19.0.0, SVG Export Plug-In . SVG Version: 6.00 Build 0)  -->
<svg xmlns="http://www.w3.org/2000/svg" xmlns:xlink="http://www.w3.org/1999/xlink" version="1.1" id="Layer_1" x="0px" y="0px" viewBox="0 0 511.999 511.999" style="enable-background:new 0 0 511.999 511.999;" xml:space="preserve">
<g>
	<g>
		<path d="M468.002,26.116c-34.821-34.821-91.482-34.821-126.303,0l-99.05,99.051H107.15c-49.245,0-89.31,40.064-89.31,89.31    s40.064,89.31,89.31,89.31H256V150.922l106.749,106.749l105.253-105.252C502.823,117.597,502.823,60.937,468.002,26.116z"/>
	</g>
</g>
<g>
	<g>
		<path d="M446.527,357.196c-26.264,0-47.632,21.368-47.632,47.632s21.368,47.632,47.632,47.632s47.632-21.368,47.632-47.632    S472.791,357.196,446.527,357.196z"/>
	</g>
</g>
<g>
	<g>
		<path d="M315.539,273.84c-26.264,0-47.632,21.368-47.632,47.632s21.368,47.632,47.632,47.632s47.632-21.368,47.632-47.632    S341.804,273.84,315.539,273.84z"/>
	</g>
</g>
<g>
	<g>
		<path d="M279.816,416.736c-26.264,0-47.632,21.368-47.632,47.632s21.368,47.632,47.632,47.632s47.632-21.368,47.632-47.632    S306.08,416.736,279.816,416.736z"/>
	</g>
</g>
<g>
</g>
<g>
</g>
<g>
</g>
<g>
</g>
<g>
</g>
<g>
</g>
<g>
</g>
<g>
</g>
<g>
</g>
<g>
</g>
<g>
</g>
<g>
</g>
<g>
</g>
<g>
</g>
<g>
</g>
</svg>
