<svg id="Capa_1" enable-background="new 0 0 512 512" height="512" viewBox="0 0 512 512" width="512" xmlns="http://www.w3.org/2000/svg"><g id="XMLID_235_"><path id="XMLID_240_" d="m175.834 145.131c-57.317 0-103.948 46.631-103.948 103.948s46.631 103.948 103.948 103.948 103.948-46.631 103.948-103.948-46.631-103.948-103.948-103.948zm59.493 116.379-59.494 64.907-59.493-64.907c-10.21-11.139-13.98-26.504-10.086-41.104 3.662-13.731 13.36-24.557 26.608-29.702s27.711-3.7 39.681 3.96l3.291 2.106 3.291-2.106c11.97-7.662 26.433-9.105 39.681-3.96 13.248 5.144 22.946 15.971 26.609 29.703 3.893 14.599.122 29.965-10.088 41.103z"/><path id="XMLID_241_" d="m207.974 218.597c-4.247-1.649-8.882-1.187-12.718 1.27l-19.422 12.431-19.422-12.431c-2.322-1.486-4.936-2.242-7.58-2.242-1.725 0-3.462.321-5.138.973-4.246 1.649-7.354 5.119-8.528 9.52-1.248 4.68-.04 9.604 3.232 13.175l37.436 40.841 37.436-40.842c3.272-3.57 4.481-8.495 3.233-13.174-1.175-4.402-4.283-7.872-8.529-9.521z"/><path id="XMLID_245_" d="m296.709 366.87 21.597-20.189c15.932-14.892 25.069-35.942 25.069-57.752v-19.653c0-10.253 2.923-19.832 7.969-27.963l.323-166.687-43.963 11.796-43.963-14.745-43.957 14.745-43.958-14.745-43.956 14.745-43.956-14.745-43.958 14.745-43.956-11.795v335.633l43.956 14.745 43.958-14.745 43.956 14.745 43.956-14.745 43.958 14.745 28.442-11.153c2.275-25.356 22.912-45.496 48.483-46.982zm-120.875 16.079c-73.816 0-133.87-60.054-133.87-133.87s60.054-133.87 133.87-133.87 133.87 60.054 133.87 133.87-60.054 133.87-133.87 133.87z"/><path id="XMLID_246_" d="m340.58 366.774h110.338c-19.767-20.223-31.078-47.894-31.078-76.196v-21.301c0-12.832-10.439-23.271-23.271-23.271s-23.271 10.439-23.271 23.271v19.653c0 29.212-11.895 57.434-32.718 77.844z"/><path id="XMLID_247_" d="m490.187 396.696h-190.445c-12.028 0-21.813 9.785-21.813 21.813s9.785 21.814 21.813 21.814h190.445c12.028 0 21.813-9.786 21.813-21.814s-9.785-21.813-21.813-21.813z"/></g></svg>