<svg id="Capa_1" enable-background="new 0 0 510 510" height="512" viewBox="0 0 510 510" width="512" xmlns="http://www.w3.org/2000/svg"><g id="XMLID_3377_"><path id="XMLID_3418_" d="m307.572 201.439-.057.032c.17.17.341.33.511.5 29.283 29.284 29.311 76.748 0 106.06-13.57 13.569-32.32 21.97-53.03 21.97-74.031 0-135 59.931-135 135v45h60v-45c0-41.42 33.58-75 75-75 37.28 0 71.03-15.11 95.46-39.54 48.427-48.427 52.888-125.397 10.57-179.03-2.134 1.464-21.063 19.087-53.454 30.008z"/><path id="XMLID_3964_" d="m361.019 381.433c-15.948 13.419-34.05 23.557-53.479 30.06 13.858 13.61 22.457 32.549 22.457 53.508v45h60v-45c0-31.55-10.83-60.57-28.97-83.56z"/><path id="XMLID_3965_" d="m209.996 450-1.5 15v15h93v-15l-1.5-15z"/><path id="XMLID_3966_" d="m329.996 0v45c0 41.42-33.58 75-75 75-74.557 0-135 60.438-135 135 0 31.56 10.83 60.58 28.97 83.57 15.144-12.419 31.585-22.636 53.454-30.009l.057-.031c-15.224-15.137-22.48-34.263-22.48-53.53 0-41.405 33.579-75 75-75 74.561 0 135-60.464 135-135v-45z"/><path id="XMLID_3967_" d="m148.974 128.568c15.948-13.42 34.05-23.557 53.479-30.061-13.858-13.61-22.457-32.548-22.457-53.507v-45h-60v45c0 31.55 10.83 60.57 28.97 83.56z"/><path id="XMLID_3968_" d="m299.996 60 1.5-15v-15h-93v15l1.5 15z"/><path id="XMLID_3969_" d="m297.442 240h-85.942c-2.004 9.866-2.008 20.116 0 30h85.941c3.405-9.655 3.411-20.329.001-30z"/></g></svg>