<svg id="Capa_1" enable-background="new 0 0 507.935 507.935" height="512" viewBox="0 0 507.935 507.935" width="512" xmlns="http://www.w3.org/2000/svg"><g><path d="m253.976 261.12c-12.954 12.066-35.609 37.495-35.609 67.754 0 19.63 15.97 35.6 35.601 35.6 19.63 0 35.6-15.97 35.6-35.6 0-21.727-11.925-40.923-21.929-53.201-4.834-5.932-9.7-10.866-13.663-14.553z"/><path d="m501.06 404.561-72.26-125.156c2.098 10.987 3.167 22.198 3.167 33.569 0 24.017-4.711 47.331-14 69.295-8.967 21.2-21.797 40.233-38.135 56.57-16.337 16.337-35.37 29.168-56.57 38.134-3.112 1.316-6.253 2.53-9.417 3.662h143.293c18.335 0 34.754-9.479 43.921-25.358 9.168-15.879 9.168-34.838.001-50.716z"/><path d="m128.103 438.839c-16.338-16.338-29.168-35.371-38.135-56.57-9.29-21.964-14-45.278-14-69.295 0-11.371 1.069-22.582 3.167-33.569l-72.26 125.156c-9.167 15.878-9.167 34.837 0 50.715s25.586 25.358 43.921 25.358h143.294c-3.164-1.132-6.305-2.345-9.417-3.662-21.2-8.966-40.233-21.796-56.57-38.133z"/><path d="m401.968 312.974c0-81.738-66.262-148-148-148s-148 66.262-148 148 66.262 148 148 148 148-66.262 148-148zm-148 81.5c-36.172 0-65.601-29.428-65.601-65.6 0-57.577 54.46-97.846 56.778-99.532l8.823-6.417 8.823 6.417c2.318 1.686 56.777 41.955 56.777 99.532 0 36.172-29.428 65.6-65.6 65.6z"/><path d="m253.968 134.974c24.017 0 47.331 4.71 69.295 14 17.276 7.307 33.111 17.181 47.223 29.427l-72.598-125.742h.001c-9.168-15.878-25.586-25.358-43.92-25.358-.002 0 0 0-.001 0-18.333 0-34.754 9.481-43.92 25.358l-72.598 125.742c14.112-12.245 29.948-22.12 47.223-29.427 21.964-9.29 45.278-14 69.295-14z"/></g></svg>