<svg id="Capa_1" enable-background="new 0 0 500.171 500.171" height="512" viewBox="0 0 500.171 500.171" width="512" xmlns="http://www.w3.org/2000/svg"><g><path d="m114.984 328.242c-55.33 16.831-86.787 36.218-109.803 47.195 44.75 60.348 114.793 102.493 199.006 113.309-66.309-21.73-106.153-91.268-89.203-160.504z"/><path d="m350.228 346.717c-11.383-7.495-23.105-13.626-35.045-18.562 3.829 8.998 5.95 18.891 5.95 29.271 0 41.355-33.645 75-75 75-41.354 0-75-33.645-75-75 0-16.566 5.41-31.888 14.541-44.312-12.35 1.455-24.444 3.552-36.144 6.098-5.569 13.022-8.397 26.876-8.397 41.215 0 57.897 47.104 105 105 105 62.741-.002 112.348-55.193 104.095-118.71z"/><path d="m246.133 221.425c-102.778 0-193.352 46.834-246.133 123.225 12.59-6.126 81.603-46.57 171.826-59.668 107.782-15.649 202.517 15.499 266.63 107.892 19.433 29.297 12.343 18.609 13.955 21.039 30.041-27.615 44.267-52.78 47.76-57.487-2.114-1.918-73.888-135.001-254.038-135.001z"/><path d="m380.717 371.039c-4.308 55.137-41.887 101.072-92.62 117.705 51.319-6.595 99.734-25.1 141.046-55.636l-15.423-23.26c-10.346-14.891-21.404-27.748-33.003-38.809z"/><circle cx="246.133" cy="357.425" r="45"/><path d="m231.133 191.425v-30h-41.384l52.5-90h-101.116v30h48.885l-52.5 90z"/><path d="m396.133 131.425v-30h-41.385l52.5-90h-101.115v30h48.884l-52.5 90z"/></g></svg>