<svg id="Capa_1" enable-background="new 0 0 512 512" height="512" viewBox="0 0 512 512" width="512" xmlns="http://www.w3.org/2000/svg"><path d="m391 45c0-24.814-20.186-45-45-45h-180c-24.814 0-45 20.186-45 45 0 8.599 2.432 16.948 7.031 24.155l82.729 129.836-13.339 251.045c-1.873 33.425 24.823 61.964 58.579 61.964 46.064 0 59.615-43.495 58.594-61.934l-13.354-251.078 82.714-129.818c4.614-7.222 7.046-15.571 7.046-24.17zm-32.344 8.042-80.89 126.958h-43.531l-80.906-126.973c-1.523-2.387-2.329-5.171-2.329-8.027 0-8.276 6.724-15 15-15h180c8.276 0 15 6.724 15 15 0 2.856-.806 5.64-2.344 8.042z"/></svg>