<svg id="Capa_1" enable-background="new 0 0 512 512" height="512" viewBox="0 0 512 512" width="512" xmlns="http://www.w3.org/2000/svg"><g><path d="m451.88 114.462h-69.76c-16.61 0-30.12-13.52-30.12-30.13v-30.12h-64v30.12c0 33.16 26.97 60.13 60.12 60.13h69.76c16.61 0 30.12 13.51 30.12 30.12v29.19h64v-29.19c0-33.15-26.97-60.12-60.12-60.12z"/><path d="m135 328.72h20.957c17.947-37.202 56.047-62.932 100.043-62.932 43.997 0 82.096 25.729 100.043 62.932h76.957v-94.948h-298z"/><path d="m256 295.788c-44.664 0-81 36.336-81 81s36.336 81 81 81c44.663 0 81-36.336 81-81s-36.337-81-81-81zm53.036 112.824-21.213 21.213-31.823-31.824-31.823 31.824-21.213-21.213 31.824-31.824-31.824-31.824 21.213-21.213 31.823 31.824 31.823-31.824 21.213 21.213-31.824 31.824z"/><path d="m463 233.772h49v94.948h-49z"/><path d="m0 233.772h105v94.948h-105z"/></g></svg>