<svg id="Capa_1" enable-background="new 0 0 510 510" height="512" viewBox="0 0 510 510" width="512" xmlns="http://www.w3.org/2000/svg"><g><path d="m315 75h120v45h-120z"/><path d="m315 210h30v30h-30z"/><path d="m240 0v315h270v-315zm135 270h-90v-90h90zm90 0h-60v-30h60zm0-60h-60v-30h60zm0-60h-180v-105h180z"/><path d="m150 135h60v60h-60z"/><path d="m45 420c-24.853 0-45 20.147-45 45 0 24.853 20.147 45 45 45h270 30v-30h-30v-30h30v-30c-13.641 0-281.109 0-300 0z"/><path d="m60 390v-360c-33.084 0-60 26.916-60 60v315.041c12.544-9.438 28.129-15.041 45-15.041z"/><path d="m210 285h-90v-30h90v-30h-90v-120h90v-75h-120v360h255v-45h-135z"/></g></svg>