<svg id="Capa_1" enable-background="new 0 0 510 510" height="512" viewBox="0 0 510 510" width="512" xmlns="http://www.w3.org/2000/svg"><g><path id="XMLID_48_" d="m0 330.003h510v75h-510z"/><path id="XMLID_47_" d="m255 240.003c105.064 0 158.143-69.893 158.242-69.96-10.551-10.437-21.462-19.218-33.158-27.079-.102.083-41.168 66.991-125.032 67.03-85.278.04-123.864-66.001-125.136-67.031-11.79 7.925-22.69 16.726-33.158 27.08.099.068 53.185 69.96 158.242 69.96z"/><path id="XMLID_46_" d="m353.895 127.856c-61.41-30.116-134.9-30.84-197.789 0 .679.543 31.5 52.144 98.895 52.139 65.575-.005 98.131-51.529 98.894-52.139z"/><path id="XMLID_45_" d="m477.99 300.003h-445.98c5.27-39.27 20.801-76.19 44.7-107.23.101.067 61.069 77.23 178.29 77.23 119.474 0 178.185-77.16 178.29-77.23 23.9 31.04 39.43 67.96 44.7 107.23z"/></g></svg>