<svg id="Capa_1" enable-background="new 0 0 510 510" height="512" viewBox="0 0 510 510" width="512" xmlns="http://www.w3.org/2000/svg"><g><path d="m390 345h30v30h-30z"/><path d="m0 180v300h510v-300zm202.65 170.917-1.213 54.242-51.963-15.608-51.961 15.608-1.213-54.242-30.902-44.596 51.213-17.915 32.863-43.17 32.864 43.17 51.213 17.915zm127.35 54.083h-60v-30h60zm0-60h-60v-30h60zm0-60h-60v-30h60zm120 120h-90v-90h90zm0-120h-90v-30h90z"/><path d="m149.475 294.764-14.452 18.984-22.521 7.878 13.589 19.611.533 23.854 22.851-6.864 22.85 6.864.533-23.854 13.59-19.611-22.521-7.878z"/><path d="m300.718 150h7.415l66.867-86.72-49.92-33.28-56.997 70.59c1.641 2.485-8.55-12.944 32.635 49.41z"/><path d="m264.984 150c-8.135-12.192-71.473-107.127-80.062-120l-49.922 33.282 55.723 86.718z"/></g></svg>