<svg id="Capa_1" enable-background="new 0 0 512.001 512.001" height="512" viewBox="0 0 512.001 512.001" width="512" xmlns="http://www.w3.org/2000/svg"><g><path d="m401.667 290.41h55.248v-30h-18.579l23.522-34.468-7.612-18.234-57.666.018.01 30 20.911-.007-23.547 34.504z"/><path d="m467.937 109.672-33.46 49.029 7.888 18.608h68.103v-30h-31.897l33.43-48.986-7.795-18.653-71.173.004.002 30z"/><path d="m333.463 194.34c-32.946-4.621-61.146-24.236-77.463-51.703-16.316 27.467-44.517 47.083-77.463 51.703v61.06c0 46 34.75 83.423 77.463 83.423s77.463-37.423 77.463-83.423zm-54.855 104.285c-.654-2.879-4.823-17.24-22.608-17.24-18.959 0-22.431 16.355-22.569 17.052l-29.424-5.854c2.835-14.25 17.35-41.198 51.993-41.198s49.158 26.949 51.993 41.198l-29.424 5.854z"/><path d="m199.375 351.757-4.438 15.283c11.476 32.722 38.88 44.783 61.062 44.783s49.586-12.061 61.062-44.783l-4.438-15.283c-16.453 10.81-35.858 17.066-56.625 17.066s-40.169-6.256-56.623-17.066z"/><path d="m167.457 379.196-30.791 9.35 3.451 20.048c5.721 33.244 22.586 63.069 47.86 85.002l41.193-55.717c-25.708-7.659-49.726-26.694-61.713-58.683z"/><path d="m211.68 512h88.641l-44.321-59.947z"/><path d="m375.322 388.543-30.779-9.347c-11.987 31.989-36.005 51.024-61.713 58.683l41.181 55.7c25.263-21.931 42.12-51.75 47.841-84.985z"/><path d="m110.553 413.683-2.814-16.352-13.175 4.001c-51.086 15.513-88.099 58.83-94.564 110.668h83.563v-62.978h30v62.978h50.037c-27.883-26.007-46.506-60.307-53.047-98.317z"/><path d="m148.581 165.384h14.956c42.713 0 77.463-34.75 77.463-77.463v-16.744h30v16.743c0 42.713 34.75 77.463 77.463 77.463h14.956c6.784-5.683 11.023-14.203 11.023-23.592 0-38.559-27.697-70.63-64.277-77.455v-9.653c0-29.988-24.149-54.668-54.137-54.683-29.927-.015-54.193 24.241-54.193 54.165v10.171c-36.58 6.825-64.277 38.896-64.277 77.455 0 9.389 4.239 17.909 11.023 23.593z"/><path d="m417.437 401.332-13.19-4.005-2.833 16.37c-6.54 37.998-25.164 72.296-53.045 98.303h50.068v-62.978h30v62.978h83.563c-6.465-51.838-43.478-95.155-94.563-110.668z"/></g></svg>