<svg id="Capa_1" enable-background="new 0 0 512 512" height="512" viewBox="0 0 512 512" width="512" xmlns="http://www.w3.org/2000/svg"><g><circle cx="156" cy="210.62" r="35"/><path d="m256 0c-141.38 0-256 114.62-256 256s114.62 256 256 256 256-114.62 256-256-114.62-256-256-256zm-100 275.62c-35.84 0-65-29.16-65-65s29.16-65 65-65c35.85 0 65 29.16 65 65s-29.15 65-65 65zm146.78 113.34c0 26.33-22.04 44.56-46.78 46.04h-25.16v-30h25.16c8.39-.98 16.78-6.25 16.78-16.04 0-8.84-7.2-16.03-16.78-16.03v-30c9.58 0 16.78-7.19 16.78-16.03 0-9.79-8.39-15.05-16.78-16.03h-25.16v-30h25.16c24.76.95 46.78 20.14 46.78 46.03 0 11.95-4.58 22.84-12.07 31.03 7.49 8.19 12.07 19.09 12.07 31.03zm53.22-113.34c-35.85 0-65-29.16-65-65s29.15-65 65-65c35.84 0 65 29.16 65 65s-29.16 65-65 65z"/><circle cx="356" cy="210.62" r="35"/></g></svg>