<svg id="Capa_1" enable-background="new 0 0 512 512" height="512" viewBox="0 0 512 512" width="512" xmlns="http://www.w3.org/2000/svg"><g><path d="m380.9 141.929v84.57h103.91z"/><path d="m512 286.499v-30h-131.1v90h131.1v-30h-57v-30z"/><path d="m141.47 178.579c-8.504 8.13-14.677 18.773-17.46 30.22h34.91z"/><path d="m202.36 284.029-17.46-30.23-17.46 30.23c11.29 3.26 23.63 3.26 34.92 0z"/><path d="m239.22 192.449c-2.97-5.12-6.64-9.79-10.89-13.87l-17.45 30.22h34.91c-1.41-5.72-3.61-11.23-6.57-16.35z"/><path d="m0 346.499h350.9v-241h-350.9zm92.2-122.7c-.257-32.632 18.03-64.157 46.32-80.28 0 0 13-7.53 13-7.53l33.38 57.81 33.38-57.81c20.003 10.916 35.219 21.156 46.9 41.43 11.758 20.174 13.014 38.618 12.42 61.38h-66.72l33.36 57.77c-19.413 11.933-35.876 19.992-59.34 19.93-23.481.06-39.931-8.001-59.34-19.93l33.36-57.77h-66.72z"/><path d="m76 346.499c-16.699-.028-30.053 13.704-30 30 1.577 39.793 58.427 39.786 60 0 .053-16.296-13.301-30.028-30-30z"/><path d="m110.03 361.499c-11.615 19.535 3.092 45.243 25.97 45 22.876.241 37.587-25.464 25.969-45-11.291-19.896-40.649-19.894-51.939 0z"/><path d="m412.03 361.499c-11.615 19.535 3.092 45.243 25.97 45 22.876.241 37.587-25.464 25.969-45-11.291-19.896-40.649-19.894-51.939 0z"/></g></svg>