<svg id="Capa_1" enable-background="new 0 0 512 512" height="512" viewBox="0 0 512 512" width="512" xmlns="http://www.w3.org/2000/svg"><g><path d="m512 46.452-72.19 72.69c-5.75-5.767-12.025-10.908-19.01-15.12l4.26-31.2v-31.72l41.1-41.09z"/><path d="m395.06.012v71.09l-2.1 18.27-2.88 2.85c-19.918-3.833-40.903-.937-59.13 7.92l.01-100.13h64.1z"/><path d="m481.18 202.922-45.33 45.34-37.23-37.23c-14.38-14.401-38.455-14.385-52.84 0l-46.95 46.95-45.33-45.32s73.42-73.42 73.44-73.44c15.249-15.146 37.942-21.805 58.953-17.22 12.845 2.803 22.878 10.121 32.777 18.42z"/><path d="m126.95 355.992c.063 13.006 1.831 26.038 4.79 38.69 9.827 41.963-17.856 80.426-44.44 109.75-51.812-18.434-87.3-68.86-87.3-123.81 0-72.55 58.83-131.37 131.39-131.37 12.67 0 24.93 1.79 36.51 5.15-27.141 26.708-41.223 63.735-40.95 101.59z"/><path d="m249.08 322.182c22.078 44.378 16.775 98.799-13.274 138.099-26.895 35.175-70.412 54.625-114.546 51.351 29.23-32.502 49.833-79.855 39.69-123.79-6.274-27.041-5.531-55.492 6.23-80.98 7.003-15.118 17.788-29.474 31.38-39.27l33.73-33.72 45.32 45.32-33.33 33.34z"/></g></svg>