<svg id="Capa_1" enable-background="new 0 0 512 512" height="512" viewBox="0 0 512 512" width="512" xmlns="http://www.w3.org/2000/svg"><g><path d="m172.636 190.803 1.304.753c5.109-6.46 10.904-12.255 17.364-17.364l-.753-1.304c-10.488-18.149-29.238-29.561-48.032-30.132.571 18.838 11.982 37.573 30.117 48.047z"/><path d="m151.073 241.252h1.443c1.203-8.289 3.113-16.324 6.141-23.873l-1.022-.59c-18.164-10.503-40.107-11.001-56.66-2.08 9.903 16.025 29.151 26.543 50.098 26.543z"/><path d="m158.657 295.125c-3.029-7.549-4.938-15.584-6.141-23.873h-1.443c-20.947 0-40.195 10.518-50.083 26.499 16.67 8.936 38.525 8.408 56.646-2.036z"/><path d="m172.636 321.701c-18.149 10.488-29.561 29.238-30.132 48.032 18.838-.557 37.573-11.982 48.047-30.117l.753-1.304c-6.46-5.109-12.255-10.904-17.364-17.364z"/><path d="m353.343 217.379c3.029 7.549 4.938 15.584 6.141 23.873h1.443c20.947 0 40.195-10.518 50.083-26.499-16.699-8.936-38.525-8.408-56.646 2.036z"/><path d="m339.364 190.803c18.149-10.488 29.561-29.238 30.132-48.032-18.838.557-37.573 11.982-48.047 30.117l-.753 1.304c6.46 5.109 12.255 10.904 17.364 17.364z"/><path d="m217.127 158.909c7.549-3.029 15.584-4.938 23.873-6.141v-1.443c0-20.947-10.518-40.195-26.499-50.083-8.95 16.685-8.408 38.555 2.036 56.646z"/><path d="m295.463 157.888c10.474-18.149 11.001-40.093 2.08-56.66-16.025 9.902-26.543 29.15-26.543 50.097v1.443c8.289 1.203 16.324 3.113 23.873 6.141z"/><path d="m216.537 354.616c-10.474 18.149-11.001 40.093-2.08 56.66 16.025-9.902 26.543-29.15 26.543-50.098v-1.443c-8.289-1.203-16.324-3.113-23.873-6.141z"/><path d="m339.364 321.701-1.304-.753c-5.109 6.46-10.904 12.255-17.364 17.364l.753 1.304c10.488 18.149 29.238 29.561 48.032 30.132-.571-18.838-11.982-37.573-30.117-48.047z"/><path d="m256 181.252c-41.353 0-75 33.647-75 75s33.647 75 75 75 75-33.647 75-75-33.647-75-75-75zm0 120c-24.814 0-45-20.186-45-45s20.186-45 45-45 45 20.186 45 45-20.186 45-45 45z"/><path d="m505.322 247.697c-14.399-21.471-32.754-36.271-57.107-42.964 17.774-18.036 28.878-41.733 30.632-68.481l-.22-9.448-8.379-4.116c-23.19-11.393-49.076-13.541-73.531-7.159 6.398-24.43 4.316-50.184-6.786-72.689l-4.292-10.122-10.884.732c-25.79 1.741-49.283 12.828-67.256 30.577-6.689-24.378-21.413-43.928-42.505-58.027l-8.716-6-8.833 5.678c-21.471 14.399-36.271 34.006-42.964 58.359-18.035-17.774-41.733-28.878-68.481-30.632l-9.448.22-4.116 8.379c-11.391 23.188-13.542 49.08-7.161 73.531-24.428-6.398-50.184-4.316-72.687 6.786l-10.122 4.292.732 10.884c1.741 25.79 12.828 49.283 30.577 67.256-24.377 6.689-43.42 21.412-57.519 42.504l-6.256 8.717 5.933 8.833c14.399 21.471 33.499 36.271 57.852 42.964-17.774 18.036-28.878 41.733-30.632 68.481l.22 9.448 8.379 4.116c14.883 7.31 30.894 10.972 46.919 10.972 8.947 0 17.833-1.481 26.596-3.768-6.383 24.415-4.292 50.154 6.802 72.645l4.292 10.122 10.884-.732c25.79-1.741 49.283-12.828 67.256-30.577 6.689 24.377 21.412 43.168 42.504 57.267l8.716 6.255 8.833-5.933c21.471-14.399 36.271-33.247 42.964-57.6 18.036 17.774 41.733 28.878 68.481 30.632l9.448-.22 4.116-8.379c11.387-23.179 13.541-49.061 7.17-73.502 8.857 2.316 17.827 3.82 26.829 3.82 15.82 0 31.509-3.56 45.85-10.635l10.122-4.292-.732-10.884c-1.741-25.79-12.828-49.283-30.577-67.256 24.377-6.689 42.675-21.412 56.774-42.504l7-8.716zm-65.426 66.284c-14.035 12.184-31.432 18.602-49.433 19.713 8.101 16.068 11.107 34.237 7.656 52.094l-1.904 9.888-9.99 2.563c-5.127.996-10.283 1.479-15.381 1.479-13.004 0-25.527-3.686-37.121-9.489-.956 18.085-7.421 35.453-19.407 49.274l-6.636 7.632-9.946-2.827c-17.424-6.013-31.769-17.666-41.704-32.64-9.86 14.938-24.053 26.53-41.162 32.435l-9.39 3.237-7.207-7.192c-12.297-14.163-18.906-31.708-19.926-49.885-11.596 5.841-24.097 9.543-36.984 9.543-4.966 0-9.946-.469-14.897-1.436l-9.888-1.904-2.563-9.99c-3.519-18.212-.542-36.555 7.544-52.709-17.902-1.04-35.11-7.322-48.809-19.2l-7.632-6.636 2.827-9.946c6.013-17.424 17.666-31.769 32.64-41.704-14.938-9.86-26.53-24.053-32.435-41.162l-3.237-9.39 7.192-7.207c14.009-12.164 31.335-18.796 49.312-19.922-8.018-16.014-10.97-34.107-7.535-51.885l1.904-9.888 9.99-2.563c18.137-3.488 36.401-.564 52.498 7.436 1.064-17.88 7.551-35.026 19.411-48.701l6.636-7.632 9.946 2.827c17.424 6.013 31.769 17.666 41.704 32.64 9.86-14.938 24.053-26.53 41.162-32.435l9.39-3.237 7.207 7.192c12.171 14.019 18.801 31.348 19.926 49.327 16.04-8.038 34.147-11.003 51.881-7.549l9.888 1.904 2.563 9.99c3.503 18.122.586 36.381-7.41 52.476 17.869 1.068 35.006 7.564 48.675 19.433l7.632 6.636-2.827 9.946c-6.013 17.424-17.666 31.769-32.64 41.704 14.938 9.86 26.53 24.053 32.435 41.162l3.237 9.39z"/><path d="m360.927 271.252h-1.443c-1.203 8.289-3.113 16.324-6.141 23.873l1.022.59c18.149 10.488 40.122 11.001 56.66 2.08-9.903-16.025-29.151-26.543-50.098-26.543z"/><circle cx="256" cy="256.252" r="15"/><path d="m294.873 353.594c-7.549 3.029-15.584 4.938-23.873 6.141v1.443c0 20.947 10.518 40.195 26.499 50.083 8.95-16.685 8.408-38.555-2.036-56.646z"/></g></svg>