<svg id="Layer_1" enable-background="new 0 0 510 510" height="512" viewBox="0 0 510 510" width="512" xmlns="http://www.w3.org/2000/svg"><g id="XMLID_838_"><path id="XMLID_841_" d="m255 391.066 101.476-101.476c14.752-14.753 14.752-38.756 0-53.509-14.75-14.751-38.755-14.753-53.509 0l-47.967 47.968-47.967-47.967c-14.751-14.75-38.755-14.754-53.51.001-14.751 14.753-14.751 38.756 0 53.509z"/><path id="XMLID_925_" d="m405 30v60h-30v-60h-60v60h-30v-60h-60v60h-30v-60h-60v60h-30v-60h-105v90h510v-90z"/><path id="XMLID_928_" d="m0 510h510v-360h-510zm132.311-295.131c26.449-26.449 69.485-26.45 95.936-.001l26.753 26.755 26.754-26.754c26.449-26.448 69.485-26.45 95.935-.001v.001c26.449 26.449 26.449 69.485 0 95.935l-94.197 94.196h91.508v30h-240v-30h91.508l-94.197-94.196c-26.45-26.45-26.45-69.486 0-95.935z"/><path id="XMLID_929_" d="m105 0h30v30h-30z"/><path id="XMLID_930_" d="m195 0h30v30h-30z"/><path id="XMLID_931_" d="m285 0h30v30h-30z"/><path id="XMLID_932_" d="m375 0h30v30h-30z"/></g></svg>