<svg id="Capa_1" enable-background="new 0 0 512 512" height="512" viewBox="0 0 512 512" width="512" xmlns="http://www.w3.org/2000/svg"><g id="Halitosis_1_"><g><path d="m166 119.24h75v-119.24c-26.27 1.54-51.442 7.02-75 15.95z"/><path d="m376 119.24h95.938c-23.624-37.652-56.623-68.813-95.938-89.877z"/><path d="m346 15.95c-23.558-8.93-48.73-14.41-75-15.95v119.24h75z"/><path d="m23.886 149.24c-14.566 32.066-23.886 67.546-23.886 105 0 24.814 20.186 45 45 45h47.483c3.126-22.925 12.867-44.93 29.41-63.779 30.894-35.2 81.035-56.221 134.106-56.221s103.213 21.021 134.106 56.221c16.544 18.849 26.287 40.854 29.412 63.779h47.483c24.814 0 45-20.186 45-45 0-37.454-9.32-72.935-23.886-105z"/><path d="m136 119.24v-89.877c-39.315 21.064-72.314 52.225-95.938 89.877z"/><path d="m256 209.24c-44.561 0-86.265 17.197-111.562 46.011-11.75 13.391-18.699 28.347-21.588 43.989h266.301c-2.889-15.643-9.838-30.599-21.588-43.989-25.298-28.814-67.002-46.011-111.563-46.011z"/></g><g><path d="m196 512h-30v-15c0-19.526 12.275-29.766 20.405-36.533 7.251-6.035 9.595-8.423 9.595-13.462 0-5.054-2.344-7.427-9.609-13.477-8.116-6.782-20.391-17.007-20.391-36.533s12.275-29.751 20.391-36.519c7.266-6.05 9.609-8.423 9.609-13.477v-15h30v15c0 19.526-12.275 29.766-20.405 36.533-7.251 6.035-9.595 8.423-9.595 13.462 0 5.054 2.344 7.427 9.609 13.477 8.115 6.782 20.391 17.007 20.391 36.533s-12.275 29.751-20.391 36.519c-7.265 6.05-9.609 8.423-9.609 13.477z"/></g><g><path d="m106 512h-30v-15c0-19.526 12.275-29.766 20.405-36.533 7.251-6.035 9.595-8.423 9.595-13.462 0-5.054-2.344-7.427-9.609-13.477-8.116-6.782-20.391-17.007-20.391-36.533s12.275-29.751 20.391-36.519c7.266-6.05 9.609-8.423 9.609-13.477v-15h30v15c0 19.526-12.275 29.766-20.405 36.533-7.251 6.035-9.595 8.423-9.595 13.462 0 5.054 2.344 7.427 9.609 13.477 8.115 6.782 20.391 17.007 20.391 36.533s-12.275 29.751-20.391 36.519c-7.265 6.05-9.609 8.423-9.609 13.477z"/></g><g><path d="m346 512h-30v-15c0-5.054-2.344-7.427-9.609-13.477-8.116-6.767-20.391-16.992-20.391-36.518s12.275-29.751 20.391-36.533c7.266-6.05 9.609-8.423 9.609-13.477 0-5.039-2.344-7.427-9.595-13.462-8.13-6.767-20.405-17.007-20.405-36.533v-15h30v15c0 5.054 2.344 7.427 9.609 13.477 8.115 6.768 20.391 16.992 20.391 36.519s-12.275 29.751-20.391 36.533c-7.266 6.05-9.609 8.423-9.609 13.477 0 5.039 2.344 7.427 9.595 13.462 8.13 6.766 20.405 17.006 20.405 36.532z"/></g><g><path d="m436 512h-30v-15c0-5.054-2.344-7.427-9.609-13.477-8.116-6.767-20.391-16.992-20.391-36.518s12.275-29.751 20.391-36.533c7.266-6.05 9.609-8.423 9.609-13.477 0-5.039-2.344-7.427-9.595-13.462-8.13-6.767-20.405-17.007-20.405-36.533v-15h30v15c0 5.054 2.344 7.427 9.609 13.477 8.115 6.768 20.391 16.992 20.391 36.519s-12.275 29.751-20.391 36.533c-7.266 6.05-9.609 8.423-9.609 13.477 0 5.039 2.344 7.427 9.595 13.462 8.13 6.766 20.405 17.006 20.405 36.532z"/></g></g></svg>