<svg id="Capa_1" enable-background="new 0 0 511.99 511.99" height="512" viewBox="0 0 511.99 511.99" width="512" xmlns="http://www.w3.org/2000/svg"><g><path d="m223.014 376h65.962c-6.25-12.696-17.941-23.265-32.981-29.096-15.04 5.831-26.732 16.4-32.981 29.096z"/><path d="m288.976 286h-65.962c6.25 12.696 17.941 23.265 32.981 29.096 15.04-5.831 26.731-16.4 32.981-29.096z"/><path d="m450.58 227.81c-20.994-38.979-57.939-66.288-101.361-74.925-26.262-5.223-53.314-3.191-78.224 5.626v-38.511h-30v38.51c-24.908-8.817-51.959-10.849-78.224-5.626-43.422 8.637-80.367 35.946-101.361 74.925s-23.467 84.854-6.785 125.864l30.903 75.971c20.523 50.453 69.585 82.349 122.432 82.345 8.513-.001 17.132-.829 25.736-2.541 7.595-1.511 15.069-3.697 22.299-6.52 7.229 2.822 14.704 5.009 22.298 6.52 8.609 1.712 17.221 2.541 25.737 2.541 52.842-.001 101.91-31.896 122.432-82.345l30.903-75.971c16.682-41.009 14.209-86.885-6.785-125.863zm-126.558 169.401v38.789h-30v-30h-76.055v30h-30v-38.789c0-26.078 13.376-50.302 35.091-66.211-21.715-15.909-35.091-40.133-35.091-66.211v-38.789h30v30h76.055v-30h30v38.789c0 26.078-13.376 50.302-35.091 66.211 21.715 15.909 35.091 40.133 35.091 66.211z"/><path d="m181.514 90h59.481v-19.481c0-38.884-31.635-70.519-70.519-70.519h-59.481v19.481c0 38.884 31.635 70.519 70.519 70.519z"/><path d="m400.995 19.481v-19.481h-59.481c-38.884 0-70.519 31.635-70.519 70.519v19.481h59.481c38.884 0 70.519-31.635 70.519-70.519z"/></g></svg>