<svg id="Capa_1" enable-background="new 0 0 512 512" height="512" viewBox="0 0 512 512" width="512" xmlns="http://www.w3.org/2000/svg"><g><path d="m92.12 303.23h69.76c16.61 0 30.12 13.51 30.12 30.12v28.15h64v-28.15c0-33.15-26.97-60.12-60.12-60.12h-69.76c-16.61 0-30.12-13.52-30.12-30.13v-30.12h-64v30.12c0 33.16 26.97 60.13 60.12 60.13z"/><path d="m288.01 0h95.99v113h-95.99z"/><path d="m312.94 297.61c0 21.645-7.141 43.088-12.34 63.89h96l8.81-35.24c6.84-27.35 3.67-56.24-8.94-81.45-8.171-16.342-12.47-34.538-12.47-52.81v-49h-95.99v49c0 18.33 4.26 36.41 12.46 52.81 8.26 16.51 12.47 34.6 12.47 52.8z"/><path d="m0 391.5h512v37.17h-512z"/><path d="m0 480 32 32h448l32-32v-21.33h-512z"/></g></svg>