<?xml version="1.0" encoding="iso-8859-1"?>
<!-- Generator: Adobe Illustrator 19.0.0, SVG Export Plug-In . SVG Version: 6.00 Build 0)  -->
<svg xmlns="http://www.w3.org/2000/svg" xmlns:xlink="http://www.w3.org/1999/xlink" version="1.1" id="Layer_1" x="0px" y="0px" viewBox="0 0 512 512" style="enable-background:new 0 0 512 512;" xml:space="preserve">
<g>
	<g>
		<polygon points="295.219,66.06 295.219,97.343 303.874,97.343 303.874,207.813 335.157,207.813 335.157,66.06   "/>
	</g>
</g>
<g>
	<g>
		<path d="M236.375,0h-0.678c-32.451,0-58.854,26.402-58.854,58.854v7.206h15.641h15.641h55.809h15.642h15.641v-7.206    C295.219,26.402,268.827,0,236.375,0z"/>
	</g>
</g>
<g>
	<g>
		<path d="M279.579,368.63h-15.643h-55.809h-15.641h-15.641v50.449h14.807l28.165,70.689c0.175,0.44,0.368,0.867,0.574,1.285V512    h31.283v-20.93c0.21-0.423,0.406-0.856,0.584-1.301l28.155-70.689h14.807v-50.45H279.579z"/>
	</g>
</g>
<g>
	<g>
		<polygon points="279.578,97.343 263.935,97.343 208.127,97.343 192.485,97.343 176.844,97.343 176.844,337.346 192.485,337.346     208.127,337.346 263.935,337.346 279.578,337.346 295.219,337.346 295.219,97.343   "/>
	</g>
</g>
<g>
</g>
<g>
</g>
<g>
</g>
<g>
</g>
<g>
</g>
<g>
</g>
<g>
</g>
<g>
</g>
<g>
</g>
<g>
</g>
<g>
</g>
<g>
</g>
<g>
</g>
<g>
</g>
<g>
</g>
</svg>
