<?xml version="1.0" encoding="iso-8859-1"?>
<!-- Generator: Adobe Illustrator 19.0.0, SVG Export Plug-In . SVG Version: 6.00 Build 0)  -->
<svg xmlns="http://www.w3.org/2000/svg" xmlns:xlink="http://www.w3.org/1999/xlink" version="1.1" id="Layer_1" x="0px" y="0px" viewBox="0 0 512 512" style="enable-background:new 0 0 512 512;" xml:space="preserve">
<g>
	<g>
		<path d="M472.229,87.179c-13.549-39.33-41.227-68.27-75.937-79.401C330.833-13.215,276.93,13.512,256,26.593    c-20.93-13.082-74.831-39.808-140.292-18.815c-34.726,11.136-62.41,40.094-75.953,79.448    c-17.787,51.689-8.834,111.304,23.951,159.471c1.742,2.56,3.509,5.262,5.252,8.031l4.409,7.006h365.285l4.408-7.015    c1.763-2.807,3.549-5.54,5.306-8.125l0.001-0.001C481.103,198.429,490.023,138.835,472.229,87.179z"/>
	</g>
</g>
<g>
	<g>
		<path d="M86.478,293.334l14.458,22.973c15.344,24.381,25.065,50.495,28.893,77.616c0.24,1.702,0.475,3.442,0.704,5.219    c9.282,72.011,28.103,109.934,55.939,112.717c16.759,1.675,30.419-11.591,40.623-39.43c6.822-18.614,12.195-43.507,15.13-70.093    c1.977-17.911,6.751-27.807,10.408-32.953c1.072-1.509,2.571-1.734,3.369-1.734c0.798,0,2.297,0.225,3.37,1.735    c3.657,5.146,8.43,15.039,10.407,32.952c2.934,26.587,8.308,51.479,15.13,70.093C294.54,498.706,307.257,512,322.74,512    c0.92,0,1.851-0.047,2.79-0.141c27.837-2.783,46.658-40.707,55.94-112.717c0.221-1.713,0.446-3.389,0.678-5.033    c3.821-27.153,13.555-53.332,28.935-77.812l14.427-22.963H86.478z"/>
	</g>
</g>
<g>
</g>
<g>
</g>
<g>
</g>
<g>
</g>
<g>
</g>
<g>
</g>
<g>
</g>
<g>
</g>
<g>
</g>
<g>
</g>
<g>
</g>
<g>
</g>
<g>
</g>
<g>
</g>
<g>
</g>
</svg>
