<svg id="Capa_1" enable-background="new 0 0 512.001 512.001" height="512" viewBox="0 0 512.001 512.001" width="512" xmlns="http://www.w3.org/2000/svg"><g><path d="m366.137 139.411-21.945 8.194c-11.614-10.784-25.567-18.849-40.712-23.535l-3.871-23.07h-32.539l-3.871 23.069c-15.144 4.676-29.087 12.757-40.712 23.535l-21.945-8.194-16.27 28.18 18.037 14.883c-3.491 15.466-3.482 31.582 0 47.054l-18.037 14.883 16.27 28.18 21.946-8.194c11.614 10.785 25.566 18.85 40.711 23.537l3.871 23.067h32.539l3.871-23.068c15.144-4.677 29.087-12.757 40.711-23.536l21.946 8.194 16.27-28.18-18.037-14.883c3.491-15.466 3.482-31.582 0-47.054l18.037-14.883zm-82.798 117.376c-28.004 0-50.786-22.783-50.786-50.787 0-28.003 22.782-50.786 50.786-50.786s50.786 22.783 50.786 50.786c0 28.004-22.782 50.787-50.786 50.787z"/><path d="m283.339 185.214c-11.462 0-20.786 9.325-20.786 20.786 0 11.462 9.324 20.787 20.786 20.787s20.786-9.325 20.786-20.787c0-11.461-9.324-20.786-20.786-20.786z"/><path d="m488.39 202.648c0-111.92-90.728-202.648-202.648-202.648-90.163 0-166.564 58.878-192.868 140.28l-9.76 60.392-59.504 98.703v29.92h47.385l20.165 110.149h112.918l17.139 72.557h228.021l-28.235-158.448c41.367-37.101 67.387-90.969 67.387-150.905zm-138.608 95.858c-6.14 4.421-12.678 8.202-19.555 11.309l-5.233 31.185h-83.309l-5.233-31.185c-6.877-3.107-13.415-6.888-19.554-11.309l-29.644 11.068-41.656-72.148 24.406-20.137c-.741-7.526-.741-15.051 0-22.577l-24.406-20.137 41.656-72.148 29.644 11.068c6.14-4.422 12.677-8.202 19.554-11.309l5.233-31.186h83.309l5.233 31.185c6.877 3.107 13.414 6.887 19.554 11.309l29.646-11.068 41.654 72.148-24.406 20.137c.741 7.526.741 15.051 0 22.577l24.406 20.137-41.654 72.148z"/></g></svg>