<svg id="Capa_1" enable-background="new 0 0 512 512" height="512" viewBox="0 0 512 512" width="512" xmlns="http://www.w3.org/2000/svg"><g><circle cx="211.875" cy="240.729" r="15.125"/><path d="m464 208c-14.214 0-26.979 6.183-35.768 16h-28.783c-3.748-16.876-10.392-32.66-19.394-46.801l20.358-20.359c13.157.727 26.555-3.927 36.605-13.978 18.745-18.745 18.745-49.137 0-67.882s-49.137-18.745-67.882 0c-10.05 10.05-14.705 23.449-13.978 36.605l-20.359 20.358c-14.141-9.001-29.925-15.645-46.801-19.394v-28.781c9.817-8.789 16-21.554 16-35.768 0-26.51-21.49-48-48-48s-48 21.49-48 48c0 14.214 6.183 26.979 16 35.768v28.783c-16.876 3.748-32.66 10.392-46.801 19.394l-20.359-20.358c.727-13.157-3.927-26.555-13.978-36.605-18.745-18.745-49.137-18.745-67.882 0s-18.745 49.137 0 67.882c10.05 10.05 23.449 14.705 36.605 13.978l20.358 20.359c-9.001 14.141-15.645 29.925-19.394 46.801h-28.779c-8.789-9.817-21.554-16-35.768-16-26.51 0-48 21.49-48 48s21.49 48 48 48c14.214 0 26.979-6.183 35.768-16h28.783c3.748 16.876 10.392 32.66 19.394 46.801l-20.358 20.359c-13.157-.727-26.555 3.927-36.605 13.978-18.745 18.745-18.745 49.137 0 67.882s49.137 18.745 67.882 0c10.05-10.05 14.705-23.449 13.978-36.605l20.359-20.358c14.141 9.001 29.925 15.645 46.801 19.394v28.783c-9.817 8.789-16 21.554-16 35.768 0 26.51 21.49 48 48 48s48-21.49 48-48c0-14.214-6.183-26.979-16-35.768v-28.783c16.876-3.748 32.66-10.392 46.801-19.394l20.359 20.358c-.727 13.157 3.927 26.555 13.978 36.605 18.745 18.745 49.137 18.745 67.882 0s18.745-49.137 0-67.882c-10.05-10.05-23.449-14.705-36.605-13.978l-20.358-20.359c9.001-14.141 15.645-29.925 19.394-46.801h28.783c8.789 9.817 21.554 16 35.768 16 26.51 0 48-21.49 48-48s-21.494-48.002-48.004-48.002zm-252.125 77.854c-24.882 0-45.125-20.243-45.125-45.125s20.243-45.125 45.125-45.125 45.125 20.243 45.125 45.125-20.243 45.125-45.125 45.125zm59.125 45.396h-30v-30h30zm15.125-90.375v-30h30v30zm45.125 60.25h-30v-30h30z"/></g></svg>