<svg id="Capa_1" enable-background="new 0 0 510 510" height="512" viewBox="0 0 510 510" width="512" xmlns="http://www.w3.org/2000/svg"><g><path d="m375 255v30h29.824c-1.2 13.526-9.209 25.422-21.532 31.584l-8.292 4.145v39.271h135v-39.271l-8.292-4.145c-12.323-6.162-20.332-18.058-21.532-31.584h29.824v-30c-30.046 0-108.024 0-135 0z"/><path d="m375 390h135v75h-135z"/><path d="m435 45v15c0 33.084 26.916 60 60 60h15v-75z"/><path d="m290.718 172.203c-19.19-9.596-52.246-9.595-71.437 0-7.668 3.834-9.281 7.277-9.281 7.797s1.613 3.963 9.281 7.797c19.19 9.595 52.247 9.596 71.437 0 7.669-3.834 9.282-7.277 9.282-7.797s-1.613-3.963-9.282-7.797z"/><path d="m15 240h-15v75h75v-15c0-33.084-26.916-60-60-60z"/><path d="m75 60v-15h-75v75h15c33.084 0 60-26.916 60-60z"/><path d="m405 60v-15h-300v15c0 49.626-40.374 90-90 90h-15v60h15c49.626 0 90 40.374 90 90v15h240v-90h165c0-15.269 0-58.216 0-75h-15c-49.626 0-90-40.374-90-90zm-255 135h-60v-30h60zm154.135 19.63c-27.646 13.823-70.599 13.835-98.27 0-16.679-8.34-25.865-20.639-25.865-34.63s9.186-26.29 25.865-34.63c27.646-13.823 70.6-13.835 98.27 0 16.68 8.34 25.865 20.639 25.865 34.63s-9.185 26.29-25.865 34.63zm115.865-19.63h-60v-30h60z"/></g></svg>