<svg id="Capa_1" enable-background="new 0 0 512 512" height="512" viewBox="0 0 512 512" width="512" xmlns="http://www.w3.org/2000/svg"><g><path d="m324.5 356.559v-1.059h-92c-24.813 0-45 20.187-45 45v1.059h92c24.813 0 45-20.187 45-45z"/><path d="m84.178 512h343.645v-260.643h-343.645zm148.322-186.499h122v31.059c0 41.355-33.645 75-75 75h-122v-31.059c0-41.355 33.645-75 75-75z"/><path d="m144.182 176.023h223.641v45.333h-223.641z"/><path d="m367.82 39.141-38.787-39.141h-146.066l-38.787 39.141v46.882h223.64z"/><path d="m206.669 116.023h101.153v30h-101.153z"/></g></svg>