<svg id="Capa_1" enable-background="new 0 0 512 512" height="512" viewBox="0 0 512 512" width="512" xmlns="http://www.w3.org/2000/svg"><g><g><circle cx="241" cy="257" r="15"/><circle cx="121" cy="107" r="15"/><path d="m331 452c0-58.65 0-354.048 0-452h-300v437c0 41.353 33.647 75 75 75h248.408c-14.392-15.959-23.408-36.866-23.408-60zm-68.921-347.344-138.735 173.423-23.423-18.735 138.735-173.423zm-141.079-42.656c24.814 0 45 20.186 45 45s-20.186 45-45 45-45-20.186-45-45 20.186-45 45-45zm165 390h-210v-30h210zm0-60h-210v-30h210zm-45-90c-24.814 0-45-20.186-45-45s20.186-45 45-45 45 20.186 45 45-20.186 45-45 45z"/></g><path d="m421 512c-33.091 0-60-26.909-60-60v-180h120v180c0 33.091-26.909 60-60 60z"/></g></svg>