<svg id="Capa_1" enable-background="new 0 0 512 512" height="512" viewBox="0 0 512 512" width="512" xmlns="http://www.w3.org/2000/svg"><g><path d="m180.75 190.848v-35.27c-11.567 4.497-21.926 11.92-30.038 21.791l-11.079 13.479z"/><path d="m271 150.598h30.25v40.25h-30.25z"/><path d="m331.25 190.848h41.117l-11.078-13.479c-8.113-9.871-18.472-17.294-30.039-21.791z"/><path d="m210.75 150.598h30.25v40.25h-30.25z"/><path d="m506.425 232.843c-20.433-16.503-37.896-47.579-56.385-80.479-32.178-57.256-68.647-122.152-133.789-122.152-21.269 0-42.565 8.577-60.251 23.936-17.686-15.359-38.982-23.936-60.251-23.936-65.142 0-101.611 64.896-133.789 122.152-18.488 32.9-35.952 63.975-56.385 80.479l-5.575 4.503v16.685c37.327 27.081 56.016 86.968 73.271 126.358 11.954 27.475 31.145 51.594 55.499 69.752 25.312 18.872 54.356 29.806 83.992 31.619l85.973.028.412-.022c58.623-3.225 114.722-43.974 139.567-101.342 17.249-39.375 36.196-99.18 73.286-126.393v-16.685zm-118.504 112.82c-19.212 28.763-51.334 45.935-85.925 45.935h-89.989c-33.975 0-65.773-16.697-85.062-44.666l-70.462-102.162 71.052-86.45c19.701-23.973 48.799-37.722 79.829-37.722h97.271c31.03 0 60.128 13.75 79.83 37.723l70.94 86.315z"/><path d="m316.096 285.081c-7.468 0-14.76 2.608-20.533 7.345-22.925 18.809-56.202 18.808-79.125.001-5.773-4.738-13.065-7.346-20.533-7.346-22.978 0-42.988 13.39-51.959 33.663l7.694 11.156c13.689 19.848 36.257 31.698 60.367 31.698h89.989c24.548 0 47.344-12.187 60.979-32.599l5.773-8.643c-8.604-21.175-29.068-35.275-52.652-35.275z"/><path d="m395.893 220.848h-279.786v-1.376l-22.09 26.878 31.168 45.191c4.602-6.458 10.072-12.309 16.308-17.317 15.372-12.345 34.696-19.143 54.412-19.143 14.39 0 28.439 5.026 39.562 14.154 11.896 9.761 29.168 9.761 41.066-.001 11.123-9.126 25.173-14.153 39.562-14.153 19.716 0 39.04 6.798 54.412 19.143 6.511 5.229 12.194 11.373 16.917 18.173l30.669-45.912-22.201-27.013v1.376z"/></g></svg>