<svg id="Capa_1" enable-background="new 0 0 512 512" height="512" viewBox="0 0 512 512" width="512" xmlns="http://www.w3.org/2000/svg"><g><path d="m271 331h30v30h-30z"/><path d="m211 391h30v30h-30z"/><path d="m331 151h30v30h-30z"/><path d="m331 331h30v30h-30z"/><path d="m331 271h30v30h-30z"/><path d="m331 211h30v30h-30z"/><path d="m211 271h30v30h-30z"/><path d="m271 271h30v30h-30z"/><path d="m271 211h30v30h-30z"/><path d="m211 331h30v30h-30z"/><path d="m151 391h30v30h-30z"/><path d="m211 211h30v30h-30z"/><path d="m271 391h30v30h-30z"/><path d="m331 91h30v30h-30z"/><path d="m151 271h30v30h-30z"/><path d="m151 331h30v30h-30z"/><path d="m331 391h30v30h-30z"/><path d="m271 151h30v30h-30z"/><path d="m106 512h300c24.814 0 45-20.186 45-45v-422c0-24.814-20.186-45-45-45h-300c-24.814 0-45 20.186-45 45v422c0 24.814 20.186 45 45 45zm15-451h270v390h-270z"/><path d="m151 91h30v30h-30z"/><path d="m271 91h30v30h-30z"/><path d="m211 91h30v30h-30z"/><path d="m151 211h30v30h-30z"/><path d="m211 151h30v30h-30z"/><path d="m151 151h30v30h-30z"/></g></svg>