<svg id="Capa_1" enable-background="new 0 0 512.002 512.002" height="512" viewBox="0 0 512.002 512.002" width="512" xmlns="http://www.w3.org/2000/svg"><g><path d="m316.251 76.454v-49.083h-32.879l-27.371-27.371-27.371 27.371h-32.879v49.083c0 33.275 26.975 60.25 60.25 60.25s60.25-26.975 60.25-60.25z"/><path d="m476.473 424.9c-23.283 0-42.956 15.432-49.365 36.624v-210.112h-.086c-.519-18.556-7.823-36.956-21.954-51.087-23.788-23.79-57.715-31.387-87.998-22.832l-23.233-19.115c-11.514 5.339-24.331 8.325-37.835 8.325s-26.321-2.987-37.835-8.325l-23.233 19.114c-30.284-8.555-64.211-.956-87.998 22.832-14.132 14.133-21.436 32.532-21.956 51.088h-.086v210.111c-6.41-21.192-26.082-36.624-49.365-36.624h-35.528v35.528c0 28.484 23.091 51.574 51.574 51.574h63.319v-198.355c8.962 6.755 19.096 11.239 29.623 13.458v130.898h30v-130.624c14.24-2.75 27.833-9.627 38.838-20.632l20.858-20.859-53.212-53.212-21.213 21.213 31.997 31.998c-17.671 17.288-46.111 17.173-63.639-.353-17.643-17.643-17.643-46.351 0-63.995 11.285-11.285 26.29-17.5 42.25-17.5 15.959 0 30.964 6.215 42.249 17.5l43.354 43.355 43.354-43.355c11.285-11.285 26.29-17.5 42.249-17.5 15.96 0 30.965 6.215 42.25 17.5 17.643 17.644 17.643 46.352 0 63.995-17.525 17.524-45.965 17.642-63.639.353l31.997-31.998-21.21-21.213-53.212 53.212 20.858 20.859c11.402 11.403 25.587 18.353 40.388 20.892v130.364h30v-131.236c9.971-2.322 19.552-6.696 28.073-13.119v198.356h63.319c28.484 0 51.574-23.091 51.574-51.574v-35.529z"/></g></svg>