<svg id="Layer_1" enable-background="new 0 0 511.977 511.977" height="512" viewBox="0 0 511.977 511.977" width="512" xmlns="http://www.w3.org/2000/svg"><g><path d="m173.817 401.375c24.964 14.166 53.045 21.582 82.171 21.582s57.207-7.416 82.171-21.582l-82.171-82.171z"/><path d="m110.602 173.817c-14.166 24.963-21.581 53.043-21.581 82.171s7.415 57.208 21.581 82.171l82.171-82.171z"/><path d="m436.999 74.978c-48.35-48.35-112.634-74.978-181.011-74.978s-132.661 26.628-181.01 74.978-74.978 112.634-74.978 181.01 26.628 132.661 74.978 181.011 112.634 74.977 181.011 74.977 132.661-26.627 181.011-74.977 74.978-112.634 74.978-181.011c-.001-68.376-26.629-132.661-74.979-181.01zm-295.703 20.87c33.586-24.093 73.246-36.828 114.692-36.828s81.106 12.735 114.692 36.828l14.358 10.3-129.051 129.05-129.051-129.05zm-45.447 274.833c-24.093-33.584-36.828-73.244-36.828-114.692s12.735-81.108 36.828-114.692l10.301-14.357 129.049 129.05-129.049 129.05zm274.832 45.446c-33.586 24.094-73.246 36.829-114.692 36.829s-81.106-12.735-114.692-36.829l-14.358-10.3 129.051-129.05 129.051 129.05zm45.447-45.446-10.301 14.357-129.049-129.05 129.049-129.05 10.3 14.357c24.095 33.584 36.83 73.245 36.83 114.692 0 41.449-12.735 81.109-36.829 114.694z"/><path d="m401.375 173.817-82.171 82.171 82.171 82.171c14.166-24.964 21.582-53.044 21.582-82.171s-7.416-57.207-21.582-82.171z"/><path d="m338.159 110.602c-24.964-14.166-53.045-21.582-82.171-21.582s-57.207 7.416-82.171 21.582l82.171 82.171z"/></g></svg>