<svg id="Capa_1" enable-background="new 0 0 512.002 512.002" height="512" viewBox="0 0 512.002 512.002" width="512" xmlns="http://www.w3.org/2000/svg"><g><circle cx="256.001" cy="256.001" r="107.75"/><path d="m118.251 256.001c0-62.506 41.851-115.413 99-132.193-44.934 7.516-91.552 27.769-136.807 59.685-43.671 30.798-70.643 61.333-71.77 62.618l-8.674 9.89 8.675 9.891c1.127 1.285 28.099 31.819 71.77 62.618 45.256 31.916 91.874 52.168 136.807 59.685-57.15-16.781-99.001-69.688-99.001-132.194z"/><path d="m503.327 246.11c-1.127-1.285-28.099-31.819-71.77-62.618-45.256-31.916-91.874-52.168-136.807-59.685 57.15 16.78 99 69.687 99 132.193s-41.851 115.413-99 132.193c44.934-7.516 91.552-27.769 136.807-59.685 43.671-30.798 70.643-61.333 71.77-62.618l8.675-9.891z"/></g></svg>