<svg id="Capa_1" enable-background="new 0 0 510 510" height="512" viewBox="0 0 510 510" width="512" xmlns="http://www.w3.org/2000/svg"><g><circle cx="255" cy="255" r="30"/><path d="m465 210c-19.555 0-36.228 12.542-42.42 30h-33.418c-2.888-26-13.187-49.792-28.733-69.216l23.675-23.674c16.729 7.969 37.371 5.057 51.209-8.782h.001c17.543-17.545 17.543-46.093-.001-63.639s-46.094-17.546-63.64 0c-13.827 13.827-16.749 34.485-8.782 51.208l-23.675 23.674c-19.424-15.547-43.216-25.846-69.216-28.733v-33.418c17.459-6.192 30-22.865 30-42.42 0-24.813-20.186-45-45-45-24.812 0-45 20.187-45 45 0 19.555 12.541 36.228 30 42.42v33.418c-26 2.887-49.793 13.186-69.216 28.733l-23.675-23.675c7.967-16.723 5.045-37.381-8.782-51.208-17.546-17.546-46.095-17.545-63.64 0s-17.545 46.094 0 63.639c13.847 13.847 34.49 16.747 51.209 8.782l23.675 23.674c-15.548 19.424-25.847 43.217-28.733 69.216h-33.418c-6.192-17.458-22.865-30-42.42-30-24.812 0-45 20.187-45 45 0 24.814 20.188 45 45 45 19.555 0 36.228-12.541 42.42-30h33.418c2.887 26 13.186 49.792 28.732 69.216l-23.674 23.675c-16.725-7.966-37.382-5.045-51.209 8.782-17.546 17.546-17.546 46.094.001 63.641 17.544 17.542 46.093 17.544 63.638 0l.001-.001c13.827-13.828 16.749-34.485 8.782-51.209l23.674-23.675c19.424 15.549 43.217 25.846 69.217 28.734v33.418c-17.459 6.192-30 22.865-30 42.42 0 24.814 20.188 45 45 45 24.814 0 45-20.186 45-45 0-19.555-12.541-36.228-30-42.42v-33.418c26-2.888 49.792-13.186 69.216-28.733l23.675 23.675c-7.967 16.724-5.045 37.382 8.782 51.209v.001c17.546 17.542 46.093 17.544 63.641-.001 17.544-17.546 17.544-46.094-.001-63.64-13.826-13.828-34.484-16.75-51.209-8.782l-23.674-23.675c15.546-19.423 25.844-43.216 28.732-69.216h33.418c6.192 17.459 22.865 30 42.42 30 24.814 0 45-20.186 45-45 0-24.813-20.186-45-45-45zm-210 105c-33.084 0-60-26.916-60-60s26.916-60 60-60 60 26.916 60 60-26.916 60-60 60z"/></g></svg>