<?xml version="1.0" encoding="iso-8859-1"?>
<!-- Generator: Adobe Illustrator 19.0.0, SVG Export Plug-In . SVG Version: 6.00 Build 0)  -->
<svg version="1.1" id="Layer_1" xmlns="http://www.w3.org/2000/svg" xmlns:xlink="http://www.w3.org/1999/xlink" x="0px" y="0px"
	 viewBox="0 0 512 512" style="enable-background:new 0 0 512 512;" xml:space="preserve">
<g>
	<g>
		<path d="M336.396,165l51.705-21.831c27.661-11.679,45.534-38.625,45.534-68.65C433.635,33.429,400.206,0,359.116,0
			c-30.024,0-56.972,17.873-68.65,45.533L256,127.163l-34.466-81.63C209.855,17.873,182.908,0,152.884,0
			c-41.09,0-74.519,33.429-74.519,74.519c0,30.025,17.873,56.972,45.533,68.65L175.604,165H0v90h30v257h452V255h30v-90H336.396z
			 M318.103,57.202C325.08,40.678,341.179,30,359.116,30c24.548,0,44.519,19.971,44.519,44.519
			c0,17.937-10.678,34.036-27.203,41.013l-100.954,42.625L318.103,57.202z M135.568,115.531
			c-16.525-6.977-27.203-23.075-27.203-41.012c0-24.548,19.971-44.519,44.519-44.519c17.938,0,34.036,10.678,41.014,27.202
			l42.625,100.954L135.568,115.531z M296,482h-80V284h80V482z M296,254h-80v-59h80V254z"/>
	</g>
</g>
<g>
</g>
<g>
</g>
<g>
</g>
<g>
</g>
<g>
</g>
<g>
</g>
<g>
</g>
<g>
</g>
<g>
</g>
<g>
</g>
<g>
</g>
<g>
</g>
<g>
</g>
<g>
</g>
<g>
</g>
</svg>
