<svg id="Capa_1" enable-background="new 0 0 512 512" height="512" viewBox="0 0 512 512" width="512" xmlns="http://www.w3.org/2000/svg"><g><path d="m437 311.19v-40.19h45v-30h-452v30h45v40.19l-75 105.005v4.805c0 49.629 40.371 91 90 91s90-41.371 90-91v-4.805l-75-105.005v-40.19h302v40.19l-75 105.005v4.805c0 49.629 40.371 91 90 91s90-41.371 90-91v-4.805zm-392.846 94.81 45.846-64.189 45.846 64.189zm332 0 45.846-64.189 45.846 64.189z"/><path d="m256 211c57.891 0 105-47.109 105-105s-47.109-106-105-106-105 48.109-105 106 47.109 105 105 105zm-15-105c0 8.276 6.724 15 15 15s15-6.724 15-15.01h30c0 24.824-20.186 45.01-45 45.01s-45-20.186-45-45z"/></g></svg>