<svg id="Capa_1" enable-background="new 0 0 511.514 511.514" height="512" viewBox="0 0 511.514 511.514" width="512" xmlns="http://www.w3.org/2000/svg"><g id="XMLID_22_"><path id="XMLID_23_" d="m341.727 169.313-27.116-27.125 82.2-82.2 27.197 27.198z"/><path id="XMLID_27_" d="m361.838 191.783 83.384-83.384 13.211 13.211c13 13 13 34.077 0 47.077l-67.612 67.612-78.519 43.523-231.693 231.692-37.277-37.277 236.946-236.946z"/><path id="XMLID_28_" d="m274.456 113.142c-12.063-12.063-12.063-31.62 0-43.683l7.289-7.289c25.662-25.662-1.757-61.243-1.757-61.243 26.597-3.567 42.338 3.718 51.551 12.414 11.97-7.767 28.136-6.408 38.632 4.087 5.047 5.046 7.973 11.406 8.797 17.978l-86.534 86.533c-6.572-.824-12.931-3.751-17.978-8.797z"/></g></svg>