<svg id="Capa_1" enable-background="new 0 0 512 512" height="512" viewBox="0 0 512 512" width="512" xmlns="http://www.w3.org/2000/svg"><g id="XMLID_122_"><path id="XMLID_188_" d="m256.002 152.465c-5.565 8.734-12.082 19.507-17.478 29.919l13.139 8.41 4.337 2.776 4.392-2.811 13.087-8.376c-5.399-10.424-11.917-21.192-17.477-29.918z"/><path id="XMLID_466_" d="m212.773 166.616c12.887-24.423 30.055-48.793 30.928-50.027l12.299-17.394 12.3 17.395c.858 1.213 18.041 25.6 30.93 50.025 30.275-15.43 65.12-17.264 97.329-4.757 4.592 1.783 9.025 3.821 13.289 6.091-18.789-47.225-66.357-113.405-66.357-113.405s-12.389 17.238-27.019 40.392c-21.328-45.308-60.298-94.936-60.298-94.936s-39.935 50.966-61.078 96.597c-15.081-23.987-28.067-42.054-28.067-42.054s-48.267 67.153-66.765 114.439c4.84-2.688 9.901-5.077 15.176-7.125 32.207-12.506 67.055-10.673 97.333 4.759z"/><path id="XMLID_469_" d="m439.752 250.334c-7.446-27.919-27.165-49.93-54.1-60.39-26.937-10.461-56.341-7.526-80.678 8.052l-48.974 31.346-48.975-31.346c-14.728-9.427-31.313-14.223-48.083-14.223-10.941 0-21.961 2.041-32.595 6.172-26.935 10.459-46.654 32.471-54.1 60.389-7.917 29.684-.25 60.925 20.508 83.571l163.245 178.095 163.244-178.096c20.758-22.646 28.425-53.887 20.508-83.57zm-64.915 22.797c0-13.056-10.621-23.677-23.676-23.677v-30.129c29.668 0 53.805 24.137 53.805 53.806z"/></g></svg>