<svg id="Capa_1" enable-background="new 0 0 512 512" height="512" viewBox="0 0 512 512" width="512" xmlns="http://www.w3.org/2000/svg"><g><circle cx="256" cy="346.375" r="15.125"/><circle cx="165.625" cy="256" r="15.125"/><circle cx="256" cy="165.625" r="15.125"/><path d="m512 286.125v-60.25h-30v15.125h-26.441c-2.912-10.016-8.791-19.335-17.667-26.516 7.277-15.384 6.524-32.166-.194-46.067l21.525-12.427 7.562 13.099 25.98-15-30.125-52.178-25.98 15 7.562 13.099-27.28 15.75c-4.551-2.703-9.594-4.792-15.076-6.084-.157-22.531-14.064-41.154-33.086-49.017l13.21-22.881 13.099 7.562 15-25.98-52.178-30.125-15 25.98 13.099 7.562-19.643 34.023c-12.637-24.357-41.005-34.416-65.367-25.672v-31.128h15.125v-30h-60.25v30h15.125v31.128c-24.362-8.744-52.73 1.315-65.367 25.672l-19.643-34.022 13.099-7.562-15-25.98-52.178 30.124 15 25.98 13.099-7.562 13.21 22.881c-19.022 7.863-32.928 26.486-33.086 49.017-5.483 1.292-10.525 3.381-15.076 6.084l-27.28-15.75 7.562-13.099-25.98-15-30.125 52.178 25.98 15 7.562-13.099 21.525 12.427c-6.718 13.901-7.471 30.683-.194 46.067-8.876 7.181-14.756 16.5-17.668 26.516h-26.44v-15.125h-30v60.25h30v-15.125h26.441c2.912 10.016 8.791 19.335 17.668 26.516-7.277 15.384-6.524 32.166.194 46.067l-21.525 12.427-7.562-13.099-25.98 15 30.125 52.178 25.98-15-7.562-13.099 27.28-15.75c4.551 2.703 9.594 4.792 15.076 6.084.157 22.531 14.064 41.154 33.086 49.017l-13.21 22.881-13.099-7.562-15 25.98 52.178 30.125 15-25.98-13.099-7.562 19.643-34.022c12.637 24.357 41.005 34.416 65.367 25.672v31.127h-15.125v30h60.25v-30h-15.126v-31.128c24.362 8.744 52.73-1.315 65.367-25.672l19.643 34.022-13.099 7.562 15 25.98 52.178-30.125-15-25.98-13.099 7.562-13.21-22.881c19.022-7.863 32.928-26.486 33.086-49.017 5.483-1.292 10.525-3.381 15.076-6.084l27.28 15.75-7.562 13.099 25.98 15 30.125-52.178-25.98-15-7.562 13.099-21.525-12.427c6.718-13.901 7.471-30.683.194-46.067 8.876-7.181 14.756-16.5 17.667-26.516h26.441v15.125h30zm-346.375 15c-24.882 0-45.125-20.243-45.125-45.125s20.243-45.125 45.125-45.125 45.125 20.243 45.125 45.125-20.243 45.125-45.125 45.125zm90.375 90.375c-24.882 0-45.125-20.243-45.125-45.125s20.243-45.125 45.125-45.125 45.125 20.243 45.125 45.125-20.243 45.125-45.125 45.125zm0-180.75c-24.882 0-45.125-20.243-45.125-45.125s20.243-45.125 45.125-45.125 45.125 20.243 45.125 45.125-20.243 45.125-45.125 45.125zm90.375 90.375c-24.882 0-45.125-20.243-45.125-45.125s20.243-45.125 45.125-45.125 45.125 20.243 45.125 45.125-20.243 45.125-45.125 45.125z"/><circle cx="346.375" cy="256" r="15.125"/></g></svg>