<svg id="Capa_1" enable-background="new 0 0 512 512" height="512" viewBox="0 0 512 512" width="512" xmlns="http://www.w3.org/2000/svg"><g><path d="m256.004 442.809-35.786-35.758h-220.218v104.949h37.75v-69.343h30v69.343h37.75v-35.605h30v35.605h37.75v-69.343h30v69.343h37.75v-35.605h30v35.605h37.75v-69.343h30v69.343h37.75v-35.605h30v35.605h37.75v-69.343h30v69.343h37.75v-104.949h-220.21z"/><path d="m31.251 140.534h87.562l55.727-81.853 55.711 81.853h67.369l39.845 58.55 39.854-58.55h103.43c.734-5.374 1.115-10.818 1.115-16.306 0-32.556-13.113-63.589-36.923-87.38-49.169-49.13-129.17-49.129-178.337 0l-10.6 10.592-10.602-10.593c-24.584-24.564-56.876-36.847-89.168-36.847s-64.584 12.283-89.168 36.847c-23.818 23.799-36.934 54.834-36.932 87.387.001 5.486.383 10.927 1.117 16.3z"/><path d="m256.004 400.397 188.938-188.79c12.083-12.074 21.405-26.015 27.662-41.071h-79.416l-55.726 81.868-55.714-81.868h-67.367l-39.846-58.542-39.855 58.542h-95.28c6.259 15.055 15.582 28.995 27.667 41.071z"/></g></svg>