<svg id="Capa_1" enable-background="new 0 0 512 512" height="512" viewBox="0 0 512 512" width="512" xmlns="http://www.w3.org/2000/svg"><g><path d="m400.318 122.265 4.349-70.637-65.834 25.964 21.933 34.461z"/><path d="m151.234 112.053 21.933-34.461-65.834-25.964 4.349 70.637z"/><path d="m15.443 334.401 68.533 17.69 2.512-40.776-25.995-31.499z"/><path d="m425.512 311.315 2.512 40.776 68.533-17.69-45.05-54.585z"/><path d="m218.002 449.481 37.998 62.519 37.998-62.519-37.998-14.987z"/><path d="m256 170.939-20.288 31.879 20.286 27.92 20.29-27.92z"/><path d="m205.858 325.261 35.142-13.86v-34.497l-32.812 10.664z"/><path d="m271 276.904v34.497l35.142 13.86-2.329-37.693z"/><path d="m300.551 220.449-20.279 27.915 32.804 10.662 24.047-29.141z"/><path d="m496.557 178.103-154.746-39.961-85.811-138.142-85.811 138.142-154.746 39.961 101.719 123.252-9.829 159.521 148.667-58.638 148.667 58.638-9.829-159.521zm-157.574 192.363-82.983-32.725-82.983 32.725 5.493-89.048-56.777-68.789 86.367-22.31 47.9-75.249 47.9 75.249 86.367 22.31-56.777 68.789z"/><path d="m211.45 220.449-36.573 9.436 24.047 29.141 32.807-10.664z"/></g></svg>