<?xml version="1.0" encoding="iso-8859-1"?>
<!-- Generator: Adobe Illustrator 19.0.0, SVG Export Plug-In . SVG Version: 6.00 Build 0)  -->
<svg xmlns="http://www.w3.org/2000/svg" xmlns:xlink="http://www.w3.org/1999/xlink" version="1.1" id="Layer_1" x="0px" y="0px" viewBox="0 0 512 512" style="enable-background:new 0 0 512 512;" xml:space="preserve">
<g>
	<g>
		<polygon points="438.297,186.115 431.54,200.32 424.793,214.505 402.93,260.463 396.173,274.668 389.416,288.873 436.212,309.144     483.092,208.471   "/>
	</g>
</g>
<g>
	<g>
		<polygon points="334.103,323.724 349.909,323.724 349.909,292.296 334.103,292.296 334.103,264.905 360.565,276.376     367.322,262.17 374.079,247.965 396.665,200.467 403.412,186.283 410.158,172.077 195.067,64.762 188.572,79.083 182.077,93.403     155.017,153.064 148.522,167.384 142.027,181.694 302.675,251.296 302.675,292.296 286.869,292.296 286.869,323.724     302.675,323.724 302.675,395.793 231.833,492.571 257.192,511.136 302.675,449 302.675,512 334.103,512 334.103,448.014     381.632,511.291 406.762,492.416 334.103,395.685   "/>
	</g>
</g>
<g>
	<g>
		<polygon points="96.949,0 28.908,146.118 107.017,182.49 112.38,170.977 113.197,169.207 116.518,162.083 119.839,154.96     160.433,65.034 166.928,50.724 173.717,35.744   "/>
	</g>
</g>
<g>
</g>
<g>
</g>
<g>
</g>
<g>
</g>
<g>
</g>
<g>
</g>
<g>
</g>
<g>
</g>
<g>
</g>
<g>
</g>
<g>
</g>
<g>
</g>
<g>
</g>
<g>
</g>
<g>
</g>
</svg>
