<svg id="Capa_1" enable-background="new 0 0 510 510" height="512" viewBox="0 0 510 510" width="512" xmlns="http://www.w3.org/2000/svg"><g><path d="m255 180c-24.814 0-45 20.187-45 45 0 26.138 26.43 68.949 45 95.007 18.571-26.058 45-68.869 45-95.007 0-24.813-20.186-45-45-45zm15 60h-30v-30h30z"/><path d="m90 0v420h330v-420zm120 60h90v30h-90zm-60 0h30v30h-30zm210 300h-210v-30h75.432c-4.138-6.022-8.662-12.879-13.207-20.264-21.383-34.747-32.225-63.256-32.225-84.736 0-41.355 33.645-75 75-75s75 33.645 75 75c0 21.48-10.842 49.989-32.226 84.736-4.544 7.385-9.069 14.242-13.206 20.264h75.432z"/><path d="m90 450h330v60h-330z"/></g></svg>