<?xml version="1.0" encoding="iso-8859-1"?>
<!-- Generator: Adobe Illustrator 19.0.0, SVG Export Plug-In . SVG Version: 6.00 Build 0)  -->
<svg xmlns="http://www.w3.org/2000/svg" xmlns:xlink="http://www.w3.org/1999/xlink" version="1.1" id="Layer_1" x="0px" y="0px" viewBox="0 0 512 512" style="enable-background:new 0 0 512 512;" xml:space="preserve">
<g>
	<g>
		<path d="M437.019,74.981C388.667,26.629,324.38,0,256,0S123.333,26.629,74.981,74.981C26.629,123.333,0,187.62,0,256    s26.629,132.667,74.981,181.019C123.333,485.371,187.62,512,256,512s132.667-26.629,181.019-74.981    C485.371,388.667,512,324.38,512,256S485.371,123.333,437.019,74.981z M258.524,273.711l-24.136,24.133l20.112,20.112    l-24.136,24.136l-21.28-21.28c-4.839,3.008-9.997,5.308-15.328,6.871v33.142h-34.133v-32.802c-4.855-1.313-9.578-3.22-14.06-5.719    l-27.833,27.833l-24.136-24.136l27.833-27.833c-2.5-4.482-4.406-9.205-5.719-14.06H82.908v-34.133h33.142    c1.563-5.333,3.863-10.489,6.871-15.329l-21.28-21.28l24.136-24.136l20.114,20.114l24.136-24.136l-20.114-20.114l24.137-24.136    l20.114,20.114l24.136-24.136l-20.114-20.114l24.136-24.136l21.28,21.28c4.839-3.008,9.997-5.309,15.329-6.871V73.956h34.133    v32.802c4.855,1.313,9.578,3.22,14.06,5.72l27.833-27.833l24.136,24.136l-27.835,27.835c2.5,4.482,4.406,9.205,5.719,14.06h32.802    v34.133h-33.142c-1.563,5.333-3.863,10.489-6.871,15.328l21.28,21.28l-24.136,24.136l-20.112-20.112l-24.137,24.137l20.114,20.114    l-24.136,24.136L258.524,273.711z M352.711,409.6c-31.369,0-56.889-25.52-56.889-56.889s25.52-56.889,56.889-56.889    s56.889,25.52,56.889,56.889S384.08,409.6,352.711,409.6z"/>
	</g>
</g>
<g>
	<g>
		<path d="M352.711,329.956c-12.547,0-22.756,10.208-22.756,22.756s10.208,22.756,22.756,22.756s22.756-10.208,22.756-22.756    S365.259,329.956,352.711,329.956z"/>
	</g>
</g>
<g>
	<g>
		<path d="M296.739,146.995c-5.373-5.373-12.516-8.331-20.112-8.331c-7.598,0-14.741,2.959-20.114,8.331L155.947,247.561    c-5.373,5.373-8.331,12.516-8.331,20.114s2.959,14.741,8.331,20.112c11.09,11.091,29.136,11.092,40.226,0.002l100.566-100.568    C307.83,176.131,307.83,158.085,296.739,146.995z M246.456,213.367l-16.09-16.09l24.136-24.136l16.09,16.09L246.456,213.367z"/>
	</g>
</g>
<g>
</g>
<g>
</g>
<g>
</g>
<g>
</g>
<g>
</g>
<g>
</g>
<g>
</g>
<g>
</g>
<g>
</g>
<g>
</g>
<g>
</g>
<g>
</g>
<g>
</g>
<g>
</g>
<g>
</g>
</svg>
