<?xml version="1.0" encoding="iso-8859-1"?>
<!-- Generator: Adobe Illustrator 19.0.0, SVG Export Plug-In . SVG Version: 6.00 Build 0)  -->
<svg version="1.1" id="Layer_1" xmlns="http://www.w3.org/2000/svg" xmlns:xlink="http://www.w3.org/1999/xlink" x="0px" y="0px"
	 viewBox="0 0 511.999 511.999" style="enable-background:new 0 0 511.999 511.999;" xml:space="preserve">
<g>
	<g>
		<path d="M273.454,191.818V149.24c33.321-7.9,58.182-37.903,58.182-73.604C331.636,33.93,297.705,0,255.999,0
			s-75.636,33.93-75.636,75.636h34.909c0-22.457,18.27-40.727,40.727-40.727s40.727,18.27,40.727,40.727
			c0,22.457-18.27,40.727-40.727,40.727h-17.455v75.456L5.818,284.911v110.725h69.818v116.364h360.727V395.635h69.818V284.909
			L273.454,191.818z M187.352,442.861c-1.642,3.037-3.806,5.463-6.493,7.279c-2.689,1.816-5.725,3.125-9.111,3.927
			c-3.387,0.802-6.791,1.204-10.211,1.204c-2.723,0-5.516-0.209-8.378-0.628c-2.864-0.419-5.708-1.011-8.535-1.78
			c-2.828-0.768-5.551-1.676-8.169-2.723c-2.618-1.047-5.044-2.233-7.279-3.561l8.797-17.908c2.444,1.536,4.991,2.897,7.645,4.084
			c2.234,1.047,4.765,1.99,7.593,2.828s5.708,1.257,8.64,1.257c2.233,0,3.786-0.297,4.66-0.89c0.873-0.592,1.309-1.378,1.309-2.356
			c0-1.047-0.436-1.937-1.309-2.671c-0.874-0.733-2.078-1.378-3.613-1.937c-1.536-0.559-3.299-1.116-5.289-1.676
			c-1.99-0.557-4.102-1.221-6.336-1.99c-3.283-1.116-6.11-2.32-8.483-3.613c-2.375-1.291-4.33-2.757-5.865-4.399
			c-1.536-1.64-2.671-3.508-3.404-5.603s-1.1-4.503-1.1-7.226c0-4.119,0.749-7.75,2.252-10.892c1.501-3.142,3.542-5.76,6.127-7.855
			c2.582-2.095,5.532-3.682,8.849-4.765c3.315-1.082,6.824-1.623,10.525-1.623c2.723,0,5.376,0.262,7.959,0.785
			c2.582,0.524,5.079,1.188,7.488,1.99c2.409,0.803,4.66,1.676,6.755,2.618c2.095,0.943,3.98,1.833,5.655,2.671l-8.797,16.861
			c-2.095-1.257-4.26-2.373-6.493-3.351c-1.885-0.838-3.998-1.623-6.336-2.356c-2.34-0.733-4.627-1.1-6.86-1.1
			c-1.816,0-3.265,0.28-4.346,0.838c-1.083,0.56-1.623,1.502-1.623,2.828c0,0.979,0.314,1.78,0.943,2.409
			c0.628,0.628,1.535,1.204,2.723,1.728c1.187,0.524,2.635,1.031,4.346,1.519c1.711,0.489,3.648,1.083,5.812,1.78
			c3.42,1.047,6.509,2.199,9.268,3.456c2.758,1.257,5.114,2.74,7.069,4.451c1.954,1.712,3.456,3.789,4.503,6.231
			c1.047,2.445,1.571,5.412,1.571,8.902C189.813,436.072,188.993,439.824,187.352,442.861z M239.873,454.329l-4.503-14.557h-19.793
			l-4.399,14.557h-20.841l25.868-74.356h18.641l25.763,74.356H239.873z M320.93,454.329h-54.144v-74.356h20.422v56.553h33.722
			V454.329z M381.043,454.329h-52.992v-74.356H380.1v17.804h-31.628v10.473h27.02v16.547h-27.02v11.729h32.57V454.329z
			 M471.272,360.726h-34.909v-34.909H75.636v34.909H40.727v-52.183l215.273-86.109l215.273,86.109V360.726z"/>
	</g>
</g>
<g>
	<g>
		<polygon points="225.525,403.117 218.613,426.157 232.123,426.157 		"/>
	</g>
</g>
<g>
</g>
<g>
</g>
<g>
</g>
<g>
</g>
<g>
</g>
<g>
</g>
<g>
</g>
<g>
</g>
<g>
</g>
<g>
</g>
<g>
</g>
<g>
</g>
<g>
</g>
<g>
</g>
<g>
</g>
</svg>
