<svg id="Capa_1" enable-background="new 0 0 512 512" height="512" viewBox="0 0 512 512" width="512" xmlns="http://www.w3.org/2000/svg"><g id="XMLID_162_"><path id="XMLID_167_" d="m296.988 147.408v-51.977h-25.988v-50.849c0-8.04 6.541-14.582 14.582-14.582s14.582 6.542 14.582 14.582v19.343h30v-19.343c0-24.582-19.999-44.582-44.582-44.582s-44.582 20-44.582 44.582v50.849h-25.988v51.977z"/><path id="XMLID_168_" d="m172.112 121.252h14.833v-30h-59.665v30h14.832v26.156h30z"/><path id="XMLID_169_" d="m369.888 121.252h14.832v-30h-59.665v30h14.833v26.156h30z"/><path id="XMLID_184_" d="m92.59 177.408v11.574c0 49.464 40.242 89.707 89.706 89.707h3.552v137.463h140.305v-137.464h3.552c49.464 0 89.706-40.242 89.706-89.707v-11.574h-326.821z"/><path id="XMLID_185_" d="m185.848 446.151h140.305v65.849h-140.305z"/></g></svg>