<svg id="Capa_1" enable-background="new 0 0 512 512" height="512" viewBox="0 0 512 512" width="512" xmlns="http://www.w3.org/2000/svg"><g><path d="m469.704 104.438c22.679-22.679 3.686-65.828 3.686-65.828-19.554-7.735-48.955-13.187-65.828 3.686-12.818 12.817-21.765 56.431-25.473 77.687-37.846-32.758-95.556-31.684-130.909 4.765-8.974 9.253-17.617 18.332-25.962 27.251l57.218 57.217-21.213 21.213-56.349-56.348c-24.075 26.55-45.322 51.527-64.072 74.933l50.918 50.917-21.213 21.213-48.334-48.333c-23.088 30.208-41.813 57.541-56.999 82.006l35.83 35.83-21.213 21.213-30.424-30.424c-49.36 87.194-49.367 130.564-49.367 130.564s61.894-.003 186.477-84.17l-83.913-83.913 21.213-21.213 87.69 87.69c23.966-17.233 49.978-37.389 78.042-60.963l-96.229-96.229 21.213-21.213 97.874 97.875c22.863-19.941 46.993-42.077 72.382-66.623l-100.754-100.755 21.213-21.213 98.36 98.36c19.392-34.448 15.28-78.74-11.536-109.725 21.261-3.71 64.858-12.656 77.672-25.47zm-256.423 217.054 22.584 22.585-21.214 21.213-22.584-22.585zm90.715-90.715 22.585 22.585-21.213 21.213-22.585-22.585z"/><path d="m358.213 86.706c10.055-43.281 20.318-57.805 28.136-65.623 4.017-4.016 8.504-7.445 13.398-10.272-10.129-7.133-19.57-10.811-19.57-10.811s-43.941 17.081-43.941 49.154c0 11.364 9.635 30.206 19.88 47.036.646-3.069 1.345-6.248 2.097-9.484z"/><path d="m501.204 112.273c-3.172 5.46-6.784 9.876-10.286 13.378-7.818 7.818-22.342 18.082-65.623 28.136-3.236.752-6.415 1.451-9.484 2.097 16.83 10.245 35.672 19.88 47.036 19.88 32.073 0 49.154-43.941 49.154-43.941s-3.674-9.429-10.797-19.55z"/></g></svg>