<svg id="Capa_1" enable-background="new 0 0 512.847 512.847" height="512" viewBox="0 0 512.847 512.847" width="512" xmlns="http://www.w3.org/2000/svg"><g id="XMLID_321_"><path id="XMLID_324_" d="m512.506 163.738c-3.355-38.587-31.036-70.057-68.88-78.309l-13.307-2.901-2.901-13.306c-8.25-37.844-39.72-65.524-78.308-68.88-24.258-2.111-47.667 5.617-65.904 21.757s-28.752 38.433-29.607 62.771l-5.575 158.742-248.024 248.023 21.213 21.213 248.023-248.023 158.741-5.576c24.339-.855 46.632-11.37 62.771-29.606 16.141-18.238 23.868-41.644 21.758-65.905zm-149.449 17.993 1.053 29.981-66.076 2.321 1.635-65.702 29.99.746-.842 33.856z"/></g></svg>