<svg id="Capa_1" enable-background="new 0 0 512 512" height="512" viewBox="0 0 512 512" width="512" xmlns="http://www.w3.org/2000/svg"><g><path d="m164.672 171.251c3.593-3.693 5.494-8.572 5.352-13.739-.278-10.138-9.083-18.385-19.626-18.385h-71.335c-43.596 0-79.063 35.467-79.063 79.063v21.54c0 43.596 35.467 79.063 79.063 79.063h1.868v-141.811h70.173c5.154 0 9.972-2.035 13.568-5.731z"/><path d="m472.034 0c-22.037 0-39.966 17.929-39.966 39.966v259.993h79.932v-259.993c0-22.037-17.929-39.966-39.966-39.966z"/><path d="m110.93 39.966v69.161h39.468c26.638 0 48.895 21.336 49.614 47.563.366 13.333-4.549 25.934-13.838 35.482-9.292 9.55-21.747 14.81-35.07 14.81h-40.174v237.549h291.138v-404.565c0-14.846 4.649-28.629 12.566-39.966h-263.738c-22.037 0-39.966 17.929-39.966 39.966z"/><path d="m110.93 474.531h291.138v37.469h-291.138z"/></g></svg>