<svg id="Capa_1" enable-background="new 0 0 512.113 512.113" height="512" viewBox="0 0 512.113 512.113" width="512" xmlns="http://www.w3.org/2000/svg"><g><path d="m268.162 159.099-21.214 21.213 42.427 42.427-21.213 21.213-42.427-42.427-21.213 21.214 42.426 42.426-21.213 21.213-42.426-42.426-21.213 21.213 42.426 42.426-21.213 21.214-42.427-42.427-26.397 26.398 1.82 61.819-116.305 116.305 21.213 21.213 116.305-116.304 61.82 1.819 153.676-153.676z"/><path d="m289.375 53.033-21.213 21.213 42.426 42.427-21.213 21.213 84.853 84.853 21.213-21.214 42.426 42.427 21.213-21.213z"/><path d="m427.261 148.492 42.426-42.426 21.213 21.213 21.213-21.213-106.066-106.066-21.213 21.213 21.213 21.213-42.426 42.427z"/></g></svg>