<svg id="Capa_1" enable-background="new 0 0 512 512" height="512" viewBox="0 0 512 512" width="512" xmlns="http://www.w3.org/2000/svg"><g><path d="m256.531 362.005c-.181.002-.35.053-.531.053s-.35-.051-.531-.053c-8.004.297-14.454 6.804-14.469 14.877.205 3.94 6.65 13.652 14.985 23.291 8.379-9.668 14.824-19.395 15.015-23.306 0-8.058-6.451-14.566-14.469-14.862z"/><path d="m256 152.058c8.262 0 14.985-6.724 15-14.985-.205-3.94-6.65-13.652-14.985-23.291-8.379 9.668-14.824 19.395-15.015 23.306 0 8.246 6.724 14.97 15 14.97z"/><circle cx="256" cy="257.058" r="15"/><path d="m144.672 303.933c-3.325 2.153-8.511 12.583-12.686 24.639 12.539 2.417 24.185 3.149 27.671 1.333 3.457-1.992 5.933-5.215 6.973-9.082s.513-7.91-1.494-11.382c-4.131-7.164-13.316-9.654-20.464-5.508z"/><path d="m159.657 184.035c-3.545-1.802-15.161-1.084-27.656 1.333 4.189 12.085 9.375 22.544 12.671 24.668 7.207 4.146 16.318 1.641 20.464-5.522 2.007-3.472 2.534-7.515 1.494-11.382-1.026-3.867-3.516-7.09-6.973-9.097z"/><path d="m346.864 309.44c-2.007 3.472-2.534 7.515-1.494 11.382 1.025 3.867 3.516 7.09 6.973 9.097 3.545 1.787 15.161 1.069 27.656-1.333-4.189-12.085-9.375-22.544-12.671-24.668-7.207-4.146-16.318-1.641-20.464 5.522z"/><path d="m444.76 256.984c26.558-38.613 31.538-91.787 33.501-112.852l2.021-16.641-15.249-6.504c-19.219-8.848-67.69-31.465-114.653-27.466-20.171-42.349-63.735-71.228-80.991-83.459l-13.389-10.062-13.286 9.99c-17.285 12.217-60.894 41.081-81.094 83.532-46.787-3.823-95.244 18.574-114.478 27.393l-15.439 6.577 2.021 16.538c1.948 21.079 6.885 74.253 33.516 112.939-26.558 38.628-31.538 91.787-33.501 112.852l-2.021 16.641 15.249 6.504c19.219 8.833 67.72 31.187 114.653 27.466 20.171 42.349 63.735 70.228 80.991 82.459l13.389 9.109 13.286-9.036c17.285-12.217 60.894-40.081 81.094-82.532 46.89 3.94 95.259-18.56 114.478-27.393l15.439-6.592-2.021-16.523c-1.949-21.079-6.885-74.253-33.516-112.94zm-83.76.074c0 5.165-.802 10.115-1.525 15.082 7.775-.082 15.659 1.664 22.868 5.821 18.501 10.693 28.462 47.08 31.069 57.993l3.311 13.813-13.638 4.058c-7.09 2.109-25.43 7.002-42.378 7.002-8.716 0-17.065-1.304-23.335-4.922-.015 0-.015 0-.029 0-7.092-4.096-12.123-10.329-16.031-17.294-8.044 6.454-16.829 11.938-26.55 15.824 3.862 6.638 6.238 14.244 6.238 22.462 0 21.357-26.543 48.179-34.688 55.884l-10.312 9.784-10.313-9.785c-8.144-7.705-34.687-34.526-34.687-55.884 0-8.218 2.377-15.824 6.238-22.462-9.723-3.885-18.51-9.37-26.554-15.826-3.913 6.969-8.952 13.2-16.057 17.296-6.27 3.633-14.604 4.922-23.32 4.922-16.963 0-35.303-4.893-42.393-7.002l-13.638-4.058 3.311-13.813c2.607-10.913 12.568-47.3 31.04-57.993h.029c7.209-4.162 15.092-5.911 22.866-5.83-.723-4.964-1.523-9.911-1.523-15.073 0-5.178.802-10.14 1.529-15.119-.161.002-.313.06-.474.06-7.617 0-15.337-1.934-22.397-6.006-18.501-10.692-28.462-47.079-31.069-57.992l-3.311-13.813 13.638-4.058c10.737-3.179 47.285-12.729 65.713-2.08h.029c7.13 4.118 12.178 10.393 16.088 17.41 8.047-6.453 16.842-11.922 26.569-15.802-3.912-6.667-6.314-14.327-6.314-22.599 0-21.357 26.543-48.179 34.688-55.884l10.312-9.785 10.313 9.785c8.144 7.705 34.687 34.526 34.687 55.884 0 8.273-2.402 15.932-6.313 22.599 9.727 3.88 18.523 9.351 26.572 15.804 3.915-7.018 8.972-13.293 16.113-17.411 18.486-10.679 54.99-1.099 65.713 2.08l13.638 4.058-3.311 13.812c-2.607 10.913-12.568 47.3-31.04 57.993h-.029c-7.061 4.072-14.78 6.006-22.397 6.006-.161 0-.313-.059-.474-.06.726 4.978 1.528 9.94 1.528 15.119z"/><path d="m367.328 210.021c3.325-2.153 8.511-12.583 12.686-24.639-7.778-1.494-15.22-2.344-20.566-2.344-3.281 0-5.786.322-7.104 1.011-3.457 1.992-5.933 5.215-6.973 9.082s-.513 7.91 1.494 11.382c4.101 7.134 13.285 9.625 20.463 5.508z"/><path d="m256 182.058c-41.353 0-75 33.647-75 75 0 41.08 33.228 74.482 74.203 74.919.271-.005.524-.081.797-.081s.526.075.797.081c40.975-.438 74.203-33.84 74.203-74.919 0-41.353-33.647-75-75-75zm0 120c-24.814 0-45-20.186-45-45s20.186-45 45-45 45 20.186 45 45-20.186 45-45 45z"/><path d="m496.776 213.024c-4.032 14.44-9.435 29.5-17.051 43.945 7.639 14.48 13.055 29.573 17.093 44.044 8.995-12.45 15.182-27.672 15.182-43.955 0-16.319-6.2-31.57-15.224-44.034z"/><path d="m15.213 213.043c-9.016 12.462-15.213 27.704-15.213 44.015 0 16.296 6.191 31.527 15.191 43.984 4.034-14.473 9.45-29.575 17.084-44.057-7.623-14.446-13.029-29.503-17.062-43.942z"/><path d="m414.606 70.697c-6.277-14.117-16.924-26.299-31.106-34.479-14.073-8.134-29.769-11.124-44.991-9.523 10.45 10.695 20.744 22.868 29.405 36.638 16.397.753 32.175 3.654 46.692 7.364z"/><path d="m338.465 487.342c2.483.251 4.948.692 7.447.692 12.861 0 25.811-3.34 37.588-10.137 14.198-8.203 24.857-20.405 31.132-34.543-14.632 3.776-30.487 6.693-46.761 7.341-8.662 13.781-18.954 25.954-29.406 36.647z"/><path d="m97.315 443.241c6.262 14.189 16.945 26.433 31.185 34.656 11.792 6.797 24.741 10.137 37.603 10.137 2.507 0 4.977-.439 7.465-.692-10.475-10.714-20.799-22.916-29.482-36.72-16.428-.754-32.234-3.662-46.771-7.381z"/><path d="m173.625 26.517c-15.273-1.547-31.035 1.575-45.125 9.701-14.02 8.097-24.095 20.288-30.375 34.2 14.427-3.679 30.007-6.522 46.005-7.159 8.685-13.821 19.012-26.029 29.495-36.742z"/></g></svg>