<svg id="Capa_1" enable-background="new 0 0 512 512" height="512" viewBox="0 0 512 512" width="512" xmlns="http://www.w3.org/2000/svg"><path d="m482.015 185.635c0 73.527-50.362 135.508-118.401 153.272 14.867-9.944 24.661-26.882 24.661-46.111v-38.191h-38.191c-30.619 0-55.44 24.821-55.44 55.44v33.98h-55.575c19.606-19.139 31.8-45.838 31.8-75.335 0-41.473-33.741-75.214-75.214-75.214s-75.214 33.741-75.214 75.212v.002c.002 24.868 20.235 45.101 45.104 45.101 24.87 0 45.104-20.233 45.104-45.103h-29.985c0 8.336-6.782 15.118-15.118 15.118s-15.117-6.781-15.118-15.115c0-24.939 20.289-45.229 45.229-45.229s45.229 20.289 45.229 45.228c0 41.507-33.741 75.28-75.236 75.336h-.207c-41.494-.056-75.235-33.829-75.235-75.336v-46.733c34.314-6.969 60.221-37.369 60.221-73.709v-64.054h-41.646l-33.57-33.568-33.568 33.568h-41.645v64.052c0 36.34 25.907 66.74 60.221 73.709v46.733c0 57.768 46.751 104.816 104.404 105.312l.002.009h86.356c-17.73 9.249-29.842 27.791-29.842 49.173v38.191h38.191c30.619 0 55.44-24.821 55.44-55.44v-31.923h8.853c103.87 0 188.375-84.504 188.375-188.375z"/></svg>