<svg id="Capa_1" enable-background="new 0 0 512.001 512.001" height="512" viewBox="0 0 512.001 512.001" width="512" xmlns="http://www.w3.org/2000/svg"><g><path d="m284.771 96.667c-58.842 0-106.714 47.872-106.714 106.714s47.872 106.714 106.714 106.714 106.714-47.872 106.714-106.714-47.871-106.714-106.714-106.714zm-15.325 164.292-54.797-54.582 21.171-21.255 34.067 33.933 66.128-63.149 20.719 21.696z"/><path d="m488.39 202.648c0-111.92-90.728-202.648-202.648-202.648-90.163 0-166.564 58.878-192.868 140.28l-9.76 60.392-59.504 98.703v29.92h47.385l20.165 110.149h112.918l17.139 72.557h228.021l-28.235-158.448c41.367-37.101 67.387-90.969 67.387-150.905zm-203.619 137.448c-75.385 0-136.714-61.33-136.714-136.714s61.33-136.714 136.714-136.714 136.714 61.33 136.714 136.714-61.329 136.714-136.714 136.714z"/></g></svg>