<svg id="Capa_1" enable-background="new 0 0 512 512" height="512" viewBox="0 0 512 512" width="512" xmlns="http://www.w3.org/2000/svg"><g><path d="m256 361.51c40.728 0 80.498-7.552 118.317-22.421 4.094-9.297 7.127-19.163 8.937-29.446-40.957 14.096-83.654 21.228-127.254 21.228s-86.297-7.132-127.254-21.228c1.809 10.283 4.842 20.149 8.937 29.446 37.819 14.869 77.589 22.421 118.317 22.421z"/><path d="m256 391.51c-30.582 0-60.667-3.914-89.91-11.618 23.276 22.581 54.997 36.504 89.91 36.504s66.634-13.922 89.91-36.504c-29.243 7.704-59.328 11.618-89.91 11.618z"/><path d="m459.606 199.913c-39.249 0-71.181-31.932-71.181-71.181 0-10.155 2.36-25.04 19.867-58.445 2.099-4.004 4.859-8.939 7.804-14.067-45.273-36.422-101.159-56.22-160.096-56.22-68.38 0-132.667 26.629-181.02 74.98-48.351 48.353-74.98 112.64-74.98 181.02s26.629 132.667 74.98 181.02c48.353 48.351 112.64 74.98 181.02 74.98s132.667-26.629 181.02-74.98c48.351-48.353 74.98-112.64 74.98-181.02 0-24.124-3.329-47.733-9.742-70.318-11.895 8.932-26.666 14.231-42.652 14.231zm-186.728 9.479c0-29.346 23.875-53.221 53.221-53.221 29.347 0 53.222 23.875 53.222 53.221v24.148h-30v-24.148c0-12.804-10.417-23.221-23.222-23.221-12.804 0-23.221 10.417-23.221 23.221v24.148h-30zm-140.198 0c0-29.346 23.875-53.221 53.222-53.221 29.346 0 53.221 23.875 53.221 53.221v24.148h-30v-24.148c0-12.804-10.417-23.221-23.221-23.221-12.805 0-23.222 10.417-23.222 23.221v24.148h-30zm282.527 77.795c0 87.788-71.42 159.209-159.207 159.209s-159.207-71.421-159.207-159.209v-22.449l20.74 8.591c44.121 18.276 90.708 27.542 138.467 27.542s94.346-9.267 138.467-27.542l20.74-8.591z"/><path d="m433.979 83.749c-14.839 28.314-16.554 39.233-16.554 44.983 0 23.258 18.922 42.181 42.181 42.181 23.258 0 42.18-18.922 42.18-42.181 0-5.75-1.716-16.67-16.554-44.983-7.699-14.692-25.626-43.974-25.626-43.974s-17.927 29.282-25.627 43.974z"/></g></svg>