<svg id="Capa_1" enable-background="new 0 0 512 512" height="512" viewBox="0 0 512 512" width="512" xmlns="http://www.w3.org/2000/svg"><g><path d="m271 182v-30h-30v-152h-120v152h-30v30c5.68 0 188.631 0 180 0z"/><path d="m361 212h60v30h-60z"/><path d="m481 122h-90v-30h60v-92h-150v92h60v30h-60v90c-4.595 0-243.032 0-240 0v-90h-30v240h450zm-330 210h-60v-30h60zm0-60h-60v-30h60zm90 60h-60v-30h60zm0-60h-60v-30h60zm210 60h-120v-30h120zm0-60h-120v-90h120z"/><path d="m0 392v120h512v-120zm301 75h-90v-30h90z"/></g></svg>