<?xml version="1.0" encoding="iso-8859-1"?>
<!-- Generator: Adobe Illustrator 19.0.0, SVG Export Plug-In . SVG Version: 6.00 Build 0)  -->
<svg xmlns="http://www.w3.org/2000/svg" xmlns:xlink="http://www.w3.org/1999/xlink" version="1.1" id="Layer_1" x="0px" y="0px" viewBox="0 0 512 512" style="enable-background:new 0 0 512 512;" xml:space="preserve">
<g>
	<g>
		<path d="M256,93.507c-47.428,20.103-90.715,39.716-90.715,73.098c0,33.385,43.286,52.999,90.715,73.103    c47.429-20.105,90.715-39.719,90.715-73.103C346.715,133.223,303.428,113.61,256,93.507z"/>
	</g>
</g>
<g>
	<g>
		<path d="M256,272.285c-47.428,20.104-90.715,39.717-90.715,73.102c0,33.384,43.286,52.998,90.714,73.103    c47.429-20.104,90.716-39.718,90.716-73.103S303.428,292.389,256,272.285z"/>
	</g>
</g>
<g>
	<g>
		<path d="M437.019,74.981c-21.029-21.029-45.074-37.943-71.156-50.35c-14.57,22.831-42.01,38.713-72.239,52.586    c15.842,7.263,30.951,15.071,43.697,24.051c26.51,18.68,39.397,40.051,39.397,65.336c0,25.286-12.887,46.658-39.397,65.339    c-12.746,8.98-27.855,16.789-43.696,24.053c15.841,7.264,30.95,15.072,43.696,24.053c26.51,18.68,39.397,40.053,39.397,65.338    c0,25.286-12.887,46.658-39.397,65.339c-12.747,8.981-27.856,16.79-43.699,24.054c30.23,13.875,57.673,29.756,72.241,52.589    c26.082-12.408,50.127-29.322,71.156-50.35C485.371,388.667,512,324.38,512,256S485.371,123.333,437.019,74.981z"/>
	</g>
</g>
<g>
	<g>
		<path d="M256,0.001c-28.046,0-55.401,4.487-81.254,13.109c15.55,19.281,48.337,33.864,81.254,47.82    c32.917-13.957,65.704-28.539,81.254-47.82C311.401,4.488,284.046,0.001,256,0.001z"/>
	</g>
</g>
<g>
	<g>
		<path d="M256,451.068c-32.917,13.958-65.705,28.541-81.254,47.823c25.852,8.621,53.207,13.109,81.254,13.109    s55.401-4.487,81.254-13.109C321.704,479.608,288.917,465.025,256,451.068z"/>
	</g>
</g>
<g>
	<g>
		<path d="M174.679,410.726c-26.51-18.681-39.397-40.053-39.397-65.339c0-25.285,12.887-46.658,39.397-65.338    c12.746-8.98,27.855-16.789,43.696-24.053c-15.842-7.264-30.95-15.072-43.696-24.053c-26.51-18.681-39.397-40.053-39.397-65.339    c0-25.285,12.887-46.656,39.397-65.336c12.746-8.98,27.855-16.788,43.697-24.051c-30.23-13.874-57.671-29.755-72.239-52.586    c-26.082,12.408-50.127,29.321-71.156,50.35C26.629,123.333,0,187.62,0,256s26.629,132.667,74.981,181.019    c21.029,21.029,45.074,37.943,71.156,50.35c14.569-22.832,42.009-38.716,72.239-52.589    C202.535,427.516,187.425,419.708,174.679,410.726z"/>
	</g>
</g>
<g>
</g>
<g>
</g>
<g>
</g>
<g>
</g>
<g>
</g>
<g>
</g>
<g>
</g>
<g>
</g>
<g>
</g>
<g>
</g>
<g>
</g>
<g>
</g>
<g>
</g>
<g>
</g>
<g>
</g>
</svg>
