<?xml version="1.0" encoding="iso-8859-1"?>
<!-- Generator: Adobe Illustrator 19.0.0, SVG Export Plug-In . SVG Version: 6.00 Build 0)  -->
<svg xmlns="http://www.w3.org/2000/svg" xmlns:xlink="http://www.w3.org/1999/xlink" version="1.1" id="Layer_1" x="0px" y="0px" viewBox="0 0 512 512" style="enable-background:new 0 0 512 512;" xml:space="preserve">
<g>
	<g>
		<path d="M494.103,413.799V66.893H17.897v346.906H0v31.307h512v-31.307H494.103z M409.98,413.799h-59.223v-33.259h59.223V413.799z     M339.789,242.632c-1.158-0.981-2.807-1.482-4.947-1.482c-2.421,0-4.54,0.595-6.324,1.785c-1.795,1.179-3.538,2.734-5.207,4.633    l-8.85-10.227c0.929-1.044,2.171-2.056,3.726-3.037c1.565-0.981,3.329-1.868,5.291-2.651c1.972-0.783,4.122-1.398,6.47-1.868    c2.338-0.459,4.78-0.689,7.326-0.689c6.241,0,11.031,1.357,14.36,4.08c3.319,2.713,4.988,6.387,4.988,11.01    c0,1.91-0.313,3.621-0.918,5.124c-0.605,1.503-1.398,2.849-2.379,4.028c-0.991,1.19-2.087,2.223-3.298,3.12    c-1.221,0.897-2.463,1.722-3.736,2.473c-0.866,0.522-1.899,1.127-3.12,1.826c-1.211,0.689-2.411,1.398-3.6,2.118    c-1.179,0.731-2.285,1.451-3.298,2.171c-1.012,0.731-1.774,1.378-2.296,1.951h23.595v12.492h-43.194    c0-2.713,0.198-5.145,0.605-7.284c0.407-2.139,1.096-4.091,2.077-5.854c0.991-1.764,2.317-3.392,3.997-4.905    c1.67-1.503,3.788-2.974,6.324-4.425c2.724-1.503,4.988-2.745,6.815-3.726c1.816-0.981,3.266-1.847,4.331-2.599    c1.075-0.751,1.837-1.44,2.306-2.045c0.459-0.605,0.689-1.315,0.689-2.118C341.521,244.917,340.947,243.613,339.789,242.632z     M462.795,413.799h-21.508V115.868H69.742v280.263H319.45v17.668H49.205V98.201h413.591V413.799z M278.374,251.22v-8.849h27.498    v8.849H278.374z M305.873,259.893v8.85h-27.498v-8.85H305.873z M243.592,247.004c-1.096,0.73-2.327,1.388-3.684,2.004    c-1.357,0.605-2.745,1.096-4.164,1.471c-1.419,0.376-2.672,0.564-3.767,0.564v-12.836c0.918,0,2.118-0.324,3.59-0.96    c1.482-0.637,2.943-1.398,4.383-2.296c1.451-0.897,2.745-1.805,3.903-2.734c1.158-0.918,1.878-1.67,2.171-2.254h14.14v37.037    h11.01v12.492h-37.464v-12.492h12.314v-22.113C245.502,245.575,244.698,246.284,243.592,247.004z M196.756,254.247v-11.093h8.15    v-9.027h12.492v9.027h8.244v11.093h-8.244v9.027h-12.492v-9.027H196.756z M164.927,247.004c-1.106,0.73-2.338,1.388-3.694,2.004    c-1.357,0.605-2.745,1.096-4.164,1.471s-2.672,0.564-3.767,0.564v-12.836c0.918,0,2.118-0.324,3.6-0.96    c1.471-0.637,2.932-1.398,4.373-2.296c1.451-0.897,2.755-1.805,3.903-2.734c1.158-0.918,1.878-1.67,2.171-2.254h14.141v37.037    h11.02v12.492h-37.475v-12.492h12.314v-22.113C166.826,245.575,166.023,246.284,164.927,247.004z"/>
	</g>
</g>
<g>
</g>
<g>
</g>
<g>
</g>
<g>
</g>
<g>
</g>
<g>
</g>
<g>
</g>
<g>
</g>
<g>
</g>
<g>
</g>
<g>
</g>
<g>
</g>
<g>
</g>
<g>
</g>
<g>
</g>
</svg>
