<svg id="Layer_1" enable-background="new 0 0 510 510" height="512" viewBox="0 0 510 510" width="512" xmlns="http://www.w3.org/2000/svg"><g id="XMLID_835_"><path id="XMLID_837_" d="m343.242 0h-176.484l-7.5 60h191.484z"/><path id="XMLID_996_" d="m354.492 90h-198.984l-3.75 30h206.484z"/><path id="XMLID_997_" d="m155.508 420h198.984l3.75-30h-206.484z"/><path id="XMLID_998_" d="m166.758 510h176.484l7.5-60h-191.484z"/><path id="XMLID_1003_" d="m420 240v-30h30v-30h-30v-30h-150v30h-30v-30h-150v30h-30v30h30v30h60v30h-60v30h-30v30h30v30h150v-30h30v30h150v-30h30v-30h-30v-30h-60v-30zm-120 30h-60v-60h30v30h30z"/></g></svg>