<svg id="Capa_1" enable-background="new 0 0 512 512" height="512" viewBox="0 0 512 512" width="512" xmlns="http://www.w3.org/2000/svg"><g><path d="m497 387.415c-33.506 0-65.762 1.682-96.414 4.545v-82.045h109.124l-39.79-65.29h39.79l-39.89-65.45h24.89l-109.12-179.09-109.13 179.09h24.89l-39.88 65.45h39.78l-39.78 65.29h109.116v85.273c-99.745 13.093-159.757 29.424-232.586 54.392v-74.805c-9.76 1.515-20.24 1.515-30 0v86.022c-58.957 23.812-64.281 29.247-108 51.118h512v-124.5z"/><path d="m108 289.125-23.61-23.6 21.22-21.22 32.39 32.4v98.07c77.029-10.994 115.665-107.705 71.11-173.38 14.012-56.632-29.334-116.476-86.111-115.479-56.764-1-100.137 58.853-86.109 115.479-44.57 65.691-5.889 162.4 71.11 173.38 0-7.598 0-85.65 0-85.65z"/></g></svg>