<?xml version="1.0" encoding="iso-8859-1"?>
<!-- Generator: Adobe Illustrator 19.0.0, SVG Export Plug-In . SVG Version: 6.00 Build 0)  -->
<svg version="1.1" id="Layer_1" xmlns="http://www.w3.org/2000/svg" xmlns:xlink="http://www.w3.org/1999/xlink" x="0px" y="0px"
	 viewBox="0 0 512 512" style="enable-background:new 0 0 512 512;" xml:space="preserve">
<g>
	<g>
		<path d="M391,190v-55C391,60.561,330.439,0,256,0S121,60.561,121,135v55H30v322h452V190H391z M271,335.964V425h-30v-89.036
			c-8.958-5.195-15-14.884-15-25.964c0-16.542,13.458-30,30-30s30,13.458,30,30C286,321.08,279.958,330.769,271,335.964z M361,190
			H151v-55c0-57.897,47.103-105,105-105c57.897,0,105,47.103,105,105V190z"/>
	</g>
</g>
<g>
</g>
<g>
</g>
<g>
</g>
<g>
</g>
<g>
</g>
<g>
</g>
<g>
</g>
<g>
</g>
<g>
</g>
<g>
</g>
<g>
</g>
<g>
</g>
<g>
</g>
<g>
</g>
<g>
</g>
</svg>
