<?xml version="1.0" encoding="iso-8859-1"?>
<!-- Generator: Adobe Illustrator 19.0.0, SVG Export Plug-In . SVG Version: 6.00 Build 0)  -->
<svg xmlns="http://www.w3.org/2000/svg" xmlns:xlink="http://www.w3.org/1999/xlink" version="1.1" id="Layer_1" x="0px" y="0px" viewBox="0 0 511.999 511.999" style="enable-background:new 0 0 511.999 511.999;" xml:space="preserve">
<g>
	<g>
		<path d="M209.216,117.216c-26.826-45.955-62.691-55.601-88.055-55.601c-25.365,0-61.23,9.646-88.055,55.602    C11.138,154.85,0,209.195,0,278.743v171.641h242.322V278.743C242.322,209.195,231.183,154.85,209.216,117.216z M121.161,126.138    c26.334,0,47.759,21.425,47.759,47.759s-21.425,47.759-47.759,47.759s-47.76-21.424-47.76-47.759    C73.401,147.562,94.827,126.138,121.161,126.138z M121.161,403.886c-41.169,0-74.662-33.493-74.662-74.663    c0-41.168,33.494-74.662,74.662-74.662c41.169,0,74.662,33.493,74.662,74.662S162.33,403.886,121.161,403.886z"/>
	</g>
</g>
<g>
	<g>
		<path d="M478.893,117.216c-26.825-45.955-62.69-55.602-88.054-55.602h-0.001c-25.364,0-61.229,9.646-88.055,55.602    c-21.967,37.633-33.106,91.98-33.106,161.528v171.641h242.322V278.743C512,209.195,500.861,154.85,478.893,117.216z     M390.838,126.138c26.334,0,47.76,21.425,47.76,47.759s-21.426,47.759-47.76,47.759c-26.334,0-47.759-21.424-47.759-47.759    C343.079,147.562,364.504,126.138,390.838,126.138z M390.839,403.886c-41.169,0-74.662-33.493-74.662-74.663    c0-41.168,33.493-74.662,74.662-74.662s74.662,33.493,74.662,74.662S432.008,403.886,390.839,403.886z"/>
	</g>
</g>
<g>
</g>
<g>
</g>
<g>
</g>
<g>
</g>
<g>
</g>
<g>
</g>
<g>
</g>
<g>
</g>
<g>
</g>
<g>
</g>
<g>
</g>
<g>
</g>
<g>
</g>
<g>
</g>
<g>
</g>
</svg>
