<svg id="Capa_1" enable-background="new 0 0 512 512" height="512" viewBox="0 0 512 512" width="512" xmlns="http://www.w3.org/2000/svg"><g><path d="m388.956 88.324 7.147-88.324h-280.206l7.146 88.324c5.565 68.766 63.966 122.633 132.957 122.633s127.392-53.867 132.956-122.633z"/><path d="m441.054 347.613c-25.163-23.309-54.564-45.932-85.424-62.684l-12.371-69.212c-25.937 16.412-56.071 25.24-87.259 25.24s-61.321-8.828-87.258-25.24l-12.371 69.212c-29.95 16.12-59.989 39.154-85.424 62.684l-70.947 15.172v149.215h512v-149.215zm-240.104 122.043c0-17.193-13.988-31.181-31.181-31.182h-64.573v-30h64.574c33.735 0 61.181 27.447 61.181 61.182zm19.109-101.409c-18.105-23.396-24.333-54.422-16.658-82.993l28.973 7.782c-5.256 19.572-.991 40.824 11.411 56.852zm59.567-75.211 28.973-7.782c7.674 28.571 1.447 59.597-16.658 82.993l-23.726-18.359c12.402-16.028 16.668-37.28 11.411-56.852zm127.178 145.438h-64.574c-17.193 0-31.181 13.988-31.181 31.182h-30c0-33.735 27.445-61.181 61.18-61.182h64.574v30z"/></g></svg>