<svg id="Capa_1" enable-background="new 0 0 512 512" height="512" viewBox="0 0 512 512" width="512" xmlns="http://www.w3.org/2000/svg"><g><path d="m89.881 275.553c5.782 11.892 18.661 35.994 38.515 60.271 37.299 45.609 81.424 69.717 127.605 69.717s90.307-24.107 127.605-69.717c19.855-24.278 32.733-48.381 38.515-60.272-24.447 12.898-81.391 36.948-166.121 36.948-84.727 0-141.671-24.049-166.119-36.947z"/><path d="m123.165 257.879c27.183 11.203 72.359 24.621 132.835 24.621 60.834 0 105.889-13.375 132.945-24.567-31.491-9.724-81.907-22.229-132.945-22.229-51.079 0-101.375 12.459-132.835 22.175z"/><path d="m491.329 149.996c-13.136-10.741-30.208-14.967-46.838-11.594l-38.813 7.87-117.282-35.062c-10.597-3.168-21.496-4.752-32.396-4.752s-21.799 1.584-32.396 4.752l-117.282 35.062-38.813-7.87c-16.63-3.373-33.702.853-46.838 11.594-13.137 10.741-20.671 26.632-20.671 43.6 0 21.35 11.833 40.603 30.881 50.246l45.606 23.088 10.274-28.424-42.331-21.429c-8.9-4.506-14.43-13.504-14.43-23.481 0-7.929 3.521-15.355 9.66-20.375 6.139-5.019 14.118-6.995 21.888-5.418l29.617 6.005-4.402 64.697c22.977-8.6 94.303-32.802 169.238-32.802s146.262 24.202 169.238 32.802l-4.402-64.697 29.617-6.005c7.77-1.577 15.749.399 21.888 5.418s9.66 12.445 9.66 20.375c0 9.977-5.53 18.974-14.431 23.48l-42.331 21.429 10.274 28.424 45.606-23.088c19.047-9.642 30.88-28.894 30.88-50.245 0-16.968-7.534-32.859-20.671-43.6z"/></g></svg>