<svg id="Capa_1" enable-background="new 0 0 512 512" height="512" viewBox="0 0 512 512" width="512" xmlns="http://www.w3.org/2000/svg"><g id="XMLID_813_"><path id="XMLID_814_" d="m80.597 139.338h30.045v58.39h-30.045z" transform="matrix(.429 -.903 .903 .429 -97.642 182.56)"/><path id="XMLID_817_" d="m134.543 80.093h30.045v57.06h-30.045z" transform="matrix(.914 -.407 .407 .914 -31.256 70.252)"/><path id="XMLID_818_" d="m65.457 235.448h57.061v30.045h-57.061z" transform="matrix(.914 -.407 .407 .914 -93.78 59.912)"/><path id="XMLID_819_" d="m230.677 242.034c7.226-4.301 15.134-7.372 23.37-9.097-2.816-5.004-5.071-10.313-6.696-15.831-13.336-2.853-25.783-9.269-35.883-18.627-12.495-11.579-20.224-26.405-23.096-41.995-16.063 21.382-23.108 50.157-19.023 78.175 7.067-2.171 14.566-3.347 22.336-3.347 13.789.001 27.283 3.753 38.992 10.722z"/><path id="XMLID_820_" d="m357.026 167.436-7.67-9.956 100.831-110.977-50.185-46.503-100.794 110.938-10.713-6.989c-7.537-4.917-16.267-7.517-25.246-7.517-12.812 0-25.152 5.387-33.854 14.778-17.304 18.672-16.191 47.941 2.481 65.245 7.87 7.291 18.086 11.635 28.767 12.231l12.427.693 1.622 12.341c1.41 10.734 6.384 20.327 14.384 27.739 8.562 7.934 19.702 12.304 31.369 12.305h.002c12.819 0 25.165-5.39 33.874-14.788 15.12-16.317 16.283-41.915 2.705-59.54z"/><path id="XMLID_825_" d="m315.836 307.507c0-25.457-20.711-46.168-46.168-46.168-10.906 0-21.073 3.654-29.403 10.567l-9.588 7.957-9.587-7.957c-8.33-6.914-18.499-10.568-29.404-10.568-25.457 0-46.167 20.711-46.167 46.168 0 22.227 16.528 41.79 38.446 45.505l12.504 2.12v156.869h68.418v-156.868l12.504-2.12c21.917-3.715 38.445-23.278 38.445-45.505z"/></g></svg>