<svg id="Capa_1" enable-background="new 0 0 512 512" height="512" viewBox="0 0 512 512" width="512" xmlns="http://www.w3.org/2000/svg"><g><circle cx="407" cy="105" r="15"/><ellipse cx="165" cy="347" rx="42.857" ry="42.857" transform="matrix(.973 -.23 .23 .973 -75.31 47.192)"/><path d="m486.337 173.707c15.981-18.428 25.663-42.458 25.663-68.707 0-57.897-47.103-105-105-105-24.506 0-47.076 8.441-64.961 22.565l-264.526 184.602c-46.519 29.21-77.513 80.966-77.513 139.833 0 90.981 74.019 165 165 165 57.473 0 108.168-29.544 137.721-74.236l.007.005zm-238.606 234.811-21.213 21.213-21.739-21.739c-7.435 4.866-15.802 8.418-24.779 10.304v30.704h-30v-30.703c-8.977-1.887-17.344-5.438-24.779-10.304l-21.739 21.739-21.213-21.213 21.739-21.739c-4.866-7.435-8.418-15.802-10.305-24.78h-30.703v-30h30.703c1.887-8.977 5.438-17.344 10.304-24.779l-21.739-21.738 21.213-21.213 21.739 21.739c7.435-4.866 15.802-8.418 24.78-10.304v-30.705h30v30.703c8.977 1.887 17.344 5.438 24.779 10.304l21.739-21.739 21.213 21.213-21.739 21.739c4.866 7.435 8.418 15.802 10.304 24.78h30.704v30h-30.703c-1.887 8.977-5.438 17.344-10.304 24.779zm-81.751-226.506 137.773-96.146c-1.148 6.207-1.753 12.601-1.753 19.134 0 57.897 47.103 105 105 105 6.39 0 12.648-.576 18.726-1.674l-95.739 137.689c-.531-90.202-73.805-163.474-164.007-164.003zm316.02-77.012c0 5.136-.521 10.152-1.509 15h-31.071c-4.527 12.764-14.656 22.893-27.42 27.42v31.071c-4.848.988-9.864 1.509-15 1.509s-10.152-.521-15-1.509v-31.071c-12.764-4.527-22.893-14.656-27.42-27.42h-31.071c-.988-4.848-1.509-9.864-1.509-15s.521-10.152 1.509-15h31.071c4.527-12.764 14.656-22.893 27.42-27.42v-31.071c4.848-.988 9.864-1.509 15-1.509s10.152.521 15 1.509v31.071c12.764 4.527 22.893 14.656 27.42 27.42h31.071c.988 4.848 1.509 9.864 1.509 15z"/></g></svg>