<svg id="Capa_1" enable-background="new 0 0 512 512" height="512" viewBox="0 0 512 512" width="512" xmlns="http://www.w3.org/2000/svg"><g><path d="m249.385 395.114c-24.979 0-48.88 10.56-66.564 29.181 17.538 3.984 43.38 8.288 73.179 8.288s55.641-4.304 73.179-8.288c-17.684-18.621-41.585-29.181-66.564-29.181z"/><path d="m256 462.583c-37.098 0-68.261-5.978-87.328-10.786v60.203h174.655v-60.204c-19.066 4.809-50.229 10.787-87.327 10.787z"/><path d="m258.135 160.747c23.075 0 45.505-8.785 62.823-24.101-15.159-6.074-39.167-13.367-67.092-13.367-27.276 0-49.444 6.978-63.349 12.894 17.389 15.607 40.038 24.574 63.349 24.574z"/><path d="m187.969 0c-29.242 0-53.031 23.79-53.031 53.031v39.133c12.884 4.078 24.652 11.111 34.457 20.688 15.492-7.746 45.527-19.575 84.471-19.575 39.721 0 72.168 12.288 88.424 19.879 9.868-9.734 21.751-16.871 34.773-20.993v-39.132c-.001-29.241-23.791-53.031-53.032-53.031s-53.031 23.79-53.031 53.031v5.516h-30v-5.516c0-29.241-23.79-53.031-53.031-53.031z"/><path d="m403.715 118.07c-18.19 0-34.944 8.321-45.965 22.831-23.707 31.211-60.946 49.845-99.615 49.845h-4.269c-38.669 0-75.909-18.634-99.616-49.845-11.021-14.51-27.774-22.832-45.965-22.832-16.496 0-31.678 6.734-42.751 18.961-11.073 12.228-16.273 28.001-14.643 44.417l20.202 203.366c2.427 24.429 22.769 42.85 47.318 42.85 14.244 0 27.619-6.31 36.698-17.31 23.727-28.751 58.09-45.24 94.277-45.24h13.229c36.187 0 70.549 16.489 94.277 45.24 9.079 11.001 22.455 17.311 36.698 17.311 24.549 0 44.891-18.421 47.318-42.85l20.202-203.366c1.631-16.415-3.569-32.189-14.643-44.417-11.073-12.227-26.256-18.961-42.752-18.961zm-316.387 60.524h33.734v30h-33.734zm0 75.903h33.734v30h-33.734zm50.602 105.902h-33.735v-30h33.735zm185.539-148.07h33.734v30h-33.734zm-168.672 0h33.734v30h-33.734zm50.601 97.468h-33.734v-30h33.734zm67.469 16.868h-33.734v-30h33.734zm0-67.469h-33.734v-30h33.734zm67.469 50.601h-33.734v-30h33.734zm67.469 50.602h-33.735v-30h33.735zm16.867-75.902h-33.734v-30h33.734zm0-75.903h-33.734v-30h33.734z"/></g></svg>