<svg id="Capa_1" enable-background="new 0 0 510.065 510.065" height="512" viewBox="0 0 510.065 510.065" width="512" xmlns="http://www.w3.org/2000/svg"><g id="XMLID_407_"><path id="XMLID_2197_" d="m265.717 135.993c-13.125 3.819-16.51 7.409-26.484 10.437.645-4.845-5.003-48.214 26.289-92.814l-24.559-17.23c-7.043 10.039-12.956 20.672-17.7 31.75-9.347-3.56-19.104-5.988-29.03-7.208v-1.042c0-33.022-26.864-59.886-59.885-59.886h-60.115v30.115c0 33.021 26.864 59.885 59.884 59.885h45.116c11.862 0 23.65 2.281 34.645 6.657-5.949 25.283-4.391 43.842-4.645 49.773-11.514-3.494-22.625-12.429-46.683-14.009-61.271-4.039-102.36 13.457-125.618 53.495-11.168 19.23-18.571 38.929-22.004 58.545-20.263 115.692 57.285 272.672 189.035 265.354 25.275-1.397 38.966.249 49.462.249 102.449-.004 171.078-100.32 181.76-201.682-13.183 4.309-27.248 6.648-41.851 6.648-92.555.001-157.87-91.613-127.617-179.037zm-176.484 89.007h30v30h-30zm60 89.999h-30v-30h30z"/><path id="XMLID_2445_" d="m393.335 75.031c-57.99 0-105 47.011-105 105 0 57.99 47.01 105 105 105 57.989 0 105-47.01 105-105 0-57.989-47.011-105-105-105zm-15 156.214-40.606-40.607 21.213-21.213 19.393 19.394 49.394-49.394 21.213 21.213z"/></g></svg>