<svg id="Capa_1" enable-background="new 0 0 512 512" height="512" viewBox="0 0 512 512" width="512" xmlns="http://www.w3.org/2000/svg"><g><path d="m241 284.294h29.391c15.778 0 29.329-11.942 30.521-27.675 1.333-17.582-12.605-32.325-29.912-32.325h-30v-134.619l-9.492-9.492c-52.676-52.646-139.452-52.646-192.127 0-52.5 52.5-52.515 138.179 0 191.016l201.619 200.507z"/><path d="m472.616 79.779c-52.676-52.646-139.448-52.646-192.124 0l-9.492 9.492v105.023c16.632 0 32.668 7.008 43.997 19.228 11.319 12.21 17.089 28.745 15.829 45.365-2.339 30.868-28.561 55.093-59.826 55.405v157.011l201.645-200.537c52.485-52.808 52.471-138.487-.029-190.987z"/></g></svg>