<svg id="Capa_1" enable-background="new 0 0 510.514 510.514" height="512" viewBox="0 0 510.514 510.514" width="512" xmlns="http://www.w3.org/2000/svg"><g id="XMLID_288_"><path id="XMLID_386_" d="m69.438 119.848c-5.194 0-10.214-.766-15-2.193v275.203c4.786-1.427 9.806-2.193 15-2.193s10.214.766 15 2.193v-275.203c-4.786 1.427-9.806 2.193-15 2.193z"/><path id="XMLID_405_" d="m193.318 119.848c-5.194 0-10.214-.766-15-2.193v275.203c4.786-1.427 9.806-2.193 15-2.193s10.214.766 15 2.193v-275.203c-4.786 1.427-9.806 2.193-15 2.193z"/><path id="XMLID_406_" d="m317.197 119.848c-5.194 0-10.214-.766-15-2.193v275.203c4.786-1.427 9.806-2.193 15-2.193s10.214.766 15 2.193v-275.203c-4.786 1.427-9.806 2.193-15 2.193z"/><path id="XMLID_409_" d="m456.075 392.859v-275.204c-4.786 1.427-9.806 2.193-15 2.193s-10.214-.766-15-2.193v275.203c4.786-1.427 9.806-2.193 15-2.193s10.215.767 15 2.194z"/><path id="XMLID_416_" d="m69.438 89.848c17.185 0 31.165-20.153 31.165-44.924s-13.981-44.924-31.165-44.924-31.164 20.153-31.164 44.924 13.98 44.924 31.164 44.924z"/><path id="XMLID_421_" d="m69.438 420.666c-17.184 0-31.164 20.153-31.164 44.924s13.98 44.924 31.164 44.924c17.185 0 31.165-20.153 31.165-44.924s-13.981-44.924-31.165-44.924z"/><path id="XMLID_437_" d="m193.318 89.848c17.184 0 31.164-20.153 31.164-44.924s-13.981-44.924-31.164-44.924c-17.185 0-31.165 20.153-31.165 44.924s13.98 44.924 31.165 44.924z"/><path id="XMLID_444_" d="m193.318 420.666c-17.185 0-31.165 20.153-31.165 44.924s13.98 44.924 31.165 44.924c17.184 0 31.164-20.153 31.164-44.924s-13.981-44.924-31.164-44.924z"/><ellipse id="XMLID_449_" cx="317.197" cy="44.924" rx="31.165" ry="44.924"/><ellipse id="XMLID_485_" cx="317.197" cy="465.59" rx="31.165" ry="44.924"/><ellipse id="XMLID_499_" cx="441.075" cy="44.924" rx="31.165" ry="44.924"/><ellipse id="XMLID_503_" cx="441.075" cy="465.59" rx="31.165" ry="44.924"/></g></svg>