<?xml version="1.0" encoding="iso-8859-1"?>
<!-- Generator: Adobe Illustrator 19.0.0, SVG Export Plug-In . SVG Version: 6.00 Build 0)  -->
<svg version="1.1" id="Layer_1" xmlns="http://www.w3.org/2000/svg" xmlns:xlink="http://www.w3.org/1999/xlink" x="0px" y="0px"
	 viewBox="0 0 512 512" style="enable-background:new 0 0 512 512;" xml:space="preserve">
<g>
	<g>
		<path d="M327.853,235.639c-0.311-2.802-1.538-5.275-3.685-7.42c-2.214-2.214-4.722-3.478-7.525-3.789
			c-2.803-0.312-5.07,0.4-6.799,2.127c-1.731,1.731-2.423,3.981-2.077,6.747c0.346,2.769,1.627,5.26,3.841,7.473
			c2.216,2.216,4.689,3.479,7.421,3.789c2.734,0.313,4.965-0.397,6.696-2.129C327.454,240.709,328.165,238.442,327.853,235.639z"/>
	</g>
</g>
<g>
	<g>
		<path d="M241.955,234.137c-0.344-2.769-1.623-5.26-3.838-7.476c-2.213-2.213-4.689-3.476-7.422-3.789
			c-2.733-0.309-4.966,0.399-6.695,2.129c-1.731,1.731-2.423,3.981-2.077,6.747c0.346,2.769,1.593,5.226,3.737,7.37
			c2.216,2.216,4.706,3.496,7.473,3.841c2.767,0.348,5.017-0.344,6.747-2.076C241.608,239.155,242.3,236.906,241.955,234.137z"/>
	</g>
</g>
<g>
	<g>
		<path d="M227.01,315.206c-1.8-1.799-3.927-2.474-6.385-2.025c-2.455,0.451-5.312,1.471-8.563,3.063l12.457,12.457
			C229.639,323.164,230.471,318.667,227.01,315.206z"/>
	</g>
</g>
<g>
	<g>
		<path d="M175.108,289.046c-4.429,5.26-4.842,9.69-1.246,13.288c1.731,1.73,3.703,2.493,5.917,2.283
			c2.213-0.206,4.912-1.141,8.097-2.803L175.108,289.046z"/>
	</g>
</g>
<g>
	<g>
		<path d="M395.251,116.75c-5.332-5.332-12.422-8.269-19.963-8.269s-14.63,2.937-19.961,8.268
			c-5.332,5.332-8.269,12.422-8.269,19.963c0,7.541,2.937,14.63,8.268,19.963c5.332,5.332,12.422,8.268,19.963,8.268
			s14.63-2.937,19.963-8.268c5.332-5.332,8.268-12.422,8.268-19.963C403.519,129.17,400.582,122.081,395.251,116.75z"/>
	</g>
</g>
<g>
	<g>
		<path d="M422.23,0h-157.76L0,264.469L247.531,512L512,247.531V89.77L422.23,0z M252.96,354.858l-7.163,7.163l-12.145-12.145
			c-5.19,4.36-10.881,8.115-17.075,11.263c-6.193,3.149-12.405,5.346-18.632,6.591l-7.37-22.318
			c0.623,0.072,1.939-0.102,3.944-0.518c2.007-0.413,4.378-1.124,7.111-2.129c2.735-1.002,5.676-2.282,8.824-3.841
			c3.148-1.555,6.142-3.408,8.979-5.554l-13.806-13.806l-6.435,3.529c-4.43,2.353-8.494,4.17-12.197,5.45
			c-3.702,1.282-7.163,1.94-10.381,1.973c-3.217,0.035-6.264-0.587-9.134-1.869c-2.873-1.279-5.691-3.304-8.46-6.072
			c-3.598-3.598-6.176-7.422-7.734-11.471c-1.557-4.048-2.283-8.129-2.179-12.249c0.104-4.116,1.02-8.182,2.751-12.197
			c1.729-4.013,4.084-7.854,7.059-11.523l-10.485-10.485l7.163-7.163l10.485,10.485c4.913-4.082,10.139-7.3,15.675-9.654
			c5.538-2.352,10.588-4.152,15.155-5.398l6.643,21.591c-0.483-0.069-1.541,0.087-3.166,0.466c-1.626,0.382-3.581,0.986-5.864,1.817
			c-2.284,0.83-4.706,1.87-7.267,3.114c-2.561,1.247-4.948,2.7-7.162,4.36l14.117,14.117l4.152-2.491
			c4.5-2.56,8.736-4.687,12.716-6.383c3.978-1.695,7.803-2.681,11.47-2.959c3.669-0.276,7.249,0.261,10.744,1.609
			c3.495,1.351,6.938,3.721,10.328,7.111c3.944,3.944,6.609,7.994,7.993,12.145c1.383,4.153,1.799,8.271,1.246,12.353
			c-0.554,4.084-1.885,8.081-3.996,11.989c-2.112,3.909-4.759,7.594-7.941,11.055L252.96,354.858z M255.919,231.697
			c-0.174,3.079-0.918,6.108-2.232,9.082c-1.316,2.976-3.217,5.709-5.709,8.2c-2.491,2.491-5.226,4.395-8.201,5.709
			c-2.975,1.316-5.986,2.043-9.03,2.181c-3.047,0.139-6.021-0.312-8.928-1.349c-2.907-1.039-5.465-2.664-7.681-4.879
			c-2.213-2.213-3.822-4.757-4.826-7.629c-1.002-2.871-1.438-5.829-1.297-8.876c0.138-3.044,0.865-6.055,2.179-9.03
			c1.314-2.974,3.217-5.709,5.709-8.2c2.491-2.491,5.225-4.394,8.201-5.709c2.974-1.314,6.003-2.059,9.082-2.231
			c3.078-0.173,6.039,0.261,8.876,1.297c2.837,1.04,5.364,2.665,7.577,4.878c2.216,2.216,3.857,4.759,4.931,7.63
			C255.641,225.642,256.09,228.617,255.919,231.697z M274.239,296.417l-4.36-62.905l-8.616-61.763l14.118-0.83l4.464,61.14
			l8.511,63.735L274.239,296.417z M341.764,233.253c-0.174,3.081-0.918,6.108-2.231,9.082c-1.316,2.975-3.218,5.709-5.709,8.2
			s-5.226,4.395-8.2,5.709c-2.977,1.316-5.987,2.042-9.031,2.179c-3.047,0.14-6.003-0.294-8.876-1.297
			c-2.87-1.003-5.414-2.612-7.629-4.827c-2.214-2.214-3.841-4.776-4.878-7.681c-1.038-2.907-1.489-5.881-1.349-8.928
			c0.138-3.044,0.864-6.055,2.179-9.032c1.313-2.974,3.217-5.709,5.709-8.2c2.491-2.491,5.224-4.394,8.201-5.709
			c2.974-1.313,6.003-2.057,9.082-2.231c3.078-0.172,6.055,0.277,8.928,1.349c2.87,1.074,5.416,2.717,7.629,4.93
			c2.216,2.216,3.841,4.743,4.879,7.578C341.504,227.216,341.936,230.174,341.764,233.253z M419.205,180.628
			c-11.73,11.73-27.327,18.191-43.917,18.191s-32.186-6.46-43.917-18.191s-18.191-27.327-18.191-43.917
			c0-16.589,6.46-32.186,18.191-43.917c11.73-11.73,27.326-18.191,43.917-18.191c16.59,0,32.185,6.46,43.917,18.191
			c11.73,11.73,18.191,27.326,18.191,43.917C437.396,153.301,430.936,168.897,419.205,180.628z"/>
	</g>
</g>
<g>
</g>
<g>
</g>
<g>
</g>
<g>
</g>
<g>
</g>
<g>
</g>
<g>
</g>
<g>
</g>
<g>
</g>
<g>
</g>
<g>
</g>
<g>
</g>
<g>
</g>
<g>
</g>
<g>
</g>
</svg>
