<svg id="Capa_1" enable-background="new 0 0 512 512" height="512" viewBox="0 0 512 512" width="512" xmlns="http://www.w3.org/2000/svg"><g><path d="m27.642 350.13 17.03 24.713 142.629-98.253c-5.688-8.434-10.57-17.263-14.646-26.362z"/><path d="m137.159 467.33 24.714 17.03 99.902-145.013c-9.106-4.082-17.936-8.964-26.369-14.653z"/><path d="m158.999 151.666-158.999 49.637 8.946 28.654 148.298-46.297c.792 22.77 5.928 45.415 15.412 66.568l61.434-42.317 17.023 24.721-63.811 43.958c6.269 9.311 13.521 18.148 21.742 26.369s17.058 15.473 26.362 21.735l43.958-63.811 24.728 17.03-42.317 61.434c21.152 9.483 43.797 14.62 66.567 15.412l-46.297 148.296 28.653 8.945 49.638-158.996c15.296-2.225 30.356-6.442 44.754-12.652l-233.439-233.438c-6.21 14.397-10.427 29.456-12.652 44.752z"/><path d="m497.31 248.337-233.649-233.648c-19.849 8.62-38.417 21.022-54.617 37.222-1.251 1.251-2.482 2.524-3.684 3.797l-19.573-19.573-21.227 21.227 290.084 290.083 21.227-21.227-19.573-19.573c1.273-1.202 2.539-2.44 3.79-3.691 16.2-16.2 28.603-34.768 37.222-54.617z"/><path d="m460.095 51.911c-44.541-44.541-107.063-60.422-164.417-47.631l212.041 212.04c12.792-57.354-3.083-119.869-47.624-164.409z"/></g></svg>