<?xml version="1.0" encoding="iso-8859-1"?>
<!-- Generator: Adobe Illustrator 19.0.0, SVG Export Plug-In . SVG Version: 6.00 Build 0)  -->
<svg xmlns="http://www.w3.org/2000/svg" xmlns:xlink="http://www.w3.org/1999/xlink" version="1.1" id="Layer_1" x="0px" y="0px" viewBox="0 0 512 512" style="enable-background:new 0 0 512 512;" xml:space="preserve">
<g>
	<g>
		<path d="M422.325,241.472v15.029c0,25.186-13.978,47.86-36.48,59.174l-114.815,57.724V138.27h137.083    c3.531,3.108,8.148,5.01,13.211,5.01c11.05,0,20.039-8.99,20.039-20.039c0-11.05-8.99-20.039-20.039-20.039    c-5.063,0-9.679,1.902-13.211,5.01H271.029v-0.096c23.102-6.56,40.078-27.831,40.078-53.008C311.108,24.721,286.386,0,256,0    s-55.108,24.721-55.108,55.108c0,25.176,16.976,46.447,40.078,53.008v0.096H103.887c-3.531-3.108-8.148-5.01-13.21-5.01    c-11.05,0-20.039,8.99-20.039,20.039c0,11.05,8.99,20.039,20.039,20.039c5.063,0,9.679-1.902,13.21-5.01h137.084v235.128    l-114.814-57.725c-22.503-11.312-36.481-33.986-36.481-59.173v-15.029H30.56v15.029c0,36.179,9.288,72.017,26.86,103.641    s43.098,58.44,73.818,77.547L250.705,512h10.59l119.466-74.309c30.72-19.108,56.247-45.924,73.819-77.548    c17.572-31.625,26.86-67.463,26.86-103.641v-15.029H422.325z M256,80.157c-13.812,0-25.049-11.237-25.049-25.049    c0-13.812,11.237-25.049,25.049-25.049c13.812,0,25.049,11.237,25.049,25.049C281.049,68.92,269.812,80.157,256,80.157z"/>
	</g>
</g>
<g>
</g>
<g>
</g>
<g>
</g>
<g>
</g>
<g>
</g>
<g>
</g>
<g>
</g>
<g>
</g>
<g>
</g>
<g>
</g>
<g>
</g>
<g>
</g>
<g>
</g>
<g>
</g>
<g>
</g>
</svg>
