<?xml version="1.0" encoding="iso-8859-1"?>
<!-- Generator: Adobe Illustrator 19.0.0, SVG Export Plug-In . SVG Version: 6.00 Build 0)  -->
<svg xmlns="http://www.w3.org/2000/svg" xmlns:xlink="http://www.w3.org/1999/xlink" version="1.1" id="Layer_1" x="0px" y="0px" viewBox="0 0 512 512" style="enable-background:new 0 0 512 512;" xml:space="preserve">
<g>
	<g>
		<path d="M256,0c-84.023,0-152.381,68.358-152.381,152.381c0,53.708,27.75,102.608,73.143,130.192v107.522h60.952V233.098    l-59.294-59.293l12.929-12.929c35.647-35.649,93.652-35.649,129.299,0l12.929,12.929l-59.292,59.293v156.997h60.952V282.573    c45.392-27.583,73.143-76.484,73.143-130.192C408.381,68.358,340.023,0,256,0z"/>
	</g>
</g>
<g>
	<g>
		<path d="M232.355,176.02L256,199.664l23.645-23.645C264.737,168.916,247.263,168.916,232.355,176.02z"/>
	</g>
</g>
<g>
	<g>
		<rect x="182.857" y="414.476" width="146.286" height="36.571"/>
	</g>
</g>
<g>
	<g>
		<rect x="207.238" y="475.429" width="97.524" height="36.571"/>
	</g>
</g>
<g>
</g>
<g>
</g>
<g>
</g>
<g>
</g>
<g>
</g>
<g>
</g>
<g>
</g>
<g>
</g>
<g>
</g>
<g>
</g>
<g>
</g>
<g>
</g>
<g>
</g>
<g>
</g>
<g>
</g>
</svg>
