<svg id="Capa_1" enable-background="new 0 0 512 512" height="512" viewBox="0 0 512 512" width="512" xmlns="http://www.w3.org/2000/svg"><g><path d="m335.668 175.27c0-26.781-13.228-50.456-33.491-64.9-12.925 9.564-28.9 15.232-46.177 15.232s-33.252-5.668-46.177-15.232c-20.263 14.444-33.491 38.12-33.491 64.9v31.867h159.336z"/><path d="m20.547 385.473c-12.63 11.646-20.547 28.325-20.547 46.859v79.668h127.469v-79.668c0-18.534-7.917-35.213-20.547-46.859-12.364 8.283-27.22 13.125-43.188 13.125s-30.823-4.842-43.187-13.125z"/><path d="m491.453 385.473c-12.364 8.283-27.22 13.125-43.188 13.125s-30.823-4.841-43.188-13.125c-12.629 11.646-20.547 28.325-20.547 46.859v79.668h127.47v-79.668c0-18.534-7.917-35.213-20.547-46.859z"/><path d="m241 255v53.787l-22.123-22.123-21.213 21.212 58.336 58.337 58.336-58.337-21.213-21.212-22.123 22.123v-53.787z"/><path d="m295.775 421.545-26.517-26.517-26.516 26.517-26.517-26.517-42.426 42.427 21.213 21.213 21.213-21.213 26.517 26.517 26.516-26.517 26.517 26.517 42.426-42.427-21.213-21.213z"/><path d="m65.74 191.166 17.221 41.574 27.717-11.48-28.701-69.291-27.717 11.481-17.221-41.575-27.717 11.48 28.701 69.291z"/><path d="m446.26 191.166 27.717 11.48 28.701-69.291-27.717-11.48-17.221 41.575-27.717-11.481-28.701 69.291 27.717 11.48z"/><circle cx="256" cy="47.801" r="47.801"/><circle cx="63.734" cy="320.797" r="47.801"/><circle cx="448.266" cy="320.797" r="47.801"/></g></svg>