<svg id="Capa_1" enable-background="new 0 0 512 512" height="512" viewBox="0 0 512 512" width="512" xmlns="http://www.w3.org/2000/svg"><g><path d="m136 361c57.891 0 105-47.109 105-105s-47.109-105-105-105-105 47.109-105 105 47.109 105 105 105zm-15-105c0 8.276 6.724 15 15 15s15-6.734 15-15.01l30 .01c0 24.814-20.186 45-45 45s-45-20.186-45-45z"/><path d="m241 482c0-66.167-53.833-121-120-121s-121 54.833-121 121v30h241z"/><path d="m391 361c-66.167 0-120 54.833-120 121v30h241v-30c0-66.167-54.833-121-121-121z"/><path d="m241 0h30v91h-30z"/><path d="m135.998 29.131h30.005v90.002h-30.005z" transform="matrix(.866 -.5 .5 .866 -16.837 85.416)"/><path d="m315.999 59.13h90.002v30.005h-90.002z" transform="matrix(.5 -.866 .866 .5 116.303 349.704)"/><path d="m376 361c57.891 0 105-47.109 105-105s-47.109-105-105-105-105 47.109-105 105 47.109 105 105 105zm-15-105c0 8.276 6.724 15 15 15s15-6.724 15-15.01h30c0 24.824-20.186 45.01-45 45.01s-45-20.186-45-45z"/></g></svg>