<svg id="Capa_1" enable-background="new 0 0 512 512" height="512" viewBox="0 0 512 512" width="512" xmlns="http://www.w3.org/2000/svg"><g><circle cx="261.712" cy="117.924" r="32.79"/><path d="m327.344 249.429c5.166 11.34 16.607 19.243 29.859 19.243 17.501 0 31.843-13.782 32.745-31.062l.046-21.655c-16.304 17.355-38.134 29.46-62.65 33.474z"/><path d="m381.782 175.699c-7.553 3.225-15.861 5.015-24.579 5.015-11.972 0-23.17-3.372-32.7-9.21v47.94c25.204-4.796 46.284-21.357 57.279-43.745z"/><path d="m404.904 158.584v62.298c31.739 0 59.24-18.45 72.37-45.183-7.553 3.226-15.861 5.015-24.579 5.015-19.123 0-36.265-8.603-47.791-22.13z"/><path d="m422.834 249.429c5.166 11.34 16.607 19.243 29.86 19.243 18.081 0 32.791-14.709 32.791-32.79v-19.927c-16.304 17.355-38.134 29.46-62.651 33.474z"/><circle cx="452.694" cy="117.924" r="32.79"/><circle cx="357.203" cy="117.924" r="32.79"/><path d="m294.503 215.955c-16.304 17.355-38.134 29.46-62.65 33.475 5.166 11.34 16.607 19.243 29.86 19.243 18.081 0 32.791-14.709 32.791-32.79v-19.928z"/><path d="m286.291 175.698c-7.553 3.226-15.861 5.015-24.579 5.015-12.01 0-23.24-3.395-32.79-9.268v48.014c25.244-4.773 46.361-21.346 57.369-43.761z"/><path d="m198.922 130h-119.937c-28.932 0-52.469 23.538-52.469 52.469v136.121c0 10.33 8.404 18.734 18.735 18.734 10.33 0 18.734-8.404 18.734-18.734v-135.021h30v328.431h37.468v-193.411h30v193.411h37.469z"/><circle cx="146.183" cy="50" r="50"/></g></svg>