<svg id="Capa_1" enable-background="new 0 0 512.167 512.167" height="512" viewBox="0 0 512.167 512.167" width="512" xmlns="http://www.w3.org/2000/svg"><g id="XMLID_775_"><path id="XMLID_776_" d="m398.083 0h-25.667c-29.959 0-54.333 24.374-54.333 54.333v403c0 29.959 24.374 54.333 54.333 54.333h25.667z"/><path id="XMLID_777_" d="m428.083 0h43v30h-43z"/><path id="XMLID_778_" d="m428.083 60.208h43v30h-43z"/><path id="XMLID_779_" d="m428.083 120.417h43v30h-43z"/><path id="XMLID_780_" d="m428.083 180.625h43v30h-43z"/><path id="XMLID_781_" d="m428.083 240.833h43v30h-43z"/><path id="XMLID_782_" d="m428.083 301.042h43v30h-43z"/><path id="XMLID_783_" d="m428.083 361.25h43v30h-43z"/><path id="XMLID_784_" d="m428.083 421.458h43v30h-43z"/><path id="XMLID_785_" d="m428.083 481.667h43v30h-43z"/><path id="XMLID_788_" d="m41.083 0v30h30.333v31.167h-30.333v30h30.333v31.167h-30.333v30h30.333v31.166h-30.333v30h30.333v31.167h-30.333v29.853h204v-29.853h-30.333v-31.167h30.333v-30h-30.333v-31.167h30.333v-30h-30.333v-31.166h30.333v-30h-30.333v-31.167h30.333v-30zm87 91.5v-30.667h30v30.667zm30 30.5v30.667h-30v-30.667zm0 63v30.667h-30v-30.667z"/><path id="XMLID_797_" d="m100 304.52v45.299c0 29.813-3.277 62.033-10.017 98.5-.751 4.063-1.034 8.237-.84 12.408 1.291 27.771 24.066 50.348 51.851 51.4.708.027 1.414.04 2.119.04 14.043 0 27.262-5.316 37.42-15.096 10.673-10.276 16.55-24.092 16.55-38.904 0-3.327-.307-6.66-.911-9.909-6.733-36.198-10.006-68.418-10.006-98.502v-45.236z"/></g></svg>