<svg id="Capa_1" enable-background="new 0 0 510 510" height="512" viewBox="0 0 510 510" width="512" xmlns="http://www.w3.org/2000/svg"><g id="XMLID_2382_"><path id="XMLID_2384_" d="m210 285-16 75 16 75v75h90v-105l-16-45 16-45v-136h-90z"/><path id="XMLID_2411_" d="m210 0h90v150h-90z"/><path id="XMLID_2412_" d="m350.68 442.5h63.64v30h-63.64z" transform="matrix(.707 -.707 .707 .707 -211.47 404.466)"/><path id="XMLID_2413_" d="m112.5 425.68h30v63.64h-30z" transform="matrix(.707 -.707 .707 .707 -286.158 224.155)"/><path id="XMLID_2414_" d="m345 359h30v30h-30z"/><path id="XMLID_2415_" d="m105 359h30v30h-30z"/><path id="XMLID_2416_" d="m30 404h30v30h-30z"/><path id="XMLID_2417_" d="m450 404h30v30h-30z"/></g></svg>