<svg id="Capa_1" enable-background="new 0 0 512 512" height="512" viewBox="0 0 512 512" width="512" xmlns="http://www.w3.org/2000/svg"><g><path d="m117.417 331c0 58.542 47.458 106 106 106s106-47.458 106-106c0-29.81-12.31-56.741-32.119-76h-147.762c-19.808 19.259-32.119 46.19-32.119 76z"/><path d="m469.583 202.767-77.135-91.925-76.768 64.416c-10.25-6.087-21.042-11.128-32.263-15.067v-130.191h30v-30h-180v30h90v30h-60v30h60v30h-60v40.199c-32.85 11.582-62.214 32.794-83.571 60.571-24.486 31.847-37.429 69.964-37.429 110.23 0 99.804 81.196 181 181 181s181-81.196 181-181c0-22.064-3.891-43.488-11.578-63.837zm-160.104 22.233 8.733 8.491c12.887 12.53 23.021 27.221 30.118 43.664 7.357 17.045 11.088 35.161 11.088 53.845 0 36.327-14.146 70.479-39.833 96.167s-59.841 39.833-96.168 39.833-70.479-14.146-96.167-39.833c-25.687-25.687-39.833-59.84-39.833-96.167 0-18.684 3.73-36.801 11.088-53.845 7.097-16.443 17.231-31.133 30.118-43.664l8.733-8.491z"/></g></svg>