<?xml version="1.0" encoding="iso-8859-1"?>
<!-- Generator: Adobe Illustrator 19.0.0, SVG Export Plug-In . SVG Version: 6.00 Build 0)  -->
<svg xmlns="http://www.w3.org/2000/svg" xmlns:xlink="http://www.w3.org/1999/xlink" version="1.1" id="Layer_1" x="0px" y="0px" viewBox="0 0 512.001 512.001" style="enable-background:new 0 0 512.001 512.001;" xml:space="preserve">
<g>
	<g>
		<path d="M450.531,225.51L332.068,124.698c-19.827-16.873-45.014-26.139-71.049-26.139H150.331    c-14.561,0-28.578-5.532-39.214-15.478L69.161,43.849L6.556,147.873l43.459,41.829c10.602,10.205,19.703,21.861,27.031,34.623    l10.625,18.501c13.252,23.077,37.832,37.307,64.444,37.307h138.757c13.095,0,23.712-10.617,23.712-23.712    s-10.617-23.713-23.712-23.713h-56.206h-27.372c-13.095,0-23.712-10.616-23.712-23.712c0-13.095,10.616-23.712,23.712-23.712    h87.065c18.489,0,36.393,6.478,50.601,18.307l73.637,61.311c10.636,8.855,26.378,7.531,35.392-2.892    C463.285,251.261,461.452,234.603,450.531,225.51z"/>
	</g>
</g>
<g>
	<g>
		<path d="M223.718,343.727C137.406,367.18,60.046,401.648,0,443.404l17.209,24.749c57.248-39.81,131.39-72.777,214.414-95.337    c87.513-23.78,181.845-35.838,280.379-35.838v-30.143C410.798,306.834,313.807,319.247,223.718,343.727z"/>
	</g>
</g>
<g>
</g>
<g>
</g>
<g>
</g>
<g>
</g>
<g>
</g>
<g>
</g>
<g>
</g>
<g>
</g>
<g>
</g>
<g>
</g>
<g>
</g>
<g>
</g>
<g>
</g>
<g>
</g>
<g>
</g>
</svg>
