<svg id="Capa_1" enable-background="new 0 0 512 512" height="512" viewBox="0 0 512 512" width="512" xmlns="http://www.w3.org/2000/svg"><g><path d="m361 0v92h-210v-92h-90v512h390v-512zm-180 467h-60v-30h60zm0-60h-60v-30h60zm-9.858-101.353 22.354-22.354c-5.215-7.866-9.029-16.736-10.977-26.294h-31.519v-30h31.518c1.948-9.558 5.762-18.428 10.977-26.294l-22.354-22.354 21.211-21.211 22.354 22.354c7.866-5.215 16.736-9.029 26.294-10.977v-31.517h30v31.518c9.558 1.948 18.428 5.762 26.294 10.977l22.354-22.354 21.211 21.211-22.354 22.354c5.215 7.866 9.029 16.736 10.977 26.294h31.518v30h-31.518c-1.948 9.558-5.762 18.428-10.977 26.294l22.354 22.354-21.211 21.211-22.354-22.354c-7.866 5.215-16.736 9.029-26.294 10.977v31.518h-30v-31.518c-9.558-1.948-18.428-5.762-26.294-10.977l-22.354 22.354zm219.858 161.353h-180v-30h180zm0-60h-180v-30h180z"/><path d="m256 287c24.814 0 45-20.186 45-45s-20.186-45-45-45-45 20.186-45 45 20.186 45 45 45zm0-66.211 21.211 21.211-21.211 21.211-21.211-21.211z"/><path d="m181 0h150v62h-150z"/></g></svg>