<svg id="Capa_1" enable-background="new 0 0 512 512" height="512" viewBox="0 0 512 512" width="512" xmlns="http://www.w3.org/2000/svg"><g><path d="m286 390c41.353 0 75-33.647 75-75 0-24.814 20.186-45 45-45v-30h-30c-42.627 0-80.24 20.246-105 51.194v-65.786l97.881-98.161c29.772-29.468 29.44-76.787.103-105.791-28.331-28.652-77.798-28.506-105.806-.146l-7.178 7.06-7.017-6.914c-28.33-28.652-77.769-28.521-105.835-.132-30.046 29.708-29.237 77.075-.073 105.879l97.925 98.205v65.786c-24.76-30.948-62.373-51.194-105-51.194h-30v30c24.814 0 45 20.186 45 45 0 41.353 33.647 75 75 75h15v44.308h-75c-33.091 0-60 44.601-60 77.692h300c0-33.091-26.909-77.692-60-77.692h-75v-44.308z"/></g></svg>