<svg id="Capa_1" enable-background="new 0 0 510 510" height="512" viewBox="0 0 510 510" width="512" xmlns="http://www.w3.org/2000/svg"><g id="XMLID_136_"><path id="XMLID_142_" d="m315 249.46v-39.46h-120v39.46c38.864-12.609 81.063-12.632 120 0z"/><path id="XMLID_211_" d="m405 255h30v30h-30z"/><path id="XMLID_215_" d="m465 255h30v30h-30z"/><path id="XMLID_216_" d="m435 225h30v30h-30z"/><path id="XMLID_217_" d="m435 285h30v30h-30z"/><path id="XMLID_218_" d="m15 165h30v30h-30z"/><path id="XMLID_219_" d="m75 165h30v30h-30z"/><path id="XMLID_221_" d="m45 135h30v30h-30z"/><path id="XMLID_223_" d="m45 195h30v30h-30z"/><path id="XMLID_224_" d="m225 0h60v60h-60z"/><path id="XMLID_225_" d="m225 90h60v90h-60z"/><path id="XMLID_226_" d="m60 450h390v60h-390z"/><path id="XMLID_227_" d="m419.317 420c-7.629-84.254-78.665-150-164.317-150-85.635 0-156.687 65.739-164.317 150z"/></g></svg>