<svg id="Capa_1" enable-background="new 0 0 512 512" height="512" viewBox="0 0 512 512" width="512" xmlns="http://www.w3.org/2000/svg"><g><path d="m256 168.672c-43.039 0-78.901 31.297-86.034 72.328h172.068c-7.133-41.03-42.995-72.328-86.034-72.328z"/><path d="m374.926 271h-237.852c6.504 22.273 27.111 38.593 51.457 38.593h134.938c24.346 0 44.953-16.32 51.457-38.593z"/><path d="m256 0c-141.159 0-256 114.841-256 256 0 43.291 11.017 86.082 31.859 123.748l1.875 3.389v128.863h138.672v-54.056c-81.135-33.605-134.937-113.44-134.937-201.944 0-58.372 22.731-113.25 64.006-154.525s96.153-64.006 154.525-64.006 113.25 22.731 154.525 64.006 64.006 96.153 64.006 154.525c0 88.504-53.802 168.339-134.938 201.944v54.056h138.672v-128.863l1.875-3.389c20.843-37.666 31.86-80.457 31.86-123.748 0-141.159-114.841-256-256-256z"/><path d="m202.407 339.593h107.187v37.469h-107.187z"/><path d="m202.407 407.062h107.187v37.469h-107.187z"/><path d="m202.407 474.531h107.187v37.469h-107.187z"/><path d="m104.938 256v-15h34.69c7.388-57.637 56.759-102.328 116.372-102.328s108.985 44.691 116.372 102.328h34.69v15c0 40.577-29.067 74.481-67.469 82.017v87.005c63.552-31.478 104.938-96.917 104.938-169.022 0-103.957-84.575-188.531-188.531-188.531s-188.531 84.574-188.531 188.531c0 72.105 41.387 137.544 104.938 169.023v-87.005c-38.402-7.537-67.469-41.441-67.469-82.018z"/></g></svg>