<svg id="Capa_1" enable-background="new 0 0 512 512" height="512" viewBox="0 0 512 512" width="512" xmlns="http://www.w3.org/2000/svg"><g><path d="m170.06 384.225c87.8 0 159.23-71.42 159.23-159.22 0-87.79-71.43-159.22-159.23-159.22-87.79 0-159.22 71.43-159.22 159.22 0 87.8 71.43 159.22 159.22 159.22zm0-276.09c64.44 0 116.87 52.43 116.87 116.87s-52.43 116.87-116.87 116.87-116.86-52.43-116.86-116.87 52.42-116.87 116.86-116.87z"/><path d="m475.82 193.075c-12.663 7.643-29.694 7.633-42.35-.01v51.75h42.35z"/><path d="m435.74 148.195c3.77 12.68 11.64 20.65 18.91 20.65 12.635-.102 21.439-20.865 21.15-35.65.946-15.734-7.973-37.916-21.15-38.06-13.188.155-22.105 22.315-21.16 38.06.1 5.49.92 10.54 2.25 15z"/><path d="m419.12 446.215h71.05l19.12-95.43h-109.29z"/><path d="m397.29 274.815h114.71v45.97h-114.71z"/><path d="m170.06 311.875c47.9 0 86.87-38.97 86.87-86.87s-38.97-86.87-86.87-86.87c-47.89 0-86.86 38.97-86.86 86.87s38.97 86.87 86.86 86.87z"/><path d="m278.43 445.785h-216.86c-34.004 0-61.57-27.566-61.57-61.57h340c0 34.004-27.566 61.57-61.57 61.57z"/></g></svg>