<svg id="Capa_1" enable-background="new 0 0 512 512" height="512" viewBox="0 0 512 512" width="512" xmlns="http://www.w3.org/2000/svg"><g><path d="m195.941 392h-150v45h-30v75h210v-75h-30z"/><path d="m195.941 0h-105v60c-24.813 0-45 20.187-45 45v14.61h150z"/><path d="m195.941 362v-46.195h120.118v46.195h150v-212.39h-150v59.356h-45.059v-29.356h15.032v-30h-60.064v30h15.032v29.356h-45.059v-59.356h-150v212.39z"/><path d="m466.059 437v-45h-150v45h-30v75h210v-75z"/><path d="m466.059 105c0-24.813-20.187-45-45-45v-60h-105v119.61h150z"/></g></svg>