<svg id="Capa_1" enable-background="new 0 0 512 512" height="512" viewBox="0 0 512 512" width="512" xmlns="http://www.w3.org/2000/svg"><g><path d="m275.41 512h90.189l31.142-113.041h-90.188z"/><path d="m289.068 329.859h133.431v40.1h-133.431z"/><path d="m121.943 70.503v-44.907h-29.969v348.51h29.969v-44.78c11.922-8.554 24.923-15.284 38.658-20.047v-218.553c-13.743-4.816-26.743-11.606-38.658-20.223z"/><path d="m239.81 99.304h-28.489c-7.002 0-13.929-.479-20.752-1.398v204.289c6.673-.879 13.446-1.336 20.29-1.336h28.983v-198.996c-.019-.851-.028-1.704-.032-2.559z"/><path d="m33.793 140.373c-14.972 16.333-23.218 37.538-23.218 59.709s8.246 43.376 23.218 59.709c8.036 8.766 17.642 15.71 28.212 20.578v-160.575c-10.57 4.869-20.176 11.813-28.212 20.579z"/><path d="m501.425 183.868h-38.474c-23.425 26.228-57.478 42.77-95.328 42.77-39.21 0-74.346-17.752-97.811-45.635v119.856h152.69l40.365-40.364v-46.659h38.559v-29.968z"/></g><g><path d="m367.623 0c-54.489 0-98.819 44.33-98.819 98.819s44.33 98.819 98.819 98.819 98.819-44.33 98.819-98.819-44.33-98.819-98.819-98.819zm-.257 155.337c-7.347 0-13.302-5.956-13.302-13.302 0-7.347 5.956-13.302 13.302-13.302s13.302 5.956 13.302 13.302c.001 7.346-5.955 13.302-13.302 13.302zm8.944-46.099h-18.328l-4.582-67.547h27.492z"/></g></svg>