<svg id="Capa_1" enable-background="new 0 0 512 512" height="512" viewBox="0 0 512 512" width="512" xmlns="http://www.w3.org/2000/svg"><g><path d="m154.797 256.743h202.406c19.631 0 35.602-15.971 35.602-35.602v-185.539c0-19.631-15.971-35.602-35.602-35.602h-202.406c-19.631 0-35.602 15.971-35.602 35.602v185.54c0 19.63 15.971 35.601 35.602 35.601zm1.867-219.274h198.672v181.805h-198.672z"/><path d="m186.664 67.469h138.672v121.805h-138.672z"/><path d="m342.203 512v-198.337c0-9.438 1.997-18.564 5.76-26.92h-183.926c3.763 8.355 5.76 17.482 5.76 26.92v198.337zm-86.203-187.789c26.872 0 48.734 21.862 48.734 48.735 0 26.872-21.862 48.734-48.734 48.734s-48.734-21.862-48.734-48.734 21.862-48.735 48.734-48.735z"/><path d="m256 391.681c10.33 0 18.734-8.404 18.734-18.734 0-10.331-8.404-18.735-18.734-18.735s-18.734 8.404-18.734 18.735c0 10.329 8.404 18.734 18.734 18.734z"/></g></svg>