<svg id="Capa_1" enable-background="new 0 0 512 512" height="512" viewBox="0 0 512 512" width="512" xmlns="http://www.w3.org/2000/svg"><g><path d="m452 391c0 24.813-20.187 45-45 45h-17v30h17c41.355 0 75-33.645 75-75 0-16.542 13.458-30 30-30v-30c-33.084 0-60 26.916-60 60z"/><path d="m210 211h210v60h-210z"/><path d="m330 301v90c0 24.813 20.187 45 45 45h15v-135z"/><path d="m300 391v-90h-120v-120h210v-136c0-24.813-20.187-45-45-45h-300c-24.813 0-45 20.187-45 45v422c0 24.813 20.187 45 45 45h300c24.813 0 45-20.187 45-45v-1h-15c-41.355 0-75-33.645-75-75zm15-336.213 21.213 21.213-21.213 21.213-21.213-21.213zm-60 60 21.213 21.213-21.213 21.213-21.213-21.213zm-60-60 21.213 21.213-21.213 21.213-21.213-21.213zm-120 402.426-21.213-21.213 21.213-21.213 21.213 21.213zm0-120-21.213-21.213 21.213-21.213 21.213 21.213zm0-120-21.213-21.213 21.213-21.213 21.213 21.213zm0-120-21.213-21.213 21.213-21.213 21.213 21.213zm60 300-21.213-21.213 21.213-21.213 21.213 21.213zm0-120-21.213-21.213 21.213-21.213 21.213 21.213zm0-120-21.213-21.213 21.213-21.213 21.213 21.213zm60 300-21.213-21.213 21.213-21.213 21.213 21.213zm60-60-21.213-21.213 21.213-21.213 21.213 21.213z"/></g></svg>