<svg id="Capa_1" enable-background="new 0 0 512 512" height="512" viewBox="0 0 512 512" width="512" xmlns="http://www.w3.org/2000/svg"><g><path d="m30.471 111.705h76.088v74.209h-76.088z"/><path d="m405.441 111.705h75.294v74.209h-75.294z"/><path d="m186 418.152h140v93.848h-140z"/><path d="m0 418.152h156v93.848h-156z"/><path d="m356 418.152h156v93.848h-156z"/><path d="m277.618 68.752h68.611l-68.583-68.341z"/><path d="m376.044 185.914v-87.103h-128.426l.032-98.811h-112.488v185.914z"/><path d="m0 214.971v174.124h512v-174.124zm332.221 72.033v30.059h-30v-30.059zm30 0h30v30.059h-30zm-301.956 0h100.735v30.059h-100.735zm361.956 0h30v30.059h-30z"/></g></svg>