<svg id="Capa_1" enable-background="new 0 0 512 512" height="512" viewBox="0 0 512 512" width="512" xmlns="http://www.w3.org/2000/svg"><g><path d="m92.535 158.662c-.645-4.486-1.102-8.977-1.376-13.462l-42.159 28.106v165.389l42.158 28.105c.274-4.485.731-8.975 1.377-13.461 9.291-64.59 9.291-130.089 0-194.677z"/><path d="m463 173.306-42.159-28.106c-.274 4.485-.731 8.975-1.377 13.461-9.291 64.589-9.291 130.088 0 194.677.645 4.486 1.102 8.977 1.376 13.462l42.16-28.106z"/><path d="m389.771 154.39c5.585-38.826-5.944-78.096-31.63-107.742-25.687-29.646-62.916-46.648-102.142-46.648-39.225 0-76.454 17.002-102.14 46.648s-37.215 68.916-31.63 107.742c9.699 67.424 9.698 135.797 0 203.22-5.585 38.826 5.944 78.096 31.63 107.742 25.687 29.646 62.916 46.648 102.141 46.648s76.454-17.002 102.14-46.647c25.686-29.646 37.215-68.917 31.63-107.743-9.698-67.424-9.698-135.796.001-203.22zm-73.199 274.948c-8.953 10.331-28.726 27.662-60.572 27.662-31.848 0-51.621-17.332-60.573-27.664s-23.292-32.371-18.758-63.895c10.446-72.62 10.446-146.262.001-218.882-4.535-31.524 9.806-53.563 18.758-63.895 8.951-10.332 28.724-27.664 60.572-27.664s51.621 17.332 60.572 27.663c8.952 10.332 23.294 32.371 18.759 63.896-10.446 72.62-10.446 146.263.001 218.883 4.533 31.522-9.807 53.562-18.76 63.896z"/><path d="m305.637 369.712c-10.854-75.454-10.854-151.971 0-227.425 2.837-19.724-6.135-33.514-11.737-39.979-5.602-6.463-17.973-17.308-37.9-17.308s-32.298 10.845-37.899 17.309-14.574 20.254-11.736 39.979c10.854 75.454 10.854 151.971 0 227.425-2.837 19.724 6.136 33.514 11.737 39.978 5.599 6.464 17.971 17.309 37.898 17.309s32.298-10.845 37.899-17.309c5.602-6.464 14.575-20.255 11.738-39.979z"/></g></svg>