<?xml version="1.0" encoding="iso-8859-1"?>
<!-- Generator: Adobe Illustrator 19.0.0, SVG Export Plug-In . SVG Version: 6.00 Build 0)  -->
<svg version="1.1" id="Layer_1" xmlns="http://www.w3.org/2000/svg" xmlns:xlink="http://www.w3.org/1999/xlink" x="0px" y="0px"
	 viewBox="0 0 512.001 512.001" style="enable-background:new 0 0 512.001 512.001;" xml:space="preserve">
<g>
	<g>
		<polygon points="436.213,225.372 418.629,95.256 374.316,95.256 279.523,190.049 257.324,167.851 329.919,95.256 93.373,95.256 
			75.788,225.372 102.484,225.372 195.207,132.649 217.405,154.848 146.88,225.372 		"/>
	</g>
</g>
<g>
	<g>
		<polygon points="405.756,0 106.244,0 97.614,63.862 414.386,63.862 		"/>
	</g>
</g>
<g>
	<g>
		<path d="M451.9,341.451l-11.445-84.686H71.546l-11.445,84.686c-2.629,19.453,3.273,39.089,16.192,53.87
			c12.545,14.354,30.515,22.738,49.521,23.212l-45.647,77.543l13.527,7.962l13.527,7.963l17.669-30.015H387.11l17.67,30.015
			l13.527-7.963l13.527-7.962l-45.648-77.543c19.007-0.474,36.976-8.858,49.522-23.212
			C448.627,380.539,454.528,360.905,451.9,341.451z M305.695,312.337h62.119v31.393h-62.119V312.337z M144.186,312.337h62.119
			v31.393h-62.119V312.337z M143.372,450.592l18.845-32.014h187.567l18.845,32.014H143.372z"/>
	</g>
</g>
<g>
</g>
<g>
</g>
<g>
</g>
<g>
</g>
<g>
</g>
<g>
</g>
<g>
</g>
<g>
</g>
<g>
</g>
<g>
</g>
<g>
</g>
<g>
</g>
<g>
</g>
<g>
</g>
<g>
</g>
</svg>
