<svg id="Capa_1" enable-background="new 0 0 509.399 509.399" height="512" viewBox="0 0 509.399 509.399" width="512" xmlns="http://www.w3.org/2000/svg"><g id="XMLID_148_"><path id="XMLID_245_" d="m73.012 163.169h73.012v-26.337c0-39.762-32.233-71.995-71.995-71.995h-2.035c-39.761 0-71.994 32.233-71.994 71.995v317.403h146.024v-261.066h-73.012zm15 62.222v35.598h-30v-35.598z"/><path id="XMLID_246_" d="m391.106 159.024v38.29h8.974c10.557 0 19.145-8.588 19.145-19.145s-8.588-19.145-19.145-19.145z"/><path id="XMLID_276_" d="m470.25 87.392c-24.879-22.954-58.502-34.558-92.241-31.837l-152.863 12.328v61.796c22.277 4.613 39.073 24.386 39.073 48.01v.961c0 23.624-16.796 43.397-39.073 48.01v59.01l152.864 12.328c3.237.261 6.471.39 9.699.39 30.412 0 60.051-11.476 82.543-32.228 24.879-22.954 39.148-55.533 39.148-89.383s-14.27-66.431-39.15-89.385zm-21.024 90.777c0 27.099-22.046 49.145-49.145 49.145h-38.974v-98.29h38.974c27.098 0 49.145 22.046 49.145 49.145zm-154.528-49.145h30v98.29h-30z"/><path id="XMLID_346_" d="m234.218 178.65v-.961c0-10.492-8.536-19.027-19.027-19.027h-38.515v39.016h38.515c10.492-.001 19.027-8.536 19.027-19.028z"/></g></svg>