<svg id="Capa_1" enable-background="new 0 0 512 512" height="512" viewBox="0 0 512 512" width="512" xmlns="http://www.w3.org/2000/svg"><g><path d="m489.163 22.837c-30.449-30.449-79.817-30.449-110.267 0l-6.966 6.966 110.267 110.267 6.966-6.966c30.449-30.449 30.449-79.818 0-110.267z"/><path d="m373.591 41.541h37.794v155.941h-37.794z" transform="matrix(.707 -.707 .707 .707 30.45 312.535)"/><path d="m314.961 276.439 45.719 45.719 55.81-109.493-29.817-29.818z"/><path d="m232.939 236.843-146.373 112.153c-4.329 20.614 1.493 42.934 17.499 58.939s38.325 21.828 58.94 17.499l112.154-146.373z"/><path d="m365.274 161.449-14.723-14.723-93.592 71.712 36.604 36.603z"/><path d="m329.153 125.328-29.818-29.819-109.493 55.811 45.719 45.72z"/><path d="m174.726 459.462c1.099 13.031 6.623 25.758 16.593 35.729 22.413 22.413 58.751 22.413 81.163 0l73.874-144.931-49.8-49.8z"/><path d="m161.74 165.644-144.93 73.874c-22.413 22.413-22.413 58.751 0 81.163 9.971 9.971 22.698 15.494 35.729 16.593l159.002-121.83z"/></g></svg>