<svg id="Capa_1" enable-background="new 0 0 509.12 509.12" height="512" viewBox="0 0 509.12 509.12" width="512" xmlns="http://www.w3.org/2000/svg"><g><path d="m204.1 145.725c6.06-6.04 12.48-12.45 19.69-17.67v-.01c19.032-14.534 42.52-14.525 61.54 0v.01c13.196 9.156 25.19 25.526 37.75 33.34-5.782-52.073-32.432-105.125-68.52-148.93-36.095 43.818-62.732 96.844-68.52 148.93 5.49-3.17 11.39-9.02 17.64-15.26.14-.13.28-.27.42-.41z"/><path d="m116.53 289.905c2.546-12.49-.54-23.022-3.66-35.54-10.389-35.901-8.182-64.749 31.14-78.95-46.003-5.842-97.546 3.897-144.01 22 28.987 45.301 68.436 85.528 113.09 107.57 1.34-5.25 2.61-10.33 3.44-15.08z"/><path d="m204.1 414.515c-5.749-5.748-12.542-12.528-18.08-15.68-21.528-11.084-54.823-11.119-70.39-33.62-15.954 39.073-20.843 86.423-18.39 131.44 46.951-12.375 93.278-33.886 126.68-64.38-7.18-5.165-13.62-11.568-19.82-17.76z"/><path d="m381.81 376.515c-16.615 11.836-41.922 13.412-58.71 22.32-12.922 8.121-24.656 24.316-37.9 33.44 33.388 30.487 79.742 52.011 126.68 64.38 2.451-45.032-2.434-92.353-18.39-131.44-3.27 4.58-7.25 8.26-11.68 11.3z"/><path d="m490.51 190.905c-42.45-14.84-85.02-20.02-125.4-15.49 39.361 14.232 41.512 43.06 31.139 78.95-5.885 22.207-6.168 28.435-.219 50.62 44.643-22.032 84.113-62.279 113.09-107.57z"/><path d="m308.07 372.865c9.35-5.41 20.17-8.4 30.64-11.3 10.387-3.12 23.987-5.81 30.42-13.87 4.787-6.893 1.96-18.178-.99-30.59.04-.01.08-.02.12-.04-.06-.1-.13-.2-.2-.3-2.435-9.666-5.112-19.429-6.08-29.39-1.518-13.638 1.836-27.323 5.19-40.39 3.3-12.97 6.7-26.38 2.64-33.4-1.72-2.97-4.89-5.36-8.92-7.38-15.172-7.27-35.636-9.367-50.95-17.8v-.17c-.06.02-.12.04-.19.07-9.863-5.255-18.03-13.496-25.92-21.35-10.25-10.23-19.93-19.89-29.27-19.89s-19.02 9.66-29.27 19.89c-7.89 7.854-16.057 16.095-25.92 21.35-.07-.03-.13-.05-.19-.07v.17c-15.305 8.429-35.785 10.53-50.95 17.8-4.03 2.02-7.2 4.41-8.92 7.38-4.06 7.02-.66 20.43 2.64 33.4 3.354 13.067 6.708 26.752 5.19 40.39-.968 9.961-3.645 19.724-6.08 29.39-.07.1-.14.2-.2.3.04.02.08.03.12.04-2.945 12.419-5.779 23.694-.99 30.59 6.471 8.077 20.003 10.736 30.42 13.87 23.409 6.055 35.51 11.665 52.48 29.33 8.635 8.091 19.748 21.866 31.67 22.28 11.287-.45 21.086-12.165 29.27-19.89 7.482-7.471 15.231-15.209 24.24-20.42zm-53.51-33.77c-32.52 0-58.97-26.46-58.97-58.97 3.234-78.233 114.718-78.21 117.94 0 0 32.51-26.45 58.97-58.97 58.97z"/><path d="m254.56 251.155c-15.97 0-28.97 12.99-28.97 28.97 1.597 38.432 56.349 38.42 57.94 0 0-15.98-13-28.97-28.97-28.97z"/></g></svg>