<svg id="Capa_1" enable-background="new 0 0 512 512" height="512" viewBox="0 0 512 512" width="512" xmlns="http://www.w3.org/2000/svg"><g id="XMLID_330_"><path id="XMLID_362_" d="m218.02 232.038h153.102c-1.915-13.951-8.007-26.564-16.969-36.554h-67.744v-30h65.467c3.029-5.241 4.766-11.323 4.766-17.812 0-19.693-15.964-35.657-35.657-35.657h-34.423c-69.874 0-86.442-81.039-86.442-81.039-50.406 25.486-42.925 65.215-37.423 81.039h-19.999c-19.693 0-35.657 15.964-35.657 35.657 0 6.489 1.737 12.571 4.766 17.812h110.85v30h-113.125c-8.774 9.78-14.793 22.075-16.839 35.677l61.159 62.591c1.32-34.252 29.598-61.714 64.168-61.714z"/><path id="XMLID_417_" d="m218.02 262.038c-18.897 0-34.216 15.319-34.216 34.216 0 18.897 15.319 34.217 34.216 34.217h-70.234l-94.828-97.048c-10.346-10.588-26.75-12.342-39.101-4.182-15.011 9.918-18.396 30.519-7.347 44.719l79.168 101.743c20.945 29.294 54.316 47.577 90.319 48.38.972.022 182.13.033 182.13.033l153.873 56.908v-139.748l-128.074-79.238z"/></g></svg>