<svg id="Capa_1" enable-background="new 0 0 512 512" height="512" viewBox="0 0 512 512" width="512" xmlns="http://www.w3.org/2000/svg"><g><path d="m512 331.632v-30h-68.52c-3.17-28.1-12.54-54.35-26.7-77.35 16.52-8.7 48.37-25.49 65.22-34.38l-14-26.54c-17.66 9.31-51.88 27.36-69.14 36.45-32.34-37.42-77.96-61.02-127.86-64.96v264.49c9.48 9.48 76.52 76.5 84.11 84.1 19.66-12.18 36.93-27.87 50.93-46.2 16.23 8.55 45.44 23.95 61.96 32.66l14-26.54c-16.21-8.55-43.71-23.03-59.65-31.44 12.96-24.12 20.82-51.36 22.13-80.29zm-203.11-121h30v30h-30zm47.11 167c-24.81 0-45-20.19-45-45s20.19-45 45-45 45 20.19 45 45-20.19 45-45 45zm0-60c-8.27 0-15 6.73-15 15s6.73 15 15 15 15-6.73 15-15-6.73-15-15-15z"/><path d="m185.01 497.762c43.336 18.355 98.644 18.355 141.98 0l-70.99-71z"/><path d="m156 317.632c-8.27 0-15 6.73-15 15s6.73 15 15 15 15-6.73 15-15-6.73-15-15-15zm0 0c-8.27 0-15 6.73-15 15s6.73 15 15 15 15-6.73 15-15-6.73-15-15-15zm-42.86-117.82c-17.1-9.01-51.65-27.23-69.14-36.45l-14 26.54c17.01 8.97 48.57 25.6 65.22 34.39-14.16 22.99-23.53 49.24-26.7 77.34h-68.52v30h67.52c1.31 28.93 9.17 56.17 22.13 80.29-15.84 8.36-43.55 22.95-59.65 31.44l14 26.54c16.64-8.77 45.62-24.05 61.96-32.66 14 18.33 31.27 34.02 50.93 46.2 7.25-7.26 75.01-75 84.11-84.1 0 0 0-234.35 0-264.49-49.89 3.94-95.52 27.54-127.86 64.96zm42.86 177.82c-24.81 0-45-20.19-45-45s20.19-45 45-45 45 20.19 45 45-20.19 45-45 45zm47.11-137h-30v-30h30zm-47.11 77c-8.27 0-15 6.73-15 15s6.73 15 15 15 15-6.73 15-15-6.73-15-15-15z"/><path d="m172.12 51.962 10.73 10.74c-12.487 16.716-19.253 39.006-17.35 61.04 55.636-25.872 125.364-25.872 181 0 1.902-22.038-4.862-44.32-17.35-61.04 11.622-11.637 29.271-29.279 41.01-41.02l-21.21-21.21c-11.861 11.854-29.579 29.561-41.31 41.31-29.179-21.324-74.103-21.322-103.28 0-11.688-11.706-29.496-29.503-41.31-41.31l-21.21 21.21c6.894 6.894 23.585 23.585 30.28 30.28z"/><circle cx="156" cy="332.632" r="15"/><circle cx="356" cy="332.632" r="15"/></g></svg>