<svg id="Capa_1" enable-background="new 0 0 510 510" height="512" viewBox="0 0 510 510" width="512" xmlns="http://www.w3.org/2000/svg"><g><path d="m440.082 105h-30v-105h-30v105h-30v30h90z"/><path d="m470.082 420v-116.252c-26.905 17.854-45.073 26.252-75 26.252-38.826 0-55.262-14.901-75-26.654v56.654h60v30h-60v30h-30v30h90v30h-30v30h90v-30h-30v-30h90v-30z"/><path d="m395.082 300c31.115 0 46.227-13.261 75-32.533v-102.467h-150v30h60v30h-60v40.95c17.898 12.49 38.876 34.05 75 34.05z"/><path d="m264.477 201.967 21.213-21.213-63.641-63.64-21.213 21.213 21.214 21.213-22.114 22.114c-11.28-8.026-24.004-13.136-37.133-15.338v-31.316h-30v31.316c-13.128 2.202-25.852 7.312-37.132 15.338l-22.114-22.114 21.213-21.213-21.213-21.213-63.639 63.64 21.213 21.213 21.213-21.214 22.106 22.106c-7.907 11.076-13.144 23.718-15.385 37.141h-31.262v30h31.263c2.24 13.423 7.478 26.065 15.385 37.141l-22.106 22.105-21.213-21.213-21.214 21.213 63.639 63.64 21.213-21.213-21.213-21.214 22.114-22.113c11.28 8.027 24.003 13.137 37.132 15.338v31.316h30v-31.316c13.128-2.203 25.853-7.313 37.133-15.339l22.114 22.114-21.214 21.214 21.213 21.213 63.641-63.64-21.213-21.213-21.214 21.213-22.114-22.113c8.026-11.281 13.137-24.005 15.338-37.133h31.316v-30h-31.316c-2.202-13.128-7.312-25.852-15.338-37.133l22.114-22.114zm-116.674 74.246-21.213-21.213 21.213-21.213 21.213 21.213z"/></g></svg>