<?xml version="1.0" encoding="iso-8859-1"?>
<!-- Generator: Adobe Illustrator 19.0.0, SVG Export Plug-In . SVG Version: 6.00 Build 0)  -->
<svg xmlns="http://www.w3.org/2000/svg" xmlns:xlink="http://www.w3.org/1999/xlink" version="1.1" id="Layer_1" x="0px" y="0px" viewBox="0 0 512 512" style="enable-background:new 0 0 512 512;" xml:space="preserve">
<g>
	<g>
		<path d="M423.677,0H249.202v55.542h-73.31h-15.013V512h15.013h121.467v-86.365h78.16V512h136.48V55.542h-88.322V0z     M441.584,100.567h30.001v41.352h-30.001V100.567z M441.584,165.577h30.001v41.352h-30.001V165.577z M441.584,230.589h30.001    v41.351h-30.001V230.589z M441.584,295.6h30.001v41.352h-30.001V295.6z M441.584,360.61h30.001v41.352h-30.001V360.61z     M441.584,425.622h30.001v41.351h-30.001V425.622z M231.295,466.973h-30.001v-41.351h30.001V466.973z M231.295,401.962h-30.001    V360.61h30.001V401.962z M231.295,336.952h-30.001V295.6h30.001V336.952z M231.295,271.94h-30.001v-41.351h30.001V271.94z     M231.295,206.929h-30.001v-41.352h30.001V206.929z M231.295,141.918h-30.001v-41.352h30.001V141.918z M278.955,466.973h-30.001    v-41.351h30.001V466.973z M278.955,401.962h-30.001V360.61h30.001V401.962z M278.955,336.952h-30.001V295.6h30.001V336.952z     M278.955,271.94h-30.001v-41.351h30.001V271.94z M278.955,206.929h-30.001v-41.352h30.001V206.929z M327.113,401.962h-30.001    V360.61h30.001V401.962z M327.113,336.952h-30.001V295.6h30.001V336.952z M327.113,271.94h-30.001v-41.351h30.001V271.94z     M327.113,206.929h-30.001v-41.352h30.001V206.929z M375.271,401.962H345.27V360.61h30.001V401.962z M375.271,336.952H345.27    V295.6h30.001V336.952z M375.271,271.94H345.27v-41.351h30.001V271.94z M375.271,206.929H345.27v-41.352h30.001V206.929z     M379.394,120.107h-30.001V91.383h-25.906v28.725h-30.001V32.656h30.001v28.725h25.906V32.656h30.001V120.107z M423.428,466.973    h-30.001v-41.351h30.001V466.973z M423.428,401.962h-30.001V360.61h30.001V401.962z M423.428,336.952h-30.001V295.6h30.001    V336.952z M423.428,271.94h-30.001v-41.351h30.001V271.94z M423.428,206.929h-30.001v-41.352h30.001V206.929z"/>
	</g>
</g>
<g>
	<g>
		<path d="M0.001,55.542V512h130.877V55.542H0.001z M56.611,466.974H26.609v-41.351h30.001V466.974z M56.611,401.963H26.609v-41.352    h30.001V401.963z M56.611,336.952H26.609V295.6h30.001V336.952z M56.611,271.94H26.609v-41.351h30.001V271.94z M56.611,206.929    H26.609v-41.352h30.001V206.929z M56.611,141.919H26.609v-41.352h30.001V141.919z M104.271,466.974H74.269v-41.351h30.001V466.974    z M104.271,401.963H74.269v-41.352h30.001V401.963z M104.271,336.952H74.269V295.6h30.001V336.952z M104.271,271.94H74.269    v-41.351h30.001V271.94z M104.271,206.929H74.269v-41.352h30.001V206.929z M104.271,141.919H74.269v-41.352h30.001V141.919z"/>
	</g>
</g>
<g>
</g>
<g>
</g>
<g>
</g>
<g>
</g>
<g>
</g>
<g>
</g>
<g>
</g>
<g>
</g>
<g>
</g>
<g>
</g>
<g>
</g>
<g>
</g>
<g>
</g>
<g>
</g>
<g>
</g>
</svg>
