<?xml version="1.0" encoding="iso-8859-1"?>
<!-- Generator: Adobe Illustrator 19.0.0, SVG Export Plug-In . SVG Version: 6.00 Build 0)  -->
<svg xmlns="http://www.w3.org/2000/svg" xmlns:xlink="http://www.w3.org/1999/xlink" version="1.1" id="Layer_1" x="0px" y="0px" viewBox="0 0 512 512" style="enable-background:new 0 0 512 512;" xml:space="preserve">
<g>
	<g>
		<rect x="158.532" y="207.59" width="44.084" height="52.19"/>
	</g>
</g>
<g>
	<g>
		<rect x="233.963" y="374.659" width="44.084" height="52.191"/>
	</g>
</g>
<g>
	<g>
		<rect x="158.532" y="291.119" width="44.084" height="52.191"/>
	</g>
</g>
<g>
	<g>
		<rect x="233.963" y="291.119" width="44.084" height="52.191"/>
	</g>
</g>
<g>
	<g>
		<rect x="233.963" y="207.59" width="44.084" height="52.19"/>
	</g>
</g>
<g>
	<g>
		<rect x="158.532" y="374.659" width="44.084" height="52.191"/>
	</g>
</g>
<g>
	<g>
		<polygon points="309.387,291.123 309.387,343.315 309.387,374.662 309.387,426.852 353.465,426.852 353.465,291.123   "/>
	</g>
</g>
<g>
	<g>
		<rect x="158.532" y="85.159" width="194.936" height="36.046"/>
	</g>
</g>
<g>
	<g>
		<path d="M403.152,0H108.848C89.741,0,74.196,15.545,74.196,34.652v442.696c0,19.107,15.545,34.652,34.652,34.652h294.304    c19.107,0,34.652-15.545,34.652-34.652V34.652C437.804,15.545,422.259,0,403.152,0z M384.812,259.776v31.347v167.075h-75.426    h-31.347h-44.08h-31.347h-75.425v-83.537v-31.347v-52.191v-31.347V176.24h75.425h31.347h44.08h31.347h75.426V259.776z     M384.813,152.552h-0.001H127.188v-98.74h257.625V152.552z"/>
	</g>
</g>
<g>
	<g>
		<rect x="309.384" y="207.59" width="44.084" height="52.19"/>
	</g>
</g>
<g>
</g>
<g>
</g>
<g>
</g>
<g>
</g>
<g>
</g>
<g>
</g>
<g>
</g>
<g>
</g>
<g>
</g>
<g>
</g>
<g>
</g>
<g>
</g>
<g>
</g>
<g>
</g>
<g>
</g>
</svg>
