<svg id="Capa_1" enable-background="new 0 0 512 512" height="512" viewBox="0 0 512 512" width="512" xmlns="http://www.w3.org/2000/svg"><g><path d="m103.296 242.632c-7.371 0-13.368 5.997-13.368 13.368s5.997 13.368 13.368 13.368 13.368-5.997 13.368-13.368-5.997-13.368-13.368-13.368z"/><path d="m437.02 74.98c-48.353-48.351-112.64-74.98-181.02-74.98s-132.667 26.629-181.02 74.98c-48.351 48.353-74.98 112.64-74.98 181.02s26.629 132.667 74.98 181.02c48.353 48.351 112.64 74.98 181.02 74.98s132.667-26.629 181.02-74.98c48.351-48.353 74.98-112.64 74.98-181.02s-26.629-132.667-74.98-181.02zm-28.316 224.388c-18.643 0-34.573-11.825-40.691-28.368h-37.568c-1.97 9.793-5.833 18.906-11.185 26.95l41.66 41.66 16.076-16.076 21.213 21.213-53.365 53.364-21.213-21.213 16.076-16.076-41.639-41.639c-8.072 5.392-17.228 9.281-27.069 11.261v37.568c16.543 6.118 28.368 22.048 28.368 40.691 0 23.913-19.455 43.368-43.368 43.368s-43.368-19.455-43.368-43.368c0-18.643 11.825-34.573 28.368-40.691v-37.568c-9.841-1.98-18.997-5.869-27.069-11.261l-41.639 41.639 16.076 16.076-21.213 21.213-53.365-53.364 21.213-21.213 16.076 16.076 41.66-41.66c-5.352-8.044-9.215-17.157-11.185-26.95h-37.568c-6.118 16.543-22.048 28.368-40.691 28.368-23.913 0-43.368-19.455-43.368-43.368s19.455-43.368 43.368-43.368c18.643 0 34.573 11.825 40.691 28.368h37.568c1.975-9.817 5.851-18.951 11.223-27.009l-41.698-41.698-16.076 16.076-21.213-21.213 53.365-53.365 21.213 21.213-16.076 16.076 41.698 41.698c8.058-5.372 17.192-9.248 27.009-11.223v-37.568c-16.543-6.118-28.368-22.048-28.368-40.691 0-23.913 19.455-43.368 43.368-43.368s43.368 19.455 43.368 43.368c0 18.643-11.825 34.573-28.368 40.691v37.568c9.817 1.975 18.951 5.851 27.009 11.223l41.698-41.698-16.076-16.076 21.213-21.213 53.365 53.365-21.213 21.213-16.076-16.076-41.698 41.698c5.372 8.058 9.248 17.192 11.223 27.009h37.568c6.118-16.543 22.048-28.368 40.691-28.368 23.913 0 43.368 19.455 43.368 43.368s-19.453 43.368-43.366 43.368z"/><path d="m408.704 242.632c-7.371 0-13.368 5.997-13.368 13.368s5.997 13.368 13.368 13.368 13.368-5.997 13.368-13.368-5.997-13.368-13.368-13.368z"/><path d="m256 116.664c7.371 0 13.368-5.997 13.368-13.368s-5.997-13.368-13.368-13.368-13.368 5.997-13.368 13.368 5.997 13.368 13.368 13.368z"/><path d="m256 395.336c-7.371 0-13.368 5.997-13.368 13.368s5.997 13.368 13.368 13.368 13.368-5.997 13.368-13.368-5.997-13.368-13.368-13.368z"/><circle cx="256" cy="256" r="45.94"/></g></svg>