<?xml version="1.0" encoding="iso-8859-1"?>
<!-- Generator: Adobe Illustrator 19.0.0, SVG Export Plug-In . SVG Version: 6.00 Build 0)  -->
<svg xmlns="http://www.w3.org/2000/svg" xmlns:xlink="http://www.w3.org/1999/xlink" version="1.1" id="Layer_1" x="0px" y="0px" viewBox="0 0 512 512" style="enable-background:new 0 0 512 512;" xml:space="preserve">
<g>
	<g>
		<path d="M264.924,12.802c0,0-4.351,0.954-9.258,3.957c-4.907-3.003-8.883-3.706-8.883-3.706l-9.509,28.275    c13.887,4.504,18.391,9.008,18.391,9.008s4.879-4.754,18.767-9.258L264.924,12.802z"/>
	</g>
</g>
<g>
	<g>
		<path d="M446.322,115.485c-12.014-34.875-36.598-60.551-67.451-70.444c-56.739-18.196-103.673,4.199-122.906,15.976    c-19.233-11.779-66.165-34.175-122.908-15.976C102.19,54.939,77.6,80.63,65.591,115.528    c-15.707,45.642-7.815,98.263,21.112,140.762c18.819,27.647,31.105,58.838,35.532,90.201c0.257,1.82,0.508,3.681,0.754,5.583    c9.844,76.365,29.64,116.565,58.84,119.485c0.964,0.096,1.917,0.145,2.862,0.145c16.084-0.002,29.357-13.977,39.481-41.599    c7.258-19.8,12.975-46.294,16.099-74.603c2.134-19.334,7.317-30.057,11.289-35.647c1.401-1.975,3.362-2.269,4.404-2.269    c1.043,0,3.003,0.294,4.404,2.267c3.973,5.593,9.155,16.317,11.289,35.649c3.124,28.308,8.841,54.803,16.098,74.603    c10.125,27.625,23.396,41.599,39.481,41.599c0.942-0.001,1.898-0.05,2.861-0.145c29.2-2.92,48.997-43.12,58.841-119.489    c0.236-1.831,0.478-3.625,0.726-5.381c4.421-31.419,16.739-62.71,35.622-90.491C454.171,213.702,462.035,161.099,446.322,115.485z    "/>
	</g>
</g>
<g>
	<g>
		<path d="M46.977,145.11l-29.83-3.433c-0.831,7.215-1.251,14.55-1.25,21.801c0,4.291,0.148,8.636,0.439,12.912l29.958-2.043    c-0.246-3.598-0.371-7.256-0.371-10.869C45.923,157.37,46.277,151.191,46.977,145.11z"/>
	</g>
</g>
<g>
	<g>
		<path d="M37.747,75.438c-5.46,10.086-9.995,20.929-13.479,32.225l28.693,8.85c2.906-9.415,6.671-18.427,11.193-26.783    L37.747,75.438z"/>
	</g>
</g>
<g>
	<g>
		<path d="M50.966,203.161l-29.062,7.55c2.919,11.235,6.919,22.244,11.891,32.718l27.127-12.875    C56.759,221.786,53.409,212.57,50.966,203.161z"/>
	</g>
</g>
<g>
	<g>
		<path d="M120.221,383.455l-0.099-0.771l-29.777,3.87l0.093,0.719c1.486,11.533,3.413,22.397,5.726,32.288l29.238-6.836    C123.321,403.82,121.576,393.965,120.221,383.455z"/>
	</g>
</g>
<g>
	<g>
		<path d="M76.201,256.44l-25.254,16.245c5.255,8.167,10.143,17.017,14.533,26.306l27.148-12.829    C87.685,275.699,82.158,265.699,76.201,256.44z"/>
	</g>
</g>
<g>
	<g>
		<path d="M105.248,317.433l-28.428,9.665c3.226,9.489,6.007,19.348,8.267,29.304l29.282-6.647    C111.878,338.784,108.81,327.909,105.248,317.433z"/>
	</g>
</g>
<g>
	<g>
		<path d="M85.112,22.75c-9.83,6.335-18.99,14.288-27.226,23.638l22.532,19.848c6.407-7.273,13.458-13.411,20.961-18.246    L85.112,22.75z"/>
	</g>
</g>
<g>
	<g>
		<path d="M186.634,0l-2.04,29.958c9.671,0.658,19.486,2.162,29.176,4.469l6.955-29.21C209.425,2.525,197.956,0.771,186.634,0z"/>
	</g>
</g>
<g>
	<g>
		<path d="M191.5,481.59c-1.703,0.254-3.471,0.383-5.256,0.383c-6.738-0.001-12.976-1.096-18.538-3.256l-10.867,27.992    c9.04,3.509,18.932,5.29,29.403,5.291c3.267,0,6.528-0.24,9.696-0.714L191.5,481.59z"/>
	</g>
</g>
<g>
	<g>
		<path d="M226.21,449.432c-4.323,9.125-9.34,16.478-14.914,21.857l20.852,21.607c8.188-7.903,15.321-18.201,21.199-30.608    L226.21,449.432z"/>
	</g>
</g>
<g>
	<g>
		<path d="M151.945,0.732c-11.596,1.314-23.07,3.737-34.103,7.206l9.005,28.645c9.204-2.893,18.785-4.915,28.476-6.012    L151.945,0.732z"/>
	</g>
</g>
<g>
	<g>
		<path d="M134.272,440.801l-27.671,11.659c5.17,12.268,11.448,22.799,18.663,31.301l22.896-19.427    C142.926,458.166,138.253,450.249,134.272,440.801z"/>
	</g>
</g>
<g>
	<g>
		<path d="M494.852,141.678l-29.83,3.433c0.7,6.079,1.054,12.259,1.054,18.367c0,3.613-0.125,7.271-0.37,10.87l29.958,2.043    c0.291-4.277,0.439-8.621,0.439-12.912C496.103,156.228,495.683,148.893,494.852,141.678z"/>
	</g>
</g>
<g>
	<g>
		<path d="M474.251,75.438l-26.407,14.292c4.523,8.357,8.288,17.368,11.193,26.783l28.693-8.85    C484.246,96.366,479.711,85.524,474.251,75.438z"/>
	</g>
</g>
<g>
	<g>
		<path d="M461.034,203.161c-2.445,9.408-5.794,18.625-9.956,27.394l27.127,12.875c4.971-10.475,8.972-21.483,11.891-32.718    L461.034,203.161z"/>
	</g>
</g>
<g>
	<g>
		<path d="M391.878,382.684l-0.1,0.771c-1.354,10.51-3.099,20.365-5.181,29.27l29.238,6.836c2.313-9.891,4.239-20.754,5.726-32.288    l0.093-0.719L391.878,382.684z"/>
	</g>
</g>
<g>
	<g>
		<path d="M435.798,256.44c-5.956,9.259-11.484,19.259-16.428,29.721l27.148,12.83c4.389-9.288,9.278-18.138,14.533-26.306    L435.798,256.44z"/>
	</g>
</g>
<g>
	<g>
		<path d="M406.752,317.434c-3.563,10.475-6.631,21.35-9.121,32.322l29.282,6.647c2.259-9.956,5.042-19.816,8.267-29.304    L406.752,317.434z"/>
	</g>
</g>
<g>
	<g>
		<path d="M426.887,22.751l-16.267,25.24c7.503,4.834,14.554,10.973,20.961,18.246l22.532-19.848    C445.877,37.039,436.718,29.086,426.887,22.751z"/>
	</g>
</g>
<g>
	<g>
		<path d="M325.365,0c-11.322,0.771-22.791,2.525-34.092,5.217l6.955,29.21c9.69-2.307,19.506-3.811,29.176-4.469L325.365,0z"/>
	</g>
</g>
<g>
	<g>
		<path d="M344.292,478.717c-5.562,2.16-11.8,3.255-18.538,3.256c-1.785,0-3.552-0.129-5.255-0.383l-4.439,29.697    c3.167,0.473,6.429,0.714,9.695,0.714c10.471-0.001,20.364-1.782,29.403-5.291L344.292,478.717z"/>
	</g>
</g>
<g>
	<g>
		<path d="M285.791,449.432l-27.137,12.856c5.878,12.408,13.011,22.706,21.199,30.608l20.852-21.607    C295.13,465.91,290.112,458.556,285.791,449.432z"/>
	</g>
</g>
<g>
	<g>
		<path d="M360.053,0.733l-3.378,29.838c9.691,1.097,19.271,3.12,28.476,6.013l9.005-28.646    C383.124,4.47,371.65,2.046,360.053,0.733z"/>
	</g>
</g>
<g>
	<g>
		<path d="M271.062,392.438L256,394.151l-15.063-1.714c-1.197,10.52-2.954,20.477-5.222,29.595l15.636,3.889H256h4.648l15.636-3.889    C274.016,412.915,272.259,402.957,271.062,392.438z"/>
	</g>
</g>
<g>
	<g>
		<path d="M377.727,440.802c-3.981,9.447-8.653,17.364-13.887,23.532l22.896,19.427c7.214-8.502,13.493-19.034,18.663-31.301    L377.727,440.802z"/>
	</g>
</g>
<g>
</g>
<g>
</g>
<g>
</g>
<g>
</g>
<g>
</g>
<g>
</g>
<g>
</g>
<g>
</g>
<g>
</g>
<g>
</g>
<g>
</g>
<g>
</g>
<g>
</g>
<g>
</g>
<g>
</g>
</svg>
