<svg id="Capa_1" enable-background="new 0 0 511.7 511.7" height="512" viewBox="0 0 511.7 511.7" width="512" xmlns="http://www.w3.org/2000/svg"><g><path d="m464.85 120.173h-38.57c-1.86 27.62-16.433 52.863-37.75 74.12 0 0-123.328 122.757-132.68 132.09l-139.78-139.79c-18.34-19.91-28.79-42.64-30.66-66.42h-38.56v268h418zm-343 238h-30v-30h30zm0-60h-30v-30h30z"/><path d="m496.66 418.173c-28.746 0-471.817 0-496.66 0 2.2 32.36 29.22 58 62.12 58h387.46c32.9 0 59.92-25.64 62.12-58z"/><path d="m293.64 246.173h-75.58l37.79 37.79z"/><path d="m367.64 172.173h-223.58l44 44h135.58z"/><path d="m245.6 58.173c-35.245-34.496-86.857-28.334-115.43 10h125.68z"/><path d="m373.47 58.893c-30.463-30.383-75.658-31.534-107.37-.72 0-.001-10.25 10-10.25 10h125.67c-2.41-3.25-5.1-6.36-8.05-9.28z"/><path d="m121.85 142.263v-.09h268v.1c6.465-13.962 8.385-29.185 5.29-44.1h-278.58c-3.102 14.916-1.159 30.129 5.29 44.09z"/></g></svg>