<svg id="Capa_1" enable-background="new 0 0 512 512" height="512" viewBox="0 0 512 512" width="512" xmlns="http://www.w3.org/2000/svg"><g><path d="m306.648 43.485v128.232l205.352 15.586v-159.404z"/><path d="m228.741 170.579h47.907v-125.956h-47.907v31.454h-54.382v63.048h54.382z"/><path d="m165.76 300.743h180.75c16.638 0 30.125-13.487 30.125-30.125 0-33.275-26.975-60.25-60.25-60.25 0 16.638-13.487 30.125-30.125 30.125h-120.5c-16.638 0-30.125 13.487-30.125 30.125s13.488 30.125 30.125 30.125z"/><path d="m150.76 328.849v65.002h50.25v-63.108h-35.25c-5.177 0-10.203-.657-15-1.894z"/><path d="m231.01 330.743h50.25v63.108h-50.25z"/><path d="m311.261 330.743v63.108h50.25v-65.002c-4.797 1.236-9.823 1.894-15 1.894z"/><path d="m0 423.851h391.636v60.25h-391.636z"/></g></svg>