<svg id="Layer_1" enable-background="new 0 0 510 510" height="512" viewBox="0 0 510 510" width="512" xmlns="http://www.w3.org/2000/svg"><g id="XMLID_1013_"><path id="XMLID_1014_" d="m150 345h210c16.542 0 30-13.458 30-30 0-18.383-14.789-25.464-17.961-29.01 1.652-7.631 2.961-10.646 2.961-15.99 0-24.127-27.024-38.102-46.66-24.949l-13.326 8.926c-3.761-4.281-16.858-43.977-60.014-43.977-43.393 0-55.928 39.326-60.014 43.976l-13.325-8.925c-19.656-13.164-46.661.841-46.661 24.949 0 5.345 1.301 8.327 2.96 15.991-3.094 3.459-17.96 10.649-17.96 29.009 0 16.542 13.458 30 30 30z"/><path id="XMLID_1081_" d="m405 30v60h-30v-60h-60v60h-30v-60h-60v60h-30v-60h-60v60h-30v-60h-105v90h510v-90z"/><path id="XMLID_1084_" d="m0 510h510v-360h-510zm165-300c6.891 0 13.648 1.167 20.033 3.43 16.944-20.899 42.666-33.43 69.967-33.43s53.024 12.531 69.967 33.43c41.041-14.538 83.52 18.369 79.816 61.64 34.176 38.26 7.146 99.93-44.783 99.93h-19.845l-26.229 65.571-27.854-11.143 21.773-54.428h-42.689l-26.229 65.571-27.855-11.143 21.772-54.428h-42.688l-26.229 65.571-27.855-11.143 21.772-54.428h-7.844c-51.926 0-78.96-61.667-44.783-99.931-2.986-34.881 24.65-65.069 59.783-65.069z"/><path id="XMLID_1085_" d="m105 0h30v30h-30z"/><path id="XMLID_1086_" d="m195 0h30v30h-30z"/><path id="XMLID_1087_" d="m285 0h30v30h-30z"/><path id="XMLID_1089_" d="m375 0h30v30h-30z"/></g></svg>