<svg id="Capa_1" enable-background="new 0 0 512 512" height="512" viewBox="0 0 512 512" width="512" xmlns="http://www.w3.org/2000/svg"><g><path d="m59.405 427h393.189v85h-393.189z"/><path d="m452.595 40h-50.531v40h-30v-40h-35.533v40h-30v-40h-35.531v40h-30v-40h-35.532v40h-30v-40h-35.531v40h-30v-40h-50.532v85.08h393.19z"/><path d="m175.468 0h30v40h-30z"/><path d="m109.937 0h30v40h-30z"/><path d="m306.531 0h30v40h-30z"/><path d="m372.064 0h30v40h-30z"/><path d="m241 0h30v40h-30z"/><path d="m59.405 155.08v241.92h393.189v-241.92zm139.005 202.025h-30v-132.133h-14.1v-30h44.1zm159.256-106.727c0 64.86-58.677 105.051-61.175 106.73l-16.769-24.875c.271-.185 15.592-10.785 28.841-28.778-1.727.166-3.475.258-5.244.258-29.98 0-54.371-24.391-54.371-54.371s24.391-54.371 54.371-54.371 54.371 24.391 54.371 54.371c0 .347-.02.69-.026 1.036z"/><circle cx="303.319" cy="249.342" r="24.371"/></g></svg>