<svg id="Capa_1" enable-background="new 0 0 512 512" height="512" viewBox="0 0 512 512" width="512" xmlns="http://www.w3.org/2000/svg"><g><path d="m298.598 379.486c-2.534 9.902-6.797 18.882-11.426 26.499 19.043-.483 35.186-12.876 41.265-29.985h-12.437c-6.006 0-11.924 1.187-17.402 3.486z"/><path d="m241 361c0 14.663 8.042 28.403 15.015 37.544 6.958-9.126 14.985-22.837 14.985-37.544 0-14.663-8.042-28.403-15.015-37.544-6.958 9.126-14.985 22.837-14.985 37.544z"/><path d="m196 376h-12.437c6.079 17.109 22.222 29.502 41.265 29.985-4.629-7.617-8.892-16.597-11.426-26.499-5.478-2.299-11.396-3.486-17.402-3.486z"/><path d="m452 226h-392c-33.091 0-60 26.909-60 60 0 6.68.938 12.729 2.812 18.369l61.231 191.631h383.914l61.187-191.47c1.918-5.801 2.856-11.85 2.856-18.53 0-33.091-26.909-60-60-60zm-91 135c0 38.423-29.048 70.181-66.328 74.502l.557.498h-78.105l.513-.469c-37.428-4.16-66.637-36.006-66.637-74.531v-15h45c5.493 0 10.928.601 16.23 1.772 6.079-32.798 32.505-56.821 33.765-57.949l10.005-8.965 10.005 8.965c1.26 1.128 27.686 25.151 33.765 57.949 5.302-1.171 10.737-1.772 16.23-1.772h45z"/><path d="m286 76h-120c-36.216 0-66.513 25.809-73.482 60h327.112c.716-4.958 1.37-9.935 1.37-15 0-57.891-47.109-105-105-105h-30v30c8.276 0 15 6.724 15 15s-6.724 15-15 15z"/><path d="m61 166h390v30h-390z"/></g></svg>