<svg id="Capa_1" enable-background="new 0 0 512 512" height="512" viewBox="0 0 512 512" width="512" xmlns="http://www.w3.org/2000/svg"><g><path d="m482 301h-31v-60h-30v60h-30v121h-30v30h60v30h-30v30h90v-30h-30v-30h61v-30h-30z"/><path d="m196 151c-76.26 0-120 32.798-120 90 0 100.928 52.705 180 120 180s120-79.072 120-180c0-57.202-43.74-90-120-90z"/><path d="m196 0c-47.009 0-84.097 23.965-89.015 54.297 28.165-5.535 58.255-6.714 87.418-8.253 35.971 0 65.912 2.695 90.56 7.897-5.152-30.154-42.137-53.941-88.963-53.941z"/><path d="m52.68 125.219c-2.6 16.403 3.325 37.095 9.774 55.909 20.555-34.045 61.972-60.128 133.546-60.128 71.598 0 113.016 26.1 133.564 60.163 7.462-21.782 14.149-45.952 7.954-63.093-9.814-27.114-60.293-42.041-141.343-42.085-49.366 2.919-136.23 3.384-143.495 49.234z"/><path d="m346 301c24.853 0 45-20.147 45-45s-20.147-45-45-45c-1.397 0-2.714.286-4.08.41 2.446 9.791 4.08 19.706 4.08 29.59 0 20.733-2.144 40.613-5.969 59.399 1.972.264 3.924.601 5.969.601z"/><path d="m46 211c-24.853 0-46 20.147-46 45s21.147 45 46 45c2.045 0 3.997-.337 5.969-.601-3.825-18.786-5.969-38.666-5.969-59.399 0-9.884 1.633-19.799 4.08-29.59-1.366-.124-2.683-.41-4.08-.41z"/></g></svg>