<svg id="Capa_1" enable-background="new 0 0 512 512" height="512" viewBox="0 0 512 512" width="512" xmlns="http://www.w3.org/2000/svg"><g><path d="m273.156 357.096-32.171-32.171 114.971-114.971 21.222 21.222c2.003 2.003 18.103 18.747 26.177 46.467 12.346-10.282 24.7-21.502 36.951-33.753 41.863-41.863 65.66-96.478 70.73-162.326 1.78-23.123.829-43.492-.697-58.671l-12.675 12.676c-19.231 19.232-29.832 44.8-29.85 71.997l-30.012-.02c.023-35.205 13.746-68.304 38.641-93.198l12.652-12.652c-19.706-1.981-39.886-2.223-59.608-.645-65.427 5.233-119.719 29.005-161.366 70.653-82.395 82.394-118.387 169.429-134.072 227.934-11.218 41.844-13.912 75.05-14.449 92.75 17.943-.56 51.794-3.315 94.042-14.768 17.553-4.76 37.697-11.371 59.514-20.524zm130.439-318.255 21.221 21.222-21.789 21.789-21.221-21.222z"/><path d="m355.956 252.398-72.528 72.528 11.071 11.071c17.313 17.313 30.99 37.912 40.228 60.587 82.707-82.708 21.229-144.186 21.229-144.186z"/><path d="m112.322 422.546c-7.26 0-14.609-.458-21.851-1.009l-.812-13.247c-.074-1.199-1.08-19.181 2.299-48.444l-91.958 49.568c58.793 29.139 73.305 43.468 102.57 102.57l49.507-91.925c-17.898 2.062-31.577 2.487-39.755 2.487z"/><path d="m130.122 171.619 15.726 15.726c1.769-3.399 48.867-79.572 76.688-110.962-20.984-7.546-67.212-8.927-142.074 65.935 18.764 5.411 35.851 15.492 49.66 29.301z"/></g></svg>