<svg id="Capa_1" enable-background="new 0 0 512.028 512.028" height="512" viewBox="0 0 512.028 512.028" width="512" xmlns="http://www.w3.org/2000/svg"><g><path d="m241.001 93.609v37.289c4.943-.583 9.95-.884 15.003-.884h.01.003.003c5.046.001 10.045.302 14.981.884v-37.287c19.165-6.299 33.004-24.322 33.004-45.597 0-26.51-21.48-47.99-47.99-48h-.01c-26.51 0-48 21.49-48 48-.001 21.269 13.837 39.294 32.996 45.595z"/><path d="m333.867 156.935c3.909 3.084 7.664 6.413 11.239 9.988 3.57 3.57 6.894 7.32 9.975 11.224l83.529-83.529c2.961.906 6.104 1.396 9.362 1.396 17.657 0 31.971-14.314 31.971-31.971s-14.314-31.972-31.971-31.972c-17.658 0-31.972 14.314-31.972 31.972 0 3.258.49 6.401 1.396 9.363z"/><path d="m96 127.986c3.258 0 6.401-.49 9.363-1.396l51.562 51.562c3.083-3.907 6.41-7.66 9.983-11.233 3.572-3.572 7.324-6.898 11.23-9.98l-51.563-51.563c.906-2.961 1.396-6.104 1.396-9.362 0-17.657-14.314-31.971-31.971-31.971s-31.972 14.314-31.972 31.971 14.315 31.972 31.972 31.972z"/><path d="m256.014 160.014h-.01c-53.02 0-96 42.98-96 96s42.98 96 96 96h.01c53.02-.01 95.99-42.98 95.99-96s-42.97-95.99-95.99-96z"/><path d="m178.138 355.09c-3.906-3.082-7.658-6.408-11.23-9.98-3.573-3.573-6.9-7.326-9.983-11.233l-59.534 59.534c-9.722-5.958-21.154-9.397-33.391-9.397-35.346 0-64 28.654-64 64s28.654 64 64 64 64-28.654 64-64c0-12.237-3.439-23.669-9.396-33.39z"/><path d="m448 416.043c-3.258 0-6.4.49-9.362 1.396l-83.558-83.558c-3.081 3.904-6.405 7.654-9.975 11.224-3.575 3.575-7.329 6.903-11.239 9.988l83.558 83.558c-.906 2.962-1.396 6.105-1.396 9.363 0 17.657 14.314 31.971 31.972 31.971 17.657 0 31.971-14.314 31.971-31.971s-14.314-31.971-31.971-31.971z"/><path d="m48 304.014c21.269 0 39.296-13.839 45.596-33h37.292c-.583-4.942-.884-9.948-.884-15s.301-10.058.884-15h-37.292c-6.3-19.161-24.327-33-45.596-33-26.51 0-48 21.49-48 48s21.49 48 48 48z"/><path d="m464.028 208.014c-21.269 0-39.296 13.839-45.596 33h-37.312c.583 4.942.884 9.948.884 15s-.301 10.058-.884 15h37.312c6.3 19.161 24.327 33 45.596 33 26.51 0 48-21.49 48-48s-21.49-48-48-48z"/><path d="m271.001 418.417v-37.289c-4.94.583-9.945.884-14.996.885-5.054 0-10.06-.301-15.003-.884v37.289c-19.159 6.301-32.997 24.327-32.997 45.595 0 26.51 21.49 48 48 48h.01c26.51-.01 47.99-21.49 47.99-48-.001-21.273-13.839-39.297-33.004-45.596z"/></g></svg>