<svg id="Capa_1" enable-background="new 0 0 510.008 510.008" height="512" viewBox="0 0 510.008 510.008" width="512" xmlns="http://www.w3.org/2000/svg"><g id="XMLID_5_"><path id="XMLID_23_" d="m497.863 224.258c-22.084-23.596-17.188-49.164-17.858-53.525l-60.04-30.017c-.816 24.565-7.177 48.998-19.148 71.552-14.442 27.208-14.485 58.281-.118 85.25 12.08 22.673 18.514 47.145 19.36 71.729l59.946-29.973c.661-4.3-4.203-29.953 17.859-53.524 7.829-8.365 12.141-19.285 12.141-30.746s-4.312-22.38-12.142-30.746z"/><path id="XMLID_102_" d="m109.311 212.491c-12.077-22.668-18.503-47.144-19.339-71.738l-59.966 29.98c-.66 4.29 4.203 29.954-17.859 53.525-16.181 17.289-16.201 44.183 0 61.492 22.085 23.597 17.188 49.163 17.859 53.524l60.06 30.03c.805-24.576 7.158-49.015 19.128-71.565 14.441-27.208 14.484-58.28.117-85.248z"/><path id="XMLID_103_" d="m294.824 156.005c15.467-29.14-5.412-64.728-37.986-65.966-35.144-1.326-57.653 35.933-41.621 66.026 33.017 61.971 33.06 135.601-.031 197.936-8.788 16.558-6.565 37.764 7.739 52.396 17.993 18.409 46.599 17.732 63.899.429 14.606-14.605 16.801-36.305 7.967-52.886-33.014-61.97-33.059-135.596.033-197.935z"/><path id="XMLID_107_" d="m374.318 198.203c46.465-87.534-15.051-194.332-114.058-198.099-105.501-3.997-172.615 107.919-124.472 198.281 18.498 34.721 19.41 76.672-.097 113.421-46.337 87.292 14.882 194.322 114.059 198.099 105.188 3.983 172.796-107.583 124.472-198.28-18.5-34.727-19.407-76.681.096-113.422zm-66.28 229.836c-24.098 24.099-52.925 21.943-53.032 21.965-56.341 0-92.624-60.503-66.319-110.068 29.116-54.849 27.662-117.944.053-169.764-26.69-50.096 10.677-112.339 69.235-110.111 54.442 2.073 89.301 61.101 63.348 110.01-29.06 54.74-27.72 117.837-.056 169.765 14.82 27.813 11.06 63.915-13.229 88.203z"/></g></svg>