<svg id="Capa_1" enable-background="new 0 0 508.863 508.863" height="512" viewBox="0 0 508.863 508.863" width="512" xmlns="http://www.w3.org/2000/svg"><g id="XMLID_963_"><path id="XMLID_964_" d="m441.727 255.152 67.136-67.136-188.015-188.016-67.137 67.136 83.402 83.402-27.064 27.064 21.213 21.213 27.064-27.064z"/><path id="XMLID_967_" d="m23.333 412.958-8.302 8.302c-9.693 9.692-15.031 22.579-15.031 36.286 0 13.708 5.338 26.594 15.03 36.287 9.693 9.693 22.58 15.031 36.287 15.031s26.594-5.338 36.287-15.031l8.302-8.302z"/><path id="XMLID_968_" d="m45.506 291.43h241.222v102.634h-241.222z" transform="matrix(.707 -.707 .707 .707 -193.704 217.851)"/><path id="XMLID_969_" d="m267.058 171.518h37.941v102.635h-37.941z" transform="matrix(.707 -.707 .707 .707 -73.792 267.52)"/></g></svg>