<svg id="Capa_1" enable-background="new 0 0 503.528 503.528" height="512" viewBox="0 0 503.528 503.528" width="512" xmlns="http://www.w3.org/2000/svg"><g><path d="m503.528 148.945c-7.251-1.828-21.818-5.596-29.044-7.513-.381 1.416-8.593 30.495-41.265 52.339-31.785-31.957-64.291-59.652-80.778-103.278l8.94 4.43c41.692 20.887 94.288 3.982 115.45-39.01 0 0 8.04-16.26 8.04-16.26l-36.69-18.16c-36.251-18.804-84.348-6.903-107.76 26.32-2.396-13.756-2.836-28.42-2.65-42.49h-30c-.635 27.058 2.492 54.15 10.825 79.772-36.087-7.183-54.298-28.653-55.2-29.742l.061.075-23.362 18.819c1.339 1.662 31.761 38.566 91.359 42.782 11.15 22.688 25.849 43.226 43.847 61.214l35.88 35.89c46.775 46.885 30.553 124.993-29.8 151.26 2.703 10.524 3.64 21.589 2.69 32.46l18.53-9.71c61.239-30.609 84.402-112.321 48.915-170.522 41.282-28.434 51.532-66.796 52.012-68.676z"/><path d="m304.981 314.744c-33.93-21.81-79.35-33.83-127.89-33.83-48.53 0-93.95 12.02-127.89 33.83-65.589 41.151-65.614 108.476.001 149.63 33.939 21.81 79.359 33.83 127.889 33.83 48.54 0 93.96-12.02 127.89-33.83 65.611-41.152 65.621-108.481 0-149.63zm-201.17 107.46-44.08-44.08 21.21-21.21 44.08 44.08zm84.72 0-44.08-44.08 21.21-21.21 44.08 44.08zm84.71 0-44.07-44.08 21.21-21.21 44.08 44.08z"/></g></svg>