<svg id="Capa_1" enable-background="new 0 0 512.009 512.009" height="512" viewBox="0 0 512.009 512.009" width="512" xmlns="http://www.w3.org/2000/svg"><g><path d="m256.004 62.606c116.6 0 182.819 59.104 236.028 106.594l19.977-22.382c-32.937-29.397-63.391-55.448-102.604-76.557-47.07-25.338-97.249-37.656-153.401-37.656-56.132 0-106.329 12.616-153.458 38.57-41.759 22.999-75.464 53.483-102.546 77.977l20.124 22.249c53.592-48.471 120.29-108.795 235.88-108.795z"/><path d="m256.004 179.573c-41.562 0-75.375 33.813-75.375 75.375s33.813 75.375 75.375 75.375 75.375-33.813 75.375-75.375-33.813-75.375-75.375-75.375zm0 120.5c-24.882 0-45.125-20.243-45.125-45.125s20.243-45.125 45.125-45.125 45.125 20.243 45.125 45.125-20.243 45.125-45.125 45.125z"/><path d="m281.709 444.858c0 19.079 15.466 34.545 34.545 34.545s34.545-15.466 34.545-34.545c0-20.233-34.545-65.09-34.545-65.09s-34.545 44.857-34.545 65.09z"/><circle cx="256.004" cy="254.948" r="15.125"/><path d="m431.905 239.95h70.878c-8.774-13.197-29.668-42.184-61.439-71.362-6.237-5.728-12.573-11.166-18.996-16.307l-34.088 34.088h-24.213v-30h11.787l21.991-21.991c-11.515-7.621-23.249-14.315-35.142-20.036-12.35-5.941-24.88-10.815-37.539-14.649l-10.293 41.173-29.104-7.276 10.207-40.83c-13.231-2.28-26.564-3.435-39.951-3.435-13.386 0-26.719 1.155-39.951 3.435l10.208 40.83-29.104 7.276-10.293-41.173c-12.659 3.834-25.189 8.708-37.539 14.649-11.892 5.721-23.626 12.415-35.14 20.036l21.993 21.992h11.787v30h-24.213l-34.089-34.09c-6.423 5.141-12.759 10.58-18.996 16.308-31.77 29.177-52.663 58.163-61.438 71.36h70.876l25.731-25.731 21.213 21.213-19.518 19.518 19.518 19.519-21.213 21.213-25.732-25.731h-70.875c8.775 13.198 29.668 42.183 61.438 71.36 5.837 5.36 11.763 10.457 17.763 15.304l35.322-35.322h24.213v30h-11.787l-23.329 23.329c11.943 7.992 24.124 14.993 36.477 20.936 12.35 5.941 24.88 10.815 37.539 14.649l9.607-38.428 29.104 7.276-9.522 38.086c13.231 2.28 26.564 3.435 39.951 3.435.292 0 .584-.007.876-.008 3.575-9.237 9.068-19.656 16.7-31.802 9.29-14.784 18.517-26.796 18.905-27.3l8.741-11.35c-13.711 6.542-29.046 10.21-45.222 10.21-58.104 0-105.375-47.271-105.375-105.375s47.271-105.376 105.375-105.376 105.375 47.271 105.375 105.375c0 33.366-15.592 63.156-39.868 82.477 0 0 40.184 55.821 41.468 57.983 12.253-5.912 24.334-12.862 36.182-20.79l-23.328-23.328h-11.787v-30h24.213l35.322 35.321c6-4.847 11.926-9.943 17.762-15.303 31.768-29.176 52.661-58.16 61.437-71.358h-70.875l-25.731 25.731-21.213-21.213 19.519-19.519-19.519-19.519 21.213-21.213z"/></g></svg>