<svg id="Capa_1" enable-background="new 0 0 512 512" height="512" viewBox="0 0 512 512" width="512" xmlns="http://www.w3.org/2000/svg"><g><path d="m421 241v45h-330v-45c0-24.814-20.186-45-45-45h-46v105c0 36.216 25.809 66.513 60 73.482v31.518h30v-30h332v30h30v-31.518c34.191-6.969 60-37.266 60-73.482v-105h-46c-24.814 0-45 20.186-45 45z"/><path d="m391 256v-15c0-41.353 33.647-75 75-75h13.482c-6.969-34.191-37.266-60-73.482-60h-300c-36.216 0-66.513 25.809-73.482 60h13.482c41.353 0 75 33.647 75 75v15zm-15-124.409 21.211 21.211-21.211 21.211-21.211-21.211zm-60 60 21.211 21.211-21.211 21.211-21.211-21.211zm-60-60 21.211 21.211-21.211 21.211-21.211-21.211zm-60 60 21.211 21.211-21.211 21.211-21.211-21.211zm-81.211-38.789 21.211-21.211 21.211 21.211-21.211 21.211z"/></g></svg>