<svg id="Capa_1" enable-background="new 0 0 512 512" height="512" viewBox="0 0 512 512" width="512" xmlns="http://www.w3.org/2000/svg"><g><path d="m394.52 38.48-38.481-38.48-35.416 35.416c11.82 11.826 24.967 24.981 38.47 38.49z"/><path d="m418.426 133.269 35.442-35.441-38.139-38.138-35.432 35.432c13.151 13.156 26.154 26.166 38.129 38.147z"/><path d="m249.188 51.616-191.056 191.725v268.659h344.068v-352.544l-107.79-107.84zm45.77 303.229-21.21 21.21-41.582-41.582-41.582 41.582-21.21-21.21 41.582-41.582-41.582-41.582 21.21-21.21 41.582 41.582 41.582-41.582 21.21 21.21-41.582 41.582z"/><path d="m88.128 96.609c0-8.27 6.728-14.998 14.998-14.998h73.791l29.865-29.996h-103.656c-24.809 0-44.993 20.184-44.993 44.993v104.306l29.996-30.127v-74.178z"/></g></svg>