<svg id="Capa_1" enable-background="new 0 0 512 512" height="512" viewBox="0 0 512 512" width="512" xmlns="http://www.w3.org/2000/svg"><g><path d="m67.088 423.699-67.088 67.088 21.213 21.213 67.088-67.088c-4.429-2.258-8.585-5.227-12.285-8.927-3.7-3.701-6.67-7.858-8.928-12.286z"/><path d="m194.824 215.134s58.405-16.8 58.621-16.854c2.81-.82 5.66-1.341 8.513-1.633-3.476-20.278 2.579-41.886 18.201-57.509 25.559-25.559 67.146-25.558 92.703 0 25.559 25.559 25.559 67.145 0 92.703-12.778 12.779-29.565 19.168-46.352 19.168-3.734 0-7.465-.335-11.155-.967-.291 2.853-.812 5.702-1.62 8.515 0 0-16.61 57.689-16.92 58.585-3.79 13.344-11.02 25.594-20.861 35.437-8.198 8.198-17.712 14.291-27.865 18.306 13.525 3.797 27.589 5.77 41.881 5.77 41.303 0 80.133-16.083 109.338-45.289 29.205-29.205 45.289-68.035 45.289-109.337 0-85.262-69.365-154.627-154.627-154.627-41.302 0-80.132 16.084-109.337 45.289-29.206 29.206-45.289 68.036-45.289 109.338 0 14.292 1.973 28.356 5.77 41.882 4.014-10.152 10.107-19.666 18.305-27.864 9.835-9.835 22.078-17.066 35.405-20.913z"/><path d="m301.377 210.632c13.864 13.857 36.415 13.854 50.273-.004 13.861-13.861 13.861-36.416 0-50.277-6.93-6.93-16.035-10.396-25.139-10.396s-18.207 3.464-25.139 10.396c-13.86 13.86-13.861 36.411.005 50.281z"/><path d="m512 222.028c0-122.426-99.602-222.028-222.028-222.028s-222.029 99.602-222.029 222.028c0 42.578 11.843 83.291 34.394 118.761l27.261-27.261c-15.899-27.799-24.254-59.182-24.254-91.5 0-49.315 19.204-95.679 54.076-130.55s81.235-54.076 130.551-54.076c101.804 0 184.627 82.823 184.627 184.627 0 49.315-19.204 95.679-54.076 130.551-34.869 34.869-81.237 54.076-130.55 54.076-32.32 0-63.703-8.355-91.501-24.254l-27.261 27.261c35.47 22.551 76.182 34.394 118.761 34.395 122.427-.002 222.029-99.603 222.029-222.03z"/><path d="m174.176 364.271c-5.243-3.261-10.206-7.142-14.755-11.692-4.549-4.549-8.431-9.513-11.692-14.756l-50.5 50.5c-7.292 7.292-7.292 19.156 0 26.447s19.156 7.292 26.447 0z"/><path d="m203.133 243.96c-8.457 2.441-16.241 7.042-22.499 13.299-20.431 20.431-20.431 53.675 0 74.107 20.43 20.431 53.674 20.432 74.107 0 6.259-6.26 10.855-14.042 13.29-22.505 0 0 13.509-46.902 16.873-58.593 1.882-6.551.065-13.612-4.741-18.422-4.819-4.816-11.878-6.63-18.427-4.745 0-.001-44.626 12.837-58.603 16.859z"/></g></svg>