<svg id="Capa_1" enable-background="new 0 0 512 512" height="512" viewBox="0 0 512 512" width="512" xmlns="http://www.w3.org/2000/svg"><g><path d="m438.728 130h-119.938v382h37.469v-193.411h30.001v193.411h37.468v-328.431h30v135.021c0 10.33 8.404 18.734 18.734 18.734s18.734-8.404 18.734-18.734v-136.121c.001-28.931-23.537-52.469-52.468-52.469z"/><path d="m256 150.714c18.08 0 32.79-14.709 32.79-32.79s-14.71-32.791-32.79-32.791c-18.081 0-32.791 14.71-32.791 32.791s14.711 32.79 32.791 32.79z"/><path d="m288.79 215.952c-16.304 17.356-38.133 29.463-62.65 33.477 5.166 11.34 16.607 19.243 29.86 19.243 18.08 0 32.79-14.71 32.79-32.791z"/><path d="m280.579 175.699c-7.553 3.225-15.86 5.015-24.579 5.015-12.01 0-23.24-3.395-32.79-9.268v48.014c25.244-4.774 46.361-21.347 57.369-43.761z"/><path d="m193.21 130h-119.937c-28.932 0-52.469 23.538-52.469 52.469v136.121c0 10.33 8.404 18.734 18.735 18.734 10.33 0 18.734-8.404 18.734-18.734v-135.021h30v328.431h37.468v-193.411h30v193.411h37.469z"/><circle cx="371.53" cy="50" r="50"/><circle cx="140.471" cy="50" r="50"/></g></svg>