<svg id="Capa_1" enable-background="new 0 0 511.888 511.888" height="512" viewBox="0 0 511.888 511.888" width="512" xmlns="http://www.w3.org/2000/svg"><g><path d="m261.953 249.935c14.329 2.18 25.649 2.78 35.44-1.142l-34.297-34.298c-3.923 9.791-3.324 21.111-1.143 35.44z"/><path d="m399.513 112.375c-29.955-29.955-69.315-44.937-108.662-44.937-39.357 0-78.701 14.975-108.663 44.937-29.025 29.025-45.009 67.616-45.009 108.663s15.984 79.638 45.009 108.663 67.616 45.009 108.663 45.009 79.638-15.984 108.662-45.009c29.025-29.025 45.01-67.616 45.01-108.663-.001-41.048-15.985-79.638-45.01-108.663zm-48.864 84.577c2.278 21.376.517 44.618-19.376 64.51-19.891 19.893-43.134 21.653-64.51 19.375 2.278 21.376.517 44.618-19.376 64.51l-21.213-21.213c12.698-12.698 12.869-27.199 9.687-48.108-20.91-3.182-35.411-3.011-48.109 9.687l-21.211-21.213c19.892-19.893 43.135-21.654 64.51-19.376-2.278-21.376-.517-44.618 19.376-64.51 19.891-19.892 43.134-21.654 64.51-19.376-2.278-21.375-.517-44.618 19.376-64.51l21.213 21.213c-12.698 12.698-12.869 27.2-9.687 48.108 20.907 3.182 35.41 3.011 48.109-9.687l21.213 21.213c-19.893 19.893-43.136 21.655-64.512 19.377z"/><path d="m284.308 193.282 34.297 34.298c3.922-9.791 3.323-21.111 1.143-35.44-14.33-2.18-25.65-2.78-35.44 1.142z"/><path d="m447.221 64.667c-43.112-43.111-99.742-64.667-156.37-64.667-56.63 0-113.259 21.556-156.371 64.667-86.223 86.223-86.223 226.518 0 312.741 86.223 86.222 226.518 86.224 312.741 0 86.222-86.223 86.222-226.518 0-312.741zm-26.495 286.246c-34.69 34.691-80.814 53.796-129.875 53.796s-95.185-19.105-129.876-53.796-53.796-80.815-53.796-129.876 19.105-95.185 53.796-129.875c71.613-71.614 188.139-71.614 259.751 0 34.691 34.691 53.797 80.815 53.797 129.875-.001 49.061-19.106 95.185-53.797 129.876z"/><path d="m5.479 479.915c-7.305 7.305-7.305 19.19 0 26.495 7.305 7.304 19.19 7.304 26.495 0l46.833-46.833-26.495-26.495z"/><path d="m100.503 384.89-26.978 26.978 26.495 26.495 26.978-26.978c-4.708-4.065-9.288-8.321-13.731-12.764s-8.699-9.023-12.764-13.731z"/></g></svg>