<?xml version="1.0" encoding="iso-8859-1"?>
<!-- Generator: Adobe Illustrator 19.0.0, SVG Export Plug-In . SVG Version: 6.00 Build 0)  -->
<svg version="1.1" id="Layer_1" xmlns="http://www.w3.org/2000/svg" xmlns:xlink="http://www.w3.org/1999/xlink" x="0px" y="0px"
	 viewBox="0 0 512 512" style="enable-background:new 0 0 512 512;" xml:space="preserve">
<g>
	<g>
		<path d="M387.213,181L284.976,78.763C285.64,76.285,286,73.684,286,71c0-16.542-13.458-30-30-30s-30,13.458-30,30
			c0,2.684,0.36,5.285,1.024,7.763L124.787,181H0v290h512V181H387.213z M316.606,365.393l-21.213,21.213L256,347.213l-39.394,39.394
			l-21.213-21.213L234.787,326l-39.393-39.393l21.213-21.213L256,304.787l39.394-39.394l21.213,21.213L277.213,326L316.606,365.393z
			 M167.213,181l81.024-81.024C250.715,100.64,253.316,101,256,101s5.285-0.36,7.763-1.024L344.787,181H167.213z"/>
	</g>
</g>
<g>
</g>
<g>
</g>
<g>
</g>
<g>
</g>
<g>
</g>
<g>
</g>
<g>
</g>
<g>
</g>
<g>
</g>
<g>
</g>
<g>
</g>
<g>
</g>
<g>
</g>
<g>
</g>
<g>
</g>
</svg>
