<svg id="Capa_1" enable-background="new 0 0 512 512" height="512" viewBox="0 0 512 512" width="512" xmlns="http://www.w3.org/2000/svg"><g><path d="m443.667 233.5v53.333h-55.334v-47.833h-264.666v47.833h-55.334v-53.333h-68.333v278.5h173.849v-92.782c0-11.148 3.518-22.027 9.869-31.049-2.481-7.576-3.734-15.483-3.734-23.613 0-26.27 12.7-49.327 36.726-66.68 17.128-12.371 38.567-18.807 39.29-19.021.723.214 22.162 6.65 39.291 19.021 24.026 17.353 36.726 40.41 36.726 66.68 0 8.13-1.253 16.037-3.734 23.613 6.351 9.022 9.869 19.9 9.869 31.049v92.782h173.848v-278.5zm-332.667 196.333h-30v-64h30zm320 0h-30v-64h30z"/><path d="m393.303 209c6.745-15.219 11.207-36.104 5.71-62.252v.001c-5.705-27.138-24.586-54.451-54.603-78.987-21.39-17.485-47.656-32.825-73.41-43.022v-24.74h-30v24.74c-25.754 10.197-52.02 25.537-73.41 43.021-30.018 24.537-48.899 51.85-54.604 78.987-5.496 26.148-1.035 47.033 5.711 62.252z"/><path d="m308.15 419.218c0-6.617-2.649-12.768-7.46-17.321l-7.958-7.532 4.756-9.872c3.004-6.236 4.528-12.944 4.528-19.937 0-33.233-33.828-49.408-45.99-54.147-5.025 1.977-13.807 5.935-22.376 12.244-15.704 11.56-23.666 25.658-23.666 41.904 0 6.993 1.523 13.701 4.528 19.937l4.756 9.872-7.958 7.532c-4.81 4.553-7.46 10.704-7.46 17.321v92.781h104.3z"/></g></svg>