<svg id="Capa_1" enable-background="new 0 0 512 512" height="512" viewBox="0 0 512 512" width="512" xmlns="http://www.w3.org/2000/svg"><g><path d="m102.444 425.404c11.582-11.125 18.813-26.749 18.813-44.038v-24.904h-121.257v24.904c0 17.29 6.292 32.913 17.875 44.038z"/><path d="m192.598 394.324h38.953v31.08h-38.953z"/><path d="m406.283 26.596h-75.779v33.156.059h75.779z"/><path d="m261.551 89.752h38.953v274.572h-38.953z"/><path d="m436.283 89.811h75.668v37.224h-75.668z"/><path d="m330.504 89.811h75.779v37.224h-75.779z"/><path d="m261.551 394.324h38.953v31.08h-38.953z"/><path d="m330.504 157.035h75.779v268.369h-75.779z"/><path d="m436.283 26.596h75.659v33.215h-75.659z"/><path d="m192.598 89.752h38.953v274.572h-38.953z"/><path d="m511.958 157.035h-75.675v268.369h75.713z"/><path d="m511.939 455.404h-511.939v30h512v-30z"/><path d="m60.159 326.462c32.968 0 59.694-26.726 59.694-59.694v-47.976c-32.968 0-59.694 26.726-59.694 59.694 0-32.968-27.192-59.694-60.159-59.694v47.976c0 32.968 27.192 59.694 60.159 59.694z"/></g></svg>