<svg id="Layer_1" enable-background="new 0 0 511.951 511.951" height="512" viewBox="0 0 511.951 511.951" width="512" xmlns="http://www.w3.org/2000/svg"><g><path d="m492.869 318.001c41.028-40.377 11.401-111.881-46.188-111.528-60.058.434-119.297-10.066-175.678-30.721v-7.948c0-12.682 10.317-23 23-23v-30c-28.743 0-52.215 22.999-52.981 51.56-46.985-13.214-95.43-19.895-144.48-19.895-53.231 0-96.539 43.307-96.539 96.539-.385 35.065 20.532 68.607 51.812 84.137h429.624c4.093-2.582 7.926-5.639 11.43-9.144z"/><path d="m75.97 357.144h360.068v40.002h-360.068z"/></g></svg>