<svg id="Capa_1" enable-background="new 0 0 511.996 511.996" height="512" viewBox="0 0 511.996 511.996" width="512" xmlns="http://www.w3.org/2000/svg"><g><path d="m173.123 440.076c28.811 0 52.25-23.439 52.25-52.25s-23.439-52.25-52.25-52.25-52.25 23.439-52.25 52.25 23.439 52.25 52.25 52.25zm-15-67.255h30v30h-30z"/><path d="m48.956 387.826c0 68.466 55.701 124.167 124.167 124.167 68.465 0 124.166-55.701 124.166-124.167s-55.701-124.167-124.166-124.167c-68.466 0-124.167 55.701-124.167 124.167zm124.167-82.251c45.353 0 82.25 36.897 82.25 82.25s-36.897 82.25-82.25 82.25-82.25-36.897-82.25-82.25 36.897-82.25 82.25-82.25z"/><path d="m451.211 464.997c-2.998-5.637-7.63-10.27-13.267-13.267l.002-163.73c0-17.67-14.33-32-32-32h-17.002v-63.999h17v-33.874c0-16.637-13.487-30.125-30.125-30.125h-208.872v-96.002c0-17.67-14.33-32-32-32l-127.996.004v63.999h95.996v186.574c19.335-9.927 41.031-15.874 64-16.784v-41.792h191.998v63.999h-105.958c25.105 15.266 45.52 37.504 58.555 64h96.401v48.998h-81.806c.755 6.173 1.009 26.309.744 30h81.062v52.732c-10.112 5.377-16.999 16.016-16.999 28.267 0 17.673 14.327 32 31.999 32 12.251 0 22.89-6.888 28.267-16.999h53.834v-30h-53.833z"/></g></svg>