<svg id="Capa_1" enable-background="new 0 0 512 512" height="512" viewBox="0 0 512 512" width="512" xmlns="http://www.w3.org/2000/svg"><g><path d="m76 376h.76c-.412-4.958-.76-9.937-.76-15v-75c-24.853 0-45 20.147-45 45s20.147 45 45 45z"/><path d="m481 331c0-24.853-20.147-45-45-45v75c0 5.063-.348 10.042-.76 15h.76c24.853 0 45-20.147 45-45z"/><path d="m256 512c82.842 0 150-68.158 150-151v-90c0-37.976-14.573-72.255-37.841-98.681-16.975 39.972-60.64 68.681-112.159 68.681s-95.184-28.709-112.159-68.681c-23.268 26.426-37.841 60.705-37.841 98.681v90c0 82.842 67.158 151 150 151zm34.395-50.395c-18.955-18.955-49.834-18.955-68.789 0l-21.211-21.211c30.674-30.674 80.537-30.674 111.211 0zm-19.395-115.605v-15c0-24.814 20.186-45 45-45h45v30h-45c-8.276 0-15 6.724-15 15v15c0 24.814-20.186 45-45 45h-15v-30h15c8.276 0 15-6.724 15-15zm-90-60h60v30h-60z"/><path d="m241 196.015c0 8.262 6.724 14.985 15 14.985 8.262 0 15-6.724 15-15-.132-4.6-6.372-17.666-15-32.197-8.643 14.56-14.883 27.627-15 32.212z"/><path d="m346 136c0-74.443-60.557-136-135-136h-15c12.568 9.434 19.526 23.218 19.585 38.848.044 16.084-7.412 31.996-20.449 41.898-18.794 14.326-29.136 33.955-29.136 55.254 0 27.797 18.452 51.832 45.483 64.786-.172-1.594-.483-3.147-.483-4.786 0-19.175 22.837-54.302 32.651-68.525l12.349-17.871 12.349 17.871c9.814 14.223 32.651 49.35 32.651 68.525 0 1.639-.311 3.192-.483 4.786 27.031-12.954 45.483-36.989 45.483-64.786z"/></g></svg>