<svg id="Capa_1" enable-background="new 0 0 508.561 508.561" height="512" viewBox="0 0 508.561 508.561" width="512" xmlns="http://www.w3.org/2000/svg"><g id="XMLID_3286_"><circle id="XMLID_3290_" cx="254.28" cy="254.28" r="30"/><path id="XMLID_3287_" d="m457.614 209.12c-33.085-29.326-77.972-40.769-120.073-30.604-3.576.863-7.075 1.878-10.507 3.01 1.131-3.432 2.146-6.931 3.01-10.507 10.163-42.102-1.278-86.989-30.604-120.073l-45.16-50.946-45.16 50.946c-29.326 33.084-40.767 77.972-30.604 120.073.863 3.576 1.878 7.075 3.01 10.507-3.432-1.131-6.931-2.146-10.507-3.01-42.102-10.165-86.989 1.277-120.073 30.604l-50.946 45.16 50.946 45.159c25.138 22.283 57.09 34.241 89.458 34.241 10.23 0 20.503-1.195 30.615-3.636 3.576-.863 7.074-1.879 10.507-3.01-1.131 3.432-2.146 6.931-3.01 10.507-10.163 42.102 1.277 86.988 30.604 120.073l45.16 50.947 45.159-50.947c29.326-33.083 40.768-77.97 30.604-120.073-.863-3.577-1.879-7.075-3.01-10.507 3.432 1.131 6.931 2.147 10.507 3.01 10.114 2.441 20.382 3.636 30.615 3.636 32.365 0 64.322-11.959 89.458-34.241l50.946-45.159zm-83.334 60.16h-61.898c-5.439 21.053-22.049 37.663-43.102 43.101v61.899h-30v-61.899c-21.054-5.439-37.663-22.048-43.102-43.101h-61.898v-30h61.898c5.439-21.054 22.048-37.663 43.102-43.102v-61.898h30v61.898c21.053 5.439 37.662 22.048 43.102 43.102h61.898z"/></g></svg>