<?xml version="1.0" encoding="iso-8859-1"?>
<!-- Generator: Adobe Illustrator 19.0.0, SVG Export Plug-In . SVG Version: 6.00 Build 0)  -->
<svg version="1.1" id="Layer_1" xmlns="http://www.w3.org/2000/svg" xmlns:xlink="http://www.w3.org/1999/xlink" x="0px" y="0px"
	 viewBox="0 0 512 512" style="enable-background:new 0 0 512 512;" xml:space="preserve">
<g>
	<g>
		<path d="M485.053,202.105h-53.895v-40.421h-40.421v40.421H276.211v-53.895h47.158V0H188.632v148.211h47.158v53.895H26.947v94.316
			h116.301c-6.676,12.389-11.368,26.004-13.654,40.421H26.947V512h458.105V336.842H382.406
			c-2.288-14.417-6.978-28.032-13.654-40.421h116.301V202.105z M256,444.632c-48.368,0-87.579-39.211-87.579-87.579
			c0-48.368,39.211-87.579,87.579-87.579c48.368,0,87.579,39.211,87.579,87.579C343.579,405.42,304.368,444.632,256,444.632z"/>
	</g>
</g>
<g>
</g>
<g>
</g>
<g>
</g>
<g>
</g>
<g>
</g>
<g>
</g>
<g>
</g>
<g>
</g>
<g>
</g>
<g>
</g>
<g>
</g>
<g>
</g>
<g>
</g>
<g>
</g>
<g>
</g>
</svg>
