<svg id="Capa_1" enable-background="new 0 0 512 512" height="512" viewBox="0 0 512 512" width="512" xmlns="http://www.w3.org/2000/svg"><g id="XMLID_181_"><path id="XMLID_268_" d="m482 88.377v29h-32v-15.667h-30v15.667h-29.667v-63.334h-30v63.334h-29.666v-29h-30v29h-29.667v-78.281h-30v78.281h-29.667v-15.667h-30v15.667h-29.666v-61.914h-30v61.914h-29.667v-29h-30v29h-32v-29h-30v88h30v-29h32v29h30v-29h29.667v61.914h30v-61.914h29.666v15.666h30v-15.666h29.667v78.281h30v-78.281h29.667v29h30v-29h29.666v63.333h30v-63.333h29.667v15.666h30v-15.666h32v29h30v-88z"/><path id="XMLID_277_" d="m211.167 442.904 89.333 30v-221.721l-89.333 30z"/><path id="XMLID_278_" d="m59.833 347.043h28.167v30h-28.167z"/><path id="XMLID_279_" d="m118 287.043h63.167v150h-63.167z"/><path id="XMLID_282_" d="m344.167 378.043v30c25.364 0 46-20.636 46-46s-20.636-46-46-46v30c8.822 0 16 7.178 16 16s-7.178 16-16 16z"/><path id="XMLID_283_" d="m344.167 259.043v30c40.252 0 73 32.748 73 73s-32.748 73-73 73v30c56.794 0 103-46.206 103-103s-46.206-103-103-103z"/></g></svg>