<svg id="Capa_1" enable-background="new 0 0 512.001 512.001" height="512" viewBox="0 0 512.001 512.001" width="512" xmlns="http://www.w3.org/2000/svg"><g><path d="m299.896 193.944v-32.904h-30.249v32.904h-30.001v-32.904h-31.042v110.085h152.334v-110.085h-31.042v32.904z"/><path d="m299.896 118.444c0-8.34-6.785-15.125-15.125-15.125s-15.124 6.785-15.124 15.125v12.595h30.249z"/><path d="m488.39 202.648c0-111.92-90.728-202.648-202.648-202.648-90.163 0-166.564 58.878-192.868 140.28l-9.76 60.392-59.504 98.703v29.92h47.385l20.165 110.149h112.918l17.139 72.557h228.021l-28.235-158.448c41.367-37.101 67.387-90.969 67.387-150.905zm-97.452 98.477h-212.334v-170.085h61.042v-12.595c0-24.882 20.243-45.125 45.125-45.125s45.125 20.243 45.125 45.125v12.595h61.042z"/></g></svg>