<svg id="Capa_1" enable-background="new 0 0 512 512" height="512" viewBox="0 0 512 512" width="512" xmlns="http://www.w3.org/2000/svg"><g><path d="m437.02 74.98c-48.353-48.351-112.64-74.98-181.02-74.98s-132.667 26.629-181.02 74.98c-48.351 48.353-74.98 112.64-74.98 181.02s26.629 132.667 74.98 181.02c48.353 48.351 112.64 74.98 181.02 74.98s132.667-26.629 181.02-74.98c48.351-48.353 74.98-112.64 74.98-181.02s-26.629-132.667-74.98-181.02zm-352.175 143.531c0-41.995 34.165-76.16 76.16-76.16s76.16 34.166 76.16 76.16-34.165 76.16-76.16 76.16-76.16-34.165-76.16-76.16zm228.013 175.696h-113.717v-30h113.717zm38.137-99.536c-41.994 0-76.159-34.165-76.159-76.16s34.165-76.16 76.159-76.16c41.995 0 76.16 34.166 76.16 76.16s-34.165 76.16-76.16 76.16z"/><path d="m161.004 172.351c-25.453 0-46.16 20.708-46.16 46.16s20.707 46.16 46.16 46.16 46.16-20.707 46.16-46.16-20.707-46.16-46.16-46.16zm30.002 41.708h-30.002v-30h30.002z"/><path d="m350.995 172.351c-25.452 0-46.159 20.708-46.159 46.16s20.707 46.16 46.159 46.16c25.453 0 46.16-20.707 46.16-46.16s-20.707-46.16-46.16-46.16zm30.002 41.708h-30.002v-30h30.002z"/></g></svg>