<svg id="Capa_1" enable-background="new 0 0 512 512" height="512" viewBox="0 0 512 512" width="512" xmlns="http://www.w3.org/2000/svg"><g><path d="m169.797 37.736c38.333 7.077 67.469 40.728 67.469 81.077v132.481c6.036 1.343 12.3 2.075 18.734 2.075s12.698-.731 18.734-2.075v-132.481c0-40.35 29.136-74.001 67.469-81.077v-37.736h-172.406z"/><path d="m499.631 353.53c0-31.367-7.298-62.835-21.104-91.001l-35.12-71.643v-190.886h-71.203v167.166c0 64.075-52.129 116.203-116.203 116.203s-116.203-52.128-116.203-116.203v-167.166h-71.204v190.886l-35.12 71.644c-13.807 28.166-21.104 59.634-21.104 91.001 0 49.832 18 97.991 50.685 135.606l19.866 22.863h346.158l19.866-22.864c32.686-37.615 50.686-85.774 50.686-135.606z"/></g></svg>