<svg id="Capa_1" enable-background="new 0 0 512 512" height="512" viewBox="0 0 512 512" width="512" xmlns="http://www.w3.org/2000/svg"><g><path d="m468.302 146.237c-34.801 17.732-73.247 28.268-112.216 30.875v4.495c.166 45.861-12.359 90.333-36.224 128.607-24.622 39.49-59.425 69.271-100.659 86.138-5.619 2.397-11.379 4.312-17.249 5.755 4.189 9.815 9.124 19.314 14.793 28.406 21.423 34.358 51.587 60.195 87.24 74.726 10.497 4.508 21.757 6.761 33.017 6.761 11.261 0 22.522-2.253 33.019-6.762 35.652-14.531 65.816-40.367 87.239-74.725 20.981-33.65 31.989-72.817 31.831-113.214v-181.656zm-96.168 262.388c0-8.885-7.229-16.114-16.114-16.114h-29.875c-8.885 0-16.114 7.229-16.114 16.114h-29.955c0-25.402 20.666-46.069 46.069-46.069h29.875c25.402 0 46.069 20.666 46.069 46.069zm71.667-115.405c0 24.897-20.256 45.153-45.153 45.153s-45.152-20.255-45.152-45.153v-13.173h29.955v13.173c0 8.38 6.817 15.198 15.197 15.198s15.198-6.817 15.198-15.198v-13.173h29.955z"/><path d="m295.253 294.87c20.981-33.65 31.989-72.817 31.831-113.214v-181.656l-20.791 10.594c-40.473 20.622-85.875 31.522-131.298 31.522s-90.825-10.9-131.297-31.522l-20.791-10.594v181.601c-.157 40.452 10.85 79.62 31.831 113.269 21.423 34.358 51.587 60.195 87.24 74.726 10.497 4.508 21.757 6.761 33.017 6.761 11.261 0 22.522-2.253 33.019-6.762 35.653-14.531 65.817-40.367 87.239-74.725zm-193.115-129.227h-29.956v-13.173c0-24.897 20.255-45.153 45.153-45.153s45.153 20.255 45.153 45.153v13.173h-29.955v-13.173c0-8.38-6.817-15.198-15.198-15.198s-15.198 6.817-15.198 15.198v13.173zm143.571 69.157c0 39.145-31.846 70.992-70.992 70.992s-70.992-31.846-70.992-70.992v-24.453h29.955v24.453c0 22.627 18.409 41.036 41.036 41.036s41.036-18.409 41.036-41.036v-24.453h29.955v24.453zm1.771-82.33c0-8.38-6.817-15.198-15.198-15.198s-15.198 6.817-15.198 15.198v13.173h-29.954v-13.173c0-24.897 20.255-45.153 45.153-45.153 24.897 0 45.153 20.255 45.153 45.153v13.173h-29.956z"/></g></svg>