<?xml version="1.0" encoding="iso-8859-1"?>
<!-- Generator: Adobe Illustrator 19.0.0, SVG Export Plug-In . SVG Version: 6.00 Build 0)  -->
<svg xmlns="http://www.w3.org/2000/svg" xmlns:xlink="http://www.w3.org/1999/xlink" version="1.1" id="Capa_1" x="0px" y="0px" viewBox="0 0 512 512" style="enable-background:new 0 0 512 512;" xml:space="preserve">
<g>
	<g>
		<path d="M256,100.798c0,0-60.39,69.319-60.39,154.828S256,410.454,256,410.454s60.39-69.319,60.39-154.828    S256,100.798,256,100.798z"/>
	</g>
</g>
<g>
	<g>
		<path d="M166.654,276.725c-1.538-1.119-3.092-2.225-4.678-3.304C91.284,225.312,0,236.239,0,236.239s23.331,88.926,94.024,137.034    c42.248,28.751,91.843,36.415,124.92,37.929C201.088,385.494,172.439,336.029,166.654,276.725z"/>
	</g>
</g>
<g>
	<g>
		<path d="M114.977,134.774c0,0-8.986,36.142-5.484,82.044c20.57,5.85,39.529,13.82,56.656,23.809    c1.658-23.731,7.07-45.997,14.165-65.932C146.716,147.499,114.977,134.774,114.977,134.774z"/>
	</g>
</g>
<g>
	<g>
		<path d="M350.024,273.421c-1.586,1.079-3.139,2.186-4.678,3.304c-5.785,59.304-34.434,108.769-52.29,134.477    c33.077-1.515,82.673-9.178,124.92-37.929C488.669,325.164,512,236.239,512,236.239S420.716,225.312,350.024,273.421z"/>
	</g>
</g>
<g>
	<g>
		<path d="M397.023,134.774c0,0-31.739,12.725-65.337,39.921c7.095,19.935,12.507,42.201,14.165,65.932    c17.127-9.989,36.086-17.959,56.656-23.809C406.009,170.916,397.023,134.774,397.023,134.774z"/>
	</g>
</g>
<g>
</g>
<g>
</g>
<g>
</g>
<g>
</g>
<g>
</g>
<g>
</g>
<g>
</g>
<g>
</g>
<g>
</g>
<g>
</g>
<g>
</g>
<g>
</g>
<g>
</g>
<g>
</g>
<g>
</g>
</svg>
