<svg id="Capa_1" enable-background="new 0 0 512 512" height="512" viewBox="0 0 512 512" width="512" xmlns="http://www.w3.org/2000/svg"><g><path d="m85.796 304.118h155.013v26.007h29.95v-26.007h156v26.007h29.95v-55.957h-185.95v-26.959h72.143v-55.957h-29.95v26.008h-114.336v-26.008h-29.95v55.957h72.143v26.959h-184.963v55.957h29.95z"/><path d="m239.547 134.22c0-16.908-10.161-31.846-25.887-38.058l-5.123-2.023c-11.104 8.333-24.891 13.276-39.811 13.276s-28.707-4.943-39.811-13.276l-5.123 2.023c-15.725 6.212-25.887 21.15-25.887 38.058v29.135h141.642z"/><path d="m206.191 40.95v-3.485c0-20.658-16.807-37.465-37.465-37.465s-37.465 16.807-37.465 37.465v3.485c0 20.658 16.807 37.465 37.465 37.465s37.465-16.807 37.465-37.465z"/><path d="m412.667 134.22c0-16.908-10.161-31.846-25.887-38.058l-5.123-2.023c-11.104 8.333-24.891 13.276-39.811 13.276s-28.706-4.943-39.811-13.276l-5.123 2.023c-15.725 6.212-25.887 21.15-25.887 38.058v29.135h141.642z"/><path d="m379.311 40.95v-3.485c0-20.658-16.807-37.465-37.465-37.465s-37.465 16.807-37.465 37.465v3.485c0 20.658 16.807 37.465 37.465 37.465s37.465-16.807 37.465-37.465z"/><path d="m300.934 453.806-5.123-2.023c-11.104 8.333-24.891 13.276-39.811 13.276s-28.707-4.943-39.811-13.276l-5.123 2.023c-15.725 6.212-25.887 21.15-25.887 38.058v20.136h141.642v-20.135c0-16.908-10.161-31.847-25.887-38.059z"/><path d="m293.465 398.594v-3.485c0-20.658-16.807-37.465-37.465-37.465s-37.465 16.807-37.465 37.465v3.485c0 20.658 16.807 37.465 37.465 37.465s37.465-16.807 37.465-37.465z"/><path d="m115.755 453.806-5.123-2.023c-11.104 8.333-24.891 13.276-39.811 13.276s-28.707-4.943-39.811-13.276l-5.123 2.023c-15.726 6.212-25.887 21.151-25.887 38.059v20.135h141.642v-20.135c0-16.908-10.161-31.847-25.887-38.059z"/><path d="m108.286 398.594v-3.485c0-20.658-16.807-37.465-37.465-37.465s-37.465 16.807-37.465 37.465v3.485c0 20.658 16.807 37.465 37.465 37.465s37.465-16.807 37.465-37.465z"/><path d="m486.113 453.806-5.123-2.023c-11.104 8.333-24.891 13.276-39.811 13.276s-28.707-4.943-39.811-13.276l-5.123 2.023c-15.725 6.212-25.887 21.15-25.887 38.058v20.136h141.642v-20.135c0-16.908-10.161-31.847-25.887-38.059z"/><path d="m478.644 398.594v-3.485c0-20.658-16.807-37.465-37.465-37.465s-37.465 16.807-37.465 37.465v3.485c0 20.658 16.807 37.465 37.465 37.465s37.465-16.807 37.465-37.465z"/></g></svg>