<svg id="Capa_1" enable-background="new 0 0 512 512" height="512" viewBox="0 0 512 512" width="512" xmlns="http://www.w3.org/2000/svg"><g><path d="m256 210c-25.364 0-46 20.636-46 46s20.636 46 46 46 46-20.636 46-46c0-2.992-.297-5.915-.845-8.75l-37.655 21.74-15-25.98 37.629-21.725c-8.078-7.02-18.612-11.285-30.129-11.285z"/><path d="m256 362c58.448 0 106-47.551 106-106 0-13.945-2.713-27.268-7.629-39.475l-26.363 15.221c2.575 7.623 3.992 15.774 3.992 24.254 0 41.907-34.094 76-76 76s-76-34.093-76-76 34.094-76 76-76c22.67 0 43.04 9.99 56.977 25.784l26.361-15.219c-19.426-24.685-49.562-40.565-83.338-40.565-58.448 0-106 47.551-106 106s47.552 106 106 106z"/><path d="m0 0h512v60h-512z"/><path d="m0 90v362h241v30h-30v30h90v-30h-30v-30h241v-362zm452 302h-60v-30h60zm-196-272c44.868 0 84.725 21.845 109.51 55.454l21.369-12.337 10.039-37.465 28.979 7.765-7.766 28.978 28.979 7.765-7.765 28.978-37.466-10.039-21.329 12.315c7.356 16.716 11.45 35.18 11.45 54.586 0 74.991-61.01 136-136 136s-136-61.009-136-136 61.01-136 136-136zm-196 0h60v30h-60zm0 242h60v30h-60z"/></g></svg>