<?xml version="1.0" encoding="iso-8859-1"?>
<!-- Generator: Adobe Illustrator 19.0.0, SVG Export Plug-In . SVG Version: 6.00 Build 0)  -->
<svg xmlns="http://www.w3.org/2000/svg" xmlns:xlink="http://www.w3.org/1999/xlink" version="1.1" id="Layer_1" x="0px" y="0px" viewBox="0 0 512 512" style="enable-background:new 0 0 512 512;" xml:space="preserve">
<g>
	<g>
		<polygon points="236.147,249.417 220.473,249.417 181.332,249.417 165.658,249.417 149.985,249.417 149.985,312.989     251.82,312.989 251.82,249.417   "/>
	</g>
</g>
<g>
	<g>
		<path d="M272.532,80.151c-6.95,0-13.868,0.468-20.712,1.387V18.202h-35.241V0h-31.347v18.202h-35.248V218.07h15.673h15.673h39.142    h15.674h15.673V113.237c6.814-1.154,13.742-1.739,20.712-1.739c67.839,0,123.03,55.19,123.03,123.03    c0,54.409-36.134,102.622-88.102,117.978h-39.267h-131.73H85.09v31.347h51.373v32.725H85.222V512h231.372v-95.42h-48.4v-32.726    h53.356v-2.907c62.419-20.884,105.36-79.981,105.36-146.418C426.91,149.404,357.657,80.151,272.532,80.151z M236.847,416.58    h-69.036v-32.726h69.036V416.58z"/>
	</g>
</g>
<g>
</g>
<g>
</g>
<g>
</g>
<g>
</g>
<g>
</g>
<g>
</g>
<g>
</g>
<g>
</g>
<g>
</g>
<g>
</g>
<g>
</g>
<g>
</g>
<g>
</g>
<g>
</g>
<g>
</g>
</svg>
