<?xml version="1.0" encoding="iso-8859-1"?>
<!-- Generator: Adobe Illustrator 19.0.0, SVG Export Plug-In . SVG Version: 6.00 Build 0)  -->
<svg xmlns="http://www.w3.org/2000/svg" xmlns:xlink="http://www.w3.org/1999/xlink" version="1.1" id="Layer_1" x="0px" y="0px" viewBox="0 0 512 512" style="enable-background:new 0 0 512 512;" xml:space="preserve">
<g>
	<g>
		<path d="M231.283,174.748c-6.845-23.156-19.053-43.739-40.824-43.739c-21.791,0-34.004,20.554-40.847,43.739h25.55v-10.355h30    v10.355H231.283z"/>
	</g>
</g>
<g>
	<g>
		<path d="M110.337,204.747H85.52v10.938h-30v-10.938H30.714c-0.373,4.433-0.587,8.379-0.706,11.571    c-0.116,3.095,1.044,6.139,3.182,8.352c2.127,2.201,5.104,3.463,8.165,3.463h57.807c2.963,0,5.768-1.135,7.897-3.195l0.524-0.507    c2.317-2.242,3.575-5.372,3.448-8.585C110.918,212.975,110.711,209.163,110.337,204.747z"/>
	</g>
</g>
<g>
	<g>
		<path d="M360.102,174.748c-6.845-23.156-19.053-43.739-40.824-43.739c-21.79,0-34.003,20.554-40.847,43.739h25.837v-10.355h30    v10.355H360.102z"/>
	</g>
</g>
<g>
	<g>
		<path d="M237.489,204.748h-32.326v11.52h-0.001h-30v-11.52h-31.741c-1.532,11.309-2.135,21.288-2.37,27.542    c-0.159,4.241,1.432,8.414,4.364,11.447l0.001,0.001c2.918,3.019,6.999,4.75,11.198,4.75h67.063c4.064,0,7.911-1.557,10.832-4.383    l0.6-0.581c3.187-3.083,4.912-7.378,4.737-11.788C239.604,225.591,238.995,215.828,237.489,204.748z"/>
	</g>
</g>
<g>
	<g>
		<path d="M366.308,204.748h-32.04v11.52h-0.001h-30v-11.52h-32.028c-1.532,11.309-2.136,21.288-2.37,27.542    c-0.159,4.241,1.432,8.413,4.365,11.447l0.001,0.001c2.918,3.019,7,4.75,11.198,4.75h67.063c4.065,0,7.912-1.557,10.832-4.383    l0.6-0.581c3.186-3.083,4.912-7.379,4.737-11.788C368.423,225.591,367.814,215.828,366.308,204.748z"/>
	</g>
</g>
<g>
	<g>
		<path d="M481.298,204.748h-25.576v11.52h0h-30v-11.52h-24.047c-0.373,4.433-0.587,8.379-0.706,11.571    c-0.116,3.095,1.044,6.139,3.182,8.352c2.127,2.201,5.103,3.463,8.165,3.463h57.807c2.963,0,5.767-1.135,7.897-3.195l0.519-0.502    c2.322-2.247,3.58-5.377,3.453-8.59C481.879,212.976,481.672,209.164,481.298,204.748z"/>
	</g>
</g>
<g>
	<g>
		<path d="M328.468,101.654c18.283,2.58,39.73,13.807,54.255,47.552c12.706-33.846,32.85-44.982,50.035-47.552H328.468z"/>
	</g>
</g>
<g>
	<g>
		<path d="M476.728,174.747c-5.186-22.115-15.345-43.739-35.239-43.739c-4.978,0-20.124,0-30.925,29.371    c-1.704,4.634-3.108,9.49-4.269,14.368h19.427v-10.355h30v10.355H476.728z"/>
	</g>
</g>
<g>
	<g>
		<path d="M450.221,101.654c17.243,2.58,37.494,13.774,50.194,47.951c8.309,22.36,10.869,47.721,11.553,65.058    c0.464,11.734-4.117,23.154-12.566,31.33l-0.518,0.502c-7.756,7.506-17.97,11.639-28.761,11.639h-57.807    c-6.597,0-13.079-1.621-18.882-4.595c-2.228,4.239-5.13,8.143-8.64,11.54l-0.6,0.582c-8.55,8.273-19.806,12.828-31.699,12.828    h-67.063c-11.407,0-22.515-4.373-30.88-12.069c-8.444,7.785-19.357,12.069-30.875,12.069h-67.063    c-12.286,0-24.229-5.066-32.768-13.899c-2.954-3.056-5.431-6.51-7.406-10.221c-5.356,2.465-11.227,3.766-17.279,3.766H41.355    c-11.149,0-21.986-4.597-29.734-12.611l-0.001-0.002c-7.787-8.057-12.011-19.109-11.59-30.326    c0.65-17.334,3.159-42.71,11.417-65.168c12.687-34.5,33.026-45.781,50.351-48.372H0v115.63    c0,106.455,86.608,193.062,193.063,193.062h125.874C425.392,410.346,512,323.739,512,217.284v-115.63H450.221z"/>
	</g>
</g>
<g>
	<g>
		<path d="M199.65,101.654c18.69,2.637,40.694,14.292,55.221,49.823c14.523-35.515,36.513-47.185,55.213-49.823H199.65z"/>
	</g>
</g>
<g>
	<g>
		<path d="M105.768,174.748c-5.186-22.116-15.345-43.739-35.239-43.739c-4.978-0.001-20.125-0.001-30.926,29.37    c-1.704,4.634-3.108,9.49-4.269,14.368H55.52V163.81h30v10.938H105.768z"/>
	</g>
</g>
<g>
	<g>
		<path d="M79.261,101.653c16.701,2.5,36.221,13.09,48.971,44.809c14.484-31.606,35.246-42.299,53.035-44.809H79.261z"/>
	</g>
</g>
<g>
</g>
<g>
</g>
<g>
</g>
<g>
</g>
<g>
</g>
<g>
</g>
<g>
</g>
<g>
</g>
<g>
</g>
<g>
</g>
<g>
</g>
<g>
</g>
<g>
</g>
<g>
</g>
<g>
</g>
</svg>
