<svg id="Capa_1" enable-background="new 0 0 510 510" height="512" viewBox="0 0 510 510" width="512" xmlns="http://www.w3.org/2000/svg"><g><path d="m0 330h180v180h-180z"/><path d="m270 390h240v120h-240z"/><path d="m0 150h180v90h-180z"/><path d="m300 150h-30v120h-30v-120h-30v120h-210v30h210v210h30v-150h270v-30h-210zm-30 180h-30v-30h30z"/><path d="m330 150h180v150h-180z"/><path d="m270 87.43c17.476-6.179 30-22.838 30-42.43 0-24.853-20.147-45-45-45s-45 20.147-45 45c0 19.592 12.523 36.251 30 42.43v62.57h30z"/></g></svg>