<svg id="Capa_1" enable-background="new 0 0 512 512" height="512" viewBox="0 0 512 512" width="512" xmlns="http://www.w3.org/2000/svg"><g id="XMLID_702_"><path id="XMLID_713_" d="m351.97 187.051c21.088-32.735 32.234-69.433 32.234-106.125v-80.926h-30v23.787h-196.408v-23.787h-30v80.925c0 36.692 11.146 73.39 32.235 106.126 20.348 31.586 46.374 54.715 77.966 74.552 35.754 22.45 71.497 49.028 94.29 85.261 16.999 27.024 24.916 57.376 24.916 95.52v69.616h27.002v-79.618c0-36.692-10.146-73.39-31.234-106.125-16.887-26.215-41.22-49.967-69.228-69.603 28.006-19.637 51.34-43.389 68.227-69.603zm-188.813-65.954h185.686c-3.427 12.779-8.454 25.275-14.971 37.311h-155.744c-6.517-12.035-11.545-24.532-14.971-37.311zm191.047-67.31v27.139c0 3.398-.122 6.79-.349 10.172h-195.71c-.228-3.382-.35-6.774-.35-10.172v-27.139zm-98.204 185.299c-22.92-14.485-42.368-31.678-57.759-50.679h115.518c-15.391 19.002-34.839 36.194-57.759 50.679z"/><path id="XMLID_716_" d="m157.796 460.286v-27.904c0-3.142.103-6.279.297-9.407h168.272c-.971-10.669-2.821-20.596-5.684-30h-157.725c3.358-12.774 8.316-25.271 14.762-37.311h124.391c-7.31-10.182-16.421-20.05-27.575-30h-76.909c9.487-11.826 20.541-22.959 33.022-33.185-2.632-1.719-5.547-3.551-8.603-5.47-5.313-3.336-11.3-7.096-17.8-11.509-17.479 15.343-32.419 32.448-44.213 50.756-21.088 32.735-32.235 69.433-32.235 106.125v79.619h30v-21.714h169.406v-30z"/></g></svg>