<svg id="Capa_1" enable-background="new 0 0 512 512" height="512" viewBox="0 0 512 512" width="512" xmlns="http://www.w3.org/2000/svg"><g><path d="m128 0h-128v320h.726c42.196 0 86.191-3.533 127.274-10.06 20.685-106.795 28.566-192.296 0-309.94z"/><path d="m498.558 238.207c-34.317-17.647-63.971-40.462-83.829-74.335l25.881-15.173c14.726 25.119 37.118 44.743 62.826 58.056 2.951-15.257 6.131-29.003 7.206-38.186 9.014-56.823-27.784-112.221-83.383-125.749l-71.286-17.821c-64.496-16.125-130.678-24.483-197.144-24.954 12.886 55.235 18.083 104.01 17.701 151.811 13.615 2.951 26.788 7.887 39.007 14.706 12.34 6.886 26.331 10.526 40.463 10.526v30c-19.237 0-38.284-4.955-55.081-14.329-8.015-4.473-16.553-7.915-25.376-10.288-1.914 34.132-6.45 68.391-12.842 104.783 26.272-1.801 52.241-6.909 77.278-15.255 35.232-12.061 74.5-48.931 112-48-20.857 62.358-26.325 130.592-15.364 195.816l15.364 92.185h17c0-23.251 5.496-46.533 15.895-67.329 10.536-21.072 16.105-44.664 16.105-68.225v-56.446h30v56.446c0 28.195-6.665 56.425-19.273 81.641-8.325 16.652-12.727 35.295-12.727 53.913h91.623c14.422-79.162 26.632-128.737 8.174-240.84-1.635-9.927-1.399-21.308-.218-32.953z"/></g></svg>