<svg id="Capa_1" enable-background="new 0 0 512 512" height="512" viewBox="0 0 512 512" width="512" xmlns="http://www.w3.org/2000/svg"><path d="m45.12 391.5h391.63c41.49 0 75.25-33.76 75.25-75.25 0-24.62-11.88-46.51-30.22-60.25-12.56-9.42-28.15-15-45.03-15h-11.144c-6.352-19.965-25.036-34.43-47.106-34.43s-40.754 14.465-47.106 34.43h-28.288c-6.352-19.965-25.036-34.43-47.106-34.43s-40.754 14.465-47.106 34.43h-28.288c-6.352-19.965-25.036-34.43-47.106-34.43s-40.754 14.465-47.106 34.43h-11.144c-24.95 0-45.25-20.3-45.25-45.25s20.3-45.25 45.25-45.25h391.63c24.88 0 45.12-20.24 45.12-45.12 0-24.89-20.24-45.13-45.12-45.13h-466.88v30h466.88c8.33 0 15.12 6.79 15.12 15.13 0 8.33-6.79 15.12-15.12 15.12h-391.63c-41.49 0-75.25 33.76-75.25 75.25 0 24.62 11.88 46.51 30.22 60.25 12.56 9.42 28.15 15 45.03 15h11.144c6.352 19.965 25.036 34.43 47.106 34.43s40.754-14.465 47.106-34.43h28.288c6.352 19.965 25.036 34.43 47.106 34.43s40.754-14.465 47.106-34.43h28.288c6.352 19.965 25.036 34.43 47.106 34.43s40.754-14.465 47.106-34.43h11.144c24.95 0 45.25 20.3 45.25 45.25s-20.3 45.25-45.25 45.25h-391.63c-24.88 0-45.12 20.24-45.12 45.12 0 24.89 20.24 45.13 45.12 45.13h466.88v-30h-466.88c-8.33 0-15.12-6.79-15.12-15.13 0-8.33 6.79-15.12 15.12-15.12z"/></svg>