<svg id="Capa_1" enable-background="new 0 0 512 512" height="512" viewBox="0 0 512 512" width="512" xmlns="http://www.w3.org/2000/svg"><g><path d="m207.266 35.912c-21.678 6.448-37.536 36.548-37.536 60.291v26.673h37.535v-86.964z"/><path d="m136.062 152.876h239.875v37.469h-239.875z"/><path d="m360.372 390.563-10.658-3.045v124.482h48.714v-70.987c0-23.302-15.649-44.048-38.056-50.45z"/><path d="m162.286 387.518-10.658 3.045c-22.407 6.402-38.056 27.147-38.056 50.45v70.987h48.714z"/><path d="m304.734 35.912v86.965h37.535v-26.674c.001-23.743-15.857-53.843-37.535-60.291z"/><path d="m192.286 454.531h127.428v57.469h-127.428z"/><path d="m222.647 319.509 8.996 3.929v44.263l-39.357 11.245v45.584h127.428v-45.584l-39.357-11.245v-44.263l8.996-3.929c25.275-11.039 41.606-35.989 41.606-63.562l.093-35.602h-150.011v35.602c0 27.574 16.331 52.523 41.606 63.562z"/><path d="m237.266 0h37.469v122.876h-37.469z"/></g></svg>