<svg id="Capa_1" enable-background="new 0 0 512 512" height="512" viewBox="0 0 512 512" width="512" xmlns="http://www.w3.org/2000/svg"><g><path d="m146.386 291.075v69.12h67.469 8.411c10.33 0 18.734-8.404 18.734-18.734v-60.384c-19.553-6.342-33.734-24.723-33.734-46.363v-17.253c-34.623 6.609-60.88 37.095-60.88 73.614z"/><path d="m256 0c-103.845 0-188.328 84.483-188.328 188.328v118.262l48.714 37.92v-53.434c0-57.875 47.084-104.958 104.958-104.958h69.312c57.874 0 104.958 47.084 104.958 104.958v53.434l48.714-37.92v-118.262c0-103.845-84.483-188.328-188.328-188.328zm-42.51 148.564h-30v-30h30zm115.02 0h-30v-30h30z"/><path d="m304.734 217.462v17.253c0 21.64-14.181 40.021-33.734 46.363v60.384c0 10.33 8.404 18.734 18.734 18.734h8.411 67.469v-69.12c0-36.52-26.257-67.006-60.88-73.614z"/><path d="m237.266 234.714c0 10.331 8.404 18.735 18.734 18.735s18.734-8.404 18.734-18.735v-18.598h-37.469v18.598z"/><path d="m146.386 459.531c0 23.72 15.824 46 37.469 52.469v-121.805h-37.469z"/><path d="m328.146 512c21.645-6.469 37.469-28.749 37.469-52.469v-69.336h-37.469z"/><path d="m298.146 390.195h-8.411c-13.084 0-24.971-5.193-33.734-13.613-8.763 8.421-20.65 13.613-33.734 13.613h-8.411v37.469h84.291v-37.469z"/></g></svg>