<svg id="Layer_1" enable-background="new 0 0 509.162 509.162" height="512" viewBox="0 0 509.162 509.162" width="512" xmlns="http://www.w3.org/2000/svg"><g id="XMLID_688_"><path id="XMLID_694_" d="m30 119.162h60v30h-60v30h60v30h-60v30h60v30h-60v30h60v30h-60v30h60v30h-60v30h60v30h-60v60h90v-450h-90z"/><path id="XMLID_720_" d="m210 134.162c0-26.989 6.515-52.485 18.052-75h-78.052v450h270v-216.237c-14.31 4.062-29.405 6.237-45 6.237-90.981 0-165-74.018-165-165zm150 300h-180v-30h180zm0-60h-180v-30h180z"/><path id="XMLID_826_" d="m0 119.162h30v30h-30z"/><path id="XMLID_827_" d="m0 179.162h30v30h-30z"/><path id="XMLID_828_" d="m0 239.162h30v30h-30z"/><path id="XMLID_829_" d="m0 299.162h30v30h-30z"/><path id="XMLID_830_" d="m0 359.162h30v30h-30z"/><path id="XMLID_831_" d="m0 419.162h30v30h-30z"/><path id="XMLID_839_" d="m450 119.162h59.162c-6.938-62.478-56.683-112.223-119.162-119.162v59.162h-30v-59.162c-62.478 6.938-112.224 56.684-119.162 119.162h59.162v30h-59.162c6.938 62.479 56.684 112.224 119.162 119.162v-59.162h30v59.162c62.479-6.939 112.224-56.684 119.162-119.162h-59.162zm-55.606 55.607-34.394-34.393v-51.214h30v38.786l25.607 25.607z"/></g></svg>