<?xml version="1.0" encoding="iso-8859-1"?>
<!-- Generator: Adobe Illustrator 19.0.0, SVG Export Plug-In . SVG Version: 6.00 Build 0)  -->
<svg xmlns="http://www.w3.org/2000/svg" xmlns:xlink="http://www.w3.org/1999/xlink" version="1.1" id="Layer_1" x="0px" y="0px" viewBox="0 0 512 512" style="enable-background:new 0 0 512 512;" xml:space="preserve">
<g>
	<g>
		<path d="M469.314,288.792V201.17H42.687v87.622h19.613v135.586H42.687V512h426.627v-87.622h-19.613V288.792H469.314z     M121.866,424.378H92.299V288.792h29.567V424.378z M181.432,424.378h-29.567V288.792h29.567V424.378z M240.999,424.378h-29.567    V288.792h29.567V424.378z M300.566,424.378h-29.567V288.792h29.567V424.378z M360.133,424.378h-29.567V288.792h29.567V424.378z     M419.7,424.378h-29.567V288.792H419.7V424.378z"/>
	</g>
</g>
<g>
	<g>
		<path d="M112.437,94.671c-21.741,0-39.428,17.688-39.428,39.43c0,21.74,17.688,39.427,39.428,39.427    c21.741,0,39.428-17.688,39.428-39.428C151.866,112.359,134.179,94.671,112.437,94.671z"/>
	</g>
</g>
<g>
	<g>
		<path d="M429.884,4.622c-21.74,0-39.428,17.688-39.428,39.429c0.001,21.741,17.688,39.428,39.428,39.428    c21.741,0,39.428-17.688,39.428-39.428C469.313,22.31,451.625,4.622,429.884,4.622z"/>
	</g>
</g>
<g>
	<g>
		<path d="M385.845,105.087c-21.741,0-39.428,17.688-39.428,39.428c0,21.74,17.687,39.428,39.428,39.428    c21.741,0,39.428-17.688,39.428-39.428C425.272,122.775,407.585,105.087,385.845,105.087z"/>
	</g>
</g>
<g>
	<g>
		<path d="M222.14,54.581c0-8.715,2.684-12.356,7.131-18.391c5.479-7.434,12.981-17.614,12.981-36.19h-30    c0,8.716-2.685,12.357-7.131,18.392c-5.479,7.434-12.981,17.614-12.981,36.189s7.503,28.756,12.981,36.189    c4.447,6.034,7.131,9.676,7.131,18.391c0,8.717-2.685,12.36-7.132,18.396c-5.479,7.433-12.981,17.615-12.981,36.191h30    c0-8.717,2.685-12.359,7.132-18.395c5.478-7.434,12.981-17.615,12.981-36.192c0-18.575-7.503-28.756-12.981-36.189    C224.824,66.938,222.14,63.296,222.14,54.581z"/>
	</g>
</g>
<g>
	<g>
		<path d="M299.749,54.581c0-8.715,2.684-12.356,7.131-18.391c5.479-7.434,12.981-17.614,12.981-36.19h-30    c0,8.716-2.684,12.357-7.131,18.392c-5.479,7.434-12.981,17.614-12.981,36.189s7.503,28.756,12.981,36.189    c4.447,6.034,7.131,9.676,7.131,18.391c0,8.717-2.685,12.36-7.132,18.396c-5.479,7.433-12.981,17.615-12.981,36.191h30    c0-8.717,2.685-12.359,7.132-18.395c5.478-7.434,12.981-17.615,12.981-36.192c0-18.575-7.503-28.756-12.981-36.189    C302.434,66.938,299.749,63.296,299.749,54.581z"/>
	</g>
</g>
<g>
</g>
<g>
</g>
<g>
</g>
<g>
</g>
<g>
</g>
<g>
</g>
<g>
</g>
<g>
</g>
<g>
</g>
<g>
</g>
<g>
</g>
<g>
</g>
<g>
</g>
<g>
</g>
<g>
</g>
</svg>
