<svg id="Capa_1" enable-background="new 0 0 512.809 512.809" height="512" viewBox="0 0 512.809 512.809" width="512" xmlns="http://www.w3.org/2000/svg"><g><path d="m275.135 345.799v-49.2h-37.46v49.2c12.424-.665 25.035-.665 37.46 0z"/><path d="m237.675 212.289h37.46v54.31h-37.46z"/><path d="m275.135 134.769-18.69-11.32-18.77 11.37v47.47h37.46z"/><path d="m179.075 56.899c19.59 1.29 38.4 6.59 55.51 15.55-28.248-79.834-135.115-98.12-188.34-32.06l87.7 20.89c14.58-3.89 29.78-5.39 45.13-4.38z"/><path d="m378.915 61.269 87.65-20.88c-54.099-66.317-159.718-47.736-188.36 32.11 30.276-16.081 67.584-20.224 100.71-11.23z"/><path d="m229.885 104.459c-5.28-3.44-10.79-6.39-16.49-8.83-.01 0-.01-.01-.02-.01-11.6-4.99-24.071-7.938-36.6-8.72h-.01c-66.693-4.912-122.888 53.884-115.98 119.94 0 0 165.484-100.187 169.1-102.38z"/><path d="m452.115 206.839c8.114-91.659-91.471-152.126-169.11-102.38 3.597 2.182 169.11 102.38 169.11 102.38z"/><path d="m80.025 437.579c23.486-14.396 58.597-14.258 81.81.001 7.91 4.199 13.63 7.239 26.83 7.239 28.575.051 30.125-18.064 67.73-17.99 37.705-.051 39.064 18.018 67.73 17.99 28.724.017 30.004-18.035 67.74-17.99 20.67 0 31.89 5.96 40.91 10.75 6.93 3.68 12.19 6.47 22.27 7.1-108.041-91.731-289.242-91.727-397.28 0 10.08-.63 15.33-3.42 22.26-7.1z"/><path d="m506.825 460.869c-7.853 3.717-14.323 7.995-23.1 10.58-18.302 6.068-45.093 3.499-59.15-4.35-11.294-5.523-16.507-10.309-32.71-10.269-16.19-.04-21.431 4.747-32.71 10.27-22.101 11.491-54.973 9.92-75.93-3.031-7.91-4.199-13.63-7.239-26.83-7.239s-18.91 3.04-26.83 7.24c-24.029 14.393-57.759 14.4-81.8 0-7.92-4.2-13.64-7.24-26.83-7.24-13.2 0-18.92 3.04-26.83 7.24-12.27 6.369-20.684 10.44-40.91 10.75-14.752-.142-23.92-2.447-35.02-7.72-5.991-2.883-11.377-6.427-17.71-8.35v54.06h511.88v-54.06c-1.96.589-3.75 1.309-5.52 2.119z"/></g></svg>