<svg id="Capa_1" enable-background="new 0 0 512 512" height="512" viewBox="0 0 512 512" width="512" xmlns="http://www.w3.org/2000/svg"><g><path d="m465.871 262.767c-18.132-7.546-38.798 1.387-45.798 19.599l3.896-10.134c6.792-17.669-1.32-37.93-18.796-45.203-18.132-7.547-38.798 1.388-45.798 19.599l3.711-9.764c6.884-17.909-2.053-38.008-19.962-44.892s-38.008 2.053-44.892 19.962l63.058-164.044c6.792-17.669-1.32-37.93-18.796-45.204-18.132-7.547-38.798 1.388-45.798 19.599l-78.806 205.007-15.342-5.897c-16.155-6.21-34.285 1.852-40.494 18.007l-19.7 51.25c-32.274 83.96 9.625 178.186 93.585 210.46 83.959 32.274 178.186-9.625 210.459-93.585l38.269-99.556c6.792-17.67-1.32-37.931-18.796-45.204z"/><path d="m160.336 79.727 21.213 21.213 48.273-48.273-48.273-48.274-21.213 21.214 12.06 12.06h-87.455v30h87.455z"/><path d="m24.941 37.667h30v30h-30z"/></g></svg>