<svg id="Capa_1" enable-background="new 0 0 512 512" height="512" viewBox="0 0 512 512" width="512" xmlns="http://www.w3.org/2000/svg"><g><path d="m467 297.262h-88v-27.475l-112.739 72.475 112.739 72.476v-27.475h58c41.355 0 75-33.645 75-75v-60c0 24.812-20.187 44.999-45 44.999z"/><path d="m409 214.837v52.425h43v-137.98l-196.145 130.173c-9.068 6.017-19.462 9.025-29.855 9.025s-20.787-3.008-29.855-9.025l-196.145-130.292v228.1h234.116l-23.333-15z"/><path d="m239.27 234.457 206.725-137.195h-439.8l206.535 137.195c8.061 5.348 18.479 5.348 26.54 0z"/><path d="m482 192.303v29.959c16.569 0 30 13.431 30 30 0-24.484-11.796-46.262-30-59.959z"/></g></svg>