<?xml version="1.0" encoding="iso-8859-1"?>
<!-- Generator: Adobe Illustrator 19.0.0, SVG Export Plug-In . SVG Version: 6.00 Build 0)  -->
<svg version="1.1" id="Layer_1" xmlns="http://www.w3.org/2000/svg" xmlns:xlink="http://www.w3.org/1999/xlink" x="0px" y="0px"
	 viewBox="0 0 512 512" style="enable-background:new 0 0 512 512;" xml:space="preserve">
<g>
	<g>
		<polygon points="210.394,270.07 228.061,301.297 241.313,288.046 		"/>
	</g>
</g>
<g>
	<g>
		<path d="M437.018,74.981C388.668,26.629,324.381,0,256,0S123.332,26.629,74.981,74.981C26.628,123.332,0,187.619,0,256
			c0,68.379,26.628,132.668,74.981,181.019C123.334,485.371,187.619,512,256,512s132.668-26.629,181.018-74.981
			C485.371,388.668,512,324.381,512,256S485.371,123.332,437.018,74.981z M359.131,114.553l-31.021,31.021l10.272,10.272
			l26.503-26.503l16.229,16.229l-26.503,26.503l11.505,11.505l31.946-31.946l17.463,17.463l-51.976,51.976l-72.93-72.931
			l51.051-51.051L359.131,114.553z M248.4,336.222l-21.263,21.263l-45.711-100.152l16.229-16.229l100.05,45.813l-21.161,21.16
			l-18.695-9.861l-19.414,19.414L248.4,336.222z M230.218,208.541l20.03-20.03l55.469,55.469l33.076-33.076l17.463,17.463
			l-53.106,53.106L230.218,208.541z M83.349,256c0-46.117,17.959-89.474,50.569-122.082c32.608-32.61,75.965-50.569,122.082-50.569
			c16.486,0,32.616,2.308,48.032,6.747l-30.134,30.134c-5.888-0.764-11.862-1.16-17.897-1.16c-36.576,0-70.962,14.243-96.824,40.106
			S119.07,219.424,119.07,256c0,6.036,0.396,12.009,1.16,17.897l-30.134,30.134C85.656,288.616,83.349,272.486,83.349,256z
			 M191.186,394.053c-3.22,2.397-6.591,4.606-10.117,6.625c-3.527,2.021-7.088,3.801-10.683,5.341
			c-3.596,1.541-7.139,2.758-10.632,3.647l-8.936-26.194c3.903-0.889,7.737-2.053,11.505-3.492c3.217-1.164,6.625-2.722,10.22-4.673
			c3.596-1.952,6.831-4.366,9.708-7.242c2.191-2.191,3.423-4.004,3.698-5.444c0.274-1.436-0.068-2.635-1.028-3.595
			c-1.028-1.028-2.329-1.472-3.903-1.336c-1.576,0.138-3.39,0.687-5.444,1.644c-2.055,0.96-4.331,2.141-6.831,3.544
			c-2.499,1.404-5.221,2.826-8.166,4.263c-4.315,2.125-8.269,3.717-11.864,4.776c-3.595,1.063-6.951,1.542-10.066,1.438
			c-3.115-0.101-6.061-0.822-8.834-2.156c-2.773-1.336-5.495-3.339-8.166-6.009c-4.04-4.04-6.867-8.336-8.474-12.892
			c-1.61-4.553-2.175-9.124-1.696-13.713c0.479-4.587,1.815-9.037,4.005-13.354c2.191-4.313,5.101-8.285,8.731-11.915
			c2.671-2.671,5.53-5.016,8.577-7.036c3.046-2.019,6.148-3.817,9.296-5.393c3.151-1.574,6.214-2.927,9.193-4.058
			c2.979-1.13,5.701-2.105,8.166-2.927l7.91,25.165c-3.288,0.823-6.505,1.852-9.655,3.083c-2.671,1.026-5.513,2.329-8.525,3.903
			c-3.014,1.577-5.615,3.459-7.806,5.65c-1.781,1.781-2.928,3.477-3.441,5.084c-0.513,1.612-0.119,3.066,1.181,4.366
			c0.96,0.96,2.054,1.438,3.286,1.438c1.234,0,2.687-0.324,4.366-0.975c1.677-0.65,3.595-1.573,5.752-2.773
			c2.158-1.198,4.64-2.515,7.448-3.954c4.382-2.328,8.542-4.228,12.481-5.701c3.938-1.472,7.704-2.327,11.3-2.568
			c3.595-0.237,7.105,0.326,10.529,1.696c3.424,1.37,6.849,3.767,10.272,7.191c4.383,4.383,7.257,8.87,8.628,13.456
			c1.369,4.589,1.625,9.092,0.77,13.507c-0.856,4.419-2.55,8.681-5.085,12.788c-2.536,4.109-5.48,7.842-8.834,11.197
			C197.349,389.122,194.404,391.656,191.186,394.053z M378.082,378.082c-32.608,32.61-75.966,50.569-122.082,50.569
			c-16.486,0-32.617-2.308-48.032-6.747l30.134-30.134c5.888,0.763,11.862,1.16,17.897,1.16c36.576,0,70.962-14.243,96.824-40.106
			c31.23-31.23,44.181-73.914,38.876-114.652l30.119-30.119C438.611,266.496,424.038,332.126,378.082,378.082z"/>
	</g>
</g>
<g>
</g>
<g>
</g>
<g>
</g>
<g>
</g>
<g>
</g>
<g>
</g>
<g>
</g>
<g>
</g>
<g>
</g>
<g>
</g>
<g>
</g>
<g>
</g>
<g>
</g>
<g>
</g>
<g>
</g>
</svg>
