<svg id="Capa_1" enable-background="new 0 0 512 512" height="512" viewBox="0 0 512 512" width="512" xmlns="http://www.w3.org/2000/svg"><g><path d="m304.734 474.531h37.469v37.469h-37.469z"/><path d="m372.203 356.46h-232.406v-221.522h-37.469v258.992h67.469v50.601h37.469v-50.601h97.468v50.601h37.469v-50.601h67.469v-258.992h-37.469z"/><path d="m305.776 33.734-4.333-7.487c-9.368-16.19-26.781-26.247-45.443-26.247s-36.075 10.057-45.443 26.247l-4.333 7.487h-103.896v71.204h307.344v-71.204zm-34.776 33.735h-30v-30h30z"/><path d="m169.797 134.938v191.522h172.406v-191.522zm137.93 110.761h-36.727v36.726h-30v-36.726h-36.727v-30h36.727v-36.726h30v36.726h36.727z"/></g></svg>