<svg id="Capa_1" enable-background="new 0 0 512 512" height="512" viewBox="0 0 512 512" width="512" xmlns="http://www.w3.org/2000/svg"><g><path d="m211 222.979c0 8.271 6.729 15 15 15h60c8.271 0 15-6.729 15-15v-15h-90z"/><path d="m362 90h81.213l-81.213-81.213z"/><path d="m332 120v-120h-272v512h392v-392zm-122-30h16c24.813 0 45 20.187 45 45v15h-30v-15c0-8.271-6.729-15-15-15h-16c-24.813 0-45-20.187-45-45v-15h30v15c0 8.271 6.729 15 15 15zm111.333 302v-30h70.667v30zm70.667 30v30h-70.667v-30zm-106-154.021h-60c-24.813 0-45-20.187-45-45v-45h15 120 15v45c0 24.813-20.187 45-45 45zm-65.333 124.021v-30h70.666v30zm70.666 30v30h-70.666v-30zm-70.666-90v-30h70.666v30zm-30-30v30h-70.667v-30zm0 60v30h-70.667v-30zm0 60v30h-70.667v-30zm201.333-120v30h-70.667v-30z"/></g></svg>