<?xml version="1.0" encoding="iso-8859-1"?>
<!-- Generator: Adobe Illustrator 19.0.0, SVG Export Plug-In . SVG Version: 6.00 Build 0)  -->
<svg xmlns="http://www.w3.org/2000/svg" xmlns:xlink="http://www.w3.org/1999/xlink" version="1.1" id="Layer_1" x="0px" y="0px" viewBox="0 0 512 512" style="enable-background:new 0 0 512 512;" xml:space="preserve">
<g>
	<g>
		<path d="M407.656,217.109c-4.817,0-9.55,0.324-14.19,0.961l4.504,15.245l4.524,15.318l20.198,68.378l-30.062,8.882l-20.187-68.357    h-0.01l-4.524-15.35h-0.01l-4.493-15.214c-35.474,16.677-60.082,52.757-60.082,94.48c0,57.532,46.801,104.343,104.333,104.343    c57.532,0,104.344-46.811,104.344-104.343C512,263.92,465.189,217.109,407.656,217.109z"/>
	</g>
</g>
<g>
	<g>
		<path d="M393.456,218.049L354.513,86.204h-59.152v31.347h35.725l20.564,69.62H193.007v0.594l-0.004-0.007l-20.134-35.88h20.138    v-31.347h-74.548v31.347h18.476l7.146,12.746l-19.425,54.021l-0.157,0.418c-6.52-1.285-13.26-1.954-20.156-1.954    C46.811,217.109,0,263.92,0,321.452c0,57.532,46.811,104.343,104.344,104.343c52.203,0,95.577-38.546,103.163-88.67h-15.893    h-15.977H82.045l31.671-88.074l5.413-15.036l5.371-14.942c1.087,0.209,2.173,0.439,3.25,0.679    c8.098,1.87,15.83,4.671,23.082,8.307c1.066,0.522,2.121,1.076,3.156,1.641l-5.36,14.932l-5.423,15.057l-16.572,46.09h49.006    h15.977h15.893c-4.974-32.872-25.339-60.771-53.509-76.079l0.157-0.449l10.23-28.442l58.901,104.97h-15.778    c0.773,5.12,1.17,10.344,1.17,15.674c0,5.329-0.397,10.553-1.17,15.673h69.308l-0.052-0.094v-0.007l0.074,0.026l42.445-118.532    h41.627v0.001l2.487,8.411l0.01,0.042c0.094-0.052,0.188-0.094,0.282-0.125l0.021-0.01c9.206-4.305,19.132-7.293,29.56-8.735    h0.021c0.063-0.01,0.115-0.021,0.178-0.031L393.456,218.049z M256.488,300.893l-46.223-82.373l-0.001-0.001h75.721    L256.488,300.893z"/>
	</g>
</g>
<g>
</g>
<g>
</g>
<g>
</g>
<g>
</g>
<g>
</g>
<g>
</g>
<g>
</g>
<g>
</g>
<g>
</g>
<g>
</g>
<g>
</g>
<g>
</g>
<g>
</g>
<g>
</g>
<g>
</g>
</svg>
