<svg id="Capa_1" enable-background="new 0 0 510 510" height="512" viewBox="0 0 510 510" width="512" xmlns="http://www.w3.org/2000/svg"><g id="XMLID_845_"><path id="XMLID_849_" d="m0 435h60v75h-60z"/><path id="XMLID_879_" d="m0 360h60v45h-60z"/><path id="XMLID_884_" d="m363.594 240h136.11c6.658-18.776 10.296-38.97 10.296-60 0-99.252-80.748-180-180-180-66.488 0-124.668 36.239-155.837 90h-114.163v-60c0-16.568-13.432-30-30-30s-30 13.432-30 30v300h60v-60h114.163c31.169 53.761 89.349 90 155.837 90s124.668-36.239 155.836-90h-178.336c-37.22 0-67.5-30.28-67.5-67.5v-82.5h150c24.814 0 45 20.187 45 45s-20.186 45-45 45h-15.427c-1.223 11.01-5.097 21.23-10.979 30zm-303.594 0v-120h100.296c-6.658 18.776-10.296 38.97-10.296 60s3.638 41.224 10.296 60z"/><path id="XMLID_901_" d="m307.5 240c20.678 0 37.5-16.822 37.5-37.5v-52.5h-75v52.5c0 20.678 16.822 37.5 37.5 37.5z"/><path id="XMLID_909_" d="m405 165c0-8.271-6.728-15-15-15h-15v30h15c8.272 0 15-6.729 15-15z"/></g></svg>