<svg id="Capa_1" enable-background="new 0 0 512 512" height="512" viewBox="0 0 512 512" width="512" xmlns="http://www.w3.org/2000/svg"><g><path d="m452 196c-27.906 0-51.424 19.151-58.101 45h-32.965c.697 4.902 1.066 9.908 1.066 15s-.369 10.098-1.066 15h32.965c6.677 25.849 30.195 45 58.101 45 33.084 0 60-26.916 60-60s-26.916-60-60-60z"/><path d="m271 151.066v-32.965c25.849-6.677 45-30.195 45-58.101 0-33.084-26.916-60-60-60s-60 26.916-60 60c0 27.906 19.151 51.424 45 58.101v32.965c4.902-.697 9.908-1.066 15-1.066s10.098.369 15 1.066z"/><path d="m192.438 171.225-45.035-45.035c2.817-5.875 4.398-12.451 4.398-19.389 0-24.813-20.187-45-45-45s-45 20.187-45 45 20.187 45 45 45c6.939 0 13.514-1.581 19.389-4.398l45.035 45.035c6.035-8.03 13.183-15.178 21.213-21.213z"/><path d="m171.225 319.562-45.035 45.035c-5.875-2.817-12.451-4.398-19.389-4.398-24.813 0-45 20.187-45 45s20.187 45 45 45 45-20.187 45-45c0-6.939-1.581-13.514-4.398-19.389l45.035-45.035c-8.03-6.035-15.178-13.183-21.213-21.213z"/><path d="m319.562 340.775 45.035 45.035c-2.817 5.875-4.398 12.451-4.398 19.39 0 24.813 20.187 45 45 45s45-20.187 45-45-20.187-45-45-45c-6.939 0-13.514 1.581-19.389 4.398l-45.035-45.035c-6.035 8.029-13.183 15.177-21.213 21.212z"/><path d="m340.775 192.438 45.035-45.035c5.875 2.817 12.45 4.398 19.389 4.398 24.813 0 45-20.187 45-45s-20.187-45-45-45-45 20.187-45 45c0 6.939 1.581 13.515 4.398 19.39l-45.035 45.035c8.03 6.034 15.178 13.182 21.213 21.212z"/><path d="m241 360.934v32.965c-25.849 6.677-45 30.195-45 58.101 0 33.084 26.916 60 60 60s60-26.916 60-60c0-27.906-19.151-51.424-45-58.101v-32.965c-4.902.697-9.908 1.066-15 1.066s-10.098-.369-15-1.066z"/><path d="m151.066 241h-32.965c-6.678-25.849-30.195-45-58.101-45-33.084 0-60 26.916-60 60s26.916 60 60 60c27.906 0 51.424-19.151 58.101-45h32.965c-.697-4.902-1.066-9.908-1.066-15s.369-10.098 1.066-15z"/><circle cx="256" cy="256" r="76"/></g></svg>