<svg id="Capa_1" enable-background="new 0 0 512 512" height="512" viewBox="0 0 512 512" width="512" xmlns="http://www.w3.org/2000/svg"><g><circle cx="376" cy="316" r="15"/><circle cx="256" cy="196" r="15"/><path d="m497 241h15v-150h-361v60h-30v-60h-121v150h15c8.276 0 15 6.724 15 15s-6.724 15-15 15h-15v150h121v-60h30v60h361v-150h-15c-8.276 0-15-6.724-15-15s6.724-15 15-15zm-346 90h-30v-60h30zm0-90h-30v-60h30zm60-45c0-24.814 20.186-45 45-45s45 20.186 45 45-20.186 45-45 45-45-20.186-45-45zm23.789 120 141.211-141.211 21.211 21.211-141.211 141.211zm141.211 45c-24.814 0-45-20.186-45-45s20.186-45 45-45 45 20.186 45 45-20.186 45-45 45z"/></g></svg>