<svg id="Capa_1" enable-background="new 0 0 512.001 512.001" height="512" viewBox="0 0 512.001 512.001" width="512" xmlns="http://www.w3.org/2000/svg"><g><path d="m332.938 133.422c-11.027 0-21.632 3.778-30.156 10.544l20.374 51.362-36.059 34.69 9.049 54.168c56.649-38.34 85.339-72.676 85.339-102.218.001-26.767-21.777-48.546-48.547-48.546z"/><path d="m254.903 219.364 32.941-31.692-15.637-39.422c-9.135-9.449-21.718-14.828-34.894-14.828-26.77 0-48.548 21.778-48.548 48.547 0 27.846 25.503 59.952 75.87 95.655z"/><path d="m488.39 202.648c0-111.92-90.728-202.648-202.648-202.648-90.163 0-166.564 58.878-192.868 140.28l-9.76 60.392-59.504 98.703v29.92h47.385l20.165 110.149h112.918l17.139 72.557h228.021l-28.235-158.448c41.367-37.101 67.387-90.969 67.387-150.905zm-105.49 46.572c-26.783 31.967-62.486 56.157-97.774 77.726-35.288-21.569-70.991-45.759-97.774-77.726-18.969-22.639-28.586-45.265-28.586-67.25 0-43.311 35.236-78.547 78.548-78.547 17.421 0 34.2 5.799 47.812 16.25 13.612-10.451 30.392-16.25 47.812-16.25 43.312 0 78.548 35.236 78.548 78.547 0 21.985-9.617 44.611-28.586 67.25z"/></g></svg>