<svg id="Capa_1" enable-background="new 0 0 512.149 512.149" height="512" viewBox="0 0 512.149 512.149" width="512" xmlns="http://www.w3.org/2000/svg"><g><path d="m511.749 334.866-.988-12.814c-14.761-.801-57.462-7.109-86.762 19.714-15.805 15.806-19.628 38.862-11.085 56.921l-16.529 16.528 21.213 21.213 16.526-16.526c6.267 2.965 13.133 4.449 20.093 4.449 54.561-1.308 59.721-66.59 57.532-89.485z"/><path d="m245.135 232.735-16.528-16.528-21.213 21.213 16.528 16.528c-8.542 18.059-4.719 41.115 11.085 56.92 24.752 23.296 62.187 21.987 86.763 19.715.802-14.761 7.107-57.465-19.715-86.763-15.806-15.805-38.861-19.628-56.92-11.085z"/><path d="m310.1 155.713c24.523 2.274 62.027 3.582 86.763-19.714 15.013-14.679 20.177-38.264 11.117-56.952l16.497-16.497-21.213-21.213-16.528 16.528c-18.06-8.543-41.117-4.72-56.92 11.086-26.791 29.233-20.532 71.965-19.716 86.762z"/><path d="m382 246.813h87v30h-87z"/><path d="m0 246.813h115v30h-115z"/><path d="m439 114.813h73v30h-73z"/><path d="m280 380.813h84v30h-84z"/><path d="m154 410.732h30c0-41.862-34.057-75.919-75.919-75.919h-108.081v30h108.081c25.32 0 45.919 20.599 45.919 45.919z"/><path d="m274 112.309h-30c0 25.642-20.861 46.504-46.504 46.504h-135.496v30h135.496c42.185 0 76.504-34.32 76.504-76.504z"/><path d="m172 96.813h32v-30h-32c-34.187 0-62 27.813-62 62h30c0-17.645 14.355-32 32-32z"/><path d="m94 407.813h-30c0 34.738 28.262 63 63 63h153.681v-30h-153.681c-18.196 0-33-14.804-33-33z"/></g></svg>