<svg id="Capa_1" enable-background="new 0 0 512 512" height="512" viewBox="0 0 512 512" width="512" xmlns="http://www.w3.org/2000/svg"><g><path d="m184.288 97.49h143.424v46.867h-143.424z"/><path d="m214.288 45c0-8.271 6.729-15 15-15h53.424c8.271 0 15 6.729 15 15v22.49h30v-22.49c0-24.813-20.187-45-45-45h-53.424c-24.813 0-45 20.187-45 45v22.49h30z"/><path d="m363.237 174.357h-214.474c-17.084 0-30.934 13.849-30.934 30.934v1.811c13.525-2.397 28.946-1.037 40.193 4.1l.18.083c7.449 3.402 21.536 3.402 28.985 0l.093-.043c15.455-7.06 38.635-7.06 54.002-.039l.18.082c7.451 3.402 21.535 3.402 28.986 0l.093-.043c15.453-7.06 38.633-7.06 54.002-.04l.18.083c7.45 3.402 21.537 3.402 28.985 0l.093-.043c11.346-5.182 26.845-6.545 40.369-4.134v-1.817c0-17.085-13.849-30.934-30.933-30.934z"/><path d="m243.327 394.295c0 6.988 5.685 12.673 12.673 12.673s12.673-5.685 12.673-12.673c0-5.447-5.989-22.591-12.657-39.468-7.197 18.15-12.689 34.348-12.689 39.468z"/><path d="m366.353 238.49-.093.042c-15.457 7.06-38.635 7.06-54.002.039l-.18-.082c-7.449-3.403-21.536-3.403-28.985 0l-.093.043c-7.738 3.535-17.414 5.3-27.074 5.3-9.635 0-19.255-1.755-26.929-5.261l-.18-.082c-7.45-3.403-21.535-3.402-28.985 0l-.093.042c-15.457 7.06-38.635 7.06-54.002.039l-.18-.082c-7.051-3.222-20.041-3.388-27.728-.511v7.992c0 17.084 13.849 30.934 30.934 30.934-17.084 0-30.934 13.849-30.934 30.934v55.681c0 17.084 13.849 30.934 30.934 30.934-17.084 0-30.934 13.849-30.934 30.934v55.681c0 17.084 13.849 30.934 30.934 30.934h214.473c17.084 0 30.934-13.849 30.934-30.934v-55.681c0-17.084-13.849-30.934-30.934-30.934 17.084 0 30.934-13.849 30.934-30.934v-55.681c0-17.084-13.849-30.934-30.934-30.934 17.084 0 30.934-13.849 30.934-30.934v-7.956c-7.674-2.911-20.737-2.758-27.817.477zm-110.353 198.478c-23.53 0-42.673-19.143-42.673-42.673 0-18.285 21.461-67.229 28.038-81.793l3.986-8.827h21.18l4.034 8.675c.281.604 28.107 61.033 28.107 81.945.001 23.53-19.142 42.673-42.672 42.673z"/></g></svg>