<svg id="Capa_1" enable-background="new 0 0 512 512" height="512" viewBox="0 0 512 512" width="512" xmlns="http://www.w3.org/2000/svg"><g><path d="m370.4 272.204v94.28c18.927 2.602 36.564 9.308 51.972 19.201v-132.682c-15.407 9.893-33.044 16.598-51.972 19.201z"/><path d="m482 126.316v16.842.965c0 31.228-11.129 59.905-29.628 82.275v185.892c18.499 22.37 29.628 51.047 29.628 82.275v17.435h30v-367.877-.965-16.842z"/><path d="m116.078 241.158h30v31.632h-30z"/><path d="m173.286 241.158h30v31.632h-30z"/><path d="m230.494 241.158h30v31.632h-30z"/><path d="m340.4 273.42h-79.906v91.847h-30v-91.847h-27.208v91.847h-30v-91.847h-27.208v91.847h-30v-91.847h-86.12v29.811h-29.958v30h29.958v32.036h32.778c-2.681 6.122-4.179 12.875-4.179 19.975 0 27.556 22.419 49.975 49.975 49.975h7.546v30.256h30v-30.256h27.208v30.256h30v-30.256h27.208v30.256h30v-30.256h14.422c27.557 0 49.976-22.419 49.976-49.975 0-7.1-1.498-13.853-4.179-19.975h19.687zm-231.868 131.798c-11.014 0-19.975-8.961-19.975-19.975s8.961-19.975 19.975-19.975h7.546v39.95zm37.546 0v-39.95h27.208v39.95zm57.208 0v-39.95h27.208v39.95zm71.63 0h-14.422v-39.95h14.422c11.015 0 19.976 8.961 19.976 19.975s-8.961 19.975-19.976 19.975z"/><path d="m369.841 223.993c24.785 0 44.95-20.164 44.95-44.95 0-1.378-.072-2.739-.194-4.085h.194v-98.34h8.497c36.692 0 66.544-29.852 66.544-66.544v-10.074h-105.041v136.658c-4.68-1.656-9.71-2.566-14.95-2.566-24.786 0-44.951 20.164-44.951 44.95s20.165 44.951 44.951 44.951z"/><g><path d="m257.844 0h30v30.002h-30z"/><path d="m257.844 60.03h30v30.002h-30z"/><path d="m287.858 30.016h30.002v30h-30.002z"/><path d="m227.828 30.016h30.002v30h-30.002z"/></g></g></svg>