<svg id="Capa_1" enable-background="new 0 0 512 512" height="512" viewBox="0 0 512 512" width="512" xmlns="http://www.w3.org/2000/svg"><g><path d="m378.94 276.47v93.3c0 23.8-19.37 43.17-43.17 43.17h-165.74c-23.8 0-43.17-19.37-43.17-43.17v-93.3z"/><path d="m108.09 408.67-30.71 30.72c-47.73-46.5-77.38-111.49-77.38-183.39 0-12.68.92-25.15 2.71-37.34l94.15 51.69v99.42c0 14.28 4.12 27.62 11.23 38.9z"/><path d="m411.65 459.26c-43.13 33.08-97.1 52.74-155.65 52.74-58.66 0-112.71-19.73-155.88-52.92l28.81-28.81c11.72 7.99 25.88 12.67 41.1 12.67h165.74c16.71 0 32.13-5.63 44.46-15.1z"/><path d="m256 0c-117.83 0-217.07 79.61-246.86 187.98l106.57 58.49h274.38l111.94-61.44c-30.77-106.86-129.27-185.03-246.03-185.03zm-97.59 206.62c-32.48 0-58.91-26.43-58.91-58.92h30c0 15.95 12.97 28.92 28.91 28.92 15.95 0 28.92-12.97 28.92-28.92h30c0 32.49-26.43 58.92-58.92 58.92zm195.18 0c-32.49 0-58.92-26.43-58.92-58.92h30c0 15.95 12.97 28.92 28.92 28.92 15.94 0 28.91-12.97 28.91-28.92h30c0 32.49-26.43 58.92-58.91 58.92z"/><path d="m512 256c0 72.01-29.73 137.08-77.59 183.6l-34.56-34.56v-.01c5.79-10.46 9.09-22.48 9.09-35.26v-99.43l99.87-54.82c2.1 13.19 3.19 26.71 3.19 40.48z"/></g></svg>