<svg id="Capa_1" enable-background="new 0 0 512 512" height="512" viewBox="0 0 512 512" width="512" xmlns="http://www.w3.org/2000/svg"><g><path d="m196.033 150h-67.822v362h255v-362h-67.822c-9.937-13.182-23.985-22.418-39.562-26.88 20.159-59.191 24.884-64.635 24.884-78.12 0-24.814-20.186-45-45-45s-45 20.186-45 45c0 13.291 3.963 16.693 24.882 78.122-15.577 4.46-29.623 13.696-39.56 26.878zm59.678-120c8.262 0 15 6.724 15 15 0 4.705-1.186 5.126-15 45.029-14.234-41.118-15-40.445-15-45.029 0-8.276 6.738-15 15-15zm0 316c-24.814 0-45-20.186-45-45 0-19.53 12.578-36.024 30-42.237v-32.763h30v32.763c17.422 6.213 30 22.707 30 42.237h-30c0-8.276-6.738-15-15-15s-15 6.724-15 15 6.738 15 15 15c24.814 0 45 20.186 45 45 0 19.53-12.578 36.024-30 42.237v32.763h-30v-32.763c-17.422-6.213-30-22.707-30-42.237h30c0 8.276 6.738 15 15 15s15-6.724 15-15-6.738-15-15-15z"/><path d="m37 181v158.789l-15.789-15-21.211 21.211 51.211 51.211 51.211-51.211-21.211-21.211-15.211 15v-158.789z"/><path d="m446 181v173.789l-15.211-15-21.211 21.211 51.211 51.211 51.211-51.211-21.211-21.211-15.789 15v-173.789z"/></g></svg>