<svg id="Capa_1" enable-background="new 0 0 512 512" height="512" viewBox="0 0 512 512" width="512" xmlns="http://www.w3.org/2000/svg"><g><path d="m0 341.458h148.24v36.81h-148.24z"/><path d="m0 408.268h148.24v36.82h-148.24z"/><path d="m0 475.088h148.24v36.82h-148.24z"/><path d="m384 407.908v104h128v-104zm79 67h-30v-30h30z"/><path d="m50.94 143.083 7.061 34.123 34.489 5.007 4.933 23.832 29.377-6.081-9.195-44.419-34.487-5.007-7.06-34.125-34.485-5.004-4.929-23.826-29.377 6.078 9.189 44.418z"/><path d="m433.223 196.772 7.063-34.126 34.485-5.004 7.06-34.122 24.08-3.494-4.308-29.69-44.889 6.514-7.06 34.123-34.483 5.005-7.064 34.126-24.086 3.497 4.311 29.689z"/><path d="m201.106 156.418 14.504-43.263-27.23-22.507 11.231-33.494-27.229-22.502 7.955-23.722-28.443-9.538-14.508 43.259 27.231 22.502-11.231 33.492 27.232 22.508-7.955 23.729z"/><path d="m355.56.092-35.171 29.066 11.23 33.491-27.229 22.503 11.23 33.497-19.292 15.944 19.113 23.124 35.171-29.07-11.228-33.496 27.229-22.504-11.23-33.49 19.288-15.94z"/><path d="m178.24 511.908h175.76v-264h-175.76zm101.76-211.78h30v30h-30zm0 64.39h30v30h-30zm0 64.39h30v30h-30zm-60-128.78h30v30h-30zm0 64.39h30v30h-30zm0 64.39h30v30h-30z"/></g></svg>