<svg id="Capa_1" enable-background="new 0 0 512 512" height="512" viewBox="0 0 512 512" width="512" xmlns="http://www.w3.org/2000/svg"><g><path d="m316.5 361.5c0 33.36-27.141 60.5-60.5 60.5s-60.5-27.14-60.5-60.5v-60.5h60.5c82.986 0 150.5-67.514 150.5-150.5s-67.514-150.5-150.5-150.5-150.5 67.514-150.5 150.5v211c0 82.986 67.514 150.5 150.5 150.5s150.5-67.514 150.5-150.5v-15h-90zm-60.5-271.5c33.359 0 60.5 27.14 60.5 60.5s-27.141 60.5-60.5 60.5h-60.5v-60.5c0-33.36 27.141-60.5 60.5-60.5z"/></g></svg>