<svg id="Capa_1" enable-background="new 0 0 512 512" height="512" viewBox="0 0 512 512" width="512" xmlns="http://www.w3.org/2000/svg"><g><path d="m0 263.045v71.45h512v-71.45z"/><path d="m0 364.495v46h512v-46c-7.477 0-512 0-512 0z"/><path d="m0 440.495v71.46h512v-71.46c-7.477 0-512 0-512 0z"/><path d="m130.36 156.785c12.02 15.93 18.64 37.32 18.64 60.26h30c-.583-37.067 20.843-81.956 59-83v-30c-38.173-1.066-59.568-45.908-59-83h-30c.583 37.067-20.843 81.956-59 83v30c14.95 0 29.28 8.08 40.36 22.74z"/><path d="m286.15 74.045v15c32.53 0 59 26.47 59 59h30c0-32.53 26.46-59 59-59v-30c-32.54 0-59-26.47-59-59h-30c0 32.53-26.47 59-59 59v15c-.001 0-.002 0-.002 0z"/></g></svg>