<svg id="Capa_1" enable-background="new 0 0 511.121 511.121" height="512" viewBox="0 0 511.121 511.121" width="512" xmlns="http://www.w3.org/2000/svg"><g><path d="m120.5 105.816h30v-30.125h30.125v-30h-30.125v-30.125h-30v30.125h-30.125v30h30.125z"/><path d="m60.25 166.191h30v30h-30z"/><path d="m30.125 105.941h30v30h-30z"/><path d="m384 495.554c65.617 0 119.693-49.377 127.121-113h-254.242c7.428 63.623 61.504 113 127.121 113z"/><path d="m256.88 352.554h254.241c-7.428-63.623-61.504-113-127.121-113s-119.692 49.377-127.12 113z"/><path d="m238.089 306.856-115.205-115.205-85.394 85.394c-49.987 49.987-49.987 131.032 0 181.019 49.987 49.987 131.032 49.987 181.019 0l22.733-22.733c-9.768-20.54-15.242-43.518-15.242-67.777 0-21.508 4.305-42.009 12.089-60.698z"/><path d="m384 209.554c19.681 0 38.516 3.609 55.895 10.184 16.441-45.277 6.513-97.972-29.797-134.281-49.987-49.987-131.032-49.987-181.019 0l-84.982 84.982 108.843 108.842c28.388-42.065 76.493-69.727 131.06-69.727z"/></g></svg>