<svg id="Capa_1" enable-background="new 0 0 504.961 504.961" height="512" viewBox="0 0 504.961 504.961" width="512" xmlns="http://www.w3.org/2000/svg"><g><path d="m504.961 215.801-24.961-16.641-25.547 38.32h-37.662c-3.101-34.25-16.707-65.512-37.57-90.527l32.358-32.358-21.213-21.213-32.358 32.358c-25.015-20.863-56.276-34.469-90.527-37.57v-37.661l38.32-25.547-16.641-24.962-36.68 24.453-36.679-24.453-16.641 24.962 38.32 25.547v37.661c-34.25 3.102-65.512 16.707-90.527 37.57l-32.358-32.358-21.213 21.213 32.358 32.358c-20.863 25.016-34.469 56.277-37.57 90.527h-37.661l-25.547-38.32-24.962 16.641 24.453 36.68-24.453 36.679 24.962 16.641 25.547-38.32h37.661c3.102 34.251 16.707 65.513 37.57 90.527l-32.358 32.358 21.213 21.213 32.358-32.358c25.016 20.863 56.277 34.47 90.527 37.571v37.661l-38.32 25.547 16.641 24.961 36.68-24.453 36.68 24.453 16.64-24.961-38.32-25.547v-37.661c34.25-3.102 65.512-16.708 90.527-37.571l32.358 32.358 21.213-21.213-32.358-32.358c20.863-25.016 34.469-56.276 37.57-90.527h37.662l25.547 38.32 24.961-16.641-24.453-36.68zm-327.481-23.321h30v30h-30zm-15 105c0-24.813 20.188-45 45-45 24.814 0 45 20.187 45 45 0 24.814-20.186 45-45 45-24.812 0-45-20.186-45-45zm165 15h-30v-30h30zm-30-60c-24.814 0-45-20.187-45-45 0-24.812 20.186-45 45-45s45 20.188 45 45c0 24.814-20.186 45-45 45z"/><circle cx="297.48" cy="207.48" r="15"/><circle cx="207.48" cy="297.48" r="15"/></g></svg>