<?xml version="1.0" encoding="iso-8859-1"?>
<!-- Generator: Adobe Illustrator 19.0.0, SVG Export Plug-In . SVG Version: 6.00 Build 0)  -->
<svg xmlns="http://www.w3.org/2000/svg" xmlns:xlink="http://www.w3.org/1999/xlink" version="1.1" id="Layer_1" x="0px" y="0px" viewBox="0 0 512 512" style="enable-background:new 0 0 512 512;" xml:space="preserve">
<g>
	<g>
		<polygon points="200.442,218.378 193.782,204.202 125.556,58.868 118.896,44.703 112.247,30.527 72.623,49.244 167.947,251.039     207.091,232.553   "/>
	</g>
</g>
<g>
	<g>
		<path d="M395.118,243.545c-5.679,0-11.105,1.075-16.095,3.026L294.131,163.5c19.883-12.735,34.714-27.973,43.19-44.444    c11.524-22.422,11.545-47.13,0.052-71.462c-21.608-45.741-67.349-59.311-125.48-37.234    c-27.589,10.491-55.052,12.182-68.748,12.265l7.276,15.512l7.192,15.303l60.814,129.551l7.213,15.355l7.286,15.522    c2.62-3.163,6.19-7.265,10.637-11.868c6.232-6.451,14.186-13.873,23.633-21.044l88.56,86.66    c-3.121,6.054-4.885,12.912-4.885,20.177c0,13.841,6.378,26.211,16.357,34.342l-79.363,95.689h40.689l71.347-86.034    c22.161-2.39,39.478-21.211,39.478-43.998C439.377,263.388,419.523,243.545,395.118,243.545z M395.118,300.737    c-7.129,0-12.933-5.804-12.933-12.944c0-7.129,5.804-12.933,12.933-12.933c7.14,0,12.944,5.804,12.944,12.933    C408.062,294.933,402.258,300.737,395.118,300.737z"/>
	</g>
</g>
<g>
	<g>
		<polygon points="376.548,449.14 302.582,449.14 300.525,449.14 205.295,449.14 189.638,449.14 189.638,512 392.206,512     392.206,449.14   "/>
	</g>
</g>
<g>
</g>
<g>
</g>
<g>
</g>
<g>
</g>
<g>
</g>
<g>
</g>
<g>
</g>
<g>
</g>
<g>
</g>
<g>
</g>
<g>
</g>
<g>
</g>
<g>
</g>
<g>
</g>
<g>
</g>
</svg>
