<svg id="Capa_1" enable-background="new 0 0 512 512" height="512" viewBox="0 0 512 512" width="512" xmlns="http://www.w3.org/2000/svg"><g><path d="m398.323 0h-127.323v128h-30v-128h-127.323c0 99.979-96.681 117.345-96.681 285.649 0 66.351 30.807 161.861 45.483 226.351h142.634l21.267-158.927c-18.283 13.608-40.895 21.711-65.363 21.801-24.13 1.249-48.833-1.201-71.12-11.124l12.201-27.406c18.07 8.044 38.993 9.93 58.512 8.531 44.327 0 80.391-36.063 80.391-80.391h30c0 44.328 36.063 80.391 80.391 80.391 19.755 1.423 40.97-.538 59.196-8.84l12.436 27.302c-20.244 9.22-43.816 12.996-72.039 11.537-24.469-.09-47.081-8.193-65.363-21.801l21.265 158.927h142.634c14.676-64.49 45.483-160 45.483-226.351 0-168.304-96.681-185.67-96.681-285.649zm-212.845 170.606-21.213-21.213 32-32 21.213 21.213zm141.044 0-32-32 21.213-21.213 32 32z"/></g></svg>