<svg id="Capa_1" enable-background="new 0 0 512.054 512.054" height="512" viewBox="0 0 512.054 512.054" width="512" xmlns="http://www.w3.org/2000/svg"><g><path d="m241.027 389.467c-23.046-1.618-45.439-6.968-66.751-15.982-8.021-3.392-15.775-7.26-23.249-11.576v150.145l90-32.9z"/><path d="m337.778 373.485c-21.312 9.014-43.705 14.364-66.751 15.982v89.687l90 32.9v-150.145c-7.475 4.316-15.228 8.184-23.249 11.576z"/><path d="m256.027 0c-99.411 0-180 80.589-180 180s80.589 180 180 180 180-80.589 180-180-80.589-180-180-180zm-30 300v-30h60v30zm125.459-24.541-21.213-21.213c27.098-27.098 36.253-65.442 27.479-100.146l-56.788 23.523c.041.787.063 1.58.063 2.377 0 24.813-20.187 45-45 45s-45-20.187-45-45 20.187-45 45-45c13.257 0 25.189 5.765 33.432 14.916l56.848-23.547c-4.37-7.357-9.712-14.293-16.034-20.615-19.832-19.832-46.199-30.754-74.246-30.754s-54.414 10.922-74.246 30.753c-40.939 40.94-40.939 107.553 0 148.493l-21.213 21.213c-52.637-52.636-52.637-138.282 0-190.919 25.498-25.498 59.4-39.54 95.459-39.54s69.961 14.042 95.459 39.541c52.637 52.636 52.637 138.282 0 190.918z"/><circle cx="256.027" cy="180" r="15"/></g></svg>