<?xml version="1.0" encoding="iso-8859-1"?>
<!-- Generator: Adobe Illustrator 19.0.0, SVG Export Plug-In . SVG Version: 6.00 Build 0)  -->
<svg xmlns="http://www.w3.org/2000/svg" xmlns:xlink="http://www.w3.org/1999/xlink" version="1.1" id="Layer_1" x="0px" y="0px" viewBox="0 0 512 512" style="enable-background:new 0 0 512 512;" xml:space="preserve">
<g>
	<g>
		<path d="M382.172,27.621c-44.431-11.697-78.861-13.773-104.221-14.086C273.888,5.519,265.585,0,256,0s-17.888,5.519-21.952,13.535    c-25.362,0.313-59.796,2.385-104.24,14.086C89.674,38.187,79.377,92.97,76.782,141.405c1.491-0.71,2.798-1.281,3.805-1.719    c10.744-4.676,25.576-9.195,42.891-13.067c38.937-8.708,85.997-13.503,132.512-13.503c46.513,0,93.573,4.795,132.51,13.503    c17.316,3.872,32.149,8.391,42.893,13.067c1.007,0.438,2.315,1.01,3.805,1.719C432.604,92.971,422.307,38.188,382.172,27.621z"/>
	</g>
</g>
<g id="SVGCleanerId_0">
	<g>
		<path d="M255.999,136.93c-99.434,0.001-180.039,22.57-180.039,35.721c0,41.462,33.55,75.014,75.013,75.016h0.006    c52.51-0.001,52.512-30.004,105.021-30.007c52.51,0.002,52.511,30.007,105.023,30.007c41.464,0,75.016-33.551,75.016-75.016    C436.038,159.5,355.433,136.931,255.999,136.93z"/>
	</g>
</g>
<g>
	<g>
		<path d="M255.999,136.93c-99.434,0.001-180.039,22.57-180.039,35.721c0,41.462,33.55,75.014,75.013,75.016h0.006    c52.51-0.001,52.512-30.004,105.021-30.007c52.51,0.002,52.511,30.007,105.023,30.007c41.464,0,75.016-33.551,75.016-75.016    C436.038,159.5,355.433,136.931,255.999,136.93z"/>
	</g>
</g>
<g>
	<g>
		<path d="M400.332,276.173v16.517l-56.478,56.477l-28.739-28.738c-7.203-7.203-16.778-11.17-26.965-11.17h-64.3    c-10.186,0-19.763,3.967-26.965,11.169l-28.739,28.739l-56.478-56.477v-16.519c-13.324-5.076-25.423-12.652-35.721-22.154v98.204    c0,30.982,14.797,60.577,39.582,79.166l81.096,60.822C213.89,505.156,234.421,512,256,512c21.58,0,42.11-6.844,59.374-19.792    l81.096-60.822c24.786-18.589,39.582-48.184,39.582-79.166v-98.205C425.755,263.519,413.655,271.096,400.332,276.173z     M302.666,390.356h-93.332l-15.93-15.93l28.74-28.739c0.456-0.456,1.062-0.706,1.706-0.706h64.3c0.635,0,1.257,0.257,1.706,0.707    l28.739,28.739L302.666,390.356z"/>
	</g>
</g>
<g>
</g>
<g>
</g>
<g>
</g>
<g>
</g>
<g>
</g>
<g>
</g>
<g>
</g>
<g>
</g>
<g>
</g>
<g>
</g>
<g>
</g>
<g>
</g>
<g>
</g>
<g>
</g>
<g>
</g>
</svg>
