<svg id="Capa_1" enable-background="new 0 0 512 512" height="512" viewBox="0 0 512 512" width="512" xmlns="http://www.w3.org/2000/svg"><g><path d="m60.553 410.952h-60.553v44.934c0 30.941 25.222 56.114 56.224 56.114h60.553v-44.824c0-31.003-25.222-56.224-56.224-56.224z"/><path d="m451.447 410.952c-31.002 0-56.224 25.172-56.224 56.114v44.934h60.553c31.002 0 56.224-25.222 56.224-56.224v-44.824z"/><path d="m211 0h90v83.636h-90z"/><path d="m145.941 512h220.118v-289.363h-220.118zm110.059-238.433s21.921 26.707 31.965 41.703c9.461 14.125 22.04 34.773 22.04 50.928 0 29.778-24.226 54.005-54.004 54.005s-54.004-24.227-54.004-54.005c0-16.154 12.578-36.803 22.04-50.928 10.042-14.996 31.963-41.703 31.963-41.703z"/><path d="m366.059 151.423-37.787-37.787h-144.544l-37.787 37.787v41.214h220.118z"/><path d="m256 390.203c13.236 0 24.004-10.769 24.004-24.005 0-6.287-9.277-24.217-24.004-44.488-14.732 20.289-24.004 38.217-24.004 44.488 0 13.236 10.768 24.005 24.004 24.005z"/></g></svg>