<?xml version="1.0" encoding="iso-8859-1"?>
<!-- Generator: Adobe Illustrator 19.0.0, SVG Export Plug-In . SVG Version: 6.00 Build 0)  -->
<svg xmlns="http://www.w3.org/2000/svg" xmlns:xlink="http://www.w3.org/1999/xlink" version="1.1" id="Layer_1" x="0px" y="0px" viewBox="0 0 512 512" style="enable-background:new 0 0 512 512;" xml:space="preserve">
<g>
	<g>
		<path d="M437.02,87.16C388.667,38.809,324.38,12.18,256,12.18S123.333,38.809,74.98,87.16C26.629,135.513,0,199.8,0,268.18v96.139    c0,74.715,60.785,135.5,135.5,135.5c52.416,0,97.974-29.912,120.5-73.566c22.526,43.654,68.084,73.566,120.5,73.566    c74.715,0,135.5-60.785,135.5-135.5V268.18C512,199.8,485.371,135.513,437.02,87.16z M200.434,383.23l-17.429-5.21    c-3.684,4.527-7.999,8.517-12.811,11.841l6.605,12.237l-26.399,14.25l-8.622-15.974c-2.084,0.215-4.198,0.327-6.338,0.327    c-3.798,0-7.51-0.365-11.118-1.029l-3.977,13.305l-28.743-8.592l5.209-17.429c-4.527-3.684-8.517-7.999-11.841-12.811    l-12.237,6.605l-14.25-26.4l15.974-8.623c-0.215-2.084-0.327-4.198-0.327-6.337h30c0,17.265,14.046,31.311,31.311,31.311    c17.265,0,31.311-14.046,31.311-31.311h30c0,3.797-0.365,7.509-1.029,11.118l13.305,3.977L200.434,383.23z M439.269,380.752    l-12.237-6.605c-3.324,4.812-7.314,9.127-11.841,12.811l5.209,17.429l-28.743,8.592l-3.977-13.305    c-3.609,0.664-7.321,1.029-11.118,1.029c-2.14,0-4.254-0.112-6.338-0.327l-8.622,15.974l-26.399-14.25l6.605-12.237    c-4.812-3.324-9.128-7.314-12.811-11.841l-17.429,5.21l-8.592-28.744l13.305-3.977c-0.664-3.608-1.029-7.32-1.029-11.118h30    c0,17.265,14.046,31.311,31.311,31.311s31.311-14.046,31.311-31.311h30c0,2.14-0.112,4.253-0.327,6.337l15.974,8.623    L439.269,380.752z M482,279.394c-24.859-30.821-62.913-50.576-105.5-50.576h-241c-42.587,0-80.641,19.755-105.5,50.576V268.18    c0-60.367,23.508-117.12,66.194-159.807C138.88,65.687,195.633,42.18,256,42.18s117.12,23.508,159.806,66.193    C458.492,151.06,482,207.812,482,268.18V279.394z"/>
	</g>
</g>
<g>
</g>
<g>
</g>
<g>
</g>
<g>
</g>
<g>
</g>
<g>
</g>
<g>
</g>
<g>
</g>
<g>
</g>
<g>
</g>
<g>
</g>
<g>
</g>
<g>
</g>
<g>
</g>
<g>
</g>
</svg>
