<svg id="Capa_1" enable-background="new 0 0 510 510" height="512" viewBox="0 0 510 510" width="512" xmlns="http://www.w3.org/2000/svg"><g><path d="m45 0h60v510h-60z"/><path d="m345 0v45c0 8.271 6.728 15 15 15h15v15c0 16.542 13.458 30 30 30h15v15c0 8.271 6.728 15 15 15h30v-135z"/><path d="m392.102 133.604c-22.751-5.003-40.703-22.955-45.706-45.705-18.184-5.78-31.396-22.826-31.396-42.899v-45h-30v45c0 20.073-13.212 37.119-31.396 42.899-5.002 22.75-22.954 40.702-45.704 45.705-5.781 18.184-22.828 31.396-42.9 31.396h-30v180h30c20.072 0 37.119 13.212 42.899 31.396 22.75 5.003 40.702 22.955 45.704 45.706 18.185 5.779 31.397 22.825 31.397 42.898v45h30v-45c0-20.073 13.212-37.119 31.396-42.898 5.003-22.751 22.955-40.703 45.706-45.706 5.779-18.184 22.825-31.396 42.898-31.396h30v-180h-30c-20.073 0-37.119-13.212-42.898-31.396zm-17.102 154.009v42.387h-42.387l-32.613 38.049-32.613-38.049h-42.387v-42.387l-38.049-32.613 38.049-32.613v-42.387h42.387l32.613-38.049 32.613 38.049h42.387v42.387l38.049 32.613z"/><path d="m345 210h-26.185l-18.815-21.951-18.815 21.951h-26.185v26.185l-21.951 18.815 21.951 18.815v26.185h26.185l18.815 21.951 18.815-21.951h26.185v-26.185l21.951-18.815-21.951-18.815z"/><path d="m180 120v-15h15c16.542 0 30-13.458 30-30v-15h15c8.271 0 15-6.729 15-15v-45h-120v135h30c8.271 0 15-6.729 15-15z"/><path d="m420 390v15h-15c-16.542 0-30 13.458-30 30v15h-15c-8.272 0-15 6.728-15 15v45h120v-135h-30c-8.272 0-15 6.728-15 15z"/><path d="m240 450h-15v-15c0-16.542-13.458-30-30-30h-15v-15c0-8.272-6.729-15-15-15h-30v135h120v-45c0-8.272-6.729-15-15-15z"/></g></svg>