<svg id="Capa_1" enable-background="new 0 0 510 510" height="512" viewBox="0 0 510 510" width="512" xmlns="http://www.w3.org/2000/svg"><g id="XMLID_2895_"><path id="XMLID_3338_" d="m.036 45v-45h340.629c-1.885 1.664-3.729 3.385-5.522 5.178-31.066 31.066-41.479 75.062-31.29 114.822h-303.817v-45h255v-30z"/><path id="XMLID_3690_" d="m483.645 153.681c35.093-35.094 35.093-92.195 0-127.29-17.549-17.548-40.593-26.32-63.645-26.32-23.046 0-46.1 8.775-63.645 26.319-35.093 35.095-35.093 92.196 0 127.29 35.095 35.093 92.197 35.093 127.29.001zm-42.432-21.219-21.213-21.213-21.213 21.213-21.214-21.213 21.214-21.213-21.214-21.214 21.214-21.213 21.213 21.214 21.213-21.214 21.213 21.213-21.213 21.214 21.213 21.213z"/><path id="XMLID_3792_" d="m120.036 285c-8.271 0-15-6.728-15-15v-30c0-8.271 6.729-15 15-15s15 6.729 15 15v30c0 8.272-6.729 15-15 15z"/><path id="XMLID_3800_" d="m315.036 390c8.271 0 15 6.729 15 15 0 8.272-6.729 15-15 15h-30c-8.271 0-15-6.728-15-15 0-8.271 6.729-15 15-15z"/><circle id="XMLID_3816_" cx="120.036" cy="405" r="30"/><path id="XMLID_3819_" d="m315.036 150h-315v360h420v-300.015c-.011 0-.022 0-.034 0-30.732 0-61.463-11.696-84.858-35.092-7.605-7.605-13.967-15.989-19.1-24.894h-1.008zm-150 120c0 24.814-20.186 45-45 45-24.812 0-45-20.186-45-45v-30c0-24.813 20.188-45 45-45 24.814 0 45 20.187 45 45zm15 135c0 33.084-26.916 60-60 60s-60-26.916-60-60 26.916-60 60-60c33.083 0 60 26.916 60 60zm105-45h30c24.813 0 45 20.187 45 45 0 24.814-20.187 45-45 45h-30c-24.812 0-45-20.186-45-45 0-24.813 20.187-45 45-45zm15-150c24.813 0 45 20.187 45 45 0 24.814-20.187 45-45 45-24.812 0-45-20.186-45-45 0-24.813 20.187-45 45-45z"/><circle id="XMLID_3869_" cx="300.036" cy="255" r="15"/></g></svg>