<?xml version="1.0" encoding="iso-8859-1"?>
<!-- Generator: Adobe Illustrator 19.0.0, SVG Export Plug-In . SVG Version: 6.00 Build 0)  -->
<svg xmlns="http://www.w3.org/2000/svg" xmlns:xlink="http://www.w3.org/1999/xlink" version="1.1" id="Layer_1" x="0px" y="0px" viewBox="0 0 512 512" style="enable-background:new 0 0 512 512;" xml:space="preserve">
<g>
	<g>
		<path d="M345.545,195.367c-4.601-13.355-13.508-23.024-24.439-26.53c-30.589-9.809-54.856,8.416-55.878,9.198l-9.458,7.655    l-9.077-7.715c-0.942-0.721-25.199-18.947-55.798-9.138c-10.931,3.507-19.848,13.186-24.447,26.551    c-6.813,19.798-3.226,42.863,9.599,61.699c13.125,19.297,21.712,41.16,24.828,63.222c0.16,1.162,0.321,2.355,0.481,3.577    c3.276,25.419,8.106,39.096,11.572,45.538c3.417-7.535,7.805-22.263,10.1-43.083c1.463-13.236,5.14-24.067,10.921-32.202    c5.06-7.134,13.306-11.382,22.053-11.382c8.747,0,16.993,4.248,22.053,11.382c5.781,8.136,9.458,18.967,10.921,32.202    c2.294,20.82,6.683,35.549,10.099,43.083c3.467-6.443,8.296-20.119,11.572-45.538c0.15-1.172,0.301-2.324,0.461-3.447    c3.116-22.103,11.713-44.025,24.878-63.393C348.792,238.21,352.368,215.155,345.545,195.367z"/>
	</g>
</g>
<g>
	<g>
		<path d="M449.104,116.265C365.482,100.995,267.213,10.43,266.231,9.518L256,0l-10.23,9.518    c-0.982,0.912-99.112,91.447-182.874,106.746l-12.324,2.254v132.216c0,64.194,23.646,125.924,64.875,169.357    C145.857,452.124,251.813,509.736,256,512c4.188-2.264,110.143-59.876,140.552-91.908c41.23-43.434,64.875-105.163,64.875-169.357    V118.519L449.104,116.265z M360.844,273.95c-10.59,15.58-17.494,33.104-19.969,50.678c-0.14,1.012-0.281,2.054-0.421,3.106    c-6.302,48.885-19.438,73.662-40.178,75.736c-28.415,2.835-38.004-45.037-41.18-73.833c-0.671-6.062-1.844-10.4-3.096-13.486    c-1.253,3.086-2.425,7.424-3.096,13.486c-3.086,27.974-12.214,73.953-38.795,73.953c-0.782,0-1.573-0.04-2.385-0.12    c-20.74-2.074-33.875-26.852-40.178-75.736c-0.14-1.092-0.291-2.164-0.441-3.216c-2.475-17.544-9.358-35.008-19.908-50.508    c-18.135-26.641-23.055-59.685-13.176-88.401c7.715-22.423,23.646-38.965,43.695-45.398c32.833-10.53,60.517,0.501,74.284,8.166    c13.767-7.665,41.45-18.696,74.284-8.166c10.019,3.216,19.017,8.957,26.461,16.692c7.454,7.735,13.366,17.474,17.223,28.675    C383.857,214.274,378.948,247.308,360.844,273.95z"/>
	</g>
</g>
<g>
</g>
<g>
</g>
<g>
</g>
<g>
</g>
<g>
</g>
<g>
</g>
<g>
</g>
<g>
</g>
<g>
</g>
<g>
</g>
<g>
</g>
<g>
</g>
<g>
</g>
<g>
</g>
<g>
</g>
</svg>
