<svg id="Capa_1" enable-background="new 0 0 512.549 512.549" height="512" viewBox="0 0 512.549 512.549" width="512" xmlns="http://www.w3.org/2000/svg"><g><path d="m100.158 425.317c-9.15 0-18.07-.95-26.69-2.75 3.56 23.47 5.37 47.23 5.4 70.97 28.29-9.41 57.12-16.29 86.23-20.59-14.73-14.46-25.86-32.26-32.37-51.74-10.54 2.72-21.46 4.11-32.57 4.11z"/><path d="m379.628 421.187c-6.63 19.93-17.88 37.56-32.4 51.76 29.12 4.29 57.96 11.18 86.26 20.59.03-23.74 1.84-47.49 5.4-70.97-19.204 4.061-40.189 3.624-59.26-1.38z"/><path d="m491.258 233.777c-25.13 40.73-67.95 69.43-117.67 75.3-39.105 42.641-101.925 60.987-157.84 45.95-12.053 23.435-31.533 43.025-55 55.35 31.864 97.842 173.24 90.133 193.71-11.242 0 .002 3.45-17.878 3.45-17.878l16.89 6.81c93.333 37.764 178.826-73.488 116.46-154.29z"/><path d="m100.158 395.317c35.397.369 69.911-19.829 87.11-50.7-18.192-8.667-34.685-20.827-48.37-35.52-48.086-5.358-92.542-33.82-117.84-75.26-51.143 66.052-3.067 161.637 79.1 161.48z"/><path d="m61.968 238.327c14.29 15.44 31.85 27.04 51.19 34.05-50.048-95.027 12.465-215.429 117.17-230.95-130.72-82.466-270.148 80.649-168.36 196.9z"/><path d="m388.078 101.527c46.245 65.192 13.435 154.445-62.041 169.97-9.019 1.94-18.107 3.114-27.069 3.75 18.876 3.706 43.628 5.867 66.07 4.54 67.687-5.359 120.165-62.46 120.02-130.01.912-102.833-117.472-166.282-202.44-108.74 44.73 5.85 81.59 26.82 105.46 60.49z"/><path d="m125.758 199.767c.58 103.81 114.682 165.195 201.38 109.4-54.53-3.677-120.534-24.902-136.81-81.01-.01-.02-.01-.04-.02-.05-10.903-31.1 3.107-66.956 31.55-82.73 63.296-34.998 131.088 36.365 92.97 97.76 57.877-8.79 83.601-73.952 48.779-124.26-29.029-40.94-74.449-49.53-107.429-49.53-70.851-.347-130.706 58.334-130.42 130.42z"/><path d="m216.648 205.377c-.385 21.47 17.391 40.076 39.53 39.98 21.8 0 39.53-17.73 39.53-39.53-2.13-52.182-76.364-52.545-79.06-.45z"/></g></svg>