<svg id="Layer_1" enable-background="new 0 0 510 510" height="512" viewBox="0 0 510 510" width="512" xmlns="http://www.w3.org/2000/svg"><g><path d="m420 90h-330v330h330zm-120 30h30v30h-30zm60 60v30h-30v-30zm-30 60v30h-30v-30zm-30-30h-30v-30h30zm-60-90h30v30h-30zm30 120v30h-30v-30zm-30-30h-30v-30h30zm-60-90h30v30h-30zm30 120v30h-30v-30zm-30-30h-30v-30h30zm-60-90h30v30h-30zm0 120h30v30h-30zm30 150h-30v-30h30zm0-90h30v30h-30zm60 90h-30v-30h30zm0-90h30v30h-30zm60 90h-30v-30h30zm0-90h30v30h-30zm60 90h-30v-30h30zm0-90h30v30h-30zm60 90h-30v-30h30zm0-120h-30v-30h30zm0-120h-30v-30h30z"/><path d="m0 0v510h510v-510zm450 450h-390v-390h390z"/></g></svg>