<svg id="Capa_1" enable-background="new 0 0 512.005 512.005" height="512" viewBox="0 0 512.005 512.005" width="512" xmlns="http://www.w3.org/2000/svg"><g><path d="m388.599 181.552c50.055 0 90.776-40.722 90.776-90.776s-40.721-90.776-90.776-90.776-90.776 40.722-90.776 90.776 40.721 90.776 90.776 90.776zm-54.726-124.958 21.213-21.213 33.848 33.848 33.848-33.848 21.213 21.213-33.848 33.848 33.848 33.848-21.213 21.213-33.848-33.848-33.848 33.848-21.213-21.213 33.848-33.848z"/><path d="m475.05 337.173-59.047-39.751-28.287-85.88c-66.191-.478-119.893-54.464-119.893-120.765 0-5.427.366-10.771 1.063-16.01-4.247-.468-8.544-.72-12.884-.718-51.154.021-97.593 33.458-113.532 82.466l-46.468 141.535-58.926 39.284c-23.161 15.441-37.074 41.436-37.074 69.273 0 45.941 37.212 83.199 83.153 83.255l80.271.099c-4.158-6.847-7.618-14.222-10.232-22.064-5.354-16.06-20.323-26.85-37.252-26.85h-28.643v-30h28.644c29.861 0 56.27 19.034 65.713 47.363 10.685 32.057 40.567 53.595 74.357 53.595s63.673-21.538 74.358-53.595c9.443-28.329 35.852-47.363 65.713-47.363h28.191v30h-28.191c-16.929 0-31.898 10.79-37.252 26.85-2.643 7.928-6.148 15.38-10.368 22.29l79.746.098c46.26.057 83.792-37.429 83.792-83.689 0-27.848-13.852-53.872-36.952-69.423z"/></g></svg>