<svg id="Capa_1" enable-background="new 0 0 512 512" height="512" viewBox="0 0 512 512" width="512" xmlns="http://www.w3.org/2000/svg"><g><path d="m192.241 376.457v68.074h127.428v-68.074l-39.357-11.245v-51.773l8.996-3.929c25.275-11.039 41.697-35.989 41.697-63.562v-25.602h-150.009v25.602c0 27.573 16.331 52.523 41.606 63.562l8.996 3.929v51.773z"/><path d="m136.062 152.876h239.875v37.469h-239.875z"/><path d="m207.266 35.912c-21.678 6.448-37.536 36.548-37.536 60.291v26.673h37.535v-86.964z"/><path d="m162.286 385.029-10.658 3.045c-22.407 6.402-38.056 27.147-38.056 50.45v73.476h48.714z"/><path d="m354.302 281.72c-8.211 21.264-23.617 39.359-43.946 50.8v10.063l58.258 16.645c11.2 3.2 21.319 8.687 29.921 15.852 14.631-28.906 5.934-46.537-9.504-61.559-3.166-2.62-30.634-26.422-34.729-31.801z"/><path d="m304.734 35.912v86.965h37.535v-26.674c.001-23.743-15.857-53.843-37.535-60.291z"/><path d="m122.969 313.52c-15.438 15.022-24.136 32.653-9.504 61.559 8.602-7.165 18.721-12.652 29.921-15.852l58.258-16.645v-10.062c-20.328-11.441-35.733-29.536-43.945-50.81-4.093 5.383-31.565 29.192-34.73 31.81z"/><path d="m398.428 438.524c0-23.303-15.648-44.048-38.056-50.45l-10.658-3.045v126.971h48.714z"/><path d="m192.286 474.531h127.428v37.469h-127.428z"/><path d="m237.266 0h37.469v122.876h-37.469z"/></g></svg>