<svg id="Capa_1" enable-background="new 0 0 512 512" height="512" viewBox="0 0 512 512" width="512" xmlns="http://www.w3.org/2000/svg"><g><path d="m241 166h30v39.272l78.545-39.272h162.455v-150h-271zm180-90h30v30h-30zm-60 0h30v30h-30zm-60 0h30v30h-30z"/><path d="m0 346.291c68.494 105.376 174.394 149.709 256 149.709 106.69 0 187.943-67.013 256-149.837-68.317 12.911-181.864 29.837-256 29.837-70.459 0-186.532-16.282-256-29.709z"/><path d="m509.006 316.005c-55.959-32.933-137.668-90.005-178.006-90.005-22.559 0-35.845 9.99-46.509 18.018-9.258 6.958-15.952 11.982-28.491 11.982s-19.233-5.024-28.491-11.982c-10.664-8.028-23.95-18.018-46.509-18.018-40.919 0-125.576 59.423-178.385 90.093 71.292 13.852 183.961 29.907 253.385 29.907 74.394 0 186.92-17.415 253.006-29.995z"/></g></svg>