<svg id="Capa_1" enable-background="new 0 0 510 510" height="512" viewBox="0 0 510 510" width="512" xmlns="http://www.w3.org/2000/svg"><g id="XMLID_87_"><path id="XMLID_97_" d="m165 405h195v90h-195z"/><path id="XMLID_96_" d="m30 390h-30v75h135v-30h-105z"/><path id="XMLID_95_" d="m199.127 107.086-43.887 43.888c53.269 58.666 146.104 58.826 199.521 0l-43.888-43.888c-33.691 22.651-77.988 22.696-111.746 0z"/><path id="XMLID_94_" d="m0 300h510v60h-510z"/><path id="XMLID_88_" d="m0 15v255h510v-255zm90 75h-30v-30h30zm239.965 117.023c-46.979 24-102.918 24.017-149.93 0-42.177-21.545-60.304-53.407-64.846-58.425l82.169-82.17c5.836 4.015 23.017 27.662 57.642 27.662 34.708 0 51.739-23.601 57.642-27.662l82.169 82.17c-4.5 4.97-22.758 36.925-64.846 58.425zm120.035-117.023h-30v-30h30z"/></g></svg>