<svg id="Capa_1" enable-background="new 0 0 512 512" height="512" viewBox="0 0 512 512" width="512" xmlns="http://www.w3.org/2000/svg"><g><path d="m331 286v136h91v-151h-76c-8.276 0-15 6.724-15 15z"/><path d="m166 271h-76v151h91v-136c0-8.276-6.724-15-15-15z"/><path d="m437 0h-362c-41.353 0-75 33.647-75 75v362c0 41.353 33.647 75 75 75h362c41.353 0 75-33.647 75-75v-362c0-41.353-33.647-75-75-75zm-305.849 105.205c34.952-29.15 79.292-45.205 124.849-45.205s89.897 16.055 124.849 45.205l11.514 9.595-76.846 92.197-11.514-9.624c-26.836-22.412-69.17-22.412-96.006 0l-11.514 9.624-76.845-92.197zm79.849 346.795h-151v-211h106c24.814 0 45 20.186 45 45zm60 0h-30v-211h30zm181 0h-151v-166c0-24.814 20.186-45 45-45h106z"/><path d="m241 151.113v-31.113h30v31.113c14.176 2.051 27.81 6.951 40.005 14.443l38.672-46.392c-54.814-37.793-132.539-37.793-187.354 0l38.672 46.392c12.193-7.492 25.829-12.392 40.005-14.443z"/></g></svg>