<?xml version="1.0" encoding="iso-8859-1"?>
<!-- Generator: Adobe Illustrator 19.0.0, SVG Export Plug-In . SVG Version: 6.00 Build 0)  -->
<svg xmlns="http://www.w3.org/2000/svg" xmlns:xlink="http://www.w3.org/1999/xlink" version="1.1" id="Layer_1" x="0px" y="0px" viewBox="0 0 512 512" style="enable-background:new 0 0 512 512;" xml:space="preserve">
<g>
	<g>
		<path d="M434.088,132.282v-1.499c0-46.03-37.448-83.478-83.478-83.478s-83.478,37.448-83.478,83.478h-22.261    c0-46.03-37.448-83.478-83.478-83.478s-83.478,37.448-83.478,83.478v1.499c-38.861,6.923-69.491,37.553-76.415,76.414h509.003    C503.579,169.835,472.949,139.204,434.088,132.282z M111.305,130.783c0-27.618,22.469-50.087,50.087-50.087    c27.618,0,50.087,22.469,50.087,50.087H111.305z M300.523,130.783c0-27.618,22.469-50.087,50.087-50.087    s50.087,22.469,50.087,50.087H300.523z"/>
	</g>
</g>
<g>
	<g>
		<path d="M1.499,242.087C9.39,286.371,48.059,320,94.61,320h322.783c46.551,0,85.22-33.629,93.111-77.913H1.499z"/>
	</g>
</g>
<g>
	<g>
		<path d="M448.004,353.391c-32,0-32,16.696-64,16.696c-31.999,0-31.999-16.696-63.999-16.696    c-31.998,0-31.998,16.696-63.997,16.696c-32,0-32-16.696-63.999-16.696c-32,0-32,16.696-64.001,16.696    c-32.002,0-32.002-16.696-64.004-16.696c-32.002,0-32.002,16.696-64.004,16.696v94.609h512v-94.609    C480.002,370.087,480.002,353.391,448.004,353.391z"/>
	</g>
</g>
<g>
</g>
<g>
</g>
<g>
</g>
<g>
</g>
<g>
</g>
<g>
</g>
<g>
</g>
<g>
</g>
<g>
</g>
<g>
</g>
<g>
</g>
<g>
</g>
<g>
</g>
<g>
</g>
<g>
</g>
</svg>
