<svg id="Capa_1" enable-background="new 0 0 512 512" height="512" viewBox="0 0 512 512" width="512" xmlns="http://www.w3.org/2000/svg"><g><circle cx="357.766" cy="256" r="19.297"/><path d="m225.96 82.527c-6.132-4.355-13.198-6.592-20.383-6.592-3.908 0-7.851.661-11.698 2.003-75.609 26.376-126.41 97.934-126.41 178.062s50.801 151.686 126.41 178.062c10.919 3.809 22.612 2.138 32.081-4.588 9.559-6.789 15.04-17.398 15.04-29.107v-288.733c0-11.709-5.481-22.319-15.04-29.107zm-71.726 222.77c-27.183 0-49.297-22.114-49.297-49.297s22.114-49.297 49.297-49.297 49.297 22.114 49.297 49.297-22.114 49.297-49.297 49.297z"/><path d="m256 0c-141.159 0-256 114.841-256 256s114.841 256 256 256 256-114.841 256-256-114.841-256-256-256zm72.002 462.388c-7.13 2.487-14.439 3.713-21.677 3.714-13.283 0-26.334-4.127-37.657-12.17-4.778-3.394-9.022-7.377-12.668-11.809-3.646 4.432-7.89 8.415-12.668 11.809-11.322 8.042-24.376 12.17-37.657 12.17-7.239 0-14.546-1.227-21.677-3.714-87.644-30.574-146.529-113.515-146.529-206.388s58.885-175.814 146.529-206.388c20.215-7.052 41.841-3.969 59.334 8.456 4.778 3.394 9.022 7.377 12.668 11.809 3.646-4.432 7.89-8.415 12.668-11.809 17.493-12.426 39.12-15.507 59.334-8.456 87.644 30.574 146.529 113.515 146.529 206.388s-58.885 175.814-146.529 206.388z"/><circle cx="154.234" cy="256" r="19.297"/><path d="m318.121 77.938c-10.918-3.808-22.611-2.137-32.081 4.588-9.559 6.789-15.04 17.399-15.04 29.108v288.732c0 11.709 5.481 22.318 15.04 29.107 9.468 6.725 21.159 8.397 32.081 4.588 75.609-26.376 126.41-97.934 126.41-178.062s-50.801-151.685-126.41-178.061zm39.645 227.359c-27.183 0-49.297-22.114-49.297-49.297s22.114-49.297 49.297-49.297 49.297 22.114 49.297 49.297-22.115 49.297-49.297 49.297z"/></g></svg>