<svg id="Capa_1" enable-background="new 0 0 511.098 511.098" height="512" viewBox="0 0 511.098 511.098" width="512" xmlns="http://www.w3.org/2000/svg"><g><path d="m208.195 148.178c1.619-.714 3.259-1.393 4.913-2.034 6.042-10.656 15.93-18.627 27.44-22.389v-56.141c-92.02 7.278-165.656 80.914-172.935 172.935h56.14c3.762-11.51 11.733-21.399 22.389-27.44.642-1.654 1.32-3.294 2.034-4.914-4.615-16.705.002-35.059 12.481-47.537 12.482-12.479 30.836-17.096 47.538-12.48z"/><path d="m213.108 364.954c-1.654-.642-3.294-1.32-4.913-2.034-16.703 4.615-35.057-.001-47.536-12.481-12.479-12.478-17.097-30.832-12.481-47.537-.714-1.62-1.393-3.259-2.034-4.914-10.656-6.041-18.627-15.93-22.389-27.44h-56.14c7.278 92.021 80.915 165.656 172.935 172.935v-56.141c-11.511-3.76-21.4-11.732-27.442-22.388z"/><path d="m302.902 362.92c-1.619.714-3.259 1.393-4.913 2.034-6.042 10.656-15.93 18.627-27.44 22.389v56.141c92.02-7.278 165.656-80.914 172.935-172.935h-56.14c-3.762 11.51-11.733 21.399-22.389 27.44-.642 1.654-1.32 3.294-2.034 4.914 4.615 16.705-.002 35.059-12.481 47.537-12.481 12.479-30.834 17.097-47.538 12.48z"/><path d="m275.629 340.861 6.865-2.225c4.394-1.424 8.682-3.2 12.745-5.278l6.431-3.288 6.581 2.977c7.065 3.196 15.494 1.659 20.975-3.822s7.018-13.911 3.822-20.976l-2.976-6.58 3.287-6.43c2.078-4.065 3.854-8.353 5.276-12.745l2.225-6.866 6.753-2.546c7.256-2.735 12.131-9.782 12.131-17.535s-4.875-14.799-12.131-17.535l-6.753-2.546-2.225-6.866c-1.423-4.392-3.198-8.679-5.276-12.745l-3.287-6.43 2.976-6.58c3.195-7.065 1.659-15.495-3.822-20.976s-13.911-7.018-20.975-3.822l-6.581 2.977-6.431-3.288c-4.063-2.078-8.352-3.854-12.745-5.278l-6.865-2.225-2.545-6.753c-2.735-7.255-9.782-12.129-17.535-12.129s-14.8 4.875-17.535 12.129l-2.545 6.753-6.865 2.225c-4.394 1.424-8.682 3.2-12.745 5.278l-6.431 3.288-6.581-2.977c-7.064-3.195-15.493-1.658-20.975 3.822-5.481 5.481-7.018 13.911-3.822 20.976l2.976 6.58-3.287 6.43c-2.078 4.065-3.854 8.353-5.276 12.745l-2.225 6.866-6.753 2.546c-7.256 2.735-12.131 9.782-12.131 17.535s4.875 14.799 12.131 17.535l6.753 2.546 2.225 6.866c1.423 4.392 3.198 8.679 5.276 12.745l3.287 6.43-2.976 6.58c-3.195 7.065-1.659 15.495 3.822 20.976 5.482 5.481 13.912 7.019 20.975 3.822l6.581-2.977 6.431 3.288c4.063 2.078 8.352 3.854 12.745 5.278l6.865 2.225 2.545 6.753c2.735 7.255 9.782 12.129 17.535 12.129s14.8-4.875 17.535-12.129zm-30.381-95.613h-30v-30h30zm20.602 50.602v-30h30v30z"/><path d="m37.533 270.549h-37.533c7.505 129.238 111.311 233.043 240.549 240.549v-37.533c-52.725-3.551-101.806-25.772-139.525-63.491s-59.94-86.801-63.491-139.525z"/><path d="m297.989 146.144c1.654.642 3.294 1.32 4.913 2.034 16.703-4.615 35.057.001 47.536 12.481 12.479 12.478 17.097 30.832 12.481 47.537.714 1.62 1.393 3.259 2.034 4.914 10.656 6.041 18.627 15.93 22.389 27.44h56.14c-7.278-92.021-80.915-165.656-172.935-172.935v56.141c11.512 3.76 21.4 11.731 27.442 22.388z"/><path d="m473.564 240.549h37.533c-7.505-129.238-111.31-233.044-240.548-240.549v37.533c52.725 3.551 101.806 25.772 139.525 63.491s59.94 86.801 63.49 139.525z"/><path d="m410.074 410.074c-37.719 37.719-86.801 59.94-139.525 63.491v37.533c129.238-7.505 233.043-111.311 240.549-240.549h-37.533c-3.551 52.724-25.772 101.806-63.491 139.525z"/><path d="m101.023 101.024c37.719-37.719 86.801-59.94 139.525-63.491v-37.533c-129.237 7.505-233.043 111.311-240.548 240.549h37.533c3.551-52.724 25.772-101.806 63.49-139.525z"/></g></svg>