<svg id="Capa_1" enable-background="new 0 0 512 512" height="512" viewBox="0 0 512 512" width="512" xmlns="http://www.w3.org/2000/svg"><g><path d="m471.352 358.325-64.897 64.888c-2.209 9.923-7.237 19.134-14.48 26.375-10.144 10.16-23.657 15.761-38.043 15.761h-117.363v-30h117.361c6.363 0 12.337-2.474 16.822-6.966 3.804-3.803 6.223-8.805 6.82-14.095l.017-.144c.138-1.242.176-2.402.127-3.6-.532-12.793-11.226-22.818-24.03-22.818h-121.624l-3.761-2.485c-19.841-13.109-42.956-20.039-66.847-20.039-27.353 0-53.172 8.871-74.667 25.655l-4.069 3.177h-82.718v84.483h107.599l95.488 31.932c3.067 1.026 6.28 1.549 9.514 1.549h159.993c7.957 0 15.588-3.161 21.214-8.788l111.216-111.225c4.502-4.494 6.976-10.468 6.976-16.831s-2.475-12.337-6.967-16.823c-9.291-9.289-24.396-9.289-33.681-.006z"/><path d="m128.786 67.469h112.214v74.133h-112.214z"/><path d="m271 171.602h112.214v74.133h-112.214z"/><path d="m95.052 0h321.896v37.469h-321.896z"/><path d="m271 67.469h112.213v74.133h-112.213z"/><path d="m128.786 171.602h112.214v74.133h-112.214z"/></g></svg>