<svg id="Capa_1" enable-background="new 0 0 512 512" height="512" viewBox="0 0 512 512" width="512" xmlns="http://www.w3.org/2000/svg"><g><path d="m256.009 296.98c-12.954 12.065-35.609 37.495-35.609 67.753 0 19.63 15.97 35.6 35.601 35.6 19.63 0 35.6-15.97 35.6-35.6 0-21.727-11.925-40.923-21.929-53.201-4.834-5.932-9.7-10.865-13.663-14.552z"/><path d="m81 348.833c0-65.357 36.02-122.452 89.246-152.5h-144.878v315.667h167.38c-65.324-25.41-111.748-88.966-111.748-163.167z"/><path d="m111 348.833c0 79.953 65.047 145 145 145s145-65.047 145-145-65.047-145-145-145-145 65.047-145 145zm145 81.501c-36.172 0-65.601-29.428-65.601-65.6 0-57.577 54.459-97.846 56.778-99.532l8.823-6.416 8.823 6.416c2.318 1.686 56.777 41.955 56.777 99.532 0 36.172-29.428 65.6-65.6 65.6z"/><path d="m486.632 166.333v-16.051c0-44.084-35.865-79.949-79.949-79.949h-22.683v-33.138c0-20.542-16.653-37.195-37.195-37.195s-37.195 16.653-37.195 37.195v33.138h-107.22v-33.138c0-20.542-16.652-37.195-37.195-37.195-20.542 0-37.195 16.653-37.195 37.195v33.138h-22.683c-44.084 0-79.949 35.865-79.949 79.949v16.051z"/><path d="m341.755 196.333c53.225 30.049 89.245 87.143 89.245 152.5 0 74.201-46.424 137.757-111.748 163.167h167.38v-315.667z"/></g></svg>