<svg id="Capa_1" enable-background="new 0 0 511.999 511.999" height="512" viewBox="0 0 511.999 511.999" width="512" xmlns="http://www.w3.org/2000/svg"><g><path d="m195.956 252.153v-140.436c0-8.251-6.712-14.963-14.963-14.963s-14.963 6.712-14.963 14.963v102.28c6.112 2.129 11.736 5.58 16.524 10.239 7.737 7.527 12.404 17.316 13.402 27.917z"/><path d="m371.224 164.056c-2.919-2.84-6.769-4.339-10.864-4.231-7.899.217-14.334 7.015-14.515 15.228l-.017 76.015h-30l.017-139.352c0-8.251-6.712-14.963-14.963-14.963s-14.964 6.712-14.964 14.963v141.621h-.034-29.966-.034v-159.639c0-8.251-6.713-14.963-14.964-14.963s-14.963 6.712-14.963 14.963v159.64h-29.912c.07 1.036.119 2.076.119 3.125v58.195h-30v-58.195c0-4.075-1.609-7.884-4.53-10.727-2.919-2.841-6.784-4.352-10.865-4.231-8.013.22-14.532 7.21-14.532 15.582v56.416c0 66.004 53.698 119.729 119.702 119.763h.062c31.981 0 62.044-12.448 84.665-35.058 22.634-22.624 35.099-52.708 35.097-84.71l-.009-138.713c0-4.077-1.609-7.886-4.53-10.729z"/><path d="m391.401 87.457c-10.69-39.987-47.163-69.438-90.52-69.438h-4.717c-15.49-11.327-34.584-18.019-55.244-18.019s-39.754 6.692-55.244 18.019h-4.683c-51.748 0-93.698 41.95-93.698 93.698v68.143l-3.06 2.183c-16.769 11.961-26.724 31.289-26.724 51.887v79.681c0 109.566 88.821 198.388 198.388 198.388 109.666.056 198.595-88.833 198.59-198.498v-138.718c0-40.701-26.446-75.219-63.088-87.326zm-29.527 331.969c-28.285 28.272-65.882 43.839-105.871 43.84-.027 0-.052 0-.079 0-82.538-.042-149.687-67.226-149.687-149.763v-56.416c0-19.527 12.496-36.479 29.793-42.869v-102.501c0-24.793 20.17-44.963 44.963-44.963 7.451 0 14.478 1.832 20.672 5.054 7.699-13.752 22.405-23.073 39.255-23.073 16.855 0 31.566 9.327 39.263 23.087 6.2-3.23 13.237-5.068 20.699-5.068 24.793 0 44.963 20.17 44.963 44.963v20.737c4.31-1.566 8.911-2.487 13.693-2.618 12.249-.331 23.833 4.18 32.607 12.718 8.776 8.539 13.61 19.985 13.61 32.229l.009 138.712c.001 40.019-15.586 77.639-43.89 105.931z"/></g></svg>