<svg id="Capa_1" enable-background="new 0 0 512 512" height="512" viewBox="0 0 512 512" width="512" xmlns="http://www.w3.org/2000/svg"><g><path d="m224.738 311.568 287.247-287.247-21.213-21.214-286.478 286.479c2.699 2.266 5.317 4.654 7.838 7.175 4.637 4.637 8.841 9.592 12.606 14.807z"/><path d="m491.125 398.495c-12.898-12.898-30.716-20.875-50.397-20.875-26.483 0-49.576 14.456-61.864 35.897-4.209-1.152-8.635-1.779-13.21-1.779-21.827 0-40.385 14.001-47.181 33.512l-89.412.003c-4.771 7.598-10.429 14.714-16.928 21.214l-42.426 42.426 309.505.001c19.724-12.677 32.789-34.813 32.789-60-.001-19.683-7.978-37.501-20.876-50.399z"/><path d="m326.749 274.68h30v30h-30z"/><path d="m386.748 244.679h30.001v30h-30.001z"/><path d="m174.748 199.679h30.001v30h-30.001z"/><path d="m3.159 349.239h75v40h-75z" transform="matrix(.707 -.707 .707 .707 -249.183 136.898)"/><path d="m52.656 398.737h75v40h-75z" transform="matrix(.707 -.707 .707 .707 -269.685 186.395)"/><path d="m190.919 317.974c-31.533-31.533-80.64-34.769-115.788-9.722l125.51 125.51c25.047-35.148 21.811-84.255-9.722-115.788z"/><path d="m102.154 448.234h75v40h-75z" transform="matrix(.707 -.707 .707 .707 -290.188 235.893)"/></g></svg>