<svg id="Capa_1" enable-background="new 0 0 510 510" height="512" viewBox="0 0 510 510" width="512" xmlns="http://www.w3.org/2000/svg"><g><path d="m0 247.5v240l160-120c-20.5-15.375-141.33-105.997-160-120z"/><path d="m255 438.75-70-52.5-165 123.75h470l-165-123.75z"/><path d="m350 367.5 160 120v-240c-18.675 14.006-139.512 104.634-160 120z"/><path d="m45 196.791-30.296 24.236 30.296 22.723z"/><path d="m465 196.791v46.959l30.297-22.723z"/><path d="m495 15c0-8.284-6.716-15-15-15s-15 6.716-15 15v75h30z"/><path d="m435 266.25c0-41.081 0-223.053 0-251.25 0-5.259.915-10.305 2.58-15h-297.247c-36.024 0-65.333 29.309-65.333 65.334v200.916l180 135zm-90-221.25h30v30h-30zm0 120h30v30h-30zm-117.932-79.197 27.932-36.692 27.932 36.691 43.527 15.227-26.265 37.902-1.029 46.104-44.165-13.267-44.164 13.267-1.031-46.104-26.264-37.902zm-92.068-40.803h30v30h-30zm0 120h30v30h-30zm0 60h240v30h-240zm75 60h90v30h-90z"/><path d="m239.947 144.965 15.053-4.522 15.052 4.522.351-15.713 8.951-12.918-14.834-5.189-9.52-12.505-9.52 12.505-14.835 5.189 8.951 12.918z"/></g></svg>