<svg id="Capa_1" enable-background="new 0 0 512 512" height="512" viewBox="0 0 512 512" width="512" xmlns="http://www.w3.org/2000/svg"><g><path d="m0 67.469h37.469v377.063h-37.469z"/><path d="m474.531 67.469h37.469v377.063h-37.469z"/><path d="m283.777 137.36c-6.559 0-12.814 2.435-17.612 6.857l-10.165 9.367-10.165-9.367c-4.798-4.422-11.053-6.857-17.612-6.857-14.235 0-25.816 11.421-25.816 25.46 0 6.776 2.669 13.153 7.515 17.957l46.115 45.841 46.019-45.818c4.869-4.827 7.538-11.204 7.538-17.98-.001-14.039-11.582-25.46-25.817-25.46z"/><path d="m307.726 407.062h-103.452c-10.33 0-18.734 8.404-18.734 18.735 0 10.33 8.404 18.734 18.734 18.734h103.452c10.33 0 18.734-8.404 18.734-18.734 0-10.331-8.404-18.735-18.734-18.735z"/><path d="m377.062 67.469h-242.124v242.125h242.124zm-53.863 134.614-67.146 66.853-67.267-66.867c-10.557-10.465-16.379-24.409-16.379-39.248 0-30.581 25.039-55.46 55.816-55.46 9.852 0 19.392 2.56 27.777 7.352 8.385-4.792 17.925-7.352 27.777-7.352 30.777 0 55.816 24.879 55.816 55.46 0 14.838-5.822 28.782-16.394 39.262z"/><path d="m408.93 0h-305.86c-19.631 0-35.601 15.971-35.601 35.602v440.797c0 19.631 15.971 35.602 35.602 35.602h305.859c19.631 0 35.602-15.971 35.602-35.602v-440.797c-.001-19.631-15.971-35.602-35.602-35.602zm-101.204 474.531h-103.452c-26.872 0-48.734-21.862-48.734-48.734 0-26.873 21.862-48.735 48.734-48.735h103.452c26.872 0 48.734 21.862 48.734 48.735 0 26.872-21.862 48.734-48.734 48.734zm99.336-134.938h-302.124v-302.124h302.124z"/></g></svg>