<svg id="Capa_1" enable-background="new 0 0 512 512" height="512" viewBox="0 0 512 512" width="512" xmlns="http://www.w3.org/2000/svg"><g id="XMLID_170_"><path id="XMLID_178_" d="m212.883 239.877c13.175 5.851 27.976 8.785 42.825 8.502l.292-.006.292.006c14.844.288 29.649-2.652 42.824-8.502 16.356-7.263 34.676-11.103 52.978-11.103 28.31 0 103.839-21.587 148.994-35.615-28.765-13.118-84.164-38.498-105.497-49.071l-31.772-15.747c-29.836-14.787-68.647-13.364-96.505 3.538l-.01.006c-6.794 4.122-15.813 4.122-22.607 0l-.011-.007c-27.858-16.902-66.67-18.325-96.506-3.538l-31.771 15.746c-21.333 10.573-76.733 35.953-105.497 49.071 45.155 14.027 120.684 35.615 148.994 35.615 18.302.002 36.621 3.842 52.977 11.105z"/><path id="XMLID_198_" d="m311.288 267.284c-16.394 7.281-34.671 11.103-53.013 11.103-.759 0-1.515-.006-2.274-.02-19.111.331-38.215-3.501-55.288-11.083-12.553-5.575-26.664-8.522-40.807-8.522-35.107 0-120.187-25.206-159.905-37.602 8.821 22.487 20.318 44.009 34.264 64.222 36.466 52.85 96.76 89.903 165.862 103.163l.029.005c36.79 7.06 74.901 7.06 111.69 0l.029-.005c69.102-13.26 129.396-50.313 165.862-103.163 13.946-20.212 25.443-41.734 34.264-64.222-39.718 12.396-124.798 37.602-159.905 37.602-14.144.001-28.255 2.947-40.808 8.522z"/></g></svg>