<svg id="Capa_1" enable-background="new 0 0 512 512" height="512" viewBox="0 0 512 512" width="512" xmlns="http://www.w3.org/2000/svg"><g><path d="m408.955 353.594-95.05-25.686-32.263 24.145 3.829 2.917c14.69 11.191 23.46 28.897 23.46 47.364v17.43h-30v-17.43c0-9.162-4.352-17.947-11.64-23.5l-10.547-8.035-10.547 8.035c-7.288 5.552-11.64 14.337-11.64 23.5v17.43h-30v-17.43c0-18.466 8.77-36.172 23.459-47.363l3.287-2.504-32.92-24.636-95.339 25.764c-25.208 6.812-42.814 29.807-42.814 55.919v102.486h59.887v-50.23h30v50.23h211.763v-50.23h30v50.23h59.887v-102.487c.002-26.112-17.604-49.107-42.812-55.919zm-137.955 125.815h-30v-30h30z"/><path d="m117.925 318.497 78.619-21.246v-30.111c-24.364-18.179-40.168-47.223-40.168-79.889v-80.298l139.231-31.923 60.018 35.293v76.929c0 32.667-15.805 61.71-40.168 79.889v30.112l78.619 21.246v-180.424c-.001-76.135-61.941-138.075-138.076-138.075s-138.075 61.94-138.075 138.075z"/><path d="m325.625 127.483-34.941-20.547-104.308 23.917v56.398c0 38.391 31.233 69.625 69.625 69.625s69.625-31.233 69.625-69.625v-59.768z"/><path d="m285.456 282.429c-9.313 2.888-19.206 4.446-29.456 4.446s-20.143-1.558-29.456-4.446v26.307 2.697l29.653 22.192 29.259-21.897z"/></g></svg>