<svg id="Capa_1" enable-background="new 0 0 512 512" height="512" viewBox="0 0 512 512" width="512" xmlns="http://www.w3.org/2000/svg"><g><path d="m376 341.733v45c0 8.271-6.729 15-15 15h-210c-8.271 0-15-6.729-15-15v-45h-136v115c0 30.327 24.673 55 55 55h402c30.327 0 55-24.673 55-55v-115z"/><path d="m468 139.233v86.934l43.467-43.467z"/><path d="m442.5 113.733-83.435-83.435-12.401 83.435h91.336z"/><path d="m332.659 3.893-3.626-3.626-113.467 113.466h100.769z"/><path d="m166 311.733v60h180v-60h92v-125.287l-177.215 131.113c-8.009 5.933-17.399 8.901-26.785 8.901-9.389 0-18.774-2.966-26.786-8.901l-177.214-131.354v125.528z"/><path d="m242.928 293.453 195.072-144.325v-5.394h-408v5.13l195.071 144.59c5.341 3.955 12.517 3.955 17.857-.001z"/></g></svg>