<?xml version="1.0" encoding="iso-8859-1"?>
<!-- Generator: Adobe Illustrator 19.0.0, SVG Export Plug-In . SVG Version: 6.00 Build 0)  -->
<svg xmlns="http://www.w3.org/2000/svg" xmlns:xlink="http://www.w3.org/1999/xlink" version="1.1" id="Layer_1" x="0px" y="0px" viewBox="0 0 512 512" style="enable-background:new 0 0 512 512;" xml:space="preserve">
<g>
	<g>
		<path d="M458.251,72.381L228.318,302.314l-18.633-18.633L439.619,53.748L385.87,0L133.033,252.836    c-17.006,17.008-17.006,44.683,0.001,61.69l5.345,5.345L11.132,447.119C3.954,454.297,0,463.841,0,473.993    c0,10.152,3.954,19.696,11.132,26.875S27.855,512,38.007,512c10.152,0,19.696-3.954,26.874-11.132l127.248-127.247l5.345,5.345    c17.008,17.008,44.682,17.007,61.69,0L512,126.129L458.251,72.381z"/>
	</g>
</g>
<g>
</g>
<g>
</g>
<g>
</g>
<g>
</g>
<g>
</g>
<g>
</g>
<g>
</g>
<g>
</g>
<g>
</g>
<g>
</g>
<g>
</g>
<g>
</g>
<g>
</g>
<g>
</g>
<g>
</g>
</svg>
