<svg id="Capa_1" enable-background="new 0 0 512 512" height="512" viewBox="0 0 512 512" width="512" xmlns="http://www.w3.org/2000/svg"><g><path d="m316 422v-150h-300v150zm-60-30h-30v-30h30zm-180-90h180v30h-180zm0 60h90v30h-90z"/><path d="m315.991 242c-.164-30.919-17.818-58.595-44.991-72v-35h-210v35c-27.174 13.404-44.827 41.08-44.991 72z"/><path d="m16 452h300v60h-300z"/><path d="m16 0h300v105h-300z"/><path d="m451 422h-15v90h15c24.813 0 45-20.187 45-45s-20.187-45-45-45z"/><path d="m406 422h-15c-24.813 0-45 20.187-45 45s20.187 45 45 45h15z"/><path d="m369.787 304.573-10.607 10.607c-17.544 17.545-17.544 46.094 0 63.64 8.773 8.772 20.296 13.158 31.82 13.158s23.047-4.386 31.82-13.159l10.607-10.607z"/><path d="m454.639 347 10.607-10.607c8.5-8.5 13.181-19.8 13.181-31.82s-4.681-23.321-13.181-31.82c-8.499-8.5-19.8-13.181-31.82-13.181s-23.32 4.681-31.819 13.181l-10.607 10.607z"/></g></svg>