<svg id="Capa_1" enable-background="new 0 0 512 512" height="512" viewBox="0 0 512 512" width="512" xmlns="http://www.w3.org/2000/svg"><g><path d="m256 212c24.814 0 45-20.186 45-45 0-13.726-6.138-26.528-16.846-35.112-8.364-6.695-13.154-18.941-13.154-33.589v-98.299h-30v98.299c0 14.648-4.79 26.895-13.14 33.589-10.722 8.584-16.86 21.386-16.86 35.112 0 24.814 20.186 45 45 45z"/><path d="m241 287v53.789l-10.4-10.4-21.211 21.211 46.611 46.611 46.611-46.611-21.211-21.211-10.4 10.4v-53.789z"/><path d="m211 268.177v-56.177h-211v60h210.26c.121-1.291.74-2.525.74-3.823z"/><path d="m301 212v57.363c0 .901.452 1.741.513 2.637h210.487v-60z"/><path d="m329.813 360.403c-5.288 30.322-30.059 55.166-60.22 60.41-47.94 8.415-88.593-28.409-88.593-73.813 0-16.49 5.537-31.893 15.639-45h-196.639v210h512v-210h-196.802c12.914 16.727 18.331 37.178 14.615 58.403zm-238.813 1.597h-30v-30h30zm60 90h-30v-30h30zm270-120h30v30h-30zm-60 90h30v30h-30z"/></g></svg>