<?xml version="1.0" encoding="iso-8859-1"?>
<!-- Generator: Adobe Illustrator 19.0.0, SVG Export Plug-In . SVG Version: 6.00 Build 0)  -->
<svg xmlns="http://www.w3.org/2000/svg" xmlns:xlink="http://www.w3.org/1999/xlink" version="1.1" id="Layer_1" x="0px" y="0px" viewBox="0 0 512 512" style="enable-background:new 0 0 512 512;" xml:space="preserve">
<g>
	<g>
		<path d="M451.612,371.565c-1.228-0.928-2.431-1.884-3.612-2.869c-1.182,0.985-2.385,1.941-3.612,2.869    c-17.524,13.268-38.406,20.281-60.388,20.281s-42.864-7.013-60.388-20.281c-1.228-0.928-2.431-1.884-3.612-2.869    c-1.182,0.985-2.385,1.941-3.612,2.869c-17.524,13.268-38.406,20.281-60.388,20.281s-42.864-7.013-60.388-20.281    c-1.228-0.928-2.431-1.884-3.612-2.869c-1.182,0.985-2.385,1.941-3.612,2.869c-17.524,13.268-38.406,20.281-60.388,20.281    s-42.864-7.013-60.388-20.281c-1.228-0.928-2.431-1.884-3.612-2.869c-1.182,0.985-2.385,1.941-3.612,2.869    C42.864,384.833,21.983,391.846,0,391.846v57.545h512v-57.545C490.017,391.846,469.136,384.833,451.612,371.565z"/>
	</g>
</g>
<g>
	<g>
		<path d="M1.498,257.391c7.89,44.284,46.56,77.913,93.111,77.913h322.783c46.551,0,85.22-33.629,93.111-77.913H1.498z"/>
	</g>
</g>
<g>
	<g>
		<path d="M434.087,147.586v-1.499c0-46.03-37.448-83.478-83.478-83.478s-83.478,37.448-83.478,83.478H244.87    c0-46.03-37.448-83.478-83.478-83.478s-83.478,37.448-83.478,83.478v1.499C39.052,154.509,8.422,185.139,1.498,224h509.003    C503.578,185.139,472.948,154.508,434.087,147.586z M111.304,146.087c0-27.618,22.469-50.087,50.087-50.087    c27.618,0,50.087,22.469,50.087,50.087H111.304z M300.522,146.087c0-27.618,22.469-50.087,50.087-50.087    s50.087,22.469,50.087,50.087H300.522z"/>
	</g>
</g>
<g>
</g>
<g>
</g>
<g>
</g>
<g>
</g>
<g>
</g>
<g>
</g>
<g>
</g>
<g>
</g>
<g>
</g>
<g>
</g>
<g>
</g>
<g>
</g>
<g>
</g>
<g>
</g>
<g>
</g>
</svg>
