<svg id="Capa_1" enable-background="new 0 0 512.468 512.468" height="512" viewBox="0 0 512.468 512.468" width="512" xmlns="http://www.w3.org/2000/svg"><path d="m473.288 181.519c-25.433-4.046-49.411 13.362-53.453 38.793-2.523 15.878 3.313 31.189 14.243 41.436-29.782 55.854-110.236 64.802-150.791 15.081 75.385-4.349 135.573-72.873 129.969-148.422 14.685-6.394 25.384-20.404 27.474-36.323 6.014-61.714-81.427-73.892-92.51-12.895-3.681 23.041 12.44 46.711 35.122 51.805 4.297 62.953-49.195 118.259-112.092 116.124v-155.667c49.297-17.561 37.972-89.887-15.001-90.919-52.98 1.037-64.288 73.367-14.999 90.919v155.668c-62.914 2.129-116.385-53.175-112.092-116.124 22.684-5.094 38.803-28.764 35.122-51.805-11.098-61.01-98.529-48.802-92.51 12.895 2.089 15.917 12.791 29.932 27.474 36.323-5.607 75.553 54.606 144.082 129.971 148.422-40.565 49.734-121.018 40.755-150.79-15.081 10.93-10.247 16.766-25.558 14.243-41.436-12.256-60.785-99.442-46.914-92.247 14.66 3.818 24.524 26.559 41.602 50.6 39.149 36.104 70.339 132.625 87.588 190.23 33.476v204.339h30v-204.34c57.616 54.127 154.138 36.842 190.23-33.476 59.89 3.611 71.039-80.81 11.807-92.602z"/></svg>