<svg id="Capa_1" enable-background="new 0 0 512.351 512.351" height="512" viewBox="0 0 512.351 512.351" width="512" xmlns="http://www.w3.org/2000/svg"><g><path d="m383.754 90.672 26.033-14.909c-19.413-33.898-49.919-60.805-85.898-75.763l-11.517 27.701c29.894 12.428 55.244 34.792 71.382 62.971z"/><path d="m55.176 214.697c-3.912-9.232-5.896-19.039-5.896-29.146 0-19.995 7.812-38.819 21.997-53.004l-21.213-21.213c-19.851 19.851-30.784 46.208-30.784 74.217 0 14.151 2.783 27.895 8.272 40.851z"/><path d="m69.927 287.722-18.52-23.602c-32.558 25.55-51.232 63.992-51.232 105.47h30c0-32.204 14.49-62.044 39.752-81.868z"/><path d="m460.943 264.121-18.52 23.602c25.263 19.824 39.752 49.664 39.752 81.868h30c0-41.479-18.673-79.921-51.232-105.47z"/><path d="m256.175 368.058c28.573 0 52.162-21.726 55.129-49.525-16.726 7.939-35.417 12.389-55.129 12.389s-38.403-4.45-55.129-12.389c2.967 27.799 26.556 49.525 55.129 49.525z"/><path d="m408.671 334.559-67.046-22.226v.276c0 47.117-38.333 85.449-85.449 85.449s-85.449-38.332-85.449-85.449v-.276l-67.046 22.226c-20.953 6.945-35.031 26.443-35.031 48.518v129.274h375.054v-129.274c-.002-22.075-14.08-41.573-35.033-48.518z"/><path d="m108.594 158.581c-10.238 0-18.568 8.33-18.568 18.568 0 10.239 8.33 18.568 18.568 18.568h18.568v-37.136z"/><path d="m403.757 195.717c10.238 0 18.568-8.33 18.568-18.568 0-10.239-8.33-18.568-18.568-18.568h-18.568v37.136z"/><path d="m313.882 71.98c-16.258-11.701-36.19-18.603-57.706-18.603s-41.448 6.902-57.706 18.603c16.708 12.036 36.701 18.533 57.706 18.533s40.997-6.497 57.706-18.533z"/><path d="m256.175 300.922c54.596 0 99.013-44.417 99.013-99.013v-49.519c0-22.155-7.315-42.632-19.655-59.147-22.574 17.683-50.221 27.27-79.359 27.27s-56.784-9.587-79.359-27.27c-12.34 16.514-19.655 36.992-19.655 59.147v49.519c.002 54.596 44.419 99.013 99.015 99.013zm30.094-138.773h33.568v30h-33.568zm-93.755 0h33.568v30h-33.568z"/></g></svg>