<?xml version="1.0" encoding="iso-8859-1"?>
<!-- Generator: Adobe Illustrator 19.0.0, SVG Export Plug-In . SVG Version: 6.00 Build 0)  -->
<svg xmlns="http://www.w3.org/2000/svg" xmlns:xlink="http://www.w3.org/1999/xlink" version="1.1" id="Layer_1" x="0px" y="0px" viewBox="0 0 511.999 511.999" style="enable-background:new 0 0 511.999 511.999;" xml:space="preserve">
<g>
	<g>
		<path d="M509.809,352.229c-3.588-11.514-11.224-21.05-21.499-26.867c-10.585-5.987-22.679-7.336-34.043-3.788l-101.69,31.754    L237.113,289.06c-28.646-15.942-61.17-19.5-91.585-10.005l-52.214,18.541v130.136l66.457-20.03l147.168,55.843l174.624-54.513    c11.364-3.548,20.55-11.534,25.847-22.489C512.548,375.918,513.407,363.734,509.809,352.229z"/>
	</g>
</g>
<g>
	<g>
		<rect y="283.763" width="63.328" height="157.753"/>
	</g>
</g>
<g>
	<g>
		<path d="M474.077,95.355c-7.276-21.14-22.329-36.752-41.28-42.829c-30.485-9.775-56.262,0.21-69.396,7.406    c-13.134-7.196-38.921-17.182-69.396-7.406c-18.961,6.077-34.013,21.699-41.3,42.859c-9.285,27.007-4.668,58.081,12.374,83.119    c9.735,14.293,16.082,30.395,18.361,46.557c0.14,0.97,0.27,1.959,0.4,2.979c5.937,46.007,18.451,69.336,38.271,71.325    c8.936,0.88,21.419-3.088,30.225-27.117c4.158-11.344,7.426-26.427,9.195-42.459c0.44-3.958,1.119-7.097,1.869-9.555    c0.75,2.459,1.429,5.597,1.869,9.555c1.769,16.032,5.038,31.115,9.195,42.459c8.086,22.069,19.291,27.227,27.976,27.227    c0.77,0,1.519-0.04,2.239-0.11c19.83-1.989,32.344-25.318,38.281-71.345c0.12-0.97,0.25-1.929,0.38-2.859    c2.279-16.192,8.646-32.344,18.411-46.707C478.774,153.417,483.382,122.352,474.077,95.355z"/>
	</g>
</g>
<g>
</g>
<g>
</g>
<g>
</g>
<g>
</g>
<g>
</g>
<g>
</g>
<g>
</g>
<g>
</g>
<g>
</g>
<g>
</g>
<g>
</g>
<g>
</g>
<g>
</g>
<g>
</g>
<g>
</g>
</svg>
