<svg id="Capa_1" enable-background="new 0 0 510 510" height="512" viewBox="0 0 510 510" width="512" xmlns="http://www.w3.org/2000/svg"><g id="XMLID_877_"><path id="XMLID_879_" d="m472.5 210v30h-45.63c-3.182-38.379-18.455-73.374-41.992-101.165l32.328-32.327 21.213 21.213 21.213-21.213-63.64-63.64-21.213 21.213 21.214 21.214-32.328 32.327c-27.791-23.537-62.786-38.81-101.165-41.992v-45.63h30v-30h-90v30h30v45.63c-38.379 3.182-73.374 18.455-101.165 41.992l-32.328-32.327 21.213-21.214-21.212-21.213-63.64 63.64 21.213 21.213 21.213-21.213 32.327 32.327c-23.536 27.791-38.809 62.786-41.991 101.165h-60.63v30h60.63c3.182 38.379 18.455 73.374 41.992 101.165l-32.328 32.328-21.213-21.214-21.213 21.213 63.64 63.64 21.213-21.213-21.213-21.213 32.328-32.328c27.791 23.537 62.787 38.81 101.165 41.992v45.63h-30v30h90v-30h-30v-45.63c38.379-3.182 73.373-18.455 101.165-41.992l32.327 32.328-21.213 21.213 21.213 21.213 63.64-63.64-21.213-21.213-21.213 21.213-32.328-32.327c23.537-27.791 38.811-62.786 41.992-101.165h45.63v30h30v-90zm-135-15c0 24.812-20.186 45-45 45s-45-20.188-45-45 20.186-45 45-45 45 20.188 45 45zm-120-7.5c0 20.678-16.822 37.5-37.5 37.5-4.136 0-7.5 3.364-7.5 7.5v15c0 4.136 3.364 7.5 7.5 7.5 20.678 0 37.5 16.822 37.5 37.5v22.5h-30v-22.5c0-4.136-3.364-7.5-7.5-7.5-20.678 0-37.5-16.822-37.5-37.5v-15c0-20.678 16.822-37.5 37.5-37.5 4.136 0 7.5-3.364 7.5-7.5v-22.5h30zm55.019 170.11c-23.257-13.1-24.897-39.12-25.008-42.044l29.979-1.133c1.486 19.53 21.318 24.979 33.849 13.246l20.508 21.895c-16.213 15.187-40.606 18.582-59.328 8.036zm79.981-57.61h-30v-30h30z"/><circle id="XMLID_878_" cx="292.5" cy="195" r="15"/></g></svg>