<svg id="Capa_1" enable-background="new 0 0 512 512" height="512" viewBox="0 0 512 512" width="512" xmlns="http://www.w3.org/2000/svg"><g><path d="m395.91 255.965c-23.329-.379-43.711 20.52-42.04 43.89 1.469 28.141-9.06 55.329-29.21 75.039-63.792 62.21-170.445 13.953-166.54-74.821 1.637-23.433-18.598-44.485-42.021-44.109h-116.1v256h512v-256h-116.089zm-285.99 163.26h30v30h-30zm-19.92-67.76v30h-30v-30zm282.08 97.76v-30h30v30zm49.92-67.76v-30h30v30z"/><path d="m256 372.965c37.5 0 68-30.5 68-68 0-25.85-3.75-42.42-7.38-58.44-5.3-23.41-10.79-47.62-5.67-107.28 10.354-80.171 60.833-114.973 84.83-139.21l-40.5 1.95c-148.27 16.552-170.738 227.209-167.28 303.44.25 37.29 30.66 67.54 68 67.54z"/></g></svg>