<svg id="Capa_1" enable-background="new 0 0 511.561 511.561" height="512" viewBox="0 0 511.561 511.561" width="512" xmlns="http://www.w3.org/2000/svg"><g><path d="m134.21 148.069 37.925 102.057 60.483-22.476c-4.255 5.178-6.81 11.806-6.81 19.031 0 16.569 13.431 30 30 30s30-13.431 30-30c0-14.819-10.748-27.12-24.871-29.554l133.081-49.454-37.926-102.057z"/><path d="m263.165 306.213 34.995 88.724h-84.705l34.995-88.724c-10.338-1.271-19.869-5.174-27.9-11.027l-79.604 201.824 27.907 11.008 32.77-83.081h108.371l32.77 83.081 27.907-11.008-79.606-201.824c-8.031 5.853-17.562 9.757-27.9 11.027z"/><path d="m71.234 192.619-15.383-41.396 14.325-5.323-10.45-28.121-56.771 21.096 10.45 28.122 14.325-5.324 15.383 41.396-43.113 16.021 24.115 64.893 112.994-41.989-24.115-64.894z"/><path d="m400.454 13.85h86.938v154.405h-86.938z" transform="matrix(.937 -.348 .348 .937 -3.914 160.336)"/></g></svg>