<svg id="Capa_1" enable-background="new 0 0 512 512" height="512" viewBox="0 0 512 512" width="512" xmlns="http://www.w3.org/2000/svg"><g><path d="m38.594 30h31v-30h-61v512h60v-30h-30z"/><path d="m442.406 0v30h31v452h-30v30h60v-512z"/><path d="m375.937 363.574c-5.771 2.412-12.099 3.75-18.734 3.75s-12.963-1.338-18.734-3.75v148.426h37.469v-148.426z"/><path d="m308.469 363.574c-5.771 2.412-12.099 3.75-18.734 3.75-6.636 0-12.964-1.338-18.735-3.75v148.426h37.469z"/><path d="m424.672 337.324c10.33 0 18.734-8.404 18.734-18.734v-136.121c0-28.931-23.537-52.469-52.469-52.469h-3.891c11.795 14.267 18.891 32.554 18.891 52.469v136.121c0 10.329 8.405 18.734 18.735 18.734z"/><path d="m323.469 130h-3.891c11.795 14.267 18.891 32.554 18.891 52.469v136.121c0 10.33 8.404 18.734 18.734 18.734s18.734-8.404 18.734-18.734v-136.121c0-28.931-23.537-52.469-52.468-52.469z"/><path d="m240.999 512v-193.399c0-.012 0-136.132 0-136.132h30v136.126c.003 10.327 8.406 18.729 18.735 18.729 10.33 0 18.734-8.404 18.734-18.734v-136.121c0-28.931-23.538-52.469-52.469-52.469h-134.937c-28.932 0-52.469 23.538-52.469 52.469v136.121c0 10.33 8.404 18.734 18.734 18.734 10.329 0 18.732-8.402 18.734-18.731v-136.124h30v136.121 193.411h37.469v-193.412h30v193.411z"/><path d="m336 50c0 18.798-6.533 36.088-17.426 49.758 1.611.157 3.243.242 4.895.242 27.614 0 50-22.386 50-50s-22.386-50-50-50c-1.652 0-3.284.085-4.895.242 10.893 13.67 17.426 30.96 17.426 49.758z"/><path d="m268.531 50c0 18.798-6.533 36.088-17.426 49.758 1.611.157 3.243.242 4.895.242 27.614 0 50-22.386 50-50s-22.386-50-50-50c-1.652 0-3.284.085-4.895.242 10.893 13.67 17.426 30.96 17.426 49.758z"/><circle cx="188.531" cy="50" r="50"/></g></svg>