<?xml version="1.0" encoding="iso-8859-1"?>
<!-- Generator: Adobe Illustrator 19.0.0, SVG Export Plug-In . SVG Version: 6.00 Build 0)  -->
<svg xmlns="http://www.w3.org/2000/svg" xmlns:xlink="http://www.w3.org/1999/xlink" version="1.1" id="Layer_1" x="0px" y="0px" viewBox="0 0 512 512" style="enable-background:new 0 0 512 512;" xml:space="preserve">
<g>
	<g>
		<path d="M476.5,281c-3.032,0-5.5-2.467-5.5-5.5v-49c0-19.575-15.925-35.5-35.5-35.5H391v-15c0-8.271,6.729-15,15-15h50v-30h-50    c-24.813,0-45,20.187-45,45v15h-26.693l-5.031,20h-33.324v-15h-30.049v15h-30.05v-15h-30.049v15h-30.049v-15h-30.049v15h-30.049    v-15H85.606v15h-0.273c-12.603,0-25.221,4.037-36.262,11.354l-8.313-12.518c-12.338,8.194-22.639,19.537-29.787,32.802l13.2,7.113    c-5.914,10.955-9.099,23.211-9.163,35.861L0,285.543V286c0,14.929,3.74,29.73,10.816,42.802l13.213-7.152    c5.997,11.053,14.701,20.423,25.203,27.253l-8.194,12.623c12.644,8.208,27.275,13.129,42.315,14.231l1.099-14.984    C86.286,360.908,88.132,361,90,361h25.592v15h30.049v-15h30.049v15h30.049v-15h30.049v15h30.05v-15h25.7L291,363.142V381h185.5    c19.575,0,35.5-15.925,35.5-35.5v-29C512,296.925,496.075,281,476.5,281z M314.18,271H85.384C82.688,271.253,75,276.753,75,286    c0,8.271,6.729,15,15,15h216.633l-7.547,30H90c-24.813,0-45-20.187-45-45c0-25.755,21.294-45,40.333-45h236.394L314.18,271z     M391,301c-11.028,0-20-8.972-20-20s8.972-20,20-20s20,8.972,20,20S402.028,301,391,301z"/>
	</g>
</g>
<g>
</g>
<g>
</g>
<g>
</g>
<g>
</g>
<g>
</g>
<g>
</g>
<g>
</g>
<g>
</g>
<g>
</g>
<g>
</g>
<g>
</g>
<g>
</g>
<g>
</g>
<g>
</g>
<g>
</g>
</svg>
