<svg id="Capa_1" enable-background="new 0 0 512.039 512.039" height="512" viewBox="0 0 512.039 512.039" width="512" xmlns="http://www.w3.org/2000/svg"><g><path d="m256.019 90c-75.588 0-137.083 61.495-137.083 137.083s61.495 137.083 137.083 137.083 137.083-61.495 137.083-137.083-61.495-137.083-137.083-137.083zm74.464 164.302-74.464 74.464-74.464-74.464c-23.455-23.454-23.455-61.617 0-85.071 20.179-20.178 51.245-22.997 74.464-8.454 23.219-14.543 54.286-11.725 74.464 8.454 23.455 23.455 23.455 61.617 0 85.071z"/><path d="m266.626 190.444-10.606 10.607-10.606-10.607c-5.879-5.878-13.601-8.818-21.322-8.818s-15.443 2.939-21.322 8.818c-11.757 11.757-11.757 30.888 0 42.645l53.251 53.25 53.251-53.25c11.757-11.757 11.757-30.888 0-42.645-11.76-11.756-30.888-11.756-42.646 0z"/><path d="m416.591 66.511c-42.89-42.89-99.916-66.511-160.572-66.511s-117.681 23.621-160.571 66.511c-42.891 42.89-66.511 99.916-66.511 160.572 0 49.944 15.906 97.328 45.999 137.03 28.323 37.368 68.236 65.509 112.717 79.559l68.367 68.367 68.367-68.367c44.481-14.05 84.395-42.191 112.717-79.559 30.093-39.702 45.999-87.086 45.999-137.03-.001-60.656-23.621-117.682-66.512-160.572zm-160.572 327.655c-92.13 0-167.083-74.953-167.083-167.083s74.953-167.083 167.083-167.083 167.083 74.953 167.083 167.083-74.953 167.083-167.083 167.083z"/></g></svg>