<svg id="Capa_1" enable-background="new 0 0 512.48 512.48" height="512" viewBox="0 0 512.48 512.48" width="512" xmlns="http://www.w3.org/2000/svg"><g><path d="m248.16 370.493 122.133-122.133c29.216-29.217 29.216-76.756 0-105.973-14.608-14.608-33.797-21.912-52.986-21.912s-38.378 7.304-52.986 21.912l-122.133 122.134c-29.216 29.217-29.216 76.755 0 105.972 29.216 29.216 76.755 29.216 105.972 0zm71.719-198.906 21.214 21.213-21.213 21.213-21.214-21.213zm-95.459 53.034c17.545-17.546 46.095-17.546 63.64 0 17.545 17.545 17.545 46.094 0 63.639-8.772 8.773-20.296 13.159-31.82 13.159s-23.047-4.386-31.82-13.159c-17.545-17.546-17.545-46.094 0-63.639zm-53.033 95.459 21.213-21.213 21.214 21.213-21.213 21.213z"/><path d="m256.24 271.44c4.007 0 7.773-1.561 10.607-4.394 5.848-5.849 5.848-15.365 0-21.213-2.924-2.924-6.766-4.386-10.607-4.386s-7.683 1.462-10.607 4.386c-5.848 5.849-5.848 15.365 0 21.213 2.834 2.834 6.6 4.394 10.607 4.394z"/><path d="m482.74 164.125 29.541-7.915-7.765-28.978-29.541 7.915c-6.374-17.308-15.744-33.75-28.106-48.524l21.683-21.683-21.213-21.213-21.718 21.718c-14.792-12.292-31.243-21.594-48.55-27.909l7.978-29.773-28.979-7.763-7.999 29.853c-18.494-3.133-37.423-3.108-55.911.069l-8.017-29.922-28.978 7.765 8.013 29.905c-17.259 6.344-33.659 15.664-48.403 27.959l-21.901-21.901-21.213 21.213 21.413 21.413-42.853 42.853-21.213-21.213-21.213 21.213 21.213 21.213-42.653 42.653-21.213-21.213-21.213 21.213 21.694 21.694c-12.193 14.593-21.645 30.976-28.094 48.519l-29.564-7.921-7.765 28.978 29.602 7.932c-1.561 9.171-2.362 18.54-2.362 28.032s.801 18.861 2.362 28.032l-29.602 7.931 7.765 28.978 29.563-7.921c6.449 17.543 15.901 33.926 28.094 48.519l-21.694 21.694 21.213 21.213 21.701-21.701c14.783 12.327 31.229 21.663 48.537 28.008l-7.946 29.657 28.978 7.765 7.957-29.697c9.262 1.583 18.634 2.379 28.007 2.379 9.372 0 18.744-.796 28.006-2.379l7.957 29.697 28.978-7.765-7.946-29.657c17.308-6.345 33.754-15.681 48.537-28.008l21.701 21.701 21.213-21.213-21.213-21.213 42.653-42.653 21.213 21.213 21.213-21.213-21.213-21.213 42.854-42.854 21.013 21.013 21.213-21.213-21.501-21.501c12.358-14.82 21.711-31.314 28.056-48.67l29.408 7.88 7.765-28.978-29.471-7.897c3.154-18.561 3.129-37.561-.071-56.116zm-392.458 153.381c0-28.056 10.9-54.407 30.692-74.199l122.133-122.133c19.792-19.792 46.143-30.692 74.199-30.692s54.407 10.9 74.199 30.692c40.914 40.913 40.914 107.485 0 148.398l-122.132 122.134c-19.792 19.792-46.143 30.692-74.199 30.692s-54.407-10.9-74.199-30.692c-19.793-19.792-30.693-46.143-30.693-74.2z"/></g></svg>