<svg id="Capa_1" enable-background="new 0 0 510.93 510.93" height="512" viewBox="0 0 510.93 510.93" width="512" xmlns="http://www.w3.org/2000/svg"><g><path d="m379.56 148.185 40.96 81.06c74.48-67.246 27.043-192.754-74.441-193.04-37.799 0-71.229 19-91.259 47.95l78.55 155.46z"/><path d="m402.33 259.775c-4.427-8.763-18.136-35.898-22.77-45.07-5.659 11.201-24.103 47.701-29.43 58.25.03 0 .05-.01.08-.01 4.829 9.573 20.236 40.068 25.31 50.11 14.094 2.603 19.285 8.954 28.43 14.16h.03c4.387 2.555 14.205 2.547 18.59-.01h.03c4.793-2.512 8.827-6.323 14.23-9.14-5.017-9.931-30.058-59.518-34.5-68.29z"/><path d="m450.38 354.875c-1.42.82-2.85 1.83-4.53 3.02-11.134 8.923-29.063 14.76-48.16 9.03l54.46 107.8h58.78z"/><path d="m161.45 209.325c7.89 0 11.06-1.86 16.33-4.94 13.015-8.833 35.339-12.748 53.82-4.779 8.728 3.48 13.055 9.027 22.65 9.62 12.213 1.072 16.385-3.762 25.86-8.5-18.896-37.413-52.335-103.576-70.84-140.21l-70.84 140.21c8.532 4.046 12.179 8.773 23.02 8.599z"/><path d="m324.96 289.495c-9.522-18.831-21.739-43.053-31.31-61.98-5.043 2.432-8.835 5.361-14.77 7.77-11.384 5.212-30.981 5.252-42.19.55-4.53-1.72-8.06-3.79-11.09-5.56-5.27-3.08-8.44-4.95-16.33-4.95s-11.07 1.87-16.33 4.95c-17.932 12.035-44.998 12.065-62.98-.001-1.84-1.08-3.43-2.009-5.06-2.759l-124.9 247.21h418.55c-4.405-8.717-91.7-181.5-93.59-185.23z"/></g></svg>