<?xml version="1.0" encoding="iso-8859-1"?>
<!-- Generator: Adobe Illustrator 19.0.0, SVG Export Plug-In . SVG Version: 6.00 Build 0)  -->
<svg xmlns="http://www.w3.org/2000/svg" xmlns:xlink="http://www.w3.org/1999/xlink" version="1.1" id="Layer_1" x="0px" y="0px" viewBox="0 0 512 512" style="enable-background:new 0 0 512 512;" xml:space="preserve">
<g>
	<g>
		<path d="M508.738,407.935l-33.478-89.766c9.251-8.169,15.089-20.105,15.089-33.384V44.529C490.349,19.981,470.369,0,445.82,0    H67.356C42.807,0,22.827,19.981,22.827,44.529v240.255c0,12.852,5.474,24.455,14.215,32.583l-33.78,90.568    c-4.87,13.05-3.028,27.681,4.922,39.139c7.951,11.447,21.011,18.274,34.955,18.274h425.73c13.934,0,26.994-6.827,34.945-18.274    C511.766,435.616,513.608,420.985,508.738,407.935z M285.737,422.847h-60.805c-4.527,0-7.607-4.589-5.901-8.773l8.252-20.199    c0.978-2.393,3.309-3.965,5.89-3.965h44.311c2.591,0,4.922,1.571,5.901,3.965l8.242,20.199    C293.344,418.258,290.263,422.847,285.737,422.847z M459.13,284.784c0,7.347-5.973,13.32-13.31,13.32H67.356    c-7.337,0-13.31-5.973-13.31-13.32V44.529c0-7.337,5.973-13.31,13.31-13.31H445.82c7.337,0,13.31,5.973,13.31,13.31V284.784z"/>
	</g>
</g>
<g>
	<g>
		<rect x="203.01" y="100.985" width="197.037" height="31.219"/>
	</g>
</g>
<g>
	<g>
		<rect x="113.545" y="163.549" width="286.491" height="31.219"/>
	</g>
</g>
<g>
	<g>
		<rect x="113.545" y="226.123" width="286.491" height="31.219"/>
	</g>
</g>
<g>
	<g>
		<rect x="4.332" y="480.78" width="504.924" height="31.22"/>
	</g>
</g>
<g>
	<g>
		<rect x="113.545" y="72.127" width="60.753" height="60.753"/>
	</g>
</g>
<g>
</g>
<g>
</g>
<g>
</g>
<g>
</g>
<g>
</g>
<g>
</g>
<g>
</g>
<g>
</g>
<g>
</g>
<g>
</g>
<g>
</g>
<g>
</g>
<g>
</g>
<g>
</g>
<g>
</g>
</svg>
