<svg id="Capa_1" enable-background="new 0 0 510 510" height="512" viewBox="0 0 510 510" width="512" xmlns="http://www.w3.org/2000/svg"><g><path d="m345 225h-15v30h15c8.271 0 15-6.729 15-15s-6.729-15-15-15z"/><path d="m60 0v510h390v-510zm150 60h120v30h-120zm0 60h150v30h-150zm60 75v120h-30v-120zm-120-75h30v30h-30zm-30 75h30v41.459l15.28 30.561 14.72-30.456v-41.564h30v48.436l-34.59 71.564h-19.681l-35.729-71.459zm270 255h-270v-30h270zm0-60h-270v-30h270zm-45-105h-15v30h-30c0-12.143 0-109.16 0-120h45c24.813 0 45 20.188 45 45 0 24.813-20.187 45-45 45z"/></g></svg>