<?xml version="1.0" encoding="iso-8859-1"?>
<!-- Generator: Adobe Illustrator 19.0.0, SVG Export Plug-In . SVG Version: 6.00 Build 0)  -->
<svg version="1.1" id="Layer_1" xmlns="http://www.w3.org/2000/svg" xmlns:xlink="http://www.w3.org/1999/xlink" x="0px" y="0px"
	 viewBox="0 0 512 512" style="enable-background:new 0 0 512 512;" xml:space="preserve">
<g>
	<g>
		<g>
			<rect x="210.824" y="45.176" width="90.353" height="421.647"/>
			<path d="M0,466.824h165.647V45.176H0V466.824z M105.412,353.882H60.235v-90.353h45.176V353.882z M82.824,158.118
				c16.607,0,30.118,13.511,30.118,30.118s-13.511,30.118-30.118,30.118s-30.118-13.511-30.118-30.118
				S66.217,158.118,82.824,158.118z"/>
			<path d="M346.353,45.176v421.647H512V45.176H346.353z M429.176,286.118c-16.607,0-30.118-13.511-30.118-30.118
				s13.511-30.118,30.118-30.118c16.607,0,30.118,13.511,30.118,30.118S445.783,286.118,429.176,286.118z"/>
		</g>
	</g>
</g>
<g>
</g>
<g>
</g>
<g>
</g>
<g>
</g>
<g>
</g>
<g>
</g>
<g>
</g>
<g>
</g>
<g>
</g>
<g>
</g>
<g>
</g>
<g>
</g>
<g>
</g>
<g>
</g>
<g>
</g>
</svg>
