<svg id="Capa_1" enable-background="new 0 0 512 512" height="512" viewBox="0 0 512 512" width="512" xmlns="http://www.w3.org/2000/svg"><path id="XMLID_570_" d="m272.749 109.554 60.251-43.896v-44.637l-61.971-21.021v109.414c-4.962-.366-9.973-.557-15.029-.557s-10.067.192-15.029.557v-109.414l-61.971 21.021v44.637l60.252 43.896c-103.494 8.513-184.829 95.187-184.829 200.869 0 111.322 90.244 201.577 201.577 201.577s201.577-90.255 201.577-201.577c0-105.682-81.334-192.356-184.828-200.869zm-16.749 340.638c-77.186 0-139.779-62.572-139.779-139.768 0-77.186 62.593-139.779 139.779-139.779s139.779 62.593 139.779 139.779c0 77.196-62.593 139.768-139.779 139.768z"/></svg>