<svg id="Capa_1" enable-background="new 0 0 512.024 512.024" height="512" viewBox="0 0 512.024 512.024" width="512" xmlns="http://www.w3.org/2000/svg"><g><path d="m402.887 120.498v-45.248c0-41.493-33.757-75.25-75.25-75.25h-60.251c-37.129 0-68.063 27.029-74.16 62.443-18.096 5.877-31.214 22.901-31.214 42.93v15.127h-15.125v30h120.5v-30h-15.127v-15.126c0-19.033-11.845-35.351-28.551-41.971 5.22-19.224 22.824-33.403 43.677-33.403h60.251c24.951 0 45.25 20.299 45.25 45.25v436.75h67.5v-391.502z"/><path d="m192.137 180.748h30v30h-30z"/><path d="m252.387 180.748h30v30h-30z"/><path d="m282.512 241h30v30h-30z"/><path d="m282.512 361.5h30v30h-30z"/><path d="m312.637 301.249h30v30h-30z"/><path d="m131.887 180.748h30v30h-30z"/><path d="m101.762 240.996h30v30h-30z"/><path d="m71.637 301.25h30v30h-30z"/><path d="m261.287 293.904c0-29.253-23.714-52.967-52.967-52.967s-52.967 23.714-52.967 52.967c0 15.012 6.245 28.565 16.279 38.203-32.988 2.452-58.99 29.993-58.99 63.608v116.309h61.515l-12.73-62.267v-36.542h30v33.507l13.35 65.303h48.14l-12.704-63.785v-52.523c0-19.973-9.18-37.802-23.551-49.498 25.29-4.003 44.625-25.901 44.625-52.315z"/></g></svg>