<svg id="Capa_1" enable-background="new 0 0 512 512" height="512" viewBox="0 0 512 512" width="512" xmlns="http://www.w3.org/2000/svg"><g><path d="m175.201 384.531c-.627 0-1.249-.023-1.867-.059v110.661c0 9.301 7.566 16.867 16.867 16.867h131.598c9.301 0 16.867-7.566 16.867-16.867v-110.661c-.618.036-1.24.059-1.867.059z"/><path d="m143.334 344.948h-143.334v103.318c0 35.199 28.535 63.734 63.734 63.734h82.752c-2.028-5.238-3.152-10.922-3.152-16.867z"/><path d="m368.667 495.133c0 5.945-1.124 11.629-3.152 16.867h82.751c35.2 0 63.734-28.535 63.734-63.734v-103.318h-143.334z"/><path d="m455.333 212.315v-212.315h-30v212.315l-56.667 64v38.633h143.334v-38.633zm-54.24 72.633c9.416-10.634 27.475-31.031 39.241-44.319l39.24 44.319z"/><path d="m143.334 276.315-56.667-64v-212.315h-30v212.315l-56.667 64v38.633h143.334zm-110.908 8.633 39.241-44.319 39.241 44.319z"/><path d="m300.772 61.94 26.292-26.292-21.213-21.213-26.291 26.293c-2.718-1.433-5.577-2.635-8.56-3.56v-37.168h-30v37.168c-2.982.925-5.841 2.126-8.56 3.56l-26.292-26.292-21.213 21.213 26.292 26.292c-1.433 2.718-2.635 5.577-3.56 8.56h-37.167v30h37.168c.925 2.982 2.126 5.841 3.56 8.56l-26.292 26.292 21.213 21.213 26.292-26.292c2.718 1.433 5.577 2.635 8.56 3.56v37.166h30v-37.168c2.982-.925 5.841-2.126 8.56-3.56l26.292 26.292 21.213-21.213-26.292-26.292c1.433-2.718 2.635-5.577 3.56-8.56h37.166v-30h-37.168c-.925-2.981-2.126-5.84-3.56-8.559z"/></g></svg>