<svg id="Capa_1" enable-background="new 0 0 512.037 512.037" height="512" viewBox="0 0 512.037 512.037" width="512" xmlns="http://www.w3.org/2000/svg"><g><path d="m256.019 80.922c8.954 0 17.695 1.078 26.153 3.162-5.068-31.093-20.446-39.249-26.153-41.222-5.706 1.973-21.085 10.128-26.153 41.222 8.457-2.084 17.199-3.162 26.153-3.162z"/><path d="m69.936 188.7-69.936 60.551 19.637 22.681 58.445-50.603 45.712 10.426c1.512-10.208 3.473-20.031 5.874-29.431z"/><path d="m160.535 133.315-39.228-34.983-48.03 14.406c-4.994-12.055-12.224-36.01-12.224-73.623h-30c0 67.389 21.327 98.841 22.235 100.147l6.208 8.93 54.362-16.305 31.131 27.762c3.912-8.113 8.265-15.724 13.059-22.783.818-1.203 1.648-2.385 2.487-3.551z"/><path d="m60.017 289.101-4.154 3.421c-35.49 29.228-55.844 72.36-55.844 118.336h30c0-35.225 14.853-68.372 40.935-91.757h53.291c-2.464-9.634-3.898-19.675-4.174-30z"/><path d="m97.15 388.315v84.607h30v-70.34l29.722-24.182c-6.848-7.297-12.9-15.348-18.021-24.013z"/><path d="m433.955 221.329 58.445 50.603 19.637-22.681-69.935-60.551-59.732 13.624c2.401 9.4 4.362 19.223 5.874 29.431z"/><path d="m367.047 159.649 31.131-27.762 54.362 16.305 6.208-8.93c.908-1.306 22.235-32.758 22.235-100.147h-30c0 29.836-4.627 50.887-8.509 63.291-1.278 4.084-2.561 7.522-3.727 10.329l-48.017-14.403-39.228 34.983c.839 1.167 1.669 2.348 2.486 3.551 4.793 7.059 9.147 14.67 13.059 22.783z"/><path d="m456.174 292.522-4.154-3.421h-60.053c-.276 10.325-1.71 20.366-4.174 30h53.291c26.082 23.385 40.935 56.532 40.935 91.757h30c0-45.976-20.355-89.108-55.845-118.336z"/><path d="m384.887 402.582v70.34h30v-84.607l-41.701-33.929c-5.121 8.665-11.173 16.716-18.021 24.013z"/><path d="m156.487 219.214c15.275 41.703 54.797 69.463 99.531 69.463s84.257-27.76 99.531-69.463c-5.463-25.622-14.327-47.744-26.381-65.495-19.011-27.998-44.306-42.797-73.15-42.797s-54.14 14.799-73.15 42.797c-12.053 17.751-20.918 39.873-26.381 65.495z"/><path d="m361.633 268.467c-25.271 31.156-63.651 50.21-105.614 50.21s-80.343-19.054-105.614-50.21c-.252 5.547-.386 11.193-.386 16.946 0 58.449 47.551 106 106 106s106-47.551 106-106c0-5.753-.135-11.399-.386-16.946z"/></g></svg>