<?xml version="1.0" encoding="iso-8859-1"?>
<!-- Generator: Adobe Illustrator 19.0.0, SVG Export Plug-In . SVG Version: 6.00 Build 0)  -->
<svg xmlns="http://www.w3.org/2000/svg" xmlns:xlink="http://www.w3.org/1999/xlink" version="1.1" id="Layer_1" x="0px" y="0px" viewBox="0 0 511.999 511.999" style="enable-background:new 0 0 511.999 511.999;" xml:space="preserve">
<g>
	<g>
		<path d="M353.09,63.125c-56.221,29.908-127.248,57.291-215.283,83.062l-10.936,3.201v12.078h-53.35v105.356H41.854v48.988h93.751    v-48.988h-31.666v-74.939h22.933v12.078l10.936,3.201c88.035,25.771,159.062,53.153,215.283,83.062    c-10.56-32.136-16.323-71.992-16.323-113.55S342.53,95.261,353.09,63.125z"/>
	</g>
</g>
<g>
	<g>
		<path d="M510.836,145.565c-2.307-30.453-7.994-58.574-16.572-81.267c-8.662-22.916-20.001-39.076-33.008-47.478    c-6.812-4.401-14.082-6.674-21.664-6.674c-0.67,0-1.338,0.019-2.003,0.055c-0.052,0.003-0.103,0.007-0.155,0.01    c-0.566,0.032-1.13,0.081-1.692,0.139c-0.138,0.014-0.275,0.027-0.414,0.043c-0.502,0.058-1.003,0.13-1.502,0.207    c-0.195,0.03-0.388,0.059-0.584,0.093c-0.494,0.085-0.985,0.181-1.476,0.287c-0.211,0.045-0.424,0.093-0.637,0.142    c-0.517,0.12-1.032,0.246-1.545,0.388c-0.131,0.036-0.264,0.077-0.395,0.116c-0.523,0.15-1.044,0.309-1.563,0.484    c-0.065,0.021-0.13,0.042-0.195,0.064c-16.99,5.779-31.797,23.785-42.51,52.125c-11.437,30.257-17.735,70.166-17.735,112.377    s6.298,82.12,17.735,112.377c10.713,28.34,25.52,46.345,42.51,52.125c0.065,0.022,0.13,0.043,0.195,0.064    c0.519,0.173,1.04,0.333,1.563,0.484c0.132,0.037,0.265,0.079,0.395,0.116c0.513,0.142,1.029,0.269,1.545,0.388    c0.213,0.05,0.426,0.097,0.637,0.142c0.491,0.104,0.982,0.202,1.476,0.287c0.197,0.033,0.389,0.063,0.584,0.093    c0.499,0.078,0.999,0.15,1.502,0.207c0.139,0.016,0.276,0.028,0.414,0.043c0.563,0.058,1.126,0.106,1.692,0.139    c0.052,0.003,0.103,0.007,0.155,0.01c0.665,0.036,1.333,0.055,2.003,0.055c4.825,0,9.524-0.921,14.058-2.723    c1.296-0.515,2.577-1.103,3.846-1.761c1.268-0.659,2.522-1.388,3.761-2.189c13.005-8.402,24.345-24.562,33.008-47.478    c9.292-24.583,15.193-55.539,17.078-88.924c0.435-7.705,0.657-15.538,0.657-23.453    C511.999,166.124,511.606,155.715,510.836,145.565z M451.166,176.676v-0.001c0-34.537-5.032-67.657-13.806-90.866l28.453-10.755    c10.022,26.513,15.771,63.553,15.771,101.622H451.166z"/>
	</g>
</g>
<g>
	<g>
		<polygon points="404.697,427.02 404.697,369.904 334.644,369.904 334.644,346.228 21.149,346.228 21.149,422.982 0,422.982     0,501.852 355.794,501.852 355.794,422.982 334.644,422.982 334.644,400.322 374.28,400.322 374.28,457.437 451.002,457.437     451.002,427.02   "/>
	</g>
</g>
<g>
</g>
<g>
</g>
<g>
</g>
<g>
</g>
<g>
</g>
<g>
</g>
<g>
</g>
<g>
</g>
<g>
</g>
<g>
</g>
<g>
</g>
<g>
</g>
<g>
</g>
<g>
</g>
<g>
</g>
</svg>
