<svg id="Capa_1" enable-background="new 0 0 512 512" height="512" viewBox="0 0 512 512" width="512" xmlns="http://www.w3.org/2000/svg"><g><path d="m441.667 183.012-45.884-24.539v195.054l45.884-24.539z"/><path d="m116.216 158.473-45.882 24.539v145.976l45.882 24.539z"/><path d="m365.783 432.766v-353.532c0-43.69-35.543-79.234-79.234-79.234h-61.099c-43.69 0-79.234 35.544-79.234 79.234v353.531c0 43.69 35.544 79.234 79.234 79.234h61.099c43.691.001 79.234-35.543 79.234-79.233zm-158.784-39.766v-274c0-27.019 21.982-49 49-49 27.019 0 49 21.981 49 49v274c0 27.019-21.981 49-49 49-27.018 0-49-21.981-49-49z"/><path d="m255.999 100c-10.477 0-19 8.523-19 19v274c0 10.477 8.523 19 19 19s19-8.523 19-19v-274c.001-10.477-8.523-19-19-19z"/></g></svg>