<svg id="Capa_1" enable-background="new 0 0 509.508 509.508" height="512" viewBox="0 0 509.508 509.508" width="512" xmlns="http://www.w3.org/2000/svg"><g id="XMLID_746_"><path id="XMLID_749_" d="m500.405 244.691c-1.12-1.239-27.94-30.678-71.349-60.359-17.282-11.817-34.762-21.96-52.269-30.399l80.099-80.099-21.213-21.213-88.627 88.627c-28.947-10.718-57.697-16.622-85.473-17.457 28.122 1.448 53.926 11.8 74.652 28.279l-21.383 21.383c-16.812-12.458-37.604-19.837-60.089-19.837-55.769 0-101.139 45.371-101.139 101.139 0 22.485 7.379 43.277 19.837 60.089l-21.383 21.383c-17.802-22.391-28.454-50.709-28.454-81.471 0-70.023 55.166-127.403 124.319-130.963-54.052 1.625-111.796 22.465-167.483 60.542-43.408 29.681-70.229 59.12-71.349 60.359l-9.101 10.06 9.103 10.062c1.12 1.239 27.94 30.678 71.349 60.359 17.282 11.817 34.762 21.96 52.269 30.399l-80.099 80.099 21.213 21.213 88.627-88.627c28.947 10.718 57.697 16.622 85.473 17.457-28.122-1.448-53.926-11.8-74.652-28.279l21.383-21.383c16.812 12.458 37.604 19.837 60.089 19.837 55.769 0 101.139-45.371 101.139-101.139 0-22.485-7.379-43.277-19.837-60.089l21.383-21.383c17.802 22.391 28.454 50.709 28.454 81.471 0 70.023-55.166 127.403-124.319 130.963 54.052-1.625 111.796-22.465 167.483-60.542 43.408-29.681 70.229-59.12 71.349-60.359l9.103-10.062zm-305.779 10.063c0-33.155 26.974-60.128 60.128-60.128 11.147 0 21.588 3.06 30.547 8.368l-22.681 22.681c-2.509-.68-5.145-1.049-7.866-1.049-16.612 0-30.128 13.515-30.128 30.128 0 2.721.369 5.357 1.049 7.866l-22.681 22.681c-5.308-8.959-8.368-19.4-8.368-30.547zm120.256 0c0 33.155-26.974 60.128-60.128 60.128-11.147 0-21.588-3.06-30.547-8.368l22.681-22.681c2.509.68 5.145 1.049 7.866 1.049 16.612 0 30.128-13.515 30.128-30.128 0-2.721-.369-5.357-1.049-7.866l22.681-22.681c5.308 8.959 8.368 19.4 8.368 30.547z"/></g></svg>