<svg id="Capa_1" enable-background="new 0 0 512 512" height="512" viewBox="0 0 512 512" width="512" xmlns="http://www.w3.org/2000/svg"><g><path d="m341.27 297.37c-20 0-36.26 16.25-36.26 36.22s16.26 36.22 36.26 36.22c19.99 0 36.26-16.25 36.26-36.22s-16.27-36.22-36.26-36.22zm0 0c-20 0-36.26 16.25-36.26 36.22s16.26 36.22 36.26 36.22c19.99 0 36.26-16.25 36.26-36.22s-16.27-36.22-36.26-36.22zm95.75-222.39c-48.35-48.35-112.64-74.98-181.02-74.98s-132.67 26.63-181.02 74.98-74.98 112.64-74.98 181.02 26.63 132.67 74.98 181.02 112.64 74.98 181.02 74.98 132.67-26.63 181.02-74.98 74.98-112.64 74.98-181.02-26.63-132.67-74.98-181.02zm-272.99 27.41h30v30h-30zm19.05 305.54h-30v-30h30zm-55.75-122.82c16.08 16.06 42.23 16.07 58.3 0l21.21 21.22c-13.88 13.88-32.12 20.81-50.36 20.81-18.23 0-36.47-6.93-50.35-20.81-13.46-13.44-20.86-31.32-20.86-50.33s7.4-36.89 20.86-50.33c27.76-27.75 72.94-27.75 100.71 0l-21.21 21.22c-16.07-16.07-42.22-16.06-58.3 0-7.78 7.77-12.06 18.11-12.06 29.11s4.28 21.34 12.06 29.11zm257.95-166.15c10.7 10.68 16.59 24.89 16.59 40.01 0 15.11-5.89 29.32-16.59 40.01l-21.2-21.23c5.02-5.01 7.79-11.69 7.79-18.78 0-7.1-2.77-13.77-7.79-18.79-10.38-10.37-27.26-10.37-37.64 0l-21.2-21.22c22.07-22.06 57.98-22.06 80.04 0zm-86.86 84.91h30v30h-30zm42.85 195.94c-36.54 0-66.26-29.7-66.26-66.22s29.72-66.22 66.26-66.22c36.53 0 66.26 29.7 66.26 66.22s-29.73 66.22-66.26 66.22zm0-102.44c-20 0-36.26 16.25-36.26 36.22s16.26 36.22 36.26 36.22c19.99 0 36.26-16.25 36.26-36.22s-16.27-36.22-36.26-36.22z"/></g></svg>