<svg id="Capa_1" enable-background="new 0 0 512 512" height="512" viewBox="0 0 512 512" width="512" xmlns="http://www.w3.org/2000/svg"><g><g><path d="m87.122 463.939c-.417 12.712 4.226 24.747 13.071 33.887s20.721 14.174 33.441 14.174c12.719 0 24.595-5.033 33.44-14.173s13.488-21.175 13.071-33.904l-3.784-111.235h-85.042z"/><path d="m93.829 286.165-1.379 36.551h82.892l-1.25-36.764c-12.73 4.219-26.331 6.51-40.458 6.51-13.887 0-27.263-2.216-39.805-6.297z"/><path d="m33.721 131.137v32.413c0 55.092 44.821 99.912 99.912 99.912s99.912-44.82 99.912-99.912v-32.413zm84.913 68.599h-29.973v-29.972h29.973zm59.973 0h-29.974v-29.972h29.974z"/><path d="m233.545 101.166v-1.254c0-25.119-9.321-48.1-24.682-65.673-18.439 21.983-45.69 34.977-75.327 34.977-29.608 0-56.808-12.941-75.239-34.858-15.298 17.557-24.576 40.491-24.576 65.553v1.254h199.824z"/><path d="m133.537 39.215c20.633 0 39.603-9.058 52.428-24.378-15.23-9.403-33.157-14.837-52.332-14.837-19.23 0-37.206 5.466-52.463 14.919 12.82 15.275 31.754 24.296 52.367 24.296z"/></g><g><path d="m331.855 463.939c-.417 12.712 4.226 24.747 13.071 33.887s20.721 14.174 33.441 14.174c12.719 0 24.595-5.033 33.44-14.173s13.488-21.175 13.071-33.904l-3.784-111.235h-85.042z"/><path d="m338.563 286.165-1.379 36.551h82.892l-1.25-36.764c-12.73 4.219-26.331 6.51-40.458 6.51-13.887 0-27.263-2.216-39.805-6.297z"/><path d="m278.455 131.137v32.413c0 55.092 44.821 99.912 99.912 99.912s99.912-44.82 99.912-99.912v-32.413zm84.912 68.599h-29.973v-29.972h29.973zm59.973 0h-29.974v-29.972h29.974z"/><path d="m478.279 101.166v-1.254c0-25.119-9.321-48.1-24.682-65.673-18.439 21.983-45.69 34.977-75.327 34.977-29.608 0-56.808-12.941-75.239-34.858-15.298 17.558-24.576 40.493-24.576 65.555v1.254h199.824z"/><path d="m378.27 39.215c20.633 0 39.603-9.058 52.428-24.378-15.229-9.403-33.156-14.837-52.331-14.837-19.23 0-37.206 5.466-52.464 14.919 12.82 15.275 31.755 24.296 52.367 24.296z"/></g></g></svg>