<svg id="Capa_1" enable-background="new 0 0 512 512" height="512" viewBox="0 0 512 512" width="512" xmlns="http://www.w3.org/2000/svg"><g><path d="m211 467c0 24.813 20.187 45 45 45s45-20.187 45-45v-5h-90z"/><path d="m398 342h-284c-24.813 0-45 20.187-45 45s20.187 45 45 45h284c24.813 0 45-20.187 45-45s-20.187-45-45-45z"/><path d="m376.71 187.677c-5.276-46.074-35.826-83.643-76.864-99.519 6.994-9.227 11.154-20.714 11.154-33.158 0-30.327-24.673-55-55-55s-55 24.673-55 55c0 12.444 4.16 23.931 11.154 33.157-41.038 15.876-71.588 53.445-76.864 99.519l-14.235 124.324h269.891zm-120.71-107.677c-13.785 0-25-11.215-25-25s11.215-25 25-25 25 11.215 25 25-11.215 25-25 25z"/></g></svg>