<svg id="Capa_1" enable-background="new 0 0 510 510" height="512" viewBox="0 0 510 510" width="512" xmlns="http://www.w3.org/2000/svg"><g id="XMLID_2898_"><path id="XMLID_2940_" d="m330 30h-45c0-16.559-13.44-30-30-30-16.57 0-30 13.43-30 30h-45v60h150z"/><path id="XMLID_3056_" d="m270 347.58v36.207l25.602 25.602c2.817-5.874 4.398-12.451 4.398-19.389 0-19.555-12.541-36.228-30-42.42z"/><path id="XMLID_3075_" d="m240 347.58c-17.459 6.192-30 22.865-30 42.42 0 24.813 20.187 45 45 45 6.938 0 13.515-1.581 19.39-4.397l-34.39-34.39z"/><path id="XMLID_3534_" d="m360 60v60h-210v-60h-75v450h360v-450zm-75 105h60v30h-60zm-120 150h-30v-150h30v30h60v30h-60v30h30v30h-30zm90 150c-41.356 0-75-33.645-75-75s33.644-75 75-75c41.355 0 75 33.645 75 75s-33.645 75-75 75zm120-150h-45v-30h45zm0-60h-90v-30h90z"/></g></svg>