<svg id="Capa_1" enable-background="new 0 0 512 512" height="512" viewBox="0 0 512 512" width="512" xmlns="http://www.w3.org/2000/svg"><g><path d="m275.628 228.001-19.486 19.917-19.929-19.499c-4.82-4.724-12.563-4.647-17.276.159-2.283 2.329-3.522 5.407-3.491 8.667.032 3.261 1.332 6.314 3.661 8.597l37.348 36.605 36.606-37.35c2.286-2.331 3.525-5.409 3.494-8.67-.032-3.261-1.332-6.314-3.661-8.597-4.806-4.711-12.551-4.636-17.266.171z"/><path d="m62.549 61v390h386.902v-390zm338.485 300.767c-7.849 0-14.233 6.385-14.233 14.233v15h-261.602v-15c0-7.848-6.385-14.233-14.233-14.233h-15v-211.534h15c7.849 0 14.233-6.385 14.233-14.233v-15h261.602v15c0 7.848 6.385 14.233 14.233 14.233h15v211.534z"/><path d="m359.419 151h-206.838c-4.463 12.345-14.271 22.152-26.615 26.615v156.771c12.345 4.463 22.152 14.27 26.615 26.615h206.838c4.463-12.345 14.271-22.152 26.615-26.615v-156.771c-12.345-4.463-22.152-14.27-26.615-26.615zm-44.936 115.1-57.604 58.772-58.777-57.608c-8.05-7.894-12.545-18.449-12.655-29.723-.111-11.274 4.175-21.917 12.069-29.967 7.893-8.05 18.448-12.544 29.723-12.655 10.578-.109 20.597 3.662 28.443 10.646 16.409-15.186 42.094-14.962 58.215.845 8.05 7.894 12.545 18.45 12.655 29.723.112 11.275-4.174 21.917-12.069 29.967z"/><path d="m0 61h32.549v30h-32.549z"/><path d="m0 121h32.549v30h-32.549z"/><path d="m0 181h32.549v30h-32.549z"/><path d="m0 241h32.549v30h-32.549z"/><path d="m0 301h32.549v30h-32.549z"/><path d="m0 361h32.549v30h-32.549z"/><path d="m479.451 61h32.549v30h-32.549z"/><path d="m479.451 121h32.549v30h-32.549z"/><path d="m479.451 181h32.549v30h-32.549z"/><path d="m479.451 241h32.549v30h-32.549z"/><path d="m479.451 301h32.549v30h-32.549z"/><path d="m479.451 361h32.549v30h-32.549z"/><path d="m0 421h32.549v30h-32.549z"/><path d="m479.451 421h32.549v30h-32.549z"/></g></svg>