<svg id="Capa_1" enable-background="new 0 0 512 512" height="512" viewBox="0 0 512 512" width="512" xmlns="http://www.w3.org/2000/svg"><g><path d="m512 440.796h-93.614v23.463c0 25.851 20.956 46.807 46.807 46.807 25.851 0 46.807-20.956 46.807-46.807z"/><path d="m418.386 200.83h93.614v209.966h-93.614z"/><path d="m418.386 133.802h93.614v37.028h-93.614z"/><path d="m494.473 46.086h-14.28v-46.086h-30v46.086h-14.297l-13.571 57.716h85.736z"/><g><path d="m67.469 338.844h48.402v37.844h-48.402z"/><path d="m145.871 338.844h48.403v37.844h-48.403z"/><path d="m145.871 271h48.403v37.844h-48.403z"/><path d="m67.469 67.469h205.202v106.062h-205.202z"/><path d="m145.871 406.688h48.403v37.844h-48.403z"/><path d="m224.274 271h48.402v173.531h-48.402z"/><path d="m67.469 271h48.402v37.844h-48.402z"/><path d="m0 512h340.14v-512h-340.14zm37.469-474.531h265.202v166.062h-265.202zm0 203.531h265.208v233.531h-265.208z"/><path d="m67.469 406.688h48.402v37.844h-48.402z"/></g></g></svg>