<svg id="Capa_1" enable-background="new 0 0 512.01 512.01" height="512" viewBox="0 0 512.01 512.01" width="512" xmlns="http://www.w3.org/2000/svg"><g><path d="m363.55 362.876c-20.67-7.59-43.04-16.41-66.72-26.3-24.2 12.91-57.44 12.91-81.64 0-23.69 9.89-46.08 18.72-66.72 26.3-25.073 40.05-41.839 105.103-19.019 133.21 18.918 26.374 53.562 13.847 75.139 4.18 33.365-16.501 69.543-16.465 102.84.001 21.521 9.658 56.263 22.187 75.14-4.181 22.811-28.293 6.09-93.007-19.02-133.21z"/><path d="m148.46 149.136c20.67 7.58 43.05 16.41 66.73 26.3 24.199-12.91 57.423-12.905 81.63-.01 23.68-9.88 46.06-18.7 66.74-26.3 25.06-40.048 41.828-105.094 19.009-133.2-18.903-26.382-53.568-13.843-75.139-4.18-33.365 16.501-69.543 16.465-102.84-.001-21.521-9.658-56.263-22.187-75.14 4.181-22.813 28.295-6.086 92.998 19.01 133.21z"/><path d="m130.55 337.476c19.451-7.027 37.567-14.029 57.41-22.12-7.85-8.98-13.95-19.53-17.76-31.1-23.469 6.798-52.86 15.315-76.44 22.14l-8.35-28.81c21.586-6.263 53.182-15.402 74.49-21.58-21.19-6.139-53.034-15.363-74.49-21.58l8.35-28.81c23.597 6.835 52.965 15.338 76.44 22.14 3.81-11.57 9.91-22.12 17.76-31.1-45.075-16.927-115.167-52.708-158.5-23.981-19.54 13.741-29.45 41.771-29.45 83.331-.86 97.252 55.414 108.45 130.54 81.47z"/><path d="m482.56 172.676c-43.408-28.721-113.34 7.026-158.5 23.98 7.85 8.98 13.95 19.53 17.76 31.1 23.437-6.791 52.887-15.318 76.44-22.14l8.35 28.81c-21.572 6.25-53.199 15.411-74.49 21.58 21.208 6.149 53.019 15.351 74.49 21.58l-8.35 28.81c-23.622-6.837-52.935-15.331-76.44-22.14-3.81 11.57-9.91 22.12-17.76 31.1 45.155 16.933 115.065 52.715 158.5 23.981 19.54-13.741 29.45-41.771 29.45-83.331s-9.91-69.59-29.45-83.33z"/><path d="m256.01 195.666c-53.375.181-80.147 64.486-43.239 102.38 21.546 23.066 60.624 24.411 83.689 2.699 40.584-36.799 14.864-104.787-40.45-105.079z"/></g></svg>