<svg id="Capa_1" enable-background="new 0 0 512 512" height="512" viewBox="0 0 512 512" width="512" xmlns="http://www.w3.org/2000/svg"><g><path d="m376.267 451.998h30.002v30h-30.002z"/><path d="m406.269 421.996h30.002v30h-30.002z"/><path d="m406.269 482h30.002v30h-30.002z"/><path d="m436.271 451.998h30.002v30h-30.002z"/><path d="m118.858 30.002h30.002v30h-30.002z"/><path d="m148.86 0h30.002v30h-30.002z"/><path d="m48.505 129.35h30.001v30h-30.001z"/><path d="m481.998 338.427h30.002v30h-30.002z"/><path d="m261.305 273.24 24.99-24.99-21.213-21.213-24.919 24.919c8.197 5.84 15.354 13.048 21.142 21.284z"/><path d="m117.268 374.851-25.616 25.616 21.213 21.213 25.687-25.686c-8.236-5.788-15.444-12.945-21.284-21.143z"/><path d="m238.337 396.936 24.745 24.744 21.213-21.213-24.285-24.285c-5.989 8.085-13.323 15.116-21.673 20.754z"/><path d="m136.756 252.928-25.891-25.89-21.213 21.212 26.35 26.35c5.638-8.349 12.669-15.683 20.754-21.672z"/><path d="m202.973 236.735v-28.399c14.452-5.578 24.736-19.608 24.736-36.003 0-21.275-17.309-38.584-38.584-38.584s-38.583 17.309-38.583 38.584c0 15.51 9.204 28.903 22.432 35.027v29.772c5.238-.974 10.635-1.488 16.151-1.488 4.711.001 9.335.376 13.848 1.091z"/><path d="m172.973 410.493v27.896c-13.228 6.124-22.432 19.517-22.432 35.027 0 21.275 17.308 38.583 38.583 38.583s38.584-17.308 38.584-38.583c0-16.395-10.284-30.425-24.736-36.003v-26.523c-4.513.715-9.138 1.091-13.849 1.091-5.514.001-10.912-.514-16.15-1.488z"/><path d="m102.625 306.723h-29.014c-6.125-13.228-19.517-22.432-35.027-22.432-21.276 0-38.584 17.308-38.584 38.584 0 21.275 17.308 38.584 38.583 38.584 16.395 0 30.425-10.284 36.003-24.736h27.318c-.621-4.215-.948-8.525-.948-12.91.001-5.846.578-11.559 1.669-17.09z"/><path d="m339.666 284.291c-15.51 0-28.903 9.204-35.027 22.432h-29.014c1.091 5.531 1.668 11.244 1.668 17.09 0 4.385-.327 8.695-.948 12.91h27.318c5.578 14.452 19.608 24.736 36.003 24.736 21.275 0 38.584-17.309 38.584-38.584 0-21.276-17.309-38.584-38.584-38.584z"/><path d="m189.125 264.645c-32.625 0-59.168 26.543-59.168 59.168s26.543 59.168 59.168 59.168c32.626 0 59.169-26.543 59.169-59.168s-26.543-59.168-59.169-59.168zm15.395 74.168h-30.002v-30h30.002z"/><path d="m299.099 107.622h-32.343v30h32.728c-.93-5.255-1.417-10.661-1.417-16.179 0-4.696.354-9.311 1.032-13.821z"/><path d="m482.158 107.622c.678 4.51 1.032 9.125 1.032 13.821 0 5.518-.487 10.924-1.417 16.179h30.227v-30z"/><path d="m374.378 212.575v32.668h30v-32.261c-4.488.671-9.078 1.023-13.75 1.023-5.542-.001-10.972-.492-16.25-1.43z"/><path d="m404.378 29.903v-29.903h-30v30.31c5.277-.938 10.707-1.429 16.25-1.429 4.672 0 9.263.351 13.75 1.022z"/><path d="m335.272 47.302-21.993-21.993-21.213 21.213 22.394 22.394c5.726-8.28 12.761-15.588 20.812-21.614z"/><path d="m443.156 197.612 22.323 22.322 21.213-21.213-21.922-21.921c-6.026 8.05-13.335 15.085-21.614 20.812z"/><path d="m315.433 175.354-23.367 23.367 21.213 21.213 23.356-23.356c-8.162-5.881-15.33-13.056-21.202-21.224z"/><path d="m465.765 67.449 20.927-20.927-21.213-21.213-20.939 20.938c8.168 5.872 15.343 13.04 21.225 21.202z"/><path d="m390.629 58.881c-34.497 0-62.562 28.065-62.562 62.562s28.065 62.562 62.562 62.562 62.562-28.065 62.562-62.562-28.066-62.562-62.562-62.562zm-.251 92.241h-30.002v-30h30.002zm30.002-30.001h-30.002v-30h30.002z"/></g></svg>