<svg id="Capa_1" enable-background="new 0 0 512 512" height="512" viewBox="0 0 512 512" width="512" xmlns="http://www.w3.org/2000/svg"><g><path d="m399.995 110.277c-9.314 0-18.557 1.185-27.508 3.457 6.05 13.983 10.249 28.763 12.375 43.921 4.027 28.708.611 58.165-9.878 85.188l-18.929 48.768h47.676v-45.309c0-21.594 17.568-39.162 39.162-39.162s39.162 17.568 39.162 39.162h29.945c0-.462 0-24.02 0-24.02 0-61.76-50.245-112.005-112.005-112.005z"/><path d="m166.831 386.045h-61.641c-8.29 30.443-35.995 52.884-68.823 52.884v29.945h89.971c20.253 0 40.47-6.416 57.534-18.134-11.718-19.769-17.513-42.161-17.041-64.695z"/><path d="m329.219 451.805c16.573 10.828 36.129 17.068 56.444 17.068h89.971v-29.945c-32.828 0-60.534-22.442-68.823-52.884h-61.741c1.052 22.76-4.323 45.497-15.851 65.761z"/><path d="m137.016 242.841c-10.489-27.021-13.904-56.479-9.877-85.187 2.126-15.158 6.325-29.938 12.375-43.921-8.95-2.272-18.194-3.457-27.508-3.457-61.761.001-112.006 50.246-112.006 112.006v24.02h29.945c0-21.594 17.568-39.162 39.162-39.162s39.162 17.568 39.162 39.162v45.309h47.675z"/><path d="m324.948 291.611 23.001-59.262c8.701-22.417 11.534-46.853 8.194-70.666s-12.788-46.527-27.32-65.684l-72.823-95.999-72.823 95.999c-14.533 19.158-23.98 41.871-27.32 65.684-3.341 23.813-.507 48.249 8.194 70.665l23.001 59.262h137.896z"/><path d="m195.837 386.045c-.506 18.515 4.538 36.933 14.806 52.88l47.054 73.075 44.387-71.272c10.353-16.624 15.089-35.673 13.943-54.683z"/><path d="m79.59 321.556h353.878v34.544h-353.878z"/></g></svg>