<svg id="Capa_1" enable-background="new 0 0 510 510" height="512" viewBox="0 0 510 510" width="512" xmlns="http://www.w3.org/2000/svg"><g id="XMLID_3565_"><path id="XMLID_3694_" d="m450 457.5v-30h-60v30h-315v-60h216.213l45-45h53.787v45h60v-165h-60v30h-53.695c-16.684-7.252-40.056-14.759-66.305-15.433v-29.567h-30v90h30v-30.418c16.822.538 32.377 4.547 45 9.184v45.021l-36.213 36.213h-160.296c-6.968-34.192-37.271-60-73.491-60h-45v90h45v60h-45v30h510v-30z"/><path id="XMLID_3698_" d="m345 22.5h150v60h-150z"/><path id="XMLID_3699_" d="m450 112.5c-20.996 0-39.072 0-60 0v30h60z"/><path id="XMLID_3700_" d="m390 172.5h60v30h-60z"/></g></svg>