<svg id="Capa_1" enable-background="new 0 0 512 512" height="512" viewBox="0 0 512 512" width="512" xmlns="http://www.w3.org/2000/svg"><g><path d="m120.535 80.175c-4.878-19.572-22.472-34.175-43.535-34.175h-32c-24.814 0-45 20.186-45 45h30c0-8.276 6.738-15 15-15h32c8.262 0 15 6.724 15 15l56.84 228.902c-15.773 7-26.84 22.756-26.84 41.098 0 24.814 20.186 45 45 45h17.763c-1.681 4.715-2.763 9.716-2.763 15 0 24.814 20.186 45 45 45s45-20.186 45-45c0-5.284-1.082-10.285-2.763-15h95.526c-1.681 4.715-2.763 9.716-2.763 15 0 24.814 20.186 45 45 45s45-20.186 45-45-20.186-45-45-45h-240c-8.262 0-15-6.724-15-15s6.738-15 15-15h276.416l68.584-240h-384.873l-6.475-25.854zm121.465 340.825c0 8.276-6.738 15-15 15s-15-6.724-15-15 6.738-15 15-15 15 6.724 15 15zm180 0c0 8.276-6.738 15-15 15s-15-6.724-15-15 6.738-15 15-15 15 6.724 15 15zm-180-210h45v-45h30v45h45v30h-45v45h-30v-45h-45z"/></g></svg>