<?xml version="1.0" encoding="iso-8859-1"?>
<!-- Generator: Adobe Illustrator 19.0.0, SVG Export Plug-In . SVG Version: 6.00 Build 0)  -->
<svg xmlns="http://www.w3.org/2000/svg" xmlns:xlink="http://www.w3.org/1999/xlink" version="1.1" id="Capa_1" x="0px" y="0px" viewBox="0 0 512 512" style="enable-background:new 0 0 512 512;" xml:space="preserve">
<g>
	<g>
		<path d="M213.567,404.666c-2.64,4.233-5.777,8.241-9.451,11.915c-3.674,3.674-7.682,6.812-11.914,9.45l30.461,30.461    l21.365-21.365L213.567,404.666z"/>
	</g>
</g>
<g>
	<g>
		<polygon points="123.483,241.378 118.404,309.504 147.414,338.514 152.493,270.388   "/>
	</g>
</g>
<g>
	<g>
		<polygon points="90.207,281.307 95.286,213.18 94.571,212.466 6.561,219.026 0,307.037 0.715,307.752 68.842,302.673     38.437,272.267 59.801,250.902   "/>
	</g>
</g>
<g>
	<g>
		<polygon points="97.04,330.87 28.912,335.949 57.922,364.959 126.05,359.881   "/>
	</g>
</g>
<g>
	<g>
		<path d="M204.115,322.01l-23.424-23.425l-5.079,68.127l37.955,37.955C229.651,378.866,226.514,344.408,204.115,322.01z"/>
	</g>
</g>
<g>
	<g>
		<path d="M154.248,388.078l-68.129,5.078l23.425,23.425c13.037,13.037,30.161,19.555,47.285,19.555    c12.299,0,24.588-3.381,35.372-10.105L154.248,388.078z"/>
	</g>
</g>
<g>
	<g>
		<path d="M307.886,416.581c-3.675-3.674-6.813-7.682-9.451-11.915l-30.461,30.461l21.365,21.365l30.461-30.461    C315.568,423.392,311.56,420.255,307.886,416.581z"/>
	</g>
</g>
<g>
	<g>
		<polygon points="388.518,241.378 359.507,270.388 364.586,338.514 393.596,309.504   "/>
	</g>
</g>
<g>
	<g>
		<polygon points="505.439,219.026 417.429,212.466 416.715,213.18 421.793,281.307 452.199,250.902 473.564,272.267     443.158,302.673 511.285,307.752 512,307.037   "/>
	</g>
</g>
<g>
	<g>
		<polygon points="414.961,330.87 385.95,359.881 454.079,364.959 483.088,335.949   "/>
	</g>
</g>
<g>
	<g>
		<path d="M331.31,298.585l-23.424,23.425c-22.399,22.399-25.537,56.856-9.451,82.656l37.955-37.955L331.31,298.585z"/>
	</g>
</g>
<g>
	<g>
		<path d="M357.752,388.079l-37.954,37.954c10.784,6.724,23.073,10.105,35.372,10.105c17.124,0,34.248-6.518,47.285-19.555    l23.425-23.425L357.752,388.079z"/>
	</g>
</g>
<g>
	<g>
		<polygon points="228.955,143.071 256,225.974 283.045,143.071   "/>
	</g>
</g>
<g>
	<g>
		<polygon points="265.168,55.508 246.833,55.508 228.743,112.856 283.258,112.856   "/>
	</g>
</g>
<g>
	<g>
		<polygon points="197.173,143.071 141.484,143.071 239.244,277.341 240.109,274.687   "/>
	</g>
</g>
<g>
	<g>
		<polygon points="338.642,55.508 296.85,55.508 314.941,112.856 371.574,112.856   "/>
	</g>
</g>
<g>
	<g>
		<polygon points="173.359,55.508 140.427,112.856 197.06,112.856 215.15,55.508   "/>
	</g>
</g>
<g>
	<g>
		<polygon points="314.827,143.071 271.891,274.687 272.757,277.34 370.516,143.071   "/>
	</g>
</g>
<g>
</g>
<g>
</g>
<g>
</g>
<g>
</g>
<g>
</g>
<g>
</g>
<g>
</g>
<g>
</g>
<g>
</g>
<g>
</g>
<g>
</g>
<g>
</g>
<g>
</g>
<g>
</g>
<g>
</g>
</svg>
