<svg id="Capa_1" enable-background="new 0 0 510 510" height="512" viewBox="0 0 510 510" width="512" xmlns="http://www.w3.org/2000/svg"><g><path d="m225 228.394v52.768l45.229-26.829z"/><path d="m135 450h240v-390h-240zm60-273.394 134.771 77.29-134.771 79.942z"/><path d="m0 450h105v-390h-105zm30-30v-30h45v30zm45-210v30h-45v-30zm-45-30v-30h45v30zm45 90v30h-45v-30zm0 60v30h-45v-30zm0-240v30h-45v-30z"/><path d="m405 60v390h105v-390zm75 30v30h-45v-30zm-45 210v-30h45v30zm45 30v30h-45v-30zm-45-90v-30h45v30zm0-60v-30h45v30zm0 240v-30h45v30z"/></g></svg>