<svg id="Capa_1" enable-background="new 0 0 510 510" height="512" viewBox="0 0 510 510" width="512" xmlns="http://www.w3.org/2000/svg"><g id="XMLID_100_"><path id="XMLID_210_" d="m465 255c0-33.137-26.863-60-60-60h-142.5c37.279 0 67.5-30.221 67.5-67.5v7.5h30c24.814 0 45-20.187 45-45s-20.186-45-45-45h-30-135v82.5c0 37.279 30.221 67.5 67.5 67.5h-187.5v30h30v60h-30v30h330c33.137 0 60-26.863 60-60zm-135-180h30c8.272 0 15 6.729 15 15s-6.728 15-15 15h-30z"/><path id="XMLID_208_" d="m510 375v-30h-450c-33.137 0-60 26.863-60 60 0 33.137 26.863 60 60 60h450v-30h-30v-60z"/></g></svg>