<svg id="Capa_1" enable-background="new 0 0 512 512" height="512" viewBox="0 0 512 512" width="512" xmlns="http://www.w3.org/2000/svg"><g><path d="m150.667 355.399c0-22.069-11.01-41.604-27.815-53.437-12.652 11.251-29.296 18.104-47.518 18.104s-34.867-6.853-47.519-18.104c-16.805 11.834-27.815 31.368-27.815 53.437v85.333h150.667z"/><path d="m303.518 268.228c-12.652 11.251-29.296 18.104-47.518 18.104s-34.867-6.853-47.519-18.104c-16.805 11.834-27.815 31.368-27.815 53.437v33.734 85.333h150.667v-85.333-33.734c0-22.069-11.01-41.603-27.815-53.437z"/><path d="m484.185 301.962c-12.652 11.251-29.296 18.104-47.518 18.104-18.223 0-34.867-6.853-47.519-18.104-16.805 11.834-27.815 31.368-27.815 53.437v85.333h150.667v-85.333c0-22.069-11.01-41.603-27.815-53.437z"/><ellipse cx="75.333" cy="248.467" rx="41.599" ry="41.599" transform="matrix(.707 -.707 .707 .707 -153.628 126.043)"/><ellipse cx="256" cy="214.733" rx="41.599" ry="41.599" transform="matrix(.707 -.707 .707 .707 -76.859 243.913)"/><path d="m436.667 290.066c22.938 0 41.599-18.661 41.599-41.599s-18.661-41.599-41.599-41.599-41.6 18.661-41.6 41.599 18.662 41.599 41.6 41.599z"/><path d="m241 71.267h30v60h-30z"/><path d="m306 106.267h60v30h-60z" transform="matrix(.5 -.866 .866 .5 62.979 351.617)"/><path d="m161 91.267h30v60h-30z" transform="matrix(.866 -.5 .5 .866 -37.054 104.247)"/></g></svg>