<svg id="Capa_1" enable-background="new 0 0 511.922 511.922" height="512" viewBox="0 0 511.922 511.922" width="512" xmlns="http://www.w3.org/2000/svg"><g><path d="m333.37 91.281 33.049 33.049-21.213 21.213-41.674-41.674c-3.367 2.394-6.587 5.081-9.604 8.098l-14.119 14.119 84.853 84.853-21.213 21.213-84.853-84.853-111.336 111.336 84.853 84.853-21.212 21.212-84.853-84.853-14.119 14.119c-3.016 3.016-5.703 6.237-8.098 9.603l104.561 104.561c3.366-2.394 6.587-5.081 9.603-8.097l58.302-58.302-42.427-42.427 21.213-21.213 42.427 42.427 22.97-22.97-84.853-84.853 21.213-21.213 84.853 84.853 58.302-58.302c2.997-2.997 5.691-6.214 8.104-9.596l-41.681-41.681 21.213-21.213 33.083 33.083c.813-4.452 1.247-9.005 1.247-13.627 0-20.033-7.801-38.867-21.967-53.033-18.085-18.085-43.185-24.971-66.624-20.685zm-120.713 186.81-21.213-21.213 21.213-21.213 21.213 21.213z"/><path d="m91.242 333.408c-4.286 23.439 2.599 48.539 20.686 66.626 18.087 18.086 43.186 24.972 66.625 20.685z"/><path d="m463.633 48.328c-31.164-31.165-72.599-48.328-116.672-48.328s-85.508 17.163-116.672 48.328l-182 182c-64.333 64.333-64.333 169.011 0 233.345 32.17 32.171 74.414 48.25 116.672 48.25 42.248 0 84.51-16.087 116.673-48.25l182-182c64.333-64.334 64.333-169.012-.001-233.345zm-11.672 116.672c0 28.047-10.922 54.415-30.754 74.246l-182 182c-20.469 20.47-47.358 30.705-74.246 30.705s-53.776-10.235-74.246-30.705c-40.939-40.939-40.939-107.553 0-148.492l182-182c40.939-40.939 107.553-40.939 148.492 0 19.832 19.832 30.754 46.2 30.754 74.246z"/></g></svg>