<svg id="Capa_1" enable-background="new 0 0 512 512" height="512" viewBox="0 0 512 512" width="512" xmlns="http://www.w3.org/2000/svg"><g><path d="m422.251 347h-151.251v-32.007c-18.401-3.062-35.362-11.721-48.816-25.175-13.773-13.772-22.129-30.929-25.12-48.816h-32.064v-151.252c0-49.488-40.261-89.749-89.75-89.749-41.493 0-75.25 33.757-75.25 75.251 0 41.493 33.757 75.25 75.25 75.25h29.5v-75.252h-30v45.25c-24.721-.271-44.75-20.465-44.75-45.249 0-24.951 20.299-45.25 45.25-45.25 32.946 0 59.75 26.803 59.75 59.749v113.843c-15.88-14.196-36.823-22.842-59.75-22.842-41.493 0-75.25 33.757-75.25 75.251 0 41.493 33.757 75.25 75.25 75.25h29.5v-75.252h-30v45.25c-24.721-.271-44.75-20.464-44.75-45.249 0-24.951 20.299-45.25 45.25-45.25 32.946 0 59.75 26.803 59.75 59.749v96.001h-27.709c-30.633 0-55.467 24.833-55.467 55.467v38.21h38.21c30.633 0 55.467-24.833 55.467-55.467v-27.711h96.001c32.945 0 59.749 26.804 59.749 59.75 0 24.951-20.3 45.25-45.251 45.25-24.784 0-44.978-20.029-45.248-44.75h45.25v-30h-75.253v29.5c0 41.493 33.757 75.25 75.251 75.25s75.25-33.757 75.25-75.251c0-22.927-8.646-43.869-22.842-59.749h113.843c32.945 0 59.749 26.804 59.749 59.75 0 24.951-20.3 45.25-45.251 45.25-24.784 0-44.979-20.029-45.248-44.75h45.251v-30h-75.254v29.5c0 41.493 33.758 75.25 75.251 75.25s75.251-33.758 75.251-75.251c0-49.488-40.26-89.749-89.749-89.749zm-207.644-28.393-28.392 28.393h-21.215v-21.211l28.394-28.394z"/><path d="m243.397 268.604c11.765 11.764 27.184 17.647 42.603 17.647s30.839-5.882 42.603-17.647l34.707-34.707-23.249-23.249v-38.708h-38.708l-23.249-23.249-34.707 34.707c-23.529 23.529-23.529 61.677 0 85.206z"/></g></svg>