<svg id="Capa_1" enable-background="new 0 0 512 512" height="512" viewBox="0 0 512 512" width="512" xmlns="http://www.w3.org/2000/svg"><g><path d="m256 91c-90.981 0-165 74.019-165 165s74.019 165 165 165 165-74.019 165-165-74.019-165-165-165zm0 270c-57.891 0-105-47.109-105-105s47.109-105 105-105 105 47.109 105 105-47.109 105-105 105z"/><path d="m256 181c-41.353 0-75 33.647-75 75s33.647 75 75 75 75-33.647 75-75-33.647-75-75-75zm0 120c-24.814 0-45-20.186-45-45h30c0 8.276 6.724 15 15 15s15-6.724 15-15.01h30c0 24.824-20.186 45.01-45 45.01z"/><path d="m271 31.76v-31.76h-30v31.76c-112.092 7.443-201.797 97.148-209.24 209.24h-31.76v30h31.76c7.443 112.092 97.148 201.797 209.24 209.24v31.76h30v-31.76c112.092-7.443 201.797-97.148 209.24-209.24h31.76v-30h-31.76c-7.443-112.092-97.148-201.797-209.24-209.24zm-15 419.24c-107.52 0-195-87.48-195-195s87.48-195 195-195 195 87.48 195 195-87.48 195-195 195z"/></g></svg>