<svg id="Capa_1" enable-background="new 0 0 512.667 512.667" height="512" viewBox="0 0 512.667 512.667" width="512" xmlns="http://www.w3.org/2000/svg"><g id="XMLID_776_"><path id="XMLID_777_" d="m399.059 0h-194v409.667c0 40.252-32.748 73-73 73s-73-32.748-73-73v-254.251c-4.81 1.182-9.831 1.821-15 1.821s-10.19-.64-15-1.821v254.251c0 56.794 46.206 103 103 103s103-46.206 103-103v-379.667h134v53h30z"/><path id="XMLID_781_" d="m59.059 33.251v-33.251h-30v33.251c4.81-1.182 9.831-1.821 15-1.821s10.19.639 15 1.821z"/><circle id="XMLID_783_" cx="44.059" cy="94.333" r="31.452"/><path id="XMLID_787_" d="m126.726 335.076 48.313 19.736v-32.407l-18.313-7.481v-58.591h16.333v-30h-62.666v30h16.333z"/><path id="XMLID_788_" d="m268.059 113h232v91h-232z"/><path id="XMLID_789_" d="m268.059 234v139.8c0 30.989 25.794 56.2 57.5 56.2h8.368c-1.425-4.755-2.202-9.787-2.202-15 0-28.857 23.477-52.333 52.333-52.333s52.333 23.477 52.333 52.333c0 5.213-.776 10.245-2.202 15h8.368c31.706 0 57.5-25.211 57.5-56.2v-139.8z"/><path id="XMLID_790_" d="m369.059 465.132v46.868h30v-46.868c-4.755 1.425-9.787 2.202-15 2.202s-10.245-.777-15-2.202z"/><circle id="XMLID_791_" cx="384.059" cy="415" r="22.333"/><path id="XMLID_799_" d="m296.726 57.667h30v25.333h-30z"/><path id="XMLID_800_" d="m441.393 57.667h30v25.333h-30z"/></g></svg>