<svg id="Capa_1" enable-background="new 0 0 512 512" height="512" viewBox="0 0 512 512" width="512" xmlns="http://www.w3.org/2000/svg"><g><path d="m484 84v-60h-322.04l12.13 60z"/><path d="m453.566 458c21.418-15.01 35.434-39.861 35.434-68v-35c-42.144 0-76.927 31.418-82.265 72.105-.004-.011-29.857-91.081-29.865-91.105h-34.87c-1.58-18.111 11.507-33.917 30-34v-30c-34.654-.123-62.009 29.576-60 64h-176.87l-18.658 56.924c-29.578-16.866-66.683-13.178-92.474 9.898l20.004 22.357c17.616-15.831 43.826-16.91 62.818-2.829 0 0-11.69 35.65-11.69 35.65h-95.13v30h512v-30zm-255.756 0h-31.62l15.58-46.74 28.46 9.48zm73.19 0h-30v-42h30zm43.19 0-12.42-37.26 28.46-9.48 15.58 46.74z"/><path d="m154.57 138.91-23.22-114.91h-61.7l-23.22 114.91c35.24 10.48 72.9 10.48 108.14 0z"/><path d="m165.78 194.37-5.24-25.95c-39.2 11.12-80.88 11.12-120.08 0l-5.24 25.95c42.53 12.81 88.03 12.81 130.56 0z"/></g></svg>