<svg id="Capa_1" enable-background="new 0 0 510 510" height="512" viewBox="0 0 510 510" width="512" xmlns="http://www.w3.org/2000/svg"><g><path d="m212.197 330h30v-30h60v-35.147c-58.467 20.732-120-22.927-120-84.853 0-49.626 40.373-90 90-90 10.515 0 20.611 1.818 30 5.147v-35.147h-30v-30h30v-30h-150v30h30v30h-30v240h60z"/><path d="m471.59 220.606 21.213-21.213-60-60-21.213 21.213 19.394 19.394-21.96 21.959c-23.083-20.754-50.153-33.268-78.555-36.251-6.412-26.234-30.062-45.708-58.272-45.708-33.138 0-60 26.863-60 60s26.862 60 60 60c27.649 0 50.917-18.709 57.869-44.154 69.695 9.18 121.545 93.31 103.354 164.154h-341.223v30h240v45h-240c-41.356 0-75 33.645-75 75h450v-75h-42.87c57.665-58.704 54.765-147.861 5.174-211.091l22.696-22.696zm-109.393 214.394v-45h58.967c-13.711 23.718-28.825 32.789-41.85 45z"/></g></svg>