<svg id="Capa_1" enable-background="new 0 0 510 510" height="512" viewBox="0 0 510 510" width="512" xmlns="http://www.w3.org/2000/svg"><g><path id="XMLID_3318_" d="m374.065 270h48.516c6.192 17.459 22.865 30 42.42 30 24.814 0 45-20.187 45-45 0-24.812-20.186-45-45-45-19.555 0-36.228 12.541-42.42 30h-48.516c-2.741-21.879-11.397-41.943-24.309-58.543l39.357-39.357c38.978 22.721 87.872-5.66 87.872-50.592 0-32.326-26.161-58.492-58.493-58.492-45.026 0-73.182 48.917-50.582 87.861l-39.367 39.367c-16.6-12.912-36.664-21.567-58.543-24.309v-48.515c17.459-6.192 30-22.865 30-42.42 0-24.812-20.186-45-45-45-24.812 0-45 20.188-45 45 0 19.555 12.541 36.228 30 42.42v48.516c-21.88 2.741-41.943 11.396-58.543 24.309l-39.367-39.367c12.986-22.379 9.918-51.589-9.223-70.729-22.805-22.806-59.914-22.808-82.72 0-22.806 22.806-22.806 59.914 0 82.72 19.013 19.014 48.181 22.309 70.729 9.223l39.367 39.367c-12.912 16.6-21.568 36.664-24.309 58.543h-48.514c-6.192-17.459-22.865-30-42.42-30-24.812 0-45 20.188-45 45 0 24.813 20.188 45 45 45 19.555 0 36.228-12.541 42.42-30h48.516c2.74 21.88 11.396 41.943 24.309 58.543l-37.164 37.164c-40.935-24.481-93.081 5.08-93.081 52.783 0 33.993 27.509 61.508 61.508 61.508 47.703 0 77.264-52.146 52.785-93.08l37.164-37.164c16.6 12.912 36.663 21.568 58.543 24.309v48.516c-17.459 6.192-30 22.865-30 42.42 0 24.813 20.188 45 45 45 24.814 0 45-20.187 45-45 0-19.555-12.541-36.228-30-42.42v-48.516c21.879-2.74 41.943-11.396 58.543-24.309l37.164 37.164c-24.481 40.941 5.091 93.08 52.785 93.08 33.991 0 61.508-27.509 61.508-61.508 0-47.703-52.147-77.264-93.08-52.785l-37.164-37.164c12.912-16.6 21.567-36.664 24.309-58.543zm-164.065-45h30v30h-30zm90 60h-30v-30h30z"/></g></svg>