<svg id="Layer_1" enable-background="new 0 0 510 510" height="512" viewBox="0 0 510 510" width="512" xmlns="http://www.w3.org/2000/svg"><g id="XMLID_621_"><path id="XMLID_640_" d="m75 0h360v60h-360z"/><path id="XMLID_917_" d="m75 450h360v60h-360z"/><path id="XMLID_1022_" d="m105 390h300v30h-300z"/><path id="XMLID_1111_" d="m405 120v-30h-300v30c0 59.302 34.593 110.672 84.657 135.002-41.392 20.117-72.208 58.713-81.642 104.998h293.969c-9.434-46.285-40.25-84.881-81.642-104.998 50.065-24.33 84.658-75.7 84.658-135.002zm-120 0h30v30h-30zm-30 60h30v30h-30zm-60-45h30v30h-30zm75 195h-30v-30h30z"/></g></svg>