<svg id="Capa_1" enable-background="new 0 0 512 512" height="512" viewBox="0 0 512 512" width="512" xmlns="http://www.w3.org/2000/svg"><g><path d="m371.776 154.419-13.507-61.608-45.394-76.413-5.691 55.991 15.023 73.894-14.871 73.138 14.871 73.142-14.871 73.143 14.719 72.394-5.157 50.729 41.575-69.706 13.565-61.572 24.777-48.592-9.405-52.955 9.245-52.996z"/><path d="m226.891 357.551 13.566 61.572 45.6 76.455 5.69-55.972-15.024-73.9 14.871-73.144-14.871-73.142 14.871-73.138-14.719-72.388 5.156-50.717-41.371 69.633-13.508 61.609-1.164 2.274c10.979 31.625 16.547 65 16.547 99.306 0 34.407-5.604 67.878-16.647 99.585z"/><path d="m0 13.102v485.795c117.38 0 212.536-108.749 212.536-242.898s-95.156-242.897-212.536-242.897zm118.87 381.316c-31.574 37.889-73.789 58.755-118.87 58.755v-30c75.438 0 136.811-74.994 136.811-167.173s-61.373-167.173-136.811-167.173v-30c45.081 0 87.296 20.866 118.87 58.755 30.916 37.098 47.941 86.256 47.941 138.418s-17.026 101.32-47.941 138.418zm-43.028-92.693v30h-30.235v-30zm-30.235-91.45v-30h30.236v30zm30.358 60.725v-30h30.236v30z"/><path d="m349.913 20.005 36.621 61.648 13.715 62.549 27.686 54.071-10.063 57.685 10.241 57.663-27.604 54.136-13.784 62.563-36.779 61.666c93.008-25.898 162.054-121.719 162.054-235.986 0-114.281-69.063-210.111-162.087-235.995z"/><path d="m172.863 64.49c12.589 14.388 23.609 30.117 32.985 47.022l6.547-29.859 36.629-61.652c-28.721 7.992-55.16 22.641-77.985 42.454.607.68 1.222 1.348 1.824 2.035z"/><path d="m212.204 430.32-6.51-29.55c-9.343 16.798-20.312 32.432-32.831 46.74-.602.688-1.217 1.356-1.824 2.035 22.815 19.804 49.24 34.45 77.946 42.443z"/></g></svg>