<svg id="Capa_1" enable-background="new 0 0 510.019 510.019" height="512" viewBox="0 0 510.019 510.019" width="512" xmlns="http://www.w3.org/2000/svg"><g id="XMLID_322_"><path id="XMLID_359_" d="m240.009 480.019h-135v-90h60v-122.575h78.297l-9.718-48.592-28.862 8.659 1.987 9.934h-35.099l-7.77 2.331c-6.761 1.027-53.246 23.145-109.478-1.378l-27.299 151.621h47.942v120h195v-165h-30z"/><path id="XMLID_369_" d="m472.509 40.019c-5.625 0-7.652-1.081-11.691-3.235-5.353-2.855-12.684-6.765-25.809-6.765v30c5.625 0 7.652 1.081 11.691 3.235 5.353 2.855 12.684 6.765 25.809 6.765 21.897 0 25.062-10 37.5-10v-30c-21.896 0-25.062 10-37.5 10z"/><path id="XMLID_370_" d="m472.509 105.019c-5.625 0-7.652-1.081-11.691-3.235-5.353-2.855-12.684-6.765-25.809-6.765v30c5.625 0 7.652 1.081 11.691 3.235 5.353 2.855 12.684 6.765 25.809 6.765 21.897 0 25.062-10 37.5-10v-30c-13.125 0-20.456 3.91-25.809 6.765-4.038 2.153-6.066 3.235-11.691 3.235z"/><path id="XMLID_371_" d="m472.509 170.019c-5.625 0-7.652-1.081-11.691-3.235-5.353-2.855-12.684-6.765-25.809-6.765v30c5.625 0 7.652 1.081 11.691 3.235 5.353 2.855 12.684 6.765 25.809 6.765 21.897 0 25.062-10 37.5-10v-30c-13.125 0-20.456 3.91-25.809 6.765-4.038 2.153-6.066 3.235-11.691 3.235z"/><circle id="XMLID_372_" cx="112.509" cy="109.945" r="15"/><path id="XMLID_373_" d="m330.009 169.6 75 30v-179.31l-75 30z"/><path id="XMLID_376_" d="m.009 109.945c0 62.938 51.555 109.951 109.543 109.951 27.975 0 36.225-7.445 190.457-52.29v-115.322l-158.567-47.57c-70.539-21.161-141.433 31.563-141.433 105.231zm154.92-15h85.08v30h-85.08c-6.192 17.458-22.865 30-42.42 30-24.813 0-45-20.187-45-45s20.187-45 45-45c19.555 0 36.228 12.541 42.42 30z"/></g></svg>