<svg id="Capa_1" enable-background="new 0 0 510 510" height="512" viewBox="0 0 510 510" width="512" xmlns="http://www.w3.org/2000/svg"><g><path d="m330 225h90v30h-90z"/><path d="m360 285h30v30h-30z"/><path d="m456.213 105h-81.213v-36.213l-38.787-38.787h-162.426l-38.787 38.787v36.213h-81.213l-53.787 53.787v81.213h60v-45h150v45h90v-45h150v45h60c0-10.062 0-72.348 0-81.213zm-291.213 0v-23.787l21.213-21.213h137.574l21.213 21.213v23.787z"/><path d="m450 285h-30v60h-90v-60h-30v-15h-90v15h-30v60h-90v-60h-30v-15h-60v210h510v-210h-60zm-150 120h-30v30h-30v-30h-30v-30h30v-30h30v30h30z"/><path d="m120 285h30v30h-30z"/><path d="m90 225h90v30h-90z"/></g></svg>