<?xml version="1.0" encoding="iso-8859-1"?>
<!-- Generator: Adobe Illustrator 19.0.0, SVG Export Plug-In . SVG Version: 6.00 Build 0)  -->
<svg xmlns="http://www.w3.org/2000/svg" xmlns:xlink="http://www.w3.org/1999/xlink" version="1.1" id="Layer_1" x="0px" y="0px" viewBox="0 0 512 512" style="enable-background:new 0 0 512 512;" xml:space="preserve">
<g>
	<g>
		<path d="M0,20.017v471.966h512V20.017H0z M45.002,101.152c0-19.925,16.21-36.135,36.134-36.135h349.728    c19.924,0,36.134,16.21,36.134,36.135v109.596H360.892l-15.668,25.957l-38.128-112.961l-39.601,105.44l-33.404-39.052    l-31.768,56.48l-36.917-111.274l-52.746,75.41H45.002V101.152z M45.002,240.749h83.288l27.457-39.256l39.467,118.962l43.982-78.2    l38.523,45.036l27.869-74.203l31.898,94.499l40.341-66.838h89.172v110.047h-0.001c0,19.924-16.21,36.134-36.134,36.134H81.136    c-19.924,0-36.134-16.21-36.134-36.134V240.749z M84.647,454.457H44.99v-30.001h39.657V454.457z M144.697,454.457h-39.656v-30.001    h39.656V454.457z M204.748,454.457h-39.656v-30.001h39.656V454.457z M467.01,454.457h-39.656v-30.001h39.656V454.457z"/>
	</g>
</g>
<g>
</g>
<g>
</g>
<g>
</g>
<g>
</g>
<g>
</g>
<g>
</g>
<g>
</g>
<g>
</g>
<g>
</g>
<g>
</g>
<g>
</g>
<g>
</g>
<g>
</g>
<g>
</g>
<g>
</g>
</svg>
