<svg id="Capa_1" enable-background="new 0 0 512 512" height="512" viewBox="0 0 512 512" width="512" xmlns="http://www.w3.org/2000/svg"><g><path d="m236.462 194.159c0-32.7-26.603-59.303-59.302-59.303s-59.302 26.603-59.302 59.303h30.015c0-16.15 13.138-29.288 29.288-29.288s29.288 13.139 29.288 29.288c0 18.682-15.199 33.88-33.88 33.88h-172.569v30.015h172.567c35.231 0 63.895-28.663 63.895-63.895z"/><path d="m374.321 253.704c0-32.7-26.603-59.302-59.302-59.302-32.7 0-59.303 26.603-59.303 59.302h30.015c0-16.149 13.139-29.288 29.288-29.288 16.15 0 29.288 13.138 29.288 29.288 0 18.682-15.199 33.88-33.88 33.88h-310.427v30.015h310.426c35.232 0 63.895-28.664 63.895-63.895z"/><path d="m452.698 255.909c-32.7 0-59.303 26.603-59.303 59.302h30.015c0-16.149 13.138-29.288 29.288-29.288 16.149 0 29.288 13.139 29.288 29.288 0 18.682-15.199 33.88-33.88 33.88l-448.106-.131v30.015l353.339.132c17.332 1.473 30.99 16.042 30.99 33.749 0 16.15-13.138 29.288-29.288 29.288s-29.288-13.138-29.288-29.288h-30.015c0 32.7 26.603 59.303 59.303 59.303s59.302-26.603 59.302-59.303c0-12.383-3.552-23.947-9.675-33.748h43.437c35.232 0 63.895-28.663 63.895-63.896 0-32.7-26.603-59.303-59.302-59.303z"/><path d="m353.173 111.976h30.017v30.015h-30.017z"/><path d="m383.189 81.959h30.017v30.015h-30.017z"/><path d="m157.078 448.539h30.017v30.015h-30.017z"/><path d="m187.095 418.523h30.017v30.015h-30.017z"/><path d="m323.156 81.959h30.017v30.015h-30.017z"/><path d="m353.173 51.943h30.017v30.015h-30.017z"/><path d="m452.349 164.028h30.017v30.015h-30.017z"/><path d="m202.103 33.446h30.017v30.015h-30.017z"/></g></svg>