<?xml version="1.0" encoding="iso-8859-1"?>
<!-- Generator: Adobe Illustrator 19.0.0, SVG Export Plug-In . SVG Version: 6.00 Build 0)  -->
<svg xmlns="http://www.w3.org/2000/svg" xmlns:xlink="http://www.w3.org/1999/xlink" version="1.1" id="Layer_1" x="0px" y="0px" viewBox="0 0 512 512" style="enable-background:new 0 0 512 512;" xml:space="preserve">
<g>
	<g>
		<path d="M473.085,238.13c-8.478-48.104-50.57-84.761-101.056-84.761c-48.64,0-89.485,34.014-99.997,79.507    c0,0.001,0,0.002-0.001,0.003c-6.394-2.263-12.18-2.823-16.871-2.661c-4.992,0.186-9.598,1.179-13.764,2.64v-0.003    c-10.523-45.482-51.368-79.486-99.997-79.486c-50.496,0-92.589,36.657-101.068,84.761H0v31.475h39.669c0,0.001,0,0.001,0,0.002    c6.673,50.182,49.752,89.023,101.729,89.023c52.627,0,96.136-39.816,101.959-90.911v-0.006c3.114-2.707,7.985-5.907,13.103-6.045    c4.277-0.14,8.852,1.965,13.63,6.214v0.005c5.907,51.011,49.364,90.744,101.938,90.744c51.966,0,95.045-38.841,101.718-89.023    c0-0.001,0-0.001,0-0.002H512V238.13H473.085z M112.388,262.316l-31.297-3.347c1.93-17.972,15.969-53.54,55.313-59.478l4.7,31.129    C115.662,234.46,112.42,262.043,112.388,262.316z M348.58,246.589c-4.176,7.334-5.33,14.584-5.466,15.601l-31.297-3.347    c1.92-17.972,15.958-53.54,55.313-59.478l4.69,31.129C361.453,232.058,353.847,237.325,348.58,246.589z"/>
	</g>
</g>
<g>
</g>
<g>
</g>
<g>
</g>
<g>
</g>
<g>
</g>
<g>
</g>
<g>
</g>
<g>
</g>
<g>
</g>
<g>
</g>
<g>
</g>
<g>
</g>
<g>
</g>
<g>
</g>
<g>
</g>
</svg>
