<svg id="Capa_1" enable-background="new 0 0 512 512" height="512" viewBox="0 0 512 512" width="512" xmlns="http://www.w3.org/2000/svg"><g><path d="m87.328 219.262c-19.631 0-35.602 15.971-35.602 35.602s15.971 35.602 35.602 35.602h1.867v-71.203h-1.867z"/><path d="m424.672 290.465c19.631 0 35.602-15.971 35.602-35.602s-15.971-35.602-35.602-35.602h-1.867v71.203h1.867z"/><path d="m448.26 395.379-43.897-13.726c-27.722 53.766-83.819 90.617-148.363 90.617s-120.64-36.851-148.363-90.616l-43.897 13.726c-38.125 11.92-63.74 46.767-63.74 86.713v29.896h512v-29.896c0-39.946-25.615-74.793-63.74-86.714z"/><path d="m256 442.27c75.435 0 136.805-61.371 136.805-136.805v-83.614c-8.905 1.089-20.493 2.063-33.503 2.063-2.918 0-5.907-.049-8.953-.157-38.876-1.373-71.147-11.869-94.349-30.537-23.202 18.668-55.473 29.164-94.349 30.537-16.622.59-31.555-.569-42.457-1.903v83.61c.001 75.436 61.371 136.806 136.806 136.806zm50.602-168.672h33.734v30h-33.734zm-134.938 0h33.734v30h-33.734z"/><path d="m392.219 191.653c-5.932-64.593-56.949-116.328-121.219-123.37v98.3c35.175 32.344 95.39 28.535 121.219 25.07z"/><path d="m241 166.583v-98.3c-64.27 7.042-115.288 58.778-121.219 123.371 25.816 3.463 86.04 7.276 121.219-25.071z"/><path d="m84.67 145.228c10.753-29.556 29.245-55.934 53.475-76.28l-19.292-22.975c-28.255 23.727-49.824 54.502-62.375 88.998z"/><path d="m86.527 34.782c4.203-4.086 8.595-8.061 13.055-11.812l-19.311-22.958c-5.009 4.213-9.94 8.674-14.657 13.261-29.57 28.753-51.63 62.791-65.567 101.167l28.198 10.24c12.377-34.083 31.986-64.329 58.282-89.898z"/><path d="m427.33 145.228 28.192-10.257c-12.55-34.496-34.119-65.271-62.375-88.998l-19.292 22.975c24.231 20.346 42.723 46.724 53.475 76.28z"/><path d="m483.757 124.681 28.198-10.24c-13.937-38.376-35.997-72.414-65.568-101.168-4.717-4.586-9.648-9.047-14.657-13.26l-19.311 22.957c4.46 3.751 8.853 7.726 13.055 11.811 26.296 25.57 45.905 55.816 58.283 89.9z"/></g></svg>