<svg id="Capa_1" enable-background="new 0 0 512 512" height="512" viewBox="0 0 512 512" width="512" xmlns="http://www.w3.org/2000/svg"><g><path d="m106 512c0-94.98 54.976-186.64 111.299-256 6.467-7.539 10.59-12.71 38.687-47.373 23.979-29.78 50.83-65.229 68.423-102.627 18.427-38.105 21.591-67.208 21.591-106h60c0 94.98-54.976 186.64-111.299 256-6.467 7.539-10.59 12.71-38.687 47.373-23.979 29.78-50.83 65.229-68.423 102.627-18.427 38.105-21.591 67.208-21.591 106z"/><path d="m275.017 327.743c18.153 23.969 36.222 50.515 49.406 78.257 18.14 38.837 21.577 64.985 21.577 106h60c0-84.296-43.328-166.104-92.443-231.726-10.34 12.397-28.121 34.415-38.54 47.469z"/><path d="m236.984 184.256c-18.153-23.969-36.224-50.513-49.407-78.256-18.14-38.837-21.577-64.985-21.577-106h-60c0 84.296 43.328 166.104 92.443 231.726 11.384-13.649 27.3-33.386 38.541-47.47z"/><path d="m282.047 391h-52.211c-9.667 15.985-12.507 22.564-15.996 30h84.309c-3.732-8.183-7.05-15.064-16.102-30z"/><path d="m313.92 470.497c-.992-6.326-2.816-12.894-4.709-19.497h-106.436c-1.864 6.588-3.706 13.178-4.753 19.731-.337 2.186-.643 5.993-.925 10.269h117.79c-.29-4.283-.606-8.135-.967-10.503z"/><path d="m197.113 31c.289 4.283.606 8.135.967 10.503.992 6.326 2.816 12.894 4.709 19.497h106.436c1.864-6.588 3.706-13.178 4.753-19.731.337-2.186.643-5.993.925-10.269z"/><path d="m213.851 91c3.72 8.157 7.025 15.022 16.108 30h52.205c9.667-15.985 12.507-22.564 15.996-30z"/></g></svg>