<svg id="Capa_1" enable-background="new 0 0 512 512" height="512" viewBox="0 0 512 512" width="512" xmlns="http://www.w3.org/2000/svg"><g><path d="m218.393 196c2.584 19.123 16.94 36.083 37.607 44.096 20.667-8.012 35.023-24.972 37.607-44.096z"/><path d="m293.607 316c-2.584-19.123-16.94-36.083-37.607-44.096-20.667 8.012-35.023 24.972-37.607 44.096z"/><path d="m217.973 166h76.055v-24.872c-11.965-3.971-24.749-6.128-38.028-6.128s-26.063 2.157-38.027 6.128z"/><path d="m187.973 322.211c0-26.078 13.376-50.302 35.091-66.211-21.715-15.909-35.091-40.133-35.091-66.211v-33.803c-31.953 21.802-52.973 58.498-52.973 100.014s21.02 78.212 52.973 100.014z"/><path d="m480.133 256c0-18.111-2.163-35.714-6.218-52.58l31.672-27.124-55.768-96.592-39.366 13.881c-25.409-24.171-56.489-42.429-91.033-52.602l-7.652-40.983h-111.536l-7.652 40.983c-34.544 10.173-65.624 28.431-91.033 52.602l-39.366-13.881-55.767 96.592 31.672 27.124c-4.055 16.866-6.218 34.47-6.218 52.58s2.163 35.714 6.218 52.58l-31.672 27.124 55.768 96.592 39.366-13.881c25.409 24.171 56.489 42.429 91.033 52.602l7.651 40.983h111.535l7.652-40.983c34.544-10.173 65.624-28.431 91.033-52.602l39.366 13.881 55.768-96.592-31.672-27.124c4.056-16.866 6.219-34.469 6.219-52.58zm-224.133 151c-83.262 0-151-67.738-151-151s67.738-151 151-151 151 67.738 151 151-67.738 151-151 151z"/><path d="m324.027 155.986v33.803c0 26.078-13.376 50.302-35.091 66.211 21.715 15.909 35.091 40.133 35.091 66.211v33.803c31.953-21.802 52.973-58.498 52.973-100.014s-21.02-78.212-52.973-100.014z"/><path d="m294.027 346h-76.055v24.872c11.965 3.971 24.748 6.128 38.028 6.128s26.063-2.157 38.027-6.128z"/></g></svg>