<?xml version="1.0" encoding="iso-8859-1"?>
<!-- Generator: Adobe Illustrator 19.0.0, SVG Export Plug-In . SVG Version: 6.00 Build 0)  -->
<svg version="1.1" id="Layer_1" xmlns="http://www.w3.org/2000/svg" xmlns:xlink="http://www.w3.org/1999/xlink" x="0px" y="0px"
	 viewBox="0 0 512 512" style="enable-background:new 0 0 512 512;" xml:space="preserve">
<g>
	<g>
		<path d="M434.605,238.14c-23.914,0-45.326-10.907-59.535-28.003c-14.209,17.096-35.621,28.003-59.535,28.003
			c-23.914,0-45.326-10.907-59.535-28.003c-14.209,17.096-35.621,28.003-59.535,28.003c-23.914,0-45.326-10.907-59.535-28.003
			c-14.209,17.096-35.621,28.003-59.535,28.003C34.72,238.14,0,203.42,0,160.744V512h285.767V273.86h154.791V512H512V160.744
			C512,203.42,477.28,238.14,434.605,238.14z M250.047,428.651H71.442V273.86h178.605V428.651z"/>
	</g>
</g>
<g>
	<g>
		<rect x="107.163" y="309.581" width="107.163" height="83.349"/>
	</g>
</g>
<g>
	<g>
		<rect x="321.488" y="309.581" width="83.349" height="202.419"/>
	</g>
</g>
<g>
	<g>
		<rect x="273.86" width="83.349" height="142.884"/>
	</g>
</g>
<g>
	<g>
		<rect x="392.93" width="119.07" height="142.884"/>
	</g>
</g>
<g>
	<g>
		<rect width="119.07" height="142.884"/>
	</g>
</g>
<g>
	<g>
		<rect x="154.791" width="83.349" height="142.884"/>
	</g>
</g>
<g>
	<g>
		<path d="M39.75,178.605c6.701,14.067,21.055,23.814,37.645,23.814c16.59,0,30.944-9.747,37.645-23.814H39.75z"/>
	</g>
</g>
<g>
	<g>
		<path d="M396.96,178.605c6.701,14.067,21.054,23.814,37.645,23.814c16.591,0,30.944-9.747,37.645-23.814H396.96z"/>
	</g>
</g>
<g>
	<g>
		<path d="M277.89,178.605c6.701,14.067,21.055,23.814,37.645,23.814c16.59,0,30.944-9.747,37.645-23.814H277.89z"/>
	</g>
</g>
<g>
	<g>
		<path d="M158.82,178.605c6.701,14.067,21.055,23.814,37.645,23.814c16.59,0,30.944-9.747,37.645-23.814H158.82z"/>
	</g>
</g>
<g>
</g>
<g>
</g>
<g>
</g>
<g>
</g>
<g>
</g>
<g>
</g>
<g>
</g>
<g>
</g>
<g>
</g>
<g>
</g>
<g>
</g>
<g>
</g>
<g>
</g>
<g>
</g>
<g>
</g>
</svg>
