<?xml version="1.0" encoding="iso-8859-1"?>
<!-- Generator: Adobe Illustrator 19.0.0, SVG Export Plug-In . SVG Version: 6.00 Build 0)  -->
<svg version="1.1" id="Layer_1" xmlns="http://www.w3.org/2000/svg" xmlns:xlink="http://www.w3.org/1999/xlink" x="0px" y="0px"
	 viewBox="0 0 512 512" style="enable-background:new 0 0 512 512;" xml:space="preserve">
<g>
	<g>
		<path d="M367.971,230.087V211.55c-16.022,10.538-35.179,16.679-55.747,16.679c-13.181,0-26.07-2.517-38.087-7.375
			c-18.591,9.467-39.112,14.403-60.304,14.403c-21.191,0-41.712-4.936-60.304-14.403c-12.019,4.858-24.906,7.375-38.087,7.375
			c-20.568,0-39.725-6.141-55.746-16.679V512h308.277v-39.548h25.494c40.458,0,73.374-32.916,73.374-73.374V230.087H367.971z
			 M163.643,430.364h-31.446V272.175h31.446V430.364z M229.555,430.364h-31.446V272.175h31.446V430.364z M295.467,430.364h-31.446
			V272.175h31.446V430.364z M393.465,441.006h-25.494V261.533h67.422v137.545h0C435.393,422.197,416.584,441.006,393.465,441.006z"
			/>
	</g>
</g>
<g>
	<g>
		<path d="M312.223,56.223c-2.404,0-4.779,0.123-7.12,0.359C288.42,23.051,253.826,0,213.832,0
			c-39.994,0-74.587,23.051-91.271,56.582c-2.342-0.236-4.717-0.359-7.12-0.359c-38.814,0-70.28,31.466-70.28,70.28
			c0,38.815,31.466,70.28,70.28,70.28c14.519,0,28.007-4.404,39.207-11.946c16.687,11.931,37.107,18.974,59.185,18.974
			c22.078,0,42.498-7.044,59.186-18.974c11.2,7.543,24.688,11.946,39.206,11.946c38.815,0,70.28-31.465,70.28-70.28
			C382.503,87.689,351.038,56.223,312.223,56.223z"/>
	</g>
</g>
<g>
</g>
<g>
</g>
<g>
</g>
<g>
</g>
<g>
</g>
<g>
</g>
<g>
</g>
<g>
</g>
<g>
</g>
<g>
</g>
<g>
</g>
<g>
</g>
<g>
</g>
<g>
</g>
<g>
</g>
</svg>
