<svg id="Capa_1" enable-background="new 0 0 512 512" height="512" viewBox="0 0 512 512" width="512" xmlns="http://www.w3.org/2000/svg"><g><path d="m227.81 90c-58.173 0-105.5 47.327-105.5 105.5s47.327 105.5 105.5 105.5 105.5-47.327 105.5-105.5-47.327-105.5-105.5-105.5zm15 166h-30v-30h30zm0-60h-30v-61h30z"/><path d="m423.292 192.819c-1.439-106.569-88.578-192.819-195.482-192.819-107.799 0-195.5 87.701-195.5 195.5 0 53.324 21.898 104.4 60.304 141.2v175.3h240.393v-90h90.304v-73.333h56.38zm-195.482 138.181c-74.715 0-135.5-60.785-135.5-135.5s60.785-135.5 135.5-135.5 135.5 60.785 135.5 135.5-60.785 135.5-135.5 135.5z"/></g></svg>