<svg id="Layer_1" enable-background="new 0 0 511.999 511.999" height="512" viewBox="0 0 511.999 511.999" width="512" xmlns="http://www.w3.org/2000/svg"><g><path d="m150.994 246.175 105.006-58.336 105.006 58.336v23.828h120.991v-37.1c.361-40.532-23.972-79.631-60.496-97.208v-45.362h-30v45.362c-12.591 6.199-23.798 14.746-33.047 25.131-8.957-47.646-41.734-88.565-87.454-107.575v-53.251h-30v53.251c-45.722 19.01-78.497 59.928-87.454 107.576-9.248-10.385-20.455-18.933-33.047-25.132v-45.362h-30v45.362c-36.524 17.577-60.857 56.676-60.496 97.208v37.1h120.991z"/><path d="m0 451.995h511.998v60.004h-511.998z"/><path d="m361.005 421.995h150.993v-121.992h-150.993zm90.497-79.988v47.985h-30v-47.985z"/><path d="m150.994 300.003h-150.994v121.992h150.993v-121.992zm-90.497 89.989v-47.985h30v47.985z"/><path d="m256 348.869c-8.272 0-15.002 6.73-15.002 15.002v58.124h30.004v-58.124c-.001-8.272-6.73-15.002-15.002-15.002z"/><path d="m180.994 280.002v141.993h30.004v-58.124c0-24.814 20.188-45.002 45.002-45.002s45.002 20.188 45.002 45.002v58.124h30.004v-141.993z"/><path d="m256 222.157-50.12 27.845h100.239z"/></g></svg>