<svg id="Capa_1" enable-background="new 0 0 512 512" height="512" viewBox="0 0 512 512" width="512" xmlns="http://www.w3.org/2000/svg"><g><path d="m346 243.518v-16.518c0-8.276 6.738-15 15-15v-30c-24.814 0-45 20.186-45 45v16.518c-34.199 6.969-60 37.266-60 73.482v120c0 41.353 33.633 75 75 75s75-33.647 75-75v-120c0-36.216-25.801-66.513-60-73.482z"/><path d="m151 512c11.733 0 23.355-1.67 34.731-4.417-40.601-30.911-64.731-78.702-64.731-130.583 0-69.36 43.828-131.602 109.072-154.878 3.344-1.366 7.326-2.032 10.928-3.133v-66.989c0-44.493-32.523-81.292-75-88.484v-18.516c0-8.276 6.738-15 15-15v-30c-24.814 0-45 20.186-45 45v18.516c-42.477 7.192-75 43.991-75 88.484v67.793c0 34.983-61 62.764-61 142.207 0 82.705 68.295 150 151 150z"/><path d="m408.084 246.274c17.171 18.7 27.916 43.401 27.916 70.726v120c0 27.325-10.745 52.026-27.916 70.726 58.923-14.492 103.916-67.392 103.916-130.726s-44.993-116.234-103.916-130.726z"/><path d="m253.761 246.462c-65.557 17.059-102.761 72.886-102.761 130.538 0 60.427 39.866 115.222 102.975 130.798-17.207-18.708-27.975-43.44-27.975-70.798v-120c0-27.237 10.688-51.857 27.761-70.538z"/></g></svg>