<svg id="Capa_1" enable-background="new 0 0 512 512" height="512" viewBox="0 0 512 512" width="512" xmlns="http://www.w3.org/2000/svg"><g><circle cx="256.003" cy="256" r="31.867"/><path d="m366.605 256c0-14.783-2.923-28.894-8.208-41.796l33.278-19.213c-6.748-7.381-11.931-16.211-15.03-25.963l-33.285 19.217c-17.348-22.316-43.043-37.833-72.356-41.825v-38.391c-4.835 1.063-9.85 1.64-15 1.64s-10.165-.577-15-1.64v38.391c-29.313 3.992-55.007 19.509-72.356 41.825l-33.291-19.221c-1.497 4.719-3.505 9.35-6.08 13.81-2.549 4.415-5.556 8.48-8.93 12.165l33.264 19.205c-5.286 12.902-8.208 27.013-8.208 41.796s2.923 28.894 8.208 41.796l-33.278 19.213c6.748 7.381 11.931 16.211 15.03 25.963l33.285-19.217c17.348 22.316 43.043 37.833 72.356 41.825v38.391c4.835-1.063 9.85-1.64 15-1.64s10.165.577 15 1.64v-38.391c29.313-3.992 55.007-19.509 72.356-41.825l33.285 19.217c3.1-9.752 8.283-18.582 15.03-25.963l-33.278-19.213c5.285-12.902 8.208-27.013 8.208-41.796zm-110.602 61.867c-34.114 0-61.867-27.754-61.867-61.867s27.754-61.867 61.867-61.867 61.867 27.754 61.867 61.867-27.753 61.867-61.867 61.867z"/><path d="m376.644 126.806c3.1-9.752 8.283-18.582 15.03-25.963l-69.106-39.899c-3.1 9.752-8.283 18.582-15.031 25.963z"/><path d="m428.208 216.111v79.777c4.835-1.063 9.851-1.64 15-1.64 5.15 0 10.165.577 15 1.64v-79.777c-4.835 1.063-9.85 1.64-15 1.64-5.149 0-10.164-.577-15-1.64z"/><path d="m307.537 425.092c6.748 7.381 11.931 16.211 15.031 25.963l69.106-39.899c-6.748-7.381-11.931-16.211-15.03-25.963z"/><path d="m135.363 385.194c-3.1 9.752-8.283 18.582-15.03 25.963l69.106 39.899c3.1-9.752 8.283-18.582 15.031-25.963z"/><path d="m83.798 295.889v-79.788c-4.889 1.083-9.926 1.656-15.037 1.656-5.044 0-10.061-.561-14.963-1.642v79.773c4.835-1.063 9.85-1.64 15-1.64 5.15.001 10.165.578 15 1.641z"/><path d="m204.469 86.908c-6.748-7.381-11.931-16.211-15.031-25.963l-69.076 39.881c6.895 7.56 11.951 16.464 14.969 25.998z"/><circle cx="256.003" cy="39.834" r="39.834"/><circle cx="443.209" cy="147.917" r="39.834"/><path d="m48.881 182.414c6.274 3.622 13.121 5.343 19.88 5.343 13.766 0 27.157-7.145 34.534-19.924 11-19.052 4.472-43.414-14.58-54.414-6.274-3.622-13.121-5.344-19.88-5.343-13.766.001-27.157 7.145-34.534 19.924-11 19.052-4.472 43.414 14.58 54.414z"/><circle cx="256.003" cy="472.166" r="39.834"/><circle cx="443.209" cy="364.083" r="39.834"/><circle cx="68.798" cy="364.083" r="39.834"/></g></svg>