<svg id="Capa_1" enable-background="new 0 0 512 512" height="512" viewBox="0 0 512 512" width="512" xmlns="http://www.w3.org/2000/svg"><g><g><path d="m241 512h270v-150h-270zm156.68-117.48 16.641 24.961-90 60-16.641-24.961z"/><path d="m121 452h-30v-30h30v-60h-120v150h120z"/><path d="m391 266.681c-14.932 21.297-39.567 35.319-67.5 35.319s-52.568-14.022-67.5-35.319c-14.932 21.297-39.567 35.319-67.5 35.319s-52.568-14.022-67.5-35.319c-14.932 21.297-39.567 35.319-67.5 35.319-20.043 0-38.192-7.467-52.5-19.391v49.391h150v180h60v-180h300v-49.391c-14.308 11.924-32.457 19.391-52.5 19.391-27.933 0-52.568-14.022-67.5-35.319z"/><g><path d="m406 219.5c0 28.995 23.505 52.5 52.5 52.5s52.5-23.505 52.5-52.5v-64.314h-105z"/><path d="m323.5 272c28.995 0 52.5-23.505 52.5-52.5v-64.314h-105v64.314c0 28.995 23.505 52.5 52.5 52.5z"/><path d="m136 219.5c0 28.995 23.505 52.5 52.5 52.5s52.5-23.505 52.5-52.5v-64.314h-105z"/><path d="m53.5 272c28.995 0 52.5-23.505 52.5-52.5v-64.314h-105v64.314c0 28.995 23.505 52.5 52.5 52.5z"/></g></g><path d="m330.092 93.765c-1.774 11.569-5.295 22.02-9.51 31.421h25.113c9.547-12.513 15.306-28.048 15.306-45v-15h-31.404c.743 4.887 1.404 9.822 1.404 15-.001 4.848-.397 9.199-.909 13.579z"/><path d="m224.934 125.186h62.058c5.892-9.719 11.259-21.603 13.304-34.893.381-3.267.703-6.504.703-10.107 0-39.229-33.545-69.858-34.966-71.147l-10.033-9.039-10.034 9.038c-1.421 1.289-34.966 31.919-34.966 71.148 0 3.604.322 6.841.776 10.693 2.007 12.999 7.312 24.701 13.158 34.307z"/><path d="m191.221 125.186c-4.043-8.99-7.418-18.876-9.093-29.736-.747-6.182-1.128-10.474-1.128-15.264 0-5.178.661-10.113 1.404-15h-31.404v15c0 16.95 5.755 32.488 15.304 45z"/></g></svg>