<svg id="Capa_1" enable-background="new 0 0 512 512" height="512" viewBox="0 0 512 512" width="512" xmlns="http://www.w3.org/2000/svg"><g><path d="m472.586 45.997c-5.859-15.185-11.487-30.512-15.505-45.997h-402.128c-3.952 15.158-9.674 30.553-15.659 45.979 138.5 14.999 294.784 15.005 433.292.018z"/><path d="m511.716 272.944c-.893-46.447-3.96-91.62-10.027-129.32-79.342 10.256-162.507 15.399-245.673 15.399-83.224 0-166.425-5.148-245.817-15.417-6.027 37.651-9.063 82.852-9.931 129.351 64.43-1.602 127.096 5.823 180.552 21.157-2.749-9.738-4.192-20.05-4.192-30.612h30.087c0 35.841 22.118 65 49.305 65 27.188 0 49.306-29.159 49.306-65h30.087c0 10.561-1.443 20.873-4.192 30.61 53.363-15.303 115.984-22.725 180.495-21.168z"/><path d="m310.795 332.379c-8.29 9.463-18.005 16.525-28.588 20.904 1.919 52.16 4.778 106.96 10.474 158.717h205.825c7.571-48.144 13.494-128.48 13.494-209.042-74.062-1.905-145.228 8.517-201.205 29.421z"/><path d="m495.934 114.116c-1.738-7.37-9.892-32.99-12.199-39.181-72.546 8.184-150.133 12.29-227.711 12.29-77.66 0-155.283-4.111-227.897-12.31-2.358 6.332-10.496 31.965-12.193 39.179 155.097 19.887 324.888 19.895 480 .022z"/><path d="m201.245 332.38c-56.089-20.938-127.287-31.362-201.245-29.41.037 80.524 5.96 160.878 13.533 209.03h205.819c5.63-50.875 8.555-106.526 10.475-158.719-10.58-4.379-20.293-11.44-28.582-20.901z"/></g></svg>