<svg id="Capa_1" enable-background="new 0 0 512 512" height="512" viewBox="0 0 512 512" width="512" xmlns="http://www.w3.org/2000/svg"><g><path d="m459.531 134.938h-26.245v-15c0-28.932-23.537-52.469-52.469-52.469h-15v-15c0-28.931-23.537-52.469-52.468-52.469-26.61 0-48.863 20.18-52.061 46.031 9.856 11.471 16.272 25.225 18.717 40.001 16.528 2.72 31.805 10.481 44.011 22.545 12.163 12.02 20.137 27.142 23.183 43.606 29.692.84 55.488 17.464 69.324 41.747h95.477v-6.522c0-28.932-23.537-52.47-52.469-52.47z"/><path d="m397.303 234.618c0-28.931-23.537-52.469-52.469-52.469h-26.186l-.06-14.94c-.056-14.125-5.617-27.37-15.66-37.294-9.777-9.662-22.646-14.969-36.277-14.969-.139 0-.275 0-.413.001l-15.177.119.059-15.177c.055-14.059-5.377-27.284-15.294-37.239-9.918-9.956-23.12-15.439-37.175-15.439s-27.257 5.483-37.175 15.439c-9.917 9.955-15.349 23.181-15.294 37.239l.059 15.177-15.177-.119c-13.764-.105-26.814 5.208-36.69 14.968-10.043 9.925-15.604 23.169-15.66 37.294l-.06 14.94h-26.185c-28.932 0-52.469 23.538-52.469 52.469v17.767h397.303z"/><path d="m364.688 439.247c-46.745 23.083-99.009 35.285-151.142 35.285h-213.546v37.468h512v-104.938h-9.453c-47.551 0-95.222 11.129-137.859 32.185z"/><path d="m183.651 334.112h30v89.818h-30z"/><path d="m48.714 334.112h30v89.818h-30z"/><path d="m318.589 334.112h30v57.208h-30z"/><path d="m251.12 282.385h30v74.154h-30z"/><path d="m116.183 282.385h30v74.154h-30z"/><path d="m464.072 223.929h30v64.079h-30z"/><path d="m464.072 322.313h30v33.734h-30z"/></g></svg>