<svg id="Capa_1" enable-background="new 0 0 512 512" height="512" viewBox="0 0 512 512" width="512" xmlns="http://www.w3.org/2000/svg"><g><path d="m421.58 0c-33.582 0-60.902 27.321-60.902 60.902 0 33.582 27.32 60.903 60.902 60.903s60.902-27.321 60.902-60.903c0-33.581-27.32-60.902-60.902-60.902zm16.867 77.77h-33.734v-33.735h33.734z"/><path d="m402.846 149.86v207.344c0 64.695-52.633 117.328-117.328 117.328s-117.328-52.633-117.328-117.328c0-33.71 19.377-49.965 43.908-70.545 25.527-21.414 57.296-48.064 57.296-99.251v-1.867h-37.47v1.867c0 33.711-19.376 49.966-43.907 70.545-8.731 7.324-18.626 15.625-27.518 25.298l-11.045 12.015-11.043-12.016c-8.888-9.669-18.784-17.972-27.517-25.296-24.532-20.581-43.908-36.836-43.908-70.546v-1.867h-37.468v1.867c0 51.187 31.769 77.837 57.296 99.251 24.531 20.58 43.907 36.835 43.907 70.545 0 85.355 69.441 154.797 154.797 154.797s154.797-69.441 154.797-154.797v-207.344c-6.048 1.272-12.314 1.946-18.734 1.946s-12.687-.674-18.735-1.946z"/><path d="m63.252 82.469c0-28.931 23.537-52.469 52.469-52.469h16.867v-30h-16.867c-45.474 0-82.469 36.995-82.469 82.469v73.071h30z"/><path d="m235.659 82.469v73.071h30v-73.071c0-45.474-36.996-82.469-82.47-82.469h-16.867v30h16.867c28.932 0 52.47 23.538 52.47 52.469z"/></g></svg>