<svg id="Capa_1" enable-background="new 0 0 512 512" height="512" viewBox="0 0 512 512" width="512" xmlns="http://www.w3.org/2000/svg"><g><path d="m151 286c36.226 0 66.519-25.811 73.491-60h-146.982c6.972 34.189 37.265 60 73.491 60z"/><path d="m151 361c82.842 0 150-67.158 150-150v-60c0-82.842-67.158-151-150-151s-151 68.158-151 151v60c0 82.842 68.158 150 151 150zm60-261.211 40.605 40.605-21.211 21.211-19.394-19.394-19.395 19.395-21.211-21.211zm-120 0 40.605 40.605-21.211 21.211-19.394-19.394-19.395 19.395-21.211-21.211zm-45 96.211h210v15c0 57.891-47.109 105-105 105s-105-47.109-105-105z"/><path d="m361 151c-10.276 0-20.305 1.055-30 3.023v56.977c0 77.485-49.299 143.491-118.105 168.805 9.346 73.865 71.704 132.195 148.105 132.195 82.842 0 151-68.158 151-151v-60c0-82.842-68.158-150-151-150zm60 300h-30v-15c0-16.538-13.462-30-30-30s-30 13.462-30 30v15h-30v-15c0-33.091 26.909-60 60-60s60 26.909 60 60zm0-128.789-40.605-40.605 21.211-21.211 19.394 19.394 19.395-19.395 21.211 21.211z"/></g></svg>