<svg id="Capa_1" enable-background="new 0 0 512 512" height="512" viewBox="0 0 512 512" width="512" xmlns="http://www.w3.org/2000/svg"><g><path d="m351.303 75c0-41.353-33.647-75-75-75s-75 33.647-75 75v258.978c-19.146 19.629-30 45.879-30 73.022 0 57.891 47.109 105 105 105s105-47.109 105-105c0-27.144-10.854-53.394-30-73.022zm-75 377c-24.814 0-45-20.186-45-45 0-19.53 12.578-36.024 30-42.237v-244.763h30v244.763c17.422 6.213 30 22.707 30 42.237 0 24.814-20.186 45-45 45z"/><circle cx="276.303" cy="407" r="15"/><path d="m381.303 62h60v30h-60z"/><path d="m381.303 122h60v30h-60z"/><path d="m381.303 182h60v30h-60z"/><path d="m381.303 242h60v30h-60z"/><path d="m381.303 302h60v30h-60z"/><path d="m181.908 111.395-55.605-55.606-55.606 55.606 21.211 21.21 19.395-19.394v188.789h30v-188.789l19.394 19.394z"/></g></svg>