<svg id="Capa_1" enable-background="new 0 0 512 512" height="512" viewBox="0 0 512 512" width="512" xmlns="http://www.w3.org/2000/svg"><g><path d="m256 90c-91.533 0-166 74.467-166 166s74.467 166 166 166 166-74.467 166-166-74.467-166-166-166zm90 257h-180v-30h180zm-45-90h-90c-8.271 0-15 6.729-15 15v15h-30v-15c0-24.813 20.187-45 45-45h90c8.271 0 15-6.729 15-15s-6.729-15-15-15h-15c-24.813 0-45-20.187-45-45v-32h30v32c0 8.271 6.729 15 15 15h15c24.813 0 45 20.187 45 45s-20.187 45-45 45z"/><path d="m437.02 74.98c-48.353-48.351-112.64-74.98-181.02-74.98s-132.667 26.629-181.02 74.98c-48.351 48.353-74.98 112.64-74.98 181.02s26.629 132.667 74.98 181.02c48.353 48.351 112.64 74.98 181.02 74.98s132.667-26.629 181.02-74.98c48.351-48.353 74.98-112.64 74.98-181.02s-26.629-132.667-74.98-181.02zm-181.02 377.02c-108.075 0-196-87.925-196-196s87.925-196 196-196 196 87.925 196 196-87.925 196-196 196z"/></g></svg>