<svg id="Capa_1" enable-background="new 0 0 512 512" height="512" viewBox="0 0 512 512" width="512" xmlns="http://www.w3.org/2000/svg"><g><path d="m165.789 211.5h60v90h-60z"/><path d="m315.789 136.5c0-8.276-6.738-15-15-15h-15v90h-30v90h93.281l22.5-90h-55.781z"/><path d="m34.012 277.242c7.054 7.503 24.8 24.429 32.461 40.356 7.301 15.16 10.001 38.688 11.367 50.684 9.538 3.658 33.55 11.562 46.992 22.266 13.411 10.887 28.874 36.369 32.109 41.235 3.104-.239 34.19-4.748 51.973-.469 16.984 3.891 41.487 19.655 46.875 22.808 10.171-5.951 30.02-18.947 47.021-22.837 14.513-3.52 38.164-1.064 51.826.498 5.64-8.486 18.746-30.378 31.992-41.147 13.633-10.849 41.304-20.127 47.109-22.354 1.511-13.27 4.348-36.109 11.367-50.684 7.501-15.599 28.26-35.87 32.49-40.371-3.093-9.823-11.807-33.473-11.807-50.728 0-17.204 9.934-44.861 11.777-50.742-7.04-7.488-24.974-24.787-32.461-40.371-7.51-15.556-10.579-44.591-11.484-50.713-9.518-3.65-33.451-11.537-46.875-22.207-13.401-10.898-28.844-36.339-32.08-41.206-10.069.87-35.452 4.313-52.002.425-16.982-3.891-41.485-18.032-46.873-21.185-8.947 5.235-29.977 17.311-46.904 21.2-16.653 3.844-46.188.066-51.973-.425-5.597 8.415-18.768 30.368-31.963 41.089-13.545 10.779-41.179 20.093-46.992 22.324-1.538 10.392-4.021 35.234-11.484 50.713-7.501 15.599-28.26 35.87-32.49 40.371 3.093 9.823 11.807 33.473 11.807 50.728-.001 17.204-9.935 44.861-11.778 50.742zm101.777-95.742h120v-90h45c24.814 0 45 20.186 45 45v45h64.219l-37.5 150h-236.719z"/><path d="m462.753 378.761-1.3 11.479c-9.39 3.603-44.486 14.566-56.133 23.877-11.283 9.158-28.297 38.787-32.212 44.595l53.989 52.787 21.27-62.604 63.633-21.297z"/><path d="m84.902 511.5 53.567-52.787c-3.147-4.67-21.242-35.703-32.534-44.874-11.289-8.948-48.265-20.692-55.811-23.599l-1.295-11.516-48.829 48.874 63.633 21.299z"/></g></svg>