<svg id="Capa_1" enable-background="new 0 0 512 512" height="512" viewBox="0 0 512 512" width="512" xmlns="http://www.w3.org/2000/svg"><g><path d="m0 421h512v30h-512z"/><path d="m392 151h-272v150h272zm-176.409 99.419c-2.647 14.823-16.804 25.581-33.663 25.581-13.503 0-26.695-5.661-35.288-15.144l14.82-13.43c4.865 5.369 12.517 8.574 20.468 8.574 7.73 0 13.177-4.625 13.975-9.096 1.062-5.946-6.981-9.598-10.489-10.891-12.406-4.576-23.424-9.48-23.887-9.687l-.724-.323-.664-.433c-8.436-5.5-12.781-15.145-11.342-25.171 1.534-10.686 9.348-19.391 20.393-22.717 21.852-6.582 39.846 8.253 40.602 8.888l-6.437 7.657-6.375 7.7c-.105-.086-10.645-8.525-22.021-5.095-5.136 1.546-6.161 4.998-6.364 6.409-.146 1.017-.219 3.456 1.959 5.206 2.808 1.229 11.956 5.177 21.782 8.801 20.184 7.445 25.247 22.017 23.255 33.171zm60.409 25.581h-40v-100h20v80h20zm80 0h-20v-40h-20v40h-20v-70c0-16.542 13.458-30 30-30s30 13.458 30 30z"/><path d="m326 196c-5.514 0-10 4.486-10 10v10h20v-10c0-5.514-4.486-10-10-10z"/><path d="m482 391v-330h-452v330zm-60-60h-332v-210h332z"/></g></svg>