<svg id="Capa_1" enable-background="new 0 0 512 512" height="512" viewBox="0 0 512 512" width="512" xmlns="http://www.w3.org/2000/svg"><g><circle cx="256" cy="285" r="15"/><path d="m256 210c-41.367 0-75 33.647-75 75s33.633 75 75 75 75-33.647 75-75-33.633-75-75-75zm0 120c-24.814 0-45-20.186-45-45s20.186-45 45-45 45 20.186 45 45-20.186 45-45 45z"/><path d="m361 8.789v81.211h81.211z"/><path d="m331 120v-120h-270v512h390v-392zm60 180h-31.516c-2.567 17.701-9.417 33.885-19.686 47.591l22.256 22.267-21.211 21.211-22.256-22.267c-13.705 10.267-29.888 17.117-47.587 19.682v31.516h-30v-31.516c-17.699-2.565-33.882-9.415-47.587-19.682l-22.256 22.267-21.211-21.211 22.256-22.267c-10.269-13.705-17.119-29.89-19.686-47.591h-31.516v-30h31.516c2.567-17.701 9.417-33.885 19.686-47.591l-22.256-22.267 21.211-21.211 22.256 22.267c13.705-10.267 29.888-17.117 47.587-19.682v-31.516h30v31.516c17.699 2.565 33.882 9.415 47.587 19.682l22.256-22.267 21.211 21.211-22.256 22.267c10.269 13.705 17.119 29.89 19.686 47.591h31.516z"/></g></svg>