<svg id="Capa_1" enable-background="new 0 0 512 512" height="512" viewBox="0 0 512 512" width="512" xmlns="http://www.w3.org/2000/svg"><g><path d="m204.066 20.513c-11.238 7.401-20.852 17.091-28.204 28.514-6.501 10.101-11.011 21.248-13.381 32.908h41.585z"/><path d="m308.106 19.052v62.883h43.859c-5.295-26.056-21.118-48.836-43.859-62.883z"/><path d="m232.028 0h48.116v81.935h-48.116z"/><path d="m127.594 467.266h113.406v44.734h-113.406z"/><path d="m271 467.266h113.406v44.734h-113.406z"/><path d="m199.318 339.761v-50.277h-47.817c-8.193 0-16.189.858-23.907 2.48v145.302h113.406v-42.853c-23.996-6.595-41.682-28.591-41.682-54.652z"/><path d="m414.406 302.781v209.219h62.212v-106.397c.001-44.582-25.258-83.369-62.212-102.822z"/><path d="m229.318 291.406v48.355c0 14.712 11.969 26.682 26.682 26.682s26.682-11.969 26.682-26.682v-47.821c-8.226 1.689-16.741 2.577-25.459 2.577-9.586-.001-18.924-1.079-27.905-3.111z"/><path d="m312.682 289.484v50.277c0 26.062-17.686 48.058-41.682 54.652v42.853h113.406v-145.302c-7.718-1.622-15.714-2.48-23.907-2.48z"/><path d="m35.381 405.603v106.397h62.213v-209.219c-36.954 19.453-62.213 58.24-62.213 102.822z"/><path d="m257.223 265.516c51.857 0 94.373-40.746 97.224-91.903h-194.448c2.851 51.157 45.366 91.903 97.224 91.903z"/><path d="m116.874 113.538h278.253v30h-278.253z"/></g></svg>