<svg id="Capa_1" enable-background="new 0 0 512 512" height="512" viewBox="0 0 512 512" width="512" xmlns="http://www.w3.org/2000/svg"><g><g><circle cx="156" cy="211.3" r="35"/></g><path d="m391 211.3c0 6.96-2.05 13.45-5.57 18.91h-58.87c-3.52-5.46-5.56-11.95-5.56-18.91 0-19.3 15.7-35 35-35 19.29 0 35 15.7 35 35z"/><path d="m450.09 230.21c30.11 0 55.26 21.54 60.78 49.97.75-7.95 1.13-16.02 1.13-24.18 0-141.38-114.62-256-256-256s-256 114.62-256 256 114.62 256 256 256c117.72 0 216.89-79.46 246.77-187.67-10.92 17.59-30.45 29.33-52.68 29.33h-190.83v-30h190.83c17.55 0 31.82-14.23 31.82-31.72 0-17.5-14.27-31.73-31.82-31.73h-190.83v-30h34.55c-1.83-5.99-2.81-12.34-2.81-18.91 0-35.84 29.16-65 65-65s65 29.16 65 65c0 6.57-.98 12.92-2.81 18.91zm-359.09-18.91c0-24.49 13.62-45.87 33.68-56.94-25.32-11.83-42.91-37.55-42.91-67.29h30c0 24.39 19.84 44.23 44.23 44.23 24.4 0 44.24-19.84 44.24-44.23h30c0 29.75-17.59 55.47-42.92 67.29 20.07 11.07 33.68 32.45 33.68 56.94 0 35.84-29.15 65-65 65-35.84 0-65-29.16-65-65zm164.89 219.41-29.96-1.64c.87-15.68-6.72-30.79-19.79-39.45-20.37-13.49-47.92-7.89-61.42 12.48l-25.01-16.56c22.63-34.17 68.83-43.56 103-20.93 21.91 14.51 34.62 39.84 33.18 66.1z"/></g></svg>