<?xml version="1.0" encoding="iso-8859-1"?>
<!-- Generator: Adobe Illustrator 19.0.0, SVG Export Plug-In . SVG Version: 6.00 Build 0)  -->
<svg xmlns="http://www.w3.org/2000/svg" xmlns:xlink="http://www.w3.org/1999/xlink" version="1.1" id="Layer_1" x="0px" y="0px" viewBox="0 0 511.995 511.995" style="enable-background:new 0 0 511.995 511.995;" xml:space="preserve">
<g>
	<g>
		
			<rect x="33.59" y="172.422" transform="matrix(0.7071 -0.7071 0.7071 0.7071 -145.6727 104.9781)" width="40.587" height="111.819"/>
	</g>
</g>
<g>
	<g>
		
			<rect x="402.202" y="208.032" transform="matrix(0.7071 -0.7071 0.7071 0.7071 -27.2728 390.8085)" width="111.819" height="40.587"/>
	</g>
</g>
<g>
	<g>
		<path d="M145.467,271.229v192.118h70.327c9.073,0,17.633-2.211,25.19-6.107v-76.999V271.229H145.467z"/>
	</g>
</g>
<g>
	<g>
		<path d="M331.187,271.229v74.974h-30.033v-74.975h-30.138V380.24v76.999c7.557,3.896,16.117,6.107,25.19,6.107h70.327V271.229    H331.187z"/>
	</g>
</g>
<g>
	<g>
		<polygon points="225.847,48.648 256,131.458 286.153,48.648   "/>
	</g>
</g>
<g>
	<g>
		<polygon points="357.499,48.648 356.524,48.648 271.017,144.641 271.017,241.195 366.533,241.195 366.533,215.815     382.996,232.279 462.064,153.211   "/>
	</g>
</g>
<g>
	<g>
		<polygon points="155.476,48.648 154.501,48.648 49.936,153.211 129.003,232.279 145.467,215.815 145.467,241.195 240.983,241.195     240.983,144.641   "/>
	</g>
</g>
<g>
</g>
<g>
</g>
<g>
</g>
<g>
</g>
<g>
</g>
<g>
</g>
<g>
</g>
<g>
</g>
<g>
</g>
<g>
</g>
<g>
</g>
<g>
</g>
<g>
</g>
<g>
</g>
<g>
</g>
</svg>
