<svg id="Capa_1" enable-background="new 0 0 512.301 512.301" height="512" viewBox="0 0 512.301 512.301" width="512" xmlns="http://www.w3.org/2000/svg"><g><path d="m101.285 162.71c99.24-2.117 155.972-14.075 207.11-64.81 9.796 9.873 77.508 65.668 132.37 65.1 2.835-88.621-67.287-163.204-154.39-163h-60.7c-87.11-.205-157.246 74.4-154.39 163 10.097-.015 20.099-.099 30-.29z"/><path d="m446.025 193c-51.292 2.722-111.585-35.192-137.09-55.47-54.832 47.873-149.542 56.68-242.911 55.468-70.973 1.032-90.953 95.906-27.689 125.902 8.69-4.07 17.97-7.09 27.66-8.9h.03c6.577-1.244 13.146-1.891 19.94-1.98.02-.01.04-.01.06 0 .01-.01.02-.01.03 0 45.273-.946 87.598 26.313 106.4 65.88 17.53 15.007 42.984 22.046 67.29 20.84 23.573-.02 46.205-8.367 62.46-23.079l19.64 22.68c-21.908 19.603-51.01 30.401-82.1 30.4-19.235.598-38.943-2.207-56.08-9.47 2.303 29.018-6.327 57.581-23.82 80.2 120.92 56.343 261.24-35.927 261.17-170.47 38.063 2.464 71.162-27.615 71.01-66 0-36.391-29.61-66.001-66-66.001zm-236.61 92.92c-14.66-11.21-35.12-11.21-49.78 0l-18.22-23.84c25.38-19.41 60.84-19.41 86.22 0zm93.22 0-18.22-23.84c25.38-19.41 60.84-19.41 86.22 0l-18.22 23.84c-14.66-11.21-35.12-11.21-49.78 0z"/><path d="m89.085 338.02c-115.846 2.929-117.33 167.95-1.559 172.98 33.03 0 61.799-18.61 76.359-45.89 30.557-55.783-11.021-126.619-74.8-127.09zm-17.65 130.1-37.93-37.92 21.22-21.22 16.71 16.72 43.06-43.06 21.21 21.21-4.96 4.96z"/></g></svg>