<svg id="Capa_1" enable-background="new 0 0 512 512" height="512" viewBox="0 0 512 512" width="512" xmlns="http://www.w3.org/2000/svg"><g><path d="m0 374.954h512v60h-512z"/><path d="m177.092 273.751c-19.631 0-35.602 15.971-35.602 35.602s15.971 35.602 35.602 35.602c19.489 0 35.362-15.742 35.591-35.178v-.847c-.229-19.436-16.102-35.179-35.591-35.179z"/><path d="m86.739 123.952h14.015v-46.906h-14.015c-12.953 0-23.453 10.5-23.453 23.453 0 12.953 10.501 23.453 23.453 23.453z"/><path d="m289.475 275.046c.532-.031 1.068-.044 1.604-.058.437-.011.871-.033 1.31-.033h31.462v-75.07h-81.169v119.717c2.58-24.109 22.359-43.144 46.793-44.556z"/><path d="m242.683 169.884h81.169v-40.37c0-28.931-23.537-52.469-52.469-52.469h-140.628v46.907h111.928z"/><path d="m382.847 304.954h-90.458c-11.046 0-20 8.954-20 20 0 11.046 8.954 20 20 20h1.883 88.574c11.046 0 20-8.954 20-20 .001-11.045-8.953-20-19.999-20z"/></g></svg>