<svg id="Capa_1" enable-background="new 0 0 512 512" height="512" viewBox="0 0 512 512" width="512" xmlns="http://www.w3.org/2000/svg"><g><path d="m444.12 397.518c11.07-19.955 16.92-42.57 16.92-65.402v-70.523l-66.494-76.773c-10.344 17.104-29.122 28.564-50.528 28.564-17.476 0-33.194-7.643-44.009-19.754-10.814 12.111-26.532 19.754-44.008 19.754-10.54 0-20.435-2.791-29.008-7.653v6.261c0 .025-.002.05-.002.075.043 15.961 13.039 28.933 29.01 28.933h80.654l26.395 66.267-12.33 6.163c-22.45 11.221-42.931 32.779-57.67 60.704-14.013 26.538-22.049 57.561-22.049 85.116h-30c0-32.754 9.062-67.957 25.519-99.122 15.311-29.007 35.439-51.81 58.731-66.687l-8.939-22.441h-60.311c-17.476 0-33.194-7.643-44.009-19.753-10.814 12.11-26.532 19.753-44.007 19.753-17.476 0-33.194-7.643-44.008-19.754-10.814 12.111-26.532 19.754-44.008 19.754-10.539 0-20.433-2.791-29.006-7.652v68.768c0 49.75 28.095 93.99 70.482 118.806v61.078h269.111v-61.078c21.908-12.786 41.211-31.122 53.564-53.404z"/><path d="m50.963 212.107c.063 15.942 13.05 28.893 29.006 28.893 15.995 0 29.008-13.013 29.008-29.008v-71.226c0-15.995-13.013-29.008-29.008-29.008s-29.009 13.013-29.009 29.008z"/><path d="m344.018 183.383c15.995 0 29.008-13.013 29.008-29.008v-103.528c0-15.995-13.013-29.008-29.008-29.008s-29.009 13.013-29.009 29.008v103.528c0 15.995 13.014 29.008 29.009 29.008z"/><path d="m138.977 96.758v115.233c0 15.995 13.013 29.008 29.008 29.008 15.97 0 28.966-12.973 29.007-28.933 0-.026-.002-.052-.002-.079l.004-115.229c0-15.995-13.014-29.008-29.009-29.008s-29.008 13.013-29.008 29.008z"/><path d="m256.001 183.383c15.995 0 29.008-13.013 29.008-29.008v-125.367c0-15.995-13.012-29.008-29.008-29.008s-29.008 13.013-29.008 29.008v125.367c.001 15.995 13.013 29.008 29.008 29.008z"/></g></svg>