<?xml version="1.0" encoding="iso-8859-1"?>
<!-- Generator: Adobe Illustrator 19.0.0, SVG Export Plug-In . SVG Version: 6.00 Build 0)  -->
<svg xmlns="http://www.w3.org/2000/svg" xmlns:xlink="http://www.w3.org/1999/xlink" version="1.1" id="Capa_1" x="0px" y="0px" viewBox="0 0 511.999 511.999" style="enable-background:new 0 0 511.999 511.999;" xml:space="preserve">
<g>
	<g>
		<rect x="133.84" y="48.46" width="244.33" height="20.959"/>
	</g>
</g>
<g>
	<g>
		<rect x="133.84" width="244.33" height="18.463"/>
	</g>
</g>
<g>
	<g>
		<path d="M395.406,132.189l-11.827-32.767H128.421l-11.827,32.767c-11.794,32.675-17.825,67.15-17.825,101.888v230.317    c0,26.292,21.314,47.605,47.605,47.605h219.251c26.292,0,47.605-21.314,47.605-47.605V234.077    C413.231,199.339,407.2,164.864,395.406,132.189z M231.625,181.486l5.051-20.689l19.324,8.95l19.325-8.951l5.051,20.689    l19.047,9.528l-13.027,16.848l4.426,20.832l-21.295,0.32L256,245.463l-13.527-16.449l-21.295-0.32l4.426-20.832l-13.027-16.848    L231.625,181.486z M256,413.031c-47.694,0-86.358-38.664-86.358-86.358c0-15.661,4.169-30.349,11.458-43.014    c11.336,30.355,40.591,51.973,74.9,51.973c34.308,0,63.564-21.618,74.9-51.973c7.289,12.665,11.458,27.352,11.458,43.014    C342.358,374.368,303.694,413.031,256,413.031z"/>
	</g>
</g>
<g>
</g>
<g>
</g>
<g>
</g>
<g>
</g>
<g>
</g>
<g>
</g>
<g>
</g>
<g>
</g>
<g>
</g>
<g>
</g>
<g>
</g>
<g>
</g>
<g>
</g>
<g>
</g>
<g>
</g>
</svg>
