<svg id="Capa_1" enable-background="new 0 0 512 512" height="512" viewBox="0 0 512 512" width="512" xmlns="http://www.w3.org/2000/svg"><g><path d="m256 143.843c-30.327 0-55 24.673-55 55v35h110v-35c0-30.328-24.673-55-55-55z"/><path d="m171 313.406 43.243 28.709 16.441-11.188c15.379-10.466 35.253-10.466 50.634 0l16.44 11.188 43.242-28.709v-49.563h-170z"/><path d="m0 235.796v252.194l187.458-127.648z"/><path d="m256 .157-256 190.142v9.483l141 93.708v-59.647h30v-35c0-46.869 38.131-85 85-85s85 38.131 85 85v35h30v59.646l141-93.423v-9.767z"/><path d="m247.561 355.729-229.288 156.114h475.716l-229.55-156.114c-5.126-3.489-11.751-3.489-16.878 0z"/><path d="m512 487.813v-251.749l-187.457 124.278z"/></g></svg>