<svg id="Capa_1" enable-background="new 0 0 512 512" height="512" viewBox="0 0 512 512" width="512" xmlns="http://www.w3.org/2000/svg"><g><path d="m116.606 275.393-21.213 21.213 55.607 55.607 55.606-55.606-21.213-21.213-19.393 19.393v-85.863c50.817-7.301 90-51.119 90-103.924 0-57.897-47.103-105-105-105s-105 47.103-105 105c0 52.805 39.183 96.623 90 103.924v85.863zm-40.606-170.393c0-41.355 33.645-75 75-75s75 33.645 75 75-33.645 75-75 75-75-33.645-75-75z"/><path d="m376 303.076v-62.076h30v-30h-30v-30h-30v30h-30v30h30v62.076c-50.817 7.301-90 51.119-90 103.924 0 57.897 47.103 105 105 105s105-47.103 105-105c0-52.805-39.183-96.623-90-103.924zm-15 178.924c-41.355 0-75-33.645-75-75s33.645-75 75-75 75 33.645 75 75-33.645 75-75 75z"/><path d="m346 121h30c0-49.626-40.374-90-90-90v30c33.084 0 60 26.916 60 60z"/><path d="m166 391h-30c0 49.626 40.374 90 90 90v-30c-33.084 0-60-26.916-60-60z"/></g></svg>