<svg id="Capa_1" enable-background="new 0 0 510 510" height="512" viewBox="0 0 510 510" width="512" xmlns="http://www.w3.org/2000/svg"><g><circle cx="195" cy="187.5" r="15"/><path d="m105 97.5c0-5.258-.915-10.305-2.58-15h-72.42v48.505c7.968 7.142 18.483 11.495 30 11.495 24.813 0 45-20.187 45-45z"/><path d="m405 337.5h75v-33.505c-7.968-7.142-18.483-11.495-30-11.495-24.814 0-45 20.186-45 45z"/><path d="m345 142.5c24.814 0 45-20.187 45-45 0-5.258-.915-10.305-2.58-15h-84.84c-1.665 4.695-2.58 9.742-2.58 15 0 24.813 20.186 45 45 45z"/><path d="m120 337.5h90c0-24.814-20.186-45-45-45-24.812 0-45 20.186-45 45z"/><circle cx="315" cy="247.5" r="15"/><path d="m165 262.5c41.355 0 75 33.645 75 75h135c0-41.355 33.645-75 75-75 10.664 0 20.807 2.252 30 6.281v-186.281h-61.51c9.499 46.607-26.307 90-73.49 90-47.186 0-82.989-43.396-73.491-90h-138.019c9.499 46.607-26.308 90-73.49 90-10.664 0-20.807-2.252-30-6.281v171.281h60c0-41.355 33.645-75 75-75zm225-60h30v30h-30zm-75 0c24.814 0 45 20.186 45 45s-20.186 45-45 45-45-20.186-45-45 20.186-45 45-45zm-120-60c24.814 0 45 20.187 45 45 0 24.814-20.186 45-45 45-24.812 0-45-20.186-45-45 0-24.813 20.188-45 45-45zm-105 60h30v30h-30z"/><path d="m0 367.5c0 33.137 26.863 60 60 60h390c33.137 0 60-26.863 60-60z"/></g></svg>