<?xml version="1.0" encoding="iso-8859-1"?>
<!-- Generator: Adobe Illustrator 19.0.0, SVG Export Plug-In . SVG Version: 6.00 Build 0)  -->
<svg xmlns="http://www.w3.org/2000/svg" xmlns:xlink="http://www.w3.org/1999/xlink" version="1.1" id="Layer_1" x="0px" y="0px" viewBox="0 0 512 512" style="enable-background:new 0 0 512 512;" xml:space="preserve">
<g>
	<g>
		<polygon points="303.989,201.139 127.417,201.139 14.219,326.916 14.219,327.786 417.187,327.786 417.187,326.916   "/>
	</g>
</g>
<g>
	<g>
		<path d="M228.002,12.476L215.703,0l-12.299,12.475c-10.443,10.594-62.538,65.313-62.538,102.313    c0,41.266,33.572,74.838,74.837,74.838c41.265,0,74.837-33.572,74.837-74.837C290.54,77.788,238.444,23.069,228.002,12.476z"/>
	</g>
</g>
<g>
	<g>
		<polygon points="463.241,379.596 463.241,408.38 417.187,408.38 417.187,362.326 14.219,362.326 14.219,512 417.187,512     417.187,442.92 463.241,442.92 463.241,471.703 497.781,471.703 497.781,379.596   "/>
	</g>
</g>
<g>
</g>
<g>
</g>
<g>
</g>
<g>
</g>
<g>
</g>
<g>
</g>
<g>
</g>
<g>
</g>
<g>
</g>
<g>
</g>
<g>
</g>
<g>
</g>
<g>
</g>
<g>
</g>
<g>
</g>
</svg>
