<svg id="Capa_1" enable-background="new 0 0 512 512" height="512" viewBox="0 0 512 512" width="512" xmlns="http://www.w3.org/2000/svg"><g><path d="m366.043 193.252c-6.791 0-12.315 5.524-12.315 12.315v49.142h-30v-108.444c0-6.79-5.524-12.314-12.314-12.314s-12.314 5.524-12.314 12.314v108.445h-30v-145.415c0-6.79-5.524-12.314-12.314-12.314s-12.314 5.524-12.314 12.314v145.415h-30v-111.009c0-6.79-5.524-12.314-12.314-12.314s-12.314 5.524-12.314 12.314v137.104h13.677c37.209 0 67.482 30.272 67.482 67.482h-30c0-20.667-16.814-37.482-37.482-37.482h-43.677v-55.784c0-7.14-5.809-13.014-12.948-13.094-3.508-.042-6.842 1.303-9.349 3.779-2.506 2.476-3.888 5.779-3.892 9.302l-.009 25.138c-.012 32.692 12.709 63.429 35.821 86.549s53.844 35.854 86.536 35.854c67.468 0 122.357-54.889 122.357-122.357v-74.625c-.003-6.79-5.527-12.315-12.317-12.315z"/><path d="m362.038 0h-212.077l-149.961 149.961v212.078l149.961 149.961h212.077l149.962-149.961v-212.078zm46.319 280.192c0 84.01-68.348 152.357-152.357 152.357-40.707 0-78.974-15.855-107.753-44.645-28.778-28.789-44.619-67.062-44.604-107.769l.009-25.147c.011-11.603 4.56-22.476 12.807-30.624 8.249-8.148 19.127-12.58 30.769-12.436 4.389.049 8.625.765 12.613 2.047v-70.276c0-23.333 18.982-42.314 42.314-42.314 4.438 0 8.718.691 12.74 1.964 2.9-20.526 20.574-36.37 41.889-36.37 22.163 0 40.389 17.132 42.161 38.847 3.943-1.218 8.13-1.877 12.468-1.877 23.332 0 42.314 18.982 42.314 42.314v18.821c3.899-1.188 8.032-1.833 12.314-1.833 23.333 0 42.315 18.982 42.315 42.314v74.627z"/></g></svg>