<svg id="Capa_1" enable-background="new 0 0 512 512" height="512" viewBox="0 0 512 512" width="512" xmlns="http://www.w3.org/2000/svg"><g><path d="m141.38 435.792c-27.57 0-50-22.214-50-49.789v-275.981h-49.23v401.978h336.47v-76.208s-235.026 0-237.24 0z"/><path d="m469.851 356.291h-278.471v29.712c0 6.939-1.423 13.551-3.988 19.564h275.773c4.261-7.54 6.686-16.293 6.686-25.8z"/><path d="m439.851 110.022v-71.887h-34.686v15.002 14.788h-30v-14.788-15.002h-43.033v15.002 14.788h-30v-14.788-15.002h-43.033v15.002 14.788h-30v-14.788-15.002h-43.034v15.002 14.788h-30v-14.788-15.002h-34.685v71.887z"/><path d="m121.38 140.028v244.74 1.235c0 11.03 8.972 20.004 20 20.004s20-8.974 20-20.004v-59.717h278.471v-186.258zm114.235 148.021h-30v-30.006h30zm90-110.02h30v30.006h-30zm0 80.015h30v30.006h-30zm-60-80.015h30v30.006h-30zm30 80.015v30.006h-30v-30.006zm-90-80.015h30v30.006h-30z"/><path d="m156.065 0h30v38.135h-30z"/><path d="m229.099 0h30v38.135h-30z"/><path d="m302.132 0h30v38.135h-30z"/><path d="m375.165 0h30v38.135h-30z"/></g></svg>