<svg id="Capa_1" enable-background="new 0 0 512 512" height="512" viewBox="0 0 512 512" width="512" xmlns="http://www.w3.org/2000/svg"><g><path d="m256 278.9c-60.52 0-114.93 33.68-142.63 85.26 87.708-36.647 197.488-36.674 285.26 0-27.7-51.58-82.11-85.26-142.63-85.26z"/><path d="m98.12 404.92c-1.588 6.858-2.775 13.795-3.56 20.81h322.88c-.785-7.015-1.971-13.952-3.56-20.81-91.285-51.752-224.476-51.752-315.76 0z"/><path d="m256 0c-141.38 0-256 114.62-256 256 0 65.15 24.34 124.61 64.42 169.8 8.38-97.872 92.568-176.9 191.58-176.9 98.977 0 183.203 79.053 191.58 176.9 40.08-45.19 64.42-104.65 64.42-169.8 0-141.38-114.62-256-256-256zm-113.86 235.81-20.81-21.62 56.62-54.51-66.09-42.54 26.95-18.33 87.28 56.17zm191.91-76.13 56.62 54.51-20.81 21.62-83.95-80.83 85.9-55.28 28.33 17.44z"/><path d="m256 512c60.61 0 116.3-21.07 160.15-56.27h-320.3c43.85 35.2 99.54 56.27 160.15 56.27z"/></g></svg>