<svg id="Capa_1" enable-background="new 0 0 512.001 512.001" height="512" viewBox="0 0 512.001 512.001" width="512" xmlns="http://www.w3.org/2000/svg"><g><path d="m284.771 96.667c-58.842 0-106.714 47.872-106.714 106.714s47.872 106.714 106.714 106.714c58.843 0 106.715-47.872 106.715-106.714s-47.872-106.714-106.715-106.714zm-13.645 31.667h30v55.666h-30zm13.645 150.178c-41.428 0-75.131-33.704-75.131-75.131 0-18.695 6.913-36.615 19.467-50.458l22.223 20.153c-7.538 8.312-11.689 19.075-11.689 30.304 0 24.885 20.245 45.131 45.131 45.131s45.131-20.246 45.131-45.131c0-11.23-4.151-21.993-11.688-30.304l22.223-20.153c12.553 13.842 19.466 31.762 19.466 50.458-.002 41.428-33.705 75.131-75.133 75.131z"/><path d="m488.39 202.648c0-111.92-90.727-202.648-202.648-202.648-90.162 0-166.563 58.878-192.868 140.28l-9.76 60.392-59.504 98.703v29.92h47.385l20.165 110.149h112.918l17.139 72.557h228.022l-28.235-158.448c41.366-37.101 67.386-90.968 67.386-150.905zm-203.619 137.448c-75.385 0-136.714-61.33-136.714-136.714s61.329-136.715 136.714-136.715 136.715 61.33 136.715 136.714-61.33 136.715-136.715 136.715z"/></g></svg>