<svg id="Capa_1" enable-background="new 0 0 512 512" height="512" viewBox="0 0 512 512" width="512" xmlns="http://www.w3.org/2000/svg"><g><path d="m189.095 172.433v45.134l39.086 22.566 39.087-22.566v-45.134l-39.087-22.566z"/><path d="m423.161 192.194c-1.509-106.233-88.395-192.194-194.98-192.194-107.523 0-195 87.477-195 195 0 53.112 21.784 104.002 60 140.696v176.304h240v-71.582h67.093l10.353-101.707h68.193zm-65.893 34.033h-30v-32.209c0-11.855-2.888-23.615-8.275-34.126l-21.725 12.542v62.454l-69.087 39.887-54.086-31.227-46.587 26.896-15-25.98 46.587-26.896v-45.134l-46.587-26.896 15-25.98 46.587 26.896 54.086-31.227 54.087 31.227 45.61-26.333 7.999 10.504c13.794 18.113 21.391 40.626 21.391 63.394z"/></g></svg>