<svg id="Capa_1" enable-background="new 0 0 512 512" height="512" viewBox="0 0 512 512" width="512" xmlns="http://www.w3.org/2000/svg"><g><path d="m145 372c57.897 0 105-47.103 105-105s-47.103-105-105-105-105 47.103-105 105 47.103 105 105 105z"/><path d="m243.135 359.607c-24.631 26.086-59.512 42.393-98.135 42.393s-73.504-16.307-98.135-42.393c-28.23 18.841-46.865 50.98-46.865 87.393v65h290v-65c0-36.413-18.635-68.552-46.865-87.393z"/><path d="m122 0v133.968c7.477-1.289 15.16-1.968 23-1.968 65.195 0 119.743 46.454 132.286 108h39.714v99.944l120.414-99.944h74.586v-240z"/></g></svg>