<svg id="Capa_1" enable-background="new 0 0 512 512" height="512" viewBox="0 0 512 512" width="512" xmlns="http://www.w3.org/2000/svg"><g><path d="m334.323 400.248c-31.333 35.616-78.323 77.019-78.323 77.019s-46.99-41.403-78.323-77.019c-41.283 0-74.75 33.466-74.75 74.75v37.002h306.146v-37.002c0-41.284-33.467-74.75-74.75-74.75z"/><path d="m297.222 223.519c5.812-5.329 10.573-11.566 14.131-18.408-3.041.369-6.112.556-9.196.556-41.998 0-76.166-34.168-76.166-76.167 0-5.808.643-11.516 1.903-17.05-24.696 9.745-42.217 33.849-42.217 61.967 0 36.714 29.869 66.583 66.583 66.583 16.698 0 32.665-6.208 44.962-17.481z"/><path d="m419.439 163.439c0-90.265-73.174-163.439-163.439-163.439s-163.439 73.174-163.439 163.439c0 130.303 163.439 273.894 163.439 273.894s163.439-143.591 163.439-273.894zm-108.116-70.439h30v30h-30zm-155.646 81.417c0-53.256 43.327-96.583 96.583-96.583l12.922 24.018c-6.013 8.024-9.191 17.585-9.191 27.648 0 25.456 20.71 46.167 46.166 46.167 8.336 0 16.506-2.249 23.627-6.504l22.629 14.262c-2.212 23.865-13.192 45.958-30.918 62.208-17.844 16.358-41.011 25.367-65.235 25.367-53.255 0-96.583-43.327-96.583-96.583z"/></g></svg>