<svg id="Capa_1" enable-background="new 0 0 512 512" height="512" viewBox="0 0 512 512" width="512" xmlns="http://www.w3.org/2000/svg"><g id="XMLID_290_"><path id="XMLID_293_" d="m298.491 228.728c-6.765-2.626-14.15-1.89-20.264 2.022l-22.727 14.547-22.728-14.547c-3.699-2.368-7.864-3.572-12.076-3.572-2.748 0-5.516.513-8.187 1.55-6.765 2.627-11.717 8.156-13.588 15.168-1.988 7.455-.063 15.302 5.15 20.989l51.429 56.107 51.429-56.108c5.213-5.687 7.139-13.534 5.15-20.989-1.87-7.012-6.823-12.54-13.588-15.167z"/><path id="XMLID_295_" d="m445.501 170.648h65.999v29.122h-65.999z"/><path id="XMLID_297_" d="m95.499 461.671h320.002v50.329h-320.002z"/><path id="XMLID_303_" d="m.5 170.648h64.999v29.122h-64.999z"/><path id="XMLID_307_" d="m65.499 140.648v-25.645h30v316.667h320.002v-316.667h30v25.645h65.999v-17.808c0-67.735-55.102-122.84-122.83-122.84h-44-.5v15c0 48.893-39.777 88.67-88.67 88.67s-88.67-39.777-88.67-88.67v-15h-43.5c-67.729 0-122.83 55.105-122.83 122.84v17.809h64.999zm263.544 144.508-73.543 80.235-73.543-80.235c-12.169-13.275-16.664-31.59-12.022-48.992 4.365-16.367 15.924-29.27 31.714-35.402 15.792-6.131 33.029-4.41 47.296 4.72l6.555 4.196 6.556-4.196c14.266-9.131 31.505-10.851 47.295-4.72 15.79 6.132 27.35 19.035 31.715 35.402 4.641 17.402.146 35.717-12.023 48.992z"/><path id="XMLID_308_" d="m255.5 73.67c32.351 0 58.67-26.319 58.67-58.67v-15h-116.84-.5v15c0 32.351 26.319 58.67 58.67 58.67z"/></g></svg>