<svg id="Capa_1" enable-background="new 0 0 510 510" height="512" viewBox="0 0 510 510" width="512" xmlns="http://www.w3.org/2000/svg"><g><path d="m195 457.5c0 12.406-10.094 22.5-22.5 22.5h-45c-12.406 0-22.5-10.094-22.5-22.5v-67.5h75v-300c0-49.626-40.374-90-90-90s-90 40.374-90 90v300h75v67.5c0 28.948 23.551 52.5 52.5 52.5h45c28.948 0 52.5-23.552 52.5-52.5 0-12.406 10.094-22.5 22.5-22.5h37.5v-30h-37.5c-28.949 0-52.5 23.552-52.5 52.5zm-120-397.5h30v45h-30zm0 75h30v45h-30zm0 75h30v45h-30zm0 120v-45h30v45z"/><path d="m435 120v-67.5c0-28.949-23.552-52.5-52.5-52.5h-45c-28.948 0-52.5 23.551-52.5 52.5 0 12.407-10.094 22.5-22.5 22.5h-37.5v30h37.5c28.948 0 52.5-23.551 52.5-52.5 0-12.407 10.094-22.5 22.5-22.5h45c12.406 0 22.5 10.093 22.5 22.5v67.5h-75v300c0 49.626 40.374 90 90 90s90-40.374 90-90v-300zm0 330h-30v-45h30zm0-75h-30v-45h30zm0-75h-30v-45h30zm0-75h-30v-45h30z"/></g></svg>