<svg id="Capa_1" enable-background="new 0 0 510 510" height="512" viewBox="0 0 510 510" width="512" xmlns="http://www.w3.org/2000/svg"><g id="XMLID_1_"><path id="XMLID_14_" d="m404.967 300.033-56.202.031.355.691-79.12 138.462v70.783h90v-60h30v60h75v-149.967c0-33.15-26.883-60.018-60.033-60z"/><path id="XMLID_13_" d="m161.235 300.064-56.201-.031c-33.15-.019-60.034 26.85-60.034 60v149.967h75v-60h30v60h90v-70.783l-79.12-138.461z"/><path id="XMLID_12_" d="m307.695 285.789c-15.498 9.03-33.502 14.211-52.695 14.211-19.192 0-37.196-5.181-52.694-14.211l-7.306 14.211 60 105 60-105z"/><path id="XMLID_11_" d="m180 105h30v-60c0-16.568-13.431-45-30-45h-30v75c0 16.568 13.432 30 30 30z"/><path id="XMLID_10_" d="m180 135v60c0 41.422 33.579 75 75 75 27.103 0 50.844-14.379 64.022-35.921-20.112-9.7-34.022-30.296-34.022-54.079 0-11.702 4.699-25.41 15.511-45z"/><path id="XMLID_9_" d="m320.316 102.949 24.684-35.734 9.879 14.301c3.233-7.424 5.121-15.304 5.121-21.516v-60h-90c-16.568 0-30 28.432-30 45v60h78.923c.816-1.212 1.315-1.938 1.393-2.051z"/><path id="XMLID_8_" d="m345 210c16.569 0 30-13.432 30-30s-30-60-30-60-30 43.432-30 60 13.432 30 30 30z"/><path id="XMLID_7_" d="m52.5 62.959h30v54.083h-30z" transform="matrix(.555 -.832 .832 .555 -44.827 96.241)"/><path id="XMLID_6_" d="m45 150h45v30h-45z"/><path id="XMLID_5_" d="m40.459 225h54.083v30h-54.083z" transform="matrix(.832 -.555 .555 .832 -121.789 77.747)"/><path id="XMLID_4_" d="m415.458 75h54.083v30h-54.083z" transform="matrix(.832 -.555 .555 .832 24.391 260.563)"/><path id="XMLID_3_" d="m420 150h45v30h-45z"/><path id="XMLID_2_" d="m427.5 212.959h30v54.083h-30z" transform="matrix(.555 -.832 .832 .555 -2.644 475.061)"/></g></svg>