<svg id="Capa_1" enable-background="new 0 0 512 512" height="512" viewBox="0 0 512 512" width="512" xmlns="http://www.w3.org/2000/svg"><g><path d="m361.456 330 30.965-330h-272.842l29.993 330zm-105.456-234.668c8.716 21.607 45 106.705 45 129.668 0 24.814-20.186 45-45 45s-45-20.186-45-45c0-22.963 36.285-108.061 45-129.668z"/><path d="m256 240c8.262 0 15-6.724 15-14.985-.088-5.757-6.606-25.884-15-48.604-8.394 22.72-14.927 42.861-15 48.604 0 8.261 6.724 14.985 15 14.985z"/><path d="m181 420h150v92h-150z"/><path d="m157.625 360 14.445 30h168.202l15-30z"/></g></svg>