<svg id="Capa_1" enable-background="new 0 0 512.039 512.039" height="512" viewBox="0 0 512.039 512.039" width="512" xmlns="http://www.w3.org/2000/svg"><g><path d="m256.019 90c-75.588 0-137.083 61.495-137.083 137.083s61.495 137.083 137.083 137.083 137.083-61.495 137.083-137.083-61.495-137.083-137.083-137.083zm63.033 214.773-21.213 21.213-41.82-41.82-41.82 41.82-21.213-21.213 41.82-41.82-26.868-26.868-.002-.002c-12.844-12.843-19.917-29.919-19.917-48.083 0-37.495 30.505-68 68-68s68 30.505 68 68c0 18.163-7.073 35.239-19.917 48.083l-26.87 26.87z"/><path d="m256.019 150c-20.953 0-38 17.047-38 38 0 10.15 3.953 19.693 11.13 26.87l26.87 26.87 26.87-26.87c7.177-7.178 11.13-16.72 11.13-26.87 0-20.953-17.047-38-38-38z"/><path d="m416.592 66.511c-42.891-42.89-99.916-66.511-160.573-66.511s-117.681 23.621-160.572 66.511c-42.89 42.89-66.511 99.916-66.511 160.572 0 49.944 15.906 97.328 45.999 137.03 28.323 37.368 68.235 65.509 112.717 79.559l68.367 68.367 68.367-68.367c44.481-14.05 84.394-42.191 112.717-79.559 30.093-39.702 45.999-87.086 45.999-137.03 0-60.656-23.621-117.682-66.51-160.572zm-160.573 327.655c-92.13 0-167.083-74.953-167.083-167.083s74.953-167.083 167.083-167.083 167.083 74.953 167.083 167.083-74.953 167.083-167.083 167.083z"/></g></svg>