<svg id="Capa_1" enable-background="new 0 0 512 512" height="512" viewBox="0 0 512 512" width="512" xmlns="http://www.w3.org/2000/svg"><g><path d="m166.08 512h179.84l10.11-74.58h-200.06z"/><path d="m393.81 158.6h-275.62l12.69 93.64h250.24z"/><path d="m348.66 0h-185.39l-15.37 43.68h216.13z"/><path d="m182.53 363.95v-38.23c0-16.26 5.31-31.3 14.28-43.48-24.472 0-74.406 0-98.23 0l17.46 125.18h80.77c-8.97-12.18-14.28-27.22-14.28-43.47z"/><path d="m315.19 282.24c8.97 12.18 14.28 27.22 14.28 43.48v38.23c0 16.25-5.31 31.29-14.28 43.47h80.77l17.46-125.18c-4.002 0-87.307 0-98.23 0z"/><path d="m212.53 325.72v38.23c0 7.56 1.94 14.67 5.34 20.86 11.704-43.339 43.632-56.265 50.06-100.91-27.091-8.142-55.847 13.435-55.4 41.82z"/><path d="m299.47 363.95v-38.23c0-7.55-1.93-14.66-5.34-20.86-11.702 43.335-43.631 56.26-50.06 100.9 27.089 8.14 55.848-13.425 55.4-41.81z"/><path d="m86.17 73.68h339.66v54.92h-339.66z"/></g></svg>