<svg id="Capa_1" enable-background="new 0 0 510 510" height="512" viewBox="0 0 510 510" width="512" xmlns="http://www.w3.org/2000/svg"><g><path d="m330 412.5v30h-150v-30h-180v9c0 44.735 36.265 81 81 81h348c44.735 0 81-36.265 81-81v-9z"/><path d="m390 202.5h-77.573l-57.427 57.427-57.427-57.427h-77.573v90h270z"/><path d="m255 217.5 45-45h90v-165h-270v165h90zm45-150h30v30h-30zm-60 0h30v30h-30zm-60 0h30v30h-30z"/><path d="m210 412.5h90v-30h180v-285h-60v225h-330c0-8.081 0-217.67 0-225h-60v285h180z"/></g></svg>