<svg id="Capa_1" enable-background="new 0 0 511.769 511.769" height="512" viewBox="0 0 511.769 511.769" width="512" xmlns="http://www.w3.org/2000/svg"><g><path d="m358.023 290.934 3.79-8.34c6.79-14.96 10.24-30.96 10.24-47.54 0-63.51-51.67-115.17-115.17-115.17s-115.17 51.66-115.17 115.17c0 16.58 3.45 32.58 10.24 47.54l3.79 8.34-5.69 7.18c-3.51 4.43-5.37 9.75-5.37 15.4 0 13.68 11.14 24.82 24.83 24.82h38.18v47.55h98.38v-47.55h38.18c13.69 0 24.83-11.14 24.83-24.82 0-5.65-1.86-10.97-5.37-15.4zm-132.14-31.55h-51v-30h51zm45 78.5h-30v-51h30zm66-78.5h-51v-30h51zm163.5-4c0-11.35-2.13-22.65-6.21-33.21 32.87-41.45 17.8-106.15-29.52-128.8 10.16-75.12-79.83-122.63-135.98-72.07-43.07-28.39-102.51-28.39-145.58 0-56.18-50.58-146.14-3.03-135.98 72.07-47.33 22.65-62.38 87.35-29.52 128.8-8.34 21.31-8.24 45.84.24 67.08-33.15 41.42-18.2 106.42 29.28 129.14-10.16 75.12 79.83 122.63 135.98 72.07 43.07 28.39 102.51 28.39 145.58 0 56.18 50.58 146.14 3.03 135.98-72.07 47.49-22.72 62.43-87.73 29.28-129.14 4.24-10.73 6.45-22.27 6.45-33.87zm-101.3 58.13c0 30.23-24.6 54.82-54.83 54.82h-8.18v47.55h-158.38v-47.55h-8.18c-30.23 0-54.83-24.59-54.83-54.82 0-9.18 2.35-18.24 6.71-26.25-6.43-16.62-9.68-34.15-9.68-52.21 0-80.05 65.12-145.17 145.17-145.17s145.17 65.12 145.17 145.17c0 18.06-3.25 35.59-9.68 52.21 4.36 8.01 6.71 17.07 6.71 26.25z"/></g></svg>