<svg id="Capa_1" enable-background="new 0 0 512 512" height="512" viewBox="0 0 512 512" width="512" xmlns="http://www.w3.org/2000/svg"><g><path d="m437 61h-16v-31h-135c-8.438 0-12.041-3.252-19.395-10.605-8.173-8.189-19.394-19.395-40.605-19.395-22.529 0-39.316 17.915-41.133 19.966l-8.291 9.287 7.529 9.888c14.314 19.086 27.721 58.128 26.638 104.517 6.046-4.45 28.474-22.658 60.257-22.658 24.932 0 38.115 4.395 49.746 8.276 10.84 3.604 20.186 6.724 40.254 6.724 26.684 0 47.906-20.985 60-29.868v-15.132h16c24.814 0 45 20.186 45 45v91c0 18.671-12.902 34.497-29.599 41.195-14.85-33.204-29.888-68.927-31.155-124.845-6.046 4.449-28.463 22.65-60.246 22.65-24.932 0-38.115-4.395-49.746-8.276-53.243-17.7-72.939 4.847-76.289 5.303l-27.85 20.731c-5.707 34.297-16.943 60.828-28.019 85.576-9.313 20.79-17.891 41.259-23.099 65.257 79.402-14.411 145.003 39.207 145.003 102.409 0 28.683-13.312 55.488-35.967 75h146.71c37.536-34.052 69.257-83.894 69.257-135 0-32.516-7.231-57.374-16.644-80.874 27.469-11.342 47.644-38.265 47.644-69.126v-91c0-41.353-33.633-75-75-75z"/><path d="m76 512c38.3 0 75-36.526 75-90 0-52.698-35.917-90-75-90-41.367 0-76 40.371-76 90s34.633 90 76 90z"/><path d="m149.566 506.835c9.956 3.09 20.418 5.165 31.434 5.165 53.359 0 90-36.481 90-75 0-41.353-40.371-75-90-75-4.697 0-9.164.504-13.497 1.082 9.132 18.522 13.497 39.125 13.497 58.918 0 29.616-8.439 58.935-31.434 84.835z"/><path d="m63.999 266c-11.1-14.4-28.498-24-47.999-24v60c0 5.7.901 11.4 2.401 16.8 20.178-12.842 44.361-19.134 72.599-15.601v-16.199c0-24.901 20.099-45 45-45v-30c-34.2 0-62.999 22.8-72.001 54z"/></g></svg>