<?xml version="1.0" encoding="iso-8859-1"?>
<!-- Generator: Adobe Illustrator 19.0.0, SVG Export Plug-In . SVG Version: 6.00 Build 0)  -->
<svg xmlns="http://www.w3.org/2000/svg" xmlns:xlink="http://www.w3.org/1999/xlink" version="1.1" id="Layer_1" x="0px" y="0px" viewBox="0 0 512 512" style="enable-background:new 0 0 512 512;" xml:space="preserve">
<g>
	<g>
		<path d="M293.013,159.645c3.979,3.885,7.76,7.979,11.332,12.24c0.95,1.128,1.88,2.266,2.789,3.426    c3.969,5.003,7.655,10.245,11.008,15.666c2.423,3.906,4.668,7.906,6.747,11.99c11.812,23.238,17.796,48.313,17.796,74.538    c0,12.794-1.473,25.462-4.376,37.775c-1.379,5.88-3.081,11.687-5.097,17.379c-2.172,6.12-4.71,12.125-7.614,17.974l89.232-21.776    v-16.125v-16.125V190.976v-15.666v-15.666H293.013z"/>
	</g>
</g>
<g>
	<g>
		<polygon points="446.162,159.645 446.162,175.311 446.162,190.976 446.162,288.961 446.162,305.086 446.162,321.211 512,305.138     512,159.645   "/>
	</g>
</g>
<g>
	<g>
		<path d="M197.775,251.248c-2.872-2.172-6.026-3.843-9.368-4.961c-3.342-1.128-6.872-1.702-10.486-1.702    c-18.151,0-32.919,14.768-32.919,32.919s14.768,32.919,32.919,32.919c11.624,0,22.162-5.943,28.188-15.906    c3.102-5.107,4.731-10.997,4.731-17.013C210.841,267.112,206.078,257.535,197.775,251.248z"/>
	</g>
</g>
<g>
	<g>
		<path d="M263.718,175.311c-1.723-1.441-3.478-2.841-5.285-4.209c-5.702-4.324-11.676-8.146-17.88-11.457    c-19.154-10.235-40.46-15.572-62.632-15.572c-22.914,0-44.491,5.807-63.352,16.021c-4.731,2.559-9.285,5.399-13.65,8.501    c-12.94,9.17-24.178,20.585-33.128,33.671c-3.05,4.428-5.817,9.044-8.313,13.838c-9.577,18.392-14.987,39.269-14.987,61.399    c0,73.577,59.854,133.431,133.431,133.431c41.003,0,78.684-18.256,103.854-49.608c3.749-4.668,7.217-9.619,10.381-14.841    c0.888-1.462,1.744-2.935,2.559-4.428c10.903-19.676,16.637-41.88,16.637-64.554C311.352,237.629,294.078,200.752,263.718,175.311    z M232.919,310.736c-11.76,19.426-32.313,31.018-54.997,31.018c-35.426,0-64.251-28.815-64.251-64.251    c0-35.426,28.825-64.251,64.251-64.251c14.131,0,27.54,4.501,38.778,13.023c16.188,12.272,25.473,30.945,25.473,51.227    C242.172,289.243,238.977,300.741,232.919,310.736z"/>
	</g>
</g>
<g>
	<g>
		<path d="M55.551,101.065L0,156.627l36.47,36.47c2.736-4.585,5.692-9.013,8.856-13.295c3.123-4.23,6.444-8.303,9.953-12.209    c3.541-3.948,7.269-7.728,11.175-11.311c3.854-3.551,7.885-6.924,12.063-10.089c4.23-3.217,8.616-6.225,13.138-9.023    L55.551,101.065z"/>
	</g>
</g>
<g>
</g>
<g>
</g>
<g>
</g>
<g>
</g>
<g>
</g>
<g>
</g>
<g>
</g>
<g>
</g>
<g>
</g>
<g>
</g>
<g>
</g>
<g>
</g>
<g>
</g>
<g>
</g>
<g>
</g>
</svg>
