<svg id="Capa_1" enable-background="new 0 0 510 510" height="512" viewBox="0 0 510 510" width="512" xmlns="http://www.w3.org/2000/svg"><g><path d="m345 300v30h90v90h68.553l-35-60 35-60z"/><path d="m165 300h-158.553l35 60-35 60h68.553v-90h90z"/><path d="m105 360h300v105h-300z"/><circle cx="105" cy="97.5" r="52.5"/><circle cx="255" cy="97.5" r="52.5"/><path d="m150 270h210v-30c0-35.566-17.779-67.055-44.912-86.057-32.648 34.735-87.516 34.749-120.176 0-27.133 19.003-44.912 50.491-44.912 86.057z"/><path d="m120 240c0-24.277 6.447-47.075 17.713-66.779-31.351 13.597-68.523 6.552-92.801-19.277-27.133 19.002-44.912 50.49-44.912 86.056v30h120z"/><path d="m465.137 153.893c-24.109 25.694-61.265 33.026-92.85 19.328 11.267 19.704 17.713 42.502 17.713 66.779v30h120v-30c0-35.54-17.498-66.905-44.863-86.107z"/><circle cx="405" cy="97.5" r="52.5"/></g></svg>