<?xml version="1.0" encoding="iso-8859-1"?>
<!-- Generator: Adobe Illustrator 19.0.0, SVG Export Plug-In . SVG Version: 6.00 Build 0)  -->
<svg xmlns="http://www.w3.org/2000/svg" xmlns:xlink="http://www.w3.org/1999/xlink" version="1.1" id="Layer_1" x="0px" y="0px" viewBox="0 0 512 512" style="enable-background:new 0 0 512 512;" xml:space="preserve">
<g>
	<g>
		<path d="M160,190.052c-43.729,0-79.304,35.576-79.304,79.304v115.585c12.101,12.16,28.834,19.704,47.304,19.704    c30.189,0,55.765-20.135,64-47.682c6.664,22.286,24.68,39.719,47.304,45.565V269.357C239.304,225.628,203.729,190.052,160,190.052    z"/>
	</g>
</g>
<g>
	<g>
		<path d="M399.304,99.896H384v304.75c30.189,0,55.763-20.135,64-47.682V144.417L399.304,99.896z"/>
	</g>
</g>
<g>
	<g>
		<g>
			<path d="M47.304,269.357c0-62.14,50.554-112.696,112.696-112.696s112.696,50.556,112.696,112.696v133.171     c22.625-5.846,40.641-23.277,47.304-45.565c4.92,16.454,16.028,30.26,30.609,38.713V66.504l-33.391-16.696l-16.696-33.391H0     v388.228c18.469,0,35.202-7.544,47.304-19.704V269.357z"/>
			<path d="M451.612,417.756c-1.228-0.928-2.431-1.884-3.612-2.869c-1.182,0.985-2.385,1.941-3.612,2.869     c-17.524,13.267-38.406,20.281-60.388,20.281s-42.864-7.013-60.388-20.281c-1.228-0.928-2.431-1.884-3.612-2.869     c-1.182,0.985-2.385,1.941-3.612,2.869c-17.524,13.267-38.406,20.281-60.388,20.281s-42.864-7.013-60.388-20.281     c-1.228-0.928-2.431-1.884-3.612-2.869c-1.182,0.985-2.385,1.941-3.612,2.869c-17.524,13.267-38.406,20.281-60.388,20.281     s-42.864-7.013-60.388-20.281c-1.228-0.928-2.431-1.884-3.612-2.869c-1.182,0.985-2.385,1.941-3.612,2.869     C42.864,431.024,21.983,438.037,0,438.037v40.14v17.406h512v-57.545C490.017,438.037,469.136,431.024,451.612,417.756z"/>
		</g>
	</g>
</g>
<g>
</g>
<g>
</g>
<g>
</g>
<g>
</g>
<g>
</g>
<g>
</g>
<g>
</g>
<g>
</g>
<g>
</g>
<g>
</g>
<g>
</g>
<g>
</g>
<g>
</g>
<g>
</g>
<g>
</g>
</svg>
