<svg id="Capa_1" enable-background="new 0 0 512 512" height="512" viewBox="0 0 512 512" width="512" xmlns="http://www.w3.org/2000/svg"><g><path d="m437.02 74.98c-48.353-48.351-112.64-74.98-181.02-74.98s-132.667 26.629-181.02 74.98c-48.351 48.353-74.98 112.64-74.98 181.02s26.629 132.667 74.98 181.02c48.353 48.351 112.64 74.98 181.02 74.98s132.667-26.629 181.02-74.98c48.351-48.353 74.98-112.64 74.98-181.02s-26.629-132.667-74.98-181.02zm-141.553 60.22 32.778 19.552 19.552-32.778 25.764 15.368-19.552 32.778 32.778 19.552-15.369 25.765-32.778-19.552-19.552 32.778-25.764-15.368 19.552-32.778-32.779-19.552zm-204.256 73.505 15.368-25.765 32.778 19.552 19.552-32.778 25.765 15.368-19.552 32.778 32.778 19.552-15.368 25.765-32.779-19.552-19.552 32.778-25.765-15.368 19.552-32.778zm310.294 137.822c-10.882 23.458-29.479 42.846-52.366 54.594l-.552.283-27.537 11.369c-12.52 23.098-36.982 38.819-65.049 38.819-22.101 0-41.954-9.76-55.514-25.181-19.075-4.985-36.602-14.72-50.951-28.38-16.09-15.317-27.4-34.865-32.708-56.529l-3.57-14.569 292.108-71.578 3.57 14.568c6.263 25.566 3.625 52.771-7.431 76.604z"/><path d="m182.062 340.961-31.234 7.654c6.775 15.283 17.888 28.255 31.716 37.37-.308-2.736-.482-5.512-.482-8.329z"/><path d="m271 319.168v43.113h-30v-35.762l-28.938 7.091v44.045c0 24.228 19.71 43.938 43.938 43.938s43.938-19.71 43.938-43.938v-65.578z"/><path d="m329.938 304.726v71.922l6.029-2.489c16.729-8.737 30.324-23.012 38.323-40.255 6.184-13.33 8.822-27.608 7.834-41.965z"/></g></svg>