<svg id="Capa_1" enable-background="new 0 0 512 512" height="512" viewBox="0 0 512 512" width="512" xmlns="http://www.w3.org/2000/svg"><g><path d="m169.61 162.547h-57.915l-60.52 77.384h57.915z"/><path d="m303.694 162.547-60.52 77.384h57.915l60.52-77.384z"/><path d="m339.173 239.931h57.915l60.521-77.384h-57.915z"/><path d="m205.089 239.931 60.521-77.384h-57.915l-60.521 77.384z"/><path d="m73.61 162.547h-73.61v77.384h13.09z"/><path d="m435.172 239.931h76.828v-77.384h-16.307z"/><path d="m32.044 473.01h-32.044v30h95.994v-30h-33.95v-203.079h-30z"/><path d="m449.033 473.01h-33.027v30h95.994v-30h-32.967v-203.079h-30z"/><path d="m62.997 100.944c-4.803 1.21-9.826 1.861-15 1.861s-10.197-.65-15-1.861v31.604h30z"/><path d="m479.003 100.944c-4.803 1.21-9.826 1.861-15 1.861s-10.197-.65-15-1.861v31.604h30z"/><circle cx="47.997" cy="41.397" r="32.407"/><circle cx="464.003" cy="41.397" r="32.407"/></g></svg>