<svg id="Capa_1" enable-background="new 0 0 512 512" height="512" viewBox="0 0 512 512" width="512" xmlns="http://www.w3.org/2000/svg"><g><path d="m240.758 154.395-19.395 19.395-19.395-19.395c-5.838-5.838-15.367-5.844-21.211 0-5.845 5.845-5.845 15.366 0 21.211l40.605 40.605 40.605-40.605c5.845-5.845 5.845-15.366 0-21.211-5.857-5.86-15.349-5.86-21.209 0z"/><path d="m371.364 390c-24.814 0-45-20.186-45-45h30c0 8.276 6.724 15 15 15h45v-30h69.272l-69.302-138.604c-1.933-105.864-88.652-191.396-194.97-191.396-107.52 0-195 87.48-195 195 0 52.646 21.782 103.403 60 140.317v176.683h210v-62h120v-60zm-88.184-193.184-61.816 61.816-61.816-61.816c-17.549-17.549-17.549-46.084 0-63.633 16.963-16.934 44.165-17.52 61.816-1.729 17.651-15.791 44.883-15.205 61.816 1.729 17.549 17.549 17.549 46.085 0 63.633z"/></g></svg>