<svg id="Capa_1" enable-background="new 0 0 512 512" height="512" viewBox="0 0 512 512" width="512" xmlns="http://www.w3.org/2000/svg"><g><path d="m106.034 421.75h-61.568c-7.977 0-14.466-6.49-14.466-14.466s6.489-14.466 14.466-14.466h27.443c24.519 0 44.466-19.947 44.466-44.466v-74.64l26.472.005c10.481-21.513 8.552-48.32-4.388-67.926h-52.087l.003 142.562c0 7.977-6.489 14.466-14.466 14.466h-27.443c-24.519-.002-44.466 19.946-44.466 44.465s19.947 44.466 44.466 44.466h61.568c7.977 0 14.466 6.49 14.466 14.466v45.784h30v-45.784c0-24.519-19.947-44.466-44.466-44.466z"/><path d="m251.237 97.579h-72.056v41.983l-11.724 19.53 30.656 18.914 39.233 9.744 33.624-46.674v-23.765c0-10.88-8.852-19.732-19.733-19.732z"/><path d="m251.237 67.579c27.423 0 49.732 22.31 49.732 49.732v9.746c21.977-5.103 45.241 3.236 57.277 22.855 9.56 15.583 10.173 34.061 2.263 49.681l28.926 39.944c27.093-31.125 46.018-63.086 46.038-105.819 0-73.85-59.868-133.718-133.718-133.718h-143.932v31.017c0 12.954 3.463 25.545 9.849 36.562z"/><path d="m259.224 374.347 131.09-46.267s-12.687-50.982-12.854-53.933l-38.809-53.59-49.49 33.037c-2.828 12.56-33.217 64.776-34.79 67.595z"/><path d="m284.528 220.618 47.46-31.682c7.49-10.402 2.48-20.411.687-23.335-3.915-6.382-12.009-12.301-23.007-9.761l-14.825 3.423-28.574 39.664c7.852 5.562 14.128 13.046 18.259 21.691z"/><path d="m416.669 350.593-163.722 57.784-32.861 103.622h291.914c.032-65.74-38.529-128.138-95.331-161.406z"/><path d="m165.285 296.156h69.007c9.911-16.514 20.212-32.786 25.752-51.172 0-12.179-8.256-22.736-20.076-25.671l-53.626-13.318-20.212-12.471c16.382 27.999 17.94 64.075 3.687 93.332z"/></g></svg>