<svg id="Capa_1" enable-background="new 0 0 512 512" height="512" viewBox="0 0 512 512" width="512" xmlns="http://www.w3.org/2000/svg"><g><path d="m181 181c-49.629 0-90 40.371-90 90 0 28.253 13.35 53.196 33.777 69.708 8.365-23.082 30.297-39.708 56.223-39.708-24.814 0-45-20.186-45-45s20.186-45 45-45 45 20.186 45 45-20.186 45-45 45c25.926 0 47.858 16.626 56.223 39.708 20.427-16.512 33.777-41.455 33.777-69.708 0-49.629-40.371-90-90-90z"/><circle cx="181" cy="256" r="15"/><path d="m181 331c-14.707 0-26.396 10.827-28.947 24.798 9.135 3.131 18.763 5.202 28.947 5.202 10.182 0 19.812-2.069 28.947-5.2-2.551-13.971-14.24-24.8-28.947-24.8z"/><path d="m271 106c0 8.276 6.738 15 15 15h226v-121h-512v91h271zm150-60h30v30h-30zm-60 0h30v30h-30zm-60 0h30v30h-30z"/><path d="m512 151h-226c-19.57 0-36.24-12.539-42.422-30h-243.578v391h512zm-211 300h-240v-30h240zm-120-60c-66.182 0-120-53.833-120-120s53.818-120 120-120 120 53.833 120 120-53.818 120-120 120zm270-30h-120v-30h120zm0-60h-120v-30h120zm0-60h-120v-30h120z"/></g></svg>