<svg id="Capa_1" enable-background="new 0 0 512 512" height="512" viewBox="0 0 512 512" width="512" xmlns="http://www.w3.org/2000/svg"><g><path d="m166 166c-24.814 0-45 20.186-45 45s20.186 45 45 45 45-20.186 45-45-20.186-45-45-45zm0 66.211-21.211-21.211 21.211-21.211 21.211 21.211z"/><path d="m0 16v390h512v-390zm271 210h-31.518c-1.948 9.558-5.762 18.428-10.977 26.294l22.354 22.354-21.211 21.211-22.354-22.354c-7.866 5.215-16.736 9.029-26.294 10.977v31.518h-30v-31.518c-9.558-1.948-18.428-5.762-26.294-10.977l-22.354 22.354-21.211-21.211 22.354-22.354c-5.215-7.866-9.029-16.736-10.977-26.294h-31.518v-30h31.518c1.948-9.558 5.762-18.428 10.977-26.294l-22.354-22.354 21.211-21.211 22.354 22.354c7.866-5.215 16.736-9.029 26.294-10.977v-31.518h30v31.518c9.558 1.948 18.428 5.762 26.294 10.977l22.354-22.354 21.211 21.211-22.354 22.354c5.215 7.866 9.029 16.736 10.977 26.294h31.518zm60 90h-30v-30h30zm0-60h-30v-30h30zm0-60h-30v-30h30zm120 120h-90v-30h90zm0-60h-90v-30h90zm0-60h-90v-30h90zm0-60h-150v-30h150z"/><path d="m331 436h-150v30h-60v30c7.87 0 273.032 0 270 0v-30h-60z"/></g></svg>