<svg id="Capa_1" enable-background="new 0 0 512 512" height="512" viewBox="0 0 512 512" width="512" xmlns="http://www.w3.org/2000/svg"><g><path d="m228.485 3.019c-10.761-6.215-24.523-2.527-30.736 8.234l-22.5 38.972c-6.213 10.761-2.525 24.521 8.236 30.734 10.761 6.215 24.521 2.527 30.736-8.234l22.5-38.972c6.213-10.761 2.525-24.521-8.236-30.734z"/><path d="m233.436 144.441c10.763 6.215 24.523 2.527 30.736-8.234l52.5-90.934c6.213-10.761 2.527-24.521-8.236-30.734-10.761-6.215-24.521-2.527-30.734 8.234l-52.5 90.934c-6.215 10.76-2.527 24.521 8.234 30.734z"/><path d="m505.769 197.748-142.896-82.498 3.75-6.497c6.215-10.761 2.527-24.521-8.234-30.734-10.763-6.215-24.523-2.527-30.736 8.234l-22.5 38.972c-6.213 10.761-2.527 24.521 8.236 30.734 10.761 6.215 24.521 2.527 30.734-8.234l3.75-6.497 142.896 82.5z"/><path d="m363.367 391h-353.272c16.001 74.317 55.964 117.977 57.796 121h238.682c1.819-3.003 40.775-46.597 56.794-121z"/><path d="m37.231 226h30v15c0 16.567 13.431 30 30 30s30-13.433 30-30v30c0 16.567 13.431 30 30 30s30-13.433 30-30v-75h-150z"/><path d="m6.231 361h361c0-50.361-21.724-67.192-49.219-88.491-3.428-2.651-7.017-5.435-10.781-8.438v-38.071h30v-30h-120v75c0 33.091-26.909 60-60 60-22.368 0-41.924-12.305-52.236-30.498-2.534.322-5.127.498-7.764.498-19.266 0-36.246-9.28-47.23-23.432-24.333 19.147-43.77 37.126-43.77 83.432z"/></g></svg>