<svg id="Capa_1" enable-background="new 0 0 512.062 512.062" height="512" viewBox="0 0 512.062 512.062" width="512" xmlns="http://www.w3.org/2000/svg"><g><path d="m344.413 428.238c0 46.221 37.604 83.824 83.824 83.824s83.824-37.604 83.824-83.824-37.604-83.824-83.824-83.824-83.824 37.604-83.824 83.824zm98.824-61.77v46.771h46.771v30h-46.771v46.771h-30v-46.771h-46.771v-30h46.771v-46.771z"/><path d="m314.413 428.238c0-58.6 44.516-106.994 101.505-113.155v-.451c0-80.38-54.706-150.446-132.686-169.941v85.357l-44.966-31.532v-198.516h-61.008v198.515l-44.816 31.439v-84.958c-77.836 19.459-132.441 89.396-132.441 169.628v161.476h66.221c36.573 0 66.221-29.648 66.221-66.221v-110.28l75.331-50.221 75.458 50.306v110.379c0 27.038 16.186 50.271 39.388 60.601-5.288-13.118-8.207-27.437-8.207-42.426z"/></g></svg>