<svg id="Capa_1" enable-background="new 0 0 510 510" height="512" viewBox="0 0 510 510" width="512" xmlns="http://www.w3.org/2000/svg"><g><circle cx="165" cy="120" r="15"/><circle cx="165" cy="255" r="15"/><circle cx="165" cy="390" r="15"/><circle cx="345" cy="390" r="15"/><circle cx="345" cy="120" r="15"/><path d="m60 0v510h390v-510zm105 435c-24.813 0-45-20.186-45-45 0-24.813 20.187-45 45-45s45 20.187 45 45c0 24.814-20.187 45-45 45zm0-135c-24.813 0-45-20.186-45-45 0-24.813 20.187-45 45-45s45 20.187 45 45c0 24.814-20.187 45-45 45zm0-135c-24.813 0-45-20.187-45-45s20.187-45 45-45 45 20.187 45 45-20.187 45-45 45zm105 270h-30v-360h30zm75 0c-24.814 0-45-20.186-45-45 0-24.813 20.186-45 45-45s45 20.187 45 45c0 24.814-20.186 45-45 45zm0-135c-24.814 0-45-20.186-45-45 0-24.813 20.186-45 45-45s45 20.187 45 45c0 24.814-20.186 45-45 45zm0-135c-24.814 0-45-20.187-45-45s20.186-45 45-45 45 20.187 45 45-20.186 45-45 45z"/><circle cx="345" cy="255" r="15"/></g></svg>