<svg id="Capa_1" enable-background="new 0 0 512 512" height="512" viewBox="0 0 512 512" width="512" xmlns="http://www.w3.org/2000/svg"><g><path d="m461.869 170.805c-30.963-22.04-71.124-20.717-100.228 2.064 4.481 5.7 8.445 11.746 11.982 18.171l29.081-12.047 11.484 27.715-29.086 12.048c2.04 7.039 3.512 14.106 4.374 21.295 36.448-4.623 66.38-32.81 72.393-69.246z"/><path d="m339.091 150.357c22.511-29.042 23.758-70.157 2.236-100.182-37.473 6.299-64.958 35.641-69.413 72.367 7.191.872 14.264 2.351 21.312 4.398l12.067-29.128 27.715 11.484-12.065 29.125c6.419 3.53 12.456 7.478 18.148 11.936z"/><path d="m373.579 320.942c-3.53 6.42-7.478 12.457-11.937 18.149 29.042 22.511 70.17 23.758 100.182 2.236-6.299-37.473-35.64-64.958-72.367-69.413-.872 7.191-2.351 14.264-4.398 21.312l29.128 12.067-11.484 27.715z"/><path d="m382.317 129.333c19.83-5.623 40.8-5.621 60.738-.176 9.578-17.131 7.804-38.914-6.747-53.465-14.7-14.7-36.744-16.322-53.932-6.443 5.222 19.768 5.251 40.527-.059 60.084z"/><path d="m150.365 339.139c-4.482-5.702-8.448-11.75-11.988-18.179l-29.081 12.047-11.484-27.715 29.086-12.048c-2.04-7.039-3.512-14.106-4.374-21.295-36.447 4.623-66.379 32.811-72.393 69.247 31.003 22.065 71.144 20.747 100.234-2.057z"/><path d="m273.212 214.442c-5.566-2.3-11.411-3.457-17.241-3.457s-11.646 1.143-17.183 3.442c-11.089 4.585-19.731 13.242-24.346 24.36-4.6 11.118-4.614 23.335-.015 34.424 4.585 11.089 13.242 19.731 24.36 24.346 11.133 4.6 23.35 4.614 34.424.015 11.089-4.585 19.731-13.242 24.346-24.36 4.6-11.118 4.614-23.335.015-34.424-4.585-11.089-13.242-19.731-24.36-24.346zm-17.212 62.769-21.211-21.211 21.211-21.211 21.211 21.211z"/><path d="m353.002 215.819c-10.708-25.869-30.894-46.025-56.836-56.777-12.993-5.376-26.646-8.071-40.269-8.071-13.594 0-27.173 2.681-40.078 8.027-25.869 10.708-46.025 30.894-56.777 56.836-10.737 25.957-10.752 54.492-.044 80.347 10.708 25.869 30.894 46.025 56.836 56.777 25.942 10.737 54.492 10.737 80.347.044 25.869-10.708 46.025-30.894 56.777-56.836 10.737-25.957 10.752-54.492.044-80.347zm-27.73 68.877c-7.676 18.516-22.075 32.93-40.576 40.591-9.243 3.823-18.955 5.742-28.667 5.742-9.727 0-19.453-1.919-28.726-5.757-18.53-7.676-32.944-22.09-40.591-40.576-7.661-18.486-7.661-38.877.015-57.393 7.676-18.53 22.09-32.944 40.576-40.591 18.516-7.632 38.877-7.646 57.393.015 18.53 7.676 32.944 22.09 40.591 40.576 7.661 18.487 7.661 38.878-.015 57.393z"/><path d="m339.134 361.639c-5.7 4.481-11.746 8.447-18.173 11.984l12.047 29.081-27.715 11.484-12.048-29.084c-7.039 2.04-14.106 3.508-21.295 4.373 4.623 36.447 32.811 66.379 69.247 72.393 22.039-30.977 20.726-71.128-2.063-100.231z"/><path d="m255.756 77.121c10.146-18.168 25.162-33.109 43.341-43.369-.002.002-.004 0-.005.002-5.372-18.84-22.551-33.754-43.092-33.754-20.733 0-38.06 15.167-43.255 34.278 17.93 10.299 32.833 25.078 43.011 42.843z"/><path d="m122.542 240.086c.872-7.191 2.351-14.264 4.398-21.312l-29.128-12.067 11.484-27.715 29.125 12.065c3.53-6.42 7.478-12.458 11.937-18.151-29.011-22.485-70.133-23.74-100.182-2.234 6.298 37.473 35.638 64.959 72.366 69.414z"/><path d="m172.909 361.643c-22.511 29.042-23.758 70.157-2.236 100.182 37.473-6.299 64.96-35.641 69.413-72.367-7.191-.872-14.264-2.353-21.312-4.4l-12.067 29.13-27.715-11.484 12.065-29.125c-6.419-3.53-12.456-7.478-18.148-11.936z"/><path d="m172.866 150.361c5.7-4.481 11.746-8.447 18.173-11.984l-12.047-29.081 27.715-11.484 12.048 29.086c7.039-2.04 14.106-3.51 21.295-4.374-4.623-36.447-32.811-66.379-69.247-72.393-22.039 30.976-20.726 71.127 2.063 100.23z"/><path d="m442.707 382.297c-9.851 2.651-19.876 4.396-29.954 4.396-10.215 0-20.279-1.844-30.145-4.532 5.665 19.876 5.682 40.904.231 60.89 6.799 3.801 14.063 6.411 21.652 6.411 11.528 0 23.042-4.38 31.816-13.154 14.711-14.711 16.337-36.802 6.394-54.009.002 0 .004-.002.006-.002z"/><path d="m256.244 434.879c-10.146 18.168-25.162 33.109-43.341 43.369.002-.002.004 0 .005-.002 5.372 18.84 22.551 33.754 43.092 33.754 20.733 0 38.06-15.167 43.255-34.278-17.93-10.299-32.833-25.078-43.011-42.843z"/><path d="m477.722 212.745c-10.3 17.93-25.078 32.833-42.843 43.011 18.168 10.146 33.109 25.162 43.369 43.341-.002-.002 0-.004-.002-.005 18.84-5.372 33.754-22.551 33.754-43.092 0-20.733-15.167-38.06-34.278-43.255z"/><path d="m129.339 129.679c-5.621-19.83-5.618-40.8-.179-60.732-17.131-9.578-38.915-7.806-53.467 6.746-14.689 14.689-16.335 36.736-6.443 53.934 19.771-5.225 40.531-5.256 60.089.052z"/><path d="m129.736 382.502c-10.052 2.856-20.301 4.807-30.679 4.807-10.129 0-20.191-1.787-30.066-4.534-9.624 17.141-7.868 38.963 6.702 53.533 8.774 8.774 20.303 13.154 31.816 13.154 7.771 0 15.194-2.734 22.117-6.714 0 .002.002.002.002.004-5.235-19.824-5.248-40.643.108-60.25z"/><path d="m77.121 256.244c-18.168-10.146-33.109-25.162-43.369-43.341.002.002 0 .004.002.005-18.84 5.372-33.754 22.551-33.754 43.092 0 20.733 15.167 38.06 34.278 43.255 10.299-17.93 25.078-32.833 42.843-43.011z"/></g></svg>