<svg id="Capa_1" enable-background="new 0 0 512 512" height="512" viewBox="0 0 512 512" width="512" xmlns="http://www.w3.org/2000/svg"><g><path d="m426.74 235.813-150.479-150.48-205.666 176.186 181.084 181.076z"/><path d="m116.822 396.992h60.009v51.22h-60.009z" transform="matrix(.707 -.707 .707 .707 -255.82 227.6)"/><path d="m59.393 339.563h60.008v51.22h-60.008z" transform="matrix(.707 -.707 .707 .707 -232.043 170.187)"/><path d="m47.747 281.093-47.747 40.155 27.861 26.821 43.431-43.431z"/><path d="m340.824 65.052-37.178 5.244 138.063 138.064 5.241-37.182z"/><path d="m207.365 440.704-42.434 42.435 28.388 28.861 38.91-46.432z"/><path d="m455.894 137.701 56.106-77.086-60.615-60.615-77.086 56.106z"/></g></svg>