<svg id="Capa_1" enable-background="new 0 0 512 512" height="512" viewBox="0 0 512 512" width="512" xmlns="http://www.w3.org/2000/svg"><g><path d="m326.947 234.874c14.707-7.727 36.281-20.256 56.104-36.316 42.044-34.064 57.007-67.356 44.473-98.952-5.523-13.923-13.954-23.123-25.774-28.125-19.275-8.158-42.873-3.326-55.359.331-2.686 32.648-15.813 92.408-34.885 135.274 7.006 7.94 12.338 17.385 15.441 27.788z"/><path d="m200.494 207.085c-19.073-42.866-32.2-102.629-34.885-135.277-12.471-3.652-36.076-8.489-55.357-.328-11.82 5.003-20.252 14.203-25.774 28.126-12.577 31.705 2.523 65.108 44.882 99.283 19.775 15.954 41.111 28.339 55.69 35.993 3.103-10.406 8.436-19.854 15.444-27.797z"/><path d="m225.216 188.695c9.382-4.308 19.802-6.73 30.784-6.73s21.402 2.422 30.784 6.73c18.844-45.229 30.119-105.944 30.119-127.792-.001-33.582-27.321-60.903-60.903-60.903s-60.902 27.321-60.902 60.902c0 21.848 11.274 82.564 30.118 127.793z"/><path d="m176.672 375.405c-20.249-17.961-53.673-23.063-99.455-15.205 1.964 16.53 8.608 46.035 31.053 61.802 20.492 14.395 50.772 15.06 90.098 2.01-.797-12.068-4.737-33.563-21.696-48.607z"/><path d="m256 330.035c-34.929 0-64.266-24.322-72.015-56.915-85.87 5.134-152.345 18.868-183.985 27.75v60.246c0 83.197 67.687 150.884 150.884 150.884h13.455c13.51 0 27.039-3.194 39.122-9.236 32.898-16.447 72.179-16.449 105.078 0 12.083 6.042 25.612 9.236 39.122 9.236h13.455c83.197 0 150.884-67.687 150.884-150.884v-60.246c-31.63-8.88-98.108-22.616-183.985-27.749-7.749 32.592-37.085 56.914-72.015 56.914zm-27.713 106.068-.923 9.29-8.743 3.274c-26.05 9.755-49.538 14.632-70.32 14.632-22.325 0-41.529-5.625-57.456-16.875-45.086-31.845-44.494-95.998-44.446-98.713l.208-11.933 11.674-2.479c62.401-13.251 109.036-6.542 138.611 19.94 35.98 32.22 31.599 80.811 31.395 82.864zm237.107-100.325.208 11.933c.047 2.715.64 66.868-44.446 98.713-15.924 11.248-35.134 16.875-57.456 16.875-20.785 0-44.267-4.876-70.32-14.632l-8.743-3.274-.923-9.29c-.204-2.053-4.584-50.643 31.396-82.863 29.575-26.482 76.211-33.191 138.611-19.94z"/><path d="m313.569 423.991c39.436 13.1 69.774 12.412 90.278-2.071 13.234-9.347 22.603-24.465 27.845-44.932 1.599-6.243 2.545-12.049 3.105-16.785-45.951-7.887-79.448-2.727-99.676 15.386-16.971 15.198-20.821 36.433-21.552 48.402z"/><circle cx="256" cy="256" r="44.035"/></g></svg>