<svg id="Capa_1" enable-background="new 0 0 512 512" height="512" viewBox="0 0 512 512" width="512" xmlns="http://www.w3.org/2000/svg"><g><path d="m459.83 128.78-22.83 11.01v-.25l-181-55.1-181 55.1v.25l-22.83-11.01c-24.23-10.56-52.17 7.79-52.17 34.18v123.64c0 38.71 26.1 72.8 63.46 82.9l86.87 23.36c29.73 21.84 66.23 34.7 105.67 34.7s75.94-12.86 105.67-34.7l86.87-23.36c37.36-10.1 63.46-44.19 63.46-82.9v-123.64c0-26.39-27.94-44.74-52.17-34.18zm-350.86 221.89-37.68-10.14c-24.31-6.57-41.29-28.74-41.29-53.93v-123.64c0-5.06 5.22-8.7 9.99-6.76l35.01 16.89v69.94c0 40.18 12.59 77.35 33.98 107.64zm248.97-18.96h-203.88v-30h203.88zm0-61.47h-203.88v-30h203.88zm0-61.47h-203.88v-30h203.88zm124.06 77.83c0 25.19-16.98 47.36-41.29 53.93l-37.68 10.14h-.01c21.39-30.29 33.98-67.46 33.98-107.64v-69.94l35.01-16.89c4.77-1.94 9.99 1.7 9.99 6.76z"/></g></svg>