<svg id="Capa_1" enable-background="new 0 0 512 512" height="512" viewBox="0 0 512 512" width="512" xmlns="http://www.w3.org/2000/svg"><g><path d="m255.853 92.597 74.337-44.264-12.146-48.33-124.203-.003-12.152 48.353z"/><path d="m255.875 298.832c27.408 0 49.706-21.981 49.706-49s-22.298-49-49.706-49-49.706 21.981-49.706 49 22.298 49 49.706 49zm-16.042-64h32.219v30h-32.219z"/><path d="m422.541 263.697 8.474 248.303h54.963l7.719-257.036z"/><path d="m88.831 263.634-71.235-8.742 7.722 257.108h53.755z"/><path d="m90.013 233.554 1.624-41.339 29.977 1.178-12.518 318.607h291.902l-10.895-319.237 29.982-1.023 1.429 41.859 89.032-10.927-5.492-55.003c-2.942-29.461-23.04-54.494-51.386-64.002l-100.918-33.85-96.911 57.705-96.679-57.675-100.498 33.908c-28.067 9.47-48.035 34.178-51.191 63.343l-6.017 55.588zm270.433 156.577-7.932-23.018-25.059-5.177-20.702-30.262 24.761-16.938 13.866 20.27 29.933 6.184 13.496 39.168zm-32.991-252.974 25.059-5.177 7.932-23.018 28.363 9.773-13.496 39.168-29.933 6.184-13.866 20.27-24.761-16.938zm-71.58 33.675c43.95 0 79.706 35.439 79.706 79s-35.756 79-79.706 79-79.706-35.439-79.706-79 35.756-79 79.706-79zm-104.584-61.87 7.932 23.018 25.059 5.177 20.702 30.261-24.76 16.939-13.867-20.27-29.932-6.184-13.497-39.168zm-14.867 232.227 29.932-6.184 13.867-20.27 24.76 16.939-20.702 30.261-25.059 5.177-7.932 23.018-28.363-9.773z"/></g></svg>