<svg id="Capa_1" enable-background="new 0 0 512 512" height="512" viewBox="0 0 512 512" width="512" xmlns="http://www.w3.org/2000/svg"><g><path d="m332.353 256c0-15.638-4.733-30.189-12.832-42.308l-105.829 105.829c12.119 8.099 26.669 12.832 42.308 12.832 42.101 0 76.353-34.252 76.353-76.353z"/><path d="m113.197 353.736 21.213-21.213 11.927 11.927 24.637-24.637c-10.535-14.002-17.692-30.68-20.263-48.814h-34.797v16.867h-30v-63.734h30v16.868h34.797c2.571-18.134 9.728-34.811 20.263-48.814l-24.637-24.637-11.927 11.927-21.213-21.213 45.067-45.067 21.213 21.213-11.927 11.927 24.637 24.637c14.002-10.535 30.68-17.692 48.814-20.263v-34.797h-16.867v-30h63.734v30h-16.868v34.797c18.134 2.571 34.811 9.728 48.814 20.263l24.637-24.637-11.927-11.927 21.213-21.213 11.927 11.927 60.428-60.428c-45.224-40.237-104.797-64.695-170.092-64.695-141.385 0-256 114.615-256 256 0 65.295 24.458 124.868 64.696 170.091l60.428-60.428z"/><path d="m179.647 256c0 15.638 4.733 30.189 12.832 42.308l105.829-105.829c-12.119-8.099-26.669-12.832-42.308-12.832-42.101 0-76.353 34.252-76.353 76.353z"/><path d="m447.304 85.909-60.428 60.428 11.927 11.927-21.213 21.213-11.927-11.927-24.637 24.637c10.535 14.002 17.692 30.68 20.263 48.814h34.797v-16.867h30v63.734h-30v-16.868h-34.796c-2.571 18.134-9.728 34.811-20.263 48.814l24.637 24.637 11.927-11.927 21.213 21.213-45.067 45.067-21.213-21.213 11.927-11.927-24.637-24.637c-14.002 10.535-30.68 17.692-48.814 20.263v34.797h16.867v30h-63.734v-30h16.867v-34.797c-18.134-2.571-34.811-9.728-48.814-20.263l-24.637 24.637 11.927 11.927-21.213 21.213-11.927-11.927-60.428 60.428c45.224 40.237 104.797 64.695 170.092 64.695 141.385 0 256-114.615 256-256 0-65.295-24.458-124.868-64.696-170.091z"/></g></svg>