<svg id="Capa_1" enable-background="new 0 0 510 510" height="512" viewBox="0 0 510 510" width="512" xmlns="http://www.w3.org/2000/svg"><g><path d="m30 0h43.717v75h-43.717z"/><path d="m105.511 0h43.717v75h-43.717z"/><path d="m181.022 0h43.717v75h-43.717z"/><path d="m256.533 0h43.717v75h-43.717z"/><path d="m255 135.021v-30.021h-180v30.021c-41.152.448-74.531 33.827-74.979 74.979h149.979v165h-150v45h330v-209.166c0-41.536-33.569-75.362-75-75.813z"/><path d="m0 240h120v105h-120z"/><path d="m0 450h330v60h-330z"/><path d="m435 180c-41.355 0-75 33.645-75 75v75h150v-75c0-41.355-33.645-75-75-75z"/><path d="m360 435c0 41.355 33.645 75 75 75s75-33.645 75-75v-75h-150z"/></g></svg>