<svg id="Capa_1" enable-background="new 0 0 512 512" height="512" viewBox="0 0 512 512" width="512" xmlns="http://www.w3.org/2000/svg"><g><path d="m435.271 225.669-107.933 107.111h-116.338v-30h90c16.569 0 30-13.433 30-30 0-16.569-13.431-30-30-30h-119.731c-32.82 0-64.514 11.957-89.156 33.633l-92.113 79.98 104.37 122.827 97.387-86.44h150.454l159.789-158.994s-10.845-10.845-10.966-10.964c-17.983-17.736-47.901-15.012-65.763 2.847z"/><path d="m218.5 122.78c0 41.016 37.178 89.648 37.5 90l.015-.015c.308-.337 37.485-48.97 37.485-89.985 0-40.928-37.192-89.722-37.5-90-.308.278-37.5 49.072-37.5 90z"/><path d="m150.78 76.74-16.772-.952.952 16.772c1.968 34.704 22.172 95.043 81.262 114.12-12.761-21.498-27.722-53.047-27.722-83.901 0-11.94 2.417-23.985 5.903-35.605-22.626-9.008-42.334-10.368-43.623-10.434z"/><path d="m377.04 92.56.952-16.772-16.772.952c-1.289.066-20.997 1.426-43.623 10.435 3.486 11.62 5.903 23.665 5.903 35.605 0 30.797-14.987 62.393-27.742 83.908 59.104-19.071 79.314-79.42 81.282-114.128z"/></g></svg>