<svg id="Capa_1" enable-background="new 0 0 511.999 511.999" height="512" viewBox="0 0 511.999 511.999" width="512" xmlns="http://www.w3.org/2000/svg"><g><path d="m257.99 191.916c0-5.808.643-11.516 1.903-17.05-24.696 9.745-42.217 33.849-42.217 61.967 0 36.714 29.869 66.583 66.583 66.583 16.697 0 32.665-6.208 44.962-17.481 5.812-5.329 10.573-11.566 14.132-18.409-3.042.37-6.113.557-9.197.557-41.998-.001-76.166-34.168-76.166-76.167z"/><path d="m463 76.556v-76.556h-75.891v.665c0 41.846 34.044 75.891 75.891 75.891z"/><path d="m218.89 473.665c0-41.846-34.044-76.223-75.891-76.223v114.556h30.167v-38.333z"/><path d="m357.109.665v-.665h-108.219v.665c0 58.388-47.502 105.891-105.891 105.891v260.887c58.389 0 105.891 47.835 105.891 106.223h108.235c0-58.388 47.487-106.223 105.876-106.223v-260.887c-58.39 0-105.892-47.503-105.892-105.891zm-13.787 154.751h30v30h-30zm6.172 152.632c-17.844 16.359-41.011 25.368-65.234 25.368-53.256 0-96.583-43.327-96.583-96.583s43.327-96.583 96.583-96.583l12.922 24.018c-6.013 8.024-9.191 17.585-9.191 27.648 0 25.456 20.71 46.167 46.166 46.167 8.335 0 16.505-2.249 23.628-6.504l22.628 14.262c-2.213 23.865-13.193 45.957-30.919 62.207z"/><path d="m387.109 473.634 75.891.031v-76.223c-41.847.001-75.891 34.346-75.891 76.192z"/><path d="m142.999 76.556c41.847 0 75.891-34.044 75.891-75.891v-.665h-75.891z"/><path d="m112.999.016c-35.346.339-64 29.185-64 64.611v344.413c0 35.425 28.654 64.271 64 64.61z"/></g></svg>