<svg id="Capa_1" enable-background="new 0 0 510.012 510.012" height="512" viewBox="0 0 510.012 510.012" width="512" xmlns="http://www.w3.org/2000/svg"><g><path d="m430.316 148.902c0-64.851-56.732-108.146-112.396-97.909 8.402 21.499 10.683 45.449 5.561 69.019h-30.949c11.63-39.415-4.077-75.131-37.526-99.284-48.888-35.302-117.455-24.958-153.913 26.801-19.528 27.725-27.31 64.382-16.748 101.073-46.862 1.799-84.34 41.682-84.34 90.66 0 50.26 39.374 90.75 87.66 90.75h56.068l111.272-176.181 111.272 176.181h56.068c48.234 0 87.66-40.439 87.66-90.75.001-47.122-34.785-86.157-79.689-90.36z"/><path d="m65.532 510.012h378.947l-189.474-300zm204.474-45c-10.492 0-19.508 0-30 0v-30h30zm0-60c-10.492 0-19.508 0-30 0v-90h30z"/></g></svg>