<svg id="Capa_1" enable-background="new 0 0 512 512" height="512" viewBox="0 0 512 512" width="512" xmlns="http://www.w3.org/2000/svg"><path d="m317 0c-107.52 0-195 87.48-195 195 0 48.371 17.809 92.591 47.08 126.709l-32.08 32.08-21.211-21.211-115.789 115.789 63.633 63.633 115.789-115.789-21.211-21.211 32.08-32.08c34.118 29.271 78.338 47.08 126.709 47.08 107.52 0 195-87.48 195-195s-87.48-195-195-195zm-83.32 219.595-60-40.005 16.641-24.961 60 40.005zm68.32 65.405h-30v-111.973l-70.781-47.183 16.641-24.961 84.14 56.09zm60 0h-30v-128.027l84.141-56.089 16.641 24.961-70.782 47.182zm38.32-65.405-16.641-24.961 60-40.005 16.641 24.961z"/></svg>