<svg id="Capa_1" enable-background="new 0 0 512 512" height="512" viewBox="0 0 512 512" width="512" xmlns="http://www.w3.org/2000/svg"><g><circle cx="351.133" cy="30.125" r="30.125"/><circle cx="351.133" cy="346.375" r="15.125"/><path d="m245.758 451.75h210.75v60.25h-210.75z"/><path d="m446.75 45.125v15.125h-43.617c-10.421 17.919-29.82 30-52 30-21.549 0-40.477-11.402-51.094-28.482-70.264 10.195-124.414 70.821-124.414 143.865v60.617c0 14.733-9.156 27.361-22.073 32.515-7.906-33.085-37.704-57.765-73.177-57.765h-15.125v-15.125h-30v15.125 150.5 15.125h30v-15.125h15.125c36.876 0 67.619-26.67 74.01-61.729 29.253-6.331 51.24-32.401 51.24-63.521v-60.617c0-58.539 43.822-107.033 100.383-114.408v39.44c-35.589 16.935-60.25 53.245-60.25 95.211v15.124h210.75v-15.125c0-41.965-24.661-78.275-60.25-95.211v-40.414h50.492v15.125h30v-60.25z"/><path d="m456.508 271h-210.75v150.75h210.75zm-105.375 120.5c-24.882 0-45.125-20.243-45.125-45.125s20.243-45.125 45.125-45.125 45.125 20.243 45.125 45.125-20.243 45.125-45.125 45.125z"/></g></svg>