<svg id="Capa_1" enable-background="new 0 0 512 512" height="512" viewBox="0 0 512 512" width="512" xmlns="http://www.w3.org/2000/svg"><g><circle cx="331" cy="331" r="30"/><path d="m512 331c0-96.797-76.615-175.723-171.977-179.59-3.018-.381-6.006-.41-9.023-.41-143.44 0-227.874 159.781-151.172 277.573 33.486 51.607 90.029 83.427 151.172 83.427 99.258 0 181-81.742 181-181zm-91 15h-32.13c-1.415 5.446-3.576 10.554-6.372 15.287l22.74 22.74-21.211 21.211-22.742-22.742c-4.733 2.794-9.84 4.957-15.286 6.372v32.132h-30v-32.131c-5.446-1.415-10.552-3.578-15.286-6.372l-22.742 22.742-21.211-21.211 22.74-22.74c-2.796-4.733-4.957-9.842-6.372-15.287h-32.128v-30h32.13c1.415-5.446 3.576-10.554 6.372-15.287l-22.74-22.74 21.211-21.211 22.742 22.742c4.733-2.794 9.84-4.957 15.286-6.372v-32.133h30v32.131c5.446 1.415 10.552 3.578 15.286 6.372l22.742-22.742 21.211 21.211-22.74 22.74c2.796 4.733 4.957 9.842 6.372 15.287h32.128z"/><path d="m336.68 121.287c-25.411-51.301-67.958-88.237-118.561-100.483-8.203-12.245-22.031-20.804-37.119-20.804s-28.916 8.559-37.119 20.805c-83.203 20.185-143.881 105.19-143.881 205.195 0 102.499 64.303 187.941 147.671 206.245-80.12-144.229 30.576-316.791 189.009-310.958z"/></g></svg>