<svg id="Capa_1" enable-background="new 0 0 512 512" height="512" viewBox="0 0 512 512" width="512" xmlns="http://www.w3.org/2000/svg"><g><path d="m162.061 0h187.878v68.882h-187.878z"/><path d="m256 393.623c-14.343 0-27.67-4.42-38.703-11.96v37.7h77.407v-37.7c-11.034 7.54-24.361 11.96-38.704 11.96z"/><path d="m367.6 241.312-48.457-32.607v-42.928h-126.286v42.928l-48.457 32.607c-24.218 16.296-36.908 44.4-33.117 73.344l25.848 197.344h237.738l25.848-197.344c3.791-28.943-8.899-57.047-33.117-73.344zm-42.829 208.118h-137.542s0-123.884 0-124.578c0-37.92 30.851-68.771 68.771-68.771s68.771 30.851 68.771 68.771z"/><path d="m192.857 98.95h126.286v36.76h-126.286z"/><circle cx="256" cy="324.852" r="38.703"/></g></svg>