<svg id="Capa_1" enable-background="new 0 0 512 512" height="512" viewBox="0 0 512 512" width="512" xmlns="http://www.w3.org/2000/svg"><g><path d="m363.868 166.333c-31.797 0-57.666 25.869-57.666 57.667v198.896c0 32.59-26.515 59.104-59.105 59.104-31.105 0-56.658-24.159-58.923-54.695h36.028v-81.639h-104.667v81.639h38.567c2.306 47.092 41.341 84.695 88.995 84.695 49.133 0 89.104-39.972 89.104-89.104v-198.896c0-15.255 12.411-27.667 27.666-27.667 15.256 0 27.667 12.411 27.667 27.667v160h30v-160c.001-31.797-25.869-57.667-57.666-57.667z"/><path d="m253.271 315.667v-234.264c0-44.886-36.518-81.403-81.403-81.403-44.886 0-81.402 36.517-81.402 81.403v234.264zm-96.403-227.167h30v158h-30z"/></g></svg>