<?xml version="1.0" encoding="iso-8859-1"?>
<!-- Generator: Adobe Illustrator 19.0.0, SVG Export Plug-In . SVG Version: 6.00 Build 0)  -->
<svg xmlns="http://www.w3.org/2000/svg" xmlns:xlink="http://www.w3.org/1999/xlink" version="1.1" id="Layer_1" x="0px" y="0px" viewBox="0 0 512 512" style="enable-background:new 0 0 512 512;" xml:space="preserve">
<g>
	<g>
		<path d="M464.282,240.446l47.718-5.28l-0.1-79.027l-48.488-5.24c-2.38-7.09-5.33-13.99-8.81-20.649l30.009-37.499l-55.968-55.798    l-37.989,30.599c-6.64-3.31-13.51-6.09-20.579-8.32l-5.21-47.728h-79.037l-5.3,48.478c-7.09,2.38-13.999,5.31-20.659,8.78    l-37.449-30.059l-55.878,55.898l22.439,27.939c5.06-1.5,10.46-2.81,16.169-3.83c5.58-1,11.46-1.72,17.589-2.05    c2.58-0.15,5.21-0.22,7.88-0.22c14.599,0,29.119,2.29,43.178,6.8c10.7,3.42,20.659,8.63,29.639,15.359    c7.32-2.99,15.329-4.64,23.719-4.64c34.719,0,62.868,28.149,62.868,62.868c0,26.209-16.029,48.658-38.819,58.098    c-2.07,27.569-11.53,55.018-27.899,79.087c-3.13,4.61-6.03,9.33-8.7,14.149c-3.5,6.31-6.59,12.779-9.26,19.359    c-2.01,4.95-3.78,9.95-5.3,14.999l67.188-0.07l5.27-48.478c7.09-2.38,13.99-5.32,20.649-8.79l37.469,30.019l55.838-55.938    l-30.579-37.999C459.222,254.535,462.032,247.585,464.282,240.446z"/>
	</g>
</g>
<g>
	<g>
		<path d="M279.739,158.729c-4.71-2.88-9.75-5.21-15.099-6.93c-1.49-0.48-2.98-0.92-4.46-1.33c-1.11-0.31-2.21-0.6-3.31-0.86    c-1.1-0.26-2.19-0.52-3.28-0.75c-7.98-1.7-15.669-2.42-22.969-2.42c-2.37,0-4.71,0.08-6.99,0.23    c-6.17,0.38-12.03,1.25-17.489,2.45c-0.68,0.14-1.36,0.3-2.03,0.46c-26.369,6.23-43.308,19.579-43.308,19.579    s-9.64-7.59-25.689-14c-1.3-0.52-2.64-1.03-4.03-1.53c-0.92-0.33-1.86-0.66-2.82-0.98c-0.79-0.26-1.58-0.52-2.39-0.77    c-1.04-0.32-2.1-0.64-3.18-0.95c-0.64-0.18-1.29-0.36-1.94-0.53c-1.46-0.39-2.96-0.76-4.49-1.1c-0.2-0.05-0.4-0.09-0.6-0.13    c-0.99-0.23-2-0.44-3.02-0.63c-1.12-0.22-2.25-0.42-3.41-0.61c-1.14-0.18-2.31-0.36-3.49-0.51c-0.59-0.08-1.18-0.15-1.78-0.22    c-1.78-0.21-3.6-0.38-5.45-0.5c-2.46-0.17-4.98-0.26-7.54-0.26c-7.3,0-14.989,0.72-22.959,2.42c-1.09,0.23-2.18,0.48-3.28,0.75    c-1.1,0.26-2.2,0.55-3.31,0.86c-1.48,0.41-2.97,0.85-4.46,1.33C1.769,169.498-20.72,252.765,23.158,317.223    c17.309,25.439,29.029,54.268,33.329,84.737c0.24,1.64,0.46,3.33,0.69,5.05c7.27,56.428,21.559,91.607,39.879,93.437    c0.34,0.03,0.68,0.05,1.02,0.05c3.34,0,6.52-1.64,9.51-4.61c0.5-0.49,0.99-1.02,1.48-1.58c5.13-5.93,9.68-15.719,13.5-27.599    c0.37-1.13,0.72-2.28,1.08-3.44c2.46-8.17,4.59-17.189,6.35-26.539c0.25-1.34,0.5-2.68,0.74-4.03c1.3-7.41,2.38-14.969,3.2-22.439    c0.51-4.64,1.21-8.84,2.05-12.65c0.21-0.96,0.43-1.89,0.66-2.79c0.34-1.36,0.7-2.66,1.08-3.92c0.12-0.41,0.25-0.82,0.38-1.23    c2.31-7.31,5.18-12.79,8.09-16.879c0.67-0.94,1.41-1.79,2.2-2.56c0.4-0.39,0.8-0.75,1.23-1.08c0.42-0.34,0.85-0.65,1.3-0.95    c0.01,0,0.01,0,0.01-0.01c0.2-0.13,0.39-0.25,0.59-0.37c0.19-0.12,0.39-0.23,0.59-0.34c0.24-0.14,0.48-0.26,0.73-0.37    c0.45-0.23,0.9-0.43,1.36-0.6c0.18-0.07,0.36-0.13,0.54-0.2l0.54-0.18c0.04-0.01,0.08-0.03,0.12-0.04    c0.16-0.05,0.32-0.09,0.48-0.14c0.11-0.03,0.22-0.06,0.33-0.09c0.33-0.09,0.66-0.16,1-0.23c0.03-0.01,0.06-0.02,0.09-0.02    c0.224-0.049,0.457-0.078,0.681-0.117c0.256-0.04,0.512-0.086,0.769-0.113c0.25-0.03,0.5-0.06,0.75-0.08    c0.01,0.01,0.02,0.01,0.03,0c0.18-0.02,0.35-0.02,0.52-0.03c0.18-0.01,0.35-0.01,0.52-0.01s0.34,0,0.51,0.01    c0.22,0,0.44,0,0.66,0.02c0.26,0.01,0.52,0.03,0.77,0.05c0.26,0.03,0.52,0.06,0.78,0.09c0.01,0,0.01,0,0.02,0    c0.27,0.04,0.53,0.09,0.8,0.14c0.05,0.01,0.11,0.02,0.16,0.03c0.24,0.04,0.47,0.1,0.7,0.15c0.24,0.04,0.47,0.1,0.7,0.18    c0.11,0.03,0.22,0.07,0.33,0.1c0.39,0.11,0.78,0.24,1.16,0.4c0.14,0.05,0.29,0.1,0.43,0.16c0.38,0.14,0.75,0.31,1.12,0.5    c0.15,0.07,0.3,0.16,0.45,0.24c0.32,0.15,0.63,0.33,0.94,0.53c0.15,0.09,0.3,0.17,0.45,0.27c0.18,0.12,0.36,0.25,0.54,0.37    c0.18,0.13,0.36,0.26,0.53,0.4c0.05,0.04,0.1,0.07,0.15,0.1c0.05,0.04,0.1,0.07,0.14,0.11c0.45,0.35,0.88,0.72,1.29,1.12    c0.79,0.77,1.53,1.62,2.2,2.56c5.18,7.28,10.22,18.929,12.27,37.469c0.6,5.43,1.33,10.91,2.19,16.349    c0.21,1.36,0.43,2.72,0.66,4.07c0.23,1.35,0.47,2.7,0.71,4.04c0.25,1.34,0.5,2.68,0.76,4c0.26,1.33,0.53,2.65,0.8,3.97    c0.14,0.65,0.28,1.31,0.42,1.96c0.74,3.42,1.53,6.77,2.37,10.03c0.28,1.08,0.56,2.16,0.85,3.22c0.66,2.43,1.35,4.81,2.06,7.1    c0.36,1.15,0.73,2.28,1.1,3.4c1.11,3.33,2.28,6.49,3.51,9.43c0.41,0.98,0.82,1.93,1.24,2.86c0.42,0.93,0.85,1.83,1.28,2.71    c0.44,0.88,0.87,1.73,1.32,2.55c0.44,0.82,0.89,1.61,1.35,2.37c0.45,0.76,0.92,1.49,1.38,2.19c0.47,0.7,0.94,1.37,1.42,2    c0.48,0.63,0.96,1.23,1.45,1.8c0.48,0.56,0.98,1.09,1.48,1.58c2.99,2.97,6.17,4.61,9.51,4.61c0.34,0,0.68-0.02,1.02-0.05    c18.319-1.83,32.609-37.009,39.878-93.437c0.21-1.66,0.43-3.28,0.66-4.87c2.94-20.899,9.37-41.028,18.689-59.818    c3.35-6.76,7.07-13.34,11.13-19.719c1.17-1.83,2.37-3.65,3.59-5.45c1.77-2.61,3.44-5.25,4.99-7.92    c9.58-16.369,15.139-33.689,17.189-50.668C325.757,216.677,309.518,176.898,279.739,158.729z"/>
	</g>
</g>
<g>
</g>
<g>
</g>
<g>
</g>
<g>
</g>
<g>
</g>
<g>
</g>
<g>
</g>
<g>
</g>
<g>
</g>
<g>
</g>
<g>
</g>
<g>
</g>
<g>
</g>
<g>
</g>
<g>
</g>
</svg>
