<svg id="Capa_1" enable-background="new 0 0 509.91 509.91" height="512" viewBox="0 0 509.91 509.91" width="512" xmlns="http://www.w3.org/2000/svg"><g id="XMLID_66_"><path id="XMLID_68_" d="m319.627 303.434 29.283 206.476h46.009l1.583-216.753c-9.127 6.614-20.18 10.277-31.659 10.277z"/><path id="XMLID_71_" d="m113.408 292.95v216.96h46.009l30.739-206.476h-44.794c-11.602 0-22.772-3.735-31.954-10.484z"/><path id="XMLID_137_" d="m315.51 0h-120.816c-22.226 0-40.881 15.901-44.412 37.83l-22.336 162.366h254.312l-22.336-162.366c-3.531-21.929-22.186-37.83-44.412-37.83zm-26.78 67.165h-64.041v-30h64.041z"/><path id="XMLID_193_" d="m121.618 246.2c-.958 6.964 1.059 13.718 5.678 19.017 4.62 5.299 11.036 8.217 18.065 8.217h219.482c7.029 0 13.445-2.918 18.065-8.217 4.619-5.299 6.636-12.053 5.678-19.017l-2.202-16.004h-262.565z"/></g></svg>