<?xml version="1.0" encoding="iso-8859-1"?>
<!-- Generator: Adobe Illustrator 19.0.0, SVG Export Plug-In . SVG Version: 6.00 Build 0)  -->
<svg xmlns="http://www.w3.org/2000/svg" xmlns:xlink="http://www.w3.org/1999/xlink" version="1.1" id="Layer_1" x="0px" y="0px" viewBox="0 0 512 512" style="enable-background:new 0 0 512 512;" xml:space="preserve">
<g>
	<g>
		<polygon points="496.327,444.25 480.653,444.25 31.347,444.25 15.673,444.25 0,444.25 0,495.742 512,495.742 512,444.25   "/>
	</g>
</g>
<g>
	<g>
		<path d="M455.638,94.617H351.884v-31.74c0-25.706-20.914-46.619-46.619-46.619h-98.531c-25.707,0-46.619,20.914-46.619,46.619    v31.74H56.362C25.287,94.627,0,119.903,0,150.989v68.723v0.188l15.673,3.866L126.61,251.09l4.002,0.993l74.533,18.474v-0.115    v-16.071h101.71v16.071v0.115l74.533-18.474l4.002-0.993l110.937-27.324L512,219.9v-0.188v-68.723    C512,119.903,486.713,94.627,455.638,94.617z M320.537,94.617H191.462v-31.74c0-8.421,6.851-15.272,15.272-15.272h98.531    c8.422,0,15.272,6.851,15.272,15.272V94.617z"/>
	</g>
</g>
<g>
	<g>
		<polygon points="236.492,285.582 236.492,285.718 236.492,305.09 275.508,305.09 275.508,285.718 275.508,285.582   "/>
	</g>
</g>
<g>
	<g>
		<polygon points="220.787,290.577 220.818,290.587 220.818,290.451   "/>
	</g>
</g>
<g>
	<g>
		<polygon points="291.182,290.451 291.182,290.587 291.213,290.577   "/>
	</g>
</g>
<g>
	<g>
		<polygon points="496.327,255.897 480.653,259.773 392.871,281.528 390.917,282.019 306.855,302.729 306.855,302.844     306.855,336.437 205.145,336.437 205.145,302.844 205.145,302.729 121.083,282.019 119.129,281.528 31.347,259.773     15.673,255.897 0,252.01 0,252.177 0,412.903 15.673,412.903 31.347,412.903 480.653,412.903 496.327,412.903 512,412.903     512,252.177 512,252.01   "/>
	</g>
</g>
<g>
</g>
<g>
</g>
<g>
</g>
<g>
</g>
<g>
</g>
<g>
</g>
<g>
</g>
<g>
</g>
<g>
</g>
<g>
</g>
<g>
</g>
<g>
</g>
<g>
</g>
<g>
</g>
<g>
</g>
</svg>
