<svg id="Capa_1" enable-background="new 0 0 512 512" height="512" viewBox="0 0 512 512" width="512" xmlns="http://www.w3.org/2000/svg"><g><path d="m161.939 209.824h130.473v150h-130.473z" transform="matrix(.707 -.707 .707 .707 -134.863 244.061)"/><path d="m289.016 129.2h37.567v150h-37.567z" transform="matrix(.707 -.707 .707 .707 -54.239 277.456)"/><path d="m121.424 338.076h44.999v60h-44.999z" transform="matrix(.707 -.707 .707 .707 -218.114 209.574)"/><path d="m-9.316 438.297h136.039v30h-136.039z" transform="matrix(.707 -.707 .707 .707 -303.335 174.277)"/><path d="m246.835 31.82-21.213 21.213 63.639 63.639 106.066 106.067 63.64 63.639 21.213-21.213z"/><path d="m400.631 58.336-42.427 42.427 53.033 53.033 42.427-42.427 37.123 37.123 21.213-21.213-127.279-127.279-21.213 21.213z"/></g></svg>