<svg id="Capa_1" enable-background="new 0 0 511.948 511.948" height="512" viewBox="0 0 511.948 511.948" width="512" xmlns="http://www.w3.org/2000/svg"><g id="XMLID_973_"><path id="XMLID_974_" d="m123.495 328.45h94.365v109.426h-94.365z"/><path id="XMLID_981_" d="m102.376 467.876h136.604v44.072h-136.604z"/><path id="XMLID_982_" d="m199.676 114.537-57.995 18.676v99.878h57.995z"/><path id="XMLID_983_" d="m123.495 263.091h94.365v35.359h-94.365z"/><path id="XMLID_985_" d="m376.76 178h32.812v-30h-32.812v-26.719h32.812v-30h-32.812v-26.719h32.812v-30h-32.812v-34.562h-30v34.562h-33.143v30h33.143v26.719h-33.143v30h33.143v26.719h-33.143v30h33.143v97.792h30z"/><path id="XMLID_991_" d="m316.209 305.792h90.771v137.234h-90.771z"/><path id="XMLID_996_" d="m316.209 473.026h90.771v38.921h-90.771z"/></g></svg>