<svg id="Capa_1" enable-background="new 0 0 512 512" height="512" viewBox="0 0 512 512" width="512" xmlns="http://www.w3.org/2000/svg"><g><path d="m345.351 160.676c-36.387 0-65.99 29.603-65.99 65.99s29.604 65.99 65.99 65.99 65.989-29.603 65.989-65.99-29.603-65.99-65.989-65.99zm15 95.68h-30v-60.998h30z"/><path d="m441.34 440.585v-7.993c45.614-47.814 70.66-110.278 70.66-176.592 0-68.38-26.629-132.667-74.98-181.02-48.353-48.351-112.64-74.98-181.02-74.98s-132.667 26.629-181.02 74.98c-48.351 48.353-74.98 112.64-74.98 181.02s26.629 132.667 74.98 181.02c48.353 48.351 112.64 74.98 181.02 74.98 57.798 0 112.671-19.028 157.47-54.116-1.384-5.542-2.13-11.334-2.13-17.299v-144.275c-17.215 16.32-40.452 26.346-65.989 26.346-52.93 0-95.99-43.061-95.99-95.99s43.061-95.99 95.99-95.99 95.989 43.061 95.989 95.99v205.927c-1.421 1.489-2.86 2.966-4.32 4.427-7.482 7.482-15.348 14.441-23.55 20.865 7.755 31.045 35.872 54.115 69.285 54.115h29.245v-30h-29.245c-22.836 0-41.415-18.579-41.415-41.415zm-256.291-184.229h-30v-30.002h30zm-51.891-71.247-29.621 18.489-15.885-25.449 40.975-25.575 53.274 15.388 23.05-14.754 16.174 25.267-34.495 22.08zm132.827 169.517c12.361 0 24.815 2.765 36.016 7.996l29.695 13.87-12.695 27.182-29.695-13.87c-7.252-3.387-15.315-5.177-23.32-5.177h-78.577v-30h78.576z"/></g></svg>