<?xml version="1.0" encoding="iso-8859-1"?>
<!-- Generator: Adobe Illustrator 19.0.0, SVG Export Plug-In . SVG Version: 6.00 Build 0)  -->
<svg xmlns="http://www.w3.org/2000/svg" xmlns:xlink="http://www.w3.org/1999/xlink" version="1.1" id="Layer_1" x="0px" y="0px" viewBox="0 0 512 512" style="enable-background:new 0 0 512 512;" xml:space="preserve">
<g>
	<g>
		<path d="M455.147,156.326L455.147,156.326c-13.349,0-24.209,10.86-24.209,24.209v66.928c0,13.35,10.861,24.209,24.209,24.209    h18.054v121.52c0,31.573-25.686,57.258-57.258,57.258h-90.478c-4.734-10.123-13.918-17.77-25.023-20.413v-36.456    c70.614-32.81,119.683-104.406,119.683-187.246C420.124,92.557,327.567,0,213.788,0C100.02,0,7.452,92.557,7.452,206.336    c0,82.84,49.079,154.436,119.683,187.246v36.457c-16.321,3.887-28.505,18.589-28.505,36.091V512h230.316v-30.202h86.996    c48.857,0,88.605-39.748,88.605-88.605v-121.52v-83.666v-31.681H455.147z M214.833,161.938c22.988,0,41.618,18.631,41.618,41.608    c0,22.988-18.631,41.618-41.618,41.618c-22.977,0-41.608-18.631-41.608-41.618C173.225,180.569,191.856,161.938,214.833,161.938z     M269.095,429.035H158.482v-16.363h110.613V429.035z"/>
	</g>
</g>
<g>
</g>
<g>
</g>
<g>
</g>
<g>
</g>
<g>
</g>
<g>
</g>
<g>
</g>
<g>
</g>
<g>
</g>
<g>
</g>
<g>
</g>
<g>
</g>
<g>
</g>
<g>
</g>
<g>
</g>
</svg>
