<svg id="Capa_1" enable-background="new 0 0 512 512" height="512" viewBox="0 0 512 512" width="512" xmlns="http://www.w3.org/2000/svg"><g><path d="m215.256 435.366c-5.304 7.846-8.402 17.306-8.402 27.489.001 27.142 22.004 49.145 49.146 49.145s49.145-22.003 49.145-49.145c0-10.183-3.098-19.644-8.402-27.489v-43.032h-81.487z"/><path d="m95.646 164.158c1.899 47.17 12.044 89.566 30.15 126.011 14.062 28.302 32.703 52.447 55.604 72.165h149.198c22.902-19.718 41.542-43.863 55.604-72.165 18.107-36.445 28.252-78.841 30.151-126.011l2.14-53.158h-324.987zm253.021 128.175h-185.334v-30h185.333v30zm-216.834-115.333h248.334v30h-248.334z"/><path d="m452.333 51.396c0-28.339-23.056-51.396-51.397-51.396h-289.873c-28.34 0-51.397 23.057-51.397 51.396v29.604h392.667z"/></g></svg>