<svg id="Capa_1" enable-background="new 0 0 510 510" height="512" viewBox="0 0 510 510" width="512" xmlns="http://www.w3.org/2000/svg"><g><g><path d="m269.184 465c-23.031 0-44.065-8.7-60-22.98v67.98h300v-67.98c-15.935 14.28-36.969 22.98-60 22.98z"/><path d="m359.184 390c-24.814 0-45 20.187-45 45h90c0-24.813-20.186-45-45-45z"/><path d="m209.184 270v30h-15c-16.542 0-30-13.458-30-30s13.458-30 30-30h120c33.084 0 60-26.916 60-60v-1.257c42.511-7.163 75-44.228 75-88.743 0-49.626-40.374-90-90-90s-90 40.374-90 90c0 19.41 6.177 37.403 16.667 52.12 22.22-22.22 40.493-40.492 62.727-62.727l21.213 21.213c-6.717 6.717-54.337 54.337-62.727 62.727 10.842 7.728 23.466 13.104 37.12 15.405v1.262c0 16.542-13.458 30-30 30h-120c-33.084 0-60 26.916-60 60s26.916 60 60 60h15v30h-90c-16.542 0-30-13.458-30-30v-122.531c22.498-6.524 40.33-25.133 45.099-48.98l8.545-42.728c7.599-37.995-16.355-74.935-53.644-83.796v-31.965h-30v31.274c-37.965 7.179-63.268 43.054-57.567 81.061l6.464 43.092c3.979 26.528 24.181 48.117 51.104 53.373v121.2c0 33.084 26.916 60 60 60h91.899c6.677 25.849 30.195 45 58.101 45h15c0-41.355 33.645-75 75-75s75 33.645 75 75h15c33.084 0 60-26.916 60-60v-105z"/></g></g></svg>