<svg id="Capa_1" enable-background="new 0 0 512 512" height="512" viewBox="0 0 512 512" width="512" xmlns="http://www.w3.org/2000/svg"><g><path d="m165 210c-24.404 0-45 13.74-45 30v150c0 16.538 13.447 30 30 30 14.268 0 26.66-10.137 29.443-24.111 31.009-156.84 30.557-152.311 30.557-155.889 0-16.26-20.596-30-45-30z"/><path d="m210 90h92v30h-92z"/><path d="m347 210c-24.404 0-45 13.74-45 30 0 3.791 1.407 8.45 30.557 155.889 2.783 13.974 15.175 24.111 29.443 24.111 16.553 0 30-13.462 30-30v-150c0-16.26-20.596-30-45-30z"/><path d="m377 0h-242c-74.443 0-135 60.557-135 135v377h512v-377c0-74.443-60.557-135-135-135zm-197 60h152v90h-152zm-90 0h60v30h-60zm0 60h60v30h-60zm118.857 281.748c-5.566 27.964-30.322 48.252-58.857 48.252-33.076 0-60-26.909-60-60v-150c0-33.091 33.633-60 75-60s75 26.909 75 60c0 8.806.356 1.394-31.143 161.748zm213.143-11.748c0 33.091-26.924 60-60 60-28.535 0-53.291-20.288-58.857-48.252v-.015c-31.575-160.722-31.143-153.073-31.143-161.733 0-33.091 33.633-60 75-60s75 26.909 75 60zm0-240h-60v-30h60zm0-60h-60v-30h60z"/></g></svg>