<svg id="Capa_1" enable-background="new 0 0 512 512" height="512" viewBox="0 0 512 512" width="512" xmlns="http://www.w3.org/2000/svg"><g><path d="m271.569 311.697c-1.001-7.698-7.6-13.663-15.567-13.663s-14.566 5.966-15.567 13.663l15.567 11.553z"/><path d="m442.864 0c-35.173 0-69.008 16.619-90.509 44.455l-9.777 12.658c20.404 9.075 39.422 21.379 56.302 36.645l-20.118 22.244c-33.692-30.471-77.29-47.252-122.761-47.252s-89.07 16.783-122.765 47.256l-20.118-22.244c16.88-15.267 35.899-27.572 56.303-36.647l-9.778-12.659c-21.499-27.837-55.334-44.456-90.507-44.456h-26.213l.004 298.925c0 117.49 95.585 213.075 213.074 213.075 117.49 0 213.076-95.585 213.076-213.075v-298.925zm-147.313 191.411h29.992v37.648h-29.992zm-109.091 0h29.992v37.648h-29.992zm172.906 151.534c0 22.06-12.193 41.315-30.187 51.412-11.141 30.429-40.15 51.059-73.178 51.059s-62.037-20.629-73.178-51.059c-17.994-10.097-30.187-29.352-30.187-51.412v-20.55h29.992v20.55c0 15.951 12.977 28.928 28.929 28.928 15.34 0 27.923-12.003 28.866-27.11l-30.113-19.968v-11.064c0-25.194 20.497-45.69 45.69-45.69s45.69 20.496 45.69 45.69v11.064l-31.099 20.623c1.26 14.797 13.698 26.455 28.816 26.455h1.037c15.952 0 28.929-12.977 28.929-28.928v-20.55h29.992v20.55z"/><path d="m255.483 382.162c-8.665 9.694-20.481 16.503-33.823 18.819 8.796 9.002 21.037 14.442 34.342 14.442 13.227 0 25.405-5.375 34.189-14.284-13.707-2.163-25.852-9.069-34.708-18.977z"/></g></svg>