<svg id="Capa_1" enable-background="new 0 0 512.002 512.002" height="512" viewBox="0 0 512.002 512.002" width="512" xmlns="http://www.w3.org/2000/svg"><g><path d="m31.322 292.014c-11.92-9.85-22.47-21.31-31.32-34.04v91.99c0 62.45 41.55 115.38 98.46 132.6l-67.13-190.55z"/><path d="m138.512 330.594c-23.65 0-46.19-4.9-66.63-13.74l60.42 171.47c31.113 1.486 61.561-7.971 85.45-24.83l-47.86-135.83c-10.17 1.92-20.66 2.93-31.38 2.93z"/><path d="m198.812 319.444 43.16 122.51c21.79-24.48 35.04-56.72 35.04-91.99v-91.99c-19.17 27.6-46.37 49.23-78.2 61.47z"/><path d="m498.252 102.514 13.75-31.31-13.75-31.31 7.16-16.31h-271.02c49.046 33.344 79.232 95.457 71.51 157.87h199.51l-7.16-16.32 13.75-31.31z"/><path d="m151.552 24.194c-80.543-8.003-151.998 56.9-151.55 137.89 6.26 176.721 255.787 186.473 276.52 11.71l.49.59c5.512-75.903-50.315-143.583-125.46-150.19zm-13.04 210.15c-39.85 0-72.26-32.41-72.26-72.26 3.969-95.862 140.559-95.835 144.52.001 0 39.849-32.42 72.259-72.26 72.259z"/><path d="m138.512 119.824c-23.31 0-42.26 18.96-42.26 42.26 2.31 56.065 82.212 56.049 84.52 0 0-23.3-18.96-42.26-42.26-42.26z"/></g></svg>