<svg id="Capa_1" enable-background="new 0 0 498.198 498.198" height="512" viewBox="0 0 498.198 498.198" width="512" xmlns="http://www.w3.org/2000/svg"><g><path d="m12.064 373.683h134.902v90h-134.902z" transform="matrix(.707 -.707 .707 .707 -272.764 178.855)"/><path d="m141.377 293.181-24.774 24.774 63.64 63.64 24.774-24.774c-25.507-16.384-47.256-38.133-63.64-63.64z"/><path d="m373.308 141.494c-8.647-8.645-22.714-8.645-31.36 0l-23.75 23.75-23.749-23.75c-8.647-8.645-22.714-8.645-31.36 0-8.592 8.593-8.646 22.54-.159 31.199l55.269 51.568 55.269-51.568c8.486-8.659 8.432-22.606-.16-31.199z"/><path d="m498.198 180c0-99.253-80.748-180-180-180s-180 80.747-180 180c0 99.252 80.748 180 180 180s180-80.748 180-180zm-104.051 14.428-75.949 70.864-76.323-71.225c-20.343-20.343-20.343-53.443 0-73.786 20.343-20.344 53.443-20.344 73.786 0l2.537 2.536 2.537-2.536c20.343-20.344 53.443-20.344 73.786 0 20.343 20.343 20.343 53.443 0 73.786z"/></g></svg>