<svg id="Capa_1" enable-background="new 0 0 512 512" height="512" viewBox="0 0 512 512" width="512" xmlns="http://www.w3.org/2000/svg"><path d="m437 181h-15v-30h-15c-8.276 0-15-6.724-15-15v-15h-272v15c0 8.276-6.724 15-15 15h-15v30h-15c-41.353 0-75 33.647-75 75s33.647 75 75 75h15v30h15c8.276 0 15 6.724 15 15v15h272v-15c0-8.276 6.724-15 15-15h15v-30h15c41.353 0 75-33.647 75-75s-33.647-75-75-75zm-362 120c-24.814 0-45-20.186-45-45s20.186-45 45-45h15v90zm106-120h150v30h-150zm150 150h-150v-30h150zm31-60h-212v-30h212zm75 30h-15v-90h15c24.814 0 45 20.186 45 45s-20.186 45-45 45z"/></svg>