<svg id="Capa_1" enable-background="new 0 0 508.948 508.948" height="512" viewBox="0 0 508.948 508.948" width="512" xmlns="http://www.w3.org/2000/svg"><g id="XMLID_1017_"><path id="XMLID_1018_" d="m393.807 312.209-.026-.15c-5.543-30.352-18.214-58.301-37.05-82.111h-116.686v106.225h-30v-106.225h-57.828c-18.836 23.809-31.507 51.759-37.05 82.111l-33.89 196.889h346.393z"/><path id="XMLID_1019_" d="m348.554 199.948 6.96-27.995c7.51-30.204 11.322-51.203 11.322-82.154v-89.799h-30v44.412h-10.551c-29.031 0-56.064 15.484-70.767 40.472l-.797-1.299c-14.823-24.163-41.641-39.173-69.987-39.173h-12.623v-44.412h-30v89.799c0 30.951 3.812 51.95 11.322 82.154l6.96 27.995z"/></g></svg>