<svg id="Capa_1" enable-background="new 0 0 512 512" height="512" viewBox="0 0 512 512" width="512" xmlns="http://www.w3.org/2000/svg"><g><g><path d="m206.804 189.214-16.717-43.937-109.603-65.478-80.484 27.135v405.066h197.426l-45.956-253.547z"/><path d="m412.674 302.048h99.326v-195.114l-80.499-27.14-109.324 64.788-16.981 44.632 55.061 68.896-42.651 253.89h194.394v-179.952h-99.326z"/><path d="m256 87.541-38.364 45.78 16.576 43.565h43.576l16.389-43.074z"/><path d="m280.916 206.886h-49.832l-47.261 59.136 44.098 245.978h59.265l41.264-245.636z"/><path d="m231.749 69.547-95.938-63.196-30.214 53.505 89.467 53.448z"/><path d="m279.996 69.715 36.005 43.655 90.377-53.559-30.189-53.46z"/></g><g><path d="m331.295 0h-150.589l75.294 49.598z"/></g></g></svg>