<svg id="Capa_1" enable-background="new 0 0 512 512" height="512" viewBox="0 0 512 512" width="512" xmlns="http://www.w3.org/2000/svg"><g><path d="m182.1 440.184c0-16.641 10.358-39.357 31.667-69.445 14.742-20.818 41.148-50.859 41.148-50.859s26.406 30.041 41.148 50.859c21.309 30.088 31.667 52.804 31.667 69.445 0 2.256-.12 4.484-.322 6.688 9.62-13.959 15.262-30.861 15.262-49.059 0-11.306-6.232-39.079-47.972-98.063-14.444-20.412-29.028-38.671-38.699-50.374-9.671 11.703-24.254 29.962-38.699 50.374-41.74 58.984-47.972 86.757-47.972 98.063 0 16.618 4.705 32.156 12.848 45.359-.04-.992-.076-1.985-.076-2.988z"/><path d="m337.595 482c33.713-17.36 60.48-45.677 76.118-80.85 17.239-38.779 19.491-82.478 6.34-123.046-26.598-82.046-9.332-135.756-9.176-136.227l6.688-19.543h-20.613c-20.965 0-40.112 8.203-54.446 21.493-6.713-37.661-20.489-66.682-33.113-86.77-21.18-33.704-52.926-57.057-52.926-57.057s-32.393 21.337-53.767 54.48c-12.9 20.003-26.995 49.561-33.571 89.225-14.258-13.076-33.186-21.189-53.951-21.372h-20.806l6.751 19.543c.042.123 4.258 12.949 5.429 35.581 1.132 21.87-.484 57.085-14.605 100.646-13.152 40.568-10.9 84.267 6.34 123.046 15.638 35.174 42.405 63.49 76.118 80.85h-174.405v30h512v-30h-174.405zm-198.545-84.186c0-26.889 17.562-64.759 53.69-115.772 25.62-36.177 63.26-79.012 63.26-79.012s37.639 42.835 63.26 79.012c36.128 51.013 53.69 88.883 53.69 115.772 0 33.034-13.778 62.9-35.876 84.186h-72.986c19.214-4.212 33.643-21.356 33.643-41.816 0-15.233-22.35-48.807-42.812-74.271-20.464 25.48-42.819 59.066-42.819 74.271 0 20.46 14.429 37.604 33.643 41.816h-70.816c-22.099-21.286-35.877-51.153-35.877-84.186z"/></g></svg>