<?xml version="1.0" encoding="iso-8859-1"?>
<!-- Generator: Adobe Illustrator 19.0.0, SVG Export Plug-In . SVG Version: 6.00 Build 0)  -->
<svg xmlns="http://www.w3.org/2000/svg" xmlns:xlink="http://www.w3.org/1999/xlink" version="1.1" id="Layer_1" x="0px" y="0px" viewBox="0 0 512 512" style="enable-background:new 0 0 512 512;" xml:space="preserve">
<g>
	<g>
		<path d="M272.696,317.217c0-9.206-7.49-16.696-16.696-16.696s-16.696,7.49-16.696,16.696c0,39.9-21.107,74.957-52.738,94.609    h138.867C293.802,392.174,272.696,357.118,272.696,317.217z"/>
	</g>
</g>
<g>
	<g>
		<path d="M342.261,100.174H169.739c-32.013,0-58.751,22.53-65.258,52.596c7.584-1.638,15.451-2.509,23.519-2.509h256    c8.067,0,15.934,0.87,23.519,2.509C401.012,122.704,374.274,100.174,342.261,100.174z"/>
	</g>
</g>
<g>
	<g>
		<path d="M0,244.87v33.391h16.696v-16.696c0-5.674,0.43-11.247,1.252-16.696H0z"/>
	</g>
</g>
<g>
	<g>
		<path d="M494.052,244.87c0.823,5.448,1.252,11.021,1.252,16.696v16.696H512V244.87H494.052z"/>
	</g>
</g>
<g>
	<g>
		<path d="M384,183.652H272.696v86.35c19.433,6.892,33.391,25.45,33.391,47.215c0,42.961,34.952,77.913,77.913,77.913    s77.913-34.952,77.913-77.913v-55.652C461.913,218.604,426.961,183.652,384,183.652z"/>
	</g>
</g>
<g>
	<g>
		<path d="M128,183.652c-42.961,0-77.913,34.952-77.913,77.913v55.652c0,42.961,34.952,77.913,77.913,77.913    s77.913-34.952,77.913-77.913c0-21.766,13.959-40.323,33.391-47.215v-86.35H128z"/>
	</g>
</g>
<g>
</g>
<g>
</g>
<g>
</g>
<g>
</g>
<g>
</g>
<g>
</g>
<g>
</g>
<g>
</g>
<g>
</g>
<g>
</g>
<g>
</g>
<g>
</g>
<g>
</g>
<g>
</g>
<g>
</g>
</svg>
