<?xml version="1.0" encoding="iso-8859-1"?>
<!-- Generator: Adobe Illustrator 19.0.0, SVG Export Plug-In . SVG Version: 6.00 Build 0)  -->
<svg xmlns="http://www.w3.org/2000/svg" xmlns:xlink="http://www.w3.org/1999/xlink" version="1.1" id="Capa_1" x="0px" y="0px" viewBox="0 0 512 512" style="enable-background:new 0 0 512 512;" xml:space="preserve">
<g>
	<g>
		<path d="M256,172.049l-29.061,25.029c8.996,14.74,17.339,23.858,18.066,24.641L256,233.567l10.995-11.849    c0.727-0.783,9.07-9.901,18.066-24.641L256,172.049z"/>
	</g>
</g>
<g>
	<g>
		<path d="M300.252,110.873l6.03-11.37l-1.267-5.464c-7.469-32.2-25.837-57.449-34.016-67.494V0h-30v26.546    c-8.179,10.045-26.546,35.294-34.016,67.494l-1.267,5.464l6.03,11.37l-8.125,12.226l0.273,4.971    c0.814,14.953,4.458,28.923,9.259,41.288L256,132.455l42.848,36.904c4.8-12.364,8.444-26.334,9.258-41.288l0.271-4.972    L300.252,110.873z"/>
	</g>
</g>
<g>
	<g>
		<path d="M231.809,229.337c-0.315-1.021-4.04-12.805-12.307-27.966l-36.206,12.653l7.145,37.682    c17.263-0.421,29.331-3.087,30.373-3.325l15.759-3.598L231.809,229.337z"/>
	</g>
</g>
<g>
	<g>
		<path d="M202.392,175.573c-8.308-10.34-18.584-20.48-31.127-28.662l-4.17-2.72l-14.65,0.924l-6.832-10.907l-5.365-1.635    c-31.62-9.631-62.67-6.35-75.459-4.289l-22.99-13.273l-15,25.981l22.99,13.273c4.608,12.104,17.29,40.635,41.442,63.204    l4.099,3.829l12.862,0.463l6.525,13.149l4.441,2.252c13.357,6.772,27.277,10.601,40.386,12.626l-10.536-55.559L202.392,175.573z"/>
	</g>
</g>
<g>
	<g>
		<path d="M220.814,263.619c-1.042-0.238-13.11-2.904-30.373-3.325l-7.145,37.682l36.206,12.653    c8.267-15.161,11.992-26.945,12.307-27.966l4.764-15.446L220.814,263.619z"/>
	</g>
</g>
<g>
	<g>
		<path d="M149.006,317.773l10.537-55.56c-13.108,2.025-27.029,5.854-40.385,12.626l-4.441,2.251l-6.525,13.149l-12.862,0.463    l-4.099,3.829c-24.151,22.569-36.834,51.1-41.444,63.205l-22.99,13.273l15,25.981l22.99-13.273    c12.789,2.061,43.839,5.343,75.459-4.289l5.365-1.635l6.832-10.907l14.65,0.924l4.17-2.72    c12.543-8.181,22.819-18.322,31.127-28.662L149.006,317.773z"/>
	</g>
</g>
<g>
	<g>
		<path d="M266.995,290.282L256,278.433l-10.995,11.849c-0.727,0.783-9.07,9.901-18.066,24.641L256,339.951l29.061-25.028    C276.065,300.183,267.722,291.065,266.995,290.282z"/>
	</g>
</g>
<g>
	<g>
		<path d="M308.379,388.9l-0.273-4.971c-0.814-14.953-4.458-28.923-9.259-41.288L256,379.545l-42.848-36.904    c-4.8,12.364-8.444,26.334-9.258,41.288l-0.271,4.972l8.125,12.226l-6.03,11.37l1.267,5.464    c7.469,32.2,25.837,57.449,34.016,67.494V512h30v-26.546c8.179-10.045,26.546-35.294,34.016-67.494l1.267-5.464l-6.03-11.37    L308.379,388.9z"/>
	</g>
</g>
<g>
	<g>
		<path d="M321.559,260.294c-17.263,0.421-29.331,3.087-30.373,3.325l-15.759,3.598l4.764,15.446    c0.315,1.021,4.04,12.805,12.307,27.966l36.206-12.653L321.559,260.294z"/>
	</g>
</g>
<g>
	<g>
		<path d="M462.211,357.736c-4.608-12.105-17.29-40.636-41.442-63.205l-4.099-3.829l-12.862-0.463l-6.525-13.149l-4.441-2.251    c-13.357-6.772-27.277-10.601-40.386-12.626l10.536,55.559l-53.384,18.656c8.308,10.34,18.584,20.48,31.127,28.662l4.17,2.72    l14.65-0.924l6.832,10.907l5.365,1.635c31.62,9.631,62.67,6.349,75.459,4.289l22.99,13.273l15-25.981L462.211,357.736z"/>
	</g>
</g>
<g>
	<g>
		<path d="M292.498,201.371c-8.267,15.161-11.992,26.945-12.307,27.966l-4.764,15.446l15.759,3.598    c1.042,0.238,13.11,2.904,30.373,3.325l7.145-37.682L292.498,201.371z"/>
	</g>
</g>
<g>
	<g>
		<path d="M470.203,115.009l-22.99,13.273c-12.789-2.061-43.839-5.343-75.459,4.289l-5.365,1.635l-6.832,10.907l-14.65-0.924    l-4.17,2.72c-12.543,8.181-22.819,18.322-31.127,28.662l53.384,18.655l-10.537,55.561c13.108-2.025,27.029-5.854,40.385-12.626    l4.441-2.252l6.525-13.149l12.862-0.463l4.099-3.829c24.151-22.569,36.834-51.1,41.444-63.205l22.99-13.273L470.203,115.009z"/>
	</g>
</g>
<g>
	<g>
		<circle cx="167.71" cy="103.08" r="15"/>
	</g>
</g>
<g>
	<g>
		<circle cx="79.42" cy="256" r="15"/>
	</g>
</g>
<g>
	<g>
		<circle cx="167.71" cy="408.92" r="15"/>
	</g>
</g>
<g>
	<g>
		<circle cx="344.29" cy="408.92" r="15"/>
	</g>
</g>
<g>
	<g>
		<circle cx="432.58" cy="256" r="15"/>
	</g>
</g>
<g>
	<g>
		<circle cx="344.29" cy="103.08" r="15"/>
	</g>
</g>
<g>
</g>
<g>
</g>
<g>
</g>
<g>
</g>
<g>
</g>
<g>
</g>
<g>
</g>
<g>
</g>
<g>
</g>
<g>
</g>
<g>
</g>
<g>
</g>
<g>
</g>
<g>
</g>
<g>
</g>
</svg>
