<svg id="Capa_1" enable-background="new 0 0 512 512" height="512" viewBox="0 0 512 512" width="512" xmlns="http://www.w3.org/2000/svg"><g><path d="m396.5 123c0-24.4-15.97-45.14-38.01-52.31 5.17-15.49 19.81-26.69 37.01-26.69h16.5c21.5 0 39 17.5 39 39v179h30v-179c0-38.05-30.95-69-69-69h-16.5c-33.51 0-61.52 24.01-67.72 55.73-23.71 6.11-41.28 27.68-41.28 53.27v35h110z"/><path d="m286.94 262c1.56-27.226-21.588-50.283-48.82-48.56 0 0-9.49.53-9.49.53l-4.54-8.36c-28.24-50.92-100.921-45.963-123.35 7.47l-6.63 1.64c-21.468 5.242-36.234 25.196-35.05 47.28z"/><path d="m294 336h95v-44c-11.503 0-85.472 0-95 0z"/><path d="m0 108.412h30v30h-30z"/><path d="m92 71h30v30h-30z"/><path d="m207 71h30v30h-30z"/><path d="m419 292v74h-155c0-21.981 0-52.24 0-74-53.063 0-213.698 0-264 0v36.57c0 63.1 51.33 114.43 114.43 114.43h22.8c-5.108 13.095-13.961 35.8-21.448 55h32.2c7.944-20.374 16.699-42.825 21.448-55h173.14c4.687 12.017 13.483 34.573 21.448 55h32.2c-7.478-19.177-16.288-41.771-21.448-55h22.8c63.1 0 114.43-51.33 114.43-114.43v-36.57z"/></g></svg>