<svg id="Capa_1" enable-background="new 0 0 509.267 509.267" height="512" viewBox="0 0 509.267 509.267" width="512" xmlns="http://www.w3.org/2000/svg"><g id="XMLID_2481_"><path id="XMLID_2482_" d="m120.003 297.011h-45v-56.184l-29.401-18.722v74.906h-45.599v45h120z"/><path id="XMLID_2509_" d="m509.267 262.333-22.807-18.777-34.26 41.21c-34.35-10.16-72.07-2.77-100.18 20.56l-.73.66c-180.243-107.636-165.38-98.761-166.25-99.28l95.928-109.839-22.248-19.611-97.24 110.81-2.5 3.07-66.81-39.46c-25.881-18.185-62.658-13.778-82.715 12.982l357.655 222.818-12.042 14.535-235.068.135v-30h-120v59.865h500.6l-36.884-114.701zm-115.729 139.678 47.49-57.318 18.496 57.318z"/></g></svg>