<svg id="Capa_1" enable-background="new 0 0 511.824 511.824" height="512" viewBox="0 0 511.824 511.824" width="512" xmlns="http://www.w3.org/2000/svg"><g><path d="m157.124 477.468-122.768-122.767c-8.053 4.515-15.435 10.07-21.989 16.624l-12.367 12.367 128.132 128.132 12.367-12.367c6.555-6.554 12.11-13.936 16.625-21.989z"/><path d="m77.383 341.387c-4.101.418-8.113 1.057-12.046 1.869l103.231 103.231c.812-3.933 1.452-7.945 1.869-12.046 2.609-25.604-2.716-52.416-15.405-77.649-25.235-12.689-52.049-18.016-77.649-15.405z"/><path d="m213.835 175.222c-8.053 4.515-15.435 10.07-21.989 16.624-6.554 6.555-12.109 13.936-16.624 21.989l122.768 122.768c8.053-4.515 15.435-10.07 21.989-16.624 6.554-6.555 12.109-13.936 16.624-21.989z"/><path d="m254.962 349.917c4.101-.418 8.113-1.057 12.046-1.869l-103.231-103.232c-.812 3.933-1.452 7.945-1.869 12.046-2.609 25.604 2.716 52.416 15.405 77.649 25.235 12.69 52.047 18.015 77.649 15.406z"/><path d="m434.441 170.438c4.101-.418 8.113-1.057 12.046-1.869l-103.231-103.232c-.812 3.933-1.452 7.945-1.869 12.046-2.609 25.604 2.716 52.416 15.405 77.649 25.234 12.689 52.046 18.013 77.649 15.406z"/><path d="m383.692 0-12.367 12.367c-6.554 6.554-12.109 13.936-16.624 21.989l122.768 122.768c8.053-4.515 15.435-10.07 21.989-16.624l12.367-12.367z"/><path d="m256.862 161.908c-4.101.418-8.113 1.057-12.046 1.869l103.231 103.231c.812-3.933 1.452-7.945 1.869-12.046 2.609-25.604-2.716-52.416-15.405-77.649-25.234-12.689-52.047-18.015-77.649-15.405z"/></g></svg>