<svg id="Capa_1" enable-background="new 0 0 512 512" height="512" viewBox="0 0 512 512" width="512" xmlns="http://www.w3.org/2000/svg"><path d="m481.981 351.424c0 41.611-33.853 75.464-75.464 75.464-29.141 0-52.848-23.708-52.848-52.848 0-19.788 16.099-35.886 35.886-35.886 12.773 0 23.165 10.392 23.165 23.165 0 7.512-6.111 13.624-13.624 13.624v30c24.054 0 43.624-19.569 43.624-43.624 0-16.889-7.925-31.952-20.242-41.698 7.033-6.816 12.606-15.101 16.31-24.483 8.636-21.878 8.235-45.81-1.128-67.386-8.817-20.317-24.591-36.251-44.669-45.252 25.38-5.091 44.5-27.499 44.5-54.378v-38.21h-38.21c-30.633 0-55.467 24.833-55.467 55.467v27.408c-31.372 1.758-55.051 19.731-72.794 39.032v-33.205c0-20.792 16.916-37.708 37.708-37.708v-30c-37.334 0-67.708 30.374-67.708 67.708v72.599l-11.048 15.531c-31.486 40.401-59.356 50.96-96.129 36.446-14.424-5.694-25.768-16.664-31.941-30.89-6.174-14.226-6.438-30.004-.744-44.429 3.903-9.886 11.422-17.661 21.172-21.893 9.75-4.231 20.564-4.412 30.452-.51 13.383 5.283 19.974 20.469 14.691 33.853l27.904 11.015c5.501-13.937 5.246-29.182-.718-42.927-4.763-10.976-12.72-19.937-22.826-25.907 10.257-11.62 16.5-26.862 16.5-43.543 0-16.279-4.739-31.464-12.882-44.284h7.342c30.633 0 55.467-24.833 55.467-55.467v-38.208h-38.21c-30.633 0-55.467 24.833-55.467 55.467v9.475c-11.654-6.266-24.967-9.83-39.099-9.83-58.153 0-105.464 47.311-105.464 105.464h30c0-41.611 33.853-75.464 75.464-75.464 29.141 0 52.848 23.708 52.848 52.848 0 19.788-16.099 35.886-35.886 35.886-12.773 0-23.165-10.392-23.165-23.165 0-7.512 6.111-13.624 13.624-13.624v-30c-24.054 0-43.624 19.569-43.624 43.624 0 16.897 7.933 31.967 20.261 41.712-7.023 6.812-12.589 15.09-16.289 24.463-8.636 21.878-8.235 45.81 1.128 67.386 8.818 20.32 24.595 36.256 44.677 45.257-25.384 5.088-44.508 27.498-44.508 54.379v38.21h38.21c30.633 0 55.467-24.833 55.467-55.467v-27.421c39.664-2.222 67.02-30.36 85.625-54.295l28.137-39.552c31.521-40.489 59.409-51.074 96.209-36.549 14.424 5.694 25.768 16.664 31.941 30.89 10.031 23.113 4.589 55.465-20.428 66.322-21.404 9.288-56.073-5.651-45.143-33.344l-27.904-11.015c-10.238 25.938.275 55.019 23.525 68.817-10.269 11.622-16.52 26.874-16.52 43.566 0 16.279 4.739 31.464 12.882 44.284h-7.303c-30.633 0-55.467 24.833-55.467 55.467v38.209h38.21c30.633 0 55.467-24.833 55.467-55.467v-9.455c11.645 6.253 24.943 9.81 39.06 9.81 58.153 0 105.464-47.311 105.464-105.464z"/></svg>