<svg id="Capa_1" enable-background="new 0 0 512 512" height="512" viewBox="0 0 512 512" width="512" xmlns="http://www.w3.org/2000/svg"><g><g id="Love_Letter_1_"><g><path d="m195 366.526-174.56 145.474h349.118z"/><path d="m0 489.965 81.561-67.963-81.561-67.969z"/><path d="m308.439 422.004 81.561 67.965v-135.938z"/></g><g><path d="m376 158.211 40.605-40.605c5.845-5.845 5.845-15.366 0-21.211-5.859-5.859-15.352-5.859-21.211 0l-19.394 19.394-19.395-19.395c-5.838-5.838-15.367-5.844-21.211 0-5.845 5.845-5.845 15.366 0 21.211z"/></g></g><g><path d="m210 159.985-14.985-12.511-195.015 162.495v4.991l105.004 87.506 89.996-74.992 15 12.5z"/><path d="m236.431 362 48.564 40.468 48.559-40.468z"/></g><path d="m240 0v332h272v-332zm74.184 75.184c16.962-16.934 44.165-17.505 61.816-1.729 17.651-15.776 44.883-15.205 61.816 1.729 17.549 17.549 17.549 46.084 0 63.633l-61.816 61.816-61.816-61.816c-17.549-17.549-17.549-46.085 0-63.633zm136.816 196.816h-150v-30h150z"/></g></svg>