<svg id="Layer_1" enable-background="new 0 0 510 510" height="512" viewBox="0 0 510 510" width="512" xmlns="http://www.w3.org/2000/svg"><g><path d="m135 405h30v30h-30v75h75v-180h-75z"/><path d="m315 330h90v90h-90z"/><path d="m30 300h210v210h240v-300h-450zm405 150h-150v-150h150zm-345-210h330v30h-330z"/><path d="m30 510h75v-75h-30v-30h30v-75h-75z"/><path d="m0 0v180h510v-180zm180 135h-120v-30h120zm0-60h-120v-30h120zm120 30h-30v30h-30v-30h-30v-30h30v-30h30v30h30zm150 30h-120v-30h120zm0-60h-120v-30h120z"/></g></svg>