<svg id="Capa_1" enable-background="new 0 0 512 512" height="512" viewBox="0 0 512 512" width="512" xmlns="http://www.w3.org/2000/svg"><g><path d="m307.34 283.677-4.267-88.432h-94.173l-4.271 88.432c-.384 4.999-.023 10.013 1.073 14.908 2.5 11.169 8.797 21.26 17.73 28.414s20.156 11.094 31.601 11.094h1.904c11.445 0 22.667-3.94 31.601-11.094 8.933-7.155 15.23-17.246 17.73-28.415 1.095-4.893 1.455-9.908 1.072-14.907z"/><path d="m103.637 314.209c-57.237 0-103.637 46.4-103.637 103.637v6.503c0 16.322 13.232 29.553 29.553 29.553 16.322 0 29.553-13.232 29.553-29.553v-16.974h30.014v104.625h28.753v-104.625h30.014.28v16.974c0 16.322 13.232 29.553 29.553 29.553 16.322 0 29.553-13.232 29.553-29.553v-6.503c.001-57.237-46.399-103.637-103.636-103.637z"/><path d="m408.363 314.209c-57.237 0-103.637 46.4-103.637 103.637v6.503c0 16.322 13.232 29.553 29.553 29.553 16.322 0 29.553-13.232 29.553-29.553v-16.974h30.014v104.625h28.753v-104.625h30.014.28v16.974c0 16.322 13.232 29.553 29.553 29.553 16.322 0 29.553-13.232 29.553-29.553v-6.503c.001-57.237-46.399-103.637-103.636-103.637z"/><path d="m327.975 126.088c0-10.214-8.31-18.523-18.524-18.523s-18.523 8.31-18.523 18.523c0 10.214 8.31 18.523 18.523 18.523 10.215 0 18.524-8.309 18.524-18.523z"/><path d="m260.914 126.088c0-26.763 21.774-48.537 48.537-48.537 26.764 0 48.538 21.774 48.538 48.537 0 16.678-8.458 31.416-21.307 40.157h38.015c18.042 0 32.721-14.679 32.721-32.721-.001-73.626-59.899-133.524-133.525-133.524h-35.786c-16.47 0-32.248 3.005-46.827 8.483 26.058.812 47.009 22.247 47.009 48.498 0 26.763-21.774 48.537-48.538 48.537-26.763 0-48.537-21.774-48.537-48.537 0-6.846 1.432-13.361 4.001-19.273-25.041 24.284-40.632 58.261-40.632 95.816 0 18.042 14.679 32.721 32.721 32.721h144.918c-12.85-8.741-21.308-23.479-21.308-40.157z"/><path d="m189.751 75.504c10.214 0 18.524-8.31 18.524-18.523s-8.31-18.523-18.524-18.523-18.523 8.31-18.523 18.523 8.309 18.523 18.523 18.523z"/></g></svg>