<svg id="Capa_1" enable-background="new 0 0 512 512" height="512" viewBox="0 0 512 512" width="512" xmlns="http://www.w3.org/2000/svg"><g><path d="m0 0h120v62h-120z"/><path d="m0 512h120v-60h-60v-30h60v-30h-60v-30h60v-30h-60v-30h60v-30h-60v-30h60v-30h-60v-30h60v-30h-60v-30h60v-30h-120z"/><path d="m512 62h-392v30h308.789l-49.394 49.395 21.21 21.21 19.395-19.394v311.367l-19.395-19.394-21.21 21.211 55.605 55.605 55.605-55.605-21.21-21.211-19.395 19.394v-311.367l19.395 19.394 21.21-21.21-49.394-49.395h70.789z"/><circle cx="255" cy="137" r="45"/><path d="m180 362h30v150h90v-150h30v-180h-150z"/></g></svg>