<svg id="Capa_1" enable-background="new 0 0 512 512" height="512" viewBox="0 0 512 512" width="512" xmlns="http://www.w3.org/2000/svg"><g><path d="m324.911 54.266c-7.507-31.092-35.545-54.266-68.911-54.266s-61.404 23.174-68.911 54.266c21.628-7.399 44.808-11.421 68.911-11.421s47.283 4.023 68.911 11.421z"/><path d="m187.222 458.31c7.712 30.804 35.618 53.69 68.778 53.69s61.066-22.886 68.778-53.69c-21.59 7.369-44.725 11.374-68.778 11.374s-47.188-4.005-68.778-11.374z"/><path d="m458.124 324.821c30.897-7.646 53.876-35.595 53.876-68.821 0-33.298-23.08-61.294-54.079-68.868 7.447 21.692 11.499 44.947 11.499 69.133 0 23.97-3.975 47.03-11.296 68.556z"/><path d="m54.079 187.132c-30.999 7.574-54.079 35.57-54.079 68.868 0 33.226 22.979 61.175 53.876 68.821-7.321-21.526-11.295-44.586-11.295-68.556-.001-24.186 4.051-47.441 11.498-69.133z"/><path d="m447.431 161.99c16.615-27.284 13.155-63.443-10.412-87.01-23.601-23.601-59.831-27.035-87.129-10.338 42.254 20.788 76.671 55.142 97.541 97.348z"/><path d="m64.422 350.245c-16.451 27.256-12.94 63.276 10.558 86.775 23.465 23.465 59.415 27.001 86.657 10.632-42.135-20.86-76.437-55.224-97.215-97.407z"/><path d="m350.362 447.651c27.242 16.369 63.192 12.832 86.657-10.632 23.499-23.499 27.01-59.519 10.558-86.775-20.777 42.184-55.079 76.548-97.215 97.407z"/><path d="m162.109 64.643c-27.298-16.698-63.527-13.264-87.129 10.338-23.567 23.567-27.027 59.726-10.412 87.01 20.871-42.207 55.288-76.561 97.541-97.348z"/><path d="m146.211 345.866c-16.794-20.54-27.945-45.86-31.077-73.576h-42.85c3.412 39.448 19.29 75.381 43.673 103.83z"/><path d="m271 115.281c28.118 2.97 53.808 14.193 74.602 31.195l30.254-30.254c-28.696-24.594-65.005-40.541-104.856-43.764z"/><path d="m166.398 146.476c20.794-17.002 46.484-28.224 74.602-31.195v-42.823c-39.851 3.223-76.16 19.17-104.855 43.764z"/><circle cx="256" cy="256.265" r="111.777"/><path d="m344.466 366.969c-20.591 16.488-45.857 27.363-73.466 30.28v42.823c39.34-3.182 75.225-18.765 103.744-42.824z"/><path d="m396.866 272.29c-3.133 27.716-14.283 53.036-31.077 73.576l30.254 30.254c24.383-28.448 40.261-64.382 43.673-103.83z"/><path d="m396.982 137.521-30.278 30.278c16.692 20.845 27.631 46.483 30.384 74.491h42.805c-2.991-39.742-18.642-76.002-42.911-104.769z"/><path d="m241 397.248c-27.609-2.917-52.875-13.792-73.466-30.28l-30.278 30.278c28.519 24.059 64.404 39.642 103.744 42.824z"/><path d="m114.911 242.29c2.753-28.009 13.693-53.646 30.384-74.491l-30.278-30.278c-24.268 28.767-39.919 65.027-42.911 104.77h42.805z"/></g></svg>