<svg id="Capa_1" enable-background="new 0 0 512 512" height="512" viewBox="0 0 512 512" width="512" xmlns="http://www.w3.org/2000/svg"><g><path d="m271 315c0-5.284 1.082-10.285 2.763-15h-77.763c-8.262 0-15 6.724-15 15s6.738 15 15 15h77.763c-1.681-4.715-2.763-9.716-2.763-15z"/><circle cx="196" cy="195" r="15"/><circle cx="316" cy="315" r="15"/><path d="m316 180h-77.763c1.681 4.715 2.763 9.716 2.763 15s-1.082 10.285-2.763 15h77.763c8.262 0 15-6.724 15-15s-6.738-15-15-15z"/><path d="m376 0h-240c-24.814 0-45 20.186-45 45v422c0 24.814 20.186 45 45 45h240c24.814 0 45-20.186 45-45v-422c0-24.814-20.186-45-45-45zm-165 60h90v30h-90zm60 392h-30v-30h30zm45-92h-120c-24.814 0-45-20.186-45-45s20.186-45 45-45h120c24.814 0 45 20.186 45 45s-20.186 45-45 45zm0-120h-120c-24.814 0-45-20.186-45-45s20.186-45 45-45h120c24.814 0 45 20.186 45 45s-20.186 45-45 45z"/></g></svg>