<svg id="Capa_1" enable-background="new 0 0 512 512" height="512" viewBox="0 0 512 512" width="512" xmlns="http://www.w3.org/2000/svg"><g><path d="m421 285c0-90.981-74.019-165-165-165s-165 74.019-165 165v62c0 90.981 74.019 165 165 165s165-74.019 165-165zm-150-104h30v30h-30zm0 120v30h-30v-30zm-60-120h30v30h-30zm-60 60h60v30h-60zm30 90h-30v-30h30zm90 120h-30v-30h30zm30-60h-90v-30h90zm60-60h-30v-30h30zm0-60h-60v-30h60z"/><path d="m256 90c24.489 0 47.844 4.733 69.456 13.011 3.51-8.67 5.544-18.098 5.544-28.011 0-41.353-33.647-75-75-75h-45c-99.258 0-180 80.742-180 180 0 35.885 10.838 70.225 30.282 99.424 2.988-104.928 89.081-189.424 194.718-189.424z"/><path d="m481 180c0-88.702-64.539-162.433-149.092-177.151 17.917 18.842 29.092 44.163 29.092 72.151 0 22.656-7.52 37.997-8.459 41.078 57.078 32.783 96.185 93.367 98.177 163.347 19.444-29.2 30.282-63.54 30.282-99.425z"/></g></svg>