<svg id="Capa_1" enable-background="new 0 0 512 512" height="512" viewBox="0 0 512 512" width="512" xmlns="http://www.w3.org/2000/svg"><g><path d="m455.639 320.095v-128.19c0-7.695-1.027-15.152-2.932-22.254-.528.24-1.058.477-1.596.702-7.06 14.005-18.856 24.916-32.94 31.045v118.697c0 26.872-21.862 48.734-48.734 48.734h-193.791c6.871 10.449 10.885 22.938 10.885 36.352 0 .375-.022.744-.028 1.118h182.932c47.533 0 86.204-38.671 86.204-86.204z"/><path d="m142.164 75.705c-3.623-17.951-19.515-31.511-38.518-31.511-6.295 0-12.319 1.454-17.904 4.32l-7.462 3.831-7.171-4.353c-7.289-4.424-15.678-6.763-24.262-6.763-25.832.002-46.847 21.017-46.847 46.849 0 7.369 1.672 14.433 4.971 20.995l3.293 6.551-3.146 6.623c-3.396 7.148-5.118 14.812-5.118 22.778 0 19.522 10.584 36.61 26.307 45.856.552-63.493 52.278-114.996 115.857-115.176z"/><path d="m391.82 176.905c15.16 0 28.87-9.552 34.116-23.77l2.686-7.281 7.495-2.013c11.932-3.205 20.265-14.083 20.265-26.454 0-15.106-12.29-27.396-27.396-27.396-.642 0-1.363.035-2.271.108l-8.021.652-4.979-6.321c-3.425-4.348-8.551-6.842-14.062-6.842-9.811 0-17.803 7.938-17.89 17.729.003.139.005.275.005.413v8.791l-7.669 4.296c-11.491 6.437-18.63 18.597-18.63 31.736 0 20.045 16.307 36.352 36.351 36.352z"/><path d="m503.735 396.376 3.147-6.624c3.396-7.147 5.117-14.811 5.117-22.778 0-19.55-10.614-36.657-26.374-45.894-.531 63.488-52.229 114.997-115.79 115.213 3.622 17.952 19.515 31.511 38.519 31.511 6.295 0 12.319-1.454 17.903-4.32l7.463-3.831 7.171 4.353c7.289 4.424 15.678 6.763 24.262 6.763 25.831 0 46.847-21.015 46.847-46.847 0-7.37-1.673-14.434-4.971-20.994z"/><path d="m120.18 368.83c-15.16 0-28.871 9.552-34.116 23.77l-2.687 7.281-7.495 2.013c-11.931 3.205-20.264 14.083-20.264 26.454 0 15.106 12.29 27.396 27.396 27.396 7.885 0 15.396-3.413 20.61-9.363l5.104-5.826 7.705.788c1.238.127 2.499.191 3.747.191 20.044 0 36.352-16.307 36.352-36.352s-16.308-36.352-36.352-36.352z"/><path d="m142.498 173.17c-10.33 0-18.734 8.404-18.734 18.734v128.19c0 10.33 8.404 18.734 18.734 18.734h226.938c10.33 0 18.734-8.404 18.734-18.734v-113.294c-23.199-1.265-43.252-14.506-54.096-33.63zm77.867 80.963h-30v-30h30zm101.203 33.734h-30v-30h30z"/><path d="m56.294 191.905v128.19c0 15.974 4.388 30.932 11.997 43.769 7.986-9.98 18.732-17.49 30.843-21.571-3.425-6.663-5.371-14.205-5.371-22.198v-128.19c0-26.872 21.862-48.734 48.734-48.734h183.038c-.034-.87-.066-1.74-.066-2.617 0-12.517 3.547-24.543 9.915-34.852h-192.886c-47.533-.001-86.204 38.67-86.204 86.203z"/></g></svg>