<svg id="Capa_1" enable-background="new 0 0 512 512" height="512" viewBox="0 0 512 512" width="512" xmlns="http://www.w3.org/2000/svg"><g><circle cx="256" cy="256" r="45"/><path d="m437.02 74.98c-48.353-48.351-112.64-74.98-181.02-74.98s-132.667 26.629-181.02 74.98c-48.351 48.353-74.98 112.64-74.98 181.02s26.629 132.667 74.98 181.02c48.353 48.351 112.64 74.98 181.02 74.98s132.667-26.629 181.02-74.98c48.351-48.353 74.98-112.64 74.98-181.02s-26.629-132.667-74.98-181.02zm-45.02 181.02h-30c0-23.826-7.904-45.84-21.225-63.562l-22.233 22.233c7.864 11.859 12.458 26.065 12.458 41.329 0 25.818-13.114 48.629-33.03 62.127l12.044 29.075c7.521-4.481 14.541-9.93 20.9-16.288l21.213 21.213c-25.713 25.712-59.852 39.873-96.127 39.873v-30c8.99 0 17.811-1.122 26.308-3.29l-12.048-29.086c-4.62.892-9.384 1.376-14.26 1.376-15.264 0-29.47-4.594-41.33-12.458l-64.974 64.974c12.715 10.554 27.091 19.259 42.81 25.77l-11.48 27.716c-48.419-20.056-86.102-57.7-106.107-105.996l27.717-11.48c6.507 15.71 15.233 30.082 25.828 42.798l64.994-64.994c-7.864-11.86-12.458-26.066-12.458-41.33 0-4.876.484-9.64 1.377-14.26l-29.059-12.037c-2.15 8.487-3.261 17.304-3.261 26.296h-30c0-13.004 1.816-25.723 5.311-37.874l-27.858-11.538c-4.884 15.786-7.425 32.399-7.425 49.413h-30c0-52.408 20.357-101.628 57.322-138.593l21.213 21.213c-12.024 12.024-21.963 25.585-29.656 40.24l27.862 11.541c6.112-11.086 13.815-21.375 23.007-30.567l21.214 21.213c-6.357 6.357-11.801 13.388-16.276 20.929l29.102 12.055c13.498-19.917 36.309-33.031 62.127-33.031 15.264 0 29.471 4.594 41.33 12.458l22.233-22.233c-17.722-13.321-39.737-21.225-63.563-21.225v-30c32.103 0 61.638 11.188 84.927 29.86l21.309-21.31c-28.808-24.053-65.859-38.55-106.236-38.55v-30c108.075 0 196 87.925 196 196h-30c0-40.377-14.497-77.428-38.551-106.236l-21.309 21.31c18.672 23.288 29.86 52.823 29.86 84.926z"/></g></svg>