<?xml version="1.0" encoding="iso-8859-1"?>
<!-- Generator: Adobe Illustrator 19.0.0, SVG Export Plug-In . SVG Version: 6.00 Build 0)  -->
<svg xmlns="http://www.w3.org/2000/svg" xmlns:xlink="http://www.w3.org/1999/xlink" version="1.1" id="Layer_1" x="0px" y="0px" viewBox="0 0 512 512" style="enable-background:new 0 0 512 512;" xml:space="preserve">
<g>
	<g>
		<polygon points="318.954,461.837 302.597,461.837 209.359,461.837 193.002,461.837 176.644,461.837 176.644,512 335.312,512     335.312,461.837   "/>
	</g>
</g>
<g>
	<g>
		<path d="M255.978,230.651c-7.819,0-14.177,6.358-14.177,14.176c0,7.819,6.358,14.177,14.177,14.177    c7.819,0,14.176-6.358,14.176-14.177C270.155,237.009,263.797,230.651,255.978,230.651z"/>
	</g>
</g>
<g>
	<g>
		<path d="M272.336,1.505v28.004v28.004v143.368c17.819,6.652,30.534,23.838,30.534,43.947c0,25.856-21.036,46.891-46.891,46.891    s-46.891-21.036-46.891-46.891c0-20.109,12.715-37.295,30.534-43.947V56.259V28.135V0L61.499,249.19l104.677,179.932h10.469h8.451    h140.74h9.476h9.498l105.691-179.921L272.336,1.505z"/>
	</g>
</g>
<g>
</g>
<g>
</g>
<g>
</g>
<g>
</g>
<g>
</g>
<g>
</g>
<g>
</g>
<g>
</g>
<g>
</g>
<g>
</g>
<g>
</g>
<g>
</g>
<g>
</g>
<g>
</g>
<g>
</g>
</svg>
