<svg id="Capa_1" enable-background="new 0 0 512 512" height="512" viewBox="0 0 512 512" width="512" xmlns="http://www.w3.org/2000/svg"><g><path d="m1.49 300.976c-.566 4.993-1.49 9.943-1.49 15 0 74.443 60.557 135 135 135 23.467 0 46.816-6.299 67.471-18.193 28.165-16.192 48.856-41.99 59.471-71.807h-96.942v-30h103.998c1.836-16.305.605-13.921 1.002-90h-75v-30h75v-45c0-57.891-47.109-105-105-105-42.686 0-80.742 25.43-96.943 64.731l-10.529 25.269h107.472v30h-119.971c-11.276 27.537-29.221 68.82-36.725 90h96.696v30z"/><path d="m452 251.406v94.57h-30v-107.471l-62-24.987v72.458h-30v-84.952l-30-11.728v126.68c0 52.782-25.624 102.1-67.678 132.867 21.651 3.67 24.982 1.432 97.678 2.133v-75h30v75h47c57.891 0 105-47.109 105-105 0-40.867-23.494-77.296-60-94.57z"/></g></svg>