<svg id="Capa_1" enable-background="new 0 0 512 512" height="512" viewBox="0 0 512 512" width="512" xmlns="http://www.w3.org/2000/svg"><g><path d="m298.292 81v-38.708c0-23.32-18.972-42.292-42.292-42.292-23.32 0-42.292 18.972-42.292 42.292v38.708z"/><path d="m352.036 218.701-9.36-11.701h-34.108v182.766c0 28.986-23.582 52.567-52.568 52.567s-52.568-23.582-52.568-52.567v-182.766h-34.109l-9.36 11.7c-16.528 20.66-25.631 46.609-25.631 73.067v155.233c0 35.841 29.159 65 65 65h113.333c35.841 0 65-29.159 65-65v-155.233c.002-26.458-9.101-52.407-25.629-73.066z"/><path d="m233.432 345.667v44.099c0 12.464 10.104 22.567 22.568 22.567s22.568-10.104 22.568-22.567v-44.099z"/><path d="m233.432 207h45.135v108.666h-45.135z"/><path d="m174.333 111h163.333v66h-163.333z"/></g></svg>