<svg id="Capa_1" enable-background="new 0 0 512 512" height="512" viewBox="0 0 512 512" width="512" xmlns="http://www.w3.org/2000/svg"><g><path d="m340.09 203.324h-168.179c-1.299 5.938-2.004 12.095-2.004 18.417v19.259h172.187v-19.259c0-6.322-.705-12.48-2.004-18.417z"/><path d="m169.907 290.259c0 6.322.704 12.479 2.004 18.417h168.179c1.3-5.938 2.004-12.095 2.004-18.417v-19.259h-172.187z"/><path d="m256 135.647c-29.532 0-55.632 14.951-71.146 37.676h142.292c-15.514-22.724-41.614-37.676-71.146-37.676z"/><path d="m256 376.353c29.532 0 55.632-14.951 71.146-37.677h-142.292c15.514 22.726 41.614 37.677 71.146 37.677z"/><path d="m342.094 19.554v-19.26h-172.187v19.259c0 6.322.704 12.479 2.004 18.417h168.179c1.299-5.937 2.004-12.094 2.004-18.416z"/><path d="m256 105.647c29.532 0 55.632-14.951 71.146-37.677h-142.292c15.514 22.726 41.614 37.677 71.146 37.677z"/><path d="m169.907 492.446v19.259h172.187v-19.259c0-6.322-.704-12.479-2.004-18.417h-168.179c-1.3 5.938-2.004 12.095-2.004 18.417z"/><path d="m256 406.353c-29.532 0-55.632 14.951-71.146 37.676h142.292c-15.514-22.725-41.614-37.676-71.146-37.676z"/><path d="m75.5 83.422h-30v36.34l-45.5 26.27v69.859l45.5 26.269v27.68l-45.5 26.269v69.859l45.5 26.27v36.34h30v-36.34l45.5-26.27v-69.859l-45.5-26.269v-27.68l45.5-26.269v-69.859l-45.5-26.27z"/><path d="m512 221.07-45.5-26.269v-36.34h-30v36.34l-45.5 26.269v69.86l45.5 26.269v36.34h30v-36.34l45.5-26.269z"/></g></svg>