<svg id="Capa_1" enable-background="new 0 0 512 512" height="512" viewBox="0 0 512 512" width="512" xmlns="http://www.w3.org/2000/svg"><g><path d="m341.432 135.53c0-24.882-20.242-45.125-45.124-45.125-24.883 0-45.126 20.243-45.126 45.125v30.125h30v-30.125c0-8.34 6.785-15.125 15.126-15.125 8.34 0 15.124 6.785 15.124 15.125 0 14.108-6.788 27.516-18.158 35.867l-42.092 30.914v38.594h90.25v-30h-51.272l20.872-15.329c19.035-13.98 30.4-36.428 30.4-60.046z"/><path d="m441.568 240.905v-120.375h-30v45.156h-23.586l11.138-67.819-29.603-4.862-16.863 102.681h58.914v45.219z"/><path d="m460.875 150.655v30h20.301c-6.946 62.822-56.978 112.847-119.801 119.792v-20.292h-30v20.291c-62.824-6.945-112.847-56.968-119.791-119.791h20.291v-30h-20.291c6.945-62.823 56.967-112.847 119.791-119.791v20.291h30v-20.305c25.509 2.771 49.29 12.579 69.091 28.305l-14.617-.449-.922 29.985 67.153 2.063-.89-67.249-29.998.397.182 13.706c-9.198-7.552-19.182-14.135-29.746-19.531-23.441-11.975-48.761-18.047-75.253-18.047-91.326 0-165.625 74.299-165.625 165.625s74.299 165.625 165.625 165.625 165.625-74.299 165.625-165.625v-15z"/><path d="m331.25 374.031h60.25v65.249h-60.25z"/><path d="m286.255 439.28h14.995v-65.249h-80.245z"/><path d="m0 374.031h90.375v65.249h-90.375z"/><path d="m105.648 301.34-21.213 21.213 51.478 51.478h-15.538v65.249h80.787l72.69 72.69 21.212-21.213z"/></g></svg>