<svg id="Capa_1" enable-background="new 0 0 512 512" height="512" viewBox="0 0 512 512" width="512" xmlns="http://www.w3.org/2000/svg"><g><path d="m38.594 183.569v135.021c0 10.33 8.404 18.734 18.734 18.734s18.734-8.404 18.734-18.734v-135.021h30v328.431h37.469v-193.411h30v193.411h37.469v-380.9h-119.938c-28.931 0-52.468 23.537-52.468 52.469z"/><path d="m420.938 131.1h-119.938v380.9h37.469v-193.411h30v193.411h37.469v-328.431h30v135.021c0 10.33 8.404 18.734 18.734 18.734s18.734-8.404 18.734-18.734v-135.021c0-28.932-23.537-52.469-52.468-52.469z"/><circle cx="158.531" cy="50" r="50"/><path d="m308.469 100h90c16.568 0 30-13.431 30-30 0-7.731-2.926-14.777-7.728-20.096.003 0-30.147-33.397-30.147-33.397-9.156-10.135-22.396-16.507-37.125-16.507s-27.969 6.372-37.12 16.506c-.005 0-30.155 33.397-30.155 33.397-4.799 5.319-7.725 12.365-7.725 20.096 0 16.57 13.432 30.001 30 30.001z"/><path d="m241 131.1h30v380.9h-30z"/></g></svg>