<svg id="Capa_1" enable-background="new 0 0 512 512" height="512" viewBox="0 0 512 512" width="512" xmlns="http://www.w3.org/2000/svg"><g><path d="m26.27 125.031c21.288-26.62 48.428-47.463 79.53-61.278-25.105-16.72-67.881-41.008-105.8-44.596.601 10.304 1.844 24.869 4.418 40.656 4.535 27.809 12.163 50.17 21.296 65.918.186-.232.371-.469.556-.7z"/><path d="m485.73 125.031c.185.231.37.468.555.7 9.133-15.749 16.762-38.11 21.297-65.918 2.574-15.787 3.817-30.352 4.418-40.656-37.921 3.585-80.697 27.874-105.802 44.595 31.103 13.815 58.243 34.659 79.532 61.279z"/><path d="m508.177 313.376c-17.425-25.213-42.604-47.551-75.072-46.375v-30c30.053 0 58.278 12.178 78.766 33.704-7.767-106.966-75.14-178.268-173.403-196.379v93.339h-30v-98.915c-12-1.8-24.603-3.15-37.468-3.764v136.413h-30v-136.413c-12.865.615-25.468 1.964-37.469 3.764v98.915h-30v-93.339c-98.274 18.126-165.62 89.393-173.402 196.378 20.488-21.525 48.712-33.703 78.765-33.703v30c-32.465-1.18-57.652 21.168-75.07 46.374 47.923 239.293 456.434 239.288 504.353.001zm-395.549-76.375h33.735v30h-33.735zm199.596 208.792c-22.836 0-43.181-10.815-56.224-27.579-38.008 52.952-129.767 22.688-127.447-43.649-.002-38.905 31.364-70.608 70.135-71.193 14.127-44.36 100.506-44.342 114.623 0 92.862 2.969 91.825 140.848-1.087 142.421zm87.147-178.792h-33.734v-30h33.734z"/><path d="m198.73 333.371c-22.248.559-40.178 18.817-40.178 41.198 0 22.731 18.493 41.224 41.224 41.224 22.302 0 40.512-17.805 41.192-39.945-19.609-6.412-35.997-24.362-42.238-42.477z"/><path d="m313.27 333.371c-6.24 18.115-22.629 36.065-42.237 42.476.68 22.14 18.89 39.945 41.191 39.945 22.731 0 41.225-18.493 41.225-41.224-.001-22.379-17.931-40.638-40.179-41.197z"/><path d="m256 348.324c14.569 0 29.979-19.495 29.979-29.979 0-10.505-13.169-18.734-29.979-18.734-16.811 0-29.979 8.229-29.979 18.734 0 10.484 15.41 29.979 29.979 29.979z"/></g></svg>