<svg id="Capa_1" enable-background="new 0 0 512 512" height="512" viewBox="0 0 512 512" width="512" xmlns="http://www.w3.org/2000/svg"><g id="_Communication_2_"><g><path d="m180 225c0-24.814-20.186-45-45-45s-45 20.186-45 45v36.707c14.145 5.043 29.145 8.293 45 8.293s30.855-3.25 45-8.293z"/><circle cx="135" cy="105" r="15"/><path d="m135 0c-74.443 0-134.9 60.557-134.9 135 0 46.701 23.759 87.898 59.9 112.147v-22.147c0-41.353 33.647-75 75-75-24.814 0-45-20.186-45-45s20.186-45 45-45 45 20.186 45 45-20.186 45-45 45c41.353 0 75 33.647 75 75v22.147c36.141-24.249 60-65.446 60-112.147 0-74.443-60.557-135-135-135z"/></g><path d="m180 370.789v-68.789h-180v210h180v-68.789l36.211-36.211zm-60 81.211h-60v-30h60zm0-60h-60v-30h60z"/><g><path d="m422 467c0-24.814-20.186-45-45-45s-45 20.186-45 45v36.707c14.145 5.043 29.145 8.293 45 8.293s30.855-3.25 45-8.293z"/><circle cx="377" cy="347" r="15"/><path d="m377 242c-74.443 0-135 60.557-135 135 0 46.701 23.859 87.898 60 112.147v-22.147c0-41.353 33.647-75 75-75-24.814 0-45-20.186-45-45s20.186-45 45-45 45 20.186 45 45-20.186 45-45 45c41.353 0 75 33.647 75 75v22.147c36.141-24.249 60-65.446 60-112.147 0-74.443-60.557-135-135-135z"/></g><path d="m332 0v68.789l-36.211 36.211 36.211 36.211v68.789h180v-210zm120 150h-60v-30h60zm0-60h-60v-30h60z"/></g></svg>