<svg id="Capa_1" enable-background="new 0 0 512 512" height="512" viewBox="0 0 512 512" width="512" xmlns="http://www.w3.org/2000/svg"><g><path d="m195 282.75h122v-83h113v28.83c10.64-9.52 23.55-16.53 37.81-20.12l-9.31-54.94c-5.57-32.89-33.84-56.77-67.2-56.77h-270.6c-33.36 0-61.63 23.88-67.2 56.78l-9.3 54.94c14.26 3.58 27.17 10.6 37.8 20.11v-28.83h113z"/><path d="m112 363.25h129c0-8.71 0-41.988 0-50.5h-129z"/><path d="m271 363.25h129c0-8.71 0-41.988 0-50.5h-129z"/><path d="m62.65 251.52c-10.738-9.965-25.445-15.841-40.38-15.77-2.809 0-19.108 0-22.27 0v179.5h30c0-15.288 0-36.797 0-52h52c0-9.147 0-67.77 0-67.77.089-16.668-7.241-32.957-19.35-43.96z"/><path d="m492.23 235.75c-28.49-1.375-55.095 19.134-60.86 47-1.32 5.521-1.459 11.84-1.37 17.63v62.87h52v52h30c0-35.664 0-142.52 0-179.5z"/><path d="m112 229.75h53v53h-53z"/><path d="m347 229.75h53v53h-53z"/></g></svg>