<svg id="Capa_1" enable-background="new 0 0 512 512" height="512" viewBox="0 0 512 512" width="512" xmlns="http://www.w3.org/2000/svg"><g><path d="m230.294 362.255c-1.456-1.408-2.997-2.9-4.618-4.521l-126.225-126.226c-3.539-3.539-8.244-5.487-13.248-5.487s-9.708 1.949-13.247 5.487c-3.539 3.539-5.488 8.243-5.488 13.248 0 5.004 1.949 9.708 5.487 13.247l126.186 126.187-21.213 21.213-126.185-126.188c-9.205-9.204-14.274-21.442-14.274-34.46 0-.188.012-.375.014-.563-.014 0-.014-157.99-.014-157.99 0-10.33-8.404-18.734-18.734-18.734s-18.735 8.405-18.735 18.735v219.25l101.203 132.127v74.42h139.797v-129.496c0-9.891-1.844-11.675-10.706-20.249z"/><path d="m37.469 41.219v-22.485c0-10.33-8.405-18.734-18.735-18.734s-18.734 8.404-18.734 18.734v22.484c5.771-2.412 12.099-3.75 18.734-3.75s12.964 1.338 18.735 3.751z"/><path d="m493.266 67.469c-10.33 0-18.734 8.404-18.734 18.734v157.99c.108 12.667-4.631 25.379-14.274 35.022l-126.187 126.186-21.213-21.213 126.186-126.186c7.305-7.305 7.304-19.19 0-26.495-3.539-3.539-8.243-5.487-13.247-5.487s-9.709 1.949-13.248 5.488l-126.227 126.227c-1.62 1.621-3.161 3.112-4.616 4.521-8.862 8.573-10.706 10.357-10.706 20.248v129.496h139.797v-74.42l101.203-132.127v-219.25c0-10.33-8.404-18.734-18.734-18.734z"/><path d="m493.266 0c-10.33 0-18.734 8.404-18.734 18.734v22.484c5.771-2.412 12.099-3.75 18.734-3.75s12.963 1.338 18.734 3.75v-22.484c0-10.33-8.404-18.734-18.734-18.734z"/><path d="m276.081 189.507 6.865-2.225c4.391-1.422 8.678-3.198 12.745-5.277l6.43-3.287 6.58 2.976c7.067 3.197 15.495 1.659 20.976-3.822s7.018-13.911 3.822-20.976l-2.977-6.58 3.288-6.43c2.078-4.064 3.854-8.352 5.276-12.744l2.225-6.866 6.753-2.546c7.256-2.735 12.131-9.782 12.131-17.535s-4.875-14.799-12.131-17.535l-6.753-2.546-2.225-6.866c-1.423-4.392-3.198-8.679-5.276-12.744l-3.288-6.43 2.977-6.58c3.195-7.065 1.659-15.495-3.822-20.976s-13.909-7.017-20.976-3.822l-6.58 2.976-6.43-3.287c-4.067-2.08-8.354-3.855-12.745-5.277l-6.865-2.225-2.547-6.753c-2.734-7.255-9.781-12.13-17.534-12.13s-14.799 4.875-17.535 12.13l-2.546 6.753-6.866 2.225c-4.39 1.422-8.678 3.198-12.745 5.277l-6.43 3.287-6.58-2.976c-7.066-3.196-15.494-1.66-20.976 3.821-5.481 5.482-7.017 13.912-3.822 20.976l2.977 6.581-3.289 6.431c-2.078 4.063-3.853 8.351-5.277 12.744l-2.225 6.864-6.752 2.546c-7.255 2.735-12.13 9.782-12.13 17.535s4.875 14.799 12.129 17.535l6.753 2.546 2.225 6.865c1.424 4.394 3.199 8.681 5.277 12.744l3.289 6.431-2.977 6.581c-3.195 7.064-1.66 15.494 3.822 20.976s13.914 7.017 20.976 3.822l6.58-2.976 6.43 3.287c4.067 2.08 8.355 3.855 12.745 5.277l6.866 2.225 2.546 6.753c2.735 7.255 9.782 12.13 17.535 12.13s14.8-4.875 17.534-12.13zm-30.382-95.613h-30v-30h30zm20.602 50.602v-30h30v30z"/></g></svg>