<svg id="Capa_1" enable-background="new 0 0 511.989 511.989" height="512" viewBox="0 0 511.989 511.989" width="512" xmlns="http://www.w3.org/2000/svg"><g><path d="m241.456 91.383h30v30.253h-30z" transform="matrix(.707 -.707 .707 .707 -.198 212.539)"/><path d="m198.853 133.986h30v30.253h-30z" transform="matrix(.707 -.707 .707 .707 -42.802 194.89)"/><path d="m284.059 48.78h30v30.252h-30z" transform="matrix(.707 -.707 .707 .707 42.403 230.182)"/><path d="m352.358 31.998c3.59-3.59 7.429-6.84 11.479-9.735l-22.264-22.263-21.213 21.213 21.391 21.392z"/><path d="m156.25 176.589h30v30.252h-30z" transform="matrix(.707 -.707 .707 .707 -85.405 177.244)"/><path d="m458.778 53.212c-11.765-11.765-27.184-17.647-42.603-17.647s-30.839 5.882-42.603 17.647l-213.017 213.015 85.206 85.206 213.016-213.016c23.53-23.528 23.53-61.676.001-85.205zm-213.016 234.228-21.213-21.213 21.213-21.213 21.213 21.213zm42.603-42.603-21.213-21.213 21.213-21.213 21.213 21.213zm42.604-42.602-21.214-21.213 21.213-21.214 21.214 21.213zm42.602-42.604-21.213-21.213 21.213-21.213 21.213 21.213zm42.604-42.603-21.213-21.213 21.213-21.213 21.213 21.213z"/><path d="m390.481 240.407h30v30.253h-30z" transform="matrix(.707 -.707 .707 .707 -61.926 361.565)"/><path d="m-11.969 380.241h227.184v60.25h-227.184z" transform="matrix(.707 -.707 .707 .707 -260.408 192.052)"/><path d="m489.725 148.153c-2.894 4.049-6.145 7.888-9.734 11.478l-10.607 10.607 21.392 21.392 21.213-21.213z"/><path d="m433.084 197.804h30v30.252h-30z" transform="matrix(.707 -.707 .707 .707 -19.325 379.207)"/><path d="m347.877 283.01h30v30.253h-30z" transform="matrix(.707 -.707 .707 .707 -104.53 343.916)"/><path d="m305.274 325.614h30v30.252h-30z" transform="matrix(.707 -.707 .707 .707 -147.133 326.265)"/></g></svg>