<svg id="Capa_1" enable-background="new 0 0 512.002 512.002" height="512" viewBox="0 0 512.002 512.002" width="512" xmlns="http://www.w3.org/2000/svg"><g id="XMLID_564_"><path id="XMLID_568_" d="m256.001 408.668c-110.866 0-204.698-84.68-244.983-127.404 11.112 39.109 29.804 101.083 41.436 119.043 35.235 54.429 82.791 92.585 149.553 106.235l.032.011c35.553 7.266 72.371 7.266 107.924 0l.032-.011c66.762-13.65 114.319-51.806 149.553-106.235 11.632-17.959 30.324-79.934 41.436-119.043-40.285 42.724-134.117 127.404-244.983 127.404z"/><path id="XMLID_578_" d="m150.937 111.607c35.569-15.964 70.918-24.059 105.063-24.059s69.494 8.095 105.063 24.059c28.03 12.58 56.274 30.062 83.948 51.958 17.234 13.636 32.025 27.212 43.913 39.013l-50.76-108.921c-16.794-36.042-44.179-65.243-77.979-83.163-13.288-7.02-28.414-10.494-43.509-10.494-17.644 0-35.235 4.748-49.745 14.138h-.011c-6.713 4.345-15.126 4.345-21.84 0h-.011c-26.917-17.41-64.425-18.876-93.255-3.643-16.9 8.965-32.197 20.735-45.368 34.789-13.17 14.042-24.207 30.348-32.609 48.374l-50.76 108.921c11.888-11.801 26.679-25.378 43.913-39.013 27.673-21.897 55.917-39.378 83.947-51.959z"/><path id="XMLID_584_" d="m205.384 191.722c-.701-.49-1.832-.969-3.249-.454-55.617 20.206-95.319 69.909-103.118 128.048 2.602 1.899 5.269 3.803 8.009 5.705 43.51-17.084 99.855-21.305 149.772-10.977 49.509-10.268 105.391-6.246 148.831 10.523 2.747-1.915 5.427-3.831 8.034-5.741-4.689-34.125-20.488-66.022-45.025-90.547-16.209-16.21-36.087-28.937-57.485-36.806-1.693-.622-2.99.012-3.612.445-.721.503-1.58 1.439-1.58 3.041v23.701c0 27.276-22.191 49.468-49.467 49.468s-49.467-22.191-49.467-49.468v-23.798c0-1.731-1.029-2.711-1.643-3.14z"/><path id="XMLID_586_" d="m425.851 186.66c-39.971-31.528-101.885-69.111-169.85-69.111s-129.878 37.583-169.85 69.111c-30.63 24.16-53.476 48.605-64.712 61.462 9.46 10.84 27.125 29.853 50.923 50.124 14.185-61.674 58.921-113.156 119.529-135.176 10.26-3.726 21.739-2.202 30.708 4.082 9.035 6.329 14.429 16.688 14.429 27.709v23.798c0 10.734 8.733 19.468 19.467 19.468s19.467-8.733 19.467-19.468v-23.701c0-11.013 5.389-21.347 14.414-27.645 9.079-6.333 20.718-7.828 31.133-3.998 25.449 9.359 49.082 24.486 68.341 43.747 25.052 25.041 42.442 56.558 50.388 90.672 23.494-20.079 40.945-38.864 50.325-49.612-11.237-12.856-34.082-37.302-64.712-61.462z"/><path id="XMLID_587_" d="m372.209 345.418c-34.93-8.764-75.552-9.492-112.155-1.392l-3.188.706-4.511-.966c-36.689-7.88-77.237-6.942-111.965 1.974 33.68 18.478 73.48 32.928 115.611 32.928 42.378 0 82.403-14.617 116.208-33.25z"/></g></svg>