<svg id="Capa_1" enable-background="new 0 0 512 512" height="512" viewBox="0 0 512 512" width="512" xmlns="http://www.w3.org/2000/svg"><g><path d="m316 194.166h-45v-31.398c38.119-7.071 67.083-40.549 67.083-80.685 0-45.261-36.822-82.083-82.083-82.083s-82.083 36.822-82.083 82.083c0 40.136 28.964 73.613 67.083 80.685v31.398h-45v30h45v45h30v-45h45zm-60-60c-28.719 0-52.083-23.364-52.083-52.083s23.364-52.083 52.083-52.083 52.083 23.364 52.083 52.083-23.364 52.083-52.083 52.083z"/><path d="m483.787 169.833c-.001 0 .001 0 0 0-15.582 0-28.213 12.631-28.213 28.213v108.001c0 15.547-6.054 30.164-17.048 41.157l-53.545 53.545-21.213-21.213 53.545-53.545c10.997-10.997 10.997-28.891 0-39.888-5.499-5.498-12.723-8.247-19.945-8.248-7.224-.001-14.445 2.749-19.944 8.248l-106.422 106.423v119.474h152.688l88.31-150.97v-162.984c0-15.581-12.632-28.213-28.213-28.213z"/><path d="m114.632 277.856c-7.222 0-14.446 2.75-19.945 8.248-10.997 10.997-10.997 28.891 0 39.888l53.545 53.545-21.213 21.213-53.545-53.545c-10.994-10.993-17.048-25.61-17.048-41.157v-108.002c0-15.582-12.631-28.213-28.213-28.213-15.582 0-28.213 12.631-28.213 28.213v162.984l88.311 150.97h152.688v-119.474l-106.423-106.423c-5.499-5.498-12.721-8.247-19.944-8.247z"/></g></svg>