<svg id="Capa_1" enable-background="new 0 0 512 512" height="512" viewBox="0 0 512 512" width="512" xmlns="http://www.w3.org/2000/svg"><g><path d="m256 45c20.408 0 40.383 2.884 59.65 8.564-3.222-30.068-28.741-53.564-59.65-53.564s-56.428 23.496-59.65 53.564c19.267-5.68 39.242-8.564 59.65-8.564z"/><path d="m106.8 106.8c14.399-14.399 30.566-26.494 48.237-36.123-10.63-8.594-23.769-13.271-37.63-13.271-16.026 0-31.094 6.241-42.427 17.574-21.856 21.856-23.286 56.515-4.302 80.056 9.629-17.67 21.724-33.837 36.122-48.236z"/><path d="m45 256c0-20.408 2.885-40.383 8.564-59.65-30.068 3.222-53.564 28.741-53.564 59.65s23.496 56.428 53.564 59.65c-5.679-19.267-8.564-39.242-8.564-59.65z"/><path d="m106.8 405.2c-14.398-14.398-26.494-30.565-36.122-48.236-18.984 23.54-17.554 58.199 4.302 80.056 11.333 11.333 26.4 17.573 42.427 17.573 13.862 0 27-4.677 37.63-13.271-17.671-9.628-33.838-21.724-48.237-36.122z"/><path d="m256 467c-20.408 0-40.383-2.884-59.65-8.564 3.222 30.068 28.741 53.564 59.65 53.564s56.428-23.496 59.65-53.564c-19.267 5.68-39.242 8.564-59.65 8.564z"/><path d="m405.2 405.2c-14.399 14.399-30.566 26.494-48.237 36.123 10.63 8.594 23.769 13.271 37.63 13.271 16.026 0 31.094-6.241 42.427-17.574 21.856-21.856 23.286-56.515 4.302-80.056-9.629 17.67-21.724 33.837-36.122 48.236z"/><path d="m467 256c0 20.408-2.885 40.383-8.564 59.65 30.068-3.222 53.564-28.741 53.564-59.65s-23.496-56.428-53.564-59.65c5.679 19.267 8.564 39.242 8.564 59.65z"/><path d="m405.2 106.8c14.398 14.398 26.494 30.565 36.122 48.236 18.984-23.54 17.554-58.199-4.302-80.056-11.333-11.333-26.4-17.573-42.427-17.573-13.862 0-27 4.677-37.63 13.271 17.671 9.628 33.838 21.724 48.237 36.122z"/><path d="m437 256c0-99.964-81.036-181-181-181s-181 81.036-181 181 81.036 181 181 181 181-81.036 181-181zm-181 136c-74.99 0-136-61.009-136-136s61.01-136 136-136 136 61.009 136 136-61.01 136-136 136z"/><circle cx="256" cy="256" r="106"/></g></svg>