<svg id="Layer_1" enable-background="new 0 0 510 510" height="512" viewBox="0 0 510 510" width="512" xmlns="http://www.w3.org/2000/svg"><g id="XMLID_1256_"><path id="XMLID_1273_" d="m133.798 62.927c-74.155-19.365-136.604 56.856-104.463 125.338 19.224-52.908 56.555-97.191 104.463-125.338z"/><path id="XMLID_1335_" d="m376.193 62.927c47.908 28.147 85.24 72.431 104.463 125.338 32.197-68.603-30.443-144.668-104.463-125.338z"/><path id="XMLID_1351_" d="m269.995 150.933v125.28l-88.594 88.594c77.461 60.381 193.594 5.746 193.594-94.807 0-61.088-45.886-111.661-105-119.067z"/><path id="XMLID_1454_" d="m464.995 270c0-110.75-86.181-201.74-195-209.459v-30.541h30v-30h-90v30h30v30.541c-108.819 7.719-195 98.709-195 209.459 0 71.849 36.277 135.376 91.47 173.254l-24.497 36.746h-36.973v30h53.028l34.37-51.556c58.245 28.738 126.889 28.772 185.204 0l34.371 51.556h53.027v-30h-36.973l-24.497-36.746c55.193-37.877 91.47-101.405 91.47-173.254zm-316.066 106.065-10.605-10.606 101.672-101.672v-143.787h15c82.71 0 150 67.289 150 150-.001 132.801-161.835 200.301-256.067 106.065z"/></g></svg>