<?xml version="1.0" encoding="iso-8859-1"?>
<!-- Generator: Adobe Illustrator 19.0.0, SVG Export Plug-In . SVG Version: 6.00 Build 0)  -->
<svg xmlns="http://www.w3.org/2000/svg" xmlns:xlink="http://www.w3.org/1999/xlink" version="1.1" id="Layer_1" x="0px" y="0px" viewBox="0 0 512 512" style="enable-background:new 0 0 512 512;" xml:space="preserve">
<g>
	<g>
		<path d="M472.298,358.691V201.293H353.766v157.398h-31.369v-236.75H188.181v236.75h-31.369V161.256H38.28v197.435H0v31.369h512    v-31.369H472.298z M120.404,287.892H83.472c0-2.321,0.167-4.402,0.512-6.232c0.345-1.83,0.941-3.492,1.778-5.009    c0.847-1.506,1.987-2.896,3.419-4.182s3.231-2.551,5.416-3.785c2.321-1.286,4.256-2.353,5.814-3.189    c1.558-0.847,2.802-1.579,3.712-2.227c0.91-0.638,1.568-1.223,1.966-1.746c0.397-0.512,0.596-1.119,0.596-1.809    c0-1.391-0.502-2.499-1.485-3.346c-0.993-0.836-2.405-1.255-4.224-1.255c-2.081,0-3.89,0.502-5.416,1.516    c-1.537,1.014-3.022,2.342-4.454,3.973l-7.56-8.752c0.784-0.889,1.851-1.757,3.189-2.604c1.328-0.837,2.844-1.589,4.517-2.259    c1.683-0.669,3.524-1.203,5.531-1.589c1.997-0.397,4.088-0.596,6.263-0.596c5.343,0,9.432,1.161,12.276,3.482    c2.844,2.332,4.266,5.469,4.266,9.421c0,1.631-0.261,3.095-0.774,4.381c-0.523,1.286-1.203,2.436-2.049,3.44    c-0.836,1.014-1.778,1.903-2.813,2.677c-1.035,0.763-2.102,1.464-3.189,2.112c-0.742,0.439-1.631,0.962-2.666,1.558    c-1.046,0.596-2.07,1.203-3.085,1.819c-1.014,0.617-1.955,1.234-2.813,1.851c-0.868,0.617-1.527,1.171-1.966,1.673h20.17V287.892z     M276.149,241.884h-32.038v-10.676h10.529v-18.915c-0.45,0.596-1.14,1.192-2.081,1.819c-0.941,0.617-1.987,1.182-3.147,1.704    c-1.161,0.512-2.353,0.941-3.566,1.255c-1.213,0.324-2.279,0.481-3.221,0.481v-10.969c0.784,0,1.819-0.272,3.074-0.816    c1.265-0.544,2.509-1.202,3.743-1.966c1.244-0.774,2.353-1.548,3.346-2.342c0.983-0.784,1.6-1.432,1.851-1.924h12.087v31.672    h9.421V241.884z M431.341,303.524c-0.941,1.851-2.29,3.44-4.047,4.747c-1.757,1.307-3.869,2.321-6.336,3.043    c-2.478,0.711-5.239,1.077-8.313,1.077c-7.508,0-13.394-2.206-17.65-6.608l6.378-8.449c1.338,1.38,2.855,2.436,4.569,3.147    c1.704,0.721,3.743,1.077,6.117,1.077c5.584,0,8.375-2.049,8.375-6.159c0-2.217-0.826-3.9-2.478-5.04    c-1.663-1.14-4.266-1.704-7.832-1.704h-2.227v-8.532h2.457c2.76,0,4.925-0.565,6.483-1.704c1.558-1.14,2.342-2.645,2.342-4.528    c0-1.631-0.575-2.865-1.704-3.702c-1.14-0.847-2.656-1.265-4.528-1.265c-2.029,0-3.869,0.481-5.531,1.443    c-1.652,0.972-3.053,2.342-4.182,4.12l-7.497-8.605c0.795-1.035,1.83-1.997,3.116-2.886c1.286-0.899,2.75-1.652,4.381-2.269    c1.631-0.617,3.377-1.098,5.26-1.443c1.882-0.345,3.806-0.523,5.793-0.523c2.614,0,5.009,0.314,7.194,0.931    c2.175,0.617,4.026,1.506,5.563,2.666c1.527,1.161,2.719,2.551,3.555,4.162c0.836,1.6,1.265,3.398,1.265,5.375    c0,1.485-0.241,2.886-0.711,4.224c-0.471,1.338-1.119,2.551-1.966,3.639c-0.836,1.087-1.84,1.987-3.001,2.708    c-1.161,0.711-2.436,1.192-3.817,1.443c1.527,0.293,2.938,0.826,4.224,1.589c1.286,0.774,2.384,1.736,3.304,2.896    c0.91,1.161,1.61,2.499,2.112,4.005c0.491,1.506,0.742,3.126,0.742,4.862C432.752,299.582,432.282,301.673,431.341,303.524z"/>
	</g>
</g>
<g>
</g>
<g>
</g>
<g>
</g>
<g>
</g>
<g>
</g>
<g>
</g>
<g>
</g>
<g>
</g>
<g>
</g>
<g>
</g>
<g>
</g>
<g>
</g>
<g>
</g>
<g>
</g>
<g>
</g>
</svg>
