<svg id="Capa_1" enable-background="new 0 0 512 512" height="512" viewBox="0 0 512 512" width="512" xmlns="http://www.w3.org/2000/svg"><g><path d="m0 288.359h512v43.734h-512z"/><path d="m287.867 95.602c0-17.6 14.268-31.867 31.867-31.867 14.675 0 27.024 9.922 30.727 23.421h64.499c-4.276-48.843-45.273-87.156-95.225-87.156-52.799 0-95.602 42.802-95.602 95.602v162.758h63.734z"/><path d="m351.602 117.156h63.734v43.735h-63.734z"/><path d="m191.774 512h128.452c84.954 0 154.423-66.253 159.586-149.907h-447.624c5.163 83.655 74.632 149.907 159.586 149.907z"/><path d="m430.336 258.359v-18.734h32.801v-30h-95.602v30h32.801v18.734z"/><path d="m81.664 258.359h30v-18.734h32.801v-30h-95.602v30h32.801z"/></g></svg>