<?xml version="1.0" encoding="iso-8859-1"?>
<!-- Generator: Adobe Illustrator 19.0.0, SVG Export Plug-In . SVG Version: 6.00 Build 0)  -->
<svg xmlns="http://www.w3.org/2000/svg" xmlns:xlink="http://www.w3.org/1999/xlink" version="1.1" id="Layer_1" x="0px" y="0px" viewBox="0 0 512 512" style="enable-background:new 0 0 512 512;" xml:space="preserve">
<g>
	<g>
		<path d="M485.825,187.77c4.911-8.549,7.54-18.264,7.54-28.387c0-15.278-5.947-29.634-16.749-40.427l-78.471-78.471l-80.843,80.844    l22.015,22.015l-15.358,15.358l63.754,63.734l16.008-16.009c9.731,6.738,21.104,10.092,32.478,10.092    c9.811,0,19.618-2.514,28.377-7.523l26.187,26.187L512,213.945L485.825,187.77z"/>
	</g>
</g>
<g>
	<g>
		<path d="M339.848,297.703l40.336-40.337l-91.165-91.125L104.455,350.804c-12.565,12.565-18.852,29.064-18.852,45.573    c0,13.231,4.043,26.463,12.117,37.654c-23.305,12.831-52.849,9.256-72.568-10.463l-3.914-3.914L0,440.89l3.915,3.915    c16.815,16.815,39.171,26.297,62.949,26.697c0.523,0.009,1.043,0.013,1.565,0.013c19.319,0,37.827-6.045,53.292-17.229    c0.005,0.003,0.01,0.005,0.016,0.008c8.9,4.335,18.591,6.508,28.293,6.508c16.499,0,33.008-6.287,45.573-18.852l78.12-78.12    l-45.693-45.372l21.154-21.315l45.773,45.453l23.657-23.657l-45.703-45.372l21.164-21.315L339.848,297.703z"/>
	</g>
</g>
<g>
</g>
<g>
</g>
<g>
</g>
<g>
</g>
<g>
</g>
<g>
</g>
<g>
</g>
<g>
</g>
<g>
</g>
<g>
</g>
<g>
</g>
<g>
</g>
<g>
</g>
<g>
</g>
<g>
</g>
</svg>
