<svg id="Capa_1" enable-background="new 0 0 510.602 510.602" height="512" viewBox="0 0 510.602 510.602" width="512" xmlns="http://www.w3.org/2000/svg"><g id="XMLID_7_"><path id="XMLID_33_" d="m265.019 168.424c0 14.37 11.691 26.061 26.061 26.061s26.061-11.69 26.061-26.061v-15.375h.103l-31.808-51.772h-117.59v18.198c0 17.289 13.191 31.874 30.047 33.573h67.125v15.376z"/><path id="XMLID_43_" d="m236.953 183.049h-73.755v226.276h60.897l35.242-194.729c-10.796-7.445-18.872-18.566-22.384-31.547z"/><path id="XMLID_44_" d="m510.602 300.608v-117.559h-86.076z"/><path id="XMLID_45_" d="m348.835 183.049 79.564 226.276h82.203v-57.936l-123.258-168.34z"/><path id="XMLID_46_" d="m291.079 224.484c-1.016 0-2.024-.037-3.027-.091l-33.469 184.931h142.016l-69.589-197.905c-9.737 8.15-22.27 13.065-35.931 13.065z"/><path id="XMLID_13_" d="m129.54 405.938h-46.873c-15.197 0-27.516-12.319-27.516-27.516 0-15.197 12.319-27.516 27.516-27.516h-35.912c-15.197 0-27.516-12.319-27.516-27.516 0-15.197 12.32-27.516 27.516-27.516h-19.239c-15.197-.002-27.516-12.321-27.516-27.518 0-15.197 12.319-27.516 27.516-27.516h30.782c-15.197 0-27.516-12.32-27.516-27.516 0-15.197 12.32-27.516 27.516-27.516h71.242z"/></g></svg>