<svg id="Capa_1" enable-background="new 0 0 511.859 511.859" height="512" viewBox="0 0 511.859 511.859" width="512" xmlns="http://www.w3.org/2000/svg"><g><path d="m213.745 263.079 27.34-42.97c0-20.403 0-204.687 0-219.63-90.359-7.05-169.585 64.562-169.229 157.611-.001-.001-.041 24.389-.041 24.389-38.296-2.75-71.902 27.288-71.73 66-.166 38.613 33.291 68.672 71.52 66-4.758 101.644 71.219 189.662 169.48 197.38 0-18.353 0-52.341 0-71.04-29.853-2.54-57.588-15.857-78.61-37.64l21.22-21.21c15.369 16.092 35.565 26.237 57.39 28.7v-59.4l-16.86-14.79c-21.26-18.66-25.67-49.53-10.48-73.4zm-68.55-53.18-18.22-23.83c25.38-19.41 60.84-19.41 86.22 0l-18.22 23.83c-14.66-11.2-35.12-11.2-49.78 0z"/><path d="m446.085 182.479h-5.73l-.04-24.36c.356-93.08-78.871-164.691-169.23-157.64v228.37l-32.03 50.34c-7.19 11.3-5.11 25.91 4.96 34.74l27.07 23.76v72.98c21.824-2.462 42.021-12.608 57.39-28.7l21.22 21.21c-21.022 21.783-48.757 35.099-78.61 37.64v71.04c98.253-7.716 174.23-95.726 169.48-197.38 91.492 2.311 96.411-127.486 5.52-132zm-62.89 3.59-18.22 23.83c-14.66-11.2-35.12-11.2-49.78 0l-18.22-23.83c25.38-19.41 60.84-19.41 86.22 0zm-89.67 74.75 22.14-20.25c9.61 10.52 24.2 15.08 38.09 11.92l6.66 29.25c-24.109 5.54-50.017-2.393-66.89-20.92zm51.97 105.3c-7.96-12.68-22.16-21.38-37.07-22.7l2.64-29.88c24.08 2.12 47.01 16.17 59.84 36.65z"/></g></svg>