<svg id="Capa_1" enable-background="new 0 0 511.957 511.957" height="512" viewBox="0 0 511.957 511.957" width="512" xmlns="http://www.w3.org/2000/svg"><g><path d="m102.713 346.377v59.083h241.084v-256.02c0-66.294-53.935-120.369-120.229-120.541-65.663-.301-120.855 54.944-120.855 120.541v106.202l-48.075-48.076c-11.805-11.805-30.383-12.651-43.212-1.968-14.323 11.928-15.336 34.156-2.156 47.336z"/><path d="m357.849 28.899c-.106 0-.217 0-.323 0-12.712 0-25.117 1.971-36.884 5.741 33.455 28.472 53.156 70.831 53.156 114.8v256.02h104.279v-256.02c-.001-66.294-53.934-120.369-120.228-120.541z"/><path d="m407.677 435.46h104.28v47.599h-104.28z"/><path d="m68.875 435.46h308.802v47.599h-308.802z"/></g></svg>