<svg id="Capa_1" enable-background="new 0 0 512 512" height="512" viewBox="0 0 512 512" width="512" xmlns="http://www.w3.org/2000/svg"><g><path d="m317.696 203h-123.392l17.431 150h88.53z"/><path d="m88.467 383 14.352 129h97.231l-14.6-129z"/><path d="m215.642 383 14.6 129h51.516l14.6-129z"/><path d="m347.897 203-17.43 150h96.403l16.689-150z"/><path d="m164.103 203h-95.662l16.689 150h96.403z"/><path d="m311.95 512h97.231l14.352-129h-96.983z"/><path d="m301 45.063c0-12.026-4.678-23.337-13.173-31.85-8.502-8.521-19.806-13.213-31.827-13.213-24.813 0-45 20.215-45 45.063v127.937h90z"/></g></svg>