<svg id="Layer_1" enable-background="new 0 0 511.998 511.998" height="512" viewBox="0 0 511.998 511.998" width="512" xmlns="http://www.w3.org/2000/svg"><g><path d="m344.004 407.705h167.994v60.004h-167.994z"/><path d="m344.004 377.705h167.994v-250.867h-53.991c3.73-110.099-153.767-110.033-150.008 0h-53.991v70.004h89.996zm-6.005-250.867v-7.997c0-24.815 20.188-45.004 45.004-45.004s45.004 20.188 45.004 45.004v7.997z"/><path d="m224.004 226.845v-19.998c0-36.945-30.058-67.003-67.003-67.003s-67.003 30.058-67.003 67.003v19.998h-89.998v240.864h314.004v-240.866zm-104.006-19.998c1.867-49.031 72.154-49.001 74.006 0v19.997h-74.006zm104.006 183.481h-134.006v-86.103h134.006z"/><path d="m119.998 334.225h74.006v26.103h-74.006z"/></g></svg>