<svg id="Capa_1" enable-background="new 0 0 512 512" height="512" viewBox="0 0 512 512" width="512" xmlns="http://www.w3.org/2000/svg"><g><path d="m317.318 211.468-5.724-31.984-32.163 4.416-23.431-22.479-23.43 22.479-32.164-4.416-5.724 31.984-28.637 15.304 14.182 29.228-14.182 29.227 28.637 15.305 5.724 31.984 32.163-4.416 23.431 22.479 23.43-22.479 32.164 4.416 5.724-31.984 28.637-15.304-14.182-29.228 14.182-29.227z"/><path d="m256 75c-99.964 0-181 81.036-181 181s81.036 181 181 181 181-81.036 181-181-81.036-181-181-181zm129.539 223.087-41.252 22.048-8.238 46.02-46.322-6.359-33.727 32.357-33.728-32.358-46.321 6.359-8.238-46.02-41.252-22.048 20.42-42.086-20.42-42.087 41.252-22.048 8.238-46.02 46.322 6.359 33.727-32.357 33.728 32.358 46.321-6.359 8.238 46.02 41.252 22.048-20.42 42.086z"/><path d="m437.02 74.98c-48.353-48.351-112.64-74.98-181.02-74.98s-132.667 26.629-181.02 74.98c-48.351 48.353-74.98 112.64-74.98 181.02s26.629 132.667 74.98 181.02c48.353 48.351 112.64 74.98 181.02 74.98s132.667-26.629 181.02-74.98c48.351-48.353 74.98-112.64 74.98-181.02s-26.629-132.667-74.98-181.02zm-98.88 375.426c-26.033 11.011-53.668 16.594-82.14 16.594s-56.107-5.583-82.14-16.594c-25.129-10.629-47.691-25.839-67.06-45.207-19.368-19.368-34.578-41.93-45.207-67.06-11.01-26.032-16.593-53.667-16.593-82.139s5.583-56.107 16.594-82.14c10.629-25.129 25.839-47.691 45.207-67.06 19.368-19.368 41.93-34.578 67.06-45.207 26.032-11.01 53.667-16.593 82.139-16.593s56.107 5.583 82.14 16.594c25.129 10.629 47.691 25.838 67.06 45.207 19.368 19.368 34.578 41.93 45.207 67.06 11.01 26.032 16.593 53.667 16.593 82.139s-5.583 56.107-16.594 82.14c-10.629 25.129-25.839 47.691-45.207 67.06-19.368 19.368-41.93 34.577-67.059 45.206z"/></g></svg>