<svg id="Capa_1" enable-background="new 0 0 512 512" height="512" viewBox="0 0 512 512" width="512" xmlns="http://www.w3.org/2000/svg"><g><path d="m502.58 187.048-41.18 41.18c3.555 26.458 2.01 53.499-4.653 79.469-9.185 35.794-27.922 68.597-54.188 94.862-26.266 26.266-59.068 45.003-94.862 54.188-16.928 4.344-34.313 6.514-51.694 6.514-9.282 0-18.562-.625-27.772-1.863l-41.177 41.177c22.521 6.275 45.73 9.425 68.946 9.425 65.512 0 131.036-24.997 181.019-74.981 67.7-67.699 89.549-163.881 65.561-249.971z"/><path d="m74.981 74.981c-67.7 67.699-89.549 163.881-65.561 249.971l41.18-41.18c-3.555-26.458-2.01-53.499 4.653-79.469 9.185-35.794 27.922-68.597 54.188-94.862 26.266-26.266 59.068-45.003 94.862-54.188 25.969-6.664 53.01-8.209 79.469-4.654l41.174-41.174c-22.521-6.275-45.729-9.426-68.946-9.425-65.512.003-131.035 24.997-181.019 74.981z"/><path d="m211.76 84.313c-30.592 7.85-58.638 23.875-81.105 46.342-22.468 22.468-38.492 50.513-46.342 81.105-3.686 14.363-5.525 29.11-5.556 43.857l176.871-176.872c-14.751.03-29.501 1.881-43.868 5.568z"/><path d="m300.24 427.688c30.592-7.85 58.638-23.875 81.105-46.342 22.468-22.468 38.492-50.513 46.342-81.105 3.687-14.367 5.538-29.118 5.568-43.869l-176.871 176.872c14.747-.031 29.493-1.871 43.856-5.556z"/><path d="m163.202 483.999 320.797-320.797c37.335-37.335 37.335-97.866 0-135.201-18.668-18.667-43.134-28.001-67.601-28.001s-48.933 9.334-67.6 28.001l-320.797 320.797c-37.335 37.335-37.335 97.866 0 135.201 18.668 18.667 43.134 28.001 67.601 28.001s48.933-9.334 67.6-28.001zm235.988-423.437c7.346 0 14.251 2.861 19.445 8.055l24.749 24.748c10.722 10.722 10.722 28.169 0 38.891l-19.446 19.445-63.64-63.64 19.445-19.445c5.196-5.193 12.101-8.054 19.447-8.054zm-49.499 38.107 14.143 14.143-17.678 17.678 10.606 10.606 10.607-10.607 14.143 14.143-10.607 10.607 10.607 10.607 17.678-17.678 14.143 14.143-31.82 31.82-63.641-63.64zm-42.425 42.426 63.64 63.64-14.143 14.143-63.64-63.64zm-44.195 44.194c10.723-10.722 28.168-10.721 38.891 0l3.536 3.536c10.722 10.722 10.722 28.168 0 38.891l-5.304 5.303 21.213 21.213-14.143 14.143-63.64-63.64zm-54.8 54.801 44.194 44.194c2.925 2.924 7.683 2.924 10.607 0 2.923-2.923 2.923-7.682-.001-10.606l-44.194-44.193 14.143-14.143 44.194 44.194c10.722 10.723 10.722 28.169 0 38.891-5.361 5.361-12.404 8.042-19.446 8.042s-14.084-2.681-19.445-8.041l-44.194-44.194zm-42.427 42.427c10.723-10.722 28.168-10.722 38.891-.001l-14.141 14.144c-2.926-2.925-7.684-2.925-10.607 0-2.924 2.924-2.924 7.683 0 10.607l24.749 24.748c1.416 1.417 3.3 2.197 5.303 2.197s3.887-.78 5.303-2.197c1.417-1.417 2.197-3.3 2.197-5.304 0-2.003-.78-3.886-2.196-5.302l14.141-14.144c5.195 5.194 8.056 12.1 8.056 19.446s-2.86 14.252-8.056 19.446c-5.193 5.193-12.099 8.054-19.444 8.054s-14.251-2.861-19.445-8.055l-24.749-24.748c-10.724-10.723-10.724-28.169-.002-38.891zm-47.729 47.729c5.193-5.193 12.099-8.054 19.444-8.054s14.251 2.861 19.445 8.055l-14.143 14.142c-1.416-1.417-3.3-2.197-5.303-2.197s-3.887.78-5.303 2.197c-1.417 1.417-2.197 3.3-2.197 5.304 0 2.003.78 3.886 2.196 5.302l24.749 24.75c2.923 2.922 7.682 2.925 10.606 0 2.924-2.924 2.924-7.683 0-10.607l14.143-14.142c10.722 10.722 10.722 28.168 0 38.891-5.361 5.361-12.403 8.042-19.445 8.042s-14.084-2.68-19.445-8.041l-24.749-24.75c-5.194-5.193-8.055-12.099-8.055-19.445.002-7.347 2.862-14.253 8.057-19.447zm-49.499 49.498c5.194-5.194 12.1-8.055 19.446-8.055s14.251 2.861 19.445 8.055l24.749 24.748c5.193 5.194 8.054 12.1 8.054 19.445 0 7.346-2.86 14.251-8.054 19.446-5.195 5.194-12.101 8.055-19.446 8.055s-14.251-2.861-19.445-8.055l-24.749-24.748c-5.193-5.194-8.054-12.1-8.054-19.445.001-7.346 2.861-14.252 8.054-19.446z"/><path d="m107.508 429.241c1.416 1.417 3.3 2.197 5.303 2.197 2.004 0 3.888-.78 5.304-2.197 2.925-2.924 2.925-7.682 0-10.606l-24.749-24.749c-1.416-1.417-3.3-2.197-5.303-2.197-2.004 0-3.888.78-5.304 2.197-2.925 2.924-2.925 7.683 0 10.606z"/><path d="m429.241 118.114c2.925-2.924 2.925-7.682 0-10.606l-24.749-24.749c-1.416-1.417-3.3-2.197-5.303-2.197-2.004 0-3.888.78-5.304 2.197l-5.303 5.303 35.354 35.355z"/><path d="m291.356 213.573c2.924-2.924 2.925-7.682.001-10.605l-3.536-3.536c-2.927-2.925-7.684-2.925-10.606 0l-5.304 5.303 14.142 14.142z"/></g></svg>