<svg id="Capa_1" enable-background="new 0 0 512 512" height="512" viewBox="0 0 512 512" width="512" xmlns="http://www.w3.org/2000/svg"><g><path d="m388.735 395.188c68.077 0 123.265-55.188 123.265-123.265 0-42.269-23.423-81.056-60.831-100.735-.102 0-.204 0-.306 0-93.046 0-173.523 69.955-193.831 160.001l-2.057-.001c-20.293-90.469-101.269-159.999-194.058-159.999-.028 0-.057 0-.085 0-37.409 19.677-60.832 58.465-60.832 100.733 0 68.078 55.188 123.266 123.265 123.266z"/><path d="m450.862 141.188h.348.13l-2.302-93.125h-46.672l-12.486 101.928c19.881-5.838 40.321-8.803 60.982-8.803z"/><path d="m448.402 413.131c-18.915 8-38.989 12.057-59.667 12.057h-265.47c-20.677 0-40.752-4.056-59.667-12.057-1.777-.752-3.531-1.544-5.272-2.359v53.165h395.348v-53.165c-1.741.815-3.495 1.608-5.272 2.359z"/><path d="m60.831 141.188h.085c20.728 0 41.246 2.981 61.208 8.851l-12.491-101.976h-46.672l-2.302 93.125z"/></g></svg>