<svg id="Capa_1" enable-background="new 0 0 512 512" height="512" viewBox="0 0 512 512" width="512" xmlns="http://www.w3.org/2000/svg"><g><path d="m277.5 150h182v60h-182z"/><path d="m247.5 377h242v45h-242z"/><path d="m488.318 347c-5.221-32.967-27.566-60.803-58.818-72.941v-34.059h-122v34.059c-31.252 12.138-53.597 39.973-58.818 72.941z"/><path d="m247.5 452h242v60h-242z"/><path d="m172.5 210h-105v152h-45v30h195v-30h-45z"/><path d="m172.5 180v-60h-37.5v-120h-30v120h-37.5v60z"/><path d="m75 422v60h-30v30h150v-30h-30v-60z"/></g></svg>