<svg id="Capa_1" enable-background="new 0 0 512.001 512.001" height="512" viewBox="0 0 512.001 512.001" width="512" xmlns="http://www.w3.org/2000/svg"><g><path d="m314.512 101.516c-16.52 0-33.033 6.286-45.609 18.861-12.183 12.183-18.892 28.38-18.892 45.608s6.709 33.426 18.892 45.608c25.148 25.148 66.069 25.15 91.218 0 25.147-25.148 25.147-66.068 0-91.217-12.574-12.572-29.094-18.86-45.609-18.86z"/><path d="m173.708 285.398c-5.906 7.13-5.906 14.26 0 21.39 5.896 5.897 15.492 5.898 21.391 0l26.605-26.605-21.391-21.39z"/><path d="m488.39 202.648c0-111.92-90.728-202.648-202.648-202.648-90.163 0-166.564 58.878-192.868 140.28l-9.76 60.392-59.504 98.703v29.92h47.385l20.165 110.149h112.918l17.139 72.557h228.021l-28.235-158.448c41.367-37.101 67.387-90.968 67.387-150.905zm-107.057 30.159c-18.423 18.423-42.622 27.634-66.821 27.634-19.458 0-38.91-5.968-55.365-17.878l-16.319 16.319 21.302 21.302-47.818 47.818c-8.796 8.796-20.354 13.196-31.908 13.196-11.557 0-23.11-4.397-31.908-13.196-8.523-8.522-13.217-19.854-13.217-31.908s4.693-23.385 13.217-31.908l47.818-47.818 21.302 21.302 16.305-16.305c-11.627-16.009-17.909-35.21-17.909-55.378 0-25.242 9.83-48.973 27.679-66.821 36.845-36.845 96.797-36.846 133.644 0 36.843 36.844 36.843 96.795-.002 133.641z"/></g></svg>