<?xml version="1.0" encoding="iso-8859-1"?>
<!-- Generator: Adobe Illustrator 19.0.0, SVG Export Plug-In . SVG Version: 6.00 Build 0)  -->
<svg xmlns="http://www.w3.org/2000/svg" xmlns:xlink="http://www.w3.org/1999/xlink" version="1.1" id="Layer_1" x="0px" y="0px" viewBox="0 0 512 512" style="enable-background:new 0 0 512 512;" xml:space="preserve">
<g>
	<g>
		<path d="M457.143,353.524c-12.222,0-23.522,4.022-32.651,10.806l-65.22-46.586c4.14-9.599,6.443-20.168,6.443-31.267    c0-19.394-7.014-37.172-18.625-50.96l40.084-56.116c6.671,2.231,13.796,3.457,21.208,3.457c36.97,0,67.048-30.078,67.048-67.048    c0-36.97-30.078-67.048-67.048-67.048c-36.97,0-67.048,30.078-67.048,67.048c0,16.338,5.881,31.322,15.627,42.967l-39.217,54.904    c-9.599-4.139-20.168-6.441-31.267-6.441c-43.692,0-79.238,35.546-79.238,79.238c0,3.523,0.255,6.985,0.702,10.388l-63.299,18.086    c-14.287-20.854-38.271-34.568-65.403-34.568C35.546,280.381,0,315.927,0,359.619s35.546,79.238,79.238,79.238    s79.238-35.546,79.238-79.238c0-3.523-0.255-6.985-0.702-10.388l63.299-18.086c14.287,20.854,38.271,34.569,65.403,34.569    c19.394,0,37.172-7.014,50.96-18.625l66.589,47.564c-1.135,4.389-1.74,8.989-1.74,13.728c0,30.248,24.609,54.857,54.857,54.857    S512,438.629,512,408.381S487.391,353.524,457.143,353.524z"/>
	</g>
</g>
<g>
</g>
<g>
</g>
<g>
</g>
<g>
</g>
<g>
</g>
<g>
</g>
<g>
</g>
<g>
</g>
<g>
</g>
<g>
</g>
<g>
</g>
<g>
</g>
<g>
</g>
<g>
</g>
<g>
</g>
</svg>
