<svg id="Capa_1" enable-background="new 0 0 511.874 511.874" height="512" viewBox="0 0 511.874 511.874" width="512" xmlns="http://www.w3.org/2000/svg"><g><g><path d="m231.002 89.974h48.75v60.38h-48.75z"/></g><path d="m201.002 45.354c-1.347-32.348-47.423-32.328-48.76 0v14.62h48.76z"/><path d="m201.002 103.854v-13.88h-48.76v60.38h48.76z"/><path d="m279.752 24.254c-1.342-32.353-47.419-32.326-48.75 0v35.72h48.75z"/><path d="m358.512 45.354c-1.347-32.348-47.423-32.328-48.76 0v14.62h48.76z"/><path d="m122.242 280.484c0-29.99-20.81-55.21-48.75-61.97v112.6h48.75z"/><path d="m225.072 313.004c-11.43-12.4-17.02-27.01-16.19-42.27 1.63 0-55.712 0-56.64 0v60.38h90.93z"/><path d="m152.242 451.494h238.89v60.38h-238.89z"/><path d="m294.752 382.704-21.58-21.59h-186.37l65.44 60.38h241.16l38.01-60.38h-115.07z"/><path d="m367.882 308.974c-3.142 4.162-17.81 18.284-21.54 22.14h92.04v-60.38h-57.76c.75 13.63-3.64 26.75-12.74 38.24z"/><path d="m152.242 180.354v60.38h67.54c16.991-23.643 50.416-31.083 74.97-14.99 24.556-16.079 57.98-8.68 74.95 14.99h68.68v-60.38c-33.867 0-252.011 0-286.14 0z"/><path d="m358.512 150.354c0-17.514 0-42.898 0-60.38h-48.76v60.38z"/><path d="m413.452 90.724c-13.76 0-24.94 11.19-24.94 24.94v34.69h49.87v-34.69c0-13.75-11.18-24.94-24.93-24.94z"/><path d="m294.752 340.274c13.559-13.543 45.234-45.226 47.82-47.81 6.82-7.5 8.8-15.05 7.97-21.73-3.028-19.404-26.244-33.338-45.54-15.15 0 0-.16.15-.16.15l-10.09 9.44-10.09-9.44c-19.176-18.361-42.701-4.524-45.69 15-.83 6.68 1.14 14.23 7.97 21.73 0 0 47.159 47.16 47.81 47.81z"/></g></svg>