<svg id="Capa_1" enable-background="new 0 0 512 512" height="512" viewBox="0 0 512 512" width="512" xmlns="http://www.w3.org/2000/svg"><g><g id="Dryer_1_"><g><path d="m166 512-21.211-21.211 10.605-10.605c4.409-4.556 17.695-21.094 0-38.789-29.795-29.795-16.318-64.893 0-81.211l10.606-10.606 21.211 21.211-10.532 10.532c-4.512 4.673-17.739 21.196-.073 38.862 29.795 29.795 16.318 64.893 0 81.211z"/></g><g><path d="m256 512-21.211-21.211 10.605-10.605c4.409-4.556 17.695-21.094 0-38.789-29.795-29.795-16.318-64.893 0-81.211l10.606-10.606 21.211 21.211-10.532 10.532c-4.512 4.673-17.739 21.196-.073 38.862 29.795 29.795 16.318 64.893 0 81.211z"/></g><g><path d="m346 512-21.211-21.211 10.605-10.605c4.409-4.556 17.695-21.094 0-38.789-29.795-29.795-16.318-64.893 0-81.211l10.606-10.606 21.211 21.211-10.532 10.532c-4.512 4.673-17.739 21.196-.073 38.862 29.795 29.795 16.318 64.893 0 81.211z"/></g><path d="m376 0h-240c-41.353 0-75 33.647-75 75v195h390v-195c0-41.353-33.647-75-75-75zm-15 210h-210v-30h210zm0-60h-210v-30h210zm0-60h-210v-30h210z"/></g><path d="m121 300h270v30h-270z"/></g></svg>