<svg id="Capa_1" enable-background="new 0 0 512 512" height="512" viewBox="0 0 512 512" width="512" xmlns="http://www.w3.org/2000/svg"><g><path d="m220.968 168.442c-15.337 7.945-29.401 18.004-41.801 29.799l81.863 152.18 22.29-22.29-29.836-29.836 21.213-21.213 29.836 29.836 29.836-29.836 21.213 21.213-29.836 29.836 29.836 29.836-21.213 21.213-29.836-29.836-28.664 28.664 69.591 129.367c80.766-18.568 140.998-90.9 140.998-177.302 0-70.347-39.932-131.361-98.361-161.631z"/><path d="m482 0v8.523c0 14.919-12.137 27.057-27.056 27.057h-110.165c-31.46 0-57.056 25.595-57.056 57.056v3.807h-52.878v42h135.377v-42h-52.499v-3.807c0-14.919 12.137-27.056 27.056-27.056h110.166c31.46 0 57.055-25.596 57.055-57.057v-8.523z"/></g><g><path d="m157.51 219.197-157.51 292.803h315.019zm17.981 109.877-5.979 88.148h-23.918l-5.979-88.148zm-17.981 148.968c-9.7 0-17.563-7.863-17.563-17.563s7.863-17.563 17.563-17.563 17.563 7.863 17.563 17.563c-.001 9.7-7.864 17.563-17.563 17.563z"/></g></svg>