<svg id="Capa_1" enable-background="new 0 0 512 512" height="512" viewBox="0 0 512 512" width="512" xmlns="http://www.w3.org/2000/svg"><g><path d="m190.666 256c0-12.029.469-23.856 1.353-35.333h-67.354c-3.036 11.272-4.665 23.115-4.665 35.333s1.629 24.061 4.665 35.333h67.354c-.884-11.477-1.353-23.304-1.353-35.333z"/><path d="m289.913 220.667h-67.826c-.938 11.397-1.421 23.242-1.421 35.333s.483 23.937 1.421 35.333h67.826c.938-11.397 1.421-23.242 1.421-35.333s-.483-23.937-1.421-35.333z"/><path d="m225.798 321.333c2.255 13.427 5.214 25.816 8.84 36.696 8.556 25.667 18.087 33.971 21.362 33.971s12.806-8.304 21.361-33.97c3.627-10.88 6.585-23.27 8.84-36.696h-60.403z"/><path d="m286.202 190.667c-2.255-13.427-5.214-25.816-8.84-36.696-8.556-25.667-18.087-33.971-21.362-33.971s-12.806 8.304-21.361 33.97c-3.627 10.88-6.585 23.27-8.84 36.696h60.403z"/><path d="m195.432 190.667c2.594-16.914 6.201-32.547 10.746-46.183 2.195-6.586 4.508-12.391 6.897-17.537-32.714 10.909-59.936 33.93-76.323 63.72z"/><path d="m316.568 321.333c-2.594 16.914-6.201 32.547-10.746 46.183-2.195 6.586-4.508 12.391-6.897 17.537 32.714-10.909 59.936-33.93 76.323-63.72z"/><path d="m387.335 291.333c3.036-11.272 4.665-23.115 4.665-35.333s-1.629-24.061-4.665-35.333h-67.354c.884 11.477 1.353 23.305 1.353 35.333s-.469 23.856-1.353 35.333z"/><path d="m213.076 385.053c-2.389-5.146-4.702-10.951-6.897-17.537-4.546-13.637-8.152-29.269-10.746-46.183h-58.68c16.386 29.79 43.609 52.811 76.323 63.72z"/><path d="m298.924 126.947c2.389 5.146 4.702 10.951 6.897 17.537 4.546 13.637 8.152 29.269 10.746 46.183h58.68c-16.386-29.79-43.609-52.811-76.323-63.72z"/><path d="m469.894 329.083c16.282-47.411 16.273-98.497-.027-146.139 8.536-8.195 13.865-19.705 13.865-32.444 0-24.813-20.187-45-45-45-4.342 0-8.537.63-12.512 1.783-32.909-37.787-77.136-63.312-126.524-73.019-4.828-19.645-22.582-34.264-43.696-34.264-21.101 0-38.847 14.601-43.688 34.228-49.178 9.608-93.396 35.148-126.496 73.066-3.986-1.16-8.193-1.794-12.548-1.794-24.813 0-45 20.187-45 45 0 12.725 5.318 24.225 13.837 32.417-16.282 47.411-16.273 98.497.027 146.139-8.536 8.195-13.865 19.705-13.865 32.444 0 24.813 20.187 45 45 45 4.342 0 8.537-.63 12.512-1.783 32.909 37.787 77.136 63.312 126.524 73.019 4.829 19.645 22.583 34.264 43.697 34.264 21.101 0 38.847-14.601 43.688-34.228 49.178-9.608 93.396-35.148 126.496-73.066 3.986 1.16 8.193 1.794 12.548 1.794 24.813 0 45-20.187 45-45-.001-12.725-5.318-24.225-13.838-32.417zm-173.219 118.688c-7.224-15.219-22.738-25.771-40.675-25.771-17.923 0-33.428 10.535-40.659 25.736-40.804-8.623-77.394-29.735-105.093-60.637 5.05-7.273 8.02-16.093 8.02-25.599 0-24.813-20.187-45-45-45-1.228 0-2.441.063-3.644.16-12.934-39.646-12.948-81.887-.039-121.324 1.216.099 2.442.163 3.683.163 24.813 0 45-20.187 45-45 0-9.491-2.961-18.3-7.998-25.567 27.867-31.028 64.443-52.163 105.054-60.704 7.225 15.22 22.739 25.772 40.676 25.772 17.923 0 33.428-10.535 40.659-25.736 40.804 8.623 77.394 29.735 105.093 60.637-5.05 7.273-8.02 16.093-8.02 25.599 0 24.813 20.187 45 45 45 1.228 0 2.441-.063 3.644-.16 12.934 39.646 12.948 81.887.039 121.324-1.216-.099-2.442-.163-3.683-.163-24.813 0-45 20.187-45 45 0 9.491 2.961 18.3 7.998 25.567-27.868 31.027-64.444 52.162-105.055 60.703z"/></g></svg>