<svg id="Capa_1" enable-background="new 0 0 511.982 511.982" height="512" viewBox="0 0 511.982 511.982" width="512" xmlns="http://www.w3.org/2000/svg"><g><path d="m387.235 31.973c7.304-7.305 7.304-19.19 0-26.494-7.305-7.305-19.19-7.305-26.495 0-51.059 51.059-42.247 111.278-34.471 164.409 3.953 27.008 7.042 51.092 4.791 72.33-2.546 24.023-11.66 43.14-28.682 60.162-25.235 25.235-53.059 31.019-87.892 29.035.293 2.075.594 4.177.911 6.337 1.445 9.876 2.986 20.42 4.168 31.431 33.5 1.003 73.711-4.711 109.308-40.308 51.06-51.06 42.247-111.28 34.47-164.411-3.952-27.007-7.04-51.09-4.79-72.328 2.547-24.025 11.66-43.142 28.682-60.163z"/><path d="m119.865 358.2c-.293-2.075-.594-4.176-.91-6.336-1.445-9.876-2.987-20.42-4.168-31.431-33.501-1.003-73.712 4.711-109.308 40.307-7.305 7.305-7.305 19.19 0 26.494 7.304 7.304 19.19 7.304 26.494 0 25.235-25.234 53.058-31.018 87.892-29.034z"/><path d="m506.504 124.747c-7.304-7.304-19.19-7.304-26.494 0-25.235 25.235-53.058 31.019-87.892 29.035.293 2.075.594 4.176.91 6.336 1.445 9.876 2.987 20.42 4.168 31.431 33.501 1.003 73.712-4.711 109.308-40.307 7.304-7.305 7.304-19.19 0-26.495z"/><path d="m209.604 209.604c25.235-25.235 53.059-31.019 87.892-29.035-.293-2.075-.594-4.177-.911-6.337-1.445-9.876-2.986-20.42-4.168-31.431-33.5-1.003-73.711 4.711-109.308 40.308-51.06 51.06-42.247 111.28-34.47 164.411 3.952 27.007 7.04 51.09 4.79 72.328-2.546 24.023-11.66 43.14-28.681 60.161-7.304 7.305-7.304 19.19 0 26.494 7.305 7.305 19.19 7.305 26.495 0 51.059-51.059 42.247-111.278 34.471-164.409-3.953-27.008-7.042-51.092-4.791-72.33 2.545-24.022 11.659-43.139 28.681-60.16z"/><path d="m230.817 230.817c-3.784 3.784-6.958 7.626-9.595 11.618l48.326 48.326c3.971-2.634 7.821-5.8 11.617-9.596 3.784-3.784 6.958-7.626 9.595-11.618l-48.326-48.326c-3.971 2.634-7.821 5.8-11.617 9.596z"/><path d="m53.186 408.448c-3.7 3.7-7.856 6.67-12.285 8.929l53.703 53.703c2.259-4.428 5.229-8.584 8.929-12.285 3.784-3.784 6.957-7.626 9.594-11.618l-48.326-48.326c-3.969 2.635-7.819 5.801-11.615 9.597z"/><path d="m458.796 103.534c3.7-3.7 7.856-6.67 12.285-8.929l-53.703-53.703c-2.259 4.428-5.229 8.584-8.929 12.285-3.784 3.784-6.957 7.626-9.594 11.618l48.326 48.326c3.969-2.635 7.819-5.801 11.615-9.597z"/></g></svg>