<svg id="Capa_1" enable-background="new 0 0 510 510" height="512" viewBox="0 0 510 510" width="512" xmlns="http://www.w3.org/2000/svg"><g><path d="m198.697 198.106 26.492-7.098-7.765-28.978-34.979 9.373-37.071-21.403 37.071-21.403 34.979 9.373 7.765-28.978-26.492-7.098 7.098-26.493-28.978-7.764-9.372 34.979-37.071 21.404v-42.807l25.606-25.607-21.212-21.212-19.394 19.393-19.394-19.393-21.212 21.212 25.606 25.607v42.806l-37.071-21.403-9.373-34.979-28.978 7.764 7.099 26.493-26.492 7.098 7.764 28.978 34.98-9.373 37.071 21.403-37.071 21.403-34.98-9.373-7.764 28.978 26.492 7.098-7.099 26.493 28.978 7.764 9.373-34.979 37.071-21.404v42.807l-25.606 25.607 21.212 21.212 19.394-19.393 19.394 19.393 21.212-21.212-25.606-25.607v-42.807l37.071 21.404 9.372 34.979 28.978-7.764z"/><circle cx="339.441" cy="375" r="30"/><path d="m279.441 195h45v30h-45z"/><path d="m444.441 30h45v30h-45z"/><path d="m444.441 90h60v30h-60z"/><path d="m444.441 150h45v30h-45z"/><path d="m444.441 210h60v30h-60z"/><path d="m399.441 254.091v-194.091c0-33.137-26.863-60-60-60-33.138 0-60 26.863-60 60v105h75v151.898c25.849 6.678 45 30.195 45 58.102 0 33.084-26.916 60-60 60s-60-26.916-60-60c0-27.906 19.15-51.424 45-58.102v-61.898h-46.748c-43.46 22.454-73.252 67.802-73.252 120 0 74.44 60.561 135 135 135s135-60.56 135-135c0-52.898-30.588-98.78-75-120.909z"/></g></svg>