<svg id="Capa_1" enable-background="new 0 0 512 512" height="512" viewBox="0 0 512 512" width="512" xmlns="http://www.w3.org/2000/svg"><path d="m506.838 311.479-70.176-208.974c-11.516-34.283-43.551-57.317-79.716-57.317-30.821 0-58.529 17.125-72.312 44.692l26.834 13.416c8.668-17.338 26.094-28.108 45.479-28.108 23.264 0 43.87 14.816 51.276 36.869l43.712 130.139c-17.76-10.332-38.386-16.258-60.372-16.258-41.841 0-78.761 21.451-100.356 53.929-21.947-11.602-48.465-11.602-70.412 0-21.595-32.478-58.515-53.929-100.356-53.929-21.986 0-42.611 5.926-60.372 16.258l43.712-130.139c7.406-22.053 28.013-36.869 51.276-36.869 19.385 0 36.811 10.77 45.479 28.108l26.834-13.416c-13.783-27.567-41.491-44.692-72.312-44.692-36.165 0-68.2 23.034-79.716 57.317l-70.178 208.974c-3.352 11.05-5.162 22.765-5.162 34.896 0 66.41 54.028 120.438 120.438 120.438s120.438-54.028 120.438-120.438c0-13.877-2.367-27.21-6.705-39.626 13.544-7.453 30.117-7.453 43.661 0-4.338 12.416-6.705 25.749-6.705 39.626 0 66.41 54.028 120.438 120.438 120.438s120.435-54.028 120.435-120.438c0-12.131-1.81-23.846-5.162-34.896z"/></svg>