<?xml version="1.0" encoding="iso-8859-1"?>
<!-- Generator: Adobe Illustrator 19.0.0, SVG Export Plug-In . SVG Version: 6.00 Build 0)  -->
<svg xmlns="http://www.w3.org/2000/svg" xmlns:xlink="http://www.w3.org/1999/xlink" version="1.1" id="Layer_1" x="0px" y="0px" viewBox="0 0 512 512" style="enable-background:new 0 0 512 512;" xml:space="preserve">
<g>
	<g>
		<polygon points="347.826,83.478 347.826,189.217 314.435,189.217 314.435,222.609 414.609,222.609 414.609,83.478   "/>
	</g>
</g>
<g>
	<g>
		<path d="M347.826,0c0,0,0,19.677,0,50.087h66.783c0-30.472,0-50.087,0-50.087H347.826z"/>
	</g>
</g>
<g>
	<g>
		<path d="M347.826,256v122.435c0,36.883-29.9,66.783-66.783,66.783c-21.763,0-41.089-10.415-53.281-26.528    c-14.362,6.318-30.224,9.833-46.893,9.833c-8.475,0-16.739-0.915-24.706-2.637C175.301,476.223,223.99,512,281.043,512    c73.766,0,133.565-59.799,133.565-133.565V256H347.826z"/>
	</g>
</g>
<g>
	<g>
		<path d="M214.261,261.565v33.391h16.696v16.696c0,27.618-22.469,50.087-50.087,50.087c-27.618,0-50.087-22.469-50.087-50.087    v-16.696h16.696v-33.391H97.391v50.087c0,46.03,37.448,83.478,83.478,83.478s83.478-37.448,83.478-83.478v-50.087H214.261z"/>
	</g>
</g>
<g>
</g>
<g>
</g>
<g>
</g>
<g>
</g>
<g>
</g>
<g>
</g>
<g>
</g>
<g>
</g>
<g>
</g>
<g>
</g>
<g>
</g>
<g>
</g>
<g>
</g>
<g>
</g>
<g>
</g>
</svg>
