<svg id="Capa_1" enable-background="new 0 0 512 512" height="512" viewBox="0 0 512 512" width="512" xmlns="http://www.w3.org/2000/svg"><g><path d="m173.43 490.514v21.486h165.14v-21.486c0-8.169-1.091-16.236-3.223-24.086h-158.695c-2.131 7.849-3.222 15.917-3.222 24.086z"/><path d="m315.91 429.199c-14.813-18.174-35.496-32.04-59.91-40.183-24.414 8.143-45.097 22.009-59.91 40.183-1.923 2.36-3.723 4.772-5.409 7.229h130.639c-1.687-2.456-3.487-4.869-5.41-7.229z"/><path d="m196.09 82.801c14.813 18.174 35.496 32.04 59.91 40.183 24.414-8.143 45.097-22.009 59.91-40.183 1.923-2.36 3.723-4.772 5.409-7.229h-130.638c1.686 2.456 3.486 4.869 5.409 7.229z"/><path d="m335.348 45.572c2.132-7.85 3.223-15.917 3.223-24.086v-21.486h-165.141v21.486c0 8.169 1.091 16.236 3.223 24.086z"/><path d="m335.348 231.915h-158.696c-2.132 7.849-3.223 15.917-3.223 24.085s1.091 16.236 3.223 24.085h158.695c2.132-7.849 3.223-15.917 3.223-24.085s-1.091-16.236-3.222-24.085z"/><path d="m196.09 317.314c14.813 18.174 35.496 32.04 59.91 40.183 24.414-8.143 45.097-22.009 59.91-40.183 1.923-2.36 3.723-4.773 5.41-7.229h-130.64c1.686 2.457 3.487 4.87 5.41 7.229z"/><path d="m315.91 194.686c-14.813-18.174-35.496-32.04-59.91-40.183-24.414 8.143-45.097 22.009-59.91 40.183-1.923 2.36-3.723 4.773-5.41 7.229h130.64c-1.686-2.457-3.487-4.87-5.41-7.229z"/><path d="m117.42 201.915c-6.192-17.459-22.865-30-42.42-30-24.813 0-45 20.187-45 45s20.187 45 45 45c19.555 0 36.228-12.541 42.42-30h59.233c2.847-10.485 7.56-20.578 14.028-30z"/><path d="m117.42 436.428c-6.192-17.459-22.865-30-42.42-30-24.813 0-45 20.187-45 45s20.187 45 45 45c19.555 0 36.228-12.541 42.42-30h59.233c2.847-10.485 7.56-20.578 14.028-30z"/><path d="m394.58 75.572c6.192 17.459 22.865 30 42.42 30 24.813 0 45-20.187 45-45s-20.187-45-45-45c-19.555 0-36.228 12.541-42.42 30h-59.233c-2.847 10.485-7.56 20.578-14.028 30z"/><path d="m437 406.428c-19.555 0-36.228 12.541-42.42 30h-73.261c6.468 9.422 11.181 19.515 14.028 30h59.233c6.192 17.459 22.865 30 42.42 30 24.813 0 45-20.187 45-45s-20.187-45-45-45z"/><path d="m437 250.085c-19.555 0-36.228 12.541-42.42 30h-59.233c-2.847 10.485-7.56 20.578-14.028 30h73.26c6.192 17.459 22.865 30 42.42 30 24.813 0 45-20.187 45-45s-20.186-45-44.999-45z"/></g></svg>