<svg id="Capa_1" enable-background="new 0 0 510 510" height="512" viewBox="0 0 510 510" width="512" xmlns="http://www.w3.org/2000/svg"><g><path d="m240 150.988v-150.988h-45v92.887c0 27.906 19.15 51.424 45 58.101z"/><path d="m294.398 173.792c-24.788 12.119-53.956 12.145-78.797 0-7.464 51.172-7.473 111.114-.018 162.311 24.794-12.131 53.983-12.157 78.832 0 7.438-51.063 7.466-111.015-.017-162.311z"/><path d="m195 417v93h45v-151.102c-25.85 6.678-45 30.196-45 58.102z"/><path d="m165 86.666c-79.914 83.684-79.972 252.926 0 336.668.477-2.728-4.112-36.636 23.504-66.92-11.212-61.91-11.473-139.539.02-202.922-27.526-30.164-23.063-64.2-23.524-66.826z"/><path d="m270 358.898v151.102h45v-93c0-27.906-19.15-51.424-45-58.102z"/><path d="m345 86.666c-.447 2.55 4.033 36.627-23.523 66.827 11.224 61.901 11.498 139.531.02 202.922 27.502 30.159 23.03 64.216 23.504 66.919 79.912-83.681 79.972-252.923-.001-336.668z"/><path d="m270 150.988c25.85-6.678 45-30.195 45-58.102v-92.886h-45z"/></g></svg>