<svg id="Capa_1" enable-background="new 0 0 512 512" height="512" viewBox="0 0 512 512" width="512" xmlns="http://www.w3.org/2000/svg"><g><path d="m75 481h437v-90h-76c-41.367 0-75-33.647-75-75s33.633-75 75-75h76v-90h-467c-16.952 0-32.428-5.861-45-15.377v270.377c0 41.4 33.6 75 75 75zm181-150c-24.814 0-45-20.186-45-45 0-19.53 12.578-36.024 30-42.237v-32.162h30v32.162c17.422 6.213 30 22.707 30 42.237h-30c0-8.276-6.738-15-15-15s-15 6.724-15 15 6.738 15 15 15c24.814 0 45 20.186 45 45 0 19.53-12.578 36.024-30 42.237v31.562h-30v-31.562c-17.422-6.213-30-22.707-30-42.237h30c0 8.276 6.738 15 15 15s15-6.724 15-15-6.738-15-15-15z"/><path d="m391 316c0 24.814 20.186 45 45 45h76v-90h-76c-24.814 0-45 20.186-45 45zm60 15h-30v-30h30z"/><path d="m45 121h15v-60h391v60h61v-90h-467c-24.814 0-45 20.186-45 45s20.186 45 45 45z"/><path d="m90 91h331v30h-331z"/></g></svg>