<svg id="Capa_1" enable-background="new 0 0 512 512" height="512" viewBox="0 0 512 512" width="512" xmlns="http://www.w3.org/2000/svg"><g><circle cx="75.25" cy="406.625" r="30.125"/><circle cx="256" cy="122.263" r="30.125"/><path d="m477.7 128c-24.712-39.126-70.981-49.974-121.337-45.821-21.583-45.693-54.119-80.342-100.363-82.179-44.937 1.313-78.018 35.496-100.247 82.188-50.402-4.179-96.722 6.656-121.453 45.812-21.351 39.599-8.256 85.375 21.111 128-25.828 37.489-39.059 77.414-27.349 113.431 6.863-8.689 16.058-15.454 26.646-19.314-2.999-22.228 5.334-46.067 19.931-69.228 15.338 17.917 33.092 34.876 51.76 50.104 3.778 23.127 9.453 46.945 17.28 69.402-2.908.107-5.778.142-8.613.12.204 2.01.309 4.048.309 6.11 0 8.5-1.783 16.589-4.979 23.926 8.241.228 16.678-.023 25.242-.73 21.582 45.693 54.118 80.342 100.362 82.179 44.937-1.313 78.018-35.496 100.248-82.188 50.401 4.179 96.721-6.656 121.452-45.812 21.351-39.599 8.256-85.375-21.111-128 29.367-42.625 42.462-88.401 21.111-128zm-25.98 15c12.908 27.219 4.471 58.232-14.359 88.111-15.338-17.917-33.092-34.876-51.76-50.104-3.778-23.127-9.453-46.945-17.281-69.402 36.388-1.342 67.523 7.195 83.4 31.395zm-358.929 113c8.695-10.528 18.367-20.718 28.481-30.334-.644 10.399-.898 20.563-.772 30.334-.15 9.421.106 19.63.798 30.359-10.123-9.623-19.804-19.822-28.507-30.359zm33.489-74.895c-18.624 15.203-36.335 32.128-51.641 50.007-18.83-29.88-27.267-60.893-14.359-88.112 15.878-24.202 47.016-32.738 83.408-31.395-7.791 22.13-13.567 45.849-17.408 69.5zm36.003 176.353c8.711 5.778 17.414 11.1 25.967 15.892 8.107 4.855 17.106 9.752 26.777 14.531-13.543 3.945-27.197 7.132-40.549 9.321-4.778-12.648-8.842-26.054-12.195-39.744zm93.717 124.542c-28.9-1.647-51.861-24.347-68.893-56.535 23.415-4.46 46.933-11.471 68.893-19.785 22.033 8.342 45.634 15.372 69.126 19.83-16.461 31.245-39.101 54.058-69.126 56.49zm195.72-113c-15.878 24.202-47.016 32.738-83.407 31.395 2.023-5.746 3.901-11.603 5.649-17.535-9.796.367-20.758-2.046-29.404-6.438-2.093 7.064-4.387 14.029-6.908 20.801-13.393-2.189-27.091-5.384-40.676-9.342 12.803-6.309 22.864-12.169 35.484-19.583-7.623-6.581-13.588-15.029-17.156-24.639-17.276 10.229-37.49 21.179-59.302 29.911-19.26-7.86-37.31-16.86-52.75-26.2-14.361-7.845-31.56-19.154-49.091-32.788-2.805-20.539-4.028-40.6-3.659-58.582-.388-16.31.798-36.784 3.819-58.705 20.037-15.659 37.358-26.283 55.538-36.538-6.408-7.669-10.937-16.953-12.892-27.144-10.559 6.022-22.943 13.097-34.599 20.875 3.261-13.524 7.236-26.952 11.986-39.711 7.137 1.167 14.361 2.627 21.608 4.329.546-10.491 3.802-20.271 9.067-28.672-6.039-1.47-12.099-2.795-18.152-3.943 16.46-31.246 39.1-54.059 69.125-56.491 28.9 1.647 51.861 24.348 68.893 56.535-5.976 1.138-11.957 2.448-17.918 3.899 5.264 8.4 8.521 18.181 9.067 28.671 7.204-1.691 14.385-3.144 21.481-4.307 4.777 12.648 8.841 26.054 12.194 39.744-11.102-7.409-22.516-13.996-34.681-20.929-1.956 10.191-6.484 19.475-12.893 27.144 17.047 9.571 35.698 20.971 55.697 36.661 3.273 23.075 3.926 44.603 3.722 66.119 3.294-.561 6.674-.87 10.125-.87 6.933 0 13.589 1.194 19.792 3.363.091-11.637.199-26.188-.777-40.389 10.123 9.623 19.803 19.822 28.507 30.359-4.63 5.606-9.544 11.11-14.648 16.488 8.497 5.572 15.502 13.23 20.281 22.248 4.321-4.54 8.505-9.159 12.519-13.847 18.83 29.879 27.267 60.892 14.359 88.111z"/><circle cx="371.688" cy="322.792" r="30.125"/><circle cx="256" cy="256" r="48"/></g></svg>