<svg id="Capa_1" enable-background="new 0 0 512 512" height="512" viewBox="0 0 512 512" width="512" xmlns="http://www.w3.org/2000/svg"><g><path d="m228.185.28h55.629v51.479h-55.629z"/><path d="m198.185 0h-.91l-52.285 52.286v87.949h53.195z"/><path d="m367.01 140.235v-87.949l-52.286-52.286h-.91v140.235z"/><path d="m64.528 170.235v303.098l38.667 38.667h305.61l38.667-38.667v-303.098zm128.925 55.901c16.948-17.285 44.645-17.796 62.22-1.331 17.258-16.826 44.968-16.866 62.254.085 8.492 8.327 13.233 19.461 13.35 31.353s-4.403 23.117-12.73 31.609l-61.609 62.859-62.864-61.614c-17.531-17.188-17.808-45.432-.621-62.961zm-10.95 223.145-.191-30.414-14.492 24.407h-9.915l-14.492-23.358v29.365h-20.499v-66.74h18.496l21.738 35.563 21.167-35.563h18.496l.19 66.74zm105.923-15.397c-3.242 5.308-7.723 9.455-13.443 12.441-5.721 2.987-12.173 4.481-19.354 4.481-7.184 0-13.635-1.494-19.354-4.481-5.721-2.986-10.202-7.134-13.443-12.441-3.242-5.307-4.863-11.299-4.863-17.973s1.621-12.664 4.863-17.973c3.241-5.306 7.723-9.453 13.443-12.441 5.72-2.987 12.171-4.481 19.354-4.481 7.182 0 13.634 1.494 19.354 4.481 5.721 2.988 10.201 7.136 13.443 12.441 3.241 5.309 4.862 11.299 4.862 17.973s-1.621 12.666-4.862 17.973zm99.726-51.343.19 66.74h-20.498l-.191-30.414-14.492 24.407h-9.915l-14.492-23.358v29.365h-20.499v-66.74h18.496l21.738 35.563 21.167-35.563z"/><path d="m263.207 401.276c-2.257-1.366-4.783-2.05-7.579-2.05-2.798 0-5.324.684-7.58 2.05-2.257 1.367-4.052 3.306-5.387 5.815-1.335 2.512-2.002 5.451-2.002 8.819 0 3.37.667 6.309 2.002 8.819 1.335 2.512 3.13 4.45 5.387 5.815 2.256 1.368 4.782 2.05 7.58 2.05 2.796 0 5.322-.682 7.579-2.05 2.256-1.365 4.053-3.304 5.388-5.815 1.334-2.511 2.002-5.449 2.002-8.819 0-3.368-.668-6.308-2.002-8.819-1.335-2.509-3.132-4.447-5.388-5.815z"/><path d="m256.511 308.287 40.612-41.438c2.719-2.771 4.193-6.434 4.155-10.312s-1.585-7.511-4.354-10.227c-5.719-5.606-14.931-5.515-20.537.202l-20.253 20.7-20.711-20.265c-5.729-5.616-14.941-5.528-20.549.19-5.605 5.718-5.515 14.931.202 20.536z"/></g></svg>