<svg id="Capa_1" enable-background="new 0 0 512 512" height="512" viewBox="0 0 512 512" width="512" xmlns="http://www.w3.org/2000/svg"><g><path d="m403.079 222.574-.061 95.889c-.005 8.264-6.733 14.987-15 14.987h-15.641c-4.718-25.562-27.161-44.992-54.072-44.992h-47.6v-30.154h101.177v-142.15c.001-64.048-52.115-116.154-116.176-116.154s-116.177 52.106-116.177 116.155v142.15h101.177v30.154h-47.601c-26.911 0-49.354 19.43-54.072 44.992h-15.709c-4.009 0-7.776-1.561-10.609-4.396-2.834-2.835-4.393-6.603-4.391-10.611l.061-95.87h-59.562v29.994h29.542l-.041 65.857c-.007 12.023 4.67 23.327 13.17 31.831 8.501 8.504 19.805 13.188 31.83 13.188h14.781v44.992h102.601v36.106h-101.177v67.458h30v-37.464h71.177v37.464h30v-37.464h71.177v37.464h30v-67.458h-101.177v-36.106h102.6v-44.992h14.713c24.799 0 44.985-20.171 45-44.964l.041-65.912h30.117v-29.994z"/></g></svg>