<?xml version="1.0" encoding="iso-8859-1"?>
<!-- Generator: Adobe Illustrator 19.0.0, SVG Export Plug-In . SVG Version: 6.00 Build 0)  -->
<svg xmlns="http://www.w3.org/2000/svg" xmlns:xlink="http://www.w3.org/1999/xlink" version="1.1" id="Capa_1" x="0px" y="0px" viewBox="0 0 512 512" style="enable-background:new 0 0 512 512;" xml:space="preserve">
<g>
	<g>
		<path d="M222.062,429.979c0.311,3.523,0.402,5.67,0.418,6.103l0.604,16.202l-16.203-0.605c-0.432-0.016-2.579-0.107-6.1-0.417    l30.304,30.304l21.281-21.281L222.062,429.979z"/>
	</g>
</g>
<g>
	<g>
		<path d="M73.225,323.707l-53.501,3.988c7.954,19.21,19.198,39.219,35.092,56.944l2.762,3.079l27.653,8.653l1.103,15.893    l6.519,4.064c43.335,27.018,91.195,33.459,107.929,34.934L73.225,323.707z"/>
	</g>
</g>
<g>
	<g>
		<path d="M187.127,322.051l-4.063-6.519l-15.893-1.103l-8.652-27.653l-3.08-2.762c-17.725-15.894-37.733-27.138-56.944-35.092    l-3.989,53.502L222.061,429.98C220.586,413.245,214.145,365.385,187.127,322.051z"/>
	</g>
</g>
<g>
	<g>
		<path d="M16.205,229.805L0,229.199l0.605,16.204c0.065,1.742,1.049,23.987,9.041,52.863l55.299-4.122l4.122-55.298    C40.191,230.854,17.947,229.87,16.205,229.805z"/>
	</g>
</g>
<g>
	<g>
		<path d="M305.119,451.68l-16.203,0.604l0.604-16.202c0.016-0.432,0.107-2.579,0.418-6.102l-30.305,30.305l21.281,21.281    l30.304-30.304C307.699,451.572,305.552,451.664,305.119,451.68z"/>
	</g>
</g>
<g>
	<g>
		<path d="M413.505,248.923c-19.21,7.954-39.219,19.197-56.944,35.092l-3.08,2.762l-8.652,27.653l-15.893,1.103l-4.064,6.52    c-27.018,43.333-33.459,91.193-34.934,107.929l127.555-127.555L413.505,248.923z"/>
	</g>
</g>
<g>
	<g>
		<path d="M438.775,323.707L311.219,451.262c16.734-1.475,64.594-7.916,107.929-34.934l6.519-4.064l1.103-15.893l27.653-8.653    l2.762-3.079c15.894-17.725,27.138-37.733,35.092-56.943L438.775,323.707z"/>
	</g>
</g>
<g>
	<g>
		<path d="M495.796,229.805c-1.742,0.065-23.986,1.049-52.862,9.041l4.122,55.298l55.298,4.123    c7.993-28.876,8.977-51.121,9.041-52.863L512,229.2L495.796,229.805z"/>
	</g>
</g>
<g>
	<g>
		<path d="M317.508,30.433c-24.472,0-46.434,10.692-61.509,27.647c-15.073-16.954-37.037-27.647-61.509-27.647    c-45.448,0-82.291,36.843-82.291,82.291c0,51.087,61.622,101.069,93.679,125.862c20.759,16.056,50.12,35.114,50.12,35.114    s29.362-19.057,50.12-35.114c32.059-24.795,93.681-74.775,93.681-125.862C399.799,67.277,362.957,30.433,317.508,30.433z     M272.105,179.867C265.435,185.026,256,191.15,256,191.15s-9.434-6.124-16.105-11.282c-10.3-7.967-30.101-24.026-30.101-40.442    c0-14.603,11.838-26.442,26.442-26.442c7.863,0,14.92,3.436,19.763,8.884c4.844-5.448,11.9-8.884,19.763-8.884    c14.603,0,26.442,11.838,26.442,26.442C302.206,155.84,282.405,171.901,272.105,179.867z"/>
	</g>
</g>
<g>
</g>
<g>
</g>
<g>
</g>
<g>
</g>
<g>
</g>
<g>
</g>
<g>
</g>
<g>
</g>
<g>
</g>
<g>
</g>
<g>
</g>
<g>
</g>
<g>
</g>
<g>
</g>
<g>
</g>
</svg>
