<svg id="Capa_1" enable-background="new 0 0 512 512" height="512" viewBox="0 0 512 512" width="512" xmlns="http://www.w3.org/2000/svg"><g><path d="m113.56 384.714c-15.185-17.516-23.913-39.837-24.578-62.853-.583-20.217 4.839-39.752 15.31-56.426-9.933-15.855-15.352-34.325-15.352-53.425 0-44.412 29.014-82.551 69.495-95.76 1.733-6.748 4.152-13.224 7.174-19.351-10.176-6.157-22.108-9.704-34.87-9.704-37.254 0-67.455 30.201-67.455 67.455 0 .047.003.093.003.139-35.312 2.156-63.287 31.462-63.287 67.315 0 20.368 9.041 38.614 23.313 50.982-14.736 12.771-23.895 31.807-23.284 52.976.924 32.01 24.575 58.638 55.198 64.325-.122 1.217-.186 2.452-.186 3.701 0 20.276 16.437 36.713 36.713 36.713h60.829c-2.887-6.454-4.813-13.428-5.573-20.746-12.689-5.981-24.141-14.602-33.45-25.341z"/><path d="m488.687 273.087c14.272-12.368 23.313-30.614 23.313-50.983 0-35.853-27.975-65.159-63.286-67.314 0-.047.003-.093.003-.139 0-37.255-30.201-67.455-67.455-67.455-12.761 0-24.694 3.546-34.869 9.703 3.022 6.128 5.441 12.604 7.175 19.352 40.479 13.209 69.493 51.348 69.493 95.759 0 19.1-5.42 37.57-15.353 53.426 10.469 16.671 15.892 36.204 15.31 56.418-.662 23.016-9.39 45.339-24.574 62.857-9.31 10.74-20.763 19.362-33.452 25.344-.759 7.318-2.686 14.292-5.573 20.747h60.827c20.276 0 36.713-16.437 36.713-36.713 0-1.249-.064-2.484-.186-3.701 30.623-5.687 54.273-32.315 55.198-64.325.611-21.17-8.548-40.206-23.284-52.976z"/><path d="m393.03 320.991c.639-22.191-8.962-42.145-24.41-55.532 14.963-12.967 24.44-32.095 24.44-53.448 0-37.587-29.327-68.31-66.345-70.57 0-.049.004-.097.004-.146 0-39.057-31.661-70.718-70.718-70.718-39.056 0-70.718 31.661-70.718 70.718 0 .049.004.097.004.146-37.019 2.259-66.347 32.983-66.347 70.57 0 21.354 9.478 40.482 24.441 53.448-15.449 13.388-25.051 33.345-24.411 55.538.969 33.559 25.763 61.474 57.867 67.436-.128 1.276-.195 13.193-.195 14.502 0 21.257 17.232 38.488 38.488 38.488h81.74c21.256 0 38.488-17.232 38.488-38.488 0-1.31-.067-13.227-.195-14.503 32.107-5.962 56.901-33.881 57.867-67.441zm-93.967-48.063 17.314 24.5-45.376 32.066v29.279h-30v-29.16l-44.698-32.274 17.563-24.322 27.136 19.594v-34.975l-44.698-32.274 17.563-24.322 27.136 19.594v-42.755h30v42.904l28.062-19.831 17.314 24.5-45.376 32.066v35.243z"/></g></svg>