<svg id="Capa_1" enable-background="new 0 0 512 512" height="512" viewBox="0 0 512 512" width="512" xmlns="http://www.w3.org/2000/svg"><g><path d="m374.325 175.249c21.461-24.309 51.182-68.424 58.496-131.925l-29.803-3.433c-4.184 36.325-17.135 69.795-38.493 99.482-4.224 5.872-8.377 11.001-12.212 15.387 7.826 6.084 15.181 12.921 22.012 20.489z"/><path d="m414.553 356.097c-3 10.549-6.873 20.768-11.6 30.536 1.499 1.626 3.01 3.363 4.519 5.23 19.521 24.157 29.419 56.584 29.419 96.379h30c0-59.502-20.366-96.413-37.451-116.899-5.071-6.079-10.14-11.11-14.887-15.246z"/><path d="m419.656 271.702c1.55 9.998 2.344 20.205 2.344 30.541 0 .258-.008.515-.009.773 21.846 5.473 49.87 16.012 67.613 35.91l22.391-19.966c-25.594-28.702-65.594-41.598-92.339-47.258z"/><path d="m395.008 203.175c5.135 8.54 9.576 17.505 13.288 26.81 20.94-11.167 55.278-23.742 103.704-23.742v-30c-53.493 0-92.465 14.038-116.992 26.932z"/><path d="m159.687 154.759c-3.835-4.386-7.988-9.515-12.212-15.387-21.358-29.687-34.31-63.157-38.493-99.482l-29.803 3.433c7.314 63.502 37.035 107.617 58.496 131.925 6.831-7.567 14.186-14.404 22.012-20.489z"/><path d="m82.561 371.343c-17.085 20.487-37.452 57.397-37.452 116.9h30c0-39.795 9.898-72.222 29.419-96.379 1.509-1.867 3.021-3.604 4.519-5.231-4.727-9.769-8.601-19.987-11.6-30.536-4.747 4.136-9.816 9.167-14.886 15.246z"/><path d="m90 302.243c0-10.336.794-20.543 2.344-30.541-26.745 5.661-66.745 18.556-92.339 47.258l22.391 19.966c17.67-19.816 45.732-30.365 67.614-35.862-.002-.274-.01-.547-.01-.821z"/><path d="m0 206.243c48.427 0 82.764 12.575 103.704 23.742 3.712-9.305 8.153-18.27 13.288-26.81-24.527-12.894-63.499-26.932-116.992-26.932z"/><path d="m256 286.243c46.894 0 85.045-38.151 85.045-85.045 0-6.28-.684-12.498-2.031-18.558-22.968-19.681-51.757-31.397-83.014-31.397s-60.046 11.716-83.014 31.397c-1.347 6.06-2.031 12.279-2.031 18.558 0 46.894 38.151 85.045 85.045 85.045z"/><path d="m256 316.243c-57.294 0-104.935-42.101-113.624-96.99-14.139 23.815-22.376 52.332-22.376 82.99 0 83.395 60.889 151 136 151s136-67.605 136-151c0-30.658-8.237-59.175-22.376-82.99-8.689 54.889-56.33 96.99-113.624 96.99z"/><path d="m204.917 106.646c-.917 3.885-1.417 7.932-1.417 12.097 0 3.88.43 7.659 1.229 11.3 16.486-5.837 33.668-8.8 51.271-8.8s34.785 2.963 51.271 8.8c.799-3.641 1.229-7.419 1.229-11.3 0-4.165-.5-8.212-1.417-12.097 4.671-2.935 12.525-8.773 19.042-18.075 8.938-12.756 17.024-34.355 4.794-64.813l-27.84 11.18c5.642 14.048 5.316 26.025-.968 35.599-3.301 5.03-7.507 8.364-10.04 10.082-9.407-8.904-22.097-14.375-36.072-14.375s-26.665 5.471-36.072 14.375c-2.533-1.718-6.739-5.052-10.04-10.082-6.284-9.574-6.609-21.551-.968-35.599l-27.84-11.18c-12.23 30.458-4.144 52.057 4.794 64.813 6.518 9.302 14.372 15.14 19.044 18.075z"/></g></svg>