<svg id="Capa_1" enable-background="new 0 0 512.001 512.001" height="512" viewBox="0 0 512.001 512.001" width="512" xmlns="http://www.w3.org/2000/svg"><g><path d="m320.529 155.026c10.479 0 19.004-8.525 19.004-19.004s-8.525-19.004-19.004-19.004-19.004 8.525-19.004 19.004 8.525 19.004 19.004 19.004z"/><path d="m221.842 185.026c-10.479 0-19.004 8.525-19.004 19.004s8.525 19.004 19.004 19.004 19.004-8.525 19.004-19.004-8.525-19.004-19.004-19.004z"/><path d="m488.39 202.648c0-111.92-90.727-202.648-202.648-202.648-90.162 0-166.563 58.878-192.868 140.28l-9.76 60.392-59.504 98.703v29.92h47.385l20.165 110.149h112.918l17.139 72.557h228.022l-28.235-158.448c41.366-37.101 67.386-90.968 67.386-150.905zm-217.544 1.382c0 6.499-1.283 12.701-3.59 18.381l20.169 13.533c8.727-8.01 20.353-12.909 33.104-12.909 27.021 0 49.004 21.983 49.004 49.004s-21.983 49.004-49.004 49.004-49.004-21.983-49.004-49.004c0-3.41.352-6.738 1.018-9.953l-24.68-16.56c-7.546 4.749-16.465 7.509-26.02 7.509-27.021 0-49.004-21.983-49.004-49.004s21.983-49.004 49.004-49.004c9.499 0 18.37 2.726 25.888 7.423l24.781-16.627c-.646-3.168-.986-6.445-.986-9.801 0-27.021 21.983-49.004 49.004-49.004s49.004 21.983 49.004 49.004-21.983 49.004-49.004 49.004c-12.804 0-24.472-4.942-33.211-13.012l-20.116 13.497c2.341 5.718 3.643 11.968 3.643 18.519z"/><path d="m320.529 291.043c10.479 0 19.004-8.525 19.004-19.004s-8.525-19.004-19.004-19.004-19.004 8.525-19.004 19.004 8.525 19.004 19.004 19.004z"/></g></svg>