<svg id="Capa_1" enable-background="new 0 0 512 512" height="512" viewBox="0 0 512 512" width="512" xmlns="http://www.w3.org/2000/svg"><g><path d="m442.526 201.866c-19.964-.547-36.321 15.473-36.321 35.314v-11.041c0-19.25-15.093-35.521-34.335-36.049-19.965-.547-36.321 15.473-36.321 35.314l-.04-10.622c0-19.511-15.817-35.328-35.328-35.328s-35.328 15.817-35.328 35.328v-178.719c0-19.25-15.093-35.521-34.335-36.049-19.964-.547-36.321 15.473-36.321 35.314v223.347h-16.715c-17.6 0-31.867 14.267-31.867 31.867v55.835c0 91.471 74.152 165.622 165.622 165.622 91.471 0 165.622-74.152 165.622-165.622v-108.462c.002-19.249-15.09-35.521-34.333-36.049z"/><path d="m107.578 13.37c-7.501 17.696-11.305 36.488-11.305 55.854 0 19.365 3.804 38.157 11.305 55.854l27.621-11.708c-5.923-13.973-8.926-28.826-8.926-44.146 0-15.321 3.003-30.174 8.926-44.146z"/><path d="m48.713 2.146c-9.007 21.252-13.574 43.82-13.574 67.077s4.567 45.825 13.574 67.077l27.621-11.707c-7.429-17.528-11.195-36.157-11.195-55.37s3.767-37.842 11.195-55.37z"/><path d="m371.431 125.077c7.501-17.697 11.305-36.489 11.305-55.854 0-19.366-3.804-38.158-11.305-55.854l-27.621 11.709c5.923 13.972 8.926 28.825 8.926 44.146 0 15.32-3.003 30.173-8.926 44.146z"/><path d="m430.296 136.3c9.008-21.253 13.575-43.821 13.575-67.077s-4.567-45.824-13.575-67.077l-27.621 11.707c7.43 17.529 11.196 36.159 11.196 55.37s-3.767 37.84-11.196 55.37z"/></g></svg>