<svg id="Capa_1" enable-background="new 0 0 512 512" height="512" viewBox="0 0 512 512" width="512" xmlns="http://www.w3.org/2000/svg"><g><path d="m250.992 487.656c-3.263-3.547-6.347-7.222-9.264-11.004l-118.975.052v35.296h156.283c-10.144-6.978-19.561-15.121-28.044-24.344z"/><path d="m204.113 0h30v198.12h-30z"/><path d="m441.454 18.46-25.063-16.488-129.045 196.148h35.91z"/><path d="m28.454 1.972-25.063 16.488 118.198 179.66h35.91z"/><path d="m207.523 376.2v-44h207.21v-105.08h-384.62v165.6c0 30.327 24.673 55 55.007 55l138.702-.061c-10.651-22.084-16.299-46.438-16.299-71.459z"/><path d="m508.609 361.2h-100.249l82.539 81.936c11.266-19.767 17.71-42.613 17.71-66.936z"/><path d="m386.97 382.237v129.002c33.949-3.583 64.212-19.678 86.062-43.569z"/><path d="m356.97 383.42-84.913 84.293c.002.002.002.004 0 .006 22.255 24.341 52.323 39.678 84.913 43.397z"/><path d="m236.523 361.2v15c0 23.722 6.159 46.717 17.676 66.97l82.573-81.97z"/></g></svg>