<svg id="Capa_1" enable-background="new 0 0 510 510" height="512" viewBox="0 0 510 510" width="512" xmlns="http://www.w3.org/2000/svg"><g><path d="m293.787 360 60 60h-263.787c-12.457 0-23.162-7.633-27.691-18.467 16.246-6.796 27.691-22.85 27.691-41.533s-11.445-34.737-27.691-41.533c4.529-10.834 15.234-18.467 27.691-18.467h330c28.656 0 52.67-20.198 58.589-47.102 18.191-5.775 31.411-22.82 31.411-42.898s-13.22-37.123-31.411-42.898c-5.919-26.904-29.933-47.102-58.589-47.102h-281.18c7.43-17.32 11.18-32.376 11.18-45 0-41.355-33.645-75-75-75s-75 33.645-75 75c0 21.479 10.842 49.989 32.225 84.736 17.707 28.773 32.718 46.681 42.775 59.276 4.532-6.001 26.927-31.508 48.584-69.012h296.416c12.457 0 23.162 7.633 27.691 18.467-16.246 6.796-27.691 22.851-27.691 41.533s11.445 34.737 27.691 41.533c-4.529 10.834-15.234 18.467-27.691 18.467h-330c-28.656 0-52.67 20.198-58.589 47.102-18.19 5.775-31.411 22.82-31.411 42.898s13.221 37.123 31.411 42.898c5.919 26.904 29.933 47.102 58.589 47.102h263.787l-60 60h132.426l75-75-75-75zm-203.787-270h-30v-30h30z"/></g></svg>