<svg id="Capa_1" enable-background="new 0 0 512 512" height="512" viewBox="0 0 512 512" width="512" xmlns="http://www.w3.org/2000/svg"><g><path d="m428.406 188.496v66.393h30v-84.753c-7.235 9.441-17.838 16.16-30 18.36z"/><path d="m136.063 30v28.083h239.875v-28.083h52.469v62.61c12.162 2.2 22.765 8.919 30 18.36v-110.97h-404.813v30z"/><path d="m106.063 121.818h-18.735c-10.33 0-18.734 8.404-18.734 18.735s8.404 18.735 18.734 18.735h18.734v-37.47z"/><path d="m419.714 121.818h-13.776v37.47h13.776c10.331 0 18.735-8.404 18.735-18.735s-8.404-18.735-18.735-18.735z"/><path d="m430.386 322.779-34.735-11.514c-18.627 53.774-51.14 93.292-76.185 117.661-5.948 5.787-11.726 10.98-17.179 15.604h110.52z"/><path d="m296.74 340.677c13.256 8.776 29.347 14.936 43.02 16.721 10.451-16.079 20.122-34.631 27.415-55.572l-23.05-7.641c-19.876 13.268-43.427 22.181-68.975 25.177 4.239 7.351 11.607 14.706 21.59 21.315z"/><path d="m172.192 357.404c13.683-1.777 29.797-7.941 43.068-16.727 9.984-6.609 17.351-13.964 21.591-21.316-25.548-2.996-49.099-11.909-68.975-25.177l-23.059 7.644c7.221 20.783 16.79 39.306 27.375 55.576z"/><path d="m280.18 365.692c-3.251-2.152-6.31-4.383-9.18-6.681v72.195c8.176-6.241 17.954-14.389 28.229-24.449 6.592-6.454 13.763-14.089 21.023-22.856-13.735-3.79-27.788-10.076-40.072-18.209z"/><path d="m191.748 383.901c17.568 21.148 35.655 36.893 49.252 47.293v-72.182c-2.87 2.298-5.929 4.528-9.18 6.681-12.283 8.131-26.336 14.418-40.072 18.208z"/><path d="m458.824 335.751-20.037 138.78h-365.574l-20.037-138.78c-12.06 9.755-19.442 24.593-19.442 40.784v135.465h444.531v-135.465c.001-16.191-7.381-31.029-19.441-40.784z"/><path d="m99.193 444.531h110.52c-5.454-4.625-11.231-9.817-17.179-15.604-25.045-24.369-57.559-63.887-76.185-117.661l-34.735 11.514z"/><path d="m256 290.477c66.134 0 119.938-48.137 119.938-107.306v-95.088h-239.875v95.087c0 59.17 53.803 107.307 119.937 107.307zm42.168-164.924h33.734v30h-33.734zm-118.07 0h33.734v30h-33.734z"/></g></svg>