<svg id="Capa_1" enable-background="new 0 0 512 512" height="512" viewBox="0 0 512 512" width="512" xmlns="http://www.w3.org/2000/svg"><path d="m383.5 60v152h-30v-182h-45v182h-30v-212h-45v212h-30v-182h-45v272h-30v-105c0-24.853-20.147-45-45-45 0 3.704 0 167.941 0 160.195 0 61.271 37.912 113.386 90 135.19v64.615h225v-69.038c19.131-21.387 30-49.556 30-78.267v-304.695zm-180 308.211-21.211-21.211 21.211-21.211 21.211 21.211zm60-132.422 21.211 21.211-21.211 21.211-21.211-21.211zm-21.211 111.211 21.211-21.211 21.211 21.211-21.211 21.211zm51.211 111.211-21.211-21.211 21.211-21.211 21.211 21.211zm8.789-141.211 21.211-21.211 21.211 21.211-21.211 21.211zm51.211 81.211-21.211-21.211 21.211-21.211 21.211 21.211zm0-120-21.211-21.211 21.211-21.211 21.211 21.211z"/></svg>