<svg id="Capa_1" enable-background="new 0 0 512 512" height="512" viewBox="0 0 512 512" width="512" xmlns="http://www.w3.org/2000/svg"><g><path d="m153.067 230.667c-1.999 8.121-3.067 16.604-3.067 25.333s1.068 17.212 3.067 25.333h205.865c2-8.121 3.068-16.604 3.068-25.333s-1.068-17.212-3.067-25.333z"/><path d="m256 150c-38.184 0-71.713 20.297-90.376 50.667h180.752c-18.663-30.37-52.192-50.667-90.376-50.667z"/><path d="m256 362c38.184 0 71.713-20.297 90.376-50.667h-180.752c18.663 30.37 52.192 50.667 90.376 50.667z"/><path d="m256 120c38.184 0 71.713-20.297 90.376-50.667h-180.752c18.663 30.37 52.192 50.667 90.376 50.667z"/><path d="m153.067 39.333h205.865c2-8.121 3.068-16.604 3.068-25.333v-14h-212v14c0 8.729 1.068 17.212 3.067 25.333z"/><path d="m358.933 472.667h-205.866c-1.999 8.121-3.067 16.604-3.067 25.333v14h212v-14c0-8.729-1.068-17.212-3.067-25.333z"/><path d="m256 392c-38.184 0-71.713 20.297-90.376 50.667h180.752c-18.663-30.37-52.192-50.667-90.376-50.667z"/><path d="m425.697 157.997-25.955 15.043c14.562 25.124 22.258 53.811 22.258 82.96s-7.696 57.836-22.258 82.96l25.955 15.043c17.208-29.689 26.303-63.578 26.303-98.003s-9.095-68.314-26.303-98.003z"/><path d="m477.648 128.002-25.955 15.044c19.828 34.207 30.307 73.267 30.307 112.954s-10.479 78.747-30.307 112.954l25.955 15.044c22.473-38.773 34.352-83.034 34.352-127.998s-11.879-89.225-34.352-127.998z"/><path d="m86.303 157.997c-17.208 29.689-26.303 63.578-26.303 98.003s9.095 68.314 26.303 98.003l25.955-15.043c-14.562-25.124-22.258-53.811-22.258-82.96s7.696-57.836 22.258-82.96z"/><path d="m60.307 143.046-25.955-15.044c-22.473 38.773-34.352 83.034-34.352 127.998s11.879 89.225 34.352 127.998l25.955-15.044c-19.828-34.207-30.307-73.266-30.307-112.954s10.479-78.747 30.307-112.954z"/></g></svg>