<svg id="Capa_1" enable-background="new 0 0 512 512" height="512" viewBox="0 0 512 512" width="512" xmlns="http://www.w3.org/2000/svg"><g><path d="m328.84 435.201c-13.81-13.81-34.367-16.579-51.079-8.653l-44.218-44.513c3.997-2.956 8.075-5.587 11.851-9.362 28.275-28.275 29.575-73.645 27.658-99.621 25.975 1.916 71.346.616 99.621-27.658 31.644-31.644 32.889-72.201 29.726-97.553 25.353 3.163 65.909 1.918 97.553-29.726l10.607-10.607-21.213-21.213-10.607 10.607c-3.734 3.734-7.715 6.773-11.808 9.405l-61.237-61.237c2.632-4.093 5.671-8.074 9.405-11.808l10.607-10.607-21.214-21.213-10.607 10.607c-31.644 31.644-32.889 72.201-29.726 97.553-15.612-1.947-36.797-2.248-58.402 5.237l-50.305-50.599c7.926-16.713 5.157-37.269-8.653-51.079-17.546-17.546-46.093-17.546-63.64 0s-17.546 46.093 0 63.64c13.81 13.81 34.367 16.579 51.079 8.653l44.218 44.513c-3.997 2.956-8.075 5.587-11.851 9.362-28.275 28.275-29.575 73.645-27.658 99.621-25.975-1.916-71.346-.616-99.621 27.658-31.644 31.644-32.889 72.201-29.726 97.553-25.353-3.163-65.909-1.918-97.553 29.726l-10.605 10.605 21.213 21.213 10.607-10.607c3.734-3.734 7.715-6.773 11.808-9.405l61.237 61.237c-2.632 4.093-5.671 8.074-9.405 11.808l-10.607 10.607 21.213 21.213 10.607-10.607c31.644-31.644 32.889-72.201 29.726-97.553 15.612 1.947 36.797 2.248 58.402-5.237l50.305 50.599c-7.926 16.713-5.157 37.269 8.653 51.079 17.546 17.546 46.093 17.546 63.64 0 17.546-17.545 17.546-46.092-.001-63.638zm-168.299-147.381c3.615-3.615 7.879-6.4 12.364-8.85l60.126 60.126c-2.45 4.485-5.235 8.749-8.85 12.364-3.734 3.734-7.715 6.773-11.808 9.405l-61.237-61.237c2.632-4.093 5.671-8.074 9.405-11.808zm108.772-82.147 37.014 37.014c-14.31 1.647-28.068.966-37.038.023-.942-8.969-1.623-22.727.024-37.037zm-26.626 100.654-37.014-37.014c14.31-1.647 28.068-.966 37.038-.023.942 8.969 1.623 22.727-.024 37.037zm193.173-188.665c-16.379 2.494-31.545.539-40.245-1.278-1.817-8.699-3.772-23.866-1.278-40.245zm-64.917 23.395c1.817 8.699 3.772 23.866 1.278 40.245l-41.523-41.523c16.379-2.493 31.545-.538 40.245 1.278zm-10.078 71.315c-2.632 4.093-5.671 8.074-9.405 11.808-3.615 3.615-7.879 6.4-12.364 8.85l-60.126-60.126c2.45-4.485 5.235-8.749 8.85-12.364 3.734-3.734 7.715-6.773 11.808-9.405zm-284.725 181.966c16.379-2.494 31.545-.539 40.245 1.278 1.817 8.699 3.772 23.866 1.278 40.245zm64.917-23.395c-1.817-8.699-3.772-23.866-1.278-40.245l41.523 41.523c-16.379 2.493-31.545.538-40.245-1.278z"/></g></svg>