<svg id="Capa_1" enable-background="new 0 0 512 512" height="512" viewBox="0 0 512 512" width="512" xmlns="http://www.w3.org/2000/svg"><g><path d="m0 334.333h512v50h-512z"/><path d="m350.741 414.333h-189.482v67.667h-78.127v30h345.736v-30h-78.127z"/><path d="m23.889 151.343c-15.852 8.798-23.889 19.496-23.889 31.798 0 13.098 9.134 24.377 27.146 33.526 13.291 6.75 31.894 12.722 55.29 17.748 4.713 1.013 9.589 1.977 14.601 2.896-7.308-10.608-13.311-22.153-17.808-34.391-35.174-8.495-45.807-16.938-48.565-19.841 3.072-3.351 13.801-10.366 39.939-17.498-.011-.106-.011-.213-.014-.319 1.304 13.063 4.244 25.693 8.64 37.658 5.333 1.288 11.216 2.577 17.736 3.848 43.483 8.477 99.963 13.146 159.034 13.146v30c-58.775 0-114.504-4.448-158.962-12.603 27.73 40.252 74.135 67.022 127.417 67.022h63.091c76.012 0 138.027-54.478 151.782-124.869-3.159.76-6.406 1.503-9.764 2.224-46.523 9.995-108.163 15.499-173.563 15.499v-30c59.071 0 115.551-4.668 159.034-13.145 10.612-2.069 19.563-4.185 27.127-6.266-.075-5.324-.415-10.698-1.052-16.113l-2.292-19.495c27.978 7.359 39.34 14.705 42.519 18.185-2.494 2.625-11.433 9.79-39.176 17.424.154 10.823-.828 21.424-2.834 31.689 18.851-4.534 34.143-9.742 45.526-15.524 18.014-9.15 27.148-20.43 27.148-33.528 0-12.524-8.335-23.386-24.774-32.284-11.885-6.432-28.526-12.196-49.455-17.139v.002c.368-5.529 1.029-11.042 1.991-16.513l11.336-64.48h-390.196l5.104 29.028c-17.593 4.596-31.749 9.826-42.117 15.581-15.852 8.797-23.889 19.495-23.889 31.797 0 13.098 9.134 24.377 27.146 33.526 11.176 5.676 26.122 10.799 44.502 15.275l1.869-15.902c.559-4.754.87-9.526.986-14.3-31.409-8.085-41.21-15.893-43.84-18.661 3.097-3.376 13.978-10.474 40.557-17.662l1.02 5.798c1.773 10.086 2.513 20.311 2.265 30.525 6.52 1.678 13.948 3.368 22.462 5.028 43.483 8.477 99.963 13.146 159.034 13.146v30c-65.4 0-127.04-5.504-173.563-15.499-3.723-.8-7.31-1.626-10.788-2.473l-.759 6.454c-.117 1-.209 1.995-.307 2.992.001-.018 0-.036.002-.054-19.732 4.87-35.444 10.499-46.697 16.744z"/></g></svg>