<svg id="Capa_1" enable-background="new 0 0 512 512" height="512" viewBox="0 0 512 512" width="512" xmlns="http://www.w3.org/2000/svg"><g><g><path d="m241 242h30v150h-30z"/><path d="m121 89h270v63h-270z"/><path d="m377.099 414.09c-7.911-28.887-16.099-58.77-16.099-97.09 0-34.614 6.768-51.519 13.931-69.434 6.85-17.13 13.89-34.823 15.641-65.566h-269.144c1.75 30.743 8.791 48.437 15.641 65.566 7.163 17.915 13.931 34.82 13.931 69.434 0 38.32-8.188 68.203-16.099 97.09-4.321 15.747-8.394 30.63-11.001 46.245-2.109 12.729 1.494 25.737 9.917 35.654 8.614 10.181 21.226 16.011 34.585 16.011h175.195c13.359 0 25.972-5.83 34.585-16.011 8.423-9.917 12.026-22.925 9.917-35.669-2.607-15.6-6.679-30.483-11-46.23zm-76.099 7.91h-90v-210h90z"/></g><path d="m350.459 59c-5.089-10.637-11.653-20.618-20.25-29.209-19.849-19.863-47.029-29.791-74.209-29.791s-54.36 9.928-74.209 29.791c-8.597 8.591-15.161 18.572-20.25 29.209z"/></g></svg>