<svg id="Capa_1" enable-background="new 0 0 512 512" height="512" viewBox="0 0 512 512" width="512" xmlns="http://www.w3.org/2000/svg"><g><path d="m405.938 221.141c0 10.33 8.404 18.734 18.734 18.734h87.328c0-12.175 0-24.791 0-37.469h-87.328c-10.33.001-18.734 8.405-18.734 18.735z"/><path d="m256 269.876c-32.136 0-61.923 14.516-81.725 39.827s-26.723 57.716-18.989 88.907l28.114 113.39h145.2l28.114-113.391c7.733-31.191.813-63.597-18.989-88.907s-49.589-39.826-81.725-39.826z"/><path d="m0 172.407h87.328c26.872 0 48.734 21.862 48.734 48.734s-21.862 48.734-48.734 48.734h-87.328v64.249l87.596 67.255c17.78 13.829 34.203 29.481 49.009 46.546l-10.438-42.097c-9.969-40.21-1.046-81.984 24.48-114.612s63.926-51.34 105.353-51.34 79.826 18.713 105.353 51.341 34.449 74.402 24.48 114.612l-10.438 42.097c14.806-17.066 31.229-32.717 49.009-46.546l87.596-67.255c0-11.407 0-35.159 0-64.249h-87.328c-26.872 0-48.734-21.862-48.734-48.734s21.862-48.734 48.734-48.734h87.328c0-12.901 0-25.533 0-37.469h-512z"/><path d="m106.063 221.141c0-10.33-8.404-18.734-18.734-18.734h-87.329v37.469h87.328c10.33 0 18.735-8.405 18.735-18.735z"/><path d="m0 67.469h512v37.469h-512z"/><path d="m34.859 0h442.281v37.469h-442.281z"/></g></svg>