<svg id="Capa_1" enable-background="new 0 0 512.035 512.035" height="512" viewBox="0 0 512.035 512.035" width="512" xmlns="http://www.w3.org/2000/svg"><g><path d="m72.103 69.504c17.698 4.268 36.445 11.961 52.85 25.423 8.907-14.753 18.893-28.466 29.869-41.063-17.965-18.028-46.892-28.461-64.266-32.87-11.95 18.015-16.623 36.719-18.453 48.51z"/><path d="m387.083 94.927c16.388-13.448 35.113-21.139 52.795-25.41-1.869-11.835-6.566-30.586-18.367-48.461-6.032 1.542-14.576 4.046-23.873 7.764-12.532 5.011-28.619 13.134-40.437 25.029 10.981 12.6 20.971 26.318 29.882 41.078z"/><path d="m85.892 193.328c3.106-14.72 10.08-41.151 24.453-71.269-28.158-26.554-70.133-28.138-89.471-27.244-5.827 43.124 11.652 86.302 20.563 104.864 15.337-3.078 30.162-5.197 44.455-6.351z"/><path d="m401.69 122.059c14.374 30.118 21.347 56.549 24.454 71.269 14.292 1.154 29.118 3.273 44.455 6.351 8.906-18.55 26.391-61.735 20.563-104.866-19.308-.896-61.303.682-89.472 27.246z"/><path d="m184.002 66.18c-3.662 3.89-7.207 7.925-10.645 12.085 42.696 40.468 68.454 96.282 82.661 136.529 14.214-40.267 39.992-96.117 82.727-136.59-22.714-27.534-50.371-49.089-82.724-64.387-27.219 12.892-51.423 30.486-72.019 52.363z"/><path d="m284.946 223.442c18.431-11.851 39.24-20.407 62.289-25.539 15.085-3.359 31.063-5.209 47.891-5.559-3.542-14.521-10.294-36.846-22.451-61.363-4.925-9.933-10.282-19.371-16.058-28.316-36.049 35.529-58.732 84.626-71.671 120.777z"/><path d="m138.898 131.913c-11.93 24.275-18.541 46.151-22.016 60.43 16.838.349 32.825 2.2 47.917 5.561 23.049 5.132 43.858 13.688 62.289 25.539-12.935-36.139-35.606-85.214-71.635-120.741-6.007 9.264-11.541 19.01-16.555 29.211z"/><path d="m256.018 422.84c-15.478 13.962-33.315 23.927-53.367 29.855 9.264 15.523 26.738 37.981 53.367 45.524 26.624-7.542 44.096-29.992 53.365-45.524-20.051-5.929-37.888-15.894-53.365-29.855z"/><path d="m267.521 278.443-11.504 13.746-11.504-13.746c-60.998-72.892-163.099-62.428-244.513-37.133 34.894 53.682 35.455 109.107 34.432 128.055 12.296 14.141 56.983 59.829 120.908 59.829 37.044 0 67.158-12.65 89.505-37.599l11.173-12.475 11.173 12.475c22.347 24.949 52.461 37.599 89.505 37.599 64.262 0 108.668-45.624 120.909-59.799-1.025-18.917-.482-74.373 34.431-128.084-81.418-25.296-183.516-35.761-244.515 37.132zm-45.262 73.401c-.976 1.498-21.889 32.801-61.961 32.801-5.092 0-10.488-.505-16.197-1.64-50.64-10.073-59.914-56.718-60.284-58.699l-1.104-5.907 3.28-5.035c1.1-1.688 27.521-41.23 78.158-31.161 50.64 10.073 59.914 56.718 60.284 58.699l1.104 5.907zm205.96-27.538c-.37 1.981-9.645 48.626-60.284 58.699-5.706 1.135-11.108 1.64-16.197 1.64-40.078 0-60.985-31.303-61.961-32.801l-3.28-5.035 1.104-5.907c.37-1.981 9.645-48.626 60.284-58.699 50.651-10.069 77.059 29.473 78.158 31.161l3.28 5.035z"/><path d="m353.737 311.628c-21.979 4.372-31.194 19.926-34.711 28.682 6.659 6.786 21.163 17.627 43.055 13.271 21.979-4.372 31.194-19.926 34.711-28.682-6.659-6.786-21.166-17.629-43.055-13.271z"/><path d="m158.298 311.628c-21.861-4.35-36.361 6.458-43.031 13.247 3.564 8.823 12.819 24.357 34.688 28.707 21.856 4.349 36.36-6.459 43.031-13.247-3.565-8.824-12.82-24.358-34.688-28.707z"/></g></svg>