<?xml version="1.0" encoding="iso-8859-1"?>
<!-- Generator: Adobe Illustrator 19.0.0, SVG Export Plug-In . SVG Version: 6.00 Build 0)  -->
<svg xmlns="http://www.w3.org/2000/svg" xmlns:xlink="http://www.w3.org/1999/xlink" version="1.1" id="Layer_1" x="0px" y="0px" viewBox="0 0 512 512" style="enable-background:new 0 0 512 512;" xml:space="preserve">
<g>
	<g>
		<path d="M256,346.102c-12.995,0-25.685-1.326-37.945-3.848L256,443.584l37.945-101.33    C281.685,344.775,268.995,346.102,256,346.102z"/>
	</g>
</g>
<g>
	<g>
		<path d="M400.936,277.742c-12.817,15.493-28.071,28.895-45.16,39.636l20.044,18.878l-28.061,35.522l18.442,25.703l-95.199,66.196    V512H471.88V379.627C471.88,332.972,442.314,293.096,400.936,277.742z"/>
	</g>
</g>
<g>
	<g>
		<path d="M145.8,397.481l18.442-25.703l-28.061-35.522l20.044-18.878c-17.089-10.74-32.343-24.143-45.16-39.636    c-41.378,15.354-70.944,55.23-70.944,101.885V512h200.879v-48.323L145.8,397.481z M166.356,463.959H89.149v-30.001h77.207V463.959    z"/>
	</g>
</g>
<g>
	<g>
		<path d="M256,0c-64.161,0-119.512,38.433-144.25,93.483c8.777,2.576,17.882,3.887,27.13,3.887    c23.146,0,45.511-8.336,62.977-23.474l10.56-9.151l9.876,9.884c23.808,23.825,55.469,36.947,89.149,36.947    c30.296,0,59.568-10.904,82.44-30.702C366.784,32.655,315.139,0,256,0z"/>
	</g>
</g>
<g>
	<g>
		<path d="M406.37,109.372c-27.149,20.824-60.504,32.205-94.927,32.205c-37.237,0-72.48-12.956-100.587-36.734    c-21.033,14.606-46.134,22.528-71.975,22.528c-12.532,0-24.873-1.843-36.758-5.459c-2.726,11.611-4.173,23.708-4.173,36.138    c0,87.15,70.901,158.051,158.05,158.051c87.15,0,158.05-70.901,158.05-158.05C414.05,141.072,411.348,124.714,406.37,109.372z"/>
	</g>
</g>
<g>
</g>
<g>
</g>
<g>
</g>
<g>
</g>
<g>
</g>
<g>
</g>
<g>
</g>
<g>
</g>
<g>
</g>
<g>
</g>
<g>
</g>
<g>
</g>
<g>
</g>
<g>
</g>
<g>
</g>
</svg>
