<svg id="Capa_1" enable-background="new 0 0 510 510" height="512" viewBox="0 0 510 510" width="512" xmlns="http://www.w3.org/2000/svg"><g><path id="XMLID_43_" d="m420 225h90v120h-90z"/><path id="XMLID_786_" d="m0 225h90v120h-90z"/><path id="XMLID_801_" d="m300 180h-30v75h30v30h-90v-30h30v-75h-30v-30h-75v360h77v-150h-32v-30h150v30h-32v150h77v-360h-75z"/><path d="m241 360h30v150h-30z"/><path id="XMLID_802_" d="m450 195h30v-75h-105v30h75z"/><path id="XMLID_821_" d="m30 120v75h30v-45h75v-30z"/><path id="XMLID_834_" d="m240 120h30v30h-30z"/><path id="XMLID_836_" d="m210 90h90v30h75c0-66.274-53.726-120-120-120-66.274 0-120 53.726-120 120h75z"/></g></svg>