<svg id="Capa_1" enable-background="new 0 0 512 512" height="512" viewBox="0 0 512 512" width="512" xmlns="http://www.w3.org/2000/svg"><g><g><path d="m187.661 357.498c24.414-8.144 45.097-22.009 59.91-40.183 1.923-2.359 3.723-4.772 5.409-7.228l-130.638-.001c1.686 2.456 3.486 4.869 5.409 7.229 14.813 18.174 35.497 32.039 59.91 40.183z"/><path d="m108.314 466.428c-2.132 7.85-3.223 15.917-3.223 24.086v21.486h165.14v-21.486c0-8.169-1.091-16.236-3.223-24.086z"/><path d="m187.661 154.502c-24.413 8.144-45.098 22.01-59.91 40.183-1.923 2.36-3.723 4.772-5.409 7.228l130.636-.003c-1.686-2.455-3.485-4.867-5.407-7.226-14.813-18.173-35.496-32.038-59.91-40.182z"/><path d="m247.571 429.199c-14.813-18.175-35.496-32.04-59.91-40.184-24.414 8.143-45.097 22.009-59.91 40.184-1.923 2.36-3.723 4.772-5.409 7.229h130.638c-1.686-2.456-3.486-4.869-5.409-7.229z"/><path d="m105.091 21.486c0 8.169 1.091 16.236 3.223 24.086h158.694c2.132-7.85 3.223-15.917 3.223-24.086v-21.486h-165.14z"/><path d="m127.751 82.801c14.813 18.174 35.496 32.04 59.91 40.183 24.413-8.144 45.098-22.01 59.91-40.183 1.923-2.36 3.723-4.772 5.409-7.229h-130.638c1.686 2.456 3.486 4.869 5.409 7.229z"/><path d="m346.909 240.999h60v30h-60z"/><path d="m317.886 170.933h60v30h-60z" transform="matrix(.707 -.707 .707 .707 -29.581 300.451)"/><path d="m332.887 296.065h30v60h-30z" transform="matrix(.707 -.707 .707 .707 -128.669 341.492)"/></g><path d="m264.945 255.924c0-8.169-1.091-16.236-3.223-24.086l-153.408.076c-2.132 7.85-3.223 15.917-3.223 24.086s1.091 16.236 3.223 24.086l153.408-.076c2.132-7.85 3.223-15.917 3.223-24.086z"/></g></svg>