<svg id="Capa_1" enable-background="new 0 0 512.066 512.066" height="512" viewBox="0 0 512.066 512.066" width="512" xmlns="http://www.w3.org/2000/svg"><g><path d="m154.144 390.329c-3.266-.01-6.525-.157-9.777-.431 3.267 11.235 8.259 21.958 14.907 31.82 9.361 13.886 14.309 30.077 14.309 46.824v43.49h30v-43.49c0-22.745-6.72-44.735-19.434-63.594-3.5-5.192-6.382-10.706-8.62-16.45-6.965 1.219-13.977 1.831-21.025 1.831-.121 0-.238 0-.36 0z"/><path d="m386.701 389.749c3.266 11.289 8.272 22.064 14.95 31.969 9.361 13.886 14.309 30.078 14.309 46.824v43.49h30v-43.49c0-22.744-6.72-44.734-19.434-63.594-3.579-5.308-6.507-10.956-8.766-16.84-6.787 1.465-13.647 2.221-20.543 2.221-3.517 0-7.024-.196-10.516-.58z"/><circle cx="154.841" cy="121.131" r="43.582"/><path d="m252.366 206.783c0-42.301 18.229-80.423 47.242-106.929-10.358-27.13-28.518-51.326-51.868-68.867-26.822-20.15-58.788-30.854-92.442-30.953-.151 0-.314-.001-.465-.001-85.172 0-154.58 69.155-154.832 154.383-.128 43.426 17.72 95.872 46.581 136.871 14.767 20.978 31.998 38.293 49.83 50.076 18.96 12.527 38.414 18.909 57.822 18.966h.266c21.764 0 43.5-7.889 64.616-23.45 18.123-13.357 35.17-32.089 49.618-54.459-10.516-25.14-16.368-51.503-16.368-75.637zm-82.525-13.612v39.028h35.615v30h-35.615v35.615h-30v-35.615h-35.615v-30h35.615v-39.028c-33.404-6.946-58.582-36.606-58.582-72.04 0-40.573 33.008-73.582 73.582-73.582s73.582 33.008 73.582 73.582c-.001 35.434-25.179 65.094-58.582 72.04z"/><path d="m397.217 227.071c-14.987 0-27.179 12.192-27.179 27.179s12.192 27.179 27.179 27.179c14.986 0 27.179-12.192 27.179-27.179-.001-14.986-12.193-27.179-27.179-27.179z"/><path d="m397.217 360.329c27.59 0 56.595-18.607 79.577-51.051 21.757-30.714 35.272-69.988 35.272-102.496 0-63.329-51.521-114.85-114.85-114.85s-114.85 51.521-114.85 114.85c0 32.507 13.516 71.782 35.272 102.496 22.983 32.444 51.988 51.051 79.579 51.051zm-48.744-182.001c0-26.877 21.866-48.743 48.743-48.743s48.743 21.866 48.743 48.743c0 12.277-4.572 23.499-12.09 32.079 12.536 10.497 20.526 26.252 20.526 43.844 0 31.529-25.65 57.179-57.179 57.179s-57.179-25.65-57.179-57.179c0-17.591 7.99-33.347 20.526-43.844-7.518-8.58-12.09-19.802-12.09-32.079z"/><circle cx="397.217" cy="178.328" r="18.743"/></g></svg>