<svg id="Capa_1" enable-background="new 0 0 510 510" height="512" viewBox="0 0 510 510" width="512" xmlns="http://www.w3.org/2000/svg"><g><circle cx="255" cy="105" r="15"/><path d="m240 360h30v75h-30z"/><path d="m210 330h90v105h60v-435h-210v435h60zm60-30h-30v-30h30zm0-60h-30v-30h30zm60 60h-30v-30h30zm0-60h-30v-30h30zm-75-180c24.814 0 45 20.188 45 45 0 19.555-12.541 36.228-30 42.42v32.58h-30v-32.58c-17.459-6.192-30-22.865-30-42.42 0-24.812 20.187-45 45-45zm-75 150h30v30h-30zm0 60h30v30h-30z"/><path d="m0 465h510v45h-510z"/><path d="m120 180v-60h-120v60z"/><path d="m120 210c-16.692 0-103.246 0-120 0v225h120zm-45 180h-30v-30h30zm0-60h-30v-30h30zm0-60h-30v-30h30z"/><path d="m390 120v60h120v-60z"/><path d="m390 210v225h120v-225c-10.755 0-103.179 0-120 0zm45 30h30v30h-30zm0 60h30v30h-30zm0 60h30v30h-30z"/></g></svg>