<svg id="Capa_1" enable-background="new 0 0 512 512" height="512" viewBox="0 0 512 512" width="512" xmlns="http://www.w3.org/2000/svg"><g><path d="m241 450h30v62h-30z"/><path d="m346 60h-45v-15c0-24.814-20.186-45-45-45s-45 20.186-45 45v15h-45c-41.4 0-75 33.6-75 75v240c0 41.4 33.6 75 75 75h75v-60h-90v-240h15c42.568 0 63.311-6.914 85.254-14.224 23.262-7.763 47.314-15.776 94.746-15.776h15v270h-90v60h75c41.4 0 75-33.6 75-75v-240c0-41.4-33.6-75-75-75zm-105 0v-15c0-8.276 6.738-15 15-15s15 6.724 15 15v15z"/><path d="m331 150.308c-32.783 1.436-51.035 7.515-70.254 13.916-20.684 6.899-41.953 13.989-79.746 15.483v180.293h150zm-30 119.692h-30v30h-30v-30h-30v-30h30v-30h30v30h30z"/></g></svg>