<?xml version="1.0" encoding="iso-8859-1"?>
<!-- Generator: Adobe Illustrator 19.0.0, SVG Export Plug-In . SVG Version: 6.00 Build 0)  -->
<svg xmlns="http://www.w3.org/2000/svg" xmlns:xlink="http://www.w3.org/1999/xlink" version="1.1" id="Capa_1" x="0px" y="0px" viewBox="0 0 512 512" style="enable-background:new 0 0 512 512;" xml:space="preserve">
<g>
	<g>
		<path d="M409.751,229.925c0-15.531-9.379-28.906-22.766-34.778l0.814-88.787h16.938V153.2L512,91.273L404.737,29.344v46.84    l-294.761-0.001L85.184,36.579H0l34.236,54.692L0,145.963l85.184,0.002l24.791-39.606h21.252l-0.813,88.688    c-13.505,5.822-22.984,19.261-22.984,34.877c0,15.574,9.429,28.98,22.874,34.828v47.155    c-13.445,5.848-22.874,19.254-22.874,34.828c0,20.933,17.03,37.962,37.962,37.962c20.934,0,37.963-17.03,37.963-37.962    c0-15.574-9.429-28.981-22.875-34.828v-47.154c13.446-5.848,22.875-19.254,22.875-34.828c0-15.531-9.379-28.906-22.767-34.778    l0.814-88.787h82.1v129.987c-9.357,11.327-32.315,42.149-41.508,81.781l-2.305,9.939l11.482,8.017L198,353.059l0.307,5.621    c3.375,61.98,47.353,110.041,49.223,112.057l11.059,11.918l11.059-11.918c1.87-2.016,45.848-50.077,49.222-112.057l0.307-5.621    l-13.17-16.976l11.48-8.018l-2.304-9.938c-9.191-39.632-32.149-70.454-41.507-81.781V106.361h83.944l-0.813,88.688    c-13.505,5.822-22.984,19.261-22.984,34.877c0,15.574,9.429,28.98,22.874,34.828v47.155    c-13.445,5.848-22.874,19.254-22.874,34.828c0,20.933,17.03,37.962,37.962,37.962c20.934,0,37.963-17.03,37.963-37.962    c0-15.574-9.429-28.981-22.875-34.828v-47.154C400.322,258.905,409.751,245.498,409.751,229.925z"/>
	</g>
</g>
<g>
</g>
<g>
</g>
<g>
</g>
<g>
</g>
<g>
</g>
<g>
</g>
<g>
</g>
<g>
</g>
<g>
</g>
<g>
</g>
<g>
</g>
<g>
</g>
<g>
</g>
<g>
</g>
<g>
</g>
</svg>
