<svg id="Capa_1" enable-background="new 0 0 512 512" height="512" viewBox="0 0 512 512" width="512" xmlns="http://www.w3.org/2000/svg"><g><path d="m210.5 387c5.514 0 10-4.486 10-10v-31c0-5.514-4.486-10-10-10s-10 4.486-10 10v31c0 5.514 4.486 10 10 10z"/><path d="m331 241h181v-181h-181zm124.006-34.058-20.041.094-13.492-50.267-13.508 50.175-20.049.094-16.641-84.127 19.62-3.881 8.482 42.88 12.362-45.919 19.501.019 12.329 45.935 8.543-42.925 19.615 3.904z"/><path d="m331 271v181h181v-181zm60.5 45h60v20h-20v71h-20v-71h-20z"/><path d="m301 271h-181v181h181zm-120.5 75c0-16.542 13.458-30 30-30s30 13.458 30 30v31c0 16.542-13.458 30-30 30s-30-13.458-30-30z"/><path d="m301 241v-181h-181v181zm-57.827-68.63c-2.445 13.692-15.476 23.63-30.984 23.63-12.479 0-24.199-5.033-32.152-13.809l14.819-13.431c4.108 4.533 10.588 7.24 17.333 7.24 6.911 0 10.765-4.178 11.295-7.146.815-4.565-6.369-7.593-8.59-8.413-11.046-4.074-20.857-8.441-21.269-8.625l-.724-.323-.664-.433c-7.857-5.123-11.906-14.105-10.565-23.442 1.424-9.921 8.661-17.999 18.887-21.079 19.973-6.017 36.394 7.524 37.083 8.104l-6.436 7.656-6.368 7.708c-.089-.072-9.012-7.178-18.511-4.317-3.937 1.186-4.709 3.731-4.858 4.771-.122.847-.1 2.353 1.222 3.494 2.639 1.153 10.593 4.576 19.123 7.722 18.566 6.848 23.207 20.345 21.359 30.693z"/><path d="m0 75h60v45h-60z"/><path d="m0 407 30 30 30-30v-197h-60z"/><path d="m0 150h60v30h-60z"/></g></svg>