<?xml version="1.0" encoding="iso-8859-1"?>
<!-- Generator: Adobe Illustrator 19.0.0, SVG Export Plug-In . SVG Version: 6.00 Build 0)  -->
<svg xmlns="http://www.w3.org/2000/svg" xmlns:xlink="http://www.w3.org/1999/xlink" version="1.1" id="Layer_1" x="0px" y="0px" viewBox="0 0 512 512" style="enable-background:new 0 0 512 512;" xml:space="preserve">
<g>
	<g>
		<path d="M352.568,397.185l20.555-21.923l-48.679-45.639v-63.986l28.124,26.368l20.555-21.923l-48.679-45.639v-63.986    l28.124,26.367l20.555-21.923l-48.679-45.639V55.276l28.124,26.368l20.555-21.923L309.424,0l-53.422,50.086L202.577,0l-63.7,59.72    l20.555,21.923l28.113-26.357v63.987L138.878,164.9l20.555,21.923l28.113-26.357v63.987l-48.667,45.627l20.555,21.923    l28.113-26.357v63.987L138.88,375.26l20.555,21.923l28.113-26.357v63.987l-48.667,45.627l20.555,21.923l43.145-40.451L256.002,512    l53.422-50.086l43.144,40.451l20.555-21.923l-48.679-45.639v-63.986L352.568,397.185z M294.392,434.814l-38.39,35.993    l-38.406-36.006v-63.987l38.406,36.006l38.39-35.993V434.814z M294.392,329.634l-38.39,35.993l-38.406-36.005v-63.987    l38.406,36.006l38.39-35.994V329.634z M294.392,224.454l-38.39,35.992l-38.406-36.005v-63.987l38.406,36.006l38.39-35.993V224.454    z M294.392,119.274l-38.39,35.993l-38.406-36.005V55.274l38.406,36.006l38.39-35.993V119.274z"/>
	</g>
</g>
<g>
</g>
<g>
</g>
<g>
</g>
<g>
</g>
<g>
</g>
<g>
</g>
<g>
</g>
<g>
</g>
<g>
</g>
<g>
</g>
<g>
</g>
<g>
</g>
<g>
</g>
<g>
</g>
<g>
</g>
</svg>
