<svg id="Capa_1" enable-background="new 0 0 512 512" height="512" viewBox="0 0 512 512" width="512" xmlns="http://www.w3.org/2000/svg"><g><path d="m181 105c0-41.4 33.6-75 75-75s75 33.6 75 75v15h30v-15c0-57.9-47.1-105-105-105s-105 47.1-105 105v15h30z"/><path d="m330.5 481h-55.285c64.147-105.275 85.785-119.435 85.785-165 0-57.891-47.109-105-105-105s-105 47.109-105 105c0 37.774 12.785 50.123 85.757 165h-55.257v31h149zm-119.5-165c0-24.814 20.186-45 45-45s45 20.186 45 45-20.186 45-45 45-45-20.186-45-45z"/><circle cx="256" cy="316" r="15"/><path d="m419.5 120h-58.5v61h-30v-61h-150v61h-30v-61h-58.5l-33 331h122.699c-31.457-48.747-61.199-82.689-61.199-135 0-74.401 60.601-135 135-135s135 60.599 135 135c0 57.624-32.541 84.351-61.199 135h122.699z"/></g></svg>