<svg id="Capa_1" enable-background="new 0 0 512 512" height="512" viewBox="0 0 512 512" width="512" xmlns="http://www.w3.org/2000/svg"><g><path d="m326.25 251.89s-14.25 27.72-19.77 69.11h-100.96c-5.52-41.39-19.77-69.11-19.77-69.11 51.162 21.33 89.37 21.314 140.5 0z"/><path d="m490 512h-468c9.854-32.948 33.899-59.339 67.21-69.23 6.778-29.107 38.681-46.81 66.95-37.19 5.2 1.69 10.14 4.2 14.61 7.47l23.23 16.95c10.37-27.84 13.87-54.82 13.66-79h96.68c-.21 24.18 3.29 51.16 13.66 79l23.23-16.95c8.95-6.53 19.74-10.05 30.81-10.05 24.044-.005 45.006 16.421 50.75 39.77 33.812 10.308 56.963 35.8 67.21 69.23z"/><path d="m205.52 321c1.25 9.35 2.05 19.41 2.14 30h-108.66v-30z"/><path d="m413 321v30h-108.66c.09-10.59.89-20.65 2.14-30z"/><path d="m511.24 158.97c.279 38.54-34.751 69.197-72.92 63.8 0 0-8.35-1.1-8.35-1.1l-5.29 6.56c-21.113 26.973-64.594 24.24-82.09-5.251 0 .001-8.11-13.209-8.11-13.209-24.515 17.478-47.714 28.261-78.48 28.22-30.794.035-53.955-10.74-78.48-28.22l-8.11 13.21c-17.499 29.494-60.981 32.219-82.09 5.249 0 .001-5.29-6.559-5.29-6.559l-8.35 1.1c-38.17 5.393-73.199-25.257-72.92-63.8 0-34.49 26.96-62.74 61.39-64.31l15.61-.71c-.259-3.386-1.606-16.916-1.56-19.99-.343-40.542 47.05-64.821 79.69-40.829 0-.001 9.99 7.209 9.99 7.209 24.495-25.192 54.532-40.429 90.12-40.34 35.578-.093 65.64 15.156 90.12 40.34l9.99-7.21c32.652-23.992 80.032.293 79.69 40.831.076 3.062-1.339 16.689-1.56 19.989l15.61.71c34.43 1.57 61.39 29.82 61.39 64.31z"/></g></svg>