<svg id="Capa_1" enable-background="new 0 0 512 512" height="512" viewBox="0 0 512 512" width="512" xmlns="http://www.w3.org/2000/svg"><g id="XMLID_234_"><path id="XMLID_323_" d="m482 82.914h30v155.085h-30z"/><path id="XMLID_354_" d="m373.786 357.667h30v83.58h-30z"/><path id="XMLID_355_" d="m482 357.667h30v83.58h-30z"/><path id="XMLID_356_" d="m240.251 378.679h-60.354v62.568h30v-32.568h30.354v32.568h30v-32.568h30.354v32.568h30v-62.568h-60.354v-127.679h-30z"/><path id="XMLID_368_" d="m89.319 191.018h331.864v29.982h-331.864z"/><path id="XMLID_371_" d="m295.333 161v-59.11h-25.082v-31.137h-30v31.137h-25.082v59.11z"/><path id="XMLID_373_" d="m373.786 267.999h138.214v59.668h-138.214z"/><path id="XMLID_374_" d="m107.214 357.667h30v83.58h-30z"/><path id="XMLID_377_" d="m0 82.914h30v155.085h-30z"/><path id="XMLID_378_" d="m0 357.667h30v83.58h-30z"/><path id="XMLID_380_" d="m0 267.999h137.214v59.668h-137.214z"/></g></svg>