<svg id="Capa_1" enable-background="new 0 0 512 512" height="512" viewBox="0 0 512 512" width="512" xmlns="http://www.w3.org/2000/svg"><g><path d="m87.097 230.842 193.841-163.924 200.545 163.924h30.517v-39.535l-230.961-191.307-229.039 191.216v39.626z"/><path d="m344.335 362.768c0-34.372-27.963-62.335-62.335-62.335s-62.335 27.963-62.335 62.335v149.232h124.67z"/><path d="m281.05 105.908-185.701 157.04v157.052h42.285l20.115 92h31.916v-149.232c0-50.914 41.421-100.226 92.335-100.226s92.335 49.311 92.335 100.226v149.232h94.316v-252.747zm46.838 115.282h-91.775v-30h91.775z"/><path d="m112.22 450h-101.887l-10.333 62h127.025z"/></g></svg>