<?xml version="1.0" encoding="iso-8859-1"?>
<!-- Generator: Adobe Illustrator 19.0.0, SVG Export Plug-In . SVG Version: 6.00 Build 0)  -->
<svg xmlns="http://www.w3.org/2000/svg" xmlns:xlink="http://www.w3.org/1999/xlink" version="1.1" id="Layer_1" x="0px" y="0px" viewBox="0 0 512 512" style="enable-background:new 0 0 512 512;" xml:space="preserve">
<g>
	<g>
		<circle cx="256" cy="328.348" r="33.391"/>
	</g>
</g>
<g>
	<g>
		<path d="M306.087,229.589V0h-33.391v128h-33.391V0h-33.391v229.589c-46.7,7.959-82.365,48.714-82.365,97.646h33.391    c0-36.21,29.46-65.67,65.67-65.67h66.783c36.21,0,65.67,29.46,65.67,65.67h33.391    C388.452,278.301,352.787,237.548,306.087,229.589z"/>
	</g>
</g>
<g>
	<g>
		<path d="M451.612,434.174c-1.228-0.928-2.431-1.884-3.612-2.869c-1.182,0.985-2.385,1.941-3.612,2.869    c-17.524,13.268-38.406,20.281-60.388,20.281s-42.864-7.013-60.388-20.281c-1.228-0.928-2.431-1.884-3.612-2.869    c-1.182,0.985-2.385,1.941-3.612,2.869c-17.524,13.268-38.406,20.281-60.388,20.281s-42.864-7.013-60.388-20.281    c-1.228-0.928-2.431-1.884-3.612-2.869c-1.182,0.985-2.385,1.941-3.612,2.869c-17.524,13.268-38.406,20.281-60.388,20.281    s-42.864-7.013-60.388-20.281c-1.228-0.928-2.431-1.884-3.612-2.869c-1.182,0.985-2.385,1.941-3.612,2.869    C42.864,447.441,21.983,454.455,0,454.455V512h512v-57.545C490.017,454.455,469.136,447.441,451.612,434.174z"/>
	</g>
</g>
<g>
</g>
<g>
</g>
<g>
</g>
<g>
</g>
<g>
</g>
<g>
</g>
<g>
</g>
<g>
</g>
<g>
</g>
<g>
</g>
<g>
</g>
<g>
</g>
<g>
</g>
<g>
</g>
<g>
</g>
</svg>
