<svg id="Capa_1" enable-background="new 0 0 510.941 510.941" height="512" viewBox="0 0 510.941 510.941" width="512" xmlns="http://www.w3.org/2000/svg"><g id="XMLID_672_"><path id="XMLID_673_" d="m34.142 381.895c19.577-13.528 42.525-20.68 66.364-20.68h87.334v-16.546c-44.871-20.519-79.038-60.525-91.603-109.132-6.617 14.09-16.173 25.977-27.359 34.948-41.359 33.167-64.538 84.013-64.538 137.028v4.595c7.899-11.728 17.94-22.015 29.802-30.213z"/><path id="XMLID_676_" d="m323.546 345.3v15.915h87.333c23.839 0 46.787 7.151 66.364 20.68 11.64 8.044 21.528 18.098 29.358 29.552v-3.934c0-53.015-23.179-103.861-64.538-137.028-10.921-8.758-19.818-19.991-25.946-33.345-13.032 48.384-47.509 88.06-92.571 108.16z"/><path id="XMLID_677_" d="m255.693 414.068c20.872 0 37.854-16.981 37.854-37.854v-20.864c-11.946 2.752-24.382 4.209-37.151 4.209-13.272 0-26.179-1.582-38.555-4.548v21.203c-.001 20.873 16.98 37.854 37.852 37.854z"/><path id="XMLID_678_" d="m240.693 442.377c-25.388-5.754-45.407-25.774-51.161-51.162h-89.026c-17.718 0-34.768 5.312-49.309 15.359-23.122 15.979-36.926 42.786-36.926 71.708v32.659h226.421v-68.564z"/><path id="XMLID_679_" d="m270.693 510.941h226.421v-32.659c0-28.922-13.804-55.729-36.926-71.708-14.541-10.048-31.591-15.359-49.309-15.359h-89.025c-5.754 25.388-25.774 45.408-51.162 51.162v68.564z"/><path id="XMLID_704_" d="m135.972 176.124c33.377 0 64.68-13.343 87.619-36.968h-102.557c-.023 1.052-.037 36.968-.037 36.968z"/><path id="XMLID_705_" d="m146.651 109.156-6.119-36.907c-7.097 11.442-12.319 23.81-15.565 36.907z"/><path id="XMLID_706_" d="m364.291 109.156h23.651c-3.438-14.28-9.155-27.63-17.052-39.803z"/><path id="XMLID_708_" d="m287.351 139.156c22.939 23.625 54.241 36.968 87.618 36.968h16.823s-.015-35.916-.037-36.968z"/><path id="XMLID_711_" d="m256.394 329.56c70.627 0 128.787-54.359 134.864-123.436h-16.289c-46.704 0-90.16-20.966-119.226-57.522l-.273-.343-.273.343c-29.065 36.557-72.521 57.522-119.226 57.522h-14.441c6.078 69.076 64.238 123.436 134.864 123.436zm-.701-41.045c-24.961 0-45.268-20.307-45.268-45.268h30c0 8.419 6.849 15.268 15.268 15.268s15.268-6.849 15.268-15.268h30c0 24.961-20.307 45.268-45.268 45.268z"/><path id="XMLID_718_" d="m333.881 109.156 12.415-74.88c1.418-8.555-.985-17.255-6.593-23.869-5.608-6.614-13.797-10.407-22.468-10.407h-123.528c-8.671 0-16.86 3.793-22.469 10.407-5.607 6.614-8.011 15.314-6.593 23.869l12.415 74.88zm-93.411-87.627h30v18.049h18.049v30h-18.049v18.049h-30v-18.049h-18.049v-30h18.049z"/></g></svg>