<svg id="Capa_1" enable-background="new 0 0 512 512" height="512" viewBox="0 0 512 512" width="512" xmlns="http://www.w3.org/2000/svg"><g><path d="m403.256 220.391c4.313-24.83 6.593-53.868 6.593-83.975 0-72.982-15.262-112.584-25.849-131.275-10.588 18.69-25.849 58.293-25.849 131.275 0 30.107 2.28 59.145 6.593 83.975 3.6 20.726 3.064 45.369-1.397 64.312-6.278 26.651-9.735 60.429-9.735 95.109 0 58.244 10.907 94.617 20.057 114.873 3.02 6.685 6.045 12.083 8.786 16.354 1.001.28 1.545.416 1.545.416s.544-.137 1.545-.416c2.741-4.272 5.766-9.669 8.786-16.354 9.15-20.256 20.057-56.629 20.057-114.873 0-34.681-3.457-68.458-9.735-95.109-4.461-18.943-4.996-43.586-1.397-64.312z"/><path d="m268.8 144.238c0 29.389 7.076 56.715 19.216 79.476 9.095 17.052 7.892 37.882-3.437 53.545-17.869 24.706-28.579 56.199-28.579 90.503 0 68.35 47.871 106.837 85.062 126.428-11.585-31.227-17.451-69.599-17.451-114.378 0-37.464 3.643-72.73 10.534-101.987 3.54-15.029 3.948-35.559 1.041-52.3-4.603-26.497-7.035-57.31-7.035-89.109 0-46.899 5.811-86.732 17.279-118.648-33.483 19.577-76.63 58.07-76.63 126.47z"/><path d="m483.421 277.26c-11.329-15.663-12.533-36.493-3.437-53.545 12.141-22.762 19.216-50.087 19.216-79.476 0-68.4-43.147-106.893-76.63-126.471 11.468 31.916 17.279 71.749 17.279 118.648 0 31.799-2.433 62.612-7.035 89.109-2.908 16.741-2.5 37.271 1.041 52.3 6.891 29.257 10.534 64.523 10.534 101.987 0 44.779-5.865 83.151-17.451 114.378 37.191-19.591 85.062-58.079 85.062-126.428 0-34.304-10.71-65.797-28.579-90.502z"/><ellipse cx="128" cy="367.944" rx="49" ry="57.256"/><ellipse cx="128" cy="143.944" rx="36.175" ry="56.633"/><path d="m223.984 223.714c12.141-22.762 19.216-50.087 19.216-79.476 0-111.762-115.2-143.694-115.2-143.694s-115.2 31.932-115.2 143.694c0 29.389 7.076 56.715 19.216 79.476 9.095 17.052 7.892 37.882-3.437 53.545-17.869 24.706-28.579 56.199-28.579 90.503 0 111.762 128 143.694 128 143.694s128-31.932 128-143.694c0-34.304-10.71-65.797-28.579-90.502-11.329-15.664-12.532-36.493-3.437-53.546zm-144.376-139.142c12.377-17.325 30.016-27.261 48.392-27.261s36.015 9.937 48.392 27.261c11.468 16.052 17.784 37.138 17.784 59.372s-6.316 43.319-17.784 59.372c-12.377 17.325-30.015 27.261-48.392 27.261s-36.015-9.936-48.392-27.261c-11.468-16.052-17.784-37.137-17.784-59.372.001-22.234 6.317-43.32 17.784-59.372zm48.392 370.628c-43.561 0-79-39.143-79-87.256s35.439-87.256 79-87.256 79 39.143 79 87.256-35.439 87.256-79 87.256z"/></g></svg>