<svg id="Capa_1" enable-background="new 0 0 510 510" height="512" viewBox="0 0 510 510" width="512" xmlns="http://www.w3.org/2000/svg"><g><path d="m398.033 111.967c-11.669-11.669-27.814-16.015-44.175-14.528-38.399 3.491-72.995 38.062-76.416 76.528-4.121 46.312-33.22 70.158-34.275 71.653-18.166 18.167-42.742 29.467-69.199 31.823-18.59 1.653-36.842 10.578-51.395 25.131-29.242 29.243-34 72.066-10.606 95.46 23.394 23.392 66.217 18.634 95.46-10.606 14.553-14.553 23.478-32.805 25.132-51.394 4.119-46.309 33.223-70.165 34.274-71.653 18.168-18.167 42.744-29.468 69.2-31.821 18.589-1.654 36.841-10.579 51.394-25.132 29.241-29.244 34-72.067 10.606-95.461z"/><path d="m17.574 113.787 96.213-96.213-3.555-3.555c-17.544-17.546-46.094-17.546-63.639 0l-32.574 32.573c-17.545 17.545-17.545 46.094 0 63.639z"/><path d="m41.667 197.88c25.28-20.388 56.687-32.88 93.332-32.88 7.186 0 16.988-1.236 22.877-7.124 5.888-5.888 7.124-15.689 7.124-22.875 0-34.512 11.482-66.564 32.924-93.29l-32.924-32.924-156.213 156.213z"/><path d="m375 315c84.504 0 135-83.894 135-165 0-82.71-67.29-150-150-150-81.106 0-165 50.497-165 135 0 37.57-22.43 60-60 60-84.503 0-135 83.894-135 165 0 82.71 67.29 150 150 150 81.106 0 165-50.496 165-135 0-36.448 23.552-60 60-60zm-89.407-26.954c-13.199 13.2-21.421 31.186-23.152 50.646-4.993 56.116-56.288 104.053-112.459 104.053-22.266 0-43.449-7.72-59.228-23.498-35.091-35.092-30.333-96.947 10.606-137.887 19.521-19.521 44.362-31.525 69.949-33.8 19.46-1.732 37.446-9.955 50.645-23.153l2.453-2.453c13.199-13.199 21.421-31.186 23.153-50.646 4.67-52.503 50.37-98.908 103.581-103.747 26.549-2.414 50.734 5.823 68.104 23.192 35.091 35.091 30.332 96.946-10.607 137.886-19.52 19.521-44.362 31.524-69.948 33.801-19.459 1.731-37.445 9.953-50.646 23.152z"/><path d="m492.426 395.506-96.213 96.213 3.556 3.556c17.542 17.544 46.094 17.547 63.64 0l32.573-32.573c17.546-17.546 17.546-46.094 0-63.64z"/><path d="m468.333 312.12c-25.281 20.388-56.687 32.88-93.333 32.88-19.906 0-30 10.094-30 30.001 0 36.646-12.491 68.052-32.88 93.332l32.88 32.88 156.213-156.213z"/></g></svg>