<?xml version="1.0" encoding="iso-8859-1"?>
<!-- Generator: Adobe Illustrator 19.0.0, SVG Export Plug-In . SVG Version: 6.00 Build 0)  -->
<svg xmlns="http://www.w3.org/2000/svg" xmlns:xlink="http://www.w3.org/1999/xlink" version="1.1" id="Layer_1" x="0px" y="0px" viewBox="0 0 512 512" style="enable-background:new 0 0 512 512;" xml:space="preserve">
<g>
	<g>
		<path d="M446.159,164.277c-19.583-24.847-56.468-51.494-120.954-37.356c-20.505,4.496-38.058,14.516-52.163,22.568    c-0.853,0.486-1.752,1-2.671,1.52c-0.451-8.417-1.146-17.354-2.09-26.515c15.713-0.406,51.02-4.101,74.63-27.711    c30.487-30.486,27.772-80.494,27.642-82.607l-0.817-13.243l-13.244-0.818c-2.11-0.131-52.122-2.847-82.609,27.641    c-8.069,8.069-13.811,17.506-17.891,27.06c-4.481-16.438-10.01-30.791-16.651-40.775l-25.003,16.632    c13.583,20.419,23.365,73.639,25.961,119.583c-0.456-0.26-0.907-0.517-1.343-0.766c-14.105-8.052-31.658-18.072-52.163-22.568    c-64.49-14.14-101.37,12.51-120.954,37.356c-22.165,28.12-34.37,70.039-34.367,118.035c0.002,45.295,10.564,92.012,29.739,131.542    c14.128,29.123,31.901,52.435,52.826,69.287C137.813,502.292,164.345,512,192.895,512c31.286,0,43.853-5.675,53.029-9.818    c4.506-2.034,6.371-2.877,10.077-2.877c3.706,0,5.57,0.843,10.077,2.877c9.176,4.143,21.742,9.818,53.029,9.818    c28.55,0,55.082-9.708,78.858-28.857c20.924-16.851,38.698-40.163,52.826-69.287c19.175-39.531,29.737-86.247,29.739-131.542    C480.529,234.316,468.324,192.398,446.159,164.277z"/>
	</g>
</g>
<g>
</g>
<g>
</g>
<g>
</g>
<g>
</g>
<g>
</g>
<g>
</g>
<g>
</g>
<g>
</g>
<g>
</g>
<g>
</g>
<g>
</g>
<g>
</g>
<g>
</g>
<g>
</g>
<g>
</g>
</svg>
