<svg id="Capa_1" enable-background="new 0 0 510.61 510.61" height="512" viewBox="0 0 510.61 510.61" width="512" xmlns="http://www.w3.org/2000/svg"><g><path d="m407.07 0s93.56 93.56 103.53 103.53l.01-103.53z"/><path d="m310.11 38.72c-20.303 37.595-4.429 88.698 35.968 104.599l-77.969 77.969c-6.768-39.806-13.53-69.499-43.201-99.231-52.308-59.367-144.638-63.49-200.957-7.472 0-.001-15.691 15.521-15.691 15.521l175.516 175.515-77.988 77.988-36.048-17.689-69.74 69.74 50.28 24.67 24.67 50.28 69.74-69.74-17.689-36.048 77.988-77.988 175.422 175.422 15.52-15.692c56.026-56.353 51.895-148.636-7.474-200.957-29.669-29.613-59.365-36.433-99.07-43.171l77.914-77.914c11.004 27.371 38.512 44.864 68.309 44.778 12.897.08 25.37-3.013 36.27-8.81-5.712-5.712-147.571-147.571-161.77-161.77zm-259.09 91.719c46.241-39.038 113.161-32.419 152.675 12.831 15.257 15.256 25.479 34.519 29.562 55.704l9.237 47.929-37.505 37.505zm260.52 146.818c24.976 4.622 45.646 17.969 62.648 36.505 39.425 37.941 41.895 104.708 5.888 145.731l-153.874-153.872 37.57-37.57z"/><path d="m365.53.89c-13.73 1.97-25.92 6.98-36.03 14.78 0 0 154.296 154.297 165.43 165.43 7.81-10.11 12.81-22.29 14.79-36.02-7.235-7.235-144.19-144.19-144.19-144.19z"/></g></svg>