<svg id="Capa_1" enable-background="new 0 0 512 512" height="512" viewBox="0 0 512 512" width="512" xmlns="http://www.w3.org/2000/svg"><g><path d="m451.704 44.749v51.477h-30v-51.477h-30.248v51.477h-30v-51.477h-30.248v51.477h-30v-51.477h-30.248v51.477h-30v-51.477h-30.249v51.477h-30v-51.477h-30.248v51.477h-30v-51.477h-30.248v51.477h-30v-51.477h-60.215v88.218h512v-88.218z"/><path d="m0 512h512v-349.033h-512zm79.892-211.395c16.723-16.722 42.409-19.128 61.727-7.246-4.1-20.198 1.807-41.84 17.361-57.395 24.716-24.717 64.932-24.717 89.649 0l7.371 7.371 7.371-7.371c24.717-24.718 64.933-24.717 89.649 0 10.811 10.81 17.35 25.154 18.413 40.391.401 5.75.01 11.481-1.117 17.045 19.325-11.927 45.048-9.534 61.791 7.204 19.551 19.553 19.551 51.365 0 70.916l-73.365 73.365-62.497-62.497-40.245 40.247-40.246-40.246-62.497 62.497-73.365-73.365c-19.55-19.551-19.55-51.364 0-70.916z"/><path d="m226.623 300.604c15.953 15.955 18.883 40.071 8.801 59.028l20.576 20.577 20.576-20.576c-10.082-18.958-7.152-43.073 8.8-59.027 14.828-14.827 36.705-18.398 54.939-10.736 3.154-11.337.187-23.997-8.508-32.692-13.02-13.02-34.204-13.018-47.224 0l-28.583 28.584-28.584-28.584c-13.02-13.02-34.204-13.018-47.224 0-8.837 8.837-11.77 21.399-8.552 32.711 18.244-7.687 40.143-4.122 54.983 10.715z"/><path d="m335.079 321.818c-3.927-3.927-9.086-5.891-14.244-5.891-5.159 0-10.317 1.964-14.245 5.892-7.854 7.854-7.854 20.634 0 28.488l52.152 52.152 52.152-52.152c7.854-7.854 7.854-20.635-.001-28.489-7.852-7.854-20.633-7.855-28.488 0l-23.663 23.663z"/><path d="m153.258 402.46 52.152-52.152c7.854-7.854 7.854-20.635-.001-28.489-7.853-7.854-20.634-7.855-28.488 0l-23.663 23.663-23.663-23.663c-3.927-3.927-9.086-5.891-14.244-5.891-5.159 0-10.317 1.964-14.245 5.892-7.854 7.854-7.854 20.634 0 28.488z"/><path d="m421.704 0h30v44.749h-30z"/><path d="m361.456 0h30v44.749h-30z"/><path d="m301.208 0h30v44.749h-30z"/><path d="m240.96 0h30v44.749h-30z"/><path d="m180.711 0h30v44.749h-30z"/><path d="m120.463 0h30v44.749h-30z"/><path d="m60.215 0h30v44.749h-30z"/></g></svg>