<svg id="Capa_1" enable-background="new 0 0 512 512" height="512" viewBox="0 0 512 512" width="512" xmlns="http://www.w3.org/2000/svg"><g><g id="Megaphone_1_"><g><path d="m35.149 90.002h199.702v29.997h-199.702z" transform="matrix(.707 -.707 .707 .707 -34.706 126.213)"/></g><g><path d="m195 210c-24.814 0-45-20.186-45-45s20.186-45 45-45 45 20.186 45 45-20.186 45-45 45z"/></g><g><path d="m75 90c-24.814 0-45-20.186-45-45s20.186-45 45-45 45 20.186 45 45-20.186 45-45 45z"/></g><g><path d="m366.709 182.505c-57.894 38.395-92.864 56.735-156.709 57.372v150.245c63.845.637 98.815 18.977 156.709 57.372l23.291 15.455v-295.898z"/><path d="m60 240h120v150h-120z"/></g><g><path d="m420 300h92v30h-92z"/></g><g><path d="m415.459 195h84.083v29.999h-84.083z" transform="matrix(.832 -.555 .555 .832 -39.65 289.045)"/></g><g><path d="m442.5 377.959h29.999v84.083h-29.999z" transform="matrix(.555 -.832 .832 .555 -145.737 567.689)"/></g></g><path d="m90 420h90v92h-90z"/><path d="m30 272.763c-17.422 6.213-30 22.707-30 42.237s12.578 36.024 30 42.237z"/></g></svg>