<svg id="Capa_1" enable-background="new 0 0 512 512" height="512" viewBox="0 0 512 512" width="512" xmlns="http://www.w3.org/2000/svg"><g><path d="m111.275 512h288.737l8.403-132.713-305.098.044z"/><path d="m413.52 299.286-315.04.045 3.023 50 308.826-.044z"/><path d="m241.395 0c-47.452 6.486-85.392 43.284-93.628 90.195l-31.766-.01-.01 30 30.109.01v30.078h-30.104v30h30.104v30.088h-30.104v30h30.104v28.964l95.294-.014v-269.311z"/><path d="m366.689 269.293v-28.937h29.264v-30h-29.264v-30.088h29.264v-30h-29.264v-30.077l29.354.004.004-30-31.024-.004c-8.238-46.91-46.178-83.705-93.628-90.191v269.307z"/></g></svg>