<svg id="Capa_1" enable-background="new 0 0 512 512" height="512" viewBox="0 0 512 512" width="512" xmlns="http://www.w3.org/2000/svg"><g><path d="m183.57 210.5c6.191 17.461 22.874 30 42.43 30h12.43c-6.191-17.461-22.874-30-42.43-30z"/><path d="m241 270.5h30v30h-30z"/><path d="m181 270.5h45c-41.355 0-75-33.645-75-75v-15h45c24.508 0 46.305 11.818 60 30.052 13.695-18.234 35.492-30.052 60-30.052h45v15c0 41.355-33.645 75-75 75h45c57.897 0 105-47.103 105-105 0-50.287-35.684-92.843-84.4-102.515-16.724-37.726-54.059-62.485-95.6-62.485s-78.876 24.759-95.6 62.485c-48.716 9.672-84.4 52.228-84.4 102.515 0 57.897 47.103 105 105 105z"/><path d="m328.43 210.5h-12.43c-19.556 0-36.239 12.539-42.43 30h12.43c19.556 0 36.239-12.539 42.43-30z"/><path d="m467 331.5h-422c-24.813 0-45 20.187-45 45v90c0 24.813 20.187 45 45 45h422c24.813 0 45-20.187 45-45v-90c0-24.813-20.187-45-45-45zm-376 120h-30v-60h30zm60 0h-30v-60h30zm60 0h-30v-60h30zm60 0h-30v-60h30zm60 0h-30v-60h30zm60 0h-30v-60h30zm60 0h-30v-60h30z"/></g></svg>