<svg id="Capa_1" enable-background="new 0 0 511.864 511.864" height="512" viewBox="0 0 511.864 511.864" width="512" xmlns="http://www.w3.org/2000/svg"><g><path d="m307.634 122.546-43.948-43.948-56.658 56.658 48.055 48.477c2.817-3.435 5.598-6.894 8.316-10.389 13.743-17.67 28.601-34.723 44.235-50.798z"/><path d="m328.8 101.286 57.193-57.193-43.71-44.093-57.384 57.384z"/><path d="m183.686 429.9-64.371-64.371-68.655 68.653c-8.598 8.597-13.332 20.027-13.332 32.186 0 12.158 4.734 23.588 13.332 32.185 8.873 8.874 20.526 13.31 32.182 13.31h.004c11.655-.001 23.313-4.438 32.186-13.31z"/><path d="m399.116 202.138 60.349-60.349c9.718-9.718 15.07-22.639 15.07-36.382-.001-13.744-5.353-26.665-15.071-36.382l-27.988-27.989-96.73 96.731c-16.93 16.929-32.967 35.096-47.667 53.995-13.938 17.92-29.145 35.147-45.198 51.201l-101.354 101.353 64.371 64.371 101.353-101.353c16.932-16.932 32.97-35.099 47.666-53.996 13.941-17.923 29.148-35.149 45.199-51.2z"/></g></svg>