<?xml version="1.0" encoding="iso-8859-1"?>
<!-- Generator: Adobe Illustrator 19.0.0, SVG Export Plug-In . SVG Version: 6.00 Build 0)  -->
<svg xmlns="http://www.w3.org/2000/svg" xmlns:xlink="http://www.w3.org/1999/xlink" version="1.1" id="Layer_1" x="0px" y="0px" viewBox="0 0 511.998 511.998" style="enable-background:new 0 0 511.998 511.998;" xml:space="preserve">
<g>
	<g>
		<g>
			<polygon points="433.895,395.334 433.895,395.334 433.895,395.335    "/>
			<path d="M394.97,213.477c0-37.212-14.515-72.171-40.874-98.438c-15.616-15.563-34.271-26.956-54.623-33.632v-2.854     c0-23.973-19.502-43.475-43.474-43.475c-23.973,0-43.474,19.503-43.474,43.475v3.007c-55.379,18.496-95.496,71.302-95.496,133.26     v48.565c0,47.07-13.444,92.541-38.925,131.948h355.79c-25.481-39.406-38.924-84.876-38.924-131.947V213.477z M334.139,213.478     c0-20.924-8.163-40.58-22.982-55.35c-14.749-14.697-34.335-22.79-55.153-22.79v-30.416c28.921,0,56.133,11.245,76.622,31.662     c20.59,20.518,31.928,47.826,31.928,76.894H334.139z"/>
		</g>
	</g>
</g>
<g>
	<g>
		<path d="M175.835,425.751c7.547,37.353,40.62,65.564,80.165,65.564s72.618-28.212,80.165-65.564H175.835z"/>
	</g>
</g>
<g>
	<g>
		<rect y="197.26" width="89.716" height="30.416"/>
	</g>
</g>
<g>
	<g>
		<rect x="422.282" y="197.26" width="89.716" height="30.416"/>
	</g>
</g>
<g>
	<g>
		
			<rect x="406.201" y="116.462" transform="matrix(0.9239 -0.3827 0.3827 0.9239 -16.0529 182.6396)" width="89.718" height="30.416"/>
	</g>
</g>
<g>
	<g>
		
			<rect x="45.722" y="86.811" transform="matrix(0.3827 -0.9239 0.9239 0.3827 -84.0345 137.5732)" width="30.416" height="89.718"/>
	</g>
</g>
<g>
	<g>
		<rect x="91.489" y="18.308" transform="matrix(0.7071 -0.7071 0.7071 0.7071 -13.4143 93.9467)" width="30.415" height="89.715"/>
	</g>
</g>
<g>
	<g>
		
			<rect x="360.443" y="47.948" transform="matrix(0.7071 -0.7071 0.7071 0.7071 74.0519 305.0889)" width="89.715" height="30.415"/>
	</g>
</g>
<g>
</g>
<g>
</g>
<g>
</g>
<g>
</g>
<g>
</g>
<g>
</g>
<g>
</g>
<g>
</g>
<g>
</g>
<g>
</g>
<g>
</g>
<g>
</g>
<g>
</g>
<g>
</g>
<g>
</g>
</svg>
