<svg id="Capa_1" enable-background="new 0 0 512 512" height="512" viewBox="0 0 512 512" width="512" xmlns="http://www.w3.org/2000/svg"><g><path d="m256 150c-58.449 0-106 47.551-106 106s47.551 106 106 106 106-47.551 106-106-47.551-106-106-106zm-10.606 159.033-53.034-53.033 21.213-21.213 31.82 31.819 53.033-53.033 21.213 21.213z"/><path d="m473.264 193.624c-4.7-16.404-11.247-32.201-19.534-47.135l17.167-37.631-67.755-67.755-37.631 17.167c-14.934-8.287-30.73-14.834-47.135-19.534l-14.466-38.736h-95.82l-14.466 38.736c-16.404 4.7-32.201 11.247-47.135 19.534l-37.631-17.167-67.755 67.755 17.167 37.631c-8.287 14.934-14.834 30.73-19.534 47.135l-38.736 14.466v95.82l38.736 14.466c4.7 16.404 11.247 32.2 19.534 47.135l-17.167 37.631 67.755 67.755 37.631-17.167c14.934 8.287 30.73 14.834 47.135 19.534l14.466 38.736h95.82l14.466-38.736c16.404-4.7 32.201-11.247 47.135-19.534l37.631 17.167 67.755-67.755-17.167-37.631c8.287-14.935 14.834-30.731 19.534-47.135l38.736-14.466v-95.82zm-81.264 62.376c0 74.991-61.009 136-136 136s-136-61.009-136-136 61.009-136 136-136 136 61.009 136 136z"/></g></svg>