<svg id="Capa_1" enable-background="new 0 0 512 512" height="512" viewBox="0 0 512 512" width="512" xmlns="http://www.w3.org/2000/svg"><g><path d="m512 309.01v-39.45h-49.145v-30h49.145v-39.053h-130.98c7.227 16.64 11.245 34.984 11.245 54.251 0 19.268-4.017 37.612-11.245 54.252z"/><path d="m29.962 138.141h29.962v32.366h-29.962z"/><path d="m.732 373.859h41.355l34.85-34.849h-76.205z"/><path d="m512 373.859v-34.849h-76.38l34.85 34.849z"/><ellipse cx="255.634" cy="254.758" rx="39.227" ry="39.226" transform="matrix(.707 -.707 .707 .707 -105.268 255.378)"/><path d="m362.265 254.758c0-58.796-47.834-106.631-106.631-106.631s-106.631 47.834-106.631 106.631 47.834 106.631 106.631 106.631 106.631-47.834 106.631-106.631zm-106.631 69.226c-38.172 0-69.227-31.055-69.227-69.227 0-38.171 31.055-69.226 69.227-69.226 38.171 0 69.226 31.055 69.226 69.226 0 38.173-31.054 69.227-69.226 69.227z"/><path d="m119.003 254.758c0-19.267 4.017-37.612 11.245-54.251h-130.248v108.503h130.248c-7.228-16.64-11.245-34.985-11.245-54.252z"/></g></svg>