<svg id="Capa_1" enable-background="new 0 0 512 512" height="512" viewBox="0 0 512 512" width="512" xmlns="http://www.w3.org/2000/svg"><g><path d="m303.323 289.034c25.641 0 46.427-20.786 46.427-46.427 0-27.642-46.427-84.941-46.427-84.941s-46.427 57.299-46.427 84.941c0 25.64 20.786 46.427 46.427 46.427z"/><path d="m210.469 131.368c25.641 0 46.427-20.786 46.427-46.427 0-27.642-46.427-84.941-46.427-84.941s-46.427 57.299-46.427 84.941c0 25.641 20.786 46.427 46.427 46.427z"/><path d="m396.177 131.368c25.641 0 46.427-20.786 46.427-46.427 0-27.642-46.427-84.941-46.427-84.941s-46.427 57.299-46.427 84.941c0 25.641 20.787 46.427 46.427 46.427z"/><path d="m453.743 373.392c-11.716-11.716-30.711-11.716-42.426 0l-49.489 49.489c-5.626 5.626-13.257 8.787-21.213 8.787h-91.866v-30h74.123c16.569 0 30-13.431 30-30v-18.734h-115.909c-10.811-6.704-23.557-10.583-37.213-10.583-33.273 0-61.163 22.981-68.704 53.932l84.119 84.119h120.972c23.87 0 46.761-9.482 63.64-26.36l67.308-67.308z"/><path d="m44.916 459.551v52.449h152.675l3.373-3.373-102.562-102.562z"/></g></svg>