<svg id="Capa_1" enable-background="new 0 0 512 512" height="512" viewBox="0 0 512 512" width="512" xmlns="http://www.w3.org/2000/svg"><g><path d="m138.591 437.076h-10.655v48.46h40.495v-18.621c-.001-16.454-13.387-29.839-29.84-29.839z"/><path d="m204.434 266.83-9.898-3.909c-7.843 33.633-38.049 58.771-74.036 58.771s-66.193-25.138-74.036-58.771l-9.898 3.909c-22.213 8.774-36.566 29.876-36.566 53.759v164.946h97.937v-48.46h-47.167v-66.658h29.998v36.66h57.823c32.994 0 59.837 26.843 59.837 59.837v18.621h42.573v-164.946c0-23.883-14.354-44.985-36.567-53.759z"/><path d="m120.501 268.824c-.469 0-.93-.003-1.4-.011-15.401-.235-30.164-4.354-43.219-11.851 5.055 19.933 23.137 34.729 44.619 34.729 21.441 0 39.496-14.739 44.591-34.614-13.176 7.473-28.393 11.747-44.591 11.747z"/><path d="m497.914 282.689c-24.247 34.371-63.765 55.184-106.46 55.184-42.654 0-82.166-20.794-106.419-55.128-8.891 10.255-14.036 23.549-14.036 37.844v164.946h42.573v-18.621c0-32.994 26.843-59.837 59.837-59.837h57.823v-36.66h29.998v66.658h-47.167v48.46h97.937v-164.946c0-14.321-5.165-27.637-14.086-37.9z"/><path d="m373.409 437.076c-16.453 0-29.839 13.386-29.839 29.839v18.621h40.495v-48.46z"/><path d="m391.454 307.873c32.656 0 62.901-15.82 81.6-41.983l-31.923-12.609c-14.479 10.089-31.637 15.542-49.63 15.542-.001 0 0 0-.002 0-.447 0-.896-.003-1.345-.01-17.469-.266-34.09-5.714-48.156-15.583l-32.122 12.688c18.702 26.143 48.947 41.955 81.578 41.955z"/><path d="m443.173 91.867v-12.813c0-28.322-22.405-52.069-50.723-52.581-28.925-.522-52.623 22.856-52.623 51.664v13.73c14.469-10.688 32.345-17.016 51.673-17.016s37.204 6.328 51.673 17.016z"/><path d="m181.109 145.888c-5.35-28.615-30.442-50.278-60.609-50.278-30.167 0-55.259 21.663-60.609 50.278z"/><path d="m119.542 239.816c34.446.526 62.636-27.342 62.636-61.67v-2.26h-123.355v1.323c0 33.847 26.877 62.091 60.719 62.607z"/><path d="m449.653 181.67v-19.666c0-32.117-26.036-58.154-58.154-58.154-32.117 0-58.154 26.036-58.154 58.154v18.783c0 31.913 25.341 58.543 57.25 59.03 32.479.495 59.058-25.78 59.058-58.147z"/></g></svg>