<svg id="Capa_1" enable-background="new 0 0 510 510" height="512" viewBox="0 0 510 510" width="512" xmlns="http://www.w3.org/2000/svg"><g><path d="m435 0h-45v45h-30v-45h-30v45h-30v-45h-30v45h-30v-45h-30v45h-30v-45h-30v45h-30v-45h-45v90h360z"/><path d="m435 405v-124.07c0-9.021 1.851-17.782 5.229-25.93h-50.229v150z"/><path d="m360 405v-150h-210v150zm-180-120h150v30h-150zm0 60h150v30h-150z"/><path d="m120 405v-150h-50.229c3.378 8.147 5.229 16.908 5.229 25.93v124.07z"/><path d="m440.229 435h-370.458c-10.218 24.639-24.771 24.806-24.771 45 0 16.568 13.432 30 30 30h360c16.568 0 30-13.432 30-30 0-20.193-14.553-20.361-24.771-45z"/><path d="m460.977 225c2.554-4.414 4.023-9.534 4.023-15 0-16.568-13.432-30-30-30s-30-13.432-30-30v-30h-300v30c0 16.568-13.432 30-30 30s-30 13.432-30 30c0 5.466 1.469 10.586 4.023 15z"/></g></svg>