<?xml version="1.0" encoding="iso-8859-1"?>
<!-- Generator: Adobe Illustrator 19.0.0, SVG Export Plug-In . SVG Version: 6.00 Build 0)  -->
<svg version="1.1" id="Layer_1" xmlns="http://www.w3.org/2000/svg" xmlns:xlink="http://www.w3.org/1999/xlink" x="0px" y="0px"
	 viewBox="0 0 512 512" style="enable-background:new 0 0 512 512;" xml:space="preserve">
<g>
	<g>
		<g>
			<polygon points="182.857,335.238 182.857,164.571 146.286,128 109.714,152.381 109.714,347.429 146.286,371.81 			"/>
			<polygon points="292.571,323.048 292.571,176.762 256,140.19 219.429,164.571 219.429,335.238 256,359.619 			"/>
			<polygon points="402.286,310.857 402.286,188.952 365.714,152.381 329.143,176.762 329.143,323.048 365.714,347.429 			"/>
			<polygon points="475.429,213.333 475.429,109.714 438.857,109.714 438.857,402.286 73.143,402.286 73.143,109.714 
				54.857,109.714 54.857,73.143 18.286,73.143 18.286,109.714 0,109.714 0,438.857 475.429,438.857 475.429,286.476 512,286.476 
				512,213.333 			"/>
		</g>
	</g>
</g>
<g>
</g>
<g>
</g>
<g>
</g>
<g>
</g>
<g>
</g>
<g>
</g>
<g>
</g>
<g>
</g>
<g>
</g>
<g>
</g>
<g>
</g>
<g>
</g>
<g>
</g>
<g>
</g>
<g>
</g>
</svg>
