<svg id="Capa_1" enable-background="new 0 0 512 512" height="512" viewBox="0 0 512 512" width="512" xmlns="http://www.w3.org/2000/svg"><g><path d="m256 466.097c-27.238 0-53.043-6.248-76.06-17.384l-21.174 63.287h194.469l-21.174-63.286c-23.018 11.135-48.823 17.383-76.061 17.383z"/><path d="m367.504 172.789v-105.32h-223.008v105.32c0 19.631 15.971 35.602 35.602 35.602h151.805c19.63-.001 35.601-15.972 35.601-35.602z"/><path d="m144.496 0h223.008v37.469h-223.008z"/><path d="m110.761 238.39h290.478v37.469h-290.478z"/><path d="m111.532 305.859c7.531 73.063 69.447 130.238 144.468 130.238s136.937-57.175 144.468-130.238z"/></g></svg>