<svg id="Capa_1" enable-background="new 0 0 512 512" height="512" viewBox="0 0 512 512" width="512" xmlns="http://www.w3.org/2000/svg"><g><path d="m512 131.565c0-58.34-88.96-105.64-198.69-105.64-109.74 0-198.7 47.3-198.7 105.64 0 47.347 58.595 87.415 139.338 100.834-17.543-2.695-36.081-4.144-55.258-4.144-109.73 0-198.69 47.3-198.69 105.64 0 22.43 13.16 43.22 35.58 60.32l-.78 91.86s43.8-37.41 64.96-60.56c29.13 8.91 62.91 14.01 98.93 14.01 109.74 0 198.7-47.29 198.7-105.63 0-47.349-58.599-87.424-139.345-100.844 17.546 2.695 36.086 4.144 55.265 4.144 36.02 0 69.8-5.1 98.93-14.01 21.16 23.15 64.96 60.56 64.96 60.56l-.78-91.86c22.42-17.1 35.58-37.89 35.58-60.32z"/></g></svg>