<svg id="Capa_1" enable-background="new 0 0 511.981 511.981" height="512" viewBox="0 0 511.981 511.981" width="512" xmlns="http://www.w3.org/2000/svg"><g><path d="m345.646 241c66.444 0 120.5-54.056 120.5-120.5s-54.056-120.5-120.5-120.5-120.5 54.056-120.5 120.5 54.056 120.5 120.5 120.5zm15-48.269h-30v-30h30zm-15-150.5c24.882 0 45.125 20.243 45.125 45.125 0 19.626-12.594 36.366-30.125 42.562v11.688h-30v-39.125h15c8.34 0 15.125-6.785 15.125-15.125s-6.785-15.125-15.125-15.125-15.125 6.785-15.125 15.125h-30c0-24.882 20.243-45.125 45.125-45.125z"/><path d="m305.46 265.544c-29.421-8.161-55.244-25.054-74.496-47.702-.371.56-25.399 35.578-25.399 35.578l54.392 76.02s44.277-62.005 45.503-63.896z"/><path d="m114.27 381.02-56.957 79.617 46.442 11.047 25.59 40.297 39.314-54.944z"/><path d="m144.22 219.515c-6.828-9.546-9.916-20.115-9.916-30.43 0-27.303 21.634-52.814 52.717-52.814 3.115 0 6.126.277 9.039.766-.596-5.432-.913-10.948-.913-16.537 0-25.279 6.274-49.116 17.332-70.053-8.18-1.446-16.676-2.214-25.458-2.214-114.688.001-181.354 129.669-114.62 222.947l172.294 240.801 25.592-40.297 46.441-11.047z"/></g></svg>