<svg id="Capa_1" enable-background="new 0 0 507.249 507.249" height="512" viewBox="0 0 507.249 507.249" width="512" xmlns="http://www.w3.org/2000/svg"><g id="XMLID_500_"><path id="XMLID_513_" d="m169.855 224.81h167.539v57.63h-167.539z" transform="matrix(.707 -.707 .707 .707 -105.055 253.625)"/><path id="XMLID_517_" d="m473.125 34.125c-45.499-45.5-119.268-45.5-164.768 0l-274.232 274.232c-45.499 45.499-45.499 119.268 0 164.768 45.499 45.499 119.268 45.499 164.768 0l274.232-274.232c45.499-45.5 45.499-119.269 0-164.768zm-390.11 411.322-21.213-21.213 22.774-22.774 21.213 21.213zm6.695-72.024-21.213-21.213 22.774-22.774 21.213 21.213zm261.867-304.294 21.214 21.213-22.774 22.774-21.214-21.213zm-196.538 369.624-21.213-21.213 22.774-22.774 21.213 21.213zm59.727-63.092-83.177-83.177 160.895-160.895 83.177 83.177zm200.58-197.215-21.213-21.214 22.774-22.774 21.213 21.214zm6.695-72.024-21.213-21.213 22.774-22.774 21.213 21.213z"/></g></svg>