<?xml version="1.0" encoding="iso-8859-1"?>
<!-- Generator: Adobe Illustrator 19.0.0, SVG Export Plug-In . SVG Version: 6.00 Build 0)  -->
<svg version="1.1" id="Layer_1" xmlns="http://www.w3.org/2000/svg" xmlns:xlink="http://www.w3.org/1999/xlink" x="0px" y="0px"
	 viewBox="0 0 512 512" style="enable-background:new 0 0 512 512;" xml:space="preserve">
<g>
	<g>
		<path d="M368.089,375.962c20.438-30.902,17.064-73.027-10.128-100.219c-15.04-15.04-35.037-23.323-56.307-23.323
			c-21.27,0-41.266,8.283-56.307,23.323c-15.04,15.04-23.323,35.037-23.323,56.307c0,21.27,8.283,41.267,23.323,56.307
			c15.04,15.04,35.037,23.323,56.307,23.323c15.858,0,31.006-4.61,43.922-13.186l64.938,64.939l22.522-22.522L368.089,375.962z
			 M334.105,365.833c-9.025,9.025-21.022,13.994-33.784,13.994c-12.762,0-24.76-4.97-33.783-13.995
			c-9.025-9.024-13.995-21.021-13.995-33.783s4.97-24.76,13.995-33.784c9.024-9.025,21.022-13.994,33.783-13.994
			c12.763,0,24.76,4.97,33.784,13.994C352.733,316.894,352.733,347.205,334.105,365.833z"/>
	</g>
</g>
<g>
	<g>
		<path d="M379.473,48.567h-71.271v15.926c0,28.784-23.419,52.202-52.202,52.202c-28.784,0-52.201-23.417-52.201-52.202V48.567
			h-71.271L0,183.545l97.879,97.88l35.137-33.645v163.545h87.231c-0.202-0.199-0.407-0.392-0.606-0.591
			c-21.056-21.055-32.652-49.051-32.652-78.829s11.596-57.774,32.652-78.828c21.056-21.056,49.051-32.654,78.829-32.654
			s50.963,6.516,78.83,27.75c8.631,6.576,36.822,33.252,36.822,33.252L512,183.545L379.473,48.567z"/>
	</g>
</g>
<g>
</g>
<g>
</g>
<g>
</g>
<g>
</g>
<g>
</g>
<g>
</g>
<g>
</g>
<g>
</g>
<g>
</g>
<g>
</g>
<g>
</g>
<g>
</g>
<g>
</g>
<g>
</g>
<g>
</g>
</svg>
