<svg id="Capa_1" enable-background="new 0 0 512 512" height="512" viewBox="0 0 512 512" width="512" xmlns="http://www.w3.org/2000/svg"><g><path d="m283.06 70.547 29.156 74.376c16.078-13.145 22.651-35.668 14.674-56.018l-17.514-44.675z"/><path d="m206.761 250.406c5.987-4.877 10.767-11.144 13.947-18.424 5.255-12.032 5.51-25.39.718-37.613l-17.513-44.675-26.317 26.317z"/><path d="m101.299 355.869c5.987-4.877 10.767-11.144 13.947-18.424 5.255-12.032 5.51-25.39.718-37.613l-17.513-44.675-26.317 26.317z"/><path d="m479.196 32.802c-39.856-39.856-102.273-43.387-146.134-10.607l21.847 55.728c15.948 40.683-4.175 86.755-44.857 102.704l-14.009 5.492-36.203-92.35-32.705 32.705 22.31 56.913c7.726 19.707 7.315 41.244-1.158 60.642-8.472 19.398-23.992 34.336-43.699 42.062l-14.009 5.492-36.203-92.35-32.705 32.705 22.311 56.912c7.726 19.707 7.314 41.244-1.158 60.642s-23.992 34.336-43.699 42.062l-14.009 5.492-36.203-92.349-16.109 16.109c-43.738 43.738-43.738 114.652 0 158.391 43.738 43.738 114.652 43.738 158.391 0l288.002-288.002c43.738-43.741 43.738-114.655-.001-158.393z"/></g></svg>