<svg id="Layer_1" enable-background="new 0 0 511.55 511.55" height="512" viewBox="0 0 511.55 511.55" width="512" xmlns="http://www.w3.org/2000/svg"><g><path d="m323.202 119.801c-19.541-.575-37.058-6.981-50.661-18.525-4.671-3.964-10.625-6.147-16.766-6.147s-12.095 2.183-16.766 6.147c-14.465 12.785-34.277 18.186-54.823 18.982 26.333 16.256 50.455 36.392 71.575 60.027 20.862-23.304 45.413-43.869 71.607-60.026-1.365-.266-2.768-.418-4.166-.458z"/><path d="m184.887 89.948c10.513-.36 22.916-1.746 34.711-11.545 10.086-8.56 22.935-13.274 36.178-13.274s26.091 4.714 36.178 13.274c24.13 19.529 41.358 3.026 66.755 24.808 40.657-19.266 85.214-29.884 131.376-30.901-152.379-96.415-316.245-96.412-468.619.001 46.195 1.025 90.791 11.719 131.36 30.915 8.959-7.683 20.146-12.389 32.061-13.278z"/><path d="m473.976 103.143c-157.141 10.428-280.287 153.018-270.769 310.014l52.568 98.393z"/><path d="m37.578 103.149 137.57 257.491c6.229-57.074 27.319-110.86 61.381-156.796-50.902-58.806-121.916-94.631-198.951-100.695z"/></g></svg>