<svg id="Capa_1" enable-background="new 0 0 512 512" height="512" viewBox="0 0 512 512" width="512" xmlns="http://www.w3.org/2000/svg"><g><path d="m319.903 270.128c-3.06 2.099-6.162 4.14-9.313 6.109l-26.287 16.43 3.027 1.892c16.158 10.099 30.719 22.554 43.224 36.828h-149.108c12.505-14.274 27.066-26.729 43.224-36.828l70.02-43.761c33.553-20.971 61.427-50.349 80.608-84.956 19.181-34.608 29.32-73.814 29.32-113.382v-52.46h-37.847v30.125h-221.542v-30.125h-37.847v52.458c0 39.568 10.139 78.774 29.32 113.382 14.361 25.91 33.603 48.876 56.448 67.586l34.834-21.772c-12.711-8.934-24.296-19.378-34.515-31.03h125.075c-12.503 14.269-27.06 26.72-43.215 36.817l-70.02 43.761c-33.553 20.971-61.427 50.349-80.608 84.956-19.181 34.608-29.32 73.814-29.32 113.382v52.46h37.847v-30.115h245.542v30.115h37.847v-52.458c0-39.568-10.139-78.775-29.32-113.383-16.6-29.953-39.722-55.975-67.394-76.031zm-174.503-210.003h221.2c-.404 10.174-1.608 20.291-3.59 30.25h-214.02c-1.982-9.959-3.186-20.076-3.59-30.25zm26.426 90.5c-.747-1.277-1.49-2.557-2.208-3.852-4.708-8.494-8.743-17.328-12.117-26.398h196.998c-3.375 9.07-7.409 17.904-12.117 26.398-.719 1.296-1.469 2.574-2.216 3.852zm206.775 301.26h-245.202c.404-10.178 1.608-20.298 3.591-30.261h238.02c1.983 9.963 3.187 20.084 3.591 30.261zm-26.429-90.499c.745 1.275 1.494 2.549 2.21 3.841 4.708 8.494 8.742 17.328 12.117 26.397h-220.998c3.375-9.07 7.409-17.903 12.117-26.397.717-1.293 1.465-2.566 2.21-3.841z"/><circle cx="32" cy="320" r="32"/><circle cx="480" cy="192" r="32"/><path d="m60.25 180.75h30v30h-30z"/><path d="m421.75 301.25h30v30h-30z"/></g></svg>