<svg id="Capa_1" enable-background="new 0 0 509.615 509.615" height="512" viewBox="0 0 509.615 509.615" width="512" xmlns="http://www.w3.org/2000/svg"><g><path id="XMLID_155_" d="m77.23 96.135 12.606 63.048c9.747-1.997 19.835-3.048 30.163-3.048h.204c9.912.018 19.885 1.294 29.784 3.783l-12.757-63.783h57.385v-30h-154.573l-11.581-34.743-28.461 9.487 18.419 55.256z"/><path id="XMLID_154_" d="m389.615 105.732v65.403h60.014v-103.584l53.053-33.761-16.106-25.309-165 104.999 16.106 25.31z"/><circle id="XMLID_153_" cx="134.23" cy="276.135" r="15"/><path id="XMLID_152_" d="m389.615 229.762c20.1 6.757 44.234 13.159 60 16.986v-45.613h-60z"/><path id="XMLID_148_" d="m434.615 426.135c41.42 0 75-33.58 75-75 0-35.5-24.67-65.25-57.8-73.02-28.225-6.625 6.194 3.084-301.327-86.942-9.71-3.237-19.827-5.038-30.104-5.038-66.27 0-120 53.73-120 120 0 66.271 53.73 120 120 120h-.77v45h-45v30h375v-30h-45v-45zm-294.451-105.354c-27.03 3.336-50.549-17.814-50.549-44.646 0-24.812 20.188-45 45-45s45 20.188 45 45c0 12.112-4.818 23.113-12.629 31.211l21.898 43.789h20.73v30h-75v-30h20.728zm234.451 150.354h-225v-45h225z"/></g></svg>