<svg id="Capa_1" enable-background="new 0 0 510 510" height="512" viewBox="0 0 510 510" width="512" xmlns="http://www.w3.org/2000/svg"><g><path d="m111 237 18-24 36 27v-45h30v75l36-27 18 24-54 40.5v71.24c17.524 16.291 41.004 26.26 66.818 26.26 54.224 0 98.182-43.957 98.182-98.182 0-36.737-20.181-68.756-50.057-85.591 5.757-37.271-14.498-73.051-48.42-87.715 3.919-48.354-34.304-88.512-81.523-88.512-45.187 0-81.818 36.631-81.818 81.818 0 2.256.116 4.483.295 6.694-33.905 14.658-54.18 50.426-48.42 87.715-29.877 16.835-50.057 48.854-50.057 85.591 0 54.225 43.957 98.182 98.182 98.182 25.814 0 49.295-9.969 66.818-26.26v-101.24z"/><path d="m195 378.74c-5.661-5.263-10.705-11.181-15-17.642-4.295 6.461-9.339 12.379-15 17.642v101.26h-165v30h510v-30h-315z"/><path d="m405 225c0-8.271 6.728-15 15-15h15c24.813 0 45-20.187 45-45s-20.187-45-45-45h-75c-8.272 0-15-6.729-15-15s6.728-15 15-15h105c24.814 0 45-20.187 45-45s-20.186-45-45-45h-120v30h120c8.272 0 15 6.729 15 15s-6.728 15-15 15h-105c-24.814 0-45 20.187-45 45s20.186 45 45 45h75c8.271 0 15 6.729 15 15s-6.729 15-15 15h-15c-24.814 0-45 20.187-45 45 0 24.814 20.186 45 45 45h90v-30h-90c-8.272 0-15-6.729-15-15z"/><path d="m255 0h60v30h-60z"/><path d="m345 420h120v30h-120z"/><path d="m420 360h90v30h-90z"/></g></svg>