<svg id="Capa_1" enable-background="new 0 0 512 512" height="512" viewBox="0 0 512 512" width="512" xmlns="http://www.w3.org/2000/svg"><g><circle cx="436.75" cy="105.375" r="37.757"/><path d="m60.25 451.875h30v30h-30z"/><path d="m421.75 180.75h30v30h-30z"/><path d="m30.125 361.5h30v30h-30z"/><path d="m361.5 30.125h30v30h-30z"/><ellipse cx="165.625" cy="436.75" rx="37.757" ry="37.757" transform="matrix(.973 -.23 .23 .973 -95.914 49.736)"/><circle cx="135.5" cy="165.625" r="15.125"/><path d="m195.687 309.147c24.476-2.828 46.871-12.482 65.227-27.02l15.719 15.719-10.695 10.695 21.213 21.213 42.604-42.604-21.213-21.213-10.695 10.695-15.719-15.719c14.537-18.356 24.192-40.751 27.02-65.227h22.228v15.125h30v-60.25h-30v15.125h-22.228c-2.828-24.476-12.482-46.871-27.02-65.227l15.719-15.719 10.695 10.695 21.213-21.213-42.604-42.604-21.213 21.213 10.695 10.695-15.719 15.719c-18.356-14.537-40.751-24.192-65.227-27.02v-22.225h15.125v-30h-60.25v30h15.125v22.228c-24.476 2.828-46.871 12.482-65.227 27.02l-15.718-15.719 10.695-10.695-21.213-21.213-42.603 42.603 21.213 21.213 10.695-10.695 15.719 15.719c-14.537 18.356-24.192 40.751-27.02 65.227h-22.228v-15.125h-30v60.25h30v-15.125h22.228c2.828 24.476 12.482 46.871 27.02 65.227l-15.719 15.719-10.695-10.695-21.213 21.213 42.604 42.604 21.213-21.213-10.695-10.695 15.719-15.719c18.356 14.537 40.751 24.192 65.227 27.02v22.228h-15.125v30h60.25v-30h-15.125v-22.23zm29.188-158.522h30v30h-30zm-89.375 60.125c-24.882 0-45.125-20.243-45.125-45.125s20.243-45.125 45.125-45.125 45.125 20.243 45.125 45.125-20.243 45.125-45.125 45.125zm59.25 2.806h30v30h-30z"/><path d="m448 256c-35.346 0-64 28.654-64 64 0 35.286-28.605 63.891-63.891 63.891h-.109c-35.346 0-64 28.653-64 63.999v.109c0 35.346 28.654 64 64 64 106.039.001 192-85.96 192-191.998v-.001c0-35.346-28.654-64-64-64zm-127.782 206.782h-.218v-30h.218c62.188 0 112.782-50.594 112.782-112.782h30c0 78.73-64.052 142.782-142.782 142.782z"/></g></svg>