<svg id="Capa_1" enable-background="new 0 0 512 512" height="512" viewBox="0 0 512 512" width="512" xmlns="http://www.w3.org/2000/svg"><g><circle cx="256" cy="346" r="15"/><path d="m256 421c41.422 0 75-33.58 75-75 0-41.422-33.578-75-75-75s-75 33.578-75 75c0 41.42 33.578 75 75 75zm0-120c24.814 0 45 20.186 45 45s-20.186 45-45 45-45-20.186-45-45 20.186-45 45-45z"/><path d="m58.652 175.375c37.852-20.303 110.38-54.375 197.348-54.375 129.185 0 206.972 14.561 207.704 14.707l48.296 9.683-34.688-34.951c-3.222-3.252-84.085-79.439-221.312-79.439-134.033 0-237.353 44.282-241.864 46.157l-14.136 5.933 44.414 99.932z"/><path d="m155.629 198.93 9.902 28.33c20.112-7.046 40.225-11.865 59.78-14.312l-3.75-29.766c-21.635 2.711-43.828 8.013-65.932 15.748z"/><path d="m355.785 198.739c-22.163-7.705-44.355-12.964-65.947-15.63l-3.691 29.766c19.512 2.417 39.624 7.192 59.795 14.194z"/><path d="m502.755 286.8c-7.925-7.247-28.585-25.23-58.625-44.614l-.057.086c-8.199-5.253-17.076-10.594-26.559-15.818l-14.473 26.279c8.877 4.878 17.183 9.873 24.858 14.81l.051-.079c6.899 4.448 13.123 8.78 18.946 12.971-29.5-2.844-69.723-6.055-116.191-7.901 18.95 19.272 30.295 45.352 30.295 73.466 0 57.891-47.109 105-105 105s-105-47.109-105-105c0-28.392 11.832-54.348 30.705-73.484-46.635 1.842-87.014 5.065-116.598 7.916 5.821-4.189 12.045-8.522 18.942-12.968l.051.079c7.676-4.937 15.981-9.932 24.858-14.81l-14.473-26.279c-9.483 5.224-18.36 10.565-26.559 15.818l-.057-.086c-30.039 19.384-50.699 37.367-58.624 44.614l-9.245 2.613c61.108 92.687 146.597 191.587 256 191.587 109.618 0 194.723-98.645 256-191.587z"/></g></svg>