<svg id="Capa_1" enable-background="new 0 0 512 512" height="512" viewBox="0 0 512 512" width="512" xmlns="http://www.w3.org/2000/svg"><g><circle cx="192" cy="416" r="17"/><circle cx="320" cy="416" r="17"/><circle cx="128" cy="96" r="17"/><circle cx="341.333" cy="309.333" r="17"/><circle cx="149.333" cy="202.667" r="17"/><circle cx="170.667" cy="309.333" r="17"/><path d="m48 0v512h416v-512zm33 96c0-25.916 21.084-47 47-47s47 21.084 47 47-21.084 47-47 47-47-21.084-47-47zm21.333 106.667c0-25.916 21.084-47 47-47s47 21.084 47 47-21.084 47-47 47-47-21.084-47-47zm21.334 106.666c0-25.916 21.084-47 47-47s47 21.084 47 47-21.084 47-47 47-47-21.083-47-47zm68.333 153.667c-25.916 0-47-21.084-47-47s21.084-47 47-47 47 21.084 47 47-21.084 47-47 47zm128 0c-25.916 0-47-21.084-47-47s21.084-47 47-47 47 21.084 47 47-21.084 47-47 47zm21.333-106.667c-25.916 0-47-21.084-47-47s21.084-47 47-47 47 21.084 47 47-21.083 47-47 47zm21.334-106.666c-25.916 0-47-21.084-47-47s21.084-47 47-47 47 21.084 47 47-21.084 47-47 47zm21.333-106.667c-25.916 0-47-21.084-47-47s21.084-47 47-47 47 21.084 47 47-21.084 47-47 47z"/><circle cx="362.667" cy="202.667" r="17"/><circle cx="384" cy="96" r="17"/></g></svg>