<?xml version="1.0" encoding="iso-8859-1"?>
<!-- Generator: Adobe Illustrator 19.0.0, SVG Export Plug-In . SVG Version: 6.00 Build 0)  -->
<svg xmlns="http://www.w3.org/2000/svg" xmlns:xlink="http://www.w3.org/1999/xlink" version="1.1" id="Layer_1" x="0px" y="0px" viewBox="0 0 512 512" style="enable-background:new 0 0 512 512;" xml:space="preserve">
<g>
	<g>
		<path d="M162.198,291.564c-17.252,0-31.294,14.042-31.294,31.304c0,17.252,14.042,31.294,31.294,31.294    c17.262,0,31.294-14.042,31.294-31.294C193.492,305.606,179.461,291.564,162.198,291.564z"/>
	</g>
</g>
<g>
	<g>
		<path d="M491.247,82.941L512,24.558l-29.556-10.506l-13.338,37.522h-64.611v31.367h18.334L349.655,307.34    c-64.74-53.741-108.507-84.229-133.192-92.844c-16.384-5.719-33.333-8.417-50.187-8.124h-0.001l-61.393-88.947h30.725V86.058    H28.611v31.367h38.157l64.785,93.861h-0.001c-8.689,2.342-17.22,5.521-25.491,9.515c-34.755,16.781-60.894,46.088-73.608,82.526    c-12.714,36.438-10.466,75.647,6.305,110.401c8.396,17.377,19.918,32.601,33.887,45.064c2.728,2.425,5.539,4.755,8.445,6.961H0    v31.367h195.874c0.019,0.001,0.037,0.001,0.054,0.002c13.676,0.554,28.952,0.826,45.848,0.826s35.403-0.272,55.572-0.826    c0.027-0.001,0.055-0.001,0.083-0.002h169.844v-31.367h-66.54c6.868-8.114,12.347-17.648,16.089-28.354    c12.034-34.493,2.332-70.743-25.334-94.603c-5.437-4.684-10.748-9.243-15.945-13.666c-0.001-0.001-0.002-0.002-0.003-0.003    l80.278-246.187H491.247z M177.882,383.543v22.741h23.253v31.367h-78.407v-31.367h23.787v-22.741    c-26.986-6.984-46.977-31.545-46.977-60.674c0-34.556,28.105-62.671,62.661-62.671c34.556,0,62.661,28.115,62.661,62.671    C224.859,351.998,204.868,376.558,177.882,383.543z"/>
	</g>
</g>
<g>
</g>
<g>
</g>
<g>
</g>
<g>
</g>
<g>
</g>
<g>
</g>
<g>
</g>
<g>
</g>
<g>
</g>
<g>
</g>
<g>
</g>
<g>
</g>
<g>
</g>
<g>
</g>
<g>
</g>
</svg>
