<svg id="Capa_1" enable-background="new 0 0 511.98 511.98" height="512" viewBox="0 0 511.98 511.98" width="512" xmlns="http://www.w3.org/2000/svg"><g><path d="m439.02 355.07h72.96v140.71h-72.96z"/><path d="m409.02 355.07v140.71h-33.41l.03-67.81h-30l-.03 67.81h-33.6l.04-109.15h-30l-.04 109.15h-33.59l.04-67.81h-30l-.04 67.81h-33.6l.04-109.15h-30v107.57c-11.268 0-22.438-.159-33.59-2.05v-64.19h-30v55.71c-53.51-21.58-91.27-73.99-91.27-135.23v-80.58c39.04 57.98 108.863 90.01 178.08 87.21z"/><g><path d="m339.73 267.86v57.21h-60.47c24.38-14.77 45.06-34.33 60.47-57.21z"/><g><path d="m169.86 16.2c-93.66 0-169.86 69.32-169.86 154.52 0 93.333 89.379 158.114 177.63 154.35 90.07-3.71 162.1-71.52 162.1-154.35 0-85.2-76.21-154.52-169.87-154.52zm0 259.54c-62.84 0-113.96-47.11-113.96-105.02s51.12-105.02 113.96-105.02 113.97 47.11 113.97 105.02-51.13 105.02-113.97 105.02z"/><path d="m169.86 95.7c-46.3 0-83.96 33.66-83.96 75.02 0 41.37 37.66 75.02 83.96 75.02s83.97-33.65 83.97-75.02c0-41.36-37.67-75.02-83.97-75.02zm35.32 90.02h-70.63v-30h70.63z"/></g></g></g></svg>