<svg id="Capa_1" enable-background="new 0 0 512 512" height="512" viewBox="0 0 512 512" width="512" xmlns="http://www.w3.org/2000/svg"><g><path d="m131.606 186.285 25.607-25.356h56.367c.532 1.25 1.135 2.717 1.818 4.139l-20.464 20.861h-35.934v29h27.147v28h29.853v-36.184l20.611-20.464c1.423.682 2.889 1.285 4.389 1.817v56.367l-25.606 25.607 21.213 21.213 19.393-19.393 19.394 19.393 21.213-21.213-25.607-25.607v-56.367c1.5-.532 2.967-1.135 4.389-1.817l20.611 20.463v37.184h29.853v-28h27.147v-30h-35.934l-20.464-20.861c.682-1.423 1.285-2.889 1.818-5.139h56.367l25.607 26.356 21.213-21.213-19.393-19.394 19.393-19.394-21.213-21.213-25.607 24.856h-56.367c-.532-.75-1.135-2.217-1.818-3.639l20.464-20.464h35.934v-29.895h-27.147v-27h-29.853v35.684l-20.611 20.464c-1.423-.682-2.889-1.285-4.389-1.817v-56.368l25.606-25.607-21.212-21.212-19.394 19.393-19.394-19.393-21.213 21.213 25.607 25.606v56.367c-1.5.532-2.967 1.135-4.389 1.817l-20.611-20.463v-36.213h-29.853v27.529h-28.147v30h36.934l20.464 20.361c-.682 1.423-1.285 2.889-1.818 4.639h-56.367l-25.607-25.856-21.213 21.213 19.393 19.394-19.393 19.394z"/><path d="m467 331.928h-422c-24.813 0-45 20.187-45 45v90c0 24.813 20.187 45 45 45h422c24.813 0 45-20.187 45-45v-90c0-24.813-20.187-45-45-45zm-376 120h-30v-60h30zm60 0h-30v-60h30zm60 0h-30v-60h30zm60 0h-30v-60h30zm60 0h-30v-60h30zm60 0h-30v-60h30zm60 0h-30v-60h30z"/></g></svg>