<svg id="Capa_1" enable-background="new 0 0 512 512" height="512" viewBox="0 0 512 512" width="512" xmlns="http://www.w3.org/2000/svg"><g><path d="m329.63 332.997-10.129-33.69c-18.361 11.19-39.911 17.642-62.941 17.642-23.478 0-45.415-6.712-64.005-18.307l-10.326 34.354 73.702 45.232z"/><path d="m321.977 99.406h-130.832c-14.273 0-25.885 11.612-25.885 25.885v70.355c0 50.344 40.958 91.301 91.301 91.301s91.301-40.958 91.301-91.301v-70.355c0-14.272-11.612-25.885-25.885-25.885zm-43.378 156.723c-6.056-6.056-14.108-9.392-22.673-9.392s-16.617 3.335-22.674 9.392l-21.213-21.213c11.723-11.723 27.309-18.179 43.887-18.179 16.579 0 32.165 6.456 43.887 18.179z"/><path d="m191.145 69.406h130.832c16.181 0 30.77 6.919 40.985 17.946l.026-9.453c.115-42.988-34.701-77.899-77.69-77.899h-159.57v49.796c-.392 18.865 4.812 38.113 13.198 55.616 8.032-21.027 28.404-36.006 52.219-36.006z"/><path d="m83.155 442.611h30v69.389h285.553v-69.389h30v69.389h83.292l-6.696-67.511c-2.803-28.263-21.716-52.347-48.509-61.771l-99.304-31.621-101.561 62.329-101.499-62.291-98.815 31.667c-26.513 9.39-45.291 33.154-48.298 61.12l-7.318 68.078h83.155z"/></g><path d="m451.75 221.514h-30v-45.125h15c8.34 0 15.125-6.785 15.125-15.124 0-8.34-6.785-15.125-15.124-15.125-8.34 0-15.126 6.785-15.126 15.125h-30c0-24.882 20.243-45.125 45.124-45.125 24.882 0 45.126 20.243 45.126 45.125 0 19.625-12.594 36.365-30.125 42.562z"/><path d="m421.75 236.64h30v30h-30z"/><path d="m76.25 221.514h-30v-45.125h15c8.34 0 15.125-6.785 15.125-15.124 0-8.34-6.785-15.125-15.124-15.125-8.34 0-15.126 6.785-15.126 15.125h-30c0-24.882 20.243-45.125 45.124-45.125 24.882 0 45.126 20.243 45.126 45.125 0 19.625-12.594 36.365-30.125 42.562z"/><path d="m46.25 236.64h30v30h-30z"/></svg>