<svg id="Capa_1" enable-background="new 0 0 512 512" height="512" viewBox="0 0 512 512" width="512" xmlns="http://www.w3.org/2000/svg"><g><path d="m421.81 355.749v37.735h-331.623v-37.735h-90.187v105.47h90.187v-37.735h331.623v37.735h90.19v-105.47z"/><path d="m0 235.749v90h512v-90h-30v-128.883h-30v40h-70.764l-1.484 13.341c-.021.186-2.442 19.07-15.986 37.815-1.966 2.72-4.066 5.29-6.286 7.726-15.396 16.898-36.874 26.949-64.114 30h-233.366v-74.883h30v-65.084c0-24.813-20.187-45-45-45s-45 20.187-45 45v65.085h30v74.883zm388.083-20.157c2.381-3.296 4.494-6.594 6.386-9.843 6.327-10.866 10.082-21.171 12.258-28.883h45.273v58.883h-82.496c7.713-6.59 13.808-13.552 18.579-20.157z"/></g></svg>