<svg id="Capa_1" enable-background="new 0 0 512 512" height="512" viewBox="0 0 512 512" width="512" xmlns="http://www.w3.org/2000/svg"><g><path d="m211 271h90v60h-90z"/><path d="m512 301v-90h-66.42c-4.775-20.361-12.715-39.536-23.701-57.246l46.26-46.245-63.633-63.633-46.26 46.245c-17.607-10.84-37.031-18.882-57.246-23.686v-66.435h-90v66.435c-20.215 4.805-39.639 12.847-57.246 23.687l-46.26-46.245-63.633 63.633 46.26 46.245c-10.986 17.709-18.926 36.884-23.701 57.245h-66.42v90h66.42c4.775 20.361 12.715 39.536 23.701 57.246l-46.26 46.245 63.633 63.633 46.26-46.245c17.607 10.84 37.031 18.882 57.246 23.687v66.434h90v-66.435c20.215-4.805 39.639-12.847 57.246-23.687l46.26 46.245 63.633-63.633-46.26-46.245c10.986-17.71 18.926-36.885 23.701-57.246h66.42zm-181 60h-150v-120h30v-45c0-24.814 20.186-45 45-45s45 20.186 45 45v45h30z"/><path d="m271 196c0-8.276-6.738-15-15-15s-15 6.724-15 15v45h30z"/></g></svg>