<svg id="Capa_1" enable-background="new 0 0 512 512" height="512" viewBox="0 0 512 512" width="512" xmlns="http://www.w3.org/2000/svg"><g><circle cx="256" cy="157.046" r="50.059"/><path d="m186.631 373.624h138.738v60.522h-138.738z"/><path d="m220.365 464.146v12.219c0 19.649 15.986 35.635 35.635 35.635s35.635-15.986 35.635-35.635v-12.219z"/><path d="m409.634 150.705c-1.832-84.059-71.542-151.662-155.437-150.695-83.741.964-151.87 70.119-151.87 154.157 0 41.424 16.146 80.298 45.465 109.461 21.274 21.161 34.735 49.71 38.062 79.995h140.191c3.141-30.133 16.615-58.339 38.725-80.559 29.857-30.004 45.79-69.908 44.864-112.359zm-83.137 98.05-25.518-25.518c-8.881 6.054-19.04 10.356-29.979 12.438v36.068h-30v-36.068c-10.938-2.083-21.098-6.384-29.979-12.438l-25.518 25.518-21.213-21.213 25.518-25.518c-6.054-8.881-10.355-19.04-12.438-29.979h-36.068v-30h36.068c2.083-10.938 6.384-21.097 12.438-29.978l-25.518-25.518 21.213-21.213 25.518 25.518c8.881-6.054 19.04-10.356 29.979-12.438v-36.067h30v36.068c10.938 2.083 21.098 6.384 29.979 12.438l25.518-25.518 21.213 21.213-25.518 25.518c6.054 8.881 10.355 19.04 12.438 29.979h36.067v30h-36.068c-2.083 10.938-6.384 21.097-12.438 29.978l25.518 25.518z"/></g></svg>