<svg id="Capa_1" enable-background="new 0 0 512 512" height="512" viewBox="0 0 512 512" width="512" xmlns="http://www.w3.org/2000/svg"><g><path d="m374.667 89.357h-237.334l-24.938 54.867h287.21z"/><path d="m144.151 0h223.699v59.357h-223.699z"/><path d="m300.1 322.757c-8.926-6.711-23.108-7.729-39.934-2.864l-4.166 1.204-4.166-1.204c-16.826-4.866-31.008-3.848-39.934 2.864-11.379 8.555-13.768 25.813-13.768 38.785 0 20.022 9.76 40.922 24.286 52.007 9.28 7.082 19.247 9.231 29.621 6.393l3.96-1.084 3.96 1.084c10.376 2.84 20.341.689 29.621-6.393 14.526-11.084 24.286-31.985 24.286-52.007.001-12.972-2.387-30.23-13.766-38.785z"/><path d="m105.577 174.224v337.776h300.846v-337.776zm202.203 263.174c-11.88 9.065-25.376 13.734-39.159 13.734-4.193 0-8.413-.432-12.622-1.304-18.046 3.74-36.286-.607-51.78-12.43-21.922-16.729-36.087-46.504-36.087-75.856 0-19.804 4.465-46.769 25.739-62.764 12.452-9.362 28.772-13.228 47.128-11.435v-15.489h-19.266v-30h21.425c15.212 0 27.607 12.266 27.83 27.426l29.816-29.816 21.213 21.213-27.655 27.655c8.888 1.802 16.912 5.293 23.765 10.445 21.274 15.995 25.739 42.96 25.739 62.764.001 29.354-14.164 59.129-36.086 75.857z"/></g></svg>