<?xml version="1.0" encoding="iso-8859-1"?>
<!-- Generator: Adobe Illustrator 19.0.0, SVG Export Plug-In . SVG Version: 6.00 Build 0)  -->
<svg xmlns="http://www.w3.org/2000/svg" xmlns:xlink="http://www.w3.org/1999/xlink" version="1.1" id="Layer_1" x="0px" y="0px" viewBox="0 0 512 512" style="enable-background:new 0 0 512 512;" xml:space="preserve">
<g>
	<g>
		<circle cx="128.269" cy="49.179" r="32.337"/>
	</g>
</g>
<g>
	<g>
		<path d="M357.403,113.853l-95.97-48.505h-21.062v48.505H95.933c-35.067,0-63.596-28.529-63.596-63.596H0    c0,47.389,34.539,86.855,79.764,94.563v84.637l21.558,70.243v61.892l-27.664,7.996l8.979,31.065l186.476-53.895l-8.979-31.065    l-126.475,36.554v-33.66l167.792-48.495l-8.979-31.065l-72.581,20.977v-49.14h-43.116v-64.674h63.596v48.505h21.062l95.97-48.505    H512v-32.337H357.403z M187.554,243.2v26.15l-56.692,16.385L117.807,243.2H187.554z M272.707,152.765v-45.487l44.998,22.744    L272.707,152.765z"/>
	</g>
</g>
<g>
	<g>
		<path d="M453.519,419.789c-1.189-0.899-2.354-1.825-3.498-2.779c-1.145,0.954-2.31,1.88-3.498,2.779    c-16.97,12.849-37.193,19.64-58.481,19.64c-21.288,0-41.511-6.792-58.481-19.64c-1.189-0.899-2.354-1.825-3.498-2.779    c-1.145,0.954-2.31,1.88-3.498,2.779c-16.97,12.849-37.193,19.64-58.481,19.64c-21.288,0-41.511-6.792-58.481-19.64    c-1.189-0.899-2.354-1.825-3.498-2.779c-1.145,0.954-2.31,1.88-3.498,2.779c-16.97,12.849-37.193,19.64-58.481,19.64    c-21.288,0-41.511-6.792-58.481-19.64c-1.189-0.899-2.354-1.825-3.498-2.779c-1.145,0.954-2.31,1.88-3.498,2.779    c-16.97,12.848-37.193,19.64-58.481,19.64v55.728H512V439.43C490.712,439.43,470.489,432.638,453.519,419.789z"/>
	</g>
</g>
<g>
</g>
<g>
</g>
<g>
</g>
<g>
</g>
<g>
</g>
<g>
</g>
<g>
</g>
<g>
</g>
<g>
</g>
<g>
</g>
<g>
</g>
<g>
</g>
<g>
</g>
<g>
</g>
<g>
</g>
</svg>
