<svg id="Capa_1" enable-background="new 0 0 512 512" height="512" viewBox="0 0 512 512" width="512" xmlns="http://www.w3.org/2000/svg"><g><path d="m256 152c57.891 0 105-47.109 105-105v-47h-210v47c0 57.891 47.109 105 105 105zm-30-90h60v30h-60z"/><path d="m181.244 332h149.756v-60h-150z"/><path d="m334.025 362h-156.319l-23.99 120h-32.716v30c9.119 0 287.959 0 270 0v-30h-32.77z"/><path d="m151.293 341.141-.07-16.778-18.065 13.643-9.053-11.968c-7.646-10.151-14.15-21.27-19.307-33.018l-6.006-13.74 27.48-12.041 6.006 13.74c4.219 9.624 9.521 18.691 15.791 26.982l3.102 4.114-.288-70.075h31.688c-.994-4.882-1.571-9.886-1.571-15 0-21.813 9.516-41.307 24.432-55.025-19.382-7.872-36.396-20.219-50.089-35.585l-7.273 9.648c-6.27 8.291-11.572 17.358-15.791 26.982l-6.006 13.74-27.48-12.041 6.006-13.74c5.156-11.748 11.66-22.866 19.307-33.018l9.053-11.968 14.705 11.105c-16.538-22.214-26.592-49.51-26.779-79.263-55.577 42.006-90.085 108.146-90.085 179.165 0 77.514 41.107 148.993 105.159 189.818z"/><path d="m390.916 47.837c-.187 29.753-10.241 57.048-26.779 79.263l14.705-11.105 9.053 11.968c7.646 10.151 14.15 21.27 19.307 33.018l6.006 13.74-27.48 12.041-6.006-13.74c-4.219-9.624-9.521-18.691-15.791-26.982l-7.273-9.648c-13.693 15.366-30.707 27.713-50.089 35.585 14.915 13.716 24.431 33.21 24.431 55.023 0 5.114-.577 10.118-1.571 15h31.571v69.847l2.93-3.885c6.27-8.291 11.572-17.358 15.791-26.982l6.006-13.74 27.48 12.041-6.006 13.74c-5.156 11.748-11.66 22.866-19.307 33.018l-9.053 11.968-17.841-13.476v19.466l14.705 72.914c64.131-40.808 105.295-112.34 105.295-189.911 0-71.019-34.508-137.159-90.084-179.163z"/></g></svg>