<svg id="Capa_1" enable-background="new 0 0 511.884 511.884" height="512" viewBox="0 0 511.884 511.884" width="512" xmlns="http://www.w3.org/2000/svg"><g><path d="m201.73 192.87-201.73 217.708 101.307 101.307 217.599-201.63c-55.226-18.885-98.394-62.136-117.176-117.385zm-121.868 217.939 29.208-29.209 21.213 21.213-29.208 29.208zm132.115-89.688-21.213-21.213 20.537-20.538 21.213 21.213z"/><path d="m294.292 149.494-66.902 24.852c14.832 53.65 56.46 95.355 110.099 110.282l24.902-67.036z"/><path d="m404.084 67.112-82.012 67.736 54.963 54.964 67.737-82.012c-9.12-3.536-17.493-8.947-24.617-16.071s-12.535-15.498-16.071-24.617z"/><path d="m470.577 82.615c10.572 0 21.143-4.033 29.208-12.099 16.132-16.131 16.132-42.286 0-58.417-8.065-8.066-18.636-12.099-29.208-12.099s-21.143 4.033-29.209 12.099c-16.132 16.132-16.132 42.286 0 58.417 8.066 8.066 18.637 12.099 29.209 12.099z"/></g></svg>