<svg id="Capa_1" enable-background="new 0 0 510.645 510.645" height="512" viewBox="0 0 510.645 510.645" width="512" xmlns="http://www.w3.org/2000/svg"><g id="XMLID_3051_"><path id="XMLID_3100_" d="m350.777 340.112c-30.053 14.013-65.347 14.038-95.455 0-30.052 14.013-65.346 14.038-95.454 0-20.841 9.717-44.375 12.832-67.321 8.78l30.28 114.501c7.365 27.852 32.562 47.251 61.371 47.251h142.249c28.809 0 54.006-19.399 61.371-47.251l30.279-114.5c-22.914 4.046-46.451.949-67.32-8.781zm-140.455 109.888h-30v-60h30zm60 0h-30v-60h30zm60 0h-30v-60h30z"/><path id="XMLID_3145_" d="m428.299 159.793c-6.958-89.284-81.549-159.793-172.977-159.793-91.359 0-166.011 70.438-172.976 159.793-32.346 12.456-53.387 43.396-53.387 77.65 0 67.075 75.979 106.775 130.909 68.135 28.505 20.052 66.887 20.096 95.454 0 28.505 20.051 66.887 20.097 95.454 0 54.994 38.685 130.909-1.158 130.909-68.135.001-34.251-21.038-65.194-53.386-77.65zm-247.977 65.207h-30v-30h30zm30-75h-30v-30h30zm60 75h-30v-30h30zm0-135h-30v-30h30zm30 60v-30h30v30zm60 75h-30v-30h30z"/></g></svg>