<svg id="Capa_1" enable-background="new 0 0 512 512" height="512" viewBox="0 0 512 512" width="512" xmlns="http://www.w3.org/2000/svg"><g><path d="m127.98 344.03c11.53 0 23.07-2.62 33.59-7.87l-13.39-26.85c-6.34 3.17-13.3 4.75-20.25 4.74s-13.89-1.6-20.22-4.76l-13.43 26.82c10.53 5.27 22.09 7.91 33.65 7.92z"/><path d="m67.36 390.03c18.96 9.48 39.77 14.23 60.57 14.24h.05c20.81 0 41.63-4.75 60.61-14.24l-13.42-26.83c-14.79 7.4-31.02 11.09-47.24 11.09-16.2-.01-32.39-3.71-47.15-11.09z"/><path d="m127.93 434.52c-25.45-.01-50.9-5.82-74.1-17.42l-13.42 26.83c27.4 13.71 57.46 20.56 87.52 20.57h.05c30.09 0 60.19-6.86 87.62-20.59l-13.43-26.83c-23.24 11.64-48.74 17.45-74.24 17.44z"/><path d="m47 221.56h162v49.94h-162z"/><path d="m357.703 47.5h43.297v96h-43.297z"/><path d="m127.93 47.6c-44.43 1.11-88.11 12-127.93 31.9v64l35.294 48.06h185.412l35.294-48.06h71.703v-96s-197.243.03-199.773.1z"/><path d="m480 80.5v-17h-49v64h49v-17h32v-30z"/></g></svg>