<svg id="Capa_1" enable-background="new 0 0 511.35 511.35" height="512" viewBox="0 0 511.35 511.35" width="512" xmlns="http://www.w3.org/2000/svg"><g><path d="m353.051 167.193c-4.997 2.112-9.61 4.814-13.789 7.993l-4.28 78.321h54.573s2.259-16.332 2.259-27.5c.142-25.688-15.071-48.803-38.763-58.814z"/><path d="m391.813 226.007c.001.102 0 0 0 0z"/><path d="m346.641 40.174-5.436 99.465c2.315-.983 9.424-3.469 11.846-4.277 20.83 6.943 42.541 22.099 53.765 39.405 11.224-17.306 32.935-32.462 53.765-39.405 15.519 5.173 33.639 15.606 44.094 26.941l6.675-122.129z"/><path d="m460.581 167.193c-23.692 10.011-38.905 33.125-38.762 58.813 0 11.106 2.259 27.501 2.259 27.501h73.004l1.998-21.983c2.533-27.851-13.122-53.607-38.499-64.331z"/><path d="m329.379 356.008-6.294 115.168h164.709l6.294-115.168z"/><path d="m333.342 283.507-2.323 42.501h164.709l2.323-42.501z"/><path d="m89.53 226.012c.144-25.69-15.069-48.807-38.761-58.819-25.377 10.724-41.032 36.48-38.5 64.33l1.998 21.983h73.004c0 .001 2.259-13.998 2.259-27.494z"/><path d="m0 40.174 6.675 122.129c10.455-11.334 28.575-21.767 44.094-26.94 20.83 6.943 42.54 22.099 53.764 39.406 11.224-17.306 32.934-32.462 53.764-39.406 20.83 6.943 42.54 22.098 53.765 39.404 11.224-17.306 32.934-32.461 53.765-39.404 15.52 5.173 33.64 15.607 44.095 26.942l6.675-122.13h-316.597z"/><path d="m197.059 225.967c.126-25.672-15.082-48.768-38.762-58.774-23.694 10.012-38.906 33.13-38.761 58.821 0 10.494 2.259 27.493 2.259 27.493h73.005s2.259-17.332 2.259-27.54z"/><path d="m13.299 283.507 2.323 42.501h285.352l2.323-42.501z"/><path d="m302.328 253.507 1.998-21.983c2.532-27.851-13.123-53.607-38.5-64.331-23.68 10.006-38.889 33.102-38.761 58.774 0 10.708 2.258 27.54 2.258 27.54z"/><path d="m299.334 356.008h-282.073l6.295 115.168h269.484z"/></g></svg>