<svg id="Capa_1" enable-background="new 0 0 512 512" height="512" viewBox="0 0 512 512" width="512" xmlns="http://www.w3.org/2000/svg"><g><path d="m479.875 223.62c-12.18 0-22.76 6.83-28.12 16.87h-46.16c-3-30.16-14.93-57.73-33.11-80.02l32.61-32.61v-.01c10.89 3.32 23.21.66 31.82-7.95 12.45-12.44 12.45-32.62 0-45.07s-32.63-12.45-45.07 0c-8.61 8.61-11.27 20.93-7.95 31.82h-.01l-32.56 32.56c-22.39-18.44-50.17-30.55-80.58-33.57v-45.64l-.01-.01c10.04-5.35 16.88-15.94 16.88-28.12 0-17.6-14.27-31.87-31.87-31.87s-31.87 14.27-31.87 31.87c0 12.18 6.83 22.76 16.87 28.12v45.65c-30.29 3.01-57.96 15.03-80.3 33.34l-32.33-32.33c3.31-10.89.65-23.21-7.96-31.82-12.44-12.45-32.62-12.45-45.07 0s-12.45 32.63 0 45.07c8.61 8.61 20.93 11.27 31.82 7.95v.01l32.33 32.33c-18.31 22.34-30.33 50.01-33.34 80.3h-45.65c-5.36-10.04-15.94-16.87-28.12-16.87-17.6 0-31.87 14.27-31.87 31.87s14.27 31.87 31.87 31.87c12.18 0 22.76-6.83 28.12-16.87h45.65c3.01 30.29 15.03 57.96 33.34 80.3l-32.33 32.33v.01c-10.89-3.32-23.21-.66-31.82 7.95-12.45 12.44-12.45 32.62 0 45.07s32.63 12.45 45.07 0c8.61-8.61 11.27-20.93 7.96-31.82l32.33-32.33c22.34 18.31 50.01 30.33 80.3 33.34v46.67c-10.04 5.36-16.87 15.94-16.87 28.12 0 17.6 14.27 31.87 31.87 31.87s31.87-14.27 31.87-31.87c0-12.18-6.84-22.77-16.88-28.12l.01-.01v-46.66c30.41-3.02 58.19-15.13 80.58-33.57l32.56 32.56h.01c-3.32 10.89-.66 23.21 7.95 31.82 12.44 12.45 32.62 12.45 45.07 0s12.45-32.63 0-45.07c-8.61-8.61-20.93-11.27-31.82-7.95v-.01l-32.61-32.61c18.18-22.29 30.11-49.86 33.11-80.02h46.16c5.36 10.04 15.94 16.87 28.12 16.87 17.6 0 31.87-14.27 31.87-31.87s-14.27-31.87-31.87-31.87zm-288.46 46.77h-30v-30h30zm38-60.77h-30v-30h30zm82.69 121.74h-30v-30h30zm38-60.77h-30v-30h30z"/></g></svg>