<svg id="Capa_1" enable-background="new 0 0 512 512" height="512" viewBox="0 0 512 512" width="512" xmlns="http://www.w3.org/2000/svg"><g><path d="m444.531 33.734h-98.014l-4.118-3.314c-24.728-19.901-54.605-30.42-86.399-30.42s-61.67 10.519-86.399 30.42l-4.118 3.314h-98.014v410.797h377.063v-410.797zm-188.531 204.656c-55.394 0-100.46-45.066-100.46-100.46 0-55.395 45.066-100.461 100.46-100.461 55.395 0 100.461 45.066 100.461 100.461 0 55.394-45.066 100.46-100.461 100.46z"/><path d="m324.838 122.93c-6.896-31.668-35.133-55.461-68.838-55.461-38.852 0-70.46 31.609-70.46 70.461s31.608 70.46 70.46 70.46c33.705 0 61.942-23.793 68.838-55.46h-68.838v-30z"/><path d="m474.531 35.931v438.601h-437.062v-438.601c-21.644 6.47-37.469 26.553-37.469 50.272v373.328c0 28.932 23.537 52.469 52.469 52.469h407.063c28.931 0 52.468-23.537 52.468-52.469v-373.328c0-23.719-15.825-43.802-37.469-50.272z"/></g></svg>