<svg id="Capa_1" enable-background="new 0 0 512 512" height="512" viewBox="0 0 512 512" width="512" xmlns="http://www.w3.org/2000/svg"><g><path d="m302.177 110.369c-12.925 9.564-28.9 15.232-46.177 15.232s-33.252-5.668-46.177-15.232c-20.263 14.444-33.491 38.12-33.491 64.9v31.867h159.336v-31.866c0-26.781-13.228-50.457-33.491-64.901z"/><path d="m125.845 415.232c-12.925 9.564-28.9 15.232-46.177 15.232s-33.252-5.668-46.177-15.232c-20.263 14.444-33.491 38.12-33.491 64.901v31.867h159.336v-31.867c0-26.781-13.228-50.457-33.491-64.901z"/><path d="m478.509 415.232c-12.925 9.564-28.9 15.232-46.177 15.232s-33.252-5.668-46.177-15.232c-20.263 14.444-33.491 38.12-33.491 64.9v31.868h159.336v-31.867c0-26.781-13.228-50.457-33.491-64.901z"/><path d="m271 255h-30v66.34l-57.452 33.17 15 25.98 57.452-33.17 57.452 33.17 15-25.98-57.452-33.17z"/><path d="m207.992 434.402h30v30h-30z" transform="matrix(.156 -.988 .988 .156 -255.76 599.349)"/><path d="m274.008 434.402h30v30h-30z" transform="matrix(.988 -.156 .156 .988 -66.748 50.747)"/><path d="m452 226h30v30h-30z"/><path d="m441.674 160.798h30v30h-30z" transform="matrix(.951 -.309 .309 .951 -31.973 149.726)"/><path d="m411.703 101.978h29.999v30h-29.999z" transform="matrix(.809 -.588 .588 .809 12.736 273.153)"/><path d="m365.023 55.297h30v30h-30z" transform="matrix(.588 -.809 .809 .588 99.778 336.421)"/><path d="m30 226h30v30h-30z"/><path d="m40.327 160.798h30v30h-30z" transform="matrix(.309 -.951 .951 .309 -128.963 174.092)"/><path d="m70.297 101.978h30v30h-30z" transform="matrix(.588 -.809 .809 .588 -59.476 117.226)"/><path d="m116.978 55.297h30v30h-30z" transform="matrix(.809 -.588 .588 .809 -16.114 91.001)"/><ellipse cx="256" cy="47.801" rx="47.801" ry="47.801" transform="matrix(.383 -.924 .924 .383 113.871 266.022)"/><ellipse cx="79.668" cy="352.664" rx="47.801" ry="47.801" transform="matrix(.383 -.924 .924 .383 -276.639 291.309)"/><ellipse cx="432.332" cy="352.664" rx="47.801" ry="47.801" transform="matrix(.987 -.16 .16 .987 -50.908 73.806)"/></g></svg>