<svg id="Capa_1" enable-background="new 0 0 512 512" height="512" viewBox="0 0 512 512" width="512" xmlns="http://www.w3.org/2000/svg"><g><path d="m416.398 432.332h-320.796c-16.667 0-32.837-3.228-47.801-9.381v59.049h416.398v-59.05c-14.963 6.154-31.134 9.382-47.801 9.382z"/><path d="m512 306.73c0-30.593-14.371-57.827-36.73-75.323-27.462-21.49-42.938-54.877-42.938-89.747v-111.66h-63.734v68.531c0 62.186-50.412 112.597-112.597 112.597-62.186 0-112.597-50.412-112.597-112.597v-68.531h-63.736v111.659c0 34.871-15.476 68.257-42.938 89.747-22.359 17.498-36.73 44.731-36.73 75.324 0 52.799 42.802 95.602 95.602 95.602h320.797c52.799 0 95.601-42.802 95.601-95.602z"/></g></svg>