<svg id="Capa_1" enable-background="new 0 0 512 512" height="512" viewBox="0 0 512 512" width="512" xmlns="http://www.w3.org/2000/svg"><g><path d="m32 0h58.375v512h-58.375z"/><path d="m298.158 130.644c-11.528 0-20.946 6.398-25.193 17.116s-1.769 21.83 6.631 29.727l18.563 17.454 18.562-17.454c8.399-7.897 10.878-19.01 6.631-29.727-4.247-10.718-13.665-17.116-25.194-17.116z"/><path d="m120.375 34.139v288.727c119.95-11.434 239.635 27.897 359.625 8.875 0-96 0-192 0-288-120.256 19.063-239.497-21.198-359.625-9.602zm225.438 205.607-20.551 21.856-27.104-25.484-27.104 25.484-20.55-21.856 25.756-24.217-17.216-16.186c-17.168-16.142-22.651-40.728-13.97-62.636s29.518-36.063 53.083-36.063 44.402 14.156 53.084 36.063 3.198 46.494-13.97 62.636l-17.216 16.186z"/></g></svg>