<svg id="Capa_1" enable-background="new 0 0 510 510" height="512" viewBox="0 0 510 510" width="512" xmlns="http://www.w3.org/2000/svg"><g><path d="m480 263.787v-38.787c0-116.796-80.218-171.753-81.107-172.981-83.011-69.296-204.626-69.421-287.788.002-.324.437-81.105 57.373-81.105 172.979v38.787l-30 30v102.426l38.787 38.787h66.213v-180h-45v-30c0-55.992 23.729-106.539 61.65-142.137l41.946 41.946 10.41-7.82c23.503-17.657 51.511-26.989 80.994-26.989 29.482 0 57.49 9.333 80.995 26.989l10.409 7.82 41.945-41.946c37.921 35.598 61.651 86.145 61.651 142.137v30h-45v180h66.213l38.787-38.787v-102.426z"/><path d="m180 390h15v-210h-15c-24.813 0-45 20.187-45 45v180.046c13.07-9.874 28.936-15.046 45-15.046z"/><path d="m225 390h150v-210h-150zm45-180h60v30h-60zm0 60h60v30h-60zm0 60h60v30h-60z"/><path d="m135.692 457.19c-4.868 27.695 16.535 52.81 44.308 52.81h195v-30h-30v-30h30v-30h-195c-21.796 0-40.531 15.708-44.308 37.19z"/></g></svg>