<svg id="Capa_1" enable-background="new 0 0 512 512" height="512" viewBox="0 0 512 512" width="512" xmlns="http://www.w3.org/2000/svg"><g><path d="m309.654 0c-111.574 0-202.346 90.772-202.346 202.346 0 49.963 18.212 95.746 48.334 131.084l-27.109 27.109 21.17 21.171 26.977-26.977c35.587 31.093 82.116 49.959 132.974 49.959 111.574 0 202.346-90.773 202.346-202.346 0-111.574-90.772-202.346-202.346-202.346zm0 342.726c-77.406 0-140.38-62.974-140.38-140.38s62.974-140.381 140.38-140.381 140.381 62.974 140.381 140.381c-.001 77.406-62.975 140.38-140.381 140.38z"/><path d="m16.234 417.26c-21.645 21.644-21.645 56.863 0 78.507 10.822 10.822 25.037 16.233 39.252 16.233 14.216 0 28.431-5.411 39.253-16.233l18.532-18.532-78.506-78.507z"/><path d="m90.294 349.48h33.428v111.024h-33.428z" transform="matrix(.707 -.707 .707 .707 -255.03 194.284)"/></g><g><path d="m309.654 91.906c-60.897 0-110.44 49.543-110.44 110.441 0 60.896 49.543 110.44 110.44 110.44s110.441-49.543 110.441-110.44c-.001-60.898-49.544-110.441-110.441-110.441zm0 181.303c-9.576 0-17.339-7.763-17.339-17.339s7.763-17.339 17.339-17.339 17.338 7.763 17.338 17.339-7.762 17.339-17.338 17.339zm12.111-53.443h-24.04l-6.011-88.6h36.061z"/></g></svg>