<svg id="Capa_1" enable-background="new 0 0 512 512" height="512" viewBox="0 0 512 512" width="512" xmlns="http://www.w3.org/2000/svg"><g><path d="m135.156 499.106c-7.158-50.467-7.882-101.431-2.211-151.939-14.076 9.045-30.76 14.208-48.454 14.208-.002 0 .001 0-.001 0h-84.49v60.375h75.25v30h-75.25v60.25h137.247z"/><path d="m482 180.75v30.081h-30.25v-45.206h-30v26.563h-30.25v67.374h30.25v26.563h30v-45.294h30.25v30.169h30v-90.25z"/><path d="m361.5 192.188h-35.653c-13.214 0-24.644 7.612-30.163 18.687h-40.509c-1.015-11.326-3.34-22.563-6.99-33.478-9.281-29.71-35.054-53.298-66.105-59.319l-69.344-13.869c-24.758-4.952-43.959-24.557-48.394-49.413l-9.777-54.796h-54.565v331.375h84.49c27.402 0 51.183-18.566 57.829-45.151l15.997-63.987 29.104 7.276-15.855 63.419-4.412 26.176c-9.803 58.153-10.581 117.246-2.315 175.637l2.8 17.255h96.055v-47.333c0-32.231-5.226-64.248-15.474-94.807-11.184-31.673-11.465-67.51-.006-99.364 3.229-9.675 5.417-19.603 6.576-29.621h-44.915v-30h45.255v30h40.554c5.518 11.075 16.949 18.687 30.163 18.687h35.654zm-256.25 108.937h-30v-30h30z"/></g></svg>