<svg id="Capa_1" enable-background="new 0 0 512 512" height="512" viewBox="0 0 512 512" width="512" xmlns="http://www.w3.org/2000/svg"><g><path d="m331 153.785c10.475 2.384 21.268 7.234 32.285 14.87l.015.015c12.583 8.716 27.348 13.33 42.7 13.33 47.321 0 83.353-43.358 73.301-91.113-5.713-27.188-27.568-49.922-54.39-56.558-23.101-5.713-46.802-.732-65.112 13.594-8.048 6.301-18.009 10.479-28.799 12.543v-28.466h-30c0 4.955 0 156.057 0 150h30z"/><path d="m148.422 152h122.578v-90h-122.578c-28.581 0-56.314 11.104-77.653 30h-39.769v30h39.769c21.337 18.896 49.072 30 77.653 30z"/><g><path d="m91 212h90v32h-90z"/><path d="m211 212h90v32h-90z"/><path d="m331 212h90v32h-90z"/><path d="m512 302v-30h-512v30h31v148h-31v30h512v-30h-31v-148zm-61 148h-390v-148h30v75c0 24.9 20.1 45 45 45s45-20.1 45-45v-75h30v75c0 24.9 20.1 45 45 45s45-20.1 45-45v-75h30v75c0 24.9 20.1 45 45 45s45-20.1 45-45v-75h30z"/></g></g></svg>