<svg id="Capa_1" enable-background="new 0 0 510 510" height="512" viewBox="0 0 510 510" width="512" xmlns="http://www.w3.org/2000/svg"><g id="XMLID_7_"><path id="XMLID_8_" d="m15 465h45v45h-45z"/><path id="XMLID_9_" d="m165 334.855v31.358l45 45 45-45v-31.357c-28.409 13.531-61.586 13.533-90-.001z"/><path id="XMLID_10_" d="m98.05 99.37c76.328-15.266 212.178-12.192 262.986 11.832 9.563 4.522 16.034 9.849 20.389 15.231l38.575-51.433h-30c-82.56 0-91.17-75-180-75-88.938 0-97.71 75-180 75h-30l38.575 51.433c13.091-16.18 38.504-22.869 59.475-27.063z"/><path id="XMLID_11_" d="m60 189.274v29.56c0 32.561 23.648 59.684 54.667 65.146-14.24-30.744-8.255-54.073-9.667-82.044-2.362-.422-31.594-6.531-45-12.662z"/><path id="XMLID_12_" d="m360 189.274c-13.405 6.131-30.478 10.072-45 12.661-1.413 27.971 4.572 51.3-9.667 82.044 31.019-5.461 54.667-32.585 54.667-65.146z"/><path id="XMLID_13_" d="m285 240v-33.828c-46.763 5.104-103.208 5.107-150 0v33.828c0 41.421 33.579 75 75 75 41.421 0 75-33.579 75-75z"/><ellipse id="XMLID_14_" cx="210" cy="150" rx="150" ry="30"/><path id="XMLID_15_" d="m330 331.236c-11.949-1.981-18.338-.955-45-1.236v48.64l-75 75-75-75v-48.64h-30c-49.706 0-90 40.294-90 90v15h75v75h225v-75h24.1c-13.559-37.594-7.665-63.451-9.1-103.764z"/><path id="XMLID_16_" d="m353.805 465h-8.805v45h52.395c-17.419-11.804-32.261-27.094-43.59-45z"/><path id="XMLID_17_" d="m360 382.918c0 17.372 3.659 34.456 10.666 50.203l131.733-131.733-67.399-16.85-75 18.75z"/><path id="XMLID_18_" d="m386.66 459.553c20.792 26.293 44.801 35.021 48.34 37.218 3.34-2.205 34.583-13.362 56.55-48.903 12.07-19.53 18.45-41.989 18.45-64.949v-46.705z"/></g></svg>