<svg id="Capa_1" enable-background="new 0 0 512 512" height="512" viewBox="0 0 512 512" width="512" xmlns="http://www.w3.org/2000/svg"><g><path d="m96 96c6.581 0 21.571-1.987 37.796-5.393 6.269 13.691 17.222 24.788 30.808 31.239 7.72-5.558 17.178-8.846 27.396-8.846l128.49.583c9.515.043 18.877 2.768 26.737 8.13.061.042.122.084.183.126 13.579-6.453 24.527-17.546 30.794-31.232 16.224 3.406 31.215 5.393 37.796 5.393 17.673 0 32-14.327 32-32s-14.327-32-32-32c-6.581 0-21.571 1.987-37.796 5.393-10.101-22.06-32.355-37.393-58.204-37.393h-128c-25.849 0-48.103 15.333-58.204 37.393-16.225-3.406-31.215-5.393-37.796-5.393-17.673 0-32 14.327-32 32s14.327 32 32 32z"/><path d="m320 177c9.374 0 17-7.626 17-17 0-8.878-8.819-16.881-17.536-16.888l-127.532-.112c-9.21 0-16.774 7.47-16.929 16.711-.16 9.508 7.938 17.289 17.447 17.289z"/><path d="m192 335c-9.374 0-17 7.626-17 17s7.626 17 17 17h128c9.374 0 17-7.626 17-17s-7.626-17-17-17z"/><path d="m416 416c-6.581 0-21.571 1.987-37.796 5.393-6.269-13.691-17.222-24.788-30.809-31.239-7.719 5.558-17.177 8.846-27.395 8.846h-128c-10.218 0-19.676-3.288-27.396-8.846-13.586 6.452-24.539 17.548-30.809 31.239-16.224-3.406-31.214-5.393-37.795-5.393-17.673 0-32 14.327-32 32s14.327 32 32 32c6.581 0 21.571-1.987 37.796-5.393 10.101 22.06 32.355 37.393 58.204 37.393h128c25.849 0 48.103-15.333 58.204-37.393 16.224 3.406 31.215 5.393 37.796 5.393 17.673 0 32-14.327 32-32s-14.327-32-32-32z"/><path d="m416 224c-6.581 0-21.571 1.987-37.796 5.393-6.269-13.691-17.222-24.788-30.809-31.239-7.719 5.558-17.177 8.846-27.395 8.846h-128c-10.218 0-19.676-3.288-27.396-8.846-13.586 6.452-24.539 17.548-30.809 31.239-16.224-3.406-31.214-5.393-37.795-5.393-17.673 0-32 14.327-32 32s14.327 32 32 32c6.581 0 21.571-1.987 37.796-5.393 6.269 13.691 17.222 24.788 30.808 31.239 7.72-5.558 17.178-8.846 27.396-8.846h128c10.218 0 19.676 3.288 27.396 8.846 13.586-6.452 24.539-17.548 30.808-31.239 16.224 3.406 31.215 5.393 37.796 5.393 17.673 0 32-14.327 32-32s-14.327-32-32-32z"/></g></svg>