<svg id="Capa_1" enable-background="new 0 0 512 512" height="512" viewBox="0 0 512 512" width="512" xmlns="http://www.w3.org/2000/svg"><g><path d="m80.333 421.879-36.24-36.24c-26.494 16.954-44.093 46.64-44.093 80.361v46h80.333z"/><path d="m241 391.88c-10.36-1.79-20.105-5.399-28.892-10.489-14.862 7.741-27.443 19.28-36.442 33.327-7.475-11.668-17.421-21.608-29.093-29.077l-36.24 36.24v90.119h130.667z"/><path d="m460.558 381.391c-8.786 5.09-18.531 8.699-28.891 10.489v90.12h-30v-90.12c-10.361-1.79-20.106-5.399-28.892-10.489-14.862 7.741-27.443 19.28-36.442 33.327-8.998-14.047-21.58-25.586-36.442-33.327-8.786 5.09-18.531 8.699-28.891 10.489v120.12h241v-46c0-36.749-20.903-68.703-51.442-84.609z"/><path d="m256 210c57.897 0 105-47.103 105-105s-47.103-105-105-105-105 47.103-105 105 47.103 105 105 105zm60-120v30h-45v45h-30v-45h-45v-30h45v-45h30v45z"/><ellipse cx="256" cy="305.333" rx="57.833" ry="57.833" transform="matrix(.98 -.198 .198 .98 -55.374 56.716)"/><ellipse cx="95.333" cy="305.333" rx="57.833" ry="57.833" transform="matrix(.98 -.198 .198 .98 -58.553 24.913)"/><path d="m416.667 363.167c31.89 0 57.833-25.944 57.833-57.833 0-31.89-25.943-57.834-57.833-57.834s-57.834 25.944-57.834 57.834c0 31.889 25.944 57.833 57.834 57.833z"/></g></svg>