<svg id="Capa_1" enable-background="new 0 0 512 512" height="512" viewBox="0 0 512 512" width="512" xmlns="http://www.w3.org/2000/svg"><g><path d="m361 467c0 8.399-6.599 15-15 15h-210c-8.401 0-15-6.601-15-15v-137.516c50.75-7.357 90-50.729 90-103.484v-90c0-24.814-20.186-45-45-45h-15v30h15c8.276 0 15 6.724 15 15v90c0 5.136-.529 10.151-1.518 15h-147.964c-.989-4.849-1.518-9.864-1.518-15v-90c0-8.276 6.724-15 15-15h15v-30h-15c-24.814 0-45 20.186-45 45v90c0 52.755 40.25 96.127 91 103.484v137.516c0 24.899 20.099 45 45 45h210c24.901 0 45-20.101 45-45v-15h-30zm-315.617-196.01h120.235c-13.706 18.114-35.214 30.01-59.618 30.01s-46.912-11.896-60.617-30.01z"/><circle cx="376" cy="346" r="15"/><path d="m241 452h120v-63.701c-17.401-6-30-22.8-30-42.299 0-24.901 20.099-45 45-45s45 20.099 45 45c0 19.499-12.599 36.299-30 42.299v63.701h121v-452h-271zm90-361h30v-30h30v30h30v30h-30v30h-30v-30h-30zm-30 90h150v30h-150zm0 60h150v30h-150z"/></g></svg>