<svg id="Capa_1" enable-background="new 0 0 511.898 511.898" height="512" viewBox="0 0 511.898 511.898" width="512" xmlns="http://www.w3.org/2000/svg"><g><path d="m7.128 440.299h369.291v37.739h-369.291z"/><path d="m323.679 304.82h-62.963c-22.836 0-44.875-9.571-60.464-26.259-15.588-16.688-23.638-39.326-22.084-62.109l3.212-47.111h-161.408c3.951 42.568 2.686 85.147-10.397 125.637-10.64 37.473-12.428 77.091-5.287 115.322h372.131v-52.74c0-29.081-23.659-52.74-52.74-52.74z"/><path d="m459.159 237.085h-62.963c-22.837 0-44.875-9.571-60.464-26.26-15.589-16.688-23.638-39.326-22.084-62.108l3.212-47.111h-100.791l-7.97 116.886c-1.005 14.736 3.994 28.795 14.077 39.589s23.77 16.738 38.541 16.738h62.963c40.501 0 74.275 29.259 81.353 67.745h106.865v-52.74c0-29.08-23.659-52.739-52.739-52.739z"/><path d="m406.419 410.299v.005h105.479v-37.739h-105.479z"/><path d="m10.207 101.594c2.277 12.5 4.398 25.101 6.198 37.747h167.022l2.573-37.734z"/><path d="m318.905 71.606 2.574-37.747h-175.793c2.276 12.495 4.378 25.094 6.175 37.734z"/></g></svg>