<svg id="Capa_1" enable-background="new 0 0 510 510" height="512" viewBox="0 0 510 510" width="512" xmlns="http://www.w3.org/2000/svg"><g><path d="m240 265.775h-60v184.212l150 37.5v-116.712h-90z"/><path d="m0 394.562 150-150v-89.557l-150-75.021z"/><path d="m240 200.058-60-29.914v65.631h60z"/><path d="m180 136.622 90 44.871v54.282h60v-184.211l-150-37.5z"/><path d="m150 121.665v-107.05l-134.053 40.216z"/><path d="m360 486.936 150-45v-71.161h-150z"/><path d="m0 495.936 150-45v-163.947l-150 149.999z"/><path d="m360 50.615v163.947l150-150c-197.503-18.364-139.644-12.984-150-13.947z"/><path d="m360 340.775h150v-233.787l-150 150z"/><path d="m270 265.775h60v75h-60z"/></g></svg>