<?xml version="1.0" encoding="iso-8859-1"?>
<!-- Generator: Adobe Illustrator 19.0.0, SVG Export Plug-In . SVG Version: 6.00 Build 0)  -->
<svg version="1.1" id="Layer_1" xmlns="http://www.w3.org/2000/svg" xmlns:xlink="http://www.w3.org/1999/xlink" x="0px" y="0px"
	 viewBox="0 0 512 512" style="enable-background:new 0 0 512 512;" xml:space="preserve">
<g>
	<g>
		<path d="M476.469,125.951l-25.822,15.253c52.398,88.703,38.046,201.604-34.905,274.554
			c-76.927,76.927-195.847,88.228-285.401,28.06l19.415-23.29l-64.137,5.836l5.811,64.132l19.609-23.523
			c42.578,29.307,93.274,44.948,145.009,44.948c6.543,0,13.111-0.25,19.672-0.755c60.797-4.677,118.056-31.028,161.228-74.201
			C519.579,354.335,535.83,226.441,476.469,125.951z"/>
	</g>
</g>
<g>
	<g>
		<path d="M426.346,85.635l-5.811-64.132l-19.613,23.528C352.959,12.018,294.69-3.661,236.244,0.834
			C175.448,5.51,118.189,31.862,75.017,75.035c-82.349,82.348-98.776,209.942-39.949,310.286l25.873-15.167
			C9.013,281.579,23.523,168.942,96.223,96.242c76.929-76.927,195.85-88.228,285.4-28.06l-19.414,23.289L426.346,85.635z"/>
	</g>
</g>
<g>
	<g>
		<path d="M255.982,86.051c-93.86,0-169.95,76.089-169.95,169.95s76.089,169.95,169.95,169.95s169.95-76.089,169.95-169.95
			S349.842,86.051,255.982,86.051z M307.132,270.996l-86.591,85.64l-21.09-21.324l65.031-64.316H146.015v-64.981h29.991v34.99
			h88.761l-64.375-64.375l21.207-21.207l85.581,85.581h63.768v29.992H307.132z"/>
	</g>
</g>
<g>
</g>
<g>
</g>
<g>
</g>
<g>
</g>
<g>
</g>
<g>
</g>
<g>
</g>
<g>
</g>
<g>
</g>
<g>
</g>
<g>
</g>
<g>
</g>
<g>
</g>
<g>
</g>
<g>
</g>
</svg>
