<svg id="Capa_1" enable-background="new 0 0 512 512" height="512" viewBox="0 0 512 512" width="512" xmlns="http://www.w3.org/2000/svg"><g><circle cx="120.015" cy="119.911" r="30"/><path d="m420 20.638-59.985 30v138.545l59.985 30z"/><path d="m120.015 239.911c26.138 0 42.673-8.365 45.674-9.258 46.113-19.248 95.522-38.657 147.847-46.084l16.479-2.358v-124.576l-16.743-2.368c-44.956-6.533-92.314-21.27-144.917-45.103-24.141-10.591-50.64-12.949-76.611-6.87-43.111 9.932-78.736 45.557-88.668 88.726-12.598 55.913 14.341 111.943 65.361 136.172 15.923 7.778 33.282 11.719 51.578 11.719zm0-180c33.091 0 60 26.909 60 60s-26.909 60-60 60-60-26.909-60-60 26.909-60 60-60z"/><path d="m480.015 240v30h-30v-30h-30c0 4.346 0 80.267 0 74.911 0 19.53 12.578 36.024 30 42.237v79.852c0 24.814-20.186 45-45 45s-45-20.186-45-45v-122.089c0-41.353-33.647-75-75-75s-75 33.647-75 75v122.089c0 24.814-20.186 45-45 45s-45-20.186-45-45v-47.089h27.383l17.855-127.903c-14.769 4.872-30.309 7.903-45.906 7.903-21.14 0-41.252-4.424-60-12.775v132.775h30.668v47.089c0 41.353 33.647 75 75 75s75-33.647 75-75v-122.089c0-24.814 20.186-45 45-45s45 20.186 45 45v122.089c0 41.353 33.647 75 75 75s75-33.647 75-75v-79.852c17.422-6.213 31.985-22.707 31.985-42.237 0-6.569 0-79.603 0-74.911z"/></g></svg>