<svg id="Capa_1" enable-background="new 0 0 512.023 512.023" height="512" viewBox="0 0 512.023 512.023" width="512" xmlns="http://www.w3.org/2000/svg"><g><circle cx="136.012" cy="391.012" r="22.5"/><circle cx="136.012" cy="121.012" r="22.5"/><circle cx="136.012" cy="256.012" r="22.5"/><path d="m150.236 4.741-14.224-4.741-14.224 4.741c-54.296 18.099-90.776 68.713-90.776 125.946v250.649c0 57.233 36.48 107.847 90.776 125.946l14.224 4.741 14.224-4.741c54.296-18.099 90.776-68.713 90.776-125.946v-250.649c0-57.233-36.48-107.847-90.776-125.946zm-14.224 303.771c-28.949 0-52.5-23.551-52.5-52.5s23.551-52.5 52.5-52.5 52.5 23.551 52.5 52.5-23.552 52.5-52.5 52.5zm52.5 82.5c0 28.949-23.551 52.5-52.5 52.5s-52.5-23.551-52.5-52.5 23.551-52.5 52.5-52.5 52.5 23.551 52.5 52.5zm-52.5-217.5c-28.949 0-52.5-23.551-52.5-52.5s23.551-52.5 52.5-52.5 52.5 23.551 52.5 52.5-23.552 52.5-52.5 52.5z"/><circle cx="376.012" cy="121.012" r="22.5"/><circle cx="376.012" cy="256.012" r="22.5"/><circle cx="376.012" cy="391.012" r="22.5"/><path d="m390.235 4.741-14.223-4.741-14.224 4.742c-54.296 18.099-90.776 68.712-90.776 125.945v250.649c0 57.233 36.48 107.846 90.776 125.946l14.224 4.741 14.224-4.741c54.296-18.099 90.776-68.712 90.776-125.945v-250.65c0-57.233-36.481-107.846-90.777-125.946zm-14.223 303.771c-28.948 0-52.5-23.551-52.5-52.5s23.552-52.5 52.5-52.5 52.5 23.551 52.5 52.5-23.552 52.5-52.5 52.5zm52.5 82.5c0 28.949-23.552 52.5-52.5 52.5s-52.5-23.551-52.5-52.5 23.552-52.5 52.5-52.5 52.5 23.551 52.5 52.5zm-52.5-217.5c-28.948 0-52.5-23.551-52.5-52.5s23.552-52.5 52.5-52.5 52.5 23.551 52.5 52.5-23.552 52.5-52.5 52.5z"/></g></svg>