<svg id="Capa_1" enable-background="new 0 0 512 512" height="512" viewBox="0 0 512 512" width="512" xmlns="http://www.w3.org/2000/svg"><g><path d="m256 0c-77.97 0-147.8 34.86-194.75 89.85h389.5c-46.95-54.99-116.78-89.85-194.75-89.85z"/><path d="m489.99 179.85v21.74c0 68.64-55.85 124.49-124.5 124.49-47.23 0-88.4-26.44-109.49-65.29-21.09 38.85-62.26 65.29-109.49 65.29-68.65 0-124.5-55.85-124.5-124.49v-21.74h-10.49c-7.49 24.05-11.52 49.63-11.52 76.15 0 141.38 114.62 256 256 256s256-114.62 256-256c0-26.52-4.03-52.1-11.52-76.15zm-133.33 224.4c-11.63 11.64-27.11 18.05-43.56 18.05h-108.61v-30h108.61c8.44 0 16.38-3.29 22.35-9.26l31.54-31.54 21.21 21.21z"/><path d="m0 119.85v30h52.01v51.74c0 52.1 42.39 94.49 94.5 94.49 52.1 0 94.49-42.39 94.49-94.49h30c0 52.1 42.39 94.49 94.49 94.49 52.11 0 94.5-42.39 94.5-94.49v-51.74h52.01v-30z"/></g></svg>