<svg id="Capa_1" enable-background="new 0 0 512 512" height="512" viewBox="0 0 512 512" width="512" xmlns="http://www.w3.org/2000/svg"><g><path d="m481 62-65.702-2-17.487-35.229c-7.661-15.279-23.144-24.771-40.415-24.771h-176.396v150h176.396c17.271 0 32.754-9.492 40.444-24.829l17.458-35.171 65.702 2z"/><path d="m240.509 240h120.319c-.443-20.87-4.902-41.104-12.748-60h-140.202l25.563 38.496c4.263 6.196 6.484 13.764 7.068 21.504z"/><path d="m241 452h30v15c0 8.276-6.724 15-15 15h-60c-8.276 0-15-6.724-15-15v-60c0-24.814-20.186-45-45-45s-45 20.186-45 45v60c0 8.276-6.724 15-15 15h-45v30h45c24.814 0 45-20.186 45-45v-60c0-8.276 6.724-15 15-15s15 6.724 15 15v60c0 24.814 20.186 45 45 45h60c24.814 0 45-20.186 45-45v-15h15c24.814 0 45-20.186 45-45v-15h-60v-30h60v-30h-60v-30h60v-32h-120z"/></g></svg>