<svg id="Capa_1" enable-background="new 0 0 512 512" height="512" viewBox="0 0 512 512" width="512" xmlns="http://www.w3.org/2000/svg"><g><path d="m152.93 474.531h206.141v37.469h-206.141z"/><path d="m392.805 186.455v-34.649h-141.044c-6.342 19.553-24.723 33.734-46.362 33.734s-40.02-14.181-46.362-33.734h-39.842v34.649c0 44.92 5.524 89.794 16.419 133.376 10.2 40.799 15.925 82.672 17.084 124.701h206.603c1.159-42.028 6.884-83.901 17.084-124.701 10.896-43.578 16.42-88.452 16.42-133.376z"/><path d="m254.133 84.336h138.672v37.469h-138.672z"/><path d="m186.664 54.336v82.469c0 10.33 8.404 18.734 18.734 18.734s18.734-8.404 18.734-18.734v-82.469h165.865c-13.702-35.404-75.466-54.336-133.997-54.336s-120.295 18.932-133.998 54.336z"/><path d="m119.195 84.336h37.469v37.469h-37.469z"/></g></svg>