<svg id="Capa_1" enable-background="new 0 0 512 512" height="512" viewBox="0 0 512 512" width="512" xmlns="http://www.w3.org/2000/svg"><g><path d="m290.278 64.253c-13.98-17.774-33.685-29.36-55.521-33.013v-31.24h-140v31.241c-21.837 3.653-41.541 15.238-55.522 33.013-9.813 12.476-15.99 26.975-18.254 42.146h287.551c-2.264-15.171-8.441-29.67-18.254-42.147z"/><path d="m433 436c0 25.365-20.636 46-46 46h-162.243c-23.726 0-43.208-18.461-44.871-41.77h44.871v-50.366c25.771-1.408 49.435-13.666 65.521-34.117 17.122-21.769 23.199-49.69 16.675-76.606l-16.761-69.141 16.761-69.141c.36-1.484.674-2.971.958-4.46h-286.308c.283 1.489.598 2.976.958 4.459l16.761 69.142-16.761 69.14c-6.525 26.916-.448 54.837 16.674 76.606 16.086 20.452 39.75 32.709 65.521 34.118v50.366h45.082c1.699 39.861 34.646 71.77 74.918 71.77h162.244c41.906 0 76-34.093 76-76v-134.514h-30zm-313.243-230.885h30v-30h30v30h30v30h-30v30h-30v-30h-30z"/><path d="m492 271.486v-75c0-19.821-11.927-36.262-29-42.406v-32.68h-30v32.666c-17.459 6.192-30 22.865-30 42.42v75z"/></g></svg>