<svg id="Capa_1" enable-background="new 0 0 512 512" height="512" viewBox="0 0 512 512" width="512" xmlns="http://www.w3.org/2000/svg"><g><path d="m169.657 109.661h172.685c11.976 0 22.747 5.154 30.219 13.363h139.338c-2.077-43.273-37.814-77.72-81.601-77.72h-348.596c-43.787 0-79.524 34.447-81.601 77.72h139.337c7.472-8.21 18.244-13.363 30.219-13.363z"/><path d="m383.194 153.024h128.806v38.734h-128.806z"/><path d="m0 153.024h128.806v38.734h-128.806z"/><path d="m447.597 221.758h-127.871v-82.83h-127.469v82.83l-127.854-.811-15.611 180.582c-3.03 35.046 24.601 65.168 59.777 65.168h294.843c35.183 0 62.816-30.133 59.776-65.185zm-240.34 196.204h-30v-30h30zm0-63.735h-30v-30h30zm0-63.734h-30v-30h30zm63.735 127.469h-30v-30h30zm0-63.735h-30v-30h30zm0-63.734h-30v-30h30zm63.734 127.469h-30v-30h30zm0-63.735h-30v-30h30zm0-63.734h-30v-30h30z"/></g></svg>