<?xml version="1.0" encoding="iso-8859-1"?>
<!-- Generator: Adobe Illustrator 19.0.0, SVG Export Plug-In . SVG Version: 6.00 Build 0)  -->
<svg xmlns="http://www.w3.org/2000/svg" xmlns:xlink="http://www.w3.org/1999/xlink" version="1.1" id="Layer_1" x="0px" y="0px" viewBox="0 0 512 512" style="enable-background:new 0 0 512 512;" xml:space="preserve">
<g>
	<g>
		<polygon points="488.085,389.51 473.344,395.004 458.613,400.497 420.261,414.798 405.519,420.292 390.789,425.786     414.809,489.647 512,453.077   "/>
	</g>
</g>
<g>
	<g>
		<path d="M416.612,199.562l-33.869,12.737l-39.922-106.112c-1.599-46.504-39.928-83.834-86.8-83.834    c-46.845,0-85.155,37.272-86.812,83.729v0.01c0,0.001,0,0.002,0,0.003l-39.956,106.205l-33.875-12.739L34.987,360.069    l14.741,5.494l14.741,5.494l38.342,14.29l14.741,5.504l14.731,5.483l60.286-160.214l-33.875-12.749l24.912-66.218    c15.57,23.463,42.211,38.948,72.415,38.948c30.174,0,56.815-15.475,72.385-38.908l24.901,66.189l-33.875,12.739l60.275,160.214    l14.741-5.494l14.731-5.494l38.352-14.29l14.741-5.494l14.731-5.494L416.612,199.562z M256.021,164.649    c-30.562,0-55.421-24.869-55.421-55.421c0-30.562,24.859-55.421,55.421-55.421c30.552,0,55.411,24.859,55.411,55.421    C311.432,139.779,286.573,164.649,256.021,164.649z"/>
	</g>
</g>
<g>
	<g>
		<polygon points="106.481,420.292 91.739,414.788 53.387,400.497 38.656,395.004 23.915,389.51 0,453.077 97.181,489.647     121.211,425.776   "/>
	</g>
</g>
<g>
</g>
<g>
</g>
<g>
</g>
<g>
</g>
<g>
</g>
<g>
</g>
<g>
</g>
<g>
</g>
<g>
</g>
<g>
</g>
<g>
</g>
<g>
</g>
<g>
</g>
<g>
</g>
<g>
</g>
</svg>
