<svg id="Capa_1" enable-background="new 0 0 512 512" height="512" viewBox="0 0 512 512" width="512" xmlns="http://www.w3.org/2000/svg"><g><path d="m208.293 282.495 26.494-26.495-135.377-135.377c-19.001-19.001-19.001-49.919 0-68.921s49.919-19.001 68.921 0c7.304 7.305 19.19 7.305 26.494 0 7.305-7.304 7.305-19.19 0-26.494-33.611-33.611-88.3-33.611-121.91 0-33.61 33.61-33.61 88.299 0 121.91z"/><path d="m328.164 314.79h37.469v159.632h-37.469z" transform="matrix(.707 -.707 .707 .707 -177.425 360.873)"/><path d="m419.063 466.771h37.469v37.469h-37.469z" transform="matrix(.707 -.707 .707 .707 -215.076 451.773)"/><path d="m439.085 25.208c-33.61-33.61-88.299-33.61-121.91 0-7.305 7.304-7.305 19.19 0 26.494 7.304 7.305 19.19 7.305 26.494 0 19.001-19.001 49.919-19.001 68.921 0s19.001 49.919 0 68.921l-317.174 317.175 26.495 26.494 317.174-317.174c33.61-33.611 33.61-88.3 0-121.91z"/><path d="m55.468 466.771h37.469v37.469h-37.469z" transform="matrix(.707 -.707 .707 .707 -321.571 194.67)"/></g></svg>