<svg id="Capa_1" enable-background="new 0 0 512 512" height="512" viewBox="0 0 512 512" width="512" xmlns="http://www.w3.org/2000/svg"><g><path d="m396.312 236.348c27.263-26.789 43.039-63.664 43.039-102.629v-.08c.001-73.806-59.832-133.639-133.639-133.639h-144.011v31.017c0 12.954 3.463 25.545 9.849 36.562h83.566c27.422 0 49.732 22.31 49.732 49.732v9.747c21.976-5.104 45.242 3.234 57.277 22.854 9.404 15.329 10.149 33.461 2.643 48.917z"/><path d="m140.011 321.117c-.132-.6-5.916-31.984-5.916-31.984l10.076-13.986-15.955-15.325c-76.226 29.815-128.216 103.756-128.216 187.928v64.25h128l-13.402-97.355c-4.657-33.831 4.899-67.484 25.413-93.528zm-92.761 40.383h30v30h-30zm38 90.247h-30v-30h30z"/><path d="m382.667 282.994c-1.454-5.815-1.747-11.727-1.025-17.477l-55.012-65.43 8.079-9.65c9.147-10.925 3.725-21.772 1.845-24.836-3.916-6.383-12.016-12.296-23.007-9.762l-38.699 8.937v-47.464c0-10.88-8.852-19.732-19.732-19.732h-72.057v41.984l-42.716 71.156 21.358 21.358v17.864l42.475 17.624-38.227 28.934 3.194 17.388c1.887 10.273 10.848 17.48 20.955 17.48 1.198 0 68.042-11.366 68.042-11.366l4.567 50.019 130.493-44.891z"/><path d="m417.11 348.631-158.645 54.575-34.502 108.794h288.037c.033-67.057-36.053-130.635-94.89-163.369z"/></g></svg>