<svg id="Capa_1" enable-background="new 0 0 512 512" height="512" viewBox="0 0 512 512" width="512" xmlns="http://www.w3.org/2000/svg"><g id="XMLID_376_"><path id="XMLID_864_" d="m286.805 168.906h91.974v80.871h-91.974z"/><path id="XMLID_865_" d="m164.858 168.906h91.974v80.871h-91.974z"/><path id="XMLID_866_" d="m256.831 138.932v-80.871h-20.284c-7.162 0-12.988-5.827-12.988-12.988 0-8.327 6.774-15.1 15.1-15.1h3.073c8.326 0 15.099 6.773 15.099 15.1v12.988h29.973v-12.988c0-8.327 6.774-15.1 15.1-15.1h3.073c8.326 0 15.1 6.773 15.1 15.1 0 7.162-5.826 12.988-12.988 12.988h-20.284v80.871h91.974v-80.871h-30.74c1.303-4.1 2.012-8.462 2.012-12.988-.001-24.854-20.22-45.073-45.074-45.073h-3.073c-11.553 0-22.101 4.373-30.086 11.546-7.985-7.173-18.533-11.546-30.086-11.546h-3.073c-24.853 0-45.073 20.219-45.073 45.073 0 4.526.708 8.889 2.012 12.988h-30.74v80.871z"/><path id="XMLID_375_" d="m507.191 314.147c-7.671-12.195-23.33-16.598-36.232-10.188l-121.257 60.171h-68.982c18.56 0 33.607-15.046 33.607-33.607 0-18.561-15.046-33.607-33.607-33.607h-152.338l-127.883 77.826v137.258l153.222-55.894h165.405c26.788 0 52.906-8.373 74.702-23.947l105.926-80.245c12.085-8.635 15.345-25.194 7.437-37.767z"/></g></svg>