<svg id="Capa_1" enable-background="new 0 0 512 512" height="512" viewBox="0 0 512 512" width="512" xmlns="http://www.w3.org/2000/svg"><g><path d="m121 143.5h30v30h-30z"/><path d="m181 203.5h-90v-60h-30v150h150v-150h-30z"/><path d="m392 143.5v120h120v-45c0-41.353-33.633-75-75-75z"/><path d="m151 413.5c0-24.814-20.186-45-45-45s-45 20.186-45 45 20.186 45 45 45 45-20.186 45-45zm-45 15c-8.262 0-15-6.724-15-15s6.738-15 15-15 15 6.724 15 15-6.738 15-15 15z"/><path d="m362 413.5c0 24.814 20.186 45 45 45s45-20.186 45-45-20.186-45-45-45-45 20.186-45 45zm60 0c0 8.276-6.738 15-15 15s-15-6.724-15-15 6.738-15 15-15 15 6.724 15 15z"/><path d="m106 338.5c41.367 0 75 33.647 75 75h90c0-45.069 0-239.574 0-330h30v-30h-301v360h31c0-41.353 33.633-75 75-75zm-75-225h210v210h-210z"/><path d="m301 143.5v270h31c0-41.353 33.633-75 75-75s75 33.647 75 75h30v-60h-30v-30h30v-30h-150v-150z"/></g></svg>