<svg id="Capa_1" enable-background="new 0 0 512 512" height="512" viewBox="0 0 512 512" width="512" xmlns="http://www.w3.org/2000/svg"><g><path d="m65.371 0c-20.265 0-36.752 16.487-36.752 36.752v398.877c7.905-4.215 16.921-6.604 26.488-6.604h22.431v-429.025z"/><path d="m445.912 33.734h37.469v35.164h-37.469z"/><path d="m445.912 98.898h37.469v35.164h-37.469z"/><path d="m271 214.693c0 27.918 22.713 50.631 50.631 50.631h94.281v-101.262h-94.281c-27.918 0-50.631 22.713-50.631 50.631zm75.6 13.573h-30v-30h30z"/><path d="m415.912 0h-308.374v429.024h308.375v-133.7h-94.281c-44.46 0-80.631-36.171-80.631-80.631s36.171-80.631 80.631-80.631h94.281v-134.062z"/><path d="m415.912 459.024h-360.805c-14.605 0-26.488 11.883-26.488 26.488s11.882 26.488 26.488 26.488h360.805z"/></g></svg>