<svg id="Capa_1" enable-background="new 0 0 512 512" height="512" viewBox="0 0 512 512" width="512" xmlns="http://www.w3.org/2000/svg"><g><path d="m453.822 44.481h36.044v-29.878h-36.044v-14.603h-395.644v14.603h-36.044v29.878h36.044v16.404h395.644z"/><path d="m58.178 466.971h-36.044v29.877h36.044v15.152h395.644v-15.152h36.044v-29.877h-36.044v-16.54h-395.644z"/><path d="m292.753 148.728h-72.127c-5.458 21.483-22.406 38.43-43.888 43.887v127.087c21.483 5.457 38.43 22.405 43.888 43.888h72.127c5.458-21.483 22.406-38.431 43.888-43.888v-127.087c-21.482-5.457-38.43-22.404-43.888-43.887zm-21.111 181.298h-29.877v-29.877h29.877zm0-59.755h-29.877v-29.877h29.877zm0-59.755h-29.877v-29.877h29.877z"/><path d="m88.328 90.762v329.792h335.345v-329.792zm263.252 256.957c-16.988 0-30.81 13.821-30.81 30.81v14.939h-128.161v-14.938c0-16.989-13.821-30.81-30.81-30.81h-14.939v-183.122h14.939c16.988 0 30.81-13.821 30.81-30.809v-14.939h128.162v14.939c0 16.988 13.821 30.809 30.81 30.809h14.939v183.121z"/></g></svg>