<svg id="Capa_1" enable-background="new 0 0 512 512" height="512" viewBox="0 0 512 512" width="512" xmlns="http://www.w3.org/2000/svg"><g><path d="m257.93 409.029c0-32.315 11.682-61.949 31.036-84.917v-21.55h23.049c21.846-16.025 48.778-25.505 77.887-25.505 6.418 0 12.728.47 18.904 1.36v-80.638h-389.68v314.221h288.334c-30.173-24.206-49.53-61.368-49.53-102.971zm31.036-166.467h30v30h-30zm-159 210h-30v-30h30zm0-60h-30v-30h30zm0-60h-30v-30h30zm0-60h-30v-30h30zm63 120h-30v-30h30zm0-60h-30v-30h30zm0-60h-30v-30h30zm63 120h-30v-30h30zm0-60h-30v-30h30zm0-60h-30v-30h30z"/><path d="m408.806 48.419h-59.68v57.719h-30v-57.719h-30v57.719h-30v-57.719h-30v57.719h-30v-57.719h-30v57.719h-30v-57.719h-30v57.719h-30v-57.719h-60v119.36h389.68z"/><path d="m79.126 0h30v48.419h-30z"/><path d="m139.126 0h30v48.419h-30z"/><path d="m199.126 0h30v48.419h-30z"/><path d="m259.126 0h30v48.419h-30z"/><path d="m319.126 0h30v48.419h-30z"/></g><g><path d="m389.902 306.057c-56.779 0-102.972 46.193-102.972 102.972 0 56.778 46.193 102.971 102.972 102.971s102.972-46.193 102.972-102.971c0-56.779-46.193-102.972-102.972-102.972zm-.131 170.184c-8.888 0-16.094-7.205-16.094-16.094s7.205-16.094 16.094-16.094c8.888 0 16.094 7.205 16.094 16.094s-7.206 16.094-16.094 16.094zm11.218-51.884h-22.173l-5.543-81.719h33.26z"/></g></svg>