<svg id="Capa_1" enable-background="new 0 0 512 512" height="512" viewBox="0 0 512 512" width="512" xmlns="http://www.w3.org/2000/svg"><g><path d="m93.016 96.994h325.969v33.735h-325.969z"/><path d="m482 18.259h-452c-16.569 0-30 13.431-30 30v273.672h63.016v-254.937h385.969v254.938h63.015v-273.673c0-16.568-13.431-30-30-30z"/><circle cx="173.617" cy="241.33" r="16.867"/><path d="m63.016 351.932h-63.016v18.735c0 16.569 13.431 30 30 30h452c16.569 0 30-13.431 30-30v-18.735h-63.016z"/><path d="m305.862 430.666h-99.724l-8.979 33.075h-77.775v30h273.231v-30h-77.774z"/><path d="m93.016 321.932h325.969v-161.204h-325.969zm162.984-127.469h130.184v30h-130.184zm0 63.734h130.184v30h-130.184zm-82.383-63.734c25.843 0 46.867 21.024 46.867 46.867s-21.024 46.867-46.867 46.867-46.867-21.024-46.867-46.867 21.024-46.867 46.867-46.867z"/></g></svg>