<svg id="Capa_1" enable-background="new 0 0 512 512" height="512" viewBox="0 0 512 512" width="512" xmlns="http://www.w3.org/2000/svg"><g><circle cx="195.75" cy="346.375" r="15.125"/><path d="m395.818 271c21.643 20.268 35.191 49.08 35.191 81s-13.549 60.732-35.191 81h84.182v-162z"/><path d="m359.5 463 24.5 49h64v-49z"/><path d="m111 352c0 44.664 36.337 81 81 81h128.009c44.664 0 81-36.336 81-81s-36.336-81-81-81h-128.009c-44.663 0-81 36.336-81 81zm160.125-5.625c0-24.882 20.243-45.125 45.125-45.125 6.974 0 13.582 1.592 19.483 4.428l8.803-8.803 21.213 21.213-8.802 8.803c2.837 5.901 4.428 12.51 4.428 19.484 0 24.882-20.243 45.125-45.125 45.125-6.974 0-13.582-1.592-19.483-4.428l-8.803 8.803-21.213-21.213 8.802-8.803c-2.836-5.902-4.428-12.51-4.428-19.484zm-47.089-49.5 21.213 21.213-8.802 8.803c2.837 5.901 4.428 12.51 4.428 19.484 0 24.882-20.243 45.125-45.125 45.125-6.974 0-13.582-1.592-19.483-4.428l-8.803 8.803-21.213-21.213 8.802-8.803c-2.837-5.901-4.428-12.51-4.428-19.484 0-24.882 20.243-45.125 45.125-45.125 6.974 0 13.582 1.592 19.483 4.428z"/><circle cx="316.25" cy="346.375" r="15.125"/><path d="m81 352c0-31.92 13.549-60.732 35.191-81h-84.191v162h84.191c-21.642-20.268-35.191-49.08-35.191-81z"/><path d="m64 463v49h64l24.5-49z"/><path d="m224 60.25h64v-30.25h28.25v-30h-120.5v30h28.25z"/><path d="m111.125 150.5-67.875 90.5h425.5l-67.875-90.5z"/><path d="m224 90.25h64v30.25h-64z"/></g></svg>