<svg id="Capa_1" enable-background="new 0 0 510 510" height="512" viewBox="0 0 510 510" width="512" xmlns="http://www.w3.org/2000/svg"><g><path d="m75 247.333c31.408 0 55.3-28.202 50.136-59.183l-20.136-180.567h-60l-20.136 180.567c-5.164 30.981 18.728 59.183 50.136 59.183z"/><path d="m75 277.333c-26.58 0-51.472-12.991-66.666-35.128l-8.334 16.672v48.54h75v105h-75v90h150v-243.54l-8.334-16.672c-15.162 22.09-40.029 35.128-66.666 35.128z"/><path d="m0 337.583h45v45h-45z"/><path d="m255 247.333c31.408 0 55.3-28.202 50.136-59.183l-20.136-180.567h-60l-20.136 180.567c-5.164 30.981 18.728 59.183 50.136 59.183z"/><path d="m255 277.333c-26.58 0-51.472-12.991-66.666-35.128l-8.334 16.672v48.54h75v105h-75v90h150v-243.54l-8.334-16.672c-15.162 22.09-40.029 35.128-66.666 35.128z"/><path d="m180 337.583h45v45h-45z"/><path d="m435 247.333c31.408 0 55.3-28.202 50.136-59.183l-20.136-180.567h-60l-20.136 180.567c-5.164 30.981 18.728 59.183 50.136 59.183z"/><path d="m501.666 242.205c-15.162 22.09-40.029 35.128-66.666 35.128-26.58 0-51.472-12.991-66.666-35.128l-8.334 16.672v48.54h75v105h-75v90h150v-243.54z"/><path d="m360 337.583h45v45h-45z"/></g></svg>