<svg id="Capa_1" enable-background="new 0 0 512 512" height="512" viewBox="0 0 512 512" width="512" xmlns="http://www.w3.org/2000/svg"><g><path d="m98.22 0h60v241h-60z"/><path d="m512 484.05c0-46.279-37.517-83.795-83.795-83.795-27.747 0-52.333 13.495-67.583 34.27-6.852-3.126-14.46-4.881-22.483-4.881-16.174 0-30.694 7.079-40.633 18.307 4.899 15.042 11.263 29.601 18.995 43.355l3.368 5.991 8.268 14.703h183.863z"/><path d="m392 325.231h30v30h-30z"/><path d="m317 265.231h30v30h-30z"/><path d="m452 295.231h30v30h-30z"/><path d="m4.921 316h246.597c-1.628-25.301-22.623-45-47.987-45h-150.623c-25.364 0-46.359 19.699-47.987 45z"/><path d="m293.72 512-3.368-5.991c-19.986-35.547-31.682-75.149-34.215-115.85l-2.749-44.159h-42.668v30h-30v-30h-37.5v30h-30v-30h-37.5v30h-30v-30h-42.668l-2.529 40.629c-2.674 42.961 4.935 85.94 22.197 125.371z"/></g></svg>