<?xml version="1.0" encoding="iso-8859-1"?>
<!-- Generator: Adobe Illustrator 19.0.0, SVG Export Plug-In . SVG Version: 6.00 Build 0)  -->
<svg xmlns="http://www.w3.org/2000/svg" xmlns:xlink="http://www.w3.org/1999/xlink" version="1.1" id="Layer_1" x="0px" y="0px" viewBox="0 0 511.999 511.999" style="enable-background:new 0 0 511.999 511.999;" xml:space="preserve">
<g>
	<g>
		<path d="M511.999,185.507l-22.261-22.261c-38.87,38.87-102.116,38.87-140.985,0c-38.869-38.87-38.87-102.116,0-140.985L326.493,0    c-35.228,35.228-46.165,85.666-32.862,130.363c-44.703-13.307-95.153-2.349-130.384,32.883    c-35.232,35.232-46.191,85.684-32.883,130.385C85.666,280.329,35.228,291.265,0,326.493l22.261,22.261    c38.87-38.87,102.116-38.87,140.985,0c38.869,38.87,38.87,102.116,0,140.985l22.261,22.261    c35.224-35.224,46.186-85.659,32.892-130.354c44.695,13.294,95.131,2.332,130.355-32.892    c35.224-35.224,46.186-85.659,32.892-130.354C426.34,231.693,476.776,220.731,511.999,185.507z M252.289,333.913l-74.203-74.203    l22.261-22.261l74.203,74.203L252.289,333.913z M296.812,319.072L192.928,215.188l22.261-22.261l103.884,103.884L296.812,319.072z     M311.652,274.551l-74.203-74.203l22.261-22.261l74.203,74.203L311.652,274.551z"/>
	</g>
</g>
<g>
	<g>
		<rect x="373.823" y="69.957" transform="matrix(0.7071 -0.7071 0.7071 0.7071 27.5321 311.32)" width="31.481" height="104.938"/>
	</g>
</g>
<g>
	<g>
		
			<rect x="106.692" y="337.089" transform="matrix(0.7071 -0.7071 0.7071 0.7071 -239.5992 200.6718)" width="31.481" height="104.938"/>
	</g>
</g>
<g>
</g>
<g>
</g>
<g>
</g>
<g>
</g>
<g>
</g>
<g>
</g>
<g>
</g>
<g>
</g>
<g>
</g>
<g>
</g>
<g>
</g>
<g>
</g>
<g>
</g>
<g>
</g>
<g>
</g>
</svg>
