<svg id="Capa_1" enable-background="new 0 0 512 512" height="512" viewBox="0 0 512 512" width="512" xmlns="http://www.w3.org/2000/svg"><g><path d="m457 424.667h-402c-5.703 0-11.272-.574-16.663-1.65 4.555 32.255 32.327 57.15 65.818 57.15h303.691c33.491 0 61.264-24.896 65.818-57.15-5.391 1.075-10.961 1.65-16.664 1.65z"/><path d="m174.226 219.542 83.894-21.702 83.876 21.697 34.077-8.915-14.622-11.924c-17.66-14.401-29.68-33.989-34.607-55.698h-141.687c-4.927 21.709-16.947 41.297-34.608 55.699l-13.702 11.173z"/><path d="m473.411 290-68.548-55.9-62.825 16.435-83.918-21.708-83.894 21.702-66.226-17.132-69.41 56.603z"/><path d="m349.5 113v-21.166c0-33.084-26.916-60-60-60h-67c-33.084 0-60 26.916-60 60v21.166z"/><path d="m0 320v19.667c0 30.327 24.673 55 55 55h402c30.327 0 55-24.673 55-55v-19.667z"/></g></svg>