<svg id="Capa_1" enable-background="new 0 0 512 512" height="512" viewBox="0 0 512 512" width="512" xmlns="http://www.w3.org/2000/svg"><g><path d="m170.353 315.15h56.883v59.885h-56.883z"/><path d="m79.971 253.184v258.816h237.646v-258.816c0-41.355-33.645-75-75-75h-87.646c-41.356 0-75 33.645-75 75zm177.264 31.966v119.885h-116.882v-119.885z"/><path d="m492.088 152.78v-146.667l-197.834 23.545v34.789h-50.46v-64.447h-90v64.447h-38.882c-52.383 0-95 42.571-95 94.897v147.106h30v-147.106c0-35.785 29.159-64.897 65-64.897h38.882v53.737h90v-53.737h50.46v34.789z"/></g></svg>