<svg id="Capa_1" enable-background="new 0 0 512.06 512.06" height="512" viewBox="0 0 512.06 512.06" width="512" xmlns="http://www.w3.org/2000/svg"><g><path d="m30 228.596h129.99l-54.78-108h-105.21v108z"/><path d="m170.92 418.596c-17.785-26.516-58.059-26.516-75.84.001-20.902 29.9 1.06 72.165 37.92 71.999 36.859.162 58.824-42.098 37.92-72zm-21.53 41h-32.78c0-8.183 0-21.8 0-30h32.78z"/><path d="m512.06 248.096c0-17.077-6.165-33.321-17.03-45.971 21.308-23.882 22.712-62.951 2.922-88.308l.049-1.222c.789-66.122-71.378-111.381-130.5-81.994-99.441-44.442-179.348 84.38-95.552 153.683 5.926 28.337 25.021 51.565 50.209 63.534-29.042 35.964-2.757 90.991 43.844 90.777-.001 0 7.999 0 7.999 0 13.785 0 25 11.215 25 25s-11.215 25-25 25h-24v30h93c62.632-.15 92.414-77.246 47.066-119.39 13.709-13.093 21.993-31.489 21.993-51.109z"/><path d="m282 388.596v-31h-53v-30h53v-.8c0-37.61-30.6-68.2-68.2-68.2-12.583-.001-60.682.001-72.23 0-22.298 0-121.19 0-141.57 0v190h57.11c-2.661-42.207 32.219-80.318 75.89-80 43.667-.319 78.556 37.794 75.89 80h73.11v-30h38v-30z"/></g></svg>