<svg id="Capa_1" enable-background="new 0 0 510 510" height="512" viewBox="0 0 510 510" width="512" xmlns="http://www.w3.org/2000/svg"><g id="XMLID_2890_"><path id="XMLID_2909_" d="m255 180c33.244 0 62.334-18.119 77.918-45h-155.836c15.584 26.881 44.674 45 77.918 45z"/><path id="XMLID_2916_" d="m240 105v-45h30v45h73.743c9.295-55.165-33.439-105-88.743-105-55.282 0-98.043 49.811-88.743 105z"/><path id="XMLID_2950_" d="m375 90c0 66.168-53.832 120-120 120s-120-53.832-120-120h-135v420h240v-240h30v240h240v-420zm-270 135h60v30h-60zm-15 225h-30v-30h30zm75-75h-60v-30h60zm30-60h-120v-30h120zm150-90h60v30h-60zm-30 60h120v30h-120zm90 90h-60v-30h60zm45 75h-30v-30h30z"/></g></svg>