<svg id="Capa_1" enable-background="new 0 0 512 512" height="512" viewBox="0 0 512 512" width="512" xmlns="http://www.w3.org/2000/svg"><g><path d="m128.563 185.228-12.061 12.06v-129.242l12.061 12.06 21.213-21.213-48.274-48.274-48.272 48.274 21.213 21.213 12.059-12.06v129.241l-12.059-12.059-21.213 21.212 48.272 48.274 48.274-48.273z"/><path d="m425.733 215.894c-18.945-.38-34.421 14.864-34.421 33.722v-10.577c0-18.471-14.57-34.019-33.037-34.389-18.945-.38-34.421 14.864-34.421 33.723l-.034-212.148c-.003-14.484-11.746-26.225-26.23-26.225h-.005c-14.486 0-26.229 11.743-26.229 26.229v202.002h-30v-178.821c0-14.486-11.743-26.229-26.229-26.229s-26.229 11.743-26.229 26.229v220.728h-15.958c-16.803 0-30.425 13.622-30.425 30.425v53.309c-.001 87.332 70.795 158.128 158.127 158.128 87.332 0 158.128-70.796 158.128-158.128v-103.59c0-18.471-14.569-34.018-33.037-34.388z"/></g></svg>