<svg id="Capa_1" enable-background="new 0 0 512.016 512.016" height="512" viewBox="0 0 512.016 512.016" width="512" xmlns="http://www.w3.org/2000/svg"><g><path d="m176.388 386.419c-14.679-12.513-33.37-19.404-52.631-19.404h-22.49c4.902 11.702 12.541 22.225 22.361 30.596 14.679 12.513 33.37 19.404 52.631 19.404h22.49c-4.902-11.701-12.541-22.224-22.361-30.596z"/><path d="m388.388 397.612c9.82-8.372 17.459-18.895 22.361-30.596h-22.49c-19.261 0-37.952 6.891-52.631 19.404-9.82 8.372-17.459 18.895-22.361 30.596h22.49c19.261 0 37.952-6.891 52.631-19.404z"/><path d="m388.26 272.016c-21.977 0-43.443 4.123-63.424 11.843l38.75-55.34c17.881-2.591 63.625-12.412 87.691-46.782 29.69-42.403 12.985-103.035 12.26-105.595l-3.333-11.76-12.19.89c-2.654.194-65.344 5.233-95.034 47.636-24.066 34.371-17.649 80.715-13.968 98.404l-68.003 97.118v-118.56c13.162-12.379 45-46.661 45-88.619 0-51.764-48.462-91.849-50.524-93.53l-9.477-7.721-9.476 7.721c-2.063 1.681-50.524 41.766-50.524 93.53 0 41.958 31.838 76.241 45 88.619v118.559l-68.003-97.118c3.681-17.689 10.099-64.034-13.968-98.404-29.69-42.403-92.38-47.442-95.034-47.636l-12.19-.89-3.333 11.76c-.726 2.56-17.431 63.192 12.26 105.595 24.066 34.37 69.81 44.191 87.691 46.782l38.75 55.34c-19.981-7.719-41.447-11.843-63.424-11.843h-123.749v63.749c0 97.186 79.066 176.251 176.252 176.251h159.496c97.186 0 176.252-79.066 176.252-176.251v-63.749h-123.748zm-151.847 175h-60.154c-26.388 0-51.991-9.438-72.093-26.573-19.865-16.934-33.208-40.339-37.572-65.903l-2.991-17.524h60.154c26.388 0 51.991 9.438 72.093 26.573 19.865 16.934 33.208 40.339 37.572 65.903zm42.181-17.524c4.364-25.564 17.707-48.969 37.572-65.903 20.102-17.136 45.705-26.573 72.093-26.573h60.154l-2.991 17.524c-4.364 25.564-17.707 48.969-37.572 65.903-20.102 17.136-45.705 26.573-72.093 26.573h-60.154z"/></g></svg>