<svg id="Capa_1" enable-background="new 0 0 512 512" height="512" viewBox="0 0 512 512" width="512" xmlns="http://www.w3.org/2000/svg"><g><path d="m329.506 178.199c2.166 0 4.229-.383 6.162-1.092v-1.838c0-26.781-13.228-50.456-33.491-64.9-12.925 9.564-28.9 15.232-46.177 15.232s-33.252-5.668-46.177-15.232c-20.263 14.444-33.491 38.12-33.491 64.9v1.838c1.933.709 3.996 1.092 6.162 1.092z"/><path d="m148.693 194.199-39.888-39.888c-.613-.613-1.245-1.207-1.882-1.795-12.364 8.283-27.22 13.125-43.188 13.125s-30.823-4.841-43.187-13.125c-12.63 11.646-20.548 28.325-20.548 46.859v97.598h76.559l47.211-58.862 11.116 6.324c14.374 8.177 30.836 12.499 47.607 12.5h10.706v-48.734h-10.705c-12.769-.002-24.773-4.975-33.801-14.002z"/><path d="m459.503 326.972 52.497 65.453v-65.453z"/><path d="m131.595 276.302-100.335 125.097h449.48l-100.335-125.097c-15.926 6.981-33.293 10.631-50.898 10.631h-40.706v-78.734h-65.602v78.734h-40.706c-17.605 0-34.972-3.649-50.898-10.631z"/><path d="m0 431.399h512v80.601h-512z"/><path d="m0 326.972v65.453l52.497-65.453z"/><path d="m329.506 208.199h-10.705v48.734h10.706c16.771 0 33.233-4.323 47.607-12.5l11.116-6.324 47.211 58.862h76.559v-97.598c0-18.534-7.917-35.213-20.547-46.859-12.364 8.283-27.22 13.125-43.188 13.125s-30.823-4.841-43.188-13.125c-.637.588-1.269 1.182-1.882 1.795l-39.888 39.888c-9.028 9.029-21.032 14.002-33.801 14.002z"/><circle cx="63.734" cy="87.84" r="47.801"/><circle cx="256" cy="47.801" r="47.801"/><circle cx="448.266" cy="87.84" r="47.801"/></g></svg>