<svg id="Capa_1" enable-background="new 0 0 512 512" height="512" viewBox="0 0 512 512" width="512" xmlns="http://www.w3.org/2000/svg"><g><path d="m402.726 449.893-24.474-388.783c-1.55-24.78-22.21-44.19-47.04-44.19h-90.335v30h90.335c9.02 0 16.53 7.06 17.1 16.07l3.62 57.51h-179.62c-24.82 0-45.48 19.41-47.03 44.19l-19.831 317.31h-16.037v30h60.25v-30h-14.156l9.424-150.75h220.27l7.659 121.701c-8.515 5.733-14.118 15.461-14.118 26.498 0 17.63 14.292 31.921 31.921 31.921s31.921-14.292 31.921-31.921c.001-13.361-8.211-24.798-19.859-29.556zm-247.504-283.333c.56-9.01 8.07-16.06 17.09-16.06h181.51l1.9 30.25h-201.39zm-8.42 134.69 5.66-90.5h205.15l5.7 90.5z"/><path d="m95.607 0h115.27v63.843h-115.27z"/></g></svg>