<?xml version="1.0" encoding="iso-8859-1"?>
<!-- Generator: Adobe Illustrator 19.0.0, SVG Export Plug-In . SVG Version: 6.00 Build 0)  -->
<svg xmlns="http://www.w3.org/2000/svg" xmlns:xlink="http://www.w3.org/1999/xlink" version="1.1" id="Layer_1" x="0px" y="0px" viewBox="0 0 512.008 512.008" style="enable-background:new 0 0 512.008 512.008;" xml:space="preserve">
<g>
	<g>
		<path d="M454.339,57.677c-76.891-76.891-202.005-76.891-278.896,0l-85.468,85.468l89.966,89.966l80.97-80.97    c27.285-27.285,71.679-27.285,98.964,0c27.285,27.285,27.285,71.679,0,98.963l-80.97,80.97l89.967,89.967l85.468-85.468    C531.231,259.681,531.231,134.568,454.339,57.677z"/>
	</g>
</g>
<g>
	<g>
		
			<rect x="220.881" y="371.914" transform="matrix(0.7071 -0.7071 0.7071 0.7071 -230.228 315.2382)" width="89.061" height="127.231"/>
	</g>
</g>
<g>
	<g>
		
			<rect x="31.94" y="182.996" transform="matrix(0.7071 -0.7071 0.7071 0.7071 -151.9828 126.3038)" width="89.061" height="127.231"/>
	</g>
</g>
<g>
	<g>
		<polygon points="97.187,392.282 140.946,348.523 113.955,321.533 5.037,430.452 106.822,430.452 63.062,474.211 90.052,501.202     198.971,392.282   "/>
	</g>
</g>
<g>
</g>
<g>
</g>
<g>
</g>
<g>
</g>
<g>
</g>
<g>
</g>
<g>
</g>
<g>
</g>
<g>
</g>
<g>
</g>
<g>
</g>
<g>
</g>
<g>
</g>
<g>
</g>
<g>
</g>
</svg>
