<svg id="Capa_1" enable-background="new 0 0 511.27 511.27" height="512" viewBox="0 0 511.27 511.27" width="512" xmlns="http://www.w3.org/2000/svg"><g><path d="m255.635 0c-104.51 0-189.53 85.02-189.53 189.53 0 34.79 9.65 73.05 28.68 113.71 14.93 31.88 35.66 65.41 61.63 99.64 55.284 70.719 81.034 91.139 99.22 108.39 17.836-16.929 44.168-37.898 99.221-108.389 25.969-34.231 46.699-67.761 61.629-99.641 19.03-40.66 28.68-78.92 28.68-113.71 0-104.51-85.02-189.53-189.53-189.53zm94.9 217.3-.05-.05c-1.637 1.962-93.151 93.147-94.85 94.96l-94.9-94.91c-61.722-65.813 21.245-162.384 94.9-112.67 73.733-49.721 156.593 46.912 94.9 112.67z"/><path d="m246.635 134.85c-19.805-19.368-54.246-19.676-71.63 9.15h80.63z"/><path d="m328.575 134.28c-25.473-24.675-55.623-11.326-72.94 9.72h80.63c-1.99-3.33-4.53-6.58-7.69-9.72z"/><path d="m255.635 269.79c7.7-7.7 18.67-18.68 29.79-29.79h-59.58z"/><path d="m182.605 196.76 13.24 13.24h119.58c15.018-15.361 20.488-18.288 25.53-36h-170.63c1.96 8.44 6.4 16.32 12.28 22.76z"/></g></svg>