<svg id="Layer_1" enable-background="new 0 0 480 480" height="512" viewBox="0 0 480 480" width="512" xmlns="http://www.w3.org/2000/svg"><g><path d="m420 15h-375v60h360l75 15v-75z"/><path d="m165 105h45v60h-45z"/><path d="m240 105h45v60h-45z"/><path d="m315 105h45v60h-45z"/><path d="m90 105h45v60h-45z"/><path d="m375 393.601c-10.732 7.196-23.636 11.399-37.5 11.399s-26.768-4.203-37.5-11.399c-10.732 7.196-23.636 11.399-37.5 11.399-13.811 0-26.744-4.175-37.519-11.387-10.729 7.191-23.624 11.387-37.481 11.387-13.864 0-26.769-4.203-37.5-11.399-10.732 7.196-23.636 11.399-37.5 11.399s-26.769-4.203-37.5-11.399c-10.732 7.196-23.636 11.399-37.5 11.399-13.867 0-26.767-4.207-37.5-11.407v71.407h450v-71.407c-10.733 7.2-23.633 11.407-37.5 11.407-13.864 0-26.768-4.203-37.5-11.399z"/><path d="m432.315 281.463-31-6.2c-13.614-2.723-26.315 7.69-26.315 21.573v-8.8c0-10.487-7.402-19.516-17.685-21.573l-31-6.2c-13.614-2.723-26.315 7.69-26.315 21.573v-4.836c0-12.15-9.85-22-22-22h-31c-11.196 0-20.433 8.366-21.814 19.188-.119.921-.186 1.858-.186 2.812 0-12.15-9.85-22-22-22h-31c-12.15 0-22 9.85-22 22v4.836c0-13.883-12.701-24.296-26.314-21.573l-31 6.2c-10.284 2.057-17.686 11.086-17.686 21.573v8.8c0-13.883-12.701-24.295-26.314-21.573l-31 6.2c-10.284 2.057-17.686 11.086-17.686 21.573v34.464c0 20.711 16.789 37.5 37.5 37.5 20.711 0 37.5-16.789 37.5-37.5 0 20.711 16.789 37.5 37.5 37.5 20.711 0 37.5-16.789 37.5-37.5 0 20.711 16.789 37.5 37.5 37.5 20.711 0 37.5-16.789 37.5-37.5 0 1.503.099 2.983.27 4.44 2.198 18.617 18.023 33.06 37.23 33.06 20.711 0 37.5-16.789 37.5-37.5 0 20.711 16.789 37.5 37.5 37.5 20.711 0 37.5-16.789 37.5-37.5 0 20.711 16.789 37.5 37.5 37.5 20.711 0 37.5-16.789 37.5-37.5v-34.464c0-10.487-7.402-19.516-17.685-21.573z"/></g></svg>