<svg id="Capa_1" enable-background="new 0 0 510.051 510.051" height="512" viewBox="0 0 510.051 510.051" width="512" xmlns="http://www.w3.org/2000/svg"><g><path d="m367.466 346.228 105.276 105.276c39.23-45.565 49.097-99.396 21.608-126.885-27.49-27.489-81.317-17.621-126.884 21.609z"/><path d="m324.645 494.325c32.197 32.195 90.267 9.91 126.882-21.611l-105.274-105.273c-39.229 45.565-49.096 99.395-21.608 126.884z"/><path d="m185.327 15.595c-27.492-27.489-81.32-17.622-126.885 21.609l105.276 105.276c39.23-45.566 49.096-99.396 21.609-126.885z"/><path d="m142.501 163.689-105.272-105.273c-39.23 45.566-49.097 99.396-21.609 126.885 32.198 32.195 90.267 9.91 126.881-21.612z"/><path d="m472.146 16.667c-14.717-10.49-32.711-16.667-52.12-16.667-49.626 0-90 40.375-90 90 0 19.41 6.177 37.403 16.667 52.121z"/><path d="m420.026 180c49.626 0 90-40.374 90-90 0-19.409-6.177-37.403-16.667-52.12l-125.453 125.453c14.716 10.49 32.711 16.667 52.12 16.667z"/><path d="m90.026 330c-49.626 0-90 40.374-90 90 0 19.41 6.177 37.403 16.667 52.121l125.453-125.454c-14.717-10.49-32.711-16.667-52.12-16.667z"/><path d="m37.906 493.333c14.716 10.49 32.711 16.667 52.12 16.667 49.626 0 90-40.374 90-90 0-19.409-6.177-37.403-16.667-52.12z"/><path d="m360.026 255c0-57.896-47.102-105-105-105-57.896 0-105 47.104-105 105 0 57.897 47.104 105 105 105 57.897 0 105-47.103 105-105zm-60 15h-30v30h-30v-30h-30v-30h30v-30h30v30h30z"/></g></svg>