<svg id="Layer_1" enable-background="new 0 0 510 510" height="512" viewBox="0 0 510 510" width="512" xmlns="http://www.w3.org/2000/svg"><g id="XMLID_713_"><path id="XMLID_763_" d="m405 30v60h-30v-60h-60v60h-30v-60h-60v60h-30v-60h-60v60h-30v-60h-105v90h510v-90z"/><path id="XMLID_975_" d="m105 0h30v30h-30z"/><path id="XMLID_976_" d="m195 0h30v30h-30z"/><path id="XMLID_977_" d="m285 0h30v30h-30z"/><path id="XMLID_990_" d="m375 0h30v30h-30z"/><path id="XMLID_994_" d="m316.955 255.025 13.045-19.566v-10.459h-30v10.459l13.044 19.566c1.814-.034 2.099-.033 3.911 0z"/><path id="XMLID_995_" d="m195 435c13.662 0 26.472-3.69 37.516-10.1-30.026-38.079-30.042-91.703 0-129.801-49.402-28.667-112.516 6.894-112.516 64.901 0 41.355 33.645 75 75 75z"/><path id="XMLID_1004_" d="m255 315.052c-19.995 26.624-20.023 63.235 0 89.897 9.414-12.536 20.023-63.236 0-89.897z"/><path id="XMLID_1018_" d="m315 435c41.355 0 75-33.645 75-75 0-58.027-63.137-93.557-112.516-64.9 30.026 38.079 30.042 91.703 0 129.801 11.044 6.409 23.854 10.099 37.516 10.099z"/><path id="XMLID_1025_" d="m0 510h510v-360h-510zm255-236.117c7.879-5.507 16.543-9.961 25.79-13.156l-10.79-16.186v-49.541h90v49.541l-10.79 16.185c41.151 14.221 70.79 53.349 70.79 99.274 0 57.897-47.103 105-105 105-22.293 0-42.98-6.988-60-18.883-17.02 11.895-37.707 18.883-60 18.883-57.896 0-105-47.103-105-105 0-85.027 96.057-134.297 165-86.117z"/></g></svg>