<svg id="Capa_1" enable-background="new 0 0 510 510" height="512" viewBox="0 0 510 510" width="512" xmlns="http://www.w3.org/2000/svg"><g><path d="m0 75h510v60h-510z"/><path d="m0 215h15.125c113.037 0 205 91.963 205 205v15h69.875v-15c0-113.037 91.963-205 205-205h15v-50h-510zm192.394 5.606 21.213-21.213 25.606 25.607h31.574l25.606-25.606 21.213 21.213-19.393 19.393 19.394 19.394-21.213 21.213-25.607-25.607h-31.574l-25.607 25.606-21.213-21.213 19.394-19.393z"/><path d="m15.125 245h-15.125v2c0 7.662 2.998 20.229 26.382 49.652 28.804 36.247 77.799 84.311 114.449 112.617 29.526 22.806 41.786 25.731 49.169 25.731h.125v-15c0-96.495-78.505-175-175-175z"/><path d="m320 420v15c7.394 0 19.668-2.945 49.208-25.917 36.68-28.523 85.653-76.896 114.435-113.305 23.361-29.552 26.357-42.126 26.357-49.778v-1h-15c-96.495 0-175 78.505-175 175z"/></g></svg>