<svg id="Capa_1" enable-background="new 0 0 512 512" height="512" viewBox="0 0 512 512" width="512" xmlns="http://www.w3.org/2000/svg"><g><path d="m259.853 285.663v45.129c0 8.341 6.785 15.126 15.125 15.126s15.126-6.785 15.126-15.126v-37.18h42.259c6.759 0 12.259-5.499 12.259-12.259v-12.259h-87.836c1.971 5.152 3.067 10.733 3.067 16.569z"/><path d="m467 293.095h-28.881v-24h-63.497v12.259c0 23.302-18.957 42.259-42.259 42.259h-12.259v7.18c0 24.883-20.243 45.126-45.125 45.126s-45.126-20.243-45.126-45.126v-45.129c0-9.136-7.432-16.568-16.568-16.568h-139.404v24h-28.881c-24.813 0-45 20.187-45 45s20.187 45 45 45h28.881v64.399l64.505 64.505h235.228l64.505-64.506v-64.399h28.881c24.813 0 45-20.187 45-45s-20.187-45-45-45zm-422 60c-8.271 0-15-6.729-15-15s6.729-15 15-15h28.881v30zm422 0h-28.881v-30h28.881c8.271 0 15 6.729 15 15s-6.729 15-15 15z"/><path d="m467.443 239.095v-30h-29.324v-30.905l-33.622-33.621h-133.497v-23.935h20.076v-30h-70.152v30h20.076v23.935h-133.497l-33.622 33.621v30.905h-29.324v30z"/><path d="m158.019 83.89h30v-35.901l-24.441-24.44v-23.549h-30v35.975l24.441 24.44z"/><path d="m330.422 83.89h30v-35.901l-24.441-24.44v-23.549h-30v35.975l24.441 24.44z"/></g></svg>