<svg id="Capa_1" enable-background="new 0 0 510 510" height="512" viewBox="0 0 510 510" width="512" xmlns="http://www.w3.org/2000/svg"><g><path d="m158.802 49.772c-92.48 39.79-158.802 136.145-158.802 250.228h30c0-30.996 30.854-52.894 60.172-42.361 1.94-71.891 22.007-153.345 68.63-207.867z"/><path d="m351.197 49.772c46.631 54.529 66.69 135.988 68.631 207.866 4.743-1.704 9.85-2.639 15.172-2.639 24.812 0 45 20.185 45 45h30c0-114.399-66.676-210.586-158.803-250.227z"/><path d="m460.606 70.606c2.501-2.5 42.5-42.5 45-45-7.419-7.419-13.794-13.794-21.213-21.213-2.501 2.5-42.499 42.5-45 45 7.419 7.419 13.795 13.795 21.213 21.213z"/><path d="m139.394 349.394c-10.499 10.499-19.501 19.501-30 30 7.419 7.419 13.794 13.794 21.213 21.213 10.499-10.499 19.501-19.501 30-30-.001-.001-13.795-13.795-21.213-21.213z"/><path d="m56.894 326.894c-5.919 5.92-46.263 46.262-52.5 52.5 7.419 7.419 13.794 13.794 21.213 21.213 5.919-5.919 46.263-46.262 52.5-52.5-7.419-7.419-13.795-13.795-21.213-21.213z"/><path d="m240 300v150c0 16.542-13.457 30-30 30-16.541 0-30-13.457-30-30 0-10.492 0-19.508 0-30-10.492 0-19.508 0-30 0v30c0 33.083 26.915 60 60 60 33.104 0 60-26.988 60-60 0-10.128 0-139.871 0-150-6.391 0-23.638 0-30 0z"/><path d="m270 31.523c0-10.924 0-20.306 0-31.523-10.285 0-19.715 0-30 0v31.523c-29.049 5.868-56.371 28.681-78.162 65.727-50.728 86.236-40.572 189.381-41.838 202.75h30c0-24.812 20.186-45 45-45 24.812 0 45 20.185 45 45v-268.024c9.783-2.587 19.861-2.681 30 0v268.024c0-24.812 20.185-45 45-45 24.812 0 45 20.185 45 45h30c-1.267-13.377 9.185-116.011-41.838-202.75-21.792-37.046-49.113-59.858-78.162-65.727z"/></g></svg>