<?xml version="1.0" encoding="iso-8859-1"?>
<!-- Generator: Adobe Illustrator 19.0.0, SVG Export Plug-In . SVG Version: 6.00 Build 0)  -->
<svg xmlns="http://www.w3.org/2000/svg" xmlns:xlink="http://www.w3.org/1999/xlink" version="1.1" id="Layer_1" x="0px" y="0px" viewBox="0 0 512 512" style="enable-background:new 0 0 512 512;" xml:space="preserve">
<g>
	<g>
		<path d="M420.997,490.349l-66.599-196.502h39.636v-31.326h-50.252l-47.866-141.229c7.552-8.865,12.12-20.351,12.12-32.91    c0-22.624-14.795-41.783-35.234-48.355h0.107V0h-31.326v40.028h0.107c-20.439,6.571-35.234,25.731-35.234,48.355    c0,11.556,3.866,22.205,10.366,30.739l-48.602,143.399h-47.764v31.326h37.146L91.003,490.349l9.56,3.24l-5.22,14.68L105.836,512    l5.275-14.836l9.559,3.24l70.007-206.557h50.905v17.751h31.326v-17.751h48.415l70.007,206.557l9.559-3.24L406.164,512    l10.494-3.731l-5.22-14.68L420.997,490.349z M272.908,262.52v-12.529h-31.326v12.53h-40.288l42.428-125.183    c4.307,1.187,8.839,1.835,13.523,1.835c3.86,0,7.614-0.445,11.228-1.261l42.232,124.609H272.908z"/>
	</g>
</g>
<g>
</g>
<g>
</g>
<g>
</g>
<g>
</g>
<g>
</g>
<g>
</g>
<g>
</g>
<g>
</g>
<g>
</g>
<g>
</g>
<g>
</g>
<g>
</g>
<g>
</g>
<g>
</g>
<g>
</g>
</svg>
