<svg id="Capa_1" enable-background="new 0 0 510 510" height="512" viewBox="0 0 510 510" width="512" xmlns="http://www.w3.org/2000/svg"><g><path d="m420 330c-18.344 0-35.42 5.522-49.663 14.983-2.99-7.559-5.211-15.467-6.569-23.617l-3.768-22.607v-43.759h15c24.814 0 45-20.188 45-45s-20.186-45-45-45h-15v30h15c8.272 0 15 6.729 15 15s-6.728 15-15 15h-75v30h30v30h-150v-30h30v-30h-60c-33.084 0-60 26.916-60 60h30c0-16.542 13.458-30 30-30v40.698l-25.689 41.104c-10.581-4.379-22.167-6.802-34.311-6.802-49.626 0-90 40.374-90 90s40.374 90 90 90c44.516 0 81.58-32.489 88.743-75h33.837c6.192 17.459 22.865 30 42.42 30 24.814 0 45-20.186 45-45 0-9.771-3.141-18.818-8.451-26.204l44.602-57.783c2.562 10.783 6.324 21.168 11.168 30.975-10.884 14.879-17.319 33.207-17.319 53.012 0 49.626 40.374 90 90 90s90-40.374 90-90-40.374-90-90-90zm-330 150c-33.084 0-60-26.916-60-60s26.916-60 60-60c6.295 0 12.364.98 18.07 2.786l-30.791 49.264 25.441 15.9 30.766-49.225c10.221 10.764 16.514 25.295 16.514 41.275 0 33.084-26.916 60-60 60zm176.925-103.399c-23.069-6.333-46.578 6.526-54.355 28.399h-33.827c-3.478-20.642-14.006-38.918-29.016-52.262l23.587-37.738h141.159zm153.075 103.399c-33.084 0-60-26.916-60-60 0-8.883 1.955-17.312 5.435-24.905 12.938 15.812 29.169 28.978 47.857 38.321l13.416-26.832c-16.701-8.351-30.943-20.531-41.766-35.231 9.87-7.133 21.978-11.353 35.058-11.353 33.084 0 60 26.916 60 60s-26.916 60-60 60z"/><path d="m75 219.012c10.166-12.732 24.93-30.277 42.774-59.275 21.383-34.748 32.226-63.258 32.226-84.737 0-41.355-33.645-75-75-75s-75 33.645-75 75c0 21.479 10.842 49.989 32.225 84.736 17.707 28.773 32.718 46.681 42.775 59.276zm-15-159.012h30v30h-30z"/></g></svg>