<svg id="Capa_1" enable-background="new 0 0 512 512" height="512" viewBox="0 0 512 512" width="512" xmlns="http://www.w3.org/2000/svg"><g><path d="m384.531 0h-257.062c-70.399 0-127.469 57.07-127.469 127.469v45.319c0 30.952 25.324 56.96 56.275 56.72 21.038-.163 39.297-11.968 48.676-29.285.394-.728 1.455-.725 1.85.002 9.445 17.437 27.893 29.284 49.116 29.284 21.224 0 39.672-11.848 49.117-29.285.395-.729 1.455-.729 1.85 0 9.444 17.438 27.893 29.285 49.117 29.285s39.672-11.848 49.117-29.285c.395-.729 1.455-.729 1.85 0 9.445 17.438 27.893 29.285 49.117 29.285 21.223 0 39.672-11.847 49.116-29.284.394-.728 1.456-.73 1.85-.002 9.379 17.317 27.637 29.122 48.676 29.285 30.951.24 56.275-25.768 56.275-56.72v-45.319c-.002-70.399-57.072-127.469-127.471-127.469zm-242.344 89.305h-30v-30h30zm77.456 54.653h-30v-30h30zm145.526-49.925h-30v-30h30z"/><path d="m309.928 246.033c-1.316-.84-2.617-1.703-3.887-2.614-14.335 10.29-31.749 16.091-50.042 16.091s-35.706-5.8-50.042-16.091c-1.269.911-2.571 1.774-3.887 2.614l-19.656 184.109c-4.667 43.73 29.607 81.858 73.586 81.858s78.253-38.128 73.584-81.858z"/></g></svg>