<svg id="Capa_1" enable-background="new 0 0 512 512" height="512" viewBox="0 0 512 512" width="512" xmlns="http://www.w3.org/2000/svg"><g><circle cx="376.95" cy="345" r="15"/><path d="m376.95 422c-24.814 0-45 20.186-45 45v36.707c14.145 5.043 29.145 8.293 45 8.293s30.855-3.25 45-8.293v-36.707c0-24.814-20.186-45-45-45z"/><path d="m376.95 240c-52.566 0-97.714 30.494-120 74.451-22.286-43.957-67.434-74.451-120-74.451-74.443 0-136.9 60.557-136.9 135 0 46.701 25.759 87.898 61.9 112.147v-22.147c0-41.353 33.647-75 75-75-24.814 0-45-20.186-45-45s20.186-45 45-45 45 20.186 45 45-20.186 45-45 45c41.353 0 75 33.647 75 75v22.147c19.006-12.751 34.471-30.271 45-50.733 10.529 20.462 25.994 37.982 45 50.733v-22.147c0-41.353 33.647-75 75-75-24.814 0-45-20.186-45-45s20.186-45 45-45 45 20.186 45 45-20.186 45-45 45c41.353 0 75 33.647 75 75v22.147c36.141-24.249 60-65.446 60-112.147 0-74.443-60.557-135-135-135z"/><circle cx="136.95" cy="345" r="15"/><path d="m136.95 422c-24.814 0-45 20.186-45 45v36.707c14.145 5.043 29.145 8.293 45 8.293s30.855-3.25 45-8.293v-36.707c0-24.814-20.186-45-45-45z"/><path d="m256.95 240c66.167 0 120-53.833 120-120s-53.833-120-120-120-120 53.833-120 120 53.833 120 120 120zm-53.027-151.816 21.211-21.211 31.816 31.816 31.816-31.816 21.211 21.211-31.816 31.816 31.816 31.816-21.211 21.211-31.816-31.816-31.816 31.816-21.211-21.211 31.816-31.816z"/></g></svg>