<svg id="Capa_1" enable-background="new 0 0 512 512" height="512" viewBox="0 0 512 512" width="512" xmlns="http://www.w3.org/2000/svg"><g><path d="m110.881 104.57-21.883-5.283c51.578-25.14 108.271-38.287 166.053-38.287h1.898c71.145 0 140.638 19.931 200.968 57.637l.133.083 15.9-25.44-.133-.083c-65.103-40.69-140.095-62.197-216.868-62.197h-1.898c-65.443 0-129.586 15.639-187.419 45.455l7.382-30.581-29.162-7.04-18.455 76.443 76.443 18.455z"/><path d="m467 167h-422c-24.813 0-45 20.187-45 45v90c0 24.813 20.187 45 45 45h422c24.813 0 45-20.187 45-45v-90c0-24.813-20.187-45-45-45zm-376 120h-30v-60h30zm60 0h-30v-60h30zm60 0h-30v-60h30zm60 0h-30v-60h30zm60 0h-30v-60h30zm60 0h-30v-60h30zm60 0h-30v-60h30z"/><path d="m401.119 407.43 21.883 5.283c-51.578 25.14-108.271 38.287-166.053 38.287h-1.898c-71.145 0-140.638-19.931-200.968-57.637l-.133-.083-15.9 25.44.133.083c65.103 40.69 140.095 62.197 216.868 62.197h1.898c65.443 0 129.586-15.639 187.419-45.455l-7.382 30.581 29.162 7.04 18.455-76.443-76.443-18.455z"/></g></svg>