<svg id="Capa_1" enable-background="new 0 0 512 512" height="512" viewBox="0 0 512 512" width="512" xmlns="http://www.w3.org/2000/svg"><g><path d="m33.734 247.685v95.643h207.266v-48.713h-35.452v-30h35.452v-54.402l-126.039-210.213-36.034 27.475v128.019c0 31.156-12.131 60.445-34.158 82.472-3.49 3.481-7.181 6.731-11.035 9.719z"/><path d="m241 459.513v-18.717h-207.266v71.197l154.823-.072c28.883-.008 52.408-23.519 52.443-52.408z"/><path d="m271 440.796v18.735c0 28.932 23.537 52.469 52.469 52.469h154.797v-71.204z"/><path d="m271 264.614h35.451v30h-35.451v48.713h207.266v-95.643c-3.854-2.988-7.543-6.235-11.022-9.708-22.04-22.038-34.171-51.328-34.171-82.484v-128.017l-36.035-27.475-126.038 210.212z"/><path d="m149.941 0 106.059 176.89 106.059-176.89z"/><path d="m33.734 373.328h207.266v37.469h-207.266z"/><path d="m271 373.328h207.266v37.469h-207.266z"/></g></svg>