<svg id="Capa_1" enable-background="new 0 0 512 512" height="512" viewBox="0 0 512 512" width="512" xmlns="http://www.w3.org/2000/svg"><g><path d="m279.212 202.739c7.638-7.231 17.188-11.429 27.088-12.635v-150.774c0-10.437-8.491-18.927-18.928-18.927s-18.928 8.491-18.928 18.927v178.389c2.557-5.556 6.177-10.634 10.768-14.98z"/><path d="m154.58 317.539c.182-13.209 5.571-25.491 15.177-34.584 11.085-10.493 26.196-14.607 40.554-12.446 1.438-9.347 5.572-18.308 12.429-25.551 4.805-5.076 10.507-8.962 16.76-11.537h-1.055v-214.494c0-10.436-8.491-18.927-18.927-18.927s-18.928 8.491-18.928 18.927l-.039 214.497-30-.006v-194.088c0-10.437-8.49-18.927-18.927-18.927s-18.928 8.491-18.928 18.927v70.721c.013.464.02.927.02 1.394v119.407l-30 .016-.02-120.31c-.447-10.146-8.514-18.469-18.365-18.739-.18-.005-.359-.007-.538-.007-4.967 0-9.637 1.892-13.201 5.36-3.695 3.595-5.73 8.414-5.73 13.568l-.01 196.228c-.002 41.323 16.093 80.17 45.319 109.384 19.88 19.872 44.22 33.655 70.758 40.436-3.508-6.809-5.377-14.398-5.377-22.278 0-13.018 5.069-25.256 14.274-34.46l13.247-13.247-34.286-34.286c-9.342-9.344-14.387-21.766-14.207-34.978z"/><path d="m381.445 185.885c-7.298-7.297-19.097-7.686-26.305-.863-3.673 3.477-5.733 8.167-5.803 13.208-.069 5.044 1.857 9.787 5.423 13.353l23.854 23.854-21.213 21.213-31.262-31.261c-7.299-7.297-19.098-7.685-26.304-.864-3.673 3.477-5.733 8.168-5.803 13.209-.069 5.044 1.856 9.786 5.423 13.352l23.854 23.854-21.204 21.222-31.008-30.954c-3.575-3.575-8.353-5.495-13.361-5.432-5.041.069-9.732 2.13-13.209 5.804-6.795 7.178-6.438 18.914.778 26.217l23.446 23.447-21.213 21.213-30.854-30.854c-7.299-7.298-19.099-7.685-26.305-.863-3.673 3.477-5.733 8.167-5.803 13.208-.069 5.045 1.857 9.787 5.423 13.353l92.601 92.601-21.213 21.213-37.102-37.101-13.247 13.247c-3.539 3.539-5.487 8.243-5.487 13.247s1.948 9.708 5.487 13.247l19.479 19.48c28.868 28.868 67.248 44.765 108.071 44.765s79.202-15.897 108.068-44.764 44.765-67.246 44.765-108.069-15.897-79.203-44.764-108.069z"/><circle cx="444.303" cy="127.089" r="30"/><circle cx="40.496" cy="482" r="30"/><path d="m471.504 22.089h30v30h-30z"/><path d="m471.504 191.979h30v30h-30z"/><path d="m10.496 351.99h30v30h-30z"/><path d="m364.303 37.089h30v30h-30z"/></g></svg>