<svg id="Capa_1" enable-background="new 0 0 512 512" height="512" viewBox="0 0 512 512" width="512" xmlns="http://www.w3.org/2000/svg"><g><path d="m428.2 345.91h-204.59l-116.2 55.82v-55.82h-23.6c-12.25 0-23.76-3.28-33.68-9.02-2.45 4.98-3.83 10.59-3.83 16.53v82.95c0 20.7 16.79 37.5 37.51 37.5h214.29l79.37 38.13v-38.13h50.73c20.71 0 37.5-16.8 37.5-37.5v-82.95c0-5.94-1.38-11.55-3.83-16.53-9.92 5.74-21.42 9.02-33.67 9.02z"/><path d="m428.2 187.96h-23.61v55.82l-116.2-55.82h-204.58c-12.25 0-23.75-3.28-33.67-9.01-2.46 4.98-3.84 10.59-3.84 16.51v82.95c0 20.68 16.83 37.5 37.51 37.5h53.6v38.13l79.37-38.13h211.42c20.68 0 37.5-16.82 37.5-37.5v-82.95c0-5.92-1.38-11.53-3.83-16.52-9.92 5.74-21.42 9.02-33.67 9.02z"/><path d="m428.2 0h-344.39c-20.68 0-37.51 16.83-37.51 37.51v82.94c0 20.411 17.109 37.51 37.51 37.51h211.41l79.37 38.13v-38.13h53.61c20.404 0 37.5-17.101 37.5-37.51v-82.94c0-20.68-16.82-37.51-37.5-37.51z"/></g></svg>