<?xml version="1.0" encoding="iso-8859-1"?>
<!-- Generator: Adobe Illustrator 19.0.0, SVG Export Plug-In . SVG Version: 6.00 Build 0)  -->
<svg xmlns="http://www.w3.org/2000/svg" xmlns:xlink="http://www.w3.org/1999/xlink" version="1.1" id="Capa_1" x="0px" y="0px" viewBox="0 0 512 512" style="enable-background:new 0 0 512 512;" xml:space="preserve">
<g>
	<g>
		<path d="M21.607,0.393L0.394,21.606l118.123,118.123c-26.325,12.987-45.001,39.201-47.281,69.915    c-18.895,7.817-35.691,20.733-48.071,37.133C8.01,266.851,0,290.787,0,316c0,63.411,51.589,115,115,115h282    c4.101,0,8.149-0.225,12.14-0.647l81.254,81.254l21.213-21.213L21.607,0.393z"/>
	</g>
</g>
<g>
	<g>
		<path d="M466.204,224.161C469.361,215.149,471,205.607,471,196c0-46.869-38.131-85-85-85c-10.605,0-21.031,1.971-30.795,5.772    C334.761,81.833,297.346,60,256,60c-25.212,0-49.149,8.01-69.223,23.164c-7.553,5.702-14.356,12.351-20.274,19.7l302.629,302.629    C495.258,384.394,512,352.117,512,316C512,279.828,494.738,245.737,466.204,224.161z"/>
	</g>
</g>
<g>
</g>
<g>
</g>
<g>
</g>
<g>
</g>
<g>
</g>
<g>
</g>
<g>
</g>
<g>
</g>
<g>
</g>
<g>
</g>
<g>
</g>
<g>
</g>
<g>
</g>
<g>
</g>
<g>
</g>
</svg>
