<svg id="Capa_1" enable-background="new 0 0 512 512" height="512" viewBox="0 0 512 512" width="512" xmlns="http://www.w3.org/2000/svg"><g><path d="m256 437.659c39.831 0 72.235-32.462 72.235-72.363s-32.404-72.364-72.235-72.364-72.235 32.462-72.235 72.363 32.404 72.364 72.235 72.364zm-40-87.363h25v-25.059h30v25.059h25v30h-25v25.059h-30v-25.059h-25z"/><path d="m40.353 473.213 38.786 38.787h353.723l38.786-38.787v-254.622h-431.295zm215.647-210.281c56.373 0 102.235 45.92 102.235 102.363s-45.862 102.364-102.235 102.364-102.235-45.92-102.235-102.363 45.862-102.364 102.235-102.364z"/><path d="m352.177 108.276v-12.1c0-53.031-43.145-96.176-96.177-96.176s-96.177 43.145-96.177 96.176v12.1h-119.47v80.315h431.295v-80.315zm-30 0h-132.354v-12.1c0-36.489 29.687-66.176 66.177-66.176s66.177 29.687 66.177 66.176z"/></g></svg>