<svg id="Capa_1" enable-background="new 0 0 512 512" height="512" viewBox="0 0 512 512" width="512" xmlns="http://www.w3.org/2000/svg"><g><path d="m301 241c-19.937 0-30.527-12.114-37.544-20.127-6.533-7.456-9.126-9.873-14.956-9.873s-8.423 2.417-14.956 9.873c-7.017 8.013-17.607 20.127-37.544 20.127-19.893 0-30.483-12.07-37.5-20.083v80.083h180v-80.083c-7.017 8.013-17.607 20.083-37.5 20.083z"/><path d="m68.5 45v302c0 24.814 20.186 45 45 45h270c24.814 0 45-20.186 45-45v-302c0-24.814-20.186-45-45-45h-270c-24.814 0-45 20.186-45 45zm210 16h90v30h-90zm0 60h60v30h-60zm-150 60h15c19.937 0 30.527 12.114 37.544 20.127 6.533 7.456 9.126 9.873 14.956 9.873s8.423-2.417 14.956-9.873c7.017-8.013 17.607-20.127 37.544-20.127s30.527 12.114 37.544 20.127c6.533 7.456 9.126 9.873 14.956 9.873s8.423-2.417 14.956-9.873c7.017-8.013 17.607-20.127 37.544-20.127h15v150h-240z"/><path d="m203.5 512v-60h30v-30h-90v30h30v60z"/><path d="m293.5 422v15c0 41.353 33.647 75 75 75h75v-30h-75c-24.814 0-45-20.186-45-45v-15z"/></g></svg>