<svg id="Capa_1" enable-background="new 0 0 512 512" height="512" viewBox="0 0 512 512" width="512" xmlns="http://www.w3.org/2000/svg"><g><path d="m440.676 233.712h71.324v278.288h-71.324z"/><path d="m410.676 357.405h-82.052c9.076 51.013 14.051 102.807 14.859 154.595h67.193z"/><path d="m320.863 318.438c.659 2.984 1.285 5.976 1.915 8.967h87.898v-37.469h-96.106z"/><path d="m440.676 166.243h71.324v37.469h-71.324z"/><path d="m121.144 368.83h71.203v143.17h-71.203z"/><path d="m0 512h91.144v-173.17h131.203v173.17h91.144c-1.011-62.86-8.373-125.723-21.922-187.095l-27.58-124.928h-214.486l-27.58 124.928c-13.55 61.372-20.912 124.235-21.923 187.095zm192.347-242.731h30v33.734h-30zm-101.203 0h30v33.734h-30z"/><path d="m64.398 132.509-8.272 37.469h201.238l-8.272-37.469z"/><g><g><path d="m146.497 102.509h-30c0-9.399-1.96-13.483-4.673-19.136-3.398-7.08-7.628-15.892-7.628-32.119s4.229-25.038 7.628-32.118c2.713-5.652 4.673-9.736 4.673-19.136h30c0 16.228-4.229 25.038-7.628 32.118-2.713 5.652-4.673 9.736-4.673 19.136s1.96 13.484 4.673 19.137c3.399 7.08 7.628 15.891 7.628 32.118z"/></g><g><path d="m209.294 102.509h-30c0-9.399-1.96-13.483-4.673-19.136-3.398-7.08-7.628-15.892-7.628-32.119s4.229-25.038 7.628-32.118c2.713-5.652 4.673-9.736 4.673-19.136h30c0 16.228-4.229 25.038-7.628 32.118-2.713 5.652-4.673 9.736-4.673 19.136s1.96 13.484 4.673 19.137c3.399 7.08 7.628 15.891 7.628 32.118z"/></g></g></g></svg>