<svg id="Capa_1" enable-background="new 0 0 512 512" height="512" viewBox="0 0 512 512" width="512" xmlns="http://www.w3.org/2000/svg"><g><path d="m327.51 67.89h-.97c-17.64 0-31.94 14.3-31.94 31.94v27.94h-63.89v44.23h223.6v-44.23h-63.88v-27.94c0-17.64-14.3-31.94-31.95-31.94h-.97v-37.89h101.8v-30h-406.62v30h50.25v481.09h63.88v-481.09h160.69z"/><path d="m407.691 334.435v-30h46.616l.003-.005v-33.88l-.002-.003h-46.617v-30h46.619v-38.547h-223.6v38.547h46.622v30h-46.62l-.002.003v33.88l.003.005h46.619v30h-46.622v16.945l31.94 31.94h64.86v48.89h-23.77v30h23.77v49.79h30v-49.79h23.77v-30h-23.77v-48.89h64.86l31.94-31.94v-16.945zm-24.501-31.945h-25.68v25.68h-30v-25.68h-25.68v-30h25.68v-25.68h30v25.68h25.68z"/></g></svg>