<svg id="Capa_1" enable-background="new 0 0 512 512" height="512" viewBox="0 0 512 512" width="512" xmlns="http://www.w3.org/2000/svg"><g id="Amazed_1_"><path d="m287.567 286.831c4.98-4.849 8.643-10.576 10.869-16.831h-84.888c2.197 6.211 5.786 11.865 10.605 16.553 17.111 17.549 46.862 17.27 63.414.278z"/><path d="m376 390h-119.06c.003 0 .007-.002.01-.002 107.085-.514 194.05-87.795 194.05-194.998 0-107.52-87.48-195-195-195s-195 87.48-195 195c0 107.134 86.854 194.372 193.844 194.997.006 0 .012.003.018.003h-118.862c-57.891 0-105 47.109-105 105v17h450v-17c0-57.891-47.109-105-105-105zm-90-240h30v-30h30v30h30v30h-30v30h-30v-30h-30zm-150 30v-30h30v-30h30v30h30v30h-30v30h-30v-30zm45 75v-15h150v15c0 41.228-33.518 75-75 75-40.977 0-75-33.277-75-75z"/></g></svg>