<svg id="Capa_1" enable-background="new 0 0 512 512" height="512" viewBox="0 0 512 512" width="512" xmlns="http://www.w3.org/2000/svg"><g><path d="m337.104 175.896c0-28.836-15.139-54.187-37.874-68.572 11.8-11.359 19.165-27.295 19.165-44.928.001-34.406-27.99-62.396-62.395-62.396s-62.396 27.99-62.396 62.396c0 17.634 7.365 33.57 19.165 44.928-22.735 14.385-37.874 39.736-37.874 68.572.001 44.72 36.384 81.104 81.105 81.104s81.104-36.384 81.104-81.104zm-113.5-113.5c0-17.864 14.533-32.396 32.396-32.396s32.396 14.532 32.396 32.396-14.533 32.395-32.396 32.395-32.396-14.532-32.396-32.395zm32.396 164.604c-28.179 0-51.104-22.926-51.104-51.104s22.925-51.104 51.104-51.104 51.104 22.926 51.104 51.104-22.925 51.104-51.104 51.104z"/><path d="m483.787 169.833c-.001 0 .001 0 0 0-15.582 0-28.213 12.631-28.213 28.213v108.001c0 15.547-6.054 30.164-17.048 41.157l-53.545 53.545-21.213-21.213 53.545-53.545c10.997-10.997 10.997-28.891 0-39.888-5.499-5.498-12.723-8.247-19.945-8.248-7.224-.001-14.445 2.749-19.944 8.248l-106.422 106.423v119.474h152.688l88.31-150.97v-162.984c0-15.581-12.632-28.213-28.213-28.213z"/><path d="m114.632 277.856c-7.222 0-14.446 2.75-19.945 8.248-10.997 10.997-10.997 28.891 0 39.888l53.545 53.545-21.213 21.213-53.545-53.545c-10.994-10.993-17.048-25.61-17.048-41.157v-108.002c0-15.582-12.631-28.213-28.213-28.213-15.582 0-28.213 12.631-28.213 28.213v162.984l88.311 150.97h152.688v-119.474l-106.423-106.423c-5.499-5.498-12.721-8.247-19.944-8.247z"/></g></svg>