<svg id="Capa_1" enable-background="new 0 0 512 512" height="512" viewBox="0 0 512 512" width="512" xmlns="http://www.w3.org/2000/svg"><g><g><path d="m338.478 103.691c-10.349 0-18.676 7.851-18.676 20.816s8.326 20.816 18.676 20.816c10.348 0 18.675-7.851 18.675-20.816-.001-12.965-8.327-20.816-18.675-20.816z"/><path d="m162.195 0v258.626h165.909v57.148l92.33-57.148h91.566v-258.626zm79.574 168.043c-13.917 0-27.953-3.45-36.28-8.564l9.04-20.459c7.85 4.639 18.318 7.613 27.477 7.613 7.97 0 10.824-1.665 10.824-4.52 0-10.467-46.033-2.022-46.033-33.068 0-15.463 12.966-28.071 38.778-28.071 11.181 0 22.719 2.379 31.402 7.256l-8.445 20.34c-8.208-4.164-15.94-6.186-23.195-6.186-8.207 0-10.824 2.38-10.824 5.234 0 9.992 46.033 1.665 46.033 32.354 0 15.224-12.965 28.071-38.777 28.071zm96.709 0c-27.12 0-46.985-18.319-46.985-43.536s19.865-43.535 46.985-43.535 46.985 18.318 46.985 43.535-19.865 43.536-46.985 43.536zm94.21 0c-13.918 0-27.953-3.45-36.28-8.564l9.04-20.459c7.851 4.639 18.319 7.613 27.477 7.613 7.969 0 10.825-1.665 10.825-4.52 0-10.467-46.033-2.022-46.033-33.068 0-15.463 12.965-28.071 38.777-28.071 11.182 0 22.72 2.379 31.403 7.256l-8.446 20.34c-8.207-4.164-15.939-6.186-23.195-6.186-8.207 0-10.824 2.38-10.824 5.234 0 9.992 46.033 1.665 46.033 32.354 0 15.224-12.965 28.071-38.777 28.071z"/></g><path d="m470.058 427.793c-23.127 0-41.942 18.815-41.942 41.942v2.503c0 5.365-4.365 9.729-9.729 9.729-6.035 0-10.944-4.909-10.944-10.944v-2.286c0-22.577-18.368-40.944-41.031-40.944-22.577 0-40.944 18.368-40.944 40.944v2.286c0 6.035-4.909 10.944-10.944 10.944h-11.104l-29.118 30h40.222c22.577 0 40.944-18.367 40.944-40.944v-2.286c0-6.035 4.909-10.944 11.03-10.944 6.035 0 10.944 4.91 10.944 10.944v2.286c0 22.577 18.367 40.944 40.944 40.944 21.907 0 39.729-17.823 39.729-39.729v-2.503c0-6.585 5.357-11.942 11.942-11.942s11.943 5.357 11.943 11.942v42.265h30v-42.265c0-23.127-18.815-41.942-41.942-41.942z"/><path d="m210.254 369.817-34.833 34.819c-32.586-10.449-57.888-35.751-68.337-68.337l34.82-34.833-82.134-82.133-59.77 59.785s6.223 85.961 76.741 156.479c71.962 71.962 157.116 76.403 157.116 76.403l58.406-60.174z"/></g></svg>