<svg id="Capa_1" enable-background="new 0 0 512 512" height="512" viewBox="0 0 512 512" width="512" xmlns="http://www.w3.org/2000/svg"><g><path d="m241 408.129v-64.438c-21.195 6.444-36.666 26.165-36.666 49.438 0 28.488 23.177 51.665 51.666 51.665 23.273 0 42.994-15.47 49.438-36.665z"/><path d="m421.625 174.133v-174.133h-331.25v174.133zm-135.493-126.739 36.533 36.533 36.533-36.533 21.213 21.213-57.746 57.746-57.746-57.746zm-96.798 1.129 57.746 57.746-21.213 21.213-36.533-36.533-36.533 36.533-21.213-21.213z"/><path d="m90.375 204.133v307.867h331.25v-307.867zm150.625 39.068h30v33.194h-30zm118.751 208.226-27.955-27.954c-12.071 30.044-41.486 51.322-75.796 51.322-45.031 0-81.666-36.635-81.666-81.665 0-39.906 28.778-73.195 66.666-80.261v-20.019h30v18.614h51.666v30h-51.666v36.666h57.879l52.085 52.085z"/></g></svg>