<svg id="Capa_1" enable-background="new 0 0 511.507 511.507" height="512" viewBox="0 0 511.507 511.507" width="512" xmlns="http://www.w3.org/2000/svg"><g><path d="m417 286.379h-10c-19.902-.83-19.893-29.176 0-30h16c35.84 0 65-29.16 65-65s-29.16-65-65-65h-53v59h-60v30c-38.489 0-170.008 0-206.16 0-22.759 38.79 6.444 89.426 51.661 89-.001 0 21.499 0 21.499 0 30.531 1.278 30.486 44.744 0 46h-75c-83.512 3.421-83.616 122.531 0 126h315c125.924-5.174 126.095-184.751 0-190zm-56 73h30v30h-30zm-89-89h30v30h-30zm-19 118h30v30h-30z"/><path d="m340 155.379c0-7.258 0-20.697 0-28h-30v28z"/><path d="m0 35.129h45v150.25h-45z"/><path d="m205 185.379v-150.25h-130v150.25zm-35-60.13h-21.79l-15.3 20.87-24.19-17.74 13.24-18.06-13.24-18.07 24.19-17.74 15.21 20.74h21.88z"/><path d="m280 185.379c0-23.226 0-125.175 0-150.25h-45v150.25z"/></g></svg>