<svg id="Capa_1" enable-background="new 0 0 512 512" height="512" viewBox="0 0 512 512" width="512" xmlns="http://www.w3.org/2000/svg"><g><path d="m299.731 218.159 26.87-9.912c-10.034-9.737-16.288-23.35-16.288-38.403v-16.579c0-29.523 24.02-53.543 53.543-53.543s53.543 24.02 53.543 53.543v16.579c0 15.004-6.212 28.578-16.189 38.309l35.995 12.974c6.466 2.331 12.442 5.546 17.828 9.465v-134.572l-184.033-96.02v193.49c12.546 4.052 22.886 13.041 28.731 24.669z"/><path d="m111.702 208.036c-9.906-9.722-16.066-23.249-16.066-38.192v-16.579c0-29.523 24.019-53.543 53.543-53.543s53.543 24.02 53.543 53.543v16.579c0 15.128-6.317 28.8-16.439 38.547l26.02 9.703c5.85-11.596 16.175-20.559 28.697-24.604v-193.49l-184.032 96.02v134.677c5.433-3.952 11.466-7.188 17.998-9.524z"/><path d="m271 512c15.992-8.248 51.337-28.207 86.979-59.87 24.122-21.43 44.042-44.42 59.385-68.483h-146.364z"/><path d="m149.179 193.387c12.981 0 23.543-10.562 23.543-23.543v-16.579c0-12.981-10.562-23.543-23.543-23.543s-23.543 10.562-23.543 23.543v16.579c0 12.981 10.561 23.543 23.543 23.543z"/><path d="m166.353 337.468c0-23.13 14.633-43.904 36.413-51.692l16.833-6.02c-7.557-8.42-12.233-19.465-12.493-31.582l-58.035-21.641-64.003 22.889c-14.044 5.023-24.196 17.116-27.015 31.392 2.506 24.856 9.356 49.229 20.459 72.833h87.841z"/><path d="m363.855 193.387c12.981 0 23.543-10.562 23.543-23.543v-16.579c0-12.981-10.562-23.543-23.543-23.543s-23.543 10.562-23.543 23.543v16.579c0 12.981 10.562 23.543 23.543 23.543z"/><path d="m315.647 337.394c0-10.463-6.613-19.876-16.456-23.424l-42.917-15.47-43.407 15.523c-9.878 3.532-16.515 12.954-16.515 23.444v15.861h119.295z"/><path d="m427.03 249.35-63.309-22.82-58.829 21.702c-.272 12.049-4.913 23.036-12.41 31.43l16.883 6.085c21.701 7.822 36.282 28.577 36.282 51.646v16.253h88.202c10.922-23.54 17.658-47.906 20.119-72.819-2.781-14.289-12.91-26.421-26.938-31.477z"/><path d="m95.201 383.646c15.258 23.691 34.971 46.416 58.787 67.703 35.698 31.908 71.091 52.203 87.012 60.566v-128.27h-145.799z"/><path d="m256 266.036c10.433 0 18.921-8.488 18.921-18.921v-7.066c0-10.433-8.488-18.921-18.921-18.921s-18.921 8.488-18.921 18.921v7.066c0 10.433 8.488 18.921 18.921 18.921z"/></g></svg>