<svg id="Capa_1" enable-background="new 0 0 512.483 512.483" height="512" viewBox="0 0 512.483 512.483" width="512" xmlns="http://www.w3.org/2000/svg"><g id="XMLID_149_"><path id="XMLID_165_" d="m428.985 228.11h-1.054c-25.269 0-49.721-9.734-67.541-27.65-5.228-5.256-10.94-10.147-17.154-14.664 11.577-16.971 18.34-37.471 18.34-59.562 0-14.2-2.802-27.748-7.88-40.126 18.503-5.794 31.76-23.455 30.842-44.067-1-22.458-19.144-40.778-41.593-41.978-20.295-1.083-37.785 11.578-44.028 29.507-13.189-5.91-27.811-9.197-43.202-9.197s-30.013 3.287-43.202 9.197c-6.243-17.929-23.733-30.59-44.029-29.505-22.448 1.199-40.593 19.519-41.593 41.977-.918 20.612 12.339 38.273 30.842 44.067-5.078 12.378-7.88 25.925-7.88 40.126 0 22.091 6.763 42.591 18.341 59.562-6.214 4.517-11.926 9.408-17.154 14.664-17.82 17.916-42.272 27.65-67.541 27.65-23.576 0-42.687 19.112-42.687 42.687 0 23.576 19.112 42.687 42.687 42.687h22.868c-.383 6.172-.589 12.482-.589 18.962 0 22.982 3.584 44.952 10.118 65.159 11.776-18.46 32.422-30.738 55.895-30.738 36.541 0 66.269 29.729 66.269 66.27v42.078c0 12.364-3.413 23.941-9.332 33.857 9.484 2.231 19.282 3.41 29.31 3.41 8.588 0 17.007-.868 25.205-2.516-6.253-10.111-9.873-22.014-9.873-34.751v-42.078c0-36.541 29.728-66.27 66.269-66.27 23.472 0 44.117 12.277 55.894 30.736 6.535-20.205 10.12-42.181 10.12-65.157 0-6.48-.206-12.79-.589-18.962h23.921c23.576 0 42.688-19.112 42.688-42.688-.001-23.575-19.113-42.687-42.688-42.687zm-145.313-141.468h30v33.044h-30zm-42.957 51.452h30v33.045h-30zm-42.958-51.452h30v33.044h-30zm115.212 216.943-57.254 62.462-57.254-62.462c-10.316-11.255-14.127-26.781-10.193-41.533 5.19-19.459 22.892-33.048 43.048-33.048 8.466 0 16.742 2.433 23.935 7.036l.465.298.464-.297c7.194-4.604 15.471-7.037 23.936-7.037 20.155 0 37.856 13.589 43.047 33.046 3.933 14.753.122 30.28-10.194 41.535z"/><path id="XMLID_173_" d="m280.114 259.004c-2.723 0-5.407.797-7.764 2.305l-16.636 10.649-16.638-10.65c-2.354-1.507-5.039-2.304-7.762-2.304-6.586 0-12.368 4.432-14.061 10.778-1.281 4.806-.04 9.864 3.322 13.531l35.139 38.335 35.139-38.335c3.361-3.667 4.603-8.726 3.321-13.532-1.692-6.344-7.474-10.777-14.06-10.777z"/><path id="XMLID_1049_" d="m171.791 396.868c-19.999 0-36.269 16.271-36.269 36.27v42.078c0 19.999 16.27 36.269 36.269 36.269s36.269-16.27 36.269-36.269v-42.078c0-19.999-16.27-36.27-36.269-36.27z"/><path id="XMLID_1053_" d="m339.639 396.868c-19.998 0-36.269 16.271-36.269 36.27v42.078c0 19.999 16.271 36.269 36.269 36.269 19.999 0 36.27-16.27 36.27-36.269v-42.078c-.001-19.999-16.271-36.27-36.27-36.27z"/></g></svg>