<?xml version="1.0" encoding="iso-8859-1"?>
<!-- Generator: Adobe Illustrator 19.0.0, SVG Export Plug-In . SVG Version: 6.00 Build 0)  -->
<svg xmlns="http://www.w3.org/2000/svg" xmlns:xlink="http://www.w3.org/1999/xlink" version="1.1" id="Layer_1" x="0px" y="0px" viewBox="0 0 512.001 512.001" style="enable-background:new 0 0 512.001 512.001;" xml:space="preserve">
<g>
	<g>
		<path d="M473.611,10.601L463.009,0L292.014,170.994l-10.447,10.448l-34.13,34.129l64.907,64.907l34.128-34.129l-43.703-43.703    l11.495-11.495c12.859,8.595,27.756,12.902,42.658,12.902c19.667,0,39.334-7.486,54.305-22.458l62.384-62.385    c14.505-14.505,22.495-33.792,22.495-54.305C496.106,44.393,488.118,25.107,473.611,10.601z"/>
	</g>
</g>
<g>
	<g>
		<path d="M226.234,236.775L29.277,433.734c-8.629,8.629-13.382,20.102-13.382,32.304c0,12.203,4.753,23.676,13.364,32.287    l0.315,0.316c8.906,8.907,20.605,13.36,32.303,13.36c11.7,0,23.398-4.453,32.304-13.36l196.959-196.958L226.234,236.775z"/>
	</g>
</g>
<g>
</g>
<g>
</g>
<g>
</g>
<g>
</g>
<g>
</g>
<g>
</g>
<g>
</g>
<g>
</g>
<g>
</g>
<g>
</g>
<g>
</g>
<g>
</g>
<g>
</g>
<g>
</g>
<g>
</g>
</svg>
