<svg id="Capa_1" enable-background="new 0 0 512.001 512.001" height="512" viewBox="0 0 512.001 512.001" width="512" xmlns="http://www.w3.org/2000/svg"><path d="m488.39 202.648c0-111.92-90.728-202.648-202.648-202.648-90.163 0-166.564 58.878-192.868 140.28l-9.76 60.392-59.504 98.703v29.92h47.385l20.165 110.149h112.918l17.139 72.557h228.021l-28.235-158.448c41.367-37.101 67.387-90.968 67.387-150.905zm-225.244-25.027-39.913 62.626h39.913v30h-75.25v-30.374l40.551-63.626h-40.551v-30h75.25zm96.958 15.282h-68.552v-29.397l31.309-43.13h-31.84v-30h68.719v30.264l-30.68 42.264h31.044z"/></svg>