<?xml version="1.0" encoding="iso-8859-1"?>
<!-- Generator: Adobe Illustrator 19.0.0, SVG Export Plug-In . SVG Version: 6.00 Build 0)  -->
<svg xmlns="http://www.w3.org/2000/svg" xmlns:xlink="http://www.w3.org/1999/xlink" version="1.1" id="Layer_1" x="0px" y="0px" viewBox="0 0 512 512" style="enable-background:new 0 0 512 512;" xml:space="preserve">
<g>
	<g>
		<path d="M256,64.437c-46.137,0-83.678,37.541-83.678,83.678c0,46.137,37.541,83.678,83.678,83.678s83.678-37.541,83.678-83.678    C339.678,101.978,302.137,64.437,256,64.437z"/>
	</g>
</g>
<g>
	<g>
		<path d="M404.114,148.114C404.114,66.444,337.67,0,256,0S107.886,66.444,107.886,148.114c0,74.997,56.027,137.143,128.42,146.807    v29.541h-28.001v139.843C208.305,490.605,229.7,512,256,512s47.695-21.395,47.695-47.695V324.463h-28.001v-29.541    C348.087,285.257,404.114,223.111,404.114,148.114z M256,263.163c-63.433,0-115.049-51.616-115.049-115.049    c0-63.443,51.616-115.049,115.049-115.049s115.049,51.606,115.049,115.049C371.049,211.547,319.433,263.163,256,263.163z"/>
	</g>
</g>
<g>
</g>
<g>
</g>
<g>
</g>
<g>
</g>
<g>
</g>
<g>
</g>
<g>
</g>
<g>
</g>
<g>
</g>
<g>
</g>
<g>
</g>
<g>
</g>
<g>
</g>
<g>
</g>
<g>
</g>
</svg>
