<svg id="Capa_1" enable-background="new 0 0 512 512" height="512" viewBox="0 0 512 512" width="512" xmlns="http://www.w3.org/2000/svg"><g><path d="m3 347 33.4 16.5c25.201 12.599 57.9 29.099 106.5 28.5-3.9 18.3-4.799 43.799-9.3 57.299l-9.6 28.5 28.5-9.6c22.5-7.2 57.001-7.5 88.5-40.8v-95.399h30v95.7c30.3 32.699 62.401 32.699 86.4 40.499l28.2 9.6-9.3-28.5c-4.801-14.399-5.7-38.699-9.6-57.299 48.3.599 84.398-15.601 109.299-28.5l33.001-17.5-33.001-15.5c-21-10.801-46.598-22.202-77.499-26.7 23.101-26.4 36-54.6 57.299-102.9l31.8-70.501-117.299 53.401c-13.801 6.299-27.001 13.799-39.6 22.8.3-3.301.3-6.301.3-9.6 0-76.5-28.2-103.1-61.5-170.001l-13.5-26.999-13.5 26.999c-33.6 67.201-61.5 93.8-61.5 170.001 0 3.3 0 6.299.3 9.6-12.301-9.001-25.501-16.501-39.6-22.8l-117.299-53.401 31.8 70.501c21.299 47.999 33.898 76.5 57.299 102.6-32.1 4.501-56.1 16.5-77.999 27.299z"/><path d="m241 427.4v84.6h30v-84.3c-5.099-5.4-10.201-11.7-15-18.9-4.799 7.2-9.901 13.2-15 18.6z"/></g></svg>