<svg id="Capa_1" enable-background="new 0 0 512.046 512.046" height="512" viewBox="0 0 512.046 512.046" width="512" xmlns="http://www.w3.org/2000/svg"><g><path d="m364.989 0h-80.017c-44.477 0-81.259 33.554-86.377 76.677h28.478c17.515 0 34.139 3.876 49.07 10.804.669-1.766 1.348-3.453 2.013-5.098 3.301-8.174 5.908-14.63 5.908-29.049h30c0 20.248-4.299 30.892-8.092 40.284-1.433 3.547-2.734 6.773-3.749 10.465 25.562 21.478 41.84 53.665 41.84 89.587v155.487c0 18.984-2.583 37.591-7.483 55.411 12.59-1.727 24.892-6.267 35.954-13.642 49.747-33.164 79.446-88.658 79.446-148.446v-155.488c.001-47.968-39.023-86.992-86.991-86.992zm8.792 157.617c-3.793-9.392-8.092-20.036-8.092-40.284h30c0 14.419 2.607 20.875 5.908 29.049 3.793 9.392 8.092 20.036 8.092 40.284s-4.299 30.893-8.092 40.284c-3.301 8.175-5.908 14.631-5.908 29.05h-30c0-20.248 4.299-30.892 8.092-40.283 3.301-8.175 5.908-14.631 5.908-29.05s-2.607-20.876-5.908-29.05z"/><path d="m314.064 349.156v-155.487c0-47.967-39.024-86.992-86.991-86.992h-80.018c-47.967 0-86.991 39.024-86.991 86.992v155.487c0 59.788 29.699 115.282 79.446 148.446 14.443 9.629 30.999 14.444 47.554 14.444s33.11-4.815 47.554-14.444c49.747-33.164 79.446-88.658 79.446-148.446zm-154.466-53.773c3.793 9.392 8.092 20.036 8.092 40.284h-30c0-14.419-2.607-20.875-5.908-29.049-3.793-9.392-8.092-20.036-8.092-40.284s4.299-30.893 8.092-40.284c3.301-8.174 5.908-14.63 5.908-29.049h30c0 20.247-4.299 30.892-8.092 40.283-3.301 8.175-5.908 14.631-5.908 29.05-.001 14.419 2.607 20.876 5.908 29.049zm76.091 109.95h-30c0-20.248 4.299-30.893 8.092-40.284 3.301-8.174 5.908-14.63 5.908-29.049s-2.607-20.875-5.908-29.049c-3.793-9.392-8.092-20.036-8.092-40.284h30c0 14.419 2.607 20.875 5.908 29.05 3.793 9.391 8.092 20.036 8.092 40.283s-4.299 30.892-8.092 40.283c-3.3 8.175-5.908 14.632-5.908 29.05z"/></g></svg>