<svg id="Capa_1" enable-background="new 0 0 510 510" height="512" viewBox="0 0 510 510" width="512" xmlns="http://www.w3.org/2000/svg"><g><path d="m315 8.787v111.213h111.213z"/><path d="m285 150v-150h-210v510h360v-360zm-165-75h120v30h-120zm0 60h120v30h-120zm46.184 140.029-43.467-34.247 18.566-23.564 22.533 17.753 35.578-35.577 21.213 21.213zm54.422 65.577-54.422 54.423-43.467-34.247 18.566-23.564 22.533 17.753 35.578-35.577zm139.394 124.394h-240v-30h240zm0-60h-105v-30h105zm0-60h-105v-30h105zm0-60h-105v-30h105zm0-60h-105v-30h105z"/></g></svg>