<svg id="Capa_1" enable-background="new 0 0 510 510" height="512" viewBox="0 0 510 510" width="512" xmlns="http://www.w3.org/2000/svg"><g><path d="m315.39 381.136c-38.279 11.515-80.47 12.125-120.778.001l46.633 98.863h-166.245v30h360v-30h-166.245z"/><path d="m255 360c99.252 0 180-80.748 180-180s-80.748-180-180-180-180 80.748-180 180 80.748 180 180 180zm-70.606-229.394 21.213-21.213 49.393 49.394 49.394-49.394 21.213 21.213-49.394 49.394 49.393 49.393-21.213 21.213-49.393-49.393-49.394 49.393-21.213-21.213 49.394-49.393z"/></g></svg>