<svg id="Capa_1" enable-background="new 0 0 512 512" height="512" viewBox="0 0 512 512" width="512" xmlns="http://www.w3.org/2000/svg"><g><path d="m301 62h-30v-62h-120v62h-30v30c4.358 0 186.112 0 180 0z"/><path d="m361 372.397v-340.397h-30v340.397c-10.723 15.923-30 46.933-30 64.603 0 24.814 20.186 45 45 45s45-20.186 45-45c0-17.67-19.277-48.68-30-64.603z"/><path d="m151 122h120v30h-120z"/><path d="m151 212h60v30h-60v30h60v30h-60v30h60v30h-60v30h60v30h-60v30c0 33.091 26.909 60 60 60s60-26.909 60-60v-270h-120z"/></g></svg>