<svg id="Capa_1" enable-background="new 0 0 512 512" height="512" viewBox="0 0 512 512" width="512" xmlns="http://www.w3.org/2000/svg"><g><path d="m31 479.911h450v32.089h-450z"/><g><path d="m370.825 97.589c13.534 0 26.379 3.184 37.915 8.875 6.58-27.225.293-46.009-7.645-61.764-11.756-23.334-29.125-35.19-31.066-36.465l-14.442-8.235-7.209 14.088c-.588 1.053-6.349 10.897-21.02 20.621-20.911 13.86-50.308 21.186-85.015 21.186-9.863 0-20.361-.588-31.204-1.746l-.793-.085h-.798c-30.071 0-56.057 17.841-68.041 43.525z"/><path d="m425.736 163.817c-10.053-21.995-30.885-37.147-54.911-37.147h-229.557c-16.699 0-32.301 7.17-43.934 20.19-4.522 5.062-8.209 10.787-11.018 16.958h339.42z"/><path d="m440.313 415.935c16.564-19.179 25.687-43.749 25.687-69.183v-153.855h-420v153.854c0 25.434 9.123 50.004 25.687 69.183 16.004 18.531 37.913 30.859 61.848 34.895h244.93c23.935-4.035 45.843-16.362 61.848-34.894zm-186.872 1.232c-17.04 0-32.846-5.372-45.859-14.495-7.286 2.159-14.898 3.283-22.643 3.283-21.429 0-41.619-8.439-56.851-23.763-13.753-13.837-21.367-34.483-23.96-64.974-1.43-16.801-.833-31.277-.76-32.872l1.814-39.187 39.076-1.828c.078-.004 3.866-.188 9.729-.188 7.934 0 15.68.32 23.025.953 17.437 1.501 31.638 4.672 43.185 9.718 2.298-2.247 3.862-3.694 4.269-4.067l28.975-26.548 28.97 26.543c.413.379 2.005 1.852 4.344 4.14 11.576-5.086 25.824-8.278 43.336-9.787 7.345-.633 15.091-.953 23.024-.953 5.868 0 9.653.184 9.811.192l38.986 1.824 1.819 39.16c.074 1.583.681 15.999-.753 32.893-2.59 30.495-10.203 51.143-23.958 64.981-15.228 15.32-35.417 23.758-56.849 23.76h-.002c-7.8 0-15.465-1.143-22.799-3.332-13.025 9.155-28.857 14.547-45.929 14.547z"/><path d="m173.127 336.527c0-18.542 8.225-37.502 25.807-59.388-6.898-1.904-14.998-3.26-24.403-4.07-15.198-1.308-28.37-.717-28.922-.69l-12.684.593-.588 12.702c-.026.556-.615 13.796.685 29.072 1.954 22.972 7.059 38.317 15.605 46.916 9.806 9.865 22.511 14.935 35.306 15.188-6.858-11.871-10.806-25.639-10.806-40.323z"/><path d="m333.756 336.527c0 14.685-3.949 28.454-10.809 40.326 12.874-.198 25.673-5.269 35.535-15.191 8.547-8.598 13.65-23.946 15.601-46.917 1.297-15.277.705-28.517.68-29.073l-.59-12.699-12.681-.593c-.553-.027-13.723-.619-28.92.69-9.486.817-17.647 2.189-24.584 4.119 17.556 21.866 25.768 40.811 25.768 59.338z"/><path d="m304.756 336.527c0-12.151-7.179-26.631-21.947-44.266-9.823-11.73-19.55-20.676-19.959-21.051l-9.409-8.621-9.409 8.621c-.409.375-10.136 9.321-19.959 21.051-14.768 17.635-21.947 32.115-21.947 44.266 0 28.43 23.02 51.56 51.315 51.56s51.315-23.13 51.315-51.56z"/></g></g></svg>