<svg id="Capa_1" enable-background="new 0 0 514 514" height="512" viewBox="0 0 514 514" width="512" xmlns="http://www.w3.org/2000/svg"><g><path d="m342.98 106.985h-60.81v-15c0-15.11-12.29-27.4-27.4-27.4s-27.4 12.29-27.4 27.4v15h-56.35v37.43h171.96z"/><path d="m0 174.415v275h514v-275zm212 240.5h-138v-30h138zm0-57h-138v-20c0-24.48 12.82-46.03 32.1-58.28-5.11-7.3-8.1-16.16-8.1-25.72 0-24.81 20.19-45 45-45s45 20.19 45 45c0 9.56-2.99 18.42-8.1 25.72 19.28 12.25 32.1 33.8 32.1 58.28zm237-1h-50v50h-90v-50h-50v-90h50v-50h90v50h50z"/><path d="m369 246.915h-30v50h-50v30h50v50h30v-50h50v-30h-50z"/><circle cx="143" cy="253.915" r="15"/><path d="m143 298.915c-18.05 0-33.27 12.33-37.7 29h75.4c-4.43-16.67-19.65-29-37.7-29z"/></g></svg>