<svg id="Capa_1" enable-background="new 0 0 512 512" height="512" viewBox="0 0 512 512" width="512" xmlns="http://www.w3.org/2000/svg"><g><path d="m208.718 165c0 14.663 8.042 28.403 15.015 37.544 6.958-9.126 14.985-22.837 14.985-37.544 0-14.663-8.042-28.403-15.015-37.544-6.957 9.126-14.985 22.837-14.985 37.544z"/><path d="m163.718 180h-12.437c6.079 17.109 22.222 29.502 41.265 29.985-4.629-7.617-8.892-16.597-11.426-26.499-5.478-2.299-11.396-3.486-17.402-3.486z"/><path d="m223.718 0c-107.52 0-195 87.48-195 195 0 55.371 23.701 108.311 65.024 145.225 16.113 14.37 24.976 32.637 24.976 51.416v120.359h180v-92h118.792v-60h-58.792c-33.091 0-60-26.909-60-60h30c0 16.538 13.462 30 30 30h58.792v-35.728l65.771-32.886-89.363-161.528c-34.541-61.596-99.755-99.858-170.2-99.858zm105 165c0 38.423-29.048 70.181-66.328 74.502l.557.498h-78.105l.513-.469c-37.427-4.16-66.636-36.006-66.636-74.531v-15h45c5.493 0 10.928.601 16.23 1.772 6.079-32.798 32.505-56.821 33.765-57.949l10.005-8.965 10.005 8.965c1.26 1.128 27.686 25.151 33.765 57.949 5.303-1.172 10.737-1.772 16.23-1.772h45v15z"/><path d="m266.316 183.486c-2.534 9.902-6.797 18.882-11.426 26.499 19.043-.483 35.186-12.876 41.265-29.985h-12.437c-6.006 0-11.924 1.187-17.402 3.486z"/></g></svg>