<svg id="Capa_1" enable-background="new 0 0 510 510" height="512" viewBox="0 0 510 510" width="512" xmlns="http://www.w3.org/2000/svg"><g id="XMLID_1386_"><path id="XMLID_1405_" d="m150 195v30h75c8.271 0 15-6.729 15-15 0-16.691 0-103.246 0-120 0-8.271-6.729-15-15-15h-75v30h60v30h-60v30h60v30z"/><path id="XMLID_2902_" d="m420 330h90v90h-90z"/><path id="XMLID_2903_" d="m0 330h90v90h-90z"/><path id="XMLID_2904_" d="m390 255h-105c-11.515 0-22.033-4.348-30-11.486-7.967 7.138-18.485 11.486-30 11.486h-105v-45h-120v90h120v150h-120v60h150c0-11.67 0-202.147 0-210h210v210h150v-60h-120v-150h120v-90h-120z"/><path id="XMLID_2905_" d="m180 330h150v30h-150z"/><path id="XMLID_2906_" d="m180 510h60v-45h-30v-30h30v-45h-60z"/><path id="XMLID_2907_" d="m270 435h30v30h-30v45h60v-120h-60z"/><path id="XMLID_2939_" d="m360 105v-30h-75c-8.272 0-15 6.729-15 15v120c0 8.271 6.728 15 15 15h75v-30h-60v-30h60v-30h-60v-30z"/><path id="XMLID_2942_" d="m0 0v180h120v-131.486h105c11.515 0 22.033 4.347 30 11.486 7.967-7.14 18.485-11.486 30-11.486h105v131.486h120v-180zm75 135h-30v-30h30zm0-60h-30v-30h30zm390 60h-30v-30h30zm0-60h-30v-30h30z"/></g></svg>