<svg id="Capa_1" enable-background="new 0 0 510 510" height="512" viewBox="0 0 510 510" width="512" xmlns="http://www.w3.org/2000/svg"><g id="XMLID_229_"><path id="XMLID_234_" d="m80.415 225.607c112.668 19.669 235.936 23.863 349.024-.68-5.101-25.59-12.299-50.878-21.449-75.283-12.644-33.723-15.592-70.199-8.526-105.494l8.827-44.15h-306.592l8.828 44.154c7.065 35.289 4.116 71.768-8.528 105.49-9.231 24.622-16.475 50.14-21.584 75.963zm98.58-105.607h30v28.861c10.015.492 20.038.826 30 .999v-29.86h30v29.896c9.965-.15 19.988-.464 30-.938v-28.958h30v90h-30v-31.01c-10.014.459-20.036.762-30 .907v30.103h-30v-30.135c-9.961-.167-19.983-.492-30-.969v31.104h-30z"/><path id="XMLID_233_" d="m271.525 390h-2.53v46.84l18.29 73.16h133.02c14.632-138.418 17.294-141.359 18.261-178.19-182.535 63.587-165.964 57.815-167.041 58.19z"/><path id="XMLID_232_" d="m71.435 332.21c.686 25.683.749 20.587 18.25 177.79h131.02l18.29-73.16v-46.84h-2.56c-1.083-.379 15.433 5.405-165-57.79z"/><path id="XMLID_230_" d="m438.347 299.881c-.61-15.157-1.928-30.306-3.955-45.329-54.248 11.77-122.631 17.258-179.389 17.259-99.004.002-171.215-15.501-179.49-16.605-2.011 15.056-3.312 30.234-3.9 45.419 185.4 64.778 168.887 59.009 169.94 59.376h24.915c1.078-.378-15.728 5.5 171.879-60.12z"/></g></svg>