<svg id="Capa_1" enable-background="new 0 0 512 512" height="512" viewBox="0 0 512 512" width="512" xmlns="http://www.w3.org/2000/svg"><g><path d="m225.813 331.25h60.375v86.75h-60.375z"/><path d="m399 418h91.622v-26.5h-63.934v-30h63.934v-30.25h-63.934v-30h63.934v-30.25h-63.934v-30h63.934v-30.25h21.378v-30h-113z"/><path d="m413.825 78.913-157.825-78.913-157.825 78.913 13.416 26.832 31.409-15.704v327.959h52.813v-86.75h-15.063v-30h150.5v30h-15.063v86.75h52.813v-327.959l31.409 15.704zm-203.075 192.086h-30v-30h30zm0-60.25h-30v-30h30zm60.25 60.25h-30v-30h30zm0-60.25h-30v-30h30zm25.223-90.374h-25.223v25.224h-30v-25.224h-25.223v-30h25.223v-25.224h30v25.224h25.223zm35.027 150.624h-30v-30h30zm0-60.25h-30v-30h30z"/><path d="m0 448h512v64h-512z"/><path d="m21.378 241h63.935v30h-63.935v30.25h63.935v30h-63.935v30.25h63.935v30h-63.935v26.5h91.622v-237.25h-113v30h21.378z"/></g></svg>