<svg id="Capa_1" enable-background="new 0 0 512 512" height="512" viewBox="0 0 512 512" width="512" xmlns="http://www.w3.org/2000/svg"><path d="m512 183.106c0-38.416-31.254-69.67-69.67-69.67-30.88 0-56.002 25.122-56.002 56.002 0 25.228 20.524 45.752 45.752 45.752v-30c-8.686 0-15.752-7.066-15.752-15.752 0-14.338 11.665-26.002 26.002-26.002 21.875 0 39.67 17.796 39.67 39.67 0 31.923-25.971 57.894-57.893 57.894h-137.73c2.833-5.039 4.456-10.849 4.456-17.042 0-10.945-5.052-20.706-12.947-27.092 33.394-6.272 58.667-35.566 58.667-70.781h-43.462c0-12.275-4.683-24.551-14.049-33.917l-23.042-23.043-23.043 23.043c-9.366 9.366-14.049 21.641-14.049 33.917h-43.462c0 35.215 25.274 64.509 58.667 70.781-7.895 6.386-12.947 16.147-12.947 27.092 0 6.192 1.623 12.003 4.456 17.042h-137.729c-31.922 0-57.893-25.971-57.893-57.894 0-21.874 17.796-39.67 39.67-39.67 14.338 0 26.002 11.664 26.002 26.002 0 8.686-7.066 15.752-15.752 15.752v30c25.228 0 45.752-20.524 45.752-45.752 0-30.88-25.123-56.002-56.002-56.002-38.416.001-69.67 31.254-69.67 69.67 0 48.465 39.429 87.894 87.893 87.894h17.49c-18.501 7.746-31.5 26.019-31.5 47.331v35.335h35.335c28.329 0 51.294-22.965 51.294-51.294v-31.372h65.11c-2.833 5.039-4.456 10.849-4.456 17.042 0 10.945 5.052 20.706 12.948 27.092-33.394 6.272-58.667 35.566-58.667 70.781h43.462c0 12.275 4.683 24.551 14.049 33.917l23.042 23.043 23.043-23.043c9.366-9.366 14.049-21.642 14.049-33.917h43.462c0-35.215-25.274-64.51-58.667-70.781 7.895-6.386 12.948-16.147 12.948-27.092 0-6.192-1.623-12.003-4.456-17.042h65.11v31.372c0 28.329 22.965 51.294 51.294 51.294h35.336v-35.335c0-21.312-13-39.585-31.5-47.331h17.49c48.462 0 87.891-39.429 87.891-87.894z"/></svg>