<svg id="Capa_1" enable-background="new 0 0 512 512" height="512" viewBox="0 0 512 512" width="512" xmlns="http://www.w3.org/2000/svg"><g><path d="m413.342 111.535c30.8 0 55.768-24.968 55.768-55.768 0-30.799-24.968-55.767-55.768-55.767-22.938 0-42.633 13.853-51.197 33.645-.789-1.507-1.66-2.988-2.626-4.434-14.667-21.951-44.352-27.856-66.302-13.189l-165.278 110.435c-17.699 11.826-28.325 31.707-28.326 52.993l-.001 148.58-63.34 152.916 58.883 24.39 68.191-164.628v-86.523l77.687 77.688v180.127h63.734v-206.528l-109.212-109.214 108.285-72.354v134.932c0 17.6 14.267 31.867 31.867 31.867s31.867-14.267 31.867-31.867v-171.219c10.078 14.453 26.813 23.918 45.768 23.918z"/><path d="m427.866 286.965h30.001v60h-30.001z" transform="matrix(.259 -.966 .966 .259 22.081 662.706)"/><path d="m387.474 349.164h30v60h-30z" transform="matrix(.777 -.629 .629 .777 -148.923 337.783)"/><path d="m408.985 227.902h60v30h-60z" transform="matrix(.934 -.358 .358 .934 -57.891 173.448)"/></g></svg>