<svg id="Capa_1" enable-background="new 0 0 512 512" height="512" viewBox="0 0 512 512" width="512" xmlns="http://www.w3.org/2000/svg"><g><path d="m256 0c-141.38 0-256 114.62-256 256 0 85.95 42.36 162.01 107.35 208.43 8.95-26.18 28.15-47.29 52.72-56.78v-16.62h-65.97c-1.929-93.484 63.751-176.9 161.9-176.9 98.262 0 163.786 83.426 161.9 176.9h-65.97v16.62c24.57 9.49 43.77 30.6 52.72 56.78 64.99-46.42 107.35-122.48 107.35-208.43 0-141.38-114.62-256-256-256zm-114.62 211.02-19.29-22.98 53.66-45.03-63.11-35.4 14.68-26.17 100.97 56.65zm248.53-22.98-19.29 22.98-86.91-72.93 100.97-56.65 14.68 26.17-63.11 35.4z"/><path d="m283.33 292.25c35.99 0 65.6 30.35 68.38 68.78h35.34c-7.47-65.7-63.39-116.9-131.05-116.9-65.931 0-123.593 51.341-131.05 116.9h35.34c2.593-35.759 31.005-68.78 68.38-68.78z"/><path d="m321.93 430.82v-63.85c0-20.983-15.699-44.72-38.6-44.72h-54.66c-22.953 0-38.6 23.563-38.6 44.72v63.85c-34.256 3.68-58.24 32.956-58.24 66.96v14.22h248.34v-14.22c0-34.004-23.984-63.28-58.24-66.96z"/></g></svg>