<svg id="Capa_1" enable-background="new 0 0 512 512" height="512" viewBox="0 0 512 512" width="512" xmlns="http://www.w3.org/2000/svg"><g><path d="m344.696 276.918c-33.281 12.378-64.731 24.082-88.696 24.082s-55.415-11.704-88.696-24.082c-45.249-16.831-96.533-35.918-151.304-35.918h-16v90.383c55.73-1.772 98.538 6.621 139.018 14.925 36.84 7.558 71.645 14.692 116.982 14.692s80.142-7.134 116.982-14.692c40.567-8.322 83.224-16.833 139.018-15.027v-90.281h-16c-54.771 0-106.055 19.087-151.304 35.918z"/><path d="m256 391c-48.384 0-86.323-7.778-123.003-15.308-40.649-8.324-80.508-16.139-132.997-14.324v89.632h512v-89.744c-52.485-1.84-92.415 6.127-132.982 14.436-36.695 7.53-74.634 15.308-123.018 15.308z"/><path d="m61 61v98.789l-19.395-19.394-21.21 21.21 55.605 55.606 55.605-55.606-21.21-21.21-19.395 19.394v-98.789z"/><path d="m421 61v98.789l-19.395-19.394-21.21 21.21 55.605 55.606 55.605-55.606-21.21-21.21-19.395 19.394v-98.789z"/><circle cx="256" cy="166" r="105"/></g></svg>