<?xml version="1.0" encoding="iso-8859-1"?>
<!-- Generator: Adobe Illustrator 19.0.0, SVG Export Plug-In . SVG Version: 6.00 Build 0)  -->
<svg xmlns="http://www.w3.org/2000/svg" xmlns:xlink="http://www.w3.org/1999/xlink" version="1.1" id="Layer_1" x="0px" y="0px" viewBox="0 0 512 512" style="enable-background:new 0 0 512 512;" xml:space="preserve">
<g>
	<g>
		<path d="M198.701,4.252c-33.58,0-60.899,27.32-60.899,60.9s27.319,60.9,60.899,60.9c33.581,0,60.9-27.32,60.9-60.9    S232.282,4.252,198.701,4.252z"/>
	</g>
</g>
<g>
	<g>
		<path d="M451.1,337.357c-33.58,0-60.899,27.32-60.899,60.9c0,33.58,27.319,60.9,60.899,60.9c33.581,0,60.9-27.32,60.9-60.9    C512,364.677,484.681,337.357,451.1,337.357z"/>
	</g>
</g>
<g>
	<g>
		<path d="M351.822,349.538c-13.907-12.358-32.477-18.197-50.954-16.009l-12.619,1.492c2.636-8.017,2.565-16.798-0.417-24.91    l-60.608-164.844H148.36L55.5,362.544l-11.419,1.35C18.951,366.866,0,388.19,0,413.496c0,27.541,22.406,49.947,49.947,49.947    h258.575v-0.001c35.941,0,65.182-29.24,65.182-65.182C373.704,379.656,365.728,361.897,351.822,349.538z M179.11,347.928    l16.338-44.278l24.598,39.437L179.11,347.928z"/>
	</g>
</g>
<g>
	<g>
		<rect x="15" y="477.748" width="479.88" height="30"/>
	</g>
</g>
<g>
</g>
<g>
</g>
<g>
</g>
<g>
</g>
<g>
</g>
<g>
</g>
<g>
</g>
<g>
</g>
<g>
</g>
<g>
</g>
<g>
</g>
<g>
</g>
<g>
</g>
<g>
</g>
<g>
</g>
</svg>
