<?xml version="1.0" encoding="iso-8859-1"?>
<!-- Generator: Adobe Illustrator 19.0.0, SVG Export Plug-In . SVG Version: 6.00 Build 0)  -->
<svg xmlns="http://www.w3.org/2000/svg" xmlns:xlink="http://www.w3.org/1999/xlink" version="1.1" id="Layer_1" x="0px" y="0px" viewBox="0 0 512 512" style="enable-background:new 0 0 512 512;" xml:space="preserve">
<g>
	<g>
		<path d="M463.877,252.085c0-22.052-3.411-43.614-10.045-64.111c-4.527-13.978-10.557-27.455-18.015-40.255    c25.755-12.956,42.873-39.587,42.873-69.682C478.689,35.008,443.682,0,400.652,0c-35.456,0-65.457,23.763-74.929,56.204    c-22.292-7.97-45.658-11.996-69.723-11.996c-24.482,0-47.984,4.256-69.817,12.069c-9.566-32.275-39.493-55.891-74.835-55.891    c-43.029,0-78.037,35.008-78.037,78.037c0,30.053,17.076,56.653,42.769,69.64c-17.775,30.616-27.956,66.156-27.956,104.022    c0,78.557,43.788,147.068,108.241,182.411l-47.182,57.693L133.407,512l52.498-64.193c0.002,0.001,0.004,0.002,0.007,0.002    c21.906,7.876,45.502,12.163,70.089,12.163c24.587,0,48.183-4.287,70.089-12.163c0.002-0.001,0.004-0.002,0.007-0.002L378.595,512    l24.225-19.811l-47.182-57.693C420.089,399.153,463.877,330.642,463.877,252.085z M272.724,76.274    c20.403,1.899,40.086,7.302,58.706,16.117c26.798,12.674,50.185,32.108,67.637,56.194c18.723,25.827,29.906,55.691,32.765,87.193    h-27.894c-2.869-26.317-12.601-50.559-27.372-70.93c-14.635-20.195-34.225-36.572-56.987-47.348    c-14.488-6.853-30.26-11.442-46.856-13.3V76.274z M110.555,152.048l2.232-3.077c17.452-24.086,40.849-43.52,67.637-56.194    l8.867-4.193c0.031-0.01,0.063-0.021,0.094-0.042c16.283-6.645,33.777-10.943,52.042-12.445c0.001,0,0.002,0,0.002,0v27.883    c-0.001,0-0.001,0-0.002,0c-69.973,6.791-125.76,62.055-133.365,131.798H80.168C83.006,204.891,93.834,176.29,110.555,152.048z     M241.429,428.084c-0.001,0-0.001,0-0.002,0c-85.631-7.031-154.155-75.419-161.384-161.009c0-0.001,0-0.002,0-0.003h27.883    c0,0.001,0,0.002,0,0.003c7.031,70.37,63.089,126.293,133.501,133.125c0.001,0,0.002,0,0.002,0V428.084z M271.647,258.991    l-46.9,75.763l-26.61-16.471l42.216-68.19V133.011h31.294V258.991z M272.724,427.885v-27.904    c69.409-7.762,124.392-63.257,131.35-132.906c0-0.001,0-0.002,0-0.003h27.883c0,0.001,0,0.002,0,0.003    C424.79,351.944,357.353,419.904,272.724,427.885z"/>
	</g>
</g>
<g>
</g>
<g>
</g>
<g>
</g>
<g>
</g>
<g>
</g>
<g>
</g>
<g>
</g>
<g>
</g>
<g>
</g>
<g>
</g>
<g>
</g>
<g>
</g>
<g>
</g>
<g>
</g>
<g>
</g>
</svg>
