<svg id="Capa_1" enable-background="new 0 0 512 512" height="512" viewBox="0 0 512 512" width="512" xmlns="http://www.w3.org/2000/svg"><g><path d="m466 90h-300v-30h90v-60h-105c-41.353 0-75 33.647-75 75v15h-60v152h62.563c6.196 17.461 22.881 30 42.437 30h195v-120h150z"/><path d="m376 257c0 24.814 20.186 45 45 45s45-20.186 45-45c0-25.1-37.631-75.389-45-86.396-8.404 12.553-45 61.59-45 86.396z"/><path d="m496 332c-4.731 0-157.795 0-150 0v30h30v30h90v-30h30z"/><path d="m376 467c0 24.814 20.186 45 45 45s45-20.186 45-45v-45h-90z"/><path d="m166 332v30h30v30h90v-30h30v-30c-4.573 0-157.795 0-150 0z"/><path d="m196 467c0 24.814 20.186 45 45 45s45-20.186 45-45v-45h-90z"/></g></svg>