<svg id="Capa_1" enable-background="new 0 0 510 510" height="512" viewBox="0 0 510 510" width="512" xmlns="http://www.w3.org/2000/svg"><g id="XMLID_1312_"><path id="XMLID_1497_" d="m129.281 180 22.222 150h206.994l22.223-150zm140.719 120h-30v-30h-30v-30h30v-30h30v30h30v30h-30z"/><path id="XMLID_1498_" d="m270 0h30v60h-30z"/><path id="XMLID_1499_" d="m155.947 360 6.667 45h184.772l6.666-45z"/><path id="XMLID_1500_" d="m115.947 90 8.889 60h260.328l8.888-60z"/><path id="XMLID_1501_" d="m165 435v30c0 24.814 20.187 45 45 45h90c24.814 0 45-20.186 45-45v-30z"/><path id="XMLID_1502_" d="m111.503 60h68.497v-60h-22.5c-28.924 0-51.075 25.72-46.842 54.293z"/><path id="XMLID_1503_" d="m210 0h30v60h-30z"/><path id="XMLID_1504_" d="m330 60h68.498l.845-5.707c4.237-28.609-17.956-54.293-46.842-54.293h-22.501z"/></g></svg>