<svg id="Capa_1" enable-background="new 0 0 512 512" height="512" viewBox="0 0 512 512" width="512" xmlns="http://www.w3.org/2000/svg"><g><path d="m398 200.351-142 95.348-142-95.348v125.702h284z"/><path d="m256 30c-1.668 0-10.535 6.018-20.363 33.815-8.17 23.108-14.849 55.39-19.134 92.132h78.994c-4.284-36.742-10.964-69.023-19.134-92.132-9.828-27.797-18.695-33.815-20.363-33.815z"/><path d="m381.387 155.947c-16.837-54.41-46.546-95.361-81.486-114.31 1.636 3.803 3.219 7.859 4.746 12.179 9.292 26.283 16.512 61.384 21.048 102.132h55.692z"/><path d="m84 155.947h15.34c11.87-42.53 31.033-79.17 55.848-106.59 29.221-32.29 64.082-49.357 100.812-49.357-68.38 0-132.667 26.629-181.02 74.98-44.798 44.8-70.932 103.281-74.533 166.02h83.553z"/><path d="m356.812 49.357c24.815 27.42 43.978 64.06 55.848 106.59h15.34v85.053h83.553c-3.601-62.739-29.735-121.22-74.534-166.02-48.352-48.351-112.639-74.98-181.019-74.98 36.73 0 71.591 17.067 100.812 49.357z"/><path d="m256 259.564 109.635-73.617h-219.27z"/><path d="m155.889 463.414c-25.126-27.466-44.547-64.411-56.54-107.361h-15.349v-85.053h-83.553c3.601 62.739 29.735 121.22 74.534 166.02 48.352 48.351 112.639 74.98 181.019 74.98-36.416 0-71.034-16.801-100.111-48.586z"/><path d="m428 356.053h-15.344c-12.133 43.432-31.863 80.718-57.346 108.231-28.912 31.216-63.252 47.716-99.31 47.716 68.38 0 132.667-26.629 181.02-74.98 44.799-44.799 70.932-103.281 74.534-166.02h-83.554z"/><path d="m130.613 155.947h55.692c4.536-40.748 11.756-75.849 21.048-102.132 1.527-4.319 3.11-8.375 4.746-12.179-34.94 18.951-64.65 59.901-81.486 114.311z"/><path d="m299.871 470.44c11.713-6.339 22.947-15.225 33.429-26.542 20.698-22.348 37.163-52.489 48.091-87.846h-55.696c-4.516 40.573-11.691 75.549-20.933 101.809-1.573 4.468-3.203 8.66-4.891 12.579z"/><path d="m256 482c1.679 0 10.598-6.067 20.463-34.099 8.128-23.094 14.765-55.255 19.032-91.849h-78.992c4.302 36.889 11.021 69.293 19.234 92.414 9.791 27.567 18.606 33.534 20.263 33.534z"/><path d="m130.611 356.053c10.795 34.942 27.004 64.803 47.413 87.111 10.679 11.674 22.145 20.811 34.112 27.286-1.608-3.734-3.166-7.71-4.67-11.943-9.343-26.306-16.607-61.532-21.163-102.455h-55.692z"/></g></svg>