<svg id="Capa_1" enable-background="new 0 0 510 510" height="512" viewBox="0 0 510 510" width="512" xmlns="http://www.w3.org/2000/svg"><g><path d="m225 242.5h60v120h-60z"/><path d="m449.899 117.565c-2.594-63.89-55.382-115.065-119.899-115.065-37.91 0-73.403 17.803-96.148 48.202-40.273-11.087-82.323 7.104-102.31 42.688-47.941-7.455-90.275 32.044-86.287 80.271-27.792 12.046-45.255 39.254-45.255 68.839 0 41.355 33.645 75 75 75h120v-105h120v105h106.25c.112-.067 88.75-19.481 88.75-105 0-40.84-23.752-77.736-60.101-94.935zm-134.899 64.935h-120v-30h120z"/><path d="m255 507.5 86.25-115h-172.5z"/></g></svg>