<svg id="Capa_1" enable-background="new 0 0 509.998 509.998" height="512" viewBox="0 0 509.998 509.998" width="512" xmlns="http://www.w3.org/2000/svg"><g><path d="m104.999 464.999c27.146 0 59.312-8.102 84.349-16.056l-189.196-94.597c-3.222 60.451 45.104 110.653 104.847 110.653z"/><path d="m419.34 255.995c-4.024-43.258-26.487-81.246-59.44-105.996h60.1v-30h-60.041c9.438-12.544 15.041-28.129 15.041-45v-30h-45c-41.355 0-75 33.645-75 75 0-41.355-33.645-75-75-75h-45v30c0 16.871 5.603 32.456 15.041 45h-75.042v30h75.099c-32.953 24.75-55.416 62.738-59.44 105.996-38.918 5.34-71.113 32.07-84.272 67.927l221.93 111.077h53.389l221.909-111.077c-13.16-35.857-45.356-62.587-84.274-67.927zm-89.341-180.996h15c0 24.813-20.187 45-45 45h-15c0-24.813 20.187-45 45-45zm-150 0c24.813 0 45 20.188 45 45h-15c-24.813 0-45-20.187-45-45zm106.073 264.429c-10.097 25.241-13.848 50.253-15.244 65.571h-31.658c-1.396-15.318-5.147-40.33-15.244-65.571-19.944-49.859-55.399-78.491-103.087-83.594 7.031-59.517 57.784-105.835 119.16-105.835h30c61.375 0 112.129 46.318 119.16 105.835-47.688 5.102-83.144 33.735-103.087 83.594z"/><path d="m509.846 354.346-189.196 94.597c25.037 7.953 57.203 16.056 84.349 16.056 59.82 0 108.065-50.279 104.847-110.653z"/></g></svg>