<svg id="Capa_1" enable-background="new 0 0 510 510" height="512" viewBox="0 0 510 510" width="512" xmlns="http://www.w3.org/2000/svg"><g id="XMLID_740_"><path id="XMLID_749_" d="m157.5 90h105v30h-105z"/><path id="XMLID_744_" d="m352.5 240h-73.296l133.296-186.614v-53.386h-315v390h315v-30h-60zm-225-180h165v90h-165zm90 210h-90v-30h90zm0-60h-90v-30h90z"/><path id="XMLID_743_" d="m67.5 1.898c-25.849 6.678-45 30.196-45 58.102v345.041c12.544-9.438 28.129-15.041 45-15.041z"/><path id="XMLID_742_" d="m412.5 105-75 105h45v120h60v-120h45z"/><path id="XMLID_741_" d="m67.5 420c-24.853 0-45 20.147-45 45 0 24.853 20.147 45 45 45h345v-30h-30v-30h30v-30c-12.224 0-332.956 0-345 0z"/></g></svg>