<svg id="Capa_1" enable-background="new 0 0 510 510" height="512" viewBox="0 0 510 510" width="512" xmlns="http://www.w3.org/2000/svg"><g><path d="m89.997 255c0 33.084 26.916 60 60 60 0-33.084-26.916-60-60-60z"/><path d="m179.997 240c33.084 0 60-26.916 60-60-33.084 0-60 26.916-60 60z"/><path d="m344.997 0h-330c-1.845 14.76-3.517 29.777-5.022 45h339.943c-1.478-15.495-3.116-30.56-4.921-45z"/><path d="m284.98 305.623c18.478-22.583 45.807-35.537 74.982-35.547.099-62.791-2.374-131.516-7.427-195.076h-345.279c-9.672 116.651-9.67 243.353.006 360h183.641c6.522-17.414 15.863-33.78 27.762-48.324zm-104.983-35.623v45 75h-30v-45c-49.626 0-90-40.374-90-90v-30h30c23.031 0 44.065 8.699 60 22.98 0-18.935 0-116.347 0-127.98h30v52.98c15.935-14.281 36.969-22.98 60-22.98h30v30c0 49.626-40.374 90-90 90z"/><path d="m14.997 509.922h165c.264-10.163-1.052-24.096 2.674-44.922h-172.688c1.503 15.195 3.172 30.188 5.014 44.922z"/><path d="m478.11 405.674-66.315-81.054c-26.753-32.695-76.792-32.758-103.596 0l-66.316 81.053c-20.562 25.132-31.886 56.855-31.886 89.327v15h300v-15c0-32.472-11.324-64.195-31.887-89.326zm-133.113 59.326h-30v-30h30zm0-90h30v30h-30zm60 90h-30v-30h30z"/></g></svg>