<svg id="Capa_1" enable-background="new 0 0 512 512" height="512" viewBox="0 0 512 512" width="512" xmlns="http://www.w3.org/2000/svg"><g><circle cx="256" cy="256" r="44.875"/><path d="m441.466 149.605v-79.388h-79.07v-70.217h-212.79v70.217h-79.072v79.389h-70.534v212.789h70.534v79.389h79.071v70.216h212.79v-70.217h79.07v-79.389h70.535v-212.789zm-48.269 150.974-2.877 53.023-49.546 19.09-33.457 41.256-51.317-13.72-51.317 13.721-33.457-41.256-49.546-19.09-2.877-53.023-28.825-44.58 28.825-44.579 2.877-53.023 49.546-19.09 33.457-41.256 51.317 13.72 51.317-13.721 33.457 41.256 49.546 19.09 2.877 53.023 28.825 44.58z"/><path d="m361.416 179.411-38.899-14.988-26.246-32.363-40.271 10.767-40.271-10.768-26.246 32.363-38.899 14.988-2.258 41.601-22.624 34.989 22.624 34.988 2.258 41.601 38.899 14.988 26.246 32.363 40.271-10.767 40.271 10.768 26.246-32.363 38.899-14.988 2.258-41.601 22.624-34.989-22.624-34.988zm-105.416 151.464c-41.286 0-74.875-33.589-74.875-74.875s33.589-74.875 74.875-74.875 74.875 33.589 74.875 74.875-33.589 74.875-74.875 74.875z"/></g></svg>