<?xml version="1.0" encoding="iso-8859-1"?>
<!-- Generator: Adobe Illustrator 19.0.0, SVG Export Plug-In . SVG Version: 6.00 Build 0)  -->
<svg xmlns="http://www.w3.org/2000/svg" xmlns:xlink="http://www.w3.org/1999/xlink" version="1.1" id="Layer_1" x="0px" y="0px" viewBox="0 0 512 512" style="enable-background:new 0 0 512 512;" xml:space="preserve">
<g>
	<g>
		<path d="M132.273,201.866C79.61,265.021,36.39,333.494,3.003,404.977l98.731,98.733c71.483-33.387,139.956-76.608,203.111-129.272    L132.273,201.866z"/>
	</g>
</g>
<g>
	<g>
		<path d="M385.892,362.57l-31.989-31.989c4.933-4.726,9.828-9.514,14.68-14.365C451.86,232.939,547.861,81.49,488.079,21.709    c-66.424-66.425-214.307,33.143-297.583,116.418c-4.852,4.853-9.639,9.747-14.366,14.68L63.132,39.809l15.486-15.487L55.389,1.095    l-54.2,54.201l23.229,23.229l15.487-15.487L360.57,383.704c4.164,17.838,10.482,35.636,18.892,52.957    c13.021,26.81,31.054,52.474,53.918,75.339l77.431-77.429C474.108,397.868,430.2,373.592,385.892,362.57z"/>
	</g>
</g>
<g>
</g>
<g>
</g>
<g>
</g>
<g>
</g>
<g>
</g>
<g>
</g>
<g>
</g>
<g>
</g>
<g>
</g>
<g>
</g>
<g>
</g>
<g>
</g>
<g>
</g>
<g>
</g>
<g>
</g>
</svg>
