<svg id="Capa_1" enable-background="new 0 0 511.994 511.994" height="512" viewBox="0 0 511.994 511.994" width="512" xmlns="http://www.w3.org/2000/svg"><g id="XMLID_979_"><path id="XMLID_984_" d="m305.833 36.013-162.666 105.838-.799.519-106.355 163.463 170.799 170.799 36.845-17.744c46.805-22.543 89.162-52.599 125.897-89.333 36.734-36.735 66.79-79.093 89.333-125.898l17.744-36.844zm-178.82 272.843 72.471-109.516 109.885-71.377 16.342 25.158-104.652 67.979-69.029 104.312zm207.289-77.729-103.484 103.483-21.213-21.213 103.483-103.483z"/><path id="XMLID_988_" d="m415.436 42.426 54.132 54.133-30.381 30.382 21.213 21.213 51.594-51.595-96.558-96.559-51.596 51.594 21.213 21.213z"/><path id="XMLID_989_" d="m96.559 469.568-54.133-54.132 30.382-30.383-21.213-21.213-51.595 51.596 96.559 96.558 51.595-51.595-21.213-21.213z"/></g></svg>