<svg id="Capa_1" enable-background="new 0 0 512 512" height="512" viewBox="0 0 512 512" width="512" xmlns="http://www.w3.org/2000/svg"><g><path d="m256 0c-84.735 0-153.672 68.937-153.672 153.672s68.937 153.673 153.672 153.673 153.672-68.938 153.672-153.673-68.937-153.672-153.672-153.672zm0 269.876c-64.075 0-116.203-52.129-116.203-116.204 0-64.074 52.128-116.203 116.203-116.203s116.203 52.129 116.203 116.203c0 64.075-52.128 116.204-116.203 116.204z"/><path d="m256 337.345c-44.148 0-84.704-15.66-116.415-41.712 48.523 85.923 139.638 144.736 244.482 147.531 16.169-24.328 25.605-53.498 25.605-84.835v-104.177c-32.843 50.06-89.457 83.193-153.672 83.193z"/><path d="m165.922 379.662c-26.674-26.678-48.042-57.247-63.595-90.421v69.087c.001 84.735 68.938 153.672 153.673 153.672 39.909 0 76.31-15.296 103.659-40.329-73.183-7.282-141.042-39.307-193.737-92.009z"/><path d="m256 67.469c-47.533 0-86.203 38.671-86.203 86.203 0 47.533 38.67 86.204 86.203 86.204s86.203-38.671 86.203-86.204c0-47.532-38.67-86.203-86.203-86.203zm-16.867 101.114h-33.734v-33.734h33.734zm67.469 0h-33.734v-33.734h33.734z"/></g></svg>