<svg id="Capa_1" enable-background="new 0 0 512 512" height="512" viewBox="0 0 512 512" width="512" xmlns="http://www.w3.org/2000/svg"><g><path d="m338.469 195.098h37.469v37.469h-37.469z"/><path d="m136.063 195.098h37.469v37.469h-37.469z"/><path d="m175.689 88.07h161.162v-37.468h-61.847v-31.868c0-5-1.95-9.703-5.49-13.244-3.541-3.54-8.244-5.49-13.244-5.49-10.33 0-18.734 8.404-18.734 18.734v31.867h-61.847z"/><path d="m366.851 118.07h-221.162v-33.719l-77.096-.012v427.661h374.813v-427.664h-76.556v33.734zm-58.382 47.028h97.469v97.469h-97.469zm-202.406 0h97.469v97.469h-97.469zm99.336 299.875h-101.204v-30h101.204zm0-67.469h-101.204v-30h101.204zm0-67.469h-101.204v-30h101.204zm65.601 136.806h-30v-303.611h30zm136.805-1.868h-101.203v-30h101.203zm0-67.469h-101.203v-30h101.203zm0-67.469h-101.203v-30h101.203z"/></g></svg>