<?xml version="1.0" encoding="iso-8859-1"?>
<!-- Generator: Adobe Illustrator 19.0.0, SVG Export Plug-In . SVG Version: 6.00 Build 0)  -->
<svg xmlns="http://www.w3.org/2000/svg" xmlns:xlink="http://www.w3.org/1999/xlink" version="1.1" id="Layer_1" x="0px" y="0px" viewBox="0 0 512 512" style="enable-background:new 0 0 512 512;" xml:space="preserve">
<g>
	<g>
		<path d="M318.202,48.177C311.022,20.525,285.777,0,256,0c-29.777,0-55.022,20.525-62.202,48.177    c-0.22,0.816-0.419,1.633-0.597,2.46v13.24v15.7v28.511h125.598V79.577v-15.7v-13.24C318.621,49.81,318.422,48.994,318.202,48.177    z M227.364,48.177c5.662-10.006,16.401-16.778,28.636-16.778s22.974,6.772,28.636,16.778H227.364z"/>
	</g>
</g>
<g>
	<g>
		<path d="M350.198,48.177v15.7v15.7v59.91H161.802v-59.91v-15.7v-15.7H84.349V512h343.301V48.177H350.198z M179.762,355.547    h-25.894v-31.4h25.894V355.547z M179.762,291.052h-25.894v-31.4h25.894V291.052z M179.762,226.558h-25.894v-31.399h25.894V226.558    z M358.132,355.547H205.855v-31.4h152.277V355.547z M358.132,291.052H205.855v-31.399h152.277V291.052z M358.132,226.558H205.855    v-31.399h152.277V226.558z"/>
	</g>
</g>
<g>
</g>
<g>
</g>
<g>
</g>
<g>
</g>
<g>
</g>
<g>
</g>
<g>
</g>
<g>
</g>
<g>
</g>
<g>
</g>
<g>
</g>
<g>
</g>
<g>
</g>
<g>
</g>
<g>
</g>
</svg>
