<?xml version="1.0" encoding="iso-8859-1"?>
<!-- Generator: Adobe Illustrator 19.0.0, SVG Export Plug-In . SVG Version: 6.00 Build 0)  -->
<svg xmlns="http://www.w3.org/2000/svg" xmlns:xlink="http://www.w3.org/1999/xlink" version="1.1" id="Layer_1" x="0px" y="0px" viewBox="0 0 512 512" style="enable-background:new 0 0 512 512;" xml:space="preserve">
<g>
	<g>
		<rect x="131" y="233.5" width="30" height="50"/>
	</g>
</g>
<g>
	<g>
		<rect x="351" y="233.5" width="30" height="50"/>
	</g>
</g>
<g>
	<g>
		<path d="M411,263.5v50h-90v-50H191v50h-90v-50H0v175h131v-95h30v95h190v-95h30v95h131v-175H411z M271,313.5h-30v-30h30V313.5z"/>
	</g>
</g>
<g>
	<g>
		<path d="M331,128.5v-55H181v55H0v105h101v-30h90v30h130v-30h90v30h101v-105H331z M301,128.5h-90v-25h90V128.5z"/>
	</g>
</g>
<g>
</g>
<g>
</g>
<g>
</g>
<g>
</g>
<g>
</g>
<g>
</g>
<g>
</g>
<g>
</g>
<g>
</g>
<g>
</g>
<g>
</g>
<g>
</g>
<g>
</g>
<g>
</g>
<g>
</g>
</svg>
