<svg id="Capa_1" enable-background="new 0 0 510 510" height="512" viewBox="0 0 510 510" width="512" xmlns="http://www.w3.org/2000/svg"><g><path d="m375 345v-58.128h15c16.897 0 30.641-13.981 29.977-31.199-.593-15.416-13.124-28.052-28.528-28.767-6.582-.311-12.908 1.473-18.296 5.144-12.547 8.546-28.76 8.547-41.305 0-5.387-3.671-11.702-5.445-18.296-5.144-15.404.715-27.936 13.35-28.528 28.766-.664 17.211 13.069 31.2 29.977 31.2h15v58.128z"/><path d="m285.023 108.072c.593 15.416 13.124 28.051 28.528 28.766 6.589.301 12.909-1.473 18.296-5.144 12.547-8.548 28.76-8.548 41.305.001 5.387 3.67 11.707 5.451 18.296 5.143 15.404-.715 27.936-13.351 28.528-28.766.664-17.211-13.069-31.2-29.977-31.2h-15v-76.872h-45v76.872h-15c-16.896 0-30.64 13.981-29.976 31.2z"/><path d="m180 510h330v-49h-150v-30h150v-56h-330zm120-79h30v30h-30zm-60 0h30v30h-30z"/><path d="m405 0v48.744c26.096 6.668 46.089 31.004 44.955 60.481-1.205 31.313-27.295 57.648-59.989 57.648-12.097 0-23.693-3.564-33.706-10.386-2.283-1.557-5.236-1.556-7.52-.001-10.804 7.361-23.448 10.93-36.579 10.32-30.84-1.432-55.929-26.725-57.116-57.581-1.133-29.445 18.826-53.804 44.955-60.481v-48.744h-120v315h-15c-24.812 0-45 20.186-45 45v30c0 8.272-6.729 15-15 15s-15-6.728-15-15v-210h30v-57.309c0-10.703 5.03-21.099 13.801-28.521 10.295-8.713 16.199-21.441 16.199-34.92v-59.25h-150v59.25c0 13.479 5.904 26.205 16.199 34.919 8.771 7.424 13.801 17.819 13.801 28.522v57.309h30v210c0 24.813 20.188 45 45 45 24.814 0 45-20.187 45-45v-30c0-8.272 6.729-15 15-15h135v-30c-26.087-6.666-46.089-30.993-44.955-60.482 1.187-30.856 26.276-56.149 57.116-57.581 13.125-.611 25.776 2.959 36.579 10.319 2.283 1.557 5.236 1.556 7.52.001 10.804-7.361 23.453-10.928 36.579-10.32 30.84 1.432 55.929 26.725 57.116 57.581 1.133 29.446-18.826 53.805-44.955 60.482v30h105v-345z"/></g></svg>