<svg id="Capa_1" enable-background="new 0 0 512 512" height="512" viewBox="0 0 512 512" width="512" xmlns="http://www.w3.org/2000/svg"><g><path d="m211.636 259.104 20.035-67.393c10.041-33.773-10.479-62.65-34.884-72.675-12.186-4.998-25.581-5.731-38.636-2.091-13.585 3.779-27.944 4.319-41.728 1.564-2.109-.412-4.342-.941-6.572-1.561-21.335-5.954-43.32-.082-58.832 15.694s-21.008 37.857-14.703 59.067l20.035 67.393h155.285z"/><path d="m150.102 88.046c8.072-2.251 16.325-3.394 24.519-3.394 9.187 0 18.212 1.439 26.926 4.237 19.482-10.786 31.999-31.129 32.677-53.58h-36.405c-32.09 0-58.676 23.95-62.864 54.911 5.114-.081 10.193-.796 15.147-2.174z"/><path d="m440.797 289.104v222.896h71.203v-222.896h-3.734z"/><path d="m381.762 0h54.336v38.594h-54.336z"/><path d="m339.594 259.104h138.672v-42.533c0-31.109-13.483-60.638-36.992-81.012l-5.176-4.485v-62.48h-54.336v62.48l-5.176 4.485c-23.509 20.374-36.992 49.902-36.992 81.012z"/><path d="m0 289.104h71.204v222.896h-71.204z"/><path d="m410.797 289.104h-309.593v222.896h309.593zm-104.195 126.448h-35.602v35.602h-30v-35.602h-35.602v-30h35.602v-35.602h30v35.602h35.602z"/><path d="m262.465 157.034c2.768 13.932 2.279 28.704-2.038 43.227l-17.494 58.844h66.661v-42.533c0-17.532 3.347-34.672 9.662-50.592-12.294-6.93-26.09-10.564-40.496-10.564-5.527-.001-10.97.554-16.295 1.618z"/></g></svg>