<?xml version="1.0" encoding="iso-8859-1"?>
<!-- Generator: Adobe Illustrator 19.0.0, SVG Export Plug-In . SVG Version: 6.00 Build 0)  -->
<svg xmlns="http://www.w3.org/2000/svg" xmlns:xlink="http://www.w3.org/1999/xlink" version="1.1" id="Layer_1" x="0px" y="0px" viewBox="0 0 511.999 511.999" style="enable-background:new 0 0 511.999 511.999;" xml:space="preserve">
<g>
	<g>
		<path d="M311.332,389.803c-6.308,6.308-9.781,14.693-9.781,23.611c0,8.92,3.474,17.305,9.781,23.612l3.357,3.357    c24.533-16.127,47.807-34.968,69.384-56.545c50.367-50.367,85.876-109.956,106.552-173.331L311.332,389.803z"/>
	</g>
</g>
<g>
	<g>
		<path d="M273.085,32.089c-52.647,21.36-101.98,53.378-144.683,96.081C78.036,178.535,42.526,238.124,21.85,301.499L270.695,52.654    C276.268,47.081,277.054,38.522,273.085,32.089z"/>
	</g>
</g>
<g>
	<g>
		<path d="M327.071,279.615l-23.611-23.611L511.444,48.02c-0.854-14.248-2.393-28.463-4.633-42.59    c-41.724-6.617-84.222-7.186-126.079-1.707c8.517,11.44,13.124,25.254,13.124,39.776c0,17.838-6.947,34.61-19.561,47.224    l-141.67,141.671c-6.308,6.307-9.78,14.692-9.78,23.611s3.474,17.305,9.78,23.611c6.308,6.307,14.692,9.781,23.611,9.781    c8.919,0,17.304-3.474,23.611-9.781l23.611,23.611c-12.613,12.614-29.384,19.561-47.223,19.561    c-17.839,0-34.61-6.947-47.224-19.561c-12.613-12.613-19.56-29.384-19.56-47.223s6.947-34.61,19.561-47.223L350.683,67.111    c6.307-6.308,9.78-14.692,9.78-23.613c0-8.919-3.474-17.305-9.78-23.611l-9.196-9.196c-12.368,2.779-24.639,6.1-36.774,9.963    c8.064,18.359,4.605,40.6-10.406,55.611L6.419,364.152c-6.807,40.188-7.987,81.142-3.541,121.599l102.535-102.534    c26.039-26.039,68.408-26.04,94.447,0c26.039,26.039,26.039,68.408,0,94.447l-22.065,22.065    c37.126-8.967,73.305-22.847,107.505-41.644c-11.077-12.282-17.14-28.009-17.14-44.669c0-17.838,6.947-34.61,19.561-47.223    l218.335-218.335c2.97-17.531,4.872-35.207,5.7-52.924L327.071,279.615z"/>
	</g>
</g>
<g>
	<g>
		<path d="M176.249,406.827c-13.021-13.021-34.204-13.019-47.224,0L26.49,509.362c31.306,3.442,62.911,3.515,94.23,0.217    l55.53-55.53C189.268,441.031,189.268,419.848,176.249,406.827z"/>
	</g>
</g>
<g>
</g>
<g>
</g>
<g>
</g>
<g>
</g>
<g>
</g>
<g>
</g>
<g>
</g>
<g>
</g>
<g>
</g>
<g>
</g>
<g>
</g>
<g>
</g>
<g>
</g>
<g>
</g>
<g>
</g>
</svg>
