<svg id="Capa_1" enable-background="new 0 0 510.552 510.552" height="512" viewBox="0 0 510.552 510.552" width="512" xmlns="http://www.w3.org/2000/svg"><g id="XMLID_676_"><path id="XMLID_745_" d="m475.398 284.497 34.744-34.745-37.418-37.417-20.07 20.069z"/><path id="XMLID_820_" d="m277.212 58.017 20.597-20.598-37.419-37.419-35.2 35.201z"/><path id="XMLID_821_" d="m482.211 375.08-71.133-162.929-18.559 18.558c-12.51 12.51-25.357 24.736-38.491 36.669l106.547 152.598z"/><path id="XMLID_822_" d="m135.985 28.837-44.384 22.211 152.631 106.728c11.962-13.168 24.218-26.049 36.76-38.592l18.595-18.595z"/><path id="XMLID_827_" d="m402.859 64.914 43.929 43.929c3.389-8.919 6.159-18.104 8.278-27.496 1.391-6.164-.063-12.514-3.987-17.421-3.972-4.966-9.829-7.814-16.07-7.814-1.544 0-3.108.177-4.65.524-9.395 2.118-18.58 4.889-27.5 8.278z"/><path id="XMLID_831_" d="m371.305 209.496 29.29-29.289c12.768-12.769 23.694-27.085 32.568-42.563l-59.106-59.106c-15.479 8.875-29.794 19.801-42.562 32.569l-29.29 29.289c-41.946 41.947-80.713 87.677-115.221 135.917l-35.143 49.126 34.421 34.42 49.125-35.142c48.251-34.516 93.98-73.281 135.918-115.221zm-30.584-59.728 21.213 21.213-47.88 47.88-21.213-21.213z"/><path id="XMLID_832_" d="m73.963 416.526-21.656 21.656 21.213 21.213 21.656-21.657-7.145-14.067z"/><path id="XMLID_833_" d="m164.745 380.768-33.811-33.81-69.055-18.138-31.778 31.778 80.244 40.758 40.759 80.245 31.777-31.778z"/><path id="XMLID_836_" d="m348.564 443.79-10.81-2.372-2.371-10.809c-1.324-6.033-4.303-11.501-8.615-15.814-10.305-10.305-26.299-12.41-38.896-5.119-9.546 5.527-15.532 15.407-16.012 26.428l-3.239 74.447 74.448-3.239c11.021-.48 20.9-6.465 26.427-16.013 7.291-12.595 5.187-28.59-5.118-38.895-4.313-4.311-9.782-7.29-15.814-8.614z"/><path id="XMLID_837_" d="m101.285 213.088c7.291-12.595 5.187-28.589-5.118-38.895-4.313-4.312-9.781-7.292-15.814-8.615l-10.81-2.372-2.371-10.809c-1.324-6.033-4.303-11.501-8.615-15.814-10.305-10.305-26.299-12.41-38.895-5.119-9.546 5.527-15.532 15.407-16.012 26.428l-3.241 74.448 74.448-3.239c11.021-.48 20.9-6.465 26.428-16.013z"/></g></svg>