<svg id="Capa_1" enable-background="new 0 0 512.282 512.282" height="512" viewBox="0 0 512.282 512.282" width="512" xmlns="http://www.w3.org/2000/svg"><g><path d="m30 421.141c41.414-52.651 75.72-116.358 93.81-180h-63.67v-48h-30v48h-30.14v215.3c9.84-10.647 20.286-22.875 30-35.3z"/><path d="m512.282 230.141h-30v61h-76.342c24.607 60.081 62.791 118.188 106.34 165.3z"/><path d="m170.099 36.133c3.3-8.39 7.041-17.897 7.041-35.992h-30c0 12.405-2.188 17.967-4.959 25.008-3.3 8.39-7.041 17.897-7.041 35.992h30c0-12.405 2.188-17.967 4.959-25.008z"/><path d="m270.099 36.133c3.3-8.39 7.041-17.897 7.041-35.992h-30c0 12.405-2.188 17.967-4.959 25.008-3.3 8.39-7.041 17.897-7.041 35.992h30c0-12.405 2.188-17.967 4.959-25.008z"/><path d="m370.099 36.133c3.3-8.39 7.041-17.897 7.041-35.992h-30c0 12.405-2.188 17.967-4.959 25.008-3.3 8.39-7.041 17.897-7.041 35.992h30c0-12.405 2.188-17.967 4.959-25.008z"/><path d="m201.82 328.101c-2.96 5.11-5.16 10.62-6.57 16.34h34.91l-17.45-30.22c-4.25 4.08-7.92 8.75-10.89 13.88z"/><path d="m238.68 419.671c11.29 3.26 23.63 3.26 34.92 0l-17.46-30.23z"/><path d="m299.57 314.221-17.45 30.22h34.91c-2.783-11.447-8.956-22.09-17.46-30.22z"/><path d="m475.13 459.841c-75.58-87.569-130.944-207.152-133.76-324.7h-170.46c-3.165 135.208-76.148 273.579-170.77 363.91v13.09h512v-13.09c-7.01-6.58-20.51-19.87-37.01-39.21zm-126.29-85.4h-66.72l33.36 57.77c-19.414 11.933-35.876 19.992-59.34 19.93-23.481.06-39.931-8.001-59.34-19.93l33.36-57.77h-66.72c-.595-22.764.668-41.224 12.42-61.37 11.65-20.267 26.933-30.558 46.9-41.44l33.38 57.81 33.38-57.81c19.971 10.882 35.259 21.189 46.9 41.43 11.757 20.174 13.013 38.619 12.42 61.38z"/></g></svg>