<svg id="Capa_1" enable-background="new 0 0 510 510" height="512" viewBox="0 0 510 510" width="512" xmlns="http://www.w3.org/2000/svg"><g><path d="m45 300h420v30h-420z"/><path d="m165 360h255v30h-255z"/><path d="m90 360h45v30h-45z"/><path d="m315 420h60v30h-60z"/><path d="m135 420h150v30h-150z"/><path d="m180 480h150v30h-150z"/><path d="m434.369 240.001c-1.14-13.756-3.834-27.076-7.904-39.788l42.148-17.459-11.48-27.716-42.18 17.472c-6.259-12.087-13.852-23.374-22.575-33.675l53.541-53.54-21.213-21.213-53.541 53.54c-10.301-8.725-21.588-16.316-33.675-22.575l17.472-42.18-27.717-11.48-17.459 42.149c-12.711-4.07-26.031-6.765-39.786-7.905v-75.631h-30v75.63c-13.756 1.141-27.076 3.835-39.787 7.905l-17.459-42.149-27.717 11.48 17.472 42.18c-12.087 6.258-23.374 13.851-33.675 22.575l-53.541-53.54-21.212 21.214 53.54 53.54c-8.724 10.301-16.317 21.588-22.576 33.675l-42.179-17.473-11.48 27.717 42.149 17.459c-4.071 12.712-6.765 26.032-7.905 39.788h-75.63v30h510v-30zm-105.882 0 .006-.001c-6.97-34.191-37.274-60-73.493-60s-66.524 25.809-73.493 60l.004.001h-30.435c7.3-50.817 51.119-90.001 103.924-90.001s96.623 39.184 103.924 90.001z"/></g></svg>