<?xml version="1.0" encoding="iso-8859-1"?>
<!-- Generator: Adobe Illustrator 19.0.0, SVG Export Plug-In . SVG Version: 6.00 Build 0)  -->
<svg xmlns="http://www.w3.org/2000/svg" xmlns:xlink="http://www.w3.org/1999/xlink" version="1.1" id="Layer_1" x="0px" y="0px" viewBox="0 0 512 512" style="enable-background:new 0 0 512 512;" xml:space="preserve">
<g>
	<g>
		<polygon points="424.26,313.361 424.26,255.479 408.633,265.855 393.006,276.232 372.233,290.025 372.233,310.392     372.233,329.144 372.233,347.834 340.979,368.232 340.979,349.897 340.979,331.145 340.979,310.778 256,367.201 118.212,275.711     102.585,265.334 86.959,254.958 86.959,312.684 256.115,425 340.979,368.66 340.979,438.728 312.848,438.728 312.848,512     344.101,512 344.101,469.981 369.104,469.981 369.104,512 400.358,512 400.358,438.728 372.233,438.728 372.233,347.907   "/>
	</g>
</g>
<g>
	<g>
		<polygon points="256,0 3.032,161.53 86.959,217.256 86.959,217.443 102.585,227.819 118.212,238.196 256,329.676 340.979,273.252     340.979,273.075 340.979,254.312 340.979,252.302 328.394,243.915 247.332,189.898 264.668,163.885 356.616,225.173     370.712,234.57 372.233,235.581 372.233,252.322 372.233,252.51 393.006,238.717 408.633,228.34 424.26,217.964 424.26,217.777     508.968,161.53   "/>
	</g>
</g>
<g>
</g>
<g>
</g>
<g>
</g>
<g>
</g>
<g>
</g>
<g>
</g>
<g>
</g>
<g>
</g>
<g>
</g>
<g>
</g>
<g>
</g>
<g>
</g>
<g>
</g>
<g>
</g>
<g>
</g>
</svg>
