<svg id="Capa_1" enable-background="new 0 0 512 512" height="512" viewBox="0 0 512 512" width="512" xmlns="http://www.w3.org/2000/svg"><g><path d="m319.958 182.969h-41.164l-76.054 50.558 96.613 53.016h55.524c9.301 0 16.867-7.566 16.867-16.867v-34.92c0-28.556-23.231-51.787-51.786-51.787zm18.583 63.734h-30v-30h30z"/><path d="m512 412.021v-330.452c-17.444-4.991-42.026-4.094-56.887 2.693l-.341.156c-25.016 11.427-64.22 11.425-89.243-.003l-.325-.149c-17.142-7.83-47.197-7.828-64.329-.004l-.341.156c-12.506 5.713-28.561 8.569-44.615 8.569-16.058.001-32.115-2.856-44.628-8.572l-.34-.156c-17.124-7.823-47.182-7.822-64.313.003l-.325.149c-25.033 11.434-64.236 11.434-89.259.003l-.341-.155c-14.809-6.766-39.284-7.675-56.713-2.737v330.499h48.734v-100.65h30v100.649h33.734v-54.045h30v54.045h163.328v-36.395h30v36.395h33.734v-62.678h30v62.678h33.734v-43.423h30v43.423h48.736zm-110.256-142.346c0 25.843-21.024 46.867-46.867 46.867h-158.814v-30h40.928l-60.418-33.153c-7.498 19.361-26.306 33.132-48.282 33.132h-3.036v-30h3.036c12.001 0 21.765-9.764 21.765-21.766 0-12.001-9.764-21.765-21.765-21.765h-3.036v-30h3.036c21.608 0 40.156 13.312 47.899 32.162l66.478-44.193-50.026-21.029 11.626-27.656 73.018 30.695h42.67c45.097 0 81.786 36.689 81.786 81.786v34.92z"/><path d="m69.185 56.974.341.156c17.125 7.823 47.181 7.822 64.313-.003l.325-.149c25.031-11.435 64.234-11.434 89.259-.004l.355.163c17.109 7.815 47.166 7.815 64.298-.01l.311-.143c25.046-11.439 64.249-11.439 89.273-.011l.356.163c17.108 7.816 47.166 7.816 64.298-.01l.311-.143c19.086-8.717 46.386-10.784 69.374-6.221v-50.762h-511.999v50.73c22.955-4.522 50.164-2.444 69.185 6.244z"/><path d="m0 442.021h512v69.979h-512z"/></g></svg>