<svg id="Capa_1" enable-background="new 0 0 512 512" height="512" viewBox="0 0 512 512" width="512" xmlns="http://www.w3.org/2000/svg"><g><circle cx="338.25" cy="152" r="31"/><path d="m198.948 152c0-17.094-13.452-31-29.986-31-16.535 0-29.986 13.906-29.986 31s13.452 31 29.986 31 29.986-13.906 29.986-31z"/><path d="m256 0c-116.577 0-211.081 94.504-211.081 211.081v89.839c0 116.576 94.504 211.08 211.081 211.08 116.577 0 211.081-94.504 211.081-211.081v-89.839c0-116.576-94.504-211.08-211.081-211.08zm-147.025 152c0-33.636 26.91-61 59.986-61s59.986 27.364 59.986 61-26.91 61-59.986 61-59.986-27.364-59.986-61zm272.525 211c0 43.561-35.439 79-79 79h-93c-43.561 0-79-35.439-79-79v-8c0-43.561 35.439-79 79-79h93c43.561 0 79 35.439 79 79zm-43.25-150c-33.636 0-61-27.364-61-61s27.364-61 61-61 61 27.364 61 61-27.365 61-61 61z"/><path d="m302.5 306h-93c-27.019 0-49 21.981-49 49v8c0 27.019 21.981 49 49 49h93c27.019 0 49-21.981 49-49v-8c0-27.019-21.982-49-49-49zm-31 75h-31c-23.71 0-43-19.29-43-43h30c0 7.168 5.832 13 13 13h31c7.168 0 13-5.832 13-13h30c0 23.71-19.29 43-43 43z"/></g></svg>