<svg id="Capa_1" enable-background="new 0 0 512 512" height="512" viewBox="0 0 512 512" width="512" xmlns="http://www.w3.org/2000/svg"><g><path d="m276.906 475.465c0 20.178 16.357 36.535 36.535 36.535s36.535-16.357 36.535-36.535c0-21.399-36.535-68.84-36.535-68.84s-36.535 47.441-36.535 68.84z"/><path d="m187.602 386.193c-10.881 16.002-25.578 40.143-25.578 53.813 0 20.464 16.59 37.054 37.054 37.054s37.054-16.59 37.054-37.054c0-7.859-4.861-19.183-11.06-30.431-14.184-4.798-27.002-12.829-37.47-23.382z"/><path d="m446.859 229.265-51.449-34.636-40.47-122.869c-13.864-42.352-54.044-71.778-98.94-71.76-44.571.018-85.035 29.153-98.922 71.854l-40.488 123.323-51.344 34.229c-20.181 13.454-32.303 36.104-32.303 60.359 0 40.029 32.424 72.493 72.453 72.542l64.924.08c-2.225-4.336-4.151-8.876-5.729-13.608-4.401-13.204-16.709-22.075-30.627-22.075h-24.958v-30h24.958c26.851 0 50.597 17.115 59.088 42.589 9.047 27.142 34.348 45.377 62.958 45.377s53.911-18.235 62.958-45.377c8.491-25.474 32.236-42.589 59.087-42.589h24.563v30h-24.563c-13.918 0-26.226 8.871-30.627 22.075-1.603 4.808-3.562 9.419-5.833 13.818l64.452.079c40.308.049 73.009-32.612 73.009-72.92.001-24.265-12.068-46.94-32.197-60.491z"/></g></svg>