<svg id="Capa_1" enable-background="new 0 0 512 512" height="512" viewBox="0 0 512 512" width="512" xmlns="http://www.w3.org/2000/svg"><g><path d="m99.124 481.417v15h313.752v-15c0-18.537-5.461-35.82-14.855-50.332h-284.042c-9.393 14.512-14.855 31.795-14.855 50.332z"/><path d="m.01 186.833c3.11 22.179 17.58 41.34 38.692 50.234 24.033-10.124 39.467-33.553 39.322-59.595 0-.104-.103-3.822-.264-5.591l-3.421-37.632h-71.273l-3.066 33.733s.01 10.101.01 18.851z"/><path d="m364.649 237.067c25.743-10.845 41.625-36.952 39.058-65.186l-3.421-37.632h-71.272l-3.421 37.632c-2.567 28.234 13.314 54.341 39.056 65.186z"/><path d="m473.299 237.067c21.109-8.894 35.579-28.051 38.691-50.227 0-5.09.01-18.869.01-18.869l-3.065-33.722h-71.272l-3.421 37.632c-2.568 28.234 13.314 54.341 39.057 65.186z"/><path d="m147.352 237.067c25.742-10.845 41.624-36.952 39.058-65.186l-3.421-37.632h-71.272l-3.422 37.633c-2.567 28.233 13.314 54.34 39.057 65.185z"/><path d="m256 237.067c25.743-10.845 41.625-36.952 39.058-65.186l-3.421-37.632h-71.272l-3.421 37.632c-2.568 28.234 13.314 54.341 39.056 65.186z"/><path d="m473.299 268.895c-20.109-6.703-42.722-22.395-54.325-40.135-11.602 17.74-34.215 33.432-54.325 40.135-20.109-6.703-42.723-22.396-54.324-40.136-11.603 17.74-34.216 33.433-54.325 40.136-20.109-6.703-42.723-22.396-54.324-40.136-11.602 17.74-34.215 33.433-54.324 40.136-21.133-7.044-43.063-22.439-54.384-40.041-11.603 17.74-34.157 33.338-54.266 40.041-8.715-2.905-21.674-8.664-29.133-13.907 5.52 19.654 13.379 38.628 23.456 56.444 20.486 36.217 49.781 67.149 84.806 89.653h276.339c35.025-22.503 64.32-53.436 84.805-89.653 10.077-17.815 17.936-36.789 23.456-56.442-7.459 5.241-20.417 11-29.132 13.905z"/><path d="m198.5 100.916h30c0-6.184 1.518-8.497 4.541-13.103 3.991-6.083 9.459-14.414 9.459-29.563s-5.468-23.48-9.459-29.563c-3.023-4.606-4.541-6.919-4.541-13.103h-30c0 15.149 5.467 23.48 9.459 29.563 3.023 4.607 4.541 6.919 4.541 13.104s-1.518 8.497-4.541 13.104c-3.992 6.082-9.459 14.413-9.459 29.561z"/><path d="m269.5 100.916h30c0-6.184 1.518-8.497 4.541-13.103 3.991-6.083 9.459-14.414 9.459-29.563s-5.468-23.48-9.459-29.563c-3.023-4.606-4.541-6.919-4.541-13.103h-30c0 15.149 5.467 23.48 9.459 29.563 3.023 4.607 4.541 6.919 4.541 13.104s-1.518 8.497-4.541 13.104c-3.992 6.082-9.459 14.413-9.459 29.561z"/></g></svg>