<svg id="Capa_1" enable-background="new 0 0 512 512" height="512" viewBox="0 0 512 512" width="512" xmlns="http://www.w3.org/2000/svg"><path d="m316.281 271h30.125c74.715 0 135.5-60.785 135.5-135.5s-60.785-135.5-135.5-135.5h-241c-41.493 0-75.25 33.757-75.25 75.25s33.757 75.25 75.25 75.25h241c8.34 0 15.125 6.785 15.125 15.125s-6.785 15.125-15.125 15.125h-180.75c-41.493 0-75.25 33.757-75.25 75.25v113h-60.312v15c12.476 0 22.625 10.149 22.625 22.625v52.688c0 29.052 23.636 52.688 52.688 52.688s52.688-23.636 52.688-52.688v-52.688c0-12.476 10.149-22.625 22.625-22.625v-15h-60.312v-113c0-24.951 20.299-45.25 45.25-45.25h180.75c24.882 0 45.125-20.243 45.125-45.125s-20.245-45.125-45.127-45.125h-241c-24.951 0-45.25-20.299-45.25-45.25s20.3-45.25 45.25-45.25h241c58.173 0 105.5 47.327 105.5 105.5s-47.327 105.5-105.5 105.5h-30.125c-24.882 0-45.125 20.243-45.125 45.125v82.875h-60.312v15c12.476 0 22.625 10.149 22.625 22.625v52.688c0 29.052 23.636 52.688 52.688 52.688s52.688-23.636 52.688-52.688v-52.688c0-12.476 10.149-22.625 22.625-22.625v-15h-60.312v-82.875c-.002-8.34 6.783-15.125 15.123-15.125z"/></svg>