<svg id="Capa_1" enable-background="new 0 0 509.87 509.87" height="512" viewBox="0 0 509.87 509.87" width="512" xmlns="http://www.w3.org/2000/svg"><g id="XMLID_128_"><path id="XMLID_804_" d="m167.565 0v405.96c14.61 10.17 32.35 16.13 51.46 16.13 40.444 0 74.767-26.707 86.263-63.416h-21.141v-30h25.248v-33.826h-25.248v-30h25.248v-33.825h-25.248v-30h25.248v-33.825h-25.248v-30h25.248v-37.108h30v37.107h25.748v30h-25.748v33.825h25.748v30h-25.748v33.825h25.748v30h-25.748v33.826h25.748v30h-28.794c-12.275 53.441-60.219 93.416-117.324 93.416-18.4 0-35.85-4.15-51.46-11.57v69.35h313.66v-509.869z"/><path id="XMLID_813_" d="m128.645 331.71c0-53.54-43.56-97.1-97.1-97.1h-2.9v30h2.9c37 0 67.1 30.1 67.1 67.1 0 47.98 28.21 89.49 68.92 108.81v-34.56c-23.51-16.32-38.92-43.52-38.92-74.25z"/></g></svg>