<svg id="Capa_1" enable-background="new 0 0 512 512" height="512" viewBox="0 0 512 512" width="512" xmlns="http://www.w3.org/2000/svg"><g><path d="m245.809 348.085-9.859 9.858-6.249 38.493 38.492-6.249 9.859-9.859z"/><path d="m250.185 240.618h225.068v45.599h-225.068z" transform="matrix(.707 -.707 .707 .707 -80.026 333.635)"/><path d="m282.56 418.251-89.146 14.472 10.386-63.974h-73.209v-30.003h82.126l37.692-37.692h-119.818v-30.003h149.821l68.081-68.081v-202.97h-318.591v60.804h-29.902v29.993h29.902v29.996h-29.902v29.992h29.902v29.996h-29.902v29.992h29.902v29.996h-29.902v29.992h29.902v29.995h-29.902v29.993h29.902v29.996h-29.902v29.992h29.902v29.996h-29.902v29.992h29.902v61.275h318.591v-159.682zm-151.969-350.285h148.049v30.004h-148.049zm0 67.695h148.049v30.003h-148.049zm0 67.695h148.049v30.003h-148.049zm-67.637 247.371h-32.985v-29.992h32.985zm0-59.988h-32.985v-29.992h32.985zm0-59.989h-32.985v-29.993h32.985zm0-59.988h-32.985v-29.992h32.985zm0-59.988h-32.985v-29.992h32.985zm0-59.989h-32.985v-29.992h32.985zm0-59.988h-32.985v-29.993h32.985z"/><path d="m505.323 120.815c-4.306-4.306-10.032-6.677-16.122-6.677s-11.816 2.371-16.122 6.677l-25.692 25.692 32.243 32.243 25.693-25.693c4.306-4.306 6.677-10.031 6.677-16.122 0-6.089-2.371-11.814-6.677-16.12z"/></g></svg>