<svg id="Capa_1" enable-background="new 0 0 512 512" height="512" viewBox="0 0 512 512" width="512" xmlns="http://www.w3.org/2000/svg"><g><path d="m255.5 240c16.538 0 30-13.462 30-30v-210h-180v180c0 16.538 13.462 30 30 30s30-13.462 30-30v-30c0-16.538 13.462-30 30-30s30 13.462 30 30v60c0 16.538 13.462 30 30 30z"/><path d="m315.5 409.329v-34.658l-30-17.315-30 17.32v34.648l30 17.32z"/><path d="m225.5 409.329v-34.658l-30-17.315-30 17.315v34.658l30 17.315z"/><path d="m15.5 328.836c0 126.006 99.376 181.973 100.459 183.164h249.082c1.043-1.146 100.459-57.458 100.459-183.164v-56.836h-450zm120 28.52 60-34.629 44.995 25.968 45.005-25.968 60 34.629v69.287l-60 34.629-45.005-25.968-44.995 25.968-60-34.629z"/><path d="m45.5 30c0 16.538 13.462 30 30 30v-60c-16.538 0-30 13.462-30 30z"/><path d="m315.5 0h181v60h-181z"/></g></svg>