<svg id="Capa_1" enable-background="new 0 0 510 510" height="512" viewBox="0 0 510 510" width="512" xmlns="http://www.w3.org/2000/svg"><g><path d="m165 0h75v75h-75z"/><path d="m270 0h75v75h-75z"/><path d="m75 0h60v75h-60z"/><path d="m375 0h60v75h-60z"/><path d="m135 510h240c36.22 0 66.522-25.808 73.491-60h-386.982c6.969 34.192 37.272 60 73.491 60z"/><path d="m437.2 180c-3.878-6.52-8.59-12.602-14.094-18.106-23.183-23.186-17.184-50.409-18.106-56.894h-300c-.93 6.537 5.098 33.689-18.106 56.894-5.504 5.504-10.217 11.586-14.095 18.106z"/><path d="m225 300h15v-30h-15c-8.271 0-15 6.728-15 15s6.729 15 15 15z"/><path d="m300 285c0-8.272-6.729-15-15-15h-15v30h15c8.271 0 15-6.728 15-15z"/><path d="m448.45 210c-16.748 0-367.118 0-386.9 0-1.012 5.493-1.55 11.114-1.55 16.819v193.181h390v-193.181c0-5.705-.538-11.326-1.55-16.819zm-223.45 30h60c24.814 0 45 20.186 45 45s-20.186 45-45 45h-60c-24.813 0-45-20.186-45-45s20.187-45 45-45zm-105 0h30v30h-30zm0 60h30v30h-30zm120 90h-120v-30h120zm150 0h-120v-30h120zm0-60h-30v-30h30zm0-60h-30v-30h30z"/></g></svg>