<svg id="Capa_1" enable-background="new 0 0 512 512" height="512" viewBox="0 0 512 512" width="512" xmlns="http://www.w3.org/2000/svg"><g><path d="m120.375 150.498h180.875v211.002h-180.875z"/><path d="m19.431 150.498h70.944v41.877h-70.944z"/><path d="m280.91 391.5h-49.82l-101.314 90.5h-39.419v30h50.867l114.776-102.526 114.776 102.526h50.867v-30h-39.419z"/><path d="m331.25 150.498h161.319v41.877h-161.319z"/><path d="m421.625 222.375h-30v25.725l-60.375 53.93v40.226l90.375-80.729z"/><path d="m418.336 120.498-15.062-60.248h-.001l-15.061-60.25h-102.087v30h78.663l7.563 30.25h-48.991c-23.043 0-45.584 6.403-65.187 18.518-16.912 10.452-30.999 24.762-41.165 41.729z"/></g></svg>