<svg id="Capa_1" enable-background="new 0 0 512 512" height="512" viewBox="0 0 512 512" width="512" xmlns="http://www.w3.org/2000/svg"><g id="XMLID_356_"><path id="XMLID_359_" d="m417.623 197.245 84.662-84.662c12.954-12.953 12.954-34.029 0-46.982-12.952-12.953-34.027-12.953-46.981 0l-131.644 131.644z"/><path id="XMLID_360_" d="m235.446 197.245c19.656-15.076 32.363-38.782 32.363-65.411v-5.271h-25.658c-39.265 0-72.182 27.61-80.413 64.429-8.23-36.819-41.147-64.429-80.412-64.429h-25.657v5.271c0 26.629 12.707 50.335 32.363 65.411z"/><path id="XMLID_361_" d="m0 227.246h491.03v47.247h-491.03z"/><path id="XMLID_363_" d="m0 304.494v.824c0 83.148 67.647 150.795 150.795 150.795h189.44c83.148 0 150.795-67.647 150.795-150.795v-.824z"/></g></svg>