<svg id="Capa_1" enable-background="new 0 0 512.18 512.18" height="512" viewBox="0 0 512.18 512.18" width="512" xmlns="http://www.w3.org/2000/svg"><g><path d="m306.158 111.584 19.313 24.892c11.858-2.891 24.823-4.11 38.857-3.624 3.407.117 6.735.103 9.997-.005l-18.984-54.095z"/><path d="m137.856 132.845c3.264.111 6.592.125 9.996.007 14.033-.488 26.998.73 38.858 3.623l19.313-24.891-49.184-32.831z"/><path d="m233.512 161.8c9.843 9.509 17.151 20.555 22.578 32.057 5.427-11.502 12.735-22.548 22.578-32.057 5.454-5.269 11.42-9.821 17.878-13.664l-40.456-52.143-40.456 52.142c6.458 3.843 12.425 8.396 17.878 13.665z"/><path d="m141.943 210.448c43.862.977 75.688 13.46 96.31 25.402-5.451-28.772-17.568-44.729-25.585-52.475-15.081-14.569-36.534-21.479-63.782-20.54-39.053 1.346-70.362-10.267-90.932-21.268 6.604 34.48 25.577 56.642 32.763 64.006 16.609 2.633 34.016 4.492 51.226 4.875z"/><path d="m363.293 162.835c-27.245-.941-48.701 5.971-63.781 20.54-8.017 7.746-20.134 23.703-25.585 52.475 20.622-11.942 52.448-24.425 96.31-25.402 17.21-.383 34.597-2.235 51.181-4.858 3.7-3.816 10.51-11.541 17.109-22.709 7.713-13.054 12.967-26.879 15.726-41.329-20.57 11.005-51.871 22.631-90.96 21.283z"/><path d="m170.249 315.898c-19.62-3.904-32.673 5.442-38.877 11.606 3.415 8.13 11.938 21.787 31.462 25.671 19.495 3.881 32.583-5.442 38.86-11.646-3.426-8.134-11.953-21.754-31.445-25.631z"/><path d="m341.932 315.898c-19.493 3.877-28.02 17.497-31.445 25.631 6.277 6.203 19.368 15.525 38.859 11.646 19.62-3.902 28.104-17.531 31.477-25.601-6.266-6.202-19.366-15.561-38.891-11.676z"/><path d="m370.904 240.44c-70.854 1.578-103.284 37.158-103.604 37.518l-11.361 12.78-11.062-12.78c-.017-.018-8.377-9.067-25.249-18.164-15.54-8.379-41.748-18.538-78.354-19.354-55.507-1.236-111.279-16.185-141.274-25.621 9.328 51.637 46.922 105.958 47.355 106.578l16.478 23.59-51.254.007c18.641 40.053 45.045 66.76 78.693 79.521 72.487 27.494 156.82-17.365 157.663-17.822l7.16-3.874 7.149 3.874c.845.457 85.178 45.313 157.664 17.822 33.646-12.762 60.052-39.469 78.692-79.521h-51.297l16.525-23.604c.43-.613 38.023-54.935 47.351-106.571-29.993 9.436-85.766 24.385-141.275 25.621zm-139.871 112.613c-.925 1.42-20.753 31.1-58.72 31.1-4.821 0-9.928-.478-15.333-1.553-47.967-9.541-56.758-53.759-57.109-55.636l-1.104-5.907 3.28-5.035c1.043-1.601 26.083-39.094 74.053-29.547 47.967 9.541 56.758 53.759 57.109 55.636l1.103 5.907zm182.379-31.997-1.104 5.907c-.351 1.878-9.144 46.095-57.109 55.636-5.402 1.074-10.515 1.553-15.333 1.553-37.972 0-57.795-29.68-58.72-31.1l-3.28-5.035 1.104-5.907c.351-1.877 9.143-46.095 57.108-55.636 47.976-9.544 73.012 27.946 74.054 29.547z"/></g></svg>