<svg id="Capa_1" enable-background="new 0 0 512 512" height="512" viewBox="0 0 512 512" width="512" xmlns="http://www.w3.org/2000/svg"><g><path d="m31 211v301h450v-301c-231.791 0-313.91 0-450 0zm300 30h90v90h-90zm0 120h90v90h-90zm-120-120h90v90h-90zm0 120h90v90h-90zm-30 90h-90v-210h90z"/><path d="m241 391h30v30h-30z"/><path d="m121 271h30v150h-30z"/><path d="m121 91v90h270v-90zm180 60h-30v-30h30zm60 0h-30v-30h30z"/><path d="m481 0h-450v181h60v-120h330v120h60z"/><path d="m241 271h30v30h-30z"/><path d="m361 391h30v30h-30z"/><path d="m361 271h30v30h-30z"/></g></svg>