<svg id="Capa_1" enable-background="new 0 0 512.5 512.5" height="512" viewBox="0 0 512.5 512.5" width="512" xmlns="http://www.w3.org/2000/svg"><g><path d="m454.704 432.5v-30h-341.908c-30.327 0-55 24.673-55 55s24.673 55 55 55h341.908v-30h-30v-50z"/><path d="m127.796 0h-14.996c-30.33 0-55 24.67-55 55v33.974h69.996z"/><path d="m57.8 118.974h69.996v30h-69.996z"/><path d="m127.796 372.5v-193.526h-69.996v213.766c14.83-12.62 34.05-20.24 55-20.24z"/><path d="m306.248 77.229c-26.77 0-48.549 21.779-48.549 48.549 0 .568.011 1.134.03 1.697l86.758-31.577c-8.894-11.357-22.728-18.669-38.239-18.669z"/><path d="m268.009 155.659c8.894 11.358 22.729 18.669 38.24 18.669 26.77 0 48.549-21.779 48.549-48.55 0-.568-.011-1.134-.03-1.697z"/><path d="m454.7 0h-296.904v372.5h296.904zm-113.452 324.111h-70v-30h70zm27.632-60h-125.264v-30h125.264zm15.917-138.333c0 43.313-35.237 78.55-78.549 78.55-28.524 0-53.545-15.283-67.307-38.09l-27.108 9.866-10.26-28.19 27.084-9.858c-.631-4.001-.959-8.102-.959-12.278 0-43.312 35.237-78.549 78.549-78.549 28.523 0 53.544 15.282 67.306 38.089l27.108-9.866 10.261 28.19-27.084 9.858c.631 4.002.959 8.102.959 12.278z"/></g></svg>