<svg id="Capa_1" enable-background="new 0 0 512 512" height="512" viewBox="0 0 512 512" width="512" xmlns="http://www.w3.org/2000/svg"><g><g><path d="m91 392h90v30h-90z"/><path d="m211 392h90v30h-90z"/><circle cx="406" cy="407" r="15"/><path d="m0 302v210h512v-210zm331 150h-270v-90h270zm75 0c-24.814 0-45-20.186-45-45s20.186-45 45-45 45 20.186 45 45-20.186 45-45 45z"/></g><g><path d="m405 138.604c-8.404 12.553-45 61.591-45 86.396 0 24.814 20.186 45 45 45s45-20.186 45-45c0-25.1-37.631-75.389-45-86.396z"/><path d="m90 0h-30c0 3.253 0 93.021 0 90h-30v-45h-30v120h30v-45h30c0 30.147 0 94.147 0 90h30v-45h210v-120h-210z"/><path d="m330 90h90v30h-90z"/></g></g></svg>