<svg id="Capa_1" enable-background="new 0 0 505.605 505.605" height="512" viewBox="0 0 505.605 505.605" width="512" xmlns="http://www.w3.org/2000/svg"><g><path d="m432.204 354.098 35.643-35.643-21.213-21.213-35.643 35.643-21.753-21.753c14.591-17.492 25.64-38.036 32.024-60.525h-53.763c-33.084 0-60-26.917-60-60 0-8.271-6.728-15-15-15-24.813 0-44.999-20.188-44.999-45v-89.312c-34.25 3.102-65.5 16.724-90.513 37.585l-21.767-21.766 32.393-32.394-21.212-21.212-32.393 32.393-35.902-35.901-21.213 21.213 36.258 36.257c-35.987 41.022-55.651 93.064-55.651 148.136 0 120.559 93.963 216.906 210 224.496v45.503h-75v30h179.999v-30h-75v-45.503c49.482-3.236 95.86-22.446 133.137-55.148l36.257 36.257 21.213-21.213zm-307.59-10.607c-72.861-72.862-75.832-188.404-10.204-264.762l21.362 21.362c-7.31 8.764-13.739 18.286-19.129 28.445l59.873 59.873c1.416 1.416 3.3 2.196 5.303 2.196 27.945 0 50.68 22.734 50.68 50.68v1.82c0 4.136 3.364 7.5 7.5 7.5 20.677 0 37.499 16.821 37.499 37.5v81.811c34.25-3.102 65.511-16.713 90.526-37.572l21.351 21.351c-76.276 65.561-191.834 62.724-264.761-10.204z"/><path d="m292.499 145.606c24.814 0 45 20.186 45 45 0 16.541 13.458 30 30 30h59.311c8.319-91.933-60.017-171.226-149.311-179.311v89.312c0 8.27 6.729 14.999 15 14.999z"/><path d="m240 280.606c-20.678 0-37.5-16.822-37.5-37.5v-1.82c0-11.403-9.277-20.68-20.68-20.68-10.017 0-19.434-3.9-26.516-10.983l-50.983-50.983c-4.43 14.893-6.821 30.654-6.821 46.967 0 85.924 66.023 156.706 150 164.311v-81.811c0-4.136-3.365-7.501-7.5-7.501z"/></g></svg>