<svg id="Capa_1" enable-background="new 0 0 512 512" height="512" viewBox="0 0 512 512" width="512" xmlns="http://www.w3.org/2000/svg"><g><path d="m376 390h-116.054c.092-.026.185-.043.277-.045 105.578-2.255 190.777-88.847 190.777-194.955 0-107.52-87.48-195-195-195s-195 87.48-195 195c0 106.31 85.524 193.03 191.38 194.967.065.001.13.015.195.033h-116.575c-57.891 0-105 47.109-105 105v17h450v-17c0-57.891-47.109-105-105-105zm-15-225h-30c0-19.849-30-19.841-30 0h-30c0-59.556 90-59.496 90 0zm-120 0h-30c0-19.849-30-19.841-30 0h-30c0-59.556 90-59.496 90 0zm-83.994 65.01 28.271-10.02c23.554 66.432 117.856 66.532 141.445 0l28.271 10.02c-32.949 92.963-164.982 93.119-197.987 0z"/></g></svg>