<svg id="Capa_1" enable-background="new 0 0 512 512" height="512" viewBox="0 0 512 512" width="512" xmlns="http://www.w3.org/2000/svg"><g><path d="m134.267 426.856h82.689v85.144h-82.689z"/><path d="m216.956 53.131v-52.868l-82.689-.263v53.131h82.682z"/><path d="m134.267 319.664v77.192h82.689v-77.192-92.059h-82.689z"/><path d="m372.829 12.873-5.531-7.407-28.983 15.51c18.686 33.762 28.459 71.421 28.393 109.993-.069 40.029-10.652 78.527-30.71 112.106l30.989 12.258 5.569-6.967c22.429-28.054 34.961-75.426 35.292-115.228.335-40.41-12.102-89.57-35.019-120.265z"/><path d="m336.708 130.918c.058-33.582-8.495-66.382-24.845-95.785l-87.593 47.089h-120.124v116.445h120.124l83.395 33.201c18.952-29.903 28.98-64.676 29.043-100.95z"/></g></svg>