<svg id="Capa_1" enable-background="new 0 0 513.5 513.5" height="512" viewBox="0 0 513.5 513.5" width="512" xmlns="http://www.w3.org/2000/svg"><g><path d="m72.69 370.866 59.024-21.08c-22.869-25.899-37.832-58.926-41.088-95.279h-2.549c-13.372 0-25.816-4.03-36.199-10.927-1.21 15.819-4.259 31.436-9.112 46.603-5.496 17.174-8.283 35.024-8.283 53.057v51.921c10.567-10.63 23.512-19.047 38.207-24.295z"/><path d="m256.751 446.031c37.614 0 69.404-25.317 79.286-59.797-23.596 12.802-50.608 20.08-79.287 20.08-28.678 0-55.688-7.276-79.283-20.077 9.882 34.479 41.672 59.794 79.284 59.794z"/><path d="m430.721 399.118-62.279-22.242c-6.614 55.764-54.177 99.155-111.691 99.155s-105.077-43.392-111.69-99.156l-62.281 22.243c-28.887 10.316-48.296 37.857-48.296 68.531v45.851h444.531v-45.851c.001-30.673-19.408-58.214-48.294-68.531z"/><path d="m470.733 290.184c-4.854-15.167-7.903-30.785-9.113-46.603-10.383 6.897-22.827 10.927-36.198 10.927h-2.549c-3.256 36.352-18.219 69.38-41.088 95.278l59.025 21.08c14.695 5.248 27.639 13.665 38.205 24.295v-51.921c.001-18.031-2.786-35.882-8.282-53.056z"/><path d="m287.594 1.5h-15.844v60.902c0 33.582 27.32 60.902 60.902 60.902h75.902 16.867c.244 0 .484.016.728.018-8.801-68.618-67.581-121.822-138.555-121.822z"/><path d="m88.078 224.508h1.867v-71.203h-1.867c-19.631 0-35.602 15.971-35.602 35.602s15.971 35.601 35.602 35.601z"/><path d="m425.422 153.305h-1.867v71.203h1.867c19.631 0 35.602-15.971 35.602-35.602s-15.971-35.601-35.602-35.601z"/><path d="m393.555 153.305h-60.902c-31.682 0-59.625-16.296-75.902-40.942-16.277 24.646-44.22 40.942-75.902 40.942h-60.903v86.203c0 75.435 61.371 136.806 136.805 136.806s136.805-61.371 136.805-136.806v-86.203zm-187.407 67.468h-33.734v-30h33.734zm134.938 0h-33.734v-30h33.734z"/><path d="m240.083 1.5h-14.177c-70.974 0-129.755 53.204-138.556 121.823.244-.003.484-.018.728-.018h92.77c33.582 0 60.902-27.32 60.902-60.902v-62.403z"/></g></svg>