<?xml version="1.0" encoding="iso-8859-1"?>
<!-- Generator: Adobe Illustrator 19.0.0, SVG Export Plug-In . SVG Version: 6.00 Build 0)  -->
<svg version="1.1" id="Layer_1" xmlns="http://www.w3.org/2000/svg" xmlns:xlink="http://www.w3.org/1999/xlink" x="0px" y="0px"
	 viewBox="0 0 512 512" style="enable-background:new 0 0 512 512;" xml:space="preserve">
<g>
	<g>
		<path d="M379.801,157.565c-9.309,0-16.882,7.573-16.882,16.882c0,9.309,7.573,16.882,16.882,16.882
			c9.309,0,16.882-7.573,16.882-16.882C396.684,165.139,389.11,157.565,379.801,157.565z"/>
	</g>
</g>
<g>
	<g>
		<path d="M132.199,157.565c-9.309,0-16.882,7.573-16.882,16.882c0,9.309,7.573,16.882,16.882,16.882s16.882-7.573,16.882-16.882
			C149.081,165.139,141.507,157.565,132.199,157.565z"/>
	</g>
</g>
<g>
	<g>
		<path d="M256,157.565c-9.309,0-16.882,7.573-16.882,16.882c0,9.309,7.573,16.882,16.882,16.882
			c9.309,0,16.882-7.573,16.882-16.882C272.882,165.139,265.309,157.565,256,157.565z"/>
	</g>
</g>
<g>
	<g>
		<path d="M14.024,0v348.895H287.73L430.448,512V348.895h67.528V0H14.024z M132.199,225.094c-27.926,0-50.646-22.72-50.646-50.646
			c0-27.926,22.72-50.646,50.646-50.646c27.926,0,50.646,22.72,50.646,50.646C182.845,202.374,160.125,225.094,132.199,225.094z
			 M256,225.094c-27.926,0-50.646-22.72-50.646-50.646c0-27.926,22.72-50.646,50.646-50.646s50.646,22.72,50.646,50.646
			C306.646,202.374,283.926,225.094,256,225.094z M379.801,225.094c-27.926,0-50.646-22.72-50.646-50.646
			c0-27.926,22.72-50.646,50.646-50.646s50.646,22.72,50.646,50.646C430.448,202.374,407.728,225.094,379.801,225.094z"/>
	</g>
</g>
<g>
</g>
<g>
</g>
<g>
</g>
<g>
</g>
<g>
</g>
<g>
</g>
<g>
</g>
<g>
</g>
<g>
</g>
<g>
</g>
<g>
</g>
<g>
</g>
<g>
</g>
<g>
</g>
<g>
</g>
</svg>
