<svg id="Capa_1" enable-background="new 0 0 512 512" height="512" viewBox="0 0 512 512" width="512" xmlns="http://www.w3.org/2000/svg"><path d="m437.02 74.98c-48.353-48.351-112.64-74.98-181.02-74.98s-132.667 26.629-181.02 74.98c-48.351 48.353-74.98 112.64-74.98 181.02s26.629 132.667 74.98 181.02c48.353 48.351 112.64 74.98 181.02 74.98s132.667-26.629 181.02-74.98c48.351-48.353 74.98-112.64 74.98-181.02s-26.629-132.667-74.98-181.02zm-21.214 21.214c42.686 42.686 66.194 99.439 66.194 159.806 0 55.339-19.768 107.633-55.943 148.845l-66.089-66.089c4.31-10.087 7.192-20.924 8.394-32.256h51.493v-30h-52.295c-1.105-6.874-2.832-13.541-5.122-19.944 21.455-8.119 38.879-24.938 47.603-46.411l-27.794-11.291c-6.021 14.821-18.539 26.159-33.777 30.773-6.309-8.966-13.885-16.979-22.47-23.772v-25.322c0-19.365-8.315-36.639-21.242-47.828l20.099-20.099-21.213-21.213-28.378 28.378c-1.708-.172-3.435-.272-5.183-.272h-28.164c-1.748 0-3.475.1-5.183.272l-28.378-28.378-21.213 21.213 20.099 20.099c-9.663 8.364-16.738 20.127-19.698 33.626l-80.389-80.389c41.211-36.174 93.504-55.942 148.843-55.942 60.367 0 117.12 23.508 159.806 66.194zm-319.612 319.612c-42.686-42.686-66.194-99.439-66.194-159.806 0-55.339 19.768-107.633 55.943-148.845l99.306 99.306c-8.275 6.663-15.595 14.464-21.719 23.167-15.238-4.614-27.756-15.952-33.777-30.773l-27.794 11.291c8.724 21.473 26.148 38.292 47.603 46.411-2.289 6.403-4.016 13.07-5.121 19.944h-52.296v30h51.493c.752 7.093 2.166 13.991 4.174 20.634-20.649 8.357-37.368 24.835-45.853 45.72l27.794 11.291c5.586-13.751 16.763-24.508 30.517-29.675 20.01 31.828 55.438 53.03 95.73 53.03 35.548 0 67.309-16.505 88.039-42.248l60.806 60.806c-41.213 36.173-93.506 55.941-148.845 55.941-60.367 0-117.12-23.508-159.806-66.194z"/></svg>