<svg id="Capa_1" enable-background="new 0 0 510.715 510.715" height="512" viewBox="0 0 510.715 510.715" width="512" xmlns="http://www.w3.org/2000/svg"><g><path id="XMLID_1473_" d="m75.715 420.31h420c8.285 0 15-6.716 15-15v-44.953h-508.465c6.99 34.166 37.266 59.953 73.465 59.953z"/><path id="XMLID_1479_" d="m465.02 90.404c-24.104 0-44.121 18.789-45.604 42.836-3.061 49.632-13.834 59.049-44.656 62.145-20.994 2.107-38.475-2.569-50.543-13.532-11.824-10.741-18.291-27.248-18.209-46.479.027-6.152-3.707-11.697-9.418-13.987-5.711-2.288-12.24-.86-16.473 3.607-.463.489-26.857 28.094-64.021 54.53l57.727 57.726-21.213 21.213-62.141-62.141c-10.053 6.009-20.551 11.578-31.275 16.3l54.629 54.628-21.213 21.213-64.92-64.919c-3.193.786-6.391 1.477-9.58 2.041-85.354 15.063-116.34 62.591-118.11 104.772h377.973c4.736-21.558 15.195-38.965 31.236-51.836 33.512-26.891 79.805-23.853 87.254-23.164h14.252v-119.257c0-25.152-20.499-45.696-45.695-45.696z"/><path id="XMLID_1482_" d="m494.008 285.26c-.359-.036-40.273-4.118-66.148 16.76-8.992 7.256-15.236 16.615-18.9 28.338h101.756v-45c-15.607-.032-15.232.073-16.708-.098z"/></g></svg>