<svg id="Capa_1" enable-background="new 0 0 509.371 509.371" height="512" viewBox="0 0 509.371 509.371" width="512" xmlns="http://www.w3.org/2000/svg"><g><path d="m268.44 479.371 46.634-98.865c-19.134 5.756-39.404 8.865-60.389 8.865s-41.254-3.109-60.389-8.864l46.634 98.864h-166.244v30h360v-30z"/><path d="m75.315 194.371c7.238 87.311 77.058 157.131 164.37 164.369v-59.369h30v59.369c87.311-7.238 157.132-77.059 164.37-164.369h-59.37v-30h59.37c-7.238-87.312-77.057-157.132-164.368-164.37v59.37h-30v-59.371c-87.313 7.238-157.133 77.059-164.372 164.371h59.37v30zm133.244-61.127 127.669-35.416-35.414 127.67-127.67 35.414z"/><path d="m216.228 217.828 60.212-16.703 16.704-60.213-60.213 16.703z"/></g></svg>