<svg id="Capa_1" enable-background="new 0 0 510 510" height="512" viewBox="0 0 510 510" width="512" xmlns="http://www.w3.org/2000/svg"><g><path d="m313.516 192.13c-1.414 10.605-25.154 188.657-26.383 197.87h57.867c0-10.997 0-202.514 0-209.912-3.361-.151-3.619-.059-16.596-.088-4.576 4.479-9.56 8.539-14.888 12.13z"/><path d="m376.584 188.292c-.525-.263-1.055-.514-1.584-.764v232.472c24.852 0 45-20.147 45-45v-116.459c0-29.749-16.808-56.945-43.416-70.249z"/><path d="m225 375c0 8.272 6.729 15 15 15h16.867l4-30h-20.867c-8.271 0-15 6.728-15 15z"/><path d="m240 420c-24.813 0-45-20.186-45-45s20.187-45 45-45h24.867l16.447-123.345c-35.443 9.184-73.208-.704-99.718-26.655h-13.056c-12.193 0-24.219 2.839-35.124 8.292h-.001c-26.607 13.304-43.415 40.5-43.415 70.249v191.459c0 16.568 13.432 30 30 30h15c0-24.67 0-199.107 0-225h30v255h210v-90c-44.668 0-96.361 0-135 0z"/><path d="m255 180c41.422 0 75-33.578 75-75v-30c0-41.422-33.578-75-75-75-41.421 0-75 33.578-75 75v30c0 41.422 33.579 75 75 75z"/></g></svg>