<svg id="Capa_1" enable-background="new 0 0 512 512" height="512" viewBox="0 0 512 512" width="512" xmlns="http://www.w3.org/2000/svg"><g><path d="m176.339 385.002c19.903 21.341 48.249 34.709 79.661 34.709s59.758-13.368 79.661-34.709z"/><path d="m149.501 212.747 18.182-12.577 22.087.962-6.344-21.179 7.741-20.709-22.103-.512-17.303-13.759-7.316 20.862-18.434 12.203 17.58 13.405z"/><path d="m355.554 355.002c4.086-9.156 6.95-18.973 8.371-29.245h-215.85c1.421 10.272 4.285 20.089 8.371 29.245z"/><path d="m437.02 74.98c-48.353-48.351-112.64-74.98-181.02-74.98s-132.667 26.629-181.02 74.98c-48.351 48.353-74.98 112.64-74.98 181.02s26.629 132.667 74.98 181.02c48.353 48.351 112.64 74.98 181.02 74.98s132.667-26.629 181.02-74.98c48.351-48.353 74.98-112.64 74.98-181.02s-26.629-132.667-74.98-181.02zm-362.749 101.333 45.202-29.926 17.94-51.155 42.429 33.742 54.196 1.254-18.979 50.779 15.554 51.931-54.159-2.358-44.583 30.841-14.492-52.237zm320.683 134.444c0 76.619-62.334 138.954-138.954 138.954s-138.954-62.335-138.954-138.954v-15h277.908zm-.333-101.573-14.492 52.237-44.583-30.841-54.159 2.358 15.554-51.931-18.979-50.779 54.196-1.254 42.429-33.742 17.94 51.155 45.202 29.926z"/><path d="m360.239 144.973-17.303 13.759-22.103.512 7.741 20.709-6.344 21.179 22.087-.962 18.182 12.577 5.91-21.304 17.58-13.405-18.434-12.203z"/></g></svg>