<svg id="Capa_1" enable-background="new 0 0 512 512" height="512" viewBox="0 0 512 512" width="512" xmlns="http://www.w3.org/2000/svg"><g><path d="m159.676 384.256v88.366h76.96v-64.34h65.829l4.377-49.341h-121.85c-13.96-.001-25.316 11.356-25.316 25.315z"/><path d="m358.116 288.395-42.539-91.228c0-87.521-71.256-158.399-158.919-157.785-86.612.608-157.033 71.873-156.656 158.486.202 46.505 20.53 88.253 52.715 117.004v157.749h76.959v-88.366c0-30.501 24.814-55.315 55.315-55.315h124.511l2.267-25.56z"/><path d="m448.168 291.365h49.34v64.34h-49.34z" transform="matrix(.383 -.924 .924 .383 -7.017 636.57)"/><path d="m416.24 376.111h-41.285v64.34h84.276l22.407-54.095-59.443-24.622z"/></g></svg>