<?xml version="1.0" encoding="iso-8859-1"?>
<!-- Generator: Adobe Illustrator 19.0.0, SVG Export Plug-In . SVG Version: 6.00 Build 0)  -->
<svg xmlns="http://www.w3.org/2000/svg" xmlns:xlink="http://www.w3.org/1999/xlink" version="1.1" id="Layer_1" x="0px" y="0px" viewBox="0 0 512 512" style="enable-background:new 0 0 512 512;" xml:space="preserve">
<g>
	<g>
		<polygon points="271.673,30.302 271.673,0 240.327,0 240.327,30.302 182.774,30.302 182.774,79.559 198.447,79.559 214.12,79.559     299.269,79.559 314.943,79.559 330.616,79.559 330.616,30.302   "/>
	</g>
</g>
<g>
	<g>
		<path d="M349.414,261.475c13.636-8.913,21.786-23.688,21.786-39.518v-78.336c0-12.361-4.305-23.74-11.494-32.716h-24.179h-4.911    H182.774h-6.301h-24.179c-7.189,8.976-11.494,20.355-11.494,32.716v78.336c0,15.83,8.15,30.605,21.786,39.518    c6.363,4.148,12.79,15.161,12.79,30.396c0,15.235-6.426,26.248-12.79,30.407c-13.636,8.913-21.786,23.688-21.786,39.518v59.935    h15.673h15.674h167.706h15.673H371.2v-59.935c0-15.83-8.15-30.605-21.786-39.518c-6.363-4.159-12.79-15.172-12.79-30.407    C336.624,276.637,343.05,265.624,349.414,261.475z"/>
	</g>
</g>
<g>
	<g>
		<polygon points="355.527,453.078 339.853,453.078 172.147,453.078 156.473,453.078 140.8,453.078 140.8,512 371.2,512     371.2,453.078   "/>
	</g>
</g>
<g>
</g>
<g>
</g>
<g>
</g>
<g>
</g>
<g>
</g>
<g>
</g>
<g>
</g>
<g>
</g>
<g>
</g>
<g>
</g>
<g>
</g>
<g>
</g>
<g>
</g>
<g>
</g>
<g>
</g>
</svg>
