<?xml version="1.0" encoding="iso-8859-1"?>
<!-- Generator: Adobe Illustrator 19.0.0, SVG Export Plug-In . SVG Version: 6.00 Build 0)  -->
<svg xmlns="http://www.w3.org/2000/svg" xmlns:xlink="http://www.w3.org/1999/xlink" version="1.1" id="Layer_1" x="0px" y="0px" viewBox="0 0 512 512" style="enable-background:new 0 0 512 512;" xml:space="preserve">
<g>
	<g>
		<path d="M50.039,0v135.23h15.655H81.35h20.655v31.311H81.35H65.695H50.039v25.487h15.655H81.35h20.655v31.31H81.35H65.695H50.039    v25.487h15.655H81.35h20.655v31.31H81.35H65.695H50.039v25.487h15.655H81.35h20.655v31.311H81.35H65.695H50.039v25.476h15.655    H81.35h20.655v31.311H81.35H65.695H50.039v26.436h15.655H81.35h20.655v31.311H81.35H65.695H50.039V512h411.921L50.039,0z     M143.794,245.85l141.628,176.038H143.794V245.85z"/>
	</g>
</g>
<g>
</g>
<g>
</g>
<g>
</g>
<g>
</g>
<g>
</g>
<g>
</g>
<g>
</g>
<g>
</g>
<g>
</g>
<g>
</g>
<g>
</g>
<g>
</g>
<g>
</g>
<g>
</g>
<g>
</g>
</svg>
