<svg id="Capa_1" enable-background="new 0 0 510 510" height="512" viewBox="0 0 510 510" width="512" xmlns="http://www.w3.org/2000/svg"><g><circle cx="277.444" cy="285" r="15"/><path d="m398.287 60.012c-16.953-.465-30.843 13.14-30.843 29.988v-29.376c0-16.347-12.816-30.164-29.157-30.612-16.953-.465-30.843 13.14-30.843 29.988v-29.376c0-16.347-12.816-30.164-29.157-30.612-16.953-.465-30.843 13.139-30.843 29.988v30c0-16.849-13.89-30.453-30.843-29.988-16.341.448-29.157 14.266-29.157 30.612v165.96c0 5.229-6.159 8.021-10.092 4.575l-45.304-39.689c-10.969-12.182-29.99-12.683-41.561-.794-8.957 9.204-10.392 23.39-3.983 34.52l39.559 68.707c9.165 15.918 20.535 30.435 33.794 43.146l34.187 22.528c14.608 9.627 23.4 25.95 23.4 43.444v106.979h180v-105c0-13.583 5.396-26.608 15-36.213 9.605-9.604 15-22.631 15-36.214v-241.949c0-16.347-12.816-30.164-29.157-30.612zm-105.843 389.988h-30v-30h30zm0-60h-30v-30h30zm-15-60c-24.813 0-45-20.187-45-45 0-24.814 20.187-45 45-45s45 20.187 45 45-20.186 45-45 45zm75 90h-30v-30h30zm30-58h-30v-30h30zm0-77h-30v-30h30z"/></g></svg>