<svg id="Capa_1" enable-background="new 0 0 512.002 512.002" height="512" viewBox="0 0 512.002 512.002" width="512" xmlns="http://www.w3.org/2000/svg"><g><path d="m183.443 129.276 18.639 18.638c7.972-2.701 16.412-4.126 25.076-4.126 20.811 0 40.375 8.104 55.089 22.818l23.967 23.967 42.315-42.314c8.025-8.026 17.5-14.068 27.826-17.919-20.916-45.594-66.994-77.34-120.352-77.34-44.548 0-84.023 22.127-108.017 55.967 13.302 3.433 25.498 10.35 35.457 20.309z"/><path d="m175.303 163.563-13.074-13.074c-9.339-9.339-21.608-14.01-33.876-14.01s-24.536 4.67-33.875 14.01l-94.478 94.478v58.98h34.728s139.475-139.4 140.575-140.384z"/><path d="m437.493 169.472c-9.049-9.049-21.079-14.032-33.876-14.032s-24.827 4.983-33.876 14.032l-42.315 42.315 92.16 92.16h92.415v-59.966z"/><path d="m193.282 187.82-116.127 116.127h300.005l-116.127-116.127c-9.048-9.049-21.079-14.032-33.875-14.032-12.797 0-24.828 4.983-33.876 14.032z"/><path d="m.001 333.947h512.001v125.054h-512.001z"/></g></svg>