<svg id="Capa_1" enable-background="new 0 0 512 512" height="512" viewBox="0 0 512 512" width="512" xmlns="http://www.w3.org/2000/svg"><g><path d="m59.089 31h452.911v60h-452.911z"/><circle cx="284.133" cy="196" r="15"/><path d="m98.997 225.7-81.299 76.5c-23.556 22.935-23.638 61.585 0 84.6 23.22 23.848 61.766 23.131 84.3.601l9.598-9.001-2.999-38.099-27.299 25.499c-11.4 11.1-31.201 11.1-42.601 0-11.999-11.999-11.136-31.465-.298-42.299l63.898-59.7 6.301 76.5 134.387-126.233c-2.443-5.541-3.851-11.633-3.851-18.067 0-24.814 20.186-45 45-45s45 20.186 45 45-20.186 45-45 45c-7.449 0-14.376-1.992-20.57-5.209l-151.968 142.607 8.701 102.601h327.599l30-360h-387.599z"/></g></svg>