<svg id="Capa_1" enable-background="new 0 0 509.995 509.995" height="512" viewBox="0 0 509.995 509.995" width="512" xmlns="http://www.w3.org/2000/svg"><g><path d="m163.291 405.399c-26.011 0-47.173-21.099-47.173-47.033 0-9.393-7.704-17.033-17.174-17.033h-37.18c10.74 79.21 69.216 143.46 145.42 162.732v-54.773c.001-24.202-19.69-43.893-43.893-43.893z"/><path d="m446.529 278.286-46.826 34.128c-8.988 6.42-13.065 17.49-10.387 28.204 6.496 25.982-5.697 52.493-29.65 64.47-12.182 6.091-19.074 19.227-17.169 32.706l7.337 47.527c59.692-33.375 100.146-97.208 100.146-170.321 0-12.425-1.164-24.705-3.451-36.714z"/><path d="m346.249 378.255c11.279-5.64 17.021-18.124 13.963-30.36-5.683-22.729 2.953-46.216 21.998-59.854l55.741-40.625c-12.744-34.482-35.26-64.998-64.652-87.446 1.1 6.516 1.681 13.206 1.681 20.03v90h-37.7l-15 75h-134.601l-15-75h-37.699v-90c0-6.824.582-13.515 1.682-20.03-45.886 35.046-75.515 89.969-76.646 151.363h38.93c26.012 0 47.174 21.099 47.174 47.033 0 9.393 7.704 17.033 17.173 17.033 40.745 0 73.894 33.148 73.894 73.893v59.888c29.673 2.697 58.286-1.397 84.299-10.864l-8.672-56.184c-3.784-26.317 9.654-51.987 33.435-63.877z"/><path d="m212.273 315h85.414l15-75h32.293v-60c0-23.031-8.699-44.065-22.979-60-35.839 39.99-98.184 40.01-134.04 0-14.28 15.935-22.98 36.969-22.98 60v60h32.293z"/><circle cx="254.98" cy="60" r="60"/></g></svg>