<svg id="Capa_1" enable-background="new 0 0 512 512" height="512" viewBox="0 0 512 512" width="512" xmlns="http://www.w3.org/2000/svg"><g><path d="m226.018 352.034c0 16.515 13.436 29.95 29.951 29.95s29.95-13.436 29.95-29.95c0-11.446-15.269-36.963-29.95-57.439-14.682 20.476-29.951 45.993-29.951 57.439z"/><path d="m315.919 199.381c0 16.516 13.436 29.951 29.951 29.951s29.951-13.436 29.951-29.951c0-11.474-15.266-36.982-29.946-57.445-14.685 20.478-29.956 45.997-29.956 57.445z"/><path d="m373.014 23.761c-49.125 0-92.295 25.487-117.014 63.958-24.719-38.471-67.889-63.958-117.014-63.958-76.76 0-138.986 62.226-138.986 138.986 0 93.253 62.791 187.861 256 325.492 193.209-137.631 256-232.239 256-325.492 0-76.76-62.226-138.986-138.986-138.986zm-266.899 175.62c0-30.53 40.231-81.729 48.297-91.684l11.654-14.384 11.654 14.384c8.065 9.954 48.297 61.153 48.297 91.684 0 33.058-26.894 59.951-59.951 59.951s-59.951-26.893-59.951-59.951zm149.854 212.603c-33.058 0-59.951-26.894-59.951-59.95 0-30.531 40.231-81.73 48.297-91.685l11.654-14.384 11.654 14.384c8.065 9.954 48.296 61.153 48.296 91.685 0 33.057-26.894 59.95-59.95 59.95zm89.901-152.652c-33.058 0-59.951-26.894-59.951-59.951 0-30.53 40.231-81.729 48.297-91.684l11.654-14.384 11.654 14.384c8.065 9.954 48.297 61.153 48.297 91.684 0 33.058-26.893 59.951-59.951 59.951z"/><path d="m136.115 199.381c0 16.516 13.436 29.951 29.951 29.951s29.951-13.436 29.951-29.951c0-11.474-15.266-36.982-29.946-57.445-14.684 20.478-29.956 45.997-29.956 57.445z"/></g></svg>