<svg id="Capa_1" enable-background="new 0 0 512 512" height="512" viewBox="0 0 512 512" width="512" xmlns="http://www.w3.org/2000/svg"><g><path d="m123.575 303.56-21.35 21.349-24.379-24.379-21.216 21.216 42.06 42.06-56.528 56.528-20.946-20.946-21.216 21.216 91.396 91.396 21.216-21.216-20.946-20.946 56.528-56.528 42.06 42.06 21.216-21.216-24.379-24.379 21.349-21.35z"/><path d="m466.059 96.105-14.474-14.474 60.415-60.415-21.216-21.216-60.415 60.415-14.474-14.474-71.859 43.57 78.453 78.453z"/><path d="m277.19 319.675-42.432-42.433 21.216-21.216 42.432 42.433 21.217-21.217-42.432-42.433 21.216-21.216 42.432 42.433 21.217-21.217-42.433-42.432 21.216-21.216 42.433 42.432 21.207-21.207-84.865-84.865-174.823 174.823 84.865 84.865z"/></g></svg>