<svg id="Capa_1" enable-background="new 0 0 512 512" height="512" viewBox="0 0 512 512" width="512" xmlns="http://www.w3.org/2000/svg"><g><g id="Dropping_Sample_buffer_1_"><g><path d="m91 392h90v30h-90z"/><path d="m211 392h90v30h-90z"/><circle cx="406" cy="407" r="15"/><path d="m0 302v210h512v-210zm331 150h-270v-90h270zm75 0c-24.814 0-45-20.186-45-45s20.186-45 45-45 45 20.186 45 45-20.186 45-45 45z"/></g><g><path d="m210 210h-210v-210h210z"/></g><g><path d="m405 270c-24.814 0-45-20.186-45-45 0-25.1 37.631-75.389 45-86.396 8.404 12.553 45 61.591 45 86.396 0 24.814-20.186 45-45 45z"/></g></g><path d="m300 64.429v81.142l120-11.992v-57.158z"/><path d="m240 30h30v150h-30z"/></g></svg>