<svg id="Capa_1" enable-background="new 0 0 512 512" height="512" viewBox="0 0 512 512" width="512" xmlns="http://www.w3.org/2000/svg"><g><path d="m236.594 228.697 19.406 18.246 19.405-18.246c10.339-9.72 10.359-22.425 6.932-31.075-3.428-8.649-12.146-17.893-26.337-17.893s-22.909 9.243-26.337 17.893-3.407 21.355 6.931 31.075z"/><path d="m255.995 49.135c27.08 0 49.194-21.876 50.109-49.114h-100.208c.915 27.238 23.029 49.114 50.099 49.114z"/><path d="m80.914 217.322-15.15-66.802 29.258-6.635 15.15 66.802c7.834 34.545 9.579 69.885 5.185 105.035l-24.532 196.257h330.35l-24.531-196.257c-4.395-35.15-2.649-70.49 5.185-105.036l15.15-66.801 29.258 6.635-15.15 66.801c-.923 4.072-1.748 8.157-2.483 12.251l83.396-8.73-47.853-149.197c-8.813-27.477-31.567-48.081-59.611-53.979l-68.555-14.417c-2.559 42.277-37.443 75.886-79.975 75.886-42.543 0-77.428-33.609-79.987-75.887l-68.553 14.414c-28.046 5.897-50.801 26.501-59.614 53.98l-47.852 149.2 83.397 8.729c-.735-4.093-1.56-8.178-2.483-12.249zm120.859-30.752c9.005-22.725 29.783-36.841 54.227-36.841s45.222 14.116 54.227 36.841c9.005 22.724 3.537 47.241-14.271 63.984l-18.058 16.978 26.849 25.244-20.551 21.855-28.196-26.51-28.197 26.511-20.55-21.855 26.849-25.244-18.058-16.979c-17.808-16.743-23.275-41.261-14.271-63.984z"/></g></svg>