<svg id="Capa_1" enable-background="new 0 0 508.31 508.31" height="512" viewBox="0 0 508.31 508.31" width="512" xmlns="http://www.w3.org/2000/svg"><g><path d="m254.155 0-216 57.35v183.21c0 47.89 13.29 94.75 38.42 135.52 43.767 72.71 106.057 96.221 177.58 132.23 71.647-36.065 133.826-59.553 177.579-132.231 25.131-40.769 38.421-87.629 38.421-135.519v-183.21zm0 383.52c-79.68 0-144.5-64.82-144.5-144.5 7.934-191.7 281.095-191.644 289 .001 0 79.679-64.82 144.499-144.5 144.499z"/><circle cx="218.155" cy="255.52" r="15"/><path d="m254.155 124.52c-63.14 0-114.5 51.36-114.5 114.5 6.283 151.901 222.74 151.857 229-.001 0-63.139-51.36-114.499-114.5-114.499zm-36 176c-24.813 0-45-20.187-45-45s20.187-45 45-45 45 20.187 45 45-20.187 45-45 45zm49.5-116h-30v-30h30zm55.5 106h-30v-30h30zm5-66h-30v-30h30z"/></g></svg>