<svg id="Capa_1" enable-background="new 0 0 512 512" height="512" viewBox="0 0 512 512" width="512" xmlns="http://www.w3.org/2000/svg"><g><path d="m211.08 197.84c-8.61 11.02-11.61 25.13-8.22 38.7l.18.71h30.92l-1.99-7.97c-1.14-4.55-.13-9.28 2.75-12.97 2.89-3.7 7.23-5.81 11.92-5.81h88.53c6.96 0 12.99 4.71 14.68 11.46l3.81 15.29h30.92l-5.63-22.55c-5.02-20.14-23.03-34.2-43.78-34.2h-88.53c-13.99 0-26.95 6.32-35.56 17.34z"/><path d="m122.13 289.25h93.88l-12.97-52h-54.76z"/><path d="m246.93 289.25h119.7l-12.97-52h-119.7z"/><path d="m495.18 289.25v-20c0-17.67-14.32-32-32-32h-78.6l12.97 52z"/><path d="m88.548 289.254 29.699-59.058v-200.196h64.505v48.623h-17v49.013c5.853 5.853 9.134 9.134 14.987 14.987h2.013v39.127h30v-39.127h2.013c5.853-5.853 9.134-9.134 14.987-14.987v-49.013h-17v-48.623h30.307v-30h-154.812v201.572l-13.453-13.455c-12.496-12.497-32.756-12.499-45.254-.004l-22.633 22.628 78.513 78.513z"/><path d="m512 349.25v-30h-512v30h60.25v102.48c-10.11 5.38-17 16.02-17 28.27 0 17.67 14.33 32 32 32 17.68 0 32-14.33 32-32 0-12.25-6.89-22.89-17-28.27v-42.23h331.5v42.23c-10.11 5.38-17 16.02-17 28.27 0 17.67 14.33 32 32 32 17.68 0 32-14.33 32-32 0-12.25-6.89-22.89-17-28.27v-102.48zm-90.25 30.25h-331.5v-30.25h331.5z"/></g></svg>