<svg id="Layer_1" enable-background="new 0 0 510 510" height="512" viewBox="0 0 510 510" width="512" xmlns="http://www.w3.org/2000/svg"><g><path d="m0 0v135.975h81.213l23.787 23.787 62.331-62.331 55.812 83.717 60.975-121.95 62.956 110.173 56.682-70.853 37.457 37.457h68.787v-135.975z"/><path d="m406.244 143.432-63.318 79.147-57.044-99.827-59.026 118.05-64.188-96.282-57.668 57.669-36.214-36.214h-68.786v134.025h510v-134.025h-81.213z"/><path d="m45 330h420v30h-420z"/><path d="m0 510h510v-120h-510zm420-75h30v30h-30zm-60 0h30v30h-30zm-60 0h30v30h-30zm-60 0h30v30h-30zm-60 0h30v30h-30zm-60 0h30v30h-30zm-60 0h30v30h-30z"/></g></svg>