<svg id="Capa_1" enable-background="new 0 0 512 512" height="512" viewBox="0 0 512 512" width="512" xmlns="http://www.w3.org/2000/svg"><g><path d="m133.945 140.083c-62.364 43.583-102.078 115.783-102.078 195.814v118.8c0 31.94 25.984 57.303 57.207 57.303 1.9 0 3.82-.094 5.755-.286l42.674-4.239c49.17-4.885 86.63-46.25 86.63-95.662v-108.058c-14.273-8.613-24.791-22.828-28.514-39.574-6.234-.719-13.188-1.755-20.578-3.24-2.292 7.313-5.869 16.285-11.362 25.149-2.401 3.874-5.26 7.875-8.63 11.778 6.036 13.173 14.944 37.332 14.944 65.232h-30c0-18.274-4.963-34.876-9.382-46.04-10.363 5.185-22.978 8.539-38.299 8.539-2.116 0-4.283-.063-6.505-.195l1.777-29.947c22.705 1.346 39.264-6.885 50.594-25.168 3.721-6.005 6.233-12.128 7.899-17.212-12.518-4.381-25.226-10.258-37.037-18.149l16.664-24.945c21.903 14.631 48.483 20.982 68.43 23.726v-97.047c-8.364-4.525-17.818-7.03-27.494-7.029-11.057-.001-22.4 3.255-32.695 10.45z"/><path d="m378.055 140.083c-10.295-7.195-21.638-10.452-32.694-10.452-9.676 0-19.13 2.505-27.494 7.031v97.046c19.946-2.744 46.525-9.095 68.429-23.727l16.664 24.945c-11.809 7.889-24.515 13.766-37.03 18.146 1.736 5.304 4.388 11.729 8.355 17.951 11.328 17.77 27.723 25.758 50.131 24.432l1.777 29.947c-2.219.132-4.391.195-6.506.195-15.322 0-27.937-3.354-38.299-8.538-4.419 11.165-9.382 27.766-9.382 46.039h-30c0-27.899 8.908-52.058 14.944-65.231-3.37-3.903-6.229-7.904-8.63-11.778-5.493-8.864-9.07-17.835-11.362-25.149-7.391 1.485-14.345 2.521-20.579 3.24-3.724 16.741-14.242 30.954-28.513 39.569v108.064c0 49.412 37.459 90.777 86.63 95.662l42.674 4.239c1.935.192 3.854.286 5.755.286 31.222 0 57.207-25.364 57.207-57.303v-118.8c.001-80.031-39.713-152.231-102.077-195.814z"/><path d="m224.133 0h63.734v48.734h-63.734z"/><path d="m224.133 78.734h63.734v33.734h-63.734z"/><path d="m287.79 252.859.077-2.434v-63.411-44.545h-63.734v107.952l.078 2.442c1.089 16.615 14.901 29.753 31.789 29.753h.029c16.878-.016 30.674-13.153 31.761-29.757z"/><path d="m151 30h30v60h-30z"/><path d="m80.311 47.718h30v60h-30z" transform="matrix(.866 -.5 .5 .866 -26.09 58.067)"/><path d="m29.622 100.077h30v59.999h-30z" transform="matrix(.5 -.866 .866 .5 -90.339 103.682)"/><path d="m331 30h30v60h-30z"/><path d="m386.689 62.718h60v30h-60z" transform="matrix(.5 -.866 .866 .5 141.037 399.721)"/><path d="m437.378 115.077h59.999v30h-59.999z" transform="matrix(.866 -.5 .5 .866 -2.421 251.118)"/></g></svg>