<svg id="Capa_1" enable-background="new 0 0 512 512" height="512" viewBox="0 0 512 512" width="512" xmlns="http://www.w3.org/2000/svg"><g><path d="m181 0h150v62h-150z"/><path d="m271 122.76v-30.76h-30v30.76c-100.516 7.709-180 91.783-180 194.24 0 107.52 87.48 195 195 195s195-87.48 195-195c0-102.457-79.484-186.531-180-194.24zm-30 59.24h30v30h-30zm-90 150h-30v-30h30zm35.142 84.858h-30v-30h30zm0-169.716h-30v-30h30zm84.858 204.858h-30v-30h30zm30-120h-60v-90h30v60h30zm54.858 84.858h-30v-30h30zm0-169.716h-30v-30h30zm35.142 84.858h-30v-30h30z"/></g></svg>