<svg id="Capa_1" enable-background="new 0 0 511.835 511.835" height="512" viewBox="0 0 511.835 511.835" width="512" xmlns="http://www.w3.org/2000/svg"><g><path d="m197.451 261.481c.389.005.778.008 1.167.008 34.765 0 66.333-21.63 78.802-54.128 9.643-25.133 31.912-42.116 57.92-44.813l93.979-16.301c41.214-7.148 73.021-37.945 82.516-77.051-38.785 15.517-80.586 23.637-122.339 23.637h-190.84c-22.532 0-43.713 8.777-59.643 24.714-15.775 15.784-24.542 36.758-24.684 59.064-.293 46.155 36.995 84.228 83.122 84.87zm50.801-143.42h30.972v30h-30.972zm-33.109 59.624h30.972v30h-30.972zm-32.973-48.634h30.973v30h-30.973zm-33.109 59.625h30.973v30h-30.973z"/><path d="m395.221 216.815c-4.202-14.719-17.96-24.654-33.267-24.654h-19.31c-16.56 0-31.168 10.185-37.215 25.946-16.904 44.056-59.698 73.378-106.814 73.382-.529 0-1.052-.004-1.582-.011-62.543-.87-113.102-52.485-112.703-115.06.192-30.235 12.07-58.666 33.447-80.061.006-.006.013-.013.02-.019.006-.006.012-.013.018-.019l-59.63-59.629c-37.337 37.337-59.881 89.467-58.085 146.844 3.367 107.608 90.918 192.295 198.579 192.283 36.176-.004 70.093-9.678 99.307-26.578l-.001 125.906h99.328v-243.316c-.001-5.208-.73-10.244-2.092-15.014z"/></g></svg>