<svg id="Capa_1" enable-background="new 0 0 510 510" height="512" viewBox="0 0 510 510" width="512" xmlns="http://www.w3.org/2000/svg"><g><path d="m158.41 275.524c-11.716-11.716-30.711-11.716-42.427 0-5.671 5.67-8.588 13.046-8.77 20.477l68.393 68.393-21.213 21.213-109.393-109.394c0-21.421 0-82.2 0-103.713 0-12.427-10.073-22.5-22.5-22.5s-22.5 10.073-22.5 22.5v104.467c0 19.891 7.901 38.968 21.967 53.033l76.066 76.066c14.066 14.066 21.967 33.142 21.967 53.034v50.9h120v-128.861c0-15.383-6.11-30.135-16.988-41.012z"/><path d="m487.5 150c-12.427 0-22.5 10.073-22.5 22.5v103.713l-109.394 109.393-21.213-21.213 68.393-68.393c-.182-7.431-3.099-14.807-8.77-20.477-11.716-11.716-30.711-11.716-42.427 0l-64.603 64.603c-10.876 10.878-16.986 25.63-16.986 41.013v128.861h120v-50.9c0-19.892 7.901-38.968 21.967-53.033l76.066-76.067c14.066-14.065 21.967-33.142 21.967-53.033 0-21.936 0-82.421 0-104.467 0-12.427-10.073-22.5-22.5-22.5z"/><path d="m382.5 127.5c0-70.304-57.196-127.5-127.5-127.5s-127.5 57.196-127.5 127.5 57.196 127.5 127.5 127.5 127.5-57.196 127.5-127.5zm-75 15h-37.5v37.5h-30v-37.5h-37.5v-30h37.5v-37.5h30v37.5h37.5z"/></g></svg>