<svg id="Capa_1" enable-background="new 0 0 512 512" height="512" viewBox="0 0 512 512" width="512" xmlns="http://www.w3.org/2000/svg"><g id="XMLID_483_"><circle id="XMLID_484_" cx="253.358" cy="295.627" r="44.414"/><path id="XMLID_493_" d="m253.358 399.807c57.445 0 104.18-46.734 104.18-104.18s-46.735-104.18-104.18-104.18-104.18 46.734-104.18 104.18 46.735 104.18 104.18 104.18zm0-178.594c41.032 0 74.414 33.382 74.414 74.414s-33.382 74.414-74.414 74.414-74.414-33.382-74.414-74.414 33.382-74.414 74.414-74.414z"/><path id="XMLID_519_" d="m34.49 0h235.969v73.525h-235.969z"/><path id="XMLID_520_" d="m300.459 0h72.525v73.525h-72.525z"/><path id="XMLID_523_" d="m34.49 103.525v408.475h443.02v-408.475zm218.868 57.922c68.916 0 125.854 52.227 133.337 119.18h28.77v30h-28.77c-7.482 66.952-64.42 119.18-133.337 119.18-73.987 0-134.18-60.192-134.18-134.18s60.193-134.18 134.18-134.18zm-151.383-21.347h32.203v30h-32.203z"/><path id="XMLID_527_" d="m402.984 0h74.525v73.525h-74.525z"/></g></svg>