<svg id="Capa_1" enable-background="new 0 0 512 512" height="512" viewBox="0 0 512 512" width="512" xmlns="http://www.w3.org/2000/svg"><g><path d="m361 246.585v-111.043c-19.365-7.441-36.021-16.553-50.962-24.741-48.691-26.572-59.385-26.587-108.076.015-14.941 8.174-31.597 17.285-50.962 24.727v111.043c0 73.791 42.726 138.067 105.059 168.721 63.969-31.422 104.941-96.915 104.941-168.722zm-165 24.595c0-29.121 40.679-75.938 48.838-85.02l11.162-12.436 11.162 12.437c8.159 9.082 48.838 55.898 48.838 85.02 0 33.091-26.909 60-60 60s-60-26.91-60-60.001z"/><path d="m226 271.18c0 16.538 13.462 30 30 30s30-13.462 30-30c0-9.287-14.062-31.787-30-51.768-15.908 19.878-30 42.202-30 51.768z"/><path d="m255.985 512 4.746-1.582c113.804-37.837 190.269-143.862 190.269-263.833v-186.585h-15c-31.26 0-56.309-13.682-82.808-28.169-28.637-15.644-58.256-31.831-97.192-31.831s-68.555 16.187-97.192 31.831c-26.499 14.487-51.548 28.169-82.808 28.169h-15v186.585c0 119.527 76.037 225.522 190.239 263.818zm-134.985-265.415v-132.386c11.175-4.62 16.785-2.504 66.577-29.707 24.068-13.154 44.854-24.492 68.423-24.492s44.355 11.338 68.423 24.478c49.309 26.984 56.027 25.36 66.577 29.722v132.386c0 85.884-50.566 163.989-128.818 198.984l-6.123 2.739-6.123-2.739c-75.223-33.678-128.936-109.563-128.936-198.985z"/></g></svg>