<svg id="Capa_1" enable-background="new 0 0 512 512" height="512" viewBox="0 0 512 512" width="512" xmlns="http://www.w3.org/2000/svg"><g><path d="m119.604 163.254 63.387 135.938 54.459-25.4c-5.797-12.023-6.843-14.407-13.103-26.982l27.532-12.832-12.686-27.188-28.557 13.31c-4.285-8.146-9.022-16.959-14.279-26.44l30.165-14.072-12.684-27.188-32.384 15.106c-5.001-8.516-10.278-17.142-15.698-25.776l21.817-10.175-12.686-27.188-25.754 12.01c-5.865-8.589-11.819-16.871-17.864-24.769l17.353-8.101-12.686-27.187-24.337 11.36c-24.783-27.211-49.294-43.25-68.989-34.036-19.722 9.201-23.198 38.28-18.292 74.733l-24.318 11.342 12.686 27.188 17.316-8.075c2.164 9.706 4.684 19.592 7.495 29.604l-25.734 12.001 12.686 27.188 21.788-10.161c3.133 9.703 6.35 19.294 9.662 28.599l-32.373 15.092 12.686 27.188 30.145-14.052c3.887 10.12 7.595 19.411 11.082 27.929l-28.555 13.31 12.686 27.188 27.519-12.827c5.748 13.195 6.965 15.656 12.252 27.387l54.465-25.404-63.389-135.934z"/><path d="m487.552 207.624 12.686-27.188-25.734-12.001c2.811-10.012 5.33-19.898 7.495-29.604l17.316 8.075 12.685-27.187-24.32-11.342c4.905-36.453 1.43-65.532-18.292-74.733-19.752-9.232-44.279 6.795-69.062 34.001l-24.263-11.325-12.686 27.187 17.281 8.066c-6.042 7.899-11.995 16.183-17.858 24.774l-25.688-11.981-12.686 27.188 21.762 10.15c-5.416 8.635-10.692 17.263-15.687 25.781l-32.34-15.086-12.686 27.188 30.134 14.057c-5.251 9.485-9.983 18.3-14.264 26.448l-28.541-13.303-12.686 27.188 27.528 12.83c-6.214 12.494-7.316 14.988-13.099 26.984l54.456 25.399 63.391-135.936 27.188 12.686-63.389 135.932 54.468 25.406c5.297-11.754 6.502-14.186 12.252-27.387l27.519 12.827 12.686-27.188-28.555-13.31c3.486-8.518 7.194-17.809 11.082-27.929l30.145 14.052 12.686-27.188-32.373-15.092c3.312-9.305 6.53-18.896 9.662-28.599z"/><path d="m266.312 305.095-10.312-9.785-10.312 9.785c-10.811 10.239-64.688 63.208-64.688 100.884 0 41.353 33.647 75 75 75s75-33.647 75-75c0-37.676-53.877-90.645-64.688-100.884z"/></g></svg>