<svg id="Capa_1" enable-background="new 0 0 512 512" height="512" viewBox="0 0 512 512" width="512" xmlns="http://www.w3.org/2000/svg"><g><path d="m66.589 220.476v-175.303c0-10.437-8.49-18.927-18.927-18.927s-18.928 8.49-18.928 18.927v138.441c9.168 1.85 17.594 6.293 24.439 13.001 6.766 6.631 11.345 14.866 13.416 23.861z"/><path d="m415.68 266.723h96.32v88.036h-96.32z"/><path d="m264.493 103.064c-3.661-3.588-8.53-5.536-13.644-5.404-10.095.202-18.315 8.786-18.513 19.213l-.019 119.823h-30l.019-191.522c0-10.437-8.49-18.927-18.927-18.927s-18.928 8.49-18.928 18.927v194.092h-.038-29.962-.038v-214.495c0-10.437-8.491-18.928-18.928-18.928s-18.928 8.491-18.928 18.928v214.494h-28.733v91.922h-30v-99.628c0-5.128-2.018-9.929-5.68-13.52-3.661-3.588-8.533-5.516-13.643-5.404-10.218.205-18.531 8.994-18.531 19.594v100.148c0 74.451 60.57 135.053 135.021 135.092h.072c36.074 0 69.983-14.041 95.5-39.545 12.393-12.388 22.074-26.762 28.766-42.4v-148.801h10.819l-.006-120.139c.001-5.128-2.017-9.929-5.679-13.52z"/><path d="m289.359 266.723h96.32v88.036h-96.32z"/><path d="m289.359 404.275c0 29.599 30.767 58.153 56.576 76.896 14.207 10.317 28.549 18.848 39.744 24.986v-121.398h-96.32z"/><path d="m415.68 506.157c11.195-6.138 25.537-14.669 39.744-24.986 25.809-18.743 56.576-47.297 56.576-76.896v-19.516h-96.32z"/></g></svg>