<?xml version="1.0" encoding="iso-8859-1"?>
<!-- Generator: Adobe Illustrator 19.0.0, SVG Export Plug-In . SVG Version: 6.00 Build 0)  -->
<svg xmlns="http://www.w3.org/2000/svg" xmlns:xlink="http://www.w3.org/1999/xlink" version="1.1" id="Layer_1" x="0px" y="0px" viewBox="0 0 512 512" style="enable-background:new 0 0 512 512;" xml:space="preserve">
<g>
	<g>
		<path d="M74.352,243.74V512h363.294V243.74H74.352z M407.645,460.343H104.354V295.409h303.291V460.343z"/>
	</g>
</g>
<g>
	<g>
		<path d="M421.851,0H90.149C69.916,0,53.456,16.46,53.456,36.692v177.046h405.087V36.692C458.543,16.46,442.084,0,421.851,0z     M125.971,182.416H95.969V31.322h30.001V182.416z M198.485,182.416h-30.001V31.322h30.001V182.416z M271.001,182.416h-30.001    V31.322h30.001V182.416z M343.515,182.416h-30.001V31.322h30.001V182.416z M416.03,182.416h-30.001V31.322h30.001V182.416z"/>
	</g>
</g>
<g>
	<g>
		<rect x="138.997" y="337.856" width="234.011" height="30.001"/>
	</g>
</g>
<g>
	<g>
		<rect x="138.997" y="387.898" width="234.011" height="30.001"/>
	</g>
</g>
<g>
</g>
<g>
</g>
<g>
</g>
<g>
</g>
<g>
</g>
<g>
</g>
<g>
</g>
<g>
</g>
<g>
</g>
<g>
</g>
<g>
</g>
<g>
</g>
<g>
</g>
<g>
</g>
<g>
</g>
</svg>
