<svg id="Capa_1" enable-background="new 0 0 512 512" height="512" viewBox="0 0 512 512" width="512" xmlns="http://www.w3.org/2000/svg"><g><path d="m256 0c-141.38 0-256 114.62-256 256s114.62 256 256 256 256-114.62 256-256-114.62-256-256-256zm57.69 91.68c11.55 18.76 49.49 31.69 78.03 32.9l-1.27 29.97c-30.26-1.28-82.47-14.9-102.31-47.15zm-115.38 0 25.55 15.72c-19.84 32.25-72.05 45.87-102.31 47.15l-1.27-29.97c28.54-1.21 66.48-14.14 78.03-32.9zm-98.81 100.02h30c0 15.95 12.97 28.92 28.91 28.92 15.95 0 28.92-12.97 28.92-28.92h30c0 32.49-26.43 58.92-58.92 58.92-32.48 0-58.91-26.43-58.91-58.92zm236.96 182.14c-13.7-32.39-45.29-53.33-80.46-53.33h-.09c-35.29.04-66.88 21.09-80.51 53.66l-27.67-11.58c18.3-43.76 60.76-72.04 108.18-72.08h.09c47.25 0 89.68 28.12 108.09 71.65zm17.13-123.22c-32.49 0-58.92-26.43-58.92-58.92h30c0 15.95 12.97 28.92 28.92 28.92 15.94 0 28.91-12.97 28.91-28.92h30c0 32.49-26.43 58.92-58.91 58.92z"/></g></svg>