<svg id="Capa_1" enable-background="new 0 0 510 510" height="512" viewBox="0 0 510 510" width="512" xmlns="http://www.w3.org/2000/svg"><g><path d="m248.787 390 60-60-15-15h-150l-143.787-143.787v107.574l111.213 111.213z"/><path d="m0 321.213v167.574l83.787-83.787z"/><path d="m330 351.213-68.787 68.787h-150l-90 90h257.574l105-105z"/><path d="m321.213 510h188.787v-90h-98.787z"/><path d="m210 75h90v-45h30v-30h-150v30h30z"/><path d="m351.213 330 60 60h98.787v-218.787c-5.441 5.441-153.345 153.345-158.787 158.787z"/><path d="m306.213 285 23.787 23.787c9.608-9.608 149.801-149.801 158.787-158.787h-98.787-17.109l6 30h-108.891v45h-30v-45h-108.892l6-30h-115.895l135 135z"/><path d="m270 150h72.297l-9-45h-156.594l-9 45h72.297v30h30z"/></g></svg>