<svg id="Capa_1" enable-background="new 0 0 512 512" height="512" viewBox="0 0 512 512" width="512" xmlns="http://www.w3.org/2000/svg"><g><path d="m476.398 102.328h-440.796c-19.631 0-35.602 15.971-35.602 35.602v236.14c0 19.631 15.971 35.602 35.602 35.602h440.797c19.631 0 35.602-15.971 35.602-35.602v-236.14c-.001-19.631-15.972-35.602-35.603-35.602zm-356.46 195.84c0 18.631-15.103 33.734-33.734 33.734s-33.734-15.103-33.734-33.734v-84.336c0-18.631 15.103-33.734 33.734-33.734s33.734 15.103 33.734 33.734zm136.062-8.434c-18.631 0-33.734-15.103-33.734-33.734s15.103-33.734 33.734-33.734 33.734 15.103 33.734 33.734-15.103 33.734-33.734 33.734zm203.531 8.434c0 18.631-15.104 33.734-33.735 33.734s-33.734-15.103-33.734-33.734v-84.336c0-18.631 15.103-33.734 33.734-33.734s33.735 15.103 33.735 33.734z"/></g></svg>