<svg id="Capa_1" enable-background="new 0 0 512 512" height="512" viewBox="0 0 512 512" width="512" xmlns="http://www.w3.org/2000/svg"><g><path d="m394.506 300.31-16.176-10.785c-10.852-7.233-17.33-19.338-17.33-32.38v-1.145c0-28.06-10.923-54.428-30.75-74.243-20.577-20.589-49.12-31.781-78.268-30.682-27.345 1.022-52.847 12.635-71.809 32.697-18.813 19.904-29.173 45.961-29.173 73.373 0 13.042-6.479 25.146-17.331 32.381l-16.174 10.784c-35.376 23.583-56.495 63.045-56.495 105.561 0 58.1 46.753 105.707 104.22 106.126.265.002.525.003.79.003 27.905-.002 54.148-10.808 73.965-30.48 6.235-6.189 11.598-13.021 16.025-20.346 4.428 7.324 9.79 14.156 16.025 20.346 19.818 19.673 46.058 30.48 73.965 30.48.263 0 .526-.001.79-.003 57.467-.419 104.22-48.026 104.22-106.126 0-42.516-21.119-81.978-56.494-105.561z"/><path d="m126 205v-30c0-24.813-20.187-45-45-45s-45 20.187-45 45v30c0 24.813 20.187 45 45 45s45-20.187 45-45z"/><path d="m431 130c-24.813 0-45 20.187-45 45v30c0 24.813 20.187 45 45 45s45-20.187 45-45v-30c0-24.813-20.187-45-45-45z"/><path d="m186 120c24.813 0 45-20.187 45-45v-30c0-24.813-20.187-45-45-45s-45 20.187-45 45v30c0 24.813 20.187 45 45 45z"/><path d="m326 120c24.813 0 45-20.187 45-45v-30c0-24.813-20.187-45-45-45s-45 20.187-45 45v30c0 24.813 20.187 45 45 45z"/></g></svg>