<svg id="Capa_1" enable-background="new 0 0 510 510" height="512" viewBox="0 0 510 510" width="512" xmlns="http://www.w3.org/2000/svg"><g id="XMLID_1014_"><path id="XMLID_1016_" d="m240 414.728c-88.027 0-159.644-71.615-159.644-159.643 0-88.027 71.616-159.643 159.644-159.643 66.815 0 124.164 41.265 147.929 99.643h84.471c-45.656-177.08-269.359-242.453-402.105-109.706-45.33 45.331-70.295 105.6-70.295 169.706 0 64.107 24.965 124.375 70.295 169.705 130.275 130.276 355.516 70.991 402.105-109.705h-84.472c-23.764 58.378-81.113 99.643-147.928 99.643z"/><path id="XMLID_1020_" d="m489.5 225.085c-10.655 0-78.55 0-92.697 0 1.857 9.721 2.84 19.747 2.84 30s-.983 20.279-2.84 30h92.697c11.322 0 20.5-9.178 20.5-20.5v-19c0-11.321-9.178-20.5-20.5-20.5z"/><path id="XMLID_1021_" d="m240 290.443c17.358 0 31.481-14.122 31.481-31.482 0-10.116-14.828-34.055-31.478-55.321-16.65 21.282-31.484 45.23-31.484 55.321.001 17.359 14.122 31.482 31.481 31.482z"/><path id="XMLID_1039_" d="m240 125.443c-71.485 0-129.644 58.157-129.644 129.643 0 71.485 58.158 129.643 129.644 129.643s129.643-58.157 129.643-129.643-58.158-129.643-129.643-129.643zm15 193.141v36.143h-30v-36.143c-26.674-6.714-46.48-30.895-46.48-59.623 0-30.693 41.509-78.782 61.48-101.675 19.957 22.876 61.481 70.943 61.481 101.675 0 28.729-19.808 52.909-46.481 59.623z"/></g></svg>