<svg id="Capa_1" enable-background="new 0 0 510 510" height="512" viewBox="0 0 510 510" width="512" xmlns="http://www.w3.org/2000/svg"><g id="XMLID_1361_"><path id="XMLID_1399_" d="m420 0v45c-23.225 0-255.84 0-270 0v68.027c-62.796 7.707-112.652 60.664-119.253 126.973h270.173c-6.659-66.894-57.342-120.194-120.92-127.16v-37.84h240v105h90v-180c-11.008 0-80.336 0-90 0z"/><path id="XMLID_1459_" d="m30 360h30v30h-30z"/><path id="XMLID_1461_" d="m90 360h30v30h-30z"/><path id="XMLID_1463_" d="m210 360h30v30h-30z"/><path id="XMLID_1465_" d="m270 360h30v30h-30z"/><path id="XMLID_1467_" d="m30 420h30v30h-30z"/><path id="XMLID_1469_" d="m90 420h30v30h-30z"/><path id="XMLID_1471_" d="m210 420h30v30h-30z"/><path id="XMLID_1473_" d="m270 420h30v30h-30z"/><path id="XMLID_1475_" d="m30 480h30v30h-30z"/><path id="XMLID_1477_" d="m90 480h30v30h-30z"/><path id="XMLID_1479_" d="m150 360v30h30v-30c-10.492 0-19.508 0-30 0z"/><path id="XMLID_1481_" d="m150 420v30h30v-30c-10.492 0-19.508 0-30 0z"/><path id="XMLID_1483_" d="m150 480v30h30v-30c-10.492 0-19.508 0-30 0z"/><path id="XMLID_1484_" d="m210 480h30v30h-30z"/><path id="XMLID_1485_" d="m270 480h30v30h-30z"/><path id="XMLID_1486_" d="m0 270v60h330v-60c-18.326 0-311.674 0-330 0z"/></g></svg>