<?xml version="1.0" encoding="iso-8859-1"?>
<!-- Generator: Adobe Illustrator 19.0.0, SVG Export Plug-In . SVG Version: 6.00 Build 0)  -->
<svg xmlns="http://www.w3.org/2000/svg" xmlns:xlink="http://www.w3.org/1999/xlink" version="1.1" id="Layer_1" x="0px" y="0px" viewBox="0 0 512 512" style="enable-background:new 0 0 512 512;" xml:space="preserve">
<g>
	<g>
		<polygon points="145.801,0 145.728,58.483 161.403,58.504 177.068,58.525 243.896,58.609 243.865,89.939 177.027,89.855     161.362,89.834 145.686,89.814 145.655,114.356 161.33,114.377 176.995,114.387 204.89,114.429 204.848,145.759 176.954,145.717     161.288,145.707 145.623,145.686 145.582,178.938 161.247,178.948 176.912,178.969 243.75,179.053 243.708,210.383     176.87,210.299 161.215,210.279 145.54,210.268 145.508,237.066 161.174,237.087 176.839,237.097 204.733,237.139     204.702,268.469 176.797,268.428 161.132,268.417 145.467,268.396 145.425,299.382 161.1,299.392 176.766,299.413     243.604,299.497 243.562,330.827 176.724,330.744 161.059,330.723 145.394,330.712 145.352,359.776 161.017,359.797     176.692,359.808 204.587,359.85 204.545,391.18 176.651,391.138 160.986,391.128 145.31,391.107 145.279,419.826 160.944,419.847     176.609,419.868 243.447,419.952 243.405,451.282 176.578,451.198 160.902,451.177 145.237,451.157 145.164,511.728 366.199,512     366.836,0.272   "/>
	</g>
</g>
<g>
</g>
<g>
</g>
<g>
</g>
<g>
</g>
<g>
</g>
<g>
</g>
<g>
</g>
<g>
</g>
<g>
</g>
<g>
</g>
<g>
</g>
<g>
</g>
<g>
</g>
<g>
</g>
<g>
</g>
</svg>
