<svg id="Capa_1" enable-background="new 0 0 512 512" height="512" viewBox="0 0 512 512" width="512" xmlns="http://www.w3.org/2000/svg"><g><path d="m377.063 256c0-66.754-54.309-121.063-121.063-121.063s-121.062 54.309-121.062 121.063 54.308 121.063 121.062 121.063 121.063-54.309 121.063-121.063zm-46.66 42.957-74.403 42.957-74.403-42.957v-85.914l74.403-42.957 74.403 42.957z"/><path d="m478.266 222.266c-13.241 0-24.694 7.633-30.216 18.734h-41.731c.489 4.935.744 9.938.744 15s-.255 10.065-.744 15h41.731c5.522 11.102 16.975 18.734 30.216 18.734 18.63 0 33.734-15.103 33.734-33.734s-15.104-33.734-33.734-33.734z"/><path d="m211.597 230.363v51.274l44.403 25.636 44.403-25.636v-51.274l-44.403-25.636z"/><path d="m63.95 271h41.731c-.489-4.935-.744-9.938-.744-15s.255-10.065.744-15h-41.731c-5.522-11.102-16.975-18.734-30.216-18.734-18.631 0-33.734 15.103-33.734 33.734s15.103 33.734 33.734 33.734c13.242 0 24.694-7.632 30.216-18.734z"/><path d="m125.608 332.194-33.797 24.555c-10.993-5.736-24.745-5.179-35.457 2.604-15.073 10.951-18.414 32.048-7.463 47.12 10.951 15.073 32.048 18.414 47.12 7.463 10.712-7.783 15.491-20.689 13.433-32.917l33.827-24.577c-6.651-7.459-12.577-15.578-17.663-24.248z"/><path d="m386.392 179.806 33.797-24.555c10.993 5.736 24.745 5.179 35.457-2.604 15.073-10.951 18.414-32.047 7.463-47.12s-32.048-18.414-47.12-7.463c-10.712 7.783-15.491 20.689-13.433 32.917l-33.827 24.577c6.651 7.459 12.577 15.578 17.663 24.248z"/><path d="m195.288 394.31-12.901 39.705c-12.265 1.821-23.063 10.355-27.154 22.948-5.757 17.719 3.939 36.75 21.659 42.508s36.75-3.94 42.508-21.659c4.092-12.593.372-25.844-8.48-34.526l12.895-39.686c-9.905-2.158-19.448-5.289-28.527-9.29z"/><path d="m316.712 117.69 12.901-39.705c12.265-1.821 23.063-10.355 27.154-22.948 5.757-17.719-3.939-36.751-21.659-42.508-17.719-5.757-36.75 3.94-42.508 21.659-4.092 12.593-.372 25.844 8.48 34.526l-12.895 39.686c9.905 2.158 19.448 5.289 28.527 9.29z"/><path d="m329.613 434.015-12.901-39.705c-9.079 4.001-18.622 7.132-28.526 9.289l12.895 39.686c-8.852 8.683-12.572 21.933-8.48 34.526 5.757 17.719 24.789 27.416 42.508 21.659s27.416-24.789 21.659-42.508c-4.092-12.592-14.89-21.126-27.155-22.947z"/><path d="m182.387 77.985 12.901 39.705c9.079-4.001 18.622-7.132 28.526-9.289l-12.895-39.686c8.852-8.683 12.572-21.933 8.48-34.526-5.757-17.719-24.789-27.416-42.508-21.659s-27.416 24.789-21.659 42.508c4.092 12.592 14.89 21.126 27.155 22.947z"/><path d="m455.645 359.353c-10.712-7.783-24.464-8.34-35.457-2.604l-33.796-24.555c-5.086 8.67-11.011 16.79-17.664 24.248l33.827 24.577c-2.058 12.227 2.721 25.134 13.433 32.917 15.073 10.951 36.169 7.61 47.12-7.463s7.61-36.169-7.463-47.12z"/><path d="m56.355 152.647c10.712 7.783 24.464 8.34 35.457 2.604l33.797 24.555c5.086-8.67 11.011-16.79 17.664-24.248l-33.827-24.577c2.058-12.227-2.721-25.134-13.433-32.917-15.073-10.951-36.169-7.61-47.12 7.463-10.952 15.073-7.611 36.169 7.462 47.12z"/></g></svg>