<svg id="Capa_1" enable-background="new 0 0 512 512" height="512" viewBox="0 0 512 512" width="512" xmlns="http://www.w3.org/2000/svg"><g><path d="m225.125 415.75c-6.183-12.29-11.574-27.523-13.284-44.531-13.958-12.581-30.753-19.411-43.526-22.802 5.568 21.627 20.337 54.864 56.81 67.333z"/><path d="m271 361c0-19.277-7.998-35.435-15-45.879-7.002 10.444-15 26.602-15 45.879s7.881 36.958 15 49.014c7.119-12.056 15-29.737 15-49.014z"/><path d="m343.715 348.3c-13.017 3.345-30.112 10.036-43.53 22.597-1.67 17.137-7.086 32.487-13.308 44.852 36.537-12.492 51.292-45.828 56.838-67.449z"/><path d="m0 256c0 140.61 115.39 256 256 256s256-115.39 256-256v-45h-512zm150.78 58.96c1.67.095 33.968 2.435 63.723 20.647 8.421-32.926 30.082-54.069 31.229-55.144l10.268-9.639 10.269 9.639c1.146 1.075 22.817 22.227 31.234 55.164 29.797-18.234 62.047-20.572 63.717-20.667l16.772-.952-.952 16.772c-2.358 41.587-30.688 120.22-121.04 120.22s-118.682-78.633-121.04-120.22l-.952-16.772z"/><path d="m8.765 50.973c-11.676 11.706-11.717 30.646.059 42.422 11.338 11.309 30.996 11.338 42.393-.029l62.88 87.634h161.23l-181.689-130.056c11.754-11.754 11.656-30.782.015-42.393-11.294-11.352-31.025-11.44-42.437-.029z"/></g></svg>