<svg id="Capa_1" enable-background="new 0 0 512 512" height="512" viewBox="0 0 512 512" width="512" xmlns="http://www.w3.org/2000/svg"><g><g><path d="m52.985 439.48h406.03v72.52h-406.03z"/></g><g><path d="m452.955 175.79h-393.9c10.93-26.26 35.53-44.56 64.13-44.56h38.5v-37.22h188.63v37.22h38.5c28.6 0 53.2 18.3 64.14 44.56z"/></g><path d="m459.005 205.79h-406.01c-.01.19-.01.38-.01.59v203.1h406.03v-203.1c0-.2 0-.39-.01-.59zm-103.84 96.09c0 34.65-28.18 62.84-62.83 62.84h-72.66c-34.65 0-62.83-28.19-62.83-62.84v-51.33h51.32c19.14 0 36.31 8.6 47.84 22.15 11.53-13.55 28.7-22.15 47.84-22.15h51.32z"/><path d="m241.005 313.39v21.33h-21.33c-18.1 0-32.83-14.73-32.83-32.84v-21.33h21.32c18.11 0 32.84 14.73 32.84 32.84z"/><path d="m325.165 280.55v21.33c0 18.11-14.73 32.84-32.83 32.84h-21.33v-21.33c0-18.11 14.73-32.84 32.84-32.84z"/><path d="m111.375 0h289.25v64.01h-289.25z"/></g></svg>