<svg id="Capa_1" enable-background="new 0 0 512 512" height="512" viewBox="0 0 512 512" width="512" xmlns="http://www.w3.org/2000/svg"><g><path d="m225.23 203.999 82.771 82.771c14.395-13.04 30.189-24.452 47.093-34.016 13.193-7.476 27.003-13.788 41.265-18.877l-118.253-118.253c-11.639 32.605-29.584 62.659-52.876 88.375z"/><path d="m203.999 225.23c-14.394 13.039-30.189 24.452-47.093 34.015-13.193 7.476-27.003 13.788-41.265 18.878l118.253 118.253c11.639-32.606 29.584-62.659 52.876-88.375z"/><path d="m219.738 424.681-132.42-132.42-33.044 33.044-28.308-28.308-21.23 21.231 28.308 28.308-33.044 33.044 132.419 132.42 33.044-33.044 28.308 28.308 21.231-21.231-28.308-28.308zm-109.869-1.319-21.231-21.231 21.231-21.231 21.231 21.231z"/><path d="m478.956 165.463 33.044-33.044-132.42-132.419-33.044 33.044-28.307-28.308-21.231 21.231 28.308 28.308-33.044 33.044 132.42 132.42 33.044-33.044 28.308 28.308 21.231-21.231zm-76.825-34.363-21.231-21.231 21.231-21.231 21.231 21.231z"/></g></svg>