<svg id="Capa_1" enable-background="new 0 0 512 512" height="512" viewBox="0 0 512 512" width="512" xmlns="http://www.w3.org/2000/svg"><g><g><path d="m123.795 54.854h75.703v-54.854h-134.108v286.427c17.469-9.77 37.299-15.796 58.405-16.982z"/><path d="m335.567 281.741-34.679 70.465-35.979-98.242-26.312 45.224h-22.074c30.994 24.928 50.87 63.145 50.87 105.923 0 4.737-.245 9.417-.721 14.03h130.395v-137.4z"/><path d="m487.386 0h-134.108v54.854h73.709v394.207h-166.893c-8.595 25.079-24.33 46.874-44.772 62.938h272.064z"/><path d="m221.388 269.268 49.704-85.426 33.837 92.392 12.015-24.413h80.122v-167.046h-43.788v29.948h-153.78v-29.948h-45.782v184.493z"/><path d="m238.392 405.111c0-58.939-47.95-106.889-106.889-106.889s-106.89 47.95-106.89 106.889c.001 58.939 47.951 106.889 106.89 106.889s106.889-47.95 106.889-106.889zm-59.64 14.96h-32.289v32.289h-29.921v-32.289h-32.288v-29.921h32.289v-32.288h29.921v32.288h32.289v29.921z"/></g><path d="m229.419 0h93.938v84.802h-93.938z"/></g></svg>