<svg id="Capa_1" enable-background="new 0 0 512 512" height="512" viewBox="0 0 512 512" width="512" xmlns="http://www.w3.org/2000/svg"><g><path d="m301 465.787v-190.125c56.03-18.843 96.5-71.863 96.5-134.162 0-78.023-63.477-141.5-141.5-141.5s-141.5 63.477-141.5 141.5c0 62.299 40.47 115.319 96.5 134.162v130.338h-68v30h68v76h30v-229.795c4.93.522 9.934.795 15 .795s10.07-.273 15-.795v229.795h26.213l66.893-66.894-21.213-21.213zm-156.5-324.287c0-61.481 50.019-111.5 111.5-111.5s111.5 50.019 111.5 111.5-50.019 111.5-111.5 111.5-111.5-50.019-111.5-111.5z"/></g></svg>