<?xml version="1.0" encoding="iso-8859-1"?>
<!-- Generator: Adobe Illustrator 19.0.0, SVG Export Plug-In . SVG Version: 6.00 Build 0)  -->
<svg xmlns="http://www.w3.org/2000/svg" xmlns:xlink="http://www.w3.org/1999/xlink" version="1.1" id="Layer_1" x="0px" y="0px" viewBox="0 0 512 512" style="enable-background:new 0 0 512 512;" xml:space="preserve">
<g>
	<g>
		<path d="M477.201,226.676c-20.049-18.577-47.122-31.141-76.23-35.378c-42.294-6.156-52.091-42.777-57.356-62.451    c-0.641-2.396-1.194-4.464-1.763-6.281c-10.896-34.785-33.063-66.006-62.417-87.914C249.058,11.982,212.915,0,174.911,0    C78.465,0,0,78.465,0,174.911v195.66v30.417V512h512V400.989v-30.417V304.36C512,274.633,499.966,247.77,477.201,226.676z     M174.911,30.417c31.396,0,61.248,9.894,86.33,28.612c24.266,18.11,42.584,43.904,51.582,72.63l-29.026,9.093    c-7.1-22.668-21.573-43.033-40.75-57.346c-19.785-14.767-43.347-22.572-68.136-22.572V30.417z M481.585,481.583h-0.002H30.417    v-80.594h17.741v66.917h30.417v-66.917h17.741v66.917h30.417v-66.917h17.741v66.917h30.417v-66.917h17.741v66.917h30.417v-66.917    h17.741v66.917h30.417v-66.917h17.741v66.917h30.417v-66.917h17.741v66.917h30.417v-66.917h17.741v66.917h30.417v-66.917h17.741    v66.917h30.417v-66.917h17.741V481.583z"/>
	</g>
</g>
<g>
</g>
<g>
</g>
<g>
</g>
<g>
</g>
<g>
</g>
<g>
</g>
<g>
</g>
<g>
</g>
<g>
</g>
<g>
</g>
<g>
</g>
<g>
</g>
<g>
</g>
<g>
</g>
<g>
</g>
</svg>
