<svg id="Capa_1" enable-background="new 0 0 511.953 511.953" height="512" viewBox="0 0 511.953 511.953" width="512" xmlns="http://www.w3.org/2000/svg"><g><circle cx="255.977" cy="292.036" r="22.083"/><path d="m403.299 179.953 2.486-30h31.192v-30h-76v-100.631l-55.032-19.322-9.937 28.307 34.969 12.277v79.369h-60v-60h-30v60h-60v-49.369l34.968-12.277-9.937-28.307-55.031 19.322v70.631h-76v30h31.191l2.486 30z"/><path d="m111.14 209.953 25.028 302h239.617l25.028-302zm144.837 30c28.719 0 52.083 23.364 52.083 52.083 0 23.505-15.655 43.414-37.083 49.872v22.211h30v30h-30v30h-30v-30h-30v-30h30v-22.211c-21.428-6.457-37.083-26.367-37.083-49.872 0-28.719 23.364-52.083 52.083-52.083z"/></g></svg>