<svg id="Capa_1" enable-background="new 0 0 512 512" height="512" viewBox="0 0 512 512" width="512" xmlns="http://www.w3.org/2000/svg"><g><path d="m133.036 319.788h88.352v30h-88.352z" transform="matrix(.707 -.707 .707 .707 -184.827 223.365)"/><path d="m294.08 160.607h84.627v30h-84.627z" transform="matrix(.707 -.707 .707 .707 -25.645 289.302)"/><path d="m162.212 132.748h30v88.352h-30z" transform="matrix(.707 -.707 .707 .707 -73.2 177.128)"/><path d="m321.394 293.791h30v84.627h-30z" transform="matrix(.707 -.707 .707 .707 -139.135 336.309)"/><path d="m63.835 241h177.164v30h-177.164z"/><path d="m0 241h31.826v30h-31.826z"/><path d="m32 211h31.826v30h-31.826z"/><path d="m32 271h31.826v30h-31.826z"/><path d="m271 241h177.164v30h-177.164z"/><path d="m480.174 241h31.826v30h-31.826z"/><path d="m448.174 211h31.826v30h-31.826z"/><path d="m448.174 271h31.826v30h-31.826z"/><path d="m241 271h30v177.164h-30z"/><path d="m241 480.174h30v31.826h-30z"/><path d="m211 448.174h30v31.826h-30z"/><path d="m271 448.174h30v31.826h-30z"/><path d="m241 63.836h30v177.164h-30z"/><path d="m241 0h30v31.826h-30z"/><path d="m211 32h30v31.826h-30z"/><path d="m271 32h30v31.826h-30z"/><path d="m51.5 144.811 34.719-18.237 39.19 1.441 1.567-39.186 20.843-33.22-33.153-20.948-18.348-34.661-34.718 18.236-39.191-1.44-1.566 39.185-20.843 33.22 33.153 20.948z"/><path d="m460.5 367.19-34.719 18.237-39.19-1.443-1.567 39.187-20.843 33.22 33.153 20.949 18.347 34.66 34.719-18.236 39.191 1.442 1.566-39.186 20.843-33.22-33.153-20.949z"/><path d="m383.985 125.408 39.186 1.567 33.219 20.842 20.949-33.151 34.661-18.348-18.236-34.718 1.44-39.191-39.185-1.566-33.219-20.843-20.95 33.152-34.66 18.348 18.236 34.719z"/><path d="m128.015 386.592-39.186-1.567-33.22-20.842-20.949 33.152-34.66 18.348 18.236 34.717-1.44 39.191 39.185 1.566 33.22 20.843 20.948-33.152 34.661-18.346-18.236-34.72z"/></g></svg>