<svg id="Capa_1" enable-background="new 0 0 512.02 512.02" height="512" viewBox="0 0 512.02 512.02" width="512" xmlns="http://www.w3.org/2000/svg"><g><path d="m492.646 257.954c-21.99-21.99-55.809-25.12-81.169-9.391l-63.319-63.318 56.043-56.043c24.955 16.022 60.465 12.067 81.184-9.398 25.507-24.481 25.512-68.518-.001-92.999-24.482-25.507-68.518-25.512-92.999.001-21.981 21.99-25.111 55.804-9.377 81.164l-56.063 56.063-63.309-63.309c16.019-24.954 12.061-60.469-9.401-81.179-64.222-59.129-152.117 28.774-92.989 92.99 21.833 21.816 55.483 25.258 81.163 9.387l13.759 13.759-47.143 47.143c13.646 13.65 43.585 43.6 57.6 57.61l-21.21 21.21c-14.169-14.174-43.819-43.812-57.61-57.6l-33.47 33.47c13.646 13.649 43.585 43.6 57.6 57.61l-21.21 21.21c-14.169-14.174-43.819-43.812-57.61-57.6l-33.47 33.47c13.646 13.649 43.585 43.599 57.6 57.61l-21.21 21.21c-14.165-14.173-43.82-43.805-57.6-57.6l-54.69 54.69 49.559 49.559-73.134 73.134 21.213 21.213 73.135-73.135 49.559 49.559s232.432-232.422 232.433-232.423l13.746 13.745c-27.216 43.779 4.85 100.609 55.892 100.407 57.747.393 87.899-71.015 46.498-112.219zm-79.04-209.93c13.303-13.88 37.258-13.882 50.56 0 22.408 22.301 6.313 61.169-25.28 61.039-31.594.127-47.689-38.739-25.28-61.039zm-231.15 43.3c-22.505-22.413-6.126-61.241 25.291-61.02 9.149 0 18.31 3.48 25.279 10.45 32.151 34.932-15.646 82.718-50.57 50.57zm288.98 238.41c-34.935 32.151-82.717-15.648-50.57-50.57 6.97-6.97 16.13-10.45 25.28-10.45 31.417-.22 47.796 38.611 25.29 61.02z"/></g></svg>