<svg id="Capa_1" enable-background="new 0 0 512 512" height="512" viewBox="0 0 512 512" width="512" xmlns="http://www.w3.org/2000/svg"><g id="_Joke_1_"><path d="m211 285c0 8.276 6.724 15 15 15s15-6.724 15-15v-15h-30z"/><path d="m376 390h-118.011c.014-.002.026-.01.041-.01 106.588-1.093 192.97-88.148 192.97-194.99 0-107.52-87.48-195-195-195s-195 87.48-195 195c0 107.009 86.652 194.169 193.47 194.994.006 0 .013.005.02.006h-118.49c-57.891 0-105 47.109-105 105v17h450v-17c0-57.891-47.109-105-105-105zm-57.48-278.32 24.961 16.641-14.459 21.679h31.978v30h-88.022zm-167.52 38.32h31.978l-14.458-21.68 24.961-16.641 45.541 68.321h-88.022zm75 180c-24.814 0-45-20.186-45-45v-15h-30v-30h210v30h-90v15c0 24.814-20.186 45-45 45z"/></g></svg>