<svg id="Capa_1" enable-background="new 0 0 512 512" height="512" viewBox="0 0 512 512" width="512" xmlns="http://www.w3.org/2000/svg"><g><path d="m61 449.473h390v62.527h-390z"/><path d="m192.104 31.187 7.793 28.975 14.55-3.904 7.653 28.952-28.854 7.778 54.258 202.646 144.727-38.701-54.229-202.968-28.828 7.771-7.787-28.907 14.35-3.884-7.852-28.945c-3.049.821-118.831 32.007-115.781 31.187z"/><path d="m291.83 346.055 87.275-23.379-7.84-29.076-87.103 23.288z"/><path d="m121.928 419.473h149.072v-30h120v-30c-7.949 0-191.054 0-180 0-33.076 0-60-26.909-60-60 0-29.894 22.037-54.531 50.667-59.055l-23.337-87.122c-67.005 14.987-117.33 74.72-117.33 146.177 0 49.239 24.172 92.633 60.928 120z"/></g></svg>