<svg id="Capa_1" enable-background="new 0 0 512 512" height="512" viewBox="0 0 512 512" width="512" xmlns="http://www.w3.org/2000/svg"><g><path d="m451.704 44.749v51.477h-30v-51.477h-30.248v51.477h-30v-51.477h-30.248v51.477h-30v-51.477h-30.248v51.477h-30v-51.477h-30.249v51.477h-30v-51.477h-30.248v51.477h-30v-51.477h-30.248v51.477h-30v-51.477h-60.215v88.218h512v-88.218z"/><path d="m0 512h512v-349.033h-512zm135.601-175.482h36.435c-.197-2.354-.298-4.723-.298-7.102 0-19.711 12.449-44.394 38.057-75.457 17.726-21.501 46.205-48.239 46.205-48.239s28.479 26.738 46.205 48.239c25.608 31.063 38.057 55.746 38.057 75.457 0 2.38-.101 4.748-.298 7.102h36.435v15c0 66.388-54.011 120.398-120.398 120.398-66.388 0-120.399-54.011-120.399-120.398v-15z"/><path d="m241 296.247v-1.285h30v1.285c0 21.714 17.277 39.459 38.806 40.233.302-2.33.456-4.688.456-7.064 0-19.172-29.044-56.332-54.262-82.129-25.215 25.795-54.262 62.957-54.262 82.129 0 2.376.158 4.733.46 7.064 21.527-.776 38.802-18.52 38.802-40.233z"/><path d="m256 441.916c44.737 0 81.989-32.665 89.154-75.398h-33.884c-22.405 0-42.394-10.538-55.27-26.921-12.876 16.383-32.865 26.921-55.27 26.921h-33.885c7.166 42.733 44.417 75.398 89.155 75.398zm-15.809-59.385h31.617v30h-31.617z"/><path d="m421.704 0h30v44.749h-30z"/><path d="m361.456 0h30v44.749h-30z"/><path d="m301.208 0h30v44.749h-30z"/><path d="m240.96 0h30v44.749h-30z"/><path d="m180.711 0h30v44.749h-30z"/><path d="m120.463 0h30v44.749h-30z"/><path d="m60.215 0h30v44.749h-30z"/></g></svg>