<?xml version="1.0" encoding="iso-8859-1"?>
<!-- Generator: Adobe Illustrator 19.0.0, SVG Export Plug-In . SVG Version: 6.00 Build 0)  -->
<svg xmlns="http://www.w3.org/2000/svg" xmlns:xlink="http://www.w3.org/1999/xlink" version="1.1" id="Layer_1" x="0px" y="0px" viewBox="0 0 511.999 511.999" style="enable-background:new 0 0 511.999 511.999;" xml:space="preserve">
<g>
	<g>
		<path d="M390.163,325.342c78.741-78.741,81.923-204.851,9.575-287.439c2.104,0.774,4.368,1.218,6.742,1.218    c10.803,0,19.56-8.757,19.56-19.56c0-10.803-8.757-19.56-19.56-19.56c-10.803,0-19.56,8.757-19.56,19.56    c0,1.982,0.301,3.893,0.849,5.696l-9.073-9.073l-34.994,34.994C280.201-0.78,186.118,2.851,126.894,62.073    C96.33,92.637,79.498,133.273,79.498,176.497c0,37.771,12.855,73.565,36.493,102.39l-34.986,34.986l5.791,5.791    c-2.161-0.823-4.497-1.293-6.947-1.293c-10.803,0-19.56,8.757-19.56,19.56c0,10.803,8.757,19.56,19.56,19.56    c10.803,0,19.56-8.757,19.56-19.56c0-2.579-0.511-5.035-1.419-7.29c40.287,37.494,91.803,56.255,143.328,56.255    c2.143,0,4.287-0.044,6.429-0.109v41.955h-64.876v83.258h162.19v-83.258h-64.876v-45.447    C320.503,375.779,359.035,356.469,390.163,325.342z M127.397,313.355l11.539-11.539c29.675,24.281,66.027,36.425,102.382,36.425    c41.438,0,82.877-15.774,114.423-47.321c30.564-30.564,47.396-71.2,47.396-114.423c0-37.771-12.855-73.565-36.493-102.39    l11.532-11.532c58.262,69.883,54.609,174.268-10.951,239.829C301.664,367.965,197.278,371.616,127.397,313.355z"/>
	</g>
</g>
<g>
</g>
<g>
</g>
<g>
</g>
<g>
</g>
<g>
</g>
<g>
</g>
<g>
</g>
<g>
</g>
<g>
</g>
<g>
</g>
<g>
</g>
<g>
</g>
<g>
</g>
<g>
</g>
<g>
</g>
</svg>
