<svg id="Capa_1" enable-background="new 0 0 512 512" height="512" viewBox="0 0 512 512" width="512" xmlns="http://www.w3.org/2000/svg"><path d="m386.463 436.75c21.487-7.645 36.875-28.153 36.875-52.263v-38.21h-38.21c-30.633 0-55.467 24.833-55.467 55.467v35.006h-48.161v45.25h-121.048c-24.951 0-45.25-20.299-45.25-45.25s20.299-45.25 45.25-45.25c19.695 0 36.492 12.649 42.694 30.25h-42.111v30h74.667v-15c0-41.493-33.757-75.25-75.25-75.25-3.644 0-7.223.275-10.73.778.503-3.507.778-7.087.778-10.731 0-41.493-33.757-75.25-75.25-75.25h-15v74.667h30v-42.111c17.601 6.202 30.25 22.999 30.25 42.694 0 24.951-20.299 45.25-45.25 45.25s-45.25-20.299-45.25-45.25v-121.047h45.25v-48.162h30.057c30.633 0 55.467-24.833 55.467-55.467v-38.21h-38.21c-20.022 0-37.562 10.611-47.314 26.514v-115.175h-75.25v351.547c0 41.493 33.757 75.25 75.25 75.25 3.644 0 7.223-.275 10.73-.778-.503 3.507-.778 7.087-.778 10.731 0 41.493 33.757 75.25 75.25 75.25h351.548v-75.25z"/></svg>