<svg id="Capa_1" enable-background="new 0 0 512 512" height="512" viewBox="0 0 512 512" width="512" xmlns="http://www.w3.org/2000/svg"><g><path d="m216.8 124.643v277.22h-30c0-51.5-41.9-93.39-93.4-93.39-123.901 5.12-123.879 181.682.001 186.8-.001 0 418.599 0 418.599 0v-370.63h-295.2zm100.2 284.17h-30v-30h30zm0-60h-30v-30h30zm0-60h-30v-30h30zm0-60h-30v-30h30zm60 180h-30v-30h30zm0-60h-30v-30h30zm0-60h-30v-30h30zm0-60h-30v-30h30zm60 180h-30v-30h30zm0-60h-30v-30h30zm0-60h-30v-30h30zm0-60h-30v-30h30z"/><path d="m21.17 301.873c50.133-37.723 126.119-28.214 165.63 19.43v-211.67c0-5.1-.41-10.11-1.21-14.99-21.33-112.04-182.147-99.929-185.59 15.001 0-.001 0 211.659 0 211.659 6.27-7.26 13.38-13.79 21.17-19.43z"/></g></svg>