<svg id="Capa_1" enable-background="new 0 0 512 512" height="512" viewBox="0 0 512 512" width="512" xmlns="http://www.w3.org/2000/svg"><g><path d="m256 272c-24.814 0-45 20.186-45 45v90c0 12.422-5.112 24.331-14.092 32.695-8.584 7.94-19.555 12.305-30.908 12.305-16.538 0-30 13.462-30 30s13.462 30 30 30h75v-60h30v60h75c16.538 0 30-13.462 30-30s-13.462-30-30-30c-11.338 0-22.31-4.351-30.923-12.305-8.95-8.349-14.077-20.273-14.077-32.695v-90c0-24.814-20.186-45-45-45z"/><path d="m421 75c0-41.353-33.647-75-75-75h-255v122h330z"/><path d="m421 152h-330v135c0 54.957 27.405 105.033 71.484 135.355 13.572-.796 18.516-7.355 18.516-15.355v-90c0-41.353 33.647-75 75-75s75 33.647 75 75v90c0 7.89 4.783 14.55 18.516 15.355 44.079-30.322 71.484-80.398 71.484-135.355zm-210 60h-60v-30h60zm150 0h-60v-30h60z"/></g></svg>