<svg id="Capa_1" enable-background="new 0 0 512 512" height="512" viewBox="0 0 512 512" width="512" xmlns="http://www.w3.org/2000/svg"><g><path d="m343.391 316.552c3.63-3.485 7.248-6.699 10.881-10.332 24.942-24.942 37.204-61.911 30.233-96.787-8.266-40.044-41.587-73.428-81.776-81.714-34.803-6.961-72.007 5.067-96.949 30.009-3.633 3.633-6.847 7.251-10.332 10.881l52.759 52.759-21.213 21.213-51.983-51.983c-21.604 24.403-68.999 77.453-84.665 100.614l44.009 44.009-21.213 21.213-39.415-39.415c-58.672 96.062-70.266 170.783-70.899 175.166l-2.828 19.815 19.815-2.828c2.975-.43 38.538-6.017 90.995-27.791l-40.096-40.096 21.213-21.213 48.239 48.239c44.571-21.472 126.623-82.972 181.237-131.322l-51.983-51.983 21.213-21.213z"/><path d="m499.34 86.851c5.894-20.561.3-43.141-15.257-58.699-15.475-15.475-37.9-21.099-58.388-15.361-23.502-18.51-57.808-16.935-79.498 4.754-9.778 9.778-16.713 23.467-18.111 36.922-13.455 1.398-26.144 7.333-35.922 17.111-7.033 7.033-11.752 15.409-14.6 24.246 10.291-.316 20.693.407 31.048 2.478 20.799 4.288 40.074 13.78 56.82 27.287l43.404-43.404 21.213 21.213-43.4 43.4c13.504 16.728 22.988 35.946 27.242 56.575 2.088 10.45 2.821 20.94 2.499 31.304 8.844-2.847 17.228-7.569 24.266-14.607 9.778-9.778 15.713-22.467 17.111-35.922 13.455-1.398 27.144-8.333 36.922-18.111 21.162-21.161 23.171-54.327 4.651-79.186z"/></g></svg>