<svg id="Capa_1" enable-background="new 0 0 512 512" height="512" viewBox="0 0 512 512" width="512" xmlns="http://www.w3.org/2000/svg"><g><g><path d="m181.78 162h30c0-8.662 2.595-12.266 6.893-18.236 5.295-7.354 12.547-17.428 12.547-35.767s-7.252-28.411-12.547-35.766c-4.298-5.971-6.893-9.574-6.893-18.236 0-8.66 2.595-12.264 6.893-18.232 5.295-7.355 12.547-17.426 12.547-35.763h-30c0 8.66-2.594 12.263-6.893 18.231-5.295 7.354-12.548 17.426-12.548 35.764 0 18.339 7.252 28.411 12.547 35.766 4.298 5.971 6.893 9.574 6.893 18.236 0 8.663-2.595 12.267-6.894 18.237-5.293 7.355-12.545 17.427-12.545 35.766z"/><path d="m280.78 162h30c0-8.662 2.595-12.266 6.893-18.236 5.295-7.354 12.547-17.428 12.547-35.767s-7.252-28.411-12.547-35.766c-4.298-5.971-6.893-9.574-6.893-18.236 0-8.66 2.595-12.264 6.893-18.232 5.295-7.355 12.547-17.426 12.547-35.763h-30c0 8.66-2.594 12.263-6.893 18.231-5.295 7.354-12.548 17.426-12.548 35.764 0 18.339 7.252 28.411 12.547 35.766 4.298 5.971 6.893 9.574 6.893 18.236 0 8.663-2.595 12.267-6.894 18.237-5.293 7.355-12.545 17.427-12.545 35.766z"/></g><path d="m512 267.045h-43.103c-2.119 44.997-39.384 80.955-84.897 80.955s-82.778-35.958-84.897-80.955h-299.103v119.955h512z"/><path d="m422 512h90v-90h-512v90h90v-60h332z"/><path d="m328 263c0 30.879 25.122 56 56 56s56-25.121 56-56c0-25.32-16.895-46.756-40-53.659v-29.81-67.531h-30v67.173 29.599c-24.126 6.232-42 28.182-42 54.228z"/></g></svg>