<svg id="Capa_1" enable-background="new 0 0 511.494 511.494" height="512" viewBox="0 0 511.494 511.494" width="512" xmlns="http://www.w3.org/2000/svg"><g id="XMLID_978_"><path id="XMLID_992_" d="m298.287 413.088.699-96.549 73.992-118.755v-197.784h-366v511.494h366v-141.472zm-212.832 17.204v-31h30v31zm182.744-175.447-.16.173-35.825 37.875-21.795-20.615 35.734-37.779c5.812-6.392 7.951-15.181 5.724-23.531-2.104-7.888-7.674-14.105-15.283-17.061s-15.917-2.127-22.792 2.274l-23.824 15.249-23.824-15.249c-6.875-4.401-15.183-5.229-22.792-2.274s-13.18 9.173-15.283 17.06c-2.237 8.386-.071 17.211 5.793 23.608l46.035 50.224c16.167 17.638 25.07 40.527 25.07 64.454 0 20.217 16.447 36.664 36.664 36.664h21.669v30h-21.669c-36.759 0-66.664-29.905-66.664-66.664 0-16.401-6.103-32.093-17.186-44.183l-46.035-50.224c-12.819-13.986-17.554-33.279-12.665-51.61 4.598-17.241 16.775-30.835 33.409-37.294 16.633-6.46 34.795-4.647 49.824 4.972l7.651 4.897 7.651-4.897c15.03-9.619 33.19-11.433 49.825-4.972 16.634 6.459 28.812 20.053 33.409 37.294 4.892 18.329.158 37.622-12.661 51.609zm-182.744-156.861v-31h30v31zm221.856 48.264h-30v-31h30z"/><path id="XMLID_998_" d="m503.918 101.324c-1.218-4.617-4.161-8.484-8.287-10.888-8.515-4.961-19.484-2.069-24.447 6.448l-.229.382-8.254 13.247 29.769 19.779 9.704-15.575c2.326-4.088 2.946-8.837 1.744-13.393z"/><path id="XMLID_999_" d="m446.829 135.985-117.906 189.236-.257 35.722 31.361-18.083 116.571-187.095z"/></g></svg>