<svg id="Capa_1" enable-background="new 0 0 510 510" height="512" viewBox="0 0 510 510" width="512" xmlns="http://www.w3.org/2000/svg"><g><path d="m445.807 85.844 16.112-15.979 21.038 21.038 21.213-21.213-63.64-63.64-21.213 21.213 21.389 21.389-16.086 15.952c-46.754-41.76-106.428-64.604-169.62-64.604-140.931 0-255 114.05-255 255 0 63.036 22.733 122.57 64.295 169.272l-58.465 58.465 21.213 21.213 58.452-58.452c46.737 41.694 106.364 64.502 169.505 64.502 140.932 0 255-114.05 255-255 0-62.984-22.696-122.472-64.193-169.156zm-339.055 338.397 26.356-26.356 21.214 21.214 29.339-29.341 51.855-17.523-98.353-98.354-17.188 52.284-29.293 29.293 21.213 21.214-26.348 26.348c-35.921-41.004-55.547-93-55.547-148.02 0-55.071 19.664-107.114 55.65-148.137l105.447 105.447 21.242-21.184-105.476-105.476c41.023-35.986 93.066-55.65 148.137-55.65 55.134 0 107.231 19.709 148.274 55.772l-47.383 46.991-42.455-42.456-53.106 52.96 53.091 53.092-21.213 21.213-53.12-53.121-26.749 26.675 106.066 106.066 101.097-100.819-42.397-42.396 47.36-46.969c73.926 84.539 73.885 211.63-.122 296.123l-105.938-105.939-21.242 21.184 105.968 105.968c-84.577 74.082-211.84 74.048-296.379-.103z"/><path d="m260.573 354.864 36.59-36.488-106.066-106.066-36.589 36.488z"/></g></svg>