<svg id="Capa_1" enable-background="new 0 0 512 512" height="512" viewBox="0 0 512 512" width="512" xmlns="http://www.w3.org/2000/svg"><g><path d="m256 90c-66.167 0-120 53.833-120 120s53.833 120 120 120 120-53.833 120-120-53.833-120-120-120zm54.99 195.688-54.99-28.549-54.99 28.55 10.166-61.128-44.15-43.477 61.274-9.214 27.7-55.415 27.7 55.415 61.274 9.214-44.15 43.477z"/><path d="m263.837 199.204-7.837-15.659-7.837 15.659-17.329 2.622 12.48 12.305-2.871 17.27 15.557-8.071 15.557 8.071-2.871-17.27 12.48-12.305z"/><path d="m256 0c-115.796 0-210 94.204-210 210 0 116.254 95.572 210 210 210 113.059 0 210-92.47 210-210 0-115.796-94.204-210-210-210zm0 360c-82.705 0-150-67.295-150-150s67.295-150 150-150 150 67.295 150 150-67.295 150-150 150z"/><path d="m219.408 447.07c-42.485-6.552-80.688-23.69-116.364-53.088l-37.621 47.427 77.021 19.263 41.076 51.328 36.044-64.917c-.055-.009-.101-.004-.156-.013z"/><path d="m408.944 393.97c-35.391 29.24-73.499 46.49-116.382 53.101-.044.007-.084.004-.128.011l36.046 64.918 41.074-51.328 77.021-19.263z"/></g></svg>