<svg id="Capa_1" enable-background="new 0 0 512 512" height="512" viewBox="0 0 512 512" width="512" xmlns="http://www.w3.org/2000/svg"><g><path d="m46 436c0 41.353 33.647 76 75 76h180c36.216 0 66.513-26.809 73.482-61h31.518c33.091 0 60-26.909 60-60v-105c0-24.814-20.186-45-45-45h-45v-60h-330zm375-165c8.276 0 15 6.724 15 15v105c0 16.538-13.462 30-30 30h-30v-150zm-210-30c57.891 0 105 47.109 105 105s-47.109 105-105 105-105-47.109-105-105 47.109-105 105-105z"/><path d="m211 421c41.353 0 75-33.647 75-75s-33.647-75-75-75-75 33.647-75 75 33.647 75 75 75zm-15-75c0 8.276 6.724 15 15 15s15-6.724 15-15.01h30c0 24.824-20.186 45.01-45 45.01s-45-20.186-45-45z"/><path d="m212.582 68.291c-7.778 15.542-16.582 34.164-16.582 67.709v15h30v-15c0-26.455 6.211-38.892 13.418-53.291 7.778-15.542 16.582-34.164 16.582-67.709v-15h-30v15c0 26.455-6.211 38.892-13.418 53.291z"/><path d="m302.582 68.291c-7.778 15.542-16.582 34.164-16.582 67.709v15h30v-15c0-26.455 6.211-38.892 13.418-53.291 7.778-15.542 16.582-34.164 16.582-67.709v-15h-30v15c0 26.455-6.211 38.892-13.418 53.291z"/><path d="m122.582 68.291c-7.778 15.542-16.582 34.164-16.582 67.709v15h30v-15c0-26.455 6.211-38.892 13.418-53.291 7.778-15.542 16.582-34.164 16.582-67.709v-15h-30v15c0 26.455-6.211 38.892-13.418 53.291z"/></g></svg>