<svg id="Capa_1" enable-background="new 0 0 512 512" height="512" viewBox="0 0 512 512" width="512" xmlns="http://www.w3.org/2000/svg"><g><g><path d="m249.937 326.337h-151.533v34h182.763z"/><path d="m241.526 0h-143.122v130.668h143.122zm-73.119 65.002v28.771h-30v-58.771h62.003v30z"/><path d="m290.671 326.337 57.736 62.858 65.189-34.469v-28.389z"/><path d="m308.722 390.337h-210.318v121.663h315.192v-124.16l-72.597 37.637z"/><path d="m241.526 160.668h-143.122v135.668h143.122zm-73.119 66.561v28.771h-30v-58.771h62.003v30z"/></g><path d="m413.596 0h-143.122v130.668h143.122zm-73.119 65.002v28.771h-30v-58.771h62.003v30z"/><path d="m413.596 160.668h-143.122v135.668h143.122zm-73.119 66.561v28.771h-30v-58.771h62.003v30z"/></g></svg>