<svg id="Capa_1" enable-background="new 0 0 512 512" height="512" viewBox="0 0 512 512" width="512" xmlns="http://www.w3.org/2000/svg"><g><path d="m376 390h-118.342c.005 0 .01-.007.015-.007 106.753-.902 193.327-88.032 193.327-194.993 0-107.52-87.48-195-195-195s-195 87.48-195 195c0 106.881 86.445 193.96 193.087 194.991.008 0 .015.009.023.009h-118.11c-57.891 0-105 47.109-105 105v17h450v-17c0-57.891-47.109-105-105-105zm-87.422-246.211 21.211-21.211 21.211 21.211 21.211-21.211 21.211 21.211-21.211 21.211 21.211 21.211-21.211 21.211-21.211-21.211-21.211 21.211-21.211-21.211 21.211-21.211zm-150 42.422 21.211-21.211-21.211-21.211 21.211-21.211 21.211 21.211 21.211-21.211 21.211 21.211-21.211 21.211 21.211 21.211-21.211 21.211-21.211-21.211-21.211 21.211zm42.422 113.789v-30h150v30z"/></g></svg>