<svg id="Capa_1" enable-background="new 0 0 510.008 510.008" height="512" viewBox="0 0 510.008 510.008" width="512" xmlns="http://www.w3.org/2000/svg"><g><path d="m66.693 128.573c-4.237-6.86-6.689-14.934-6.689-23.573 0-24.813 20.187-45 45-45s45 20.187 45 45c0 8.639-2.452 16.713-6.689 23.573 18.789 8.876 34.024 24.072 42.968 42.822 14.817-18.105 23.721-41.229 23.721-66.395 0-57.897-47.103-105-105-105s-105 47.103-105 105c0 25.166 8.903 48.29 23.721 66.395 8.944-18.75 24.179-33.946 42.968-42.822z"/><circle cx="105.004" cy="105" r="15"/><path d="m105.004 450c-27.115 0-50.076 18.085-57.482 42.822 16.526 10.854 36.277 17.178 57.482 17.178s40.956-6.324 57.482-17.178c-7.406-24.737-30.367-42.822-57.482-42.822z"/><circle cx="105.004" cy="405" r="15"/><path d="m366.693 128.573c-4.237-6.86-6.689-14.934-6.689-23.573 0-24.813 20.186-45 45-45 24.813 0 45 20.187 45 45 0 8.639-2.452 16.713-6.689 23.573 18.789 8.876 34.024 24.072 42.968 42.822 14.817-18.105 23.721-41.229 23.721-66.395 0-57.897-47.103-105-105-105-57.898 0-105 47.103-105 105 0 25.166 8.903 48.29 23.721 66.395 8.944-18.75 24.179-33.946 42.968-42.822z"/><circle cx="405.004" cy="105" r="15"/><path d="m420.004 301.075c0-31.336 0-58.423 0-92.154 15.504-2.229 29.926-7.852 42.482-16.099-7.406-24.737-30.367-42.822-57.482-42.822s-50.076 18.085-57.482 42.822c12.556 8.246 26.978 13.869 42.482 16.099v31.079h-270v-31.079c15.504-2.229 29.926-7.852 42.482-16.099-7.406-24.737-30.367-42.822-57.482-42.822s-50.076 18.085-57.482 42.822c12.556 8.246 26.978 13.869 42.482 16.099v92.154c-50.816 7.302-90 51.119-90 103.925 0 25.166 8.903 48.291 23.721 66.397 8.944-18.751 24.179-33.947 42.968-42.823-4.237-6.86-6.689-14.935-6.689-23.573 0-24.815 20.187-45 45-45s45 20.185 45 45c0 8.639-2.452 16.713-6.689 23.573 18.789 8.876 34.024 24.072 42.968 42.823 14.817-18.106 23.721-41.231 23.721-66.397 0-52.806-39.184-96.623-90-103.925v-31.075h270v31.075c-50.817 7.302-90 51.119-90 103.925 0 25.166 8.903 48.291 23.721 66.397 8.943-18.751 24.179-33.947 42.968-42.823-4.237-6.86-6.689-14.935-6.689-23.573 0-24.815 20.186-45 45-45 24.813 0 45 20.185 45 45 0 8.639-2.452 16.713-6.689 23.573 18.79 8.876 34.025 24.072 42.968 42.823 14.817-18.106 23.721-41.231 23.721-66.397 0-52.806-39.183-96.623-90-103.925z"/><path d="m405.004 450c-27.115 0-50.076 18.085-57.482 42.823 34.864 22.895 80.046 22.931 114.964 0-7.406-24.738-30.367-42.823-57.482-42.823z"/><circle cx="405.004" cy="405" r="15"/></g></svg>