<?xml version="1.0" encoding="iso-8859-1"?>
<!-- Generator: Adobe Illustrator 19.0.0, SVG Export Plug-In . SVG Version: 6.00 Build 0)  -->
<svg xmlns="http://www.w3.org/2000/svg" xmlns:xlink="http://www.w3.org/1999/xlink" version="1.1" id="Capa_1" x="0px" y="0px" viewBox="0 0 512 512" style="enable-background:new 0 0 512 512;" xml:space="preserve">
<g>
	<g>
		<polygon points="83.018,101.983 0,101.983 0,131.983 83.018,131.983 70.099,116.983   "/>
	</g>
</g>
<g>
	<g>
		<path d="M442.519,35.487l-57.269,66.496h47.029v30H385.25l57.269,66.496C481.897,192.22,512,158.123,512,116.983    C512,75.844,481.897,41.745,442.519,35.487z"/>
	</g>
</g>
<g>
	<g>
		<polygon points="345.657,131.983 280.26,131.983 338.423,199.517 403.82,199.517   "/>
	</g>
</g>
<g>
	<g>
		<polygon points="268.373,34.449 210.211,101.983 345.657,101.983 403.82,34.449   "/>
	</g>
</g>
<g>
	<g>
		<polygon points="141.181,34.449 83.018,101.983 170.619,101.983 228.781,34.449   "/>
	</g>
</g>
<g>
	<g>
		<polygon points="240.667,131.983 83.018,131.983 141.181,199.517 298.83,199.517   "/>
	</g>
</g>
<g>
	<g>
		<path d="M443.358,357.642c2.339,2.022,3.73,3.3,4.087,3.631l12.271,11.389l-12.271,11.389c-0.357,0.331-1.748,1.609-4.087,3.629    H512v-30.038H443.358z"/>
	</g>
</g>
<g>
	<g>
		<path d="M165.909,387.681l-57.056,66.248c40.482,16.516,74.702,21.991,98.877,23.307l5.789,0.315l41.036-31.836l18.835,26.977    l10.236-2.374c81.625-18.932,143.524-68.643,159.732-82.637H165.909z"/>
	</g>
</g>
<g>
	<g>
		<path d="M0,387.681c8.255,7.104,28.525,23.586,57.343,40.591c7.841,4.627,15.538,8.831,23.069,12.652l45.855-53.243H0z"/>
	</g>
</g>
<g>
	<g>
		<path d="M80.427,304.418c-8.406,4.256-16.142,8.537-23.084,12.634C28.525,334.058,8.255,350.538,0,357.644h126.267L80.427,304.418    z"/>
	</g>
</g>
<g>
	<g>
		<path d="M283.626,275.007l-10.236-2.374l-18.835,26.977l-41.036-31.836l-5.789,0.315c-36.294,1.976-70.105,11.573-98.863,23.323    l57.042,66.232h277.449C427.151,343.65,365.251,293.939,283.626,275.007z"/>
	</g>
</g>
<g>
</g>
<g>
</g>
<g>
</g>
<g>
</g>
<g>
</g>
<g>
</g>
<g>
</g>
<g>
</g>
<g>
</g>
<g>
</g>
<g>
</g>
<g>
</g>
<g>
</g>
<g>
</g>
<g>
</g>
</svg>
