<svg id="Capa_1" enable-background="new 0 0 512 512" height="512" viewBox="0 0 512 512" width="512" xmlns="http://www.w3.org/2000/svg"><g><g><path d="m512 91v-91h-91v31h-120v-31h-90v31h-120v-31h-91v91h31.531c.101 30.564.103 73.733.057 120h-31.588v90h31.43l-.304 120h-31.126v91h91v-31h120v31h90v-31h120v31h91v-91h-31v-120h31v-90h-31v-120zm-61 120h-30v90h30v120h-30v30h-120v-30h-90v30h-120v-30h-29.874l.304-120h29.57v-90h-29.412c.046-46.249.044-89.412-.057-120h29.469v-30h120v30h90v-30h120v30h30z"/></g><g><path d="m271 211h-30v30h-30v30h30v30h30v-30h30v-30h-30z"/></g></g></svg>