<svg id="Layer_1" enable-background="new 0 0 512 512" height="512" viewBox="0 0 512 512" width="512" xmlns="http://www.w3.org/2000/svg"><g><path d="m295.477 157.809h193.429v27.855h-193.429z"/><path d="m23.094 157.809h193.429v27.855h-193.429z"/><path d="m256 290.653c12.402 0 22.492-10.09 22.492-22.491-1.131-29.798-43.858-29.79-44.984 0 0 12.401 10.09 22.491 22.492 22.491z"/><path d="m124.877 273.161c-7.68 0-13.927 6.248-13.927 13.928v33.57h27.855v-33.57c0-7.68-6.248-13.928-13.928-13.928z"/><path d="m9.167 127.809h13.927v30h-13.927z"/><path d="m387.123 273.161c-7.68 0-13.928 6.248-13.928 13.928v33.57h27.855v-33.57c0-7.68-6.247-13.928-13.927-13.928z"/><path d="m77.571 69.931h30v57.878h24.476v-57.878h30v57.878h54.476v-97.808h13.928v-30h-221.284v30h13.927v97.808h54.477z"/><path d="m241 157.809v27.855h30v-27.855h24.476v-30h-24.476v-36.141h-30v36.141h-24.476v30z"/><path d="m23.094 320.659h57.856v-33.57c0-24.222 19.706-43.928 43.927-43.928s43.928 19.706 43.928 43.928v33.57h174.391v-33.57c0-24.222 19.706-43.928 43.928-43.928s43.927 19.706 43.927 43.928v33.57h57.855v-104.995h-465.812zm232.906-104.989c28.944 0 52.492 23.548 52.492 52.492-2.639 69.541-102.356 69.522-104.984-.001 0-28.943 23.548-52.491 52.492-52.491z"/><path d="m9.167 185.664h13.865v30h-13.865z"/><path d="m502.833 30.001v-30h-221.284v30h13.928v97.808h54.476v-57.878h30v57.878h24.476v-57.878h30v57.878h54.477v-97.808z"/><path d="m9.167 320.659h13.865v30h-13.865z"/><path d="m488.907 127.809h13.927v30h-13.927z"/><path d="m488.968 320.659h13.865v30h-13.865z"/><path d="m488.968 185.664h13.865v30h-13.865z"/><path d="m488.906 481.999v-131.34h-465.812v131.34h-23.094v30h512v-30zm-111.235-83.664 9.454-6.305c26.769 15.647 43.71 38.966 43.925 70.723v19.246h-30c.105-20.59 1.889-36.964-13.927-52.823-15.83 15.881-14.028 32.242-13.928 52.823h-30v-19.246c0-25.945 12.888-50.026 34.476-64.418zm-132.444-22.799 10.773-5.387 10.772 5.386c26.399 13.199 42.798 39.733 42.798 69.247v37.217h-30v-37.217c0-17.071-8.957-32.514-23.57-40.988-14.613 8.474-23.57 23.917-23.57 40.988v37.217h-30v-37.217c0-29.513 16.399-56.048 42.797-69.246zm-164.277 87.217c.222-31.776 17.157-55.068 43.925-70.723 26.772 15.642 43.715 38.971 43.929 70.723v19.246h-30c.105-20.59 1.889-36.964-13.927-52.823-15.83 15.883-14.028 32.241-13.928 52.823h-30v-19.246z"/></g></svg>