<svg id="Capa_1" enable-background="new 0 0 512 512" height="512" viewBox="0 0 512 512" width="512" xmlns="http://www.w3.org/2000/svg"><g><path d="m437.02 74.98c-48.353-48.351-112.64-74.98-181.02-74.98s-132.667 26.629-181.02 74.98c-48.351 48.353-74.98 112.64-74.98 181.02s26.629 132.667 74.98 181.02c48.353 48.351 112.64 74.98 181.02 74.98s132.667-26.629 181.02-74.98c48.351-48.353 74.98-112.64 74.98-181.02s-26.629-132.667-74.98-181.02zm-130.07 66.374h30v61.998h-30zm-131.9 0h30v61.998h-30zm233.883 215.214c0 23.064-18.764 41.828-41.828 41.828-23.063 0-41.827-18.764-41.827-41.828v-33.375h-29.174v31.95h-30v-31.95h-30.004v31.95h-30v-31.95h-30.004v31.95h-30v-31.95h-30.002v-61.949h30v31.949h30.004v-31.949h30v31.949h30.004v-31.949h30v31.949h30.004v-31.949h30v31.949h82.827z"/><path d="m355.277 356.568c0 6.522 5.306 11.828 11.827 11.828 6.522 0 11.828-5.306 11.828-11.828v-33.375h-23.655z"/></g></svg>