<?xml version="1.0" encoding="iso-8859-1"?>
<!-- Generator: Adobe Illustrator 19.0.0, SVG Export Plug-In . SVG Version: 6.00 Build 0)  -->
<svg version="1.1" id="Layer_1" xmlns="http://www.w3.org/2000/svg" xmlns:xlink="http://www.w3.org/1999/xlink" x="0px" y="0px"
	 viewBox="0 0 512 512" style="enable-background:new 0 0 512 512;" xml:space="preserve">
<g>
	<g>
		<path d="M436.706,135.529l-45.176-90.353H271.059l-45.176,90.353H105.412V90.353H60.235v45.176H0v331.294h512V135.529H436.706z
			 M90.353,391.529c-16.607,0-30.118-13.511-30.118-30.118s13.511-30.118,30.118-30.118s30.118,13.511,30.118,30.118
			S106.96,391.529,90.353,391.529z M150.588,256H60.235v-45.176h90.353V256z M331.294,391.529
			c-54.058,0-97.882-43.824-97.882-97.882c0-54.06,43.824-97.882,97.882-97.882s97.882,43.823,97.882,97.882
			C429.176,347.705,385.352,391.529,331.294,391.529z"/>
	</g>
</g>
<g>
</g>
<g>
</g>
<g>
</g>
<g>
</g>
<g>
</g>
<g>
</g>
<g>
</g>
<g>
</g>
<g>
</g>
<g>
</g>
<g>
</g>
<g>
</g>
<g>
</g>
<g>
</g>
<g>
</g>
</svg>
