<svg id="Capa_1" enable-background="new 0 0 512 512" height="512" viewBox="0 0 512 512" width="512" xmlns="http://www.w3.org/2000/svg"><g><path d="m301.333 340.333c0-24.997-20.336-45.333-45.333-45.333s-45.333 20.336-45.333 45.333v16.98c13.849 6.221 29.193 9.687 45.333 9.687s31.484-3.466 45.333-9.687z"/><circle cx="256" cy="235" r="30"/><path d="m256 145c-61.206 0-111 49.794-111 111 0 32.189 13.777 61.216 35.738 81.509.922-24.84 13.911-46.648 33.281-59.697-11.109-10.895-18.019-26.059-18.019-42.812 0-33.084 26.916-60 60-60s60 26.916 60 60c0 16.753-6.91 31.917-18.019 42.813 19.371 13.049 32.36 34.856 33.281 59.697 21.961-20.294 35.738-49.321 35.738-81.51 0-61.206-49.794-111-111-111z"/><path d="m472 256c0-14.164-1.386-28.305-4.127-42.152 21.76-23.247 25.902-58.011 9.83-85.848-16.078-27.848-48.27-41.646-79.296-34.402-21.302-18.672-46.255-33.093-72.979-42.175-9.258-30.463-37.288-51.423-69.428-51.423s-60.17 20.96-69.427 51.423c-26.724 9.082-51.676 23.502-72.979 42.174-31.024-7.242-63.219 6.554-79.296 34.403-16.072 27.837-11.93 62.601 9.83 85.849-2.742 13.846-4.128 27.987-4.128 42.151s1.386 28.305 4.127 42.152c-21.76 23.247-25.902 58.011-9.83 85.848 16.078 27.848 48.27 41.644 79.296 34.402 21.302 18.672 46.255 33.093 72.979 42.175 9.258 30.463 37.288 51.423 69.428 51.423s60.17-20.96 69.427-51.423c26.724-9.082 51.676-23.502 72.979-42.174 5.503 1.284 11.038 1.906 16.518 1.906 25.415-.002 49.553-13.4 62.779-36.31 16.072-27.837 11.93-62.601-9.83-85.849 2.741-13.845 4.127-27.986 4.127-42.15zm-75 0c0 77.748-63.252 141-141 141s-141-63.252-141-141 63.252-141 141-141 141 63.252 141 141z"/></g></svg>