<svg id="Capa_1" enable-background="new 0 0 512 512" height="512" viewBox="0 0 512 512" width="512" xmlns="http://www.w3.org/2000/svg"><g><path d="m0 391.5v120.5h512v-120.5zm90.25 74.25h-30v-30h30zm60.25 0h-30v-30h30zm180.75 0h-150.5v-30h150.5zm60.25 0h-30v-30h30zm60.25 0h-30v-30h30z"/><path d="m60.25 331.25h391.5v30.25h-391.5z"/><path d="m512 301.25v-301.25h-512v301.25zm-462-259.25h412v221h-412z"/><path d="m328.273 152.501c-14.227-12.63-41.76-32.838-72.273-32.838-30.516 0-58.048 20.209-72.274 32.839 14.218 12.622 41.756 32.838 72.274 32.838 30.513 0 58.046-20.209 72.273-32.839zm-88.124-15h31.701v30h-31.701z"/><path d="m80 233h352v-161h-352zm71.012-90.39c1.896-2.162 47.103-52.947 104.988-52.947s103.092 50.785 104.988 52.947l8.674 9.891-8.674 9.891c-1.896 2.162-47.102 52.948-104.988 52.948s-103.092-50.786-104.988-52.948l-8.674-9.891z"/></g></svg>