<svg id="Capa_1" enable-background="new 0 0 512 512" height="512" viewBox="0 0 512 512" width="512" xmlns="http://www.w3.org/2000/svg"><g><path d="m512 95.156h-76.234c10.441 13.193 16.698 29.841 16.698 47.933v225.822c0 18.092-6.257 34.74-16.698 47.933h76.234z"/><path d="m136.93 416.305h238.14c26.133 0 47.394-21.261 47.394-47.394v-225.822c0-26.133-21.261-47.394-47.394-47.394h-238.14c-26.133 0-47.395 21.261-47.395 47.394v225.822c.001 26.133 21.262 47.394 47.395 47.394zm224.737-150.972c0 23.3-11.522 44.942-32.444 60.941-19.726 15.085-45.729 23.392-73.223 23.392-27.492 0-53.496-8.308-73.223-23.392-20.921-15.999-32.443-37.642-32.443-60.941 0-27.216 15.773-52.018 42.666-67.827v-33.173h126v33.173c26.893 15.809 42.667 40.611 42.667 67.827z"/><path d="m59.536 368.911v-225.822c0-18.092 6.257-34.74 16.698-47.933h-76.234v321.688h76.234c-10.441-13.193-16.698-29.841-16.698-47.933z"/><path d="m297.529 220.041-8.529-4.078v-21.63h-66v21.63l-8.529 4.079c-21.375 10.221-34.137 27.152-34.137 45.292 0 13.74 7.34 26.919 20.667 37.111 14.523 11.106 34.056 17.223 54.999 17.223s40.477-6.117 55-17.223c13.327-10.191 20.667-23.371 20.667-37.111 0-18.14-12.762-35.072-34.138-45.293z"/></g></svg>