<svg id="Capa_1" enable-background="new 0 0 512 512" height="512" viewBox="0 0 512 512" width="512" xmlns="http://www.w3.org/2000/svg"><g><path d="m512 152v-30h-33.516c-2.567-17.701-9.417-33.885-19.686-47.591l22.256-22.267-21.211-21.211-22.256 22.267c-13.705-10.267-29.888-17.117-47.587-19.682v-33.516h-30v33.516c-17.699 2.565-33.882 9.415-47.587 19.682l-22.256-22.267-21.211 21.211 22.256 22.267c-10.269 13.705-17.119 29.89-19.686 47.591h-31.516v30h31.516c2.567 17.701 9.417 33.885 19.686 47.591l-22.256 22.267 21.211 21.211 22.256-22.267c13.705 10.267 29.888 17.117 47.587 19.682v31.516h30v-31.516c17.699-2.565 33.882-9.415 47.587-19.682l22.256 22.267 21.211-21.211-22.256-22.267c10.269-13.705 17.119-29.89 19.686-47.591zm-137 30c-24.814 0-45-20.186-45-45s20.186-45 45-45 45 20.186 45 45-20.186 45-45 45z"/><path d="m105 272h-60c-24.814 0-45 20.186-45 45v120c0 41.353 33.633 75 75 75s75-33.647 75-75v-120c0-24.814-20.186-45-45-45zm-15 120h-30v-60h30z"/><path d="m360 317c0 41.353-33.633 75-75 75s-75-33.647-75-75v-210c0-41.353-33.633-75-75-75s-75 33.647-75 75v135h30v-135c0-24.814 20.186-45 45-45s45 20.186 45 45v210c0 57.891 47.109 105 105 105s105-47.109 105-105v-15h-30z"/></g></svg>