<svg id="Capa_1" enable-background="new 0 0 512 512" height="512" viewBox="0 0 512 512" width="512" xmlns="http://www.w3.org/2000/svg"><g><path d="m256 316c82.842 0 150-67.158 150-150s-67.158-150-150-150-150 67.158-150 150c0 47.382 22.405 89.119 56.713 116.609l-26.713 33.391zm15-45h-30v-30h30zm-15-210c33.091 0 60 26.909 60 60 0 24.375-14.561 46.143-37.09 55.459-4.731 1.963-7.91 7.236-7.91 13.14v21.401h-30v-21.401c0-18.179 10.386-34.219 26.455-40.854 11.265-4.659 18.545-15.557 18.545-27.745 0-16.538-13.462-30-30-30s-30 13.462-30 30h-30c0-33.091 26.909-60 60-60z"/><path d="m57.713 462.609-26.713 33.391h120c47.289 0 88.953-22.324 116.446-56.516-34.964-21.392-62.025-54.293-75.945-93.484h-117.918l48.501-60.615c-18.825-20.887-31.65-45.791-39-72.424-48.524 24.842-83.084 74.78-83.084 133.039 0 47.382 23.405 89.119 57.713 116.609z"/><path d="m435.522 156.546c.165 3.151.478 6.262.478 9.454 0 99.258-80.742 180-180 180h-32.336c23.167 52.932 75.861 90 137.336 90h120l-26.713-33.391c34.308-27.49 57.713-69.227 57.713-116.609 0-55.574-31.571-103.537-76.478-129.454z"/></g></svg>