<svg id="Capa_1" enable-background="new 0 0 512 512" height="512" viewBox="0 0 512 512" width="512" xmlns="http://www.w3.org/2000/svg"><g><path d="m205.431 208.03c-5.526-23.107-26.3-40.292-51.101-40.292h-35.705v35.705c0 29.025 23.529 52.554 52.554 52.554-29.025 0-52.554 23.529-52.554 52.554v5.781h-22.551c-18.104 0-32.833-14.729-32.833-32.833h-30c0 16.044 6.052 30.695 15.983 41.811-29.129 14.333-49.224 44.32-49.224 78.917 0 38.417 31.254 69.671 69.67 69.671 30.88 0 56.002-25.123 56.002-56.003 0-25.228-20.524-45.752-45.752-45.752v30c8.686 0 15.752 7.066 15.752 15.752 0 14.338-11.665 26.003-26.002 26.003-21.875 0-39.67-17.796-39.67-39.671 0-31.922 25.971-57.893 57.893-57.894h66.107v-.076h.33c24.801 0 45.575-17.184 51.101-40.292z"/><path d="m235.431 226.412h40.206v59.172h-40.206z"/><path d="m512 109.773c0-38.417-31.254-69.671-69.67-69.671-30.88 0-56.002 25.123-56.002 56.003 0 25.228 20.524 45.752 45.752 45.752v-30c-8.686 0-15.752-7.066-15.752-15.752 0-14.338 11.665-26.003 26.002-26.003 21.875 0 39.67 17.796 39.67 39.671 0 31.922-25.971 57.893-57.893 57.894l-66.571-.261c-25.921 0-47.46 18.701-51.899 43.344v90.494c4.439 24.643 25.978 43.344 51.899 43.344h35.839v-35.838c0-29.134-23.618-52.752-52.752-52.752 29.134 0 52.752-23.618 52.752-52.752v-5.579h22.551c18.104 0 32.833 14.729 32.833 32.833h30c0-16.044-6.052-30.695-15.983-41.811 29.129-14.332 49.224-44.319 49.224-78.916z"/></g></svg>