<svg id="Capa_1" enable-background="new 0 0 510.002 510.002" height="512" viewBox="0 0 510.002 510.002" width="512" xmlns="http://www.w3.org/2000/svg"><g><path d="m422.36 163.958c-21.853-96.752-82.983-163.959-181.975-163.958-99.858.002-179.625 77.057-186.55 175.371-2.034 28.888-2.004 69.364 9.696 98.135 11.463 28.19 49.114 59.888 60.568 94.257 20.196 60.604 14.36 125.163 14.3 125.797l-1.589 16.442h211.52v-120h45v-75h63.852zm-182.359 136.043c-66.168 0-120-53.832-120-120s53.832-120 120-120 120 53.832 120 120-53.832 120-120 120z"/><path d="m240.001 90.001c-49.626 0-90 40.374-90 90s40.374 90 90 90 90-40.374 90-90-40.374-90-90-90zm22.063 153.596-29.125-7.191 10.408-42.158h-45.116l19.73-77.928 29.082 7.363-10.27 40.564h44.883z"/></g></svg>