<svg id="Capa_1" enable-background="new 0 0 512 512" height="512" viewBox="0 0 512 512" width="512" xmlns="http://www.w3.org/2000/svg"><g><path d="m210.24 487c15.973 0 31.623-3.719 45.76-10.819 14.137 7.1 29.787 10.819 45.76 10.819 55.713 0 101.141-44.841 102.097-100.325l-295.705.42c1.177 55.29 46.516 99.905 102.088 99.905z"/><path d="m241 112v15.102c-8.934-2.059-18.113-3.102-27.46-3.102-27.573 0-54.598 9.463-76.096 26.646-18.677 14.929-32.598 35.196-39.921 57.769h316.945c-7.323-22.575-21.244-42.844-39.921-57.772-21.496-17.181-48.517-26.643-76.087-26.643-9.347 0-18.526 1.042-27.46 3.102v-15.102c0-4.866-.482-9.619-1.371-14.229 9.439-1.828 19.072-2.771 28.831-2.771 28.245 0 56.025 8.034 79.853 22.862 7.424-11.849 11.502-25.658 11.502-39.862v-53h-53c-34.196 0-63.928 22.989-72.557 55.983-5.466-11.983-13.991-22.279-24.579-29.893-12.311-8.854-27.391-14.09-43.679-14.09h-38v30h38c9.956 0 19.164 3.256 26.625 8.751 11.134 8.199 18.375 21.392 18.375 36.249z"/><path d="m374 237.415v61h-29.972v-61h-107.614v61h-29.971v-61h-107.614v61h-29.972v-61h-68.857v120h137.714v-61h30v61h107.715v-61h30v61h107.714v-61h30v61h68.857v-120z"/></g></svg>