<svg id="Capa_1" enable-background="new 0 0 512 512" height="512" viewBox="0 0 512 512" width="512" xmlns="http://www.w3.org/2000/svg"><g><path d="m338.285 198.446c-5.889-.14-11.449 2.005-15.659 6.101-4.211 4.098-6.531 9.59-6.531 15.464h-.042v40.656h-30v-213.214c0-11.993-9.401-22.008-20.956-22.325-5.883-.157-11.449 2.005-15.657 6.101-4.183 4.07-6.494 9.517-6.525 15.346l-.006 214.093h-30v-239.092c0-11.898-9.677-21.576-21.572-21.576s-21.572 9.678-21.572 21.572v239.095h-30v-213.214c0-11.993-9.401-22.008-20.956-22.325-5.901-.188-11.449 2.005-15.657 6.101-4.212 4.098-6.531 9.59-6.531 15.464v233.06h-32.304c-9.919 0-17.99 8.07-17.99 17.99v57.802c0 86.269 70.186 156.455 156.456 156.455s156.457-70.186 156.457-156.456v-134.773c0-11.993-9.4-22.007-20.955-22.325z"/><path d="m417.399.394-21.213 21.212 12.061 12.061h-73.071v30h73.07l-12.06 12.06 21.213 21.212 48.274-48.272z"/></g></svg>