<svg id="Capa_1" enable-background="new 0 0 512.001 512.001" height="512" viewBox="0 0 512.001 512.001" width="512" xmlns="http://www.w3.org/2000/svg"><g><path d="m282.417 221.75c-19.128 3.931-33.287 21.082-33.287 40.792v28.125h66.575v-28.125c0-19.71-14.159-36.862-33.288-40.792z"/><path d="m249.13 150.5c0 19.71 14.159 36.862 33.287 40.793 19.129-3.931 33.288-21.083 33.288-40.793v-28.125h-66.575z"/><path d="m488.39 202.648c0-111.92-90.728-202.648-202.648-202.648-90.163 0-166.564 58.878-192.868 140.28l-9.76 60.392-59.504 98.703v29.92h47.385l20.165 110.149h112.918l17.139 72.557h228.021l-28.235-158.448c41.367-37.101 67.387-90.969 67.387-150.905zm-123.306-80.273h-19.379v28.125c0 17.162-6.171 33.773-17.376 46.773-2.93 3.399-6.16 6.485-9.628 9.248 3.468 2.763 6.699 5.849 9.628 9.248 11.205 13 17.376 29.61 17.376 46.772v28.125h19.379v30h-165.334v-30h19.379v-28.125c0-17.162 6.171-33.772 17.376-46.772 2.93-3.399 6.16-6.485 9.628-9.248-3.468-2.763-6.699-5.849-9.628-9.248-11.205-13-17.376-29.611-17.376-46.773v-28.125h-19.379v-30h165.333v30z"/></g></svg>