<svg id="Capa_1" enable-background="new 0 0 509.856 509.856" height="512" viewBox="0 0 509.856 509.856" width="512" xmlns="http://www.w3.org/2000/svg"><g><path d="m472.045 312.659c-12.954-8.36-27.952-11.076-42.091-8.786 5.213-21.695 6.244-43.842 3.49-65.2l15.265-3.291c32.416-6.988 52.998-38.877 46.007-71.297l-6.322-29.326-43.989 9.483c-15.094 3.254-27.635 11.958-36.014 23.602-11.5-18.712-26.326-35.167-43.647-48.545l8.518-13.199c17.939-27.8 9.916-65.01-17.881-82.947l-25.208-16.267-24.399 37.812c-8.12 12.581-11.202 27.412-8.819 42.083-27.592-6.625-56.488-6.624-84.085.008 2.29-14.14-.426-29.137-8.786-42.091l-24.399-37.812-25.208 16.267c-27.863 17.98-35.865 55.08-17.883 82.947l8.517 13.199c-17.321 13.378-32.146 29.833-43.647 48.545-8.379-11.643-20.92-20.348-36.014-23.602l-43.989-9.483-6.322 29.326c-6.973 32.341 13.666 64.324 46.007 71.297l15.265 3.291c-2.747 21.311-1.735 43.453 3.491 65.201-14.14-2.29-29.137.426-42.091 8.785l-37.811 24.4 16.266 25.207c17.852 27.666 55.021 35.901 82.947 17.883l13.2-8.518c13.378 17.321 29.833 32.147 48.545 43.648-11.643 8.379-20.348 20.92-23.602 36.014l-9.483 43.989 29.326 6.322c32.553 7.02 64.338-13.729 71.297-46.008l3.291-15.265c15.331 1.977 30.923 1.98 46.283 0l3.291 15.265c6.95 32.245 38.714 53.036 71.296 46.008l29.326-6.322-9.483-43.989c-3.159-14.658-11.484-27.342-23.573-36.032 18.7-11.498 35.146-26.317 48.516-43.63l13.2 8.518c27.965 18.046 65.119 9.745 82.947-17.883l16.266-25.207zm-183.272 95.305c-1.619.185-28.837 7.906-63.601.881l-4.096-.883c-77.643-17.978-129.525-95.083-113.175-175.93l.875-4.056c15.383-66.469 75.073-116.162 146.151-116.162 71.074 0 130.761 49.688 146.149 116.15l.882 4.091c1.944 9.621 2.969 19.572 2.969 29.759.001 71.076-49.689 130.763-116.154 146.15z"/><path d="m314.928 201.815c0-33.084-26.916-60-60-60s-60 26.916-60 60c0 27.906 19.151 51.424 45 58.101v46.708h-45v30h45v45h30v-45h45v-30h-45v-46.708c25.85-6.677 45-30.195 45-58.101zm-60 30c-16.542 0-30-13.458-30-30s13.458-30 30-30 30 13.458 30 30-13.458 30-30 30z"/></g></svg>