<svg id="Capa_1" enable-background="new 0 0 509.359 509.359" height="512" viewBox="0 0 509.359 509.359" width="512" xmlns="http://www.w3.org/2000/svg"><g id="XMLID_914_"><path id="XMLID_917_" d="m118.519 101.933h38.268v-30h-68.268v70.136h30z"/><path id="XMLID_920_" d="m420.839 71.933h-68.268v30h38.268v40.136h30z"/><path id="XMLID_921_" d="m7.477 470.391v23.844c0 8.34 6.784 15.124 15.124 15.124h161.837c8.34 0 15.124-6.784 15.124-15.124v-23.844z"/><path id="XMLID_922_" d="m122.831 310.744-8.35-7.65 5.071-10.126c1.251-2.499 1.886-5.19 1.886-8.001 0-9.881-8.038-17.919-17.919-17.919s-17.919 8.037-17.919 17.918c0 2.809.635 5.501 1.887 8.001l5.071 10.126-8.35 7.65c-5.993 5.49-9.293 12.982-9.293 21.096v17.702h57.208v-17.702c.001-8.113-3.299-15.605-9.292-21.095z"/><path id="XMLID_925_" d="m184.438 172.069h-161.837c-8.34 0-15.124 6.784-15.124 15.124v253.198h192.085v-253.198c0-8.34-6.784-15.124-15.124-15.124zm-22.314 207.473h-117.208v-47.702c0-12.9 4.299-25.408 12.028-35.552-.894-3.675-1.344-7.458-1.344-11.321 0-26.423 21.496-47.919 47.919-47.919s47.919 21.496 47.919 47.919c0 3.863-.45 7.646-1.343 11.321 7.729 10.144 12.028 22.651 12.028 35.552v47.702z"/><path id="XMLID_926_" d="m309.796 470.391v23.844c0 8.34 6.784 15.124 15.124 15.124h161.838c8.34 0 15.124-6.784 15.124-15.124v-23.844z"/><path id="XMLID_929_" d="m486.758 172.069h-161.838c-8.34 0-15.124 6.784-15.124 15.124v253.198h192.086v-253.198c0-8.34-6.785-15.124-15.124-15.124zm-22.316 207.473h-117.207v-47.702c0-12.9 4.299-25.409 12.028-35.552-.894-3.676-1.344-7.458-1.344-11.321 0-26.423 21.496-47.919 47.919-47.919s47.919 21.496 47.919 47.919c0 3.863-.45 7.646-1.344 11.321 7.729 10.143 12.028 22.651 12.028 35.552v47.702z"/><path id="XMLID_931_" d="m425.15 310.745-8.351-7.65 5.071-10.127c1.252-2.5 1.887-5.192 1.887-8.001 0-9.881-8.038-17.919-17.919-17.919s-17.919 8.038-17.919 17.919c0 2.809.635 5.501 1.887 8.001l5.071 10.127-8.351 7.65c-5.992 5.489-9.292 12.98-9.292 21.095v17.702h57.207v-17.702c.001-8.115-3.299-15.606-9.291-21.095z"/><path id="XMLID_960_" d="m253.805 102.212 47.292-51.594c7.001-7.638 9.587-18.174 6.917-28.186-3.522-13.207-15.542-22.432-29.23-22.432-5.728 0-11.339 1.653-16.224 4.781l-8.754 5.604-8.754-5.604c-4.886-3.128-10.496-4.781-16.225-4.781-13.688 0-25.708 9.224-29.231 22.432-2.669 10.011-.083 20.548 6.917 28.186z"/></g></svg>