<?xml version="1.0" encoding="iso-8859-1"?>
<!-- Generator: Adobe Illustrator 19.0.0, SVG Export Plug-In . SVG Version: 6.00 Build 0)  -->
<svg xmlns="http://www.w3.org/2000/svg" xmlns:xlink="http://www.w3.org/1999/xlink" version="1.1" id="Layer_1" x="0px" y="0px" viewBox="0 0 512 512" style="enable-background:new 0 0 512 512;" xml:space="preserve">
<g>
	<g>
		<polygon points="142.371,0 173.864,70.259 338.124,70.259 369.618,0   "/>
	</g>
</g>
<g>
	<g>
		<g>
			<path d="M225.197,271.004L135.196,70.255L103.697,0L36.079,67.517l113.664,246.105     C169.344,292.152,195.59,276.847,225.197,271.004z"/>
			<path d="M252.032,301.791c-57.956,0-105.105,47.148-105.105,105.105S194.076,512,252.032,512     c57.956,0,105.105-47.148,105.105-105.105S309.988,301.791,252.032,301.791z M283.821,453.298l-31.789-16.718l-31.789,16.718     l6.066-35.406l-25.7-25.055l35.528-5.165l15.894-32.2l15.894,32.2l35.528,5.165l-25.711,25.055L283.821,453.298z"/>
			<path d="M411.498,3.194V0h-3.194l-31.499,70.255L286.08,272.64c29.284,7.424,54.873,24.209,73.394,46.97L475.921,67.517     L411.498,3.194z"/>
		</g>
	</g>
</g>
<g>
</g>
<g>
</g>
<g>
</g>
<g>
</g>
<g>
</g>
<g>
</g>
<g>
</g>
<g>
</g>
<g>
</g>
<g>
</g>
<g>
</g>
<g>
</g>
<g>
</g>
<g>
</g>
<g>
</g>
</svg>
