<svg id="Capa_1" enable-background="new 0 0 510 510" height="512" viewBox="0 0 510 510" width="512" xmlns="http://www.w3.org/2000/svg"><g id="XMLID_1564_"><path id="XMLID_1587_" d="m120 225c0-33.084 26.916-60 60-60v-30c-33.084 0-60-26.916-60-60h-30c0 33.084-26.916 60-60 60v30c33.084 0 60 26.916 60 60z"/><path id="XMLID_1611_" d="m480 60c-33.084 0-60-26.916-60-60h-30c0 33.084-26.916 60-60 60v30c33.084 0 60 26.916 60 60h30c0-33.084 26.916-60 60-60z"/><path id="XMLID_1612_" d="m225 0h60v225h-60z"/><path id="XMLID_1613_" d="m405 195h30v30h-30z"/><path id="XMLID_1614_" d="m465 255h30v30h-30z"/><path id="XMLID_1616_" d="m135 15h30v30h-30z"/><path id="XMLID_1619_" d="m15 240h30v30h-30z"/><path id="XMLID_1620_" d="m165 255h180v60h-180z"/><path id="XMLID_1621_" d="m156.705 345-75 165h113.295v-75h30v75h60v-75h30v75h113.295l-75-165z"/></g></svg>