<svg id="Capa_1" enable-background="new 0 0 512 512" height="512" viewBox="0 0 512 512" width="512" xmlns="http://www.w3.org/2000/svg"><g><path d="m93.471 512h325.058l18.949-50.026h-362.957z"/><path d="m61.943 428.769 1.177 3.107h385.759l1.177-3.107c24.753-65.345 26.928-135.979 6.748-202.063h-401.608c-20.179 66.084-18.005 136.716 6.747 202.063zm107.754-166.131h56.186l19.405 33.61h21.422l19.405-33.61h56.186l28.093 48.659-28.093 48.659h-38.804l-19.405 33.611h-56.186l-19.405-33.611h-38.804l-28.093-48.659z"/><path d="m266.71 326.346h-21.421l-10.72 18.565 10.714 18.558h21.433l10.714-18.557z"/><path d="m66.286 196.066c-.076.18-.146.362-.221.542h379.87c-.076-.18-.145-.362-.221-.542l-18.972-44.975h-341.484z"/><path d="m303.498 329.858h21.427l10.716-18.561-10.716-18.561h-21.433l-10.714 18.555z"/><path d="m208.502 329.858 10.719-18.566-10.714-18.556h-21.433l-10.716 18.561 10.716 18.561z"/><path d="m94.54 0h322.92v60.421h-322.92z"/><path d="m388.818 90.519h-265.636c7.532 1.222 13.307 7.754 13.307 15.626 0 6.808-4.324 12.61-10.363 14.849h259.748c-6.039-2.239-10.363-8.041-10.363-14.849-.001-7.873 5.775-14.404 13.307-15.626z"/></g></svg>