<svg id="Capa_1" enable-background="new 0 0 510.52 510.52" height="512" viewBox="0 0 510.52 510.52" width="512" xmlns="http://www.w3.org/2000/svg"><path id="XMLID_986_" d="m121.896 352.831h358.467l23.871-231.153-398.09-37.562-6.046-58.642-85.221-25.474-8.592 28.744 66.026 19.735 25.733 285.799-29.898 49.736c-6.01 9.999-6.17 22.031-.426 32.186 4.996 8.833 13.512 14.565 23.323 15.909-3.703 7.319-5.804 15.581-5.804 24.329 0 29.821 24.261 54.082 54.082 54.082s54.082-24.261 54.082-54.082c0-8.625-2.04-16.778-5.646-24.02h183.72c-3.606 7.242-5.646 15.395-5.646 24.02 0 29.821 24.261 54.082 54.082 54.082s54.082-24.261 54.082-54.082-24.261-54.082-54.082-54.082c-.826 0-324.388.062-324.388.062-.311 0-1.135 0-1.693-.987s-.134-1.693.025-1.959zm263.608-103.248h-45.72v-43.472h45.72zm30-43.472h49.851l-4.489 43.472h-45.362zm-151.44 73.472h45.72v43.248h-45.72zm-30 43.248h-45.721v-43.248h45.721zm30-73.248v-43.472h45.72v43.472zm75.72 30h45.72v43.248h-45.72zm0-103.472v-39.818l45.72 4.314v35.504zm-30 0h-45.72v-46.962l45.72 4.314zm-75.72 0h-45.721v-54.107l45.721 4.314zm0 30v43.472h-45.721v-43.472zm-75.72 43.472h-37.572l-3.791-43.472h41.363zm-34.956 30h34.955v43.248h-31.183zm292.116 43.248v-43.248h42.264l-4.466 43.248zm52.949-146.72h-52.949v-32.673l55.779 5.263zm-310.109-56.937v56.937h-43.98l-5.372-61.594z"/></svg>