<svg id="Capa_1" enable-background="new 0 0 512 512" height="512" viewBox="0 0 512 512" width="512" xmlns="http://www.w3.org/2000/svg"><g><path d="m256.02 380.47c-111.88-.07-209.72-63.42-256.02-157.45 46.29-94.02 144.1-157.35 255.95-157.45-86.81.12-157.43 70.74-157.43 157.45 0 85.824 71.666 157.358 157.5 157.45z"/><path d="m512 223.02c-1.81 3.67-3.69 7.29-5.67 10.86-24.22-28.07-58.88-46.89-97.89-50.38-17.59-67.68-79.26-117.85-152.42-117.93 111.88.07 209.68 63.41 255.98 157.45z"/><path d="m377.35 184c-18.29 2.23-35.55 7.84-51.13 16.18-9.65-29.49-37.46-50.91-70.18-51-40.172-.227-73.9 33.865-73.9 73.84 0 38.731 31.414 71.647 70.06 73.72-4.018 17.51-4.8 35.783-2.27 53.57-67.111-2.953-121.41-60.344-121.41-127.29 0-69.323 58.174-127.45 127.5-127.45 56.67.08 104.8 37.25 121.33 88.43z"/><path d="m299.62 218.44c-15.32 13.17-27.89 29.45-36.73 47.85-2.24.36-4.52.55-6.85.56-.01 0-.01 0-.02 0-24.2-.08-43.88-19.74-43.88-43.83s19.67-43.75 43.86-43.84h.02c22.63.09 41.3 17.31 43.6 39.26z"/><path d="m489.48 260.83c-21.825-29.833-57.255-47.92-94.24-47.92-63.565 0-116.76 53.194-116.76 116.76 0 63.618 53.226 116.76 116.76 116.76 64.38 0 116.76-52.38 116.76-116.76 0-25.72-8.36-49.53-22.52-68.84zm-104.98 127.77-53.8-37.14 18.09-26.21 27.65 19.09 51.06-73.6 26.16 18.15z"/></g></svg>