<svg id="Capa_1" enable-background="new 0 0 512 512" height="512" viewBox="0 0 512 512" width="512" xmlns="http://www.w3.org/2000/svg"><g><path d="m376 390h-119.148c.002 0 .003-.002.004-.002 107.128-.463 194.144-87.764 194.144-194.998 0-107.52-87.48-195-195-195s-195 87.48-195 195c0 107.31 87.139 194.659 194.371 194.999.001 0 .002.001.002.001h-119.373c-57.891 0-105 47.109-105 105v17h450v-17c0-57.891-47.109-105-105-105zm-87.422-246.211 21.211-21.211 21.211 21.211 21.211-21.211 21.211 21.211-21.211 21.211 21.211 21.211-21.211 21.211-21.211-21.211-21.211 21.211-21.211-21.211 21.211-21.211zm-150 0 21.211-21.211 21.211 21.211 21.211-21.211 21.211 21.211-21.211 21.211 21.211 21.211-21.211 21.211-21.211-21.211-21.211 21.211-21.211-21.211 21.211-21.211zm64.922 126.211c-15.707 0-19.357 30-52.5 30v-30c15.707 0 19.357-30 52.5-30 33.506 0 36.724 30 52.5 30 15.707 0 19.357-30 52.5-30 33.506 0 36.724 30 52.5 30v30c-33.506 0-36.724-30-52.5-30-15.707 0-19.357 30-52.5 30-33.506 0-36.724-30-52.5-30z"/></g></svg>