<svg id="Capa_1" enable-background="new 0 0 512 512" height="512" viewBox="0 0 512 512" width="512" xmlns="http://www.w3.org/2000/svg"><g><path d="m373.328 73.452h35.602v30h-35.602v37.469h35.602v30h-35.602v37.469h35.602v30h-35.602v42.313c11.337-3.152 23.275-4.844 35.602-4.844s24.265 1.692 35.602 4.844v-250.455l-35.602-23.734-35.602 23.734z"/><path d="m37.469 262.313-11.371 3.77c-15.61 5.175-26.098 19.7-26.098 36.145v127.047h37.469z"/><path d="m67.469 310.229h208.39v-57.86l-25.753-8.537c-21.145 18.028-48.543 28.928-78.442 28.928-29.9 0-57.298-10.9-78.443-28.928l-25.752 8.537z"/><path d="m317.23 266.083-11.371-3.769v62.547c10.168-12.443 22.537-23.018 36.511-31.123-2.913-12.792-12.287-23.394-25.14-27.655z"/><path d="m275.859 408.93v-68.701h-208.39v89.046h209.944c-1.022-6.635-1.554-13.429-1.554-20.345z"/><path d="m408.93 407.063c-10.331 0-18.735 8.404-18.735 18.734s8.404 18.734 18.735 18.734c10.33 0 18.734-8.404 18.734-18.734s-8.404-18.734-18.734-18.734z"/><path d="m408.93 305.859c-56.833 0-103.071 46.237-103.071 103.07s46.237 103.071 103.071 103.071c56.833 0 103.07-46.237 103.07-103.07s-46.237-103.071-103.07-103.071zm0 168.672c-26.873 0-48.735-21.862-48.735-48.734s21.862-48.734 48.735-48.734c26.872 0 48.734 21.862 48.734 48.734s-21.862 48.734-48.734 48.734z"/><path d="m81.286 54.921c19.495-8.29 50.135-17.452 90.35-17.452 40.257 0 70.919 9.182 90.41 17.478-4.559-31.04-31.357-54.947-63.642-54.947h-53.481c-32.275 0-59.068 23.894-63.637 54.921z"/><path d="m139.01 111.158c21.035-7.512 44.205-7.512 65.24 0 15.993 5.711 33.336 5.186 48.896-1.458l9.592-4.095v-17.048c-4.283-2.353-10.712-5.529-19.132-8.686-15.087-5.658-39.82-12.402-71.969-12.402-47.114 0-78.435 14.063-91.045 21.017v17.086l9.5 4.071c15.58 6.677 32.952 7.215 48.918 1.515z"/><path d="m171.664 242.76c50.218 0 91.074-40.855 91.074-91.073v-13.494c-11.533 4.599-23.697 6.91-35.881 6.91-11.012 0-22.039-1.886-32.637-5.671-14.588-5.209-30.591-5.21-45.12-.021-22.328 7.973-46.552 7.494-68.509-1.262v13.539c0 50.216 40.855 91.072 91.073 91.072z"/></g></svg>