<svg id="Capa_1" enable-background="new 0 0 512 512" height="512" viewBox="0 0 512 512" width="512" xmlns="http://www.w3.org/2000/svg"><g><path d="m161.2 367.929v-17.268c0-9.521-7.746-17.269-17.268-17.269s-17.268 7.747-17.268 17.269v17.268z"/><path d="m464.871 88.434c0-48.763-39.671-88.434-88.433-88.434s-88.434 39.671-88.434 88.434 39.671 88.434 88.434 88.434 88.433-39.672 88.433-88.434zm-125.049 39.843 14.718-13.839-8.699-8.18c-13.43-12.627-17.72-31.859-10.929-48.997 6.792-17.139 23.091-28.212 41.526-28.212s34.734 11.074 41.526 28.212c6.791 17.138 2.501 36.37-10.929 48.998l-8.699 8.179 14.718 13.839-20.55 21.855-16.066-15.105-16.066 15.105z"/><path d="m126.665 397.929v17.268c0 9.521 7.747 17.268 17.268 17.268s17.268-7.746 17.268-17.268v-17.268z"/><path d="m161.2 174.321v-17.268c0-9.521-7.746-17.268-17.268-17.268s-17.268 7.746-17.268 17.268v17.268z"/><path d="m255.737 174.321h34.536v-4.724c-8.204-8.704-15.108-18.645-20.397-29.513-8.031 1.478-14.139 8.517-14.139 16.969z"/><path d="m386.485 84.403c6.736-6.334 4.45-13.917 3.589-16.09s-4.39-9.264-13.636-9.264-12.775 7.091-13.636 9.264-3.148 9.756 3.588 16.09l10.047 9.446z"/><path d="m273.004 238.857c9.521 0 17.268-7.747 17.268-17.269v-17.268h-34.536v17.268c.001 9.522 7.747 17.269 17.268 17.269z"/><path d="m255.737 397.929v17.268c0 9.521 7.746 17.268 17.268 17.268s17.268-7.746 17.268-17.268v-17.268z"/><path d="m290.272 367.929v-17.268c0-9.521-7.747-17.269-17.268-17.269s-17.268 7.747-17.268 17.269v17.268z"/><path d="m320.272 192.679v28.91c0 26.064-21.205 47.269-47.268 47.269s-47.268-21.204-47.268-47.269v-64.535c0-21.653 14.64-39.939 34.538-45.512-1.485-7.477-2.27-15.202-2.27-23.108 0-9.71 1.183-19.147 3.397-28.184h-214.272v451.75h322.679v-305.322c-17.843-.989-34.645-5.944-49.536-13.999zm-129.072 222.517c0 26.063-21.204 47.268-47.268 47.268s-47.268-21.204-47.268-47.268v-64.535c0-26.064 21.205-47.269 47.268-47.269s47.268 21.204 47.268 47.269zm0-193.607c0 26.064-21.204 47.269-47.268 47.269s-47.268-21.204-47.268-47.269v-64.535c0-26.063 21.205-47.268 47.268-47.268s47.268 21.204 47.268 47.268zm129.072 193.607c0 26.063-21.205 47.268-47.268 47.268s-47.268-21.204-47.268-47.268v-64.535c0-26.064 21.204-47.269 47.268-47.269s47.268 21.204 47.268 47.269z"/><path d="m126.665 204.321v17.268c0 9.521 7.747 17.269 17.268 17.269s17.268-7.747 17.268-17.269v-17.268z"/></g></svg>