<svg id="Capa_1" enable-background="new 0 0 510 510" height="512" viewBox="0 0 510 510" width="512" xmlns="http://www.w3.org/2000/svg"><g><path d="m300 137.959v-17.959h-270v17.959c0 14.719-4.316 28.973-12.481 41.221-9.217 13.826-14.932 29.475-16.819 45.82h179.3v-60h125.091c-3.35-8.565-5.091-17.709-5.091-27.041z"/><path d="m75 510h105v-75h-180c0 41.355 33.645 75 75 75z"/><path d="m0 405h180v-30h-120v-30h120v-30h-120v-30h120v-30h-180z"/><circle cx="420" cy="412.5" r="15"/><circle cx="300" cy="412.5" r="15"/><path d="m210 195v315h300v-315zm90 262.5c-24.814 0-45-20.186-45-45s20.186-45 45-45 45 20.186 45 45-20.186 45-45 45zm0-120c-24.814 0-45-20.186-45-45s20.186-45 45-45 45 20.186 45 45-20.186 45-45 45zm120 120c-24.814 0-45-20.186-45-45s20.186-45 45-45 45 20.186 45 45-20.186 45-45 45zm0-120c-24.814 0-45-20.186-45-45s20.186-45 45-45 45 20.186 45 45-20.186 45-45 45z"/><circle cx="300" cy="292.5" r="15"/><circle cx="420" cy="292.5" r="15"/><path d="m330 0h-60v45h-30v-45h-30v45h-30v-45h-30v45h-30v-45h-30v45h-30v-45h-60v90h330z"/></g></svg>