<?xml version="1.0" encoding="iso-8859-1"?>
<!-- Generator: Adobe Illustrator 19.0.0, SVG Export Plug-In . SVG Version: 6.00 Build 0)  -->
<svg xmlns="http://www.w3.org/2000/svg" xmlns:xlink="http://www.w3.org/1999/xlink" version="1.1" id="Layer_1" x="0px" y="0px" viewBox="0 0 512 512" style="enable-background:new 0 0 512 512;" xml:space="preserve">
<g>
	<g>
		<path d="M107.763,134.372v296.475h296.474V134.372H107.763z M256,409.596c-70.02,0-126.986-56.965-126.986-126.987    c0-70.02,56.965-126.986,126.986-126.986s126.986,56.965,126.986,126.986S326.02,409.596,256,409.596z"/>
	</g>
</g>
<g>
	<g>
		<path d="M256,186.041v30.417c36.476,0,66.151,29.676,66.151,66.151h30.417C352.568,229.361,309.247,186.041,256,186.041z"/>
	</g>
</g>
<g>
	<g>
		<path d="M354.357,53.219V43.074C354.357,19.323,335.034,0,311.283,0H200.716c-23.751,0-43.073,19.323-43.073,43.074v10.145h-49.88    v30.417v20.319h296.474V83.636V53.219H354.357z M323.939,53.219H188.06V43.074c0-6.979,5.678-12.657,12.656-12.657h110.567    c6.979,0,12.656,5.678,12.656,12.657V53.219z"/>
	</g>
</g>
<g>
	<g>
		<path d="M64.483,53.219c-20.884,0-37.873,16.99-37.873,37.873v12.862h30.417h20.319V83.636V53.219H64.483z"/>
	</g>
</g>
<g>
	<g>
		<path d="M447.517,53.219h-12.862v30.417v20.319h20.319h30.417V91.092C485.39,70.209,468.4,53.219,447.517,53.219z"/>
	</g>
</g>
<g>
	<g>
		<polygon points="57.027,134.372 26.61,134.372 26.61,430.847 57.027,430.847 77.346,430.847 77.346,134.372   "/>
	</g>
</g>
<g>
	<g>
		<polygon points="454.973,134.372 434.654,134.372 434.654,430.847 454.973,430.847 485.39,430.847 485.39,134.372   "/>
	</g>
</g>
<g>
	<g>
		<path d="M454.973,461.264h-20.319v20.319V512h12.862c20.884,0,37.873-16.99,37.873-37.873v-12.862H454.973z"/>
	</g>
</g>
<g>
	<g>
		<path d="M57.027,461.264H26.61v12.862C26.61,495.01,43.6,512,64.483,512h12.862v-30.417v-20.319H57.027z"/>
	</g>
</g>
<g>
	<g>
		<polygon points="107.763,461.264 107.763,481.583 107.763,512 404.237,512 404.237,481.583 404.237,461.264   "/>
	</g>
</g>
<g>
	<g>
		<circle cx="256.001" cy="282.606" r="30.958"/>
	</g>
</g>
<g>
</g>
<g>
</g>
<g>
</g>
<g>
</g>
<g>
</g>
<g>
</g>
<g>
</g>
<g>
</g>
<g>
</g>
<g>
</g>
<g>
</g>
<g>
</g>
<g>
</g>
<g>
</g>
<g>
</g>
</svg>
