<svg id="Capa_1" enable-background="new 0 0 510 510" height="512" viewBox="0 0 510 510" width="512" xmlns="http://www.w3.org/2000/svg"><g><path d="m330 450h-150v30h-60v30h270v-30h-60z"/><path d="m0 0v345h510v-345zm255 45c57.897 0 105 47.104 105 105 0 57.898-47.103 105-105 105s-105-47.102-105-105c0-57.896 47.103-105 105-105zm195 270h-390v-30h390z"/><path d="m255 225c41.355 0 75-33.645 75-75s-33.645-75-75-75-75 33.645-75 75 33.645 75 75 75zm-45-90h30v-30h30v30h30v30h-30v30h-30v-30h-30z"/><path d="m0 375h510v45h-510z"/></g></svg>