<svg id="Capa_1" enable-background="new 0 0 512 512" height="512" viewBox="0 0 512 512" width="512" xmlns="http://www.w3.org/2000/svg"><g id="XMLID_962_"><path id="XMLID_965_" d="m97.105 295.151h33.128v51.578h-33.128z"/><circle id="XMLID_974_" cx="113.669" cy="96.406" r="24.634"/><path id="XMLID_977_" d="m113.669 192.813c53.159 0 96.407-43.248 96.407-96.407 0-53.158-43.248-96.406-96.407-96.406-53.158 0-96.406 43.248-96.406 96.406 0 53.159 43.248 96.407 96.406 96.407zm0-151.068c30.14 0 54.662 24.521 54.662 54.662s-24.521 54.662-54.662 54.662-54.662-24.521-54.662-54.662 24.521-54.662 54.662-54.662z"/><path id="XMLID_986_" d="m254.035 139.667v52.322h-36.973v-22.897c-22.905 32.486-60.711 53.749-103.394 53.749-42.682 0-80.488-21.263-103.393-53.749v342.908h206.787v-227.185h36.973v52.322h247.689v-197.47zm82.305 113.748v-30.027h83.08v30.027zm-237.685 189.933v-32.997h30.027v32.997zm-31.577-178.224h93.183v111.632h-93.183z"/></g></svg>