<svg id="Capa_1" enable-background="new 0 0 512 512" height="512" viewBox="0 0 512 512" width="512" xmlns="http://www.w3.org/2000/svg"><g><path d="m481.642 146.031 29.987-.016v-146.015h-146l-.016 30.002h94.787c.001-.001-116.962 116.998-116.962 116.998-48.575-40.989-126.994-40.983-175.55.01l-59.489-59.499 45.11-7.091-4.659-29.637-53.893 8.472 8.472-53.893-29.637-4.658-7.091 45.109c.001.001-35.923-35.922-35.924-35.923l-21.22 21.22 35.923 35.923-45.109 7.091 4.659 29.637 53.893-8.472-8.472 53.893 29.636 4.658 7.091-45.109 59.499 59.489c-69.624 84.516-14.739 216.257 93.99 226.98v43.8h-51.074v30h51.074v43h30v-43h51.074v-30h-51.074v-43.8c108.779-10.739 163.597-142.51 93.98-226.99l116.995-116.97zm-210.975 218.939c-96.515 13.112-161.624-97.441-102.619-175.38 20.738-27.112 52.205-43.478 87.619-43.59 35.413.111 66.874 16.476 87.61 43.58 51.093 65.687 9.499 164.968-72.61 175.39z"/></g></svg>