<svg id="Capa_1" enable-background="new 0 0 512 512" height="512" viewBox="0 0 512 512" width="512" xmlns="http://www.w3.org/2000/svg"><g><path d="m256 0c-141.38 0-256 114.62-256 256s114.62 256 256 256c24.57 0 48.34-3.46 70.83-9.93-6.24-4.71-11.84-10.32-16.6-16.69l-67.21-90.06c-58.53-4.8-109.71-41.6-132.67-96.5l27.68-11.57c20.54 49.11 72.89 82.74 126.39 78.14 46.84-4.01 91.45-33.67 109.57-77.67l27.63 11.69c-2.3 5.45-4.89 10.71-7.75 15.77l51.66 69.23c6.25 8.38 10.81 17.66 13.57 27.44 33.17-43.16 52.9-97.21 52.9-155.85 0-141.38-114.62-256-256-256zm-72.99 210.62c0-15.95-12.97-28.92-28.91-28.92-15.95 0-28.92 12.97-28.92 28.92h-30c0-32.49 26.43-58.92 58.92-58.92 32.48 0 58.91 26.43 58.91 58.92zm203.81 0c0-15.95-12.97-28.92-28.92-28.92-15.94 0-28.91 12.97-28.91 28.92h-30c0-32.49 26.43-58.92 58.91-58.92 32.49 0 58.92 26.43 58.92 58.92z"/><path d="m375.65 340.93c-24.62 28.22-58.86 47.01-96.29 52.93l54.91 73.58c17.555 23.53 52.684 28.561 76.15 11.06 10.235-7.637 20.012-23.01 21.35-36.38 1.91-14.21-1.73-28.3-10.29-39.77z"/></g></svg>