<?xml version="1.0" encoding="iso-8859-1"?>
<!-- Generator: Adobe Illustrator 19.0.0, SVG Export Plug-In . SVG Version: 6.00 Build 0)  -->
<svg xmlns="http://www.w3.org/2000/svg" xmlns:xlink="http://www.w3.org/1999/xlink" version="1.1" id="Layer_1" x="0px" y="0px" viewBox="0 0 512 512" style="enable-background:new 0 0 512 512;" xml:space="preserve">
<g>
	<g>
		<polygon points="429.878,103.366 429.878,103.365 512,21.243 490.757,0 408.643,82.115 310.691,50.212 255.393,105.509     321.386,172.163 300.046,193.303 234.143,126.759 199.054,161.849 265.047,228.502 243.707,249.642 177.804,183.099     142.715,218.188 208.708,284.842 187.367,305.981 121.465,239.438 71.616,289.287 37.405,255.076 16.162,276.319 94.174,354.331     43.605,404.9 43.602,404.903 21.243,382.543 0,403.786 108.214,512 129.456,490.757 107.097,468.398 157.674,417.831     235.681,495.838 256.924,474.595 222.718,440.389 461.793,201.314   "/>
	</g>
</g>
<g>
</g>
<g>
</g>
<g>
</g>
<g>
</g>
<g>
</g>
<g>
</g>
<g>
</g>
<g>
</g>
<g>
</g>
<g>
</g>
<g>
</g>
<g>
</g>
<g>
</g>
<g>
</g>
<g>
</g>
</svg>
