<svg id="Capa_1" enable-background="new 0 0 512 512" height="512" viewBox="0 0 512 512" width="512" xmlns="http://www.w3.org/2000/svg"><g><path d="m267.48 317.927-11.479-30.611-11.48 30.611z"/><path d="m323.5 182.924c12.406 0 22.5-10.094 22.5-22.5v-30c0-12.406-10.094-22.5-22.5-22.5s-22.5 10.094-22.5 22.5v30c0 12.407 10.094 22.5 22.5 22.5z"/><path d="m0 .024v455.8h190.522l65.546 56.152 65.546-56.152h190.386v-455.8zm311 272.903v-30h105v30h-37.5v105h-30v-105zm-140 30v30h-45v45h-30v-135h105v30h-75v30zm-35-90.003v-135h34.076l40.924 78.128v-78.128h30v135h-34.076l-40.924-78.128v78.128zm104.603 30.015 30.79-.018 48.652 129.739-28.09 10.533-13.225-35.267h-45.46l-13.226 35.268-28.09-10.535zm30.397-82.515v-30c0-28.948 23.552-52.5 52.5-52.5s52.5 23.552 52.5 52.5v30c0 28.948-23.552 52.5-52.5 52.5s-52.5-23.551-52.5-52.5z"/></g></svg>