<svg id="Layer_1" enable-background="new 0 0 512.063 512.063" height="512" viewBox="0 0 512.063 512.063" width="512" xmlns="http://www.w3.org/2000/svg"><g><path d="m67.659 434.751c-13.088-.001-25.66-3.35-36.737-9.643-31.49 9.889-41.459 50.763-17.895 73.96 23.194 23.563 64.079 13.59 73.959-17.897-8.003-13.939-11.219-30.966-8.927-47.135-3.417.474-6.893.715-10.4.715z"/><path d="m239.98 300.275c8.003 13.939 11.219 30.967 8.927 47.136 16.17-2.292 33.195.923 47.136 8.927 31.356-9.637 41.417-51.018 17.895-73.96-23.193-23.564-64.079-13.589-73.958 17.897z"/><path d="m211.82 272.114c31.489-9.888 41.46-50.763 17.895-73.96-23.193-23.564-64.08-13.59-73.959 17.896 8.003 13.94 11.219 30.968 8.927 47.137 16.17-2.291 33.195.924 47.137 8.927z"/><path d="m138.283 401.971c-31.489 9.888-41.459 50.763-17.895 73.959 23.203 23.574 64.109 13.581 73.969-17.928-8.169-14.455-11.134-31.079-8.893-47.11-16.184 2.304-33.228-.91-47.181-8.921z"/><path d="m101.239 326.668c-16.182 2.303-33.226-.91-47.18-8.921-31.355 9.638-41.418 51.017-17.896 73.96 23.206 23.574 64.108 13.58 73.969-17.928-8.169-14.455-11.133-31.079-8.893-47.111z"/><path d="m219.622 337.023c.5-23.949-20.589-45.047-44.54-44.55-39.263-.329-59.523 48.494-31.557 76.098 8.41 8.411 19.595 13.043 31.495 13.043 23.964.494 45.092-20.625 44.602-44.591z"/><path d="m290.803 389.739c-16.591-17.288-46.444-17.269-63.033.022-27.961 27.6-7.794 76.402 31.475 76.075 39.265.33 59.521-48.497 31.558-76.097z"/><path d="m46.257 252.838c-.075 39.494 48.216 59.451 76.076 31.486 17.289-16.588 17.313-46.441.021-63.033-27.874-27.964-76.161-7.919-76.097 31.547z"/><path d="m507.682 138.357c-28.494-28.494-68.89-38.008-105.333-28.542 8.301-53.384-29.694-75.623-61.946-109.815l-25.574 25.573c-31.402 31.403-31.402 82.499 0 113.901l18.289 18.289-8.47 8.47c-23.819-11.599-53.716 1.332-61.53 26.679 8.004 13.94 11.219 30.968 8.927 47.137 16.17-2.292 33.195.923 47.137 8.927 25.514-7.695 38.175-38.365 26.663-61.514l27.892-27.892c32.683-32.947 86.688-30.316 117.083 4.351l21.213-21.213z"/></g></svg>