<svg id="Layer_1" enable-background="new 0 0 505.581 505.581" height="512" viewBox="0 0 505.581 505.581" width="512" xmlns="http://www.w3.org/2000/svg"><g id="XMLID_1219_"><path id="XMLID_1649_" d="m414.505 180c-6.597-45.916-43.008-82.327-88.924-88.924v28.924h-30v-28.924c-45.916 6.597-82.327 43.008-88.924 88.924h28.924v30h-28.924c6.597 45.915 43.008 82.327 88.924 88.924v-28.924h30v28.924c45.916-6.597 82.327-43.009 88.924-88.924h-28.924v-30zm-84.531 55.606-34.394-34.393v-51.213h30v38.786l25.606 25.607z"/><path id="XMLID_1659_" d="m310.581 0c-107.523 0-195 87.477-195 195 0 48.374 17.713 92.685 46.984 126.804l-39.466 39.465-18.327-18.328-45.279 44.758 58.934 58.935 45.279-44.758-19.393-19.394 39.465-39.465c34.118 29.27 78.429 46.983 126.803 46.983 107.523 0 195-87.477 195-195s-87.477-195-195-195zm0 330c-74.439 0-135-60.561-135-135s60.561-135 135-135 135 60.561 135 135-60.561 135-135 135z"/><path id="XMLID_1661_" d="m12.206 434.44c-16.274 16.274-16.274 42.66 0 58.935 16.275 16.274 42.66 16.274 58.935 0l25.951-25.652-58.935-58.934z"/></g></svg>