<svg id="Capa_1" enable-background="new 0 0 512 512" height="512" viewBox="0 0 512 512" width="512" xmlns="http://www.w3.org/2000/svg"><g><path d="m241.013 344.114-8.875-5.124-8.875-5.124-17.75 10.248v20.496l17.75 10.248 17.75-10.248z"/><path d="m256.013 318.134 8.875-5.124 8.875-5.124v-20.496l-17.75-10.248-17.75 10.248v20.496l8.875 5.124z"/><path d="m96.013 0h320v49h-320z"/><path d="m279.888 338.99-8.875 5.124v20.496l17.75 10.248 17.75-10.248v-20.496l-17.75-10.248z"/><path d="m406.999 113c-10.329-8.66-17.94-20.5-21.206-34h-259.576c-3.265 13.412-10.825 25.296-21.162 34z"/><path d="m372.013 210h-232v232h232zm-35.5 171.931-47.75 27.568-32.75-18.908-32.75 18.908-47.75-27.568v-55.137l32.75-18.908v-37.816l47.75-27.568 47.75 27.568v37.816l32.75 18.908z"/><path d="m455.13 143h-398.216c-35.13 78.523-43.329 167.901-22.192 251.835l29.291 117.165h384l29.291-117.165c20.951-83.617 13.156-173.037-22.174-251.835zm-53.117 329h-292v-292h292z"/></g></svg>