<svg id="Capa_1" enable-background="new 0 0 512 512" height="512" viewBox="0 0 512 512" width="512" xmlns="http://www.w3.org/2000/svg"><g><path d="m123.667 176.997h61.936v192.505h-61.936z"/><path d="m326.398 176.997h61.936v192.505h-61.936z"/><path d="m215.602 176.997h80.796v192.505h-80.796z"/><path d="m96 399.502v29.938h29.032c6.36 31.523 34.269 55.335 67.639 55.335h48.329v27.225h30v-27.225h48.33c33.37 0 61.279-23.812 67.639-55.335h29.031v-29.938z"/><path d="m416 146.997v-29.894h-29.031c-6.36-31.523-34.269-55.335-67.639-55.335h-20.284c1.833-4.952 2.837-10.303 2.837-15.884.001-25.301-20.582-45.884-45.883-45.884s-45.884 20.583-45.884 45.884c0 5.581 1.004 10.932 2.837 15.884h-20.283c-33.37 0-61.279 23.812-67.639 55.335h-29.031v29.894zm-175.884-101.113c0-8.759 7.125-15.884 15.884-15.884s15.884 7.125 15.884 15.884-7.125 15.884-15.884 15.884-15.884-7.126-15.884-15.884z"/><path d="m15.888 258.271h30v30h-30z"/><path d="m49.577 206.229h30v30h-30z" transform="matrix(.74 -.673 .673 .74 -132.022 100.974)"/><path d="m49.577 310.314h30v30h-30z" transform="matrix(.673 -.74 .74 .673 -219.573 154.264)"/><path d="m466.112 258.271h30v30h-30z"/><path d="m432.424 206.229h30v30.001h-30z" transform="matrix(.673 -.74 .74 .673 -17.238 403.491)"/><path d="m432.423 310.314h30v30h-30z" transform="matrix(.74 -.673 .673 .74 -102.475 385.551)"/></g></svg>