<svg id="Capa_1" enable-background="new 0 0 512 512" height="512" viewBox="0 0 512 512" width="512" xmlns="http://www.w3.org/2000/svg"><g><path d="m483.785 117.082c-15.582 0-28.213 12.631-28.213 28.213v108.001c0 15.547-6.054 30.164-17.048 41.157l-53.545 53.545-21.213-21.213 53.545-53.545c10.997-10.997 10.997-28.891 0-39.888-10.999-10.998-28.892-10.997-39.889 0l-106.422 106.423v172.225h152.688v-52.751l88.311-150.97v-162.984c0-15.582-12.632-28.213-28.214-28.213z"/><path d="m94.689 233.352c-10.997 10.997-10.997 28.891 0 39.888l53.545 53.545-21.213 21.213-53.545-53.545c-10.994-10.993-17.048-25.61-17.048-41.157v-108.001c0-15.582-12.631-28.213-28.213-28.213-15.582 0-28.213 12.631-28.213 28.213v162.984l88.311 150.97v52.751h152.687v-172.225l-106.423-106.423c-10.996-10.997-28.89-10.998-39.888 0z"/><path d="m256 120.51c-21.001 5.797-37.384 16.582-46.094 29.49h92.189c-8.71-12.909-25.093-23.694-46.095-29.49z"/><path d="m302.094 60h-92.189c8.709 12.909 25.093 23.694 46.095 29.49 21.001-5.797 37.384-16.581 46.094-29.49z"/><path d="m202.973 0h106.055v30h-106.055z"/><path d="m202.973 180h106.055v30h-106.055z"/></g></svg>