<svg id="Capa_1" enable-background="new 0 0 512 512" height="512" viewBox="0 0 512 512" width="512" xmlns="http://www.w3.org/2000/svg"><g><path d="m168.672 189.761h275.859v71.203h-275.859z"/><path d="m0 189.761h138.672v71.203h-138.672z"/><path d="m474.531 189.761h37.469v71.203h-37.469z"/><path d="m257.125 39.823h-153.737c6.469 21.645 26.564 37.469 50.285 37.469h153.737c-6.47-21.645-26.564-37.469-50.285-37.469z"/><path d="m221.141 144.761h288.674c-6.469-21.645-26.563-37.469-50.284-37.469h-288.675c6.47 21.645 26.565 37.469 50.285 37.469z"/><path d="m325.394 290.964-69.394 69.393-69.394-69.393-21.212 21.213 69.393 69.393-69.393 69.394 21.212 21.213 69.394-69.394 69.394 69.394 21.212-21.213-69.393-69.394 69.393-69.393z"/></g></svg>