<svg id="Capa_1" enable-background="new 0 0 512 512" height="512" viewBox="0 0 512 512" width="512" xmlns="http://www.w3.org/2000/svg"><g id="XMLID_482_"><path id="XMLID_488_" d="m487.516 377.295-.009-.52c-.366-18.901-8.085-36.828-21.737-50.48l-.103-.103c-49.541-49.541-76.825-115.411-76.825-185.474v-7.888c0-41.668-19.927-81.435-53.354-106.413-23.129-17.282-50.615-26.417-79.488-26.417s-56.36 9.135-79.489 26.418c-33.41 24.965-53.338 64.768-53.307 106.477l.01 8.907c.035 69.291-26.941 134.426-75.96 183.403l-.785.784c-13.817 13.806-21.622 31.862-21.978 50.853l-.007.453c-.363 26.072 9.511 50.647 27.804 69.197 18.297 18.553 42.723 28.771 68.778 28.771h15.93l-18.614-27.05c-10.64-15.374-28.191-24.571-46.927-24.571v-30.039c28.593 0 55.379 14.037 71.65 37.548l24.119 35.049 2.402 3.139c20.439 26.713 52.722 42.661 86.356 42.661 33.387 0 65.526-15.759 85.968-42.155l2.862-3.696 24.191-34.952c16.272-23.511 43.057-37.547 71.65-37.547v30.039c-18.736 0-36.288 9.198-46.95 24.604l-18.686 26.971h15.916c26.055 0 50.482-10.218 68.779-28.772 18.293-18.551 28.167-43.125 27.804-69.197zm-193.258-30.054c-10.219-10.219-23.805-15.847-38.258-15.847-14.452 0-28.039 5.628-38.258 15.847l-21.241-21.241c15.893-15.892 37.023-24.645 59.499-24.645s43.607 8.753 59.498 24.645z"/></g></svg>