<svg id="Capa_1" enable-background="new 0 0 512.004 512.004" height="512" viewBox="0 0 512.004 512.004" width="512" xmlns="http://www.w3.org/2000/svg"><g id="XMLID_1086_"><path id="XMLID_1087_" d="m199.329 84.698v51.67h312.17v-136.368h-350.01c23.214 20.863 37.84 51.103 37.84 84.698z"/><path id="XMLID_1152_" d="m511.502 378.89v133.11h-349.297c22.806-20.934 37.127-50.986 37.127-84.308v-48.802z"/><path id="XMLID_1096_" d="m199.329 166.561h312.17v182.138h-312.17z"/><path id="XMLID_1097_" d="m85.445 254.012c30.781 0 59.507-10.142 83.692-27.613v-64.553c-20.824 22.572-50.633 36.736-83.692 36.736-33.727 0-64.071-14.742-84.942-38.115v65.019c24.441 18.031 53.628 28.526 84.942 28.526z"/><path id="XMLID_1098_" d="m.502 263.916v116.225c24.442 18.03 53.629 28.526 84.943 28.526 30.781 0 59.507-10.142 83.692-27.613v-116.413c-25.164 14.623-53.599 23.428-83.692 23.428-30.592 0-59.473-9.093-84.943-24.153z"/><path id="XMLID_1099_" d="m85.445 442.723c-30.591 0-59.472-9.093-84.943-24.153v9.117c0 46.493 37.825 84.317 84.317 84.317 46.493 0 84.317-37.824 84.317-84.317v-8.392c-25.164 14.623-53.598 23.428-83.691 23.428z"/><path id="XMLID_1103_" d="m85.445 168.389c46.148 0 83.692-37.544 83.692-83.691 0-46.148-37.544-83.692-83.692-83.692-46.147 0-83.691 37.544-83.691 83.692-.001 46.147 37.543 83.691 83.691 83.691zm-49.272-83.691c0-27.169 22.103-49.272 49.272-49.272s49.272 22.103 49.272 49.272-22.103 49.272-49.272 49.272-49.272-22.103-49.272-49.272z"/><circle id="XMLID_1104_" cx="85.445" cy="84.698" r="19.079"/></g></svg>