<svg id="Capa_1" enable-background="new 0 0 512 512" height="512" viewBox="0 0 512 512" width="512" xmlns="http://www.w3.org/2000/svg"><g><path d="m360.076 322.5h78.653l-5.125-30h-68.403z"/><path d="m217.29 292.5h77.42l-4.509-30h-68.402z"/><path d="m476.149 71.701h-70.153c-4.554-23.226-25.013-40.752-49.573-40.752h-16.905c-12.935-18.697-34.522-30.949-58.98-30.949-31.217 0-57.76 19.956-67.605 47.801h-43.611c-17.69 0-33.124 9.617-41.39 23.9h-92.081c-19.8 0-35.851 16.051-35.851 35.851s16.051 35.851 35.851 35.851h44.88v119.097h63.734v-119.098h79.668v89.098h63.734v-89.098h79.668v119.098h63.734v-119.098h44.88c19.8 0 35.851-16.051 35.851-35.851s-16.051-35.85-35.851-35.85z"/><path d="m212.781 322.5-28.482 189.5h143.402l-28.482-189.5z"/><path d="m327.701 512h143.403l-27.25-159.5h-88.903z"/><path d="m68.146 352.5-27.25 159.5h143.403l-27.25-159.5z"/><path d="m146.799 292.5h-68.403l-5.125 30h78.653z"/></g></svg>