<?xml version="1.0" encoding="iso-8859-1"?>
<!-- Generator: Adobe Illustrator 19.0.0, SVG Export Plug-In . SVG Version: 6.00 Build 0)  -->
<svg xmlns="http://www.w3.org/2000/svg" xmlns:xlink="http://www.w3.org/1999/xlink" version="1.1" id="Layer_1" x="0px" y="0px" viewBox="0 0 512 512" style="enable-background:new 0 0 512 512;" xml:space="preserve">
<g>
	<g>
		<rect y="148.41" width="67.836" height="30"/>
	</g>
</g>
<g>
	<g>
		<rect x="33.329" y="59.796" transform="matrix(0.6654 -0.7465 0.7465 0.6654 -53.7865 67.4353)" width="30" height="67.838"/>
	</g>
</g>
<g>
	<g>
		<rect x="14.397" y="218.096" transform="matrix(0.7465 -0.6654 0.6654 0.7465 -142.8519 91.2404)" width="67.838" height="30"/>
	</g>
</g>
<g>
	<g>
		<path d="M390.588,139.726c-13.152,0.005-23.938,10.716-24.029,23.876c-0.046,6.46,2.435,12.541,6.983,17.122    c4.546,4.578,10.602,7.101,17.052,7.105c6.45-0.004,12.506-2.527,17.052-7.105c4.549-4.581,7.028-10.661,6.982-17.121    C414.536,150.442,403.752,139.731,390.588,139.726z"/>
	</g>
</g>
<g>
	<g>
		<path d="M473.991,75.757c-24.208-22.93-55.785-34.759-88.865-33.287c-13.022,0.576-25.766,3.214-37.875,7.84    c-47.147,18.012-90.006,30.122-144.939,30.608V246.63c53.095,0.321,94.917,11.712,140.37,28.876v137.519    c0,31.224,25.402,56.627,56.627,56.627c31.225,0,56.627-25.403,56.627-56.627V266.128c35.211-22.476,56.482-61.379,56.058-103.594    C511.661,129.473,498.165,98.655,473.991,75.757z M428.934,201.862c-10.217,10.289-23.826,15.959-38.324,15.967h-0.031    c-14.498-0.008-28.107-5.678-38.323-15.966c-10.224-10.295-15.798-23.958-15.696-38.471c0.209-29.58,24.446-53.654,54.029-53.666    c29.596,0.012,53.833,24.086,54.04,53.666C444.73,177.904,439.156,191.567,428.934,201.862z"/>
	</g>
</g>
<g>
	<g>
		<polygon points="102.292,63.609 102.292,263.948 172.312,249.918 172.312,77.639   "/>
	</g>
</g>
<g>
</g>
<g>
</g>
<g>
</g>
<g>
</g>
<g>
</g>
<g>
</g>
<g>
</g>
<g>
</g>
<g>
</g>
<g>
</g>
<g>
</g>
<g>
</g>
<g>
</g>
<g>
</g>
<g>
</g>
</svg>
