<svg id="Capa_1" enable-background="new 0 0 512 512" height="512" viewBox="0 0 512 512" width="512" xmlns="http://www.w3.org/2000/svg"><g><path d="m271 60h30v30h-30v30h30v30h-30v30h30v30h-30v30h30v73.671l10.978 61.47c2.966 16.613-1.546 33.562-12.38 46.5-10.832 12.939-26.724 20.359-43.598 20.359-16.875 0-32.766-7.421-43.599-20.359s-15.345-29.887-12.378-46.499l10.977-61.47v-73.672h30v-30h-30v-30h30v-30h-30v-30h30v-30h-30v-30h30v-60h-72v512h174v-512h-72z"/><path d="m241 270h30v30h-30z"/><path d="m229.556 380.415c-1.401 7.848.73 15.854 5.847 21.967 5.118 6.112 12.625 9.618 20.597 9.618s15.479-3.506 20.596-9.617c5.118-6.113 7.25-14.12 5.849-21.968l-9.004-50.415h-34.883z"/><path d="m0 0h139v512h-139z"/><path d="m373 0h139v512h-139z"/></g></svg>