<svg id="Capa_1" enable-background="new 0 0 512 512" height="512" viewBox="0 0 512 512" width="512" xmlns="http://www.w3.org/2000/svg"><g><path d="m402.605 99.408-21.21-21.211-55.606 55.606 55.606 55.605 21.21-21.211-19.394-19.394h128.789v-30h-128.789z"/><path d="m402.605 249.408-21.21-21.211-55.606 55.606 55.606 55.605 21.21-21.211-19.394-19.394h128.789v-30h-128.789z"/><path d="m482 373.803h-332c-49.629 0-90-40.371-90-90s40.371-90 90-90h30c16.538 0 30 13.462 30 30s-13.462 30-30 30h-30c-16.538 0-30 13.462-30 30s13.462 30 30 30h30c49.629 0 90-40.371 90-90s-40.371-90-90-90h-30c-82.705 0-150 67.295-150 150s67.295 150 150 150h332c16.538 0 30-13.462 30-30s-13.462-30-30-30z"/></g></svg>