<svg id="Capa_1" enable-background="new 0 0 512 512" height="512" viewBox="0 0 512 512" width="512" xmlns="http://www.w3.org/2000/svg"><g><path d="m394.437 248.456c0-29.041-23.627-52.668-52.668-52.668-12.498 0-23.986 4.384-33.027 11.684 15.066 29.809 26.875 62.623 34.039 93.627 28.574-.544 51.656-23.942 51.656-52.643z"/><path d="m341.769 0c-46.742 0-88.501 49.77-116.065 108.077 7.782 4.697 15.449 10.395 22.979 17.099 16.218 14.44 31.421 33.19 45.336 55.861 13.498-9.588 29.971-15.25 47.751-15.25 45.583 0 82.668 37.085 82.668 82.668 0 43.391-33.61 79.055-76.16 82.388 1.466 10.832 2.247 21.207 2.247 30.864 0 9.585-.752 19.056-2.226 28.38 79.974-3.42 143.763-69.327 143.763-150.143-.001-83.003-67.289-239.944-150.293-239.944z"/><path d="m170.231 121.763c-83.004 0-150.292 156.94-150.292 239.945s67.288 150.292 150.292 150.292 150.292-67.288 150.292-150.292-67.287-239.945-150.292-239.945zm0 331.124c-45.583 0-82.668-37.085-82.668-82.668s37.085-82.668 82.668-82.668 82.668 37.085 82.668 82.668-37.084 82.668-82.668 82.668z"/><circle cx="170.231" cy="370.219" r="52.668"/></g></svg>