<?xml version="1.0" encoding="iso-8859-1"?>
<!-- Generator: Adobe Illustrator 19.0.0, SVG Export Plug-In . SVG Version: 6.00 Build 0)  -->
<svg xmlns="http://www.w3.org/2000/svg" xmlns:xlink="http://www.w3.org/1999/xlink" version="1.1" id="Capa_1" x="0px" y="0px" viewBox="0 0 512 512" style="enable-background:new 0 0 512 512;" xml:space="preserve">
<g>
	<g>
		<path d="M186.226,466.178C197.944,493.113,224.802,512,256,512c31.198,0,58.056-18.888,69.774-45.822H186.226z"/>
	</g>
</g>
<g>
	<g>
		<path d="M21.426,0L0.197,21.229l83.322,83.322C69.057,131.787,60.85,162.83,60.85,195.758v119.092L0.804,374.896v61.26h414.319    l75.451,75.451l21.229-21.229L21.426,0z"/>
	</g>
</g>
<g>
	<g>
		<path d="M451.15,314.849V195.758c0-107.606-87.544-195.15-195.15-195.15c-52.879,0-100.904,21.15-136.085,55.424L500.04,436.156    h11.156v-61.26L451.15,314.849z"/>
	</g>
</g>
<g>
</g>
<g>
</g>
<g>
</g>
<g>
</g>
<g>
</g>
<g>
</g>
<g>
</g>
<g>
</g>
<g>
</g>
<g>
</g>
<g>
</g>
<g>
</g>
<g>
</g>
<g>
</g>
<g>
</g>
</svg>
