<svg id="Layer_1" enable-background="new 0 0 511.978 511.978" height="512" viewBox="0 0 511.978 511.978" width="512" xmlns="http://www.w3.org/2000/svg"><g><path d="m287.314 168.042h-88.665v52.027h88.665c14.344 0 26.014-11.67 26.014-26.014s-11.67-26.013-26.014-26.013z"/><path d="m0 0v511.978h511.978v-511.978zm287.314 310.073h-88.665v123.866h-90.004v-355.901h178.669c63.973 0 116.018 52.045 116.018 116.018s-52.045 116.017-116.018 116.017z"/><path d="m287.314 108.038h-148.668v295.901h30.004v-123.866h118.665c47.431 0 86.018-38.587 86.018-86.018s-38.588-86.017-86.019-86.017zm0 142.031h-118.665v-112.027h118.665c30.886 0 56.014 25.128 56.014 56.014s-25.128 56.013-56.014 56.013z"/></g></svg>