<svg id="Capa_1" enable-background="new 0 0 512 512" height="512" viewBox="0 0 512 512" width="512" xmlns="http://www.w3.org/2000/svg"><g><path d="m150.82 382.195h89.72v30h-89.72z"/><path d="m151.19 99.805h209.98v72.561h-209.98z"/><path d="m52.36 0v512h407.28v-512zm68.83 69.805h269.98v132.561h-269.98zm59.99 192.39v-30h30v30zm30 30v30h-30v-30zm-90-60h30v30h-30zm0 60h30v30h-30zm149.359 150h-149.719v-90h149.719zm.641-120h-30v-30h30zm0-60h-30v-30h30zm60 180h-30v-30h30zm0-60h-30v-30h30zm0-60h-30v-30h30zm0-60h-30v-30h30zm60 180h-30v-30h30zm0-60h-30v-30h30zm0-60h-30v-30h30zm0-60h-30v-30h30z"/></g></svg>