<svg id="Capa_1" enable-background="new 0 0 512 512" height="512" viewBox="0 0 512 512" width="512" xmlns="http://www.w3.org/2000/svg"><g><path d="m241 171.806-60 20.004v59.326c0 42.951 23.447 81.592 60 101.867z"/><path d="m512 301v-90h-66.42c-4.775-20.361-12.715-39.536-23.701-57.246l46.26-46.245-63.633-63.633-46.26 46.245c-17.607-10.84-37.031-18.882-57.246-23.686v-66.435h-90v66.435c-20.215 4.805-39.639 12.847-57.246 23.687l-46.26-46.245-63.633 63.633 46.26 46.245c-10.986 17.709-18.926 36.884-23.701 57.245h-66.42v90h66.42c4.775 20.361 12.715 39.536 23.701 57.246l-46.26 46.245 63.633 63.633 46.26-46.245c17.607 10.84 37.031 18.882 57.246 23.687v66.434h90v-66.435c20.215-4.805 39.639-12.847 57.246-23.687l46.26 46.245 63.633-63.633-46.26-46.245c10.986-17.71 18.926-36.885 23.701-57.246h66.42zm-151-49.863c0 63.208-40.283 119.106-100.254 139.087l-4.746 1.582-4.746-1.582c-59.971-19.981-100.254-75.879-100.254-139.087v-80.947l105-34.995 105 34.995z"/><path d="m271 353.004c36.553-20.275 60-58.916 60-101.867v-59.326l-60-20.004z"/></g></svg>