<svg id="Capa_1" enable-background="new 0 0 512 512" height="512" viewBox="0 0 512 512" width="512" xmlns="http://www.w3.org/2000/svg"><g><path d="m226 180c3.697 0 63.704 0 60 0 17.256 0 32.725-9.624 40.371-25.107 5.349-10.818 5.511-22.892 1.708-34.893h-55.302c2.741-19.14 8.78-34.946 18.349-46.875 6.373-7.954 9.874-17.93 9.874-28.125 0-24.814-20.186-45-45-45s-45 20.186-45 45v15h30v-15c0-8.276 6.724-15 15-15s15 6.724 15 15c0 4.351-1.787 7.5-3.281 9.36-13.74 17.124-22.222 39.141-25.356 65.64h-58.442c-3.803 12.001-3.64 24.075 1.708 34.893 7.646 15.483 23.115 25.107 40.371 25.107z"/><path d="m451.747 159.536c-24.844-24.844-57.722-38.584-92.765-39.274 3.177 16.377 1.705 32.917-5.702 47.917-12.744 25.796-38.525 41.821-67.28 41.821h-15v66.969l45 30.004v113.027h-120v-113.027l45-30.004v-66.969h-15c-28.755 0-54.536-16.025-67.28-41.821-7.407-15-8.879-31.54-5.702-47.917-35.043.69-67.921 14.431-92.765 39.274l-60.253 59.895 78.853 98.569 12.147-11.789v205.789h330v-205.789l12.147 12.789 78.853-98.569z"/><path d="m226 390h60v-66.973l-30-19.995-30 19.995z"/></g></svg>