<svg id="Capa_1" enable-background="new 0 0 512 512" height="512" viewBox="0 0 512 512" width="512" xmlns="http://www.w3.org/2000/svg"><g><path d="m255.999 30c37.171.001 72.116 14.477 98.4 40.761l21.213-21.213c-31.949-31.95-74.428-49.547-119.612-49.548-.003 0 0 0-.002 0-45.181 0-87.662 17.597-119.609 49.544l21.213 21.213c26.282-26.282 61.227-40.757 98.397-40.757z"/><path d="m309.305 114.758 21.213-21.213c-19.905-19.905-46.37-30.867-74.518-30.867-.002 0 0 0-.002 0-28.147 0-54.612 10.962-74.515 30.865l21.213 21.213c14.237-14.238 33.167-22.079 53.303-22.078 20.137 0 39.067 7.842 53.306 22.08z"/><path d="m0 314.496h70.5v130h-70.5z"/><path d="m341 364.497h-30v-61.421c-16.4 8.8-35.13 13.79-55 13.79s-38.6-4.99-55-13.79v61.421h-30v-50.001h-70.5v130h70.5v-49.999h30v33.999h110v-33.999h30v49.999h70.5v-130h-70.5z"/><path d="m441.5 314.496h70.5v130h-70.5z"/><path d="m169.268 200.137c0 47.825 38.908 86.733 86.733 86.733 47.826 0 86.734-38.908 86.734-86.733v-15.979h-44.305c1.664-4.694 2.571-9.743 2.571-15 0-24.813-20.187-45-45-45s-44.999 20.187-44.999 45c0 5.257.906 10.306 2.571 15h-44.305z"/><path d="m256 512c29.827 0 54.184-23.866 54.98-53.504h-109.96c.796 29.638 25.153 53.504 54.98 53.504z"/></g></svg>