<svg id="Capa_1" enable-background="new 0 0 510.012 510.012" height="512" viewBox="0 0 510.012 510.012" width="512" xmlns="http://www.w3.org/2000/svg"><g><path d="m67.727 390.012h60v60h-60z" transform="matrix(.707 -.707 .707 .707 -268.369 192.12)"/><path d="m225.006 390.012h60v60h-60z" transform="matrix(.707 -.707 .707 .707 -222.303 303.333)"/><path d="m375.006 390.012h60v60h-60z" transform="matrix(.707 -.707 .707 .707 -178.37 409.402)"/><path d="m165.006 480.012h30v30h-30z"/><path d="m315.006 480.012h30v30h-30z"/><path d="m430.316 148.903c0-64.852-56.731-108.146-112.395-97.91 8.402 21.499 10.683 45.449 5.561 69.02h-30.949c11.63-39.415-4.077-75.131-37.526-99.284-48.889-35.303-117.456-24.959-153.914 26.801-19.528 27.726-27.31 64.383-16.748 101.072-46.862 1.8-84.34 41.683-84.34 90.66 0 50.26 39.374 90.75 87.66 90.75h77.34v30h30v-30h120v30h30v-30h77.34c48.234 0 87.66-40.439 87.66-90.75.001-47.122-34.784-86.157-79.689-90.359z"/></g></svg>