<svg id="Capa_1" enable-background="new 0 0 512 512" height="512" viewBox="0 0 512 512" width="512" xmlns="http://www.w3.org/2000/svg"><g><path d="m15 328.704 18.463-10.66c3.79 3.229 8.141 5.816 12.894 7.583v21.181h30v-21.181c4.753-1.768 9.105-4.355 12.894-7.583l18.463 10.66 15-25.98-18.814-10.862c.33-2.148.502-4.347.502-6.587 0-2.656-.253-5.251-.714-7.774l19.026-10.985-15-25.98-19.393 11.196c-3.566-2.871-7.596-5.187-11.965-6.812v-22.49h-30v22.489c-4.369 1.625-8.398 3.941-11.965 6.812l-19.391-11.196-15 25.98 19.026 10.985c-.46 2.523-.714 5.118-.714 7.774 0 2.24.172 4.44.502 6.587l-18.814 10.862z"/><path d="m493.687 196.404c0-2.656-.253-5.251-.714-7.774l19.027-10.984-15-25.98-19.393 11.196c-3.566-2.87-7.596-5.187-11.965-6.812v-22.489h-30v22.489c-4.369 1.625-8.398 3.941-11.965 6.812l-19.393-11.196-15 25.98 19.026 10.985c-.46 2.523-.714 5.118-.714 7.774 0 2.24.172 4.44.502 6.587l-18.814 10.862 15 25.98 18.463-10.66c3.79 3.229 8.141 5.816 12.894 7.584v21.18h30v-21.18c4.753-1.768 9.105-4.355 12.894-7.584l18.465 10.661 15-25.98-18.814-10.862c.33-2.149.501-4.349.501-6.589z"/><path d="m209.873 95c10.106 0 19.608 3.936 26.754 11.081 5.175 5.176 12.055 8.025 19.373 8.025s14.198-2.85 19.372-8.024c7.148-7.146 16.649-11.082 26.755-11.082 32.959 0 60.078 25.409 62.841 57.664 6.505-8.224 10.866-17.925 10.508-29.039 0-66.533-51.898-123.625-119.421-123.625-69.064 0-122.341 53.658-122.341 122.297-.166 13.723 5.404 23.917 13.183 32.139 1.9-33.093 29.415-59.436 62.976-59.436z"/><path d="m335.217 158.089c0-18.245-14.844-33.089-33.089-33.089-2.094 0-4.062.815-5.542 2.296-10.84 10.84-25.254 16.811-40.585 16.811s-29.745-5.971-40.586-16.812c-1.479-1.479-3.448-2.295-5.542-2.295-18.246 0-33.089 14.844-33.089 33.089v80.622c-.001 47.028 35.536 85.289 79.216 85.289s79.217-38.261 79.217-85.289zm-55.515 124.752c-.683-3.014-5.032-18.048-23.649-18.048-18.618 0-22.967 15.034-23.649 18.048l.038-.182-29.424-5.854c2.891-14.531 17.695-42.013 53.035-42.013s50.144 27.481 53.035 42.013l-29.424 5.854z"/><path d="m388.866 376.14-41.448-9.112c-5.931 17.932-16.448 33.1-30.985 44.423-16.792 13.078-38.254 20.281-60.433 20.281s-43.641-7.203-60.433-20.281c-14.537-11.323-25.054-26.491-30.985-44.423l-41.448 9.112c-67.087 14.659-116.8 69.51-123.134 135.86h85.036v-62.388h30v62.388h281.927v-71.5h30v71.5h85.037c-6.334-66.35-56.047-121.201-123.134-135.86z"/><path d="m202.201 339.012-9.741 16.762c10.052 33.687 39.631 45.957 63.54 45.957s53.487-12.27 63.54-45.957l-9.741-16.763c-15.89 9.535-34.252 14.989-53.799 14.989s-37.909-5.454-53.799-14.988z"/></g></svg>