<svg id="Capa_1" enable-background="new 0 0 512 512" height="512" viewBox="0 0 512 512" width="512" xmlns="http://www.w3.org/2000/svg"><g><path d="m308.93 40.983h-105.86c-43.05 0-78.07 35.02-78.07 78.07v53.93h30v-53.93c0-26.5 21.57-48.07 48.07-48.07h105.86c26.5 0 48.07 21.57 48.07 48.07v53.93h30v-53.93c0-43.05-35.02-78.07-78.07-78.07z"/><path d="m0 471.017h94.79l-94.79-94.815z"/><path d="m0 333.763 95 95.01v-225.791h-95z"/><path d="m417 202.982v225.791l95-95.01v-130.781z"/><path d="m125 471.017h262v-135.704c-5.7 2.37-11.95 3.67-18.5 3.67-26.74 0-48.5-21.76-48.5-48.5s21.76-48.5 48.5-48.5c6.55 0 12.8 1.3 18.5 3.67v-42.67h-262zm96.78-249.464 21.21 21.21-42.42 42.42-21.22-21.21zm-58.78 114.43h97v97h-97z"/><path d="m512 471.017v-94.815l-94.79 94.815z"/><path d="m95 471.017h-.21z"/><path d="m417 471.017h.21z"/><path d="m193 365.983h37v37h-37z"/><circle cx="368.5" cy="290.483" r="18.5"/></g></svg>