<svg id="Capa_1" enable-background="new 0 0 512 512" height="512" viewBox="0 0 512 512" width="512" xmlns="http://www.w3.org/2000/svg"><g><circle cx="347" cy="105" r="15"/><path d="m482 75c-24.813 0-45-20.187-45-45v-30h-180v30c0 24.813-20.187 45-45 45h-30v60h30c24.813 0 45 20.187 45 45v30h180v-30c0-24.813 20.187-45 45-45h30v-60zm-90 30c0 24.813-20.187 45-45 45s-45-20.187-45-45 20.187-45 45-45 45 20.187 45 45z"/><path d="m482 165c-8.271 0-15 6.729-15 15v30h45v-45z"/><path d="m212 45c8.271 0 15-6.729 15-15v-30h-45v45z"/><path d="m227 180c0-8.271-6.729-15-15-15h-30v45h45z"/><path d="m467 30c0 8.271 6.729 15 15 15h30v-45h-45z"/><path d="m116.706 187.877-21.213-21.213-22.123 22.123v-68.787h78.63v-30h-108.63v98.787l-22.123-22.123-21.213 21.213 58.336 58.336z"/><path d="m395.294 324.123 21.213 21.213 22.123-22.123v68.787h-168.63v30h198.63v-98.787l22.124 22.123 21.213-21.213-58.337-58.336z"/><path d="m165 362h-90v-90h-75v240h240v-240h-75zm15 90v30h-120v-30z"/><path d="m105 272h30v60h-30z"/></g></svg>