<svg id="Capa_1" enable-background="new 0 0 511.98 511.98" height="512" viewBox="0 0 511.98 511.98" width="512" xmlns="http://www.w3.org/2000/svg"><g><path d="m481.507 236.422c-17.719-.486-32.235 13.733-32.235 31.342v-9.799c0-17.084-13.395-31.526-30.473-31.994-17.719-.486-32.235 13.733-32.235 31.342l-.036-9.427c0-17.317-14.038-31.354-31.354-31.354s-31.354 14.038-31.354 31.354v-158.618c0-17.084-13.395-31.526-30.473-31.994-17.719-.486-32.235 13.733-32.235 31.342v198.225h-14.835c-15.62 0-28.283 12.663-28.283 28.283v49.555c0 81.182 65.811 146.993 146.993 146.993 81.182 0 146.993-65.811 146.993-146.993v-96.262c0-17.086-13.395-31.527-30.473-31.995z"/><path d="m63.951 42.725 21.213 21.213 21.202-21.202 21.203 21.202 21.213-21.213-42.416-42.415z"/><path d="m106.366 170.614-21.202-21.202-21.213 21.213 42.415 42.415 42.416-42.415-21.213-21.213z"/><path d="m149.104 85.473 21.202 21.202-21.202 21.202 21.212 21.213 42.417-42.415-42.417-42.415z"/><path d="m42.417 64.26-42.417 42.415 42.417 42.415 21.213-21.213-21.202-21.202 21.202-21.202z"/></g></svg>