<?xml version="1.0" encoding="iso-8859-1"?>
<!-- Generator: Adobe Illustrator 19.0.0, SVG Export Plug-In . SVG Version: 6.00 Build 0)  -->
<svg xmlns="http://www.w3.org/2000/svg" xmlns:xlink="http://www.w3.org/1999/xlink" version="1.1" id="Layer_1" x="0px" y="0px" viewBox="0 0 512.004 512.004" style="enable-background:new 0 0 512.004 512.004;" xml:space="preserve">
<g>
	<g>
		<rect x="0.002" width="88.334" height="512.004"/>
	</g>
</g>
<g>
	<g>
		<path d="M118.336,0v105.499h239.121V0H118.336z M269.666,67.75h-63.539V37.749h63.539V67.75z"/>
	</g>
</g>
<g>
	<g>
		<polygon points="118.336,135.5 118.336,240.999 157.681,240.999 157.681,165.502 302.882,165.502 302.882,180.996     357.457,180.996 357.457,135.5   "/>
	</g>
</g>
<g>
	<g>
		<path d="M272.881,271.001V376.5h239.121V271.001H272.881z M424.211,338.751h-63.539v-30.001h63.539V338.751z"/>
	</g>
</g>
<g>
	<g>
		<path d="M118.336,406.501V512h239.121V406.501H118.336z M269.666,474.251h-63.539V444.25h63.539V474.251z"/>
	</g>
</g>
<g>
	<g>
		<rect x="118.338" y="323.755" width="124.546" height="52.75"/>
	</g>
</g>
<g>
	<g>
		<polygon points="272.881,210.998 272.881,195.503 187.683,195.503 187.683,293.749 242.879,293.749 242.879,240.999     416.796,240.999 416.796,210.998   "/>
	</g>
</g>
<g>
</g>
<g>
</g>
<g>
</g>
<g>
</g>
<g>
</g>
<g>
</g>
<g>
</g>
<g>
</g>
<g>
</g>
<g>
</g>
<g>
</g>
<g>
</g>
<g>
</g>
<g>
</g>
<g>
</g>
</svg>
