<svg id="Capa_1" enable-background="new 0 0 512 512" height="512" viewBox="0 0 512 512" width="512" xmlns="http://www.w3.org/2000/svg"><g><path d="m82.925 474.531c-13.118 0-25.339-3.885-35.602-10.544v48.013h206.141v-48.013c-10.262 6.659-22.483 10.544-35.602 10.544z"/><path d="m114.792 272.124h71.203v104.938h-71.203z"/><path d="m203.47 160.492-16.05-160.492h-74.053l-16.05 160.492-24.746 24.746c-16.281 16.281-25.248 37.93-25.248 60.955v162.737c0 19.631 15.971 35.602 35.602 35.602h134.938c19.631 0 35.602-15.971 35.602-35.602v-162.737c0-23.025-8.967-44.674-25.248-60.955zm12.525 246.571h-131.203v-164.939h131.203z"/><path d="m464.677 186.606-21.213-21.212-69.394 69.393-69.393-69.393-21.213 21.212 69.393 69.394-69.393 69.394 21.213 21.212 69.393-69.393 69.394 69.393 21.213-21.212-69.394-69.394z"/></g></svg>