<svg id="Capa_1" enable-background="new 0 0 512 512" height="512" viewBox="0 0 512 512" width="512" xmlns="http://www.w3.org/2000/svg"><g><path d="m423.161 192.194c-1.509-106.232-88.395-192.194-194.98-192.194-107.523 0-195 87.477-195 195 0 53.112 21.784 104.002 60 140.696v176.304h240v-71.581h67.093l10.353-101.707h68.193zm-91.505-12.194v20h-20v20h40v20h-60v-100h60v20h-40v20zm-195.587 20.013c-12.406-4.576-23.424-9.48-23.887-9.687l-.724-.323-.663-.433c-8.436-5.499-12.782-15.144-11.343-25.17 1.534-10.687 9.348-19.392 20.392-22.719 21.862-6.583 39.847 8.253 40.603 8.887l-6.435 7.655-6.377 7.703c-.105-.086-10.645-8.522-22.021-5.095-5.136 1.547-6.161 4.998-6.364 6.41-.146 1.017-.219 3.455 1.958 5.205 2.809 1.229 11.957 5.177 21.783 8.802 20.185 7.445 25.248 22.017 23.256 33.171-2.646 14.822-16.804 25.58-33.663 25.58-13.503 0-26.694-5.661-35.288-15.144l14.82-13.43c4.865 5.368 12.517 8.573 20.468 8.573 7.731 0 13.177-4.625 13.975-9.096 1.061-5.944-6.982-9.595-10.49-10.889zm102.517 39.987h-18.859l-18.07-48.187v48.187h-20v-100h21.93l25.57 68.187 25.57-68.187h21.93v100h-20v-48.187z"/></g></svg>