<?xml version="1.0" encoding="iso-8859-1"?>
<!-- Generator: Adobe Illustrator 19.0.0, SVG Export Plug-In . SVG Version: 6.00 Build 0)  -->
<svg xmlns="http://www.w3.org/2000/svg" xmlns:xlink="http://www.w3.org/1999/xlink" version="1.1" id="Capa_1" x="0px" y="0px" viewBox="0 0 512 512" style="enable-background:new 0 0 512 512;" xml:space="preserve">
<g>
	<g>
		<path d="M271.081,298.35c-3.159-1.75-6.337-3.234-9.347-4.483c0.577,7.428,2.058,16.032,5.433,23.698    c3.891-0.429,7.798-0.472,11.71-0.118c0.88-3.864,2.143-7.599,3.774-11.196C278.155,302.274,273.552,299.719,271.081,298.35z"/>
	</g>
</g>
<g>
	<g>
		<path d="M301.056,385.681c-2.986,2.613-6.198,4.906-9.636,6.86c1.299,5.864,3.523,10.641,4.718,13.201    c1.528,3.274,3.226,6.342,4.927,9.122c3.901-6.352,7.762-14.187,9.536-22.377C307.198,390.545,304.016,388.271,301.056,385.681z"/>
	</g>
</g>
<g>
	<g>
		<path d="M301.057,344.037c-2.171,0-3.938,1.767-3.938,3.938c0,2.172,1.767,3.938,3.938,3.938c2.172,0.001,3.938-1.766,3.938-3.938    C304.995,345.804,303.228,344.037,301.057,344.037z"/>
	</g>
</g>
<g>
	<g>
		<path d="M262.637,400.83c-2.028,0.144-4.081,0.241-6.187,0.241c-3.784,0-7.695-0.242-11.721-0.709    c6.741,7.243,14.855,13.185,23.928,17.413C266.017,412.021,264.01,406.364,262.637,400.83z"/>
	</g>
</g>
<g>
	<g>
		<path d="M233.82,310.56c-4.766,8.53-7.947,18.053-9.164,28.176c4.653-4.286,9.409-7.942,14.243-10.957    C236.762,322.503,235.064,316.756,233.82,310.56z"/>
	</g>
</g>
<g>
	<g>
		<path d="M301.057,271c-5.076,0-10.034,0.507-14.838,1.449c5.521,3.103,10.472,6.5,14.838,10.17    c4.366-3.67,9.317-7.067,14.838-10.17C311.091,271.507,306.133,271,301.057,271z"/>
	</g>
</g>
<g>
	<g>
		<path d="M255.687,352.587c-5.171,3.047-9.024,6.634-11.09,8.561c-2.641,2.464-5.034,5.028-7.152,7.505    c7.243,1.747,15.884,2.997,24.218,2.155c0.794-3.832,1.96-7.561,3.506-11.172C261.766,357.605,258.604,355.25,255.687,352.587z"/>
	</g>
</g>
<g>
	<g>
		<path d="M415.604,84.687c-19.83,0.544-35.383,17.312-35.383,37.15v-59.03c0-20.107-16.3-36.406-36.406-36.406    c-20.107,0-36.406,16.3-36.406,36.406v-26.4C307.408,16.3,291.108,0,271.002,0c-20.107,0-36.406,16.3-36.406,36.406v36.406    c0-20.447-16.855-36.956-37.429-36.392c-19.83,0.544-35.383,17.312-35.383,37.15v237.857l-35.739-57.289    c-10.822-17.348-33.862-22.434-51.019-11.065c-16.537,10.957-20.857,33.416-10.357,50.247l89.069,142.547    C183.33,483.228,235.236,512,291.081,512c89.443,0,161.951-72.508,161.951-161.951v-228.97    C453.033,100.633,436.177,84.123,415.604,84.687z M301.057,454.951c-58.986,0-106.975-47.989-106.975-106.976    S242.07,241,301.057,241s106.976,47.989,106.976,106.975C408.033,406.961,360.043,454.951,301.057,454.951z"/>
	</g>
</g>
<g>
	<g>
		<path d="M368.294,310.56c-1.245,6.196-2.943,11.943-5.08,17.219c4.835,3.015,9.591,6.67,14.244,10.957    C376.241,328.613,373.059,319.09,368.294,310.56z"/>
	</g>
</g>
<g>
	<g>
		<path d="M346.349,352.657c-2.896,2.634-6.031,4.966-9.404,6.979c1.545,3.611,2.712,7.34,3.506,11.172    c8.341,0.842,16.988-0.41,24.235-2.159C359.851,362.975,353.591,356.879,346.349,352.657z"/>
	</g>
</g>
<g>
	<g>
		<path d="M345.664,401.071c-2.106,0-4.159-0.097-6.187-0.241c-1.373,5.534-3.38,11.191-6.021,16.945    c9.073-4.228,17.187-10.17,23.929-17.413C353.36,400.83,349.446,401.071,345.664,401.071z"/>
	</g>
</g>
<g>
	<g>
		<path d="M319.506,306.349c1.61,3.567,2.858,7.269,3.73,11.099c3.912-0.354,7.819-0.311,11.71,0.118    c3.378-7.673,4.859-16.283,5.435-23.715C333.49,296.696,325.759,300.765,319.506,306.349z"/>
	</g>
</g>
<g>
</g>
<g>
</g>
<g>
</g>
<g>
</g>
<g>
</g>
<g>
</g>
<g>
</g>
<g>
</g>
<g>
</g>
<g>
</g>
<g>
</g>
<g>
</g>
<g>
</g>
<g>
</g>
<g>
</g>
</svg>
