<svg id="Capa_1" enable-background="new 0 0 512 512" height="512" viewBox="0 0 512 512" width="512" xmlns="http://www.w3.org/2000/svg"><g><path d="m130.262 216.428c10.507 0 19.055-8.548 19.055-19.054 0-10.507-8.548-19.055-19.055-19.055-10.506 0-19.054 8.548-19.054 19.055 0 10.506 8.548 19.054 19.054 19.054z"/><path d="m159.164 245.724c0 10.507 8.548 19.055 19.054 19.055 10.507 0 19.055-8.548 19.055-19.055s-8.548-19.055-19.055-19.055c-10.506 0-19.054 8.548-19.054 19.055z"/><path d="m129.181 246.4c-10.4-.227-20.012-3.698-27.859-9.452 5.215 17.89 19.265 32.044 37.095 37.398-5.69-7.891-9.094-17.529-9.236-27.946z"/><path d="m170.063 168.751c5.691 7.891 9.094 17.528 9.236 27.945 10.4.227 20.012 3.698 27.859 9.452-5.215-17.889-19.265-32.043-37.095-37.397z"/><path d="m384 246.4c-.142 10.417-3.546 20.055-9.236 27.946 17.83-5.354 31.879-19.508 37.094-37.397-7.847 5.753-17.458 9.224-27.858 9.451z"/><path d="m333.881 196.696c.143-10.417 3.546-20.054 9.237-27.945-17.831 5.354-31.88 19.508-37.095 37.397 7.847-5.753 17.458-9.225 27.858-9.452z"/><path d="m437.02 74.98c-48.353-48.351-112.64-74.98-181.02-74.98s-132.667 26.629-181.02 74.98c-48.351 48.353-74.98 112.64-74.98 181.02s26.629 132.667 74.98 181.02c48.353 48.351 112.64 74.98 181.02 74.98s132.667-26.629 181.02-74.98c48.351-48.353 74.98-112.64 74.98-181.02s-26.629-132.667-74.98-181.02zm-367.903 146.569c0-39.623 27.215-73.01 63.933-82.452l-.001-.005 64.067-15.324c4.958-1.186 8.421-5.574 8.421-10.672v-14.466h30v14.466c0 18.918-12.774 35.214-31.105 39.761 21.157 15.501 34.931 40.513 34.931 68.692 0 46.937-38.187 85.123-85.123 85.123s-85.123-38.187-85.123-85.123zm228.917 176.79c0-17.142-13.946-31.088-31.088-31.088h-21.894c-17.142 0-31.088 13.946-31.088 31.088h-30c0-33.684 27.404-61.088 61.088-61.088h21.894c33.684 0 61.088 27.404 61.088 61.088zm60.906-91.667c-46.937 0-85.123-38.187-85.123-85.123 0-28.193 13.787-53.215 34.963-68.715-17.126-5.27-28.874-20.997-28.874-39.139v-14.466h30v14.466c0 5.098 3.462 9.486 8.419 10.672l64.059 15.368c35.568 10.209 61.679 43.009 61.679 81.814 0 46.936-38.186 85.123-85.123 85.123z"/><path d="m401.974 197.374c0-10.507-8.548-19.055-19.055-19.055s-19.055 8.548-19.055 19.055c0 10.506 8.548 19.054 19.055 19.054s19.055-8.548 19.055-19.054z"/><circle cx="334.963" cy="245.724" r="19.055"/></g></svg>