<?xml version="1.0" encoding="iso-8859-1"?>
<!-- Generator: Adobe Illustrator 19.0.0, SVG Export Plug-In . SVG Version: 6.00 Build 0)  -->
<svg version="1.1" id="Layer_1" xmlns="http://www.w3.org/2000/svg" xmlns:xlink="http://www.w3.org/1999/xlink" x="0px" y="0px"
	 viewBox="0 0 512 512" style="enable-background:new 0 0 512 512;" xml:space="preserve">
<g>
	<g>
		<rect y="35.721" width="512" height="83.349"/>
	</g>
</g>
<g>
	<g>
		<rect y="154.791" width="512" height="35.721"/>
	</g>
</g>
<g>
	<g>
		<path d="M440.558,321.488v-11.907c0-32.828-26.707-59.535-59.535-59.535s-59.535,26.707-59.535,59.535v11.907h-23.814v154.791
			h166.698V321.488H440.558z M404.837,321.488h-47.628v-11.907c0-13.131,10.683-23.814,23.814-23.814s23.814,10.683,23.814,23.814
			V321.488z"/>
	</g>
</g>
<g>
	<g>
		<path d="M427.096,226.233c22.58,12.531,39.564,33.967,46.169,59.535h26.828v35.721v83.349H512V226.233H427.096z"/>
	</g>
</g>
<g>
	<g>
		<path d="M0,226.233v178.605h261.953v-83.349v-35.721h26.828c6.605-25.568,23.589-47.004,46.169-59.535H0z"/>
	</g>
</g>
<g>
</g>
<g>
</g>
<g>
</g>
<g>
</g>
<g>
</g>
<g>
</g>
<g>
</g>
<g>
</g>
<g>
</g>
<g>
</g>
<g>
</g>
<g>
</g>
<g>
</g>
<g>
</g>
<g>
</g>
</svg>
