<svg id="Capa_1" enable-background="new 0 0 512 512" height="512" viewBox="0 0 512 512" width="512" xmlns="http://www.w3.org/2000/svg"><g id="XMLID_77_"><path id="XMLID_79_" d="m125.377 385.5c8.147 19.975 24.964 35.522 45.761 41.922v54.578h-34.22v30h154.948v-30h-34.22v-54.578c20.798-6.4 37.614-21.947 45.761-41.922z"/><path id="XMLID_81_" d="m115.787 205.667v29.527h25.267v90.484h-30.459v29.822.178h207.595v-.178-29.822h-25.897v-32.951h20.706v-30h-20.706v-27.533h20.706v-29.527z"/><path id="XMLID_82_" d="m382.306 299.148v-198.596l-43.492-31.157v36.903l13.492 9.666v191.817l23.687 37.75 25.412-15.945z"/><path id="XMLID_83_" d="m308.814 0h-79.422v40.793h-30v-40.793h-79.656v131.948h79.656v43.719h30v-43.719h79.422z"/></g></svg>