<svg id="Capa_1" enable-background="new 0 0 512 512" height="512" viewBox="0 0 512 512" width="512" xmlns="http://www.w3.org/2000/svg"><g><path d="m449.799 211.732c-9.123-77.166-88.224-125.625-160.693-97.866-25.167-24.184-58.536-37.866-93.106-37.866-81.198 0-139.156 71.493-134.971 136.362-36.797 21.343-61.029 60.923-61.029 103.638 0 66.167 54.818 120 121 120h270c66.182 0 121-53.833 121-120 0-43.096-24.76-83.115-62.201-104.268zm-118.799 59.268c0 8.282-1.672 16.113-4.162 23.569l27.599 15.938-15 25.986-27.583-15.928c-10.578 11.907-24.666 20.62-40.854 23.917v31.518h-30v-31.518c-16.188-3.298-30.276-12.01-40.854-23.917l-27.583 15.928-15-25.986 27.599-15.938c-2.49-7.456-4.162-15.287-4.162-23.569s1.672-16.113 4.162-23.569l-27.599-15.938 15-25.986 27.583 15.928c10.578-11.907 24.666-20.62 40.854-23.917v-31.518h30v31.518c16.188 3.298 30.276 12.01 40.854 23.917l27.583-15.928 15 25.986-27.599 15.938c2.49 7.456 4.162 15.287 4.162 23.569z"/><path d="m256 226c-24.814 0-45 20.186-45 45s20.186 45 45 45 45-20.186 45-45-20.186-45-45-45zm15 60h-30v-30h30z"/></g></svg>