<svg id="Capa_1" enable-background="new 0 0 512 512" height="512" viewBox="0 0 512 512" width="512" xmlns="http://www.w3.org/2000/svg"><g><path d="m165.125 415.75c-6.183-12.29-11.574-27.523-13.284-44.531-13.958-12.581-30.753-19.411-43.526-22.802 5.568 21.627 20.337 54.864 56.81 67.333z"/><path d="m211 361c0-19.277-7.998-35.435-15-45.879-7.002 10.444-15 26.602-15 45.879s7.881 36.958 15 49.014c7.119-12.056 15-29.737 15-49.014z"/><path d="m283.715 348.3c-13.017 3.345-30.112 10.036-43.53 22.597-1.67 17.137-7.086 32.487-13.308 44.852 36.537-12.492 51.292-45.828 56.838-67.449z"/><path d="m391 316c0 2.358-.571 4.688-1.626 6.782-7.051-49.841-36.475-92.552-77.719-117.713 12.508-20.824 19.345-44.291 19.345-69.069 0-74.443-60.557-136-135-136s-135 61.557-135 136c0 25.031 7.322 49.409 20.323 70.567-43.713 26.545-75.601 71.387-80.547 123.276-6.02 63.142 24.279 119.725 70.553 152.157h-71.329v30h512v-30h-191.578c17.086-11.966 32.031-28.114 43.698-46h11.88c57.891 0 106-47.109 106-105v-60h30v-30h-45c-41.353 0-76 33.647-76 75zm-300-180c0-57.891 47.109-106 105-106s105 48.109 105 106c0 20.112-5.841 39.088-16.408 55.785-14.632-5.577-30.427-8.503-46.697-9.686 1.933-5.016 3.105-10.41 3.105-16.099 0-24.814-20.186-45-45-45s-45 20.186-45 45c0 5.901 1.21 11.506 3.285 16.675-15.943 1.672-31.432 4.896-45.877 10.56-11.084-16.977-17.408-36.81-17.408-57.235zm90 30c0-8.276 6.724-15 15-15s15 6.724 15 15-6.724 15-15 15-15-6.724-15-15zm-90.22 148.96c1.67.095 33.968 2.435 63.723 20.647 8.421-32.926 30.082-54.069 31.229-55.144l10.268-9.639 10.269 9.639c1.146 1.075 22.817 22.227 31.234 55.164 29.797-18.234 62.047-20.572 63.717-20.667l16.772-.952-.952 16.772c-2.358 41.587-30.688 120.22-121.04 120.22s-118.682-78.633-121.04-120.22l-.952-16.772z"/></g></svg>