<svg id="Capa_1" enable-background="new 0 0 512 512" height="512" viewBox="0 0 512 512" width="512" xmlns="http://www.w3.org/2000/svg"><g><path d="m256 100.644c-53.717 0-97.419 43.703-97.419 97.419s43.703 97.419 97.419 97.419 97.419-43.703 97.419-97.419-43.702-97.419-97.419-97.419zm46.494 145.492h-31.133v-34.035h-28.758v34.035h-31.133v-92.342h31.133v32.715h28.758v-32.715h31.133z"/><path d="m256 0c-109.213 0-198.065 88.851-198.065 198.064 0 41.166 12.565 80.666 36.338 114.229 22.161 31.286 52.383 55.213 87.662 69.464l74.065 130.243 74.064-130.243c35.276-14.251 65.503-38.18 87.662-69.463 23.772-33.563 36.338-73.063 36.338-114.23.001-109.213-88.851-198.064-198.064-198.064zm0 325.415c-70.221 0-127.351-57.13-127.351-127.351s57.13-127.351 127.351-127.351 127.351 57.13 127.351 127.351-57.13 127.351-127.351 127.351z"/></g></svg>