<svg id="Capa_1" enable-background="new 0 0 510 510" height="512" viewBox="0 0 510 510" width="512" xmlns="http://www.w3.org/2000/svg"><g id="XMLID_393_"><path id="XMLID_403_" d="m320.804 135c-22.011 40.164-45.569 67.696-65.804 93.023-21.217-26.557-43.844-52.952-65.804-93.023h-189.196v120h510v-120zm-155.804 75h-120v-30h120zm300 0h-120v-30h120z"/><path id="XMLID_400_" d="m315 60c0-33.137-26.863-60-60-60s-60 26.863-60 60c0 45 60 120 60 120s60-75 60-120zm-75 0h30v30h-30z"/><path id="XMLID_399_" d="m300 510h75v-60h-30v-30h30v-60h-75z"/><path id="XMLID_398_" d="m405 420h30v30h-30v60h75v-150h-75z"/><path id="XMLID_397_" d="m30 330h210v135h-210v45h240v-180h210v-45h-450z"/><path id="XMLID_396_" d="m30 360h75v75h-75z"/><path id="XMLID_394_" d="m135 360h75v75h-75z"/></g></svg>