<svg id="Capa_1" enable-background="new 0 0 512 512" height="512" viewBox="0 0 512 512" width="512" xmlns="http://www.w3.org/2000/svg"><g><path d="m391 106v-106h-270v106h30v23.423l-40.811 37.603c-12.187 11.352-19.189 27.377-19.189 43.974h330c0-16.597-7.002-32.622-19.248-44.033l-40.752-37.544v-23.423zm-210 0v-60h30v60zm60 0v-60h30v60zm60 0v-60h30v60z"/><path d="m286.762 334.193c-19.57 8.877-41.953 8.877-61.523 0-20.772-9.389-44.239 5.552-44.239 26.807 0 21.24 23.467 36.196 44.238 26.807 9.785-4.438 20.273-6.665 30.762-6.665s20.977 2.227 30.762 6.665c20.684 9.39 44.209-5.566 44.238-26.807-.029-21.255-23.555-36.196-44.238-26.807z"/><path d="m421 241h-330v271h330zm-120 180c-8.965 0-18.164-2.036-26.66-5.889-11.66-5.273-25.02-5.273-36.68 0-8.496 3.853-17.695 5.889-26.66 5.889-33.076 0-60-26.909-60-60s26.924-60 60-60c8.965 0 18.164 2.036 26.66 5.889 11.66 5.273 25.02 5.273 36.68 0 8.496-3.853 17.695-5.889 26.66-5.889 33.076 0 60 26.909 60 60s-26.924 60-60 60z"/></g></svg>