<?xml version="1.0" encoding="iso-8859-1"?>
<!-- Generator: Adobe Illustrator 19.0.0, SVG Export Plug-In . SVG Version: 6.00 Build 0)  -->
<svg xmlns="http://www.w3.org/2000/svg" xmlns:xlink="http://www.w3.org/1999/xlink" version="1.1" id="Layer_1" x="0px" y="0px" viewBox="0 0 512 512" style="enable-background:new 0 0 512 512;" xml:space="preserve">
<g>
	<g>
		<path d="M363.948,294.076c-15.13-19.843-35.725-35.265-58.838-44.283V31.347h28.578V0H178.312v31.347h28.578v218.446    c-23.113,9.017-43.708,24.44-58.838,44.283c-18.15,23.792-27.752,52.224-27.752,82.223c0,10.125,1.128,20.24,3.354,30.072    c6.687,29.539,23.406,56.341,47.073,75.483C194.759,501.3,225.04,512,256,512c30.971,0,61.252-10.71,85.285-30.156    c23.677-19.143,40.385-45.965,47.073-75.504c2.215-9.822,3.344-19.926,3.344-30.041    C391.701,346.3,382.098,317.868,363.948,294.076z M204.925,428.575h-23.51v-23.51h23.51V428.575z M214.068,379.465h-23.51v-23.51    h23.51V379.465z M245.415,410.028h-23.51v-23.51h23.51V410.028z M179.649,305.33c12.56-13.584,28.745-23.907,47.271-29.268    l11.316-3.271V31.347h35.527v241.445l11.316,3.271c18.526,5.36,34.711,15.684,47.271,29.268H179.649z"/>
	</g>
</g>
<g>
</g>
<g>
</g>
<g>
</g>
<g>
</g>
<g>
</g>
<g>
</g>
<g>
</g>
<g>
</g>
<g>
</g>
<g>
</g>
<g>
</g>
<g>
</g>
<g>
</g>
<g>
</g>
<g>
</g>
</svg>
