<svg id="Capa_1" enable-background="new 0 0 512 512" height="512" viewBox="0 0 512 512" width="512" xmlns="http://www.w3.org/2000/svg"><g id="Angry_1_"><path d="m257.725 240c-23.994 0-46.084 11.484-60.015 30h120.03c-13.931-18.516-36.021-30-60.015-30z"/><path d="m376 390h-117.505c.015-.003.028-.016.044-.016 106.354-1.364 192.461-88.312 192.461-194.984 0-107.52-87.48-195-195-195s-195 87.48-195 195c0 106.823 86.351 193.865 192.913 194.989.009 0 .019.009.028.011h-117.941c-57.891 0-105 47.109-105 105v17h450v-17c0-57.891-47.109-105-105-105zm-105-240h30c16.538 0 30-13.462 30-30h30c0 22.114-12.153 41.25-30 51.656v23.344h-30v-15h-30zm-90-30c0 16.538 13.462 30 30 30h30v30h-30v15h-30v-23.344c-17.847-10.406-30-29.542-30-51.656zm-31.084 180c2.392-3.492 18.986-90 106.084-90 86.713 0 104.028 86.999 106.084 90z"/></g></svg>