<svg id="Capa_1" enable-background="new 0 0 510 510" height="512" viewBox="0 0 510 510" width="512" xmlns="http://www.w3.org/2000/svg"><g><path d="m187.98 225c-14.281-15.935-22.98-36.969-22.98-60v-75h180v75c0 23.031-8.699 44.065-22.981 60h22.981c16.095 0 31.353 3.645 45 10.145v-100.145c0-74.439-60.561-135-135-135s-135 60.561-135 135v100.145c13.646-6.5 28.905-10.145 45-10.145z"/><path d="m30 375h450v45h-450z"/><path d="m60 450h390v60h-390z"/><path d="m225 249.852v5.148c0 16.568 13.432 30 30 30s30-13.432 30-30v-5.148c-9.389 3.329-19.485 5.148-30 5.148s-20.611-1.818-30-5.148z"/><path d="m315 165v-45h-120v45c0 33.137 26.863 60 60 60 33.137 0 60-26.863 60-60z"/><path d="m420 330c0-41.355-33.645-75-75-75h-30c0 33.084-26.916 60-60 60s-60-26.916-60-60h-30c-41.356 0-75 33.645-75 75v15h330z"/></g></svg>