<svg id="Capa_1" enable-background="new 0 0 512 512" height="512" viewBox="0 0 512 512" width="512" xmlns="http://www.w3.org/2000/svg"><g><path d="m451.619 326.765h-120.596l-38.394-38.393v-91.597l8.081-5.208c23.794-15.331 37.998-41.336 37.998-69.561v-39.298c0-45.591-37.078-82.683-82.663-82.708-.015 0-.03 0-.045 0s-.03 0-.045 0c-45.585.025-82.663 37.117-82.663 82.708v39.299c0 28.225 14.204 54.231 37.998 69.561l8.081 5.208v91.596l-38.394 38.394h-120.596l-34.108 34.108v16.157h459.456v-16.157z"/><path d="m60.014 497.521c0 7.984 6.495 14.479 14.48 14.479h363.012c7.984 0 14.479-6.495 14.479-14.479v-23.396h-391.971z"/><path d="m26.272 444.125h3.742 451.972 3.742v-37.094h-459.456z"/></g></svg>