<svg id="Capa_1" enable-background="new 0 0 512 512" height="512" viewBox="0 0 512 512" width="512" xmlns="http://www.w3.org/2000/svg"><g><path d="m447.72 237.843c15.74-19.92 25.17-45.06 25.17-72.44 0-64.57-52.34-116.91-116.92-116.91-13.39 0-26.25 2.28-38.23 6.43-27.238-34.226-69.335-54.923-113.09-54.923-79.76 0-144.42 65.013-144.42 144.783 0 18.42 3.45 36.04 9.74 52.24-30.95 19.66-51.5 54.24-51.5 93.63 0 51.71 35.42 95.15 83.31 107.39 1.64 2.92 3.4 5.76 5.29 8.5 7.7 37.08-9.96 75.05-43.27 93.07 46.31 28.34 108.74 5.89 126.4-45.36 50.475 26.265 115.706 4.589 140.69-46.37 16.8 11.89 37.31 18.89 59.47 18.89 56.98 0 103.17-46.19 103.17-103.17 0-35.75-18.19-67.25-45.81-85.76z"/></g></svg>