<svg id="Capa_1" enable-background="new 0 0 510 510" height="512" viewBox="0 0 510 510" width="512" xmlns="http://www.w3.org/2000/svg"><g><path d="m120 390h60v120h-60z"/><path d="m30 510h60v-150h120v150h270v-120h-150v-150h150v-30h-450zm60-270h120v30h-120zm0 60h120v30h-120z"/><path d="m360 270h120v90h-120z"/><path d="m374.065 105c-3.725 29.734-18.373 56.115-39.785 75h175.72v-75z"/><path d="m135.936 105h-135.936v75h175.721c-21.412-18.885-36.061-45.266-39.785-75z"/><path d="m255 180c49.705 0 90-40.294 90-90 0-49.705-40.295-90-90-90-49.706 0-90 40.295-90 90 0 49.706 40.294 90 90 90zm-45-105h30v-30h30v30h30v30h-30v30h-30v-30h-30z"/></g></svg>