<svg id="Capa_1" enable-background="new 0 0 512.001 512.001" height="512" viewBox="0 0 512.001 512.001" width="512" xmlns="http://www.w3.org/2000/svg"><g><path d="m241.198 293.865h84.938c-7.071-16.629-23.484-28.171-42.469-28.171s-35.398 11.542-42.469 28.171z"/><path d="m268.667 158.282c0-11.81-9.607-21.417-21.417-21.417h-36.583v9.408c0 11.81 9.607 21.417 21.416 21.417h36.584z"/><path d="m488.39 202.648c0-111.92-90.728-202.648-202.648-202.648-90.163 0-166.564 58.878-192.868 140.28l-9.76 60.392-59.504 98.703v29.92h47.385l20.165 110.149h112.918l17.139 72.557h228.021l-28.235-158.448c41.367-37.101 67.387-90.969 67.387-150.905zm-101.723-56.375c0 28.352-23.065 51.417-51.417 51.417h-36.583v39.491c33.474 6.711 59.198 35.446 61.068 70.894l.833 15.79h-153.801l.832-15.79c1.87-35.447 27.593-64.183 61.068-70.894v-39.491h-36.584c-28.351 0-51.416-23.065-51.416-51.417v-39.408h66.583c14.216 0 27.1 5.801 36.417 15.157 9.316-9.356 22.201-15.157 36.416-15.157h66.584z"/><path d="m298.667 158.282v9.408h36.583c11.81 0 21.417-9.607 21.417-21.417v-9.408h-36.584c-11.808 0-21.416 9.607-21.416 21.417z"/></g></svg>