<svg id="Capa_1" enable-background="new 0 0 512 512" height="512" viewBox="0 0 512 512" width="512" xmlns="http://www.w3.org/2000/svg"><g><path d="m139.289 127.903c-26.362 26.362-26.362 69.255 0 95.617 9.283 9.283 20.796 15.514 33.326 18.233 3.163-19.519 12.228-38.259 27.247-53.277 15.011-15.012 33.74-24.075 53.248-27.242-2.66-12.223-8.72-23.847-18.203-33.33-12.771-12.771-29.749-19.803-47.809-19.803s-35.038 7.032-47.809 19.802z"/><path d="m321.437 55.533c-18.06 0-35.038 7.032-47.809 19.803-8.749 8.749-14.783 19.48-17.726 31.175.067.067.137.127.204.194 15.292 15.292 24.418 34.439 27.412 54.341 9.841 1.482 19.49 4.482 28.587 8.969 4.738-12.439 12.09-24.101 22.096-34.107 14.976-14.977 33.649-24.035 53.108-27.215l.123-.123c-2.67-12.188-8.728-23.776-18.186-33.235-12.771-12.77-29.75-19.802-47.809-19.802z"/><path d="m404.063 154.811-15.831-15.832c-12.339 2.777-23.672 8.966-32.834 18.128-8.746 8.746-14.798 19.467-17.745 31.157.073.073.15.139.223.212 14.932 14.931 24.428 33.851 27.496 54.356 19.878 3.011 39 12.14 54.275 27.415.057.057.112.116.168.173 11.439-2.875 22.269-8.764 31.201-17.695 20.719-20.72 25.143-51.648 13.293-76.74-22.079 2.376-44.493-5.421-60.246-21.174z"/><path d="m86.723 357.859c9.265 9.265 20.75 15.491 33.251 18.221 3.238-20.085 12.655-38.599 27.322-53.266 9.851-9.852 21.446-17.317 34.08-22.15-4.471-9.078-7.461-18.704-8.941-28.522-19.903-2.997-39.052-12.131-54.344-27.425-.057-.057-.11-.118-.167-.176-11.44 2.878-22.271 8.767-31.201 17.698-12.771 12.772-19.803 29.751-19.803 47.811s7.032 35.038 19.803 47.809z"/><path d="m334.916 243c-2.722-12.53-8.955-24.042-18.238-33.325-12.771-12.771-29.749-19.803-47.809-19.803s-35.038 7.032-47.809 19.803c-26.362 26.362-26.362 69.255 0 95.617 9.284 9.284 20.796 15.516 33.326 18.238 3.162-19.521 12.227-38.262 27.247-53.282 15.02-15.021 33.762-24.086 53.283-27.248z"/><path d="m458.574 70.374c4.97-14.149 7.57-29.185 7.57-44.624v-25.75h-29.979v25.75c0 19.015-5.054 37.251-14.519 53.182 11.483-6.094 24.244-8.939 36.928-8.558z"/><path d="m415.025 123.374 10.237 10.238c17.136 17.136 45.015 17.135 62.149 0l10.237-10.238-10.237-10.237c-17.136-17.136-45.015-17.134-62.149 0z"/><path d="m34.155 492.197c12.771 12.771 29.749 19.803 47.809 19.803s35.037-7.032 47.808-19.803c8.748-8.748 14.785-19.475 17.73-31.167-.069-.068-.139-.134-.207-.202-14.915-14.915-24.405-33.808-27.485-54.286-20.478-3.08-39.372-12.57-54.286-27.485-.057-.057-.109-.117-.166-.174-11.441 2.877-22.271 8.764-31.203 17.697-12.771 12.771-19.803 29.749-19.803 47.809 0 18.059 7.033 35.038 19.803 47.808z"/><path d="m398.449 387.062c12.771-12.771 19.803-29.748 19.803-47.808s-7.032-35.038-19.803-47.809-29.749-19.803-47.809-19.803-35.038 7.032-47.809 19.803c-26.361 26.362-26.361 69.255 0 95.617 12.771 12.771 29.749 19.803 47.809 19.803s35.039-7.032 47.809-19.803z"/><path d="m264.111 439.63c8.749-8.749 14.786-19.478 17.728-31.173-.068-.067-.139-.128-.206-.196-15.292-15.292-24.426-34.441-27.426-54.345-19.904-3-39.053-12.133-54.345-27.426-.069-.069-.131-.141-.199-.209-11.694 2.941-22.42 8.984-31.169 17.733-12.771 12.771-19.803 29.748-19.803 47.808s7.032 35.038 19.803 47.809 29.749 19.803 47.808 19.803c18.06-.001 35.038-7.034 47.809-19.804z"/></g></svg>