<svg id="Capa_1" enable-background="new 0 0 512 512" height="512" viewBox="0 0 512 512" width="512" xmlns="http://www.w3.org/2000/svg"><g><g><path d="m488.188 305.991c-6.359 0-12.338 2.477-16.836 6.975l-64.898 64.888c-2.208 9.921-7.236 19.133-14.479 26.375-10.145 10.162-23.659 15.762-38.044 15.762h-117.362v-30h117.362c6.363 0 12.337-2.474 16.822-6.967 3.803-3.803 6.222-8.805 6.82-14.094l.003-.032c0-.006.001-.013.002-.02l.008-.074c.135-1.214.177-2.36.131-3.552-.493-12.818-11.194-22.885-24.021-22.885h-121.637l-3.761-2.485c-19.84-13.109-42.955-20.038-66.846-20.038-27.353 0-53.172 8.871-74.666 25.655l-4.069 3.177h-82.717v84.483h107.598l95.489 31.932c3.067 1.026 6.28 1.549 9.514 1.549h159.993c7.957 0 15.588-3.161 21.214-8.788l111.215-111.225c4.501-4.495 6.976-10.469 6.976-16.831s-2.475-12.337-6.967-16.823c-4.505-4.505-10.484-6.982-16.844-6.982z"/></g><g><path d="m430.489 91.999-88.542-27.105v69.593h-30v-78.776l-18.224-5.579c-7.471-2.287-15.072-3.87-22.724-4.772v89.128h-30v-89.128c-7.651.902-15.252 2.485-22.724 4.772l-18.224 5.579v78.777h-30v-69.594l-88.54 27.105c-25.284 7.74-42.271 30.706-42.271 57.148 0 32.955 26.811 59.767 59.766 59.767h313.99c32.955 0 59.766-26.812 59.766-59.767-.001-26.442-16.989-49.408-42.273-57.148z"/></g></g></svg>