<svg id="Capa_1" enable-background="new 0 0 510 510" height="512" viewBox="0 0 510 510" width="512" xmlns="http://www.w3.org/2000/svg"><g><path d="m105 390v-390c-33.084 0-60 26.916-60 60v345.041c12.544-9.438 28.129-15.041 45-15.041z"/><path d="m465 450v-30c-19.816 0-345.076 0-375 0-24.853 0-45 20.147-45 45 0 24.853 20.147 45 45 45h375v-30h-30v-30z"/><path d="m307.5 140.431v-65.431h-30v65.431l-45.475 54.569h120.95z"/><path d="m377.974 225h-170.949c-.154.265-4.525 4.595-4.525 11.962 0 9.946 8.092 18.038 18.039 18.038h143.923c9.946 0 18.038-8.092 18.038-18.038 0-4.212-1.485-8.312-4.182-11.549z"/><path d="m457.5 0h-330v390h330zm-45 345h-240v-30h240zm-48.038-60h-143.923c-26.489 0-48.039-21.55-48.039-48.038 0-11.216 3.955-22.138 11.135-30.754l63.865-76.639v-54.569h-30v-30h150v30h-30v54.569l63.866 76.64c7.18 8.616 11.134 19.538 11.134 30.753 0 26.488-21.55 48.038-48.038 48.038z"/></g></svg>