<svg id="Capa_1" enable-background="new 0 0 511.938 511.938" height="512" viewBox="0 0 511.938 511.938" width="512" xmlns="http://www.w3.org/2000/svg"><g><path d="m461.776 189.079-1.264-.368c-5.92-1.601-12.051-2.423-18.253-2.423-8.014 0-15.888 1.359-23.404 4.04l-10.076-28.258c10.76-3.837 22.023-5.782 33.48-5.782 6.693 0 13.335.678 19.841 1.994 10.213-9.889 15.965-23.33 15.965-37.797 0-29.082-23.66-52.742-52.742-52.742-9.474 0-18.77 2.548-26.882 7.368l-.541.321c-10.972 6.695-19.106 17.07-22.928 29.291l-28.633-8.953c5.297-16.94 15.858-31.617 30.094-42.041.007-.329.018-.66.018-.986.002-29.083-23.658-52.743-52.74-52.743s-52.742 23.66-52.742 52.742v52.742h28.497c35.009 0 63.49 28.481 63.49 63.49h-30c0-18.467-15.023-33.49-33.49-33.49h-28.497v323.711c0 29.082 23.66 52.742 52.742 52.742s52.742-23.66 52.742-52.742c0-.316-.011-.636-.017-.955-14.237-10.424-24.798-25.102-30.095-42.042l28.633-8.953c3.708 11.86 11.48 21.979 21.963 28.687l1.505.895c8.112 4.82 17.408 7.368 26.882 7.368 29.082 0 52.742-23.66 52.742-52.742 0-14.471-5.755-27.916-15.973-37.805-6.576 1.332-13.207 2-19.8 2-26.084 0-51.554-10.236-70.517-29.199l21.213-21.213c17.744 17.744 43.64 24.55 67.816 17.899l.967-.281c29.536-8.6 50.165-36.104 50.165-66.888.001-30.78-20.626-58.285-50.161-66.887zm-162.31 217.374v-30c18.467 0 33.49-15.023 33.49-33.49h30c0 35.009-28.481 63.49-63.49 63.49zm98.721-169.399c-29.644 0-53.76 24.116-53.76 53.76h-30c0-46.186 37.574-83.76 83.76-83.76z"/><path d="m188.227 511.938c29.082 0 52.742-23.66 52.742-52.742v-323.712h-28.497c-18.467 0-33.49 15.023-33.49 33.49h-30c0-35.009 28.481-63.49 63.49-63.49h28.497v-52.742c0-29.082-23.66-52.742-52.742-52.742s-52.742 23.66-52.742 52.742c0 .326.011.657.018.986 14.236 10.425 24.797 25.102 30.094 42.042l-28.633 8.953c-3.821-12.221-11.956-22.596-22.928-29.291l-.541-.322c-8.112-4.82-17.408-7.368-26.882-7.368-29.082 0-52.742 23.66-52.742 52.742 0 14.467 5.753 27.908 15.965 37.797 6.507-1.316 13.149-1.994 19.841-1.994 11.457 0 22.721 1.945 33.48 5.782l-10.076 28.258c-7.517-2.681-15.391-4.04-23.404-4.04-6.201 0-12.333.822-18.253 2.423l-1.264.368c-29.533 8.603-50.16 36.108-50.16 66.888 0 30.783 20.629 58.288 50.165 66.888l.971.283c24.174 6.65 50.068-.157 67.812-17.9l21.213 21.213c-18.962 18.961-44.436 29.199-70.517 29.199-6.595 0-13.225-.668-19.801-2-10.218 9.89-15.973 23.334-15.973 37.805 0 29.082 23.66 52.742 52.742 52.742 9.474 0 18.77-2.548 26.882-7.368l1.506-.895c10.483-6.707 18.254-16.826 21.962-28.686l28.633 8.953c-5.297 16.94-15.858 31.617-30.095 42.042-.006.318-.017.639-.017.955.001 29.08 23.662 52.741 52.744 52.741zm-74.476-274.884v-30c46.186 0 83.76 37.574 83.76 83.76h-30c0-29.644-24.116-53.76-53.76-53.76zm35.23 105.909h30c0 18.467 15.023 33.49 33.49 33.49v30c-35.008 0-63.49-28.481-63.49-63.49z"/></g></svg>