<svg id="Capa_1" enable-background="new 0 0 512 512" height="512" viewBox="0 0 512 512" width="512" xmlns="http://www.w3.org/2000/svg"><g><path d="m104.938 67.469v37.469h302.125v-37.469h-92.865l-33.734-67.469h-48.928l-33.734 67.469z"/><path d="m104.938 134.938h302.125v37.469h-302.125z"/><path d="m512 425.797v-187.789c0-19.631-15.971-35.602-35.602-35.602h-440.796c-19.631 0-35.602 15.971-35.602 35.602v187.789c0 10.33 8.404 18.734 18.734 18.734s18.734-8.404 18.734-18.734v-185.921h67.469v67.469h302.125v-67.469h67.469v185.921c0 10.33 8.404 18.734 18.734 18.734s18.735-8.404 18.735-18.734z"/><path d="m104.938 337.345h302.125v174.655h-302.125z"/></g></svg>