<svg id="Capa_1" enable-background="new 0 0 512 512" height="512" viewBox="0 0 512 512" width="512" xmlns="http://www.w3.org/2000/svg"><g><path d="m189.687 398.593c-2.905-6.169-3.953-13.05-3.014-19.804l33.335-237.341c.226-1.612.351-3.256.351-4.931 0-19.399-15.726-35.125-35.125-35.125s-35.125 15.726-35.125 35.125c0-19.399-15.726-35.125-35.125-35.125s-35.125 15.726-35.125 35.125v226.535c0 27.948 11.102 54.75 30.864 74.512l65.91 65.91c11.368 11.368 29.799 11.368 41.167 0 8.682-8.682 10.983-21.878 5.751-32.987z"/><path d="m401.278 74.435-65.909-65.909c-11.368-11.368-29.799-11.368-41.167 0-8.682 8.682-10.983 21.879-5.751 32.986l33.862 71.895c2.905 6.169 3.953 13.05 3.013 19.804l-33.335 237.34c-.227 1.612-.351 3.256-.351 4.931 0 19.399 15.726 35.125 35.125 35.125s35.125-15.726 35.125-35.125c0 19.399 15.726 35.125 35.125 35.125s35.125-15.726 35.125-35.125v-226.534c.002-27.948-11.1-54.751-30.862-74.513z"/><path d="m135.109 50.125v24.458c5.332 1.737 10.368 4.136 15 7.114 4.632-2.978 9.668-5.377 15-7.115v-24.457c0-11.097 9.028-20.125 20.125-20.125h43.007v-30h-43.007c-27.638 0-50.125 22.486-50.125 50.125z"/><path d="m346.891 437.416v24.457c0 11.098-9.028 20.126-20.125 20.126h-43.007v30h43.007c27.639 0 50.125-22.486 50.125-50.126v-24.457c-5.332-1.737-10.368-4.136-15-7.114-4.632 2.978-9.668 5.377-15 7.114z"/></g></svg>