<svg id="Capa_1" enable-background="new 0 0 512 512" height="512" viewBox="0 0 512 512" width="512" xmlns="http://www.w3.org/2000/svg"><g><path d="m310.356 66.689v114.352h-15c-51.674 0-93.713-42.039-93.713-93.713v-20.639c-65.958 11.79-116.182 69.578-116.182 138.875 0 40.135 17.168 78.485 47.101 105.219 18.075 16.144 28.441 39.301 28.441 63.535v29.943c60.868-24.131 129.126-24.131 189.994 0v-29.943c0-24.234 10.366-47.392 28.44-63.534 29.934-26.734 47.102-65.085 47.102-105.22 0-69.297-50.224-127.085-116.183-138.875zm-112.447 181.822h-30v-30h30zm146.182 0h-30v-30h30z"/><path d="m453.538 0c-37.75 0-71.077 21.754-86.446 55.252 12.587 6.863 24.214 15.268 34.644 24.947h15.065c25.43 0 49.332-9.904 67.306-27.888 14.401-14.392 24.789-32.582 27.893-52.311z"/><path d="m161.003 436.89v45.11c0 16.569 13.431 30 30 30h16.263v-41.508h30v41.508h37.469v-41.508h30v41.508h16.263c16.569 0 30-13.431 30-30v-45.11c-60.124-27.638-129.872-27.638-189.995 0z"/><path d="m280.356 149.258v-84.769h-48.713v22.839c.001 29.966 20.796 55.167 48.713 61.93z"/><path d="m144.91 55.25c-15.361-33.496-48.689-55.25-86.448-55.25h-58.462c3.104 19.729 13.491 37.917 27.888 52.306 17.979 17.989 41.882 27.893 67.311 27.893h15.065c10.43-9.68 22.059-18.085 34.646-24.949z"/></g></svg>