<svg id="Capa_1" enable-background="new 0 0 512 512" height="512" viewBox="0 0 512 512" width="512" xmlns="http://www.w3.org/2000/svg"><g><path d="m361.33 441.562h37.659v36.704h-37.659z"/><path d="m82.649 374.093h346.701v37.469h-346.701z"/><path d="m180.67 441.562h150.66v36.704h-150.66z"/><path d="m512 0h-150.67v344.093h98.021v97.469h-30.361v36.704h83.01zm-35.979 202.407h-78.714v-30h78.714zm0-67.469h-78.714v-30h78.714zm0-67.469h-78.714v-30h78.714z"/><path d="m180.67 344.093h150.66v-344.093h-150.66zm35.974-306.624h78.713v30h-78.713zm0 67.469h78.713v30h-78.713zm78.712 67.469v30h-78.713v-30z"/><path d="m428.989 478.266h-30v33.734h30z"/><path d="m113.011 478.266h37.659v-36.704h-37.659v36.612h-30v-36.612h-30.362v-97.469h98.021v-344.093h-150.67v478.266h83.011v33.734h30zm-77.032-440.797h78.714v30h-78.714zm0 67.469h78.714v30h-78.714zm0 67.469h78.714v30h-78.714z"/></g></svg>