<svg id="Capa_1" enable-background="new 0 0 512 512" height="512" viewBox="0 0 512 512" width="512" xmlns="http://www.w3.org/2000/svg"><g><path d="m376 390h-116.386c.047-.015.092-.035.142-.036 105.793-2.008 191.244-88.699 191.244-194.964 0-107.52-87.48-195-195-195s-195 87.48-195 195c0 106.648 86.068 193.58 192.389 194.983.018 0 .038.013.056.017h-117.445c-57.891 0-105 47.109-105 105v17h450v-17c0-57.891-47.109-105-105-105zm-60-270c24.814 0 45 20.186 45 45h-30c0-8.276-6.724-15-15-15s-15 6.724-15 15h-30c0-24.814 20.186-45 45-45zm-120 0c24.814 0 45 20.186 45 45h-30c0-8.276-6.724-15-15-15s-15 6.724-15 15h-30c0-24.814 20.186-45 45-45zm45 180v-30h-30v30h-30v-30h-30v-30h30v-30h30v30h30v-30h30v30h30v-30h30v30h30v30h-30v30h-30v-30h-30v30z"/></g></svg>