<svg id="Capa_1" enable-background="new 0 0 511.975 511.975" height="512" viewBox="0 0 511.975 511.975" width="512" xmlns="http://www.w3.org/2000/svg"><g><path d="m390.958 286.181c0-10.46-7.9-18.97-17.611-18.97h-16.857l-23.417-24.392c-10.185 10.969-16.033 25.715-16.033 41.437 0 24.367 14.049 45.781 34.693 54.817 3.694-7.933 6.769-16.267 9.138-24.949l3.015-11.052h11.456c8.611 0 15.616-7.577 15.616-16.891z"/><path d="m287.041 284.256c0-23.982 9.204-46.532 25.221-63.116 0 0-16.849-17.546-19.16-19.946-28.955-30.091-58.896-61.206-81.942-95.94-23.551-35.495-36.502-70.076-39.356-105.254h-156.802v511.911l185.084.063c.525-18.928 1.806-41.762 2.715-56.543-22.671-2.126-44.888-8.752-65.041-19.477-23.98-12.761-45.212-31.371-61.401-53.82l24.334-17.547c28.227 39.143 71.258 61.592 118.061 61.592 46.979 0 90.251-23.58 117.673-61.151-29.55-14.489-49.386-45.617-49.386-80.772z"/><path d="m431.114 267.823h65.858v30h-65.858z"/><path d="m410.377 203.057h63.152v30h-63.152z" transform="matrix(.707 -.707 .707 .707 -24.745 376.376)"/><path d="m361.472 155.429h30v63.859h-30z"/><path d="m372.08 407.962c0 19.063 15.454 34.517 34.517 34.517s34.517-15.454 34.517-34.517-34.517-55.855-34.517-55.855-34.517 36.792-34.517 55.855z"/></g></svg>