<svg id="Capa_1" enable-background="new 0 0 512.001 512.001" height="512" viewBox="0 0 512.001 512.001" width="512" xmlns="http://www.w3.org/2000/svg"><g><path d="m284.771 96.667c-58.842 0-106.714 47.872-106.714 106.714s47.872 106.714 106.714 106.714c58.843 0 106.715-47.872 106.715-106.714s-47.872-106.714-106.715-106.714zm39.852 159.098-53.497-45.444v-84.653h30v70.774l42.919 36.46z"/><path d="m488.39 202.648c0-111.92-90.727-202.648-202.648-202.648-90.162 0-166.563 58.878-192.868 140.28l-9.76 60.392-59.504 98.703v29.92h47.385l20.165 110.149h112.918l17.139 72.557h228.022l-28.235-158.448c41.366-37.101 67.386-90.969 67.386-150.905zm-203.619 137.447c-75.385 0-136.714-61.33-136.714-136.714s61.329-136.714 136.714-136.714 136.715 61.33 136.715 136.714-61.33 136.714-136.715 136.714z"/></g></svg>