<svg id="Capa_1" enable-background="new 0 0 510 510" height="512" viewBox="0 0 510 510" width="512" xmlns="http://www.w3.org/2000/svg"><g id="XMLID_434_"><path id="XMLID_443_" d="m0 510h510v-300h-510zm330-105h-45v30h45v30h-75v-90h45v-30h-45v-30h75zm90-150h30v30h-30zm-60 0h30v30h-30zm0 60h90v150h-90zm-60-60h30v30h-30zm-60 0h30v30h-30zm-60 0h30v30h-30zm0 60h30v30h-30zm0 60h30v30h-30zm0 60h30v30h-30zm-60-180h30v30h-30zm0 60h30v30h-30zm0 60h30v30h-30zm0 60h30v30h-30zm-60-180h30v30h-30zm0 60h30v30h-30zm0 60h30v30h-30zm0 60h30v30h-30z"/><path id="XMLID_442_" d="m390 90v45h-30v-45h-120v45h-30v-45h-120v45h-30v-45h-60v90h510v-90z"/><path id="XMLID_441_" d="m390 405h30v30h-30z"/><path id="XMLID_440_" d="m390 345h30v30h-30z"/><path id="XMLID_439_" d="m90 45c0-8.271 6.729-15 15-15s15 6.729 15 15v15h30v-15c0-24.812-20.188-45-45-45s-45 20.188-45 45v45h30z"/><path id="XMLID_436_" d="m240 45c0-8.271 6.729-15 15-15 8.272 0 15 6.729 15 15v15h30v-15c0-24.812-20.186-45-45-45-24.812 0-45 20.188-45 45v45h30z"/><path id="XMLID_435_" d="m390 45c0-8.271 6.728-15 15-15s15 6.729 15 15v15h30v-15c0-24.812-20.186-45-45-45s-45 20.188-45 45v45h30z"/></g></svg>