<svg id="Capa_1" enable-background="new 0 0 510.74 510.74" height="512" viewBox="0 0 510.74 510.74" width="512" xmlns="http://www.w3.org/2000/svg"><g><path d="m238.51 169.43c10.871-2.166 22.895-2.17 33.76.01 11.573-22.504 16.096-49.361 16.45-80.76 0-37.46-20.27-70.94-33.35-88.65-13.08 17.7-33.35 51.18-33.35 88.65.398 31.466 4.792 58.179 16.49 80.75z"/><path d="m175.02 203.89c2.5 1 5.1 1.9 7.69 2.65 6.33-9.39 14.44-17.5 23.83-23.83-7.691-24.229-23.477-46.258-45.46-68.8-22.353-22.977-58.713-35.316-86.27-39.14 3.26 21.76 12.6 59.81 39.1 86.31 19.52 19.52 41.79 35.12 61.11 42.81z"/><path d="m162.16 275.78c2.46-1.06 4.92-2.25 7.27-3.55-2.166-10.869-2.17-22.887.01-33.75-22.494-11.596-49.362-16.099-80.76-16.46-37.67 0-71.05 20.25-88.68 33.32 17.68 13.08 51.19 33.38 88.68 33.38 27.59 0 54.38-4.71 73.48-12.94z"/><path d="m182.71 304.2c-24.233 7.694-46.256 23.474-68.8 45.46-26.48 26.48-35.82 64.49-39.09 86.26 21.76-3.27 59.77-12.61 86.26-39.09 21.996-22.558 37.753-44.551 45.46-68.8-9.39-6.33-17.5-14.44-23.83-23.83z"/><path d="m272.23 341.31c-10.871 2.166-22.895 2.17-33.76-.01-11.573 22.504-16.096 49.361-16.45 80.76 0 37.46 20.27 70.94 33.35 88.65 13.08-17.7 33.35-51.18 33.35-88.65-.398-31.465-4.792-58.179-16.49-80.75z"/><path d="m335.72 306.85c-2.5-.99-5.1-1.9-7.69-2.65-6.33 9.39-14.44 17.5-23.83 23.83 7.691 24.229 23.477 46.259 45.46 68.8 22.353 22.977 58.713 35.316 86.27 39.14-3.26-21.76-12.6-59.81-39.1-86.31-19.52-19.52-41.79-35.12-61.11-42.81z"/><path d="m348.58 275.78c19.1 8.23 45.89 12.94 73.48 12.94 37.67 0 71.05-20.25 88.68-33.32-17.68-13.08-51.19-33.38-88.68-33.38-31.466.399-58.18 4.792-80.75 16.49 2.166 10.869 2.17 22.887-.01 33.75 2.19 1.2 4.62 2.37 7.28 3.52z"/><path d="m328.03 206.54c24.233-7.694 46.256-23.474 68.8-45.46 26.48-26.48 35.82-64.49 39.09-86.26-21.76 3.27-59.77 12.61-86.26 39.09-21.996 22.558-37.753 44.551-45.46 68.8 9.39 6.33 17.5 14.44 23.83 23.83z"/><path d="m310.53 271.86c7.958-25.671-4.095-54.609-27.83-67.15-31.803-17.393-72.24-.567-82.49 34.17-11.116 36.638 16.865 74.204 55.16 74.06 24.904.315 48.299-17.177 55.16-41.08z"/></g></svg>