<svg id="Layer_1" enable-background="new 0 0 511.977 511.977" height="512" viewBox="0 0 511.977 511.977" width="512" xmlns="http://www.w3.org/2000/svg"><g><path d="m436.999 74.978c-48.35-48.35-112.634-74.978-181.011-74.978s-132.661 26.628-181.01 74.978-74.978 112.633-74.978 181.01 26.628 132.661 74.978 181.011 112.634 74.978 181.011 74.978 132.661-26.628 181.011-74.978 74.978-112.634 74.978-181.011-26.629-132.661-74.979-181.01zm-66.317 341.15c-33.585 24.093-73.245 36.828-114.693 36.828-108.608 0-196.968-88.359-196.968-196.968 0-41.446 12.735-81.106 36.828-114.692l10.3-14.358 278.891 278.89zm45.446-45.447-10.3 14.358-278.891-278.89 14.357-10.301c33.585-24.093 73.245-36.828 114.693-36.828 108.608 0 196.968 88.359 196.968 196.968.001 41.447-12.734 81.107-36.827 114.693z"/><path d="m255.988 89.021c-29.127 0-57.208 7.415-82.172 21.581l37.17 37.17v-24.116h30v54.116l30.004 30.004v-84.12h30v114.12l100.385 100.384c14.166-24.964 21.581-53.045 21.581-82.171 0-92.067-74.901-166.968-166.968-166.968z"/><path d="m89.021 255.988c0 92.066 74.901 166.968 166.968 166.968 29.127 0 57.208-7.415 82.172-21.581l-37.17-37.17v24.116h-30v-54.116l-30.004-30.004v84.12h-30v-114.12l-100.385-100.384c-14.166 24.964-21.581 53.045-21.581 82.171z"/></g></svg>