<svg id="Capa_1" enable-background="new 0 0 512 512" height="512" viewBox="0 0 512 512" width="512" xmlns="http://www.w3.org/2000/svg"><g><path d="m208.328 121.15v-43.478c0-26.286 21.386-47.672 47.672-47.672s47.672 21.386 47.672 47.672v43.479h30v-43.479c0-42.828-34.844-77.672-77.672-77.672s-77.672 34.844-77.672 77.672v43.479h30z"/><path d="m81.588 151.15v360.85h348.824v-360.85zm85.317 91.254c23.798-23.798 55.439-36.904 89.095-36.904s65.297 13.106 89.095 36.904c23.799 23.799 36.905 55.44 36.905 89.096s-13.106 65.297-36.905 89.096c-23.798 23.798-55.439 36.904-89.095 36.904s-65.297-13.106-89.096-36.904c-23.798-23.799-36.904-55.44-36.904-89.096s13.106-65.297 36.905-89.096z"/><path d="m256 427.5c53.019 0 96-42.98 96-96s-42.981-96-96-96-96 42.98-96 96 42.981 96 96 96zm-48-111h33v-33h30v33h33v30h-33v33h-30v-33h-33z"/></g></svg>