<svg id="Capa_1" enable-background="new 0 0 512 512" height="512" viewBox="0 0 512 512" width="512" xmlns="http://www.w3.org/2000/svg"><g><path d="m151 121c0 57.891 47.109 105 105 105s105-47.109 105-105-47.109-105-105-105-105 47.109-105 105zm120-.01h30c0 24.824-20.186 45.01-45 45.01s-45-20.186-45-45h30c0 8.276 6.724 15 15 15s15-6.724 15-15.01z"/><path d="m383.5 241c-33.193 0-68.276 18.457-101.455 53.379l-96.24 107.256c-21.665 22.807-40.943 34.365-57.305 34.365-37.222 0-68.5-30.278-68.5-67.5 0-36.473 30.916-67.5 68.5-67.5 16.5 0 35.7 11.7 57.299 34.499l9.901 10.201 40.201-45-6-6.301c-33-34.799-68.101-53.399-101.401-53.399-71.376 0-128.5 58.885-128.5 127.5 0 70.298 58.202 127.5 128.5 127.5 33.193 0 68.276-18.457 101.455-53.379l96.24-107.256c21.665-22.807 40.943-34.365 57.305-34.365 37.222 0 67.5 30.278 67.5 67.5 0 36.471-29.916 67.5-67.5 67.5-16.5 0-35.7-11.7-57.299-34.501l-9.901-10.199-40.201 45 6 6.299c33 34.801 68.101 53.401 101.401 53.401 71.376 0 128.5-58.885 128.5-127.5 0-70.298-58.202-127.5-128.5-127.5z"/></g></svg>