<svg id="Capa_1" enable-background="new 0 0 509.102 509.102" height="512" viewBox="0 0 509.102 509.102" width="512" xmlns="http://www.w3.org/2000/svg"><g><path d="m60.122 239.551c3.249-42.51 20.194-81.244 46.412-111.804l-42.585-42.585c-38.312 42.999-60.636 96.893-63.949 154.389z"/><path d="m127.747 106.534c30.56-26.218 69.294-43.163 111.804-46.412v-60.122c-57.496 3.312-111.39 25.637-154.389 63.949z"/><path d="m359.551 254.551c0-8.271-6.729-15-15-15h-15v30h15c8.271 0 15-6.729 15-15z"/><path d="m269.551 0v60.122c42.51 3.249 81.244 20.194 111.804 46.412l42.585-42.585c-43-38.312-96.893-60.637-154.389-63.949z"/><path d="m89.551 254.551c0 90.981 74.019 165 165 165s165-74.019 165-165-74.019-165-165-165-165 74.018-165 165zm120 3.434-34.59 71.565h-19.681l-35.73-71.459v-48.541h30v41.459l15.28 30.561 14.72-30.455v-41.564h30v48.434zm90-48.434h45c24.813 0 45 20.188 45 45 0 24.813-20.187 45-45 45h-15v30h-30c0-12.143 0-109.16 0-120zm-30 120h-30v-120h30z"/><path d="m448.968 269.551c-3.251 42.508-20.184 81.245-46.4 111.804l42.585 42.585c38.312-42.998 60.636-96.893 63.949-154.389z"/><path d="m106.534 381.354c-26.218-30.56-43.163-69.294-46.412-111.804h-60.122c3.313 57.496 25.637 111.39 63.949 154.389z"/><path d="m402.567 127.747c26.217 30.559 43.149 69.296 46.4 111.804h60.134c-3.314-57.496-25.637-111.39-63.949-154.389z"/><path d="m381.354 402.567c-30.56 26.218-69.294 43.163-111.804 46.412v60.122c57.496-3.312 111.39-25.637 154.389-63.949z"/><path d="m239.551 448.979c-42.51-3.249-81.244-20.194-111.804-46.412l-42.585 42.585c42.998 38.312 96.893 60.637 154.389 63.949z"/></g></svg>