<svg id="Capa_1" enable-background="new 0 0 510 510" height="512" viewBox="0 0 510 510" width="512" xmlns="http://www.w3.org/2000/svg"><g id="XMLID_1025_"><path id="XMLID_1381_" d="m300 0h-300v405h300zm-195 90h30v-30h30v30h30v30h-30v30h-30v-30h-30zm150 240h-210v-30h210zm0-60h-210v-90h210z"/><path id="XMLID_1384_" d="m75 210h150v30h-150z"/><path id="XMLID_1385_" d="m180 435v53.193l63.838-53.212z"/><path id="XMLID_1386_" d="m330 90v60h120v30h-120v30h120v30h-120v30h120v30h-120v30h120v30h-120v75h-40.648l-88.715 75h309.363v-420z"/></g></svg>