<svg id="Capa_1" enable-background="new 0 0 510 510" height="512" viewBox="0 0 510 510" width="512" xmlns="http://www.w3.org/2000/svg"><g><path id="XMLID_937_" d="m480 60v30h-30v-14.5c0-25.129-20.371-45.5-45.5-45.5h-298.5c-25.405 0-46 20.595-46 46v14h-30v-30h-30v90h30v-30h30v210.125c0 24.783 20.092 44.875 44.875 44.875h15.125v-255h30v70h15c16.953 0 26.287 8.299 32.465 13.789 4.941 4.393 6.986 6.211 12.531 6.211 5.547 0 7.592-1.818 12.533-6.211 6.178-5.49 15.512-13.789 32.465-13.789s26.288 8.298 32.466 13.789c4.941 4.393 6.987 6.211 12.533 6.211s7.592-1.818 12.533-6.211c6.177-5.491 15.512-13.789 32.465-13.789 16.954 0 26.29 8.298 32.468 13.789 4.942 4.393 6.989 6.211 12.537 6.211 5.549 0 7.594-1.818 12.537-6.211 6.178-5.491 15.513-13.789 32.467-13.789h15v-70h30v30h30v-90z"/><path id="XMLID_942_" d="m422.463 226.211c-6.178 5.491-15.514 13.789-32.467 13.789s-26.289-8.297-32.467-13.788c-4.943-4.393-6.989-6.212-12.538-6.212-5.546 0-7.592 1.818-12.533 6.211-6.178 5.491-15.512 13.789-32.465 13.789-16.952 0-26.287-8.298-32.465-13.789-4.941-4.393-6.987-6.211-12.534-6.211s-7.592 1.818-12.533 6.211c-6.178 5.491-15.512 13.789-32.465 13.789-16.951 0-26.287-8.299-32.463-13.789-4.941-4.393-6.987-6.211-12.533-6.211h-15v170h300v-170h-15c-5.549 0-7.595 1.818-12.537 6.211z"/><path id="XMLID_1112_" d="m150 435.062c0 24.819 20.119 44.938 44.938 44.938h210.125c24.818 0 44.937-20.119 44.937-44.938v-15.062h-300z"/></g></svg>