<svg id="Capa_1" enable-background="new 0 0 511.976 511.976" height="512" viewBox="0 0 511.976 511.976" width="512" xmlns="http://www.w3.org/2000/svg"><g><path d="m234.763 351.416-74.203-74.203-145.217 145.217c-20.457 20.458-20.457 53.745 0 74.202 20.457 20.458 53.746 20.457 74.203.001z"/><path d="m213.387 227.384h37.469v104.939h-37.469z" transform="matrix(.707 -.707 .707 .707 -129.9 246.102)"/><path d="m356.896 206.127 3.222-.76c-11.138-5.746-21.587-13.274-30.911-22.598s-16.852-19.774-22.598-30.911l-.76 3.221c-4.96 21.024-15.655 40.21-30.93 55.483l-21.584 21.585 26.495 26.495 21.585-21.584c15.273-15.276 34.458-25.971 55.481-30.931z"/><path d="m511.976 94.637c0-25.278-9.844-49.043-27.719-66.918s-41.64-27.719-66.918-27.719-49.044 9.844-66.919 27.719c-36.898 36.898-36.898 96.938 0 133.837 36.9 36.898 96.938 36.898 133.837 0 17.875-17.875 27.719-41.641 27.719-66.919z"/></g></svg>