<svg id="Capa_1" enable-background="new 0 0 512 512" height="512" viewBox="0 0 512 512" width="512" xmlns="http://www.w3.org/2000/svg"><g><path d="m163.937 121.731 6.752 2.546 2.225 6.865c1.423 4.392 3.198 8.68 5.276 12.745l3.287 6.43-2.976 6.58c-3.195 7.064-1.659 15.494 3.822 20.975 5.482 5.483 13.912 7.019 20.975 3.822l6.582-2.977 6.431 3.289c4.063 2.078 8.351 3.853 12.743 5.276l6.865 2.225 2.547 6.753c2.734 7.256 9.781 12.13 17.534 12.13s14.8-4.874 17.534-12.13l2.547-6.753 6.865-2.225c4.393-1.424 8.681-3.198 12.743-5.276l6.431-3.289 6.582 2.977c7.065 3.198 15.494 1.659 20.975-3.821 5.481-5.481 7.018-13.911 3.822-20.976l-2.976-6.58 3.287-6.43c2.078-4.065 3.854-8.354 5.276-12.745l2.225-6.865 6.752-2.546c7.257-2.736 12.132-9.783 12.132-17.535 0-7.753-4.875-14.799-12.131-17.534l-6.753-2.547-2.225-6.865c-1.423-4.392-3.198-8.68-5.276-12.745l-3.287-6.43 2.976-6.58c3.195-7.065 1.659-15.495-3.822-20.976-5.481-5.482-13.911-7.018-20.975-3.822l-6.58 2.977-6.431-3.288c-4.064-2.077-8.354-3.854-12.747-5.278l-6.864-2.225-2.545-6.752c-2.735-7.256-9.782-12.131-17.535-12.131s-14.8 4.875-17.535 12.13l-2.545 6.752-6.864 2.225c-4.394 1.425-8.683 3.201-12.747 5.278l-6.431 3.288-6.58-2.977c-7.064-3.195-15.493-1.659-20.975 3.821-5.481 5.481-7.018 13.911-3.822 20.977l2.976 6.58-3.287 6.43c-2.078 4.065-3.854 8.354-5.276 12.745l-2.225 6.865-6.753 2.547c-7.256 2.735-12.131 9.781-12.131 17.534 0 7.752 4.875 14.799 12.132 17.536zm102.364-7.235h30v30h-30zm-50.602-50.602h30v30h-30z"/><circle cx="476.399" cy="476.399" r="35.602"/><path d="m331 269.195h91c49.626 0 90-40.374 90-90h-30c0 30.562-22.974 55.842-52.556 59.522 14.028-15.876 22.556-36.72 22.556-59.522 0-40.243-26.552-74.4-63.056-85.878.817 3.526 1.251 7.17 1.251 10.878 0 7.009-1.537 13.793-4.328 19.965 21.24 9.247 36.133 30.43 36.133 55.035 0 33.084-26.916 60-60 60h-31c-33.084 0-60 26.916-60 60v16.805c0 8.271-6.729 15-15 15s-15-6.729-15-15v-16.805c0-33.084-26.916-60-60-60h-31c-33.084 0-60-26.916-60-60 0-24.605 14.893-45.788 36.133-55.035-2.791-6.172-4.328-12.956-4.328-19.965 0-3.708.434-7.353 1.251-10.878-36.504 11.478-63.056 45.635-63.056 85.878 0 22.801 8.528 43.645 22.556 59.522-29.582-3.68-52.556-28.96-52.556-59.522h-30c0 49.626 40.374 90 90 90h91c16.542 0 30 13.458 30 30v141.602h-175.398c-9.622 0-18.637 3.778-25.385 10.64-6.746 6.859-10.373 15.943-10.212 25.577.322 19.291 16.665 34.986 36.43 34.986h384.906c-6.659-10.262-10.544-22.483-10.544-35.602s3.885-25.339 10.544-35.602h-120.341v-141.601c0-16.542 13.458-30 30-30z"/></g></svg>