<svg id="Capa_1" enable-background="new 0 0 512 512" height="512" viewBox="0 0 512 512" width="512" xmlns="http://www.w3.org/2000/svg"><g><path d="m85.331 282.312 85.331-43.873 85.331 43.873 85.333-43.873 85.337 43.873 68.788-35.364-111.451-118.948h-71.606l12.327-73.962 58.065-26.8-12.572-27.238-72.476 33.45-15.758 94.55h-153.98l-111.451 118.948z"/><path d="m426.663 316.044-85.337-43.872-85.333 43.872-85.331-43.872-85.331 43.872-81.249-41.774c-2.677 14.839-4.082 30.12-4.082 45.73 0 76.467 33.538 145.091 86.694 192h338.613c53.155-46.909 86.693-115.533 86.693-192 0-15.61-1.405-30.892-4.082-45.73zm-306.288 105.581h-30v-30h30zm60.25 30.125h-30v-30h30zm0-60.25h-30v-30h30z"/></g></svg>