<?xml version="1.0" encoding="iso-8859-1"?>
<!-- Generator: Adobe Illustrator 19.0.0, SVG Export Plug-In . SVG Version: 6.00 Build 0)  -->
<svg version="1.1" id="Layer_1" xmlns="http://www.w3.org/2000/svg" xmlns:xlink="http://www.w3.org/1999/xlink" x="0px" y="0px"
	 viewBox="0 0 512 512" style="enable-background:new 0 0 512 512;" xml:space="preserve">
<g>
	<g>
		<rect x="238.139" y="226.233" width="83.349" height="23.814"/>
	</g>
</g>
<g>
	<g>
		<path d="M256,381.023c-9.848,0-17.86,8.012-17.86,17.86s8.012,17.86,17.86,17.86s17.86-8.012,17.86-17.86
			S265.848,381.023,256,381.023z"/>
	</g>
</g>
<g>
	<g>
		<path d="M71.442,0v512h369.116V0H71.442z M184.558,71.442h142.884v35.721H184.558V71.442z M256,452.465
			c-29.545,0-53.581-24.037-53.581-53.581c0-29.545,24.037-53.581,53.581-53.581s53.581,24.037,53.581,53.581
			C309.581,428.428,285.545,452.465,256,452.465z M357.209,285.767h-23.814v29.767h-35.721v-29.767h-35.721v29.767h-35.721v-29.767
			h-23.814v-73.179l-16.992-33.984h-36.589v-35.721h58.667l23.814,47.628h125.891V285.767z"/>
	</g>
</g>
<g>
</g>
<g>
</g>
<g>
</g>
<g>
</g>
<g>
</g>
<g>
</g>
<g>
</g>
<g>
</g>
<g>
</g>
<g>
</g>
<g>
</g>
<g>
</g>
<g>
</g>
<g>
</g>
<g>
</g>
</svg>
