<svg id="Capa_1" enable-background="new 0 0 512 512" height="512" viewBox="0 0 512 512" width="512" xmlns="http://www.w3.org/2000/svg"><g><path d="m215 215h82v82h-82z"/><path d="m512 95v-30h-65v-65h-30v65h-40.4v-65h-30v65h-40.4v-65h-30v65h-40.4v-65h-30v65h-40.4v-65h-30v65h-40.4v-65h-30v65h-65v30h65v40.4h-65v30h65v40.4h-65v30h65v40.4h-65v30h65v40.4h-65v30h65v40.4h-65v30h65v65h30v-65h40.4v65h30v-65h40.4v65h30v-65h40.4v65h30v-65h40.4v65h30v-65h40.4v65h30v-65h65v-30h-65v-40.4h65v-30h-65v-40.4h65v-30h-65v-40.4h65v-30h-65v-40.4h65v-30h-65v-40.4zm-387 30h30v30h-30zm0 232h30v30h-30zm202 15h-30v-45h-26v45h-30v-45h-26v45h-30v-45h-45v-30h45v-26h-45v-30h45v-26h-45v-30h45v-45h30v45h26v-45h30v45h26v-45h30v45h45v30h-45v26h45v30h-45v26h45v30h-45zm60 15h-30v-30h30zm0-232h-30v-30h30z"/></g></svg>