<svg id="Capa_1" enable-background="new 0 0 512 512" height="512" viewBox="0 0 512 512" width="512" xmlns="http://www.w3.org/2000/svg"><g><circle cx="256" cy="240" r="30"/><path d="m301.333 384.221v-38.888c0-24.997-20.336-45.333-45.333-45.333s-45.333 20.336-45.333 45.333v38.888c9.66 3.426 19.817 5.788 30.333 6.948v-29.169h30v29.169c10.516-1.159 20.673-3.522 30.333-6.948z"/><path d="m362 271v-30h29.169c-6.948-63.03-57.139-113.221-120.169-120.169v29.169h-30v-29.169c-63.03 6.948-113.221 57.139-120.169 120.169h29.169v30h-29.169c4.508 40.897 27.22 76.389 59.836 98.172v-23.839c0-26.009 13.25-48.978 33.353-62.52-11.11-10.896-18.02-26.06-18.02-42.813 0-33.084 26.916-60 60-60s60 26.916 60 60c0 16.753-6.91 31.917-18.02 42.813 20.103 13.542 33.353 36.512 33.353 62.52v23.839c32.616-21.783 55.328-57.274 59.836-98.172z"/><path d="m437.02 74.98c-48.353-48.351-112.64-74.98-181.02-74.98s-132.667 26.629-181.02 74.98c-48.351 48.353-74.98 112.64-74.98 181.02s26.629 132.667 74.98 181.02c48.353 48.351 112.64 74.98 181.02 74.98s132.667-26.629 181.02-74.98c48.351-48.353 74.98-112.64 74.98-181.02s-26.629-132.667-74.98-181.02zm-166.02 377.02h-30v-30.685c-79.586-7.163-143.152-70.729-150.315-150.315h-30.685v-30h30.685c7.163-79.586 70.729-143.152 150.315-150.315v-30.685h30v30.685c79.586 7.163 143.152 70.729 150.315 150.315h30.685v30h-30.685c-7.163 79.586-70.729 143.152-150.315 150.315z"/></g></svg>