<?xml version="1.0" encoding="iso-8859-1"?>
<!-- Generator: Adobe Illustrator 19.0.0, SVG Export Plug-In . SVG Version: 6.00 Build 0)  -->
<svg xmlns="http://www.w3.org/2000/svg" xmlns:xlink="http://www.w3.org/1999/xlink" version="1.1" id="Layer_1" x="0px" y="0px" viewBox="0 0 512 512" style="enable-background:new 0 0 512 512;" xml:space="preserve">
<g>
	<g>
		<polygon points="115.547,448.68 104.974,438.067 73.873,406.846 63.3,396.243 52.737,385.63 0,438.357 73.524,511.88     126.11,459.293   "/>
	</g>
</g>
<g>
	<g>
		<path d="M493.03,19.09C480.799,6.859,464.545,0.12,447.252,0.12c-17.303,0-33.557,6.739-45.788,18.97s-18.97,28.485-18.97,45.788    c0,12.18,3.345,23.851,9.604,33.964l-30.303,30.303c-19.699-10.672-44.888-7.687-61.522,8.947L73.913,364.443l10.573,10.613    L95.05,385.67l31.111,31.211l10.563,10.623l10.573,10.603l226.492-226.492c9.824-9.824,15.236-22.874,15.236-36.762    c0-8.675-2.117-17.031-6.099-24.479l30.363-30.363c10.104,6.269,21.775,9.614,33.964,9.614c17.293,0,33.547-6.739,45.778-18.97    S512,82.17,512,64.877C512,47.575,505.261,31.32,493.03,19.09z"/>
	</g>
</g>
<g>
</g>
<g>
</g>
<g>
</g>
<g>
</g>
<g>
</g>
<g>
</g>
<g>
</g>
<g>
</g>
<g>
</g>
<g>
</g>
<g>
</g>
<g>
</g>
<g>
</g>
<g>
</g>
<g>
</g>
</svg>
