<?xml version="1.0" encoding="iso-8859-1"?>
<!-- Generator: Adobe Illustrator 19.0.0, SVG Export Plug-In . SVG Version: 6.00 Build 0)  -->
<svg version="1.1" id="Layer_1" xmlns="http://www.w3.org/2000/svg" xmlns:xlink="http://www.w3.org/1999/xlink" x="0px" y="0px"
	 viewBox="0 0 512 512" style="enable-background:new 0 0 512 512;" xml:space="preserve">
<g>
	<g>
		<path d="M219.389,0v117.741h20.92v92.442c5.163-0.647,10.399-0.984,15.69-0.984c5.291,0,10.528,0.337,15.69,0.984v-92.442h20.92V0
			H219.389z"/>
	</g>
</g>
<g>
	<g>
		<path d="M337.777,346.544c2.956-8.092,4.585-16.754,4.585-25.773c0-44.29-38.666-80.192-86.362-80.192
			c-47.695,0-86.362,35.903-86.362,80.192c0,9.02,1.628,17.68,4.585,25.773c-18.165,17.573-29.26,41.011-29.26,66.757
			C144.963,467.811,194.676,512,256,512s111.037-44.189,111.037-98.698C367.036,387.556,355.942,364.116,337.777,346.544z
			 M237.493,314.604h37.013v37.011h-37.013V314.604z M293.012,441.329h-74.025v-31.38h74.025V441.329z"/>
	</g>
</g>
<g>
</g>
<g>
</g>
<g>
</g>
<g>
</g>
<g>
</g>
<g>
</g>
<g>
</g>
<g>
</g>
<g>
</g>
<g>
</g>
<g>
</g>
<g>
</g>
<g>
</g>
<g>
</g>
<g>
</g>
</svg>
