<svg id="Capa_1" enable-background="new 0 0 512 512" height="512" viewBox="0 0 512 512" width="512" xmlns="http://www.w3.org/2000/svg"><g id="In_Love_1_"><g><path d="m348.197 137.197-17.197 17.198-17.197-17.197c-2.93-2.93-7.676-2.93-10.605 0-2.931 2.931-2.931 7.675 0 10.605l27.802 27.802 27.803-27.803c2.931-2.931 2.931-7.675 0-10.605-2.93-2.929-7.676-2.929-10.606 0z"/><path d="m208.803 147.803c2.931-2.931 2.931-7.675 0-10.605-2.93-2.93-7.676-2.93-10.605 0l-17.198 17.197-17.197-17.197c-2.93-2.93-7.676-2.93-10.605 0-2.931 2.931-2.931 7.675 0 10.605l27.802 27.802z"/></g><path d="m376 390h-118.878c.002 0 .003-.003.005-.003 107.003-.609 193.873-87.853 193.873-194.997 0-107.52-87.48-195-195-195s-195 87.48-195 195c0 107.021 86.672 194.188 193.506 194.994.004 0 .008.005.012.006h-118.518c-57.891 0-105 47.109-105 105v17h450v-17c0-57.891-47.109-105-105-105zm-94.014-274.014c13.33-13.345 34.336-14.502 49.014-3.486 14.678-11.016 35.684-9.858 49.014 3.486 7.09 7.09 10.986 16.494 10.986 26.514s-3.896 19.424-10.986 26.514l-49.014 49.013-49.014-49.014c-7.09-7.089-10.986-16.493-10.986-26.513s3.896-19.424 10.986-26.514zm-160.986 26.514c0-10.02 3.896-19.424 10.986-26.514 13.33-13.345 34.336-14.502 49.014-3.486 14.678-11.016 35.684-9.858 49.014 3.486 7.09 7.09 10.986 16.494 10.986 26.514s-3.896 19.424-10.986 26.514l-49.014 49.013-49.014-49.014c-7.09-7.089-10.986-16.493-10.986-26.513zm56.807 122.52 22.324-20.039c28.506 31.816 83.232 31.816 111.738 0l22.324 20.039c-19.922 22.221-48.427 34.98-78.193 34.98s-58.271-12.759-78.193-34.98z"/></g></svg>