<svg id="Capa_1" enable-background="new 0 0 511.999 511.999" height="512" viewBox="0 0 511.999 511.999" width="512" xmlns="http://www.w3.org/2000/svg"><g><path d="m420.999 421.999v-120h-330v30h180v90zm-60-45h-30v-30h30z"/><path d="m90.999 451.999h330v60h-330z"/><path d="m135.999 361.999h90v60h-90z"/><path d="m165.999 271.999h30v-30h45v-35.147h60v65.147l120 .118c0-52.529-42.736-95.266-95.266-95.266h-84.267l74.713-74.713-42.426-42.426-32.754 32.754v-.467h-60c-33.084 0-60 26.916-60 60v90h45z"/><path d="m308.206 10.463h54.445v60h-54.445z" transform="matrix(.707 -.707 .707 .707 69.633 249.035)"/></g></svg>