<svg id="Capa_1" enable-background="new 0 0 512 512" height="512" viewBox="0 0 512 512" width="512" xmlns="http://www.w3.org/2000/svg"><g><path d="m228.333 464.334c0 15.256 12.411 27.667 27.667 27.667 15.255 0 27.667-12.411 27.667-27.667 0-15.255-12.411-27.666-27.667-27.666s-27.667 12.411-27.667 27.666z"/><path d="m198.333 464.334c0-10.02 2.573-19.448 7.086-27.666h-119.086v20.332c0 30.327 24.673 55 55 55h82.252c-15.231-10.391-25.252-27.878-25.252-47.666z"/><path d="m425.667 406.668v-351.668c0-30.327-24.673-55-55-55h-99.667v28.996h-30v-28.996h-99.667c-30.327 0-55 24.673-55 55v351.668zm-80.571-93.572c-23.799 23.798-55.44 36.904-89.096 36.904s-65.297-13.106-89.095-36.904c-23.799-23.799-36.905-55.44-36.905-89.096s13.106-65.297 36.905-89.096c23.798-23.798 55.439-36.904 89.095-36.904s65.297 13.106 89.095 36.904c23.799 23.799 36.905 55.44 36.905 89.096s-13.106 65.297-36.904 89.096z"/><path d="m306.58 436.668c4.513 8.218 7.086 17.647 7.086 27.666 0 19.788-10.021 37.275-25.252 47.666h82.252c30.327 0 55-24.673 55-55v-20.332z"/><path d="m352 224c0-53.02-42.981-96-96-96s-96 42.98-96 96 42.981 96 96 96 96-42.98 96-96zm-48 15h-33v33h-30v-33h-33v-30h33v-33h30v33h33z"/></g></svg>