<svg id="Capa_1" enable-background="new 0 0 510 510" height="512" viewBox="0 0 510 510" width="512" xmlns="http://www.w3.org/2000/svg"><g id="XMLID_344_"><circle id="XMLID_356_" cx="374.5" cy="442.5" r="45"/><circle id="XMLID_355_" cx="134.5" cy="442.5" r="45"/><path id="XMLID_354_" d="m285 112.5c0-16.568-13.432-30-30-30s-30 13.432-30 30z"/><path id="XMLID_353_" d="m90.5 232.5h60v45h-60z"/><path id="XMLID_349_" d="m510 337.5v-30h-179.5v-105h105.07l-53.33-60h-382.24v195h45v30h-45v75h59.5c0-41.359 33.65-75 75-75s75 33.641 75 75h90c0-41.359 33.64-75 75-75s75 33.641 75 75h60.5v-75h-45v-30zm-329.5-30h-120v-105h120zm120-30h-30v30h-30v-30h-30v-30h30v-30h30v30h30z"/><path id="XMLID_348_" d="m360.5 277.5h141.736l-40-45h-101.736z"/><path id="XMLID_347_" d="m240 22.5h30v30h-30z"/><path id="XMLID_346_" d="m176.861 48.861h30v30h-30z" transform="matrix(.707 -.707 .707 .707 11.038 154.37)"/><path id="XMLID_345_" d="m304.14 48.861h30v30h-30z" transform="matrix(.707 -.707 .707 .707 48.318 244.37)"/></g></svg>