<svg id="Capa_1" enable-background="new 0 0 512 512" height="512" viewBox="0 0 512 512" width="512" xmlns="http://www.w3.org/2000/svg"><g><path d="m217.29 131.3c11.161 7.235 24.448 11.456 38.71 11.456 39.358 0 71.378-32.021 71.378-71.378 0-14.262-4.221-27.549-11.455-38.709z"/><path d="m294.71 11.456c-11.161-7.235-24.448-11.456-38.71-11.456-39.358 0-71.378 32.02-71.378 71.377 0 14.262 4.221 27.549 11.456 38.71z"/><path d="m482 406.878h30v-78.614h-241v-157.629c-4.895.737-9.903 1.121-15 1.121s-10.105-.385-15-1.121v157.629h-241v78.614h30v30h-30v75.122h512v-75.122h-30zm-367.25 30h-56.5v-30h56.5zm84.75 0h-56.5v-30h56.5zm84.75 0h-56.5v-30h56.5zm84.75 0h-56.5v-30h56.5zm84.75 0h-56.5v-30h56.5z"/></g></svg>