<svg id="Capa_1" enable-background="new 0 0 510 510" height="512" viewBox="0 0 510 510" width="512" xmlns="http://www.w3.org/2000/svg"><g><path d="m30 510h90v-60h-30v-30h90v30h-30v60h90v-60h-30v-30h90v30h-30v60h90v-60h-30v-30h90v30h-30v60h90v-120h-450z"/><path d="m510 240v-240h-510v240h45v60h-45v60h510v-60h-45v-60zm-210-180h45c24.813 0 45 20.188 45 45s-20.187 45-45 45h-15v30h-30c0-12.143 0-109.16 0-120zm-60 0h30v120h-30zm-120 0h30v41.459l15.28 30.561 14.72-30.456v-41.564h30v48.436l-34.59 71.564h-19.681l-35.729-71.459zm315 240h-360v-60h360z"/><path d="m360 105c0-8.271-6.729-15-15-15h-15v30h15c8.271 0 15-6.729 15-15z"/></g></svg>