<svg id="Capa_1" enable-background="new 0 0 512 512" height="512" viewBox="0 0 512 512" width="512" xmlns="http://www.w3.org/2000/svg"><g id="XMLID_560_"><path id="XMLID_608_" d="m83.777 166.566v345.434h103.223v-74.267h138v74.267h103.223v-345.434zm216.298 120.034h-88.149v-30h88.149z"/><path id="XMLID_627_" d="m217 467.733h78v44.267h-78z"/><path id="XMLID_635_" d="m190.685 40.896c3.653 9.681 5.505 19.835 5.505 30.183 0 30.597 24.892 55.488 55.489 55.488h8.644c30.597 0 55.489-24.892 55.489-55.488 0-10.348 1.852-20.502 5.505-30.183l15.431-40.896h-161.496z"/><path id="XMLID_636_" d="m196.806 136.566c-18.7-15.694-30.617-39.222-30.617-65.488 0-6.717-1.202-13.308-3.573-19.591l-18.259-48.385c-34.905 9.808-60.58 41.9-60.58 79.898v53.566z"/><path id="XMLID_644_" d="m349.384 51.487c-2.371 6.283-3.573 12.874-3.573 19.591 0 26.267-11.917 49.794-30.617 65.488h113.03v-53.566c0-37.998-25.675-70.09-60.581-79.898z"/></g></svg>