<svg id="Capa_1" enable-background="new 0 0 512 512" height="512" viewBox="0 0 512 512" width="512" xmlns="http://www.w3.org/2000/svg"><g><path d="m338.469 37.469h67.469v437.062h-299.876v-437.062h67.469v-37.469h-104.938v512h374.814v-512h-104.938z"/><path d="m203.531 0h104.938v71.203h-104.938z"/><path d="m136.062 67.469v377.062h239.876v-377.062h-37.469v33.734h-164.938v-33.734zm69.021 321.601h-33.622v-30h33.622zm0-67.468h-33.622v-30h33.622zm0-67.469h-33.622v-30h33.622zm34.185-97.469h101.271v30h-101.271zm0 67.469h101.271v30h-101.271zm0 67.469h101.271v30h-101.271zm0 67.468h101.271v30h-101.271zm-34.185-202.406v30h-33.622v-30z"/></g></svg>