<svg id="Capa_1" enable-background="new 0 0 512 512" height="512" viewBox="0 0 512 512" width="512" xmlns="http://www.w3.org/2000/svg"><g><path d="m321.602 0h107.187v37.469h-107.187z"/><path d="m83.211 67.469h345.577v37.469h-345.577z"/><path d="m220.398 0h71.203v37.469h-71.203z"/><path d="m83.211 0h107.187v37.469h-107.187z"/><path d="m66.344 474.531h379.312v37.469h-379.312z"/><path d="m239.951 376.013c-7.192-54.561-50.527-97.896-105.088-105.087 7.191 54.56 50.526 97.895 105.088 105.087z"/><path d="m445.656 444.531v-206.523c0-19.631-15.971-35.602-35.602-35.602h-308.108c-19.631 0-35.602 15.971-35.602 35.602v206.523zm-341.843-204.655h15c60.34 0 112.59 35.296 137.187 86.328 24.597-51.032 76.847-86.328 137.187-86.328h15v15c0 83.916-68.271 152.187-152.187 152.187s-152.187-68.271-152.187-152.187z"/><path d="m377.138 270.926c-54.562 7.191-97.896 50.526-105.088 105.087 54.561-7.192 97.896-50.527 105.088-105.087z"/><path d="m116.946 134.938h278.108v37.469h-278.108z"/></g></svg>