<svg id="Capa_1" enable-background="new 0 0 512 512" height="512" viewBox="0 0 512 512" width="512" xmlns="http://www.w3.org/2000/svg"><g><circle cx="256.585" cy="330" r="45"/><path d="m211.585 120v-120h-180v120zm-135-75h90v30h-90z"/><path d="m31.585 150v362h450v-362c-13.112 0-477.45 0-450 0zm225 315c-74.443 0-135-60.557-135-135s60.557-135 135-135 135 60.557 135 135-60.556 135-135 135z"/><path d="m241.585 120h240v-120h-240zm165-75h30v30h-30zm-60 0h30v30h-30zm-30 0v30h-30v-30z"/><path d="m256.585 225c-57.891 0-105 47.109-105 105s47.109 105 105 105 105-47.109 105-105-47.109-105-105-105zm0 180c-41.353 0-75-33.647-75-75s33.647-75 75-75 75 33.647 75 75-33.647 75-75 75z"/></g></svg>