<svg id="Capa_1" enable-background="new 0 0 512 512" height="512" viewBox="0 0 512 512" width="512" xmlns="http://www.w3.org/2000/svg"><g><path d="m317 120c-41.353 0-75 33.647-75 75s33.647 75 75 75 75-33.647 75-75-33.647-75-75-75zm0 120c-24.814 0-45-20.186-45-45h30c0 8.276 6.724 15 15 15s15-6.724 15-15.01h30c0 24.824-20.186 45.01-45 45.01z"/><path d="m317 300c-57.891 0-105-47.109-105-105s47.109-105 105-105 105 47.109 105 105-47.109 105-105 105zm0-300c-107.849 0-195 87.455-195 195 0 115.453 94.362 195 195 195 106.834 0 195-86.602 195-195 0-107.346-87.019-195-195-195zm-178.5 331.199-138.5 138.5 42.299 42.301 138.501-138.5c-16.201-11.7-30.6-26.101-42.3-42.301z"/></g></svg>