<svg id="Capa_1" enable-background="new 0 0 512 512" height="512" viewBox="0 0 512 512" width="512" xmlns="http://www.w3.org/2000/svg"><g><path d="m0 57.997c0 34.746 29.242 63.003 63.988 63.003 19.219 0 36.445-8.643 48.018-22.236 11.572 13.593 28.799 22.236 47.988 22.236 19.219 0 36.445-8.643 48.018-22.236 11.572 13.593 28.799 22.236 47.988 22.236s36.416-8.643 47.988-22.236c11.573 13.593 28.799 22.236 48.018 22.236 19.189 0 36.416-8.643 47.988-22.236 11.572 13.593 28.799 22.236 48.018 22.236 34.746 0 63.988-28.257 63.988-63.003v-57.997h-512z"/><path d="m213.578 226h-32.578v30h30v90h90v-90h30v-30h-32.578c-6.182 17.461-22.852 30-42.422 30s-36.24-12.539-42.422-30z"/><path d="m399.994 137.641c-14.326 8.657-30.879 13.359-47.988 13.359-17.139 0-33.691-4.702-48.018-13.359-14.326 8.657-30.879 13.359-47.988 13.359s-33.662-4.702-47.988-13.359c-14.326 8.657-30.879 13.359-48.018 13.359-17.109 0-33.662-4.702-47.988-13.359-14.326 8.657-30.879 13.359-48.018 13.359-24.362 0-47.39-9.624-63.988-25.014v295.014h512v-295.014c-16.599 15.39-39.626 25.014-63.988 25.014-17.139 0-33.692-4.702-48.018-13.359zm-272.783 163.359-21.211 21.211-51.211-36.211 51.211-51.211 21.211 6.211-30 30zm233.789-15h-30v90h-150v-90h-30v-90h90v15c0 8.276 6.738 15 15 15s15-6.724 15-15v-15h90zm45 51.211-21.211-21.211 30-30-30-30 21.211-21.211 51.211 51.211z"/><path d="m181 451v31h-30v30c4.213 0 217.795 0 210 0v-30h-30v-31z"/></g></svg>