<svg id="Capa_1" enable-background="new 0 0 511.977 511.977" height="512" viewBox="0 0 511.977 511.977" width="512" xmlns="http://www.w3.org/2000/svg"><g><path d="m462.512 13.358c-66.994 20.947-133.644 10.528-204.206-.504-70.854-11.078-144.123-22.532-217.794.504l-10.523 3.29v495.329h30v-148.84c63.464-16.818 126.817-6.932 193.683 3.522 40.712 6.364 82.218 12.854 124.142 12.854 24.606 0 49.358-2.25 74.175-8.059v140.523h30v-504.709zm-343.185 81.909 38.971 22.5-15 25.98-38.971-22.5zm-29.338 79.491h45v30h-45zm14.338 83.509 38.971-22.5 15 25.98-38.971 22.5zm106.662 11.073v-30h30v-31.712c-29.789-6.834-52.083-33.538-52.083-65.37 0-36.989 30.093-67.083 67.083-67.083s67.083 30.094 67.083 67.083c0 31.832-22.294 58.537-52.083 65.37v31.712h30v30h-30v30h-30v-30zm157.691-33.573 38.971 22.5-15 25.98-38.971-22.5zm-15-118 38.971-22.5 15 25.98-38.971 22.5zm68.309 86.991h-45v-30h45z"/><path d="m293.072 142.258c0-20.447-16.635-37.083-37.083-37.083s-37.083 16.636-37.083 37.083 16.635 37.082 37.083 37.082 37.083-16.635 37.083-37.082z"/></g></svg>