<?xml version="1.0" encoding="iso-8859-1"?>
<!-- Generator: Adobe Illustrator 19.0.0, SVG Export Plug-In . SVG Version: 6.00 Build 0)  -->
<svg version="1.1" id="Layer_1" xmlns="http://www.w3.org/2000/svg" xmlns:xlink="http://www.w3.org/1999/xlink" x="0px" y="0px"
	 viewBox="0 0 512 512" style="enable-background:new 0 0 512 512;" xml:space="preserve">
<g>
	<g>
		<path d="M315.911,300.933c-8.259,0-14.978,6.719-14.978,14.978c0,8.259,6.719,14.978,14.978,14.978
			c8.259,0,14.978-6.719,14.978-14.978C330.889,307.652,324.171,300.933,315.911,300.933z"/>
	</g>
</g>
<g>
	<g>
		<path d="M196.09,180.112c-8.259,0-14.978,6.719-14.978,14.978c0,8.259,6.719,14.978,14.978,14.978
			c8.259,0,14.978-6.719,14.978-14.978C211.068,186.831,204.349,180.112,196.09,180.112z"/>
	</g>
</g>
<g>
	<g>
		<path d="M465.491,256l42.688-44.428l-55.292-27.231l24.855-56.401l-61.261-6.593l4.098-61.457l-59.833,14.665l-17.153-59.211
			l-51.197,34.333L256,0l-36.395,49.677l-51.198-34.332l-17.153,59.211L91.422,59.892l4.098,61.456l-61.261,6.593l24.855,56.401
			L3.821,211.573L46.51,256L3.821,300.428l55.293,27.231L34.259,384.06l61.261,6.593l-4.097,61.456l59.832-14.665l17.153,59.211
			l51.197-34.333L256,512l36.395-49.677l51.197,34.332l17.154-59.211l59.833,14.664l-4.098-61.457l61.261-6.593l-24.856-56.401
			l55.292-27.231L465.491,256z M151.156,195.091c0-24.776,20.157-44.933,44.933-44.933s44.933,20.157,44.933,44.933
			s-20.157,44.933-44.933,44.933S151.156,219.867,151.156,195.091z M176.725,356.457l-21.181-21.181l179.733-179.733l21.181,21.181
			L176.725,356.457z M315.911,360.844c-24.777,0-44.933-20.157-44.933-44.933c0-24.776,20.157-44.933,44.933-44.933
			c24.776,0,44.933,20.157,44.933,44.933C360.845,340.687,340.688,360.844,315.911,360.844z"/>
	</g>
</g>
<g>
</g>
<g>
</g>
<g>
</g>
<g>
</g>
<g>
</g>
<g>
</g>
<g>
</g>
<g>
</g>
<g>
</g>
<g>
</g>
<g>
</g>
<g>
</g>
<g>
</g>
<g>
</g>
<g>
</g>
</svg>
