<svg id="Capa_1" enable-background="new 0 0 511.997 511.997" height="512" viewBox="0 0 511.997 511.997" width="512" xmlns="http://www.w3.org/2000/svg"><g><path d="m386.665 209.919v99.411h-30v-86.235c-35.25 0-51.519-16.654-63.3-28.413v46.819h-30v-63.955c-5.187-.977-10.89-1.583-16.799-2.206-15.973-1.683-34.077-3.59-50.631-13.693-2.809-1.715-5.386-3.516-7.795-5.375v85.229h-30v-190.152c-19.476-1.686-36.398 4.591-46.478 14.48-10.419 10.223-16.396 24.419-16.396 38.949v225.507c0 51.988 41.639 94.435 93.318 95.74v30c-20.809-.4-40.398-5.874-57.573-15.241v71.212h225.226v-70.888c-17.654 8.325-37.092 13.461-57.572 14.664v-30.059c65.905-4.793 118.064-59.942 118.064-127.05v-40.665c.001-21.098-12.279-39.377-30.064-48.079z"/><path d="m226.431 0c-13.874 0-28.218 5.951-38.29 15.832v70.538c.255 18.082 2.839 37.105 23.424 49.669 10.787 6.584 24.076 7.984 38.145 9.466 4.515.476 9.093.961 13.656 1.633v-131.667c-9.809-9.708-23.121-15.206-36.935-15.471z"/><path d="m302.742 28.525c-3.199 0-6.331.288-9.377.829v127.267c9.88 5.537 16.876 12.51 23.224 18.847 10.635 10.614 16.826 17.627 39.648 17.627v-111.075c.001-29.497-23.998-53.495-53.495-53.495z"/></g></svg>