<?xml version="1.0" encoding="iso-8859-1"?>
<!-- Generator: Adobe Illustrator 19.0.0, SVG Export Plug-In . SVG Version: 6.00 Build 0)  -->
<svg xmlns="http://www.w3.org/2000/svg" xmlns:xlink="http://www.w3.org/1999/xlink" version="1.1" id="Layer_1" x="0px" y="0px" viewBox="0 0 512.001 512.001" style="enable-background:new 0 0 512.001 512.001;" xml:space="preserve">
<g>
	<g>
		<path d="M246.63,342.519l-7.095-7.092c-10.85-10.85-28.502-10.85-39.352,0c-10.849,10.85-10.849,28.503,0,39.352l7.093,7.093    c5.256,5.256,12.243,8.15,19.676,8.15c7.433,0,14.421-2.895,19.675-8.15c5.257-5.256,8.151-12.243,8.151-19.676    S251.885,347.775,246.63,342.519z"/>
	</g>
</g>
<g>
	<g>
		<path d="M304.722,130.127c-5.256-5.256-12.244-8.15-19.676-8.15c-7.433,0-14.421,2.895-19.676,8.15    c-5.256,5.255-8.15,12.243-8.15,19.676c0,7.433,2.895,14.421,8.15,19.676l31.52,31.519c2.879-8.937,7.842-17.343,14.926-24.426    c7.082-7.083,15.488-12.048,24.426-14.927L304.722,130.127z"/>
	</g>
</g>
<g>
	<g>
		<path d="M381.874,207.277l-7.095-7.092c-10.85-10.85-28.502-10.85-39.352,0c-10.849,10.85-10.849,28.502,0,39.352l7.093,7.093    c5.256,5.256,12.243,8.15,19.676,8.15s14.421-2.895,19.675-8.15c5.257-5.256,8.151-12.243,8.151-19.676    C390.024,219.52,387.129,212.532,381.874,207.277z"/>
	</g>
</g>
<g>
	<g>
		<path d="M169.48,265.371c-5.256-5.256-12.243-8.15-19.676-8.15c-7.433,0-14.421,2.895-19.676,8.15    c-5.256,5.255-8.15,12.244-8.15,19.676c0,7.433,2.895,14.421,8.15,19.676l31.52,31.519c2.879-8.937,7.843-17.343,14.926-24.426    c7.082-7.083,15.488-12.048,24.426-14.927L169.48,265.371z"/>
	</g>
</g>
<g>
	<g>
		<path d="M481.03,30.97c-41.294-41.294-108.243-41.294-149.537,0l-0.394-0.393c-25.446,25.448-41.502,43.339-54.354,58.577    c2.73-0.368,5.501-0.569,8.303-0.569c16.351,0,31.725,6.368,43.287,17.93l77.149,77.149c11.563,11.562,17.93,26.936,17.93,43.287    c0,2.803-0.2,5.572-0.569,8.302c15.24-12.852,33.131-28.908,58.577-54.354l-0.393-0.394    C522.323,139.214,522.323,72.263,481.03,30.97z"/>
	</g>
</g>
<g>
	<g>
		<path d="M318.909,270.239l-77.149-77.15c-11.04-11.039-17.33-25.557-17.877-41.079c-9.481,10.418-20.832,22.354-35.175,36.698    c-14.343,14.343-26.278,25.693-36.696,35.174c15.522,0.548,30.039,6.836,41.079,17.877l77.15,77.149    c11.04,11.039,17.33,25.557,17.877,41.079c9.481-10.418,20.833-22.354,35.176-36.698c14.343-14.343,26.278-25.693,36.696-35.174    C344.466,287.568,329.948,281.279,318.909,270.239z"/>
	</g>
</g>
<g>
	<g>
		<path d="M226.954,423.415c-16.352-0.001-31.726-6.369-43.287-17.931l-77.149-77.149c-11.563-11.562-17.93-26.936-17.93-43.287    c0-2.803,0.2-5.572,0.569-8.302c-15.24,12.852-33.131,28.908-58.577,54.354l0.393,0.394c-41.294,41.294-41.294,108.243,0,149.537    s108.243,41.294,149.537,0l0.394,0.393c25.446-25.448,41.502-43.339,54.354-58.577    C232.527,423.215,229.757,423.415,226.954,423.415z"/>
	</g>
</g>
<g>
</g>
<g>
</g>
<g>
</g>
<g>
</g>
<g>
</g>
<g>
</g>
<g>
</g>
<g>
</g>
<g>
</g>
<g>
</g>
<g>
</g>
<g>
</g>
<g>
</g>
<g>
</g>
<g>
</g>
</svg>
