<svg id="Capa_1" enable-background="new 0 0 512 512" height="512" viewBox="0 0 512 512" width="512" xmlns="http://www.w3.org/2000/svg"><g><path d="m91.18 332.02h91.29v-103.89h-45.94z"/><path d="m212.47 228.13v103.89h155.81l-59.82-103.89z"/><path d="m32.5 159.28c0-38.2 31.08-69.28 69.28-69.28h52.23c6.96 34.19 37.27 60 73.49 60h45v-30h54v-30h-54v-30h54v-30h-54v-30h-45c-36.22 0-66.53 25.81-73.49 60h-52.23c-54.74 0-99.28 44.54-99.28 99.28v246.54c1.27-23.23 12.74-43.79 30-57.27z"/><path d="m455.163 73.87 50.094-51.546-21.514-20.908-73.243 75.366v27.088h54.236l-59.725 64.291 21.978 20.418 82.511-88.816v-25.893z"/><path d="m459.58 402.13c-6.81-23.158-29.331-39.962-53.43-40.1v7.88c0 17.77 14.46 32.22 32.22 32.22z"/><path d="m376.15 369.91v-7.89h-295.65c-21.29 0-39.4 13.91-45.72 33.11h38.64v30h-41.04v39.36h51.64c22.871-50.33 97.379-39.676 105.02 15.37l100.87.37c7.472-55.962 83.386-66.151 105.55-14.66h66.66v-33.44h-23.75c-34.31 0-62.22-27.91-62.22-62.22zm-94.65 54.22h-50.05v-30h50.05z"/><path d="m134.36 461.84c-13.969-.065-25.257 11.613-25.15 25.15 1.381 33.345 48.91 33.348 50.29 0 .105-13.533-11.188-25.218-25.14-25.15z"/><path d="m344.64 461.84c-13.949-.072-25.246 11.622-25.14 25.15 1.384 33.356 48.913 33.337 50.29 0 .111-13.535-11.193-25.22-25.15-25.15z"/></g></svg>