<svg id="Capa_1" enable-background="new 0 0 510 510" height="512" viewBox="0 0 510 510" width="512" xmlns="http://www.w3.org/2000/svg"><g><path d="m271.833 180h11.334c17.553 0 31.833-14.28 31.833-31.833v-13.167h-75.737c.481 4.324.737 8.716.737 13.166 0 17.554 14.28 31.834 31.833 31.834z"/><path d="m465 195v-45h30v-30h-30v-15c0-21.182-11.044-39.821-27.665-50.501l36.665-27.499-18-24-36 27v-30h-30v30l-36-27-18 24 36.665 27.499c-16.622 10.68-27.665 29.319-27.665 50.501v43.167c0 34.095-27.738 61.833-61.833 61.833h-11.334c-34.095 0-61.833-27.738-61.833-61.834 0-48.615-39.551-88.166-88.167-88.166-19.603 0-63.706 0-76.833 0-16.568 0-30 13.432-30 30 0 16.568 13.432 30 30 30-16.568 0-30 13.432-30 30 0 16.568 13.432 30 30 30h45c.007.322-.076-3.692.619 30 7.239 87.311 77.069 157.129 164.381 164.368v65.632h-114.029l-32.663-30.897-20.616 21.795 25.48 24.102-25.48 24.103 20.616 21.795 32.663-30.898h114.029v40h30v-40h135.437l-12.543 17.143 24.211 17.715 36.482-49.858-36.481-49.857-24.211 17.715 12.542 17.142h-135.437v-65c99.252 0 180-80.748 180-180z"/></g></svg>