<svg id="Capa_1" enable-background="new 0 0 512 512" height="512" viewBox="0 0 512 512" width="512" xmlns="http://www.w3.org/2000/svg"><g><path d="m302.088 150c-8.709-12.909-25.093-23.694-46.095-29.49-21.001 5.797-37.384 16.582-46.094 29.49z"/><path d="m255.993 89.49c21.001-5.797 37.384-16.582 46.094-29.49h-92.189c8.709 12.909 25.093 23.694 46.095 29.49z"/><path d="m202.965 0h106.055v30h-106.055z"/><path d="m202.965 180h106.055v30h-106.055z"/><path d="m82.84 316.333h158.153v30h30v-30h158.166v30h30v-60h-188.166v-46.333h-30v46.333h-188.153v60h30z"/><path d="m376.326 376.333h135.667v135.667h-135.667z"/><path d="m188.16 376.333h135.667v135.667h-135.667z"/><path d="m.007 376.333h135.667v135.667h-135.667z"/></g></svg>