<svg id="Capa_1" enable-background="new 0 0 510 510" height="512" viewBox="0 0 510 510" width="512" xmlns="http://www.w3.org/2000/svg"><g id="XMLID_989_"><path id="XMLID_1017_" d="m80.415 225.607c112.67 19.672 235.943 23.863 349.024-.679-5.101-25.59-12.299-50.878-21.449-75.283-12.643-33.723-15.592-70.199-8.526-105.494l8.827-44.151h-306.592l8.828 44.154c7.064 35.289 4.116 71.768-8.528 105.49-9.232 24.622-16.476 50.14-21.584 75.963zm158.58-105.607h30v30h-30z"/><path id="XMLID_1018_" d="m297.761 380.902c5.221 20.846-7.096 43.832-28.767 51.518v4.42l18.29 73.16h133.02c17.312-155.904 17.543-150.836 18.261-178.189-156.397 54.527-139.533 48.648-140.804 49.091z"/><path id="XMLID_1044_" d="m210.252 380.802c-1.292-.452 15.654 5.48-138.817-48.592.967 36.187 3.583 39.179 18.25 177.79h131.02l18.29-73.16v-4.42c-21.652-7.68-34.031-30.673-28.743-51.618z"/><path id="XMLID_1045_" d="m222.126 353.175c10.507-19.278 20.939-33.73 31.869-49.567 6.608 9.855 19.794 27.391 31.914 49.65 1.208-.423-15.686 5.492 152.439-53.377-.61-15.156-1.928-30.306-3.955-45.329-96.079 20.845-221.064 24.698-358.879.652-2.012 15.057-3.312 30.235-3.9 45.42 166.185 58.023 149.297 52.126 150.512 52.551z"/><path id="XMLID_1046_" d="m253.995 357.806c-8.639 14.557-14.878 27.627-15 32.212 0 8.254 6.729 14.982 15 14.982 8.267 0 14.993-6.723 15-14.988-.128-4.591-6.366-17.655-15-32.206z"/></g></svg>