<svg id="Capa_1" enable-background="new 0 0 512 512" height="512" viewBox="0 0 512 512" width="512" xmlns="http://www.w3.org/2000/svg"><g><path d="m383.472 33.087c7.77 11.108 13.753 23.297 17.581 36.254 13.843-17.81 34.417-29.221 56.989-31.472l.743-.074h53.215v-37.795h-45.823c-30.989 0-60.517 11.936-82.705 33.087z"/><path d="m280.643 512 2.832-37.552h-54.95l2.832 37.552z"/><path d="m512 67.795h-51.676c-14.838 1.68-28.261 9.571-36.913 21.729l-17.473 24.577v48.026c0 16.489-4.029 32.756-11.537 47.637l32.427 35.248c9.401 10.218 22.226 15.846 36.111 15.846 13.418 0 25.945-5.315 35.272-14.968 8.893-9.196 13.789-21.307 13.789-34.105z"/><path d="m106.062 162.127v-48.026l-17.477-24.581c-8.648-12.153-22.071-20.045-36.91-21.725h-51.675v143.99c0 12.799 4.896 24.909 13.786 34.102 9.331 9.656 21.858 14.972 35.276 14.972 13.885 0 26.709-5.628 36.111-15.847l32.426-35.247c-7.508-14.882-11.537-31.149-11.537-47.638z"/><path d="m0 0v37.795h53.215l.743.074c22.573 2.251 43.15 13.664 56.989 31.472 3.828-12.957 9.81-25.147 17.58-36.254-22.187-21.151-51.715-33.087-82.704-33.087z"/><path d="m322.225 244.188 24.876-21.716c18.595-16.233 28.836-37.665 28.836-60.346v-59.056c.001-56.833-53.803-103.07-119.937-103.07s-119.938 46.237-119.938 103.07v59.057c0 22.681 10.241 44.112 28.837 60.346l24.876 21.716-25.351 31.57c-13.101 16.314-32.617 25.672-53.542 25.672v30c28.663 0 55.479-12.226 74.231-33.677.918-1.051 27.282-33.818 27.282-33.818l13.868 180.514h59.475l13.868-180.514s26.364 32.767 27.282 33.817c18.752 21.452 45.568 33.678 74.231 33.678v-30c-20.925 0-40.441-9.357-53.542-25.673zm-101.827-98.297h-30v-30h30zm71.204-30h30v30h-30z"/></g></svg>