<svg id="Capa_1" enable-background="new 0 0 512.001 512.001" height="512" viewBox="0 0 512.001 512.001" width="512" xmlns="http://www.w3.org/2000/svg"><g><path d="m328.25 213.75v23.583h-30v-23.583h-30.25v23.583h-30v-23.583h-30.25v50.583h150.75v-50.583z"/><path d="m300 109.25c0-8.822-7.178-16-16-16s-16 7.178-16 16v14.25h32z"/><path d="m207.75 153.5h150.75v30.25h-150.75z"/><path d="m488.39 202.648c0-111.92-90.728-202.648-202.648-202.648-90.163 0-166.564 58.878-192.868 140.28l-9.76 60.392-59.504 98.703v29.92h47.385l20.165 110.149h112.918l17.139 72.557h228.021l-28.235-158.448c41.367-37.101 67.387-90.969 67.387-150.905zm-99.89 91.685h-210.75v-170.833h60.25v-14.25c0-25.364 20.636-46 46-46s46 20.636 46 46v14.25h58.5z"/></g></svg>