<svg id="Capa_1" enable-background="new 0 0 510 510" height="512" viewBox="0 0 510 510" width="512" xmlns="http://www.w3.org/2000/svg"><g><path d="m234.084 382.5h41.833l22.5-15h181.583v-30h-450v30h181.584z"/><path d="m307.5 397.5-22.5 15h-60l-22.5-15h-202.5c0 41.422 33.579 75 75 75h360c41.421 0 75-33.578 75-75z"/><path d="m135 178.713v17.574l15 10.486 15-10.486v-17.574l-15-10.485z"/><path d="m480 37.5h-450v270h450zm-285 99.27-19.678 13.756 19.678 15.761v42.426l-19.678 15.762 19.678 13.755v39.27h-30v-20.729l-15-12.015-15 12.015v20.729h-30v-39.27l19.678-13.755-19.678-15.762v-42.426l19.678-15.761-19.678-13.756v-39.27h30v20.729l15 12.015 15-12.015v-20.729h30zm225 110.73h-135v-30h135zm0-60h-135v-30h135zm0-60h-135v-30h135z"/></g></svg>