<?xml version="1.0" encoding="iso-8859-1"?>
<!-- Generator: Adobe Illustrator 19.0.0, SVG Export Plug-In . SVG Version: 6.00 Build 0)  -->
<svg xmlns="http://www.w3.org/2000/svg" xmlns:xlink="http://www.w3.org/1999/xlink" version="1.1" id="Layer_1" x="0px" y="0px" viewBox="0 0 512 512" style="enable-background:new 0 0 512 512;" xml:space="preserve">
<g>
	<g>
		<path d="M425.36,211.396L425.36,211.396v-55.822c0-56.159-45.69-101.849-101.848-101.849c-56.158,0-101.848,45.69-101.848,101.849    v170.409c0,12.171-9.903,22.074-22.074,22.074c-12.171,0-22.074-9.902-22.074-22.074V84.71c4.083,1.278,8.423,1.968,12.921,1.968    c23.897,0,43.339-19.442,43.339-43.338S214.336,0,190.439,0s-43.338,19.442-43.338,43.339v282.644    c0,28.943,23.548,52.491,52.491,52.491c7.882,0,15.358-1.757,22.074-4.884v12.369c0,52.727-42.896,95.623-95.623,95.623    c-52.727,0-95.624-42.897-95.624-95.624V84.71c4.083,1.278,8.423,1.968,12.921,1.968c23.897,0,43.338-19.442,43.338-43.338    S67.237,0,43.34,0S0.001,19.442,0.001,43.339v342.62C0.001,455.458,56.542,512,126.041,512s126.041-56.541,126.041-126.041    V155.575c0-39.387,32.044-71.432,71.431-71.432s71.431,32.043,71.431,71.432v55.822h-86.639v96.907v30.417V512h203.696V338.721    v-30.417v-96.907H425.36z M410.152,471.316c-33.727,0.001-61.165-27.437-61.165-61.165c0-33.727,27.439-61.166,61.165-61.166    c33.728,0,61.166,27.439,61.166,61.166S443.878,471.316,410.152,471.316z M481.582,308.303H338.721v-66.49h142.861V308.303z"/>
	</g>
</g>
<g>
	<g>
		<path d="M410.152,379.402c-16.955,0-30.748,13.793-30.748,30.749c0,16.954,13.793,30.748,30.748,30.748    c16.956,0.001,30.749-13.793,30.749-30.748C440.9,393.197,427.107,379.402,410.152,379.402z"/>
	</g>
</g>
<g>
</g>
<g>
</g>
<g>
</g>
<g>
</g>
<g>
</g>
<g>
</g>
<g>
</g>
<g>
</g>
<g>
</g>
<g>
</g>
<g>
</g>
<g>
</g>
<g>
</g>
<g>
</g>
<g>
</g>
</svg>
