<svg id="Capa_1" enable-background="new 0 0 512 512" height="512" viewBox="0 0 512 512" width="512" xmlns="http://www.w3.org/2000/svg"><g><path d="m147.603 416.06h323.288c22.668 0 41.109-18.442 41.109-41.11v-27.274h-332.715c-1.728 26.759-13.546 50.811-31.682 68.384z"/><path d="m109.966 242.194c30.738 11.003 54.882 35.981 64.731 67.244l326.572-150.09-14.915-30.655c-6.683-13.735-18.28-24.144-32.656-29.306-14.352-5.153-29.895-4.512-43.771 1.807z"/><path d="m0 340.856c0 41.221 33.536 74.756 74.757 74.756s74.756-33.535 74.756-74.756-33.536-74.757-74.756-74.757c-41.221 0-74.757 33.536-74.757 74.757zm59.765-14.992h29.984v29.984h-29.984z"/><path d="m383.331 246.569h103.371v-47.509z"/></g></svg>