<svg id="Capa_1" enable-background="new 0 0 511.971 511.971" height="512" viewBox="0 0 511.971 511.971" width="512" xmlns="http://www.w3.org/2000/svg"><g><circle cx="189.749" cy="322.222" r="30"/><path d="m282.489 417.947c4.761-20.369 16.291-38.565 32.468-51.234 24.268-19.005 36.053-49.312 32.334-83.151-1.575-14.326-5.968-28.796-12.811-42.432l50.212-50.212-63.64-63.64-50.211 50.211c-13.636-6.843-28.106-11.236-42.432-12.811-33.838-3.719-64.145 8.066-83.151 32.334-12.67 16.177-30.865 27.708-51.233 32.468-22.355 5.225-42.534 16.348-58.354 32.168-25.513 25.513-38.049 60.769-35.297 99.274 2.693 37.699 19.809 74.093 48.195 102.479s64.78 45.502 102.479 48.195c38.505 2.751 73.761-9.784 99.274-35.297 15.819-15.819 26.943-35.997 32.167-58.352zm-145.773 20.948-63.64-63.64 21.213-21.213 63.64 63.64zm10.607-74.247c-23.394-23.394-23.394-61.459 0-84.853s61.459-23.394 84.853 0 23.394 61.459 0 84.853-61.459 23.394-84.853 0z"/><path d="m427.118 190.919 21.213-21.213-21.213-21.213 21.213-21.214 21.214 21.214 21.213-21.214-21.213-21.213 42.426-42.426-63.64-63.64-42.426 42.427-21.213-21.214-21.213 21.214 21.213 21.213-21.213 21.213-21.214-21.213-21.213 21.213z"/></g></svg>