<svg id="Capa_1" enable-background="new 0 0 510 510" height="512" viewBox="0 0 510 510" width="512" xmlns="http://www.w3.org/2000/svg"><g><path id="XMLID_383_" d="m135 180h240v135h-240z"/><path id="XMLID_1532_" d="m135 345h240v30h-240z"/><path id="XMLID_1533_" d="m135 435.01c0 41.35 33.641 74.99 74.99 74.99h90.02c41.35 0 74.99-33.641 74.99-74.99v-30.01h-240z"/><path id="XMLID_1534_" d="m302.412 81.707c-6.279 8.09-14.566 14.547-24.123 18.588l26.119 49.705h33.891z"/><path id="XMLID_1541_" d="m207.588 81.706-35.887 68.294h33.89l26.119-49.706c-9.556-4.04-17.844-10.497-24.122-18.588z"/><path id="XMLID_1544_" d="m240 103.102v46.898h30v-46.898c-9.689 2.502-20.077 2.562-30 0z"/><path id="XMLID_1545_" d="m30 0v30h199.023c-2.554 4.414-4.023 9.533-4.023 15 0 16.568 13.432 30 30 30s30-13.432 30-30c0-5.467-1.469-10.586-4.023-15h199.023v-30z"/></g></svg>