<svg id="Capa_1" enable-background="new 0 0 512 512" height="512" viewBox="0 0 512 512" width="512" xmlns="http://www.w3.org/2000/svg"><g><path d="m247.579 285.245h235.975c15.71 0 28.446-12.735 28.446-28.446 0-15.71-12.736-28.446-28.446-28.446h-235.975v-29h33.311v-61h30v61h143.501c-25.252-100.023-115.82-174.056-223.687-174.056-127.415 0-230.704 103.289-230.704 230.703s103.289 230.704 230.704 230.704c107.292 0 197.472-73.244 223.281-172.458h-206.406zm-68.587-146.891h30v61.998h-30zm127.019 207.403v30h-67.8c-13.793 0-25.016 11.222-25.016 25.016h-30c0-30.336 24.68-55.016 55.016-55.016z"/></g></svg>