<svg id="Capa_1" enable-background="new 0 0 512 512" height="512" viewBox="0 0 512 512" width="512" xmlns="http://www.w3.org/2000/svg"><g><path d="m324.483 395.615h-8.555c-8.772 17.618-21.802 32.731-38.15 44.086-19.691 13.679-42.814 20.909-66.868 20.909s-47.177-7.23-66.868-20.909c-16.347-11.355-29.377-26.468-38.15-44.086h-8.555c-41.332 0-74.958 33.626-74.958 74.958v41.427h71.203v-39.769h30v39.769h174.656v-39.769h30v39.769h71.203v-41.427c0-41.332-33.626-74.958-74.958-74.958z"/><path d="m168.271 326.506c12.754 7.995 27.497 12.219 42.64 12.219s29.886-4.224 42.635-12.216c23.677-14.829 37.811-40.331 37.811-68.22v-54.752h-160.893v54.752c0 27.889 14.134 53.391 37.807 68.217z"/><path d="m210.911 430.61c28.208 0 53.816-13.22 69.998-34.995h-34.397v-32.781c-11.39 3.875-23.401 5.891-35.602 5.891s-24.212-2.016-35.602-5.891v32.781h-34.396c16.182 21.776 41.79 34.995 69.999 34.995z"/><path d="m439.021 114.315 18.482-18.482c10.603-10.603 16.442-24.7 16.442-39.695s-5.839-29.093-16.442-39.695c-10.603-10.604-24.7-16.443-39.695-16.443s-29.092 5.839-39.695 16.442c-21.888 21.888-21.888 57.503 0 79.391l18.482 18.482-50.6 50.6 21.213 21.213 50.6-50.6 50.6 50.6 21.213-21.213zm-39.695-76.66c4.937-4.937 11.5-7.655 18.481-7.655 6.982 0 13.545 2.719 18.482 7.655 10.191 10.191 10.191 26.773 0 36.965l-18.482 18.482-18.481-18.482c-10.191-10.191-10.191-26.773 0-36.965z"/><path d="m238.888 104.336s-76.061 0-101.175 0c-6.756 0-11.459-7.51-11.459-14.56h-30.064s-.04 35.051 0 35.899c.454 9.578 3.502 18.515 8.423 26.104 7.822 12.062 20.527 20.719 35.701 23.138 2.755.445 5.553.668 8.344.668h142.697v-18.779c.001-28.933-23.536-52.47-52.467-52.47z"/></g></svg>