<svg id="Layer_1" enable-background="new 0 0 510 510" height="512" viewBox="0 0 510 510" width="512" xmlns="http://www.w3.org/2000/svg"><g id="XMLID_2032_"><path id="XMLID_2085_" d="m419.31 240c-3.101-34.25-16.707-65.512-37.57-90.527l-20.675 20.674-21.213-21.213 20.675-20.674c-25.015-20.864-56.277-34.469-90.527-37.571v29.311h-30v-29.311c-34.25 3.102-65.512 16.707-90.527 37.57l20.675 20.674-21.214 21.213-20.674-20.674c-20.864 25.016-34.47 56.278-37.571 90.528h29.311v30h-29.311c3.101 34.25 16.707 65.512 37.57 90.527l20.674-20.675 21.214 21.213-20.675 20.675c25.016 20.863 56.277 34.469 90.527 37.57v-29.31h30v29.311c34.25-3.102 65.512-16.707 90.527-37.57l-20.675-20.675 21.213-21.213 20.675 20.675c20.863-25.016 34.469-56.277 37.57-90.527h-29.309v-30h29.31zm-111.018 58.416-68.292-34.145v-84.271h30v65.73l51.708 25.855z"/><path id="XMLID_2088_" d="m449.5 0h-389c-33.36 0-60.5 27.141-60.5 60.5v389c0 33.359 27.14 60.5 60.5 60.5h389c33.359 0 60.5-27.141 60.5-60.5v-389c0-33.359-27.141-60.5-60.5-60.5zm-194.5 450c-107.523 0-195-87.477-195-195s87.477-195 195-195 195 87.477 195 195-87.477 195-195 195z"/></g></svg>