<svg id="Capa_1" enable-background="new 0 0 512 512" height="512" viewBox="0 0 512 512" width="512" xmlns="http://www.w3.org/2000/svg"><g><path d="m307.1 110.369c-12.925 9.564-28.9 15.232-46.177 15.232s-33.252-5.668-46.177-15.232c-20.263 14.444-33.491 38.12-33.491 64.9v15.934h159.336v-15.933c0-26.781-13.228-50.457-33.491-64.901z"/><path d="m245.894 240v53.787l-22.123-22.123-21.213 21.213 58.336 58.336 58.336-58.336-21.213-21.213-22.123 22.123v-53.787z"/><path d="m142.592 292.877-21.213-21.213-22.123 22.123v-83.787h41.638v-30h-71.638v113.787l-22.124-22.123-21.213 21.213 58.337 58.336z"/><path d="m400.409 271.664-21.213 21.213 58.336 58.336 58.336-58.336-21.213-21.213-22.123 22.123v-113.787h-71.638v30h41.638v83.787z"/><path d="m197.655 385.465h126.535v126.535h-126.535z"/><circle cx="437.532" cy="448.732" r="63.268"/><path d="m11.2 512h146.111l-73.055-126.535z"/><circle cx="260.923" cy="47.801" r="47.801"/></g></svg>