<svg id="Capa_1" enable-background="new 0 0 512 512" height="512" viewBox="0 0 512 512" width="512" xmlns="http://www.w3.org/2000/svg"><g id="XMLID_1030_"><path id="XMLID_1041_" d="m503.299 66.351c-14.287-19.586-36.969-31.572-61.11-32.428v-33.923h-372.4v33.923c-24.143.855-46.828 12.842-61.16 32.491l-2.926 4.096 2.966 4.067c14.287 19.591 36.973 31.578 61.12 32.435v33.803h123.387l-84.346 260.111 4.566 8.156c12.275 21.919 32.303 38.027 55.981 45.391l38.786-356.626c2.956-24.128 23.517-42.324 47.826-42.324s44.87 18.196 47.826 42.324l.023.201 35.466 326.114c24.148-7.193 44.557-23.414 57.049-45.722l4.678-8.356-80.841-229.27h121.999v-33.804c24.145-.857 46.828-12.843 61.115-32.434l2.992-4.118zm-329.698 19.061h-32.343v-29.89h32.343zm163.209-29.89h32.342v29.89h-32.342z"/><path id="XMLID_1045_" d="m274.137 101.396c-1.161-9.118-8.947-15.983-18.147-15.983-9.201 0-16.987 6.865-18.147 15.983l-44.656 410.604h47.855v-110.617h29.89v110.617h47.86z"/></g></svg>