<svg id="Capa_1" enable-background="new 0 0 512 512" height="512" viewBox="0 0 512 512" width="512" xmlns="http://www.w3.org/2000/svg"><g><path d="m0 497v15h151v-15c0-41.353-33.647-76-75-76s-76 34.647-76 76z"/><path d="m361 497v15h151v-15c0-41.353-34.647-76-76-76s-75 34.647-75 76z"/><path d="m481 46c0-24.814-20.186-46-45-46s-45 21.186-45 46 20.186 45 45 45 45-20.186 45-45z"/><path d="m436 91c-41.353 0-75 33.647-75 75v15h60v30h-70.532c-16.921-35.345-52.742-60-94.468-60s-77.547 24.655-94.468 60h-70.532v-30h60v-15c0-41.353-33.647-75-75-75s-76 33.647-76 75v15h61v59.99h91.516c-.716 4.952-1.516 9.874-1.516 15.01s.8 10.058 1.516 15h-91.516v62.763c-17.422 6.213-30 22.707-30 42.237 0 24.814 20.186 45 45 45s45-20.186 45-45c0-19.53-12.578-36.024-30-42.237v-32.763h70.532c16.921 35.345 52.742 60 94.468 60s77.547-24.655 94.468-60h70.532v32.763c-17.422 6.213-30 22.707-30 42.237 0 24.814 20.186 45 45 45s45-20.186 45-45c0-19.53-12.578-36.024-30-42.237v-62.763h-91.516c.716-4.942 1.516-9.864 1.516-15s-.8-10.058-1.516-15h91.516v-60h61v-15c0-41.353-34.647-75-76-75zm-180 210c-24.814 0-45-20.186-45-45h30c0 8.276 6.724 15 15 15s15-6.724 15-15.01h30c0 24.824-20.186 45.01-45 45.01z"/><path d="m121 46c0-24.814-20.186-46-45-46s-45 21.186-45 46 20.186 45 45 45 45-20.186 45-45z"/></g></svg>