<?xml version="1.0" encoding="iso-8859-1"?>
<!-- Generator: Adobe Illustrator 19.0.0, SVG Export Plug-In . SVG Version: 6.00 Build 0)  -->
<svg xmlns="http://www.w3.org/2000/svg" xmlns:xlink="http://www.w3.org/1999/xlink" version="1.1" id="Layer_1" x="0px" y="0px" viewBox="0 0 512 512" style="enable-background:new 0 0 512 512;" xml:space="preserve">
<g>
	<g>
		<path d="M443.241,47.787H380.67V0h-31.411v47.787H164.898V0h-31.411v47.787H68.759v277.684h131.989l-84.307,155.118h-10.408V512    h53.409v-31.411h-7.256l34.678-63.806h138.271l34.678,63.806h-5.717V512h53.399v-31.411h-11.936l-84.307-155.118h131.989V47.787z     M234.107,180.31h9.821v-10.858h15.035v10.858h9.926v13.371h-9.926v10.858h-15.035V193.68h-9.821V180.31z M195.366,199.523    l-15.35,24.542h-18.585l24.857-36.552l-25.694-37.589h18.595l16.177,25.579l16.187-25.579h18.491l-25.694,37.589l24.857,36.552    h-18.48L195.366,199.523z M203.941,385.372l32.563-59.901h38.992l32.563,59.901H203.941z M316.602,198.79v25.275h-17.014v-25.474    l-26.008-48.666h18.595l15.978,34.039l16.177-34.039h18.7L316.602,198.79z"/>
	</g>
</g>
<g>
</g>
<g>
</g>
<g>
</g>
<g>
</g>
<g>
</g>
<g>
</g>
<g>
</g>
<g>
</g>
<g>
</g>
<g>
</g>
<g>
</g>
<g>
</g>
<g>
</g>
<g>
</g>
<g>
</g>
</svg>
