<svg id="Layer_1" enable-background="new 0 0 510 510" height="512" viewBox="0 0 510 510" width="512" xmlns="http://www.w3.org/2000/svg"><g><path d="m120 390h60v-30h-30v-30h30v-30h-30v-30h30v-30h-30v-30h30v-30h-60z"/><path d="m30 435c0 41.422 33.579 75 75 75 41.421 0 75-33.578 75-75v-15h-90v-270h90v-45h-150z"/><path d="m0 0h210v75h-210z"/><path d="m420 390h60v-30h-30v-30h30v-30h-30v-30h30v-30h-30v-30h30v-30h-60z"/><path d="m330 435c0 41.422 33.579 75 75 75 41.421 0 75-33.578 75-75v-15h-90v-270h90v-45h-150z"/><path d="m300 0h210v75h-210z"/></g></svg>