<svg id="Capa_1" enable-background="new 0 0 512 512" height="512" viewBox="0 0 512 512" width="512" xmlns="http://www.w3.org/2000/svg"><g><path d="m126.287 431.667c-5.59 8.731-8.697 18.979-8.697 29.666v15h276.82v-15c0-10.687-3.107-20.935-8.698-29.666z"/><path d="m457 35.667h-186v26.663h-30v-26.663h-186c-30.327 0-55 24.673-55 55v256c0 30.327 24.673 55 55 55h402c30.327 0 55-24.673 55-55v-256c0-30.327-24.673-55-55-55zm-111.905 280.095c-23.798 23.798-55.44 36.904-89.095 36.904-33.656 0-65.297-13.106-89.096-36.904-23.798-23.798-36.904-55.44-36.904-89.096s13.106-65.297 36.904-89.095 55.44-36.905 89.096-36.905 65.297 13.106 89.095 36.905c23.798 23.798 36.905 55.439 36.905 89.095s-13.107 65.298-36.905 89.096z"/><path d="m256 130.666c-53.02 0-96 42.981-96 96 0 53.02 42.98 96 96 96 53.019 0 96-42.98 96-96 0-53.019-42.981-96-96-96zm48 111.001h-33v33h-30v-33h-33v-30h33v-33h30v33h33z"/></g></svg>