<svg id="Capa_1" enable-background="new 0 0 507.68 507.68" height="512" viewBox="0 0 507.68 507.68" width="512" xmlns="http://www.w3.org/2000/svg"><g id="XMLID_456_"><path id="XMLID_463_" d="m253.84 187.598c-9.14 0-16.576 7.436-16.576 16.575s7.436 16.576 16.576 16.576 16.575-7.437 16.575-16.576-7.435-16.575-16.575-16.575z"/><path id="XMLID_470_" d="m347.66 0h-187.64c-29.69 0-53.84 24.15-53.84 53.84v400c0 29.69 24.15 53.84 53.84 53.84h187.64c29.69 0 53.84-24.15 53.84-53.84v-400c0-29.69-24.15-53.84-53.84-53.84zm-200.13 64.01c0-17.65 14.36-32.01 32.01-32.01h40.43c17.66 0 32.02 14.36 32.02 32.01s-14.36 32.02-32.02 32.02h-40.43c-17.65 0-32.01-14.37-32.01-32.02zm141.552 252.574h-70.484v-30h70.484zm-35.242-65.835c-25.682 0-46.576-20.894-46.576-46.576s20.894-46.575 46.576-46.575 46.575 20.894 46.575 46.575c0 25.682-20.893 46.576-46.575 46.576z"/></g></svg>