<svg id="Capa_1" enable-background="new 0 0 510 510" height="512" viewBox="0 0 510 510" width="512" xmlns="http://www.w3.org/2000/svg"><path d="m285 262.082c22.898-19.082 41.907-41.857 56.472-67.082h96.669c5.799 13.23 19.014 22.5 34.359 22.5 20.678 0 37.5-16.822 37.5-37.5s-16.822-37.5-37.5-37.5c-15.346 0-28.56 9.27-34.359 22.5h-81.931c22.496-54.738 18.273-99.056 18.79-105h63.141c5.799 13.23 19.014 22.5 34.359 22.5 20.678 0 37.5-16.822 37.5-37.5s-16.822-37.5-37.5-37.5c-15.346 0-28.56 9.27-34.359 22.5h-63.141v-30h-60v30h-120v-30h-60v30h-63.141c-5.798-13.23-19.013-22.5-34.359-22.5-20.678 0-37.5 16.822-37.5 37.5s16.822 37.5 37.5 37.5c15.346 0 28.561-9.27 34.359-22.5h63.141c.518 5.951-3.619 50.492 18.797 105h-81.938c-5.799-13.23-19.014-22.5-34.359-22.5-20.678 0-37.5 16.822-37.5 37.5s16.822 37.5 37.5 37.5c15.346 0 28.561-9.27 34.359-22.5h96.683c5.119 8.863 10.784 17.427 16.977 25.631 6.421-6.511 13.17-12.757 20.274-18.678 11.351-9.458 21.597-19.926 30.68-31.204-10.502-15.894-19.142-32.926-25.773-50.749h88.623c-15.026 40.417-40.424 76.75-74.323 105-29.648 24.706-52.774 55.604-68.166 90h-84.975c-5.799-13.23-19.014-22.5-34.359-22.5-20.678 0-37.5 16.822-37.5 37.5s16.822 37.5 37.5 37.5c15.346 0 28.561-9.27 34.359-22.5h73.794c-6.979 23.16-10.653 47.441-10.653 72.153v32.847h-63.141c-5.799-13.23-19.014-22.5-34.359-22.5-20.678 0-37.5 16.822-37.5 37.5s16.822 37.5 37.5 37.5c15.346 0 28.561-9.27 34.359-22.5h63.141v30h60v-45h120v45h60v-30h63.141c5.799 13.23 19.014 22.5 34.359 22.5 20.678 0 37.5-16.822 37.5-37.5s-16.822-37.5-37.5-37.5c-15.346 0-28.56 9.27-34.359 22.5h-63.141v-32.847c0-24.714-3.67-48.995-10.653-72.153h73.794c5.799 13.23 19.014 22.5 34.359 22.5 20.678 0 37.5-16.822 37.5-37.5s-16.822-37.5-37.5-37.5c-15.346 0-28.56 9.27-34.359 22.5h-84.978c-7.685-17.166-17.293-33.462-28.684-48.549-6.42 6.51-13.169 12.756-20.274 18.678-11.35 9.458-21.597 19.925-30.679 31.204 12.048 18.232 21.647 37.962 28.569 58.667h-94.196c14.56-43.584 41.003-82.836 77.101-112.918zm-83.367-172.082c-2.313-9.848-4.042-19.863-5.15-30h117.035c-1.107 10.138-2.844 20.151-5.155 30zm108.463 315c1.981 9.862 3.377 19.879 4.158 30h-118.498c.78-10.121 2.17-20.137 4.15-30z"/></svg>