<svg id="Layer_1" enable-background="new 0 0 511.77 511.77" height="512" viewBox="0 0 511.77 511.77" width="512" xmlns="http://www.w3.org/2000/svg"><g><path d="m101.929 82.33c0-8.474.991-16.613 2.945-24.377-52.831 12.64-104.608 44.466-96.325 99.096 10.321 58.622 39.656 130.581 87.293 214.205h75.953c-34.856-87.956-69.866-198.755-69.866-288.924z"/><path d="m503.223 157.05c8.268-54.649-43.466-86.437-96.325-99.096 1.954 7.763 2.945 15.903 2.945 24.376 0 90.169-35.01 200.967-69.867 288.924h75.953c47.637-83.622 76.973-155.582 87.294-214.204z"/><path d="m379.843 82.33c0-25.049-12.235-45.386-36.365-60.444-44.614-29.18-130.57-29.183-175.183.001-24.13 15.057-36.366 35.394-36.366 60.443 0 89.392 36.95 201.939 72.181 288.924h103.552c35.231-86.984 72.181-199.531 72.181-288.924z"/><path d="m100.85 470.013h310.072v41.757h-310.072z"/><path d="m100.85 401.254h310.072v38.759h-310.072z"/></g></svg>