<svg id="Capa_1" enable-background="new 0 0 512 512" height="512" viewBox="0 0 512 512" width="512" xmlns="http://www.w3.org/2000/svg"><g id="Tired_1_"><path d="m256 240c-24.082 0-46.201 11.484-60.088 30h120.176c-13.887-18.516-36.006-30-60.088-30z"/><path d="m376 390h-118.298c.003 0 .007-.007.01-.007 106.734-.923 193.288-88.044 193.288-194.993 0-107.52-87.48-195-195-195s-195 87.48-195 195c0 106.793 86.302 193.816 192.823 194.988.006 0 .012.011.019.012h-117.842c-57.891 0-105 47.109-105 105v17h450v-17c0-57.891-47.109-105-105-105zm-60-270c0 16.538 13.462 30 30 30h15v30h-15c-33.091 0-60-26.909-60-60zm-165 30h15c16.538 0 30-13.462 30-30h30c0 33.091-26.909 60-60 60h-15zm-1.055 150 7.002-19.966c14.677-41.894 54.492-70.034 99.053-70.034s84.374 28.14 99.053 70.034l7.002 19.966z"/></g></svg>