<svg id="Capa_1" enable-background="new 0 0 512 512" height="512" viewBox="0 0 512 512" width="512" xmlns="http://www.w3.org/2000/svg"><g><path d="m256 195c-66.275 0-120 53.725-120 120 0 66.273 53.725 120 120 120s120-53.727 120-120c0-66.275-53.725-120-120-120zm-15.322 149.692h-30v-30h30zm0-60v-30h30v30zm60 60h-30v-30h30z"/><path d="m346 30c-24.814 0-45 20.186-45 45v45h-15c-8.262 0-15-6.724-15-15v-105h-30v105c0 8.276-6.738 15-15 15h-15v-45c0-24.814-20.186-45-45-45-90.967 0-166 74.019-166 165v150c0 24.814 21.186 45 46 45 25.214 0 49.402-6.332 71.651-17.172-7.474-17.81-11.651-37.335-11.651-57.828 0-66.925 44.361-123.091 105-142.341v-22.659h15c11.567 0 22.02-4.508 30-11.704 7.98 7.196 18.433 11.704 30 11.704h15v22.659c60.639 19.25 105 75.416 105 142.341 0 20.554-4.188 40.142-11.704 57.997 22.126 10.743 46.313 17.003 71.704 17.003 24.814 0 46-20.186 46-45v-150c0-90.981-75.033-165-166-165z"/><path d="m350.391 430.609 83.398 81.391 21.211-21.211-83.398-81.391c-6.37 7.784-13.427 14.841-21.211 21.211z"/></g></svg>