<svg id="Capa_1" enable-background="new 0 0 512 512" height="512" viewBox="0 0 512 512" width="512" xmlns="http://www.w3.org/2000/svg"><g><path d="m512 0h-512v60h30v179.779c0 61.089 45.885 111.66 105 119.064v-60.963c-25.849-6.677-45-30.195-45-58.101 0-33.084 26.916-60 60-60s60 26.916 60 60c0 27.906-19.151 51.424-45 58.101v60.963c51.083-6.398 92.286-45.03 102.54-94.828l71.276 111.945c11.859 25.829 37.952 43.819 68.184 43.819 41.355 0 75-33.645 75-75v-284.779h30zm-90 359.779h-30v-30h30zm30-74.959c-12.544-9.438-28.129-15.041-45-15.041-31.732 0-58.905 19.818-69.841 47.719l-72.962-114.591c-15.595-48.183-60.888-83.128-114.197-83.128-35.806 0-67.994 15.769-90 40.721v-100.5h392z"/><circle cx="150" cy="239.779" r="30"/><path d="m135 402h-30.812l-40 110h171.624l-40-110h-30.812v-43.156h-30z"/></g></svg>