<svg id="Capa_1" enable-background="new 0 0 508.426 508.426" height="512" viewBox="0 0 508.426 508.426" width="512" xmlns="http://www.w3.org/2000/svg"><g id="XMLID_1431_"><path id="XMLID_1587_" d="m194.734 240.893c-2.703-10.104-8.02-19.385-15.528-26.893-23.394-23.396-61.46-23.395-84.854 0-15.312 15.312-20.987 37.537-15.529 57.956l-78.823 78.83 84.853 84.853 78.824-78.831c15.523 4.171 32.186 1.972 46.263-6.425 28.414-16.947 37.744-53.85 20.798-82.264-8.09-13.565-21.06-23.226-36.004-27.226z"/><path id="XMLID_1589_" d="m429.602 271.956c10.114-37.838-18.272-75.53-57.955-75.53-27.917 0-51.129 18.939-57.955 44.467-14.944 4-27.913 13.661-36.003 27.228v-.001c-16.946 28.414-7.616 65.317 20.799 82.265 14.076 8.395 30.739 10.595 46.262 6.424l78.824 78.832 84.853-84.853z"/><path id="XMLID_1590_" d="m328.631 177.34c-43.718-34.523-105.074-34.565-148.842.006 16.019 8.729 29.712 22.544 38.186 40.258 14.672 6.971 27.153 17.795 36.238 31.528 9.085-13.733 21.568-24.558 36.237-31.528 8.168-17.071 21.532-31.179 38.181-40.264z"/><path id="XMLID_1591_" d="m395.084 121.768 31.82 10.606 38.374-38.375-21.213-21.213-25.264 25.265-31.821-10.607-38.373 38.375 21.212 21.213z"/><path id="XMLID_1592_" d="m113.342 121.768 25.265 25.264 21.212-21.213-38.375-38.375-31.819 10.607-25.265-25.265-21.214 21.213 38.375 38.375z"/></g></svg>