<svg id="Capa_1" enable-background="new 0 0 512 512" height="512" viewBox="0 0 512 512" width="512" xmlns="http://www.w3.org/2000/svg"><g><path d="m423.861 0h-335.503l167.642 113.874z"/><path d="m442 23.946-186 126.18-186-126.331v163.205h372z"/><path d="m198 374c0 31.981 26.019 58 58 58s58-26.019 58-58-26.019-58-58-58-58 26.019-58 58z"/><path d="m75 432c31.981 0 58-26.019 58-58s-26.019-58-58-58-58 26.019-58 58 26.019 58 58 58z"/><path d="m379 374c0 31.981 26.019 58 58 58s58-26.019 58-58-26.019-58-58-58-58 26.019-58 58z"/><path d="m271 287.284v-70.284h-30v70.284c4.876-.841 9.887-1.284 15-1.284s10.124.443 15 1.284z"/><path d="m75 462c-27.287 0-51.712-12.484-67.866-32.039-4.532 7.991-7.134 17.214-7.134 27.039v55h150v-55c0-9.825-2.602-19.048-7.134-27.039-16.154 19.555-40.579 32.039-67.866 32.039z"/><path d="m422 287.284c4.876-.841 9.887-1.284 15-1.284s10.124.443 15 1.284v-37.284h-81v-33h-30v63h81z"/><path d="m256 462c-27.287 0-51.712-12.484-67.866-32.039-4.532 7.991-7.134 17.214-7.134 27.039v55h150v-55c0-9.825-2.602-19.048-7.134-27.039-16.154 19.555-40.579 32.039-67.866 32.039z"/><path d="m141 250h-81v37.284c4.876-.841 9.887-1.284 15-1.284s10.124.443 15 1.284v-7.284h81v-63h-30z"/><path d="m504.866 429.961c-16.154 19.555-40.58 32.039-67.866 32.039s-51.712-12.484-67.866-32.039c-4.532 7.991-7.134 17.214-7.134 27.039v55h150v-55c0-9.825-2.602-19.048-7.134-27.039z"/></g></svg>