<svg id="Capa_1" enable-background="new 0 0 512 512" height="512" viewBox="0 0 512 512" width="512" xmlns="http://www.w3.org/2000/svg"><g><path d="m303.465 270.315v-.008c-.021-4.953-4.055-8.976-9.013-8.976h-76.847c-4.971 0-9.015 4.044-9.015 9.015v41.324c0 26.157 21.281 47.438 47.438 47.438 26.158 0 47.438-21.28 47.438-47.438v-41.324c.001-.011-.001-.02-.001-.031z"/><path d="m294.452 231.331c3.121 0 6.153.379 9.064 1.074-.255-7.789-3.392-15.069-8.918-20.61-5.789-5.805-13.492-9.001-21.689-9.001h-78.726l-.003 23.52c-.078 3.776.391 7.788 1.338 11.896 6.285-4.334 13.894-6.879 22.089-6.879z"/><path d="m256 0-96.936 48.468v-48.468h-71.128v84.032l-87.936 43.968v55.84l256.098-128.69 255.902 129.467v-56.617z"/><path d="m256.029 389.107c-9.069 0-17.773-1.581-25.867-4.459l-3.798 20.175 29.66 17.812 29.726-17.86-3.823-20.137c-8.104 2.885-16.818 4.469-25.898 4.469z"/><path d="m475.75 199.899-219.698-111.151-219.802 110.452v282.8h-36.25v30h512v-30h-36.25zm-382.816 274.115c3.001-24.002 19.733-44.558 42.627-52.367l61.027-20.818 6.212-32.995c-14.893-14.121-24.209-34.069-24.209-56.164v-36.978c-9.604-15.786-14.701-32.96-14.409-48.838v-53.061h108.726c16.227 0 31.473 6.327 42.931 17.816 11.459 11.49 17.745 26.754 17.701 42.98l-.075 36.686c0 .023.002.046.002.069v41.324c0 22.089-9.312 42.032-24.198 56.153l6.262 32.982 61.221 20.762c23.198 7.867 40.002 28.674 42.81 53.009l.856 7.425h-30.199c-1.526-13.607-9.335-27.355-23.102-32.023l-62.866-21.318-48.223 28.974-48.195-28.942-62.585 21.349c-13.689 4.67-21.515 18.411-23.078 31.961h-30.235z"/></g></svg>