<?xml version="1.0" encoding="iso-8859-1"?>
<!-- Generator: Adobe Illustrator 19.0.0, SVG Export Plug-In . SVG Version: 6.00 Build 0)  -->
<svg xmlns="http://www.w3.org/2000/svg" xmlns:xlink="http://www.w3.org/1999/xlink" version="1.1" id="Layer_1" x="0px" y="0px" viewBox="0 0 512 512" style="enable-background:new 0 0 512 512;" xml:space="preserve">
<g>
	<g>
		<path d="M0,84.746v79.085v30.417v233.005h512V194.248v-30.417V84.746H0z M364.176,124.289h36.477v30.417h-36.477V124.289z     M65.671,396.835H30.417V194.248h17.288v116.502h17.965V396.835z M153.231,396.835H96.088v-86.085h17.965V194.248h21.212v116.502    h17.965V396.835z M240.791,396.835h-57.143v-86.084h17.965V194.248h21.212v116.502h17.965V396.835z M328.353,396.835H271.21    v-86.084h17.964V194.248h21.213v116.502h17.965V396.835z M339.771,154.706h-36.477v-30.417h36.477V154.706z M415.913,396.835    H358.77v-86.084h17.964V194.248h21.213v116.502h17.965V396.835z M425.059,124.289h36.477v30.417h-36.477V124.289z     M481.583,396.836h-35.254v-86.085h17.966V194.248h17.287V396.836z"/>
	</g>
</g>
<g>
</g>
<g>
</g>
<g>
</g>
<g>
</g>
<g>
</g>
<g>
</g>
<g>
</g>
<g>
</g>
<g>
</g>
<g>
</g>
<g>
</g>
<g>
</g>
<g>
</g>
<g>
</g>
<g>
</g>
</svg>
