<svg id="Capa_1" enable-background="new 0 0 512 512" height="512" viewBox="0 0 512 512" width="512" xmlns="http://www.w3.org/2000/svg"><g><g><path d="m256 0c-140.61 0-256 115.39-256 256s115.39 256 256 256 256-115.39 256-256-115.39-256-256-256zm0 442.211-70.605-70.605 21.211-21.211 49.394 49.394 49.395-49.395 21.211 21.211zm-60-186.211c0-33.091 26.909-60 60-60s60 26.909 60 60-26.909 60-60 60-60-26.909-60-60zm109.395-94.395-49.395-49.394-49.395 49.395-21.211-21.211 70.606-70.606 70.605 70.605z"/></g><g><circle cx="256" cy="256" r="30"/></g></g></svg>