<svg id="Capa_1" enable-background="new 0 0 511.975 511.975" height="512" viewBox="0 0 511.975 511.975" width="512" xmlns="http://www.w3.org/2000/svg"><g><path d="m389.433 365.029c-15.181-7.444-27.792-19.279-36.471-33.799h-15.359l-30.125 29.871h-36.301v-30h23.949l30.125-29.871h16.379c-1.03-5.513-1.584-11.186-1.584-16.974 0-4.486.329-8.921.957-13.277l-33.489-.002-25.732 25.733-21.213-21.213 20.229-20.229-16.451-18.9h-23.294v-30h36.955l30.125 34.609 42.695.002c3.872-7.238 8.721-13.918 14.44-19.839 0 0-16.849-17.545-19.159-19.945-28.955-30.091-58.896-61.206-81.942-95.94-23.551-35.496-36.502-70.077-39.355-105.255h-156.803v511.911l185.085.063c.525-18.928 1.806-41.763 2.714-56.543-22.671-2.126-44.888-8.752-65.042-19.477-23.98-12.761-45.212-31.371-61.4-53.82l24.333-17.547c28.227 39.143 71.258 61.592 118.061 61.592 46.978.001 90.251-23.579 117.673-61.15zm-148.38-27.587-21.213-21.213 21.213-21.213 21.213 21.213z"/><path d="m443.966 286.181c0-10.46-7.9-18.97-17.611-18.97h-16.857l-23.417-24.393c-10.185 10.969-16.033 25.715-16.033 41.438 0 24.367 14.05 45.781 34.694 54.817 3.694-7.933 6.769-16.267 9.138-24.949l3.015-11.052h11.456c8.609 0 15.615-7.577 15.615-16.891z"/></g></svg>