<svg id="Capa_1" enable-background="new 0 0 511.993 511.993" height="512" viewBox="0 0 511.993 511.993" width="512" xmlns="http://www.w3.org/2000/svg"><g><path d="m47.914 396.782v-9.696l-47.91 47.91v76.997h85.992l25.672-25.671c-37.07-12.87-63.754-48.145-63.754-89.54z"/><path d="m186.912 215.494-20.877-.186v124.575h-30v-154.844l33.139.296 31.526-166.299c.893-4.711-.349-9.531-3.408-13.225-3.058-3.693-7.563-5.811-12.359-5.811h-10.746l-96.273 233.735v163.047c0 35.705 29.048 64.753 64.753 64.753s64.753-29.048 64.753-64.753v-160.596c0-11.309-9.2-20.59-20.508-20.692z"/><path d="m434.244 396.782v-163.047l-96.273-233.735h-10.747c-4.796 0-9.3 2.118-12.359 5.812-3.059 3.693-4.301 8.513-3.407 13.225l31.525 166.299 33.14-.296v154.845h-30v-124.576l-20.877.186c-11.308.102-20.508 9.383-20.508 20.691v160.597c0 35.705 29.048 64.753 64.753 64.753s64.753-29.049 64.753-64.754z"/><path d="m464.244 387.251v9.532c0 41.44-26.743 76.747-63.875 89.583l25.628 25.628h85.992v-76.997z"/></g></svg>