<svg id="Capa_1" enable-background="new 0 0 512 512" height="512" viewBox="0 0 512 512" width="512" xmlns="http://www.w3.org/2000/svg"><g><path d="m299.916 265.093c3.951-18.547-2.482-23.85-20.64-97.236-2.827-10.518-12.392-17.857-23.276-17.857s-20.449 7.339-23.276 17.856c-20.117 77.022-21.724 76.72-21.724 87.144 0 27.482 24.866 49.951 54.478 44.048 16.728-3.369 30.878-17.329 34.438-33.955zm-43.916 11.118-21.211-21.211 21.211-21.211 21.211 21.211z"/><path d="m339.789 0h-167.578l83.789 83.789z"/><path d="m181 255c0-16.798 4.162-22.763 22.749-94.907 4.979-18.576 19.455-32.384 37.251-37.581v-11.301l-111.211-111.211h-38.789v512h150v-46h-30v-30h30v-30h-30v-30h30v-47.697c-36.438-7.42-60-38.899-60-73.303z"/><path d="m271 111.211v11.301c17.796 5.197 32.272 19.005 37.251 37.581 16.208 68.145 27.279 81.891 20.991 111.27-6.05 28.403-29.312 51.357-57.861 57.1-.126.026-.253.013-.381.038v47.499h30v30h-30v30h30v30h-30v46h150v-512h-38.789z"/></g></svg>