<?xml version="1.0" encoding="iso-8859-1"?>
<!-- Generator: Adobe Illustrator 19.0.0, SVG Export Plug-In . SVG Version: 6.00 Build 0)  -->
<svg xmlns="http://www.w3.org/2000/svg" xmlns:xlink="http://www.w3.org/1999/xlink" version="1.1" id="Capa_1" x="0px" y="0px" viewBox="0 0 511.999 511.999" style="enable-background:new 0 0 511.999 511.999;" xml:space="preserve">
<g>
	<g>
		<path d="M426.812,388.514c0-12.663-7.225-23.665-17.765-29.12v-48.548h26.42l-41.428-71.755l-41.428,71.755h26.419v48.548    c-10.539,5.455-17.764,16.455-17.764,29.119c0,12.663,7.225,23.665,17.764,29.119v32.476    c-10.539,5.455-17.764,16.455-17.764,29.119c0,18.071,14.7,32.772,32.771,32.772s32.772-14.701,32.772-32.772    c0-12.663-7.225-23.665-17.765-29.119v-32.476C419.586,412.178,426.812,401.178,426.812,388.514z"/>
	</g>
</g>
<g>
	<g>
		<path d="M317.954,310.846l58.756-101.77l-61.876-107.173h-26.148h-65.528h-25.994l-61.877,107.174l58.756,101.769h46.947v22.028    c-10.435,11.231-33.97,40.489-33.97,76.007c0,44.656,37.227,79.451,38.811,80.909l10.166,9.362l10.166-9.362    c1.585-1.459,38.811-36.253,38.811-80.909c0-35.518-23.535-64.776-33.97-76.007v-22.028H317.954z M255.921,267.441    c-32.953,0-59.76-26.808-59.76-59.761c0-32.953,26.808-59.76,59.76-59.76c32.952,0,59.761,26.808,59.761,59.76    S288.874,267.441,255.921,267.441z"/>
	</g>
</g>
<g>
	<g>
		<polygon points="255.999,0 214.494,71.89 223.158,71.89 288.686,71.89 297.505,71.89   "/>
	</g>
</g>
<g>
	<g>
		<g>
			<polygon points="159.387,310.845 159.387,310.845 159.387,310.846    "/>
			<path d="M159.387,310.845l-41.427-71.754l-41.428,71.755h26.42v48.548c-10.539,5.455-17.764,16.455-17.764,29.119     c0,12.663,7.225,23.665,17.764,29.119v32.476c-10.539,5.454-17.764,16.455-17.764,29.119c0,18.071,14.701,32.772,32.771,32.772     c18.07,0,32.772-14.701,32.772-32.772c0-12.663-7.225-23.665-17.765-29.119v-32.476c10.54-5.455,17.765-16.455,17.765-29.119     c0-12.663-7.225-23.665-17.765-29.12v-48.548H159.387z"/>
		</g>
	</g>
</g>
<g>
</g>
<g>
</g>
<g>
</g>
<g>
</g>
<g>
</g>
<g>
</g>
<g>
</g>
<g>
</g>
<g>
</g>
<g>
</g>
<g>
</g>
<g>
</g>
<g>
</g>
<g>
</g>
<g>
</g>
</svg>
