<svg id="Capa_1" enable-background="new 0 0 510.984 510.984" height="512" viewBox="0 0 510.984 510.984" width="512" xmlns="http://www.w3.org/2000/svg"><g><path d="m495.411 255.501 15.573-60.292-15.667-60.664 15.617-74.936h-510.883l15.617 74.936-15.668 60.664 15.574 60.292-15.574 60.293 15.668 60.655-15.618 74.926h510.886l-15.618-74.926 15.667-60.655zm-46.919-85.549v171.08c0 35.841-29.159 65-65 65h-256c-35.841 0-65-29.159-65-65v-171.08c0-35.841 29.159-65 65-65h256c35.841 0 65 29.159 65 65z"/><path d="m383.492 134.952h-109.32c58.299 9.34 102.986 59.982 102.986 120.873 0 59.572-42.774 109.334-99.221 120.207h105.554c19.33 0 35-15.67 35-35v-171.08c.001-19.33-15.668-35-34.999-35z"/><path d="m231.536 376.032c-56.447-10.873-99.221-60.635-99.221-120.207 0-60.891 44.687-111.533 102.986-120.873h-107.808c-19.33 0-35 15.67-35 35v171.08c0 19.33 15.67 35 35 35z"/><ellipse cx="254.737" cy="255.825" rx="92.422" ry="92.422" transform="matrix(.707 -.707 .707 .707 -106.285 255.056)"/></g></svg>