<svg id="Capa_1" enable-background="new 0 0 509.119 509.119" height="512" viewBox="0 0 509.119 509.119" width="512" xmlns="http://www.w3.org/2000/svg"><g><path d="m487.902 127.281c-1.334 1.175-8.571 9.766-23.892 18.531l-100.706-100.705c8.145-14.237 17.971-23.254 18.534-23.894l-21.213-21.213-1.193 1.193c-34.984 34.982-47.963 85.193-35.901 131.673-46.903-11.689-97.359 1.588-132.611 36.84l-21.213 21.213c-35.253 35.253-48.529 85.708-36.84 132.611-46.479-12.06-96.689.918-131.673 35.901l-1.194 1.194 21.213 21.213 1.194-1.193c6.888-6.889 14.537-12.672 22.698-17.342l100.708 100.708c-4.669 8.161-10.451 15.811-17.339 22.698l-1.193 1.193 21.209 21.217 1.196-1.195c34.978-34.98 47.957-85.185 35.903-131.659 48.041 11.973 98.17-2.414 132.608-36.854l21.213-21.213c35.248-35.249 48.526-85.696 36.843-132.596 46.803 12.144 96.913-1.161 131.672-35.919l1.193-1.193zm-149.066 43.001c11.35 22.768 14.189 48.008 9.196 71.684l-80.883-80.882c23.678-4.993 48.918-2.153 71.687 9.198zm-102.554 2.361 100.192 100.191c-4.862 8.702-10.968 16.843-18.276 24.151l-106.066-106.066c1.64-1.424 9.59-10.14 24.15-18.276zm-160.504 178.907c39.667-8.551 71.605 9.486 72.141 9.647.395 1.314 18.464 31.241 9.646 72.141zm94.503-12.714c-11.351-22.769-14.189-48.009-9.196-71.686l80.881 80.882c-23.677 4.992-48.916 2.154-71.685-9.196zm102.553-2.361-100.191-100.193c4.862-8.701 10.968-16.842 18.276-24.15l106.066 106.066c-7.308 7.308-15.45 13.414-24.151 18.277zm88.363-188.557c-.396-1.313-18.465-31.24-9.647-72.139l81.786 81.786c-39.666 8.552-71.604-9.486-72.139-9.647z"/></g></svg>