<svg id="Capa_1" enable-background="new 0 0 512 512" height="512" viewBox="0 0 512 512" width="512" xmlns="http://www.w3.org/2000/svg"><g><path d="m112.035 245.014c-9.862-9.701-15.991-23.185-15.991-38.078v-16.536c0-29.469 23.975-53.443 53.443-53.443s53.443 23.975 53.443 53.443v16.536c0 15.078-6.286 28.707-16.363 38.433l25.862 9.645c8.052-15.931 24.568-26.887 43.604-26.887 19.062 0 35.598 10.985 43.637 26.952l26.71-9.854c-9.99-9.716-16.213-23.286-16.213-38.289v-16.536c0-29.469 23.975-53.443 53.443-53.443s53.443 23.975 53.443 53.443v16.536c0 14.954-6.181 28.485-16.114 38.195l35.842 12.919c9 3.244 17.214 8.286 24.183 14.686l12.99-13.253c24.879-25.373 38.387-58.915 38.039-94.447-.35-35.532-14.516-68.802-39.887-93.68-25.054-24.566-58.068-38.045-93.104-38.045-.446 0-.897.002-1.344.006-35.533.35-68.802 14.516-93.692 39.899l-28.588 29.219-29.206-28.577c-52.377-51.356-136.771-50.526-188.126 1.85-24.879 25.373-38.388 58.915-38.039 94.447.35 35.532 14.516 68.802 39.888 93.68l10.17 9.968c7.214-6.891 15.844-12.294 25.39-15.708z"/><path d="m363.61 166.956c-12.927 0-23.443 10.517-23.443 23.443v16.536c0 12.927 10.517 23.443 23.443 23.443s23.443-10.517 23.443-23.443v-16.535c.001-12.927-10.516-23.444-23.443-23.444z"/><path d="m149.487 166.956c-12.927 0-23.443 10.517-23.443 23.443v16.536c0 12.927 10.517 23.443 23.443 23.443s23.443-10.517 23.443-23.443v-16.535c.001-12.927-10.516-23.444-23.443-23.444z"/><path d="m202.923 322.531 16.736-5.985c-7.516-8.393-12.167-19.391-12.432-31.455l-57.847-21.572-63.824 22.825c-5.241 1.874-10.004 4.783-14.052 8.472l95.075 93.185v-13.874c-.001-23.087 14.605-43.821 36.344-51.596z"/><path d="m256.033 258.126c-10.385 0-18.834 8.448-18.834 18.833v7.049c0 10.385 8.449 18.833 18.834 18.833s18.833-8.448 18.833-18.833v-7.049c0-10.385-8.448-18.833-18.833-18.833z"/><path d="m363.477 263.516-58.639 21.632c-.277 11.997-4.894 22.937-12.35 31.304l16.786 6.05c21.66 7.808 36.214 28.523 36.214 51.549v16.504l94.464-96.38c-3.896-3.416-8.414-6.127-13.342-7.904z"/><path d="m299.1 350.726-42.793-15.425-43.282 15.479c-9.837 3.518-16.446 12.9-16.446 23.348v43.278l62.527 61.284 56.382-57.525v-47.112c-.001-10.42-6.587-19.794-16.388-23.327z"/></g></svg>