<?xml version="1.0" encoding="iso-8859-1"?>
<!-- Generator: Adobe Illustrator 19.0.0, SVG Export Plug-In . SVG Version: 6.00 Build 0)  -->
<svg xmlns="http://www.w3.org/2000/svg" xmlns:xlink="http://www.w3.org/1999/xlink" version="1.1" id="Layer_1" x="0px" y="0px" viewBox="0 0 512 512" style="enable-background:new 0 0 512 512;" xml:space="preserve">
<g>
	<g>
		<rect x="246.596" y="90.133" width="104.49" height="22.444"/>
	</g>
</g>
<g>
	<g>
		<path d="M167.184,0v438.857h229.878v41.796H135.837c-11.525,0-20.898-9.373-20.898-20.898c0-1.954,0.272-3.887,0.815-5.768    c0.01-0.073,0.031-0.136,0.052-0.209c0.021-0.063,0.042-0.136,0.063-0.198c2.602-8.411,10.355-14.336,19.111-14.702    c0.282-0.01,0.575-0.021,0.857-0.021V0h-4.18c-26.499,0-48.065,21.567-48.065,48.065V464.98h0.261    c2.633,26.363,24.942,47.02,51.984,47.02h292.571V0H167.184z M382.433,143.924H215.249V58.786h167.184V143.924z"/>
	</g>
</g>
<g>
</g>
<g>
</g>
<g>
</g>
<g>
</g>
<g>
</g>
<g>
</g>
<g>
</g>
<g>
</g>
<g>
</g>
<g>
</g>
<g>
</g>
<g>
</g>
<g>
</g>
<g>
</g>
<g>
</g>
</svg>
