<svg id="Capa_1" enable-background="new 0 0 512 512" height="512" viewBox="0 0 512 512" width="512" xmlns="http://www.w3.org/2000/svg"><g><path d="m358.834 383.627c11.665-11.666 27.175-18.091 43.674-18.091 14.104 0 27.487 4.695 38.364 13.349 10.875-8.652 24.259-13.349 38.363-13.349 2.71 0 5.39.19 8.034.532 16.186-33.945 24.731-71.349 24.731-110.068 0-68.38-26.629-132.667-74.98-181.02-48.353-48.351-112.64-74.98-181.02-74.98s-132.667 26.629-181.02 74.98c-48.351 48.353-74.98 112.64-74.98 181.02s26.629 132.667 74.98 181.02c48.353 48.351 112.64 74.98 181.02 74.98 41.041 0 80.601-9.604 116.133-27.727l-13.299-13.299c-24.082-24.081-24.082-63.266 0-87.347zm35.27-226.148c15.6 14.394 24.478 34.005 24.997 55.223l-29.99.736c-.32-13.029-5.771-25.072-15.35-33.91-9.58-8.838-22.033-13.309-35.034-12.576l-1.676-29.953c21.2-1.193 41.455 6.087 57.053 20.48zm-103.153 45.877h61.998v30h-61.998zm-148.06-29.921-29.991-.735c.52-21.219 9.396-40.831 24.996-55.225 15.6-14.393 35.862-21.666 57.053-20.479l-1.676 29.953c-13.021-.728-25.454 3.736-35.033 12.575-9.579 8.838-15.03 20.881-15.349 33.911zm62.159 58.919h-30v-61.998h30zm110.373 152.059c0 24.814-20.188 45.002-45.002 45.002h-22.842v-30h22.842c8.272 0 15.002-6.729 15.002-15.002s-6.729-15.002-15.002-15.002h-22.842v-30h22.842c8.272 0 15.002-6.729 15.002-15.002s-6.729-15.002-15.002-15.002h-22.842v-30h22.842c24.814 0 45.002 20.188 45.002 45.002 0 11.518-4.354 22.034-11.496 30.002 7.142 7.968 11.496 18.485 11.496 30.002z"/><path d="m502.404 404.132c-12.795-12.795-33.541-12.795-46.336 0l-15.196 15.196-15.196-15.196c-12.795-12.795-33.541-12.795-46.336 0-12.795 12.795-12.795 33.541 0 46.336l61.532 61.532 61.532-61.532c12.795-12.795 12.795-33.54 0-46.336z"/></g></svg>