<svg id="Capa_1" enable-background="new 0 0 512.009 512.009" height="512" viewBox="0 0 512.009 512.009" width="512" xmlns="http://www.w3.org/2000/svg"><g><path d="m147.811 131.902-25.737-64.336 27.861-11.133 28.854 72.14 13.105 13.105 23.476-46.939 81.085-27.03 5.97-67.709h-241.421v47c0 50.845 13.121 91.262 26.931 129.811z"/><path d="m120.614 316.401 60.39-65.275v-77.915l-16.41-16.41-66.198 49.651c11.103 31.55 23.904 73.678 22.218 109.949z"/><path d="m406.004 422h-25.005l-89.209-66.914c-12.583-9.434-19.248-24.404-17.813-40.063l19.514-214.713-56.852 18.951-25.635 51.284v92.329l-101.363 109.565c-1.683 4.73-3.397 9.45-5.453 14.068-8.745 19.614-13.184 40.532-13.184 63.281 0 34.304 27.75 62.212 62.183 62.212h.103c11.137-1.324 17.786 3.932 48.413-8.628 16.67-6.826 31.934-6.826 48.604 0 9.858 4.043 21.021 8.628 35.698 8.628h120c24.814 0 45-20.186 45-45s-20.186-45-45.001-45zm-195-17.607c-14.707 0-29.414-5.596-40.605-16.787l21.211-21.211c10.693 10.693 28.096 10.693 38.789 0l21.211 21.211c-11.192 11.191-25.899 16.787-40.606 16.787z"/></g></svg>