<svg id="Capa_1" enable-background="new 0 0 512.25 512.25" height="512" viewBox="0 0 512.25 512.25" width="512" xmlns="http://www.w3.org/2000/svg"><g><path d="m190.902 380.5c-1.432-107.942 109.229-188.185 211.21-153.68v-103.21c-.001-20.841-16.898-37.739-37.74-37.74-20.85 0-37.75 16.9-37.75 37.74h-.001v-66.454c0-20.553-16.662-37.215-37.215-37.215s-37.215 16.662-37.215 37.215v-19.941c0-20.553-16.662-37.215-37.216-37.215-20.553 0-37.215 16.662-37.215 37.215v19.86c-.023-10.246-4.177-19.514-10.898-26.235-22.964-23.238-63.629-6.781-63.53 26.321 0-.001 0 222.219 0 222.219.002-41.103-33.327-74.432-74.43-74.43v145.58l74.43 67.18v94.54h155.77c-41.24-29.28-68.2-77.43-68.2-131.75z"/><path d="m402.112 258.76c-84.568-35.841-182.319 29.572-181.209 121.741-.171 74.269 62.35 134.415 136.549 131.398 141.551-7.479 173.862-198.751 44.66-253.139zm15.88 168.36c-32.324 0-98.65 0-131.18 0v-93.24h131.18z"/><path d="m316.812 397.12h71.18c0-5.709 0-27.979 0-33.24h-71.18z"/></g></svg>