<svg id="Capa_1" enable-background="new 0 0 512 512" height="512" viewBox="0 0 512 512" width="512" xmlns="http://www.w3.org/2000/svg"><g><circle cx="256" cy="193.342" r="23.385"/><path d="m309.385 193.342c0 18.13-9.092 34.168-22.948 43.822l17.33 19.499c22.396-23.234 52.07-39.402 85.315-44.795 5.716-11.312 15.331-20.331 27.078-25.26l.061-31.688-123.497-.27c10.25 9.733 16.661 23.473 16.661 38.692z"/><path d="m256 139.957c11.995 0 23.077 3.978 32 10.682v-59.72h128v-64h-192v123.72c8.923-6.704 20.005-10.682 32-10.682z"/><circle cx="436.75" cy="235.856" r="23.385"/><path d="m291 362.481c0 67.602 54.998 122.6 122.6 122.6h19.4v-195.986c-25.131-1.754-45.519-20.967-49.076-45.567-53.309 13.302-92.924 61.583-92.924 118.953zm101.5 76.688h-30v-30h30zm-29.125-136.375c24.882 0 45.125 20.243 45.125 45.125s-20.243 45.125-45.125 45.125-45.125-20.243-45.125-45.125 20.243-45.125 45.125-45.125z"/><circle cx="363.375" cy="347.919" r="15.125"/><path d="m122.919 211.868c33.244 5.393 62.922 21.557 85.318 44.791l17.327-19.495c-13.856-9.653-22.948-25.692-22.948-43.822 0-15.303 6.482-29.112 16.833-38.855l-123.669-.278.062 32.398c11.747 4.93 21.361 13.949 27.077 25.261z"/><circle cx="75.25" cy="235.856" r="23.385"/><path d="m49 282.704c-29.071 14.766-49 44.938-49 79.777s19.929 65.011 49 79.778z"/><path d="m463 282.704v159.556c29.071-14.767 49-44.938 49-79.778s-19.929-65.012-49-79.778z"/><path d="m79 485.081h19.4c67.602 0 122.6-54.998 122.6-122.6 0-57.371-39.615-105.651-92.924-118.953-3.557 24.6-23.945 43.812-49.076 45.567zm70.5-45.912h-30v-30h30zm-.875-136.375c24.882 0 45.125 20.243 45.125 45.125s-20.243 45.125-45.125 45.125-45.125-20.243-45.125-45.125 20.243-45.125 45.125-45.125z"/><circle cx="148.625" cy="347.919" r="15.125"/></g></svg>