<svg id="Capa_1" enable-background="new 0 0 512 512" height="512" viewBox="0 0 512 512" width="512" xmlns="http://www.w3.org/2000/svg"><g><path d="m180.667 91.888 56.599 16.868v63.65h37.468v-63.65l56.6-16.868v-91.888h-150.667z"/><path d="m216.269 359.07h79.463c19.631 0 35.603-15.971 35.603-35.602v-93.807l-45.73-27.256h-59.208l-45.729 27.256v93.807c-.001 19.632 15.97 35.602 35.601 35.602z"/><path d="m56.599 172.406h37.468v-63.65l56.6-16.868v-91.888h-150.667v91.889l56.599 16.867z"/><path d="m512 0h-150.666v91.888l56.599 16.868v63.65h37.468v-63.65l56.599-16.867z"/><path d="m407.063 202.406-45.729 27.256v93.807c0 19.631 15.971 35.602 35.602 35.602h79.463c19.631 0 35.602-15.971 35.602-35.602v-93.807l-45.729-27.256z"/><path d="m512 378.526c-10.262 6.659-22.483 10.544-35.602 10.544h-79.463c-13.118 0-25.339-3.885-35.602-10.544v133.474h150.667z"/><path d="m150.667 378.526c-10.262 6.659-22.483 10.544-35.602 10.544h-79.463c-13.118 0-25.339-3.885-35.602-10.544v133.474h150.667z"/><path d="m331.334 378.526c-10.263 6.659-22.484 10.544-35.603 10.544h-79.463c-13.118 0-25.339-3.885-35.602-10.544v133.474h150.667v-133.474z"/><path d="m35.602 359.07h79.464c19.631 0 35.602-15.971 35.602-35.602v-93.807l-45.73-27.256h-59.209l-45.729 27.257v93.807c0 19.631 15.971 35.601 35.602 35.601z"/></g></svg>