<svg id="Layer_1" enable-background="new 0 0 512.024 512.024" height="512" viewBox="0 0 512.024 512.024" width="512" xmlns="http://www.w3.org/2000/svg"><g><path d="m393.677 395.529-72.851-126.183-73.674 126.183z"/><path d="m256.012 157.086-137.666 238.443h94.065l91.142-156.099zm-46.656 199.765h-30v-30.002h30zm46.655-74.009h-30v-30.002h30z"/><path d="m505.506 411.984-207.858-360.021c-8.69-15.053-24.255-24.039-41.636-24.039-17.382 0-32.946 8.986-41.637 24.039l-207.857 360.021c-8.69 15.052-8.691 33.024-.001 48.077s24.256 24.039 41.637 24.039h415.716c17.381 0 32.946-8.986 41.637-24.039s8.689-33.026-.001-48.077zm-439.121 13.545 189.627-328.443 189.626 328.442h-379.253z"/></g></svg>