<svg id="Capa_1" enable-background="new 0 0 512 512" height="512" viewBox="0 0 512 512" width="512" xmlns="http://www.w3.org/2000/svg"><g><path d="m271 150.375 64.904 26.884c1.147-5.443 1.76-11.081 1.76-16.861 0-39.904-28.778-73.193-66.664-80.259z"/><path d="m241 150.375v-70.236c-37.886 7.066-66.664 40.355-66.664 80.259 0 5.78.613 11.417 1.76 16.861z"/><path d="m271 182.848v57.81c22.284-4.156 41.405-17.382 53.382-35.699z"/><path d="m416.398 160.398c0-88.585-71.812-160.398-160.398-160.398-88.585 0-160.398 71.813-160.398 160.398 0 77.674 55.213 142.447 128.531 157.227v66.905h-63.734v63.734h63.734v63.736h63.734v-63.734h63.734v-63.734h-63.734v-66.905c73.319-14.781 128.531-79.555 128.531-157.229zm-160.398 111.665c-61.571 0-111.664-50.093-111.664-111.664s50.093-111.665 111.664-111.665 111.664 50.093 111.664 111.664-50.093 111.665-111.664 111.665z"/><path d="m241 182.848-53.382 22.111c11.977 18.317 31.098 31.542 53.382 35.699z"/></g></svg>