<svg id="Capa_1" enable-background="new 0 0 510 510" height="512" viewBox="0 0 510 510" width="512" xmlns="http://www.w3.org/2000/svg"><g id="XMLID_57_"><path id="XMLID_76_" d="m0 0h60v510h-60z"/><path id="XMLID_65_" d="m180 75h-30v-75h-60v510h150v-510h-60zm-30 30h30v60h-30zm0 90h30v60h-30zm0 90h30v60h-30zm34.334 160.548-19.002-19.216-19.003 19.216-21.331-21.096 40.334-40.784 40.334 40.784z"/><path id="XMLID_64_" d="m450 0h60v510h-60z"/><path id="XMLID_58_" d="m270 510h60v-75h30v75h60v-510h-150zm90-105h-30v-60h30zm0-90h-30v-60h30zm0-90h-30v-60h30zm-34.335-160.547 19.003 19.215 19.004-19.215 21.33 21.094-40.334 40.785-40.333-40.785z"/></g></svg>