<?xml version="1.0" encoding="iso-8859-1"?>
<!-- Generator: Adobe Illustrator 19.0.0, SVG Export Plug-In . SVG Version: 6.00 Build 0)  -->
<svg xmlns="http://www.w3.org/2000/svg" xmlns:xlink="http://www.w3.org/1999/xlink" version="1.1" id="Capa_1" x="0px" y="0px" viewBox="0 0 511.999 511.999" style="enable-background:new 0 0 511.999 511.999;" xml:space="preserve">
<g>
	<g>
		<path d="M379.861,395.443V349.23c13.238-5.8,22.513-19.022,22.513-34.376s-9.275-28.576-22.513-34.376v-78.617    c9.641-18.901,15.083-40.286,15.083-62.919C394.943,62.33,332.614,0,256,0S117.056,62.33,117.056,138.944    c0,22.633,5.442,44.018,15.083,62.919v78.617c-13.238,5.8-22.513,19.022-22.513,34.376s9.275,28.575,22.513,34.376v46.212    c-13.238,5.8-22.513,19.022-22.513,34.376c0,20.687,16.83,37.515,37.515,37.515s37.515-16.83,37.515-37.515    c0-15.354-9.275-28.575-22.513-34.376V349.23c13.238-5.8,22.513-19.022,22.513-34.376s-9.275-28.576-22.513-34.376v-39.177    c21.273,19.522,48.625,32.515,78.854,35.775v62.171c-11.55,12.72-34.881,42.9-34.881,79.14c0,47.134,39.471,84.023,41.151,85.571    l8.732,8.041l8.732-8.041c1.68-1.547,41.151-38.437,41.151-85.571c0-36.24-23.332-66.42-34.881-79.14v-62.171    c30.228-3.261,57.581-16.253,78.854-35.775v39.177c-13.238,5.8-22.513,19.022-22.513,34.376s9.275,28.575,22.513,34.376v46.212    c-13.238,5.8-22.513,19.022-22.513,34.376c0,20.687,16.83,37.515,37.515,37.515s37.515-16.83,37.515-37.515    C402.375,414.464,393.099,401.243,379.861,395.443z M169.128,204.6c-10.982-14.495-18.422-31.811-21.03-50.653h18.526    c2.313,13.824,7.761,26.599,15.594,37.561L169.128,204.6z M166.625,123.941h-18.526c2.606-18.841,10.047-36.157,21.03-50.653    L182.22,86.38C174.386,97.343,168.938,110.118,166.625,123.941z M240.997,246.846c-18.841-2.606-36.157-10.047-50.653-21.03    l13.091-13.091c10.963,7.833,23.738,13.281,37.561,15.595V246.846z M218.368,153.946c0.134,0.335,0.267,0.671,0.41,1.002    l-14.9,14.9c-2.917-4.901-5.169-10.241-6.616-15.902H218.368z M197.263,123.941c1.446-5.661,3.699-11.001,6.616-15.902l14.9,14.9    c-0.143,0.331-0.276,0.667-0.41,1.002H197.263z M240.997,197.681c-5.661-1.447-11.001-3.699-15.902-6.616l14.9-14.9    c0.331,0.143,0.667,0.276,1.002,0.41V197.681z M240.997,101.312c-0.335,0.134-0.671,0.267-1.002,0.41l-14.9-14.9    c4.901-2.917,10.241-5.169,15.902-6.616V101.312z M240.997,49.57c-13.824,2.313-26.599,7.761-37.561,15.594l-13.091-13.091    c14.495-10.982,31.811-18.422,50.653-21.03V49.57z M256,149.463c-5.799,0-10.518-4.718-10.518-10.518    c0-5.799,4.718-10.518,10.518-10.518c5.8,0,10.518,4.718,10.518,10.518C266.517,144.744,261.799,149.463,256,149.463z     M271.002,80.208c5.661,1.446,11.001,3.699,15.902,6.616l-14.9,14.9c-0.331-0.143-0.667-0.276-1.002-0.41V80.208z     M272.004,176.166l14.9,14.9c-4.901,2.917-10.241,5.169-15.902,6.616v-21.106h0C271.338,176.442,271.673,176.309,272.004,176.166z     M271.002,246.846v-18.527c13.824-2.313,26.599-7.761,37.561-15.595l13.091,13.091    C307.159,236.799,289.843,244.239,271.002,246.846z M293.63,153.946h21.106c-1.446,5.661-3.699,11.001-6.616,15.902l-14.9-14.9    C293.363,154.618,293.496,154.281,293.63,153.946z M293.221,122.939l14.9-14.9c2.916,4.901,5.169,10.241,6.616,15.902h-21.106    C293.497,123.606,293.364,123.27,293.221,122.939z M308.564,65.164c-10.963-7.832-23.738-13.281-37.561-15.594V31.043    c18.841,2.606,36.157,10.047,50.653,21.03L308.564,65.164z M342.871,204.6l-13.091-13.091    c7.832-10.963,13.281-23.738,15.594-37.561H363.9C361.294,172.788,353.854,190.105,342.871,204.6z M345.374,123.941    c-2.313-13.824-7.761-26.599-15.594-37.561l13.091-13.091c10.982,14.495,18.422,31.811,21.03,50.653H345.374z"/>
	</g>
</g>
<g>
</g>
<g>
</g>
<g>
</g>
<g>
</g>
<g>
</g>
<g>
</g>
<g>
</g>
<g>
</g>
<g>
</g>
<g>
</g>
<g>
</g>
<g>
</g>
<g>
</g>
<g>
</g>
<g>
</g>
</svg>
