<svg id="Capa_1" enable-background="new 0 0 512 512" height="512" viewBox="0 0 512 512" width="512" xmlns="http://www.w3.org/2000/svg"><g><path d="m376.78 327.61c-8.37 0-20.06 4.92-30.13 14.99-14.58 14.58-18.38 32.59-12.03 38.94 3.87 3.87 11.1 2.92 14.04 2.34 8.36-1.68 17.44-6.91 24.9-14.37s12.7-16.54 14.37-24.91c.59-2.93 1.53-10.16-2.34-14.03-1.97-1.97-5.06-2.96-8.81-2.96z"/><path d="m104.63 191.58c-2.13 0-4.08.3-5.29.54-8.36 1.68-17.44 6.91-24.9 14.37s-12.7 16.54-14.37 24.91c-.59 2.93-1.53 10.16 2.34 14.03 6.35 6.35 24.35 2.56 38.94-12.03 14.58-14.58 18.38-32.59 12.03-38.94-2.27-2.27-5.71-2.88-8.75-2.88z"/><path d="m104.57 327.61c-8.37 0-20.06 4.92-30.13 14.99-14.58 14.58-18.38 32.59-12.03 38.94 3.87 3.87 11.1 2.92 14.04 2.34 8.36-1.68 17.44-6.91 24.9-14.37s12.7-16.54 14.37-24.91c.59-2.93 1.53-10.16-2.34-14.03-1.97-1.97-5.06-2.96-8.81-2.96z"/><path d="m240.67 191.5c-8.37 0-20.06 4.93-30.12 14.99-14.59 14.59-18.38 32.59-12.03 38.94s24.35 2.56 38.93-12.03c14.59-14.58 18.38-32.59 12.03-38.94-1.96-1.96-5.05-2.96-8.81-2.96z"/><path d="m31.99 128-31.99 31.99v256.02l31.99 31.99h384.02l31.99-31.99v-256.02l-31.99-31.99zm113.15 222.49c-2.85 14.23-10.87 28.52-22.58 40.23s-26 19.73-40.23 22.57c-3.76.76-7.47 1.13-11.05 1.13-11.85 0-22.45-4.04-30.08-11.67-19.44-19.44-14.16-55.18 12.03-81.36 26.18-26.19 61.92-31.47 81.36-12.03 9.94 9.94 13.79 24.93 10.55 41.13zm-22.58-95.88c-15.56 15.56-34.49 23.74-51.37 23.74-11.53 0-22.1-3.81-29.99-11.71-9.94-9.94-13.79-24.93-10.55-41.13 2.85-14.23 10.87-28.52 22.58-40.23s26-19.73 40.23-22.57c16.2-3.24 31.19.6 41.13 10.54 19.44 19.44 14.16 55.18-12.03 81.36zm136.11 136.11c-15.56 15.56-34.49 23.74-51.37 23.74-11.53 0-22.11-3.82-30-11.71-19.44-19.44-14.15-55.18 12.03-81.36 26.19-26.19 61.93-31.47 81.37-12.03 19.44 19.43 14.15 55.17-12.03 81.36zm0-136.11c-15.56 15.56-34.49 23.74-51.37 23.74-11.53 0-22.11-3.82-30-11.71-19.44-19.43-14.15-55.17 12.03-81.36 26.19-26.19 61.93-31.47 81.37-12.03s14.15 55.18-12.03 81.36zm158.68 95.88c-2.85 14.23-10.87 28.52-22.58 40.23s-26 19.73-40.23 22.57c-3.76.76-7.47 1.13-11.05 1.13-11.85 0-22.45-4.04-30.08-11.67-19.44-19.44-14.16-55.18 12.03-81.36 26.18-26.19 61.92-31.47 81.36-12.03 9.94 9.94 13.79 24.93 10.55 41.13zm-22.58-95.88c-15.56 15.56-34.49 23.74-51.37 23.74-11.53 0-22.1-3.81-29.99-11.71-9.94-9.94-13.79-24.93-10.55-41.13 2.85-14.23 10.87-28.52 22.58-40.23s26-19.73 40.23-22.57c16.2-3.24 31.19.6 41.13 10.54 19.44 19.44 14.16 55.18-12.03 81.36z"/><path d="m376.84 191.58c-2.13 0-4.08.3-5.29.54-8.36 1.68-17.44 6.91-24.9 14.37s-12.7 16.54-14.37 24.91c-.59 2.93-1.53 10.16 2.34 14.03 6.35 6.35 24.35 2.56 38.94-12.03 14.58-14.58 18.38-32.59 12.03-38.94-2.27-2.27-5.71-2.88-8.75-2.88z"/><path d="m240.67 327.61c-8.37 0-20.06 4.92-30.12 14.99-14.59 14.58-18.38 32.59-12.03 38.94s24.35 2.55 38.93-12.03c14.59-14.59 18.38-32.59 12.03-38.94-1.96-1.97-5.05-2.96-8.81-2.96z"/><path d="m480.005 64h-384.01l-31.995 31.995v2.005h364.432l49.568 49.568v236.432h2.005l31.995-31.995v-256.01z"/></g></svg>