<?xml version="1.0" encoding="iso-8859-1"?>
<!-- Generator: Adobe Illustrator 19.0.0, SVG Export Plug-In . SVG Version: 6.00 Build 0)  -->
<svg version="1.1" id="Layer_1" xmlns="http://www.w3.org/2000/svg" xmlns:xlink="http://www.w3.org/1999/xlink" x="0px" y="0px"
	 viewBox="0 0 512 512" style="enable-background:new 0 0 512 512;" xml:space="preserve">
<g>
	<g>
		<g>
			<rect x="238.354" y="447.264" width="35.31" height="64.736"/>
			<rect x="414.173" y="345.758" transform="matrix(0.5 -0.866 0.866 0.5 -111.5539 563.0294)" width="35.31" height="64.734"/>
			<rect x="62.517" y="345.75" transform="matrix(-0.5 -0.866 0.866 -0.5 -207.1973 636.6104)" width="35.31" height="64.734"/>
			<path d="M273.664,43.26V0h-35.31v43.26c-28.062,6.636-50.147,28.719-56.78,56.786h148.87
				C323.811,71.979,301.726,49.896,273.664,43.26z"/>
			<path d="M314.931,135.356h-41.267v92.733l41.909,41.91l-24.968,24.968l-34.596-34.597l-34.597,34.596l-24.968-24.968
				l41.909-41.91v-92.732h-41.267c-0.737,22.15-9.853,43.176-25.376,59.104c-20.668,21.207-33.401,50.184-33.401,82.138
				c0,66.527,47.081,117.701,117.701,117.614S373.786,339.45,373.71,276.451c-0.039-31.904-12.774-60.834-33.421-82.009
				C324.767,178.523,315.667,157.497,314.931,135.356z"/>
		</g>
	</g>
</g>
<g>
</g>
<g>
</g>
<g>
</g>
<g>
</g>
<g>
</g>
<g>
</g>
<g>
</g>
<g>
</g>
<g>
</g>
<g>
</g>
<g>
</g>
<g>
</g>
<g>
</g>
<g>
</g>
<g>
</g>
</svg>
