<svg id="Layer_1" enable-background="new 0 0 512.043 512.043" height="512" viewBox="0 0 512.043 512.043" width="512" xmlns="http://www.w3.org/2000/svg"><g><path d="m120.242 40.749c9.025-11.724 21.557-20.617 36.012-25.093-5.954-5.202-13.075-9.163-21.004-11.407l-15.008-4.249-15.007 4.249c-7.93 2.244-15.052 6.205-21.006 11.407 14.455 4.476 26.988 13.368 36.013 25.093z"/><path d="m62.855 42.436h-32.249v33.455c29.626-.787 51.448.31 74.636 19.629v-10.698c0-23.372-19.014-42.386-42.387-42.386z"/><path d="m177.629 42.436c-23.372 0-42.387 19.015-42.387 42.387v10.697c23.166-19.315 45.062-20.42 74.636-19.629v-33.455z"/><path d="m105.242 369.298c-8.307-4.599-17.854-7.218-28.002-7.218h-53.419v36.799c0 31.982 26.02 58.002 58.002 58.002h23.419v55.162h30v-109.671h23.418c31.982 0 58.002-26.02 58.002-58.002v-36.799h-53.418c-10.148 0-19.695 2.62-28.002 7.218v-18.58h-30z"/><path d="m51.386 105.891h-51.365v106.463c0 29.696 24.16 53.856 53.856 53.856h51.364v-106.463c.001-29.696-24.159-53.856-53.855-53.856z"/><path d="m240.462 212.354v-106.463h-51.363c-29.696 0-53.856 24.16-53.856 53.856v106.463h51.363c29.696 0 53.856-24.16 53.856-53.856z"/><path d="m391.801 40.749c9.026-11.724 21.558-20.617 36.013-25.093-5.954-5.202-13.075-9.163-21.005-11.407l-15.008-4.249-15.008 4.249c-7.929 2.245-15.05 6.206-21.004 11.407 14.454 4.476 26.986 13.369 36.012 25.093z"/><path d="m334.414 42.436h-32.249v33.455c29.626-.787 51.448.31 74.636 19.629v-10.698c0-23.372-19.015-42.386-42.387-42.386z"/><path d="m449.188 42.436c-23.372 0-42.387 19.015-42.387 42.387v10.697c23.166-19.315 45.062-20.42 74.636-19.629v-33.455z"/><path d="m376.801 314.79c-8.307-4.599-17.854-7.218-28.002-7.218h-53.418v36.799c0 31.982 26.02 58.002 58.002 58.002h23.418v109.671h30v-55.162h23.419c31.982 0 58.002-26.02 58.002-58.002v-36.8h-53.419c-10.148 0-19.695 2.62-28.002 7.218v-73.088h-30z"/><path d="m322.944 105.891h-51.363v106.463c0 29.696 24.16 53.856 53.856 53.856h51.363v-106.463c.001-29.696-24.159-53.856-53.856-53.856z"/><path d="m460.657 105.891c-29.696 0-53.856 24.16-53.856 53.856v106.463h51.364c29.696 0 53.856-24.16 53.856-53.856v-106.463z"/></g></svg>