<svg id="Capa_1" enable-background="new 0 0 512 512" height="512" viewBox="0 0 512 512" width="512" xmlns="http://www.w3.org/2000/svg"><g><path d="m359.502 463.004 24.498 48.996h64v-48.996z"/><path d="m406.563 210.655v30.22h-90.25v-30.22h-120.625v30.22h-90.25v-30.22h-73.438v222.349h448v-222.349zm-105.37 120.595h-30.125v30.125h-30v-30.125h-30.125v-30h30.125v-30.125h30v30.125h30.125z"/><path d="m346.313 180.625h30.25v30.25h-30.25z"/><path d="m16 180.655h89.438v-30.03h90.25v30.03h120.625v-30.03h90.25v30.03h89.437v-84.655h-480z"/><path d="m135.438 180.625h30.25v30.25h-30.25z"/><path d="m64 463.004v48.996h64l24.498-48.996z"/><path d="m45.063 66v-5.813c0-16.645 13.541-30.187 30.187-30.187h361.5c16.646 0 30.188 13.542 30.188 30.188v5.812h30v-5.813c0-33.187-27-60.187-60.188-60.187h-361.5c-33.187 0-60.187 27-60.187 60.188v5.812z"/></g></svg>