<svg id="Capa_1" enable-background="new 0 0 512 512" height="512" viewBox="0 0 512 512" width="512" xmlns="http://www.w3.org/2000/svg"><g><path d="m382.891 87.332c-8.319-8.319-21.854-8.317-30.171 0l-15.086 15.086 30.171 30.17 15.086-15.085c8.318-8.318 8.318-21.853 0-30.171z"/><path d="m324.56 274.429c-41.543-16.847-74.814-51.792-89.663-94.064-13.506 22.068-32.409 41-54.521 54.536 44.939 15.786 81.085 51.993 96.804 96.953 13.527-22.166 32.438-41.12 54.645-54.684-2.439-.854-4.861-1.766-7.265-2.741z"/><path d="m384 256c32.758 0 65.516-12.497 90.51-37.49 49.987-49.987 49.987-131.032 0-181.019-24.994-24.994-57.752-37.491-90.51-37.491s-65.516 12.497-90.51 37.49c-49.987 49.987-49.987 131.032 0 181.019 24.994 24.994 57.752 37.491 90.51 37.491zm-52.493-189.881c20.015-20.016 52.58-20.016 72.597 0 14.499 14.498 18.486 35.579 11.981 53.708l54.619 18.206-9.486 28.461-63.668-21.223-8.53 8.53 40.777 40.777-21.213 21.213-113.376-113.373z"/><path d="m128 256c-32.758 0-65.516 12.497-90.51 37.49-49.987 49.987-49.987 131.032 0 181.019 24.994 24.994 57.752 37.491 90.51 37.491s65.516-12.497 90.51-37.49c49.987-49.987 49.987-131.032 0-181.019-24.994-24.994-57.752-37.491-90.51-37.491zm31.711 199.273-110.727-110.726 21.213-21.213 89.514 89.513 26.092-26.092 21.213 21.213z"/></g></svg>