<svg id="Capa_1" enable-background="new 0 0 505.605 505.605" height="512" viewBox="0 0 505.605 505.605" width="512" xmlns="http://www.w3.org/2000/svg"><g><path d="m428.657 63.671 21.214 21.214 21.213-21.213-63.641-63.641-21.213 21.214 21.214 21.213-53.03 53.03 21.211 21.214z"/><path d="m281.981 65.484h60.006v60.006h-60.006z" transform="matrix(.707 -.707 .707 .707 23.85 248.557)"/><path d="m345.623 129.13h60.001v59.998h-60.001z" transform="matrix(.707 -.707 .707 .707 -2.506 312.209)"/><path d="m86.745 320.727-39.92 39.919 21.215 21.215-68.04 68.041 21.212 21.213 68.041-68.041 21.216 21.215 39.92-39.92 51.477-17.158-97.964-97.965z"/><path d="m340.06 208.42-91.72-91.72-31.819 31.82 42.43 42.431-21.213 21.213-42.431-42.431-21.214 21.214 42.431 42.43-21.213 21.213-42.431-42.43-31.82 31.819 88.895 88.895c14.812-63.127 65.973-112.4 130.105-124.454z"/><circle cx="370.605" cy="408.074" r="15"/><path d="m370.605 235.574c-74.559 0-135 60.441-135 135s60.441 135 135 135 135-60.441 135-135-60.441-135-135-135zm-15 45h30v30h-30zm-70.605 49.393 21.212-21.213 21.214 21.213-21.214 21.213zm85.605 123.107c-24.813 0-45-20.188-45-45 0-24.814 20.187-45 45-45 24.814 0 45 20.186 45 45 0 24.813-20.185 45-45 45zm64.395-101.894-21.213-21.213 21.213-21.213 21.212 21.213z"/></g></svg>