<svg id="Capa_1" enable-background="new 0 0 512 512" height="512" viewBox="0 0 512 512" width="512" xmlns="http://www.w3.org/2000/svg"><g><path d="m323.324 217.2-4.688 29.619c95.596 15.103 163.364 62.461 163.364 115.181 0 65.054-104.037 120-226 120s-226-54.946-226-120c0-27.686 18.926-54.961 53.291-76.802l-16.084-25.313c-43.345 27.54-67.207 63.795-67.207 102.115 0 84.111 113.002 150 256 150s256-65.889 256-150c0-68.892-76.425-127.09-188.676-144.8z"/><path d="m420.092 364.813 27.012 13.037c2.592-5.362 3.896-10.694 3.896-15.85 0-29.634-42.495-61.86-103.33-78.369l-7.852 28.945c57.027 15.484 81.182 41.631 80.274 52.237z"/><path d="m76.509 328.821c-10.796 11.031-16.509 22.515-16.509 33.179 0 33.809 55.17 69.756 127.021 83.613l5.684-29.443c-71.104-13.726-102.705-45.85-102.705-54.17 0-1.128 1.436-5.537 7.954-12.202z"/><path d="m311.21 356.873c-36.768-42.085-55.21-126.753-55.21-162.334v-194.539h-120l27.144 191.961c1.787 12.612-.366 25.166-6.255 36.313-10.767 20.376-27.818 57.071-20.889 73.726 2.959 7.148 9.683 13.374 20.01 18.53 32.212 16.128 57.114 37.148 74.019 62.505l8.159 12.246c11.147 16.729 29.809 26.719 49.921 26.719h57.891c16.538 0 30-13.462 30-30s-13.462-30-30-30h-30.308z"/></g></svg>