<svg id="Capa_1" enable-background="new 0 0 511.999 511.999" height="512" viewBox="0 0 511.999 511.999" width="512" xmlns="http://www.w3.org/2000/svg"><g><path d="m241.225 127.115c-6.713-28.141-14.384-50.13-21.528-66.783-4.334-10.105-8.637-18.687-12.697-25.94v114.943c11.554-8.242 22.975-15.623 34.225-22.22z"/><path d="m159.578 229.058c-47.79 47.79-55.128 121.447-23.248 181.273-.063-11.364 1.792-23.691 5.624-36.737 9.916-33.748 32.147-69.105 62.602-99.559 117.099-117.1 204.761-154.728 253.443-166.562-10.298-1.381-22.277-2.341-35.69-2.341-64.006 0-160.634 21.829-262.731 123.926z"/><path d="m426.86 149.266c-42.726 17.585-112.296 57.186-201.092 145.982-26.963 26.964-46.507 57.79-55.03 86.803-5.176 17.614-5.692 33.168-1.746 44.876l288.252-288.253c-8.809 2.477-18.96 5.89-30.384 10.592z"/><path d="m207.493 480.716c-.303 0-.6-.014-.902-.017 24.215 12.947 50.706 19.465 76.835 19.465 38.473 0 76.154-14.115 104.649-42.61 123.486-123.486 129.553-238.995 121.583-298.424-11.833 48.681-49.459 136.345-166.56 253.447-43.915 43.915-94.91 68.136-135.605 68.139z"/><path d="m235.082 446.395c29.012-8.523 59.839-28.067 86.803-55.03 88.796-88.797 128.396-158.366 145.981-201.093 4.702-11.425 8.116-21.576 10.593-30.386l-288.254 288.254c11.708 3.946 27.262 3.43 44.877-1.745z"/><path d="m33.981 246.387h61.854c7.512-126.072 37.073-197.492 59.641-234.551-41.591 31.755-105.817 101.279-121.495 234.551z"/><path d="m180.143 500.012c-12.571-7.926-24.28-17.286-35.008-28.015-18.121-18.121-32.374-39.069-42.364-62.262-9.69-22.498-14.978-46.15-15.715-70.3-.664-21.736 2.397-42.906 9.083-63.048h-93.976c-1.423 11.422-2.163 22.175-2.163 32 0 102.055 79.629 185.499 180.143 191.625z"/><path d="m138.365 207.845c12.958-12.958 25.853-24.692 38.635-35.336v-138.084c-4.478 7.981-9.242 17.573-13.996 28.977-13.076 31.37-27.99 81.461-34.967 155.724 3.265-3.888 6.702-7.655 10.328-11.281z"/><path d="m228.526 11.846c12.855 21.119 27.977 53.395 40.003 100.566 11.688-5.737 23.138-10.655 34.306-14.859-24.099-41.637-52.355-68.937-74.309-85.707z"/></g></svg>