<?xml version="1.0" encoding="iso-8859-1"?>
<!-- Generator: Adobe Illustrator 19.0.0, SVG Export Plug-In . SVG Version: 6.00 Build 0)  -->
<svg version="1.1" id="Layer_1" xmlns="http://www.w3.org/2000/svg" xmlns:xlink="http://www.w3.org/1999/xlink" x="0px" y="0px"
	 viewBox="0 0 512 512" style="enable-background:new 0 0 512 512;" xml:space="preserve">
<g>
	<g>
		<path d="M327.073,0C225.105,0,142.147,82.92,142.147,184.842s82.958,184.842,184.927,184.842S512,286.765,512,184.842
			S429.042,0,327.073,0z M327.073,89.923c-52.363,0-94.962,42.58-94.962,94.919h-29.988c0-68.867,56.052-124.893,124.95-124.893
			V89.923z"/>
	</g>
</g>
<g>
	<g>
		<path d="M147.278,302.384L12.862,436.739c-17.149,17.141-17.149,45.031,0,62.172c16.369,16.361,43.682,18.51,62.2,0
			l134.416-134.355C184.728,348.321,163.52,327.123,147.278,302.384z"/>
	</g>
</g>
<g>
</g>
<g>
</g>
<g>
</g>
<g>
</g>
<g>
</g>
<g>
</g>
<g>
</g>
<g>
</g>
<g>
</g>
<g>
</g>
<g>
</g>
<g>
</g>
<g>
</g>
<g>
</g>
<g>
</g>
</svg>
