<svg id="Capa_1" enable-background="new 0 0 512 512" height="512" viewBox="0 0 512 512" width="512" xmlns="http://www.w3.org/2000/svg"><g><path d="m280.183 158.886h117.313c-2.718-4.754-6.09-9.233-10.144-13.287l-20.953-20.953c-11.918-11.917-27.764-18.481-44.618-18.481-16.855 0-32.701 6.563-44.619 18.481l-61.396 61.396c-12.652 12.651-18.779 29.383-18.419 45.998h125.495v30.041h-117.17c2.709 4.721 6.065 9.169 10.094 13.198l20.953 20.953c11.919 11.918 27.764 18.481 44.618 18.481 16.855 0 32.701-6.563 44.619-18.481l61.396-61.396c12.629-12.629 18.758-29.323 18.421-45.909h-125.59z"/><path d="m467.193 81.873-37.068-37.068c-59.741-59.741-156.948-59.739-216.689 0l-77.51 77.51c-54.917 54.918-59.346 141.491-13.297 201.52l-100.721 82.299c-1.572 1.287-3.084 2.654-4.492 4.062-11.18 11.18-17.365 26.082-17.416 41.962-.05 15.999 6.157 31.044 17.479 42.365 11.2 11.2 26.442 17.477 42.21 17.477.993 0 1.99-.026 2.987-.075 16.811-.847 32.557-8.808 43.197-21.84l82.293-100.713c27.377 21 60.273 31.506 93.172 31.506 39.237 0 78.474-14.935 108.344-44.806l77.51-77.51c59.744-59.741 59.744-156.948.001-216.689zm-58.599 174.204-61.396 61.396c-18.157 18.158-42.009 27.237-65.86 27.237-23.852 0-47.703-9.079-65.861-27.237l-20.953-20.953c-36.316-36.316-36.316-95.405 0-131.72l61.396-61.396c36.316-36.318 95.407-36.316 131.721 0l20.953 20.953c36.316 36.316 36.316 95.405 0 131.72z"/></g></svg>