<svg id="Layer_1" enable-background="new 0 0 512 512" height="512" viewBox="0 0 512 512" width="512" xmlns="http://www.w3.org/2000/svg"><g><path d="m309.963 252.304 48.037 13.01v-48.422h-48.037z"/><path d="m231.958 216.892v27.287l24.002-6.501 24.003 6.501v-27.287z"/><path d="m368.335 186.89v-30h-29.538c-1.892-27.211-16.952-50.853-38.835-64.58v-21.809c0-18.998-12.102-35.222-29.002-41.369v-29.132h-30v29.132c-16.9 6.147-29.002 22.371-29.002 41.369v21.809c-21.883 13.727-36.943 37.369-38.835 64.58h-29.538v30z"/><path d="m201.958 216.892h-48.038v48.422l48.038-13.01z"/><path d="m255.96 268.758-138.838 37.603v19.776h277.676v-19.776z"/><path d="m496.998 482v-125.863h-72.2v125.863h-30v-125.863h-31.535v125.863h-30v-125.863h-31.535v125.863h-30v-125.863h-31.536v125.863h-30v-125.863h-31.535v125.863h-30v-125.863h-31.535v125.863h-30v-125.863h-72.2v125.863h-14.922v30h512v-30z"/></g></svg>