<svg id="Capa_1" enable-background="new 0 0 512 512" height="512" viewBox="0 0 512 512" width="512" xmlns="http://www.w3.org/2000/svg"><g><path d="m135.806 178.006 39.233 9.744 33.623-46.674v-23.765c0-10.881-8.852-19.732-19.732-19.732h-72.056v41.983l-11.724 19.529z"/><path d="m315.153 274.149-38.809-53.592-49.49 33.038c-2.827 12.559-33.216 64.774-34.789 67.594l4.853 53.158 130.856-46.185c-.001.001-12.454-51.062-12.621-54.013z"/><path d="m188.929 67.579c27.423 0 49.732 22.31 49.732 49.732v9.747c21.976-5.104 45.243 3.236 57.278 22.855 9.559 15.582 10.171 34.062 2.263 49.68l28.926 39.944c27.094-31.123 46.017-63.088 46.037-105.819.001-73.85-59.867-133.718-133.718-133.718h-143.931v31.017c0 12.954 3.463 25.545 9.849 36.562z"/><path d="m222.22 220.618 47.46-31.683c7.49-10.401 2.481-20.411.687-23.335-3.915-6.382-12.009-12.298-23.007-9.762l-14.826 3.424-28.573 39.664c7.853 5.563 14.128 13.047 18.259 21.692z"/><path d="m354.364 350.591-163.724 57.785-32.862 103.624h288.037c.032-65.741-34.65-128.14-91.451-161.409z"/><path d="m197.736 244.984c0-12.18-8.255-22.736-20.075-25.672l-53.626-13.318-34.327-21.179-23.523 39.185 29.331 72.156h76.469c.373-.622 21.255-33.53 25.751-51.172z"/></g></svg>