<svg id="Capa_1" enable-background="new 0 0 512 512" height="512" viewBox="0 0 512 512" width="512" xmlns="http://www.w3.org/2000/svg"><g><path d="m107.509 171.156-53.027 53.027 21.211 21.211 31.816-31.816 21.306 21.306-10.516 10.615c-37.5 37.202-40.8 95.7-9.598 136.8l83.699-84 21.301 21.301-84.001 83.699c18.301 14.401 40.5 21.301 62.7 21.301 27.001 0 53.699-10.201 74.099-30.901l10.615-10.516 21.308 21.308-31.816 31.816 21.211 21.211 53.027-53.027z"/><path d="m256 0c-140.61 0-256 115.39-256 256s115.39 256 256 256 256-115.39 256-256-115.39-256-256-256zm-226 256c0-56.646 22.2-108.322 56.873-147.916l317.043 317.043c-39.594 34.673-91.27 56.873-147.916 56.873-124.072 0-226-101.928-226-226zm395.127 147.916-84.21-84.21 21.248-21.189 42.327 42.327 53.027-53.027-21.211-21.211-31.816 31.816-190.914-190.913 31.816-31.816-21.211-21.211-53.027 53.027 42.327 42.327-21.189 21.248-84.21-84.21c39.594-34.674 91.27-56.874 147.916-56.874 124.072 0 226 101.928 226 226 0 56.646-22.2 108.322-56.873 147.916z"/><path d="m372.675 139.062c-6.98-6.813-15.225-11.783-24.022-15.269l6.912-34.55-29.414-5.889-7.004 35.004c-14.357.082-28.649 3.763-40.761 11.494l103.869 103.868c8.163-12.354 12.026-26.655 12.083-41.006l34.308-6.865-5.889-29.414-34.169 6.835c-3.647-8.762-8.834-17.036-15.913-24.208z"/></g></svg>