<svg id="Capa_1" enable-background="new 0 0 512 512" height="512" viewBox="0 0 512 512" width="512" xmlns="http://www.w3.org/2000/svg"><g><path d="m49.36 401.474-28.173 98.476h76.84l16.041-19.561c-27.024-21.066-49.239-48.018-64.708-78.915z"/><path d="m396.577 480.389 16.041 19.561h77.101l-29.11-97.123c-15.436 30.333-37.403 56.804-64.032 77.562z"/><path d="m255.276 322.008 42.702-42.702c.211-.211.432-.408.646-.614 5.232-5.843 5.059-14.844-.553-20.457-5.808-5.808-15.26-5.808-21.068 0l-21.681 21.683-21.682-21.683c-2.904-2.903-6.719-4.356-10.533-4.356-3.815 0-7.63 1.451-10.534 4.356-5.808 5.809-5.808 15.26 0 21.069z"/><path d="m394.741 70.266c-6.62-2.396-12.338-4.464-20.065-10.853l-.597-.493-.644-.43c-8.404-5.597-11.932-10.47-16.018-16.113-6.386-8.819-13.624-18.814-34.83-26.822l-.672-.253-.693-.188c-21.811-5.925-33.453-2.029-43.725 1.406-6.381 2.135-11.89 3.976-21.464 3.517l-.72-.035-.72.035c-9.572.455-15.085-1.382-21.466-3.515-10.273-3.434-21.916-7.327-43.726-1.403l-.693.188-.672.254c-21.204 8.009-28.44 18.004-34.823 26.823-4.084 5.642-7.611 10.515-16.013 16.112l-.644.429-.597.493c-7.725 6.389-13.441 8.457-20.061 10.851-7.21 2.608-15.066 5.459-23.951 13.002h326.752c-8.888-7.545-16.746-10.396-23.958-13.005z"/><path d="m39.441 113.213-37.328 42.395h507.554l-38.076-42.395z"/><path d="m54.15 208.333h-1.721c-28.909 0-52.429 23.519-52.429 52.429s23.52 52.429 52.429 52.429h2.242c.219 3.08.512 6.139.869 9.18 11.718 99.849 96.837 177.58 199.782 177.58s188.064-77.73 199.782-177.58c.357-3.041.65-6.1.869-9.18h3.598c28.909 0 52.428-23.519 52.428-52.429s-23.519-52.429-52.428-52.429h-3.076v-22.784h-402.345zm-24.209 52.429c0-12.4 10.088-22.488 22.488-22.488h1.721v44.976h-1.721c-12.4 0-22.488-10.088-22.488-22.488zm429.631-22.488c12.399 0 22.487 10.087 22.487 22.488 0 12.4-10.088 22.488-22.487 22.488h-3.076v-44.976zm-310.409 41.032c8.106-8.105 18.569-12.446 29.203-13.035.588-10.635 4.929-21.1 13.035-29.207 17.483-17.481 45.929-17.483 63.411 0l.51.51.51-.51c17.483-17.481 45.929-17.483 63.411 0 8.108 8.108 12.449 18.575 13.036 29.213 10.602.609 21.028 4.947 29.11 13.029 17.482 17.482 17.482 45.929 0 63.411l-.51.51.51.511c8.468 8.468 13.132 19.728 13.132 31.705 0 11.976-4.664 23.236-13.132 31.705-8.469 8.469-19.729 13.133-31.706 13.133s-23.236-4.665-31.706-13.133l-27.686-27.685v56.014h-29.941v-56.107l-27.778 27.777c-8.469 8.469-19.728 13.133-31.705 13.133s-23.237-4.665-31.706-13.133c-8.469-8.469-13.132-19.729-13.132-31.705 0-11.977 4.664-23.236 13.133-31.705l.51-.511-.51-.51c-17.481-17.481-17.481-45.928.001-63.41z"/><path d="m319.804 299.886c-.188.195-.367.396-.56.589l-42.75 42.75.002.002-.047.047 42.702 42.702c2.814 2.814 6.554 4.364 10.533 4.364s7.72-1.55 10.534-4.364 4.363-6.555 4.363-10.534-1.549-7.72-4.363-10.534l-21.682-21.682 21.682-21.681c5.808-5.809 5.808-15.26 0-21.069-5.599-5.597-14.572-5.783-20.414-.59z"/><path d="m192.017 343.227-21.681 21.682c-2.814 2.814-4.363 6.554-4.363 10.534 0 3.979 1.55 7.72 4.363 10.534 2.814 2.814 6.554 4.364 10.534 4.364 3.979 0 7.72-1.55 10.533-4.364l42.702-42.702-.048-.047.048-.048-42.702-42.702c-2.904-2.903-6.72-4.356-10.534-4.356-3.816 0-7.63 1.451-10.534 4.356-5.808 5.809-5.808 15.26 0 21.069z"/></g></svg>