<svg id="Capa_1" enable-background="new 0 0 512 512" height="512" viewBox="0 0 512 512" width="512" xmlns="http://www.w3.org/2000/svg"><g><g id="Hepatitis_1_"><g><path d="m300 30.559c-4.719-1.685-9.712-2.818-15-2.818h-150c-74.443 0-135 60.557-135 135v165c0 49.53 56.284 76.082 93.574 49.644l53.384-36.035c-7.679-18.018-11.958-37.819-11.958-58.609 0-82.705 67.295-150 150-150 5.138 0 9.994 1.013 15 1.52z"/><path d="m467 27.741h-122c-5.288 0-10.281 1.133-15 2.818v109.85c23.225 7.379 44.313 19.6 61.133 36.462l101.179-66.894c12.334-8.511 19.688-22.427 19.688-37.236 0-24.815-20.186-45-45-45z"/></g><path d="m285 162.741c-66.275 0-120 53.725-120 120 0 66.273 53.725 120 120 120s120-53.727 120-120c0-66.275-53.725-120-120-120zm-15.322 149.692h-30v-30h30zm0-60v-30h30v30zm60 60h-30v-30h30z"/></g><path d="m400.602 377.139c-6.37 7.784-13.427 14.841-21.211 21.211l85.931 85.909 21.211-21.211z"/></g></svg>