<svg id="Capa_1" enable-background="new 0 0 512 512" height="512" viewBox="0 0 512 512" width="512" xmlns="http://www.w3.org/2000/svg"><g><path d="m256 181c-41.353 0-75 33.647-75 75s33.647 75 75 75 75-33.647 75-75-33.647-75-75-75zm0 120c-24.814 0-45-20.186-45-45h30c0 8.276 6.724 15 15 15s15-6.724 15-15.01h30c0 24.824-20.186 45.01-45 45.01z"/><path d="m331 15v-15l-150 .037v14.963c0 24.39 34.351 45 75 45s75-20.61 75-45z"/><path d="m361 3.294v11.706c0 42.056-46.128 75-105 75s-105-32.944-105-75v-11.301l-117.979 29.084-33.021 173.222 76 25.605v-111.61h30v392h300v-392h30v111.585l76-25.58-32.992-173.222zm-30 417.706h-150v-30h150zm-75-60c-57.891 0-105-47.109-105-105s47.109-105 105-105 105 47.109 105 105-47.109 105-105 105z"/></g></svg>