<svg id="Capa_1" enable-background="new 0 0 512 512" height="512" viewBox="0 0 512 512" width="512" xmlns="http://www.w3.org/2000/svg"><g><path d="m277.676 251.379c6.725 6.633 16.868 7.706 24.759 2.693l31.769-21.276-78.204-76.022c-14.016 11.436-28.879 21.637-44.395 30.161z"/><path d="m415.699 267.694c8.851-14.675 21.193-27.018 35.868-35.869-14.675-8.851-27.017-21.193-35.868-35.868-8.851 14.675-21.195 27.017-35.87 35.868 14.675 8.851 27.019 21.194 35.87 35.869z"/><path d="m0 397.45h192v44.647h-192z"/><path d="m243.384 397.45 44.616 44.546 224 .101v-44.647z"/><path d="m501.381 367.45.019-53.353-62.365-26.716c-5.326 10.285-8.336 21.953-8.336 34.312h-30c0-30.169-17.942-56.212-43.713-68.051l-38.216 25.592c-8.368 5.386-17.766 8.022-27.088 8.022-12.734 0-25.334-4.915-35.013-14.459l-74.087-72.262c-52.273 20.328-110.093 20.46-167.004-14.439-19.593 58.783-20.703 122.063-3.331 181.354z"/><path d="m176.507 141.958c3.288-7.828 8.119-15.161 14.493-21.535s13.707-11.205 21.535-14.493c-7.828-3.287-15.161-8.118-21.535-14.493-6.374-6.374-11.205-13.707-14.493-21.535-3.288 7.828-8.119 15.161-14.493 21.535s-13.707 11.205-21.535 14.493c7.828 3.288 15.161 8.118 21.535 14.493s11.206 13.708 14.493 21.535z"/></g></svg>