<svg id="Capa_1" enable-background="new 0 0 510.961 510.961" height="512" viewBox="0 0 510.961 510.961" width="512" xmlns="http://www.w3.org/2000/svg"><g id="XMLID_627_"><path id="XMLID_632_" d="m289.358 414.787c0-18.644-15.168-33.812-33.812-33.812s-33.812 15.168-33.812 33.812v96.174h67.623v-96.174z"/><path id="XMLID_641_" d="m483.087 379.621-140.325-120.513v-85.072l-72.282-76.472v-40.031h32.081v-30h-32.081v-27.533h-30v27.533h-31.948v30h31.948v38.973l-73.281 77.53v85.119l-139.325 120.466 19.547 22.758 23.56-20.236v128.818h120.755v-96.174c0-35.186 28.625-63.812 63.812-63.812s63.812 28.626 63.812 63.812v96.174h120.62v-128.818l23.56 20.236zm-104.107 11.379v46.001h-30v-46.001zm-218 0v46.001h-30v-46.001zm109-73h-30v-31h30zm0-68.001h-30v-60h30z"/></g></svg>