<svg id="Capa_1" enable-background="new 0 0 512 512" height="512" viewBox="0 0 512 512" width="512" xmlns="http://www.w3.org/2000/svg"><g><path d="m256 161.842 18.482-18.482c10.191-10.191 10.191-26.773 0-36.965-5.096-5.096-11.789-7.644-18.482-7.644s-13.387 2.548-18.482 7.644c-10.191 10.191-10.191 26.773 0 36.965z"/><path d="m482 424.58v-67.34h-211v-29.933c83.425-7.601 149-77.935 149-163.307 0-90.43-73.57-164-164-164s-164 73.57-164 164c0 85.372 65.575 155.706 149 163.307v29.933h-211v67.34c-17.459 6.192-30 22.865-30 42.42 0 24.813 20.187 45 45 45s45-20.187 45-45c0-19.555-12.541-36.228-30-42.42v-37.34h110.667v37.34c-17.459 6.192-30 22.865-30 42.42 0 24.813 20.187 45 45 45s45-20.187 45-45c0-19.555-12.541-36.228-30-42.42v-37.34h110.666v37.34c-17.459 6.192-30 22.865-30 42.42 0 24.813 20.187 45 45 45s45-20.187 45-45c0-19.555-12.541-36.228-30-42.42v-37.34h110.667v37.34c-17.459 6.192-30 22.865-30 42.42 0 24.813 20.187 45 45 45s45-20.187 45-45c0-19.555-12.541-36.228-30-42.42zm-297.812-190.926 50.6-50.6-18.482-18.482c-21.889-21.888-21.889-57.503 0-79.391 21.889-21.889 57.502-21.889 79.391 0 21.889 21.888 21.889 57.503 0 79.391l-18.482 18.482 50.6 50.6-21.215 21.213-50.6-50.6-50.6 50.6z"/></g></svg>