<svg id="Capa_1" enable-background="new 0 0 512 512" height="512" viewBox="0 0 512 512" width="512" xmlns="http://www.w3.org/2000/svg"><g id="Towel_2_"><path d="m452 346h-422c-16.569 0-30 13.431-30 30v15h437v30h-437v15c0 16.567 13.431 30 30 30h422c33.137 0 60-26.863 60-60 0-33.138-26.863-60-60-60z"/><path d="m75 271v-30h437v-15c0-16.569-13.431-30-30-30h-422c-33.137 0-60 26.862-60 60 0 33.137 26.863 60 60 60h422c16.569 0 30-13.433 30-30v-15z"/><path d="m452 46h-422c-16.569 0-30 13.431-30 30v15h437v30h-437v15c0 16.567 13.431 30 30 30h422c33.137 0 60-26.863 60-60 0-33.138-26.863-60-60-60z"/></g></svg>