<svg id="Capa_1" enable-background="new 0 0 511.667 511.667" height="512" viewBox="0 0 511.667 511.667" width="512" xmlns="http://www.w3.org/2000/svg"><g id="XMLID_152_"><path id="XMLID_153_" d="m211.833 157.5c0-30.879 25.122-56 56-56 2.074 0 4.12.122 6.136.343v-47.343h-44.136v-24.5h41.364v-30h-112.728v30h41.364v24.5h-44.136v192.5h118.271v-33.843c-2.016.221-4.062.343-6.136.343-30.877 0-55.999-25.121-55.999-56z"/><path id="XMLID_155_" d="m179.189 277h71.289v52h-71.289z"/><path id="XMLID_156_" d="m323.087 363h-186.254v30h151.729c8.291-13.082 20.294-23.576 34.525-30z"/><path id="XMLID_157_" d="m355.607 356c16.221 0 31.314 4.902 43.893 13.29v-141.337c0-48.098-35.389-88.083-81.496-95.292 3.724 7.491 5.829 15.922 5.829 24.839 0 19.038-9.557 35.877-24.117 46h1.867c15.945 0 28.917 12.972 28.917 28.917v127.678c7.897-2.642 16.333-4.095 25.107-4.095z"/><circle id="XMLID_158_" cx="267.833" cy="157.5" r="26"/><path id="XMLID_194_" d="m404.889 433.333c-1.054-26.277-22.751-47.333-49.282-47.333-26.532 0-48.228 21.056-49.283 47.333h-196.657c-30.235 0-54.833 24.599-54.833 54.834v23.5h402v-78.334z"/></g></svg>