<svg id="Capa_1" enable-background="new 0 0 512 512" height="512" viewBox="0 0 512 512" width="512" xmlns="http://www.w3.org/2000/svg"><g id="XMLID_944_"><path id="XMLID_945_" d="m46.864 44.361c0-5.084.648-10.009 1.843-14.7h-25.062v30.093h23.219z"/><path id="XMLID_946_" d="m464.865 59.754h19.723v-30.093h-21.566c1.195 4.691 1.843 9.616 1.843 14.7z"/><path id="XMLID_947_" d="m357.192 44.35c-.005-14.636-10.576-26.542-23.57-26.542h-.349c-12.997 0-23.57 11.912-23.57 26.552v388.268c0 14.642 10.574 26.553 23.57 26.553h.349c12.993 0 23.565-11.906 23.57-26.543v-.011-388.266z"/><path id="XMLID_948_" d="m256.039 17.808h-.349c-12.997 0-23.57 11.912-23.57 26.552v388.268c0 14.642 10.574 26.553 23.57 26.553h.349c12.997 0 23.571-11.912 23.571-26.553v-388.267c0-14.641-10.574-26.553-23.571-26.553z"/><path id="XMLID_949_" d="m178.458 17.808h-.349c-12.997 0-23.57 11.912-23.57 26.552v388.268c0 14.642 10.574 26.553 23.57 26.553h.349c12.997 0 23.57-11.912 23.57-26.553v-388.267c0-14.641-10.574-26.553-23.57-26.553z"/><path id="XMLID_950_" d="m465.02 464.099v-40.811h22.851v-87.933h-53.097v-290.994c0-14.641-10.574-26.552-23.57-26.552h-.35c-12.996 0-23.57 11.912-23.57 26.552v388.268c0 14.642 10.574 26.553 23.57 26.553h.35c12.996 0 23.57-11.912 23.57-26.553l.154-.008v61.57h77.072v-30.093h-46.98z"/><path id="XMLID_951_" d="m100.876 17.808h-.349c-12.997 0-23.57 11.912-23.57 26.552v293.092h-52.995v87.932h22.851v38.715h-46.813v30.093h76.949l.007-61.562c0 14.642 10.574 26.553 23.57 26.553h.349c12.997 0 23.57-11.912 23.57-26.553v-388.269c.001-14.641-10.573-26.553-23.569-26.553z"/></g></svg>