<svg id="Capa_1" enable-background="new 0 0 512 512" height="512" viewBox="0 0 512 512" width="512" xmlns="http://www.w3.org/2000/svg"><g><circle cx="256" cy="256" r="23"/><path d="m471.867 256c24.172-16.098 40.133-43.592 40.133-74.749 0-41.493-33.758-75.251-75.251-75.251-33.717 0-62.326 22.291-71.865 52.909-6.061-24.062-27.839-41.877-53.783-41.877h-38.21v38.21c0 30.633 24.833 55.467 55.467 55.467l108.393.042v-30h-45.25c.27-24.722 20.464-44.75 45.248-44.75 24.951-.001 45.251 20.299 45.251 45.25 0 32.945-26.804 59.749-59.749 59.749h-115.426c1.407 4.759 2.175 9.791 2.175 15s-.768 10.241-2.175 15h115.426c32.945 0 59.749 26.804 59.749 59.749 0 24.951-20.3 45.251-45.251 45.251-24.784 0-44.979-20.028-45.248-44.75h45.25v-30l-108.393.011c-30.634 0-55.467 24.833-55.467 55.467v38.21h38.21c25.938 0 47.712-17.806 53.78-41.86 9.534 30.625 38.146 52.922 71.868 52.922 41.493 0 75.251-33.758 75.251-75.251 0-31.157-15.961-58.651-40.133-74.749z"/><path d="m183.642 301.261-108.393-.011v30h45.25c-.27 24.722-20.464 44.75-45.248 44.75-24.951 0-45.251-20.3-45.251-45.251 0-32.945 26.804-59.749 59.749-59.749h115.426c-1.407-4.759-2.175-9.791-2.175-15s.768-10.241 2.175-15h-115.426c-32.945 0-59.749-26.804-59.749-59.749 0-24.951 20.3-45.251 45.251-45.251 24.784 0 44.979 20.028 45.248 44.75h-45.25v30l108.393-.042c30.633 0 55.467-24.833 55.467-55.467v-38.21h-38.21c-25.944 0-47.722 17.814-53.783 41.877-9.539-30.617-38.148-52.908-71.865-52.908-41.493 0-75.251 33.758-75.251 75.251 0 31.157 15.961 58.651 40.133 74.749-24.172 16.098-40.133 43.592-40.133 74.749 0 41.493 33.758 75.251 75.251 75.251 33.722 0 62.334-22.297 71.869-52.923 6.067 24.054 27.841 41.86 53.78 41.86h38.21v-38.21c-.001-30.633-24.834-55.466-55.468-55.466z"/></g></svg>