<svg id="Capa_1" enable-background="new 0 0 509.785 509.785" height="512" viewBox="0 0 509.785 509.785" width="512" xmlns="http://www.w3.org/2000/svg"><g id="XMLID_2751_"><path id="XMLID_2753_" d="m164.892 419.505h180v90.279h-180z"/><path id="XMLID_2773_" d="m374.892 104.505h-45v-91.058c-48.594-17.928-101.406-17.93-150-.002v91.061h-45v30h240z"/><path id="XMLID_2777_" d="m179.892 134.506h150v.278h-150z"/><path id="XMLID_2853_" d="m329.892 164.785h-150v30c0 41.421 33.578 75 75 75 41.422 0 75-33.579 75-75zm-52.5 59.72h-45v-30h45z"/><path id="XMLID_2854_" d="m164.892 314.785h-5c-38.66 0-70 31.34-70 70v125h45v-.279-120h30z"/><path id="XMLID_2857_" d="m349.892 314.785h-5v74.721h30v120 .279h45v-125c0-38.661-31.339-70-70-70z"/><path id="XMLID_2864_" d="m209.892 289.639v25.146h-15v74.721h120v-74.721h-15v-25.146c-28.41 13.532-61.586 13.534-90 0z"/></g></svg>