<svg id="Capa_1" enable-background="new 0 0 512 512" height="512" viewBox="0 0 512 512" width="512" xmlns="http://www.w3.org/2000/svg"><g><g><path d="m289.453 104.938c10.33 0 18.734-8.404 18.734-18.734v-67.47c.001-10.33-8.404-18.734-18.734-18.734h-67.469c-10.33 0-18.734 8.404-18.734 18.734v67.469c0 10.33 8.404 18.734 18.734 18.734h67.469z"/><path d="m116.063 190.242v-109.039h57.187v-57.469h-95.922c-10.33 0-18.734 8.404-18.734 18.734v147.773h-39.478v30h137.548v-30h-40.601z"/><path d="m492.884 190.242h-40.039v-147.773c0-10.33-8.404-18.734-18.734-18.734h-95.923v57.469h57.188v109.039h-40.04v30h137.548z"/></g><g><path d="m289.453 396.695c10.33 0 18.734-8.404 18.734-18.734v-67.469c0-10.33-8.404-18.734-18.734-18.734h-67.469c-10.33 0-18.734 8.404-18.734 18.734v67.469c0 10.33 8.404 18.734 18.734 18.734z"/><path d="m116.063 482v-109.039h57.187v-57.469h-95.922c-10.33 0-18.734 8.404-18.734 18.734v147.774h-39.478v30h137.548v-30z"/><path d="m492.884 482h-40.039v-147.773c0-10.33-8.404-18.734-18.734-18.734h-95.923v57.469h57.188v109.038h-40.04v30h137.548z"/></g></g></svg>