<svg id="Capa_1" enable-background="new 0 0 510.003 510.003" height="512" viewBox="0 0 510.003 510.003" width="512" xmlns="http://www.w3.org/2000/svg"><g><path d="m285.002 420.003v-105h-60v105c0 33.084-26.916 60-60 60h-30v30h240v-30h-30c-33.084 0-60-26.916-60-60z"/><path d="m165.002 171.885c0 12.427 10.073 22.5 22.5 22.5 12.427 0 22.5-10.073 22.5-22.5v-51.882h37.5c12.427 0 22.5-10.074 22.5-22.5 0-12.427-10.073-22.5-22.5-22.5h-225c-12.427 0-22.5 10.073-22.5 22.5 0 12.426 10.073 22.5 22.5 22.5h142.5z"/><path d="m390.002 262.503v-7.5h-52.5c-28.949 0-52.5-23.552-52.5-52.5 0-28.949 23.551-52.5 52.5-52.5h117.828c-5.016-10.506-12.68-19.25-21.98-25.569 2.57-33.796-21.311-63.845-54.931-68.886-12.301-31.492-46.848-48.281-79.37-38.224-24.844-23.104-63.262-23.095-88.094 0-28.389-8.779-58.759 2.877-74.104 27.679h110.65c28.949 0 52.5 23.551 52.5 52.5 0 28.948-23.551 52.5-52.5 52.5h-7.5v21.882c0 28.948-23.551 52.499-52.5 52.499s-52.5-23.551-52.5-52.499v-21.882h-80.331c-9.096 19.055-8.498 41.533 2.377 60.315-16.992 29.346-8.451 66.823 19.607 85.884-2.571 33.797 21.311 63.845 54.93 68.887 10.28 26.318 36.094 42.411 63.418 41.033v-121.119h120v121.119c27.337 1.379 53.143-14.728 63.417-41.033 27.762-4.163 48.629-25.285 53.837-51.098-24.06-4.779-42.254-26.045-42.254-51.488z"/><path d="m487.502 180.003h-150c-12.427 0-22.5 10.073-22.5 22.5 0 12.426 10.073 22.5 22.5 22.5h82.5v37.5c0 12.426 10.073 22.5 22.5 22.5 12.427 0 22.5-10.074 22.5-22.5v-37.5h22.5c12.427 0 22.5-10.074 22.5-22.5 0-12.426-10.073-22.5-22.5-22.5z"/></g></svg>