<svg id="Capa_1" enable-background="new 0 0 512 512" height="512" viewBox="0 0 512 512" width="512" xmlns="http://www.w3.org/2000/svg"><g><path d="m449.56 0h-387.12v429.555h387.12zm-208.56 37.775h30v30h-30zm15 330.072c-62.804 0-113.898-51.095-113.898-113.898s51.094-113.898 113.898-113.898 113.898 51.094 113.898 113.897-51.094 113.899-113.898 113.899z"/><path d="m62.44 459.555h387.12v52.445h-387.12z"/></g><g><path d="m256 170.051c-46.262 0-83.898 37.637-83.898 83.897 0 46.262 37.636 83.898 83.898 83.898s83.898-37.637 83.898-83.898c0-46.26-37.636-83.897-83.898-83.897zm1.522 138.511c-7.354 0-13.316-5.962-13.316-13.316s5.962-13.316 13.316-13.316 13.316 5.962 13.316 13.316-5.961 13.316-13.316 13.316zm9.174-37.136h-18.347l-4.587-67.617h27.521z"/></g></svg>