<svg id="Capa_1" enable-background="new 0 0 512 512" height="512" viewBox="0 0 512 512" width="512" xmlns="http://www.w3.org/2000/svg"><g><path d="m151 100h90c16.568 0 30-13.431 30-30 0-7.731-2.926-14.777-7.729-20.096.003 0-30.147-33.397-30.147-33.397-9.155-10.135-22.395-16.507-37.124-16.507-14.73 0-27.969 6.372-37.12 16.506-.005 0-30.155 33.397-30.155 33.397-4.799 5.32-7.725 12.366-7.725 20.097 0 16.569 13.432 30 30 30z"/><path d="m390.938 220c-24.813 0-45 20.187-45 45v247h30v-247c0-8.271 6.729-15 15-15s15 6.729 15 15v15h30v-15c0-24.813-20.187-45-45-45z"/><path d="m263.469 131.1h-134.938c-28.932 0-52.469 23.537-52.469 52.469v150.021h37.469v-150.021h30v328.431h37.469v-193.411h30v193.411h37.469v-328.431h30v150.021h37.469v-150.021c0-28.932-23.538-52.469-52.469-52.469z"/></g></svg>