<?xml version="1.0" encoding="iso-8859-1"?>
<!-- Generator: Adobe Illustrator 19.0.0, SVG Export Plug-In . SVG Version: 6.00 Build 0)  -->
<svg xmlns="http://www.w3.org/2000/svg" xmlns:xlink="http://www.w3.org/1999/xlink" version="1.1" id="Layer_1" x="0px" y="0px" viewBox="0 0 512 512" style="enable-background:new 0 0 512 512;" xml:space="preserve">
<g>
	<g>
		<path d="M361.827,65.936V39.252h-53.684C301.62,16.61,280.713,0,256,0s-45.62,16.61-52.143,39.252h-53.684v26.684H70.499V512    h371.001V65.936H361.827z M328.552,458.21v-59.159h59.16L328.552,458.21z M396.499,369.051h-97.948v97.948h-183.05V110.938h34.672    v30.001h211.654v-30.001h34.672V369.051z"/>
	</g>
</g>
<g>
	<g>
		<polygon points="325.063,181.234 325.063,155.566 295.062,155.566 295.062,181.234 269.394,181.234 269.394,211.235     295.062,211.235 295.062,236.903 325.063,236.903 325.063,211.235 350.731,211.235 350.731,181.234   "/>
	</g>
</g>
<g>
	<g>
		<rect x="161.268" y="181.229" width="90.914" height="30.001"/>
	</g>
</g>
<g>
	<g>
		<rect x="161.268" y="227.601" width="90.914" height="30.001"/>
	</g>
</g>
<g>
	<g>
		<rect x="161.268" y="273.963" width="189.459" height="30.001"/>
	</g>
</g>
<g>
	<g>
		<rect x="161.268" y="320.335" width="189.459" height="30.001"/>
	</g>
</g>
<g>
	<g>
		<rect x="161.268" y="366.697" width="121.516" height="30.001"/>
	</g>
</g>
<g>
</g>
<g>
</g>
<g>
</g>
<g>
</g>
<g>
</g>
<g>
</g>
<g>
</g>
<g>
</g>
<g>
</g>
<g>
</g>
<g>
</g>
<g>
</g>
<g>
</g>
<g>
</g>
<g>
</g>
</svg>
