<svg id="Capa_1" enable-background="new 0 0 512 512" height="512" viewBox="0 0 512 512" width="512" xmlns="http://www.w3.org/2000/svg"><g><path d="m358.71 30v64.29h-205.42v-64.29h68.39c6.332-15.688 15.03-30 34.32-30 19.045 0 27.978 14.444 34.33 30z"/><path d="m216.54 249.35c-13.51 4.62-22.35 16.29-22.35 29.99 0 13.09 9.03 24.7 22.36 29.28 12.84-4.41 22.53-16.12 22.36-29.99 0-13.09-9.03-24.7-22.37-29.28zm-84.96-125.06v309.39h248.84v-309.39zm137.33 64.58c0 17.5-7.78 33.58-20.58 44.88 12.99 11.47 20.79 28.2 20.58 45.59 0 17.5-7.78 33.57-20.58 44.88 12.8 11.3 20.58 27.38 20.58 44.88v23.64h-30v-23.64c0-13.09-9.03-24.7-22.36-29.28-13.33 4.58-22.36 16.19-22.36 29.28v23.64h-30v-23.64c0-17.5 7.77-33.58 20.57-44.88-12.8-11.31-20.57-27.38-20.57-44.88 0-17.79 7.8-34.1 20.63-45.53-12.83-11.31-20.63-27.41-20.63-44.94v-23.64h30v23.64c0 13.09 9.03 24.7 22.36 29.28 13.33-4.58 22.36-16.19 22.36-29.28v-23.64h30zm78.9 203.87h-37v-37h37zm0-95.61h-37v-37h37zm0-94.9h-37v-37h37z"/><path d="m461.43 30v482h-410.86v-482h72.72v49.29h-21.71v384.39h308.84v-384.39h-21.71v-49.29z"/></g></svg>