<svg id="Capa_1" enable-background="new 0 0 512 512" height="512" viewBox="0 0 512 512" width="512" xmlns="http://www.w3.org/2000/svg"><g><path d="m393.005 242.36c5.16 10.61 8.94 21.89 11.22 33.57l80.39 50.99c7.47-22.7 11.34-46.61 11.34-70.73 0-33.51-7.24-65.93-21.18-95.6z"/><path d="m44.434 459.77h450v52.23h-450z"/><path d="m178.975 199.03c25.05-21.97 57.18-34.07 90.46-34.07 34.75 0 67.93 13.05 93.42 36.74 4.95 4.6 9.52 9.51 13.68 14.7l104.75-104.75-7.92-10.43c-23.38-30.76-53.91-56.23-88.28-73.66-36.05-18.29-74.96-27.56-115.65-27.56-68.38 0-132.67 26.63-181.02 74.98s-74.98 112.64-74.98 181.02c0 .43 0 .86.01 1.29h126.24c7.76-22.31 21.24-42.43 39.29-58.26z"/><path d="m269.434 318.596c8.99 0 16.305-7.314 16.305-16.306s-7.314-16.307-16.305-16.307-16.306 7.315-16.306 16.307 7.315 16.306 16.306 16.306z"/><path d="m457.565 429.77c12.95-14.01 24.28-29.42 33.83-46.02l7.17-12.46-122.13-77.46c-4.33-55.24-50.67-98.87-107-98.87-54.09 0-98.97 40.22-106.28 92.33h-148.48l3.47 17.86c9.01 46.42 31.14 89.83 63.19 124.62zm-188.131-173.787c25.532 0 46.305 20.773 46.305 46.307s-20.772 46.306-46.305 46.306-46.306-20.772-46.306-46.306 20.773-46.307 46.306-46.307zm-103.739 106.235h30v30h-30zm-60 0h30v30h-30z"/></g></svg>