<svg id="Capa_1" enable-background="new 0 0 512 512" height="512" viewBox="0 0 512 512" width="512" xmlns="http://www.w3.org/2000/svg"><g><g><path d="m60 30.052c-13.694-18.234-35.492-30.052-60-30.052v30c24.813 0 45 20.187 45 45h30c0-24.813 20.187-45 45-45v-30c-24.508 0-46.306 11.818-60 30.052z"/><path d="m452 30.052c-13.694-18.234-35.492-30.052-60-30.052v30c24.813 0 45 20.187 45 45h30c0-24.813 20.187-45 45-45v-30c-24.508 0-46.306 11.818-60 30.052z"/></g><g><g><path d="m256 106.209 67.532-16.887-12.408-63.278h-110.248l-12.408 63.278z"/></g><g><path d="m81.393 155.158-16.225-36.906h-65.168v36.906z"/></g><g><path d="m182.687 118.8-63.873 325.731h274.371l-63.873-325.731-58.312 14.582v208.193h-30v-208.193zm88.313 256.521v33.734h-30v-33.734z"/></g><g><path d="m88.244 444.531 37.127-189.339-30.789-70.034h-94.582v259.373z"/></g><g><path d="m0 474.531h512v37.469h-512z"/></g><g><path d="m512 155.158v-36.906h-65.168l-16.225 36.906z"/></g><g><path d="m417.418 185.158-30.789 70.034 37.127 189.339h88.244v-259.373z"/></g></g></g></svg>