<svg id="Capa_1" enable-background="new 0 0 509.207 509.207" height="512" viewBox="0 0 509.207 509.207" width="512" xmlns="http://www.w3.org/2000/svg"><g id="XMLID_110_"><path id="XMLID_118_" d="m254.604 0c-90.981 0-165 74.019-165 165 0 73.864 49.138 138.67 120 158.775v51.225h-60.954l105.953 134.207 105.954-134.207h-60.953v-51.225c70.772-20.08 120-84.819 120-158.775-.001-90.981-74.019-165-165-165zm0 270c-57.897 0-105-47.104-105-105s47.103-105 105-105c57.898 0 105 47.104 105 105-.001 57.896-47.103 105-105 105z"/><path id="XMLID_111_" d="m254.604 90c-41.355 0-75 33.645-75 75s33.645 75 75 75 75-33.645 75-75c-.001-41.355-33.645-75-75-75zm44.999 90h-30v30h-30v-30h-30v-30h30v-30h30v30h30z"/></g></svg>