<svg id="Capa_1" enable-background="new 0 0 512 512" height="512" viewBox="0 0 512 512" width="512" xmlns="http://www.w3.org/2000/svg"><g><path d="m376.47 0v171.9h-30v-92.19h-52.16v73.21h-121.43v-73.21h-56.43v-23.28c0-30.45 25.98-56.43 56.43-56.43z"/><path d="m338.634 257.156c-17.008-22.119-29.776-47.274-37.674-74.236h-139.1c-24.44 70.97-38.16 144.63-38.16 220.18 0 36.13 2.97 72.98 8.94 108.9h248.74c4.964-17.05 8.825-34.788 11.465-52.864 10.493-71.843-9.954-144.422-54.211-201.98zm-81.744 177.564c-41.46 0-75.19-33.73-75.19-75.19 0-41.47 33.73-75.2 75.19-75.2s75.2 33.73 75.2 75.2c0 41.46-33.74 75.19-75.2 75.19z"/><path d="m302.09 359.53c0 24.91-20.28 45.19-45.2 45.19s-45.19-20.28-45.19-45.19c0-24.92 20.27-45.2 45.19-45.2s45.2 20.28 45.2 45.2z"/></g></svg>