<svg id="Capa_1" enable-background="new 0 0 511.961 511.961" height="512" viewBox="0 0 511.961 511.961" width="512" xmlns="http://www.w3.org/2000/svg"><g><path d="m404.431 22.395c-90.545 33.286-165.936 107.104-201.6 196.26 16.464-.284 32.859 2.267 48.31 7.43 44.704-101.759 149.404-173.852 260.82-178.07v-47.38c-36.95 1.56-73.05 8.86-107.53 21.76z"/><path d="m434.501 93.735c-68.663 24.377-126.527 78.397-156.04 144.73 14.321 8.316 27.302 19.334 37.9 32.02 12.186-32.328 31.868-61.713 57.8-85.7l25.63-20.48c33.14-22.75 71.75-36.18 112.17-38.85v-47.4c-26.493 1.428-52.551 6.688-77.46 15.68z"/><path d="m510.031 155.685c-82.065 6.227-154.117 68.442-172.65 148.27 1.29 2.85 2.453 5.764 3.59 8.68 1.3 3.44 2.46 6.92 3.48 10.45 12.52 1.51 24.55 5.13 35.67 10.69 7.56-68.93 62.74-123.74 131.84-130.74v-47.51c-.64.05-1.29.1-1.93.16z"/><path d="m394.231 383.315c-14.669-19.086-37.612-30.775-61.91-31.01 0 0-12.07-.17-12.07-.17-.882-4.397-2.715-13.612-3.8-17.76-12.46-49.627-59.986-86.248-111.12-85.74-53.23-.295-101.828 38.314-112.5 91.68 0 0-2.41 11.82-2.41 11.82l-12.07.17c-21 .29-40.7 8.69-55.47 23.65-49.384 49.628-13.473 135.537 56.611 135.37-.001 0 251.689 0 251.689 0 65.435.316 103.22-76.495 63.05-128.01z"/></g></svg>