<svg id="Capa_1" enable-background="new 0 0 512 512" height="512" viewBox="0 0 512 512" width="512" xmlns="http://www.w3.org/2000/svg"><g><path d="m426.82 72.146-17.474-11.648v-8.028c0-28.933-23.537-52.47-52.469-52.47s-52.469 23.537-52.469 52.469v15h-96.816v-15c0-28.932-23.538-52.469-52.469-52.469s-52.469 23.537-52.469 52.469v8.028l-17.475 11.649c-10.164 6.78-18.573 16.046-24.315 26.794-5.768 10.768-8.812 22.903-8.812 35.11 0 27.229 14.848 52.246 38.75 65.288l58.601 31.995 16.721 212.872h179.753l16.721-212.872 58.597-31.993c11.724-6.395 21.521-15.844 28.339-27.327 6.812-11.483 10.414-24.612 10.414-37.963 0-24.934-12.385-48.075-33.128-61.904zm-286.697-4.969v-30h30v30zm97.143 324.762h-30v-30h30zm67.468 0h-30v-30h30zm8.491-167.22c-36.903-15.286-77.548-15.284-114.449 0l-11.48-27.717c44.304-18.352 93.104-18.352 137.41 0zm25.82-62.333c-26.463-10.962-54.404-16.52-83.045-16.52s-56.582 5.558-83.045 16.52l-11.48-27.717c30.122-12.477 61.924-18.803 94.526-18.803s64.404 6.326 94.526 18.803zm32.832-95.209h-30v-30h30z"/><path d="m191.763 484.346c1.225 15.611 14.25 27.654 29.908 27.654h68.657c15.659 0 28.683-12.043 29.908-27.654l.796-10.141h-130.064z"/></g></svg>