<svg id="Capa_1" enable-background="new 0 0 513 513" height="512" viewBox="0 0 513 513" width="512" xmlns="http://www.w3.org/2000/svg"><g><path d="m428 42.241h-131v90h131zm-39 60h-53v-30h53z"/><path d="m297 162.241h131v30h-131z"/><path d="m498 399.241c-23.65 0-36.01 6.15-46.93 11.57-9.48 4.71-16.97 8.43-33.57 8.43-15.38 0-22.94-3.19-31.5-7.4v-55.6h102v-30c-17.022 0-43.175 0-60 0v-104c-73.954 0-184.616 0-258 0v104c-16.753 0-43.057 0-60 0v30h96v47.3c-26.203-8.483-57.884-3.851-76.93 7.271-9.48 4.709-16.97 8.429-33.57 8.429-35.896-.137-36.97-20.217-80.5-19.999 0-.001-15-.001-15-.001v111h513v-111zm-154-142h30v30h-30zm-30 0v30h-30v-30zm-90 0h30v30h-30zm132 99v44.56c-25.891-4.585-49.937.951-65.93 10.011-9.48 4.709-16.97 8.429-33.58 8.429-8.87 0-15.14-1.06-20.49-2.77v-60.23z"/><path d="m67 152.241c8.271 0 15 6.729 15 15h30c0-19.555-12.541-36.228-30-42.42v-74.49l141.91 141.91h43.09v-41.76l-130.16-130.16c-23.377-23.45-61.537-23.378-84.84-.01l-.01.01.01.01v104.49c-17.459 6.192-30 22.865-30 42.42h30c0-8.272 6.729-15 15-15z"/></g></svg>