<svg id="Capa_1" enable-background="new 0 0 512 512" height="512" viewBox="0 0 512 512" width="512" xmlns="http://www.w3.org/2000/svg"><g id="Doctor_1_"><g><circle cx="256" cy="107" r="15"/><path d="m346 122h-47.763c-6.213 17.422-22.707 30-42.237 30s-36.024-12.578-42.237-30h-47.763v60h180z"/><path d="m213.763 92c6.213-17.422 22.707-30 42.237-30s36.024 12.578 42.237 30h47.763v-92h-180v92z"/><path d="m171.852 212c13.46 37.607 46.67 60 84.148 60 37.493 0 70.7-22.406 84.152-60z"/></g><g><path d="m271 457.083 72.07-82.383-27.253-54.525-44.817 119.52z"/><path d="m241 439.695-44.822-119.509-27.248 54.514 72.07 82.374z"/><path d="m378.93 379.3-102.999 117.698 13.127 15.002h86.942v-75h30v75h94.57l-36.592-135.615c-5.654-20.903-21.504-36.753-42.393-42.378l-75.487-20.369z"/><path d="m106 437h30v75h86.957l13.123-15-103.01-117.7 32.831-65.662-75.487 20.369c-20.889 5.625-36.738 21.475-42.393 42.378l-36.591 135.615h94.57z"/><path d="m255.998 394.305 36.901-98.41c-11.984 3.877-24.389 6.105-36.899 6.105-12.53 0-24.946-2.23-36.905-6.092z"/></g></g></svg>