<svg id="Capa_1" enable-background="new 0 0 511.98 511.98" height="512" viewBox="0 0 511.98 511.98" width="512" xmlns="http://www.w3.org/2000/svg"><path d="m479.48 104.105c-17.95 0-32.5 14.55-32.5 32.5v.02.034l-.02-.034v-55.36l-72.06-41.6-72.06 41.6v49.137c-.124-11.138-4.411-22.239-12.88-30.757-17.609-17.685-46.009-16.856-62.75-.08l-121.07 121.06-52.09 85.76-54.05 54.05 111.88 111.88 54.05-54.05 97.76-39.75h91.67l156.61-112s0-77.06.01-129.91c.01-17.95-14.55-32.5-32.5-32.5zm-119.58 3.77h30v29.99h-30zm-4.37 178.8-91.84.17-33.02-33.03 6.79-39.17 52.41-52.41c8.513-8.509 12.831-19.622 12.97-30.779v33.019l72.06 41.6 72.06-41.6.035-.067.035 62.457z"/></svg>