<svg id="Capa_1" enable-background="new 0 0 512 512" height="512" viewBox="0 0 512 512" width="512" xmlns="http://www.w3.org/2000/svg"><g id="XMLID_90_"><path id="XMLID_501_" d="m360.056 221.001 4.479-29.664 41.66 6.29c-14.894-60.104-69.288-104.793-133.931-104.793-53.459 0-101.455 30.433-124.377 78.18 10.105 16.742 15.596 37.624 15.596 59.794s-5.491 43.052-15.596 59.794c22.923 47.747 70.918 78.18 124.377 78.18 24.864 0 48.212-6.614 68.381-18.171l-22.79-30.391-54.044-14.174-41.488 2.375-1.715-29.951 29.523-1.69-.374-27.962 29.997-.4.413 30.904 31.55 8.274v-39.763h30v54.205l23.192 30.927c27.828-25.26 45.329-61.702 45.329-102.156 0-.747-.016-1.49-.028-2.234zm-55.819-53.481c-10.099-5.666-21.603-8.661-33.269-8.661-24.274 0-46.9 13.078-59.049 34.132l-25.984-14.994c17.49-30.31 50.073-49.138 85.034-49.138 16.795 0 33.375 4.321 47.948 12.497z"/><path id="XMLID_507_" d="m512 440.792c-23.55 0-42.642-19.091-42.642-42.642v-48.83c20.876-34.604 32.893-75.154 32.893-118.513 0-126.723-101.652-229.011-228.373-229.762-83.911-.497-157.467 43.99-197.971 110.756-15.046 24.802-33.097 47.62-54.03 67.704-13.483 12.938-21.877 31.139-21.877 51.302 0 19.852 8.137 37.803 21.258 50.7 20.725 20.371 39.292 42.821 54.29 67.712 40.204 66.726 113.357 111.354 196.937 111.354 47.716 0 92.032-14.548 128.762-39.447 7.291 50.793 50.976 89.833 103.786 89.833h6.967zm-420.255-179.287h-30v-61.396h30zm180.518 137.275c-33.912 0-66.594-10.062-94.512-29.1-27.237-18.572-48.262-44.445-60.803-74.822l-3.256-7.889 5.118-6.83c9.324-12.442 14.671-30.424 14.671-49.333 0-18.91-5.348-36.891-14.671-49.331l-5.119-6.83 3.257-7.89c12.54-30.377 33.565-56.251 60.802-74.823 27.918-19.037 60.6-29.1 94.512-29.1 92.621 0 167.974 75.353 167.974 167.974s-75.352 167.974-167.973 167.974z"/></g></svg>