<svg id="Capa_1" enable-background="new 0 0 511.769 511.769" height="512" viewBox="0 0 511.769 511.769" width="512" xmlns="http://www.w3.org/2000/svg"><g><path d="m511.765 158.233s-95.955-138.6-95.955-138.6l-72.064-15.793c-4.036 21.794-14.723 40.097-31.109 53.146-11.879 9.458-26.336 15.687-41.752 18.151v229.718h129.929v-112.944h30v63.973h80.952z"/><path d="m80.962 191.911h30v112.943h129.922v-229.718c-15.416-2.464-29.874-8.693-41.752-18.151-16.387-13.048-27.074-31.351-31.109-53.146l-72.064 15.794-95.955 138.6v97.651h80.959v-63.973z"/><path d="m313.92 0h-116.071c7.061 34.066 35.209 46.334 58.036 46.334s50.974-12.268 58.035-46.334z"/><path d="m110.962 334.854h129.922v176.914h-129.922z"/><path d="m270.884 511.769h129.929v-176.915h-65.959c-.254 18.372 13.451 34.292 32.457 34.292v30c-11.879 0-22.992-3.336-32.457-9.116v25.78h-30v-80.956h-33.97z"/></g></svg>