<svg id="Capa_1" enable-background="new 0 0 512 512" height="512" viewBox="0 0 512 512" width="512" xmlns="http://www.w3.org/2000/svg"><g><path d="m288 294.333c21.137 0 38.333-17.196 38.333-38.333s-17.196-38.333-38.333-38.333h-64c-21.137 0-38.333 17.196-38.333 38.333s17.196 38.333 38.333 38.333z"/><path d="m469.333 185.667v-30h42.667v-74.667h-139.376c31.141 18.601 52.043 52.64 52.043 91.474v167.052c0 38.835-20.902 72.874-52.043 91.474h139.376v-74.667h-42.667v-30h42.667v-55.333h-42.667v-30h42.667v-55.333z"/><path d="m394.667 339.526v-167.052c0-42.235-34.239-76.474-76.474-76.474h-124.386c-42.235 0-76.474 34.239-76.474 76.474v167.052c0 42.235 34.239 76.474 76.474 76.474h124.385c42.236 0 76.475-34.239 76.475-76.474zm-239-83.526c0-37.679 30.654-68.333 68.333-68.333h64c37.679 0 68.333 30.654 68.333 68.333s-30.654 68.333-68.333 68.333h-64c-37.679 0-68.333-30.654-68.333-68.333z"/><path d="m87.333 339.526v-167.052c0-38.835 20.902-72.873 52.043-91.474h-139.376v74.667h42.667v30h-42.667v55.333h42.667v30h-42.667v55.333h42.667v30h-42.667v74.667h139.376c-31.141-18.601-52.043-52.64-52.043-91.474z"/></g></svg>