<svg id="Capa_1" enable-background="new 0 0 512.002 512.002" height="512" viewBox="0 0 512.002 512.002" width="512" xmlns="http://www.w3.org/2000/svg"><g><path d="m279.86 110.522 6.314 8.383h-60.348l6.314-8.383-23.964-18.049-31.204 41.432 31.203 41.431 23.964-18.048-6.314-8.383h60.35l-6.314 8.383 23.964 18.048 31.203-41.431-31.204-41.432z"/><path d="m98.184 124.266c19.201-6.7 32.983-24.957 32.983-46.442 0-27.166-22.022-49.188-49.188-49.188s-49.187 22.022-49.187 49.188c0 21.486 13.782 39.743 32.983 46.442-37.514 7.523-65.775 40.643-65.775 80.37v59.769h163.958v-59.769c0-39.727-28.261-72.847-65.774-80.37z"/><path d="m20.75 483.365h46.229v-146.406h30v146.406h46.229l4.182-188.96h-130.822z"/><path d="m368.793 483.365h46.229v-146.406h30v146.406h46.23l4.181-188.96h-130.822z"/><path d="m446.227 124.266c19.201-6.7 32.983-24.957 32.983-46.442 0-27.166-22.022-49.188-49.188-49.188s-49.188 22.022-49.188 49.188c0 21.486 13.782 39.743 32.983 46.442-37.513 7.522-65.775 40.643-65.775 80.37v59.769h163.958v-59.769c.002-39.727-28.26-72.847-65.773-80.37z"/></g></svg>