<svg id="Capa_1" enable-background="new 0 0 512 512" height="512" viewBox="0 0 512 512" width="512" xmlns="http://www.w3.org/2000/svg"><g><path d="m245.056 103.438 10.944 10.291 10.944-10.29c7.337-6.899 4.847-15.159 3.909-17.526s-4.781-10.091-14.853-10.091-13.916 7.724-14.854 10.091-3.428 10.627 3.91 17.525z"/><path d="m256 200.165c51.28 0 93-41.72 93-93s-41.72-93-93-93-93 41.72-93 93 41.72 93 93 93zm-42.744-125.304c6.991-17.641 23.769-29.039 42.744-29.039s35.753 11.398 42.744 29.039c6.99 17.641 2.575 37.437-11.25 50.435l-9.596 9.022 15.881 14.932-20.55 21.855-17.229-16.198-17.229 16.198-20.55-21.855 15.881-14.932-9.596-9.023c-13.824-12.997-18.24-32.793-11.25-50.434z"/><path d="m438.461 330.135c27.341-5.476 47.939-29.617 47.939-58.57 0-32.99-26.74-59.73-59.73-59.73s-59.74 26.74-59.74 59.73c0 28.953 20.605 53.094 47.948 58.57-41.547 5.745-73.548 41.373-73.548 84.5v64c0-43.127-31.993-78.755-73.538-84.5 27.341-5.477 47.938-29.617 47.938-58.57 0-32.99-26.74-59.73-59.73-59.73s-59.73 26.74-59.73 59.73c0 28.953 20.597 53.094 47.938 58.57-41.545 5.745-73.538 41.373-73.538 84.5v-64c0-43.126-32.001-78.754-73.539-84.5 27.341-5.476 47.939-29.617 47.939-58.57 0-32.99-26.74-59.73-59.73-59.73s-59.74 26.74-59.74 59.73c0 28.953 20.605 53.094 47.948 58.57-41.547 5.745-73.548 41.373-73.548 84.5v83.2h170.67 170.66 170.67v-83.2c0-43.126-32.001-78.754-73.539-84.5z"/></g></svg>