<svg id="Capa_1" enable-background="new 0 0 512 512" height="512" viewBox="0 0 512 512" width="512" xmlns="http://www.w3.org/2000/svg"><g><path d="m0 287.443h37.469v157.226h-37.469z"/><path d="m256 407.583c-69.446 0-126.816-52.657-134.303-120.14h-54.228v157.226h30v29.603h30v-29.603h257.062v29.603h30v-29.603h30v-157.226h-54.229c-7.486 67.483-64.856 120.14-134.302 120.14z"/><path d="m459.531 100.217h-87.328v-13.753c0-26.873-21.862-48.735-48.734-48.735h-134.938c-26.872 0-48.734 21.862-48.734 48.735v13.753h-87.328c-28.932 0-52.469 23.537-52.469 52.469v104.758h121.697c7.487-67.483 64.857-120.14 134.303-120.14s126.816 52.657 134.303 120.14h121.697v-104.758c0-28.932-23.537-52.469-52.469-52.469zm-289.734 0v-13.753c0-10.331 8.404-18.735 18.734-18.735h134.938c10.33 0 18.734 8.404 18.734 18.735v13.753z"/><path d="m256 377.583c57.974 0 105.14-47.165 105.14-105.14s-47.166-105.139-105.14-105.139-105.14 47.165-105.14 105.14 47.166 105.139 105.14 105.139zm-67.406-120.14h52.469v-52.469h30v52.469h52.469v30h-52.469v52.469h-30v-52.469h-52.469z"/><path d="m474.531 287.443h37.469v157.226h-37.469z"/></g></svg>