<svg id="Capa_1" enable-background="new 0 0 512 512" height="512" viewBox="0 0 512 512" width="512" xmlns="http://www.w3.org/2000/svg"><g><path d="m122.944 482c0 16.569 13.431 30 30 30h1.867c16.568 0 30-13.431 30-30v-21.867h-61.867z"/><path d="m327.189 482c0 16.569 13.431 30 30 30h1.867c16.568 0 30-13.431 30-30v-21.867h-61.867z"/><path d="m359.056 142.548h-26.189v245.718h-30v-245.718h-31.867v245.718h-30v-245.718h-31.867v245.718h-30v-245.718h-26.189c-16.569 0-30 13.431-30 30v257.585h266.112v-257.585c0-16.569-13.432-30-30-30z"/><path d="m188.935 112.548h30v-82.548h74.13v82.548h30v-82.548h15.768v-30h-165.666v30h15.768z"/></g></svg>