<svg id="Capa_1" enable-background="new 0 0 512 512" height="512" viewBox="0 0 512 512" width="512" xmlns="http://www.w3.org/2000/svg"><g><path d="m221.066 59.786 25.217 131.049 42.266-1.881-27.323-139.839c-14.181 3.211-27.559 6.803-40.16 10.671z"/><path d="m0 231.827v47.135h78.815c33.15-23.476 70.089-41.653 108.221-55.46z"/><path d="m261.226 233.038c-14.181 3.212-27.559 6.803-40.159 10.672l25.217 131.049 42.266-1.881z"/><path d="m192.389 69.521c-82.84 30.927-125.404 72.266-136.909 84.719l.005 45.088 160.507-7.144z"/><path d="m192.389 253.445c-82.84 30.927-125.404 72.265-136.909 84.718l.005 45.089 160.507-7.144z"/><path d="m0 415.751v47.134h512v-69.923z"/><path d="m300.766 278.962h211.234v-69.924l-222.957 9.924z"/></g></svg>