<svg id="Capa_1" enable-background="new 0 0 510 510" height="512" viewBox="0 0 510 510" width="512" xmlns="http://www.w3.org/2000/svg"><g id="XMLID_503_"><path id="XMLID_513_" d="m179.927 199.049 145.841 66.291 38.856-38.857-106.065-106.066z"/><path id="XMLID_512_" d="m465 270s-45 50.147-45 75 20.147 45 45 45c24.852 0 45-20.147 45-45s-45-75-45-75z"/><path id="XMLID_511_" d="m460.084 46.171-21.215-21.212-95.454 95.463-21.139-21.141-21.37 21.058 63.718 63.718 21.213-21.213-21.209-21.209z"/><path id="XMLID_509_" d="m67.639 311.336-21.213-21.213-21.213 21.213c9.518 9.557 51.722 51.934 63.51 63.77l-35.69 35.689-31.82-31.819-21.213 21.213 84.853 84.852 21.213-21.213-31.82-31.82 35.69-35.69c6.411 6.385 46.262 46.074 63.769 63.51l21.213-21.213-21.213-21.213 21.213-21.214-42.426-42.426 21.213-21.213 42.426 42.426 21.214-21.214-42.426-42.426 21.213-21.213 42.426 42.426 44.555-44.554-145.841-66.292z"/><path id="XMLID_508_" d="m479.606 95.436h30v30h-30z"/><path id="XMLID_507_" d="m434.606 155.436h30v30h-30z"/></g></svg>