<svg id="Capa_1" enable-background="new 0 0 510 510" height="512" viewBox="0 0 510 510" width="512" xmlns="http://www.w3.org/2000/svg"><g><path d="m450.407 82.893c-28.753 0-53.396 20.482-58.595 48.701-.622 3.375-1.08 6.93-1.393 10.627l-102.216-34.072c-5.931-1.977-12.032-3.385-18.204-4.267v323.226c20.512-2.859 39.917-11.53 55.789-25.135 28.538-24.463 59.354-46.672 91.591-66.016 8.236-4.941 38.978-35.568 45.755-42.604 42.008-43.613 46.866-63.955 46.866-75.462v-75.405c0-32.86-26.733-59.593-59.593-59.593zm-90.407 210h-30v-30h30zm120-75.002c0 2.248-1.576 14.352-30 45.603v-52.985c0-22.941-11.587-43.771-30.057-55.998-.04-6.436.419-12.306 1.373-17.48 2.576-13.986 14.811-24.137 29.091-24.137 16.317 0 29.593 13.275 29.593 29.593z"/><path d="m119.58 142.221c-.312-3.696-.771-7.251-1.393-10.627-5.199-28.219-29.841-48.701-58.595-48.701-32.859 0-59.592 26.733-59.592 59.592v75.405c0 11.508 4.858 31.85 46.865 75.463 6.76 7.018 37.522 37.664 45.755 42.604 32.237 19.344 63.052 41.553 91.591 66.016 15.873 13.604 35.277 22.274 55.789 25.135v-323.226c-6.172.882-12.273 2.29-18.204 4.267zm-89.58 75.67v-75.405c0-16.317 13.275-29.593 29.593-29.593 14.28 0 26.515 10.15 29.091 24.137.954 5.177 1.413 11.046 1.373 17.48-18.469 12.227-30.057 33.057-30.057 55.998v52.985c-28.422-31.248-30-43.351-30-45.602z"/></g></svg>