<svg id="Capa_1" enable-background="new 0 0 511.986 511.986" height="512" viewBox="0 0 511.986 511.986" width="512" xmlns="http://www.w3.org/2000/svg"><g><path d="m172.555 404.484 19.136 107.502 9.51-136.173c-.379-1.761-2.478-5.413-7.259-9.436-6.051-5.092-14.445-9.074-21.384-10.146l-16.934-2.615-6.351-15.914-13.121-32.876-27.229-22.538-12.056-9.979 1.286-15.597 2.844-34.499-15.604-30.876-6.839-13.532 6.839-13.532 15.604-30.874-2.844-34.5-1.286-15.597 12.056-9.979 27.229-22.538 8.036-20.134-35.788-10.271-29.1 31.494-39.026 17.704-4.6 42.807-24.517 35.328 14.974 40.399-8.355 42.243 29.057 31.782 8.155 42.305 39.286 17.484 26.138 47.747h.001c24.55-2.947 45.208 11.077 52.142 34.811z"/><path d="m161.177 286.597 15.958 39.986h.001c24.437 3.773 53.841 24.665 54.127 49.39l-9.498 136.012h68.457l-9.499-136.011c.285-24.725 29.69-45.617 54.127-49.39l15.959-39.987 33.126-27.419-3.54-42.939 19.424-38.432-19.424-38.434 3.54-42.938-33.126-27.418-15.958-39.986-42.352-6.54-36.506-22.491-36.505 22.491-42.352 6.539-15.959 39.987-33.126 27.419 3.54 42.939-19.424 38.432 19.424 38.434-3.54 42.938zm40.786-84.872c11.517 28.905 27.147 43.724 39.03 51.235v-67.276c-15.573-4.741-39.194-18.089-50.776-55.668l28.669-8.836c4.609 14.953 12.041 25.651 22.107 31.842v-77.161h30v50.022c10.066-6.205 17.506-16.9 22.107-31.827l28.669 8.836c-11.582 37.579-35.203 50.927-50.776 55.668v67.276c11.882-7.511 27.512-22.329 39.03-51.234l27.869 11.104c-19.305 48.45-49.709 66.791-66.899 73.532v54.499h-30v-27.375c-17.19-6.741-47.594-25.082-66.899-73.531z"/><path d="m500.829 147.713-24.517-35.328-4.6-42.807-39.026-17.704-29.099-31.492-35.788 10.271 8.036 20.135 27.229 22.537 12.056 9.979-1.286 15.597-2.845 34.499 15.605 30.876 6.839 13.532-6.839 13.532-15.604 30.874 2.844 34.5 1.286 15.597-12.056 9.979-27.229 22.538-13.121 32.877-6.351 15.914-16.934 2.615c-6.939 1.072-15.333 5.054-21.384 10.145-4.781 4.023-6.88 7.675-7.259 9.436l9.51 136.172 19.136-107.502c6.934-23.734 27.592-37.758 52.142-34.81h.001l26.138-47.747 39.286-17.484 8.155-42.305 29.057-31.782-8.355-42.243z"/></g></svg>