<svg id="Capa_1" enable-background="new 0 0 512 512" height="512" viewBox="0 0 512 512" width="512" xmlns="http://www.w3.org/2000/svg"><g><path d="m166 195c-66.826 0-121 54.174-121 121s54.174 121 121 121 121-54.174 121-121-54.174-121-121-121zm28.905 149.209-41.574-17.221-20.091 48.504-27.716-11.48 31.572-76.221 41.574 17.221 20.091-48.504 27.716 11.48z"/><path d="m272.773 422.773c-13.858 13.858-30.003 24.741-47.988 32.348-18.635 7.882-38.413 11.879-58.785 11.879s-40.15-3.997-58.785-11.879c-17.985-7.607-34.13-18.49-47.988-32.348-12.064-12.064-21.871-25.862-29.227-41.097v130.324h272v-130.324c-7.356 15.235-17.163 29.033-29.227 41.097z"/><path d="m30 120v130.324c7.356-15.235 17.163-29.034 29.227-41.097 13.858-13.858 30.003-24.741 47.988-32.348 18.635-7.882 38.413-11.879 58.785-11.879s40.15 3.997 58.785 11.879c17.985 7.607 34.13 18.49 47.988 32.348 12.064 12.064 21.871 25.862 29.227 41.097v-130.324z"/><path d="m60 0h212v30h-212z"/><path d="m60 60h212v30h-212z"/><path d="m482 120v-60h-30v-60h-30v60h-30v-60h-30v60h-30v60z"/><path d="m333.492 150c2.169 10.724 6.677 20.828 13.344 29.77 9.92 13.303 15.164 28.944 15.164 45.23v15h30v272h30v-272h30v-15c0-16.286 5.244-31.927 15.164-45.23 6.667-8.942 11.174-19.046 13.344-29.77z"/></g></svg>