<svg id="Capa_1" enable-background="new 0 0 512 512" height="512" viewBox="0 0 512 512" width="512" xmlns="http://www.w3.org/2000/svg"><g><path d="m263.729 322.801-6.753-2.545-2.225-6.865c-1.423-4.392-3.199-8.68-5.278-12.746l-3.287-6.43 2.976-6.58c3.196-7.064 1.66-15.494-3.821-20.976-5.481-5.48-13.91-7.02-20.977-3.822l-6.58 2.977-6.43-3.288c-4.064-2.078-8.352-3.854-12.744-5.276l-6.866-2.225-2.546-6.753c-2.736-7.256-9.782-12.131-17.535-12.131s-14.799 4.875-17.535 12.131l-2.546 6.753-6.866 2.225c-4.391 1.423-8.679 3.198-12.745 5.276l-6.43 3.287-6.58-2.976c-7.063-3.194-15.494-1.66-20.976 3.822-5.481 5.481-7.018 13.911-3.822 20.976l2.976 6.58-3.287 6.43c-2.08 4.067-3.855 8.354-5.277 12.745l-2.225 6.865-6.753 2.546c-7.255 2.736-12.13 9.782-12.13 17.535s4.875 14.799 12.13 17.535l6.753 2.546 2.225 6.865c1.422 4.391 3.198 8.678 5.277 12.745l3.287 6.43-2.976 6.58c-3.196 7.065-1.66 15.495 3.822 20.977s13.911 7.018 20.976 3.821l6.58-2.977 6.431 3.288c4.065 2.078 8.354 3.854 12.747 5.278l6.864 2.225 2.546 6.752c2.735 7.255 9.782 12.13 17.535 12.13s14.799-4.875 17.535-12.13l2.545-6.752 6.864-2.225c4.394-1.425 8.683-3.201 12.746-5.278l6.431-3.288 6.58 2.977c7.066 3.195 15.495 1.659 20.976-3.821 5.481-5.481 7.017-13.911 3.821-20.977l-2.976-6.58 3.287-6.43c2.079-4.066 3.855-8.354 5.278-12.746l2.225-6.865 6.753-2.545c7.255-2.735 12.129-9.782 12.129-17.535s-4.874-14.8-12.129-17.535zm-102.366 7.234h-30v-30h30zm50.602 50.602h-30v-30h30z"/><path d="m447.585 171.74c-32.773-43.151-66.601-87.699-70.207-171.74h-242.756c-3.606 84.041-37.434 128.589-70.208 171.74-33.125 43.615-64.414 84.813-64.414 168.596 0 94.656 77.008 171.664 171.664 171.664 53.038 0 102.272-23.953 135.08-65.718l8.351-10.631 11.438 7.204c19.264 12.131 41.535 18.543 64.405 18.543 66.754 0 121.062-54.308 121.062-121.062 0-83.783-31.289-124.981-64.415-168.596zm-166.516 211.036c-.642 1.654-1.32 3.293-2.034 4.913 4.616 16.704-.001 35.058-12.481 47.537-12.479 12.48-30.833 17.1-47.537 12.48-1.62.714-3.259 1.393-4.913 2.034-8.547 15.076-24.791 24.79-42.44 24.79-17.65 0-33.893-9.714-42.44-24.79-1.654-.642-3.293-1.32-4.913-2.034-16.703 4.616-35.057 0-47.537-12.48-12.48-12.479-17.097-30.833-12.481-47.537-.714-1.62-1.393-3.259-2.034-4.914-15.077-8.547-24.79-24.79-24.79-42.439s9.713-33.893 24.79-42.439c.641-1.655 1.32-3.294 2.034-4.914-4.615-16.704.002-35.058 12.481-47.536 12.479-12.479 30.834-17.096 47.537-12.481 1.62-.714 3.259-1.393 4.914-2.034 8.547-15.076 24.79-24.79 42.44-24.79 17.649 0 33.892 9.714 42.44 24.79 1.654.642 3.293 1.32 4.914 2.034 16.702-4.615 35.056.002 47.537 12.481 12.479 12.479 17.096 30.832 12.481 47.536.714 1.62 1.393 3.259 2.034 4.913 15.076 8.547 24.79 24.79 24.79 42.44s-9.716 33.893-24.792 42.44z"/></g></svg>