<svg id="Capa_1" enable-background="new 0 0 510 510" height="512" viewBox="0 0 510 510" width="512" xmlns="http://www.w3.org/2000/svg"><g><path d="m480 30v-30h-90v30h30v45h30v-45z"/><path d="m360 75h60v60h-60z"/><path d="m450 75h60v60h-60z"/><path d="m390 363.541v71.459h30v75h30v-75h30v-71.459l24.27-48.54h-138.54z"/><path d="m360 285.001h150v-45.001h-60v-30h60v-45h-150z"/><path d="m255 465h45v45h-45z"/><path d="m0 465h45v45h-45z"/><path d="m227.739 315.492h-.003c.139.07-2.736-.492-2.736-.492l-15 .105v44.895c0 33.084-26.916 60-60 60s-60-26.916-60-60v-44.056l-15 .104c-43.519 6.692-75 44.095-75 87.452v31.5h75v75h150v-75h75v-31.5c0-42.64-30.391-80.232-72.261-88.008z"/><path d="m139.333 330c-6.624 0-13.091-.69-19.333-1.996v31.996c0 16.57 13.43 30 30 30s30-13.43 30-30v-31.996c-6.243 1.307-12.709 1.996-19.334 1.996z"/><path d="m225 235.666v-55.666h-150v55.666c0 35.474 28.86 64.334 64.333 64.334h21.333c35.474 0 64.334-28.86 64.334-64.334z"/><path d="m74 150h151v-31c0-32.585-26.415-59-59-59h-151v31c0 32.585 26.415 59 59 59z"/></g></svg>