<svg id="Capa_1" enable-background="new 0 0 512 512" height="512" viewBox="0 0 512 512" width="512" xmlns="http://www.w3.org/2000/svg"><g><path d="m200.725 136.088c4.202 25.21 3.001 50.552-3.398 74.787h117.346c-6.399-24.235-7.599-49.577-3.398-74.787l9.865-59.192c3.198-19.186-2.179-38.701-14.751-53.542-12.572-14.842-30.938-23.354-50.389-23.354s-37.817 8.512-50.389 23.354c-12.572 14.841-17.949 34.356-14.751 53.542z"/><path d="m355.646 301.25s-29.399-58.868-30.102-60.375h-139.088c-.703 1.507-30.102 60.375-30.102 60.375z"/><path d="m361.375 331.25h-210.75v60.25h35.419l-5.279 119.172 29.97 1.328 5.339-120.5h24.926v120.5h30v-120.5h24.926l5.339 120.5 29.97-1.328-5.279-119.172h35.419z"/></g></svg>