<svg id="Capa_1" enable-background="new 0 0 512 512" height="512" viewBox="0 0 512 512" width="512" xmlns="http://www.w3.org/2000/svg"><g><path d="m409.594 434.47c-20.277 0-330.848 0-342.31 0 22.18 45.84 69.17 77.53 123.41 77.53h130c54.24 0 101.23-31.69 123.41-77.53-8.585 0-25.911 0-34.51 0z"/><path d="m270.694 140h-30v46.25c5.72 5.62 10.77 11.91 15 18.76 4.23-6.85 9.28-13.14 15-18.76z"/><path d="m270.694 32.25v-32.25h-30v32.25c5.72 5.62 10.77 11.91 15 18.76 4.23-6.85 9.28-13.14 15-18.76z"/><path d="m347.234 193.77v-6.31c-44.316-2.792-79.333 32.223-76.54 76.54 40.814 3.013 76.728-28.949 76.54-70.23z"/><path d="m234.384 264h6.31c2.793-44.325-32.232-79.333-76.54-76.54-3.014 40.814 28.948 76.729 70.23 76.54z"/><path d="m270.694 110c44.315 2.793 79.333-32.233 76.54-76.54-44.316-2.792-79.333 32.223-76.54 76.54z"/><path d="m234.384 110h6.31c2.793-44.325-32.232-79.333-76.54-76.54-3.014 40.814 28.948 76.729 70.23 76.54z"/><path d="m451.924 187.46c-41.284-.188-73.242 35.717-70.23 76.54 44.05 2.656 79.18-31.572 76.54-76.54z"/><path d="m132.384 264h6.31c2.793-44.325-32.232-79.333-76.54-76.54-3.014 40.814 28.948 76.729 70.23 76.54z"/><path d="m457.694 342.89h-46v-48.89s-27.813.044-30 0v48.89h-111v-48.89h-30v48.89h-102v-48.89c-2.188.044-30 0-30 0v48.89h-55c.183 17.729-1.193 44.642 3.19 61.58h397.62c4.374-16.837 3.011-43.957 3.19-61.58z"/></g></svg>