<svg id="Capa_1" enable-background="new 0 0 512 512" height="512" viewBox="0 0 512 512" width="512" xmlns="http://www.w3.org/2000/svg"><g><path d="m390.17 200.893v-3.317c0-17.6-14.267-31.867-31.867-31.867-8.179 0-15.636 3.084-21.278 8.149.244 3.885.37 7.788.37 11.706v39.118c0 20.454-4.013 40.312-11.927 59.022-7.637 18.057-18.565 34.268-32.478 48.181-13.914 13.914-30.124 24.841-48.181 32.479-12.915 5.463-26.377 9.064-40.204 10.773v15.255c0 67.162 54.446 121.608 121.608 121.608h.444c17.656 0 31.947-14.355 31.867-32.011l.001.289c.08 17.543 14.324 31.723 31.867 31.723 67.162-.001 121.608-54.447 121.608-121.609v-39.118c0-73.957-52.24-135.706-121.83-150.381zm-16.645 247.517h-30v-203.174h30z"/><path d="m307.395 224.683v-39.118c0-73.958-52.24-135.706-121.83-150.381v-3.317c0-17.6-14.267-31.867-31.867-31.867s-31.867 14.267-31.867 31.867v3.317c-69.591 14.674-121.831 76.423-121.831 150.38v39.118c0 67.162 54.446 121.608 121.608 121.608h.444c17.656 0 31.947-14.356 31.867-32.011l.001.289c.08 17.543 14.324 31.723 31.867 31.723 67.162 0 121.608-54.446 121.608-121.608zm-138.475 58.018h-30v-203.174h30z"/></g></svg>