<svg id="Capa_1" enable-background="new 0 0 512 512" height="512" viewBox="0 0 512 512" width="512" xmlns="http://www.w3.org/2000/svg"><g><path d="m497 284.616c-16.871 0-32.457 5.601-45 15.039v-62.849c25.849-6.677 45-30.195 45-58.101v-90c0-27.906-19.151-51.424-45-58.101v-30.604h-30v30.604c-25.849 6.677-45 30.195-45 58.101v90c0 27.906 19.151 51.424 45 58.101v62.849c-12.543-9.438-28.129-15.039-45-15.039h-15v197.384h-31v-197.384h-15c-16.871 0-32.457 5.601-45 15.039v-62.849c25.849-6.677 45-30.195 45-58.101v-90c0-27.906-19.151-51.424-45-58.101v-30.604h-30v30.604c-25.849 6.677-45 30.195-45 58.101v90c0 27.906 19.151 51.424 45 58.101v62.849c-12.543-9.438-28.129-15.039-45-15.039h-15v197.384h-31v-197.384h-15c-16.871 0-32.457 5.601-45 15.039v-62.849c25.849-6.677 45-30.195 45-58.101v-90c0-27.906-19.151-51.424-45-58.101v-30.604h-30v30.604c-25.849 6.677-45 30.195-45 58.101v90c0 27.906 19.151 51.424 45 58.101v62.849c-12.543-9.438-28.129-15.039-45-15.039h-15v227.384h331 181v-227.384zm-437 15.04c5.678 4.272 10.733 9.331 15 15.013 4.267-5.682 9.322-10.74 15-15.013v182.344h-30zm181 0c5.678 4.272 10.733 9.331 15 15.013 4.267-5.682 9.322-10.74 15-15.013v182.344h-30zm181 182.344v-182.344c5.678 4.272 10.733 9.331 15 15.013 4.267-5.682 9.322-10.74 15-15.013v182.344z"/></g></svg>