<svg id="Capa_1" enable-background="new 0 0 512 512" height="512" viewBox="0 0 512 512" width="512" xmlns="http://www.w3.org/2000/svg"><g><path d="m303.271 282.902 40.132 25.406 58.072-36.763c-3.26-22.455-9.131-46.875-17.283-71.611z"/><path d="m284.343 306.425c-4.286 20.908-14 38.253-30.722 49.126-56.057 36.45-128.301 10.453-128.301 10.453s28.881-22.675 29.391-52.296l-23.015-14.57-70.564 44.676-61.075-38.667c-.033 1.551-.057 3.093-.057 4.615 0 33.757 8.325 65.601 23.012 93.607h358.452c14.687-28.007 23.012-59.851 23.012-93.607 0-1.5-.033-3.035-.066-4.569l-61.007 38.621z"/><path d="m288.754 153.865h-250.725c-5.832 13.131-11.1 26.552-15.732 40h227.463z"/><path d="m202.238 512c65.001 0 122.928-30.832 159.951-78.631h-319.902c37.023 47.799 94.951 78.631 159.951 78.631z"/><path d="m339.364 101.951c-40.242-65.896-88.537-101.951-137.126-101.951-52.007 0-103.679 41.302-145.498 116.297-1.393 2.498-2.758 5.027-4.111 7.568h265.371z"/><path d="m61.132 308.307 70.563-44.676 25.532 16.164c2.548-10.174 7.624-19.6 14.965-27.511 10.538-11.359 25.119-18.682 40.732-20.633l7.59-7.785h-207.477c-4.445 16.307-7.85 32.345-10.06 47.623z"/><path d="m317.577 166.985 29.477 27.777 164.946-168.749v-26.013h-30.884z"/><path d="m214.446 261.75c-7.82 1.432-14.998 5.262-20.262 10.936-6.091 6.565-9.222 15.115-8.816 24.075.89 19.659-3.27 35.816-8.075 47.597 17.282.841 41.713-.709 58.778-13.138 10.008-7.289 16.246-17.55 18.973-31.214z"/><path d="m270.583 273.429 55.557-57.153-29.471-27.771-55.542 57.167z"/></g></svg>