<svg id="Capa_1" enable-background="new 0 0 510 510" height="512" viewBox="0 0 510 510" width="512" xmlns="http://www.w3.org/2000/svg"><g id="XMLID_2984_"><path id="XMLID_3049_" d="m420 330c-.006 0-.012 0-.018 0-14.778-19.661-38.761-31.348-64.309-29.875-5.615-18.925-16.529-36.027-31.593-49.198-57.391-50.183-147.982-24.169-169.753 49.198-25.501-1.47-49.502 10.176-64.309 29.875-.006 0-.012 0-.018 0-49.626 0-90 40.374-90 90 0 49.627 40.374 90 90 90h330c49.626 0 90-40.373 90-90 0-49.626-40.374-90-90-90zm-300 105h-30v-30h30zm90-30h-30v-30h30zm30-105h30v30h-30zm45 150h-30v-30h30zm75-45h-30v-30h30zm60 45h-30v-30h30z"/><path id="XMLID_3131_" d="m480 45h-180v60h180c16.568 0 30-13.432 30-30 0-16.568-13.432-30-30-30z"/><path id="XMLID_3132_" d="m270 105c0-7.26 0-52.693 0-60h-50.003c6.676 19.293 6.681 40.693-.021 60z"/><ellipse id="XMLID_3133_" cx="97.5" cy="75" rx="97.5" ry="75"/><path id="XMLID_3134_" d="m105 195h30v60h-30z"/><path id="XMLID_3135_" d="m30 180h30v120h-30z"/></g></svg>