<svg id="Capa_1" enable-background="new 0 0 512 512" height="512" viewBox="0 0 512 512" width="512" xmlns="http://www.w3.org/2000/svg"><g><path d="m261.209 152.97 7.574 7.122-13.26 12.468 20.55 21.855 14.608-13.734 14.608 13.734 20.55-21.855-13.26-12.468 7.574-7.122c12.937-12.163 17.069-30.688 10.527-47.196s-22.242-27.175-39.999-27.175-33.457 10.667-39.999 27.175-2.41 35.033 10.527 47.196zm17.363-36.145c.765-1.93 3.898-8.227 12.109-8.227s11.344 6.297 12.109 8.227 2.795 8.664-3.187 14.289l-8.922 8.389-8.922-8.389c-5.982-5.625-3.952-12.359-3.187-14.289z"/><path d="m381.056 421.75h-60.25c-8.34 0-15.125-6.785-15.125-15.125v-55.401h16.171v-45.12c71.14-14.596 124.685-78.167 124.685-154.38h-15.856v-88.25c0-24.012-18.854-43.698-42.534-45.045-5.464-10.835-16.684-18.272-29.648-18.272-18.332 0-33.193 14.861-33.193 33.193s14.861 33.193 33.193 33.193c12.846 0 23.979-7.302 29.497-17.978 7.181 1.172 12.685 7.402 12.685 14.91v88.25h-16.486c0 52.202-41.868 94.521-93.514 94.521-51.646 0-93.514-42.318-93.514-94.521h-16.486v-88.25c0-7.4 5.347-13.565 12.377-14.863 5.54 10.739 16.732 18.087 29.649 18.087 18.418 0 33.349-14.931 33.349-33.349 0-18.419-14.931-33.35-33.349-33.35-13.063 0-24.365 7.515-29.837 18.455-23.517 1.519-42.189 21.125-42.189 45.019v88.25h-15.856c0 76.214 53.545 139.784 124.685 154.38v45.12h16.171v55.401c0 24.882 20.243 45.125 45.125 45.125h60.25c8.34 0 15.125 6.785 15.125 15.125s-6.785 15.125-15.125 15.125h-120.5c-8.34 0-15.125-6.785-15.125-15.125v-30.125c0-24.882-20.243-45.125-45.125-45.125h-17.69c-6.65-25.616-29.926-44.531-57.622-44.531-32.878 0-59.531 26.653-59.531 59.531s26.653 59.531 59.531 59.531c27.697 0 50.973-18.915 57.622-44.531h17.69c8.34 0 15.125 6.785 15.125 15.125v30.125c0 24.882 20.243 45.125 45.125 45.125h120.5c24.882 0 45.125-20.243 45.125-45.125s-20.243-45.125-45.125-45.125zm-241.062-.125h-30v-30h30z"/></g></svg>