<svg id="Capa_1" enable-background="new 0 0 512 512" height="512" viewBox="0 0 512 512" width="512" xmlns="http://www.w3.org/2000/svg"><g><path d="m286.844 106.359-21.192-60.809h-92.937l21.192 60.809z"/><path d="m433.431 106.359-21.192-60.809h-114.818l21.191 60.809z"/><path d="m130.331 15.093h-130.331v408.167h129.562c-1.796-8.568-2.746-17.443-2.746-26.537 0-71.232 57.952-129.184 129.184-129.184s129.184 57.951 129.184 129.184c0 9.094-.95 17.969-2.746 26.537h129.562v-286.901h-339.408z"/></g><g><path d="m256 296.54c-55.242 0-100.184 44.942-100.184 100.183 0 55.242 44.942 100.184 100.184 100.184 55.241 0 100.183-44.942 100.183-100.184 0-55.241-44.942-100.183-100.183-100.183zm.1 167.569c-8.936 0-16.18-7.244-16.18-16.18s7.244-16.18 16.18-16.18 16.18 7.244 16.18 16.18-7.244 16.18-16.18 16.18zm11.078-53.057h-22.174l-5.543-81.719h33.26z"/></g></svg>