<svg id="Capa_1" enable-background="new 0 0 510 510" height="512" viewBox="0 0 510 510" width="512" xmlns="http://www.w3.org/2000/svg"><g><path id="XMLID_351_" d="m405 450c0 16.568 13.432 30 30 30s30-13.432 30-30v-30h-60z"/><path id="XMLID_350_" d="m405 360h60v30h-60z"/><path id="XMLID_349_" d="m45 450c0 16.568 13.432 30 30 30s30-13.432 30-30v-30h-60z"/><path id="XMLID_348_" d="m45 360h60v30h-60z"/><path id="XMLID_347_" d="m450 300v-195c0-41.355-33.645-75-75-75s-75 33.645-75 75v90c0 24.812-20.186 45-45 45-24.812 0-45-20.188-45-45v-90c0-41.355-33.645-75-75-75s-75 33.645-75 75v195h-60v30h150v-30h-60v-195c0-24.812 20.188-45 45-45s45 20.188 45 45v90c0 41.355 33.645 75 75 75s75-33.645 75-75v-90c0-24.812 20.186-45 45-45s45 20.188 45 45v195h-60v30h150v-30z"/></g></svg>