<svg id="Capa_1" enable-background="new 0 0 510 510" height="512" viewBox="0 0 510 510" width="512" xmlns="http://www.w3.org/2000/svg"><g id="XMLID_1289_"><path id="XMLID_1306_" d="m390.019 270v-59.376c0-16.347-12.816-30.165-29.157-30.612-16.954-.465-30.843 13.14-30.843 29.988v-44.376c0-16.347-12.816-30.165-29.157-30.612-16.954-.465-30.843 13.14-30.843 29.988v-30c0-16.849-13.89-30.453-30.843-29.988-16.34.447-29.157 14.266-29.157 30.612v29.376c0-16.849-13.89-30.453-30.843-29.988-16.34.447-29.157 14.266-29.157 30.612v126.71c0-28.904-23.43-52.334-52.333-52.334h-7.667v30 120l60 45v75h210v-90l30-30z"/><path id="XMLID_1336_" d="m487.675 145.209c-17.975-26.963-22.406-60.057-12.159-90.797l3.327-9.981c3.422-10.265 1.688-21.634-4.639-30.411-6.327-8.78-16.564-14.02-27.385-14.02h-11.801c-21.521 0-42.786 3.451-63.205 10.257l-1.849.616c-5.673 1.891-11.739 1.46-17.086-1.213l-8.259-4.131c-7.234-3.617-15.335-5.529-23.425-5.529h-5.691c-13.991 0-27.145 5.449-37.039 15.342-6.822 6.822-17.206 8.506-25.837 4.191l-.988-.494c-24.911-12.455-52.8-19.039-80.652-19.039h-117.251c-29.62 0-53.717 24.098-53.717 53.717 0 5.785.927 11.5 2.756 16.987l8.932 26.796c1.612 4.836 1.612 10.164 0 15-7.756 23.269-11.688 47.502-11.688 72.029v236.471c0 32.532 26.467 59 59 59h61v-30l-60-45v-195h37.666c7.736 0 15.229 1.073 22.334 3.078v-47.454c0-15.64 5.911-30.509 16.643-41.87 11-11.644 25.806-18.295 41.692-18.73.556-.016 1.112-.023 1.665-.023 2.688 0 5.334.178 7.929.521 2.398-4.217 5.314-8.168 8.714-11.768 11-11.644 25.806-18.295 41.692-18.73.556-.016 1.112-.023 1.665-.023 22.37 0 41.919 12.303 52.235 30.5 2.543-.33 5.134-.5 7.766-.5.554 0 1.107.008 1.665.023 15.885.436 30.691 7.087 41.691 18.73 7.081 7.495 12.062 16.517 14.633 26.279.667-.021 1.338-.033 2.011-.033.554 0 1.107.008 1.665.023 15.885.436 30.691 7.087 41.691 18.73 10.732 11.361 16.643 26.23 16.643 41.87v191.803l-30 30v47.574h29.229c38.417 0 70.884-27.504 77.199-65.398l3.43-20.577c2.366-14.19-.407-28.8-7.811-41.137l-15.577-25.962c-7.951-13.252-4.748-30.4 7.451-39.89 11.235-8.737 19.065-21.215 22.049-35.134l1.075-5.023c7.482-34.908.414-71.965-19.389-101.67zm-397.656-10.209h-30v-75h30zm330-15h-30v-45h30z"/></g></svg>