<svg id="Capa_1" enable-background="new 0 0 512 512" height="512" viewBox="0 0 512 512" width="512" xmlns="http://www.w3.org/2000/svg"><g><path d="m511.842 430.683-.158-.072c-20.104-9.184-52.7-9.184-72.805 0l-.158.072-.158.072c-20.104 9.184-52.7 9.184-72.805 0l-.158-.072-.158-.072c-20.104-9.184-52.7-9.184-72.805 0l-.158.072-.158.072c-20.104 9.184-52.7 9.184-72.805 0l-.158-.072-.158-.072c-20.104-9.184-52.7-9.184-72.805 0l-.158.072-.158.072c-20.104 9.184-52.7 9.184-72.805 0l-.158-.072-.158-.072c-20.104-9.184-52.7-9.184-72.805 0l-.153.072v81.317h512v-81.245z"/><path d="m39.801 381.337c0 4.267.427 8.433 1.227 12.465 16.353.517 31.975 3.845 44.393 9.518l.189.086.132.061c5.724 2.615 14.673 4.176 23.938 4.176s18.214-1.561 23.903-4.16l.158-.072.025-.011.025-.011.142-.065c13.552-6.191 30.907-9.6 48.868-9.6s35.316 3.409 48.852 9.593l.158.072.025.011.025.011.123.056c5.724 2.615 14.673 4.176 23.938 4.176s18.214-1.561 23.912-4.164l.189-.086.151-.069c13.552-6.191 30.907-9.6 48.868-9.6s35.316 3.409 48.861 9.597l.199.091.123.056c5.724 2.615 14.673 4.176 23.938 4.176s18.214-1.561 23.903-4.16l.158-.072.025-.011.025-.011.142-.065c12.464-5.694 28.147-9.027 44.558-9.527.799-4.031 1.226-8.195 1.226-12.46v-21.348h-432.399z"/><path d="m48.695 272.055 145.87 57.934h90.589c15.291-33.502 25.45-67.004 30.497-100.505h-253.35z"/><path d="m270.101 0h-1.129l-145.233 37.252-51.85 162.231h246.912c3.947-66.494-12.279-132.988-48.7-199.483z"/><path d="m71.889 199.483h-40.73v30h31.142z"/><path d="m353.372 229.483v-30h-34.571c-.594 10-1.645 20-3.151 30z"/></g></svg>