<svg id="Capa_1" enable-background="new 0 0 511.85 511.85" height="512" viewBox="0 0 511.85 511.85" width="512" xmlns="http://www.w3.org/2000/svg"><g><path d="m279.927 274.85c13.944-16.318 31.383-26.614 53.425-28.392v-29.902c-23.418 1.889-45.024 10.828-62.427 25.201v-43.547c-9.582 2.256-20.418 2.256-30 0v43.547c-17.403-14.373-39.008-23.312-62.426-25.201v29.902c22.041 1.778 39.481 12.074 53.425 28.392h-141.999v60h332v-60z"/><path d="m118.915 364.85 46.15 147h181.72l46.15-147c-7.836 0-260.061 0-274.02 0z"/><path d="m205.395 121.31 13.46.71.72 13.47c1.03 19.3 17 34.42 36.35 34.42s35.32-15.12 36.35-34.42l.72-13.47 13.46-.71c19.3-1.03 34.42-17 34.42-36.35 0-19.36-15.12-35.32-34.42-36.35l-13.46-.72-.72-13.46c-1.03-19.31-17-34.43-36.35-34.43s-35.32 15.12-36.35 34.43l-.72 13.46-13.46.72c-45.633 3.836-45.614 68.868 0 72.7zm35.53-51.85h30v30h-30z"/></g></svg>