<svg id="Capa_1" enable-background="new 0 0 512 512" height="512" viewBox="0 0 512 512" width="512" xmlns="http://www.w3.org/2000/svg"><g><path d="m131.751 190.349c1.575-8.343 6.041-42.374 16.511-81.579l-56.182-15.055c-7.352 62.783 34.947 90.019 39.671 96.634z"/><path d="m168.277 61-13.629-50.85c-12.144 4.949-23.459 12.067-33.008 21.612-9.593 9.593-16.992 20.766-22.189 32.866l57.647 15.449z"/><path d="m183.85 3.124 15.511 57.876h62.728l18.633-18.633c-4.57-2.96-34.017-46.082-96.872-39.243z"/><path d="m210.79 450.048c-1.639-.612-25.481-7.511-51.473-21.05 8.076 39.677 17.805 63.498 27.303 83.002h198.516c9.531-19.571 19.076-42.594 27.297-82.969-16.29 8.486-37.637 17.051-53.899 21.969z"/><path d="m412.45 211h-51.572v180h-30v-346c0-8.276 6.738-15 15-15h60v-30h-60c-24.814 0-45 20.186-45 45v46h-115.81c-6.771 20.654-13.725 43.306-21.392 90h137.203v30h-141.572c-6.718 51.932-11.49 126.838-5.792 179.756 25.675 16.837 58.25 27.186 65.449 30.244h133.916c7.18-3.056 39.708-13.4 65.359-30.227 5.715-53.023.898-128.076-5.789-179.773z"/><path d="m386.689 91h-25.811v90h47.203c-7.535-45.886-14.556-69.146-21.392-90z"/></g></svg>