<svg id="Capa_1" enable-background="new 0 0 511.978 511.978" height="512" viewBox="0 0 511.978 511.978" width="512" xmlns="http://www.w3.org/2000/svg"><g><path d="m437.816 13.162c-17.549-17.549-46.084-17.549-63.633 0l-53.042 53.027-21.211-21.211-21.21 21.211 106.069 106.069 21.211-21.211-21.211-21.211 53.027-53.042c17.549-17.548 17.549-46.084 0-63.632z"/><path d="m61 465.978c0 24.814 20.186 46 45 46s45-21.186 45-46c0-9.258-2.798-18.164-8.086-25.737l-36.914-57.188-38.687 59.941c-4.13 6.944-6.313 14.883-6.313 22.984z"/><path d="m334.646 179.978 7.719-7.722-63.643-63.643-71.362 71.365z"/><path d="m118.349 268.997c-3.633 3.618-6.606 7.822-8.804 12.437-4.585 2.183-8.789 5.156-12.422 8.774-17.547 17.545-17.631 46.014 0 63.647 17.617 17.617 46.099 17.563 63.633 0 3.633-3.633 6.606-7.837 8.789-12.422 4.614-2.197 8.818-5.171 12.422-8.789l122.675-122.666h-127.28z"/></g></svg>