<svg id="Capa_1" enable-background="new 0 0 512 512" height="512" viewBox="0 0 512 512" width="512" xmlns="http://www.w3.org/2000/svg"><g><path d="m437 151c-41.367 0-75 33.647-75 75s33.633 75 75 75 75-33.647 75-75-33.633-75-75-75zm15 90h-30v-30h30z"/><path d="m422 329.484v76.516c0 24.814-20.186 45-45 45h-182c-24.814 0-45-20.186-45-45v-76.516c67.315-7.573 120-64.177 120-133.484v-135h-60v-30h-30v90h30v-30h30v105c0 57.891-47.109 105-105 105s-105-47.109-105-105v-105h30v30h30v-90h-30v30h-60v135c0 69.307 52.685 125.911 120 133.484v76.516c0 41.353 33.633 75 75 75h182c41.367 0 75-33.647 75-75v-76.516c-4.942.716-9.864 1.516-15 1.516s-10.058-.8-15-1.516z"/></g></svg>