<svg id="Capa_1" enable-background="new 0 0 512 512" height="512" viewBox="0 0 512 512" width="512" xmlns="http://www.w3.org/2000/svg"><path d="m436.75 276.082h-125.777c-31.922 0-57.893-25.971-57.893-57.894 0-21.874 17.796-39.67 39.67-39.67 14.338 0 26.002 11.664 26.002 26.002 0 8.686-7.066 15.752-15.752 15.752v30c25.228 0 45.752-20.524 45.752-45.752 0-30.88-25.123-56.002-56.002-56.002-38.417 0-69.67 31.254-69.67 69.67 0 22.155 8.243 42.418 21.819 57.894h-49.149c-24.951 0-45.25-20.299-45.25-45.25h-30c0 16.973 5.654 32.647 15.17 45.25h-30.295c-41.562 0-75.375-33.813-75.375-75.375 0-40.469 32.062-73.579 72.117-75.292v20.757c0 29.134 23.618 52.752 52.752 52.752h35.839v-35.839c0-29.134-23.618-52.752-52.752-52.752 29.134 0 52.752-23.618 52.752-52.752v-35.84h-35.839c-29.134 0-52.752 23.618-52.752 52.752v20.895c-56.602 1.728-102.117 48.306-102.117 105.319 0 58.104 47.271 105.375 105.375 105.375h58.012c-21.337 7.724-36.586 28.162-36.586 52.166v38.209h38.21c30.633 0 55.467-24.833 55.467-55.467v-34.908h140.008c8.34 0 15.125 6.785 15.125 15.125s-6.785 15.125-15.125 15.125h-44.236v30h44.235c24.882 0 45.125-20.243 45.125-45.125 0-5.304-.927-10.394-2.616-15.125h33.755c24.951 0 45.25 20.299 45.25 45.25s-20.299 45.25-45.25 45.25l-67.405.001c-30.633 0-55.467 24.833-55.467 55.467v38.21h38.21c30.633 0 55.467-24.833 55.467-55.467v-8.21h29.195c41.493 0 75.25-33.757 75.25-75.25s-33.756-75.251-75.249-75.251z"/></svg>