<svg id="Capa_1" enable-background="new 0 0 512 512" height="512" viewBox="0 0 512 512" width="512" xmlns="http://www.w3.org/2000/svg"><g><path d="m256 0c-122.558 0-222.266 73.225-222.266 163.23 0 4.104.211 8.251.628 12.329 2.104 20.54 12.297 38.902 28.704 51.702 16.936 13.213 39.003 19.006 60.545 15.89 4.678-.67 9.457-1.027 14.318-1.027 54.774 0 99.336 44.563 99.336 99.337 0 10.33 8.404 18.734 18.734 18.734s18.734-8.404 18.734-18.734c0-54.774 44.562-99.337 99.336-99.337 4.862 0 9.641.358 14.317 1.036 21.543 3.104 43.61-2.684 60.546-15.898 16.406-12.8 26.6-31.162 28.704-51.704.417-4.076.628-8.224.628-12.327.002-90.006-99.706-163.231-222.264-163.231z"/><path d="m237.266 386.445v125.555h37.469v-125.555c-5.771 2.412-12.099 3.75-18.734 3.75s-12.964-1.337-18.735-3.75z"/><path d="m137.93 272.124c-38.232 0-69.336 31.104-69.336 69.337 0 75.435 53.804 136.805 119.938 136.805 10.33 0 18.734-8.404 18.734-18.734v-118.07c0-38.233-31.104-69.338-69.336-69.338zm-1.868 84.336h-30v-30h30zm33.735 67.469h-30v-30h30z"/><path d="m374.07 272.124c-38.232 0-69.336 31.104-69.336 69.337v118.07c0 10.33 8.404 18.734 18.734 18.734 66.134 0 119.938-61.37 119.938-136.805.001-38.231-31.103-69.336-69.336-69.336zm-1.867 151.805h-30v-30h30zm33.735-67.469h-30v-30h30z"/></g></svg>