<?xml version="1.0" encoding="iso-8859-1"?>
<!-- Generator: Adobe Illustrator 19.0.0, SVG Export Plug-In . SVG Version: 6.00 Build 0)  -->
<svg xmlns="http://www.w3.org/2000/svg" xmlns:xlink="http://www.w3.org/1999/xlink" version="1.1" id="Layer_1" x="0px" y="0px" viewBox="0 0 511.997 511.997" style="enable-background:new 0 0 511.997 511.997;" xml:space="preserve">
<g>
	<g>
		
			<rect x="1.556" y="405.348" transform="matrix(0.7071 -0.7071 0.7071 0.7071 -287.7242 180.742)" width="145.514" height="64.673"/>
	</g>
</g>
<g>
	<g>
		
			<rect x="117.763" y="256.526" transform="matrix(0.7071 -0.7071 0.7071 0.7071 -138.898 242.3953)" width="210.769" height="64.673"/>
	</g>
</g>
<g>
	<g>
		<path d="M483.168,224.004c-18.474-43.677-44.918-82.9-78.597-116.579c-33.679-33.679-72.901-60.123-116.579-78.597    C242.765,9.7,194.731,0,145.223,0v32.337c54.75,0,106.456,13.245,152.116,36.669v99.281l95.594,95.594l-22.866,22.865    l22.865,22.865l22.866-22.865l22.865,22.865l-22.865,22.865l22.865,22.865l22.865-22.865l22.866,22.865l-22.865,22.865    l22.865,22.865l27.602-27.602v-6.697C511.998,317.266,502.298,269.232,483.168,224.004z"/>
	</g>
</g>
<g>
</g>
<g>
</g>
<g>
</g>
<g>
</g>
<g>
</g>
<g>
</g>
<g>
</g>
<g>
</g>
<g>
</g>
<g>
</g>
<g>
</g>
<g>
</g>
<g>
</g>
<g>
</g>
<g>
</g>
</svg>
