<?xml version="1.0" encoding="iso-8859-1"?>
<!-- Generator: Adobe Illustrator 19.0.0, SVG Export Plug-In . SVG Version: 6.00 Build 0)  -->
<svg xmlns="http://www.w3.org/2000/svg" xmlns:xlink="http://www.w3.org/1999/xlink" version="1.1" id="Layer_1" x="0px" y="0px" viewBox="0 0 512.001 512.001" style="enable-background:new 0 0 512.001 512.001;" xml:space="preserve">
<g>
	<g>
		<path d="M282.105,180.099c-3.816,0-7.565,0.29-11.232,0.836c-0.376,0.056-0.749,0.124-1.124,0.186    c-0.806,0.133-1.61,0.274-2.407,0.431c-0.383,0.076-0.766,0.157-1.147,0.238c-0.794,0.17-1.584,0.353-2.368,0.547    c-0.36,0.089-0.72,0.176-1.078,0.271c-0.851,0.225-1.694,0.467-2.533,0.721c-0.276,0.083-0.556,0.159-0.83,0.245    c-1.082,0.34-2.154,0.703-3.214,1.09c-0.334,0.122-0.66,0.258-0.992,0.384c-0.71,0.27-1.416,0.545-2.116,0.835    c-0.504,0.21-1.003,0.432-1.502,0.653c-0.504,0.222-1.006,0.448-1.504,0.68c-0.566,0.265-1.128,0.536-1.686,0.815    c-0.391,0.195-0.778,0.396-1.165,0.597c-0.627,0.326-1.253,0.654-1.87,0.998c-0.196,0.108-0.387,0.224-0.582,0.336    c-3.32,1.888-6.488,4.014-9.475,6.365c-0.044,0.034-0.087,0.069-0.132,0.103c-4.679,3.7-8.917,7.938-12.617,12.617    c-0.034,0.044-0.068,0.087-0.102,0.131c-2.354,2.992-4.485,6.167-6.374,9.491c-0.106,0.188-0.218,0.372-0.323,0.562    c-0.346,0.621-0.676,1.252-1.005,1.883c-0.199,0.382-0.397,0.763-0.589,1.15c-0.281,0.563-0.555,1.131-0.821,1.7    c-0.229,0.491-0.452,0.986-0.671,1.482c-0.224,0.506-0.448,1.011-0.661,1.522c-0.285,0.685-0.554,1.378-0.819,2.073    c-0.132,0.346-0.274,0.686-0.401,1.035c-0.385,1.056-0.746,2.123-1.085,3.2c-0.09,0.287-0.169,0.579-0.257,0.867    c-0.248,0.825-0.488,1.655-0.709,2.491c-0.097,0.368-0.188,0.739-0.279,1.109c-0.192,0.772-0.371,1.548-0.539,2.33    c-0.084,0.392-0.167,0.785-0.245,1.18c-0.154,0.782-0.292,1.57-0.423,2.36c-0.064,0.39-0.135,0.778-0.193,1.17    c-0.545,3.662-0.834,7.407-0.834,11.219c0,41.854,34.05,75.904,75.904,75.904c3.814-0.004,7.564-0.294,11.23-0.841    c0.376-0.056,0.748-0.124,1.122-0.185c0.807-0.133,1.611-0.274,2.41-0.432c0.383-0.076,0.763-0.156,1.145-0.238    c0.795-0.17,1.585-0.354,2.371-0.549c0.359-0.089,0.718-0.176,1.075-0.271c0.853-0.225,1.697-0.468,2.538-0.722    c0.275-0.083,0.552-0.158,0.825-0.244c1.083-0.341,2.156-0.704,3.217-1.091c0.329-0.121,0.651-0.253,0.977-0.379    c0.715-0.272,1.427-0.549,2.131-0.842c0.501-0.209,0.996-0.429,1.491-0.648c0.508-0.224,1.014-0.451,1.516-0.686    c0.562-0.264,1.12-0.532,1.675-0.809c0.396-0.198,0.789-0.402,1.18-0.605c0.623-0.324,1.244-0.649,1.855-0.991    c0.205-0.114,0.405-0.234,0.608-0.35c2.457-1.398,4.833-2.923,7.111-4.578c0.007-0.005,0.015-0.01,0.022-0.016    c0.781-0.568,1.548-1.151,2.307-1.748c0.053-0.042,0.105-0.082,0.158-0.124c4.669-3.693,8.898-7.922,12.592-12.59    c0.045-0.057,0.089-0.114,0.134-0.169c0.593-0.754,1.174-1.519,1.74-2.297c0.009-0.012,0.017-0.024,0.026-0.037    c1.649-2.269,3.166-4.636,4.561-7.082c0.12-0.211,0.244-0.418,0.362-0.629c0.339-0.608,0.662-1.226,0.984-1.844    c0.206-0.396,0.413-0.792,0.611-1.192c0.276-0.552,0.543-1.108,0.805-1.667c0.236-0.505,0.464-1.014,0.69-1.524    c0.218-0.493,0.437-0.986,0.645-1.484c0.293-0.706,0.571-1.418,0.844-2.134c0.125-0.326,0.258-0.648,0.378-0.976    c0.387-1.061,0.75-2.133,1.09-3.215c0.087-0.277,0.163-0.557,0.247-0.834c0.252-0.836,0.495-1.676,0.719-2.525    c0.095-0.362,0.184-0.727,0.274-1.09c0.193-0.778,0.374-1.56,0.543-2.347c0.083-0.389,0.166-0.779,0.243-1.17    c0.155-0.784,0.293-1.574,0.424-2.365c0.064-0.389,0.135-0.777,0.193-1.167c0.544-3.662,0.834-7.407,0.834-11.219    C358.009,214.15,323.958,180.099,282.105,180.099z M282.103,284.826c-15.919-0.001-28.824-12.906-28.824-28.824    c0-15.919,12.905-28.824,28.824-28.824c15.919,0,28.824,12.905,28.824,28.824C310.927,271.921,298.022,284.826,282.103,284.826z"/>
	</g>
</g>
<g>
	<g>
		<path d="M149.716,67.979c-10.659,7.538-20.755,16.038-30.175,25.458c-9.42,9.421-17.92,19.517-25.458,30.176l90.365,90.363    c10.751-24.888,30.745-44.882,55.633-55.633L149.716,67.979z"/>
	</g>
</g>
<g>
	<g>
		<path d="M379.759,298.025c-10.752,24.888-30.745,44.882-55.633,55.633l90.365,90.364c10.658-7.539,20.755-16.038,30.175-25.458    c9.42-9.42,17.92-19.517,25.458-30.175L379.759,298.025z"/>
	</g>
</g>
<g>
	<g>
		<path d="M512,26.103H150.854H82.622h-4.4H52.205H0v459.795h52.205h30.417h330.73h78.498h20.151v-20.151v-78.499V26.103H512z     M82.622,455.482v-85.025c10.006,17.375,22.36,33.548,36.918,48.107c14.559,14.559,30.732,26.911,48.107,36.918H82.622z     M481.583,399.848v53.914v1.721h-1.721H425.95h-43.016l-93.421-93.421c-2.449,0.169-4.918,0.263-7.41,0.263    c-58.626,0-106.321-47.696-106.321-106.321c0-2.491,0.093-4.961,0.263-7.411l-93.421-93.421v-43.016v-48.42V56.52h7.213h48.42    h43.016l93.421,93.421c2.449-0.169,4.918-0.263,7.41-0.263c58.626,0,106.321,47.696,106.321,106.321    c0,2.491-0.093,4.961-0.263,7.411l93.421,93.42V399.848z M481.583,141.546c-10.006-17.375-22.36-33.548-36.918-48.107    s-30.732-26.911-48.107-36.918h85.025V141.546z"/>
	</g>
</g>
<g>
</g>
<g>
</g>
<g>
</g>
<g>
</g>
<g>
</g>
<g>
</g>
<g>
</g>
<g>
</g>
<g>
</g>
<g>
</g>
<g>
</g>
<g>
</g>
<g>
</g>
<g>
</g>
<g>
</g>
</svg>
