<svg id="Capa_1" enable-background="new 0 0 510.763 510.763" height="512" viewBox="0 0 510.763 510.763" width="512" xmlns="http://www.w3.org/2000/svg"><g id="XMLID_805_"><path id="XMLID_806_" d="m398.502 346.591h92.372v164.172h-92.372z"/><path id="XMLID_809_" d="m445.428 267.845c-16.19 0-31.886-1.741-46.926-5.139v53.885h92.372v-48.746z"/><path id="XMLID_810_" d="m444.426 188.3c-70.034 0-127.012-56.978-127.012-127.013v-8.366l-38.986 52.141c16.195 60.086 60.551 111.324 121.93 127.225 13.139 3.404 27.422 5.25 41.266 5.521 1.264.025 49.25.037 49.25.037v-49.545z"/><path id="XMLID_812_" d="m347.415 61.287c0 53.493 43.52 97.013 97.012 97.013h46.366c-2.37-72.363-61.966-130.503-134.895-130.503h-8.482v33.49z"/><path id="XMLID_839_" d="m21.07 346.591h92.372v164.172h-92.372z"/><path id="XMLID_840_" d="m65.334 267.845h-44.264v48.746h92.372v-54.152c-15.398 3.577-31.493 5.406-48.108 5.406z"/><path id="XMLID_843_" d="m65.334 237.845c16.543 0 32.342-2.091 47.203-6.112 61.027-16.513 103.659-66.801 119.797-126.672l-39.788-53.212v9.438c0 70.035-56.978 127.013-127.012 127.013h-45.646v49.545z"/><path id="XMLID_847_" d="m65.535 158.3c53.492 0 97.012-43.52 97.012-97.013v-33.49h-7.681c-72.929 0-132.526 58.14-134.896 130.503z"/><path id="XMLID_848_" d="m243.002 3.142c-3.21-2.055-6.888-3.142-10.634-3.142-8.993 0-16.89 6.058-19.203 14.73-1.752 6.57-.055 13.487 4.541 18.499l.001.001 37.675 41.103 37.676-41.103c4.595-5.013 6.292-11.931 4.54-18.506-2.313-8.667-10.21-14.724-19.203-14.724-3.746 0-7.425 1.087-10.637 3.143l-12.377 7.924z"/><path id="XMLID_849_" d="m189.485 308.841h137.896v85.001h-137.896z"/><path id="XMLID_850_" d="m243.433 423.842h30v86.921h-30z"/></g></svg>