<svg id="Capa_1" enable-background="new 0 0 509.943 509.943" height="512" viewBox="0 0 509.943 509.943" width="512" xmlns="http://www.w3.org/2000/svg"><g><path id="XMLID_1232_" d="m464.677 146.634 45.267-13.196-8.396-28.801-42.033 12.253c-3.529-10.764-8.809-20.897-15.686-30.056l21.964-21.964-21.213-21.213-21.974 21.975c-9.83-7.361-20.666-12.772-31.977-16.236l6.621-44.483-29.674-4.417-6.593 44.293c-11.689-.139-23.395 1.656-34.596 5.387l-17.38-32.01-26.365 14.314 16.927 31.176c-11.077 7.75-16.448 14.506-24.695 22.428l-21.215-21.214-21.213 21.214 21.214 21.212-21.214 21.214-21.213-21.213-21.213 21.213 21.213 21.214-21.214 21.213-21.213-21.213-21.213 21.213 21.213 21.213c-7.894 8.273-15.201 13.954-23.45 26.192l-31.483-17.093-14.314 26.363 32.774 17.795c-3.496 11.145-5.099 22.759-4.799 34.334-7.017 1.254-15.203 4.244-23.18 12.221-11.989 11.988-12.722 24.457-13.206 32.709-.388 6.596-.548 9.324-4.464 13.24-3.922 3.922-6.655 4.084-13.26 4.473-8.252.486-20.723 1.221-32.71 13.207-11.989 11.99-12.72 24.459-13.203 32.711-.386 6.598-.546 9.328-4.467 13.25-4.039 4.039-5.282 4.125-10.514 4.492-3.36.234-7.542.525-12.531 1.908l8.004 28.912c7.926-2.195 20.438 1.715 36.255-14.1 11.988-11.99 12.719-24.459 13.202-32.709.387-6.6.546-9.33 4.468-13.252s6.655-4.084 13.26-4.473c8.252-.484 20.723-1.219 32.709-13.207 11.982-11.982 12.715-24.447 13.199-32.695.388-6.6.548-9.332 4.471-13.254 2.387-2.387 4.337-3.377 6.982-3.877 10.183 31.676 35.303 57.262 67.59 67.658-.504 2.617-1.496 4.557-3.864 6.926-3.924 3.922-6.655 4.082-13.256 4.471-8.248.484-20.713 1.217-32.695 13.199-11.986 11.986-12.721 24.457-13.207 32.709-.389 6.604-.55 9.338-4.472 13.26-3.921 3.922-6.652 4.082-13.251 4.467-8.251.484-20.721 1.215-32.71 13.203-15.821 15.822-11.9 28.312-14.1 36.256l28.913 8.002c1.381-4.988 1.673-9.17 1.907-12.529.366-5.232.453-6.475 4.492-10.516 3.921-3.92 6.652-4.08 13.251-4.467 8.251-.482 20.721-1.213 32.71-13.203 11.987-11.986 12.722-24.457 13.207-32.709.389-6.603.55-9.338 4.473-13.26 3.916-3.916 6.645-4.076 13.24-4.463 8.251-.486 20.721-1.219 32.71-13.207 7.957-7.957 10.952-16.125 12.21-23.129 11.963.305 23.708-1.377 34.884-4.955l18.561 34.188 26.365-14.314-17.955-33.071c11.9-8.14 17.443-15.227 25.745-23.171l21.214 21.213 21.213-21.213-21.214-21.213 21.214-21.213 21.213 21.213 21.213-21.213-21.213-21.213 21.214-21.214 21.213 21.214 21.213-21.214-21.213-21.213c8.1-8.411 14.514-13.511 22.139-24.257l32.773 17.795 14.314-26.363-33.431-18.152c3.994-11.754 5.884-24.2 5.518-36.965zm-104.951-18.124-31.82 31.819-21.213-21.213 31.82-31.819zm10.606 74.247-31.82 31.819-21.213-21.213 31.82-31.819zm-148.492 21.213 31.819-31.82 21.213 21.213-31.819 31.82zm10.606 74.246 31.82-31.82 21.213 21.213-31.82 31.82z"/></g></svg>