<svg id="Capa_1" enable-background="new 0 0 510 510" height="512" viewBox="0 0 510 510" width="512" xmlns="http://www.w3.org/2000/svg"><g><path d="m510 270v-30h-75.63c-1.141-13.756-3.835-27.076-7.905-39.787l42.148-17.459-11.48-27.716-42.18 17.472c-6.259-12.087-13.851-23.374-22.575-33.676l53.541-53.54-21.213-21.213-53.541 53.54c-10.301-8.723-21.588-16.316-33.675-22.574l17.472-42.18-27.717-11.48-17.458 42.149c-12.712-4.07-26.031-6.765-39.787-7.904v-75.632h-30v75.631c-13.756 1.14-27.076 3.834-39.787 7.904l-17.459-42.149-27.716 11.48 17.472 42.18c-12.087 6.258-23.374 13.851-33.675 22.574l-53.541-53.54-21.213 21.214 53.541 53.54c-8.724 10.302-16.317 21.588-22.576 33.676l-42.179-17.473-11.48 27.717 42.149 17.459c-4.071 12.711-6.765 26.031-7.905 39.787h-75.631v30h75.63c1.141 13.756 3.835 27.076 7.905 39.787l-42.149 17.458 11.48 27.717 42.18-17.472c6.259 12.088 13.851 23.374 22.575 33.676l-53.541 53.54 21.213 21.213 53.541-53.54c10.301 8.724 21.588 16.316 33.675 22.574l-17.472 42.18 27.716 11.48 17.459-42.148c12.711 4.07 26.031 6.765 39.787 7.904v75.631h30v-75.631c13.756-1.14 27.075-3.834 39.787-7.904l17.458 42.148 27.717-11.48-17.472-42.18c12.087-6.258 23.374-13.852 33.675-22.575l53.541 53.541 21.213-21.213-53.541-53.541c8.724-10.301 16.316-21.588 22.575-33.675l42.18 17.472 11.48-27.717-42.148-17.458c4.07-12.712 6.765-26.031 7.905-39.787zm-255 105c-66.169 0-120-53.832-120-120s53.831-120 120-120c66.168 0 120 53.832 120 120s-53.832 120-120 120z"/><path d="m288.549 171.49c-37.49-15.115-81.605-3.424-106.419 30.755 48.333 22.954 57.95 87.79 17.672 123.79 25.688 20.006 59.59 24.23 88.747 12.475-44.648-45.183-44.746-121.737 0-167.02z"/><path d="m168.812 229.073c-7.299 24.218-4.333 51.771 10.697 74.874 24.738-21.632 18.86-61.408-10.697-74.874z"/><path d="m314.909 187.9c-18.658 15.76-29.909 40.577-29.909 67.1s11.251 51.339 29.91 67.1c40.117-35.858 40.122-98.338-.001-134.2z"/></g></svg>