<?xml version="1.0" encoding="iso-8859-1"?>
<!-- Generator: Adobe Illustrator 19.0.0, SVG Export Plug-In . SVG Version: 6.00 Build 0)  -->
<svg version="1.1" id="Layer_1" xmlns="http://www.w3.org/2000/svg" xmlns:xlink="http://www.w3.org/1999/xlink" x="0px" y="0px"
	 viewBox="0 0 512 512" style="enable-background:new 0 0 512 512;" xml:space="preserve">
<g>
	<g>
		<path d="M438.591,271.703v-31.407H512c-3.757-62.603-29.911-120.938-74.635-165.661C392.641,29.912,334.306,3.756,271.703,0
			v73.409h-31.407V0C177.693,3.756,119.358,29.911,74.635,74.635C29.911,119.359,3.756,177.693,0,240.297h73.41v31.407H0
			c3.756,62.603,29.911,120.938,74.635,165.661c44.723,44.724,103.058,70.879,165.661,74.635v-72.794h31.407V512
			c62.602-3.756,120.938-29.911,165.661-74.635c44.723-44.724,70.878-103.058,74.635-165.661L438.591,271.703L438.591,271.703z
			 M256,329.568l-99.69,39.877L256,130.189l99.692,239.257L256,329.568z"/>
	</g>
</g>
<g>
	<g>
		<polygon points="256,211.845 214.052,312.521 256,295.742 297.949,312.522 		"/>
	</g>
</g>
<g>
</g>
<g>
</g>
<g>
</g>
<g>
</g>
<g>
</g>
<g>
</g>
<g>
</g>
<g>
</g>
<g>
</g>
<g>
</g>
<g>
</g>
<g>
</g>
<g>
</g>
<g>
</g>
<g>
</g>
</svg>
