<svg id="Capa_1" enable-background="new 0 0 512 512" height="512" viewBox="0 0 512 512" width="512" xmlns="http://www.w3.org/2000/svg"><g><path d="m60.25 218.936v-32.186h90.25v48.752l105.5 19.367 105.5-19.367v-48.752h90.25v32.186l60.25-11.06v-117.501h-165.688v-60.25h-180.625v60.25h-165.687v117.501zm135.437-158.811h120.625v30.25h-120.625z"/><path d="m105.375 280.506 15.125-8.94v-54.816h-30.25v54.816z"/><path d="m406.625 280.506 15.125-8.94v-54.816h-30.25v54.816z"/><path d="m451.75 249.438v39.246l-45.125 26.67-45.125-26.67v-22.679l-105.5 19.366-105.5-19.366v22.679l-45.125 26.67-45.125-26.67v-39.246l-60.25-11.06v243.497h512v-243.497z"/></g></svg>