<svg id="Capa_1" enable-background="new 0 0 512 512" height="512" viewBox="0 0 512 512" width="512" xmlns="http://www.w3.org/2000/svg"><g><path d="m102.519 301h65.962c-6.25-12.695-17.941-23.264-32.98-29.095-15.041 5.832-26.732 16.4-32.982 29.095z"/><path d="m168.481 211h-65.962c6.25 12.695 17.941 23.264 32.98 29.095 15.041-5.832 26.732-16.4 32.982-29.095z"/><path d="m512 60h-241v392h241zm-60 271v30h-151v-30zm-151-30v-30h91v30zm121 0v-30h30v30zm-121-60v-30h151v30zm0-60v-30h30v30zm60 0v-30h91v30z"/><path d="m241 60h-241v392h241zm-173.527 129.789v-38.789h30v30h76.055v-30h30v38.789c0 26.078-13.376 50.302-35.09 66.21 21.714 15.908 35.09 40.133 35.09 66.211v38.79h-30v-30h-76.055v30h-30v-38.789c0-26.078 13.376-50.302 35.09-66.21-21.714-15.909-35.09-40.133-35.09-66.212z"/></g></svg>