<svg id="Capa_1" enable-background="new 0 0 512 512" height="512" viewBox="0 0 512 512" width="512" xmlns="http://www.w3.org/2000/svg"><g><path d="m482 331h-30v-60h-76v-30c0-8.276-6.724-15-15-15s-15 6.724-15 15v30h-75v75h-30c-8.276 0-15 6.724-15 15s6.724 15 15 15h30v75h181v-60h30c16.569 0 30-13.433 30-30 0-16.569-13.431-30-30-30z"/><path d="m482 121h-30v-60h-61v-31c0-16.569-13.431-30-30-30s-30 13.431-30 30v31h-60v60h-30c-16.569 0-30 13.431-30 30 0 16.567 13.431 30 30 30h30v60h45c0-24.814 20.186-45 45-45s45 20.186 45 45h46v-60h30c16.569 0 30-13.433 30-30 0-16.569-13.431-30-30-30z"/><path d="m30 391h30v60h61v31c0 16.567 13.431 30 30 30s30-13.433 30-30v-31h60c0-5.237 0-48.082 0-45-24.814 0-45-20.186-45-45s20.186-45 45-45v-45h-181v60h-30c-16.569 0-30 13.431-30 30 0 16.567 13.431 30 30 30z"/></g></svg>