<svg id="Capa_1" enable-background="new 0 0 512 512" height="512" viewBox="0 0 512 512" width="512" xmlns="http://www.w3.org/2000/svg"><g><path d="m242.277 225.578v-25.021-12.427l8.787-8.787 40.733-40.732 7.112-7.112h-50.417v-50.253c0-44.799-36.447-81.246-81.246-81.246s-81.247 36.447-81.247 81.246v50.254h-56.23l-21.691 380.5h169.382v-131.719c-3.327.542-6.736.836-10.214.836-34.903 0-63.298-28.396-63.298-63.299 0-34.902 28.396-63.298 63.298-63.298 3.478 0 6.887.293 10.214.836v-29.778h30zm-126.278-144.332c0-28.257 22.989-51.246 51.247-51.246s51.246 22.989 51.246 51.246v50.254h-102.493z"/><path d="m133.947 317.818c0 18.361 14.938 33.299 33.298 33.299 3.563 0 6.993-.569 10.214-1.609v-63.378c-3.221-1.041-6.652-1.609-10.214-1.609-18.36 0-33.298 14.937-33.298 33.297z"/><path d="m355.691 350.491c-18.361 0-33.299 14.938-33.299 33.298s14.938 33.298 33.299 33.298c18.36 0 33.298-14.938 33.298-33.298s-14.938-33.298-33.298-33.298z"/><path d="m439.104 255.578v-55.021l-40.732-40.732h-85.362l-40.733 40.732v55.021h-64.817v256.422h296.462v-256.422zm-136.827-42.595 23.159-23.158h60.51l23.158 23.158v42.595h-106.827zm53.414 234.104c-34.903 0-63.299-28.396-63.299-63.298s28.396-63.298 63.299-63.298c34.902 0 63.298 28.396 63.298 63.298s-28.396 63.298-63.298 63.298z"/></g></svg>