<svg id="Capa_1" enable-background="new 0 0 512 512" height="512" viewBox="0 0 512 512" width="512" xmlns="http://www.w3.org/2000/svg"><g><path d="m161.921 164.9c0-19.571-8.532-37.143-22.07-49.223-12.586 8.371-27.675 13.263-43.891 13.263s-31.305-4.892-43.891-13.263c-13.537 12.08-22.069 29.652-22.069 49.223v19.08h131.921z"/><path d="m80.96 248.45h30v53.55h50.961v-88.02h-131.921v88.02h50.96z"/><path d="m350.08 213.98v88.02h50.96v-53.55h30v53.55h50.96v-88.02z"/><path d="m482 164.9c0-19.571-8.532-37.143-22.07-49.223-12.586 8.371-27.675 13.263-43.891 13.263s-31.305-4.892-43.891-13.263c-13.538 12.08-22.07 29.652-22.07 49.223v19.08h131.922z"/><circle cx="95.96" cy="49.47" r="49.47"/><ellipse cx="416.04" cy="49.47" rx="49.47" ry="49.47" transform="matrix(.924 -.383 .383 .924 12.738 162.977)"/><path d="m0 332v30h212.53l-69.667 120h-36.363v30h299v-30h-36.364l-69.666-120h212.53v-30z"/></g></svg>