<svg id="Capa_1" enable-background="new 0 0 512 512" height="512" viewBox="0 0 512 512" width="512" xmlns="http://www.w3.org/2000/svg"><g><path d="m33.734 478.535h30v33.465h30v-33.465h324.532v33.465h30v-33.465h30v-37.469h-444.532z"/><path d="m425.738 306.556c-10.33 0-18.734 8.404-18.734 18.734 0 10.331 8.404 18.735 18.734 18.735s18.734-8.404 18.734-18.735c.001-10.33-8.404-18.734-18.734-18.734z"/><path d="m86.262 306.556c-10.331 0-18.735 8.404-18.735 18.734 0 10.331 8.404 18.735 18.735 18.735 10.33 0 18.734-8.404 18.734-18.735 0-10.33-8.404-18.734-18.734-18.734z"/><path d="m482 0h-452c-16.569 0-30 13.431-30 30v381.066h512v-381.066c0-16.569-13.431-30-30-30zm-395.738 374.025c-26.873 0-48.735-21.862-48.735-48.735 0-26.872 21.862-48.734 48.735-48.734 26.872 0 48.734 21.862 48.734 48.734 0 26.873-21.862 48.735-48.734 48.735zm252.207 0h-164.938v-97.47h164.938zm87.269 0c-26.872 0-48.734-21.862-48.734-48.735 0-26.872 21.862-48.734 48.734-48.734s48.734 21.862 48.734 48.734c.001 26.873-21.862 48.735-48.734 48.735zm48.793-135.365h-437.062v-152.457c0-26.872 21.862-48.734 48.734-48.734h339.594c26.872 0 48.734 21.862 48.734 48.734z"/><path d="m203.531 306.556h104.938v37.47h-104.938z"/><path d="m256 171.191c-23.719 0-43.803 15.825-50.273 37.469h100.545c-6.469-21.643-26.552-37.469-50.272-37.469z"/><path d="m425.797 67.469h-339.594c-10.33 0-18.734 8.404-18.734 18.734v122.457h107.455c2.952-15.988 10.523-30.367 21.283-41.707l-41.986-41.986 21.213-21.213 45.352 45.353c10.686-5.068 22.622-7.915 35.214-7.915 40.35 0 74 29.136 81.077 67.469h107.455v-122.458c-.001-10.33-8.405-18.734-18.735-18.734z"/></g></svg>