<svg id="Capa_1" enable-background="new 0 0 512 512" height="512" viewBox="0 0 512 512" width="512" xmlns="http://www.w3.org/2000/svg"><g><g><path d="m336.65 36.55c-15.97-22.11-42.14-36.55-71.65-36.55h-18c-29.51 0-55.68 14.44-71.65 36.55z"/></g><path d="m255 344.99c20.636.615 38.061-16.23 38-36.99-2.032-49.079-71.97-49.077-74 0 0 20.06 16.06 36.45 36 36.99z"/><g><path d="m195.5 181h-36.5v-31h36.5c8.55 0 15.5 6.95 15.5 15.5s-6.95 15.5-15.5 15.5z"/><path d="m316.5 150h36.5v31h-36.5c-8.55 0-15.5-6.95-15.5-15.5s6.95-15.5 15.5-15.5z"/><path d="m322.11 318.92c6.99-40.2-25.25-78.31-66.11-77.92-40.87-.39-73.09 37.72-66.11 77.92-34.33-32.44-31.34-66.75-30.88-107.92h36.49c25.09 0 45.5-20.41 45.5-45.5s-20.41-45.5-45.5-45.5h-36.5v-25c-.16-16.12 13.27-30.09 29.91-30h134.18c16.61-.08 30.02 13.82 29.91 29.91v25.09h-36.5c-25.09 0-45.5 20.41-45.5 45.5s20.41 45.5 45.5 45.5h36.49c.46 41.12 3.48 75.46-30.88 107.92z"/></g><path d="m222.769 366.144c-1.981-1.142-3.909-2.375-5.769-3.704.089 3.184-.064 39.426 0 43.68.07 10.98 9.01 19.88 20 19.88h38c11.027.001 20.002-8.973 20-20 .028-4.421-.02-40.171 0-43.56-20.691 15.177-50.103 16.715-72.231 3.704z"/><path d="m510.89 487.33c-22.778-57.464-81.83-97.122-143.63-96.47 0-.001-.4-.001-.4-.001l-41.86.1v15.04c.196 26.905-22.225 50.134-50 50h-38c-27.725.131-50.112-23.006-50-49.86 0-.037 0-15 0-15.04l-41.81-.1c-62.954-.869-122.94 40.17-145.19 99.021v21.98h512v-21.95z"/></g></svg>