<svg id="Capa_1" enable-background="new 0 0 512 512" height="512" viewBox="0 0 512 512" width="512" xmlns="http://www.w3.org/2000/svg"><g><circle cx="181" cy="165.073" r="15"/><circle cx="331" cy="165.073" r="15"/><path d="m376 390h-119.356c.001 0 .002-.001.003-.001 107.223-.35 194.353-87.695 194.353-194.999 0-107.52-87.48-195-195-195s-195 87.48-195 195c0 107.301 87.125 194.645 194.345 194.999.001 0 .002.001.003.001h-119.348c-57.891 0-105 47.109-105 105v17h450v-17c0-57.891-47.109-105-105-105zm-45-270c24.814 0 45 20.186 45 45s-20.186 45-45 45-45-20.186-45-45 20.186-45 45-45zm-195 45c0-24.814 20.186-45 45-45s45 20.186 45 45-20.186 45-45 45-45-20.186-45-45zm56.484 143.394-24.873-16.787c34.521-51.135 111.427-67.321 168.882-34.644l-14.854 26.074c-43.165-24.582-102.994-13.416-129.155 25.357z"/></g></svg>