<?xml version="1.0" encoding="iso-8859-1"?>
<!-- Generator: Adobe Illustrator 19.0.0, SVG Export Plug-In . SVG Version: 6.00 Build 0)  -->
<svg version="1.1" id="Layer_1" xmlns="http://www.w3.org/2000/svg" xmlns:xlink="http://www.w3.org/1999/xlink" x="0px" y="0px"
	 viewBox="0 0 512 512" style="enable-background:new 0 0 512 512;" xml:space="preserve">
<g>
	<g>
		<path d="M265.872,0L6.144,116.43l96.182,214.557l259.728-116.43L265.872,0z M157.635,111.928c13.67,0,24.751,11.081,24.751,24.75
			s-11.081,24.75-24.751,24.75c-13.67,0-24.75-11.081-24.75-24.75S143.966,111.928,157.635,111.928z M116.569,272.002l21.805-57.242
			l65.419,24.921l37.382-98.128l57.242,21.806l14.572,32.506l-191.974,86.058L116.569,272.002z"/>
	</g>
</g>
<g>
	<g>
		<path d="M389.541,242.92L163.957,344.044l-19.081,36.725L397.448,512l108.408-208.647L389.541,242.92z M316.136,284.027
			c10.713-8.491,26.28-6.689,34.771,4.023s6.689,26.28-4.023,34.771c-10.712,8.491-26.28,6.689-34.771-4.023
			C303.622,308.084,305.424,292.516,316.136,284.027z M381.621,461.94l-186.686-96.997l5.013-9.649l58.405-18.465l21.104,66.748
			l100.122-31.655l18.465,58.406L381.621,461.94z"/>
	</g>
</g>
<g>
</g>
<g>
</g>
<g>
</g>
<g>
</g>
<g>
</g>
<g>
</g>
<g>
</g>
<g>
</g>
<g>
</g>
<g>
</g>
<g>
</g>
<g>
</g>
<g>
</g>
<g>
</g>
<g>
</g>
</svg>
