<?xml version="1.0" encoding="iso-8859-1"?>
<!-- Generator: Adobe Illustrator 19.0.0, SVG Export Plug-In . SVG Version: 6.00 Build 0)  -->
<svg xmlns="http://www.w3.org/2000/svg" xmlns:xlink="http://www.w3.org/1999/xlink" version="1.1" id="Layer_1" x="0px" y="0px" viewBox="0 0 512 512" style="enable-background:new 0 0 512 512;" xml:space="preserve">
<g>
	<g>
		<path d="M350.867,422c-17.22-36.289-54.093-60-94.867-60s-77.647,23.711-94.867,60H101v90h310v-90H350.867z M256,457    c-11.028,0-20-8.972-20-20s8.972-20,20-20s20,8.972,20,20S267.028,457,256,457z"/>
	</g>
</g>
<g>
	<g>
		<path d="M135.782,88.153C113.353,115.68,101,150.43,101,186v206h30V186c0-46.224,25.929-88.062,65-109.627V43.077    C172.72,52.887,151.909,68.361,135.782,88.153z"/>
	</g>
</g>
<g>
	<g>
		<path d="M376.324,88.909C360.169,68.84,339.32,53.153,316,43.215v33.353c39.072,21.814,65,64.086,65,110.772V306    c0,8.271-6.729,15-15,15h-15V186c0-41.983-27.235-77.601-65-90.161V30c0-16.569-13.431-30-30-30c-16.569,0-30,13.431-30,30v65.839    c-37.765,12.56-65,48.178-65,90.161v185.219C185.918,346.61,219.995,332,256,332s70.082,14.61,95,39.219V351h15    c24.813,0,45-20.187,45-45V187.34C411,151.645,398.685,116.688,376.324,88.909z"/>
	</g>
</g>
<g>
</g>
<g>
</g>
<g>
</g>
<g>
</g>
<g>
</g>
<g>
</g>
<g>
</g>
<g>
</g>
<g>
</g>
<g>
</g>
<g>
</g>
<g>
</g>
<g>
</g>
<g>
</g>
<g>
</g>
</svg>
