<svg id="Capa_1" enable-background="new 0 0 510 510" height="512" viewBox="0 0 510 510" width="512" xmlns="http://www.w3.org/2000/svg"><g><path d="m0 510h26.361l136.79-136.791c-24.518-51.191-14.393-112.886 26.389-153.668 52.758-52.758 138.153-52.766 190.919 0 52.759 52.758 52.765 138.153 0 190.918-40.786 40.786-102.477 50.911-153.669 26.391l-73.15 73.15h356.36v-375h-510z"/><path d="m231.662 405.477c41.221 24.346 93.685 17.669 127.584-16.23 41.033-41.033 41.04-107.453 0-148.492-41.034-41.034-107.453-41.039-148.493 0-33.9 33.901-40.575 86.365-16.23 127.584l5.914 10.012-131.65 131.649h42.426l110.437-110.436zm2.878-140.936c27.886-27.888 73.028-27.893 100.919 0 27.888 27.886 27.892 73.028 0 100.918-13.478 13.479-31.398 20.901-50.459 20.901-39.438 0-71.36-31.915-71.36-71.36 0-19.061 7.422-36.981 20.9-50.459z"/><path d="m314.246 344.246c7.812-7.812 12.114-18.198 12.114-29.246s-4.302-21.434-12.114-29.246c-16.166-16.164-42.326-16.166-58.493 0-16.126 16.126-16.126 42.366 0 58.492 16.162 16.162 42.326 16.167 58.493 0z"/><path d="m0 0h105v105h-105z"/><path d="m135 0v105h375v-105zm195 75h-30v-30h30zm60 0h-30v-30h30zm60 0h-30v-30h30z"/></g></svg>