<svg id="Capa_1" enable-background="new 0 0 511.991 511.991" height="512" viewBox="0 0 511.991 511.991" width="512" xmlns="http://www.w3.org/2000/svg"><g><path d="m507.994 77.323c-11.08-26.746-41.852-39.492-68.595-28.413l-69.291 28.701 40.182 97.008 69.291-28.701c26.745-11.08 39.491-41.85 28.413-68.595z"/><path d="m174.724 158.541-.479.198c-12.956 5.367-23.046 15.457-28.413 28.413-3.394 8.194-4.635 16.913-3.736 25.493l-86.7 35.912 11.48 27.717 86.7-35.912c5.432 6.703 12.474 11.991 20.668 15.385 6.478 2.684 13.284 4.024 20.091 4.024 6.806 0 13.613-1.342 20.091-4.024l40.661-16.842z"/><path d="m325.171 47.517-27.717 11.481 17.221 41.574-109.951 45.543 80.364 80.364 69.769-28.899 17.221 41.574 27.716-11.48z"/><path d="m72.216 319.803-11.078-12.136-11.079 12.136c-.494.541-12.227 13.433-24.111 29.733-25.948 35.591-25.948 51.256-25.948 56.404 0 33.712 27.426 61.139 61.138 61.139s61.138-27.427 61.138-61.139c0-5.147 0-20.813-25.948-56.403-11.885-16.301-23.618-29.193-24.112-29.734z"/></g></svg>