<svg id="Capa_1" enable-background="new 0 0 510.637 510.637" height="512" viewBox="0 0 510.637 510.637" width="512" xmlns="http://www.w3.org/2000/svg"><g><path d="m251.713 235.637v-15h-36.54c.62-16.03 5.83-45.26 32.57-69.15-7.627-6.439-14.456-14.214-19.81-22.53-4.819 4.289-9.088 8.718-12.867 13.197-23.225-27.102-63.211-33.79-90.354-33.517v30c48.253 0 66.467 19.241 72.979 30.423-7.894 15.786-12.238 37.044-12.448 51.577h-31.53v15c0 37.47-8.59 64.89-16.89 91.41-7.26 23.18-14.11 45.08-14.11 70.59 1.934 55.79 28.501 100.571 34.4 113h91.2c5.868-12.381 32.454-57.137 34.401-113-.001-25.51-6.861-47.41-14.111-70.59-8.31-26.52-16.89-53.94-16.89-91.41z"/><path d="m377.493 10.957c-14.12-14.4-37.24-14.64-51.65-.52l-5.11 5 51.13 52.17 5.1-5c14.409-14.12 14.64-37.24.53-51.65z"/><path d="m275.103 11.727-11.86 11.62c-36.445 35.419-24.008 97.18 21.9 116.39 25.786 11.238 57.818 5.386 77.759-14.69 0 0 11.86-11.62 11.86-11.62-15.581-15.905-99.659-101.7-99.659-101.7z"/></g></svg>