<svg id="Capa_1" enable-background="new 0 0 512 512" height="512" viewBox="0 0 512 512" width="512" xmlns="http://www.w3.org/2000/svg"><g><path d="m219.874 60.321v-19.134l22.447-17.676-18.513-23.511-33.86 26.661v57.458c7.974-10.063 18.2-18.256 29.926-23.798z"/><path d="m320.967 84.119v-57.458l-33.86-26.661-18.512 23.511 22.447 17.676v19.135c11.725 5.541 21.951 13.735 29.925 23.797z"/><path d="m308.969 125.221c-4.986-24.986-27.082-43.875-53.512-43.875s-48.526 18.889-53.512 43.875c2.429-.199 104.596-.199 107.024 0z"/><path d="m377.131 166.809 68.202-64.133v-102.676h-29.925v89.738l-58.191 54.72c7.823 6.269 14.569 13.827 19.914 22.351z"/><path d="m390.688 236.161h77.933l43.379-43.378-21.16-21.16-34.614 34.613h-65.88c.222 2.557.342 29.925.342 29.925z"/><path d="m403.246 282.19 1.333 2.879c5.088 10.989 9.152 22.314 12.213 33.844l37.518 13.571 28.686 112.892 29.004-7.37-32.592-128.267z"/><path d="m154.283 143.987-57.691-54.25v-89.737h-29.925v102.676l67.519 63.491c5.414-8.474 12.221-15.976 20.097-22.18z"/><path d="m120.568 206.236h-64.795l-34.613-34.613-21.16 21.16 43.378 43.378h76.849s.12-27.368.341-29.925z"/><path d="m107.45 282.661-74.859 27.077-32.591 128.267 29.004 7.37 28.685-112.892 36.318-13.136c3.073-11.679 7.177-23.15 12.328-34.277z"/><path d="m255.457 282.652 106.218-53.328.013.008v-15.338c0-33.128-26.952-60.08-60.08-60.08h-92.302c-33.128 0-60.08 26.952-60.08 60.08v25.498z"/><path d="m362.15 262.453-106.692 53.847-109.771-47.197-13.035 28.151c-18.635 40.251-21.508 85.702-8.089 127.979 8.046 25.35 23.644 47.051 45.107 62.758s46.867 24.009 73.464 24.009h24.647c26.596 0 52-8.302 73.464-24.008 21.464-15.707 37.063-37.409 45.108-62.759 13.419-42.277 10.545-87.727-8.091-127.979z"/></g></svg>