<svg id="Capa_1" enable-background="new 0 0 512 512" height="512" viewBox="0 0 512 512" width="512" xmlns="http://www.w3.org/2000/svg"><g><path d="m211 512c16.538 0 30-13.462 30-30 0-12.48-7.866-23.789-19.6-28.154l-160.785-59.063c-4.98-1.845-10.224-2.783-15.615-2.783-24.814 0-45 20.186-45 45 0 21.782 15.542 40.415 36.958 44.282z"/><path d="m467 392c-5.376 0-10.62.938-15.601 2.783l-160.829 59.063c-11.704 4.365-19.57 15.674-19.57 28.154 0 16.538 13.462 30 30 30h.688l173.354-30.718c21.416-3.867 36.958-22.5 36.958-44.282 0-24.814-20.186-45-45-45z"/><path d="m482 302c-63.721 0-136-52.313-136-121 0-16.538-13.462-30-30-30h-120c-16.538 0-30 13.462-30 30 0 68.687-72.279 121-136 121-16.538 0-30 13.462-30 30s13.462 30 30 30c53.115 0 128.104-24.771 165.048-79.16.615 6.343.952 12.744.952 19.16 0 42.724-12.307 75.736-22.451 102.177l58.251 21.53c9.738 3.622 17.686 10.031 24.188 17.609 6.482-7.566 14.399-13.967 24.093-17.58l58.257-21.528c-9.215-23.998-22.338-61.311-22.338-102.208 0-6.416.337-12.832.952-19.16 36.944 54.389 111.933 79.16 165.048 79.16 16.538 0 30-13.462 30-30s-13.462-30-30-30z"/><path d="m316 61c0-33.138-26.863-61-60-61s-60 27.862-60 61c0 33.137 26.863 60 60 60s60-26.863 60-60z"/></g></svg>