<svg id="Capa_1" enable-background="new 0 0 512 512" height="512" viewBox="0 0 512 512" width="512" xmlns="http://www.w3.org/2000/svg"><g><path d="m267.339 128.914c-.03-6.228-5.104-11.284-11.339-11.284-6.252 0-11.339 5.087-11.339 11.339.211 3.791 4.812 14.455 11.335 26.916 6.512-12.443 11.108-23.107 11.343-26.971z"/><path d="m232.027 338.323h47.945v38.544h-47.945z"/><path d="m188.578 197.35c0 6.233 5.056 11.309 11.282 11.34 3.837-.241 14.275-4.838 26.402-11.34-12.16-6.52-22.623-11.123-26.434-11.341-6.163.002-11.25 5.089-11.25 11.341z"/><path d="m429.727 46.231h-347.454l28.627 262.081h290.2zm-117.645 192.459c-10.356 0-26.751-7.39-41.082-15.125v36.942h-30v-36.942c-14.331 7.735-30.726 15.125-41.082 15.125-22.795 0-41.34-18.545-41.34-41.34 0-22.794 18.545-41.339 41.34-41.339 6.902 0 16.488 3.283 26.357 7.762-6.313-12.757-11.614-26.065-11.614-34.804 0-22.794 18.545-41.339 41.339-41.339s41.339 18.545 41.339 41.339c0 8.739-5.301 22.047-11.614 34.804 9.869-4.479 19.456-7.762 26.357-7.762 22.795 0 41.34 18.545 41.34 41.339 0 22.795-18.545 41.34-41.34 41.34z"/><path d="m309.973 376.867h83.639l4.211-38.555h-87.85z"/><path d="m202.027 338.312h-87.85l4.211 38.555h83.639z"/><path d="m312.082 186.011c-3.754.216-14.195 4.819-26.347 11.338 12.126 6.502 22.567 11.1 26.404 11.341 6.227-.031 11.282-5.106 11.282-11.34.001-6.252-5.086-11.339-11.339-11.339z"/><path d="m452.618 405.867h-393.236c-32.743 0-59.382 26.872-59.382 59.902h512c0-33.03-26.639-59.902-59.382-59.902z"/></g></svg>