<svg id="Capa_1" enable-background="new 0 0 508.449 508.449" height="512" viewBox="0 0 508.449 508.449" width="512" xmlns="http://www.w3.org/2000/svg"><g id="XMLID_744_"><circle id="XMLID_748_" cx="254.225" cy="210.027" r="30"/><path id="XMLID_776_" d="m142.656 90.902-43.823 72.037c3.84 14.117 12.866 37.678 28.45 67.414 22.063 42.1 58.921 103.814 126.941 161.597 68.019-57.78 104.877-119.497 126.941-161.597 15.468-29.516 22.848-53.398 26.242-67.467l-41.817-71.984zm201.569 134.125h-31.898c-1.42 5.496-3.612 10.683-6.436 15.453l22.58 22.58-21.213 21.213-22.58-22.58c-4.771 2.823-9.957 5.016-15.453 6.436v31.898h-30v-31.898c-5.497-1.42-10.684-3.612-15.454-6.436l-22.579 22.58-21.213-21.213 22.579-22.58c-2.823-4.771-5.015-9.957-6.435-15.453h-31.898v-30h31.898c1.42-5.497 3.611-10.684 6.435-15.454l-22.579-22.579 21.213-21.213 22.579 22.579c4.771-2.823 9.957-5.015 15.454-6.435v-31.898h30v31.898c5.496 1.42 10.683 3.611 15.453 6.434l22.58-22.578 21.213 21.213-22.58 22.578c2.823 4.771 5.016 9.958 6.436 15.455h31.898z"/><path id="XMLID_805_" d="m434.858.027h-361.267l-73.591 146.85c1.877 38.252 18.012 84.01 34.855 118.732 71.929 148.272 206.662 232.025 219.369 242.812 13.013-11.047 147.477-94.615 219.368-242.812 16.96-34.963 32.987-80.647 34.856-118.732zm-27.12 244.252c-66.554 126.985-148.404 180.915-153.514 186.455-5.525-5.991-86.452-58.494-153.514-186.455-29.784-56.832-33.299-84.957-33.809-86.574l58.89-96.803h257.066l56.333 96.973c-1.073 4.402-6.303 38.416-31.452 86.404z"/></g></svg>