<svg id="Capa_1" enable-background="new 0 0 512 512" height="512" viewBox="0 0 512 512" width="512" xmlns="http://www.w3.org/2000/svg"><g><path d="m331 30h30v30h-30z"/><path d="m391 30h30v30h-30z"/><path d="m451 30h30v30h-30z"/><path d="m31 30h30v30h-30z"/><path d="m91 30h30v30h-30z"/><path d="m151 30h30v30h-30z"/><path d="m478.266 205.721h-444.532v69.925h102.46v131.417h-102.46v37.469h139.797v-119.399c0-45.474 36.995-82.469 82.469-82.469s82.469 36.995 82.469 82.469v119.398h139.797v-37.469h-102.46v-131.416h102.46z"/><path d="m33.734 305.646h72.46v71.417h-72.46z"/><path d="m0 474.531h512v37.469h-512z"/><path d="m473.875 128.252h-202.875v-40.832c17.459-6.192 30-22.865 30-42.42 0-24.813-20.187-45-45-45s-45 20.187-45 45c0 19.555 12.541 36.228 30 42.42v40.832h-202.875l-38.125 47.469h512z"/><path d="m203.531 407.062h104.938v37.469h-104.938z"/><path d="m405.806 305.646h72.46v71.417h-72.46z"/><path d="m308.469 325.133c0-28.932-23.537-52.469-52.469-52.469s-52.469 23.537-52.469 52.469v51.93h104.938z"/></g></svg>