<svg id="Capa_1" enable-background="new 0 0 511.174 511.174" height="512" viewBox="0 0 511.174 511.174" width="512" xmlns="http://www.w3.org/2000/svg"><g id="XMLID_286_"><path id="XMLID_294_" d="m126.042 246.348v157.388h259.09v-157.388zm174.823 93.451h-30.278v30.278h-30v-30.278h-30.278v-30h30.278v-30.278h30v30.278h30.278z"/><path id="XMLID_295_" d="m385.132 216.348v-10.913c0-31.492-21.134-59.583-51.393-68.312l-20.388-5.881v-28.8h-115.528v28.8l-20.388 5.881c-30.259 8.729-51.393 36.82-51.393 68.312v10.913z"/><path id="XMLID_296_" d="m126.042 433.736h259.09v77.438h-259.09z"/><path id="XMLID_297_" d="m313.352 72.443v-15.898h31.271v-30h-31.494c-1.792-14.931-14.528-26.545-29.934-26.545h-55.215c-16.629 0-30.157 13.528-30.157 30.157v42.286z"/></g></svg>