<svg id="Capa_1" enable-background="new 0 0 512.024 512.024" height="512" viewBox="0 0 512.024 512.024" width="512" xmlns="http://www.w3.org/2000/svg"><g id="Tissues_1_"><g><path d="m361.012 392.024h-210c-16.538 0-30 13.462-30 30s13.462 30 30 30h210c16.538 0 30-13.462 30-30s-13.462-30-30-30z"/><path d="m512.012 302.024v-150h-79.572c-1.963 12.996-2.653 17.835-4.444 30h23.016v90c-126.632 0-234.796 0-390 0v-90h22.568l-4.616-30h-78.952v150z"/><path d="m.012 332.024v180h512v-180zm361 150h-210c-33.091 0-60-26.909-60-60s26.909-60 60-60h210c33.091 0 60 26.909 60 60s-26.909 60-60 60z"/></g><path d="m426.637 0-29.135 20.024c-11.06 7.603-44.575 27-66.489 27-11.074 0-18.984-5.449-28.989-12.349-11.396-7.866-25.591-17.651-46.011-17.651s-34.614 9.785-46.011 17.651c-10.005 6.899-17.915 12.349-28.989 12.349-21.914 0-55.43-19.397-66.489-27l-28.595-19.658 32.62 211.658h-27.537v30c24.188 0 93.081 0 90 0v-120h30v120h30v-120h30v120h30v-120h30v120c4.955 0 95.253 0 90 0v-30h-27.636c6.837-47.05 22.555-152.933 33.261-212.024z"/></g></svg>