<?xml version="1.0" encoding="iso-8859-1"?>
<!-- Generator: Adobe Illustrator 19.0.0, SVG Export Plug-In . SVG Version: 6.00 Build 0)  -->
<svg xmlns="http://www.w3.org/2000/svg" xmlns:xlink="http://www.w3.org/1999/xlink" version="1.1" id="Layer_1" x="0px" y="0px" viewBox="0 0 512 512" style="enable-background:new 0 0 512 512;" xml:space="preserve">
<g>
	<g>
		<path d="M256,105.439c0,0-70.623,60.136-70.623,134.317c0,74.181,70.623,134.317,70.623,134.317s70.623-60.136,70.623-134.317    C326.623,165.575,256,105.439,256,105.439z"/>
	</g>
</g>
<g>
	<g>
		<path d="M196.416,352.363c-11.646-16.033-20.98-32.484-27.742-48.897c-8.823-21.415-13.297-42.85-13.297-63.711    c0-20.861,4.474-42.296,13.297-63.711c0.158-0.383,0.324-0.766,0.484-1.148c-36.615-15.625-70.846-18.308-70.846-18.308    s-21.876,90.14,21.668,150.197c21.836,30.116,55.972,46.946,84.584,56.244C201.878,359.677,199.145,356.121,196.416,352.363z"/>
	</g>
</g>
<g>
	<g>
		<path d="M195.018,391.473c-18.84-6.145-36.053-13.985-51.162-23.302c-19.713-12.158-35.918-26.886-48.163-43.775    c-12.236-16.877-21.193-36.84-26.621-59.337C29.739,274.125,0,292.659,0,292.659s35.904,85.526,106.596,108.008    c35.684,11.348,73.405,4.462,102.02-5.139C204.247,394.341,199.697,392.999,195.018,391.473z"/>
	</g>
</g>
<g>
	<g>
		<path d="M413.687,156.59c0,0-34.23,2.683-70.846,18.308c0.161,0.383,0.327,0.766,0.484,1.148    c8.824,21.414,13.298,42.85,13.298,63.71c0,20.861-4.474,42.296-13.297,63.711c-6.762,16.412-16.096,32.863-27.742,48.897    c-2.729,3.758-5.462,7.313-8.148,10.666c28.612-9.298,62.749-26.128,84.583-56.243C435.563,246.73,413.687,156.59,413.687,156.59z    "/>
	</g>
</g>
<g>
	<g>
		<path d="M442.927,265.059c-5.428,22.497-14.384,42.46-26.621,59.337c-12.245,16.889-28.449,31.616-48.163,43.775    c-15.108,9.318-32.322,17.158-51.162,23.302c-4.679,1.526-9.229,2.868-13.598,4.055c28.615,9.602,66.336,16.488,102.02,5.139    C476.096,378.185,512,292.659,512,292.659S482.261,274.125,442.927,265.059z"/>
	</g>
</g>
<g>
</g>
<g>
</g>
<g>
</g>
<g>
</g>
<g>
</g>
<g>
</g>
<g>
</g>
<g>
</g>
<g>
</g>
<g>
</g>
<g>
</g>
<g>
</g>
<g>
</g>
<g>
</g>
<g>
</g>
</svg>
