<svg id="Capa_1" enable-background="new 0 0 511.503 511.503" height="512" viewBox="0 0 511.503 511.503" width="512" xmlns="http://www.w3.org/2000/svg"><g id="XMLID_1025_"><path id="XMLID_1028_" d="m145.177 141.836c-.004 7.353-.013 25.656-.016 42.697h221.18v-42.697z"/><path id="XMLID_1029_" d="m145.171 214.533c.002 1.702.005 3.062.009 3.981.214 54.202 20.796 106.49 57.031 146.323h38.545v-46.333h30v46.333h38.554c36.235-39.833 56.817-92.122 57.032-146.336v-3.967h-221.171z"/><path id="XMLID_1030_" d="m216.183 394.837-11.88 62.666h102.914l-11.879-62.666z"/><path id="XMLID_1031_" d="m209.76 80.858c6.537-3.114 11.957-8.198 15.5-14.479 3.543 6.28 8.963 11.365 15.501 14.479v30.978h30v-30.978c6.537-3.114 11.957-8.198 15.5-14.479 3.543 6.28 8.963 11.365 15.5 14.479v30.978h30v-30.978c11.814-5.628 20.001-17.683 20.001-31.617v-49.241h-61.001-9-52.001-9-61v49.242c0 13.934 8.186 25.989 20 31.616v30.978h30z"/><path id="XMLID_1034_" d="m240.761 487.503h30v24h-30z"/></g></svg>