<svg id="Capa_1" enable-background="new 0 0 512.074 512.074" height="512" viewBox="0 0 512.074 512.074" width="512" xmlns="http://www.w3.org/2000/svg"><g><path d="m401.917 245.824v-87.938c-11.514 5.03-24.171 7.909-37.466 8.128v79.884c0 35.054-15.012 66.471-38.601 87.482l9.014 31.016 49.99 15.167c27.531-8.82 52.097-32.045 51.999-59.544-22.126-18.287-34.936-45.492-34.936-74.195z"/><path d="m362.814 136.034c37.555 0 68-30.445 68-68s-30.445-68-68-68-68 30.445-68 68 30.445 68 68 68zm-41.833-83h26.833v-26.833h30v26.833h26.833v30h-26.833v26.833h-30v-26.833h-26.833z"/><path d="m319.452 458.958c16.939-.789 38.077-10.058 46.604-33.701l6.509-18.075-39.21-11.896c-9.454 27.317-29.296 43.977-50.973 51.264 11.173 9.637 25.31 12.954 37.07 12.408z"/><path d="m0 512.041h68.25v-52.394h30v52.394h315.543v-52.394h30v52.394h68.281c-11.242-41.99-44.109-76.016-87.453-89.064l-23.312-7.073-7.031 19.525c-11.329 31.418-39.465 51.915-73.43 53.498-1.4.065-2.798.098-4.184.098-23.87 0-45.462-9.609-60.644-26.338-15.182 16.729-36.775 26.338-60.643 26.338-1.388 0-2.781-.032-4.184-.098-33.965-1.583-62.101-22.08-73.428-53.491l-7.052-19.526-23.263 7.058c-43.282 13.13-76.145 47.153-87.45 89.073z"/><path d="m256.021 420.889c19.661 0 44.455-11.54 51.301-43.762l-7.69-26.457c-13.352 6.217-28.105 9.677-43.611 9.677s-30.259-3.461-43.611-9.677l-7.69 26.457c6.847 32.223 31.641 43.762 51.301 43.762z"/><path d="m227.479 134.555c-11.729 16.302-29.435 28.021-49.887 31.922v79.42c0 46.566 35.183 84.45 78.429 84.45s78.429-37.884 78.429-84.45v-78.008h-42.084c-26.695 0-50.372-13.159-64.887-33.334zm62.186 151.131h-67.287v-30h67.287z"/><path d="m127.188 379.561 49.991-15.166 9.014-31.016c-23.589-21.011-38.601-52.428-38.601-87.482v-108.008h15c27.508 0 49.887-22.379 49.887-49.887h30c0 27.508 22.379 49.887 49.887 49.887h1.79c-18.098-17.791-29.342-42.533-29.342-69.855 0-24.566 9.088-47.049 24.076-64.267-10.588-2.441-21.613-3.739-32.944-3.733-80.774.041-145.82 66.518-145.82 147.292v98.498c0 28.704-12.81 55.909-34.936 74.194-.098 27.498 24.467 50.723 51.998 59.543z"/><path d="m145.985 425.251c8.528 23.649 29.666 32.918 46.605 33.707 11.766.552 25.902-2.767 37.074-12.407-21.679-7.287-41.522-23.947-50.977-51.265l-39.227 11.901z"/></g></svg>