<svg id="Capa_1" enable-background="new 0 0 512.008 512.008" height="512" viewBox="0 0 512.008 512.008" width="512" xmlns="http://www.w3.org/2000/svg"><g><path d="m90.028 400.077h-54.063l-14.975 111.826 63.469.029z"/><path d="m222.921 400.077h-42.385l5.572 111.9 28.145.013z"/><path d="m156.07 511.964-5.571-111.887h-30.434l-5.57 111.868z"/><path d="m309.368 399.965-56.809 112.043h235.336l-55.145-112.043z"/><path d="m37.84 370.077h182.896v-40.973l-182.896-.096z"/><path d="m96.357 0h65.863v229h-65.863z"/><path d="m337.134 197.589h65.863v101.523h-65.863z"/><path d="m96.357 299.039 65.863.034v-40.073h-65.863z"/><path d="m248.925 452.835 42.018-82.87h160.479l39.596 80.452-9.395-121.305h-223.116z"/></g></svg>