<svg id="Capa_1" enable-background="new 0 0 512.017 512.017" height="512" viewBox="0 0 512.017 512.017" width="512" xmlns="http://www.w3.org/2000/svg"><g><path d="m46.374 469.557c11.009-7.345 24.286-14.067 39.701-20.015 45.629-17.604 105.979-27.3 169.933-27.3s124.304 9.695 169.933 27.3c15.416 5.948 28.692 12.67 39.701 20.015-7.804-27.386-21.131-53.116-39.338-75.348-28.672-35.009-68.131-59.953-111.706-70.781-2.289 13.125-7.331 25.262-14.771 35.182-11.235 14.981-27.207 23.574-43.819 23.574s-32.584-8.593-43.819-23.574c-7.44-9.919-12.481-22.056-14.771-35.181-43.573 10.827-83.032 35.77-111.704 70.779-18.208 22.231-31.535 47.961-39.34 75.349z"/><path d="m256.008 452.242c-60.352 0-116.866 8.981-159.134 25.289-25.977 10.022-44.524 22.23-53.136 34.485h424.54c-8.613-12.255-27.16-24.463-53.136-34.485-42.267-16.307-98.782-25.289-159.134-25.289z"/><path d="m271.008 234.557v-30.802c13.883-12.963 48.809-50.094 48.809-95.571 0-55.549-52.114-98.654-54.333-100.462l-9.476-7.722-9.476 7.722c-2.218 1.807-54.332 44.913-54.332 100.462 0 45.477 34.925 82.608 48.809 95.571v30.802c4.861-1.556 9.9-2.374 15-2.374s10.138.818 14.999 2.374z"/><path d="m214.54 252.807-28.121-23.596c-1.006-18.967-7-69.589-41.839-98.822-42.552-35.706-109.07-23.489-111.883-22.954l-12.005 2.296-.176 12.222c-.042 2.861-.52 70.49 42.033 106.196 24.951 20.938 58.138 25.397 81.894 25.397 9.41 0 17.341-.701 22.693-1.354l32.942 27.641c2.742-8.85 6.821-17.024 12.11-24.076.762-1.015 1.549-1.995 2.352-2.95z"/><path d="m311.938 279.833 32.941-27.641c5.352.654 13.282 1.354 22.694 1.354 23.756 0 56.944-4.462 81.894-25.397 42.553-35.706 42.075-103.335 42.033-106.196l-.176-12.222-12.005-2.296c-2.813-.537-69.33-12.753-111.883 22.954-34.838 29.233-40.833 79.854-41.839 98.822l-28.121 23.596c.803.956 1.59 1.935 2.351 2.95 5.29 7.052 9.369 15.225 12.111 24.076z"/><ellipse cx="256.008" cy="307.184" rx="30" ry="45"/></g></svg>