<svg id="Capa_1" enable-background="new 0 0 510 510" height="512" viewBox="0 0 510 510" width="512" xmlns="http://www.w3.org/2000/svg"><g><path d="m510 217.5c0-16.568-13.432-30-30-30h-105l4.394-21.967c4.341-21.703 3.058-43.939-3.449-64.686-6.26-19.953-25.009-33.347-45.922-33.347h-15.023c0 29.13-9.914 57.393-28.111 80.139-20.155 25.195-50.671 39.861-82.936 39.861h-8.953v210l105 30h180c16.568 0 30-13.432 30-30 0-16.568-13.432-30-30-30 16.568 0 30-13.432 30-30 0-16.568-13.432-30-30-30 16.568 0 30-13.432 30-30 0-16.568-13.432-30-30-30 16.568 0 30-13.432 30-30z"/><path d="m0 442.5h165v-285h-165zm75-75h30v30h-30z"/></g></svg>