<svg id="Capa_1" enable-background="new 0 0 512 512" height="512" viewBox="0 0 512 512" width="512" xmlns="http://www.w3.org/2000/svg"><g><g id="Mental_Health_1_"><g><path d="m242 226c0-50.592 25.349-95.217 63.834-122.399-9.52-9.701-20.771-17.756-33.834-22.43v-5.171c0-33.091-26.924-60-60-60-10.995 0-21.127 3.246-30 8.434v126.566h15c8.262 0 15-6.724 15-15h30c0 24.814-20.186 45-45 45h-15v90h15c24.814 0 45 20.186 45 45h-30c0-8.276-6.738-15-15-15h-15v126.566c8.873 5.187 19.005 8.434 30 8.434 33.076 0 60-26.909 60-60v-5.171c13.063-4.675 24.315-12.729 33.834-22.43-38.485-27.182-63.834-71.807-63.834-122.399z"/><path d="m152 301h-15c-8.262 0-15 6.724-15 15h-30c0-24.814 20.186-45 45-45h15v-90h-15c-24.814 0-45-20.186-45-45h30c0 8.276 6.738 15 15 15h15v-126.566c-8.873-5.188-19.005-8.434-30-8.434-33.076 0-60 26.909-60 60v5.112c-35.391 12.495-62 46.421-62 84.888 0 22.441 10.291 43.55 25.145 60-14.854 16.45-25.145 37.559-25.145 60 0 38.452 26.609 72.378 62 84.888v5.112c0 33.091 26.924 60 60 60 10.995 0 21.127-3.246 30-8.434z"/></g><path d="m392 106c-66.275 0-120 53.725-120 120 0 66.273 53.725 120 120 120s120-53.727 120-120c0-66.275-53.725-120-120-120zm-15 150h-30v-30h30zm0-60v-30h30v30zm60 60h-30v-30h30z"/></g><path d="m392 376c-5.136 0-9.994-1.009-15-1.516v121.516h30v-121.516c-5.006.507-9.864 1.516-15 1.516z"/></g></svg>