<svg id="Capa_1" enable-background="new 0 0 512 512" height="512" viewBox="0 0 512 512" width="512" xmlns="http://www.w3.org/2000/svg"><g><path d="m211 392h30v120h-30z"/><path d="m211 0h30v30h-30z"/><path d="m301 422h30v90h-30z"/><path d="m268.053 132.734c-12.052-8.037-26.512-12.734-42.053-12.734-41.906 0-76 34.094-76 76 0 15.541 4.697 30.001 12.734 42.053z"/><path d="m183.947 259.266c12.052 8.037 26.512 12.734 42.053 12.734 41.906 0 76-34.094 76-76 0-15.541-4.697-30.001-12.734-42.053z"/><path d="m392 332v-272h-332v272zm-272-136c0-58.448 47.552-106 106-106s106 47.552 106 106-47.552 106-106 106-106-47.552-106-106z"/><path d="m180 362h31v30h-31z"/><path d="m422 180v182h-181v30h211v-212z"/></g></svg>