<svg id="Capa_1" enable-background="new 0 0 512 512" height="512" viewBox="0 0 512 512" width="512" xmlns="http://www.w3.org/2000/svg"><g><path d="m211 316c0 24.814 20.186 45 45 45 6.927 0 13.412-1.703 19.279-4.51l-59.769-59.769c-2.807 5.867-4.51 12.352-4.51 19.279z"/><path d="m391 121h-270v285c0 8.276 6.724 15 15 15h240c8.276 0 15-6.724 15-15zm-210 30h30v30h30v30h-30v-30h-30zm75 240c-41.353 0-75-33.647-75-75s33.647-75 75-75 75 33.647 75 75-33.647 75-75 75z"/><path d="m256 271c-6.927 0-13.412 1.703-19.279 4.51l59.769 59.769c2.807-5.867 4.51-12.352 4.51-19.279 0-24.814-20.186-45-45-45z"/><path d="m121 0h270v91h-270z"/><path d="m391 448.237c-4.715 1.681-9.716 2.763-15 2.763h-240c-5.284 0-10.285-1.082-15-2.763v63.763h270z"/></g></svg>