<svg id="Capa_1" enable-background="new 0 0 512 512" height="512" viewBox="0 0 512 512" width="512" xmlns="http://www.w3.org/2000/svg"><g><path d="m165.062 41.974h62.209v-41.974h-159.922v512h159.922v-38.131h-62.209v-30h62.209v-36.983h-62.209v-30h62.209v-36.982h-62.209v-30h62.209v-36.983h-62.209v-30h62.209v-36.982h-62.209v-30h62.209v-36.982h-62.209v-30h62.209v-36.983h-62.209z"/><path d="m313.323 0h29.995v29.282h-29.995z"/><path d="m271.981 437.056 41.342 47.369v27.575h29.995v-27.575l41.343-47.369v-.102h-112.68z"/><path d="m271.981 59.282h112.68v34.63h-112.68z"/><path d="m384.949 94.467v29.445h-112.968v283.042h112.68v-270.355l29.995 29.995v80.026h29.995v-92.451z"/></g></svg>