<svg id="Capa_1" enable-background="new 0 0 509.414 509.414" height="512" viewBox="0 0 509.414 509.414" width="512" xmlns="http://www.w3.org/2000/svg"><g><path d="m104.707 283.49v1.777c0 95.664 56.487 182.586 143.907 221.44l6.093 2.707 6.092-2.707c87.421-38.854 143.908-125.775 143.908-221.44v-1.777c-11.554 2.355-288.459 2.353-300 0z"/><path d="m314.707 60h-30v-60h-60v60h-30c-66.169 0-120 53.831-120 120v30c0 24.812 20.186 45 45 45h270c24.813 0 45-20.188 45-45v-30c0-66.169-53.832-120-120-120zm-135 135h-30v-30h30zm45-45h-30v-30h30zm45 45h-30v-30h30zm45-45h-30v-30h30zm45 45h-30v-30h30z"/></g></svg>