<svg id="Layer_1" enable-background="new 0 0 505.606 505.606" height="512" viewBox="0 0 505.606 505.606" width="512" xmlns="http://www.w3.org/2000/svg"><g><path d="m74.999 321.967v63.639h63.64l75.001-75h-127.279z"/><path d="m74.999 505.606c16.569 0 30-13.431 30-30 0-16.568-30-90-30-90s-30 73.432-30 90c0 16.569 13.432 30 30 30z"/><path d="m445.031 15.576c-22.704-22.704-60.197-20.261-79.764 5.197l-66.577 79.41 63.385 63.384 78.574-68.866c24.748-19.799 26.793-56.714 4.382-79.125z"/><path d="m257.131 98.476h60v150h-60z" transform="matrix(.707 -.707 .707 .707 -38.567 253.842)"/><path d="m116.36 280.606h127.279l32.885-32.884-63.64-63.64z"/></g></svg>