<svg id="Capa_1" enable-background="new 0 0 512 512" height="512" viewBox="0 0 512 512" width="512" xmlns="http://www.w3.org/2000/svg"><g><path d="m348.9 445h-185.8c-3.549 9.769-6.34 19.765-8.44 30h202.68c-2.1-10.235-4.892-20.231-8.44-30z"/><path d="m181.85 406h148.31c-6.33-10.453-13.545-20.481-21.29-30h-105.73c-7.752 9.518-14.963 19.548-21.29 30z"/><path d="m163.1 67h185.8c3.549-9.769 6.34-19.765 8.44-30h-202.68c2.1 10.235 4.891 20.231 8.44 30z"/><path d="m308.87 136c7.745-9.518 14.96-19.548 21.29-30h-148.31c6.328 10.453 13.538 20.481 21.29 30z"/><path d="m233.46 301.57c-9.635-8.442-19.266-16.811-28.91-25.35-68.89 60.729-120.13 140.386-122.06 235.78h37.5c1.908-86.476 50.673-155.408 113.47-210.43z"/><path d="m278.55 210.43c9.628 8.442 19.27 16.811 28.91 25.35 68.741-60.5 120.242-140.65 122.05-235.78h-37.49c-1.916 86.47-50.672 155.418-113.47 210.43z"/><path d="m307.46 276.22c-89.305-81.259-182.243-143.139-187.47-276.22h-37.5c10.526 261.376 299.428 274.407 309.53 512h37.49c-1.802-95.122-53.315-175.29-122.05-235.78z"/></g></svg>