<svg id="Capa_1" enable-background="new 0 0 510 510" height="512" viewBox="0 0 510 510" width="512" xmlns="http://www.w3.org/2000/svg"><g><path d="m0 .35v390h143.764c-9.73-23.965-11.321-50.398-4.967-75h-48.797v-15c0-8.272-6.729-15-15-15h-15v-210h15c8.271 0 15-6.729 15-15v-15h330v15c0 8.271 6.728 15 15 15h15v210h-15c-8.272 0-15 6.728-15 15v15h-48.797c6.341 24.545 4.785 50.981-4.967 75h143.764v-390h-510z"/><path d="m345 345.35c0-49.626-40.374-90-90-90s-90 40.374-90 90c0 49.627 40.374 90 90 90s90-40.373 90-90zm-45 15h-30v30h-30v-30h-30v-30h30v-30h30v30h30z"/><path d="m240 330.35h30v30h-30z"/><path d="m255 225.35c43.227 0 82.551 23.191 103.891 60h33.68c4.526-12.768 14.662-22.902 27.43-27.43v-155.141c-12.768-4.526-22.903-14.662-27.43-27.43h-275.141c-4.527 12.768-14.662 22.903-27.43 27.43v155.141c12.768 4.527 22.902 14.662 27.43 27.43h33.68c21.14-36.466 60.264-60 103.89-60zm-105-120h210v30h-210zm-15 90v-30h240v30z"/><path d="m158.687 416.851-28.018 45.939 76.838 46.861 27.988-45.894c-31.324-5.143-58.606-22.452-76.808-46.906z"/><path d="m275.21 463.64 28.261 45.724 76.559-47.318-28.293-45.774c-18.066 24.574-45.253 42.04-76.527 47.368z"/></g></svg>