<svg id="Capa_1" enable-background="new 0 0 512.001 512.001" height="512" viewBox="0 0 512.001 512.001" width="512" xmlns="http://www.w3.org/2000/svg"><path d="m488.39 202.648c0-111.92-90.728-202.648-202.648-202.648-90.163 0-166.564 58.878-192.868 140.28l-9.76 60.392-59.504 98.703v29.919h47.385l20.165 110.15h112.918l17.139 72.557h228.021l-28.235-158.448c41.367-37.101 67.387-90.969 67.387-150.905zm-234.159 67.685h-30v-115.081l-21.288 21.288-21.213-21.213 57.501-57.501 57.501 57.501-21.213 21.213-21.288-21.288zm84.999.547-57.501-57.501 21.213-21.213 21.288 21.288v-115.081h30v115.082l21.287-21.288 21.213 21.213z"/></svg>