<svg id="Capa_1" enable-background="new 0 0 512 512" height="512" viewBox="0 0 512 512" width="512" xmlns="http://www.w3.org/2000/svg"><g><path d="m256 168c46.317 0 84-37.683 84-84s-37.683-84-84-84-84 37.683-84 84 37.683 84 84 84z"/><path d="m359.474 284.996-103.474-85.958v40.962h-65v90h65v40.964z"/><path d="m388.37 270 18.05 14.995-161.721 134.361c7.737 4.14 17.149 3.761 24.57-1.161l212.731-141.007v-7.188z"/><path d="m226 360h-65v-90h-131v6.895l196 130.187z"/><path d="m256 452.218c-10.394 0-20.787-3.009-29.855-9.025l-196.145-130.283v199.09h452v-198.82l-196.145 130.012c-9.068 6.017-19.461 9.026-29.855 9.026z"/><path d="m161 210h65v-16.014c-24.929-6.807-46.481-21.877-61.511-42.079-23.156 15.201-38.489 41.383-38.489 71.093v17h35z"/><path d="m293.895 191.517 58.362 48.483h33.743v-17c0-29.71-15.333-55.892-38.489-71.093-13.419 18.037-32.038 31.982-53.616 39.61z"/></g></svg>