<svg id="Capa_1" enable-background="new 0 0 512 512" height="512" viewBox="0 0 512 512" width="512" xmlns="http://www.w3.org/2000/svg"><g><path d="m142.549 512h226.901c0-36.332-28.623-66.105-64.502-67.954v-36.327h-97.897v36.327c-35.879 1.849-64.502 31.622-64.502 67.954z"/><path d="m225.735 135.795v-74.887c0-16.468 12.888-30.406 29.349-30.895 17.105-.508 31.181 13.259 31.181 30.251v45.265h30v-44.349c0-33.072-26.262-60.669-59.33-61.173-33.657-.513-61.2 26.715-61.2 60.257v75.53h-149.085v30h31.095c3.433 30.887 17.381 59.196 38.921 80.579v-.012c4.369 4.34 17.233 15.198 25.883 20.178 16.867 9.71 64.502 28.687 64.502 28.687v52.492h-18.949c-4.126 0-7.936-1.34-11.051-3.588-4.773-3.444-7.898-9.039-7.898-15.361 0-5.696 2.538-10.8 6.528-14.276l-28.715-12.203c-4.935 7.64-7.814 16.727-7.814 26.48 0 23.189 16.214 42.65 37.898 47.676 3.554.824 7.25 1.273 11.051 1.273h135.795c4.126 0 7.937 1.34 11.052 3.588 4.773 3.444 7.898 9.038 7.898 15.36h30c0-23.189-16.215-42.649-37.898-47.674-3.554-.824-7.25-1.274-11.052-1.274h-18.948v-52.195l37.898-16.195v-16.077c0-18.669-15.134-33.803-33.803-33.803h-64.359c-27.034 0-48.949-21.916-48.949-48.949v-14.704h30v14.704c0 10.465 8.484 18.949 18.949 18.949h63.086c35.941 0 65.076 29.136 65.076 65.076 34.269-21.838 56.955-58.077 61.424-98.729h31.079v-30h-239.614z"/></g></svg>