<svg id="Capa_1" enable-background="new 0 0 512 512" height="512" viewBox="0 0 512 512" width="512" xmlns="http://www.w3.org/2000/svg"><g><path d="m472.774 18.044c-7.26-16.484-27.239-22.994-42.816-13.951l-41.301 23.976-41.341-23.959c-15.562-9.019-35.508-2.516-42.765 13.941-6.135 13.912-.968 30.214 12.06 38.053l40.052 24.099v58.187c0 7.355-.843 14.621-2.451 21.68 8.086 10.559 14.795 22.072 20.018 34.42 5.655 13.369 9.397 27.3 11.191 41.607 21.091-26.08 34.733-55.866 35.231-97.708v-58.185l40.05-24.097c13.03-7.841 18.202-24.146 12.072-38.063z"/><path d="m228.659 128c-50.65 0-99.963 20.443-135.76 56.24-34.75 34.74-56.24 82.74-56.24 135.76v96c0 53.02 42.98 96 96 96h.059c53.2 0 95.987-43.531 95.941-96 1.031-54.827-10.638-106.613-50.75-146.75-28.229-27.639-6.531-77.251 31.974-77.25h.036 18.74c35.34 0 64 28.65 64 64v256h64v-256c0-70.69-57.31-128-128-128z"/></g></svg>