<svg id="Capa_1" enable-background="new 0 0 512.196 512.196" height="512" viewBox="0 0 512.196 512.196" width="512" xmlns="http://www.w3.org/2000/svg"><g id="XMLID_36_"><path id="XMLID_84_" d="m167.929 188.567h51.101v51.101h-51.101z"/><path id="XMLID_102_" d="m500.724 101.152c0-55.863-45.288-101.152-101.141-101.152h-79.458l-64.027 68.306-64.027-68.306h-79.458c-55.853 0-101.142 45.289-101.142 101.152v140.71h57.477v-98.175h30v368.508h314.297v-368.507h30v98.175h57.479zm-329.274 358.463h-32.014v-30h32.014zm64.485 0h-32.014v-30h32.014zm13.095-189.948h-111.101v-111.1h111.101zm52.458 189.948h-32.014v-30h32.014zm67.686 0h-32.014v-30h32.014z"/></g></svg>