<svg id="Capa_1" enable-background="new 0 0 512 512" height="512" viewBox="0 0 512 512" width="512" xmlns="http://www.w3.org/2000/svg"><path d="m466.58 294.099-37.858-41.125h14.969c28.213 0 51.166-22.953 51.166-51.167v-37.167h-37.167c-28.214 0-51.167 22.953-51.167 51.167v14.508c-19.15-15.652-42.562-23.548-66.016-23.695v-.058h-11.627c-10.608 0-19.238-8.63-19.238-19.238s8.63-19.238 19.238-19.238c6.184 0 11.214 5.03 11.214 11.213h30c0-22.725-18.488-41.213-41.214-41.213-27.15 0-49.238 22.088-49.238 49.238 0 11.868 4.221 22.769 11.24 31.281-9.223 4.826-17.877 11.108-25.616 18.847-3.469 3.469-6.542 7.183-9.266 11.068-2.724-3.886-5.797-7.6-9.266-11.068-7.74-7.74-16.394-14.021-25.616-18.848 7.019-8.511 11.24-19.412 11.24-31.28 0-27.15-22.088-49.238-49.238-49.238-22.726 0-41.214 18.488-41.214 41.213h30c0-6.183 5.03-11.213 11.214-11.213 10.608 0 19.238 8.63 19.238 19.238s-8.63 19.238-19.238 19.238h-11.628v.057c-23.453.147-46.865 8.043-66.016 23.695v-14.507c0-28.214-22.953-51.167-51.167-51.167h-37.165v37.167c0 28.214 22.953 51.167 51.166 51.167h14.969l-37.859 41.125h-45.42v30h58.579l60.43-65.644c29.438-29.212 77.157-29.145 106.513.209 20.605 20.605 20.604 54.133 0 74.739-6.778 6.777-15.79 10.511-25.375 10.511-9.586 0-18.598-3.733-25.376-10.511-9.032-9.032-9.032-23.729 0-32.761 5.312-5.31 13.954-5.312 19.267 0l21.213-21.213c-17.009-17.01-44.686-17.009-61.692 0-10.042 10.041-15.571 23.393-15.571 37.594 0 14.2 5.529 27.552 15.571 37.593 12.444 12.444 28.989 19.298 46.589 19.298 17.599 0 34.144-6.854 46.588-19.298 3.469-3.469 6.542-7.183 9.266-11.068 2.724 3.886 5.797 7.6 9.266 11.068 12.444 12.444 28.989 19.298 46.588 19.298 17.6 0 34.145-6.854 46.589-19.298 10.042-10.041 15.571-23.393 15.571-37.593 0-14.201-5.529-27.553-15.571-37.594-17.007-17.009-44.684-17.011-61.692 0l21.213 21.213c5.313-5.312 13.955-5.31 19.267 0 4.375 4.375 6.784 10.192 6.784 16.381 0 6.188-2.409 12.005-6.784 16.38-6.778 6.777-15.79 10.511-25.376 10.511-9.585 0-18.597-3.733-25.375-10.511-20.604-20.606-20.605-54.134 0-74.739 29.354-29.353 77.074-29.421 106.513-.209l60.43 65.644h58.575v-30z"/></svg>