<svg id="Capa_1" enable-background="new 0 0 510 510" height="512" viewBox="0 0 510 510" width="512" xmlns="http://www.w3.org/2000/svg"><g><path d="m30 30h30v30h-30z"/><path d="m180 105h-60v-45h75v-30h-105v165h30v-60h60z"/><circle cx="315" cy="375" r="30"/><path d="m255 150h45v30h-45z"/><path d="m375 254.092v-194.092c0-33.137-26.863-60-60-60-33.137 0-60 26.863-60 60v60h45v-30h30v226.898c25.85 6.678 45 30.195 45 58.102 0 33.084-26.916 60-60 60s-60-26.916-60-60c0-27.906 19.15-51.424 45-58.102v-106.898h-45v44.092c-44.413 22.129-75 68.01-75 120.908 0 74.44 60.561 135 135 135s135-60.56 135-135c0-52.898-30.588-98.779-75-120.908z"/><path d="m420 30h45v30h-45z"/><path d="m420 90h60v30h-60z"/><path d="m420 150h45v30h-45z"/><path d="m420 210h60v30h-60z"/></g></svg>