<svg id="Capa_1" enable-background="new 0 0 512.001 512.001" height="512" viewBox="0 0 512.001 512.001" width="512" xmlns="http://www.w3.org/2000/svg"><g><path d="m488.39 202.648c0-111.92-90.727-202.648-202.648-202.648-90.162 0-166.563 58.878-192.868 140.28l-9.76 60.392-59.504 98.703v29.919h47.385l20.165 110.15h112.918l17.139 72.557h228.022l-28.235-158.448c41.366-37.101 67.386-90.969 67.386-150.905zm-99.722 62.29h-96.362l-77.797 48.096v-48.096h-36.841v-157.5h211z"/><path d="m244.508 259.217 39.271-24.279h74.888v-97.5h-151v97.5h36.841zm53.785-89.112h30v30.125h-30zm-60.25 30.125v-30.125h30v30.125z"/></g></svg>