<svg id="Capa_1" enable-background="new 0 0 512 512" height="512" viewBox="0 0 512 512" width="512" xmlns="http://www.w3.org/2000/svg"><g><path d="m422.372 303.158c4.376-9.581 4.376-27.071-.01-36.674l-.088-.191c-8.034-17.588-8.034-44.08-.01-61.646l.107-.235c4.116-9.012 4.358-25.019.723-34.879-14.779-9.869-31.081-17.631-48.473-22.883v365.35c17.329-1.756 33.758-6.561 48.732-13.886 3.353-9.889 3.033-25.325-.991-34.136l-.088-.191c-8.034-17.588-8.034-44.08-.01-61.646l.107-.234c4.376-9.581 4.376-27.072-.011-36.675l-.087-.191c-8.034-17.588-8.034-44.08-.01-61.646z"/><path d="m455.026 196.593c-.873 7.33-2.65 14.336-5.377 20.305l-.086.188c-4.397 9.628-4.397 27.118-.012 36.721l.088.191c8.034 17.588 8.034 44.081.01 61.646l-.107.234c-4.376 9.581-4.376 27.071.01 36.674l.088.191c8.034 17.589 8.034 44.082.01 61.647l-.107.234c-4.376 9.581-4.376 27.071.01 36.674l.088.191c3.327 7.283 5.254 16.097 5.826 25.167 30.063-26.5 49.034-65.289 49.034-108.514v-46.518c-.001-48.368-18.796-92.342-49.475-125.031z"/><path d="m374.622 117.042h-30v29.595c4.916-1.484 9.919-2.769 15-3.841 5.081 1.072 10.084 2.357 15 3.841z"/><path d="m327.256 204.584v46.518c0 23.56-4.621 46.43-13.734 67.977-3.378 7.988-7.321 15.658-11.798 22.989-.729 8.287-2.613 16.265-5.667 22.949l-.107.234c-4.376 9.581-4.376 27.072.01 36.675l.088.191c8.034 17.588 8.034 44.08.01 61.646l-.107.234c-3.94 8.627-4.32 23.649-1.157 33.569 15.268 7.632 32.076 12.632 49.83 14.432v-365.35c-7.941 2.398-15.654 5.323-23.099 8.73 3.801 16.042 5.731 32.509 5.731 49.206z"/><path d="m61.535 136.743c4.376-9.581 4.376-27.071-.01-36.674l-.088-.192c-2.622-5.74-4.372-12.434-5.283-19.451-30.194 32.597-48.654 76.22-48.654 124.158v46.518c0 42.807 18.605 81.263 48.163 107.742.631-8.793 2.537-17.308 5.764-24.373l.107-.234c4.376-9.581 4.376-27.071-.01-36.674l-.088-.191c-8.034-17.587-8.034-44.08-.01-61.647l.107-.234c4.376-9.581 4.376-27.071-.01-36.674l-.088-.191c-8.034-17.587-8.034-44.08-.01-61.646z"/><path d="m88.715 87.391.109.239c8.013 17.541 8.013 44.033-.012 61.6l-.107.234c-4.376 9.581-4.376 27.071.01 36.674l.088.191c8.034 17.588 8.034 44.08.01 61.646l-.107.234c-4.376 9.581-4.376 27.072.01 36.675l.088.191c8.034 17.588 8.034 44.08.01 61.646l-.107.234c-3.94 8.627-4.32 23.649-1.157 33.569 15.268 7.632 32.076 12.632 49.83 14.432v-365.349c-17.862 5.394-34.574 13.437-49.668 23.689-3.341 9.891-3.016 25.296 1.003 34.095z"/><path d="m215.128 186.116c4.376-9.581 4.376-27.071-.01-36.674l-.088-.191c-8.034-17.588-8.034-44.08-.01-61.646l.107-.235c4.116-9.012 4.358-25.019.723-34.879-14.779-9.869-31.081-17.631-48.473-22.883v365.351c17.329-1.756 33.758-6.561 48.732-13.886 3.353-9.889 3.033-25.325-.991-34.136l-.088-.191c-8.034-17.588-8.034-44.08-.01-61.646l.107-.234c4.376-9.581 4.376-27.072-.011-36.675l-.087-.191c-8.034-17.588-8.034-44.08-.01-61.646z"/><path d="m242.298 297.584c-4.376 9.581-4.376 27.071.01 36.674l.088.191c3.327 7.283 5.254 16.097 5.826 25.167 30.063-26.5 49.034-65.289 49.034-108.514v-46.518c0-48.37-18.795-92.344-49.474-125.033-.873 7.33-2.65 14.336-5.377 20.305l-.086.188c-4.397 9.628-4.397 27.118-.012 36.721l.088.191c8.034 17.588 8.034 44.081.01 61.646l-.107.234c-4.376 9.581-4.376 27.071.01 36.674l.088.191c8.034 17.589 8.034 44.082.01 61.647z"/><path d="m167.378 0h-30v29.595c4.916-1.484 9.919-2.769 15-3.841 5.081 1.072 10.084 2.357 15 3.841z"/><path d="m268.682 414.413c-3.644-7.976-5.617-17.786-5.957-27.763-12.536 10.205-26.37 18.578-41.313 24.984 7.89 25.043 22.403 47.148 41.495 64.251.631-8.793 2.537-17.308 5.764-24.373l.107-.234c4.376-9.581 4.376-27.071-.01-36.674z"/></g></svg>