<svg id="Capa_1" enable-background="new 0 0 510 510" height="512" viewBox="0 0 510 510" width="512" xmlns="http://www.w3.org/2000/svg"><g><path d="m30 0h45v510h-45z"/><path d="m450 180h30v75h-30z"/><path d="m450 30h30v120h-30z"/><path d="m450 405h30v75h-30z"/><path d="m450 285h30v90h-30z"/><path d="m188 420h150v-90h-150zm30-60h90v30h-90z"/><path d="m263 240c41.355 0 75-33.645 75-75 0-41.354-33.645-75-75-75s-75 33.646-75 75c0 41.355 33.645 75 75 75zm-45-90h30v-30h30v30h30v30h-30v30h-30v-30h-30z"/><path d="m105 510h315v-510h-315zm158-450c57.897 0 105 47.104 105 105 0 57.898-47.103 105-105 105-57.896 0-105-47.102-105-105 0-57.896 47.104-105 105-105zm-105 240h210v150h-210z"/></g></svg>