<svg id="Capa_1" enable-background="new 0 0 512 512" height="512" viewBox="0 0 512 512" width="512" xmlns="http://www.w3.org/2000/svg"><g><path d="m277.454 122.785c-7.001-1.835-14.183-2.785-21.454-2.785s-14.453.95-21.454 2.785v146.431c7.001 1.834 14.183 2.784 21.454 2.784s14.453-.95 21.454-2.785z"/><path d="m204.546 137.038c-1.721 1.232-3.424 2.51-5.093 3.869-16.72 13.627-29.482 32.65-37.031 55.094 7.549 22.444 20.311 41.465 37.031 55.092 1.668 1.36 3.372 2.638 5.093 3.869z"/><path d="m312.547 140.907c-1.668-1.36-3.372-2.638-5.093-3.869v117.924c1.721-1.232 3.424-2.51 5.093-3.869 16.72-13.627 29.482-32.65 37.031-55.094-7.55-22.444-20.312-41.465-37.031-55.092z"/><path d="m93.825 140.907c-1.669-1.36-3.372-2.638-5.094-3.87v117.925c1.721-1.232 3.425-2.51 5.094-3.87 16.719-13.627 29.482-32.649 37.031-55.092-7.549-22.444-20.312-41.466-37.031-55.093z"/><path d="m381.144 196c7.55 22.444 20.313 41.466 37.031 55.093 1.669 1.36 3.372 2.638 5.094 3.87v-117.926c-1.721 1.232-3.425 2.51-5.094 3.87-16.719 13.627-29.482 32.649-37.031 55.093z"/><path d="m0 362v60h196v30h-121v30h362v-30h-121v-30h196v-60z"/><path d="m512 332v-302h-512v302zm-30-212h-7.277c-7.271 0-14.453.95-21.454 2.785v146.431c7.001 1.834 14.184 2.785 21.454 2.785h7.277v30h-7.277c-27.198 0-53.307-9.563-75.502-27.653-13.501-11.004-24.926-24.678-33.86-40.377-8.933 15.698-20.358 29.373-33.86 40.377-22.195 18.09-48.303 27.652-75.501 27.652s-53.306-9.563-75.501-27.653c-13.502-11.004-24.927-24.679-33.86-40.377-8.934 15.698-20.358 29.373-33.86 40.377-22.195 18.091-48.303 27.653-75.502 27.653h-7.277v-30h7.277c7.271 0 14.453-.95 21.454-2.785v-146.43c-7.001-1.835-14.183-2.785-21.454-2.785h-7.277v-30h7.277c27.198 0 53.307 9.563 75.502 27.653 13.502 11.004 24.926 24.678 33.86 40.377 8.933-15.698 20.358-29.373 33.86-40.377 22.195-18.09 48.303-27.653 75.501-27.653s53.306 9.563 75.501 27.653c13.502 11.004 24.927 24.679 33.86 40.377 8.934-15.698 20.358-29.373 33.86-40.377 22.195-18.09 48.303-27.653 75.502-27.653h7.277z"/></g></svg>