<svg id="Capa_1" enable-background="new 0 0 512 512" height="512" viewBox="0 0 512 512" width="512" xmlns="http://www.w3.org/2000/svg"><g id="XMLID_18_"><path id="XMLID_327_" d="m50.254 303.4c-9.422-15.9-7.682-34.601-5.38-50.884 2.82-19.948 11.155-38.059 16.397-57.442 5.646-20.877 4.886-43.081-.913-63.83-10.638-38.07-16.256-78.837-16.699-121.173l-.105-10.071-29.989.314.105 10.07c.47 44.958 6.46 88.336 17.804 128.931 4.773 17.08 4.894 33.794.361 49.696l-.048.117c-9.802 23.632-32.372 81.372-8.74 127.624 3.886 7.605 10.136 14.475 15.284 21.263 4.41-10.066 9.874-19.506 16.316-28.118-1.658-2.224-3.103-4.319-4.393-6.497z"/><path id="XMLID_328_" d="m106.113 255.036c2.742-20.929 13.062-39.927 28.823-53.573 1.001 17.935-1.102 36.039-6.365 53.376l-3.167 10.433c4.768-.715 9.606-1.078 14.496-1.078 5.657 0 11.245.493 16.735 1.448l.635-2.091c3.313-10.913 5.573-22.081 6.802-33.339 11.643 12.306 16.922 28.265 18.82 43.943 11.079 5.379 21.435 12.862 30.732 22.297 1.548-40.516-10.962-73.774-35.679-94.287l-13.794-11.45c-1.759-16.716-5.793-33.212-12.081-48.952-7.299-18.268-11-37.505-11-57.177v-84.429h-29.991v85.727c0 23.071 4.725 45.83 13.244 67.27 1.971 4.961 3.675 10.012 5.111 15.128l-2.212 1.463c-21.885 14.474-37.975 35.76-46.031 60.253-6.239 18.968-6.119 39.668-7.475 59.433 9.621-8.224 20.169-14.544 31.337-18.801z"/><path id="XMLID_330_" d="m348.259 230.212c1.229 11.258 3.489 22.426 6.801 33.339l.635 2.091c5.49-.956 11.078-1.449 16.736-1.449 4.889 0 9.727.363 14.495 1.078l-3.167-10.433c-5.263-17.336-7.366-35.44-6.365-53.376-.081 1.441 9.044 9.062 10.373 10.695 3.536 4.347 6.643 9.042 9.261 13.996 7.368 13.941 9.198 29.02 10.249 44.477 11.169 4.258 21.717 10.578 31.339 18.803-1.664-24.471-1.76-48.636-12.143-71.355-8.972-19.631-23.424-36.374-41.365-48.335l-2.211-1.462c1.436-5.115 3.139-10.164 5.11-15.125 8.52-21.441 13.244-44.2 13.244-67.272v-85.728h-29.991v85.464c0 19.304-3.912 38.361-11.058 56.293-6.254 15.694-10.268 32.139-12.022 48.802l-13.794 11.449c-24.716 20.513-37.227 53.771-35.679 94.287 9.297-9.434 19.653-16.918 30.732-22.297 1.898-15.676 7.177-31.635 18.82-43.942z"/><path id="XMLID_331_" d="m89.972 491.103c3.675-5.29 7.316-16.573 5.108-38.018-4.175-40.543 6.199-53 23.782-68.698 4.822-4.304 9.807-8.755 15.012-15.073 9.948-12.074 3.962-48.067-4.352-74.315-41.92 6.588-74.491 52.549-74.491 108.092-.001 36.123 13.778 68.188 34.941 88.012z"/><path id="XMLID_332_" d="m161.464 297.751c1.496 5.566 2.992 11.788 4.254 18.325 6.41 33.195 3.483 57.523-8.698 72.309-6.666 8.09-13.054 13.793-18.186 18.375-12.246 10.934-16.829 15.025-13.922 43.253 2.538 24.641-.712 43.894-9.662 57.297 7.804 3.045 16.079 4.69 24.649 4.69 46.796 0 84.868-48.856 84.868-108.908.001-50.492-26.917-93.065-63.303-105.341z"/><path id="XMLID_338_" d="m382.822 295.002c-8.297 26.276-14.276 62.284-4.365 74.313 5.205 6.318 10.19 10.769 15.011 15.073 17.582 15.697 27.957 28.154 23.782 68.697-2.208 21.446 1.433 32.729 5.108 38.019 21.163-19.824 34.942-51.889 34.942-88.011-.001-55.539-32.566-101.496-74.478-108.091z"/><path id="XMLID_339_" d="m372.431 512c8.569 0 16.843-1.645 24.647-4.689-8.949-13.403-12.199-32.656-9.662-57.298 2.906-28.228-1.675-32.319-13.922-43.253-5.132-4.582-11.519-10.284-18.185-18.374-12.182-14.785-15.109-39.114-8.698-72.31 1.262-6.536 2.758-12.758 4.254-18.324-36.387 12.276-63.304 54.849-63.304 105.341.001 60.051 38.073 108.907 84.87 108.907z"/><path id="XMLID_1344_" d="m461.746 303.4c9.422-15.9 7.682-34.601 5.38-50.884-2.82-19.948-11.155-38.059-16.397-57.442-5.646-20.877-4.886-43.081.913-63.83 10.638-38.069 16.257-78.837 16.699-121.173l.105-10.071 29.989.314-.105 10.07c-.47 44.958-6.46 88.336-17.804 128.931-4.773 17.08-4.894 33.794-.361 49.696l.048.117c9.803 23.632 32.373 81.372 8.741 127.624-3.886 7.605-10.136 14.475-15.284 21.263-4.41-10.066-9.874-19.506-16.316-28.118 1.657-2.224 3.102-4.319 4.392-6.497z"/></g></svg>