<svg id="Capa_1" enable-background="new 0 0 512 512" height="512" viewBox="0 0 512 512" width="512" xmlns="http://www.w3.org/2000/svg"><g><path d="m448.384 194.616c-20.306-.407-36.895 15.932-36.895 36.146v-11.337c0-19.798-15.617-36.463-35.411-36.86-20.306-.407-36.895 15.932-36.895 36.146l-.041-10.871c0-19.967-16.186-36.153-36.153-36.153s-36.153 16.186-36.153 36.153v-151.043c0-14.803-10.194-27.657-24.608-31.029l-106.472-24.91c-8.422-1.97-17.281-.514-24.629 4.047l-82.922 51.478 20.511 20.511c18.553 18.553 46.417 24.182 70.718 14.287l21.711-9.441 53.384 22.089v185.554c0 18.884-15.309 34.193-34.193 34.193-13.349 0-25.478-7.769-31.06-19.895l-28.766-62.489v-16.267c0-35.921-29.044-65.08-64.964-65.223l-7.341-.029 1.9 101.826 59.531 130.002c33.619 73.421 106.957 120.499 187.707 120.499 114.02 0 206.452-92.432 206.452-206.452v-74.073c0-19.798-15.617-36.462-35.411-36.859z"/></g></svg>