<svg id="Capa_1" enable-background="new 0 0 512 512" height="512" viewBox="0 0 512 512" width="512" xmlns="http://www.w3.org/2000/svg"><g><path d="m504.5 345v-60h-76.05v-225h45.05v-30h-135v-30h-150v30h-150v44.809h-31v30h61v-44.809h30.05v225h-76.05v60zm-375.95-285h59.95v30h60v36.617h-60v32.792c0 20.83 6.115 40.997 17.686 58.319l19.295 28.889h76.039l19.295-28.889c11.57-17.322 17.686-37.489 17.686-58.319v-32.792h-60v-36.617h60v-30h59.95v225h-269.9v-225z"/><path d="m278.5 375h165v46h-165z"/><path d="m368.5 451h75v61h-75z"/><path d="m83.5 375h165v46h-165z"/><path d="m83.5 451h75v61h-75z"/><path d="m188.5 451h150v61h-150z"/></g></svg>