<svg id="Capa_1" enable-background="new 0 0 512 512" height="512" viewBox="0 0 512 512" width="512" xmlns="http://www.w3.org/2000/svg"><g><path d="m0 452h404.166v30h-404.166z"/><path d="m359.125 422c-13.697-18.204-35.475-30-59.959-30h-194.166c-24.484 0-46.262 11.796-59.959 30z"/><path d="m374.166 144.583h137.834v75h-137.834z"/><path d="m314.166 144.583v-84.583h30v-30h-284.166v30h30v244.166h-30v30h284.166v-30h-30v-84.583h30v-75zm-67.083 69.583v30h-30v30h-30v-30h-30v-30h30v-22.211c-21.428-6.458-37.083-26.367-37.083-49.872 0-28.719 23.364-52.083 52.083-52.083s52.083 23.364 52.083 52.083c0 23.505-15.655 43.414-37.083 49.872v22.211z"/><circle cx="202.083" cy="142.083" r="22.083"/></g></svg>