<svg id="Capa_1" enable-background="new 0 0 512 512" height="512" viewBox="0 0 512 512" width="512" xmlns="http://www.w3.org/2000/svg"><g><path d="m71.941 0h112.791v48.734h-112.791z"/><path d="m71.941 78.734h112.791v54.673h-112.791z"/><path d="m327.269 0h112.791v48.734h-112.791z"/><path d="m327.269 78.734h112.791v54.673h-112.791z"/><path d="m167.791 311.63h-149.702l-6 121.636h161.701z"/><path d="m10.61 463.266-2.404 48.734h169.468l-2.404-48.734z"/><path d="m501.39 463.266h-164.66l-2.404 48.734h169.468z"/><path d="m239.133 163.408h33.734v33.735h-33.734z"/><path d="m209.133 163.408h-160.305c-16.568 0-30 13.431-30 30v88.223h222.172v-54.488h-31.867z"/><path d="m493.171 193.408c0-16.569-13.431-30-30-30h-160.304v63.735h-31.867v54.488h222.171z"/><path d="m338.21 433.266h161.701l-6-121.636h-149.702z"/></g></svg>