<svg id="Capa_1" enable-background="new 0 0 512 512" height="512" viewBox="0 0 512 512" width="512" xmlns="http://www.w3.org/2000/svg"><g><path d="m304.734 183.493h139.797v328.507h-139.797z"/><path d="m67.469 183.493h139.797v328.507h-139.797z"/><path d="m237.266 183.493h37.469v328.507h-37.469z"/><path d="m0 512h37.469v-358.507h437.062v358.507h37.469v-512h-512zm402.183-473.655 45.382 45.382-21.213 21.213-24.169-24.169-24.169 24.169-21.213-21.213zm-127.449 21.733h30v33.734h-30zm-67.468 0h30v33.734h-30zm-121.618-11.127 24.169 24.169 24.169-24.169 21.213 21.213-45.382 45.382-45.381-45.382z"/></g></svg>