<?xml version="1.0" encoding="iso-8859-1"?>
<!-- Generator: Adobe Illustrator 19.0.0, SVG Export Plug-In . SVG Version: 6.00 Build 0)  -->
<svg xmlns="http://www.w3.org/2000/svg" xmlns:xlink="http://www.w3.org/1999/xlink" version="1.1" id="Layer_1" x="0px" y="0px" viewBox="0 0 512 512" style="enable-background:new 0 0 512 512;" xml:space="preserve">
<g>
	<g>
		<path d="M316.5,202c-17.369,0-31.5,14.131-31.5,31.5s14.131,31.5,31.5,31.5c17.369,0,31.5-14.131,31.5-31.5S333.869,202,316.5,202    z"/>
	</g>
</g>
<g>
	<g>
		<path d="M316.5,38C208.701,38,121,125.701,121,233.5S208.701,429,316.5,429S512,341.299,512,233.5S424.299,38,316.5,38z     M316.5,295c-33.911,0-61.5-27.589-61.5-61.5s27.589-61.5,61.5-61.5s61.5,27.589,61.5,61.5S350.411,295,316.5,295z"/>
	</g>
</g>
<g>
	<g>
		<rect x="61" y="219" width="30" height="130"/>
	</g>
</g>
<g>
	<g>
		<path d="M428.792,429H512v-83.208C492.095,380.312,463.312,409.095,428.792,429z"/>
	</g>
</g>
<g>
	<g>
		<path d="M121,345.792V399H0v75h30v-45h174.208C169.688,409.095,140.905,380.312,121,345.792z"/>
	</g>
</g>
<g>
</g>
<g>
</g>
<g>
</g>
<g>
</g>
<g>
</g>
<g>
</g>
<g>
</g>
<g>
</g>
<g>
</g>
<g>
</g>
<g>
</g>
<g>
</g>
<g>
</g>
<g>
</g>
<g>
</g>
</svg>
