<svg id="Capa_1" enable-background="new 0 0 512 512" height="512" viewBox="0 0 512 512" width="512" xmlns="http://www.w3.org/2000/svg"><g><path d="m256 341.335c19.63 0 35.601-15.971 35.601-35.601 0-30.246-22.636-55.666-35.602-67.745-12.955 12.069-35.6 37.494-35.6 67.745 0 19.63 15.971 35.601 35.601 35.601z"/><path d="m380.808 81c-6.506 37.621-39.356 66.333-78.808 66.333h-92c-39.452 0-72.302-28.712-78.808-66.333h-50.192v431h350v-431zm-28.808 354.335h-131.332v-30h131.332zm-104.822-229.132 8.822-6.416 8.822 6.416c2.318 1.686 56.778 41.954 56.778 99.531 0 36.172-29.429 65.601-65.601 65.601s-65.601-29.429-65.601-65.601c.001-57.577 54.461-97.845 56.78-99.531zm-87.178 199.132h30.668v30h-30.668z"/><path d="m210 117.334h92c27.614 0 50-22.386 50-50v-18.334h-53.333v-6.333c0-23.564-19.102-42.667-42.667-42.667-23.564 0-42.667 19.103-42.667 42.667v6.333h-53.333v18.334c0 27.614 22.386 50 50 50z"/></g></svg>