<svg id="Capa_1" enable-background="new 0 0 512 512" height="512" viewBox="0 0 512 512" width="512" xmlns="http://www.w3.org/2000/svg"><g><path d="m333.84 126.47c-20.541 14.161-49.9 14.607-70.54.75-6-3.56-9.96-5.899-19.34-5.899-9.39 0-13.35 2.34-19.34 5.9-7.59 4.5-17.03 10.1-34.64 10.1-17.6 0-27.05-5.6-34.63-10.1-6-3.56-9.96-5.9-19.34-5.9s-13.34 2.34-19.34 5.9c-7.59 4.5-17.03 10.1-34.63 10.1-19.496-.216-27.374-5.938-37.1-11.55l31.18 309.77h179.83v-213.661h68.28z"/><path d="m83.82 512h172.13v-46.46h-176.81z"/><path d="m73.12 106.32c4.466 1.321 13.373 1.321 17.84 0 3.85-1.01 6.75-2.73 10.41-4.91 7.59-4.5 17.03-10.09 34.64-10.09 17.6 0 27.05 5.59 34.63 10.09 3.67 2.18 6.57 3.9 10.42 4.91 4.469 1.321 13.371 1.321 17.84 0 3.85-1.01 6.75-2.73 10.42-4.91 7.59-4.5 17.03-10.09 34.64-10.09 17.6 0 27.05 5.59 34.63 10.09 3.67 2.18 6.57 3.9 10.42 4.91 4.485 1.32 13.37 1.322 17.85 0 3.85-1.01 6.75-2.73 10.42-4.91 5.14-3.05 11.13-6.6 19.94-8.56l9.35-92.85h-314.29l9.32 92.6c9.44 1.9 15.73 5.63 21.1 8.81 3.66 2.18 6.57 3.9 10.42 4.91z"/><path d="m285.95 251.88v260.12h193.77v-260.12s-175.868 0-193.77 0zm145.62 157.61c-1.808 59.981-85.716 66.286-96.85 7.799-1.075-3.141-.498-58.089-.62-62.899-.035-26.667 21.729-48.735 48.74-48.73 26.87 0 48.73 21.86 48.73 48.73z"/><path d="m382.84 335.66c-10.33 0-18.74 8.4-18.74 18.73v55.1c0 10.33 8.41 18.74 18.74 18.74s18.73-8.41 18.73-18.74v-55.1c0-10.33-8.4-18.73-18.73-18.73z"/></g></svg>