<svg id="Capa_1" enable-background="new 0 0 512 512" height="512" viewBox="0 0 512 512" width="512" xmlns="http://www.w3.org/2000/svg"><g><path d="m150.493 129.282c25.01-20.859 56.265-34.417 90.507-37.522v-91.76c-59 3.457-112.57 28.711-154.118 65.671z"/><path d="m425.118 65.671c-41.548-36.96-95.118-62.214-154.118-65.671v91.76c34.243 3.105 65.497 16.663 90.507 37.522z"/><path d="m196 181c0 33.091 26.909 60 60 60 49.629 0 90 40.371 90 90 0 10.298-2.098 20.035-5.297 29.258 30.43-24.772 50.297-62.049 50.297-104.258 0-74.443-60.557-135-135-135-33.091 0-60 26.909-60 60zm75 15h-30v-30h30z"/><path d="m316 331c0-33.091-26.909-60-60-60-49.629 0-90-40.371-90-90 0-10.298 2.1-20.037 5.299-29.26-30.428 24.774-50.299 62.051-50.299 104.26 0 74.443 60.557 135 135 135 33.091 0 60-26.909 60-60zm-75-15h30v30h-30z"/><path d="m0 241h91.76c3.105-34.243 16.663-65.497 37.522-90.507l-63.611-63.611c-36.96 41.548-62.214 95.118-65.671 154.118z"/><path d="m382.718 150.493c20.859 25.01 34.417 56.265 37.522 90.507h91.76c-3.457-59-28.711-112.57-65.671-154.118z"/><path d="m65.671 425.118 63.611-63.611c-20.86-25.01-34.417-56.264-37.522-90.507h-91.76c3.457 59 28.711 112.57 65.671 154.118z"/><path d="m382.718 361.507 63.611 63.611c36.96-41.548 62.214-95.118 65.671-154.118h-91.76c-3.105 34.243-16.662 65.497-37.522 90.507z"/><path d="m86.882 446.329c41.548 36.96 95.118 62.214 154.118 65.671v-91.76c-34.243-3.105-65.497-16.663-90.507-37.522z"/><path d="m361.507 382.718c-25.01 20.859-56.265 34.417-90.507 37.522v91.76c59-3.457 112.57-28.711 154.118-65.671z"/></g></svg>