<svg id="Capa_1" enable-background="new 0 0 512 512" height="512" viewBox="0 0 512 512" width="512" xmlns="http://www.w3.org/2000/svg"><g><path d="m482 0v130.667h-30v-100.668h-40.334v30h-30v-30h-40.333v100.668h-30v-100.668h-40.333v30h-30v-30h-40.334v100.668h-30v-100.668h-40.333v30h-30v-30h-40.333v100.668h-30v-130.667h-30v512h30v-30h452v30h30v-512zm0 160.667v130.666h-30v-100.667h-40.334v30h-30v-30h-40.333v100.667h-30v-100.667h-40.333v30h-30v-30h-40.334v100.667h-30v-100.667h-40.333v30h-30v-30h-40.333v100.667h-30v-130.666zm-30 291.333v-100.667h-40.334v30h-30v-30h-40.333v100.667h-30v-100.667h-40.333v30h-30v-30h-40.334v100.667h-30v-100.667h-40.333v30h-30v-30h-40.333v100.667h-30v-130.667h452v130.667z"/></g></svg>