<svg id="Capa_1" enable-background="new 0 0 510 510" height="512" viewBox="0 0 510 510" width="512" xmlns="http://www.w3.org/2000/svg"><g id="XMLID_1588_"><path id="XMLID_1722_" d="m255 0c-140.931 0-255 114.049-255 255 0 140.932 114.05 255 255 255 140.932 0 255-114.049 255-255 0-140.93-114.049-255-255-255zm159.1 414.1c-84.163 84.162-218.952 87.567-307.23 10.244l37.453-37.453c-6.562-8.023-11.765-17.196-15.259-27.166l-43.414 43.412c-35.986-41.022-55.65-93.066-55.65-148.137 0-124.352 100.632-225 225-225 55.071 0 107.114 19.664 148.137 55.65l-30.693 30.693c6.305 8.246 11.421 17.444 15.081 27.346l36.819-36.82c77.322 88.277 73.918 223.066-10.244 307.231z"/><path id="XMLID_1727_" d="m289 75c-40.879 0-77.781 23.772-94.965 60.162-42.148 2.769-73.983 40.178-69.646 82.439-19.18 16.991-30.389 41.546-30.389 67.399 0 27.267 12.449 53.059 33.568 70.087.454 1.565.959 3.108 1.495 4.638l243.38-243.381c-19.203-25.112-49.461-41.344-83.443-41.344z"/><path id="XMLID_1732_" d="m188.914 416.432c17.027 21.118 42.82 33.568 70.086 33.568 46.225 0 84.422-35.027 89.44-79.935 35.707-12.366 60.56-46.435 60.56-85.065 0-23.144-8.758-44.994-24.377-61.586 11.102-24.449 12.697-53.229 2.901-79.725l-243.202 243.202c11.394 13.931 26.871 24.398 44.592 29.541zm51.086-71.432h30v30h-30z"/></g></svg>