<svg id="Capa_1" enable-background="new 0 0 510 510" height="512" viewBox="0 0 510 510" width="512" xmlns="http://www.w3.org/2000/svg"><g id="XMLID_161_"><path id="XMLID_167_" d="m165 255c0-49.626 40.374-90 90-90 19.409 0 37.403 6.177 52.12 16.667l64.044-64.044c-27.79-23.535-62.785-38.811-101.164-41.992v-75.631h-30v75.631c-87.312 7.237-157.132 77.057-164.37 164.369h-75.63v30h75.63c3.182 38.379 18.458 73.375 41.993 101.164l64.044-64.044c-10.49-14.717-16.667-32.71-16.667-52.12z"/><path id="XMLID_166_" d="m255 315c33.084 0 60-26.916 60-60 0-11.111-3.047-21.52-8.333-30.453l-82.121 82.119c8.934 5.287 19.343 8.334 30.454 8.334z"/><path id="XMLID_165_" d="m434.369 240c-3.181-38.379-18.457-73.374-41.992-101.164l-64.044 64.044c10.49 14.717 16.667 32.71 16.667 52.12 0 49.626-40.374 90-90 90-19.41 0-37.403-6.177-52.12-16.666l-64.044 64.043c27.79 23.535 62.785 38.811 101.164 41.992v75.631h30v-75.631c87.311-7.237 157.132-77.057 164.369-164.369h75.631v-30z"/><path id="XMLID_164_" d="m195 255c0 11.111 3.047 21.52 8.333 30.453l82.121-82.119c-8.934-5.287-19.343-8.334-30.454-8.334-33.084 0-60 26.916-60 60z"/><path id="XMLID_163_" d="m117.623 371.164-113.229 113.229 21.213 21.213 113.23-113.23c-7.644-6.472-14.741-13.569-21.214-21.212z"/><path id="XMLID_162_" d="m392.377 138.836 113.229-113.23-21.212-21.213-113.23 113.23c7.643 6.473 14.74 13.57 21.213 21.213z"/></g></svg>