<svg id="Capa_1" enable-background="new 0 0 512 512" height="512" viewBox="0 0 512 512" width="512" xmlns="http://www.w3.org/2000/svg"><g id="XMLID_16_"><path id="XMLID_620_" d="m241 206.75v-53.562h30v53.562h68.417l30.786-121.553h-10.921c-12.769 0-21.883 2.53-30.697 4.977-8.073 2.241-15.698 4.357-26.15 4.357-9.965 0-14.639-1.879-20.05-4.054-6.157-2.475-13.136-5.28-26.391-5.28-13.253 0-20.231 2.806-26.388 5.28-5.41 2.175-10.082 4.054-20.046 4.054-10.451 0-18.075-2.116-26.147-4.357-8.814-2.446-17.929-4.977-30.695-4.977h-10.885l30.372 121.553z"/><path id="XMLID_636_" d="m512 315.884h-27.551l-53.858-79.134h-356.131l-47.467 79.134h-26.993v30h26.993l48.538 80.919h353.847l55.073-80.919h27.549zm-181.42 27.025h-149.16v-30h149.16z"/></g></svg>