<svg id="Capa_1" enable-background="new 0 0 510 510" height="512" viewBox="0 0 510 510" width="512" xmlns="http://www.w3.org/2000/svg"><g><path d="m82.5 291.213 45 45v101.367c-17.459 6.192-30 22.865-30 42.42v30h90v-30c0-19.555-12.542-36.228-30-42.42v-101.367l45-45v-201.213h-120zm60 17.574-30-30v-83.787h60v83.787zm30-188.787v45h-60v-45z"/><path d="m187.5 0h-90c-24.813 0-45 20.188-45 45v15h180v-15c0-24.812-20.187-45-45-45z"/><path d="m307.5 291.213 45 45v101.367c-17.458 6.192-30 22.865-30 42.42v30h90v-30c0-19.555-12.542-36.228-30-42.42v-101.367l45-45v-201.213h-120zm60 17.574-30-30v-83.787h60v83.787zm30-188.787v45h-60v-45z"/><path d="m412.5 0h-90c-24.813 0-45 20.188-45 45v15h180v-15c0-24.812-20.187-45-45-45z"/></g></svg>