<svg id="Layer_1" enable-background="new 0 0 510.288 510.288" height="512" viewBox="0 0 510.288 510.288" width="512" xmlns="http://www.w3.org/2000/svg"><g id="XMLID_1780_"><path id="XMLID_1893_" d="m240.144 105.748c-70.759 7.058-127.194 63.492-134.252 134.252h59.252v30h-59.252c7.058 70.759 63.493 127.194 134.252 134.252v-59.252h30v59.252c70.759-7.058 127.194-63.493 134.252-134.252h-59.252v-30h59.252c-7.058-70.76-63.493-127.194-134.252-134.252v59.252h-30zm30 89.252v51.973l38.32 25.547-16.641 24.961-51.68-34.453v-68.028z"/><path id="XMLID_1897_" d="m459.492 102.436 41.591 2.537 1.826-29.945-92.019-5.612-5.711 84.504 29.932 2.022 2.229-32.982c27.764 38.207 42.806 84.136 42.806 132.041 0 124.065-100.935 225-225 225s-225-100.935-225-225 100.935-225 225-225v-30.001c-140.931 0-255 114.05-255 255 0 225.129 274.198 341.428 435.311 180.311 48.164-48.163 74.689-112.199 74.689-180.311-.002-55.516-17.818-108.694-50.654-152.564z"/></g></svg>