<svg id="Capa_1" enable-background="new 0 0 512 512" height="512" viewBox="0 0 512 512" width="512" xmlns="http://www.w3.org/2000/svg"><g><path d="m450.253 160.17c.85-2.563 8.247-25.605 8.247-42.173s-7.397-39.609-8.247-42.173c-1.758-5.347-6.753-23.822-6.753-33.827 0-9.99 4.878-26.909 6.753-32.651l-28.506-9.346c-.85 2.563-8.247 25.43-8.247 41.997s7.397 40.609 8.247 43.173c1.758 5.347 6.753 22.822 6.753 32.827 0 9.99-4.878 27.085-6.753 32.827z"/><path d="m482 421h-371.278l103.081-72.155c9.269 4.191 20.31 4.094 29.394-2.26l165-115.503c13.55-9.492 16.86-28.228 7.383-41.777-9.525-13.636-28.295-16.853-41.777-7.383l-165 115.503c-8.976 6.288-12.953 16.635-12.2 26.841l-138.194 96.734h-28.409c-16.569 0-30 13.431-30 30 0 16.567 13.431 30 30 30h46v31h60v-31h240v31h60v-31h46c16.569 0 30-13.433 30-30 0-16.569-13.431-30-30-30z"/></g></svg>