<svg id="Capa_1" enable-background="new 0 0 512 512" height="512" viewBox="0 0 512 512" width="512" xmlns="http://www.w3.org/2000/svg"><g><path d="m421 110.091v391.978h91v-391.978zm60.5 330.989h-30v-30h30zm0-60.001h-30v-30h30zm0-60h-30v-30h30zm0-60h-30v-30h30zm0-60h-30v-30h30z"/><path d="m0 502.068h91v-391.977h-91zm30.5-330.989h30v30h-30zm0 60h30v30h-30zm0 60h30v30h-30zm0 60h30v30h-30zm0 60.001h30v30h-30z"/><path d="m361 50.091h-210v-40.159h-30v492.137h60v-145.765h150v145.765h60v-492.137h-30zm-210 30h90v30h-90zm0 60h90v30h-90zm0 90.018v-30.019h90v30.019zm60 90.038h-30v-30h30zm60 0h-30v-30h30zm60 0h-30v-30h30zm0-60.038h-30v-30h30zm-60-90.018v-30h90v30zm90-60h-90v-30h90z"/><path d="m211 386.304h30v115.765h-30z"/><path d="m271 386.304h30v115.765h-30z"/></g></svg>