<svg id="Capa_1" enable-background="new 0 0 512 512" height="512" viewBox="0 0 512 512" width="512" xmlns="http://www.w3.org/2000/svg"><g><path d="m255.919 211c-24.814 0-45 20.186-45 45s20.186 45 45 45 45-20.186 45-45-20.185-45-45-45zm15 60h-30v-30h30z"/><path d="m460.789 205.214-21.211 21.211 15 15h-34.397c-3.023-34.301-16.505-65.634-37.343-90.709l28.09-28.09v21.226h30v-72.437h-72.422v30h21.211l-28.072 28.072c-25.051-20.971-56.382-34.612-90.727-37.727v-34.338l15 15 21.211-21.211-51.21-51.211-51.211 51.211 21.211 21.211 15-15v34.338c-34.345 3.115-65.676 16.756-90.727 37.727l-28.072-28.072h21.211v-30h-72.421v72.437h30v-21.226l28.09 28.09c-20.837 25.074-34.319 56.407-37.343 90.709h-34.235l15-15-21.211-21.211-51.211 51.211 51.211 51.211 21.211-21.211-15-15h34.279c3.188 34.182 16.82 65.358 37.703 90.304l-28.495 28.495v-21.226h-30v72.437h72.422v-30h-21.211l28.517-28.517c24.974 20.751 56.147 34.226 90.282 37.322v34.338l-15-15-21.211 21.211 51.211 51.211 51.211-51.211-21.211-21.211-15 15v-34.338c34.135-3.096 65.308-16.571 90.282-37.322l28.517 28.517h-21.211v30h72.422v-72.437h-30v21.226l-28.495-28.495c20.883-24.946 34.515-56.122 37.703-90.304h34.441l-15 15 21.211 21.211 51.211-51.211zm-129.87 50.786c0 8.282-1.672 16.113-4.162 23.569l27.599 15.938-15 25.986-27.583-15.928c-10.578 11.907-24.666 20.62-40.854 23.917v31.518h-30v-31.518c-16.188-3.298-30.276-12.01-40.854-23.917l-27.583 15.928-15-25.986 27.599-15.938c-2.49-7.456-4.162-15.287-4.162-23.569s1.672-16.113 4.162-23.569l-27.599-15.938 15-25.986 27.583 15.928c10.578-11.907 24.666-20.62 40.854-23.917v-31.518h30v31.518c16.188 3.298 30.276 12.01 40.854 23.917l27.583-15.928 15 25.986-27.599 15.938c2.491 7.456 4.162 15.287 4.162 23.569z"/></g></svg>