<svg id="Capa_1" enable-background="new 0 0 512 512" height="512" viewBox="0 0 512 512" width="512" xmlns="http://www.w3.org/2000/svg"><g><path d="m448.36 212.132c-3.15-3.15-153.559-153.559-148.492-148.492l-21.213 21.213 21.213 21.213-21.213 21.213 42.426 42.426-21.213 21.213-42.426-42.426-21.213 21.213 42.426 42.426-21.213 21.213-42.426-42.426-21.213 21.213 106.066 106.066 106.066-106.066 21.213 21.213z"/><path d="m151.376 254.558 42.426 42.426-21.213 21.213-42.426-42.426-10.607 10.607c-17.546 17.546-17.546 46.093 0 63.64l42.426 42.426c17.546 17.546 46.093 17.546 63.64 0l53.033-53.033-106.066-106.066z"/><path d="m363.508 84.853 63.639 63.639 42.427-42.426 21.213 21.213 21.213-21.213-106.066-106.066-21.213 21.213 21.213 21.213z"/><path d="m-11.958 431.919h154.077v30h-154.077z" transform="matrix(.707 -.707 .707 .707 -296.958 176.919)"/></g></svg>