<svg id="Capa_1" enable-background="new 0 0 512 512" height="512" viewBox="0 0 512 512" width="512" xmlns="http://www.w3.org/2000/svg"><g><path d="m197.619 164.333c-41.461 0-78.407 27.455-90.411 66.967-.14 2.661-.208 9.7-.208 9.7 0 82.159 66.842 149 149.001 149 82.158 0 148.999-66.841 148.999-149 0 0-.068-7.04-.208-9.701-10.504-34.573-40.104-59.914-75.115-65.709-5.001-.828-10.113-1.257-15.296-1.257zm-11.285 113h-30v-30h30zm69.666 57.667c-20.521 0-39.658-11.044-49.942-28.822l25.969-15.021c4.939 8.538 14.125 13.843 23.973 13.843s19.035-5.305 23.976-13.844l25.967 15.023c-10.285 17.777-29.422 28.821-49.943 28.821zm69.667-87.667h30v30h-30z"/><path d="m495 239c0-63.839-24.86-123.857-70.001-168.998-45.142-45.142-105.159-70.002-168.998-70.002h-.001c-63.839 0-123.856 24.86-168.998 70.002s-70.002 105.159-70.002 168.998v33.333c0 55.096 18.532 107.337 52.623 149.634-15.747 21.732-24.295 47.895-24.295 75.033v15h321.669v-15.667c0-42.09-34.243-76.333-76.333-76.333h-34.664c-21.333 0-44.667-4.333-61.482-10.879-61.2-23.825-107.521-78.242-116.077-145.354-.571-4.475-1.441-14.473-1.441-22.767l.462-14.834c7.274-25.502 23.378-50.032 44.536-66.236 21.867-16.746 48.016-25.597 75.621-25.597h116.762c24.286 0 50.786 6.667 75.62 25.597 14.571 11.107 26.493 25.477 34.903 41.636 3.823 7.345 7.36 16.629 9.634 24.598l.462 14.836c0 9.216-.87 18.292-1.441 22.767-7.628 59.833-44.913 110.529-96.601 136.852 35.504 17.242 60.039 53.666 60.039 95.714v15.667h69.676v-15c0-27.137-8.548-53.3-24.295-75.033 34.09-42.297 52.622-94.538 52.622-149.634z"/></g></svg>