<?xml version="1.0" encoding="iso-8859-1"?>
<!-- Generator: Adobe Illustrator 19.0.0, SVG Export Plug-In . SVG Version: 6.00 Build 0)  -->
<svg version="1.1" id="Layer_1" xmlns="http://www.w3.org/2000/svg" xmlns:xlink="http://www.w3.org/1999/xlink" x="0px" y="0px"
	 viewBox="0 0 512 512" style="enable-background:new 0 0 512 512;" xml:space="preserve">
<g>
	<g>
		<polygon points="406.857,44.735 406.857,0.327 375.51,0.327 375.51,44.735 271.673,44.735 271.673,0.327 240.327,0.327 
			240.327,44.735 136.49,44.735 136.49,0.327 105.143,0.327 105.143,44.735 0,44.735 0,149.878 512,149.878 512,44.735 		"/>
	</g>
</g>
<g>
	<g>
		<path d="M0,181.225v330.449h512V181.225H0z M356.837,358.581l-85.163-24.333v74.687l33.694,9.627l-8.612,30.141L256,437.058
			l-40.755,11.644l-8.612-30.141l33.694-9.627v-74.687l-85.163,24.332l-8.612-30.141l93.775-26.791v-48.26
			c0-8.656,7.018-15.673,15.673-15.673s15.673,7.018,15.673,15.673v48.26l93.775,26.793L356.837,358.581z"/>
	</g>
</g>
<g>
</g>
<g>
</g>
<g>
</g>
<g>
</g>
<g>
</g>
<g>
</g>
<g>
</g>
<g>
</g>
<g>
</g>
<g>
</g>
<g>
</g>
<g>
</g>
<g>
</g>
<g>
</g>
<g>
</g>
</svg>
