<svg id="Capa_1" enable-background="new 0 0 512 512" height="512" viewBox="0 0 512 512" width="512" xmlns="http://www.w3.org/2000/svg"><g><path d="m497 75.5c-33.36 0-60.5-27.141-60.5-60.5v-15h-90v399.25c0 12.544-10.206 22.75-22.75 22.75s-22.75-10.206-22.75-22.75v-323.75h-90v323.75c0 12.544-10.206 22.75-22.75 22.75s-22.75-10.206-22.75-22.75v-399.25h-90v15c0 33.359-27.14 60.5-60.5 60.5h-15v90h15c21.021 0 41.546-4.341 60.5-12.695v246.445c0 62.171 50.58 112.75 112.75 112.75 24.679 0 48.285-7.969 67.75-22.667 19.465 14.698 43.071 22.667 67.75 22.667 62.17 0 112.75-50.579 112.75-112.75v-246.445c18.954 8.354 39.479 12.695 60.5 12.695h15v-90z"/></g></svg>