<svg id="Capa_1" enable-background="new 0 0 510 510" height="512" viewBox="0 0 510 510" width="512" xmlns="http://www.w3.org/2000/svg"><g><circle cx="105" cy="283.129" r="52.5"/><circle cx="255" cy="283.129" r="52.5"/><path d="m315.088 339.572c-32.648 34.735-87.515 34.748-120.176 0-27.133 19.002-44.912 50.49-44.912 86.057v30h210v-30c0-35.567-17.779-67.055-44.912-86.057z"/><path d="m44.912 339.572c-27.133 19.002-44.912 50.49-44.912 86.057v30h120v-30c0-24.278 6.447-47.076 17.713-66.779-31.351 13.596-68.524 6.55-92.801-19.278z"/><path d="m465.136 339.522c-24.109 25.693-61.264 33.025-92.849 19.328 11.267 19.703 17.713 42.501 17.713 66.779v30h120v-30c0-35.541-17.498-66.906-44.864-86.107z"/><circle cx="405" cy="283.129" r="52.5"/><path d="m393.742 190.295 44.165-13.266 44.164 13.266 1.031-46.102 26.264-37.904-43.527-15.226-27.932-36.692-27.931 36.692-43.528 15.227 26.265 37.903z"/><path d="m210.836 190.295 44.164-13.266 44.165 13.266 1.029-46.102 26.265-37.903-43.527-15.227-27.932-36.692-27.932 36.692-43.527 15.227 26.264 37.903z"/><path d="m27.929 190.295 44.164-13.266 44.164 13.266 1.031-46.102 26.264-37.903-43.527-15.227-27.932-36.691-27.932 36.691-43.527 15.227 26.264 37.903z"/></g></svg>