<?xml version="1.0" encoding="iso-8859-1"?>
<!-- Generator: Adobe Illustrator 19.0.0, SVG Export Plug-In . SVG Version: 6.00 Build 0)  -->
<svg xmlns="http://www.w3.org/2000/svg" xmlns:xlink="http://www.w3.org/1999/xlink" version="1.1" id="Layer_1" x="0px" y="0px" viewBox="0 0 512 512" style="enable-background:new 0 0 512 512;" xml:space="preserve">
<g>
	<g>
		<path d="M463.713,248.507c-26.34-18.142-61.941-32.366-103.413-41.383c-6.431-24.785-21.833-53.075-46.044-84.467    c-23.627-30.636-46.95-52.858-47.932-53.789L256,59.073l-10.324,9.794c-0.981,0.931-24.305,23.153-47.932,53.789    c-24.211,31.392-39.613,59.682-46.044,84.467c-41.472,9.017-77.073,23.241-103.413,41.383C16.697,270.264,0,296.589,0,324.636    c0,36.402,28.129,69.673,79.206,93.684C126.68,440.636,189.467,452.927,256,452.927s129.32-12.291,176.794-34.607    C483.871,394.309,512,361.038,512,324.636C512,296.589,495.303,270.264,463.713,248.507z M256,340.05    c36.041,0,68.003-17.789,87.576-45.044c40.127,10.075,53.472,24.026,53.472,29.631c0,4.785-9.493,15.215-35.647,24.342    c-27.926,9.745-65.357,15.112-105.4,15.112c-40.043,0-77.475-5.367-105.4-15.112c-26.154-9.126-35.647-19.557-35.647-24.342    c0-5.605,13.345-19.556,53.472-29.631C187.997,322.261,219.959,340.05,256,340.05z M420.031,391.17    C376.468,411.648,318.213,422.927,256,422.927S135.532,411.648,91.969,391.17C52.587,372.657,30,348.406,30,324.636    c0-22.404,19.198-40.33,35.304-51.422c21.165-14.577,49.646-26.388,83.132-34.558c0.593,10.133,2.592,19.893,5.806,29.09    c-16.425,4.619-30.506,10.366-41.327,16.921c-23.111,14-27.963,29.463-27.963,39.969c0,15.149,9.675,36.584,55.763,52.667    C171.736,388.128,212.679,394.09,256,394.09s84.264-5.961,115.285-16.787c46.088-16.083,55.763-37.518,55.763-52.667    c0-10.506-4.852-25.969-27.963-39.969c-10.821-6.555-24.902-12.303-41.327-16.921c3.214-9.197,5.213-18.957,5.806-29.09    c33.487,8.17,61.968,19.981,83.132,34.558C462.802,284.306,482,302.232,482,324.636C482,348.406,459.413,372.657,420.031,391.17z"/>
	</g>
</g>
<g>
</g>
<g>
</g>
<g>
</g>
<g>
</g>
<g>
</g>
<g>
</g>
<g>
</g>
<g>
</g>
<g>
</g>
<g>
</g>
<g>
</g>
<g>
</g>
<g>
</g>
<g>
</g>
<g>
</g>
</svg>
