<svg id="Capa_1" enable-background="new 0 0 510 510" height="512" viewBox="0 0 510 510" width="512" xmlns="http://www.w3.org/2000/svg"><g><path d="m165 157v137.57c4.145-1.474 8.67-2.322 12.846-2.516 2.02-.097 1.654-.035 17.154-.055v-149.999h-15c-8.271 0-15 6.729-15 15z"/><path d="m165 337c0 8.272 6.729 15 15 15h135v-30h-135c-8.271 0-15 6.728-15 15z"/><path d="m90 0v435h330v-435zm120 45h90v30h-90zm-75 0h30v30h-30zm240 277h-30v30h30v30h-195c-24.813 0-45-20.186-45-45v-180c0-24.812 20.187-45 45-45h195z"/><path d="m345 142h-120v150h120zm-30 120h-60v-30h60zm0-60h-60v-30h60z"/><path d="m90 465h330v45h-330z"/></g></svg>