<svg id="Capa_1" enable-background="new 0 0 510.042 510.042" height="512" viewBox="0 0 510.042 510.042" width="512" xmlns="http://www.w3.org/2000/svg"><g><path d="m434.186 60.515c-99.293-80.674-259.009-80.698-358.33 0-48.903 39.733-75.835 92.836-75.835 149.527 0 41.355 33.645 75 75 75h360c41.355 0 75-33.645 75-75 0-56.691-26.933-109.794-75.835-149.527zm-329.165 149.527h-30v-30h30zm75-30h-30v-30h30zm0-60h-30v-30h30zm90 90h-30v-30h30zm0-60h-30v-30h30zm0-60h-30v-30h30zm90 90h-30v-30h30zm0-60h-30v-30h30zm75 90h-30v-30h30z"/><path d="m299.651 375.042h-84.963c-.01 39.332-22.289 77.276-39.867 113.439-4.844 9.966 2.414 21.561 13.495 21.561h133.656c10.95 0 18.231-11.361 13.617-21.292-16.839-36.243-36.852-74.278-35.938-113.708z"/><path d="m300.021 345.042c16.568 0 30-13.432 30-30h-150c0 16.568 13.432 30 30 30z"/></g></svg>