<svg id="Layer_1" enable-background="new 0 0 510 510" height="512" viewBox="0 0 510 510" width="512" xmlns="http://www.w3.org/2000/svg"><g><path d="m172.5 210h165c12.426 0 22.5-10.073 22.5-22.5 0-12.427-10.074-22.5-22.5-22.5h-165c-12.426 0-22.5 10.073-22.5 22.5 0 12.427 10.074 22.5 22.5 22.5z"/><path d="m239.999 420.006c.001 8.248 6.73 14.977 15.001 14.977 8.266 0 14.992-6.722 15-14.985-.16-4.28-6.491-15.557-14.995-27.45-8.513 11.912-14.855 23.2-15.006 27.458z"/><path d="m359.992 344.178c-.438-24.436-20.453-44.178-44.992-44.178h-120c-24.539 0-44.553 19.742-44.993 44.178l-15.007 120.074v.748c0 24.814 20.187 45 45 45h150c24.814 0 45-20.186 45-45v-.748zm-104.992 120.804c-24.813 0-45-20.186-45-45 0-6.448 1.83-17.678 17.648-40.64 7.843-11.385 15.601-20.529 15.927-20.913l11.425-13.429 11.425 13.43c.327.384 8.085 9.528 15.928 20.913 15.818 22.962 17.647 34.191 17.647 40.639 0 24.814-20.186 45-45 45z"/><path d="m302.911 43.357c-2.472-24.717-23.07-43.357-47.911-43.357-24.842 0-45.439 18.641-47.911 43.358l-9.164 91.642h114.15z"/><path d="m195 270h120c5.258 0 10.306.912 15 2.577v-32.577h-150v32.577c4.694-1.665 9.742-2.577 15-2.577z"/></g></svg>