<svg id="Capa_1" enable-background="new 0 0 512 512" height="512" viewBox="0 0 512 512" width="512" xmlns="http://www.w3.org/2000/svg"><g><path d="m60.5 482h391v30h-391z"/><path d="m406.5 240.667v-60h-30v30h-241v-30h-30v60h135.5v30h-150.5v181.333h331v-181.333h-150.5v-30zm-165.5 180h-90.5v-30h90.5zm0-60h-90.5v-30h90.5zm120.5 60h-90.5v-30h90.5zm0-60h-90.5v-30h90.5z"/><path d="m191.194 0h-159.375l79.688 56.901z"/><path d="m223.013 14.142-111.506 79.623-111.507-79.623v136.525h223.013z"/><path d="m512 14.142-111.507 79.623-111.506-79.623v136.525h223.013z"/><path d="m480.181 0h-159.375l79.687 56.901z"/></g></svg>