<svg id="Capa_1" enable-background="new 0 0 512.007 512.007" height="512" viewBox="0 0 512.007 512.007" width="512" xmlns="http://www.w3.org/2000/svg"><g><path d="m331.059 346.477c0-23.995-5.138-46.81-14.362-67.413l-53.804-8.737-86.757 86.757-21.213-21.213 86.757-86.757-8.738-53.805c-16.261-7.28-33.902-12.005-52.413-13.675v44.313h-85.86c-12.32 0-24.083-2.403-34.877-6.726-36.509 30.389-59.792 76.153-59.792 127.257 0 91.273 74.256 165.529 165.53 165.529 91.273 0 165.529-74.256 165.529-165.53z"/><path d="m416.548 74.247-31.82-31.82-31.82 31.82 42.426 42.426-21.213 21.212-42.426-42.426-21.214 21.214 42.427 42.426-21.213 21.213-42.427-42.426-30.332 30.332 11.855 72.999 72.998 11.854 125.792-125.792-31.82-31.819 21.213-21.214 31.82 31.82 21.213-21.212-84.853-84.854-21.213 21.213 31.82 31.82z"/><path d="m150.53 170.087c0-35.423-28.716-64.139-64.139-64.139h-55.861v25.861c0 35.423 28.716 64.139 64.139 64.139h55.861z"/></g></svg>