<svg id="Capa_1" enable-background="new 0 0 512 512" height="512" viewBox="0 0 512 512" width="512" xmlns="http://www.w3.org/2000/svg"><g><path d="m162.97 172.801c-.01.25-.01.49-.01.72v61.97c0 54.69 41.65 99.03 93.04 99.03h.12c50.926 0 93.01-44.384 92.91-99.03v-61.97c0-.23 0-.47-.01-.72-.36-10.25-8.14-28.4-17.99-47.45-16.69-32.33 6.75-70.85 43.12-70.86-22.736-35.102-67.257-54.491-117.722-54.491-46.998.048-93.324 16.053-118.588 54.49 36.38.01 59.81 38.53 43.12 70.86-9.85 19.05-17.63 37.201-17.99 47.451zm65.367-82.425h55.327v30h-55.327z"/><path d="m116.87 128c0 14.097 6.634 26.792 17.094 34.933 1.821-9.981 6.82-25.198 20.339-51.344 6.429-16.118-3.886-26.109-16.471-27.099l-51.333-.014c-1.056 3.66-1.629 7.525-1.629 11.524-.082 17.06 14.017 31.848 32 32z"/><path d="m316.094 348.067c-18.18 10.728-38.727 16.453-59.974 16.453-20.805-.01-41.441-5.445-60.234-16.418l-3.808 12.315 63.918 45.21 63.918-45.21z"/><path d="m404.75 330.375h64v-30.25h28.25v-30h-45.25v-30.25h30.125v-30h-90.25v30h30.125v30.25h-45.25v30h28.25z"/><path d="m395.12 128c0 14.097-6.634 26.792-17.094 34.933-1.821-9.981-6.82-25.198-20.339-51.344-6.429-16.118 3.886-26.109 16.471-27.099l51.333-.014c1.056 3.66 1.628 7.524 1.628 11.524.083 17.06-14.016 31.848-31.999 32z"/><path d="m436.75 431.934c17.673 0 32-14.327 32-32v-39.558h-64v39.558c0 17.673 14.327 32 32 32z"/><path d="m484.636 439.271c-8.325 10.116-19.789 17.551-32.886 20.818v51.911h60.25c-2.673-26.952-12.404-51.831-27.364-72.729z"/><path d="m421.75 460.089c-21.718-5.418-38.93-22.315-44.808-43.849l-61.111 77.467-59.834-50.137-59.834 50.137-87.66-111.121c-57.864 17.662-101.913 68.116-108.503 129.414h421.75z"/><path d="m370.532 375.928-17.074-2.49-72.908 51.568 30.864 25.862z"/><path d="m231.441 425.006-72.873-51.545-17.076 2.508 59.085 74.899z"/></g></svg>