<svg id="Capa_1" enable-background="new 0 0 512 512" height="512" viewBox="0 0 512 512" width="512" xmlns="http://www.w3.org/2000/svg"><g><path d="m233.246 434.307c0-3.464.167-6.902.488-10.307h-118.165v88h150.8c-22.362-20.875-33.123-48.927-33.123-77.693z"/><path d="m241.019 393.999c5.346-13.258 13.357-25.431 23.77-35.843 10.552-10.552 22.912-18.638 36.377-23.983v-112.84h-185.597v172.667h125.45zm-47.651-134.333h30v96h-30z"/><path d="m115.569 133.999h185.597v57.333h-185.597z"/><path d="m323.368 103.999v-48.999c0-30.327-24.673-55-55-55h-120c-30.327 0-55 24.673-55 55v48.999z"/><ellipse cx="340.939" cy="434.307" rx="77.693" ry="77.693" transform="matrix(.995 -.099 .099 .995 -41.136 35.709)"/></g></svg>