<svg id="Capa_1" enable-background="new 0 0 512 512" height="512" viewBox="0 0 512 512" width="512" xmlns="http://www.w3.org/2000/svg"><g><path d="m422 0h90v116.121h-90z"/><path d="m422 146.121h90v365.879h-90z"/><path d="m302 121h90v244.879h-90z"/><path d="m302 395.879h90v116.121h-90z"/><path d="m120.169 512v-116.121h-45.12c2.988 58.688 23.23 102.065 45.12 116.121z"/><path d="m75.049 365.879h45.12v-116.122c-21.89 14.056-42.132 57.434-45.12 116.122z"/><path d="m198.189 260.392c1.285 2.276 2.541 4.621 3.758 7.055 13.486 26.974 21.627 61.48 23.366 98.432h45.024c-5.056-45.867-33.009-84.932-72.148-105.487z"/><path d="m150.169 512c21.889-14.056 42.132-57.433 45.12-116.121h-45.12z"/><path d="m0 365.879h45.024c1.739-36.951 9.88-71.458 23.367-98.432 1.217-2.434 2.473-4.78 3.758-7.056-39.14 20.556-67.093 59.621-72.149 105.488z"/><path d="m45.024 395.879h-45.024c5.056 45.867 33.009 84.932 72.149 105.487-1.285-2.276-2.541-4.622-3.758-7.056-13.487-26.973-21.628-61.48-23.367-98.431z"/><path d="m150.169 249.758v116.121h45.12c-2.988-58.688-23.231-102.065-45.12-116.121z"/><path d="m201.947 494.31c-1.217 2.434-2.473 4.78-3.758 7.055 39.139-20.555 67.092-59.62 72.148-105.487h-45.024c-1.739 36.952-9.88 71.459-23.366 98.432z"/></g></svg>