<?xml version="1.0" encoding="iso-8859-1"?>
<!-- Generator: Adobe Illustrator 19.0.0, SVG Export Plug-In . SVG Version: 6.00 Build 0)  -->
<svg xmlns="http://www.w3.org/2000/svg" xmlns:xlink="http://www.w3.org/1999/xlink" version="1.1" id="Layer_1" x="0px" y="0px" viewBox="0 0 512 512" style="enable-background:new 0 0 512 512;" xml:space="preserve">
<g>
	<g>
		<circle cx="293.832" cy="66.783" r="33.391"/>
	</g>
</g>
<g>
	<g>
		<path d="M453.605,86.458l-19.676-19.675l-70.84,70.84c-12.403,12.4-28.891,19.228-46.431,19.228    c-17.54,0-34.031-6.831-46.435-19.233l-59.028-59.028L108.261,181.523H38.377v33.391h83.715l18.271-18.271l23.612,23.612    l-30.527,30.527H63.563v33.391h83.715l112.147-112.147c15.015,10.677,32.637,16.914,51.243,18.017l-85.305,85.305l66.898,66.898    l161.343-161.345C479.685,154.823,479.685,112.539,453.605,86.458z"/>
	</g>
</g>
<g>
	<g>
		<path d="M451.612,400.784c-1.228-0.928-2.431-1.885-3.612-2.871c-1.182,0.985-2.385,1.941-3.612,2.871    c-17.524,13.268-38.406,20.28-60.388,20.28s-42.864-7.012-60.388-20.28c-1.228-0.928-2.431-1.885-3.612-2.871    c-1.182,0.985-2.385,1.941-3.612,2.871c-17.524,13.268-38.406,20.28-60.388,20.28s-42.864-7.012-60.388-20.28    c-1.228-0.928-2.431-1.885-3.612-2.871c-1.182,0.985-2.385,1.941-3.612,2.871c-17.524,13.268-38.406,20.28-60.388,20.28    s-42.864-7.012-60.388-20.28c-1.228-0.928-2.431-1.885-3.612-2.871c-1.182,0.985-2.385,1.941-3.612,2.871    C42.864,414.05,21.983,421.063,0,421.063v57.545h512v-57.545C490.017,421.063,469.136,414.051,451.612,400.784z"/>
	</g>
</g>
<g>
</g>
<g>
</g>
<g>
</g>
<g>
</g>
<g>
</g>
<g>
</g>
<g>
</g>
<g>
</g>
<g>
</g>
<g>
</g>
<g>
</g>
<g>
</g>
<g>
</g>
<g>
</g>
<g>
</g>
</svg>
