<svg id="Capa_1" enable-background="new 0 0 511.973 511.973" height="512" viewBox="0 0 511.973 511.973" width="512" xmlns="http://www.w3.org/2000/svg"><g><path d="m343.82 124.821c-16.991 0-30.813 13.823-30.813 30.813v61.085c0 16.99 13.823 30.813 30.813 30.813s30.814-13.823 30.814-30.813v-61.085c0-16.99-13.824-30.813-30.814-30.813z"/><path d="m343.833 0c-92.85 0-168.12 75.27-168.12 168.12s75.27 168.12 168.12 168.12 168.12-75.27 168.12-168.12-75.27-168.12-168.12-168.12zm98.978 169.313h-38.178v33.728h38.178v30h-40.42c-7.152 25.628-30.693 44.492-58.571 44.492s-51.419-18.864-58.571-44.492h-40.395v-30h38.152v-33.728h-38.152v-30h40.395c2.319-8.312 6.349-15.917 11.707-22.392v-20.066l-12.54-12.54 21.213-21.213 21.327 21.327v12.789c5.359-1.55 11.013-2.397 16.864-2.397s11.505.847 16.864 2.397v-12.789l21.302-21.302 21.213 21.213-12.515 12.515v20.066c5.358 6.475 9.388 14.08 11.708 22.392h40.42v30z"/><path d="m203.74 308.213c-3.554-3.554-6.954-7.227-10.207-11.006l-22.972 22.972-13.834-13.834-146.575 146.575c-13.509 13.509-13.509 35.412 0 48.921 13.509 13.509 35.412 13.509 48.921 0l146.575-146.575-13.874-13.874 22.972-22.972c-3.779-3.253-7.451-6.653-11.006-10.207z"/></g></svg>