<svg id="Capa_1" enable-background="new 0 0 512.1 512.1" height="512" viewBox="0 0 512.1 512.1" width="512" xmlns="http://www.w3.org/2000/svg"><g><path d="m140.612 242.112c33.256 0 60.313-27.056 60.313-60.312s-27.056-60.312-60.313-60.312-60.312 27.055-60.312 60.312 27.056 60.312 60.312 60.312zm-14.937-75.312h30v30h-30z"/><path d="m512.05 361.425h-512v49.79h191.626l-6.505 49.16h-57.121v30h256v-30h-57.127l-6.538-49.16h191.665z"/><path d="m512.1 331.425v-309.7h-512.1v309.7zm-170.675-224.875h120.375v30h-120.375zm0 60.25h90.25v30h-90.25zm0 60.25h120.375v30h-120.375zm-60.25-120.5h30v30h-30zm0 60.25h30v30h-30zm0 60.25h30v30h-30zm-140.563-135.563c49.798 0 90.313 40.514 90.313 90.312s-40.514 90.312-90.313 90.312-90.312-40.512-90.312-90.311 40.514-90.313 90.312-90.313z"/></g></svg>