<svg id="Capa_1" enable-background="new 0 0 512 512" height="512" viewBox="0 0 512 512" width="512" xmlns="http://www.w3.org/2000/svg"><g><path d="m102.328 377.265h307.345v-299.796h-307.345zm110.356-155.576c-11.57-11.569-17.942-26.953-17.942-43.316 0-16.362 6.372-31.746 17.942-43.315 23.884-23.887 62.748-23.887 86.633 0 11.57 11.569 17.942 26.953 17.942 43.315 0 16.363-6.372 31.747-17.942 43.316l-22.104 22.104 58.219 58.219-21.213 21.213-58.219-58.219-58.219 58.219-21.213-21.213 58.219-58.219z"/><path d="m278.104 200.477c5.904-5.904 9.155-13.754 9.155-22.104 0-8.349-3.251-16.198-9.155-22.103-6.094-6.094-14.099-9.141-22.104-9.141s-16.009 3.047-22.104 9.141c-5.904 5.904-9.155 13.754-9.155 22.103 0 8.35 3.251 16.199 9.155 22.104l22.104 22.103z"/><path d="m102.328 482c0 16.569 13.431 30 30 30h247.345c16.569 0 30-13.431 30-30v-74.735h-307.345zm136.805-37.337h33.734v30h-33.734z"/><path d="m379.672 0h-247.344c-16.569 0-30 13.431-30 30v17.469h307.345v-17.469c-.001-16.569-13.432-30-30.001-30z"/></g></svg>