<svg id="Layer_1" enable-background="new 0 0 509.944 509.944" height="512" viewBox="0 0 509.944 509.944" width="512" xmlns="http://www.w3.org/2000/svg"><g><path d="m66.946 400.571c-3.631-3.631-6.81-7.547-9.539-11.674l-44.247 44.247c-17.546 17.546-17.546 46.095 0 63.64 17.545 17.546 46.094 17.546 63.64 0l44.247-44.247c-4.127-2.729-8.043-5.907-11.674-9.539z"/><path d="m488.012 21.932c-29.243-29.242-76.824-29.242-106.066 0l42.289 42.289-21.213 21.213-42.289-42.289-21.213 21.214 42.289 42.289-21.213 21.213-42.289-42.289-21.213 21.213 42.289 42.289-21.213 21.213-42.289-42.288-21.213 21.213 42.289 42.289-21.213 21.213-42.289-42.289-21.213 21.214 42.288 42.289-21.213 21.213-42.288-42.289-21.213 21.213 42.289 42.289-21.213 21.213-42.292-42.291-21.213 21.214 42.485 42.485-21.213 21.213-42.485-42.485-18.015 18.016c-17.546 17.546-17.545 46.094 0 63.64l42.426 42.427c17.546 17.545 46.094 17.545 63.64 0l293.787-293.787c29.242-29.244 29.243-76.824 0-106.067z"/></g></svg>