<svg id="Capa_1" enable-background="new 0 0 512 512" height="512" viewBox="0 0 512 512" width="512" xmlns="http://www.w3.org/2000/svg"><g><path d="m355.258 101.203c-14.834 0-28.782 5.777-39.271 16.267-21.654 21.654-21.654 56.889 0 78.543 10.49 10.489 24.437 16.267 39.271 16.267 14.835 0 28.782-5.777 39.271-16.267 21.655-21.654 21.655-56.889 0-78.543-10.489-10.49-24.436-16.267-39.271-16.267z"/><path d="m156.742 299.721c-14.835 0-28.782 5.777-39.271 16.267-21.655 21.654-21.655 56.889 0 78.543 10.49 10.489 24.437 16.267 39.271 16.267s28.782-5.777 39.271-16.267c21.654-21.654 21.654-56.889 0-78.543-10.49-10.49-24.437-16.267-39.271-16.267z"/><path d="m313.483 355.259c0-7.383-.532-14.806-1.567-22.13l-133.045-133.046c-7.325-1.035-14.747-1.567-22.129-1.567-86.428.001-156.742 70.315-156.742 156.743s70.314 156.741 156.741 156.741c86.428 0 156.742-70.313 156.742-156.741zm-96.257 60.484c-16.156 16.156-37.636 25.054-60.484 25.054-22.849 0-44.329-8.897-60.484-25.054-33.352-33.352-33.352-87.617 0-120.969 16.156-16.156 37.636-25.054 60.484-25.054s44.329 8.897 60.484 25.054c33.352 33.352 33.352 87.618 0 120.969z"/><path d="m512 156.741c0-86.428-70.314-156.741-156.741-156.741-86.428 0-156.742 70.313-156.742 156.741 0 7.382.532 14.804 1.567 22.13l133.045 133.046c7.325 1.035 14.747 1.567 22.129 1.567 86.428-.001 156.742-70.315 156.742-156.743zm-96.257 60.485c-16.156 16.156-37.636 25.054-60.484 25.054s-44.329-8.897-60.484-25.054c-33.352-33.352-33.352-87.617 0-120.969 16.156-16.156 37.636-25.054 60.484-25.054 22.849 0 44.329 8.897 60.484 25.054 33.351 33.351 33.351 87.617 0 120.969z"/></g></svg>