<svg id="Capa_1" enable-background="new 0 0 512.117 512.117" height="512" viewBox="0 0 512.117 512.117" width="512" xmlns="http://www.w3.org/2000/svg"><g><path d="m157.987 227.856c0 6.7-1.25 13.11-3.53 19.01l96.53-8.19 61.74 29.03 61.74-29.03 122.55 10.4-92.8-91.14c-6.15-6.04-15.55-7.69-23.4-4.1l-68.09 31.16-68.1-31.16c-7.84-3.59-17.24-1.94-23.39 4.1l-63.76 62.6c.34 2.39.51 4.84.51 7.32z"/><path d="m379.947 269.256-67.22 31.6-67.23-31.6-132.17 11.21c99.368 150.919 299.529 150.823 398.79 0z"/><path d="m127.967 228.496c.414-12.822-10.031-23.533-22.85-23.51-30.51 1.299-30.274 44.759.21 45.74 12.3-.1 22.31-9.98 22.64-22.23z"/><path d="m0 252.055h30v30h-30z"/><path d="m8 171.498h30v30h-30z"/><path d="m76 118.498h30v30h-30z"/></g></svg>