<svg id="Capa_1" enable-background="new 0 0 512 512" height="512" viewBox="0 0 512 512" width="512" xmlns="http://www.w3.org/2000/svg"><g><path d="m172.621 287h166.757c-15.716-18.608-34.583-47.609-48.52-90h-69.718c-13.935 42.391-32.803 71.392-48.519 90z"/><path d="m159.271 317 15 30h163.458l15-30z"/><path d="m235.796 134.252c-1.729 11.568-3.839 22.473-6.251 32.748h52.91c-2.411-10.275-4.521-21.179-6.251-32.748-6.438 1.778-13.208 2.748-20.204 2.748s-13.766-.97-20.204-2.748z"/><path d="m482 92h-156.637c-4.798 10.693-11.981 20.09-20.892 27.488 2.167 17.443 5.256 33.25 8.937 47.512h33.515v30h-24.216c8.537 23.287 18.335 40.981 26.921 53.74 18.39 27.326 35.313 38.531 35.481 38.641l11.445 7.257-40.283 80.362h-200.542l-40.206-80.412 11.444-7.256c.091-.061 17.015-11.266 35.404-38.592 8.586-12.759 18.384-30.454 26.921-53.74h-24.216v-30h33.515c3.68-14.262 6.769-30.069 8.937-47.512-8.91-7.397-16.094-16.795-20.892-27.488h-156.636v315h452z"/><path d="m0 437h512v60h-512z"/><circle cx="256" cy="61" r="46"/></g></svg>