<svg id="Capa_1" enable-background="new 0 0 510 510" height="512" viewBox="0 0 510 510" width="512" xmlns="http://www.w3.org/2000/svg"><g id="XMLID_614_"><circle id="XMLID_615_" cx="255" cy="120" r="15"/><circle id="XMLID_627_" cx="375" cy="255" r="15"/><path id="XMLID_645_" d="m194.498 277.251c3.142-22.272-7.8-37.251-14.498-37.251-6.6 0-17.374 14.68-14.589 36.576 1.557 12.262 1.472 24.445-.251 36.215-2.156 14.697 15.504 22.752 25.443 12.82 2.835-2.834 4.397-6.602 4.397-10.611 0-3.246-3.253-18.207-.502-37.749z"/><path id="XMLID_667_" d="m255 0c-140.931 0-255 114.05-255 255 0 140.932 114.05 255 255 255 140.932 0 255-114.049 255-255 0-140.93-114.049-255-255-255zm-165 218.787v21.213h-30v-21.213c0-25.816 21.003-46.82 46.819-46.82 9.274 0 16.82-7.545 16.82-16.819v-42.427h30v42.427c0 25.816-21.004 46.819-46.82 46.819-9.274 0-16.819 7.545-16.819 16.82zm150 216.213h-30v-22.49c0-4.141-3.369-7.51-7.51-7.51-20.683 0-37.509-16.827-37.509-37.51v-10.078c-17.449-6.199-29.982-22.871-29.981-42.415 0-7.992 3.007-16.076.65-34.64-4.397-34.578 14.099-70.357 44.35-70.357 30.391 0 49.182 36.129 44.205 71.436-2.276 16.166.795 25.606.795 33.564 0 19.978-12.887 36.422-30.019 42.453v10.037c0 4.141 3.368 7.51 7.509 7.51 20.683 0 37.51 16.827 37.51 37.51zm-30-315c0-24.812 20.187-45 45-45s45 20.188 45 45-20.187 45-45 45-45-20.188-45-45zm75 210h30v30h-30zm60 90h-30v-30h30zm72.42-150c-4.527 12.764-14.656 22.893-27.42 27.42v32.58h-30v-32.58c-12.764-4.527-22.893-14.656-27.42-27.42h-32.58v-30h32.58c4.527-12.764 14.656-22.893 27.42-27.42v-32.58h30v32.58c12.764 4.527 22.893 14.656 27.42 27.42h32.58v30z"/></g></svg>