<svg id="Capa_1" enable-background="new 0 0 512 512" height="512" viewBox="0 0 512 512" width="512" xmlns="http://www.w3.org/2000/svg"><g id="XMLID_1008_"><path id="XMLID_1009_" d="m119.801 88.955v-18.388c0-23.275-17.803-42.467-40.506-44.683h-79.295v63.071z"/><path id="XMLID_1010_" d="m463.667 70.567v18.388h48.333v-63.071h-63.16c9.309 12.483 14.827 27.95 14.827 44.683z"/><path id="XMLID_1011_" d="m56.308 118.955h63.493v271.125h-63.493z"/><path id="XMLID_1012_" d="m149.801 70.567v319.513h48.893v-65.043h30v65.043h47.914v-65.043h30v65.043h47.915v-65.043h30v65.043h49.145v-319.513c0-23.275-17.803-42.467-40.505-44.683h-258.188c9.308 12.483 14.826 27.95 14.826 44.683z"/><path id="XMLID_1013_" d="m433.667 420.08h-.252-283.614v66.036h283.866z"/><path id="XMLID_1014_" d="m56.308 420.08h63.493v66.036h-63.493z"/></g></svg>