<svg id="Capa_1" enable-background="new 0 0 512 512" height="512" viewBox="0 0 512 512" width="512" xmlns="http://www.w3.org/2000/svg"><g><path d="m415.75 422c-24.271 0-46.112-14.424-55.642-36.747l-55.179-129.253 55.179-129.253c9.529-22.323 31.37-36.747 55.642-36.747h15v-90h-15c-60.378 0-114.709 35.881-138.415 91.41l-21.335 49.978-21.335-49.978c-23.706-55.529-78.037-91.41-138.415-91.41h-15v90h15c24.271 0 46.112 14.424 55.642 36.747l55.179 129.253-55.179 129.253c-9.529 22.323-31.37 36.747-55.642 36.747h-15v90h15c60.378 0 114.709-35.881 138.415-91.41l21.335-49.978 21.335 49.978c23.706 55.529 78.037 91.41 138.415 91.41h15v-90z"/></g></svg>