<svg id="Capa_1" enable-background="new 0 0 512 512" height="512" viewBox="0 0 512 512" width="512" xmlns="http://www.w3.org/2000/svg"><g><path d="m395.836 172.208c13.426-6.625 27.255-12.105 40.401-17.308 10.154-4.019 19.749-7.815 28.2-11.785 25.226-12.545 42.841-36.761 47.563-64.115h-129.692c10.87 18.713 16.67 40.037 16.67 62.255.279 9.442-.67 21.132-3.142 30.953z"/><path d="m271 0h49v49h-49z"/><path d="m340.266 214.83c20.721-26.991 29.8-49.056 28.767-73.575 0-23.16-8.302-45.04-23.489-62.255h-171.729c-95.842 0-173.815 77.884-173.815 173.615v212.002c51.643-2.897 111.072-22.077 155.43-50.684 41.856-26.993 78.931-60.787 107.215-97.729l77.58-101.324c.014-.016.028-.033.041-.05z"/><path d="m192 0h49v49h-49z"/><path d="m241 512v-127.274c-25.059 23.657-53.695 45.773-84.477 63.57-8.39 19.888-29.206 33.778-51.148 33.704v30c33.28 0 63.797-19.524 77.745-49.741l8.88-19.238v68.979z"/><path d="m331.25 346.375v-70.468c-11.453 14.652-48.562 64.38-60.25 77.433v158.66h49v-105.699c19.042 27.442 50.768 45.449 86.625 45.449v-30c-41.562 0-75.375-33.813-75.375-75.375z"/></g></svg>