<svg id="Capa_1" enable-background="new 0 0 512 512" height="512" viewBox="0 0 512 512" width="512" xmlns="http://www.w3.org/2000/svg"><g><path d="m203.939 163.367-13.478-42.083c-6.815-21.281-3.303-43.973 9.638-62.255 12.603-17.805 32.197-28.374 53.753-28.998 1.427-.041 2.875-.041 4.29 0 21.562.624 41.157 11.193 53.759 28.998 12.94 18.282 16.453 40.974 9.638 62.255l-13.478 42.083 7.24 58.448h30.229l-6.885-55.585 11.464-35.796c9.718-30.344 4.717-62.688-13.722-88.737-18.1-25.572-46.303-40.754-77.384-41.654-1.995-.057-4.005-.057-6.013 0-31.074.9-59.277 16.082-77.377 41.654-18.438 26.05-23.44 58.394-13.722 88.737l11.464 35.796-6.885 55.585h30.229z"/><path d="m196.699 221.815-17.364 170.185h153.329l-17.364-170.185z"/><path d="m438.294 422.034v-.034h-364.588v.035c-24.216.688-43.706 20.587-43.706 44.966v44.999h100.3v-30.64h78.4v30.64h94.6v-30.64h78.4v30.64h100.3v-44.999c0-24.379-19.491-44.278-43.706-44.967z"/><path d="m166.47 221.815h-92.764v170.185h75.4z"/><path d="m438.294 392v-170.185h-92.764l17.363 170.185z"/></g></svg>