<svg id="Capa_1" enable-background="new 0 0 505.699 505.699" height="512" viewBox="0 0 505.699 505.699" width="512" xmlns="http://www.w3.org/2000/svg"><g><path d="m284.749 199.934c-5.863 5.863-5.862 15.35 0 21.213 5.861 5.861 15.351 5.863 21.213 0 5.863-5.863 5.863-15.35 0-21.213-2.834-2.833-15.351-5.864-21.213 0z"/><path d="m115.043 369.64c-5.862 5.862-5.862 15.351 0 21.213 5.849 5.848 15.365 5.848 21.214 0 5.861-5.862 5.863-15.351 0-21.213-5.852-5.851-15.366-5.849-21.214 0z"/><path d="m199.895 284.786c-2.833 2.833-4.393 6.601-4.393 10.607 0 8.292 6.71 15.001 15 15.001 4.006 0 7.773-1.56 10.607-4.393 5.849-5.849 5.849-15.365 0-21.214-5.848-5.848-15.364-5.849-21.214-.001z"/><path d="m369.601 115.081c-5.863 5.862-5.862 15.35 0 21.213 5.861 5.861 15.352 5.862 21.214 0 5.863-5.863 5.863-15.351 0-21.214-2.924-2.924-15.364-5.85-21.214.001z"/><path d="m316.45 61.773c-16.302 16.303-25.029 37.305-26.209 58.645-45.787 2.53-82.323 39.068-84.853 84.852-45.787 2.53-82.323 39.068-84.853 84.852-21.34 1.18-42.341 9.907-58.644 26.209-56.22 56.222-61.891 189.368-61.891 189.368s133.146-5.672 189.367-61.892c16.303-16.303 25.029-37.304 26.209-58.643 45.787-2.531 82.323-39.068 84.852-84.854 45.787-2.529 82.323-39.067 84.853-84.852 21.34-1.18 42.342-9.906 58.644-26.209 56.221-56.221 61.774-189.249 61.774-189.249s-133.028 5.554-189.249 61.773zm-158.98 350.292c-17.542 17.544-46.095 17.547-63.64 0-17.586-17.586-17.589-46.053.001-63.64 17.545-17.545 46.093-17.546 63.639.001 17.585 17.585 17.588 46.051 0 63.639zm84.852-84.852c-17.545 17.545-46.094 17.545-63.639 0-17.546-17.546-17.546-46.094 0-63.64 17.545-17.545 46.094-17.545 63.639 0 17.546 17.546 17.546 46.094 0 63.64zm84.852-84.854c-17.542 17.544-46.093 17.547-63.639 0-17.545-17.545-17.545-46.094 0-63.639 17.545-17.546 46.094-17.546 63.639 0 17.546 17.546 17.546 46.094 0 63.639zm84.854-84.852c-17.544 17.545-46.094 17.547-63.64 0-17.546-17.545-17.546-46.094 0-63.64 17.544-17.544 46.094-17.546 63.64 0s17.546 46.095 0 63.64z"/><path d="m359.942 388.331c-17.574 17.573-22.322 41.317-10.607 53.032 11.716 11.717 35.46 6.968 53.033-10.605 17.574-17.574 22.323-41.318 10.607-53.033-11.716-11.717-35.459-6.967-53.033 10.606z"/><path d="m190.875 72.251c17.574-17.574 22.322-41.317 10.606-53.033-11.715-11.716-35.459-6.967-53.033 10.606s-22.323 41.317-10.607 53.033 35.46 6.967 53.034-10.606z"/><path d="m72.368 190.758c17.574-17.574 22.323-41.318 10.607-53.033-11.716-11.717-35.459-6.967-53.033 10.606s-22.322 41.317-10.607 53.032c11.716 11.717 35.46 6.968 53.033-10.605z"/></g></svg>