<svg id="Capa_1" enable-background="new 0 0 512 512" height="512" viewBox="0 0 512 512" width="512" xmlns="http://www.w3.org/2000/svg"><g id="XMLID_723_"><path id="XMLID_738_" d="m395.186 276.577c-35.368-6.49-61.052-37.316-61.052-73.274v-23.093c-24.286 11.792-50.939 17.957-78.173 17.957-27.212 0-53.831-6.148-78.093-17.915v23.051c0 35.958-25.685 66.784-61.052 73.274l-116.816 20.798v213.333h512v-213.333zm-159.186-39.651h40.533v30.052h-40.533zm-18.397 172.857-10.51-17.079c-6.854-11.138-18.742-18.211-31.799-18.921l-.521-.038-123.843-11.063 2.674-29.933 123.599 11.041c22.788 1.329 43.513 13.711 55.484 33.163l10.51 17.08zm119.364-36.015-.261.014c-13.057.71-24.945 7.783-31.799 18.921l-10.51 17.079-25.594-15.75 10.51-17.079c11.971-19.452 32.696-31.834 55.484-33.163l123.599-11.041 2.674 29.933z"/><path id="XMLID_747_" d="m336.674 144.376c22.901-14.745 38.124-40.017 40.72-67.603l7.105-75.48h-257.043l6.869 75.125c2.523 27.598 17.702 52.927 40.602 67.753 24.195 15.665 52.215 23.945 81.032 23.945 28.683-.001 56.594-8.21 80.715-23.74zm-108.031-76.022h54.87v30.052h-54.87z"/></g></svg>