<svg id="Capa_1" enable-background="new 0 0 512 512" height="512" viewBox="0 0 512 512" width="512" xmlns="http://www.w3.org/2000/svg"><g><path d="m0 .02v120h512v-120h-512zm90 74.96h-30v-30h30zm60 0h-30v-30h30zm60 0h-30v-30h30z"/><path d="m0 150.02v114.48h99.47c6.46-30.25 33.39-53 65.53-53 53.096-.493 85.646 60.973 55.54 104.5 30.106 43.543-2.447 104.99-55.541 104.5-32.139 0-59.069-22.75-65.529-53-21.452 0-78.918 0-99.47 0v144.48h512v-144.94c-20.24.08-78.361.315-99.46.4-6.43 30.28-33.38 53.06-65.54 53.06-53.096.493-85.646-60.973-55.54-104.5-30.106-43.543 2.447-104.99 55.541-104.5 32.129 0 59.039 22.719 65.519 52.939 21.453-.086 78.928-.318 99.48-.4v-114.019c-7.477 0-512 0-512 0z"/><path d="m190.609 326.82s-11.26-10.82-11.26-10.82l11.26-10.82c23.981-22.803 7.453-63.747-25.61-63.68-20.4 0-37 16.6-37 37l.01 16c-22.947 0-107.21 0-128.01 0v43h128v16.09c0 20.31 16.6 36.91 37 36.91 33.071.063 49.589-40.882 25.61-63.68z"/><path d="m512 294.04c-7.26.029-121.38.492-128 .519v-16.149c0-20.31-16.6-36.91-37-36.91-33.07-.063-49.588 40.882-25.609 63.68 0 0 11.26 10.82 11.26 10.82l-11.26 10.82c-23.981 22.803-7.453 63.747 25.61 63.68 20.4 0 37-16.6 37-37v-15.941c22.962-.093 107.203-.437 128-.519v-43z"/></g></svg>