<svg id="Capa_1" enable-background="new 0 0 512 512" height="512" viewBox="0 0 512 512" width="512" xmlns="http://www.w3.org/2000/svg"><g><path d="m434.618 211.093c-.859-1.054-1.779-2.075-2.761-3.057-15.646-15.646-41.014-15.646-56.66 0s-15.646 41.014 0 56.66c12.199 12.199 30.307 14.885 45.109 8.061 12.646 7.291 29.081 5.535 39.894-5.278 12.918-12.918 12.918-33.861 0-46.779-7.017-7.017-16.402-10.213-25.582-9.607z"/><ellipse cx="392.677" cy="52.952" rx="31.952" ry="31.952" transform="matrix(.707 -.707 .707 .707 77.57 293.174)"/><ellipse cx="243.575" cy="106.206" rx="31.952" ry="31.952" transform="matrix(.055 -.999 .999 .055 124.062 343.535)"/><path d="m254.667 0h30v30h-30z"/><path d="m442 131h30v30h-30z"/><path d="m138.667 133.918h30v30h-30z"/><path d="m406.401 373.392-49.489 49.489c-5.626 5.626-13.257 8.787-21.213 8.787h-91.866v-30h74.123c16.569 0 30-13.431 30-30v-18.734h-115.909c-10.811-6.704-23.557-10.583-37.213-10.583-33.273 0-61.163 22.981-68.704 53.933l84.119 84.119h120.972c23.87 0 46.761-9.482 63.64-26.36l67.308-67.308-13.341-13.341c-11.716-11.718-30.711-11.718-42.427-.002z"/><path d="m161.237 287.355v30.792c10.734-3.798 22.109-5.797 33.597-5.797 15.674 0 31.042 3.637 44.953 10.583h138.169v36.477l7.231-7.231c11.332-11.333 26.4-17.574 42.427-17.574 2.573 0 5.118.178 7.63.495v-27.965c-5.455-.136-10.856-.972-16.061-2.484-5.136 1.174-10.408 1.778-15.66 1.778-18.714 0-36.308-7.288-49.54-20.52-8.616-8.616-14.693-19.087-17.898-30.506h-142.896c-17.647 0-31.952 14.305-31.952 31.952z"/><path d="m122.429 265.862c-.91 7.664 1.568 15.653 7.449 21.534.44.44.896.854 1.358 1.256v-1.297c0-34.161 27.792-61.952 61.952-61.952h18.624c-1.451-2.16-3.125-4.215-5.034-6.124-12.398-12.398-30.802-15.128-45.848-8.193-12.853-7.41-29.556-5.626-40.547 5.365-13.129 13.129-13.129 34.415 0 47.544.661.659 1.348 1.274 2.046 1.867z"/><path d="m40.001 459.551-.001 52.449h152.675l3.374-3.373-102.562-102.562z"/></g></svg>