<svg id="Capa_1" enable-background="new 0 0 510 510" height="512" viewBox="0 0 510 510" width="512" xmlns="http://www.w3.org/2000/svg"><g><path d="m0 420h208.491c-6.968 34.191-37.272 60-73.491 60h-15v30h270v-30h-15c-36.22 0-66.522-25.809-73.491-60h208.491v-60h-510z"/><path d="m435 60v150h-165v75h-30v-75h-165v-150c-44.277 0-73.798 0-75 0v270h510v-270c-.92 0-30.507 0-75 0zm-225 225h-30v-45h30zm120 0h-30v-45h30z"/><path d="m375.846 0h-241.692l120.846 72.508z"/><path d="m405 17.492-150 90-150-90v162.508h300z"/></g></svg>