<svg id="Capa_1" enable-background="new 0 0 512 512" height="512" viewBox="0 0 512 512" width="512" xmlns="http://www.w3.org/2000/svg"><g><path d="m146.09 210.427h-80.204l-11.105 83.826h80.203z"/><path d="m436.131 135.079h-360.262l-6.008 45.348h372.278z"/><path d="m165.246 294.253h181.508l-11.106-83.826h-159.296z"/><path d="m377.016 294.253h80.203l-11.106-83.826h-80.203z"/><path d="m81 467h350v45h-350z"/><path d="m371 69.998h-77.6c4.798-7.155 7.6-15.756 7.6-24.999 0-24.812-20.186-44.999-45-44.999-24.813 0-45 20.187-45 44.999 0 9.243 2.802 17.844 7.6 24.999h-77.6v35.081h230z"/><path d="m461.194 324.253h-410.388l-14.937 112.747h440.262zm-319.194 71.373h-30v-30h30zm60 0h-30v-30h30zm198 0h-30v-30h30z"/></g></svg>