<svg id="Capa_1" enable-background="new 0 0 512 512" height="512" viewBox="0 0 512 512" width="512" xmlns="http://www.w3.org/2000/svg"><g><path d="m91.545 134.455h54.819c14.787 0 28.794-5.297 39.766-14.782-7.999-13.529-12.599-29.296-12.599-46.12v-65.387c-54.018 18.685-94.088 67.522-99.971 126.289z"/><path d="m203.532 73.553c0 33.582 27.321 60.902 60.902 60.902h173.995c-1.159-11.664-3.661-23.067-7.465-34.03h-8.55c-20.177 0-38.241-9.213-50.212-23.651-11.971 14.438-30.035 23.651-50.213 23.651h-32.254-30v-30-70.425h-37.469c-6.344 0-12.596.4-18.734 1.171z"/><path d="m77.178 274.093h-3.905c-9.277 0-18.129-1.834-26.234-5.133l-27.285 51.123c26.259 19.481 58.298 26.339 80.828 28.647-12.914-22.305-21.159-47.632-23.404-74.637z"/><path d="m438.729 274.093h-3.906c-2.243 26.979-10.473 52.283-23.366 74.572 22.562-2.343 54.626-9.218 80.788-28.588l-27.282-51.118c-8.105 3.3-16.957 5.134-26.234 5.134z"/><path d="m256.001 438.548c-51.385 0-97.788-21.715-130.533-56.442l-43.437 15.513c-28.887 10.316-48.296 37.857-48.296 68.531v45.85h444.531v-45.851c0-30.674-19.408-58.215-48.295-68.531l-43.438-15.513c-32.744 34.728-79.147 56.443-130.532 56.443z"/><path d="m73.272 244.093h3.273v-79.638h-3.273c-21.956 0-39.818 17.862-39.818 39.818s17.862 39.82 39.818 39.82z"/><path d="m438.729 164.455h-3.273v79.638h3.273c21.956 0 39.818-17.863 39.818-39.819s-17.861-39.819-39.818-39.819z"/><path d="m289.735 0v70.425h32.254c19.447 0 35.213-15.765 35.213-35.212 0-19.448-15.766-35.213-35.213-35.213z"/><path d="m387.202 35.212c0 19.448 15.765 35.213 35.212 35.213h32.254v-70.425h-32.254c-19.447 0-35.212 15.765-35.212 35.212z"/><path d="m146.364 164.455h-39.819v94.638c0 82.41 67.045 149.455 149.456 149.455s149.455-67.045 149.455-149.455v-94.638h-141.021c-22.496 0-43.106-8.218-58.995-21.804-16.33 14.001-37.129 21.804-59.076 21.804zm8.434 41.686h33.734v30h-33.734zm202.406 0v30h-33.734v-30z"/></g></svg>