<svg id="Capa_1" enable-background="new 0 0 512 512" height="512" viewBox="0 0 512 512" width="512" xmlns="http://www.w3.org/2000/svg"><g><path d="m0 277.02c26.957 49.98 65.809 98.1 116.545 133.13v-62.29c-43.804-14.044-87.506-36.842-116.545-70.84z"/><path d="m255.98 69.7h.018.004.018c85.308-1.566 192.874 22.875 245.489 89.76h7.117c-34.281-65.51-92.711-122.44-162.938-152.04-29.01-12.208-64.777-9.141-89.677 7.645-.003.002-.006.004-.01.005-.004-.001-.008-.002-.01-.005-24.901-16.785-60.668-19.853-89.679-7.645-70.227 29.6-128.657 86.53-162.938 152.04h7.117c52.615-66.885 160.181-91.326 245.489-89.76z"/><path d="m256 99.67c-.007 0-.013 0-.02 0-77.296.276-176.956 18.091-221.971 81.29h443.982c-45.015-63.199-144.675-81.014-221.971-81.29-.007 0-.013 0-.02 0z"/><path d="m395.455 347.86v62.29c50.736-35.03 89.588-83.15 116.545-133.13-29.039 33.998-72.741 56.796-116.545 70.84z"/><path d="m312.53 277.92c-21.936 0-41.62 19.277-41.62 41.23l-.01 91.7h-29.8l-.01-91.7c0-21.953-19.684-41.23-41.62-41.23-22.256 0-41.61 20.383-41.61 42.34v92.93c0 53.821 45.193 97.525 98.16 98.81 53.249-.011 98.12-45.759 98.12-98.81v-92.93c0-21.957-19.354-42.34-41.61-42.34z"/><path d="m507.295 219.62c-.72-2.9-1.62-5.79-2.71-8.66h-497.165c-1.09 2.87-1.99 5.76-2.71 8.66 12.64 50.49 67.01 80.09 111.98 96.29h11.31c2.31-37.28 34.09-67.99 71.47-67.99 21.94 0 43.06 10.44 56.53 27.68 13.47-17.24 34.595-27.68 56.535-27.68 37.38 0 69.16 30.71 71.47 67.99h11.31c44.97-16.2 99.34-45.8 111.98-96.29z"/></g></svg>