<svg id="Capa_1" enable-background="new 0 0 512 512" height="512" viewBox="0 0 512 512" width="512" xmlns="http://www.w3.org/2000/svg"><g><path d="m256 0c-140.596 0-256 115.39-256 256s115.404 256 256 256 256-115.39 256-256-115.404-256-256-256zm-226 256c0-56.642 22.196-108.314 56.865-147.909l100.893 100.884c-4.206 23.633-4.655 50.989-1.324 82.024-31.963-3.929-67.615-3.882-95.845 24.298l-10.605 10.605 106.113 106.113 10.605-10.605c17.695-17.681 26.309-40.195 26.309-68.804 0-8.846-.851-17.908-1.965-26.938 36.737 3.915 55.504 2.789 80.878-2.538l101.999 101.99c-39.596 34.676-91.274 56.88-147.923 56.88-124.072 0-226-101.928-226-226zm395.135 147.909-317.059-317.029c39.597-34.676 91.275-56.88 147.924-56.88 124.072 0 226 101.928 226 226 0 56.642-22.196 108.314-56.865 147.909z"/><path d="m394.369 117.616-4.453-2.241c-13.096-6.563-97.266-32.813-154.688 9.023-9.095 6.61-16.666 14.791-23.353 23.875l150.738 150.74c8.919-6.735 16.802-14.526 23.406-23.604 39.492-54.346 21.592-131.411 10.605-153.34zm-53.525 74.737-21.211-21.211 21.211-21.211 21.211 21.211z"/></g></svg>