<svg id="Capa_1" enable-background="new 0 0 512 512" height="512" viewBox="0 0 512 512" width="512" xmlns="http://www.w3.org/2000/svg"><g><path d="m100.971 447.758 15.599-5.698 119.468-119.476-46.622-46.622-119.476 119.468-5.698 15.599z"/><path d="m44.946 434.159-21.636 7.911-23.31 23.3 46.63 46.63 23.3-23.31 7.911-21.636z"/><path d="m506.01 133.89c-23.532-23.532-58.832-21.913-82.42-45.48-25.462-25.485-23.203-64.38-51.47-88.41l-133.26 171.68c-18.377 23.671-28.425 52.747-28.594 82.706l47.239 47.238c14.934-.056 29.656-2.559 43.606-7.344 14.1-4.83 27.41-11.98 39.35-21.24l171.539-133.16z"/></g></svg>