<svg id="Capa_1" enable-background="new 0 0 510 510" height="512" viewBox="0 0 510 510" width="512" xmlns="http://www.w3.org/2000/svg"><g id="XMLID_60_"><path id="XMLID_62_" d="m386.5 120c-10.217 0-18.5 8.283-18.5 18.5v86.5h-30v-146.5c0-10.217-8.283-18.5-18.5-18.5h-1c-10.217 0-18.5 8.283-18.5 18.5v146.5h-30v-206.5c0-10.217-8.283-18.5-18.5-18.5s-18.5 8.283-18.5 18.5v206.5h-30v-176.5c0-10.217-8.283-18.5-18.5-18.5h-1c-10.217 0-18.5 8.283-18.5 18.5v221.5h-30v-105c-16.568 0-30 13.432-30 30v135l45 60v30h210v-30l45-60v-191.5c0-10.217-8.283-18.5-18.5-18.5z"/><path id="XMLID_61_" d="m150 450h210v60h-210z"/></g></svg>