<svg id="Capa_1" enable-background="new 0 0 512 512" height="512" viewBox="0 0 512 512" width="512" xmlns="http://www.w3.org/2000/svg"><g><path d="m271 512h37.469v-130.608c0-23.72-15.825-43.803-37.469-50.272z"/><path d="m405.815 328.923h106.185v37.469h-106.185z"/><path d="m237.266 184.857v46.312h37.469v-46.312c0-10.33-8.404-18.734-18.734-18.734s-18.735 8.404-18.735 18.734z"/><path d="m405.815 298.923h106.185v-34.692l-106.185-49.099z"/><path d="m512 396.392h-106.185v115.608h106.185zm-36.225 72.804h-33.734v-30h33.734z"/><path d="m0 328.923h106.184v37.469h-106.184z"/><path d="m106.184 396.392h-106.184v115.608h106.184zm-69.959 72.804v-30h33.735v30z"/><path d="m0 298.923h106.184v-83.791l-106.184 49.099z"/><path d="m241 331.119c-21.643 6.47-37.469 26.553-37.469 50.272v130.609h37.469z"/><path d="m241 91.009-104.816 74.658v346.333h37.347v-130.608c0-45.474 36.995-82.469 82.469-82.469s82.469 36.995 82.469 82.469v130.608h37.347v-346.333l-104.816-74.657v-30.096h31.929v-30h-31.929v-30.914h-30v30.914h-31.929v30h31.929zm63.734 93.848v76.312h-97.469v-76.312c0-26.872 21.862-48.734 48.734-48.734s48.735 21.862 48.735 48.734z"/></g></svg>