<svg id="Capa_1" enable-background="new 0 0 512 512" height="512" viewBox="0 0 512 512" width="512" xmlns="http://www.w3.org/2000/svg"><g><path d="m211 31h90v90h-90z"/><path d="m0 91h181v30h-181z"/><path d="m0 31h181v30h-181z"/><path d="m256 271c-24.814 0-45 20.186-45 45s20.186 45 45 45 45-20.186 45-45-20.186-45-45-45zm0 66.211-21.211-21.211 21.211-21.211 21.211 21.211z"/><path d="m331 91h181v30h-181z"/><path d="m331 31h181v30h-181z"/><path d="m0 151v330h512v-330zm61 90h15c8.276 0 15-6.724 15-15v-15h45v30h-17.563c-4.526 12.773-14.663 22.91-27.437 27.437v17.563h-30zm75 180h-45v-15c0-8.276-6.724-15-15-15h-15v-45h30v17.563c12.773 4.526 22.91 14.663 27.437 27.437h17.563zm0-83.789-21.211-21.211 21.211-21.211 21.211 21.211zm120 53.789c-41.353 0-75-33.647-75-75s33.647-75 75-75 75 33.647 75 75-33.647 75-75 75zm120-96.211 21.211 21.211-21.211 21.211-21.211-21.211zm75 96.211h-15c-8.276 0-15 6.724-15 15v15h-45v-30h17.563c4.526-12.773 14.663-22.91 27.437-27.437v-17.563h30zm0-105h-30v-17.563c-12.773-4.526-22.91-14.663-27.437-27.437h-17.563v-30h45v15c0 8.276 6.724 15 15 15h15z"/></g></svg>