<svg id="Capa_1" enable-background="new 0 0 512 512" height="512" viewBox="0 0 512 512" width="512" xmlns="http://www.w3.org/2000/svg"><g><path d="m328.201 102.333v-55.958c0-25.571-20.804-46.375-46.375-46.375h-51.651c-25.572 0-46.375 20.804-46.375 46.375v55.958z"/><path d="m140.155 251.667v160h45.106c22.314 0 43.852-6.647 62.285-19.224 23.436-15.991 50.82-24.443 79.193-24.443h45.106v-116.333zm163.845 74.666h-96v-30h96z"/><path d="m371.845 221.667v-24.159c0-20.389-9.131-39.386-25.052-52.123l-16.315-13.052h-148.957l-16.314 13.052c-15.921 12.736-25.052 31.734-25.052 52.123v24.159z"/><path d="m326.739 398c-22.315 0-43.852 6.647-62.284 19.224-23.438 15.991-50.822 24.443-79.193 24.443h-45.106v70.333h231.69v-114z"/></g></svg>