<svg id="Capa_1" enable-background="new 0 0 512 512" height="512" viewBox="0 0 512 512" width="512" xmlns="http://www.w3.org/2000/svg"><g id="XMLID_266_"><path id="XMLID_300_" d="m494.693 174.569 17.307-44.476h-16.586c-27.034 0-53.739 3.917-79.333 11.474v54.62h-30v-43.873c-21.154 8.965-60.3 36.294-79.84 49.352-34.796 23.254-82.082 34.705-131.548 34.705s-96.184-12.325-131.548-34.705c-18.755-11.87-33.295-25.875-43.145-41.271v225.786c0 61.055 78.213 110.55 174.693 110.55 54.864 0 103.818-16.006 135.843-41.041 22.974-17.96 48.5-31.992 75.545-41.829v-51.912h30v42.886c21.528-5.192 43.728-7.864 66.139-7.864h29.78l-17.307-44.484 17.307-44.483-17.307-44.478 17.307-44.479zm-78.612 131.866h-30v-54.735h30z"/><path id="XMLID_305_" d="m174.693 127.972c29.956 0 46.116-12.175 46.116-17.153s-16.16-17.152-46.116-17.152c-29.955 0-46.115 12.174-46.115 17.152s16.16 17.153 46.115 17.153z"/><path id="XMLID_315_" d="m59.187 176.315c30.626 19.381 71.647 30.055 115.505 30.055 43.859 0 84.879-10.674 115.505-30.055 28.495-18.032 44.188-41.292 44.188-65.496 0-24.203-15.693-47.463-44.188-65.496-30.626-19.381-71.646-30.055-115.505-30.055-43.858 0-84.879 10.674-115.505 30.055-28.494 18.032-44.187 41.293-44.187 65.496s15.693 47.464 44.187 65.496zm115.506-112.649c43.393 0 76.116 20.271 76.116 47.152s-32.723 47.153-76.116 47.153-76.115-20.271-76.115-47.153 32.722-47.152 76.115-47.152z"/></g></svg>