<svg id="Capa_1" enable-background="new 0 0 512 512" height="512" viewBox="0 0 512 512" width="512" xmlns="http://www.w3.org/2000/svg"><g><path d="m376 121h-15v-76c0-24.814-20.186-45-45-45h-120c-24.814 0-45 20.186-45 45v76h-15c-24.814 0-45 20.186-45 45v316h60v30h30v-30h150v30h30v-30h60v-316c0-24.814-20.186-45-45-45zm-195-76c0-8.276 6.724-15 15-15h120c8.276 0 15 6.724 15 15v76h-150zm180 376h-210v-105c0-24.814 20.186-45 45-45h120c24.814 0 45 20.186 45 45zm0-180h-30v-30h-180v-30h210z"/><path d="m316 301h-120c-8.276 0-15 6.724-15 15v75h150v-75c0-8.276-6.724-15-15-15z"/></g></svg>