<svg id="Capa_1" enable-background="new 0 0 512 512" height="512" viewBox="0 0 512 512" width="512" xmlns="http://www.w3.org/2000/svg"><g><path d="m177.679 486.525c17.922 16.428 41.188 25.475 65.514 25.475s47.593-9.047 65.513-25.475c9.423-8.638 16.925-18.931 22.25-30.25h-175.526c5.324 11.319 12.826 21.611 22.249 30.25z"/><path d="m71.474 396.689h-32.683v29.625h408.342v-29.625h-32.651c-18.22-19.692-30.711-38.071-36.637-60.484h-269.419c-6.019 22.418-18.618 40.828-36.952 60.484z"/><path d="m272.676 152.758c0-29.467 11.166-56.371 29.485-76.715-5.349-2.712-10.865-5.032-16.511-6.97v-26.385c0-23.538-19.15-42.688-42.688-42.688s-42.688 19.15-42.688 42.688v26.57c-51.056 17.799-87.794 66.419-87.794 123.466v44.295h197.132c-22.698-20.981-36.936-50.987-36.936-84.261zm-42.441-90.105v-19.965c0-7.017 5.709-12.727 12.727-12.727 7.017 0 12.727 5.709 12.727 12.727v19.935c-4.133-.391-8.299-.612-12.496-.612-4.373 0-8.694.22-12.958.642z"/><path d="m373.906 266.981h-261.426v36.513c0 .926-.016 1.838-.032 2.75h261.485c-.011-.76-.027-1.517-.027-2.288z"/></g><g><path d="m387.442 66.992c-47.292 0-85.766 38.475-85.766 85.766 0 47.292 38.475 85.766 85.766 85.766s85.767-38.475 85.767-85.766-38.475-85.766-85.767-85.766zm13.678 32.525-4.581 67.529h-18.323l-4.581-67.529zm-13.282 111.012c-7.345 0-13.299-5.954-13.299-13.299s5.954-13.299 13.299-13.299 13.299 5.954 13.299 13.299-5.954 13.299-13.299 13.299z"/></g></svg>