<svg id="Capa_1" enable-background="new 0 0 512 512" height="512" viewBox="0 0 512 512" width="512" xmlns="http://www.w3.org/2000/svg"><g><path d="m503.569 127.75v-15c0-62.171-50.579-112.75-112.75-112.75-45.233 0-85.937 26.881-103.696 68.481l-31.123 72.906-31.124-72.905c-17.759-41.601-58.462-68.482-103.695-68.482-62.171 0-112.75 50.579-112.75 112.75v15h90v-15c0-12.544 10.206-22.75 22.75-22.75 9.127 0 17.34 5.424 20.923 13.817l64.967 152.183-64.967 152.183c-3.583 8.393-11.796 13.817-20.923 13.817-12.544 0-22.75-10.206-22.75-22.75v-15h-90v15c0 62.171 50.58 112.75 112.75 112.75 45.233 0 85.937-26.881 103.696-68.481l31.123-72.906 31.123 72.905c17.76 41.601 58.463 68.482 103.696 68.482 62.171 0 112.75-50.579 112.75-112.75v-15h-90v15c0 12.544-10.206 22.75-22.75 22.75-9.127 0-17.34-5.424-20.923-13.817l-64.967-152.183 64.967-152.183c3.583-8.393 11.796-13.817 20.923-13.817 12.544 0 22.75 10.206 22.75 22.75v15z"/></g></svg>