<svg id="Capa_1" enable-background="new 0 0 510 510" height="512" viewBox="0 0 510 510" width="512" xmlns="http://www.w3.org/2000/svg"><g><path d="m330 117.508-75-45-75 45v77.492c0 41.422 33.579 75 75 75 41.422 0 75-33.578 75-75z"/><path d="m60 465h60v45h-60z"/><path d="m390 465h60v45h-60z"/><path d="m180 268.404c-18.546-18.945-30-44.86-30-73.404 0-14.146 0-82.615 0-94.479l105-63 105 63v94.479c0 28.544-11.454 54.459-30 73.404v1.596h92.225l-19.088-137.598c-8.494-75.496-72.142-132.402-148.137-132.402s-139.644 56.906-148.137 132.402l-19.088 137.598h92.225z"/><path d="m360 315h-30v15c0 12.541-4.515 24.66-13.419 36.022-3.878 4.949-8.278 9.342-13.09 13.14l13.084 130.838h43.425v-75h90v-30c0-49.626-40.374-90-90-90z"/><path d="m235.266 393.377-11.452 116.623h62.555l-11.662-116.616c-12.866 3.288-26.564 3.289-39.441-.007z"/><path d="m193.417 366.02c-8.902-11.36-13.417-23.479-13.417-36.02v-15h-30c-49.626 0-90 40.374-90 90v30h90v75h43.726l12.843-130.793c-4.835-3.809-9.257-8.217-13.152-13.187z"/><path d="m210 289.855v40.145c0 6.213 2.812 12.133 7.031 17.516 19.155 24.444 56.783 24.444 75.937 0 4.22-5.383 7.032-11.303 7.032-17.516v-40.145c-13.647 6.5-28.905 10.145-45 10.145s-31.354-3.645-45-10.145z"/></g></svg>