<svg id="Capa_1" enable-background="new 0 0 512 512" height="512" viewBox="0 0 512 512" width="512" xmlns="http://www.w3.org/2000/svg"><g><path d="m81.972 277c-8.5 8.499-13.181 19.8-13.181 31.819 0 12.021 4.681 23.321 13.181 31.819 8.499 8.5 19.8 13.181 31.82 13.181s23.32-4.682 31.819-13.181l101.388-101.387c16.079 7.103 33.359 10.661 50.641 10.661 32.01 0 64.02-12.184 88.388-36.553 48.738-48.737 48.738-128.04 0-176.777-48.736-48.738-128.039-48.738-176.776 0-37.525 37.525-46.151 93.167-25.892 139.029zm261.63-197.991-21.213 21.213c-13.646-13.646-35.852-13.646-49.498 0l-21.213-21.213c25.343-25.343 66.58-25.343 91.924 0z"/><path d="m148.719 167.826c-6.017-21.042-7.511-43.113-4.473-64.666l-144.246 95.765v10.032l64.651 42.938z"/><path d="m170.48 358.196-3.655 3.655c-14.166 14.166-33 21.968-53.033 21.968-20.035 0-38.869-7.802-53.031-21.966-14.167-14.165-21.969-32.999-21.969-53.034 0-11.639 2.65-22.865 7.635-33.013l-46.427-30.835v242.847l182.939-121.347z"/><path d="m449.212 157.24c-1.877 8.866-4.528 17.567-7.961 26.048-7.797 19.26-19.239 36.515-34.01 51.285-14.771 14.771-32.025 26.214-51.285 34.01-18.572 7.518-38.193 11.33-58.316 11.33-14.625 0-28.982-2.023-42.866-6.01l-62.651 62.651 17.937 11.913 21.051-13.976c15.121-10.037 34.66-10.038 49.779.001l21.05 13.975 210.06-139.585v-9.956z"/><path d="m512 487.829v-242.926l-182.94 121.569z"/><path d="m247.704 359.485-229.846 152.486h476.266l-229.828-152.486c-5.039-3.348-11.552-3.347-16.592 0z"/></g></svg>