<svg id="Capa_1" enable-background="new 0 0 512 512" height="512" viewBox="0 0 512 512" width="512" xmlns="http://www.w3.org/2000/svg"><g><path d="m370.854 78.379c-30.838-15.509-64.678-24.601-99.854-26.62v107.903c15.565 3.19 30.304 8.491 43.932 15.576z"/><path d="m230.371 322.635c6.734 24.27 17.381 45.348 25.629 59.451 8.248-14.103 18.895-35.181 25.629-59.451 14.199-51.173 5.569-94.503-25.629-129.017-31.198 34.514-39.828 77.844-25.629 129.017z"/><path d="m171.757 191.398-56.562-97.968c-14.32 9.469-27.796 20.443-40.215 32.862-12.418 12.418-23.392 25.895-32.862 40.215l98.085 56.63c9.065-11.897 19.676-22.58 31.554-31.739z"/><path d="m105.541 322.312h-105.541v72.328h105.5v-68.853c0-1.161.017-2.319.041-3.475z"/><path d="m371.796 223.137 98.085-56.629c-9.469-14.32-20.443-27.796-32.862-40.215-12.419-12.418-25.895-23.392-40.215-32.862l-56.562 97.968c11.879 9.158 22.49 19.841 31.554 31.738z"/><path d="m241 159.661v-107.902c-35.176 2.019-69.016 11.112-99.854 26.62l55.921 96.858c13.629-7.085 28.368-12.386 43.933-15.576z"/><path d="m406.459 322.312c.023 1.156.041 2.314.041 3.476v68.853h105.5v-72.328h-105.541z"/><path d="m124.181 248.526-97.113-56.068c-15.509 30.838-24.601 64.677-26.621 99.854h108.396c3.108-15.416 8.318-30.123 15.338-43.786z"/><path d="m403.157 292.312h108.396c-2.019-35.176-11.111-69.016-26.62-99.854l-97.113 56.068c7.019 13.663 12.229 28.37 15.337 43.786z"/><path d="m376.5 325.787c0-54.611-31.75-102.737-78.626-125.564 21.904 37.545 26.269 82.135 12.413 131.326-4.226 15.003-9.692 28.79-15.284 40.772 9.319-2.37 18.964-3.614 28.747-3.614 18.509 0 36.542 4.384 52.75 12.623z"/><path d="m214.126 200.223c-46.876 22.828-78.626 70.953-78.626 125.564v55.543c16.208-8.239 34.242-12.623 52.75-12.623 9.783 0 19.428 1.244 28.747 3.614-5.592-11.982-11.058-25.769-15.284-40.772-13.855-49.19-9.491-93.78 12.413-131.326z"/><path d="m105.5 394.64h30v65.602h-30z"/><path d="m376.5 394.64h30v65.602h-30z"/></g></svg>