<svg id="Capa_1" enable-background="new 0 0 512 512" height="512" viewBox="0 0 512 512" width="512" xmlns="http://www.w3.org/2000/svg"><g><path d="m255.434 443.893h1.132c-.188-.113-.378-.222-.566-.335-.188.113-.378.222-.566.335z"/><path d="m506.766 302.652c-166.457-20.761-335.073-20.762-501.531 0-3.48 17.548-5.235 35.372-5.235 53.424 0 41.583 11.171 115.679 17.791 155.924h189.475v-46.746c-20.181 6.123-41.261 9.277-62.683 9.277h-15.034v-30h15.034c36.814 0 72.464-10.794 103.097-31.215l8.32-5.547 8.32 5.547c30.633 20.421 66.283 31.215 103.097 31.215h15.034v30h-15.034c-21.421 0-42.502-3.154-62.683-9.277v46.746h189.475c6.619-40.246 17.791-114.343 17.791-155.924 0-18.052-1.755-35.875-5.234-53.424z"/><path d="m498.656 271.443c-8.532-26.457-21.129-52.194-37.755-77.029l-48.308-71.807 21.892-122.607h-163.485v221.456h-30v-221.456h-163.486l21.892 122.607-48.327 71.835c-16.616 24.82-29.207 50.548-37.737 77 161.14-19.148 324.176-19.148 485.314.001zm-122.718-98.722h30v30h-30zm-50.602-50.601h30v30h-30z"/></g></svg>