<svg id="Capa_1" enable-background="new 0 0 512 512" height="512" viewBox="0 0 512 512" width="512" xmlns="http://www.w3.org/2000/svg"><g><path d="m297.892 333.486h-3.28l-82.799 82.8-21.213-21.213 66.23-66.23c-4.858-2.963-8.857-7.191-11.548-12.224h-70.507v-30h66.758v-87.02c0-57.66-46.12-105.454-103.778-105.881-58.118-.43-105.365 46.552-105.365 104.569v154.377c0 87.999 71.337 159.336 159.336 159.336h107.286c49.521 0 89.622-40.328 89.255-89.934-.365-49.214-41.159-88.58-90.375-88.58z"/><path d="m136.969 63.716h.006c.333 0 .674.001 1.001.004 10.529.078 20.863 1.382 30.852 3.827v-67.547h-63.734v67.497c10.312-2.492 20.99-3.782 31.869-3.781z"/><path d="m415.26 396.106c1.919 8.353 2.941 16.97 3.006 25.738.118 15.913-2.86 31.362-8.649 45.668 3.931 5.299 6.259 11.86 6.259 18.965v25.523h63.734v-25.522c0-41.855-26.899-77.422-64.35-90.372z"/></g></svg>