<svg id="Capa_1" enable-background="new 0 0 512 512" height="512" viewBox="0 0 512 512" width="512" xmlns="http://www.w3.org/2000/svg"><g><g id="Diagnosis_2_"><g><path d="m240 120h-150v-90h32.578c6.182-17.461 22.852-30 42.422-30s36.24 12.539 42.422 30h32.578z"/></g><path d="m270 30v120h-210v-120h-60v482h330v-482zm-180 450h-30v-30h30zm0-60h-30v-30h30zm0-60h-30v-30h30zm15-135h45v-45h30v45h45v30h-45v45h-30v-45h-45zm165 255h-150v-30h150zm0-60h-150v-30h150zm0-60h-150v-30h150z"/></g><path d="m362 441.211 30 30v40.789h30v-40.789l30-30v-51.211h-90z"/><path d="m362 150h90v210h-90z"/><path d="m467 90h-15v-30h-30v-30h-30v30h-30v60c4.698 0 109.466 0 105 0 8.262 0 15 6.724 15 15v60h30v-60c0-24.814-20.186-45-45-45z"/></g></svg>