<svg id="Capa_1" enable-background="new 0 0 512 512" height="512" viewBox="0 0 512 512" width="512" xmlns="http://www.w3.org/2000/svg"><g id="XMLID_589_"><path id="XMLID_612_" d="m137.325 235.846h30.124v30.139h-30.124z" transform="matrix(.707 -.707 .707 .707 -132.791 181.246)"/><path id="XMLID_622_" d="m89.775 283.396h30.124v30.139h-30.124z" transform="matrix(.707 -.707 .707 .707 -180.341 161.55)"/><path id="XMLID_647_" d="m46.133 421.083-20.938 20.938c-7.744 7.745-12.01 18.042-12.01 28.994 0 10.953 4.265 21.25 12.01 28.995 15.989 15.988 42.001 15.987 57.989 0l20.938-20.938z"/><path id="XMLID_648_" d="m67.239 317.302h199.32v82.008h-199.32z" transform="matrix(.707 -.707 .707 .707 -204.477 222.96)"/><path id="XMLID_650_" d="m308.602 274.591c7.745-7.744 12.01-18.041 12.01-28.994 0-10.952-4.265-21.249-12.01-28.994-7.993-7.993-18.496-11.99-28.994-11.99-10.501 0-21 3.996-28.995 11.991l-20.937 20.937 57.988 57.988z"/><path id="XMLID_657_" d="m341.686 28.778h98.796v42.006h-98.796z" transform="matrix(.707 -.707 .707 .707 79.345 291.118)"/><path id="XMLID_5_" d="m462.163 51.001-69.859 69.859-.004-.004-77.869 62.735c5.543 3.11 10.763 7 15.473 11.71 12.227 12.227 19.433 28.124 20.634 45.205l76.582-88.103c6.554 3.339 13.846 5.119 21.417 5.119 12.622 0 24.492-4.92 33.418-13.847l3.023-3.023c8.927-8.927 13.837-20.796 13.837-33.418s-4.91-24.491-13.837-33.418z"/></g></svg>