<svg id="Capa_1" enable-background="new 0 0 512 512" height="512" viewBox="0 0 512 512" width="512" xmlns="http://www.w3.org/2000/svg"><g><path d="m352.241 0h-192.482c-35.841 0-65 29.159-65 65v382c0 35.841 29.159 65 65 65h192.481c35.841 0 65-29.159 65-65v-382c.001-35.841-29.158-65-64.999-65zm-34.574 367v-30h30v30zm30 34v30h-30v-30zm-30-98v-30h30v30zm0-64v-30h30v30zm0-64v-30h30v30zm0-64v-30h30v30zm-76.668 255.667v-285.667h30v285.667zm30.001 34.333v30h-30v-30zm-106.667-34v-30h30v30zm30 34v30h-30v-30zm-30-98v-30h30v30zm0-64v-30h30v30zm0-64v-30h30v30zm0-64v-30h30v30z"/></g></svg>