<svg id="Capa_1" enable-background="new 0 0 512 512" height="512" viewBox="0 0 512 512" width="512" xmlns="http://www.w3.org/2000/svg"><g><path d="m498.859 95.808c-17.563-17.563-46.113-17.534-63.647 0h-.015c-10.096 10.12-32.071 45.685-27.878 70.314l-241.2 241.2c-24.648-4.193-60.179 17.792-70.313 27.876v.015c-17.549 17.549-17.549 46.099 0 63.662 17.53 17.501 46.083 17.505 63.633-.015 10.111-10.111 32.108-45.687 27.9-70.336l241.19-241.19c24.069 4.118 58.533-16.101 70.344-27.892 17.505-17.55 17.505-46.085-.014-63.634z"/><path d="m104.681 345.892 241.194-241.194c24.074 4.09 58.507-16.104 70.318-27.896 17.549-17.549 17.549-46.099 0-63.662-17.549-17.52-46.084-17.52-63.633 0v.015c-10.111 10.111-32.108 45.687-27.9 70.336l-241.193 241.193c-24.651-4.2-60.216 17.791-70.325 27.889h-.015c-17.505 17.549-17.505 46.084.015 63.633 17.529 17.529 46.084 17.549 63.662 0 10.096-10.12 32.071-45.685 27.877-70.314z"/></g></svg>