<svg id="Capa_1" enable-background="new 0 0 512 512" height="512" viewBox="0 0 512 512" width="512" xmlns="http://www.w3.org/2000/svg"><g><g><g><path d="m337.268 162.295h-30c0-18.363 7.262-28.449 12.564-35.814 4.31-5.985 6.911-9.599 6.911-18.286s-2.602-12.301-6.911-18.286c-5.303-7.365-12.564-17.451-12.564-35.814 0-18.362 7.263-28.447 12.565-35.812 4.31-5.985 6.91-9.598 6.91-18.282h30c0 18.362-7.263 28.447-12.565 35.812-4.309 5.985-6.91 9.598-6.91 18.282 0 8.687 2.602 12.3 6.911 18.285 5.303 7.365 12.564 17.452 12.564 35.815s-7.262 28.45-12.564 35.815c-4.31 5.985-6.911 9.598-6.911 18.285z"/></g><g><path d="m436.249 162.295h-30c0-18.363 7.262-28.449 12.564-35.814 4.31-5.985 6.911-9.599 6.911-18.286s-2.602-12.301-6.911-18.286c-5.303-7.365-12.564-17.451-12.564-35.814 0-18.362 7.263-28.447 12.565-35.812 4.309-5.985 6.91-9.598 6.91-18.282h30c0 18.362-7.263 28.447-12.565 35.812-4.31 5.985-6.91 9.598-6.91 18.282 0 8.687 2.602 12.3 6.911 18.285 5.303 7.365 12.564 17.452 12.564 35.815s-7.262 28.45-12.564 35.815c-4.309 5.985-6.911 9.598-6.911 18.285z"/></g></g><path d="m117.861 252.519c-.019 38.851 31.505 70.474 70.27 70.492 7.247 0 14.349-1.086 21.155-3.232l28.598-32.148 19.301-21.697c.844-4.381 1.27-8.854 1.27-13.354v-.007c.019-38.852-31.505-70.475-70.271-70.494-.009 0-.024 0-.034 0-38.744-.001-70.269 31.589-70.289 70.44z"/><path d="m512 431.167-215.597-.083-96.726 80.916h312.323z"/><g><path d="m0 449.56v62.44h153.8l132.584-110.92 70.779.027v-111.606l-70.764-.029-8.148 9.158-144.31 150.983z"/><path d="m387.163 289.54h124.837v111.603h-124.837z"/></g></g></svg>