<svg id="Capa_1" enable-background="new 0 0 512 512" height="512" viewBox="0 0 512 512" width="512" xmlns="http://www.w3.org/2000/svg"><g><path d="m154.923 49.674c0-27.391-22.283-49.674-49.674-49.674h-26.106v332.395h75.779v-282.721z"/><path d="m184.923 332.395h142.153v-282.721c0-18.775 6.543-36.041 17.448-49.674h-177.049c10.905 13.633 17.448 30.899 17.448 49.674zm56.077-108.82h30v30h-30z"/><path d="m432.855 0h-26.105c-27.391 0-49.674 22.283-49.674 49.674v282.721h75.78v-332.395z"/><path d="m109.117 362.395.001 149.605 24.48-9.083 24.48 9.083 24.481-9.083 24.48 9.083 24.48-9.083 24.481 9.083 24.48-9.083 24.481 9.083 24.48-9.083 24.481 9.083 24.48-9.083 24.481 9.083-.001-149.605z"/></g></svg>