<svg id="Capa_1" enable-background="new 0 0 509.15 509.15" height="512" viewBox="0 0 509.15 509.15" width="512" xmlns="http://www.w3.org/2000/svg"><g><path d="m394.297-5.147h60.001v180h-60.001z" transform="matrix(.707 -.707 .707 .707 64.274 324.876)"/><path d="m244.228 305.698-40.776-40.776c-.455-.454-1.195-.454-1.65.001l-93.81 93.809c-.454.455-.454 1.195 0 1.65l40.776 40.775c.455.455 1.195.455 1.649.001l93.811-93.81c.456-.454.456-1.195 0-1.65z"/><path d="m348.631 81.048h38.943v120.001h-38.943z" transform="matrix(.707 -.707 .707 .707 8.081 301.605)"/><path d="m360.725 271.057c1.981-17.835 7.954-34.991 17.242-50.181l-89.691-89.692c-15.19 9.288-32.347 15.261-50.182 17.243-34.151 3.794-66.341 19.265-90.638 43.562l-133.273 133.273c-18.91 18.91-18.91 49.679 0 68.59l101.116 101.116c18.911 18.91 49.68 18.91 68.59 0l133.272-133.273c24.298-24.297 39.769-56.487 43.564-90.638zm-189.093 151.315c-12.151 12.15-31.925 12.15-44.076-.001l-40.776-40.776c-12.152-12.152-12.152-31.925-.001-44.076l93.811-93.81c12.151-12.152 31.925-12.152 44.076 0l40.776 40.776c12.151 12.152 12.151 31.925 0 44.076z"/></g></svg>