<svg id="Capa_1" enable-background="new 0 0 510 510" height="512" viewBox="0 0 510 510" width="512" xmlns="http://www.w3.org/2000/svg"><g id="XMLID_1166_"><path id="XMLID_1174_" d="m296.664 9.898c-13.196-13.197-34.594-13.197-47.79-.001l-11.947 11.948-11.948-11.948c-13.197-13.196-34.594-13.196-47.791 0v.001c-13.196 13.196-13.196 34.593 0 47.789l59.739 62.313 59.737-62.312c13.198-13.197 13.198-34.594 0-47.79z"/><path id="XMLID_1171_" d="m386.319 375h-298.784c4.968 42.171 40.908 75 84.393 75h-138.854c10.128 16.891 24.147 31.143 40.985 41.55 19.531 12.07 41.99 18.45 64.949 18.45h195.836c22.961 0 45.42-6.38 64.95-18.45 16.839-10.407 30.858-24.659 40.984-41.55h-138.851c43.484 0 79.424-32.829 84.392-75z"/><path id="XMLID_1167_" d="m401.927 165h-15v-45c-16.652 0-283.35 0-300 0v90h300v-15h15c24.812 0 45 20.188 45 45 0 24.814-20.188 45-45 45h-15v-45h-300v105h300v-30h15c41.355 0 74.999-33.645 74.999-75s-33.644-75-74.999-75z"/></g></svg>