<svg id="Capa_1" enable-background="new 0 0 512 512" height="512" viewBox="0 0 512 512" width="512" xmlns="http://www.w3.org/2000/svg"><g><path d="m374.109 202.667h-236.219l-25.571 59.667 25.571 59.666h236.219l25.571-59.667zm-187.776 74.666h-30v-30h30zm169.334 0h-30v-30h30z"/><path d="m425.108 70.047c-17.602-17.602-37.473-32.107-58.942-43.274 15.873 22.178 25.226 49.325 25.226 78.617h-30c0-57.187-46.56-105.39-105.393-105.39s-105.392 48.203-105.392 105.389h-30c0-29.291 9.353-56.438 25.225-78.616-21.468 11.168-41.338 25.672-58.94 43.274-45.17 45.17-70.047 105.227-70.047 169.108v272.845h102.821v-92.331h30v92.331h212.666v-92.331h30v92.331h102.822v-272.846c.001-63.88-24.875-123.937-70.046-169.107zm-31.218 281.953h-275.781l-38.429-89.667 38.429-89.667h275.781l38.429 89.667z"/></g></svg>