<svg id="Capa_1" enable-background="new 0 0 512 512" height="512" viewBox="0 0 512 512" width="512" xmlns="http://www.w3.org/2000/svg"><g><path d="m127.429 294.25 14.59 61.28-29.18 6.94-9.32-39.14-29.35 25.08-19.48-22.82 42.74-36.5v-71.09l-25.96-11.23 11.92-27.54 44.04 19.06v26.27l54.19-50.41c2.993-37.873-27.778-67.524-62.1-67.32-9.9 0-20.06 2.42-29.75 7.71-46.29 25.28-75.09 73.82-75.09 126.57v214.85c0 20.12 20.49 33.76 39.06 25.99l89.63-37.49c41.7-17.44 64.71-62.44 54.44-106.46l-15.88-68.05c-4.226-15.332-2.126-37.657-1.74-53.49l-52.76 49.07z"/><path d="m375.059 325.53-19.63-24.21v-35.79l-52.76-49.07c.385 15.972 2.494 38.059-1.74 53.49 0 0-15.88 68.05-15.88 68.05-6.78 29.07.95 58.57 18.99 80.27 4.43-42.42 32.64-77.87 71.02-92.74z"/><path d="m355.429 198.29 44.04-19.06 11.92 27.54-25.96 11.23v72.68l22.37 27.59c21.15-1.545 42.692 3.368 60.38 12.96v-90.12c0-52.75-28.8-101.29-75.09-126.57-41.442-23.578-95.998 9.537-91.85 59.61l54.19 50.41z"/><path d="m256.429 132.47v-132.47h-30v132.47l-44.81 41.68-1.43 42.31 61.24-56.97 61.24 56.97-1.43-42.31z"/><path d="m468.179 367.28c-51.632-44.216-133.633-7.454-134.729 60.981-1.029 45.799 36.164 83.797 81.98 83.739 76.588-.317 110.696-96.075 52.749-144.72zm-15.14 79.11-21.22 21.22-16.39-16.39-16.39 16.39-21.22-21.22 16.39-16.39-16.39-16.39 21.22-21.22 16.39 16.39 16.39-16.39 21.22 21.22-16.39 16.39z"/></g></svg>