<svg id="Capa_1" enable-background="new 0 0 510 510" height="512" viewBox="0 0 510 510" width="512" xmlns="http://www.w3.org/2000/svg"><g><circle cx="255" cy="225" r="45"/><path d="m255 90c-90.981 0-165 74.019-165 165 0 44.624 17.814 85.159 46.694 114.89 6.715-39.624 32.914-72.701 68.369-88.993-15.368-13.745-25.063-33.706-25.063-55.897 0-41.355 33.645-75 75-75s75 33.645 75 75c0 22.191-9.695 42.152-25.064 55.897 35.454 16.292 61.654 49.369 68.369 88.993 28.88-29.731 46.695-70.266 46.695-114.89 0-90.981-74.019-165-165-165z"/><path d="m255 300c-49.626 0-90 40.374-90 90v3.225c25.9 16.922 56.819 26.775 90 26.775s64.1-9.853 90-26.775v-3.225c0-49.626-40.374-90-90-90z"/><path d="m255 0c-140.931 0-255 114.05-255 255 0 140.932 114.05 255 255 255 140.932 0 255-114.049 255-255 0-140.93-114.049-255-255-255zm0 450c-107.523 0-195-87.477-195-195s87.477-195 195-195 195 87.477 195 195-87.477 195-195 195z"/></g></svg>