<svg id="Capa_1" enable-background="new 0 0 512 512" height="512" viewBox="0 0 512 512" width="512" xmlns="http://www.w3.org/2000/svg"><g id="XMLID_102_"><path id="XMLID_255_" d="m161.738 372.212c-57.105-7.867-101.231-56.98-101.231-116.212 0-64.69 52.63-117.319 117.319-117.319s117.32 52.629 117.32 117.319c0 22.836-6.933 45.362-19.488 64.517 15.159 13.762 35.172 22.262 57.129 22.607 14.858-26.553 22.866-56.717 22.866-87.124 0-37.789-11.857-72.855-32.032-101.694.028-.003.056-.005.083-.007-21.039-30.121-51.164-53.418-86.404-65.923l-.047.022c-17.225-6.126-35.659-9.679-54.844-10.167-3.055-.078-6.113-.077-9.168 0-95.943 2.441-173.241 81.247-173.241 177.769 0 28.551 6.932 56.936 20.181 82.233 12.879 24.591 31.543 46.046 54.08 62.247 22.918 16.475 49.695 27.36 77.625 31.46 22.265 3.268 45.088 2.239 66.991-2.901-22.525-15.059-41.965-34.386-57.139-56.827z"/><path id="XMLID_256_" d="m334.173 78.173c-13.969 0-27.653 1.592-40.957 4.729 11.331 7.565 21.925 16.251 31.691 26.017 9.536 9.536 18.049 19.858 25.489 30.889 57.039 7.925 101.097 57.007 101.097 116.192 0 64.69-52.63 117.319-117.319 117.319s-117.32-52.629-117.32-117.319c0-21.138 5.781-41.877 16.471-59.901l-.069-.041c.946-1.585 1.931-3.149 2.955-4.691-15.172-13.718-35.178-22.179-57.122-22.493-3.497 6.19-6.601 12.557-9.307 19.078h-.003c-.001.004-.001.008-.002.012-8.378 20.192-12.927 41.848-13.389 64.237-.002.082-.005.164-.006.246-.023 1.183-.035 2.367-.035 3.554 0 98.054 79.772 177.827 177.826 177.827s177.827-79.774 177.827-177.828-79.773-177.827-177.827-177.827z"/></g></svg>