<svg id="Capa_1" enable-background="new 0 0 511.895 511.895" height="512" viewBox="0 0 511.895 511.895" width="512" xmlns="http://www.w3.org/2000/svg"><g><path d="m406.568 228.787h-221.479v-30h221.479c38.223 0 69.319-31.097 69.319-69.319s-31.097-69.319-69.319-69.319h-39.852c-19.463 0-35.297-15.834-35.297-35.297v-24.852h-54.319v24.852c0 49.415 40.201 89.616 89.616 89.616h56.716v30h-221.48c-38.223 0-69.319 31.097-69.319 69.319 0 38.224 31.097 69.32 69.319 69.32h221.48v30h-221.48c-38.223 0-69.319 31.097-69.319 69.319s31.097 69.319 69.319 69.319h39.853c19.462 0 35.296 15.834 35.296 35.297v24.852h54.319v-24.852c0-49.415-40.201-89.616-89.615-89.616h-56.716v-30h221.479c38.223 0 69.319-31.097 69.319-69.319.001-38.223-31.096-69.32-69.319-69.32z"/><path d="m176.785 74.256 5.853 29.424 29.424-5.854-11.707-58.846-29.422 5.853-5.853-29.425-29.424 5.854 11.706 58.846z"/><path d="m142.823 125.977-44.058-40.728-20.365 22.029-22.03-20.364-20.363 22.029 44.059 40.728 20.365-22.029 22.029 20.364z"/></g></svg>