<svg id="Capa_1" enable-background="new 0 0 512.157 512.157" height="512" viewBox="0 0 512.157 512.157" width="512" xmlns="http://www.w3.org/2000/svg"><g><circle cx="263.389" cy="49" r="49"/><path d="m184.139 231.718c-77.442 0-140.22 62.778-140.22 140.22s62.778 140.22 140.22 140.22 140.22-62.778 140.22-140.22-62.777-140.22-140.22-140.22zm0 228.555c-48.708 0-88.335-39.627-88.335-88.336s39.627-88.336 88.335-88.336c48.709 0 88.336 39.627 88.336 88.336s-39.627 88.336-88.336 88.336z"/><path d="m390.742 77.001c25.237 0 48.266 20.744 50.78 45.833 15.619-7.917 26.328-24.114 26.328-42.823 0-26.52-21.49-48.01-48-48.01-26.101 0-48.309 22.546-47.997 48.62 5.935-2.37 12.317-3.62 18.889-3.62z"/><path d="m184.139 313.602c-32.166 0-58.335 26.169-58.335 58.336s26.169 58.336 58.335 58.336c32.167 0 58.336-26.169 58.336-58.336s-26.169-58.336-58.336-58.336z"/><path d="m252.24 215.908-54.248-55.372c-9.72-9.72-14.69-22.396-14.941-35.141-16.696 17.297-26.974 40.829-26.974 66.768v11.862c48.081-7.696 95.552 11.616 96.163 11.883z"/><path d="m299.42 219.409c8.188 8.163 21.513 8.153 29.691-.023l76.512-76.512c8.216-9.916 8.211-19.826-.015-29.729-8.978-7.431-20.699-8.947-29.678-.01l-61.859 61.647-65.076-65.227c-9.914-8.249-19.841-8.282-29.781-.102-6.446 8.787-8.89 20.984-.049 29.828z"/><path d="m468.238 433h-58.893l-21.911-110.419c-4.211-21.222-19.966-38.291-40.784-44.185l-25.25-7.149c7.824 10.642 14.378 22.15 19.569 34.424 8.884 21.005 13.389 43.3 13.389 66.267s-4.505 45.262-13.389 66.267c-3.662 8.657-8.003 16.933-12.986 24.796h45.995c-.752 3.044-1.158 6.224-1.158 9.5 0 21.815 17.685 39.5 39.5 39.5s39.5-17.685 39.5-39.5c0-3.276-.406-6.456-1.158-9.5h17.575v-30.001z"/></g></svg>