<svg id="Capa_1" enable-background="new 0 0 512 512" height="512" viewBox="0 0 512 512" width="512" xmlns="http://www.w3.org/2000/svg"><g><path d="m376 390.055h-118.292c.048-.026.096-.063.144-.063 106.67-.998 193.148-88.09 193.148-194.992 0-21.806-4.124-43.257-11.274-63.789-13.155 11.434-27.48 18.789-48.726 18.789-41.353 0-75-33.647-75-75 0-20.266 10.778-39.618 21.947-56.289-25.45-11.909-53.004-18.711-81.947-18.711-107.52 0-195 87.48-195 195 0 106.68 86.119 193.632 192.484 194.984.071.001.141.04.211.071h-117.695c-57.891 0-105 47.109-105 105v16.945h450v-16.945c0-57.891-47.109-105-105-105zm-75-210.055c0 19.849 30 19.841 30 0h30c0 59.556-90 59.496-90 0zm-150 0h30c0 19.849 30 19.841 30 0h30c0 59.556-90 59.496-90 0zm30 135v-30h150v30z"/><g><path d="m391.725 122c-24.814 0-45-20.186-45-45 0-22.851 30.393-59.255 44.897-77 32.242 40.221 68.22 83.256 26.279 113.475-7.367 5.522-16.493 8.525-26.176 8.525z"/></g></g></svg>