<svg id="Capa_1" enable-background="new 0 0 512 512" height="512" viewBox="0 0 512 512" width="512" xmlns="http://www.w3.org/2000/svg"><g id="XMLID_667_"><path id="XMLID_685_" d="m83.439 230.935c3.614.232 7.279.347 11 .347 33.316 0 70.596-9.247 106.244-26.493 39.63-19.172 72.755-46.054 93.273-75.697 21.579-31.173 26.884-61.939 14.939-86.63-11.944-24.69-39.359-39.627-77.195-42.058-35.975-2.313-77.614 6.973-117.244 26.145-39.63 19.171-72.755 46.054-93.273 75.696-21.579 31.174-26.884 61.939-14.94 86.63 11.945 24.693 39.361 39.629 77.196 42.06zm71.194-121.336c19.11-9.245 26.585-23.629 24.287-28.38l27.08-13.1c11.001 22.742-5.807 52.857-38.267 68.56-13.287 6.428-28.38 10.124-43.186 8.688-16.032-1.553-28.541-9.296-34.32-21.241l27.08-13.1c1.054 2.177 5.034 3.904 10.141 4.399 8.014.777 17.927-1.346 27.185-5.826z"/><path id="XMLID_689_" d="m483.136 334.343c-24.047-26.859-60.26-49.41-101.967-63.501-41.709-14.091-84.182-18.122-119.587-11.352-37.239 7.121-62.582 25.352-71.361 51.337s.314 55.851 25.604 84.097c24.047 26.859 60.26 49.41 101.967 63.501 28.493 9.627 57.342 14.558 84.052 14.558 12.388 0 24.317-1.061 35.535-3.206 37.239-7.121 62.583-25.352 71.362-51.337 8.778-25.985-.315-55.851-25.605-84.097zm-112.493 57.273c-9.677-.005-19.54-1.801-28.632-4.872-34.161-11.541-54.587-39.331-46.502-63.265l28.5 9.627c-1.689 5.001 7.518 18.343 27.629 25.138 9.745 3.292 19.84 4.168 27.699 2.398 5.006-1.126 8.74-3.335 9.514-5.626l28.5 9.627c-4.247 12.572-15.695 21.811-31.408 25.347-4.946 1.113-10.097 1.629-15.3 1.626z"/><ellipse id="XMLID_692_" cx="71.799" cy="357.658" rx="58.875" ry="41.88"/><path id="XMLID_693_" d="m422.958 155.594c8.112 2.571 16.368 3.866 24.276 3.866 6.087 0 11.968-.767 17.418-2.31 13.866-3.925 23.484-12.339 27.082-23.693 7.095-22.387-12.001-47.736-43.472-57.71-14.357-4.551-29.164-5.102-41.693-1.556-13.866 3.925-23.484 12.34-27.082 23.693-7.095 22.387 11.999 47.736 43.471 57.71z"/><path id="XMLID_696_" d="m148.323 481.86c-7.868 0-15.405 6.918-15.041 15.041.365 8.149 6.609 15.041 15.041 15.041 7.868 0 15.405-6.918 15.041-15.041-.365-8.149-6.609-15.041-15.041-15.041z"/><path id="XMLID_697_" d="m336.751 193.169c7.868 0 15.405-6.918 15.041-15.041-.365-8.149-6.609-15.041-15.041-15.041-7.868 0-15.405 6.918-15.041 15.041.365 8.149 6.608 15.041 15.041 15.041z"/><path id="XMLID_698_" d="m474.11 238.164c.365 8.149 6.609 15.041 15.041 15.041 7.868 0 15.405-6.918 15.041-15.041-.365-8.149-6.609-15.041-15.041-15.041-7.868 0-15.405 6.918-15.041 15.041z"/><path id="XMLID_699_" d="m21.949 440.296c-7.868 0-15.405 6.918-15.041 15.041.365 8.149 6.609 15.041 15.041 15.041 7.868 0 15.405-6.918 15.041-15.041-.365-8.149-6.609-15.041-15.041-15.041z"/></g></svg>