<svg id="Capa_1" enable-background="new 0 0 512 512" height="512" viewBox="0 0 512 512" width="512" xmlns="http://www.w3.org/2000/svg"><g><path d="m21.274 425.595h49.561v80.701h-49.561z" transform="matrix(.707 -.707 .707 .707 -315.984 169.038)"/><path d="m132.43 322.506-76.172 76.172 57.064 57.064 76.172-76.172c-22.27-15.44-41.624-34.794-57.064-57.064z"/><path d="m317.242 79.561c-63.52 0-115.196 51.678-115.196 115.197s51.677 115.196 115.196 115.196 115.197-51.677 115.197-115.196-51.677-115.197-115.197-115.197zm0 178.617c-34.97 0-63.42-28.45-63.42-63.42 0-34.971 28.45-63.421 63.42-63.421 34.971 0 63.421 28.45 63.421 63.421 0 34.97-28.45 63.42-63.421 63.42z"/><path d="m317.243 0c-107.389 0-194.758 87.368-194.758 194.757 0 107.39 87.368 194.758 194.757 194.758 107.39 0 194.757-87.368 194.757-194.758.001-107.389-87.367-194.757-194.756-194.757zm-.001 339.954c-80.062 0-145.196-65.135-145.196-145.196 0-80.063 65.135-145.197 145.196-145.197 80.063 0 145.197 65.135 145.197 145.197 0 80.061-65.134 145.196-145.197 145.196z"/><path d="m317.242 161.337c-18.428 0-33.42 14.992-33.42 33.421 0 18.428 14.992 33.42 33.42 33.42 18.429 0 33.421-14.992 33.421-33.42 0-18.429-14.992-33.421-33.421-33.421z"/></g></svg>