<svg id="Capa_1" enable-background="new 0 0 512 512" height="512" viewBox="0 0 512 512" width="512" xmlns="http://www.w3.org/2000/svg"><g><path d="m418.759 303.662c17.464-4.874 35.225-4.449 51.546.783 19.428-10.799 31.907-31.113 32.583-53.529h-36.404c-32.098 0-58.688 23.962-62.866 54.933 5.096-.08 10.185-.804 15.141-2.187z"/><path d="m276.223 415.869c-9.463-31.831-1.213-64.971 22.07-88.648 20.007-20.347 47.187-29.7 74.735-26.268v-177.369h-123.583l-.041-123.584h-240.303v512h300.555c-5.268-7.027-9.312-14.996-11.887-23.656zm-231.521-342.417h129.568v30h-129.568zm0 67.469h129.568v30h-129.568zm33.735 333.61h-33.735v-30h33.734v30zm0-67.469h-33.735v-30h33.734v30zm0-67.469h-33.735v-30h33.734v30zm0-67.469h-33.735v-30h33.734v30zm157.931 202.407h-124.197v-30h124.197zm0-67.469h-124.197v-30h124.197zm0-67.469h-124.197v-30h124.197zm0-67.469h-124.197v-30h124.197z"/><path d="m373.029 93.584-93.618-93.584.024 93.584z"/><path d="m426.823 332.559c-15.812 4.41-32.523 4.41-48.329 0-21.312-5.95-43.297-.08-58.811 15.696-15.513 15.776-21.01 37.856-14.705 59.065l21.546 72.474c7 23.543 31.912 37.21 55.523 30.459 6.742-1.926 13.676-2.89 20.61-2.89s13.868.964 20.61 2.89c23.619 6.748 48.522-6.916 55.522-30.459l21.547-72.474c6.305-21.209.808-43.289-14.705-59.065-15.513-15.777-37.497-21.648-58.808-15.696z"/></g></svg>