<svg id="Capa_1" enable-background="new 0 0 512 512" height="512" viewBox="0 0 512 512" width="512" xmlns="http://www.w3.org/2000/svg"><g><path d="m336.395 426.395 21.21 21.21 19.395-19.394v53.789h-242v-53.789l19.395 19.394 21.21-21.21-55.605-55.606-55.605 55.606 21.21 21.21 19.395-19.394v83.789h302v-83.789l19.395 19.394 21.21-21.21-55.605-55.606z"/><path d="m90 90v-81.211l-81.211 81.211z"/><path d="m0 360h240v-360h-120v120h-120zm60-210h120v30h-120zm0 60h120v30h-120zm0 60h120v30h-120z"/><path d="m422 90h81.211l-81.211-81.211z"/><path d="m392 0h-120v360h240v-240h-120zm60 300h-120v-30h120zm0-60h-120v-30h120zm0-90v30h-120v-30z"/></g></svg>