<svg id="Capa_1" enable-background="new 0 0 512 512" height="512" viewBox="0 0 512 512" width="512" xmlns="http://www.w3.org/2000/svg"><g><circle cx="316" cy="226" r="15"/><circle cx="196" cy="286" r="15"/><path d="m467 211h-33.988c-10.562 0-19.922-6.724-24.741-18.369-4.614-10.957-2.798-22.456 4.731-30l23.306-23.306c17.614-17.614 17.561-46.086.015-63.633-16.978-16.992-46.641-16.992-63.647 0l-23.306 23.291c-7.559 7.544-19.028 9.36-30.806 4.409-10.84-4.482-17.564-13.842-17.564-24.404v-33.988c0-24.814-20.186-45-45-45s-45 20.186-45 45v33.988c0 10.562-6.724 19.922-18.369 24.741-10.957 4.629-22.456 2.798-30-4.731l-23.306-23.306c-17.007-16.992-46.684-16.977-63.633-.014-17.564 17.564-17.617 46.031 0 63.647l23.291 23.306c7.544 7.544 9.36 19.043 4.409 30.806-4.482 10.839-13.842 17.563-24.404 17.563h-33.988c-24.814 0-45 20.186-45 45s20.186 45 45 45h33.988c10.562 0 19.922 6.724 24.741 18.369 4.614 10.957 2.798 22.456-4.731 30l-23.306 23.306c-17.614 17.614-17.561 46.086-.015 63.633 16.978 16.978 46.641 17.007 63.647 0l23.306-23.291c7.544-7.544 19.028-9.331 30.806-4.409 10.84 4.482 17.564 13.842 17.564 24.404v33.988c0 24.814 20.186 45 45 45s45-20.186 45-45v-33.988c0-10.562 6.724-19.922 18.369-24.741 10.957-4.658 22.471-2.827 30 4.731l23.306 23.306c17.007 17.007 46.685 16.963 63.633.015 17.564-17.564 17.617-46.031 0-63.647l-23.291-23.306c-7.544-7.544-9.36-19.043-4.409-30.806 4.482-10.84 13.842-17.564 24.404-17.564h33.988c24.814 0 45-20.186 45-45s-20.186-45-45-45zm-211-66.211 21.211 21.211-21.211 21.211-21.211-21.211zm-60 30 21.211 21.211-21.211 21.211-21.211-21.211zm0 156.211c-24.814 0-45-20.186-45-45s20.186-45 45-45 45 20.186 45 45-20.186 45-45 45zm60 36.211-21.211-21.211 21.211-21.211 21.211 21.211zm60-30-21.211-21.211 21.211-21.211 21.211 21.211zm0-66.211c-24.814 0-45-20.186-45-45s20.186-45 45-45 45 20.186 45 45-20.186 45-45 45z"/></g></svg>