<svg id="Capa_1" enable-background="new 0 0 512 512" height="512" viewBox="0 0 512 512" width="512" xmlns="http://www.w3.org/2000/svg"><g><path d="m256 391c-10.065 0-19.807-1.274-29.372-3.111-.115 1.073-.628 2.007-.628 3.111v30h15v91h30v-91h15v-30c0-1.104-.513-2.038-.628-3.111-9.565 1.837-19.307 3.111-29.372 3.111z"/><path d="m256 0c-90.981 0-165 75.019-165 166 0 90.176 72.07 195 165 195s165-104.824 165-195c0-90.981-74.019-166-165-166zm0 271c-57.891 0-105-47.109-105-105s47.109-105 105-105 105 47.109 105 105-47.109 105-105 105z"/><path d="m256 91c-41.353 0-75 33.647-75 75s33.647 75 75 75 75-33.647 75-75-33.647-75-75-75zm0 120c-24.814 0-45-20.186-45-45h30c0 8.276 6.724 15 15 15s15-6.724 15-15.01h30c0 24.824-20.186 45.01-45 45.01z"/></g></svg>