<svg id="Capa_1" enable-background="new 0 0 510 510" height="512" viewBox="0 0 510 510" width="512" xmlns="http://www.w3.org/2000/svg"><g id="XMLID_2446_"><path id="XMLID_2467_" d="m370.155 0h-230.31l-18 45h266.31z"/><path id="XMLID_2498_" d="m75 75h360v60h-360z"/><path id="XMLID_2572_" d="m117.377 435h275.246l8.479-195h-292.204zm131.978-161.181c3.568 1.452 7.718 1.454 11.284.002 32.286-13.123 69.36 9.076 69.36 46.093 0 42.582-35.485 71.983-78.529 70.005-38.886-1.792-69.603-28.327-71.387-66.417-1.926-40.932 37.094-62.774 69.272-49.683z"/><path id="XMLID_2574_" d="m288.452 347.86c12.558-11.993 11.493-28.326 11.544-28.595-.2-14.114-14.684-23.088-28.058-17.653-10.603 4.311-22.812 4.499-33.886-.003-12.422-5.056-28.868 2.074-28.002 20.484 1.829 38.997 54.553 48.543 78.402 25.767z"/><path id="XMLID_2576_" d="m107.594 210h294.811l1.956-45h-298.723z"/><path id="XMLID_2579_" d="m120.639 510h268.723l1.956-45h-272.636z"/></g></svg>