<svg id="Capa_1" enable-background="new 0 0 512 512" height="512" viewBox="0 0 512 512" width="512" xmlns="http://www.w3.org/2000/svg"><g><path d="m256.46 341-.46-.01c-18.17 0-32.95 14.78-32.95 32.95s14.78 32.95 32.95 32.95l.46-.01c17.91-.23 32.49-15.01 32.49-32.94s-14.58-32.71-32.49-32.94z"/><path d="m512 0h-92.84v30h40.08l-25.09 42.16c-46.09-44.66-108.91-72.16-178.15-72.16-141.38 0-256 114.62-256 256s114.62 256 256 256 256-114.62 256-256c0-59.92-20.59-115.02-55.07-158.64h55.07v-30h-40.08zm-209.91 105.99v-30h92.84l-40.08 67.36h40.08v30h-92.84l40.08-67.36zm-202.59 113.71h30c0 15.95 12.97 28.92 28.91 28.92 15.95 0 28.92-12.97 28.92-28.92h30c0 32.49-26.43 58.92-58.92 58.92-32.48 0-58.91-26.43-58.91-58.92zm157.55 217.18c-.35.01-.69.01-1.05.01-34.71 0-62.95-28.24-62.95-62.95s28.24-62.95 62.95-62.95c34.031 0 62.95 28.849 62.95 62.95 0 34.19-27.75 62.38-61.9 62.94zm96.54-158.26c-32.49 0-58.92-26.43-58.92-58.92h30c0 15.95 12.97 28.92 28.92 28.92 15.94 0 28.91-12.97 28.91-28.92h30c0 32.49-26.43 58.92-58.91 58.92z"/></g></svg>