<svg id="Capa_1" enable-background="new 0 0 512 512" height="512" viewBox="0 0 512 512" width="512" xmlns="http://www.w3.org/2000/svg"><g><path d="m90 301v180c0 16.567 13.431 31 30 31h31v-241h-31c-16.569 0-30 13.431-30 30z"/><path d="m361 181h-90v150h-60c-16.569 0-30 13.431-30 30 0 16.567 13.431 30 30 30h60c16.569 0 30-13.433 30-30 0-14.916 0-133.002 0-150h60z"/><path d="m391 271h-30v241h30c16.569 0 31-14.433 31-31v-180c0-16.569-14.431-30-31-30z"/><path d="m256 0c-140.61 0-256 115.39-256 256v195h45c8.276 0 15 6.724 15 15v-150c0 8.276-6.724 15-15 15h-15v-75c0-38.936 9.959-75.579 27.433-107.552 30.623-5.332 61.178-19.955 86.082-43.165 30.644-28.551 70.59-44.283 112.485-44.283s81.841 15.732 112.485 44.282c24.904 23.21 55.459 37.833 86.082 43.165 17.474 31.974 27.433 68.617 27.433 107.553v75h-15c-8.276 0-15-6.724-15-15v150c0-8.276 6.724-15 15-15h45v-195c0-140.61-115.39-256-256-256z"/></g></svg>