<svg id="Capa_1" enable-background="new 0 0 505.611 505.611" height="512" viewBox="0 0 505.611 505.611" width="512" xmlns="http://www.w3.org/2000/svg"><g><path d="m484.394 84.852 21.213-21.213-63.639-63.639-21.213 21.213 21.213 21.213-31.82 31.82 21.213 21.213 31.82-31.82z"/><path d="m219.229 180.312 106.065 106.065 31.821-31.819-42.426-42.427 21.213-21.213 42.426 42.427 31.82-31.821-106.066-106.065z"/><path d="m160.606 366.215 25.612-25.606 21.209 21.209 41.117-41.117 51.487-17.162-97.963-97.963-17.162 51.486-41.118 41.118 21.217 21.217-25.609 25.601z"/><path d="m401.361 107.885h59.999v59.999h-59.999z" transform="matrix(.707 -.707 .707 .707 28.846 345.409)"/><path d="m337.722 44.245h60.001v60.001h-60.001z" transform="matrix(.707 -.707 .707 .707 55.209 281.772)"/><path d="m35.796 306.531c1.865-17.615-9.763-33.432-26.805-37.113-7.948 24.131-10.814 50.119-7.838 76.498 15.319-11.975 32.269-17.33 34.643-39.385z"/><path d="m328.39 325.709-63.641 21.213-57.322 57.322-21.213-21.211-25.615 25.608-63.629-63.649 25.605-25.6-21.215-21.213 57.324-57.323 21.213-63.64 29.26-29.26c-77.986-12.686-152.708 26.51-188.287 93.603 28.786 8.954 48.037 37.182 44.758 68.155-4.563 42.424-42.007 53.876-57.86 68.219 24.778 81.397 104.169 135.758 191.052 126.691-.099-1.459-8.966-25.044 5.934-50.841 19.034-32.958 61.503-41.329 91.656-21.831l18.883 12.244c36.177-41.221 50.89-95.311 42.358-147.748z"/><path d="m251.025 452.959c-34.963 9.981-22.674 45.944-22.686 46.047 23.959-6.688 45.913-18.221 64.745-33.469-6.952-3.225-20.586-18.73-42.059-12.578z"/></g></svg>