<svg id="Capa_1" enable-background="new 0 0 510 510" height="512" viewBox="0 0 510 510" width="512" xmlns="http://www.w3.org/2000/svg"><g id="XMLID_435_"><path id="XMLID_447_" d="m30 30h30v150h-30z"/><path id="XMLID_446_" d="m165 90h120v30h-120z"/><path id="XMLID_437_" d="m464.056 190.677c-10.969 11.872-26.656 19.323-44.056 19.323-33.084 0-60-26.916-60-60v-120c0-10.925 2.949-21.168 8.072-30h-278.072v210h135v90h75 90v30h-90v30h90v30h-90v30h90v30h-90v60h180v-285c0-13.744-6.2-26.062-15.944-34.323zm-164.056 49.323v30h-45v-60h45zm15-90h-180v-90h180z"/><path id="XMLID_436_" d="m420 180c16.569 0 30-13.432 30-30v-120c0-16.568-13.431-30-30-30-16.568 0-30 13.432-30 30v120c0 16.568 13.432 30 30 30z"/></g></svg>