<svg id="Capa_1" enable-background="new 0 0 512 512" height="512" viewBox="0 0 512 512" width="512" xmlns="http://www.w3.org/2000/svg"><g><path d="m60 174.61v-59.599c17.459-6.192 30-22.865 30-42.42v-24.96h-30v24.961c0 8.271-6.729 15-15 15s-15-6.729-15-15v-24.961h-30v24.961c0 19.555 12.541 36.228 30 42.42v89.599h89.195v-30h-59.195z"/><path d="m119.195 309.549h273.609v-104.939h-273.609zm197.707-67.469h30v30h-30zm-75.902 0h30v30h-30zm-75.902 0h30v30h-30z"/><path d="m392.062 407.062c-28.932 0-52.469 23.537-52.469 52.469s23.538 52.469 52.469 52.469 52.469-23.537 52.469-52.469-23.537-52.469-52.469-52.469zm15 67.469h-30v-30h30z"/><path d="m325.336 69.336c0-38.232-31.104-69.336-69.336-69.336s-69.336 31.104-69.336 69.336v37.806h138.672zm-54.336-.765h-30v-30h30z"/><path d="m119.938 407.062c-28.932 0-52.469 23.537-52.469 52.469s23.537 52.469 52.469 52.469 52.469-23.537 52.469-52.469-23.538-52.469-52.469-52.469zm15 67.469h-30v-30h30z"/><path d="m183.515 407.062c11.795 14.267 18.891 32.554 18.891 52.469s-7.096 38.202-18.891 52.469h144.969c-11.795-14.267-18.891-32.554-18.891-52.469s7.096-38.202 18.891-52.469z"/><path d="m203.531 339.549h104.938v37.469h-104.938z"/><path d="m119.195 137.142h273.609v37.469h-273.609z"/><path d="m482 47.631v24.961c0 8.271-6.729 15-15 15s-15-6.729-15-15v-24.961h-30v24.961c0 19.555 12.541 36.228 30 42.42v59.599h-59.195v30h89.195v-89.599c17.459-6.192 30-22.865 30-42.42v-24.961z"/></g></svg>