<svg id="Layer_1" enable-background="new 0 0 510 510" height="512" viewBox="0 0 510 510" width="512" xmlns="http://www.w3.org/2000/svg"><g><path d="m360.006 240c-.481 0-.964.006-1.446.018-31.656.736-57.921 27.097-58.548 58.761-.201 10.183 2.186 20.278 6.902 29.194 6.818 12.892 9.682 27.703 8.279 42.834-.189 2.043-.24 4.129-.149 6.206 1.005 23.085 19.87 41.949 42.947 42.943 12.415.537 24.188-3.888 33.13-12.453 8.95-8.572 13.879-20.115 13.879-32.503 0-1.525-.077-3.062-.229-4.567-1.45-14.342 1.543-29.251 8.657-43.116 4.361-8.498 6.572-17.688 6.572-27.317 0-16.291-6.419-31.534-18.074-42.922-11.307-11.045-26.144-17.078-41.92-17.078z"/><path d="m210 150h30v-30h30v30h30c16.542 0 30-13.458 30-30s-13.458-30-30-30h-90c-16.542 0-30 13.458-30 30s13.458 30 30 30z"/><path d="m150.005 240c-.481 0-.963.006-1.446.018-31.656.736-57.92 27.097-58.547 58.761-.201 10.182 2.186 20.276 6.902 29.194 6.818 12.893 9.682 27.704 8.279 42.835-.189 2.044-.24 4.131-.149 6.203 1.005 23.088 19.87 41.951 42.947 42.945 12.419.537 24.187-3.888 33.13-12.453 8.95-8.572 13.879-20.115 13.879-32.503 0-1.525-.077-3.062-.23-4.567-1.45-14.344 1.543-29.253 8.658-43.117 4.361-8.497 6.572-17.687 6.572-27.316 0-16.291-6.419-31.534-18.074-42.922-11.307-11.045-26.145-17.078-41.921-17.078z"/><path d="m405 0h-300c-57.896 0-105 47.104-105 105v300c0 57.897 47.104 105 105 105h300c57.897 0 105-47.103 105-105v-300c0-57.896-47.103-105-105-105zm-195 60h90c33.084 0 60 26.916 60 60s-26.916 60-60 60h-90c-33.084 0-60-26.916-60-60s26.916-60 60-60zm20.119 281.013c-4.465 8.701-6.368 17.831-5.501 26.401.253 2.503.382 5.056.382 7.586 0 20.647-8.213 39.884-23.127 54.168-14.1 13.505-32.395 20.833-51.825 20.833-1.113 0-2.228-.024-3.349-.072-38.488-1.658-69.951-33.114-71.627-71.613-.149-3.425-.066-6.883.249-10.276.863-9.311-.841-18.314-4.927-26.04-7.09-13.405-10.679-28.557-10.377-43.814.459-23.185 9.8-45.075 26.301-61.637 16.503-16.563 38.358-25.983 61.541-26.522 24.482-.561 47.553 8.52 65.03 25.594 17.483 17.078 27.111 39.943 27.111 64.379 0 14.235-3.416 28.417-9.881 41.013zm209.999.001c-4.464 8.701-6.366 17.831-5.5 26.4.253 2.503.382 5.056.382 7.586 0 20.647-8.214 39.884-23.127 54.168-14.1 13.505-32.395 20.833-51.825 20.833-1.113 0-2.228-.024-3.349-.072-38.487-1.658-69.951-33.114-71.627-71.613-.149-3.435-.065-6.893.25-10.282.862-9.305-.842-18.309-4.928-26.033-7.09-13.404-10.679-28.556-10.377-43.815.459-23.185 9.8-45.076 26.301-61.638 16.503-16.563 38.358-25.983 61.542-26.522 24.445-.567 47.552 8.52 65.029 25.594 17.483 17.079 27.111 39.944 27.111 64.38 0 14.235-3.417 28.418-9.882 41.014z"/></g></svg>