<svg id="Capa_1" enable-background="new 0 0 510 510" height="512" viewBox="0 0 510 510" width="512" xmlns="http://www.w3.org/2000/svg"><g><g><path id="XMLID_406_" d="m192.007 67.5c-4.159 0-8.209-.736-12.007-2.1v124.2c3.798-1.361 7.848-2.1 12.007-2.1h125.986c4.159 0 8.209.738 12.007 2.1v-124.2c-3.798 1.363-7.848 2.1-12.007 2.1z"/><path id="XMLID_403_" d="m45 22.584c-24.812 0-45 20.188-45 45v119.832c0 24.814 20.188 45 45 45h62.993c15.586 0 30.378-5.502 42.007-15.23v-179.372c-11.629-9.727-26.421-15.23-42.007-15.23z"/><path id="XMLID_402_" d="m465 22.584h-62.993c-15.586 0-30.378 5.504-42.007 15.23v179.371c11.629 9.729 26.421 15.23 42.007 15.23h62.993c24.814 0 45-20.186 45-45v-119.831c0-24.813-20.186-45-45-45z"/><path id="XMLID_401_" d="m192.007 322.5c-4.159 0-8.209-.736-12.007-2.1v124.2c3.798-1.361 7.848-2.1 12.007-2.1h125.986c4.159 0 8.209.738 12.007 2.1v-124.2c-3.798 1.363-7.848 2.1-12.007 2.1z"/><path id="XMLID_400_" d="m465 277.584h-62.993c-15.586 0-30.378 5.504-42.007 15.23v179.371c11.629 9.729 26.421 15.23 42.007 15.23h62.993c24.814 0 45-20.185 45-45v-119.831c0-24.812-20.186-45-45-45z"/><path id="XMLID_399_" d="m45 277.584c-24.812 0-45 20.188-45 45v119.832c0 24.815 20.188 45 45 45h62.993c15.586 0 30.378-5.504 42.007-15.23v-179.371c-11.629-9.727-26.421-15.23-42.007-15.23h-62.993z"/></g></g></svg>