<svg id="Capa_1" enable-background="new 0 0 508.648 508.648" height="512" viewBox="0 0 508.648 508.648" width="512" xmlns="http://www.w3.org/2000/svg"><path id="XMLID_229_" d="m491.539 103.087c0-15.707-6.117-30.473-17.224-41.579-15.864-15.867-38.942-21.303-60.219-14.189l-271.817 90.857-28.701-28.701c-3.287-3.288-3.287-8.638 0-11.924l4.25-4.25c21.309-21.31 21.308-55.984-.002-77.293-10.322-10.323-24.047-16.008-38.647-16.008-14.598 0-28.323 5.685-38.645 16.007l-23.425 23.424 21.212 21.214 23.426-23.424c4.656-4.657 10.847-7.221 17.433-7.221 6.585 0 12.776 2.564 17.433 7.221 9.613 9.613 9.613 25.254.001 34.866l-4.249 4.25c-14.984 14.985-14.984 39.366 0 54.351l28.701 28.701-90.857 271.816c-7.112 21.28-1.675 44.355 14.19 60.22 11.105 11.106 25.872 17.223 41.578 17.223 15.707 0 30.474-6.117 41.579-17.223l346.759-346.759c11.107-11.106 17.224-25.873 17.224-41.579zm-259.41 36.687-4.319 32.235-72.909 72.91-32.236 4.319 27.423-82.042zm220.973-16.322-346.759 346.76c-5.44 5.44-12.673 8.436-20.366 8.436-7.692 0-14.925-2.996-20.365-8.437-7.771-7.771-10.435-19.073-6.95-29.496l14.004-41.896 25.598 25.599 55.532-55.533-21.213-21.213-34.319 34.319-14.97-14.97 28.778-86.096 56.866-7.62 87.257-87.257 7.62-56.866 85.621-28.62 15.129 15.128-34.319 34.319 21.213 21.213 55.532-55.532-25.757-25.757 42.371-14.163c10.425-3.483 21.725-.821 29.496 6.951 5.44 5.44 8.437 12.672 8.437 20.365s-2.995 14.926-8.436 20.366z"/></svg>