<svg id="Capa_1" enable-background="new 0 0 512 512" height="512" viewBox="0 0 512 512" width="512" xmlns="http://www.w3.org/2000/svg"><g><path d="m177.328 289.585c0 38.477 26.981 70.749 63.01 78.95h8.649v-280.316h-8.651c-36.029 8.201-63.008 40.473-63.008 78.949z"/><path d="m147.328 167.168c0-28.757 10.995-54.993 29-74.728-55.446 18.598-95.505 71.041-95.505 132.668v6.538c0 61.637 40.072 114.087 95.531 132.677-18.016-19.737-29.026-45.972-29.026-74.737z"/><path d="m380.647 289.585c0 28.805-11.041 55.071-29.1 74.817 55.585-18.518 95.776-71.029 95.776-132.757v-6.538c0-61.718-40.178-114.223-95.751-132.748 18.049 19.745 29.075 46.012 29.075 74.808z"/><path d="m350.647 167.168c0-38.476-26.98-70.748-63.008-78.949h-8.652v280.316h8.65c36.029-8.2 63.01-40.473 63.01-78.95z"/><path d="m330.2 58.219v-32.366h-51.213v-25.853h-30v25.853h-51.213v32.366z"/><path d="m197.774 398.535v32.365h51.213v7.05c0 10.737-8.735 19.473-19.473 19.473h-115.364c-27.279 0-49.473 22.193-49.473 49.473v5.104h30v-5.104c0-10.737 8.735-19.473 19.473-19.473h115.364c27.279 0 49.473-22.193 49.473-49.473v-7.05h51.213v-32.365z"/></g></svg>