<svg id="Capa_1" enable-background="new 0 0 512 512" height="512" viewBox="0 0 512 512" width="512" xmlns="http://www.w3.org/2000/svg"><g><path d="m444.617 243.135c0 31.964 23.084 59.735 54.099 65.652 8.497-19.783 13.284-42.069 13.284-65.653s-4.787-45.87-13.284-65.653c-31.014 5.917-54.099 33.69-54.099 65.654z"/><path d="m451.486 368.834c12.261-8.81 23.132-19.955 32.164-32.885-17.488-5.22-33.288-15.365-45.406-29.359-15.235-17.595-23.626-40.13-23.626-63.455s8.391-45.861 23.626-63.456c12.118-13.995 27.918-24.139 45.406-29.359-9.032-12.931-19.903-24.075-32.164-32.885-53.048 17.004-91.467 66.845-91.467 125.7 0 58.854 38.419 108.696 91.467 125.699z"/><path d="m397.258 374.623c-13.589-9.808-25.538-21.617-35.515-35.1-3.947-5.334-7.538-10.861-10.769-16.553h-27.268l-32.418 32.418h-38.631v-30h26.205l32.418-32.418h26.51c-3.623-11.249-6.001-22.91-7.085-34.835h-39.417l-32.418 32.417h-103.467v-30h91.041l17.418-17.417-17.418-17.418h-26.205v-30h38.631l32.418 32.418h39.417c1.084-11.925 3.462-23.586 7.085-34.836h-26.51l-32.418-32.418h-44.021v-30h56.447l32.418 32.418h27.268c3.231-5.692 6.822-11.219 10.769-16.553 9.977-13.483 21.925-25.293 35.515-35.1 10.863-7.84 22.587-14.255 34.96-19.155-12.362-13.915-26.406-26.299-41.818-36.832l-40.386 40.386h-64.938v-30h52.513l26.086-26.086c-30.454-15.191-64.795-23.75-101.14-23.75-125.327 0-226.925 101.598-226.925 226.925 0 48.434 15.184 93.315 41.036 130.167l-76.646 76.644 45.846 45.846 75.227-75.227c38.794 30.971 87.961 49.496 141.461 49.496 37.963 0 73.742-9.333 105.186-25.814l-24.022-24.022h-58.622v-30h71.048l37.868 37.868c14.006-9.973 26.833-21.49 38.227-34.314-12.374-4.9-24.098-11.315-34.961-19.155zm-226.374-243.742h32.283v30h-32.283zm48.89 224.506h-32.284v-30h32.284z"/></g></svg>