<svg id="Capa_1" enable-background="new 0 0 512 512" height="512" viewBox="0 0 512 512" width="512" xmlns="http://www.w3.org/2000/svg"><g><path d="m475.305 438.609c-12.06 0-32.353 11.553-47.845 21.694v-.003h-342.92v.003c-15.491-10.141-35.785-21.694-47.845-21.694-20.266 0-36.695 16.429-36.695 36.696 0 20.266 16.429 36.695 36.695 36.695 12.062 0 32.361-11.557 47.854-21.7h342.901c15.493 10.143 35.792 21.7 47.854 21.7 20.267 0 36.696-16.429 36.696-36.695 0-20.267-16.429-36.696-36.695-36.696z"/><path d="m256 406.625c98.566 0 178.47-162.267 178.47-290.834 0-79.186-30.303-105.8-76.621-113.654-21.697-3.679-43.962-2.525-65.293 2.823l-21.556 5.406v171.431h-30v-171.431l-21.558-5.406c-21.33-5.348-43.595-6.502-65.291-2.823-46.318 7.854-76.621 34.468-76.621 113.654 0 128.567 79.903 290.834 178.47 290.834zm-19-99.375h30v30h-30zm-30.125-90.375h30v30h-30zm-30.125-60.267h30v30h-30zm0 120.517h30v30h-30zm-30.25-120.625h-30v-30h30zm.125 60.375h30v30h-30z"/></g></svg>