<?xml version="1.0" encoding="iso-8859-1"?>
<!-- Generator: Adobe Illustrator 19.0.0, SVG Export Plug-In . SVG Version: 6.00 Build 0)  -->
<svg version="1.1" id="Layer_1" xmlns="http://www.w3.org/2000/svg" xmlns:xlink="http://www.w3.org/1999/xlink" x="0px" y="0px"
	 viewBox="0 0 512 512" style="enable-background:new 0 0 512 512;" xml:space="preserve">
<g>
	<g>
		<path d="M256.42,307.849l-38.155-16.958l14.948-29.896l22.369,9.942l89.462-44.733l105.587,52.794
			c-1.796-67.876-21.157-131.512-54.999-180.159C358.783,45.867,309.195,16.696,256,16.696S153.217,45.867,116.369,98.837
			C82.8,147.092,63.476,210.091,61.411,277.35l93.659-51.088l47.598,21.154l-14.949,29.896l-31.138-13.84l-93.892,51.214
			C74.522,416.339,156.698,495.304,256,495.304c99,0,180.985-78.484,193.21-179.685l-104.166-52.083L256.42,307.849z"/>
	</g>
</g>
<g>
	<g>
		<rect y="128" width="55.652" height="33.391"/>
	</g>
</g>
<g>
	<g>
		<rect x="24.183" y="40.811" transform="matrix(0.3333 -0.9428 0.9428 0.3333 -37.458 84.2994)" width="33.391" height="55.65"/>
	</g>
</g>
<g>
	<g>
		<rect x="456.348" y="128" width="55.652" height="33.391"/>
	</g>
</g>
<g>
	<g>
		<rect x="443.282" y="51.937" transform="matrix(0.9428 -0.3333 0.3333 0.9428 4.0631 160.9478)" width="55.65" height="33.391"/>
	</g>
</g>
<g>
</g>
<g>
</g>
<g>
</g>
<g>
</g>
<g>
</g>
<g>
</g>
<g>
</g>
<g>
</g>
<g>
</g>
<g>
</g>
<g>
</g>
<g>
</g>
<g>
</g>
<g>
</g>
<g>
</g>
</svg>
