<?xml version="1.0" encoding="iso-8859-1"?>
<!-- Generator: Adobe Illustrator 19.0.0, SVG Export Plug-In . SVG Version: 6.00 Build 0)  -->
<svg version="1.1" id="Layer_1" xmlns="http://www.w3.org/2000/svg" xmlns:xlink="http://www.w3.org/1999/xlink" x="0px" y="0px"
	 viewBox="0 0 512.001 512.001" style="enable-background:new 0 0 512.001 512.001;" xml:space="preserve">
<g>
	<g>
		<path d="M462.093,223.717c-6.451-11.587-16.552-20.315-28.618-25.006c-4.696-12.064-13.428-22.16-25.019-28.608
			c-27.082-15.061-61.371-5.282-76.433,21.801c-2.957,5.315-5.134,12.608-6.651,22.422h-74.179v-90.243
			c0-24.646-10.153-46.959-26.485-63c-8.549-8.4-18.795-15.066-30.169-19.456c5.796-6.998,9.643-12.554,10.506-15.527
			c3.095-10.86-3.224-22.214-14.085-25.31c-6.076-1.731-12.508-0.588-17.647,3.138l-10.482,7.597l-10.482-7.597
			c-5.14-3.727-11.574-4.866-17.649-3.138c-10.86,3.096-17.178,14.449-14.084,25.311V26.1c0.864,2.977,4.709,8.534,10.502,15.528
			c-11.372,4.39-21.617,11.057-30.165,19.455c-16.333,16.041-26.486,38.354-26.486,63v3.655l-31.648,21.098l31.648,21.098v62.251
			c0,84.765,60.528,155.653,140.631,171.729c-18.517-20.716-29.792-48.035-29.792-77.941h35.721c0,44.864,36.5,81.364,81.364,81.364
			h8.335v-0.11c55.708-2.27,101.04-45.499,106.593-100.314c10.11-1.525,17.588-3.735,23.01-6.754
			C467.405,285.084,477.169,250.792,462.093,223.717z M161.889,154.789c-9.864,0-17.861-7.997-17.861-17.86
			s7.997-17.861,17.861-17.861c9.864,0,17.86,7.997,17.86,17.861S171.753,154.789,161.889,154.789z"/>
	</g>
</g>
<g>
	<g>
		<path d="M310.727,476.28v-33.221h-8.335c-9.429-0.001-18.598-1.13-27.386-3.243v36.463h-23.814v-45.025
			c-13.581-6.631-25.698-15.814-35.721-26.921v71.947h-41.674v35.721h154.791V476.28H310.727z"/>
	</g>
</g>
<g>
</g>
<g>
</g>
<g>
</g>
<g>
</g>
<g>
</g>
<g>
</g>
<g>
</g>
<g>
</g>
<g>
</g>
<g>
</g>
<g>
</g>
<g>
</g>
<g>
</g>
<g>
</g>
<g>
</g>
</svg>
