<?xml version="1.0" encoding="iso-8859-1"?>
<!-- Generator: Adobe Illustrator 19.0.0, SVG Export Plug-In . SVG Version: 6.00 Build 0)  -->
<svg version="1.1" id="Layer_1" xmlns="http://www.w3.org/2000/svg" xmlns:xlink="http://www.w3.org/1999/xlink" x="0px" y="0px"
	 viewBox="0 0 512 512" style="enable-background:new 0 0 512 512;" xml:space="preserve">
<g>
	<g>
		<path d="M444.387,122.171c-7.885-31.09-26.225-53.469-51.639-63.018l0.001,0.001c-8.808-3.309-17.99-4.895-27.329-4.803
			c15.872,28.289,24.513,62.481,24.513,97.999c0,14.948-2.3,29.347-6.536,42.849h60.114
			C449.72,170.06,450.106,144.721,444.387,122.171z"/>
	</g>
</g>
<g>
	<g>
		<path d="M146.582,54.35c-9.339-0.092-18.522,1.494-27.328,4.803c-25.413,9.549-43.753,31.928-51.639,63.018
			c-5.719,22.55-5.334,47.889,0.877,73.029h60.111c-4.236-13.503-6.534-27.901-6.534-42.849
			C122.068,116.832,130.708,82.639,146.582,54.35z"/>
	</g>
</g>
<g>
	<g>
		<path d="M325.469,62.755C307.366,36.732,282.694,22.4,256,22.4s-51.366,14.332-69.469,40.355
			c-16.806,24.16-26.062,55.978-26.062,89.596c0,15.322,3.292,29.843,9.149,42.849h172.763c5.859-13.005,9.151-27.528,9.151-42.849
			C351.531,118.733,342.276,86.915,325.469,62.755z M211.954,124.785c-10.596,0.416-19.523-7.836-19.939-18.432
			c-0.416-10.595,7.836-19.523,18.432-19.937c10.596-0.416,19.523,7.835,19.939,18.431
			C230.802,115.442,222.55,124.369,211.954,124.785z M256.753,175.985c-10.596,0.416-19.521-7.836-19.939-18.432
			c-0.416-10.595,7.836-19.523,18.432-19.937c10.596-0.416,19.523,7.835,19.939,18.431S267.349,175.569,256.753,175.985z
			 M300.046,124.785c-10.595-0.416-18.848-9.343-18.432-19.939s9.344-18.847,19.939-18.431c10.596,0.415,18.849,9.343,18.432,19.937
			C319.569,116.949,310.642,125.202,300.046,124.785z"/>
	</g>
</g>
<g>
	<g>
		<polygon points="480,451.2 480,419.2 32,419.2 32,451.2 0,451.2 0,489.6 512,489.6 512,451.2 		"/>
	</g>
</g>
<g>
	<g>
		<path d="M32,233.6v40.659c18.5,18.365,43.482,28.847,70.4,28.847c23.543,0,46.431-8.339,64.448-23.479l12.352-10.38l12.352,10.38
			c18.017,15.14,40.905,23.479,64.448,23.479s46.429-8.339,64.448-23.479l12.352-10.38l12.352,10.38
			c18.017,15.14,40.905,23.479,64.448,23.479c26.918,0,51.9-10.481,70.4-28.847V233.6H32z"/>
	</g>
</g>
<g>
	<g>
		<path d="M478.889,322.957c-20.977,12.134-44.934,18.548-69.289,18.548c-27.397,0-54.156-8.165-76.8-23.228
			c-22.644,15.064-49.403,23.228-76.8,23.228c-27.398,0-54.156-8.164-76.8-23.228c-22.644,15.066-49.402,23.228-76.8,23.228
			c-24.353,0-48.312-6.414-69.288-18.548c-0.374-0.216-0.74-0.448-1.112-0.667v58.51h448v-58.51
			C479.628,322.51,479.263,322.742,478.889,322.957z"/>
	</g>
</g>
<g>
</g>
<g>
</g>
<g>
</g>
<g>
</g>
<g>
</g>
<g>
</g>
<g>
</g>
<g>
</g>
<g>
</g>
<g>
</g>
<g>
</g>
<g>
</g>
<g>
</g>
<g>
</g>
<g>
</g>
</svg>
