<?xml version="1.0" encoding="iso-8859-1"?>
<!-- Generator: Adobe Illustrator 19.0.0, SVG Export Plug-In . SVG Version: 6.00 Build 0)  -->
<svg version="1.1" id="Layer_1" xmlns="http://www.w3.org/2000/svg" xmlns:xlink="http://www.w3.org/1999/xlink" x="0px" y="0px"
	 viewBox="0 0 512 512" style="enable-background:new 0 0 512 512;" xml:space="preserve">
<g>
	<g>
		<g>
			
				<rect x="90.114" y="66.979" transform="matrix(0.7071 0.7071 -0.7071 0.7071 106.8048 -94.3948)" width="154.467" height="29.498"/>
			<rect x="326.734" y="238.859" width="66.271" height="15.051"/>
			<path d="M61.315,43.784L31.578,43.49V512h207.726V166.226L211.531,194L61.315,43.784z M195.783,409.138
				c-9.22,0-16.696-7.475-16.696-16.696c0-9.22,7.475-16.696,16.696-16.696c9.22,0,16.696,7.475,16.696,16.696
				C212.479,401.663,205.005,409.138,195.783,409.138z M195.783,339.492c-9.22,0-16.696-7.475-16.696-16.696
				s7.475-16.696,16.696-16.696c9.22,0,16.696,7.475,16.696,16.696S205.005,339.492,195.783,339.492z M195.783,269.846
				c-9.22,0-16.696-7.475-16.696-16.696c0-9.22,7.475-16.696,16.696-16.696c9.22,0,16.696,7.475,16.696,16.696
				C212.479,262.371,205.004,269.846,195.783,269.846z"/>
			
				<rect x="267.424" y="66.994" transform="matrix(-0.7071 0.7071 -0.7071 -0.7071 646.1682 -104.1668)" width="154.467" height="29.498"/>
			<polygon points="153.69,0 256,102.309 358.309,0 			"/>
			<path d="M450.685,43.784L300.468,194l-27.773-27.774V512h207.726V43.49L450.685,43.784z M426.389,356.76H293.337V205.472h133.052
				V356.76z"/>
			<rect x="326.734" y="287.299" width="66.271" height="36.065"/>
		</g>
	</g>
</g>
<g>
</g>
<g>
</g>
<g>
</g>
<g>
</g>
<g>
</g>
<g>
</g>
<g>
</g>
<g>
</g>
<g>
</g>
<g>
</g>
<g>
</g>
<g>
</g>
<g>
</g>
<g>
</g>
<g>
</g>
</svg>
