<?xml version="1.0" encoding="iso-8859-1"?>
<!-- Generator: Adobe Illustrator 19.0.0, SVG Export Plug-In . SVG Version: 6.00 Build 0)  -->
<svg version="1.1" id="Layer_1" xmlns="http://www.w3.org/2000/svg" xmlns:xlink="http://www.w3.org/1999/xlink" x="0px" y="0px"
	 viewBox="0 0 512 512" style="enable-background:new 0 0 512 512;" xml:space="preserve">
<g>
	<g>
		<path d="M362.451,149.417V30.93h-77.064v33.391h43.672v28.07c-31.76,2.33-91.566,12.442-148.742,53.2V110.97h32.474V77.579h-98.34
			v33.391h32.474v62.737c-21.579,21.443-39.212,46.45-52.594,74.667c-10.681,22.522-18.622,47.132-23.83,73.599
			C30.866,326.609,0,360.378,0,401.24c0,44.019,35.811,79.83,79.83,79.83c44.019,0,79.829-35.811,79.829-79.83
			c0-35.624-23.459-65.864-55.736-76.105c4.67-22.489,11.529-43.364,20.581-62.452c15.743-33.198,38.171-61.304,66.661-83.537
			c44.545-34.763,97.661-49.99,137.895-53.301v23.572c-83.857,8.4-149.549,79.376-149.549,165.408
			c0,91.667,74.576,166.244,166.244,166.244S512,406.492,512,314.825C512,228.793,446.308,157.817,362.451,149.417z M126.267,401.24
			c0,25.607-20.832,46.438-46.437,46.438s-46.438-20.832-46.438-46.438c0-20.537,13.406-37.992,31.921-44.102
			c-1.438,14.251-2.179,28.951-2.179,44.102h33.391c0-14.625,0.749-28.759,2.188-42.409
			C114.932,366.081,126.267,382.356,126.267,401.24z M345.756,447.678c-73.255,0-132.853-59.598-132.853-132.853
			c0-67.602,50.754-123.569,116.157-131.806v115.11h-21.72v33.391h76.832V298.13h-21.721V183.019
			c65.404,8.237,116.157,64.205,116.157,131.805C478.609,388.08,419.012,447.678,345.756,447.678z"/>
	</g>
</g>
<g>
</g>
<g>
</g>
<g>
</g>
<g>
</g>
<g>
</g>
<g>
</g>
<g>
</g>
<g>
</g>
<g>
</g>
<g>
</g>
<g>
</g>
<g>
</g>
<g>
</g>
<g>
</g>
<g>
</g>
</svg>
