<?xml version="1.0" encoding="iso-8859-1"?>
<!-- Generator: Adobe Illustrator 19.0.0, SVG Export Plug-In . SVG Version: 6.00 Build 0)  -->
<svg version="1.1" id="Layer_1" xmlns="http://www.w3.org/2000/svg" xmlns:xlink="http://www.w3.org/1999/xlink" x="0px" y="0px"
	 viewBox="0 0 512 512" style="enable-background:new 0 0 512 512;" xml:space="preserve">
<g>
	<g>
		<g>
			<path d="M256,205.913c-27.618,0-50.087,22.469-50.087,50.087c0,27.618,22.469,50.087,50.087,50.087
				c27.618,0,50.087-22.469,50.087-50.087C306.087,228.382,283.618,205.913,256,205.913z M256,272.696
				c-9.22,0-16.696-7.475-16.696-16.696c0-9.22,7.475-16.696,16.696-16.696c9.22,0,16.696,7.475,16.696,16.696
				C272.696,265.22,265.22,272.696,256,272.696z"/>
			<path d="M437.021,74.98C388.668,26.628,324.382,0,256,0C187.619,0,123.332,26.628,74.98,74.98C26.628,123.332,0,187.619,0,256
				c0,68.382,26.628,132.668,74.98,181.021C123.332,485.372,187.619,512,256,512c68.382,0,132.668-26.628,181.021-74.979
				C485.372,388.668,512,324.382,512,256C512,187.619,485.372,123.332,437.021,74.98z M256,339.478
				c-46.03,0-83.478-37.448-83.478-83.478S209.97,172.522,256,172.522S339.478,209.97,339.478,256S302.03,339.478,256,339.478z
				 M355.639,319.961c15.964-16.225,25.119-39.538,25.119-63.962c0-24.42-9.157-47.734-25.12-63.961l23.805-23.417
				c22.057,22.422,34.708,54.27,34.708,87.378c0,33.113-12.651,64.962-34.709,87.382L355.639,319.961z M424.487,380.073
				l-23.805-23.417c25.183-25.6,39.627-62.289,39.627-100.659c0-38.367-14.444-75.052-39.627-100.65l23.805-23.417
				c31.275,31.792,49.213,77.013,49.213,124.068C473.7,303.054,455.763,348.278,424.487,380.073z"/>
		</g>
	</g>
</g>
<g>
</g>
<g>
</g>
<g>
</g>
<g>
</g>
<g>
</g>
<g>
</g>
<g>
</g>
<g>
</g>
<g>
</g>
<g>
</g>
<g>
</g>
<g>
</g>
<g>
</g>
<g>
</g>
<g>
</g>
</svg>
