<?xml version="1.0" encoding="iso-8859-1"?>
<!-- Generator: Adobe Illustrator 19.0.0, SVG Export Plug-In . SVG Version: 6.00 Build 0)  -->
<svg version="1.1" id="Layer_1" xmlns="http://www.w3.org/2000/svg" xmlns:xlink="http://www.w3.org/1999/xlink" x="0px" y="0px"
	 viewBox="0 0 512 512" style="enable-background:new 0 0 512 512;" xml:space="preserve">
<g>
	<g>
		<path d="M142.921,163.335c-28.642,8.028-54.68,27.652-75.24,57.208c-14.394,20.691-25.189,45.056-31.95,71.543
			c10.193-0.088,14.378-3.087,21.866-8.477c9.529-6.861,22.579-16.255,46.41-16.255c23.83,0,36.878,9.396,46.406,16.255
			c7.598,5.47,11.783,8.484,22.312,8.484c10.531,0,14.716-3.013,22.314-8.484c9.527-6.86,22.576-16.255,46.406-16.255
			c6.577,0,12.307,0.733,17.393,1.915L142.921,163.335z"/>
	</g>
</g>
<g>
	<g>
		<path d="M36.207,411.209C56.511,469.944,110.041,512,172.721,512s116.21-42.056,136.515-100.791H36.207z"/>
	</g>
</g>
<g>
	<g>
		<path d="M316.772,333.325h-6.61c-23.83,0-36.878-9.396-46.406-16.255c-7.598-5.47-11.783-8.484-22.311-8.484
			c-10.531,0-14.716,3.013-22.314,8.484c-9.528,6.86-22.576,16.255-46.406,16.255c-23.83,0-36.879-9.396-46.406-16.255
			c-7.598-5.47-11.783-8.484-22.312-8.484c-10.534,0-14.719,3.013-22.318,8.486c-9.529,6.858-22.579,16.254-46.41,16.254h-6.61
			c-0.777,8.447-1.179,17.011-1.179,25.656c0,3.697,0.132,7.361,0.378,10.995h289.705c0.246-3.634,0.378-7.298,0.378-10.995
			C317.951,350.336,317.548,341.772,316.772,333.325z"/>
	</g>
</g>
<g>
	<g>
		<path d="M194.778,15.407l-0.32-0.335C184.408,5.023,171.209,0,158.011,0c-13.199,0-26.396,5.023-36.443,15.073
			c-9.703,9.703-15.047,22.646-15.047,36.446s5.344,26.741,15.047,36.444l118.826,108.59l62.657-62.659L194.778,15.407z"/>
	</g>
</g>
<g>
	<g>
		<path d="M330.894,164.365l-60.032,60.032l51.88,47.411c4.765-12.489,12.132-23.956,21.868-33.691
			c9.736-9.736,21.203-17.103,33.694-21.868L330.894,164.365z"/>
	</g>
</g>
<g>
	<g>
		<path d="M451.515,267.27c-10.734-10.734-24.804-16.101-38.874-16.101c-14.07,0-28.14,5.367-38.876,16.103
			c-21.47,21.47-21.47,56.278,0,77.748c36.931,36.931,68.031,9.719,106.905,48.593C480.67,393.613,500.109,315.864,451.515,267.27z"
			/>
	</g>
</g>
<g>
</g>
<g>
</g>
<g>
</g>
<g>
</g>
<g>
</g>
<g>
</g>
<g>
</g>
<g>
</g>
<g>
</g>
<g>
</g>
<g>
</g>
<g>
</g>
<g>
</g>
<g>
</g>
<g>
</g>
</svg>
