<?xml version="1.0" encoding="iso-8859-1"?>
<!-- Generator: Adobe Illustrator 19.0.0, SVG Export Plug-In . SVG Version: 6.00 Build 0)  -->
<svg version="1.1" id="Layer_1" xmlns="http://www.w3.org/2000/svg" xmlns:xlink="http://www.w3.org/1999/xlink" x="0px" y="0px"
	 viewBox="0 0 512 512" style="enable-background:new 0 0 512 512;" xml:space="preserve">
<g>
	<g>
		<path d="M402.077,185.767l-81.412,28.336l-80.907-28.28l-67.54,29.456c0.644,14.232,3.12,27.966,7.202,40.938
			c4.973,2.413,9.783,5.221,14.384,8.434c8.886,6.203,16.68,13.642,23.192,22.069h92.935c29.151,0,53.607,20.414,59.87,47.693
			l43.176-43.741l0.093-0.094l0.094-0.094c10.925-10.925,24.427-18.357,39.15-21.781c7.172-17.502,11.355-36.671,11.851-56.792
			L402.077,185.767z"/>
	</g>
</g>
<g>
	<g>
		<path d="M423.753,68.498C396.089,28.73,358.575,6.827,318.123,6.827S240.157,28.73,212.491,68.498
			c-19.612,28.191-32.599,63.16-37.839,101.033l63.458-27.675l82.584,28.869l82.776-28.813l57.631,24.265
			C455.571,129.596,442.784,95.853,423.753,68.498z"/>
	</g>
</g>
<g>
	<g>
		<rect y="266.24" width="81.92" height="218.453"/>
	</g>
</g>
<g>
	<g>
		<path d="M500.053,319.449c-7.965-7.965-18.465-11.948-28.964-11.948c-10.498,0-20.997,3.983-28.963,11.947l-56.42,57.157
			l-21.362,0.036c-10.286,19.573-30.81,32.96-54.414,32.96h-98.304v-40.96h98.304c11.293,0,20.48-9.187,20.48-20.48
			s-9.187-20.48-20.48-20.48H245.76h-52.175c-9.355-23.906-32.666-40.96-59.782-40.96H122.88v201.159
			c11.474,10.714,26.848,17.295,43.691,17.295c0,0,186.672-0.015,187.154-0.036c0.505,0.019,1.01,0.029,1.516,0.029
			c10.498,0,20.996-3.974,28.96-11.94l115.853-115.853C515.983,361.445,515.983,335.378,500.053,319.449z"/>
	</g>
</g>
<g>
</g>
<g>
</g>
<g>
</g>
<g>
</g>
<g>
</g>
<g>
</g>
<g>
</g>
<g>
</g>
<g>
</g>
<g>
</g>
<g>
</g>
<g>
</g>
<g>
</g>
<g>
</g>
<g>
</g>
</svg>
