<?xml version="1.0" encoding="iso-8859-1"?>
<!-- Generator: Adobe Illustrator 19.0.0, SVG Export Plug-In . SVG Version: 6.00 Build 0)  -->
<svg version="1.1" id="Layer_1" xmlns="http://www.w3.org/2000/svg" xmlns:xlink="http://www.w3.org/1999/xlink" x="0px" y="0px"
	 viewBox="0 0 512 512" style="enable-background:new 0 0 512 512;" xml:space="preserve">
<g>
	<g>
		<path d="M394.785,156.62l-67.982-23.014L256,169.007l-70.803-35.401l-67.982,23.014c-2.245,10.017-3.437,20.428-3.437,31.114
			c0,23.304,5.634,45.315,15.611,64.746l23.716-11.296l102.037,45.35l90.73-45.364l34.858,14.838
			c11.145-20.277,17.492-43.547,17.492-68.273C398.222,177.047,397.03,166.637,394.785,156.62z M199.111,199.111
			c-9.425,0-17.067-7.641-17.067-17.067s7.641-17.067,17.067-17.067c9.425,0,17.067,7.641,17.067,17.067
			S208.536,199.111,199.111,199.111z M256,257.897l-28.444-18.963c0-15.709,12.735-28.444,28.444-28.444
			s28.444,12.735,28.444,28.444L256,257.897z M312.889,199.111c-9.425,0-17.067-7.641-17.067-17.067s7.641-17.067,17.067-17.067
			s17.067,7.641,17.067,17.067S322.314,199.111,312.889,199.111z"/>
	</g>
</g>
<g>
	<g>
		<path d="M426.663,389.12c-8.717,0-12.181,2.494-18.47,7.023c-7.887,5.679-18.689,13.457-38.416,13.457
			c-19.726,0-30.528-7.778-38.415-13.457c-6.289-4.528-9.753-7.023-18.47-7.023c-8.72,0-12.184,2.495-18.475,7.023
			c-7.888,5.68-18.691,13.457-38.419,13.457c-19.728,0-30.53-7.777-38.419-13.457c-6.291-4.528-9.756-7.023-18.475-7.023
			c-8.716,0-12.181,2.494-18.471,7.023c-7.886,5.679-18.689,13.457-38.415,13.457c-19.727,0-30.53-7.778-38.417-13.457
			c-6.29-4.528-9.754-7.023-18.472-7.023c-4.093,0-7.022,0.556-9.636,1.609C107.513,462.312,176.363,512,256,512
			c79.635,0,148.486-49.687,180.305-121.269C433.69,389.677,430.758,389.12,426.663,389.12z"/>
	</g>
</g>
<g>
	<g>
		<path d="M347.022,278.756L256,324.267l-102.4-45.511l-95.544,45.511c1.199,11.736,3.319,23.183,6.274,34.265
			c5.666-2.098,12.501-3.545,21-3.545c19.727,0,30.529,7.778,38.416,13.456c6.29,4.528,9.755,7.023,18.472,7.023
			c8.717,0,12.181-2.494,18.471-7.023c7.887-5.679,18.689-13.456,38.415-13.456c19.728,0,30.531,7.777,38.419,13.456
			c6.291,4.528,9.756,7.023,18.475,7.023s12.184-2.495,18.475-7.023c7.889-5.68,18.693-13.456,38.42-13.456
			c19.726,0,30.528,7.778,38.415,13.456c6.289,4.528,9.753,7.023,18.47,7.023c8.717,0,12.181-2.494,18.47-7.023
			c7.887-5.679,18.689-13.456,38.416-13.456c8.503,0,15.34,1.448,21.007,3.548c2.955-11.083,5.074-22.531,6.274-34.268
			L347.022,278.756z"/>
	</g>
</g>
<g>
	<g>
		<path d="M421.584,123.49C384.659,46.164,322.758,0,256,0S127.341,46.164,90.416,123.49l-3.511,7.355l100.829-34.133L256,130.844
			l68.267-34.133l100.829,34.133L421.584,123.49z"/>
	</g>
</g>
<g>
</g>
<g>
</g>
<g>
</g>
<g>
</g>
<g>
</g>
<g>
</g>
<g>
</g>
<g>
</g>
<g>
</g>
<g>
</g>
<g>
</g>
<g>
</g>
<g>
</g>
<g>
</g>
<g>
</g>
</svg>
