<?xml version="1.0" encoding="iso-8859-1"?>
<!-- Generator: Adobe Illustrator 19.0.0, SVG Export Plug-In . SVG Version: 6.00 Build 0)  -->
<svg version="1.1" id="Layer_1" xmlns="http://www.w3.org/2000/svg" xmlns:xlink="http://www.w3.org/1999/xlink" x="0px" y="0px"
	 viewBox="0 0 512 512" style="enable-background:new 0 0 512 512;" xml:space="preserve">
<g>
	<g>
		<path d="M442.553,112.838h-6.809v149.787c0,45.051-36.652,81.702-81.702,81.702H202.655l-69.628,37.979
			c12.272,19.69,34.112,32.829,58.973,32.829h120.068l145.464,79.345V413.51C488.65,406.642,512,378.841,512,345.689V182.285
			C512,143.992,480.846,112.838,442.553,112.838z"/>
	</g>
</g>
<g>
	<g>
		<path d="M354.043,17.519H40.851C18.326,17.519,0,35.846,0,58.37v204.255c0,22.527,18.326,40.851,40.851,40.851h27.234v67.719
			l124.153-67.719h161.804c22.525,0,40.851-18.324,40.851-40.851V58.37C394.894,35.846,376.568,17.519,354.043,17.519z
			 M197.447,65.179c28.88,0,54.434,28.137,65.844,67.434c-4.303-1.061-9.179-1.732-14.784-1.732
			c-19.354,0-30.253,7.849-37.466,13.041c-5.399,3.886-7.419,5.342-13.595,5.342c-6.178,0-8.199-1.454-13.597-5.342
			c-7.213-5.192-18.113-13.041-37.467-13.041c-5.601,0-10.474,0.67-14.776,1.731C143.013,93.314,168.566,65.179,197.447,65.179z
			 M197.447,255.817c-38.491,0-70.035-32.718-72.063-73.758c2.824-1.693,5.224-3.419,7.401-4.985
			c5.399-3.886,7.419-5.342,13.595-5.342c6.178,0,8.199,1.454,13.597,5.342c7.213,5.192,18.113,13.041,37.467,13.041
			s30.253-7.849,37.466-13.041c5.399-3.886,7.419-5.342,13.595-5.342c6.179,0,8.2,1.454,13.601,5.343
			c2.105,1.516,4.541,3.263,7.404,4.978C267.486,223.097,235.939,255.817,197.447,255.817z"/>
	</g>
</g>
<g>
</g>
<g>
</g>
<g>
</g>
<g>
</g>
<g>
</g>
<g>
</g>
<g>
</g>
<g>
</g>
<g>
</g>
<g>
</g>
<g>
</g>
<g>
</g>
<g>
</g>
<g>
</g>
<g>
</g>
</svg>
