<?xml version="1.0" encoding="iso-8859-1"?>
<!-- Generator: Adobe Illustrator 19.0.0, SVG Export Plug-In . SVG Version: 6.00 Build 0)  -->
<svg version="1.1" id="Layer_1" xmlns="http://www.w3.org/2000/svg" xmlns:xlink="http://www.w3.org/1999/xlink" x="0px" y="0px"
	 viewBox="0 0 512 512" style="enable-background:new 0 0 512 512;" xml:space="preserve">
<g>
	<g>
		<path d="M320.363,170.777c9.845-7.22,16.343-17.811,18.302-29.878l7.409-45.658l-45.656-7.409
			c-1.24-0.201-2.474-0.336-3.705-0.435c3.616-6.675,5.541-14.182,5.541-21.987c0-12.355-4.812-23.97-13.547-32.707L256,0
			l-32.707,32.705v0.001c-14.784,14.784-17.439,37.165-7.983,54.69c-1.238,0.099-2.482,0.234-3.729,0.437l-45.656,7.41l7.41,45.656
			v0.001c2.023,12.459,8.879,22.944,18.335,29.871l-27.178,4.412l7.41,45.656v-0.001c1.98,12.196,8.59,22.891,18.612,30.114
			c7.962,5.738,17.318,8.74,26.944,8.74c2.492,0,5.003-0.201,7.51-0.608c4.405-0.714,8.609-2.043,12.53-3.909v41.595h37.003v-41.595
			c3.92,1.867,8.125,3.195,12.529,3.909c2.509,0.407,5.019,0.608,7.512,0.608c9.624,0,18.982-3.003,26.944-8.74
			c10.023-7.223,16.633-17.918,18.612-30.113l7.41-45.656L320.363,170.777z"/>
	</g>
</g>
<g>
	<g>
		<path d="M391.676,333.154h-53.875c16.889,19.197,27.15,44.362,27.15,71.88h-37.003c0-38.766-30.821-70.451-69.244-71.88h-33.967
			c16.889,19.197,27.15,44.362,27.15,71.88h-37.003c0-38.766-30.821-70.451-69.243-71.88h-25.318
			c-49.308,0-89.423,40.115-89.423,89.423c0,49.308,40.115,89.423,89.423,89.423h271.352c49.308,0,89.423-40.115,89.423-89.423
			C481.099,373.269,440.985,333.154,391.676,333.154z"/>
	</g>
</g>
<g>
	<g>
		<rect x="404.007" y="142.596" width="61.671" height="37.003"/>
	</g>
</g>
<g>
	<g>
		
			<rect x="401.883" y="214.528" transform="matrix(0.3333 -0.9428 0.9428 0.3333 48.9348 559.9272)" width="37.001" height="61.669"/>
	</g>
</g>
<g>
	<g>
		<rect x="46.319" y="142.596" width="61.671" height="37.003"/>
	</g>
</g>
<g>
	<g>
		<rect x="60.786" y="226.872" transform="matrix(0.9428 -0.3333 0.3333 0.9428 -76.5453 44.5687)" width="61.67" height="37.002"/>
	</g>
</g>
<g>
</g>
<g>
</g>
<g>
</g>
<g>
</g>
<g>
</g>
<g>
</g>
<g>
</g>
<g>
</g>
<g>
</g>
<g>
</g>
<g>
</g>
<g>
</g>
<g>
</g>
<g>
</g>
<g>
</g>
</svg>
