<?xml version="1.0" encoding="iso-8859-1"?>
<!-- Generator: Adobe Illustrator 19.0.0, SVG Export Plug-In . SVG Version: 6.00 Build 0)  -->
<svg version="1.1" id="Layer_1" xmlns="http://www.w3.org/2000/svg" xmlns:xlink="http://www.w3.org/1999/xlink" x="0px" y="0px"
	 viewBox="0 0 511.997 511.997" style="enable-background:new 0 0 511.997 511.997;" xml:space="preserve">
<g>
	<g>
		<path d="M493.981,329.429c-35.698-41.745-75.076-64.138-117.036-66.558c-5.648-0.328-11.123-0.263-16.415,0.102
			c7.698-11.961,14.794-24.297,21.255-36.988c14.677-6.564,52.038-26.806,71.344-69.458c17.273-38.163,15.616-83.291-4.923-134.135
			L439.155,0l-20.743,12.375c-47.09,28.094-75.681,63.048-84.984,103.893c-8.981,39.438,2.883,73.677,11.261,91.362
			c-7.111,13.922-15.066,27.366-23.818,40.3c-1.175-10.084-3.546-20.681-7.68-31.474c-15.028-39.231-48.377-69.921-99.122-91.219
			l-22.352-9.382l-5.759,23.546c-12.989,53.106-8.166,97.953,14.337,133.292c15.897,24.969,37.639,40.091,55.425,48.987
			c-14.668,12.824-30.327,24.568-46.92,35.13c-5.427,3.455-10.943,6.751-16.523,9.92c1.264-17.492-0.312-38.495-8.988-60.138
			c-15.634-38.995-49.454-69.169-100.519-89.683l-22.498-9.038l-5.393,23.637c-12.163,53.302-6.644,98.07,16.402,133.059
			c10.91,16.565,24.38,28.67,37.472,37.452c-34.579,10.069-70.49,15.357-106.545,15.561v41.382
			c50.896-0.266,101.536-9.667,149.184-27.544c8.719,18.487,25.209,43.995,54.518,61.403c21.513,12.778,46.218,19.175,73.864,19.175
			c18.786,0,38.936-2.958,60.349-8.875l23.444-6.479l-10.151-22.104c-22.884-49.826-54.599-82.087-94.269-95.887
			c-2.039-0.711-4.066-1.341-6.086-1.931c13.111-9.533,25.614-19.788,37.505-30.698c13.732,14.947,35.766,33.089,66.701,41.279
			c11.067,2.93,22.408,4.393,34.005,4.393c30.938,0,63.677-10.412,97.735-31.137l20.777-12.643L493.981,329.429z"/>
	</g>
</g>
<g>
</g>
<g>
</g>
<g>
</g>
<g>
</g>
<g>
</g>
<g>
</g>
<g>
</g>
<g>
</g>
<g>
</g>
<g>
</g>
<g>
</g>
<g>
</g>
<g>
</g>
<g>
</g>
<g>
</g>
</svg>
