<?xml version="1.0" encoding="iso-8859-1"?>
<!-- Generator: Adobe Illustrator 19.0.0, SVG Export Plug-In . SVG Version: 6.00 Build 0)  -->
<svg version="1.1" id="Layer_1" xmlns="http://www.w3.org/2000/svg" xmlns:xlink="http://www.w3.org/1999/xlink" x="0px" y="0px"
	 viewBox="0 0 512 512" style="enable-background:new 0 0 512 512;" xml:space="preserve">
<g>
	<g>
		<path d="M405.373,87.872C365.954,31.207,312.906,0,256,0S146.046,31.207,106.626,87.872
			c-38.045,54.691-58.998,127.086-58.998,203.849C47.628,413.183,141.102,512,256,512c114.896,0,208.372-98.817,208.372-220.279
			C464.372,214.958,443.419,142.563,405.373,87.872z M256,136.93c25.318,0,45.842,20.524,45.842,45.842
			c0,12.543-11.251,36.764-22.604,58.018c-6.248-5.359-14.361-8.604-23.238-8.604s-16.99,3.245-23.238,8.604
			c-11.354-21.254-22.604-45.475-22.604-58.018C210.158,157.454,230.682,136.93,256,136.93z M125.023,267.907
			c0-25.318,20.524-45.842,45.842-45.842c12.543,0,36.764,11.251,58.018,22.604c-5.359,6.248-8.604,14.361-8.604,23.238
			s3.245,16.99,8.604,23.238c-21.254,11.354-45.475,22.604-58.018,22.604C145.547,313.749,125.023,293.225,125.023,267.907z
			 M256,398.884c-25.318,0-45.842-20.524-45.842-45.842c0-12.543,11.251-36.764,22.604-58.018
			c6.248,5.358,14.361,8.604,23.238,8.604s16.99-3.245,23.238-8.604c11.353,21.253,22.604,45.475,22.604,58.018
			C301.842,378.36,281.318,398.884,256,398.884z M341.135,313.749c-12.542,0-36.764-11.251-58.018-22.604
			c5.359-6.248,8.604-14.361,8.604-23.238s-3.245-16.99-8.604-23.238c21.254-11.354,45.475-22.604,58.018-22.604
			c25.318,0,45.842,20.524,45.842,45.842S366.453,313.749,341.135,313.749z"/>
	</g>
</g>
<g>
</g>
<g>
</g>
<g>
</g>
<g>
</g>
<g>
</g>
<g>
</g>
<g>
</g>
<g>
</g>
<g>
</g>
<g>
</g>
<g>
</g>
<g>
</g>
<g>
</g>
<g>
</g>
<g>
</g>
</svg>
