<?xml version="1.0" encoding="iso-8859-1"?>
<!-- Generator: Adobe Illustrator 19.0.0, SVG Export Plug-In . SVG Version: 6.00 Build 0)  -->
<svg version="1.1" id="Layer_1" xmlns="http://www.w3.org/2000/svg" xmlns:xlink="http://www.w3.org/1999/xlink" x="0px" y="0px"
	 viewBox="0 0 512 512" style="enable-background:new 0 0 512 512;" xml:space="preserve">
<g>
	<g>
		<polygon points="404.151,381.429 378.637,356.526 445.273,354.128 444.074,320.762 345.628,324.305 279.887,260.135 
			410.634,132.512 466.682,187.217 512,9.973 330.401,54.203 386.734,109.186 255.988,236.807 125.255,109.198 181.6,54.203 
			0,9.973 45.319,187.217 101.355,132.524 232.09,260.135 166.35,324.304 67.926,320.762 66.727,354.128 133.34,356.525 
			107.827,381.428 9.399,377.887 8.2,411.251 98.266,414.492 101.572,502.027 134.934,500.768 131.324,405.147 157.628,379.472 
			160.099,444.905 193.462,443.644 189.85,348.02 255.988,283.462 322.149,348.042 318.539,443.644 351.901,444.905 
			354.372,379.495 380.676,405.17 377.066,500.768 410.429,502.027 413.735,414.492 503.8,411.251 502.601,377.887 		"/>
	</g>
</g>
<g>
</g>
<g>
</g>
<g>
</g>
<g>
</g>
<g>
</g>
<g>
</g>
<g>
</g>
<g>
</g>
<g>
</g>
<g>
</g>
<g>
</g>
<g>
</g>
<g>
</g>
<g>
</g>
<g>
</g>
</svg>
