<?xml version="1.0" encoding="iso-8859-1"?>
<!-- Generator: Adobe Illustrator 19.0.0, SVG Export Plug-In . SVG Version: 6.00 Build 0)  -->
<svg version="1.1" id="Layer_1" xmlns="http://www.w3.org/2000/svg" xmlns:xlink="http://www.w3.org/1999/xlink" x="0px" y="0px"
	 viewBox="0 0 512 512" style="enable-background:new 0 0 512 512;" xml:space="preserve">
<g>
	<g>
		<path d="M414.193,307.455c2.803-12.844,2.147-25.97-1.784-38.215c4.189-13.047,4.662-27.092,1.191-40.733l44.026-11.007
			c-8.991-48.473-26.786-93.02-52.253-129.628C365.954,31.207,312.906,0,256,0S146.046,31.207,106.627,87.872
			C81.16,124.48,63.365,169.027,54.374,217.5L98.4,228.507c-3.471,13.641-2.998,27.685,1.19,40.733
			c-3.93,12.246-4.585,25.371-1.782,38.215l-48.519,12.13C62.284,427.94,150.03,512,256,512s193.716-84.06,206.711-192.416
			L414.193,307.455z M180.686,328.63c-3.511,1.001-7.047,1.478-10.527,1.478c-16.694,0-32.051-10.991-36.853-27.843
			c-3.355-11.775-0.816-23.826,5.851-33.025c-6.668-9.199-9.206-21.25-5.851-33.024c4.802-16.853,20.16-27.843,36.853-27.843
			c3.479,0,7.017,0.477,10.527,1.478c11.337,3.23,31.28,21.267,46.735,36.626c-4.484,5.97-7.142,13.391-7.142,21.431
			c0,8.724,3.132,16.714,8.325,22.917C212.998,306.425,192.314,325.316,180.686,328.63z M378.694,302.263
			c-4.801,16.852-20.161,27.843-36.854,27.843c-3.479,0-7.014-0.476-10.526-1.478c-11.631-3.314-32.311-22.205-47.918-37.806
			c5.194-6.203,8.325-14.193,8.325-22.916c0-8.041-2.658-15.46-7.142-21.431c15.455-15.359,35.398-33.396,46.735-36.626
			c3.51-1,7.048-1.478,10.526-1.478c16.695,0,32.052,10.99,36.854,27.843c3.354,11.774,0.816,23.826-5.851,33.024
			C379.511,278.439,382.048,290.49,378.694,302.263z"/>
	</g>
</g>
<g>
</g>
<g>
</g>
<g>
</g>
<g>
</g>
<g>
</g>
<g>
</g>
<g>
</g>
<g>
</g>
<g>
</g>
<g>
</g>
<g>
</g>
<g>
</g>
<g>
</g>
<g>
</g>
<g>
</g>
</svg>
