<?xml version="1.0" encoding="iso-8859-1"?>
<!-- Generator: Adobe Illustrator 19.0.0, SVG Export Plug-In . SVG Version: 6.00 Build 0)  -->
<svg version="1.1" id="Layer_1" xmlns="http://www.w3.org/2000/svg" xmlns:xlink="http://www.w3.org/1999/xlink" x="0px" y="0px"
	 viewBox="0 0 512 512" style="enable-background:new 0 0 512 512;" xml:space="preserve">
<g>
	<g>
		<g>
			<path d="M95.304,204.544c6.55,43.137,43.796,76.193,88.763,76.193c26.199,0,49.774-11.224,66.187-29.122
				c16.413,17.899,39.988,29.122,66.187,29.122c44.967,0,82.212-33.056,88.763-76.193c0.341,0.006,0.681,0.013,1.023,0.013
				c35.45,0,64.188-28.738,64.188-64.188s-28.738-64.188-64.188-64.188c-0.342,0-0.682,0.008-1.023,0.012
				C398.654,33.056,361.409,0,316.442,0c-26.199,0-49.774,11.224-66.187,29.123C233.841,11.224,210.266,0,184.067,0
				C139.1,0,101.855,33.056,95.304,76.193c-0.341-0.006-0.681-0.012-1.023-0.012c-35.45,0-64.188,28.738-64.188,64.188
				s28.738,64.188,64.188,64.188C94.623,204.557,94.963,204.55,95.304,204.544z"/>
			<path d="M452.466,226.317c-6.521,3.523-13.479,6.342-20.783,8.316c-3.358,8.849-7.741,17.276-13.03,25.126h29.812v111.715
				h-35.413V267.442c-4.747,5.995-10.069,11.572-15.917,16.642c-22.383,19.407-51.042,30.094-80.695,30.094
				c-23.597,0-46.571-6.84-66.187-19.315c-19.617,12.475-42.592,19.315-66.187,19.315c-29.653,0-58.31-10.689-80.695-30.094
				c-5.848-5.07-11.169-10.648-15.917-16.642V512h325.596V404.916h68.855V226.317H452.466z"/>
		</g>
	</g>
</g>
<g>
</g>
<g>
</g>
<g>
</g>
<g>
</g>
<g>
</g>
<g>
</g>
<g>
</g>
<g>
</g>
<g>
</g>
<g>
</g>
<g>
</g>
<g>
</g>
<g>
</g>
<g>
</g>
<g>
</g>
</svg>
