<?xml version="1.0" encoding="iso-8859-1"?>
<!-- Generator: Adobe Illustrator 19.0.0, SVG Export Plug-In . SVG Version: 6.00 Build 0)  -->
<svg version="1.1" id="Layer_1" xmlns="http://www.w3.org/2000/svg" xmlns:xlink="http://www.w3.org/1999/xlink" x="0px" y="0px"
	 viewBox="0 0 512 512" style="enable-background:new 0 0 512 512;" xml:space="preserve">
<g>
	<g>
		<g>
			<path d="M406.107,132.615h16.816l2.129-46.706c0,0-74.922,0-74.922,0C357.039,111.076,379.125,130.356,406.107,132.615z"/>
			<path d="M404.212,165.96c-24.362-1.812-46.98-12.679-63.688-30.599c-12.95-13.887-21.39-31.036-24.589-49.453H196.065
				c-3.199,18.415-11.639,35.564-24.588,49.453c-16.708,17.92-39.325,28.786-63.686,30.599l-0.619,0.046H90.598l11.459,251.385
				h133.567V213.598h40.75v203.794h133.569l11.458-251.385h-16.57L404.212,165.96z"/>
			<path d="M161.87,85.909H86.949l2.129,46.706h16.818C132.876,130.355,154.962,111.075,161.87,85.909z"/>
			<polygon points="276.375,512 405.631,512 408.42,450.783 276.375,450.783 			"/>
			<polygon points="106.369,512 235.625,512 235.625,450.783 103.58,450.783 			"/>
			<polygon points="83.034,0 85.427,52.518 426.573,52.518 428.966,0 			"/>
		</g>
	</g>
</g>
<g>
</g>
<g>
</g>
<g>
</g>
<g>
</g>
<g>
</g>
<g>
</g>
<g>
</g>
<g>
</g>
<g>
</g>
<g>
</g>
<g>
</g>
<g>
</g>
<g>
</g>
<g>
</g>
<g>
</g>
</svg>
