<?xml version="1.0" encoding="iso-8859-1"?>
<!-- Generator: Adobe Illustrator 19.0.0, SVG Export Plug-In . SVG Version: 6.00 Build 0)  -->
<svg version="1.1" id="Layer_1" xmlns="http://www.w3.org/2000/svg" xmlns:xlink="http://www.w3.org/1999/xlink" x="0px" y="0px"
	 viewBox="0 0 512.001 512.001" style="enable-background:new 0 0 512.001 512.001;" xml:space="preserve">
<g>
	<g>
		<path d="M307.9,251.397c-13.516-19.432-31.948-30.132-51.899-30.132c-19.951,0-38.383,10.701-51.901,30.132
			c-12.525,18.005-19.422,41.713-19.422,66.756c0,4.334,0.371,8.576,1.046,12.709h140.554c0.675-4.133,1.046-8.375,1.046-12.709
			C327.324,293.11,320.426,269.402,307.9,251.397z"/>
	</g>
</g>
<g>
	<g>
		<path d="M390.295,105.103c1.742-10.3,0.443-20.758-3.727-30.234c4.958-11.268,5.877-23.926,2.422-36.053
			c-3.911-13.727-12.935-25.109-25.407-32.049c-12.47-6.94-26.897-8.609-40.628-4.697c-6.956,1.982-19.393,7.71-46.989,34.435
			c-2.441,2.364-4.8,4.699-7.043,6.951c-3.985-1.64-8.346-2.551-12.922-2.551c-4.576,0-8.938,0.91-12.923,2.552
			c-2.242-2.253-4.601-4.589-7.042-6.952C208.438,9.778,196.001,4.052,189.047,2.071c-13.726-3.913-28.155-2.244-40.628,4.696
			c-12.472,6.941-21.495,18.323-25.407,32.05c-3.456,12.128-2.536,24.786,2.422,36.053c-4.168,9.476-5.47,19.934-3.727,30.234
			c-33.88,35.08-52.504,80.94-52.504,129.529V441.81c0,38.703,31.487,70.191,70.191,70.191h233.215
			c38.645,0,70.091-31.392,70.186-70.015h0.005v-0.175V234.634C442.799,186.044,424.174,140.184,390.295,105.103z M408.836,429.361
			c-15.093,9.429-32.729,14.713-50.945,14.713c-18.073,0-35.744-5.119-50.945-14.604c-15.201,9.485-32.872,14.604-50.945,14.604
			s-35.744-5.119-50.945-14.604c-15.201,9.485-32.872,14.604-50.945,14.604c-18.216,0-35.851-5.284-50.945-14.713v-45.753
			c11.67,16.675,30.402,26.503,50.945,26.503c14.62,0,28.831-5.178,40.02-14.579l10.925-9.181l10.925,9.181
			c11.188,9.402,25.4,14.579,40.02,14.579c14.619,0,28.833-5.178,40.02-14.579l10.925-9.181l10.925,9.181
			c11.188,9.402,25.401,14.579,40.02,14.579c20.543,0,39.275-9.829,50.945-26.504V429.361z M408.837,252.354h-0.001
			c-16.713-18.824-37.63-29.042-60.002-29.042c-6.081,0-12.052,0.764-17.864,2.24c1.653,2.075,3.26,4.221,4.81,6.449
			c16.448,23.643,25.506,54.239,25.506,86.151c0,4.299-0.25,8.538-0.721,12.709h47.704v33.963H103.732v-33.963h47.703
			c-0.471-4.171-0.72-8.41-0.72-12.709c0-31.912,9.058-62.507,25.505-86.151c1.551-2.229,3.159-4.373,4.81-6.449
			c-5.811-1.476-11.782-2.24-17.862-2.24c-22.372,0-43.289,10.218-60.002,29.041v-17.721c0-36.238,12.693-70.635,35.977-98.196
			c2.825,2.469,5.92,4.669,9.277,6.536c8.058,4.483,16.931,6.768,25.905,6.767c4.917,0,9.864-0.685,14.723-2.071
			c6.955-1.981,19.392-7.707,46.989-34.435c2.441-2.364,4.8-4.699,7.042-6.951c3.984,1.64,8.347,2.552,12.923,2.552
			s8.938-0.911,12.922-2.552c2.242,2.252,4.601,4.587,7.043,6.951c27.597,26.728,40.035,32.454,46.989,34.435
			c4.859,1.385,9.806,2.071,14.724,2.071c8.973,0,17.847-2.283,25.904-6.767c3.356-1.867,6.452-4.067,9.275-6.536
			c23.284,27.56,35.977,61.958,35.977,98.196V252.354z"/>
	</g>
</g>
<g>
</g>
<g>
</g>
<g>
</g>
<g>
</g>
<g>
</g>
<g>
</g>
<g>
</g>
<g>
</g>
<g>
</g>
<g>
</g>
<g>
</g>
<g>
</g>
<g>
</g>
<g>
</g>
<g>
</g>
</svg>
