<?xml version="1.0" encoding="iso-8859-1"?>
<!-- Generator: Adobe Illustrator 19.0.0, SVG Export Plug-In . SVG Version: 6.00 Build 0)  -->
<svg version="1.1" id="Layer_1" xmlns="http://www.w3.org/2000/svg" xmlns:xlink="http://www.w3.org/1999/xlink" x="0px" y="0px"
	 viewBox="0 0 511.999 511.999" style="enable-background:new 0 0 511.999 511.999;" xml:space="preserve">
<g>
	<g>
		<path d="M256,55.83l-30.806,46.207c10.695-5.794,22.846-8.442,35.405-7.573c9.464,0.66,18.371,3.386,26.294,7.706L256,55.83z"/>
	</g>
</g>
<g>
	<g>
		<path d="M232.392,353.563c-15.083-3.939-28.691-11.523-39.867-21.98l-49.036,75.777l7.33,9.757
			c21.548,28.686,52.855,46.857,87.693,51.43v-113.6C236.467,354.553,234.426,354.095,232.392,353.563z"/>
	</g>
</g>
<g>
	<g>
		<path d="M319.509,331.636c-4.774,4.419-10.034,8.385-15.758,11.799c-9.501,5.666-19.725,9.526-30.264,11.545v113.566
			c34.838-4.574,66.144-22.744,87.693-51.43l7.33-9.757L319.509,331.636z"/>
	</g>
</g>
<g>
	<g>
		<path d="M501.578,168.701l-154.761,73.308c3.316,14.096,3.316,28.943-0.239,43.477c-4.367,17.856-13.667,33.625-26.773,45.867
			c46.55-16.684,104.365-37.413,105.275-37.739C477.497,274.951,508.614,222.28,501.578,168.701z"/>
	</g>
</g>
<g>
	<g>
		<path d="M176.496,311.911c-12.691-20.762-16.801-45.175-11.575-68.739c0.085-0.388,0.197-0.764,0.288-1.149L10.421,168.701
			C3.384,222.28,34.5,274.95,86.885,293.603l105.431,37.781C186.274,325.696,180.938,319.179,176.496,311.911z"/>
	</g>
</g>
<g>
	<g>
		<path d="M505.289,67.058c-0.706-1.99-1.526-4.079-2.502-6.386L495.5,43.452l-179.707,90.667c2.72,6.466,4.429,13.451,4.901,20.763
			c0.275,4.254,0.138,8.537-0.411,12.728c-1.904,14.565,1.467,28.306,9.489,38.693c0.956,1.239,1.872,2.5,2.761,3.773l177.736-84.19
			C513.672,106.359,512.078,86.12,505.289,67.058z"/>
	</g>
</g>
<g>
	<g>
		<path d="M191.133,159.152c0-8.662,1.772-17.169,5.067-25.035L16.499,43.453L9.211,60.672c-0.977,2.307-1.795,4.396-2.501,6.378
			c-6.789,19.065-8.383,39.307-4.979,58.837l177.689,84.168c0.928-1.331,1.888-2.646,2.89-3.936
			c8.225-10.571,11.755-23.827,9.688-36.37C191.425,166.273,191.133,162.705,191.133,159.152z"/>
	</g>
</g>
<g>
	<g>
		<path d="M302.092,227.683c-13.751-17.803-19.606-40.747-16.488-64.605c0.254-1.945,0.317-3.943,0.188-5.939
			c-0.956-14.808-12.835-26.752-27.627-27.784c-0.73-0.051-1.458-0.076-2.18-0.076c-7.615,0-14.779,2.805-20.372,8.021
			c-6.13,5.716-9.505,13.478-9.505,21.852c0,1.65,0.134,3.299,0.4,4.903c3.648,22.139-2.399,45.297-16.591,63.539
			c-5.305,6.821-8.956,14.61-10.851,23.152c-6.7,30.212,12.214,61.156,42.163,68.976c15.245,3.981,31.088,1.736,44.608-6.327
			c13.522-8.064,23.03-20.927,26.77-36.218C316.842,259.858,313.01,241.817,302.092,227.683z"/>
	</g>
</g>
<g>
</g>
<g>
</g>
<g>
</g>
<g>
</g>
<g>
</g>
<g>
</g>
<g>
</g>
<g>
</g>
<g>
</g>
<g>
</g>
<g>
</g>
<g>
</g>
<g>
</g>
<g>
</g>
<g>
</g>
</svg>
