<?xml version="1.0" encoding="iso-8859-1"?>
<!-- Generator: Adobe Illustrator 19.0.0, SVG Export Plug-In . SVG Version: 6.00 Build 0)  -->
<svg version="1.1" id="Layer_1" xmlns="http://www.w3.org/2000/svg" xmlns:xlink="http://www.w3.org/1999/xlink" x="0px" y="0px"
	 viewBox="0 0 512 512" style="enable-background:new 0 0 512 512;" xml:space="preserve">
<g>
	<g>
		<path d="M419.325,60.718l-39.717-0.135l11.215-41.852l-42.747,11.454C322.231,11.219,290.367,0,255.924,0
			C169.852,0,99.827,70.025,99.827,156.098c0,27.996,7.415,54.292,20.374,77.035l23.47-10.058l111.785,49.682l99.302-49.652
			l35.063,13.148c14.088-23.443,22.202-50.869,22.202-80.157c0-22.583-4.827-44.057-13.494-63.456L419.325,60.718z M287.144,143.61
			c-10.345,0-18.732-8.387-18.732-18.732s8.387-18.732,18.732-18.732c10.345,0,18.732,8.387,18.732,18.732
			S297.49,143.61,287.144,143.61z"/>
	</g>
</g>
<g>
	<g>
		<path d="M443.255,377.132c-9.568,0-13.371,2.737-20.274,7.709c-8.658,6.233-20.514,14.769-42.165,14.769
			c-21.651,0-33.507-8.537-42.164-14.769c-6.903-4.97-10.706-7.709-20.273-7.709c-9.569,0-13.373,2.737-20.278,7.709
			c-8.658,6.233-20.514,14.769-42.166,14.769s-33.51-8.537-42.168-14.769c-6.905-4.97-10.708-7.709-20.278-7.709
			c-9.571,0-13.373,2.737-20.278,7.71c-8.658,6.231-20.515,14.768-42.168,14.768c-21.653,0-33.51-8.537-42.168-14.768
			c-6.903-4.973-10.707-7.71-20.276-7.71c-4.529,0-7.762,0.621-10.65,1.796C92.941,457.795,168.799,512,255.924,512
			c55.107,0,107.737-21.743,148.197-61.223c21.068-20.559,37.882-44.986,49.783-71.85
			C451.016,377.754,447.785,377.132,443.255,377.132z"/>
	</g>
</g>
<g>
	<g>
		<path d="M356.897,263.92l-100.503,50.251L143.398,263.95L38.964,308.707c1.35,11.935,3.547,23.581,6.544,34.868
			c6.228-2.313,13.744-3.907,23.094-3.907c21.653,0,33.51,8.537,42.168,14.768c6.905,4.971,10.708,7.71,20.278,7.71
			s13.373-2.737,20.278-7.71c8.658-6.231,20.515-14.768,42.168-14.768c21.653,0,33.509,8.537,42.166,14.768
			c6.905,4.971,10.708,7.71,20.278,7.71s13.373-2.737,20.279-7.71c8.658-6.231,20.514-14.768,42.166-14.768
			c21.651,0,33.507,8.537,42.164,14.769c6.903,4.97,10.706,7.709,20.273,7.709c9.568,0,13.371-2.737,20.274-7.709
			c8.656-6.233,20.512-14.769,42.164-14.769c9.345,0,16.857,1.595,23.082,3.905c3.123-11.76,5.371-23.827,6.698-36.102
			L356.897,263.92z"/>
	</g>
</g>
<g>
</g>
<g>
</g>
<g>
</g>
<g>
</g>
<g>
</g>
<g>
</g>
<g>
</g>
<g>
</g>
<g>
</g>
<g>
</g>
<g>
</g>
<g>
</g>
<g>
</g>
<g>
</g>
<g>
</g>
</svg>
