<?xml version="1.0" encoding="iso-8859-1"?>
<!-- Generator: Adobe Illustrator 19.0.0, SVG Export Plug-In . SVG Version: 6.00 Build 0)  -->
<svg version="1.1" id="Layer_1" xmlns="http://www.w3.org/2000/svg" xmlns:xlink="http://www.w3.org/1999/xlink" x="0px" y="0px"
	 viewBox="0 0 512 512" style="enable-background:new 0 0 512 512;" xml:space="preserve">
<g>
	<g>
		<path d="M363.904,63.174C335.565,22.436,297.245,0,256.001,0s-79.564,22.436-107.903,63.174
			c-26.958,38.752-41.804,89.952-41.804,144.171c0,1.755,0.037,3.5,0.091,5.24h299.233c0.054-1.74,0.091-3.485,0.091-5.24
			C405.709,153.126,390.863,101.926,363.904,63.174z M202.106,120.764c-9.921,0-17.965-8.042-17.965-17.965
			c0-9.921,8.044-17.965,17.965-17.965c9.921,0,17.965,8.043,17.965,17.965C220.071,112.721,212.028,120.764,202.106,120.764z
			 M256.001,182.643l-29.942-19.961c0-16.536,13.404-29.942,29.942-29.942c16.536,0,29.942,13.405,29.942,29.942L256.001,182.643z
			 M309.896,120.764c-9.921,0-17.965-8.042-17.965-17.965c0-9.921,8.044-17.965,17.965-17.965c9.921,0,17.965,8.043,17.965,17.965
			C327.861,112.721,319.817,120.764,309.896,120.764z"/>
	</g>
</g>
<g>
	<g>
		<path d="M94.353,248.515c0.225,13.819,2.01,27.243,5.185,40.082c7.321,2.884,12.747,6.769,17.251,10.012
			c6.621,4.767,10.268,7.393,19.443,7.393c9.175,0,12.822-2.625,19.443-7.393c8.302-5.978,19.673-14.165,40.438-14.165
			c20.766,0,32.137,8.186,40.44,14.165c6.622,4.767,10.27,7.393,19.449,7.393c9.178,0,12.826-2.626,19.448-7.393
			c8.303-5.978,19.674-14.165,40.441-14.165c20.765,0,32.134,8.187,40.437,14.165c6.621,4.767,10.268,7.393,19.442,7.393
			s12.821-2.625,19.442-7.393c4.506-3.243,9.93-7.13,17.252-10.014c3.174-12.839,4.959-26.263,5.185-40.081H94.353z"/>
	</g>
</g>
<g>
	<g>
		<path d="M390.327,340.408c-4.282,0.947-9.087,1.526-14.558,1.526c-20.765-0.001-32.134-8.188-40.437-14.166
			c-6.621-4.767-10.268-7.393-19.442-7.393c-9.179,0-12.827,2.626-19.449,7.393c-8.303,5.977-19.674,14.165-40.44,14.165
			c-20.767,0-32.138-8.186-40.441-14.165c-6.622-4.767-10.27-7.393-19.448-7.393c-9.175,0-12.822,2.625-19.443,7.393
			c-8.302,5.977-19.673,14.165-40.438,14.165c-5.471,0-10.275-0.578-14.558-1.525c13.535,21.279,31.484,39.173,52.45,52.224
			L150.251,512h211.5l-23.874-119.368C358.843,379.581,376.793,361.686,390.327,340.408z"/>
	</g>
</g>
<g>
</g>
<g>
</g>
<g>
</g>
<g>
</g>
<g>
</g>
<g>
</g>
<g>
</g>
<g>
</g>
<g>
</g>
<g>
</g>
<g>
</g>
<g>
</g>
<g>
</g>
<g>
</g>
<g>
</g>
</svg>
