<?xml version="1.0" encoding="iso-8859-1"?>
<!-- Generator: Adobe Illustrator 19.0.0, SVG Export Plug-In . SVG Version: 6.00 Build 0)  -->
<svg version="1.1" id="Layer_1" xmlns="http://www.w3.org/2000/svg" xmlns:xlink="http://www.w3.org/1999/xlink" x="0px" y="0px"
	 viewBox="0 0 512 512" style="enable-background:new 0 0 512 512;" xml:space="preserve">
<g>
	<g>
		<path d="M358.225,226.497c-22.122-31.8-50.692-51.804-81.955-57.846c4.682-7.766,11.947-20.131,19.288-33.834
			c23.241-43.388,25.93-60.347,25.93-69.328C321.488,29.378,292.11,0,256,0s-65.488,29.378-65.488,65.488
			c0,8.981,2.689,25.941,25.93,69.328c7.339,13.703,14.607,26.068,19.288,33.834c-31.263,6.043-59.833,26.047-81.955,57.846
			c-13.271,19.076-23.425,41.347-30.112,65.543c3.647,2.118,7.268,3.253,13.266,3.253c9.122,0,12.748-2.61,19.33-7.35
			c8.254-5.943,19.558-14.082,40.203-14.082c20.647,0,31.951,8.138,40.206,14.082c6.583,4.739,10.21,7.35,19.335,7.35
			s12.751-2.611,19.335-7.35c8.255-5.943,19.56-14.082,40.206-14.082c20.644,0,31.948,8.14,40.202,14.082
			c6.582,4.739,10.208,7.35,19.329,7.35c5.994,0,9.615-1.135,13.263-3.253C381.65,267.845,371.495,245.573,358.225,226.497z
			 M256,132.791c-18.708-32.874-29.767-59.148-29.767-67.303c0-16.414,13.354-29.767,29.767-29.767s29.767,13.354,29.767,29.767
			C285.767,73.643,274.708,99.917,256,132.791z"/>
	</g>
</g>
<g>
	<g>
		<path d="M121.504,409.6C140.234,469.024,193.444,512,256,512s115.766-42.976,134.496-102.4H121.504z"/>
	</g>
</g>
<g>
	<g>
		<path d="M395.493,327.846c-5.618,1.896-12.286,3.168-20.419,3.168c-20.644,0-31.948-8.14-40.201-14.082
			c-6.582-4.739-10.208-7.35-19.329-7.35c-9.125,0-12.752,2.611-19.336,7.35c-8.255,5.944-19.56,14.082-40.205,14.082
			s-31.95-8.138-40.205-14.082c-6.583-4.739-10.21-7.35-19.336-7.35c-9.122,0-12.748,2.61-19.33,7.35
			c-8.254,5.943-19.558,14.082-40.203,14.082c-8.135,0-14.804-1.274-20.422-3.17c-1.45,11.354-2.2,22.963-2.2,34.723
			c0,3.805,0.137,7.576,0.404,11.312h282.578c0.268-3.735,0.405-7.506,0.405-11.312
			C397.693,350.807,396.943,339.199,395.493,327.846z"/>
	</g>
</g>
<g>
</g>
<g>
</g>
<g>
</g>
<g>
</g>
<g>
</g>
<g>
</g>
<g>
</g>
<g>
</g>
<g>
</g>
<g>
</g>
<g>
</g>
<g>
</g>
<g>
</g>
<g>
</g>
<g>
</g>
</svg>
