<?xml version="1.0" encoding="iso-8859-1"?>
<!-- Generator: Adobe Illustrator 19.0.0, SVG Export Plug-In . SVG Version: 6.00 Build 0)  -->
<svg version="1.1" id="Layer_1" xmlns="http://www.w3.org/2000/svg" xmlns:xlink="http://www.w3.org/1999/xlink" x="0px" y="0px"
	 viewBox="0 0 512 512" style="enable-background:new 0 0 512 512;" xml:space="preserve">
<g>
	<g>
		<path d="M329.253,187.083c-0.028-31.587-25.734-57.28-57.329-57.28h-40.462c13.011-10.518,21.352-26.594,21.352-44.589
			c0-30.016-47.529-75.927-52.948-81.062L195.486,0l-4.381,4.153c-5.42,5.135-52.948,51.046-52.948,81.062
			c0,17.995,8.341,34.071,21.351,44.589h-40.46c-31.611,0-57.329,25.718-57.329,57.329v19.345c6.947-0.926,14.141,0.655,20.242,4.77
			c7.956,5.363,17.257,8.199,26.895,8.199v0.148c0.015,0,0.029,0.001,0.045,0.001c9.638,0,18.94-2.836,26.9-8.202
			c9.955-6.713,22.826-6.715,32.786,0c7.96,5.365,17.261,8.202,26.899,8.202c9.222,0,18.184-2.612,25.914-7.555
			c2.61-1.669,16.211-9.671,27.718-3.368c6.209,3.399,10.067,9.903,10.067,16.973v92.705c0,22.479,18.288,40.767,40.767,40.767
			l29.68-0.022C329.631,359.099,329.258,188.412,329.253,187.083z"/>
	</g>
</g>
<g>
	<g>
		<path d="M220.965,318.354V253.99c-8.199,2.528-16.777,3.828-25.48,3.828c-15.315,0-30.163-4-43.293-11.617
			c-13.132,7.617-27.982,11.617-43.292,11.617c-12.57,0-24.703-2.649-36.058-7.872l0.05-0.107c-2.352-1.079-4.663-2.258-6.92-3.552
			l-4.255,3.109v109.726h170.608C225.12,347.213,220.965,333.26,220.965,318.354z"/>
	</g>
</g>
<g>
	<g>
		<path d="M412.063,333.642c-36.488,0-66.536,28.039-69.767,63.699h-0.595H29.868V512h350.346V403.711
			c0-17.562,14.288-31.85,31.85-31.85c17.562,0,31.85,14.288,31.85,31.85v31.85h38.22v-31.85
			C482.132,365.075,450.699,333.642,412.063,333.642z"/>
	</g>
</g>
<g>
</g>
<g>
</g>
<g>
</g>
<g>
</g>
<g>
</g>
<g>
</g>
<g>
</g>
<g>
</g>
<g>
</g>
<g>
</g>
<g>
</g>
<g>
</g>
<g>
</g>
<g>
</g>
<g>
</g>
</svg>
