<?xml version="1.0" encoding="iso-8859-1"?>
<!-- Generator: Adobe Illustrator 19.0.0, SVG Export Plug-In . SVG Version: 6.00 Build 0)  -->
<svg version="1.1" id="Layer_1" xmlns="http://www.w3.org/2000/svg" xmlns:xlink="http://www.w3.org/1999/xlink" x="0px" y="0px"
	 viewBox="0 0 512 512" style="enable-background:new 0 0 512 512;" xml:space="preserve">
<g>
	<g>
		<g>
			<path d="M326.082,101.843c-16.219,0-31.731,5.65-46.393,16.845c7.383,6.785,13.726,10.297,23.008,10.297v33.391
				c-28.193,0-43.718-16.472-57.414-31.004c-13.082-13.879-24.614-26.106-48.109-29.028c-3.585-0.323-7.328-0.5-11.254-0.5
				c-56.957,0-93.349,68.282-118.92,133.565h378.003C419.429,170.125,383.038,101.843,326.082,101.843z"/>
			<rect x="0" y="334.069" width="512" height="76.088"/>
			<path d="M464.27,288.317c-2.189-6.264-4.476-12.803-6.866-19.517H54.596c-2.391,6.714-4.677,13.253-6.866,19.517
				c-1.487,4.253-2.935,8.393-4.338,12.364h425.217C467.206,296.709,465.758,292.57,464.27,288.317z"/>
		</g>
	</g>
</g>
<g>
</g>
<g>
</g>
<g>
</g>
<g>
</g>
<g>
</g>
<g>
</g>
<g>
</g>
<g>
</g>
<g>
</g>
<g>
</g>
<g>
</g>
<g>
</g>
<g>
</g>
<g>
</g>
<g>
</g>
</svg>
