<svg id="Capa_1" enable-background="new 0 0 512 512" height="512" viewBox="0 0 512 512" width="512" xmlns="http://www.w3.org/2000/svg"><g><path d="m20.547 432.212c-12.629 11.645-20.547 28.325-20.547 46.859v32.929h127.469v-32.929c0-18.534-7.917-35.213-20.547-46.859-12.364 8.283-27.22 13.125-43.187 13.125s-30.824-4.842-43.188-13.125z"/><path d="m212.813 432.212c-12.629 11.646-20.547 28.325-20.547 46.859v32.929h127.469v-32.929c0-18.534-7.917-35.213-20.547-46.859-12.364 8.283-27.22 13.125-43.188 13.125s-30.823-4.842-43.187-13.125z"/><path d="m491.453 432.212c-12.364 8.283-27.22 13.125-43.188 13.125s-30.823-4.841-43.188-13.125c-12.629 11.646-20.547 28.325-20.547 46.859v32.929h127.47v-32.929c0-18.534-7.917-35.214-20.547-46.859z"/><circle cx="256" cy="143" r="43.021"/><path d="m376.757 158.602c.664-5.168.998-10.385.998-15.602s-.334-10.434-.998-15.602l26.518-15.311-46.867-81.176-26.531 15.319c-8.297-6.33-17.415-11.603-27.01-15.621v-30.609h-93.734v30.608c-9.595 4.019-18.712 9.291-27.01 15.621l-26.531-15.317-46.867 81.176 26.518 15.311c-.664 5.168-.998 10.385-.998 15.602s.334 10.434.998 15.602l-26.518 15.311 46.867 81.176 26.531-15.317c8.297 6.33 17.415 11.603 27.01 15.621v30.606h93.734v-30.608c9.595-4.019 18.712-9.291 27.01-15.621l26.531 15.317 46.867-81.176zm-120.757 57.419c-40.264 0-73.021-32.757-73.021-73.021s32.757-73.021 73.021-73.021 73.021 32.757 73.021 73.021-32.757 73.021-73.021 73.021z"/><circle cx="63.734" cy="367.535" r="47.801"/><circle cx="256" cy="367.535" r="47.801"/><circle cx="448.266" cy="367.535" r="47.801"/></g></svg>