<?xml version="1.0" encoding="iso-8859-1"?>
<!-- Generator: Adobe Illustrator 19.0.0, SVG Export Plug-In . SVG Version: 6.00 Build 0)  -->
<svg version="1.1" id="Layer_1" xmlns="http://www.w3.org/2000/svg" xmlns:xlink="http://www.w3.org/1999/xlink" x="0px" y="0px"
	 viewBox="0 0 512 512" style="enable-background:new 0 0 512 512;" xml:space="preserve">
<g>
	<g>
		<path d="M477.182,156.308c-23.827-34.252-56.144-53.113-90.998-53.113c-17.593,0-34.537,4.813-50.072,13.978
			c9.317,8.228,17.869,17.895,25.55,28.937c24.515,35.241,38.017,81.456,38.017,130.133c0,39.774-14.678,77.273-41.328,105.591
			c-6.015,6.39-12.501,12.151-19.404,17.268c14.593,6.251,30.539,9.705,47.239,9.705c69.374,0,125.815-59.467,125.815-132.564
			C512,231.178,499.635,188.584,477.182,156.308z M428.651,172.651c9.864,0,17.86,7.997,17.86,17.86
			c0,9.864-7.997,17.86-17.86,17.86c-9.864,0-17.86-7.997-17.86-17.86C410.791,180.648,418.787,172.651,428.651,172.651z
			 M428.651,339.349c-9.864,0-17.86-7.997-17.86-17.86c0-9.864,7.997-17.86,17.86-17.86c9.864,0,17.86,7.997,17.86,17.86
			C446.512,331.352,438.515,339.349,428.651,339.349z M464.372,273.861c-9.864,0-17.86-7.997-17.86-17.86
			c0-9.864,7.997-17.86,17.86-17.86c9.864,0,17.86,7.997,17.86,17.86C482.233,265.864,474.236,273.861,464.372,273.861z"/>
	</g>
</g>
<g>
	<g>
		<path d="M153.651,381.833c-26.651-28.318-41.329-65.817-41.329-105.591c0-48.677,13.501-94.891,38.017-130.133
			c7.681-11.041,16.233-20.71,25.55-28.937c-15.535-9.165-32.48-13.978-50.072-13.978c-34.854,0-67.172,18.863-90.998,53.113
			C12.365,188.584,0,231.178,0,276.242c0,73.097,56.441,132.564,125.817,132.564c16.7,0,32.645-3.454,47.239-9.705
			C166.152,393.984,159.667,388.223,153.651,381.833z M47.628,273.861c-9.864,0-17.86-7.997-17.86-17.86
			c0-9.864,7.997-17.86,17.86-17.86c9.864,0,17.86,7.997,17.86,17.86C65.488,265.864,57.492,273.861,47.628,273.861z
			 M83.349,339.349c-9.864,0-17.86-7.997-17.86-17.86c0-9.864,7.997-17.86,17.86-17.86c9.864,0,17.86,7.997,17.86,17.86
			C101.209,331.352,93.213,339.349,83.349,339.349z M83.349,208.372c-9.864,0-17.86-7.997-17.86-17.86
			c0-9.864,7.997-17.86,17.86-17.86c9.864,0,17.86,7.997,17.86,17.86C101.209,200.375,93.213,208.372,83.349,208.372z"/>
	</g>
</g>
<g>
	<g>
		<path d="M256,121.055c-43.224,0-80.507,36.52-97.75,89.262c8.085-5.739,19.173-12.661,38.212-12.661
			c20.646,0,31.951,8.14,40.206,14.081c6.583,4.74,10.21,7.351,19.335,7.351s12.751-2.61,19.335-7.351
			c8.255-5.942,19.561-14.081,40.206-14.081c19.036,0,30.122,6.919,38.206,12.656C336.505,157.572,299.222,121.055,256,121.055z"/>
	</g>
</g>
<g>
	<g>
		<path d="M156.774,321.488c16.521,40.849,54.727,69.457,99.226,69.457s82.705-28.608,99.226-69.457H156.774z"/>
	</g>
</g>
<g>
	<g>
		<path d="M362.822,253.732c-13.17-2.397-21.503-8.361-27.95-13.005c-6.581-4.739-10.207-7.35-19.329-7.35
			c-9.125,0-12.751,2.61-19.335,7.351c-8.255,5.942-19.561,14.081-40.206,14.081s-31.951-8.14-40.206-14.081
			c-6.583-4.74-10.21-7.351-19.335-7.351c-9.122,0-12.748,2.61-19.329,7.35c-6.449,4.643-14.783,10.61-27.955,13.006
			c-0.743,7.349-1.135,14.862-1.135,22.509c0,3.208,0.13,6.383,0.373,9.526h215.166c0.244-3.142,0.375-6.318,0.375-9.526
			C363.957,268.595,363.565,261.082,362.822,253.732z"/>
	</g>
</g>
<g>
</g>
<g>
</g>
<g>
</g>
<g>
</g>
<g>
</g>
<g>
</g>
<g>
</g>
<g>
</g>
<g>
</g>
<g>
</g>
<g>
</g>
<g>
</g>
<g>
</g>
<g>
</g>
<g>
</g>
</svg>
