<?xml version="1.0" encoding="iso-8859-1"?>
<!-- Generator: Adobe Illustrator 19.0.0, SVG Export Plug-In . SVG Version: 6.00 Build 0)  -->
<svg version="1.1" id="Layer_1" xmlns="http://www.w3.org/2000/svg" xmlns:xlink="http://www.w3.org/1999/xlink" x="0px" y="0px"
	 viewBox="0 0 512 512" style="enable-background:new 0 0 512 512;" xml:space="preserve">
<g>
	<g>
		<path d="M503.658,244.435c-3.735-5.178-92.789-126.816-207.129-126.816c-87.646,0-160.429,71.469-191.323,107.172
			C84.499,202.942,45.909,170.336,0,170.336v170.418c45.606,0,83.991-32.179,104.797-54.024
			c30.651,35.539,103.69,107.649,191.732,107.649c114.34,0,203.394-121.637,207.129-126.816L512,256L503.658,244.435z
			 M362.424,275.769c-10.917,0-19.769-8.851-19.769-19.769s8.851-19.769,19.769-19.769c10.918,0,19.769,8.851,19.769,19.769
			S373.342,275.769,362.424,275.769z"/>
	</g>
</g>
<g>
</g>
<g>
</g>
<g>
</g>
<g>
</g>
<g>
</g>
<g>
</g>
<g>
</g>
<g>
</g>
<g>
</g>
<g>
</g>
<g>
</g>
<g>
</g>
<g>
</g>
<g>
</g>
<g>
</g>
</svg>
