<?xml version="1.0" encoding="iso-8859-1"?>
<!-- Generator: Adobe Illustrator 19.0.0, SVG Export Plug-In . SVG Version: 6.00 Build 0)  -->
<svg version="1.1" id="Layer_1" xmlns="http://www.w3.org/2000/svg" xmlns:xlink="http://www.w3.org/1999/xlink" x="0px" y="0px"
	 viewBox="0 0 512.002 512.002" style="enable-background:new 0 0 512.002 512.002;" xml:space="preserve">
<g>
	<g>
		<path d="M465.519,202.079c-8.57-9.116-20.657-14.343-33.164-14.343c0-1.084-0.037-2.171-0.114-3.255
			c-1.589-22.638-19.872-40.766-42.529-42.168c-12.702-0.779-24.794,3.57-34.037,12.261c-9.115,8.569-14.342,20.655-14.342,33.161
			h-39.822v-51.2c12.506,0,24.593-5.228,33.161-14.342c8.691-9.244,13.044-21.332,12.259-34.037
			c-1.399-22.655-19.528-40.938-42.168-42.527c-1.083-0.075-2.167-0.114-3.249-0.114c-0.001,0-0.003,0-0.005,0
			c0-1.084-0.038-2.17-0.114-3.253c-1.588-22.639-19.87-40.768-42.525-42.169c-12.703-0.799-24.794,3.567-34.039,12.257
			c-9.116,8.568-14.344,20.656-14.344,33.162c0,0-0.002,0.001-0.003,0.001c-1.083,0-2.167,0.038-3.251,0.114
			c-22.639,1.591-40.767,19.873-42.167,42.529c-0.785,12.705,3.569,24.793,12.259,34.037c8.569,9.115,20.656,14.342,33.161,14.342
			v51.2h-39.822c0-12.506-5.227-24.593-14.342-33.161c-9.243-8.691-21.327-13.051-34.039-12.259
			c-22.656,1.399-40.939,19.528-42.527,42.166c-0.076,1.084-0.114,2.171-0.114,3.256c-12.506,0-24.594,5.228-33.164,14.343
			c-8.69,9.244-13.043,21.333-12.258,34.039c1.401,22.657,19.531,40.938,42.169,42.525c1.083,0.075,2.167,0.114,3.25,0.114
			c0.001,0,0.002,0,0.002,0c0.001,1.085,0.039,2.172,0.115,3.256c1.588,22.638,19.871,40.766,42.527,42.168
			c0.976,0.06,1.947,0.09,2.915,0.09c11.629-0.001,22.589-4.328,31.122-12.351c9.115-8.568,14.342-20.655,14.342-33.161h39.822
			v96.71c-12.506,0-24.593,5.228-33.161,14.342c-8.691,9.244-13.044,21.332-12.259,34.037c1.399,22.655,19.528,40.938,42.163,42.527
			c1.082,0.075,2.166,0.115,3.25,0.115c0.002,0,0.006,0,0.009,0c0,12.506,5.228,24.594,14.344,33.163
			c8.533,8.022,19.49,12.349,31.118,12.349c0.969,0,1.943-0.03,2.919-0.091c22.656-1.399,40.938-19.529,42.526-42.17
			c0.075-1.083,0.114-2.167,0.114-3.249c0.003,0,0.007,0,0.009,0c1.083,0,2.165-0.039,3.246-0.115
			c22.639-1.588,40.767-19.872,42.167-42.528c0.785-12.705-3.569-24.793-12.259-34.037c-8.569-9.115-20.656-14.342-33.161-14.342
			v-96.71h39.822c0,12.506,5.227,24.593,14.342,33.161c9.244,8.69,21.332,13.057,34.039,12.259
			c22.656-1.399,40.939-19.528,42.527-42.168c0.076-1.084,0.114-2.17,0.114-3.255c0.001,0,0.002,0,0.003,0
			c1.082,0,2.166-0.038,3.248-0.114c22.639-1.587,40.77-19.868,42.17-42.525C478.563,223.412,474.209,211.323,465.519,202.079z
			 M256.002,250.313c-9.41,0-17.067-7.656-17.067-17.067s7.656-17.067,17.067-17.067s17.067,7.655,17.067,17.067
			C273.068,242.657,265.412,250.313,256.002,250.313z"/>
	</g>
</g>
<g>
</g>
<g>
</g>
<g>
</g>
<g>
</g>
<g>
</g>
<g>
</g>
<g>
</g>
<g>
</g>
<g>
</g>
<g>
</g>
<g>
</g>
<g>
</g>
<g>
</g>
<g>
</g>
<g>
</g>
</svg>
