<?xml version="1.0" encoding="iso-8859-1"?>
<!-- Generator: Adobe Illustrator 19.0.0, SVG Export Plug-In . SVG Version: 6.00 Build 0)  -->
<svg version="1.1" id="Layer_1" xmlns="http://www.w3.org/2000/svg" xmlns:xlink="http://www.w3.org/1999/xlink" x="0px" y="0px"
	 viewBox="0 0 512 512" style="enable-background:new 0 0 512 512;" xml:space="preserve">
<g>
	<g>
		<g>
			<polygon style="fill:#010202;" points="348.715,278.489 226.079,401.125 202.473,424.731 178.866,401.125 0.095,222.354 
				0.654,304.127 191.226,494.701 378.076,307.852 			"/>
			<polygon style="fill:#010202;" points="163.285,233.51 285.921,110.874 309.528,87.267 511.905,289.645 511.346,207.872 
				320.772,17.298 133.923,204.147 			"/>
			<polygon style="fill:#010202;" points="231.275,348.715 139.678,257.118 86.709,204.147 290.298,0.559 208.526,0 16.74,191.786 
				202.473,377.518 			"/>
			<polygon style="fill:#010202;" points="280.725,163.285 348.409,230.971 425.291,307.852 221.701,511.441 303.474,512 
				495.26,320.214 309.528,134.482 			"/>
		</g>
	</g>
</g>
<g>
</g>
<g>
</g>
<g>
</g>
<g>
</g>
<g>
</g>
<g>
</g>
<g>
</g>
<g>
</g>
<g>
</g>
<g>
</g>
<g>
</g>
<g>
</g>
<g>
</g>
<g>
</g>
<g>
</g>
</svg>
