<?xml version="1.0" encoding="iso-8859-1"?>
<!-- Generator: Adobe Illustrator 19.0.0, SVG Export Plug-In . SVG Version: 6.00 Build 0)  -->
<svg version="1.1" id="Layer_1" xmlns="http://www.w3.org/2000/svg" xmlns:xlink="http://www.w3.org/1999/xlink" x="0px" y="0px"
	 viewBox="0 0 512.001 512.001" style="enable-background:new 0 0 512.001 512.001;" xml:space="preserve">
<g>
	<g>
		<path d="M126.268,145.919c-19.487,3.253-36.541,13.899-48.02,29.979c-12.818,17.955-16.425,39.737-11.796,59.708
			c-1.548,0.16-3.098,0.351-4.647,0.61c-19.487,3.253-36.541,13.899-48.02,29.979c-11.479,16.08-16.01,35.667-12.758,55.153
			c1.923,11.516,6.446,22.171,13.127,31.34l126.94-177.808c0.147-10.092,0.93-20.058,2.325-29.813
			C137.755,144.696,132.009,144.961,126.268,145.919z"/>
	</g>
</g>
<g>
	<g>
		<polygon points="5.388,428.619 85.491,483.999 134.9,414.791 134.9,247.206 		"/>
	</g>
</g>
<g>
	<g>
		<path d="M510.178,116.975c-5.83-37.638-24.857-66.086-53.575-80.106c-28.688-14.005-62.779-11.525-96.006,6.974
			c4.285,4.774,8.373,9.937,12.232,15.486c22.463,32.293,34.835,74.561,34.835,119.025c0,3.322-0.12,6.617-0.339,9.883h98.464
			C512.099,163.974,513.678,139.576,510.178,116.975z M430.758,97.009c-10.212,0-18.491-8.279-18.491-18.491
			s8.279-18.491,18.491-18.491c10.212,0,18.491,8.279,18.491,18.491S440.97,97.009,430.758,97.009z M483.631,141.138
			c-1.223,10.139-10.434,17.367-20.573,16.144c-10.139-1.223-17.366-10.434-16.143-20.572c1.223-10.138,10.434-17.367,20.572-16.144
			C477.625,121.789,484.854,131,483.631,141.138z"/>
	</g>
</g>
<g>
	<g>
		<path d="M342.471,80.447v0.001c-18.192-26.151-42.379-40.552-68.108-40.552s-49.915,14.401-68.108,40.552
			c-7.029,10.107-12.823,21.513-17.306,33.823h170.829C355.295,101.959,349.501,90.555,342.471,80.447z"/>
	</g>
</g>
<g>
	<g>
		<path d="M368.847,151.253H179.88c-1.212,8.831-1.834,17.897-1.834,27.099c0,3.335,0.163,6.628,0.457,9.883h191.721
			c0.295-3.254,0.457-6.548,0.457-9.883C370.682,169.15,370.06,160.084,368.847,151.253z"/>
	</g>
</g>
<g>
	<g>
		<path d="M430.491,225.216v0.001c-1.43,17.523-8.781,27.785-14.313,35.468c-4.906,6.815-7.61,10.568-7.61,20.012
			c0,9.445,2.702,13.199,7.61,20.014c6.153,8.547,14.58,20.25,14.58,41.623c0,21.372-8.427,33.076-14.58,41.621
			c-4.906,6.815-7.61,10.568-7.61,20.012h-36.982c0-21.373,8.427-33.077,14.58-41.622c4.906-6.815,7.61-10.567,7.61-20.011
			c0-9.445-2.702-13.199-7.61-20.014c-6.153-8.547-14.58-20.25-14.58-41.623s8.427-33.077,14.58-41.622
			c3.68-5.111,6.121-8.501,7.11-13.86h-39.2c0.163,1.96,0.251,4.014,0.251,6.169c0,21.373-8.427,33.077-14.58,41.622
			c-4.906,6.815-7.61,10.568-7.61,20.014c0,9.444,2.702,13.198,7.61,20.012c6.153,8.545,14.58,20.249,14.58,41.621h-36.982
			c0-9.443-2.702-13.196-7.61-20.011c-6.153-8.544-14.58-20.249-14.58-41.622c0-21.375,8.427-33.077,14.58-41.623
			c4.906-6.815,7.61-10.568,7.61-20.012c0-2.379-0.18-4.39-0.512-6.169H171.882v258.875h320.512V225.216H430.491z"/>
	</g>
</g>
<g>
</g>
<g>
</g>
<g>
</g>
<g>
</g>
<g>
</g>
<g>
</g>
<g>
</g>
<g>
</g>
<g>
</g>
<g>
</g>
<g>
</g>
<g>
</g>
<g>
</g>
<g>
</g>
<g>
</g>
</svg>
