<?xml version="1.0" encoding="iso-8859-1"?>
<!-- Generator: Adobe Illustrator 19.0.0, SVG Export Plug-In . SVG Version: 6.00 Build 0)  -->
<svg version="1.1" id="Layer_1" xmlns="http://www.w3.org/2000/svg" xmlns:xlink="http://www.w3.org/1999/xlink" x="0px" y="0px"
	 viewBox="0 0 511.998 511.998" style="enable-background:new 0 0 511.998 511.998;" xml:space="preserve">
<g>
	<g>
		<path d="M506.045,369.115h-53.748c0.1-1.978,0.167-3.961,0.167-5.953c0-9.804-1.234-19.443-3.622-28.825l53.284-26.642
			l-15.974-31.95l-51.157,25.579c-10.021-16.723-24.197-32.022-42.14-45.18c-3.634-2.665-7.387-5.206-11.243-7.631
			c17.947-47.405,51.983-138.518,57.149-161.185c8.754-38.409-15.372-76.778-53.781-85.532
			c-38.409-8.754-76.778,15.372-85.532,53.781c-4.109,18.028-12.517,106.712-17.343,160.048c-8.589-0.855-17.305-1.299-26.106-1.299
			c-8.802,0-17.518,0.445-26.106,1.299c-4.826-53.335-13.233-142.019-17.343-160.048c-8.754-38.407-47.124-62.531-85.532-53.781
			c-38.41,8.753-62.536,47.122-53.782,85.532c5.167,22.666,39.202,113.78,57.149,161.185c-3.855,2.425-7.609,4.966-11.243,7.631
			c-17.943,13.158-32.12,28.455-42.14,45.18l-51.157-25.579L9.87,307.693l53.284,26.642c-2.389,9.382-3.622,19.021-3.622,28.825
			c0,1.992,0.065,3.976,0.165,5.953H5.95v35.721h61.262c9.338,24.637,26.994,47.058,51.931,65.343
			c36.775,26.968,85.378,41.82,136.856,41.82c51.478,0,100.081-14.852,136.856-41.82c24.936-18.286,42.594-40.707,51.931-65.343
			h61.262v-35.72H506.045z M139.493,139.159c-2.271-9.96,3.986-19.911,13.947-22.18c1.38-0.314,2.759-0.466,4.119-0.466
			c8.45,0,16.107,5.832,18.062,14.412c1.89,8.292,6.34,52.56,10.086,93.118c-4.947,1.425-9.811,3.005-14.589,4.731
			C156.874,190.795,141.815,149.347,139.493,139.159z M190.509,351.254c-9.864,0-17.861-7.997-17.861-17.861
			s7.997-17.861,17.861-17.861c9.864,0,17.861,7.996,17.861,17.861C208.37,343.257,200.373,351.254,190.509,351.254z
			 M255.998,422.696c-19.728,0-35.721-10.662-35.721-23.814c0-13.152,15.994-23.814,35.721-23.814s35.721,10.662,35.721,23.814
			C291.719,412.035,275.725,422.696,255.998,422.696z M321.486,351.254c-9.864,0-17.861-7.997-17.861-17.861
			s7.997-17.861,17.861-17.861c9.864,0,17.861,7.996,17.861,17.861C339.347,343.257,331.35,351.254,321.486,351.254z
			 M372.502,139.159c-2.322,10.186-17.381,51.635-31.625,89.615c-4.777-1.725-9.641-3.305-14.589-4.731
			c3.746-40.557,8.196-84.824,10.086-93.118c2.269-9.959,12.217-16.216,22.18-13.945
			C368.517,119.248,374.773,129.199,372.502,139.159z"/>
	</g>
</g>
<g>
</g>
<g>
</g>
<g>
</g>
<g>
</g>
<g>
</g>
<g>
</g>
<g>
</g>
<g>
</g>
<g>
</g>
<g>
</g>
<g>
</g>
<g>
</g>
<g>
</g>
<g>
</g>
<g>
</g>
</svg>
