<?xml version="1.0" encoding="iso-8859-1"?>
<!-- Generator: Adobe Illustrator 19.0.0, SVG Export Plug-In . SVG Version: 6.00 Build 0)  -->
<svg version="1.1" id="Layer_1" xmlns="http://www.w3.org/2000/svg" xmlns:xlink="http://www.w3.org/1999/xlink" x="0px" y="0px"
	 viewBox="0 0 512 512" style="enable-background:new 0 0 512 512;" xml:space="preserve">
<g>
	<g>
		<path d="M458.863,224.537c-1.772-1.184-3.403-2.358-4.93-3.457c-6.582-4.739-10.208-7.35-19.331-7.35
			c-9.122,0-12.748,2.61-19.329,7.35c-8.254,5.943-19.558,14.082-40.203,14.082c-20.643,0-31.948-8.14-40.202-14.082
			c-6.581-4.739-10.207-7.35-19.329-7.35c-9.126,0-12.751,2.611-19.335,7.35c-8.255,5.943-19.561,14.082-40.206,14.082
			s-31.95-8.138-40.206-14.082c-6.583-4.739-10.21-7.35-19.335-7.35c-9.122,0-12.748,2.61-19.33,7.35
			c-8.254,5.943-19.558,14.082-40.203,14.082c-20.644,0-31.95-8.14-40.204-14.082c-6.582-4.739-10.208-7.35-19.331-7.35
			c-9.122,0-12.748,2.61-19.33,7.35c-1.524,1.098-3.154,2.27-4.926,3.452c-2.903,17.418-4.687,35.307-5.281,53.496h416.288
			C463.55,259.841,461.766,241.953,458.863,224.537z"/>
	</g>
</g>
<g>
	<g>
		<path d="M434.603,392.335c-9.122,0-12.748,2.61-19.329,7.35c-8.254,5.943-19.558,14.082-40.203,14.082
			c-20.643,0-31.948-8.14-40.202-14.082c-6.581-4.739-10.207-7.35-19.329-7.35c-9.126,0-12.751,2.611-19.335,7.35
			c-8.255,5.943-19.561,14.082-40.206,14.082s-31.95-8.138-40.206-14.082c-6.583-4.739-10.21-7.35-19.335-7.35
			c-9.122,0-12.748,2.61-19.33,7.35c-8.254,5.943-19.558,14.082-40.203,14.082c-20.644,0-31.95-8.14-40.204-14.082
			c-6.582-4.739-10.208-7.35-19.331-7.35c-2.503,0-4.583,0.204-6.432,0.587C105.692,463.602,175.598,512,256.002,512
			s150.309-48.397,185.04-119.077C439.191,392.539,437.108,392.335,434.603,392.335z"/>
	</g>
</g>
<g>
	<g>
		<path d="M431.531,133.953H80.473c-6.625,14.45-12.298,29.648-16.972,45.436c4.109-0.864,8.706-1.38,13.894-1.38
			c20.643,0,31.948,8.14,40.202,14.082c6.582,4.739,10.209,7.35,19.331,7.35s12.748-2.61,19.33-7.35
			c8.254-5.943,19.558-14.082,40.202-14.082c20.646,0,31.951,8.138,40.206,14.082c6.583,4.739,10.21,7.35,19.335,7.35
			s12.751-2.611,19.335-7.35c8.255-5.943,19.561-14.082,40.206-14.082c20.643,0,31.948,8.14,40.202,14.082
			c6.581,4.739,10.207,7.35,19.329,7.35s12.748-2.61,19.329-7.35c8.254-5.943,19.558-14.082,40.203-14.082
			c5.191,0,9.791,0.517,13.901,1.381C443.828,163.603,438.156,148.405,431.531,133.953z"/>
	</g>
</g>
<g>
	<g>
		<path d="M405.375,87.872C365.956,31.207,312.908,0,256.002,0S146.048,31.207,106.628,87.872c-2.355,3.386-4.645,6.842-6.869,10.36
			h312.485C410.02,94.714,407.731,91.259,405.375,87.872z"/>
	</g>
</g>
<g>
	<g>
		<path d="M48.669,313.749c1.491,15.804,4.578,31.117,9.072,45.767c5.455-1.752,11.893-2.902,19.652-2.902
			c20.644,0,31.949,8.14,40.203,14.082c6.582,4.739,10.209,7.35,19.331,7.35s12.748-2.61,19.33-7.35
			c8.254-5.943,19.558-14.082,40.202-14.082c20.646,0,31.951,8.138,40.206,14.082c6.583,4.739,10.21,7.35,19.335,7.35
			s12.751-2.611,19.335-7.35c8.255-5.943,19.561-14.082,40.206-14.082c20.643,0,31.948,8.14,40.202,14.082
			c6.581,4.739,10.207,7.35,19.329,7.35s12.748-2.61,19.329-7.35c8.254-5.943,19.558-14.082,40.203-14.082
			c7.763,0,14.204,1.151,19.66,2.904c4.494-14.652,7.581-29.965,9.073-45.769H48.669z"/>
	</g>
</g>
<g>
</g>
<g>
</g>
<g>
</g>
<g>
</g>
<g>
</g>
<g>
</g>
<g>
</g>
<g>
</g>
<g>
</g>
<g>
</g>
<g>
</g>
<g>
</g>
<g>
</g>
<g>
</g>
<g>
</g>
</svg>
