<?xml version="1.0" encoding="iso-8859-1"?>
<!-- Generator: Adobe Illustrator 19.0.0, SVG Export Plug-In . SVG Version: 6.00 Build 0)  -->
<svg version="1.1" id="Layer_1" xmlns="http://www.w3.org/2000/svg" xmlns:xlink="http://www.w3.org/1999/xlink" x="0px" y="0px"
	 viewBox="0 0 512 512" style="enable-background:new 0 0 512 512;" xml:space="preserve">
<g>
	<g>
		<path d="M124.878,93.659c0-10.074,1.145-19.886,3.307-29.315c-14.331-1.618-30.027-1.785-47.074-0.472l-16.008,1.231
			l-1.231,16.008c-1.311,17.046-1.146,32.743,0.472,47.073c9.43-2.16,19.241-3.306,29.315-3.306c8.173,0,19.67,1.088,37.892,6.673
			C125.966,113.328,124.878,101.832,124.878,93.659z"/>
	</g>
</g>
<g>
	<g>
		<path d="M131.55,380.448c-18.222,5.586-29.719,6.673-37.892,6.673c-10.074,0-19.886-1.145-29.315-3.306
			c-1.618,14.331-1.785,30.027-0.472,47.073l1.231,16.008l16.008,1.231c7.619,0.587,14.96,0.879,22.04,0.879
			c8.763,0,17.106-0.455,25.034-1.351c-2.162-9.428-3.307-19.241-3.307-29.315C124.878,410.168,125.966,398.671,131.55,380.448z"/>
	</g>
</g>
<g>
	<g>
		<path d="M447.657,383.816c-9.43,2.16-19.241,3.306-29.315,3.306c-8.173,0-19.671-1.088-37.893-6.673
			c5.586,18.222,6.673,29.72,6.673,37.893c0,10.075-1.145,19.887-3.307,29.316c7.928,0.895,16.27,1.35,25.034,1.35
			c7.077,0,14.425-0.292,22.04-0.879l16.008-1.231l1.231-16.008C449.44,413.843,449.275,398.146,447.657,383.816z"/>
	</g>
</g>
<g>
	<g>
		<path d="M448.129,81.111l-1.231-16.008l-16.008-1.231c-17.046-1.311-32.742-1.146-47.074,0.472
			c2.162,9.428,3.307,19.241,3.307,29.315c0,8.173-1.088,19.67-6.672,37.893c18.222-5.586,29.718-6.673,37.892-6.673
			c10.074,0,19.886,1.145,29.315,3.306C449.275,113.853,449.441,98.157,448.129,81.111z"/>
	</g>
</g>
<g>
	<g>
		<path d="M418.341,162.341c-24.661,0-70.631,21.032-111.271,42.588c21.556-40.64,42.588-86.61,42.588-111.271
			C349.659,42.015,307.643,0,256,0s-93.659,42.015-93.659,93.659c0,24.661,21.032,70.631,42.59,111.271
			c-40.642-21.556-86.612-42.588-111.273-42.588C42.015,162.341,0,204.357,0,256s42.015,93.659,93.659,93.659
			c24.661,0,70.631-21.032,111.273-42.588c-21.558,40.64-42.59,86.61-42.59,111.271C162.341,469.985,204.357,512,256,512
			s93.659-42.015,93.659-93.659c0-24.661-21.032-70.631-42.588-111.271c40.64,21.556,86.61,42.588,111.271,42.588
			C469.985,349.659,512,307.643,512,256S469.985,162.341,418.341,162.341z M256,299.707c-24.1,0-43.707-19.607-43.707-43.707
			S231.9,212.293,256,212.293S299.707,231.9,299.707,256S280.1,299.707,256,299.707z"/>
	</g>
</g>
<g>
</g>
<g>
</g>
<g>
</g>
<g>
</g>
<g>
</g>
<g>
</g>
<g>
</g>
<g>
</g>
<g>
</g>
<g>
</g>
<g>
</g>
<g>
</g>
<g>
</g>
<g>
</g>
<g>
</g>
</svg>
