<?xml version="1.0" encoding="iso-8859-1"?>
<!-- Generator: Adobe Illustrator 19.0.0, SVG Export Plug-In . SVG Version: 6.00 Build 0)  -->
<svg version="1.1" id="Layer_1" xmlns="http://www.w3.org/2000/svg" xmlns:xlink="http://www.w3.org/1999/xlink" x="0px" y="0px"
	 viewBox="0 0 512 512" style="enable-background:new 0 0 512 512;" xml:space="preserve">
<g>
	<g>
		<path d="M405.063,32.405V0h-38.886v32.405H145.823V0h-38.886v32.405H3.24V512h505.519V32.405H405.063z M256,429.908
			c-49.897,0-91.409-38.338-99.299-88.439c13.357-2.182,21.643-8.127,28.024-12.722c5.961-4.293,8.682-6.252,16.182-6.252
			c7.502,0,10.224,1.96,16.187,6.252c7.961,5.731,18.862,13.58,38.907,13.58s30.947-7.849,38.907-13.58
			c5.964-4.293,8.685-6.252,16.188-6.252c7.5,0,10.221,1.96,16.18,6.25c6.381,4.595,14.667,10.542,28.024,12.724
			C347.409,391.569,305.897,429.908,256,429.908z M156.816,300.716c3.317-26.295,12.171-50.657,25.785-70.227
			c19.084-27.433,45.151-42.54,73.399-42.54s54.315,15.107,73.397,42.54c13.614,19.569,22.467,43.932,25.785,70.227
			c-1.566-0.927-3.194-2.093-5.184-3.527c-7.96-5.732-18.861-13.582-38.904-13.582c-20.044,0-30.947,7.849-38.908,13.58
			c-5.963,4.293-8.685,6.252-16.187,6.252s-10.224-1.96-16.187-6.252c-7.961-5.732-18.862-13.58-38.907-13.58
			c-20.043,0-30.944,7.85-38.904,13.58C160.011,298.622,158.383,299.79,156.816,300.716z M469.873,110.177H42.127V71.291h427.747
			V110.177z"/>
	</g>
</g>
<g>
</g>
<g>
</g>
<g>
</g>
<g>
</g>
<g>
</g>
<g>
</g>
<g>
</g>
<g>
</g>
<g>
</g>
<g>
</g>
<g>
</g>
<g>
</g>
<g>
</g>
<g>
</g>
<g>
</g>
</svg>
