<?xml version="1.0" encoding="iso-8859-1"?>
<!-- Generator: Adobe Illustrator 19.0.0, SVG Export Plug-In . SVG Version: 6.00 Build 0)  -->
<svg version="1.1" id="Layer_1" xmlns="http://www.w3.org/2000/svg" xmlns:xlink="http://www.w3.org/1999/xlink" x="0px" y="0px"
	 viewBox="0 0 512 512" style="enable-background:new 0 0 512 512;" xml:space="preserve">
<g>
	<g>
		<path d="M10.47,216.771C7.201,263.2,34.964,308.279,80.823,324.607l72.322,25.917c1.816-10.367,2.754-20.922,2.754-31.569V285.66
			L10.47,216.771z"/>
	</g>
</g>
<g>
	<g>
		<path d="M501.531,216.769l-145.43,68.888v33.296c0,10.651,0.94,21.209,2.757,31.579c38.152-13.676,72.319-25.927,72.319-25.927
			C477.035,308.278,504.799,263.197,501.531,216.769z"/>
	</g>
</g>
<g>
	<g>
		<path d="M505.877,105.418c-0.704-1.979-1.478-3.915-2.287-5.826l-141.614,71.447c-1.63,19.336-8.527,37.658-19.625,53.11
			c4.055,6.889,7.262,14.259,9.562,21.958l155.208-73.519C513.77,151.341,513.877,127.883,505.877,105.418z"/>
	</g>
</g>
<g>
	<g>
		<path d="M150.024,171.039L8.41,99.592c-0.81,1.911-1.583,3.846-2.287,5.826c-7.999,22.465-7.892,45.924-1.242,67.17
			l155.207,73.519c2.3-7.699,5.507-15.069,9.563-21.958C158.553,208.696,151.656,190.375,150.024,171.039z"/>
	</g>
</g>
<g>
	<g>
		<path d="M318.563,318.955v-44.186h0c0-22.02-11.539-41.461-28.858-52.618c20.954-11.798,35.114-34.236,35.114-59.996
			c0-9.128-1.793-17.833-5.02-25.804c11.258-12.025,17.533-27.119,17.533-43.016c0-20.512-10.404-39.706-28.546-52.666
			C294.203,30.253,275.456,24.516,256,24.516s-38.201,5.737-52.786,16.154c-18.142,12.958-28.546,32.154-28.546,52.666
			c0,15.897,6.274,30.991,17.533,43.016c-3.227,7.971-5.02,16.676-5.02,25.804c0,25.76,14.161,48.199,35.114,59.996
			c-17.319,11.158-28.858,30.598-28.858,52.618v44.186c0,42.434-12.265,83.965-35.319,119.591
			c22.321,29.715,57.856,48.938,97.883,48.938c40.025,0,75.561-19.223,97.883-48.938
			C330.828,402.919,318.563,361.389,318.563,318.955z M216.045,106.139c-2.46-3.908-3.839-8.24-3.839-12.803
			c0-17.276,19.607-31.282,43.794-31.282s43.794,14.005,43.794,31.282c0,4.563-1.38,8.895-3.839,12.803
			C284.689,98.088,270.904,93.336,256,93.336S227.311,98.089,216.045,106.139z"/>
	</g>
</g>
<g>
</g>
<g>
</g>
<g>
</g>
<g>
</g>
<g>
</g>
<g>
</g>
<g>
</g>
<g>
</g>
<g>
</g>
<g>
</g>
<g>
</g>
<g>
</g>
<g>
</g>
<g>
</g>
<g>
</g>
</svg>
