<?xml version="1.0" encoding="iso-8859-1"?>
<!-- Generator: Adobe Illustrator 19.0.0, SVG Export Plug-In . SVG Version: 6.00 Build 0)  -->
<svg version="1.1" id="Layer_1" xmlns="http://www.w3.org/2000/svg" xmlns:xlink="http://www.w3.org/1999/xlink" x="0px" y="0px"
	 viewBox="0 0 512 512" style="enable-background:new 0 0 512 512;" xml:space="preserve">
<g>
	<g>
		<g>
			<path d="M256,65.137c29.788,0,55.075-19.606,63.654-46.588c-15.353,2.678-46.005,7.604-63.654,7.604
				c-17.65,0-48.301-4.926-63.654-7.604C200.925,45.532,226.212,65.137,256,65.137z"/>
			<path d="M512,197.357L426.457,61.497l-73.834-36.686c-11.634,42.44-50.54,73.719-96.622,73.719
				c-46.082,0-84.989-31.28-96.622-73.72L85.543,61.497L0,197.357l104.01,60.095l17.514-18.616l-7.928,237.945l11.063,4.275
				c3.282,1.269,34.855,12.395,131.34,12.395s128.058-11.126,131.34-12.395l11.063-4.275l-7.928-237.945l17.514,18.616L512,197.357z
				 M296.83,297.775L256,278.133l-40.83,19.642l6.104-44.825l-31.368-32.714l44.642-8.066l21.453-39.816l21.453,39.816l44.642,8.066
				l-31.368,32.714L296.83,297.775z"/>
		</g>
	</g>
</g>
<g>
</g>
<g>
</g>
<g>
</g>
<g>
</g>
<g>
</g>
<g>
</g>
<g>
</g>
<g>
</g>
<g>
</g>
<g>
</g>
<g>
</g>
<g>
</g>
<g>
</g>
<g>
</g>
<g>
</g>
</svg>
