<?xml version="1.0" encoding="iso-8859-1"?>
<!-- Generator: Adobe Illustrator 19.0.0, SVG Export Plug-In . SVG Version: 6.00 Build 0)  -->
<svg version="1.1" id="Layer_1" xmlns="http://www.w3.org/2000/svg" xmlns:xlink="http://www.w3.org/1999/xlink" x="0px" y="0px"
	 viewBox="0 0 512 512" style="enable-background:new 0 0 512 512;" xml:space="preserve">
<g>
	<g>
		<path d="M405.374,87.872C365.954,31.207,312.906,0,256,0S146.046,31.207,106.626,87.872
			c-38.045,54.691-58.998,127.086-58.998,203.849C47.628,413.183,141.102,512,256,512s208.372-98.817,208.372-220.279
			C464.372,214.958,443.419,142.563,405.374,87.872z M344.747,297.24c21.474,14.447,27.172,43.566,12.726,65.041
			c-14.446,21.474-43.566,27.172-65.042,12.726c-5.951-4.003-12.242-13.082-18.571-24.11V256c0-9.864-7.997-17.86-17.86-17.86
			c-9.864,0-17.86,7.997-17.86,17.86v93.317c-6.633,11.738-13.239,21.496-19.473,25.689c-21.474,14.447-50.594,8.749-65.041-12.726
			c-14.447-21.475-8.867-50.771,12.725-65.041c3.168-2.093,7.979-4.219,13.761-6.244c-9.81-2.724-17.905-5.707-22.472-8.78
			c-21.474-14.447-27.172-43.566-12.726-65.042c14.447-21.474,43.566-27.172,65.042-12.725c3.746,2.521,8.517,7.057,13.667,12.82
			l-7.25-50.748c-0.468-3.271-3.08-6.983-6.82-9.69c-3.866-2.798-8.487-4.216-12.065-3.708l-10.403,1.486l-5.051-35.361
			l10.402-1.486c12.771-1.827,26.643,1.868,38.062,10.133c11.655,8.435,19.395,20.673,21.237,33.575L256,191.33l4.266-29.859
			c1.843-12.901,9.584-25.139,21.237-33.574c11.418-8.263,25.292-11.957,38.062-10.133l10.402,1.486l-5.051,35.361l-10.403-1.486
			c-3.572-0.508-8.2,0.91-12.065,3.708c-3.74,2.706-6.352,6.42-6.82,9.69l-7.081,49.564c4.738-5.199,9.111-9.292,12.598-11.637
			c21.474-14.447,50.594-8.749,65.041,12.725c14.447,21.475,8.749,50.594-12.725,65.042c-4.666,3.139-13.016,6.187-23.116,8.958
			C336.321,292.921,341.315,294.93,344.747,297.24z"/>
	</g>
</g>
<g>
</g>
<g>
</g>
<g>
</g>
<g>
</g>
<g>
</g>
<g>
</g>
<g>
</g>
<g>
</g>
<g>
</g>
<g>
</g>
<g>
</g>
<g>
</g>
<g>
</g>
<g>
</g>
<g>
</g>
</svg>
