<?xml version="1.0" encoding="iso-8859-1"?>
<!-- Generator: Adobe Illustrator 19.0.0, SVG Export Plug-In . SVG Version: 6.00 Build 0)  -->
<svg version="1.1" id="Layer_1" xmlns="http://www.w3.org/2000/svg" xmlns:xlink="http://www.w3.org/1999/xlink" x="0px" y="0px"
	 viewBox="0 0 511.999 511.999" style="enable-background:new 0 0 511.999 511.999;" xml:space="preserve">
<g>
	<g>
		<path d="M348.545,235.33c-1.152-0.837-2.339-1.64-3.525-2.443c7.877-20.689,19.297-51.048,27.189-73.605
			c-10.058,4.497-20.98,6.859-31.962,6.859c-7.271,0-14.529-1.018-21.574-3.025c-8.64-2.462-21.247-7.972-43.776-27.712
			c-2.413,21.043-5.173,49.826-7.229,72.198c-3.863-0.251-7.752-0.396-11.669-0.396s-7.808,0.145-11.67,0.396
			c-2.057-22.371-4.816-51.155-7.229-72.198c-22.528,19.739-35.136,25.249-43.776,27.711c-7.043,2.008-14.302,3.026-21.575,3.026
			c-10.982,0-21.905-2.36-31.964-6.86c7.893,22.558,19.313,52.918,27.19,73.606c-1.183,0.804-2.37,1.607-3.523,2.443
			c-26.622,19.359-41.283,45.632-41.283,73.978c0,4.953,0.458,9.842,1.339,14.642H388.49c0.882-4.8,1.339-9.689,1.339-14.642
			C389.828,280.962,375.167,254.689,348.545,235.33z M215.121,300.451c-9.676,0-17.52-7.844-17.52-17.52
			c0-9.676,7.844-17.52,17.52-17.52c9.676,0,17.52,7.844,17.52,17.52S224.796,300.451,215.121,300.451z M296.881,300.451
			c-9.676,0-17.52-7.844-17.52-17.52c0-9.676,7.844-17.52,17.52-17.52c9.676,0,17.52,7.844,17.52,17.52
			S306.556,300.451,296.881,300.451z"/>
	</g>
</g>
<g>
	<g>
		<path d="M413.647,115.225c-4.538,12.139-11.904,22.803-21.515,31.253c14.048,23.88,21.547,51.076,21.547,79.36V358.99H98.319
			V225.838c0-28.284,7.5-55.48,21.547-79.36c-9.61-8.449-16.977-19.114-21.515-31.253c-22.792,32.24-35.073,70.529-35.073,110.613
			v213.745c0,39.931,32.486,72.416,72.416,72.416h240.609c39.87,0,72.313-32.388,72.411-72.235h0.005v-0.181V225.838
			C448.721,185.753,436.44,147.465,413.647,115.225z M413.681,426.739c-15.572,9.729-33.767,15.179-52.56,15.179
			c-18.646,0-36.877-5.281-52.56-15.066c-15.683,9.786-33.914,15.066-52.56,15.066c-18.646,0-36.877-5.281-52.56-15.066
			c-15.683,9.786-33.914,15.066-52.56,15.066c-18.793,0-36.988-5.45-52.56-15.179v-47.204c12.04,17.202,31.366,27.343,52.56,27.343
			c15.084,0,29.747-5.341,41.289-15.042l11.271-9.472l11.271,9.472c11.542,9.7,26.205,15.042,41.289,15.042
			c15.084,0,29.747-5.341,41.289-15.042l11.271-9.472l11.271,9.472c11.542,9.7,26.205,15.042,41.289,15.042
			c21.195,0,40.52-10.142,52.56-27.343V426.739z"/>
	</g>
</g>
<g>
	<g>
		<path d="M381.973,31.549C376.537,12.473,359.084,0,340.168,0c-3.933,0-7.926,0.538-11.89,1.669
			c-12.493,3.56-33.137,22.173-48.849,37.823c-6.207-5.585-14.42-8.988-23.429-8.988c-9.009,0-17.22,3.401-23.428,8.988
			c-15.713-15.649-36.356-34.263-48.849-37.823C179.757,0.54,175.76,0,171.828,0c-18.92,0-36.365,12.471-41.8,31.549
			c-3.3,11.578-1.691,23.753,4.377,33.995c-6.068,10.243-7.676,22.416-4.377,33.994c3.182,11.163,10.518,20.417,20.66,26.062
			c6.551,3.645,13.766,5.502,21.064,5.502c3.997,0,8.021-0.558,11.971-1.683c12.493-3.56,33.137-22.173,48.849-37.823
			c6.207,5.587,14.42,8.989,23.429,8.989c9.009,0,17.221-3.402,23.429-8.989c15.712,15.649,36.356,34.263,48.849,37.823
			c3.951,1.126,7.973,1.683,11.971,1.683c7.297,0,14.512-1.857,21.064-5.503c10.142-5.644,17.478-14.899,20.66-26.062
			c3.3-11.577,1.691-23.751-4.377-33.994C383.665,55.3,385.273,43.127,381.973,31.549z"/>
	</g>
</g>
<g>
</g>
<g>
</g>
<g>
</g>
<g>
</g>
<g>
</g>
<g>
</g>
<g>
</g>
<g>
</g>
<g>
</g>
<g>
</g>
<g>
</g>
<g>
</g>
<g>
</g>
<g>
</g>
<g>
</g>
</svg>
