<?xml version="1.0" encoding="iso-8859-1"?>
<!-- Generator: Adobe Illustrator 19.0.0, SVG Export Plug-In . SVG Version: 6.00 Build 0)  -->
<svg version="1.1" id="Layer_1" xmlns="http://www.w3.org/2000/svg" xmlns:xlink="http://www.w3.org/1999/xlink" x="0px" y="0px"
	 viewBox="0 0 512 512" style="enable-background:new 0 0 512 512;" xml:space="preserve">
<g>
	<g>
		<path d="M428.065,119.07h-70.856v-17.86C357.209,45.402,311.806,0,255.999,0S154.79,45.402,154.79,101.209v17.86H83.934
			L70.836,512h370.327L428.065,119.07z M190.511,101.209c0-36.11,29.378-65.488,65.488-65.488s65.488,29.378,65.488,65.488v17.86
			H190.511V101.209z M188.576,245.465c17.529-25.2,41.476-39.076,67.423-39.076s49.894,13.876,67.423,39.076
			c12.506,17.977,20.638,40.356,23.687,64.512c-1.438-0.851-2.934-1.924-4.763-3.241c-7.312-5.265-17.326-12.476-35.738-12.476
			c-18.413,0-28.428,7.211-35.74,12.476c-5.478,3.944-7.978,5.743-14.869,5.743c-6.892,0-9.392-1.8-14.869-5.743
			c-7.312-5.265-17.327-12.476-35.74-12.476c-18.412,0-28.427,7.211-35.738,12.476c-1.829,1.317-3.324,2.39-4.763,3.241
			C167.937,285.822,176.07,263.442,188.576,245.465z M255.999,428.651c-45.836,0-83.969-35.216-91.217-81.239
			c12.27-2.004,19.882-7.466,25.744-11.688c5.476-3.944,7.975-5.743,14.865-5.743c6.892,0,9.392,1.8,14.869,5.743
			c7.312,5.265,17.327,12.476,35.74,12.476c18.413,0,28.428-7.211,35.741-12.476c5.477-3.944,7.978-5.743,14.869-5.743
			c6.889,0,9.387,1.8,14.863,5.743c5.862,4.222,13.473,9.684,25.743,11.688C339.969,393.435,301.835,428.651,255.999,428.651z"/>
	</g>
</g>
<g>
</g>
<g>
</g>
<g>
</g>
<g>
</g>
<g>
</g>
<g>
</g>
<g>
</g>
<g>
</g>
<g>
</g>
<g>
</g>
<g>
</g>
<g>
</g>
<g>
</g>
<g>
</g>
<g>
</g>
</svg>
