<?xml version="1.0" encoding="iso-8859-1"?>
<!-- Generator: Adobe Illustrator 19.0.0, SVG Export Plug-In . SVG Version: 6.00 Build 0)  -->
<svg version="1.1" id="Layer_1" xmlns="http://www.w3.org/2000/svg" xmlns:xlink="http://www.w3.org/1999/xlink" x="0px" y="0px"
	 viewBox="0 0 512 512" style="enable-background:new 0 0 512 512;" xml:space="preserve">
<g>
	<g>
		<path d="M313.6,352c0-25.03-16.054-46.372-38.4-54.298v-45.536c54.18-6.396,100.288-39.51,124.755-85.766h-287.91
			c24.467,46.257,70.575,79.37,124.755,85.766v45.536c-22.346,7.926-38.4,29.267-38.4,54.298c0,25.516,16.682,47.195,39.707,54.74
			L132.847,512h246.307l-105.26-105.26C296.918,399.195,313.6,377.516,313.6,352z"/>
	</g>
</g>
<g>
	<g>
		<path d="M93.257,0v90.563c0,12.881,1.512,25.413,4.353,37.437h316.78c2.842-12.024,4.353-24.558,4.353-37.437V0H93.257z M160,83.2
			c-10.604,0-19.2-8.596-19.2-19.2c0-10.605,8.596-19.2,19.2-19.2s19.2,8.595,19.2,19.2C179.2,74.604,170.604,83.2,160,83.2z
			 M256,83.2c-10.604,0-19.2-8.596-19.2-19.2c0-10.605,8.596-19.2,19.2-19.2s19.2,8.595,19.2,19.2
			C275.2,74.604,266.604,83.2,256,83.2z M352,83.2c-10.604,0-19.2-8.596-19.2-19.2c0-10.605,8.596-19.2,19.2-19.2
			s19.2,8.595,19.2,19.2C371.2,74.604,362.604,83.2,352,83.2z"/>
	</g>
</g>
<g>
</g>
<g>
</g>
<g>
</g>
<g>
</g>
<g>
</g>
<g>
</g>
<g>
</g>
<g>
</g>
<g>
</g>
<g>
</g>
<g>
</g>
<g>
</g>
<g>
</g>
<g>
</g>
<g>
</g>
</svg>
