<?xml version="1.0" encoding="iso-8859-1"?>
<!-- Generator: Adobe Illustrator 19.0.0, SVG Export Plug-In . SVG Version: 6.00 Build 0)  -->
<svg version="1.1" id="Layer_1" xmlns="http://www.w3.org/2000/svg" xmlns:xlink="http://www.w3.org/1999/xlink" x="0px" y="0px"
	 viewBox="0 0 512 512" style="enable-background:new 0 0 512 512;" xml:space="preserve">
<g>
	<g>
		<polygon points="27.759,372.935 27.759,512 77.108,512 77.108,337.684 		"/>
	</g>
</g>
<g>
	<g>
		<polygon points="434.892,337.684 434.892,512 484.241,512 484.241,372.935 		"/>
	</g>
</g>
<g>
	<g>
		<path d="M256,400.964c-10.204,0-18.506,8.302-18.506,18.506V512h37.012v-92.53C274.506,409.266,266.204,400.964,256,400.964z"/>
	</g>
</g>
<g>
	<g>
		<path d="M274.506,139.806V80.193h30.843V43.181h-30.843V0h-37.012v43.181h-30.843v37.012h30.843v59.613L114.12,250.842V512h86.361
			v-92.53c0-30.613,24.905-55.518,55.518-55.518s55.518,24.905,55.518,55.518V512h86.361V250.842L274.506,139.806z M256,296.096
			c-10.22,0-18.506-8.286-18.506-18.506c0-10.22,8.286-18.506,18.506-18.506s18.506,8.286,18.506,18.506
			C274.506,287.811,266.22,296.096,256,296.096z"/>
	</g>
</g>
<g>
	<g>
		<rect x="355.057" y="43.181" width="61.687" height="37.012"/>
	</g>
</g>
<g>
	<g>
		
			<rect x="352.936" y="115.16" transform="matrix(0.3333 -0.9428 0.9428 0.3333 109.9836 447.5406)" width="37.011" height="61.686"/>
	</g>
</g>
<g>
	<g>
		<rect x="95.614" y="43.181" width="61.687" height="37.012"/>
	</g>
</g>
<g>
	<g>
		
			<rect x="110.073" y="127.473" transform="matrix(0.9428 -0.3333 0.3333 0.9428 -40.5981 55.3154)" width="61.684" height="37.011"/>
	</g>
</g>
<g>
</g>
<g>
</g>
<g>
</g>
<g>
</g>
<g>
</g>
<g>
</g>
<g>
</g>
<g>
</g>
<g>
</g>
<g>
</g>
<g>
</g>
<g>
</g>
<g>
</g>
<g>
</g>
<g>
</g>
</svg>
