<?xml version="1.0" encoding="iso-8859-1"?>
<!-- Generator: Adobe Illustrator 19.0.0, SVG Export Plug-In . SVG Version: 6.00 Build 0)  -->
<svg version="1.1" id="Layer_1" xmlns="http://www.w3.org/2000/svg" xmlns:xlink="http://www.w3.org/1999/xlink" x="0px" y="0px"
	 viewBox="0 0 512.002 512.002" style="enable-background:new 0 0 512.002 512.002;" xml:space="preserve">
<g>
	<g>
		<path d="M451.7,289.932c4.193-1.929,7.854-3.942,10.979-6.044c51.11-34.383,64.719-103.936,30.335-155.046
			c-16.655-24.759-41.955-41.549-71.24-47.279c-29.286-5.732-59.048,0.287-83.805,16.944c-11.074,7.45-23.695,21.532-38.061,42.528
			l9.806-68.648c0.654-4.577,3.08-8.647,6.831-11.461c3.751-2.813,8.338-4.003,12.915-3.349l11.518,1.645l4.936-34.554
			l-11.518-1.645c-28.583-4.084-55.154,15.847-59.237,44.428l-9.491,66.435c-3.135-0.588-6.363-0.909-9.667-0.909
			c-3.303,0-6.531,0.321-9.667,0.909l-9.491-66.436c-4.084-28.581-30.663-48.512-59.237-44.428l-11.518,1.645l4.936,34.554
			l11.518-1.645c9.522-1.359,18.385,5.282,19.746,14.809l9.806,68.648c-14.367-20.996-26.987-35.078-38.061-42.528
			c-24.757-16.655-54.519-22.672-83.805-16.944c-29.285,5.729-54.586,22.52-71.24,47.279
			c-34.383,51.11-20.775,120.663,30.335,155.046c3.119,2.098,6.771,4.107,10.952,6.033C14.627,325.657,3.651,391.343,36.51,440.188
			c21.544,32.025,56.888,49.325,92.86,49.323c21.437-0.001,43.102-6.149,62.187-18.988c13.969-9.398,30.401-29.354,49.695-60.432
			c4.681,1.378,9.627,2.129,14.749,2.129c5.122,0,10.067-0.752,14.748-2.129c19.295,31.078,35.726,51.033,49.696,60.432
			c19.088,12.841,40.747,18.988,62.187,18.988c35.968-0.001,71.317-17.302,92.86-49.323c16.656-24.759,22.672-54.522,16.943-83.806
			C487.228,329.767,472.858,306.467,451.7,289.932z M58.202,191.152c0-28.87,23.488-52.359,52.359-52.359
			s52.359,23.488,52.359,52.359s-23.488,52.359-52.359,52.359S58.202,220.023,58.202,191.152z M128.014,431.38
			c-28.87,0-52.359-23.488-52.359-52.359s23.488-52.359,52.359-52.359s52.358,23.488,52.358,52.359S156.884,431.38,128.014,431.38z
			 M273.454,359.863c0,9.623-7.829,17.453-17.453,17.453c-9.623,0-17.453-7.829-17.453-17.453V185.335
			c0-9.623,7.829-17.453,17.453-17.453c9.624,0,17.453,7.829,17.453,17.453V359.863z M383.989,431.38
			c-28.87,0-52.359-23.488-52.359-52.359s23.488-52.359,52.359-52.359c28.87,0,52.359,23.488,52.359,52.359
			S412.859,431.38,383.989,431.38z M401.443,243.511c-28.87,0-52.359-23.488-52.359-52.359s23.488-52.359,52.359-52.359
			s52.359,23.488,52.359,52.359S430.313,243.511,401.443,243.511z"/>
	</g>
</g>
<g>
	<g>
		<path d="M110.561,173.699c-9.623,0-17.453,7.829-17.453,17.453c0,9.623,7.829,17.453,17.453,17.453
			c9.624,0,17.453-7.829,17.453-17.453C128.014,181.529,120.184,173.699,110.561,173.699z"/>
	</g>
</g>
<g>
	<g>
		<path d="M128.014,361.569c-9.624,0-17.453,7.829-17.453,17.453s7.829,17.453,17.453,17.453c9.623,0,17.453-7.829,17.453-17.453
			S137.637,361.569,128.014,361.569z"/>
	</g>
</g>
<g>
	<g>
		<path d="M383.989,361.569c-9.623,0-17.453,7.829-17.453,17.453s7.829,17.453,17.453,17.453c9.624,0,17.453-7.829,17.453-17.453
			S393.612,361.569,383.989,361.569z"/>
	</g>
</g>
<g>
	<g>
		<path d="M401.443,173.699c-9.623,0-17.453,7.829-17.453,17.453c0,9.623,7.829,17.453,17.453,17.453s17.453-7.829,17.453-17.453
			C418.895,181.529,411.066,173.699,401.443,173.699z"/>
	</g>
</g>
<g>
</g>
<g>
</g>
<g>
</g>
<g>
</g>
<g>
</g>
<g>
</g>
<g>
</g>
<g>
</g>
<g>
</g>
<g>
</g>
<g>
</g>
<g>
</g>
<g>
</g>
<g>
</g>
<g>
</g>
</svg>
