<?xml version="1.0" encoding="iso-8859-1"?>
<!-- Generator: Adobe Illustrator 19.0.0, SVG Export Plug-In . SVG Version: 6.00 Build 0)  -->
<svg version="1.1" id="Layer_1" xmlns="http://www.w3.org/2000/svg" xmlns:xlink="http://www.w3.org/1999/xlink" x="0px" y="0px"
	 viewBox="0 0 512 512" style="enable-background:new 0 0 512 512;" xml:space="preserve">
<g>
	<g>
		<g>
			<path d="M129.114,235.094c18.655,10.504,41.47,16.509,64.019,16.509c22.633,0,44.999-6.056,62.599-19.69
				c35.136,27.219,89.242,24.224,126.619,3.181c36.912-20.78,52.45-55.259,40.549-89.979l-5.926-17.291l-16.678,7.479
				c-17.262,7.738-30.428,2.047-50.481-7.883c-23.796-11.779-55.553-27.501-94.084,5.652c-38.531-33.154-70.289-17.434-94.083-5.652
				c-20.054,9.929-33.22,15.625-50.481,7.883l-16.678-7.479l-5.926,17.291C76.664,179.836,92.202,214.313,129.114,235.094z"/>
			<path d="M424.323,245.747c-7.521,6.871-16.085,13.058-25.605,18.418c-23.824,13.412-52.371,20.798-80.385,20.798
				c-22.839,0-44.09-4.762-62.6-13.914c-18.51,9.154-39.76,13.916-62.6,13.916c-28.015,0-56.563-7.387-80.386-20.799
				c-7.612-4.286-14.614-9.1-20.962-14.367c-5.979,18.89-4.672,39.367,4.06,60.464c5.293,12.79,12.367,23.264,17.577,30.017
				c2.195,38.246,19.706,69.181,51.15,90.26c12.612,41.958,42.337,69.836,87.297,80.54l3.864,0.92l3.864-0.92
				c44.959-10.704,74.684-38.582,87.298-80.54c31.474-21.098,48.988-52.073,51.156-90.369c5.206-6.197,14.712-18.773,21.422-34.988
				C428.034,284.494,429.609,264.392,424.323,245.747z"/>
			<path d="M199.444,83.4c17.098,0,31.784-10.295,38.221-25.02h36.137c6.436,14.725,21.123,25.02,38.221,25.02
				c23.031,0,41.7-18.669,41.7-41.7c0-23.031-18.671-41.7-41.7-41.7c-17.098,0-31.784,10.295-38.221,25.02h-36.137
				C231.228,10.295,216.542,0,199.444,0c-23.031,0-41.7,18.669-41.7,41.7C157.744,64.731,176.413,83.4,199.444,83.4z"/>
		</g>
	</g>
</g>
<g>
</g>
<g>
</g>
<g>
</g>
<g>
</g>
<g>
</g>
<g>
</g>
<g>
</g>
<g>
</g>
<g>
</g>
<g>
</g>
<g>
</g>
<g>
</g>
<g>
</g>
<g>
</g>
<g>
</g>
</svg>
