<?xml version="1.0" encoding="iso-8859-1"?>
<!-- Generator: Adobe Illustrator 19.0.0, SVG Export Plug-In . SVG Version: 6.00 Build 0)  -->
<svg version="1.1" id="Layer_1" xmlns="http://www.w3.org/2000/svg" xmlns:xlink="http://www.w3.org/1999/xlink" x="0px" y="0px"
	 viewBox="0 0 512 512" style="enable-background:new 0 0 512 512;" xml:space="preserve">
<g>
	<g>
		<g>
			<rect x="0" y="181.994" width="220.672" height="47.366"/>
			<path d="M495.304,79.714c-77.743,0-141.049,22.691-188.16,67.44c-38.735,36.793-57.109,79.23-68.087,104.584
				c-2.362,5.456-4.402,10.169-6.008,13.288c-1.349,2.62-4.402,3.243-6.102,3.383c-3.299,0.262-5.661-0.874-6.278-1.496
				c0-0.013,0-0.027,0-0.042v-4.123H0v10.971c0,87.435,71.756,158.568,159.954,158.568c48.883,0,88.287-16.298,120.466-49.824
				c27.065-28.199,44.892-64.558,60.621-96.637c9.99-20.374,19.425-39.618,29.933-54.359
				c41.208-57.807,124.83-65.319,125.643-65.385L512,164.868V79.714H495.304z"/>
		</g>
	</g>
</g>
<g>
</g>
<g>
</g>
<g>
</g>
<g>
</g>
<g>
</g>
<g>
</g>
<g>
</g>
<g>
</g>
<g>
</g>
<g>
</g>
<g>
</g>
<g>
</g>
<g>
</g>
<g>
</g>
<g>
</g>
</svg>
