<?xml version="1.0" encoding="iso-8859-1"?>
<!-- Generator: Adobe Illustrator 19.0.0, SVG Export Plug-In . SVG Version: 6.00 Build 0)  -->
<svg version="1.1" id="Layer_1" xmlns="http://www.w3.org/2000/svg" xmlns:xlink="http://www.w3.org/1999/xlink" x="0px" y="0px"
	 viewBox="0 0 512 512" style="enable-background:new 0 0 512 512;" xml:space="preserve">
<g>
	<g>
		<path d="M277.606,84.111c2.528-8.611,10.488-14.921,19.907-14.921h13.838V27.676h-13.838c-9.876,0-19.215,2.321-27.519,6.429
			C259.695,13.889,238.689,0,214.486,0h-13.838v41.513h13.838c11.445,0,20.757,9.312,20.757,20.757v21.764
			C126.678,94.51,41.513,186.248,41.513,297.514C41.513,415.781,137.732,512,256,512c118.269,0,214.487-96.219,214.487-214.486
			C470.486,186.537,385.767,94.979,277.606,84.111z M166.054,297.514c-11.463,0-20.757-9.294-20.757-20.757S154.591,256,166.054,256
			s20.757,9.294,20.757,20.757S177.517,297.514,166.054,297.514z M256,408.216l-41.513-27.676c0-22.927,18.587-41.513,41.513-41.513
			s41.514,18.587,41.514,41.513L256,408.216z M345.946,297.514c-11.463,0-20.757-9.294-20.757-20.757S334.483,256,345.946,256
			c11.463,0,20.757,9.294,20.757,20.757S357.409,297.514,345.946,297.514z"/>
	</g>
</g>
<g>
</g>
<g>
</g>
<g>
</g>
<g>
</g>
<g>
</g>
<g>
</g>
<g>
</g>
<g>
</g>
<g>
</g>
<g>
</g>
<g>
</g>
<g>
</g>
<g>
</g>
<g>
</g>
<g>
</g>
</svg>
