<?xml version="1.0" encoding="iso-8859-1"?>
<!-- Generator: Adobe Illustrator 19.0.0, SVG Export Plug-In . SVG Version: 6.00 Build 0)  -->
<svg version="1.1" id="Layer_1" xmlns="http://www.w3.org/2000/svg" xmlns:xlink="http://www.w3.org/1999/xlink" x="0px" y="0px"
	 viewBox="0 0 512 512" style="enable-background:new 0 0 512 512;" xml:space="preserve">
<g>
	<g>
		<path d="M256.001,176.703c-40.058,0-72.648,32.59-72.648,72.648c0,8.47,22.353,167.648,22.353,212.354
			c0,27.732,22.562,50.294,50.294,50.294c19.933,0,37.194-11.656,45.328-28.472c3.182-6.581,4.966-13.951,4.966-21.722
			c0-44.807,22.354-203.987,22.354-212.455C328.648,209.293,296.058,176.703,256.001,176.703z"/>
	</g>
</g>
<g>
	<g>
		<path d="M364.629,90.716l-16.484-0.132c-15.236-0.125-28.964,1.321-41.164,4.309c-2.802-26.646-15.6-53.452-38.229-79.958
			L256.002,0l-12.75,14.935c-22.633,26.509-35.43,53.318-38.231,79.965c-12.208-2.992-25.939-4.442-41.164-4.315l-16.485,0.132
			l-0.145,16.485c-0.294,33.378,7.997,59.362,24.67,77.422c19.433-25.191,49.903-41.451,84.105-41.451
			c34.202,0,64.672,16.26,84.105,41.449c16.673-18.061,24.963-44.046,24.669-77.422L364.629,90.716z"/>
	</g>
</g>
<g>
</g>
<g>
</g>
<g>
</g>
<g>
</g>
<g>
</g>
<g>
</g>
<g>
</g>
<g>
</g>
<g>
</g>
<g>
</g>
<g>
</g>
<g>
</g>
<g>
</g>
<g>
</g>
<g>
</g>
</svg>
