<?xml version="1.0" encoding="iso-8859-1"?>
<!-- Generator: Adobe Illustrator 19.0.0, SVG Export Plug-In . SVG Version: 6.00 Build 0)  -->
<svg version="1.1" id="Layer_1" xmlns="http://www.w3.org/2000/svg" xmlns:xlink="http://www.w3.org/1999/xlink" x="0px" y="0px"
	 viewBox="0 0 512 512" style="enable-background:new 0 0 512 512;" xml:space="preserve">
<g>
	<g>
		<path d="M331.565,64.419c-28.266,0-54.703,13.474-75.565,38.222c-20.862-24.748-47.298-38.222-75.565-38.222
			c-24.683,0-47.968,10.278-67.367,29.359c25.992,1.808,52.449,12.103,77.015,30.105c7.343,5.381,14.372,11.377,21.06,17.888
			c14.15-7.053,29.207-10.628,44.857-10.628s30.707,3.573,44.857,10.628c6.688-6.51,13.717-12.507,21.06-17.888
			c24.565-18,51.021-28.295,77.015-30.105C379.533,74.698,356.248,64.419,331.565,64.419z"/>
	</g>
</g>
<g>
	<g>
		<path d="M104.852,127.74c-11.693,0-22.982,2.539-33.356,7.893c-37.252,19.226-51.777,69.123-40.04,122.796l65.606,28.118
			l39.152-11.762c1.435-34.503,11.807-67.175,29.602-92.756c5.151-7.405,10.793-14.063,16.879-19.957
			C158.524,140.183,130.711,127.74,104.852,127.74z"/>
	</g>
</g>
<g>
	<g>
		<path d="M440.505,135.633c-10.374-5.354-21.663-7.894-33.356-7.893c-25.859,0.001-53.67,12.444-77.844,34.331
			c6.084,5.895,11.728,12.552,16.878,19.957c17.796,25.581,28.168,58.253,29.603,92.756l39.152,11.762l65.606-28.117
			C492.282,204.755,477.755,154.858,440.505,135.633z"/>
	</g>
</g>
<g>
	<g>
		<path d="M318.044,201.604c-16.231-23.332-38.266-36.182-62.044-36.182c-23.779,0-45.813,12.85-62.044,36.182
			c-13.822,19.869-21.992,45.49-23.408,72.887l29.209,21.166L256,261.912l56.242,33.745l29.209-21.166
			C340.036,247.093,331.865,221.473,318.044,201.604z"/>
	</g>
</g>
<g>
	<g>
		<polygon points="416.997,322.958 357.608,305.116 314.02,336.7 256,301.888 197.98,336.7 154.392,305.116 95.003,322.958 
			0,282.243 11.299,395.234 102.907,447.581 409.093,447.581 500.701,395.234 512,282.243 		"/>
	</g>
</g>
<g>
</g>
<g>
</g>
<g>
</g>
<g>
</g>
<g>
</g>
<g>
</g>
<g>
</g>
<g>
</g>
<g>
</g>
<g>
</g>
<g>
</g>
<g>
</g>
<g>
</g>
<g>
</g>
<g>
</g>
</svg>
