<?xml version="1.0" encoding="iso-8859-1"?>
<!-- Generator: Adobe Illustrator 19.0.0, SVG Export Plug-In . SVG Version: 6.00 Build 0)  -->
<svg version="1.1" id="Layer_1" xmlns="http://www.w3.org/2000/svg" xmlns:xlink="http://www.w3.org/1999/xlink" x="0px" y="0px"
	 viewBox="0 0 512 512" style="enable-background:new 0 0 512 512;" xml:space="preserve">
<g>
	<g>
		<path d="M172.147,2.767C165.292,0.942,158.232,0,151.04,0c-29.719,0-57.174,15.94-77.308,44.882
			C55.663,70.856,45.487,104.803,44.86,140.8h86.604c-0.591-5.143-0.904-10.373-0.904-15.68c0-41.185,11.496-80.394,32.37-110.401
			C165.866,10.499,168.942,6.515,172.147,2.767z"/>
	</g>
</g>
<g>
	<g>
		<path d="M467.14,140.8c-0.627-35.997-10.803-69.944-28.872-95.918C418.134,15.94,390.679,0,360.96,0
			c-7.192,0-14.252,0.942-21.107,2.767c3.205,3.748,6.282,7.73,9.217,11.951c20.874,30.007,32.37,69.216,32.37,110.401
			c0,5.307-0.312,10.537-0.904,15.68H467.14z"/>
	</g>
</g>
<g>
	<g>
		<path d="M317.547,36.646C301.106,13.015,279.249,0,256,0c-23.249,0-45.106,13.015-61.548,36.648
			C178.013,60.28,168.96,91.701,168.96,125.12c0,5.347,0.453,10.581,1.277,15.68h171.525c0.826-5.099,1.277-10.333,1.277-15.68
			C343.04,91.701,333.987,60.28,317.547,36.646z"/>
	</g>
</g>
<g>
	<g>
		<path d="M19.2,179.2v19.2c0,8.41,0.616,16.678,1.783,24.772c19.512,18.934,45.629,29.713,73.737,29.713
			c24.946,0,49.198-8.835,68.288-24.878l12.352-10.38l12.352,10.38c19.09,16.042,43.341,24.878,68.288,24.878
			s49.198-8.835,68.288-24.878l12.352-10.38l12.352,10.38c19.09,16.042,43.341,24.878,68.288,24.878
			c28.108,0,54.225-10.78,73.737-29.714c1.167-8.092,1.783-16.361,1.783-24.771v-19.2H19.2z"/>
	</g>
</g>
<g>
	<g>
		<path d="M471.997,280.539c-17.28,7.06-35.884,10.746-54.717,10.746c-28.791,0-56.909-8.646-80.64-24.584
			c-23.731,15.937-51.849,24.584-80.64,24.584s-56.909-8.646-80.64-24.584c-23.731,15.937-51.849,24.584-80.64,24.584
			c-18.834,0-37.437-3.686-54.717-10.747C69.272,334.487,126.428,371.2,192,371.2l25.783,38.674
			c-39.45,3.178-70.583,36.274-70.583,76.526c0,2.789,0.164,5.663,0.488,8.543L149.603,512h212.795l1.915-17.057
			c0.324-2.88,0.488-5.754,0.488-8.543c0-40.252-31.135-73.348-70.583-76.526L320,371.2
			C385.572,371.2,442.728,334.487,471.997,280.539z"/>
	</g>
</g>
<g>
</g>
<g>
</g>
<g>
</g>
<g>
</g>
<g>
</g>
<g>
</g>
<g>
</g>
<g>
</g>
<g>
</g>
<g>
</g>
<g>
</g>
<g>
</g>
<g>
</g>
<g>
</g>
<g>
</g>
</svg>
