<?xml version="1.0" encoding="iso-8859-1"?>
<!-- Generator: Adobe Illustrator 19.0.0, SVG Export Plug-In . SVG Version: 6.00 Build 0)  -->
<svg version="1.1" id="Layer_1" xmlns="http://www.w3.org/2000/svg" xmlns:xlink="http://www.w3.org/1999/xlink" x="0px" y="0px"
	 viewBox="0 0 512 512" style="enable-background:new 0 0 512 512;" xml:space="preserve">
<g>
	<g>
		<g>
			<path d="M185.228,153.013c-25.676-22.785-72.358-49.945-148.948-49.945H23.973l-3.641,11.757C19.502,117.507,0,181.35,0,256.001
				s19.502,138.494,20.332,141.174l3.641,11.757h12.308c76.59,0,123.272-27.159,148.948-49.944
				c4.587-4.07,8.677-8.153,12.337-12.149V165.161C193.906,161.165,189.813,157.082,185.228,153.013z"/>
			<rect x="230.957" y="194.538" width="50.087" height="123.236"/>
			<path d="M491.668,114.827l-3.64-11.758h-12.309c-76.591,0-123.272,27.161-148.946,49.945c-4.586,4.069-8.678,8.152-12.338,12.148
				v181.678c3.66,3.996,7.751,8.08,12.338,12.149c25.675,22.784,72.357,49.945,148.946,49.945h12.309l3.641-11.757
				c0.829-2.68,20.331-66.523,20.331-141.174S492.498,117.507,491.668,114.827z"/>
		</g>
	</g>
</g>
<g>
</g>
<g>
</g>
<g>
</g>
<g>
</g>
<g>
</g>
<g>
</g>
<g>
</g>
<g>
</g>
<g>
</g>
<g>
</g>
<g>
</g>
<g>
</g>
<g>
</g>
<g>
</g>
<g>
</g>
</svg>
