<?xml version="1.0" encoding="iso-8859-1"?>
<!-- Generator: Adobe Illustrator 19.0.0, SVG Export Plug-In . SVG Version: 6.00 Build 0)  -->
<svg version="1.1" id="Layer_1" xmlns="http://www.w3.org/2000/svg" xmlns:xlink="http://www.w3.org/1999/xlink" x="0px" y="0px"
	 viewBox="0 0 511.999 511.999" style="enable-background:new 0 0 511.999 511.999;" xml:space="preserve">
<g>
	<g>
		<path d="M399.507,428.669v0.001c-9.756-29.266-14.508-59.684-16.762-88.978H370.87c-19.918,0-30.823-7.853-38.788-13.586
			c-6.351-4.572-9.85-7.091-18.653-7.091c-8.8,0-12.298,2.518-18.648,7.091c-7.963,5.733-18.869,13.586-38.785,13.586
			c-19.918,0-30.822-7.853-38.786-13.586c-6.35-4.572-9.848-7.091-18.648-7.091c-8.8,0-12.298,2.518-18.648,7.091
			c-7.963,5.733-18.869,13.586-38.784,13.586h-11.875c-2.254,29.295-7.006,59.713-16.762,88.977l-12.159,36.477H204.54
			c2.449,26.242,24.587,46.853,51.459,46.853c26.872,0,49.009-20.61,51.459-46.853h104.208L399.507,428.669z M192.82,402.871
			c-9.516,0-17.231-7.715-17.231-17.231c0-9.516,7.715-17.231,17.231-17.231c9.516,0,17.231,7.715,17.231,17.231
			C210.051,395.156,202.336,402.871,192.82,402.871z M255.999,402.871c-9.516,0-17.231-7.715-17.231-17.231
			c0-9.516,7.715-17.231,17.231-17.231c9.516,0,17.231,7.715,17.231,17.231C273.23,395.156,265.515,402.871,255.999,402.871z
			 M319.179,402.871c-9.516,0-17.231-7.715-17.231-17.231c0-9.516,7.715-17.231,17.231-17.231c9.516,0,17.231,7.715,17.231,17.231
			C336.41,395.156,328.695,402.871,319.179,402.871z"/>
	</g>
</g>
<g>
	<g>
		<path d="M380.829,281.628c0-36.448-15.705-69.294-40.7-92.136c3.252-3.389,5.749-7.594,7.125-12.424
			c2.604-9.138,0.634-18.49-4.54-25.629c5.174-7.139,7.144-16.49,4.54-25.628c-4.503-15.803-20.965-24.963-36.768-20.461
			c-1.48,0.422-3.149,1.169-4.957,2.177c11.993-25.651,13.65-37.448,13.65-44.347C319.18,28.342,290.838,0,256.001,0
			c-34.837,0-63.179,28.342-63.179,63.179c0,6.9,1.655,18.697,13.65,44.347c-1.809-1.007-3.477-1.754-4.957-2.177
			c-15.803-4.503-32.265,4.658-36.768,20.461c-2.605,9.137-0.634,18.489,4.54,25.628c-5.174,7.139-7.145,16.49-4.54,25.629
			c1.376,4.83,3.875,9.036,7.125,12.424c-24.996,22.842-40.7,55.689-40.7,92.136c0,7.662-0.068,15.549-0.256,23.602h10.214
			c8.799,0,12.296-2.519,18.647-7.091c7.963-5.733,18.869-13.586,38.785-13.586s30.821,7.853,38.785,13.586
			c6.35,4.572,9.848,7.091,18.649,7.091c8.8,0,12.298-2.518,18.648-7.091c7.963-5.733,18.869-13.586,38.785-13.586
			c19.918,0,30.824,7.853,38.788,13.586c6.351,4.572,9.85,7.091,18.653,7.091h10.213
			C380.897,297.177,380.829,289.29,380.829,281.628z M255.999,128.108c-18.049-31.714-28.718-57.061-28.718-64.929
			c0-15.835,12.883-28.718,28.718-28.718c15.835,0,28.718,12.883,28.718,28.718C284.717,71.048,274.048,96.395,255.999,128.108z"/>
	</g>
</g>
<g>
</g>
<g>
</g>
<g>
</g>
<g>
</g>
<g>
</g>
<g>
</g>
<g>
</g>
<g>
</g>
<g>
</g>
<g>
</g>
<g>
</g>
<g>
</g>
<g>
</g>
<g>
</g>
<g>
</g>
</svg>
