<?xml version="1.0" encoding="iso-8859-1"?>
<!-- Generator: Adobe Illustrator 19.0.0, SVG Export Plug-In . SVG Version: 6.00 Build 0)  -->
<svg version="1.1" id="Layer_1" xmlns="http://www.w3.org/2000/svg" xmlns:xlink="http://www.w3.org/1999/xlink" x="0px" y="0px"
	 viewBox="0 0 512 512" style="enable-background:new 0 0 512 512;" xml:space="preserve">
<g>
	<g>
		<path d="M256,0C142.892,0,51.2,131.808,51.2,294.4C51.2,414.578,142.892,512,256,512c113.107,0,204.8-97.422,204.8-217.6
			C460.8,131.808,369.107,0,256,0z M256,454.4c-81.166,0-147.2-71.776-147.2-160h38.4c0,67.05,48.808,121.6,108.8,121.6V454.4z
			 M322.008,141.05C294.742,101.852,268.948,96,256,96V57.6c20.442,0,60.293,7.992,97.531,61.521L322.008,141.05z"/>
	</g>
</g>
<g>
</g>
<g>
</g>
<g>
</g>
<g>
</g>
<g>
</g>
<g>
</g>
<g>
</g>
<g>
</g>
<g>
</g>
<g>
</g>
<g>
</g>
<g>
</g>
<g>
</g>
<g>
</g>
<g>
</g>
</svg>
