<?xml version="1.0" encoding="iso-8859-1"?>
<!-- Generator: Adobe Illustrator 19.0.0, SVG Export Plug-In . SVG Version: 6.00 Build 0)  -->
<svg version="1.1" id="Layer_1" xmlns="http://www.w3.org/2000/svg" xmlns:xlink="http://www.w3.org/1999/xlink" x="0px" y="0px"
	 viewBox="0 0 512 512" style="enable-background:new 0 0 512 512;" xml:space="preserve">
<g>
	<g>
		<path d="M273.711,69.368c2.012-7.186,8.603-12.479,16.423-12.479h11.378V22.756h-11.378c-8.12,0-15.799,1.908-22.627,5.286
			C259.038,11.42,241.766,0,221.867,0h-11.378v34.133h11.378c9.411,0,17.067,7.656,17.067,17.067v18.094
			c-70.403,8.458-125.156,68.549-125.156,141.195c0,5.734,0.352,11.387,1.014,16.946l50.628,20.39L256,213.857l90.58,33.967
			l50.628-20.39c0.663-5.558,1.015-11.211,1.015-16.945C398.222,138.065,343.805,78.114,273.711,69.368z M199.111,210.489
			c-9.425,0-17.067-7.641-17.067-17.067s7.641-17.067,17.067-17.067c9.425,0,17.067,7.641,17.067,17.067
			S208.536,210.489,199.111,210.489z M312.889,210.489c-9.425,0-17.067-7.641-17.067-17.067s7.641-17.067,17.067-17.067
			s17.067,7.641,17.067,17.067S322.314,210.489,312.889,210.489z"/>
	</g>
</g>
<g>
	<g>
		<path d="M431.774,250.311l-84.752,34.133L256,250.311l-91.022,34.133l-84.751-34.133c-4.085,21.765-6.271,44.648-6.271,68.267
			c0,7.952,0.462,15.789,1.34,23.489c3.066-0.466,6.394-0.735,10.03-0.735c19.727,0,30.529,7.778,38.417,13.456
			c6.29,4.528,9.754,7.023,18.472,7.023c8.716,0,12.181-2.494,18.471-7.023c7.887-5.677,18.689-13.455,38.415-13.455
			c19.729,0,30.531,7.777,38.419,13.457c6.291,4.528,9.756,7.023,18.475,7.023c8.72,0,12.186-2.495,18.476-7.023
			c7.888-5.68,18.69-13.457,38.418-13.457c19.727,0,30.528,7.778,38.415,13.457c6.29,4.528,9.754,7.023,18.47,7.023
			c8.716,0,12.181-2.494,18.471-7.023c7.887-5.679,18.689-13.457,38.415-13.457c3.641,0,6.975,0.269,10.045,0.736
			c0.878-7.702,1.34-15.539,1.34-23.492C438.044,294.959,435.858,272.076,431.774,250.311z"/>
	</g>
</g>
<g>
	<g>
		<path d="M426.659,375.467c-8.715,0-12.18,2.494-18.47,7.023c-7.887,5.679-18.689,13.456-38.416,13.456
			s-30.528-7.778-38.415-13.456c-6.29-4.529-9.754-7.023-18.47-7.023c-8.719,0-12.184,2.495-18.475,7.023
			c-7.888,5.68-18.69,13.456-38.419,13.456c-19.728,0-30.53-7.777-38.418-13.456c-6.291-4.528-9.756-7.023-18.476-7.023
			c-8.715,0-12.18,2.494-18.47,7.023c-7.887,5.679-18.689,13.456-38.416,13.456c-19.727,0-30.529-7.778-38.417-13.456
			c-6.29-4.529-9.754-7.023-18.472-7.023c-1.203,0-2.298,0.052-3.321,0.146C104.912,454.597,174.145,512,256,512
			c81.854,0,151.087-57.403,173.995-136.387C428.966,375.519,427.868,375.467,426.659,375.467z"/>
	</g>
</g>
<g>
</g>
<g>
</g>
<g>
</g>
<g>
</g>
<g>
</g>
<g>
</g>
<g>
</g>
<g>
</g>
<g>
</g>
<g>
</g>
<g>
</g>
<g>
</g>
<g>
</g>
<g>
</g>
<g>
</g>
</svg>
