<?xml version="1.0" encoding="iso-8859-1"?>
<!-- Generator: Adobe Illustrator 19.0.0, SVG Export Plug-In . SVG Version: 6.00 Build 0)  -->
<svg version="1.1" id="Layer_1" xmlns="http://www.w3.org/2000/svg" xmlns:xlink="http://www.w3.org/1999/xlink" x="0px" y="0px"
	 viewBox="0 0 512 512" style="enable-background:new 0 0 512 512;" xml:space="preserve">
<g>
	<g>
		<path d="M409.064,216.063c-7.758,0-15.317,0.868-22.589,2.503l-13.879-34.34V90.064h-77.409v33.391h44.018v58.015l-87.242,105.704
			l-55.376-130.157h30.051v-33.391H116.035v33.391h44.264l13.607,31.983l-26.223,37.307c-13.538-6.562-28.719-10.245-44.746-10.245
			C46.177,216.063,0,262.24,0,318.999s46.177,102.936,102.937,102.936c51.077,0,93.574-37.394,101.575-86.241h50.7l95.717-115.972
			l4.602,11.387c-29.604,18.098-49.404,50.724-49.404,87.89c0,56.76,46.177,102.936,102.937,102.936S512,375.76,512,318.999
			S465.823,216.063,409.064,216.063z M189.295,225.173l32.815,77.131h-17.599c-3.612-22.049-14.251-41.761-29.538-56.756
			L189.295,225.173z M155.389,273.411c7.122,8.184,12.367,18.036,15.053,28.893H135.08L155.389,273.411z M102.936,388.545
			c-38.348,0-69.545-31.196-69.545-69.545s31.198-69.546,69.545-69.546c8.87,0,17.348,1.687,25.154,4.727l-57.297,81.515h99.648
			C162.944,366.003,135.529,388.545,102.936,388.545z M409.064,388.543c-38.348,0-69.545-31.198-69.545-69.545
			c0-23.129,11.359-43.644,28.781-56.295l25.274,62.533l30.957-12.512l-25.287-62.566c3.21-0.456,6.486-0.706,9.82-0.706
			c38.348,0,69.545,31.199,69.545,69.546S447.411,388.543,409.064,388.543z"/>
	</g>
</g>
<g>
</g>
<g>
</g>
<g>
</g>
<g>
</g>
<g>
</g>
<g>
</g>
<g>
</g>
<g>
</g>
<g>
</g>
<g>
</g>
<g>
</g>
<g>
</g>
<g>
</g>
<g>
</g>
<g>
</g>
</svg>
