<?xml version="1.0" encoding="iso-8859-1"?>
<!-- Generator: Adobe Illustrator 19.0.0, SVG Export Plug-In . SVG Version: 6.00 Build 0)  -->
<svg version="1.1" id="Layer_1" xmlns="http://www.w3.org/2000/svg" xmlns:xlink="http://www.w3.org/1999/xlink" x="0px" y="0px"
	 viewBox="0 0 512 512" style="enable-background:new 0 0 512 512;" xml:space="preserve">
<g>
	<g>
		<path d="M456.347,279.157c-7.895,5.043-18.943,10.234-35.571,10.234c-21.639,0-33.847-8.79-41.925-14.606
			c-6.104-4.396-8.631-6.215-15.909-6.215s-9.804,1.819-15.908,6.215c-2.725,1.962-5.764,4.143-9.412,6.243v38.117l37.526,0.19
			c17.832,0.125,34.54,7.204,47.089,19.929c12.549,12.727,19.391,29.531,19.266,47.322c-0.125,17.788-7.202,34.495-19.929,47.045
			c-12.613,12.436-29.232,19.268-46.841,19.268c-0.16,0-0.319-0.001-0.479-0.001l-36.631-0.375V512h118.725L456.347,279.157
			L456.347,279.157z"/>
	</g>
</g>
<g>
	<g>
		<path d="M434.086,185.507h-74.203c-12.275,0-22.261,9.986-22.261,22.261v21.109c6.646-2.772,14.876-4.828,25.32-4.828
			c21.639,0,33.845,8.79,41.925,14.606c6.104,4.396,8.631,6.215,15.911,6.215c7.278,0,9.804-1.819,15.909-6.215
			c4.755-3.424,10.963-7.867,19.662-10.952v-19.935C456.347,195.493,446.361,185.507,434.086,185.507z"/>
	</g>
</g>
<g>
	<g>
		<path d="M396.985,0c0,0-59.362,56.258-59.362,89.043c0,22.356,12.364,41.818,30.622,51.942c8.517,4.722,18.312,7.42,28.74,7.42
			c10.428,0,20.223-2.698,28.74-7.42c18.258-10.124,30.622-29.586,30.622-51.942C456.347,56.258,396.985,0,396.985,0z"/>
	</g>
</g>
<g>
	<g>
		<path d="M390.534,370.523c-4.2-4.258-9.759-6.626-15.655-6.666l-148.674-0.751l0.224-44.522l66.67,0.337V207.768
			c0-7.803,1.358-15.293,3.829-22.261h-60.22c-38.48,0-72.588,24.475-85.979,59.362H55.651v252.29h165.048
			c38.217,0,69.593-29.772,72.204-67.336l0.196,0.003l0.229-22.283l81.31,0.834c5.849,0,11.418-2.248,15.676-6.448
			c4.258-4.2,6.626-9.759,6.668-15.657C397.023,380.375,394.733,374.783,390.534,370.523z"/>
	</g>
</g>
<g>
</g>
<g>
</g>
<g>
</g>
<g>
</g>
<g>
</g>
<g>
</g>
<g>
</g>
<g>
</g>
<g>
</g>
<g>
</g>
<g>
</g>
<g>
</g>
<g>
</g>
<g>
</g>
<g>
</g>
</svg>
