<?xml version="1.0" encoding="iso-8859-1"?>
<!-- Generator: Adobe Illustrator 19.0.0, SVG Export Plug-In . SVG Version: 6.00 Build 0)  -->
<svg xmlns="http://www.w3.org/2000/svg" xmlns:xlink="http://www.w3.org/1999/xlink" version="1.1" id="Layer_1" x="0px" y="0px" viewBox="0 0 512.001 512.001" style="enable-background:new 0 0 512.001 512.001;" xml:space="preserve">
<g>
	<g>
		<path d="M425.388,69.685C383.7,27.997,329.351,3.585,271.015,0v87.003l42.147,42.148l-21.234,21.234l-35.929-35.928    l-35.929,35.928l-21.234-21.234l42.147-42.148V0C182.649,3.585,128.3,27.997,86.612,69.685    C41.367,114.93,16.449,175.087,16.449,239.074c0,43.115,11.589,85.392,33.516,122.258c19.773,33.246,47.4,61.314,80.247,81.621    v18.022v51.027h40.372v-41.01h30.029V512h40.373v-41.009h30.029V512h40.373v-41.009h30.029V512h40.372v-51.027v-18.022    c32.845-20.307,60.473-48.375,80.247-81.621c21.926-36.866,33.516-79.142,33.516-122.258    C495.551,175.087,470.633,114.93,425.388,69.685z M152.846,345.42c-42.656,0-77.359-34.703-77.359-77.359    c0-42.656,34.703-77.359,77.359-77.359c42.656,0,77.359,34.703,77.359,77.359C230.204,310.717,195.501,345.42,152.846,345.42z     M274.122,403.351h-36.244c-9.49,0-15.662-9.987-11.418-18.475l18.123-36.244c4.705-9.409,18.132-9.409,22.835,0l18.123,36.244    C289.785,393.364,283.613,403.351,274.122,403.351z M359.154,345.42c-42.656,0-77.359-34.703-77.359-77.359    c0-42.656,34.703-77.359,77.359-77.359c42.656,0,77.359,34.703,77.359,77.359C436.513,310.717,401.81,345.42,359.154,345.42z"/>
	</g>
</g>
<g>
</g>
<g>
</g>
<g>
</g>
<g>
</g>
<g>
</g>
<g>
</g>
<g>
</g>
<g>
</g>
<g>
</g>
<g>
</g>
<g>
</g>
<g>
</g>
<g>
</g>
<g>
</g>
<g>
</g>
</svg>
