<svg id="Capa_1" enable-background="new 0 0 510.59 510.59" height="512" viewBox="0 0 510.59 510.59" width="512" xmlns="http://www.w3.org/2000/svg"><g><path d="m362.922 177.093 56.403-29.654 56.404 29.655-10.772-62.809 45.633-44.479-63.063-9.164-28.202-57.145-28.202 57.145-63.063 9.164 45.632 44.479z"/><path d="m34.86 177.094 56.405-29.655 56.405 29.655-10.773-62.809 45.632-44.479-63.062-9.164-28.202-57.145-28.203 57.145-63.062 9.164 45.632 44.479z"/><path d="m447.527 390.642-28.202-57.145-28.202 57.145-63.063 9.163 45.632 44.48-10.77 62.808 56.403-29.654 56.404 29.654-10.772-62.808 45.633-44.48z"/><path d="m119.467 390.642-28.202-57.145-28.203 57.145-63.062 9.163 45.632 44.48-10.772 62.808 56.405-29.654 56.404 29.654-10.772-62.808 45.632-44.48z"/><path d="m407.488 254.673-98.385-53.81-53.808-98.384-53.809 98.384-98.385 53.81 98.385 53.808 53.809 98.386 53.808-98.386z"/><path d="m195.295 464.673h30v30h-30z"/><path d="m285.295 464.673h30v30h-30z"/><path d="m195.295 14.673h30v30h-30z"/><path d="m285.295 14.673h30v30h-30z"/><path d="m450.295 239.673h30v30h-30z"/><path d="m30.295 239.673h30v30h-30z"/></g></svg>