<?xml version="1.0" encoding="iso-8859-1"?>
<!-- Generator: Adobe Illustrator 19.0.0, SVG Export Plug-In . SVG Version: 6.00 Build 0)  -->
<svg version="1.1" id="Layer_1" xmlns="http://www.w3.org/2000/svg" xmlns:xlink="http://www.w3.org/1999/xlink" x="0px" y="0px"
	 viewBox="0 0 512 512" style="enable-background:new 0 0 512 512;" xml:space="preserve">
<g>
	<g>
		<g>
			<path d="M317.134,175.761H194.866l-45.851,61.134H42.03V512h427.94V236.896H362.985L317.134,175.761z M256,435.582
				c-42.204,0-76.418-34.214-76.418-76.418s34.214-76.418,76.418-76.418s76.418,34.214,76.418,76.418S298.204,435.582,256,435.582z"
				/>
			<path d="M399.224,38.395c-13.439,15.357-20.593,22.739-36.242,22.739c-15.649,0-22.803-7.382-36.242-22.739
				C312.563,22.193,293.144,0,255.994,0c-37.15,0-56.568,22.193-70.746,38.397c-13.436,15.355-20.59,22.737-36.237,22.737
				c-15.647,0-22.802-7.382-36.237-22.739C98.596,22.193,79.178,0,42.03,0v45.851c15.647,0,22.8,7.382,36.236,22.737
				c14.179,16.204,33.595,38.397,70.745,38.397c37.148,0,56.566-22.193,70.745-38.395c13.436-15.357,20.59-22.739,36.239-22.739
				s22.803,7.382,36.242,22.739c14.177,16.202,33.596,38.395,70.746,38.395c37.15,0,56.569-22.193,70.746-38.395
				c13.439-15.357,20.593-22.739,36.242-22.739V0C432.82,0,413.401,22.193,399.224,38.395z"/>
		</g>
	</g>
</g>
<g>
</g>
<g>
</g>
<g>
</g>
<g>
</g>
<g>
</g>
<g>
</g>
<g>
</g>
<g>
</g>
<g>
</g>
<g>
</g>
<g>
</g>
<g>
</g>
<g>
</g>
<g>
</g>
<g>
</g>
</svg>
