<?xml version="1.0" encoding="iso-8859-1"?>
<!-- Generator: Adobe Illustrator 19.0.0, SVG Export Plug-In . SVG Version: 6.00 Build 0)  -->
<svg xmlns="http://www.w3.org/2000/svg" xmlns:xlink="http://www.w3.org/1999/xlink" version="1.1" id="Layer_1" x="0px" y="0px" viewBox="0 0 512 512" style="enable-background:new 0 0 512 512;" xml:space="preserve">
<g>
	<g>
		<path d="M0,33.391v33.391h38.957v50.087H0v83.911c38.259,22.132,64,63.495,64,110.871v61.729    c8.237,27.546,33.811,47.681,64,47.681v-109.41c0-52.917,32.114-98.332,77.913-117.826V33.391H0z M172.522,116.87H72.348V66.783    h100.174V116.87z"/>
	</g>
</g>
<g>
	<g>
		<path d="M512,66.783V33.391H272.696V0h-33.391v311.652h33.391V184.736C335.499,192.918,384,246.619,384,311.652v109.411    c30.189,0,55.763-20.135,64-47.682v-61.729c0-47.377,25.741-88.74,64-110.871V116.87h-38.957V66.783H512z M306.087,116.87h-33.391    V66.783h33.391V116.87z M439.652,116.87H339.478V66.783h100.174V116.87z"/>
	</g>
</g>
<g>
	<g>
		<path d="M454.936,436.589c-1.121-0.78-2.229-1.585-3.325-2.414c-1.228-0.928-2.431-1.885-3.612-2.871    c-1.182,0.985-2.385,1.941-3.612,2.871c-1.095,0.829-2.204,1.634-3.325,2.414c-16.814,11.703-36.454,17.865-57.064,17.865    c-20.609,0-40.25-6.163-57.064-17.865c-1.121-0.78-2.229-1.585-3.325-2.414c-1.228-0.928-2.431-1.885-3.612-2.871    c-1.182,0.985-2.385,1.941-3.612,2.871c-1.095,0.829-2.204,1.634-3.325,2.414c-16.814,11.703-36.454,17.865-57.064,17.865    s-40.25-6.163-57.064-17.865c-1.121-0.78-2.229-1.585-3.325-2.414c-1.228-0.928-2.431-1.885-3.612-2.871    c-1.182,0.985-2.385,1.941-3.612,2.871c-1.095,0.829-2.204,1.634-3.325,2.414c-16.814,11.703-36.454,17.865-57.064,17.865    s-40.25-6.163-57.063-17.865c-1.121-0.78-2.229-1.585-3.325-2.414c-1.228-0.928-2.431-1.885-3.612-2.871    c-1.182,0.985-2.385,1.941-3.612,2.871c-1.095,0.829-2.204,1.634-3.325,2.414C40.25,448.292,20.609,454.455,0,454.455V512h512    v-57.545C491.391,454.455,471.75,448.292,454.936,436.589z"/>
	</g>
</g>
<g>
</g>
<g>
</g>
<g>
</g>
<g>
</g>
<g>
</g>
<g>
</g>
<g>
</g>
<g>
</g>
<g>
</g>
<g>
</g>
<g>
</g>
<g>
</g>
<g>
</g>
<g>
</g>
<g>
</g>
</svg>
