<?xml version="1.0" encoding="iso-8859-1"?>
<!-- Generator: Adobe Illustrator 19.0.0, SVG Export Plug-In . SVG Version: 6.00 Build 0)  -->
<svg xmlns="http://www.w3.org/2000/svg" xmlns:xlink="http://www.w3.org/1999/xlink" version="1.1" id="Layer_1" x="0px" y="0px" viewBox="0 0 512 512" style="enable-background:new 0 0 512 512;" xml:space="preserve">
<g>
	<g>
		<polygon points="459.018,199.558 459.018,245.058 497.589,224.073   "/>
	</g>
</g>
<g>
	<g>
		<polygon points="14.41,224.073 52.982,245.058 52.982,199.558   "/>
	</g>
</g>
<g>
	<g>
		<polygon points="0,250.389 0,489.828 177.233,346.808   "/>
	</g>
</g>
<g>
	<g>
		<g>
			<polygon points="318.178,355.833 334.766,346.808 334.766,346.808    "/>
			<polygon points="512,250.388 334.766,346.808 512,489.828    "/>
		</g>
	</g>
</g>
<g>
	<g>
		<polygon points="306.23,362.333 256,389.66 205.77,362.333 20.299,512 491.701,512   "/>
	</g>
</g>
<g>
	<g>
		<path d="M82.984,0v261.38L256,355.506l173.016-94.126V0H82.984z M108.017,53.013h25.001V28.011h30.001v25.001h25.001v30.001    H163.02v25.001h-30.001V83.014h-25.001C108.017,83.014,108.017,53.013,108.017,53.013z M403.983,235.913H108.017v-30.001h295.966    V235.913z M403.983,184.947H108.017v-30.001h295.966V184.947z M403.983,133.98H218.046v-30.001h185.937V133.98z M403.983,83.014    H218.046V53.013h185.937V83.014z"/>
	</g>
</g>
<g>
</g>
<g>
</g>
<g>
</g>
<g>
</g>
<g>
</g>
<g>
</g>
<g>
</g>
<g>
</g>
<g>
</g>
<g>
</g>
<g>
</g>
<g>
</g>
<g>
</g>
<g>
</g>
<g>
</g>
</svg>
