<svg id="Capa_1" enable-background="new 0 0 510.003 510.003" height="512" viewBox="0 0 510.003 510.003" width="512" xmlns="http://www.w3.org/2000/svg"><g><path d="m345.002 480.003c-33.084 0-60-26.916-60-60v-90h-60v90c0 33.084-26.916 60-60 60h-30v30h240v-30z"/><g><circle cx="255.002" cy="135.003" r="15"/><circle cx="165.002" cy="225.003" r="15"/><circle cx="345.002" cy="225.003" r="15"/><path d="m433.086 124.243c2.569-33.787-21.354-63.766-54.847-68.775-12.343-31.555-46.905-48.186-79.254-38.167-24.812-23.074-63.168-23.062-87.966 0-32.367-10.024-66.918 6.629-79.255 38.167-33.511 5.013-57.415 35.008-54.847 68.775-28.017 19.055-36.539 56.451-19.574 85.76-16.975 29.324-8.428 66.715 19.574 85.761-2.57 33.786 21.354 63.765 54.847 68.774 10.387 26.555 36.322 42.3 63.237 40.98v-105.515h120v105.515c26.941 1.321 52.859-14.448 63.237-40.98 33.511-5.012 57.415-35.008 54.847-68.774 28.017-19.056 36.539-56.452 19.574-85.761 7.892-13.633 8.429-66.715-19.573-85.76zm-268.084 145.76c-24.812 0-45-20.188-45-45 0-19.555 12.541-36.228 30-42.42v-32.58h30v32.58c17.459 6.192 30 22.865 30 42.42 0 24.813-20.188 45-45 45zm90-90c-24.812 0-45-20.188-45-45 0-19.555 12.541-36.228 30-42.42v-32.58h30v32.58c17.459 6.192 30 22.865 30 42.42 0 24.813-20.187 45-45 45zm90 90c-24.814 0-45-20.188-45-45 0-19.555 12.541-36.228 30-42.42v-32.58h30v32.58c17.459 6.192 30 22.865 30 42.42 0 24.813-20.187 45-45 45z"/></g></g></svg>