<?xml version="1.0" encoding="iso-8859-1"?>
<!-- Generator: Adobe Illustrator 19.0.0, SVG Export Plug-In . SVG Version: 6.00 Build 0)  -->
<svg xmlns="http://www.w3.org/2000/svg" xmlns:xlink="http://www.w3.org/1999/xlink" version="1.1" id="Capa_1" x="0px" y="0px" viewBox="0 0 512 512" style="enable-background:new 0 0 512 512;" xml:space="preserve">
<g>
	<g>
		<path d="M416.69,364.085c-23.502-23.719-61.847-23.689-85.311,0.068L294,402l-2.409-0.942    C208.423,368.541,142.843,302.429,111,219l37.905-38.379c23.259-23.55,23.054-61.487-0.459-84.784L82,30C36.676,30,0,66.676,0,112    c0,220.914,179.086,400,400,400c45.324,0,82-36.676,82-82L416.69,364.085z"/>
	</g>
</g>
<g>
	<g>
		<path d="M437.02,74.981C388.667,26.629,324.38,0,256,0v30c124.617,0,226,101.383,226,226h30    C512,187.62,485.371,123.333,437.02,74.981z"/>
	</g>
</g>
<g>
	<g>
		<path d="M256,90v30c74.991,0,136,61.009,136,136h30C422,164.467,347.533,90,256,90z"/>
	</g>
</g>
<g>
</g>
<g>
</g>
<g>
</g>
<g>
</g>
<g>
</g>
<g>
</g>
<g>
</g>
<g>
</g>
<g>
</g>
<g>
</g>
<g>
</g>
<g>
</g>
<g>
</g>
<g>
</g>
<g>
</g>
</svg>
