<?xml version="1.0" encoding="iso-8859-1"?>
<!-- Generator: Adobe Illustrator 19.0.0, SVG Export Plug-In . SVG Version: 6.00 Build 0)  -->
<svg xmlns="http://www.w3.org/2000/svg" xmlns:xlink="http://www.w3.org/1999/xlink" version="1.1" id="Layer_1" x="0px" y="0px" viewBox="0 0 512 512" style="enable-background:new 0 0 512 512;" xml:space="preserve">
<g>
	<g>
		<path d="M54.857,0v512h402.286V0H54.857z M420.571,310.857H310.857v-36.571H201.143v36.571H91.429V36.571h329.143V310.857z"/>
	</g>
</g>
<g>
	<g>
		<path d="M256,97.524c-30.248,0-54.857,24.609-54.857,54.857s24.609,54.857,54.857,54.857s54.857-24.609,54.857-54.857    S286.248,97.524,256,97.524z M256,170.667c-10.083,0-18.286-8.203-18.286-18.286c0-10.083,8.203-18.286,18.286-18.286    c10.083,0,18.286,8.203,18.286,18.286C274.286,162.464,266.083,170.667,256,170.667z"/>
	</g>
</g>
<g>
</g>
<g>
</g>
<g>
</g>
<g>
</g>
<g>
</g>
<g>
</g>
<g>
</g>
<g>
</g>
<g>
</g>
<g>
</g>
<g>
</g>
<g>
</g>
<g>
</g>
<g>
</g>
<g>
</g>
</svg>
