<?xml version="1.0" encoding="iso-8859-1"?>
<!-- Generator: Adobe Illustrator 19.0.0, SVG Export Plug-In . SVG Version: 6.00 Build 0)  -->
<svg xmlns="http://www.w3.org/2000/svg" xmlns:xlink="http://www.w3.org/1999/xlink" version="1.1" id="Layer_1" x="0px" y="0px" viewBox="0 0 511.999 511.999" style="enable-background:new 0 0 511.999 511.999;" xml:space="preserve">
<g>
	<g>
		<path d="M511.999,200.734H0v75.449C0,331.657,17.681,384.7,50.299,428.587c-20.225,2.624-35.902,19.949-35.902,40.877v42.532    h479.187v-42.532c0-19.683-13.867-36.179-32.341-40.257c32.913-44.007,50.756-97.289,50.756-153.024V200.734z M296.15,379.3    c-3.547,0-7.08-0.382-10.542-1.09c-2.027,2.929-4.327,5.725-6.933,8.331c-11.365,11.365-26.477,17.626-42.55,17.626    c-16.073,0-31.185-6.259-42.551-17.625c-38.556-38.559-29.523-99.176-29.12-101.739l1.698-10.786l10.786-1.699    c2.083-0.328,42.548-6.36,78.329,12.123c12.616-22.402,31.091-36.056,32.051-36.755l8.828-6.432l8.831,6.428    c1.787,1.3,43.761,32.389,43.761,79.028C348.739,355.709,325.148,379.3,296.15,379.3z"/>
	</g>
</g>
<g>
	<g>
		<g>
			<path d="M62.898,3.192c-10.334,4.28-18.383,12.33-22.664,22.663c-4.28,10.334-4.28,21.718,0,32.051l46.734,112.825h90.656     l-60.01-144.877C108.776,4.522,84.231-5.645,62.898,3.192z"/>
			<polygon points="177.624,170.731 177.624,170.731 177.624,170.732    "/>
		</g>
	</g>
</g>
<g>
	<g>
		<path d="M266.212,341.987c-0.007-0.102-0.014-0.205-0.022-0.307c-0.437-5.63-2.437-11.096-5.86-15.704    c-0.008-0.01-0.016-0.021-0.024-0.031c-0.378-0.508-0.78-1.001-1.192-1.487c-0.098-0.115-0.195-0.23-0.295-0.344    c-0.436-0.498-0.884-0.987-1.356-1.459c-0.721-0.721-1.478-1.431-2.254-2.129c-0.145-0.131-0.292-0.257-0.437-0.386    c-0.708-0.625-1.43-1.24-2.173-1.838c-0.173-0.14-0.345-0.284-0.519-0.422l-0.358-0.287c-18.973-14.75-43.97-16.765-58.418-16.478    c-0.27,16.016,2.256,44.98,21.486,64.211c5.699,5.701,13.277,8.84,21.336,8.84c8.06,0,15.637-3.139,21.336-8.837    c3.195-3.195,5.515-6.936,6.974-10.924c0.226-0.615,0.435-1.233,0.619-1.856c0.02-0.068,0.036-0.136,0.055-0.204    c0.158-0.55,0.296-1.103,0.421-1.658c0.042-0.186,0.083-0.372,0.122-0.559c0.124-0.601,0.236-1.203,0.323-1.807    c0.015-0.105,0.024-0.211,0.038-0.317c0.071-0.531,0.126-1.064,0.168-1.597c0.015-0.185,0.028-0.369,0.04-0.554    C266.3,344.561,266.298,343.27,266.212,341.987z"/>
	</g>
</g>
<g>
	<g>
		<path d="M296.136,279.879c-5.266,5.34-11.801,13.115-16.483,22.564c12.079,12.656,17.883,29.838,16.397,46.857    c0.033,0,0.067,0,0.102,0c12.455,0,22.587-10.132,22.587-22.587C318.739,306.409,305.43,289.329,296.136,279.879z"/>
	</g>
</g>
<g>
</g>
<g>
</g>
<g>
</g>
<g>
</g>
<g>
</g>
<g>
</g>
<g>
</g>
<g>
</g>
<g>
</g>
<g>
</g>
<g>
</g>
<g>
</g>
<g>
</g>
<g>
</g>
<g>
</g>
</svg>
