<?xml version="1.0" encoding="iso-8859-1"?>
<!-- Generator: Adobe Illustrator 19.0.0, SVG Export Plug-In . SVG Version: 6.00 Build 0)  -->
<svg xmlns="http://www.w3.org/2000/svg" xmlns:xlink="http://www.w3.org/1999/xlink" version="1.1" id="Layer_1" x="0px" y="0px" viewBox="0 0 512 512" style="enable-background:new 0 0 512 512;" xml:space="preserve">
<g>
	<g>
		<path d="M445.435,436.633c-1.189-0.899-2.354-1.826-3.498-2.78c-1.145,0.954-2.31,1.88-3.498,2.78    c-16.97,12.849-37.193,19.639-58.481,19.639c-21.288,0-41.511-6.791-58.481-19.639c-1.189-0.899-2.354-1.826-3.498-2.78    c-1.145,0.954-2.31,1.88-3.498,2.78c-16.97,12.849-37.193,19.639-58.481,19.639c-21.288,0-41.511-6.791-58.481-19.639    c-1.189-0.899-2.354-1.826-3.498-2.78c-1.145,0.954-2.31,1.88-3.498,2.78c-16.97,12.849-37.193,19.639-58.481,19.639    s-41.511-6.791-58.481-19.639c-1.189-0.899-2.354-1.826-3.498-2.78c-1.145,0.954-2.31,1.88-3.498,2.78    c-16.97,12.849-37.193,19.639-58.481,19.639V512h495.832v-55.728C482.627,456.272,462.405,449.481,445.435,436.633z"/>
	</g>
</g>
<g>
	<g>
		<path d="M292.967,369.179l158.131-167.658v-6.422C451.099,87.521,363.578,0,256,0S60.901,87.521,60.901,195.099v6.408    l188.11,200.009h254.905v-32.337H292.967z M93.657,189.135c2.917-21.159,21.107-37.512,43.055-37.512    c23.972,0,43.476,19.503,43.476,43.475v2.481l39.462,125.518L93.657,189.135z M212.586,192.807    c1.194-22.912,20.211-41.183,43.414-41.183c23.204,0,42.22,18.271,43.414,41.183L256,330.899L212.586,192.807z M331.812,197.58    v-2.481c0-23.972,19.503-43.475,43.476-43.475c21.944,0,40.131,16.346,43.054,37.5L292.535,322.507L331.812,197.58z"/>
	</g>
</g>
<g>
</g>
<g>
</g>
<g>
</g>
<g>
</g>
<g>
</g>
<g>
</g>
<g>
</g>
<g>
</g>
<g>
</g>
<g>
</g>
<g>
</g>
<g>
</g>
<g>
</g>
<g>
</g>
<g>
</g>
</svg>
