<svg id="Capa_1" enable-background="new 0 0 510 510" height="512" viewBox="0 0 510 510" width="512" xmlns="http://www.w3.org/2000/svg"><g><path d="m434.999 61.821v233.786h30v-233.786l19.394 19.392 21.212-21.213-55.606-55.607-55.606 55.607 21.212 21.213z"/><path d="m115.606 246.213-21.213-21.213-19.394 19.394v-233.787h-29.999v233.787l-19.394-19.394-21.213 21.213 55.607 55.608z"/><path d="m492.739 336.762c-31.796 4.57-34.71 18.845-67.743 18.845-37.602 0-38.863-20-85.003-20-46.007 0-47.546 19.997-84.993 20-.002 0-.004 0-.007 0-37.601 0-38.859-20-84.997-20-45.736 0-47.808 20-84.998 20-33.047 0-36.013-14.329-67.884-18.866l-17.114-2.256v30l.335.045-.335.214v29.741l17.113 2.256c31.871 4.537 34.837 18.866 67.884 18.866 37.191 0 39.262-20 84.998-20 46.138 0 47.396 20 84.997 20h.007c37.447-.003 38.986-20 84.993-20 46.14 0 47.401 20 85.003 20 33.033 0 35.947-14.274 67.743-18.845l17.262-2.795c0-21.525 0-38.475 0-60z"/><path d="m424.996 445.607c-45.739 0-47.81-20-85.003-20-37.594 0-38.864 19.998-84.993 20-.002 0-.004 0-.007 0-45.735 0-47.807-20-84.997-20-37.601 0-38.861 20-84.998 20-40.38 0-47.517-15.638-72.039-19.155l-12.959-1.708v80.863h510v-81.251l-12.888 2.086c-24.441 3.476-31.862 19.165-72.116 19.165z"/><path d="m254.999 280.607c58.032 0 107.681-41.384 118.055-98.399l2.779-15.279c-16.019 14.702-37.377 23.679-60.834 23.679-49.706 0-90-40.294-90-90 0-23.456 8.977-44.815 23.679-60.835l-15.279 2.78c-57.017 10.374-98.4 60.023-98.4 118.055 0 66.168 53.832 119.999 120 119.999z"/></g></svg>