<?xml version="1.0" encoding="iso-8859-1"?>
<!-- Generator: Adobe Illustrator 19.0.0, SVG Export Plug-In . SVG Version: 6.00 Build 0)  -->
<svg xmlns="http://www.w3.org/2000/svg" xmlns:xlink="http://www.w3.org/1999/xlink" version="1.1" id="Layer_1" x="0px" y="0px" viewBox="0 0 512 512" style="enable-background:new 0 0 512 512;" xml:space="preserve">
<g>
	<g>
		<path d="M256,283.826c-15.957,0-28.939,12.981-28.939,28.939s12.983,28.939,28.939,28.939c15.958,0,28.939-12.981,28.939-28.939    S271.958,283.826,256,283.826z"/>
	</g>
</g>
<g>
	<g>
		<path d="M511.939,202.724c-0.03-0.817-0.072-1.633-0.125-2.448c-0.007-0.119-0.013-0.239-0.021-0.36    c-2.034-29.506-19.04-57.34-48.407-78.934c-32.893-24.185-76.898-37.505-123.907-37.505c-16.776,0-33.165,1.705-48.807,4.985    c40.375,18.894,70.344,48.73,82.193,83.831l-66.449,182.014c-7.646,4.87-16.404,7.43-25.59,7.43h-49.652    c-9.174,0-17.921-2.553-25.593-7.437l-54.172-148.388l-12.744-34.909c8.674-29.115,28.222-55.668,57.127-76.921    c38.585-28.37,89.613-43.995,143.687-43.995c42.062,0,82.277,9.458,116.231,27.01C408.79,30.097,336.77,0,256,0    C114.615,0,0,92.19,0,205.913c0,22.077,10.719,41.645,27.229,53.802l154.237,118.417c7.469,5.784,15.707,10.135,24.447,12.994    v70.787h38.956V512h33.391v-50.087h33.391V512h33.391v-83.478h-38.956v-37.393c8.731-2.853,16.954-7.193,24.391-12.954    l154.292-118.461C501.281,247.558,512,227.99,512,205.913C512,204.851,511.974,203.788,511.939,202.724z M92.351,267.616    c14.957-6.205,27.163-17.687,34.308-32.126l29.657,81.235L92.351,267.616z M355.684,316.727l29.657-81.234    c7.146,14.438,19.352,25.919,34.308,32.125L355.684,316.727z"/>
	</g>
</g>
<g>
</g>
<g>
</g>
<g>
</g>
<g>
</g>
<g>
</g>
<g>
</g>
<g>
</g>
<g>
</g>
<g>
</g>
<g>
</g>
<g>
</g>
<g>
</g>
<g>
</g>
<g>
</g>
<g>
</g>
</svg>
