<?xml version="1.0" encoding="iso-8859-1"?>
<!-- Generator: Adobe Illustrator 19.0.0, SVG Export Plug-In . SVG Version: 6.00 Build 0)  -->
<svg xmlns="http://www.w3.org/2000/svg" xmlns:xlink="http://www.w3.org/1999/xlink" version="1.1" id="Layer_1" x="0px" y="0px" viewBox="0 0 512 512" style="enable-background:new 0 0 512 512;" xml:space="preserve">
<g>
	<g>
		<path d="M296.943,371.87c-12.833-4.134-24.955-8.039-49.796-8.039s-36.963,3.905-49.796,8.039    c-13.802,4.446-29.445,9.486-59.003,9.486c-29.557,0-45.2-5.039-59.001-9.486c-2.98-0.96-5.9-1.898-8.917-2.775L81.842,512    h221.602l10.786-135.082C307.835,375.375,302.326,373.605,296.943,371.87z"/>
	</g>
</g>
<g>
	<g>
		<path d="M59.411,231.084l8.495,106.388c7.869,1.702,14.34,3.786,20.649,5.819c12.832,4.134,24.954,8.039,49.794,8.039    c24.841,0,36.963-3.905,49.796-8.039c13.802-4.446,29.445-9.486,59.003-9.486c29.558,0,45.201,5.039,59.003,9.486    c3.502,1.128,6.919,2.224,10.507,3.228l9.217-115.435H59.411z"/>
	</g>
</g>
<g>
	<g>
		<path d="M396.216,0l-182.26,75.494l56.372,136.096l182.261-75.494L396.216,0z M363.499,139.541l-27.74,11.49l-10.613-25.62    l-25.621,10.612l-11.49-27.739l25.62-10.612l-10.613-25.622l27.74-11.49l10.613,25.62l25.622-10.613l11.49,27.739l-25.622,10.613    L363.499,139.541z"/>
	</g>
</g>
<g>
	<g>
		<rect x="170.864" y="105.829" width="30.025" height="31.366"/>
	</g>
</g>
<g>
	<g>
		<rect x="120.771" y="135.874" width="30.025" height="31.366"/>
	</g>
</g>
<g>
	<g>
		<rect x="80.708" y="175.948" width="30.025" height="31.366"/>
	</g>
</g>
<g>
	<g>
		<rect x="150.827" y="185.966" width="30.025" height="31.366"/>
	</g>
</g>
<g>
	<g>
		<rect x="200.909" y="155.911" width="30.025" height="31.366"/>
	</g>
</g>
<g>
</g>
<g>
</g>
<g>
</g>
<g>
</g>
<g>
</g>
<g>
</g>
<g>
</g>
<g>
</g>
<g>
</g>
<g>
</g>
<g>
</g>
<g>
</g>
<g>
</g>
<g>
</g>
<g>
</g>
</svg>
