<?xml version="1.0" encoding="iso-8859-1"?>
<!-- Generator: Adobe Illustrator 19.0.0, SVG Export Plug-In . SVG Version: 6.00 Build 0)  -->
<svg version="1.1" id="Layer_1" xmlns="http://www.w3.org/2000/svg" xmlns:xlink="http://www.w3.org/1999/xlink" x="0px" y="0px"
	 viewBox="0 0 512 512" style="enable-background:new 0 0 512 512;" xml:space="preserve">
<g>
	<g>
		<path d="M292.717,141.472v-40.333h-38.719v40.333c-54.935,9.218-96.797,56.986-96.797,114.54
			c0,64.152,52.004,116.156,116.156,116.156s116.156-52.004,116.156-116.156C389.513,198.458,347.652,150.69,292.717,141.472z
			 M283.063,305.472L254,261.877V204.39h38.719v45.763l22.56,33.841L283.063,305.472z"/>
	</g>
</g>
<g>
	<g>
		<path d="M442.18,87.181c-34.991-34.991-79.174-57.948-127.77-66.387c-47.494-8.246-95.718-2.149-139.472,17.631l15.951,35.28
			c75.402-34.089,165.387-17.671,223.914,40.853c77.997,77.999,77.997,204.911,0,282.908
			c-37.784,37.783-88.02,58.592-141.455,58.592s-103.67-20.809-141.455-58.592C87.184,352.76,66.445,289.909,75.345,227.626
			l37.127,11.333l-39.071-73.38L0,204.628l37.939,11.581c-12.852,76.251,11.789,153.852,66.577,208.637
			c45.096,45.097,105.054,69.932,168.831,69.932c63.776,0,123.734-24.835,168.831-69.932
			C535.274,331.753,535.274,180.276,442.18,87.181z"/>
	</g>
</g>
<g>
</g>
<g>
</g>
<g>
</g>
<g>
</g>
<g>
</g>
<g>
</g>
<g>
</g>
<g>
</g>
<g>
</g>
<g>
</g>
<g>
</g>
<g>
</g>
<g>
</g>
<g>
</g>
<g>
</g>
</svg>
