<?xml version="1.0" encoding="iso-8859-1"?>
<!-- Generator: Adobe Illustrator 19.0.0, SVG Export Plug-In . SVG Version: 6.00 Build 0)  -->
<svg version="1.1" id="Layer_1" xmlns="http://www.w3.org/2000/svg" xmlns:xlink="http://www.w3.org/1999/xlink" x="0px" y="0px"
	 viewBox="0 0 512 512" style="enable-background:new 0 0 512 512;" xml:space="preserve">
<g>
	<g>
		<path d="M16,0v512h480V0H16z M416,352H96V96h320V352z"/>
	</g>
</g>
<g>
	<g>
		<path d="M280,172.128V144h-48v28.128c-27.934,9.907-48,36.584-48,67.872c0,39.702,32.298,72,72,72s72-32.298,72-72
			C328,208.712,307.934,182.035,280,172.128z M256,264c-13.234,0-24-10.766-24-24s10.766-24,24-24s24,10.766,24,24
			S269.234,264,256,264z"/>
	</g>
</g>
<g>
</g>
<g>
</g>
<g>
</g>
<g>
</g>
<g>
</g>
<g>
</g>
<g>
</g>
<g>
</g>
<g>
</g>
<g>
</g>
<g>
</g>
<g>
</g>
<g>
</g>
<g>
</g>
<g>
</g>
</svg>
