<?xml version="1.0" encoding="iso-8859-1"?>
<!-- Generator: Adobe Illustrator 19.0.0, SVG Export Plug-In . SVG Version: 6.00 Build 0)  -->
<svg version="1.1" id="Layer_1" xmlns="http://www.w3.org/2000/svg" xmlns:xlink="http://www.w3.org/1999/xlink" x="0px" y="0px"
	 viewBox="0 0 512 512" style="enable-background:new 0 0 512 512;" xml:space="preserve">
<g>
	<g>
		<rect x="376.163" y="203.755" width="41.796" height="41.796"/>
	</g>
</g>
<g>
	<g>
		<path d="M449.306,73.143v47.02h-31.347v-47.02h-39.706v47.02h-31.347v-47.02H307.2v47.02h-31.347v-47.02h-39.706v47.02H204.8
			v-47.02h-39.706v47.02h-31.347v-47.02H94.041v47.02H62.694v-47.02H0v365.714h62.694v-47.02h31.347v47.02h39.706v-47.02h31.347
			v47.02H204.8v-47.02h31.347v47.02h39.706v-47.02H307.2v47.02h39.706v-47.02h31.347v47.02h39.706v-47.02h31.347v47.02H512V73.143
			H449.306z M125.388,266.449H62.694v-31.347h62.694V266.449z M188.082,203.755H62.694v-31.347h125.388V203.755z M271.673,339.592
			h-31.347V172.408h31.347V339.592z M449.306,339.592H323.918v-31.347h125.388V339.592z M449.307,276.898h-104.49v-104.49h104.49
			V276.898z"/>
	</g>
</g>
<g>
</g>
<g>
</g>
<g>
</g>
<g>
</g>
<g>
</g>
<g>
</g>
<g>
</g>
<g>
</g>
<g>
</g>
<g>
</g>
<g>
</g>
<g>
</g>
<g>
</g>
<g>
</g>
<g>
</g>
</svg>
