<?xml version="1.0" encoding="iso-8859-1"?>
<!-- Generator: Adobe Illustrator 19.0.0, SVG Export Plug-In . SVG Version: 6.00 Build 0)  -->
<svg version="1.1" id="Layer_1" xmlns="http://www.w3.org/2000/svg" xmlns:xlink="http://www.w3.org/1999/xlink" x="0px" y="0px"
	 viewBox="0 0 512 512" style="enable-background:new 0 0 512 512;" xml:space="preserve">
<g>
	<g>
		<path d="M496.327,452.811c-19.135,0-33.015,2.215-44.299,5.204l38.957-77.913l-219.31,10.698v-20.623l223.387-11.17
			L271.673,58.551V5.224h-31.347v115.248L57.434,383.379l182.893-11.43v20.38L20.898,403.032v49.839L0,452.81v31.347h15.673
			c27.187,0,39.87,4.775,54.556,10.304c15.332,5.773,32.709,12.315,65.602,12.315c32.893,0,50.271-6.542,65.604-12.314
			c14.687-5.529,27.37-10.304,54.558-10.304c27.189,0,39.874,4.775,54.563,10.304c15.332,5.772,32.711,12.314,65.604,12.314
			c32.893,0,50.272-6.542,65.604-12.314c14.688-5.529,27.372-10.304,54.563-10.304H512v-31.347H496.327z M271.673,144.078
			l9.463,23.654c18.745,46.868,14.598,98.713-9.463,141.244V144.078z"/>
	</g>
</g>
<g>
</g>
<g>
</g>
<g>
</g>
<g>
</g>
<g>
</g>
<g>
</g>
<g>
</g>
<g>
</g>
<g>
</g>
<g>
</g>
<g>
</g>
<g>
</g>
<g>
</g>
<g>
</g>
<g>
</g>
</svg>
