<?xml version="1.0" encoding="iso-8859-1"?>
<!-- Generator: Adobe Illustrator 19.0.0, SVG Export Plug-In . SVG Version: 6.00 Build 0)  -->
<svg xmlns="http://www.w3.org/2000/svg" xmlns:xlink="http://www.w3.org/1999/xlink" version="1.1" id="Layer_1" x="0px" y="0px" viewBox="0 0 512 512" style="enable-background:new 0 0 512 512;" xml:space="preserve">
<g>
	<g>
		<polygon points="341.333,448 341.333,393.143 170.667,393.143 170.667,448 97.524,448 97.524,484.571 414.476,484.571     414.476,448   "/>
	</g>
</g>
<g>
	<g>
		<path d="M310.857,163.037v70.118c25.919-4.276,48.762-17.302,48.762-35.059S336.777,167.313,310.857,163.037z"/>
	</g>
</g>
<g>
	<g>
		<path d="M0,27.429v341.333h512V27.429H0z M237.714,271.238h-36.571v-54.857h-48.762v54.857H115.81V124.952h36.571v54.857h48.762    v-54.857h36.571V271.238z M360.536,254.07c-18.75,11.071-42.887,17.168-67.964,17.168h-18.286V124.952h18.286    c25.077,0,49.214,6.096,67.964,17.168c22.992,13.578,35.655,33.456,35.655,55.975C396.19,220.615,383.528,240.492,360.536,254.07z    "/>
	</g>
</g>
<g>
</g>
<g>
</g>
<g>
</g>
<g>
</g>
<g>
</g>
<g>
</g>
<g>
</g>
<g>
</g>
<g>
</g>
<g>
</g>
<g>
</g>
<g>
</g>
<g>
</g>
<g>
</g>
<g>
</g>
</svg>
