<?xml version="1.0" encoding="iso-8859-1"?>
<!-- Generator: Adobe Illustrator 19.0.0, SVG Export Plug-In . SVG Version: 6.00 Build 0)  -->
<svg version="1.1" id="Layer_1" xmlns="http://www.w3.org/2000/svg" xmlns:xlink="http://www.w3.org/1999/xlink" x="0px" y="0px"
	 viewBox="0 0 512 512" style="enable-background:new 0 0 512 512;" xml:space="preserve">
<g>
	<g>
		<g>
			<path d="M361.412,248.471c-20.759,0-37.647,16.888-37.647,37.647c0,20.759,16.888,37.647,37.647,37.647
				c20.759,0,37.647-16.888,37.647-37.647C399.059,265.359,382.17,248.471,361.412,248.471z"/>
			<path d="M224.324,248.471c5.795,11.305,9.088,24.096,9.088,37.647c0,13.551-3.293,26.342-9.088,37.647h63.352
				c-5.795-11.305-9.088-24.096-9.088-37.647c0-13.551,3.293-26.342,9.088-37.647H224.324z"/>
			<path d="M444.235,90.353V45.176h-45.176v45.177h-82.824V45.176H195.765v45.177h-82.824V45.176H67.765v45.177H0v376.471h512
				V90.353H444.235z M361.412,368.941H150.588c-45.669,0-82.824-37.155-82.824-82.823s37.155-82.824,82.824-82.824h210.823
				c45.669,0,82.824,37.155,82.824,82.824S407.081,368.941,361.412,368.941z"/>
			<path d="M150.588,248.471c-20.759,0-37.647,16.888-37.647,37.647c0,20.759,16.888,37.647,37.647,37.647
				s37.647-16.888,37.647-37.647C188.235,265.359,171.347,248.471,150.588,248.471z"/>
		</g>
	</g>
</g>
<g>
</g>
<g>
</g>
<g>
</g>
<g>
</g>
<g>
</g>
<g>
</g>
<g>
</g>
<g>
</g>
<g>
</g>
<g>
</g>
<g>
</g>
<g>
</g>
<g>
</g>
<g>
</g>
<g>
</g>
</svg>
