<?xml version="1.0" encoding="iso-8859-1"?>
<!-- Generator: Adobe Illustrator 19.0.0, SVG Export Plug-In . SVG Version: 6.00 Build 0)  -->
<svg xmlns="http://www.w3.org/2000/svg" xmlns:xlink="http://www.w3.org/1999/xlink" version="1.1" id="Layer_1" x="0px" y="0px" viewBox="0 0 512 512" style="enable-background:new 0 0 512 512;" xml:space="preserve">
<g>
	<g>
		<path d="M34.657,361.334v106.894c0,24.136,19.636,43.772,43.772,43.772h162.571V361.334H34.657z M137.827,486.998    c-27.753,0-50.331-22.579-50.331-50.331s22.578-50.331,50.331-50.331s50.332,22.579,50.332,50.331    S165.581,486.998,137.827,486.998z"/>
	</g>
</g>
<g>
	<g>
		<path d="M34.657,180.667v10v130.665v10h206.343V180.667H34.657z M137.827,306.331c-27.753,0-50.331-22.579-50.331-50.331    c0-27.752,22.578-50.331,50.331-50.331S188.16,228.248,188.16,256C188.16,283.752,165.581,306.331,137.827,306.331z"/>
	</g>
</g>
<g>
	<g>
		<path d="M271.001,361.334V512h162.571c24.136,0,43.772-19.636,43.772-43.772V361.334H271.001z M374.172,486.998    c-27.753,0-50.331-22.579-50.331-50.331s22.578-50.331,50.331-50.331s50.332,22.579,50.332,50.331    S401.925,486.998,374.172,486.998z"/>
	</g>
</g>
<g>
	<g>
		<path d="M433.572,0H271.001v150.666h206.343V43.772C477.343,19.636,457.707,0,433.572,0z M374.172,125.665    c-27.753,0-50.331-22.579-50.331-50.331c0-27.752,22.578-50.332,50.331-50.332s50.332,22.579,50.332,50.331    S401.925,125.665,374.172,125.665z"/>
	</g>
</g>
<g>
	<g>
		<path d="M271.001,180.667v150.665h206.343v-10V190.668v-10H271.001z M374.172,306.331c-27.753,0-50.331-22.579-50.331-50.331    c0-27.752,22.578-50.331,50.331-50.331s50.332,22.579,50.332,50.331C424.504,283.752,401.925,306.331,374.172,306.331z"/>
	</g>
</g>
<g>
	<g>
		<path d="M78.429,0C54.293,0,34.657,19.636,34.657,43.772v106.894h206.343V0H78.429z M137.827,125.664    c-27.753,0-50.331-22.579-50.331-50.331c0-27.752,22.578-50.331,50.331-50.331S188.16,47.58,188.16,75.333    S165.581,125.664,137.827,125.664z"/>
	</g>
</g>
<g>
</g>
<g>
</g>
<g>
</g>
<g>
</g>
<g>
</g>
<g>
</g>
<g>
</g>
<g>
</g>
<g>
</g>
<g>
</g>
<g>
</g>
<g>
</g>
<g>
</g>
<g>
</g>
<g>
</g>
</svg>
