<?xml version="1.0" encoding="iso-8859-1"?>
<!-- Generator: Adobe Illustrator 19.0.0, SVG Export Plug-In . SVG Version: 6.00 Build 0)  -->
<svg xmlns="http://www.w3.org/2000/svg" xmlns:xlink="http://www.w3.org/1999/xlink" version="1.1" id="Layer_1" x="0px" y="0px" viewBox="0 0 512 512" style="enable-background:new 0 0 512 512;" xml:space="preserve">
<g>
	<g>
		<polygon points="103.619,219.429 103.619,262.095 42.667,247.873 42.667,361.651 103.619,347.429 103.619,390.095     286.476,390.095 274.286,512 359.619,512 371.809,390.095 444.952,390.095 444.952,219.429   "/>
	</g>
</g>
<g>
	<g>
		<path d="M371.809,0c-53.861,0-97.524,43.663-97.524,97.524C274.286,43.663,230.623,0,176.762,0    c-53.861,0-97.524,43.663-97.524,97.524c0,53.861,43.663,97.524,97.524,97.524h195.048c53.861,0,97.524-43.663,97.524-97.524    C469.333,43.663,425.671,0,371.809,0z"/>
	</g>
</g>
<g>
</g>
<g>
</g>
<g>
</g>
<g>
</g>
<g>
</g>
<g>
</g>
<g>
</g>
<g>
</g>
<g>
</g>
<g>
</g>
<g>
</g>
<g>
</g>
<g>
</g>
<g>
</g>
<g>
</g>
</svg>
