<?xml version="1.0" encoding="iso-8859-1"?>
<!-- Generator: Adobe Illustrator 19.0.0, SVG Export Plug-In . SVG Version: 6.00 Build 0)  -->
<svg xmlns="http://www.w3.org/2000/svg" xmlns:xlink="http://www.w3.org/1999/xlink" version="1.1" id="Layer_1" x="0px" y="0px" viewBox="0 0 512 512" style="enable-background:new 0 0 512 512;" xml:space="preserve">
<g>
	<g>
		<polygon points="94.041,409.806 94.041,471.231 77.734,487.539 99.898,509.704 125.388,484.216 125.388,409.806   "/>
	</g>
</g>
<g>
	<g>
		<polygon points="417.959,409.806 417.959,439.884 401.653,456.192 423.817,478.357 449.306,452.869 449.306,409.806   "/>
	</g>
</g>
<g>
	<g>
		<path d="M402.286,347.112V132.908l83.592,10.449v-41.796L402.95,39.766c13.018-3.976,26.829-6.123,41.131-6.123V2.296    c-95.066,0-172.408,77.342-172.408,172.408v5.224H78.367C35.156,179.928,0,215.084,0,258.296v57.469h31.347v-57.469    c0-25.927,21.093-47.02,47.02-47.02h21.248c-13.024,11.488-21.248,28.29-21.248,47.02v88.816h-47.02v124.12L15.04,487.539    l22.165,22.165l25.488-25.488V378.459h78.367c23.083,0,41.796-18.713,41.796-41.796v-31.347h31.347v31.347h73.143v-31.347h31.347    v31.347c0,23.083,18.713,41.796,41.796,41.796h120.163v61.426l-16.307,16.308l22.165,22.165L512,452.869V347.112H402.286z"/>
	</g>
</g>
<g>
</g>
<g>
</g>
<g>
</g>
<g>
</g>
<g>
</g>
<g>
</g>
<g>
</g>
<g>
</g>
<g>
</g>
<g>
</g>
<g>
</g>
<g>
</g>
<g>
</g>
<g>
</g>
<g>
</g>
</svg>
