<?xml version="1.0" encoding="iso-8859-1"?>
<!-- Generator: Adobe Illustrator 19.0.0, SVG Export Plug-In . SVG Version: 6.00 Build 0)  -->
<svg version="1.1" id="Layer_1" xmlns="http://www.w3.org/2000/svg" xmlns:xlink="http://www.w3.org/1999/xlink" x="0px" y="0px"
	 viewBox="0 0 512 512" style="enable-background:new 0 0 512 512;" xml:space="preserve">
<g>
	<g>
		<g>
			<rect y="215.579" width="53.895" height="80.842"/>
			<rect x="458.105" y="215.579" width="53.895" height="80.842"/>
			<rect x="94.316" y="215.579" width="323.368" height="80.842"/>
			<rect x="235.789" y="53.895" width="40.421" height="80.842"/>
			
				<rect x="337.176" y="71.762" transform="matrix(0.9397 0.342 -0.342 0.9397 59.9167 -115.4615)" width="40.421" height="80.841"/>
			
				<rect x="114.189" y="91.982" transform="matrix(0.342 0.9397 -0.9397 0.342 207.1601 -71.4635)" width="80.841" height="40.421"/>
			<rect x="235.789" y="377.263" width="40.421" height="80.842"/>
			
				<rect x="134.426" y="359.381" transform="matrix(-0.9397 -0.342 0.342 -0.9397 163.2164 828.3794)" width="40.421" height="80.841"/>
			
				<rect x="316.949" y="379.577" transform="matrix(-0.342 -0.9397 0.9397 -0.342 103.9087 872.3342)" width="80.841" height="40.421"/>
		</g>
	</g>
</g>
<g>
</g>
<g>
</g>
<g>
</g>
<g>
</g>
<g>
</g>
<g>
</g>
<g>
</g>
<g>
</g>
<g>
</g>
<g>
</g>
<g>
</g>
<g>
</g>
<g>
</g>
<g>
</g>
<g>
</g>
</svg>
