<?xml version="1.0" encoding="iso-8859-1"?>
<!-- Generator: Adobe Illustrator 19.0.0, SVG Export Plug-In . SVG Version: 6.00 Build 0)  -->
<svg version="1.1" id="Layer_1" xmlns="http://www.w3.org/2000/svg" xmlns:xlink="http://www.w3.org/1999/xlink" x="0px" y="0px"
	 viewBox="0 0 512 512" style="enable-background:new 0 0 512 512;" xml:space="preserve">
<g>
	<g>
		<path d="M352.198,386.612h29.189v-31.347h-42.388l-17.598-41.796h28.64v-31.347h-39.237l-7.837-41.796l-17.633-94.041h17.686
			V52.245h-31.347V0h-15.673h-15.673v52.245h-31.347v94.041h17.686l-17.633,94.041l-7.837,41.796h-39.237v31.347h28.64
			l-16.718,39.706l-0.88,2.09h-42.388v31.347h29.189L107.006,512h96.911l20.898-52.245h62.369L308.082,512h96.911L352.198,386.612z
			 M240.926,240.327h30.148l7.837,41.796h-45.822L240.926,240.327z M207.891,353.176l16.718-39.706h62.779l16.718,39.706H207.891z"
			/>
	</g>
</g>
<g>
</g>
<g>
</g>
<g>
</g>
<g>
</g>
<g>
</g>
<g>
</g>
<g>
</g>
<g>
</g>
<g>
</g>
<g>
</g>
<g>
</g>
<g>
</g>
<g>
</g>
<g>
</g>
<g>
</g>
</svg>
