<?xml version="1.0" encoding="iso-8859-1"?>
<!-- Generator: Adobe Illustrator 19.0.0, SVG Export Plug-In . SVG Version: 6.00 Build 0)  -->
<svg version="1.1" id="Layer_1" xmlns="http://www.w3.org/2000/svg" xmlns:xlink="http://www.w3.org/1999/xlink" x="0px" y="0px"
	 viewBox="0 0 512 512" style="enable-background:new 0 0 512 512;" xml:space="preserve">
<g>
	<g>
		<path d="M234.667,0v72.339c7-0.804,14.117-1.227,21.333-1.227s14.333,0.422,21.333,1.227V0H234.667z"/>
	</g>
</g>
<g>
	<g>
		<path d="M256,440.889c-7.216,0-14.333-0.422-21.333-1.227V512h42.667v-72.339C270.333,440.465,263.216,440.889,256,440.889z"/>
	</g>
</g>
<g>
	<g>
		<g>
			<polygon points="234.665,72.339 234.665,72.339 234.667,72.339 			"/>
			<path d="M141.222,111.053L90.066,59.895l-30.171,30.17l51.156,51.157c-20.841,26.286-34.678,58.372-38.709,93.444H0v42.667
				h72.343c4.031,35.072,17.866,67.159,38.709,93.444l-51.156,51.157l30.17,30.17l51.156-51.157
				c26.287,20.843,58.372,34.682,93.444,38.714V72.339C199.594,76.371,167.508,90.21,141.222,111.053z"/>
		</g>
	</g>
</g>
<g>
	<g>
		<path d="M512,277.333v-42.667h-72.344c-4.031-35.072-17.866-67.159-38.709-93.444l51.156-51.157l-30.17-30.17l-51.156,51.157
			c-26.286-20.843-58.372-34.682-93.444-38.714v367.323c35.072-4.032,67.159-17.872,93.444-38.714l51.156,51.157l30.17-30.17
			l-51.156-51.157c20.843-26.286,34.679-58.372,38.709-93.444H512z"/>
	</g>
</g>
<g>
</g>
<g>
</g>
<g>
</g>
<g>
</g>
<g>
</g>
<g>
</g>
<g>
</g>
<g>
</g>
<g>
</g>
<g>
</g>
<g>
</g>
<g>
</g>
<g>
</g>
<g>
</g>
<g>
</g>
</svg>
