<?xml version="1.0" encoding="iso-8859-1"?>
<!-- Generator: Adobe Illustrator 19.0.0, SVG Export Plug-In . SVG Version: 6.00 Build 0)  -->
<svg version="1.1" id="Layer_1" xmlns="http://www.w3.org/2000/svg" xmlns:xlink="http://www.w3.org/1999/xlink" x="0px" y="0px"
	 viewBox="0 0 512 512" style="enable-background:new 0 0 512 512;" xml:space="preserve">
<g>
	<g>
		<path d="M454.531,250.775v-15.673c0-104.195-80.686-189.896-182.857-197.913V0h-31.347v37.189
			C138.155,45.206,57.469,130.907,57.469,235.102v15.673h182.857v152.227c-16.077,1.559-26.303,5.405-35.568,8.893
			c-10.832,4.078-20.186,7.6-40.191,7.6c-20.004,0-29.359-3.522-40.19-7.6c-11.964-4.505-25.526-9.61-51.234-9.61H57.469V512
			h397.061V402.286h-15.673c-25.71,0-39.272,5.105-51.238,9.61c-10.833,4.078-20.188,7.6-40.194,7.6s-29.361-3.522-40.193-7.6
			c-9.263-3.487-19.487-7.333-35.559-8.892V250.775H454.531z M206.608,219.429c1.273-41.131,7.542-79.144,17.974-108.355
			c7.672-21.48,20.362-43.155,31.418-43.155c11.056,0,23.746,21.675,31.418,43.155c10.432,29.211,16.702,67.222,17.974,108.355
			H206.608z"/>
	</g>
</g>
<g>
</g>
<g>
</g>
<g>
</g>
<g>
</g>
<g>
</g>
<g>
</g>
<g>
</g>
<g>
</g>
<g>
</g>
<g>
</g>
<g>
</g>
<g>
</g>
<g>
</g>
<g>
</g>
<g>
</g>
</svg>
