<?xml version="1.0" encoding="iso-8859-1"?>
<!-- Generator: Adobe Illustrator 19.0.0, SVG Export Plug-In . SVG Version: 6.00 Build 0)  -->
<svg version="1.1" id="Layer_1" xmlns="http://www.w3.org/2000/svg" xmlns:xlink="http://www.w3.org/1999/xlink" x="0px" y="0px"
	 viewBox="0 0 512 512" style="enable-background:new 0 0 512 512;" xml:space="preserve">
<g>
	<g>
		<path d="M428.408,365.043v-22.742h26.122v-31.347H290.573l-42.377-64.407l-26.187,17.23l49.665,75.486v25.616h-86.332
			l-2.259-167.184h36.569l15.45-15.452l15.451,15.451h73.365V182.02c0-36.411-24.001-67.313-57.012-77.736l26.929-27.89
			L282.56,65.506c-15.661-15.122-36.28-23.276-58.04-22.857c-21.767,0.381-42.082,9.217-57.203,24.879l-5.358,5.549l-5.357-5.549
			c-15.121-15.661-35.437-24.497-57.203-24.879c-21.773-0.378-42.379,7.735-58.04,22.857L30.083,76.393l26.928,27.889
			C24.001,114.706,0,145.61,0,182.02v15.673h73.365l15.451-15.451l15.451,15.451h36.569l-2.259,167.184H88.816
			C39.843,364.877,0,404.72,0,453.693v15.673h512v-15.673C512,406.475,474.957,367.758,428.408,365.043z M397.061,364.877H303.02
			v-22.575h94.041V364.877z"/>
	</g>
</g>
<g>
</g>
<g>
</g>
<g>
</g>
<g>
</g>
<g>
</g>
<g>
</g>
<g>
</g>
<g>
</g>
<g>
</g>
<g>
</g>
<g>
</g>
<g>
</g>
<g>
</g>
<g>
</g>
<g>
</g>
</svg>
