<?xml version="1.0" encoding="iso-8859-1"?>
<!-- Generator: Adobe Illustrator 19.0.0, SVG Export Plug-In . SVG Version: 6.00 Build 0)  -->
<svg version="1.1" id="Layer_1" xmlns="http://www.w3.org/2000/svg" xmlns:xlink="http://www.w3.org/1999/xlink" x="0px" y="0px"
	 viewBox="0 0 512 512" style="enable-background:new 0 0 512 512;" xml:space="preserve">
<g>
	<g>
		<path d="M417.959,94.041v47.02c0,20.165,16.406,36.571,36.571,36.571h26.122V94.041H417.959z"/>
	</g>
</g>
<g>
	<g>
		<path d="M454.531,208.98c-37.45,0-67.918-30.468-67.918-67.918v-47.02H303.02v88.816h-31.347V94.041h-31.347v88.816H208.98V94.041
			h-83.592v47.02c0,37.45-30.468,67.918-67.918,67.918H31.347v219.429h208.98v-104.49h31.347v104.49h208.98V208.98H454.531z"/>
	</g>
</g>
<g>
	<g>
		<rect x="31.347" y="459.755" width="208.98" height="52.245"/>
	</g>
</g>
<g>
	<g>
		<rect x="31.347" width="449.306" height="62.694"/>
	</g>
</g>
<g>
	<g>
		<path d="M31.347,94.041v83.592h26.122c20.165,0,36.571-16.406,36.571-36.571v-47.02H31.347z"/>
	</g>
</g>
<g>
	<g>
		<rect x="271.673" y="459.755" width="208.98" height="52.245"/>
	</g>
</g>
<g>
</g>
<g>
</g>
<g>
</g>
<g>
</g>
<g>
</g>
<g>
</g>
<g>
</g>
<g>
</g>
<g>
</g>
<g>
</g>
<g>
</g>
<g>
</g>
<g>
</g>
<g>
</g>
<g>
</g>
</svg>
