<?xml version="1.0" encoding="iso-8859-1"?>
<!-- Generator: Adobe Illustrator 19.0.0, SVG Export Plug-In . SVG Version: 6.00 Build 0)  -->
<svg xmlns="http://www.w3.org/2000/svg" xmlns:xlink="http://www.w3.org/1999/xlink" version="1.1" id="Layer_1" x="0px" y="0px" viewBox="0 0 512 512" style="enable-background:new 0 0 512 512;" xml:space="preserve">
<g>
	<g>
		<path d="M239.304,465.252c0-7.365-5.992-13.357-13.357-13.357H0V512h286.052C260.275,512,239.304,491.029,239.304,465.252z"/>
	</g>
</g>
<g>
	<g>
		<path d="M421.843,373.983v-38.957h-33.391v38.957H123.548v-38.957H90.157v38.957H0v44.522h225.948    c25.777,0,46.748,20.971,46.748,46.748c0,7.365,5.991,13.357,13.357,13.357H512V373.983H421.843z"/>
	</g>
</g>
<g>
	<g>
		<polygon points="512,240.417 405.642,0 404.654,0 298.296,240.417 327.977,240.417 298.296,307.2 512,307.2 482.318,240.417   "/>
	</g>
</g>
<g>
	<g>
		<polygon points="213.704,240.417 107.346,0 106.358,0 0,240.417 29.682,240.417 0,307.2 213.704,307.2 184.023,240.417   "/>
	</g>
</g>
<g>
</g>
<g>
</g>
<g>
</g>
<g>
</g>
<g>
</g>
<g>
</g>
<g>
</g>
<g>
</g>
<g>
</g>
<g>
</g>
<g>
</g>
<g>
</g>
<g>
</g>
<g>
</g>
<g>
</g>
</svg>
