<?xml version="1.0" encoding="iso-8859-1"?>
<!-- Generator: Adobe Illustrator 19.0.0, SVG Export Plug-In . SVG Version: 6.00 Build 0)  -->
<svg xmlns="http://www.w3.org/2000/svg" xmlns:xlink="http://www.w3.org/1999/xlink" version="1.1" id="Layer_1" x="0px" y="0px" viewBox="0 0 512 512" style="enable-background:new 0 0 512 512;" xml:space="preserve">
<g>
	<g>
		<path d="M395.176,85.633c-3.686-30.757-29.85-54.604-61.598-54.604c-7.65,0-14.972,1.392-21.738,3.923    C301.775,14.263,280.556,0,256.001,0s-45.774,14.263-55.837,34.954c-6.766-2.531-14.089-3.923-21.738-3.923    c-31.749,0-57.913,23.847-61.598,54.604c-15.265,8.658-26.502,19.939-30.19,36.27h338.727    C421.678,105.573,410.439,94.292,395.176,85.633z"/>
	</g>
</g>
<g>
	<g>
		<path d="M86.335,146.286L116.364,512h279.273l30.029-365.714H86.335z M256.001,390.095c-40.396,0-73.143-32.747-73.143-73.143    s32.747-73.143,73.143-73.143s73.143,32.747,73.143,73.143S296.396,390.095,256.001,390.095z"/>
	</g>
</g>
<g>
</g>
<g>
</g>
<g>
</g>
<g>
</g>
<g>
</g>
<g>
</g>
<g>
</g>
<g>
</g>
<g>
</g>
<g>
</g>
<g>
</g>
<g>
</g>
<g>
</g>
<g>
</g>
<g>
</g>
</svg>
