<?xml version="1.0" encoding="iso-8859-1"?>
<!-- Generator: Adobe Illustrator 19.0.0, SVG Export Plug-In . SVG Version: 6.00 Build 0)  -->
<svg xmlns="http://www.w3.org/2000/svg" xmlns:xlink="http://www.w3.org/1999/xlink" version="1.1" id="Layer_1" x="0px" y="0px" viewBox="0 0 512 512" style="enable-background:new 0 0 512 512;" xml:space="preserve">
<g>
	<g>
		<path d="M87.273,392.727V174.058c17.055-6.906,29.091-23.617,29.091-43.149c0-25.706-20.84-46.545-46.545-46.545    c-25.706,0-46.545,20.84-46.545,46.545c0,19.532,12.035,36.243,29.091,43.149v218.669H0v34.909h139.636v-34.909H87.273z"/>
	</g>
</g>
<g>
	<g>
		<path d="M459.636,392.727V174.058c17.055-6.906,29.091-23.617,29.091-43.149c0-25.706-20.84-46.545-46.545-46.545    s-46.545,20.84-46.545,46.545c0,19.532,12.035,36.243,29.091,43.149v218.669h-52.364v34.909H512v-34.909H459.636z"/>
	</g>
</g>
<g>
	<g>
		<path d="M375.742,152.421c-77.227,29.229-162.256,29.229-239.484,0c-3.706,11.522-10.33,21.852-19.242,29.99    c44.645,17.913,91.813,26.875,138.984,26.875c47.17,0,94.338-8.964,138.984-26.875    C386.072,174.273,379.448,163.944,375.742,152.421z"/>
	</g>
</g>
<g>
</g>
<g>
</g>
<g>
</g>
<g>
</g>
<g>
</g>
<g>
</g>
<g>
</g>
<g>
</g>
<g>
</g>
<g>
</g>
<g>
</g>
<g>
</g>
<g>
</g>
<g>
</g>
<g>
</g>
</svg>
