<?xml version="1.0" encoding="iso-8859-1"?>
<!-- Generator: Adobe Illustrator 19.0.0, SVG Export Plug-In . SVG Version: 6.00 Build 0)  -->
<svg version="1.1" id="Layer_1" xmlns="http://www.w3.org/2000/svg" xmlns:xlink="http://www.w3.org/1999/xlink" x="0px" y="0px"
	 viewBox="0 0 512 512" style="enable-background:new 0 0 512 512;" xml:space="preserve">
<g>
	<g>
		<path d="M444.225,254.508v-0.001L211.969,22.249L45.628,188.591l65.917,65.917H0v131.459c0,57.226,46.557,103.784,103.784,103.784
			h304.432c57.226,0,103.784-46.557,103.784-103.784V254.508H444.225z M185.213,375.928c-13.946,9.844-24.024,16.957-46.84,16.957
			c-22.816,0-32.893-7.114-46.838-16.957c-12.212-8.621-26.785-18.898-50.021-22.871V296.02h111.543l62.469,62.47
			C202.987,363.386,193.548,370.042,185.213,375.928z M267.627,351.883l-55.862-55.863h176.535l-72.46,72.46
			C303.987,360.936,289.18,353.805,267.627,351.883z M470.487,353.058c-23.238,3.973-37.812,14.249-50.025,22.87
			c-13.947,9.844-24.024,16.958-46.844,16.958c-8.383,0-15.038-0.967-20.805-2.671l94.194-94.194h23.48V353.058z"/>
	</g>
</g>
<g>
</g>
<g>
</g>
<g>
</g>
<g>
</g>
<g>
</g>
<g>
</g>
<g>
</g>
<g>
</g>
<g>
</g>
<g>
</g>
<g>
</g>
<g>
</g>
<g>
</g>
<g>
</g>
<g>
</g>
</svg>
