<?xml version="1.0" encoding="iso-8859-1"?>
<!-- Generator: Adobe Illustrator 19.0.0, SVG Export Plug-In . SVG Version: 6.00 Build 0)  -->
<svg xmlns="http://www.w3.org/2000/svg" xmlns:xlink="http://www.w3.org/1999/xlink" version="1.1" id="Layer_1" x="0px" y="0px" viewBox="0 0 511.999 511.999" style="enable-background:new 0 0 511.999 511.999;" xml:space="preserve">
<g>
	<g>
		<path d="M97.774,248.64c0,22.604,0,45.207,0,67.811c104.83,16.604,211.621,16.604,316.451,0c0-22.604,0-45.207,0-67.811    C309.395,265.244,202.604,265.244,97.774,248.64z"/>
	</g>
</g>
<g>
	<g>
		<path d="M97.774,0v169.527v56.227l3.536,0.561c10.109,1.601,20.234,3.039,30.369,4.324v-61.111h248.64v61.112    c10.135-1.286,20.26-2.724,30.369-4.324l3.536-0.561v-56.228V0H97.774z"/>
	</g>
</g>
<g>
	<g>
		<path d="M290.169,406.866l116.095-66.341c-27.864,4.095-55.821,7.039-83.82,8.846l-66.446,37.969l-66.446-37.969    c-27.999-1.807-55.956-4.752-83.82-8.846l116.097,66.341L89.362,482.561l16.823,29.438l149.815-85.608l149.815,85.608    l16.823-29.438L290.169,406.866z"/>
	</g>
</g>
<g>
</g>
<g>
</g>
<g>
</g>
<g>
</g>
<g>
</g>
<g>
</g>
<g>
</g>
<g>
</g>
<g>
</g>
<g>
</g>
<g>
</g>
<g>
</g>
<g>
</g>
<g>
</g>
<g>
</g>
</svg>
