<?xml version="1.0" encoding="iso-8859-1"?>
<!-- Generator: Adobe Illustrator 19.0.0, SVG Export Plug-In . SVG Version: 6.00 Build 0)  -->
<svg version="1.1" id="Layer_1" xmlns="http://www.w3.org/2000/svg" xmlns:xlink="http://www.w3.org/1999/xlink" x="0px" y="0px"
	 viewBox="0 0 512 512" style="enable-background:new 0 0 512 512;" xml:space="preserve">
<g>
	<g>
		<path d="M412.735,397.061h-15.673V213.356l-48.065-16.022v96.201c0,51.278-41.718,92.996-92.996,92.996
			s-92.996-41.718-92.996-92.996v-96.201l-48.065,16.022v183.706H99.265c-31.689,0-57.469,25.781-57.469,57.469
			c0,31.689,25.781,57.469,57.469,57.469h119.769l-71.837-114.939h36.965L256,512l71.837-114.939h36.965L292.965,512h119.769
			c31.689,0,57.469-25.781,57.469-57.469C470.204,422.842,444.423,397.061,412.735,397.061z"/>
	</g>
</g>
<g>
	<g>
		<path d="M282.601,303.02L256,285.285l-26.601,17.735h-34.317c4.577,29.506,30.149,52.163,60.918,52.163
			s56.341-22.658,60.918-52.163H282.601z"/>
	</g>
</g>
<g>
	<g>
		<path d="M334.367,58.231l-21.792-10.896C307.775,20.462,284.233,0,256,0s-51.775,20.462-56.575,47.336l-21.792,10.895V168.45
			l18.005,18.005l-1.286,0.428v84.79h25.556L256,247.613l36.093,24.061h25.556v-84.789l-1.286-0.428l18.005-18.005V58.231z
			 M256,112.25l-22.165-22.166L256,67.918l22.165,22.165L256,112.25z"/>
	</g>
</g>
<g>
</g>
<g>
</g>
<g>
</g>
<g>
</g>
<g>
</g>
<g>
</g>
<g>
</g>
<g>
</g>
<g>
</g>
<g>
</g>
<g>
</g>
<g>
</g>
<g>
</g>
<g>
</g>
<g>
</g>
</svg>
