<?xml version="1.0" encoding="iso-8859-1"?>
<!-- Generator: Adobe Illustrator 19.0.0, SVG Export Plug-In . SVG Version: 6.00 Build 0)  -->
<svg xmlns="http://www.w3.org/2000/svg" xmlns:xlink="http://www.w3.org/1999/xlink" version="1.1" id="Layer_1" x="0px" y="0px" viewBox="0 0 512 512" style="enable-background:new 0 0 512 512;" xml:space="preserve">
<g>
	<g>
		<path d="M0,265.143V435.81h54.857v36.571h36.571V435.81h329.143v36.571h36.571V435.81H512V265.143H0z M323.048,380.952H79.238V320    h243.81V380.952z M414.476,380.952c-16.805,0-30.476-13.672-30.476-30.476S397.672,320,414.476,320s30.476,13.672,30.476,30.476    S431.281,380.952,414.476,380.952z"/>
	</g>
</g>
<g>
	<g>
		<path d="M304.762,100.571H138.038c-8.28-34.901-39.687-60.952-77.085-60.952H42.667V64H0v36.571h42.667v36.571H0v36.571h42.667    v24.381h18.286c37.398,0,68.805-26.051,77.085-60.952h166.724c62.243,0,114.243,44.661,125.661,103.619h37.102    C455.708,161.537,387.224,100.571,304.762,100.571z"/>
	</g>
</g>
<g>
</g>
<g>
</g>
<g>
</g>
<g>
</g>
<g>
</g>
<g>
</g>
<g>
</g>
<g>
</g>
<g>
</g>
<g>
</g>
<g>
</g>
<g>
</g>
<g>
</g>
<g>
</g>
<g>
</g>
</svg>
