<?xml version="1.0" encoding="iso-8859-1"?>
<!-- Generator: Adobe Illustrator 19.0.0, SVG Export Plug-In . SVG Version: 6.00 Build 0)  -->
<svg xmlns="http://www.w3.org/2000/svg" xmlns:xlink="http://www.w3.org/1999/xlink" version="1.1" id="Layer_1" x="0px" y="0px" viewBox="0 0 512 512" style="enable-background:new 0 0 512 512;" xml:space="preserve">
<g>
	<g>
		<path d="M489.117,237.404c-12.022,12.02-28.004,18.642-45.005,18.642c-17,0-32.983-6.62-45.004-18.642L282.321,120.618    l-22.883,22.883l59.577,59.577l-52.085,52.085l-58.221-3.881l-46.897,46.9V7.889H64.725v182.078l32.362,32.362v281.782h32.362    V444.78l32.362-32.362v-68.47l59.399-59.399l44.972,2.998l29.949,29.949l-41.658,41.658l-5.773,81.318l32.28,2.292l4.918-69.267    L388.64,270.755c16.107,11.454,35.307,17.653,55.471,17.653c25.645,0,49.755-9.987,67.889-28.12L489.117,237.404z"/>
	</g>
</g>
<g>
	<g>
		<circle cx="421.994" cy="168.759" r="32.362"/>
	</g>
</g>
<g>
	<g>
		<polygon points="32.362,203.371 32.362,7.889 0,7.889 0,504.111 64.725,504.111 64.725,235.734   "/>
	</g>
</g>
<g>
	<g>
		<polygon points="194.174,7.889 194.174,162.998 258.899,98.274 258.899,7.889   "/>
	</g>
</g>
<g>
</g>
<g>
</g>
<g>
</g>
<g>
</g>
<g>
</g>
<g>
</g>
<g>
</g>
<g>
</g>
<g>
</g>
<g>
</g>
<g>
</g>
<g>
</g>
<g>
</g>
<g>
</g>
<g>
</g>
</svg>
