<?xml version="1.0" encoding="iso-8859-1"?>
<!-- Generator: Adobe Illustrator 19.0.0, SVG Export Plug-In . SVG Version: 6.00 Build 0)  -->
<svg xmlns="http://www.w3.org/2000/svg" xmlns:xlink="http://www.w3.org/1999/xlink" version="1.1" id="Layer_1" x="0px" y="0px" viewBox="0 0 512 512" style="enable-background:new 0 0 512 512;" xml:space="preserve">
<g>
	<g>
		<polygon points="104.626,45.89 0,200.555 0,318.84 144.634,105.032   "/>
	</g>
</g>
<g>
	<g>
		<polygon points="256,0 131.456,184.107 158.354,208.639 207.172,164.117 255.993,208.64 304.811,164.118 353.637,208.641     380.543,184.107   "/>
	</g>
</g>
<g>
	<g>
		<path d="M256,361.739c-36.824,0-66.783,29.959-66.783,66.783V512h133.565v-83.478C322.783,391.698,292.824,361.739,256,361.739z"/>
	</g>
</g>
<g>
	<g>
		<path d="M399.449,212.056l-45.812,41.774l-48.825-44.522l-48.819,44.522l-48.82-44.522l-48.818,44.522l-45.805-41.774L0,378.435    V512h155.826v-83.478c0-55.236,44.938-100.174,100.174-100.174s100.174,44.938,100.174,100.174V512H512V378.435L399.449,212.056z"/>
	</g>
</g>
<g>
	<g>
		<polygon points="407.374,45.89 367.366,105.032 512,318.84 512,200.555   "/>
	</g>
</g>
<g>
</g>
<g>
</g>
<g>
</g>
<g>
</g>
<g>
</g>
<g>
</g>
<g>
</g>
<g>
</g>
<g>
</g>
<g>
</g>
<g>
</g>
<g>
</g>
<g>
</g>
<g>
</g>
<g>
</g>
</svg>
