<?xml version="1.0" encoding="iso-8859-1"?>
<!-- Generator: Adobe Illustrator 19.0.0, SVG Export Plug-In . SVG Version: 6.00 Build 0)  -->
<svg version="1.1" id="Layer_1" xmlns="http://www.w3.org/2000/svg" xmlns:xlink="http://www.w3.org/1999/xlink" x="0px" y="0px"
	 viewBox="0 0 512 512" style="enable-background:new 0 0 512 512;" xml:space="preserve">
<g>
	<g>
		<path d="M92.837,166.887l84.84,84.84l65.742-65.741c11.031-11.032,25.699-17.107,41.299-17.107s30.267,6.075,41.298,17.106
			c11.032,11.032,17.107,25.698,17.107,41.299c0,15.601-6.075,30.268-17.106,41.298l-65.742,65.742l84.84,84.84L512,0
			L92.837,166.887z"/>
	</g>
</g>
<g>
	<g>
		<path d="M312.746,227.285c0-7.487-2.915-14.525-8.21-19.819c-5.294-5.295-12.332-8.21-19.819-8.21
			c-7.487,0-14.525,2.915-19.819,8.21l-111.23,111.227l-14.963-14.963l-26.024,26.024l-98.274,98.274
			C5.117,437.318,0,449.671,0,462.81c0,13.139,5.117,25.492,14.408,34.783C23.698,506.883,36.051,512,49.19,512
			c13.139,0,25.492-5.117,34.782-14.408l98.274-98.274l26.024-26.024l-14.963-14.963l111.228-111.228
			C309.83,241.809,312.746,234.772,312.746,227.285z"/>
	</g>
</g>
<g>
</g>
<g>
</g>
<g>
</g>
<g>
</g>
<g>
</g>
<g>
</g>
<g>
</g>
<g>
</g>
<g>
</g>
<g>
</g>
<g>
</g>
<g>
</g>
<g>
</g>
<g>
</g>
<g>
</g>
</svg>
