<?xml version="1.0" encoding="iso-8859-1"?>
<!-- Generator: Adobe Illustrator 19.0.0, SVG Export Plug-In . SVG Version: 6.00 Build 0)  -->
<svg version="1.1" id="Layer_1" xmlns="http://www.w3.org/2000/svg" xmlns:xlink="http://www.w3.org/1999/xlink" x="0px" y="0px"
	 viewBox="0 0 511.999 511.999" style="enable-background:new 0 0 511.999 511.999;" xml:space="preserve">
<g>
	<g>
		<path d="M105.154,412.112c0-7.726,6.285-14.011,14.011-14.011h16.884h12.139h307.74l52.394-230.516H395.381v-38.099h46.301
			L295.989,8.317L150.294,129.485h46.302v38.099h-81.749l-18.24-80.247H0v30.416h72.328l11.326,49.83l33.993,149.562l11.487,50.539
			h-9.971c-24.497,0-44.427,19.93-44.427,44.427c0,24.497,19.93,44.427,44.427,44.427h10.882c-0.595,2.696-0.919,5.492-0.919,8.364
			c0,21.383,17.396,38.779,38.78,38.779s38.78-17.396,38.78-38.779c0-2.872-0.323-5.668-0.919-8.363h171.314
			c-0.595,2.696-0.919,5.492-0.919,8.363c0,21.383,17.396,38.779,38.779,38.779c21.384,0,38.78-17.396,38.78-38.779
			c0-2.872-0.323-5.668-0.919-8.363h59.194v-30.417H119.165C111.439,426.123,105.154,419.838,105.154,412.112z M406.208,198h64.009
			l-8.247,36.283h-59.886L406.208,198z M398.627,264.7h56.43l-8.247,36.284h-52.306L398.627,264.7z M391.046,331.4h48.85
			l-8.247,36.284h-44.726L391.046,331.4z M311.197,198h64.398l-4.123,36.283h-60.274V198z M311.197,264.7h56.817l-4.123,36.284
			h-52.693V264.7z M311.197,331.4h49.237l-4.123,36.284h-45.114V331.4z M280.78,367.684h-45.115l-4.123-36.284h49.238V367.684z
			 M280.78,300.983h-52.694l-4.123-36.284h56.818V300.983z M280.78,198v36.283h-60.275L216.382,198H280.78z M205.053,367.684
			h-44.726l-2.95-12.982L152.08,331.4h48.85L205.053,367.684z M197.474,300.983h-52.306l-8.247-36.284h56.43L197.474,300.983z
			 M121.759,198h64.01l4.123,36.283h-59.887L121.759,198z"/>
	</g>
</g>
<g>
</g>
<g>
</g>
<g>
</g>
<g>
</g>
<g>
</g>
<g>
</g>
<g>
</g>
<g>
</g>
<g>
</g>
<g>
</g>
<g>
</g>
<g>
</g>
<g>
</g>
<g>
</g>
<g>
</g>
</svg>
