<?xml version="1.0" encoding="iso-8859-1"?>
<!-- Generator: Adobe Illustrator 19.0.0, SVG Export Plug-In . SVG Version: 6.00 Build 0)  -->
<svg version="1.1" id="Layer_1" xmlns="http://www.w3.org/2000/svg" xmlns:xlink="http://www.w3.org/1999/xlink" x="0px" y="0px"
	 viewBox="0 0 511.999 511.999" style="enable-background:new 0 0 511.999 511.999;" xml:space="preserve">
<g>
	<g>
		<path d="M53.133,283.682C23.836,283.682,0,307.517,0,336.815v70.649c0,29.298,23.836,53.133,53.133,53.133h6.456V430.18V314.099
			v-19.692v-10.725H53.133z"/>
	</g>
</g>
<g>
	<g>
		<polygon points="90.006,283.682 90.006,294.407 90.006,314.099 90.006,430.18 90.006,460.597 129.26,460.597 129.26,283.682 		"/>
	</g>
</g>
<g>
	<g>
		<path d="M458.866,283.682h-6.456v10.725v19.692V430.18v30.417h6.456c29.298,0,53.133-23.835,53.133-53.133v-70.649
			C512,307.517,488.164,283.682,458.866,283.682z"/>
	</g>
</g>
<g>
	<g>
		<polygon points="382.739,283.682 382.739,460.597 421.993,460.597 421.993,430.18 421.993,314.099 421.993,294.407 
			421.993,283.682 		"/>
	</g>
</g>
<g>
	<g>
		<path d="M256,51.402c-108.302,0-196.411,88.11-196.411,196.41v35.869h30.417v-35.869c0-91.529,74.464-165.993,165.994-165.993
			s165.994,74.464,165.994,165.993v35.869h30.417v-35.869C452.411,139.511,364.301,51.402,256,51.402z"/>
	</g>
</g>
<g>
</g>
<g>
</g>
<g>
</g>
<g>
</g>
<g>
</g>
<g>
</g>
<g>
</g>
<g>
</g>
<g>
</g>
<g>
</g>
<g>
</g>
<g>
</g>
<g>
</g>
<g>
</g>
<g>
</g>
</svg>
