<?xml version="1.0" encoding="iso-8859-1"?>
<!-- Generator: Adobe Illustrator 19.0.0, SVG Export Plug-In . SVG Version: 6.00 Build 0)  -->
<svg version="1.1" id="Layer_1" xmlns="http://www.w3.org/2000/svg" xmlns:xlink="http://www.w3.org/1999/xlink" x="0px" y="0px"
	 viewBox="0 0 511.999 511.999" style="enable-background:new 0 0 511.999 511.999;" xml:space="preserve">
<g>
	<g>
		<path d="M496.792,269.574c-112.451,0-203.938-114.107-203.938-254.365V0h-73.706v15.209c0,140.258-91.487,254.365-203.939,254.365
			H0v44.897v15.209v56.677h15.209c23.937,0,43.411,19.474,43.411,43.41v82.232h73.705v-82.232c0-23.936,19.474-43.41,43.411-43.41
			c23.936,0,43.41,19.474,43.41,43.41v82.232h73.706v-82.232c0-23.936,19.474-43.41,43.41-43.41s43.41,19.474,43.41,43.41v82.232
			h73.705v-82.232c0-23.936,19.474-43.41,43.41-43.41h15.209v-56.677v-15.209v-44.897H496.792z M73.049,314.472H30.418v-15.064
			c14.519-1.117,28.775-3.837,42.632-8.079V314.472z M146.098,314.472h-42.632v-35.225c14.921-7.349,29.195-16.594,42.632-27.623
			V314.472z M219.148,314.472h-42.632v-92.576c1.839-2.123,3.663-4.272,5.455-6.476c14.67-18.047,27.111-38.08,37.177-59.588
			V314.472z M335.485,314.472h-42.632V155.833c10.066,21.507,22.507,41.541,37.177,59.587c1.792,2.203,3.616,4.352,5.455,6.476
			V314.472z M408.534,314.472h-42.632v-62.848c13.437,11.029,27.711,20.274,42.632,27.623V314.472z M481.583,314.469h-42.632
			v-23.141c13.857,4.242,28.113,6.962,42.632,8.079V314.469z"/>
	</g>
</g>
<g>
</g>
<g>
</g>
<g>
</g>
<g>
</g>
<g>
</g>
<g>
</g>
<g>
</g>
<g>
</g>
<g>
</g>
<g>
</g>
<g>
</g>
<g>
</g>
<g>
</g>
<g>
</g>
<g>
</g>
</svg>
