<?xml version="1.0" encoding="iso-8859-1"?>
<!-- Generator: Adobe Illustrator 19.0.0, SVG Export Plug-In . SVG Version: 6.00 Build 0)  -->
<svg version="1.1" id="Layer_1" xmlns="http://www.w3.org/2000/svg" xmlns:xlink="http://www.w3.org/1999/xlink" x="0px" y="0px"
	 viewBox="0 0 512 512" style="enable-background:new 0 0 512 512;" xml:space="preserve">
<g>
	<g>
		<g>
			<path d="M0,511.92h109.58v-31.915h30.408v31.915h25.343v-31.915h30.408v31.915h25.343v-31.915h30.408v31.915h25.343v-31.915
				h30.408v31.915h25.343v-31.915h30.408v31.915h25.343v-31.915h30.408v31.915h25.344v-31.915h30.408v31.915h37.506V94.79L0,511.92z
				 M425.845,425.765H242.152l183.693-149.657V425.765z"/>
			<polygon points="511.998,94.788 511.998,94.79 512,94.788 			"/>
		</g>
	</g>
</g>
<g>
	<g>
		<polygon points="0.16,81.17 0.16,366.389 34.87,420.501 69.579,366.389 69.579,81.17 		"/>
	</g>
</g>
<g>
	<g>
		<rect x="0.16" y="0.08" width="69.421" height="50.68"/>
	</g>
</g>
<g>
</g>
<g>
</g>
<g>
</g>
<g>
</g>
<g>
</g>
<g>
</g>
<g>
</g>
<g>
</g>
<g>
</g>
<g>
</g>
<g>
</g>
<g>
</g>
<g>
</g>
<g>
</g>
<g>
</g>
</svg>
