<?xml version="1.0" encoding="iso-8859-1"?>
<!-- Generator: Adobe Illustrator 19.0.0, SVG Export Plug-In . SVG Version: 6.00 Build 0)  -->
<svg version="1.1" id="Layer_1" xmlns="http://www.w3.org/2000/svg" xmlns:xlink="http://www.w3.org/1999/xlink" x="0px" y="0px"
	 viewBox="0 0 512 512" style="enable-background:new 0 0 512 512;" xml:space="preserve">
<g>
	<g>
		<rect x="95.156" y="225.076" width="213.961" height="189.227"/>
	</g>
</g>
<g>
	<g>
		<path d="M280.131,106.527l85.033-85.032L343.67,0l-90.001,90.001c-8.736-3.297-18.192-5.115-28.067-5.115
			s-19.331,1.818-28.067,5.115L107.532,0L86.037,21.494l85.033,85.032c-11.979,11.25-20.489,26.143-23.737,42.9H25.864v340.529
			h45.254V512h30.398v-22.046h308.967V512h30.398v-22.046h45.255V149.427H303.868C300.619,132.671,292.11,117.778,280.131,106.527z
			 M404.583,437.225c-15.761,0-28.538-12.776-28.538-28.538s12.777-28.539,28.538-28.539c15.76,0.001,28.538,12.778,28.538,28.539
			C433.12,424.449,420.343,437.225,404.583,437.225z M361.922,194.679h85.321v30.398h-85.321V194.679z M361.922,239.934h85.321
			v30.398h-85.321V239.934z M361.922,285.189h85.321v30.398h-85.321V285.189z M339.518,444.703H64.758V194.679h274.761V444.703z"/>
	</g>
</g>
<g>
</g>
<g>
</g>
<g>
</g>
<g>
</g>
<g>
</g>
<g>
</g>
<g>
</g>
<g>
</g>
<g>
</g>
<g>
</g>
<g>
</g>
<g>
</g>
<g>
</g>
<g>
</g>
<g>
</g>
</svg>
