<?xml version="1.0" encoding="iso-8859-1"?>
<!-- Generator: Adobe Illustrator 19.0.0, SVG Export Plug-In . SVG Version: 6.00 Build 0)  -->
<svg version="1.1" id="Layer_1" xmlns="http://www.w3.org/2000/svg" xmlns:xlink="http://www.w3.org/1999/xlink" x="0px" y="0px"
	 viewBox="0 0 512 512" style="enable-background:new 0 0 512 512;" xml:space="preserve">
<g>
	<g>
		<path d="M332.837,0H179.163C86.728,0,11.528,75.2,11.528,167.635s75.2,167.635,167.635,167.635h25.747v-32.455L85.355,183.263
			l60.451-60.451l59.103,59.103V91.951h7.895h86.391h7.895v89.963l59.103-59.103l60.451,60.451L307.09,302.816v32.455h25.747
			c92.435,0,167.635-75.201,167.635-167.636S425.272,0,332.837,0z"/>
	</g>
</g>
<g>
	<g>
		<polygon points="366.193,165.802 276.69,255.307 276.69,122.351 268.795,122.351 243.205,122.351 235.31,122.351 235.31,255.307 
			145.807,165.802 128.347,183.263 235.31,290.224 235.31,512 276.69,512 276.69,290.224 383.652,183.263 		"/>
	</g>
</g>
<g>
</g>
<g>
</g>
<g>
</g>
<g>
</g>
<g>
</g>
<g>
</g>
<g>
</g>
<g>
</g>
<g>
</g>
<g>
</g>
<g>
</g>
<g>
</g>
<g>
</g>
<g>
</g>
<g>
</g>
</svg>
