<?xml version="1.0" encoding="iso-8859-1"?>
<!-- Generator: Adobe Illustrator 19.0.0, SVG Export Plug-In . SVG Version: 6.00 Build 0)  -->
<svg version="1.1" id="Layer_1" xmlns="http://www.w3.org/2000/svg" xmlns:xlink="http://www.w3.org/1999/xlink" x="0px" y="0px"
	 viewBox="0 0 512 512" style="enable-background:new 0 0 512 512;" xml:space="preserve">
<g>
	<g>
		<polygon points="445.32,470.783 512,470.783 512,404.104 		"/>
	</g>
</g>
<g>
	<g>
		<path d="M512,182.928v-66.68h-42.055V77.045H377.68v39.203h-31.771v-24.5c0-27.862-22.668-50.531-50.531-50.531h-78.754
			c-27.862,0-50.531,22.668-50.531,50.531v24.5h-31.771V77.045H42.056v39.203H0v66.68l66.68-66.68h43.016L0,225.944v135.145
			l109.695,109.695h292.61l109.695-109.695V225.944L402.304,116.249h43.016L512,182.928z M315.491,116.248H196.508v-24.5
			c0-11.09,9.023-20.114,20.114-20.114h78.754c11.09,0,20.114,9.023,20.114,20.114V116.248z"/>
	</g>
</g>
<g>
	<g>
		<polygon points="0,404.104 0,470.783 66.68,470.783 		"/>
	</g>
</g>
<g>
</g>
<g>
</g>
<g>
</g>
<g>
</g>
<g>
</g>
<g>
</g>
<g>
</g>
<g>
</g>
<g>
</g>
<g>
</g>
<g>
</g>
<g>
</g>
<g>
</g>
<g>
</g>
<g>
</g>
</svg>
