<?xml version="1.0" encoding="iso-8859-1"?>
<!-- Generator: Adobe Illustrator 19.0.0, SVG Export Plug-In . SVG Version: 6.00 Build 0)  -->
<svg version="1.1" id="Layer_1" xmlns="http://www.w3.org/2000/svg" xmlns:xlink="http://www.w3.org/1999/xlink" x="0px" y="0px"
	 viewBox="0 0 511.999 511.999" style="enable-background:new 0 0 511.999 511.999;" xml:space="preserve">
<g>
	<g>
		<path d="M401.821,177.591v109.84H386.93c0.563-2.617,0.867-5.329,0.867-8.111c0-21.244-17.284-38.529-38.529-38.529h-78.06
			v-22.989h62.27c29.951,0,54.318-24.367,54.318-54.318v-44.54C387.796,53.358,334.438,0,268.852,0h-25.706
			C177.56,0,124.203,53.358,124.203,118.945v44.54c0,29.951,24.367,54.318,54.318,54.318h62.27v22.989h-78.058
			c-21.244,0-38.529,17.284-38.529,38.529c0,2.782,0.303,5.494,0.867,8.111h-14.893V177.591H58.784v30.417h20.977v109.84h82.972
			h78.058v23.87h-23.32v93.224H84.829v30.417h25.999c-2.816,4.642-4.439,10.083-4.439,15.898c0,16.952,13.791,30.742,30.743,30.742
			s30.743-13.791,30.743-30.742c0-5.814-1.623-11.256-4.439-15.898h54.036h12.226c-2.816,4.642-4.439,10.083-4.439,15.898
			c0,16.952,13.791,30.742,30.743,30.742s30.743-13.791,30.743-30.742c0-5.814-1.623-11.256-4.439-15.898h12.224h54.036
			c-2.816,4.642-4.439,10.083-4.439,15.898c0,16.952,13.791,30.742,30.743,30.742c16.951,0,30.743-13.791,30.743-30.742
			c0-5.814-1.623-11.256-4.439-15.898h25.999v-30.417H294.527v-93.224h-23.32v-23.87h78.06h82.971v-109.84h20.977v-30.417H401.821z"
			/>
	</g>
</g>
<g>
</g>
<g>
</g>
<g>
</g>
<g>
</g>
<g>
</g>
<g>
</g>
<g>
</g>
<g>
</g>
<g>
</g>
<g>
</g>
<g>
</g>
<g>
</g>
<g>
</g>
<g>
</g>
<g>
</g>
</svg>
