<?xml version="1.0" encoding="iso-8859-1"?>
<!-- Generator: Adobe Illustrator 19.0.0, SVG Export Plug-In . SVG Version: 6.00 Build 0)  -->
<svg version="1.1" id="Layer_1" xmlns="http://www.w3.org/2000/svg" xmlns:xlink="http://www.w3.org/1999/xlink" x="0px" y="0px"
	 viewBox="0 0 511.999 511.999" style="enable-background:new 0 0 511.999 511.999;" xml:space="preserve">
<g>
	<g>
		<polygon points="111.973,245.349 38.047,245.349 38.047,363.493 130.503,363.493 130.503,245.349 		"/>
	</g>
</g>
<g>
	<g>
		<rect x="381.489" y="393.858" width="92.453" height="118.139"/>
	</g>
</g>
<g>
	<g>
		<rect x="160.867" y="245.346" width="161.021" height="118.139"/>
	</g>
</g>
<g>
	<g>
		<rect x="410.738" y="245.346" width="63.214" height="118.139"/>
	</g>
</g>
<g>
	<g>
		<rect x="352.25" y="344.357" width="28.122" height="19.139"/>
	</g>
</g>
<g>
	<g>
		<polygon points="369.662,245.349 352.251,245.349 352.251,264.489 380.373,264.489 380.373,245.349 		"/>
	</g>
</g>
<g>
	<g>
		<rect x="352.25" y="294.847" width="28.122" height="19.14"/>
	</g>
</g>
<g>
	<g>
		<rect x="131.629" y="492.859" width="28.122" height="19.14"/>
	</g>
</g>
<g>
	<g>
		<rect x="190.106" y="393.858" width="161.021" height="118.139"/>
	</g>
</g>
<g>
	<g>
		<rect x="38.047" y="393.858" width="63.214" height="118.139"/>
	</g>
</g>
<g>
	<g>
		<rect x="131.629" y="393.858" width="28.122" height="19.14"/>
	</g>
</g>
<g>
	<g>
		<rect x="131.629" y="443.358" width="28.122" height="19.139"/>
	</g>
</g>
<g>
	<g>
		<polygon points="38.564,214.987 111.973,214.987 111.973,142.406 		"/>
	</g>
</g>
<g>
	<g>
		<polygon points="347.339,90.313 164.657,90.313 142.335,112.385 142.335,214.987 160.865,214.987 369.662,214.987 
			369.662,112.385 		"/>
	</g>
</g>
<g>
	<g>
		<polygon points="255.998,0 195.365,59.951 316.631,59.951 		"/>
	</g>
</g>
<g>
	<g>
		<polygon points="400.024,142.406 400.024,214.987 473.432,214.987 		"/>
	</g>
</g>
<g>
</g>
<g>
</g>
<g>
</g>
<g>
</g>
<g>
</g>
<g>
</g>
<g>
</g>
<g>
</g>
<g>
</g>
<g>
</g>
<g>
</g>
<g>
</g>
<g>
</g>
<g>
</g>
<g>
</g>
</svg>
