<?xml version="1.0" encoding="iso-8859-1"?>
<!-- Generator: Adobe Illustrator 19.0.0, SVG Export Plug-In . SVG Version: 6.00 Build 0)  -->
<svg version="1.1" id="Layer_1" xmlns="http://www.w3.org/2000/svg" xmlns:xlink="http://www.w3.org/1999/xlink" x="0px" y="0px"
	 viewBox="0 0 511.999 511.999" style="enable-background:new 0 0 511.999 511.999;" xml:space="preserve">
<g>
	<g>
		<path d="M344.647,179.672h-86.274c-24.79,0-44.959-20.169-44.959-44.959v-0.001c0-23.609,18.805-43.103,41.918-43.456
			c0.218-0.003,0.434-0.005,0.651-0.005c17.796,0,33.814,11.146,39.994,27.907c6.592,17.875,23.613,29.886,42.352,29.886h1.058
			c14.715,0,28.543-7.189,36.991-19.229c8.479-12.084,10.541-27.599,5.512-41.501C362.767,35.439,312.215,0,255.989,0
			c-0.151,0-0.311,0.001-0.462,0.001c-35.464,0.123-68.949,14.405-94.286,40.213c-25.2,25.668-39.077,59.375-39.077,94.91v376.876
			h267.671v-287.14C389.835,199.943,369.564,179.672,344.647,179.672z M255.999,393.808c-33.552,0-60.751-27.199-60.751-60.751
			s27.199-60.751,60.751-60.751c33.552,0,60.751,27.199,60.751,60.751S289.552,393.808,255.999,393.808z"/>
	</g>
</g>
<g>
</g>
<g>
</g>
<g>
</g>
<g>
</g>
<g>
</g>
<g>
</g>
<g>
</g>
<g>
</g>
<g>
</g>
<g>
</g>
<g>
</g>
<g>
</g>
<g>
</g>
<g>
</g>
<g>
</g>
</svg>
