<?xml version="1.0" encoding="iso-8859-1"?>
<!-- Generator: Adobe Illustrator 19.0.0, SVG Export Plug-In . SVG Version: 6.00 Build 0)  -->
<svg version="1.1" id="Layer_1" xmlns="http://www.w3.org/2000/svg" xmlns:xlink="http://www.w3.org/1999/xlink" x="0px" y="0px"
	 viewBox="0 0 512 512" style="enable-background:new 0 0 512 512;" xml:space="preserve">
<g>
	<g>
		<path d="M497.895,82.525L452.5,37.131c-18.808-18.808-49.409-18.808-68.217,0l-22.548,22.548l56.954,56.954l-21.666,21.666
			l-56.954-56.954L13.97,407.444c-18.627,18.627-18.627,48.934,0,67.56c18.627,18.627,48.934,18.627,67.56,0l177.522-177.522
			c6.889,4.678,14.42,8.22,22.333,10.544l39.721-39.721l-9.655-9.656l-21.51-21.51l21.51-21.51l21.51-21.51l21.51-21.51l21.51,21.51
			l39.268,39.268l16.921-16.921l21.51-21.51l44.214-44.214C516.702,131.934,516.701,101.333,497.895,82.525z"/>
	</g>
</g>
<g>
	<g>
		<polygon points="354.472,215.629 332.962,237.139 364.128,268.305 232.484,399.949 253.994,421.459 385.638,289.815 
			416.803,320.981 438.314,299.47 		"/>
	</g>
</g>
<g>
</g>
<g>
</g>
<g>
</g>
<g>
</g>
<g>
</g>
<g>
</g>
<g>
</g>
<g>
</g>
<g>
</g>
<g>
</g>
<g>
</g>
<g>
</g>
<g>
</g>
<g>
</g>
<g>
</g>
</svg>
