<?xml version="1.0" encoding="iso-8859-1"?>
<!-- Generator: Adobe Illustrator 19.0.0, SVG Export Plug-In . SVG Version: 6.00 Build 0)  -->
<svg version="1.1" id="Layer_1" xmlns="http://www.w3.org/2000/svg" xmlns:xlink="http://www.w3.org/1999/xlink" x="0px" y="0px"
	 viewBox="0 0 512 512" style="enable-background:new 0 0 512 512;" xml:space="preserve">
<g>
	<g>
		<rect x="183.76" y="220.322" width="39.542" height="51.325"/>
	</g>
</g>
<g>
	<g>
		<rect x="113.801" y="220.322" width="39.542" height="51.325"/>
	</g>
</g>
<g>
	<g>
		<path d="M443.223,261.995l-21.314-60.743H343.2v193.901h14.757c7.473-29.248,34.045-50.939,65.589-50.939
			s58.115,21.69,65.589,50.939H512V283.326h0L443.223,261.995z"/>
	</g>
</g>
<g>
	<g>
		<path d="M312.782,129.58L168.556,62.823L0,140.841v254.313h68.746c7.474-29.248,34.045-50.939,65.589-50.939
			c31.545,0,58.115,21.69,65.59,50.939h106.77h6.089V129.58H312.782z M253.724,302.067H83.388V189.908h170.336V302.067z"/>
	</g>
</g>
<g>
	<g>
		<path d="M134.334,374.632c-20.552,0-37.272,16.72-37.272,37.272c0,20.553,16.72,37.273,37.272,37.273
			c20.553,0,37.273-16.72,37.273-37.273C171.607,391.352,154.886,374.632,134.334,374.632z"/>
	</g>
</g>
<g>
	<g>
		<path d="M423.545,374.632c-20.552,0-37.272,16.72-37.272,37.272c0,20.553,16.72,37.273,37.272,37.273
			c20.552,0,37.272-16.72,37.272-37.273C460.818,391.352,444.097,374.632,423.545,374.632z"/>
	</g>
</g>
<g>
</g>
<g>
</g>
<g>
</g>
<g>
</g>
<g>
</g>
<g>
</g>
<g>
</g>
<g>
</g>
<g>
</g>
<g>
</g>
<g>
</g>
<g>
</g>
<g>
</g>
<g>
</g>
<g>
</g>
</svg>
