<?xml version="1.0" encoding="iso-8859-1"?>
<!-- Generator: Adobe Illustrator 19.0.0, SVG Export Plug-In . SVG Version: 6.00 Build 0)  -->
<svg version="1.1" id="Layer_1" xmlns="http://www.w3.org/2000/svg" xmlns:xlink="http://www.w3.org/1999/xlink" x="0px" y="0px"
	 viewBox="0 0 512 512" style="enable-background:new 0 0 512 512;" xml:space="preserve">
<g>
	<g>
		<path d="M38.698,174.889V512h434.604V174.889H38.698z M191.85,447.041h-45.626V286.594h-20.519v-45.626h66.145V447.041z
			 M304.515,454.035l-42.152-17.461l61.913-149.471l-79.647-0.51l0.291-45.626l147.459,0.946L304.515,454.035z"/>
	</g>
</g>
<g>
	<g>
		<polygon points="400.525,43.846 400.525,87.693 370.108,87.693 370.108,43.846 141.892,43.846 141.892,87.693 111.475,87.693 
			111.475,43.846 38.698,43.846 38.698,144.471 473.302,144.471 473.302,43.846 		"/>
	</g>
</g>
<g>
	<g>
		<rect x="370.106" width="30.417" height="43.841"/>
	</g>
</g>
<g>
	<g>
		<rect x="111.479" width="30.417" height="43.841"/>
	</g>
</g>
<g>
</g>
<g>
</g>
<g>
</g>
<g>
</g>
<g>
</g>
<g>
</g>
<g>
</g>
<g>
</g>
<g>
</g>
<g>
</g>
<g>
</g>
<g>
</g>
<g>
</g>
<g>
</g>
<g>
</g>
</svg>
