<?xml version="1.0" encoding="iso-8859-1"?>
<!-- Generator: Adobe Illustrator 19.0.0, SVG Export Plug-In . SVG Version: 6.00 Build 0)  -->
<svg version="1.1" id="Layer_1" xmlns="http://www.w3.org/2000/svg" xmlns:xlink="http://www.w3.org/1999/xlink" x="0px" y="0px"
	 viewBox="0 0 512 512" style="enable-background:new 0 0 512 512;" xml:space="preserve">
<g>
	<g>
		<polygon points="311.323,148.294 272.554,241.887 384.442,512 461.981,512 		"/>
	</g>
</g>
<g>
	<g>
		<polygon points="311.066,69.434 339.827,0 262.766,0 234.004,69.434 184.321,69.434 184.321,99.852 221.404,99.852 
			207.142,134.282 157.461,134.282 157.461,164.699 194.542,164.699 180.281,199.128 130.6,199.128 130.6,229.546 167.681,229.546 
			153.418,263.976 103.74,263.976 103.74,294.393 140.82,294.393 126.557,328.823 76.88,328.823 76.88,359.241 113.957,359.241 
			99.695,393.671 50.019,393.671 50.019,424.088 87.096,424.088 50.68,512 127.742,512 298.466,99.852 348.617,99.852 
			348.617,69.434 		"/>
	</g>
</g>
<g>
</g>
<g>
</g>
<g>
</g>
<g>
</g>
<g>
</g>
<g>
</g>
<g>
</g>
<g>
</g>
<g>
</g>
<g>
</g>
<g>
</g>
<g>
</g>
<g>
</g>
<g>
</g>
<g>
</g>
</svg>
