<?xml version="1.0" encoding="iso-8859-1"?>
<!-- Generator: Adobe Illustrator 19.0.0, SVG Export Plug-In . SVG Version: 6.00 Build 0)  -->
<svg version="1.1" id="Layer_1" xmlns="http://www.w3.org/2000/svg" xmlns:xlink="http://www.w3.org/1999/xlink" x="0px" y="0px"
	 viewBox="0 0 511.999 511.999" style="enable-background:new 0 0 511.999 511.999;" xml:space="preserve">
<g>
	<g>
		<path d="M481.583,336.315v24.841h-79.975V154.638c0-44.775-36.427-81.202-81.202-81.202h-166.09
			C69.225,73.435,0,142.662,0,227.751v163.823h66.016c4.221-33.956,33.238-60.327,68.318-60.327
			c35.08,0,64.097,26.372,68.318,60.327h183.746h15.209h110.392v-55.258H481.583z M350.912,264.328H50.695v-36.577
			c0-57.137,46.484-103.62,103.621-103.62h166.089c16.822,0,30.506,13.686,30.506,30.506V264.328z"/>
	</g>
</g>
<g>
	<g>
		<path d="M81.112,227.751v6.159h59.516v-78.061C106.786,162.28,81.112,192.065,81.112,227.751z"/>
	</g>
</g>
<g>
	<g>
		<path d="M320.421,154.548h-59.442v79.363h59.516v-79.273C320.485,154.598,320.445,154.557,320.421,154.548z"/>
	</g>
</g>
<g>
	<g>
		<rect x="171.046" y="154.549" width="59.516" height="79.369"/>
	</g>
</g>
<g>
	<g>
		<path d="M134.334,361.664c-21.201,0-38.449,17.249-38.449,38.449c0,21.201,17.249,38.449,38.449,38.449
			c21.202,0,38.449-17.249,38.449-38.449C172.784,378.913,155.535,361.664,134.334,361.664z"/>
	</g>
</g>
<g>
</g>
<g>
</g>
<g>
</g>
<g>
</g>
<g>
</g>
<g>
</g>
<g>
</g>
<g>
</g>
<g>
</g>
<g>
</g>
<g>
</g>
<g>
</g>
<g>
</g>
<g>
</g>
<g>
</g>
</svg>
