<?xml version="1.0" encoding="iso-8859-1"?>
<!-- Generator: Adobe Illustrator 19.0.0, SVG Export Plug-In . SVG Version: 6.00 Build 0)  -->
<svg version="1.1" id="Layer_1" xmlns="http://www.w3.org/2000/svg" xmlns:xlink="http://www.w3.org/1999/xlink" x="0px" y="0px"
	 viewBox="0 0 512.002 512.002" style="enable-background:new 0 0 512.002 512.002;" xml:space="preserve">
<g>
	<g>
		<path d="M499.015,78.98l-8.168-13.879l-64.222,42.913l5.615,11.861c3.358,7.093,0.963,15.732-5.57,20.096l-24.036,16.062
			c-7.324,4.891-17.258,2.915-22.153-4.408c-5.572-8.34-12.575-15.161-20.465-20.365c-7.111-5.033-8.889-14.649-4.049-21.894
			l16.061-24.036c4.367-6.533,13.006-8.928,20.097-5.57l11.861,5.615l42.913-64.222l-13.879-8.168
			c-42.96-25.282-98.322-12.594-126.033,28.882l-16.06,24.039c-13.349,19.978-18.465,43.996-14.654,67.401L0.001,317.906
			l37.698,56.421l270.872-180.991c2.174-1.451,5.12-0.864,6.57,1.307l0.298,0.444c1.28,1.915,2.621,3.766,4.013,5.556
			c0.034,0.808-0.12,1.791-0.787,2.788l-180.99,270.872l56.419,37.698l184.625-276.31c22.701,3.682,46.788-0.862,67.373-14.615
			l24.038-16.062C511.609,177.301,524.295,121.94,499.015,78.98z"/>
	</g>
</g>
<g>
</g>
<g>
</g>
<g>
</g>
<g>
</g>
<g>
</g>
<g>
</g>
<g>
</g>
<g>
</g>
<g>
</g>
<g>
</g>
<g>
</g>
<g>
</g>
<g>
</g>
<g>
</g>
<g>
</g>
</svg>
