<?xml version="1.0" encoding="iso-8859-1"?>
<!-- Generator: Adobe Illustrator 19.0.0, SVG Export Plug-In . SVG Version: 6.00 Build 0)  -->
<svg version="1.1" id="Layer_1" xmlns="http://www.w3.org/2000/svg" xmlns:xlink="http://www.w3.org/1999/xlink" x="0px" y="0px"
	 viewBox="0 0 512 512" style="enable-background:new 0 0 512 512;" xml:space="preserve">
<g>
	<g>
		<polygon points="287.714,30.42 271.208,30.42 271.208,0 240.791,0 240.791,30.42 224.286,30.42 193.868,88.707 228.178,88.707 
			283.822,88.707 318.133,88.707 		"/>
	</g>
</g>
<g>
	<g>
		<path d="M334.006,119.125h-30.161h-95.691h-30.161h-0.257v9.464v30.417v352.994h156.525V159.005v-30.417v-9.464H334.006z
			 M244.845,445.172h-30.417v-41.57h30.417V445.172z M244.845,387.041h-30.417v-41.57h30.417V387.041z M244.845,328.911h-30.417
			v-41.57h30.417V328.911z M244.845,270.78h-30.417v-41.57h30.417V270.78z M244.845,212.65h-30.417v-41.57h30.417V212.65z
			 M297.572,445.172h-30.417v-41.57h30.417V445.172z M297.572,387.041h-30.417v-41.57h30.417V387.041z M297.572,328.911h-30.417
			v-41.57h30.417V328.911z M297.572,270.78h-30.417v-41.57h30.417V270.78z M297.572,212.65h-30.417v-41.57h30.417V212.65z"/>
	</g>
</g>
<g>
	<g>
		<path d="M12.561,244.85V512h156.525V244.85H12.561z M79.669,445.172H49.251v-41.57h30.417V445.172z M79.669,387.041H49.251v-41.57
			h30.417V387.041z M79.669,328.911H49.251v-41.57h30.417V328.911z M132.396,445.172h-30.417v-41.57h30.417V445.172z
			 M132.396,387.041h-30.417v-41.57h30.417V387.041z M132.396,328.911h-30.417v-41.57h30.417V328.911z"/>
	</g>
</g>
<g>
	<g>
		<path d="M342.913,148.954v363.045h156.525V199.295L342.913,148.954z M410.021,445.172h-30.417v-41.57h30.417V445.172z
			 M410.021,387.041h-30.417v-41.57h30.417V387.041z M410.021,328.911h-30.417v-41.57h30.417V328.911z M410.021,270.78h-30.417
			v-41.57h30.417V270.78z M462.748,445.172h-30.417v-41.57h30.417V445.172z M462.748,387.041h-30.417v-41.57h30.417V387.041z
			 M462.748,328.911h-30.417v-41.57h30.417V328.911z M462.748,270.78h-30.417v-41.57h30.417V270.78z"/>
	</g>
</g>
<g>
</g>
<g>
</g>
<g>
</g>
<g>
</g>
<g>
</g>
<g>
</g>
<g>
</g>
<g>
</g>
<g>
</g>
<g>
</g>
<g>
</g>
<g>
</g>
<g>
</g>
<g>
</g>
<g>
</g>
</svg>
