<?xml version="1.0" encoding="iso-8859-1"?>
<!-- Generator: Adobe Illustrator 19.0.0, SVG Export Plug-In . SVG Version: 6.00 Build 0)  -->
<svg version="1.1" id="Layer_1" xmlns="http://www.w3.org/2000/svg" xmlns:xlink="http://www.w3.org/1999/xlink" x="0px" y="0px"
	 viewBox="0 0 512.001 512.001" style="enable-background:new 0 0 512.001 512.001;" xml:space="preserve">
<g>
	<g>
		<path d="M492.605,89.188l-48.353-48.97l-21.645,21.371l48.354,48.971c6.849,6.936,10.622,16.124,10.622,25.874v199.745
			c0,5.767-2.513,10.944-6.485,14.54c-9.421-45.858-50.097-80.453-98.702-80.453c-40.903,0-76.19,24.501-91.96,59.596
			c-8.082-5.6-17.879-8.893-28.435-8.893c-10.556,0-20.353,3.293-28.435,8.893c-15.77-35.095-51.057-59.596-91.96-59.596
			c-48.605,0-89.282,34.594-98.702,80.453c-3.973-3.596-6.486-8.774-6.486-14.54V136.434c0-9.749,3.772-18.938,10.622-25.875
			l48.354-48.97L67.749,40.218L19.395,89.187C6.887,101.853,0,118.632,0,136.434v199.745c0,22.611,15.074,41.759,35.698,47.946
			c6.441,49.391,48.788,87.658,99.907,87.658c55.558,0,100.758-45.2,100.758-100.758c0-10.829,8.809-19.637,19.637-19.637
			c10.829,0,19.637,8.809,19.637,19.637c0,55.558,45.2,100.758,100.758,100.758c51.119,0,93.466-38.267,99.907-87.658
			c20.623-6.188,35.698-25.334,35.698-47.946V136.434C512,118.632,505.112,101.853,492.605,89.188z M135.605,342.079
			c-15.961,0-28.946,12.985-28.946,28.946H76.242c0-32.733,26.63-59.363,59.363-59.363V342.079z M376.396,342.079
			c-15.961,0-28.946,12.985-28.946,28.946h-30.417c0-32.733,26.63-59.363,59.363-59.363V342.079z"/>
	</g>
</g>
<g>
</g>
<g>
</g>
<g>
</g>
<g>
</g>
<g>
</g>
<g>
</g>
<g>
</g>
<g>
</g>
<g>
</g>
<g>
</g>
<g>
</g>
<g>
</g>
<g>
</g>
<g>
</g>
<g>
</g>
</svg>
