<?xml version="1.0" encoding="iso-8859-1"?>
<!-- Generator: Adobe Illustrator 19.0.0, SVG Export Plug-In . SVG Version: 6.00 Build 0)  -->
<svg version="1.1" id="Layer_1" xmlns="http://www.w3.org/2000/svg" xmlns:xlink="http://www.w3.org/1999/xlink" x="0px" y="0px"
	 viewBox="0 0 511.999 511.999" style="enable-background:new 0 0 511.999 511.999;" xml:space="preserve">
<g>
	<g>
		<path d="M482.101,463.404H29.897v-0.001c-16.503,0.006-29.88,13.385-29.88,29.889v18.707h511.965v-18.706
			C511.981,476.788,498.605,463.409,482.101,463.404z"/>
	</g>
</g>
<g>
	<g>
		<rect x="72.205" y="331.271" width="48.597" height="101.718"/>
	</g>
</g>
<g>
	<g>
		<rect x="178.536" y="331.271" width="48.597" height="101.718"/>
	</g>
</g>
<g>
	<g>
		<rect x="284.868" y="331.271" width="48.597" height="101.718"/>
	</g>
</g>
<g>
	<g>
		<rect x="391.189" y="331.271" width="48.597" height="101.718"/>
	</g>
</g>
<g>
	<g>
		<path d="M502.361,255.299c-34.246,0.103-63.579-20.99-75.647-50.908H85.288C73.243,234.215,44.04,255.268,9.903,255.27H0.018
			v0.001c0,25.173,20.406,45.58,45.58,45.58h420.804c25.174,0,45.58-20.408,45.58-45.58v-0.001L502.361,255.299z"/>
	</g>
</g>
<g>
	<g>
		<path d="M465.759,138.79c-27.666,0.083-51.179-17.741-59.628-42.543H105.87c-8.435,24.727-31.845,42.518-59.426,42.519
			l-7.636,0.001c0,19.445,15.763,35.21,35.209,35.21h363.968c19.445,0,35.209-15.764,35.209-35.21L465.759,138.79z"/>
	</g>
</g>
<g>
	<g>
		<path d="M420.435,38.558C396.963,38.628,377.338,22.076,372.668,0H139.335c-4.666,22.016-24.205,38.538-47.612,38.54h-5.919
			c0,15.074,12.22,27.293,27.294,27.293h285.804c15.074,0,27.294-12.22,27.294-27.293L420.435,38.558z"/>
	</g>
</g>
<g>
</g>
<g>
</g>
<g>
</g>
<g>
</g>
<g>
</g>
<g>
</g>
<g>
</g>
<g>
</g>
<g>
</g>
<g>
</g>
<g>
</g>
<g>
</g>
<g>
</g>
<g>
</g>
<g>
</g>
</svg>
