<?xml version="1.0" encoding="iso-8859-1"?>
<!-- Generator: Adobe Illustrator 19.0.0, SVG Export Plug-In . SVG Version: 6.00 Build 0)  -->
<svg version="1.1" id="Layer_1" xmlns="http://www.w3.org/2000/svg" xmlns:xlink="http://www.w3.org/1999/xlink" x="0px" y="0px"
	 viewBox="0 0 512 512" style="enable-background:new 0 0 512 512;" xml:space="preserve">
<g>
	<g>
		<rect x="131.321" y="363.138" width="249.357" height="101.166"/>
	</g>
</g>
<g>
	<g>
		<rect x="131.321" y="304.246" width="249.357" height="28.493"/>
	</g>
</g>
<g>
	<g>
		<path d="M100.864,248.417c-0.012-0.268-0.036-0.532-0.053-0.798c-0.034-0.542-0.072-1.084-0.124-1.621
			c-0.029-0.309-0.068-0.616-0.103-0.923c-0.057-0.495-0.117-0.99-0.188-1.48c-0.045-0.31-0.095-0.619-0.145-0.928
			c-0.081-0.494-0.169-0.987-0.264-1.477c-0.056-0.287-0.112-0.573-0.173-0.859c-0.114-0.533-0.237-1.062-0.368-1.589
			c-0.057-0.23-0.111-0.461-0.171-0.69c-0.172-0.658-0.359-1.31-0.557-1.958c-0.027-0.09-0.052-0.182-0.08-0.273
			c-4.67-14.928-16.103-26.892-30.693-32.297c-0.219-0.08-0.441-0.155-0.661-0.232c-0.469-0.166-0.941-0.327-1.418-0.48
			c-0.417-0.133-0.837-0.258-1.259-0.381c-0.275-0.08-0.55-0.16-0.828-0.235c-0.547-0.149-1.097-0.29-1.653-0.42
			c-0.144-0.034-0.289-0.068-0.434-0.1c-0.651-0.148-1.306-0.286-1.968-0.408c-3.004-0.559-6.097-0.866-9.26-0.866
			C22.638,200.397,0,223.035,0,250.861c0,22.758,15.33,42.79,37.279,48.712l11.24,3.033V464.31h52.406V250.861
			C100.925,250.041,100.902,249.227,100.864,248.417z"/>
	</g>
</g>
<g>
	<g>
		<path d="M461.537,200.397c-3.164,0-6.256,0.307-9.26,0.866c-0.662,0.123-1.316,0.261-1.968,0.408
			c-0.145,0.032-0.289,0.066-0.434,0.1c-0.555,0.131-1.105,0.272-1.653,0.42c-0.277,0.076-0.552,0.155-0.828,0.235
			c-0.422,0.123-0.842,0.248-1.259,0.381c-0.475,0.153-0.947,0.314-1.418,0.48c-0.22,0.077-0.442,0.152-0.661,0.232
			c-14.59,5.405-26.022,17.37-30.693,32.297c-0.028,0.09-0.053,0.182-0.08,0.273c-0.199,0.648-0.384,1.299-0.557,1.958
			c-0.06,0.229-0.115,0.46-0.171,0.69c-0.131,0.527-0.254,1.056-0.368,1.589c-0.061,0.286-0.118,0.573-0.173,0.859
			c-0.095,0.489-0.183,0.982-0.264,1.477c-0.051,0.309-0.1,0.618-0.145,0.928c-0.071,0.491-0.132,0.985-0.188,1.48
			c-0.035,0.308-0.073,0.614-0.103,0.923c-0.052,0.538-0.089,1.079-0.124,1.621c-0.017,0.266-0.041,0.531-0.053,0.798
			c-0.039,0.811-0.062,1.624-0.062,2.444v213.449h52.406V302.606l11.24-3.033c21.95-5.922,37.28-25.953,37.28-48.712
			C512,223.035,489.362,200.397,461.537,200.397z"/>
	</g>
</g>
<g>
	<g>
		<path d="M334.714,47.69H177.286c-54.946,0-99.647,44.702-99.647,99.647v27.359c31.75,11.283,53.684,41.529,53.684,76.165v22.984
			h40.957v-143.84h30.398v143.841h38.122V130.005H271.2v143.841h38.123V130.005h30.398v143.841h40.957v-22.984
			c0-34.636,21.933-64.882,53.683-76.166v-27.359C434.361,92.392,389.66,47.69,334.714,47.69z"/>
	</g>
</g>
<g>
</g>
<g>
</g>
<g>
</g>
<g>
</g>
<g>
</g>
<g>
</g>
<g>
</g>
<g>
</g>
<g>
</g>
<g>
</g>
<g>
</g>
<g>
</g>
<g>
</g>
<g>
</g>
<g>
</g>
</svg>
