<?xml version="1.0" encoding="iso-8859-1"?>
<!-- Generator: Adobe Illustrator 19.0.0, SVG Export Plug-In . SVG Version: 6.00 Build 0)  -->
<svg version="1.1" id="Layer_1" xmlns="http://www.w3.org/2000/svg" xmlns:xlink="http://www.w3.org/1999/xlink" x="0px" y="0px"
	 viewBox="0 0 511.999 511.999" style="enable-background:new 0 0 511.999 511.999;" xml:space="preserve">
<g>
	<g>
		<rect x="165.601" y="104.159" width="17.919" height="9.145"/>
	</g>
</g>
<g>
	<g>
		<path d="M105.854,0v20.279H75.437V0H0v511.999h75.437V236.735h30.417v20.279h406.145V0H105.854z M105.854,206.317H75.437V50.696
			h30.417V206.317z M213.935,143.716h-21.47l20.634,17.159l-19.449,23.387l-28.052-23.328v20.643h-30.417v-37.862v-15.209V73.741
			h78.754V143.716z M302.785,104.159h-47.072v9.14h21.819v30.417h-21.819v9.14h47.072v30.417h-77.489V73.741h77.489V104.159z
			 M394.215,190.079l-48.336-48.998v40.496h-30.417V66.935l48.336,48.998V75.436h30.417V190.079z M483.115,104.159h-22.903v77.419
			h-30.417v-77.419H406.89V73.741h76.224V104.159z"/>
	</g>
</g>
<g>
</g>
<g>
</g>
<g>
</g>
<g>
</g>
<g>
</g>
<g>
</g>
<g>
</g>
<g>
</g>
<g>
</g>
<g>
</g>
<g>
</g>
<g>
</g>
<g>
</g>
<g>
</g>
<g>
</g>
</svg>
