<?xml version="1.0" encoding="iso-8859-1"?>
<!-- Generator: Adobe Illustrator 19.0.0, SVG Export Plug-In . SVG Version: 6.00 Build 0)  -->
<svg version="1.1" id="Layer_1" xmlns="http://www.w3.org/2000/svg" xmlns:xlink="http://www.w3.org/1999/xlink" x="0px" y="0px"
	 viewBox="0 0 512 512" style="enable-background:new 0 0 512 512;" xml:space="preserve">
<g>
	<g>
		<path d="M487.976,181.892c-2.501-0.648-5.66-1.106-10.111-1.106c-8.985,0-12.682,1.712-18.279,4.304
			c-6.844,3.169-15.362,7.114-31.033,7.114c-15.67,0-24.187-3.945-31.03-7.114c-5.596-2.592-9.292-4.304-18.275-4.304
			c-8.983,0-12.68,1.712-18.276,4.304c-6.844,3.169-15.361,7.114-31.031,7.114s-24.187-3.945-31.03-7.114
			c-5.595-2.592-9.292-4.304-18.274-4.304c-8.983,0-12.679,1.712-18.274,4.304c-6.843,3.169-15.36,7.114-31.029,7.114
			s-24.185-3.945-31.027-7.115c-5.594-2.592-9.29-4.304-18.271-4.304c-8.982,0-12.678,1.712-18.274,4.304
			c-6.843,3.17-15.36,7.114-31.029,7.114c-15.67,0-24.187-3.944-31.03-7.114c-5.595-2.592-9.292-4.304-18.274-4.304
			s-12.679,1.712-18.274,4.304c-6.843,3.17-15.36,7.114-31.03,7.114c-6.33,0.001-11.459-0.632-15.831-1.614
			c-8.737,14.514-14.679,30.889-17.088,48.378c6.147,1.439,10.681,3.53,14.643,5.365c5.594,2.592,9.291,4.304,18.273,4.304
			s12.678-1.712,18.274-4.304c6.844-3.169,15.36-7.115,31.03-7.115s24.187,3.944,31.03,7.115c5.596,2.592,9.292,4.304,18.275,4.304
			c8.982,0,12.678-1.712,18.274-4.304c6.844-3.169,15.36-7.115,31.03-7.115c15.669,0,24.185,3.945,31.028,7.115
			c5.594,2.592,9.29,4.304,18.271,4.304c8.982,0,12.678-1.712,18.274-4.304c6.844-3.169,15.36-7.115,31.03-7.115
			c15.67,0,24.187,3.944,31.03,7.115c5.596,2.592,9.292,4.304,18.275,4.304c8.983,0,12.679-1.712,18.275-4.304
			c6.844-3.169,15.361-7.115,31.031-7.115s24.187,3.944,31.03,7.115c5.596,2.592,9.292,4.304,18.275,4.304
			c8.985,0,12.682-1.713,18.279-4.305c6.844-3.17,15.362-7.114,31.033-7.114s24.189,3.944,31.033,7.114
			c0.916,0.424,1.779,0.822,2.624,1.196C509.503,221.925,501.072,200.129,487.976,181.892z"/>
	</g>
</g>
<g>
	<g>
		<path d="M459.586,445.432c-6.844,3.17-15.361,7.114-31.033,7.114c-15.67,0-24.187-3.944-31.03-7.114
			c-5.596-2.592-9.292-4.304-18.275-4.304c-8.983,0-12.68,1.712-18.276,4.304c-6.844,3.17-15.361,7.114-31.031,7.114
			c-15.67,0-24.187-3.944-31.03-7.114c-5.596-2.592-9.292-4.304-18.274-4.304c-8.982,0-12.679,1.712-18.274,4.304
			c-6.843,3.17-15.36,7.114-31.029,7.114s-24.185-3.944-31.027-7.115c-5.594-2.592-9.29-4.304-18.271-4.304
			c-8.982,0-12.678,1.712-18.274,4.304c-6.843,3.17-15.36,7.114-31.029,7.114c-15.67,0-24.187-3.944-31.03-7.114
			c-5.596-2.592-9.292-4.304-18.274-4.304s-12.679,1.712-18.274,4.304c-3.427,1.587-7.273,3.368-12.226,4.751
			c21.174,15.423,47.222,24.537,75.364,24.537h255.415c32.88,0.001,62.91-12.44,85.638-32.858
			C465.716,442.599,463.002,443.85,459.586,445.432z"/>
	</g>
</g>
<g>
	<g>
		<path d="M496.143,358.651c-5.596-2.592-9.294-4.305-18.279-4.305c-8.984,0-12.682,1.713-18.279,4.305
			c-6.844,3.17-15.362,7.114-31.033,7.114c-15.67,0-24.187-3.944-31.03-7.115c-5.595-2.592-9.292-4.304-18.275-4.304
			s-12.68,1.712-18.276,4.304c-6.844,3.17-15.361,7.115-31.031,7.115s-24.187-3.944-31.031-7.115
			c-5.596-2.592-9.292-4.304-18.274-4.304s-12.678,1.712-18.274,4.304c-6.844,3.17-15.36,7.115-31.03,7.115
			c-15.669,0-24.185-3.945-31.028-7.115c-5.594-2.592-9.29-4.304-18.271-4.304c-8.982,0-12.678,1.712-18.274,4.304
			c-6.843,3.17-15.36,7.115-31.03,7.115c-15.67,0-24.187-3.944-31.031-7.115c-5.596-2.592-9.292-4.304-18.274-4.304
			s-12.678,1.712-18.274,4.304c-6.844,3.17-15.36,7.115-31.03,7.115c-15.67,0-24.186-3.944-31.029-7.115
			c-0.914-0.423-1.774-0.82-2.618-1.193c2.019,23.601,10.451,45.398,23.548,63.634c2.498,0.646,5.653,1.104,10.098,1.104
			c8.982,0,12.679-1.712,18.274-4.304c6.843-3.17,15.36-7.114,31.03-7.114c15.67,0,24.186,3.944,31.03,7.114
			c5.596,2.592,9.292,4.304,18.275,4.304c8.982,0,12.678-1.712,18.274-4.304c6.843-3.17,15.36-7.114,31.029-7.114
			s24.185,3.944,31.027,7.115c5.594,2.592,9.29,4.304,18.271,4.304c8.982,0,12.678-1.712,18.274-4.304
			c6.843-3.17,15.36-7.114,31.03-7.114c15.67,0,24.187,3.944,31.03,7.114c5.595,2.592,9.292,4.304,18.275,4.304
			s12.679-1.712,18.275-4.304c6.844-3.17,15.361-7.114,31.031-7.114c15.67,0,24.187,3.944,31.03,7.114
			c5.595,2.592,9.292,4.304,18.275,4.304c8.985,0,12.682-1.712,18.279-4.304c6.844-3.17,15.361-7.114,31.033-7.114
			c6.303,0,11.439,0.635,15.833,1.623c8.74-14.515,14.683-30.893,17.092-48.385C504.641,362.577,500.107,360.486,496.143,358.651z"
			/>
	</g>
</g>
<g>
	<g>
		<path d="M496.142,271.869c-5.595-2.591-9.293-4.304-18.278-4.304s-12.682,1.713-18.279,4.305
			c-6.844,3.17-15.362,7.114-31.033,7.114c-15.67,0-24.187-3.944-31.03-7.115c-5.595-2.592-9.292-4.304-18.275-4.304
			s-12.68,1.712-18.276,4.304c-6.844,3.17-15.361,7.115-31.031,7.115s-24.187-3.944-31.031-7.115
			c-5.596-2.592-9.292-4.304-18.274-4.304s-12.678,1.712-18.274,4.304c-6.844,3.17-15.36,7.115-31.03,7.115
			c-15.669,0-24.185-3.945-31.028-7.115c-5.594-2.592-9.29-4.304-18.271-4.304c-8.982,0-12.678,1.712-18.274,4.304
			c-6.843,3.17-15.36,7.115-31.03,7.115c-15.67,0-24.187-3.944-31.031-7.115c-5.596-2.592-9.292-4.304-18.274-4.304
			s-12.678,1.712-18.274,4.304c-6.844,3.17-15.36,7.115-31.03,7.115c-15.67,0-24.186-3.944-31.029-7.115
			c-1.087-0.504-2.101-0.972-3.098-1.403v55.008c6.774,1.438,11.635,3.683,15.854,5.637c5.594,2.592,9.291,4.304,18.273,4.304
			c8.982,0,12.678-1.712,18.274-4.304c6.844-3.169,15.36-7.115,31.03-7.115s24.187,3.944,31.03,7.115
			c5.596,2.592,9.292,4.304,18.275,4.304c8.982,0,12.678-1.712,18.274-4.304c6.844-3.169,15.36-7.115,31.03-7.115
			c15.669,0,24.185,3.945,31.028,7.115c5.594,2.592,9.29,4.304,18.271,4.304c8.982,0,12.678-1.712,18.274-4.304
			c6.844-3.169,15.36-7.115,31.03-7.115c15.67,0,24.187,3.944,31.03,7.115c5.595,2.592,9.292,4.304,18.275,4.304
			s12.679-1.712,18.275-4.304c6.844-3.169,15.361-7.115,31.031-7.115s24.187,3.944,31.03,7.115
			c5.595,2.592,9.292,4.304,18.275,4.304c8.985,0,12.682-1.713,18.279-4.305c6.844-3.17,15.362-7.114,31.033-7.114
			c15.671,0,24.189,3.944,31.033,7.114c1.089,0.504,2.105,0.974,3.104,1.405v-55.009
			C505.224,276.068,500.362,273.822,496.142,271.869z"/>
	</g>
</g>
<g>
	<g>
		<path d="M383.708,128.263h-40.703v-30.35v-19.66c0-22.592-18.38-40.972-40.972-40.972c-22.592,0-40.972,18.38-40.972,40.972
			v19.659v0.382h30.35v-0.382V78.253c0-5.858,4.765-10.622,10.622-10.622c5.858,0,10.622,4.765,10.622,10.622v19.659v30.35h-61.714
			v-30.35V78.253c0-22.592-18.38-40.972-40.972-40.972c-22.592,0-40.972,18.38-40.972,40.972v19.659v0.382h30.351v-0.382V78.253
			c0-5.858,4.765-10.622,10.622-10.622c5.858,0,10.622,4.765,10.622,10.622v19.659v30.35h-92.298
			c-32.883,0-62.911,12.44-85.638,32.856c3.626-0.737,6.336-1.988,9.745-3.567c6.843-3.169,15.36-7.114,31.03-7.114
			s24.187,3.944,31.03,7.114c5.596,2.592,9.292,4.304,18.275,4.304c8.982,0,12.678-1.712,18.274-4.304
			c6.843-3.169,15.36-7.114,31.029-7.114c15.669,0,24.185,3.944,31.028,7.115c5.594,2.592,9.29,4.304,18.271,4.304
			c8.982,0,12.678-1.712,18.274-4.304c6.843-3.169,15.36-7.114,31.03-7.114c15.67,0,24.186,3.945,31.03,7.114
			c5.595,2.592,9.292,4.304,18.275,4.304s12.679-1.712,18.275-4.304c6.844-3.169,15.361-7.114,31.031-7.114
			c15.67,0,24.187,3.945,31.03,7.114c5.595,2.592,9.292,4.304,18.275,4.304c8.985,0,12.682-1.712,18.279-4.304
			c3.429-1.588,7.278-3.37,12.236-4.754C437.895,137.377,411.848,128.263,383.708,128.263z"/>
	</g>
</g>
<g>
</g>
<g>
</g>
<g>
</g>
<g>
</g>
<g>
</g>
<g>
</g>
<g>
</g>
<g>
</g>
<g>
</g>
<g>
</g>
<g>
</g>
<g>
</g>
<g>
</g>
<g>
</g>
<g>
</g>
</svg>
