<?xml version="1.0" encoding="iso-8859-1"?>
<!-- Generator: Adobe Illustrator 19.0.0, SVG Export Plug-In . SVG Version: 6.00 Build 0)  -->
<svg version="1.1" id="Layer_1" xmlns="http://www.w3.org/2000/svg" xmlns:xlink="http://www.w3.org/1999/xlink" x="0px" y="0px"
	 viewBox="0 0 512 512" style="enable-background:new 0 0 512 512;" xml:space="preserve">
<g>
	<g>
		<path d="M460.058,182.33H51.943H21.525v303.029h50.695h367.558h50.695V182.33H460.058z M256,424.899
			c-20.913,0-37.927-17.013-37.927-37.926c0-18.156,10.096-37.523,30.01-57.56l7.942-7.993l7.911,8.024
			c13.683,13.876,29.992,35.122,29.992,57.529C293.928,407.885,276.913,424.899,256,424.899z M409.361,454.941h-82.293
			c16.913-17.676,27.318-41.63,27.318-67.968c0-80.047-86.933-132.461-90.635-134.653L256,247.729l-7.751,4.591
			c-3.701,2.192-90.635,54.606-90.635,134.653c0,26.338,10.405,50.291,27.318,67.968h-82.293V259.469
			c0-14.581,11.863-26.444,26.444-26.444h253.836c14.581,0,26.444,11.863,26.444,26.444V454.941z"/>
	</g>
</g>
<g>
	<g>
		<path d="M353.027,79.925c-13.456-31.882-44.983-53.284-80.34-53.284h-33.374c-35.358,0-66.885,21.402-80.34,53.284H0v71.987
			h21.525h8.892h451.166h8.892H512V79.925H353.027z"/>
	</g>
</g>
<g>
</g>
<g>
</g>
<g>
</g>
<g>
</g>
<g>
</g>
<g>
</g>
<g>
</g>
<g>
</g>
<g>
</g>
<g>
</g>
<g>
</g>
<g>
</g>
<g>
</g>
<g>
</g>
<g>
</g>
</svg>
