<?xml version="1.0" encoding="iso-8859-1"?>
<!-- Generator: Adobe Illustrator 19.0.0, SVG Export Plug-In . SVG Version: 6.00 Build 0)  -->
<svg version="1.1" id="Layer_1" xmlns="http://www.w3.org/2000/svg" xmlns:xlink="http://www.w3.org/1999/xlink" x="0px" y="0px"
	 viewBox="0 0 512 512" style="enable-background:new 0 0 512 512;" xml:space="preserve">
<g>
	<g>
		<path d="M393.714,212.401V29.585H118.285v182.817H0v30.417h20.28v166.28H0.001v73.315h511.998v-73.315H491.72v-166.28H512v-0.001
			v-30.417H393.714z M69.282,409.098H50.697v-166.28h18.585V409.098z M118.285,409.098H99.699v-166.28h18.586V409.098z
			 M167.287,409.098h-18.585v-166.28h18.585V409.098z M216.29,409.098h-18.586v-166.28h18.586V409.098z M265.292,409.098h-18.585
			v-166.28h18.585V409.098z M314.295,409.098h-18.586v-166.28h18.586V409.098z M343.016,212.402h-30.417V110.701h-41.391v101.702
			h-30.417V110.701H199.4v101.702h-30.417V80.283h174.032V212.402z M363.297,409.098h-18.585v-166.28h18.585V409.098z
			 M412.3,409.098h-18.586v-166.28H412.3V409.098z M461.303,409.098h-18.585v-166.28h18.585V409.098z"/>
	</g>
</g>
<g>
</g>
<g>
</g>
<g>
</g>
<g>
</g>
<g>
</g>
<g>
</g>
<g>
</g>
<g>
</g>
<g>
</g>
<g>
</g>
<g>
</g>
<g>
</g>
<g>
</g>
<g>
</g>
<g>
</g>
</svg>
