<?xml version="1.0" encoding="iso-8859-1"?>
<!-- Generator: Adobe Illustrator 19.0.0, SVG Export Plug-In . SVG Version: 6.00 Build 0)  -->
<svg version="1.1" id="Layer_1" xmlns="http://www.w3.org/2000/svg" xmlns:xlink="http://www.w3.org/1999/xlink" x="0px" y="0px"
	 viewBox="0 0 512 512" style="enable-background:new 0 0 512 512;" xml:space="preserve">
<g>
	<g>
		<path d="M417.427,0H94.681H49.082v30.417h45.599v79.418c0,64.565,38.121,120.386,93.032,146.165
			c-50.549,23.73-86.859,72.921-92.31,130.956h321.302c-5.451-58.035-41.761-107.226-92.31-130.956
			c54.911-25.778,93.032-81.599,93.032-146.165V30.417h45.491V0H417.427z M304.209,196.141l-80.859-80.858v73.303h-30.417V63.358
			h125.228v30.417h-73.303l80.859,80.858L304.209,196.141z"/>
	</g>
</g>
<g>
	<g>
		<polygon points="417.427,481.583 417.427,417.372 94.681,417.372 94.681,481.583 49.082,481.583 49.082,512 94.681,512 
			417.427,512 462.918,512 462.918,481.583 		"/>
	</g>
</g>
<g>
</g>
<g>
</g>
<g>
</g>
<g>
</g>
<g>
</g>
<g>
</g>
<g>
</g>
<g>
</g>
<g>
</g>
<g>
</g>
<g>
</g>
<g>
</g>
<g>
</g>
<g>
</g>
<g>
</g>
</svg>
