<?xml version="1.0" encoding="iso-8859-1"?>
<!-- Generator: Adobe Illustrator 19.0.0, SVG Export Plug-In . SVG Version: 6.00 Build 0)  -->
<svg version="1.1" id="Layer_1" xmlns="http://www.w3.org/2000/svg" xmlns:xlink="http://www.w3.org/1999/xlink" x="0px" y="0px"
	 viewBox="0 0 512 512" style="enable-background:new 0 0 512 512;" xml:space="preserve">
<g>
	<g>
		<path d="M39.458,271.69V512h433.083V271.69H39.458z M150.761,448.251h-40.012v-52.828h40.012V448.251z M150.761,365.067h-40.012
			v-4.794c0-25.168,16.94-46.439,40.012-53.051V365.067z M221.129,448.251h-40.012v-52.828h40.012V448.251z M221.129,365.067
			h-40.012v-57.845c23.072,6.612,40.012,27.883,40.012,53.051V365.067z M330.882,448.251H290.87v-52.828h40.012V448.251z
			 M330.882,365.067H290.87v-4.794c0-25.168,16.94-46.439,40.012-53.051V365.067z M401.25,448.251h-40.012v-52.828h40.012V448.251z
			 M401.25,365.067h-40.012v-57.845c23.072,6.612,40.012,27.883,40.012,53.051V365.067z"/>
	</g>
</g>
<g>
	<g>
		<path d="M458.097,75.459L255.999,0L53.903,75.459L4.381,241.334h503.238L458.097,75.459z M156.894,207.942h-50.001v-79.246h50.001
			V207.942z M240.821,207.942h-40.012v-52.828h40.012V207.942z M240.821,124.757h-40.012v-4.795c0-25.168,16.94-46.438,40.012-53.05
			V124.757z M311.19,207.942h-40.012v-52.828h40.012V207.942z M311.19,124.757h-40.012V66.912
			c23.072,6.612,40.012,27.882,40.012,53.05V124.757z M405.106,207.942h-50.001v-79.246h50.001V207.942z"/>
	</g>
</g>
<g>
</g>
<g>
</g>
<g>
</g>
<g>
</g>
<g>
</g>
<g>
</g>
<g>
</g>
<g>
</g>
<g>
</g>
<g>
</g>
<g>
</g>
<g>
</g>
<g>
</g>
<g>
</g>
<g>
</g>
</svg>
