<?xml version="1.0" encoding="iso-8859-1"?>
<!-- Generator: Adobe Illustrator 19.0.0, SVG Export Plug-In . SVG Version: 6.00 Build 0)  -->
<svg version="1.1" id="Layer_1" xmlns="http://www.w3.org/2000/svg" xmlns:xlink="http://www.w3.org/1999/xlink" x="0px" y="0px"
	 viewBox="0 0 512 512" style="enable-background:new 0 0 512 512;" xml:space="preserve">
<g>
	<g>
		<path d="M81.115,138.896v75.727h349.768v-75.727H81.115z M349.764,199.248h-30.417v-44.977h30.417V199.248z M400.463,199.248
			h-30.417v-44.977h30.417V199.248z"/>
	</g>
</g>
<g>
	<g>
		<path d="M256,350.301c-8.017,0-14.539,6.523-14.539,14.539S247.983,379.38,256,379.38c8.017,0,14.539-6.523,14.539-14.539
			S264.017,350.301,256,350.301z"/>
	</g>
</g>
<g>
	<g>
		<path d="M0,57.781v396.438h512V57.781H0z M50.698,108.479h410.602V245.04H50.698V108.479z M338.802,312.545v-30.417h19.515
			v-19.515h30.417v19.515h19.515v30.417h-19.515v19.515h-30.417v-19.515H338.802z M173.197,282.128v30.417h-69.446v-30.417H173.197z
			 M461.302,380.049H298.303c-6.248,17.327-22.85,29.748-42.303,29.748c-19.453,0-36.054-12.421-42.303-29.748h-163v-30.417h163
			c6.248-17.327,22.85-29.748,42.303-29.748c19.453,0,36.056,12.421,42.303,29.748h162.998V380.049z"/>
	</g>
</g>
<g>
</g>
<g>
</g>
<g>
</g>
<g>
</g>
<g>
</g>
<g>
</g>
<g>
</g>
<g>
</g>
<g>
</g>
<g>
</g>
<g>
</g>
<g>
</g>
<g>
</g>
<g>
</g>
<g>
</g>
</svg>
