<?xml version="1.0" encoding="iso-8859-1"?>
<!-- Generator: Adobe Illustrator 19.0.0, SVG Export Plug-In . SVG Version: 6.00 Build 0)  -->
<svg version="1.1" id="Layer_1" xmlns="http://www.w3.org/2000/svg" xmlns:xlink="http://www.w3.org/1999/xlink" x="0px" y="0px"
	 viewBox="0 0 511.999 511.999" style="enable-background:new 0 0 511.999 511.999;" xml:space="preserve">
<g>
	<g>
		<path d="M447.926,78.493v391.91c0,11.932,9.707,21.64,21.64,21.64h20.794c11.932,0,21.64-9.707,21.64-21.64V78.493H447.926z"/>
	</g>
</g>
<g>
	<g>
		<rect x="60.598" y="326.899" width="55.991" height="81.039"/>
	</g>
</g>
<g>
	<g>
		<rect x="60.598" y="104.06" width="109.966" height="136.746"/>
	</g>
</g>
<g>
	<g>
		<path d="M417.54,470.405V19.954H0v450.451c0,11.932,9.707,21.64,21.64,21.64h400.633
			C419.243,485.45,417.54,478.125,417.54,470.405z M30.213,73.674h170.733v197.518H30.213V73.674z M146.979,438.324H30.213V296.516
			h116.766V438.324z M264.456,438.324h-92.152v-30.386h92.152V438.324z M264.456,382.613h-92.152v-30.386h92.152V382.613z
			 M264.456,326.902h-92.152v-30.386h92.152V326.902z M376.866,438.324h-92.152v-30.386h92.152V438.324z M376.866,382.613h-92.152
			v-30.386h92.152V382.613z M376.866,326.902h-92.152v-30.386h92.152V326.902z M376.866,271.192H226.27v-30.386h150.597V271.192z
			 M376.866,215.482H226.27v-30.386h150.597V215.482z M376.866,159.77H226.27v-30.386h150.597V159.77z M376.866,104.06H226.27
			V73.674h150.597V104.06z"/>
	</g>
</g>
<g>
</g>
<g>
</g>
<g>
</g>
<g>
</g>
<g>
</g>
<g>
</g>
<g>
</g>
<g>
</g>
<g>
</g>
<g>
</g>
<g>
</g>
<g>
</g>
<g>
</g>
<g>
</g>
<g>
</g>
</svg>
