<?xml version="1.0" encoding="iso-8859-1"?>
<!-- Generator: Adobe Illustrator 19.0.0, SVG Export Plug-In . SVG Version: 6.00 Build 0)  -->
<svg version="1.1" id="Layer_1" xmlns="http://www.w3.org/2000/svg" xmlns:xlink="http://www.w3.org/1999/xlink" x="0px" y="0px"
	 viewBox="0 0 512.001 512.001" style="enable-background:new 0 0 512.001 512.001;" xml:space="preserve">
<g>
	<g>
		<path d="M28.524,228.352c-15.468,0-28.051,12.584-28.051,28.052v255.597h85.074V228.352H28.524z"/>
	</g>
</g>
<g>
	<g>
		<path d="M483.477,228.352h-57.023V512h85.074V256.404C511.528,240.936,498.945,228.352,483.477,228.352z"/>
	</g>
</g>
<g>
	<g>
		<rect x="271.199" y="468.149" width="18.91" height="43.852"/>
	</g>
</g>
<g>
	<g>
		<path d="M115.943,126.136v71.819V512h75.552v-74.253h129.009V512h75.552V197.955v-71.819H115.943z M175.319,411.142h-40.374
			v-30.397h40.374V411.142z M175.319,354.142h-40.374v-30.397h40.374V354.142z M175.319,297.14h-40.374v-30.397h40.374V297.14z
			 M175.319,240.139h-40.374v-30.397h40.374V240.139z M175.319,183.138h-40.374v-30.397h40.374V183.138z M242.565,411.142h-40.374
			v-30.397h40.374V411.142z M242.565,354.142h-40.374v-30.397h40.374V354.142z M242.565,297.14h-40.374v-30.397h40.374V297.14z
			 M242.565,240.139h-40.374v-30.397h40.374V240.139z M242.565,183.138h-40.374v-30.397h40.374V183.138z M309.81,411.142
			L309.81,411.142h-40.374v-30.397h40.374V411.142z M309.81,354.142L309.81,354.142h-40.374v-30.397h40.374V354.142z M309.81,297.14
			L309.81,297.14h-40.374v-30.397h40.374V297.14z M309.81,240.139L309.81,240.139h-40.374v-30.397h40.374V240.139z M309.81,183.138
			L309.81,183.138h-40.374v-30.397h40.374V183.138z M377.056,411.142h-40.374v-30.397h40.374V411.142z M377.056,354.142h-40.374
			v-30.397h40.374V354.142z M377.056,297.14h-40.374v-30.397h40.374V297.14z M377.056,240.139h-40.374v-30.397h40.374V240.139z
			 M377.056,183.138h-40.374v-30.397h40.374V183.138z"/>
	</g>
</g>
<g>
	<g>
		<rect x="221.896" y="468.149" width="18.91" height="43.852"/>
	</g>
</g>
<g>
	<g>
		<polygon points="104.47,0.001 104.47,33.685 87.095,33.685 87.095,0.001 56.698,0.001 56.698,97.766 85.547,97.766 87.095,97.766 
			87.095,95.739 87.095,64.081 104.47,64.081 104.47,95.739 104.47,97.766 134.866,97.766 134.866,95.739 134.866,0.001 		"/>
	</g>
</g>
<g>
	<g>
		<path d="M142.685,0.001v95.738v2.025h72.307v-2.025V0.001H142.685z M184.595,67.368h-11.513v-36.97h11.513V67.368z"/>
	</g>
</g>
<g>
	<g>
		<polygon points="380.243,30.398 380.243,0.001 308.803,0.001 308.803,95.739 308.803,97.765 380.243,97.765 380.243,95.739 
			380.243,67.368 339.2,67.368 339.2,64.081 363.285,64.081 363.285,33.685 339.2,33.685 339.2,30.398 		"/>
	</g>
</g>
<g>
	<g>
		<polygon points="419.327,67.368 419.327,0 388.931,0 388.931,95.739 388.931,97.765 426.454,97.765 460.371,97.765 
			460.371,67.368 		"/>
	</g>
</g>
<g>
	<g>
		<polygon points="223.681,0.001 223.681,30.398 246.701,30.398 246.701,95.739 246.701,97.766 277.097,97.766 277.097,95.739 
			277.097,30.398 300.116,30.398 300.116,0.001 		"/>
	</g>
</g>
<g>
</g>
<g>
</g>
<g>
</g>
<g>
</g>
<g>
</g>
<g>
</g>
<g>
</g>
<g>
</g>
<g>
</g>
<g>
</g>
<g>
</g>
<g>
</g>
<g>
</g>
<g>
</g>
<g>
</g>
</svg>
