<?xml version="1.0" encoding="iso-8859-1"?>
<!-- Generator: Adobe Illustrator 19.0.0, SVG Export Plug-In . SVG Version: 6.00 Build 0)  -->
<svg version="1.1" id="Layer_1" xmlns="http://www.w3.org/2000/svg" xmlns:xlink="http://www.w3.org/1999/xlink" x="0px" y="0px"
	 viewBox="0 0 511.999 511.999" style="enable-background:new 0 0 511.999 511.999;" xml:space="preserve">
<g>
	<g>
		<path d="M35.49,56.092c0-10.84,2.443-21.117,6.788-30.325H0v460.464h42.278c-4.346-9.208-6.788-19.485-6.788-30.325V56.092z"/>
	</g>
</g>
<g>
	<g>
		<path d="M210.751,25.767c4.346,9.208,6.788,19.485,6.788,30.325v399.814c0,10.84-2.443,21.117-6.788,30.325h301.248V25.767
			H210.751z M307.073,430.687H251.19v-55.884h55.884V430.687z M307.073,344.386H251.19v-55.883h55.884V344.386z M307.073,258.086
			H251.19v-55.884h55.884V258.086z M393.373,430.687H337.49v-55.884h55.883V430.687z M393.373,344.386H337.49v-55.883h55.883
			V344.386z M393.373,258.086H337.49v-55.884h55.883V258.086z M479.674,430.687H423.79v-55.884h55.884V430.687z M479.674,344.386
			H423.79v-55.883h55.884V344.386z M479.674,258.086H423.79v-55.884h55.884V258.086z M479.674,153.037H251.189V81.313h228.485
			V153.037z"/>
	</g>
</g>
<g>
	<g>
		<path d="M146.237,15.209h-39.446c-22.543,0-40.884,18.341-40.884,40.884v399.814c0,22.543,18.341,40.884,40.884,40.884h39.446
			c22.543,0,40.885-18.341,40.885-40.884V56.092C187.123,33.549,168.781,15.209,146.237,15.209z"/>
	</g>
</g>
<g>
</g>
<g>
</g>
<g>
</g>
<g>
</g>
<g>
</g>
<g>
</g>
<g>
</g>
<g>
</g>
<g>
</g>
<g>
</g>
<g>
</g>
<g>
</g>
<g>
</g>
<g>
</g>
<g>
</g>
</svg>
