<?xml version="1.0" encoding="iso-8859-1"?>
<!-- Generator: Adobe Illustrator 19.0.0, SVG Export Plug-In . SVG Version: 6.00 Build 0)  -->
<svg version="1.1" id="Layer_1" xmlns="http://www.w3.org/2000/svg" xmlns:xlink="http://www.w3.org/1999/xlink" x="0px" y="0px"
	 viewBox="0 0 512.001 512.001" style="enable-background:new 0 0 512.001 512.001;" xml:space="preserve">
<g>
	<g>
		<path d="M256,1.468L0,254.587h39.984v255.946h432.034V254.587h39.984L256,1.468z M256,446.884
			c-77.562,0-140.439-62.876-140.439-140.439c0.001-77.561,62.877-140.439,140.439-140.439c77.562,0,140.439,62.877,140.439,140.439
			C396.439,384.008,333.562,446.884,256,446.884z"/>
	</g>
</g>
<g>
	<g>
		<path d="M360.382,323.949c-3.621-13.511-12.286-24.805-24.401-31.799c-9.123-5.267-22.562-9.302-36.049-11.067
			c5.214-12.563,8.439-26.219,8.439-36.753c0-28.876-23.493-52.37-52.37-52.37s-52.37,23.493-52.37,52.37
			c0,10.535,3.225,24.191,8.439,36.753c-13.487,1.766-26.926,5.8-36.049,11.067c-12.115,6.994-20.78,18.288-24.401,31.799
			c-3.62,13.512-1.762,27.626,5.232,39.741c9.689,16.782,27.327,26.174,45.441,26.174c8.879,0,17.871-2.257,26.098-7.006
			c9.124-5.267,19.337-14.888,27.61-25.685c8.273,10.798,18.486,20.419,27.61,25.685c8.228,4.75,17.217,7.006,26.098,7.006
			c18.112,0,35.753-9.394,45.441-26.174C362.144,351.575,364.002,337.462,360.382,323.949z M213.272,356.673
			c-10.566,6.102-24.131,2.468-30.234-8.101c-2.955-5.121-3.74-11.086-2.21-16.797c1.53-5.711,5.192-10.483,10.312-13.439
			c3.811-2.2,10.283-4.505,17.741-6.071c1.581,13.017,8.412,24.504,18.499,32.103C222.301,350.033,217.079,354.474,213.272,356.673z
			 M273.151,308.126c-0.014,0.147-0.041,0.291-0.058,0.438c-0.05,0.412-0.108,0.822-0.187,1.226
			c-0.027,0.14-0.063,0.276-0.094,0.414c-0.093,0.417-0.195,0.829-0.318,1.235c-0.03,0.102-0.064,0.201-0.097,0.301
			c-0.147,0.455-0.308,0.903-0.492,1.34c-0.018,0.042-0.035,0.085-0.053,0.127c-1.734,4.05-4.976,7.301-9.016,9.053
			c-0.11,0.047-0.22,0.093-0.331,0.137c-0.353,0.144-0.712,0.273-1.075,0.395c-0.205,0.067-0.41,0.133-0.619,0.193
			c-0.273,0.079-0.55,0.147-0.828,0.214c-0.28,0.065-0.561,0.131-0.848,0.183c-1.018,0.189-2.062,0.299-3.134,0.299
			c-1.071,0-2.116-0.111-3.134-0.299c-0.286-0.052-0.566-0.118-0.848-0.183c-0.278-0.067-0.555-0.135-0.828-0.214
			c-0.209-0.06-0.413-0.126-0.619-0.193c-0.364-0.121-0.723-0.251-1.075-0.395c-0.111-0.044-0.221-0.09-0.331-0.137
			c-4.04-1.752-7.282-5.004-9.016-9.052c-0.018-0.043-0.036-0.086-0.053-0.129c-0.183-0.437-0.345-0.885-0.492-1.339
			c-0.032-0.101-0.067-0.2-0.097-0.301c-0.123-0.404-0.225-0.817-0.318-1.235c-0.031-0.138-0.067-0.274-0.094-0.414
			c-0.08-0.402-0.137-0.813-0.188-1.226c-0.018-0.147-0.044-0.29-0.058-0.438c-0.053-0.553-0.085-1.113-0.085-1.679
			c0-0.563,0.031-1.118,0.085-1.666c0.015-0.153,0.042-0.305,0.06-0.459c0.049-0.399,0.105-0.797,0.181-1.188
			c0.031-0.162,0.072-0.322,0.108-0.483c0.086-0.381,0.18-0.759,0.291-1.129c0.045-0.151,0.095-0.301,0.144-0.451
			c0.766-2.325,2.018-4.424,3.628-6.195c0.209-0.23,0.412-0.463,0.631-0.679c0.222-0.22,0.46-0.423,0.693-0.63
			c0.209-0.185,0.415-0.372,0.631-0.545c0.245-0.198,0.5-0.382,0.756-0.566c0.226-0.162,0.454-0.321,0.686-0.473
			c0.257-0.167,0.519-0.326,0.785-0.478c0.255-0.146,0.513-0.284,0.775-0.417c0.258-0.131,0.517-0.259,0.782-0.377
			c0.294-0.131,0.594-0.248,0.895-0.362c0.248-0.095,0.494-0.19,0.747-0.273c0.342-0.112,0.69-0.204,1.04-0.294
			c0.228-0.058,0.452-0.126,0.682-0.175c0.406-0.088,0.819-0.147,1.233-0.206c0.186-0.026,0.369-0.064,0.557-0.086
			c0.608-0.065,1.222-0.102,1.84-0.102s1.233,0.036,1.84,0.102c0.188,0.021,0.371,0.059,0.557,0.086
			c0.413,0.058,0.826,0.118,1.233,0.206c0.231,0.049,0.455,0.117,0.682,0.175c0.349,0.091,0.697,0.182,1.04,0.294
			c0.253,0.083,0.5,0.179,0.747,0.273c0.301,0.114,0.601,0.231,0.895,0.362c0.265,0.118,0.524,0.246,0.782,0.377
			c0.262,0.133,0.52,0.272,0.775,0.417c0.266,0.152,0.528,0.311,0.785,0.478c0.233,0.15,0.461,0.31,0.686,0.473
			c0.256,0.184,0.511,0.368,0.756,0.566c0.216,0.173,0.422,0.36,0.631,0.545c0.234,0.207,0.471,0.41,0.693,0.63
			c0.219,0.217,0.422,0.45,0.631,0.679c1.612,1.772,2.863,3.871,3.63,6.195c0.049,0.149,0.099,0.299,0.144,0.45
			c0.111,0.371,0.206,0.749,0.291,1.131c0.036,0.16,0.077,0.32,0.108,0.481c0.077,0.392,0.133,0.79,0.182,1.191
			c0.019,0.152,0.045,0.303,0.06,0.456c0.052,0.549,0.085,1.105,0.085,1.667C273.235,307.014,273.204,307.573,273.151,308.126z
			 M274.522,262.726c-5.782-2.449-12.066-3.75-18.522-3.75c-6.457,0-12.739,1.301-18.522,3.75c-2.373-7.241-3.61-13.996-3.61-18.396
			c0-12.204,9.929-22.133,22.133-22.133s22.133,9.929,22.133,22.133C278.133,248.73,276.894,255.485,274.522,262.726z
			 M328.962,348.571c-6.102,10.57-19.665,14.202-30.234,8.101c-3.807-2.198-9.029-6.64-14.108-12.305
			c10.088-7.599,16.918-19.086,18.499-32.103c7.457,1.566,13.929,3.871,17.741,6.071c5.12,2.956,8.783,7.729,10.312,13.439
			C332.704,337.486,331.917,343.451,328.962,348.571z"/>
	</g>
</g>
<g>
</g>
<g>
</g>
<g>
</g>
<g>
</g>
<g>
</g>
<g>
</g>
<g>
</g>
<g>
</g>
<g>
</g>
<g>
</g>
<g>
</g>
<g>
</g>
<g>
</g>
<g>
</g>
<g>
</g>
</svg>
