<?xml version="1.0" encoding="iso-8859-1"?>
<!-- Generator: Adobe Illustrator 19.0.0, SVG Export Plug-In . SVG Version: 6.00 Build 0)  -->
<svg version="1.1" id="Layer_1" xmlns="http://www.w3.org/2000/svg" xmlns:xlink="http://www.w3.org/1999/xlink" x="0px" y="0px"
	 viewBox="0 0 512 512" style="enable-background:new 0 0 512 512;" xml:space="preserve">
<g>
	<g>
		<path d="M351.554,133.17c-39.569,0-71.759,32.191-71.759,71.759c0,39.568,32.191,71.759,71.759,71.759s71.76-32.19,71.76-71.759
			C423.314,165.362,391.122,133.17,351.554,133.17z M334.633,231.381h-30.417v-52.904h30.417V231.381z M398.891,231.381h-30.417
			v-52.904h30.417V231.381z"/>
	</g>
</g>
<g>
	<g>
		<path d="M511.999,44.485H191.11v320.888h320.889L511.999,44.485L511.999,44.485z M351.554,307.105
			c-56.341,0-102.176-45.836-102.176-102.176c0-56.34,45.837-102.176,102.176-102.176s102.177,45.837,102.177,102.176
			C453.731,261.269,407.894,307.105,351.554,307.105z"/>
	</g>
</g>
<g>
	<g>
		<path d="M132.377,437.098c-27.141,0-49.222-22.081-49.222-49.223v-74.661c29.111-0.191,52.737-23.925,52.737-53.08V180.59h-20.609
			v-49.863H84.867v49.863H51.026v-49.863H20.609v49.863H0v79.544c0,29.155,23.626,52.889,52.738,53.08v74.661
			c0,43.914,35.726,79.64,79.639,79.64H512v-30.417H132.377z"/>
	</g>
</g>
<g>
</g>
<g>
</g>
<g>
</g>
<g>
</g>
<g>
</g>
<g>
</g>
<g>
</g>
<g>
</g>
<g>
</g>
<g>
</g>
<g>
</g>
<g>
</g>
<g>
</g>
<g>
</g>
<g>
</g>
</svg>
