<?xml version="1.0" encoding="iso-8859-1"?>
<!-- Generator: Adobe Illustrator 19.0.0, SVG Export Plug-In . SVG Version: 6.00 Build 0)  -->
<svg version="1.1" id="Layer_1" xmlns="http://www.w3.org/2000/svg" xmlns:xlink="http://www.w3.org/1999/xlink" x="0px" y="0px"
	 viewBox="0 0 512 512" style="enable-background:new 0 0 512 512;" xml:space="preserve">
<g>
	<g>
		<polygon points="215.235,187.328 215.235,470.334 241.954,470.334 241.954,450.715 241.954,420.339 241.954,400.722 
			241.954,370.346 241.954,350.727 241.954,320.352 241.954,270.358 485.281,270.358 485.281,320.352 485.281,350.727 
			485.281,370.346 485.281,400.722 485.281,420.339 485.281,450.715 485.281,470.334 512,470.334 512,187.328 		"/>
	</g>
</g>
<g>
	<g>
		<rect x="272.328" y="300.73" width="182.578" height="19.618"/>
	</g>
</g>
<g>
	<g>
		<rect x="272.328" y="350.728" width="182.578" height="19.619"/>
	</g>
</g>
<g>
	<g>
		<rect x="272.328" y="400.717" width="182.578" height="19.618"/>
	</g>
</g>
<g>
	<g>
		<rect x="272.328" y="450.715" width="182.578" height="19.619"/>
	</g>
</g>
<g>
	<g>
		<path d="M0,41.666v428.667h184.86V156.952V41.666H0z M26.719,68.386h50.522h30.376h50.522v137.713h-50.521H77.242H26.719V68.386z
			 M107.618,408.071H77.242H26.719V270.358h50.522h30.376h50.522v137.713H107.618z"/>
	</g>
</g>
<g>
	<g>
		<rect x="57.096" y="98.762" width="20.146" height="76.962"/>
	</g>
</g>
<g>
	<g>
		<rect x="107.621" y="98.762" width="20.147" height="76.962"/>
	</g>
</g>
<g>
	<g>
		<rect x="57.096" y="300.73" width="20.146" height="76.962"/>
	</g>
</g>
<g>
	<g>
		<rect x="107.621" y="300.73" width="20.147" height="76.962"/>
	</g>
</g>
<g>
</g>
<g>
</g>
<g>
</g>
<g>
</g>
<g>
</g>
<g>
</g>
<g>
</g>
<g>
</g>
<g>
</g>
<g>
</g>
<g>
</g>
<g>
</g>
<g>
</g>
<g>
</g>
<g>
</g>
</svg>
