<?xml version="1.0" encoding="iso-8859-1"?>
<!-- Generator: Adobe Illustrator 19.0.0, SVG Export Plug-In . SVG Version: 6.00 Build 0)  -->
<svg version="1.1" id="Layer_1" xmlns="http://www.w3.org/2000/svg" xmlns:xlink="http://www.w3.org/1999/xlink" x="0px" y="0px"
	 viewBox="0 0 512 512" style="enable-background:new 0 0 512 512;" xml:space="preserve">
<g>
	<g>
		<rect x="73.065" y="387.634" width="365.872" height="35.603"/>
	</g>
</g>
<g>
	<g>
		<path d="M474.103,251.208H37.897c-20.897,0-37.897,17-37.897,37.896v200.056h42.736v-35.603v-30.326v-65.93h426.527v65.93v30.326
			v35.603H512V289.105C512,268.208,494.999,251.208,474.103,251.208z M85.553,319.419H42.736v-30.326h42.817V319.419z
			 M151.208,319.419h-42.817v-30.326h42.817V319.419z M469.264,319.419h-99.911v-30.326h99.911V319.419z"/>
	</g>
</g>
<g>
	<g>
		<rect x="73.065" y="453.562" width="365.872" height="35.603"/>
	</g>
</g>
<g>
	<g>
		<path d="M112.453,22.835v65.002v133.046h287.093V87.837V22.835H112.453z M371.318,194.115H140.682v-30.326h230.636V194.115z
			 M371.318,137.022H140.682v-30.326h230.636V137.022z M371.318,79.928H140.682V49.602h230.636V79.928z"/>
	</g>
</g>
<g>
	<g>
		<rect x="38.212" y="118.158" width="43.912" height="102.724"/>
	</g>
</g>
<g>
	<g>
		<rect x="429.869" y="118.158" width="43.912" height="102.724"/>
	</g>
</g>
<g>
</g>
<g>
</g>
<g>
</g>
<g>
</g>
<g>
</g>
<g>
</g>
<g>
</g>
<g>
</g>
<g>
</g>
<g>
</g>
<g>
</g>
<g>
</g>
<g>
</g>
<g>
</g>
<g>
</g>
</svg>
