<?xml version="1.0" encoding="iso-8859-1"?>
<!-- Generator: Adobe Illustrator 19.0.0, SVG Export Plug-In . SVG Version: 6.00 Build 0)  -->
<svg version="1.1" id="Layer_1" xmlns="http://www.w3.org/2000/svg" xmlns:xlink="http://www.w3.org/1999/xlink" x="0px" y="0px"
	 viewBox="0 0 512.001 512.001" style="enable-background:new 0 0 512.001 512.001;" xml:space="preserve">
<g>
	<g>
		<polygon points="168.251,0 168.251,34.44 444.093,34.44 444.093,390.518 478.533,390.518 478.533,0 		"/>
	</g>
</g>
<g>
	<g>
		<polygon points="100.859,64.856 100.859,99.296 379.236,99.296 379.236,451.249 413.676,451.249 413.676,64.856 		"/>
	</g>
</g>
<g>
	<g>
		<path d="M33.468,129.712v382.269l315.334,0.019l0.019-382.289H33.468z M132.245,172.522h117.799v30.416H132.245V172.522z
			 M303.715,469.19H78.574v-30.416h225.141V469.19z M303.715,412.158H78.574v-30.416h225.141V412.158z M303.715,317.003H78.574
			v-30.416h225.141V317.003z M303.715,259.97H78.574v-30.416h225.141V259.97z"/>
	</g>
</g>
<g>
</g>
<g>
</g>
<g>
</g>
<g>
</g>
<g>
</g>
<g>
</g>
<g>
</g>
<g>
</g>
<g>
</g>
<g>
</g>
<g>
</g>
<g>
</g>
<g>
</g>
<g>
</g>
<g>
</g>
</svg>
