<?xml version="1.0" encoding="iso-8859-1"?>
<!-- Generator: Adobe Illustrator 19.0.0, SVG Export Plug-In . SVG Version: 6.00 Build 0)  -->
<svg version="1.1" id="Layer_1" xmlns="http://www.w3.org/2000/svg" xmlns:xlink="http://www.w3.org/1999/xlink" x="0px" y="0px"
	 viewBox="0 0 512 512" style="enable-background:new 0 0 512 512;" xml:space="preserve">
<g>
	<g>
		<path d="M457.001,0H54.999v393.67h118.329V512h283.673L457.001,0L457.001,0z M113.931,60.004h156.452v30.417H113.931V60.004z
			 M113.931,110.702h156.451v30.417H113.931V110.702z M113.931,161.401h156.451v30.417H113.931V161.401z M398.069,353.11H113.931
			v-30.417h284.139V353.11z M398.069,302.412H113.931v-30.417h284.139V302.412z M397.113,149.644v65.113h0l-38.998-14.008
			l-38.999,14.008v-65.113c-14.447-11.503-23.734-29.223-23.734-49.083c0-34.59,28.142-62.732,62.732-62.732
			c34.59,0,62.732,28.142,62.732,62.732C420.848,120.422,411.56,138.142,397.113,149.644z"/>
	</g>
</g>
<g>
	<g>
		<polygon points="63.908,424.087 142.911,503.09 142.911,424.087 		"/>
	</g>
</g>
<g>
	<g>
		<path d="M358.116,68.246c-17.818,0-32.315,14.497-32.315,32.315c0,17.818,14.497,32.315,32.315,32.315
			c17.818,0,32.315-14.497,32.315-32.315C390.431,82.743,375.934,68.246,358.116,68.246z"/>
	</g>
</g>
<g>
</g>
<g>
</g>
<g>
</g>
<g>
</g>
<g>
</g>
<g>
</g>
<g>
</g>
<g>
</g>
<g>
</g>
<g>
</g>
<g>
</g>
<g>
</g>
<g>
</g>
<g>
</g>
<g>
</g>
</svg>
