<?xml version="1.0" encoding="iso-8859-1"?>
<!-- Generator: Adobe Illustrator 19.0.0, SVG Export Plug-In . SVG Version: 6.00 Build 0)  -->
<svg version="1.1" id="Layer_1" xmlns="http://www.w3.org/2000/svg" xmlns:xlink="http://www.w3.org/1999/xlink" x="0px" y="0px"
	 viewBox="0 0 512 512" style="enable-background:new 0 0 512 512;" xml:space="preserve">
<g>
	<g>
		<path d="M31.96,171.296V512h192.294V171.296h-71.939H31.96z M117.419,456.789H56.326v-30.377h61.093V456.789z M117.419,399.69
			H56.326v-30.377h61.093V399.69z M117.419,342.591H56.326v-30.377h61.093V342.591z M117.419,285.493H56.326v-30.377h61.093V285.493
			z M117.419,228.395H56.326v-30.377h61.093V228.395z M199.89,456.789h-61.093v-30.377h61.093V456.789z M199.89,399.69h-61.093
			v-30.377h61.093V399.69z M199.89,342.591h-61.093v-30.377h61.093V342.591z M199.89,285.493h-61.093v-30.377h61.093V285.493z
			 M199.89,228.395h-61.093v-30.377h61.093V228.395z"/>
	</g>
</g>
<g>
	<g>
		<path d="M182.692,0v140.919h71.94V512H480.04V0H182.692z M243.914,114.197h-38.253V83.82h38.253V114.197z M243.914,57.099h-38.253
			V26.722h38.253V57.099z M314.966,456.789h-38.253v-30.377h38.253V456.789z M314.966,399.69h-38.253v-30.377h38.253V399.69z
			 M314.966,342.591h-38.253v-30.377h38.253V342.591z M314.966,285.493h-38.253v-30.377h38.253V285.493z M314.966,228.395h-38.253
			v-30.377h38.253V228.395z M314.966,171.296h-38.253v-30.377h38.253V171.296z M314.966,114.197h-38.253V83.82h38.253V114.197z
			 M314.966,57.099h-38.253V26.722h38.253V57.099z M386.018,456.789h-38.254v-30.377h38.254V456.789z M386.018,399.69h-38.254
			v-30.377h38.254V399.69z M386.018,342.591h-38.254v-30.377h38.254V342.591z M386.018,285.493h-38.254v-30.377h38.254V285.493z
			 M386.018,228.395h-38.254v-30.377h38.254V228.395z M386.018,171.296h-38.254v-30.377h38.254V171.296z M386.018,114.197h-38.254
			V83.82h38.254V114.197z M386.018,57.099h-38.254V26.722h38.254V57.099z M457.07,456.789h-38.254v-30.377h38.254V456.789z
			 M457.07,399.69h-38.254v-30.377h38.254V399.69z M457.07,342.591h-38.254v-30.377h38.254V342.591z M457.07,285.493h-38.254
			v-30.377h38.254V285.493z M457.07,228.395h-38.254v-30.377h38.254V228.395z M457.07,171.296h-38.254v-30.377h38.254V171.296z
			 M457.07,114.197h-38.254V83.82h38.254V114.197z M457.07,57.099h-38.254V26.722h38.254V57.099z"/>
	</g>
</g>
<g>
</g>
<g>
</g>
<g>
</g>
<g>
</g>
<g>
</g>
<g>
</g>
<g>
</g>
<g>
</g>
<g>
</g>
<g>
</g>
<g>
</g>
<g>
</g>
<g>
</g>
<g>
</g>
<g>
</g>
</svg>
