<?xml version="1.0" encoding="iso-8859-1"?>
<!-- Generator: Adobe Illustrator 19.0.0, SVG Export Plug-In . SVG Version: 6.00 Build 0)  -->
<svg version="1.1" id="Layer_1" xmlns="http://www.w3.org/2000/svg" xmlns:xlink="http://www.w3.org/1999/xlink" x="0px" y="0px"
	 viewBox="0 0 512.002 512.002" style="enable-background:new 0 0 512.002 512.002;" xml:space="preserve">
<g>
	<g>
		<rect y="467.908" width="512.002" height="44.094"/>
	</g>
</g>
<g>
	<g>
		<path d="M206.948,76.043v173.995c0,66.266-50.03,121.058-114.301,128.611v58.839h148.144V76.043H206.948z"/>
	</g>
</g>
<g>
	<g>
		<path d="M149.797,76.043v175.841H119.38V76.043H92.647v271.922c47.448-7.338,83.883-48.457,83.883-97.927V76.043H149.797z"/>
	</g>
</g>
<g>
	<g>
		<path d="M305.052,250.04V76.043h-33.843V437.49h148.144v-58.839C355.082,371.098,305.052,316.306,305.052,250.04z"/>
	</g>
</g>
<g>
	<g>
		<path d="M392.619,76.043v175.841h-30.417V76.043h-26.733v173.995c0,49.471,36.436,90.589,83.883,97.927V76.043H392.619z"/>
	</g>
</g>
<g>
	<g>
		<polygon points="21.788,0 21.788,437.49 62.229,437.49 62.229,45.626 449.77,45.626 449.77,437.49 490.212,437.49 490.212,0 		"/>
	</g>
</g>
<g>
</g>
<g>
</g>
<g>
</g>
<g>
</g>
<g>
</g>
<g>
</g>
<g>
</g>
<g>
</g>
<g>
</g>
<g>
</g>
<g>
</g>
<g>
</g>
<g>
</g>
<g>
</g>
<g>
</g>
</svg>
