<?xml version="1.0" encoding="iso-8859-1"?>
<!-- Generator: Adobe Illustrator 19.0.0, SVG Export Plug-In . SVG Version: 6.00 Build 0)  -->
<svg version="1.1" id="Layer_1" xmlns="http://www.w3.org/2000/svg" xmlns:xlink="http://www.w3.org/1999/xlink" x="0px" y="0px"
	 viewBox="0 0 512 512" style="enable-background:new 0 0 512 512;" xml:space="preserve">
<g>
	<g>
		<path d="M357.664,20.532c-37.302,0-71.357,21.411-87.842,54.255H82.638l-25.981,39.392v48.529h63.87v-37.272h0.001h30.449v37.272
			h20.81v-37.272h30.449v37.272h67.587c16.485,32.844,50.54,54.255,87.842,54.255c54.156,0,98.216-44.059,98.216-98.216
			S411.821,20.532,357.664,20.532z M391.152,147.818c-16.055,0-29.07-13.016-29.07-29.07c0-16.055,13.015-29.07,29.07-29.07
			c16.055,0,29.069,13.014,29.069,29.07C420.22,134.802,407.206,147.818,391.152,147.818z"/>
	</g>
</g>
<g>
	<g>
		<rect y="284.922" width="75.087" height="206.546"/>
	</g>
</g>
<g>
	<g>
		<polygon points="500.704,333.473 374.009,368.293 266.07,341.968 273.284,312.386 373.552,336.839 373.781,336.777 
			373.781,297.674 233.603,262.571 105.536,282.438 105.536,448.813 179.547,440.512 322.948,480.767 512,376.57 		"/>
	</g>
</g>
<g>
</g>
<g>
</g>
<g>
</g>
<g>
</g>
<g>
</g>
<g>
</g>
<g>
</g>
<g>
</g>
<g>
</g>
<g>
</g>
<g>
</g>
<g>
</g>
<g>
</g>
<g>
</g>
<g>
</g>
</svg>
