<?xml version="1.0" encoding="iso-8859-1"?>
<!-- Generator: Adobe Illustrator 19.0.0, SVG Export Plug-In . SVG Version: 6.00 Build 0)  -->
<svg version="1.1" id="Layer_1" xmlns="http://www.w3.org/2000/svg" xmlns:xlink="http://www.w3.org/1999/xlink" x="0px" y="0px"
	 viewBox="0 0 512 512" style="enable-background:new 0 0 512 512;" xml:space="preserve">
<g>
	<g>
		<path d="M369.951,306.308l131.391-131.391l-21.507-21.507l-131.39,131.391l-19.447-19.447l-34.791,34.792l-8.727-8.727
			l-9.753-9.753l-21.507,21.507l9.753,9.753l-121.22,121.219L220.608,512l121.22-121.221l9.753,9.753l21.507-21.507l-16.251-16.251
			l-2.228-2.229l34.79-34.79L369.951,306.308z M220.689,455.571l-21.507-21.507l86.217-86.217l21.507,21.507L220.689,455.571z"/>
	</g>
</g>
<g>
	<g>
		<polygon points="367.551,67.866 342.648,92.768 315.806,83.582 306.621,56.741 331.523,31.838 299.685,0 251.49,48.195 
			263.961,85.008 95.666,253.303 58.854,240.831 10.659,289.026 42.497,320.865 67.4,295.963 94.241,305.149 103.426,331.99 
			78.524,356.892 110.363,388.731 158.558,340.536 146.087,303.723 314.381,135.429 351.194,147.899 399.389,99.704 		"/>
	</g>
</g>
<g>
</g>
<g>
</g>
<g>
</g>
<g>
</g>
<g>
</g>
<g>
</g>
<g>
</g>
<g>
</g>
<g>
</g>
<g>
</g>
<g>
</g>
<g>
</g>
<g>
</g>
<g>
</g>
<g>
</g>
</svg>
