<?xml version="1.0" encoding="iso-8859-1"?>
<!-- Generator: Adobe Illustrator 19.0.0, SVG Export Plug-In . SVG Version: 6.00 Build 0)  -->
<svg version="1.1" id="Layer_1" xmlns="http://www.w3.org/2000/svg" xmlns:xlink="http://www.w3.org/1999/xlink" x="0px" y="0px"
	 viewBox="0 0 511.999 511.999" style="enable-background:new 0 0 511.999 511.999;" xml:space="preserve">
<g>
	<g>
		<path d="M440.529,0H71.469v485.143h25.826v26.856h30.417v-26.856h256.575v26.856h30.417v-26.856h25.826L440.529,0L440.529,0z
			 M255.999,58.891c30.362,0,54.976,24.614,54.976,54.976s-24.613,54.976-54.976,54.976s-54.976-24.613-54.976-54.976
			C201.023,83.504,225.637,58.891,255.999,58.891z M255.999,426.253c-59.499,0-107.733-48.233-107.733-107.733
			c0-59.5,48.234-107.733,107.733-107.733S363.732,259.02,363.732,318.52C363.732,378.02,315.498,426.253,255.999,426.253z"/>
	</g>
</g>
<g>
	<g>
		<circle cx="256" cy="318.518" r="45.41"/>
	</g>
</g>
<g>
</g>
<g>
</g>
<g>
</g>
<g>
</g>
<g>
</g>
<g>
</g>
<g>
</g>
<g>
</g>
<g>
</g>
<g>
</g>
<g>
</g>
<g>
</g>
<g>
</g>
<g>
</g>
<g>
</g>
</svg>
