<?xml version="1.0" encoding="iso-8859-1"?>
<!-- Generator: Adobe Illustrator 19.0.0, SVG Export Plug-In . SVG Version: 6.00 Build 0)  -->
<svg version="1.1" id="Layer_1" xmlns="http://www.w3.org/2000/svg" xmlns:xlink="http://www.w3.org/1999/xlink" x="0px" y="0px"
	 viewBox="0 0 512 512" style="enable-background:new 0 0 512 512;" xml:space="preserve">
<g>
	<g>
		<path d="M246.114,179.956v-64.124C246.114,51.963,194.151,0,130.281,0S14.448,51.963,14.448,115.833v79.332h30.417v-79.332
			c0-47.098,38.318-85.416,85.416-85.416s85.416,38.318,85.416,85.416v64.124h-50.188v216.527
			c0,63.696,51.821,115.516,115.517,115.516h101.011c63.696,0,115.516-51.82,115.516-115.516V179.956H246.114z M352.842,346.456
			v50.476h-42.624v-50.476c-11.069-7.052-18.418-19.425-18.418-33.523c0-21.942,17.788-39.73,39.73-39.73
			c21.942,0,39.73,17.787,39.73,39.73C371.26,327.031,363.912,339.405,352.842,346.456z"/>
	</g>
</g>
<g>
</g>
<g>
</g>
<g>
</g>
<g>
</g>
<g>
</g>
<g>
</g>
<g>
</g>
<g>
</g>
<g>
</g>
<g>
</g>
<g>
</g>
<g>
</g>
<g>
</g>
<g>
</g>
<g>
</g>
</svg>
