<?xml version="1.0" encoding="iso-8859-1"?>
<!-- Generator: Adobe Illustrator 19.0.0, SVG Export Plug-In . SVG Version: 6.00 Build 0)  -->
<svg version="1.1" id="Layer_1" xmlns="http://www.w3.org/2000/svg" xmlns:xlink="http://www.w3.org/1999/xlink" x="0px" y="0px"
	 viewBox="0 0 512 512" style="enable-background:new 0 0 512 512;" xml:space="preserve">
<g>
	<g>
		<rect x="320.339" y="330.455" width="191.657" height="24.979"/>
	</g>
</g>
<g>
	<g>
		<rect x="320.339" y="385.896" width="191.657" height="24.979"/>
	</g>
</g>
<g>
	<g>
		<rect x="320.339" y="441.337" width="191.657" height="24.979"/>
	</g>
</g>
<g>
	<g>
		<rect y="330.455" width="191.657" height="24.979"/>
	</g>
</g>
<g>
	<g>
		<rect y="385.896" width="191.657" height="24.979"/>
	</g>
</g>
<g>
	<g>
		<rect y="441.337" width="191.657" height="24.979"/>
	</g>
</g>
<g>
	<g>
		<path d="M191.653,73.611V45.685H86.225C79.587,90.083,44.398,125.272,0,131.91v81.864c44.398,6.637,79.587,41.826,86.225,86.225
			h105.428v-27.926c-20.913-3.328-40.181-13.157-55.367-28.464c-18.795-18.946-29.145-44.079-29.145-70.766
			c0-26.689,10.35-51.822,29.145-70.767C151.471,86.767,170.74,76.939,191.653,73.611z"/>
	</g>
</g>
<g>
	<g>
		<path d="M425.775,45.684H320.338v27.926c20.914,3.328,40.184,13.156,55.37,28.463c18.796,18.946,29.147,44.079,29.147,70.768
			c0,26.69-10.351,51.823-29.147,70.769c-15.186,15.308-34.456,25.136-55.37,28.463v27.925h105.437
			c6.637-44.398,41.826-79.587,86.225-86.225v-81.864C467.602,125.272,432.413,90.082,425.775,45.684z"/>
	</g>
</g>
<g>
	<g>
		<path d="M137.603,172.842c0,32.995,23.144,60.894,54.05,68.18v-136.36C160.747,111.948,137.603,139.846,137.603,172.842z"/>
	</g>
</g>
<g>
	<g>
		<path d="M320.338,104.66v136.362c30.911-7.282,54.055-35.182,54.055-68.181S351.249,111.942,320.338,104.66z"/>
	</g>
</g>
<g>
	<g>
		<path d="M0,45.685v55.276c27.569-5.949,49.327-27.707,55.276-55.276H0z"/>
	</g>
</g>
<g>
	<g>
		<path d="M456.723,45.685c5.95,27.569,27.707,49.327,55.276,55.276V45.685H456.723z"/>
	</g>
</g>
<g>
	<g>
		<path d="M456.723,299.998h55.276v-55.276C484.43,250.671,462.673,272.428,456.723,299.998z"/>
	</g>
</g>
<g>
	<g>
		<path d="M0,244.722v55.276h55.276C49.327,272.428,27.569,250.671,0,244.722z"/>
	</g>
</g>
<g>
	<g>
		<rect x="222.119" y="330.455" width="67.761" height="135.861"/>
	</g>
</g>
<g>
	<g>
		<polygon points="222.115,45.685 222.115,72.214 222.115,273.469 222.115,299.998 222.124,299.998 289.875,299.998 
			289.876,299.998 289.876,273.468 289.876,72.214 289.876,45.685 		"/>
	</g>
</g>
<g>
</g>
<g>
</g>
<g>
</g>
<g>
</g>
<g>
</g>
<g>
</g>
<g>
</g>
<g>
</g>
<g>
</g>
<g>
</g>
<g>
</g>
<g>
</g>
<g>
</g>
<g>
</g>
<g>
</g>
</svg>
