<?xml version="1.0" encoding="iso-8859-1"?>
<!-- Generator: Adobe Illustrator 19.0.0, SVG Export Plug-In . SVG Version: 6.00 Build 0)  -->
<svg version="1.1" id="Layer_1" xmlns="http://www.w3.org/2000/svg" xmlns:xlink="http://www.w3.org/1999/xlink" x="0px" y="0px"
	 viewBox="0 0 512 512" style="enable-background:new 0 0 512 512;" xml:space="preserve">
<g>
	<g>
		<path d="M256.001,0L0.009,95.939V512h77.323h76.831h203.674h76.831h77.323V95.939L256.001,0z M130.279,331.754
			c-10.395,0-18.821-8.426-18.821-18.821s8.426-18.822,18.821-18.822c10.395,0,18.822,8.427,18.822,18.822
			S140.675,331.754,130.279,331.754z M357.837,481.584H154.163v-48.869h203.674V481.584z M179.956,369.855v-78.36h30.416v78.36
			H179.956z M240.792,369.855v-78.36h30.416v78.36H240.792z M301.629,369.855v-78.36h30.416v78.36H301.629z M381.722,331.754
			c-10.395,0-18.821-8.427-18.821-18.821s8.426-18.822,18.821-18.822s18.822,8.427,18.822,18.822S392.117,331.754,381.722,331.754z
			 M481.575,481.584L481.575,481.584h-46.907v-48.869h31.008v-78.068h-14.478v-62.59c0-23.528-15.941-43.391-37.585-49.389
			l-17.969-100.881l-99.016,99.016h-43.015l113.846-113.846h-78.658L174.957,240.802h-43.015l113.846-113.846h-126.79
			L98.387,242.667c-21.644,5.999-37.584,25.862-37.584,49.389v62.59H46.324v78.068h31.008v48.869H30.425V117.022l225.575-84.541
			l225.574,84.541V481.584z"/>
	</g>
</g>
<g>
</g>
<g>
</g>
<g>
</g>
<g>
</g>
<g>
</g>
<g>
</g>
<g>
</g>
<g>
</g>
<g>
</g>
<g>
</g>
<g>
</g>
<g>
</g>
<g>
</g>
<g>
</g>
<g>
</g>
</svg>
