<?xml version="1.0" encoding="iso-8859-1"?>
<!-- Generator: Adobe Illustrator 19.0.0, SVG Export Plug-In . SVG Version: 6.00 Build 0)  -->
<svg version="1.1" id="Layer_1" xmlns="http://www.w3.org/2000/svg" xmlns:xlink="http://www.w3.org/1999/xlink" x="0px" y="0px"
	 viewBox="0 0 512 512" style="enable-background:new 0 0 512 512;" xml:space="preserve">
<g>
	<g>
		<path d="M196.27,0c-22.864,0-41.465,18.601-41.465,41.465v271.19h82.929V41.465C237.735,18.601,219.134,0,196.27,0z"/>
	</g>
</g>
<g>
	<g>
		<path d="M315.73,0c-22.863,0-41.465,18.601-41.465,41.465v271.19h82.929V41.465C357.195,18.601,338.593,0,315.73,0z"/>
	</g>
</g>
<g>
	<g>
		<path d="M162.137,453.441v11.684c0,25.847,21.029,46.875,46.875,46.875h93.976c25.847,0,46.875-21.029,46.875-46.875v-11.684
			H162.137z"/>
	</g>
</g>
<g>
	<g>
		<polygon points="137.959,343.103 137.959,386.772 153.98,422.992 358.02,422.992 374.041,386.772 374.041,343.103 		"/>
	</g>
</g>
<g>
</g>
<g>
</g>
<g>
</g>
<g>
</g>
<g>
</g>
<g>
</g>
<g>
</g>
<g>
</g>
<g>
</g>
<g>
</g>
<g>
</g>
<g>
</g>
<g>
</g>
<g>
</g>
<g>
</g>
</svg>
