<?xml version="1.0" encoding="iso-8859-1"?>
<!-- Generator: Adobe Illustrator 19.0.0, SVG Export Plug-In . SVG Version: 6.00 Build 0)  -->
<svg version="1.1" id="Layer_1" xmlns="http://www.w3.org/2000/svg" xmlns:xlink="http://www.w3.org/1999/xlink" x="0px" y="0px"
	 viewBox="0 0 512 512" style="enable-background:new 0 0 512 512;" xml:space="preserve">
<g>
	<g>
		<path d="M43.001,85.834l-10.609,1.561L0,250.243l9.204,5.502c0.573,0.343,12.594,7.459,36.928,17.04L83.64,84.223
			C57.493,83.762,43.662,85.737,43.001,85.834z"/>
	</g>
</g>
<g>
	<g>
		<polygon points="457.519,189.353 444.865,189.353 444.865,267.063 505.295,267.063 		"/>
	</g>
</g>
<g>
	<g>
		<path d="M414.451,297.477L414.451,297.477V189.353h-52.675l6.972-35.053l-9.204-5.502c-0.573-0.343-12.595-7.459-36.928-17.04
			l-33.489,168.359h-31.01l35.557-178.758c-26.902-8.846-56.632-16.532-88.65-22.901c-32.02-6.369-62.427-10.645-90.665-12.768
			L75.074,283.183c18.981,6.241,39.369,11.904,60.977,16.935H71.705h-24.56v5.279v80.144h55.75
			c0.053,23.337,19.052,42.306,42.401,42.306c23.349,0,42.349-18.969,42.401-42.306h14.262
			c0.053,23.337,19.052,42.306,42.401,42.306c23.349,0,42.349-18.969,42.401-42.306h99.907
			c0.053,23.337,19.051,42.306,42.401,42.306s42.349-18.969,42.401-42.306H512v-88.064H414.451z M351.386,300.118h-11.644
			l11.644-58.535V300.118z"/>
	</g>
</g>
<g>
</g>
<g>
</g>
<g>
</g>
<g>
</g>
<g>
</g>
<g>
</g>
<g>
</g>
<g>
</g>
<g>
</g>
<g>
</g>
<g>
</g>
<g>
</g>
<g>
</g>
<g>
</g>
<g>
</g>
</svg>
