<?xml version="1.0" encoding="iso-8859-1"?>
<!-- Generator: Adobe Illustrator 19.0.0, SVG Export Plug-In . SVG Version: 6.00 Build 0)  -->
<svg version="1.1" id="Layer_1" xmlns="http://www.w3.org/2000/svg" xmlns:xlink="http://www.w3.org/1999/xlink" x="0px" y="0px"
	 viewBox="0 0 511.985 511.985" style="enable-background:new 0 0 511.985 511.985;" xml:space="preserve">
<g>
	<g>
		<path d="M434.322,254.006l-8.758,15.169L355.651,390.27l-4.214,7.299l-7.374,4.08l-56.725,31.381l-44.098,24.396l-0.922-50.388
			l-1.186-64.816l-0.154-8.426l4.214-7.299l41.852-72.489H0v232.613h510.684V254.006H434.322z M45.511,304.574h158.254v30.339
			H45.511V304.574z M45.511,355.142h158.254v30.339H45.511V355.142z M45.511,436.049V405.71h158.254v30.339H45.511z"/>
	</g>
</g>
<g>
	<g>
		<rect x="445.108" y="30.545" transform="matrix(0.5 -0.866 0.866 0.5 179.7841 439.3553)" width="50.564" height="66.866"/>
	</g>
</g>
<g>
	<g>
		<polygon points="413.636,95.418 322.074,254.006 271.465,341.665 272.651,406.481 329.376,375.1 399.289,254.006 471.547,128.853 
					"/>
	</g>
</g>
<g>
</g>
<g>
</g>
<g>
</g>
<g>
</g>
<g>
</g>
<g>
</g>
<g>
</g>
<g>
</g>
<g>
</g>
<g>
</g>
<g>
</g>
<g>
</g>
<g>
</g>
<g>
</g>
<g>
</g>
</svg>
