<?xml version="1.0" encoding="iso-8859-1"?>
<!-- Generator: Adobe Illustrator 19.0.0, SVG Export Plug-In . SVG Version: 6.00 Build 0)  -->
<svg version="1.1" id="Layer_1" xmlns="http://www.w3.org/2000/svg" xmlns:xlink="http://www.w3.org/1999/xlink" x="0px" y="0px"
	 viewBox="0 0 512.001 512.001" style="enable-background:new 0 0 512.001 512.001;" xml:space="preserve">
<g>
	<g>
		<path d="M489.692,198.569h-2.481c-14.662,0-27.94-6.024-37.501-15.723c-9.562,9.697-22.839,15.723-37.501,15.723h-2.48
			c-14.662,0-27.94-6.024-37.501-15.723c-9.562,9.697-22.839,15.723-37.501,15.723h-2.481c-14.662,0-27.94-6.024-37.501-15.723
			c-9.562,9.697-22.839,15.723-37.501,15.723h-2.48c-14.662,0-27.94-6.024-37.501-15.723c-9.562,9.697-22.839,15.723-37.501,15.723
			h-2.48c-14.662,0-27.94-6.024-37.501-15.723c-9.562,9.697-22.839,15.723-37.501,15.723h-2.481
			c-14.662,0-27.94-6.024-37.501-15.723c-9.562,9.697-22.839,15.723-37.501,15.723h-2.48c-7.971,0-15.528-1.789-22.307-4.97v283.458
			h73.158V236.618h129.512v240.439H512V193.599C505.221,196.781,497.662,198.569,489.692,198.569z M336.815,386.659h-80.389v-59.827
			h80.389V386.659z M336.815,296.446h-80.389v-59.828h80.389V296.446z M447.59,386.659H367.2v-59.827h80.39V386.659z
			 M447.59,296.446H367.2v-59.828h80.39V296.446z"/>
	</g>
</g>
<g>
	<g>
		<rect x="464.903" y="34.944" width="47.098" height="76.825"/>
	</g>
</g>
<g>
	<g>
		<rect x="387.419" y="34.944" width="47.098" height="76.825"/>
	</g>
</g>
<g>
	<g>
		<rect x="309.935" y="34.944" width="47.098" height="76.825"/>
	</g>
</g>
<g>
	<g>
		<rect x="232.452" y="34.944" width="47.098" height="76.825"/>
	</g>
</g>
<g>
	<g>
		<rect x="154.968" y="34.944" width="47.098" height="76.825"/>
	</g>
</g>
<g>
	<g>
		<rect x="77.484" y="34.944" width="47.098" height="76.825"/>
	</g>
</g>
<g>
	<g>
		<polygon points="0,34.944 0,111.769 47.097,111.769 47.098,111.769 47.098,34.944 		"/>
	</g>
</g>
<g>
	<g>
		<path d="M464.901,142.154v3.721h0.001c0,12.301,10.008,22.308,22.308,22.308h2.481c12.301,0,22.308-10.007,22.308-22.308v-3.721
			H464.901z"/>
	</g>
</g>
<g>
	<g>
		<path d="M387.417,142.154v3.721h0.001c0,12.301,10.008,22.308,22.308,22.308h2.481c12.301,0,22.308-10.007,22.308-22.308v-3.721
			H387.417z"/>
	</g>
</g>
<g>
	<g>
		<path d="M309.933,142.154v3.721h0.001c0,12.301,10.008,22.308,22.308,22.308h2.481c12.301,0,22.308-10.007,22.308-22.308v-3.721
			H309.933z"/>
	</g>
</g>
<g>
	<g>
		<path d="M232.449,142.154v3.721h0.001c0,12.301,10.008,22.308,22.308,22.308h2.481c12.301,0,22.308-10.007,22.308-22.308v-3.721
			H232.449z"/>
	</g>
</g>
<g>
	<g>
		<path d="M154.966,142.154v3.721h0.001c0,12.301,10.008,22.308,22.308,22.308h2.481c12.301,0,22.308-10.007,22.308-22.308v-3.721
			H154.966z"/>
	</g>
</g>
<g>
	<g>
		<path d="M77.484,142.154L77.484,142.154l-0.001,3.721c0,12.301,10.008,22.308,22.308,22.308h2.481
			c12.301,0,22.308-10.007,22.308-22.308v-3.721H77.484z"/>
	</g>
</g>
<g>
	<g>
		<path d="M0,142.154v3.721c0,12.301,10.007,22.308,22.307,22.308h2.481c12.301,0,22.308-10.007,22.308-22.308v-3.721H0z"/>
	</g>
</g>
<g>
</g>
<g>
</g>
<g>
</g>
<g>
</g>
<g>
</g>
<g>
</g>
<g>
</g>
<g>
</g>
<g>
</g>
<g>
</g>
<g>
</g>
<g>
</g>
<g>
</g>
<g>
</g>
<g>
</g>
</svg>
