<?xml version="1.0" encoding="iso-8859-1"?>
<!-- Generator: Adobe Illustrator 19.0.0, SVG Export Plug-In . SVG Version: 6.00 Build 0)  -->
<svg version="1.1" id="Layer_1" xmlns="http://www.w3.org/2000/svg" xmlns:xlink="http://www.w3.org/1999/xlink" x="0px" y="0px"
	 viewBox="0 0 512 512" style="enable-background:new 0 0 512 512;" xml:space="preserve">
<g>
	<g>
		<rect x="238.41" y="265.278" width="35.182" height="18.248"/>
	</g>
</g>
<g>
	<g>
		<polygon points="481.583,265.281 304.008,265.281 304.008,313.947 207.992,313.947 207.992,265.281 30.417,265.281 0,265.281 
			0,465.712 512,465.712 512,265.281 		"/>
	</g>
</g>
<g>
	<g>
		<rect x="238.41" y="216.621" width="35.182" height="18.248"/>
	</g>
</g>
<g>
	<g>
		<path d="M335.768,121.318v-24.5c0-27.862-22.668-50.53-50.53-50.53h-58.476c-27.862,0-50.53,22.668-50.53,50.53v24.501H0v113.546
			h30.417v-0.001h177.574v-48.665h96.017v48.665h177.574H512V121.318H335.768z M305.35,121.319h-98.703V96.818h0.001
			c0-11.09,9.023-20.113,20.113-20.113h58.476c11.09,0,20.113,9.023,20.113,20.113V121.319z"/>
	</g>
</g>
<g>
</g>
<g>
</g>
<g>
</g>
<g>
</g>
<g>
</g>
<g>
</g>
<g>
</g>
<g>
</g>
<g>
</g>
<g>
</g>
<g>
</g>
<g>
</g>
<g>
</g>
<g>
</g>
<g>
</g>
</svg>
