<?xml version="1.0" encoding="iso-8859-1"?>
<!-- Generator: Adobe Illustrator 19.0.0, SVG Export Plug-In . SVG Version: 6.00 Build 0)  -->
<svg version="1.1" id="Layer_1" xmlns="http://www.w3.org/2000/svg" xmlns:xlink="http://www.w3.org/1999/xlink" x="0px" y="0px"
	 viewBox="0 0 512.001 512.001" style="enable-background:new 0 0 512.001 512.001;" xml:space="preserve">
<g>
	<g>
		<path d="M158.949,303.791c-0.864,6.035-1.299,12.098-1.299,18.185c0,49.091,36.153,89.894,83.231,97.188v-33.441h0.001
			L158.949,303.791z"/>
	</g>
</g>
<g>
	<g>
		<path d="M187.583,236.113c-8.059,11.259-14.499,22.683-19.31,34.241l72.61,72.609v-53.55L187.583,236.113z"/>
	</g>
</g>
<g>
	<g>
		<path d="M324.419,236.112l-53.3,53.299v53.55l72.609-72.609C338.915,258.795,332.476,247.371,324.419,236.112z"/>
	</g>
</g>
<g>
	<g>
		<path d="M302.423,209.863c-10.992-11.398-22.064-20.77-31.305-27.872v64.659l33.972-33.972
			C304.211,211.739,303.326,210.799,302.423,209.863z"/>
	</g>
</g>
<g>
	<g>
		<path d="M209.577,209.863c-0.903,0.936-1.788,1.876-2.668,2.815l33.972,33.972v-64.659
			C231.642,189.093,220.569,198.466,209.577,209.863z"/>
	</g>
</g>
<g>
	<g>
		<path d="M353.05,303.791l-81.932,81.932v33.442c47.078-7.294,83.231-48.098,83.231-97.188
			C354.349,315.89,353.915,309.826,353.05,303.791z"/>
	</g>
</g>
<g>
	<g>
		<path d="M256,1.468L0,254.587h39.984v255.946h432.034V254.587h39.984L256,1.468z M256,450.564
			c-70.903,0-128.587-57.683-128.587-128.588c0-46.349,21.094-92.59,61.001-133.727c29.505-30.415,58.82-47.41,60.054-48.118
			l7.531-4.326l7.531,4.326c1.234,0.709,30.549,17.704,60.054,48.118c39.908,41.136,61.002,87.377,61.002,133.727
			C384.587,392.881,326.903,450.564,256,450.564z"/>
	</g>
</g>
<g>
</g>
<g>
</g>
<g>
</g>
<g>
</g>
<g>
</g>
<g>
</g>
<g>
</g>
<g>
</g>
<g>
</g>
<g>
</g>
<g>
</g>
<g>
</g>
<g>
</g>
<g>
</g>
<g>
</g>
</svg>
