<?xml version="1.0" encoding="iso-8859-1"?>
<!-- Generator: Adobe Illustrator 19.0.0, SVG Export Plug-In . SVG Version: 6.00 Build 0)  -->
<svg version="1.1" id="Layer_1" xmlns="http://www.w3.org/2000/svg" xmlns:xlink="http://www.w3.org/1999/xlink" x="0px" y="0px"
	 viewBox="0 0 512.001 512.001" style="enable-background:new 0 0 512.001 512.001;" xml:space="preserve">
<g>
	<g>
		<path d="M354.571,338.696v84.582c16.108-3.894,28.109-18.431,28.109-35.718v-13.145
			C382.681,357.128,370.68,342.59,354.571,338.696z"/>
	</g>
</g>
<g>
	<g>
		<polygon points="32.947,455.541 32.947,311.175 0,311.175 0,488.487 94.95,488.487 94.95,455.541 		"/>
	</g>
</g>
<g>
	<g>
		<rect x="289.537" y="326.153" width="34.629" height="109.674"/>
	</g>
</g>
<g>
	<g>
		<path d="M431.868,273.489h-15.207v-0.001H324.16v-22.841H295.97v-30.411h28.189v-43.218h30.411v66.059h62.09V23.513h-62.09v77.478
			H324.16V23.513H187.844v45.412h-30.411V23.513h-43.562v34.851c0,22.386-18.212,40.598-40.598,40.598h-9.914v79.982h94.075v-33.992
			h30.411v75.284h28.189v30.411h-28.189v117.923h-30.411V209.355H63.358V425.13h62.003v63.358h386.64V273.489H431.868z
			 M413.093,387.56c0,34.102-25.558,62.328-58.521,66.581v12.095h-95.446V295.74h95.446v12.095
			c32.964,4.253,58.521,32.478,58.521,66.581V387.56z M468.776,451.03h-30.411V310.946h30.411V451.03z"/>
	</g>
</g>
<g>
	<g>
		<path d="M63.358,23.513v45.036h9.914c5.617,0,10.187-4.569,10.187-10.187V23.513H63.358z"/>
	</g>
</g>
<g>
	<g>
		<polygon points="0,23.513 0,178.944 32.947,178.944 32.947,98.961 32.947,23.513 		"/>
	</g>
</g>
<g>
	<g>
		<rect y="209.352" width="32.947" height="71.406"/>
	</g>
</g>
<g>
</g>
<g>
</g>
<g>
</g>
<g>
</g>
<g>
</g>
<g>
</g>
<g>
</g>
<g>
</g>
<g>
</g>
<g>
</g>
<g>
</g>
<g>
</g>
<g>
</g>
<g>
</g>
<g>
</g>
</svg>
