<?xml version="1.0" encoding="iso-8859-1"?>
<!-- Generator: Adobe Illustrator 19.0.0, SVG Export Plug-In . SVG Version: 6.00 Build 0)  -->
<svg version="1.1" id="Layer_1" xmlns="http://www.w3.org/2000/svg" xmlns:xlink="http://www.w3.org/1999/xlink" x="0px" y="0px"
	 viewBox="0 0 512 512" style="enable-background:new 0 0 512 512;" xml:space="preserve">
<g>
	<g>
		<rect x="410.871" y="334.152" width="87.789" height="158.354"/>
	</g>
</g>
<g>
	<g>
		<path d="M13.345,121.609V492.5h367.079V334.151v-30.447v-60.343h0.001V121.609H13.345z M42.321,150.536h178.993v142.06H42.321
			V150.536z M42.321,463.581v-142.06h101.158v142.06H42.321z M172.455,463.581v-142.06h178.993v142.06H172.455z M351.449,292.595
			H250.291V150.536h101.159V292.595z"/>
	</g>
</g>
<g>
	<g>
		<polygon points="372.918,19.494 20.852,19.494 0,91.162 393.771,91.162 		"/>
	</g>
</g>
<g>
	<g>
		<rect x="147.038" y="180.983" width="43.823" height="81.166"/>
	</g>
</g>
<g>
	<g>
		<rect x="72.768" y="180.983" width="43.823" height="81.166"/>
	</g>
</g>
<g>
	<g>
		<rect x="280.741" y="180.983" width="40.265" height="81.166"/>
	</g>
</g>
<g>
	<g>
		<rect x="277.178" y="351.973" width="43.823" height="81.166"/>
	</g>
</g>
<g>
	<g>
		<rect x="202.898" y="351.973" width="43.823" height="81.166"/>
	</g>
</g>
<g>
	<g>
		<rect x="72.768" y="351.973" width="40.264" height="81.166"/>
	</g>
</g>
<g>
	<g>
		<polygon points="503.302,273.808 410.872,273.808 410.872,303.704 512,303.704 		"/>
	</g>
</g>
<g>
</g>
<g>
</g>
<g>
</g>
<g>
</g>
<g>
</g>
<g>
</g>
<g>
</g>
<g>
</g>
<g>
</g>
<g>
</g>
<g>
</g>
<g>
</g>
<g>
</g>
<g>
</g>
<g>
</g>
</svg>
