<?xml version="1.0" encoding="iso-8859-1"?>
<!-- Generator: Adobe Illustrator 19.0.0, SVG Export Plug-In . SVG Version: 6.00 Build 0)  -->
<svg version="1.1" id="Layer_1" xmlns="http://www.w3.org/2000/svg" xmlns:xlink="http://www.w3.org/1999/xlink" x="0px" y="0px"
	 viewBox="0 0 512 512" style="enable-background:new 0 0 512 512;" xml:space="preserve">
<g>
	<g>
		<path d="M0,63.615v330.781h66.846c6.952-30.858,34.562-53.983,67.489-53.983c32.928,0,60.537,23.126,67.49,53.983h101.829V63.615
			H0z M214.31,210.371h-6.367v76.301H95.709v-76.301h-6.367H71.327l80.499-79.592l80.498,79.592H214.31z"/>
	</g>
</g>
<g>
	<g>
		<path d="M443.223,261.238l-21.314-60.743H334.07v193.901h17.928c6.952-30.858,34.562-53.983,67.489-53.983
			c32.928,0,60.537,23.126,67.49,53.983H512V282.568L443.223,261.238z"/>
	</g>
</g>
<g>
	<g>
		<path d="M134.334,370.83c-21.381,0-38.777,17.396-38.777,38.778c0,21.382,17.396,38.777,38.777,38.777
			c21.382,0,38.778-17.395,38.778-38.777C173.112,388.225,155.717,370.83,134.334,370.83z"/>
	</g>
</g>
<g>
	<g>
		<path d="M419.486,370.83c-21.381,0-38.777,17.396-38.777,38.778c0,21.382,17.396,38.777,38.777,38.777
			c21.382,0,38.778-17.395,38.778-38.777C458.264,388.225,440.868,370.83,419.486,370.83z"/>
	</g>
</g>
<g>
</g>
<g>
</g>
<g>
</g>
<g>
</g>
<g>
</g>
<g>
</g>
<g>
</g>
<g>
</g>
<g>
</g>
<g>
</g>
<g>
</g>
<g>
</g>
<g>
</g>
<g>
</g>
<g>
</g>
</svg>
