<?xml version="1.0" encoding="iso-8859-1"?>
<!-- Generator: Adobe Illustrator 19.0.0, SVG Export Plug-In . SVG Version: 6.00 Build 0)  -->
<svg version="1.1" id="Layer_1" xmlns="http://www.w3.org/2000/svg" xmlns:xlink="http://www.w3.org/1999/xlink" x="0px" y="0px"
	 viewBox="0 0 512 512" style="enable-background:new 0 0 512 512;" xml:space="preserve">
<g>
	<g>
		<polygon points="182.033,381.585 156.839,356.392 156.839,432.06 202.838,432.06 202.838,360.782 		"/>
	</g>
</g>
<g>
	<g>
		<polygon points="233.232,330.387 233.232,432.06 279.23,432.06 279.23,284.388 		"/>
	</g>
</g>
<g>
	<g>
		<polygon points="311.734,251.883 309.624,253.993 309.624,432.06 355.624,432.06 355.624,295.773 		"/>
	</g>
</g>
<g>
	<g>
		<polygon points="80.445,373.106 80.445,432.06 126.445,432.06 126.445,327.106 		"/>
	</g>
</g>
<g>
	<g>
		<polygon points="21.492,432.06 50.051,432.06 50.051,403.501 		"/>
	</g>
</g>
<g>
	<g>
		<polygon points="0,79.94 0,410.568 126.999,283.569 182.033,338.602 311.734,208.9 366.768,263.934 437.422,193.28 399.94,193.28 
			399.94,162.886 489.308,162.886 489.308,252.253 458.913,252.253 458.913,214.772 386.018,287.668 386.018,432.06 512,432.06 
			512,79.94 		"/>
	</g>
</g>
<g>
</g>
<g>
</g>
<g>
</g>
<g>
</g>
<g>
</g>
<g>
</g>
<g>
</g>
<g>
</g>
<g>
</g>
<g>
</g>
<g>
</g>
<g>
</g>
<g>
</g>
<g>
</g>
<g>
</g>
</svg>
