<?xml version="1.0" encoding="iso-8859-1"?>
<!-- Generator: Adobe Illustrator 19.0.0, SVG Export Plug-In . SVG Version: 6.00 Build 0)  -->
<svg version="1.1" id="Layer_1" xmlns="http://www.w3.org/2000/svg" xmlns:xlink="http://www.w3.org/1999/xlink" x="0px" y="0px"
	 viewBox="0 0 512 512" style="enable-background:new 0 0 512 512;" xml:space="preserve">
<g>
	<g>
		<path d="M139.004,263.302c-5.64,1.32-10.461,3.096-13.412,4.8c-4.144,2.392-7.107,6.255-8.344,10.876
			c-1.239,4.621-0.603,9.449,1.79,13.591c2.393,4.143,6.255,7.107,10.876,8.345c4.622,1.238,9.448,0.602,13.591-1.79
			c2.945-1.701,6.887-4.98,10.844-9.195C146.317,283.306,140.767,273.915,139.004,263.302z"/>
	</g>
</g>
<g>
	<g>
		<path d="M182.377,139.063c-64.48,0-116.938,52.458-116.938,116.937s52.458,116.937,116.938,116.937
			c64.479,0.001,116.937-52.458,116.937-116.937S246.856,139.063,182.377,139.063z M242.713,330.297
			c-4.162,1.115-8.389,1.668-12.587,1.668c-8.375,0-16.639-2.196-24.086-6.496c-7.786-4.496-16.429-12.466-23.664-21.517
			c-7.235,9.05-15.879,17.021-23.665,21.516c-7.447,4.299-15.711,6.496-24.086,6.496c-4.199,0-8.424-0.552-12.587-1.668
			c-12.469-3.341-22.89-11.339-29.344-22.518c-6.455-11.179-8.17-24.203-4.829-36.672c3.342-12.469,11.339-22.892,22.518-29.346
			c7.786-4.496,19.011-7.996,30.467-9.736c-4.222-10.791-6.802-22.261-6.802-31.253c0-26.648,21.68-48.329,48.329-48.329
			c26.648,0,48.329,21.68,48.329,48.329c0,8.99-2.58,20.462-6.803,31.253c11.456,1.74,22.681,5.24,30.467,9.736
			c11.179,6.455,19.177,16.877,22.518,29.346c3.342,12.469,1.626,25.494-4.828,36.673
			C265.604,318.959,255.182,326.956,242.713,330.297z"/>
	</g>
</g>
<g>
	<g>
		<path d="M182.375,182.86c-9.876,0-17.912,8.035-17.912,17.912c0,3.408,0.872,8.47,2.549,14.015
			c0.734-0.272,1.477-0.519,2.225-0.752c0.103-0.032,0.208-0.062,0.311-0.093c0.541-0.165,1.086-0.321,1.634-0.464
			c0.202-0.053,0.405-0.102,0.607-0.152c0.458-0.114,0.918-0.221,1.38-0.319c0.251-0.054,0.504-0.104,0.757-0.154
			c0.425-0.083,0.851-0.158,1.278-0.229c0.275-0.046,0.551-0.09,0.827-0.131c0.423-0.062,0.848-0.114,1.273-0.162
			c0.276-0.031,0.551-0.066,0.827-0.093c0.462-0.045,0.928-0.076,1.392-0.106c0.24-0.015,0.48-0.036,0.721-0.049
			c0.708-0.033,1.417-0.054,2.13-0.054c0.713,0,1.422,0.02,2.13,0.054c0.241,0.011,0.481,0.034,0.721,0.049
			c0.464,0.03,0.93,0.062,1.391,0.106c0.278,0.026,0.554,0.061,0.83,0.093c0.425,0.049,0.849,0.1,1.27,0.162
			c0.279,0.041,0.555,0.085,0.831,0.131c0.425,0.07,0.849,0.145,1.27,0.227c0.255,0.05,0.511,0.101,0.766,0.156
			c0.458,0.097,0.914,0.204,1.368,0.316c0.207,0.052,0.415,0.101,0.621,0.155c0.541,0.142,1.078,0.296,1.612,0.459
			c0.11,0.033,0.223,0.065,0.334,0.099c0.745,0.233,1.485,0.48,2.216,0.751c1.677-5.544,2.55-10.608,2.55-14.015
			C200.286,190.895,192.251,182.86,182.375,182.86z"/>
	</g>
</g>
<g>
	<g>
		<path d="M247.507,278.979c-1.239-4.621-4.203-8.484-8.346-10.877c-2.95-1.703-7.772-3.48-13.412-4.8
			c-1.764,10.613-7.314,20.003-15.344,26.629c3.956,4.215,7.898,7.494,10.844,9.195c4.143,2.392,8.97,3.027,13.591,1.79
			c4.621-1.238,8.484-4.203,10.877-8.345S248.745,283.601,247.507,278.979z"/>
	</g>
</g>
<g>
	<g>
		<path d="M195.864,254.685c-0.011-0.113-0.03-0.223-0.045-0.335c-0.04-0.326-0.085-0.649-0.148-0.967
			c-0.022-0.116-0.052-0.229-0.077-0.344c-0.07-0.312-0.148-0.623-0.238-0.926c-0.032-0.109-0.069-0.218-0.104-0.326
			c-0.59-1.799-1.55-3.426-2.785-4.806c-0.191-0.213-0.379-0.427-0.581-0.626c-0.161-0.159-0.335-0.307-0.504-0.458
			c-0.177-0.158-0.355-0.317-0.539-0.466c-0.184-0.147-0.374-0.285-0.565-0.423c-0.188-0.136-0.377-0.269-0.571-0.393
			c-0.194-0.125-0.392-0.244-0.592-0.36c-0.209-0.12-0.421-0.233-0.635-0.342c-0.196-0.099-0.393-0.197-0.594-0.287
			c-0.238-0.106-0.481-0.201-0.724-0.293c-0.19-0.072-0.377-0.146-0.571-0.209c-0.275-0.089-0.554-0.163-0.834-0.235
			c-0.174-0.045-0.346-0.096-0.523-0.135c-0.322-0.069-0.65-0.118-0.978-0.163c-0.145-0.02-0.286-0.051-0.432-0.066
			c-0.479-0.052-0.961-0.08-1.448-0.08c-0.487,0-0.969,0.028-1.448,0.08c-0.148,0.015-0.29,0.047-0.436,0.067
			c-0.326,0.046-0.653,0.093-0.973,0.162c-0.18,0.039-0.353,0.091-0.529,0.137c-0.278,0.072-0.555,0.145-0.826,0.233
			c-0.196,0.064-0.386,0.139-0.578,0.212c-0.241,0.091-0.481,0.185-0.716,0.29c-0.204,0.091-0.404,0.19-0.602,0.291
			c-0.21,0.105-0.419,0.218-0.625,0.336c-0.203,0.117-0.404,0.238-0.6,0.365c-0.191,0.124-0.377,0.253-0.562,0.387
			c-0.194,0.14-0.387,0.28-0.574,0.429c-0.18,0.145-0.353,0.3-0.526,0.454c-0.174,0.155-0.352,0.306-0.517,0.47
			c-0.192,0.19-0.372,0.394-0.554,0.596c-1.247,1.386-2.216,3.023-2.811,4.835c-0.035,0.107-0.071,0.215-0.103,0.323
			c-0.09,0.3-0.166,0.606-0.235,0.914c-0.026,0.12-0.057,0.239-0.08,0.359c-0.061,0.311-0.105,0.629-0.145,0.948
			c-0.014,0.118-0.036,0.234-0.047,0.352c-0.042,0.432-0.067,0.869-0.067,1.312c0,0.446,0.024,0.886,0.067,1.321
			c0.011,0.116,0.032,0.228,0.046,0.343c0.041,0.326,0.085,0.649,0.148,0.967c0.021,0.107,0.049,0.213,0.072,0.319
			c0.074,0.331,0.155,0.658,0.252,0.978c0.023,0.077,0.049,0.153,0.074,0.23c0.117,0.361,0.245,0.718,0.39,1.065
			c0.012,0.029,0.024,0.059,0.038,0.088c1.364,3.19,3.919,5.751,7.1,7.13c0.081,0.034,0.162,0.068,0.244,0.101
			c0.281,0.116,0.568,0.218,0.858,0.314c0.159,0.053,0.319,0.103,0.482,0.15c0.214,0.063,0.432,0.116,0.65,0.167
			c0.223,0.053,0.445,0.104,0.672,0.145c0.8,0.148,1.62,0.235,2.462,0.235s1.663-0.087,2.462-0.235
			c0.227-0.042,0.449-0.093,0.672-0.145c0.218-0.052,0.436-0.105,0.651-0.167c0.162-0.047,0.322-0.098,0.482-0.15
			c0.29-0.096,0.577-0.2,0.858-0.314c0.082-0.033,0.163-0.066,0.244-0.1c3.183-1.379,5.738-3.94,7.101-7.131
			c0.012-0.028,0.024-0.057,0.035-0.085c0.146-0.349,0.275-0.706,0.391-1.069c0.024-0.076,0.05-0.15,0.073-0.227
			c0.097-0.321,0.179-0.65,0.252-0.98c0.023-0.106,0.051-0.212,0.072-0.318c0.063-0.319,0.109-0.644,0.148-0.97
			c0.014-0.114,0.034-0.225,0.046-0.339c0.043-0.435,0.067-0.876,0.067-1.322C195.93,255.556,195.906,255.118,195.864,254.685z"/>
	</g>
</g>
<g>
	<g>
		<path d="M0,51.726v408.548h512V51.726H0z M182.377,403.354C101.124,403.355,35.021,337.252,35.021,256
			s66.103-147.354,147.355-147.354c81.251,0,147.354,66.103,147.354,147.354S263.628,403.354,182.377,403.354z M474.15,380.705
			H355.902v-30.417H474.15V380.705z M474.15,325.957H355.902v-30.417H474.15V325.957z M474.15,271.209H355.902v-30.417H474.15
			V271.209z M474.15,216.462H355.902v-30.417H474.15V216.462z M474.15,161.714H355.902v-30.417H474.15V161.714z"/>
	</g>
</g>
<g>
</g>
<g>
</g>
<g>
</g>
<g>
</g>
<g>
</g>
<g>
</g>
<g>
</g>
<g>
</g>
<g>
</g>
<g>
</g>
<g>
</g>
<g>
</g>
<g>
</g>
<g>
</g>
<g>
</g>
</svg>
