<?xml version="1.0" encoding="iso-8859-1"?>
<!-- Generator: Adobe Illustrator 19.0.0, SVG Export Plug-In . SVG Version: 6.00 Build 0)  -->
<svg version="1.1" id="Layer_1" xmlns="http://www.w3.org/2000/svg" xmlns:xlink="http://www.w3.org/1999/xlink" x="0px" y="0px"
	 viewBox="0 0 512 512" style="enable-background:new 0 0 512 512;" xml:space="preserve">
<g>
	<g>
		<path d="M0,68.089V463.24h124.298V68.089H0z M27.802,104.408h68.693v176.455H27.802V104.408z M96.715,397.838H27.583v-30.397
			h69.132V397.838z M96.715,339.351H27.583v-30.397h69.132V339.351z"/>
	</g>
</g>
<g>
	<g>
		<path d="M154.695,68.089V463.24h124.299V68.089H154.695z M182.498,104.408h68.693v176.455h-68.693V104.408z M251.41,397.838
			h-69.132v-30.397h0h69.132V397.838z M251.41,339.351h-69.132v-30.397h0h69.132V339.351z"/>
	</g>
</g>
<g>
	<g>
		<path d="M434.909,48.76l-121.911,24.25l77.091,387.559L512,436.319L434.909,48.76z M347.354,103.206l67.372-13.403l34.424,173.067
			l-67.372,13.401L347.354,103.206z M387.042,303.864l67.803-13.487l5.931,29.813l-67.803,13.487L387.042,303.864z M398.452,361.227
			l67.803-13.487l5.931,29.813l-67.803,13.487L398.452,361.227z"/>
	</g>
</g>
<g>
</g>
<g>
</g>
<g>
</g>
<g>
</g>
<g>
</g>
<g>
</g>
<g>
</g>
<g>
</g>
<g>
</g>
<g>
</g>
<g>
</g>
<g>
</g>
<g>
</g>
<g>
</g>
<g>
</g>
</svg>
