<?xml version="1.0" encoding="iso-8859-1"?>
<!-- Generator: Adobe Illustrator 19.0.0, SVG Export Plug-In . SVG Version: 6.00 Build 0)  -->
<svg version="1.1" id="Layer_1" xmlns="http://www.w3.org/2000/svg" xmlns:xlink="http://www.w3.org/1999/xlink" x="0px" y="0px"
	 viewBox="0 0 511.999 511.999" style="enable-background:new 0 0 511.999 511.999;" xml:space="preserve">
<g>
	<g>
		<path d="M211.838,315.837c-5.078-1.583-10.035-3.44-14.864-5.537c-0.588-0.255-1.176-0.51-1.761-0.772
			c-0.289-0.13-0.576-0.263-0.863-0.394c-0.897-0.409-1.791-0.826-2.681-1.254c-0.041-0.02-0.083-0.039-0.124-0.06
			c-5.315-2.557-10.484-5.429-15.477-8.612l37.905,89.645l7.558-34.08L211.838,315.837z"/>
	</g>
</g>
<g>
	<g>
		<polygon points="384.349,373.645 361.851,315.728 291.115,483.017 373.694,423.222 355.03,392.501 		"/>
	</g>
</g>
<g>
	<g>
		<path d="M320.454,307.82c-0.041,0.02-0.083,0.039-0.124,0.06c-0.89,0.427-1.783,0.845-2.681,1.254
			c-0.288,0.131-0.575,0.264-0.863,0.394c-0.585,0.262-1.173,0.517-1.761,0.772c-4.829,2.097-9.786,3.954-14.864,5.537
			l-9.693,38.934l7.559,34.08l37.904-89.642C330.938,302.391,325.769,305.265,320.454,307.82z"/>
	</g>
</g>
<g>
	<g>
		<path d="M97.889,431.374l17.84-29.363l-25.293-16.267l36.788-94.705c-55.785,5.158-99.61,52.216-99.61,109.324v111.635h181.621
			L97.889,431.374z"/>
	</g>
</g>
<g>
	<g>
		<polygon points="220.884,483.017 150.147,315.728 127.65,373.645 156.969,392.501 138.305,423.222 		"/>
	</g>
</g>
<g>
	<g>
		<polygon points="262.742,369.724 249.258,369.724 234.336,437.011 255.999,488.243 277.663,437.009 		"/>
	</g>
</g>
<g>
	<g>
		<path d="M384.775,291.04l36.788,94.705l-25.293,16.267l17.84,29.362l-111.345,80.625h181.621V400.364
			C484.385,343.256,440.559,296.199,384.775,291.04z"/>
	</g>
</g>
<g>
	<g>
		<path d="M266.142,322.179c-0.495,0.033-0.991,0.066-1.487,0.095c-0.588,0.034-1.177,0.067-1.767,0.093
			c-0.334,0.015-0.668,0.031-1.002,0.045c-0.197,0.008-0.394,0.012-0.591,0.019c-0.152,0.005-0.304,0.009-0.456,0.014
			c-0.451,0.014-0.901,0.032-1.353,0.042c-1.161,0.027-2.324,0.044-3.486,0.044s-2.326-0.017-3.486-0.044
			c-0.452-0.01-0.902-0.028-1.353-0.042c-0.152-0.005-0.304-0.009-0.456-0.014c-0.197-0.007-0.394-0.011-0.591-0.019
			c-0.334-0.013-0.668-0.029-1.002-0.045c-0.59-0.027-1.179-0.06-1.767-0.093c-0.496-0.029-0.992-0.061-1.487-0.095
			c-0.408-0.027-0.819-0.047-1.227-0.078l4.31,17.316h14.118l4.311-17.316C266.962,322.133,266.551,322.152,266.142,322.179z"/>
	</g>
</g>
<g>
	<g>
		<path d="M374.063,109.966c-20.436,9.006-42.635,13.728-65.166,13.728c-38.085,0-74.008-13.012-102.879-36.965
			c-18.028,22.215-41.638,39.285-68.381,49.395v37.738c0,55.949,39.023,102.953,91.28,115.233c0.406,0.095,0.813,0.186,1.22,0.277
			c0.581,0.13,1.163,0.26,1.748,0.381c0.882,0.182,1.767,0.356,2.654,0.517c0.129,0.024,0.258,0.052,0.388,0.075
			c13.884,2.486,28.265,2.486,42.148,0c0.129-0.023,0.258-0.05,0.388-0.075c0.887-0.162,1.771-0.335,2.654-0.517
			c0.585-0.121,1.166-0.252,1.748-0.381c0.407-0.091,0.814-0.182,1.22-0.277c52.257-12.28,91.28-59.283,91.28-115.233v-55.5
			C374.364,115.54,374.258,112.74,374.063,109.966z"/>
	</g>
</g>
<g>
	<g>
		<path d="M255.999,0c-59.943,0-109.616,44.792-117.32,102.662c21.203-10.493,39.361-26.632,52.344-46.829l10.33-16.068
			l13.297,13.714c24.952,25.735,58.422,39.908,94.245,39.908c20.52,0,40.702-4.797,58.89-13.933C351.654,33.245,307.639,0,255.999,0
			z"/>
	</g>
</g>
<g>
</g>
<g>
</g>
<g>
</g>
<g>
</g>
<g>
</g>
<g>
</g>
<g>
</g>
<g>
</g>
<g>
</g>
<g>
</g>
<g>
</g>
<g>
</g>
<g>
</g>
<g>
</g>
<g>
</g>
</svg>
