<?xml version="1.0" encoding="iso-8859-1"?>
<!-- Generator: Adobe Illustrator 19.0.0, SVG Export Plug-In . SVG Version: 6.00 Build 0)  -->
<svg version="1.1" id="Layer_1" xmlns="http://www.w3.org/2000/svg" xmlns:xlink="http://www.w3.org/1999/xlink" x="0px" y="0px"
	 viewBox="0 0 512 512" style="enable-background:new 0 0 512 512;" xml:space="preserve">
<g>
	<g>
		<path d="M256,271.209c-19.613,0-35.57,15.957-35.57,35.57c0,12.214,6.17,23.435,16.503,30.019l7.036,4.484v57.648h24.059v-57.648
			l7.036-4.484c10.334-6.583,16.503-17.805,16.503-30.019C291.57,287.165,275.613,271.209,256,271.209z"/>
	</g>
</g>
<g>
	<g>
		<path d="M371.833,179.957v-64.124C371.833,51.963,319.87,0,256,0c-63.87,0-115.833,51.963-115.833,115.833v64.124H89.979v216.527
			C89.979,460.179,141.8,512,205.495,512h101.009c63.696,0,115.516-51.821,115.516-115.516V179.957H371.833z M298.447,357.297
			v72.048h-84.893v-72.048c-14.876-12.462-23.54-30.789-23.54-50.519c0-36.385,29.602-65.987,65.987-65.987
			s65.987,29.602,65.987,65.987C321.987,326.508,313.323,344.835,298.447,357.297z M341.415,179.957H170.585v-64.124
			c0-47.098,38.318-85.415,85.415-85.415s85.415,38.318,85.415,85.415V179.957z"/>
	</g>
</g>
<g>
</g>
<g>
</g>
<g>
</g>
<g>
</g>
<g>
</g>
<g>
</g>
<g>
</g>
<g>
</g>
<g>
</g>
<g>
</g>
<g>
</g>
<g>
</g>
<g>
</g>
<g>
</g>
<g>
</g>
</svg>
