<?xml version="1.0" encoding="iso-8859-1"?>
<!-- Generator: Adobe Illustrator 19.0.0, SVG Export Plug-In . SVG Version: 6.00 Build 0)  -->
<svg version="1.1" id="Layer_1" xmlns="http://www.w3.org/2000/svg" xmlns:xlink="http://www.w3.org/1999/xlink" x="0px" y="0px"
	 viewBox="0 0 512 512" style="enable-background:new 0 0 512 512;" xml:space="preserve">
<g>
	<g>
		<polygon points="49.825,158.759 49.825,249.632 102.908,198.486 		"/>
	</g>
</g>
<g>
	<g>
		<polygon points="80.321,143.589 144.501,191.621 144.501,143.589 		"/>
	</g>
</g>
<g>
	<g>
		<polygon points="127.583,216.951 72.321,270.196 144.501,270.196 144.501,229.613 		"/>
	</g>
</g>
<g>
	<g>
		<polygon points="408.843,91.258 408.843,40.558 340.459,40.558 340.459,91.258 253.99,91.258 253.99,63.364 253.99,15.209 
			253.99,0 165.072,0 165.072,63.364 223.573,63.364 223.573,91.258 174.918,91.258 174.918,269.949 188.198,269.949 
			340.459,269.949 340.459,512 408.843,512 408.843,269.949 462.175,269.949 462.175,91.258 		"/>
	</g>
</g>
<g>
</g>
<g>
</g>
<g>
</g>
<g>
</g>
<g>
</g>
<g>
</g>
<g>
</g>
<g>
</g>
<g>
</g>
<g>
</g>
<g>
</g>
<g>
</g>
<g>
</g>
<g>
</g>
<g>
</g>
</svg>
