<?xml version="1.0" encoding="iso-8859-1"?>
<!-- Generator: Adobe Illustrator 19.0.0, SVG Export Plug-In . SVG Version: 6.00 Build 0)  -->
<svg version="1.1" id="Layer_1" xmlns="http://www.w3.org/2000/svg" xmlns:xlink="http://www.w3.org/1999/xlink" x="0px" y="0px"
	 viewBox="0 0 511.999 511.999" style="enable-background:new 0 0 511.999 511.999;" xml:space="preserve">
<g>
	<g>
		<path d="M244.045,329.308l-34.426,128.481c-2.977,11.108-1.449,22.711,4.301,32.672c5.75,9.961,15.035,17.085,26.144,20.061
			c3.719,0.996,7.454,1.471,11.133,1.471c19.008,0,36.452-12.703,41.599-31.916l34.427-128.48L244.045,329.308z"/>
	</g>
</g>
<g>
	<g>
		<path d="M160.411,184.782l-128.48,34.426c-11.109,2.977-20.395,10.101-26.144,20.061c-5.751,9.96-7.278,21.564-4.301,32.673
			v-0.001c2.977,11.109,10.1,20.393,20.061,26.144c6.634,3.83,13.997,5.787,21.457,5.786c3.74,0,7.505-0.491,11.215-1.485
			l128.48-34.426L160.411,184.782z"/>
	</g>
</g>
<g>
	<g>
		<path d="M509.575,106.968l-3.936-14.69l-117.358,31.447L419.727,6.367l-14.69-3.937c-37.763-10.115-76.718,12.374-86.838,50.137
			l-25.963,96.893l-79.76,21.371l7.035,26.258l-22.685,6.078l15.251,56.92l-0.067-0.25l22.685-6.078l0.067,0.25l31.738-8.505
			l-8.505,31.738l-6.078,22.684l56.67,15.185l6.078-22.685l26.507,7.102l21.372-79.759l96.894-25.962
			C497.204,183.688,519.694,144.732,509.575,106.968z"/>
	</g>
</g>
<g>
</g>
<g>
</g>
<g>
</g>
<g>
</g>
<g>
</g>
<g>
</g>
<g>
</g>
<g>
</g>
<g>
</g>
<g>
</g>
<g>
</g>
<g>
</g>
<g>
</g>
<g>
</g>
<g>
</g>
</svg>
