<?xml version="1.0" encoding="iso-8859-1"?>
<!-- Generator: Adobe Illustrator 19.0.0, SVG Export Plug-In . SVG Version: 6.00 Build 0)  -->
<svg version="1.1" id="Layer_1" xmlns="http://www.w3.org/2000/svg" xmlns:xlink="http://www.w3.org/1999/xlink" x="0px" y="0px"
	 viewBox="0 0 512 512" style="enable-background:new 0 0 512 512;" xml:space="preserve">
<g>
	<g>
		<path d="M362.264,89.324V75.356H29.246v50.25h158.031v30.416H19.815C6.803,185.807,0,218.109,0,250.743v185.901h123.679v-94.805
			h50.015l-7.592-73.288h95.029c50.596,0,92.631-37.349,99.987-85.923h17.36h11.154V89.324H378.48H362.264z M255.988,237.995
			h-38.441v-30.416h38.441V237.995z M255.988,187.161h-38.441v-30.416h38.441V187.161z M255.988,136.327h-38.441v-30.416h38.441
			V136.327z"/>
	</g>
</g>
<g>
	<g>
		<path d="M468.203,120.768c-5.629-18.191-22.605-31.444-42.621-31.444h-5.534v93.303h5.534c20.016,0,36.992-13.252,42.621-31.444
			H512v-30.415H468.203z"/>
	</g>
</g>
<g>
</g>
<g>
</g>
<g>
</g>
<g>
</g>
<g>
</g>
<g>
</g>
<g>
</g>
<g>
</g>
<g>
</g>
<g>
</g>
<g>
</g>
<g>
</g>
<g>
</g>
<g>
</g>
<g>
</g>
</svg>
