<?xml version="1.0" encoding="iso-8859-1"?>
<!-- Generator: Adobe Illustrator 19.0.0, SVG Export Plug-In . SVG Version: 6.00 Build 0)  -->
<svg version="1.1" id="Layer_1" xmlns="http://www.w3.org/2000/svg" xmlns:xlink="http://www.w3.org/1999/xlink" x="0px" y="0px"
	 viewBox="0 0 512 512" style="enable-background:new 0 0 512 512;" xml:space="preserve">
<g>
	<g>
		<path d="M407.11,123.798L407.11,123.798l-28.587,92.425l-34.842,10.555l26.499-85.678H0L34.387,242.42
			c8.019-2.352,16.497-3.62,25.266-3.62c35.117,0,65.59,20.243,80.378,49.67l-29.743,9.01
			c-10.495-16.962-29.263-28.291-50.635-28.291c-32.812,0-59.507,26.695-59.507,59.507c0,32.813,26.695,59.508,59.507,59.508
			c32.813,0,59.508-26.695,59.508-59.508c0-0.715-0.029-1.424-0.054-2.134l29.753-9.013l92.798-28.112l51.061,91.34h44.391V260.52
			l65.674-19.895l26.735-86.439H512v-30.389H407.11z"/>
	</g>
</g>
<g>
</g>
<g>
</g>
<g>
</g>
<g>
</g>
<g>
</g>
<g>
</g>
<g>
</g>
<g>
</g>
<g>
</g>
<g>
</g>
<g>
</g>
<g>
</g>
<g>
</g>
<g>
</g>
<g>
</g>
</svg>
