<?xml version="1.0" encoding="iso-8859-1"?>
<!-- Generator: Adobe Illustrator 19.0.0, SVG Export Plug-In . SVG Version: 6.00 Build 0)  -->
<svg version="1.1" id="Layer_1" xmlns="http://www.w3.org/2000/svg" xmlns:xlink="http://www.w3.org/1999/xlink" x="0px" y="0px"
	 viewBox="0 0 512 512" style="enable-background:new 0 0 512 512;" xml:space="preserve">
<g>
	<g>
		<path d="M162.15,168.295l-30.01,30.011l38.118,38.118c5.948,5.948,9.142,13.855,8.992,22.265
			c-0.149,8.41-3.622,16.199-9.777,21.932L16.323,423.262c-10.269,9.564-16.06,22.556-16.311,36.587
			c-0.249,14.03,5.079,27.221,15.001,37.142c9.922,9.921,23.112,15.249,37.142,15.001c14.031-0.25,27.023-6.042,36.587-16.31
			l142.642-153.15c5.733-6.155,13.521-9.628,21.931-9.777c8.41-0.149,16.318,3.044,22.266,8.991l38.118,38.118l30.011-30.011
			L162.15,168.295z"/>
	</g>
</g>
<g>
	<g>
		<polygon points="386.727,306.829 205.171,125.274 192.286,138.159 183.675,146.77 365.236,328.33 373.847,319.719 
			386.732,306.834 		"/>
	</g>
</g>
<g>
	<g>
		
			<rect x="321.368" y="147.359" transform="matrix(0.7071 -0.7071 0.7071 0.7071 -3.2085 328.3318)" width="146.717" height="41.361"/>
	</g>
</g>
<g>
	<g>
		<polygon points="511.996,181.56 482.754,152.317 379.01,256.061 386.727,263.778 408.257,285.309 408.257,285.308 
			408.253,285.304 		"/>
	</g>
</g>
<g>
	<g>
		<polygon points="330.436,0 226.692,103.743 248.218,125.27 255.94,132.991 359.683,29.247 		"/>
	</g>
</g>
<g>
	<g>
		
			<rect x="270.605" y="96.592" transform="matrix(0.7071 -0.7071 0.7071 0.7071 17.8207 277.5677)" width="146.717" height="41.361"/>
	</g>
</g>
<g>
</g>
<g>
</g>
<g>
</g>
<g>
</g>
<g>
</g>
<g>
</g>
<g>
</g>
<g>
</g>
<g>
</g>
<g>
</g>
<g>
</g>
<g>
</g>
<g>
</g>
<g>
</g>
<g>
</g>
</svg>
