<?xml version="1.0" encoding="iso-8859-1"?>
<!-- Generator: Adobe Illustrator 19.0.0, SVG Export Plug-In . SVG Version: 6.00 Build 0)  -->
<svg version="1.1" id="Layer_1" xmlns="http://www.w3.org/2000/svg" xmlns:xlink="http://www.w3.org/1999/xlink" x="0px" y="0px"
	 viewBox="0 0 512 512" style="enable-background:new 0 0 512 512;" xml:space="preserve">
<g>
	<g>
		<polygon points="462.283,412.565 440.767,434.082 453.755,447.069 130.737,447.069 143.724,434.082 122.208,412.565 
			72.491,462.283 122.208,512 143.724,490.484 130.737,477.497 453.755,477.497 440.767,490.484 462.283,512 512,462.283 		"/>
	</g>
</g>
<g>
	<g>
		<polygon points="64.931,381.263 64.931,58.245 77.919,71.233 99.435,49.717 49.717,0 0,49.717 21.516,71.233 34.503,58.245 
			34.503,381.263 21.516,368.276 0,389.792 49.717,439.509 99.435,389.792 77.919,368.276 		"/>
	</g>
</g>
<g>
	<g>
		<rect x="106.701" y="259.034" width="52.655" height="146.268"/>
	</g>
</g>
<g>
	<g>
		<rect x="248.78" y="0.077" width="111.651" height="62.976"/>
	</g>
</g>
<g>
	<g>
		<rect x="390.859" y="171.726" width="121.063" height="233.566"/>
	</g>
</g>
<g>
	<g>
		<polygon points="106.703,93.476 106.703,228.606 360.429,228.606 360.429,171.729 360.429,156.515 360.429,93.476 		"/>
	</g>
</g>
<g>
	<g>
		<rect x="106.701" y="0.077" width="111.651" height="62.976"/>
	</g>
</g>
<g>
	<g>
		<rect x="189.79" y="259.034" width="170.641" height="146.268"/>
	</g>
</g>
<g>
</g>
<g>
</g>
<g>
</g>
<g>
</g>
<g>
</g>
<g>
</g>
<g>
</g>
<g>
</g>
<g>
</g>
<g>
</g>
<g>
</g>
<g>
</g>
<g>
</g>
<g>
</g>
<g>
</g>
</svg>
