<?xml version="1.0" encoding="iso-8859-1"?>
<!-- Generator: Adobe Illustrator 19.0.0, SVG Export Plug-In . SVG Version: 6.00 Build 0)  -->
<svg version="1.1" id="Layer_1" xmlns="http://www.w3.org/2000/svg" xmlns:xlink="http://www.w3.org/1999/xlink" x="0px" y="0px"
	 viewBox="0 0 512.001 512.001" style="enable-background:new 0 0 512.001 512.001;" xml:space="preserve">
<g>
	<g>
		<path d="M352.305,365.826c-6.34-6.34-14.669-9.511-22.995-9.511c-8.329,0-16.656,3.17-22.996,9.511
			c-12.68,12.68-12.68,33.312-0.001,45.993c12.682,12.679,33.314,12.677,45.993,0C364.985,399.139,364.985,378.507,352.305,365.826z
			"/>
	</g>
</g>
<g>
	<g>
		<path d="M205.687,219.208c-12.682-12.68-33.313-12.677-45.993,0c-12.679,12.68-12.679,33.312,0,45.993
			c12.682,12.681,33.313,12.68,45.993,0C218.367,252.521,218.367,231.889,205.687,219.208z"/>
	</g>
</g>
<g>
	<g>
		<path d="M256,1.468L0,254.587h39.984v255.946h432.034V254.587h39.984L256,1.468z M138.315,197.828
			c24.468-24.468,64.283-24.47,88.754,0c24.468,24.47,24.468,64.285-0.001,88.754c-12.235,12.235-28.306,18.352-44.377,18.352
			c-16.07,0-32.142-6.117-44.376-18.352C113.847,262.113,113.847,222.298,138.315,197.828z M126.111,424.022l238.397-238.397
			l21.381,21.381L147.492,445.403L126.111,424.022z M373.686,433.2c-12.235,12.235-28.306,18.352-44.377,18.352
			c-16.07,0-32.142-6.117-44.376-18.352c-24.469-24.469-24.469-64.284,0-88.754c24.469-24.468,64.284-24.47,88.754,0
			C398.154,368.915,398.154,408.73,373.686,433.2z"/>
	</g>
</g>
<g>
</g>
<g>
</g>
<g>
</g>
<g>
</g>
<g>
</g>
<g>
</g>
<g>
</g>
<g>
</g>
<g>
</g>
<g>
</g>
<g>
</g>
<g>
</g>
<g>
</g>
<g>
</g>
<g>
</g>
</svg>
