<?xml version="1.0" encoding="iso-8859-1"?>
<!-- Generator: Adobe Illustrator 19.0.0, SVG Export Plug-In . SVG Version: 6.00 Build 0)  -->
<svg version="1.1" id="Layer_1" xmlns="http://www.w3.org/2000/svg" xmlns:xlink="http://www.w3.org/1999/xlink" x="0px" y="0px"
	 viewBox="0 0 512 512" style="enable-background:new 0 0 512 512;" xml:space="preserve">
<g>
	<g>
		<path d="M314.022,303.395v-0.001c-6.75-25.732-30.202-44.772-58.022-44.772c-33.074,0-59.981,26.907-59.981,59.981
			s26.907,59.982,59.981,59.982c27.82,0,51.272-19.04,58.022-44.772h-19.155v-30.417H314.022z"/>
	</g>
</g>
<g>
	<g>
		<path d="M448.67,125.206H63.33H32.913V512h446.174V125.206H448.67z M425.999,333.811h-23.513
			C394.851,407.896,332.069,465.87,256,465.87c-81.204,0-147.268-66.064-147.268-147.269c0-81.204,66.064-147.268,147.268-147.268
			c76.069,0,138.851,57.974,146.486,132.059h23.513V333.811z"/>
	</g>
</g>
<g>
	<g>
		<path d="M256,409.001c-49.846,0-90.398-40.553-90.398-90.399c0-49.846,40.552-90.398,90.398-90.398
			c44.664,0,81.86,32.561,89.112,75.189h26.75c-7.478-57.272-56.584-101.642-115.861-101.642
			c-64.432,0-116.851,52.419-116.851,116.851c0,64.432,52.419,116.852,116.851,116.852c59.278,0,108.384-44.37,115.861-101.642
			h-26.75C337.859,376.44,300.664,409.001,256,409.001z"/>
	</g>
</g>
<g>
	<g>
		<path d="M32.913,0v94.789H63.33h385.34h30.417V0H32.913z M132.33,62.603H90.813V32.185h41.517V62.603z M193.169,62.603h-41.517
			V32.185h41.517V62.603z M421.188,62.603h-41.517V32.185h41.517V62.603z"/>
	</g>
</g>
<g>
</g>
<g>
</g>
<g>
</g>
<g>
</g>
<g>
</g>
<g>
</g>
<g>
</g>
<g>
</g>
<g>
</g>
<g>
</g>
<g>
</g>
<g>
</g>
<g>
</g>
<g>
</g>
<g>
</g>
</svg>
