<?xml version="1.0" encoding="iso-8859-1"?>
<!-- Generator: Adobe Illustrator 19.0.0, SVG Export Plug-In . SVG Version: 6.00 Build 0)  -->
<svg version="1.1" id="Layer_1" xmlns="http://www.w3.org/2000/svg" xmlns:xlink="http://www.w3.org/1999/xlink" x="0px" y="0px"
	 viewBox="0 0 512.002 512.002" style="enable-background:new 0 0 512.002 512.002;" xml:space="preserve">
<g>
	<g>
		<path d="M465.619,212.633V85.732h-44.881C379.515,31.904,315.258,0,247.266,0C188.942,0,134.109,22.713,92.867,63.954
			c-40.572,40.572-63.212,94.298-63.937,151.562l-11.415,30.067h476.971L465.619,212.633z M368.416,125.802
			c-28.723-37.506-74.013-59.898-121.151-59.898c-40.721,0-79.004,15.857-107.797,44.651c-23.659,23.659-38.59,53.547-43.176,86.434
			l-30.126-4.203c5.509-39.492,23.418-75.365,51.794-103.74c34.54-34.539,80.461-53.561,129.305-53.561
			c56.54,0,110.858,26.849,145.3,71.821L368.416,125.802z"/>
	</g>
</g>
<g>
	<g>
		<polygon points="52.724,276 52.724,317.29 134.759,317.29 154.207,359.016 247.29,359.016 266.739,317.29 438.446,317.29 
			438.446,276 		"/>
	</g>
</g>
<g>
	<g>
		<rect x="162.865" y="389.431" width="75.759" height="122.571"/>
	</g>
</g>
<g>
</g>
<g>
</g>
<g>
</g>
<g>
</g>
<g>
</g>
<g>
</g>
<g>
</g>
<g>
</g>
<g>
</g>
<g>
</g>
<g>
</g>
<g>
</g>
<g>
</g>
<g>
</g>
<g>
</g>
</svg>
