<?xml version="1.0" encoding="iso-8859-1"?>
<!-- Generator: Adobe Illustrator 19.0.0, SVG Export Plug-In . SVG Version: 6.00 Build 0)  -->
<svg version="1.1" id="Layer_1" xmlns="http://www.w3.org/2000/svg" xmlns:xlink="http://www.w3.org/1999/xlink" x="0px" y="0px"
	 viewBox="0 0 512.002 512.002" style="enable-background:new 0 0 512.002 512.002;" xml:space="preserve">
<g>
	<g>
		<rect x="9.713" y="401.071" width="492.577" height="39.468"/>
	</g>
</g>
<g>
	<g>
		<rect x="38.6" y="470.96" width="434.804" height="41.042"/>
	</g>
</g>
<g>
	<g>
		<path d="M424.133,324.091c-34.159,0-61.559-10.112-81.44-30.054c-20.198-20.261-31.724-50.501-31.623-82.962
			c0.128-40.921,7.13-59.531,13.901-77.526c5.615-14.925,11.422-30.356,11.422-55.068c0-21.584-8.928-41.695-25.14-56.628
			C296.175,7.964,276.037,0,256.001,0s-40.175,7.964-55.252,21.854c-16.211,14.933-25.14,35.044-25.14,56.628
			c0,24.711,5.807,40.144,11.422,55.068c6.771,17.996,13.773,36.605,13.901,77.526c0.101,32.462-11.426,62.701-31.623,82.962
			c-19.881,19.943-47.281,30.054-81.44,30.054c-26.259,0-47.783,20.65-49.193,46.565h434.65v-0.002
			C471.917,344.741,450.393,324.091,424.133,324.091z"/>
	</g>
</g>
<g>
</g>
<g>
</g>
<g>
</g>
<g>
</g>
<g>
</g>
<g>
</g>
<g>
</g>
<g>
</g>
<g>
</g>
<g>
</g>
<g>
</g>
<g>
</g>
<g>
</g>
<g>
</g>
<g>
</g>
</svg>
