<?xml version="1.0" encoding="iso-8859-1"?>
<!-- Generator: Adobe Illustrator 19.0.0, SVG Export Plug-In . SVG Version: 6.00 Build 0)  -->
<svg version="1.1" id="Layer_1" xmlns="http://www.w3.org/2000/svg" xmlns:xlink="http://www.w3.org/1999/xlink" x="0px" y="0px"
	 viewBox="0 0 512 512" style="enable-background:new 0 0 512 512;" xml:space="preserve">
<g>
	<g>
		<path d="M221.279,140.243c-75.537,0-136.99,61.453-136.99,136.99s61.454,136.99,136.99,136.99s136.99-61.453,136.99-136.99
			S296.816,140.243,221.279,140.243z M183.973,358.346h-30.417V225.523h-22.304v-30.417h52.721V358.346z M308.264,358.345H204.255
			V195.106h104.008V358.345z"/>
	</g>
</g>
<g>
	<g>
		<rect x="234.668" y="225.523" width="43.174" height="102.404"/>
	</g>
</g>
<g>
	<g>
		<path d="M481.583,149.478h-39.024V55.954h-124.71V13.488H186.041v42.465h-51.616C60.303,55.954,0,116.257,0,190.378v308.133
			h308.134c74.122,0,134.425-60.303,134.425-134.425V179.895H512V98.782h-30.417V149.478z M221.279,444.64
			c-92.309,0-167.407-75.098-167.407-167.407s75.099-167.407,167.407-167.407s167.407,75.098,167.407,167.407
			S313.588,444.64,221.279,444.64z"/>
	</g>
</g>
<g>
</g>
<g>
</g>
<g>
</g>
<g>
</g>
<g>
</g>
<g>
</g>
<g>
</g>
<g>
</g>
<g>
</g>
<g>
</g>
<g>
</g>
<g>
</g>
<g>
</g>
<g>
</g>
<g>
</g>
</svg>
