<?xml version="1.0" encoding="iso-8859-1"?>
<!-- Generator: Adobe Illustrator 19.0.0, SVG Export Plug-In . SVG Version: 6.00 Build 0)  -->
<svg version="1.1" id="Layer_1" xmlns="http://www.w3.org/2000/svg" xmlns:xlink="http://www.w3.org/1999/xlink" x="0px" y="0px"
	 viewBox="0 0 511.999 511.999" style="enable-background:new 0 0 511.999 511.999;" xml:space="preserve">
<g>
	<g>
		<path d="M395.057,98.462L271.208,272.638v220.233h240.791V262.927L395.057,98.462z M368.54,415.852h-51.204v-86.258h51.204
			V415.852z M391.604,275.647c-16.052,0-29.066-13.013-29.066-29.066s13.014-29.066,29.066-29.066s29.066,13.013,29.066,29.066
			S407.657,275.647,391.604,275.647z M465.872,415.852h-51.204v-86.258h51.204V415.852z"/>
	</g>
</g>
<g>
	<g>
		<polygon points="180.855,83.252 180.855,168.421 87.791,168.421 87.791,83.252 0,83.252 0,252.574 248.153,252.574 
			368.548,83.252 		"/>
	</g>
</g>
<g>
	<g>
		<path d="M0,282.991v209.88h240.791v-209.88H0z M97.332,415.852H46.128v-86.258h51.204V415.852z M194.664,415.852H143.46v-86.258
			h51.204V415.852z"/>
	</g>
</g>
<g>
	<g>
		<rect x="118.211" y="19.128" width="32.229" height="118.881"/>
	</g>
</g>
<g>
</g>
<g>
</g>
<g>
</g>
<g>
</g>
<g>
</g>
<g>
</g>
<g>
</g>
<g>
</g>
<g>
</g>
<g>
</g>
<g>
</g>
<g>
</g>
<g>
</g>
<g>
</g>
<g>
</g>
</svg>
