<?xml version="1.0" encoding="iso-8859-1"?>
<!-- Generator: Adobe Illustrator 19.0.0, SVG Export Plug-In . SVG Version: 6.00 Build 0)  -->
<svg version="1.1" id="Layer_1" xmlns="http://www.w3.org/2000/svg" xmlns:xlink="http://www.w3.org/1999/xlink" x="0px" y="0px"
	 viewBox="0 0 512.001 512.001" style="enable-background:new 0 0 512.001 512.001;" xml:space="preserve">
<g>
	<g>
		<path d="M508.996,369.773l-35.299-143.46c-1.718,0.165-3.45,0.268-5.2,0.268c-24.563,0-45.817-16.659-51.688-40.51l-8.127-33.029
			H103.319l-8.127,33.028c-5.87,23.852-27.126,40.511-51.688,40.511c-1.75,0-3.483-0.102-5.2-0.268L3.005,369.773
			c-7.559,30.723-0.7,62.627,18.818,87.528c19.518,24.901,48.857,39.183,80.496,39.183h307.364
			c31.639,0,60.978-14.282,80.496-39.183C509.696,432.399,516.555,400.496,508.996,369.773z M450.279,426.028
			c-5.785,7.379-18.751,19.76-40.596,19.76h-39.112v-30.417h39.111c8.513,0,13.757-4.409,16.656-8.108
			c2.899-3.698,5.928-9.843,3.894-18.11l29.536-7.268C464.989,403.1,456.063,418.648,450.279,426.028z"/>
	</g>
</g>
<g>
	<g>
		<path d="M490.65,167.9l-22.367-90.902H309.689c4.886-6.436,7.792-14.452,7.792-23.136c0-2.489-0.246-4.922-0.702-7.281
			c-3.412-17.673-18.989-31.065-37.643-31.065c-8.685,0-16.701,2.906-23.136,7.792c-6.435-4.885-14.452-7.792-23.136-7.792
			c-18.654,0-34.231,13.392-37.643,31.065c-0.455,2.358-0.702,4.792-0.702,7.281c-0.001,8.684,2.906,16.7,7.791,23.136H43.719
			l-22.368,90.903c-1.686,6.853-0.156,13.968,4.198,19.522c4.354,5.555,10.897,8.74,17.955,8.74c10.527,0,19.636-7.14,22.153-17.363
			l13.823-56.176h353.044l13.823,56.177c2.516,10.222,11.625,17.362,22.153,17.362c7.058,0,13.601-3.186,17.955-8.74
			C490.806,181.869,492.336,174.753,490.65,167.9z"/>
	</g>
</g>
<g>
</g>
<g>
</g>
<g>
</g>
<g>
</g>
<g>
</g>
<g>
</g>
<g>
</g>
<g>
</g>
<g>
</g>
<g>
</g>
<g>
</g>
<g>
</g>
<g>
</g>
<g>
</g>
<g>
</g>
</svg>
