<?xml version="1.0" encoding="iso-8859-1"?>
<!-- Generator: Adobe Illustrator 19.0.0, SVG Export Plug-In . SVG Version: 6.00 Build 0)  -->
<svg version="1.1" id="Layer_1" xmlns="http://www.w3.org/2000/svg" xmlns:xlink="http://www.w3.org/1999/xlink" x="0px" y="0px"
	 viewBox="0 0 512 512" style="enable-background:new 0 0 512 512;" xml:space="preserve">
<g>
	<g>
		<path d="M459.406,36.448c-29.047,0-52.594,23.547-52.594,52.594v16.006h-30.417V89.042c0-29.047-23.547-52.594-52.594-52.594
			c-29.046,0-52.594,23.547-52.594,52.594v16.006h-30.417V89.042c0-29.047-23.547-52.594-52.594-52.594
			s-52.594,23.547-52.594,52.594v16.006h-30.417V89.042c0-29.047-23.547-52.594-52.594-52.594C23.547,36.448,0,59.995,0,89.042
			v333.917c0,29.046,23.547,52.594,52.594,52.594c29.047,0,52.594-23.547,52.594-52.594v-16.006h30.417v16.006
			c0,29.046,23.547,52.594,52.594,52.594c29.047,0,52.594-23.547,52.594-52.594v-16.006h30.417v16.006
			c0,29.046,23.547,52.594,52.594,52.594s52.594-23.547,52.594-52.594v-16.006h30.417v16.006c0,29.046,23.547,52.594,52.594,52.594
			c29.047,0,52.594-23.547,52.594-52.594V89.042C512,59.995,488.454,36.448,459.406,36.448z M135.604,319.996h-30.417V192.004
			h30.417V319.996z M271.209,319.996h-30.417V192.004h30.417V319.996z M406.813,319.996h-30.417V192.004h30.417V319.996z"/>
	</g>
</g>
<g>
</g>
<g>
</g>
<g>
</g>
<g>
</g>
<g>
</g>
<g>
</g>
<g>
</g>
<g>
</g>
<g>
</g>
<g>
</g>
<g>
</g>
<g>
</g>
<g>
</g>
<g>
</g>
<g>
</g>
</svg>
