<?xml version="1.0" encoding="iso-8859-1"?>
<!-- Generator: Adobe Illustrator 19.0.0, SVG Export Plug-In . SVG Version: 6.00 Build 0)  -->
<svg version="1.1" id="Layer_1" xmlns="http://www.w3.org/2000/svg" xmlns:xlink="http://www.w3.org/1999/xlink" x="0px" y="0px"
	 viewBox="0 0 511.999 511.999" style="enable-background:new 0 0 511.999 511.999;" xml:space="preserve">
<g>
	<g>
		<path d="M492.06,297.892l-197.433,81.779c-6.013-9.391-13.965-17.294-23.397-23.252l182.705-75.679l-52.944-127.816
			L197.432,237.24l44.813,108.187c-8.891-1.438-17.94-1.296-26.797,0.454L93.242,50.85L11.647,17.051L0,45.17l69.947,28.974
			l117.382,283.385c-12.434,8.332-22.149,20.134-28.007,34.277c-7.837,18.919-7.837,39.757,0,58.676
			c7.837,18.919,22.572,33.654,41.49,41.49c9.459,3.918,19.399,5.877,29.338,5.877s19.879-1.959,29.338-5.877
			c18.919-7.837,33.654-22.571,41.49-41.49c2.581-6.232,4.294-12.673,5.175-19.184l205.846-85.265L492.06,297.892z M238.14,440.433
			c-10.654,4.413-22.867-0.646-27.279-11.3c-4.413-10.653,0.646-22.867,11.3-27.279c10.654-4.412,22.867,0.646,27.279,11.3
			C253.853,423.807,248.794,436.02,238.14,440.433z"/>
	</g>
</g>
<g>
	<g>
		
			<rect x="182.465" y="39.641" transform="matrix(0.9239 -0.3827 0.3827 0.9239 -20.5357 108.4122)" width="159.547" height="132.368"/>
	</g>
</g>
<g>
</g>
<g>
</g>
<g>
</g>
<g>
</g>
<g>
</g>
<g>
</g>
<g>
</g>
<g>
</g>
<g>
</g>
<g>
</g>
<g>
</g>
<g>
</g>
<g>
</g>
<g>
</g>
<g>
</g>
</svg>
