<?xml version="1.0" encoding="iso-8859-1"?>
<!-- Generator: Adobe Illustrator 19.0.0, SVG Export Plug-In . SVG Version: 6.00 Build 0)  -->
<svg version="1.1" id="Layer_1" xmlns="http://www.w3.org/2000/svg" xmlns:xlink="http://www.w3.org/1999/xlink" x="0px" y="0px"
	 viewBox="0 0 512.002 512.002" style="enable-background:new 0 0 512.002 512.002;" xml:space="preserve">
<g>
	<g>
		<polygon points="65.229,164.477 65.229,480.773 165.232,480.773 165.232,458.577 165.232,164.477 		"/>
	</g>
</g>
<g>
	<g>
		<polygon points="142.928,132.799 108.848,98.138 21.1,98.138 56.385,134.022 144.13,134.022 		"/>
	</g>
</g>
<g>
	<g>
		<polygon points="0,120.116 0,423.429 34.774,458.795 34.774,155.482 		"/>
	</g>
</g>
<g>
	<g>
		<polygon points="173.383,53.205 173.383,120.333 195.688,143.016 195.688,446.111 208.157,458.795 208.157,88.571 		"/>
	</g>
</g>
<g>
	<g>
		<polygon points="238.612,97.565 238.612,480.773 338.617,480.773 338.617,458.578 338.617,179.2 338.617,97.565 		"/>
	</g>
</g>
<g>
	<g>
		<polygon points="282.232,31.227 194.485,31.227 229.768,67.11 317.515,67.11 		"/>
	</g>
</g>
<g>
	<g>
		<polygon points="369.072,254.318 369.072,446.111 381.541,458.794 381.541,266.999 		"/>
	</g>
</g>
<g>
	<g>
		<rect x="411.997" y="275.995" width="100.005" height="204.781"/>
	</g>
</g>
<g>
	<g>
		<polygon points="455.616,209.655 369.072,209.655 369.072,210.881 403.151,245.54 490.9,245.54 		"/>
	</g>
</g>
<g>
</g>
<g>
</g>
<g>
</g>
<g>
</g>
<g>
</g>
<g>
</g>
<g>
</g>
<g>
</g>
<g>
</g>
<g>
</g>
<g>
</g>
<g>
</g>
<g>
</g>
<g>
</g>
<g>
</g>
</svg>
