<?xml version="1.0" encoding="iso-8859-1"?>
<!-- Generator: Adobe Illustrator 19.0.0, SVG Export Plug-In . SVG Version: 6.00 Build 0)  -->
<svg version="1.1" id="Layer_1" xmlns="http://www.w3.org/2000/svg" xmlns:xlink="http://www.w3.org/1999/xlink" x="0px" y="0px"
	 viewBox="0 0 512 512" style="enable-background:new 0 0 512 512;" xml:space="preserve">
<g>
	<g>
		<path d="M481.58,336.74H30.417H0v44.701c0,20.685,16.829,37.515,37.515,37.515h134.504l-5.733,39.566h-28.914v30.417h24.506
			h188.241h24.506v-30.417h-28.914l-5.733-39.566h134.504c20.686,0,37.514-16.83,37.514-37.515V336.74H481.58z M276.948,393.057
			h-41.897v-30.417h41.897V393.057z"/>
	</g>
</g>
<g>
	<g>
		<path d="M474.485,23.061H37.515C16.829,23.061,0,39.891,0,60.576v245.747h30.417h451.166H512V60.576
			C512,39.89,495.17,23.061,474.485,23.061z M302.997,172.459v84.05h-93.994v-84.05h-45.614l92.61-99.584l92.611,99.584H302.997z"/>
	</g>
</g>
<g>
</g>
<g>
</g>
<g>
</g>
<g>
</g>
<g>
</g>
<g>
</g>
<g>
</g>
<g>
</g>
<g>
</g>
<g>
</g>
<g>
</g>
<g>
</g>
<g>
</g>
<g>
</g>
<g>
</g>
</svg>
