<?xml version="1.0" encoding="iso-8859-1"?>
<!-- Generator: Adobe Illustrator 19.0.0, SVG Export Plug-In . SVG Version: 6.00 Build 0)  -->
<svg version="1.1" id="Layer_1" xmlns="http://www.w3.org/2000/svg" xmlns:xlink="http://www.w3.org/1999/xlink" x="0px" y="0px"
	 viewBox="0 0 512 512" style="enable-background:new 0 0 512 512;" xml:space="preserve">
<g>
	<g>
		<path d="M38.738,270.811V512h434.526V270.811H38.738z M240.795,451.195h-87.32v-44.583h87.32V451.195z M240.795,376.2h-87.32
			v-44.582h87.32V376.2z M358.526,451.195h-87.32v-44.583h87.32V451.195z M358.526,376.2h-87.32v-44.582h87.32V376.2z"/>
	</g>
</g>
<g>
	<g>
		<path d="M256.001,0L153.475,101.371V45.193H86.71v122.192L12.863,240.4h486.275L256.001,0z M256.001,198.368
			c-22.451,0-40.65-18.2-40.65-40.651s18.2-40.651,40.65-40.651s40.65,18.2,40.65,40.651S278.451,198.368,256.001,198.368z"/>
	</g>
</g>
<g>
</g>
<g>
</g>
<g>
</g>
<g>
</g>
<g>
</g>
<g>
</g>
<g>
</g>
<g>
</g>
<g>
</g>
<g>
</g>
<g>
</g>
<g>
</g>
<g>
</g>
<g>
</g>
<g>
</g>
</svg>
