<?xml version="1.0" encoding="iso-8859-1"?>
<!-- Generator: Adobe Illustrator 19.0.0, SVG Export Plug-In . SVG Version: 6.00 Build 0)  -->
<svg version="1.1" id="Layer_1" xmlns="http://www.w3.org/2000/svg" xmlns:xlink="http://www.w3.org/1999/xlink" x="0px" y="0px"
	 viewBox="0 0 511.999 511.999" style="enable-background:new 0 0 511.999 511.999;" xml:space="preserve">
<g>
	<g>
		<polygon points="81.945,0 81.945,185.922 81.945,231.551 430.054,231.551 430.054,0 		"/>
	</g>
</g>
<g>
	<g>
		<path d="M81.945,261.967L81.945,261.967v47.114h109.814c6.686,0,12.925,2.649,17.568,7.46c4.622,4.79,7.048,11.084,6.836,17.731
			l-6.404,129.594l-0.009,0.211c-0.45,12.665,4.149,24.662,12.95,33.78c8.801,9.119,20.627,14.141,33.3,14.141
			s24.499-5.022,33.3-14.141c8.801-9.119,13.4-21.116,12.949-33.781l-6.412-129.809c-0.212-6.647,2.214-12.938,6.835-17.727
			c4.644-4.811,10.882-7.46,17.569-7.46h109.814v-47.113H81.945z"/>
	</g>
</g>
<g>
</g>
<g>
</g>
<g>
</g>
<g>
</g>
<g>
</g>
<g>
</g>
<g>
</g>
<g>
</g>
<g>
</g>
<g>
</g>
<g>
</g>
<g>
</g>
<g>
</g>
<g>
</g>
<g>
</g>
</svg>
