<?xml version="1.0" encoding="iso-8859-1"?>
<!-- Generator: Adobe Illustrator 19.0.0, SVG Export Plug-In . SVG Version: 6.00 Build 0)  -->
<svg version="1.1" id="Layer_1" xmlns="http://www.w3.org/2000/svg" xmlns:xlink="http://www.w3.org/1999/xlink" x="0px" y="0px"
	 viewBox="0 0 511.999 511.999" style="enable-background:new 0 0 511.999 511.999;" xml:space="preserve">
<g>
	<g>
		<path d="M434.943,128.246H77.057v221.03h357.887v-221.03H434.943z M294.715,245.595v73.94h-80.25v-73.94h-41.347l81.471-87.605
			l81.471,87.605H294.715z"/>
	</g>
</g>
<g>
	<g>
		<path d="M474.213,51.191H37.786C16.95,51.191,0,68.141,0,88.976v334.046c0,20.835,16.951,37.786,37.786,37.786h436.427
			c20.836,0,37.786-16.951,37.786-37.786V88.976C512,68.141,495.049,51.191,474.213,51.191z M256,435.291
			c-8.306,0-15.039-6.733-15.039-15.039s6.733-15.039,15.039-15.039c8.306,0,15.039,6.733,15.039,15.039
			S264.306,435.291,256,435.291z M465.361,379.694h-0.001H46.64V97.829h418.722V379.694z"/>
	</g>
</g>
<g>
</g>
<g>
</g>
<g>
</g>
<g>
</g>
<g>
</g>
<g>
</g>
<g>
</g>
<g>
</g>
<g>
</g>
<g>
</g>
<g>
</g>
<g>
</g>
<g>
</g>
<g>
</g>
<g>
</g>
</svg>
