<?xml version="1.0" encoding="iso-8859-1"?>
<!-- Generator: Adobe Illustrator 19.0.0, SVG Export Plug-In . SVG Version: 6.00 Build 0)  -->
<svg version="1.1" id="Layer_1" xmlns="http://www.w3.org/2000/svg" xmlns:xlink="http://www.w3.org/1999/xlink" x="0px" y="0px"
	 viewBox="0 0 512 512" style="enable-background:new 0 0 512 512;" xml:space="preserve">
<g>
	<g>
		<path d="M114.067,163.88v-39.727H74.34V98.057c0-4.601,3.743-8.344,8.345-8.344c4.602,0,8.345,3.743,8.345,8.344v10.094h30.417
			V98.057c0-21.373-17.388-38.762-38.763-38.762c-21.374,0-38.763,17.388-38.763,38.762v26.096v15.209v24.518H0v39.728h24.452h5.965
			h451.166h5.965H512V163.88H114.067z"/>
	</g>
</g>
<g>
	<g>
		<path d="M457.13,234.025H54.87H24.452v71.064c0,38.653,20.453,72.614,51.101,91.645L62.665,444.83l29.381,7.874l11.696-43.649
			c9.086,2.494,18.643,3.834,28.509,3.834h247.496c9.866,0,19.424-1.339,28.509-3.834l11.696,43.649l29.381-7.874l-12.888-48.097
			c30.648-19.031,51.101-52.992,51.101-91.645v-71.064H457.13z M436.852,305.089c0,31.488-25.617,57.104-57.104,57.104v-30.417h0
			c14.715,0,26.687-11.972,26.687-26.687v-35.577h30.417V305.089z"/>
	</g>
</g>
<g>
</g>
<g>
</g>
<g>
</g>
<g>
</g>
<g>
</g>
<g>
</g>
<g>
</g>
<g>
</g>
<g>
</g>
<g>
</g>
<g>
</g>
<g>
</g>
<g>
</g>
<g>
</g>
<g>
</g>
</svg>
