<?xml version="1.0" encoding="iso-8859-1"?>
<!-- Generator: Adobe Illustrator 19.0.0, SVG Export Plug-In . SVG Version: 6.00 Build 0)  -->
<svg version="1.1" id="Layer_1" xmlns="http://www.w3.org/2000/svg" xmlns:xlink="http://www.w3.org/1999/xlink" x="0px" y="0px"
	 viewBox="0 0 512 512" style="enable-background:new 0 0 512 512;" xml:space="preserve">
<g>
	<g>
		<path d="M105.772,418.226v55.646c0,21.023,17.105,38.128,38.128,38.128H368.1c21.023,0,38.128-17.105,38.128-38.128v-55.646
			H105.772z M279.658,480.321h-47.316v-30.417h47.316V480.321z"/>
	</g>
</g>
<g>
	<g>
		<path d="M368.1,0H143.9c-21.023,0-38.128,17.105-38.128,38.128v55.647h300.455V38.128C406.228,17.105,389.123,0,368.1,0z
			 M261.622,62.096h-69.781V31.679h69.781V62.096z M320.158,62.096h-28.119V31.679h28.119V62.096z"/>
	</g>
</g>
<g>
	<g>
		<path d="M375.81,124.193H136.19h-30.417v263.616h30.417H375.81h30.417V124.193H375.81z M321.675,266.701l-50.466-50.466V353.99
			h-30.417V216.235l-50.466,50.466l-21.508-21.508L256,158.009l87.183,87.184L321.675,266.701z"/>
	</g>
</g>
<g>
</g>
<g>
</g>
<g>
</g>
<g>
</g>
<g>
</g>
<g>
</g>
<g>
</g>
<g>
</g>
<g>
</g>
<g>
</g>
<g>
</g>
<g>
</g>
<g>
</g>
<g>
</g>
<g>
</g>
</svg>
