<?xml version="1.0" encoding="iso-8859-1"?>
<!-- Generator: Adobe Illustrator 19.0.0, SVG Export Plug-In . SVG Version: 6.00 Build 0)  -->
<svg version="1.1" id="Layer_1" xmlns="http://www.w3.org/2000/svg" xmlns:xlink="http://www.w3.org/1999/xlink" x="0px" y="0px"
	 viewBox="0 0 512 512" style="enable-background:new 0 0 512 512;" xml:space="preserve">
<g>
	<g>
		<path d="M355.876,366.151h36.597V335.73h-48.781l-52.019-129.878c14.082-10.765,23.19-27.724,23.19-46.778
			c0-27.198-18.546-50.136-43.653-56.859V90.067h20.651V0h-71.722v90.067h20.651v12.147c-25.107,6.723-43.653,29.661-43.653,56.859
			c0,19.054,9.107,36.014,23.19,46.778l-52.019,129.878h-48.78v30.421h36.597l-53.886,134.539l28.24,11.31l58.417-145.85h51.897
			v31.134h30.421v-31.134h51.897L381.523,512l28.24-11.31L355.876,366.151z M271.208,335.73v-31.135h-30.421v31.135h-39.712
			l47.379-118.294c2.472,0.317,4.986,0.5,7.543,0.5c2.557,0,5.071-0.183,7.542-0.5l47.38,118.294H271.208z"/>
	</g>
</g>
<g>
</g>
<g>
</g>
<g>
</g>
<g>
</g>
<g>
</g>
<g>
</g>
<g>
</g>
<g>
</g>
<g>
</g>
<g>
</g>
<g>
</g>
<g>
</g>
<g>
</g>
<g>
</g>
<g>
</g>
</svg>
