<?xml version="1.0" encoding="iso-8859-1"?>
<!-- Generator: Adobe Illustrator 19.0.0, SVG Export Plug-In . SVG Version: 6.00 Build 0)  -->
<svg version="1.1" id="Layer_1" xmlns="http://www.w3.org/2000/svg" xmlns:xlink="http://www.w3.org/1999/xlink" x="0px" y="0px"
	 viewBox="0 0 512.001 512.001" style="enable-background:new 0 0 512.001 512.001;" xml:space="preserve">
<g>
	<g>
		<path d="M445.365,13.189c-17.522-17.521-46.034-17.522-63.556,0l-73.177,73.177c-8.488,8.488-13.163,19.774-13.163,31.778
			s4.674,23.29,13.163,31.778l32.205,32.205L477.57,45.394L445.365,13.189z"/>
	</g>
</g>
<g>
	<g>
		<path d="M470.321,95.659l-80.084,80.084c5.23,7.994,8.044,17.333,8.044,27.108c0,13.264-5.166,25.734-14.544,35.114
			L237.938,383.764c-16.876,16.876-42.973,19.037-62.217,6.496l-80.086,80.086c30.243,27.732,68.714,41.608,107.189,41.608
			c40.639,0,81.279-15.469,112.217-46.408l150.477-150.477c29.974-29.974,46.483-69.827,46.483-112.217
			C512.001,162.785,497.247,124.992,470.321,95.659z"/>
	</g>
</g>
<g>
	<g>
		<path d="M149.896,308.658c-17.522-17.521-46.034-17.522-63.556,0l-73.177,73.177C4.674,390.324,0,401.609,0,413.614
			s4.674,23.29,13.163,31.778l32.205,32.205l136.734-136.734L149.896,308.658z"/>
	</g>
</g>
<g>
</g>
<g>
</g>
<g>
</g>
<g>
</g>
<g>
</g>
<g>
</g>
<g>
</g>
<g>
</g>
<g>
</g>
<g>
</g>
<g>
</g>
<g>
</g>
<g>
</g>
<g>
</g>
<g>
</g>
</svg>
