<?xml version="1.0" encoding="iso-8859-1"?>
<!-- Generator: Adobe Illustrator 19.0.0, SVG Export Plug-In . SVG Version: 6.00 Build 0)  -->
<svg version="1.1" id="Layer_1" xmlns="http://www.w3.org/2000/svg" xmlns:xlink="http://www.w3.org/1999/xlink" x="0px" y="0px"
	 viewBox="0 0 511.999 511.999" style="enable-background:new 0 0 511.999 511.999;" xml:space="preserve">
<g>
	<g>
		<path d="M184.851,0C107.966,0,45.415,62.551,45.415,139.435v372.564h51.719V139.435c0-48.366,39.35-87.715,87.717-87.715
			c35.173,0,65.56,20.819,79.53,50.773c10.95-2.513,22.345-3.843,34.046-3.843c6.837,0,13.568,0.461,20.169,1.34
			C301.538,42.255,248.041,0,184.851,0z"/>
	</g>
</g>
<g>
	<g>
		<path d="M298.428,129.681c-66.799,0-121.144,54.345-121.144,121.144v15.516h242.288v-15.516
			C419.573,184.026,365.228,129.681,298.428,129.681z"/>
	</g>
</g>
<g>
	<g>
		<polygon points="174.048,285.38 171.523,297.372 130.274,493.286 160.64,499.679 203.235,297.372 204.413,291.773 		"/>
	</g>
</g>
<g>
	<g>
		<polygon points="229.128,297.372 228.399,297.296 228.392,297.372 206.512,505.203 237.373,508.452 259.26,300.545 		"/>
	</g>
</g>
<g>
	<g>
		<rect x="282.915" y="304.09" width="31.032" height="207.902"/>
	</g>
</g>
<g>
	<g>
		<polygon points="368.466,297.372 368.457,297.296 367.728,297.372 337.596,300.545 359.484,508.452 390.345,505.203 		"/>
	</g>
</g>
<g>
	<g>
		<polygon points="425.333,297.372 422.808,285.38 392.443,291.773 393.621,297.372 436.217,499.679 466.584,493.286 		"/>
	</g>
</g>
<g>
</g>
<g>
</g>
<g>
</g>
<g>
</g>
<g>
</g>
<g>
</g>
<g>
</g>
<g>
</g>
<g>
</g>
<g>
</g>
<g>
</g>
<g>
</g>
<g>
</g>
<g>
</g>
<g>
</g>
</svg>
