<?xml version="1.0" encoding="iso-8859-1"?>
<!-- Generator: Adobe Illustrator 19.0.0, SVG Export Plug-In . SVG Version: 6.00 Build 0)  -->
<svg version="1.1" id="Layer_1" xmlns="http://www.w3.org/2000/svg" xmlns:xlink="http://www.w3.org/1999/xlink" x="0px" y="0px"
	 viewBox="0 0 512 512" style="enable-background:new 0 0 512 512;" xml:space="preserve">
<g>
	<g>
		<path d="M363.006,208.232V107.007C363.006,48.003,315.003,0,255.999,0S148.992,48.003,148.992,107.007v101.225
			c-38.861,31.33-63.771,79.302-63.771,132.99C85.221,435.389,161.832,512,256,512s170.779-76.611,170.779-170.778
			C426.778,287.534,401.867,239.562,363.006,208.232z M201.168,434.556c-21.23,0-38.502-17.272-38.502-38.502
			s17.272-38.503,38.502-38.503s38.502,17.273,38.502,38.503C239.67,417.283,222.398,434.556,201.168,434.556z M201.168,324.893
			c-21.23,0-38.502-17.272-38.502-38.502c0-21.23,17.272-38.503,38.502-38.503s38.502,17.272,38.502,38.503
			C239.67,307.621,222.398,324.893,201.168,324.893z M267.795,170.858c-0.823-0.056-1.648-0.114-2.473-0.157
			c-0.91-0.05-1.824-0.083-2.738-0.119c-0.625-0.023-1.247-0.055-1.873-0.071c-1.565-0.043-3.136-0.068-4.712-0.068
			c-1.576,0-3.146,0.025-4.712,0.068c-0.626,0.017-1.248,0.048-1.873,0.071c-0.914,0.034-1.827,0.069-2.738,0.119
			c-0.826,0.044-1.65,0.101-2.474,0.157c-0.669,0.046-1.338,0.091-2.004,0.145c-0.988,0.078-1.972,0.168-2.957,0.264
			c-0.438,0.043-0.876,0.087-1.314,0.133c-1.179,0.124-2.356,0.258-3.53,0.405c-0.108,0.014-0.216,0.028-0.324,0.043
			c-19.113,2.439-37.529,8.051-54.665,16.684v-81.523c0-42.231,34.358-76.59,76.59-76.59s76.59,34.358,76.59,76.59v81.522
			c-17.135-8.631-35.551-14.243-54.662-16.682c-0.109-0.014-0.218-0.029-0.328-0.043c-1.174-0.147-2.35-0.281-3.528-0.405
			c-0.438-0.047-0.876-0.09-1.315-0.134c-0.983-0.095-1.969-0.185-2.956-0.264C269.133,170.949,268.464,170.903,267.795,170.858z
			 M310.83,247.888c21.231,0,38.503,17.272,38.503,38.503c0,21.229-17.272,38.502-38.503,38.502
			c-21.23,0-38.503-17.272-38.503-38.502C272.327,265.161,289.599,247.888,310.83,247.888z M310.831,434.556
			c-21.231,0-38.503-17.272-38.503-38.502s17.272-38.503,38.503-38.503c21.231,0,38.503,17.272,38.503,38.503
			C349.334,417.283,332.062,434.556,310.831,434.556z"/>
	</g>
</g>
<g>
</g>
<g>
</g>
<g>
</g>
<g>
</g>
<g>
</g>
<g>
</g>
<g>
</g>
<g>
</g>
<g>
</g>
<g>
</g>
<g>
</g>
<g>
</g>
<g>
</g>
<g>
</g>
<g>
</g>
</svg>
