<?xml version="1.0" encoding="iso-8859-1"?>
<!-- Generator: Adobe Illustrator 19.0.0, SVG Export Plug-In . SVG Version: 6.00 Build 0)  -->
<svg version="1.1" id="Layer_1" xmlns="http://www.w3.org/2000/svg" xmlns:xlink="http://www.w3.org/1999/xlink" x="0px" y="0px"
	 viewBox="0 0 512 512" style="enable-background:new 0 0 512 512;" xml:space="preserve">
<g>
	<g>
		<path d="M78.568,78.567v354.867h162.224v-257.18h-38.861c-19.567,0-35.487-15.919-35.487-35.487v-2.859
			c0-19.567,15.919-35.487,35.487-35.487h38.861V78.567H78.568z"/>
	</g>
</g>
<g>
	<g>
		<path d="M310.07,132.838H201.931c-2.795,0-5.07,2.274-5.07,5.07v2.859c0,2.795,2.274,5.07,5.07,5.07H310.07
			c2.795,0,5.07-2.274,5.07-5.07v-2.859C315.14,135.112,312.865,132.838,310.07,132.838z"/>
	</g>
</g>
<g>
	<g>
		<path d="M271.209,78.567v23.855h38.861c19.567,0,35.487,15.919,35.487,35.487v2.859c0,19.567-15.919,35.487-35.487,35.487h-38.861
			v257.179h162.224V78.567H271.209z"/>
	</g>
</g>
<g>
	<g>
		<path d="M0.001,0v512h511.999V0H0.001z M463.85,463.851H48.151V48.149H463.85V463.851z"/>
	</g>
</g>
<g>
</g>
<g>
</g>
<g>
</g>
<g>
</g>
<g>
</g>
<g>
</g>
<g>
</g>
<g>
</g>
<g>
</g>
<g>
</g>
<g>
</g>
<g>
</g>
<g>
</g>
<g>
</g>
<g>
</g>
</svg>
