<?xml version="1.0" encoding="iso-8859-1"?>
<!-- Generator: Adobe Illustrator 19.0.0, SVG Export Plug-In . SVG Version: 6.00 Build 0)  -->
<svg version="1.1" id="Layer_1" xmlns="http://www.w3.org/2000/svg" xmlns:xlink="http://www.w3.org/1999/xlink" x="0px" y="0px"
	 viewBox="0 0 512.002 512.002" style="enable-background:new 0 0 512.002 512.002;" xml:space="preserve">
<g>
	<g>
		<rect x="129.589" y="118.302" width="111.205" height="393.7"/>
	</g>
</g>
<g>
	<g>
		<path d="M17.146,0v512h82.026V87.885h141.62h30.417h141.62V512h82.026V0H17.146z M73.368,322.248H42.951v-60.503h30.417V322.248z
			 M136.868,59.151H99.172V28.734h37.696V59.151z M192.061,59.151h-37.696V28.734h37.696V59.151z M247.254,59.151h-37.696V28.734
			h37.696V59.151z M302.447,59.151h-37.696V28.734h37.696V59.151z M357.639,59.151h-37.696V28.734h37.696V59.151z M412.832,59.151
			L412.832,59.151h-37.696V28.734h37.696V59.151z"/>
	</g>
</g>
<g>
	<g>
		<rect x="271.212" y="118.302" width="111.205" height="393.7"/>
	</g>
</g>
<g>
</g>
<g>
</g>
<g>
</g>
<g>
</g>
<g>
</g>
<g>
</g>
<g>
</g>
<g>
</g>
<g>
</g>
<g>
</g>
<g>
</g>
<g>
</g>
<g>
</g>
<g>
</g>
<g>
</g>
</svg>
