<?xml version="1.0" encoding="iso-8859-1"?>
<!-- Generator: Adobe Illustrator 19.0.0, SVG Export Plug-In . SVG Version: 6.00 Build 0)  -->
<svg version="1.1" id="Layer_1" xmlns="http://www.w3.org/2000/svg" xmlns:xlink="http://www.w3.org/1999/xlink" x="0px" y="0px"
	 viewBox="0 0 512.001 512.001" style="enable-background:new 0 0 512.001 512.001;" xml:space="preserve">
<g>
	<g>
		<path d="M453.341,0l-48.789,48.789l14.636,14.636l-74.491,74.491c-45.739-31.908-109.129-27.481-149.94,13.331
			c-4.25,4.25-8.102,8.749-11.557,13.446c-7.078,9.622-18.033,15.69-29.947,16.567c-37.538,2.763-74.313,18.263-103.3,46.506
			c-65.147,63.474-66.635,168.853-3.218,234.056c64.523,66.342,170.618,66.901,235.842,1.677
			c29.34-29.339,45.366-66.952,48.084-105.327c0.839-11.844,7.114-22.532,16.669-29.582c4.383-3.233,8.59-6.812,12.585-10.739
			c41.126-40.423,45.983-104.657,14.043-150.647l74.502-74.503l14.637,14.637l48.789-48.789L453.341,0z M156.565,413.872
			l-58.547-58.547l29.273-29.273l58.547,58.547L156.565,413.872z M227.814,325.13c-22.865,0-41.399-18.534-41.399-41.399
			s18.534-41.399,41.399-41.399c22.863,0,41.399,18.534,41.399,41.399S250.677,325.13,227.814,325.13z"/>
	</g>
</g>
<g>
</g>
<g>
</g>
<g>
</g>
<g>
</g>
<g>
</g>
<g>
</g>
<g>
</g>
<g>
</g>
<g>
</g>
<g>
</g>
<g>
</g>
<g>
</g>
<g>
</g>
<g>
</g>
<g>
</g>
</svg>
