<?xml version="1.0" encoding="iso-8859-1"?>
<!-- Generator: Adobe Illustrator 19.0.0, SVG Export Plug-In . SVG Version: 6.00 Build 0)  -->
<svg version="1.1" id="Layer_1" xmlns="http://www.w3.org/2000/svg" xmlns:xlink="http://www.w3.org/1999/xlink" x="0px" y="0px"
	 viewBox="0 0 512 512" style="enable-background:new 0 0 512 512;" xml:space="preserve">
<g>
	<g>
		<path d="M425.591,64.253c-40.892-36.195-93.44-59.511-151.305-63.596v510.685c57.865-4.085,110.413-27.401,151.305-63.596
			c-50.405-51.546-78.162-119.629-78.162-191.746C347.429,183.886,375.186,115.802,425.591,64.253z"/>
	</g>
</g>
<g>
	<g>
		<path d="M86.402,64.261c50.401,51.546,78.157,119.627,78.157,191.74s-27.756,140.197-78.157,191.74
			c40.894,36.198,93.444,59.516,151.312,63.601V0.657C179.845,4.742,127.296,28.06,86.402,64.261z"/>
	</g>
</g>
<g>
	<g>
		<path d="M451.198,90.389C407.861,134.995,384,193.764,384,256.001c0,62.239,23.861,121.008,67.198,165.612
			C489.114,376.968,512,319.162,512,256.001S489.114,135.034,451.198,90.389z"/>
	</g>
</g>
<g>
	<g>
		<path d="M60.796,90.396C22.885,135.039,0,192.844,0,256.001s22.885,120.962,60.796,165.605
			c43.332-44.602,67.191-103.369,67.191-165.605S104.128,135.001,60.796,90.396z"/>
	</g>
</g>
<g>
</g>
<g>
</g>
<g>
</g>
<g>
</g>
<g>
</g>
<g>
</g>
<g>
</g>
<g>
</g>
<g>
</g>
<g>
</g>
<g>
</g>
<g>
</g>
<g>
</g>
<g>
</g>
<g>
</g>
</svg>
