<?xml version="1.0" encoding="iso-8859-1"?>
<!-- Generator: Adobe Illustrator 19.0.0, SVG Export Plug-In . SVG Version: 6.00 Build 0)  -->
<svg version="1.1" id="Layer_1" xmlns="http://www.w3.org/2000/svg" xmlns:xlink="http://www.w3.org/1999/xlink" x="0px" y="0px"
	 viewBox="0 0 512 512" style="enable-background:new 0 0 512 512;" xml:space="preserve">
<g>
	<g>
		<path d="M0,0v146.286c0,23.947,19.482,43.429,43.429,43.429s43.429-19.482,43.429-43.429h54.857
			c0,23.947,19.482,43.429,43.429,43.429c23.947,0,43.429-19.482,43.429-43.429h54.857c0,23.947,19.482,43.429,43.429,43.429
			s43.429-19.482,43.429-43.429h54.857c0,23.947,19.482,43.429,43.429,43.429c23.947,0,43.429-19.482,43.429-43.429V0H0z"/>
	</g>
</g>
<g>
	<g>
		<path d="M468.571,244.571c-27.813,0-52.961-11.61-70.857-30.239c-17.896,18.63-43.045,30.239-70.857,30.239
			c-27.813,0-52.961-11.61-70.857-30.239c-17.896,18.63-43.045,30.239-70.857,30.239c-27.813,0-52.961-11.61-70.857-30.239
			c-17.896,18.63-43.045,30.239-70.857,30.239c-15.585,0-30.323-3.663-43.429-10.145V512h182.857V365.714h146.286V512H512V234.427
			C498.895,240.909,484.155,244.571,468.571,244.571z"/>
	</g>
</g>
<g>
</g>
<g>
</g>
<g>
</g>
<g>
</g>
<g>
</g>
<g>
</g>
<g>
</g>
<g>
</g>
<g>
</g>
<g>
</g>
<g>
</g>
<g>
</g>
<g>
</g>
<g>
</g>
<g>
</g>
</svg>
