<?xml version="1.0" encoding="iso-8859-1"?>
<!-- Generator: Adobe Illustrator 19.0.0, SVG Export Plug-In . SVG Version: 6.00 Build 0)  -->
<svg version="1.1" id="Layer_1" xmlns="http://www.w3.org/2000/svg" xmlns:xlink="http://www.w3.org/1999/xlink" x="0px" y="0px"
	 viewBox="0 0 512 512" style="enable-background:new 0 0 512 512;" xml:space="preserve">
<g>
	<g>
		<path d="M135.529,0v512h240.941V0H135.529z M256,436.706c-24.91,0-45.176-20.266-45.176-45.176S231.09,346.353,256,346.353
			s45.176,20.266,45.176,45.176S280.91,436.706,256,436.706z M256,301.176c-24.91,0-45.176-20.266-45.176-45.176
			S231.09,210.824,256,210.824S301.176,231.09,301.176,256S280.91,301.176,256,301.176z M256,165.647
			c-24.91,0-45.176-20.266-45.176-45.176c0-24.91,20.266-45.176,45.176-45.176s45.176,20.266,45.176,45.176
			C301.176,145.381,280.91,165.647,256,165.647z"/>
	</g>
</g>
<g>
</g>
<g>
</g>
<g>
</g>
<g>
</g>
<g>
</g>
<g>
</g>
<g>
</g>
<g>
</g>
<g>
</g>
<g>
</g>
<g>
</g>
<g>
</g>
<g>
</g>
<g>
</g>
<g>
</g>
</svg>
