<?xml version="1.0" encoding="iso-8859-1"?>
<!-- Generator: Adobe Illustrator 19.0.0, SVG Export Plug-In . SVG Version: 6.00 Build 0)  -->
<svg version="1.1" id="Layer_1" xmlns="http://www.w3.org/2000/svg" xmlns:xlink="http://www.w3.org/1999/xlink" x="0px" y="0px"
	 viewBox="0 0 512.002 512.002" style="enable-background:new 0 0 512.002 512.002;" xml:space="preserve">
<g>
	<g>
		<path d="M466.09,130.082c0,46.412-37.759,84.171-84.171,84.171c-46.412,0-84.171-37.759-84.171-84.171
			s37.759-84.171,84.171-84.171V0c-71.727,0-130.082,58.355-130.082,130.082c0,19.091,4.169,37.217,11.588,53.566L12.903,434.171
			l0.545-0.545c-17.93,17.93-17.93,46.999,0,64.928c17.93,17.93,46.999,17.93,64.928,0l249.978-249.978
			c16.349,7.419,34.473,11.588,53.566,11.588c71.727,0,130.082-58.355,130.082-130.082H466.09z"/>
	</g>
</g>
<g>
</g>
<g>
</g>
<g>
</g>
<g>
</g>
<g>
</g>
<g>
</g>
<g>
</g>
<g>
</g>
<g>
</g>
<g>
</g>
<g>
</g>
<g>
</g>
<g>
</g>
<g>
</g>
<g>
</g>
</svg>
