<?xml version="1.0" encoding="iso-8859-1"?>
<!-- Generator: Adobe Illustrator 19.0.0, SVG Export Plug-In . SVG Version: 6.00 Build 0)  -->
<svg version="1.1" id="Layer_1" xmlns="http://www.w3.org/2000/svg" xmlns:xlink="http://www.w3.org/1999/xlink" x="0px" y="0px"
	 viewBox="0 0 512.001 512.001" style="enable-background:new 0 0 512.001 512.001;" xml:space="preserve">
<g>
	<g>
		<path d="M7.627,318.197c0.801,3.211,1.659,6.4,2.58,9.563L7.627,318.197z"/>
	</g>
</g>
<g>
	<g>
		<path d="M501.795,184.247l2.58,9.563C503.572,190.598,502.717,187.409,501.795,184.247z"/>
	</g>
</g>
<g>
	<g>
		<path d="M317.332,7.413l9.569,2.545C323.738,9.048,320.547,8.203,317.332,7.413z"/>
	</g>
</g>
<g>
	<g>
		<path d="M508.916,216.169l-134.151,36.197c-0.58-19.125-5.663-37.133-14.276-52.966L494.647,163.2
			C468.568,96.18,415.081,42.879,347.97,17.032l-35.73,134.283c-15.865-8.558-33.889-13.579-53.016-14.091L294.953,2.948
			C282.107,0.988,268.95-0.023,255.554,0C114.169,0.247-0.245,115.061,0,256.447c0.024,13.396,1.081,26.549,3.085,39.386
			l134.149-36.197c0.58,19.125,5.663,37.131,14.276,52.966L17.355,348.8c26.079,67.021,79.567,120.322,146.677,146.169
			l35.73-134.283c15.865,8.558,33.889,13.579,53.016,14.091L217.05,509.053c12.844,1.962,26,2.971,39.397,2.948
			C397.832,511.754,512.247,396.939,512,255.554C511.977,242.158,510.92,229.005,508.916,216.169z M256.095,310.858
			c-30.248,0.053-54.899-24.514-54.952-54.762c-0.053-30.248,24.514-54.899,54.762-54.952c30.248-0.053,54.899,24.514,54.952,54.762
			S286.344,310.804,256.095,310.858z"/>
	</g>
</g>
<g>
	<g>
		<path d="M185.099,502.042c3.163,0.911,6.354,1.755,9.569,2.545L185.099,502.042z"/>
	</g>
</g>
<g>
</g>
<g>
</g>
<g>
</g>
<g>
</g>
<g>
</g>
<g>
</g>
<g>
</g>
<g>
</g>
<g>
</g>
<g>
</g>
<g>
</g>
<g>
</g>
<g>
</g>
<g>
</g>
<g>
</g>
</svg>
