<?xml version="1.0" encoding="iso-8859-1"?>
<!-- Generator: Adobe Illustrator 19.0.0, SVG Export Plug-In . SVG Version: 6.00 Build 0)  -->
<svg version="1.1" id="Layer_1" xmlns="http://www.w3.org/2000/svg" xmlns:xlink="http://www.w3.org/1999/xlink" x="0px" y="0px"
	 viewBox="0 0 512.001 512.001" style="enable-background:new 0 0 512.001 512.001;" xml:space="preserve">
<g>
	<g>
		<path d="M473.308,109.626v0.001c0,39.113-31.821,70.935-70.935,70.935s-70.935-31.821-70.935-70.935s31.821-70.935,70.935-70.935
			V0.001c-60.448,0-109.627,49.178-109.627,109.627c0,15.67,3.329,30.57,9.278,44.066L153.693,302.026
			c-13.496-5.95-28.396-9.278-44.066-9.278C49.178,292.747,0,341.926,0,402.374h38.692c0-39.113,31.821-70.935,70.935-70.935
			s70.935,31.821,70.935,70.935s-31.821,70.935-70.935,70.935v38.692c60.448,0,109.627-49.179,109.627-109.627
			c0-15.67-3.329-30.57-9.278-44.066l148.334-148.334c13.496,5.95,28.396,9.278,44.066,9.278
			c60.448,0,109.627-49.178,109.627-109.627H473.308z"/>
	</g>
</g>
<g>
</g>
<g>
</g>
<g>
</g>
<g>
</g>
<g>
</g>
<g>
</g>
<g>
</g>
<g>
</g>
<g>
</g>
<g>
</g>
<g>
</g>
<g>
</g>
<g>
</g>
<g>
</g>
<g>
</g>
</svg>
