<?xml version="1.0" encoding="iso-8859-1"?>
<!-- Generator: Adobe Illustrator 19.0.0, SVG Export Plug-In . SVG Version: 6.00 Build 0)  -->
<svg version="1.1" id="Layer_1" xmlns="http://www.w3.org/2000/svg" xmlns:xlink="http://www.w3.org/1999/xlink" x="0px" y="0px"
	 viewBox="0 0 512 512" style="enable-background:new 0 0 512 512;" xml:space="preserve">
<g>
	<g>
		<path d="M0,0v512h512V0H0z M256,100.571c20.165,0,36.571,16.406,36.571,36.571c0,20.165-16.406,36.571-36.571,36.571
			s-36.571-16.406-36.571-36.571C219.429,116.977,235.835,100.571,256,100.571z M256,411.429c-20.165,0-36.571-16.406-36.571-36.571
			c0-20.165,16.406-36.571,36.571-36.571s36.571,16.406,36.571,36.571C292.571,395.023,276.165,411.429,256,411.429z M384,283.429
			H128v-54.857h256V283.429z"/>
	</g>
</g>
<g>
</g>
<g>
</g>
<g>
</g>
<g>
</g>
<g>
</g>
<g>
</g>
<g>
</g>
<g>
</g>
<g>
</g>
<g>
</g>
<g>
</g>
<g>
</g>
<g>
</g>
<g>
</g>
<g>
</g>
</svg>
