<?xml version="1.0" encoding="iso-8859-1"?>
<!-- Generator: Adobe Illustrator 19.0.0, SVG Export Plug-In . SVG Version: 6.00 Build 0)  -->
<svg version="1.1" id="Layer_1" xmlns="http://www.w3.org/2000/svg" xmlns:xlink="http://www.w3.org/1999/xlink" x="0px" y="0px"
	 viewBox="0 0 512 512" style="enable-background:new 0 0 512 512;" xml:space="preserve">
<g>
	<g>
		<path d="M276.368,57.806c7.392-5.964,12.14-15.082,12.14-25.298C288.508,14.583,273.925,0,256,0s-32.508,14.583-32.508,32.508
			c0,10.216,4.748,19.334,12.14,25.298C119.501,68.111,28.444,165.636,28.444,284.444C28.444,410.12,130.324,512,256,512
			s227.556-101.88,227.556-227.556C483.556,165.636,392.499,68.111,276.368,57.806z M304.762,284.444
			c0,26.887-21.875,48.762-48.762,48.762c-4.506,0-8.867-0.627-13.011-1.777l-101.922,67.948l67.948-101.922
			c-1.149-4.145-1.777-8.506-1.777-13.011c0-26.887,21.875-48.762,48.762-48.762c4.506,0,8.867,0.627,13.011,1.777l101.922-67.948
			l-67.948,101.922C304.135,275.578,304.762,279.939,304.762,284.444z"/>
	</g>
</g>
<g>
</g>
<g>
</g>
<g>
</g>
<g>
</g>
<g>
</g>
<g>
</g>
<g>
</g>
<g>
</g>
<g>
</g>
<g>
</g>
<g>
</g>
<g>
</g>
<g>
</g>
<g>
</g>
<g>
</g>
</svg>
