<?xml version="1.0" encoding="iso-8859-1"?>
<!-- Generator: Adobe Illustrator 19.0.0, SVG Export Plug-In . SVG Version: 6.00 Build 0)  -->
<svg version="1.1" id="Layer_1" xmlns="http://www.w3.org/2000/svg" xmlns:xlink="http://www.w3.org/1999/xlink" x="0px" y="0px"
	 viewBox="0 0 512 512" style="enable-background:new 0 0 512 512;" xml:space="preserve">
<g>
	<g>
		<path d="M343.771,263.314v-87.771H168.229v87.771H80.457v175.543h351.086V263.314H343.771z M256,373.029
			c-24.199,0-43.886-19.687-43.886-43.886c0-24.199,19.687-43.886,43.886-43.886s43.886,19.687,43.886,43.886
			C299.886,353.341,280.199,373.029,256,373.029z"/>
	</g>
</g>
<g>
	<g>
		<path d="M387.657,73.143H124.343C55.78,73.143,0,128.923,0,197.486v21.943h117.029v-21.943c0-36.298,29.531-65.829,65.829-65.829
			h146.286c36.298,0,65.829,29.531,65.829,65.829v21.943H512v-21.943C512,128.923,456.22,73.143,387.657,73.143z"/>
	</g>
</g>
<g>
</g>
<g>
</g>
<g>
</g>
<g>
</g>
<g>
</g>
<g>
</g>
<g>
</g>
<g>
</g>
<g>
</g>
<g>
</g>
<g>
</g>
<g>
</g>
<g>
</g>
<g>
</g>
<g>
</g>
</svg>
