<?xml version="1.0" encoding="iso-8859-1"?>
<!-- Generator: Adobe Illustrator 19.0.0, SVG Export Plug-In . SVG Version: 6.00 Build 0)  -->
<svg version="1.1" id="Layer_1" xmlns="http://www.w3.org/2000/svg" xmlns:xlink="http://www.w3.org/1999/xlink" x="0px" y="0px"
	 viewBox="0 0 512 512" style="enable-background:new 0 0 512 512;" xml:space="preserve">
<g>
	<g>
		<path d="M0,27.429v347.429h146.286L256,484.571l109.714-109.714H512V27.429H0z M128,237.714
			c-20.165,0-36.571-16.406-36.571-36.571c0-20.166,16.406-36.571,36.571-36.571s36.571,16.406,36.571,36.571
			C164.571,221.308,148.165,237.714,128,237.714z M256,237.714c-20.165,0-36.571-16.406-36.571-36.571
			c0-20.166,16.406-36.571,36.571-36.571s36.571,16.406,36.571,36.571C292.571,221.308,276.165,237.714,256,237.714z M384,237.714
			c-20.165,0-36.571-16.406-36.571-36.571c0-20.166,16.406-36.571,36.571-36.571s36.571,16.406,36.571,36.571
			C420.571,221.308,404.165,237.714,384,237.714z"/>
	</g>
</g>
<g>
</g>
<g>
</g>
<g>
</g>
<g>
</g>
<g>
</g>
<g>
</g>
<g>
</g>
<g>
</g>
<g>
</g>
<g>
</g>
<g>
</g>
<g>
</g>
<g>
</g>
<g>
</g>
<g>
</g>
</svg>
