<?xml version="1.0" encoding="iso-8859-1"?>
<!-- Generator: Adobe Illustrator 19.0.0, SVG Export Plug-In . SVG Version: 6.00 Build 0)  -->
<svg version="1.1" id="Layer_1" xmlns="http://www.w3.org/2000/svg" xmlns:xlink="http://www.w3.org/1999/xlink" x="0px" y="0px"
	 viewBox="0 0 512 512" style="enable-background:new 0 0 512 512;" xml:space="preserve">
<g>
	<g>
		<polygon points="423.724,52.966 423.724,0 370.759,0 370.759,52.966 282.483,52.966 282.483,0 229.517,0 229.517,52.966 
			141.241,52.966 141.241,0 88.276,0 88.276,52.966 8.828,52.966 8.828,158.897 503.172,158.897 503.172,52.966 		"/>
	</g>
</g>
<g>
	<g>
		<path d="M8.828,194.207V512h494.345V194.207H8.828z M176.552,432.552h-52.966v-52.966h52.966V432.552z M176.552,326.621h-52.966
			v-52.966h52.966V326.621z M282.483,432.552h-52.966v-52.966h52.966V432.552z M282.483,326.621h-52.966v-52.966h52.966V326.621z
			 M388.414,432.552h-52.966v-52.966h52.966V432.552z M388.414,326.621h-52.966v-52.966h52.966V326.621z"/>
	</g>
</g>
<g>
</g>
<g>
</g>
<g>
</g>
<g>
</g>
<g>
</g>
<g>
</g>
<g>
</g>
<g>
</g>
<g>
</g>
<g>
</g>
<g>
</g>
<g>
</g>
<g>
</g>
<g>
</g>
<g>
</g>
</svg>
