<?xml version="1.0" encoding="iso-8859-1"?>
<!-- Generator: Adobe Illustrator 19.0.0, SVG Export Plug-In . SVG Version: 6.00 Build 0)  -->
<svg version="1.1" id="Layer_1" xmlns="http://www.w3.org/2000/svg" xmlns:xlink="http://www.w3.org/1999/xlink" x="0px" y="0px"
	 viewBox="0 0 512.003 512.003" style="enable-background:new 0 0 512.003 512.003;" xml:space="preserve">
<g>
	<g>
		<path d="M512.003,255.863h-0.005c0.136-28.195-10.678-54.696-30.482-74.648c-20.073-20.223-46.943-31.361-75.658-31.361h-31.406
			c-25.017,0-48.537,9.742-66.227,27.432l-59.983,59.983H106.145v37.464h104.633l-33.493,33.493
			c-10.615,10.613-24.726,16.459-39.737,16.459h-31.403c-18.442,0-35.754-7.209-48.748-20.299
			c-12.982-13.08-20.061-30.434-19.933-48.873v-0.102c0.15-18.036,7.203-34.97,19.933-47.794
			c12.994-13.09,30.306-20.299,48.748-20.299h31.403c13.015,0,25.351,4.401,35.321,12.488h53.426l-22.52-22.52
			c-17.69-17.69-41.21-27.432-66.227-27.432h-31.403c-28.503,0-55.258,11.141-75.337,31.371
			c-19.7,19.846-30.577,46.064-30.78,73.975H0c-0.003,0.268,0.014,0.533,0.014,0.802c0,0.268-0.015,0.533-0.014,0.802h0.027
			c0.204,27.911,11.081,54.129,30.78,73.975c20.079,20.229,46.835,31.371,75.337,31.371h31.403c25.017,0,48.538-9.742,66.227-27.432
			l59.983-59.983h142.097v-37.464H301.224l33.493-33.493c10.613-10.614,24.726-16.459,39.737-16.459h31.405
			c18.656,0,36.083,7.206,49.069,20.289c12.783,12.878,19.748,30.015,19.612,48.256l-0.001,0.277
			c0.135,18.241-6.83,35.378-19.612,48.256c-12.986,13.084-30.413,20.289-49.069,20.289h-31.405
			c-13.015,0-25.351-4.401-35.32-12.488h-53.426l22.52,22.52c17.69,17.69,41.209,27.432,66.227,27.432h31.405
			c28.715,0,55.585-11.138,75.658-31.361c19.803-19.952,30.618-46.453,30.482-74.648h0.005c0-0.046-0.003-0.092-0.003-0.139
			C512,255.955,512.003,255.909,512.003,255.863z"/>
	</g>
</g>
<g>
</g>
<g>
</g>
<g>
</g>
<g>
</g>
<g>
</g>
<g>
</g>
<g>
</g>
<g>
</g>
<g>
</g>
<g>
</g>
<g>
</g>
<g>
</g>
<g>
</g>
<g>
</g>
<g>
</g>
</svg>
