<?xml version="1.0" encoding="iso-8859-1"?>
<!-- Generator: Adobe Illustrator 19.0.0, SVG Export Plug-In . SVG Version: 6.00 Build 0)  -->
<svg version="1.1" id="Layer_1" xmlns="http://www.w3.org/2000/svg" xmlns:xlink="http://www.w3.org/1999/xlink" x="0px" y="0px"
	 viewBox="0 0 512 512" style="enable-background:new 0 0 512 512;" xml:space="preserve">
<g>
	<g>
		<path d="M407.834,136.533c6.567-12.812,10.3-27.307,10.3-42.667C418.133,42.109,376.025,0,324.267,0
			C297.387,0,273.128,11.375,256,29.542C238.872,11.375,214.613,0,187.733,0c-51.758,0-93.867,42.109-93.867,93.867
			c0,15.36,3.732,29.855,10.3,42.667H0v85.333h512v-85.333H407.834z M230.4,136.533h-42.667c-23.526,0-42.667-19.14-42.667-42.667
			c0-23.526,19.14-42.667,42.667-42.667S230.4,70.34,230.4,93.867V136.533z M324.267,136.533H281.6V93.867
			c0-23.526,19.14-42.667,42.667-42.667c23.526,0,42.667,19.14,42.667,42.667C366.933,117.393,347.793,136.533,324.267,136.533z"/>
	</g>
</g>
<g>
	<g>
		<rect x="51.2" y="256" width="179.2" height="256"/>
	</g>
</g>
<g>
	<g>
		<rect x="281.6" y="256" width="179.2" height="256"/>
	</g>
</g>
<g>
</g>
<g>
</g>
<g>
</g>
<g>
</g>
<g>
</g>
<g>
</g>
<g>
</g>
<g>
</g>
<g>
</g>
<g>
</g>
<g>
</g>
<g>
</g>
<g>
</g>
<g>
</g>
<g>
</g>
</svg>
