<?xml version="1.0" encoding="iso-8859-1"?>
<!-- Generator: Adobe Illustrator 19.0.0, SVG Export Plug-In . SVG Version: 6.00 Build 0)  -->
<svg version="1.1" id="Layer_1" xmlns="http://www.w3.org/2000/svg" xmlns:xlink="http://www.w3.org/1999/xlink" x="0px" y="0px"
	 viewBox="0 0 512 512" style="enable-background:new 0 0 512 512;" xml:space="preserve">
<g>
	<g>
		<path d="M68.267,0v512h375.467V0H68.267z M298.667,290.133c-6.224,0-12.042-1.693-17.067-4.603v55.803h-51.2V285.53
			c-5.024,2.912-10.842,4.603-17.067,4.603c-18.852,0-34.133-15.281-34.133-34.133c0-18.852,15.281-34.133,34.133-34.133
			c5.685,0,11.032,1.41,15.746,3.867c-4.504-5.784-7.212-13.036-7.212-20.934c0-18.852,15.281-34.133,34.133-34.133
			s34.133,15.281,34.133,34.133c0,7.898-2.708,15.15-7.212,20.934c4.714-2.458,10.063-3.867,15.746-3.867
			c18.852,0,34.133,15.281,34.133,34.133S317.518,290.133,298.667,290.133z"/>
	</g>
</g>
<g>
</g>
<g>
</g>
<g>
</g>
<g>
</g>
<g>
</g>
<g>
</g>
<g>
</g>
<g>
</g>
<g>
</g>
<g>
</g>
<g>
</g>
<g>
</g>
<g>
</g>
<g>
</g>
<g>
</g>
</svg>
