<?xml version="1.0" encoding="iso-8859-1"?>
<!-- Generator: Adobe Illustrator 19.0.0, SVG Export Plug-In . SVG Version: 6.00 Build 0)  -->
<svg version="1.1" id="Layer_1" xmlns="http://www.w3.org/2000/svg" xmlns:xlink="http://www.w3.org/1999/xlink" x="0px" y="0px"
	 viewBox="0 0 512 512" style="enable-background:new 0 0 512 512;" xml:space="preserve">
<g>
	<g>
		<rect x="88.131" y="461.639" width="419.672" height="50.361"/>
	</g>
</g>
<g>
	<g>
		<rect x="222.426" width="50.361" height="100.721"/>
	</g>
</g>
<g>
	<g>
		<rect x="323.148" width="50.361" height="100.721"/>
	</g>
</g>
<g>
	<g>
		<path d="M96.525,159.475c-50.91,0-92.328,41.418-92.328,92.328c0,50.91,41.418,92.328,92.328,92.328h46.664
			c32.948,50.529,89.959,83.934,154.778,83.934c101.982,0,184.656-82.674,184.656-184.656v-83.934H96.525z M96.525,293.771
			c-23.141,0-41.967-18.826-41.967-41.967s18.826-41.967,41.967-41.967h16.787v33.574c0,17.46,2.426,34.351,6.953,50.361H96.525z"/>
	</g>
</g>
<g>
</g>
<g>
</g>
<g>
</g>
<g>
</g>
<g>
</g>
<g>
</g>
<g>
</g>
<g>
</g>
<g>
</g>
<g>
</g>
<g>
</g>
<g>
</g>
<g>
</g>
<g>
</g>
<g>
</g>
</svg>
