<?xml version="1.0" encoding="iso-8859-1"?>
<!-- Generator: Adobe Illustrator 19.0.0, SVG Export Plug-In . SVG Version: 6.00 Build 0)  -->
<svg version="1.1" id="Layer_1" xmlns="http://www.w3.org/2000/svg" xmlns:xlink="http://www.w3.org/1999/xlink" x="0px" y="0px"
	 viewBox="0 0 512 512" style="enable-background:new 0 0 512 512;" xml:space="preserve">
<g>
	<g>
		<path d="M0,0v512h512V0H0z M274.286,338.286c-17.781,0-34.487-4.657-48.995-12.787l-59.611,59.61l-38.789-38.789l59.61-59.611
			c-8.128-14.506-12.785-31.212-12.785-48.993c0-55.455,45.116-100.571,100.571-100.571s100.571,45.116,100.571,100.571
			S329.741,338.286,274.286,338.286z"/>
	</g>
</g>
<g>
	<g>
		<path d="M274.286,192c-25.207,0-45.714,20.507-45.714,45.714s20.507,45.714,45.714,45.714S320,262.921,320,237.714
			S299.493,192,274.286,192z"/>
	</g>
</g>
<g>
</g>
<g>
</g>
<g>
</g>
<g>
</g>
<g>
</g>
<g>
</g>
<g>
</g>
<g>
</g>
<g>
</g>
<g>
</g>
<g>
</g>
<g>
</g>
<g>
</g>
<g>
</g>
<g>
</g>
</svg>
