<?xml version="1.0" encoding="iso-8859-1"?>
<!-- Generator: Adobe Illustrator 19.0.0, SVG Export Plug-In . SVG Version: 6.00 Build 0)  -->
<svg version="1.1" id="Layer_1" xmlns="http://www.w3.org/2000/svg" xmlns:xlink="http://www.w3.org/1999/xlink" x="0px" y="0px"
	 viewBox="0 0 512 512" style="enable-background:new 0 0 512 512;" xml:space="preserve">
<g>
	<g>
		<polygon points="153.6,69.486 153.6,274.286 438.857,274.286 512,98.743 512,69.486 		"/>
	</g>
</g>
<g>
	<g>
		<path d="M168.229,384c-16.132,0-29.257,13.125-29.257,29.257s13.125,29.257,29.257,29.257s29.257-13.125,29.257-29.257
			S184.361,384,168.229,384z"/>
	</g>
</g>
<g>
	<g>
		<path d="M387.657,384c-16.132,0-29.257,13.125-29.257,29.257s13.125,29.257,29.257,29.257s29.257-13.125,29.257-29.257
			S403.79,384,387.657,384z"/>
	</g>
</g>
<g>
	<g>
		<path d="M146.286,340.114c-12.099,0-21.943-9.844-21.943-21.943V69.486H0v43.886h80.457v204.8
			c0,36.298,29.531,65.829,65.829,65.829h307.2v-43.886H146.286z"/>
	</g>
</g>
<g>
</g>
<g>
</g>
<g>
</g>
<g>
</g>
<g>
</g>
<g>
</g>
<g>
</g>
<g>
</g>
<g>
</g>
<g>
</g>
<g>
</g>
<g>
</g>
<g>
</g>
<g>
</g>
<g>
</g>
</svg>
