<?xml version="1.0" encoding="iso-8859-1"?>
<!-- Generator: Adobe Illustrator 19.0.0, SVG Export Plug-In . SVG Version: 6.00 Build 0)  -->
<svg version="1.1" id="Layer_1" xmlns="http://www.w3.org/2000/svg" xmlns:xlink="http://www.w3.org/1999/xlink" x="0px" y="0px"
	 viewBox="0 0 512 512" style="enable-background:new 0 0 512 512;" xml:space="preserve">
<g>
	<g>
		<path d="M0,27.429v347.429h146.286L256,484.571l109.714-109.714H512V27.429H0z M192,310.857
			c-20.165,0-36.571-16.406-36.571-36.571s16.406-36.571,36.571-36.571s36.571,16.406,36.571,36.571S212.165,310.857,192,310.857z
			 M192,182.857c-20.165,0-36.571-16.406-36.571-36.571s16.406-36.571,36.571-36.571s36.571,16.406,36.571,36.571
			S212.165,182.857,192,182.857z M309.466,346.136l-43.061-33.986c23.1-29.268,35.31-64.49,35.31-101.864
			s-12.209-72.598-35.31-101.864l43.061-33.988c30.817,39.045,47.106,86.021,47.106,135.852
			C356.571,260.116,340.283,307.092,309.466,346.136z"/>
	</g>
</g>
<g>
</g>
<g>
</g>
<g>
</g>
<g>
</g>
<g>
</g>
<g>
</g>
<g>
</g>
<g>
</g>
<g>
</g>
<g>
</g>
<g>
</g>
<g>
</g>
<g>
</g>
<g>
</g>
<g>
</g>
</svg>
