<?xml version="1.0" encoding="iso-8859-1"?>
<!-- Generator: Adobe Illustrator 19.0.0, SVG Export Plug-In . SVG Version: 6.00 Build 0)  -->
<svg version="1.1" id="Layer_1" xmlns="http://www.w3.org/2000/svg" xmlns:xlink="http://www.w3.org/1999/xlink" x="0px" y="0px"
	 viewBox="0 0 512 512" style="enable-background:new 0 0 512 512;" xml:space="preserve">
<g>
	<g>
		<path d="M277.333,169.296V64h-42.667v105.296c-12.74,7.388-21.333,21.168-21.333,36.927c0,23.526,19.14,42.667,42.667,42.667
			s42.667-19.14,42.667-42.667C298.667,190.464,290.074,176.684,277.333,169.296z"/>
	</g>
</g>
<g>
	<g>
		<path d="M323.796,184.889c2.162,6.821,3.315,14.006,3.315,21.333c0,39.211-31.9,71.111-71.111,71.111s-71.111-31.9-71.111-71.111
			c0-7.327,1.153-14.512,3.315-21.333H0v42.667h42.667v177.778c0,23.565,19.102,42.667,42.667,42.667h341.333
			c23.563,0,42.667-19.102,42.667-42.667V227.556H512v-42.667H323.796z M199.111,405.333h-42.667v-99.556h42.667V405.333z
			 M341.333,405.333h-42.667v-99.556h42.667V405.333z"/>
	</g>
</g>
<g>
</g>
<g>
</g>
<g>
</g>
<g>
</g>
<g>
</g>
<g>
</g>
<g>
</g>
<g>
</g>
<g>
</g>
<g>
</g>
<g>
</g>
<g>
</g>
<g>
</g>
<g>
</g>
<g>
</g>
</svg>
