<?xml version="1.0" encoding="iso-8859-1"?>
<!-- Generator: Adobe Illustrator 19.0.0, SVG Export Plug-In . SVG Version: 6.00 Build 0)  -->
<svg version="1.1" id="Layer_1" xmlns="http://www.w3.org/2000/svg" xmlns:xlink="http://www.w3.org/1999/xlink" x="0px" y="0px"
	 viewBox="0 0 512 512" style="enable-background:new 0 0 512 512;" xml:space="preserve">
<g>
	<g>
		<path d="M256,187.733c-18.821,0-34.133,15.312-34.133,34.133C221.867,240.688,237.179,256,256,256s34.133-15.312,34.133-34.133
			C290.133,203.046,274.821,187.733,256,187.733z"/>
	</g>
</g>
<g>
	<g>
		<path d="M51.2,0v512h409.6V0H51.2z M256,358.4c-21.424,0-41.689-4.946-59.733-13.74v90.54h-51.2V301.413
			c-16.094-22.403-25.6-49.857-25.6-79.546c0-75.406,61.128-136.533,136.533-136.533s136.533,61.128,136.533,136.533
			S331.406,358.4,256,358.4z"/>
	</g>
</g>
<g>
</g>
<g>
</g>
<g>
</g>
<g>
</g>
<g>
</g>
<g>
</g>
<g>
</g>
<g>
</g>
<g>
</g>
<g>
</g>
<g>
</g>
<g>
</g>
<g>
</g>
<g>
</g>
<g>
</g>
</svg>
