<?xml version="1.0" encoding="iso-8859-1"?>
<!-- Generator: Adobe Illustrator 19.0.0, SVG Export Plug-In . SVG Version: 6.00 Build 0)  -->
<svg version="1.1" id="Layer_1" xmlns="http://www.w3.org/2000/svg" xmlns:xlink="http://www.w3.org/1999/xlink" x="0px" y="0px"
	 viewBox="0 0 512 512" style="enable-background:new 0 0 512 512;" xml:space="preserve">
<g>
	<g>
		<path d="M97.103,313.915C43.561,313.915,0,357.476,0,411.019c0,53.543,43.561,97.103,97.103,97.103s97.103-43.561,97.103-97.103
			C194.207,357.476,150.646,313.915,97.103,313.915z M97.103,455.156c-24.338,0-44.138-19.8-44.138-44.138
			s19.8-44.138,44.138-44.138s44.138,19.8,44.138,44.138C141.241,435.356,121.441,455.156,97.103,455.156z"/>
	</g>
</g>
<g>
	<g>
		<path d="M414.897,313.915c-53.543,0-97.103,43.561-97.103,97.103c0,53.543,43.561,97.103,97.103,97.103S512,464.561,512,411.019
			C512,357.476,468.439,313.915,414.897,313.915z M414.897,455.156c-24.338,0-44.138-19.8-44.138-44.138s19.8-44.138,44.138-44.138
			s44.138,19.8,44.138,44.138C459.034,435.356,439.234,455.156,414.897,455.156z"/>
	</g>
</g>
<g>
	<g>
		<path d="M449.135,3.878L256,197.015L62.863,3.88c-30.434,30.436-30.434,79.78,0,110.216l138.028,138.028l-41.889,41.889
			c15.87,8.43,29.827,19.987,41.048,33.856L256,271.919l55.949,55.949c11.222-13.868,25.178-25.425,41.048-33.856l-41.89-41.89
			l138.028-138.028C479.571,83.658,479.571,34.314,449.135,3.878z"/>
	</g>
</g>
<g>
</g>
<g>
</g>
<g>
</g>
<g>
</g>
<g>
</g>
<g>
</g>
<g>
</g>
<g>
</g>
<g>
</g>
<g>
</g>
<g>
</g>
<g>
</g>
<g>
</g>
<g>
</g>
<g>
</g>
</svg>
