<?xml version="1.0" encoding="iso-8859-1"?>
<!-- Generator: Adobe Illustrator 19.1.0, SVG Export Plug-In . SVG Version: 6.00 Build 0)  -->
<svg version="1.1" id="Capa_1" xmlns="http://www.w3.org/2000/svg" xmlns:xlink="http://www.w3.org/1999/xlink" x="0px" y="0px"
	 viewBox="0 0 476.208 476.208" style="enable-background:new 0 0 476.208 476.208;" xml:space="preserve">
<g>
	<path d="M238.107,465.604c27.922,0,52.019-16.353,63.254-40H174.853C186.088,449.252,210.185,465.604,238.107,465.604z"/>
	<path d="M425.607,325.605l-30-30v-80.367c0-76.725-54.865-140.625-127.5-154.634v-20c0-16.542-13.458-30-30-30s-30,13.458-30,30v20
		c-21.597,4.166-41.623,12.743-59.104,24.756l276.604,276.604V325.605z"/>
	<path d="M80.607,215.238v80.366l-30,30v40h-30v30h30h281.36L92.204,155.841C84.732,174.171,80.607,194.222,80.607,215.238z"/>
	<path d="M0,21.213L21.213,0l454.995,454.995l-21.213,21.213L0,21.213z"/>
</g>
<g>
</g>
<g>
</g>
<g>
</g>
<g>
</g>
<g>
</g>
<g>
</g>
<g>
</g>
<g>
</g>
<g>
</g>
<g>
</g>
<g>
</g>
<g>
</g>
<g>
</g>
<g>
</g>
<g>
</g>
</svg>
