<svg width="16" height="17" viewBox="0 0 16 17" fill="none" xmlns="http://www.w3.org/2000/svg">
<path fill-rule="evenodd" clip-rule="evenodd" d="M8 0C8.23488 0 8.45528 0.120515 8.59181 0.323587L15.8646 11.1418C16.0228 11.3773 16.0441 11.6871 15.9194 11.9445C15.7948 12.2019 15.5452 12.3636 15.2727 12.3636H11.6364V16.2273C11.6364 16.654 11.3107 17 10.9091 17H5.09091C4.68925 17 4.36363 16.654 4.36363 16.2273V12.3636H0.72727C0.454849 12.3636 0.205263 12.2019 0.0806086 11.9445C-0.0440459 11.6871 -0.0228824 11.3773 0.135474 11.1418L7.4082 0.323587C7.54471 0.120515 7.76513 0 8 0ZM2.14051 10.8182H5.09091C5.49256 10.8182 5.81818 11.1641 5.81818 11.5909V15.4545H10.1818V11.5909C10.1818 11.1641 10.5074 10.8182 10.9091 10.8182H13.8595L8 2.10217L2.14051 10.8182Z" fill="#222222"/>
</svg>
