<?xml version="1.0" encoding="iso-8859-1"?>
<!-- Generator: Adobe Illustrator 19.0.0, SVG Export Plug-In . SVG Version: 6.00 Build 0)  -->
<svg version="1.1" id="Layer_1" xmlns="http://www.w3.org/2000/svg" xmlns:xlink="http://www.w3.org/1999/xlink" x="0px" y="0px"
	 viewBox="0 0 512 512" style="enable-background:new 0 0 512 512;" xml:space="preserve">
<g>
	<g>
		<path d="M0,432.762v54.857c19.69,0,19.69,12.19,39.377,12.19c19.691,0,19.691-12.19,39.381-12.19
			c19.691,0,19.691,12.19,39.383,12.19c19.693,0,19.691-12.19,39.385-12.19s19.694,12.19,39.386,12.19
			c19.69,0,19.69-12.19,39.379-12.19c19.691,0,19.691,12.19,39.38,12.19c19.693,0,19.691-12.19,39.385-12.19
			s19.694,12.19,39.386,12.19c19.695,0,19.695-12.19,39.389-12.19c19.693,0,19.693,12.19,39.385,12.19
			c19.696,0,19.696-12.19,39.392-12.19c19.697,0,19.697,12.19,39.392,12.19v-67.048H0z"/>
	</g>
</g>
<g>
	<g>
		<path d="M268.19,103.619v36.571h85.333v36.571H268.19v36.571h85.333v36.571H268.19V256c0,13.466-10.915,24.381-24.381,24.381
			h-97.524c-65.282,0-118.577,51.316-121.752,115.81h463.086V103.619H268.19z"/>
	</g>
</g>
<g>
	<g>
		<rect x="268.19" y="12.19" width="219.429" height="54.857"/>
	</g>
</g>
<g>
</g>
<g>
</g>
<g>
</g>
<g>
</g>
<g>
</g>
<g>
</g>
<g>
</g>
<g>
</g>
<g>
</g>
<g>
</g>
<g>
</g>
<g>
</g>
<g>
</g>
<g>
</g>
<g>
</g>
</svg>
