<?xml version="1.0" encoding="iso-8859-1"?>
<!-- Generator: Adobe Illustrator 19.0.0, SVG Export Plug-In . SVG Version: 6.00 Build 0)  -->
<svg version="1.1" id="Layer_1" xmlns="http://www.w3.org/2000/svg" xmlns:xlink="http://www.w3.org/1999/xlink" x="0px" y="0px"
	 viewBox="0 0 395 395" style="enable-background:new 0 0 395 395;" xml:space="preserve">
<g>
	<polygon points="207.649,241.735 195.749,276.875 219.27,276.875 	"/>
	<path d="M114.83,292.556c3.266-1.492,5.996-3.57,8.189-6.23c2.192-2.66,3.872-5.786,5.04-9.38c1.166-3.592,1.75-7.536,1.75-11.83
		c0-4.386-0.584-8.376-1.75-11.97c-1.168-3.592-2.869-6.696-5.109-9.31c-2.24-2.612-4.994-4.62-8.26-6.02
		c-3.269-1.4-6.954-2.1-11.061-2.1H89.49v59.08h14.14C107.83,294.795,111.562,294.05,114.83,292.556z"/>
	<path d="M0,382.5h395v-235H0V382.5z M274.85,215.556l21.42,45.64l21.7-45.64h25.06l-35.42,65.52v33.88H284.79v-34.16l-34.86-65.24
		H274.85z M197.289,215.556h20.72l36.261,99.4h-23.52l-7.701-22.26h-30.939l-7.561,22.26h-23.52L197.289,215.556z M66.53,215.556
		h37.1c8.212,0,15.4,1.308,21.561,3.92c6.159,2.614,11.315,6.16,15.47,10.64c4.151,4.48,7.28,9.73,9.38,15.75
		s3.15,12.438,3.15,19.25c0,7.56-1.169,14.398-3.5,20.51c-2.335,6.114-5.671,11.34-10.011,15.68c-4.34,4.34-9.567,7.7-15.68,10.08
		c-6.114,2.38-12.904,3.57-20.37,3.57h-37.1V215.556z"/>
	<polygon points="278.333,52.5 278.333,12.5 248.333,12.5 248.333,52.5 146.667,52.5 146.667,12.5 116.667,12.5 116.667,52.5 
		0,52.5 0,117.5 395,117.5 395,52.5 	"/>
</g>
<g>
</g>
<g>
</g>
<g>
</g>
<g>
</g>
<g>
</g>
<g>
</g>
<g>
</g>
<g>
</g>
<g>
</g>
<g>
</g>
<g>
</g>
<g>
</g>
<g>
</g>
<g>
</g>
<g>
</g>
</svg>
