<?xml version="1.0" encoding="iso-8859-1"?>
<!-- Generator: Adobe Illustrator 19.0.0, SVG Export Plug-In . SVG Version: 6.00 Build 0)  -->
<svg version="1.1" id="Layer_1" xmlns="http://www.w3.org/2000/svg" xmlns:xlink="http://www.w3.org/1999/xlink" x="0px" y="0px"
	 viewBox="0 0 395 395" style="enable-background:new 0 0 395 395;" xml:space="preserve">
<g>
	<polygon points="278.333,52.5 278.333,12.5 248.333,12.5 248.333,52.5 146.667,52.5 146.667,12.5 116.667,12.5 116.667,52.5 
		0,52.5 0,117.5 395,117.5 395,52.5 	"/>
	<path d="M0,382.5h395v-235H0V382.5z M210.449,229.315c1.492,0,3.43-0.512,5.81-1.54c2.38-1.026,4.736-2.262,7.07-3.71
		c2.332-1.446,4.432-2.916,6.3-4.41c1.866-1.492,3.032-2.706,3.5-3.64h22.82v59.78h17.78v20.16h-60.48v-20.16h19.88v-35.7
		c-0.84,1.12-2.147,2.264-3.92,3.43c-1.774,1.168-3.758,2.24-5.95,3.22c-2.193,0.98-4.434,1.774-6.72,2.38
		c-2.288,0.608-4.318,0.91-6.09,0.91V229.315z M164.602,274.956c-3.128-2.146-8.05-3.22-14.77-3.22h-4.2v-16.1h4.62
		c5.226,0,9.31-1.072,12.25-3.22c2.94-2.146,4.41-4.992,4.41-8.54c0-3.08-1.074-5.412-3.22-7c-2.148-1.586-4.994-2.38-8.54-2.38
		c-3.828,0-7.304,0.91-10.43,2.73c-3.128,1.82-5.764,4.41-7.91,7.77l-14.14-16.24c1.492-1.96,3.452-3.78,5.88-5.46
		c2.426-1.68,5.18-3.102,8.26-4.27c3.08-1.166,6.392-2.076,9.94-2.73c3.546-0.652,7.186-0.98,10.92-0.98
		c4.946,0,9.472,0.584,13.58,1.75c4.106,1.168,7.606,2.848,10.5,5.04c2.892,2.194,5.132,4.808,6.72,7.84
		c1.586,3.034,2.38,6.418,2.38,10.15c0,2.8-0.444,5.46-1.33,7.98c-0.888,2.52-2.124,4.808-3.71,6.86
		c-1.588,2.054-3.478,3.758-5.67,5.11c-2.194,1.354-4.598,2.264-7.21,2.73c2.892,0.56,5.552,1.564,7.98,3.01
		c2.426,1.448,4.502,3.268,6.23,5.46c1.726,2.194,3.056,4.714,3.99,7.56c0.932,2.848,1.4,5.904,1.4,9.17
		c0,4.388-0.888,8.33-2.66,11.83c-1.774,3.5-4.318,6.486-7.63,8.96c-3.314,2.472-7.304,4.386-11.97,5.74
		c-4.668,1.352-9.894,2.03-15.68,2.03c-14.188,0-25.294-4.154-33.32-12.46l12.04-15.96c2.52,2.614,5.39,4.598,8.61,5.95
		c3.22,1.354,7.07,2.03,11.55,2.03c10.546,0,15.82-3.872,15.82-11.62C169.292,280.275,167.728,277.104,164.602,274.956z"/>
</g>
<g>
</g>
<g>
</g>
<g>
</g>
<g>
</g>
<g>
</g>
<g>
</g>
<g>
</g>
<g>
</g>
<g>
</g>
<g>
</g>
<g>
</g>
<g>
</g>
<g>
</g>
<g>
</g>
<g>
</g>
</svg>
