<?xml version="1.0" encoding="iso-8859-1"?>
<!-- Generator: Adobe Illustrator 19.0.0, SVG Export Plug-In . SVG Version: 6.00 Build 0)  -->
<svg version="1.1" id="Layer_1" xmlns="http://www.w3.org/2000/svg" xmlns:xlink="http://www.w3.org/1999/xlink" x="0px" y="0px"
	 viewBox="0 0 512 512" style="enable-background:new 0 0 512 512;" xml:space="preserve">
<g>
	<g>
		<path d="M396.19,298.667c0-87.524-70.952-158.476-158.476-158.476S79.238,211.143,79.238,298.667
			C35.477,298.667,0,334.143,0,377.905c0,43.761,35.477,79.238,79.238,79.238H396.19c43.761,0,79.238-35.477,79.238-79.238
			C475.429,334.143,439.952,298.667,396.19,298.667z"/>
	</g>
</g>
<g>
	<g>
		<path d="M451.048,176.762c0-67.326-54.579-121.905-121.905-121.905c-39.927,0-75.366,19.201-97.602,48.868
			c2.053-0.062,4.111-0.106,6.173-0.106c26.314,0,51.862,5.161,75.933,15.343c23.23,9.826,44.086,23.885,61.987,41.785
			c17.901,17.902,31.96,38.757,41.785,61.987c6.068,14.349,10.355,29.221,12.826,44.47c17.09,5.266,32.489,14.407,45.207,26.366
			c21.51-9.412,36.547-30.872,36.547-55.856C512,204.052,484.71,176.762,451.048,176.762z"/>
	</g>
</g>
<g>
</g>
<g>
</g>
<g>
</g>
<g>
</g>
<g>
</g>
<g>
</g>
<g>
</g>
<g>
</g>
<g>
</g>
<g>
</g>
<g>
</g>
<g>
</g>
<g>
</g>
<g>
</g>
<g>
</g>
</svg>
