<?xml version="1.0" encoding="iso-8859-1"?>
<!-- Generator: Adobe Illustrator 19.0.0, SVG Export Plug-In . SVG Version: 6.00 Build 0)  -->
<svg version="1.1" id="Layer_1" xmlns="http://www.w3.org/2000/svg" xmlns:xlink="http://www.w3.org/1999/xlink" x="0px" y="0px"
	 viewBox="0 0 512 512" style="enable-background:new 0 0 512 512;" xml:space="preserve">
<g>
	<g>
		<path d="M473.043,241.534h-15.957c21.515,0,38.957-17.441,38.957-38.956c0-21.516-17.441-38.957-38.957-38.957H441.13
			c21.515,0,38.956-17.441,38.956-38.957c0-21.516-17.441-38.956-38.956-38.956h-15.956c21.515,0,38.957-17.441,38.957-38.957
			c0-21.516-17.441-38.957-38.957-38.957H174.74v312.616c72.291,8.303,126.259,69.974,126.259,144.833
			c0,21.52,17.445,38.963,38.964,38.963c21.52,0,38.964-17.444,38.964-38.963c0-53.21-13.067-104.183-39.45-144.683v-1.113h133.565
			c21.515,0,38.957-17.441,38.957-38.957C512,258.976,494.559,241.534,473.043,241.534z"/>
	</g>
</g>
<g>
	<g>
		<rect y="7.793" width="74.566" height="311.652"/>
	</g>
</g>
<g>
	<g>
		<rect x="107.954" y="7.793" width="33.391" height="311.652"/>
	</g>
</g>
<g>
</g>
<g>
</g>
<g>
</g>
<g>
</g>
<g>
</g>
<g>
</g>
<g>
</g>
<g>
</g>
<g>
</g>
<g>
</g>
<g>
</g>
<g>
</g>
<g>
</g>
<g>
</g>
<g>
</g>
</svg>
