<?xml version="1.0" encoding="iso-8859-1"?>
<!-- Generator: Adobe Illustrator 19.0.0, SVG Export Plug-In . SVG Version: 6.00 Build 0)  -->
<svg version="1.1" id="Layer_1" xmlns="http://www.w3.org/2000/svg" xmlns:xlink="http://www.w3.org/1999/xlink" x="0px" y="0px"
	 viewBox="0 0 511.998 511.998" style="enable-background:new 0 0 511.998 511.998;" xml:space="preserve">
<g>
	<g>
		<path d="M37.643,0v119.545h263.435V0H37.643z M91.199,99.266V68.849h98.686v30.417H91.199z"/>
	</g>
</g>
<g>
	<g>
		<path d="M37.643,149.962v118.73c0,28.403,23.107,51.509,51.509,51.509h17.065v19.706H77.333v30.417h28.915v21.985h126.226v-0.001
			v-21.985h28.915v-30.417h-28.884v-19.705h17.065c28.403,0,51.509-23.107,51.509-51.509v-118.73H37.643z M189.886,251.352H91.199
			v-30.417h98.686V251.352z M189.886,200.657H91.199V170.24h98.686V200.657z"/>
	</g>
</g>
<g>
	<g>
		<path d="M411.639,199.194c-34.582,0-62.717,28.135-62.717,62.716v137.495c0,45.312-36.864,82.176-82.176,82.176
			c-37.212,0-68.708-24.87-78.786-58.856h-31.373c10.77,50.932,56.068,89.273,110.159,89.273
			c62.084,0,112.593-50.509,112.593-112.593V261.911c0-17.81,14.49-32.299,32.3-32.299s32.299,14.49,32.299,32.299v137.495h30.417
			V261.911C474.355,227.329,446.221,199.194,411.639,199.194z"/>
	</g>
</g>
<g>
</g>
<g>
</g>
<g>
</g>
<g>
</g>
<g>
</g>
<g>
</g>
<g>
</g>
<g>
</g>
<g>
</g>
<g>
</g>
<g>
</g>
<g>
</g>
<g>
</g>
<g>
</g>
<g>
</g>
</svg>
