<?xml version="1.0" encoding="iso-8859-1"?>
<!-- Generator: Adobe Illustrator 19.0.0, SVG Export Plug-In . SVG Version: 6.00 Build 0)  -->
<svg version="1.1" id="Layer_1" xmlns="http://www.w3.org/2000/svg" xmlns:xlink="http://www.w3.org/1999/xlink" x="0px" y="0px"
	 viewBox="0 0 512 512" style="enable-background:new 0 0 512 512;" xml:space="preserve">
<g>
	<g>
		<path d="M256,0C114.616,0,0,114.616,0,256s114.616,256,256,256s256-114.616,256-256S397.384,0,256,0z M421.278,350.445
			l-70.834,70.834L256,326.834l-94.445,94.445l-70.834-70.834L185.166,256l-94.445-94.445l70.834-70.833L256,185.166l94.445-94.445
			l70.834,70.833L326.834,256L421.278,350.445z"/>
	</g>
</g>
<g>
	<g>
		<polygon points="374.056,161.555 350.445,137.944 256,232.389 161.555,137.944 137.944,161.555 232.388,256 137.944,350.445 
			161.555,374.056 256,279.611 350.445,374.056 374.056,350.445 279.612,256 		"/>
	</g>
</g>
<g>
</g>
<g>
</g>
<g>
</g>
<g>
</g>
<g>
</g>
<g>
</g>
<g>
</g>
<g>
</g>
<g>
</g>
<g>
</g>
<g>
</g>
<g>
</g>
<g>
</g>
<g>
</g>
<g>
</g>
</svg>
