<?xml version="1.0" encoding="iso-8859-1"?>
<!-- Generator: Adobe Illustrator 19.0.0, SVG Export Plug-In . SVG Version: 6.00 Build 0)  -->
<svg version="1.1" id="Layer_1" xmlns="http://www.w3.org/2000/svg" xmlns:xlink="http://www.w3.org/1999/xlink" x="0px" y="0px"
	 viewBox="0 0 511.999 511.999" style="enable-background:new 0 0 511.999 511.999;" xml:space="preserve">
<g>
	<g>
		<path d="M256,356.377c-25.702,0-42.35,21.646-49.164,32.679c6.815,11.034,23.463,32.679,49.164,32.679
			c25.703,0,42.35-21.646,49.164-32.679C298.348,378.022,281.701,356.377,256,356.377z M256,405.203
			c-8.917,0-16.146-7.229-16.146-16.146c0-8.917,7.229-16.146,16.146-16.146s16.146,7.229,16.146,16.146
			S264.917,405.203,256,405.203z"/>
	</g>
</g>
<g>
	<g>
		<path d="M345.487,266.527v-45.423H315.07H196.929h-30.417v45.423c-16.862,2.607-29.813,17.218-29.813,34.799v210.673H375.3
			V301.326C375.3,283.745,362.349,269.134,345.487,266.527z M336.943,393.866c-0.194,0.583-24.984,58.288-80.943,58.288
			s-80.75-57.705-80.943-58.288l-1.603-4.809l1.603-4.809c0.194-0.583,24.984-58.287,80.943-58.287s80.75,57.704,80.943,58.287
			l1.603,4.809L336.943,393.866z"/>
	</g>
</g>
<g>
	<g>
		<path d="M304.074,135.52L291.857,31.879C289.716,13.706,274.301,0,256,0s-33.716,13.706-35.857,31.878L207.926,135.52
			c-23.237,2.424-41.414,22.125-41.414,45.994v9.173h30.418v0h118.14h30.417v-9.173C345.488,157.644,327.312,137.944,304.074,135.52
			z"/>
	</g>
</g>
<g>
</g>
<g>
</g>
<g>
</g>
<g>
</g>
<g>
</g>
<g>
</g>
<g>
</g>
<g>
</g>
<g>
</g>
<g>
</g>
<g>
</g>
<g>
</g>
<g>
</g>
<g>
</g>
<g>
</g>
</svg>
