<?xml version="1.0" encoding="iso-8859-1"?>
<!-- Generator: Adobe Illustrator 19.0.0, SVG Export Plug-In . SVG Version: 6.00 Build 0)  -->
<svg version="1.1" id="Layer_1" xmlns="http://www.w3.org/2000/svg" xmlns:xlink="http://www.w3.org/1999/xlink" x="0px" y="0px"
	 viewBox="0 0 512 512" style="enable-background:new 0 0 512 512;" xml:space="preserve">
<g>
	<g>
		<path d="M343.415,349.937v62.161h-37.463v-62.161c-94.656,2.821-168.585,26.778-168.585,55.917
			c0,31.036,83.864,56.195,187.317,56.195S512,436.89,512,405.854C512,376.715,438.071,352.757,343.415,349.937z"/>
	</g>
</g>
<g>
	<g>
		<path d="M324.683,12.488c-167.654,0-316.701,168.716-324.332,380.878h74.916C81.534,217.952,186.603,77.027,305.951,63.514
			v286.422c6.161-0.182,12.409-0.278,18.732-0.278c6.323,0.001,12.57,0.096,18.732,0.28V53.945
			c3.875-4.399,6.244-10.158,6.244-16.481C349.659,23.669,338.477,12.488,324.683,12.488z"/>
	</g>
</g>
<g>
	<g>
		<rect y="430.829" width="74.927" height="68.683"/>
	</g>
</g>
<g>
</g>
<g>
</g>
<g>
</g>
<g>
</g>
<g>
</g>
<g>
</g>
<g>
</g>
<g>
</g>
<g>
</g>
<g>
</g>
<g>
</g>
<g>
</g>
<g>
</g>
<g>
</g>
<g>
</g>
</svg>
