<?xml version="1.0" encoding="iso-8859-1"?>
<!-- Generator: Adobe Illustrator 19.0.0, SVG Export Plug-In . SVG Version: 6.00 Build 0)  -->
<svg version="1.1" id="Layer_1" xmlns="http://www.w3.org/2000/svg" xmlns:xlink="http://www.w3.org/1999/xlink" x="0px" y="0px"
	 viewBox="0 0 512 512" style="enable-background:new 0 0 512 512;" xml:space="preserve">
<g>
	<g>
		<path d="M166.578,310.005L40.404,362.268c23.398,47.38,61.949,85.929,109.328,109.328l52.263-126.175
			C187.528,336.651,175.347,324.472,166.578,310.005z"/>
	</g>
</g>
<g>
	<g>
		<path d="M149.732,40.404c-47.379,23.398-85.929,61.948-109.328,109.328l126.175,52.264c8.77-14.467,20.949-26.646,35.417-35.417
			L149.732,40.404z"/>
	</g>
</g>
<g>
	<g>
		<path d="M345.42,310.005c-8.769,14.468-20.948,26.647-35.416,35.417l52.263,126.175c47.38-23.398,85.929-61.948,109.328-109.328
			L345.42,310.005z"/>
	</g>
</g>
<g>
	<g>
		<path d="M362.268,40.404l-52.263,126.175c14.467,8.77,26.647,20.949,35.417,35.417l126.175-52.264
			C448.197,102.352,409.647,63.803,362.268,40.404z"/>
	</g>
</g>
<g>
	<g>
		<path d="M412.735,0H99.265C44.53,0,0,44.53,0,99.265v313.469C0,467.47,44.53,512,99.265,512h313.469
			C467.47,512,512,467.47,512,412.735V99.265C512,44.53,467.47,0,412.735,0z M480.653,145.981v33.93l-123.207,51.035
			c1.983,8.03,3.044,16.42,3.044,25.055c0,8.635-1.061,17.025-3.044,25.056l123.207,51.034v33.93v46.715
			c0,37.45-30.468,67.918-67.918,67.918h-46.715h-33.93l-51.034-123.207c-8.03,1.983-16.421,3.044-25.056,3.044
			c-8.635,0-17.026-1.061-25.056-3.044l-51.034,123.207h-33.93H99.265c-37.45,0-67.918-30.468-67.918-67.918v-46.715v-33.93
			l123.207-51.035c-1.983-8.03-3.044-16.419-3.044-25.055c0-8.635,1.061-17.025,3.044-25.056L31.347,179.911v-33.93V99.265
			c0-37.45,30.468-67.918,67.918-67.918h46.715h33.93l51.034,123.207c8.03-1.983,16.421-3.044,25.056-3.044
			c8.635,0,17.026,1.061,25.056,3.044l51.034-123.207h33.93h46.715c37.45,0,67.918,30.468,67.918,67.918V145.981z"/>
	</g>
</g>
<g>
</g>
<g>
</g>
<g>
</g>
<g>
</g>
<g>
</g>
<g>
</g>
<g>
</g>
<g>
</g>
<g>
</g>
<g>
</g>
<g>
</g>
<g>
</g>
<g>
</g>
<g>
</g>
<g>
</g>
</svg>
