<?xml version="1.0" encoding="iso-8859-1"?>
<!-- Generator: Adobe Illustrator 19.0.0, SVG Export Plug-In . SVG Version: 6.00 Build 0)  -->
<svg version="1.1" id="Layer_1" xmlns="http://www.w3.org/2000/svg" xmlns:xlink="http://www.w3.org/1999/xlink" x="0px" y="0px"
	 viewBox="0 0 455 455" style="enable-background:new 0 0 455 455;" xml:space="preserve">
<g>
	<path d="M385,82.273V30h55V0h-55H70H15v30h55v52.273c0,64.95,39.319,120.71,95.45,144.796v0.864
		C109.319,252.018,70,307.777,70,372.727V425H15v30h55h315h55v-30h-55v-52.273c0-64.95-39.319-120.71-95.45-144.795v-0.864
		C345.681,202.982,385,147.223,385,82.273z M330,357.728V400H125v-42.272h87.5V183.672c-49.433-7.281-87.5-49.976-87.5-101.399v-15
		h205v15c0,51.424-38.067,94.119-87.5,101.399v174.056H330z"/>
	<path d="M298.439,97.272H156.561c6.928,32.804,36.104,57.5,70.939,57.5S291.512,130.076,298.439,97.272z"/>
</g>
<g>
</g>
<g>
</g>
<g>
</g>
<g>
</g>
<g>
</g>
<g>
</g>
<g>
</g>
<g>
</g>
<g>
</g>
<g>
</g>
<g>
</g>
<g>
</g>
<g>
</g>
<g>
</g>
<g>
</g>
</svg>
