<?xml version="1.0" encoding="iso-8859-1"?>
<!-- Generator: Adobe Illustrator 19.0.0, SVG Export Plug-In . SVG Version: 6.00 Build 0)  -->
<svg version="1.1" id="Layer_1" xmlns="http://www.w3.org/2000/svg" xmlns:xlink="http://www.w3.org/1999/xlink" x="0px" y="0px"
	 viewBox="0 0 455 455" style="enable-background:new 0 0 455 455;" xml:space="preserve">
<g>
	<path d="M227.5,0C101.855,0,0,101.855,0,227.5S101.855,455,227.5,455S455,353.145,455,227.5S353.145,0,227.5,0z M303.514,146.486
		c19.33,0,35,15.67,35,35s-15.67,35-35,35c-19.33,0-35-15.67-35-35S284.184,146.486,303.514,146.486z M151.486,146.486
		c19.33,0,35,15.67,35,35s-15.67,35-35,35c-19.33,0-35-15.67-35-35S132.156,146.486,151.486,146.486z M347.178,285.486h-62.421
		v47.257c0,31.571-25.686,57.257-57.257,57.257s-57.257-25.686-57.257-57.257v-47.257h-62.421v-30h239.355V285.486z"/>
	<path d="M227.5,360c15.029,0,27.257-12.228,27.257-27.257v-47.257h-54.514v47.257C200.243,347.772,212.471,360,227.5,360z"/>
</g>
<g>
</g>
<g>
</g>
<g>
</g>
<g>
</g>
<g>
</g>
<g>
</g>
<g>
</g>
<g>
</g>
<g>
</g>
<g>
</g>
<g>
</g>
<g>
</g>
<g>
</g>
<g>
</g>
<g>
</g>
</svg>
