<?xml version="1.0" encoding="iso-8859-1"?>
<!-- Generator: Adobe Illustrator 19.0.0, SVG Export Plug-In . SVG Version: 6.00 Build 0)  -->
<svg version="1.1" id="Layer_1" xmlns="http://www.w3.org/2000/svg" xmlns:xlink="http://www.w3.org/1999/xlink" x="0px" y="0px"
	 viewBox="0 0 512 512" style="enable-background:new 0 0 512 512;" xml:space="preserve">
<g>
	<g>
		<path d="M391.529,9.035c-42.859,0-80.486,22.385-101.84,56.097c6.857,2.034,13.62,4.442,20.267,7.254
			c22.958,9.71,43.568,23.604,61.258,41.294c17.691,17.691,31.584,38.3,41.294,61.258c5.998,14.181,10.233,28.877,12.675,43.946
			c10.329,3.184,20.035,7.798,28.895,13.601C488.807,211.346,512,173.134,512,129.506C512,62.971,458.063,9.035,391.529,9.035z"/>
	</g>
</g>
<g>
	<g>
		<path d="M391.529,249.976c0-86.494-70.117-156.612-156.612-156.612S78.306,163.482,78.306,249.976
			C35.059,249.976,0,285.036,0,328.282s35.059,78.306,78.306,78.306h56.956l135.797-203.695V358.4h79.578l-32.125,48.188h73.017
			c43.247,0,78.306-35.059,78.306-78.306S434.776,249.976,391.529,249.976z"/>
	</g>
</g>
<g>
	<g>
		<polygon points="283.106,394.541 234.918,394.541 234.918,322.259 162.635,430.682 210.824,430.682 210.824,502.965 		"/>
	</g>
</g>
<g>
</g>
<g>
</g>
<g>
</g>
<g>
</g>
<g>
</g>
<g>
</g>
<g>
</g>
<g>
</g>
<g>
</g>
<g>
</g>
<g>
</g>
<g>
</g>
<g>
</g>
<g>
</g>
<g>
</g>
</svg>
