<?xml version="1.0" encoding="iso-8859-1"?>
<!-- Generator: Adobe Illustrator 19.0.0, SVG Export Plug-In . SVG Version: 6.00 Build 0)  -->
<svg version="1.1" id="Layer_1" xmlns="http://www.w3.org/2000/svg" xmlns:xlink="http://www.w3.org/1999/xlink" x="0px" y="0px"
	 viewBox="0 0 512 512" style="enable-background:new 0 0 512 512;" xml:space="preserve">
<g>
	<g>
		<path d="M206.082,72.35c-73.74,0-133.733,59.993-133.733,133.733s59.993,133.733,133.733,133.733s133.733-59.992,133.733-133.733
			S279.824,72.35,206.082,72.35z M287.586,206.083c0-44.941-36.562-81.504-81.504-81.504V94.162
			c61.713,0,111.921,50.208,111.921,111.921H287.586z"/>
	</g>
</g>
<g>
	<g>
		<path d="M496.633,422.44l-93.298-93.299l-26.343,26.343l-14.898-14.898c31.186-36.123,50.072-83.148,50.072-134.504
			c0-113.633-92.449-206.082-206.083-206.082S0,92.449,0,206.083s92.449,206.082,206.082,206.082
			c51.355,0,98.38-18.885,134.504-50.072l14.898,14.898l-26.343,26.343l93.299,93.298c9.909,9.909,23.084,15.367,37.097,15.367
			c14.013,0,27.188-5.457,37.097-15.366C506.542,486.725,512,473.55,512,459.537C512,445.524,506.542,432.348,496.633,422.44z
			 M206.082,370.233c-90.512,0-164.15-73.637-164.15-164.15s73.638-164.15,164.15-164.15s164.15,73.638,164.15,164.15
			S296.596,370.233,206.082,370.233z"/>
	</g>
</g>
<g>
</g>
<g>
</g>
<g>
</g>
<g>
</g>
<g>
</g>
<g>
</g>
<g>
</g>
<g>
</g>
<g>
</g>
<g>
</g>
<g>
</g>
<g>
</g>
<g>
</g>
<g>
</g>
<g>
</g>
</svg>
