<?xml version="1.0" encoding="iso-8859-1"?>
<!-- Generator: Adobe Illustrator 19.0.0, SVG Export Plug-In . SVG Version: 6.00 Build 0)  -->
<svg version="1.1" id="Layer_1" xmlns="http://www.w3.org/2000/svg" xmlns:xlink="http://www.w3.org/1999/xlink" x="0px" y="0px"
	 viewBox="0 0 445.987 445.987" style="enable-background:new 0 0 445.987 445.987;" xml:space="preserve">
<path d="M415.987,189.233l30-0.049l-0.154-94.821l-94.055-0.153l-0.154-94.055L256.803,0l-0.049,30l43.74,0.071l-58.583,58.583
	c-26.385-21.594-59.13-33.338-93.68-33.338c-39.594,0-76.818,15.419-104.814,43.416C15.419,126.729,0,163.953,0,203.547
	s15.419,76.818,43.416,104.815c16.661,16.661,36.59,28.867,58.342,36.02c7.016,21.286,18.966,41.288,35.866,58.189
	c27.997,27.997,65.222,43.416,104.815,43.416s76.817-15.419,104.814-43.416c54.216-54.216,57.573-140.324,10.073-198.49
	l58.589-58.588L415.987,189.233z M289.029,156.958c-5.624-17.052-14.356-32.98-25.905-47.091l58.583-58.583l0.072,43.74
	l29.231-0.048l-0.048,29.232l43.74,0.071l-58.583,58.583C322.009,171.315,306.081,162.582,289.029,156.958z M64.629,287.149
	C42.298,264.818,30,235.128,30,203.547s12.298-61.271,34.629-83.602c22.331-22.331,52.021-34.629,83.602-34.629
	s61.271,12.298,83.603,34.629c8.937,8.937,16.262,19.055,21.839,29.998c-3.719-0.277-7.465-0.418-11.233-0.418
	c-39.594,0-76.818,15.419-104.815,43.416c-31.761,31.761-46.062,74.468-42.915,116.091
	C83.735,303.449,73.589,296.109,64.629,287.149z M266.462,203.547c0,31.581-12.298,61.271-34.629,83.602
	s-52.021,34.629-83.603,34.629c-7.434,0-14.76-0.69-21.914-2.023c-6.974-37.112,3.862-76.943,32.52-105.602
	c22.331-22.331,52.021-34.629,83.603-34.629c7.459,0,14.81,0.694,21.986,2.037C265.768,188.737,266.462,196.089,266.462,203.547z
	 M326.042,381.358c-22.331,22.331-52.021,34.629-83.602,34.629s-61.271-12.298-83.603-34.629
	c-9.031-9.032-16.285-19.176-21.778-29.993c3.699,0.274,7.424,0.413,11.171,0.413c39.594,0,76.818-15.419,104.815-43.417
	c27.997-27.997,43.416-65.221,43.416-104.815c0-3.768-0.142-7.514-0.418-11.233c10.943,5.578,21.061,12.903,29.997,21.839
	C372.14,260.252,372.14,335.26,326.042,381.358z"/>
<g>
</g>
<g>
</g>
<g>
</g>
<g>
</g>
<g>
</g>
<g>
</g>
<g>
</g>
<g>
</g>
<g>
</g>
<g>
</g>
<g>
</g>
<g>
</g>
<g>
</g>
<g>
</g>
<g>
</g>
</svg>
