<?xml version="1.0" encoding="iso-8859-1"?>
<!-- Generator: Adobe Illustrator 19.0.0, SVG Export Plug-In . SVG Version: 6.00 Build 0)  -->
<svg version="1.1" id="Layer_1" xmlns="http://www.w3.org/2000/svg" xmlns:xlink="http://www.w3.org/1999/xlink" x="0px" y="0px"
	 viewBox="0 0 511.999 511.999" style="enable-background:new 0 0 511.999 511.999;" xml:space="preserve">
<g>
	<g>
		<path d="M165.514,237.749v193.137h180.97V237.749H165.514z M323.931,400.222H188.068v-30.417h135.864V400.222z M323.931,349.526
			H188.068v-30.417h135.864V349.526z M323.931,298.831H188.068v-30.417h135.864V298.831z"/>
	</g>
</g>
<g>
	<g>
		<path d="M391.863,157.179v-26.228h-30.417H150.553h-30.417v26.228c-20.232,3.264-35.734,20.849-35.734,41.987v312.833h343.196
			V199.167C427.597,178.029,412.095,160.443,391.863,157.179z M376.902,461.305H135.097V207.332h241.805V461.305z"/>
	</g>
</g>
<g>
	<g>
		<rect x="236.534" width="38.934" height="100.539"/>
	</g>
</g>
<g>
	<g>
		<rect x="305.886" width="38.934" height="100.539"/>
	</g>
</g>
<g>
	<g>
		<path d="M375.235,0.105v100.43h8.517h8.111h22.306V41.743C414.169,19.671,396.946,1.555,375.235,0.105z"/>
	</g>
</g>
<g>
	<g>
		<path d="M97.83,41.743v58.791h22.306h8.111h8.517V0.105C115.053,1.555,97.83,19.671,97.83,41.743z"/>
	</g>
</g>
<g>
	<g>
		<rect x="167.183" width="38.934" height="100.539"/>
	</g>
</g>
<g>
</g>
<g>
</g>
<g>
</g>
<g>
</g>
<g>
</g>
<g>
</g>
<g>
</g>
<g>
</g>
<g>
</g>
<g>
</g>
<g>
</g>
<g>
</g>
<g>
</g>
<g>
</g>
<g>
</g>
</svg>
