<?xml version="1.0" encoding="iso-8859-1"?>
<!-- Generator: Adobe Illustrator 19.0.0, SVG Export Plug-In . SVG Version: 6.00 Build 0)  -->
<svg version="1.1" id="Layer_1" xmlns="http://www.w3.org/2000/svg" xmlns:xlink="http://www.w3.org/1999/xlink" x="0px" y="0px"
	 viewBox="0 0 512 512" style="enable-background:new 0 0 512 512;" xml:space="preserve">
<g>
	<g>
		<rect x="233.644" width="44.713" height="88.707"/>
	</g>
</g>
<g>
	<g>
		<rect x="158.514" width="44.713" height="88.707"/>
	</g>
</g>
<g>
	<g>
		<rect x="308.775" width="44.713" height="88.707"/>
	</g>
</g>
<g>
	<g>
		<polygon points="83.382,0 83.382,88.706 104.458,88.706 112.28,88.706 128.095,88.706 128.095,0 		"/>
	</g>
</g>
<g>
	<g>
		<polygon points="383.904,0 383.904,88.706 398.201,88.706 406.022,88.706 428.618,88.706 428.618,0 		"/>
	</g>
</g>
<g>
	<g>
		<path d="M375.604,119.123h-240.73h-30.417V512h301.564V119.123H375.604z M364.557,366.182
			c0,60.278-49.039,109.316-109.316,109.316s-109.316-49.04-109.316-109.316V264.94c0-60.278,49.04-109.316,109.316-109.316
			c60.278,0,109.316,49.04,109.316,109.316V366.182z"/>
	</g>
</g>
<g>
	<g>
		<path d="M255.24,186.041c-43.506,0-78.899,35.394-78.899,78.899v101.242c0,43.506,35.394,78.899,78.899,78.899
			c43.505,0,78.899-35.394,78.899-78.899V264.94C334.14,221.434,298.745,186.041,255.24,186.041z M304.631,294.434h-30.417v-24.53
			c0-10.462-8.512-18.974-18.974-18.974c-10.462,0-18.974,8.512-18.974,18.974v91.313c0,10.462,8.512,18.974,18.974,18.974
			s18.974-8.512,18.974-18.974v-24.53h30.417v24.53c0,27.234-22.157,49.391-49.391,49.391c-27.234,0-49.391-22.157-49.391-49.391
			v-91.313c0-27.234,22.157-49.391,49.391-49.391c27.235,0,49.391,22.157,49.391,49.391V294.434z"/>
	</g>
</g>
<g>
</g>
<g>
</g>
<g>
</g>
<g>
</g>
<g>
</g>
<g>
</g>
<g>
</g>
<g>
</g>
<g>
</g>
<g>
</g>
<g>
</g>
<g>
</g>
<g>
</g>
<g>
</g>
<g>
</g>
</svg>
