<svg width="20" height="20" viewBox="0 0 20 20" fill="none" xmlns="http://www.w3.org/2000/svg">
<path d="M18.3333 5.20841V9.45839C18.3333 10.5167 17.9833 11.4084 17.3583 12.0251C16.7416 12.6501 15.85 13.0001 14.7916 13.0001V14.5084C14.7916 15.0751 14.1583 15.4167 13.6916 15.1001L12.8833 14.5667C12.9583 14.3084 12.9916 14.0251 12.9916 13.7251V10.3334C12.9916 8.63343 11.8583 7.50008 10.1583 7.50008H4.49995C4.38329 7.50008 4.27496 7.50843 4.16663 7.51676V5.20841C4.16663 3.08341 5.58329 1.66675 7.70829 1.66675H14.7916C16.9166 1.66675 18.3333 3.08341 18.3333 5.20841Z" stroke="#292D32" stroke-width="1.5" stroke-miterlimit="10" stroke-linecap="round" stroke-linejoin="round"/>
<path d="M12.9916 10.3334V13.725C12.9916 14.025 12.9583 14.3083 12.8833 14.5667C12.575 15.7917 11.5583 16.5583 10.1583 16.5583H7.89163L5.37496 18.2333C4.99996 18.4917 4.49995 18.2167 4.49995 17.7667V16.5583C3.64995 16.5583 2.94163 16.275 2.44996 15.7833C1.94996 15.2833 1.66663 14.575 1.66663 13.725V10.3334C1.66663 8.75002 2.64996 7.65835 4.16663 7.51668C4.27496 7.50835 4.38329 7.5 4.49995 7.5H10.1583C11.8583 7.5 12.9916 8.63335 12.9916 10.3334Z" stroke="#292D32" stroke-width="1.5" stroke-miterlimit="10" stroke-linecap="round" stroke-linejoin="round"/>
</svg>
