<?xml version="1.0" encoding="iso-8859-1"?>
<!-- Generator: Adobe Illustrator 19.0.0, SVG Export Plug-In . SVG Version: 6.00 Build 0)  -->
<svg version="1.1" id="Layer_1" xmlns="http://www.w3.org/2000/svg" xmlns:xlink="http://www.w3.org/1999/xlink" x="0px" y="0px"
	 viewBox="0 0 511.999 511.999" style="enable-background:new 0 0 511.999 511.999;" xml:space="preserve">
<g>
	<g>
		<path d="M381.569,342.313v-32.239h63.538v-30.417h-63.538h-81.113h-63.539v30.417h63.539v32.239
			c0,12.156-9.846,22.05-21.981,22.139c9.367,10.915,15.047,25.083,15.047,40.56c0,34.394-27.983,62.376-62.377,62.376
			c-34.394,0-62.376-27.982-62.376-62.376c0-16.105,6.136-30.804,16.192-41.883h-2.309c-12.209,0-22.143-9.933-22.143-22.143
			V191.284c0-12.209,9.933-22.143,22.143-22.143h66.921c-10.843-10.14-17.639-24.558-17.639-40.539
			c0-15.999,6.81-30.43,17.674-40.573h-66.955c-56.935,0-103.255,46.32-103.255,103.255v149.703
			c0,43.499,27.038,80.798,65.19,95.983H66.893v75.029h328.506V436.97h-75.855C356.015,421.023,381.569,384.599,381.569,342.313z"/>
	</g>
</g>
<g>
	<g>
		<path d="M395.576,30.417V0h-14.292h-80.543h-14.292v30.417h14.293v20.289h-14.293V73.1c0.339-0.006,0.674-0.025,1.014-0.025
			c30.618-0.001,55.528,24.91,55.528,55.528c0,30.618-24.91,55.529-55.529,55.529c-0.34,0-0.675-0.019-1.014-0.025v22.393h14.293
			v50.708h80.543v-50.708h14.292V50.707h-14.292V30.417H395.576z"/>
	</g>
</g>
<g>
	<g>
		<path d="M231.146,373.053c-17.622,0.001-31.958,14.337-31.958,31.959c0,17.622,14.337,31.958,31.958,31.958
			c17.623,0,31.959-14.337,31.959-31.958C263.105,387.39,248.768,373.053,231.146,373.053z"/>
	</g>
</g>
<g>
	<g>
		<path d="M287.463,103.491c-13.846,0-25.11,11.266-25.11,25.111c0,13.846,11.264,25.111,25.11,25.111s25.111-11.264,25.111-25.111
			C312.575,114.755,301.31,103.491,287.463,103.491z"/>
	</g>
</g>
<g>
</g>
<g>
</g>
<g>
</g>
<g>
</g>
<g>
</g>
<g>
</g>
<g>
</g>
<g>
</g>
<g>
</g>
<g>
</g>
<g>
</g>
<g>
</g>
<g>
</g>
<g>
</g>
<g>
</g>
</svg>
