<?xml version="1.0" encoding="iso-8859-1"?>
<!-- Generator: Adobe Illustrator 19.0.0, SVG Export Plug-In . SVG Version: 6.00 Build 0)  -->
<svg version="1.1" id="Layer_1" xmlns="http://www.w3.org/2000/svg" xmlns:xlink="http://www.w3.org/1999/xlink" x="0px" y="0px"
	 viewBox="0 0 511.999 511.999" style="enable-background:new 0 0 511.999 511.999;" xml:space="preserve">
<g>
	<g>
		<path d="M449.955,41.206c-45.568-13.182-93.192,13.071-106.372,58.64l-8.74,30.211c-9.13-11.562-25.535-15.172-38.859-7.828
			c-14.835,8.179-20.233,26.838-12.054,41.673l26.97,48.925l-7.691,26.584l165.012,47.732l40.371-139.564
			C521.776,102.011,495.523,54.387,449.955,41.206z"/>
	</g>
</g>
<g>
	<g>
		
			<rect x="335.047" y="243.162" transform="matrix(0.2779 -0.9606 0.9606 0.2779 -51.2974 589.8589)" width="63.299" height="171.776"/>
	</g>
</g>
<g>
	<g>
		<path d="M216.014,213.128c-13.324-7.344-29.729-3.734-38.859,7.828l-8.74-30.211c-13.18-45.569-60.806-71.821-106.372-58.64
			c-45.566,13.181-71.82,60.806-58.639,106.372l40.373,139.563l165.011-47.732l-7.69-26.583l26.969-48.925
			C236.247,239.966,230.849,221.307,216.014,213.128z"/>
	</g>
</g>
<g>
	<g>
		
			<rect x="59.405" y="388.276" transform="matrix(0.9606 -0.2779 0.2779 0.9606 -110.9754 56.9185)" width="171.776" height="63.301"/>
	</g>
</g>
<g>
</g>
<g>
</g>
<g>
</g>
<g>
</g>
<g>
</g>
<g>
</g>
<g>
</g>
<g>
</g>
<g>
</g>
<g>
</g>
<g>
</g>
<g>
</g>
<g>
</g>
<g>
</g>
<g>
</g>
</svg>
