<?xml version="1.0" encoding="iso-8859-1"?>
<!-- Generator: Adobe Illustrator 19.0.0, SVG Export Plug-In . SVG Version: 6.00 Build 0)  -->
<svg version="1.1" id="Layer_1" xmlns="http://www.w3.org/2000/svg" xmlns:xlink="http://www.w3.org/1999/xlink" x="0px" y="0px"
	 viewBox="0 0 511.999 511.999" style="enable-background:new 0 0 511.999 511.999;" xml:space="preserve">
<g>
	<g>
		<polygon points="146.279,350.45 146.279,375.46 260.056,375.46 260.056,405.878 146.279,405.878 146.279,430.888 284.607,430.888 
			284.607,350.45 		"/>
	</g>
</g>
<g>
	<g>
		<polygon points="329.498,166.843 308.387,166.843 288.722,0 223.277,0 203.611,166.843 182.501,166.843 136.607,166.843 
			136.607,197.26 182.501,197.26 182.501,224.067 195.754,224.067 212.918,224.067 299.081,224.067 316.246,224.067 
			329.498,224.067 329.498,197.26 375.392,197.26 375.392,166.843 		"/>
	</g>
</g>
<g>
	<g>
		<path d="M321.182,269.338h-4.936v-14.854h-30.417v0h-59.658h-30.417v14.854h-4.936c-24.559,0-44.538,19.98-44.538,44.538v6.157
			h168.745v141.271H146.279v50.695H365.72V313.876C365.72,289.318,345.74,269.338,321.182,269.338z"/>
	</g>
</g>
<g>
</g>
<g>
</g>
<g>
</g>
<g>
</g>
<g>
</g>
<g>
</g>
<g>
</g>
<g>
</g>
<g>
</g>
<g>
</g>
<g>
</g>
<g>
</g>
<g>
</g>
<g>
</g>
<g>
</g>
</svg>
