<?xml version="1.0" encoding="iso-8859-1"?>
<!-- Generator: Adobe Illustrator 19.0.0, SVG Export Plug-In . SVG Version: 6.00 Build 0)  -->
<svg version="1.1" id="Layer_1" xmlns="http://www.w3.org/2000/svg" xmlns:xlink="http://www.w3.org/1999/xlink" x="0px" y="0px"
	 viewBox="0 0 512 512" style="enable-background:new 0 0 512 512;" xml:space="preserve">
<g>
	<g>
		<path d="M485.12,26.88C467.786,9.547,444.738,0,420.224,0c-24.515,0-47.561,9.547-64.896,26.88l-77.863,77.863l-172.72,172.721
			l-77.863,77.863c-35.782,35.783-35.782,94.008,0,129.791C44.214,502.453,67.262,512,91.776,512
			c24.515,0,47.561-9.547,64.896-26.88l77.863-77.863l172.72-172.72l77.863-77.863C520.902,120.889,520.902,62.664,485.12,26.88z
			 M187.672,279.651l-25.837-25.837L183.3,232.35l25.837,25.837L187.672,279.651z M258.187,350.166l-25.838-25.838l21.465-21.466
			l25.838,25.838L258.187,350.166z M258.187,279.651l-25.838-25.837l21.465-21.466l25.838,25.837L258.187,279.651z M258.187,209.138
			L232.349,183.3l21.465-21.466l25.838,25.838L258.187,209.138z M328.701,279.651l-25.837-25.837l21.465-21.465l25.837,25.837
			L328.701,279.651z"/>
	</g>
</g>
<g>
	<g>
		<path d="M156.672,26.88C139.337,9.547,116.291,0,91.776,0C67.262,0,44.214,9.547,26.88,26.88
			c-35.782,35.783-35.782,94.008,0,129.791l77.863,77.863l129.792-129.791L156.672,26.88z"/>
	</g>
</g>
<g>
	<g>
		<path d="M485.12,355.329l-77.863-77.863L277.465,407.257l77.865,77.864C372.663,502.453,395.71,512,420.224,512
			c24.514,0,47.561-9.547,64.896-26.88C520.902,449.336,520.902,391.112,485.12,355.329z"/>
	</g>
</g>
<g>
</g>
<g>
</g>
<g>
</g>
<g>
</g>
<g>
</g>
<g>
</g>
<g>
</g>
<g>
</g>
<g>
</g>
<g>
</g>
<g>
</g>
<g>
</g>
<g>
</g>
<g>
</g>
<g>
</g>
</svg>
