<?xml version="1.0" encoding="iso-8859-1"?>
<!-- Generator: Adobe Illustrator 19.0.0, SVG Export Plug-In . SVG Version: 6.00 Build 0)  -->
<svg version="1.1" id="Layer_1" xmlns="http://www.w3.org/2000/svg" xmlns:xlink="http://www.w3.org/1999/xlink" x="0px" y="0px"
	 viewBox="0 0 512 512" style="enable-background:new 0 0 512 512;" xml:space="preserve">
<g>
	<g>
		<path d="M432.661,0c-29.481,0-56.42,16.527-70.05,42.065H127.245C57.082,42.065,0,99.147,0,169.311
			c0,67.485,52.808,122.857,119.27,126.988c-16.424-25.404-25.97-55.651-25.97-88.088v-7.822
			c-7.579-8.296-12.187-19.287-12.187-31.077c0-25.438,20.695-46.133,46.133-46.133h372.199l4.204-8.408
			C509.19,103.683,512,91.763,512,79.34C512,35.593,476.408,0,432.661,0z M432.758,79.594c-8.917,0-16.146-7.229-16.146-16.146
			c0-8.917,7.229-16.146,16.146-16.146c8.917,0,16.146,7.229,16.146,16.146C448.905,72.365,441.675,79.594,432.758,79.594z"/>
	</g>
</g>
<g>
	<g>
		<path d="M478.166,256.366c-16.36-17.69-37.1-30.209-59.892-36.432c-2.029,28.355-11.358,54.719-26.111,77.225
			c21.927,3.556,38.724,22.614,38.724,45.529c0,25.438-20.695,46.133-46.133,46.133H271.208v-18.63
			c-5.009,0.466-10.08,0.717-15.209,0.717c-5.128,0-10.2-0.25-15.209-0.717v18.63H91.252c-36.339,0-65.904,29.565-65.904,65.904
			v15.209h215.443v11.648h-111.44V512h253.296v-30.417h-111.44v-11.648h113.545c70.163,0,127.245-57.082,127.245-127.245
			C511.999,310.614,499.983,279.958,478.166,256.366z"/>
	</g>
</g>
<g>
	<g>
		<path d="M123.717,172.86v35.35c0,72.942,59.342,132.282,132.282,132.282s132.284-59.341,132.284-132.282v-35.35H123.717z
			 M307.945,271.885h-36.737v36.737h-30.417v-36.737h-36.737v-30.417h36.737V204.73h30.417v36.738h36.737V271.885z"/>
	</g>
</g>
<g>
</g>
<g>
</g>
<g>
</g>
<g>
</g>
<g>
</g>
<g>
</g>
<g>
</g>
<g>
</g>
<g>
</g>
<g>
</g>
<g>
</g>
<g>
</g>
<g>
</g>
<g>
</g>
<g>
</g>
</svg>
