<?xml version="1.0" encoding="iso-8859-1"?>
<!-- Generator: Adobe Illustrator 19.0.0, SVG Export Plug-In . SVG Version: 6.00 Build 0)  -->
<svg version="1.1" id="Layer_1" xmlns="http://www.w3.org/2000/svg" xmlns:xlink="http://www.w3.org/1999/xlink" x="0px" y="0px"
	 viewBox="0 0 455 455" style="enable-background:new 0 0 455 455;" xml:space="preserve">
<path d="M372.065,208.478c11.517,0,22.374,2.799,31.956,7.727V101.956H289.773c4.928-9.583,7.727-20.44,7.727-31.956
	c0-38.66-31.34-70-70-70c-38.66,0-70,31.34-70,70c0,11.517,2.799,22.374,7.727,31.956H50.978v114.248
	c9.583-4.928,20.44-7.727,31.956-7.727c38.66,0,70,31.34,70,70c0,38.66-31.34,70-70,70c-11.517,0-22.374-2.799-31.956-7.727V455
	h353.043V340.752c-9.583,4.928-20.44,7.727-31.956,7.727c-38.66,0-70-31.34-70-70C302.065,239.818,333.405,208.478,372.065,208.478z
	"/>
<g>
</g>
<g>
</g>
<g>
</g>
<g>
</g>
<g>
</g>
<g>
</g>
<g>
</g>
<g>
</g>
<g>
</g>
<g>
</g>
<g>
</g>
<g>
</g>
<g>
</g>
<g>
</g>
<g>
</g>
</svg>
