<?xml version="1.0" encoding="iso-8859-1"?>
<!-- Generator: Adobe Illustrator 19.0.0, SVG Export Plug-In . SVG Version: 6.00 Build 0)  -->
<svg version="1.1" id="Layer_1" xmlns="http://www.w3.org/2000/svg" xmlns:xlink="http://www.w3.org/1999/xlink" x="0px" y="0px"
	 viewBox="0 0 512 512" style="enable-background:new 0 0 512 512;" xml:space="preserve">
<g>
	<g>
		<path d="M189.277,392.898l-12.511-19.268l-19.268,12.513c-10.642,6.911-13.666,21.139-6.756,31.781
			c6.913,10.642,21.14,13.665,31.782,6.756C193.164,417.77,196.189,403.54,189.277,392.898z"/>
	</g>
</g>
<g>
	<g>
		<path d="M274.267,392.898l-12.513-19.268l-19.27,12.514c-10.64,6.911-13.664,21.139-6.754,31.781
			c6.911,10.64,21.139,13.665,31.779,6.754C278.154,417.768,281.177,403.54,274.267,392.898z"/>
	</g>
</g>
<g>
	<g>
		<path d="M257.889,469.946l-12.513-19.268l-19.27,12.513c-10.64,6.911-13.664,21.139-6.754,31.781
			c6.911,10.642,21.139,13.667,31.779,6.754C261.776,494.815,264.8,480.588,257.889,469.946z"/>
	</g>
</g>
<g>
	<g>
		<path d="M426.667,177.231c0-94.257-76.41-170.667-170.667-170.667S85.333,82.974,85.333,177.231
			C38.206,177.231,0,215.436,0,262.564s38.206,85.333,85.333,85.333h341.333c47.128,0,85.333-38.206,85.333-85.333
			S473.794,177.231,426.667,177.231z M198.9,321.374c-10.64,6.912-24.869,3.887-31.782-6.754
			c-6.911-10.642-3.885-24.87,6.757-31.781l19.268-12.514l12.511,19.27C212.567,300.237,209.541,314.465,198.9,321.374z
			 M283.89,321.374c-10.643,6.911-24.871,3.886-31.782-6.754c-6.911-10.64-3.887-24.869,6.754-31.781l19.27-12.513l12.513,19.268
			C297.553,300.235,294.531,314.464,283.89,321.374z M363.003,321.374c-10.64,6.911-24.869,3.886-31.782-6.754
			c-6.911-10.642-3.885-24.87,6.756-31.781l19.268-12.514l12.511,19.268C376.669,300.235,373.643,314.464,363.003,321.374z"/>
	</g>
</g>
<g>
	<g>
		<path d="M353.38,392.898l-12.511-19.268L321.6,386.144c-10.64,6.911-13.667,21.139-6.756,31.781
			c6.913,10.64,21.142,13.665,31.782,6.754C357.267,417.768,360.292,403.54,353.38,392.898z"/>
	</g>
</g>
<g>
</g>
<g>
</g>
<g>
</g>
<g>
</g>
<g>
</g>
<g>
</g>
<g>
</g>
<g>
</g>
<g>
</g>
<g>
</g>
<g>
</g>
<g>
</g>
<g>
</g>
<g>
</g>
<g>
</g>
</svg>
