<?xml version="1.0" encoding="iso-8859-1"?>
<!-- Generator: Adobe Illustrator 19.0.0, SVG Export Plug-In . SVG Version: 6.00 Build 0)  -->
<svg version="1.1" id="Layer_1" xmlns="http://www.w3.org/2000/svg" xmlns:xlink="http://www.w3.org/1999/xlink" x="0px" y="0px"
	 viewBox="0 0 512 512" style="enable-background:new 0 0 512 512;" xml:space="preserve">
<g>
	<g>
		<polygon points="234.894,338.625 199.769,503.876 237.988,512 274.84,338.625 		"/>
	</g>
</g>
<g>
	<g>
		<polygon points="313.038,338.625 288.987,451.779 327.206,459.904 352.984,338.625 		"/>
	</g>
</g>
<g>
	<g>
		<polygon points="156.75,338.625 132.698,451.779 170.917,459.904 196.696,338.625 		"/>
	</g>
</g>
<g>
	<g>
		<path d="M425.312,169.313C425.312,75.804,349.508,0,255.999,0S86.687,75.804,86.687,169.313
			c-46.754,0-84.656,37.903-84.656,84.656c0,46.754,37.903,84.656,84.656,84.656h70.063l20.242-95.231l38.219,8.123l-18.515,87.107
			h38.2l20.242-95.231l38.219,8.123l-18.516,87.107h38.2l20.242-95.231l38.219,8.123l-18.516,87.107h72.329
			c46.754,0,84.656-37.903,84.656-84.656C509.97,207.215,472.067,169.313,425.312,169.313z"/>
	</g>
</g>
<g>
</g>
<g>
</g>
<g>
</g>
<g>
</g>
<g>
</g>
<g>
</g>
<g>
</g>
<g>
</g>
<g>
</g>
<g>
</g>
<g>
</g>
<g>
</g>
<g>
</g>
<g>
</g>
<g>
</g>
</svg>
