<?xml version="1.0" encoding="iso-8859-1"?>
<!-- Generator: Adobe Illustrator 19.0.0, SVG Export Plug-In . SVG Version: 6.00 Build 0)  -->
<svg version="1.1" id="Layer_1" xmlns="http://www.w3.org/2000/svg" xmlns:xlink="http://www.w3.org/1999/xlink" x="0px" y="0px"
	 viewBox="0 0 512 512" style="enable-background:new 0 0 512 512;" xml:space="preserve">
<g>
	<g>
		<path d="M174.545,340.364c0-38.559-31.259-69.818-69.818-69.818c-38.559,0-69.818,31.259-69.818,69.818
			C15.63,340.364,0,355.994,0,375.273s15.63,34.909,34.909,34.909h139.636c19.279,0,34.909-15.63,34.909-34.909
			S193.825,340.364,174.545,340.364z"/>
	</g>
</g>
<g>
	<g>
		<path d="M477.091,340.364c0-38.559-31.259-69.818-69.818-69.818c-38.559,0-69.818,31.259-69.818,69.818
			c-19.279,0-34.909,15.63-34.909,34.909s15.63,34.909,34.909,34.909h139.636c19.279,0,34.909-15.63,34.909-34.909
			S496.37,340.364,477.091,340.364z"/>
	</g>
</g>
<g>
	<g>
		<path d="M345.72,197.445c-26.844-16.884-57.869-25.808-89.72-25.808c-31.85,0-62.874,8.924-89.716,25.807
			c-16.88,10.616-31.657,24.088-43.749,39.71c12.495,2.149,24.23,6.53,34.803,12.701c24.948-27.304,60.375-43.309,98.662-43.309
			s73.714,16.006,98.664,43.308c10.572-6.17,22.308-10.551,34.803-12.7C377.375,221.532,362.598,208.061,345.72,197.445z"/>
	</g>
</g>
<g>
	<g>
		<path d="M256,101.818c-106.559,0-197.014,70.234-227.527,166.839C42.077,254.2,59.735,243.61,79.61,238.698
			C114.85,177.793,180.717,136.727,256,136.727s141.15,41.066,176.39,101.971c19.875,4.912,37.533,15.502,51.136,29.959
			C453.014,172.052,362.559,101.818,256,101.818z"/>
	</g>
</g>
<g>
	<g>
		<path d="M256,241.455c-28.207,0-53.674,11.889-71.708,30.893c8.045,9.398,14.459,20.23,18.797,32.057
			c11.529-16.912,30.943-28.041,52.911-28.041c21.967,0,41.381,11.129,52.911,28.041c4.338-11.827,10.752-22.659,18.797-32.057
			C309.673,253.343,284.207,241.455,256,241.455z"/>
	</g>
</g>
<g>
</g>
<g>
</g>
<g>
</g>
<g>
</g>
<g>
</g>
<g>
</g>
<g>
</g>
<g>
</g>
<g>
</g>
<g>
</g>
<g>
</g>
<g>
</g>
<g>
</g>
<g>
</g>
<g>
</g>
</svg>
