<?xml version="1.0" encoding="iso-8859-1"?>
<!-- Generator: Adobe Illustrator 19.0.0, SVG Export Plug-In . SVG Version: 6.00 Build 0)  -->
<svg version="1.1" id="Layer_1" xmlns="http://www.w3.org/2000/svg" xmlns:xlink="http://www.w3.org/1999/xlink" x="0px" y="0px"
	 viewBox="0 0 512 512" style="enable-background:new 0 0 512 512;" xml:space="preserve">
<g>
	<g>
		<polygon points="232.389,303.222 208.778,279.611 114.006,374.383 83.478,343.857 83.478,428.522 168.143,428.522 
			137.617,397.994 		"/>
	</g>
</g>
<g>
	<g>
		<path d="M0,0v512h512V0H0z M248.756,461.913H50.087V263.244l63.919,63.918l94.772-94.772l70.834,70.834l-94.772,94.772
			L248.756,461.913z M461.913,248.756l-63.919-63.918l-94.772,94.772l-70.834-70.834l94.772-94.772l-63.917-63.918h198.669V248.756z
			"/>
	</g>
</g>
<g>
	<g>
		<polygon points="343.857,83.478 374.383,114.006 279.611,208.778 303.222,232.389 397.994,137.617 428.522,168.143 
			428.522,83.478 		"/>
	</g>
</g>
<g>
</g>
<g>
</g>
<g>
</g>
<g>
</g>
<g>
</g>
<g>
</g>
<g>
</g>
<g>
</g>
<g>
</g>
<g>
</g>
<g>
</g>
<g>
</g>
<g>
</g>
<g>
</g>
<g>
</g>
</svg>
