<?xml version="1.0" encoding="iso-8859-1"?>
<!-- Generator: Adobe Illustrator 19.1.0, SVG Export Plug-In . SVG Version: 6.00 Build 0)  -->
<svg version="1.1" id="Capa_1" xmlns="http://www.w3.org/2000/svg" xmlns:xlink="http://www.w3.org/1999/xlink" x="0px" y="0px"
	 viewBox="0 0 454.996 454.996" style="enable-background:new 0 0 454.996 454.996;" xml:space="preserve">
<g>
	<polygon points="355.571,392.783 355.571,331.597 294.385,392.783 	"/>
	<rect x="85" y="37.212" width="170.571" height="65"/>
	<polygon points="340.571,141.535 340.571,107.212 285.571,52.212 285.571,132.212 55,132.212 55,37.212 0,37.212 0,377.783 
		55,377.783 55,192.497 289.609,192.497 	"/>
	<polygon points="178.531,377.783 166.854,417.783 235.318,397.797 186.84,349.319 	"/>
	<polygon points="259.609,222.497 85,222.497 85,377.783 147.279,377.783 162.835,324.493 164.988,317.118 170.42,311.686 	"/>
	<path d="M356.231,168.3l38.661-38.661l60.104,60.103l-38.661,38.661L356.231,168.3z"/>
	<path d="M262.344,382.401l-60.104-60.103l132.781-132.781l60.103,60.104L262.344,382.401z"/>
</g>
<g>
</g>
<g>
</g>
<g>
</g>
<g>
</g>
<g>
</g>
<g>
</g>
<g>
</g>
<g>
</g>
<g>
</g>
<g>
</g>
<g>
</g>
<g>
</g>
<g>
</g>
<g>
</g>
<g>
</g>
</svg>
