<?xml version="1.0" encoding="iso-8859-1"?>
<!-- Generator: Adobe Illustrator 19.0.0, SVG Export Plug-In . SVG Version: 6.00 Build 0)  -->
<svg version="1.1" id="Layer_1" xmlns="http://www.w3.org/2000/svg" xmlns:xlink="http://www.w3.org/1999/xlink" x="0px" y="0px"
	 viewBox="0 0 512 512" style="enable-background:new 0 0 512 512;" xml:space="preserve">
<g>
	<g>
		<circle cx="236.439" cy="478.616" r="26.256"/>
	</g>
</g>
<g>
	<g>
		<circle cx="167.831" cy="401.567" r="26.256"/>
	</g>
</g>
<g>
	<g>
		<circle cx="249.869" cy="401.567" r="26.256"/>
	</g>
</g>
<g>
	<g>
		<circle cx="331.934" cy="401.567" r="26.256"/>
	</g>
</g>
<g>
	<g>
		<path d="M426.667,177.794c0-94.257-76.41-170.667-170.667-170.667S85.333,83.537,85.333,177.794C38.206,177.794,0,216,0,263.127
			s38.206,85.333,85.333,85.333h341.333c47.128,0,85.333-38.206,85.333-85.333S473.794,177.794,426.667,177.794z M184.225,324.525
			c-14.5,0-26.256-11.755-26.256-26.256s11.756-26.256,26.256-26.256c14.503,0,26.256,11.755,26.256,26.256
			S198.728,324.525,184.225,324.525z M266.266,324.525c-14.5,0-26.256-11.755-26.256-26.256s11.756-26.256,26.256-26.256
			c14.503,0,26.256,11.755,26.256,26.256S280.769,324.525,266.266,324.525z M348.328,324.525c-14.5,0-26.256-11.755-26.256-26.256
			s11.756-26.256,26.256-26.256c14.503,0,26.256,11.755,26.256,26.256S362.831,324.525,348.328,324.525z"/>
	</g>
</g>
<g>
</g>
<g>
</g>
<g>
</g>
<g>
</g>
<g>
</g>
<g>
</g>
<g>
</g>
<g>
</g>
<g>
</g>
<g>
</g>
<g>
</g>
<g>
</g>
<g>
</g>
<g>
</g>
<g>
</g>
</svg>
