<?xml version="1.0" encoding="iso-8859-1"?>
<!-- Generator: Adobe Illustrator 19.0.0, SVG Export Plug-In . SVG Version: 6.00 Build 0)  -->
<svg version="1.1" id="Layer_1" xmlns="http://www.w3.org/2000/svg" xmlns:xlink="http://www.w3.org/1999/xlink" x="0px" y="0px"
	 viewBox="0 0 512 512" style="enable-background:new 0 0 512 512;" xml:space="preserve">
<g>
	<g>
		<path d="M512,202.664l-24.616-24.616l-60.543,60.543h-38.524c-4.697-35.898-23.718-67.348-51.117-88.421l19.293-33.417
			l82.71-22.162l-9.011-33.627l-72.858,19.522L337.811,7.629l-33.627,9.01l22.161,82.706l-19.268,33.373
			c-15.741-6.546-32.994-10.169-51.077-10.169c-18.084,0-35.336,3.623-51.078,10.17l-19.267-33.371l22.162-82.709l-33.627-9.01
			l-19.522,72.857L81.811,60.962L72.8,94.59l82.704,22.161l19.296,33.422c-27.399,21.072-46.42,52.523-51.116,88.419H85.162
			l-60.546-60.546L0,202.662l53.335,53.336L0,309.334l24.616,24.616l60.546-60.546h38.522c4.697,35.898,23.717,67.348,51.117,88.419
			l-19.295,33.419l-82.708,22.162l9.011,33.628l72.858-19.522l19.523,72.858l33.627-9.012l-22.162-82.704l19.268-33.374
			c15.741,6.547,32.994,10.17,51.078,10.17c18.083,0,35.335-3.623,51.077-10.169l19.268,33.371l-22.162,82.71l33.626,9.01
			l19.522-72.857l72.858,19.522l9.011-33.628l-82.706-22.161L337.2,361.826c27.399-21.072,46.42-52.524,51.117-88.421h38.521
			l60.546,60.546L512,309.335L458.665,256L512,202.664z M192.413,331.321c-17.199-14.543-29.354-34.85-33.481-57.916h23.689
			c3.45,14.541,11.115,27.461,21.636,37.401L192.413,331.321z M182.621,238.592h-23.689c4.127-23.067,16.281-43.375,33.481-57.916
			l11.845,20.515C193.736,211.131,186.071,224.05,182.621,238.592z M255.999,157.361c11.745,0,23.013,2.071,33.468,5.856
			l-11.85,20.526c-6.852-2.054-14.105-3.173-21.617-3.173c-7.513,0-14.765,1.119-21.618,3.173l-11.85-20.526
			C232.987,159.432,244.255,157.361,255.999,157.361z M255.999,354.635c-11.745,0-23.013-2.071-33.468-5.856l11.85-20.526
			c6.852,2.054,14.105,3.173,21.618,3.173c7.513,0,14.765-1.119,21.617-3.173l11.85,20.526
			C279.012,352.563,267.744,354.635,255.999,354.635z M255.999,296.613c-22.394,0-40.615-18.22-40.615-40.615
			c0-22.395,18.22-40.615,40.615-40.615c22.395,0,40.615,18.22,40.615,40.615C296.615,278.393,278.395,296.613,255.999,296.613z
			 M319.586,331.321l-11.845-20.515c10.522-9.939,18.188-22.859,21.636-37.401h23.689
			C348.941,296.47,336.786,316.778,319.586,331.321z M329.378,238.591c-3.45-14.541-11.115-27.462-21.636-37.401l11.845-20.514
			c17.199,14.541,29.354,34.849,33.481,57.915H329.378z"/>
	</g>
</g>
<g>
</g>
<g>
</g>
<g>
</g>
<g>
</g>
<g>
</g>
<g>
</g>
<g>
</g>
<g>
</g>
<g>
</g>
<g>
</g>
<g>
</g>
<g>
</g>
<g>
</g>
<g>
</g>
<g>
</g>
</svg>
