<?xml version="1.0" encoding="iso-8859-1"?>
<!-- Generator: Adobe Illustrator 19.0.0, SVG Export Plug-In . SVG Version: 6.00 Build 0)  -->
<svg version="1.1" id="Layer_1" xmlns="http://www.w3.org/2000/svg" xmlns:xlink="http://www.w3.org/1999/xlink" x="0px" y="0px"
	 viewBox="0 0 512 512" style="enable-background:new 0 0 512 512;" xml:space="preserve">
<g>
	<g>
		<path d="M439.207,164.749h-14.775v-26.362h-30.417H303.26h-30.417v26.362h-14.775c-26.51,0-48.076,21.567-48.076,48.076v22.897
			h214.43v205.305h-214.43V512h277.292V212.825C487.284,186.315,465.717,164.749,439.207,164.749z"/>
	</g>
</g>
<g>
	<g>
		<polygon points="209.991,266.139 209.991,297.818 358.518,297.818 358.518,328.235 209.991,328.235 209.991,348.513 
			358.518,348.513 358.518,378.93 209.991,378.93 209.991,410.609 394.004,410.609 394.004,266.139 		"/>
	</g>
</g>
<g>
	<g>
		<path d="M394.772,0h-92.269c-26.51,0-48.076,21.567-48.076,48.076v5.909H111.774V34.388H24.716v69.612h87.057V84.403h142.651
			v23.567h18.418h12.001h127.589h12.001h18.417V48.076C442.849,21.567,421.281,0,394.772,0z"/>
	</g>
</g>
<g>
</g>
<g>
</g>
<g>
</g>
<g>
</g>
<g>
</g>
<g>
</g>
<g>
</g>
<g>
</g>
<g>
</g>
<g>
</g>
<g>
</g>
<g>
</g>
<g>
</g>
<g>
</g>
<g>
</g>
</svg>
