<?xml version="1.0" encoding="iso-8859-1"?>
<!-- Generator: Adobe Illustrator 19.0.0, SVG Export Plug-In . SVG Version: 6.00 Build 0)  -->
<svg version="1.1" id="Layer_1" xmlns="http://www.w3.org/2000/svg" xmlns:xlink="http://www.w3.org/1999/xlink" x="0px" y="0px"
	 viewBox="0 0 512 512" style="enable-background:new 0 0 512 512;" xml:space="preserve">
<g>
	<g>
		<polygon points="277.197,210.97 230.291,189.401 224.251,138.129 173.63,148.197 138.599,110.306 103.567,148.197 52.946,138.129 
			46.906,189.401 0,210.97 25.28,256.002 0,301.031 46.907,322.604 52.947,373.873 103.567,363.807 138.599,401.697 
			173.632,363.807 224.25,373.873 230.293,322.601 277.197,301.031 251.917,256.002 		"/>
	</g>
</g>
<g>
	<g>
		<polygon points="512,66.852 487.387,52.909 473.446,28.297 446.178,35.839 418.912,28.294 404.969,52.909 380.356,66.852 
			387.9,94.118 380.356,121.385 404.969,135.327 418.912,159.938 446.178,152.396 473.446,159.938 487.387,135.327 512,121.385 
			504.456,94.118 		"/>
	</g>
</g>
<g>
	<g>
		<polygon points="512,390.619 487.387,376.676 473.446,352.065 446.178,359.607 418.912,352.062 404.969,376.676 380.356,390.619 
			387.9,417.886 380.356,445.153 404.969,459.095 418.912,483.706 446.178,476.164 473.446,483.706 487.387,459.095 512,445.153 
			504.456,417.886 		"/>
	</g>
</g>
<g>
</g>
<g>
</g>
<g>
</g>
<g>
</g>
<g>
</g>
<g>
</g>
<g>
</g>
<g>
</g>
<g>
</g>
<g>
</g>
<g>
</g>
<g>
</g>
<g>
</g>
<g>
</g>
<g>
</g>
</svg>
