<?xml version="1.0" encoding="iso-8859-1"?>
<!-- Generator: Adobe Illustrator 19.0.0, SVG Export Plug-In . SVG Version: 6.00 Build 0)  -->
<svg version="1.1" id="Layer_1" xmlns="http://www.w3.org/2000/svg" xmlns:xlink="http://www.w3.org/1999/xlink" x="0px" y="0px"
	 viewBox="0 0 455 455" style="enable-background:new 0 0 455 455;" xml:space="preserve">
<path d="M227.5,0C101.855,0,0,101.855,0,227.5S101.855,455,227.5,455S455,353.145,455,227.5S353.145,0,227.5,0z M116.486,181.486
	c0-19.33,15.67-35,35-35c19.33,0,35,15.67,35,35s-15.67,35-35,35C132.156,216.486,116.486,200.816,116.486,181.486z M322.23,327.743
	H132.77v-30H322.23V327.743z M303.514,216.486c-19.33,0-35-15.67-35-35s15.67-35,35-35c19.33,0,35,15.67,35,35
	S322.844,216.486,303.514,216.486z"/>
<g>
</g>
<g>
</g>
<g>
</g>
<g>
</g>
<g>
</g>
<g>
</g>
<g>
</g>
<g>
</g>
<g>
</g>
<g>
</g>
<g>
</g>
<g>
</g>
<g>
</g>
<g>
</g>
<g>
</g>
</svg>
