<?xml version="1.0" encoding="iso-8859-1"?>
<!-- Generator: Adobe Illustrator 19.0.0, SVG Export Plug-In . SVG Version: 6.00 Build 0)  -->
<svg version="1.1" id="Layer_1" xmlns="http://www.w3.org/2000/svg" xmlns:xlink="http://www.w3.org/1999/xlink" x="0px" y="0px"
	 viewBox="0 0 512.001 512.001" style="enable-background:new 0 0 512.001 512.001;" xml:space="preserve">
<g>
	<g>
		<circle cx="256.001" cy="256.001" r="122.435"/>
	</g>
</g>
<g>
	<g>
		<rect x="239.305" width="33.391" height="89.044"/>
	</g>
</g>
<g>
	<g>
		
			<rect x="89.768" y="61.939" transform="matrix(0.7071 -0.7071 0.7071 0.7071 -44.0968 106.4625)" width="33.391" height="89.043"/>
	</g>
</g>
<g>
	<g>
		<rect x="0.001" y="239.305" width="89.044" height="33.391"/>
	</g>
</g>
<g>
	<g>
		
			<rect x="61.944" y="388.838" transform="matrix(0.7071 -0.7071 0.7071 0.7071 -255.5727 194.061)" width="89.043" height="33.391"/>
	</g>
</g>
<g>
	<g>
		<rect x="239.305" y="422.957" width="33.391" height="89.044"/>
	</g>
</g>
<g>
	<g>
		
			<rect x="388.832" y="361.01" transform="matrix(0.7071 -0.7071 0.7071 0.7071 -167.9777 405.5287)" width="33.391" height="89.043"/>
	</g>
</g>
<g>
	<g>
		<rect x="422.958" y="239.305" width="89.043" height="33.391"/>
	</g>
</g>
<g>
	<g>
		
			<rect x="361.005" y="89.762" transform="matrix(0.7071 -0.7071 0.7071 0.7071 43.4986 317.9308)" width="89.042" height="33.391"/>
	</g>
</g>
<g>
</g>
<g>
</g>
<g>
</g>
<g>
</g>
<g>
</g>
<g>
</g>
<g>
</g>
<g>
</g>
<g>
</g>
<g>
</g>
<g>
</g>
<g>
</g>
<g>
</g>
<g>
</g>
<g>
</g>
</svg>
