<?xml version="1.0" encoding="iso-8859-1"?>
<!-- Generator: Adobe Illustrator 19.0.0, SVG Export Plug-In . SVG Version: 6.00 Build 0)  -->
<svg version="1.1" id="Layer_1" xmlns="http://www.w3.org/2000/svg" xmlns:xlink="http://www.w3.org/1999/xlink" x="0px" y="0px"
	 viewBox="0 0 512 512" style="enable-background:new 0 0 512 512;" xml:space="preserve">
<g>
	<g>
		<path d="M337.037,380.488c-15.314,0-28.51,9.211-34.361,22.38h68.724C365.549,389.7,352.352,380.488,337.037,380.488z"/>
	</g>
</g>
<g>
	<g>
		<path d="M302.675,433.285c5.851,13.169,19.047,22.379,34.361,22.379c15.316,0.001,28.512-9.21,34.363-22.379H302.675z"/>
	</g>
</g>
<g>
	<g>
		<path d="M174.961,218.41c-20.726,0-37.589,16.862-37.589,37.59c0,4.774,0.904,9.34,2.536,13.546l48.6-48.6
			C184.302,219.315,179.736,218.41,174.961,218.41z"/>
	</g>
</g>
<g>
	<g>
		<path d="M174.962,380.488c-4.774,0-9.34,0.904-13.546,2.536l48.599,48.598c1.631-4.206,2.536-8.77,2.536-13.546
			C212.55,397.351,195.688,380.488,174.962,380.488z"/>
	</g>
</g>
<g>
	<g>
		<path d="M210.014,242.454l-48.599,48.6c4.206,1.63,8.77,2.535,13.545,2.535c20.726,0,37.589-16.862,37.589-37.589
			C212.549,251.226,211.645,246.66,210.014,242.454z"/>
	</g>
</g>
<g>
	<g>
		<path d="M352.246,221.637v68.726c13.17-5.851,22.381-19.047,22.381-34.362C374.627,240.685,365.416,227.489,352.246,221.637z"/>
	</g>
</g>
<g>
	<g>
		<path d="M139.908,404.531c-1.63,4.206-2.535,8.77-2.535,13.545c0,20.726,16.862,37.587,37.589,37.587
			c4.774,0.002,9.339-0.902,13.545-2.534L139.908,404.531z"/>
	</g>
</g>
<g>
	<g>
		<path d="M174.962,56.335c-15.315,0-28.511,9.211-34.362,22.38h68.725C203.473,65.546,190.277,56.335,174.962,56.335z"/>
	</g>
</g>
<g>
	<g>
		<path d="M301.985,80.377c-1.63,4.206-2.535,8.77-2.535,13.545c0,20.726,16.861,37.589,37.588,37.589
			c4.774,0,9.34-0.904,13.546-2.535L301.985,80.377z"/>
	</g>
</g>
<g>
	<g>
		<path d="M337.037,56.334c-4.774,0.001-9.339,0.905-13.545,2.536l48.599,48.599c1.631-4.206,2.536-8.77,2.536-13.546
			C374.627,73.196,357.765,56.334,337.037,56.334z"/>
	</g>
</g>
<g>
	<g>
		<path d="M140.599,109.132c5.851,13.169,19.047,22.38,34.362,22.38c15.315,0,28.511-9.211,34.362-22.38
			C209.324,109.132,140.599,109.132,140.599,109.132z"/>
	</g>
</g>
<g>
	<g>
		<path d="M299.45,256c0,15.315,9.21,28.51,22.379,34.362v-68.725C308.66,227.49,299.45,240.686,299.45,256z"/>
	</g>
</g>
<g>
	<g>
		<path d="M72.418,0v512h367.164V0H72.418z M174.962,486.081c-37.498,0.001-68.006-30.506-68.006-68.005
			s30.507-68.006,68.006-68.006c37.498,0,68.006,30.507,68.006,68.006S212.46,486.081,174.962,486.081z M174.962,324.006
			c-37.498,0-68.006-30.507-68.006-68.006s30.507-68.007,68.006-68.007c37.498,0,68.006,30.507,68.006,68.007
			C242.967,293.498,212.46,324.006,174.962,324.006z M174.962,161.929c-37.498,0-68.006-30.507-68.006-68.006
			s30.507-68.006,68.006-68.006c37.498,0,68.006,30.507,68.006,68.006S212.46,161.929,174.962,161.929z M337.037,486.081
			c-37.498,0.001-68.005-30.506-68.005-68.005s30.506-68.006,68.005-68.006s68.007,30.507,68.007,68.006
			S374.537,486.081,337.037,486.081z M337.037,324.006c-37.498,0-68.005-30.507-68.005-68.006s30.506-68.007,68.005-68.007
			s68.007,30.507,68.007,68.007C405.044,293.498,374.537,324.006,337.037,324.006z M337.037,161.929
			c-37.498,0-68.005-30.507-68.005-68.006s30.506-68.006,68.005-68.006c37.498,0,68.007,30.507,68.007,68.006
			S374.537,161.929,337.037,161.929z"/>
	</g>
</g>
<g>
</g>
<g>
</g>
<g>
</g>
<g>
</g>
<g>
</g>
<g>
</g>
<g>
</g>
<g>
</g>
<g>
</g>
<g>
</g>
<g>
</g>
<g>
</g>
<g>
</g>
<g>
</g>
<g>
</g>
</svg>
