<?xml version="1.0" encoding="iso-8859-1"?>
<!-- Generator: Adobe Illustrator 19.0.0, SVG Export Plug-In . SVG Version: 6.00 Build 0)  -->
<svg version="1.1" id="Layer_1" xmlns="http://www.w3.org/2000/svg" xmlns:xlink="http://www.w3.org/1999/xlink" x="0px" y="0px"
	 viewBox="0 0 480.412 480.412" style="enable-background:new 0 0 480.412 480.412;" xml:space="preserve">
<g>
	<polygon points="387.923,339.199 366.71,360.412 401.104,394.806 79.308,394.806 113.702,360.412 92.489,339.199 21.882,409.806 
		92.489,480.412 113.702,459.199 79.308,424.806 401.104,424.806 366.71,459.199 387.923,480.412 458.53,409.806 	"/>
	<polygon points="117.706,30 225.206,30 225.206,275 170.206,275 170.206,305 310.206,305 310.206,275 255.206,275 255.206,30 
		362.706,30 362.706,85 392.706,85 392.706,0 87.706,0 87.706,85 117.706,85 	"/>
</g>
<g>
</g>
<g>
</g>
<g>
</g>
<g>
</g>
<g>
</g>
<g>
</g>
<g>
</g>
<g>
</g>
<g>
</g>
<g>
</g>
<g>
</g>
<g>
</g>
<g>
</g>
<g>
</g>
<g>
</g>
</svg>
