<?xml version="1.0" encoding="iso-8859-1"?>
<!-- Generator: Adobe Illustrator 19.0.0, SVG Export Plug-In . SVG Version: 6.00 Build 0)  -->
<svg version="1.1" id="Layer_1" xmlns="http://www.w3.org/2000/svg" xmlns:xlink="http://www.w3.org/1999/xlink" x="0px" y="0px"
	 viewBox="0 0 374.145 374.145" style="enable-background:new 0 0 374.145 374.145;" xml:space="preserve">
<g>
	<circle cx="108.75" cy="67.982" r="60"/>
	<path d="M274.715,167.303c-54.826,0-99.43,44.604-99.43,99.429s44.604,99.43,99.43,99.43s99.43-44.604,99.43-99.43
		S329.541,167.303,274.715,167.303z M311.797,315.039l-37.082-16.573l-37.082,16.573l4.304-40.388l-27.222-30.145l39.742-8.388
		l20.258-35.204l20.258,35.204l39.742,8.388l-27.222,30.145L311.797,315.039z"/>
	<path d="M108.75,157.982C48.689,157.982,0,206.671,0,266.732h145.285c0-32.364,11.941-61.991,31.647-84.709
		C158.281,166.99,134.571,157.982,108.75,157.982z"/>
</g>
<g>
</g>
<g>
</g>
<g>
</g>
<g>
</g>
<g>
</g>
<g>
</g>
<g>
</g>
<g>
</g>
<g>
</g>
<g>
</g>
<g>
</g>
<g>
</g>
<g>
</g>
<g>
</g>
<g>
</g>
</svg>
