<?xml version="1.0" encoding="iso-8859-1"?>
<!-- Generator: Adobe Illustrator 19.0.0, SVG Export Plug-In . SVG Version: 6.00 Build 0)  -->
<svg version="1.1" id="Layer_1" xmlns="http://www.w3.org/2000/svg" xmlns:xlink="http://www.w3.org/1999/xlink" x="0px" y="0px"
	 viewBox="0 0 446.908 446.908" style="enable-background:new 0 0 446.908 446.908;" xml:space="preserve">
<g>
	<circle cx="263.46" cy="81.606" r="44.138"/>
	<circle cx="108.75" cy="69.731" r="60"/>
	<path d="M314.659,174.281c-13.874-11.57-31.72-18.538-51.198-18.538c-19.936,0-38.154,7.309-52.162,19.372
		c15.423,16.925,26.715,37.671,32.29,60.628h32.305C280.838,210.752,294.996,189.04,314.659,174.281z"/>
	<path d="M375.439,183.998c-39.408,0-71.47,32.061-71.47,71.469v82.007c0,23.839,19.395,43.234,43.234,43.234
		s43.234-19.395,43.234-43.234v-82.007h-30v82.007c0,7.297-5.937,13.234-13.234,13.234s-13.234-5.937-13.234-13.234v-82.007
		c0-22.866,18.604-41.469,41.47-41.469s41.469,18.603,41.469,41.469v82.006c0,38.435-31.27,69.704-69.704,69.704
		s-69.703-31.269-69.703-69.704l-0.001-71.729h-30l0.001,71.729c0,54.977,44.727,99.704,99.703,99.704s99.704-44.727,99.704-99.704
		v-82.006C446.908,216.059,414.848,183.998,375.439,183.998z"/>
	<path d="M108.75,159.731C48.689,159.731,0,208.42,0,268.481h217.5C217.5,208.42,168.811,159.731,108.75,159.731z"/>
</g>
<g>
</g>
<g>
</g>
<g>
</g>
<g>
</g>
<g>
</g>
<g>
</g>
<g>
</g>
<g>
</g>
<g>
</g>
<g>
</g>
<g>
</g>
<g>
</g>
<g>
</g>
<g>
</g>
<g>
</g>
</svg>
