<?xml version="1.0" encoding="iso-8859-1"?>
<!-- Generator: Adobe Illustrator 19.0.0, SVG Export Plug-In . SVG Version: 6.00 Build 0)  -->
<svg version="1.1" id="Layer_1" xmlns="http://www.w3.org/2000/svg" xmlns:xlink="http://www.w3.org/1999/xlink" x="0px" y="0px"
	 viewBox="0 0 418.125 418.125" style="enable-background:new 0 0 418.125 418.125;" xml:space="preserve">
<g>
	<circle cx="265.656" cy="71.875" r="44.138"/>
	<path d="M110.945,150c-60.061,0-108.75,48.689-108.75,108.75h217.5C219.695,198.689,171.006,150,110.945,150z"/>
	<circle cx="110.945" cy="60" r="60"/>
	<path d="M313.929,162.227c-13.418-10.171-30.138-16.214-48.273-16.214c-19.913,0-38.111,7.292-52.113,19.329
		c15.878,17.402,26.867,38.186,32.28,60.671h4.695C258.544,194.963,282.951,170.435,313.929,162.227z"/>
	<path d="M395.721,277.289v-29.012c0-32.539-26.472-59.011-59.011-59.011s-59.012,26.472-59.012,59.011v29.012H257.49v140.836
		H415.93V277.289H395.721z M365.721,277.289h-58.022v-29.012c0-15.997,13.015-29.011,29.012-29.011
		c15.996,0,29.011,13.014,29.011,29.011V277.289z"/>
</g>
<g>
</g>
<g>
</g>
<g>
</g>
<g>
</g>
<g>
</g>
<g>
</g>
<g>
</g>
<g>
</g>
<g>
</g>
<g>
</g>
<g>
</g>
<g>
</g>
<g>
</g>
<g>
</g>
<g>
</g>
</svg>
