<?xml version="1.0" encoding="iso-8859-1"?>
<!-- Generator: Adobe Illustrator 19.0.0, SVG Export Plug-In . SVG Version: 6.00 Build 0)  -->
<svg version="1.1" id="Layer_1" xmlns="http://www.w3.org/2000/svg" xmlns:xlink="http://www.w3.org/1999/xlink" x="0px" y="0px"
	 viewBox="0 0 429.693 429.693" style="enable-background:new 0 0 429.693 429.693;" xml:space="preserve">
<path d="M429.693,155.731C429.693,73.996,363.197,7.5,281.462,7.5c-23.944,0-46.576,5.714-66.615,15.838
	C194.807,13.214,172.175,7.5,148.231,7.5C66.496,7.5,0,73.996,0,155.731c0,76.672,58.514,139.933,133.231,147.476v47.601H91.663v30
	h41.568v41.385h30v-41.385H204.8v-30h-41.569v-47.601c18.4-1.857,35.813-7.1,51.615-15.083
	c15.803,7.984,33.216,13.226,51.615,15.083v47.601h-41.568v30h41.568v41.385h30v-41.385h41.568v-30h-41.568v-47.601
	C371.179,295.664,429.693,232.403,429.693,155.731z M148.231,273.962C83.038,273.962,30,220.924,30,155.731
	S83.038,37.5,148.231,37.5c12.805,0,25.138,2.054,36.696,5.837c-31.63,27.206-51.696,67.499-51.696,112.394
	s20.066,85.188,51.696,112.394C173.369,271.908,161.036,273.962,148.231,273.962z M266.462,155.731
	c0,40.503-20.476,76.309-51.615,97.625c-31.14-21.316-51.616-57.122-51.616-97.625s20.476-76.309,51.616-97.625
	C245.986,79.422,266.462,115.228,266.462,155.731z M296.462,155.731c0-44.895-20.066-85.188-51.696-112.394
	c11.558-3.783,23.89-5.837,36.696-5.837c65.193,0,118.231,53.038,118.231,118.231s-53.038,118.231-118.231,118.231
	c-12.805,0-25.138-2.054-36.696-5.837C276.396,240.919,296.462,200.626,296.462,155.731z"/>
<g>
</g>
<g>
</g>
<g>
</g>
<g>
</g>
<g>
</g>
<g>
</g>
<g>
</g>
<g>
</g>
<g>
</g>
<g>
</g>
<g>
</g>
<g>
</g>
<g>
</g>
<g>
</g>
<g>
</g>
</svg>
