<?xml version="1.0" encoding="iso-8859-1"?>
<!-- Generator: Adobe Illustrator 19.0.0, SVG Export Plug-In . SVG Version: 6.00 Build 0)  -->
<svg version="1.1" id="Layer_1" xmlns="http://www.w3.org/2000/svg" xmlns:xlink="http://www.w3.org/1999/xlink" x="0px" y="0px"
	 viewBox="0 0 512 512" style="enable-background:new 0 0 512 512;" xml:space="preserve">
<g>
	<g>
		<path d="M177.231,364.308H0v39.385h177.231c18.097,0,32.82,14.723,32.82,32.82s-14.723,32.821-32.82,32.821
			s-32.82-14.723-32.82-32.821h-39.385c0,39.814,32.391,72.205,72.205,72.205s72.205-32.391,72.205-72.205
			S217.045,364.308,177.231,364.308z"/>
	</g>
</g>
<g>
	<g>
		<path d="M426.667,173.949c0-94.257-76.41-170.667-170.667-170.667S85.333,79.692,85.333,173.949
			C38.206,173.949,0,212.154,0,259.282c0,4.465,0.347,8.848,1.007,13.128H256c18.097,0,32.82-14.723,32.82-32.821
			c0-18.097-14.723-32.82-32.82-32.82s-32.82,14.723-32.82,32.82h-39.385c0-39.814,32.391-72.205,72.205-72.205
			s72.205,32.391,72.205,72.205S295.814,311.795,256,311.795H18.097c15.619,19.969,39.919,32.821,67.236,32.821h341.333
			c47.128,0,85.333-38.206,85.333-85.333S473.794,173.949,426.667,173.949z"/>
	</g>
</g>
<g>
</g>
<g>
</g>
<g>
</g>
<g>
</g>
<g>
</g>
<g>
</g>
<g>
</g>
<g>
</g>
<g>
</g>
<g>
</g>
<g>
</g>
<g>
</g>
<g>
</g>
<g>
</g>
<g>
</g>
</svg>
