<?xml version="1.0" encoding="iso-8859-1"?>
<!-- Generator: Adobe Illustrator 19.0.0, SVG Export Plug-In . SVG Version: 6.00 Build 0)  -->
<svg version="1.1" id="Layer_1" xmlns="http://www.w3.org/2000/svg" xmlns:xlink="http://www.w3.org/1999/xlink" x="0px" y="0px"
	 viewBox="0 0 512 512" style="enable-background:new 0 0 512 512;" xml:space="preserve">
<g>
	<g>
		<rect x="63.247" y="415.624" width="385.506" height="96.376"/>
	</g>
</g>
<g>
	<g>
		<path d="M341.953,62.427c-2.762-8.509-17.441-11.018-22.593-18.1c-5.206-7.151-3.094-21.87-10.245-27.076
			c-7.081-5.153-20.401,1.37-28.908-1.393C271.997,13.193,265.097,0,256,0c-9.098,0-15.997,13.193-24.206,15.859
			c-8.508,2.762-21.828-3.76-28.908,1.395c-7.152,5.204-5.041,19.921-10.245,27.073c-5.153,7.081-19.829,9.592-22.592,18.098
			c-2.667,8.209,7.645,18.83,7.645,27.927c0,9.098-10.312,19.719-7.648,27.929c0.283,0.872,0.704,1.675,1.213,2.432
			c1.659-0.755,3.327-1.493,5.012-2.205C201.544,107.821,228.368,102.4,256,102.4c27.631,0,54.456,5.421,79.729,16.108
			c1.683,0.712,3.352,1.449,5.01,2.203c0.511-0.758,0.931-1.561,1.214-2.434c2.665-8.208-7.647-18.828-7.647-27.925
			S344.618,70.636,341.953,62.427z"/>
	</g>
</g>
<g>
	<g>
		<path d="M256,138.541c-93.148,0-168.659,75.511-168.659,168.659v72.282h337.318V307.2
			C424.659,214.052,349.148,138.541,256,138.541z"/>
	</g>
</g>
<g>
</g>
<g>
</g>
<g>
</g>
<g>
</g>
<g>
</g>
<g>
</g>
<g>
</g>
<g>
</g>
<g>
</g>
<g>
</g>
<g>
</g>
<g>
</g>
<g>
</g>
<g>
</g>
<g>
</g>
</svg>
