<svg width="103" height="104" viewBox="0 0 103 104" fill="none" xmlns="http://www.w3.org/2000/svg">
<path d="M3.41493 72.2679C1.92767 74.8061 0.809626 77.5655 0.0635232 80.4096C-0.261659 81.647 0.710031 82.6264 1.87485 82.7194C7.57241 83.1734 13.2958 82.4096 18.6534 80.3843C23.9674 78.3749 29.2358 75.276 33.078 71.031C35.0429 68.8604 36.6974 66.1621 36.9208 63.1821C37.0413 61.5727 36.4767 59.856 35.2184 58.8001C33.9765 57.7569 32.3671 57.3415 30.7858 57.183C30.3731 57.1412 29.9599 57.1318 29.5472 57.1373C18.9813 56.4474 8.62334 63.3813 3.41493 72.2679Z" fill="#EFD580"/>
<path d="M26.9995 75.1625C26.4597 76.1617 25.9865 77.1912 25.5816 78.247C23.9381 81.9412 22.568 85.7719 22.0959 89.8067C21.7938 92.3845 21.9193 94.9771 22.5344 97.5026C22.8046 98.6124 24.0333 98.9217 24.9521 98.476C30.7944 95.6429 36.213 91.8508 40.8277 87.2762C44.249 83.8841 47.4584 79.5637 48.1044 74.659C48.4329 72.1671 48.2002 69.5843 46.9269 67.368C45.5657 64.9982 43.1453 63.4724 40.3683 63.9104C38.9823 64.1289 37.6232 64.7033 36.3439 65.4428C36.1712 65.3812 35.9769 65.3663 35.7723 65.4175C31.1421 66.5955 28.8923 71.0776 26.9995 75.1625Z" fill="#E7BE36"/>
<path d="M45.1883 67.8961C44.517 68.5668 43.9882 69.3426 43.5569 70.1757C42.4085 71.8907 41.9887 74.2077 41.6399 76.183C41.3461 77.5129 41.1067 78.8675 40.9505 80.2304C40.6671 82.0654 40.4448 83.9109 40.3909 85.7536C40.2126 91.8363 42.1175 97.9047 45.6026 102.88C46.122 103.622 47.2665 104.14 48.1034 103.514C52.1602 100.479 55.0224 96.166 57.2222 91.6553C59.2927 87.4103 60.7057 82.6982 60.1885 77.9322C59.6575 73.0357 57.0214 67.8532 52.1519 66.0462C49.6786 65.1285 46.993 66.0941 45.1883 67.8961Z" fill="#EFD580"/>
<path d="M67.504 95.6514C69.9107 97.3439 72.5688 98.6859 75.3414 99.6647C76.5475 100.091 77.6033 99.2042 77.7926 98.0509C78.7164 92.4106 78.4287 86.6432 76.8534 81.1371C75.2908 75.675 72.6387 70.1678 68.726 65.9878C66.7254 63.8502 64.1729 61.9778 61.2215 61.509C59.6275 61.2559 57.8701 61.6762 56.7136 62.8427C55.5719 63.9938 55.0238 65.5636 54.735 67.1267C54.6596 67.5345 54.6161 67.9455 54.5869 68.357C53.0254 78.8294 59.079 89.7261 67.504 95.6514Z" fill="#E7BE36"/>
<path d="M72.3403 72.3872C73.2906 73.0079 74.2777 73.5647 75.2961 74.0561C78.8418 75.9995 82.5464 77.6815 86.5278 78.4859C89.0721 79.0004 91.6664 79.0895 94.2337 78.6862C95.3628 78.5079 95.7716 77.3095 95.4035 76.3565C93.0639 70.2997 89.7334 64.5862 85.5561 59.6094C82.4584 55.9185 78.4187 52.363 73.5844 51.3131C71.1276 50.78 68.5344 50.7981 66.2208 51.8837C63.7458 53.0441 62.0253 55.3292 62.2322 58.1337C62.3351 59.5329 62.7956 60.9349 63.4267 62.2714C63.3508 62.4381 63.3194 62.6301 63.3541 62.8387C64.1448 67.5502 68.426 70.1627 72.3403 72.3872Z" fill="#EFD580"/>
<path d="M66.604 53.6588C67.2169 54.3845 67.9465 54.9749 68.7405 55.474C70.3548 56.7599 72.6289 57.3701 74.569 57.8812C75.8703 58.2834 77.2002 58.6345 78.546 58.903C80.3508 59.3377 82.1714 59.7113 84.0031 59.9176C90.0506 60.5982 96.2555 59.2023 101.502 56.1409C102.284 55.6847 102.896 54.587 102.341 53.7012C99.6526 49.4072 95.5903 46.1978 91.2771 43.6321C87.2181 41.2183 82.6391 39.4201 77.8467 39.5412C72.9233 39.665 67.5405 41.8637 65.3368 46.567C64.2171 48.9555 64.9577 51.7121 66.604 53.6588Z" fill="#E7BE36"/>
<path d="M94.2352 32.1915C95.723 29.6528 96.8405 26.8929 97.5871 24.0488C97.9118 22.8119 96.94 21.8325 95.7752 21.7395C90.0782 21.285 84.3543 22.0487 78.9973 24.0746C73.6832 26.0835 68.4143 29.1829 64.5726 33.4273C62.6078 35.598 60.9533 38.2968 60.7299 41.2768C60.6088 42.8862 61.1739 44.6029 62.4317 45.6588C63.6736 46.7015 65.2835 47.118 66.8643 47.2764C67.2775 47.3177 67.6907 47.3265 68.1034 47.3221C78.6688 48.0121 89.0273 41.0771 94.2352 32.1915Z" fill="#EFD580"/>
<path d="M70.6498 29.2957C71.1896 28.2971 71.6627 27.267 72.0671 26.2117C73.7112 22.5175 75.0807 18.6863 75.5534 14.6521C75.8554 12.0743 75.7294 9.48109 75.1148 6.95556C74.8447 5.84576 73.616 5.53709 72.6972 5.98277C66.8549 8.81532 61.4357 12.6075 56.8216 17.182C53.3997 20.5741 50.1908 24.8945 49.5443 29.7992C49.2164 32.2911 49.4491 34.875 50.7218 37.0907C52.0836 39.4606 54.5035 40.9863 57.281 40.5483C58.6665 40.3299 60.0255 39.7549 61.3053 39.016C61.4781 39.0776 61.6718 39.093 61.8765 39.0407C66.5071 37.8627 68.7565 33.3806 70.6498 29.2957Z" fill="#E7BE36"/>
<path d="M53.1386 35.8979C53.8104 35.2266 54.3392 34.4513 54.7706 33.6183C55.9189 31.9033 56.3381 29.5857 56.6875 27.6104C56.9808 26.2805 57.2207 24.9259 57.377 23.563C57.6603 21.7285 57.8821 19.8825 57.936 18.0404C58.1148 11.9571 56.21 5.88927 52.7248 0.913601C52.2054 0.172447 51.061 -0.346413 50.2241 0.279739C46.1667 3.31422 43.3045 7.62797 41.1047 12.1387C39.0347 16.3837 37.6218 21.0958 38.139 25.8613C38.6699 30.7577 41.3061 35.9403 46.1755 37.7472C48.6488 38.6655 51.3344 37.6993 53.1386 35.8979Z" fill="#EFD580"/>
<path d="M59.0814 35.3812C55.1722 32.408 50.2524 30.9193 45.3842 31.4721C40.709 32.0026 36.3308 34.602 33.4641 38.3433C31.5262 40.8719 30.6444 43.863 30.4576 46.9444C30.1565 48.2541 30.0005 49.6013 30 50.92C29.9974 56.5828 32.4555 61.9104 36.133 66.0988C43.9357 74.9876 56.521 71.6381 63.3923 63.2724C66.7996 59.1242 68.9091 53.483 67.6151 48.0952C66.3952 43.0168 63.1805 38.499 59.0814 35.3812Z" fill="#553E2D"/>
<path d="M30.1353 88.409C29.9603 88.228 29.7496 88.1003 29.5042 88.0255C29.3429 87.9925 29.1817 87.9595 29.0205 87.9265C28.8164 87.9116 28.6199 87.9369 28.4274 87.9837C28.2761 88.0315 28.1523 88.0701 28.0428 88.1119C28.0384 88.1141 28.034 88.1146 28.0296 88.1163C28.0202 88.1196 28.0114 88.1229 28.0026 88.1262C28.0125 88.1223 28.0224 88.1196 28.0323 88.1157C27.8716 88.179 27.7286 88.2604 27.5333 88.4321C27.3621 88.5829 27.2983 88.6759 27.2119 88.7975C27.1002 88.9202 27.0067 89.0544 26.9401 89.2079C26.9572 89.1733 26.9737 89.1397 26.9907 89.1056C26.9385 89.2085 26.8763 89.3048 26.8031 89.3939C26.7305 89.5408 26.6579 89.6877 26.5852 89.8341C26.4933 90.0729 26.4647 90.3155 26.4999 90.5637C26.4873 90.7364 26.5192 90.901 26.5946 91.0572C26.6551 91.3114 26.7778 91.5359 26.9616 91.7301C27.0865 91.8391 27.2119 91.948 27.3368 92.0575C27.4837 92.1296 27.6301 92.2022 27.777 92.2749C28.0158 92.3668 28.259 92.3959 28.5071 92.3607C28.7652 92.3684 29.0112 92.3095 29.2439 92.1846C29.3094 92.1544 29.3721 92.1203 29.4326 92.0812C29.6059 91.9695 29.782 91.8578 29.9487 91.7351C29.9779 91.7136 30.0065 91.6905 30.0346 91.6669C30.3548 91.3934 30.538 91.0336 30.6888 90.649C30.7323 90.5384 30.7444 90.4426 30.7708 90.3144C30.8445 90.0657 30.8517 89.8115 30.7939 89.5535C30.7779 89.4616 30.7493 89.373 30.708 89.2877C30.6761 89.1931 30.6514 89.0957 30.6106 89.0038C30.5034 88.7611 30.3443 88.5625 30.1353 88.409Z" fill="#E7BE36"/>
<path d="M87.8796 70.9119C87.654 70.6582 87.3806 70.4761 87.0598 70.3644C86.9789 70.3473 86.8986 70.3308 86.8177 70.3143C86.717 70.2142 86.6097 70.1217 86.4843 70.0546C86.2906 69.9512 86.0936 69.8521 85.8906 69.7679C85.7431 69.7377 85.5957 69.7069 85.4487 69.6766C85.2963 69.6849 85.1445 69.6937 84.9921 69.7014C84.8424 69.7514 84.6927 69.801 84.5431 69.851C84.3202 69.9495 84.1392 70.0942 83.9989 70.2857C83.8828 70.3886 83.7997 70.5135 83.7486 70.6604C83.6638 70.7886 83.6154 70.93 83.6033 71.0835C83.5532 71.2304 83.5422 71.3796 83.5703 71.5325C83.5631 71.7697 83.6171 71.9958 83.7321 72.2098C83.7337 72.2137 83.7348 72.2175 83.7359 72.2214C83.7744 72.3413 83.8184 72.4585 83.8795 72.5675C84.0325 72.7991 84.1766 73.0385 84.3461 73.258C84.3835 73.307 84.4231 73.3543 84.4672 73.3972C84.5326 73.461 84.6074 73.5216 84.674 73.5788C84.7263 73.625 84.8105 73.7053 84.8815 73.7593C84.898 73.7719 84.9156 73.7818 84.9332 73.7917C85.0856 73.8781 85.2853 73.997 85.4757 74.0454C85.6226 74.0828 85.8223 74.1241 85.9715 74.1477C85.9814 74.1488 85.9902 74.1505 85.9995 74.1516C86.0221 74.1543 86.0446 74.156 86.0677 74.156C86.2686 74.1549 86.4744 74.1538 86.6736 74.118C86.6939 74.1147 86.7148 74.1098 86.7346 74.1043C86.9167 74.0536 87.1016 73.9876 87.2793 73.9238C87.5225 73.8159 87.7212 73.6575 87.8747 73.4484C88.0557 73.2734 88.1834 73.0627 88.2576 72.8173C88.3501 72.5774 88.3787 72.3331 88.3435 72.0838C88.3517 71.8241 88.2923 71.5771 88.1668 71.3427C88.0711 71.1991 87.9759 71.0555 87.8796 70.9119Z" fill="#F6F6F9"/>
<path d="M87.1524 65.4711C87.1359 65.4507 87.1178 65.4315 87.098 65.4139C86.9819 65.273 86.8405 65.169 86.6738 65.1035C86.5213 65.0122 86.3552 64.9627 86.1741 64.955L85.8203 64.9748C85.6316 65.0029 85.4649 65.0755 85.3191 65.1921C85.2085 65.2466 85.1188 65.3247 85.05 65.4276C84.9218 65.5509 84.8311 65.7005 84.7788 65.8744C84.7551 65.9889 84.7315 66.1027 84.7078 66.2172C84.6985 66.3487 84.71 66.4758 84.7359 66.6007C84.7386 66.6095 84.7392 66.6194 84.7414 66.6282C84.7419 66.6343 84.7436 66.6403 84.7447 66.6458C84.7491 66.6695 84.7562 66.692 84.7573 66.7163C84.7568 66.7058 84.7562 66.6959 84.7557 66.6849C84.77 66.7575 84.7865 66.8301 84.8168 66.8995C84.8613 67.086 84.951 67.25 85.0853 67.3919C85.1771 67.4723 85.2685 67.552 85.3604 67.6318C85.378 67.6434 85.3983 67.6483 85.416 67.6593C85.5106 67.7232 85.6135 67.7743 85.7246 67.8128C85.8897 67.8767 86.0575 67.8959 86.2286 67.8723C86.4074 67.8772 86.5774 67.8371 86.7387 67.7507C86.8306 67.7055 86.9109 67.6472 86.9879 67.5856C86.9912 67.5828 86.9956 67.5806 86.9989 67.5779C87.0572 67.5295 87.1068 67.4717 87.1563 67.4134C87.1668 67.4007 87.18 67.3914 87.1899 67.3787C87.2014 67.3672 87.2086 67.3529 87.2196 67.3408C87.2322 67.3237 87.2493 67.3116 87.2614 67.2934C87.2658 67.2874 87.268 67.2813 87.2724 67.2753C87.3577 67.1696 87.4275 67.0541 87.4688 66.9187L87.5415 66.5666C87.5596 66.3135 87.5134 66.0736 87.4028 65.8452C87.3274 65.7154 87.2465 65.5877 87.1524 65.4711Z" fill="#F6F6F9"/>
<path d="M71.2283 11.3309C70.9966 11.1779 70.743 11.091 70.4662 11.0684C70.1806 11.0481 69.9088 11.1009 69.6508 11.2253C69.4676 11.3155 69.3179 11.4448 69.1842 11.5912C69.0984 11.683 69.0059 11.7689 68.9107 11.8503C68.8541 11.8987 68.7957 11.945 68.7385 11.9923C68.5135 12.1782 68.4276 12.3648 68.2725 12.5722C68.1212 12.7824 68.0309 13.014 68.0001 13.2655C67.928 13.5109 67.9198 13.7618 67.9775 14.0171C68.0326 14.1833 68.0876 14.3494 68.1426 14.5156C68.2516 14.7616 68.4122 14.9624 68.6246 15.1181C68.739 15.2468 68.8777 15.3398 69.0406 15.396C69.2579 15.5264 69.4956 15.5973 69.7542 15.6078C69.9231 15.5984 70.0921 15.5891 70.261 15.5797C70.6131 15.5115 70.9245 15.3596 71.1953 15.1236C71.4627 14.8369 71.806 14.4864 71.9078 14.0881C71.9711 13.841 72.0354 13.5907 72.0415 13.3348C72.047 13.096 72.0382 12.8512 71.9859 12.6168C71.9359 12.3912 71.8561 12.1711 71.7752 11.956C71.6486 11.6985 71.466 11.4905 71.2283 11.3309Z" fill="#E7BE36"/>
<path d="M10.7175 74.2989C10.334 73.8642 9.68253 73.6072 9.1048 73.7442C9.07178 73.7525 9.03877 73.7596 9.0052 73.7679C8.83628 73.807 8.67122 73.8609 8.51055 73.9291C8.37575 74.0188 8.24094 74.1085 8.10613 74.1982C8.04451 74.2526 7.98894 74.3148 7.93172 74.3742C7.71603 74.596 7.47228 74.8144 7.30886 75.0752C7.22192 75.2128 7.13829 75.3492 7.06291 75.4934C7.02495 75.5649 6.98753 75.637 6.95011 75.7085C6.94076 75.7267 6.9314 75.7448 6.9215 75.7625C6.801 75.9308 6.72892 76.1157 6.70416 76.3165C6.64639 76.5124 6.64033 76.7127 6.686 76.9168C6.68655 76.9201 6.68931 76.9229 6.68986 76.9262C6.70196 77.0225 6.72563 77.1166 6.76469 77.2073C6.80871 77.3922 6.89729 77.5551 7.03099 77.6959C7.27804 77.9529 7.60653 78.1482 7.97188 78.1631C7.97903 78.1631 7.98673 78.1636 7.99444 78.1642C8.03185 78.1719 8.06872 78.1796 8.10558 78.1867C8.39005 78.2209 8.69047 78.1378 8.94247 78.0151C9.0129 77.981 9.08168 77.9446 9.15156 77.9089C9.29792 77.8351 9.43602 77.7526 9.57578 77.6668C9.77276 77.5463 9.96809 77.4307 10.1348 77.2728C10.1942 77.2161 10.2542 77.1595 10.3136 77.1034C10.3731 77.0461 10.4341 76.9905 10.4919 76.9317C10.7247 76.6956 10.9348 76.459 11.024 76.1289C11.0355 76.0871 11.0454 76.0453 11.0559 76.0034C11.1538 75.7157 11.1753 75.423 11.1208 75.1236C11.0603 74.8128 10.926 74.5377 10.7175 74.2989Z" fill="#F6F6F9"/>
<path d="M15.2386 74.8428C15.1087 74.6975 14.9519 74.5924 14.7681 74.528C14.7247 74.5088 14.6762 74.4994 14.6306 74.4868C14.6174 74.4829 14.6042 74.4791 14.591 74.4752C14.4407 74.4174 14.2878 74.3998 14.1315 74.4218C14.0704 74.4163 14.0105 74.4207 13.9516 74.435C13.7337 74.4774 13.5417 74.5715 13.3739 74.7173C13.3342 74.7443 13.2941 74.7723 13.2545 74.7998C13.1802 74.8505 13.1175 74.917 13.0608 74.9897C13.0217 75.0172 12.9832 75.0441 12.9441 75.0722C12.8247 75.1784 12.7394 75.3066 12.6866 75.4574C12.6355 75.6087 12.6239 75.7627 12.6525 75.9195C12.6844 76.0835 12.7549 76.2277 12.8643 76.3531C12.9705 76.4725 13.0993 76.5584 13.2501 76.6106C13.299 76.6216 13.348 76.6321 13.397 76.6425C13.4547 76.675 13.5147 76.7047 13.5785 76.7262C13.6616 76.7553 13.7981 76.7718 13.9032 76.7933C13.956 76.8043 14.0088 76.8159 14.0616 76.8252C14.1799 76.8467 14.3026 76.8313 14.4204 76.8082C14.6658 76.7603 14.8391 76.6546 15.0306 76.5C15.068 76.4703 15.1087 76.4417 15.1412 76.407C15.287 76.2777 15.3915 76.1204 15.4554 75.9361C15.5181 75.7523 15.5324 75.5641 15.4972 75.3721C15.4587 75.1723 15.3723 74.9963 15.2386 74.8428Z" fill="#EFD580"/>
<path d="M72.4004 88.2528C72.3866 88.2259 72.3734 88.2 72.3602 88.1731C72.2485 87.92 72.0834 87.7136 71.8656 87.5541C71.7313 87.4148 71.5695 87.3158 71.394 87.2377C71.3858 87.23 71.377 87.2223 71.3682 87.2151C71.2394 87.1507 71.1101 87.0875 70.9814 87.0236C70.8405 86.9945 70.6996 86.9653 70.5588 86.9367C70.3304 86.9108 70.1137 86.9422 69.9073 87.0319C69.7549 87.0611 69.6207 87.1265 69.504 87.2289C69.3675 87.296 69.257 87.3928 69.1717 87.5188C69.0611 87.6179 68.9813 87.7373 68.9329 87.8776C68.9307 87.8809 68.9301 87.8842 68.9279 87.8875C68.9147 87.9056 68.8988 87.9216 68.8861 87.9409C68.7309 88.1565 68.6379 88.3937 68.6066 88.6523C68.5323 88.9043 68.5246 89.1613 68.5835 89.4232C68.5868 89.4452 68.5906 89.4672 68.5939 89.4892C68.6093 89.5849 68.6253 89.6807 68.6457 89.7753C68.7001 90.0257 68.7981 90.2755 68.8933 90.5148C68.929 90.6061 68.967 90.6964 69.0066 90.7855C69.0825 90.9572 69.1645 91.1272 69.2526 91.2939C69.3731 91.5228 69.504 91.7539 69.6817 91.9421C70.0702 92.3531 70.5736 92.7052 71.164 92.7102C71.5195 92.7355 71.8579 92.6706 72.1786 92.5149C72.4989 92.3575 72.758 92.1308 72.9567 91.8348C73.0408 91.678 73.1201 91.5184 73.1938 91.3555C73.2285 91.1872 73.2637 91.0194 73.2983 90.851C73.3303 90.5808 73.2939 90.4389 73.245 90.2259C73.185 89.9706 73.1063 89.7258 72.9847 89.4963C72.8961 89.3302 72.8136 89.1613 72.7377 88.989C72.6645 88.8245 72.6084 88.6501 72.5264 88.4905C72.4857 88.4108 72.4411 88.3326 72.4004 88.2528Z" fill="#EFD580"/>
<path d="M91.7041 26.2664C91.4681 26.021 91.1698 25.7872 90.8386 25.6887C90.6686 25.6535 90.498 25.6183 90.328 25.5836C90.0524 25.5517 89.7899 25.5902 89.5406 25.6986C89.2111 25.8081 89.0542 25.8587 88.7544 26.1267C88.7214 26.1564 88.6894 26.1867 88.657 26.2164C88.5013 26.3605 88.3395 26.5008 88.1888 26.6494C87.9395 26.8959 87.7387 27.1815 87.5345 27.4637C87.474 27.5468 87.4135 27.6304 87.353 27.7141C87.1521 27.9914 87.0316 28.3314 87.0003 28.6775C86.9513 28.8943 86.9342 29.1138 86.975 29.3372C87.0327 29.6338 87.1609 29.8963 87.359 30.1235C87.7381 30.5532 88.2828 30.7172 88.838 30.6545C89.1472 30.6539 89.4543 30.5884 89.7299 30.4305C89.8119 30.3843 89.8933 30.3381 89.9748 30.2913C90.2895 30.1119 90.6075 29.9364 90.8969 29.7169C91.0582 29.5953 91.2056 29.4489 91.358 29.3169C91.5528 29.1474 91.7316 28.9664 91.8725 28.7463C92.3457 28.0068 92.3369 26.9217 91.7041 26.2664Z" fill="#F6F6F9"/>
<path d="M85.8191 27.1168C85.7338 26.9413 85.572 26.7394 85.4009 26.6359C85.3756 26.6211 85.1583 26.5132 85.1324 26.5044C85.1033 26.494 84.8578 26.4439 84.8259 26.4401C84.7561 26.4318 84.679 26.4461 84.6042 26.4549C84.4777 26.4577 84.3539 26.4764 84.2361 26.5275C84.1178 26.5501 84.0127 26.6013 83.9219 26.6805C83.917 26.6838 83.912 26.6877 83.9071 26.691C83.901 26.6937 83.8955 26.697 83.8895 26.6998C83.7888 26.7669 83.6881 26.8346 83.5874 26.9011C83.391 27.059 83.4097 27.0767 83.3409 27.195C83.3354 27.2043 83.3271 27.212 83.3216 27.2208C83.2611 27.2907 83.2006 27.36 83.1401 27.4294C83.095 27.5207 83.0498 27.6115 83.0047 27.7028C82.9844 27.8024 82.964 27.902 82.9431 28.0016C82.9249 28.1622 82.9475 28.3163 83.0108 28.4616C83.0317 28.5694 83.0779 28.6641 83.15 28.7466C83.1973 28.8434 83.2655 28.921 83.3547 28.9815C83.4245 29.0597 83.5087 29.1158 83.6078 29.1505C83.7404 29.2302 83.8856 29.2731 84.043 29.2797C84.0996 29.288 84.1563 29.2924 84.2135 29.2908C84.3775 29.2864 84.5486 29.2858 84.7109 29.2539C84.7186 29.2528 84.7264 29.2511 84.7335 29.2495C84.8485 29.2121 84.9635 29.173 85.0785 29.135C85.2562 29.058 85.3123 29.0096 85.4042 28.9083C85.4989 28.8038 85.5968 28.6993 85.6815 28.5865C85.6997 28.5617 85.7173 28.5364 85.7333 28.5094C85.7635 28.4561 85.791 28.4005 85.8158 28.3438C85.9038 28.198 85.9517 28.0379 85.9589 27.8635L85.9396 27.5229C85.9374 27.5097 85.9297 27.4976 85.9264 27.4844C85.9258 27.4668 85.9247 27.4486 85.9236 27.431C85.8912 27.3259 85.8565 27.2203 85.8191 27.1168Z" fill="#F6F6F9"/>
<path d="M52.3278 6.11923C52.1544 5.7902 51.8815 5.52994 51.5085 5.40119C51.0876 5.25593 50.6633 5.32416 50.293 5.53104C50.2479 5.54645 50.2028 5.56076 50.1582 5.57617C49.9381 5.67301 49.7588 5.8166 49.6201 6.00588C49.5546 6.0642 49.4991 6.13024 49.4534 6.20397C49.4176 6.25899 49.3846 6.31511 49.3522 6.37234C49.323 6.42351 49.2944 6.47522 49.2674 6.52804C49.1843 6.69146 49.1035 6.85709 49.0237 7.0216C48.9703 7.13055 48.9681 7.20207 48.9389 7.34238C48.8944 7.55971 48.8762 7.7512 48.8812 7.97019C48.8817 8.0054 48.8834 8.04006 48.885 8.07528C48.8938 8.23979 48.9032 8.40431 48.912 8.56882C48.9609 8.74325 49.0182 8.91492 49.0842 9.08329C49.126 9.18728 49.1689 9.23294 49.2471 9.35014C49.3665 9.56803 49.5337 9.74355 49.7505 9.87616C49.7637 9.88661 49.7791 9.89266 49.7929 9.90256C49.8061 9.91412 49.8198 9.92623 49.8336 9.93779C49.86 9.95099 49.8864 9.9642 49.9128 9.9774C49.9486 9.99721 49.9844 10.0154 50.0218 10.0308L50.2298 10.1342C50.4449 10.2167 50.6639 10.2426 50.8873 10.2107C51.0424 10.2222 51.191 10.1936 51.3313 10.1254C51.487 10.0951 51.6251 10.028 51.7445 9.92403C51.8276 9.88331 51.8986 9.82774 51.963 9.76611C51.9822 9.75015 52.0015 9.73915 52.0207 9.72264C52.2788 9.49485 52.4367 9.21149 52.5616 8.89896C52.6414 8.69978 52.6738 8.48575 52.6898 8.27281C52.6997 8.13801 52.7223 8.0065 52.7388 7.87225C52.7294 7.70608 52.7201 7.53936 52.7113 7.37264C52.7096 7.35063 52.7063 7.32862 52.7014 7.30662C52.6964 7.2791 52.6909 7.25214 52.686 7.22518C52.676 7.16576 52.6672 7.10634 52.6595 7.04636C52.6513 6.98254 52.6463 6.91816 52.6397 6.85378C52.6139 6.57372 52.4928 6.33162 52.3278 6.11923Z" fill="#F6F6F9"/>
<path d="M48.8332 11.6815C48.7215 11.5698 48.5971 11.4691 48.4783 11.3662C48.3132 11.2578 48.1311 11.1962 47.9369 11.1725C47.9066 11.1577 47.8775 11.1401 47.8466 11.1246C47.6937 11.0729 47.5374 11.0608 47.3784 11.09C47.2122 11.1224 47.0659 11.1934 46.9382 11.3051C46.75 11.4707 46.6411 11.7139 46.6312 11.9626C46.6273 11.9742 46.6202 11.9841 46.6169 11.9957C46.5564 12.1723 46.5569 12.2234 46.5509 12.3505C46.5487 12.3918 46.5454 12.4331 46.5404 12.4743C46.509 12.7407 46.5569 12.9431 46.6439 13.1808C46.6708 13.2799 46.6989 13.3795 46.7467 13.4675C46.7803 13.5209 46.8155 13.5737 46.8518 13.6254C46.9008 13.7255 46.9723 13.807 47.0626 13.8714C47.0681 13.8785 47.0741 13.8862 47.0796 13.8939C47.1578 14.015 47.2518 14.1239 47.3751 14.2064C47.5308 14.3088 47.7008 14.3671 47.8868 14.382C48.2747 14.4111 48.6313 14.2235 48.853 13.9104C48.8855 13.8642 48.9108 13.8141 48.9388 13.7652C49.0549 13.6315 49.1419 13.4664 49.1952 13.3063C49.2833 13.0416 49.2684 12.8777 49.2431 12.6037C49.2376 12.542 49.2299 12.4793 49.2183 12.4188C49.1677 12.1442 49.0307 11.879 48.8332 11.6815Z" fill="#F6F6F9"/>
<path d="M49.5886 92.2687C49.5699 92.2439 49.5512 92.2208 49.5292 92.1982C49.4114 92.0772 49.254 91.9457 49.1214 91.8417C49.1049 91.8285 49.089 91.8164 49.0719 91.8043C48.5173 91.4241 47.7684 91.3845 47.1676 91.6777C46.8573 91.8301 46.6058 92.0502 46.4127 92.3374C46.3147 92.4866 46.2421 92.645 46.1888 92.8095C46.1805 92.8447 46.1689 92.8783 46.1541 92.9108C46.1618 92.8943 46.17 92.8783 46.1783 92.8613C46.1777 92.8624 46.1777 92.8635 46.1777 92.8646C46.1491 92.9273 46.126 92.9845 46.1106 93.0351C46.1134 93.0197 46.1167 93.0054 46.12 92.9906C46.0721 93.198 45.961 93.3889 45.9065 93.5958C45.7926 94.0305 45.7271 94.4767 45.8377 94.9235C45.8416 94.9389 45.846 94.9532 45.8509 94.9675C45.9103 95.1474 45.9703 95.3268 46.0297 95.5062C46.038 95.5265 46.0462 95.5469 46.0556 95.5667C46.1519 95.7378 46.2597 95.9012 46.3802 96.057C46.5596 96.2748 46.7775 96.4344 47.0344 96.5356C47.3018 96.6677 47.4928 96.7788 47.8295 96.7678C48.2026 96.7942 48.5575 96.726 48.8947 96.5626C49.2309 96.3975 49.5033 96.1587 49.7118 95.8484C49.9611 95.3741 49.9292 95.4803 50.0112 95.082C50.0788 94.8547 50.0832 94.6225 50.0475 94.3876C50.0486 94.3722 50.0486 94.3568 50.0497 94.3419C50.0563 94.2247 50.0728 94.1086 50.086 93.992C50.0915 93.9435 50.0992 93.8946 50.1008 93.8456C50.1074 93.6541 50.1052 93.456 50.0706 93.2695C49.9919 92.8409 49.8444 92.6109 49.5886 92.2687Z" fill="#F6F6F9"/>
<path d="M50.5835 89.1784C50.6061 89.0689 50.6292 88.9589 50.6517 88.8494C50.6259 88.966 50.6028 89.0727 50.5835 89.1784Z" fill="#F6F6F9"/>
<path d="M95.7761 50.9455C95.5505 50.6918 95.2776 50.5097 94.9574 50.398C94.6889 50.2841 94.3934 50.2593 94.1046 50.2802C94.0479 50.2769 93.9912 50.278 93.9356 50.2676C93.9109 50.2643 93.8878 50.2571 93.8625 50.2549C93.7348 50.2445 93.606 50.2527 93.4784 50.2665C93.3992 50.2577 93.3199 50.2615 93.2407 50.278C93.0971 50.2676 92.9612 50.2956 92.8302 50.3507C92.756 50.3661 92.6817 50.3826 92.6101 50.4134C92.4121 50.4607 92.2377 50.5559 92.0858 50.699L91.831 50.9917C91.6874 51.2096 91.6054 51.4489 91.5845 51.7086C91.5834 51.7339 91.5878 51.7598 91.5878 51.7856C91.579 51.8264 91.5708 51.8671 91.5625 51.9083C91.535 52.1488 91.5686 52.3782 91.6632 52.5961C91.6715 52.682 91.6979 52.759 91.7419 52.8283C91.7738 52.8938 91.9477 53.1375 91.8877 53.0473C91.9372 53.1221 91.9878 53.2003 92.0396 53.2751C92.0654 53.312 92.0929 53.3483 92.1232 53.3818C92.1529 53.4171 92.1848 53.449 92.2184 53.4803C92.285 53.5425 92.3625 53.6063 92.4258 53.6614C92.6448 53.8528 92.7614 53.9552 93.0806 54.0559C93.1048 54.0636 93.1307 54.0696 93.1554 54.0751C93.359 54.1219 93.5659 54.1725 93.7739 54.1995C93.8245 54.2061 93.8762 54.2099 93.9279 54.2105C93.9538 54.2105 93.9797 54.2099 94.005 54.2088C94.1909 54.2011 94.3797 54.1945 94.5656 54.1775C94.5799 54.1764 94.5942 54.1747 94.6085 54.1731C94.7753 54.1175 94.9425 54.0619 95.1093 54.0063C95.1148 54.0047 95.1197 54.0025 95.1252 54.0008C95.271 53.904 95.4174 53.8061 95.5638 53.7087C95.5693 53.7037 95.5747 53.6988 95.5802 53.6944C95.5896 53.6856 95.5984 53.6773 95.6072 53.6685C95.8603 53.4429 96.0424 53.1695 96.1541 52.8492C96.2636 52.5284 96.2873 52.2005 96.2262 51.8665C96.1591 51.5193 96.0089 51.2118 95.7761 50.9455Z" fill="#F6F6F9"/>
</svg>
