<svg width="375" height="545" viewBox="0 0 375 545" fill="none" xmlns="http://www.w3.org/2000/svg">
<g clip-path="url(#clip0_1217_15724)">
<path d="M147.41 241.945L146.616 241.99H146.561L142.505 242.218L123.673 243.279L114.712 243.784C111.427 243.974 108.14 243.453 105.076 242.257C102.011 241.061 99.2404 239.218 96.9535 236.853C92.7995 232.592 90.4734 226.879 90.4705 220.929C90.471 220.085 90.5166 219.242 90.6073 218.403C90.9663 215.1 92.039 211.913 93.7512 209.065C95.4633 206.216 97.7741 203.773 100.524 201.905C103.273 200.038 106.396 198.789 109.676 198.246C112.956 197.703 116.314 197.879 119.519 198.761L131.306 202.008L138.211 203.913L142.408 221.266L147.41 241.945Z" fill="#D77F40"/>
<path d="M270.058 263.71L265.66 194.595C263.976 194.517 262.268 194.424 260.532 194.327C246.589 193.546 238.832 199.127 238.832 199.127L229.837 154.779C217.067 112.517 234.171 107.552 234.171 107.552C228.263 107.614 222.434 108.933 217.055 111.424L174.361 112.548C174.055 112.374 173.768 112.203 173.472 112.038C168.539 109.236 162.984 107.768 157.337 107.773C138.388 130.43 131.713 199.14 131.713 199.14C126.927 215.648 136.676 222.725 136.676 222.725L134.613 260.333L270.058 263.71Z" fill="#E1F0FF"/>
<path d="M157.672 107.777C151.812 107.786 146.056 109.321 140.969 112.229C135.883 115.138 131.641 119.32 128.662 124.364L111.254 153.796L132.171 196.937C132.171 196.937 138.819 129.886 157.687 107.78L157.672 107.777Z" fill="#E1F0FF"/>
<path d="M277.51 143.912C276.327 140.247 275.053 136.833 273.724 133.654C270.497 125.925 265.054 119.324 258.082 114.68C251.11 110.036 242.919 107.557 234.54 107.556H234.115C234.115 107.556 217.086 112.401 229.803 153.642L238.761 196.932C238.761 196.932 246.469 191.485 260.351 192.248C262.078 192.342 263.778 192.433 265.453 192.509L265.435 192.224C283.945 193.294 295.88 188.825 296.533 188.576H296.561C296.561 188.576 288.494 177.956 277.51 143.912Z" fill="#E1F0FF"/>
<path d="M216.893 116.126C216.893 116.126 209.501 122.984 200.71 127.981C190.86 133.574 179.251 136.823 174.321 125.452C174.321 125.452 176.851 119.765 174.987 106.606C174.863 105.746 174.723 104.853 174.562 103.929L172.573 88.3962C172.214 85.5746 172.46 82.709 173.294 79.9894C174.127 77.2699 175.53 74.7587 177.409 72.6224C179.287 70.4861 181.599 68.7735 184.19 67.5984C186.781 66.4232 189.593 65.8122 192.439 65.806C203.179 65.806 212.76 74.6208 212.429 86.3415C212.076 98.3387 212.922 110.433 216.893 116.126Z" fill="#E2955D"/>
<path d="M238.558 75.9131C237.126 73.1775 234.869 72.8735 232.893 73.2991C242.493 54.9886 241.769 37.3195 217.725 28.2068C218.236 28.377 223.226 29.7266 227.276 19.4862C231.564 8.68659 215.752 -3.88818 206.082 2.88402C206.082 2.88402 195.439 -5.62682 187.533 6.59232C180.752 17.0789 194.609 22.8085 194.959 22.9514C194.718 22.9058 188.105 21.6474 174.792 25.7751C159.074 30.6385 143.505 37.0581 145.442 48.9885C146.561 55.8975 151.308 61.6149 155.103 65.2077C134.425 76.7946 151.758 93.0868 151.758 93.0868C144.031 79.5667 152.922 70.3446 157.103 67.0011C158.062 67.8203 159.064 68.5874 160.105 69.299L208.968 81.7127C209.694 82.4903 210.503 83.1855 211.382 83.7857L212.142 82.4726L212.364 84.4149C215.898 86.497 221.763 87.9803 227.854 81.0348C227.891 82.9589 227.371 85.5486 225.71 88.9986C220.821 99.1508 229.083 102.85 229.283 102.938C222.289 93.2418 233.218 87.5092 231.853 81.585C231.59 80.277 230.996 79.058 230.129 78.0439C230.603 77.3326 231.074 76.5727 231.546 75.749C231.725 75.445 231.898 75.1259 232.072 74.8158C238.95 74.904 235.03 82.4452 234.054 86.1505C232.954 90.339 237.095 92.5093 237.095 92.5093C234.07 84.9893 241.599 81.6883 238.558 75.9131ZM193.916 20.7386C182.999 4.32479 202.539 3.86277 202.539 3.86277C187.952 6.61359 193.916 20.7386 193.916 20.7386ZM231.445 72.4389C231.561 71.831 236.058 47.9793 222.265 35.8575C222.265 35.8696 241.903 42.9762 231.445 72.4389Z" fill="#593131"/>
<path d="M294.445 235.789C293.32 246.075 283.635 253.181 273.463 251.291L272.801 251.166C271.787 250.976 270.801 250.738 269.842 250.452C264.663 248.934 259.962 246.108 256.195 242.245C250.868 236.804 247.678 229.628 247.209 222.029L246.075 203.791L245.987 202.35L242.511 194.888C244.232 194.01 247.835 192.76 254.866 192.253C258.931 191.949 264.143 191.922 270.8 192.347C275.11 192.589 279.433 192.339 283.687 191.602C285.155 191.365 286.533 191.11 287.816 190.87C292.216 203.384 296.029 221.305 294.445 235.789Z" fill="#E2955D"/>
<path d="M96.525 259.008L96.5027 259.942L329.433 265.777L329.455 264.843L96.525 259.008Z" fill="#C9C9C9"/>
<path d="M-1 484.221V253.368L388 269.757V545L-1 484.221Z" fill="url(#paint0_linear_1217_15724)"/>
<path d="M116.569 197.451C116.569 197.451 121.036 201.308 133.631 203.53C146.226 205.752 151.709 213.883 151.709 213.883C151.709 213.883 154.956 179.773 151.709 166.578L128.534 176.526L116.569 197.451Z" fill="#CCD9DB"/>
<path d="M207.022 234.26C207.022 234.26 205.197 243.482 182.999 242.002L187.442 243.367C187.442 243.367 195.528 241.543 196.096 245.872C196.096 245.872 191.201 249.173 176.054 248.148C161.534 247.166 147.65 242.105 146.622 241.99C146.592 241.99 146.57 241.99 146.567 241.99C146.564 241.99 146.567 241.99 146.567 241.99C146.567 242.048 145.047 242.124 142.517 242.209C139.4 242.312 134.708 242.434 129.442 242.558L125.838 242.637C120.307 242.759 114.408 242.881 109.147 242.984C107.304 243.022 105.47 242.712 103.741 242.072C101.014 241.047 98.6576 239.229 96.9747 236.853C95.0147 234.089 94.0851 230.726 94.3475 227.348C94.3627 227.178 94.3748 227.008 94.387 226.838C94.5482 224.732 95.166 222.687 96.1974 220.845C97.2288 219.002 98.6491 217.406 100.36 216.167C102.07 214.928 104.03 214.077 106.103 213.671C108.176 213.266 110.313 213.316 112.364 213.819L116.062 214.731L130.463 218.299L137.107 219.947L142.402 221.26L144.287 221.728C144.287 221.728 148.273 221.728 154.699 214.643C161.124 207.558 175.966 209.105 181.728 205.342C185.429 202.91 185.837 206.995 182.419 210.922L182.23 211.138C180.317 213.245 177.298 215.272 173.089 216.19C173.089 216.19 169.015 218.622 167.92 219.98C167.85 220.065 167.787 220.155 167.732 220.251L184.76 220.594C184.76 220.594 197.507 217.731 201.926 221.005C202.104 221.136 202.243 221.314 202.328 221.519C202.412 221.724 202.439 221.948 202.406 222.167C202.372 222.386 202.28 222.592 202.138 222.762C201.996 222.932 201.81 223.06 201.6 223.132L195.214 225.564C192.164 226.719 188.989 227.516 185.754 227.938C183.501 228.242 181.354 228.546 181.634 228.595C182.203 228.707 191.085 229.619 191.085 229.619C191.085 229.619 205.207 226.546 209.874 231.78C209.868 231.756 210.324 233.464 207.022 234.26Z" fill="#E2955D"/>
<path d="M333.575 266.294C329.318 266.127 318.505 265.854 308.373 266.829C300.744 267.565 284.712 267.869 278.904 267.173C278.243 267.093 277.572 267.144 276.93 267.324C276.288 267.504 275.688 267.809 275.164 268.221L247.73 289.784L244.741 279.699H243.591C243.109 279.699 242.632 279.799 242.19 279.992C241.748 280.185 241.35 280.467 241.022 280.82C240.694 281.174 240.442 281.591 240.283 282.046C240.123 282.501 240.059 282.984 240.094 283.465L240.49 288.809C240.62 290.565 241.372 292.218 242.612 293.47C243.851 294.722 245.497 295.491 247.253 295.638L305.579 300.553C306.14 300.615 306.708 300.543 307.237 300.343C307.765 300.144 308.239 299.822 308.619 299.405L334.281 267.835C334.392 267.699 334.463 267.533 334.485 267.359C334.507 267.184 334.48 267.006 334.407 266.846C334.333 266.686 334.217 266.549 334.07 266.452C333.923 266.354 333.752 266.3 333.575 266.294Z" fill="#EA7348"/>
<path d="M164.362 277.882C164.362 277.882 158.958 284.082 144.748 286.089C130.539 288.095 118.141 295.688 118.141 295.688H118.126C117.518 295.618 100.651 293.636 90.7587 288.125C89.3051 287.343 87.9504 286.39 86.7236 285.286C86.7236 285.286 59.7029 272.684 52.6968 273.082L65.6841 243.264L39.2686 232.978C39.2686 232.978 39.8767 224.89 45.2286 218.084C50.5804 211.278 53.4813 203.19 53.4813 203.19C53.2563 202.649 45.9614 185.335 40.865 180.557C40.865 180.557 48.914 158.976 51.2798 148.015L71.4952 136.21C71.4952 136.21 81.9039 141.812 87.9156 146.213C93.9273 150.614 151.721 166.578 151.721 166.578L128.547 176.527L117.533 204.622C117.533 204.622 121.936 222.662 130.341 225.461L115.359 245.294C115.359 245.294 125.959 246.082 134.841 249.766H134.866C134.866 249.766 133.279 255.146 130.274 262.304C129.207 264.854 127.96 267.629 126.54 270.468L127.264 270.62L164.362 277.882Z" fill="white"/>
<path d="M196.871 257.344H177.525V288.217H196.871V257.344Z" fill="#E9E9E9"/>
<g opacity="0.69">
<path opacity="0.69" d="M185.429 262.927L195.232 262.459L195.524 279.669L185.429 279.982V262.927Z" fill="white"/>
</g>
<path d="M249.235 278.03L331.303 257.89V269.249L307.402 297.909L250.633 293.875C246.416 293.571 244.731 292.228 243.977 288.425L243.673 285.158C243.676 281.465 245.652 278.93 249.235 278.03Z" fill="#EAF7F9"/>
<path d="M274.798 252.151C267.835 257.623 241.173 280.669 241.173 280.669L305.276 284.486C305.826 284.539 306.382 284.463 306.897 284.263C307.412 284.063 307.874 283.745 308.244 283.334L333.054 255.899C333.19 255.749 333.284 255.564 333.325 255.365C333.365 255.167 333.352 254.96 333.286 254.768C333.22 254.576 333.103 254.406 332.948 254.274C332.794 254.143 332.606 254.055 332.406 254.021C328.289 253.315 318.458 253.537 308.53 252.899C300.085 252.355 284.346 251.799 278.538 251.103C277.876 251.023 277.205 251.074 276.563 251.254C275.922 251.434 275.322 251.739 274.798 252.151Z" fill="#EA7348"/>
<path d="M272.77 262.1L280.068 255.656L322.189 257.891L315.584 264.857L272.77 262.1Z" fill="white"/>
<path d="M174.648 252.441V259.948H199.486V252.015L174.648 252.441Z" fill="#E0B94C"/>
<path d="M229.696 267.811C227.181 263.455 222.553 261.385 219.163 263.008L201.252 270.641L210.329 289.131L227.479 279.972L227.458 279.93C227.727 279.828 227.987 279.705 228.236 279.562C231.648 277.583 232.305 272.325 229.696 267.811Z" fill="#E9E9E9"/>
<path d="M207.952 298.426L192.611 315.448C191.766 316.387 192.228 318.071 193.377 318.238L233.79 324.208C234.052 324.237 234.316 324.186 234.548 324.061C234.78 323.936 234.969 323.743 235.088 323.509L246.464 303.612C247.054 302.578 246.479 301.18 245.43 301.086L208.98 297.994C208.787 297.982 208.594 298.014 208.415 298.089C208.237 298.164 208.078 298.279 207.952 298.426Z" fill="white"/>
<path d="M211.798 301.378C212.488 301.433 212.838 302.369 212.406 302.995L211.189 304.746C211.004 305.031 210.748 305.263 210.445 305.419C210.143 305.575 209.805 305.649 209.465 305.634C208.745 305.588 208.383 304.597 208.857 303.959L210.174 302.178C210.353 301.916 210.597 301.706 210.881 301.566C211.165 301.426 211.481 301.361 211.798 301.378Z" fill="white"/>
<path d="M218.596 302.344C219.287 302.399 219.636 303.338 219.205 303.961L217.988 305.712C217.803 305.997 217.547 306.23 217.245 306.386C216.942 306.542 216.604 306.617 216.264 306.602C215.543 306.554 215.182 305.566 215.656 304.928L216.967 303.143C217.147 302.882 217.392 302.672 217.677 302.532C217.963 302.392 218.279 302.327 218.596 302.344Z" fill="white"/>
<path d="M225.746 303.301C226.436 303.356 226.786 304.292 226.354 304.918L225.138 306.669C224.953 306.954 224.696 307.186 224.394 307.342C224.091 307.498 223.754 307.572 223.414 307.557C222.693 307.511 222.331 306.52 222.806 305.882L224.119 304.101C224.3 303.84 224.544 303.629 224.829 303.489C225.113 303.349 225.429 303.285 225.746 303.301Z" fill="white"/>
<path d="M232.722 304.15C233.412 304.205 233.762 305.144 233.33 305.77L232.114 307.521C231.928 307.805 231.671 308.037 231.369 308.192C231.066 308.348 230.729 308.422 230.389 308.409C229.669 308.363 229.307 307.372 229.781 306.734L231.098 304.949C231.278 304.689 231.522 304.479 231.806 304.339C232.09 304.199 232.405 304.134 232.722 304.15Z" fill="white"/>
<path d="M240.299 304.967C240.99 305.022 241.339 305.958 240.907 306.584L239.691 308.335C239.504 308.622 239.244 308.856 238.939 309.012C238.633 309.167 238.291 309.24 237.949 309.222C237.225 309.177 236.863 308.186 237.341 307.548L238.654 305.763C238.836 305.5 239.084 305.289 239.372 305.149C239.66 305.009 239.98 304.947 240.299 304.967Z" fill="white"/>
<path d="M203.517 310.134C204.208 310.195 204.551 311.134 204.126 311.757L202.894 313.499C202.707 313.782 202.449 314.012 202.146 314.166C201.844 314.319 201.506 314.391 201.167 314.375C200.446 314.32 200.087 313.329 200.559 312.694L201.884 310.922C202.066 310.661 202.312 310.452 202.598 310.315C202.884 310.177 203.201 310.115 203.517 310.134Z" fill="white"/>
<path d="M210.306 311.147C210.993 311.205 211.34 312.147 210.899 312.767L209.683 314.509C209.496 314.793 209.238 315.023 208.934 315.177C208.631 315.33 208.292 315.402 207.953 315.384C207.232 315.332 206.876 314.338 207.344 313.706L208.67 311.931C208.853 311.671 209.099 311.462 209.386 311.325C209.672 311.188 209.989 311.126 210.306 311.147Z" fill="white"/>
<path d="M217.448 312.159C218.138 312.217 218.485 313.159 218.056 313.779L216.84 315.521C216.652 315.805 216.394 316.035 216.091 316.189C215.787 316.342 215.449 316.414 215.109 316.397C214.389 316.345 214.033 315.351 214.501 314.719L215.824 312.944C216.006 312.686 216.25 312.479 216.534 312.342C216.818 312.205 217.133 312.142 217.448 312.159Z" fill="white"/>
<path d="M224.418 313.062C225.109 313.123 225.455 314.062 225.027 314.685L223.81 316.424C223.623 316.708 223.365 316.938 223.062 317.091C222.758 317.245 222.42 317.317 222.08 317.299C221.359 317.248 221.004 316.257 221.472 315.621L222.795 313.849C222.976 313.591 223.22 313.383 223.504 313.245C223.788 313.107 224.103 313.044 224.418 313.062Z" fill="white"/>
<path d="M231.993 313.947C232.68 314.007 233.027 314.947 232.601 315.57L231.384 317.311C231.197 317.595 230.939 317.825 230.635 317.978C230.332 318.132 229.994 318.204 229.654 318.187C228.934 318.132 228.578 317.141 229.046 316.506L230.372 314.734C230.553 314.476 230.796 314.268 231.08 314.13C231.364 313.992 231.678 313.929 231.993 313.947Z" fill="white"/>
<path d="M211.799 301.344C212.306 301.38 212.711 301.952 212.632 302.56C212.617 302.708 212.572 302.852 212.501 302.982C212.431 303.113 212.361 303.216 212.288 303.335L211.859 304.013L211.422 304.681C211.278 304.921 211.102 305.138 210.898 305.329C210.7 305.513 210.468 305.656 210.214 305.75C209.961 305.843 209.691 305.886 209.421 305.876C209.267 305.864 209.117 305.818 208.983 305.742C208.843 305.656 208.722 305.542 208.627 305.408C208.426 305.11 208.338 304.75 208.378 304.393C208.401 304.213 208.458 304.038 208.545 303.879C208.645 303.712 208.709 303.63 208.791 303.514C208.946 303.301 209.095 303.095 209.269 302.885C209.442 302.675 209.6 302.478 209.773 302.277C209.862 302.177 209.95 302.086 210.044 301.973C210.134 301.87 210.236 301.777 210.348 301.697C210.772 301.406 211.288 301.281 211.799 301.344ZM211.799 301.408C211.557 301.401 211.318 301.45 211.099 301.551C210.88 301.653 210.687 301.803 210.537 301.991C210.458 302.087 210.386 302.188 210.324 302.295L210.12 302.642C209.98 302.87 209.834 303.095 209.685 303.314C209.536 303.532 209.381 303.748 209.223 303.961C209.15 304.064 209.05 304.186 209.01 304.25C208.963 304.33 208.931 304.419 208.916 304.511C208.878 304.706 208.913 304.908 209.013 305.08C209.059 305.161 209.123 305.231 209.2 305.283C209.277 305.336 209.365 305.37 209.457 305.384C209.678 305.406 209.901 305.385 210.114 305.321C210.326 305.257 210.524 305.151 210.695 305.01C210.883 304.854 211.047 304.67 211.181 304.466L211.653 303.827L212.133 303.198C212.315 303.017 212.448 302.793 212.522 302.548C212.58 302.287 212.534 302.015 212.395 301.788C212.328 301.681 212.238 301.59 212.133 301.52C212.031 301.459 211.917 301.421 211.799 301.408Z" fill="#222222"/>
<path d="M218.598 302.314C219.106 302.348 219.51 302.922 219.434 303.53C219.418 303.678 219.373 303.822 219.301 303.952C219.231 304.083 219.161 304.186 219.091 304.305L218.662 304.983L218.224 305.652C218.082 305.891 217.905 306.109 217.701 306.299C217.502 306.483 217.269 306.626 217.015 306.72C216.761 306.814 216.491 306.857 216.22 306.846C216.067 306.835 215.919 306.791 215.785 306.715C215.645 306.628 215.524 306.513 215.43 306.378C215.227 306.081 215.138 305.72 215.18 305.363C215.203 305.182 215.259 305.008 215.347 304.849C215.422 304.724 215.503 304.604 215.591 304.487C215.749 304.275 215.895 304.065 216.071 303.858C216.248 303.651 216.403 303.448 216.576 303.25C216.664 303.15 216.749 303.059 216.844 302.946C216.937 302.846 217.039 302.753 217.148 302.67C217.572 302.378 218.087 302.252 218.598 302.314ZM218.598 302.375C218.357 302.368 218.118 302.417 217.899 302.519C217.681 302.621 217.489 302.772 217.339 302.962C217.258 303.055 217.186 303.157 217.126 303.265L216.923 303.609C216.783 303.84 216.637 304.062 216.488 304.284C216.339 304.506 216.184 304.718 216.026 304.928C215.95 305.031 215.849 305.153 215.813 305.232C215.764 305.312 215.731 305.401 215.715 305.493C215.68 305.688 215.715 305.89 215.813 306.062C215.859 306.142 215.923 306.212 216 306.264C216.077 306.317 216.165 306.352 216.257 306.366C216.477 306.389 216.7 306.368 216.913 306.304C217.125 306.241 217.323 306.135 217.494 305.995C217.683 305.837 217.848 305.653 217.984 305.448L218.452 304.81L218.936 304.183C219.115 304 219.248 303.777 219.325 303.533C219.38 303.272 219.334 302.999 219.197 302.77C219.129 302.664 219.04 302.574 218.936 302.503C218.833 302.436 218.716 302.393 218.595 302.375H218.598Z" fill="#222222"/>
<path d="M225.748 303.271C226.256 303.305 226.661 303.879 226.582 304.487C226.566 304.635 226.522 304.779 226.451 304.909C226.381 305.04 226.311 305.143 226.241 305.262L225.812 305.94L225.371 306.609C225.23 306.848 225.055 307.066 224.851 307.256C224.653 307.44 224.42 307.583 224.165 307.677C223.911 307.771 223.641 307.814 223.371 307.803C223.217 307.791 223.067 307.745 222.933 307.669C222.793 307.583 222.672 307.469 222.577 307.335C222.426 307.113 222.338 306.854 222.324 306.587C222.309 306.319 222.369 306.052 222.495 305.815C222.57 305.69 222.652 305.57 222.741 305.454C222.896 305.238 223.045 305.031 223.218 304.821C223.392 304.612 223.55 304.414 223.726 304.213C223.811 304.113 223.9 304.022 223.994 303.909C224.087 303.809 224.189 303.716 224.298 303.633C224.72 303.338 225.237 303.209 225.748 303.271ZM225.748 303.332C225.507 303.325 225.268 303.374 225.049 303.476C224.831 303.578 224.639 303.729 224.49 303.919C224.409 304.013 224.337 304.114 224.277 304.223L224.073 304.569C223.933 304.8 223.769 305.022 223.635 305.244C223.501 305.466 223.331 305.675 223.173 305.888C223.1 305.992 223 306.113 222.963 306.192C222.914 306.272 222.881 306.361 222.866 306.454C222.829 306.649 222.864 306.85 222.963 307.022C223.01 307.103 223.074 307.172 223.151 307.224C223.227 307.277 223.315 307.312 223.407 307.326C223.628 307.349 223.85 307.328 224.063 307.264C224.275 307.2 224.473 307.095 224.645 306.955C224.833 306.798 224.997 306.614 225.131 306.408L225.602 305.77L226.086 305.143C226.265 304.961 226.397 304.738 226.472 304.493C226.53 304.232 226.485 303.959 226.347 303.73C226.279 303.624 226.189 303.532 226.083 303.463C225.981 303.395 225.866 303.35 225.745 303.332H225.748Z" fill="#222222"/>
<path d="M232.725 304.119C233.23 304.155 233.637 304.727 233.558 305.334C233.543 305.484 233.498 305.629 233.424 305.76C233.354 305.891 233.287 305.994 233.214 306.11L232.78 306.79L232.342 307.459C232.199 307.7 232.023 307.919 231.819 308.11C231.62 308.293 231.388 308.436 231.134 308.529C230.88 308.622 230.611 308.665 230.341 308.654C230.187 308.644 230.037 308.599 229.903 308.523C229.763 308.437 229.642 308.323 229.547 308.189C229.395 307.967 229.307 307.708 229.292 307.44C229.278 307.172 229.338 306.905 229.465 306.669C229.539 306.543 229.622 306.422 229.711 306.307C229.866 306.094 230.015 305.885 230.189 305.678C230.362 305.471 230.52 305.271 230.694 305.07L230.961 304.766C231.052 304.663 231.154 304.571 231.265 304.489C231.689 304.189 232.209 304.057 232.725 304.119ZM232.725 304.182C232.484 304.176 232.245 304.225 232.027 304.326C231.808 304.428 231.616 304.578 231.466 304.766C231.385 304.86 231.314 304.962 231.253 305.07L231.049 305.417C230.909 305.644 230.764 305.866 230.615 306.088C230.466 306.31 230.31 306.523 230.152 306.736C230.079 306.836 229.979 306.961 229.939 307.04C229.893 307.12 229.86 307.207 229.842 307.298C229.807 307.494 229.842 307.697 229.942 307.869C229.988 307.951 230.052 308.02 230.129 308.073C230.206 308.126 230.294 308.16 230.386 308.173C230.607 308.196 230.83 308.175 231.043 308.111C231.255 308.047 231.453 307.941 231.624 307.8C231.812 307.643 231.976 307.46 232.111 307.255L232.582 306.617L233.062 305.988C233.243 305.806 233.376 305.583 233.452 305.337C233.509 305.076 233.463 304.803 233.324 304.575C233.257 304.469 233.168 304.378 233.062 304.31C232.959 304.242 232.842 304.198 232.719 304.182H232.725Z" fill="#222222"/>
<path d="M240.302 304.946C240.807 304.982 241.215 305.554 241.136 306.162C241.119 306.31 241.074 306.453 241.002 306.584C240.932 306.715 240.862 306.818 240.792 306.934L240.363 307.615L239.925 308.28C239.783 308.521 239.607 308.74 239.402 308.931C239.204 309.115 238.971 309.258 238.717 309.352C238.462 309.445 238.192 309.487 237.922 309.475C237.768 309.466 237.62 309.421 237.487 309.344C237.346 309.258 237.225 309.145 237.131 309.01C236.979 308.789 236.89 308.53 236.876 308.262C236.861 307.993 236.921 307.726 237.049 307.49C237.123 307.365 237.205 307.245 237.292 307.128C237.45 306.916 237.596 306.706 237.773 306.499C237.949 306.292 238.104 306.092 238.277 305.891C238.365 305.791 238.451 305.7 238.545 305.587C238.637 305.485 238.739 305.392 238.849 305.311C239.272 305.014 239.79 304.885 240.302 304.946ZM240.302 305.01C240.062 305.003 239.823 305.052 239.604 305.153C239.386 305.255 239.194 305.405 239.044 305.593C238.964 305.688 238.892 305.79 238.831 305.897L238.627 306.244C238.487 306.472 238.341 306.694 238.192 306.916C238.043 307.137 237.888 307.35 237.73 307.563C237.657 307.663 237.557 307.788 237.517 307.867C237.469 307.947 237.436 308.036 237.42 308.128C237.384 308.324 237.42 308.525 237.52 308.697C237.566 308.778 237.63 308.848 237.707 308.901C237.784 308.953 237.872 308.988 237.964 309.001C238.184 309.024 238.407 309.002 238.619 308.938C238.831 308.874 239.028 308.768 239.199 308.627C239.388 308.47 239.552 308.287 239.688 308.083L240.16 307.444L240.64 306.815C240.819 306.632 240.953 306.409 241.029 306.165C241.087 305.904 241.041 305.63 240.902 305.402C240.834 305.296 240.745 305.206 240.64 305.137C240.536 305.07 240.419 305.027 240.296 305.01H240.302Z" fill="#222222"/>
<path d="M203.522 310.095C204.026 310.132 204.434 310.721 204.349 311.311C204.332 311.459 204.285 311.603 204.212 311.733C204.142 311.864 204.072 311.967 203.999 312.083L203.567 312.758L203.126 313.423C202.982 313.661 202.804 313.878 202.6 314.068C202.401 314.251 202.167 314.392 201.912 314.484C201.657 314.576 201.387 314.616 201.116 314.603C200.963 314.591 200.814 314.544 200.681 314.466C200.542 314.379 200.421 314.266 200.326 314.132C200.126 313.832 200.041 313.471 200.085 313.113C200.107 312.933 200.164 312.758 200.253 312.6C200.353 312.432 200.42 312.35 200.499 312.238C200.657 312.025 200.821 311.818 200.982 311.612C201.144 311.405 201.317 311.208 201.49 311.004C201.578 310.904 201.667 310.815 201.761 310.7C201.984 310.464 202.26 310.283 202.566 310.172C202.871 310.06 203.198 310.022 203.522 310.059V310.095ZM203.522 310.159C203.281 310.149 203.042 310.195 202.823 310.295C202.603 310.394 202.411 310.543 202.26 310.73C202.18 310.826 202.107 310.927 202.044 311.034L201.84 311.378C201.697 311.606 201.536 311.828 201.399 312.046C201.262 312.265 201.095 312.478 200.934 312.691C200.861 312.791 200.757 312.913 200.721 312.977C200.672 313.057 200.638 313.145 200.621 313.238C200.584 313.433 200.619 313.635 200.718 313.806C200.763 313.887 200.827 313.957 200.903 314.009C200.98 314.062 201.067 314.097 201.159 314.11C201.379 314.135 201.603 314.116 201.816 314.054C202.029 313.992 202.227 313.888 202.4 313.749C202.588 313.593 202.753 313.411 202.889 313.208L203.363 312.572L203.85 311.964C204.03 311.783 204.165 311.561 204.242 311.317C204.3 311.055 204.255 310.781 204.118 310.551C204.05 310.446 203.962 310.355 203.859 310.283C203.755 310.218 203.638 310.175 203.515 310.159H203.522Z" fill="#222222"/>
<path d="M210.306 311.113C210.813 311.153 211.218 311.742 211.133 312.329C211.118 312.477 211.072 312.621 210.999 312.751C210.929 312.879 210.859 312.982 210.786 313.101L210.354 313.776L209.91 314.438C209.767 314.678 209.59 314.895 209.384 315.083C209.185 315.265 208.952 315.407 208.697 315.499C208.443 315.59 208.173 315.631 207.903 315.618C207.749 315.606 207.6 315.56 207.466 315.484C207.327 315.395 207.208 315.281 207.113 315.147C206.912 314.847 206.826 314.486 206.87 314.128C206.894 313.948 206.952 313.774 207.04 313.615C207.115 313.491 207.197 313.371 207.286 313.256C207.444 313.043 207.605 312.837 207.77 312.63C207.934 312.423 208.101 312.223 208.277 312.022C208.366 311.925 208.454 311.833 208.548 311.718C208.641 311.618 208.742 311.526 208.852 311.444C209.281 311.162 209.797 311.045 210.306 311.113ZM210.306 311.177C210.065 311.168 209.826 311.216 209.607 311.315C209.388 311.415 209.195 311.564 209.044 311.751C208.961 311.845 208.888 311.946 208.828 312.055L208.621 312.399C208.481 312.63 208.332 312.849 208.183 313.071C208.034 313.293 207.879 313.502 207.718 313.712C207.642 313.815 207.542 313.937 207.502 314.016C207.454 314.095 207.421 314.183 207.405 314.274C207.367 314.47 207.4 314.673 207.499 314.846C207.546 314.926 207.61 314.995 207.687 315.048C207.764 315.1 207.851 315.135 207.943 315.15C208.163 315.174 208.386 315.155 208.599 315.092C208.811 315.029 209.009 314.925 209.181 314.785C209.37 314.63 209.536 314.447 209.673 314.244L210.148 313.609L210.631 313.001C210.812 312.82 210.947 312.598 211.023 312.353C211.083 312.093 211.039 311.819 210.902 311.59C210.835 311.483 210.745 311.392 210.64 311.323C210.541 311.248 210.425 311.198 210.303 311.177H210.306Z" fill="#222222"/>
<path d="M174.56 103.932L204.999 92.5483C204.999 92.5483 199.026 109.096 175.232 109.543L174.56 103.932Z" fill="#D77F40"/>
<path d="M217.45 312.125C217.958 312.165 218.363 312.755 218.278 313.341C218.263 313.49 218.217 313.634 218.144 313.764C218.074 313.891 218.004 313.995 217.931 314.113L217.499 314.788L217.055 315.451C216.912 315.691 216.735 315.909 216.529 316.098C216.329 316.28 216.096 316.42 215.842 316.512C215.588 316.603 215.318 316.643 215.048 316.63C214.894 316.618 214.745 316.572 214.61 316.496C214.472 316.407 214.352 316.293 214.258 316.159C214.057 315.86 213.971 315.498 214.014 315.141C214.039 314.96 214.097 314.786 214.185 314.627C214.26 314.503 214.342 314.383 214.431 314.268C214.589 314.055 214.75 313.849 214.914 313.642C215.079 313.435 215.246 313.235 215.422 313.034C215.51 312.934 215.599 312.843 215.693 312.73C215.785 312.63 215.887 312.538 215.997 312.457C216.426 312.175 216.942 312.057 217.45 312.125ZM217.45 312.189C217.21 312.181 216.971 312.228 216.752 312.328C216.533 312.427 216.34 312.577 216.188 312.764C216.106 312.857 216.033 312.959 215.973 313.068L215.766 313.411C215.626 313.642 215.477 313.864 215.328 314.083C215.179 314.302 215.024 314.514 214.863 314.724C214.787 314.828 214.686 314.949 214.647 315.028C214.599 315.108 214.566 315.195 214.549 315.287C214.512 315.482 214.545 315.685 214.644 315.858C214.69 315.939 214.754 316.008 214.831 316.06C214.908 316.113 214.996 316.148 215.088 316.162C215.308 316.187 215.531 316.167 215.743 316.104C215.956 316.042 216.154 315.937 216.325 315.797C216.515 315.642 216.681 315.46 216.818 315.256L217.292 314.621L217.776 314.013C217.957 313.832 218.092 313.61 218.168 313.366C218.228 313.105 218.184 312.832 218.046 312.603C217.979 312.496 217.89 312.404 217.785 312.335C217.685 312.261 217.57 312.211 217.447 312.189H217.45Z" fill="#222222"/>
<path d="M224.422 313.028C224.93 313.068 225.334 313.658 225.249 314.244C225.234 314.393 225.189 314.537 225.115 314.667C225.045 314.797 224.975 314.901 224.902 315.016L224.47 315.691L224.026 316.357C223.884 316.596 223.706 316.813 223.5 317.001C223.096 317.367 222.564 317.56 222.02 317.536C221.865 317.523 221.716 317.476 221.582 317.399C221.443 317.311 221.323 317.197 221.229 317.062C221.078 316.84 220.991 316.581 220.978 316.312C220.965 316.044 221.027 315.778 221.156 315.542C221.256 315.378 221.32 315.296 221.402 315.183C221.56 314.971 221.706 314.764 221.886 314.557C222.065 314.351 222.217 314.153 222.394 313.949C222.482 313.849 222.57 313.758 222.664 313.661C222.756 313.559 222.858 313.468 222.968 313.387C223.392 313.093 223.91 312.965 224.422 313.028ZM224.422 313.092C224.181 313.083 223.942 313.131 223.723 313.231C223.504 313.33 223.311 313.48 223.16 313.667C223.077 313.76 223.005 313.862 222.944 313.971L222.737 314.314C222.597 314.542 222.433 314.764 222.299 314.983C222.165 315.202 221.995 315.414 221.834 315.627C221.758 315.728 221.658 315.849 221.618 315.913C221.57 315.992 221.537 316.08 221.521 316.171C221.483 316.367 221.517 316.57 221.615 316.743C221.662 316.823 221.726 316.892 221.803 316.945C221.879 316.998 221.967 317.032 222.059 317.047C222.279 317.071 222.502 317.052 222.714 316.99C222.926 316.928 223.124 316.824 223.297 316.685C223.487 316.529 223.653 316.346 223.789 316.141L224.264 315.509L224.747 314.883C224.929 314.702 225.064 314.48 225.139 314.235C225.199 313.975 225.155 313.701 225.018 313.472C224.95 313.366 224.861 313.275 224.756 313.205C224.654 313.142 224.538 313.104 224.419 313.092H224.422Z" fill="#222222"/>
<path d="M231.993 313.916C232.501 313.953 232.905 314.542 232.82 315.132C232.806 315.281 232.76 315.425 232.686 315.555C232.617 315.685 232.547 315.789 232.474 315.904L232.042 316.579L231.598 317.245C231.455 317.483 231.279 317.7 231.075 317.889C230.875 318.072 230.641 318.213 230.386 318.305C230.132 318.397 229.861 318.437 229.591 318.424C229.437 318.413 229.288 318.366 229.156 318.287C229.016 318.201 228.895 318.088 228.8 317.953C228.6 317.654 228.513 317.292 228.557 316.935C228.581 316.754 228.639 316.58 228.727 316.421C228.803 316.296 228.885 316.175 228.974 316.059C229.132 315.846 229.278 315.64 229.457 315.433C229.637 315.226 229.792 315.029 229.965 314.825C230.053 314.728 230.141 314.637 230.236 314.521C230.328 314.421 230.43 314.329 230.54 314.248C230.967 313.963 231.484 313.845 231.993 313.916ZM231.993 313.98C231.753 313.97 231.513 314.017 231.294 314.116C231.075 314.215 230.882 314.364 230.731 314.552C230.651 314.647 230.579 314.749 230.515 314.856L230.312 315.199C230.169 315.427 230.007 315.649 229.871 315.868C229.734 316.087 229.567 316.299 229.405 316.512C229.329 316.612 229.229 316.734 229.19 316.798C229.117 316.924 229.079 317.067 229.079 317.213C229.079 317.358 229.117 317.501 229.19 317.628C229.235 317.709 229.299 317.779 229.376 317.831C229.453 317.884 229.541 317.918 229.633 317.932C229.853 317.957 230.076 317.938 230.289 317.876C230.501 317.813 230.699 317.71 230.871 317.57C231.061 317.415 231.227 317.232 231.364 317.029L231.838 316.394L232.322 315.786C232.503 315.605 232.637 315.383 232.714 315.138C232.774 314.877 232.73 314.602 232.592 314.372C232.524 314.266 232.435 314.175 232.331 314.105C232.228 314.039 232.111 313.996 231.99 313.98H231.993Z" fill="#222222"/>
<path d="M212.826 81.22C212.826 81.22 199.775 107.768 177.908 104.625C176.78 104.463 175.662 104.23 174.563 103.926L173.566 103.652H173.545C169.266 102.327 153.25 95.9042 156.16 74.5299C159.32 51.277 157.565 49.8727 157.377 49.7907C159.07 50.2474 160.824 50.4442 162.576 50.3743C168.448 50.2344 178.231 47.5657 186.295 33.5349C186.201 33.7872 182.834 42.83 191.558 50.3803C200.407 58.034 213.495 64.0585 208.472 80.0741L212.844 72.3778C212.844 72.3778 215.447 62.3654 223.128 64.4749C231.919 66.9187 225.981 93.4118 212.826 81.22Z" fill="#E2955D"/>
<g opacity="0.79">
<path opacity="0.79" d="M130.337 225.461L53.4833 203.22L40.8669 180.587L117.535 204.621C117.535 204.621 121.932 222.661 130.337 225.461Z" fill="#CCD9DB"/>
</g>
<g opacity="0.79">
<path opacity="0.79" d="M134.865 249.778L109.322 260.255C109.322 255.106 115.34 245.294 115.34 245.294C115.34 245.294 125.94 246.082 134.822 249.766L134.865 249.778Z" fill="#CCD9DB"/>
</g>
<g opacity="0.79">
<path opacity="0.79" d="M164.364 277.882C164.364 277.882 158.96 284.083 144.751 286.089C130.541 288.095 118.144 295.688 118.144 295.688C120.23 281.837 126.551 270.481 126.551 270.481L164.364 277.882Z" fill="#CCD9DB"/>
</g>
<path d="M181.674 52.9219C181.674 52.9219 181.011 57.2077 182.401 57.6302C183.791 58.0527 187.117 57.2351 194.643 59.5756C194.643 59.5756 192.752 55.2776 189.252 54.5542C187.127 54.1192 184.963 53.8993 182.793 53.8976C182.705 54.2502 182.593 54.7882 182.593 54.7882C182.593 54.7882 182.608 53.2897 181.674 52.9219Z" fill="#371818"/>
<g opacity="0.39">
<path opacity="0.39" d="M166.23 72.3573C167.061 72.2314 167.53 70.7807 167.278 69.1171C167.026 67.4535 166.148 66.207 165.316 66.3329C164.485 66.4588 164.016 67.9095 164.268 69.5731C164.52 71.2366 165.398 72.4832 166.23 72.3573Z" fill="#3F2910"/>
</g>
<g opacity="0.39">
<path opacity="0.39" d="M187.341 72.8289C188.171 72.706 188.645 71.2588 188.399 69.5965C188.153 67.9342 187.28 66.6863 186.449 66.8092C185.618 66.9321 185.145 68.3793 185.391 70.0416C185.637 71.7039 186.51 72.9518 187.341 72.8289Z" fill="#3F2910"/>
</g>
<path d="M166.229 71.7503C167.06 71.6244 167.53 70.1737 167.278 68.5101C167.025 66.8465 166.147 65.6 165.316 65.7259C164.484 65.8518 164.015 67.3025 164.267 68.9661C164.519 70.6297 165.398 71.8762 166.229 71.7503Z" fill="#3F2910"/>
<path d="M187.34 72.2219C188.17 72.099 188.644 70.6518 188.398 68.9896C188.152 67.3273 187.279 66.0794 186.448 66.2023C185.618 66.3252 185.144 67.7724 185.39 69.4346C185.636 71.0969 186.509 72.3448 187.34 72.2219Z" fill="#3F2910"/>
<path d="M170.47 73.8947C170.47 73.8947 172.629 77.5999 177.607 76.3841C176.227 77.4614 174.688 78.3186 173.046 78.9252C173.046 78.9252 169.64 77.1561 170.47 73.8947Z" fill="#D77F40"/>
<path d="M170.526 89.3792C170.526 89.3792 176.608 83.6557 183.063 85.0508L184.325 86.2667C179.652 86.0688 175.035 87.3517 171.134 89.9324L170.526 89.3792Z" fill="#C56D2D"/>
<path d="M174.593 90.7768L177.917 88.9166C177.917 88.9166 177.251 91.5884 174.593 90.7768Z" fill="#D77F40"/>
<path d="M221.53 67.8947C221.53 67.8947 218.514 67.5087 216.485 72.059C214.457 76.6092 216.267 82.962 220.213 80.2233C220.213 80.2233 216.759 80.4421 217.477 76.9345C217.48 76.9345 221.041 74.8523 221.53 67.8947Z" fill="#D77F40"/>
<path d="M274.671 225.026L246.087 203.806L242.511 194.888C244.232 194.01 247.835 192.761 254.866 192.253C257.023 197.256 259.702 202.018 262.857 206.46C270.934 218.035 274.671 225.026 274.671 225.026Z" fill="#D77F40"/>
<path d="M289.592 242.415C288.737 244.801 287.182 246.874 285.13 248.362C283.077 249.85 280.623 250.684 278.089 250.756C275.334 250.827 272.578 250.725 269.836 250.452C251.542 248.664 221.66 238.43 195.64 195.657C195.64 195.657 175.875 199.463 158.846 192.444C157.528 191.898 156.436 190.917 155.75 189.666L152.618 183.961L145.068 183.42C144.014 183.344 143.028 182.872 142.308 182.098C141.589 181.325 141.188 180.308 141.188 179.252C141.921 177.424 143.223 175.88 144.901 174.848L155.544 168.255C160.317 165.303 166.06 164.347 171.532 165.595L176.176 166.665C175.872 166.544 165.983 162.434 166.485 155.188C166.494 155.08 166.531 154.976 166.591 154.886C166.652 154.796 166.735 154.723 166.832 154.675C166.929 154.626 167.037 154.603 167.145 154.608C167.254 154.612 167.359 154.645 167.452 154.702L173.147 158.24C176.494 160.324 180.064 162.027 183.79 163.316C189.306 165.216 198.136 169.237 201.451 176.261L246.066 203.815L284.353 227.457C286.81 228.976 288.67 231.291 289.624 234.017C290.578 236.742 290.566 239.712 289.592 242.43V242.415Z" fill="#E2955D"/>
<path d="M182.07 234.993L193.403 235.494L203.553 234.373C203.553 234.373 194.723 239.971 182.07 234.993Z" fill="#D77F40"/>
<path d="M170.812 54.3014L170.444 55.7391L170.276 54.5233C169.498 54.4321 168.254 54.3743 166.506 55.8759C162.644 59.1951 159.986 58.5903 159.986 58.5903C165.855 62.7514 170.654 58.0553 171.052 56.8759C171.249 56.2516 171.404 55.6149 171.517 54.9701C171.356 54.6802 171.11 54.4467 170.812 54.3014Z" fill="#371818"/>
<path d="M128.534 176.843C128.505 176.848 128.475 176.848 128.446 176.843L75.6453 161.037C75.5685 161.014 75.5039 160.962 75.4658 160.891C75.4276 160.82 75.4189 160.738 75.4416 160.661C75.4528 160.622 75.4715 160.586 75.4967 160.555C75.5219 160.523 75.5531 160.497 75.5885 160.478C75.6238 160.459 75.6626 160.447 75.7027 160.443C75.7427 160.438 75.7832 160.442 75.8217 160.454L128.622 176.26C128.703 176.271 128.776 176.315 128.825 176.38C128.873 176.445 128.894 176.527 128.882 176.608C128.871 176.688 128.828 176.761 128.762 176.81C128.697 176.859 128.615 176.879 128.534 176.868V176.843Z" fill="#DAE9ED"/>
<path d="M109.322 260.559C109.285 260.559 109.247 260.552 109.213 260.538L65.574 243.568C65.5047 243.535 65.4504 243.477 65.422 243.406C65.3936 243.334 65.3932 243.255 65.4209 243.184C65.4486 243.112 65.5023 243.054 65.5713 243.02C65.6403 242.986 65.7195 242.98 65.7929 243.002L109.444 259.982C109.51 260.008 109.564 260.055 109.598 260.117C109.632 260.179 109.644 260.251 109.631 260.32C109.618 260.389 109.581 260.452 109.527 260.497C109.473 260.543 109.405 260.568 109.334 260.568L109.322 260.559Z" fill="#DAE9ED"/>
<path d="M118.142 295.992H118.112C113.851 295.519 109.621 294.798 105.444 293.833C96.3637 291.727 90.0053 288.937 86.5449 285.541L75.0992 280.505C75.0606 280.49 75.0253 280.468 74.9955 280.44C74.9658 280.411 74.9421 280.377 74.9261 280.339C74.91 280.301 74.9018 280.26 74.9021 280.218C74.9024 280.177 74.911 280.136 74.9276 280.099C74.9441 280.061 74.9682 280.027 74.9983 279.999C75.0284 279.97 75.064 279.949 75.1028 279.934C75.1416 279.92 75.1829 279.914 75.2241 279.917C75.2653 279.919 75.3056 279.93 75.3425 279.949L86.8976 285.031L86.9371 285.07C94.9892 293.034 117.953 295.365 118.178 295.387C118.259 295.391 118.335 295.427 118.389 295.486C118.443 295.546 118.471 295.625 118.467 295.706C118.463 295.786 118.427 295.862 118.368 295.916C118.308 295.97 118.229 295.999 118.148 295.995L118.142 295.992Z" fill="#DAE9ED"/>
<path d="M217.984 100.051C215.247 100.051 213.094 95.9264 213.094 90.6649C213.094 85.4033 215.241 81.2786 217.984 81.2786V82.4945C216.211 82.4945 214.311 85.7772 214.311 90.6649C214.311 95.5525 216.211 98.8353 217.984 98.8353C219.757 98.8353 221.657 95.5404 221.657 90.677C221.657 88.3244 221.177 86.0721 220.344 84.4976L221.417 83.9261C222.357 85.6952 222.874 88.0934 222.874 90.677C222.874 95.9264 220.727 100.051 217.984 100.051Z" fill="#EFD580"/>
<path d="M144.728 177.784C144.728 177.784 156.457 172.723 163.451 172.723C163.451 172.723 154.267 169.787 144.728 177.784Z" fill="#B2753F"/>
<path d="M145.205 182.62L162.964 182.183C162.964 182.183 152.397 186.143 145.205 182.62Z" fill="#B2753F"/>
<g opacity="0.69">
<path opacity="0.69" d="M212.367 277.161L226.287 269.969C226.287 269.969 223.393 264.227 217.597 263.668L205.969 268.622L212.367 277.161Z" fill="white"/>
</g>
<path d="M212.368 277.161C209.963 271.045 205.639 267.018 202.71 268.17L196.398 270.647L205.11 292.809L211.422 290.328C214.348 289.161 214.77 283.279 212.368 277.161Z" fill="#E0B94C"/>
<path d="M205.096 292.811C208.025 291.66 208.45 285.769 206.046 279.652C203.642 273.535 199.318 269.509 196.389 270.659C193.46 271.81 193.034 277.701 195.438 283.818C197.843 289.935 202.166 293.961 205.096 292.811Z" fill="#EFD580"/>
<path d="M254.067 120.956C258.478 125.781 262.226 131.172 265.212 136.987L265.768 138.081L266.048 138.629L266.303 139.185L267.31 141.425L268.222 143.711C268.295 143.899 268.374 144.091 268.444 144.282L268.639 144.866L269.031 146.03L269.423 147.197L269.727 148.386L270.363 150.753L270.989 153.097C271.202 153.875 271.469 154.641 271.707 155.413L272.072 156.571C272.196 156.957 272.339 157.337 272.473 157.72L273.288 160.009L274.17 162.277L274.611 163.41L275.079 164.535C276.295 167.547 277.655 170.496 278.996 173.456C280.337 176.417 281.796 179.323 283.274 182.219C284.752 185.116 286.254 187.994 287.802 190.87C286.935 189.49 286.108 188.089 285.293 186.678C284.478 185.268 283.675 183.852 282.879 182.423C281.319 179.563 279.838 176.669 278.363 173.751C277.655 172.283 276.922 170.827 276.262 169.334L275.249 167.109L274.279 164.86C274.121 164.486 273.954 164.112 273.802 163.732L273.352 162.596L272.44 160.316L271.609 158.009C271.473 157.626 271.327 157.243 271.199 156.854L270.828 155.684C270.591 154.902 270.323 154.127 270.11 153.337L269.502 150.957L268.894 148.611L268.59 147.44L268.219 146.288L267.848 145.136L267.662 144.559C267.595 144.367 267.519 144.179 267.45 143.99L266.586 141.723C265.944 140.24 265.321 138.744 264.597 137.294C263.176 134.379 261.577 131.553 259.811 128.832C258.061 126.09 256.143 123.46 254.067 120.956Z" fill="#ABBFD2"/>
<path d="M146.357 129.279L144.252 136.157C143.559 138.449 142.863 140.741 142.203 143.039C141.872 144.191 141.534 145.34 141.227 146.495C140.92 147.65 140.619 148.805 140.29 149.96C139.7 152.279 139.129 154.601 138.633 156.951C138.905 154.564 139.304 152.193 139.828 149.848C140.345 147.504 140.962 145.182 141.619 142.872C142.276 140.562 143.015 138.279 143.802 136.011C144.59 133.744 145.429 131.498 146.357 129.279Z" fill="#ABBFD2"/>
<path d="M172.389 122.355C171.641 123.429 171.13 124.649 170.89 125.935C170.656 127.215 170.801 128.536 171.306 129.735C171.821 130.921 172.604 131.971 173.593 132.805C174.579 133.644 175.665 134.358 176.825 134.932C177.969 135.541 179.191 135.991 180.456 136.27C181.725 136.534 183.016 136.675 184.312 136.692C186.916 136.684 189.509 136.357 192.032 135.717C194.576 135.11 197.069 134.308 199.489 133.318C200.705 132.835 201.897 132.3 203.083 131.744C204.269 131.188 205.433 130.592 206.583 129.966C208.891 128.727 211.125 127.354 213.273 125.853C214.358 125.115 215.401 124.333 216.438 123.516C217.475 122.698 218.46 121.844 219.43 120.956C215.727 124.698 211.387 127.777 206.805 130.379C204.515 131.684 202.143 132.839 199.704 133.838C197.266 134.857 194.751 135.685 192.185 136.315C189.607 136.95 186.961 137.265 184.306 137.255C182.976 137.228 181.653 137.073 180.353 136.793C179.041 136.5 177.778 136.016 176.606 135.358C175.428 134.736 174.33 133.973 173.338 133.084C173.082 132.872 172.863 132.613 172.629 132.376C172.513 132.255 172.413 132.121 172.304 131.993C172.196 131.867 172.094 131.735 172 131.598C171.599 131.059 171.274 130.468 171.033 129.841C170.548 128.582 170.443 127.208 170.729 125.89C171.012 124.603 171.579 123.395 172.389 122.355Z" fill="#ABBFD2"/>
<g opacity="0.71">
<path opacity="0.71" d="M63.1035 168.632C65.5483 169.175 67.9871 169.757 70.4197 170.377C72.8524 170.985 75.285 171.635 77.7177 172.289C80.1503 172.942 82.5617 173.626 84.9731 174.331C87.3845 175.037 89.7897 175.766 92.1798 176.538C89.7249 175.995 87.2831 175.412 84.8545 174.79C82.4218 174.182 79.9892 173.535 77.5778 172.881C75.1664 172.228 72.7429 171.547 70.3315 170.839C67.9202 170.131 65.5118 169.401 63.1035 168.632Z" fill="#CCD9DB"/>
</g>
<g opacity="0.71">
<path opacity="0.71" d="M63.1035 176.538L74.2876 180.085C78.0218 181.252 81.7437 182.447 85.5083 183.489C87.3814 184.028 89.2698 184.541 91.1672 184.93C91.6446 185.015 92.1099 185.107 92.6025 185.186C93.0951 185.265 93.5756 185.344 94.056 185.453L94.7797 185.602L95.4974 185.778C95.9748 185.894 96.4491 186.025 96.9205 186.161C98.8088 186.696 100.67 187.322 102.506 187.985C104.343 188.648 106.155 189.411 107.934 190.228C106.11 189.538 104.267 188.87 102.409 188.268C100.551 187.666 98.6872 187.079 96.7988 186.599C96.3275 186.48 95.8531 186.362 95.3788 186.262L94.6672 186.097L93.9526 185.955C93.4783 185.851 93.0008 185.778 92.5204 185.705C92.0399 185.632 91.5504 185.544 91.0638 185.462C90.5773 185.38 90.0999 185.259 89.6195 185.158C89.139 185.058 88.6616 184.939 88.1842 184.815C87.2324 184.581 86.2867 184.322 85.341 184.061C83.4588 183.517 81.5886 182.939 79.7216 182.35C77.8545 181.76 75.9905 181.161 74.1447 180.526C72.299 179.891 70.4471 179.243 68.6013 178.587C66.7555 177.93 64.928 177.249 63.1035 176.538Z" fill="#CCD9DB"/>
</g>
<g opacity="0.71">
<path opacity="0.71" d="M57.2517 216.917C59.2556 217.525 61.2443 218.154 63.2421 218.774L69.2112 220.692C73.1886 221.978 77.1478 223.315 81.1191 224.622C85.0722 225.978 89.0252 227.306 92.9783 228.686L98.8957 230.765C100.86 231.48 102.831 232.173 104.789 232.893C102.785 232.285 100.796 231.653 98.7984 231.036L92.8293 229.118C88.8519 227.829 84.8927 226.495 80.9245 225.185C76.9562 223.875 73.0183 222.501 69.0653 221.121L63.1509 219.042C61.1835 218.34 59.213 217.647 57.2517 216.917Z" fill="#CCD9DB"/>
</g>
<g opacity="0.71">
<path opacity="0.71" d="M80.2314 234.373C80.4377 234.526 80.6678 234.644 80.9126 234.722C81.1528 234.816 81.393 234.904 81.6363 234.987C82.1228 235.157 82.6124 235.312 83.105 235.467L86.0546 236.379L91.9599 238.202C93.9273 238.81 95.8947 239.436 97.853 240.078C99.8113 240.719 101.767 241.379 103.71 242.075C101.701 241.607 99.7028 241.092 97.7162 240.531C95.7275 239.981 93.7631 239.391 91.7805 238.783C89.7979 238.175 87.8487 237.525 85.9056 236.832C84.9326 236.487 83.9656 236.124 83.0047 235.743C82.5273 235.549 82.0499 235.348 81.5785 235.135C81.3414 235.032 81.1072 234.923 80.8761 234.804C80.639 234.697 80.4212 234.551 80.2314 234.373Z" fill="#CCD9DB"/>
</g>
<g opacity="0.71">
<path opacity="0.71" d="M71.8989 255.982C72.3036 256.182 72.7199 256.358 73.1457 256.508L74.4137 256.982L76.9588 257.894L82.0492 259.736C85.4468 260.964 88.8373 262.204 92.2207 263.456C95.6051 264.718 98.9896 265.976 102.362 267.265C105.734 268.554 109.1 269.864 112.451 271.217C109.019 270.092 105.601 268.926 102.198 267.718C98.7939 266.51 95.3984 265.282 92.0109 264.034C88.6265 262.776 85.2451 261.502 81.885 260.186C80.2004 259.529 78.5228 258.86 76.8524 258.177L74.3559 257.131C73.5156 256.795 72.6953 256.412 71.8989 255.982Z" fill="#CCD9DB"/>
</g>
<g opacity="0.71">
<path opacity="0.71" d="M86.5381 272.781C87.3044 273.003 88.0767 273.192 88.8461 273.389L91.148 274.016C92.6836 274.438 94.207 274.891 95.7335 275.347C97.26 275.803 98.7743 276.286 100.295 276.791C101.815 277.295 103.311 277.812 104.798 278.389C103.238 278.055 101.694 277.66 100.158 277.244C98.6223 276.827 97.0928 276.383 95.5693 275.927C94.0459 275.471 92.5285 274.982 91.0233 274.465C90.2661 274.213 89.5029 273.946 88.767 273.672C88.0311 273.398 87.2588 273.128 86.5381 272.781Z" fill="#CCD9DB"/>
</g>
<g opacity="0.2">
<path opacity="0.2" d="M248.447 282.811C248.167 282.98 247.935 283.218 247.772 283.501C247.611 283.77 247.497 284.064 247.435 284.371C247.37 284.678 247.338 284.992 247.34 285.307C247.334 285.626 247.353 285.945 247.395 286.261C247.476 286.905 247.612 287.54 247.8 288.161C247.988 288.793 248.207 289.416 248.447 290.055C247.994 289.54 247.626 288.956 247.356 288.325C247.069 287.694 246.879 287.022 246.793 286.334C246.695 285.63 246.759 284.912 246.982 284.237C247.1 283.897 247.289 283.586 247.538 283.325C247.777 283.06 248.096 282.88 248.447 282.811Z" fill="#222222"/>
</g>
<g opacity="0.2">
<path opacity="0.2" d="M254.292 285.423C258.324 284.516 262.502 284.465 266.555 285.274L267.316 285.423L268.067 285.608C268.571 285.736 269.068 285.855 269.557 285.967L270.299 286.14C270.545 286.192 270.8 286.228 271.05 286.274C271.551 286.356 272.053 286.45 272.57 286.523C274.592 286.799 276.624 287.027 278.652 287.195C282.726 287.584 286.819 287.821 290.909 288.061C292.956 288.182 295.002 288.286 297.049 288.386L303.191 288.69C301.142 288.72 299.089 288.69 297.04 288.69C294.99 288.69 292.937 288.599 290.888 288.532C289.863 288.499 288.838 288.468 287.814 288.407C286.789 288.347 285.764 288.307 284.739 288.243C283.715 288.179 282.69 288.122 281.668 288.046L280.148 287.936L278.627 287.806C276.584 287.621 274.543 287.378 272.503 287.076C271.995 286.994 271.491 286.897 270.983 286.809C270.727 286.76 270.472 286.723 270.22 286.666L269.465 286.483C268.958 286.362 268.456 286.24 267.969 286.103L267.233 285.903L266.492 285.736C264.5 285.295 262.47 285.051 260.431 285.009C258.376 284.933 256.318 285.072 254.292 285.423Z" fill="#222222"/>
</g>
<g opacity="0.2">
<path opacity="0.2" d="M255.486 289.736C257.1 289.224 258.765 288.891 260.451 288.742C262.143 288.586 263.845 288.586 265.536 288.742L266.804 288.885C267.226 288.937 267.643 289.022 268.063 289.089C268.482 289.156 268.896 289.262 269.312 289.35L270.547 289.627C272.171 290.013 273.834 290.268 275.497 290.511C278.824 290.982 282.187 291.311 285.532 291.618C288.877 291.925 292.246 292.183 295.612 292.426C292.237 292.426 288.865 292.315 285.496 292.092C282.126 291.879 278.76 291.575 275.409 291.113C273.74 290.858 272.064 290.596 270.413 290.201L269.197 289.897C268.789 289.806 268.388 289.684 267.981 289.621C267.573 289.557 267.163 289.459 266.764 289.396L265.524 289.222C263.859 289.028 262.18 288.976 260.506 289.064C258.815 289.12 257.133 289.345 255.486 289.736Z" fill="#222222"/>
</g>
<path d="M230.609 157.547C231.406 160.806 232.163 164.072 232.881 167.347C233.608 170.62 234.298 173.9 234.985 177.18C235.672 180.46 236.323 183.748 236.956 187.04C237.588 190.332 238.199 193.63 238.762 196.937C237.967 193.679 237.21 190.412 236.49 187.138C235.764 183.864 235.073 180.584 234.389 177.304C233.705 174.025 233.048 170.736 232.416 167.441C231.783 164.146 231.175 160.854 230.609 157.547Z" fill="#ABBFD2"/>
<path d="M176.862 226.482C176.862 226.482 175.433 230.214 176.862 233.379C178.291 236.543 175.646 240.066 176.862 242.999C176.862 242.999 174.588 240.263 175.433 235.704C176.278 231.145 174.107 228.467 176.862 226.482Z" fill="#D77F40"/>
<path d="M196.09 245.871H194.983C189.349 245.872 183.811 244.415 178.906 241.643L182.993 242.002L187.436 243.367C187.436 243.367 195.522 241.546 196.09 245.871Z" fill="#D77F40"/>
<path d="M182.424 210.932L182.236 211.147C180.323 213.254 177.303 215.281 173.095 216.199C173.095 216.199 169.02 218.631 167.926 219.99L171.27 215.217C176.066 215.36 182.236 211.062 182.424 210.932Z" fill="#D77F40"/>
<path d="M209.398 26.5405C207.948 26.115 206.525 25.7624 205.101 25.4159C203.678 25.0694 202.252 24.7685 200.823 24.4706C200.105 24.3338 199.394 24.1666 198.673 24.0511C198.311 23.9842 197.955 23.9052 197.594 23.8414C197.232 23.7776 196.87 23.7137 196.511 23.6438C195.787 23.4918 195.058 23.3854 194.331 23.2243C193.604 23.0633 192.868 22.9508 192.132 22.7471C192.876 22.6202 193.626 22.5309 194.379 22.4797C195.131 22.4523 195.9 22.4189 196.639 22.4553C197.378 22.4918 198.159 22.5313 198.892 22.6286C199.266 22.6742 199.643 22.7137 200.014 22.7806L201.127 22.9812C202.609 23.285 204.061 23.7204 205.466 24.2821C206.17 24.5657 206.856 24.8926 207.519 25.2609C208.188 25.6219 208.817 26.0507 209.398 26.5405Z" fill="#371818"/>
<path d="M194.641 17.505C194.36 15.8491 194.417 14.1534 194.809 12.5201C195.182 10.8419 195.908 9.26202 196.937 7.88471C197.98 6.48721 199.369 5.38435 200.966 4.68402C202.524 4.0141 204.22 3.73246 205.911 3.86333C204.376 4.31115 202.9 4.9429 201.517 5.74484C200.871 6.15117 200.261 6.61073 199.692 7.11873C199.135 7.63119 198.626 8.19386 198.172 8.79962C197.239 10.0403 196.491 11.4091 195.949 12.8635C195.384 14.3716 194.947 15.9241 194.641 17.505Z" fill="#371818"/>
<path d="M211.191 3.86274C212.51 3.84957 213.825 3.99345 215.11 4.29132C215.755 4.43722 216.394 4.62263 217.026 4.83236C217.66 5.05143 218.28 5.31031 218.881 5.60746C220.111 6.19794 221.239 6.97857 222.226 7.92058C222.722 8.40532 223.174 8.93213 223.579 9.49509C223.978 10.0686 224.32 10.6794 224.601 11.3188C224.742 11.6385 224.867 11.9652 224.975 12.2976C225.081 12.6259 225.151 12.9602 225.239 13.2915C225.404 13.9567 225.516 14.6334 225.577 15.3159C225.676 16.6827 225.557 18.0566 225.224 19.3859C224.875 20.6902 224.328 21.9335 223.603 23.0729C222.899 24.1967 222.011 25.1944 220.976 26.0244C221.761 25.0037 222.423 23.8936 222.946 22.7173C223.466 21.5744 223.842 20.3717 224.066 19.1367C224.249 17.918 224.274 16.6809 224.142 15.4557C224.064 14.8482 223.945 14.2469 223.783 13.6563C223.698 13.3523 223.637 13.0484 223.536 12.7687C223.442 12.4835 223.332 12.2035 223.208 11.9298C222.723 10.8227 222.045 9.81018 221.207 8.93885C220.781 8.50236 220.325 8.0961 219.842 7.72301C219.354 7.34267 218.847 6.98857 218.321 6.66219C217.23 6.01482 216.085 5.46457 214.897 5.01778C213.69 4.54869 212.451 4.16278 211.191 3.86274Z" fill="#371818"/>
<path d="M212.245 49.277C213.159 51.0549 213.792 52.9628 214.124 54.9337C214.484 56.9033 214.637 58.9051 214.581 60.9065C214.581 61.405 214.523 61.9034 214.495 62.405C214.468 62.9065 214.422 63.402 214.343 63.8944C214.264 64.3868 214.204 64.8853 214.124 65.3777C214.045 65.8701 213.918 66.3534 213.82 66.8397C213.594 67.8101 213.317 68.7679 212.99 69.7091C212.915 69.9454 212.827 70.1777 212.729 70.4052C212.634 70.6362 212.543 70.8672 212.443 71.0952C212.245 71.5511 212.045 72.007 211.835 72.4508C211.889 71.9523 211.965 71.466 212.041 70.9797C212.118 70.4933 212.23 70.0192 212.273 69.5267L212.473 68.0799C212.501 67.8367 212.555 67.5996 212.574 67.3595L212.65 66.633L212.814 65.1923C212.844 64.709 212.89 64.2287 212.926 63.7485C212.942 63.5084 212.978 63.2713 212.987 63.0281L213.015 62.3077C213.036 61.8244 213.081 61.3472 213.078 60.8639C213.142 58.9399 213.078 57.0158 212.96 55.0887C212.829 53.1398 212.59 51.1996 212.245 49.277Z" fill="#371818"/>
<path d="M190.601 32.2187C189.796 33.6441 189.272 35.2103 189.056 36.8328C188.835 38.3751 189.157 39.9462 189.969 41.2767C190.174 41.5988 190.404 41.9038 190.659 42.1886L191.057 42.5989L191.504 42.988L191.951 43.3801L192.429 43.7448L192.906 44.1126L193.405 44.4622C194.733 45.3953 196.141 46.2859 197.51 47.2434C198.899 48.2117 200.22 49.2751 201.463 50.4258C201.767 50.7298 202.056 51.0338 202.354 51.3377L202.795 51.7967L203.205 52.2891L204.017 53.2709L204.747 54.3135L205.109 54.8363C205.224 55.0126 205.328 55.201 205.434 55.3804C205.65 55.7482 205.866 56.1099 206.073 56.4777C206.178 56.6608 206.274 56.8495 206.359 57.043L206.626 57.6145L207.146 58.7604C207.426 59.5537 207.727 60.3349 207.985 61.1282C208.198 61.9398 208.408 62.7453 208.594 63.5599C208.244 62.803 207.912 62.0401 207.587 61.2863L206.474 59.0644L205.845 58.0096L205.541 57.4838C205.442 57.3057 205.333 57.1341 205.212 56.9701C204.975 56.6388 204.747 56.3014 204.516 55.967C204.4 55.8029 204.291 55.6327 204.169 55.4685L203.786 54.9974L203.023 54.0551L202.202 53.1645L201.794 52.7177L201.356 52.3013C201.052 52.0216 200.776 51.739 200.478 51.4654C199.256 50.3956 197.976 49.394 196.643 48.4653C195.308 47.52 193.906 46.6203 192.565 45.6051L192.058 45.2221L191.565 44.8117L191.072 44.4014L190.604 43.9515L190.139 43.4986C189.99 43.3284 189.835 43.1643 189.698 42.991C189.419 42.6366 189.171 42.2594 188.956 41.8633C188.524 41.0736 188.254 40.2055 188.162 39.3101C188.077 38.4361 188.136 37.5542 188.336 36.6991C188.739 35.0488 189.517 33.5137 190.61 32.2126L190.601 32.2187Z" fill="#371818"/>
<path d="M150.983 47.0223C152.635 47.7845 154.37 48.3517 156.153 48.7123C157.906 49.0683 159.688 49.2647 161.477 49.299L162.818 49.2747C163.265 49.2747 163.712 49.2291 164.159 49.1987C164.606 49.1683 165.056 49.15 165.503 49.0893C165.95 49.0285 166.397 48.9646 166.844 48.9069C167.069 48.8734 167.297 48.8613 167.519 48.8187L168.188 48.688C168.635 48.606 169.085 48.5269 169.541 48.4509C170.454 48.2686 171.326 48.0315 172.26 47.8825C171.454 48.3446 170.618 48.7762 169.76 49.1622C169.322 49.3324 168.884 49.4966 168.44 49.6577L167.772 49.8917C167.55 49.9707 167.318 50.0194 167.09 50.0771C166.631 50.1926 166.178 50.3051 165.71 50.4115C165.48 50.468 165.246 50.5096 165.01 50.5361L164.302 50.6334C163.358 50.7561 162.407 50.818 161.456 50.8188C159.549 50.7825 157.659 50.4587 155.848 49.8583C154.048 49.2382 152.315 48.3476 150.983 47.0223Z" fill="#371818"/>
</g>
<defs>
<linearGradient id="paint0_linear_1217_15724" x1="193.5" y1="253.368" x2="194.159" y2="401.539" gradientUnits="userSpaceOnUse">
<stop stop-color="white"/>
<stop offset="1" stop-color="white" stop-opacity="0"/>
</linearGradient>
<clipPath id="clip0_1217_15724">
<rect width="389" height="545" fill="white" transform="translate(-1)"/>
</clipPath>
</defs>
</svg>
