<svg width="375" height="997" viewBox="0 0 375 997" fill="none" xmlns="http://www.w3.org/2000/svg">
<mask id="mask0_1665_4834" style="mask-type:alpha" maskUnits="userSpaceOnUse" x="0" y="0" width="375" height="997">
<rect width="375" height="997" fill="#D9D9D9"/>
</mask>
<g mask="url(#mask0_1665_4834)">
<path d="M338.598 214.82C338.598 214.82 345.909 201.76 351.654 202.805C353.311 203.099 354.87 203.799 356.191 204.843C357.512 205.886 358.555 207.24 359.226 208.784C359.226 208.784 360.248 185.304 375.022 181.648V225.065L338.598 214.82Z" fill="#4F7C4A"/>
<path d="M296.563 188.629C304.3 185.452 313.587 189.148 319.513 197.539C326.228 207.052 325.209 219.331 317.237 224.949C309.265 230.566 297.359 227.432 290.645 217.919C289.903 216.866 289.242 215.757 288.668 214.604C280.932 217.78 270.964 214.349 265.039 205.955C258.324 196.442 260.455 185.478 267.315 178.545C284.178 161.457 296.002 187.481 296.563 188.629Z" fill="#4F7C4A"/>
<path d="M225.883 175.082C225.883 175.082 240.812 159.365 248.187 168.439C255.563 177.514 253.752 183.689 253.752 183.689L225.883 175.082Z" fill="#4F7C4A"/>
<path d="M-1.34229 210.501V282.187L375.014 315.602V225.067C375.014 225.067 317.377 205.664 282.355 189.495C247.333 173.327 147.083 119.941 -1.34229 210.501Z" fill="#75CC98"/>
<path d="M385.269 442.168C385.269 442.168 337.091 431.114 341.63 412.385C346.169 393.655 295.677 391.385 242.911 382.872C190.146 374.359 136.82 352.795 164.621 333.498C192.422 314.201 384.747 279 384.747 279L384.954 343.762L384.989 354.268V354.507L385.034 368.886L385.269 442.168Z" fill="url(#paint0_linear_1665_4834)"/>
<path d="M-1.33584 119.166L6.11088 140.517L16.0366 92.3554L27.9481 134.557L38.3703 85.4061L63.4216 178.365L-1.34229 210.5L-1.33584 119.166Z" fill="#56AB78"/>
<path d="M138.421 161.923L121.407 92.7851L106.861 142.504L98.425 103.278L75.5884 177.754L138.421 161.923Z" fill="#5C9E54"/>
<path d="M98.4264 182.59L67.1566 41.1402L41.8442 186.489L98.4264 182.59Z" fill="#486646"/>
<path d="M263 313.626C263 313.626 268.883 310.494 267.623 284C267.623 284 272.391 302.62 267.8 315.702L263 313.626Z" fill="#56AB78"/>
<path d="M203.986 236.492C203.986 236.492 209.873 233.358 208.609 206.864C208.609 206.864 213.38 225.483 208.786 238.569L203.986 236.492Z" fill="#56AB78"/>
<path d="M195.836 235.28C195.836 235.28 201.719 232.149 200.459 205.655C200.459 205.655 205.227 224.274 200.636 237.357L195.836 235.28Z" fill="#56AB78"/>
<path d="M253.752 233.326C253.752 233.326 259.123 229.372 254.026 203.336C254.026 203.336 261.441 221.072 258.807 234.677L253.752 233.326Z" fill="#56AB78"/>
<path d="M264.029 232.977C264.029 232.977 269.913 229.846 268.652 203.351C268.652 203.351 273.42 221.971 268.829 235.054L264.029 232.977Z" fill="#56AB78"/>
<path d="M277.867 233.337C277.867 233.337 272.541 229.329 277.912 203.347C277.912 203.347 270.301 220.996 272.803 234.627L277.867 233.337Z" fill="#56AB78"/>
<path d="M354 348.883C354 348.883 359.113 334.279 355.328 318.194C355.328 318.194 362.266 331.125 361.005 346.894C361.005 346.894 365.734 331.218 363.526 299C363.526 299 370.463 324.059 370.463 348.883L373.616 299L375.979 361.405L354 348.883Z" fill="#56AB78"/>
<path d="M319.535 185.168C319.562 183.885 319.168 182.629 318.413 181.591C318.51 181.546 318.607 181.498 318.703 181.443C321.14 180.034 321.576 176.222 319.67 172.923C317.765 169.624 314.248 168.086 311.811 169.505C309.5 170.84 308.99 174.342 310.56 177.499C307.846 177.438 305.499 178.592 304.651 180.682C304.032 182.204 304.329 183.926 305.296 185.464C303.752 186.68 302.769 188.305 302.653 190.134C302.382 194.326 306.753 198.021 312.417 198.386C318.081 198.75 322.891 195.648 323.162 191.456C323.342 188.999 321.888 186.715 319.535 185.168Z" fill="#4F7C4A"/>
<path d="M346.528 182.434C346.618 180.706 346.031 178.91 344.916 177.275C345.055 177.207 345.196 177.136 345.332 177.059C348.849 175.027 349.477 169.526 346.734 164.772C343.991 160.019 338.913 157.813 335.396 159.845C332.066 161.78 331.331 166.804 333.594 171.37C329.681 171.28 326.299 172.947 325.071 175.962C324.181 178.158 324.604 180.638 326.006 182.857C323.785 184.611 322.366 186.952 322.195 189.59C321.805 195.636 328.111 200.964 336.28 201.492C344.449 202.021 351.383 197.542 351.773 191.496C351.998 187.958 349.926 184.663 346.528 182.434Z" fill="#4F7C4A"/>
<path d="M68.4584 88.3861C68.9161 96.3835 69.3062 104.384 69.7479 112.385L70.8955 136.386C71.0932 140.389 71.3017 144.389 71.5209 148.385C71.7401 152.382 71.8712 156.385 71.9142 160.394L71.9529 166.402C71.9529 168.405 71.9529 170.407 71.911 172.413C71.8594 176.421 71.7562 180.43 71.5144 184.444H71.2566C70.7601 180.452 70.4055 176.457 70.0993 172.461C69.9316 170.462 69.8188 168.463 69.6769 166.463L69.3353 160.465C69.1354 156.467 69.0129 152.464 68.9678 148.456C68.9226 144.449 68.8775 140.444 68.8323 136.441L68.4584 112.414C68.3778 104.403 68.2617 96.3931 68.2134 88.3829L68.4584 88.3861Z" fill="#33271A"/>
<path d="M121.96 108.858C122.166 113.521 122.301 118.184 122.475 122.847L122.688 129.841L122.862 136.836C122.933 139.168 123.015 141.5 123.107 143.83C123.2 146.161 123.2 148.492 123.107 150.825C123.036 153.156 122.904 155.488 122.727 157.819C122.55 160.151 122.318 162.482 121.947 164.814H121.689C121.321 162.482 121.093 160.151 120.912 157.819C120.731 155.488 120.59 153.156 120.528 150.825C120.467 148.493 120.461 146.162 120.528 143.83C120.596 141.499 120.702 139.167 120.773 136.836L120.947 129.841L121.16 122.847C121.334 118.184 121.483 113.521 121.676 108.858H121.96Z" fill="#33271A"/>
<path d="M38.7956 109.74C39.0019 114.403 39.1373 119.066 39.3114 123.729L39.5242 130.723L39.6983 137.721C39.7692 140.053 39.8465 142.384 39.9433 144.716C40.04 147.047 40.0303 149.379 39.9433 151.71C39.8562 154.042 39.7401 156.373 39.5596 158.704C39.3791 161.036 39.1535 163.367 38.7827 165.699H38.5248C38.1541 163.367 37.9252 161.036 37.7479 158.704C37.5706 156.373 37.4256 154.042 37.3643 151.71C37.3031 149.379 37.2966 147.047 37.3643 144.716C37.432 142.384 37.5384 140.053 37.6093 137.721L37.7834 130.723L37.9961 123.729C38.1702 119.066 38.3185 114.403 38.5119 109.74H38.7956Z" fill="#33271A"/>
<path d="M16.2776 124.632C16.5999 130.453 16.8482 136.273 17.1383 142.094L17.5219 150.826L17.8669 159.559C17.9958 162.468 18.1344 165.377 18.2827 168.288C18.431 171.199 18.4933 174.111 18.4697 177.024C18.4546 179.939 18.3837 182.854 18.2569 185.77C18.1344 188.672 17.9636 191.6 17.6509 194.518H17.393C16.9675 191.616 16.6805 188.714 16.4452 185.812C16.2099 182.909 16.0197 180.007 15.8907 177.082C15.7618 174.157 15.707 171.258 15.7328 168.346C15.7586 165.434 15.8037 162.503 15.8037 159.601V150.862L15.8456 142.123C15.9036 136.296 15.9262 130.469 16.0165 124.642L16.2776 124.632Z" fill="#33271A"/>
<path d="M336.221 180.313C336.428 183.038 336.563 185.766 336.737 188.494L336.95 192.586L337.124 196.675C337.179 198.039 337.282 199.403 337.369 200.767C337.448 202.13 337.448 203.497 337.369 204.859C337.292 206.224 337.169 207.588 336.992 208.952C336.819 210.33 336.558 211.696 336.209 213.041H335.951C335.602 211.696 335.34 210.33 335.167 208.952C334.991 207.586 334.865 206.222 334.79 204.859C334.711 203.497 334.711 202.13 334.79 200.767C334.877 199.403 334.98 198.039 335.035 196.675L335.209 192.586L335.422 188.494C335.596 185.766 335.744 183.038 335.938 180.313H336.221Z" fill="#33271A"/>
<path d="M313.043 180.313C313.246 181.2 313.4 182.086 313.558 182.973L313.771 184.305L313.945 185.634C313.997 186.079 314.106 186.52 314.19 186.965C314.271 187.406 314.271 187.857 314.19 188.297C314.111 188.752 313.985 189.197 313.813 189.626C313.622 190.107 313.358 190.557 313.03 190.958H312.772C312.444 190.557 312.18 190.107 311.988 189.626C311.815 189.198 311.689 188.752 311.611 188.297C311.531 187.857 311.531 187.406 311.611 186.965C311.695 186.52 311.805 186.079 311.856 185.634L312.03 184.305L312.243 182.973C312.401 182.086 312.565 181.2 312.759 180.313H313.043Z" fill="#33271A"/>
<path d="M465 421.427L-102 485V292.992C-48.9681 281.551 0.566117 276.099 46.5368 275.155C52.362 275.03 58.1302 274.981 63.8415 275.007C67.6285 275.007 71.3915 275.051 75.1304 275.141C79.8116 275.236 84.4534 275.375 89.0557 275.557C333.715 285.331 465 421.427 465 421.427Z" fill="#56AB78"/>
<path d="M409 441.751V970H-46V415.633C-46 415.633 8.7183 391.982 92.5535 383.218C103.521 382.068 114.986 381.176 126.897 380.628C206.834 376.929 306.653 388.606 409 441.751Z" fill="#75CC98"/>
</g>
<defs>
<linearGradient id="paint0_linear_1665_4834" x1="157" y1="360.592" x2="385.269" y2="360.592" gradientUnits="userSpaceOnUse">
<stop stop-color="#66C7D6"/>
<stop offset="1" stop-color="#99F5FF"/>
</linearGradient>
</defs>
</svg>
