<svg width="107" height="104" viewBox="0 0 107 104" fill="none" xmlns="http://www.w3.org/2000/svg">
<path d="M7.41493 72.269C5.92767 74.8072 4.80963 77.5666 4.06352 80.4107C3.73834 81.6481 4.71003 82.6275 5.87485 82.7205C11.5724 83.1744 17.2958 82.4107 22.6534 80.3854C27.9674 78.3759 33.2358 75.2771 37.078 71.0321C39.0429 68.8615 40.6974 66.1632 40.9208 63.1832C41.0413 61.5738 40.4767 59.8571 39.2184 58.8012C37.9765 57.758 36.3671 57.3426 34.7858 57.1841C34.3731 57.1423 33.9599 57.1329 33.5472 57.1384C22.9813 56.4484 12.6233 63.3824 7.41493 72.269" fill="#EFD580"/>
<path d="M30.9996 75.1636C30.4599 76.1628 29.9867 77.1923 29.5817 78.2481C27.9382 81.9423 26.5681 85.773 26.096 89.8078C25.794 92.3856 25.9194 94.9782 26.5346 97.5038C26.8047 98.6136 28.0334 98.9228 28.9523 98.4771C34.7945 95.644 40.2131 91.8519 44.8278 87.2773C48.2491 83.8852 51.4586 79.5648 52.1045 74.6601C52.433 72.1682 52.2003 69.5854 50.9271 67.3691C49.5658 64.9993 47.1454 63.4736 44.3684 63.9115C42.9824 64.13 41.6233 64.7044 40.3441 65.4439C40.1713 65.3823 39.9771 65.3674 39.7724 65.4186C35.1423 66.5966 32.8924 71.0787 30.9996 75.1636" fill="#E7BE36"/>
<path d="M49.1884 67.8972C48.5171 68.5679 47.9884 69.3437 47.557 70.1768C46.4087 71.8918 45.9888 74.2088 45.64 76.1841C45.3462 77.514 45.1068 78.8686 44.9506 80.2315C44.6672 82.0665 44.4449 83.912 44.391 85.7547C44.2127 91.8374 46.1176 97.9058 49.6027 102.881C50.1221 103.623 51.2666 104.141 52.1035 103.515C56.1603 100.48 59.0225 96.1671 61.2223 91.6564C63.2928 87.4114 64.7058 82.6993 64.1886 77.9333C63.6576 73.0368 61.0215 67.8543 56.152 66.0473C53.6788 65.1296 50.9931 66.0952 49.1884 67.8972" fill="#EFD580"/>
<path d="M71.504 95.6525C73.9107 97.345 76.5688 98.687 79.3414 99.6658C80.5475 100.092 81.6033 99.2053 81.7926 98.052C82.7164 92.4117 82.4287 86.6443 80.8534 81.1382C79.2908 75.6761 76.6387 70.1689 72.726 65.9889C70.7254 63.8513 68.1729 61.9789 65.2215 61.5101C63.6275 61.257 61.8701 61.6773 60.7136 62.8438C59.5719 63.9949 59.0238 65.5647 58.735 67.1278C58.6596 67.5356 58.6161 67.9466 58.5869 68.3581C57.0254 78.8305 63.079 89.7272 71.504 95.6525Z" fill="#E7BE36"/>
<path d="M76.3408 72.3883C77.291 73.009 78.2782 73.5658 79.2966 74.0571C82.8423 76.0005 86.5469 77.6826 90.5283 78.487C93.0726 79.0015 95.6668 79.0906 98.2342 78.6873C99.3632 78.509 99.7721 77.3106 99.404 76.3576C97.0644 70.3008 93.7339 64.5873 89.5566 59.6105C86.4589 55.9196 82.4191 52.364 77.5849 51.3142C75.1281 50.7811 72.5349 50.7992 70.2212 51.8848C67.7463 53.0452 66.0258 55.3303 66.2327 58.1348C66.3356 59.534 66.7961 60.936 67.4272 62.2725C67.3513 62.4392 67.3199 62.6312 67.3546 62.8397C68.1452 67.5513 72.4265 70.1638 76.3408 72.3883" fill="#EFD580"/>
<path d="M70.6046 53.6599C71.2175 54.3856 71.9471 54.976 72.7411 55.4751C74.3555 56.7609 76.6295 57.3711 78.5696 57.8823C79.8709 58.2845 81.2008 58.6356 82.5466 58.9041C84.3514 59.3387 86.1721 59.7123 88.0038 59.9187C94.0513 60.5993 100.256 59.2034 105.503 56.1419C106.284 55.6858 106.896 54.5881 106.342 53.7023C103.653 49.4083 99.5909 46.1989 95.2777 43.6332C91.2187 41.2193 86.6397 39.4212 81.8473 39.5423C76.9239 39.6661 71.5411 41.8648 69.3374 46.5681C68.2177 48.9566 68.9583 51.7132 70.6046 53.6599" fill="#E7BE36"/>
<path d="M98.2354 32.1928C99.7232 29.6541 100.841 26.8942 101.587 24.0501C101.912 22.8132 100.94 21.8338 99.7755 21.7408C94.0785 21.2863 88.3545 22.05 82.9975 24.0759C77.6835 26.0848 72.4145 29.1842 68.5729 33.4286C66.608 35.5993 64.9535 38.2981 64.7301 41.2781C64.6091 42.8875 65.1742 44.6042 66.432 45.6601C67.6738 46.7028 69.2838 47.1193 70.8645 47.2777C71.2778 47.319 71.691 47.3278 72.1037 47.3234C82.669 48.0134 93.0275 41.0784 98.2354 32.1928" fill="#EFD580"/>
<path d="M74.6498 29.2971C75.1896 28.2984 75.6627 27.2684 76.0671 26.2131C77.7112 22.5189 79.0807 18.6877 79.5534 14.6535C79.8554 12.0757 79.7294 9.48246 79.1148 6.95693C78.8447 5.84713 77.616 5.53846 76.6972 5.98414C70.8549 8.81669 65.4357 12.6088 60.8216 17.1834C57.3997 20.5755 54.1908 24.8959 53.5443 29.8006C53.2164 32.2925 53.4491 34.8764 54.7218 37.0921C56.0836 39.4619 58.5035 40.9877 61.281 40.5497C62.6665 40.3313 64.0255 39.7563 65.3053 39.0173C65.4781 39.079 65.6718 39.0944 65.8765 39.0421C70.5071 37.8641 72.7565 33.382 74.6498 29.2971" fill="#E7BE36"/>
<path d="M22.2412 42.5874C21.1124 42.7082 19.9955 42.9016 18.8968 43.1661C14.9211 43.9036 10.988 44.9449 7.39555 46.8404C5.10002 48.0516 3.03425 49.6242 1.30102 51.5612C0.53942 52.4124 0.980948 53.5998 1.8687 54.1047C7.51218 57.3151 13.7068 59.6332 20.0903 60.8448C24.824 61.7435 30.2021 61.941 34.6103 59.6958C36.8498 58.5546 38.8474 56.8992 39.9526 54.5954C41.1343 52.1308 41.0211 49.2723 39.0869 47.2314C38.1221 46.2133 36.8785 45.4189 35.5446 44.7828C35.4976 44.6055 35.4006 44.4371 35.2415 44.2981C31.6479 41.149 26.68 41.834 22.2412 42.5874" fill="#E7BE36"/>
<path d="M57.1386 35.8993C57.8104 35.228 58.3392 34.4527 58.7706 33.6197C59.9189 31.9047 60.3381 29.5871 60.6875 27.6118C60.9808 26.2819 61.2207 24.9273 61.377 23.5644C61.6603 21.7299 61.8821 19.8839 61.936 18.0418C62.1148 11.9585 60.21 5.89066 56.7248 0.914988C56.2054 0.173837 55.061 -0.345024 54.2241 0.281129C50.1667 3.31561 47.3045 7.62936 45.1047 12.1401C43.0347 16.3851 41.6218 21.0972 42.139 25.8627C42.6699 30.7591 45.3061 35.9416 50.1755 37.7486C52.6488 38.6669 55.3344 37.7007 57.1386 35.8993" fill="#EFD580"/>
<path d="M63.0814 35.3823C59.1722 32.4091 54.2524 30.9204 49.3842 31.4731C44.709 32.0037 40.3308 34.6031 37.4641 38.3443C35.5262 40.873 34.6444 43.8641 34.4576 46.9454C34.1565 48.2552 34.0005 49.6024 34 50.9211C33.9974 56.5839 36.4555 61.9115 40.133 66.0999C47.9357 74.9887 60.521 71.6392 67.3923 63.2735C70.7996 59.1252 72.9091 53.4841 71.6151 48.0963C70.3952 43.0178 67.1805 38.5 63.0814 35.3823" fill="#553E2D"/>
<path d="M34.1354 88.4101C33.9604 88.2291 33.7497 88.1014 33.5043 88.0266C33.3431 87.9936 33.1818 87.9606 33.0206 87.9275C32.8165 87.9127 32.6201 87.938 32.4275 87.9848C32.2762 88.0326 32.1524 88.0711 32.0429 88.113C32.0385 88.1152 32.0341 88.1157 32.0297 88.1174C32.0203 88.1207 32.0115 88.124 32.0027 88.1273C32.0126 88.1234 32.0225 88.1207 32.0324 88.1168C31.8718 88.1801 31.7287 88.2615 31.5334 88.4332C31.3623 88.584 31.2984 88.6769 31.212 88.7985C31.1003 88.9212 31.0068 89.0555 30.9402 89.209C30.9573 89.1743 30.9738 89.1408 30.9909 89.1067C30.9386 89.2096 30.8764 89.3059 30.8032 89.395C30.7306 89.5419 30.658 89.6888 30.5853 89.8352C30.4935 90.074 30.4648 90.3166 30.5001 90.5648C30.4874 90.7375 30.5193 90.902 30.5947 91.0583C30.6552 91.3125 30.7779 91.537 30.9617 91.7312C31.0866 91.8402 31.212 91.9491 31.3369 92.0586C31.4839 92.1307 31.6302 92.2033 31.7771 92.276C32.0159 92.3678 32.2591 92.397 32.5073 92.3618C32.7653 92.3695 33.0113 92.3106 33.244 92.1857C33.3095 92.1555 33.3722 92.1213 33.4327 92.0823C33.6061 91.9706 33.7821 91.8589 33.9489 91.7362C33.978 91.7147 34.0066 91.6916 34.0347 91.668C34.3549 91.3945 34.5382 91.0346 34.6889 90.65C34.7324 90.5394 34.7445 90.4437 34.7709 90.3155C34.8446 90.0668 34.8518 89.8126 34.794 89.5545C34.778 89.4627 34.7494 89.3741 34.7082 89.2888C34.6762 89.1942 34.6515 89.0968 34.6108 89.0049C34.5035 88.7622 34.3445 88.5636 34.1354 88.4101" fill="#E7BE36"/>
<path d="M91.8798 70.9129C91.6542 70.6593 91.3807 70.4771 91.0599 70.3655C90.979 70.3484 90.8987 70.3319 90.8178 70.3154C90.7171 70.2152 90.6099 70.1228 90.4844 70.0557C90.2907 69.9522 90.0937 69.8532 89.8907 69.769C89.7432 69.7388 89.5958 69.7079 89.4489 69.6777C89.2965 69.6859 89.1446 69.6947 88.9922 69.7024C88.8425 69.7525 88.6929 69.802 88.5432 69.8521C88.3204 69.9506 88.1393 70.0953 87.999 70.2868C87.8829 70.3897 87.7999 70.5146 87.7487 70.6615C87.6639 70.7897 87.6155 70.9311 87.6034 71.0846C87.5533 71.2315 87.5424 71.3806 87.5704 71.5336C87.5633 71.7707 87.6172 71.9969 87.7322 72.2109C87.7338 72.2148 87.7349 72.2186 87.736 72.2225C87.7745 72.3424 87.8186 72.4596 87.8796 72.5685C88.0326 72.8002 88.1767 73.0395 88.3462 73.2591C88.3836 73.3081 88.4233 73.3554 88.4673 73.3983C88.5328 73.4621 88.6076 73.5226 88.6741 73.5799C88.7264 73.6261 88.8106 73.7064 88.8816 73.7603C88.8981 73.773 88.9157 73.7829 88.9333 73.7928C89.0857 73.8792 89.2855 73.998 89.4758 74.0464C89.6227 74.0839 89.8225 74.1251 89.9716 74.1488C89.9815 74.1499 89.9903 74.1515 89.9997 74.1526C90.0222 74.1554 90.0448 74.157 90.0679 74.157C90.2687 74.1559 90.4745 74.1548 90.6737 74.1191C90.694 74.1158 90.7149 74.1108 90.7347 74.1053C90.9169 74.0547 91.1017 73.9887 91.2795 73.9249C91.5227 73.817 91.7213 73.6585 91.8748 73.4495C92.0558 73.2745 92.1835 73.0638 92.2578 72.8184C92.3502 72.5785 92.3788 72.3342 92.3436 72.0849C92.3519 71.8252 92.2924 71.5781 92.167 71.3438C92.0712 71.2001 91.976 71.0565 91.8798 70.9129" fill="#F6F6F9"/>
<path d="M91.153 65.4722C91.1365 65.4518 91.1184 65.4325 91.0986 65.4149C90.9825 65.2741 90.8411 65.1701 90.6744 65.1046C90.522 65.0133 90.3558 64.9638 90.1748 64.9561L89.821 64.9759C89.6322 65.0039 89.4655 65.0766 89.3197 65.1932C89.2091 65.2477 89.1194 65.3258 89.0506 65.4287C88.9224 65.5519 88.8317 65.7016 88.7794 65.8755C88.7557 65.9899 88.7321 66.1038 88.7084 66.2183C88.6991 66.3498 88.7106 66.4769 88.7365 66.6018C88.7392 66.6106 88.7398 66.6205 88.742 66.6293C88.7425 66.6353 88.7442 66.6414 88.7453 66.6469C88.7497 66.6706 88.7568 66.6931 88.7579 66.7173C88.7574 66.7069 88.7568 66.697 88.7563 66.686C88.7706 66.7586 88.7871 66.8312 88.8174 66.9005C88.8619 67.0871 88.9516 67.251 89.0859 67.393C89.1778 67.4733 89.2691 67.5531 89.361 67.6329C89.3786 67.6444 89.399 67.6494 89.4166 67.6604C89.5112 67.7242 89.6141 67.7754 89.7252 67.8139C89.8903 67.8777 90.0581 67.897 90.2292 67.8733C90.408 67.8783 90.5781 67.8381 90.7393 67.7517C90.8312 67.7066 90.9115 67.6483 90.9885 67.5867C90.9918 67.5839 90.9962 67.5817 90.9995 67.579C91.0579 67.5305 91.1074 67.4728 91.1569 67.4144C91.1674 67.4018 91.1806 67.3924 91.1905 67.3798C91.202 67.3682 91.2092 67.3539 91.2202 67.3418C91.2328 67.3248 91.2499 67.3127 91.262 67.2945C91.2664 67.2885 91.2686 67.2824 91.273 67.2763C91.3583 67.1707 91.4282 67.0552 91.4694 66.9198L91.5421 66.5677C91.5602 66.3146 91.514 66.0747 91.4034 65.8463C91.328 65.7165 91.2471 65.5888 91.153 65.4722" fill="#F6F6F9"/>
<path d="M75.2285 11.3324C74.9969 11.1794 74.7432 11.0925 74.4665 11.0699C74.1809 11.0496 73.9091 11.1024 73.651 11.2267C73.4678 11.317 73.3181 11.4463 73.1844 11.5926C73.0986 11.6845 73.0062 11.7704 72.911 11.8518C72.8543 11.9002 72.796 11.9464 72.7388 11.9937C72.5137 12.1797 72.4279 12.3662 72.2727 12.5737C72.1214 12.7839 72.0312 13.0155 72.0004 13.267C71.9283 13.5124 71.92 13.7633 71.9778 14.0186C72.0328 14.1847 72.0878 14.3509 72.1429 14.5171C72.2518 14.763 72.4125 14.9638 72.6248 15.1196C72.7393 15.2483 72.8779 15.3413 73.0408 15.3974C73.2582 15.5278 73.4959 15.5988 73.7545 15.6093C73.9234 15.5999 74.0923 15.5905 74.2612 15.5812C74.6134 15.513 74.9248 15.3611 75.1955 15.1251C75.4629 14.8384 75.8063 14.4879 75.908 14.0895C75.9713 13.8425 76.0357 13.5921 76.0417 13.3363C76.0472 13.0975 76.0384 12.8526 75.9862 12.6182C75.9361 12.3927 75.8563 12.1726 75.7754 11.9574C75.6489 11.6999 75.4662 11.4919 75.2285 11.3324" fill="#E7BE36"/>
<path d="M14.7177 74.2999C14.3342 73.8653 13.6828 73.6083 13.105 73.7453C13.072 73.7536 13.039 73.7607 13.0054 73.769C12.8365 73.808 12.6715 73.862 12.5108 73.9302C12.376 74.0199 12.2412 74.1096 12.1064 74.1993C12.0448 74.2537 11.9892 74.3159 11.932 74.3753C11.7163 74.5971 11.4725 74.8155 11.3091 75.0763C11.2222 75.2139 11.1385 75.3503 11.0632 75.4945C11.0252 75.566 10.9878 75.6381 10.9504 75.7096C10.941 75.7278 10.9316 75.7459 10.9217 75.7635C10.8012 75.9319 10.7292 76.1168 10.7044 76.3176C10.6466 76.5135 10.6406 76.7138 10.6862 76.9179C10.6868 76.9212 10.6896 76.924 10.6901 76.9273C10.7022 77.0235 10.7259 77.1176 10.7649 77.2084C10.809 77.3933 10.8975 77.5562 11.0312 77.697C11.2783 77.954 11.6068 78.1493 11.9721 78.1642C11.9793 78.1642 11.987 78.1647 11.9947 78.1653C12.0321 78.173 12.069 78.1807 12.1058 78.1878C12.3903 78.2219 12.6907 78.1389 12.9427 78.0162C13.0131 77.982 13.0819 77.9457 13.1518 77.91C13.2982 77.8362 13.4363 77.7537 13.576 77.6679C13.773 77.5474 13.9683 77.4318 14.1351 77.2739C14.1945 77.2172 14.2545 77.1606 14.3139 77.1044C14.3733 77.0472 14.4344 76.9916 14.4922 76.9328C14.7249 76.6967 14.9351 76.4601 15.0242 76.13C15.0358 76.0882 15.0457 76.0463 15.0561 76.0045C15.1541 75.7168 15.1755 75.424 15.1211 75.1247C15.0605 74.8138 14.9263 74.5387 14.7177 74.2999" fill="#F6F6F9"/>
<path d="M19.2388 74.8438C19.109 74.6986 18.9521 74.5935 18.7684 74.5291C18.7249 74.5099 18.6765 74.5005 18.6308 74.4878C18.6176 74.484 18.6044 74.4801 18.5912 74.4763C18.441 74.4185 18.288 74.4009 18.1318 74.4229C18.0707 74.4174 18.0107 74.4218 17.9518 74.4361C17.7339 74.4785 17.5419 74.5726 17.3741 74.7184C17.3345 74.7454 17.2943 74.7734 17.2547 74.8009C17.1804 74.8515 17.1177 74.9181 17.061 74.9908C17.022 75.0183 16.9834 75.0452 16.9444 75.0733C16.825 75.1795 16.7397 75.3077 16.6869 75.4584C16.6357 75.6098 16.6242 75.7638 16.6528 75.9206C16.6847 76.0846 16.7551 76.2288 16.8646 76.3542C16.9708 76.4736 17.0995 76.5594 17.2503 76.6117C17.2993 76.6227 17.3482 76.6332 17.3972 76.6436C17.455 76.6761 17.515 76.7058 17.5788 76.7273C17.6619 76.7564 17.7983 76.7729 17.9034 76.7944C17.9562 76.8054 18.0091 76.8169 18.0619 76.8263C18.1802 76.8478 18.3029 76.8323 18.4206 76.8092C18.666 76.7614 18.8393 76.6557 19.0308 76.5011C19.0682 76.4714 19.109 76.4428 19.1414 76.4081C19.2872 76.2788 19.3918 76.1215 19.4556 75.9371C19.5183 75.7534 19.5326 75.5652 19.4974 75.3732C19.4589 75.1734 19.3725 74.9974 19.2388 74.8438" fill="#EFD580"/>
<path d="M76.4009 88.2539C76.3871 88.227 76.3739 88.2011 76.3607 88.1742C76.249 87.9211 76.0839 87.7147 75.866 87.5552C75.7318 87.4159 75.57 87.3169 75.3945 87.2388C75.3863 87.2311 75.3774 87.2234 75.3686 87.2162C75.2399 87.1518 75.1106 87.0886 74.9818 87.0247C74.841 86.9956 74.7001 86.9664 74.5593 86.9378C74.3309 86.9119 74.1141 86.9433 73.9078 87.033C73.7554 87.0622 73.6211 87.1276 73.5045 87.23C73.368 87.2971 73.2574 87.3939 73.1722 87.5199C73.0616 87.619 72.9818 87.7384 72.9334 87.8787C72.9312 87.882 72.9306 87.8853 72.9284 87.8886C72.9152 87.9067 72.8992 87.9227 72.8866 87.942C72.7314 88.1576 72.6384 88.3948 72.6071 88.6534C72.5328 88.9054 72.5251 89.1624 72.584 89.4243C72.5873 89.4463 72.5911 89.4683 72.5944 89.4903C72.6098 89.586 72.6258 89.6818 72.6461 89.7764C72.7006 90.0268 72.7986 90.2766 72.8937 90.5159C72.9295 90.6072 72.9675 90.6975 73.0071 90.7866C73.083 90.9583 73.165 91.1283 73.2531 91.295C73.3735 91.5239 73.5045 91.755 73.6822 91.9432C74.0707 92.3542 74.5741 92.7063 75.1645 92.7113C75.52 92.7366 75.8583 92.6717 76.1791 92.516C76.4993 92.3586 76.7585 92.1319 76.9571 91.8359C77.0413 91.6791 77.1206 91.5195 77.1943 91.3566C77.229 91.1883 77.2642 91.0205 77.2988 90.8521C77.3307 90.5819 77.2944 90.44 77.2454 90.227C77.1855 89.9717 77.1068 89.7269 76.9852 89.4974C76.8966 89.3313 76.8141 89.1624 76.7382 88.9901C76.665 88.8256 76.6089 88.6512 76.5269 88.4916C76.4862 88.4119 76.4416 88.3337 76.4009 88.2539" fill="#EFD580"/>
<path d="M95.7044 26.2678C95.4683 26.0224 95.1701 25.7886 94.8389 25.6901C94.6688 25.6549 94.4983 25.6197 94.3283 25.585C94.0526 25.5531 93.7901 25.5916 93.5409 25.7C93.2113 25.8095 93.0545 25.8601 92.7546 26.1281C92.7216 26.1578 92.6897 26.1881 92.6572 26.2178C92.5015 26.3619 92.3398 26.5022 92.189 26.6508C91.9398 26.8973 91.7389 27.1829 91.5348 27.4651C91.4743 27.5482 91.4137 27.6318 91.3532 27.7155C91.1524 27.9928 91.0319 28.3328 91.0005 28.6789C90.9515 28.8957 90.9345 29.1152 90.9752 29.3386C91.033 29.6352 91.1612 29.8977 91.3593 30.1249C91.7384 30.5546 92.2831 30.7186 92.8383 30.6559C93.1475 30.6553 93.4545 30.5898 93.7302 30.4319C93.8121 30.3857 93.8936 30.3395 93.975 30.2927C94.2898 30.1133 94.6078 29.9378 94.8972 29.7183C95.0584 29.5967 95.2059 29.4503 95.3583 29.3183C95.5531 29.1488 95.7319 28.9678 95.8727 28.7477C96.3459 28.0082 96.3371 26.9231 95.7044 26.2678" fill="#F6F6F9"/>
<path d="M89.8196 27.1183C89.7343 26.9427 89.5725 26.7408 89.4014 26.6374C89.3761 26.6225 89.1588 26.5147 89.1329 26.5059C89.1038 26.4954 88.8583 26.4453 88.8264 26.4415C88.7565 26.4332 88.6795 26.4475 88.6047 26.4563C88.4781 26.4591 88.3543 26.4778 88.2366 26.529C88.1183 26.5515 88.0132 26.6027 87.9224 26.6819C87.9175 26.6852 87.9125 26.6891 87.9076 26.6924C87.9015 26.6951 87.896 26.6984 87.89 26.7012C87.7893 26.7683 87.6886 26.836 87.5879 26.9026C87.3915 27.0605 87.4102 27.0781 87.3414 27.1964C87.3359 27.2057 87.3276 27.2134 87.3221 27.2223C87.2616 27.2921 87.2011 27.3615 87.1406 27.4308C87.0954 27.5221 87.0503 27.6129 87.0052 27.7042C86.9848 27.8038 86.9645 27.9034 86.9436 28.003C86.9254 28.1637 86.948 28.3177 87.0112 28.463C87.0322 28.5709 87.0784 28.6655 87.1504 28.748C87.1978 28.8449 87.266 28.9224 87.3551 28.983C87.425 29.0611 87.5092 29.1172 87.6082 29.1519C87.7409 29.2317 87.8861 29.2746 88.0435 29.2812C88.1001 29.2894 88.1568 29.2938 88.214 29.2922C88.378 29.2878 88.5491 29.2872 88.7114 29.2553C88.7191 29.2542 88.7268 29.2526 88.734 29.2509C88.849 29.2135 88.964 29.1744 89.079 29.1365C89.2567 29.0594 89.3128 29.011 89.4047 28.9098C89.4994 28.8052 89.5973 28.7007 89.682 28.5879C89.7002 28.5632 89.7178 28.5378 89.7338 28.5109C89.764 28.4575 89.7915 28.4019 89.8163 28.3453C89.9043 28.1994 89.9522 28.0393 89.9593 27.8649L89.9401 27.5243C89.9379 27.5111 89.9302 27.499 89.9269 27.4858C89.9263 27.4682 89.9252 27.45 89.9241 27.4324C89.8917 27.3273 89.857 27.2217 89.8196 27.1183" fill="#F6F6F9"/>
<path d="M56.3281 6.12069C56.1548 5.79166 55.8819 5.5314 55.5088 5.40265C55.0879 5.25739 54.6637 5.32563 54.2934 5.53251C54.2483 5.54792 54.2032 5.56223 54.1586 5.57763C53.9385 5.67447 53.7591 5.81807 53.6205 6.00735C53.555 6.06567 53.4994 6.1317 53.4538 6.20543C53.418 6.26045 53.385 6.31658 53.3525 6.3738C53.3234 6.42497 53.2947 6.47669 53.2678 6.52951C53.1847 6.69292 53.1038 6.85855 53.024 7.02307C52.9707 7.13201 52.9685 7.20353 52.9393 7.34384C52.8947 7.56118 52.8766 7.75266 52.8815 7.97165C52.8821 8.00687 52.8837 8.04153 52.8854 8.07674C52.8942 8.24126 52.9035 8.40577 52.9123 8.57029C52.9613 8.74471 53.0185 8.91639 53.0846 9.08475C53.1264 9.18875 53.1693 9.23441 53.2474 9.3516C53.3668 9.56949 53.5341 9.74502 53.7509 9.87762C53.7641 9.88807 53.7795 9.89413 53.7933 9.90403C53.8065 9.91558 53.8202 9.9277 53.834 9.93925C53.8604 9.95246 53.8868 9.96566 53.9132 9.97887C53.949 9.99867 53.9847 10.0168 54.0221 10.0322L54.2301 10.1357C54.4453 10.2182 54.6642 10.2441 54.8876 10.2122C55.0428 10.2237 55.1914 10.1951 55.3317 10.1269C55.4874 10.0966 55.6255 10.0295 55.7449 9.9255C55.828 9.88478 55.899 9.8292 55.9633 9.76758C55.9826 9.75162 56.0018 9.74061 56.0211 9.72411C56.2792 9.49631 56.4371 9.21295 56.562 8.90042C56.6417 8.70124 56.6742 8.48721 56.6902 8.27428C56.7001 8.13947 56.7226 8.00797 56.7391 7.87371C56.7298 7.70754 56.7204 7.54082 56.7116 7.3741C56.71 7.3521 56.7067 7.33009 56.7017 7.30808C56.6968 7.28057 56.6913 7.25361 56.6863 7.22665C56.6764 7.16722 56.6676 7.1078 56.6599 7.04783C56.6517 6.984 56.6467 6.91962 56.6401 6.85525C56.6142 6.57518 56.4932 6.33308 56.3281 6.12069" fill="#F6F6F9"/>
<path d="M52.8332 11.6829C52.7215 11.5712 52.5971 11.4705 52.4783 11.3676C52.3132 11.2593 52.1311 11.1976 51.9369 11.174C51.9066 11.1591 51.8775 11.1415 51.8466 11.1261C51.6937 11.0744 51.5374 11.0623 51.3784 11.0914C51.2122 11.1239 51.0659 11.1949 50.9382 11.3066C50.75 11.4722 50.6411 11.7154 50.6312 11.9641C50.6273 11.9756 50.6202 11.9855 50.6169 11.9971C50.5564 12.1737 50.5569 12.2249 50.5509 12.352C50.5487 12.3933 50.5454 12.4345 50.5404 12.4758C50.509 12.7421 50.5569 12.9446 50.6439 13.1823C50.6708 13.2813 50.6989 13.3809 50.7467 13.4689C50.7803 13.5223 50.8155 13.5751 50.8518 13.6269C50.9008 13.727 50.9723 13.8084 51.0626 13.8728C51.0681 13.88 51.0741 13.8877 51.0796 13.8954C51.1578 14.0164 51.2518 14.1254 51.3751 14.2079C51.5308 14.3102 51.7008 14.3686 51.8868 14.3834C52.2747 14.4126 52.6313 14.225 52.853 13.9119C52.8855 13.8657 52.9108 13.8156 52.9388 13.7666C53.0549 13.6329 53.1419 13.4679 53.1952 13.3077C53.2833 13.0431 53.2684 12.8791 53.2431 12.6051C53.2376 12.5435 53.2299 12.4807 53.2183 12.4202C53.1677 12.1457 53.0307 11.8805 52.8332 11.6829" fill="#F6F6F9"/>
<path d="M53.5888 92.2698C53.5701 92.245 53.5514 92.2219 53.5294 92.1993C53.4117 92.0783 53.2543 91.9468 53.1217 91.8428C53.1052 91.8296 53.0892 91.8175 53.0722 91.8054C52.5175 91.4252 51.7687 91.3855 51.1678 91.6788C50.8575 91.8312 50.6061 92.0513 50.4129 92.3385C50.315 92.4877 50.2424 92.6461 50.189 92.8106C50.1807 92.8458 50.1692 92.8794 50.1543 92.9119C50.162 92.8954 50.1703 92.8794 50.1785 92.8623C50.178 92.8634 50.178 92.8646 50.178 92.8657C50.1494 92.9284 50.1263 92.9856 50.1109 93.0362C50.1136 93.0208 50.1169 93.0065 50.1202 92.9917C50.0724 93.1991 49.9612 93.39 49.9067 93.5969C49.7928 94.0316 49.7274 94.4778 49.8379 94.9246C49.8418 94.94 49.8462 94.9543 49.8512 94.9686C49.9106 95.1485 49.9706 95.3279 50.03 95.5073C50.0382 95.5276 50.0465 95.548 50.0558 95.5678C50.1521 95.7389 50.26 95.9023 50.3805 96.058C50.5598 96.2759 50.7777 96.4355 51.0347 96.5367C51.3021 96.6688 51.493 96.7799 51.8298 96.7689C52.2028 96.7953 52.5577 96.7271 52.895 96.5637C53.2312 96.3986 53.5035 96.1598 53.7121 95.8495C53.9613 95.3752 53.9294 95.4814 54.0114 95.0831C54.0791 94.8558 54.0835 94.6236 54.0477 94.3887C54.0488 94.3733 54.0488 94.3579 54.0499 94.343C54.0565 94.2258 54.073 94.1097 54.0862 93.9931C54.0917 93.9446 54.0994 93.8957 54.1011 93.8467C54.1077 93.6552 54.1055 93.4571 54.0708 93.2706C53.9921 92.842 53.8447 92.612 53.5888 92.2698" fill="#F6F6F9"/>
<path d="M54.5835 89.1795C54.6061 89.07 54.6292 88.9599 54.6517 88.8504C54.6259 88.9671 54.6028 89.0738 54.5835 89.1795Z" fill="#F6F6F9"/>
<path d="M99.7766 50.9465C99.551 50.6929 99.2781 50.5107 98.9579 50.399C98.6894 50.2852 98.3939 50.2604 98.105 50.2813C98.0484 50.278 97.9917 50.2791 97.9361 50.2687C97.9114 50.2654 97.8883 50.2582 97.863 50.256C97.7353 50.2455 97.6065 50.2538 97.4789 50.2676C97.3996 50.2587 97.3204 50.2626 97.2412 50.2791C97.0976 50.2687 96.9617 50.2967 96.8307 50.3517C96.7564 50.3671 96.6822 50.3836 96.6106 50.4145C96.4126 50.4618 96.2381 50.557 96.0863 50.7L95.8315 50.9927C95.6879 51.2106 95.6059 51.45 95.585 51.7097C95.5839 51.735 95.5883 51.7609 95.5883 51.7867C95.5795 51.8274 95.5713 51.8681 95.563 51.9094C95.5355 52.1499 95.5691 52.3793 95.6637 52.5972C95.672 52.683 95.6984 52.7601 95.7424 52.8294C95.7743 52.8949 95.9482 53.1386 95.8882 53.0484C95.9377 53.1232 95.9883 53.2013 96.04 53.2762C96.0659 53.313 96.0934 53.3494 96.1237 53.3829C96.1534 53.4181 96.1853 53.45 96.2189 53.4814C96.2854 53.5436 96.363 53.6074 96.4263 53.6624C96.6453 53.8539 96.7619 53.9562 97.0811 54.0569C97.1053 54.0646 97.1312 54.0707 97.1559 54.0762C97.3595 54.123 97.5664 54.1736 97.7743 54.2005C97.825 54.2071 97.8767 54.211 97.9284 54.2115C97.9543 54.2115 97.9801 54.211 98.0055 54.2099C98.1914 54.2022 98.3802 54.1956 98.5661 54.1785C98.5804 54.1774 98.5947 54.1758 98.609 54.1741C98.7758 54.1186 98.943 54.063 99.1097 54.0074C99.1152 54.0058 99.1202 54.0036 99.1257 54.0019C99.2715 53.9051 99.4179 53.8071 99.5642 53.7097C99.5697 53.7048 99.5752 53.6998 99.5807 53.6954C99.5901 53.6866 99.5989 53.6784 99.6077 53.6696C99.8608 53.444 100.043 53.1705 100.155 52.8503C100.264 52.5295 100.288 52.2016 100.227 51.8676C100.16 51.5204 100.009 51.2128 99.7766 50.9465" fill="#F6F6F9"/>
</svg>
