<svg width="82" height="104" viewBox="0 0 82 104" fill="none" xmlns="http://www.w3.org/2000/svg">
<path d="M5.99963 75.1625C5.45986 76.1617 4.98667 77.1912 4.5817 78.247C2.93819 81.9412 1.56812 85.7719 1.09603 89.8067C0.793961 92.3845 0.91941 94.9771 1.53456 97.5027C1.80472 98.6125 3.03338 98.9217 3.95225 98.476C9.79452 95.6429 15.2131 91.8508 19.8278 87.2762C23.2491 83.8841 26.4586 79.5637 27.1045 74.659C27.433 72.1671 27.2003 69.5843 25.9271 67.368C24.5658 64.9982 22.1454 63.4725 19.3684 63.9104C17.9824 64.1289 16.6233 64.7033 15.3441 65.4428C15.1713 65.3812 14.9771 65.3663 14.7724 65.4175C10.1423 66.5955 7.8924 71.0776 5.99963 75.1625" fill="#E7BE36"/>
<path d="M24.1884 67.8961C23.5171 68.5668 22.9884 69.3426 22.557 70.1757C21.4087 71.8907 20.9888 74.2077 20.64 76.183C20.3462 77.5129 20.1068 78.8675 19.9506 80.2304C19.6672 82.0654 19.4449 83.9109 19.391 85.7536C19.2127 91.8363 21.1176 97.9047 24.6027 102.88C25.1221 103.622 26.2666 104.14 27.1035 103.514C31.1603 100.479 34.0225 96.166 36.2223 91.6553C38.2928 87.4103 39.7058 82.6982 39.1886 77.9322C38.6576 73.0357 36.0215 67.8532 31.152 66.0462C28.6788 65.1285 25.9931 66.0941 24.1884 67.8961" fill="#EFD580"/>
<path d="M46.5038 95.6514C48.9104 97.3439 51.5686 98.6859 54.3411 99.6647C55.5472 100.091 56.6031 99.2042 56.7924 98.0509C57.7162 92.4106 57.4284 86.6432 55.8531 81.1371C54.2905 75.675 51.6384 70.1678 47.7258 65.9878C45.7252 63.8502 43.1727 61.9778 40.2213 61.509C38.6273 61.2559 36.8699 61.6762 35.7133 62.8427C34.5716 63.9938 34.0236 65.5636 33.7347 67.1267C33.6593 67.5345 33.6159 67.9455 33.5867 68.357C32.0252 78.8294 38.0787 89.7261 46.5038 95.6514Z" fill="#E7BE36"/>
<path d="M51.3404 72.3872C52.2907 73.0079 53.2778 73.5647 54.2963 74.056C57.8419 75.9994 61.5465 77.6815 65.528 78.4859C68.0722 79.0004 70.6665 79.0895 73.2338 78.6862C74.3629 78.5079 74.7717 77.3095 74.4036 76.3565C72.0641 70.2997 68.7335 64.5862 64.5562 59.6094C61.4585 55.9185 57.4188 52.3629 52.5845 51.3131C50.1278 50.78 47.5346 50.7981 45.2209 51.8837C42.746 53.0441 41.0254 55.3292 41.2323 58.1337C41.3352 59.5329 41.7957 60.9349 42.4268 62.2714C42.3509 62.4381 42.3195 62.6301 42.3542 62.8386C43.1449 67.5502 47.4262 70.1627 51.3404 72.3872" fill="#EFD580"/>
<path d="M45.6042 53.6588C46.2172 54.3845 46.9468 54.9749 47.7407 55.474C49.3551 56.7599 51.6292 57.3701 53.5693 57.8812C54.8705 58.2834 56.2004 58.6345 57.5463 58.903C59.351 59.3377 61.1717 59.7113 63.0034 59.9176C69.0509 60.5982 75.2558 59.2023 80.5027 56.1409C81.284 55.6847 81.8958 54.587 81.3412 53.7012C78.6528 49.4072 74.5905 46.1978 70.2773 43.6321C66.2183 41.2183 61.6394 39.4201 56.8469 39.5412C51.9235 39.665 46.5407 41.8637 44.3371 46.567C43.2174 48.9555 43.958 51.7121 45.6042 53.6588" fill="#E7BE36"/>
<path d="M73.235 32.1915C74.7228 29.6528 75.8403 26.8929 76.587 24.0488C76.9116 22.8119 75.9399 21.8325 74.7751 21.7395C69.0781 21.285 63.3541 22.0487 57.9972 24.0746C52.6831 26.0835 47.4142 29.1829 43.5725 33.4273C41.6077 35.598 39.9531 38.2968 39.7298 41.2768C39.6087 42.8862 40.1738 44.6029 41.4316 45.6588C42.6734 46.7015 44.2834 47.118 45.8642 47.2764C46.2774 47.3177 46.6906 47.3265 47.1033 47.3221C57.6687 48.0121 68.0272 41.0771 73.235 32.1915" fill="#EFD580"/>
<path d="M49.6495 29.2957C50.1893 28.2971 50.6625 27.267 51.0669 26.2117C52.711 22.5175 54.0805 18.6863 54.5531 14.6521C54.8552 12.0743 54.7292 9.48109 54.1146 6.95556C53.8444 5.84576 52.6158 5.53709 51.6969 5.98277C45.8546 8.81532 40.4355 12.6075 35.8213 17.182C32.3995 20.5741 29.1906 24.8945 28.5441 29.7992C28.2161 32.2911 28.4489 34.875 29.7216 37.0907C31.0834 39.4606 33.5032 40.9863 36.2808 40.5483C37.6662 40.3299 39.0253 39.7549 40.3051 39.016C40.4779 39.0776 40.6715 39.093 40.8762 39.0407C45.5069 37.8627 47.7562 33.3806 49.6495 29.2957" fill="#E7BE36"/>
<path d="M32.1386 35.8979C32.8104 35.2266 33.3392 34.4514 33.7706 33.6183C34.9189 31.9033 35.3381 29.5857 35.6875 27.6104C35.9808 26.2805 36.2207 24.9259 36.377 23.563C36.6603 21.7285 36.8821 19.8826 36.936 18.0404C37.1148 11.9571 35.21 5.88928 31.7248 0.913614C31.2054 0.172464 30.061 -0.346398 29.2241 0.279756C25.1667 3.31424 22.3045 7.62799 20.1047 12.1387C18.0347 16.3837 16.6218 21.0958 17.139 25.8613C17.6699 30.7577 20.3061 35.9403 25.1755 37.7472C27.6488 38.6655 30.3344 37.6993 32.1386 35.8979" fill="#EFD580"/>
<path d="M38.0814 35.3812C34.1722 32.408 29.2524 30.9193 24.3842 31.4721C19.709 32.0026 15.3308 34.602 12.4641 38.3433C10.5262 40.8719 9.6444 43.863 9.4576 46.9444C9.15654 48.2541 9.00052 49.6013 9 50.92C8.99739 56.5828 11.4555 61.9104 15.133 66.0988C22.9357 74.9876 35.521 71.6381 42.3923 63.2724C45.7996 59.1242 47.9091 53.483 46.6151 48.0952C45.3952 43.0168 42.1805 38.499 38.0814 35.3812" fill="#553E2D"/>
<path d="M9.13538 88.409C8.96041 88.228 8.74968 88.1003 8.50428 88.0255C8.34306 87.9925 8.18185 87.9595 8.02063 87.9265C7.8165 87.9116 7.62007 87.9369 7.42749 87.9837C7.27618 88.0316 7.15238 88.0701 7.04288 88.1119C7.03848 88.1141 7.03408 88.1146 7.02968 88.1163C7.02033 88.1196 7.01152 88.1229 7.00272 88.1262C7.01262 88.1223 7.02253 88.1196 7.03243 88.1157C6.87177 88.179 6.72871 88.2604 6.53338 88.4321C6.36226 88.5829 6.29843 88.6759 6.21204 88.7975C6.10035 88.9202 6.00681 89.0544 5.94023 89.2079C5.95729 89.1733 5.97381 89.1397 5.99086 89.1056C5.93859 89.2085 5.87641 89.3048 5.80323 89.3939C5.7306 89.5408 5.65797 89.6877 5.58534 89.8341C5.49346 90.0729 5.46484 90.3155 5.50006 90.5637C5.4874 90.7364 5.51931 90.901 5.59469 91.0572C5.65522 91.3114 5.77793 91.5359 5.9617 91.7301C6.0866 91.8391 6.21204 91.948 6.33694 92.0575C6.48385 92.1296 6.63021 92.2022 6.77712 92.2749C7.01592 92.3668 7.25912 92.3959 7.50727 92.3607C7.76532 92.3684 8.01128 92.3095 8.24403 92.1846C8.3095 92.1544 8.37222 92.1203 8.43275 92.0812C8.60607 91.9695 8.78213 91.8578 8.94885 91.7351C8.97801 91.7136 9.00663 91.6905 9.03469 91.6669C9.35492 91.3934 9.53815 91.0336 9.68891 90.649C9.73238 90.5384 9.74448 90.4426 9.77089 90.3144C9.84462 90.0657 9.85177 89.8115 9.794 89.5535C9.77804 89.4616 9.74943 89.373 9.70816 89.2877C9.67625 89.1931 9.65149 89.0957 9.61077 89.0038C9.50348 88.7611 9.34447 88.5625 9.13538 88.409" fill="#E7BE36"/>
<path d="M66.8794 70.9119C66.6538 70.6582 66.3803 70.4761 66.0596 70.3644C65.9787 70.3473 65.8984 70.3308 65.8175 70.3143C65.7168 70.2142 65.6095 70.1217 65.484 70.0546C65.2904 69.9512 65.0934 69.8521 64.8903 69.7679C64.7429 69.7377 64.5954 69.7069 64.4485 69.6766C64.2961 69.6849 64.1442 69.6937 63.9918 69.7014C63.8422 69.7514 63.6925 69.801 63.5428 69.851C63.32 69.9495 63.139 70.0942 62.9987 70.2857C62.8826 70.3886 62.7995 70.5135 62.7483 70.6604C62.6636 70.7886 62.6152 70.93 62.603 71.0835C62.553 71.2304 62.542 71.3796 62.5701 71.5325C62.5629 71.7697 62.6168 71.9958 62.7318 72.2098C62.7335 72.2137 62.7346 72.2175 62.7357 72.2214C62.7742 72.3413 62.8182 72.4585 62.8793 72.5675C63.0322 72.7991 63.1764 73.0385 63.3458 73.258C63.3833 73.307 63.4229 73.3543 63.4669 73.3972C63.5324 73.461 63.6072 73.5216 63.6738 73.5788C63.7261 73.625 63.8102 73.7053 63.8812 73.7593C63.8977 73.7719 63.9154 73.7818 63.933 73.7917C64.0854 73.8781 64.2851 73.997 64.4755 74.0454C64.6224 74.0828 64.8221 74.1241 64.9712 74.1477C64.9811 74.1488 64.9899 74.1505 64.9993 74.1516C65.0218 74.1543 65.0444 74.156 65.0675 74.156C65.2683 74.1549 65.4741 74.1538 65.6733 74.118C65.6937 74.1147 65.7146 74.1098 65.7344 74.1043C65.9165 74.0536 66.1014 73.9876 66.2791 73.9238C66.5223 73.8159 66.7209 73.6575 66.8744 73.4484C67.0555 73.2734 67.1831 73.0627 67.2574 72.8173C67.3498 72.5774 67.3785 72.3331 67.3432 72.0838C67.3515 71.8241 67.292 71.5771 67.1666 71.3427C67.0709 71.1991 66.9757 71.0555 66.8794 70.9119" fill="#F6F6F9"/>
<path d="M66.1527 65.4711C66.1362 65.4507 66.118 65.4315 66.0982 65.4139C65.9821 65.273 65.8407 65.169 65.674 65.1035C65.5216 65.0122 65.3554 64.9627 65.1744 64.955L64.8206 64.9748C64.6319 65.0029 64.4652 65.0755 64.3193 65.1921C64.2087 65.2466 64.1191 65.3247 64.0503 65.4276C63.9221 65.5509 63.8313 65.7005 63.779 65.8744C63.7554 65.9889 63.7317 66.1028 63.7081 66.2172C63.6987 66.3487 63.7102 66.4758 63.7361 66.6007C63.7389 66.6095 63.7394 66.6194 63.7416 66.6282C63.7422 66.6343 63.7438 66.6403 63.7449 66.6458C63.7493 66.6695 63.7565 66.692 63.7576 66.7163C63.757 66.7058 63.7565 66.6959 63.7559 66.6849C63.7702 66.7575 63.7867 66.8301 63.817 66.8995C63.8616 67.086 63.9512 67.25 64.0855 67.3919C64.1774 67.4723 64.2687 67.552 64.3606 67.6318C64.3782 67.6434 64.3986 67.6483 64.4162 67.6593C64.5108 67.7232 64.6137 67.7743 64.7249 67.8128C64.8899 67.8767 65.0577 67.8959 65.2288 67.8723C65.4077 67.8772 65.5777 67.8371 65.7389 67.7507C65.8308 67.7055 65.9111 67.6472 65.9882 67.5856C65.9915 67.5828 65.9959 67.5806 65.9992 67.5779C66.0575 67.5295 66.107 67.4717 66.1565 67.4134C66.167 67.4007 66.1802 67.3914 66.1901 67.3787C66.2017 67.3672 66.2088 67.3529 66.2198 67.3408C66.2325 67.3237 66.2495 67.3116 66.2616 67.2934C66.266 67.2874 66.2682 67.2813 66.2726 67.2753C66.3579 67.1696 66.4278 67.0541 66.4691 66.9187L66.5417 66.5666C66.5599 66.3135 66.5136 66.0736 66.403 65.8452C66.3277 65.7154 66.2468 65.5877 66.1527 65.4711" fill="#F6F6F9"/>
<path d="M50.2282 11.3309C49.9965 11.1779 49.7428 11.091 49.4661 11.0684C49.1805 11.0481 48.9087 11.1009 48.6507 11.2253C48.4674 11.3155 48.3178 11.4448 48.1841 11.5912C48.0982 11.683 48.0058 11.7689 47.9106 11.8503C47.8539 11.8987 47.7956 11.945 47.7384 11.9923C47.5133 12.1782 47.4275 12.3648 47.2723 12.5722C47.121 12.7824 47.0308 13.014 47 13.2655C46.9279 13.5109 46.9197 13.7618 46.9774 14.0171C47.0324 14.1833 47.0875 14.3494 47.1425 14.5156C47.2514 14.7616 47.4121 14.9624 47.6245 15.1181C47.7389 15.2468 47.8776 15.3398 48.0404 15.396C48.2578 15.5264 48.4955 15.5973 48.7541 15.6078C48.923 15.5984 49.0919 15.5891 49.2609 15.5797C49.613 15.5115 49.9244 15.3596 50.1951 15.1236C50.4625 14.8369 50.8059 14.4864 50.9077 14.0881C50.971 13.841 51.0353 13.5907 51.0414 13.3348C51.0469 13.096 51.0381 12.8512 50.9858 12.6168C50.9357 12.3912 50.856 12.1711 50.7751 11.956C50.6485 11.6985 50.4658 11.4905 50.2282 11.3309" fill="#E7BE36"/>
<path d="M51.4006 88.2528C51.3869 88.2259 51.3737 88.2 51.3605 88.1731C51.2488 87.92 51.0837 87.7136 50.8658 87.5541C50.7315 87.4148 50.5698 87.3158 50.3943 87.2377C50.386 87.23 50.3772 87.2223 50.3684 87.2151C50.2396 87.1507 50.1104 87.0875 49.9816 87.0236C49.8407 86.9945 49.6999 86.9653 49.559 86.9367C49.3307 86.9108 49.1139 86.9422 48.9076 87.0319C48.7552 87.0611 48.6209 87.1265 48.5042 87.2289C48.3678 87.296 48.2572 87.3928 48.1719 87.5188C48.0613 87.6179 47.9815 87.7373 47.9331 87.8776C47.9309 87.8809 47.9304 87.8842 47.9282 87.8875C47.9149 87.9056 47.899 87.9216 47.8863 87.9409C47.7312 88.1565 47.6382 88.3937 47.6068 88.6523C47.5326 88.9043 47.5249 89.1613 47.5837 89.4232C47.587 89.4452 47.5909 89.4672 47.5942 89.4892C47.6096 89.5849 47.6255 89.6807 47.6459 89.7753C47.7004 90.0257 47.7983 90.2755 47.8935 90.5148C47.9293 90.6061 47.9672 90.6964 48.0068 90.7855C48.0828 90.9572 48.1648 91.1272 48.2528 91.2939C48.3733 91.5228 48.5042 91.7539 48.682 91.9421C49.0704 92.3531 49.5739 92.7052 50.1643 92.7102C50.5197 92.7355 50.8581 92.6706 51.1789 92.5149C51.4991 92.3575 51.7583 92.1308 51.9569 91.8348C52.0411 91.678 52.1203 91.5184 52.194 91.3555C52.2287 91.1872 52.2639 91.0194 52.2986 90.851C52.3305 90.5808 52.2942 90.4389 52.2452 90.2259C52.1852 89.9706 52.1065 89.7258 51.9849 89.4963C51.8964 89.3302 51.8138 89.1613 51.7379 88.989C51.6647 88.8245 51.6086 88.6501 51.5266 88.4905C51.4859 88.4108 51.4413 88.3326 51.4006 88.2528" fill="#EFD580"/>
<path d="M70.704 26.2664C70.4679 26.021 70.1697 25.7872 69.8385 25.6887C69.6685 25.6535 69.4979 25.6183 69.3279 25.5836C69.0522 25.5517 68.7898 25.5902 68.5405 25.6986C68.2109 25.8081 68.0541 25.8587 67.7543 26.1267C67.7212 26.1564 67.6893 26.1866 67.6569 26.2163C67.5011 26.3605 67.3394 26.5008 67.1886 26.6494C66.9394 26.8959 66.7385 27.1814 66.5344 27.4637C66.4739 27.5468 66.4134 27.6304 66.3528 27.7141C66.152 27.9914 66.0315 28.3314 66.0001 28.6775C65.9512 28.8943 65.9341 29.1138 65.9748 29.3372C66.0326 29.6338 66.1608 29.8962 66.3589 30.1235C66.738 30.5532 67.2827 30.7172 67.8379 30.6544C68.1471 30.6539 68.4541 30.5884 68.7298 30.4305C68.8118 30.3843 68.8932 30.3381 68.9747 30.2913C69.2894 30.1119 69.6074 29.9364 69.8968 29.7169C70.058 29.5953 70.2055 29.4489 70.3579 29.3169C70.5527 29.1474 70.7315 28.9664 70.8724 28.7463C71.3456 28.0068 71.3367 26.9217 70.704 26.2664" fill="#F6F6F9"/>
<path d="M64.8192 27.1168C64.7339 26.9413 64.5722 26.7394 64.401 26.6359C64.3757 26.6211 64.1584 26.5132 64.1325 26.5044C64.1034 26.494 63.858 26.4439 63.8261 26.4401C63.7562 26.4318 63.6792 26.4461 63.6043 26.4549C63.4778 26.4577 63.354 26.4764 63.2362 26.5275C63.1179 26.5501 63.0128 26.6013 62.9221 26.6805C62.9171 26.6838 62.9122 26.6877 62.9072 26.691C62.9011 26.6937 62.8957 26.697 62.8896 26.6998C62.7889 26.7669 62.6882 26.8346 62.5875 26.9011C62.3911 27.059 62.4098 27.0767 62.341 27.195C62.3355 27.2043 62.3273 27.212 62.3218 27.2208C62.2612 27.2907 62.2007 27.36 62.1402 27.4294C62.0951 27.5207 62.05 27.6115 62.0048 27.7028C61.9845 27.8024 61.9641 27.902 61.9432 28.0016C61.925 28.1622 61.9476 28.3163 62.0109 28.4616C62.0318 28.5694 62.078 28.6641 62.1501 28.7466C62.1974 28.8434 62.2656 28.921 62.3548 28.9815C62.4247 29.0597 62.5088 29.1158 62.6079 29.1505C62.7405 29.2302 62.8857 29.2731 63.0431 29.2797C63.0998 29.288 63.1564 29.2924 63.2137 29.2908C63.3776 29.2864 63.5488 29.2858 63.7111 29.2539C63.7188 29.2528 63.7265 29.2511 63.7336 29.2495C63.8486 29.2121 63.9636 29.173 64.0786 29.135C64.2563 29.058 64.3125 29.0096 64.4044 28.9083C64.499 28.8038 64.5969 28.6993 64.6817 28.5865C64.6998 28.5617 64.7174 28.5364 64.7334 28.5094C64.7636 28.4561 64.7912 28.4005 64.8159 28.3438C64.904 28.198 64.9518 28.0379 64.959 27.8635L64.9397 27.5229C64.9375 27.5097 64.9298 27.4976 64.9265 27.4844C64.926 27.4668 64.9249 27.4486 64.9238 27.431C64.8913 27.3259 64.8566 27.2203 64.8192 27.1168" fill="#F6F6F9"/>
<path d="M31.328 6.11923C31.1547 5.7902 30.8818 5.52994 30.5087 5.40119C30.0878 5.25593 29.6636 5.32416 29.2933 5.53104C29.2482 5.54645 29.203 5.56076 29.1585 5.57617C28.9384 5.67301 28.759 5.8166 28.6204 6.00588C28.5549 6.0642 28.4993 6.13024 28.4536 6.20397C28.4179 6.25899 28.3849 6.31511 28.3524 6.37234C28.3232 6.42351 28.2946 6.47522 28.2677 6.52804C28.1846 6.69146 28.1037 6.85709 28.0239 7.0216C27.9705 7.13055 27.9683 7.20207 27.9392 7.34237C27.8946 7.55971 27.8765 7.7512 27.8814 7.97019C27.882 8.0054 27.8836 8.04006 27.8853 8.07528C27.8941 8.23979 27.9034 8.40431 27.9122 8.56882C27.9612 8.74325 28.0184 8.91492 28.0844 9.08329C28.1263 9.18728 28.1692 9.23294 28.2473 9.35014C28.3667 9.56803 28.534 9.74355 28.7508 9.87616C28.764 9.88661 28.7794 9.89266 28.7931 9.90256C28.8063 9.91412 28.8201 9.92623 28.8338 9.93779C28.8603 9.95099 28.8867 9.9642 28.9131 9.9774C28.9488 9.99721 28.9846 10.0154 29.022 10.0308L29.23 10.1342C29.4451 10.2167 29.6641 10.2426 29.8875 10.2107C30.0427 10.2222 30.1912 10.1936 30.3316 10.1254C30.4873 10.0951 30.6254 10.028 30.7448 9.92403C30.8279 9.88331 30.8988 9.82774 30.9632 9.76611C30.9825 9.75015 31.0017 9.73915 31.021 9.72264C31.279 9.49485 31.4369 9.21149 31.5618 8.89896C31.6416 8.69978 31.6741 8.48575 31.6901 8.27281C31.7 8.13801 31.7225 8.0065 31.739 7.87225C31.7297 7.70608 31.7203 7.53936 31.7115 7.37264C31.7099 7.35063 31.7066 7.32862 31.7016 7.30662C31.6967 7.2791 31.6911 7.25214 31.6862 7.22518C31.6763 7.16576 31.6675 7.10634 31.6598 7.04636C31.6515 6.98254 31.6466 6.91816 31.64 6.85378C31.6141 6.57372 31.4931 6.33162 31.328 6.11923" fill="#F6F6F9"/>
<path d="M27.8331 11.6815C27.7214 11.5698 27.597 11.4691 27.4782 11.3662C27.3131 11.2578 27.131 11.1962 26.9368 11.1725C26.9065 11.1577 26.8773 11.1401 26.8465 11.1247C26.6936 11.0729 26.5373 11.0608 26.3783 11.09C26.2121 11.1225 26.0657 11.1934 25.9381 11.3051C25.7499 11.4708 25.641 11.7139 25.6311 11.9626C25.6272 11.9742 25.6201 11.9841 25.6168 11.9957C25.5562 12.1723 25.5568 12.2235 25.5507 12.3506C25.5485 12.3918 25.5452 12.4331 25.5403 12.4744C25.5089 12.7407 25.5568 12.9432 25.6437 13.1808C25.6707 13.2799 25.6988 13.3795 25.7466 13.4675C25.7802 13.5209 25.8154 13.5737 25.8517 13.6254C25.9007 13.7256 25.9722 13.807 26.0624 13.8714C26.068 13.8785 26.074 13.8862 26.0795 13.8939C26.1576 14.015 26.2517 14.1239 26.375 14.2065C26.5307 14.3088 26.7007 14.3671 26.8867 14.382C27.2746 14.4111 27.6311 14.2235 27.8529 13.9104C27.8853 13.8642 27.9107 13.8141 27.9387 13.7652C28.0548 13.6315 28.1417 13.4664 28.1951 13.3063C28.2831 13.0416 28.2683 12.8777 28.243 12.6037C28.2375 12.542 28.2298 12.4793 28.2182 12.4188C28.1676 12.1442 28.0306 11.879 27.8331 11.6815" fill="#F6F6F9"/>
<path d="M28.5887 92.2687C28.57 92.2439 28.5513 92.2208 28.5293 92.1983C28.4115 92.0772 28.2542 91.9457 28.1216 91.8417C28.105 91.8285 28.0891 91.8164 28.072 91.8043C27.5174 91.4241 26.7686 91.3845 26.1677 91.6777C25.8574 91.8301 25.6059 92.0502 25.4128 92.3375C25.3149 92.4866 25.2422 92.645 25.1889 92.8095C25.1806 92.8448 25.1691 92.8783 25.1542 92.9108C25.1619 92.8943 25.1702 92.8783 25.1784 92.8613C25.1779 92.8624 25.1779 92.8635 25.1779 92.8646C25.1492 92.9273 25.1261 92.9845 25.1107 93.0351C25.1135 93.0197 25.1168 93.0054 25.1201 92.9906C25.0722 93.198 24.9611 93.3889 24.9066 93.5958C24.7927 94.0305 24.7272 94.4767 24.8378 94.9235C24.8417 94.9389 24.8461 94.9532 24.851 94.9675C24.9105 95.1474 24.9704 95.3268 25.0299 95.5062C25.0381 95.5266 25.0464 95.5469 25.0557 95.5667C25.152 95.7378 25.2599 95.9013 25.3804 96.057C25.5597 96.2749 25.7776 96.4344 26.0346 96.5357C26.302 96.6677 26.4929 96.7789 26.8296 96.7679C27.2027 96.7943 27.5576 96.726 27.8949 96.5626C28.2311 96.3976 28.5034 96.1588 28.712 95.8484C28.9612 95.3741 28.9293 95.4803 29.0113 95.082C29.079 94.8547 29.0833 94.6225 29.0476 94.3876C29.0487 94.3722 29.0487 94.3568 29.0498 94.3419C29.0564 94.2247 29.0729 94.1086 29.0861 93.992C29.0916 93.9436 29.0993 93.8946 29.101 93.8456C29.1076 93.6541 29.1054 93.4561 29.0707 93.2695C28.992 92.8409 28.8445 92.6109 28.5887 92.2687" fill="#F6F6F9"/>
<path d="M29.5833 89.1784C29.6058 89.0689 29.6289 88.9588 29.6515 88.8493C29.6256 88.966 29.6025 89.0727 29.5833 89.1784Z" fill="#F6F6F9"/>
<path d="M74.7764 50.9455C74.5508 50.6918 74.2779 50.5097 73.9576 50.398C73.6891 50.2841 73.3937 50.2593 73.1048 50.2802C73.0481 50.2769 72.9914 50.278 72.9359 50.2676C72.9111 50.2643 72.888 50.2571 72.8627 50.2549C72.7351 50.2445 72.6063 50.2527 72.4786 50.2665C72.3994 50.2577 72.3202 50.2615 72.2409 50.278C72.0973 50.2676 71.9614 50.2956 71.8305 50.3507C71.7562 50.3661 71.6819 50.3826 71.6104 50.4134C71.4123 50.4607 71.2379 50.5559 71.086 50.699L70.8313 50.9917C70.6877 51.2096 70.6057 51.4489 70.5848 51.7086C70.5837 51.7339 70.5881 51.7598 70.5881 51.7856C70.5793 51.8264 70.571 51.8671 70.5628 51.9083C70.5352 52.1488 70.5688 52.3782 70.6635 52.5961C70.6717 52.682 70.6981 52.759 70.7421 52.8283C70.7741 52.8938 70.9479 53.1375 70.888 53.0473C70.9375 53.1221 70.9881 53.2003 71.0398 53.2751C71.0657 53.312 71.0932 53.3483 71.1234 53.3818C71.1531 53.4171 71.1851 53.449 71.2186 53.4803C71.2852 53.5425 71.3628 53.6063 71.4261 53.6614C71.645 53.8528 71.7617 53.9552 72.0808 54.0559C72.105 54.0636 72.1309 54.0696 72.1557 54.0751C72.3592 54.1219 72.5661 54.1725 72.7741 54.1995C72.8247 54.2061 72.8765 54.2099 72.9282 54.2105C72.954 54.2105 72.9799 54.2099 73.0052 54.2088C73.1912 54.2011 73.3799 54.1945 73.5659 54.1775C73.5802 54.1764 73.5945 54.1747 73.6088 54.1731C73.7755 54.1175 73.9428 54.0619 74.1095 54.0063C74.115 54.0047 74.12 54.0025 74.1255 54.0008C74.2713 53.904 74.4176 53.8061 74.564 53.7087C74.5695 53.7037 74.575 53.6988 74.5805 53.6944C74.5898 53.6856 74.5987 53.6773 74.6075 53.6685C74.8606 53.4429 75.0427 53.1695 75.1544 52.8492C75.2639 52.5284 75.2875 52.2005 75.2265 51.8665C75.1593 51.5193 75.0091 51.2118 74.7764 50.9455" fill="#F6F6F9"/>
</svg>
