<svg width="68" height="72" viewBox="0 0 68 72" fill="none" xmlns="http://www.w3.org/2000/svg">
<path d="M64.235 32.1915C65.7228 29.6528 66.8403 26.8928 67.587 24.0487C67.9116 22.8118 66.9399 21.8324 65.7751 21.7395C60.0781 21.285 54.3541 22.0487 48.9972 24.0746C43.6831 26.0835 38.4142 29.1829 34.5725 33.4273C32.6077 35.5979 30.9531 38.2968 30.7298 41.2768C30.6087 42.8862 31.1738 44.6029 32.4316 45.6588C33.6734 46.7014 35.2834 47.1179 36.8642 47.2764C37.2774 47.3177 37.6906 47.3265 38.1033 47.3221C48.6687 48.0121 59.0272 41.077 64.235 32.1915" fill="#EFD580"/>
<path d="M40.6495 29.2957C41.1893 28.2971 41.6625 27.267 42.0669 26.2117C43.711 22.5175 45.0805 18.6863 45.5531 14.6521C45.8552 12.0743 45.7292 9.48109 45.1146 6.95556C44.8444 5.84576 43.6158 5.53709 42.6969 5.98277C36.8546 8.81532 31.4355 12.6075 26.8213 17.182C23.3995 20.5741 20.1906 24.8945 19.5441 29.7992C19.2161 32.2911 19.4489 34.875 20.7216 37.0907C22.0834 39.4606 24.5032 40.9863 27.2808 40.5483C28.6662 40.3299 30.0253 39.7549 31.3051 39.016C31.4779 39.0776 31.6715 39.093 31.8762 39.0407C36.5069 37.8627 38.7562 33.3806 40.6495 29.2957" fill="#E7BE36"/>
<path d="M23.1386 35.8979C23.8104 35.2266 24.3392 34.4514 24.7706 33.6183C25.9189 31.9033 26.3381 29.5857 26.6875 27.6104C26.9808 26.2805 27.2207 24.9259 27.377 23.563C27.6603 21.7285 27.8821 19.8826 27.936 18.0404C28.1148 11.9571 26.21 5.88928 22.7248 0.913614C22.2054 0.172464 21.061 -0.346398 20.2241 0.279756C16.1667 3.31424 13.3045 7.62799 11.1047 12.1387C9.03472 16.3837 7.62176 21.0958 8.13897 25.8613C8.66993 30.7577 11.3061 35.9403 16.1755 37.7472C18.6488 38.6655 21.3344 37.6993 23.1386 35.8979" fill="#EFD580"/>
<path d="M29.0814 35.3812C25.1722 32.408 20.2524 30.9193 15.3842 31.4721C10.709 32.0026 6.33076 34.602 3.46411 38.3433C1.52621 40.8719 0.644401 43.863 0.457604 46.9444C0.156537 48.2541 0.000523854 49.6013 2.07469e-06 50.92C-0.00260682 56.5828 2.4555 61.9104 6.133 66.0988C13.9357 74.9876 26.521 71.6381 33.3923 63.2724C36.7996 59.1242 38.9091 53.483 37.6151 48.0952C36.3952 43.0168 33.1805 38.499 29.0814 35.3812" fill="#553E2D"/>
<path d="M41.2282 11.3309C40.9965 11.1779 40.7428 11.091 40.4661 11.0684C40.1805 11.0481 39.9087 11.1009 39.6507 11.2253C39.4674 11.3155 39.3178 11.4448 39.1841 11.5912C39.0982 11.683 39.0058 11.7689 38.9106 11.8503C38.8539 11.8987 38.7956 11.945 38.7384 11.9923C38.5133 12.1782 38.4275 12.3648 38.2723 12.5722C38.121 12.7824 38.0308 13.014 38 13.2655C37.9279 13.5109 37.9197 13.7618 37.9774 14.0171C38.0324 14.1833 38.0875 14.3494 38.1425 14.5156C38.2514 14.7616 38.4121 14.9624 38.6245 15.1181C38.7389 15.2468 38.8776 15.3398 39.0404 15.396C39.2578 15.5264 39.4955 15.5973 39.7541 15.6078C39.923 15.5984 40.0919 15.5891 40.2609 15.5797C40.613 15.5115 40.9244 15.3596 41.1951 15.1236C41.4625 14.8369 41.8059 14.4864 41.9077 14.0881C41.971 13.841 42.0353 13.5907 42.0414 13.3348C42.0469 13.096 42.0381 12.8512 41.9858 12.6168C41.9357 12.3912 41.856 12.1711 41.7751 11.956C41.6485 11.6985 41.4658 11.4905 41.2282 11.3309" fill="#E7BE36"/>
<path d="M61.704 26.2664C61.4679 26.021 61.1697 25.7872 60.8385 25.6887C60.6685 25.6535 60.4979 25.6183 60.3279 25.5836C60.0522 25.5517 59.7898 25.5902 59.5405 25.6986C59.2109 25.8081 59.0541 25.8587 58.7543 26.1267C58.7212 26.1564 58.6893 26.1866 58.6569 26.2163C58.5011 26.3605 58.3394 26.5008 58.1886 26.6494C57.9394 26.8959 57.7385 27.1814 57.5344 27.4637C57.4739 27.5468 57.4134 27.6304 57.3528 27.7141C57.152 27.9914 57.0315 28.3314 57.0001 28.6775C56.9512 28.8943 56.9341 29.1138 56.9748 29.3372C57.0326 29.6338 57.1608 29.8962 57.3589 30.1235C57.738 30.5532 58.2827 30.7172 58.8379 30.6544C59.1471 30.6539 59.4541 30.5884 59.7298 30.4305C59.8118 30.3843 59.8932 30.3381 59.9747 30.2913C60.2894 30.1119 60.6074 29.9364 60.8968 29.7169C61.058 29.5953 61.2055 29.4489 61.3579 29.3169C61.5527 29.1474 61.7315 28.9664 61.8724 28.7463C62.3456 28.0068 62.3367 26.9217 61.704 26.2664" fill="#F6F6F9"/>
<path d="M55.8192 27.1169C55.7339 26.9413 55.5722 26.7394 55.401 26.636C55.3757 26.6211 55.1584 26.5133 55.1325 26.5045C55.1034 26.494 54.858 26.4439 54.8261 26.4401C54.7562 26.4318 54.6792 26.4461 54.6043 26.4549C54.4778 26.4577 54.354 26.4764 54.2362 26.5276C54.1179 26.5501 54.0128 26.6013 53.9221 26.6805C53.9171 26.6838 53.9122 26.6877 53.9072 26.691C53.9011 26.6937 53.8957 26.697 53.8896 26.6998C53.7889 26.7669 53.6882 26.8346 53.5875 26.9012C53.3911 27.0591 53.4098 27.0767 53.341 27.195C53.3355 27.2043 53.3273 27.212 53.3218 27.2208C53.2612 27.2907 53.2007 27.3601 53.1402 27.4294C53.0951 27.5207 53.05 27.6115 53.0048 27.7028C52.9845 27.8024 52.9641 27.902 52.9432 28.0016C52.925 28.1623 52.9476 28.3163 53.0109 28.4616C53.0318 28.5694 53.078 28.6641 53.1501 28.7466C53.1974 28.8435 53.2656 28.921 53.3548 28.9816C53.4247 29.0597 53.5088 29.1158 53.6079 29.1505C53.7405 29.2303 53.8857 29.2732 54.0431 29.2798C54.0998 29.288 54.1564 29.2924 54.2137 29.2908C54.3776 29.2864 54.5488 29.2858 54.7111 29.2539C54.7188 29.2528 54.7265 29.2512 54.7336 29.2495C54.8486 29.2121 54.9636 29.173 55.0786 29.1351C55.2563 29.058 55.3125 29.0096 55.4044 28.9084C55.499 28.8038 55.5969 28.6993 55.6817 28.5865C55.6998 28.5617 55.7174 28.5364 55.7334 28.5095C55.7636 28.4561 55.7912 28.4005 55.8159 28.3438C55.904 28.198 55.9518 28.0379 55.959 27.8635L55.9397 27.5229C55.9375 27.5097 55.9298 27.4976 55.9265 27.4844C55.926 27.4668 55.9249 27.4486 55.9238 27.431C55.8913 27.3259 55.8566 27.2203 55.8192 27.1169" fill="#F6F6F9"/>
<path d="M22.328 6.11923C22.1547 5.7902 21.8818 5.52994 21.5087 5.40119C21.0878 5.25593 20.6636 5.32416 20.2933 5.53104C20.2482 5.54645 20.203 5.56076 20.1585 5.57617C19.9384 5.67301 19.759 5.8166 19.6204 6.00588C19.5549 6.0642 19.4993 6.13024 19.4536 6.20397C19.4179 6.25899 19.3849 6.31511 19.3524 6.37234C19.3232 6.42351 19.2946 6.47522 19.2677 6.52804C19.1846 6.69146 19.1037 6.85709 19.0239 7.0216C18.9705 7.13055 18.9683 7.20207 18.9392 7.34237C18.8946 7.55971 18.8765 7.7512 18.8814 7.97019C18.882 8.0054 18.8836 8.04006 18.8853 8.07528C18.8941 8.23979 18.9034 8.40431 18.9122 8.56882C18.9612 8.74325 19.0184 8.91492 19.0844 9.08329C19.1263 9.18728 19.1692 9.23294 19.2473 9.35014C19.3667 9.56803 19.534 9.74355 19.7508 9.87616C19.764 9.88661 19.7794 9.89266 19.7931 9.90256C19.8063 9.91412 19.8201 9.92623 19.8338 9.93779C19.8603 9.95099 19.8867 9.9642 19.9131 9.9774C19.9488 9.99721 19.9846 10.0154 20.022 10.0308L20.23 10.1342C20.4451 10.2167 20.6641 10.2426 20.8875 10.2107C21.0427 10.2222 21.1912 10.1936 21.3316 10.1254C21.4873 10.0951 21.6254 10.028 21.7448 9.92403C21.8279 9.88331 21.8988 9.82774 21.9632 9.76611C21.9825 9.75015 22.0017 9.73915 22.021 9.72264C22.279 9.49485 22.4369 9.21149 22.5618 8.89896C22.6416 8.69978 22.6741 8.48575 22.6901 8.27281C22.7 8.13801 22.7225 8.0065 22.739 7.87225C22.7297 7.70608 22.7203 7.53936 22.7115 7.37264C22.7099 7.35063 22.7066 7.32862 22.7016 7.30662C22.6967 7.2791 22.6911 7.25214 22.6862 7.22518C22.6763 7.16576 22.6675 7.10634 22.6598 7.04636C22.6515 6.98254 22.6466 6.91816 22.64 6.85378C22.6141 6.57372 22.4931 6.33162 22.328 6.11923" fill="#F6F6F9"/>
<path d="M18.8331 11.6815C18.7214 11.5698 18.597 11.4691 18.4782 11.3662C18.3131 11.2578 18.131 11.1962 17.9368 11.1725C17.9065 11.1577 17.8773 11.1401 17.8465 11.1247C17.6936 11.0729 17.5373 11.0608 17.3783 11.09C17.2121 11.1225 17.0657 11.1934 16.9381 11.3051C16.7499 11.4708 16.641 11.7139 16.6311 11.9626C16.6272 11.9742 16.6201 11.9841 16.6168 11.9957C16.5562 12.1723 16.5568 12.2235 16.5507 12.3506C16.5485 12.3918 16.5452 12.4331 16.5403 12.4744C16.5089 12.7407 16.5568 12.9432 16.6437 13.1808C16.6707 13.2799 16.6988 13.3795 16.7466 13.4675C16.7802 13.5209 16.8154 13.5737 16.8517 13.6254C16.9007 13.7256 16.9722 13.807 17.0624 13.8714C17.068 13.8785 17.074 13.8862 17.0795 13.8939C17.1576 14.015 17.2517 14.1239 17.375 14.2065C17.5307 14.3088 17.7007 14.3671 17.8867 14.382C18.2746 14.4111 18.6311 14.2235 18.8529 13.9104C18.8853 13.8642 18.9107 13.8141 18.9387 13.7652C19.0548 13.6315 19.1417 13.4664 19.1951 13.3063C19.2831 13.0416 19.2683 12.8777 19.243 12.6037C19.2375 12.542 19.2298 12.4793 19.2182 12.4188C19.1676 12.1442 19.0306 11.879 18.8331 11.6815" fill="#F6F6F9"/>
</svg>
