<svg width="107" height="104" viewBox="0 0 107 104" fill="none" xmlns="http://www.w3.org/2000/svg">
<path d="M7.41493 72.2677C5.92767 74.8059 4.80963 77.5652 4.06352 80.4093C3.73834 81.6468 4.71003 82.6262 5.87485 82.7192C11.5724 83.1731 17.2958 82.4094 22.6534 80.384C27.9674 78.3746 33.2358 75.2757 37.078 71.0308C39.0429 68.8601 40.6974 66.1618 40.9208 63.1818C41.0413 61.5724 40.4767 59.8557 39.2184 58.7999C37.9765 57.7566 36.3671 57.3412 34.7858 57.1828C34.3731 57.1409 33.9599 57.1316 33.5472 57.1371C22.9813 56.4471 12.6233 63.381 7.41493 72.2677" fill="#EFD580"/>
<path d="M30.9996 75.1623C30.4599 76.1615 29.9867 77.1909 29.5817 78.2468C27.9382 81.941 26.5681 85.7717 26.096 89.8064C25.794 92.3842 25.9194 94.9769 26.5346 97.5024C26.8047 98.6122 28.0334 98.9214 28.9523 98.4758C34.7945 95.6427 40.2131 91.8505 44.8278 87.276C48.2491 83.8838 51.4586 79.5635 52.1045 74.6588C52.433 72.1668 52.2003 69.5841 50.9271 67.3678C49.5658 64.998 47.1454 63.4722 44.3684 63.9102C42.9824 64.1286 41.6233 64.7031 40.3441 65.4426C40.1713 65.3809 39.9771 65.3661 39.7724 65.4172C35.1423 66.5953 32.8924 71.0774 30.9996 75.1623" fill="#E7BE36"/>
<path d="M49.1884 67.8958C48.5171 68.5666 47.9884 69.3424 47.557 70.1754C46.4087 71.8905 45.9888 74.2075 45.64 76.1828C45.3462 77.5126 45.1068 78.8673 44.9506 80.2302C44.6672 82.0652 44.4449 83.9106 44.391 85.7533C44.2127 91.8361 46.1176 97.9045 49.6027 102.88C50.1221 103.621 51.2666 104.14 52.1035 103.514C56.1603 100.479 59.0225 96.1658 61.2223 91.655C63.2928 87.4101 64.7058 82.6979 64.1886 77.9319C63.6576 73.0355 61.0215 67.8529 56.152 66.046C53.6788 65.1282 50.9931 66.0939 49.1884 67.8958" fill="#EFD580"/>
<path d="M71.504 95.6512C73.9107 97.3437 76.5688 98.6857 79.3414 99.6645C80.5475 100.091 81.6033 99.204 81.7926 98.0507C82.7164 92.4104 82.4287 86.6429 80.8534 81.1368C79.2908 75.6748 76.6387 70.1676 72.726 65.9875C70.7254 63.8499 68.1729 61.9775 65.2215 61.5087C63.6275 61.2556 61.8701 61.676 60.7136 62.8425C59.5719 63.9935 59.0238 65.5633 58.735 67.1265C58.6596 67.5342 58.6161 67.9452 58.5869 68.3568C57.0254 78.8292 63.079 89.7258 71.504 95.6512Z" fill="#E7BE36"/>
<path d="M76.3408 72.387C77.291 73.0076 78.2782 73.5645 79.2966 74.0558C82.8423 75.9992 86.5469 77.6812 90.5283 78.4857C93.0726 79.0001 95.6668 79.0892 98.2342 78.6859C99.3632 78.5077 99.7721 77.3093 99.404 76.3563C97.0644 70.2994 93.7339 64.5859 89.5566 59.6091C86.4589 55.9182 82.4191 52.3627 77.5849 51.3129C75.1281 50.7797 72.5349 50.7979 70.2212 51.8835C67.7463 53.0439 66.0258 55.329 66.2327 58.1334C66.3356 59.5327 66.7961 60.9346 67.4272 62.2711C67.3513 62.4378 67.3199 62.6299 67.3546 62.8384C68.1452 67.55 72.4265 70.1624 76.3408 72.387" fill="#EFD580"/>
<path d="M70.6046 53.6585C71.2175 54.3843 71.9471 54.9747 72.7411 55.4737C74.3555 56.7596 76.6295 57.3698 78.5696 57.881C79.8709 58.2832 81.2008 58.6342 82.5466 58.9027C84.3514 59.3374 86.1721 59.711 88.0038 59.9173C94.0513 60.598 100.256 59.202 105.503 56.1406C106.284 55.6845 106.896 54.5868 106.342 53.7009C103.653 49.407 99.5909 46.1975 95.2777 43.6318C91.2187 41.218 86.6397 39.4199 81.8473 39.5409C76.9239 39.6647 71.5411 41.8634 69.3374 46.5667C68.2177 48.9552 68.9583 51.7119 70.6046 53.6585" fill="#E7BE36"/>
<path d="M98.2354 32.1915C99.7232 29.6528 100.841 26.8928 101.587 24.0487C101.912 22.8118 100.94 21.8324 99.7755 21.7395C94.0785 21.285 88.3545 22.0487 82.9975 24.0746C77.6835 26.0835 72.4145 29.1829 68.5729 33.4273C66.608 35.5979 64.9535 38.2968 64.7301 41.2768C64.6091 42.8862 65.1742 44.6029 66.432 45.6588C67.6738 46.7014 69.2838 47.1179 70.8645 47.2764C71.2778 47.3177 71.691 47.3265 72.1037 47.3221C82.669 48.0121 93.0275 41.077 98.2354 32.1915" fill="#EFD580"/>
<path d="M74.6498 29.2958C75.1896 28.2971 75.6627 27.2671 76.0671 26.2117C77.7112 22.5175 79.0807 18.6864 79.5534 14.6521C79.8554 12.0743 79.7294 9.48112 79.1148 6.95559C78.8447 5.84579 77.616 5.53712 76.6972 5.9828C70.8549 8.81535 65.4357 12.6075 60.8216 17.182C57.3997 20.5742 54.1908 24.8945 53.5443 29.7992C53.2164 32.2912 53.4491 34.875 54.7218 37.0908C56.0836 39.4606 58.5035 40.9863 61.281 40.5484C62.6665 40.3299 64.0255 39.755 65.3053 39.016C65.4781 39.0776 65.6718 39.093 65.8765 39.0408C70.5071 37.8627 72.7565 33.3806 74.6498 29.2958" fill="#E7BE36"/>
<path d="M22.2412 42.586C21.1124 42.7068 19.9955 42.9003 18.8968 43.1647C14.9211 43.9022 10.988 44.9436 7.39555 46.8391C5.10002 48.0502 3.03425 49.6229 1.30102 51.5599C0.53942 52.4111 0.980948 53.5985 1.8687 54.1033C7.51218 57.3137 13.7068 59.6319 20.0903 60.8435C24.824 61.7422 30.2021 61.9397 34.6103 59.6944C36.8498 58.5532 38.8474 56.8979 39.9526 54.5941C41.1343 52.1295 41.0211 49.271 39.0869 47.23C38.1221 46.212 36.8785 45.4176 35.5446 44.7814C35.4976 44.6041 35.4006 44.4358 35.2415 44.2967C31.6479 41.1477 26.68 41.8327 22.2412 42.586" fill="#E7BE36"/>
<path d="M57.1386 35.8979C57.8104 35.2267 58.3392 34.4514 58.7706 33.6184C59.9189 31.9033 60.3381 29.5858 60.6875 27.6105C60.9808 26.2806 61.2207 24.9259 61.377 23.563C61.6603 21.7286 61.8821 19.8826 61.936 18.0404C62.1148 11.9572 60.21 5.88931 56.7248 0.913645C56.2054 0.172494 55.061 -0.346367 54.2241 0.279787C50.1667 3.31427 47.3045 7.62802 45.1047 12.1387C43.0347 16.3837 41.6218 21.0958 42.139 25.8613C42.6699 30.7577 45.3061 35.9403 50.1755 37.7472C52.6488 38.6656 55.3344 37.6994 57.1386 35.8979" fill="#EFD580"/>
<path d="M34.1354 88.4087C33.9604 88.2277 33.7497 88.1001 33.5043 88.0252C33.3431 87.9922 33.1818 87.9592 33.0206 87.9262C32.8165 87.9113 32.6201 87.9367 32.4275 87.9834C32.2762 88.0313 32.1524 88.0698 32.0429 88.1116C32.0385 88.1138 32.0341 88.1144 32.0297 88.116C32.0203 88.1193 32.0115 88.1226 32.0027 88.1259C32.0126 88.1221 32.0225 88.1193 32.0324 88.1155C31.8718 88.1787 31.7287 88.2602 31.5334 88.4318C31.3623 88.5826 31.2984 88.6756 31.212 88.7972C31.1003 88.9199 31.0068 89.0542 30.9402 89.2077C30.9573 89.173 30.9738 89.1394 30.9909 89.1053C30.9386 89.2082 30.8764 89.3045 30.8032 89.3936C30.7306 89.5406 30.658 89.6875 30.5853 89.8338C30.4935 90.0726 30.4648 90.3153 30.5001 90.5634C30.4874 90.7362 30.5193 90.9007 30.5947 91.057C30.6552 91.3112 30.7779 91.5357 30.9617 91.7299C31.0866 91.8388 31.212 91.9478 31.3369 92.0573C31.4839 92.1293 31.6302 92.202 31.7771 92.2746C32.0159 92.3665 32.2591 92.3957 32.5073 92.3604C32.7653 92.3681 33.0113 92.3093 33.244 92.1844C33.3095 92.1541 33.3722 92.12 33.4327 92.0809C33.6061 91.9692 33.7821 91.8575 33.9489 91.7348C33.978 91.7134 34.0066 91.6903 34.0347 91.6666C34.3549 91.3932 34.5382 91.0333 34.6889 90.6487C34.7324 90.5381 34.7445 90.4424 34.7709 90.3142C34.8446 90.0655 34.8518 89.8113 34.794 89.5532C34.778 89.4613 34.7494 89.3727 34.7082 89.2874C34.6762 89.1928 34.6515 89.0954 34.6108 89.0035C34.5035 88.7609 34.3445 88.5623 34.1354 88.4087" fill="#E7BE36"/>
<path d="M91.8798 70.9116C91.6542 70.6579 91.3807 70.4758 91.0599 70.3641C90.979 70.3471 90.8987 70.3306 90.8178 70.314C90.7171 70.2139 90.6099 70.1215 90.4844 70.0543C90.2907 69.9509 90.0937 69.8519 89.8907 69.7677C89.7432 69.7374 89.5958 69.7066 89.4489 69.6763C89.2965 69.6846 89.1446 69.6934 88.9922 69.7011C88.8425 69.7512 88.6929 69.8007 88.5432 69.8508C88.3204 69.9492 88.1393 70.094 87.999 70.2854C87.8829 70.3883 87.7999 70.5132 87.7487 70.6601C87.6639 70.7883 87.6155 70.9297 87.6034 71.0833C87.5533 71.2302 87.5424 71.3793 87.5704 71.5322C87.5633 71.7694 87.6172 71.9955 87.7322 72.2096C87.7338 72.2134 87.7349 72.2173 87.736 72.2211C87.7745 72.3411 87.8186 72.4583 87.8796 72.5672C88.0326 72.7989 88.1767 73.0382 88.3462 73.2577C88.3836 73.3067 88.4233 73.354 88.4673 73.3969C88.5328 73.4608 88.6076 73.5213 88.6741 73.5785C88.7264 73.6247 88.8106 73.7051 88.8816 73.759C88.8981 73.7716 88.9157 73.7815 88.9333 73.7915C89.0857 73.8778 89.2855 73.9967 89.4758 74.0451C89.6227 74.0825 89.8225 74.1238 89.9716 74.1474C89.9815 74.1485 89.9903 74.1502 89.9997 74.1513C90.0222 74.1541 90.0448 74.1557 90.0679 74.1557C90.2687 74.1546 90.4745 74.1535 90.6737 74.1177C90.694 74.1144 90.7149 74.1095 90.7347 74.104C90.9169 74.0534 91.1017 73.9873 91.2795 73.9235C91.5227 73.8157 91.7213 73.6572 91.8748 73.4481C92.0558 73.2731 92.1835 73.0624 92.2578 72.817C92.3502 72.5771 92.3788 72.3328 92.3436 72.0836C92.3519 71.8239 92.2924 71.5768 92.167 71.3424C92.0712 71.1988 91.976 71.0552 91.8798 70.9116" fill="#F6F6F9"/>
<path d="M91.153 65.4708C91.1365 65.4505 91.1184 65.4312 91.0986 65.4136C90.9825 65.2727 90.8411 65.1687 90.6744 65.1033C90.522 65.0119 90.3558 64.9624 90.1748 64.9547L89.821 64.9745C89.6322 65.0026 89.4655 65.0752 89.3197 65.1919C89.2091 65.2463 89.1194 65.3245 89.0506 65.4274C88.9224 65.5506 88.8317 65.7003 88.7794 65.8741C88.7557 65.9886 88.7321 66.1025 88.7084 66.2169C88.6991 66.3484 88.7106 66.4755 88.7365 66.6004C88.7392 66.6092 88.7398 66.6191 88.742 66.6279C88.7425 66.634 88.7442 66.64 88.7453 66.6455C88.7497 66.6692 88.7568 66.6918 88.7579 66.716C88.7574 66.7055 88.7568 66.6956 88.7563 66.6846C88.7706 66.7572 88.7871 66.8299 88.8174 66.8992C88.8619 67.0857 88.9516 67.2497 89.0859 67.3917C89.1778 67.472 89.2691 67.5518 89.361 67.6315C89.3786 67.6431 89.399 67.6481 89.4166 67.6591C89.5112 67.7229 89.6141 67.7741 89.7252 67.8126C89.8903 67.8764 90.0581 67.8957 90.2292 67.872C90.408 67.8769 90.5781 67.8368 90.7393 67.7504C90.8312 67.7053 90.9115 67.647 90.9885 67.5853C90.9918 67.5826 90.9962 67.5804 90.9995 67.5776C91.0579 67.5292 91.1074 67.4714 91.1569 67.4131C91.1674 67.4005 91.1806 67.3911 91.1905 67.3784C91.202 67.3669 91.2092 67.3526 91.2202 67.3405C91.2328 67.3234 91.2499 67.3113 91.262 67.2932C91.2664 67.2871 91.2686 67.2811 91.273 67.275C91.3583 67.1694 91.4282 67.0538 91.4694 66.9185L91.5421 66.5663C91.5602 66.3132 91.514 66.0733 91.4034 65.845C91.328 65.7151 91.2471 65.5875 91.153 65.4708" fill="#F6F6F9"/>
<path d="M75.2285 11.331C74.9969 11.1781 74.7432 11.0911 74.4665 11.0686C74.1809 11.0482 73.9091 11.101 73.651 11.2254C73.4678 11.3156 73.3181 11.4449 73.1844 11.5913C73.0986 11.6832 73.0062 11.769 72.911 11.8504C72.8543 11.8989 72.796 11.9451 72.7388 11.9924C72.5137 12.1784 72.4279 12.3649 72.2727 12.5723C72.1214 12.7825 72.0312 13.0142 72.0004 13.2656C71.9283 13.511 71.92 13.7619 71.9778 14.0172C72.0328 14.1834 72.0878 14.3496 72.1429 14.5157C72.2518 14.7617 72.4125 14.9625 72.6248 15.1182C72.7393 15.247 72.8779 15.34 73.0408 15.3961C73.2582 15.5265 73.4959 15.5975 73.7545 15.6079C73.9234 15.5986 74.0923 15.5892 74.2612 15.5798C74.6134 15.5116 74.9248 15.3598 75.1955 15.1237C75.4629 14.8371 75.8063 14.4866 75.908 14.0882C75.9713 13.8412 76.0357 13.5908 76.0417 13.3349C76.0472 13.0962 76.0384 12.8513 75.9862 12.6169C75.9361 12.3913 75.8563 12.1712 75.7754 11.9561C75.6489 11.6986 75.4662 11.4906 75.2285 11.331" fill="#E7BE36"/>
<path d="M14.7177 74.2986C14.3342 73.8639 13.6828 73.607 13.105 73.744C13.072 73.7522 13.039 73.7594 13.0054 73.7676C12.8365 73.8067 12.6715 73.8606 12.5108 73.9289C12.376 74.0185 12.2412 74.1082 12.1064 74.1979C12.0448 74.2524 11.9892 74.3146 11.932 74.374C11.7163 74.5957 11.4725 74.8142 11.3091 75.075C11.2222 75.2125 11.1385 75.349 11.0632 75.4931C11.0252 75.5647 10.9878 75.6367 10.9504 75.7083C10.941 75.7264 10.9316 75.7446 10.9217 75.7622C10.8012 75.9306 10.7292 76.1154 10.7044 76.3163C10.6466 76.5121 10.6406 76.7124 10.6862 76.9166C10.6868 76.9199 10.6896 76.9226 10.6901 76.9259C10.7022 77.0222 10.7259 77.1163 10.7649 77.2071C10.809 77.392 10.8975 77.5548 11.0312 77.6957C11.2783 77.9526 11.6068 78.148 11.9721 78.1628C11.9793 78.1628 11.987 78.1634 11.9947 78.1639C12.0321 78.1716 12.069 78.1793 12.1058 78.1865C12.3903 78.2206 12.6907 78.1375 12.9427 78.0148C13.0131 77.9807 13.0819 77.9444 13.1518 77.9086C13.2982 77.8349 13.4363 77.7524 13.576 77.6665C13.773 77.546 13.9683 77.4305 14.1351 77.2726C14.1945 77.2159 14.2545 77.1592 14.3139 77.1031C14.3733 77.0459 14.4344 76.9903 14.4922 76.9314C14.7249 76.6954 14.9351 76.4588 15.0242 76.1286C15.0358 76.0868 15.0457 76.045 15.0561 76.0032C15.1541 75.7154 15.1755 75.4227 15.1211 75.1234C15.0605 74.8125 14.9263 74.5374 14.7177 74.2986" fill="#F6F6F9"/>
<path d="M19.2388 74.8425C19.109 74.6972 18.9521 74.5921 18.7684 74.5278C18.7249 74.5085 18.6765 74.4992 18.6308 74.4865C18.6176 74.4827 18.6044 74.4788 18.5912 74.475C18.441 74.4172 18.288 74.3996 18.1318 74.4216C18.0707 74.4161 18.0107 74.4205 17.9518 74.4348C17.7339 74.4772 17.5419 74.5712 17.3741 74.717C17.3345 74.744 17.2943 74.7721 17.2547 74.7996C17.1804 74.8502 17.1177 74.9168 17.061 74.9894C17.022 75.0169 16.9834 75.0439 16.9444 75.0719C16.825 75.1781 16.7397 75.3063 16.6869 75.4571C16.6357 75.6084 16.6242 75.7625 16.6528 75.9193C16.6847 76.0833 16.7551 76.2274 16.8646 76.3529C16.9708 76.4723 17.0995 76.5581 17.2503 76.6104C17.2993 76.6214 17.3482 76.6318 17.3972 76.6423C17.455 76.6747 17.515 76.7045 17.5788 76.7259C17.6619 76.7551 17.7983 76.7716 17.9034 76.793C17.9562 76.804 18.0091 76.8156 18.0619 76.825C18.1802 76.8464 18.3029 76.831 18.4206 76.8079C18.666 76.76 18.8393 76.6544 19.0308 76.4998C19.0682 76.4701 19.109 76.4415 19.1414 76.4068C19.2872 76.2775 19.3918 76.1201 19.4556 75.9358C19.5183 75.752 19.5326 75.5638 19.4974 75.3718C19.4589 75.1721 19.3725 74.996 19.2388 74.8425" fill="#EFD580"/>
<path d="M76.4009 88.2526C76.3871 88.2256 76.3739 88.1998 76.3607 88.1728C76.249 87.9197 76.0839 87.7134 75.866 87.5538C75.7318 87.4146 75.57 87.3156 75.3945 87.2374C75.3863 87.2297 75.3774 87.222 75.3686 87.2149C75.2399 87.1505 75.1106 87.0872 74.9818 87.0234C74.841 86.9942 74.7001 86.9651 74.5593 86.9365C74.3309 86.9106 74.1141 86.942 73.9078 87.0316C73.7554 87.0608 73.6211 87.1263 73.5045 87.2286C73.368 87.2958 73.2574 87.3926 73.1722 87.5186C73.0616 87.6176 72.9818 87.737 72.9334 87.8773C72.9312 87.8806 72.9306 87.8839 72.9284 87.8872C72.9152 87.9054 72.8992 87.9214 72.8866 87.9406C72.7314 88.1563 72.6384 88.3934 72.6071 88.6521C72.5328 88.9041 72.5251 89.161 72.584 89.4229C72.5873 89.4449 72.5911 89.4669 72.5944 89.4889C72.6098 89.5847 72.6258 89.6804 72.6461 89.7751C72.7006 90.0254 72.7986 90.2752 72.8937 90.5146C72.9295 90.6059 72.9675 90.6961 73.0071 90.7853C73.083 90.9569 73.165 91.127 73.2531 91.2937C73.3735 91.5226 73.5045 91.7537 73.6822 91.9418C74.0707 92.3529 74.5741 92.705 75.1645 92.7099C75.52 92.7353 75.8583 92.6703 76.1791 92.5146C76.4993 92.3573 76.7585 92.1306 76.9571 91.8345C77.0413 91.6777 77.1206 91.5182 77.1943 91.3553C77.229 91.1869 77.2642 91.0191 77.2988 90.8507C77.3307 90.5806 77.2944 90.4386 77.2454 90.2257C77.1855 89.9704 77.1068 89.7255 76.9852 89.4961C76.8966 89.3299 76.8141 89.161 76.7382 88.9888C76.665 88.8243 76.6089 88.6499 76.5269 88.4903C76.4862 88.4105 76.4416 88.3324 76.4009 88.2526" fill="#EFD580"/>
<path d="M95.7044 26.2665C95.4683 26.0211 95.1701 25.7872 94.8389 25.6888C94.6688 25.6535 94.4983 25.6183 94.3283 25.5837C94.0526 25.5518 93.7901 25.5903 93.5409 25.6987C93.2113 25.8082 93.0545 25.8588 92.7546 26.1267C92.7216 26.1565 92.6897 26.1867 92.6572 26.2164C92.5015 26.3606 92.3398 26.5009 92.189 26.6495C91.9398 26.896 91.7389 27.1815 91.5348 27.4638C91.4743 27.5469 91.4137 27.6305 91.3532 27.7141C91.1524 27.9914 91.0319 28.3315 91.0005 28.6776C90.9515 28.8944 90.9345 29.1139 90.9752 29.3373C91.033 29.6339 91.1612 29.8963 91.3593 30.1236C91.7384 30.5533 92.2831 30.7172 92.8383 30.6545C93.1475 30.654 93.4545 30.5885 93.7302 30.4306C93.8121 30.3844 93.8936 30.3381 93.975 30.2914C94.2898 30.112 94.6078 29.9365 94.8972 29.717C95.0584 29.5954 95.2059 29.449 95.3583 29.3169C95.5531 29.1475 95.7319 28.9664 95.8727 28.7463C96.3459 28.0068 96.3371 26.9218 95.7044 26.2665" fill="#F6F6F9"/>
<path d="M89.8196 27.1169C89.7343 26.9414 89.5725 26.7395 89.4014 26.636C89.3761 26.6212 89.1588 26.5133 89.1329 26.5045C89.1038 26.4941 88.8583 26.444 88.8264 26.4401C88.7565 26.4319 88.6795 26.4462 88.6047 26.455C88.4781 26.4578 88.3543 26.4765 88.2366 26.5276C88.1183 26.5502 88.0132 26.6014 87.9224 26.6806C87.9175 26.6839 87.9125 26.6878 87.9076 26.6911C87.9015 26.6938 87.896 26.6971 87.89 26.6999C87.7893 26.767 87.6886 26.8347 87.5879 26.9012C87.3915 27.0591 87.4102 27.0768 87.3414 27.1951C87.3359 27.2044 87.3276 27.2121 87.3221 27.2209C87.2616 27.2908 87.2011 27.3601 87.1406 27.4294C87.0954 27.5208 87.0503 27.6116 87.0052 27.7029C86.9848 27.8025 86.9645 27.9021 86.9436 28.0017C86.9254 28.1623 86.948 28.3164 87.0112 28.4617C87.0322 28.5695 87.0784 28.6641 87.1504 28.7467C87.1978 28.8435 87.266 28.9211 87.3551 28.9816C87.425 29.0598 87.5092 29.1159 87.6082 29.1505C87.7409 29.2303 87.8861 29.2732 88.0435 29.2798C88.1001 29.2881 88.1568 29.2925 88.214 29.2909C88.378 29.2865 88.5491 29.2859 88.7114 29.254C88.7191 29.2529 88.7268 29.2512 88.734 29.2496C88.849 29.2122 88.964 29.1731 89.079 29.1351C89.2567 29.0581 89.3128 29.0097 89.4047 28.9084C89.4994 28.8039 89.5973 28.6994 89.682 28.5866C89.7002 28.5618 89.7178 28.5365 89.7338 28.5095C89.764 28.4562 89.7915 28.4006 89.8163 28.3439C89.9043 28.1981 89.9522 28.038 89.9593 27.8636L89.9401 27.523C89.9379 27.5098 89.9302 27.4977 89.9269 27.4845C89.9263 27.4669 89.9252 27.4487 89.9241 27.4311C89.8917 27.326 89.857 27.2204 89.8196 27.1169" fill="#F6F6F9"/>
<path d="M56.3281 6.11935C56.1548 5.79032 55.8819 5.53006 55.5088 5.40131C55.0879 5.25605 54.6637 5.32428 54.2934 5.53117C54.2483 5.54657 54.2032 5.56088 54.1586 5.57629C53.9385 5.67313 53.7591 5.81673 53.6205 6.006C53.555 6.06433 53.4994 6.13036 53.4538 6.20409C53.418 6.25911 53.385 6.31524 53.3525 6.37246C53.3234 6.42363 53.2947 6.47534 53.2678 6.52816C53.1847 6.69158 53.1038 6.85721 53.024 7.02173C52.9707 7.13067 52.9685 7.20219 52.9393 7.3425C52.8947 7.55984 52.8766 7.75132 52.8815 7.97031C52.8821 8.00552 52.8837 8.04018 52.8854 8.0754C52.8942 8.23991 52.9035 8.40443 52.9123 8.56895C52.9613 8.74337 53.0185 8.91504 53.0846 9.08341C53.1264 9.1874 53.1693 9.23306 53.2474 9.35026C53.3668 9.56815 53.5341 9.74367 53.7509 9.87628C53.7641 9.88673 53.7795 9.89278 53.7933 9.90269C53.8065 9.91424 53.8202 9.92635 53.834 9.93791C53.8604 9.95111 53.8868 9.96432 53.9132 9.97752C53.949 9.99733 53.9847 10.0155 54.0221 10.0309L54.2301 10.1343C54.4453 10.2169 54.6642 10.2427 54.8876 10.2108C55.0428 10.2224 55.1914 10.1938 55.3317 10.1255C55.4874 10.0953 55.6255 10.0281 55.7449 9.92415C55.828 9.88344 55.899 9.82786 55.9633 9.76623C55.9826 9.75028 56.0018 9.73927 56.0211 9.72276C56.2792 9.49497 56.4371 9.21161 56.562 8.89908C56.6417 8.6999 56.6742 8.48587 56.6902 8.27293C56.7001 8.13813 56.7226 8.00662 56.7391 7.87237C56.7298 7.7062 56.7204 7.53948 56.7116 7.37276C56.71 7.35075 56.7067 7.32875 56.7017 7.30674C56.6968 7.27923 56.6913 7.25227 56.6863 7.22531C56.6764 7.16588 56.6676 7.10646 56.6599 7.04648C56.6517 6.98266 56.6467 6.91828 56.6401 6.85391C56.6142 6.57384 56.4932 6.33174 56.3281 6.11935" fill="#F6F6F9"/>
<path d="M52.8332 11.6816C52.7215 11.5699 52.5971 11.4692 52.4783 11.3663C52.3132 11.2579 52.1311 11.1963 51.9369 11.1726C51.9066 11.1578 51.8775 11.1402 51.8466 11.1248C51.6937 11.073 51.5374 11.0609 51.3784 11.0901C51.2122 11.1226 51.0659 11.1935 50.9382 11.3052C50.75 11.4708 50.6411 11.714 50.6312 11.9627C50.6273 11.9743 50.6202 11.9842 50.6169 11.9958C50.5564 12.1724 50.5569 12.2235 50.5509 12.3506C50.5487 12.3919 50.5454 12.4332 50.5404 12.4745C50.509 12.7408 50.5569 12.9432 50.6439 13.1809C50.6708 13.28 50.6989 13.3796 50.7467 13.4676C50.7803 13.521 50.8155 13.5738 50.8518 13.6255C50.9008 13.7257 50.9723 13.8071 51.0626 13.8715C51.0681 13.8786 51.0741 13.8863 51.0796 13.894C51.1578 14.0151 51.2518 14.124 51.3751 14.2066C51.5308 14.3089 51.7008 14.3672 51.8868 14.3821C52.2747 14.4112 52.6313 14.2236 52.853 13.9105C52.8855 13.8643 52.9108 13.8142 52.9388 13.7653C53.0549 13.6316 53.1419 13.4665 53.1952 13.3064C53.2833 13.0417 53.2684 12.8778 53.2431 12.6038C53.2376 12.5421 53.2299 12.4794 53.2183 12.4189C53.1677 12.1443 53.0307 11.8791 52.8332 11.6816" fill="#F6F6F9"/>
<path d="M53.5888 92.2684C53.5701 92.2437 53.5514 92.2206 53.5294 92.198C53.4117 92.0769 53.2543 91.9454 53.1217 91.8414C53.1052 91.8282 53.0892 91.8161 53.0722 91.804C52.5175 91.4238 51.7687 91.3842 51.1678 91.6775C50.8575 91.8299 50.6061 92.05 50.4129 92.3372C50.315 92.4863 50.2424 92.6448 50.189 92.8093C50.1807 92.8445 50.1692 92.8781 50.1543 92.9105C50.162 92.894 50.1703 92.8781 50.1785 92.861C50.178 92.8621 50.178 92.8632 50.178 92.8643C50.1494 92.927 50.1263 92.9843 50.1109 93.0349C50.1136 93.0195 50.1169 93.0052 50.1202 92.9903C50.0724 93.1977 49.9612 93.3887 49.9067 93.5956C49.7928 94.0302 49.7274 94.4765 49.8379 94.9232C49.8418 94.9387 49.8462 94.953 49.8512 94.9673C49.9106 95.1472 49.9706 95.3266 50.03 95.5059C50.0382 95.5263 50.0465 95.5466 50.0558 95.5665C50.1521 95.7376 50.26 95.901 50.3805 96.0567C50.5598 96.2746 50.7777 96.4342 51.0347 96.5354C51.3021 96.6675 51.493 96.7786 51.8298 96.7676C52.2028 96.794 52.5577 96.7258 52.895 96.5624C53.2312 96.3973 53.5035 96.1585 53.7121 95.8482C53.9613 95.3739 53.9294 95.4801 54.0114 95.0817C54.0791 94.8545 54.0835 94.6223 54.0477 94.3873C54.0488 94.3719 54.0488 94.3565 54.0499 94.3417C54.0565 94.2245 54.073 94.1084 54.0862 93.9917C54.0917 93.9433 54.0994 93.8943 54.1011 93.8454C54.1077 93.6539 54.1055 93.4558 54.0708 93.2693C53.9921 92.8407 53.8447 92.6107 53.5888 92.2684" fill="#F6F6F9"/>
<path d="M54.5835 89.1781C54.6061 89.0686 54.6292 88.9586 54.6517 88.8491C54.6259 88.9657 54.6028 89.0725 54.5835 89.1781Z" fill="#F6F6F9"/>
<path d="M99.7766 50.9452C99.551 50.6915 99.2781 50.5094 98.9579 50.3977C98.6894 50.2838 98.3939 50.2591 98.105 50.28C98.0484 50.2767 97.9917 50.2778 97.9361 50.2673C97.9114 50.264 97.8883 50.2569 97.863 50.2547C97.7353 50.2442 97.6065 50.2525 97.4789 50.2662C97.3996 50.2574 97.3204 50.2613 97.2412 50.2778C97.0976 50.2673 96.9617 50.2954 96.8307 50.3504C96.7564 50.3658 96.6822 50.3823 96.6106 50.4131C96.4126 50.4604 96.2381 50.5556 96.0863 50.6987L95.8315 50.9914C95.6879 51.2093 95.6059 51.4486 95.585 51.7083C95.5839 51.7337 95.5883 51.7595 95.5883 51.7854C95.5795 51.8261 95.5713 51.8668 95.563 51.9081C95.5355 52.1485 95.5691 52.378 95.6637 52.5959C95.672 52.6817 95.6984 52.7587 95.7424 52.828C95.7743 52.8935 95.9482 53.1373 95.8882 53.047C95.9377 53.1219 95.9883 53.2 96.04 53.2748C96.0659 53.3117 96.0934 53.348 96.1237 53.3816C96.1534 53.4168 96.1853 53.4487 96.2189 53.4801C96.2854 53.5422 96.363 53.6061 96.4263 53.6611C96.6453 53.8526 96.7619 53.9549 97.0811 54.0556C97.1053 54.0633 97.1312 54.0694 97.1559 54.0749C97.3595 54.1216 97.5664 54.1722 97.7743 54.1992C97.825 54.2058 97.8767 54.2097 97.9284 54.2102C97.9543 54.2102 97.9801 54.2097 98.0055 54.2086C98.1914 54.2008 98.3802 54.1942 98.5661 54.1772C98.5804 54.1761 98.5947 54.1744 98.609 54.1728C98.7758 54.1172 98.943 54.0616 99.1097 54.0061C99.1152 54.0044 99.1202 54.0022 99.1257 54.0006C99.2715 53.9037 99.4179 53.8058 99.5642 53.7084C99.5697 53.7034 99.5752 53.6985 99.5807 53.6941C99.5901 53.6853 99.5989 53.677 99.6077 53.6682C99.8608 53.4426 100.043 53.1692 100.155 52.849C100.264 52.5282 100.288 52.2002 100.227 51.8663C100.16 51.5191 100.009 51.2115 99.7766 50.9452" fill="#F6F6F9"/>
<path d="M41.9151 38.076C41.5219 37.2123 40.9804 36.4453 40.3512 35.7495C39.1469 34.0733 37.1237 32.8687 35.3956 31.8501C34.2528 31.1092 33.0678 30.4106 31.8459 29.7869C30.2264 28.8789 28.5756 28.0244 26.8685 27.3285C21.2334 25.0313 14.8822 24.6904 9.00165 26.2125C8.12502 26.4392 7.23873 27.3297 7.53163 28.3327C8.95374 33.1955 11.9914 37.387 15.4461 41.0272C18.6971 44.4532 22.616 47.4269 27.2614 48.6115C32.0337 49.8289 37.8112 49.1747 41.209 45.2464C42.9348 43.2512 42.9709 40.3975 41.9151 38.076" fill="#EFD580"/>
<path d="M63.0814 35.3809C59.1722 32.4078 54.2524 30.9191 49.3842 31.4718C44.709 32.0023 40.3308 34.6017 37.4641 38.343C35.5262 40.8716 34.6444 43.8627 34.4576 46.9441C34.1565 48.2538 34.0005 49.601 34 50.9197C33.9974 56.5826 36.4555 61.9102 40.133 66.0985C47.9357 74.9874 60.521 71.6378 67.3923 63.2721C70.7996 59.1239 72.9091 53.4827 71.6151 48.0949C70.3952 43.0165 67.1805 38.4987 63.0814 35.3809" fill="#553E2D"/>
</svg>
