<svg width="107" height="104" viewBox="0 0 107 104" fill="none" xmlns="http://www.w3.org/2000/svg">
<path d="M7.41493 72.2676C5.92767 74.8058 4.80963 77.5652 4.06352 80.4093C3.73834 81.6467 4.71003 82.6261 5.87485 82.7191C11.5724 83.173 17.2958 82.4093 22.6534 80.384C27.9674 78.3745 33.2358 75.2757 37.078 71.0307C39.0429 68.8601 40.6974 66.1618 40.9208 63.1818C41.0413 61.5724 40.4767 59.8557 39.2184 58.7998C37.9765 57.7566 36.3671 57.3412 34.7858 57.1827C34.3731 57.1409 33.9599 57.1315 33.5472 57.137C22.9813 56.447 12.6233 63.381 7.41493 72.2676" fill="#d6e7d6"/>
<path d="M30.9996 75.1622C30.4599 76.1614 29.9867 77.1909 29.5817 78.2467C27.9382 81.9409 26.5681 85.7716 26.096 89.8064C25.794 92.3842 25.9194 94.9768 26.5346 97.5024C26.8047 98.6122 28.0334 98.9214 28.9523 98.4757C34.7945 95.6426 40.2131 91.8505 44.8278 87.2759C48.2491 83.8838 51.4586 79.5634 52.1045 74.6587C52.433 72.1668 52.2003 69.584 50.9271 67.3677C49.5658 64.9979 47.1454 63.4721 44.3684 63.9101C42.9824 64.1286 41.6233 64.703 40.3441 65.4425C40.1713 65.3809 39.9771 65.366 39.7724 65.4172C35.1423 66.5952 32.8924 71.0773 30.9996 75.1622" fill="#e3efe3"/>
<path d="M49.1884 67.8958C48.5171 68.5665 47.9884 69.3423 47.557 70.1754C46.4087 71.8904 45.9888 74.2074 45.64 76.1827C45.3462 77.5126 45.1068 78.8672 44.9506 80.2301C44.6672 82.0651 44.4449 83.9106 44.391 85.7533C44.2127 91.836 46.1176 97.9044 49.6027 102.88C50.1221 103.621 51.2666 104.14 52.1035 103.514C56.1603 100.479 59.0225 96.1657 61.2223 91.655C63.2928 87.41 64.7058 82.6979 64.1886 77.9319C63.6576 73.0354 61.0215 67.8529 56.152 66.0459C53.6788 65.1282 50.9931 66.0938 49.1884 67.8958" fill="#d6e7d6"/>
<path d="M71.504 95.6511C73.9107 97.3436 76.5688 98.6856 79.3414 99.6644C80.5475 100.091 81.6033 99.2039 81.7926 98.0506C82.7164 92.4103 82.4287 86.6429 80.8534 81.1368C79.2908 75.6747 76.6387 70.1675 72.726 65.9875C70.7254 63.8499 68.1729 61.9775 65.2215 61.5087C63.6275 61.2556 61.8701 61.6759 60.7136 62.8424C59.5719 63.9935 59.0238 65.5633 58.735 67.1264C58.6596 67.5342 58.6161 67.9452 58.5869 68.3567C57.0254 78.8291 63.079 89.7258 71.504 95.6511Z" fill="#e3efe3"/>
<path d="M76.3408 72.3869C77.291 73.0076 78.2782 73.5644 79.2966 74.0557C82.8423 75.9991 86.5469 77.6812 90.5283 78.4856C93.0726 79 95.6668 79.0892 98.2342 78.6859C99.3632 78.5076 99.7721 77.3092 99.404 76.3562C97.0644 70.2994 93.7339 64.5858 89.5566 59.6091C86.4589 55.9182 82.4191 52.3626 77.5849 51.3128C75.1281 50.7796 72.5349 50.7978 70.2212 51.8834C67.7463 53.0438 66.0258 55.3289 66.2327 58.1334C66.3356 59.5326 66.7961 60.9346 67.4272 62.2711C67.3513 62.4378 67.3199 62.6298 67.3546 62.8383C68.1452 67.5499 72.4265 70.1624 76.3408 72.3869" fill="#d6e7d6"/>
<path d="M70.6046 53.6585C71.2175 54.3842 71.9471 54.9746 72.7411 55.4737C74.3555 56.7595 76.6295 57.3697 78.5696 57.8809C79.8709 58.2831 81.2008 58.6342 82.5466 58.9027C84.3514 59.3373 86.1721 59.7109 88.0038 59.9173C94.0513 60.5979 100.256 59.202 105.503 56.1405C106.284 55.6844 106.896 54.5867 106.342 53.7009C103.653 49.4069 99.5909 46.1975 95.2777 43.6318C91.2187 41.2179 86.6397 39.4198 81.8473 39.5409C76.9239 39.6647 71.5411 41.8634 69.3374 46.5667C68.2177 48.9552 68.9583 51.7118 70.6046 53.6585" fill="#e3efe3"/>
<path d="M98.2354 32.1914C99.7232 29.6527 100.841 26.8928 101.587 24.0487C101.912 22.8118 100.94 21.8324 99.7755 21.7394C94.0785 21.2849 88.3545 22.0486 82.9975 24.0745C77.6835 26.0834 72.4145 29.1828 68.5729 33.4272C66.608 35.5979 64.9535 38.2967 64.7301 41.2767C64.6091 42.8861 65.1742 44.6028 66.432 45.6587C67.6738 46.7014 69.2838 47.1179 70.8645 47.2763C71.2778 47.3176 71.691 47.3264 72.1037 47.322C82.669 48.012 93.0275 41.077 98.2354 32.1914" fill="#d6e7d6"/>
<path d="M74.6498 29.2957C75.1896 28.297 75.6627 27.267 76.0671 26.2117C77.7112 22.5175 79.0807 18.6863 79.5534 14.6521C79.8554 12.0743 79.7294 9.48106 79.1148 6.95553C78.8447 5.84573 77.616 5.53706 76.6972 5.98274C70.8549 8.81529 65.4357 12.6074 60.8216 17.182C57.3997 20.5741 54.1908 24.8945 53.5443 29.7992C53.2164 32.2911 53.4491 34.875 54.7218 37.0907C56.0836 39.4605 58.5035 40.9863 61.281 40.5483C62.6665 40.3299 64.0255 39.7549 65.3053 39.0159C65.4781 39.0776 65.6718 39.093 65.8765 39.0407C70.5071 37.8627 72.7565 33.3805 74.6498 29.2957" fill="#e3efe3"/>
<path d="M22.2412 42.586C21.1124 42.7068 19.9955 42.9002 18.8968 43.1647C14.9211 43.9022 10.988 44.9435 7.39555 46.839C5.10002 48.0502 3.03425 49.6228 1.30102 51.5598C0.53942 52.411 0.980948 53.5984 1.8687 54.1033C7.51218 57.3137 13.7068 59.6318 20.0903 60.8434C24.824 61.7421 30.2021 61.9396 34.6103 59.6944C36.8498 58.5532 38.8474 56.8978 39.9526 54.594C41.1343 52.1294 41.0211 49.2709 39.0869 47.23C38.1221 46.2119 36.8785 45.4175 35.5446 44.7813C35.4976 44.6041 35.4006 44.4357 35.2415 44.2966C31.6479 41.1476 26.68 41.8326 22.2412 42.586" fill="#e3efe3"/>
<path d="M57.1386 35.8979C57.8104 35.2266 58.3392 34.4513 58.7706 33.6183C59.9189 31.9032 60.3381 29.5857 60.6875 27.6104C60.9808 26.2805 61.2207 24.9259 61.377 23.563C61.6603 21.7285 61.8821 19.8825 61.936 18.0404C62.1148 11.9571 60.21 5.88925 56.7248 0.913584C56.2054 0.172433 55.061 -0.346428 54.2241 0.279726C50.1667 3.31421 47.3045 7.62796 45.1047 12.1387C43.0347 16.3837 41.6218 21.0958 42.139 25.8612C42.6699 30.7577 45.3061 35.9402 50.1755 37.7472C52.6488 38.6655 55.3344 37.6993 57.1386 35.8979" fill="#d6e7d6"/>
<path d="M34.1354 88.4087C33.9604 88.2277 33.7497 88.1 33.5043 88.0252C33.3431 87.9922 33.1818 87.9591 33.0206 87.9261C32.8165 87.9113 32.6201 87.9366 32.4275 87.9834C32.2762 88.0312 32.1524 88.0697 32.0429 88.1116C32.0385 88.1138 32.0341 88.1143 32.0297 88.116C32.0203 88.1193 32.0115 88.1226 32.0027 88.1259C32.0126 88.122 32.0225 88.1193 32.0324 88.1154C31.8718 88.1787 31.7287 88.2601 31.5334 88.4318C31.3623 88.5825 31.2984 88.6755 31.212 88.7971C31.1003 88.9198 31.0068 89.0541 30.9402 89.2076C30.9573 89.1729 30.9738 89.1394 30.9909 89.1053C30.9386 89.2082 30.8764 89.3044 30.8032 89.3936C30.7306 89.5405 30.658 89.6874 30.5853 89.8338C30.4935 90.0726 30.4648 90.3152 30.5001 90.5634C30.4874 90.7361 30.5193 90.9006 30.5947 91.0569C30.6552 91.3111 30.7779 91.5356 30.9617 91.7298C31.0866 91.8388 31.212 91.9477 31.3369 92.0572C31.4839 92.1293 31.6302 92.2019 31.7771 92.2745C32.0159 92.3664 32.2591 92.3956 32.5073 92.3604C32.7653 92.3681 33.0113 92.3092 33.244 92.1843C33.3095 92.1541 33.3722 92.1199 33.4327 92.0809C33.6061 91.9692 33.7821 91.8575 33.9489 91.7348C33.978 91.7133 34.0066 91.6902 34.0347 91.6666C34.3549 91.3931 34.5382 91.0332 34.6889 90.6486C34.7324 90.538 34.7445 90.4423 34.7709 90.3141C34.8446 90.0654 34.8518 89.8112 34.794 89.5531C34.778 89.4613 34.7494 89.3727 34.7082 89.2874C34.6762 89.1927 34.6515 89.0954 34.6108 89.0035C34.5035 88.7608 34.3445 88.5622 34.1354 88.4087" fill="#e3efe3"/>
<path d="M91.8798 70.9115C91.6542 70.6579 91.3807 70.4757 91.0599 70.364C90.979 70.347 90.8987 70.3305 90.8178 70.314C90.7171 70.2138 90.6099 70.1214 90.4844 70.0543C90.2907 69.9508 90.0937 69.8518 89.8907 69.7676C89.7432 69.7373 89.5958 69.7065 89.4489 69.6763C89.2965 69.6845 89.1446 69.6933 88.9922 69.701C88.8425 69.7511 88.6929 69.8006 88.5432 69.8507C88.3204 69.9492 88.1393 70.0939 87.999 70.2854C87.8829 70.3883 87.7999 70.5132 87.7487 70.6601C87.6639 70.7883 87.6155 70.9297 87.6034 71.0832C87.5533 71.2301 87.5424 71.3792 87.5704 71.5322C87.5633 71.7693 87.6172 71.9955 87.7322 72.2095C87.7338 72.2134 87.7349 72.2172 87.736 72.2211C87.7745 72.341 87.8186 72.4582 87.8796 72.5671C88.0326 72.7988 88.1767 73.0381 88.3462 73.2577C88.3836 73.3066 88.4233 73.354 88.4673 73.3969C88.5328 73.4607 88.6076 73.5212 88.6741 73.5785C88.7264 73.6247 88.8106 73.705 88.8816 73.7589C88.8981 73.7716 88.9157 73.7815 88.9333 73.7914C89.0857 73.8778 89.2855 73.9966 89.4758 74.045C89.6227 74.0825 89.8225 74.1237 89.9716 74.1474C89.9815 74.1485 89.9903 74.1501 89.9997 74.1512C90.0222 74.154 90.0448 74.1556 90.0679 74.1556C90.2687 74.1545 90.4745 74.1534 90.6737 74.1177C90.694 74.1144 90.7149 74.1094 90.7347 74.1039C90.9169 74.0533 91.1017 73.9873 91.2795 73.9234C91.5227 73.8156 91.7213 73.6571 91.8748 73.4481C92.0558 73.2731 92.1835 73.0623 92.2578 72.8169C92.3502 72.5771 92.3788 72.3327 92.3436 72.0835C92.3519 71.8238 92.2924 71.5767 92.167 71.3423C92.0712 71.1987 91.976 71.0551 91.8798 70.9115" fill="#b8d5b8"/>
<path d="M91.153 65.4708C91.1365 65.4504 91.1184 65.4311 91.0986 65.4135C90.9825 65.2727 90.8411 65.1687 90.6744 65.1032C90.522 65.0119 90.3558 64.9624 90.1748 64.9547L89.821 64.9745C89.6322 65.0025 89.4655 65.0751 89.3197 65.1918C89.2091 65.2463 89.1194 65.3244 89.0506 65.4273C88.9224 65.5505 88.8317 65.7002 88.7794 65.8741C88.7557 65.9885 88.7321 66.1024 88.7084 66.2169C88.6991 66.3484 88.7106 66.4755 88.7365 66.6004C88.7392 66.6092 88.7398 66.6191 88.742 66.6279C88.7425 66.6339 88.7442 66.64 88.7453 66.6455C88.7497 66.6691 88.7568 66.6917 88.7579 66.7159C88.7574 66.7055 88.7568 66.6956 88.7563 66.6846C88.7706 66.7572 88.7871 66.8298 88.8174 66.8991C88.8619 67.0857 88.9516 67.2496 89.0859 67.3916C89.1778 67.4719 89.2691 67.5517 89.361 67.6315C89.3786 67.643 89.399 67.648 89.4166 67.659C89.5112 67.7228 89.6141 67.774 89.7252 67.8125C89.8903 67.8763 90.0581 67.8956 90.2292 67.8719C90.408 67.8769 90.5781 67.8367 90.7393 67.7503C90.8312 67.7052 90.9115 67.6469 90.9885 67.5853C90.9918 67.5825 90.9962 67.5803 90.9995 67.5776C91.0579 67.5291 91.1074 67.4714 91.1569 67.413C91.1674 67.4004 91.1806 67.391 91.1905 67.3784C91.202 67.3668 91.2092 67.3525 91.2202 67.3404C91.2328 67.3234 91.2499 67.3113 91.262 67.2931C91.2664 67.287 91.2686 67.281 91.273 67.2749C91.3583 67.1693 91.4282 67.0538 91.4694 66.9184L91.5421 66.5663C91.5602 66.3132 91.514 66.0733 91.4034 65.8449C91.328 65.7151 91.2471 65.5874 91.153 65.4708" fill="#b8d5b8"/>
<path d="M75.2285 11.331C74.9969 11.178 74.7432 11.0911 74.4665 11.0685C74.1809 11.0481 73.9091 11.101 73.651 11.2253C73.4678 11.3156 73.3181 11.4449 73.1844 11.5912C73.0986 11.6831 73.0062 11.769 72.911 11.8504C72.8543 11.8988 72.796 11.945 72.7388 11.9923C72.5137 12.1783 72.4279 12.3648 72.2727 12.5723C72.1214 12.7825 72.0312 13.0141 72.0004 13.2656C71.9283 13.511 71.92 13.7619 71.9778 14.0172C72.0328 14.1833 72.0878 14.3495 72.1429 14.5157C72.2518 14.7616 72.4125 14.9624 72.6248 15.1182C72.7393 15.2469 72.8779 15.3399 73.0408 15.396C73.2582 15.5264 73.4959 15.5974 73.7545 15.6078C73.9234 15.5985 74.0923 15.5891 74.2612 15.5798C74.6134 15.5116 74.9248 15.3597 75.1955 15.1237C75.4629 14.837 75.8063 14.4865 75.908 14.0881C75.9713 13.8411 76.0357 13.5907 76.0417 13.3349C76.0472 13.0961 76.0384 12.8512 75.9862 12.6168C75.9361 12.3913 75.8563 12.1712 75.7754 11.956C75.6489 11.6985 75.4662 11.4905 75.2285 11.331" fill="#e3efe3"/>
<path d="M14.7177 74.2985C14.3342 73.8639 13.6828 73.6069 13.105 73.7439C13.072 73.7522 13.039 73.7593 13.0054 73.7676C12.8365 73.8066 12.6715 73.8606 12.5108 73.9288C12.376 74.0185 12.2412 74.1082 12.1064 74.1978C12.0448 74.2523 11.9892 74.3145 11.932 74.3739C11.7163 74.5957 11.4725 74.8141 11.3091 75.0749C11.2222 75.2125 11.1385 75.3489 11.0632 75.4931C11.0252 75.5646 10.9878 75.6367 10.9504 75.7082C10.941 75.7264 10.9316 75.7445 10.9217 75.7621C10.8012 75.9305 10.7292 76.1154 10.7044 76.3162C10.6466 76.5121 10.6406 76.7124 10.6862 76.9165C10.6868 76.9198 10.6896 76.9226 10.6901 76.9259C10.7022 77.0221 10.7259 77.1162 10.7649 77.207C10.809 77.3919 10.8975 77.5548 11.0312 77.6956C11.2783 77.9526 11.6068 78.1479 11.9721 78.1628C11.9793 78.1628 11.987 78.1633 11.9947 78.1639C12.0321 78.1716 12.069 78.1793 12.1058 78.1864C12.3903 78.2205 12.6907 78.1374 12.9427 78.0147C13.0131 77.9806 13.0819 77.9443 13.1518 77.9086C13.2982 77.8348 13.4363 77.7523 13.576 77.6665C13.773 77.546 13.9683 77.4304 14.1351 77.2725C14.1945 77.2158 14.2545 77.1592 14.3139 77.103C14.3733 77.0458 14.4344 76.9902 14.4922 76.9314C14.7249 76.6953 14.9351 76.4587 15.0242 76.1286C15.0358 76.0868 15.0457 76.0449 15.0561 76.0031C15.1541 75.7154 15.1755 75.4226 15.1211 75.1233C15.0605 74.8124 14.9263 74.5373 14.7177 74.2985" fill="#b8d5b8"/>
<path d="M19.2388 74.8424C19.109 74.6972 18.9521 74.5921 18.7684 74.5277C18.7249 74.5085 18.6765 74.4991 18.6308 74.4864C18.6176 74.4826 18.6044 74.4787 18.5912 74.4749C18.441 74.4171 18.288 74.3995 18.1318 74.4215C18.0707 74.416 18.0107 74.4204 17.9518 74.4347C17.7339 74.4771 17.5419 74.5712 17.3741 74.717C17.3345 74.7439 17.2943 74.772 17.2547 74.7995C17.1804 74.8501 17.1177 74.9167 17.061 74.9894C17.022 75.0169 16.9834 75.0438 16.9444 75.0719C16.825 75.1781 16.7397 75.3063 16.6869 75.457C16.6357 75.6084 16.6242 75.7624 16.6528 75.9192C16.6847 76.0832 16.7551 76.2274 16.8646 76.3528C16.9708 76.4722 17.0995 76.558 17.2503 76.6103C17.2993 76.6213 17.3482 76.6318 17.3972 76.6422C17.455 76.6747 17.515 76.7044 17.5788 76.7259C17.6619 76.755 17.7983 76.7715 17.9034 76.793C17.9562 76.804 18.0091 76.8155 18.0619 76.8249C18.1802 76.8464 18.3029 76.8309 18.4206 76.8078C18.666 76.76 18.8393 76.6543 19.0308 76.4997C19.0682 76.47 19.109 76.4414 19.1414 76.4067C19.2872 76.2774 19.3918 76.1201 19.4556 75.9357C19.5183 75.752 19.5326 75.5638 19.4974 75.3718C19.4589 75.172 19.3725 74.996 19.2388 74.8424" fill="#d6e7d6"/>
<path d="M76.4009 88.2525C76.3871 88.2256 76.3739 88.1997 76.3607 88.1727C76.249 87.9196 76.0839 87.7133 75.866 87.5537C75.7318 87.4145 75.57 87.3155 75.3945 87.2374C75.3863 87.2297 75.3774 87.222 75.3686 87.2148C75.2399 87.1504 75.1106 87.0872 74.9818 87.0233C74.841 86.9942 74.7001 86.965 74.5593 86.9364C74.3309 86.9105 74.1141 86.9419 73.9078 87.0316C73.7554 87.0607 73.6211 87.1262 73.5045 87.2286C73.368 87.2957 73.2574 87.3925 73.1722 87.5185C73.0616 87.6176 72.9818 87.737 72.9334 87.8773C72.9312 87.8806 72.9306 87.8839 72.9284 87.8872C72.9152 87.9053 72.8992 87.9213 72.8866 87.9406C72.7314 88.1562 72.6384 88.3934 72.6071 88.652C72.5328 88.904 72.5251 89.1609 72.584 89.4229C72.5873 89.4449 72.5911 89.4669 72.5944 89.4889C72.6098 89.5846 72.6258 89.6804 72.6461 89.775C72.7006 90.0254 72.7986 90.2752 72.8937 90.5145C72.9295 90.6058 72.9675 90.6961 73.0071 90.7852C73.083 90.9569 73.165 91.1269 73.2531 91.2936C73.3735 91.5225 73.5045 91.7536 73.6822 91.9418C74.0707 92.3528 74.5741 92.7049 75.1645 92.7099C75.52 92.7352 75.8583 92.6703 76.1791 92.5146C76.4993 92.3572 76.7585 92.1305 76.9571 91.8345C77.0413 91.6777 77.1206 91.5181 77.1943 91.3552C77.229 91.1869 77.2642 91.0191 77.2988 90.8507C77.3307 90.5805 77.2944 90.4386 77.2454 90.2256C77.1855 89.9703 77.1068 89.7255 76.9852 89.496C76.8966 89.3299 76.8141 89.1609 76.7382 88.9887C76.665 88.8242 76.6089 88.6498 76.5269 88.4902C76.4862 88.4104 76.4416 88.3323 76.4009 88.2525" fill="#d6e7d6"/>
<path d="M95.7044 26.2664C95.4683 26.021 95.1701 25.7872 94.8389 25.6887C94.6688 25.6535 94.4983 25.6183 94.3283 25.5836C94.0526 25.5517 93.7901 25.5902 93.5409 25.6986C93.2113 25.8081 93.0545 25.8587 92.7546 26.1267C92.7216 26.1564 92.6897 26.1867 92.6572 26.2164C92.5015 26.3605 92.3398 26.5008 92.189 26.6494C91.9398 26.8959 91.7389 27.1815 91.5348 27.4637C91.4743 27.5468 91.4137 27.6304 91.3532 27.7141C91.1524 27.9914 91.0319 28.3314 91.0005 28.6775C90.9515 28.8943 90.9345 29.1138 90.9752 29.3372C91.033 29.6338 91.1612 29.8963 91.3593 30.1235C91.7384 30.5532 92.2831 30.7172 92.8383 30.6545C93.1475 30.6539 93.4545 30.5884 93.7302 30.4305C93.8121 30.3843 93.8936 30.3381 93.975 30.2913C94.2898 30.1119 94.6078 29.9364 94.8972 29.7169C95.0584 29.5953 95.2059 29.4489 95.3583 29.3169C95.5531 29.1474 95.7319 28.9664 95.8727 28.7463C96.3459 28.0068 96.3371 26.9217 95.7044 26.2664" fill="#b8d5b8"/>
<path d="M89.8196 27.1169C89.7343 26.9413 89.5725 26.7394 89.4014 26.636C89.3761 26.6211 89.1588 26.5133 89.1329 26.5045C89.1038 26.494 88.8583 26.4439 88.8264 26.4401C88.7565 26.4318 88.6795 26.4461 88.6047 26.4549C88.4781 26.4577 88.3543 26.4764 88.2366 26.5276C88.1183 26.5501 88.0132 26.6013 87.9224 26.6805C87.9175 26.6838 87.9125 26.6877 87.9076 26.691C87.9015 26.6937 87.896 26.697 87.89 26.6998C87.7893 26.7669 87.6886 26.8346 87.5879 26.9012C87.3915 27.0591 87.4102 27.0767 87.3414 27.195C87.3359 27.2043 87.3276 27.212 87.3221 27.2208C87.2616 27.2907 87.2011 27.3601 87.1406 27.4294C87.0954 27.5207 87.0503 27.6115 87.0052 27.7028C86.9848 27.8024 86.9645 27.902 86.9436 28.0016C86.9254 28.1623 86.948 28.3163 87.0112 28.4616C87.0322 28.5694 87.0784 28.6641 87.1504 28.7466C87.1978 28.8435 87.266 28.921 87.3551 28.9816C87.425 29.0597 87.5092 29.1158 87.6082 29.1505C87.7409 29.2303 87.8861 29.2732 88.0435 29.2798C88.1001 29.288 88.1568 29.2924 88.214 29.2908C88.378 29.2864 88.5491 29.2858 88.7114 29.2539C88.7191 29.2528 88.7268 29.2512 88.734 29.2495C88.849 29.2121 88.964 29.173 89.079 29.1351C89.2567 29.058 89.3128 29.0096 89.4047 28.9084C89.4994 28.8038 89.5973 28.6993 89.682 28.5865C89.7002 28.5617 89.7178 28.5364 89.7338 28.5095C89.764 28.4561 89.7915 28.4005 89.8163 28.3438C89.9043 28.198 89.9522 28.0379 89.9593 27.8635L89.9401 27.5229C89.9379 27.5097 89.9302 27.4976 89.9269 27.4844C89.9263 27.4668 89.9252 27.4486 89.9241 27.431C89.8917 27.3259 89.857 27.2203 89.8196 27.1169" fill="#b8d5b8"/>
<path d="M56.3281 6.11929C56.1548 5.79026 55.8819 5.53 55.5088 5.40125C55.0879 5.25599 54.6637 5.32422 54.2934 5.53111C54.2483 5.54651 54.2032 5.56082 54.1586 5.57623C53.9385 5.67307 53.7591 5.81667 53.6205 6.00594C53.555 6.06427 53.4994 6.1303 53.4538 6.20403C53.418 6.25905 53.385 6.31518 53.3525 6.3724C53.3234 6.42357 53.2947 6.47528 53.2678 6.5281C53.1847 6.69152 53.1038 6.85715 53.024 7.02167C52.9707 7.13061 52.9685 7.20213 52.9393 7.34244C52.8947 7.55977 52.8766 7.75126 52.8815 7.97025C52.8821 8.00546 52.8837 8.04012 52.8854 8.07534C52.8942 8.23985 52.9035 8.40437 52.9123 8.56889C52.9613 8.74331 53.0185 8.91498 53.0846 9.08335C53.1264 9.18734 53.1693 9.233 53.2474 9.3502C53.3668 9.56809 53.5341 9.74361 53.7509 9.87622C53.7641 9.88667 53.7795 9.89272 53.7933 9.90263C53.8065 9.91418 53.8202 9.92629 53.834 9.93785C53.8604 9.95105 53.8868 9.96426 53.9132 9.97746C53.949 9.99727 53.9847 10.0154 54.0221 10.0308L54.2301 10.1343C54.4453 10.2168 54.6642 10.2427 54.8876 10.2108C55.0428 10.2223 55.1914 10.1937 55.3317 10.1255C55.4874 10.0952 55.6255 10.0281 55.7449 9.92409C55.828 9.88338 55.899 9.8278 55.9633 9.76617C55.9826 9.75022 56.0018 9.73921 56.0211 9.7227C56.2792 9.49491 56.4371 9.21155 56.562 8.89902C56.6417 8.69984 56.6742 8.48581 56.6902 8.27287C56.7001 8.13807 56.7226 8.00656 56.7391 7.87231C56.7298 7.70614 56.7204 7.53942 56.7116 7.3727C56.71 7.35069 56.7067 7.32869 56.7017 7.30668C56.6968 7.27917 56.6913 7.25221 56.6863 7.22524C56.6764 7.16582 56.6676 7.1064 56.6599 7.04642C56.6517 6.9826 56.6467 6.91822 56.6401 6.85384C56.6142 6.57378 56.4932 6.33168 56.3281 6.11929" fill="#b8d5b8"/>
<path d="M52.8332 11.6815C52.7215 11.5698 52.5971 11.4691 52.4783 11.3662C52.3132 11.2579 52.1311 11.1962 51.9369 11.1726C51.9066 11.1577 51.8775 11.1401 51.8466 11.1247C51.6937 11.073 51.5374 11.0609 51.3784 11.09C51.2122 11.1225 51.0659 11.1935 50.9382 11.3052C50.75 11.4708 50.6411 11.714 50.6312 11.9627C50.6273 11.9742 50.6202 11.9841 50.6169 11.9957C50.5564 12.1723 50.5569 12.2235 50.5509 12.3506C50.5487 12.3919 50.5454 12.4331 50.5404 12.4744C50.509 12.7407 50.5569 12.9432 50.6439 13.1809C50.6708 13.2799 50.6989 13.3795 50.7467 13.4675C50.7803 13.5209 50.8155 13.5737 50.8518 13.6255C50.9008 13.7256 50.9723 13.807 51.0626 13.8714C51.0681 13.8786 51.0741 13.8863 51.0796 13.894C51.1578 14.015 51.2518 14.124 51.3751 14.2065C51.5308 14.3088 51.7008 14.3672 51.8868 14.382C52.2747 14.4112 52.6313 14.2236 52.853 13.9105C52.8855 13.8643 52.9108 13.8142 52.9388 13.7652C53.0549 13.6315 53.1419 13.4664 53.1952 13.3063C53.2833 13.0417 53.2684 12.8777 53.2431 12.6037C53.2376 12.5421 53.2299 12.4793 53.2183 12.4188C53.1677 12.1443 53.0307 11.8791 52.8332 11.6815" fill="#b8d5b8"/>
<path d="M53.5888 92.2684C53.5701 92.2436 53.5514 92.2205 53.5294 92.1979C53.4117 92.0769 53.2543 91.9454 53.1217 91.8414C53.1052 91.8282 53.0892 91.8161 53.0722 91.804C52.5175 91.4238 51.7687 91.3841 51.1678 91.6774C50.8575 91.8298 50.6061 92.0499 50.4129 92.3371C50.315 92.4862 50.2424 92.6447 50.189 92.8092C50.1807 92.8444 50.1692 92.878 50.1543 92.9105C50.162 92.894 50.1703 92.878 50.1785 92.8609C50.178 92.862 50.178 92.8631 50.178 92.8642C50.1494 92.927 50.1263 92.9842 50.1109 93.0348C50.1136 93.0194 50.1169 93.0051 50.1202 92.9903C50.0724 93.1977 49.9612 93.3886 49.9067 93.5955C49.7928 94.0302 49.7274 94.4764 49.8379 94.9232C49.8418 94.9386 49.8462 94.9529 49.8512 94.9672C49.9106 95.1471 49.9706 95.3265 50.03 95.5059C50.0382 95.5262 50.0465 95.5466 50.0558 95.5664C50.1521 95.7375 50.26 95.9009 50.3805 96.0566C50.5598 96.2745 50.7777 96.4341 51.0347 96.5353C51.3021 96.6674 51.493 96.7785 51.8298 96.7675C52.2028 96.7939 52.5577 96.7257 52.895 96.5623C53.2312 96.3972 53.5035 96.1584 53.7121 95.8481C53.9613 95.3738 53.9294 95.48 54.0114 95.0817C54.0791 94.8544 54.0835 94.6222 54.0477 94.3873C54.0488 94.3719 54.0488 94.3565 54.0499 94.3416C54.0565 94.2244 54.073 94.1083 54.0862 93.9917C54.0917 93.9432 54.0994 93.8943 54.1011 93.8453C54.1077 93.6538 54.1055 93.4557 54.0708 93.2692C53.9921 92.8406 53.8447 92.6106 53.5888 92.2684" fill="#b8d5b8"/>
<path d="M54.5835 89.1781C54.6061 89.0686 54.6292 88.9585 54.6517 88.849C54.6259 88.9657 54.6028 89.0724 54.5835 89.1781Z" fill="#b8d5b8"/>
<path d="M99.7766 50.9451C99.551 50.6915 99.2781 50.5093 98.9579 50.3976C98.6894 50.2837 98.3939 50.259 98.105 50.2799C98.0484 50.2766 97.9917 50.2777 97.9361 50.2673C97.9114 50.2639 97.8883 50.2568 97.863 50.2546C97.7353 50.2441 97.6065 50.2524 97.4789 50.2661C97.3996 50.2573 97.3204 50.2612 97.2412 50.2777C97.0976 50.2672 96.9617 50.2953 96.8307 50.3503C96.7564 50.3657 96.6822 50.3822 96.6106 50.4131C96.4126 50.4604 96.2381 50.5556 96.0863 50.6986L95.8315 50.9913C95.6879 51.2092 95.6059 51.4486 95.585 51.7083C95.5839 51.7336 95.5883 51.7595 95.5883 51.7853C95.5795 51.826 95.5713 51.8667 95.563 51.908C95.5355 52.1485 95.5691 52.3779 95.6637 52.5958C95.672 52.6816 95.6984 52.7587 95.7424 52.828C95.7743 52.8935 95.9482 53.1372 95.8882 53.047C95.9377 53.1218 95.9883 53.1999 96.04 53.2748C96.0659 53.3116 96.0934 53.3479 96.1237 53.3815C96.1534 53.4167 96.1853 53.4486 96.2189 53.48C96.2854 53.5422 96.363 53.606 96.4263 53.661C96.6453 53.8525 96.7619 53.9548 97.0811 54.0555C97.1053 54.0632 97.1312 54.0693 97.1559 54.0748C97.3595 54.1216 97.5664 54.1722 97.7743 54.1991C97.825 54.2057 97.8767 54.2096 97.9284 54.2101C97.9543 54.2101 97.9801 54.2096 98.0055 54.2085C98.1914 54.2008 98.3802 54.1942 98.5661 54.1771C98.5804 54.176 98.5947 54.1744 98.609 54.1727C98.7758 54.1172 98.943 54.0616 99.1097 54.006C99.1152 54.0044 99.1202 54.0022 99.1257 54.0005C99.2715 53.9037 99.4179 53.8057 99.5642 53.7083C99.5697 53.7034 99.5752 53.6984 99.5807 53.694C99.5901 53.6852 99.5989 53.677 99.6077 53.6682C99.8608 53.4426 100.043 53.1691 100.155 52.8489C100.264 52.5281 100.288 52.2002 100.227 51.8662C100.16 51.519 100.009 51.2114 99.7766 50.9451" fill="#b8d5b8"/>
<path d="M41.9151 38.0759C41.5219 37.2122 40.9804 36.4453 40.3512 35.7495C39.1469 34.0733 37.1237 32.8686 35.3956 31.8501C34.2528 31.1091 33.0678 30.4105 31.8459 29.7869C30.2264 28.8788 28.5756 28.0243 26.8685 27.3285C21.2334 25.0313 14.8822 24.6903 9.00165 26.2124C8.12502 26.4392 7.23873 27.3297 7.53163 28.3326C8.95374 33.1954 11.9914 37.3869 15.4461 41.0271C18.6971 44.4531 22.616 47.4268 27.2614 48.6114C32.0337 49.8289 37.8112 49.1747 41.209 45.2464C42.9348 43.2511 42.9709 40.3974 41.9151 38.0759" fill="#d6e7d6"/>
<path d="M48.3982 32.4371C48.4117 31.4872 48.2484 30.563 47.9766 29.6654C47.6019 27.6359 46.2859 25.6834 45.1571 24.0248C44.4388 22.8676 43.6655 21.7302 42.8259 20.6446C41.749 19.1325 40.62 17.656 39.373 16.2986C35.2554 11.8174 29.6568 8.80019 23.6884 7.66839C22.7995 7.50005 21.6175 7.92709 21.4549 8.95952C20.6668 13.9639 21.6271 19.0513 23.1991 23.8173C24.6788 28.302 26.9549 32.6631 30.6512 35.7159C34.4482 38.8525 39.9531 40.7246 44.7019 38.6207C47.1139 37.5526 48.3635 34.9863 48.3982 32.4371" fill="#e3efe3"/>
<path d="M24.6016 15.3462C24.6054 15.6856 24.6919 16.0021 24.8603 16.2965C24.9882 16.5586 25.195 16.7712 25.4267 16.9449C25.4673 16.9846 25.5108 17.0209 25.5459 17.0653C25.5624 17.084 25.5751 17.1046 25.5928 17.1228C25.6823 17.2145 25.7849 17.2927 25.8902 17.3661C25.9443 17.4247 26.0066 17.4738 26.0772 17.5133C26.1787 17.6154 26.2997 17.6834 26.4346 17.7278C26.5008 17.7649 26.5677 17.8012 26.6419 17.8248C26.8224 17.9191 27.0165 17.9616 27.225 17.9533L27.6093 17.8995C27.8606 17.8293 28.0795 17.7025 28.2657 17.5202C28.2831 17.5018 28.2968 17.4794 28.3137 17.4599C28.3471 17.4349 28.38 17.4096 28.4133 17.3839C28.5918 17.2205 28.717 17.0253 28.7885 16.7987C28.8386 16.7285 28.8692 16.6531 28.8815 16.5719C28.9004 16.5015 28.9291 16.2035 28.9151 16.3109C28.9268 16.222 28.9399 16.1298 28.95 16.0394C28.9546 15.9946 28.9577 15.9492 28.9569 15.904C28.9576 15.8579 28.9544 15.8129 28.9496 15.7672C28.9402 15.6766 28.9235 15.5775 28.9119 15.4945C28.8722 15.2063 28.8513 15.0525 28.6765 14.7672C28.6633 14.7455 28.6477 14.7239 28.6327 14.7035C28.5097 14.5347 28.3868 14.3608 28.2475 14.204C28.2136 14.1658 28.1771 14.1289 28.1384 14.0946C28.1189 14.0776 28.0991 14.0611 28.0792 14.0453C27.9338 13.9291 27.7871 13.8103 27.6355 13.7011C27.624 13.6926 27.6121 13.6844 27.6002 13.6763C27.438 13.6089 27.2753 13.5411 27.113 13.4736C27.1077 13.4713 27.1026 13.4697 27.0973 13.4673C26.9237 13.4447 26.749 13.4226 26.5747 13.4001C26.5673 13.4002 26.5599 13.4004 26.5528 13.4001C26.54 13.4006 26.5279 13.401 26.5155 13.4019C26.1765 13.4061 25.8596 13.493 25.5652 13.6614C25.2722 13.8317 25.0392 14.0636 24.8661 14.3558C24.689 14.6618 24.6006 14.9925 24.6016 15.3462" fill="#b8d5b8"/>
<path d="M63.0814 35.3808C59.1722 32.4077 54.2524 30.919 49.3842 31.4717C44.709 32.0023 40.3308 34.6017 37.4641 38.3429C35.5262 40.8716 34.6444 43.8627 34.4576 46.944C34.1565 48.2538 34.0005 49.601 34 50.9197C33.9974 56.5825 36.4555 61.9101 40.133 66.0985C47.9357 74.9873 60.521 71.6378 67.3923 63.2721C70.7996 59.1238 72.9091 53.4827 71.6151 48.0949C70.3952 43.0164 67.1805 38.4986 63.0814 35.3808" fill="#b8d5b8"/>
</svg>
