<svg width="103" height="104" viewBox="0 0 103 104" fill="none" xmlns="http://www.w3.org/2000/svg">
<path d="M3.41493 72.2679C1.92767 74.8061 0.809626 77.5655 0.0635232 80.4096C-0.261659 81.647 0.710031 82.6264 1.87485 82.7194C7.57241 83.1733 13.2958 82.4096 18.6534 80.3843C23.9674 78.3748 29.2358 75.276 33.078 71.031C35.0429 68.8604 36.6974 66.1621 36.9208 63.1821C37.0413 61.5727 36.4767 59.856 35.2184 58.8001C33.9765 57.7569 32.3671 57.3415 30.7858 57.183C30.3731 57.1412 29.9599 57.1318 29.5472 57.1373C18.9813 56.4473 8.62334 63.3813 3.41493 72.2679" fill="#EFD580"/>
<path d="M26.9996 75.1625C26.4599 76.1617 25.9867 77.1912 25.5817 78.247C23.9382 81.9412 22.5681 85.7719 22.096 89.8067C21.794 92.3845 21.9194 94.9771 22.5346 97.5027C22.8047 98.6125 24.0334 98.9217 24.9523 98.476C30.7945 95.6429 36.2131 91.8508 40.8278 87.2762C44.2491 83.8841 47.4586 79.5637 48.1045 74.659C48.433 72.1671 48.2003 69.5843 46.9271 67.368C45.5658 64.9982 43.1454 63.4725 40.3684 63.9104C38.9824 64.1289 37.6233 64.7033 36.3441 65.4428C36.1713 65.3812 35.9771 65.3663 35.7724 65.4175C31.1423 66.5955 28.8924 71.0776 26.9996 75.1625" fill="#E7BE36"/>
<path d="M45.1884 67.8961C44.5171 68.5668 43.9884 69.3426 43.557 70.1757C42.4087 71.8907 41.9888 74.2077 41.64 76.183C41.3462 77.5129 41.1068 78.8675 40.9506 80.2304C40.6672 82.0654 40.4449 83.9109 40.391 85.7536C40.2127 91.8363 42.1176 97.9047 45.6027 102.88C46.1221 103.622 47.2666 104.14 48.1035 103.514C52.1603 100.479 55.0225 96.166 57.2223 91.6553C59.2928 87.4103 60.7058 82.6982 60.1886 77.9322C59.6576 73.0357 57.0215 67.8532 52.152 66.0462C49.6788 65.1285 46.9931 66.0941 45.1884 67.8961" fill="#EFD580"/>
<path d="M67.5038 95.6514C69.9104 97.3439 72.5686 98.6859 75.3411 99.6647C76.5472 100.091 77.6031 99.2042 77.7924 98.0509C78.7162 92.4106 78.4284 86.6432 76.8531 81.1371C75.2905 75.675 72.6384 70.1678 68.7258 65.9878C66.7252 63.8502 64.1727 61.9778 61.2213 61.509C59.6273 61.2559 57.8699 61.6762 56.7133 62.8427C55.5716 63.9938 55.0236 65.5636 54.7347 67.1267C54.6593 67.5345 54.6159 67.9455 54.5867 68.357C53.0252 78.8294 59.0787 89.7261 67.5038 95.6514Z" fill="#E7BE36"/>
<path d="M72.3404 72.3872C73.2907 73.0079 74.2778 73.5647 75.2963 74.056C78.8419 75.9994 82.5465 77.6815 86.528 78.4859C89.0722 79.0004 91.6665 79.0895 94.2338 78.6862C95.3629 78.5079 95.7717 77.3095 95.4036 76.3565C93.0641 70.2997 89.7335 64.5862 85.5562 59.6094C82.4585 55.9185 78.4188 52.3629 73.5845 51.3131C71.1278 50.78 68.5346 50.7981 66.2209 51.8837C63.746 53.0441 62.0254 55.3292 62.2323 58.1337C62.3352 59.5329 62.7957 60.9349 63.4268 62.2714C63.3509 62.4381 63.3195 62.6301 63.3542 62.8386C64.1449 67.5502 68.4262 70.1627 72.3404 72.3872" fill="#EFD580"/>
<path d="M66.6042 53.6588C67.2172 54.3845 67.9468 54.9749 68.7407 55.474C70.3551 56.7599 72.6292 57.3701 74.5693 57.8812C75.8705 58.2834 77.2004 58.6345 78.5463 58.903C80.351 59.3377 82.1717 59.7113 84.0034 59.9176C90.0509 60.5982 96.2558 59.2023 101.503 56.1409C102.284 55.6847 102.896 54.587 102.341 53.7012C99.6528 49.4072 95.5905 46.1978 91.2773 43.6321C87.2183 41.2183 82.6394 39.4201 77.8469 39.5412C72.9235 39.665 67.5407 41.8637 65.3371 46.567C64.2174 48.9555 64.958 51.7121 66.6042 53.6588" fill="#E7BE36"/>
<path d="M94.235 32.1915C95.7228 29.6528 96.8403 26.8929 97.587 24.0488C97.9116 22.8119 96.9399 21.8325 95.7751 21.7395C90.0781 21.285 84.3541 22.0487 78.9972 24.0746C73.6831 26.0835 68.4142 29.1829 64.5725 33.4273C62.6077 35.598 60.9531 38.2968 60.7298 41.2768C60.6087 42.8862 61.1738 44.6029 62.4316 45.6588C63.6734 46.7015 65.2834 47.118 66.8642 47.2764C67.2774 47.3177 67.6906 47.3265 68.1033 47.3221C78.6687 48.0121 89.0272 41.0771 94.235 32.1915" fill="#EFD580"/>
<path d="M70.6495 29.2957C71.1893 28.2971 71.6625 27.267 72.0669 26.2117C73.711 22.5175 75.0805 18.6863 75.5531 14.6521C75.8552 12.0743 75.7292 9.48109 75.1146 6.95556C74.8444 5.84576 73.6158 5.53709 72.6969 5.98277C66.8546 8.81532 61.4355 12.6075 56.8213 17.182C53.3995 20.5741 50.1906 24.8945 49.5441 29.7992C49.2161 32.2911 49.4489 34.875 50.7216 37.0907C52.0834 39.4606 54.5032 40.9863 57.2808 40.5483C58.6662 40.3299 60.0253 39.7549 61.3051 39.016C61.4779 39.0776 61.6715 39.093 61.8762 39.0407C66.5069 37.8627 68.7562 33.3806 70.6495 29.2957" fill="#E7BE36"/>
<path d="M53.1386 35.8979C53.8104 35.2266 54.3392 34.4514 54.7706 33.6183C55.9189 31.9033 56.3381 29.5857 56.6875 27.6104C56.9808 26.2805 57.2207 24.9259 57.377 23.563C57.6603 21.7285 57.8821 19.8826 57.936 18.0404C58.1148 11.9571 56.21 5.88928 52.7248 0.913614C52.2054 0.172464 51.061 -0.346398 50.2241 0.279756C46.1667 3.31424 43.3045 7.62799 41.1047 12.1387C39.0347 16.3837 37.6218 21.0958 38.139 25.8613C38.6699 30.7577 41.3061 35.9403 46.1755 37.7472C48.6488 38.6655 51.3344 37.6993 53.1386 35.8979" fill="#EFD580"/>
<path d="M59.0814 35.3812C55.1722 32.408 50.2524 30.9193 45.3842 31.4721C40.709 32.0026 36.3308 34.602 33.4641 38.3433C31.5262 40.8719 30.6444 43.863 30.4576 46.9444C30.1565 48.2541 30.0005 49.6013 30 50.92C29.9974 56.5828 32.4555 61.9104 36.133 66.0988C43.9357 74.9876 56.521 71.6381 63.3923 63.2724C66.7996 59.1242 68.9091 53.483 67.6151 48.0952C66.3952 43.0168 63.1805 38.499 59.0814 35.3812" fill="#553E2D"/>
<path d="M30.1354 88.409C29.9604 88.228 29.7497 88.1003 29.5043 88.0255C29.3431 87.9925 29.1818 87.9595 29.0206 87.9265C28.8165 87.9116 28.6201 87.9369 28.4275 87.9837C28.2762 88.0316 28.1524 88.0701 28.0429 88.1119C28.0385 88.1141 28.0341 88.1146 28.0297 88.1163C28.0203 88.1196 28.0115 88.1229 28.0027 88.1262C28.0126 88.1223 28.0225 88.1196 28.0324 88.1157C27.8718 88.179 27.7287 88.2604 27.5334 88.4321C27.3623 88.5829 27.2984 88.6759 27.212 88.7975C27.1003 88.9202 27.0068 89.0544 26.9402 89.2079C26.9573 89.1733 26.9738 89.1397 26.9909 89.1056C26.9386 89.2085 26.8764 89.3048 26.8032 89.3939C26.7306 89.5408 26.658 89.6877 26.5853 89.8341C26.4935 90.0729 26.4648 90.3155 26.5001 90.5637C26.4874 90.7364 26.5193 90.901 26.5947 91.0572C26.6552 91.3114 26.7779 91.5359 26.9617 91.7301C27.0866 91.8391 27.212 91.948 27.3369 92.0575C27.4839 92.1296 27.6302 92.2022 27.7771 92.2749C28.0159 92.3668 28.2591 92.3959 28.5073 92.3607C28.7653 92.3684 29.0113 92.3095 29.244 92.1846C29.3095 92.1544 29.3722 92.1203 29.4327 92.0812C29.6061 91.9695 29.7821 91.8578 29.9489 91.7351C29.978 91.7136 30.0066 91.6905 30.0347 91.6669C30.3549 91.3934 30.5382 91.0336 30.6889 90.649C30.7324 90.5384 30.7445 90.4426 30.7709 90.3144C30.8446 90.0657 30.8518 89.8115 30.794 89.5535C30.778 89.4616 30.7494 89.373 30.7082 89.2877C30.6762 89.1931 30.6515 89.0957 30.6108 89.0038C30.5035 88.7611 30.3445 88.5625 30.1354 88.409" fill="#E7BE36"/>
<path d="M87.8794 70.9119C87.6538 70.6582 87.3803 70.4761 87.0596 70.3644C86.9787 70.3473 86.8984 70.3308 86.8175 70.3143C86.7168 70.2142 86.6095 70.1217 86.484 70.0546C86.2904 69.9512 86.0934 69.8521 85.8903 69.7679C85.7429 69.7377 85.5954 69.7069 85.4485 69.6766C85.2961 69.6849 85.1442 69.6937 84.9918 69.7014C84.8422 69.7514 84.6925 69.801 84.5428 69.851C84.32 69.9495 84.139 70.0942 83.9987 70.2857C83.8826 70.3886 83.7995 70.5135 83.7483 70.6604C83.6636 70.7886 83.6152 70.93 83.603 71.0835C83.553 71.2304 83.542 71.3796 83.5701 71.5325C83.5629 71.7697 83.6168 71.9958 83.7318 72.2098C83.7335 72.2137 83.7346 72.2175 83.7357 72.2214C83.7742 72.3413 83.8182 72.4585 83.8793 72.5675C84.0322 72.7991 84.1764 73.0385 84.3458 73.258C84.3833 73.307 84.4229 73.3543 84.4669 73.3972C84.5324 73.461 84.6072 73.5216 84.6738 73.5788C84.7261 73.625 84.8102 73.7053 84.8812 73.7593C84.8977 73.7719 84.9154 73.7818 84.933 73.7917C85.0854 73.8781 85.2851 73.997 85.4755 74.0454C85.6224 74.0828 85.8221 74.1241 85.9712 74.1477C85.9811 74.1488 85.9899 74.1505 85.9993 74.1516C86.0218 74.1543 86.0444 74.156 86.0675 74.156C86.2683 74.1549 86.4741 74.1538 86.6733 74.118C86.6937 74.1147 86.7146 74.1098 86.7344 74.1043C86.9165 74.0536 87.1014 73.9876 87.2791 73.9238C87.5223 73.8159 87.7209 73.6575 87.8744 73.4484C88.0555 73.2734 88.1831 73.0627 88.2574 72.8173C88.3498 72.5774 88.3785 72.3331 88.3432 72.0838C88.3515 71.8241 88.292 71.5771 88.1666 71.3427C88.0709 71.1991 87.9757 71.0555 87.8794 70.9119" fill="#F6F6F9"/>
<path d="M87.1527 65.4711C87.1362 65.4507 87.118 65.4315 87.0982 65.4139C86.9821 65.273 86.8407 65.169 86.674 65.1035C86.5216 65.0122 86.3554 64.9627 86.1744 64.955L85.8206 64.9748C85.6319 65.0029 85.4652 65.0755 85.3193 65.1921C85.2087 65.2466 85.1191 65.3247 85.0503 65.4276C84.9221 65.5509 84.8313 65.7005 84.779 65.8744C84.7554 65.9889 84.7317 66.1028 84.7081 66.2172C84.6987 66.3487 84.7102 66.4758 84.7361 66.6007C84.7389 66.6095 84.7394 66.6194 84.7416 66.6282C84.7422 66.6343 84.7438 66.6403 84.7449 66.6458C84.7493 66.6695 84.7565 66.692 84.7576 66.7163C84.757 66.7058 84.7565 66.6959 84.7559 66.6849C84.7702 66.7575 84.7867 66.8301 84.817 66.8995C84.8616 67.086 84.9512 67.25 85.0855 67.3919C85.1774 67.4723 85.2687 67.552 85.3606 67.6318C85.3782 67.6434 85.3986 67.6483 85.4162 67.6593C85.5108 67.7232 85.6137 67.7743 85.7249 67.8128C85.8899 67.8767 86.0577 67.8959 86.2288 67.8723C86.4077 67.8772 86.5777 67.8371 86.7389 67.7507C86.8308 67.7055 86.9111 67.6472 86.9882 67.5856C86.9915 67.5828 86.9959 67.5806 86.9992 67.5779C87.0575 67.5295 87.107 67.4717 87.1565 67.4134C87.167 67.4007 87.1802 67.3914 87.1901 67.3787C87.2017 67.3672 87.2088 67.3529 87.2198 67.3408C87.2325 67.3237 87.2495 67.3116 87.2616 67.2934C87.266 67.2874 87.2682 67.2813 87.2726 67.2753C87.3579 67.1696 87.4278 67.0541 87.4691 66.9187L87.5417 66.5666C87.5599 66.3135 87.5136 66.0736 87.403 65.8452C87.3277 65.7154 87.2468 65.5877 87.1527 65.4711" fill="#F6F6F9"/>
<path d="M71.2282 11.3309C70.9965 11.1779 70.7428 11.091 70.4661 11.0684C70.1805 11.0481 69.9087 11.1009 69.6507 11.2253C69.4674 11.3155 69.3178 11.4448 69.1841 11.5912C69.0982 11.683 69.0058 11.7689 68.9106 11.8503C68.8539 11.8987 68.7956 11.945 68.7384 11.9923C68.5133 12.1782 68.4275 12.3648 68.2723 12.5722C68.121 12.7824 68.0308 13.014 68 13.2655C67.9279 13.5109 67.9197 13.7618 67.9774 14.0171C68.0324 14.1833 68.0875 14.3494 68.1425 14.5156C68.2514 14.7616 68.4121 14.9624 68.6245 15.1181C68.7389 15.2468 68.8776 15.3398 69.0404 15.396C69.2578 15.5264 69.4955 15.5973 69.7541 15.6078C69.923 15.5984 70.0919 15.5891 70.2609 15.5797C70.613 15.5115 70.9244 15.3596 71.1951 15.1236C71.4625 14.8369 71.8059 14.4864 71.9077 14.0881C71.971 13.841 72.0353 13.5907 72.0414 13.3348C72.0469 13.096 72.0381 12.8512 71.9858 12.6168C71.9357 12.3912 71.856 12.1711 71.7751 11.956C71.6485 11.6985 71.4658 11.4905 71.2282 11.3309" fill="#E7BE36"/>
<path d="M10.7176 74.2989C10.3341 73.8642 9.68265 73.6072 9.10492 73.7443C9.0719 73.7525 9.03889 73.7597 9.00532 73.7679C8.83641 73.807 8.67134 73.8609 8.51067 73.9291C8.37587 74.0188 8.24106 74.1085 8.10625 74.1982C8.04463 74.2527 7.98906 74.3148 7.93184 74.3743C7.71615 74.596 7.4724 74.8144 7.30898 75.0752C7.22205 75.2128 7.13841 75.3493 7.06303 75.4934C7.02507 75.5649 6.98765 75.637 6.95024 75.7085C6.94088 75.7267 6.93153 75.7449 6.92162 75.7625C6.80112 75.9308 6.72905 76.1157 6.70429 76.3165C6.64651 76.5124 6.64046 76.7127 6.68613 76.9168C6.68668 76.9201 6.68943 76.9229 6.68998 76.9262C6.70209 77.0225 6.72575 77.1166 6.76482 77.2074C6.80883 77.3922 6.89741 77.5551 7.03112 77.696C7.27817 77.9529 7.60666 78.1482 7.972 78.1631C7.97916 78.1631 7.98685 78.1636 7.99456 78.1642C8.03197 78.1719 8.06884 78.1796 8.1057 78.1868C8.39017 78.2209 8.69059 78.1378 8.94259 78.0151C9.01302 77.981 9.0818 77.9447 9.15168 77.9089C9.29804 77.8352 9.43614 77.7526 9.5759 77.6668C9.77288 77.5463 9.96822 77.4307 10.1349 77.2728C10.1944 77.2162 10.2543 77.1595 10.3138 77.1034C10.3732 77.0461 10.4343 76.9906 10.492 76.9317C10.7248 76.6956 10.935 76.4591 11.0241 76.1289C11.0356 76.0871 11.0456 76.0453 11.056 76.0035C11.1539 75.7157 11.1754 75.423 11.1209 75.1237C11.0604 74.8128 10.9261 74.5377 10.7176 74.2989" fill="#F6F6F9"/>
<path d="M15.2388 74.8427C15.109 74.6975 14.9521 74.5924 14.7684 74.528C14.7249 74.5088 14.6765 74.4994 14.6308 74.4868C14.6176 74.4829 14.6044 74.479 14.5912 74.4752C14.441 74.4174 14.288 74.3998 14.1318 74.4218C14.0707 74.4163 14.0107 74.4207 13.9518 74.435C13.7339 74.4774 13.5419 74.5715 13.3741 74.7173C13.3345 74.7443 13.2943 74.7723 13.2547 74.7998C13.1804 74.8504 13.1177 74.917 13.061 74.9897C13.022 75.0172 12.9834 75.0441 12.9444 75.0722C12.825 75.1784 12.7397 75.3066 12.6869 75.4573C12.6357 75.6087 12.6242 75.7627 12.6528 75.9195C12.6847 76.0835 12.7551 76.2277 12.8646 76.3531C12.9708 76.4725 13.0995 76.5583 13.2503 76.6106C13.2993 76.6216 13.3482 76.6321 13.3972 76.6425C13.455 76.675 13.515 76.7047 13.5788 76.7262C13.6619 76.7553 13.7983 76.7718 13.9034 76.7933C13.9562 76.8043 14.0091 76.8158 14.0619 76.8252C14.1802 76.8467 14.3029 76.8312 14.4206 76.8081C14.666 76.7603 14.8393 76.6546 15.0308 76.5C15.0682 76.4703 15.109 76.4417 15.1414 76.407C15.2872 76.2777 15.3918 76.1204 15.4556 75.936C15.5183 75.7523 15.5326 75.5641 15.4974 75.3721C15.4589 75.1723 15.3725 74.9963 15.2388 74.8427" fill="#EFD580"/>
<path d="M72.4006 88.2528C72.3869 88.2259 72.3737 88.2 72.3605 88.1731C72.2488 87.92 72.0837 87.7136 71.8658 87.5541C71.7315 87.4148 71.5698 87.3158 71.3943 87.2377C71.386 87.23 71.3772 87.2223 71.3684 87.2151C71.2396 87.1507 71.1104 87.0875 70.9816 87.0236C70.8407 86.9945 70.6999 86.9653 70.559 86.9367C70.3307 86.9108 70.1139 86.9422 69.9076 87.0319C69.7552 87.0611 69.6209 87.1265 69.5042 87.2289C69.3678 87.296 69.2572 87.3928 69.1719 87.5188C69.0613 87.6179 68.9815 87.7373 68.9331 87.8776C68.9309 87.8809 68.9304 87.8842 68.9282 87.8875C68.9149 87.9056 68.899 87.9216 68.8863 87.9409C68.7312 88.1565 68.6382 88.3937 68.6068 88.6523C68.5326 88.9043 68.5249 89.1613 68.5837 89.4232C68.587 89.4452 68.5909 89.4672 68.5942 89.4892C68.6096 89.5849 68.6255 89.6807 68.6459 89.7753C68.7004 90.0257 68.7983 90.2755 68.8935 90.5148C68.9293 90.6061 68.9672 90.6964 69.0068 90.7855C69.0828 90.9572 69.1648 91.1272 69.2528 91.2939C69.3733 91.5228 69.5042 91.7539 69.682 91.9421C70.0704 92.3531 70.5739 92.7052 71.1643 92.7102C71.5197 92.7355 71.8581 92.6706 72.1789 92.5149C72.4991 92.3575 72.7583 92.1308 72.9569 91.8348C73.0411 91.678 73.1203 91.5184 73.194 91.3555C73.2287 91.1872 73.2639 91.0194 73.2986 90.851C73.3305 90.5808 73.2942 90.4389 73.2452 90.2259C73.1852 89.9706 73.1065 89.7258 72.9849 89.4963C72.8964 89.3302 72.8138 89.1613 72.7379 88.989C72.6647 88.8245 72.6086 88.6501 72.5266 88.4905C72.4859 88.4108 72.4413 88.3326 72.4006 88.2528" fill="#EFD580"/>
<path d="M91.704 26.2664C91.4679 26.021 91.1697 25.7872 90.8385 25.6887C90.6685 25.6535 90.4979 25.6183 90.3279 25.5836C90.0522 25.5517 89.7898 25.5902 89.5405 25.6986C89.2109 25.8081 89.0541 25.8587 88.7543 26.1267C88.7212 26.1564 88.6893 26.1866 88.6569 26.2163C88.5011 26.3605 88.3394 26.5008 88.1886 26.6494C87.9394 26.8959 87.7385 27.1814 87.5344 27.4637C87.4739 27.5468 87.4134 27.6304 87.3528 27.7141C87.152 27.9914 87.0315 28.3314 87.0001 28.6775C86.9512 28.8943 86.9341 29.1138 86.9748 29.3372C87.0326 29.6338 87.1608 29.8962 87.3589 30.1235C87.738 30.5532 88.2827 30.7172 88.8379 30.6544C89.1471 30.6539 89.4541 30.5884 89.7298 30.4305C89.8118 30.3843 89.8932 30.3381 89.9747 30.2913C90.2894 30.1119 90.6074 29.9364 90.8968 29.7169C91.058 29.5953 91.2055 29.4489 91.3579 29.3169C91.5527 29.1474 91.7315 28.9664 91.8724 28.7463C92.3456 28.0068 92.3367 26.9217 91.704 26.2664" fill="#F6F6F9"/>
<path d="M85.8192 27.1168C85.7339 26.9413 85.5722 26.7394 85.401 26.6359C85.3757 26.6211 85.1584 26.5132 85.1325 26.5044C85.1034 26.494 84.858 26.4439 84.8261 26.4401C84.7562 26.4318 84.6792 26.4461 84.6043 26.4549C84.4778 26.4577 84.354 26.4764 84.2362 26.5275C84.1179 26.5501 84.0128 26.6013 83.9221 26.6805C83.9171 26.6838 83.9122 26.6877 83.9072 26.691C83.9011 26.6937 83.8957 26.697 83.8896 26.6998C83.7889 26.7669 83.6882 26.8346 83.5875 26.9011C83.3911 27.059 83.4098 27.0767 83.341 27.195C83.3355 27.2043 83.3273 27.212 83.3218 27.2208C83.2612 27.2907 83.2007 27.36 83.1402 27.4294C83.0951 27.5207 83.05 27.6115 83.0048 27.7028C82.9845 27.8024 82.9641 27.902 82.9432 28.0016C82.925 28.1622 82.9476 28.3163 83.0109 28.4616C83.0318 28.5694 83.078 28.6641 83.1501 28.7466C83.1974 28.8434 83.2656 28.921 83.3548 28.9815C83.4247 29.0597 83.5088 29.1158 83.6079 29.1505C83.7405 29.2302 83.8857 29.2731 84.0431 29.2797C84.0998 29.288 84.1564 29.2924 84.2137 29.2908C84.3776 29.2864 84.5488 29.2858 84.7111 29.2539C84.7188 29.2528 84.7265 29.2511 84.7336 29.2495C84.8486 29.2121 84.9636 29.173 85.0786 29.135C85.2563 29.058 85.3125 29.0096 85.4044 28.9083C85.499 28.8038 85.5969 28.6993 85.6817 28.5865C85.6998 28.5617 85.7174 28.5364 85.7334 28.5094C85.7636 28.4561 85.7912 28.4005 85.8159 28.3438C85.904 28.198 85.9518 28.0379 85.959 27.8635L85.9397 27.5229C85.9375 27.5097 85.9298 27.4976 85.9265 27.4844C85.926 27.4668 85.9249 27.4486 85.9238 27.431C85.8913 27.3259 85.8566 27.2203 85.8192 27.1168" fill="#F6F6F9"/>
<path d="M52.328 6.11923C52.1547 5.7902 51.8818 5.52994 51.5087 5.40119C51.0878 5.25593 50.6636 5.32416 50.2933 5.53104C50.2482 5.54645 50.203 5.56076 50.1585 5.57617C49.9384 5.67301 49.759 5.8166 49.6204 6.00588C49.5549 6.0642 49.4993 6.13024 49.4536 6.20397C49.4179 6.25899 49.3849 6.31511 49.3524 6.37234C49.3232 6.42351 49.2946 6.47522 49.2677 6.52804C49.1846 6.69146 49.1037 6.85709 49.0239 7.0216C48.9705 7.13055 48.9683 7.20207 48.9392 7.34237C48.8946 7.55971 48.8765 7.7512 48.8814 7.97019C48.882 8.0054 48.8836 8.04006 48.8853 8.07528C48.8941 8.23979 48.9034 8.40431 48.9122 8.56882C48.9612 8.74325 49.0184 8.91492 49.0844 9.08329C49.1263 9.18728 49.1692 9.23294 49.2473 9.35014C49.3667 9.56803 49.534 9.74355 49.7508 9.87616C49.764 9.88661 49.7794 9.89266 49.7931 9.90256C49.8063 9.91412 49.8201 9.92623 49.8338 9.93779C49.8603 9.95099 49.8867 9.9642 49.9131 9.9774C49.9488 9.99721 49.9846 10.0154 50.022 10.0308L50.23 10.1342C50.4451 10.2167 50.6641 10.2426 50.8875 10.2107C51.0427 10.2222 51.1912 10.1936 51.3316 10.1254C51.4873 10.0951 51.6254 10.028 51.7448 9.92403C51.8279 9.88331 51.8988 9.82774 51.9632 9.76611C51.9825 9.75015 52.0017 9.73915 52.021 9.72264C52.279 9.49485 52.4369 9.21149 52.5618 8.89896C52.6416 8.69978 52.6741 8.48575 52.6901 8.27281C52.7 8.13801 52.7225 8.0065 52.739 7.87225C52.7297 7.70608 52.7203 7.53936 52.7115 7.37264C52.7099 7.35063 52.7066 7.32862 52.7016 7.30662C52.6967 7.2791 52.6911 7.25214 52.6862 7.22518C52.6763 7.16576 52.6675 7.10634 52.6598 7.04636C52.6515 6.98254 52.6466 6.91816 52.64 6.85378C52.6141 6.57372 52.4931 6.33162 52.328 6.11923" fill="#F6F6F9"/>
<path d="M48.8331 11.6815C48.7214 11.5698 48.597 11.4691 48.4782 11.3662C48.3131 11.2578 48.131 11.1962 47.9368 11.1725C47.9065 11.1577 47.8773 11.1401 47.8465 11.1247C47.6936 11.0729 47.5373 11.0608 47.3783 11.09C47.2121 11.1225 47.0657 11.1934 46.9381 11.3051C46.7499 11.4708 46.641 11.7139 46.6311 11.9626C46.6272 11.9742 46.6201 11.9841 46.6168 11.9957C46.5562 12.1723 46.5568 12.2235 46.5507 12.3506C46.5485 12.3918 46.5452 12.4331 46.5403 12.4744C46.5089 12.7407 46.5568 12.9432 46.6437 13.1808C46.6707 13.2799 46.6988 13.3795 46.7466 13.4675C46.7802 13.5209 46.8154 13.5737 46.8517 13.6254C46.9007 13.7256 46.9722 13.807 47.0624 13.8714C47.068 13.8785 47.074 13.8862 47.0795 13.8939C47.1576 14.015 47.2517 14.1239 47.375 14.2065C47.5307 14.3088 47.7007 14.3671 47.8867 14.382C48.2746 14.4111 48.6311 14.2235 48.8529 13.9104C48.8853 13.8642 48.9107 13.8141 48.9387 13.7652C49.0548 13.6315 49.1417 13.4664 49.1951 13.3063C49.2831 13.0416 49.2683 12.8777 49.243 12.6037C49.2375 12.542 49.2298 12.4793 49.2182 12.4188C49.1676 12.1442 49.0306 11.879 48.8331 11.6815" fill="#F6F6F9"/>
<path d="M49.5887 92.2687C49.57 92.2439 49.5513 92.2208 49.5293 92.1983C49.4115 92.0772 49.2542 91.9457 49.1216 91.8417C49.105 91.8285 49.0891 91.8164 49.072 91.8043C48.5174 91.4241 47.7686 91.3845 47.1677 91.6777C46.8574 91.8301 46.6059 92.0502 46.4128 92.3375C46.3149 92.4866 46.2422 92.645 46.1889 92.8095C46.1806 92.8448 46.1691 92.8783 46.1542 92.9108C46.1619 92.8943 46.1702 92.8783 46.1784 92.8613C46.1779 92.8624 46.1779 92.8635 46.1779 92.8646C46.1492 92.9273 46.1261 92.9845 46.1107 93.0351C46.1135 93.0197 46.1168 93.0054 46.1201 92.9906C46.0722 93.198 45.9611 93.3889 45.9066 93.5958C45.7927 94.0305 45.7272 94.4767 45.8378 94.9235C45.8417 94.9389 45.8461 94.9532 45.851 94.9675C45.9105 95.1474 45.9704 95.3268 46.0299 95.5062C46.0381 95.5266 46.0464 95.5469 46.0557 95.5667C46.152 95.7378 46.2599 95.9013 46.3804 96.057C46.5597 96.2749 46.7776 96.4344 47.0346 96.5357C47.302 96.6677 47.4929 96.7789 47.8296 96.7679C48.2027 96.7943 48.5576 96.726 48.8949 96.5626C49.2311 96.3976 49.5034 96.1588 49.712 95.8484C49.9612 95.3741 49.9293 95.4803 50.0113 95.082C50.079 94.8547 50.0833 94.6225 50.0476 94.3876C50.0487 94.3722 50.0487 94.3568 50.0498 94.3419C50.0564 94.2247 50.0729 94.1086 50.0861 93.992C50.0916 93.9436 50.0993 93.8946 50.101 93.8456C50.1076 93.6541 50.1054 93.4561 50.0707 93.2695C49.992 92.8409 49.8445 92.6109 49.5887 92.2687" fill="#F6F6F9"/>
<path d="M50.5833 89.1784C50.6058 89.0689 50.6289 88.9588 50.6515 88.8493C50.6256 88.966 50.6025 89.0727 50.5833 89.1784Z" fill="#F6F6F9"/>
<path d="M95.7764 50.9455C95.5508 50.6918 95.2779 50.5097 94.9576 50.398C94.6891 50.2841 94.3937 50.2593 94.1048 50.2802C94.0481 50.2769 93.9914 50.278 93.9359 50.2676C93.9111 50.2643 93.888 50.2571 93.8627 50.2549C93.7351 50.2445 93.6063 50.2527 93.4786 50.2665C93.3994 50.2577 93.3202 50.2615 93.2409 50.278C93.0973 50.2676 92.9614 50.2956 92.8305 50.3507C92.7562 50.3661 92.6819 50.3826 92.6104 50.4134C92.4123 50.4607 92.2379 50.5559 92.086 50.699L91.8313 50.9917C91.6877 51.2096 91.6057 51.4489 91.5848 51.7086C91.5837 51.7339 91.5881 51.7598 91.5881 51.7856C91.5793 51.8264 91.571 51.8671 91.5628 51.9083C91.5352 52.1488 91.5688 52.3782 91.6635 52.5961C91.6717 52.682 91.6981 52.759 91.7421 52.8283C91.7741 52.8938 91.9479 53.1375 91.888 53.0473C91.9375 53.1221 91.9881 53.2003 92.0398 53.2751C92.0657 53.312 92.0932 53.3483 92.1234 53.3818C92.1531 53.4171 92.1851 53.449 92.2186 53.4803C92.2852 53.5425 92.3628 53.6063 92.4261 53.6614C92.645 53.8528 92.7617 53.9552 93.0808 54.0559C93.105 54.0636 93.1309 54.0696 93.1557 54.0751C93.3592 54.1219 93.5661 54.1725 93.7741 54.1995C93.8247 54.2061 93.8765 54.2099 93.9282 54.2105C93.954 54.2105 93.9799 54.2099 94.0052 54.2088C94.1912 54.2011 94.3799 54.1945 94.5659 54.1775C94.5802 54.1764 94.5945 54.1747 94.6088 54.1731C94.7755 54.1175 94.9428 54.0619 95.1095 54.0063C95.115 54.0047 95.12 54.0025 95.1255 54.0008C95.2713 53.904 95.4176 53.8061 95.564 53.7087C95.5695 53.7037 95.575 53.6988 95.5805 53.6944C95.5898 53.6856 95.5987 53.6773 95.6075 53.6685C95.8606 53.4429 96.0427 53.1695 96.1544 52.8492C96.2639 52.5284 96.2875 52.2005 96.2265 51.8665C96.1593 51.5193 96.0091 51.2118 95.7764 50.9455" fill="#F6F6F9"/>
</svg>
