<svg width="38" height="72" viewBox="0 0 38 72" fill="none" xmlns="http://www.w3.org/2000/svg">
<path d="M23.1386 35.8979C23.8104 35.2266 24.3392 34.4514 24.7706 33.6183C25.9189 31.9033 26.3381 29.5857 26.6875 27.6104C26.9808 26.2805 27.2207 24.9259 27.377 23.563C27.6603 21.7285 27.8821 19.8826 27.936 18.0404C28.1148 11.9571 26.21 5.88928 22.7248 0.913614C22.2054 0.172464 21.061 -0.346398 20.2241 0.279756C16.1667 3.31424 13.3045 7.62799 11.1047 12.1387C9.03472 16.3837 7.62176 21.0958 8.13897 25.8613C8.66993 30.7577 11.3061 35.9403 16.1755 37.7472C18.6488 38.6655 21.3344 37.6993 23.1386 35.8979" fill="#EFD580"/>
<path d="M29.0814 35.3812C25.1722 32.408 20.2524 30.9193 15.3842 31.4721C10.709 32.0026 6.33076 34.602 3.46411 38.3433C1.52621 40.8719 0.644401 43.863 0.457604 46.9444C0.156537 48.2541 0.000523854 49.6013 2.07469e-06 50.92C-0.00260682 56.5828 2.4555 61.9104 6.133 66.0988C13.9357 74.9876 26.521 71.6381 33.3923 63.2724C36.7996 59.1242 38.9091 53.483 37.6151 48.0952C36.3952 43.0168 33.1805 38.499 29.0814 35.3812" fill="#553E2D"/>
<path d="M22.328 6.11923C22.1547 5.7902 21.8818 5.52994 21.5087 5.40119C21.0878 5.25593 20.6636 5.32416 20.2933 5.53104C20.2482 5.54645 20.203 5.56076 20.1585 5.57617C19.9384 5.67301 19.759 5.8166 19.6204 6.00588C19.5549 6.0642 19.4993 6.13024 19.4536 6.20397C19.4179 6.25899 19.3849 6.31511 19.3524 6.37234C19.3232 6.42351 19.2946 6.47522 19.2677 6.52804C19.1846 6.69146 19.1037 6.85709 19.0239 7.0216C18.9705 7.13055 18.9683 7.20207 18.9392 7.34237C18.8946 7.55971 18.8765 7.7512 18.8814 7.97019C18.882 8.0054 18.8836 8.04006 18.8853 8.07528C18.8941 8.23979 18.9034 8.40431 18.9122 8.56882C18.9612 8.74325 19.0184 8.91492 19.0844 9.08329C19.1263 9.18728 19.1692 9.23294 19.2473 9.35014C19.3667 9.56803 19.534 9.74355 19.7508 9.87616C19.764 9.88661 19.7794 9.89266 19.7931 9.90256C19.8063 9.91412 19.8201 9.92623 19.8338 9.93779C19.8603 9.95099 19.8867 9.9642 19.9131 9.9774C19.9488 9.99721 19.9846 10.0154 20.022 10.0308L20.23 10.1342C20.4451 10.2167 20.6641 10.2426 20.8875 10.2107C21.0427 10.2222 21.1912 10.1936 21.3316 10.1254C21.4873 10.0951 21.6254 10.028 21.7448 9.92403C21.8279 9.88331 21.8988 9.82774 21.9632 9.76611C21.9825 9.75015 22.0017 9.73915 22.021 9.72264C22.279 9.49485 22.4369 9.21149 22.5618 8.89896C22.6416 8.69978 22.6741 8.48575 22.6901 8.27281C22.7 8.13801 22.7225 8.0065 22.739 7.87225C22.7297 7.70608 22.7203 7.53936 22.7115 7.37264C22.7099 7.35063 22.7066 7.32862 22.7016 7.30662C22.6967 7.2791 22.6911 7.25214 22.6862 7.22518C22.6763 7.16576 22.6675 7.10634 22.6598 7.04636C22.6515 6.98254 22.6466 6.91816 22.64 6.85378C22.6141 6.57372 22.4931 6.33162 22.328 6.11923" fill="#F6F6F9"/>
<path d="M18.8331 11.6815C18.7214 11.5698 18.597 11.4691 18.4782 11.3662C18.3131 11.2578 18.131 11.1962 17.9368 11.1725C17.9065 11.1577 17.8773 11.1401 17.8465 11.1247C17.6936 11.0729 17.5373 11.0608 17.3783 11.09C17.2121 11.1225 17.0657 11.1934 16.9381 11.3051C16.7499 11.4708 16.641 11.7139 16.6311 11.9626C16.6272 11.9742 16.6201 11.9841 16.6168 11.9957C16.5562 12.1723 16.5568 12.2235 16.5507 12.3506C16.5485 12.3918 16.5452 12.4331 16.5403 12.4744C16.5089 12.7407 16.5568 12.9432 16.6437 13.1808C16.6707 13.2799 16.6988 13.3795 16.7466 13.4675C16.7802 13.5209 16.8154 13.5737 16.8517 13.6254C16.9007 13.7256 16.9722 13.807 17.0624 13.8714C17.068 13.8785 17.074 13.8862 17.0795 13.8939C17.1576 14.015 17.2517 14.1239 17.375 14.2065C17.5307 14.3088 17.7007 14.3671 17.8867 14.382C18.2746 14.4111 18.6311 14.2235 18.8529 13.9104C18.8853 13.8642 18.9107 13.8141 18.9387 13.7652C19.0548 13.6315 19.1417 13.4664 19.1951 13.3063C19.2831 13.0416 19.2683 12.8777 19.243 12.6037C19.2375 12.542 19.2298 12.4793 19.2182 12.4188C19.1676 12.1442 19.0306 11.879 18.8331 11.6815" fill="#F6F6F9"/>
</svg>
