<svg width="73" height="90" viewBox="0 0 73 90" fill="none" xmlns="http://www.w3.org/2000/svg">
<path d="M36.6042 53.6588C37.2172 54.3845 37.9468 54.9749 38.7407 55.474C40.3551 56.7599 42.6292 57.3701 44.5693 57.8812C45.8705 58.2834 47.2004 58.6345 48.5463 58.903C50.351 59.3377 52.1717 59.7113 54.0034 59.9176C60.0509 60.5982 66.2558 59.2023 71.5027 56.1409C72.284 55.6847 72.8958 54.587 72.3412 53.7012C69.6528 49.4072 65.5905 46.1978 61.2773 43.6321C57.2183 41.2183 52.6394 39.4201 47.8469 39.5412C42.9235 39.665 37.5407 41.8637 35.3371 46.567C34.2174 48.9555 34.958 51.7121 36.6042 53.6588" fill="#E7BE36"/>
<path d="M64.235 32.1915C65.7228 29.6528 66.8403 26.8928 67.587 24.0487C67.9116 22.8118 66.9399 21.8324 65.7751 21.7395C60.0781 21.285 54.3541 22.0487 48.9972 24.0746C43.6831 26.0835 38.4142 29.1829 34.5725 33.4273C32.6077 35.5979 30.9531 38.2968 30.7298 41.2768C30.6087 42.8862 31.1738 44.6029 32.4316 45.6588C33.6734 46.7014 35.2834 47.1179 36.8642 47.2764C37.2774 47.3177 37.6906 47.3265 38.1033 47.3221C48.6687 48.0121 59.0272 41.077 64.235 32.1915" fill="#EFD580"/>
<path d="M40.6495 29.2957C41.1893 28.2971 41.6625 27.267 42.0669 26.2117C43.711 22.5175 45.0805 18.6863 45.5531 14.6521C45.8552 12.0743 45.7292 9.48109 45.1146 6.95556C44.8444 5.84576 43.6158 5.53709 42.6969 5.98277C36.8546 8.81532 31.4355 12.6075 26.8213 17.182C23.3995 20.5741 20.1906 24.8945 19.5441 29.7992C19.2161 32.2911 19.4489 34.875 20.7216 37.0907C22.0834 39.4606 24.5032 40.9863 27.2808 40.5483C28.6662 40.3299 30.0253 39.7549 31.3051 39.016C31.4779 39.0776 31.6715 39.093 31.8762 39.0407C36.5069 37.8627 38.7562 33.3806 40.6495 29.2957" fill="#E7BE36"/>
<path d="M23.1386 35.8979C23.8104 35.2266 24.3392 34.4513 24.7706 33.6183C25.9189 31.9032 26.3381 29.5857 26.6875 27.6104C26.9808 26.2805 27.2207 24.9259 27.377 23.563C27.6603 21.7285 27.8821 19.8825 27.936 18.0404C28.1148 11.9571 26.21 5.88925 22.7248 0.913584C22.2054 0.172433 21.061 -0.346428 20.2241 0.279726C16.1667 3.31421 13.3045 7.62796 11.1047 12.1387C9.03472 16.3837 7.62176 21.0958 8.13897 25.8612C8.66993 30.7577 11.3061 35.9402 16.1755 37.7472C18.6488 38.6655 21.3344 37.6993 23.1386 35.8979" fill="#EFD580"/>
<path d="M29.0814 35.3812C25.1722 32.408 20.2524 30.9193 15.3842 31.4721C10.709 32.0026 6.33076 34.602 3.46411 38.3433C1.52621 40.8719 0.644401 43.863 0.457604 46.9444C0.156537 48.2541 0.000523854 49.6013 2.07469e-06 50.92C-0.00260682 56.5828 2.4555 61.9104 6.133 66.0988C13.9357 74.9876 26.521 71.6381 33.3923 63.2724C36.7996 59.1242 38.9091 53.483 37.6151 48.0952C36.3952 43.0168 33.1805 38.499 29.0814 35.3812" fill="#553E2D"/>
<path d="M57.8794 70.9119C57.6538 70.6582 57.3803 70.4761 57.0596 70.3644C56.9787 70.3473 56.8984 70.3308 56.8175 70.3143C56.7168 70.2142 56.6095 70.1217 56.484 70.0546C56.2904 69.9512 56.0934 69.8521 55.8903 69.7679C55.7429 69.7377 55.5954 69.7069 55.4485 69.6766C55.2961 69.6849 55.1442 69.6937 54.9918 69.7014C54.8422 69.7514 54.6925 69.801 54.5428 69.851C54.32 69.9495 54.139 70.0942 53.9987 70.2857C53.8826 70.3886 53.7995 70.5135 53.7483 70.6604C53.6636 70.7886 53.6152 70.93 53.603 71.0835C53.553 71.2304 53.542 71.3796 53.5701 71.5325C53.5629 71.7697 53.6168 71.9958 53.7318 72.2098C53.7335 72.2137 53.7346 72.2175 53.7357 72.2214C53.7742 72.3413 53.8182 72.4585 53.8793 72.5675C54.0322 72.7991 54.1764 73.0385 54.3458 73.258C54.3833 73.307 54.4229 73.3543 54.4669 73.3972C54.5324 73.461 54.6072 73.5216 54.6738 73.5788C54.7261 73.625 54.8102 73.7053 54.8812 73.7593C54.8977 73.7719 54.9154 73.7818 54.933 73.7917C55.0854 73.8781 55.2851 73.997 55.4755 74.0454C55.6224 74.0828 55.8221 74.1241 55.9712 74.1477C55.9811 74.1488 55.9899 74.1505 55.9993 74.1516C56.0218 74.1543 56.0444 74.156 56.0675 74.156C56.2683 74.1549 56.4741 74.1538 56.6733 74.118C56.6937 74.1147 56.7146 74.1098 56.7344 74.1043C56.9165 74.0536 57.1014 73.9876 57.2791 73.9238C57.5223 73.8159 57.7209 73.6575 57.8744 73.4484C58.0555 73.2734 58.1831 73.0627 58.2574 72.8173C58.3498 72.5774 58.3785 72.3331 58.3432 72.0838C58.3515 71.8241 58.292 71.5771 58.1666 71.3427C58.0709 71.1991 57.9757 71.0555 57.8794 70.9119" fill="#F6F6F9"/>
<path d="M57.1527 65.4711C57.1362 65.4507 57.118 65.4315 57.0982 65.4139C56.9821 65.273 56.8407 65.169 56.674 65.1035C56.5216 65.0122 56.3554 64.9627 56.1744 64.955L55.8206 64.9748C55.6319 65.0029 55.4652 65.0755 55.3193 65.1921C55.2087 65.2466 55.1191 65.3247 55.0503 65.4276C54.9221 65.5509 54.8313 65.7005 54.779 65.8744C54.7554 65.9889 54.7317 66.1028 54.7081 66.2172C54.6987 66.3487 54.7102 66.4758 54.7361 66.6007C54.7389 66.6095 54.7394 66.6194 54.7416 66.6282C54.7422 66.6343 54.7438 66.6403 54.7449 66.6458C54.7493 66.6695 54.7565 66.692 54.7576 66.7163C54.757 66.7058 54.7565 66.6959 54.7559 66.6849C54.7702 66.7575 54.7867 66.8301 54.817 66.8995C54.8616 67.086 54.9512 67.25 55.0855 67.3919C55.1774 67.4723 55.2687 67.552 55.3606 67.6318C55.3782 67.6434 55.3986 67.6483 55.4162 67.6593C55.5108 67.7232 55.6137 67.7743 55.7249 67.8128C55.8899 67.8767 56.0577 67.8959 56.2288 67.8723C56.4077 67.8772 56.5777 67.8371 56.7389 67.7507C56.8308 67.7055 56.9111 67.6472 56.9882 67.5856C56.9915 67.5828 56.9959 67.5806 56.9992 67.5779C57.0575 67.5295 57.107 67.4717 57.1565 67.4134C57.167 67.4007 57.1802 67.3914 57.1901 67.3787C57.2017 67.3672 57.2088 67.3529 57.2198 67.3408C57.2325 67.3237 57.2495 67.3116 57.2616 67.2934C57.266 67.2874 57.2682 67.2813 57.2726 67.2753C57.3579 67.1696 57.4278 67.0541 57.4691 66.9187L57.5417 66.5666C57.5599 66.3135 57.5136 66.0736 57.403 65.8452C57.3277 65.7154 57.2468 65.5877 57.1527 65.4711" fill="#F6F6F9"/>
<path d="M41.2282 11.3309C40.9965 11.1779 40.7428 11.091 40.4661 11.0684C40.1805 11.0481 39.9087 11.1009 39.6507 11.2253C39.4674 11.3155 39.3178 11.4448 39.1841 11.5912C39.0982 11.683 39.0058 11.7689 38.9106 11.8503C38.8539 11.8987 38.7956 11.945 38.7384 11.9923C38.5133 12.1782 38.4275 12.3648 38.2723 12.5722C38.121 12.7824 38.0308 13.014 38 13.2655C37.9279 13.5109 37.9197 13.7618 37.9774 14.0171C38.0324 14.1833 38.0875 14.3494 38.1425 14.5156C38.2514 14.7616 38.4121 14.9624 38.6245 15.1181C38.7389 15.2468 38.8776 15.3398 39.0404 15.396C39.2578 15.5264 39.4955 15.5973 39.7541 15.6078C39.923 15.5984 40.0919 15.5891 40.2609 15.5797C40.613 15.5115 40.9244 15.3596 41.1951 15.1236C41.4625 14.8369 41.8059 14.4864 41.9077 14.0881C41.971 13.841 42.0353 13.5907 42.0414 13.3348C42.0469 13.096 42.0381 12.8512 41.9858 12.6168C41.9357 12.3912 41.856 12.1711 41.7751 11.956C41.6485 11.6985 41.4658 11.4905 41.2282 11.3309" fill="#E7BE36"/>
<path d="M61.704 26.2664C61.4679 26.021 61.1697 25.7872 60.8385 25.6887C60.6685 25.6535 60.4979 25.6183 60.3279 25.5836C60.0522 25.5517 59.7898 25.5902 59.5405 25.6986C59.2109 25.8081 59.0541 25.8587 58.7543 26.1267C58.7212 26.1564 58.6893 26.1866 58.6569 26.2163C58.5011 26.3605 58.3394 26.5008 58.1886 26.6494C57.9394 26.8959 57.7385 27.1814 57.5344 27.4637C57.4739 27.5468 57.4134 27.6304 57.3528 27.7141C57.152 27.9914 57.0315 28.3314 57.0001 28.6775C56.9512 28.8943 56.9341 29.1138 56.9748 29.3372C57.0326 29.6338 57.1608 29.8962 57.3589 30.1235C57.738 30.5532 58.2827 30.7172 58.8379 30.6544C59.1471 30.6539 59.4541 30.5884 59.7298 30.4305C59.8118 30.3843 59.8932 30.3381 59.9747 30.2913C60.2894 30.1119 60.6074 29.9364 60.8968 29.7169C61.058 29.5953 61.2055 29.4489 61.3579 29.3169C61.5527 29.1474 61.7315 28.9664 61.8724 28.7463C62.3456 28.0068 62.3367 26.9217 61.704 26.2664" fill="#F6F6F9"/>
<path d="M55.8192 27.1168C55.7339 26.9413 55.5722 26.7394 55.401 26.6359C55.3757 26.6211 55.1584 26.5132 55.1325 26.5044C55.1034 26.494 54.858 26.4439 54.8261 26.4401C54.7562 26.4318 54.6792 26.4461 54.6043 26.4549C54.4778 26.4577 54.354 26.4764 54.2362 26.5275C54.1179 26.5501 54.0128 26.6013 53.9221 26.6805C53.9171 26.6838 53.9122 26.6877 53.9072 26.691C53.9011 26.6937 53.8957 26.697 53.8896 26.6998C53.7889 26.7669 53.6882 26.8346 53.5875 26.9011C53.3911 27.059 53.4098 27.0767 53.341 27.195C53.3355 27.2043 53.3273 27.212 53.3218 27.2208C53.2612 27.2907 53.2007 27.36 53.1402 27.4294C53.0951 27.5207 53.05 27.6115 53.0048 27.7028C52.9845 27.8024 52.9641 27.902 52.9432 28.0016C52.925 28.1622 52.9476 28.3163 53.0109 28.4616C53.0318 28.5694 53.078 28.6641 53.1501 28.7466C53.1974 28.8434 53.2656 28.921 53.3548 28.9815C53.4247 29.0597 53.5088 29.1158 53.6079 29.1505C53.7405 29.2302 53.8857 29.2731 54.0431 29.2797C54.0998 29.288 54.1564 29.2924 54.2137 29.2908C54.3776 29.2864 54.5488 29.2858 54.7111 29.2539C54.7188 29.2528 54.7265 29.2511 54.7336 29.2495C54.8486 29.2121 54.9636 29.173 55.0786 29.135C55.2563 29.058 55.3125 29.0096 55.4044 28.9083C55.499 28.8038 55.5969 28.6993 55.6817 28.5865C55.6998 28.5617 55.7174 28.5364 55.7334 28.5094C55.7636 28.4561 55.7912 28.4005 55.8159 28.3438C55.904 28.198 55.9518 28.0379 55.959 27.8635L55.9397 27.5229C55.9375 27.5097 55.9298 27.4976 55.9265 27.4844C55.926 27.4668 55.9249 27.4486 55.9238 27.431C55.8913 27.3259 55.8566 27.2203 55.8192 27.1168" fill="#F6F6F9"/>
<path d="M22.328 6.11923C22.1547 5.7902 21.8818 5.52994 21.5087 5.40119C21.0878 5.25593 20.6636 5.32416 20.2933 5.53104C20.2482 5.54645 20.203 5.56076 20.1585 5.57617C19.9384 5.67301 19.759 5.8166 19.6204 6.00588C19.5549 6.0642 19.4993 6.13024 19.4536 6.20397C19.4179 6.25899 19.3849 6.31511 19.3524 6.37234C19.3232 6.42351 19.2946 6.47522 19.2677 6.52804C19.1846 6.69146 19.1037 6.85709 19.0239 7.0216C18.9705 7.13055 18.9683 7.20207 18.9392 7.34237C18.8946 7.55971 18.8765 7.7512 18.8814 7.97019C18.882 8.0054 18.8836 8.04006 18.8853 8.07528C18.8941 8.23979 18.9034 8.40431 18.9122 8.56882C18.9612 8.74325 19.0184 8.91492 19.0844 9.08329C19.1263 9.18728 19.1692 9.23294 19.2473 9.35014C19.3667 9.56803 19.534 9.74355 19.7508 9.87616C19.764 9.88661 19.7794 9.89266 19.7931 9.90256C19.8063 9.91412 19.8201 9.92623 19.8338 9.93779C19.8603 9.95099 19.8867 9.9642 19.9131 9.9774C19.9488 9.99721 19.9846 10.0154 20.022 10.0308L20.23 10.1342C20.4451 10.2167 20.6641 10.2426 20.8875 10.2107C21.0427 10.2222 21.1912 10.1936 21.3316 10.1254C21.4873 10.0951 21.6254 10.028 21.7448 9.92403C21.8279 9.88331 21.8988 9.82774 21.9632 9.76611C21.9825 9.75015 22.0017 9.73915 22.021 9.72264C22.279 9.49485 22.4369 9.21149 22.5618 8.89896C22.6416 8.69978 22.6741 8.48575 22.6901 8.27281C22.7 8.13801 22.7225 8.0065 22.739 7.87225C22.7297 7.70608 22.7203 7.53936 22.7115 7.37264C22.7099 7.35063 22.7066 7.32862 22.7016 7.30662C22.6967 7.2791 22.6911 7.25214 22.6862 7.22518C22.6763 7.16576 22.6675 7.10634 22.6598 7.04636C22.6515 6.98254 22.6466 6.91816 22.64 6.85378C22.6141 6.57372 22.4931 6.33162 22.328 6.11923" fill="#F6F6F9"/>
<path d="M18.8331 11.6815C18.7214 11.5698 18.597 11.4691 18.4782 11.3662C18.3131 11.2578 18.131 11.1962 17.9368 11.1725C17.9065 11.1576 17.8773 11.14 17.8465 11.1246C17.6936 11.0729 17.5373 11.0608 17.3783 11.09C17.2121 11.1224 17.0657 11.1934 16.9381 11.3051C16.7499 11.4707 16.641 11.7139 16.6311 11.9626C16.6272 11.9742 16.6201 11.9841 16.6168 11.9956C16.5562 12.1723 16.5568 12.2234 16.5507 12.3505C16.5485 12.3918 16.5452 12.4331 16.5403 12.4743C16.5089 12.7406 16.5568 12.9431 16.6437 13.1808C16.6707 13.2799 16.6988 13.3794 16.7466 13.4675C16.7802 13.5209 16.8154 13.5737 16.8517 13.6254C16.9007 13.7255 16.9722 13.807 17.0624 13.8714C17.068 13.8785 17.074 13.8862 17.0795 13.8939C17.1576 14.015 17.2517 14.1239 17.375 14.2064C17.5307 14.3088 17.7007 14.3671 17.8867 14.3819C18.2746 14.4111 18.6311 14.2235 18.8529 13.9104C18.8853 13.8642 18.9107 13.8141 18.9387 13.7651C19.0548 13.6314 19.1417 13.4664 19.1951 13.3063C19.2831 13.0416 19.2683 12.8776 19.243 12.6036C19.2375 12.542 19.2298 12.4793 19.2182 12.4188C19.1676 12.1442 19.0306 11.879 18.8331 11.6815" fill="#F6F6F9"/>
<path d="M20.5833 89.1784C20.6058 89.0689 20.6289 88.9588 20.6515 88.8493C20.6256 88.966 20.6025 89.0727 20.5833 89.1784Z" fill="#F6F6F9"/>
<path d="M65.7764 50.9454C65.5508 50.6918 65.2779 50.5096 64.9576 50.398C64.6891 50.2841 64.3937 50.2593 64.1048 50.2802C64.0481 50.2769 63.9914 50.278 63.9359 50.2676C63.9111 50.2643 63.888 50.2571 63.8627 50.2549C63.7351 50.2444 63.6063 50.2527 63.4786 50.2665C63.3994 50.2577 63.3202 50.2615 63.2409 50.278C63.0973 50.2676 62.9614 50.2956 62.8305 50.3506C62.7562 50.366 62.6819 50.3825 62.6104 50.4134C62.4123 50.4607 62.2379 50.5559 62.086 50.6989L61.8313 50.9916C61.6877 51.2095 61.6057 51.4489 61.5848 51.7086C61.5837 51.7339 61.5881 51.7598 61.5881 51.7856C61.5793 51.8263 61.571 51.8671 61.5628 51.9083C61.5352 52.1488 61.5688 52.3782 61.6635 52.5961C61.6717 52.6819 61.6981 52.759 61.7421 52.8283C61.7741 52.8938 61.9479 53.1375 61.888 53.0473C61.9375 53.1221 61.9881 53.2002 62.0398 53.2751C62.0657 53.3119 62.0932 53.3483 62.1234 53.3818C62.1531 53.417 62.1851 53.4489 62.2186 53.4803C62.2852 53.5425 62.3628 53.6063 62.4261 53.6613C62.645 53.8528 62.7617 53.9551 63.0808 54.0558C63.105 54.0635 63.1309 54.0696 63.1557 54.0751C63.3592 54.1219 63.5661 54.1725 63.7741 54.1994C63.8247 54.2061 63.8765 54.2099 63.9282 54.2104C63.954 54.2104 63.9799 54.2099 64.0052 54.2088C64.1912 54.2011 64.3799 54.1945 64.5659 54.1774C64.5802 54.1763 64.5945 54.1747 64.6088 54.173C64.7755 54.1175 64.9428 54.0619 65.1095 54.0063C65.115 54.0047 65.12 54.0025 65.1255 54.0008C65.2713 53.904 65.4176 53.806 65.564 53.7086C65.5695 53.7037 65.575 53.6987 65.5805 53.6943C65.5898 53.6855 65.5987 53.6773 65.6075 53.6685C65.8606 53.4429 66.0427 53.1694 66.1544 52.8492C66.2639 52.5284 66.2875 52.2005 66.2265 51.8665C66.1593 51.5193 66.0091 51.2117 65.7764 50.9454" fill="#F6F6F9"/>
</svg>
