<svg width="24" height="24" viewBox="0 0 24 24" fill="currentColor" xmlns="http://www.w3.org/2000/svg">
<path d="M9 2C6.38 2 4.25 4.13 4.25 6.75C4.25 9.32 6.26 11.4 8.88 11.49C8.96 11.48 9.04 11.48 9.1 11.49C9.12 11.49 9.13 11.49 9.15 11.49C9.16 11.49 9.16 11.49 9.17 11.49C11.73 11.4 13.74 9.32 13.75 6.75C13.75 4.13 11.62 2 9 2Z" fill="currentColor"/>
<path d="M14.08 14.15C11.29 12.29 6.73996 12.29 3.92996 14.15C2.65996 15 1.95996 16.15 1.95996 17.38C1.95996 18.61 2.65996 19.75 3.91996 20.59C5.31996 21.53 7.15996 22 8.99996 22C10.84 22 12.68 21.53 14.08 20.59C15.34 19.74 16.04 18.6 16.04 17.36C16.03 16.13 15.34 14.99 14.08 14.15Z" fill="currentColor"/>
<path d="M19.9904 7.34001C20.1504 9.28001 18.7704 10.98 16.8604 11.21C16.8504 11.21 16.8504 11.21 16.8404 11.21H16.8104C16.7504 11.21 16.6904 11.21 16.6404 11.23C15.6704 11.28 14.7804 10.97 14.1104 10.4C15.1404 9.48001 15.7304 8.10001 15.6104 6.60001C15.5404 5.79001 15.2604 5.05001 14.8404 4.42001C15.2204 4.23001 15.6604 4.11001 16.1104 4.07001C18.0704 3.90001 19.8204 5.36001 19.9904 7.34001Z" fill="currentColor"/>
<path d="M21.9902 16.5904C21.9102 17.5604 21.2902 18.4004 20.2502 18.9704C19.2502 19.5204 17.9902 19.7804 16.7402 19.7504C17.4602 19.1004 17.8802 18.2904 17.9602 17.4304C18.0602 16.1904 17.4702 15.0004 16.2902 14.0504C15.6202 13.5204 14.8402 13.1004 13.9902 12.7904C16.2002 12.1504 18.9802 12.5804 20.6902 13.9604C21.6102 14.7004 22.0802 15.6304 21.9902 16.5904Z" fill="currentColor"/>
</svg>
