<svg xmlns="http://www.w3.org/2000/svg" viewBox="0 0 500 500"><defs><clipPath id="clip-path"><circle id="SVGID" class="cls-1" cx="250" cy="-270" r="204"/></clipPath><clipPath id="clip-path-2"><circle id="SVGID-2" data-name="SVGID" class="cls-1" cx="250" cy="250" r="204"/></clipPath><clipPath id="clip-path-3"><circle id="SVGID-3" data-name="SVGID" class="cls-1" cx="770" cy="250" r="204"/></clipPath><style>.cls-1,.cls-15,.cls-16,.cls-8{fill:none}.cls-5{fill:#fcbf22}.cls-8{stroke:#010101}.cls-15,.cls-16,.cls-8{stroke-linecap:round;stroke-linejoin:round}.cls-16,.cls-8{stroke-width:1.36px}.cls-15{stroke:#969575;stroke-width:3.4px}.cls-16{stroke:#eaa08c}</style></defs><g style="isolation:isolate"><g id="Layer_1" data-name="Layer 1"><g style="clip-path:url(#clip-path)"><path d="M291.26 212.09s-31.14 76.63-41 118.84h261.87s-7.37-54.91-20.89-88.1-30.33-73.36-30.33-73.36Z" style="fill:#2b7e8e"/><path class="cls-5" d="M70.11 68.87s2.53 57.17 9.91 83 27 56.55 51 64.54 46.72 8.61 68.85-4.91-61.46-151.23-61.46-151.23Z"/><path d="M164.75 38.56S147.43-29.95 141-46.72s-11.48-36.95-14.21-47.2c-3.18-12-35-41.9-41-49.86s-11.34-13.48-16.79-9.1-3.11 17 1 25.4 26.22 31.14 21 35c-1.89 1.39-14.89-5.81-25.63-19S36.34-145.69 29.7-152s-12.34-4.84-15.18.31S21-133.29 25.19-127s15.15 17.59 13.39 18.47-12.44-10.64-18.94-18.06S1-149.28-5.47-143.76s-2.31 14 2.81 21.56S22-94.62 20.72-93.4s-12.81-7.66-17.89-13.25-17.28-18.13-21.18-17.79-7.35 3.76-5.28 9.25 11.55 17.69 15.14 22S10.39-74.6 9.17-73.65.39-78.32-6.18-83s-18.88-14.2-23.62-9.28 1.09 13.53 10.34 23c9.76 10 26.26 24.46 34.7 33 9 9.11 24.5 22.05 32.6 30a59.64 59.64 0 0 1 15.72 28.35c2.65 11.89 6.55 46.8 6.55 46.8s25.38 6.19 52.28-2 42.36-28.31 42.36-28.31Z" style="fill:#ef9b5f"/><path d="M330.19-165.32c-32.19 6.43-45.49 29.1-59.19 49.86C257.26-94.5 242.91-51 235.53-22.3S207.66 82.6 207.66 82.6l-26.22-71.3-90.15 41.8s18.24 63.4 41 108.18c27.05 53.27 71.31 60.65 102.45 53.27s46.72-28.68 46.72-28.68l9.83 26.22s49.17 7.38 97.53-4.1 72.12-38.52 72.12-38.52S435.5 63.75 429 23.59 411.74-69 398.62-97.7s-43.84-72.54-68.43-67.62Z" style="fill:#fdcd61"/><path class="cls-8" d="M376.5-43.61c-8.2 52.45-41.8 163.09-95.07 229.48M207.66 82.6c10.66 25 21.11 55.73 21.11 55.73M209.71 76.86c11.07 7.38 26.43 32.58 26.43 32.58M285.32 193.65c15.37 1.23 47.94-6.14 47.94-6.14"/><path d="M181.44 11.3s-25.68-65.84-34.15-81.69-16-35.24-19.94-45.07c-4.65-11.48-7.93-26.77-9.56-36.61s-3.83-17.21-10.66-15.84S96.48-154.26 96.2-145s7.38 33.88-1.64 39.62c-2 1.26-18-8.2-30.32-20s-33.06-30.32-40.43-35.78-12.84-3.28-15 2.18 8.74 17.48 13.66 23.22S39.65-120.11 38-119s-13.66-9-21-15.58-21.31-20.21-27-13.93-.54 14.21 5.47 21 27.86 24.31 26.77 25.68-13.66-6-19.4-10.93-19.39-15.85-23.22-15-6.83 4.65-4.1 9.84S-10.89-101.8-6.79-98s21 16.12 19.94 17.21-9.28-3.53-16.39-7.35-20.49-11.75-24.58-6.29 2.75 13.3 13.11 21.59c10.93 8.74 29.09 21 38.52 28.41 10.11 7.92 27 18.85 36.06 25.68A59.66 59.66 0 0 1 79 7.47C83.09 19 91.29 53.1 91.29 53.1s25.95 3 51.63-8.47 38.52-33.33 38.52-33.33Z" style="fill:#f2ab77"/></g><g style="clip-path:url(#clip-path-2)"><circle cx="250" cy="250" r="204" style="fill:#047889"/><path d="M211.62 354.21c-14.34 8.19-70.9 24.79-93.62 81.34s-23.36 86.67-22.74 113.1 3.69 52.86 3.69 52.86l-66.39 83s15.37 28.89 43 37.5 49.17-2.46 49.17-2.46l-6.14 48.56S155.48 806.2 260 803.74c108.2-2.54 145.68-24 145.68-24l-5.53-37.5s82.83-9.87 99-72.53c16-62.08-1-135.51-26.43-197.92-25.82-63.32-42.46-86-77.45-105.11-33.81-18.44-48.56-21.52-68.84-27.66s-114.81 15.19-114.81 15.19Z" style="fill:#df6d58"/><path d="M198.5 120s-25.81 1.43-37.9 20.69-10.45 37.29-5.12 51.63S177 213.86 177 213.86l100.8 78.47 6.49-7.51s2.52.34 13-4 55.32-23.57 63.72-73.35-27.45-87.9-51.22-99.79C281.9 93.79 258.13 92.36 234 97.89S198.5 120 198.5 120Z" style="fill:#bab891"/><path d="M297.26 280.86s1.64 8.6 7 23.35 22.13 34.84 22.13 34.84a413.16 413.16 0 0 1-27.05 39.34c-14.34 18-37.7 47.94-50 48.76s-22.95-9.42-30.33-28.68-7.37-44.26-7.37-44.26c4.91-5.74 2.46-13.93 3.28-27s-1.23-38.93-1.23-38.93c-5.33-.41-12.71-1.64-25-12.7S174.33 228.4 176 203s20.49-48.36 20.49-48.36 5 8.34 16.8 17.9c12.13 9.88 22.94 15.84 30.32 22.67s6 10.11 11.75 20.22 19.39 23.77 19.39 23.77c.82 10.65 11.21 25.68 11.21 25.68l-1.64 19.94Z" style="fill:#fdece1"/><path class="cls-8" d="M196.46 154.64c-7.24-10.24-4.24-24.17-2.05-27.45M183.48 144.4c-6 4.92-27.59 28.14-14.75 63.65M247.13 198.76c-6-16.93-13.93-31.41-19.94-43.16s-8.47-22.13-8.47-29.5M252.87 139.21c2.73 13.11 11.2 23.22 18.58 45.89 5.38 16.55.54 37.16 3.27 54.1M285.93 264.88c2.18-17.49 8.46-26 9.56-44.26s-.82-30.87-4.92-43.17"/><path d="M223.89 206.28c0 2.55-1 3.84-2.85 3.84s-2.85-1.29-2.85-3.84 1-3.85 2.85-3.85 2.85 1.3 2.85 3.85ZM186.6 206.28c0 2.55-1 3.84-2.85 3.84s-2.85-1.29-2.85-3.84 1-3.85 2.85-3.85 2.85 1.3 2.85 3.85Z"/><path class="cls-15" d="M214.08 186.33a30.07 30.07 0 0 1 17.34-.27M196.46 187.7c-3.69-2.32-13.25-3-18 .55"/><path class="cls-16" d="M198.64 199.86c-.14 2.86-3 9.15-6.15 13.38s-7.65 8.06-7.24 11.48 15.58 7.28 15.58 7.28M245.9 230.18c-1.23 4.1-13.38 13.8-16.53 18.71"/><g style="mix-blend-mode:multiply;opacity:.33"><ellipse cx="236.38" cy="233.93" rx="15.15" ry="10.35" transform="rotate(-89.48 236.37 233.934)" style="fill:#f49b87"/></g><path d="M185.8 237.83c.57-.81 5.06 1.91 11.2 2.46s16.67-2 18.58-1.09 2.18 4.78-1 8.6-9.7 7.24-17.34 6.83-9.7-4-10-8.33-2.4-7.1-1.44-8.47Z" style="fill:#fff;stroke-width:2.04px;stroke:#eaa08c;stroke-linecap:round;stroke-linejoin:round"/><path d="M198.5 246.16a18 18 0 0 1-12-4 16.83 16.83 0 0 1 .8 4.1 13.59 13.59 0 0 0 .25 1.84 34.51 34.51 0 0 0 10.68 2.39c5.28.42 11.86-.82 15.34-1.6a13.66 13.66 0 0 0 1.05-1.13 9.66 9.66 0 0 0 2.36-5.22c-3.98 1.23-12.83 3.62-18.48 3.62Z" style="fill:#eaa28d"/><path class="cls-16" d="M213.67 288.23c10.79 2.33 22.26-.68 26.36-2.32"/><path d="M299 287.8c-1.24-4.5-1.71-6.94-1.71-6.94l-13 4 1.64-19.94s-10.39-15-11.21-25.68c0 0-13.66-13.66-19.39-23.77S251 202 243.58 195.21s-18.19-12.79-30.32-22.67A93.21 93.21 0 0 1 200.48 160c5.52 11.28 22.2 28.12 33.54 37.91 12 10.39 8.19 16.94 17.48 31.69s16.94 9.57 18.31 16.67 0 17.21 7.37 22.95a287.87 287.87 0 0 1 4.37 31.41A81.31 81.31 0 0 0 299 287.8Z" style="fill:#404da0;opacity:.17;mix-blend-mode:multiply"/><path d="M107.81 618.66s-26.23-47.54-33.06-60.93-6-25.13-6.83-35.78-4.1-27.05-6.28-36.34-7.93-24.31-12.3-24.86-11.2 3.28-12 11.75a79.22 79.22 0 0 0-.54 12 156.41 156.41 0 0 0-13.94-36.88 113 113 0 0 0-26.79-33.04c-6.28-5.46-12.57-7.37-16.66-3.82s-3 11.75 3.27 18.3 11.48 15.85 11.48 15.85-7.38-4.37-13.66-3-10.38 4.65-11.2 10.66c0 0-8.74 1.36-10.66 13.66 0 0-7.65 1.09-9 13.11s10.65 18.85 10.65 18.85 4.65 17.89 12.64 41.87c4.3 12.89 11.68 35 23.36 64.54 12.18 30.77 36.26 79.9 36.26 79.9s29.87-2.24 53.14-24.58c20.48-19.68 22.12-41.26 22.12-41.26Z" style="fill:#fdeee4"/><path class="cls-16" d="M36.78 484.52c.27 8.47 0 14.48-3.83 22.4s-12.29 19.67-9 35.79M44.7 461.85c.27 7.92 2.46 22.94 15.3 20.76M-5.84 444.91c7.65 8.19 13.93 24 15.3 30"/><path class="cls-8" d="M355 459.11c-1.64 16.8 4.1 50 12.71 75S390.28 623 390.28 623M153.43 432.89c4.1 9.42 3.28 19.67-3.28 31.55s-28.28 41.39-23.36 61.06 18.85 27 19.67 42.62-4.1 57.78-8.19 76.63-11.48 72.12-12.3 82"/><path class="cls-8" d="M145.64 444.77c3.69 6.56 4.51 19.67 4.51 19.67"/></g><path class="cls-5" d="M988.52 619.58a25.43 25.43 0 0 0-11.73-17.3c-4-28.9-12.4-80.87-24.31-114-17.21-47.94-32.37-67.61-51.22-88.1s-72.94-54.91-78.68-62.29-15.57-26.22-26.22-29.5-86.06-4.51-86.06-4.51c-9.83-1.23-8.19 17.62-56.55 38.11-36.45 15.45-111.87 52.86-152.44 151.21s-41.8 146.29-38.11 172.11c0 0-9.16 24.31 2.46 52.86 18.85 46.31 61.88 45.9 61.88 45.9l37.7 2.05s-18.44 50.4-14.75 57.78 134 68.84 145.06 70.07 40.57-67.61 40.57-67.61 2.46 62.69 12.29 66.38 95.89-23.36 95.89-23.36l11.07-116.78 12.29-99.38L950 631.31c4.7 20.69 11.72 42.24 20.5 40.69 16.59-3 22.02-31.4 18.02-52.42Z" style="clip-path:url(#clip-path-3)"/></g></g></svg>