<svg xmlns="http://www.w3.org/2000/svg" xmlns:xlink="http://www.w3.org/1999/xlink" viewBox="0 0 500 500"><defs><style>.cls-1,.cls-11,.cls-12,.cls-15,.cls-16,.cls-17,.cls-7{fill:none;}.cls-2{isolation:isolate;}.cls-3{clip-path:url(#clip-path);}.cls-4{fill:#e17a64;}.cls-5{fill:#153745;}.cls-6{fill:#f7986e;}.cls-16,.cls-7{stroke:#df6d58;}.cls-11,.cls-12,.cls-15,.cls-17,.cls-7{stroke-linecap:round;}.cls-11,.cls-12,.cls-15,.cls-16,.cls-17,.cls-7{stroke-linejoin:round;}.cls-7{stroke-width:4.76px;}.cls-8{fill:#babcc2;}.cls-9{fill:#fff;}.cls-10{fill:#eaa28d;}.cls-11,.cls-17{stroke:#010101;}.cls-11{stroke-width:4.08px;}.cls-12{stroke:#c5513d;}.cls-12,.cls-17{stroke-width:1.36px;}.cls-13{opacity:0.35;mix-blend-mode:multiply;}.cls-14{fill:#f49b87;}.cls-15{stroke:#e58b75;stroke-width:3.4px;}.cls-16{stroke-width:6.8px;}.cls-18{fill:#ef9657;}</style><clipPath id="clip-path"><circle id="SVGID" class="cls-1" cx="250" cy="250" r="204"/></clipPath></defs><g class="cls-2"><g id="Layer_1" data-name="Layer 1"><g class="cls-3"><circle class="cls-4" cx="250" cy="250" r="204"/><path class="cls-5" d="M320.49,295.85s2.73-3.28,8.47.82,13.11,14.75,35.24,22.13,82,12.29,122.94,56.55,83.59,147.52,77,217.19S545.33,679.41,515,696.62s-55.73,13.12-55.73,13.12,9,65.56,5.74,72.12-137.69,53.27-154.9,52.45c0,0-18.85-53.27-22.95-82.78,0,0-13.93,76.22-19.67,80.32s-92.61-29.5-94.25-33.6,9.84-40.16,9.84-40.16L170,765.47l-46.71-73,22.13-16.39S135.54,592.54,132.26,536,126.53,430.26,148.66,404s50.81-36.88,63.92-43.44,17.76-8.74,18.85-15.3.82-20.76,6.83-23.49S320.49,295.85,320.49,295.85Z"/><path class="cls-6" d="M497.49,426.86a1.08,1.08,0,0,0-.09-.44,1.62,1.62,0,0,0-.1-.18,1.22,1.22,0,0,0-.3-.3,1.11,1.11,0,0,0-.62-.19v1.11Z"/><path class="cls-6" d="M497.3,405.3a1.74,1.74,0,0,0,.1-.19,1.07,1.07,0,0,0,.09-.43,1.08,1.08,0,0,0-.09-.44,1,1,0,0,0-.1-.18,1.22,1.22,0,0,0-.3-.3,1.11,1.11,0,0,0-.62-.19v2.21a1.11,1.11,0,0,0,.62-.19A1.18,1.18,0,0,0,497.3,405.3Z"/><path class="cls-6" d="M497.49,471.22a1,1,0,0,0-.09-.43,1.14,1.14,0,0,0-.1-.19,1.22,1.22,0,0,0-.3-.3,1.11,1.11,0,0,0-.62-.19v1.11Z"/><path class="cls-6" d="M497,450a1.22,1.22,0,0,0,.3-.3,1.14,1.14,0,0,0,.1-.19,1,1,0,0,0,.09-.43,1,1,0,0,0-.09-.43,1.14,1.14,0,0,0-.1-.19,1.22,1.22,0,0,0-.3-.3,1.11,1.11,0,0,0-.62-.19v2.22A1.11,1.11,0,0,0,497,450Z"/><path class="cls-6" d="M496.38,428a1.11,1.11,0,0,0,.62-.19,1.42,1.42,0,0,0,.3-.3,1.74,1.74,0,0,0,.1-.19,1,1,0,0,0,.09-.43h-1.11Z"/><path class="cls-6" d="M497,494.32a1.22,1.22,0,0,0,.3-.3,1.14,1.14,0,0,0,.1-.19,1.07,1.07,0,0,0,0-.86,1.14,1.14,0,0,0-.1-.19,1.22,1.22,0,0,0-.3-.3,1.11,1.11,0,0,0-.62-.19v2.22A1.11,1.11,0,0,0,497,494.32Z"/><path class="cls-6" d="M496.38,472.33a1.11,1.11,0,0,0,.62-.19,1.22,1.22,0,0,0,.3-.3,1.14,1.14,0,0,0,.1-.19,1,1,0,0,0,.09-.43h-1.11Z"/><path class="cls-6" d="M474.2,381.38a1.11,1.11,0,0,0-1.11,1.11h2.22A1.11,1.11,0,0,0,474.2,381.38Z"/><circle class="cls-6" cx="463.11" cy="371.4" r="1.11"/><path class="cls-6" d="M453.12,382.49a1.26,1.26,0,0,0-.08-.43l-.11-.19a1.22,1.22,0,0,0-.3-.3,1.08,1.08,0,0,0-.62-.19v1.11Z"/><path class="cls-6" d="M452.93,360.93a1,1,0,0,0,.19-.62,1.22,1.22,0,0,0-.08-.43l-.11-.19a1.22,1.22,0,0,0-.3-.3,1.08,1.08,0,0,0-.62-.19v2.22a1.08,1.08,0,0,0,.62-.19A1.07,1.07,0,0,0,452.93,360.93Z"/><path class="cls-6" d="M474.2,425.75a1.1,1.1,0,0,0-1.11,1.11h2.22A1.11,1.11,0,0,0,474.2,425.75Z"/><path class="cls-6" d="M496.38,425.75a1.1,1.1,0,0,0-1.11,1.11h1.11Z"/><path class="cls-6" d="M474.2,403.57a1.11,1.11,0,1,0,1.11,1.11A1.1,1.1,0,0,0,474.2,403.57Z"/><path class="cls-6" d="M495.27,404.68a1.1,1.1,0,0,0,1.11,1.1v-2.21A1.1,1.1,0,0,0,495.27,404.68Z"/><path class="cls-6" d="M485.29,416.87a1.11,1.11,0,1,0-1.11-1.1A1.11,1.11,0,0,0,485.29,416.87Z"/><circle class="cls-6" cx="463.11" cy="415.77" r="1.11"/><path class="cls-6" d="M485.29,394.69a1.11,1.11,0,1,0-1.11-1.11A1.11,1.11,0,0,0,485.29,394.69Z"/><path class="cls-6" d="M463.11,392.48a1.11,1.11,0,1,0,1.1,1.1A1.1,1.1,0,0,0,463.11,392.48Z"/><path class="cls-6" d="M453.12,426.86a1.27,1.27,0,0,0-.08-.44,1.74,1.74,0,0,0-.11-.18,1.07,1.07,0,0,0-.3-.3,1.08,1.08,0,0,0-.62-.19v1.11Z"/><path class="cls-6" d="M452.63,405.59a1,1,0,0,0,.3-.29l.11-.19a1.22,1.22,0,0,0,0-.87,1.14,1.14,0,0,0-1-.67v2.21A1.08,1.08,0,0,0,452.63,405.59Z"/><path class="cls-6" d="M474.2,383.6a1.11,1.11,0,0,0,1.11-1.11h-2.22A1.1,1.1,0,0,0,474.2,383.6Z"/><path class="cls-6" d="M452,383.6a1.08,1.08,0,0,0,.62-.19,1.35,1.35,0,0,0,.41-.48,1.27,1.27,0,0,0,.08-.44H452Z"/><path class="cls-6" d="M474.2,470.11a1.11,1.11,0,0,0-1.11,1.11h2.22A1.11,1.11,0,0,0,474.2,470.11Z"/><path class="cls-6" d="M495.27,471.22h1.11v-1.11A1.11,1.11,0,0,0,495.27,471.22Z"/><path class="cls-6" d="M474.2,450.15a1.11,1.11,0,1,0-1.11-1.11A1.11,1.11,0,0,0,474.2,450.15Z"/><path class="cls-6" d="M495.27,449a1.11,1.11,0,0,0,1.11,1.11v-2.22A1.11,1.11,0,0,0,495.27,449Z"/><path class="cls-6" d="M485.29,461.24a1.11,1.11,0,1,0-1.11-1.11A1.11,1.11,0,0,0,485.29,461.24Z"/><circle class="cls-6" cx="463.11" cy="460.13" r="1.11"/><path class="cls-6" d="M485.29,439.06a1.11,1.11,0,0,0,0-2.22,1.11,1.11,0,0,0,0,2.22Z"/><path class="cls-6" d="M463.11,439.06A1.11,1.11,0,1,0,462,438,1.11,1.11,0,0,0,463.11,439.06Z"/><path class="cls-6" d="M453.12,471.22a1.22,1.22,0,0,0-.08-.43,1.18,1.18,0,0,0-.11-.19,1.07,1.07,0,0,0-.3-.3,1.08,1.08,0,0,0-.62-.19v1.11Z"/><path class="cls-6" d="M452.63,450a1.07,1.07,0,0,0,.3-.3,1.18,1.18,0,0,0,.11-.19,1.22,1.22,0,0,0,.08-.43,1,1,0,0,0-.19-.62,1.07,1.07,0,0,0-.3-.3,1.08,1.08,0,0,0-.62-.19v2.22A1.08,1.08,0,0,0,452.63,450Z"/><path class="cls-6" d="M474.2,428a1.11,1.11,0,0,0,1.11-1.11h-2.22A1.11,1.11,0,0,0,474.2,428Z"/><path class="cls-6" d="M496.38,428v-1.11h-1.11A1.11,1.11,0,0,0,496.38,428Z"/><path class="cls-6" d="M452,428a1.08,1.08,0,0,0,.62-.19,1.22,1.22,0,0,0,.3-.3l.11-.19a1.22,1.22,0,0,0,.08-.43H452Z"/><path class="cls-6" d="M474.2,494.51a1.11,1.11,0,1,0-1.11-1.11A1.11,1.11,0,0,0,474.2,494.51Z"/><path class="cls-6" d="M495.27,493.4a1.11,1.11,0,0,0,1.11,1.11v-2.22A1.11,1.11,0,0,0,495.27,493.4Z"/><path class="cls-6" d="M485.29,483.42a1.11,1.11,0,1,0-1.11-1.11A1.11,1.11,0,0,0,485.29,483.42Z"/><path class="cls-6" d="M463.11,483.42a1.11,1.11,0,1,0-1.11-1.11A1.11,1.11,0,0,0,463.11,483.42Z"/><path class="cls-6" d="M452.63,494.32a1.07,1.07,0,0,0,.3-.3,1.18,1.18,0,0,0,.11-.19,1.2,1.2,0,0,0,0-.86,1.18,1.18,0,0,0-.11-.19,1.07,1.07,0,0,0-.3-.3,1.08,1.08,0,0,0-.62-.19v2.22A1.08,1.08,0,0,0,452.63,494.32Z"/><path class="cls-6" d="M474.2,472.33a1.11,1.11,0,0,0,1.11-1.11h-2.22A1.11,1.11,0,0,0,474.2,472.33Z"/><path class="cls-6" d="M496.38,472.33v-1.11h-1.11A1.11,1.11,0,0,0,496.38,472.33Z"/><path class="cls-6" d="M452,472.33a1.08,1.08,0,0,0,.62-.19,1.07,1.07,0,0,0,.3-.3,1.18,1.18,0,0,0,.11-.19,1.22,1.22,0,0,0,.08-.43H452Z"/><path class="cls-6" d="M428.72,338.13h2.22a1,1,0,0,0-.06-.35l-1.56-.63A1.13,1.13,0,0,0,428.72,338.13Z"/><path class="cls-6" d="M408.76,338.13a1,1,0,0,0-.09-.43.69.69,0,0,0-.1-.19,1.07,1.07,0,0,0-.3-.3,1.08,1.08,0,0,0-.62-.19v1.11Z"/><path class="cls-6" d="M429.83,381.38a1.11,1.11,0,0,0-1.11,1.11h2.22A1.11,1.11,0,0,0,429.83,381.38Z"/><path class="cls-6" d="M452,381.38a1.11,1.11,0,0,0-1.1,1.11H452Z"/><path class="cls-6" d="M429.83,359.2a1.11,1.11,0,1,0,0,2.22,1.11,1.11,0,0,0,0-2.22Z"/><path class="cls-6" d="M450.91,360.31a1.1,1.1,0,0,0,1.1,1.11V359.2A1.11,1.11,0,0,0,450.91,360.31Z"/><path class="cls-6" d="M440.92,372.51a1.11,1.11,0,1,0-1.1-1.11A1.1,1.1,0,0,0,440.92,372.51Z"/><path class="cls-6" d="M418.74,370.29a1.11,1.11,0,0,0,0,2.22,1.11,1.11,0,1,0,0-2.22Z"/><path class="cls-6" d="M440.92,350.33a1.11,1.11,0,1,0-1.1-1.11A1.1,1.1,0,0,0,440.92,350.33Z"/><path class="cls-6" d="M418.74,348.11a1.11,1.11,0,0,0,0,2.22,1.11,1.11,0,0,0,0-2.22Z"/><path class="cls-6" d="M408.76,382.49a1.07,1.07,0,0,0-.09-.43.87.87,0,0,0-.1-.19,1.22,1.22,0,0,0-.3-.3,1.08,1.08,0,0,0-.62-.19v1.11Z"/><path class="cls-6" d="M408.27,361.23a1.07,1.07,0,0,0,.3-.3.69.69,0,0,0,.1-.19,1,1,0,0,0,.09-.43,1,1,0,0,0-.09-.43.87.87,0,0,0-.1-.19,1.22,1.22,0,0,0-.3-.3,1.08,1.08,0,0,0-.62-.19v2.22A1.08,1.08,0,0,0,408.27,361.23Z"/><path class="cls-6" d="M429.83,339.24a1.11,1.11,0,0,0,1.11-1.11h-2.22A1.11,1.11,0,0,0,429.83,339.24Z"/><path class="cls-6" d="M407.65,339.24a1.08,1.08,0,0,0,.62-.19,1.07,1.07,0,0,0,.3-.3.69.69,0,0,0,.1-.19,1,1,0,0,0,.09-.43h-1.11Z"/><path class="cls-6" d="M429.83,425.75a1.11,1.11,0,0,0-1.11,1.11h2.22A1.1,1.1,0,0,0,429.83,425.75Z"/><path class="cls-6" d="M450.91,426.86H452v-1.11A1.1,1.1,0,0,0,450.91,426.86Z"/><path class="cls-6" d="M429.83,405.78a1.11,1.11,0,1,0-1.11-1.1A1.1,1.1,0,0,0,429.83,405.78Z"/><path class="cls-6" d="M450.91,404.68a1.1,1.1,0,0,0,1.1,1.1v-2.21A1.1,1.1,0,0,0,450.91,404.68Z"/><path class="cls-6" d="M440.92,416.87a1.11,1.11,0,1,0-1.1-1.1A1.1,1.1,0,0,0,440.92,416.87Z"/><path class="cls-6" d="M418.74,416.87a1.11,1.11,0,1,0-1.11-1.1A1.1,1.1,0,0,0,418.74,416.87Z"/><path class="cls-6" d="M440.92,394.69a1.11,1.11,0,1,0-1.1-1.11A1.1,1.1,0,0,0,440.92,394.69Z"/><path class="cls-6" d="M418.74,394.69a1.11,1.11,0,1,0-1.11-1.11A1.1,1.1,0,0,0,418.74,394.69Z"/><path class="cls-6" d="M408.76,426.86a1.08,1.08,0,0,0-.09-.44.81.81,0,0,0-.1-.18,1.07,1.07,0,0,0-.3-.3,1.08,1.08,0,0,0-.62-.19v1.11Z"/><path class="cls-6" d="M408.27,405.59a1,1,0,0,0,.3-.29.87.87,0,0,0,.1-.19,1.07,1.07,0,0,0,.09-.43,1.08,1.08,0,0,0-.09-.44.64.64,0,0,0-.1-.18,1.07,1.07,0,0,0-.3-.3,1.08,1.08,0,0,0-.62-.19v2.21A1.08,1.08,0,0,0,408.27,405.59Z"/><path class="cls-6" d="M429.83,383.6a1.1,1.1,0,0,0,1.11-1.11h-2.22A1.11,1.11,0,0,0,429.83,383.6Z"/><path class="cls-6" d="M452,383.6v-1.11h-1.1A1.1,1.1,0,0,0,452,383.6Z"/><path class="cls-6" d="M407.65,383.6a1.08,1.08,0,0,0,.62-.19,1.07,1.07,0,0,0,.3-.3.64.64,0,0,0,.1-.18,1.08,1.08,0,0,0,.09-.44h-1.11Z"/><path class="cls-6" d="M429.83,470.11a1.11,1.11,0,0,0-1.11,1.11h2.22A1.11,1.11,0,0,0,429.83,470.11Z"/><path class="cls-6" d="M450.91,471.22H452v-1.11A1.11,1.11,0,0,0,450.91,471.22Z"/><path class="cls-6" d="M429.83,450.15a1.11,1.11,0,1,0-1.11-1.11A1.11,1.11,0,0,0,429.83,450.15Z"/><path class="cls-6" d="M450.91,449a1.11,1.11,0,0,0,1.1,1.11v-2.22A1.11,1.11,0,0,0,450.91,449Z"/><path class="cls-6" d="M440.92,461.24a1.11,1.11,0,1,0-1.1-1.11A1.11,1.11,0,0,0,440.92,461.24Z"/><path class="cls-6" d="M418.74,461.24a1.11,1.11,0,1,0-1.11-1.11A1.11,1.11,0,0,0,418.74,461.24Z"/><path class="cls-6" d="M440.92,439.06a1.11,1.11,0,1,0-1.1-1.11A1.11,1.11,0,0,0,440.92,439.06Z"/><path class="cls-6" d="M418.74,439.06a1.11,1.11,0,1,0-1.11-1.11A1.11,1.11,0,0,0,418.74,439.06Z"/><path class="cls-6" d="M408.76,471.22a1,1,0,0,0-.09-.43.69.69,0,0,0-.1-.19,1.07,1.07,0,0,0-.3-.3,1.08,1.08,0,0,0-.62-.19v1.11Z"/><path class="cls-6" d="M408.27,450a1.07,1.07,0,0,0,.3-.3.69.69,0,0,0,.1-.19,1,1,0,0,0,.09-.43,1,1,0,0,0-.09-.43.69.69,0,0,0-.1-.19,1.07,1.07,0,0,0-.3-.3,1.08,1.08,0,0,0-.62-.19v2.22A1.08,1.08,0,0,0,408.27,450Z"/><path class="cls-6" d="M429.83,428a1.11,1.11,0,0,0,1.11-1.11h-2.22A1.11,1.11,0,0,0,429.83,428Z"/><path class="cls-6" d="M452,428v-1.11h-1.1A1.11,1.11,0,0,0,452,428Z"/><path class="cls-6" d="M407.65,428a1.08,1.08,0,0,0,.62-.19,1.22,1.22,0,0,0,.3-.3.87.87,0,0,0,.1-.19,1,1,0,0,0,.09-.43h-1.11Z"/><path class="cls-6" d="M429.83,494.51a1.11,1.11,0,1,0-1.11-1.11A1.11,1.11,0,0,0,429.83,494.51Z"/><path class="cls-6" d="M450.91,493.4a1.11,1.11,0,0,0,1.1,1.11v-2.22A1.11,1.11,0,0,0,450.91,493.4Z"/><path class="cls-6" d="M440.92,483.42a1.11,1.11,0,1,0-1.1-1.11A1.11,1.11,0,0,0,440.92,483.42Z"/><path class="cls-6" d="M418.74,483.42a1.11,1.11,0,1,0-1.11-1.11A1.11,1.11,0,0,0,418.74,483.42Z"/><path class="cls-6" d="M408.27,494.32a1.07,1.07,0,0,0,.3-.3.69.69,0,0,0,.1-.19,1.07,1.07,0,0,0,0-.86.69.69,0,0,0-.1-.19,1.07,1.07,0,0,0-.3-.3,1.08,1.08,0,0,0-.62-.19v2.22A1.08,1.08,0,0,0,408.27,494.32Z"/><path class="cls-6" d="M429.83,472.33a1.11,1.11,0,0,0,1.11-1.11h-2.22A1.11,1.11,0,0,0,429.83,472.33Z"/><path class="cls-6" d="M452,472.33v-1.11h-1.1A1.11,1.11,0,0,0,452,472.33Z"/><path class="cls-6" d="M407.65,472.33a1.08,1.08,0,0,0,.62-.19,1.07,1.07,0,0,0,.3-.3.69.69,0,0,0,.1-.19,1,1,0,0,0,.09-.43h-1.11Z"/><path class="cls-6" d="M385.47,337a1.11,1.11,0,0,0-1.11,1.11h2.22A1.11,1.11,0,0,0,385.47,337Z"/><path class="cls-6" d="M407.65,337a1.11,1.11,0,0,0-1.11,1.11h1.11Z"/><path class="cls-6" d="M396.56,328.15a1.1,1.1,0,0,0,1.1-1l-2.11-.53a1.14,1.14,0,0,0-.1.45A1.11,1.11,0,0,0,396.56,328.15Z"/><path class="cls-6" d="M374.38,328.15a1.11,1.11,0,1,0-1.11-1.11A1.11,1.11,0,0,0,374.38,328.15Z"/><path class="cls-6" d="M364.4,338.13a1,1,0,0,0-.09-.43,1.14,1.14,0,0,0-.1-.19,1.07,1.07,0,0,0-.3-.3,1.11,1.11,0,0,0-.62-.19v1.11Z"/><path class="cls-6" d="M385.47,381.38a1.11,1.11,0,0,0-1.11,1.11h2.22A1.11,1.11,0,0,0,385.47,381.38Z"/><path class="cls-6" d="M406.54,382.49h1.11v-1.11A1.11,1.11,0,0,0,406.54,382.49Z"/><path class="cls-6" d="M385.47,361.42a1.11,1.11,0,1,0-1.11-1.11A1.11,1.11,0,0,0,385.47,361.42Z"/><path class="cls-6" d="M406.54,360.31a1.11,1.11,0,0,0,1.11,1.11V359.2A1.11,1.11,0,0,0,406.54,360.31Z"/><path class="cls-6" d="M396.56,372.51a1.11,1.11,0,1,0-1.11-1.11A1.11,1.11,0,0,0,396.56,372.51Z"/><path class="cls-6" d="M374.38,372.51a1.11,1.11,0,1,0-1.11-1.11A1.11,1.11,0,0,0,374.38,372.51Z"/><path class="cls-6" d="M396.56,350.33a1.11,1.11,0,1,0-1.11-1.11A1.11,1.11,0,0,0,396.56,350.33Z"/><path class="cls-6" d="M374.38,350.33a1.11,1.11,0,1,0-1.11-1.11A1.11,1.11,0,0,0,374.38,350.33Z"/><path class="cls-6" d="M364.4,382.49a1.07,1.07,0,0,0-.09-.43,1.74,1.74,0,0,0-.1-.19,1.22,1.22,0,0,0-.3-.3,1.11,1.11,0,0,0-.62-.19v1.11Z"/><path class="cls-6" d="M364.21,360.93a1.14,1.14,0,0,0,.1-.19,1,1,0,0,0,.09-.43,1,1,0,0,0-.09-.43,1.74,1.74,0,0,0-.1-.19,1.22,1.22,0,0,0-.3-.3,1.11,1.11,0,0,0-.62-.19v2.22a1.11,1.11,0,0,0,.62-.19A1.07,1.07,0,0,0,364.21,360.93Z"/><path class="cls-6" d="M385.47,339.24a1.11,1.11,0,0,0,1.11-1.11h-2.22A1.11,1.11,0,0,0,385.47,339.24Z"/><path class="cls-6" d="M407.65,339.24v-1.11h-1.11A1.11,1.11,0,0,0,407.65,339.24Z"/><path class="cls-6" d="M363.29,339.24a1.11,1.11,0,0,0,.62-.19,1.07,1.07,0,0,0,.3-.3,1.14,1.14,0,0,0,.1-.19,1,1,0,0,0,.09-.43h-1.11Z"/><path class="cls-6" d="M385.47,425.75a1.11,1.11,0,0,0-1.11,1.11h2.22A1.11,1.11,0,0,0,385.47,425.75Z"/><path class="cls-6" d="M406.54,426.86h1.11v-1.11A1.11,1.11,0,0,0,406.54,426.86Z"/><path class="cls-6" d="M385.47,405.78a1.11,1.11,0,1,0-1.11-1.1A1.11,1.11,0,0,0,385.47,405.78Z"/><path class="cls-6" d="M406.54,404.68a1.11,1.11,0,0,0,1.11,1.1v-2.21A1.11,1.11,0,0,0,406.54,404.68Z"/><path class="cls-6" d="M396.56,416.87a1.11,1.11,0,1,0-1.11-1.1A1.11,1.11,0,0,0,396.56,416.87Z"/><path class="cls-6" d="M374.38,416.87a1.11,1.11,0,1,0-1.11-1.1A1.11,1.11,0,0,0,374.38,416.87Z"/><path class="cls-6" d="M396.56,394.69a1.11,1.11,0,1,0-1.11-1.11A1.11,1.11,0,0,0,396.56,394.69Z"/><path class="cls-6" d="M374.38,394.69a1.11,1.11,0,1,0-1.11-1.11A1.11,1.11,0,0,0,374.38,394.69Z"/><path class="cls-6" d="M364.4,426.86a1.08,1.08,0,0,0-.09-.44,1.62,1.62,0,0,0-.1-.18,1.07,1.07,0,0,0-.3-.3,1.11,1.11,0,0,0-.62-.19v1.11Z"/><path class="cls-6" d="M364.21,405.3a1.74,1.74,0,0,0,.1-.19,1.07,1.07,0,0,0,.09-.43,1.08,1.08,0,0,0-.09-.44,1,1,0,0,0-.1-.18,1.07,1.07,0,0,0-.3-.3,1.11,1.11,0,0,0-.62-.19v2.21a1.11,1.11,0,0,0,.62-.19A1,1,0,0,0,364.21,405.3Z"/><path class="cls-6" d="M385.47,383.6a1.11,1.11,0,0,0,1.11-1.11h-2.22A1.11,1.11,0,0,0,385.47,383.6Z"/><path class="cls-6" d="M407.65,383.6v-1.11h-1.11A1.11,1.11,0,0,0,407.65,383.6Z"/><path class="cls-6" d="M363.29,383.6a1.11,1.11,0,0,0,.62-.19,1.07,1.07,0,0,0,.3-.3,1,1,0,0,0,.1-.18,1.08,1.08,0,0,0,.09-.44h-1.11Z"/><path class="cls-6" d="M385.47,470.11a1.11,1.11,0,0,0-1.11,1.11h2.22A1.11,1.11,0,0,0,385.47,470.11Z"/><path class="cls-6" d="M406.54,471.22h1.11v-1.11A1.11,1.11,0,0,0,406.54,471.22Z"/><path class="cls-6" d="M385.47,450.15a1.11,1.11,0,1,0-1.11-1.11A1.11,1.11,0,0,0,385.47,450.15Z"/><path class="cls-6" d="M406.54,449a1.11,1.11,0,0,0,1.11,1.11v-2.22A1.11,1.11,0,0,0,406.54,449Z"/><path class="cls-6" d="M396.56,461.24a1.11,1.11,0,1,0-1.11-1.11A1.11,1.11,0,0,0,396.56,461.24Z"/><path class="cls-6" d="M374.38,461.24a1.11,1.11,0,1,0-1.11-1.11A1.11,1.11,0,0,0,374.38,461.24Z"/><path class="cls-6" d="M396.56,439.06a1.11,1.11,0,1,0-1.11-1.11A1.11,1.11,0,0,0,396.56,439.06Z"/><path class="cls-6" d="M374.38,439.06a1.11,1.11,0,1,0-1.11-1.11A1.11,1.11,0,0,0,374.38,439.06Z"/><path class="cls-6" d="M364.4,471.22a1,1,0,0,0-.09-.43,1.14,1.14,0,0,0-.1-.19,1.07,1.07,0,0,0-.3-.3,1.11,1.11,0,0,0-.62-.19v1.11Z"/><path class="cls-6" d="M364.21,449.66a1.14,1.14,0,0,0,.1-.19,1,1,0,0,0,.09-.43,1,1,0,0,0-.09-.43,1.14,1.14,0,0,0-.1-.19,1.07,1.07,0,0,0-.3-.3,1.11,1.11,0,0,0-.62-.19v2.22a1.11,1.11,0,0,0,.62-.19A1.07,1.07,0,0,0,364.21,449.66Z"/><path class="cls-6" d="M385.47,428a1.11,1.11,0,0,0,1.11-1.11h-2.22A1.11,1.11,0,0,0,385.47,428Z"/><path class="cls-6" d="M407.65,428v-1.11h-1.11A1.11,1.11,0,0,0,407.65,428Z"/><path class="cls-6" d="M363.29,428a1.11,1.11,0,0,0,.62-.19,1.22,1.22,0,0,0,.3-.3,1.74,1.74,0,0,0,.1-.19,1,1,0,0,0,.09-.43h-1.11Z"/><path class="cls-6" d="M385.47,494.51a1.11,1.11,0,1,0-1.11-1.11A1.11,1.11,0,0,0,385.47,494.51Z"/><path class="cls-6" d="M406.54,493.4a1.11,1.11,0,0,0,1.11,1.11v-2.22A1.11,1.11,0,0,0,406.54,493.4Z"/><path class="cls-6" d="M396.56,483.42a1.11,1.11,0,1,0-1.11-1.11A1.11,1.11,0,0,0,396.56,483.42Z"/><path class="cls-6" d="M374.38,483.42a1.11,1.11,0,1,0-1.11-1.11A1.11,1.11,0,0,0,374.38,483.42Z"/><path class="cls-6" d="M364.21,494a1.14,1.14,0,0,0,.1-.19,1.07,1.07,0,0,0,0-.86,1.14,1.14,0,0,0-.1-.19,1.07,1.07,0,0,0-.3-.3,1.11,1.11,0,0,0-.62-.19v2.22a1.11,1.11,0,0,0,.62-.19A1.07,1.07,0,0,0,364.21,494Z"/><path class="cls-6" d="M385.47,472.33a1.11,1.11,0,0,0,1.11-1.11h-2.22A1.11,1.11,0,0,0,385.47,472.33Z"/><path class="cls-6" d="M407.65,472.33v-1.11h-1.11A1.11,1.11,0,0,0,407.65,472.33Z"/><path class="cls-6" d="M363.29,472.33a1.11,1.11,0,0,0,.62-.19,1.07,1.07,0,0,0,.3-.3,1.14,1.14,0,0,0,.1-.19,1,1,0,0,0,.09-.43h-1.11Z"/><path class="cls-6" d="M341.11,337a1.11,1.11,0,0,0-1.11,1.11h2.22A1.11,1.11,0,0,0,341.11,337Z"/><path class="cls-6" d="M363.29,337a1.11,1.11,0,0,0-1.11,1.11h1.11Z"/><path class="cls-6" d="M341.11,317.06A1.11,1.11,0,1,0,340,316,1.11,1.11,0,0,0,341.11,317.06Z"/><path class="cls-6" d="M352.2,328.15a1.11,1.11,0,1,0-1.11-1.11A1.11,1.11,0,0,0,352.2,328.15Z"/><path class="cls-6" d="M330,328.15a1.11,1.11,0,1,0-1.11-1.11A1.11,1.11,0,0,0,330,328.15Z"/><path class="cls-6" d="M330,306a1.11,1.11,0,1,0-1.11-1.11A1.11,1.11,0,0,0,330,306Z"/><path class="cls-6" d="M320,338.13a1,1,0,0,0-.09-.43,1.14,1.14,0,0,0-.1-.19,1.07,1.07,0,0,0-.3-.3,1.11,1.11,0,0,0-.62-.19v1.11Z"/><path class="cls-6" d="M319.85,316.57a1.14,1.14,0,0,0,.1-.19,1.07,1.07,0,0,0,0-.86,1.14,1.14,0,0,0-.1-.19,1.07,1.07,0,0,0-.3-.3,1.11,1.11,0,0,0-.62-.19v2.22a1.11,1.11,0,0,0,.62-.19A1.07,1.07,0,0,0,319.85,316.57Z"/><path class="cls-6" d="M341.11,381.38a1.11,1.11,0,0,0-1.11,1.11h2.22A1.11,1.11,0,0,0,341.11,381.38Z"/><path class="cls-6" d="M363.29,381.38a1.11,1.11,0,0,0-1.11,1.11h1.11Z"/><path class="cls-6" d="M341.11,361.42a1.11,1.11,0,1,0-1.11-1.11A1.11,1.11,0,0,0,341.11,361.42Z"/><path class="cls-6" d="M362.18,360.31a1.11,1.11,0,0,0,1.11,1.11V359.2A1.11,1.11,0,0,0,362.18,360.31Z"/><path class="cls-6" d="M352.2,372.51a1.11,1.11,0,1,0-1.11-1.11A1.11,1.11,0,0,0,352.2,372.51Z"/><path class="cls-6" d="M330,372.51a1.11,1.11,0,1,0-1.11-1.11A1.11,1.11,0,0,0,330,372.51Z"/><path class="cls-6" d="M352.2,350.33a1.11,1.11,0,1,0-1.11-1.11A1.11,1.11,0,0,0,352.2,350.33Z"/><path class="cls-6" d="M330,350.33a1.11,1.11,0,1,0-1.11-1.11A1.11,1.11,0,0,0,330,350.33Z"/><path class="cls-6" d="M320,382.49a1.07,1.07,0,0,0-.09-.43,1.74,1.74,0,0,0-.1-.19,1.22,1.22,0,0,0-.3-.3,1.11,1.11,0,0,0-.62-.19v1.11Z"/><path class="cls-6" d="M319.85,360.93a1.14,1.14,0,0,0,.1-.19,1,1,0,0,0,.09-.43,1,1,0,0,0-.09-.43,1.74,1.74,0,0,0-.1-.19,1.22,1.22,0,0,0-.3-.3,1.11,1.11,0,0,0-.62-.19v2.22a1.11,1.11,0,0,0,.62-.19A1.07,1.07,0,0,0,319.85,360.93Z"/><path class="cls-6" d="M341.11,339.24a1.11,1.11,0,0,0,1.11-1.11H340A1.11,1.11,0,0,0,341.11,339.24Z"/><path class="cls-6" d="M363.29,339.24v-1.11h-1.11A1.11,1.11,0,0,0,363.29,339.24Z"/><path class="cls-6" d="M318.93,339.24a1.11,1.11,0,0,0,.62-.19,1.07,1.07,0,0,0,.3-.3,1.14,1.14,0,0,0,.1-.19,1,1,0,0,0,.09-.43h-1.11Z"/><path class="cls-6" d="M341.11,425.75a1.11,1.11,0,0,0-1.11,1.11h2.22A1.11,1.11,0,0,0,341.11,425.75Z"/><path class="cls-6" d="M363.29,425.75a1.11,1.11,0,0,0-1.11,1.11h1.11Z"/><path class="cls-6" d="M341.11,405.78a1.11,1.11,0,1,0-1.11-1.1A1.11,1.11,0,0,0,341.11,405.78Z"/><path class="cls-6" d="M362.18,404.68a1.11,1.11,0,0,0,1.11,1.1v-2.21A1.11,1.11,0,0,0,362.18,404.68Z"/><path class="cls-6" d="M352.2,416.87a1.11,1.11,0,1,0-1.11-1.1A1.11,1.11,0,0,0,352.2,416.87Z"/><path class="cls-6" d="M330,416.87a1.11,1.11,0,1,0-1.11-1.1A1.11,1.11,0,0,0,330,416.87Z"/><path class="cls-6" d="M352.2,394.69a1.11,1.11,0,1,0-1.11-1.11A1.11,1.11,0,0,0,352.2,394.69Z"/><path class="cls-6" d="M330,394.69a1.11,1.11,0,1,0-1.11-1.11A1.11,1.11,0,0,0,330,394.69Z"/><path class="cls-6" d="M320,426.86a1.08,1.08,0,0,0-.09-.44,1.62,1.62,0,0,0-.1-.18,1.07,1.07,0,0,0-.3-.3,1.11,1.11,0,0,0-.62-.19v1.11Z"/><path class="cls-6" d="M319.85,405.3a1.74,1.74,0,0,0,.1-.19,1.07,1.07,0,0,0,.09-.43,1.08,1.08,0,0,0-.09-.44,1,1,0,0,0-.1-.18,1.07,1.07,0,0,0-.3-.3,1.11,1.11,0,0,0-.62-.19v2.21a1.11,1.11,0,0,0,.62-.19A1,1,0,0,0,319.85,405.3Z"/><path class="cls-6" d="M341.11,383.6a1.11,1.11,0,0,0,1.11-1.11H340A1.11,1.11,0,0,0,341.11,383.6Z"/><path class="cls-6" d="M363.29,383.6v-1.11h-1.11A1.11,1.11,0,0,0,363.29,383.6Z"/><path class="cls-6" d="M318.93,383.6a1.11,1.11,0,0,0,.62-.19,1.07,1.07,0,0,0,.3-.3,1,1,0,0,0,.1-.18,1.08,1.08,0,0,0,.09-.44h-1.11Z"/><path class="cls-6" d="M341.11,470.11a1.11,1.11,0,0,0-1.11,1.11h2.22A1.11,1.11,0,0,0,341.11,470.11Z"/><path class="cls-6" d="M363.29,470.11a1.11,1.11,0,0,0-1.11,1.11h1.11Z"/><path class="cls-6" d="M341.11,450.15A1.11,1.11,0,1,0,340,449,1.11,1.11,0,0,0,341.11,450.15Z"/><path class="cls-6" d="M362.18,449a1.11,1.11,0,0,0,1.11,1.11v-2.22A1.11,1.11,0,0,0,362.18,449Z"/><path class="cls-6" d="M352.2,461.24a1.11,1.11,0,1,0-1.11-1.11A1.11,1.11,0,0,0,352.2,461.24Z"/><path class="cls-6" d="M330,461.24a1.11,1.11,0,1,0-1.11-1.11A1.11,1.11,0,0,0,330,461.24Z"/><path class="cls-6" d="M352.2,439.06a1.11,1.11,0,1,0-1.11-1.11A1.11,1.11,0,0,0,352.2,439.06Z"/><path class="cls-6" d="M330,439.06a1.11,1.11,0,1,0-1.11-1.11A1.11,1.11,0,0,0,330,439.06Z"/><path class="cls-6" d="M320,471.22a1,1,0,0,0-.09-.43,1.14,1.14,0,0,0-.1-.19,1.07,1.07,0,0,0-.3-.3,1.11,1.11,0,0,0-.62-.19v1.11Z"/><path class="cls-6" d="M319.85,449.66a1.14,1.14,0,0,0,.1-.19A1,1,0,0,0,320,449a1,1,0,0,0-.09-.43,1.14,1.14,0,0,0-.1-.19,1.07,1.07,0,0,0-.3-.3,1.11,1.11,0,0,0-.62-.19v2.22a1.11,1.11,0,0,0,.62-.19A1.07,1.07,0,0,0,319.85,449.66Z"/><path class="cls-6" d="M341.11,428a1.11,1.11,0,0,0,1.11-1.11H340A1.11,1.11,0,0,0,341.11,428Z"/><path class="cls-6" d="M363.29,428v-1.11h-1.11A1.11,1.11,0,0,0,363.29,428Z"/><path class="cls-6" d="M318.93,428a1.11,1.11,0,0,0,.62-.19,1.22,1.22,0,0,0,.3-.3,1.74,1.74,0,0,0,.1-.19,1,1,0,0,0,.09-.43h-1.11Z"/><path class="cls-6" d="M341.11,494.51A1.11,1.11,0,1,0,340,493.4,1.11,1.11,0,0,0,341.11,494.51Z"/><path class="cls-6" d="M362.18,493.4a1.11,1.11,0,0,0,1.11,1.11v-2.22A1.11,1.11,0,0,0,362.18,493.4Z"/><path class="cls-6" d="M352.2,483.42a1.11,1.11,0,1,0-1.11-1.11A1.11,1.11,0,0,0,352.2,483.42Z"/><path class="cls-6" d="M330,483.42a1.11,1.11,0,1,0-1.11-1.11A1.11,1.11,0,0,0,330,483.42Z"/><path class="cls-6" d="M319.85,494a1.14,1.14,0,0,0,.1-.19,1.07,1.07,0,0,0,0-.86,1.14,1.14,0,0,0-.1-.19,1.07,1.07,0,0,0-.3-.3,1.11,1.11,0,0,0-.62-.19v2.22a1.11,1.11,0,0,0,.62-.19A1.07,1.07,0,0,0,319.85,494Z"/><path class="cls-6" d="M341.11,472.33a1.11,1.11,0,0,0,1.11-1.11H340A1.11,1.11,0,0,0,341.11,472.33Z"/><path class="cls-6" d="M363.29,472.33v-1.11h-1.11A1.11,1.11,0,0,0,363.29,472.33Z"/><path class="cls-6" d="M318.93,472.33a1.11,1.11,0,0,0,.62-.19,1.07,1.07,0,0,0,.3-.3,1.14,1.14,0,0,0,.1-.19,1,1,0,0,0,.09-.43h-1.11Z"/><path class="cls-6" d="M296.75,337a1.11,1.11,0,0,0-1.11,1.11h2.22A1.11,1.11,0,0,0,296.75,337Z"/><path class="cls-6" d="M318.93,337a1.11,1.11,0,0,0-1.11,1.11h1.11Z"/><path class="cls-6" d="M296.75,317.06a1.11,1.11,0,1,0-1.11-1.11A1.11,1.11,0,0,0,296.75,317.06Z"/><path class="cls-6" d="M317.82,316a1.11,1.11,0,0,0,1.11,1.11v-2.22A1.11,1.11,0,0,0,317.82,316Z"/><path class="cls-6" d="M307.84,328.15a1.11,1.11,0,1,0-1.11-1.11A1.11,1.11,0,0,0,307.84,328.15Z"/><path class="cls-6" d="M285.66,328.15a1.11,1.11,0,1,0-1.11-1.11A1.11,1.11,0,0,0,285.66,328.15Z"/><path class="cls-6" d="M307.84,306a1.11,1.11,0,1,0-1.11-1.11A1.11,1.11,0,0,0,307.84,306Z"/><path class="cls-6" d="M275.68,338.13a1.22,1.22,0,0,0-.09-.43,1.14,1.14,0,0,0-.1-.19,1.22,1.22,0,0,0-.3-.3,1.11,1.11,0,0,0-.62-.19v1.11Z"/><path class="cls-6" d="M275.49,316.57a1.14,1.14,0,0,0,.1-.19,1.07,1.07,0,0,0,0-.86,1.14,1.14,0,0,0-.1-.19,1.22,1.22,0,0,0-.3-.3,1.11,1.11,0,0,0-.62-.19v2.22a1.11,1.11,0,0,0,.62-.19A1.22,1.22,0,0,0,275.49,316.57Z"/><path class="cls-6" d="M296.75,381.38a1.11,1.11,0,0,0-1.11,1.11h2.22A1.11,1.11,0,0,0,296.75,381.38Z"/><path class="cls-6" d="M318.93,381.38a1.11,1.11,0,0,0-1.11,1.11h1.11Z"/><path class="cls-6" d="M296.75,361.42a1.11,1.11,0,1,0-1.11-1.11A1.11,1.11,0,0,0,296.75,361.42Z"/><path class="cls-6" d="M317.82,360.31a1.11,1.11,0,0,0,1.11,1.11V359.2A1.11,1.11,0,0,0,317.82,360.31Z"/><path class="cls-6" d="M307.84,372.51a1.11,1.11,0,1,0-1.11-1.11A1.11,1.11,0,0,0,307.84,372.51Z"/><path class="cls-6" d="M285.66,372.51a1.11,1.11,0,1,0-1.11-1.11A1.11,1.11,0,0,0,285.66,372.51Z"/><path class="cls-6" d="M307.84,350.33a1.11,1.11,0,1,0-1.11-1.11A1.11,1.11,0,0,0,307.84,350.33Z"/><path class="cls-6" d="M285.66,350.33a1.11,1.11,0,1,0-1.11-1.11A1.11,1.11,0,0,0,285.66,350.33Z"/><path class="cls-6" d="M275.68,382.49a1.27,1.27,0,0,0-.09-.43,1.74,1.74,0,0,0-.1-.19,1.42,1.42,0,0,0-.3-.3,1.11,1.11,0,0,0-.62-.19v1.11Z"/><path class="cls-6" d="M275.49,360.93a1.14,1.14,0,0,0,.1-.19,1.18,1.18,0,0,0,.09-.43,1.22,1.22,0,0,0-.09-.43,1.74,1.74,0,0,0-.1-.19,1.42,1.42,0,0,0-.3-.3,1.11,1.11,0,0,0-.62-.19v2.22a1.11,1.11,0,0,0,.62-.19A1.22,1.22,0,0,0,275.49,360.93Z"/><path class="cls-6" d="M296.75,339.24a1.11,1.11,0,0,0,1.11-1.11h-2.22A1.11,1.11,0,0,0,296.75,339.24Z"/><path class="cls-6" d="M318.93,339.24v-1.11h-1.11A1.11,1.11,0,0,0,318.93,339.24Z"/><path class="cls-6" d="M275.49,338.75a1.14,1.14,0,0,0,.1-.19,1.22,1.22,0,0,0,.09-.43h-1.11v1.11a1.11,1.11,0,0,0,.62-.19A1.22,1.22,0,0,0,275.49,338.75Z"/><path class="cls-6" d="M296.75,425.75a1.1,1.1,0,0,0-1.11,1.11h2.22A1.11,1.11,0,0,0,296.75,425.75Z"/><path class="cls-6" d="M318.93,425.75a1.11,1.11,0,0,0-1.11,1.11h1.11Z"/><path class="cls-6" d="M296.75,405.78a1.11,1.11,0,1,0-1.11-1.1A1.11,1.11,0,0,0,296.75,405.78Z"/><path class="cls-6" d="M317.82,404.68a1.11,1.11,0,0,0,1.11,1.1v-2.21A1.11,1.11,0,0,0,317.82,404.68Z"/><path class="cls-6" d="M307.84,416.87a1.11,1.11,0,1,0-1.11-1.1A1.11,1.11,0,0,0,307.84,416.87Z"/><path class="cls-6" d="M285.66,416.87a1.11,1.11,0,1,0-1.11-1.1A1.11,1.11,0,0,0,285.66,416.87Z"/><path class="cls-6" d="M307.84,394.69a1.11,1.11,0,1,0-1.11-1.11A1.11,1.11,0,0,0,307.84,394.69Z"/><path class="cls-6" d="M285.66,394.69a1.11,1.11,0,1,0-1.11-1.11A1.11,1.11,0,0,0,285.66,394.69Z"/><path class="cls-6" d="M275.68,426.86a1.28,1.28,0,0,0-.09-.44,1.62,1.62,0,0,0-.1-.18,1.22,1.22,0,0,0-.3-.3,1.11,1.11,0,0,0-.62-.19v1.11Z"/><path class="cls-6" d="M275.49,405.3a1.74,1.74,0,0,0,.1-.19,1.1,1.1,0,0,0,0-.87,1,1,0,0,0-.1-.18,1.22,1.22,0,0,0-.3-.3,1.11,1.11,0,0,0-.62-.19v2.21a1.11,1.11,0,0,0,.62-.19A1.18,1.18,0,0,0,275.49,405.3Z"/><path class="cls-6" d="M296.75,383.6a1.11,1.11,0,0,0,1.11-1.11h-2.22A1.1,1.1,0,0,0,296.75,383.6Z"/><path class="cls-6" d="M318.93,383.6v-1.11h-1.11A1.11,1.11,0,0,0,318.93,383.6Z"/><path class="cls-6" d="M275.49,383.11a1,1,0,0,0,.1-.18,1.28,1.28,0,0,0,.09-.44h-1.11v1.11a1.11,1.11,0,0,0,.62-.19A1.22,1.22,0,0,0,275.49,383.11Z"/><path class="cls-6" d="M296.75,470.11a1.11,1.11,0,0,0-1.11,1.11h2.22A1.11,1.11,0,0,0,296.75,470.11Z"/><path class="cls-6" d="M318.93,470.11a1.11,1.11,0,0,0-1.11,1.11h1.11Z"/><path class="cls-6" d="M296.75,450.15a1.11,1.11,0,1,0-1.11-1.11A1.11,1.11,0,0,0,296.75,450.15Z"/><path class="cls-6" d="M317.82,449a1.11,1.11,0,0,0,1.11,1.11v-2.22A1.11,1.11,0,0,0,317.82,449Z"/><path class="cls-6" d="M307.84,461.24a1.11,1.11,0,1,0-1.11-1.11A1.11,1.11,0,0,0,307.84,461.24Z"/><path class="cls-6" d="M285.66,461.24a1.11,1.11,0,1,0-1.11-1.11A1.11,1.11,0,0,0,285.66,461.24Z"/><path class="cls-6" d="M307.84,439.06a1.11,1.11,0,0,0,0-2.22,1.11,1.11,0,1,0,0,2.22Z"/><path class="cls-6" d="M285.66,439.06a1.11,1.11,0,0,0,0-2.22,1.11,1.11,0,0,0,0,2.22Z"/><path class="cls-6" d="M275.68,471.22a1.22,1.22,0,0,0-.09-.43,1.14,1.14,0,0,0-.1-.19,1.22,1.22,0,0,0-.3-.3,1.11,1.11,0,0,0-.62-.19v1.11Z"/><path class="cls-6" d="M275.49,449.66a1.14,1.14,0,0,0,.1-.19,1.22,1.22,0,0,0,.09-.43,1.18,1.18,0,0,0-.09-.43,1.14,1.14,0,0,0-.1-.19,1.22,1.22,0,0,0-.3-.3,1.11,1.11,0,0,0-.62-.19v2.22a1.11,1.11,0,0,0,.62-.19A1.22,1.22,0,0,0,275.49,449.66Z"/><path class="cls-6" d="M296.75,428a1.11,1.11,0,0,0,1.11-1.11h-2.22A1.11,1.11,0,0,0,296.75,428Z"/><path class="cls-6" d="M318.93,428v-1.11h-1.11A1.11,1.11,0,0,0,318.93,428Z"/><path class="cls-6" d="M275.49,427.48a1.74,1.74,0,0,0,.1-.19,1.22,1.22,0,0,0,.09-.43h-1.11V428a1.11,1.11,0,0,0,.62-.19A1.42,1.42,0,0,0,275.49,427.48Z"/><path class="cls-6" d="M296.75,494.51a1.11,1.11,0,1,0-1.11-1.11A1.11,1.11,0,0,0,296.75,494.51Z"/><path class="cls-6" d="M317.82,493.4a1.11,1.11,0,0,0,1.11,1.11v-2.22A1.11,1.11,0,0,0,317.82,493.4Z"/><path class="cls-6" d="M307.84,483.42a1.11,1.11,0,1,0-1.11-1.11A1.11,1.11,0,0,0,307.84,483.42Z"/><path class="cls-6" d="M285.66,483.42a1.11,1.11,0,1,0-1.11-1.11A1.11,1.11,0,0,0,285.66,483.42Z"/><path class="cls-6" d="M275.49,494a1.14,1.14,0,0,0,.1-.19,1.07,1.07,0,0,0,0-.86,1.14,1.14,0,0,0-.1-.19,1.22,1.22,0,0,0-.3-.3,1.11,1.11,0,0,0-.62-.19v2.22a1.11,1.11,0,0,0,.62-.19A1.22,1.22,0,0,0,275.49,494Z"/><path class="cls-6" d="M296.75,472.33a1.11,1.11,0,0,0,1.11-1.11h-2.22A1.11,1.11,0,0,0,296.75,472.33Z"/><path class="cls-6" d="M318.93,472.33v-1.11h-1.11A1.11,1.11,0,0,0,318.93,472.33Z"/><path class="cls-6" d="M275.49,471.84a1.14,1.14,0,0,0,.1-.19,1.22,1.22,0,0,0,.09-.43h-1.11v1.11a1.11,1.11,0,0,0,.62-.19A1.22,1.22,0,0,0,275.49,471.84Z"/><path class="cls-6" d="M252.39,337a1.11,1.11,0,0,0-1.11,1.11h2.21A1.11,1.11,0,0,0,252.39,337Z"/><path class="cls-6" d="M274.57,337a1.11,1.11,0,0,0-1.11,1.11h1.11Z"/><path class="cls-6" d="M253.14,316.76l-.89.29h.14A1.08,1.08,0,0,0,253.14,316.76Z"/><path class="cls-6" d="M273.46,316a1.11,1.11,0,0,0,1.11,1.11v-2.22A1.11,1.11,0,0,0,273.46,316Z"/><path class="cls-6" d="M263.48,328.15a1.11,1.11,0,1,0-1.11-1.11A1.11,1.11,0,0,0,263.48,328.15Z"/><path class="cls-6" d="M241.29,325.93A1.11,1.11,0,1,0,242.4,327,1.11,1.11,0,0,0,241.29,325.93Z"/><path class="cls-6" d="M252.39,381.38a1.11,1.11,0,0,0-1.11,1.11h2.21A1.11,1.11,0,0,0,252.39,381.38Z"/><path class="cls-6" d="M274.57,381.38a1.11,1.11,0,0,0-1.11,1.11h1.11Z"/><path class="cls-6" d="M252.39,361.42a1.11,1.11,0,1,0-1.11-1.11A1.1,1.1,0,0,0,252.39,361.42Z"/><path class="cls-6" d="M273.46,360.31a1.1,1.1,0,0,0,1.11,1.11V359.2A1.11,1.11,0,0,0,273.46,360.31Z"/><path class="cls-6" d="M263.48,372.51a1.11,1.11,0,1,0-1.11-1.11A1.1,1.1,0,0,0,263.48,372.51Z"/><path class="cls-6" d="M241.29,372.51a1.11,1.11,0,1,0-1.1-1.11A1.1,1.1,0,0,0,241.29,372.51Z"/><path class="cls-6" d="M263.48,350.33a1.11,1.11,0,1,0-1.11-1.11A1.1,1.1,0,0,0,263.48,350.33Z"/><path class="cls-6" d="M241.29,350.33a1.11,1.11,0,1,0-1.1-1.11A1.1,1.1,0,0,0,241.29,350.33Z"/><path class="cls-6" d="M231.31,382.49a1.26,1.26,0,0,0-.08-.43l-.11-.19a1.22,1.22,0,0,0-.3-.3,1.08,1.08,0,0,0-.62-.19v1.11Z"/><path class="cls-6" d="M231.12,360.93a1,1,0,0,0,.19-.62,1.22,1.22,0,0,0-.08-.43l-.11-.19a1.22,1.22,0,0,0-.3-.3,1.08,1.08,0,0,0-.62-.19v2.22a1.08,1.08,0,0,0,.62-.19A1.07,1.07,0,0,0,231.12,360.93Z"/><path class="cls-6" d="M252.39,339.24a1.11,1.11,0,0,0,1.1-1.11h-2.21A1.11,1.11,0,0,0,252.39,339.24Z"/><path class="cls-6" d="M273.46,338.13a1.11,1.11,0,0,0,1.11,1.11v-1.11Z"/><path class="cls-6" d="M252.39,425.75a1.1,1.1,0,0,0-1.11,1.11h2.21A1.1,1.1,0,0,0,252.39,425.75Z"/><path class="cls-6" d="M274.57,425.75a1.1,1.1,0,0,0-1.11,1.11h1.11Z"/><path class="cls-6" d="M252.39,405.78a1.11,1.11,0,1,0-1.11-1.1A1.1,1.1,0,0,0,252.39,405.78Z"/><path class="cls-6" d="M273.46,404.68a1.1,1.1,0,0,0,1.11,1.1v-2.21A1.1,1.1,0,0,0,273.46,404.68Z"/><path class="cls-6" d="M263.48,416.87a1.11,1.11,0,1,0-1.11-1.1A1.1,1.1,0,0,0,263.48,416.87Z"/><path class="cls-6" d="M241.29,416.87a1.11,1.11,0,1,0-1.1-1.1A1.1,1.1,0,0,0,241.29,416.87Z"/><path class="cls-6" d="M263.48,394.69a1.11,1.11,0,1,0-1.11-1.11A1.1,1.1,0,0,0,263.48,394.69Z"/><path class="cls-6" d="M241.29,394.69a1.11,1.11,0,1,0-1.1-1.11A1.1,1.1,0,0,0,241.29,394.69Z"/><path class="cls-6" d="M231.31,426.86a1.27,1.27,0,0,0-.08-.44,1.74,1.74,0,0,0-.11-.18,1.07,1.07,0,0,0-.3-.3,1.08,1.08,0,0,0-.62-.19v1.11Z"/><path class="cls-6" d="M231.12,405.3l.11-.19a1.22,1.22,0,0,0,0-.87,1.14,1.14,0,0,0-1-.67v2.21a1.08,1.08,0,0,0,.62-.19A1,1,0,0,0,231.12,405.3Z"/><path class="cls-6" d="M252.39,383.6a1.1,1.1,0,0,0,1.1-1.11h-2.21A1.1,1.1,0,0,0,252.39,383.6Z"/><path class="cls-6" d="M274.57,383.6v-1.11h-1.11A1.1,1.1,0,0,0,274.57,383.6Z"/><path class="cls-6" d="M230.2,383.6a1.08,1.08,0,0,0,.62-.19,1.35,1.35,0,0,0,.41-.48,1.27,1.27,0,0,0,.08-.44H230.2Z"/><path class="cls-6" d="M252.39,470.11a1.11,1.11,0,0,0-1.11,1.11h2.21A1.11,1.11,0,0,0,252.39,470.11Z"/><path class="cls-6" d="M274.57,470.11a1.11,1.11,0,0,0-1.11,1.11h1.11Z"/><path class="cls-6" d="M252.39,450.15a1.11,1.11,0,1,0-1.11-1.11A1.11,1.11,0,0,0,252.39,450.15Z"/><path class="cls-6" d="M273.46,449a1.11,1.11,0,0,0,1.11,1.11v-2.22A1.11,1.11,0,0,0,273.46,449Z"/><path class="cls-6" d="M263.48,461.24a1.11,1.11,0,1,0-1.11-1.11A1.11,1.11,0,0,0,263.48,461.24Z"/><path class="cls-6" d="M241.29,461.24a1.11,1.11,0,1,0-1.1-1.11A1.11,1.11,0,0,0,241.29,461.24Z"/><path class="cls-6" d="M263.48,439.06a1.11,1.11,0,1,0-1.11-1.11A1.11,1.11,0,0,0,263.48,439.06Z"/><path class="cls-6" d="M241.29,439.06a1.11,1.11,0,1,0-1.1-1.11A1.11,1.11,0,0,0,241.29,439.06Z"/><path class="cls-6" d="M231.31,471.22a1.22,1.22,0,0,0-.08-.43,1.18,1.18,0,0,0-.11-.19,1.07,1.07,0,0,0-.3-.3,1.08,1.08,0,0,0-.62-.19v1.11Z"/><path class="cls-6" d="M231.12,449.66a1.18,1.18,0,0,0,.11-.19,1.22,1.22,0,0,0,.08-.43,1,1,0,0,0-.19-.62,1.07,1.07,0,0,0-.3-.3,1.08,1.08,0,0,0-.62-.19v2.22a1.08,1.08,0,0,0,.62-.19A1.07,1.07,0,0,0,231.12,449.66Z"/><path class="cls-6" d="M252.39,428a1.11,1.11,0,0,0,1.1-1.11h-2.21A1.11,1.11,0,0,0,252.39,428Z"/><path class="cls-6" d="M274.57,428v-1.11h-1.11A1.11,1.11,0,0,0,274.57,428Z"/><path class="cls-6" d="M230.2,428a1.08,1.08,0,0,0,.62-.19,1.22,1.22,0,0,0,.3-.3l.11-.19a1.22,1.22,0,0,0,.08-.43H230.2Z"/><path class="cls-6" d="M252.39,494.51a1.11,1.11,0,1,0-1.11-1.11A1.11,1.11,0,0,0,252.39,494.51Z"/><path class="cls-6" d="M273.46,493.4a1.11,1.11,0,0,0,1.11,1.11v-2.22A1.11,1.11,0,0,0,273.46,493.4Z"/><path class="cls-6" d="M263.48,483.42a1.11,1.11,0,1,0-1.11-1.11A1.11,1.11,0,0,0,263.48,483.42Z"/><path class="cls-6" d="M241.29,483.42a1.11,1.11,0,1,0-1.1-1.11A1.11,1.11,0,0,0,241.29,483.42Z"/><path class="cls-6" d="M231.12,494a1.18,1.18,0,0,0,.11-.19,1.2,1.2,0,0,0,0-.86,1.18,1.18,0,0,0-.11-.19,1.07,1.07,0,0,0-.3-.3,1.08,1.08,0,0,0-.62-.19v2.22a1.08,1.08,0,0,0,.62-.19A1.07,1.07,0,0,0,231.12,494Z"/><path class="cls-6" d="M252.39,472.33a1.11,1.11,0,0,0,1.1-1.11h-2.21A1.11,1.11,0,0,0,252.39,472.33Z"/><path class="cls-6" d="M274.57,472.33v-1.11h-1.11A1.11,1.11,0,0,0,274.57,472.33Z"/><path class="cls-6" d="M231.12,471.84a1.18,1.18,0,0,0,.11-.19,1.22,1.22,0,0,0,.08-.43H230.2v1.11a1.08,1.08,0,0,0,.62-.19A1.07,1.07,0,0,0,231.12,471.84Z"/><path class="cls-6" d="M208,381.38a1.11,1.11,0,0,0-1.11,1.11h2.22A1.11,1.11,0,0,0,208,381.38Z"/><path class="cls-6" d="M230.2,381.38a1.11,1.11,0,0,0-1.11,1.11h1.11Z"/><path class="cls-6" d="M229.09,360.31a1.11,1.11,0,0,0,1.11,1.11V359.2A1.11,1.11,0,0,0,229.09,360.31Z"/><path class="cls-6" d="M219.11,372.51a1.11,1.11,0,1,0,0-2.22,1.11,1.11,0,1,0,0,2.22Z"/><path class="cls-6" d="M196.93,372.51a1.11,1.11,0,1,0-1.11-1.11A1.11,1.11,0,0,0,196.93,372.51Z"/><path class="cls-6" d="M187,382.49a1.07,1.07,0,0,0-.09-.43.87.87,0,0,0-.1-.19,1.22,1.22,0,0,0-.3-.3,1.11,1.11,0,0,0-.62-.19v1.11Z"/><path class="cls-6" d="M208,425.75a1.11,1.11,0,0,0-1.11,1.11h2.22A1.11,1.11,0,0,0,208,425.75Z"/><path class="cls-6" d="M230.2,425.75a1.11,1.11,0,0,0-1.11,1.11h1.11Z"/><path class="cls-6" d="M208,405.78a1.11,1.11,0,1,0-1.11-1.1A1.11,1.11,0,0,0,208,405.78Z"/><path class="cls-6" d="M229.09,404.68a1.11,1.11,0,0,0,1.11,1.1v-2.21A1.11,1.11,0,0,0,229.09,404.68Z"/><path class="cls-6" d="M219.11,416.87a1.11,1.11,0,1,0-1.11-1.1A1.1,1.1,0,0,0,219.11,416.87Z"/><path class="cls-6" d="M196.93,416.87a1.11,1.11,0,1,0-1.11-1.1A1.11,1.11,0,0,0,196.93,416.87Z"/><path class="cls-6" d="M219.11,394.69a1.11,1.11,0,1,0-1.11-1.11A1.1,1.1,0,0,0,219.11,394.69Z"/><path class="cls-6" d="M196.93,394.69a1.11,1.11,0,1,0-1.11-1.11A1.11,1.11,0,0,0,196.93,394.69Z"/><path class="cls-6" d="M187,426.86a1.08,1.08,0,0,0-.09-.44.81.81,0,0,0-.1-.18,1.07,1.07,0,0,0-.3-.3,1.11,1.11,0,0,0-.62-.19v1.11Z"/><path class="cls-6" d="M186.76,405.3a.87.87,0,0,0,.1-.19,1.07,1.07,0,0,0,.09-.43,1.08,1.08,0,0,0-.09-.44.64.64,0,0,0-.1-.18,1.07,1.07,0,0,0-.3-.3,1.11,1.11,0,0,0-.62-.19v2.21a1.11,1.11,0,0,0,.62-.19A1,1,0,0,0,186.76,405.3Z"/><path class="cls-6" d="M208,383.6a1.11,1.11,0,0,0,1.11-1.11h-2.22A1.11,1.11,0,0,0,208,383.6Z"/><path class="cls-6" d="M230.2,383.6v-1.11h-1.11A1.11,1.11,0,0,0,230.2,383.6Z"/><path class="cls-6" d="M186.76,383.11a.64.64,0,0,0,.1-.18,1.08,1.08,0,0,0,.09-.44h-1.11v1.11a1.11,1.11,0,0,0,.62-.19A1.07,1.07,0,0,0,186.76,383.11Z"/><path class="cls-6" d="M208,470.11a1.11,1.11,0,0,0-1.11,1.11h2.22A1.11,1.11,0,0,0,208,470.11Z"/><path class="cls-6" d="M230.2,470.11a1.11,1.11,0,0,0-1.11,1.11h1.11Z"/><path class="cls-6" d="M208,450.15a1.11,1.11,0,1,0-1.11-1.11A1.11,1.11,0,0,0,208,450.15Z"/><path class="cls-6" d="M229.09,449a1.11,1.11,0,0,0,1.11,1.11v-2.22A1.11,1.11,0,0,0,229.09,449Z"/><path class="cls-6" d="M219.11,461.24a1.11,1.11,0,1,0-1.11-1.11A1.11,1.11,0,0,0,219.11,461.24Z"/><path class="cls-6" d="M196.93,461.24a1.11,1.11,0,1,0-1.11-1.11A1.11,1.11,0,0,0,196.93,461.24Z"/><path class="cls-6" d="M219.11,439.06A1.11,1.11,0,1,0,218,438,1.11,1.11,0,0,0,219.11,439.06Z"/><path class="cls-6" d="M196.93,439.06a1.11,1.11,0,1,0-1.11-1.11A1.11,1.11,0,0,0,196.93,439.06Z"/><path class="cls-6" d="M187,471.22a1,1,0,0,0-.09-.43.69.69,0,0,0-.1-.19,1.07,1.07,0,0,0-.3-.3,1.11,1.11,0,0,0-.62-.19v1.11Z"/><path class="cls-6" d="M186.76,449.66a.69.69,0,0,0,.1-.19A1,1,0,0,0,187,449a1,1,0,0,0-.09-.43.69.69,0,0,0-.1-.19,1.07,1.07,0,0,0-.3-.3,1.11,1.11,0,0,0-.62-.19v2.22a1.11,1.11,0,0,0,.62-.19A1.07,1.07,0,0,0,186.76,449.66Z"/><path class="cls-6" d="M208,428a1.11,1.11,0,0,0,1.11-1.11h-2.22A1.11,1.11,0,0,0,208,428Z"/><path class="cls-6" d="M230.2,428v-1.11h-1.11A1.11,1.11,0,0,0,230.2,428Z"/><path class="cls-6" d="M186.76,427.48a.87.87,0,0,0,.1-.19,1,1,0,0,0,.09-.43h-1.11V428a1.11,1.11,0,0,0,.62-.19A1.22,1.22,0,0,0,186.76,427.48Z"/><path class="cls-6" d="M208,494.51a1.11,1.11,0,1,0-1.11-1.11A1.11,1.11,0,0,0,208,494.51Z"/><path class="cls-6" d="M229.09,493.4a1.11,1.11,0,0,0,1.11,1.11v-2.22A1.11,1.11,0,0,0,229.09,493.4Z"/><path class="cls-6" d="M219.11,483.42a1.11,1.11,0,1,0-1.11-1.11A1.11,1.11,0,0,0,219.11,483.42Z"/><path class="cls-6" d="M196.93,483.42a1.11,1.11,0,1,0-1.11-1.11A1.11,1.11,0,0,0,196.93,483.42Z"/><path class="cls-6" d="M186.76,494a.69.69,0,0,0,.1-.19,1.07,1.07,0,0,0,0-.86.69.69,0,0,0-.1-.19,1.07,1.07,0,0,0-.3-.3,1.11,1.11,0,0,0-.62-.19v2.22a1.11,1.11,0,0,0,.62-.19A1.07,1.07,0,0,0,186.76,494Z"/><path class="cls-6" d="M208,472.33a1.11,1.11,0,0,0,1.11-1.11h-2.22A1.11,1.11,0,0,0,208,472.33Z"/><path class="cls-6" d="M229.09,471.22a1.11,1.11,0,0,0,1.11,1.11v-1.11Z"/><path class="cls-6" d="M186.76,471.84a.69.69,0,0,0,.1-.19,1,1,0,0,0,.09-.43h-1.11v1.11a1.11,1.11,0,0,0,.62-.19A1.07,1.07,0,0,0,186.76,471.84Z"/><path class="cls-6" d="M185.84,381.38a1.11,1.11,0,0,0-1.11,1.11h1.11Z"/><path class="cls-6" d="M163.66,425.75a1.11,1.11,0,0,0-1.11,1.11h2.22A1.11,1.11,0,0,0,163.66,425.75Z"/><path class="cls-6" d="M185.84,425.75a1.11,1.11,0,0,0-1.11,1.11h1.11Z"/><path class="cls-6" d="M163.66,405.78a1.11,1.11,0,1,0-1.11-1.1A1.11,1.11,0,0,0,163.66,405.78Z"/><path class="cls-6" d="M184.73,404.68a1.11,1.11,0,0,0,1.11,1.1v-2.21A1.11,1.11,0,0,0,184.73,404.68Z"/><path class="cls-6" d="M174.75,416.87a1.11,1.11,0,1,0-1.11-1.1A1.11,1.11,0,0,0,174.75,416.87Z"/><path class="cls-6" d="M152.57,416.87a1.11,1.11,0,1,0-1.11-1.1A1.11,1.11,0,0,0,152.57,416.87Z"/><path class="cls-6" d="M174.75,394.69a1.11,1.11,0,1,0-1.11-1.11A1.11,1.11,0,0,0,174.75,394.69Z"/><path class="cls-6" d="M142.59,426.86a1.08,1.08,0,0,0-.09-.44,1.62,1.62,0,0,0-.1-.18,1.07,1.07,0,0,0-.3-.3,1.11,1.11,0,0,0-.62-.19v1.11Z"/><path class="cls-6" d="M184.73,382.49a1.11,1.11,0,0,0,1.11,1.11v-1.11Z"/><path class="cls-6" d="M163.66,470.11a1.11,1.11,0,0,0-1.11,1.11h2.22A1.11,1.11,0,0,0,163.66,470.11Z"/><path class="cls-6" d="M185.84,470.11a1.11,1.11,0,0,0-1.11,1.11h1.11Z"/><path class="cls-6" d="M163.66,450.15a1.11,1.11,0,1,0-1.11-1.11A1.11,1.11,0,0,0,163.66,450.15Z"/><path class="cls-6" d="M184.73,449a1.11,1.11,0,0,0,1.11,1.11v-2.22A1.11,1.11,0,0,0,184.73,449Z"/><path class="cls-6" d="M174.75,461.24a1.11,1.11,0,1,0-1.11-1.11A1.11,1.11,0,0,0,174.75,461.24Z"/><path class="cls-6" d="M152.57,461.24a1.11,1.11,0,1,0-1.11-1.11A1.11,1.11,0,0,0,152.57,461.24Z"/><path class="cls-6" d="M174.75,439.06a1.11,1.11,0,1,0-1.11-1.11A1.11,1.11,0,0,0,174.75,439.06Z"/><path class="cls-6" d="M152.57,439.06a1.11,1.11,0,1,0-1.11-1.11A1.11,1.11,0,0,0,152.57,439.06Z"/><path class="cls-6" d="M142.59,471.22a1,1,0,0,0-.09-.43,1.14,1.14,0,0,0-.1-.19,1.07,1.07,0,0,0-.3-.3,1.11,1.11,0,0,0-.62-.19v1.11Z"/><path class="cls-6" d="M142.4,449.66a1.14,1.14,0,0,0,.1-.19,1,1,0,0,0,.09-.43,1,1,0,0,0-.09-.43,1.14,1.14,0,0,0-.1-.19,1.07,1.07,0,0,0-.3-.3,1.11,1.11,0,0,0-.62-.19v2.22a1.11,1.11,0,0,0,.62-.19A1.07,1.07,0,0,0,142.4,449.66Z"/><path class="cls-6" d="M163.66,428a1.11,1.11,0,0,0,1.11-1.11h-2.22A1.11,1.11,0,0,0,163.66,428Z"/><path class="cls-6" d="M185.84,428v-1.11h-1.11A1.11,1.11,0,0,0,185.84,428Z"/><path class="cls-6" d="M142.4,427.48a1.74,1.74,0,0,0,.1-.19,1,1,0,0,0,.09-.43h-1.11V428a1.11,1.11,0,0,0,.62-.19A1.22,1.22,0,0,0,142.4,427.48Z"/><path class="cls-6" d="M163.66,494.51a1.11,1.11,0,1,0-1.11-1.11A1.11,1.11,0,0,0,163.66,494.51Z"/><path class="cls-6" d="M184.73,493.4a1.11,1.11,0,0,0,1.11,1.11v-2.22A1.11,1.11,0,0,0,184.73,493.4Z"/><path class="cls-6" d="M174.75,483.42a1.11,1.11,0,1,0-1.11-1.11A1.11,1.11,0,0,0,174.75,483.42Z"/><path class="cls-6" d="M152.57,483.42a1.11,1.11,0,1,0-1.11-1.11A1.11,1.11,0,0,0,152.57,483.42Z"/><path class="cls-6" d="M142.4,494a1.14,1.14,0,0,0,.1-.19,1.07,1.07,0,0,0,0-.86,1.14,1.14,0,0,0-.1-.19,1.07,1.07,0,0,0-.3-.3,1.11,1.11,0,0,0-.62-.19v2.22a1.11,1.11,0,0,0,.62-.19A1.07,1.07,0,0,0,142.4,494Z"/><path class="cls-6" d="M163.66,472.33a1.11,1.11,0,0,0,1.11-1.11h-2.22A1.11,1.11,0,0,0,163.66,472.33Z"/><path class="cls-6" d="M184.73,471.22a1.11,1.11,0,0,0,1.11,1.11v-1.11Z"/><path class="cls-6" d="M142.4,471.84a1.14,1.14,0,0,0,.1-.19,1,1,0,0,0,.09-.43h-1.11v1.11a1.11,1.11,0,0,0,.62-.19A1.07,1.07,0,0,0,142.4,471.84Z"/><path class="cls-6" d="M141.48,425.75a1.11,1.11,0,0,0-1.11,1.11h1.11Z"/><path class="cls-6" d="M141.48,470.11a1.11,1.11,0,0,0-1.11,1.11h1.11Z"/><path class="cls-6" d="M140.37,449a1.11,1.11,0,0,0,1.11,1.11v-2.22A1.11,1.11,0,0,0,140.37,449Z"/><path class="cls-6" d="M131.5,460.13a1.11,1.11,0,0,0-.6-1l-.15,2A1.1,1.1,0,0,0,131.5,460.13Z"/><path class="cls-6" d="M140.37,426.86a1.11,1.11,0,0,0,1.11,1.11v-1.11Z"/><path class="cls-6" d="M140.37,493.4a1.11,1.11,0,0,0,1.11,1.11v-2.22A1.11,1.11,0,0,0,140.37,493.4Z"/><path class="cls-6" d="M131.5,482.31a1.11,1.11,0,0,0-1.11-1.11,1,1,0,0,0-.25,0v2.16a1,1,0,0,0,.25,0A1.11,1.11,0,0,0,131.5,482.31Z"/><path class="cls-6" d="M140.37,471.22a1.11,1.11,0,0,0,1.11,1.11v-1.11Z"/><path class="cls-7" d="M157.66,186.86c4.25-.52,4.22,8.1,4.54,18.64s.9,20.54-3.51,20.71c-3.45.13-4.22-11.19-4.35-20.32S153.06,187.42,157.66,186.86Z"/><path class="cls-8" d="M176.25,147a44,44,0,0,1,2.52-6s-7.58,5.13-10.85,3.69,4.3-10.24,6.55-11.68c0,0-8.6,1.85-9.42-1.84s6.35-10.66,16-15.78,25.61-1.64,33.19-3.69,26.64-10,50-6.35,45.29,13.53,55.33,40.57,4.09,50.41-.62,66.18-11.13,33.54-16.73,34.9-70.14-29-70.14-29l-57-65.56Z"/><path class="cls-9" d="M296,220.14c0-.26-.16-.13-.35,0v.35C295.86,220.36,296,220.24,296,220.14Z"/><path class="cls-9" d="M297.57,184.2c.77.26,5.49-2.65,5.14-3.16-.07-.11,0-.27.23-.35.55-.24.18-1.29.58-1.07.62.34-.16-.43-.17-.5-.71-.84-2.46-.73-2.58-.3,0,.17-.38.32-.76.34-1,.05-.86.58-1.84.73-2.22.33-1.08.91-1.81.78l-.07,4.14A11.48,11.48,0,0,1,297.57,184.2Z"/><path class="cls-9" d="M320,174.84c0,.26-2.85.14-2.36,1,.13.22.08.22-.19,0s-1,0-1,.59-.59.21-.4.55a.28.28,0,0,1-.12.39c-.25.15.13,1.27.6,1.75.27.28,2.12.41,2.13.15,0-.08.34-.12.76-.09,1.27.11.93-.63,1.76-.8s2.26-.68,2.27-1.05.27.23,1.27-.81a4.08,4.08,0,0,1,.31-.3c0-1.44,0-2.91-.12-4.39a3.1,3.1,0,0,0-1.08.72C323.41,172.92,320,174.26,320,174.84Z"/><path class="cls-9" d="M314.78,212c0,.41-1.18.21-.95.84a.37.37,0,0,1-.15.49c-.23.07-.22.17,0,.35s.26.27-.07.39c-1.18.42,1.4,2.54.6,1-.21-.4-.18-.49.15-.43.82.13,1,1.43,2,.62.33-.26.37-.25.19,0s.42.17,1.41-.25c.31-1,1.34-4.43,1.55-5.19C317.55,210.48,314.78,211.6,314.78,212Z"/><path class="cls-9" d="M313,190.42c.33.21.14-.42.58-.31s2.75-1.54,2.61-1.91c-.07-.19,0-.27.23-.19.37.16,1-.71.72-1-.09-.09,0-.09.25,0,.64.25.56-.44-.13-1.11s-.47-.25-1.85-.18c-3.66.2-4.08,1.29-5.08,1.11a1.12,1.12,0,0,0-1,.26c-.19.22-.41.32-.54.24-.34-.21-.06.39-.58.38s-.06.12-2,1.09-1.06,1.43-1.66,1.24-1.57,1.9-.46,3C307,196,312.5,190.13,313,190.42Zm-7.43,1.23c-.08.09-.54-.28-.54-.34C304.18,190.44,305.67,191.51,305.54,191.65Z"/><path class="cls-9" d="M303.84,170.24c-.37.55,2.21-.26,3.67-1.93,1.17-1.34,1.43-.85,1.84-1.47s.68,0,1.35-.68,1-.34.94-.77-.2.58,2.05-1.46c3.93-3.59.46-1.84,1.13-2.83.11-.16-.18-.2-.81-.13-3.17.38-1.66,1.12-2.52.77-.47-.19-4.37,1-4.38,1.31,0,.15-.09.19-.22.1-.31-.19-.62.44-1.89.94s-.77.88-1.25.88-1.49,1.22-1.28,1.23-1,.62-.82,1-.38.28-.39,1c0,.37.1.47.41.37s.36-.09.08.24c-.63.72.57.25.85,1S304.22,169.69,303.84,170.24Zm11.05-8.59c.51,0-.14,1-.14.68C314.35,162.32,314.64,161.65,314.89,161.65Z"/><path class="cls-9" d="M295.85,209.9l0,1.22c.18.3.29.28.56,0,.62-.6.39.41.12.41-.52,0,0,.29.79.42,1.73.3,8.37-4.69,8.28-4.92s0-.28.28-.17.36.06.25-.24c-.25-.69.56.19,1.13-.59s1.31-.71,1.11-1.06.66-.08.57-.55.61-.06.54-.24c-.41-1.08-1.19-.15-.89-.63s-.57-.3-.57-.11-2.25-.09-2.26.24-1.35.13-1.62.4a11.2,11.2,0,0,1-2.53.77c-2.82.62-6.12,2.76-5.59,3.64.11.19,0,.24-.13.29l0,.77C296,209.88,296,210,295.85,209.9Z"/><path class="cls-9" d="M304.9,225.87Z"/><path class="cls-9" d="M306,229.59c0-.66,1.11-.55.92-1.08s.36.36,1.12-1.07c.59-1.11.67-1.51.28-1.52a3.77,3.77,0,0,0-1.25-1.48c-2.37,1.1-2.17,1.39-2.12,1.43h0l-.16,0a4.9,4.9,0,0,0-2.39.65c-.31.19-.6.26-.69.16s-.05.42-.55.41c-1.1,0-3.91,1.78-3.93,2.51a.61.61,0,0,1-.38.51c-.5.17-.51,1.15,0,1.16s.45.58.12.38-.34.37,0,.37-.26.93.2.67.42.43.85.19c.17-.1.21-.05.1.13s0,.29.37.29c.89,0,1.14,1.11,1.36.6s.75.26,1.28-.44.41.28,1.86-1C305.18,230.46,305.94,230.17,306,229.59Z"/><path class="cls-9" d="M298.62,233.52a.25.25,0,1,0,0,.5A.25.25,0,0,0,298.62,233.52Z"/><path class="cls-9" d="M312.65,151.54l-7.81-.13c-1,.5-1.76,1-1.75,1.18,0,.41-1.17.29-.89.9a.36.36,0,0,1-.13.49c-.22.09-.2.18.06.35s.27.25-.05.39c-1.15.5,1.56,2.46.66.95-.23-.39-.2-.48.13-.45.83.09,1.07,1.37,2.07.49.31-.27.34-.27.18,0-.65,1.2,7.75-4,7.84-4.11a.36.36,0,0,0,0-.07h-.34Zm-1.78,1.2c-.31,0-.36-.15,0-.37C311.38,152,310.88,153,310.87,152.74Z"/><path class="cls-9" d="M201.06,179.26c-.07-.1,0-.27.23-.35.55-.23.19-1.28.58-1.06.62.33-.16-.44-.17-.5-.71-.85-2.45-.73-2.57-.3,0,.17-.39.32-.77.33a1.85,1.85,0,0,0-1.17.49l2.43,2.8C200.53,180.06,201.2,179.47,201.06,179.26Z"/><path class="cls-9" d="M274.15,193.66c0-.47,1.19-.44,1.58-1.26s.59-.35.82-1.23c.09-.35.27-.62.41-.62.53,0,.24-.93-.38-1.23-1.61-.77-6.57,2.62-9.09,2.79-.49,0-.21.88-.56.66-.54-.35-.69,2.45-.34,2.25s.16,1.19.93.6c.38-.29.42-.28.27.08s-.06.39.2.29c.52-.18-.14.39,1.68.33,2-.06,4-1.7,3.86-2C273.37,193.85,274.14,194.17,274.15,193.66Z"/><path class="cls-9" d="M295.38,219.91c.11-.57-.78-.85-1.33-.42s-1.49-.11-1.37.38-1.14-.25-1.2.2-.42,0-1,.6c-.25.24-.32.26-.18,0,.3-.49-1.31.84-1.72.79a.27.27,0,0,0-.33.21c-.05.47-.2-.2-1.55.79-.47.34-.9.55-1,.45s-1,.36-.85.63-.39,0-.44.43c0,.15.08.21.23.15.35-.16.3.55.31,1.37,0,.31.94.43,1.17.15s.07-.19-.14-.09c-.45.2-.12-.5.51-.06s.77.42.62.08.7,0,1.46-.58c.31-.24.55-.35.54-.26s.91-.82,2.32-1.91,1-1.67,1.51-1.4.33-.46.65-.21.22-.71.56-.43,1-.07,1.5-.35v-.35C295.48,220.24,295.29,220.33,295.38,219.91Zm-10.07,5.47c-.27,0-.06-1.53.12-1.38C285.8,224.3,285.26,225.75,285.31,225.38Zm6.51-4c0,.06-1-.73,0-.32C292.5,221.33,292.43,221.85,291.82,221.4Zm2.62-.8c-.29-.23-.23-.94,0-.37C294.85,221,294.44,220.67,294.44,220.6Z"/><path class="cls-9" d="M286.61,241.27c.21.11,3.29-1.61,3.25-2,0-.1.2-.17.47-.15.55,0,1.8-1,1.76-1.48a.42.42,0,0,1,.27-.43c.74-.32-.07-1.14-.06-1.2-.61-.7-.82-.08-.59,0s.12,1.79-.26,1.09.22-1.65-.11-1.94-1.22-.14-1.1.13-.13.13-.39,0c-.69-.28-1.56.46-2.3.35-.91-.13-4.44,1.76-4.79,1.78-.66,0-1.66.65-1.53.93s0,.19-.26.06c-.39-.22-1.1.22-.86.54.08.11,0,.17-.21.15a.85.85,0,0,0-.42.09c2.2.91,4.32,1.78,6.33,2.59C286.06,241.51,286.33,241.12,286.61,241.27Zm4.81-3.51c.39.44.39.44-.18.36S291,237.27,291.42,237.76Z"/><path class="cls-9" d="M290.45,201.06c-.29-.2-.16-.26.51-.24,1.25,0,1.51-.68,1.5-.38s.81-.3.62-.61.47.28.74-.35-.44.06-.73-.43.7.53.73-1.11c-.16-.5-1-.22-1.17-.58-.55-.92-3.36,1.13-3.83.73-.16-.14-1,.54-2.22.72-2.42.34-3.47,1.78-3.87,1.52s-.41.43-.78.2-.73.67-1.05.47c-.13-.08-.22-.05-.23.09,0,.34-1.4-.18-1.18.2.09.15-.1.23-.45.18-.74-.09-1.74.58-1.14.61.33,0,.33,0,0,.26s-.3.25-.06.25c.42,0,.09.54-.15.4s-1.24.71-.21.46c.55-.13.61-.09.52.4s0,.51.24.41.31,0,.23.2-.11.35,1.86.59c1,.13,1.28.09,1.14-.15s-.09-.26.08-.15c.39.25,4.95-1.29,6.62-2.77C289.37,200.93,291.24,201.61,290.45,201.06Z"/><path class="cls-9" d="M276.66,162.79c.51-.42.33.71.12.7s-.32.79.87.68a2.7,2.7,0,0,1,1.21.15c.45.23,3.35-1.18,3.94-1.92.17-.23.31-.3.31-.16,0,.39,4-2.55,5.56-2.76.37,0,.09-.82.63-.62s.49-.9,0-.91c0,.24-.37-.51-1-.52-.92,0-.27.45-1.51.34-.48,0-.88,0-.88.13s-.16.16-.33.09c-.5-.21-2.82.71-2.75,1.08.05.21-.09.26-.41.15-.73-.26-.56.35-1.29.34s-.71.89-.74.31-2.68,1.19-2.86,1-.54.71-.2.51.06.76.53.49.06.56-.44.12C276.48,161.12,276.09,163.25,276.66,162.79Zm1.08,0c.32,0-.16,1.08-.15.75C277.27,163.5,277.62,162.76,277.74,162.76Z"/><path class="cls-9" d="M287.46,170.93c0,.3-.06.29-.31,0-.94-1.22-3.47-.14-3.34,0,.31.36-2.09-.46-3.7.89-1.18,1-8.74,1.11-8.17,3.7.18.82-.91,1.81,1.21,3s2.09-.28,2.76-.19,1.18,0,1-.31-.06-.21.11-.1c.44.27,7.45-3.25,8.92-3.56,2-.43,1.44-2.12,1.69-2.12C288.16,172.21,287.48,170,287.46,170.93Zm-13.91,7.54c-.66-.38-.65-.63,0-.25C274.69,178.86,273.55,178.62,273.55,178.47Zm.66-.24c-.08,0-1.15-1.2-.32-.53S274.21,178.29,274.21,178.23Zm-.07-1.16c-.29-.36-.81-.61-.24-.6C274.68,176.48,274.13,177.51,274.14,177.07Zm1.07,1.39c-.55.86-.78-1.1-.47-.28a.25.25,0,0,0,.38.15C275.28,178.24,275.32,178.29,275.21,178.46Zm11.68-7.63c-.09.09-.48.08-.48,0C285.94,170.66,287.08,170.65,286.89,170.83Z"/><path class="cls-9" d="M281,213.53c-.58.42-1,.46-.72.08s-.27.19-1,0c-.28-.06-.4,0-.31.18s0,.28-.1.27c-.43,0-.11-.84-.5-.27s.15.91-.22.66.4-1.12-.44-.72c-.66.31-1.1-.1-1.11.26s-.72-.18-1.11.29c-.59.72-2.23.26-3.12,1s-2.83.2-4.41,1.95c-.51.57-.54.73-.2,1.08.19.2.15.4-.18.72s-.41.43.17.28.51-.09.27.07c-1.11.72,1.4,3.4,7.08-.94,3.84-2.94,7.25-3.79,7.26-4.26,0-.21-.44-.6-.44-.62C281.54,213.2,281.45,213.19,281,213.53Zm-11.71,4.79c-.31.18-.58-.3-.09-.29C269.87,218,269.28,218.38,269.28,218.32Z"/><path class="cls-9" d="M295.88,180.78c.33.5-2.24.21-1.93.66.09.12-.09.2-.39.16-1-.14-6.27,2.16-6.23,3a1.09,1.09,0,0,1-.4.79c-.56.44,0,.64-.36.65s-.14.76.51.73.58.55.25.37c-.14-.08-.2,0-.12.18.17.39,1.15.5,1.13.12,0-.16.15-.18.43-.05,1,.44,4.31-.55,3.89-1.16-.2-.29.38-.31.39,0s1.9-.75,3.24-1.41l.07-4.14-.1,0C296,180.59,295.79,180.65,295.88,180.78Zm-7.59,5.58c-.32.22-.35-.36,0-.38C288.83,186,288.29,186.42,288.29,186.36Zm1,.9c-.68-.13-.7-.66,0-.32C290.45,187.49,289.34,187.32,289.34,187.26Z"/><path class="cls-9" d="M278.31,164.4c0,.06-.58.36,0,.37C278.64,164.78,278.65,164.2,278.31,164.4Z"/><path class="cls-9" d="M271.72,229.2c3.17-.42,0-2.43.57-1.5.45.76-1.1-1.14-2.09.09-.32.39-.33.39-.17,0,.33-.87-1.16.33-2.11.35-.47,0-.09.44-.86.42-.3,0-.47.07-.38.16s-1.14.85-1.3.69-2.59,1.11-2.45,1.34-.77.12-1.89.51l5.22,2.3.28-.23C266.6,233.24,271.54,229.23,271.72,229.2Z"/><path class="cls-9" d="M261.09,156.05c.23-.08.24,0,.06.41s-.18.5.11.46.36.09.31.31c-.09.42.2.5.73.18s-.74.78,1.84.86,1.37-.49,2.13-.38c.57.08,2-.67,1.87-1,0-.11.07-.13.23,0,.42.27,2.67-1.35,2.45-1.39s.59-.64,1-.56,2.87-1.35,2.74-1.71a.34.34,0,0,1,.22-.45c.45-.16.06-.34.07-.4-.93-.94-6-.09-5.81.47.1.31-.38.24-.42-.12s-2,.2-2.72.72c-.26.2-.52.26-.54.13-.05-.34-1.09.08-2.3.43s-.64,1-1.08.73-.85.38-.7.8c.05.14,0,.22-.17.19C260.79,155.63,260.67,156.19,261.09,156.05Z"/><path class="cls-9" d="M268.78,206.69c-.62,0,.35-.28.31-.57-.12-1,.5-.53.32,0s1-.83.43-1.69c0,.06-.24-.4-.24-.17,0,.42-.43-.56-1,0-.25.24-.28.22-.15-.13.24-.61-.37-.51-.38-.17,0,.51-.45-.48-1.15-.11-.37.2-3.08,0-3.15,1-.06.79-.1-.88-1.6.1s-6.68,2.21-6.06,2.72.48.41-.07.28c-.3-.07-.56-.06-.57,0s-.85,1.25-.61.79c.12-.22.07-.28-.12-.17-.4.24-.14.64.41.65s-.26.5-.54.32-.07.57.3.49-.08.6.61.5c.3,0,.39,0,.27.23s-.1.24.1.13c.48-.29,1.28.59,1.28.12,0-.19.16-.19.48,0,.5.28,1.37.14,1.18-.19s1.1.17,1.11-.22c0-.69,0,.89,4.71-1.62C264.74,208.93,269.73,206.72,268.78,206.69Z"/><path class="cls-9" d="M253,174.07c.72.67.79.06,1.06.42s1.82.16,1.94-.22.11-.25.15-.06c.06.38,1.08,0,.84-.3-.12-.15,0-.2.22-.13s.37,0,.21-.3-.11-.35.18-.18c.5.31,1.42.2,1.32-.15,0-.11,8.72-4.4,7.45-6a2,2,0,0,0-2.23.18c0,.07-7.94,1.81-6.84,2.42.58.32-.39-.19-1.59.44-1,.52-1.37.07-1.1,1.1,0,.12,0,.15-.18.08s-1.52,1.3-1.4,1.62S252.13,173.3,253,174.07Zm11.2-5.35c.31-.49.74-.44.76.08s-.1-.52-.69,0C263.89,169.16,263.88,169.15,264.16,168.72Z"/><path class="cls-9" d="M248.45,184.54c-.53,0-1.31.74-1.95,1.32l1.49.38c-2.41,0-1.59.65-.69.68,2.16.08.38,1.5.66.66s-.54-.53-.53.53c0,1.88,1.89.18,2.23.24s2-.63,1.79-.82.47.29,1.67-.36c.6-.33,4.28-1.62,4.28-2s.39.17.63-.23.39.2,1-.37,2.45-.88,3.32-1.81c.56-.59.79-2,.34-2a1.39,1.39,0,0,1-1.08-.26,70.59,70.59,0,0,0-9.65,2.22c-1.82.6-1.55,1.1-2.26,1.09S249.16,184.55,248.45,184.54Z"/><path class="cls-9" d="M254.24,223.15c0-.18.1-.15.25.08.67,1.05-.18-1.93.57-.88.35.48.37.48.62,0,1.21-2.14-.52-3.05-1-2.67-.18.14-.41.19-.49.1s-.1.43-.37.35a6.37,6.37,0,0,0-2.33,1c0,.08-.25.12-.55.09-1.7-.16-1.56.85-2.84.82a6.43,6.43,0,0,0-3.37,1.76l5.27,2.41C252.16,225.36,254.22,224,254.24,223.15Z"/><path class="cls-9" d="M254.85,197.56c-.09-.23,0-.31.19-.22.78.32.39-.71.39-.78-.28-.71-.09.13-.49.12s.09-.25-.24-.77,0,.29-1.72.39c-2.34.13-1,.62-1.59,1-.17.1-.22.06-.11-.11.24-.38-.59-.46-.6.14,0,.35-.05.36-.21.09-.33-.53-.18.21-1.31.19-.4,0-.74.11-.74.25s-.12.2-.26.11c-.37-.23-.55.26-1.66.32-.22,0-.3.14-.2.31s.07.23-.08.13c-.56-.36-2.89,1.05-2.95,1-.4-.12-1.68.55-1.58.83s-.11.43-.36.59c-.67.42-.22,1.06,0,.93s.66.53.3.29-.7.67-.26.44c.24-.13.24-.1,0,.15-.46.48-.41.62.28,1,1,.49.65-.45,1.26.07.26.21.45.17.83-.2s.54-.44.6-.38a5.77,5.77,0,0,0,2.72-.85c0-.15.08-.24.2-.21.7.17,4.13-1.19,3.92-1.55-.09-.15,0-.18.27-.08s.37.07.27-.1.06-.32.37-.39c.81-.2.25-.48,1-.7s.22-.64,1.17-1.22C254.7,198.08,254.92,197.76,254.85,197.56Zm-11.8,6.3c-.34-.21-.3-.94,0-.75C243.64,203.47,243,204.16,243.05,203.86Z"/><path class="cls-9" d="M239.68,167.05c-.32.37,1.1.63,1.58.28a2.15,2.15,0,0,1,1-.35c1,0,4.19-1.83,4.29-2.44,0-.17.1-.22.17-.12s1.78-1,1.83-1.34c0-.14.11-.2.22-.15.39.15,1.09-.2,1-.48s-.06-.23,0-.11c.24.29,1.22-.07,1.08-.39-.06-.16,0-.23.18-.17.34.13.85-1.18.38-1.29,0,.08-1.14-.53-1.21-.08,0,.18-.1.15-.2-.07-.32-.71-9.55,3-9.91,3s-1.48.93-1.32,1.31c.06.14,0,.25-.21.22s-.26,0,0,.23.22.28-.13.29-.41.09,0,.81C239,167.25,239.9,166.8,239.68,167.05Zm.85.26c-.29-.25-.21-.95.05-.38C240.93,167.71,240.52,167.37,240.53,167.31Zm.08-1c-.11.08-.49,0-.48-.05C239.69,166,240.82,166.17,240.61,166.33Zm-.17-1.17c.58.15-.8.18-.74-.15C239,164.37,239.8,165,240.44,165.16Zm-1.68,1c.62.65.23.63.24.57S238,165.34,238.76,166.12Z"/><path class="cls-9" d="M242.75,177.89c0-.37.25.29,1-.43.28-.27.53-.42.53-.33,0,.32.47-.79.49-1.24s-.3-.38-.3-.44c-1.19,0,0,.9-.28,1.16-.1.1-.16,0-.16-.19s-.05-.27-.26,0-.26.28-.19-.12.06-.53-1.67-.29c-3.11.43-2.56,1.09-3.23,1.08-.18,0-.15-.11.08-.25s.26-.25.08-.25c-.46,0-.36.49-1.18.48s-1.73,1-2.15,1-.15.5-.55.5c-.15,0-.19-.12-.1-.26.47-.71-2.86,1-3.41,1-.32,0-1.27,1.1-1.17,1.38.16.46-.36.18-.36.7s1.12.23.54.6.38.86.67.68.27-.06.26.07c0,.33,1.43.21,1.89-.16.2-.16.38-.2.37-.09s.1.05.23-.14c.24-.37,2.71-1.24,2.41-1.55-.08-.08.11-.08.41,0s.52.07.37-.17-.09-.27.08-.16c.37.24,1.08-.08.89-.4C238,180,242.74,178.41,242.75,177.89Z"/><path class="cls-9" d="M234.3,216.89c0-.32,1,.15,1-.24,0-.12,7.39-3.24,7.43-5.55-.42-.64-2.05-.71-1.67-.08.08.14-.08.12-.37-.05-.87-.49-.63.61-1.06.34s-2.26.09-2.11.35-.1.14-.38.07c-.55-.15-2.33.76-3.16.77-1.19,0-2.17,1.21-1.25.56.5-.34.5-.34.06.16s-.37.58-.17.78c.39.41-.29.69-.28.24,0-1.32-1.75-.47-1.76.4,0,.23-.13.36-.26.27-.32-.19-.4,1,0,.72s.07,0-.09.34l1.39,1.6C232.62,217.57,234.3,217.18,234.3,216.89Zm-2.89-1.16c-.42,0,0-.13-.34-.57-.2-.24-.16-.29.19-.22C232.35,215.16,231.4,215.91,231.41,215.73Z"/><path class="cls-9" d="M237.75,191.87c-.2.29-.26.22-.25-.28,0-.65-.6-.9-.83-.34s-1.56-.06-1.8.32c-.09.15,0,.18.28.09s.37-.06.23.14c-.38.59-2.64-.16-2.65.56s-2.15.16-3.78,1c-.93.47-2.92.76-3.42,1.26a6.34,6.34,0,0,1-2.27.89c-.71.13-2.39,1.54-2.39,2,0,.21,2-1.39,1.55-.8-.18.22-.26.42-.17.42s0,.17-.11.34c-.45.53.17.43-.39.87-.76.62-.05,1.65,1.71,1.32.06,0,14.5-5.3,14.54-7.81C238,191.59,237.94,191.6,237.75,191.87Z"/><path class="cls-9" d="M223.92,162.32c.48,0,.58.08.35.22-.91.55,2.2.42,2,0-.07-.13.08-.25.33-.29,1.14-.14,2-1.82,2.48-1.81s5-3.15,6.25-3.65c.79-.33.17-.78.62-.68s0-1.31.67-.74c.28.23.34.23.22,0a.27.27,0,0,1,.05-.38c.23-.08-.12-.74-.12-.8-.47-1-.6-.48-1.8-.25-1,.2-.38.69-1.61.63-2.79-.14-11.58,4.33-10.27,6.83C223.46,162.16,223,162.3,223.92,162.32Zm.14-3.12c.42.27.11,1.08.11.87C224.05,160.07,223.76,159,224.06,159.2Z"/><path class="cls-9" d="M221.78,175.53c0-.46.27.24,1.27-.8.82-.86.71-.26,2-1.56,1.54-1.54,2-1,2.06-1.55,0-.15.07-.21.15-.13.25.26,2.5-1.16,2.6-1.63s0-.39-.25-.25c-.52.29.2-.4.2-.6-.11.09-.37,0-.57-.21-.64-.66-4.59,0-4.6.82,0,.56-1-.26-2.47,1.13-.41.39-3.84,1.74-3.85,2.32,0,.26-2.84.13-2.35,1,.12.22.07.22-.2,0s-1,0-1,.59-.59.21-.4.56a.28.28,0,0,1-.11.39c-.26.14.12,1.27.59,1.75.27.28,2.12.41,2.13.15,0-.09.34-.13.76-.09,1.27.11.93-.63,1.76-.81S221.77,175.91,221.78,175.53Z"/><path class="cls-9" d="M226.12,207.63c0-.39-.33-.22-.33-.26-.44.15-.44-.34,0-.49a10.88,10.88,0,0,0-3.21.18l1.81,2.08C225,208.87,226.12,208,226.12,207.63Z"/><path class="cls-9" d="M220.92,198.54c-.17.43.17.79.15.15S220.92,198.57,220.92,198.54Z"/><path class="cls-9" d="M211.32,188.65c.34.21.14-.43.58-.32s2.75-1.54,2.61-1.9c-.06-.19,0-.27.23-.19.38.15,1-.71.72-1-.09-.1,0-.1.25,0,.64.26.56-.43-.13-1.1s-.47-.25-1.85-.18c-3.65.19-4.08,1.29-5.08,1.11a1.07,1.07,0,0,0-1,.26c-.18.22-.41.32-.54.24-.34-.22-.06.38-.58.37s-.12.11-1.56.88l3.34,3.84C209.87,189.65,211.11,188.52,211.32,188.65Z"/><path class="cls-9" d="M213.18,159.33c.1-.16-.19-.21-.81-.13-3.17.38-1.67,1.11-2.52.77-.48-.19-4.38,1-4.39,1.3,0,.15-.09.2-.22.11-.31-.19-.61.44-1.89.93s-.77.89-1.25.88-1.49,1.23-1.27,1.23-1,.63-.82,1-.38.27-.4,1c0,.38.11.48.41.37s.37-.08.08.24c-.63.73.57.26.85,1.06s1.62-.2,1.25.36,2.21-.26,3.66-1.93c1.17-1.34,1.43-.85,1.84-1.47s.68,0,1.36-.68,1-.34.94-.77-.2.57,2-1.47C216,158.57,212.51,160.32,213.18,159.33Zm-.07,1.22c-.41,0-.12-.68.13-.67C213.75,159.89,213.1,160.85,213.11,160.55Z"/><path class="cls-9" d="M252.7,150.63s-.07-.06-.09-.13h-.25v.3c0,.3.94.42,1.17.15s.07-.19-.15-.1c-.44.2-.11-.5.52-.05s.77.42.62.07.37-.12,1-.31l-2.69-.05C252.74,150.67,252.69,150.76,252.7,150.63Z"/><path class="cls-9" d="M211,149.77l-7.8-.14c-1,.51-1.77,1-1.76,1.19,0,.4-1.16.28-.89.89a.38.38,0,0,1-.12.5c-.22.09-.21.18,0,.34s.27.26,0,.4c-1.14.5,1.56,2.45.67.94-.24-.39-.21-.48.12-.44.83.09,1.07,1.37,2.07.49.31-.28.35-.27.19,0-.66,1.2,7.75-4,7.83-4.12l0-.06H211Zm-1.78,1.2c-.31,0-.36-.15,0-.38C209.74,150.24,209.23,151.26,209.22,151Z"/><path class="cls-9" d="M295.74,209.86q-.69-.27-.06,1a1.63,1.63,0,0,0,.15.27l0-1.22Z"/><path class="cls-9" d="M295.81,209.47l0,.09,0-.77C295.7,208.86,295.51,209,295.81,209.47Z"/><path class="cls-9" d="M187.66,157.09c.55.21.48-.91,0-.91,0,.23-.37-.51-1-.52-.92,0-.27.45-1.51.33-.48,0-.88,0-.88.14s-.15.15-.33.08c-.49-.2-2.82.71-2.74,1.08,0,.22-.1.27-.42.16-.65-.23-.59.22-1.07.32l2.21,2.55c1.1-.59,3.85-2.45,5.08-2.61C187.4,157.66,187.11,156.88,187.66,157.09Z"/><path class="cls-9" d="M297.73,141.83c-.48.08-.29-.54-.07-.34s1.43-.33,1.31-.64.49,0,.35-.42c-.06-.16,0-.22.18-.15s1.15-1,.46-1.33-.6.21-1,.13c-.15,0-.17-.14-.05-.27.42-.46-.58-.11-1.79.44L297,143C297.53,142.56,298.1,141.77,297.73,141.83Z"/><path class="cls-9" d="M312.56,151.42c0-.46,1.5.26,1.12-.31-.14-.2-.09-.28.14-.21.44.13,2.1-1.25,2.08-1.72s-.35-.19-.35-.24c-.43.18-.46-.31-.06-.48.56-.23-4.64.38-5.52,1.16-.24.21-.29.21-.17,0,.23-.43-2.89.77-5,1.81l7.81.13S312.57,151.49,312.56,151.42Z"/><path class="cls-9" d="M312.85,151.5l-.1.05H313C313.06,151.41,313,151.39,312.85,151.5Z"/><path class="cls-9" d="M311.82,132.9c-.38-.38-5.81,3.63-3.23,4.4.32.1.42.19.22.2s-.33.05,0,.25.32.28,0,.68-.25.37,0,.26c.48-.28.06.48.8.68.27.07.5,0,.5-.11s.21-.12.48,0c1.14.66,3.36-1.94,3.21-1.94s.42-.74.69-.57.28-.26.22-.71c0-.1.13-.11.32,0-.69-1.21-1.4-2.38-2.15-3.5C312.3,132.82,311.93,133,311.82,132.9Zm-1.45,5.94c-.2-.56-.2.35-.9-.17s.08-.7.08-.39.59.4.41-.11.55-.52.53.64C310.48,139.25,310.36,138.91,310.37,138.84Zm.1-1.47c.72.62.85,0,.84.28C311.29,138.72,309.26,136.33,310.47,137.37Z"/><path class="cls-9" d="M298.73,119.31c.5,0,.45.59.12.38s-.34.37,0,.38-.25.92.2.66.42.44.85.19c.17-.09.21,0,.1.13s0,.29.37.3c.89,0,1.15,1.1,1.37.6s.74.25,1.27-.44l0,0q-2.06-1.78-4.24-3.34l0,0C298.25,118.32,298.24,119.31,298.73,119.31Z"/><path class="cls-9" d="M300.56,122.1a.25.25,0,1,0,0-.5A.25.25,0,0,0,300.56,122.1Z"/><path class="cls-9" d="M196.09,140.06c-.49.08-.3-.55-.08-.35s1.43-.33,1.31-.64.5,0,.35-.41c-.06-.16,0-.23.18-.16s1.16-1,.46-1.33-.6.22-1,.13c-.15,0-.17-.13-.05-.26.42-.46-.57-.11-1.79.44l-.06,3.76C195.88,140.78,196.45,140,196.09,140.06Z"/><path class="cls-9" d="M294.44,140.57c-2.11,1.19-1.82.22-3.89,1.48-1.68,1-1,2-1.41,1.66-.26-.24-.66.51.2.48.52,0,.53,0,.1.24s-.45.32-.23.77c.33.67,1,.43.6,0s1.4,0,1.14.25.32,1.34.7.91c.54-.6.25.36,1.88-.66.52-.32.88-.61.78-.62s.06-.21.32-.41c.64-.48.29-.77.44-.61s1.2-.16,1.13-.53c0-.21.06-.3.21-.2s.35-.09.61-.31l.06-3.77C296.15,139.67,295.09,140.2,294.44,140.57Zm-2.39,3.81c-.05.24-.66.27.09-.49C292.54,143.49,292.5,143.93,292.05,144.38Z"/><path class="cls-9" d="M286.82,111.66c.17.37-.4,0-.45.44,0,.15.08.21.24.14.34-.15.29.55.3,1.38,0,.3.95.42,1.17.15s.07-.19-.14-.1c-.44.2-.11-.5.51,0s.78.42.62.07.63,0,1.37-.52c-1.18-.58-2.39-1.14-3.61-1.66A.2.2,0,0,0,286.82,111.66Zm.56.42c.37.3-.17,1.75-.12,1.38C287,113.43,287.21,111.94,287.38,112.08Z"/><path class="cls-9" d="M256.52,150c0,.23.91-.82,2.32-1.92s1-1.66,1.5-1.4.34-.46.66-.2.22-.71.56-.43,1.81-.33,1.85-.68c.07-.55-.81.58-.64-.23.12-.57-.78-.85-1.32-.42s-1.49-.11-1.37.38-1.14-.26-1.2.2-.43,0-1,.59c-.25.25-.32.26-.18,0,.3-.48-1.31.85-1.72.79a.28.28,0,0,0-.33.21c-.06.47-.2-.2-1.55.79-.47.35-.91.55-1,.46s-1,.36-.85.62-.39,0-.44.44c0,.15.08.21.23.14s.3.39.31,1.08h.25c-.1-.37.07-1.37.22-1.25s.09.9,0,1.25l2.69.05a1.8,1.8,0,0,0,.49-.26C256.29,150.05,256.53,149.93,256.52,150Zm5.36-4.55c.37.76-.05.44,0,.38C261.55,145.62,261.61,144.92,261.88,145.48Zm-2.62.86c.64.25.57.77-.05.32C259.21,146.72,258.2,145.93,259.26,146.34Z"/><path class="cls-9" d="M278.89,129.72c.34-.07.38,0,.15.19-.62.58-.16,2,.6,1.86.29-.07.34,0,.18.2-.43.5,1.19.08.92.42s1.32.47,1.47-.31c.06-.31.1-.28.23.14.2.72.09-.12.65,0s.61-.67,1.08-.6,1.95-1,1.91-1.27c0-.1.17-.09.44,0,.68.28.42-.48.77-.2s.79-1,1.28-.77c.2.1,3.29-1.62,3.24-2,0-.1.2-.16.48-.14.55,0,1.79-1,1.75-1.48a.45.45,0,0,1,.27-.44c.75-.31-.06-1.14-.06-1.2-.61-.7-.82-.07-.58,0s.12,1.79-.26,1.09.22-1.65-.12-1.93-1.22-.14-1.1.12-.12.13-.39,0c-.68-.28-1.56.46-2.3.36-.91-.14-4.43,1.76-4.78,1.78-.67,0-1.66.64-1.54.92s0,.2-.25.07c-.4-.22-1.1.21-.86.53.08.11,0,.18-.21.15C281.06,127.08,277.6,130,278.89,129.72Zm14.49-3.88c.39.44.39.44-.18.36S292.94,125.35,293.38,125.84Zm-12.68,5.24c.4.06-.83.54-.81.39C279.58,131.43,280.36,131,280.7,131.08Zm-1.49-.21c-.46-.07-.49-.22.05-.34C280.12,130.35,279.17,131.15,279.21,130.87Z"/><path class="cls-9" d="M269.56,107.14c-.42.41-.41.43.17.27.42-.11.5-.09.26.07-1,.66.94,2.89,5.47.17-1.92-.52-3.87-1-5.84-1.37l.11.13C269.93,106.61,269.88,106.82,269.56,107.14Z"/><path class="cls-9" d="M273.37,143.82c-.18.11-.22.06-.11-.11.24-.38-.34-.35-.37-.12-.14,1.17-.44,1.59-.76,1.06-.53-.86,0,1.53.73,1.41s.15.71.68.78a3.1,3.1,0,0,0,2.37,0c1.15-.57.29.31,1.95-1.24s2.87-2.25,2.66-2.59c-.09-.16,0-.18.17-.06s.28.1.18-.18,0-.36.38-.25.46,0,.35-.14c-.26-.45.29.13,1.24-1.21.36-.52.65-.84.65-.72s.16,0,.39-.18c.57-.56-.1-1.07.33-.79,1,.62-.63-1.22-.25-1,.17.1.31.06.32-.1,0-.89-1.26.68-1.72.52s-.19.55-.53.33c-.51-.33-6,3-6.64,3.11C273.12,142.72,273.74,143.61,273.37,143.82Z"/><path class="cls-9" d="M261.47,123.22c1.49.59,1.66.59,2.2,0s.51-.49.35-.1c-.43,1.09,2.59-.1,4.47-1.76.06,0,5-4.07,5.18-4.09,3.17-.42,0-2.44.57-1.51.45.76-1.1-1.13-2.09.09-.32.4-.33.4-.17,0,.33-.86-1.16.33-2.11.35-.47,0-.09.44-.86.43-.3,0-.46.06-.37.15s-1.15.86-1.31.7-2.58,1.1-2.45,1.33-1.19.09-2.64.83c-1.06.54-.79.9-.57.77s.26.68-.1,1.1S260.67,122.9,261.47,123.22Zm3.68-2.41c.48,0,.19.43-.13.42S264.68,120.8,265.15,120.81Z"/><path class="cls-9" d="M270.85,131.24c-.37.22.11-.46-1-.15-.45.12-.75.12-.75,0,0-.68-3.36.26-4.51,1.26-.48.42-.57.44-.45.11.27-.73-8,2.21-7.74,3.09.12.38.09.4-.13.08-.51-.73-.39.49-1.19.48-.59,0,.07,1.16-.27.93s-.64,1.52.46,1.36c.12,0,.15,0,.09.16s.56,1.13.59.39c0-.41,0-.41.21,0s.24.4.37.19c.25-.41,1.52.26,1.63.43.58.9,5.73-1.76,5.61-2.2-.05-.15,0-.2.09-.11.24.26,2.14-.69,2.14-1.06,0-.2,5.57-3,4.76-3.88-.18-.2-.19-.26,0-.16C271.18,132.43,271.13,131.07,270.85,131.24Zm-14.23,6.88c-.12,0-.48-.85-.14-.62S256.62,138.29,256.62,138.12Z"/><path class="cls-9" d="M265,121.23c.32,0,.61-.41.13-.42S264.7,121.23,265,121.23Z"/><path class="cls-9" d="M247.19,115c-.1-.36-.08-.35.16,0,.92,1.48,8.81-2,8.84-3.76,0-.18.1-.15.25.08.67,1-.18-1.93.58-.88.34.48.36.48.62,0,1.2-2.15-.52-3.06-1-2.68-.18.15-.4.2-.49.11s-.1.43-.37.35a6.24,6.24,0,0,0-2.32,1c0,.08-.25.13-.55.1-1.7-.17-1.56.84-2.85.82s-3.91,1.77-3.93,2.66C246.11,114.85,247.47,115.87,247.19,115Z"/><path class="cls-9" d="M242.08,129c.31-.18.55.49.35,1s.25.2.79.77,1.11.48.6.13.12-.31.35-.07.93.34.75,0,0-.22.25-.12c1.48.57,6.91-3.94,7.18-4s-.07-.43.32-.46c.8-.07,2.07-.78,2.09-1.71-.31-.06-.58.1-.49-.3s-1.46-.7-1.16-.17c.16.27.12.28-.18.05-.51-.41-1.22-.35-1.25.11,0,.25-.08.29-.15.1-.16-.41-.88-.43-1.28,0-.06.06-6.51,1.6-6.24,2.07s-.53-.34-1.07.52c-.28.45-.28.51,0,.38s.12,0-.16.22c-.72.55.11.22.1.65,0,.15-.09.21-.2.14C242.39,128.08,241.77,129.18,242.08,129Zm2.6.13c.7.56.32.59.32.53S243.85,128.45,244.68,129.12Z"/><path class="cls-9" d="M236.15,147.53c.11,2.31.57.65.36.38-.59-.73,1.13-.75.57-.41s0,1.15,0,1.74c0,.22.11.23.36,0s.45,0,.32.79c0,.27.07.23.36-.11s.35-.36.27-.19c-.26.52.8.35.7,0,0-.08.18-.09.42,0,.48.14.68,0,2.05-1.2,1-.9,1.15-.55,1.34-1s1.68-.26.91-1.31c-.41-.56,0,.06.42-.3a.74.74,0,0,1,.57-.19,8.63,8.63,0,0,0,2.6-2.58c0-.36,1.33.11,1.22,0a1,1,0,0,1-.12-.4c-.12-.48-1.27-1.07-1.47-.76a.27.27,0,0,1-.39.07c-.32-.2-3,.83-3,1.15,0,.14-.11.17-.25.07-.36-.22-.17.46-.48.26s-.35,1-.82.33c-.2-.27-.29-.29-.39-.05s-.23.25-.36.17C240.92,143.72,236,145.33,236.15,147.53Zm8.95-4.1c.45.72,0,.44,0,.38C244.78,143.6,244.77,142.9,245.1,143.43Zm-1.8,3.1c.55-.32,0,.67,0,.37C243,146.9,242.94,146.74,243.3,146.53Zm-6.27.37a.31.31,0,0,1-.5,0C236.18,146.53,237.39,146.55,237,146.9Z"/><path class="cls-9" d="M227,121.46c0-.93-1.26,1-1.62.67s.09.44-.79.9c-1.71.87,0,2.92.31,2.17.14-.37.23-.28,1.37.69-.33-.11-1.26-.5-1-.12.1.16.05.28-.13.28-1.06,0,1.52.77,1.53.25,0-.11.17-.14.37-.06.53.2.6-.71.9-.52s1.87-1.42,2.1-1.18.06-.41.45-.41,2-.77,1.86-1,.1-.22.38-.22c.75,0,.39-.85.75-.62s1.08-.71.85-1c-.1-.11-.05-.12.13,0s.31,0,.32-.27,0-.39.25-.07c.3.47,0,0,1-.45s.32-.68,1-.85.7-.91.15-.92c0,.06-.38,0-.23-.28s0-.22-.39-.11-.53.08-.42-.08-.07-.19-.52-.07c-1.07.27-.21.62-1.5.64s-1.1.64-1.49.55c-.55-.12-1.86.33-1.87.64s-.3.45-.65.1-1.38.14-1.54.71a.64.64,0,0,1-.71.49C227,121.32,227,122.11,227,121.46Z"/><path class="cls-9" d="M236.38,135.41c0,.65.4.87.54.26.1-.44-.16-.34-.16-.4-.43,0,.21-1.32-.3-.82a.58.58,0,0,1-.72.05c-.47-.27-1.5-.09-1.5.25s-1.09.12-.9.43c.07.13-.1.17-.4.08s-.48,0-.36.16.06.27-.14.23a11.73,11.73,0,0,0-4,1.83c-.19.21-3.53,1.07-4.73,2.34-.44.47-.44.49,0,.34.3-.09.21,0-.22.32-.61.41-.66.52-.35.79s.39.23.49,0,.28.69-.46.73c-.37,0-.42,0-.17-.16s.25-.26.07-.38c-.5-.34-.22.95-.22,1.33s.07.25.29-.05.79-.59.52-.17.36.37.37-.05,1,1.11.83,1.38,1.72.31,1.54,0,.7-.59.49-.27c-.59.92,1.25-.73,1.54-.72s.51-.31.75-.7a3.87,3.87,0,0,1,1.28-1.15c1.21-.62.94-1.11,1.44-1.1s3.28-3.2,4.05-3.18c.23,0,.15-1.28-.1-1.71C235.74,134.78,236.43,134.61,236.38,135.41Z"/><path class="cls-9" d="M210.92,149.65c0-.46,1.49.25,1.11-.32-.14-.2-.09-.27.14-.21.44.14,2.1-1.24,2.08-1.72s-.35-.19-.35-.23c-.43.18-.46-.32-.06-.48.56-.24-4.63.37-5.51,1.15-.25.21-.29.21-.18,0,.24-.44-2.89.77-5,1.8l7.8.14A.12.12,0,0,1,210.92,149.65Z"/><path class="cls-9" d="M211.21,149.72a.27.27,0,0,1-.11.05h.25C211.41,149.64,211.37,149.61,211.21,149.72Z"/><path class="cls-9" d="M215.22,116.23c.9-.15.06,0,0,.59,0,.25-.07.29-.14.11-.19-.5-.57-.73-.61,1.24,2.06-1.76.52-.5,1-.2s-.18.64.21.65c.54,0,.37-1.91.87-.79.31.68.67.75.68.14,0-.38,0-.39.24-.09s5.78-3.38,5.9-3.45c.93-.57.6-1.19,1-1s2.6-2.09,3-2.08.25-1.24-.1-1.28c-2.26-.24-15.51,5.9-12.22,5.34.26-.05.16.64-.45.52S214.29,116.38,215.22,116.23Zm10.67-6c.58,0-.15.41-.15.35C225.21,110.82,225.61,110.27,225.89,110.28Zm-6.32,5.8c.43.26,0,.51,0,.45C219.27,116.69,219.29,115.91,219.57,116.08Z"/><path class="cls-9" d="M224.16,143c0,.1-.26.25-.54.15s-.38-.11-.05.14C224.6,144.06,224.29,142.66,224.16,143Z"/><path class="cls-9" d="M206.94,135.53c.33.1.43.19.22.2s-.32.05,0,.25.31.28,0,.67-.24.38,0,.27c.49-.28.06.47.8.67.28.08.5,0,.51-.1s.2-.12.47,0c1.15.66,3.36-1.93,3.22-1.93s.41-.74.68-.57.28-.27.22-.72c0-.09.15-.11.35,0,.53.21,1.68-1.34,2.68-1.83.37-.18,2.14-1.64,1.1-2.56-1.42-1.26-1.17-.1-2.25-.32-1.79-.37-4.36,1.88-4.69,1.57S204.37,134.75,206.94,135.53Zm1.88.06c.72.63.85,0,.85.28C209.65,137,207.61,134.55,208.82,135.59Zm-.92.91c0,.35.59.4.42-.1s.54-.53.52.63c0,.45-.12.1-.12,0-.2-.56-.2.35-.9-.18S207.91,136.2,207.9,136.5Z"/><path class="cls-9" d="M202,113c-.21-.22,0,.42-.54.41-1.11,0-3.92,1.78-3.93,2.51a.6.6,0,0,1-.39.51c-.5.17-.5,1.15,0,1.16s.45.58.12.38-.33.37,0,.37-.25.93.21.67.41.43.84.19c.17-.1.21-.05.1.13s0,.29.37.29c.89,0,1.15,1.11,1.37.6s.75.26,1.27-.44.41.28,1.86-1c2.28-2,3.05-2.27,3.06-2.85s1.1-.55.92-1.08.35.36,1.12-1.07c.43-.81.58-1.24.48-1.42-1.61.06-3.35.06-5.17,0a4.54,4.54,0,0,0-1,.41C202.35,113,202.05,113.05,202,113Z"/><path class="cls-9" d="M198.91,120.33a.25.25,0,1,0,0-.5A.25.25,0,0,0,198.91,120.33Z"/><path class="cls-9" d="M192.8,138.79c-2.12,1.2-1.82.22-3.9,1.49-1.68,1-1,2.05-1.4,1.65-.27-.23-.67.51.2.49.51,0,.52,0,.09.23s-.45.33-.23.78c.33.67,1,.42.6,0s1.4-.05,1.14.24.32,1.35.71.92c.53-.6.24.35,1.87-.66.52-.32.88-.61.79-.63s.05-.2.32-.41c.63-.48.29-.76.43-.61s1.2-.16,1.14-.53c0-.21.05-.29.2-.2s.36-.08.61-.31l.06-3.76C194.5,137.9,193.44,138.43,192.8,138.79Zm-2.4,3.82c0,.24-.65.27.1-.49C190.9,141.71,190.85,142.16,190.4,142.61Z"/><path class="cls-9" d="M190.16,125.62c0-.1.2-.17.48-.15.55,0,1.8-1,1.75-1.48a.45.45,0,0,1,.27-.43c.75-.32-.06-1.14,0-1.2-.62-.7-.83-.08-.59,0s.12,1.79-.26,1.09.22-1.65-.11-1.94-1.22-.14-1.11.13-.12.13-.38,0c-.69-.28-1.57.46-2.31.35-.91-.13-4.43,1.76-4.78,1.78-.67,0-1.66.65-1.53.93s0,.19-.26.06c-.4-.22-1.1.22-.86.54.08.11,0,.17-.21.15-.8-.12-4.26,2.79-3,2.52.34-.08.38,0,.15.18-.62.59-.16,2,.6,1.86.29-.06.35,0,.18.2-.43.51,1.2.08.92.43s1.32.47,1.47-.31c.06-.32.11-.29.23.13.2.72.09-.11.65,0s.62-.67,1.08-.6,2-1,1.91-1.27c0-.1.18-.1.44,0,.68.28.42-.48.77-.19s.79-1,1.28-.78C187.12,127.69,190.21,126,190.16,125.62Zm1.57-1.55c.39.44.39.44-.18.36S191.29,123.58,191.73,124.07Zm-14.16,5c-.47-.06-.5-.22,0-.33C178.48,128.58,177.53,129.37,177.57,129.09Zm.67.61c-.31,0,.47-.44.81-.39S178.22,129.84,178.24,129.7Z"/><path class="cls-9" d="M178.88,141.21c-.1-.17,0-.19.16-.06s.28.09.18-.19,0-.35.38-.24.47.05.35-.14c-.26-.45.29.13,1.24-1.21.36-.52.65-.84.65-.73s.16,0,.39-.18c.57-.55-.1-1.06.33-.79.95.62-.62-1.22-.25-1,.18.1.31.06.32-.09,0-.89-1.26.68-1.72.52s-.18.55-.53.33c-.51-.33-6,3-6.64,3.11-2.26.4-1.65,1.29-2,1.51-.17.1-.22.06-.11-.12.24-.37-.34-.34-.37-.12-.14,1.18-.44,1.59-.76,1.07-.52-.87,0,1.53.73,1.4.31-.05.38.07.41.22a31.19,31.19,0,0,0,7.15-3.55c-.19.31-.39.71-.6,1.15C178.71,141.65,179,141.39,178.88,141.21Z"/><path class="cls-9" d="M169.13,130.58c-.18-.2-.19-.27,0-.16.41.24.37-1.12.08-.95s.11-.46-1-.16c-.45.13-.75.12-.75,0,0-.4-1.14-.24-2.33.16a3.53,3.53,0,0,0-.09,1.66,2.6,2.6,0,0,0,1.76,1.82C168.19,132.07,169.56,131.06,169.13,130.58Z"/><path class="cls-10" d="M176.25,147c-5.47,5.74-12.3,23.77-12.3,37.43s1.92,21.58-2.18,26.77S148.11,223.73,148.11,227s15.84,5.74,16.66,8.19.28,6,1.92,7.11,12.84-1.1,16.11-1.37,6.83,1.64,3,6.56-13.66,8.19-15.3,10.11,4.1,7.1,5.74,13.38.82,17.21,12.84,19.95,28.14-7.11,33.87-3.28,14.76,38.52,14.76,38.52,38.52,17.48,45.07,16.12,33.6-32.24,37.7-46.45c0,0-9-18.57-12.84-29A127.18,127.18,0,0,1,302.19,247S288,234.11,285,227.28a32.44,32.44,0,0,0,20.21-16.94c6.83-13.93,8.47-30.05-1.64-39.88s-29.09-7.51-38,3.28c-7.8,9.48-10.65,24.86-10.65,31.14a62.65,62.65,0,0,1-22.41-9.83C221.87,187.4,220,174.28,217,168.27a46.17,46.17,0,0,0-7.44-10.51s-3.69,2.86-5.12,1.43,3.48-10.86,3.48-10.86-9.58,8.5-11.68,7.58c-3.28-1.43,2.25-10,2.25-10s-9.22,9.63-11.88,7,2.05-10.25,2.05-10.25-7.79,6.56-10.25,6.15S176.25,147,176.25,147Z"/><path class="cls-11" d="M168.12,184.39c4.71-3.48,16.39-2.87,21.1-.61"/><path class="cls-12" d="M290.3,185.35c-4,6.28-17.21,25.13-17.21,25.13"/><path class="cls-12" d="M285,227.28c-6,1.5-11.89-1.23-11.89-1.23"/><g class="cls-13"><path class="cls-14" d="M208.76,243.59c-5.83-.05-8.75-4.42-8.67-13s3.08-12.84,8.9-12.78,8.75,4.42,8.67,12.94S214.58,243.64,208.76,243.59Z"/></g><path d="M180.35,204.94c0,2.43-.92,3.67-2.72,3.67s-2.73-1.24-2.73-3.67.92-3.67,2.73-3.67S180.35,202.51,180.35,204.94Z"/><path class="cls-15" d="M166.69,242.31c1.64,1.09,12.84-1.1,16.11-1.37s6.83,1.64,3,6.56-13.66,8.19-15.3,10.11"/><path class="cls-7" d="M175.43,183.57c6.68-.77,9,8.61,9.7,19.81s1.91,21.82-7.52,22c-7.37.14-9-11.88-9.28-21.58S168.33,184.39,175.43,183.57Z"/><path class="cls-7" d="M162.32,205c2.86-1.78,5.87.27,5.87.27"/><path class="cls-16" d="M184.72,192.45s36.19-6.56,49.44-9.56,23.91-4.49,27.19-2.73"/><path class="cls-17" d="M230.61,349.12c5.74,10.39,29,20.22,29,20.22l20.22-26.23"/><path class="cls-17" d="M284.43,342.57c7.92,4.1,24.31,20.21,26.23,20.21s16.39-14.2,22.67-25.13,12.57-26.23,12.57-26.23"/><path class="cls-17" d="M406,433.54c1.64,19.12,13.93,61.74,20.76,78.95s21.31,78.68,21.31,78.68"/><path class="cls-17" d="M391,443.38c3,15.84,21,32,25.14,36.33"/><path class="cls-17" d="M219.41,722.58c-2.18-10.39-10.11-54.92-13.11-68.58s-11.75-37.7-17.76-47S176,579.15,177.61,558.66s5.74-47.26,2.46-57.64-12.56-37.43-12.56-37.43"/><path class="cls-17" d="M159.86,480.26c4.64,6.28,19.12,25.68,21.85,32.23"/><path class="cls-17" d="M287.16,751.53c-1.36-16.11-5.73-82.5-4.09-99.44s-6-149.16-6.83-180.85-1.64-120.48-1.64-120.48"/><circle class="cls-18" cx="284.98" cy="357.32" r="2.94"/><path class="cls-18" d="M288.19,416.06a2.94,2.94,0,1,1-2.94-2.95A2.94,2.94,0,0,1,288.19,416.06Z"/><circle class="cls-18" cx="285.52" cy="474.79" r="2.94"/></g></g></g></svg>