<svg xmlns="http://www.w3.org/2000/svg" id="Layer_1" data-name="Layer 1" viewBox="0 0 280 280"><defs><clipPath id="clip-path"><circle id="SVGID" class="cls-1" cx="140" cy="140" r="129"/></clipPath><style>.cls-1{fill:#e17661}.cls-15,.cls-18,.cls-9{fill:none;stroke-linecap:round;stroke-linejoin:round}.cls-9{stroke:#010101}.cls-4{fill:#153745}.cls-15,.cls-18,.cls-9{stroke-width:.86px}.cls-11{fill:#e3d0bb}.cls-14{fill:#455461}.cls-15{stroke:#fff}.cls-16{fill:#fdece1}.cls-17{fill:#df6d58}.cls-18{stroke:#df6d58}</style></defs><circle id="SVGID-2" data-name="SVGID" class="cls-1" cx="140" cy="140" r="129"/><g style="clip-path:url(#clip-path)"><path d="M47.34 161.07c-9.73 14.3-22.31 45.76-24 55.48" style="stroke-width:2.15px;stroke:#010101;fill:none;stroke-linecap:round;stroke-linejoin:round"/><path class="cls-4" d="m-2.42 408.73 2.28-116.11c.58-28.6 4-51.47 10.3-62.34a117 117 0 0 1 13.73-18.88S33 229.13 33 245.15s-2.86 68.64-3.43 97.23-1.15 65.78-1.15 65.78Z"/><path d="M98.24 80.42c2.86-11.15 11.73-34 18-38.32s27.74-6 36.61-4.86 15.44 2.86 18.58 10.87 7.44 34 7.44 34Z" style="fill:#ef9657"/><path d="M104.78 61.45a154.22 154.22 0 0 0-6.54 19l80.65 1.72s-1.71-10.35-3.76-20a118.17 118.17 0 0 0-25.41-4.3c-15.65-.81-30.83-.43-44.94 3.58Z" style="fill:#1e4f61"/><path d="M72.5 113.31c-2.48-10.85 1.43-22.88 14-30.6s35.17-14 63.2-11.15 46.61 12 53.19 24c5.69 10.39 4 22.59 0 30.31s-21.73 24.31-65.2 22.6-62.9-25.15-65.19-35.16Z" style="fill:#a86737"/><path d="M150.48 84.62c10-.58 27 3.71 36.42 12.58s7.81 13.54 13.53 19.83 17.54 5.15 22.69 12.58 1.24 13.16 7.53 18.88 11.44 3.14 14.3 11.72-2.57 12.59 1.43 19.73 12 13.45-.86 36.32S43.9 237.71 43.9 237.71s4-83.79 19.74-109.24 63.77-41.18 63.77-41.18Z" style="fill:#fdcc5c"/><path d="M227.56 171.44c-.07.05-.19 0-.25-.16-.17-.38-.89-.11-.75-.39.23-.44-.3.12-.34.12-.59.51-.48 1.72-.18 1.8.11 0 .22.27.24.53.05.72.42.6.53 1.28.26 1.54.65.74.57 1.25v.07c0 .21 0 .33.1.26.34-.23.17 1.57.48 1.34.08-.06.13.06.11.27-.08.73 1.58 4.35 2.19 4.31a.77.77 0 0 1 .55.27c.32.39.45 0 .46.24s.54.09.51-.36.37-.41.25-.18 0 .14.12.08c.28-.12.34-.81.08-.79s-.13-.1 0-.29c.29-.69-.44-3-.86-2.71-.2.14-.22-.26 0-.27a9.2 9.2 0 0 0-1-2.24 8.28 8.28 0 0 1-.44-.89c.07-.54-2.02-3.8-2.37-3.54Zm4.28 9.26c.37-.79.27 0 .23 0-.07.46-.46.49-.23 0Zm-.39.73c.15.23-.25.25-.26 0-.03-.37.3 0 .26 0ZM208.28 124.3c.22-.07.17.26-.08.29s.17 1.42.54 1.9c.14.18.18.35.09.37s.07.76.33 1.6.72.43.52.75.28.58.57.47c.1 0 .16 0 .14.12s.35.32.24 0 0-.17.28 0 .36.11.32-.09.06-.25.21-.22c.3.06.35-.14.12-.51s.56.5.58-1.29-.35-1-.29-1.49-.49-1.37-.72-1.29c-.08 0-.09-.05 0-.16.18-.29-1-1.84-1-1.69s-.45-.4-.39-.71a.67.67 0 0 0 0-.22c-.7-.23-1.39-.47-2.07-.73-.07 1.25.33 3 .61 2.9ZM220.21 132.34c.22-.42-.13.27.33 1.1.37.67.06 1 .77.75.09 0 .11 0 .06.13s.93 1.05 1.15 1 .26.59.78 0 0-.55.28-.74.1-1.27-.18-1.35-.17-.08 0-.1 0-.76-.23-.59-.14 0-.09-.15 0-.26-.21-.15-.25.09-.13-.11c.21-.36.12-1-.12-.93-.08 0-3.17-6-4.3-5.12a1.34 1.34 0 0 0 .15 1.55s1.33 5.48 1.74 4.71Zm-.73-5.33c.4 0-.36.07 0 .47.22.24.22.24-.09.06s-.28-.54.09-.54ZM213.81 137.36c.12 0 .1.07-.05.15-.49.23 2.23 6.62 2.2 6.87s.67 1 .93.91c.1 0 .17 0 .15.14s0 .18.16 0 .2-.15.21.1.07.28.57 0c.73-.43.41-1 .59-.88s.42-.77.17-1.1a1.41 1.41 0 0 1-.25-.69c0-.69-1.33-2.9-1.76-3-.12 0-.16-.06-.09-.12s-.73-1.23-.95-1.26-.14-.07-.11-.15c.1-.27-.15-.76-.34-.68s-.17 0-.08 0-.07-.85-.29-.75-.16 0-.12-.12-.84-.58-.91-.25c.06 0-.35.79-.03.83Zm4.67 6.65c.53-.25.3 0 .26 0-.17.23-.66.18-.26-.01Zm-.43 0c.06.07 0 .34 0 .33-.2.3-.11-.49 0-.34Zm-.12 1.29c.45-.44.44-.17.39-.18s-.92.69-.39.17Zm-.69-1.16c.09-.41.13.55-.1.52-.43.5 0-.08.1-.53ZM225.19 141.37c.06.07 0 .12-.14.12s-.19 0 0 .18.19.17-.09.13-.36 0-.17 1.17c.34 2.17.79 1.77.79 2.24 0 .13-.07.1-.18-.05s-.17-.18-.17 0c0 .32.35.24.35.82s.7 1.19.7 1.48.35.1.35.38c0 .1-.08.13-.18.07-.5-.32.72 2 .72 2.37 0 .22.78.87 1 .8s.12.25.49.25.14-.79.41-.39.59-.28.47-.48 0-.18 0-.18.13-1-.13-1.31c-.12-.14-.15-.27-.07-.27s0-.07-.1-.15-.9-1.88-1.11-1.66c-.06 0-.06-.08 0-.29s.05-.36-.13-.26-.18.07-.11 0-.07-.75-.29-.61c0 0-1.19-3.27-1.55-3.27s.2-.18-.31-.69c-.19-.19-.3-.36-.24-.37.23 0-.56-.31-.87-.33s-.26.22-.3.22c.04.71.67-.11.86.08ZM238.61 155.75c.1.49 1.1 1.64 1.43 1.64.14 0-1-1.4-.58-1.07.16.12.3.18.3.11s.11 0 .23.07c.38.31.3-.12.62.26.43.53 1.15 0 .89-1.2 0 0-.17-.47-.46-1.17a18.91 18.91 0 0 0-3.73-1.89 5.74 5.74 0 0 0 .65 1.68 4.46 4.46 0 0 1 .65 1.57ZM214.83 156.3c.52-.29.63 0 .63-.61 0-.33 0-.41.15-.25.39.63.26-1.54-.05-1.37-.08.05-.18 0-.2-.22-.12-.8-1.3-1.4-1.3-1.72s-2.26-3.47-2.62-4.32c-.24-.54-.54-.1-.48-.41s-.92 0-.53-.47c.16-.19.16-.23 0-.15s-.23.05-.26 0-.52.09-.56.09c-.68.35-.33.43-.15 1.26s.48.26.45 1.12c-.04 1.91 3.19 8 4.92 7.05Zm-1.55-.67c.18-.29.75-.09.6-.09 0 .09-.73.3-.6.09ZM223 154.77c-1.1-1.06-.76-1.42-1.11-1.42-.11 0-.15 0-.09-.1s-.84-1.73-1.17-1.8-.28 0-.18.18c.22.36-.27-.13-.42-.13.07.07 0 .26-.14.4-.45.45.09 3.2.63 3.2s-.17.72.82 1.71c.28.28 1.26 2.66 1.66 2.66.19 0 .14 2 .72 1.63.16-.09.15-.06 0 .13s0 .69.42.69.15.41.39.27a.2.2 0 0 1 .28.08c.1.17.88-.11 1.21-.44s.26-1.49.08-1.49-.09-.23-.07-.53c.06-.89-.45-.64-.59-1.21s-.44-1.6-.74-1.6.17-.19-.57-.87-.19-.48-1.13-1.36ZM240.87 157.24c-.36 0-.08.1-.1.1.3.12.55-.13.1-.1ZM231.51 166.07a.78.78 0 0 0 .19.71c.16.12.23.28.18.37s.27 0 .27.4.09 0 .78 1.38 1 .72.89 1.14 1.34 1.07 2.09.28c2-2.12-2.12-5.86-1.93-6.19s-.29-.09-.22-.4-1.11-1.9-1.37-1.8-.18 0-.13-.16-.51-.68-.71-.49-.06 0 0-.17c.17-.45-.31-.39-.77.1s-.17.34-.11 1.3c.18 2.54.95 2.83.84 3.53Zm3.42 3.26c.06.06-.19.38-.23.38-.6.58.13-.47.23-.38ZM220 170.77c.39.26-.21-1.53-1.39-2.53-1-.8-.61-1-1.05-1.27s0-.47-.49-.93-.25-.71-.55-.65.41.13-1-1.41c-2.55-2.7-1.29-.3-2-.76-.11-.07-.14.13-.08.57.3 2.21.8 1.15.57 1.75a7.72 7.72 0 0 0 1 3c.11 0 .14.06.08.16s.31.42.67 1.3.63.53.63.87.88 1 .88.87.45.7.7.56.19.26.72.26c.26 0 .33-.08.25-.29s-.06-.25.17-.06c.51.43.17-.4.73-.6s-.22-1.09.16-.84Zm-5.65-7.51c0 .28-.48.09-.48-.09.01-.35.69.09.49.09ZM243.13 167.47c.15 0 0 1.57.2 1.57s.11.94.3 1.13a7.71 7.71 0 0 1 .57 1.76 8.8 8.8 0 0 0 .66 1.79 47.56 47.56 0 0 1 .69-5 .24.24 0 0 0-.17 0c-.49.18.12-.39-.43-.78s-.51-.9-.75-.76-.07-.46-.4-.39 0-.43-.17-.38c-.75.3-.09.83-.43.63s-.2.43-.07.43ZM208.34 172.12a.27.27 0 0 1 .35.09c.06.15.13.14.24 0s.17-.2.27 0c.37.8 1.7-1.12.66-.47-.27.17-.34.15-.32-.08.05-.58 1-.76.32-1.45-.19-.22-.19-.24 0-.13.85.44-2.85-5.36-3-5.42-.1 0-.11 0 0 .1a.16.16 0 0 1 0 .07v.07a.09.09 0 0 1-.09.06c-.32 0 .16-1-.23-.77-.14.09-.19.06-.15-.1.09-.31-.89-1.45-1.22-1.43s-.13.25-.16.25c.13.29-.22.32-.34 0a10.3 10.3 0 0 0 .87 3.83c.16.16.15.2 0 .12-.31-.16.57 2 1.32 3.44.36.69.7 1.22.85 1.21s.21.82.63.61Zm-.89-6c-.25-.36.47 0 .26 0 .02.18-.09.22-.26-.02ZM235.81 190.12c-.61-.27-.25-.41-.86-.56-.25-.05-.44-.18-.44-.27 0-.38-.65-.16-.85.27-.52 1.14 1.9 4.56 2.06 6.32 0 .34.61.13.46.38s1.72.45 1.57.21.84-.13.41-.66c-.2-.26-.2-.29.06-.19s.27 0 .2-.14c-.14-.36.27.09.21-1.18s-1.24-2.74-1.45-2.66-.11-.43-.47-.43-.32-.83-.9-1.09ZM241.22 178.35c.18 0-.22-.56-.43-.43s.19-.33-.26-.51.05.31-.28.52.35-.5-.79-.5c-.34.12-.14.67-.39.82-.63.4.83 2.34.55 2.67-.09.11.4.66.53 1.54.27 1.69 1.29 2.4 1.12 2.68s.3.28.15.54.47.51.34.73 0 .16.06.16-.11 1 .16.82c.1-.06.15.07.13.31-.06.52.42 1.21.43.79 0-.23 0-.23.19 0s.17.2.17 0 .38-.06.28.11.51.85.33.14c-.1-.39-.07-.43.27-.37s.35 0 .28-.17 0-.22.14-.16.24.07.39-1.31c.07-.72 0-.9-.12-.8s-.18.07-.11-.05c.17-.27-1-3.44-2-4.59-.75-.82-.3-2.14-.67-1.57-.13.2-.18.11-.18-.36-.01-.84-.51-1.01-.29-1.01ZM214.79 185.56c-.15-.12-.2-.22-.11-.22.27 0-1.83-2.76-2-3.84 0-.27-.58-.06-.44-.44s-.64-.33-.64 0c.17 0-.35.27-.35.7 0 .64.32.18.26 1.05 0 .33 0 .61.1.61s.11.1.06.23c-.13.35.53 2 .79 1.9s.19.06.11.29c-.17.51.26.38.26.89s.62.49.22.52.86 1.85.73 2 .5.37.36.13.53-.05.33-.37.39-.05.09.3c-.59.69.9.93.57.54s.49-.23.49-.09.56.21.47-.61a1.83 1.83 0 0 1 .08-.85 5.4 5.4 0 0 0-1.38-2.74Zm.84 3.62c0 .22-.52 0-.52-.1s.75.1.52.1ZM226.13 192.09c.82-1.53-.21-1.45-.16-1.92s0-.82-.23-.7-.15 0-.07-.08c.18-.31-2.36-5.16-2.6-6.18-.32-1.38-1.49-1-1.49-1.15 0-.36-1.52.14-.89.14.21 0 .2 0 0 .22-.84.67-.06 2.42 0 2.33.25-.22-.3 1.46.66 2.57.71.81.88 6.08 2.69 5.65.59-.13 1.29.62 2.09-.88Zm-5.48-9.16c-.13.33-.15-.47 0-.33s.04.33 0 .33Zm5.47 8.88c-.26.47-.43.46-.17 0 .43-.81.28 0 .17 0Zm-.22-.82a.19.19 0 0 0 .11-.27c-.07-.11 0-.14.08-.06.61.34-.76.56-.19.34Zm-.32.59c.38-.49.41-.22.37-.22s-.83.81-.37.22Zm-.86 0c0-.54.72-.17.42-.17-.25.22-.42.59-.42.18ZM250.74 187.58a.15.15 0 0 1 .11 0c-.09-.2-.18-.39-.28-.58a.87.87 0 0 1 0 .4c0 .17.05.25.17.18ZM250.75 188a.43.43 0 0 0 .33.08c-.06-.12-.11-.25-.17-.37-.07.21-.53.05-.16.29ZM251.13 188.23c-.25.16-.68-.29-.42.24s-.06.77.19.77-.11.51.22.77c.51.4.21 1.55.72 2.16.35.43.29 1.24.67 2.06a18.37 18.37 0 0 0-1.38-6ZM216.24 188.66s.27.4.27 0c0-.23-.41-.23-.27 0ZM209.68 200.16c-.14.23.28.58.57.47.1 0 .16 0 .14.12s.35.32.24 0 0-.17.28 0 .36.11.32-.09.06-.25.21-.22c.3.06.35-.14.12-.51s.56.5.58-1.29-.35-1-.29-1.49-.49-1.37-.72-1.29c-.08 0-.09 0 0-.16.18-.29-1-1.84-1-1.69s-.45-.4-.39-.71-1-2-1.23-1.89a.25.25 0 0 1-.32-.15c-.11-.32-.24 0-.28-.05-.64.67 0 4.19.4 4.05.22-.07.17.26-.08.29s.17 1.42.54 1.9c.14.18.18.35.09.37s.07.76.33 1.6.69.42.49.74ZM249 202.82c-.13 0-.14-.1 0-.33s.08-1-.15-.82.11-.77-.16-.77c-.49 0 .61 0-1.19-3.27 0 0-1.63-3.49-1.63-2.83 0 .43-.21-.24-.41-.21-.72.1-.38-.34 0-.23s-.59-.67-1.19-.28c0 0-.27.18-.11.18s-.39.3 0 .67c.17.17.16.2-.09.1-.42-.15-.35.28-.11.28s-.33.31-.06.8c.14.25 0 2.15.71 2.19.55 0-.62.08.08 1.11s1.63 4.64 2 4.2.28-.34.19 0c-.05.21 0 .4 0 .4s.88.58.55.42c-.15-.08-.19-.05-.11.08s.45.09.45-.29.35.17.22.37.4 0 .34-.22.42.05.35-.42c0-.21 0-.28.15-.2s.17.07.09-.07c-.17-.29.43-.86.08-.86ZM223.4 204.14c-.16 0-.17-.08 0-.1s0-.76-.23-.59-.14 0-.09-.15 0-.26-.21-.15-.25.09-.13-.11c.21-.36.12-1-.12-.93-.08 0-3.17-6-4.3-5.12a1.34 1.34 0 0 0 .15 1.55s1.36 5.52 1.77 4.75c.22-.42-.13.27.33 1.1.37.67.06 1 .77.75.09 0 .11 0 .06.13s.93 1 1.15 1 .26.59.78 0 0-.55.28-.74.07-1.31-.21-1.39Zm-4-5.65c-.34-.22-.32-.52 0-.53s-.36.07 0 .47c.34.24.34.24.03.06ZM232.71 207.12c-.16.16.2-.33-.27-1.16-.23-.41-1.18-3-1.43-3s.11-.27-.17-.44.13-.27-.27-.67-.64-1.71-1.3-2.3c-.42-.38-1.39-.53-1.42-.21a.94.94 0 0 1-.16.75 48.48 48.48 0 0 0 1.66 6.71c.44 1.26.79 1.07.79 1.57s.53.35.53.85.53.9.94 1.34l.24-1c.06 1.69.48 1.11.49.47 0-1.5 1-.28.45-.46s-.36.38.38.36c1.31 0 .1-1.32.14-1.56s-.46-1.37-.6-1.25ZM244.15 212.29c-.19-.19-.31-.37-.27-.41a4 4 0 0 0-.63-1.89c-.1 0-.16-.06-.14-.14.1-.49-.89-2.87-1.13-2.71s-.13 0-.07-.19.05-.26-.07-.19-.22 0-.27-.25c-.15-.56-.34-.17-.5-.72s-.45-.14-.87-.8c-.16-.26-.39-.41-.53-.36s-.21 0-.16-.13c.22-.55-.5-.26-.54-.26-.5.2.09.06.09.34s-.18-.06-.54.17.21 0 .29 1.2c.12 1.63.45.68.7 1.09.08.13 0 .16-.08.08s-.31.42.11.42c.24 0 .26 0 .07.15-.37.23.15.12.15.91 0 .28.08.52.18.52s.14.07.08.17c-.16.26.19.38.24 1.15 0 .16.1.22.22.14s.16-.05.09.06c-.24.39.77 2 .76 2-.08.28.4 1.17.59 1.1s.31.06.42.24c.3.46.74.14.65 0s.36-.47.2-.21.48.48.31.18-.07-.17.1 0c.34.31.44.28.67-.21.33-.73-.32-.45 0-.89.18-.17.14-.3-.12-.56Zm.06.5c-.14.24-.65.22-.52 0 .24-.41.73 0 .52 0ZM218.49 213.79c0-.69-1.33-2.9-1.76-3-.12 0-.16-.06-.09-.12s-.73-1.23-.95-1.26-.14-.07-.11-.15c.1-.27-.15-.76-.34-.68s-.17 0-.08 0-.07-.85-.29-.75-.16 0-.12-.12-.84-.58-.91-.25c.06 0-.35.8 0 .84.12 0 .1.07-.05.14-.49.24 2.23 6.63 2.2 6.88s.67 1 .93.91c.1-.05.17 0 .15.14s0 .18.16 0 .2-.15.21.1.07.28.57 0c.73-.43.41-1 .59-.88s.42-.77.17-1.1a1.41 1.41 0 0 1-.28-.7Zm-1.35 1.81c-.43.51 0-.07.1-.52s.13.55-.1.52Zm.91-.65c.06.07 0 .34 0 .33-.2.31-.11-.48 0-.28Zm.27 1.11c0 .06-.92.7-.39.18s.44-.17.39-.18Zm.42-1.07c-.17.2-.66.15-.26 0s.3.01.26.01ZM229.38 219.6c.08 0 0-.07-.1-.15s-.9-1.88-1.11-1.66c-.06.05-.06-.08 0-.29s.05-.36-.13-.26-.18.07-.11-.05-.07-.75-.29-.61c0 0-1.19-3.27-1.55-3.27s.2-.18-.31-.69c-.19-.19-.3-.36-.24-.37.23 0-.56-.31-.87-.33s-.26.22-.3.22c0 .83.63 0 .82.18s0 .12-.14.12-.19 0 0 .18.19.17-.09.13-.36 0-.17 1.17c.34 2.17.79 1.77.79 2.24 0 .13-.07.1-.18 0s-.17-.18-.17-.05c0 .32.35.24.35.82s.7 1.19.7 1.48.35.1.35.38c0 .1-.08.13-.18.07-.5-.32.72 2 .72 2.37 0 .22.78.87 1 .8s.12.25.49.25.14-.79.41-.39.59-.28.47-.48 0-.18 0-.18.13-1-.13-1.31c-.08-.19-.11-.32-.03-.32ZM235.88 216.46c-.17 0-.16 0 0 .17s.16.18-.19.18-.62.43-.23.58 0 1.09.25 1.25c.1.06.12 0 .06-.19s-.06-.26.09-.17c.41.26-.08 1.85.42 1.85s.2 1.19.57 2.24c.84-.35 1.64-.71 2.38-1.08-1.14-2.45-2.5-4.83-3.35-4.83ZM215.56 225c-.08 0-.18-.05-.2-.22-.12-.8-1.3-1.4-1.3-1.72s-2.26-3.47-2.62-4.32c-.24-.54-.54-.1-.48-.41s-.92 0-.53-.47c.16-.19.16-.23 0-.15s-.23.05-.26 0-.52.09-.56.09c-.68.35-.33.43-.15 1.26s.48.26.45 1.12c-.06 1.94 3.17 8 4.9 7.08.52-.29.63 0 .63-.61 0-.33 0-.41.15-.25.41.6.28-1.55-.03-1.4Zm-1.68 1.47c0 .09-.73.3-.6.09s.72-.07.6-.07ZM223 225.72c-1.1-1.06-.76-1.42-1.11-1.42-.11 0-.15-.05-.09-.1s-.84-1.73-1.17-1.8-.28 0-.18.18c.22.36-.27-.13-.42-.13.07.07 0 .26-.14.4-.45.45.09 3.2.63 3.2.29 0 .07.38.31 1 .94-.2 1.87-.41 2.77-.62a4.65 4.65 0 0 0-.6-.71ZM207.09 206.22c.15.31-.35.09 0-.36s.28-.54 0-.43-.09-.26-.23-.67a1.16 1.16 0 0 0-.19-.34c-.17-.21-.25-.38-.19-.37s-.58-.63-1.36-1.6-1.18-.67-1-1-.32-.22-.15-.45-.49-.14-.31-.39-.25-1.25-.49-1.28.42.56-.15.45c-.4-.08-.59.55-.28.93s-.06 1 .28 1-.16.8.16.83 0 .3.42.7c.18.17.19.22 0 .13-.34-.21.61.9.58 1.19a.18.18 0 0 0 .15.22c.32 0-.14.15.57 1.08.24.32.39.62.33.67s.26.68.44.59 0 .27.31.3c.11 0 .15-.05.1-.16s.27-.22.75-.23h.21c.21 0 .28-.67.09-.82s-.13-.14-.04.01Zm-3.58-5.84c-.16.21-.65.17-.26 0s.3.01.26 0Zm.59 1.82s-.5.72-.23 0c.13-.47.54-.43.23 0Zm2.85 4.5s0 .05-.09.07c-.26.07-1 0-.87-.14s.63-.07.87 0 .14.08.14.07ZM147.92 101.86c.12 0 .23.27.24.53.05.72.42.6.53 1.28.27 1.54.65.74.57 1.25a.2.2 0 0 1 0 .07c0 .21 0 .33.1.26.34-.23.17 1.57.48 1.34.09-.06.14.06.11.27-.08.73 1.59 4.35 2.19 4.31a.75.75 0 0 1 .55.27c.32.39.45 0 .47.24s.53.09.5-.36.37-.41.25-.18 0 .14.13.08c.27-.12.33-.81.07-.79-.11 0-.13-.1 0-.29.3-.69-.44-3-.86-2.71-.2.14-.22-.26 0-.27a9.9 9.9 0 0 0-1-2.24 8.28 8.28 0 0 1-.44-.89c.18-.54-1.91-3.8-2.27-3.54-.07.05-.19 0-.25-.16-.16-.38-.89-.11-.75-.39.23-.44-.3.12-.34.12-.68.51-.58 1.72-.28 1.8Zm5.8 7.89c.37-.79.27 0 .23 0-.09.46-.45.49-.23 0Zm-.39.73c.16.23-.25.25-.26 0-.07-.37.3 0 .26 0ZM162.23 85.65l-.3-.06a.29.29 0 0 0 .3.06ZM162.49 85.81a.44.44 0 0 0 .72 0l-.88-.18a.57.57 0 0 1 .16.18ZM161.92 86.44c.1 0-.41-.66-.6-1l-.53-.09c.35.53.9 1.09 1.13 1.09ZM144.91 88.52c.18 0 .13 2 .71 1.63.16-.09.16-.06 0 .13s0 .69.42.69.16.41.4.27a.18.18 0 0 1 .27.08c.11.17.89-.11 1.22-.44s.25-1.49.07-1.49-.09-.23-.07-.53c.06-.89-.45-.64-.58-1.21s-.5-1.58-.76-1.58.16-.19-.58-.87l-.06-.06-3 .35a3.36 3.36 0 0 0 .32.37c.26.28 1.24 2.66 1.64 2.66ZM170.9 91.69c.29 0 .16.82.6.64a.27.27 0 0 1 .34.11c.06.16.12.15.24 0s.19-.18.28 0c.31.81 1.76-1 .68-.43-.28.15-.35.12-.31-.11.09-.57 1-.7.41-1.42-.18-.23-.18-.25 0-.13s0-.62-.52-1.69c-1.19-.46-2.39-.88-3.6-1.27.33 1.26 1.53 4.3 1.88 4.3ZM162.65 86.39c.31.12.55-.13.11-.1s-.09.1-.11.1ZM153.39 95.12a.79.79 0 0 0 .2.71c.15.12.23.28.17.37s.27 0 .27.4.09 0 .79 1.38 1 .72.88 1.14 1.34 1.07 2.1.28c2-2.12-2.13-5.86-1.93-6.19s-.3-.09-.23-.4-1.11-1.9-1.36-1.8-.19 0-.14-.16-.51-.68-.7-.49-.07 0 0-.17c.17-.45-.31-.39-.77.1s-.17.34-.1 1.3c.17 2.54.94 2.83.82 3.53Zm3.42 3.26c.07.06-.18.38-.23.38-.58.58.13-.47.23-.38ZM135.87 94.59a7.72 7.72 0 0 0 1 3c.11 0 .14.06.08.16s.31.42.68 1.3.63.53.63.87.87 1 .87.87.45.7.7.56.19.26.72.26c.27 0 .33-.08.26-.29s-.07-.25.16-.06c.52.43.17-.4.73-.6s-.16-1.13.23-.88-.2-1.53-1.39-2.53c-.95-.8-.6-1-1-1.27s0-.47-.49-.93-.25-.71-.55-.65.4.13-1-1.41c-2.55-2.7-1.29-.3-2-.76-.11-.07-.14.13-.08.57.19 2.25.68 1.2.45 1.79Zm.37-2.28c0 .28-.47.09-.47-.09 0-.35.68.09.47.09ZM165 96.52c.16 0 0 1.57.21 1.57s.1.94.29 1.13a7.71 7.71 0 0 1 .57 1.76c.47 2 2 4.23 2.61 3.86.13-.09.16 0 .2.08s.13.24.48 0h.06c.22-.13.27-.13.23 0a.31.31 0 0 1 0 .08q-.18.48.69 0l.19-.11c.21-.13.19-.21 0-.39-.43-.43.28-.28.28-.09 0 .36.2 0 .28-.56.19-1.21-3.37-5.78-3.53-5.72s-.2 0-.12-.19 0-.25-.17-.17c-.48.18.12-.39-.43-.78s-.51-.91-.75-.76-.06-.46-.39-.39-.05-.43-.18-.38c-.75.3-.09.83-.43.63s-.21.43-.09.43ZM180.7 98.41a.24.24 0 0 0 0 .11 3.5 3.5 0 0 0 .49 1.66c.13.21.18.42.12.48s.29 0 .29.38c0 .77 1.29 2.71 1.8 2.71a.44.44 0 0 1 .36.26c.12.35.81.34.81 0s.4-.32.26-.09.26.23.26 0 .65.17.47-.15.29-.29.12-.59c-.07-.12 0-.14.09-.07s.2 0 .2-.26c0-.63.76-.81.4-1s.17-.53-.32-.89.18-.29-.71-1.28c-1.41-1.57-1.63-2.1-2-2.1s-.39-.76-.76-.63.25-.25-.76-.77c-.79-.4-1.07-.44-1.07-.17a2.66 2.66 0 0 0-1 .89c.72 1.69.92 1.55.95 1.51Z"/><path d="M186.11 102.7a.18.18 0 1 0 .35 0 .18.18 0 0 0-.35 0ZM157.7 119.17c-.62-.27-.25-.41-.87-.56-.24 0-.44-.18-.44-.27 0-.38-.65-.16-.85.27-.51 1.14 1.91 4.56 2.06 6.32 0 .34.61.13.46.38s1.72.45 1.58.21.83-.13.41-.66c-.21-.26-.2-.29 0-.19s.27 0 .2-.14c-.14-.36.27.09.21-1.18s-1.24-2.74-1.45-2.66-.11-.43-.46-.43-.28-.83-.85-1.09ZM176.66 107c.36-.09-.16.8.16.83s0 .3.42.7c.18.17.19.22 0 .13-.34-.21.61.9.58 1.19a.18.18 0 0 0 .15.22c.32 0-.14.15.57 1.08.25.32.39.62.33.67s.26.68.44.59 0 .27.31.3c.11 0 .15 0 .1-.16s.38-.21 1-.23c.21 0 .28-.67.09-.82s-.14-.05-.07.1c.15.31-.35.09 0-.35s.28-.55 0-.44 0-.49-.42-1c-.17-.21-.25-.38-.18-.37s-.59-.63-1.37-1.6-1.17-.67-1-1-.33-.22-.16-.45-.49-.14-.3-.39-.07-.71-.26-1c-.08-.13-.17-.23-.24-.24s-.09.11 0 .24.15.26-.14.21-.59.55-.28.93-.07.96.27.86Zm3 5c.2-.26 1.22.1 1 .07-.09.2-1.13.07-1.03-.07Zm-2.11-4.45c.16-.45.53-.41.22 0 .01.05-.53.76-.25.02Zm-.63-1.82c.53-.27.3 0 .26 0-.18.27-.68.21-.29.02ZM204.12 130.46c.18-.34-.32-.22-.15-.45s-.49-.14-.31-.39-.25-1.26-.49-1.28.42.56-.15.45c-.4-.08-.59.55-.28.93s-.06 1 .28.95-.16.8.16.83 0 .3.42.7c.18.17.19.22 0 .13-.34-.21.61.9.58 1.19a.18.18 0 0 0 .15.22c.32 0-.14.15.57 1.08.24.32.39.62.33.67s.26.68.44.59 0 .27.31.3c.11 0 .15 0 .1-.16s.27-.22.75-.23h.21c.21 0 .28-.67.09-.82s-.14 0-.07.1c.15.31-.35.09 0-.36s.28-.54 0-.43-.09-.26-.23-.67a1.16 1.16 0 0 0-.19-.34c-.17-.21-.25-.38-.19-.37s-.58-.63-1.36-1.6-1.15-.67-.97-1.04Zm-.61-1c-.16.21-.65.17-.26 0s.3-.02.26-.03Zm3.35 6.25c.12 0 .18.08.09.07s0 .05-.09.07c-.26.07-1 0-.87-.14s.63-.1.87-.03Zm-2.76-4.43s-.5.72-.23 0c.13-.5.54-.46.23-.03ZM187.45 108.53c.08 0 .09.08 0 .27-.19.48.34 1.08.27 1.6s1.29 3.07 1.31 3.32c0 .46.46 1.15.66 1s.13 0 0 .18.16.77.38.6.12 0 .11.14c-.07.56 2 2.94 1.79 2 0-.23 0-.26.13-.11.42.43 1.42.09 1.29-.44-.05-.2 0-.24.14-.12.36.29 0-.84.28-.65s.31-.93-.23-1c-.22 0-.2-.07.09-.16.5-.16-.08-.07 0-.46s-.48-.42-.43-.75-.72-1.35-.91-1.31-.07-.12 0-.31c.19-.48-.34-.29-.14-.54s-.73-.54-.56-.88a6.68 6.68 0 0 0-1.41-2.24c-.07 0-.12-.14-.11-.33 0-.38-.73-1.24-1.05-1.2a.32.32 0 0 1-.31-.19c-.23-.51-.79.06-.84.06-.48.43 0 .57 0 .41s1.25-.11.77.17-1.16-.14-1.35.1-.07.92.12.84Zm5.8 8.48c0 .22-.31-.32-.28-.56s.38.55.28.55Zm-.41.48c0 .33-.15.35-.24 0-.13-.63.4.03.24 0Zm-3.68-9.82c.3-.28.3-.28.25.12s-.59.21-.25-.12ZM162.13 107c-.34.22.36-.5-.79-.5-.34.12-.14.67-.38.82-.64.4.83 2.34.55 2.67-.1.11.39.66.53 1.54.26 1.69 1.28 2.4 1.11 2.68s.3.28.15.54.48.51.34.73 0 .16.06.16c.24 0-.1 1 .16.82.1-.06.16.07.13.31-.05.52.42 1.21.44.79 0-.23 0-.23.18 0s.18.2.18 0 .37-.06.27.11.51.85.33.14c-.1-.39-.07-.43.27-.37s.36 0 .29-.17 0-.22.13-.16.25.07.39-1.31c.08-.72.05-.9-.12-.8s-.18.07-.11-.05-1-3.44-2-4.59c-.74-.82-.29-2.14-.67-1.57-.13.2-.17.11-.17-.36 0-.87-.5-1-.28-1s-.23-.56-.44-.43.19-.33-.25-.51.03.28-.3.51ZM133.4 111.86c0 .33 0 .61.1.61s.11.1.07.23c-.14.35.53 2 .78 1.9s.19.06.12.29c-.17.51.25.38.25.89s.62.49.23.52.85 1.85.72 2 .5.37.36.13.53 0 .33-.37.39-.05.09.3c-.59.69.9.93.58.54s.49-.23.49-.09.55.21.46-.61a2 2 0 0 1 .09-.85 5.49 5.49 0 0 0-1.39-2.72c-.16-.12-.21-.22-.12-.22.28 0-1.83-2.76-2-3.84 0-.27-.58-.06-.44-.44s-.63-.33-.63 0c.16 0-.35.27-.35.7.01.62.32.17.26 1.03Zm4.12 6.37c0 .22-.53 0-.53-.1s.76.1.53.1ZM142.59 113.8c.25-.22-.3 1.46.67 2.57.7.81.88 6.08 2.68 5.65.57-.13 1.27.62 2.08-.88s-.22-1.45-.17-1.92 0-.82-.23-.7-.14 0-.07-.08c.19-.31-2.35-5.16-2.59-6.18-.32-1.38-1.5-1-1.5-1.15 0-.36-1.52.14-.88.14.2 0 .2 0 0 .22-.87.67-.08 2.42.01 2.33Zm5.41 7.06c-.25.47-.42.46-.17 0 .44-.8.28 0 .17 0Zm-.21-.82a.18.18 0 0 0 .1-.27c-.07-.11 0-.14.09-.06.61.37-.76.56-.19.29Zm-.33.59c.39-.49.41-.22.37-.22s-.83.81-.37.22Zm-.43-.16c-.26.21-.42.57-.42.17s.72-.17.39-.17Zm-4.5-8.49c-.12.33-.15-.47 0-.33s.05.35 0 .35ZM172.83 114.27c-.15 0-.41.31-.43.31-.26.28-.26.35 0 .67s.34.66.06.49.14.19.05.69c0 .19 0 .27.13.2s.19 0 .19.07c0 .3-.58.09-.18.35s.63-.11.46.15-.79-.26-.5.32-.06.77.2.77-.12.51.21.77c.52.4.21 1.55.72 2.16s.17 2 1.42 3.06c.4.34.51.36.75.12s.28-.1.51.12.3.28.19-.12-.07-.36 0-.19c.52.76 2.36-1-.74-4.93-2.08-2.64-2.71-5.01-3.04-5.01Zm3 9.09c.14.21-.2.41-.2.07s.28-.07.23-.07ZM198.38 115.06c-.1.32.39.12.24.36s2.16 4.13 2.25 4.6c.31 1.58.92 1.14 1.08 1.39s0 .15-.08.08c-.27-.16-.24.24-.08.26.82.09 1.12.29.75.52-.59.37 1.07 0 1-.53s.5-.11.54-.49a2.33 2.33 0 0 0 0-1.43 14.1 14.1 0 0 1-3.66-2.79 23 23 0 0 1-2.27-3c-.08 0-.13.07-.09 0a.22.22 0 0 0 0-.1l-.07-.11c-.61.05.5.91.39 1.24Z"/><path d="M138.39 117.71c0-.23-.4-.23-.26 0 .04 0 .26.4.26 0ZM182.46 122.6c.28.22.28.23 0 .12-.61-.22.25.8.27 1.47 0 .32.31 0 .31.59 0 .21 0 .33.11.26s.61.79.5.9.8 1.8 1 1.7.08.83.61 1.84c.39.72.64.53.55.38s.47-.19.76.06 1 .6 1.2 0c.4-1 .4-1.16 0-1.53s-.34-.35-.07-.25c.77.29-.1-1.8-1.28-3.09 0 0-2.9-3.45-2.92-3.57-.33-2.2-1.7 0-1.06-.38s-.85.82.02 1.5ZM132 123.05c0 .15-.46-.4-.4-.71s-1-2-1.23-1.89a.25.25 0 0 1-.32-.15c-.11-.32-.23 0-.27 0-.65.67 0 4.19.4 4 .21-.07.16.26-.09.29s.17 1.42.54 1.9c.14.18.19.35.1.37-.24 0 .07.76.32 1.6s.72.43.52.75.28.58.57.47c.1 0 .16 0 .14.12s.35.32.24 0 0-.17.29 0 .35.11.32-.09 0-.25.21-.22.34-.14.12-.51.55.5.58-1.29-.36-1-.3-1.49-.49-1.37-.72-1.29c-.08 0-.09-.05 0-.16.15-.3-1.02-1.85-1.02-1.7ZM165.79 125.16c.14.25 0 2.15.71 2.19s-.61.08.08 1.11 1.63 4.64 2 4.2.28-.34.19 0v.4s.88.58.56.42c-.16-.08-.2-.05-.12.08s.45.09.45-.29.35.17.23.37.4 0 .34-.22.42 0 .34-.43c0-.2 0-.27.16-.19s.16.07.08-.07c-.2-.33.4-.9.07-.9-.13 0-.13-.1 0-.33s.08-1-.14-.82.1-.77-.17-.77c-.49 0 .61 0-1.19-3.27 0 0-1.63-3.49-1.63-2.83 0 .43-.2-.24-.41-.21-.71.1-.37-.34 0-.23s-.59-.67-1.19-.28c0 0-.27.18-.11.18s-.39.3 0 .67c.18.17.16.2-.08.11-.43-.16-.36.27-.12.27s-.32.35-.05.84ZM193.86 123.37c.17-.29-.78-.24-.66-.05s-.32-.07-.1.69c.1.31.1.52 0 .52-.47 0 .23 2.34.94 3.13.3.33.31.4.08.31-.52-.18 1.64 5.58 2.25 5.37.26-.09.27-.07 0 .09-.5.37.35.27.35.82s.82-.06.66.18 1.06.43.94-.34c0-.08 0-.11.11-.06s.78-.4.27-.42c-.29 0-.29 0 0-.15s.28-.17.13-.26.16-1.06.28-1.14c.62-.41-1.3-4-1.6-3.88-.11 0-.15 0-.08-.07s-.51-1.48-.77-1.48-2.14-3.85-2.76-3.27c-.06.13-.11.13-.04.01Zm3.88 9.9c.19-.3.55-.1.43-.1s-.58.34-.43.1ZM144.47 131.16c-.07 0-3.17-6-4.3-5.12-.31.24-.2 1.3.15 1.55.05 0 1.36 5.52 1.77 4.75.22-.42-.13.27.33 1.1.38.67.06 1 .78.75.08 0 .1 0 .05.13s.94 1.05 1.15 1 .26.59.79 0 0-.55.28-.74.09-1.27-.18-1.35-.18-.08 0-.1 0-.76-.22-.59-.14 0-.1-.15 0-.26-.21-.15-.24.09-.13-.11c.17-.4.08-1.04-.16-.97Zm-3.15-3.62c-.35-.22-.32-.52 0-.53s-.36.07 0 .47c.31.24.3.24 0 .06ZM151.23 135.89c.45 1.26.79 1.07.79 1.57s.53.35.53.85.53.9.94 1.34l.25-1.05c.06 1.69.47 1.11.48.47 0-1.5 1.05-.28.45-.46s-.36.38.38.36c1.31 0 .1-1.32.14-1.56s-.46-1.37-.6-1.24.2-.33-.27-1.16c-.23-.41-1.18-3-1.43-3s.11-.27-.17-.44.14-.27-.27-.67-.64-1.71-1.3-2.3c-.42-.38-1.39-.53-1.41-.21a1 1 0 0 1-.17.75 48.48 48.48 0 0 0 1.66 6.75ZM178.85 133.23c.33-.25.33-.26 0-.44-1.51-.81-2.13.4-1.86.73.11.12.14.28.08.34s.31.06.25.25a4.37 4.37 0 0 0 .76 1.61s.09.17.07.38c-.09 1.19.61 1.08.61 2s1.28 2.71 1.9 2.71c1.39 0 2.09-1 1.46-.76-.25.08-.25.06 0-.11 1-.66-1.53-6.12-2.72-6.12-.13 0-.11-.07.05-.18.74-.5-1.33.13-.6-.41ZM160.94 133.63c0 .26-.18-.06-.53.17s.2 0 .28 1.2c.12 1.63.45.68.7 1.09.08.13.05.16-.07.08s-.32.42.1.42c.24 0 .26 0 .07.15-.37.23.15.12.15.91 0 .28.08.52.18.52s.14.07.08.17c-.16.26.19.38.24 1.15 0 .16.1.22.22.14s.16 0 .1.06c-.25.39.76 2 .75 2-.08.28.41 1.17.6 1.1s.3.06.42.24c.3.46.74.14.64 0s.36-.47.2-.21.48.48.31.18-.07-.17.1 0c.35.31.45.28.67-.21.33-.73-.32-.45 0-.89.15-.18.12-.31-.15-.57s-.31-.37-.27-.41a4 4 0 0 0-.63-1.89c-.1 0-.16-.06-.14-.14.11-.49-.88-2.87-1.13-2.71s-.13 0-.06-.19 0-.26-.07-.19-.23 0-.28-.25c-.15-.56-.34-.17-.5-.72s-.45-.14-.87-.8c-.16-.26-.39-.41-.53-.36s-.21 0-.15-.13c.21-.55-.5-.26-.55-.26-.46.21.12.07.12.35Zm4.63 8.21c.25-.41.74 0 .53 0-.1.24-.66.22-.53 0ZM188.51 135c-.26-.06-.46 1-.1.81.19-.11.2-.09 0 .12-.28.37-.23.86.09.88s.2 0 .07.1c-.28.11-.29.62 0 .89 0 .05 1.2 4.53 1.52 4.33s-.23.37.38.74c.31.19.36.19.26 0s0-.08.16.11c.39.5.15-.07.45-.07.11 0 .15.06.1.13s.65.62.52.41.34-.4.69-.26.13-.18.52-.56.32-.78.09-.42-.22-.08-.05-.25.22-.65 0-.52-.15 0-.08-.17c.38-1.05-2.84-4.78-2.9-5s-.29.05-.32-.22c-.06-.56-.57-1.44-1.22-1.44-.01.24.11.39-.18.39Zm3.53 6.63c.38-.49.41-.23.36-.23s-.82.8-.4.21ZM135.69 137.36c.12 0 .1.07-.05.15-.49.23 2.23 6.62 2.2 6.87s.67 1 .93.91c.1 0 .17 0 .16.14s0 .18.16 0 .19-.15.2.1.07.28.57 0c.74-.43.41-1 .59-.88s.42-.77.18-1.1a1.43 1.43 0 0 1-.26-.69c0-.69-1.33-2.9-1.75-3-.13 0-.16-.06-.09-.12s-.73-1.23-1-1.26-.14-.07-.11-.15c.1-.27-.15-.76-.34-.68s-.16 0-.08 0-.06-.85-.29-.75-.16 0-.11-.12-.84-.58-.91-.25c.09 0-.32.79 0 .83Zm4.67 6.65c.53-.25.3 0 .26 0-.17.23-.62.18-.26-.01Zm-.42 0c.05.07 0 .34 0 .33-.2.3-.12-.49 0-.34Zm-.13 1.29c.45-.44.44-.17.4-.18s-.93.69-.4.17Zm-.69-1.16c.1-.41.14.55-.09.52-.44.5-.03-.08.09-.53ZM206.74 146.2c.18 0 .16 0-.09-.25s-.25-.24-.13-.18c.36.17.23-.56 0-.49-.06 0-.06-.12 0-.3s0-.47-.86-1.41c-.64-.7-.4-.79-.75-.92s-.2-1.17-.92-.62c-.39.29 0 0-.22-.29a.52.52 0 0 1-.14-.39 6 6 0 0 0-1.83-1.79c-.25 0 .06-.93 0-.85a.71.71 0 0 1-.28.09c-.33.09-.72.9-.5 1a.2.2 0 0 1 0 .28 4 4 0 0 0 .84 2.08c.09 0 .11.07.05.17s.32.11.18.33.72.23.25.57c-.19.14-.2.21 0 .27s.18.16.13.25c-.18.28 1 3.66 2.54 3.56s.45-.41.26-.26c-.5.42-.54-.78-.29-.39s.8 0 1.21 0c.16 0 .16-.08 0-.26s-.03-.28.55-.2Zm-4.46-5.06c-.14.22-.63.24-.26 0s.31 0 .26 0Zm1.92 1.22c-.23-.38.47 0 .27 0 0 .22-.12.25-.27 0Zm.34 4.72c-.25.25-.25-.59 0-.35a.22.22 0 0 1 0 .35ZM146.55 141c-.31 0-.26.22-.29.22 0 .83.62 0 .81.18s0 .12-.13.12-.19 0 0 .18.19.17-.09.13-.37 0-.18 1.17c.34 2.17.79 1.77.79 2.24 0 .13-.07.1-.18-.05s-.17-.18-.17 0c0 .32.35.24.35.82s.7 1.19.7 1.48.35.1.35.38c0 .1-.08.13-.18.07-.5-.32.72 2 .72 2.37 0 .22.79.87 1 .8s.12.25.49.25.15-.79.41-.39.6-.28.47-.48 0-.18.05-.18.12-1-.14-1.31c-.11-.14-.15-.27-.07-.27s0-.07-.1-.15-.9-1.88-1.11-1.66c-.06 0-.06-.08 0-.29s0-.36-.12-.26-.19.07-.11 0-.08-.75-.3-.61c0 0-1.18-3.27-1.54-3.27s.2-.18-.32-.69c-.19-.19-.3-.36-.23-.37.22-.15-.56-.43-.88-.43ZM175.66 150.05c.37 0-.08-2.27-.37-2.27s.1-.7-.17-.7c-.09 0-2.36-5.11-4-5.11-.44.3-.47 1.43 0 1.16.1-.06.09.05 0 .26-.34.61.43.43.24.74s.1 1.57.27 1.46.1.07.05.27c-.09.38.57 1.62.58 2.19 0 .83.88 1.5.41.87-.24-.35-.24-.35.11 0s.41.26.55.12c.28-.29.48.19.16.19-.92 0-.3 1.22.31 1.22.16 0 .25.08.19.18s.69.27.5-.05.28.36.76.05c.3-.2.3-.21 0-.11-.76.16.3-.47.41-.47Zm-1.14-.23c0 .29-.09 0-.39.24s-.21.11-.16-.13c.14-.77.67-.11.55-.11ZM161.92 157.39c.15 0-1-1.4-.58-1.07.16.12.3.18.3.11s.11 0 .23.07c.38.31.3-.12.62.26.44.53 1.15 0 .89-1.2 0 0-3.87-10.05-5.62-10.05-.17 0-.16 0 0 .17s.16.18-.19.18-.62.43-.23.58 0 1.09.25 1.25c.1.06.13 0 .06-.19s-.05-.26.1-.17c.41.26-.09 1.85.41 1.85s.14 1.5.74 2.62c.34.65.56 2 .92 2.38a4.27 4.27 0 0 1 .64 1.57c.13.49 1.14 1.64 1.46 1.64ZM136.71 156.3c.53-.29.63 0 .63-.61 0-.33 0-.41.15-.25.39.63.27-1.54 0-1.37-.09.05-.18 0-.21-.22-.12-.8-1.3-1.4-1.3-1.72s-2.25-3.47-2.62-4.32c-.24-.54-.54-.1-.48-.41s-.91 0-.52-.47c.15-.19.16-.23 0-.15s-.23.05-.26 0-.52.09-.56.09c-.67.35-.32.43-.15 1.26s.48.26.46 1.12c-.09 1.91 3.15 8 4.86 7.05Zm-1.54-.67c.18-.29.75-.09.6-.09s-.77.3-.6.09ZM188 150.32c-.09.05-.16-.07-.16-.26 0-.53-.6-.26-.45-.51s-.5-.75-.69-.59-.08 0 0-.09 0-.22-.2-.22-.27 0 0-.17 0 0-.32-.7-.48-.22-.61-.7-.64-.47-.64-.09c0 0 0 .26-.19.16s-.16 0-.07.28.06.36-.06.29-.13.05 0 .37c.2.74.44.13.46 1s.46.75.41 1 .25 1.29.47 1.29.31.2.08.45.11 1 .51 1.07a.45.45 0 0 1 .35.49c0 .57.55.57.1.6-.65 0 .72.86.49 1.11s.31-.06.63.55c.63 1.18 2-.07 1.52-.25-.27-.09-.2-.16.46-1-.07.23-.33.88-.07.72s.19 0 .19.08c0 .74.52-1.06.16-1.06-.08 0-.1-.13 0-.26.13-.37-.51-.41-.38-.63s-1-1.28-.85-1.45-.29 0-.29-.3-.68-1.27-.85-1.18ZM196.53 147.33c.45 0 .6-.3.17-.38s-.23.11-.28.11c0 .3-.92-.13-.56.22a.4.4 0 0 1 0 .5c-.18.33-.05 1.05.19 1.05s.1.75.32.62.11.07.06.28 0 .33.11.24.19 0 .16.1a8.43 8.43 0 0 0 1.33 2.76c.15.12.79 2.44 1.69 3.27.34.3.35.3.24 0s0-.14.23.15.37.46.55.24.15-.28 0-.34.48-.21.52.3c0 .27 0 .3-.12.13s-.18-.18-.26-.05c-.23.35.66.14.93.14s.17 0 0-.2-.42-.54-.12-.36.25-.26 0-.26.77-.71 1-.59.19-1.21 0-1.08-.42-.48-.19-.34c.65.4-.53-.87-.53-1.07s-.22-.35-.49-.51a2.68 2.68 0 0 1-.82-.88c-.45-.83-.78-.64-.78-1s-2.28-2.25-2.28-2.79c0-.16-.89-.09-1.19.1s-.41-.39.12-.36ZM146 156.15c-.61-.56-.19-.5-1.11-1.38-1.1-1.06-.76-1.42-1.11-1.42-.11 0-.15 0-.09-.1s-.84-1.73-1.17-1.8-.28 0-.17.18c.21.36-.28-.13-.42-.13.06.07 0 .26-.14.4-.46.45.08 3.2.63 3.2.39 0-.17.72.82 1.71.28.28 1.26 2.66 1.66 2.66.18 0 .13 2 .71 1.63.16-.09.16-.06 0 .13s0 .69.42.69.16.41.4.27a.18.18 0 0 1 .27.08c.11.17.89-.11 1.22-.44s.25-1.49.07-1.49-.09-.23-.07-.53c.06-.89-.45-.64-.58-1.21s-.5-1.58-.76-1.58.17-.19-.58-.87ZM171.5 163.28a.27.27 0 0 1 .34.11c.06.16.12.15.24 0s.19-.18.28 0c.31.81 1.76-1 .68-.43-.28.14-.35.12-.31-.11.09-.57 1-.7.41-1.42-.18-.23-.18-.25 0-.13.81.49-2.52-5.53-2.62-5.6s-.17-.06-.09.07 0 .21-.06.21c-.32 0 .22-1-.19-.79-.14.09-.19 0-.14-.11s-.8-1.5-1.13-1.5-.15.24-.18.24c.12.3-.23.31-.34 0s.12 3.25.64 3.88c.14.18.13.21 0 .12-.44-.26 1.42 4.78 1.87 4.78.29.04.16.86.6.68Zm-.51-6.06c-.23-.38.47 0 .26 0 0 .21-.11.25-.25 0ZM184.62 162.12c.17-.28.44.12.44-.15s-1.33-.24-.56-.6c.47-.23.52-.48.09-.48-.26 0-.27 0-.06-.17s-2.43-4-2.48-4.07c-.41-.64-.84-.4-.74-.71s-1.49-1.78-1.49-2.08-.87-.15-.89.09c-.14 1.57 4.31 10.75 3.87 8.46 0-.18.45-.12.37.31s.35.25.23-.4 0 0 .41 0c.18 0 .21.05.08.1-.35.14-.5.4.88.4-1.26-1.42-.36-.36-.15-.7Zm-5.5-7.17c0-.41.29.1.25.1.14.37-.25.1-.25-.05Zm4.12 4.34c.18-.3.36 0 .32 0 .12.2-.43.2-.32 0Z"/><path d="M202.18 156.17c.53-.73-.45-.5-.21-.41.06 0 .17.18.11.38s-.08.26.1.03ZM162.65 157.34c.31.12.55-.13.11-.1s-.09.1-.11.1ZM197 167.86c.06-.22.13-.29.14-.15s0 .23.17 0 .19-.23.47 0 .27.16.19 0c-.2-.33.33-.05.46-.57 0-.19 0-.35-.08-.35s-.09-.14 0-.33c.44-.81-1.39-2.32-1.39-2.22s-.52-.28-.41-.47-.19-.19-.5-.14c-.07 0-.08-.11 0-.25.14-.37-.95-1.16-1.31-1.85-.13-.25-1.17-1.47-1.8-.73-.86 1-.05.82-.19 1.57-.24 1.26 1.37 3 1.15 3.25s2.56 4.05 3.1 2.24Zm1-1.34c.31 0 .07.09 0 .09-.38.14.25.13-.11.63s-.48-.06-.27-.06.27-.41-.08-.29-.35-.37.46-.37Zm-1 0c.43-.51 0-.59.19-.59.74.07-.91 1.48-.19.62ZM155.7 170.07c-.14.45 1.34 1.07 2.1.28 2-2.12-2.13-5.86-1.93-6.19s-.3-.09-.23-.4-1.11-1.9-1.36-1.8-.19 0-.14-.16-.51-.68-.7-.49-.07 0 0-.17c.17-.45-.31-.39-.77.1s-.17.34-.1 1.3c.18 2.54.95 2.83.83 3.53a.79.79 0 0 0 .2.71c.15.12.23.28.17.37s.27 0 .27.4.09 0 .79 1.38 1 .72.87 1.14Zm1.11-.74c.07.06-.18.38-.23.38-.58.58.13-.47.23-.38ZM139.09 171.78c0-.24.45.7.7.56s.19.26.72.26c.27 0 .33-.08.26-.29s-.07-.25.16-.06c.52.43.17-.4.73-.6s-.16-1.13.23-.88-.2-1.53-1.39-2.53c-.95-.8-.6-1-1-1.27s0-.47-.49-.93-.25-.71-.55-.65.4.13-1-1.41c-2.55-2.7-1.29-.3-2-.76-.11-.07-.14.13-.08.57.31 2.21.8 1.15.57 1.75a7.72 7.72 0 0 0 1 3c.11 0 .14.06.08.16s.31.42.68 1.3.63.53.63.87.75 1.06.75.91Zm-2.85-8.52c0 .28-.47.09-.47-.09 0-.35.68.09.47.09ZM170.8 175.39c0 .36.2 0 .28-.56.19-1.21-3.37-5.78-3.53-5.72s-.2 0-.12-.19 0-.25-.17-.17c-.48.18.12-.39-.43-.78s-.51-.9-.75-.76-.06-.46-.39-.39-.05-.43-.18-.38c-.75.3-.09.83-.43.63s-.2.4-.07.4 0 1.57.21 1.57.1.94.29 1.13a7.71 7.71 0 0 1 .57 1.76c.47 2 2 4.23 2.61 3.86.13-.09.16 0 .2.08s.13.24.48 0h.06c.22-.13.27-.13.23 0a.31.31 0 0 1 0 .08q-.18.48.69 0l.19-.11c.21-.13.19-.21 0-.39-.45-.4.26-.25.26-.06ZM181.57 172c0 .77 1.29 2.71 1.8 2.71a.44.44 0 0 1 .36.26c.12.35.81.34.81 0s.4-.32.26-.09.26.23.26 0 .65.17.47-.15.29-.29.12-.59c-.07-.12 0-.14.09-.07s.2 0 .2-.26c0-.63.76-.81.4-1s.17-.53-.32-.89.18-.29-.71-1.28c-1.41-1.57-1.63-2.1-2-2.1s-.39-.76-.76-.63.25-.25-.76-.77c-.79-.4-1.07-.44-1.07-.17a2.66 2.66 0 0 0-1 .89c.79 1.64 1 1.5 1 1.46a.24.24 0 0 0 0 .11 3.5 3.5 0 0 0 .49 1.66c.13.21.18.42.12.48s.24.07.24.43Z"/><path d="M186.11 173.65a.18.18 0 1 0 .35 0 .18.18 0 0 0-.35 0ZM129 136c.21 0 .28-.67.09-.82s-.14 0-.07.1c.15.31-.34.09 0-.36s.28-.54 0-.43-.08-.26-.23-.67a1.12 1.12 0 0 0-.18-.34c-.17-.21-.26-.38-.19-.37s-.59-.63-1.37-1.6-1.17-.67-1-1-.33-.22-.15-.45-.5-.14-.31-.39-.25-1.26-.5-1.28.42.56-.15.45c-.4-.08-.59.55-.28.93s-.06 1 .28.95-.16.8.16.83 0 .3.42.7c.18.17.19.22 0 .13-.34-.21.61.9.58 1.19a.18.18 0 0 0 .15.22c.33 0-.14.15.57 1.08.25.32.39.62.33.67s.26.68.45.59 0 .27.31.3c.1 0 .14 0 .09-.16s.27-.22.75-.23Zm-3.56-6.56c-.16.21-.65.17-.26 0s.26 0 .21-.01Zm.59 1.82s-.5.72-.22 0c.11-.48.48-.44.19-.01Zm1.89 4.43c.14-.17.63-.07.87 0s.18.08.09.07 0 .05-.09.07c-.31.06-1-.05-.92-.15ZM130.22 172.12a.27.27 0 0 1 .35.09c.07.15.13.14.24 0s.18-.2.28 0c.36.8 1.69-1.12.65-.47-.27.17-.33.15-.31-.08 0-.58.94-.76.32-1.45-.2-.22-.2-.24 0-.13.84.44-2.86-5.36-3-5.42-.1 0-.11 0 0 .1v.07a.09.09 0 0 1 0 .07.09.09 0 0 1-.08.06c-.32 0 .16-1-.24-.77-.14.09-.19.06-.14-.1.08-.31-.9-1.45-1.23-1.43s-.13.25-.16.25c.13.29-.21.32-.34 0a10.37 10.37 0 0 0 .88 3.83c.15.16.15.2 0 .12s.57 2 1.32 3.44c.37.69.7 1.22.85 1.21s.19.82.61.61Zm-.88-6c-.26-.36.46 0 .26 0 .01.18-.1.22-.26-.02ZM160.51 194.3c-.07-1.4-1.24-2.74-1.45-2.66s-.11-.43-.46-.43-.33-.83-.9-1.09-.25-.41-.87-.56c-.24-.05-.44-.18-.44-.27 0-.38-.65-.16-.85.27-.51 1.14 1.91 4.56 2.06 6.32 0 .34.61.13.46.38s1.72.45 1.58.21.83-.13.41-.66c-.21-.26-.2-.29 0-.19s.27 0 .2-.14c-.09-.36.32.09.26-1.18ZM203 178.27c-.24-.36-.44-.6-.45-.54s-.15 0-.29-.22c-.34-.43-.54-.19-.43-.3s-.13-.83-.38-.78-.21 0-.15-.14-.06-.25-.22-.42c-.33-.35-.88-.74-.84-.49s-.37.21-.24.06-.24-1-.46-.91 0-.34-.29-.23c-.11 0-.16 0-.12-.13s-.7-.79-.93-.31.16.42.11.73c0 .11-.09.12-.19 0-.32-.29-.07.4.33 1.24.3.65.69 1.38.95 1.82.86 1.47.18 1.27 1.08 2.71.74 1.15 1.45.64 1.18 1s.36.45.33-.15c0-.36 0-.37.17-.07s.23.31.54.15c.46-.24.28-.72 0-.42s-.05-1 .16-.8.93-.23.63-.5.25-.17-.49-1.3Zm-1.25 1c-.29-.27 0-.25.34.06.19.02.22.44-.32-.07ZM180.71 183.28c.21 0 .28-.67.09-.82s-.14-.05-.07.1c.15.31-.35.09 0-.36s.28-.54 0-.43 0-.49-.42-1c-.17-.21-.25-.38-.18-.37s-.59-.63-1.37-1.6-1.17-.67-1-1-.33-.22-.16-.45-.49-.14-.3-.39-.07-.71-.26-1c-.08-.13-.17-.23-.24-.24s-.09.11 0 .24.15.26-.14.21-.59.55-.28.93-.06 1 .28 1-.16.8.16.83 0 .3.42.7c.18.17.19.22 0 .13-.34-.21.61.9.58 1.19a.18.18 0 0 0 .15.22c.32 0-.14.15.57 1.08.25.32.39.62.33.67s.26.68.44.59 0 .27.31.3c.11 0 .15 0 .1-.16s.41-.35.99-.37Zm-3.56-6.56c-.16.21-.65.17-.26 0s.3.01.26 0Zm.59 1.82s-.5.72-.22 0c.16-.47.53-.43.22 0Zm1.89 4.43c.2-.26 1.22.1 1 .07-.06.18-1.1.05-1-.04ZM193.88 187.36c.25.19.31-.93-.23-1-.22 0-.2-.07.09-.16.5-.16-.08-.07 0-.46s-.48-.42-.43-.75-.72-1.35-.91-1.31-.07-.12 0-.31c.19-.48-.34-.29-.14-.54s-.73-.54-.56-.88a6.68 6.68 0 0 0-1.41-2.24c-.07 0-.12-.14-.11-.33 0-.38-.73-1.24-1.05-1.2a.32.32 0 0 1-.31-.19c-.23-.51-.79.06-.84.06-.48.43 0 .57 0 .41s1.25-.11.77.17-1.16-.14-1.35.1-.09.85.1.77.09.08 0 .27c-.19.48.34 1.08.27 1.6s1.29 3.07 1.31 3.32c0 .46.46 1.15.66 1.05s.13 0 0 .18.16.77.38.6.12 0 .11.14c-.07.56 2 2.94 1.79 2 0-.23 0-.26.13-.11.42.43 1.42.09 1.29-.44-.05-.2 0-.24.14-.12.42.31.06-.82.3-.63Zm-4.47-8.62c0 .44-.59.19-.25-.12s.3-.28.25.12Zm3.43 9.7c0 .33-.15.35-.24 0-.13-.63.4.03.24 0Zm.41-.48c0 .22-.31-.32-.28-.56s.38.6.28.6ZM166.08 188.07c.24.09.25.07.39-1.31.08-.72.05-.9-.12-.8s-.18.07-.11-.05c.17-.27-1-3.44-2-4.59-.74-.82-.29-2.14-.67-1.57-.13.2-.17.11-.17-.36 0-.87-.5-1-.28-1s-.23-.56-.44-.43.19-.33-.25-.51 0 .31-.29.52.36-.5-.79-.5c-.34.12-.14.67-.38.82-.64.4.83 2.34.55 2.67-.1.11.39.66.53 1.54.26 1.69 1.28 2.4 1.11 2.68s.3.28.15.54.48.51.34.73 0 .16.06.16c.24 0-.1 1 .16.82.1-.06.16.07.13.31-.05.52.42 1.21.44.79 0-.23 0-.23.18 0s.18.2.18 0 .37-.06.27.11.51.85.33.14c-.1-.39-.07-.43.27-.37s.36 0 .29-.17-.03-.24.12-.17ZM136.68 185.56c-.16-.12-.21-.22-.12-.22.28 0-1.83-2.76-2-3.84 0-.27-.58-.06-.44-.44s-.63-.33-.63 0c.16 0-.35.27-.35.7 0 .64.31.18.25 1.05 0 .33 0 .61.1.61s.11.1.07.23c-.14.35.53 2 .78 1.9s.19.06.12.29c-.17.51.25.38.25.89s.62.49.23.52.85 1.85.72 2 .5.37.36.13.53-.05.33-.37.39-.05.09.3c-.59.69.9.93.58.54s.49-.23.49-.09.55.21.46-.61a2 2 0 0 1 .09-.85 5.49 5.49 0 0 0-1.38-2.74Zm.84 3.62c0 .22-.53 0-.53-.1s.76.1.53.1ZM145.94 193c.57-.13 1.27.62 2.08-.88s-.22-1.45-.17-1.92 0-.82-.23-.7-.14 0-.07-.08c.19-.31-2.35-5.16-2.59-6.18-.32-1.38-1.5-1-1.5-1.15 0-.36-1.52.14-.88.14.2 0 .2 0 0 .22-.84.67-.05 2.42 0 2.33.25-.22-.3 1.46.67 2.57.75.78.89 6.05 2.69 5.65Zm2.06-1.16c-.25.47-.42.46-.17 0 .44-.84.28-.03.17-.03Zm-.21-.82a.18.18 0 0 0 .1-.27c-.07-.11 0-.14.09-.06.61.31-.76.53-.19.31Zm-.33.59c.39-.49.41-.22.37-.22s-.83.78-.37.19Zm-.43-.16c-.26.21-.42.57-.42.17s.72-.2.39-.2Zm-4.5-8.49c-.12.33-.15-.47 0-.33s.05.3 0 .3ZM176.63 195.16c.52.76 2.36-1-.74-4.93-2.1-2.64-2.73-5-3.06-5-.15 0-.41.31-.43.31-.26.28-.26.35 0 .67s.34.66.06.49.14.19.05.69c0 .19 0 .27.13.2s.19 0 .19.07c0 .3-.58.09-.18.35s.63-.11.46.15-.79-.26-.5.32-.06.77.2.77-.12.51.21.77c.52.4.21 1.55.72 2.16s.17 2 1.42 3.06c.4.34.51.36.75.12s.28-.1.51.12.3.28.19-.12-.09-.36.02-.2Zm-1-.78c0-.48.25-.07.2-.07.17.21-.17.41-.17.07ZM204.05 192.2a2.14 2.14 0 0 0-.05-1.65c-.41-.8.22-.2-.89-1.34s-1.6-2-1.83-1.83-.13 0-.05-.11.06-.2-.13-.13-.25 0-.17-.26 0-.33-.11-.24c-.31.18.09-.21-.86-.85-.36-.25-.59-.45-.51-.45s0-.11-.13-.27c-.4-.39-.74.09-.56-.22.42-.67-.84.45-.69.19s0-.22-.07-.22c-.62 0 .49.86.38 1.19s.39.12.24.36 2.16 4.13 2.25 4.6c.31 1.58.92 1.14 1.08 1.39s0 .15-.08.08c-.27-.16-.24.24-.08.26.82.09 1.12.29.75.52-.59.37 1.07 0 1-.53s.46-.11.51-.49ZM154 182.17c.27-.12.33-.81.07-.79-.11 0-.13-.1 0-.29.3-.69-.44-3-.86-2.71-.2.14-.22-.26 0-.27a9.9 9.9 0 0 0-1-2.24 8.28 8.28 0 0 1-.44-.89c.18-.54-1.91-3.8-2.27-3.54-.07.05-.19 0-.25-.16-.16-.38-.89-.11-.75-.39.23-.44-.3.12-.34.12-.58.51-.48 1.72-.18 1.8.12 0 .23.27.24.53.05.72.42.6.53 1.28.27 1.54.65.74.57 1.25a.2.2 0 0 1 0 .07c0 .21 0 .33.1.26.34-.23.17 1.57.48 1.34.09-.06.14.06.11.27-.08.73 1.59 4.35 2.19 4.31a.75.75 0 0 1 .55.27c.32.39.45 0 .47.24s.53.09.5-.36.37-.41.25-.18-.06.14.03.08Zm-1-.72c0-.39.3 0 .26 0 .23.21-.18.23-.19 0Zm.65-.75c.37-.79.27 0 .23 0-.02.46-.38.49-.16 0ZM138.13 188.66s.26.4.26 0c0-.23-.39-.23-.26 0ZM186.51 200.87c.31.26 1 .6 1.2 0 .4-1 .4-1.16 0-1.53s-.34-.35-.07-.25c.77.29-.1-1.8-1.28-3.09 0 0-2.9-3.45-2.92-3.57-.33-2.2-1.7 0-1.06-.38s-.78.78.09 1.46c.28.22.28.23 0 .12-.61-.22.25.8.27 1.47 0 .32.31.05.31.59 0 .21 0 .33.11.26s.61.79.5.9.8 1.8 1 1.7.08.83.61 1.84c.39.72.64.53.55.38s.4-.15.69.1ZM131.56 200.16c-.14.23.28.58.57.47.1 0 .16 0 .14.12s.35.32.24 0 0-.17.29 0 .35.11.32-.09 0-.25.21-.22.34-.14.12-.51.55.5.58-1.29-.36-1-.3-1.49-.49-1.37-.72-1.29c-.08 0-.09 0 0-.16.18-.29-1-1.84-1-1.69s-.46-.4-.4-.71-1-2-1.23-1.89a.25.25 0 0 1-.32-.15c-.11-.32-.23 0-.27-.05-.65.67 0 4.19.4 4.05.21-.07.16.26-.09.29s.17 1.42.54 1.9c.14.18.19.35.1.37-.24 0 .07.76.32 1.6s.7.42.5.74ZM168.56 203.61c.27-.34.28-.34.19 0v.4s.88.58.56.42c-.16-.08-.2-.05-.12.08s.45.09.45-.29.35.17.23.37.4 0 .34-.22.42.05.34-.42c0-.21 0-.28.16-.2s.16.07.08-.07c-.2-.33.4-.9.07-.9-.13 0-.13-.1 0-.33s.08-1-.14-.82.1-.77-.17-.77c-.49 0 .61 0-1.19-3.27 0 0-1.63-3.49-1.63-2.83 0 .43-.2-.24-.41-.21-.71.1-.37-.34 0-.23s-.59-.67-1.19-.28c0 0-.27.18-.11.18s-.39.3 0 .67c.18.17.16.2-.08.1-.43-.15-.36.28-.12.28s-.33.31-.06.8c.14.25 0 2.15.71 2.19s-.61.08.08 1.11 1.66 4.68 2.01 4.24ZM194.12 198.92c-.52-.18 1.64 5.58 2.25 5.37.26-.09.27-.07 0 .09-.5.37.35.27.35.82s.82-.06.66.18 1.06.43.94-.34c0-.08 0-.11.11-.06s.78-.4.27-.42c-.29 0-.29 0 0-.15s.28-.17.13-.26.16-1.06.28-1.14c.62-.41-1.3-4-1.6-3.88-.11 0-.15 0-.08-.07s-.51-1.48-.77-1.48-2.14-3.85-2.76-3.27c-.14.13-.19.13-.12 0 .17-.29-.78-.24-.66 0s-.32-.07-.1.69c.1.31.1.52 0 .52-.47 0 .23 2.34.94 3.13.38.29.39.35.16.27Zm3.62 5.3c.19-.3.55-.1.43-.1s-.58.34-.43.1ZM145.29 204.14c-.17 0-.18-.08 0-.1s0-.76-.22-.59-.14 0-.1-.15 0-.26-.21-.15-.24.09-.13-.11c.21-.36.12-1-.12-.93-.07 0-3.17-6-4.3-5.12-.31.24-.2 1.3.15 1.55.05 0 1.36 5.52 1.77 4.75.22-.42-.13.27.33 1.1.38.67.06 1 .78.75.08 0 .1 0 .05.13s.94 1 1.15 1 .26.59.79 0 0-.55.28-.74.05-1.31-.22-1.39Zm-4-5.65c-.35-.22-.32-.52 0-.53s-.36.07 0 .47c.34.24.33.24.03.06ZM154.59 207.12c-.15.16.2-.33-.27-1.16-.23-.41-1.18-3-1.43-3s.11-.27-.17-.44.14-.27-.27-.67-.64-1.71-1.3-2.3c-.42-.38-1.39-.53-1.41-.21a1 1 0 0 1-.17.75 48.48 48.48 0 0 0 1.66 6.71c.45 1.26.79 1.07.79 1.57s.53.35.53.85.53.9.94 1.34l.25-1c.06 1.69.47 1.11.48.47 0-1.5 1.05-.28.45-.46s-.36.38.38.36c1.31 0 .1-1.32.14-1.56s-.46-1.37-.6-1.25ZM180.67 211.74c1.39 0 2.09-1 1.46-.76-.25.08-.25.06 0-.11 1-.66-1.53-6.12-2.72-6.12-.13 0-.11-.07.05-.18.72-.48-1.35.15-.62-.39.33-.25.33-.26 0-.44-1.51-.81-2.13.4-1.86.73.11.12.14.28.08.34s.31.06.25.25a4.37 4.37 0 0 0 .76 1.61s.09.17.07.38c-.09 1.19.61 1.08.61 2s1.3 2.69 1.92 2.69ZM166 212.29c-.19-.19-.31-.37-.27-.41a4 4 0 0 0-.63-1.89c-.1 0-.16-.06-.14-.14.11-.49-.88-2.87-1.13-2.71s-.13 0-.06-.19 0-.26-.07-.19-.23 0-.28-.25c-.15-.56-.34-.17-.5-.72s-.45-.14-.87-.8c-.16-.26-.39-.41-.53-.36s-.21 0-.15-.13c.21-.55-.5-.26-.55-.26-.49.2.09.06.09.34s-.18-.06-.53.17.2 0 .28 1.2c.12 1.63.45.68.7 1.09.08.13.05.16-.07.08s-.32.42.1.42c.24 0 .26 0 .07.15-.37.23.15.12.15.91 0 .28.08.52.18.52s.14.07.08.17c-.16.26.19.38.24 1.15 0 .16.1.22.22.14s.16-.05.1.06c-.25.39.76 2 .75 2-.08.28.41 1.17.6 1.1s.3.06.42.24c.3.46.74.14.64 0s.36-.47.2-.21.48.48.31.18-.07-.17.1 0c.35.31.45.28.67-.21.33-.73-.32-.45 0-.89.21-.17.18-.3-.12-.56Zm.07.5c-.15.24-.66.22-.53 0 .28-.41.77 0 .56 0ZM193.28 213.14c-.23.34-.22-.08-.05-.25s.22-.65 0-.52-.15 0-.08-.17c.38-1-2.84-4.78-2.9-5s-.29 0-.32-.22c-.06-.56-.57-1.44-1.22-1.44 0 .22.08.4-.21.35s-.46 1-.1.81c.19-.11.2-.09 0 .12-.28.37-.23.86.09.88s.2 0 .07.1c-.28.11-.29.62 0 .89 0 .05 1.2 4.53 1.52 4.33s-.23.37.38.74c.31.19.36.19.26 0s0-.08.16.11c.39.5.15-.07.45-.07.11 0 .15.06.1.14s.65.61.52.4.34-.4.69-.26.13-.18.52-.56.35-.74.12-.38Zm-.88-.81c0 .06-.82.82-.36.23s.41-.23.36-.23ZM140.37 213.79c0-.69-1.33-2.9-1.75-3-.13 0-.16-.06-.09-.12s-.73-1.23-1-1.26-.14-.07-.11-.15c.1-.27-.15-.76-.34-.68s-.16 0-.08 0-.06-.85-.29-.75-.16 0-.11-.12-.84-.58-.91-.25c.05 0-.36.8 0 .84.12 0 .1.07-.05.14-.49.24 2.23 6.63 2.2 6.88s.67 1 .93.91c.1-.05.17 0 .16.14s0 .18.16 0 .19-.15.2.1.07.28.57 0c.74-.43.41-1 .59-.88s.42-.77.18-1.1a1.43 1.43 0 0 1-.26-.7ZM139 215.6c-.44.51 0-.07.09-.52s.17.55-.09.52Zm.91-.65c.05.07 0 .34 0 .33-.17.31-.09-.48.03-.28Zm.27 1.11c0 .06-.93.7-.4.18s.47-.17.43-.18Zm.41-1.07c-.17.2-.66.15-.26 0s.33.01.29.01ZM206.65 216.9c-.19-.16-.25-.24-.13-.18.36.17.23-.56 0-.49-.06 0-.06-.12 0-.3.1-.33 0-.47-.86-1.41-.64-.7-.4-.79-.75-.92s-.2-1.17-.92-.62c-.39.29 0 0-.22-.29a.52.52 0 0 1-.14-.39 6 6 0 0 0-1.83-1.79c-.25 0 .06-.93 0-.85a.71.71 0 0 1-.28.09c-.33.09-.72.9-.5 1a.2.2 0 0 1 0 .28 4 4 0 0 0 .84 2.08c.09 0 .11.07.05.17-.15.25.32.11.18.33s.72.23.25.57c-.19.14-.2.21 0 .27s.18.16.13.25c-.18.28 1 3.66 2.54 3.56s.45-.41.26-.26c-.5.42-.54-.78-.29-.39s.8 0 1.21 0c.16 0 .16-.08 0-.26s0-.31.55-.23c.18.06.16-.02-.09-.22Zm-4.37-4.81c-.14.22-.63.24-.26 0s.31 0 .26 0Zm1.92 1.22c-.23-.38.47 0 .27 0 0 .22-.12.25-.27 0Zm.34 4.72c-.25.25-.25-.59 0-.35a.22.22 0 0 1 0 .32ZM151.26 219.6c.09 0 0-.07-.1-.15s-.9-1.88-1.11-1.66c-.06.05-.06-.08 0-.29s0-.36-.12-.26-.19.07-.11-.05-.08-.75-.3-.61c0 0-1.18-3.27-1.54-3.27s.2-.18-.32-.69c-.19-.19-.3-.36-.23-.37.22 0-.56-.31-.88-.33s-.26.22-.29.22c0 .83.62 0 .81.18s0 .12-.13.12-.19 0 0 .18.19.17-.09.13-.37 0-.18 1.17c.34 2.17.79 1.77.79 2.24 0 .13-.07.1-.18 0s-.17-.18-.17-.05c0 .32.35.24.35.82s.7 1.19.7 1.48.35.1.35.38c0 .1-.08.13-.18.07-.5-.32.72 2 .72 2.37 0 .22.79.87 1 .8s.12.25.49.25.15-.79.41-.39.6-.28.47-.48 0-.18.05-.18.12-1-.14-1.31c-.11-.19-.15-.32-.07-.32ZM175.29 218.73c-.22 0 .1-.7-.17-.7-.09 0-2.36-5.11-4-5.11-.44.3-.47 1.43 0 1.16.1-.06.09 0 0 .26-.34.61.43.43.24.74s.1 1.57.27 1.46.1.07.05.27c-.09.38.57 1.62.58 2.19 0 .83.88 1.5.41.87-.24-.35-.24-.35.11-.05s.41.26.55.12.48.19.16.19c-.92 0-.3 1.22.31 1.22.16 0 .25.08.19.18s.69.27.5-.05.28.36.76.05c.3-.2.3-.21 0-.11-.7.21.36-.42.47-.42.28 0-.14-2.27-.43-2.27Zm-.77 2c0 .29-.09 0-.39.24s-.21.11-.16-.13c.14-.73.67-.07.55-.07ZM157.76 216.46c-.17 0-.16 0 0 .17s.16.18-.19.18-.62.43-.23.58 0 1.09.25 1.25c.1.06.13 0 .06-.19s-.05-.26.1-.17c.41.26-.09 1.85.41 1.85s.14 1.5.74 2.62c.34.65.56 2 .92 2.38a4.27 4.27 0 0 1 .64 1.57c.1.49 1.11 1.64 1.43 1.64.15 0-1-1.4-.58-1.07.16.12.3.18.3.11s.11 0 .23.07c.38.31.3-.12.62.26.44.53 1.15 0 .89-1.2.03-.04-3.84-10.05-5.59-10.05ZM136.71 227.25c.53-.29.63 0 .63-.61 0-.33 0-.41.15-.25.39.63.27-1.54 0-1.37-.09 0-.18-.05-.21-.22-.12-.8-1.3-1.4-1.3-1.72s-2.25-3.47-2.62-4.32c-.24-.54-.54-.1-.48-.41s-.91 0-.52-.47c.15-.19.16-.23 0-.15s-.23.05-.26 0-.52.09-.56.09c-.67.35-.32.43-.15 1.26s.48.26.46 1.12c-.09 1.91 3.15 8 4.86 7.05Zm-.94-.76c0 .09-.73.3-.6.09s.75-.09.6-.09ZM190.29 225.2c-.08 0-.1-.13 0-.26.13-.37-.51-.41-.38-.63s-1-1.28-.85-1.45-.29 0-.29-.3-.56-1.38-.71-1.29-.16-.07-.16-.26c0-.53-.6-.26-.45-.51s-.5-.75-.69-.59-.08 0 0-.09 0-.22-.2-.22-.27 0 0-.17 0 0-.32-.7-.48-.22-.61-.7-.64-.47-.64-.09c0 0 0 .26-.19.16s-.16 0-.07.28.06.36-.06.29-.13.05 0 .37c.2.74.44.13.46 1s.46.75.41 1 .25 1.29.47 1.29.31.2.08.45.11 1 .51 1.07a.45.45 0 0 1 .35.49c0 .57.55.57.1.6-.65 0 .72.86.49 1.11s.31-.06.63.55c.63 1.18 2-.07 1.52-.25-.27-.09-.2-.16.46-1-.07.23-.33.88-.07.72s.19 0 .19.08c-.14.85.38-.95.02-.95ZM202.56 225.1c-.22.13-.42-.48-.19-.34.65.4-.53-.87-.53-1.07s-.22-.35-.49-.51a2.68 2.68 0 0 1-.82-.88c-.45-.83-.78-.64-.78-1s-2.28-2.25-2.28-2.79c0-.16-.89-.09-1.19.1s-.31-.37.25-.34.6-.3.17-.38-.23.11-.28.11c0 .3-.92-.13-.56.22a.4.4 0 0 1 0 .5c-.18.33-.05 1.05.19 1.05s.1.75.32.62.11.07.06.28 0 .33.11.24.19 0 .16.1a8.43 8.43 0 0 0 1.33 2.76c.15.12.79 2.44 1.69 3.27.34.3.35.3.24 0s0-.14.23.15.37.46.55.24.15-.28 0-.34.48-.21.52.3c0 .27 0 .3-.12.13s-.18-.18-.26-.05c-.23.35.66.14.93.14s.17-.05 0-.2-.42-.54-.12-.36.25-.26 0-.26.77-.71 1-.59.08-1.2-.13-1.1ZM148 231.29c-.06 0-.09-.23-.07-.53.06-.89-.45-.64-.58-1.21s-.5-1.58-.76-1.58.16-.19-.58-.87-.19-.5-1.11-1.38c-1.1-1.06-.76-1.42-1.11-1.42-.11 0-.15-.05-.09-.1s-.84-1.73-1.17-1.8-.28 0-.17.18c.21.36-.28-.13-.42-.13.06.07 0 .26-.14.4-.46.45.08 3.2.63 3.2.39 0-.17.72.82 1.71.28.28 1.26 2.66 1.66 2.66.18 0 .13 2 .71 1.63.16-.09.16-.06 0 .13s0 .69.42.69.16.41.4.27a.18.18 0 0 1 .27.08c.11.17.89-.11 1.22-.44s.25-1.49.07-1.49ZM173.16 232.27c.81.49-2.52-5.53-2.62-5.6s-.17-.06-.09.07 0 .21-.06.21c-.32 0 .22-1-.19-.79-.14.09-.19.05-.14-.11s-.8-1.5-1.13-1.5-.15.24-.18.24c.12.3-.23.31-.34 0s.12 3.25.64 3.88c.14.18.13.21 0 .12-.42-.25 1.24 4.3 1.8 4.74l2.16-.18c.26-.27.54-.48.15-1-.16-.18-.16-.2 0-.08Zm-1.91-4.1c0 .21-.11.25-.26 0s.47 0 .26 0ZM184.59 231.84c-.26 0-.27 0-.06-.17s-2.43-4-2.48-4.07c-.41-.64-.84-.4-.74-.71s-1.49-1.78-1.49-2.08-.87-.15-.89.09c-.09 1 1.87 5.51 3 7.66l2.54-.25c.53-.22.53-.47.12-.47Zm-5.47-5.94c0-.41.29.1.25.1.14.37-.25.1-.25-.1Zm4.12 4.34c.18-.3.36 0 .32 0 .12.2-.43.2-.32 0Z"/><path d="M202 226.71c.06 0 .17.18.11.38s-.07.26.1 0c.5-.7-.48-.47-.21-.38ZM162.76 228.19c-.37 0-.09.1-.11.1.35.12.55-.13.11-.1ZM154.28 232.91c-.13.05-.19 0-.14-.16s-.51-.68-.7-.49-.07 0 0-.17c.17-.45-.31-.39-.77.1s-.17.34-.1 1.3a9.46 9.46 0 0 0 .18 1.35l2.9-.18c-.04-.42-1.13-1.84-1.37-1.75ZM135.38 234.17c-.11-.07-.14.13-.08.57a5.53 5.53 0 0 0 .23 1l2.46-.13c-.14-.19-.34-.42-.62-.73-2.55-2.65-1.29-.25-1.99-.71Zm.86 0c0 .28-.47.09-.47-.09 0-.31.68.13.47.13ZM129 206.22c.15.31-.34.09 0-.36s.28-.54 0-.43-.08-.26-.23-.67a1.12 1.12 0 0 0-.18-.34c-.17-.21-.26-.38-.19-.37s-.59-.63-1.37-1.6-1.17-.67-1-1-.33-.22-.15-.45-.5-.14-.31-.39-.25-1.25-.5-1.28.42.56-.15.45c-.4-.08-.59.55-.28.93s-.06 1 .28 1-.16.8.16.83 0 .3.42.7c.18.17.19.22 0 .13-.34-.21.61.9.58 1.19a.18.18 0 0 0 .15.22c.33 0-.14.15.57 1.08.25.32.39.62.33.67s.26.68.45.59 0 .27.31.3c.1 0 .14-.05.09-.16s.27-.22.75-.23h.27c.21 0 .28-.67.09-.82s-.19-.14-.09.01Zm-3.58-5.84c-.16.21-.65.17-.26 0s.28.01.23 0Zm.59 1.82s-.5.72-.22 0c.13-.47.5-.43.21 0Zm2.85 4.5s0 .05-.09.07c-.26.07-1 0-.87-.14s.63-.07.87 0 .15.08.06.07ZM128.74 235.57c-.1 0-.11 0 0 .1v.07a.09.09 0 0 1 0 .07.09.09 0 0 1-.08.06c-.32 0 .16-1.05-.24-.77-.14.09-.19.06-.14-.1.08-.31-.9-1.45-1.23-1.43s-.13.25-.16.25c.13.29-.21.32-.34.05a8.6 8.6 0 0 0 .33 2.3l2.25-.09a4.94 4.94 0 0 0-.34-.49ZM120.11 102.91c-.22.48.15.42.1.73 0 .11-.09.12-.18 0-.33-.29-.07.4.32 1.24.31.65.69 1.38 1 1.82.86 1.47.18 1.27 1.09 2.71.73 1.15 1.44.64 1.17 1s.36.45.34-.15c0-.36 0-.37.16-.07s.23.31.54.15c.46-.24.28-.72 0-.42s0-1 .16-.8.94-.23.63-.5.25-.17-.48-1.3c-.23-.36-.44-.6-.45-.54s-.14 0-.29-.22c-.34-.43-.54-.19-.43-.3s-.12-.83-.38-.78-.21 0-.15-.14-.06-.25-.22-.42c-.33-.35-.88-.74-.83-.49s-.38.21-.24.06-.25-1-.47-.91 0-.34-.29-.23c-.11 0-.16 0-.11-.13s-.77-.79-.99-.31Zm3.89 5.46c.16 0 .19.45-.35-.06-.29-.31.02-.25.35.06ZM127.42 95.92c-.3-.16.57 2 1.32 3.44.37.69.7 1.22.85 1.21s.21.81.63.6a.27.27 0 0 1 .35.09c.07.15.13.14.24 0s.18-.2.28 0c.36.8 1.69-1.12.65-.47-.27.17-.33.15-.31-.08 0-.58.94-.76.32-1.45-.2-.22-.2-.24 0-.13.84.44-2.86-5.36-3-5.42-.1 0-.11 0 0 .1v.07a.09.09 0 0 1 0 .07.09.09 0 0 1-.08.06c-.32 0 .16-1-.24-.77-.14.09-.19.06-.14-.1s-.9-1.45-1.23-1.43-.13.25-.16.25c.13.29-.21.32-.34 0a10.37 10.37 0 0 0 .88 3.83c.14.21.14.21-.02.13Zm2.18-.78c0 .21-.1.25-.26 0s.46-.02.26 0ZM115.74 94.71c-.26.28 2.6 4 3.11 2.2.07-.22.13-.29.14-.15s0 .23.17 0 .2-.23.48 0 .26.16.18 0c-.2-.33.33 0 .46-.57 0-.19 0-.35-.08-.35s-.08-.14 0-.33c.45-.81-1.39-2.32-1.39-2.22s-.52-.28-.4-.47-.19-.19-.51-.14c-.06 0-.07-.11 0-.25s-.45-.75-.89-1.26l-2.38 1c.26 1.15 1.29 2.36 1.11 2.54Zm4.14.86c.31 0 .07.09 0 .09-.39.14.24.13-.12.63s-.48-.06-.27-.06.27-.41-.08-.29-.34-.37.47-.37Zm-1 0c.42-.51 0-.59.18-.59.75.02-.9 1.48-.18.62ZM90.57 104.84c.13-.09.16 0 .2.08s.13.24.48 0h.06c.22-.13.27-.13.24 0v.08q-.18.48.69 0l.19-.11c.21-.13.19-.21 0-.39-.42-.43.28-.28.28-.09 0 .36.2 0 .29-.56a1.84 1.84 0 0 0-.19-.84c-.92.54-1.85 1.09-2.77 1.65.19.2.39.26.53.18ZM102.58 98.41a1 1 0 0 1 0 .11 3.5 3.5 0 0 0 .49 1.66c.13.21.19.42.12.48s.29 0 .29.38c0 .77 1.29 2.71 1.8 2.71a.43.43 0 0 1 .36.26c.13.35.81.34.81 0s.4-.32.26-.09.27.23.27 0 .65.17.46-.15.3-.29.12-.59c-.07-.12 0-.14.09-.07s.2 0 .2-.26c0-.63.76-.81.4-1s.17-.53-.32-.89.18-.29-.71-1.28c-1.41-1.57-1.62-2.1-2-2.1s-.39-.76-.76-.63c-.15.06-.13 0-.13-.09L102.12 98c.34.51.44.44.46.41Z"/><path d="M108 102.7a.18.18 0 1 0 .35 0 .18.18 0 0 0-.35 0ZM80 125.31c-.24.38 1.72.45 1.57.21s.83-.13.41-.66c-.21-.26-.2-.29 0-.19s.27 0 .2-.14c-.13-.36.27.09.21-1.18a3.49 3.49 0 0 0-1.45-2.66c-.32.11-.1-.43-.46-.43s-.32-.83-.9-1.09-.25-.41-.87-.56c-.24 0-.43-.18-.43-.27 0-.38-.66-.16-.85.27-.52 1.14 1.9 4.56 2 6.32.08.34.67.13.57.38ZM98.55 107c.36-.09-.17.8.15.83s0 .3.43.7c.17.17.18.22 0 .13-.34-.21.6.9.57 1.19a.18.18 0 0 0 .15.22c.33 0-.14.15.57 1.08.25.32.39.62.33.67s.26.68.45.59 0 .27.31.3c.1 0 .14 0 .09-.16s.39-.21 1-.23c.21 0 .28-.67.09-.82s-.13-.05-.06.1c.14.31-.35.09-.05-.35s.28-.55 0-.44 0-.49-.41-1c-.17-.21-.26-.38-.19-.37s-.58-.63-1.37-1.6-1.17-.67-1-1-.33-.22-.15-.45-.5-.14-.31-.39-.06-.71-.26-1c-.08-.13-.17-.23-.24-.24s-.09.11 0 .24.15.26-.14.21-.58.55-.28.93-.03.96.32.86Zm3 5c.21-.26 1.22.1 1 .07-.09.2-1.14.07-1.04-.07Zm-2.11-4.45c.16-.45.53-.41.22 0 .01.05-.54.76-.26.02Zm-.63-1.82c.53-.27.31 0 .26 0-.2.27-.69.21-.3.02ZM109.33 108.53c.09 0 .09.08 0 .27-.19.48.34 1.08.28 1.6s1.28 3.07 1.3 3.32c0 .46.47 1.15.66 1s.14 0 0 .18.16.77.38.6.13 0 .11.14c-.07.56 2 2.94 1.79 2 0-.23 0-.26.13-.11.42.43 1.42.09 1.29-.44 0-.2 0-.24.14-.12.36.29 0-.84.29-.65s.31-.93-.24-1c-.22 0-.2-.07.09-.16.5-.16-.08-.07 0-.46s-.47-.42-.43-.75-.72-1.35-.91-1.31-.07-.12 0-.31c.19-.48-.34-.29-.14-.54s-.73-.54-.56-.88a6.53 6.53 0 0 0-1.41-2.24c-.07 0-.11-.14-.1-.33 0-.38-.73-1.24-1.06-1.2a.34.34 0 0 1-.31-.19c-.23-.51-.79.06-.83.06-.49.43 0 .57 0 .41s1.25-.11.76.17-1.16-.14-1.35.1-.06.92.12.84Zm5.8 8.48c0 .22-.31-.32-.28-.56s.38.55.28.55Zm-.41.48c0 .33-.15.35-.23 0-.14-.63.43.03.23 0Zm-3.72-9.82c.3-.28.3-.28.25.12s-.54.21-.25-.12ZM83.39 110c-.09.11.39.66.53 1.54.27 1.69 1.29 2.4 1.11 2.68s.3.28.15.54.48.51.34.73 0 .16.06.16-.1 1 .16.82c.1-.06.16.07.13.31-.05.52.43 1.21.44.79 0-.23 0-.23.18 0s.18.2.18 0 .37-.06.28.11.51.85.32.14c-.1-.39-.07-.43.27-.37s.36 0 .29-.17 0-.22.13-.16.25.07.39-1.31c.08-.72.05-.9-.12-.8s-.18.07-.1-.05-1-3.44-2-4.59c-.75-.82-.3-2.14-.68-1.57-.13.2-.17.11-.17-.36a1.55 1.55 0 0 0-.12-.64c-.65.45-1.3.89-2 1.35.21.38.33.7.23.85ZM69.9 121.14a2 2 0 0 0 .31-1c-.61.65-1.21 1.3-1.79 2 .44 0 .94.01 1.48-1Zm-.19-.28c.44-.8.28 0 .18 0-.26.47-.43.46-.18 0ZM94.33 115.74c-.34-.21.14.19 0 .69 0 .19 0 .27.13.2s.19 0 .19.07c0 .3-.58.09-.18.35s.63-.11.46.15-.78-.26-.49.32-.06.77.19.77-.11.51.22.77c.51.4.21 1.55.71 2.16s.17 2 1.42 3.06c.4.34.51.36.75.12s.28-.1.51.12.31.28.19-.12-.07-.36 0-.19c.52.76 2.35-1-.74-4.93-2.11-2.64-2.74-5-3.07-5-.15 0-.41.31-.43.31-.26.28-.26.35 0 .67s.41.65.14.48Zm3.42 7.62c.13.21-.21.41-.21.07s.25-.07.21-.07ZM123.16 116.43c-.11.07-.13 0 0-.11s.07-.2-.13-.13-.24 0-.17-.26 0-.33-.11-.24c-.31.18.09-.21-.85-.85-.37-.25-.6-.45-.52-.45s0-.11-.13-.27c-.39-.39-.74.09-.55-.22.42-.67-.85.45-.7.19s0-.22-.07-.22c-.62 0 .49.86.39 1.19s.38.12.23.36 2.16 4.13 2.25 4.6c.31 1.58.93 1.14 1.08 1.39s0 .15-.08.08-.24.24-.08.26c.83.09 1.12.29.76.52-.6.37 1.06 0 1-.53s.49-.11.54-.49a2.24 2.24 0 0 0 0-1.65c-.42-.8.21-.2-.9-1.34s-1.73-1.98-1.96-1.83ZM104.34 122.6c.28.22.28.23 0 .12-.6-.22.25.8.28 1.47 0 .32.3 0 .3.59 0 .21 0 .33.11.26s.62.79.5.9.81 1.8 1 1.7.08.83.62 1.84c.39.72.63.53.54.38s.47-.19.77.06 1 .6 1.2 0c.39-1 .39-1.16 0-1.53s-.35-.35-.07-.25c.76.29-.11-1.8-1.29-3.09 0 0-2.9-3.45-2.92-3.57-.33-2.2-1.7 0-1.06-.38s-.84.82.02 1.5ZM88 123.31c.3 0-.38.3 0 .67.17.17.15.2-.09.11-.43-.16-.35.27-.12.27s-.33.31-.06.8c.14.25 0 2.15.71 2.19s-.61.08.09 1.11 1.62 4.64 2 4.2.28-.34.2 0v.4s.88.58.56.42c-.16-.08-.2-.05-.11.08s.44.09.44-.29.36.17.23.37.4 0 .34-.22.42 0 .34-.43c0-.2 0-.27.16-.19s.17.07.09-.07c-.21-.33.4-.9.07-.9-.14 0-.14-.1 0-.33s.09-1-.14-.82.11-.77-.17-.77c-.48 0 .62 0-1.19-3.27 0 0-1.62-3.49-1.63-2.83 0 .43-.2-.24-.4-.21-.72.1-.38-.34 0-.23s-.6-.67-1.19-.28c-.02.04-.34.22-.13.22ZM115 124.53c-.48 0 .22 2.34.93 3.13.3.33.32.4.08.31-.51-.18 1.64 5.58 2.26 5.37.26-.09.27-.07 0 .09-.51.37.35.27.35.82s.81-.06.65.18 1.07.43.94-.34c0-.08 0-.11.11-.06s.79-.4.27-.42c-.29 0-.29 0 0-.15s.28-.17.13-.26.16-1.06.28-1.14c.62-.41-1.3-4-1.6-3.88-.1 0-.14 0-.08-.07s-.51-1.48-.77-1.48-2.14-3.85-2.76-3.27c-.14.13-.18.13-.11 0 .16-.29-.79-.24-.67-.05s-.32-.07-.09.69c.16.32.16.53.08.53Zm4.63 8.74c.19-.3.55-.1.44-.1s-.6.34-.45.1ZM64 132.34c.22-.42-.12.27.33 1.1.38.67.06 1 .78.75.08 0 .1 0 .06.13s.93 1.05 1.15 1 .26.59.78 0 0-.55.28-.74.09-1.27-.18-1.35-.18-.08 0-.1 0-.76-.22-.59-.14 0-.1-.15 0-.26-.2-.15-.25.09-.13-.11c.2-.36.12-1-.13-.93 0 0-1.09-2-2.18-3.52-.18.28-.36.55-.53.83-.28.44-.54.9-.81 1.38.34 1.38.85 2.88 1.1 2.45ZM73.91 137.46c0 .48.52.35.52.85s.54.9.95 1.34l.24-1.05c.06 1.69.47 1.11.48.47 0-1.5 1.05-.28.46-.46s-.37.38.37.36c1.32 0 .1-1.32.14-1.56s-.46-1.37-.59-1.24.2-.33-.27-1.16c-.24-.41-1.18-3-1.44-3s.12-.27-.16-.44.13-.27-.27-.67-.65-1.71-1.31-2.3c-.42-.38-1.38-.53-1.41-.21a1 1 0 0 1-.17.75 48.93 48.93 0 0 0 1.67 6.71c.44 1.3.79 1.15.79 1.61ZM100.73 133.23c.33-.25.33-.26 0-.44-1.51-.81-2.13.4-1.85.73.1.12.14.28.08.34s.3.06.24.25a4.53 4.53 0 0 0 .76 1.61c.06 0 .09.17.07.38-.09 1.19.61 1.08.61 2s1.29 2.71 1.91 2.71c1.38 0 2.08-1 1.45-.76-.25.08-.25.06 0-.11 1-.66-1.54-6.12-2.73-6.12-.13 0-.11-.07 0-.18.81-.5-1.27.13-.54-.41ZM82.82 133.63c0 .26-.17-.06-.53.17s.2 0 .29 1.2c.12 1.63.44.68.7 1.09.07.13 0 .16-.08.08s-.31.42.1.42c.25 0 .26 0 .07.15-.36.23.15.12.15.91 0 .28.09.52.19.52s.13.07.07.17c-.15.26.19.38.25 1.15 0 .16.1.22.22.14s.16 0 .09.06c-.24.39.77 2 .76 2-.08.28.4 1.17.59 1.1s.31.06.42.24c.3.46.74.14.65 0s.36-.47.2-.21.47.48.3.18-.07-.17.11 0c.34.31.44.28.66-.21.33-.73-.32-.45 0-.89.14-.18.11-.31-.15-.57s-.31-.37-.27-.41A4.12 4.12 0 0 0 87 139c-.11 0-.16-.06-.15-.14.11-.49-.88-2.87-1.13-2.71-.1.06-.13 0-.06-.19s0-.26-.07-.19-.22 0-.28-.25c-.15-.56-.33-.17-.5-.72s-.45-.14-.86-.8c-.17-.26-.39-.41-.54-.36s-.21 0-.15-.13c.21-.55-.5-.26-.55-.26-.47.24.11.1.11.38Zm4.63 8.21c.25-.41.74 0 .53 0-.14.24-.66.22-.53 0ZM110.4 135c-.27-.06-.47 1-.11.81.19-.11.2-.09 0 .12-.28.37-.23.86.09.88s.2 0 .07.1-.29.62 0 .89c0 .05 1.19 4.53 1.52 4.33s-.23.37.37.74c.32.19.36.19.27 0s0-.08.15.11c.4.5.15-.07.46-.07.1 0 .14.06.09.13s.66.62.53.41.33-.4.68-.26.14-.18.52-.56.33-.78.09-.42-.22-.08 0-.25.22-.65 0-.52-.15 0-.09-.17c.38-1.05-2.83-4.78-2.89-5s-.3.05-.33-.22c0-.56-.57-1.44-1.22-1.44-.03.24.08.39-.2.39Zm3.52 6.63c.38-.49.41-.23.37-.23s-.83.8-.37.21ZM60.65 145.29c.1 0 .18 0 .16.14s0 .18.16 0 .19-.15.21.1.06.28.56 0c.74-.43.42-1 .59-.88s.43-.77.18-1.1a1.54 1.54 0 0 1-.26-.69c0-.69-1.33-2.9-1.75-3-.12 0-.16-.06-.09-.12s-.73-1.23-1-1.26-.13-.07-.1-.15a.67.67 0 0 0-.12-.56c-.32.87-.64 1.76-.95 2.67.65 1.8 1.46 3.78 1.44 3.92 0 .35.71 1.05.97.93Zm1.59-1.29c.54-.25.31 0 .26 0-.16.24-.65.19-.26 0Zm-.42 0v.33c-.2.31-.11-.48 0-.33Zm-.13 1.29c.45-.44.44-.17.4-.18s-.93.7-.4.18Zm-.69-1.16c.09-.41.13.55-.1.52-.43.51 0-.07.1-.52ZM128.62 146.2c.18 0 .16 0-.09-.25s-.25-.24-.13-.18c.36.17.24-.56 0-.49 0 0-.06-.12 0-.3s0-.47-.87-1.41c-.64-.7-.4-.79-.74-.92s-.21-1.17-.93-.62c-.38.29 0 0-.22-.29a.51.51 0 0 1-.13-.39 6.06 6.06 0 0 0-1.84-1.79c-.25 0 .06-.93 0-.85a.83.83 0 0 1-.28.09c-.34.09-.73.9-.51 1a.2.2 0 0 1 0 .28 4 4 0 0 0 .84 2.08c.1 0 .12.07 0 .17s.32.11.19.33.71.23.24.57c-.19.14-.2.21 0 .27a.18.18 0 0 1 .12.25c-.18.28 1 3.66 2.54 3.56s.45-.41.27-.26c-.51.42-.55-.78-.3-.39s.8 0 1.21 0c.16 0 .16-.08 0-.26s.01-.28.63-.2Zm-4.45-5.06c-.14.22-.64.24-.27 0s.31 0 .27 0Zm1.92 1.22c-.23-.38.46 0 .26 0 0 .22-.11.25-.26 0Zm.33 4.72c-.25.25-.25-.59 0-.35a.22.22 0 0 1 0 .35ZM69 141.37c.07.07 0 .12-.13.12s-.19 0 0 .18.19.17-.09.13-.36 0-.18 1.17c.34 2.17.79 1.77.79 2.24 0 .13-.07.1-.17-.05s-.18-.18-.18 0c0 .32.35.24.35.82s.7 1.19.7 1.48.35.1.35.38c0 .1-.07.13-.17.07-.51-.32.72 2 .71 2.37 0 .22.79.87 1 .8s.13.25.49.25.15-.79.41-.39.6-.28.47-.48 0-.18 0-.18.12-1-.14-1.31c-.11-.14-.14-.27-.06-.27s0-.07-.11-.15-.89-1.88-1.11-1.66c-.05 0-.05-.08 0-.29s0-.36-.12-.26-.18.07-.11 0-.07-.75-.29-.61c0 0-1.19-3.27-1.55-3.27s.2-.18-.31-.69c-.2-.19-.31-.36-.24-.37s-.56-.31-.87-.33-.27.22-.3.22c0 .71.62-.11.86.08ZM93 143.13c.1-.06.08.05 0 .26-.33.61.43.43.24.74s.1 1.57.28 1.46.1.07.05.27c-.1.38.56 1.62.57 2.19 0 .83.88 1.5.42.87-.25-.35-.25-.35.1 0s.41.26.55.12c.28-.29.49.19.17.19-.92 0-.3 1.22.3 1.22.16 0 .25.08.2.18s.68.27.49-.05.29.36.76.05c.3-.2.3-.21 0-.11-.7.21.37-.42.47-.42.37 0-.08-2.27-.37-2.27s.1-.7-.17-.7c-.09 0-2.36-5.11-4-5.11-.47.25-.5 1.38-.06 1.11Zm2.85 6.8c.14-.77.67-.11.55-.11 0 .29-.09 0-.39.24s-.2.11-.16-.13ZM83.8 157.39c.15 0-1-1.4-.58-1.07.16.12.3.18.3.11s.12 0 .24.07c.37.31.29-.12.61.26.44.53 1.15 0 .9-1.2 0 0-3.87-10.05-5.63-10.05-.17 0-.16 0 0 .17s.15.18-.2.18-.62.43-.22.58 0 1.09.24 1.25c.1.06.13 0 .06-.19s0-.26.1-.17c.41.26-.09 1.85.42 1.85s.13 1.5.73 2.62c.34.65.56 2 .92 2.38a4.46 4.46 0 0 1 .65 1.57c.14.49 1.14 1.64 1.46 1.64ZM58.59 156.3c.53-.29.63 0 .63-.61 0-.33.05-.41.15-.25.4.63.27-1.54 0-1.37-.09.05-.18 0-.21-.22-.11-.8-1.29-1.4-1.29-1.72a27.53 27.53 0 0 0-2.07-3.35c-.33 1.25-.66 2.52-1 3.82 1.07 2.16 2.72 4.29 3.79 3.7Zm-1.54-.67c.18-.29.75-.09.6-.09s-.73.3-.6.09ZM109.9 150.32c-.08.05-.16-.07-.16-.26 0-.53-.6-.26-.44-.51s-.51-.75-.69-.59-.09 0 0-.09 0-.22-.19-.22-.27 0-.06-.17 0 0-.32-.7-.48-.22-.61-.7-.64-.47-.64-.09c0 0 0 .26-.19.16s-.16 0-.07.28.06.36-.05.29-.13.05 0 .37c.2.74.44.13.47 1s.46.75.4 1 .25 1.29.47 1.29.31.2.08.45.11 1 .51 1.07a.45.45 0 0 1 .35.49c0 .57.56.57.1.6-.65 0 .73.86.49 1.11s.31-.06.63.55c.64 1.18 2-.07 1.52-.25-.26-.09-.2-.16.46-1-.07.23-.33.88-.07.72s.19 0 .19.08c0 .74.53-1.06.16-1.06-.07 0-.09-.13 0-.26.13-.37-.5-.41-.38-.63s-1-1.28-.85-1.45-.28 0-.28-.3-.68-1.27-.83-1.18ZM124.25 153.81c.65.4-.52-.87-.52-1.07s-.22-.35-.5-.51a2.55 2.55 0 0 1-.81-.88c-.45-.83-.79-.64-.79-1s-2.27-2.25-2.27-2.79c0-.16-.9-.09-1.19.1s-.32-.37.24-.34.6-.3.18-.38-.24.11-.28.11c0 .3-.92-.13-.57.22a.4.4 0 0 1 0 .5c-.17.33 0 1.05.2 1.05s.09.75.31.62.11.07.06.28 0 .33.11.24.2 0 .17.1a8.2 8.2 0 0 0 1.32 2.76c.15.12.79 2.44 1.7 3.27.33.3.34.3.23 0s0-.14.23.15.37.46.55.24.16-.28 0-.34.48-.21.52.3c0 .27 0 .3-.12.13s-.18-.18-.26-.05c-.23.35.67.14.93.14s.17 0 0-.2-.42-.54-.12-.36.25-.26 0-.26.76-.71.95-.59.19-1.21 0-1.08-.52-.5-.27-.36ZM66.78 154.77c-1.09-1.06-.76-1.42-1.11-1.42-.1 0-.14 0-.09-.1s-.83-1.73-1.17-1.8-.27 0-.17.18c.21.36-.28-.13-.42-.13.06.07 0 .26-.14.4-.45.45.09 3.2.63 3.2s-.17.72.82 1.71c.28.28 1.26 2.66 1.66 2.66.18 0 .13 2 .72 1.63.15-.09.15-.06 0 .13s0 .69.43.69.15.41.39.27a.18.18 0 0 1 .27.08c.11.17.89-.11 1.22-.44s.26-1.49.07-1.49-.08-.23-.07-.53c.06-.89-.45-.64-.58-1.21s-.5-1.58-.76-1.58.16-.19-.58-.87-.19-.5-1.12-1.38ZM93.38 163.28a.27.27 0 0 1 .34.11c.06.16.12.15.25 0s.18-.18.27 0c.31.81 1.76-1 .68-.43-.28.14-.34.12-.31-.11.09-.57 1-.7.41-1.42-.18-.23-.18-.25 0-.13.81.49-2.52-5.53-2.62-5.6s-.17-.06-.09.07 0 .21-.06.21c-.32 0 .22-1-.18-.79-.15.09-.2 0-.14-.11s-.81-1.5-1.14-1.5-.14.24-.17.24c.11.3-.24.31-.34 0a10 10 0 0 0 .63 3.88c.14.18.14.21 0 .12-.45-.26 1.41 4.78 1.87 4.78.29.04.22.86.6.68Zm-.51-6.06c-.23-.38.47 0 .27 0 0 .21-.14.25-.27 0ZM106.5 162.12c.18-.28.45.12.45-.15s-1.34-.24-.56-.6c.47-.23.51-.48.08-.48-.26 0-.27 0-.06-.17s-2.43-4-2.48-4.07c-.41-.64-.84-.4-.73-.71s-1.5-1.78-1.5-2.08-.87-.15-.89.09c-.13 1.57 4.31 10.75 3.88 8.46 0-.18.44-.12.37.31s.34.25.22-.4 0 0 .42 0c.17 0 .2.05.07.1-.34.14-.5.4.88.4-1.26-1.42-.36-.36-.15-.7ZM101 155c0-.41.29.1.25.1.14.32-.25.05-.25-.1Zm4.13 4.34c.18-.3.36 0 .31 0 .12.15-.44.15-.31-.05Z"/><path d="M124.06 156.17c.53-.73-.44-.5-.21-.41.07 0 .18.18.11.38s-.07.26.1.03ZM84.54 157.34c.3.12.54-.13.1-.1s-.09.1-.1.1ZM120.28 167.18c0-.19 0-.35-.08-.35s-.08-.14 0-.33c.45-.81-1.39-2.32-1.39-2.22s-.52-.28-.4-.47-.19-.19-.51-.14c-.06 0-.07-.11 0-.25.13-.37-1-1.16-1.31-1.85-.14-.25-1.17-1.47-1.81-.73-.85 1 0 .82-.19 1.57-.23 1.26 1.37 3 1.15 3.25s2.6 4 3.11 2.2c.07-.22.13-.29.14-.15s0 .23.17 0 .2-.23.48 0 .26.16.18 0c-.2-.29.33-.01.46-.53Zm-1.4-.63c.42-.51 0-.59.18-.59.75.04-.9 1.45-.18.59Zm.64.63c.24 0 .27-.41-.08-.29s-.37-.37.44-.37c.31 0 .07.09 0 .09-.39.14.24.13-.12.63s-.45-.06-.24-.06ZM77.58 170.07c-.13.45 1.35 1.07 2.1.28 2-2.12-2.13-5.86-1.93-6.19s-.3-.09-.23-.4-1.11-1.9-1.36-1.8-.19 0-.13-.16-.51-.68-.71-.49-.07 0 0-.17c.17-.45-.31-.39-.77.1s-.17.34-.1 1.3c.18 2.54 1 2.83.84 3.53a.76.76 0 0 0 .19.71c.16.12.23.28.17.37s.27 0 .27.4.09 0 .79 1.38 1 .72.87 1.14Zm1.11-.74c.07.06-.18.38-.22.38-.6.58.13-.47.22-.38ZM61 171.78c0-.24.45.7.7.56s.2.26.73.26c.26 0 .33-.08.25-.29s-.06-.25.17-.06c.51.43.17-.4.72-.6s-.15-1.13.24-.88-.21-1.53-1.39-2.53c-1-.8-.61-1-1-1.27s0-.47-.49-.93-.25-.71-.55-.65.4.13-1-1.41c-2.55-2.7-1.28-.3-2-.76-.12-.07-.15.13-.08.57.3 2.21.79 1.15.56 1.75a7.72 7.72 0 0 0 1 3c.1 0 .13.06.08.16s.31.42.67 1.3.63.53.63.87.76 1.06.76.91Zm-2.85-8.52c0 .28-.47.09-.47-.09-.03-.35.65.09.44.09ZM92.68 175.39c0 .36.2 0 .29-.56.18-1.21-3.38-5.78-3.54-5.72s-.19 0-.12-.19 0-.25-.17-.17c-.48.18.13-.39-.42-.78s-.52-.9-.76-.76-.06-.46-.39-.39 0-.43-.17-.38c-.75.3-.09.83-.43.63s-.2.4-.07.4 0 1.57.2 1.57.1.94.3 1.13a8.2 8.2 0 0 1 .56 1.76c.47 2 2 4.23 2.61 3.86.13-.09.16 0 .2.08s.13.24.48 0h.06c.22-.13.27-.13.24 0v.08q-.18.48.69 0l.19-.11c.21-.13.19-.21 0-.39-.43-.4.25-.25.25-.06ZM103.45 172c0 .77 1.29 2.71 1.8 2.71a.43.43 0 0 1 .36.26c.13.35.81.34.81 0s.4-.32.26-.09.27.23.27 0 .65.17.46-.15.3-.29.12-.59c-.07-.12 0-.14.09-.07s.2 0 .2-.26c0-.63.76-.81.4-1s.17-.53-.32-.89.18-.29-.71-1.28c-1.41-1.57-1.62-2.1-2-2.1s-.39-.76-.76-.63.25-.25-.76-.77c-.79-.4-1.06-.44-1.06-.17a2.53 2.53 0 0 0-1 .89c.79 1.64 1 1.5 1 1.46v.11a3.5 3.5 0 0 0 .49 1.66c.13.21.19.42.12.48s.23.07.23.43Z"/><path d="M108 173.65a.18.18 0 1 0 .35 0 .18.18 0 0 0-.35 0ZM51.47 171.52c.28 0 .21.81.64.6a.26.26 0 0 1 .34.09c.07.15.13.14.24 0s.18-.2.28 0c.36.8 1.69-1.12.65-.47-.27.17-.33.15-.31-.08 0-.58.94-.76.32-1.45-.2-.22-.2-.24 0-.13.53.28-.76-1.95-1.8-3.63-.28 1.51-.56 3-.82 4.58.21.29.37.49.46.49ZM82.39 194.3a3.49 3.49 0 0 0-1.45-2.66c-.32.11-.1-.43-.46-.43s-.32-.83-.9-1.09-.25-.41-.87-.56c-.24-.05-.43-.18-.43-.27 0-.38-.66-.16-.85.27-.52 1.14 1.9 4.56 2 6.32 0 .34.62.13.47.38s1.72.45 1.57.21.83-.13.41-.66c-.21-.26-.2-.29 0-.19s.27 0 .2-.14c-.03-.36.37.09.31-1.18ZM124.9 178.27c-.23-.36-.44-.6-.45-.54s-.14 0-.29-.22c-.34-.43-.54-.19-.43-.3s-.12-.83-.38-.78-.21 0-.15-.14-.06-.25-.22-.42c-.33-.35-.88-.74-.83-.49s-.38.21-.24.06-.25-1-.47-.91 0-.34-.29-.23c-.11 0-.16 0-.11-.13s-.71-.79-.93-.31.15.42.1.73c0 .11-.09.12-.18 0-.33-.29-.07.4.32 1.24.31.65.69 1.38 1 1.82.86 1.47.18 1.27 1.09 2.71.73 1.15 1.44.64 1.17 1s.36.45.34-.15c0-.36 0-.37.16-.07s.23.31.54.15c.46-.24.28-.72 0-.42s0-1 .16-.8.94-.23.63-.5.19-.17-.54-1.3Zm-1.25 1c-.29-.27 0-.25.35.06.16.02.19.44-.35-.07ZM102.59 183.28c.21 0 .28-.67.09-.82s-.13-.05-.06.1c.14.31-.35.09-.05-.36s.28-.54 0-.43 0-.49-.41-1c-.17-.21-.26-.38-.19-.37s-.58-.63-1.37-1.6-1.17-.67-1-1-.33-.22-.15-.45-.5-.14-.31-.39-.06-.71-.26-1c-.08-.13-.17-.23-.24-.24s-.09.11 0 .24.15.26-.14.21-.58.55-.28.93-.06 1 .29 1-.17.8.15.83 0 .3.43.7c.17.17.18.22 0 .13-.34-.21.6.9.57 1.19a.18.18 0 0 0 .15.22c.33 0-.14.15.57 1.08.25.32.39.62.33.67s.26.68.45.59 0 .27.31.3c.1 0 .14 0 .09-.16s.44-.35 1.03-.37ZM99 176.72c-.16.21-.65.17-.26 0s.34.01.26 0Zm.59 1.82s-.5.72-.22 0c.19-.47.56-.43.25 0Zm1.89 4.43c.21-.26 1.22.1 1 .07-.02.18-1.07.05-.97-.04ZM114.05 188.57c.42.43 1.42.09 1.29-.44 0-.2 0-.24.14-.12.36.29 0-.84.29-.65s.31-.93-.24-1c-.22 0-.2-.07.09-.16.5-.16-.08-.07 0-.46s-.47-.42-.43-.75-.72-1.35-.91-1.31-.07-.12 0-.31c.19-.48-.34-.29-.14-.54s-.73-.54-.56-.88a6.53 6.53 0 0 0-1.41-2.24c-.07 0-.11-.14-.1-.33 0-.38-.73-1.24-1.06-1.2a.34.34 0 0 1-.31-.19c-.23-.51-.79.06-.83.06-.49.43 0 .57 0 .41s1.25-.11.76.17-1.16-.14-1.35.1-.08.85.1.77.09.08 0 .27c-.19.48.34 1.08.28 1.6s1.28 3.07 1.3 3.32c0 .46.47 1.15.66 1.05s.14 0 0 .18.16.77.38.6.13 0 .11.14c-.07.56 2 2.94 1.79 2-.03-.21 0-.24.15-.09Zm1.08-.61c0 .22-.31-.32-.28-.56s.38.6.28.6Zm-.41.48c0 .33-.15.35-.23 0-.14-.63.43.03.23 0Zm-3.43-9.7c-.05.44-.58.19-.25-.12s.3-.28.25.12ZM88 188.07c.24.09.25.07.39-1.31.08-.72.05-.9-.12-.8s-.18.07-.1-.05c.17-.27-1-3.44-2-4.59-.75-.82-.3-2.14-.68-1.57-.13.2-.17.11-.17-.36 0-.87-.49-1-.28-1s-.22-.56-.44-.43.19-.33-.25-.51 0 .31-.29.52.36-.5-.79-.5c-.34.12-.13.67-.38.82-.64.4.83 2.34.55 2.67-.09.11.39.66.53 1.54.27 1.69 1.29 2.4 1.11 2.68s.3.28.15.54.48.51.34.73 0 .16.06.16-.1 1 .16.82c.1-.06.16.07.13.31-.05.52.43 1.21.44.79 0-.23 0-.23.18 0s.18.2.18 0 .37-.06.28.11.51.85.32.14c-.1-.39-.07-.43.27-.37s.36 0 .29-.17-.06-.24.12-.17ZM58.56 185.56c-.16-.12-.21-.22-.11-.22.27 0-1.83-2.76-2-3.84 0-.27-.57-.06-.43-.44s-.64-.33-.64 0c.16 0-.35.27-.35.7 0 .64.31.18.25 1.05 0 .33 0 .61.11.61s.11.1.06.23c-.14.35.53 2 .78 1.9s.19.06.12.29c-.17.51.25.38.25.89s.63.49.23.52.86 1.85.72 2 .5.37.36.13.53-.05.33-.37.4-.05.09.3c-.58.69.91.93.58.54s.49-.23.49-.09.55.21.46-.61a2 2 0 0 1 .09-.85 5.49 5.49 0 0 0-1.39-2.74Zm.84 3.62c0 .22-.53 0-.53-.1s.76.1.53.1ZM67.82 193c.57-.13 1.28.62 2.08-.88s-.22-1.45-.17-1.92 0-.82-.23-.7-.14 0-.07-.08c.19-.31-2.35-5.16-2.59-6.18-.32-1.38-1.5-1-1.5-1.15 0-.36-1.51.14-.88.14.21 0 .2 0 0 .22-.84.67-.05 2.42 0 2.33s-.3 1.46.66 2.57c.72.78.88 6.05 2.7 5.65Zm2.07-1.16c-.26.47-.43.46-.18 0 .44-.84.29-.03.18-.03Zm-.22-.82a.18.18 0 0 0 .1-.27c-.07-.11 0-.14.09-.06.61.31-.76.53-.19.31Zm-.32.59c.38-.49.41-.22.36-.22s-.82.78-.36.19Zm-.44-.16c-.25.21-.42.57-.42.17s.72-.2.42-.2Zm-4.49-8.49c-.13.33-.15-.47 0-.33s.04.3 0 .3ZM98.52 195.16c.52.76 2.35-1-.74-4.93-2.11-2.64-2.74-5-3.07-5-.15 0-.41.31-.43.31-.26.28-.26.35 0 .67s.34.66.07.49.14.19 0 .69c0 .19 0 .27.13.2s.19 0 .19.07c0 .3-.58.09-.18.35s.63-.11.46.15-.78-.26-.49.32-.06.77.19.77-.11.51.22.77c.51.4.21 1.55.71 2.16s.17 2 1.42 3.06c.4.34.51.36.75.12s.28-.1.51.12.31.28.19-.12-.05-.36.07-.2Zm-1-.78c0-.48.25-.07.21-.07.15.21-.19.41-.19.07ZM125.94 192.2a2.24 2.24 0 0 0 0-1.65c-.42-.8.21-.2-.9-1.34s-1.6-2-1.83-1.83-.13 0 0-.11.07-.2-.13-.13-.24 0-.17-.26 0-.33-.11-.24c-.31.18.09-.21-.85-.85-.37-.25-.6-.45-.52-.45s0-.11-.13-.27c-.39-.39-.74.09-.55-.22.42-.67-.85.45-.7.19s0-.22-.07-.22c-.62 0 .49.86.39 1.19s.38.12.23.36 2.16 4.13 2.25 4.6c.31 1.58.93 1.14 1.08 1.39s0 .15-.08.08-.24.24-.08.26c.83.09 1.12.29.76.52-.6.37 1.06 0 1-.53s.36-.11.41-.49ZM75.91 182.17c.27-.12.33-.81.07-.79s-.13-.1 0-.29c.3-.69-.43-3-.85-2.71-.21.14-.23-.26 0-.27a9.43 9.43 0 0 0-1-2.24 7.19 7.19 0 0 1-.43-.89c.17-.54-1.92-3.8-2.28-3.54-.07.05-.18 0-.24-.16-.17-.38-.9-.11-.75-.39.23-.44-.3.12-.35.12-.58.51-.48 1.72-.18 1.8.12 0 .23.27.25.53 0 .72.41.6.53 1.28.26 1.54.64.74.57 1.25a.64.64 0 0 0 0 .07c0 .21 0 .33.1.26.34-.23.17 1.57.48 1.34.09-.06.14.06.12.27-.09.73 1.58 4.35 2.19 4.31a.78.78 0 0 1 .55.27c.31.39.44 0 .46.24s.53.09.5-.36.37-.41.25-.18-.11.14.01.08Zm-1-.72c0-.39.31 0 .26 0 .2.21-.17.23-.17 0Zm.65-.75c.38-.79.27 0 .23 0-.04.46-.41.49-.19 0Z"/><path d="M60 188.66s.26.4.26 0c.01-.23-.39-.23-.26 0ZM108.4 200.87c.31.26 1 .6 1.2 0 .39-1 .39-1.16 0-1.53s-.35-.35-.07-.25c.76.29-.11-1.8-1.29-3.09 0 0-2.9-3.45-2.92-3.57-.33-2.2-1.7 0-1.06-.38s-.77.78.09 1.46c.28.22.28.23 0 .12-.6-.22.25.8.28 1.47 0 .32.3.05.3.59 0 .21 0 .33.11.26s.62.79.5.9.81 1.8 1 1.7.08.83.62 1.84c.39.72.63.53.54.38s.4-.15.7.1ZM53.45 200.16c-.15.23.27.58.56.47.1 0 .16 0 .14.12s.35.32.24 0 0-.17.29 0 .35.11.32-.09.06-.25.21-.22.35-.14.12-.51.55.5.58-1.29-.36-1-.29-1.49-.5-1.37-.72-1.29-.09 0 0-.16c.18-.29-1-1.84-1-1.69s-.45-.4-.4-.71-1-2-1.23-1.89a.25.25 0 0 1-.32-.15c-.11-.32-.23 0-.27-.05-.65.67 0 4.19.4 4.05.21-.07.16.26-.09.29s.17 1.42.54 1.9c.14.18.19.35.1.37-.24 0 .07.76.33 1.6s.69.42.49.74ZM90.44 203.61c.28-.34.28-.34.2 0v.4s.88.58.56.42c-.16-.08-.2-.05-.11.08s.44.09.44-.29.36.17.23.37.4 0 .34-.22.42.05.34-.42c0-.21 0-.28.16-.2s.17.07.09-.07c-.21-.33.4-.9.07-.9-.14 0-.14-.1 0-.33s.09-1-.14-.82.11-.77-.17-.77c-.48 0 .62 0-1.19-3.27 0 0-1.62-3.49-1.63-2.83 0 .43-.2-.24-.4-.21-.72.1-.38-.34 0-.23s-.6-.67-1.19-.28c0 0-.28.18-.12.18s-.38.3 0 .67c.17.17.15.2-.09.1-.43-.15-.35.28-.12.28s-.33.31-.06.8c.14.25 0 2.15.71 2.19s-.61.08.09 1.11 1.64 4.68 1.99 4.24ZM119.47 199.13c-.1 0-.14 0-.08-.07s-.51-1.48-.77-1.48-2.14-3.85-2.76-3.27c-.14.13-.18.13-.11 0 .16-.29-.79-.24-.67 0s-.32-.07-.09.69c.09.31.09.52 0 .52-.48 0 .22 2.34.93 3.13.3.33.32.4.08.31-.51-.18 1.64 5.58 2.26 5.37.26-.09.27-.07 0 .09-.51.37.35.27.35.82s.81-.06.65.18 1.07.43.94-.34c0-.08 0-.11.11-.06s.79-.4.27-.42c-.29 0-.29 0 0-.15s.28-.17.13-.26.16-1.06.28-1.14c.7-.45-1.22-4.05-1.52-3.92Zm.59 5c0 .08-.59.34-.44.1s.55-.11.44-.11ZM67.17 204.14c-.16 0-.18-.08 0-.1s0-.76-.22-.59-.14 0-.1-.15 0-.26-.2-.15-.25.09-.13-.11c.2-.36.12-1-.13-.93-.07 0-3.17-6-4.3-5.12a1.37 1.37 0 0 0 .15 1.55s1.36 5.52 1.77 4.75c.22-.42-.12.27.33 1.1.38.67.06 1 .78.75.08 0 .1 0 .06.13s.93 1 1.15 1 .26.59.78 0 0-.55.28-.74.05-1.31-.22-1.39Zm-4-5.65c-.35-.22-.32-.52 0-.53s-.37.07 0 .47c.34.24.33.24.03.06ZM75.38 210.6l.24-1c.06 1.69.47 1.11.48.47 0-1.5 1.05-.28.46-.46s-.37.38.37.36c1.32 0 .1-1.32.14-1.56s-.46-1.37-.59-1.24.2-.33-.27-1.16c-.24-.41-1.18-3-1.44-3s.12-.27-.16-.44.13-.27-.27-.67-.65-1.71-1.31-2.3c-.42-.38-1.38-.53-1.41-.21a1 1 0 0 1-.17.75 48.93 48.93 0 0 0 1.67 6.71c.44 1.26.79 1.07.79 1.57s.52.35.52.85.57.89.95 1.33ZM102.56 211.74c1.38 0 2.08-1 1.45-.76-.25.08-.25.06 0-.11 1-.66-1.54-6.12-2.73-6.12-.13 0-.11-.07 0-.18.73-.48-1.34.15-.62-.39.33-.25.33-.26 0-.44-1.51-.81-2.13.4-1.85.73.1.12.14.28.08.34s.3.06.24.25a4.53 4.53 0 0 0 .76 1.61c.06 0 .09.17.07.38-.09 1.19.61 1.08.61 2s1.37 2.69 1.99 2.69ZM87.92 212.29c-.19-.19-.31-.37-.27-.41A4.12 4.12 0 0 0 87 210c-.11 0-.16-.06-.15-.14.11-.49-.88-2.87-1.13-2.71-.1.06-.13 0-.06-.19s0-.26-.07-.19-.22 0-.28-.25c-.15-.56-.33-.17-.5-.72s-.45-.14-.86-.8c-.17-.26-.39-.41-.54-.36s-.21 0-.15-.13c.21-.55-.5-.26-.55-.26-.49.2.09.06.09.34s-.17-.06-.53.17.2 0 .29 1.2c.12 1.63.44.68.7 1.09.07.13 0 .16-.08.08s-.31.42.1.42c.25 0 .26 0 .07.15-.36.23.15.12.15.91 0 .28.09.52.19.52s.13.07.07.17c-.15.26.19.38.25 1.15 0 .16.1.22.22.14s.16-.05.09.06c-.24.39.77 2 .76 2-.08.28.4 1.17.59 1.1s.31.06.42.24c.3.46.74.14.65 0s.36-.47.2-.21.47.48.3.18-.07-.17.11 0c.34.31.44.28.66-.21.33-.73-.32-.45 0-.89.2-.18.17-.31-.09-.57Zm.06.5c-.14.24-.66.22-.53 0 .25-.41.74 0 .55 0ZM114.55 214.12c.36.14.14-.18.52-.56s.33-.78.09-.42-.22-.08 0-.25.22-.65 0-.52-.15 0-.09-.17c.38-1-2.83-4.78-2.89-5s-.3 0-.33-.22c0-.56-.57-1.44-1.22-1.44 0 .22.08.4-.2.35s-.47 1-.11.81c.19-.11.2-.09 0 .12-.28.37-.23.86.09.88s.2 0 .07.1-.29.62 0 .89c0 .05 1.19 4.53 1.52 4.33s-.23.37.37.74c.32.19.36.19.27 0s0-.08.15.11c.4.5.15-.07.46-.07.1 0 .14.06.09.14s.66.61.53.4.33-.34.68-.22Zm-.63-1.56c.38-.49.41-.23.37-.23s-.83.82-.37.23ZM62.25 213.79c0-.69-1.33-2.9-1.75-3-.12 0-.16-.06-.09-.12s-.73-1.23-1-1.26-.13-.07-.1-.15c.09-.27-.15-.76-.35-.68s-.16 0-.08 0-.06-.85-.29-.75-.15 0-.11-.12-.84-.58-.91-.25c.06 0-.35.8 0 .84.12 0 .11.07 0 .14-.5.24 2.22 6.63 2.19 6.88s.67 1 .93.91c.1-.05.18 0 .16.14s0 .18.16 0 .19-.15.21.1.06.28.56 0c.74-.43.42-1 .59-.88s.43-.77.18-1.1a1.54 1.54 0 0 1-.3-.7Zm-1.34 1.81c-.44.51 0-.07.1-.52s.13.55-.1.52Zm.91-.65v.33c-.2.31-.11-.48 0-.28Zm.27 1.11c0 .06-.93.7-.4.18s.44-.17.4-.18Zm.41-1.06c-.16.2-.65.15-.26 0s.31 0 .26 0ZM127.14 218c-.51.42-.55-.78-.3-.39s.8 0 1.21 0c.16 0 .16-.08 0-.26s0-.31.55-.23c.18 0 .16-.05-.09-.25s-.25-.24-.13-.18c.36.17.24-.56 0-.49 0 0-.06-.12 0-.3.09-.33 0-.47-.87-1.41-.64-.7-.4-.79-.74-.92s-.21-1.17-.93-.62c-.38.29 0 0-.22-.29a.51.51 0 0 1-.13-.39 6.06 6.06 0 0 0-1.84-1.79c-.25 0 .06-.93 0-.85a.83.83 0 0 1-.28.09c-.34.09-.73.9-.51 1a.2.2 0 0 1 0 .28 4 4 0 0 0 .84 2.08c.1 0 .12.07 0 .17-.15.25.32.11.19.33s.71.23.24.57c-.19.14-.2.21 0 .27a.18.18 0 0 1 .12.25c-.18.28 1 3.66 2.54 3.56s.53-.35.35-.23Zm-3-5.94c-.14.22-.64.24-.27 0s.34.03.3.03Zm1.92 1.22c-.23-.38.46 0 .26 0 .03.25-.08.28-.23.03Zm.33 4.72c-.25.25-.25-.59 0-.35a.22.22 0 0 1 .03.35ZM73.15 219.6c.08 0 0-.07-.11-.15s-.89-1.88-1.11-1.66c-.05.05-.05-.08 0-.29s0-.36-.12-.26-.18.07-.11-.05-.07-.75-.29-.61c0 0-1.19-3.27-1.55-3.27s.2-.18-.31-.69c-.2-.19-.31-.36-.24-.37s-.56-.31-.87-.33-.27.22-.3.22c0 .83.62 0 .81.18s0 .12-.13.12-.19 0 0 .18.19.17-.09.13-.36 0-.18 1.17c.34 2.17.79 1.77.79 2.24 0 .13-.07.1-.17 0s-.18-.18-.18-.05c0 .32.35.24.35.82s.7 1.19.7 1.48.35.1.35.38c0 .1-.07.13-.17.07-.51-.32.72 2 .71 2.37 0 .22.79.87 1 .8s.13.25.49.25.15-.79.41-.39.6-.28.47-.48 0-.18 0-.18.12-1-.14-1.31c-.06-.19-.09-.32-.01-.32ZM97.17 218.73c-.22 0 .1-.7-.17-.7-.09 0-2.36-5.11-4-5.11-.44.3-.47 1.43 0 1.16.1-.06.08 0 0 .26-.33.61.43.43.24.74s.1 1.57.28 1.46.1.07.05.27c-.1.38.56 1.62.57 2.19 0 .83.88 1.5.42.87-.25-.35-.25-.35.1-.05s.41.26.55.12.49.19.17.19c-.92 0-.3 1.22.3 1.22.16 0 .25.08.2.18s.68.27.49-.05.29.36.76.05c.3-.2.3-.21 0-.11-.7.21.37-.42.47-.42.31 0-.14-2.27-.43-2.27Zm-.77 2c0 .29-.09 0-.39.24s-.2.11-.16-.13c.15-.73.67-.07.55-.07ZM79.64 216.46c-.17 0-.16 0 0 .17s.15.18-.2.18-.62.43-.22.58 0 1.09.24 1.25c.1.06.13 0 .06-.19s0-.26.1-.17c.41.26-.09 1.85.42 1.85s.13 1.5.73 2.62c.34.65.56 2 .92 2.38a4.46 4.46 0 0 1 .65 1.57c.1.49 1.1 1.64 1.42 1.64.15 0-1-1.4-.58-1.07.16.12.3.18.3.11s.12 0 .24.07c.37.31.29-.12.61.26.44.53 1.15 0 .9-1.2.03-.04-3.83-10.05-5.59-10.05ZM58.59 227.25c.53-.29.63 0 .63-.61 0-.33.05-.41.15-.25.4.63.27-1.54 0-1.37-.09 0-.18-.05-.21-.22-.11-.8-1.29-1.4-1.29-1.72s-2.26-3.47-2.63-4.32c-.23-.54-.54-.1-.48-.41s-.91 0-.52-.47c.15-.19.16-.23 0-.15s-.23.05-.27 0-.51.09-.56.09c-.67.35-.32.43-.14 1.26s.48.26.45 1.12c-.08 1.91 3.15 8 4.87 7.05Zm-.94-.76c0 .09-.73.3-.6.09s.75-.09.6-.09ZM112.17 225.2c-.07 0-.09-.13 0-.26.13-.37-.5-.41-.38-.63s-1-1.28-.85-1.45-.28 0-.28-.3-.57-1.38-.72-1.29-.16-.07-.16-.26c0-.53-.6-.26-.44-.51s-.51-.75-.69-.59-.09 0 0-.09 0-.22-.19-.22-.27 0-.06-.17 0 0-.32-.7-.48-.22-.61-.7-.64-.47-.64-.09c0 0 0 .26-.19.16s-.16 0-.07.28.06.36-.05.29-.13.05 0 .37c.2.74.44.13.47 1s.46.75.4 1 .25 1.29.47 1.29.31.2.08.45.11 1 .51 1.07a.45.45 0 0 1 .35.49c0 .57.56.57.1.6-.65 0 .73.86.49 1.11s.31-.06.63.55c.64 1.18 2-.07 1.52-.25-.26-.09-.2-.16.46-1-.07.23-.33.88-.07.72s.19 0 .19.08c-.12.85.42-.95.05-.95ZM124.44 225.1c-.21.13-.42-.48-.19-.34.65.4-.52-.87-.52-1.07s-.22-.35-.5-.51a2.55 2.55 0 0 1-.81-.88c-.45-.83-.79-.64-.79-1s-2.27-2.25-2.27-2.79c0-.16-.9-.09-1.19.1s-.32-.37.24-.34.6-.3.18-.38-.24.11-.28.11c0 .3-.92-.13-.57.22a.4.4 0 0 1 0 .5c-.17.33 0 1.05.2 1.05s.09.75.31.62.11.07.06.28 0 .33.11.24.2 0 .17.1a8.2 8.2 0 0 0 1.32 2.76c.15.12.79 2.44 1.7 3.27.33.3.34.3.23 0s0-.14.23.15.37.46.55.24.16-.28 0-.34.48-.21.52.3c0 .27 0 .3-.12.13s-.18-.18-.26-.05c-.23.35.67.14.93.14s.17-.05 0-.2-.42-.54-.12-.36.25-.26 0-.26.76-.71.95-.59.13-1.2-.08-1.1ZM69.88 231.29s-.08-.23-.07-.53c.06-.89-.45-.64-.58-1.21s-.5-1.58-.76-1.58.16-.19-.58-.87-.18-.5-1.11-1.38c-1.09-1.06-.76-1.42-1.11-1.42-.1 0-.14-.05-.09-.1s-.83-1.73-1.17-1.8-.27 0-.17.18c.21.36-.28-.13-.42-.13.06.07 0 .26-.14.4-.45.45.09 3.2.63 3.2s-.17.72.82 1.71c.28.28 1.26 2.66 1.66 2.66.18 0 .13 2 .72 1.63.15-.09.15-.06 0 .13s0 .69.43.69.15.41.39.27a.18.18 0 0 1 .27.08c.11.17.89-.11 1.22-.44s.25-1.49.06-1.49ZM94.92 233.93c-.28.14-.34.12-.31-.11.09-.57 1-.7.41-1.42-.18-.23-.18-.25 0-.13.81.49-2.52-5.53-2.62-5.6s-.17-.06-.09.07 0 .21-.06.21c-.32 0 .22-1-.18-.79-.15.09-.2.05-.14-.11s-.81-1.5-1.14-1.5-.14.24-.17.24c.11.3-.24.31-.34 0a10 10 0 0 0 .63 3.88c.14.18.14.21 0 .12-.45-.26 1.41 4.78 1.87 4.78.28 0 .16.82.59.64a.27.27 0 0 1 .34.11c.06.15.12.15.25 0s.18-.18.27.05c.32.8 1.77-1.02.69-.44Zm-1.78-5.76c0 .21-.12.25-.27 0s.47 0 .27 0ZM106.39 232.32c.47-.23.51-.48.08-.48-.26 0-.27 0-.06-.17s-2.43-4-2.48-4.07c-.41-.64-.84-.4-.73-.71s-1.5-1.78-1.5-2.08-.87-.15-.89.09c-.13 1.57 4.31 10.75 3.88 8.46 0-.18.44-.12.37.31s.34.25.22-.4 0 0 .42 0c.17 0 .2.05.07.1-.34.14-.5.4.88.4-1.26-1.41-.36-.35-.15-.69s.45.12.45-.16-1.34-.24-.56-.6ZM101 225.9c0-.41.29.1.25.1.14.37-.25.1-.25-.1Zm4.13 4.34c.18-.3.36 0 .31 0 .12.2-.44.2-.31 0Z"/><path d="M123.85 226.71c.07 0 .18.18.11.38s-.07.26.1 0c.53-.7-.44-.47-.21-.38ZM84.64 228.19c-.37 0-.09.1-.1.1.3.12.54-.13.1-.1ZM118.83 235.23c0 .15-.52-.28-.4-.47s-.19-.19-.51-.14c-.06 0-.07-.11 0-.25.13-.37-1-1.16-1.31-1.85-.14-.25-1.17-1.47-1.81-.73-.85 1 0 .82-.19 1.57-.23 1.24 1.32 3 1.16 3.24l4.28-.16a4 4 0 0 0-1.22-1.21ZM77.75 235.11c.14-.23-.3-.09-.23-.4s-1.11-1.9-1.36-1.8-.19 0-.13-.16-.51-.68-.71-.49-.07 0 0-.17c.17-.45-.31-.39-.77.1s-.17.34-.1 1.3c.18 2.54 1 2.83.84 3.53a.88.88 0 0 0 .06.54l4-.06c-.73-1.23-1.7-2.23-1.6-2.39ZM60.3 236.34c-.38.08.4.13-1-1.41-2.55-2.7-1.28-.3-2-.76-.12-.07-.15.13-.08.57.3 2.21.79 1.15.56 1.75a3.73 3.73 0 0 0 .22 1.22h3.15c-.08-.19.06-.39-.27-.72s-.28-.71-.58-.65Zm-2.18-2.13c0 .28-.47.09-.47-.09 0-.35.68.09.47.09ZM50.62 235.57c-.09 0-.11 0 0 .1a.09.09 0 0 1 0 .07.09.09 0 0 1 0 .07.08.08 0 0 1-.08.06c-.32 0 .16-1.05-.23-.77-.14.09-.2.06-.15-.1.09-.31-.9-1.45-1.23-1.43s-.12.25-.16.25c.14.29-.21.32-.33.05a10.3 10.3 0 0 0 .87 3.83h2.72c-.7-1.13-1.34-2.12-1.39-2.14Zm.86 1.47c0 .21-.1.25-.26 0s.46-.04.26-.04ZM46.94 202.45c.27 0 0 .3.43.7.17.17.18.22 0 .13-.34-.21.6.9.57 1.19a.18.18 0 0 0 .15.22c.33 0-.14.15.57 1.08.25.32.4.62.33.67s.26.68.45.59 0 .27.31.3c.1 0 .14-.05.1-.16s.26-.22.74-.23h.21c.21 0 .29-.67.09-.82s-.13-.05-.06.1c.14.31-.35.09 0-.36s.29-.54 0-.43-.09-.26-.24-.67a1.12 1.12 0 0 0-.18-.34c-.17-.21-.26-.38-.19-.37s-.58-.63-1.36-1.6-1.18-.67-1-1-.33-.22-.15-.45-.5-.14-.31-.39-.12-.89-.35-1.17l-.11 1c.53-.27.31 0 .27 0a.44.44 0 0 1-.32.14l-.12 1.1c.31-.03-.13.74.17.77Zm3.68 4.18c.13 0 .18.08.1.07s0 .05-.1.07c-.25.07-.95 0-.87-.14s.63-.07.87 0Zm-3-4.45c.17-.45.53-.41.23 0 .06.03-.48.74-.21 0ZM49 218c-.5.42-.54-.78-.3-.39s.81 0 1.22 0c.15 0 .16-.08 0-.26s0-.31.55-.23c.19 0 .16-.05-.08-.25s-.25-.24-.13-.18c.36.17.23-.56 0-.49 0 0-.06-.12 0-.3.09-.33 0-.47-.87-1.41-.64-.7-.39-.79-.74-.92s-.2-1.17-.93-.62c-.38.29 0 0-.22-.29a.51.51 0 0 1-.13-.39c0-.16-.91-1.13-1.47-1.57l-.13 1.36c.49-.31.3 0 .26 0a.46.46 0 0 1-.27.17l-.08.89v.16a.07.07 0 0 0 0 .06c0 .12.33.06.21.24s.72.23.24.57c-.19.14-.2.21 0 .27s.18.16.12.25c-.17.28 1 3.66 2.55 3.56s.4-.35.2-.23Zm-1-4.69c-.23-.38.46 0 .26 0-.03.22-.14.25-.26 0Zm.3 4.69c-.24.25-.24-.59 0-.35a.22.22 0 0 1 0 .35ZM44.57 227.09v.32c.12-.17.12-.26 0-.32Z"/><path d="M46.33 225.1c-.22.13-.43-.48-.2-.34.65.4-.52-.87-.52-1.07s-.22-.35-.5-.51a1.66 1.66 0 0 1-.24-.18c-.11 1.41-.21 2.75-.3 4a.42.42 0 0 1 .47.38c0 .27 0 .3-.11.13s-.18-.18-.27-.05c-.23.35.67.14.93.14s.18-.05 0-.2-.42-.54-.13-.36.25-.26 0-.26.76-.71 1-.59.08-1.19-.13-1.09Z"/><path d="M45.73 226.71c.07 0 .18.18.12.38s-.08.26.09 0c.54-.7-.44-.47-.21-.38Z"/><path class="cls-4" d="M111.4 200.82s-41.18 9.73-50.91 24.31 10.3 101.24 11.73 124.69l3.43 57.48s35.46 6.29 67.49 6.87a258.21 258.21 0 0 0 60.34-6.58l5.44-66.59 2.86-3.14s3.14 8 8.86 6 29.17-33.17 37.47-47.47 12.3-49.19.86-65.2-22.31-22.31-38.61-28.32a269.52 269.52 0 0 0-32.36-9.48Z"/><path class="cls-9" d="M215.78 241.43c-13.73 8.87-34 44.62-34 44.62M204.06 242c-8.3 8-14.59 25.74-14.59 25.74"/><path class="cls-4" d="M74.46 387.24c18.27-29.17 40.29-60.71 61.76-88.37 31.32-40.33 61.79-73 88.24-94.48-.21-1.59-9.29-5.49-14.16-5-25.94 22.15-54.24 52.9-84.3 91.61-18 23.24-36.5 49.24-52.85 74.33-1.15 7.39-1.15 15.02 1.31 21.91Z"/><path d="M111.4 200.82a209.59 209.59 0 0 0-20.2 6.1c-2.18 14.94 1.14 39 18.91 54.39 18.88 16.3 50.19 11.15 50.19 11.15s24.45-17.16 29.6-40.75a171.48 171.48 0 0 0 3.7-37c-3.45-.86-5.56-1.31-5.56-1.31Z" style="fill:#7ba1ae"/><path class="cls-11" d="M112.83 158.5c0 12-1.72 39.18-3.15 44.32 0 0-6.29 21.45 5.44 35.47S136 253.44 136 253.44s20.88 5.44 36-9.72l-8.58-89.23Z"/><path class="cls-11" d="M106.25 94c8.29-5.72 19.26-9.44 33.56-9.72s27.35 3.62 31.07 9.91a27.35 27.35 0 0 1 3.72 12.58s6.58 64.64-35.46 66.64-37.37-59-36.51-64.16S106.25 94 106.25 94Z"/><path class="cls-4" d="M176.36 99.49h-18.43l-3.83-7a5.33 5.33 0 0 0-4.67-2.77h-15.52a5.31 5.31 0 0 0-4.28 2.16L124 99.49h-17.14a10.32 10.32 0 0 0-10.33 10.33v32.84A10.33 10.33 0 0 0 106.86 153h69.5a10.34 10.34 0 0 0 10.34-10.33v-32.85a10.33 10.33 0 0 0-10.34-10.33Z"/><circle cx="141.33" cy="130.37" r="26.88" style="fill:#2e4552"/><circle cx="141.33" cy="130.37" r="18.24" transform="rotate(-76.72 141.322 130.375)" style="fill:#010101"/><path class="cls-14" d="M165.45 106.07h8.2v2.48h-8.2zM108.25 106.07h8.2v2.48h-8.2z"/><path class="cls-4" d="M135.04 93.58H148v5.15h-12.96z"/><path class="cls-15" d="M128.27 122.18c1.43-2.44 4.58-4.94 6.44-5.44M146.29 144.63c2.14-.58 4.79-2.15 5.79-3.65"/><path class="cls-16" d="M170.88 108.26c-3.57 1.9-4.76 7.24-3.62 13.92s2.86 16.58 2.1 19.06-11.25 12.76-20.21 14.68-19.07.38-22.5-2.86-6.67-9.15-10.49-8-5.14 12.4-4.38 15.26a11.55 11.55 0 0 0 2.1 4.38s-2.29 8.39 2.67 13.16a10.22 10.22 0 0 0 2.85 9.34s.58 6.67 8.39 10.87 10.87 4.57 10.87 4.57-10.1 43.85-15.06 70.16-15.35 71.31 11.82 89.61c22.1 14.89 46.33 6.87 60.06-4.86a101.07 101.07 0 0 0 20.59-23.74 35.85 35.85 0 0 0-13.73-15.15c-9.72-5.72-15.16-6.58-15.16-6.58s8.58-67.49 9.15-103.24-7.72-67.78-11.15-78.65-6-21.73-8.58-22.3-4.29-.39-5.72.37Z"/><path class="cls-17" d="M176.79 120.75c1.54.93 4.63.93 5.79.87-2.21-7.4-4.1-13.33-6-13.74-2.57-.58-4.29-.38-5.72.38l-.13.08c1.62 6.88 2.44 10.21 6.06 12.41ZM119.31 159.83a27.94 27.94 0 0 0-2.2-14.92 4 4 0 0 0-1 .14c-3.81 1.15-5.14 12.4-4.38 15.26a11.55 11.55 0 0 0 2.1 4.38l2.67 2.24a15 15 0 0 0 2.81-7.1Z"/><path class="cls-18" d="M116.55 166.93c4 5.29 12.44 8.72 20.44 8.72a85.27 85.27 0 0 0 14.59-1.28M116.55 177.85c4.28 3.67 9.86 7.24 15.44 8.39a45.32 45.32 0 0 0 12.44.28M119.4 187.19c3.44 4.05 15.45 8.91 20.88 8.63"/><path class="cls-16" d="M83.75 97.77c10.58-5.76 18.69-5.53 24-5.72s9.35 1.53 9.16 4.39-.58 4.38-5 5.91a18.11 18.11 0 0 1-7.44 1.14S90.43 113.6 86.8 116.07c0 0 10.11-1.71 15.26 1.15s9 9.34 5.91 16.4a16.13 16.13 0 0 1 .19 9s5.14 4.57.76 12-11.06 9-13.92 9.91-6.29 0-6.67-2.67a26 26 0 0 1 .57-7.05l-3.81 1.33s1.52 30.32 2.48 45.76 12.67 82.17 11 108.77-9.44 59.2-41.61 57.48-38.22-38.21-34.79-66.95S35 219.7 37.61 188.38s4.72-50.62 15.45-66.06 25.35-21.64 30.69-24.55Z"/><path class="cls-17" d="M107.77 92.05c-2.06.08-4.55.09-7.43.41 3.33 5.11 10.12 6 13.06 6.12a11.32 11.32 0 0 0 3.3-.29 13.34 13.34 0 0 0 .23-1.85c.19-2.86-3.82-4.58-9.16-4.39ZM88.63 162.78c1 1.94 3.88 2.55 6.37 1.72a26.73 26.73 0 0 0 8.86-4.15c-2.31-2.5-10.54-.06-15.23 2.43Z"/><path class="cls-18" d="M85.09 156.11a32.82 32.82 0 0 1-8.15 2.1M88.9 154.78c3.91 0 11.92-2.43 11.92-2.43M108.16 142.58a23.82 23.82 0 0 0-18.07-4.25 84.76 84.76 0 0 0-14 3.29M107.39 133.76c-2.14-4.72-9.29-8.3-16.3-8.3a34 34 0 0 0-12.29 2.29M86.8 116.07c-3.72.1-11.44 3-11.44 3"/></g></svg>