<svg xmlns="http://www.w3.org/2000/svg" viewBox="0 0 280 280"><defs><clipPath id="clip-path"><circle id="SVGID" class="cls-1" cx="500" cy="-220" r="129"/></clipPath><clipPath id="clip-path-2"><circle id="SVGID-2" data-name="SVGID" class="cls-2" cx="140" cy="140" r="129"/></clipPath><style>.cls-1{fill:#fdc644}.cls-2{fill:#e9dac9}.cls-15,.cls-16,.cls-8{fill:none;stroke-linecap:round;stroke-linejoin:round}.cls-16,.cls-8{stroke:#010101}.cls-15,.cls-8{stroke-width:.86px}.cls-9{fill:#153745}.cls-16{stroke-width:2.58px}.cls-15{stroke:#ab4e31}</style></defs><g style="isolation:isolate"><g id="Layer_1" data-name="Layer 1"><circle id="SVGID-3" data-name="SVGID" class="cls-1" cx="500" cy="-220" r="129"/><g style="clip-path:url(#clip-path)"><path d="M338.7-259.56c15.17-.64 30.89 6.58 44.33 13.16s27.74 20.87 37.46 30 28.89 36 36.61 57.77 19.16 68.93 19.16 68.93l2.86 6S486-108.56 490-121.43a246.31 246.31 0 0 1 9.43-24.88l51.48 16.59s-6 46-18 72.92S510-2.17 470-3.6s-61.49-30.89-65.49-37.47c0 0-18 22.6-26.6 43.19-6.46 15.49-16.59 36.44-19.73 40.73S313 50.57 282.65 50s-62.92-9.72-62.92-9.72 15.16-59.53 32.89-106.8c20.59-54.91 56.62-105.53 78.93-123.83 0 0-12.87 4-23.16-1.72-17.24-9.57-23.82-28.67-24.31-40.89-.57-14.3 27.74-25.46 54.62-26.6Z" style="fill:#df6d58"/></g><circle id="SVGID-4" data-name="SVGID" class="cls-2" cx="140" cy="140" r="129"/><g style="clip-path:url(#clip-path-2)"><path d="M97.46 213.87c-25 13.73-77.6 38.89-113.06 99.52s-26.88 96.09-18.3 112.11 120.11-19.45 120.11-19.45l127-15.16h122.4s4-55.76-34.32-102.09-70.54-62.54-106.19-73.6-97.64-1.33-97.64-1.33Z" style="fill:#047889"/><path class="cls-8" d="M78.78 269.06c-.58 9.44-7.44 18.31-9.73 29.75s.29 26.31 3.43 31.74"/><path class="cls-8" d="M68.77 274.78c.85 9.73 4 13.73 4 13.73"/><path class="cls-9" d="M166.48 84.79S157.71 74.12 161.9 60s21-23.45 34.13-17.35 16.14 20.79 10.3 32.79c-7.25 14.87-31.46 14.87-31.46 14.87ZM106.42 90.7C98.22 88 83 83.27 82.59 67.63c-.45-18.31 14.11-25.54 25.55-25.16a21.19 21.19 0 0 1 20.4 21.73c-.19 12.59-8 18.88-8 18.88Z"/><path d="M209.15 62.24h-.06c-.53.29-1.3-.34-2.09-.21s-.62-.24-.7 0a.22.22 0 0 1-.29.12.6.6 0 0 0-.31 0 1.63 1.63 0 0 0-.72-.46s-4-1.49-4.14-1.17-.79-.58-.72-.25-.51.06-.35-.08-.11.07-2.56-1.11c-2.87-1.39-2.18-.42-2.46-.86s-1.55-.93-1.74-.76-.21.08-.3-.05c-.31-.48-2.86-1-3.17-1.45-.11-.17-.16-.17-.22 0s-.09.16-.13 0a.55.55 0 0 0-.19-.15c-.58-.31-2.36-.74-2.88-1.1-.26-.18-.38-.2-.35-.07.08.33-1.4-.85-2.19-.53-.53.23.47-.17-2-.78-1.23-.3-.4-.65-1.81-.52-.22 0-.29 0-.23-.22s-.42-.47-.86-.37c-.28.06-1.85-.61-1.9-.45-.13.41-1.71-1.13-2.54-.91a.19.19 0 0 1-.24-.15c-.08-.36-.54-.39-.52 0 0 .61-.09-.32-.89-.53s-.62-.55-1.2-.44-1.17-.47-1.11-.21-.45.07-.29-.07-.13-.47-.2-.24-.56.07-.49-.15-.57-.44-.67-.13a.48.48 0 0 1-.39.32c-.51.53-1 1.09-1.47 1.66.5.19 1 .33 1 .25a2.29 2.29 0 0 1 1 .19c1.33.42 1.59-.23 1.31.17s1.46.76 1.49.65c.11-.35 1.7.81 1.77.58s.83.19 1 .52c.1.15.17.14.22 0s.09-.15.13 0a6.35 6.35 0 0 0 2.55.84c.26-.13.71.68.61.23s.1.22 1.06.34.86.53 1.29.35c.16-.06.23-.06.15 0s.06.21 2.76 1c.88.24 1.12-.17 1 .14s.15 0 .84.43.24 0 .72 0 .54 0 .21.15-.22.11-.11.14c.37.12.71.61.63.18s0 .22.83.29a5 5 0 0 1 1.16.35c.77.31 1.59.66 1.65.46s-.26.22 1.43.67.8.48 1.25.62c.17.06.24 0 .23-.24s0-.32.18 0-.1.43 4.54 2c3.31 1.13 4.49 1.32 4.84 1.26l.12.15c.2.22.37-.26.59.07a1.4 1.4 0 0 0 .66.33c.06.62 1.5.52 3.66 1.07.13 0 .19 0 .16-.19s0-.16.14.06c.27.44 1 .26 1.3.33.04-.67.04-1.37.01-2.07Zm-12.74-2.92c-.76.67-.07-.38.23-.28.04.01-.19.29-.23.28Zm9 3h-.06c-.02-.07.01-.07.06-.01ZM208.37 66.9c-.53.09-.63-.59-1.21-.45s-.87-.37-1.64-.47c-1.14-.16-1.6-.67-1.7-.34-.06.17-.09.15-.15-.07s-.19-.26-.78-.19c-1 .13-.86-.18-.61-.1s.12-.2-.21-.37-.61-.08-.47.3c.21.57.07 0-.88-.51-.45-.24-.57-.26-.43-.07s.11.23 0 .19c-.36-.12.18-.24-1.46-.76 0 0-5.82-2.44-5.29-1.79.26.33-.2.15-.25-.06s-2-.91-2.09-.71-.12.11-.19 0c-.2-.24-.16.22-.41.14s.64-.38-.55-.67-1.57.09-1.65-.24-.54.13-.76-.13a.1.1 0 0 0-.08-.05l-.05-.08a9.23 9.23 0 0 0-3.95-1.41c-.34.26.36-.14-.89-.55s-.59.18-.93.07 0-.81-.42-.48c-.15.12-.2.12-.15 0s-1.13-.66-1-.36c0 .07-4.05-1.75-4.56-1.38-.22.15-.28.14-.33-.07s0-.2.11-.06.43-.06-1-.51c-.78-.25-1-.27-1.07-.1s-.09.16-.17.08c-.21-.26.29-.37-.1-.5s-.3.35-.52.1-3.6-1.55-3.52-1.17c.12.55-.51-1-1.37-.63-.21.08-.26.07-.14 0s0-.16-.18-.17c-.55 0-.08.3-.76.09s0-.52-.23-.53a5.48 5.48 0 0 1-.89-.1c-.38.54-.72 1.1-1.06 1.67v.07a4.42 4.42 0 0 0 .67.13h.17c.26 0 .36 0 .35.16a.13.13 0 0 1 0 .06c-.06.19.08.25.65.3 1 .1 1.54.9 1.67.49v-.08c.06 0 .12.3.37.45.71.42.94.5 1 .33s.1-.1.23.09a5.32 5.32 0 0 0 3 .86q.21 0 0 .18c-.35.44 1.06.11.75.39s.17.34.29 0c.17-.53.23.48.67.38a4.54 4.54 0 0 1 1.93.66c.08.1.3.07.49 0s.33-.23.13 0-.12.29.29.38c.8.17 1.59-.37 1 0s.57.36.77.31.21 0 .09.09c-.35.29 1.11.54 1 .14 0-.11.1 0 .27.18.37.45 3 1.35 3.32 1.13.12-.09.16-.08.13 0s.9.61 1 .44 1.47.58 1.56.31a.09.09 0 0 1 0-.06 6.82 6.82 0 0 0 .66.34c-.11.08-.09.09.07 0 .66.3 1.29.47 1.34.3s.13 0 .23.1c.23.37.3 0 .88.21.31.14.42.11.4-.09 0-.17.12-.11.17 0a.52.52 0 0 1 0 .3c-.17.52 1.62.12 1.49.5s3.29 1.29 3.74 1.1c.19-.08.35-.09.33 0s.13.08.32.05a1.45 1.45 0 0 1 .73.23c.83.47 1.87 1.4 1.76 1s.63.55.75.18c0-.15.09-.14.15.07s.13.22.24.12.89.39 1 .17.74 0 .68.16.79.11 1.31.37c.21.1.35.1.32 0a7.07 7.07 0 0 1 2.22.73 1.52 1.52 0 0 1 .32.18c.24.17.28.12.36 0a.4.4 0 0 1 .34-.16c.23 0 .25 0 .12.2a.35.35 0 0 0-.06.09c0 .09 0 .1.23.07.35-.06.27 0 .34.14s.2.19.69.28a2.62 2.62 0 0 1 1.19.55v-.21c.13-.62.24-1.23.32-1.85a1.24 1.24 0 0 0-.45-.08Zm-39.29-10.82c-.17.08-.65-.28-.19-.15.26.07.23.16.19.15ZM193.23 64c.06.26-.32.14-.25-.08s.07-.14.11-.14c.11.06.16.22.14.22ZM199.1 83.45a.69.69 0 0 0-.31 0 1.71 1.71 0 0 0-.72-.45s-4-1.5-4.14-1.17-.79-.59-.72-.26-.51.07-.35-.07-.11.07-2.56-1.11c-2.87-1.39-2.18-.42-2.46-.86s-1.54-.93-1.74-.76-.21.07-.3-.05c-.31-.49-2.86-1-3.17-1.46-.11-.17-.16-.17-.22 0s-.09.15-.13 0a.39.39 0 0 0-.19-.15c-.57-.32-2.35-.75-2.88-1.11-.26-.18-.38-.2-.35-.06.08.32-1.4-.86-2.19-.53-.53.23.47-.18-2-.79-1.23-.3-.4-.65-1.81-.51-.22 0-.29 0-.23-.22s-.42-.47-.86-.38c-.28.06-1.85-.61-1.9-.44-.13.41-1.71-1.13-2.54-.92a.19.19 0 0 1-.24-.15c-.08-.36-.54-.39-.52 0 0 .61-.09-.32-.89-.53s-.62-.56-1.2-.44-1.17-.48-1.11-.21-.45.07-.29-.08-.13-.47-.2-.24-.56.08-.49-.14-.57-.45-.67-.13-.57.4-.37.22 0-.45-.53-.69c.07.94.2 1.84.35 2.72a4.69 4.69 0 0 1 .63.17c1.33.42 1.59-.23 1.31.17s1.46.75 1.49.64c.11-.35 1.7.81 1.77.58s.83.2 1 .53c.1.14.17.14.22 0s.09-.15.13 0a6.51 6.51 0 0 0 2.55.84c.26-.14.71.67.61.22s.1.23 1.06.35.86.52 1.29.35c.16-.07.23-.06.15 0s.06.21 2.76 1c.88.25 1.12-.17 1 .15s.16 0 .84.43.24 0 .72 0 .54 0 .21.14-.22.11-.11.15c.37.12.71.61.63.18s0 .21.83.28a5.16 5.16 0 0 1 1.16.36c.77.3 1.59.65 1.65.46s-.26.21 1.43.66.8.49 1.25.63c.17 0 .24 0 .23-.25s0-.31.18.06-.1.43 4.54 2c3.31 1.12 4.49 1.31 4.84 1.26l.12.14c.2.23.37-.25.59.07a1.48 1.48 0 0 0 .66.34.44.44 0 0 0 .29.35l.33-.19.85-.53.47-.31.33-.22Zm-9.6-2.86c-.76.67-.07-.38.23-.29.04.02-.19.3-.23.29Zm8.94 3c0-.1 0-.09.06 0ZM199.39 83.33l.15-.1c-.1 0-.11-.02-.15.1ZM193.38 85.89c.11.16.11.23 0 .19-.36-.11.18-.23-1.45-.75 0 0-5.83-2.45-5.3-1.8.27.34-.2.15-.25 0a4 4 0 0 0-2.09-.72c0 .1-.12.12-.19 0s-.16.23-.4.15.63-.39-.56-.67-1.57.08-1.65-.24-.54.13-.75-.14a.2.2 0 0 0-.09 0v-.07a9.27 9.27 0 0 0-4-1.42c-.34.27.36-.14-.89-.54s-.59.17-.93.06 0-.8-.42-.47c-.14.11-.2.11-.15 0s-1.13-.65-1.05-.36c0 .07-4-1.75-4.56-1.38-.22.16-.28.14-.33-.07s0-.19.11 0 .43-.07-1-.51c-.79-.25-1.06-.28-1.08-.1s-.09.15-.17.07c-.21-.25.29-.36-.1-.49s-.3.35-.52.1-3.56-1.73-3.5-1.31c.06.24 0 .08-.23-.15.25.91.54 1.77.84 2.56a5.89 5.89 0 0 0 2.87.75c.14 0 .15 0 0 .17-.35.44 1.06.11.75.39s.17.34.29 0c.17-.54.24.48.67.37a4.42 4.42 0 0 1 1.93.67c.08.09.31.07.49-.06.33-.22.33-.22.13 0s-.12.3.29.38c.8.17 1.59-.37 1 0s.57.37.77.32.21 0 .09.08c-.35.3 1.11.54 1 .14 0-.11.1 0 .27.19.37.44 3 1.35 3.32 1.13.12-.09.16-.08.13 0s.9.6 1 .44 1.46.57 1.55.3a.13.13 0 0 1 0-.06 5.19 5.19 0 0 0 .66.35c-.11.08-.09.09.07 0 .66.3 1.29.48 1.34.3s.13 0 .23.1c.23.37.3 0 .88.22.31.13.42.11.4-.09 0-.36.28-.06.16.3-.17.52 1.62.12 1.49.5s3.3 1.29 3.74 1.1c.19-.08.35-.1.33 0s.13.09.32 0c.71-.13 2.66 1.79 2.51 1.19-.06-.23.14 0 .34.11.83-.3 1.66-.64 2.47-1a3.22 3.22 0 0 0-.43-.27c-.37-.12-.49-.14-.35.04Zm-7.31-.71c.12-.36.29.1.25.08.06.27-.32.15-.25-.08ZM183.12 87.32c0 .12 0 .14-.08.05-.87-1.1-2-.17-1.44-.6.32-.26-.44-.26-1.49-.85-.84-.47-.57.09-.87 0a.17.17 0 0 1-.06-.25c.26-.44-4.49-1.57-4.51-1.5-.12.32-.28-.58-1.16-.45-.63.1-.09-.39-1-.27S169.33 81.71 169 82s-1.35-.54-1.25-.09c.06.27-.32.13-.26-.06s-1.77-.86-1.7-.55c0 .13 0 .1-.13 0-.22-.36-1.25-.72-1.19-.43s-.18-.26-.57-.36l-.16-.07a28.59 28.59 0 0 0 1.87 3.27 1.61 1.61 0 0 0 .43.12c1.89.25 2.81.85 3.25.68.27-.1.34-.08.38.14s.09.22.22.07.19-.13.24 0 2 .86 2 .6.52-.67.36-.22 1.9.92 1.94.81c.11-.31.08.5 1.3.46.44 0 .7 0 .61.1s1.77.73 2 .57-.09.12.42.39a.59.59 0 0 0 .16.07c.78.31 1.06.59 1.45.46.23-.07.26-.06.1.07-.46.39 2.47 1 2.44.86s.33.33.71.33a.31.31 0 0 1 .27.2c1-.18 2-.4 3-.66-1.58-.76-3.82-1.69-3.77-1.44ZM203.16 74.33c-.36.12-1.21-.76-1.44-.48s-.58-.67-.52-.34-3.87-1.51-4.2-1.25c-.1.09-.18 0-.22-.14s-.09-.21-.18 0c-.15.39-.4 0-.24-.12s-.52-.44-.53-.09-.34.18-.25 0-.42-.39-.49-.2-1.45-.38-2.24-.39a74.22 74.22 0 0 0-8.09-2.47 17.33 17.33 0 0 0-3.94-.76c-.4.15-.41.14-.22-.08s.05-.29-.81-.63c-1.36-.55-2.08-.93-2.31-.78s.59-.24-1.51-.58c-.49-.07-.58-.2-.74.24-.34.92.2-.88-1.67-.93-.31 0 0-.2-.46-.37a9.15 9.15 0 0 1-3.72-1.15c-1.54-.71-1-.1-1.45-.37 0 0-1.26-.87-1.84-.69-.23.06-.25.05-.1-.07s-.31-.43-.67-.27c-.21.1-.25.08-.19-.09.14-.37-.6.1-.52-.11s-.72.27-.49-.09-.35-.55-1-.56c-1 0-.4-.6-1.35-.53a.38.38 0 0 1-.15 0c-.16.63-.3 1.26-.41 1.87.09 0 .14.09 0 .19a.23.23 0 0 0-.07.08c0 .18 1.17 0 1.22.28.09.46 1.74.24 2.31.92.35.43 1.8.37 1.72.59s.78.61.49.17c-.14-.22 4.81 2.47 4.07 1.51-.27-.34.26.07.81 0s-.21.18 1.15.67c7 2.53 6.42 1.94 6.49 2.24s.08.22.22.06.15-.15.1 0a.13.13 0 0 0 .15.18c.54-.1 4.07 1.44 4 1.06h.23a3.09 3.09 0 0 1 .58.2c1.21.5 1.41.07 1.3.35-.2.56 1.57.1 1.31.29s6.86 1.94 6.9 2 .47-.22.68-.48c.14 0 .21 0 .14.13-.19.29.43.43 1.74 1.06s.81.1 1.25.27 0 .41.53.33.21.19.63 0 .36.13 1.11.61 1.23-.28.86.19.15.15.7.33c.4.13 1-.21.67 0s1.78.89 1.74.66.53.43.92.58a19.19 19.19 0 0 0 1.11-1.94.13.13 0 0 1-.06-.07 9.34 9.34 0 0 0-3.05-1.03Zm-36-10.73c.05.25-.33.31-.21 0s.28.01.24 0Zm3.84 1.2c0 .23-.47 0-.3-.11s.36.13.3.11Zm7 2.13s-1.06.47-.43.08.43-.07.43-.08Zm16.59 6.52c-.17.47-.77-.36-.22-.16.2.08.26.18.21.16ZM195.58 68.16s-5.58-2.5-5.58-2.11c0 .12 0 .14-.08 0-.87-1.09-2-.17-1.44-.59.32-.26-.44-.27-1.49-.85-.84-.47-.57.08-.87 0a.16.16 0 0 1-.06-.24c.26-.44-4.49-1.58-4.51-1.51-.12.33-.28-.58-1.16-.45-.63.1-.09-.39-1-.26s-3.18-1.74-3.48-1.49-1.35-.53-1.26-.08c.07.27-.31.12-.25-.07s-1.77-.85-1.7-.54c0 .12 0 .1-.13 0-.22-.35-1.25-.72-1.19-.42s-.18-.26-.57-.37-.78-.68-.71-.39-1.21-.58-1.23 0c0 .24 0 .22-.15-.08s-.21-.33-.43-.24-.23.09-.08-.05.09-.18-.23-.21a6.12 6.12 0 0 1-1-.18c.19-.2-.35-.16-.54-.15-.53-.16-.91-.28-1-.13l-.21-.05c0-.17-.29-.29-.4-.1-.53-.14-1.15-.31-1.83-.52-.28.64-.54 1.3-.77 2 .42.12.73.17.75.11s.09 0 .12.1c.11.49 2.31.76 3 .84.76.34 1.49.57 1.57.33s.11-.2.21 0c.21.42.6.48.6.1s0-.28.11 0 .44.44 1.73.88c2.15.71 1.43.94 1.72.71s0 .24 1 .38c1.89.26 2.81.85 3.25.69.27-.11.34-.09.38.13s.09.23.22.07.19-.12.24 0 2 .87 2 .6.52-.66.36-.22 1.9.93 1.94.81c.11-.31.08.5 1.3.46.44 0 .7 0 .61.1s1.77.74 2 .58-.09.11.42.38a1.19 1.19 0 0 0 .16.08c.78.3 1.06.58 1.45.45.23-.07.26 0 .1.08-.46.39 2.47 1 2.44.85s.33.33.7.34.32.75.47.33c.07-.19.12-.17.28.1s.19.27.15 0c-.12-.58.24.71 2.3.63.87 0-.13.21 2 .77 1.81.47 2 .67 2.54.58.29 0 .34 0 .21.09s.08.21.78.38 3.35 1.58 3.26 1.18c0-.11.1-.08.3.06s.32.19.27 0c-.11-.51.13.39.59.19.24-.11.26-.1.1 0s-.09.16.12.15c.46 0 .22-.84.44-.19.15.45 1.79 1.07 2.82 1.35.26-.66.5-1.32.71-2-4.87-1.4-12.53-4.16-12.37-3.39ZM202 70c-.07.21-.19.2-.25-.08-.05-.4.48.19.25.08Zm-5.49-.44c.35-.29.21.14.17.13-.07.36-.32.07-.13-.09ZM193.63 77c0-.31-4.48-1.67-6.52-2.93-.4-.24-.5-.26-.46-.07s0 .19-.11 0c-.71-.9-1.56-.29-1.47-.55s-.79-.49-1.57-.74a2.9 2.9 0 0 0-1.28-.25c-.14.11-.17.09-.12 0 .1-.29-.45-.44-.4-.23a9.57 9.57 0 0 0-2.67-.46c-1.49 0-11.16-4.2-18.16-6.42-.07.9-.1 1.77-.1 2.62 3.17.86 7.27 1.8 7.21 1.85s4.73 1.82 5.1 1.58-.1.15.42.38.87.53 1.34.46c.25 0 .31 0 .2.08-.35.28 6.52 2.13 7.82 2.4h.22c.09-.08.09-.13 0-.11s-.13-.07-.11-.22a.52.52 0 0 1 0-.11c.06-.21.08-.27.09-.24a1.55 1.55 0 0 0 1 1.22c1 .36.46-.09.84-.17.11 0 .15 0 .08.16s.1.27.67.46 3 1.8 3.19 1.51.32.5.86.45c1.08-.09.44.57 1.15.32.23-.09.3-.07.18 0-.28.24.53.5.93.31.6-.3-.35.19 2.2.93 8.2 2.39 4.93.92 6 1.28.13 0 .16.14.06.23s0 .07.17 0a1 1 0 0 0 .21-.11c.39.12.69.22.6.3s.46.28.83.24a22.72 22.72 0 0 0 1.79-1.88 17.19 17.19 0 0 0-3.64-.69c-1.18-.73-6.55-1.52-6.55-1.6Zm-28.76-9.4c-.23.27 0-.49.09-.32s-.05.33-.09.32Zm33.61 11.56c0 .1-.45.22-.37 0s.47.04.37 0ZM183.13 41.9c.28-.1.34-.08.39.14s.09.22.22.06.19-.12.24 0 2 .87 2 .61.52-.67.36-.23 1.9.93 1.94.82c.11-.31.08.5 1.3.45.44 0 .7 0 .61.11s1.77.73 2 .57-.09.12.42.39l.16.07c.78.31 1.06.58 1.45.46.23-.08.25-.06.1.07-.46.39 2.47 1 2.44.86s.33.32.7.33.32.75.47.33c.07-.18.12-.16.28.1s.19.27.15 0c-.12-.58.24.71 2.3.63.87 0-.13.21 2 .77.8.21 1.29.37 1.63.47l-.57-.67c0 .07 0 .16-.06.15-.11.32-.37 0-.17-.13a.34.34 0 0 1 .17-.09c-.45-.5-.91-1-1.41-1.45-1.11-.47-5.35-2.35-5.28-2 0 .12 0 .14-.08.05-.87-1.1-2-.17-1.44-.6.32-.26-.44-.26-1.49-.85-.84-.47-.57.09-.87 0-.09 0-.12-.13-.06-.24.26-.44-4.49-1.57-4.51-1.5-.12.32-.28-.58-1.16-.45-.63.09-.09-.4-1-.27a1.42 1.42 0 0 1-.65-.09 24.29 24.29 0 0 0-4.29.7c.88.3 1.41.53 1.71.43ZM177.88 45.39c-.27-.34.26.08.81 0s-.21.18 1.15.67c7 2.53 6.42 1.93 6.49 2.23s.08.22.22.07.15-.15.1 0 0 .21.15.18c.54-.09 4.07 1.44 4 1.06h.23a4 4 0 0 1 .58.2c1.21.5 1.41.07 1.3.35-.2.57 1.57.1 1.31.29s6.86 1.94 6.9 2 .47-.22.68-.49c.14 0 .21 0 .14.13-.19.29.43.43 1.74 1.06s.81.11 1.25.27 0 .42.53.33.21.19.63.05.36.12 1.11.6a1 1 0 0 0 .34.15 21 21 0 0 0-1.42-2.9 6.52 6.52 0 0 0-2.17-.67c-.1.09-.18 0-.22-.14s-.09-.21-.18 0c-.15.4-.4 0-.24-.12s-.52-.43-.53-.09-.34.19-.26 0-.41-.39-.48-.2-1.45-.38-2.24-.38a72.05 72.05 0 0 0-8.09-2.47 17.63 17.63 0 0 0-3.94-.77c-.4.15-.41.15-.22-.07s.05-.3-.81-.64c-1.36-.54-2.08-.92-2.31-.77s.59-.25-1.51-.58c-.49-.08-.58-.21-.74.24-.34.91.2-.89-1.67-.93-.31 0 0-.21-.46-.37a8.49 8.49 0 0 1-2.75-.73 28.74 28.74 0 0 0-2.6 1.31c1.3.65 3.7 1.82 3.18 1.13Zm23.61 6.79c-.17.47-.77-.36-.23-.16.22.08.28.18.23.16Zm-17-6.43c.53-.33.47-.07.43-.09s-1.08.48-.45.09Zm-6.84-2.32c.28-.22.34.12.3.11.05.22-.5.03-.32-.11ZM180 50.17c.27-.19-.1.15.42.39s.87.52 1.34.45c.25 0 .31 0 .2.08-.35.28 6.52 2.13 7.82 2.41a.58.58 0 0 0 .22 0c.09-.08.09-.13 0-.1s-.13-.08-.11-.22a.43.43 0 0 1 0-.11c.05-.21.08-.28.09-.25a1.57 1.57 0 0 0 1 1.23c1 .35.46-.09.84-.17.11 0 .15.05.08.16s.1.27.67.46 3 1.8 3.19 1.51.32.49.86.45c1.08-.09.44.57 1.15.31.23-.08.3-.07.18 0-.28.23.53.49.93.3.6-.29-.35.19 2.2.93 8.2 2.39 4.93.93 6 1.29.14 0 .17.14.07.22s0 .08.17 0l.21-.1c.39.12.69.22.6.29s.54.3.9.23a23.77 23.77 0 0 0-.45-2.38 11.45 11.45 0 0 0-1.47-.18c-1.13-.83-6.49-1.61-6.49-1.66 0-.31-4.48-1.67-6.52-2.93-.4-.24-.5-.26-.46-.06s0 .19-.11 0c-.71-.9-1.56-.28-1.47-.55s-.79-.48-1.57-.73a3 3 0 0 0-1.28-.26c-.14.11-.17.1-.12-.05s-.45-.43-.4-.22a9.36 9.36 0 0 0-2.67-.47c-1.18 0-7.49-2.61-13.53-4.82l-.53.38c0 .1-.07.24-.1.23s-.11 0-.08-.1c-.5.38-1 .77-1.46 1.18 2.45.62 4.7 1.15 4.65 1.19s4.65 1.92 5.03 1.67Zm25 7.71c.11-.31.47 0 .37 0s-.43.23-.37 0ZM173.94 89.33c-.39.15-.41.15-.22-.07s.05-.3-.81-.64-1.25-.53-1.64-.67l3.6 2.37s1.13 0 3-.15h.23l-.21-.05a17.63 17.63 0 0 0-3.95-.79ZM89.35 76.25c.07-.6 1-.85 1.39-1.57s.56-.35.4-.57a.23.23 0 0 1 .08-.31.6.6 0 0 0 .16-.27 1.58 1.58 0 0 0 .79-.31s3.58-2.39 3.38-2.66.94-.3.63-.43.25-.46.27-.24 0-.13 2.4-1.42C101.66 67 100.47 67 101 67s1.66-.71 1.64-1 .06-.22.22-.21c.57 0 2.47-1.75 3-1.72.21 0 .24 0 .14-.17s-.07-.17.07-.12.13 0 .23-.06c.6-.28 2-1.47 2.59-1.68.3-.11.39-.19.26-.25-.31-.12 1.51-.63 1.71-1.45.13-.57-.13.48 1.8-1.15 1-.81.76.07 1.48-1.16.12-.19.21-.21.32-.06s.62-.06.81-.47 1.58-1.14 1.47-1.28c-.25-.34 1.92-.71 2.23-1.51a.19.19 0 0 1 .26-.11c.34.15.64-.21.35-.4-.52-.34.3.12.94-.41s.82-.17 1.06-.71 1.07-.67.83-.77.2-.41.23-.2.45.18.31 0 .27-.49.4-.31.7-.19.5-.46 0-.71 0-.43.21.24.48.15a21.89 21.89 0 0 0-1.62-2c-.13.11-.2.19-.18.22s-.28.34-.72.66c-1.12.83-.75 1.43-.91 1s-1.46.74-1.4.83c.22.29-1.65.89-1.51 1.09s-.64.55-1 .53c-.18 0-.22.05-.12.18s.06.17-.08.11a6.52 6.52 0 0 0-2.18 1.57c0 .29-1 .18-.54.36s-.24-.06-.9.66-.93.38-1 .83c0 .17-.09.22-.1.12s-.21-.08-2.39 1.67c-.72.57-.52 1-.72.74s-.08.13-.84.42-.17.18-.43.59-.35.41-.23.08c.06-.17 0-.24-.06-.17-.31.23-.91.22-.51.4s-.15-.16-.72.51a5 5 0 0 1-1 .72c-.7.45-1.47.91-1.35 1.07s0-.34-1.38.77-.86.36-1.24.64c-.14.11-.12.21.07.34s.26.17-.15.11-.29-.34-4.29 2.49c-2.86 2-3.7 2.86-3.87 3.17h-.19c-.29 0 0 .45-.4.44a1.39 1.39 0 0 0-.66.34c-.54-.32-1.3.91-3 2.33-.11.08-.09.18.06.24s.13.09-.14.07c-.68 0-1 1.19-1.21.85-.12-.16-1 .46-.74.57s0 .3-.22.16a4.83 4.83 0 0 0-1.61.85 20.26 20.26 0 0 0 1.38 2.19 9.56 9.56 0 0 0 3.12-2.56Zm9.92-8.18s-.13-.33-.09-.35c-.1-1.01.34.16.09.35Zm-7.8 5.17a.2.2 0 0 1 0-.07c.09.05.07.07 0 .07ZM87 75.62c-.13-.18-.06-.27.2-.16s-.36.27-.2.16ZM86 72.94c.23-.48.84-.16 1.07-.72s.81-.48 1.35-1c.79-.83 1.47-.89 1.27-1.17s-.07-.16.14-.08.33 0 .61-.52c.47-.86.65-.59.44-.44s.1.22.43.05.42-.45 0-.56c-.58-.16 0 .07.93-.41.46-.22.55-.31.31-.31s-.25 0-.15-.11c.31-.22.09.29 1.47-.73 0 0 5.4-3.28 4.57-3.24-.43 0 0-.25.19-.17s1.92-1.09 1.8-1.26 0-.17.09-.18c.31 0-.09-.25.12-.41s-.06.74.87-.05.85-1.32 1.16-1.2.22-.51.56-.53a.1.1 0 0 0 .08 0h.1a9.12 9.12 0 0 0 3.46-2.36c0-.43-.1.37 1-.4s.21-.58.49-.79.67.46.64-.06c0-.19 0-.22.1-.12s1.18-.52.9-.63c-.06 0 3.8-2.25 3.8-2.88 0-.26.05-.31.25-.22s.16.1 0 .12-.2.38 1-.49c.67-.49.85-.7.72-.81s-.07-.17 0-.18c.33 0 .12.45.46.2s-.11-.44.22-.47 3.38-2 3-2.16c-.52-.23 1.07.15 1.32-.74.06-.22.09-.25.1-.09s.1.14.25 0l.06-.07a20.39 20.39 0 0 0-1.74-1.36c-.39.18-.68.26-.53.46s-.18 0-.55.14c-.76.32-1 .46-.85.6s0 .15-.21.14a5.41 5.41 0 0 0-2.46 1.91c0 .14-.11.11-.16-.07-.14-.55-.71.79-.75.37 0-.24-.38-.06-.16.25s-.53-.1-.7.32a4.4 4.4 0 0 1-1.67 1.17c-.12 0-.23.21-.24.43 0 .4 0 .4-.11.08s-.17-.27-.48 0c-.6.54-.64 1.51-.62.82s-.63.25-.71.44-.11.18-.12 0c0-.45-1.09.58-.71.74.1 0 0 .1-.31.12-.58 0-2.87 1.65-2.86 2 0 .15 0 .18-.1.08s-1 .38-.93.52-1.32.85-1.16 1.08a.09.09 0 0 1 0 .06c-.22.1-.45.21-.67.33 0-.13 0-.12-.06 0-.64.36-1.15.76-1 .91s0 .14-.21.12c-.44 0-.15.27-.7.6-.28.17-.33.27-.16.37s-.11.26-.33-.05-1 1.24-1.29.91-3 1.91-3.09 2.38c0 .21-.12.34-.16.29s-.14.05-.23.23c-.31.65-3 1.1-2.43 1.33.4.17-.82.19-.59.51.1.13.06.15-.13.08s-.26 0-.25.12c0 .33-.84.49-.7.68s-.41.62-.54.46-.54.58-1.06.85c-.21.1-.29.22-.19.26a7.42 7.42 0 0 1-2.23 1.53c-.5.17 0 .24-.31.63-.13.19-.19.19-.24 0s-.1-.2-.24.08c-.29.57-.12-.21-1 .59s-1.43.6-1.31.77-.34.37-.7.72a18.41 18.41 0 0 0 .77 2c.93-1.11 1.78-1.33 2-1.81Zm31.84-25.43c0-.18.61-.36.24-.06-.19.17-.25.09-.22.06ZM97.47 62.24c.23.31-.24.18-.21.16-.26-.11.08-.35.21-.16ZM83.06 64.36c.12-.36 1.33-.54 1.24-.88s.89-.08.58-.23 3.49-2.24 3.46-2.63c0-.14.08-.18.25-.1s.22 0 .09-.16.23-.33.24-.12.66-.17.38-.37 0-.39.18-.19.56-.1.45-.27 1.16-.95 1.64-1.6a72.82 72.82 0 0 0 6.74-5.08 17.65 17.65 0 0 0 2.94-2.73c.11-.4.12-.4.19-.12s.2.21 1-.28c1.23-.79 2-1.14 2-1.42 0-.45-.15.62 1.36-.88.35-.35.5-.35.24-.74-.54-.81.6.68 1.73-.81.19-.24.17.12.57-.15a9.4 9.4 0 0 1 3.12-2.34c.21-.11.37-.21.5-.29a20.14 20.14 0 0 0-3.66-.47c-.29.21-.37.35-.07.34s-.22.17-.52.63 0-.27-1.22.54c-6.16 4.18-5.34 4.06-5.62 3.93s-.23-.06-.18.14 0 .21-.08.07-.19-.09-.24 0c-.24.49-3.55 2.45-3.2 2.61 0 0 0 .09-.12.19a5.32 5.32 0 0 1-.51.35c-1.11.68-.88 1.09-1.05.85-.33-.5-1 1.21-1 .89s-5.6 4.4-5.64 4.43-.09.5 0 .83c-.09.11-.14.16-.19 0-.13-.32-.6.09-1.88.78s-.56.59-1 .86-.3-.29-.57.23-.28 0-.41.48-.31.22-1.14.54-.5 1.17-.66.59c-.16 1-.28 1.93-.35 3a1.51 1.51 0 0 0 .41-.42Zm26.87-20.58c0 .35-.3.2-.26.18-.21-.11.24-.41.26-.18ZM104 48c0 .62-.21.42-.18.39s.27-1.18.18-.39Zm-15 9.89c-.18.13-.3.12-.26.1-.2-.47.82-.46.34-.15ZM92.51 61.85s5.34-3.08 5-3.25c-.12-.05-.11-.09 0-.09 1.4-.06 1.29-1.49 1.32-.82 0 .42.48-.2 1.57-.7.88-.41.26-.51.52-.7.09 0 .18 0 .23.1.21.47 3.92-2.71 3.88-2.77-.2-.29.63.11 1-.68.29-.56.37.16.8-.65s3.27-1.55 3.25-1.94 1.23-.78.81-1c-.26-.11.08-.33.19-.17s1.74-.93 1.45-1.06c-.11 0-.07-.08.11-.07.42 0 1.32-.6 1-.72s.31 0 .62-.24 1-.23.74-.35 1.18-.64.75-1c-.19-.14-.16-.16.15-.08s.39 0 .44-.2.07-.24.09 0 .09.18.31-.06a4.64 4.64 0 0 1 .49-.5l-.25-.14-.47-.23-.22-.1-.47-.22-.52-.21h-.2c-.46-.09-.74.19-.43.42s.21.18-.09.08-.61.09-1.72.89c-1.85 1.31-1.6.6-1.59 1s-.18-.17-.88.56c-1.32 1.37-2.34 1.77-2.46 2.22-.08.28-.13.32-.34.23s-.23-.06-.18.14 0 .22-.16.18-1.9 1.14-1.65 1.25.23.81 0 .42-1.87 1-1.8 1.09c.19.27-.45-.23-1.14.79-.24.36-.43.55-.44.43s-1.63 1-1.64 1.28 0-.14-.55.11l-.16.09c-.71.45-1.09.51-1.22.9-.08.23-.1.24-.12 0 0-.6-2.28 1.4-2.12 1.47s-.46.07-.69.37-.79-.18-.54.19c.11.16.07.19-.25.17s-.33 0-.12.09c.53.24-.72-.22-1.86 1.49-.49.72-.1-.23-1.8 1.15-1.45 1.19-1.73 1.25-2 1.71-.15.28-.15.28-.15.12s-.23-.06-.78.41S85 65 85.33 65.19c.1 0 0 .13-.23.21s-.35.15-.15.23c.48.21-.38-.12-.49.37-.06.25-.07.26-.09.06s-.08-.17-.19 0c-.26.39.54.68-.11.47-.26-.08-.86.21-1.48.59v.51c0 .68.07 1.33.14 2 4.01-3.05 10.48-7.46 9.78-7.78ZM87.19 66c-.12-.18 0-.27.22-.15.41.15-.41.23-.22.15Zm3.38-4.12c-.19-.28.2-.31.21-.06.03.42-.24.05-.21.03ZM92.68 51.5c.43-.18.5-.25.32-.33s-.16-.1 0-.11c1.15-.06 1.15-1.1 1.31-.87s.85-.36 1.52-.84c.51-.37 1-.76 1-.88s0-.2.12-.07.61-.11.42-.2a9.61 9.61 0 0 0 1.94-1.88 31.64 31.64 0 0 1 5.14-3.71 27.33 27.33 0 0 0-4.49.86c-1.7 1.22-4.6 3.59-5.3 4.21l-.15.15c0 .13.05.15.09.06s.14-.06.25 0l.07.08c.14.17.18.22.14.22a1.51 1.51 0 0 0-1.55.06c-.89.62-.2.42-.36.78 0 .1-.12.08-.17 0s-.28-.08-.77.26S89 50.64 89.09 51s-.58 0-.87.43c-.56.93-.71 0-.93.75-.07.24-.12.28-.13.12s-.09-.14-.2-.1a21.68 21.68 0 0 0-2.68 4.92c1.16-1 2.18-2.07 2.19-2.06.26.17 3.99-2.64 6.21-3.56ZM96.2 82.45c.12-.36 1.34-.54 1.25-.88s.88-.08.57-.23 3.49-2.24 3.47-2.63c0-.14.07-.18.24-.1s.23 0 .09-.16.23-.33.24-.12.66-.17.38-.37 0-.39.19-.19.56-.1.44-.28 1.16-.95 1.64-1.59a71.49 71.49 0 0 0 6.74-5.08 17.2 17.2 0 0 0 2.94-2.75c.11-.4.12-.41.19-.12s.2.21 1-.28c1.24-.79 2-1.14 2-1.42 0-.45-.15.62 1.36-.88.35-.35.5-.35.24-.74-.54-.82.6.68 1.73-.81.19-.24.18.12.58-.15a9.25 9.25 0 0 1 3.11-2.34c1.48-.82.67-.73 1.16-.94 0 0 1.44-.52 1.64-1.09.08-.22.1-.23.11 0s.37.09.53-.2a21 21 0 0 0-.58-2.1 1.37 1.37 0 0 1-.56.21c-.56 0-1.36 1.23-1.49 1s-1 .28-.43.3c.26 0-4.82 2.44-3.61 2.4.43 0-.21.17-.52.63s0-.27-1.21.54c-6.17 4.18-5.34 4.06-5.63 3.93s-.22-.06-.18.14 0 .21-.08.07a.13.13 0 0 0-.24 0c-.23.49-3.55 2.45-3.2 2.6 0 0 0 .1-.12.2a5 5 0 0 1-.5.35c-1.12.68-.89 1.09-1.06.85-.33-.5-1 1.21-1 .88S102 75.53 102 75.56s-.09.5 0 .83c-.09.11-.14.15-.19 0-.12-.32-.6.09-1.88.78s-.56.59-1 .86-.31-.29-.58.23-.28 0-.41.48-.31.22-1.14.54-.5 1.17-.66.59-.21 0-.68.37-.41.92-.43.51-1.76.92-1.56 1-1.45.23-1.11.74c.08.12 0 .15-.18.07s-.3-.05-.26.12-.23.49-.24.21c0-.44-.46.31-.78.59.63.47 1.27.91 1.92 1.33a1.41 1.41 0 0 0 .18-.21c.14-.23.34-.4.44-.36a9.16 9.16 0 0 0 2.76-1.79Zm30-23c.27.4-.16.2-.12.17-.28-.07-.08-.42.08-.14Zm-3.09 2.39c0 .35-.3.2-.26.18-.25-.08.21-.38.22-.15ZM117.17 66c0 .62-.21.42-.18.39s.24-1.09.18-.39Zm-15 9.89c-.18.13-.3.12-.26.1-.23-.38.79-.38.31-.06ZM94.46 77.42c1.34-.42 5.12-4.3 5.16-4.27.26.17 4-2.64 6.2-3.56.43-.18.51-.25.32-.33s-.15-.1 0-.11c1.15-.06 1.15-1.1 1.31-.87s.86-.36 1.52-.84 1-.76 1-.88 0-.2.11-.07.62-.11.42-.2a9.5 9.5 0 0 0 2-1.88c.75-1.12 8.31-5.6 14.11-9.67a19.77 19.77 0 0 0-1.16-2.18c-2.36 1.93-4.88 4.12-4.89 4 0-.23-4.26 2.76-4.27 3.2s-.07-.17-.56.11-.94.4-1.16.82c-.12.22-.17.26-.18.11 0-.44-5.55 4-6.54 4.92-.1.09-.16.14-.15.15s0 .15.09.06.13-.06.24 0l.07.08c.14.17.18.22.15.22a1.53 1.53 0 0 0-1.56.06c-.89.61-.19.42-.35.78 0 .1-.13.08-.18 0s-.28-.08-.76.26-3.2 1.34-3.1 1.7-.59 0-.87.43c-.57.93-.72 0-.93.75-.07.24-.12.28-.14.12 0-.36-.71.13-.79.57-.11.66 0-.39-2.05 1.24-6.75 5.23-3.64 3.44-4.54 4.07-.11.08-.21 0-.22-.08s-.06 0-.1.14 0 .16 0 .23c-.33.25-.59.43-.59.31s-.63.33-.74.66-.11.22-.12 0c0-.36-1.83 1-3.8 2.63a22.78 22.78 0 0 0 1.65 1.9 29.15 29.15 0 0 0 5.4-4.58Zm29.9-21.73c-.09 0-.23-.24-.2-.26-.08-.35.39.29.2.26ZM91 79.76c-.28-.4.24-.28.25 0-.02.48-.33.02-.25 0Zm4.33-4.23c.19.27-.32.35-.22.29-.11-.09.03-.49.17-.29ZM125.3 75.2c0 .17-.09.22-.1.12s-.21-.08-2.39 1.67c-.71.57-.52 1-.72.74s-.08.13-.84.42-.17.18-.43.59-.35.41-.23.08c.06-.17 0-.24-.06-.17-.31.23-.91.22-.51.4s-.15-.16-.72.51a5 5 0 0 1-1 .72c-.7.45-1.46.91-1.34 1.07s0-.34-1.38.77-.86.36-1.24.64c-.14.11-.12.21.06.33s.26.18-.15.12-.25-.34-4.25 2.49c-2.86 2-3.7 2.86-3.87 3.17h-.18c-.3 0 0 .45-.41.44a1.33 1.33 0 0 0-.65.34c-.22-.13-.47 0-.81.27l2.2.73c1-.73 2.56-1.83 2.43-2s.94-.3.63-.43.24-.46.26-.24 0-.14 2.4-1.42c2.81-1.51 1.62-1.51 2.15-1.49s1.65-.7 1.63-.95.07-.22.22-.21c.57 0 2.47-1.75 3-1.72.2 0 .23 0 .13-.17s-.07-.17.07-.12.13 0 .23-.06c.6-.28 2-1.47 2.59-1.68.3-.11.39-.19.26-.25-.31-.12 1.52-.63 1.71-1.45.09-.39 0 0 .55-.27a26.44 26.44 0 0 0 2-4.06 1.46 1.46 0 0 0-.27.24c-.56.63-.86.38-.97.83Zm-12.89 11s-.12-.33-.09-.36c-.1-1.04.35.16.09.32ZM127.87 67.53c-.15-.55-.71.79-.76.37 0-.24-.38-.06-.16.25s-.52-.1-.69.32a4.43 4.43 0 0 1-1.68 1.17c-.12 0-.23.21-.24.43 0 .4 0 .4-.11.08s-.16-.27-.48 0c-.6.54-.63 1.51-.62.82s-.63.25-.7.44-.11.18-.13 0c0-.45-1.08.58-.71.74.1 0 0 .1-.31.12-.58 0-2.87 1.65-2.86 2 0 .14 0 .18-.1.08s-1 .38-.92.52-1.33.85-1.16 1.08a.07.07 0 0 1 0 .06c-.22.1-.45.21-.66.33 0-.13 0-.12-.07 0-.64.36-1.15.76-1 .91s0 .14-.21.12c-.44 0-.15.27-.69.6-.29.16-.33.27-.16.37.13.11 0 .16-.14.11a.52.52 0 0 1-.24-.19c-.32-.44-1 1.24-1.28.91s-3 1.91-3.09 2.38c0 .21-.13.34-.16.29s-.15.05-.23.23a1.42 1.42 0 0 1-.61.45c-.87.4-2.24.69-1.81.86s-.81.19-.58.51c.09.13.06.15-.14.08s-.26 0-.25.12c0 .33-.84.49-.7.68s-.41.62-.53.46-.55.58-1.07.85c-.2.1-.29.21-.19.25.1.1-1.16 1-1.89 1.37a1.9 1.9 0 0 1-.33.16c-.28.09-.27.16-.25.26a.47.47 0 0 1 0 .17l1.77.68c.72-.69 1.3-.77 1.11-1s-.07-.16.14-.08.33 0 .62-.52c.47-.86.65-.59.44-.44s.09.22.42 0 .42-.45 0-.56c-.59-.16-.05.06.92-.41.46-.23.55-.31.32-.31s-.25 0-.15-.11c.3-.22.08.29 1.46-.73 0 0 5.4-3.28 4.57-3.24-.43 0 0-.25.19-.17s1.93-1.09 1.8-1.26 0-.17.09-.18c.31 0-.09-.25.12-.41s0 .74.87-.06.86-1.31 1.17-1.19.21-.51.55-.53a.1.1 0 0 0 .08 0h.1a9 9 0 0 0 3.46-2.36c0-.43-.09.37 1-.4s.21-.58.49-.79.67.46.64-.06c0-.19 0-.22.1-.12s1.19-.52.91-.63c-.07 0 3.79-2.25 3.79-2.88 0-.26.05-.31.25-.23s.17.11 0 .13-.21.3.6-.22c.2-.84.36-1.72.49-2.64l.06-.53a1.41 1.41 0 0 0-.31.43c-.03.27-.12.24-.16.06Zm-17.24 13h-.23c-.25-.11.08-.35.22-.16s.06.14 0 .17ZM128.43 61.69c-.06.09-.09.17-.05.23s.09.2-.14.16c-.46-.09-.74.19-.43.42s.22.17-.08.08-.62.09-1.73.88c-1.84 1.32-1.6.6-1.59 1s-.18-.17-.88.56c-1.31 1.37-2.33 1.76-2.46 2.22-.08.28-.13.32-.34.23s-.23-.06-.18.14 0 .22-.15.18c-.29-.08-1.9 1.14-1.66 1.25s.24.81 0 .42-1.87 1-1.8 1.09c.19.27-.45-.23-1.13.79-.24.36-.44.54-.44.43 0-.27-1.64 1-1.64 1.28s0-.14-.56.11l-.16.08c-.7.46-1.09.52-1.22.91-.07.23-.1.24-.12 0 0-.6-2.28 1.4-2.12 1.47s-.46.07-.69.37-.79-.18-.54.19c.11.16.07.19-.24.17s-.34 0-.13.09c.54.24-.72-.22-1.86 1.49-.49.72-.1-.23-1.79 1.15-1.46 1.19-1.74 1.25-2 1.71-.13.27-.18.3-.19.12s-.22-.06-.77.41-3.24 1.78-2.87 1.94c.1 0 0 .13-.23.21s-.34.15-.14.23c.48.21-.39-.12-.5.37 0 .25-.07.26-.09.06s-.07-.17-.19 0c-.25.39.55.68-.11.47-.42-.13-1.71.69-2.56 1.34.69.38 1.39.74 2.09 1.07 4-3 9.57-6.8 8.92-7.09 0 0 5.33-3.08 5-3.25-.11 0-.11-.09 0-.09 1.4-.06 1.29-1.49 1.33-.82 0 .42.47-.2 1.56-.7.88-.41.27-.51.53-.7.08-.06.18 0 .23.1.2.47 3.91-2.71 3.87-2.77-.2-.29.63.11 1-.68.29-.56.37.16.81-.65s3.27-1.55 3.24-1.94 1.23-.78.81-1c-.26-.11.08-.33.2-.17s1.73-.93 1.44-1.06c-.11 0-.06-.08.11-.07.42 0 1.32-.6 1-.72s.31 0 .63-.24 1-.23.73-.35.06-.21.32-.37v-.3a23.08 23.08 0 0 0-.04-2.45Zm-28.09 22.37c-.13-.18 0-.27.21-.15.45.18-.38.26-.21.15Zm3.38-4.12c-.2-.28.19-.31.2-.06.08.45-.24.12-.2.06Z"/><path class="cls-9" d="M140.36 77s-14.68-2.29-23.64 6.48c-4.8 4.7-8.58 5.91-8.58 5.91s-10.3.76-14.87 8.39-2.67 12-7.06 18.3-10.67 5.15-13.73 11.44-.19 8.77-1.33 12.58-4.77 5-4.58 9.73 4.2 6.67 4.2 10.86-5 5.34-3.43 12.21S74 179 75.15 182s.39 8 4.77 11.06 8.58 1.33 11.63 3.24 2.1 4.95 7.82 7.24 14.49 2.86 14.49 2.86l55.67-2.29s7.05-3.62 10.29-6.86 7.82-2.67 11.63-2.1 5.53-4.38 9-5.91 5.91.38 11.63-1.52 4.19-5.15 7.81-8.2 8-2.1 11.06-7.05.57-6.87 2.67-11.44 3.81-9.54 1.33-15.07a40.38 40.38 0 0 1-3.62-12.58c-.57-4-5.72-6.48-9.53-8.2s-2.86-6.48-3.24-9.72-6.1-6.29-9.92-6.86-5.33-7.82-7.43-10.68-4.58-4.58-10.3-5.15-10.67-5.72-10.67-5.72l-6.11-.38a38.51 38.51 0 0 0-13.53-9.15c-8.8-3.59-20.24-.52-20.24-.52Z"/><path d="M200.71 97.4a.44.44 0 0 1 .11.08c-.16-.21-.33-.41-.5-.6a.8.8 0 0 0 .39.52ZM202.94 101.3a19.92 19.92 0 0 0-1.7-3.26 4.76 4.76 0 0 0 .67 1.44 8.93 8.93 0 0 1 1.03 1.82ZM218.63 117.19v-.62c-.27 0-.2.2 0 .62ZM217.65 114.53c.09-.14.14-.13.13 0a1.83 1.83 0 0 0 .82 1.84c0-.31 0-.62-.07-.91a5.64 5.64 0 0 0-2.24-3.39c.71 1.49 1.24 2.66 1.36 2.46ZM145.63 202.43c-.14.22-.16.16-.08-.2.19-.94-1.47-1.58-.94-1.87.25-.13-.44-1.47-.64-1.14s-.43-.09-.19-.34-1.21-3.36-1.45-3.24c-.07 0-.41-.46-.78-1.13-.93-1.73-1.84-1.33-1.16-1.46s-.74-2.19-.88-2.11c-.45.25-.92-2.48-1.22-2.32s-.65-1-.55-1.54c0-.25 0-.31-.22-.21s-.24.06-.14-.13a9 9 0 0 0-1.75-3.34c-.4-.11-.07-1.38-.4-.82s.12-.33-.74-1.39-.36-1.37-1-1.61c-.22-.09-.29-.17-.14-.16s.15-.28-1.86-3.66c-.65-1.11-1.3-.92-.89-1.14s-.17-.14-.43-1.26-.22-.27-.73-.71-.51-.58-.07-.34c.23.12.33.1.25 0-.26-.49-.12-1.32-.46-.8s.26-.18-.56-1.1a6.91 6.91 0 0 1-.83-1.5c-.48-1.06-1-2.21-1.22-2.08s.48.05-.8-2.07-.34-1.27-.65-1.85c-.12-.22-.27-.21-.48 0s-.3.33-.12-.23c.23-.74.52-.33-2.63-6.47-2.25-4.37-3.26-5.71-3.67-6a1.72 1.72 0 0 0 0-.26c0-.42-.62-.1-.53-.65a2 2 0 0 0-.34-1c.55-.7-1-2-2.65-4.66-.1-.17-.24-.15-.35 0s-.16.17-.08-.2c.19-.93-1.47-1.57-.94-1.86.25-.13-.44-1.47-.64-1.14s-.43-.09-.19-.34-1.21-3.37-1.44-3.24c-.08 0-.42-.47-.79-1.14-.93-1.72-1.84-1.33-1.16-1.45s-.74-2.19-.88-2.11c-.45.24-.92-2.48-1.22-2.32s-.65-1-.54-1.55c0-.24 0-.31-.23-.2s-.24.06-.14-.13a8.88 8.88 0 0 0-1.75-3.34c-.4-.11-.07-1.38-.4-.83s.12-.32-.74-1.38-.36-1.37-1-1.61c-.23-.1-.3-.17-.15-.16s.15-.28-1.86-3.66c-.65-1.11-1.3-.92-.89-1.14s-.17-.14-.43-1.26-.22-.28-.73-.71-.5-.58-.07-.35c.23.12.33.11.25 0-.26-.48-.12-1.31-.46-.79s.26-.18-.56-1.1a6.77 6.77 0 0 1-.82-1.5c-.49-1.06-1-2.22-1.23-2.08s.48 0-.8-2.07-.34-1.27-.65-1.85c-.12-.22-.27-.21-.48 0s-.3.33-.12-.23.42-.45-1.28-3.83a26.27 26.27 0 0 0-1.3 3.26c-.11.58.66 2.45 1 2.46.2 0 .29.14.25.35-.15.8 1.94 3.79 1.79 4.57-.06.28 0 .34.22.22s.24-.07.15.12a.53.53 0 0 0 0 .34c.28.88 1.66 3 1.84 3.93.09.44.19.58.29.41.24-.4.59 2.24 1.7 2.67.76.29-.65-.27 1.24 2.74 1 1.5-.24 1 1.32 2.29.25.19.25.32 0 .45s0 .88.51 1.21c.34.21 1.27 2.43 1.49 2.31.53-.29.62 2.81 1.67 3.4a.27.27 0 0 1 .09.39c-.26.44.17.93.5.55.57-.65-.23.4.38 1.41s.09 1.16.79 1.61.72 1.62.91 1.3.53.36.23.36-.33.6 0 .44.63.47.35.62.14 1 .55.79 1 .15.59.13c-1.43-.06 2.1 5.48 2.72 5.64.82.22 1 1.62 1.91 2.26.78.52.38.85.72.67a.31.31 0 0 1 .41.17.85.85 0 0 0 .34.27 2.44 2.44 0 0 0 .28 1.17s2.63 5.45 3 5.23.23 1.36.47 1 .59.43.28.41.19 0 1.51 3.63c1.55 4.21 1.8 2.55 1.65 3.27s.66 2.45 1 2.47c.2 0 .29.13.25.34-.15.8 1.94 3.79 1.79 4.57-.06.28 0 .34.22.22s.24-.06.15.12 0 .18 0 .34c.28.88 1.66 3.06 1.84 3.93.09.44.19.58.29.41.24-.4.58 2.24 1.7 2.67.76.3-.65-.27 1.24 2.74.94 1.5-.24 1 1.32 2.29.25.19.25.32 0 .45s0 .88.51 1.21c.34.22 1.27 2.43 1.48 2.31.54-.29.63 2.81 1.68 3.4a.27.27 0 0 1 .09.39c-.26.45.17.93.5.55.57-.65-.23.41.38 1.41s.08 1.16.79 1.61.72 1.62.91 1.3.53.36.23.36-.33.6 0 .44.63.47.35.62.13 1 .55.79 1 .15.59.13c-1.44 0 2.1 5.48 2.72 5.65.82.21 1 1.61 1.91 2.25a1 1 0 0 1 .15.11l3.18-.13c-.5-.69-1.17-1.56-1.84-2.65.14-.19 0-.18-.11.01Zm-32.78-61.21c-.33.53-.3-.56-.17-.32.32-.14.38-.03.17.32Zm2.27 6.38h.08c-.07.13-.1.1-.08 0Zm5.67 11.88s.48-.11.51-.06c1.42.06-.3.45-.51.06Zm23.3 40.52c-.33.53-.3-.56-.17-.31.26-.18.38-.07.17.31ZM111.74 205.71c-.46.24-.93-2.48-1.23-2.32s-.64-1-.54-1.55c0-.24 0-.31-.22-.2s-.24.06-.14-.13a8.9 8.9 0 0 0-1.76-3.34c-.39-.11-.06-1.38-.4-.83s.13-.32-.74-1.38-.35-1.37-.95-1.61c-.23-.1-.3-.17-.14-.16s.14-.28-1.86-3.66c-.66-1.11-1.3-.92-.89-1.14s-.18-.14-.43-1.26-.22-.28-.74-.71-.5-.58-.06-.35c.23.12.33.11.25 0-.27-.48-.13-1.31-.46-.79s.25-.18-.57-1.1a7.71 7.71 0 0 1-.82-1.5c-.49-1.06-1-2.22-1.22-2.08s.48 0-.8-2.07-.34-1.27-.66-1.86c-.11-.21-.26-.2-.47 0s-.3.33-.13-.23c.24-.75.53-.33-2.63-6.47-2.25-4.37-3.25-5.71-3.66-6v-.26c0-.42-.63-.11-.53-.65a2.11 2.11 0 0 0-.34-1c.54-.69-1-2-2.66-4.66-.1-.16-.23-.14-.34 0s-.16.17-.09-.2c.2-.94-1.46-1.57-.93-1.86.25-.14-.44-1.47-.65-1.14s-.42-.09-.18-.34-1.22-3.37-1.45-3.24a3.46 3.46 0 0 1-.78-1.14c-.93-1.73-1.84-1.33-1.16-1.45s-.74-2.19-.88-2.12c-.46.25-.92-2.47-1.23-2.31s-.64-1-.54-1.55c0-.24 0-.31-.22-.2s-.24.06-.14-.13a9 9 0 0 0-1.75-3.34c-.4-.12-.07-1.38-.41-.83s.13-.32-.73-1.39-.36-1.36-1-1.61c-.23-.09-.29-.16-.14-.16s.14-.27-1.86-3.65c-.65-1.11-1.3-.92-.89-1.15.22-.12.05-.14-.16-.51a12.38 12.38 0 0 0-.29 5.31l.3.48c.94 1.51-.24 1.05 1.32 2.29.24.2.25.33 0 .45s0 .89.5 1.22c.34.21 1.28 2.42 1.49 2.31.54-.29.63 2.81 1.67 3.4a.26.26 0 0 1 .1.39c-.26.44.17.93.5.55.56-.65-.23.4.38 1.4s.08 1.17.79 1.62.71 1.62.91 1.29.52.37.22.37-.33.6 0 .44.64.47.35.62.14 1 .56.78 1 .15.59.14c-1.44-.06 2.1 5.48 2.71 5.64.83.22 1 1.62 1.92 2.25.78.53.38.85.71.67a.34.34 0 0 1 .42.17.85.85 0 0 0 .34.28 2.17 2.17 0 0 0 .28 1.16c0 .06 2.63 5.46 3 5.23s.23 1.37.48 1 .59.44.28.42.19 0 1.51 3.63c1.55 4.21 1.79 2.54 1.65 3.27-.12.58.65 2.45 1 2.46.2 0 .29.14.25.35-.15.8 2 3.79 1.79 4.57 0 .28 0 .34.22.22s.25-.07.15.12a.56.56 0 0 0 0 .34c.27.88 1.66 3.05 1.84 3.93.09.43.19.58.29.41.24-.4.58 2.24 1.69 2.67.77.29-.64-.27 1.25 2.74.94 1.5-.24 1 1.32 2.29.24.19.25.32 0 .45s0 .88.5 1.21c.34.21 1.28 2.43 1.49 2.31.54-.29.63 2.81 1.67 3.4a.26.26 0 0 1 .1.39c-.27.44.17.93.5.55s.12-.07.13.54c1.51.23 2.84.39 3.81.48-.1-.35-.31-.61-.36-.58ZM85.08 156c-.33.53-.31-.56-.17-.32.26-.15.38-.04.17.32Zm2.26 6.38h.09c-.08.12-.1.09-.09-.01ZM93 174.25c0-.05.48-.11.51-.06 1.49.06-.28.45-.51.06ZM118.9 205.85c-.35.18.07-.26-.08-.8-.3-1.12-.46-1.42-.68-1.31s-.21 0-.15-.31c.13-.64-1.43-3.36-2.18-3.8-.17-.1-.13-.18.13-.21.79-.09-1-1.14-.37-1.12.34 0 .16-.52-.31-.27-.7.37.23-.72-.31-1a6.47 6.47 0 0 1-1.31-2.57c0-.17-.24-.36-.54-.41-.56-.1-.56-.11-.1-.18s.41-.17.08-.67c-.64-.94-2-1.17-1-1s-.23-.94-.48-1.08-.23-.19 0-.17c.64 0-.59-1.63-.89-1.14-.08.13-.13-.07-.1-.45.07-.82-1.74-4.33-2.25-4.39-.21 0-.25-.08-.1-.15.3-.16-.33-1.5-.54-1.39s-.93-2-1.28-1.82a.18.18 0 0 1-.09 0c-.09-.33-.21-.67-.33-1 .19 0 .17 0 0-.1-.38-1-.84-1.74-1.07-1.62s-.18-.07-.13-.32c.12-.6-.34-.26-.68-1.08-.18-.44-.32-.52-.5-.3-.31.39-.34-.21.14-.46.68-.36-1.52-1.7-1-2s-2.08-4.53-2.71-4.77c-.28-.11-.45-.24-.37-.28s0-.21-.28-.37c-.84-.56-.94-4.41-1.38-3.65-.3.53-.1-1.17-.58-.92-.2.11-.23.06-.09-.2s.09-.36-.12-.37c-.46 0-.52-1.27-.82-1.11s-.78-.7-.52-.83-.71-.88-1-1.66c-.11-.3-.25-.44-.32-.31s-1.55-2.59-1.7-3.4-.33-.13-.82-.57c-.24-.21-.22-.29.08-.32s.3-.1-.07-.35c-.74-.51.32-.12-.63-1.43s-.55-2.12-.82-2-.57-.93-1.21-1.52c-.31-.28-.34-.44-.13-.55s.17-.33-.36-.94c-.9-1.06-.67-2.41-1.21-2.13-.35.19.07-.25-.08-.79-.3-1.12-.46-1.43-.68-1.31s-.21 0-.15-.31c.13-.64-1.43-3.36-2.18-3.8-.17-.1-.13-.18.13-.21.79-.09-1-1.14-.37-1.12.35 0 .16-.52-.31-.27-.7.37.23-.72-.31-1a6.33 6.33 0 0 1-1.3-2.57c0-.17-.24-.36-.55-.42-.56-.09-.56-.1-.09-.17s.4-.17.07-.67c-.63-.94-2-1.18-1-1s-.23-.93-.48-1.07-.23-.19 0-.17c.64 0-.59-1.63-.89-1.14-.08.13-.13-.08-.1-.45.07-.82-1.74-4.33-2.25-4.39-.21 0-.24-.08-.1-.16.3-.16-.33-1.49-.54-1.38s-.41-.53-.67-1.07c-.17.12-.33.24-.48.37a10.89 10.89 0 0 0-1 .92 8.48 8.48 0 0 0-.8 1 8.7 8.7 0 0 0 1.57 2.41c.6.07-.5-.2.37 1.42s.77.41 1 .85-.76.84 0 .9c.26 0 .31.07.14.16-.32.17.5 1.76.72 1.39 0-.09 2.38 5.72 3.26 5.85.36 0 .42.13.26.39s-.18.21-.16-.05c0-.42-.5-.35.49 1.47.55 1 .8 1.31 1 1.16s.24-.08.24.08c0 .46-.65.09-.38.6s.64-.06.62.41c0 .28 2.12 5.09 2.42 4.62.41-.67-.43 1.47.77 2 .29.13.33.18.11.17s-.22.11 0 .36c.52.57.38-.23.87.65s-.47.56-.29.75c1.59 1.65 1.7 3 2.36 3.44s.06 1.21.8 1.64.51 1.22 1.19 2.08c1 1.27 1 2.23 1.39 2 .22-.11.24-.07.08.21s-.07.46.61 1c1.1.82.69 1 .52.7s-.32.09-.15.58.54.67.77.16c.34-.78-.08-.08.39 1.37.23.68.33.82.37.5s.11-.35.19-.19c.25.46-.42.06.73 2.19 0 .05 3.5 8.16 3.61 7 .05-.6.35 0 .2.3s1.15 2.9 1.41 2.76.23 0 .22.16c0 .43.38-.08.55.25s-1-.23-.09 1.22 1.67 1.44 1.44 1.85.67.4.63.88a.21.21 0 0 0 0 .12.61.61 0 0 0 0 .14c0 1.31 2.28 5.25 2.61 5.29.6.06-.5-.21.36 1.42s.78.4 1 .84-.76.85 0 .9c.26 0 .31.07.14.16-.32.17.5 1.76.72 1.39 0-.09 2.38 5.73 3.26 5.85.36.06.42.13.26.39s-.18.21-.16-.05c0-.42-.5-.35.48 1.47.56 1 .81 1.31 1 1.16s.24-.08.23.08c0 .47-.64.09-.37.6s.64-.06.62.41c0 .29 2.12 5.09 2.42 4.62.13-.22.13-.13.11.1l3-.12c-.29-.43-.38-.6-.6-.48Zm-32.09-60.09c-.19-.32-.07-.39 0-.34.19.08.35.92 0 .34Zm14.67 27.13c-.47.25-.2-.38-.17-.33.2-.33.47.17.17.33Zm16.57 31.62c-.19-.32-.07-.39 0-.34.21.08.35.92 0 .34ZM123.66 201.24c-.26.13-.3.09-.2-.23.21-.62-.12-1.07-.5-.68s-.29.27-.1-.13 0-.88-.89-2.58c-1.47-2.83-.52-2.34-1-2.41-.68-.08.27-.21-.61-1.33-1.66-2.1-2-3.6-2.61-3.86-.39-.17-.43-.25-.26-.52s.13-.31-.16-.28-.3-.06-.22-.25c.17-.38-1.22-2.87-1.41-2.55-.1.16-1.18.17-.59-.13s-1-2.79-1.17-2.71c-.41.2.41-.58-.87-1.74-.45-.41-.67-.71-.51-.7.37 0-1.08-2.47-1.47-2.53s.22 0 0-.8a1.36 1.36 0 0 0-.09-.23c-.5-1.08-.5-1.63-1-1.88-.31-.15-.31-.2 0-.18.85.06-1.5-3.45-1.63-3.24-.24.38 0-.66-.39-1s.41-1.07-.15-.79c-.25.12-.28 0-.19-.38s.07-.46-.1-.19c-.45.7.45-1-1.71-2.89-.92-.82.33-.09-1.26-2.72-1.37-2.26-1.4-2.66-2-3.07-.34-.24-.37-.31-.13-.29s.13-.3-.41-1.16-1.85-4.86-2.15-4.37c-.08.13-.18 0-.24-.36s-.14-.51-.3-.25c-.38.63.25-.51-.41-.76-.34-.13-.35-.15-.07-.14s.25-.07 0-.26c-.5-.43-1.06.62-.64-.25s-2-5.18-2.24-5.05-.13 0 0-.22c.37-.61-1.58-3-2.18-3.75-.43-1.09-.94-2-1.26-1.86s-.3.09-.2-.23c.21-.63-.12-1.07-.5-.68s-.28.26-.1-.13 0-.88-.89-2.58c-1.47-2.83-.52-2.35-1-2.41-.68-.08.27-.21-.61-1.33-1.66-2.1-2-3.6-2.61-3.86-.38-.17-.43-.25-.26-.52s.13-.31-.15-.28-.31-.06-.23-.25c.17-.38-1.22-2.87-1.41-2.55-.1.15-1.18.17-.59-.13s-1-2.79-1.17-2.71c-.41.2.41-.59-.87-1.74-.45-.41-.67-.72-.51-.7s-.19-.83-.64-1.55c-.82.45-1.63.85-2.43 1.27a36.21 36.21 0 0 0 2.57 4.21c.44-.22-.28.86.74 1.58.73.52-.3.49.75 1.25s1.52 4.86 2.07 4.9.85 1.86 1.18 1.31c.21-.33.45.19.2.31s1 2.6 1.19 2.22c.1-.15.13-.07.08.17-.11.58.57 1.95.8 1.6s-.07.44.21.92.12 1.46.34 1.09.66 1.78 1.21 1.24c.25-.24.26-.2.09.22s-.12.54.19.66.32.15 0 .13-.27.09 0 .44a10.43 10.43 0 0 1 .83 1.16c-.4 0 .19.51.4.69.39.69.66 1.19.91 1.14l.16.24c-.15.2 0 .57.3.49 3.2 5.2 9.82 19 10.5 18 0-.05 3.25 8 3.55 7.55.09-.14.15-.13.13 0-.18 2 1.83 2.1.88 2-.58 0 .19.7.68 2.32.39 1.3.66.47.86.87.07.13 0 .25-.18.3-.69.19 3 6 3.1 5.94.44-.22-.28.86.74 1.58.73.52-.3.49.75 1.25s1.52 4.86 2.07 4.9.85 1.87 1.18 1.32c.21-.34.45.18.2.3s1 2.6 1.19 2.22c.09-.14.13-.07.08.17-.11.58.57 1.95.79 1.6s-.06.44.22.92.12 1.46.34 1.1.66 1.77 1.21 1.23c.25-.23.26-.19.08.22s-.11.54.2.66.32.15 0 .13-.27.1 0 .44a10.43 10.43 0 0 1 .83 1.16c-.4 0 .19.51.4.69a4.11 4.11 0 0 0 .73 1.09l3.8-.15a18 18 0 0 0-2-2.79c-.43-1.13-.92-2.05-1.26-1.89Zm-25.19-43.08c-.33.54-.29-.58-.16-.32.27-.14.38-.02.16.32Zm5 5.49c-.63-.05-.07-.35 0-.3.34-.21.31.33-.05.3ZM132.78 204.76c.79.07-1-1.18-.76-1.52.35-.55-1.54-1.94-1.44-3.18.06-.79-1.46-2.14-1.17-2.28s-.19-1.39-.33-.66c-.07.37-2.45-7.19-2.64-5.49-.07.6-.19-.33-.78-.85s.39 0-.51-1.8c-4.62-9.4-4.61-8.23-4.38-8.6s.13-.3-.16-.28-.3 0-.07-.13a.18.18 0 0 0 0-.33c-.63-.43-2.71-5.43-3-5 0 .06-.12 0-.24-.21a6 6 0 0 1-.39-.77c-.73-1.68-1.35-1.45-1-1.63.76-.37-1.49-1.64-1-1.57.61.08-5-8.67-5.07-8.72s-.69-.23-1.16-.18c-.14-.13-.19-.22 0-.26.47-.11 0-.86-.73-2.78s-.71-.89-1-1.49.45-.37-.22-.85 0-.4-.59-.66-.24-.48-.53-1.7-1.52-.92-.68-1 0-.3-.38-1c-.28-.53-1.2-.75-.63-.71s-.94-2.63-1.12-2.36 0-2.07-.81-1.7c-.19.09-.21 0-.07-.27s.13-.4-.12-.38c-.43 0-.63-.41-.24-.37.79.07-1-1.18-.76-1.52.36-.55-1.54-1.94-1.44-3.18.06-.79-1.46-2.14-1.17-2.28s-.19-1.39-.33-.66c-.07.36-2.45-7.19-2.64-5.5-.07.61-.19-.33-.77-.84s.38 0-.51-1.8c-4.63-9.4-4.61-8.23-4.39-8.6s.13-.31-.16-.28-.3 0-.07-.13a.18.18 0 0 0 0-.33c-.64-.43-2.71-5.43-3-5l-.1.14a13.21 13.21 0 0 1-2.08 2.37 16.3 16.3 0 0 0 2.45 3.36c.54.23.55.25.14.29s-.34.24.2 1.43c.85 1.88 1.2 3 1.59 3 .62.12-.84-.34 1 2.06.42.56.38.77 1 .48 1.24-.6-1.06.7.78 2.57.31.31-.19.22.1.83.17.33 1.13.84 2.65 4.79.86 2.23.89 1.07 1.09 1.8 0 .06.44 2.11 1.19 2.5.3.15.31.19 0 .16-.46 0-.1.74.42.93.3.1.32.17.1.27-.5.24.7.49.41.63s1 .43.41.56c-.42.1-.17.9.48 1.57 1 1-.17 1 .86 1.85.3.24.48.56.41.68a12.91 12.91 0 0 0 2 4.15c.48.24.48 2 1 1.91s-.06 1.24.2.84 2.45 5.31 3 5.34c.2 0 .23.14.1.37s-.12.3.19.15c.54-.26.42.39.13.36s.1.95.45.61.52.14.22.29 0 .8.29.67 1.1 1.81 1.9 2.59a105.52 105.52 0 0 0 5.76 10.4c1.55 2.5 2.89 4.47 3.25 4.62.54.23.55.25.14.29s-.34.25.2 1.43c.85 1.88 1.2 3 1.59 3.05.61.12-.84-.33 1 2.06.42.56.38.77 1 .48 1.24-.59-1.06.7.78 2.57.3.31-.19.22.1.83.17.34 1.13.85 2.65 4.8.85 2.22.89 1.07 1.09 1.79 0 .06.44 2.11 1.19 2.5.3.15.31.19 0 .16-.46 0-.1.75.42.93.3.1.32.17.1.28-.5.23.7.48.41.62s1 .43.41.57c-.42.09-.17.9.48 1.56s.31.94.42 1.32l3.3-.14.06-.13c.16-.29.13-.39-.12-.38-.54.09-.74-.35-.35-.31Zm-43.91-78.69c-.86-.19-.54-.39-.51-.33s1.53.55.51.33Zm4.66 9c-.5 0-.22-.46-.2-.4.19-.24.52.46.2.43Zm2.71 4.78c-.6.29-.23-.27-.21-.22.2-.27.65.04.21.25Zm12.94 21.79c.63-.3.43 1.12.07.39-.13-.26-.1-.42-.07-.36Zm10.93 23.15c-.86-.19-.54-.38-.51-.33s1.53.54.51.36Zm4.65 9c-.49 0-.21-.45-.19-.4.18-.21.52.49.19.46Zm2.72 4.78c-.6.29-.23-.27-.21-.22.2-.24.64.07.21.28ZM140.38 205c1.14.08-8-13.74-7.78-13.72s-3-6.47-3.63-6.57c-.45-.08.25-.06 0-.8-.35-.89-.38-1.39-.91-1.78-.29-.21-.33-.29-.13-.27.63.05-4.52-8.53-5.57-10.08a1.25 1.25 0 0 0-.18-.25c-.17 0-.22 0-.09.12s0 .2-.11.33l-.12.09c-.27.16-.35.2-.34.15a2.13 2.13 0 0 0 .22-2.17c-.68-1.36-.55-.36-1-.65-.13-.08-.1-.19.07-.24s.17-.37-.22-1.12c-.31-.59-1.24-4.71-1.76-4.65s.17-.8-.43-1.29c-1.18-1 .11-1-.85-1.45-.32-.14-.38-.22-.15-.2.51 0 0-1-.64-1.22-.89-.29.54.14-1.32-3.09-6-10.43-4.09-5.76-4.78-7.13-.09-.18 0-.3.15-.3s.08-.07-.18-.16l-.31-.09c-.28-.5-.48-.9-.32-.88.31 0-.33-.94-.77-1.17-.27-.13-.28-.18 0-.16 1.14.08-8-13.74-7.78-13.72s-3-6.47-3.63-6.58c-.45-.07.25-.06 0-.8s-.38-1.38-.91-1.77c-.29-.21-.33-.29-.13-.28.63.06-4.52-8.52-5.57-10.08a1.36 1.36 0 0 0-.18-.24c-.17 0-.22 0-.09.12s0 .2-.11.33l-.12.09c-.27.16-.35.2-.34.15a2.16 2.16 0 0 0 .23-2.18c-.69-1.35-.56-.35-1-.64-.13-.08-.1-.2.07-.24s.17-.38-.22-1.12v-.12a21.55 21.55 0 0 1-1.35 3.93c.17.4.39.85.62 1.29a4.33 4.33 0 0 0 1 1.5c.26 0 .28.07.08.17-.38.19 0 .88.19.62a13.3 13.3 0 0 0 2.24 3.09c2.08 1.87 11.44 25.78 16.63 31.16.33 2 5 8 5 8-.3.33 2.9 6.07 3.74 9.34.16.63.25.75.39.51s.18-.2.16.06c-.15 1.61 1.3 1.82 1 2-.17.09.33 1.26.87 2.28a4.33 4.33 0 0 0 1 1.5c.25 0 .28.08.08.18-.38.19 0 .87.19.62a13.37 13.37 0 0 0 2.24 3.08c1.73 1.55 8.44 18.21 13.64 26.94l3.68-.15a.85.85 0 0 0-.21-.14c-.49-.1-.5-.15-.26-.15Zm-38.5-66.91c0-.12.38-.29.41-.23.5-.03-.49.5-.41.25Zm4.18 7.84c-.65-.06 0-.4.08-.35.61-.29.33.42-.08.42Zm5.11 6.51c-.41.21-.42-.51-.35-.37.18-.07.66.24.35.39Zm22 44.4c0-.12.38-.28.41-.23.42-.03-.58.5-.46.25Zm4.18 7.84c-.65-.06 0-.4.08-.34.57-.29.28.4-.13.36ZM83.28 193.37c-.42-.07.21 0 0-.79a1.44 1.44 0 0 0-.09-.24c-.5-1.07-.51-1.62-1-1.88-.3-.15-.31-.19 0-.17.85.06-1.5-3.45-1.62-3.25-.25.39 0-.65-.4-1s.41-1.07-.14-.8c-.25.13-.28.06-.19-.37s.07-.46-.1-.2c-.45.71.45-1-1.71-2.88-.92-.82.33-.09-1.27-2.72-1.36-2.26-1.4-2.67-2-3.07-.35-.24-.38-.32-.13-.3s.13-.29-.41-1.15-1.85-4.86-2.15-4.37c-.08.12-.18 0-.24-.36s-.14-.51-.3-.25c-.38.63.25-.51-.41-.76-.34-.13-.36-.15-.07-.14s.25-.07 0-.27c-.49-.43-1 .63-.63-.24.24-.51-.47-2.18-1.16-3.46a13.74 13.74 0 0 0-1.71 3.08c3.27 6.07 7.22 13.88 7.74 13.06 0-.06 3.25 8 3.55 7.55.09-.15.15-.13.13 0-.19 2 1.82 2.09.88 2-.58 0 .19.7.68 2.31.39 1.31.65.48.86.87a.19.19 0 0 1-.1.26 11.43 11.43 0 0 0 3.19 1c-.48-.62-.98-1.42-1.2-1.46ZM70.7 172.93c-.34.53-.29-.58-.17-.33.27-.13.39-.01.17.33Zm5 5.49c-.63 0-.07-.36 0-.3.3-.22.3.33-.05.3ZM93 195.15c.16-.26.13-.31-.16-.28s-.3 0-.08-.13a.18.18 0 0 0 0-.33c-.64-.43-2.71-5.43-3-5 0 .05-.13 0-.24-.21a5.4 5.4 0 0 1-.39-.77c-.74-1.69-1.36-1.45-1-1.63.76-.37-1.49-1.64-1-1.57.61.08-5-8.67-5.08-8.73s-.68-.23-1.16-.17c-.13-.13-.18-.22 0-.26.47-.12 0-.86-.72-2.78s-.72-.89-1-1.49.45-.38-.22-.85 0-.4-.59-.66-.24-.48-.53-1.7-1.52-.92-.69-1 0-.31-.38-1c-.27-.53-1.2-.76-.62-.71s-.94-2.63-1.13-2.37 0-2.07-.8-1.7c-.19.1-.22 0-.07-.26s.12-.4-.12-.38c-.43 0-.63-.41-.25-.37.8.07-1-1.19-.75-1.52.35-.55-1.54-1.94-1.45-3.18.06-.79-1.45-2.14-1.16-2.28s-.2-1.39-.33-.66c-.07.36-2.45-7.2-2.64-5.5-.06.49-.15 0-.49-.51a7.27 7.27 0 0 0-.37 2.68 9.51 9.51 0 0 0 1.6 4.72c0-.06.08-.12.09-.1.19-.3.64 0 .21.21l-.19.08c1.16 1.88 2.49 3.54 2.49 5.95v.39c.16.48-.32.62.46 1.27.29.24.48.56.41.68a12.71 12.71 0 0 0 2 4.15c.48.23.48 2 1 1.9s-.07 1.25.2.85 2.44 5.3 3 5.34c.2 0 .23.14.09.37s-.11.3.2.15c.54-.26.41.38.13.36s.1 1 .44.6.53.15.22.29 0 .8.3.68 1.1 1.8 1.9 2.59a100.45 100.45 0 0 0 5.76 10.39c1.55 2.51 2.88 4.47 3.25 4.63.54.23.55.25.14.29a.38.38 0 0 0-.18.06 5.67 5.67 0 0 1 1.54.67c2.4 1.5 2.32 3.71 5 5.7-3.88-7.55-3.85-6.56-3.64-6.9Zm-11.6-18.71c.64-.31.43 1.11.08.38-.14-.28-.1-.44-.08-.38ZM101.2 199.49c-.46-.08.25-.06 0-.8s-.37-1.38-.91-1.77c-.29-.21-.32-.29-.12-.28.62.06-4.52-8.52-5.57-10.08a1.36 1.36 0 0 0-.18-.24c-.18 0-.22 0-.1.12s0 .2-.1.33l-.13.09c-.26.15-.34.2-.33.15a2.17 2.17 0 0 0 .22-2.18c-.68-1.35-.55-.35-1-.64-.13-.08-.1-.2.07-.24s.16-.38-.22-1.12-1.24-4.71-1.76-4.65.16-.81-.43-1.3c-1.18-1 .11-1-.86-1.44-.31-.14-.37-.22-.14-.21.51 0 0-1-.64-1.21-.9-.29.53.14-1.32-3.09-6-10.43-4.09-5.76-4.78-7.13-.09-.18 0-.31.15-.3s.08-.07-.18-.16l-.31-.09c-.28-.5-.49-.9-.32-.88s-.33-1-.77-1.17c-.27-.14-.28-.18 0-.17 1.14.09-8-13.73-7.78-13.71s-1.85-4.17-3-5.87a14.62 14.62 0 0 1-1.54 2.25c3.72 8 8.62 18.64 11.88 22 .33 1.95 5 8 4.94 8-.29.32 2.9 6.07 3.74 9.33.17.64.26.76.4.52s.18-.2.15.06c-.15 1.61 1.31 1.82 1 2-.17.08.32 1.26.87 2.28.42.79.86 1.48 1 1.5s.27.07.07.17c-.37.19 0 .88.19.62a13.53 13.53 0 0 0 2.25 3.09c.87.77 3 5.38 5.56 10.88 1.09.35 2.24.64 3.39.89-.93-1.77-2.93-5.47-3.39-5.55Zm-27.09-46.61c0-.12.38-.29.41-.23.48-.05-.52.48-.41.23Zm4.18 7.84c-.66-.06 0-.4.07-.35.64-.31.34.38-.07.35Zm5.11 6.51c-.42.21-.42-.51-.35-.37.12-.07.66.21.35.37ZM205 179.4v-.26c0-.42-.63-.11-.53-.65a2.11 2.11 0 0 0-.34-1c.54-.69-1-2-2.66-4.66-.1-.16-.23-.14-.34 0s-.16.17-.09-.2c.2-.94-1.46-1.57-.93-1.86.25-.14-.44-1.47-.65-1.14s-.42-.09-.18-.34-1.22-3.37-1.45-3.24a3.46 3.46 0 0 1-.78-1.14c-.93-1.73-1.84-1.33-1.16-1.45s-.74-2.19-.88-2.12c-.46.25-.92-2.48-1.23-2.31s-.64-1-.54-1.55c.05-.24 0-.31-.22-.2s-.24.06-.14-.13a9 9 0 0 0-1.75-3.34c-.4-.12-.07-1.38-.41-.83s.13-.32-.73-1.39-.36-1.36-1-1.61c-.23-.09-.29-.16-.14-.16s.14-.27-1.86-3.65c-.65-1.11-1.3-.92-.89-1.15s-.18-.14-.43-1.25-.22-.28-.74-.72-.5-.57-.06-.34c.23.12.33.1.25 0-.26-.49-.13-1.31-.46-.79s.25-.19-.57-1.11a7.29 7.29 0 0 1-.82-1.49c-.49-1.06-1-2.22-1.22-2.08s.48 0-.8-2.07-.34-1.28-.66-1.86c-.11-.21-.26-.2-.47 0s-.3.32-.12-.23c.23-.75.52-.34-2.64-6.47-2.24-4.37-3.25-5.72-3.66-6v-.26c0-.42-.63-.11-.53-.65a2.07 2.07 0 0 0-.34-1c.55-.69-1-2-2.66-4.66-.1-.16-.23-.15-.34 0s-.16.17-.08-.2c.19-.94-1.47-1.57-.94-1.86.25-.14-.44-1.48-.65-1.14s-.42-.1-.18-.34-1.22-3.37-1.45-3.25c-.07 0-.42-.46-.78-1.13-.93-1.73-1.84-1.33-1.16-1.46s-.74-2.18-.88-2.11c-.46.25-.92-2.48-1.22-2.31s-.65-1-.55-1.55c0-.24 0-.31-.22-.21s-.24.07-.14-.13a9.1 9.1 0 0 0-1.75-3.34c-.4-.11-.07-1.37-.41-.82s.13-.32-.73-1.39-.36-1.37-1-1.61c-.23-.09-.29-.17-.14-.16s.14-.27-1.86-3.66c-.65-1.1-1.3-.92-.89-1.14s-.18-.14-.43-1.26-.22-.27-.74-.71-.5-.57-.06-.34c.23.12.33.1.25 0-.26-.49-.13-1.31-.46-.8s.25-.18-.57-1.1a7.29 7.29 0 0 1-.82-1.49c-.48-1.06-1-2.22-1.22-2.08s.48 0-.8-2.08c-.16-.26-.28-.47-.38-.65-1 0-1.9.07-2.78.14.13.21.25.35.34.35a.25.25 0 0 1 .26.34c-.15.8 1.94 3.79 1.79 4.57-.06.28 0 .34.21.22s.25-.06.15.13a.52.52 0 0 0 0 .33c.28.88 1.66 3.06 1.84 3.93.09.44.19.58.29.41.24-.4.58 2.24 1.7 2.67.76.3-.65-.27 1.24 2.74.94 1.5-.24 1 1.32 2.29.25.19.25.33 0 .45s0 .88.51 1.22c.33.21 1.27 2.42 1.48 2.31.54-.29.63 2.8 1.67 3.4a.25.25 0 0 1 .1.38c-.26.45.17.93.5.56.57-.65-.23.4.38 1.4s.08 1.16.79 1.62.71 1.62.91 1.29.52.37.22.37-.33.59 0 .43.63.47.35.62.13 1 .55.79 1 .15.59.14c-1.44-.06 2.1 5.48 2.71 5.64.83.22 1 1.61 1.92 2.25.78.53.38.85.71.67a.33.33 0 0 1 .42.17.94.94 0 0 0 .34.28 2.29 2.29 0 0 0 .28 1.16s2.63 5.46 3 5.23.23 1.37.48 1 .59.43.28.42.19 0 1.51 3.62c1.55 4.21 1.79 2.55 1.65 3.28-.12.58.65 2.45 1 2.46a.26.26 0 0 1 .26.35c-.15.8 1.94 3.79 1.79 4.57-.06.28 0 .33.21.22s.25-.07.15.12a.52.52 0 0 0 0 .33c.28.89 1.66 3.06 1.84 3.93.09.44.19.58.29.41.24-.4.58 2.24 1.69 2.67.77.3-.64-.27 1.25 2.74.94 1.51-.24 1 1.32 2.29.24.2.25.33 0 .45s0 .89.5 1.22c.34.21 1.28 2.42 1.49 2.31.54-.29.63 2.81 1.67 3.4a.25.25 0 0 1 .1.38c-.26.45.17.93.5.56.56-.65-.23.4.38 1.4s.08 1.17.79 1.62.71 1.62.91 1.29.52.37.22.37-.33.6 0 .43.64.47.35.63.14 1 .56.78 1 .15.59.14c-1.44-.06 2.1 5.48 2.71 5.64.83.22 1 1.62 1.92 2.25s.38.85.71.67a.34.34 0 0 1 .42.17.85.85 0 0 0 .34.28 2.17 2.17 0 0 0 .28 1.16c0 .06 2.63 5.46 3 5.23s.23 1.37.48 1 .59.43.28.42.19 0 1.51 3.62c.08.23.16.43.23.62a16.67 16.67 0 0 0 2.82-.38c-.37-.75-.85-1.68-1.46-2.86-1.94-4.43-2.94-5.73-3.38-6.03Zm-36.6-67.72c-.33.54-.3-.55-.17-.31.26-.14.38-.03.17.31Zm2.26 6.38h.09c-.07.14-.1.11-.09 0Zm5.68 11.88c0-.05.48-.11.51-.06 1.42.06-.3.46-.51.06Zm23.3 40.49c-.33.54-.31-.55-.17-.31.26-.12.38-.03.17.31Zm2.26 6.38h.09c-.08.19-.1.11-.09 0ZM184.76 194.89h.18c-.05-.11-.11-.11-.18 0ZM184.16 194c-.2.11-.22.05-.08-.21s.08-.35-.12-.36c-.47 0-.52-1.27-.82-1.11s-.78-.7-.53-.84-.7-.88-1-1.65c-.11-.31-.25-.44-.32-.32s-1.56-2.58-1.71-3.39-.32-.13-.82-.57c-.23-.21-.21-.29.08-.32s.3-.11-.06-.36c-.74-.5.31-.11-.64-1.43s-.55-2.12-.81-2-.58-.94-1.21-1.52c-.31-.28-.35-.44-.13-.56s.16-.32-.36-.93c-.91-1.06-.68-2.41-1.21-2.13-.36.19.07-.26-.08-.79-.31-1.12-.46-1.43-.68-1.31s-.21 0-.15-.31c.13-.64-1.43-3.36-2.18-3.8-.18-.11-.13-.18.13-.21.79-.1-1-1.15-.37-1.13.34 0 .15-.51-.31-.26-.7.37.23-.72-.31-1a6.18 6.18 0 0 1-1.31-2.56c0-.17-.24-.36-.55-.42-.55-.1-.55-.1-.09-.17s.41-.18.08-.67c-.64-.95-2-1.18-1-1s-.22-.93-.47-1.07-.23-.19 0-.18c.64 0-.6-1.63-.9-1.13-.08.13-.12-.08-.09-.46.06-.81-1.74-4.32-2.26-4.38-.2 0-.24-.08-.09-.16.3-.16-.33-1.5-.54-1.38s-.93-2-1.28-1.83a.18.18 0 0 1-.09 0c-.1-.33-.21-.67-.34-1 .19 0 .18 0 0-.1-.38-1-.84-1.74-1.07-1.62s-.18-.07-.13-.32c.12-.61-.35-.26-.69-1.09-.18-.43-.31-.51-.49-.29-.32.38-.34-.21.13-.46.68-.37-1.52-1.7-1-2s-2.08-4.52-2.72-4.77c-.27-.1-.44-.23-.36-.28s0-.21-.28-.36c-.85-.57-.94-4.42-1.38-3.65-.31.53-.1-1.18-.59-.92-.2.11-.22.05-.08-.21s.09-.35-.12-.36c-.47 0-.52-1.27-.82-1.12s-.78-.69-.52-.83-.71-.88-1-1.65c-.11-.31-.25-.44-.32-.32s-1.56-2.58-1.71-3.4-.32-.12-.82-.56c-.23-.21-.21-.29.08-.32s.31-.11-.06-.36c-.74-.5.31-.11-.64-1.43s-.55-2.12-.81-2-.57-.93-1.21-1.51c-.31-.28-.35-.44-.13-.56s.16-.32-.36-.94c-.9-1.05-.68-2.41-1.21-2.12-.35.19.07-.26-.08-.8-.3-1.12-.46-1.42-.68-1.31s-.21 0-.15-.31c.13-.63-1.43-3.36-2.18-3.79-.18-.11-.13-.18.13-.21.79-.1-1-1.15-.37-1.13.34 0 .15-.51-.31-.26-.7.37.23-.72-.31-1a6.37 6.37 0 0 1-1.31-2.56c0-.17-.24-.37-.55-.42-.55-.1-.55-.1-.09-.17s.41-.18.08-.67c-.64-1-2-1.18-1-1s-.22-.93-.47-1.07-.23-.19 0-.18c.64 0-.6-1.63-.9-1.14-.08.14-.12-.07-.09-.45.06-.81-1.74-4.33-2.25-4.38-.21 0-.25-.08-.1-.16s-.33-1.5-.54-1.38-.93-2-1.28-1.83a.18.18 0 0 1-.09 0c-.1-.33-.21-.67-.33-1 .19 0 .17 0 0-.1-.38-1-.84-1.75-1.07-1.62s-.18-.08-.13-.33c.12-.6-.35-.26-.69-1.08-.18-.43-.31-.51-.49-.29-.32.38-.34-.21.13-.46.69-.37-1.52-1.7-1-2s-2.08-4.52-2.71-4.77c-.28-.11-.45-.24-.37-.28s0-.21-.28-.37a3.23 3.23 0 0 1-.73-1.76c-.73.33-1.46.71-2.17 1.12 1 2.32 2.8 6.17 2.88 5.34.05-.6.35 0 .2.29s1.15 2.9 1.41 2.76.23 0 .22.16c0 .44.38-.07.55.25s-1-.22-.09 1.22 1.67 1.45 1.44 1.86.67.39.63.87a.19.19 0 0 0 0 .13.53.53 0 0 0 0 .13c0 1.31 2.28 5.25 2.61 5.29.6.07-.5-.21.36 1.42s.78.41 1 .84-.76.85 0 .9c.26 0 .31.07.14.16-.32.17.5 1.76.71 1.39.06-.09 2.39 5.73 3.27 5.86.36 0 .41.13.26.39s-.18.2-.16-.06c0-.42-.5-.34.48 1.47.55 1 .81 1.31 1 1.16s.25-.07.24.08c0 .47-.65.09-.37.61s.64-.07.62.4c0 .29 2.12 5.09 2.41 4.62.42-.67-.42 1.47.78 2 .29.12.32.18.1.16s-.21.12 0 .36c.52.58.38-.22.86.66s-.46.56-.28.75c1.59 1.64 1.7 3 2.36 3.44s.06 1.2.8 1.63.51 1.22 1.19 2.08c1 1.28 1 2.24 1.39 2 .22-.12.24-.07.08.21s-.07.45.61 1c1.1.83.69 1 .52.7s-.32.09-.15.58.54.68.77.16c.34-.78-.08-.07.39 1.37.22.69.32.83.36.5s.11-.34.2-.18c.24.46-.42.06.73 2.18 0 .06 3.5 8.17 3.61 7 0-.6.35 0 .2.29s1.15 2.9 1.41 2.76.23 0 .22.16c0 .44.38-.07.55.25s-1-.22-.09 1.22 1.67 1.45 1.43 1.86.68.4.64.87a.17.17 0 0 0 0 .13v.13c0 1.32 2.29 5.25 2.62 5.29.6.07-.5-.21.36 1.42s.77.41 1 .85-.76.84 0 .89c.26 0 .31.08.14.16-.32.18.5 1.76.71 1.39.05-.08 2.39 5.73 3.27 5.86.36 0 .41.13.26.39s-.18.21-.17 0c0-.42-.49-.35.49 1.46.55 1 .8 1.31 1 1.16s.25-.07.24.08c0 .47-.65.09-.37.61s.64-.07.62.41c0 .28 2.12 5.09 2.41 4.62.42-.68-.42 1.47.78 2 .29.12.32.18.1.17s-.21.11 0 .35c.52.58.38-.22.86.66s-.46.56-.28.75c1.58 1.64 1.7 3 2.36 3.44s.06 1.21.79 1.64.52 1.21 1.2 2.08c1 1.27 1 2.23 1.39 2 .22-.12.24-.07.08.21s-.07.45.6 1c1.11.82.7 1 .53.69s-.33.09-.15.58.54.68.77.17c.34-.79-.08-.08.39 1.36.22.69.32.83.36.5s.11-.34.2-.18c.22.41-.29.14.42 1.58a9.65 9.65 0 0 1 2.4-.73c-.22-.4-.21-1.25-.56-1.04ZM125.79 84.6c-.48.25-.2-.38-.17-.33.2-.33.46.17.17.33Zm16.57 31.63c-.19-.33-.07-.4 0-.34.21.11.35.92 0 .34ZM157 143.35c-.48.25-.2-.38-.17-.33.23-.32.49.18.17.33ZM173.6 175c-.2-.32-.07-.4 0-.34.21.06.4.9 0 .34ZM177.25 194.17a1.84 1.84 0 0 0 0-.26c0-.42-.62-.11-.52-.65a2.2 2.2 0 0 0-.34-1c.54-.69-1-2-2.66-4.66-.1-.16-.23-.15-.35 0s-.16.17-.08-.2c.2-.94-1.47-1.58-.94-1.86.26-.14-.44-1.48-.64-1.14s-.42-.1-.19-.35-1.21-3.36-1.44-3.24c-.07 0-.42-.46-.78-1.13-.94-1.73-1.85-1.33-1.17-1.46s-.73-2.18-.87-2.11c-.46.25-.93-2.48-1.23-2.31s-.64-1-.54-1.55c0-.24 0-.31-.23-.21s-.24.07-.14-.13a8.81 8.81 0 0 0-1.75-3.34c-.39-.11-.06-1.37-.4-.82s.13-.32-.74-1.39-.35-1.37-.95-1.61c-.23-.09-.3-.17-.15-.16.3 0 .15-.27-1.85-3.66-.66-1.1-1.3-.92-.9-1.14s-.17-.14-.42-1.26-.22-.27-.74-.71-.5-.57-.06-.34c.22.12.32.1.25 0-.27-.49-.13-1.31-.46-.8s.25-.18-.57-1.1a7.58 7.58 0 0 1-.82-1.49c-.49-1.06-1-2.22-1.23-2.08s.48 0-.8-2.08-.33-1.27-.65-1.85c-.12-.22-.26-.21-.47 0s-.3.32-.13-.23c.24-.75.52-.34-2.63-6.47-2.25-4.38-3.26-5.72-3.67-6a2 2 0 0 0 0-.26c0-.42-.62-.11-.52-.65a2.2 2.2 0 0 0-.34-1c.54-.7-1-2-2.66-4.66-.1-.16-.23-.15-.35 0s-.15.16-.08-.2c.2-.94-1.47-1.58-.94-1.86.26-.14-.44-1.48-.64-1.15s-.42-.09-.19-.34-1.21-3.36-1.44-3.24c-.07 0-.42-.46-.78-1.13-.94-1.73-1.84-1.33-1.17-1.46s-.73-2.19-.87-2.11c-.46.25-.93-2.48-1.23-2.32s-.64-1-.54-1.54c0-.25 0-.31-.22-.21s-.25.06-.15-.13a8.74 8.74 0 0 0-1.75-3.34c-.39-.11-.06-1.37-.4-.82s.13-.32-.74-1.39-.35-1.37-1-1.61c-.23-.09-.3-.17-.14-.16s.14-.27-1.86-3.66c-.66-1.1-1.3-.92-.89-1.14s-.18-.14-.43-1.26-.22-.27-.74-.71-.5-.58-.06-.34c.22.12.32.1.25 0-.27-.49-.13-1.32-.46-.8s.25-.18-.57-1.1a7.58 7.58 0 0 1-.82-1.49c-.49-1.07-1-2.22-1.23-2.09s.48 0-.79-2.07-.34-1.27-.66-1.85c-.11-.22-.26-.21-.47 0s-.3.33-.13-.23c.24-.74.53-.33-2.63-6.46l-.26-.51c-.5.4-1 .83-1.46 1.29l-.43.41c.16.4.35.87.56 1.43 1.55 4.21 1.79 2.55 1.65 3.27s.65 2.45 1 2.47c.2 0 .29.13.25.34-.15.8 1.95 3.79 1.79 4.57 0 .28 0 .34.22.22s.25-.06.15.12a.55.55 0 0 0 0 .34c.27.88 1.65 3.06 1.83 3.93.1.44.2.58.3.41.23-.4.58 2.24 1.69 2.67.76.3-.64-.27 1.25 2.74.94 1.5-.24 1 1.32 2.29.24.19.25.32 0 .45s0 .88.5 1.22c.34.21 1.28 2.42 1.49 2.3.53-.28.62 2.81 1.67 3.41a.25.25 0 0 1 .1.38c-.27.45.17.93.49.55.57-.65-.23.41.39 1.41s.08 1.16.79 1.61.71 1.62.91 1.3.52.37.22.36-.33.6 0 .44.63.47.35.62.14 1 .55.79 1 .15.59.13c-1.43 0 2.1 5.48 2.72 5.65.82.21 1 1.61 1.92 2.25.77.53.38.85.71.67a.31.31 0 0 1 .41.17.89.89 0 0 0 .35.27 2.29 2.29 0 0 0 .27 1.17c0 .05 2.63 5.45 3 5.23s.23 1.36.48 1 .58.43.28.41.19.05 1.5 3.63c1.55 4.21 1.8 2.55 1.66 3.28-.12.57.65 2.44 1 2.46.2 0 .29.13.25.34-.15.8 1.95 3.79 1.79 4.57 0 .28 0 .34.22.22s.24-.06.15.13a.58.58 0 0 0 0 .33c.28.88 1.66 3.06 1.84 3.93.09.44.2.58.3.41.23-.4.58 2.24 1.69 2.67.76.3-.64-.27 1.25 2.74.94 1.5-.25 1.05 1.32 2.29.24.19.25.33 0 .45s0 .88.5 1.22c.34.21 1.27 2.42 1.49 2.31.53-.29.62 2.8 1.67 3.4a.26.26 0 0 1 .1.38c-.27.45.16.93.49.56.57-.65-.23.4.38 1.4s.09 1.16.79 1.62.72 1.62.91 1.29.53.37.23.37-.33.59 0 .43.63.47.35.62.14 1 .55.79 1 .15.59.14c-1.43-.06 2.1 5.48 2.72 5.64.82.21 1 1.61 1.92 2.25.77.53.38.85.71.67a.32.32 0 0 1 .41.17 1 1 0 0 0 .34.28 2.4 2.4 0 0 0 .28 1.16c0 .05 2.63 5.46 3.05 5.23s.23 1.37.48 1c.11-.19.3 0 .36.18.59-.46 1.15-.92 1.63-1.37-1.09-2.33-1.75-3.18-2.07-3.4ZM117.32 86s.49-.11.52-.06c1.41.06-.31.41-.52.06Zm23.3 40.49c-.32.53-.3-.56-.17-.31.27-.18.38-.07.17.27Zm2.27 6.38h.08c-.07.13-.09.07-.08-.04Zm5.67 11.88c0-.05.49-.11.51-.06 1.42.02-.3.41-.51.02Zm23.3 40.49c-.32.53-.3-.56-.17-.31.31-.19.38-.07.17.27Zm2.27 6.38h.08c-.07.1-.09.07-.08-.04ZM189.23 190.42c-.35-.23-.38-.31-.13-.29s.13-.29-.41-1.15-1.85-4.86-2.15-4.37c-.08.12-.18 0-.24-.36s-.14-.51-.3-.25c-.38.63.25-.51-.41-.76-.34-.13-.36-.16-.07-.14s.25-.07 0-.27c-.49-.43-1.05.63-.63-.24s-2-5.18-2.24-5.05-.14 0 0-.22c.37-.61-1.59-3-2.18-3.75-.43-1.09-.94-2-1.26-1.86s-.3.08-.2-.23c.21-.63-.12-1.07-.5-.68s-.29.26-.1-.14 0-.87-.89-2.58c-1.47-2.82-.53-2.34-1-2.4-.68-.09.26-.22-.62-1.33-1.65-2.1-2-3.6-2.6-3.87-.39-.16-.43-.25-.26-.51s.13-.32-.16-.28-.31-.06-.22-.26c.16-.37-1.22-2.87-1.42-2.55-.09.16-1.17.17-.58-.12s-1-2.79-1.17-2.72c-.41.21.41-.58-.87-1.73-.45-.41-.68-.72-.52-.7.38 0-1.07-2.47-1.46-2.54s.21 0 0-.8a1.78 1.78 0 0 0-.09-.23c-.5-1.07-.51-1.62-1-1.88-.3-.15-.31-.19 0-.17.85.06-1.49-3.45-1.62-3.25-.25.38 0-.65-.39-1s.4-1.07-.15-.79c-.25.12-.28.06-.19-.37s.07-.47-.1-.2c-.45.7.45-.95-1.71-2.88-.92-.82.33-.09-1.26-2.73-1.37-2.25-1.41-2.66-2-3.07-.34-.24-.38-.31-.13-.29s.13-.3-.41-1.15-1.85-4.87-2.15-4.37c-.08.12-.18 0-.24-.37s-.14-.51-.3-.24c-.38.62.25-.51-.41-.76-.34-.13-.36-.16-.07-.14s.25-.08 0-.27c-.49-.43-1.05.63-.63-.24s-2-5.18-2.24-5.06-.14 0 0-.22c.37-.6-1.59-3-2.18-3.74-.43-1.09-.94-2-1.26-1.87s-.3.09-.2-.23c.21-.62-.12-1.07-.5-.68s-.29.27-.1-.13 0-.88-.89-2.58c-1.47-2.82-.52-2.34-1-2.41-.68-.08.26-.21-.61-1.33-1.66-2.1-2-3.6-2.61-3.86-.39-.16-.43-.25-.26-.52s.13-.31-.16-.28-.31-.05-.22-.25c.17-.37-1.22-2.87-1.42-2.55-.09.16-1.17.17-.58-.12s-1-2.8-1.17-2.72c-.41.21.41-.58-.87-1.74-.45-.4-.68-.71-.52-.7.38 0-1.07-2.46-1.46-2.53s.21 0 0-.8a1.36 1.36 0 0 0-.09-.23c-.5-1.08-.5-1.63-1-1.88-.31-.15-.32-.19 0-.17.85.05-1.49-3.45-1.62-3.25-.24.38 0-.65-.39-1s.4-1.07-.15-.79c-.25.12-.28.06-.19-.37s.07-.47-.1-.2c-.45.7.45-.95-1.71-2.88-.72-.64-.12-.35-.57-1.43q-1.14.21-2.31.51.12.06.18 0c0-.06 3.25 8 3.55 7.55.09-.15.15-.14.13 0-.19 2 1.83 2.09.88 2-.58 0 .19.7.68 2.31.39 1.31.65.47.86.87.07.13 0 .26-.18.3-.69.19 3 6 3.1 5.94.44-.22-.28.86.74 1.59.72.51-.3.48.75 1.24s1.52 4.86 2.07 4.91.85 1.86 1.18 1.31c.21-.34.44.18.2.31s1 2.6 1.19 2.22c.09-.15.13-.08.08.17-.12.57.57 2 .79 1.59s-.07.44.22.92.12 1.46.34 1.1.65 1.77 1.21 1.23c.24-.23.26-.19.08.22s-.12.55.2.66.32.15 0 .14-.26.09 0 .44a8.09 8.09 0 0 1 .84 1.16c-.4 0 .19.5.4.68.38.69.65 1.19.9 1.14l.16.24c-.14.2 0 .57.31.49 3.2 5.21 9.82 19 10.5 18 0-.06 3.25 8 3.55 7.55.09-.15.15-.14.13 0-.19 2 1.82 2.09.88 2-.58-.05.19.7.68 2.31.39 1.31.65.47.86.87.06.12 0 .25-.18.29-.69.19 3 6 3.1 5.94.44-.21-.28.86.74 1.59.72.51-.3.48.75 1.24s1.52 4.87 2.07 4.91.84 1.86 1.18 1.31c.2-.33.44.18.2.31s1 2.6 1.19 2.22c.09-.15.12-.08.08.17-.12.58.57 1.95.79 1.6s-.07.43.22.92.12 1.45.34 1.09.65 1.77 1.21 1.24c.24-.24.26-.2.08.22s-.12.54.19.66.33.15 0 .13-.27.09 0 .44a8.09 8.09 0 0 1 .84 1.16c-.4 0 .19.5.4.68.38.69.65 1.19.9 1.14.05.08.11.16.16.25-.14.2 0 .57.31.49 2.74 4.45 8 15.24 9.87 17.58.78.08 1.55.19 2.29.3a3.27 3.27 0 0 0 .61 0 6.34 6.34 0 0 0-.84-1.73c-1.51-2.23-1.55-2.64-2.14-3.05ZM154 128.63c-.34.53-.29-.59-.17-.33.29-.14.41-.01.17.33Zm4.95 5.48c-.63-.05-.07-.35 0-.29.41-.22.37.32.05.29Zm26.29 53.27c-.34.53-.29-.58-.17-.33.29-.13.41-.05.19.33Zm5 5.49c-.63-.06-.07-.36 0-.3.36-.22.32.32-.03.3ZM195.45 190.81c-.13-.14-.18-.22 0-.26.47-.12 0-.86-.72-2.78s-.72-.89-1-1.5.45-.37-.22-.85 0-.39-.59-.65-.24-.48-.53-1.7-1.52-.92-.69-1 0-.31-.38-1c-.27-.53-1.2-.76-.62-.71s-.94-2.63-1.13-2.37 0-2.07-.8-1.7c-.19.1-.22 0-.07-.26s.12-.4-.12-.38c-.43 0-.63-.41-.25-.38.8.08-1-1.18-.75-1.51.35-.55-1.54-1.94-1.45-3.18.06-.79-1.45-2.14-1.16-2.28s-.2-1.39-.33-.66c-.07.36-2.45-7.2-2.64-5.5-.07.6-.19-.33-.78-.84s.39 0-.51-1.8c-4.62-9.41-4.61-8.23-4.38-8.61s.13-.3-.16-.27-.3 0-.07-.13a.19.19 0 0 0 0-.34c-.64-.42-2.71-5.42-3-5 0 .05-.12 0-.24-.22a5.73 5.73 0 0 1-.39-.76c-.74-1.69-1.36-1.45-1-1.63.76-.37-1.49-1.64-1-1.58.61.09-5-8.66-5.08-8.72s-.68-.23-1.15-.17c-.14-.14-.19-.22 0-.26.47-.12 0-.86-.72-2.78s-.71-.9-1-1.5.45-.37-.22-.85 0-.39-.59-.66-.24-.47-.53-1.69-1.52-.92-.69-1 0-.3-.38-1c-.27-.53-1.2-.76-.62-.71s-.94-2.64-1.13-2.37 0-2.07-.8-1.7c-.19.09-.22 0-.07-.26s.12-.4-.12-.38c-.43 0-.63-.41-.25-.38.8.08-1-1.18-.75-1.51.35-.56-1.54-1.95-1.45-3.19.06-.78-1.45-2.14-1.16-2.27s-.2-1.39-.33-.66c-.07.36-2.45-7.2-2.64-5.5-.07.6-.19-.33-.78-.84s.39 0-.51-1.8c-4.62-9.41-4.61-8.24-4.38-8.61s.13-.3-.16-.27-.3 0-.07-.13a.19.19 0 0 0 0-.34c-.64-.42-2.71-5.43-3-5 0 .06-.12 0-.24-.21a5.73 5.73 0 0 1-.39-.76c-.73-1.69-1.36-1.45-1-1.64.76-.36-1.49-1.63-1-1.57s-1.47-3-3-5.49h-1.72l-1.49.09h-.19a4.73 4.73 0 0 0 .34.4 104.61 104.61 0 0 0 5.76 10.39c1.55 2.5 2.88 4.47 3.25 4.63.54.23.55.24.14.28s-.34.25.2 1.44c.85 1.88 1.2 3 1.58 3 .62.12-.84-.33 1 2.06.42.56.38.77 1 .48 1.24-.59-1.06.7.78 2.58.3.3-.19.21.1.82.16.34 1.13.85 2.65 4.8.85 2.23.88 1.07 1.09 1.79 0 .06.44 2.11 1.19 2.5.3.16.31.19 0 .17-.46 0-.11.74.41.92.31.11.33.17.11.28-.5.24.7.48.41.62s1 .44.41.57c-.42.09-.17.9.48 1.57 1 1-.17 1 .86 1.85.29.24.48.55.41.68a12.71 12.71 0 0 0 2 4.15c.48.23.48 2 1 1.9s-.07 1.25.2.85 2.44 5.3 3 5.34q.3 0 .09.36c-.15.27-.11.3.2.16.54-.26.41.38.13.35s.1 1 .44.61.53.14.22.29 0 .8.3.68 1.1 1.8 1.9 2.59a101.5 101.5 0 0 0 5.76 10.39c1.55 2.5 2.88 4.47 3.25 4.63.54.23.55.24.14.29s-.34.24.2 1.43c.85 1.88 1.2 3 1.58 3 .62.13-.84-.33 1 2.06.42.56.38.77 1 .49 1.24-.6-1.06.69.78 2.57.3.3-.19.22.1.82.16.34 1.13.85 2.65 4.8.85 2.23.88 1.07 1.09 1.79 0 .06.44 2.12 1.19 2.5.3.16.31.19 0 .17-.46 0-.11.74.41.92.31.11.33.17.11.28-.5.24.69.48.41.62s1 .44.41.57c-.42.1-.17.9.48 1.57 1 1-.17 1 .86 1.85.29.24.48.55.41.68a12.71 12.71 0 0 0 2 4.15c.48.23.48 2 1 1.9s-.07 1.25.2.85 2.44 5.3 3 5.34c.2 0 .23.14.09.37s-.11.3.2.15c.54-.26.41.38.13.36s.1.94.44.6.53.15.22.29 0 .8.3.68.75 1 1.32 1.85c.14-.11.27-.23.4-.35s.52-.49.77-.75.65-.69 1-1c-.33-.53-.55-.87-.56-.88-.35-.13-.92-.18-1.4-.12Zm-51-94.28c-.86-.18-.54-.38-.51-.33s1.5.55.48.33Zm4.65 9c-.49 0-.22-.45-.19-.4.15-.24.49.46.16.43Zm2.72 4.78c-.61.29-.24-.27-.21-.21.17-.27.61.03.18.24Zm12.93 21.8c.64-.31.43 1.11.08.38-.17-.25-.13-.41-.11-.35Zm10.94 23.14c-.86-.18-.54-.38-.51-.32s1.5.57.48.35Zm4.65 9c-.49 0-.22-.45-.19-.39.15-.21.49.48.16.45Zm2.72 4.78c-.61.29-.24-.27-.21-.21.15-.24.61.07.15.27Zm13 22.18c-.14-.28-.1-.44-.08-.38.62-.25.41 1.17.02.44ZM202.18 185.37c-6-10.42-4.09-5.75-4.78-7.12-.09-.18 0-.31.15-.3s.08-.07-.18-.16l-.31-.09c-.28-.5-.49-.9-.32-.88s-.33-.95-.77-1.17c-.27-.14-.28-.18 0-.17 1.14.09-8-13.73-7.78-13.71s-3-6.48-3.63-6.58.25-.06-.05-.8-.37-1.39-.9-1.77c-.3-.21-.33-.3-.13-.28.62.06-4.52-8.53-5.57-10.08a1.36 1.36 0 0 0-.18-.24c-.18 0-.22 0-.1.11s0 .2-.1.33l-.13.09c-.26.16-.34.21-.33.16a2.18 2.18 0 0 0 .22-2.18c-.68-1.36-.55-.36-1-.64-.13-.09-.1-.2.07-.25s.16-.37-.22-1.11-1.24-4.71-1.76-4.65.17-.81-.43-1.3c-1.18-1 .11-1-.86-1.44-.31-.14-.37-.22-.14-.21.51 0-.05-1-.64-1.21-.9-.3.53.14-1.32-3.1-6-10.43-4.09-5.75-4.78-7.13-.09-.17 0-.3.15-.29s.08-.07-.18-.16l-.31-.09c-.28-.5-.49-.9-.32-.89s-.33-.94-.77-1.16c-.27-.14-.28-.19 0-.17 1.14.08-8-13.73-7.78-13.72s-3-6.47-3.63-6.57.25-.06 0-.8-.38-1.39-.91-1.77c-.29-.22-.33-.3-.13-.28.63 0-4.52-8.53-5.57-10.08a1.36 1.36 0 0 0-.18-.24c-.17 0-.22 0-.09.11s0 .2-.11.33l-.12.09c-.27.16-.35.2-.34.16a2.15 2.15 0 0 0 .22-2.18c-.68-1.36-.55-.36-1-.65-.13-.08-.1-.19.07-.24s.17-.37-.22-1.11c-.2-.39-.65-2.23-1.09-3.48-1.58.25-2.72.51-3.17.62a24.54 24.54 0 0 1 1.1 3.1c.17.63.26.76.4.52s.18-.2.15.06c-.15 1.61 1.31 1.82 1 2-.17.09.33 1.26.87 2.28.42.79.86 1.49 1 1.51s.27.07.08.17c-.38.19 0 .88.19.62a13.37 13.37 0 0 0 2.24 3.08c2.08 1.87 11.44 25.79 16.63 31.16.33 2 5 8 4.94 8-.29.33 2.91 6.07 3.74 9.34.17.64.26.76.4.52s.18-.2.15.06c-.15 1.61 1.31 1.82 1 2-.17.09.33 1.27.87 2.28.42.79.86 1.49 1 1.51s.27.07.08.17c-.38.19 0 .88.18.62A13.6 13.6 0 0 0 179 149c2.08 1.87 11.44 25.79 16.63 31.16.33 2 5 8 4.94 8s0 .43.28 1a8 8 0 0 1 3.07-.53 1 1 0 0 0-.28-.16c-1.04-.29.36.14-1.46-3.1Zm-44.75-76.79c0-.13.38-.29.41-.24.49-.05-.49.49-.41.24Zm4.18 7.83c-.65 0 0-.39.07-.34.62-.31.32.38-.07.34Zm5.11 6.52c-.41.21-.42-.51-.35-.37.12-.07.63.21.35.37Zm21.95 44.4c0-.12.38-.29.4-.23.5-.05-.48.48-.4.23Zm4.18 7.84c-.66-.06.05-.4.07-.35.62-.31.34.38-.07.35Zm5.11 6.51c-.42.21-.43-.51-.35-.37.12-.07.66.21.39.37ZM153.54 204.26c-.15.12-1.14-1.81-1.54-2.9a3.23 3.23 0 0 1-.15-.5c-.08-.4-.17-.39-.32-.38a.65.65 0 0 1-.5-.18c-.24-.21-.22-.29.08-.32h.14c.14 0 .09-.12-.16-.3h-.05c-.42-.29-.26-.29-.22-.47s0-.39-.41-1c-.87-1.21-.55-2.12-.82-2s-.52-.75-1.05-1.35l-.16-.16c-.26-.25-.33-.4-.2-.51l.08-.05c.24-.13.16-.32-.36-.94-.91-1-.68-2.41-1.22-2.12h-.13a2 2 0 0 0 .07-.82c-.31-1.12-.47-1.42-.68-1.31s-.22 0-.15-.31c.13-.63-1.44-3.36-2.18-3.8-.18-.1-.13-.17.13-.2.79-.1-1-1.15-.38-1.13.35 0 .16-.51-.31-.27-.69.38.24-.71-.3-1a6.25 6.25 0 0 1-1.31-2.56c0-.17-.24-.37-.55-.42-.55-.1-.56-.1-.09-.18s.41-.17.07-.66c-.63-.95-2-1.18-1-1s-.23-.93-.47-1.07-.23-.19 0-.18c.64 0-.6-1.63-.9-1.14-.08.14-.12-.07-.09-.45.06-.81-1.75-4.33-2.26-4.38-.21 0-.24-.08-.1-.16.3-.16-.32-1.5-.54-1.39s-.92-2-1.28-1.82a.15.15 0 0 1-.09 0 8.84 8.84 0 0 0-.33-1c.19 0 .17 0 0-.1-.38-1-.84-1.75-1.07-1.63s-.17-.07-.12-.32c.12-.6-.35-.26-.69-1.08-.18-.43-.31-.51-.49-.3l-.06.06c-.17.16-.22 0-.11-.22a.78.78 0 0 1 .3-.3c.68-.36-1.52-1.69-1-2s-2.07-4.52-2.71-4.77c-.27-.11-.44-.24-.36-.28s-.05-.21-.28-.37a2 2 0 0 1-.51-1c-.39-1.29-.53-3.24-.85-2.68s-.11-1.17-.59-.91c-.2.1-.22.05-.08-.21s.08-.36-.13-.37c-.46 0-.51-1.27-.81-1.11s-.79-.69-.53-.83-.7-.88-1-1.65c-.11-.31-.25-.45-.33-.32-.15.12-1.14-1.81-1.54-2.9a3.23 3.23 0 0 1-.15-.5c-.08-.4-.17-.4-.32-.39a.59.59 0 0 1-.5-.17c-.24-.21-.22-.29.08-.33h.14c.14 0 .09-.12-.16-.3-.42-.29-.26-.29-.22-.47s0-.39-.41-1c-.87-1.21-.55-2.12-.81-2s-.53-.75-1.06-1.35l-.15-.16c-.27-.25-.34-.4-.2-.51a.18.18 0 0 1 .07-.05c.24-.13.16-.33-.36-.94-.91-1.06-.68-2.41-1.22-2.12h-.13a2 2 0 0 0 .07-.82c-.31-1.12-.47-1.42-.68-1.31s-.22 0-.15-.31c.13-.64-1.44-3.36-2.18-3.8-.18-.1-.13-.17.13-.21.79-.09-1-1.14-.38-1.12.35 0 .16-.52-.31-.27-.69.37.24-.72-.3-1a6.25 6.25 0 0 1-1.31-2.56c0-.18-.24-.37-.55-.42-.55-.1-.55-.11-.09-.18s.41-.17.08-.66c-.64-1-2-1.18-1-1s-.23-.93-.47-1.08-.23-.18 0-.17c.64 0-.6-1.63-.9-1.14-.08.13-.12-.07-.09-.45.06-.82-1.75-4.33-2.26-4.39-.21 0-.24-.08-.1-.15.3-.16-.32-1.5-.54-1.39s-.92-2-1.27-1.82a.2.2 0 0 1-.1 0 9.74 9.74 0 0 0-.33-1c.19 0 .17 0 0-.09-.38-1-.83-1.75-1.06-1.63s-.18-.07-.13-.32c.12-.6-.35-.26-.69-1.08-.18-.44-.31-.51-.49-.3a.13.13 0 0 1-.06 0c-.17.17-.22 0-.11-.21a.72.72 0 0 1 .3-.3c.68-.36-1.52-1.7-1-2s-2.07-4.53-2.71-4.77c-.27-.11-.44-.24-.36-.28s0-.21-.28-.37a1.58 1.58 0 0 1-.45-.77A14.61 14.61 0 0 0 93.79 97c.95 2.07 2 4.18 2.06 3.54s.35 0 .2.3 1.16 2.9 1.41 2.76.24 0 .23.16c0 .43.38-.07.55.25s-1-.23-.09 1.22 1.67 1.45 1.43 1.85.67.4.64.88a.12.12 0 0 0 0 .12.68.68 0 0 0 0 .14c0 1.31 2.29 5.25 2.61 5.29.6.06-.5-.21.37 1.42s.77.4 1 .84-.76.85 0 .9c.26 0 .3.07.14.16-.32.17.5 1.76.71 1.39 0-.09 2.39 5.73 3.27 5.85.36.06.41.13.26.39s-.18.21-.17 0c0-.42-.5-.35.49 1.47.55 1 .8 1.31 1 1.16s.25-.07.24.08c0 .47-.65.09-.38.6s.65-.06.63.41c0 .29 2.12 5.09 2.41 4.62.42-.67-.42 1.47.77 2 .29.13.33.18.11.17s-.21.11 0 .36c.52.57.37-.22.86.65s-.46.57-.28.75c1.58 1.65 1.7 3 2.36 3.44s.06 1.21.79 1.64.52 1.22 1.2 2.08c1 1.27 1 2.23 1.38 2 .22-.12.24-.08.09.2s-.07.46.6 1c1.1.82.7 1 .53.7s-.33.09-.15.58.54.68.76.16c.35-.78-.07-.07.4 1.37.22.69.32.82.36.5s.11-.34.19-.19c.25.47-.42.06.73 2.19 0 .05 3.51 8.16 3.61 7 .06-.6.35 0 .2.29s1.16 2.9 1.41 2.76.24 0 .23.16c0 .44.38-.07.55.25s-1-.23-.09 1.22 1.67 1.45 1.43 1.86.67.39.63.87a.28.28 0 0 0 0 .13v.13c0 1.31 2.28 5.25 2.61 5.29.6.06-.5-.21.37 1.42s.77.41 1 .84-.76.85 0 .9c.26 0 .3.07.14.16-.33.17.49 1.76.71 1.39 0-.09 2.39 5.73 3.26 5.86.37.05.42.13.27.39s-.19.2-.17-.06c0-.42-.5-.35.49 1.47.55 1 .8 1.31 1 1.16s.25-.07.24.08c0 .47-.65.09-.38.6s.64-.06.62.41c0 .29 2.13 5.09 2.42 4.62.41-.67-.42 1.47.77 2 .29.12.33.18.11.16s-.21.12 0 .36c.51.58.37-.22.86.66s-.47.56-.28.75c1.58 1.64 1.7 3 2.35 3.44s.06 1.2.8 1.63.52 1.22 1.2 2.08c1 1.27.95 2.24 1.38 2 .22-.12.24-.07.08.21a.94.94 0 0 0-.06.15l2.72-.12-.09-.2c-.13-.45-.27-.59-.35-.46Zm-39-73.61c.26.08.39.92 0 .34-.15-.32-.02-.39 0-.34Zm-16.79-31.3c0-.13.08-.34.1-.31.19-.33.46.17.17.33-.14.07-.21.06-.25 0s-.02 0-.02-.02Zm48 90.06c.26.07.39.91.05.34-.17-.33-.05-.4-.02-.34ZM129 158.1c0-.13.08-.34.1-.31.19-.33.46.17.17.33-.14.07-.21.07-.25 0a.08.08 0 0 1-.02-.02ZM165.94 201c-.25-.52.46-.37-.22-.85s0-.39-.58-.66-.25-.47-.53-1.69-1.53-.92-.69-1 0-.3-.38-1c-.28-.53-1.2-.76-.63-.71s-.94-2.64-1.12-2.37 0-2.07-.81-1.7c-.19.09-.21 0-.07-.26s.13-.4-.11-.39c-.44 0-.64-.4-.25-.37.79.08-1-1.18-.76-1.51.36-.56-1.54-1.95-1.44-3.19.06-.79-1.45-2.14-1.17-2.27s-.19-1.4-.33-.66c-.06.36-2.45-7.2-2.64-5.5-.06.6-.19-.33-.77-.84s.38 0-.51-1.8c-4.62-9.41-4.61-8.24-4.38-8.61s.12-.3-.16-.28-.3 0-.08-.12a.19.19 0 0 0 0-.34c-.64-.43-2.71-5.43-3-5 0 .06-.13 0-.24-.21a4.42 4.42 0 0 1-.4-.77c-.73-1.68-1.35-1.45-1-1.63.76-.36-1.49-1.63-1-1.57.61.09-5.05-8.67-5.08-8.72s-.68-.23-1.16-.17c-.13-.14-.18-.23 0-.27.47-.11 0-.86-.72-2.77s-.72-.9-1-1.5.46-.37-.21-.85 0-.39-.59-.66-.25-.47-.53-1.69-1.53-.93-.69-1 0-.3-.38-1c-.28-.52-1.2-.75-.63-.7s-.94-2.64-1.12-2.37 0-2.07-.8-1.7c-.2.09-.22 0-.08-.27s.13-.39-.11-.38c-.44 0-.64-.41-.25-.37.79.07-1-1.18-.76-1.52.36-.55-1.53-1.94-1.44-3.18.06-.79-1.45-2.14-1.17-2.28s-.19-1.39-.33-.66c-.06.37-2.45-7.19-2.63-5.49-.07.6-.19-.33-.78-.85s.38 0-.51-1.8c-4.62-9.4-4.61-8.23-4.38-8.6s.13-.3-.16-.28-.3 0-.08-.12a.19.19 0 0 0 0-.34c-.64-.43-2.71-5.43-3-5 0 .06-.13 0-.24-.21a4.82 4.82 0 0 1-.4-.77c-.73-1.68-1.35-1.45-1-1.63.76-.36-1.49-1.64-1-1.57s-2.74-5.06-4.28-7.48l-1.16.2c-.44.08-.93.2-1.46.34l-.44.12a10 10 0 0 0 1.24 1.84 103.9 103.9 0 0 0 5.77 10.4c1.55 2.5 2.88 4.47 3.25 4.62.54.24.54.25.14.29s-.34.25.19 1.43c.85 1.88 1.21 3 1.59 3.05.62.12-.84-.33 1 2.06.42.56.39.77 1 .48 1.23-.59-1.07.7.78 2.57.3.31-.19.22.1.83.16.34 1.13.85 2.64 4.8.86 2.22.89 1.07 1.1 1.79 0 .06.44 2.11 1.18 2.5.3.15.31.19 0 .16-.45 0-.1.75.42.93.3.11.33.17.11.28-.5.24.69.48.4.62s1 .43.41.57c-.42.09-.17.9.49 1.56 1 1-.18 1 .86 1.86.29.24.48.55.41.67a12.75 12.75 0 0 0 2 4.16c.47.23.48 2 1 1.9s-.07 1.24.2.84 2.44 5.31 3 5.35q.3 0 .09.36c-.16.27-.11.3.2.15.53-.26.41.39.13.36s.1.95.44.61.53.14.22.29 0 .8.3.67 1.09 1.81 1.89 2.6a105.07 105.07 0 0 0 5.77 10.39c1.54 2.5 2.88 4.47 3.25 4.63.54.23.54.24.14.28s-.34.25.19 1.44c.85 1.88 1.2 3 1.59 3 .62.12-.84-.33 1 2.06.42.56.38.77 1 .48 1.24-.59-1.06.7.79 2.57.3.31-.2.22.1.83.16.34 1.13.85 2.64 4.8.86 2.23.89 1.07 1.1 1.79 0 .06.44 2.11 1.18 2.5.3.16.31.19 0 .17-.45-.05-.1.74.42.92.3.11.33.17.11.28-.5.24.69.48.4.62s1 .43.41.57c-.42.09-.17.9.49 1.56 1 1-.18 1 .86 1.86.29.24.48.55.4.68a13.13 13.13 0 0 0 2 4.15c.48.23.48 2 1 1.9s-.06 1.25.21.85 2.12 4.43 2.83 5.23l3.22-.14c-.17-.41-.4-1-.66-1.68-.85-1.88-.86-.86-1.15-1.5Zm-49.29-89.7c-.86-.19-.54-.38-.52-.33s1.54.55.52.33Zm4.65 9c-.49 0-.22-.45-.19-.4.18-.24.51.46.19.43Zm2.72 4.78c-.61.29-.24-.27-.21-.22.19-.27.64.04.19.25ZM137 146.9c.64-.3.43 1.12.08.39-.19-.29-.16-.44-.08-.39Zm10.93 23.15c-.85-.19-.53-.38-.51-.33s1.49.55.46.33Zm4.66 9c-.49 0-.22-.45-.19-.4.13-.24.46.46.14.43Zm2.72 4.78c-.61.29-.24-.27-.21-.21.14-.27.59.03.16.24ZM158.76 199.37c-.07.13-.18 0-.23-.36s-.15-.51-.31-.24c-.37.62.26-.51-.4-.76-.35-.13-.36-.16-.07-.14s.25-.08 0-.27c-.49-.43-1.05.63-.63-.25s-2-5.17-2.25-5-.13 0 0-.22c.36-.6-1.59-3-2.18-3.74-.44-1.09-.95-2-1.26-1.87s-.31.09-.2-.23c.2-.62-.13-1.07-.51-.68s-.28.27-.09-.13 0-.88-.9-2.58c-1.47-2.82-.52-2.34-1-2.41-.68-.08.27-.21-.61-1.33-1.65-2.1-2-3.6-2.61-3.86-.38-.16-.42-.25-.26-.52s.14-.31-.15-.28-.31 0-.22-.25c.16-.38-1.22-2.87-1.42-2.55-.1.16-1.17.17-.59-.13s-1-2.79-1.16-2.71c-.41.2.4-.58-.87-1.74-.46-.4-.68-.71-.52-.7.37 0-1.07-2.46-1.46-2.53s.21 0 0-.8c0-.07 0-.15-.09-.23-.5-1.08-.51-1.63-1-1.88-.3-.15-.31-.19 0-.17.85.05-1.5-3.45-1.63-3.25-.24.38 0-.65-.39-1s.41-1.07-.15-.79c-.24.12-.27.06-.18-.37s.07-.47-.1-.2c-.46.7.44-1-1.72-2.88-.92-.82.34-.1-1.26-2.73-1.36-2.25-1.4-2.66-2-3.07-.35-.24-.38-.31-.13-.29s.12-.3-.42-1.16-1.85-4.86-2.15-4.37c-.07.13-.18 0-.23-.36s-.15-.51-.3-.25c-.38.63.25-.51-.41-.75-.35-.13-.36-.16-.07-.15s.25-.07 0-.26c-.49-.43-1.05.63-.63-.25s-2-5.17-2.25-5-.13 0 0-.22c.36-.61-1.59-3-2.18-3.74-.44-1.1-.95-2-1.26-1.87s-.31.09-.2-.23c.21-.62-.13-1.07-.51-.68s-.28.27-.09-.13 0-.88-.89-2.58c-1.48-2.83-.53-2.34-1.05-2.41s.27-.21-.61-1.33c-1.65-2.1-2-3.6-2.61-3.86-.38-.17-.42-.25-.26-.52s.14-.31-.15-.28-.31-.06-.22-.25c.16-.38-1.22-2.87-1.42-2.55-.1.16-1.17.17-.58-.13s-1-2.79-1.17-2.71c-.41.2.41-.58-.87-1.74-.45-.41-.68-.71-.52-.7.37 0-1.07-2.47-1.46-2.53s.21 0 0-.8c0-.07 0-.15-.09-.23-.5-1.08-.51-1.63-1-1.88-.3-.15-.31-.2 0-.18.85.06-1.5-3.45-1.63-3.24-.24.38 0-.66-.39-1s.41-1.07-.15-.79c-.24.12-.27 0-.18-.38s.07-.46-.1-.19c-.45.7.44-1-1.72-2.89-.86-.77.2-.17-1-2.3a18.8 18.8 0 0 0-2.2 1.1c.25.29.43.39.52.26s3.25 8 3.55 7.54c.09-.14.14-.13.13 0-.19 2 1.82 2.1.88 2-.59-.05.19.7.67 2.32.4 1.3.66.47.86.87.06.13 0 .25-.18.3-.7.19 3 6 3.1 5.94.43-.22-.29.86.73 1.58.73.52-.29.49.76 1.25s1.52 4.86 2.07 4.9.84 1.87 1.18 1.32c.2-.34.44.18.19.3s1 2.6 1.2 2.22c.09-.14.12-.07.07.17-.11.58.57 2 .8 1.6s-.07.44.21.92.13 1.46.35 1.1.65 1.77 1.21 1.23c.24-.23.26-.19.08.22s-.12.54.19.66.32.15 0 .13-.27.1 0 .44a7.86 7.86 0 0 1 .83 1.17c-.4 0 .2.5.4.68.39.69.66 1.19.91 1.14l.16.24c-.14.2 0 .57.31.49 3.19 5.2 9.82 19.05 10.5 18 0-.06 3.25 8 3.55 7.55.09-.15.14-.14.13 0-.19 2 1.82 2.09.87 2-.58-.06.2.69.68 2.31.4 1.31.66.47.86.87.06.13 0 .26-.18.3-.7.19 3 6 3.1 5.94.43-.22-.29.86.73 1.59.73.51-.29.48.75 1.24s1.53 4.86 2.08 4.91.84 1.86 1.18 1.31c.2-.34.44.18.19.31s1 2.6 1.2 2.22c.09-.15.12-.08.07.16-.11.58.57 2 .8 1.6s-.07.44.21.92.12 1.46.34 1.1.66 1.77 1.22 1.23c.24-.23.25-.19.08.22s-.12.55.19.66.32.15 0 .14-.27.09 0 .43a8.67 8.67 0 0 1 .83 1.17c-.4 0 .2.5.4.68.39.69.66 1.19.91 1.14 0 .08.1.16.16.24a.31.31 0 0 0 .31.49c1.76 2.87 4.56 8.37 6.84 12.54l3-.12a8.13 8.13 0 0 0-.43-.73c-.69-1.08-1.93-4.97-2.23-4.48Zm-32.51-56c-.34.53-.3-.59-.17-.33.27-.11.38.01.17.36Zm4.94 5.48c-.63 0-.06-.35 0-.3.39-.18.36.36 0 .33Zm26.29 53.27c-.33.53-.29-.59-.16-.33.27-.11.38.02.16.36ZM169.62 193c-.09-.17 0-.3.15-.29s.08-.07-.18-.16l-.31-.09c-.28-.5-.48-.9-.31-.89s-.34-.94-.77-1.16c-.28-.14-.29-.19 0-.17 1.13.08-8-13.73-7.79-13.72s-3-6.47-3.62-6.57c-.46-.08.25-.06-.05-.8s-.38-1.39-.91-1.77c-.29-.22-.33-.3-.12-.28.62 0-4.53-8.53-5.57-10.08-.11-.16-.17-.24-.19-.24s-.21 0-.09.11.05.2-.11.33l-.12.09c-.27.16-.35.2-.34.16a2.17 2.17 0 0 0 .23-2.18c-.69-1.36-.56-.36-1-.65-.13-.08-.09-.19.07-.24s.17-.37-.21-1.11-1.24-4.72-1.76-4.65.16-.81-.44-1.3c-1.17-1 .12-1-.85-1.44-.32-.15-.37-.23-.14-.21.51 0 0-1-.65-1.21-.89-.3.54.14-1.31-3.1-6-10.43-4.09-5.75-4.79-7.13-.09-.17 0-.3.16-.3s.08-.06-.18-.15l-.32-.09c-.27-.51-.48-.9-.31-.89s-.34-.94-.77-1.16-.29-.19 0-.17c1.13.08-8-13.74-7.79-13.72s-3-6.47-3.62-6.57.25-.06-.05-.8-.38-1.39-.91-1.78c-.29-.21-.33-.29-.12-.27.62 0-4.53-8.53-5.57-10.08a1.43 1.43 0 0 0-.19-.25c-.17 0-.21 0-.09.12s0 .2-.1.33l-.13.09c-.26.16-.35.2-.34.15a2.15 2.15 0 0 0 .23-2.17c-.69-1.36-.56-.36-1-.65-.14-.08-.1-.19.07-.24s.16-.37-.22-1.12c-.31-.59-1.24-4.71-1.76-4.65s.16-.8-.43-1.29c-1.18-1 .11-1-.86-1.45-.31-.14-.37-.22-.14-.2s.18-.5-.16-.88a28.5 28.5 0 0 1-2.62 1.82 49.31 49.31 0 0 1 2.81 6.9c.16.63.26.75.4.51s.17-.2.15.06c-.15 1.61 1.31 1.82 1 2-.18.09.32 1.26.86 2.28.42.79.87 1.49 1 1.5s.27.08.07.18c-.37.19 0 .87.19.62a13.24 13.24 0 0 0 2.25 3.08c2.08 1.87 11.43 25.78 16.63 31.16.33 1.95 5 8 4.94 8-.29.33 2.9 6.07 3.74 9.34.16.63.26.76.4.51s.17-.19.15.07c-.15 1.61 1.31 1.81 1 2-.18.09.32 1.26.86 2.28.42.79.87 1.49 1.05 1.51s.27.07.07.17c-.37.19 0 .88.19.62a13.24 13.24 0 0 0 2.25 3.08c2.08 1.87 11.43 25.78 16.63 31.16.28 1.66 3.68 6.26 4.67 7.63.76-.44 1.62-1 2.49-1.52-.12-.26-.28-.56-.47-.9-6.11-10.41-4.23-5.73-4.93-7.12Zm-40-69.67c0-.12.37-.28.4-.23.54-.04-.45.49-.36.24Zm4.18 7.84c-.66-.06 0-.4.07-.34.65-.3.37.39-.03.35Zm5.2 6.53c-.42.21-.43-.52-.36-.38.08-.06.62.22.36.38Zm22 44.4c0-.13.37-.29.4-.24.4-.05-.59.49-.5.24Zm4.18 7.83c-.66-.05 0-.4.07-.34.51-.31.23.41-.17.34Zm5.11 6.52c-.42.21-.43-.51-.36-.37.07-.08.57.21.26.37ZM234.34 156c-.24-.21-.22-.29.08-.33s.3-.1-.07-.35c-.74-.51.32-.12-.63-1.43s-.55-2.12-.81-2-.58-.93-1.21-1.51c-.31-.29-.35-.45-.13-.56s.16-.33-.36-.94c-.91-1.06-.68-2.41-1.22-2.12-.35.18.07-.26-.07-.8-.31-1.12-.47-1.42-.68-1.31s-.22 0-.15-.31c.13-.64-1.44-3.36-2.18-3.8-.18-.1-.13-.18.13-.21.79-.09-1-1.14-.38-1.12.35 0 .16-.52-.31-.27-.69.37.24-.72-.3-1a6.22 6.22 0 0 1-1.31-2.57c0-.17-.24-.36-.55-.41-.55-.1-.56-.11-.09-.18s.41-.17.08-.67c-.64-.94-2-1.17-1-1s-.23-.94-.47-1.08-.23-.19 0-.17c.64 0-.6-1.63-.9-1.14-.08.13-.12-.07-.09-.45.06-.82-1.75-4.33-2.26-4.39-.21 0-.24-.08-.1-.15.3-.16-.32-1.5-.54-1.39s-.92-2-1.27-1.82a.2.2 0 0 1-.1 0 9.74 9.74 0 0 0-.33-1c.19 0 .17 0 0-.1-.38-1-.83-1.74-1.06-1.62s-.18-.07-.13-.32c.12-.6-.35-.26-.69-1.08-.18-.44-.31-.52-.49-.3-.32.39-.34-.21.13-.46.68-.36-1.52-1.7-1-2s-2.07-4.53-2.71-4.77c-.27-.11-.44-.24-.36-.28s-.05-.22-.28-.37a2.5 2.5 0 0 1-.64-1.39 9.29 9.29 0 0 0-1.19-.24 3.93 3.93 0 0 1-2-1l.19.35c0 .05 3.5 8.16 3.6 7 .06-.6.35 0 .2.3s1.16 2.9 1.41 2.76.24 0 .23.16c0 .43.38-.08.55.25s-1-.23-.09 1.22 1.67 1.44 1.43 1.85.67.4.64.88a.12.12 0 0 0 0 .12.59.59 0 0 0 0 .14c0 1.31 2.29 5.25 2.61 5.29.6.06-.5-.21.37 1.42s.77.4 1 .84-.76.85 0 .9c.26 0 .3.07.14.16-.33.17.5 1.76.71 1.39 0-.09 2.39 5.73 3.27 5.85.36.06.41.13.26.39s-.18.21-.17-.05c0-.42-.5-.35.49 1.47.55 1 .8 1.31 1 1.16s.25-.08.24.08c0 .47-.65.09-.38.6s.65-.06.62.41c0 .29 2.13 5.09 2.42 4.62.42-.67-.42 1.47.77 2 .29.13.33.18.11.17s-.21.11 0 .36c.52.57.37-.22.86.65s-.46.56-.28.75c1.58 1.65 1.7 3 2.36 3.44s.06 1.21.79 1.64.52 1.22 1.2 2.08a7.35 7.35 0 0 1 .95 1.67 32.16 32.16 0 0 0 1.15-3q-.06-.19-.09-.33c-.26-.75-.42-.14-.92-.58Zm-21.76-42.18c-.48.25-.2-.38-.17-.33.19-.33.46.17.17.33Zm16.57 31.62c-.2-.32-.07-.39-.05-.34.26.08.39.9.05.34ZM223.12 126c.43-.22-.29.86.73 1.58.73.52-.29.49.75 1.25s1.53 4.86 2.08 4.9.84 1.87 1.18 1.32c.2-.34.44.18.19.3s1 2.6 1.2 2.22c.09-.14.12-.07.07.17-.11.58.57 1.95.8 1.6s-.07.44.21.92.13 1.46.35 1.1.65 1.77 1.21 1.23c.24-.23.26-.2.08.22s-.12.54.19.66.32.15 0 .13-.27.1 0 .44a8.35 8.35 0 0 1 .83 1.16c-.4 0 .2.51.4.69.39.69.66 1.19.91 1.14l.16.24c-.14.2 0 .57.31.49.35.58.75 1.27 1.18 2a14.2 14.2 0 0 0-.49-2.21 15.66 15.66 0 0 0-.61-1.59c-.25-.55-.77-1.8-.81-1.89-.16-.39-.31-.77-.45-1.13a36.42 36.42 0 0 1-2.12-8l-.13-.17c-1.65-2.1-2-3.6-2.61-3.86-.38-.17-.42-.25-.26-.52s.14-.31-.15-.28-.31-.06-.22-.25a3.64 3.64 0 0 0-.59-1.57q-.66-.47-1.35-.87c-.17 0-.28 0-.22-.13-1-.59-2.08-1.12-3.1-1.6a1.31 1.31 0 0 0 .28.31ZM232.29 163.72a2 2 0 0 0-.34-1c.55-.7-1-2-2.65-4.67-.1-.16-.24-.14-.35 0s-.16.17-.08-.2c.19-.93-1.47-1.57-.94-1.86.25-.13-.44-1.47-.64-1.14s-.43-.09-.19-.34-1.21-3.37-1.45-3.24c-.07 0-.41-.47-.78-1.14-.93-1.72-1.84-1.33-1.16-1.45s-.74-2.19-.88-2.11c-.45.24-.92-2.48-1.22-2.32s-.65-1-.54-1.55c0-.24 0-.31-.23-.2s-.24.06-.14-.13a8.88 8.88 0 0 0-1.7-3.27c-.4-.11-.07-1.38-.4-.83s.12-.32-.74-1.38-.36-1.37-.95-1.61c-.23-.1-.3-.17-.15-.16s.15-.28-1.86-3.66c-.65-1.11-1.3-.92-.89-1.14s-.17-.14-.43-1.26-.22-.28-.73-.71-.5-.58-.07-.35c.23.12.33.11.25 0-.26-.48-.12-1.31-.46-.79s.26-.18-.56-1.1a6.77 6.77 0 0 1-.82-1.5c-.49-1.06-1-2.22-1.23-2.08s.48 0-.8-2.07-.34-1.27-.65-1.86c-.12-.21-.27-.2-.48 0s-.3.33-.12-.23c.23-.75.52-.33-2.63-6.47-2.25-4.37-3.26-5.71-3.67-6a1.72 1.72 0 0 0 0-.26c0-.42-.62-.11-.52-.65a2.16 2.16 0 0 0-.35-1c.55-.69-1-2-2.65-4.66-.1-.16-.24-.14-.35 0s-.16.17-.08-.2c.2-.94-1.47-1.57-.94-1.86.25-.14-.44-1.47-.64-1.14s-.43-.09-.19-.34a6.37 6.37 0 0 0-.8-2.25 22.82 22.82 0 0 0-4.18-.78c.07.15.07.32-.06.39-.29.15.14 1 .55.78s1 .15.59.14c-1.43-.06 2.1 5.48 2.72 5.64.82.22 1 1.62 1.91 2.25.78.53.38.85.72.67a.33.33 0 0 1 .41.17.85.85 0 0 0 .34.28 2.38 2.38 0 0 0 .28 1.16c0 .06 2.63 5.46 3.05 5.23s.23 1.37.47 1 .59.44.28.42.19 0 1.51 3.63c1.55 4.21 1.8 2.54 1.65 3.27-.11.58.66 2.45 1 2.46.2 0 .29.14.25.35-.15.8 1.94 3.79 1.79 4.57-.06.28 0 .34.22.22s.24-.07.15.12a.53.53 0 0 0 0 .34c.28.88 1.66 3.05 1.84 3.93.09.43.19.58.29.41.24-.4.59 2.24 1.7 2.67.76.29-.65-.27 1.24 2.74.95 1.5-.24 1 1.32 2.29.25.19.25.32 0 .45s0 .88.51 1.21c.34.21 1.27 2.43 1.49 2.31.53-.29.62 2.81 1.67 3.4a.27.27 0 0 1 .09.39c-.26.44.17.93.5.55.57-.65-.23.4.38 1.4s.09 1.17.79 1.62.72 1.62.91 1.3.53.36.23.36-.33.6 0 .44.63.47.35.62.14 1 .55.78 1 .16.59.14c-1.43-.06 2.1 5.48 2.72 5.64.82.22 1 1.62 1.91 2.26.78.52.38.85.72.67a.31.31 0 0 1 .41.17.85.85 0 0 0 .34.27 2.44 2.44 0 0 0 .28 1.17c0 .05 2.34 4.86 2.95 5.21.15-1.15.08-2.19.14-3.31v-.78c-.13-.1-.44-.05-.37-.44Zm-36.12-66.8c-.32.53-.3-.56-.17-.32.27-.14.38-.03.17.32Zm2.27 6.38h.08c-.07.13-.09.1-.08 0Zm5.67 11.88c0-.05.48-.11.51-.06 1.38.06-.3.45-.51.06Zm23.3 40.49c-.33.53-.3-.56-.17-.32.27-.14.38-.03.17.32Zm2.27 6.38h.08c-.07.13-.1.1-.08 0ZM214.55 184.43c-.28-.11-.45-.24-.37-.28s0-.22-.28-.37a1.86 1.86 0 0 1-.5-.95c-.4-1.29-.53-3.24-.86-2.68s-.1-1.17-.58-.92c-.2.11-.23.06-.09-.2s.09-.36-.12-.37c-.46 0-.52-1.27-.82-1.11s-.78-.7-.52-.83-.71-.88-1-1.66c-.11-.3-.25-.44-.32-.31-.15.11-1.15-1.81-1.54-2.9a2.59 2.59 0 0 1-.15-.5c-.08-.41-.17-.4-.32-.39a.57.57 0 0 1-.5-.18c-.24-.21-.22-.29.07-.32h.15c.14 0 .09-.12-.16-.3-.42-.29-.26-.29-.22-.48s0-.39-.41-1c-.88-1.2-.55-2.11-.82-2s-.52-.76-1-1.35a1.29 1.29 0 0 0-.16-.17c-.27-.24-.33-.4-.2-.51h.07c.24-.13.17-.33-.36-.94-.9-1.06-.67-2.41-1.21-2.13-.08.05-.12.05-.13 0a1.82 1.82 0 0 0 .06-.81c-.3-1.12-.46-1.43-.68-1.31s-.21 0-.15-.31c.13-.64-1.43-3.36-2.18-3.8-.17-.1-.13-.18.13-.21.79-.09-1-1.14-.37-1.12.35 0 .16-.52-.31-.27-.7.37.23-.72-.31-1a6.33 6.33 0 0 1-1.3-2.57c0-.17-.24-.36-.55-.42-.56-.1-.56-.1-.09-.17s.4-.18.07-.67c-.63-.94-2-1.18-1-1s-.23-.93-.48-1.07-.23-.19 0-.17c.64 0-.59-1.63-.89-1.14-.08.13-.13-.08-.1-.45.07-.82-1.74-4.33-2.25-4.39-.21 0-.24-.08-.1-.16.3-.16-.33-1.49-.54-1.38s-.92-2-1.28-1.83h-.09c-.09-.33-.21-.67-.33-1 .19 0 .17 0 0-.1-.38-1-.84-1.74-1.07-1.62s-.18-.07-.13-.32c.12-.61-.34-.26-.68-1.08-.18-.44-.32-.52-.5-.3h-.05c-.17.17-.23 0-.11-.21a.67.67 0 0 1 .3-.3c.68-.36-1.52-1.7-1-2s-2.07-4.52-2.71-4.77c-.28-.1-.45-.23-.37-.28s0-.21-.27-.36a1.86 1.86 0 0 1-.5-1c-.39-1.29-.53-3.25-.86-2.68s-.1-1.18-.58-.92c-.2.11-.23.06-.09-.2s.09-.36-.12-.37c-.46 0-.52-1.27-.81-1.11s-.79-.7-.53-.84-.71-.87-1-1.65c-.1-.31-.24-.44-.32-.32-.15.11-1.14-1.82-1.54-2.9a3.59 3.59 0 0 1-.15-.5c-.08-.41-.17-.4-.32-.39a.61.61 0 0 1-.5-.18c-.24-.21-.22-.29.08-.32h.14c.14 0 .09-.12-.16-.29-.42-.28-.26-.28-.22-.47s0-.39-.41-1c-.87-1.2-.55-2.11-.82-2s-.52-.76-1-1.36c-.05 0-.1-.11-.16-.16-.27-.24-.33-.4-.2-.51l.07-.05c.24-.12.17-.32-.36-.93-.9-1.06-.67-2.41-1.21-2.13h-.13a1.82 1.82 0 0 0 .06-.81c-.3-1.12-.46-1.43-.68-1.31s-.21 0-.15-.31c.13-.64-1.43-3.36-2.18-3.8-.17-.11-.13-.18.14-.21.79-.1-1-1.15-.38-1.13.35 0 .16-.51-.31-.26-.7.37.24-.72-.31-1a6.29 6.29 0 0 1-1.3-2.56c0-.17-.24-.36-.55-.42-.56-.1-.56-.1-.09-.17s.4-.18.07-.67c-.63-1-2-1.18-1-1s-.23-.93-.48-1.07-.23-.19 0-.18c.64 0-.59-1.63-.89-1.13-.08.13-.13-.08-.1-.46.07-.81-1.74-4.32-2.25-4.38-.21 0-.24-.08-.1-.16.3-.16-.33-1.5-.54-1.38s-.92-2-1.28-1.83a.15.15 0 0 1-.09 0c-.09-.33-.21-.67-.33-1 .19 0 .17 0 0-.1-.12-.3-.25-.59-.37-.84l-.87-.2a29.07 29.07 0 0 0-2.9-.45c.81 1.12 1.45 1.18 1.23 1.56s.67.4.63.87a.23.23 0 0 0 0 .13.57.57 0 0 0 0 .13c0 1.32 2.28 5.26 2.61 5.29.6.07-.5-.21.37 1.42s.77.41 1 .85-.76.84 0 .89c.27 0 .31.08.15.17-.33.17.49 1.75.71 1.39 0-.09 2.38 5.72 3.26 5.85.36 0 .42.13.27.39s-.19.21-.17 0c0-.42-.5-.35.49 1.46.55 1 .8 1.31 1 1.16s.24-.07.24.08c0 .47-.65.09-.38.61s.64-.06.62.41c0 .28 2.13 5.09 2.42 4.62.41-.68-.43 1.47.77 2 .29.12.33.18.11.17s-.22.11 0 .35c.51.58.37-.22.86.66s-.47.56-.29.75c1.59 1.64 1.7 3 2.36 3.44s.06 1.21.8 1.64.51 1.21 1.19 2.08c1 1.27 1 2.23 1.39 2 .22-.12.24-.07.08.21s-.07.45.61 1c1.1.82.69 1 .52.69s-.32.09-.15.58.55.68.77.17c.34-.79-.08-.08.39 1.36.23.69.33.83.37.51s.11-.35.19-.19c.25.46-.42.06.73 2.19 0 0 3.5 8.16 3.61 7 .05-.6.35 0 .2.3s1.15 2.89 1.41 2.76.23 0 .22.16c0 .43.38-.08.56.25s-1-.23-.09 1.21 1.67 1.45 1.43 1.86.67.4.63.87a.23.23 0 0 0 0 .13.61.61 0 0 0 0 .14c0 1.31 2.28 5.25 2.61 5.28.6.07-.5-.2.37 1.42s.77.41 1 .85-.76.84 0 .9c.26 0 .31.07.14.16s.5 1.76.72 1.39c.05-.09 2.38 5.72 3.26 5.85.36.05.42.13.26.39s-.18.21-.16 0c0-.42-.5-.35.49 1.47.55 1 .8 1.31 1 1.15s.24-.07.24.09c0 .46-.65.09-.38.6s.64-.06.62.41c0 .28 2.12 5.09 2.42 4.62.41-.67-.43 1.47.77 2 .29.13.33.18.11.17s-.22.11 0 .36c.52.57.38-.23.87.65s-.47.56-.29.75c1.59 1.65 1.7 3 2.36 3.44s.06 1.21.8 1.64.51 1.22 1.19 2.08c1 1.27 1 2.23 1.39 2 .22-.11.24-.07.08.21s-.07.46.61 1c1.1.82.69 1 .52.7s-.32.08-.15.58.54.67.77.16c.34-.78-.08-.08.39 1.36.23.69.33.83.37.51s.11-.35.19-.19c.25.46-.42.06.73 2.19 0 0 1.67 3.89 2.74 5.91a8.37 8.37 0 0 0 2.13-1.27 6.14 6.14 0 0 0 .45-.43 4 4 0 0 0-1.48-1.42Zm-44.46-83.31c.25.08.39.92 0 .34-.15-.32-.03-.4 0-.34Zm31.24 58.75c.25.08.39.92 0 .34-.15-.32-.03-.39 0-.34Zm-16.8-31.31c0-.12.09-.34.1-.3.2-.33.47.17.18.32s-.21.07-.25 0ZM217 175.66c-.35-.24-.38-.31-.14-.29s.13-.3-.41-1.16-1.85-4.86-2.15-4.37c-.08.13-.18 0-.24-.36s-.14-.51-.3-.25c-.38.63.25-.51-.41-.76-.34-.13-.35-.15-.07-.14s.25-.07 0-.26c-.5-.44-1.06.62-.64-.25s-2-5.18-2.24-5-.13-.05 0-.22c.37-.61-1.58-3-2.18-3.75-.43-1.09-.94-2-1.26-1.86s-.3.08-.2-.23c.21-.63-.12-1.07-.5-.68s-.28.26-.1-.14 0-.87-.89-2.57c-1.47-2.83-.52-2.35-1-2.41-.68-.08.27-.22-.61-1.33-1.66-2.1-2-3.6-2.61-3.86-.38-.17-.43-.25-.26-.52s.13-.31-.15-.28-.31-.06-.23-.25c.17-.38-1.22-2.87-1.41-2.55-.1.15-1.18.16-.59-.13s-1-2.79-1.17-2.72c-.41.21.41-.58-.87-1.73-.45-.41-.67-.72-.51-.7.37 0-1.07-2.47-1.47-2.54s.22 0 0-.79a1.44 1.44 0 0 0-.09-.24c-.49-1.07-.5-1.62-1-1.88-.31-.15-.31-.19 0-.17.85.06-1.5-3.45-1.63-3.25-.24.39 0-.65-.39-1s.41-1.07-.15-.8c-.24.13-.28.06-.19-.37s.08-.46-.1-.2c-.45.71.45-1-1.71-2.88-.92-.82.33-.09-1.26-2.72-1.37-2.26-1.4-2.67-2-3.07-.35-.24-.38-.32-.14-.3s.13-.29-.41-1.15-1.85-4.86-2.15-4.37c-.08.12-.18 0-.23-.36s-.15-.51-.31-.25c-.38.63.25-.51-.41-.76-.34-.13-.35-.15-.07-.14s.26-.07 0-.27c-.5-.43-1.06.63-.64-.24s-2-5.18-2.24-5-.13 0 0-.22c.37-.61-1.58-3-2.18-3.75-.43-1.09-.94-2-1.26-1.86s-.3.08-.19-.23c.2-.63-.13-1.07-.51-.68s-.28.26-.09-.14 0-.87-.9-2.58c-1.47-2.82-.52-2.34-1-2.4-.68-.09.27-.22-.61-1.33-1.66-2.1-2-3.6-2.61-3.87-.38-.16-.43-.25-.26-.51s.13-.31-.15-.28-.31-.06-.23-.26c.17-.37-1.21-2.86-1.41-2.55-.1.16-1.18.17-.59-.12s-1-2.79-1.17-2.72-.11 0-.11-.32a41.53 41.53 0 0 0-4.36-2.32 32.69 32.69 0 0 0 2.47 4c.43-.21-.29.86.73 1.59.73.51-.29.48.75 1.25s1.52 4.86 2.07 4.9.85 1.86 1.18 1.31c.21-.33.45.18.2.31s1 2.6 1.2 2.22c.09-.15.12-.08.07.17-.11.58.57 1.95.8 1.6s-.07.43.21.92.12 1.46.34 1.09.66 1.77 1.21 1.24c.25-.24.26-.2.09.22s-.12.54.19.66.32.15 0 .13-.27.09 0 .44a9.58 9.58 0 0 1 .83 1.16c-.4 0 .19.5.4.68.39.7.66 1.19.91 1.14l.16.25c-.15.2 0 .57.3.49 3.2 5.2 9.82 19 10.5 18 0-.06 3.25 8 3.55 7.55.09-.15.15-.13.14 0-.19 2 1.82 2.09.87 2-.58-.05.19.7.68 2.31.39 1.31.66.48.86.87.07.13 0 .25-.18.3-.69.19 3 6 3.1 5.94.44-.22-.28.86.74 1.58.73.52-.3.49.75 1.25s1.52 4.86 2.07 4.9.85 1.86 1.18 1.31c.21-.33.45.19.2.31s1 2.6 1.19 2.22c.1-.15.13-.07.08.17-.11.58.57 2 .8 1.6s-.07.44.21.92.12 1.46.34 1.09.66 1.78 1.21 1.24c.25-.24.26-.2.09.22s-.12.54.19.66.32.15 0 .13-.27.09 0 .44a9.58 9.58 0 0 1 .83 1.16c-.4 0 .19.51.4.69.39.69.66 1.19.91 1.14l.16.24c-.15.2 0 .57.3.49 3.2 5.2 9.82 19.05 10.5 18 0 0 .2.44.49 1.13a8.84 8.84 0 0 1 1.53-1.83 11.54 11.54 0 0 0-.58-1.07c-1.23-2.26-1.26-2.66-1.86-3.07Zm-35.22-61.8c-.33.53-.29-.58-.16-.33.28-.13.38-.01.17.33Zm5 5.49c-.63 0-.06-.36 0-.3.35-.22.32.33-.04.3ZM213 172.61c-.34.54-.29-.58-.16-.33.3-.13.41-.01.16.33Zm5 5.49c-.63 0-.07-.35 0-.3.37-.21.34.33 0 .3ZM223.23 176c-.14-.13-.19-.22 0-.26.47-.11 0-.86-.73-2.78s-.71-.89-1-1.49.45-.37-.22-.85 0-.4-.59-.66-.24-.48-.53-1.7-1.52-.92-.68-1 0-.3-.38-1c-.28-.53-1.2-.75-.63-.71s-.94-2.63-1.12-2.36 0-2.07-.81-1.7c-.19.09-.21 0-.07-.27s.13-.4-.12-.38c-.43 0-.63-.41-.24-.37.79.07-1-1.18-.76-1.52.35-.55-1.54-1.94-1.44-3.18.06-.79-1.46-2.14-1.17-2.28s-.19-1.39-.33-.66c-.07.36-2.45-7.19-2.64-5.5-.07.61-.19-.33-.77-.84s.38 0-.52-1.8c-4.62-9.4-4.61-8.23-4.38-8.6s.13-.31-.16-.28-.3 0-.07-.13a.18.18 0 0 0 0-.33c-.64-.43-2.71-5.43-3-5 0 0-.12 0-.24-.21a6.71 6.71 0 0 1-.39-.77c-.73-1.69-1.35-1.45-1-1.63.77-.37-1.49-1.64-1-1.57.62.08-5-8.67-5.07-8.72s-.69-.24-1.16-.18c-.14-.14-.19-.22 0-.26.47-.12 0-.86-.72-2.78s-.72-.89-1-1.49.45-.38-.22-.85 0-.4-.59-.66-.24-.48-.53-1.7-1.52-.92-.68-1 0-.31-.38-1c-.28-.53-1.2-.76-.63-.71s-.94-2.63-1.12-2.37 0-2.07-.81-1.7c-.19.1-.21 0-.07-.26s.13-.4-.11-.38c-.44 0-.64-.41-.25-.37.79.07-1-1.19-.76-1.52.36-.55-1.54-1.94-1.44-3.18.06-.79-1.46-2.14-1.17-2.28s-.19-1.39-.33-.66c-.07.36-2.45-7.2-2.64-5.5-.06.6-.19-.33-.77-.84-.41-.36 0-.17-.13-.81l-3.52-.22-.11-.13a2.79 2.79 0 0 0 .56.8c.31.3-.19.22.1.82.17.34 1.13.85 2.65 4.8.86 2.23.89 1.07 1.1 1.79 0 .06.43 2.12 1.18 2.5.3.16.31.2 0 .17-.46 0-.1.74.42.92.3.11.33.17.1.28-.5.24.7.48.41.62s1 .44.41.57c-.42.1-.17.9.49 1.57 1 1-.18 1 .85 1.85.3.24.49.56.41.68a13.13 13.13 0 0 0 2 4.15c.48.23.48 2 1 1.9s-.06 1.25.2.85 2.45 5.3 3 5.34c.2 0 .23.14.1.37s-.12.3.19.15c.54-.26.42.38.14.36s.09 1 .44.6.52.15.22.29 0 .8.3.68 1.09 1.8 1.89 2.59a104.43 104.43 0 0 0 5.76 10.39 25.06 25.06 0 0 0 3.25 4.63c.54.23.55.25.14.29s-.34.24.2 1.43c.85 1.88 1.2 3 1.59 3 .62.12-.84-.34 1 2.06.42.56.38.77 1 .48 1.24-.6-1.06.7.78 2.57.31.31-.19.22.1.82.17.34 1.13.85 2.65 4.8.86 2.23.89 1.07 1.09 1.8 0 .06.44 2.11 1.19 2.5.3.15.31.19 0 .16-.46 0-.1.74.42.93.3.1.32.17.1.27-.5.24.7.49.41.62s1 .44.41.57c-.42.1-.17.9.48 1.57 1 1-.17 1 .86 1.85.3.24.48.56.41.68a12.91 12.91 0 0 0 2 4.15c.48.24.48 2 1 1.91s-.06 1.24.2.84 2.45 5.3 3 5.34c.2 0 .23.14.1.37s-.12.3.19.15c.54-.26.42.39.13.36s.1.95.45.61.52.14.22.28 0 .81.29.68.38.27.65.74l.43-.2c.5-.22 1-.41 1.5-.6l.84-.31-.5-.79c-.25-.2-.83-.2-1.3-.2Zm-46.38-85.2c-.5 0-.22-.46-.2-.4.19-.27.52.42.2.4Zm2.72 4.77c-.61.29-.24-.26-.22-.21.2-.3.65.01.22.21Zm12.93 21.8c.63-.31.43 1.11.07.38-.13-.28-.1-.44-.07-.38Zm10.93 23.15c-.86-.19-.54-.39-.51-.33s1.53.55.51.33Zm4.66 9c-.5 0-.22-.46-.2-.4.19-.24.52.45.2.43Zm2.71 4.77c-.6.3-.23-.26-.21-.21.2-.27.65.04.21.24Zm13 22.19c-.13-.29-.1-.45-.07-.39.64-.28.44 1.15.08.42ZM225.17 163.48c-.09-.18 0-.3.15-.3s.08-.07-.18-.16l-.31-.09c-.28-.5-.48-.9-.32-.88.31 0-.33-1-.77-1.17-.27-.13-.28-.18 0-.16 1.14.08-8-13.74-7.78-13.72s-3-6.47-3.63-6.58c-.45-.08.25-.06 0-.8s-.38-1.38-.91-1.77c-.29-.21-.33-.29-.13-.28.63.06-4.52-8.52-5.57-10.08a1.36 1.36 0 0 0-.18-.24c-.17 0-.22 0-.09.12s0 .2-.11.33l-.12.09c-.27.15-.35.2-.34.15a2.16 2.16 0 0 0 .23-2.18c-.69-1.35-.56-.35-1-.64-.13-.08-.1-.2.07-.24s.17-.38-.22-1.12-1.24-4.71-1.75-4.65.16-.81-.44-1.3c-1.18-1 .12-1-.85-1.44-.32-.14-.37-.22-.15-.21.51 0 0-1-.64-1.21-.89-.29.54.14-1.31-3.09-6-10.43-4.1-5.76-4.79-7.13-.09-.18 0-.31.15-.3s.08-.07-.18-.16l-.31-.09c-.28-.5-.48-.9-.31-.88s-.34-1-.78-1.17c-.27-.14-.28-.18 0-.17.76.06-3.15-6.23-5.71-10.31a22.73 22.73 0 0 1-4.7-2.92c3.37 7.17 7.24 15.09 10 17.91.32 2 5 8 4.94 8-.3.32 2.9 6.07 3.74 9.33.16.64.25.76.4.52s.17-.2.15.06c-.15 1.61 1.31 1.82 1 2-.17.08.33 1.26.87 2.28a4.33 4.33 0 0 0 1 1.5c.26 0 .28.07.08.17-.38.19 0 .88.19.62a13.3 13.3 0 0 0 2.24 3.09c2.08 1.87 11.44 25.78 16.63 31.16.33 1.94 5 8 5 8s.14.7.54 1.59a9.69 9.69 0 0 0 2.11-2.43 8.55 8.55 0 0 0-.91-2c-6.17-10.35-4.31-5.68-5-7.05Zm-40-69.67c0-.12.38-.29.41-.23.53-.05-.46.48-.38.23Zm4.18 7.84c-.65-.06.05-.4.08-.35.64-.3.36.38-.05.35Zm5.11 6.51c-.41.21-.42-.51-.35-.37.16-.07.69.21.38.37Zm21.95 44.4c0-.12.38-.29.41-.23.53-.05-.46.48-.38.23Zm4.18 7.84c-.65-.06 0-.4.08-.35.64-.31.33.38-.05.35Zm5.11 6.51c-.41.21-.42-.51-.35-.37.16-.06.65.22.38.37Z"/><path d="M133.88 91.66c-9.58.37-25.36 3.81-29.17 17s-5.34 30.5-1.53 41.37a27.18 27.18 0 0 0 13.54 15.06 41.84 41.84 0 0 1 1.33 22.12c-2.67 11.82-6.29 20.21-20.59 26.69 0 0-6.1 29.17 10.11 47.47S143 280 157.71 276.4s27.83-15.63 33.17-29.74 4.2-31.46 4.2-31.46-16.59-4.76-21.93-17-6.86-30.69-7.05-38.89.38-16.78.38-16.78a13.94 13.94 0 0 0 13.73-2.86c6.67-5.72 9-16.58 5.91-21.16s-12.4-8.39-20.59 3.43c0 0-.2-11.25-8.2-19.83s-18.5-10.64-23.45-10.45Z" style="fill:#cc7d4b"/><path d="M113.26 122.25c-.08 1.52-.69 2.26-1.81 2.2s-1.65-.86-1.57-2.38.69-2.25 1.81-2.19 1.65.86 1.57 2.37ZM146 123.21c-.08 1.51-.69 2.25-1.81 2.19s-1.66-.86-1.58-2.37.7-2.26 1.82-2.2 1.57.86 1.57 2.38Z"/><path d="M111.25 138.21c.85-1.5 8.52.23 14.17 0s14.17-1.27 15 .58-3.68 9.56-11.06 10.94a16 16 0 0 1-14.63-4.38c-2.56-2.42-3.94-6.35-3.48-7.14Z" style="stroke-width:2.58px;fill:#fff;stroke:#c84b34;stroke-miterlimit:10"/><g style="mix-blend-mode:multiply;opacity:.52"><ellipse cx="148.77" cy="138.58" rx="7.36" ry="5.03" transform="rotate(-76.94 148.774 138.58)" style="fill:#f49b87"/></g><path d="M105.1 144.32c3.25-.76 4.34-3.56 3.24-8.31s-3.32-6.78-6.56-6a6.41 6.41 0 0 0-.7.21 66 66 0 0 0 .59 13.66 4.39 4.39 0 0 0 3.43.44Z" style="opacity:.37;fill:#f49b87;mix-blend-mode:multiply"/><path class="cls-15" d="M125.68 120.78c-1.43 1.14-4.86 2.72-6.29 3.57s-1.72 3-.58 4.72 4.58 4.15 4.58 4.15M178.59 124.5c-3.29 3-8.73 10.15-8.73 10.15M116.72 165.06c6.1 2.76 16.82 3.05 23.11 1.33"/><path class="cls-16" d="M108 110.44c2.53-1.34 9.63-2.77 14.11-.38M136.07 110.63c3.34-1.72 11-2.77 16.2 1.24"/><path d="M111.66 202.71c2.58 6.3 28.6 27.94 30 27.94s28-20.21 32.32-29.94" style="stroke:#ffdd97;stroke-width:.86px;fill:none;stroke-linecap:round;stroke-linejoin:round"/><path d="M142.84 233.22c0 1.95-.56 3.53-1.24 3.53s-1.24-1.58-1.24-3.53.55-3.53 1.24-3.53 1.24 1.58 1.24 3.53Z" style="fill:#ffe4af"/><path d="M219.22 348.53a8.22 8.22 0 0 0 1 .06 8.6 8.6 0 0 0 8.53-7.62c3.52-30.69 2.09-61.19-4.13-88.22a179.6 179.6 0 0 0-9.79-30.63c-5.42-9.82-21.57-12.93-23.71-8 3.61 5.29 11.21 18.51 16.74 42.51 5.78 25.15 7.1 53.65 3.8 82.41a8.6 8.6 0 0 0 7.56 9.49Z" style="fill:#a5bcc5"/></g></g></g></svg>