<svg xmlns="http://www.w3.org/2000/svg" viewBox="0 0 280 280"><defs><clipPath id="clip-path"><circle id="SVGID" class="cls-1" cx="140" cy="140" r="129"/></clipPath><style>.cls-1{fill:#fdd5c5}.cls-8{opacity:.41;mix-blend-mode:multiply}.cls-9{fill:#f49b87}.cls-10,.cls-12,.cls-13{fill:none;stroke-linecap:round;stroke-linejoin:round}.cls-10{stroke:#c5513d}.cls-10,.cls-13{stroke-width:.86px}.cls-12,.cls-13{stroke:#010101}.cls-12{stroke-width:3.44px}.cls-14{fill:#df6d58}.cls-16{fill:#fcc336}.cls-19{fill:#fcbf22}</style></defs><g style="isolation:isolate"><g id="Layer_1" data-name="Layer 1"><circle id="SVGID-2" data-name="SVGID" class="cls-1" cx="140" cy="140" r="129"/><g style="clip-path:url(#clip-path)"><path d="M49.44 211.45c17.46-10.72 41.1-21.16 57.59-22.26s45.09-5.5 67.08-3.3 30 6.87 30 6.87-9.62 168.52-18.41 195.46-.55-2.75-.55-2.75 7.14 86.32 6 97.86c0 0-42.33 14.85-95.11 13.2s-82.47-13.75-82.47-13.75 26.39-66 40.13-94-4.26-177.33-4.26-177.33Z" style="fill:#253f4c"/><path d="M105.93 151c.83 10.17 1.65 43.43 1.65 43.43s8.25 16 24.2 15.67 32.16-9.9 32.16-9.9-2.2-19.81-1.94-32.2 1.38-20.89 1.38-20.89Z" style="fill:#d98346"/><path d="M106.12 82.89C112 71 123.71 64.38 132.33 61.63s17.86-.5 19-2.33-4.31-7.94-6.5-21.86c-2.29-14.57 1.28-31.52 18.14-42.33s40-7.29 51.59 4.67c11.1 11.5 16.68 27.54 8.8 44C217 57 204.58 63.28 191.7 65.11c-9.34 1.33-18.69-.91-20.34 1.29s8.8 9.89 12.1 20.52 3.66 25.84-1.65 34.46-23.09 11.36-23.09 11.36Z" style="fill:#2b7e8e"/><path d="M138.1 74.14c-7.89-1.82-16.63 1.38-24.33 4.54a42.68 42.68 0 0 0-7.65 4.21s-6.05 12.83-7 20a12.54 12.54 0 0 0-9 11.36c-.73 9.35 5 13.2 6.42 14.3 0 0-.19 15.21 7.51 25.65s17.41 15.4 33.36 13.38 25.65-15 28.77-19.79c0 0 12.46 3.3 19.43-6.6s6.78-18 2.56-22.36-12.83 2.39-12.83 2.39-2.51-16.89-11.34-27.52-23.52-19.01-25.9-19.56Z" style="fill:#ef9657"/><path d="M115.12 109.11c-1 1.61-2.06 2.07-3.25 1.36s-1.32-1.9-.36-3.51 2.06-2.07 3.26-1.36 1.31 1.9.35 3.51ZM150.31 116.4c-1 1.61-2.06 2.07-3.26 1.36s-1.31-1.9-.35-3.51 2.06-2.07 3.26-1.36 1.31 1.89.35 3.51Z"/><g class="cls-8"><path class="cls-9" d="M106.4 136.27c-4.17 0-6.26-3.16-6.2-9.27s2.2-9.19 6.37-9.15 6.26 3.16 6.2 9.27-2.2 9.19-6.37 9.15Z"/></g><g class="cls-8"><path class="cls-9" d="M147.45 145.23c-3.44-2.36-3.42-6.13 0-11.15s7-6.39 10.4-4 3.42 6.12 0 11.15-6.97 6.36-10.4 4Z"/></g><path class="cls-10" d="M127.65 106.44a10.82 10.82 0 0 1-.82 7.7 43.15 43.15 0 0 1-6.33 8.93c-1.78 1.79-3.29 4-2.06 5.23s6.19 3.71 6.19 3.71M175.39 121.2c-1 8.47-5.77 20.89-9.16 26.57M184.28 126.51c-3.3 5.09-11 12.23-11 12.23M99.15 102.87a113.39 113.39 0 0 0-2.56 25.66"/><path d="M121.6 142.45c1.93 1.24 10.86-1.51 10.86-1.51" style="stroke-width:3.01px;stroke:#c5513d;fill:none;stroke-linecap:round;stroke-linejoin:round"/><path class="cls-12" d="M141.81 107.54c3.44-1.51 13.33-2.61 21.3 1.93M107.58 96.13c6.19-.55 11.69 1.93 16.91 6.33"/><path class="cls-13" d="M171.22 144.1c-.82 1.65-3 3.17-1.78 6.19s.68 4.67-.55 6.32-2.89 4.54-1 7.15a5.11 5.11 0 0 1-.13 6.73c-1.38 1.38-2.61 4.13-.55 5.78M95.35 123.35c0 2.47.14 4.67-1.79 5.77a4.79 4.79 0 0 0-2.75 4.54 4.41 4.41 0 0 1-2.47 4.12c-1.37.69-2.2 3.3-1.51 5.36s.27 4.54-1.51 5.22-2.48 3.17-1.38 5.09"/><path class="cls-14" d="M152.21 236.93c1.81.69 3.2 1.14 4.21 1.43 2.23-2.09.79-5.94-1.74-7.2a65.73 65.73 0 0 0-7.57-2.84 8.33 8.33 0 0 0 5.1 8.61ZM151.06 252.06a6.9 6.9 0 0 0-1.51 7.59 19.43 19.43 0 0 0 3.75 5.07 1.79 1.79 0 0 0 .47-.21c2.2-1.46 2.56-5.68-1.1-10.45-.54-.7-1.08-1.36-1.61-2ZM151.71 265.51a5.85 5.85 0 0 0-1.06 5.23c.51 2 2.32 3.8 3.8 5a3.8 3.8 0 0 0 1.33-4.62c-.49-1.32-2.26-3.55-4.07-5.61ZM153.4 281.37c-.27-1.1-2.11-3.3-3.87-5.22a4.41 4.41 0 0 0-1.44 4.58 13.85 13.85 0 0 0 3.27 4.95c2.16-.76 2.52-2.39 2.04-4.31Z"/><path d="M116.11 138.88c4.29-2.29 12.09 5.77 16.49 17.32s11.55 28.31 11.55 28.31a44.62 44.62 0 0 1 4.81-10c2.88-4.12 8.52-5.63 10.17-4.4s-1.79 9.21-1.79 14.57 1.65 18.42 4.4 24.33 6.18 21.44 7.15 28.32 20.34 109.82 20.34 109.82-6.19-83.71-5.77-89.48 1.65-22.27 8.24-39.59 12.37-25.29 12.37-25.29 36.7 15.81 49.07 54.16 12.79 87.42-2.47 129.48-45.77 62.64-74.67 62.23-49-21.85-53.16-54.43-10.72-128.65-14-132.78-21.21-25.79-23.41-30.37 0-9.17 1.65-10.45 3.66-2.75 3.66-2.75-3.48-5.31.37-10.45 12.83-1.09 12.83-1.09-12.1-11-9.35-18.7 12.83-3.3 17.23.55 9.35 9.71 11.73 8.62-2.57-14.48-5.87-25.11-8.26-19.25-1.57-22.82Z" style="fill:#f09d62"/><path class="cls-16" d="M122.15 153.59c4.31-1.57 3.46-7.37 2.17-11.24-3-3.17-6.06-4.62-8.21-3.47-3.31 1.77-3.77 4.76-3 8.62 1.99 3.95 4.75 7.65 9.04 6.09ZM157.36 185.81v-1.16c0-5.36 3.44-13.33 1.79-14.57-.69-.51-2.07-.54-3.65-.12-1.61 3.56-3.76 8.9-2.12 11.94a9.54 9.54 0 0 0 3.98 3.91Z"/><path class="cls-10" d="M144.15 184.51c2.47 6.33 4.67 15 7.28 20.35a58.5 58.5 0 0 1 3.85 10.44"/><path d="M157.62 263.69c-.83-6.6-6.6-16.5-6.6-16.5s7.42-2.47 7.42-5.77-4.95-6-15.67-8.8c-10-2.57-33.72-3-48.45.8 5.81 7.41 12.6 15.65 14.5 18 1.7 2.13 4.29 28.79 7 58.55 9.75-18.36 28-13.15 36.89-19.1 9.03-6.02 5.73-20.59 4.91-27.18Z" style="fill:#885850;opacity:.26;mix-blend-mode:multiply"/><path d="M49.44 211.45S21 224.24.37 270.42c-15.18 34-21.85 82.88-16.49 103.5s14.84 41.24 42.06 45.36 42.88-28.45 54.84-47.83 32.58-75.46 35.88-82.06 6.87-9.12 6.87-9.12a48.57 48.57 0 0 0 7-1.65c1.65-.73 6.78 1.47 9 2.57s7.7 5.31 10.82 4.76 3.66-2.38 3.11-4.58-7.33-8.79-7.33-8.79 4.58 4 6.6 3.84a3.84 3.84 0 0 0 3.11-5.31c-1.1-2.93-8.61-10.45-8.61-10.45s4.4 5.32 6.6 3.85 2.56-5.68-1.1-10.45a42.11 42.11 0 0 0-12.28-11.17 123 123 0 0 0-11.24-5.89s9.9 0 13.19 1.28 8.62 2.57 12.65.92 2.57-6.6-.37-8.06-14.66-5.5-22.35-6.42-22.55-.73-31.71 2.38-16.68 8.25-23.28 18.51-7.88 12.47-7.88 12.47a205.84 205.84 0 0 0-8.06-23.46 130 130 0 0 0-11.96-23.17Z" style="fill:#ed8f4c"/><path class="cls-19" d="M152.67 254.06q-.6-.76-1.2-1.5c-2.66.77-5.13 4.27-3.38 7.09a18 18 0 0 0 5.45 5l.23-.13c2.23-1.47 2.56-5.69-1.1-10.46ZM148.54 271.29c1 1.81 3.6 4.14 4.67 5a3.85 3.85 0 0 0 2.57-5.21c-.49-1.31-2.26-3.54-4.07-5.6-1.88.41-4.36 3.52-3.17 5.81ZM153.4 281.37c-.27-1.1-2.11-3.3-3.87-5.22-1.72.92-3.73 3.66-2.54 6.14a11.71 11.71 0 0 0 3.35 3.65c3.07-.56 3.66-2.38 3.06-4.57ZM154.68 231.16a73.57 73.57 0 0 0-9-3.29c.05 5.63 5 9 8.25 9.7a24.64 24.64 0 0 0 2.77.47c1.8-2.15.39-5.68-2.02-6.88Z"/><path class="cls-10" d="M129.21 237a59.25 59.25 0 0 0-13.38-4.86M149.55 263.05c-3.3-3.58-15-11.92-20.89-14.85a73 73 0 0 0-10.45-4.31M146.71 273.22a61 61 0 0 0-14-9.35c-4.31-1.92-9.62-3.57-13.38-3.57M69.46 258.1c-4.39 8.06-10.08 22.17-18 33.17s-24.92 30.05-32.62 44S5.32 362.74 5.32 375"/></g></g></g></svg>