<svg xmlns="http://www.w3.org/2000/svg" viewBox="0 0 280 280"><defs><clipPath id="clip-path"><circle id="SVGID" class="cls-1" cx="140" cy="-220" r="129"/></clipPath><clipPath id="clip-path-2"><circle id="SVGID-2" data-name="SVGID" class="cls-2" cx="140" cy="140" r="129"/></clipPath><clipPath id="clip-path-3"><circle id="SVGID-3" data-name="SVGID" class="cls-3" cx="500" cy="140" r="129"/></clipPath><style>.cls-1{fill:#fdcd61}.cls-2{fill:#df6d58}.cls-3{fill:#fcbf22}.cls-6{fill:#153745}.cls-7{fill:#ef9657}.cls-11,.cls-20,.cls-8{fill:none;stroke-linecap:round;stroke-linejoin:round}.cls-8{stroke:#b16333}.cls-11,.cls-20,.cls-8{stroke-width:.86px}.cls-11{stroke:#010101}.cls-15{fill:#eaa28d}.cls-20{stroke:#e27d67}.cls-25{fill:#e9e3cf}</style></defs><g style="isolation:isolate"><g id="Layer_1" data-name="Layer 1"><circle id="SVGID-4" data-name="SVGID" class="cls-1" cx="140" cy="-220" r="129"/><g style="clip-path:url(#clip-path)"><path class="cls-6" d="M96.22-199.33C98.79-174.88 93.65-49.62 88.07.58c-4.11 36.94-13.32 67.64-15 81.5-14.17-1.58-23.65-3-23.65-3l4.72-48.9S3.13 41.33-17 19.45-35.76-25.48-20.89-62c15.87-39 42.9-69.5 42.9-69.5-2.58-17.16 5.58-24.45 19.3-42s35.18-24.5 54.91-25.83ZM288.4 11.73c-23.16 49.34-66.92 50.62-66.92 50.62l-18 3.86v13.73s-3 1.77-18.48 3.58C183.5 50.07 179.14-57 182-99.8c2.77-41.21 8-70.68 12-83.44l.42.22c32.6 16.73 60 49.76 72.92 69.49S311.57-37.6 288.4 11.73Z"/><path class="cls-2" d="M185 83.52c-7.38.86-17.61 1.74-31.7 2.43-26.38 1.29-58.67-1.47-80.17-3.87 1.64-13.86 10-44.56 14.1-81.5 5.58-50.2 11.58-175.46 9-199.91l62.2 3A185.3 185.3 0 0 1 194-183.24c-4 12.76-9.25 42.23-12 83.44-2.86 42.8 1.5 149.87 3 183.32Z"/><path class="cls-7" d="M194.22 4.11c7.82.95 24.59 6.86 29.17 22.3s3.24 26.88-1.91 35.94a155.42 155.42 0 0 1-47.66 6.39C146.94 68.17 129 63 123.87 49.86s70.35-45.75 70.35-45.75Z"/><path class="cls-8" d="M143.7 39.38c4 4.57 20 3.81 20 3.81"/><path d="M24.34-16.08 140.68-85.5a25.94 25.94 0 0 1 27.43.55l76.44 45c3.34 2.18 2.39 11.24-.93 13.43L122.06 53.72a22.13 22.13 0 0 1-26.13-1.29L23.63-6.31a6 6 0 0 1 .71-9.77Z" style="fill:#e3d0bb"/><path d="m24.34-22.1 116.34-69.42a25.9 25.9 0 0 1 27.43.55l75.49 49.2a5.53 5.53 0 0 1 0 9.24l-124.26 82a17.7 17.7 0 0 1-20.92-1L23.63-12.34a6 6 0 0 1 .71-9.76Z" style="fill:#eee3d6"/><path class="cls-6" d="M41.88-43c7.63-3.62 25.74-9 25.74-9l16.59 73.17s-13.73 4.48-23.45 7.15-46.9-38.13-46.9-38.13l8.58-18.11Z"/><path class="cls-7" d="M65.91-51.18s28.88-9.16 43.18-13.45 48.33-14.58 65.21-12.29 23.7 13.15 28.31 19.44 4.86 17.73 2 21.17-2.57 2-2.57 2 0 5.15-2.58 7.43c0 0 .29 8-4.57 8.87s-5.44-.86-5.44-.86 1.15 6-3.72 5.72S166.86-18 166.86-18s-12.58 2.86-18 5.15S121.1 2 111.66 8 84.21 21.17 84.21 21.17a42.17 42.17 0 0 1-23.45-32.32c-3.43-24.02 5.15-40.03 5.15-40.03Z"/><path class="cls-11" d="M54.18 30.18c13.16-3.86 30-9 30-9"/><path class="cls-7" d="M195 14.4c-5.72-.57-12.58 3.81-20.21 3.43s-20.4-3-24 3.43 4.58 10.3 11.63 13.16 15.44 2.1 20.21 7.25c0 0 6.29-1.34 11.44-11.25S195 14.4 195 14.4Z"/><path d="M153.73 18.47a7 7 0 0 0-3 2.79c-2.66 4.76 1.05 8.08 6 10.64l2.57.8a8.76 8.76 0 0 0 5.34-7.81c.03-4.05-3.16-5.79-10.91-6.42Z" style="fill:#fcc336"/><path class="cls-8" d="M176.49 17.83c5.72-2.67 14.87-6.29 23.83-2.86M159.33 32.7c8.77 4 26.69 6.3 31.08 9.73"/></g><circle id="SVGID-5" data-name="SVGID" class="cls-2" cx="140" cy="140" r="129"/><g style="clip-path:url(#clip-path-2)"><path d="M193.73 81.31c2.75-4-.73-7.15-5.68-10.26S171.92 62.8 163.31 61c0 0-14.48-11.73-29-11.92S108.88 52.9 99.72 61 86 80 74.43 82s-22.73-.55-33.18-.91-18.14 6.27-24.19 18.73S5.15 120-5.48 121.63-35 124-41.95 134.46s-6.41 22-.73 28.59 5.68 7.88 1.28 12.28-21.44 12.09-13.6 29.5 21.07 16.31 34.45 17 19.61-2 19.61-2-36.29 15.21-23.46 32.26S20.54 249 20.54 249s-4 11.18 13.57 5.86S67.64 231 67.64 231l38.49-18.14 25.29 9.53 19.43-26.76 32.44-98.23Z" style="fill:#fdcd63"/><path class="cls-11" d="M163.31 61c-11.18-2.94-31.52-4.22-44.17 3.66M96.69 122.18c-9.62 28.86-.46 55 15.86 72M62.33 158.19c-13.47 23.37 4.12 42.34-5.5 62.4s-23.92 26.12-23.92 26.12M26.32 167.81c-9.9 26.12-39.59 34.91-61 31.62M86 97.44c-30 14.29-33.54-2.2-49.76 11C18.72 122.67 20 137.3.48 146.92c-18.6 9.17-28 2.47-28 2.47"/><path class="cls-15" d="M192.63 79.84c9.53 9.17 13.57 17.6 12.28 28.41s-6.23 14.48-6.23 18.33 3.48 7.14 6.23 10.08 2 3.3.19 4a70.85 70.85 0 0 1-7.7 1.83s-2.2 9.53-5 19.24-5.86 16.13-16.49 16.13-16.31-1.28-16.31-1.28-8.07 20.53-13.38 35.74a201.1 201.1 0 0 0-7.52 27.3l-32.57-26.72s11.73 1.28 14.66.73 4.95-2 2.38-4.4-9-9.71-10.62-15c0 0 8.06 5.13 21.44 4.77s16.86-6.05 17.59-8.8-8.43-8.61-15.39-20-8.8-22.72-7.88-26.94c0 0-11.73-6.59-10.45-19.61s11.73-16.12 17.78-13.19S145.9 120 147.18 122s10.59-1.48 16.86-8.89c6.05-7.15 7.79-13.38 15.12-21.45a69.88 69.88 0 0 1 13.47-11.82Z"/><path d="M188.65 126.32c-.33 1.67-1.13 2.41-2.37 2.16s-1.71-1.22-1.38-2.9 1.12-2.41 2.37-2.16 1.73 1.22 1.38 2.9Z"/><g style="opacity:.46;mix-blend-mode:multiply"><path d="M169.3 150.9c-3.86-1.14-5-4.6-3.31-10.27s4.49-8 8.35-6.82 5 4.61 3.32 10.27-4.49 7.92-8.36 6.82Z" style="fill:#f49b87"/></g><path d="M182.92 113.84a76.7 76.7 0 0 0 15.39-.73" style="stroke-width:2.58px;stroke:#010101;fill:none;stroke-linecap:round;stroke-linejoin:round"/><path d="M194.28 150.4a67.55 67.55 0 0 0-6.59-1.65" style="stroke:#e27b66;stroke-width:2.58px;fill:none;stroke-linecap:round;stroke-linejoin:round"/><path class="cls-20" d="M128.31 143.25c5.86 3.67 12.46 1.65 12.46 1.65M130 122c3.11 4.76 9 14.84 9 14.84M159.65 176.61a48.84 48.84 0 0 1-23.46-17"/><path class="cls-15" d="m233.87 290.69-63.78 9.62c-5.22-20.61-9.35-39.85-9.9-61.57s-1.37-25.71-4.26-31.07-7.28-12.78-3.57-18.14 9.48-1.1 12.51.82a14.87 14.87 0 0 1 3.87 3.79 15.09 15.09 0 0 1 .94 1.43c3.43 4.67 5.27 14 5.27 14 1-5.77 6.14-20.16 9.3-27.63 0 0 6.46-16.49 10.86-24.88s7-11.68 11-10.45 3.58 5.37 1.79 11-8.38 26.87-8 30.58 2.47 3.23 6.18 5.85a20.75 20.75 0 0 1 9.08 15.12c.68 6 0 20.2 3.57 37.8s15.14 43.73 15.14 43.73Z"/><path class="cls-2" d="M206.1 146.64a5.93 5.93 0 0 0-1.19-.23c-1.88 4.9-3.89 8.86-2.47 12.06a5.48 5.48 0 0 0 4.27 2.85l1.18-3.68c1.79-5.64 2.2-9.76-1.79-11Z"/><path d="M184.25 182c-3.16 7.47-8.3 21.86-9.3 27.63 0 0-1.84-9.35-5.27-14 0 0 .62-7.63 4.08-12.1 3.11-4.08 7.74-4.03 10.49-1.53Z" style="fill:#e7947f"/><path class="cls-2" d="M162.94 199.33c-.35-5.42-5.68-10.26-9.89-10.67a8 8 0 0 0-.69.87c-3.71 5.36.69 12.78 3.57 18.14.23.43.45.84.65 1.26 4.13-.77 6.75-3.57 6.36-9.6Z"/><path d="M65.63 242s-8.8-23.1-3.58-25.84 24.75-7.43 42.61-3 31.62 14.85 36 24.47L137.1 253s13.47 17 22 34.09 21.44 49.21 21.44 49.21l-10.45-36s15.4-7.42 32.44-9.34a154 154 0 0 1 31.34-.28s20.34 48.11 27.49 78.9 6.6 77.8-10.72 95.94-27.77 17.05-27.77 17.05-15.39 38.76-40.68 45.63-62.68 9.35-80.27 0c0 0-10.45-36.84-21.17-56.9s-28.32-57.46-34.09-96.22-5.77-54.71 0-85.77S65.63 242 65.63 242Z" style="fill:#e1dfcf"/><path class="cls-11" d="M65.63 242c10.86-12.79 21.58-15.26 21.58-15.26M137.1 253c-9.48-13.88-25.56-19.24-25.56-19.24"/></g><circle id="SVGID-6" data-name="SVGID" class="cls-3" cx="500" cy="140" r="129"/><g style="clip-path:url(#clip-path-3)"><path d="M488.73 339.47s18-12.19 52.14-5.59 41.51 22.81 41.51 22.81-8.52 64.06-42.61 102S459.5 495 438.06 490s-52.23-29.14-68.73-65.43a312.1 312.1 0 0 1-22-68.17L299 493.87s-46.19 5.5-81.92 5.5a366.06 366.06 0 0 1-65.43-6.05s2.71-87.42 26.9-169.32 68.18-129.75 101.16-154 79.18-31.33 84.12-33.53S382 126.05 382 126.05l24.19 18.69 25.57 50.86s16.21 12.92 21.71 44.26S479.29 368 479.29 368Z" style="fill:#ccc191"/><path class="cls-25" d="M277.83 174.4c0-.5 1.12.2.9-.17s.64-1.15.88-.91c.42.42 1.46-1.83 1.7-4.44l-1.6 1.15q-2.54 1.86-5.15 3.92c1.56.74 3.27 1.05 3.27.45ZM281.05 189.28c-.15 0-.27-.24-.27-.51s-.37-.59-.81-.7c-1.42-.36-.65-1.72-1.85-1.4-.67.19-3.87-1.56-6.18-.11-3.9 2.44-3.65 8.83-3.19 8.54.2-.13.24.09.1.56-.2.64-.13.74.35.56s.53-.15.17.27c-1 1.18 3.63 3.7 5.19 2.79.44-.26.54-.25.37 0s0 .39.29.39c.78 0 .34-.82.84-.53s.39-.48 1.39-.48 1-1.07 1.28-.86 1.71-.82 1.71-1.36c0-.27.15-.47.36-.47.54 0-.23-1.64.2-1.24 1 1.01.88-5.45.05-5.45ZM240.23 222.92c1.24 1.29 1.35.47 1.35.91 0 1.18 6.82-1.63 6.16-2.66-.28-.44 1 .32 1.37-.48.15-.4 0-.48-.56-.34s-.69.14-.17-.25c1.28-.95 5.2-9.6-3.21-9.6-1.54.28-1.91.58-1.24 1.05.41.29.4.32-.07.16-.7-.22-2.06 1-1.81 1.7.03.08-5.05 6.19-1.82 9.51ZM269.13 221.1c-.44-.27-.43.58 0 2.53.2.8 2.57 3.07 3 2.83.21-.13.26 0 .15.29-.61 1.56 3.64 1.21 3 .17-.12-.21.14-.14.57.15 1.22.8 2-.46 1.78-.47s0-.24.36-.52c.62-.47 2.48-9.11-2.83-13.16-2.58-2-2.45-.59-2.59-.59-.39 1-1.16-.62-1.93.16-.28.28-.23.33.2.16.88-.32.35.89-.33.63-.87-.34.09.93-.35.87-.91-.13-1.13.13-1.06 1.31.09 1.37-.7 4.37.1 5.41.33.4.31.45-.07.23ZM217.58 249.21c-.1-.16-.05-.27.14-.27a5.62 5.62 0 0 0 1.13-2.79c0-.14.06-.23.24-.23.41 0 .7-1.31.34-1.53s-.43-1.19 0-.49.46-.64-.23-1.41c-.53-.59-.52-.62.08-.39s.6.19.22-.28c-.73-.91-.3-2.68-2.05-3.72l-.23-.11q-3.57 5.56-7 11.53c2.51 3.15 7.9.57 7.36-.31ZM240.31 246.93c.27.94 2 2.3 2.49 2s-.24.57.94.88c.91.24 4.1-1 5.11-2a11.53 11.53 0 0 0 2.66-8.67 6.39 6.39 0 0 0-1.31-1.78c-4.42-4.78-11.73 3.2-9.89 9.57ZM274.49 240.16c-3.62 3.62-2.83 8.91-2.12 8.91.4 0 .43.07.1.29s-.3.39.13.75c1.19 1 2.82.32 1.82 1-1.31.86 2.53.46 3.59.38 2.3-.19 5.19-7.35 3.43-8.47-.24-.16-.22-.29.09-.41.47-.2-3.62-5.87-7.04-2.45ZM212.24 270.08c.2.15.17.24-.1.24-.72 0 .93 3.49 1.91 4s2.83.56 3 .09a.88.88 0 0 1 .81-.4c.74 0 2.39-1.58 2.12-2s.95-.54.69-1c-.11-.17 0-.35.22-.43.5-.17.79-5.31.3-5.31-.18 0-.25-.24-.15-.51s0-.44-.41-.28-.5.08-.36-.15c.27-.44-.73-1.5-1.17-1.23-.18.11-.3.08-.3-.08 0-.34-2.34-.4-2.54-.07a3.59 3.59 0 0 0-3.31 1.56c-.37.51-.44.75-.16.59s.22 0-.14.4c-.92 1 0 3-.47 2.69s-.34 1.6.06 1.89ZM279.61 274.18c.73.73 3.39-6.75.28-9.93-2.43-2.5-5.78-1.28-7.1 1.29-.86 1.66-.74 4.39-1.18 5.09-.11.17 0 .32.24.32s.31.08-.05.32c-1 .62.65.35.65 1.08 0 .19-.13.23-.34.11-.88-.54-.2.52.91 1.41 1.65 1.31 4.81 2.22 4.81 1.38 0-.49 1.12.2.9-.17s.64-1.14.88-.9ZM251 263.48c-.3.11-.53.07-.5-.1.31-1.64-.69-.51-.69-1.12s-1.58.11-1.77-.44-.29.05-.37.05c-.56.9-2.21-.35-4.47 2-.82.84-2.23 4.37-2 4.84.11.18.07.3-.11.3-.4 0-.48 2-.06 2s-.41 2 .27 1.55.1.43 1.16 1.43 4.33 1.16 5 .28a1.5 1.5 0 0 1 .9-.33c1.43-.12.06-.67 1.5-1.82s3.23-6.72 1.8-7.28c-.88-.33.34-1.73-.66-1.36Z"/></g></g></g></svg>