<svg xmlns="http://www.w3.org/2000/svg" viewBox="0 0 280 280"><defs><clipPath id="clip-path"><circle id="SVGID" class="cls-1" cx="140" cy="-220" r="129"/></clipPath><clipPath id="clip-path-2"><circle id="SVGID-2" data-name="SVGID" class="cls-2" cx="140" cy="140" r="129"/></clipPath><style>.cls-1{fill:#047889}.cls-2{fill:#153745}.cls-15,.cls-19,.cls-21,.cls-7{fill:none}.cls-21,.cls-7{stroke:#010101}.cls-15,.cls-19,.cls-21,.cls-7{stroke-linecap:round;stroke-linejoin:round}.cls-15,.cls-7{stroke-width:.86px}.cls-14{fill:#eaa28d}.cls-15{stroke:#c5513d}.cls-17{opacity:.41;mix-blend-mode:multiply}.cls-18{fill:#f49b87}.cls-19{stroke:#967353;stroke-width:3.01px}.cls-21{stroke-width:1.29px}</style></defs><g style="isolation:isolate"><g id="Layer_1" data-name="Layer 1"><circle id="SVGID-3" data-name="SVGID" class="cls-1" cx="140" cy="-220" r="129"/><g style="clip-path:url(#clip-path)"><path d="M53.34-227.53c-4.86 5.43-8.29 12-12 19.45s-7.72 19.45-4 28.88 11.14 12.3 10.57 21.2-12.58 56.88-17.73 79.18-12.59 47.19-2 64.35S51.91 7.27 51.91 7.27l38.9-66.93s5.72-64.63 8.29-86.08 6.58-37.18 6.58-52.33 4-24.6 4-29.46-4.57-6-9.44-2.86-46.9 2.86-46.9 2.86Z" style="fill:#f09c60"/><path d="M167.45-170.9c-21.16 3.43-39.47 13.15-54.34 41.18s-48 109.82-48 109.82l134.08 90.65S261 79.05 282.42 35c22.85-46.92 16.09-128.87 10.29-149.29-6.58-23.16-17.71-40-29.17-48.62-14-10.58-34-10.72-34-10.72Z" style="fill:#fcbf22"/><path class="cls-2" d="M255-167.47s-10.29-.86-18.87 13.44c-9.41 15.68-13.73 45.76-14.3 79.79-.54 32.07-.29 76.07-.29 76.07s-18.87-23.45-21.45-74.07c-1.9-37.45 3.38-70.52 11.16-86.08 8-16 18.52-18.16 29.74-16.59 16.26 2.29 14.01 7.44 14.01 7.44Z"/><path class="cls-7" d="M131.7-55.65c.72 28.17 2.43 57.34 2.43 57.34M193.76 2.55c21.16-.43 38-1 49.76.43"/><path d="M193.76 2.55s-72.93-3.86-78.93-8.15-14-12.3-21.74-16.88-16.87-6-19.16-8.29-8.29-10.58-11.15-10-4.58 8-4.58 8-6.86-.86-9.15 3.71a9.81 9.81 0 0 0 .29 8.87s-5.15.57-6.29 7.15 2.57 8.87 2.57 8.87-3.15 2-3.72 7.43 4 6.58 2.58 9.72-5.15 7.15 0 13.16S59.63 39.58 79.94 47A413.27 413.27 0 0 0 150 65c20.59 3.15 49.18 5.72 49.18 5.72S188.9 57.6 188 36.15s5.76-33.6 5.76-33.6Z" style="fill:#f1a36b"/></g><circle id="SVGID-4" data-name="SVGID" class="cls-2" cx="140" cy="140" r="129"/><g style="clip-path:url(#clip-path-2)"><path class="cls-1" d="M116.43 194.71c-15.06 6.29-51.5 17.9-79.69 44.61-32.61 30.89-62.35 85.8-78.94 126.41s0 73.78 30.32 76.64 52.05-21.16 52.05-21.16l36.6-88.66s0 111-.57 125.84c0 0 26.31 7.43 73.79 5.72s63.49-10.3 63.49-10.3-1.15-51.48-2.86-77.79 6.86-62.92 6.86-62.92l37.18 95.52s17.73 38.33 53.76 29.17 37.18-51.47 27.46-88.08-47-91.37-73.22-115.54c-37.17-34.32-86.55-43.09-86.55-43.09Z"/><path d="m183.61 192.79-2.5 5.74c-12.65 29.05-36.18 83.11-65.33 130.3-12.11 19.61-26.36 39.39-39.07 56-4.17 0-4.38 52.77-.21 52.78 14.88-17.92 44.16-54.53 67.08-91.65 30.42-49.14 54.52-104.59 67.49-134.38 1.31-3 2.48-5.7 3.53-8.08 2.4-6.86-28.6-17.58-30.99-10.71Z" style="fill:#010101"/><path d="M118.15 143.42c.19 13.73-.57 43.47-1.72 51.29 0 0 15.64 11.25 33.56 8.58s26.12-12.21 26.12-12.21-3.24-21.54-3.82-30.88S171 140 171 140Z" style="fill:#e58c76"/><path d="M106 110.89a72.7 72.7 0 0 1-2.62-19.49c.18-10.11 2.53-11.55 2.53-11.55l61-2.8s9.92.45 11.55 5.86 2 16.79 1.71 22-74.17 5.98-74.17 5.98Z" style="fill:#e1be9c"/><path d="M97.07 57.65C94 60.54 93.46 71.36 97.61 80s3.79 8.12 12.45 10.82 33-.54 33-.54l23.83-13.26s9.92 4.42 11.18 8.57a46.73 46.73 0 0 1 1.63 8.66s5.05-7.4 3.79-15.7S179 61.8 173.4 58.37s-15 1.62-15 1.62-6.49-9.92-20.57-8.3-13.35 3.61-21.66 5.06-19.1.9-19.1.9Z" style="fill:#eedbc8"/><path class="cls-14" d="M110.06 90.85s-3.79 16.52-4.06 20c0 0-10-6-14.35 1.08s3.25 18.41 10 21.93 11.35 2.47 11.35 2.47 8.93 23.55 17.32 27.88 22.47 4.06 27.7-.81c8-7.45 17.24-27.34 18.86-31.67 0 0 9.75-2.71 14.35-12.18s4.6-17.6-1.08-20-10 5.41-10 5.41-4.33-13-6.77-17.59a109.7 109.7 0 0 0-6.49-10.29s-9.48 5.68-18.14 6.5S135 82.19 130.09 86s-10 4.6-13.81 5.15a14.69 14.69 0 0 1-6.22-.3Z"/><path class="cls-15" d="M106 110.89c1 9.34 7 25.44 7 25.44M180.17 104.93c.27 9.48-2 23.69-3.65 27.34"/><path class="cls-15" d="M98.82 118.33c3 3.52 10.7 8.12 10.7 8.12M189.24 107.64c-1.9 3.79-9.61 10.28-9.61 10.28M144.44 108c.54 4.61 6.77 11.91 7.58 12.73s.67 2.43-1.09 3.65-6.22 2.44-6.22 2.44"/><path d="M129.41 133.62c.82-1.62 9.61.82 16 .41s12.31-2.44 13.94-.54-3.39 11-13.81 11.77-17.75-8.39-16.13-11.64Z" style="fill:#fff;stroke:#e3816b;stroke-width:1.72px;stroke-linecap:round;stroke-linejoin:round"/><path d="M127.65 112c.17 1.42-.28 2.2-1.33 2.32s-1.67-.54-1.83-2 .29-2.2 1.34-2.32 1.66.55 1.82 2ZM160.66 111.74c-.16 1.42.29 2.2 1.34 2.32s1.66-.54 1.83-2-.29-2.19-1.34-2.32-1.67.58-1.83 2Z"/><g class="cls-17"><ellipse class="cls-18" cx="121.78" cy="126.01" rx="5.13" ry="7.51" transform="rotate(-14.81 121.797 126.034)"/></g><g class="cls-17"><path class="cls-18" d="M166.42 132.05c3.29.87 5.6-1.14 6.88-6s.24-7.7-3-8.57-5.61 1.14-6.88 6-.29 7.7 3 8.57Z"/></g><path class="cls-19" d="M117.77 103.71c4.2-2.57 11.24-4.6 17.46-1.49M151.66 101.14c4.46-2.57 15.16-2.44 18.54.27"/><path style="fill:#e9dac9" d="M100.51 216.01h90.94V344.7h-90.94z"/><path class="cls-21" d="M124.96 235.32h44.62M130.97 263.63h28.31M132.68 276.07h27.89"/><path class="cls-14" d="M72 234.55c8.49-3.77 18.68-7.43 28.41-3.81s17.73 8.2 18.3 12.39-.57 5.91-.57 5.91 4.95 3.63 4.57 9.16-3.43 7.05-3.43 7.05 5.24 5.1 3 11.25c-1.54 4.32-3.62 5.15-3.62 5.15s5.72 7.05.76 12-13.73 1.14-16-2.86a37.76 37.76 0 0 1-9.73 3.81S88.4 322.26 80 346.85c-7.84 23-28.22 62.54-39.85 74.36 0 0-25.78-5.94-41.18-22.88-15.26-16.78-14.11-25.55-14.11-25.55s19.22-28.17 29.55-42.9 19.45-28.21 23.07-36.79 5.34-19.45 11.63-33.94S65.14 237.6 72 234.55Z"/><path class="cls-15" d="M118.15 249c-8.2-4.95-17.54-10.29-29.17-7.81M119.29 265.25c-9.06-6.34-13.54-9.34-20-10.49a33 33 0 0 0-11.63 0M118.72 281.65c-5.72-4.58-7.82-8.58-14.68-9.73s-17 1-17 1"/><path class="cls-15" d="M115.1 279.22c-2.58 2.57-3.72 8.29-1.58 10.72 3.42 3.87 4.87 4.43 4.87 4.43M113.09 261.63c-3.86 6.15 2.86 15.15 7.15 18.3M114.38 247c-2.72 5.72 4.29 14.73 6.44 16.16M112.52 236.75a10.13 10.13 0 0 0 .57 9.43"/><path class="cls-14" d="M170.86 248.19c-.61-4.48 6.3-11.73 11.44-14.59a57.07 57.07 0 0 1 9.15-4.15l.15-5s12.15-4.29 22.16.29 22.59 8.58 35.18 27.74 37.18 58.34 45.18 73.78S310.71 356 310.71 356s-6.29 27.17-23.74 38-32.31 14.58-32.31 14.58-20.59-35.17-30.6-60.91-16-39.18-17.45-42.9-12-16.59-12-16.59a114.78 114.78 0 0 1-11.3 5.58c-4.14 1.57-6.72 0-7.72-3.14a12 12 0 0 1 .29-6.73s-4.86-1-5.72-5.57 2.86-8.3 2.86-8.3-5-.71-5-5.43 6-12.15 6-12.15-2.58-.11-3.16-4.25Z"/><path class="cls-15" d="M191.45 229.45c6.15-2.71 17.88-2.86 21.45-2.14M174 252.48c6.15-5.29 23.45-13.16 32.32-11.73M173 270.06c5.43-6.14 21.59-14.15 31-14.58M175.87 283.93c1.71-7.29 20-16.15 28.88-16.15"/><path class="cls-15" d="M176.68 238.37a9.35 9.35 0 0 1 1.48 11.1M173 254.67c4 .28 7.25 3.05 6.39 7.05-.83 3.85-2.34 4.91-2.34 4.91M174.44 268.63c4.43-1.09 8.15 2.58 7.43 5.58l-.71 3M179.54 279c5-.43 8.2 2.76 6.91 6.67s-4.15 7.72-9.29 7.44"/></g></g></g></svg>