<svg xmlns="http://www.w3.org/2000/svg" id="Layer_1" data-name="Layer 1" viewBox="0 0 500 500"><defs><clipPath id="clip-path"><circle id="SVGID" class="cls-1" cx="250" cy="250" r="204"/></clipPath><clipPath id="clip-path-2"><circle id="SVGID-2" data-name="SVGID" class="cls-1" cx="770" cy="250" r="204"/></clipPath><style>.cls-1,.cls-10,.cls-5{fill:none}.cls-5{stroke:#010101}.cls-10,.cls-5{stroke-linecap:round;stroke-linejoin:round;stroke-width:1.36px}.cls-10{stroke:#e6907a}.cls-15{fill:#df6d58}</style></defs><g style="clip-path:url(#clip-path)"><circle cx="250" cy="250" r="204" style="fill:#fcc336"/><path d="M131.23 329.14c-22.54 16.8-61.88 32.37-95.48 55.31S-47 459.86-53.58 524.6s17.21 151.62 17.21 151.62l73.76-1.64S31.65 778.67 30 809.81s-8.19 70.48-8.19 70.48h253.26S295.55 693.43 298 672.12s73-68.84 73-68.84-7.38-95.07-30.33-140.15-65.57-94.25-86.87-111.87-122.57-22.12-122.57-22.12Z" style="fill:#2b4250"/><path class="cls-5" d="M100.09 626.23c-2.87-29.51-7-123.35-15.16-156.54M101.32 469.28c0 6.56-6.15 41-9 47.54M318.5 483.21c.82 14.35-15.16 103.68-15.16 103.68M333.25 498c-2.45 11.47-14.34 31.14-20.48 38.51"/><path d="M352.52 155.38c-11.48 7.79-32.38 11.07-32.38 11.07a2 2 0 0 0-.2-.19c-1.34-1.26-9.1-8.38-16.19-12.1-7.78-4.1-27-10.25-29.91-7.38s-14.35 22.95-18 29.92-2.05 23.76-2.05 23.76h-9.43c-.82-5.32-6.14-25.4-17.21-30.73s-25 .82-31.55 13.93 3.69 33.6 3.69 33.6c-4.1 6.15-22.13 14.35-22.13 14.35s-5.33-32.38-4.92-47.13 2.46-36.88 20.49-58.6 45.07-16 45.07-16c9.43-13.11 24.59-15.57 37.7-14.34s27.46 8.6 38.53 9.83 21.71-6.14 29.09-2.46-.82 16.8-.82 16.8 16.8-5.73 20.9.42-5.74 14.33-5.74 14.33 6.56-.82 8.2 2.87-1.66 10.27-13.14 18.05Z" style="fill:#d7a77c"/><path d="M319.05 212.58c.38-1.67.74-3.26 1.09-4.74 3.38-14.24 1.95-32.59-.2-41.58-1.34-1.26-9.1-8.38-16.19-12.1-7.78-4.1-27-10.25-29.91-7.38s-14.35 22.95-18 29.92-2.05 23.76-2.05 23.76h-9.43c-.82-5.32-6.14-25.4-17.21-30.73s-25 .82-31.55 13.93 3.69 33.6 3.69 33.6c-4.1 6.15-22.13 14.35-22.13 14.35s-12.3 34.83-23.77 60.64-22.13 36.89-22.13 36.89a112.34 112.34 0 0 0 20.49 30.73c13.93 14.75 38.52 32 70.48 29.51s31.56-38.12 31.56-38.12-7-12.29-7.38-21.31 11.89-36.06 11.89-36.06c18.84-.4 32-7.79 42.61-25.81 5.29-8.95 9.17-20 12.18-30.81 4.92.66 16 1.89 16.92-.34.99-2.44-6.82-17.01-10.96-24.35Z" style="fill:#fdece1"/><path d="M298 208.86c-1 2.73-2.57 3.73-4.59 3s-2.53-2.53-1.51-5.26 2.57-3.73 4.59-3 2.56 2.54 1.51 5.26Z"/><path d="M286.74 184.07c5.95-2.25 17-3.69 25.82 3.07" style="stroke-width:4.08px;stroke-linecap:round;stroke-linejoin:round;stroke:#010101;fill:none"/><path d="M265.72 241.41c-5.64-1.82-7.16-7-4.49-15.22s6.89-11.55 12.54-9.73 7.16 6.95 4.49 15.22-6.89 11.55-12.54 9.73Z" style="fill:#f49b87"/><path class="cls-10" d="M217.29 187.76c3.27 7.58 7 23.77 7 23.77M199.26 217.26c4.09 6.76 15 12.91 25.2 10.25"/><path d="M296.37 241.85c3.69 2.05 10.86 5.94 12.5 6.35" style="stroke:#e6907a;stroke-width:4.08px;stroke-linecap:round;stroke-linejoin:round;fill:none"/><path class="cls-10" d="M258.27 293.89c-11.48.41-21.72-5.73-21.72-5.73"/><path class="cls-5" d="M252.53 116.87c7.37-9 32.37-8.61 53.27-2.46s29.91-2 29.91-2M262.77 125.74c7.92-6.55 26.23-4.64 38.79-.27s24.32 6.83 41.26.27M276.16 137.22c11.2-5.74 20.72-.88 36.88 2.46 17.21 3.55 30.32-.28 38.52-4.37M301.29 152.24c10.11 1.92 38 3.83 54.37-8.19"/></g><g style="clip-path:url(#clip-path-2)"><path d="M684.75 558.56s-17.32-68.51-23.75-85.28-11.48-36.95-14.21-47.2c-3.18-12-35-41.9-41-49.86s-11.36-13.48-16.78-9.1-3.11 17 1 25.4 26.22 31.14 21 35c-1.89 1.39-14.89-5.81-25.63-19s-29-34.19-35.68-40.53-12.34-4.84-15.18.31 6.48 18.41 10.67 24.7 15.15 17.59 13.39 18.47-12.44-10.64-18.94-18.06-18.64-22.7-25.11-17.18-2.31 14 2.81 21.56 24.64 27.58 23.38 28.8-12.81-7.66-17.89-13.25-17.28-18.13-21.18-17.79-7.35 3.76-5.28 9.25 11.55 17.69 15.14 22 18.88 18.6 17.66 19.55-8.78-4.67-15.35-9.35-18.88-14.2-23.62-9.28 1.09 13.53 10.34 23c9.76 10 26.26 24.46 34.7 33 9 9.11 24.5 22 32.6 29.95a59.64 59.64 0 0 1 15.72 28.39c2.65 11.89 6.55 46.8 6.55 46.8s25.38 6.19 52.28-2 42.36-28.3 42.36-28.3Z" style="fill:#ef9b5f"/><path d="M701.44 531.3s-25.68-65.84-34.15-81.69-16-35.24-19.94-45.07c-4.65-11.48-7.93-26.77-9.56-36.61s-3.83-17.21-10.66-15.84-10.65 13.65-10.93 22.91 7.38 33.88-1.64 39.62c-2 1.26-18-8.2-30.32-19.95s-33.06-30.32-40.43-35.78-12.84-3.28-15 2.18 8.74 17.48 13.66 23.22S559.65 399.89 558 401s-13.66-9-21-15.58-21.31-20.21-27.05-13.93-.54 14.21 5.47 21 27.86 24.31 26.77 25.68-13.66-6-19.4-10.93-19.39-15.85-23.22-15-6.83 4.65-4.1 9.84 13.64 16.12 17.74 19.92 21 16.12 19.94 17.21-9.28-3.55-16.39-7.37-20.49-11.75-24.58-6.29 2.75 13.3 13.11 21.59c10.93 8.74 29.09 21 38.52 28.41 10.11 7.92 27 18.85 36.06 25.68A59.66 59.66 0 0 1 599 527.47c4.1 11.48 12.3 45.63 12.3 45.63s26 3 51.63-8.47 38.51-33.33 38.51-33.33Z" style="fill:#f2ab77"/><path class="cls-15" d="M492.18 425.57c-2.59 3.45-.82 7.83 3.44 12.68a8.48 8.48 0 0 0 8.1-1.82c3.06-3.06.76-8.65-3.62-12.22-3.42-.85-6.36-.73-7.92 1.36ZM498.18 406.07c3.32 1.24 7 .77 8.82-1.19 2.4-2.56 1.16-6.66-1.29-10.36-2.67-1.58-4.93-2.54-6.16-2.28-3.82.82-6.83 4.65-4.1 9.84a29.58 29.58 0 0 0 2.73 3.99Z"/></g></svg>