<svg xmlns="http://www.w3.org/2000/svg" viewBox="0 0 500 500"><defs><clipPath id="clip-path"><circle id="SVGID" class="cls-1" cx="250" cy="-270" r="204"/></clipPath><clipPath id="clip-path-2"><circle id="SVGID-2" data-name="SVGID" class="cls-1" cx="250" cy="250" r="204"/></clipPath><style>.cls-1,.cls-15,.cls-16,.cls-18,.cls-6,.cls-9{fill:none}.cls-4{fill:#2b4250}.cls-15,.cls-6{stroke:#010101}.cls-15,.cls-16,.cls-18,.cls-6,.cls-9{stroke-linecap:round;stroke-linejoin:round}.cls-18,.cls-6,.cls-9{stroke-width:1.36px}.cls-7{fill:#ef9657}.cls-8{fill:#2b7e8e}.cls-9{stroke:#c5604e}.cls-10{fill:#fcbf22}.cls-13{fill:#047889}.cls-15{stroke-width:6.8px}.cls-16{stroke:#e27e68;stroke-width:2.72px}.cls-18{stroke:#e16a2a}.zero{fill:#fff}</style></defs><g style="isolation:isolate"><g id="Layer_1" data-name="Layer 1"><g style="clip-path:url(#clip-path)"><path class="cls-4" d="M355.29 233.85c-67.18 15.21-175.28 14.63-243.53-.33 3.35-21.9 6.37-44 7.8-62.35l107.37-25.41s121.29-7.38 122.07 19.67c.4 11.71 3.21 40.06 6.29 68.42Z"/><path d="M295.5-165.13c10.1 6.83 34.69 12.57 57.64 22.81s76.22 52.86 97.53 136.46 14.75 143.42-23.77 176.21S304 194.11 281 189.2s-43.44-11.48-43.44-11.48l-26.64-9.63s-51 33.19-106.95 24.59-86.04-41.18-93.41-104.5 19.38-130.74 44.87-166c33.81-46.71 63.31-55.93 80.52-66.38s35.65-19.67 35.65-19.67Z" style="fill:#c7c4a4"/><path class="cls-4" d="M333.26-79c-2.15-25.34-.05-56.83 2.15-70.4-16.89-6.18-32.41-10.6-39.91-15.73 0 0-5.88 36.95-29.24 50.47s-47.07 7.73-63.38-3.48c-13.11-9-31.64-32.66-35.45-43.56-6.42 3.32-19.26 10.12-31.48 17.54-3.1 1.88-6.61 3.73-10.46 5.76 5.31 18.41 9.85 47.1 9.23 85.21-.45 28.38-14.13 79.29-14.13 79.29l80.93 25.82 28.27-6.56s27 13.93 38.11 36.88a128.42 128.42 0 0 1 11.32 38.63l57.12-23.47 18.44-71.91S335.72-50.12 333.26-79Z"/><path class="cls-6" d="M313.08-62.52c11.34 14.88 34 50.31 2.83 83.61M225.08-53.19c16.6 20.28 35 49.17.62 89.74"/><path class="cls-7" d="M229.79 45.36c16-4 44.12-12.7 68.71-16.53s56.28-3.34 56.28-3.34 6 25.75 8.19 35.85 7.93 26.5 7.93 26.5-32.79 11.48-51.64 20.76-40.43 21-40.43 21-3-28.41-14.21-48.35-34.83-35.89-34.83-35.89ZM201.52 51.92s-17.76-18.17-40.71-25-43.43-8.74-67.48-.55A98.48 98.48 0 0 0 50.72 55c-4.31 5.12-13.94 17-8.81 22.13s16-6.76 16-6.76-7.38 9-10.25 15.57c-2.5 5.73-2.67 10.89.82 12.7 5.13 2.67 13.73-8.19 13.73-8.19s-8.4 11.47-2.87 14.75 17.42-9.83 17.42-9.83-8 9.22-2.67 13.11 15.78-5.53 23.77-12.91 28.69-18.24 50.61-26.64 53.05-17.01 53.05-17.01Z"/><path class="cls-8" d="M80.36 108.68c3.11-4.15 4.39-9.51 1.36-11.28-2.42-1.41-5.52-.13-7.75 2-1.65 3-2.92 6.9.1 9.11 1.67 1.18 3.85 1.09 6.29.17ZM69.16 99.73c1.77-3.56.27-6.42-2.73-7.65-2.43-1-5.3 1.13-7.25 3.42-1.7 3.51-2.93 7.87.14 9.69 2 1.15 4.69.27 7.41-1.35a40.47 40.47 0 0 0 2.43-4.11ZM41.91 77.12c2.57 2.58 6.6.85 10-1.51 1.75-3.35 1.3-8.59-.89-10.17S45.61 64 43.2 65.3c-2.58 4.49-4.01 9.11-1.29 11.82ZM56.9 95.82c2.82-5 2.63-10.26-1.27-12.21-3-1.52-6.3.57-8.39 3.31-2.11 5.32-2.07 10 1.22 11.71 2.46 1.28 5.72-.55 8.44-2.81Z"/><path class="cls-9" d="M57.89 70.36c4.85-6.15 15.23-15.16 22.47-18.44M62.19 90.44c5.46-7 10.79-14.21 17.89-20.22A53.47 53.47 0 0 1 91.29 63M76.74 95.36c5-6 14-15.44 21.38-20.63"/><path class="cls-6" d="M370.9 87.84c25.1-8.84 45.35-8.26 45.35-8.26M408.87 64.83c-11.68 1.23-30.12 7.37-40 16M278.83 129.64c-18.1 11.41-49.45 29.23-67.89 38.45"/><path class="cls-10" d="M363.8 308c-82.44 13.24-171 11.75-263.91 0 2.76-18.86 7.58-46.49 11.87-74.51 68.25 15 176.35 15.54 243.53.33 4.03 37.11 8.51 74.18 8.51 74.18Z"/></g><g style="clip-path:url(#clip-path-2)"><circle cx="250" cy="250" r="204" style="fill:#e9dac9"/><path class="cls-10" d="M468.52 619.58a25.43 25.43 0 0 0-11.73-17.3c-4-28.9-12.4-80.87-24.31-114-17.21-47.94-32.37-67.61-51.22-88.1s-72.94-54.91-78.68-62.29-15.57-26.22-26.22-29.5-86.06-4.51-86.06-4.51c-9.83-1.23-8.19 17.62-56.55 38.11C97.3 357.41 21.88 394.82-18.69 493.17s-41.8 146.29-38.11 172.11c0 0-9.16 24.31 2.46 52.86C-35.49 764.45 7.54 764 7.54 764l37.7 2.05s-18.44 50.4-14.75 57.78 134 68.84 145.06 70.07 40.57-67.61 40.57-67.61 2.46 62.69 12.29 66.38 95.89-23.36 95.89-23.36l11.07-116.78 12.29-99.38L430 631.31c4.7 20.69 11.72 42.24 20.5 40.69 16.59-3 22.02-31.4 18.02-52.42Z"/><path class="cls-13" d="M340.44 404.15c1 .16-.46.65.1 2.11a.71.71 0 0 1 0 .5c-.19.29.31.33.13.61s.25-.14.11.89c-.08.56-.06.65.13.43s.2-.22.06.1-.64 3.82 0 3.6c.44-.15-.16.8.3 1.21s1 .22.92-.1c0-.13 0-.21.09-.19a2.41 2.41 0 0 0 1.47-.63.29.29 0 0 1 .38-.15c.5.23 4-1.72 4-2.39 0-.05 2.27-1 1.82-1.76-.3-.53.26-.64.11-.41-.38.57.87.39 1.26-.2.25-.39.43.12.63-.43s.67.22 1-.55c.24-.59 0-.72.44-.57.23.09.2 0-.58-.7.22.07 1.08.37.66.05s-1.28 0-2.37-.68c-.57-.35-1.1-.2-1.25-.46s-.67.1-.65-.23-.69 0-.84-.23-3.14-1-3.86-1.29-.75-.31-.61-.07-.42 0-.77-.26-1.42.2-1.82 0c-.81-.35-1.3 1.74-.86 1.8Zm10.61 1.27c.25 0 .23.44 0 .28-.41-.27 0-.33 0-.28Zm-8.52 5.58a.87.87 0 0 0 .3-.84c0-.32 0-.59.09-.59a28.65 28.65 0 0 0-.25-3.36c0-.61-.4-.33-.17-.67a1.85 1.85 0 0 0 .12-.75c0-.71.22-.4.88-.58.29-.08.3-.06.07.09-.65.43.94 0 1.28.62.21.38 1 .2 1.58.47 1.29.62 1.38.64 1.52.43s.18-.09.29.12c.21.44.66.26 1 .52s-.14.29-.45 1c-.08.18-.2.29-.26.23s-.82.45-.74.62-1.19.32-1 1.31c.07.32-.21-.41-.87.07s-.28.66-.92.79-2.46 1.64-2.44 1.23-.56-.32-.03-.71Zm-1.78.58c0-.42.19-.08.19 0 .47.74-.21.53-.19-.03Zm.54-7.63c.22-.12.19.47 0 .34s0-.42 0-.37Zm0 2.07c.4-.13.09.27-.13.26-.39-.05.17-.34.17-.28ZM387.45 407.67c-.17-.27-.75.11-1-.38s-1.15-.8-1.44-.63a.2.2 0 0 1-.27-.13c-.3-.83-1-.26-1.35-.74s-.49 0-.78-.39c-.79-1.17-2.9-1.28-3.2-1.43-.66-.3-1.82.85-1.2 1.18.09.05 0 .16-.13.26s-.24.17 0 .19.3 0 0 .2c-.5.28.27.36-.07.77s.09.06.12 1.15.47.94.2 1.27-.16.27.17.4.3.15.1.15c-.47 0 .33.76.05.91s.93 1.86.39 1.84.46.93.16 1.1c-.09.06-.08.14 0 .2a.12.12 0 0 1 0 .22c-.29.16.45.67.15.66s-.09.32.23.33c.17 0 .2.11.12.29s-.07.28.11.25c.49-.07.44.76.82.32s.07.23.42.23c.12 0 .15-.12.05-.29s-.09-.25.1-.16c.37.19 1.72-.64 2.28-.71.24 0 .31-.12.22-.27s0-.19.09-.13c.88.38.83-1.3 1.05-.92.11.2 1.39-.75 1.35-1 0-.11.05-.17.17-.17a7.27 7.27 0 0 0 2-2.14c-.19-.32.3.08.6-.67.1-.25.09-.33 0-.19s-.14.07-.07-.32v-.11l-.22-.27a3.26 3.26 0 0 1-1.22-.87Zm-7.06-2.5c.41.62-.4.34-.25.25-.2-.36.02-.58.25-.25Zm-.59 7.3s-.51-.17 0-.1c.21 0 .39 0 .42-.11.08-.26.55.6-.42.21Zm4.55 1.26c-.26-.14.12-.35.24-.14.21.41-.28.17-.24.14Zm0-.62c-.12-.2.07-.63.27-.28.25.5-.43.35-.3.28Zm3.95-4.36c-.37.46-.51.24-.47.21-.3-.47.88-.77.44-.21Zm-.81.87c-.33-.05-.88.23-.79.4s-1.9 1.11-1.55 1.3-4.08 2.26-3.5 1.93c-.65.12-.41-.32-.65-.78-.16-.3.65-.11-.22-1.28-.19-.26-.21-.41-.06-.43.3-.05.11-.82-.2-.83s.6-1.41-.35-1.78c-.63-.24.23.11.3-.54s.3.16.8-.13c.28-.16.33.07.5.33s1.31.21 3.16.73c1.45.4 1.81.27 1.89.21-.09.25 1.52 1.01.64.87ZM386.79 408.75ZM320.58 370.44c.13-.24 2-.07 2-1.4a1.08 1.08 0 0 0-.18-.69c-.1-.09-.11-.19 0-.22.6-.18-1.74-1.34-1.77-1.37a6.93 6.93 0 0 1-.72-.26v4.4a1.11 1.11 0 0 0 .67-.46ZM348.75 451.44c-.31.35 3.2 5.75 3.82 5.77.26 0 .53.52.24.32s-.51.49.36.09c.29-.14.34-.12.25.09-.22.49.78.14 1.05-.37.63-1.2.95-1.5.61-1.52s.88-.85.77-1.21.3 0 .44-.5 1-1 .69-1.18-.26-.49 0-.31.78-.47.68-.79c0-.14 0-.21.15-.18.32.09.06-.42.36-.4s-.4 0 .93-1.33.43-1.17 1-1.34.14-.51.81-1.35.13-1 .51-.93.11-1.95-.5-1.62c-.46.26.33-.5-1.5-.52-1.66 0-1.13.35-1.58.16-.18-.08-.28 0-.3.23s0 .33-.15 0c-.19-.55-1.51-.46-1.52-.28s-.1.08-.22-.06c-.27-.29-1.16-.35-1-.06s-.17-.09-.72-.11c-.1.09-7.15 1.13-7.17 1.59 0 .7-2.12-.95 1.13 4.55.84 1.46 1.18.89.86 1.26Zm7.25 2.46c-.16.37-.35.15-.16-.12.36-.48.23.12.16.12Zm.81-9.48c.29 0 .29.1.24.1s-.73-.1-.21-.1Zm-7.8 3.05c2.64 0 4.6-.77 5.41-.73.53 0 1.49-.78 1.47-.29 0 .27.77-.28.93 0s1.32.35 1.33.11.09-.15.19-.08c.29.19.57-.94.82-.17.31 0-1.12 1.71-1 2s0-.31-.66.66-.68.44-1.08 1.31c-.53 1.17-1.36 1.23-1 1.73s-.08.06-.21.34-.86.55-.73.94-.55.32-.41.74c.24.73-.62-.34-1-.36-.18 0-3.64-5.64-4.22-5.34-.11.06-.15 0-.07 0s-.2-.7-.41-.58-.52-.27.63-.28Zm-.56 3c.14.26-.29.24-.28 0 .05-.47.36-.04.31-.04ZM391.48 447.77c.18 0 .21 0 .08.11-.28.14 0 1.41.4 1.64s1 2.82 2.91 4.1c1.14.76.44.68 1.37 1.34.28.2.86.64.94 1 .14.59 1.72.81 1.83.25 0-.16.09-.19.15-.08.23.45.68-.64 1.64-2.2.27-.67-.17-1 .16-.78.58.35 3.32-7.54 3.4-7.54.36 0 .78-1.4.48-1.59-.66-.41-10.22-1.13-10.24-.37 0 .29-.36-.16-1.1 0-1.16.31-2.36.17-2.3.62s-.37.33-.11.49 0 .52-.12.25c-.49-.95.03 2.76.51 2.76Zm8.44 5c-.06-.19.6-.11.7.09s-.76-.02-.7-.12Zm-5.92-6.4c.7.14 1-.51 1.38-.25s.25-.08.91 0 1.19-.51 1.36-.39c.33.25.45.27.45.07s.08-.17.19-.1a5.12 5.12 0 0 0 2.47-.33c0-.09 0-.11.15 0 .59.37 1.56-.17 1.83.2s-.25.45-.19.34c-.23-.24-.49.09-.2.17s-.19 0-.12.51c0 .32 0 .32-.19-.05s-.26-.38-.5 0c-.14.22-.17.42-.07.42s.12.11 0 .24c-.22.35-.36 0-.52.23-.06.09 0 .17.07.17s-.22.65-.54.81c-.15.07-.13.2 0 .31s.17.18 0 .16c-.34-.06-.53.25-.17.26.52 0-.43.05-.58.65s-1 2-1.57 3.22-.14 0-1.06-.35c-.65-.25-.05-.18-.34-.58-.13-.16-.2-.15-.2 0s-.09 0-.19-.27-.17-.43-.19-.23-.06.17-.16-.16c-.2-.66-.88-.84-.73-1.09s-1-.41-.66-.58-.37-.62-.22-.86-.7-.29-.5-.61-.28-1.24-.6-1.44.2-.57.69-.47Zm-1.37-2.29c.22.43-.18.28-.15.24-.18-.13.04-.5.18-.24ZM378.7 478c.13 1.54 1 1.3.71 1.58s.34.18.26.71c0 .31 0 .37.4.41s.4.05.06.1-.52.38-.06.42.43.41.06.34c-.2 0-.19.12.05.57.47.89.81.62.63 1s.6.81.41 1.21c-.09.2 0 .29.19.31s.26.07.07.23.16 1.61.43 1.12-.16.67.09.67.11 2.36 1 3.24c.44.42.58.48.67.27.29-.65.28 1.88 3.61-2.94-.16.16 2-3.15 2.14-3.31.62-.67.64-1.35.77-1.22s.06-1 .3-.76.33-.84.81-1.33-.39-.48-.14-.6-.29-.55-.65-.85c-.95-.8-1.4-.07-2-.61-.18-.17-.38-.21-.45-.1s-.17.14-.22.06c-.13-.23-.87-.5-1-.37s-.15.05-.19-.08-.12-.14-.2-.06-.38 0-.68-.11c-.79-.37-.52.25-.84-.07-.14-.13-3-1-3.08-.64s-.72-.35-.8 0c0 .15-.1.12-.19-.08s-.18-.24-.26-.05c-.25.56-.92-.71-1.47-.4-.19.11-.17.13.11.09.76-.14-.62.19-.54 1.25Zm4.05 8.09c-.19.22-.27.15-.23.11-.01-.2.58-.54.23-.2Zm4.93-6.88c.25.25-.27.43-.19.35-.08-.13-.01-.56.19-.4Zm-5.68.49c.1.09.11 0 0-.24s-.11-.35.18 0a3.77 3.77 0 0 0 2.29.56c.23-.1.57.43.57.18s3.93.38 4.15 0c.11-.23.68 0-.83 1.72-.74.83-.18 1.12-.59 1s-1.06.68-.89.85 0 .2-.09.3c-.3.31-.31-.14-.59.34a.31.31 0 0 0 .11.47c.23.11.2.12-.11.07-.48-.1-.46.29-.43.26 0 .27-.06.31-.18.19s-1.24 1.6-1.25 1.65c-.33 1.48-1.34-4-1.94-4.31-.15-.06-.16-.14 0-.17.35-.08-.52-2.06-.87-2.48-.16-.27.29-.6.47-.44Zm-1 1c.11.41-.39.4-.32.32-.17-.19.23-.6.32-.36ZM426.43 474.92c.22.34-.21-.17-.58.71-.13.29-.23.42-.23.29s-.61.27-.93.84c-.24.41-.66.19-.3.37.2.1.19.16-.05.22-.46.11 0 .39-.31.4-.58 0 .5 1.88.61 1.62s.12-.07.15.09c.1.4.53.18.55.46s1.11.17.83.35.91.4 1.13.73.74 0 .75.24.76.47.95.28.38 0 .64.23a1.74 1.74 0 0 0 .59.35c-.32-.85-.64-1.7-1-2.53-.12 0-.21 0-.25-.06-.15-.24-1-.43-1.11-.25s-.1.1-.12 0c-.09-.28-1.19-.65-1.29-.43s-.13.09-.18-.1c-.11-.45-.44 0-.39-.28s1.28-.67 1-1c-.11-.17-.08-.18.15-.09s.27 0 .27-.11c0-.38.79-.31.36-.49-.26-.12 0-.19.32-.29-.33-.84-.65-1.67-1-2.49-.37.46-.64.82-.56.94Zm.92 5.47c.19-.12.65.07.24.16s-.46-.01-.24-.16ZM339.49 490.29c.08-.06.07.06 0 .28-.23.58.61 1.39.29 1.24s0 1.66.14 1.53.17.29.21.77c.1 1.2.83 1.73.51 1.59s-.22.3 0 .28.26 1.46.53 1.61c.48.28-.28.93 1.31 1.59l1 .42a18.74 18.74 0 0 0 5.54-4.92c.21 0 1.67-1.41 1.86-1.27s0-.43.82-.71.19-.17.79-.94c.23-.29.35-.4.29-.24-.29.68 1-.59-.63-1.59-1.23-.76-1.73-.42-2.22-.64-.26-.11 0 .31-.3.34-.1 0-.15-.1-.11-.25.09-.39-.32-.55-.62-.23s-.24.21-.18 0c.15-.63-1.84-.39-1.8-.48.21-.44-5-1.11-5.44-1.33-.75-.37-2.1-.06-1.64.64.08.13 0 .08-.19-.11-1.09-1.05-.34 2.57-.16 2.42Zm3.58 8.61c0-.32.14-.34.15-.29.48.21-.02 1.39-.15.29Zm-.9-9.46c.14-.11.18-.08.11.07s.26.26 1 .14c.34 0-.18.22.71.44a5.7 5.7 0 0 0 2.48.43c.69-.18.06 0 1.36.41s.83-.25 1.25.19c.56.6-.41.51-.36.89 0 .21-1.07.65-1 .9s-.39-.1-.35.2-.78.06-.32.52.24.28-.3.4-2.11 2-1.93 2.26 0 .1-.22.06-.28 0-.18.11c.25.33-.46-.07-.43.23s-.81.93-1 .83c-.49-.23 0-.27 0-.18s.18 0 .07-.19-.07-.27 0-.22 0-1.43-.28-1.76q-.18-.24.06-.12c.58.29-1.18-5.22-.67-5.61ZM222.74 306.12c.28.2.86.63.93 1 .14.59 1.73.8 1.83.25 0-.16.1-.19.16-.08.23.45.67-.65 1.64-2.2 0-.09 0-.17.07-.25l-2.91-.1h-.05l-3.29-.11.24.18c1.15.73.44.64 1.38 1.31ZM295.75 329.44c.13-.12 1.62 5.88 2.18 6.56.21.26.22.32 0 .26s-.19 0 0 .25c.37.45.3 1.19 1.46 2.21.25.22.41.27.38.12s0-.21.13-.07c.3.32.62-.31 1.86-.79a1.47 1.47 0 0 0 .57-.35c-.28-.37-.57-.76-.87-1.18a.58.58 0 0 1-.29.15c-.53.15-.37.51-.66.57s-.46-3-.93-2.89a.32.32 0 0 0-.13.05c0 .08-.07 0 0 0a1.48 1.48 0 0 0 .06-.7c-1.29-1.92-2.7-4.08-4.22-6.32a15.25 15.25 0 0 0 .46 2.13Zm5.43 7.93c0-.29.18-.32.18-.28.17.1-.26.84-.18.28Zm-2.82-2.93c.27.1.4.62.07.28s-.08-.32-.07-.28Z"/><path class="cls-13" d="M299.52 334.33c-.07 0 0 .08 0 0ZM205.19 329.11c.13 1.54 1 1.3.71 1.58s.34.17.27.71c0 .31 0 .36.39.41s.41.05.06.1-.51.38-.05.41.43.42.06.35c-.21-.05-.2.11 0 .57.47.89.81.61.64 1s.59.81.4 1.21c-.09.2 0 .29.19.31s.27.07.08.23.15 1.61.42 1.11-.15.68.1.68.11 2.36 1 3.24c.43.42.58.48.67.27.28-.65.27 1.88 3.6-2.95-.15.16 2-3.14 2.14-3.3.63-.67.64-1.35.78-1.22s.05-1 .3-.76.32-.84.8-1.34-.39-.47-.14-.59-.29-.55-.65-.86c-.94-.79-1.4-.06-2-.6-.17-.17-.38-.22-.45-.11s-.17.15-.21.07-.87-.51-1-.37-.15.05-.18-.08-.12-.15-.2-.07-.38 0-.69-.1c-.79-.37-.51.25-.84-.07-.14-.14-3-1-3.08-.65s-.72-.34-.8 0c0 .14-.1.11-.19-.09s-.18-.23-.26 0c-.25.56-.91-.71-1.47-.4-.19.11-.17.13.12.09.76-.13-.6.21-.52 1.22Zm4.06 8.09c-.19.22-.27.14-.24.11-.01-.2.58-.5.24-.11Zm4.92-6.89c.26.25-.27.44-.18.35-.08-.07.01-.53.18-.35Zm-5.67.5c.09.08.1 0 0-.24s-.11-.35.17 0a3.78 3.78 0 0 0 2.3.56c.23-.1.56.43.57.18s3.93.37 4.14 0c.12-.24.69 0-.83 1.72-.73.83-.17 1.12-.58 1s-1.06.69-.89.85 0 .2-.09.31c-.3.31-.32-.14-.59.33-.12.21-.08.39.1.47s.21.13-.1.07c-.49-.09-.47.3-.43.27 0 .26-.07.3-.19.18s-1.23 1.6-1.25 1.66c-.32 1.48-1.33-4-1.94-4.31-.14-.07-.15-.14 0-.17.35-.09-.52-2.06-.87-2.49-.15-.2.3-.55.48-.39Zm-1 1c.11.41-.39.39-.31.32-.19-.13.22-.55.28-.31ZM251.14 330.52c.05-.1.11-.06.15.09.09.41.52.18.54.47s1.11.17.84.35.9.4 1.13.73.73 0 .74.24.77.47 1 .27.38 0 .64.23c.78.69 1.66.34 1.61.67s.3-.17.42.15.36-.23.62.16 2 .72 2 .45c0-.11.2-.12.42 0 1 .36.64-2 .38-2s-.39-.49 0-.56 0-3 0-3.08c.12-1.05-.66-1.6-.4-1.77s-.31-.3-.53-2.09c-.12-.94-.43-.55-.33-1.13s-.42-.68-.21-.81-.53-1.24-.75-1.09-.17 0-.17-.11-.15-.13-.34 0c-.49.32-.26-.27-.49-.16-1.61.77-5.71 4.11-5.41 4.55s-.22-.17-.59.7c-.12.3-.22.43-.23.29s-.6.28-.93.84-.66.2-.29.38c.2.1.18.16 0 .22-.46.11 0 .38-.31.39-.71.03.35 1.88.49 1.62Zm10.32 3.31c.06.09-.1.53-.25.3s.35-.36.25-.3Zm-7.37-2.12c-.34.07-.47 0-.25-.16s.66.07.25.16Zm-1.66-2.09c.07-.33 1.27-.67 1-1-.12-.17-.09-.19.14-.09s.28 0 .27-.12c0-.37.79-.3.37-.49s.45-.24.81-.48c.53-.36 3.1-2.81 3.72-2.65 0 0 .16.05 0 .07s.08 1.37.36 1.7c.15.18-.13.81 0 1.11.49.87.38 1.7.62 1.21s-.17 1.36 0 1.27c.33-.22-.5 2.55-.53 1.51 0-.31-.61.05-.63-.29s-.28.09-.47-.2-1.06-.43-1.1-.22-1.23-.15-.36-.1c.42 0 .43 0 .08-.1-.51-.17-1.08.12-1.2-.06s-1-.44-1.12-.26-.09.11-.12 0c-.09-.29-1.19-.65-1.29-.43s-.13.09-.18-.1c-.1-.46-.43-.01-.37-.28ZM166 341.45c.07-.07.07.06 0 .27-.23.58.61 1.4.3 1.25s0 1.66.14 1.53.16.28.2.77c.1 1.2.83 1.73.52 1.59s-.22.3 0 .28.26 1.45.53 1.61c.48.27-.28.93 1.32 1.59l1 .41a18.23 18.23 0 0 0 5.54-4.92c.22.05 1.68-1.4 1.87-1.27s0-.42.82-.71.19-.16.79-.93c.22-.29.35-.4.28-.24-.29.68 1-.59-.63-1.59-1.23-.76-1.72-.42-2.22-.64-.26-.12 0 .3-.3.34-.1 0-.15-.1-.11-.26.1-.39-.32-.54-.62-.22s-.24.21-.18 0c.15-.62-1.83-.38-1.79-.47.2-.45-5-1.12-5.44-1.33-.75-.37-2.11-.07-1.65.64.09.12 0 .07-.19-.11-1.13-1.04-.38 2.55-.18 2.41Zm3.58 8.61c0-.33.14-.35.14-.29.48.23-.03 1.37-.15.29Zm-.91-9.46c.14-.11.18-.09.11.07s.26.25 1 .14c.34-.06-.19.22.7.44a6.06 6.06 0 0 0 2.48.43c.7-.18.06 0 1.37.41s.83-.26 1.24.19c.57.6-.4.5-.36.89 0 .2-1.06.65-1 .9s-.39-.11-.36.19-.78.07-.32.52.24.29-.29.41-2.12 2-1.94 2.26c.06.07 0 .1-.22.05s-.28 0-.17.12c.25.32-.47-.07-.43.23s-.82.93-1 .83c-.49-.23 0-.27 0-.18.17.08.19 0 .08-.2s-.08-.26 0-.22 0-1.43-.28-1.76c-.13-.15-.11-.19.06-.11.57.29-1.18-5.21-.68-5.61ZM314 363.27c0 .12-.06.11-.1 0-.12-.36-.64-.46-.76-.14s-.13.22-.19.06-.19-.19-.35-.1c-.45.23-.22-.44-.77.2s0 .66-.29.76.29.51-.26.84c-.25.15-.27.22-.07.25s.19.07 0 .12c-.37.11-.49 1.95-.89 2.48-1.06 1.44-.75 4.12-1 4.2s0 1.18.44 1.57 1.45.46 1.7.18c0 0 3.15-.41 3.19-.64s.09-.17.18-.09.93-.25.86-.41 1.62 0 2.11-.82c.28-.43.6 0 1-.36.18-.21.72-.3 1.18-.46v-4.4c-2.98-1.21-5.83-4.38-5.98-3.24Zm1.52 2.83c0 .09-.19.31-.23.28-.37.18.17-.49.19-.28Zm-2.09 6.35c-.05.3-.38 0-.21-.18s.2.21.17.18Zm1.73 0c-.05.27-.46.19-.21-.09s.2.14.17.11Zm2.68-2.62c-.16.18-.27.19-.33 0s-.09-.07-.1.19-.05.4-.12.17-.12-.22-.21 0c-.14.4.06-.32-1.54.38-.57.25-3.3 1.16-3.6.62-.17-.32.21-.09.21-.86s.47-1.53.19-2c-.41-.69.8-.72 0-1.29-.39-.27-.38-.28 0-.25s.37-.18-.09-.44.63.12.43-.71c-.06-.27-.07-.46 0-.41s.09-.17.08-.48c0-1.33.93.28.83.19 3.17 4 4.47 3.27 3.87 3.45-.4.13 0 .16.81.57s.04.3-.47.89Zm1.83.06c-.28.08-.57-.16-.29-.25.46-.14.36.36.25.27ZM181.86 367.51c0 .54.49.32.67 1.21.07.36.23.65.34.65s.16.05.1.11c-.26.27 1.78 2.87 1.7 3.5s.5.33.37.86.52.72.52 1.12.54 0 .33.15-.08 1.64.58 1.66c.26 0 .37-.08.3-.24s0-.26.22-.26c.43 0 0 .32.4.32s.12-.33.53-.33 1.06-.92.41-.39c-.33.27-.34.26-.13-.16.13-.24.19-.48.13-.53-.31-.3.8-2.07.83-2.66 0-.33.1-.57.2-.55.29 0 1.37-2.2 1.27-2.67-.14-.73.36-.09.66-1 0-.06 1.12-2.34.82-3.21-.12-.36-1.2-.91-1.39-.71s0 .11.11.11c.51 0 0 .69-.38.12s-6.93.79-6.92 1.48c0 .24 0 .26-.16.07-.3-.45-.48.45-1.15.26s-.12.34-.6.54c-.19.08-.19.1 0 .11s.24.23.24.44Zm4.8 5.65c0 .1-.37.39-.37.12s.49-.12.37-.12Zm3-3.22c0 .63-.36.39-.24-.11.17-.83.25.11.2.11Zm-5.33-2.37c.42.15.27-.37 1.11-.35s1.63-.45 3.21-.52c1.42-.06 1.24-.3.78.81s0 1.19-.41 1.19c-.59 0-.56 1.44-.88 1.56s-.19 1.09-.38 1-.21.18-.17.52-1.46.65-1.48-.39c0-.19-.1-.36-.2-.35-.3 0 .14-.13-.93-1.25a11 11 0 0 1-1-1.46c-.7-.71.02-.86.31-.76ZM222.11 377.52c0 .33.73 1 .87.78s.14.05.18.28c.13.6.07-.05.61.23.34.19.35.18.21-.15s-.09-.3.1-.18c.48.31.17-.84.75-.88.18 0 .27-.1.23-.2s0-.16.14-.14c.35 0 1-.58.85-.84a.28.28 0 0 1 .15-.37c.43-.2.11.89.74-.22.26-.47 1.44-.8 2.36-2.33.25-.43 1.47-1.34 1-1.52-.08 0 0-.09.21-.13.4-.08 1-1.31.72-1.49-.12-.07-.06-.13.14-.14s.28-.08 0-.37-.28-.34.05-.26.37 0 .4-.18c0-.4-.45-.12-.42-.41s-.31.05-.38-.18c-.29-1-.63 0-.79-.3s-.72.23-.83 0-.74-.12-.77.14-.3.17-.78 0c-1-.26-.88.22-1.19 0-.14-.1-.12-.13.08-.11s.22 0 .07-.11c-.41-.27-6.12.52-7.61.55-.46 0-1.18.72-1.07 1 .2.58.2.61-.08.44-.76-.47 2.8 6.23 2.82 6.27 1.21 1.55 1.28.3 1.24.82Zm2.73-1.28c0-.19.25-.11.27-.07.61.39-.3.47-.27.07Zm-2.71-5.18c.65.18 1.45-.41 1.38-.21a4.54 4.54 0 0 0 2.11-.08c.22-.09.45-.07.51.07.17.36.49-.28.61 0s.76-.29 1.22-.06-.47.32-.31.66-1.35 1.55-1.18 2c.07.17.05.23-.06.14s-1.36 1.18-1.65 2-.4.18-.7.94-.7.61-1.2-.51-.83-.59-.62-.94-.13-.27-.11-.23c-.48.06.11-.13-.39-1.56-.26-.79-1.09-2.63.39-2.22ZM261 367.75c-.08.19-.15.21-.19.06-.12-.45-.53-.08-.49.45.05.8-.3.72 0 1s-.17.36.21.71-.1.8.3 1-.22.06.14.64c.47.75 0 1.17.49 1.05.22-.05.23 0 0 .18s-.15.31.15.51.32.28.19.32c-.33.09.61.43.32.51s-.11.14.36.68c.24.26.09.75.39 1s-.18.46.14.53.22.8.78.79-.07.09.07.36a1.31 1.31 0 0 1 .13.41 1.81 1.81 0 0 0 1.47 1.13c.64-.13.47.5.54-.12 0-.28.08-.35.13-.19.12.44 1-.53 1-.8-.09-.49-.08.56 1.69-1.44 1.07-1.22 3-4 2.71-4.19s1-.79.33-1.16c-.29-.16-.28-.2.07-.29 1-.27-.6-1.47-1.36-1.54-.34 0-.65-.14-.68-.25s-.12-.12-.21 0-.15.09-.16 0c0-.24-1.49-.63-1.81-.47s-.3-.43-1.17-.29c-.35.05-.56 0-.46-.08s0-.19-.3-.2c-.85 0-.4-.36-1.45-.16-.39.08-.75.06-.83-.05-.38-.56-2.27-.61-2.5-.1Zm-.33.16c.13.46-.23.24-.19.2-.17-.17.13-.49.21-.2Zm-.11.93c-.28-.06 0-.38.2-.2s-.21.24-.18.2Zm9.79 1c0-.2.57-.51.23-.12-.16.22-.25.15-.21.12Zm.27 2c.38.36-.41.58-.28.44-.14-.19.03-.73.3-.48Zm-.31 1.7c.12.12-.91.36-.82.27-.07-.13.75-.39.84-.31Zm-5.64-5.44c.47.1-.34.36-.19.2-.15-.2-.09-.3.21-.24Zm-1.33 2.23c.22.21.37-.44.47-.28s1 .36 1.07.13.07-.15.11 0c.08.31.75.14 1.74.36s1.16-.32 1.55.06.42-.13.75.18c.13.13.26.1.33-.08s.15-.2.18-.08.11.16.19.07 1.07.11-.48 1.63c-.7.68-.26.9-.6 1-.61.16-2.51 2.59-3.28 2.62-.29 0-.31 0-.12-.15s.08-.36-.23-.78a19.3 19.3 0 0 1-1-2c-.24-.23.15-.37-.05-.57s-1.18-2.69-.61-2.15ZM176.37 404.43c-.15-.28-.66.1-.65-.23s-.69 0-.84-.23-3.14-1-3.85-1.29-.75-.31-.61-.07-.43 0-.77-.26-1.43.2-1.83 0c-.83-.35-1.29 1.71-.88 1.77 1 .16-.46.65.09 2.11a.61.61 0 0 1 0 .5c-.19.29.31.33.13.61s.26-.14.11.89c-.08.56-.05.65.13.43s.21-.22.07.1-.64 3.82 0 3.6c.44-.15-.15.8.3 1.21s1 .22.92-.1c0-.13 0-.21.09-.19a2.46 2.46 0 0 0 1.48-.63.28.28 0 0 1 .37-.15c.5.23 4-1.72 4-2.39 0-.05 2.28-1 1.83-1.76-.3-.53.25-.64.1-.41-.37.57.88.39 1.26-.2.25-.39.43.12.64-.43s.67.22 1-.55c.24-.59 0-.72.43-.57.24.09.21 0-.58-.7.23.07 1.08.37.66.05s-1.28 0-2.36-.68c-.56-.32-1.09-.17-1.24-.43Zm-8.58-.51c.22-.12.19.47 0 .34s0-.39 0-.34Zm-.54 7.63c0-.42.19-.08.18 0 .47.77-.21.56-.18 0Zm.45-5.3c-.43 0 .13-.31.13-.26.4-.13.09.27-.13.26Zm7.62 1.21c-.08.18-.2.29-.26.23s-.82.45-.74.62-1.19.32-1 1.31c.07.32-.2-.41-.87.07s-.27.66-.92.79-2.45 1.64-2.43 1.23-.68-.32-.11-.74a.89.89 0 0 0 .31-.84c0-.32 0-.59.08-.59a26.6 26.6 0 0 0-.25-3.36c0-.61-.4-.33-.17-.67a1.68 1.68 0 0 0 .12-.75c0-.71.23-.4.89-.58.29-.08.3-.06.06.09-.65.43.94 0 1.28.62.21.38 1 .2 1.59.47 1.29.62 1.37.64 1.51.43s.19-.09.29.12c.22.44.66.26 1 .52s-.07.29-.38 1.03Zm2.21-1.76c-.4-.27 0-.33 0-.28.27.01.25.44 0 .28ZM282 405.32c.35.74.6.35.76.73.48 1.2 1.87 1.11 1.93 1.4 0 .13.13.17.26.08s.2-.08.12.16c-.16.54 1.62 1.1 1.85 1.68s.41 0 .61.52.78.21.78.61.55.43.29.23.12-.39.26 0 .73.47.35.05.17.05.63-.13c.21-.08.2-.12 0-.16s-.17-.15.15-.37c1-.75.62-1.2.95-2.42.17-.61.16-.91 0-.94s-.15-.18 0-.43c.55-.75.14-2.47.37-2.84s-.09-1.2 0-1.89 0-.71-.23-.46.36-.65.16-.57-.1-.07 0-.24c.14-.42-.16-1-.07-1.71s-.27-.48-.13-.89-1-.79-1.34-.67c-.16.42-3.29 1.49-3 1.73.12.09.06.12-.18.08-.45-.06-1.35.46-1.25.72s0 .13-.17 0-.46 0-1.52.64c-3.17 2-2.45 1.66-2.47 2.41 0 .26-.07.33-.21.22s-.21.1-.21.49c-.02.87.9 1.07 1.31 1.97Zm8.28 4c.13.34-.28.28-.23 0 .1-.49.29-.04.25-.02Zm-6.77-3.75c-.08.19-.73.22-.26 0 .28-.14.32-.04.28-.02Zm-.29-.51c-.13-.33.56-.22.48-.19s-.33.48-.46.13Zm-1.37-2c.46-.08 1.09-.68.9-.86a1.33 1.33 0 0 0 1.2-.07c6.53-3 5-2.32 5.49-1 .08.21.07.37 0 .36-.32 0 .57 1.42.19 1.36s-.12 1.13-.32 1.61.18.91 0 1.17a.27.27 0 0 0 0 .34c.21.26-.44 1.74-.73 1.65s-.44.4-.4 0-.39-.19-.39-.6-1.19-.64-1.28-.87a1.63 1.63 0 0 0-1.19-.5c-.14.06-.22 0-.19 0 .11-.25-.54-.71-.7-.49s-.12.09-.1 0c.07-.32-.92-.46-.86-.79 0-.13 0-.13-.19 0s-.24.11-.26-.14c-.06-.56-.75-.51-.9-.89s-.57.35-.5 0a.32.32 0 0 1 .25-.26Zm-.41-1.08c.11-.58.24 0 .2 0 .02.46-.24.33-.18.02Zm-.51 1.52c-.23-.58.28-.12.24-.1.29.32-.08.46-.17.12ZM241.63 413.27c.13-.14.15-.1.08.11-.15.42 3.73 3.56 3.77 2.43 0-.22.08-.24.27-.06s.25.15.22 0 .11-.23.27-.22.78-.83.66-1.12c-.34.82 2-6.78 1.17-6.68-.17 0-.15 0 .06-.11s.41-.71.13-.67 0-.51.15-.32.33-.27.2-.63-.09-.29 0-.12.2.13.25 0-.61-.91-.89-.87c-.1 0-.1-.06 0-.18s.06-.23-.6-.35c-1-.19-1.2-.15-1.21.22s-.05.26-.19 0c-.27-.52-.75 0-.86-.3s-.16.36-.46.08-1.2.18-1.54 0-.26.32-.46.19c-.85-.52-1.26.15-1.84 0-.41-.09-.43.15-1 .14-.2 0-.35.08-.33.19s-.11.09-.28 0c-.46-.34-.4.27-.61 0s-.49.37-.69.1c-.06-.1-.53 0-1 .22-1.51.66-1.49 1.13.09 2.86.46.5 4.35 5.41 4.64 5.09Zm5.1-3.49c-.1-.33-.4-.65 0-.49s-.12.79 0 .49Zm-7.13-2.62c.44.18 1.61-.36 1.8-.28s.14-.09.15-.29 0-.28.11 0c.13.53.19.11 1.79-.05 3-.3 2.41-1 2.67-.54.16.3.28.26.37-.11s.79.35.45-.16c-.17-.25-.15-.27.11-.16.78.32-.5 1.63-.12 1.79s-.24-.24-.57 1a31.93 31.93 0 0 0-1 3.79c.12.3-.35 0-.32.52.06.91-.72 1-1.32.21a3.74 3.74 0 0 0-1.43-1.15c-.31-.07-.37-.66-.17-.37.08.1.17.16.19.11s-5.61-5.47-2.71-4.31ZM213.28 408.75ZM204.61 405.8c-.5.28.27.36-.07.77s.1.06.13 1.15.46.94.19 1.27-.16.27.17.4.3.15.11.15c-.47 0 .32.76.05.91s.93 1.86.38 1.84.46.93.16 1.1c-.09.06-.07.14 0 .2a.12.12 0 0 1 0 .22c-.29.16.46.67.15.66s-.08.32.24.33c.16 0 .2.11.11.29s-.07.28.12.25c.49-.07.43.76.81.32s.07.23.43.23c.12 0 .14-.12.05-.29s-.1-.25.09-.16c.37.19 1.73-.64 2.28-.71.24 0 .31-.12.23-.27s0-.19.09-.13c.88.38.83-1.3 1-.92.12.2 1.39-.75 1.35-1 0-.11.05-.17.17-.17a7 7 0 0 0 2-2.14c-.18-.32.3.08.6-.67.1-.25.1-.33 0-.19s-.15.07-.08-.32.07-.49 0-.38-1.3-.49-1.54-.86-.75.11-1-.38-1.15-.8-1.43-.63a.2.2 0 0 1-.27-.13c-.31-.83-1-.26-1.36-.74s-.48 0-.77-.39c-.8-1.17-2.9-1.28-3.21-1.43-.65-.3-1.81.85-1.19 1.18.09.05 0 .16-.14.26s-.24.17 0 .19.41.04.15.19Zm6.23 7.93c-.26-.14.12-.35.25-.14.2.41-.29.17-.25.14Zm0-.62c-.11-.2.07-.63.27-.28.26.5-.43.35-.3.28Zm3.95-4.36c-.36.46-.5.24-.46.21-.33-.47.88-.77.43-.21Zm-7.88-3.58c.41.62-.4.34-.24.25-.24-.36-.02-.58.21-.25Zm.06 2.44c.08-.79.3.16.79-.13.29-.16.33.07.5.33s1.31.21 3.17.73c1.44.4 1.81.27 1.88.21-.06.26 1.56 1 .68.85-.33-.05-.89.23-.79.4s-1.9 1.11-1.56 1.3-4.08 2.26-3.5 1.93c-.64.12-.41-.32-.65-.78-.15-.3.65-.11-.21-1.28-.2-.26-.22-.41-.06-.43s.1-.82-.21-.83.61-1.41-.34-1.78c-.67-.22.2.13.27-.52Zm-.65 4.76c.21 0 .4 0 .42-.11.09-.31.56.6-.42.21-.07.02-.54-.17-.03-.1ZM147.08 370.44c.12-.24 2-.07 2-1.4a1 1 0 0 0-.18-.69c-.1-.09-.11-.19 0-.22.59-.18-1.74-1.34-1.78-1.37-.23-.07-.47-.16-.71-.26v4.4a1.14 1.14 0 0 0 .67-.46ZM175.24 451.44c-.31.35 3.21 5.75 3.82 5.77.27 0 .54.52.24.32s-.5.49.36.09c.29-.14.35-.12.26.09-.22.49.78.14 1.05-.37.62-1.2.94-1.5.6-1.52s.89-.85.78-1.21.3 0 .43-.5 1.06-1 .7-1.18-.27-.49 0-.31.78-.47.68-.79c0-.14 0-.21.16-.18.32.09.06-.42.36-.4s-.41 0 .92-1.33.44-1.17 1-1.34.14-.51.82-1.35.13-1 .51-.93.1-1.95-.5-1.62.32-.5-1.51-.52c-1.65 0-1.13.35-1.58.16-.17-.08-.27 0-.29.23s0 .33-.15 0c-.19-.55-1.52-.46-1.52-.28s-.1.08-.23-.06c-.27-.29-1.15-.35-1-.06s-.18-.09-.73-.11c-.1.09-7.15 1.13-7.17 1.59 0 .7-2.11-.95 1.14 4.55.83 1.46 1.18.89.85 1.26Zm7.28 2.46c-.16.37-.34.15-.16-.12.33-.48.21.12.16.12Zm.82-9.48c.28 0 .28.1.24.1s-.76-.1-.24-.1Zm-7.81 3.05c2.64 0 4.61-.77 5.42-.73.53 0 1.49-.78 1.46-.29 0 .27.78-.28.93 0s1.32.35 1.33.11.1-.15.2-.08c.29.19.56-.94.81-.17.31 0-1.12 1.71-1 2s0-.31-.67.66-.68.44-1.07 1.31c-.53 1.17-1.36 1.23-1 1.73s-.07.06-.2.34-.86.55-.73.94-.56.32-.41.74c.24.73-.62-.34-1-.36-.18 0-3.63-5.64-4.21-5.34-.12.06-.15 0-.07 0s-.2-.7-.41-.58-.57-.27.62-.28Zm-.56 3c.14.26-.29.24-.28 0 .02-.47.31-.04.31-.04ZM218 447.77c.17 0 .2 0 .08.11-.28.14 0 1.41.4 1.64s1 2.82 2.9 4.1c1.15.76.44.68 1.38 1.34.28.2.86.64.93 1 .14.59 1.73.81 1.83.25 0-.16.1-.19.16-.08.23.45.67-.64 1.64-2.2.27-.67-.17-1 .15-.78.58.35 3.32-7.54 3.41-7.54.36 0 .78-1.4.47-1.59-.66-.41-10.22-1.13-10.23-.37 0 .29-.37-.16-1.11 0-1.16.31-2.36.17-2.29.62s-.38.33-.12.49 0 .52-.12.25c-.48-.95.02 2.76.52 2.76Zm8.43 5c0-.19.6-.11.7.09s-.78-.02-.72-.12Zm-5.89-6.37c.7.14 1-.51 1.38-.25s.26-.08.91 0 1.2-.51 1.36-.39c.34.25.46.27.45.07s.08-.17.19-.1a5.09 5.09 0 0 0 2.47-.33c0-.09 0-.11.16 0 .58.37 1.55-.17 1.83.2s-.26.45-.19.34c-.24-.24-.49.09-.21.17s-.18 0-.12.51c.05.32 0 .32-.19-.05s-.26-.38-.5 0c-.13.22-.17.42-.07.42s.12.11 0 .24c-.21.35-.35 0-.52.23-.06.09 0 .17.08.17s-.23.65-.55.81c-.14.07-.13.2 0 .31s.17.18 0 .16c-.33-.06-.53.25-.16.26.52 0-.43.05-.58.65s-1 2-1.58 3.22-.14 0-1.06-.35c-.64-.25 0-.18-.34-.58-.12-.16-.19-.15-.2 0s-.09 0-.18-.27-.18-.43-.19-.23-.07.17-.17-.16c-.2-.66-.88-.84-.72-1.09s-1-.41-.66-.58-.37-.62-.22-.86-.7-.29-.51-.61-.27-1.24-.59-1.44.14-.6.66-.5Zm-1.37-2.29c.22.43-.17.28-.15.24-.23-.16-.02-.53.13-.27ZM304.76 433.55a.41.41 0 0 1 .07.33c-.18.76 1.46 5.86 1.33 6-.29.27.63 0 .4.66s.1.73.18.45.23.24 0 .29-.05 1.32.3 1.76c.16.21.22.42.13.48s.41.61.13.79 0 .44.19.27.52.14.16.28c-.59.23.13 1.1 1 1.21.46.06.53 0 .28-.1-.58-.34.21.06 1.29-.94s.3-1 .66-.88 2.24-1.62 1.84-1.83c0 0 2.51-1.71 1.71-1.84-.34 0-.33-.06.11-.08.88-.05 1.17-1.4 1.84-2 .07-.07 0-.19-.17-.29s-.2-.15 0-.11c.7.15.55-1 1-.78s.11-.28.38-.57c.51-.56.56-.64.4-.64s-.13-.22-.08-.46c.13-.62-.42-.64-.29-.94s-.3 0-.53-.21.44-.07 0-.54c-.24-.26-.28-.25-.24 0 .09.65 0-.46-1.06-.46-.38 0-.69-.07-.69-.16 0-.66-2.89-.73-2.79-.82s-2-.54-2.32-.8-.78-.46-.84-.25-.12.08-.18-.09c-.17-.41-.85-.29-1.27-.6-.63-.47-1.26.91-1.86.53-.32-.2-.86.1-.63.35a.22.22 0 0 1 0 .3 3 3 0 0 0-.45 1.69Zm12.62 2.68c-.15-.37.13-.35.2 0 .1.54-.24.03-.2 0Zm.17-1c-.16 0-.38-.11-.32-.17s.85.21.32.2Zm-10-2c.6.69 1.42.74 1.66.94.59.5.71-.4.8 0 .14.65 2.51.77 2.56.55 0-.06 0-.05 0 0 0 .23 1.85.46 1.91.25s.28.23 1.07.35c2.33.35-1.91 2-1.21 2.38.39.19-.92.71-.79.59-.23 0-2.91 3.06-3.18 2.82s.22.08-.66.78c-1.18.94-.5-.13-1-.45-.16-.1-.56-4.26-1.23-4.59-.33-.16-.37-.23-.19-.3s.07-.78-.25-1c-.07-.06 0-.11.1-.14s-.71-3.51.45-2.18Zm-.62-2.05c.08.37-.28.26-.25.23-.2-.07.24-.47.32-.23ZM260.23 438.52c.08.41.28.52.81.42 1.08-.18 6.85 1.45 7.54.9.23-.19.25-.18.1.05s0 .29.63.3c2.27.05 1.36.66 2.26.54s1 .34.88 0c-.05-.13.08-.29.31-.38.41-.16.69-.95.41-1.15s.46-.32-.13-.65c-.19-.11-.3-.22-.24-.24.24-.1-.66-.44-.32-.74s.2-1 0-.95-.13-.91-.39-.57-.41-.07 0-.35.27-.19 0-.09-.7-.62-.27-.32-1.2-3.88-1.43-3.57-.8-2-.91-1.87-.91 0-.44-.14-.53-1.59-.57-1.5-.75-.21-.71-.43c.1-.56-1.75 1.09-1.94 1.16s-.09.11.11.15.16.13-.26.28-1.74 1.47-1.47 1.67c.07.06 0 .11-.2.11s-.28.05-.12.17.15.16 0 .13-1.21 1.09-1.11 1.35-1.45 1-1.12 1.4c.17.19-.43.14-1.54 2.38-.97 1.7.11 1.9.12 1.94Zm10.83-5.29c0 .09-.31.2-.32.15-.38.01.41-.33.32-.15Zm-6 6.1c-.21.09-.29 0-.1-.26s.14.46.04.26Zm4.06 0c-.39-.28-.49-.6-.14-.35.61.48.17.55.1.38Zm-3-9.65c.37.06.32.51.27.39s-.6-.42-.29-.36Zm-2.12 5.17c-.12.72 3.31-5.08 3.36-5.15.08.6.12 1 .33.9s.5 2.37.83 1.95c.08-.11.1.05 0 .36-.14.72.26 2 .51 1.67.15-.18.16-.16.06.17s-.08.37.12.3.19 0 .11.09c-.21.31.19 1.47.4 1.2s.14-.12.06.16c-.26.83.75.3.28 1.31-.14.3-.23.41-.21.24s0-.24-.23-.05 0 0-.43-.18a12.33 12.33 0 0 0-2.65-.26c-.95-.36-3-.63-3.14-.41s-.16.11-.23-.11a4.93 4.93 0 0 1 .83-2.19Zm-1 .32c.48.08.12.31.11.27-.26.09-.42-.31-.11-.27ZM299.52 483.17c-.07.05 0 .09 0 0Z"/><path class="cls-13" d="M297.93 484.84c.21.26.22.33 0 .26s-.19 0 0 .25c.37.45.3 1.19 1.46 2.21.25.22.41.27.38.12s0-.2.13-.06c.3.31.62-.31 1.86-.8.95-.37.66-.84 1-.77s.81-.6.32-.78 1.11.12 2.26-1.71c1.35-2.14 2.46-1.94 1.64-2.51-.23-.16-.2-.17.19-.06s.44.06.41-.07c-.05-.28.46-.17.59-.65.37-1.41-1.12-2.47-.61-1.85s-4.06-2.3-5.69-1.76c-.16 0-.79-.58-1.16-.5s-1.71-.42-2.22-.32c-.67.14-1.59-.55-1.89-.17-.13.16-.24.17-.35.05-.51-.53-1 .52-.32.14.24-.14.26-.12.08.07-.73.78-1.07-1.14-.36 2.36.23-.12 1.72 5.87 2.28 6.55Zm8.57-3.11c.23-.05.29.06.06.27s-.1-.49-.06-.27Zm-5.32 4.48c0-.28.18-.32.18-.27.17.06-.26.83-.18.27Zm-1.25-7.95c1.08.46.77-.43 1.72.14s1.31.1 1.37.38a2.19 2.19 0 0 0 1.28.35c.24-.11-.23.51.94.24a5.14 5.14 0 0 1-1 1.5c-.53.47-1.37 2.39-1.55 2.27s.12.29-.33.78 0 .71-.18.57-.78.57-.63.73-.08.16-.3.22c-.53.15-.37.51-.66.57s-.46-3-.93-2.89l-.13.05c0 .09-.07.05 0 0 .1-.22.27-1.26-1.12-5.17a9.78 9.78 0 0 1 1.52.26Zm-1.57 5c.27.1.4.61.07.28s-.08-.3-.07-.25ZM205.19 478c.13 1.54 1 1.3.71 1.58s.34.18.27.71c0 .31 0 .37.39.41s.41.05.06.1-.51.38-.05.42.43.41.06.34c-.21 0-.2.12 0 .57.47.89.81.62.64 1s.59.81.4 1.21c-.09.2 0 .29.19.31s.27.07.08.23.15 1.61.42 1.12-.15.67.1.67.11 2.36 1 3.24c.43.42.58.48.67.27.28-.65.27 1.88 3.6-2.94-.15.16 2-3.15 2.14-3.31.63-.67.64-1.35.78-1.22s.05-1 .3-.76.32-.84.8-1.33-.39-.48-.14-.6-.29-.55-.65-.85c-.94-.8-1.4-.07-2-.61-.17-.17-.38-.21-.45-.1s-.17.14-.21.06c-.14-.23-.87-.5-1-.37s-.15.05-.18-.08-.12-.14-.2-.06-.38 0-.69-.11c-.79-.37-.51.25-.84-.07-.14-.13-3-1-3.08-.64s-.72-.35-.8 0c0 .15-.1.12-.19-.08s-.18-.24-.26-.05c-.25.56-.91-.71-1.47-.4-.19.11-.17.13.12.09.76-.14-.6.19-.52 1.25Zm4.06 8.09c-.19.22-.27.15-.24.11-.01-.2.58-.54.24-.2Zm4.92-6.88c.26.25-.27.43-.18.35-.08-.13.01-.56.18-.4Zm-5.67.49c.09.09.1 0 0-.24s-.11-.35.17 0a3.78 3.78 0 0 0 2.3.56c.23-.1.56.43.57.18s3.93.38 4.14 0c.12-.23.69 0-.83 1.72-.73.83-.17 1.12-.58 1s-1.06.68-.89.85 0 .2-.09.3c-.3.31-.32-.14-.59.34a.3.3 0 0 0 .1.47c.23.11.21.12-.1.07-.49-.1-.47.29-.43.26 0 .27-.07.31-.19.19s-1.23 1.6-1.25 1.65c-.32 1.48-1.33-4-1.94-4.31-.14-.06-.15-.14 0-.17.35-.08-.52-2.06-.87-2.48-.15-.27.3-.6.48-.44Zm-1 1c.11.41-.39.4-.31.32-.19-.19.22-.6.28-.36ZM251.14 479.37c.05-.11.11-.07.15.09.09.4.52.18.54.46s1.11.17.84.35.9.4 1.13.73.73 0 .74.24.77.47 1 .28.38 0 .64.23c.78.69 1.66.34 1.61.66s.3-.16.42.15.36-.23.62.16 2 .72 2 .45c0-.1.2-.12.42 0 1 .36.64-2 .38-2s-.39-.49 0-.55 0-3 0-3.09c.12-1-.66-1.6-.4-1.77s-.31-.3-.53-2.08c-.12-.95-.43-.56-.33-1.13s-.42-.68-.21-.82-.53-1.23-.75-1.09-.17 0-.17-.11-.15-.12-.34 0c-.49.32-.26-.26-.49-.15-1.61.76-5.71 4.1-5.41 4.54s-.22-.17-.59.71c-.12.29-.22.42-.23.29s-.6.27-.93.84c-.24.41-.66.19-.29.37.2.1.18.16 0 .22-.46.11 0 .39-.31.4-.71.02.35 1.88.49 1.62Zm10.32 3.3c.06.09-.1.53-.25.31s.35-.37.25-.31Zm-7.37-2.12c-.34.08-.47 0-.25-.16s.66.07.25.16Zm-1.66-2.09c.07-.33 1.27-.67 1-1-.12-.17-.09-.18.14-.09s.28 0 .27-.11c0-.38.79-.31.37-.49s.45-.24.81-.49c.53-.36 3.1-2.81 3.72-2.65 0 0 .16.05 0 .07s.08 1.37.36 1.7-.13.81 0 1.11c.49.87.38 1.7.62 1.22s-.17 1.35 0 1.26c.33-.22-.5 2.56-.53 1.51 0-.31-.61 0-.63-.28s-.28.08-.47-.21-1.06-.43-1.1-.22-1.23-.15-.36-.1c.42 0 .43 0 .08-.1-.51-.16-1.08.12-1.2-.06s-1-.43-1.12-.25-.09.1-.12 0c-.09-.28-1.19-.65-1.29-.43s-.13.09-.18-.1c-.1-.46-.43-.01-.37-.29ZM166 490.29c.07-.06.07.06 0 .28-.23.58.61 1.39.3 1.24s0 1.66.14 1.53.16.29.2.77c.1 1.2.83 1.73.52 1.59s-.22.3 0 .28.26 1.46.53 1.61c.48.28-.28.93 1.32 1.59l1 .42a18.56 18.56 0 0 0 5.54-4.92c.22 0 1.68-1.41 1.87-1.27s0-.43.82-.71.19-.17.79-.94c.22-.29.35-.4.28-.24-.29.68 1-.59-.63-1.59-1.23-.76-1.72-.42-2.22-.64-.26-.11 0 .31-.3.34-.1 0-.15-.1-.11-.25.1-.39-.32-.55-.62-.23s-.24.21-.18 0c.15-.63-1.83-.39-1.79-.48.2-.44-5-1.11-5.44-1.33-.75-.37-2.11-.06-1.65.64.09.13 0 .08-.19-.11-1.13-1.05-.38 2.57-.18 2.42Zm3.58 8.61c0-.32.14-.34.14-.29.48.21-.03 1.39-.15.29Zm-.91-9.46c.14-.11.18-.08.11.07s.26.26 1 .14c.34 0-.19.22.7.44a5.74 5.74 0 0 0 2.48.43c.7-.18.06 0 1.37.41s.83-.25 1.24.19c.57.6-.4.51-.36.89 0 .21-1.06.65-1 .9s-.39-.1-.36.2-.78.06-.32.52.24.28-.29.4-2.12 2-1.94 2.26 0 .1-.22.06-.28 0-.17.11c.25.33-.47-.07-.43.23s-.82.93-1 .83c-.49-.23 0-.27 0-.18.17.08.19 0 .08-.19s-.08-.27 0-.22 0-1.43-.28-1.76q-.19-.24.06-.12c.57.29-1.18-5.22-.68-5.61ZM140.46 363.27c0 .12-.07.11-.11 0-.11-.36-.64-.46-.75-.14s-.14.22-.19.06-.19-.19-.36-.1c-.45.23-.21-.44-.77.2s0 .66-.29.76.29.51-.25.84c-.25.15-.27.22-.07.25s.18.07 0 .12c-.37.11-.49 1.95-.88 2.48-1.06 1.44-.75 4.12-1 4.2s0 1.18.43 1.57 1.46.46 1.7.18c0 0 3.15-.41 3.19-.64s.1-.17.18-.09.94-.25.86-.41 1.62 0 2.12-.82c.27-.43.6 0 .94-.36.18-.21.73-.3 1.19-.46v-4.4c-2.91-1.21-5.76-4.38-5.94-3.24Zm5.38 6.39c.49-.16.4.35.28.25-.28.09-.56-.16-.28-.25Zm-6 2.79c0 .3-.38 0-.21-.18s.29.21.25.18Zm1.73 0c0 .27-.45.19-.21-.09s.29.14.25.11Zm.36-6.37c0 .09-.19.31-.22.28-.3.2.29-.47.29-.26Zm1.94 2.34c-.41.13 0 .16.8.57s.09.25-.41.84c-.17.18-.28.19-.33 0s-.1-.07-.11.19 0 .4-.11.17-.13-.22-.21 0c-.15.4.05-.32-1.54.38-.58.25-3.3 1.16-3.6.62-.17-.32.2-.09.21-.86s.46-1.53.19-2c-.42-.69.79-.72 0-1.29-.39-.27-.39-.28 0-.25s.38-.18-.09-.44c-.32-.19.63.12.43-.71-.06-.27-.07-.46 0-.41s.1-.17.09-.48c0-1.33.93.28.82.19 3.2 4.06 4.49 3.32 3.9 3.5ZM97.08 369.33c-.33 0-.65-.14-.67-.25s-.12-.12-.21 0-.16.09-.16 0c0-.24-1.49-.63-1.82-.47s-.3-.43-1.16-.29c-.35.05-.56 0-.47-.08s0-.19-.3-.2c-.85 0-.4-.36-1.45-.16-.39.08-.74.06-.82-.05-.41-.52-2.29-.57-2.51-.06-.07.19-.15.21-.18.06-.12-.45-.53-.08-.5.45 0 .8-.3.72 0 1s-.16.36.21.71-.09.8.3 1-.22.06.14.64c.47.75 0 1.17.5 1.05.21-.05.22 0 0 .18s-.15.31.16.51.31.28.18.32c-.32.09.62.43.33.51s-.12.14.36.68c.23.26.08.75.38 1s-.18.46.14.53.23.8.79.79-.07.09.07.36a2.19 2.19 0 0 1 .13.41 1.8 1.8 0 0 0 1.48 1.09c.65-.13.48.5.55-.12 0-.28.08-.35.12-.19.13.44 1-.53 1-.8-.08-.49-.07.56 1.69-1.44 1.08-1.22 3-4 2.71-4.19s1-.79.33-1.16c-.29-.16-.28-.2.08-.29.99-.27-.63-1.47-1.4-1.54Zm-9.9-1.42c.14.46-.22.24-.19.2-.18-.17.11-.49.19-.2Zm-.1.93c-.29-.06 0-.38.19-.2s-.22.24-.19.2Zm9.78 1c0-.2.57-.51.24-.12-.19.22-.27.15-.24.12Zm-5.67-1.78c.47.1-.35.36-.2.2-.17-.16-.11-.26.2-.2Zm4 5.21c-.61.16-2.51 2.59-3.28 2.62-.29 0-.31 0-.12-.15s.08-.36-.23-.78a18.75 18.75 0 0 1-1-2c-.25-.23.15-.37-.06-.57s-1.16-2.65-.59-2.11c.23.21.38-.44.47-.28s1 .36 1.07.13.07-.15.11 0c.08.31.76.14 1.74.36s1.16-.32 1.56.06.42-.13.74.18c.14.13.27.1.34-.08s.14-.2.18-.08.11.16.19.07 1.07.11-.49 1.63c-.76.73-.32.91-.66 1Zm.84.5c-.09-.09.73-.35.82-.27s-.94.36-.85.27Zm.85-1.53c-.16-.15 0-.69.28-.44s-.44.58-.31.44ZM117.8 401.56c.06-.57 0-.71-.22-.46s.35-.65.16-.57-.1-.07 0-.24c.14-.42-.16-1-.06-1.71s-.27-.48-.14-.89-1-.79-1.33-.67c-.17.42-3.29 1.49-3 1.73.12.09.06.12-.18.08-.45-.06-1.35.46-1.25.72s0 .13-.16 0-.47 0-1.52.64c-3.17 2-2.45 1.66-2.47 2.41 0 .26-.07.33-.22.22s-.2.1-.21.49c0 .89.91 1.09 1.34 2 .36.74.61.35.76.73.48 1.2 1.88 1.11 1.93 1.4 0 .13.14.17.26.08s.21-.08.13.16c-.17.54 1.61 1.1 1.84 1.68s.42 0 .62.52.77.21.78.61.55.43.28.23.13-.39.27 0 .72.47.34.05.18.05.63-.13c.21-.08.21-.12 0-.16s-.17-.15.14-.37c1-.75.63-1.2 1-2.42.16-.61.16-.91 0-.94s-.16-.18 0-.43c.55-.75.14-2.47.37-2.84s-.16-1.23-.09-1.92Zm-10.35 2c-.23-.58.28-.12.24-.1.31.26-.1.4-.24.06ZM108 402c.1-.58.23 0 .19 0-.03.44-.29.31-.19 0Zm2.07 3.55c-.08.19-.74.22-.27 0 .2-.12.27-.02.2 0Zm-.29-.51c-.13-.33.55-.22.47-.19s-.39.5-.51.15Zm6.39-2.15c-.26 0-.11 1.13-.32 1.61s.19.91 0 1.17a.29.29 0 0 0 0 .34c.22.26-.44 1.74-.73 1.65s-.44.4-.4 0-.38-.19-.39-.6-1.18-.64-1.28-.87a1.6 1.6 0 0 0-1.19-.5c-.14.06-.22 0-.18 0 .11-.25-.54-.71-.7-.49s-.13.09-.1 0c.06-.32-.93-.46-.87-.79 0-.13 0-.13-.18 0s-.24.11-.27-.14c-.06-.56-.75-.51-.9-.89s-.56.35-.5 0a.34.34 0 0 1 .27-.27c.45-.08 1.08-.68.89-.86a1.36 1.36 0 0 0 1.2-.07c6.53-3 5-2.32 5.49-1 .08.21.08.37 0 .36-.39-.06.5 1.46.12 1.35Zm.43 6.42c.08-.48.28 0 .23 0 .1.33-.31.27-.27 0ZM74.51 405c-.11 0-.11-.06 0-.18s.07-.23-.6-.35c-1-.19-1.19-.15-1.21.22s0 .26-.18 0c-.28-.52-.75 0-.87-.3s-.15.36-.46.08-1.2.18-1.54 0-.25.32-.46.19c-.84-.52-1.25.15-1.84 0-.41-.09-.43.15-1 .14-.21 0-.35.08-.34.19s-.11.09-.28 0c-.46-.34-.4.27-.61 0s-.49.37-.68.1c-.07-.1-.53 0-1 .22-1.51.66-1.5 1.13.09 2.86.41.46 4.3 5.37 4.6 5 .12-.14.15-.1.07.11-.14.42 3.73 3.56 3.78 2.43 0-.22.08-.24.27-.06s.24.15.22 0 .1-.23.26-.22.78-.83.67-1.12c-.34.82 2-6.78 1.17-6.68-.18 0-.16 0 .05-.11s.42-.71.13-.67 0-.51.16-.32.33-.27.19-.63-.08-.29.05-.12.2.13.24 0-.6-.78-.88-.78Zm-1.28 4.74c-.1-.33-.4-.65 0-.49s-.13.83 0 .53Zm.2-2.44c.43.18-.25-.24-.57 1a28.37 28.37 0 0 0-1 3.79c.11.3-.36 0-.32.52 0 .91-.73 1-1.32.21a3.76 3.76 0 0 0-1.44-1.15c-.31-.07-.37-.66-.16-.37.08.1.17.16.18.11s-5.62-5.5-2.72-4.3c.45.18 1.61-.36 1.81-.28s.13-.09.15-.29 0-.28.11 0c.12.53.18.11 1.78-.05 3-.3 2.41-1 2.67-.54.16.3.29.26.38-.11s.79.35.45-.16c-.17-.25-.16-.27.1-.16.79.35-.53 1.66-.1 1.82ZM39.78 408.75ZM32.23 413.39c-.09.06-.08.14 0 .2a.12.12 0 0 1 0 .22c-.29.16.45.67.15.66s-.09.32.23.33.2.11.12.29-.07.28.11.25c.49-.07.44.76.81.32s.08.23.43.23c.12 0 .15-.12.05-.29s-.09-.25.09-.16c.38.19 1.73-.64 2.29-.71.24 0 .31-.12.22-.27s0-.19.09-.13c.88.38.83-1.3 1-.92.11.2 1.39-.75 1.34-1 0-.11.06-.17.18-.17a7.27 7.27 0 0 0 2-2.14c-.19-.32.3.08.6-.67.1-.25.09-.33 0-.19s-.14.07-.07-.32.06-.49 0-.38-1.31-.49-1.54-.86-.75.11-1-.38-1.15-.8-1.44-.63a.2.2 0 0 1-.27-.13.6.6 0 0 0-.09-.18l-1.71 1.79a14.51 14.51 0 0 1 2 .4c1.45.4 1.81.27 1.89.21-.06.26 1.56 1 .68.85-.33-.05-.88.23-.79.4s-1.9 1.11-1.56 1.3-4.07 2.26-3.49 1.93c-.65.12-.41-.32-.65-.78-.16-.3.65-.11-.22-1.28-.19-.26-.21-.41-.06-.43s.17-.21.13-.4l-1.61 1.75c0 .11 0 .19-.13.18h-.06l-.06.07c.03.26.58.9.34 1.04Zm9-4.64c-.37.46-.51.24-.47.21-.24-.47.94-.77.5-.21Zm-3.68 4.08c.28.5-.4.35-.27.28-.09-.2.1-.63.3-.28Zm0 .76c.21.37-.29.17-.25.14-.22-.14.16-.35.28-.14Zm-4.8-1.22c.22 0 .4 0 .43-.11.08-.31.55.6-.43.21-.01.02-.48-.17.03-.1ZM5.55 457.21c.27 0 .54.52.25.32s-.51.49.36.09c.29-.14.34-.12.25.09-.22.49.78.14 1-.37.63-1.2 1-1.5.61-1.52s.88-.85.77-1.21.3 0 .44-.5 1.05-1 .69-1.18-.26-.49 0-.31.78-.47.68-.79c0-.14 0-.21.15-.18.32.09.06-.42.36-.4s-.4 0 .93-1.33.43-1.17 1-1.34.13-.51.81-1.35.13-1 .51-.93.11-1.95-.5-1.62c-.46.26.32-.5-1.5-.52-1.66 0-1.13.35-1.58.16-.18-.08-.28 0-.3.23s0 .33-.15 0c-.19-.55-1.51-.46-1.52-.28s-.1.08-.22-.06c-.27-.29-1.16-.35-1-.06s0 .07-.33 0c-.66 1-1.31 2-2 3a13.13 13.13 0 0 1 2.13-.36c.53 0 1.49-.78 1.47-.29 0 .27.77-.28.93 0s1.32.35 1.33.11.09-.15.19-.08c.29.19.56-.94.82-.17.31 0-1.13 1.71-1 2s0-.31-.66.66-.68.44-1.08 1.31c-.53 1.17-1.36 1.23-1 1.73s-.08.06-.21.34-.86.55-.73.94-.55.32-.41.74c.24.73-.62-.34-1-.36-.12 0-1.49-2.17-2.65-3.75L2 452.32c.86 1.62 3.08 4.87 3.55 4.89Zm4.52-12.69c-.15.14-.76-.1-.24-.1.29-.01.29.1.24.1Zm-1.21 9.26c.33-.48.2.12.16.12-.16.37-.35.15-.16-.12ZM44.47 447.77c.18 0 .21 0 .08.11s0 1.41.4 1.64 1 2.82 2.91 4.1c1.14.76.44.68 1.37 1.34.28.2.86.64.94 1 .14.59 1.72.81 1.83.25 0-.16.09-.19.15-.08.23.45.68-.64 1.64-2.2.27-.67-.17-1 .16-.78.58.35 3.31-7.54 3.4-7.54.36 0 .78-1.4.48-1.59-.66-.41-10.23-1.13-10.24-.37 0 .29-.36-.16-1.1 0-1.16.31-2.36.17-2.3.62s-.37.33-.11.49 0 .52-.13.25c-.48-.95.05 2.76.52 2.76Zm8.44 5c-.06-.19.6-.11.69.09s-.75-.02-.69-.12Zm-5.91-6.4c.7.14 1-.51 1.37-.25s.26-.08.92 0 1.19-.51 1.36-.39c.33.25.45.27.45.07s.08-.17.19-.1a5.12 5.12 0 0 0 2.47-.33c0-.09 0-.11.15 0 .59.37 1.56-.17 1.83.2s-.25.45-.19.34c-.23-.24-.49.09-.2.17s-.19 0-.12.51c0 .32 0 .32-.19-.05s-.26-.38-.5 0c-.14.22-.17.42-.07.42s.12.11 0 .24c-.22.35-.36 0-.52.23-.06.09 0 .17.07.17s-.22.65-.54.81c-.15.07-.13.2 0 .31s.17.18 0 .16c-.34-.06-.53.25-.17.26.52 0-.43.05-.58.65a35.17 35.17 0 0 1-1.45 3.21c-.65 1.34-.13 0-1.05-.35-.65-.25 0-.18-.34-.58-.13-.16-.2-.15-.21 0s-.08 0-.18-.27-.17-.43-.19-.23-.06.17-.16-.16c-.21-.66-.88-.84-.73-1.09s-1-.41-.66-.58-.37-.62-.22-.86-.7-.29-.5-.61-.28-1.24-.6-1.44.06-.56.56-.46Zm-1.37-2.29c.22.43-.18.28-.15.24-.2-.13.03-.5.17-.24ZM131.26 433.55a.41.41 0 0 1 .06.33c-.17.76 1.47 5.86 1.34 6-.29.27.62 0 .39.66s.11.73.19.45.23.24 0 .29 0 1.32.31 1.76c.16.21.22.42.12.48s.42.61.13.79a.17.17 0 1 0 .19.27c.18-.16.52.14.16.28-.58.23.13 1.1 1 1.21.46.06.52 0 .28-.1-.59-.34.2.06 1.28-.94s.3-1 .66-.88 2.25-1.62 1.84-1.83c0 0 2.52-1.71 1.72-1.84-.35 0-.33-.06.11-.08.87-.05 1.17-1.4 1.84-2 .07-.07 0-.19-.18-.29s-.2-.15 0-.11c.71.15.55-1 1-.78s.11-.28.37-.57c.51-.56.56-.64.41-.64s-.14-.22-.09-.46c.13-.62-.41-.64-.29-.94s-.29 0-.52-.21.44-.07 0-.54c-.24-.26-.29-.25-.25 0 .09.65 0-.46-1.05-.46-.39 0-.69-.07-.69-.16 0-.66-2.9-.73-2.8-.82s-2-.54-2.32-.8-.77-.46-.84-.25-.11.08-.18-.09c-.17-.41-.85-.29-1.26-.6-.63-.47-1.27.91-1.87.53-.31-.2-.85.1-.63.35a.22.22 0 0 1 0 .3 2.86 2.86 0 0 0-.43 1.69Zm12.61 2.68c-.15-.37.14-.35.2 0 .11.54-.23.03-.2 0Zm.18-1c-.17 0-.38-.11-.32-.17s.84.21.32.2Zm-10-2c.61.69 1.43.74 1.66.94.59.5.72-.4.81 0 .13.65 2.5.77 2.55.55 0-.06 0-.05 0 0 0 .23 1.86.46 1.91.25s.28.23 1.08.35c2.32.35-1.91 2-1.21 2.38.39.19-.92.71-.79.59-.24 0-2.92 3.06-3.19 2.82s.23.08-.66.78c-1.18.94-.5-.13-1-.45-.16-.1-.56-4.26-1.23-4.59-.33-.16-.37-.23-.18-.3s.06-.78-.25-1c-.08-.06 0-.11.09-.14s-.72-3.51.44-2.18Zm-.62-2.05c.09.37-.28.26-.24.23-.19-.07.22-.47.27-.23ZM86.72 438.52c.09.41.29.52.82.42 1.07-.18 6.85 1.45 7.53.9.23-.19.26-.18.1.05s0 .29.63.3c2.27.05 1.36.66 2.26.54s1 .34.88 0c0-.13.09-.29.32-.38.4-.16.68-.95.41-1.15s.45-.32-.14-.65c-.19-.11-.3-.22-.23-.24.24-.1-.66-.44-.33-.74s.2-1 0-.95-.14-.91-.4-.57-.4-.07 0-.35.26-.19 0-.09-.7-.62-.28-.32-1.29-3.89-1.49-3.58-.8-2-.92-1.87-.91 0-.44-.14-.53-1.59-.57-1.5-.75-.21-.71-.43c.11-.56-1.74 1.09-1.93 1.16s-.09.11.11.15.16.13-.27.28-1.73 1.47-1.47 1.67c.08.06 0 .11-.2.11s-.27.05-.11.17.15.16 0 .13-1.21 1.09-1.11 1.35-1.45 1-1.12 1.4c.16.19-.44.14-1.55 2.38-.87 1.71.2 1.91.21 1.95Zm10.84-5.29c0 .09-.31.2-.33.15-.38.01.41-.33.33-.15Zm-6 6.1c-.22.09-.3 0-.11-.26s.15.46.07.26Zm4 0c-.39-.28-.49-.6-.13-.35.66.48.21.55.14.38Zm-3-9.65c.37.06.32.51.28.39s-.55-.42-.25-.36Zm-2.11 5.14c-.11.72 3.31-5.08 3.36-5.15.09.6.13 1 .34.9s.49 2.37.82 1.95c.09-.11.1.05 0 .36-.14.72.25 2 .51 1.67.14-.18.15-.16 0 .17s-.07.37.12.3.19 0 .11.09c-.2.31.19 1.47.41 1.2s.14-.12 0 .16c-.25.83.75.3.28 1.31-.14.3-.23.41-.2.24s0-.24-.24-.05c-.36.32 0 0-.42-.18a12.38 12.38 0 0 0-2.65-.26c-.95-.36-3-.63-3.14-.41s-.17.11-.23-.11a5.08 5.08 0 0 1 .96-2.16Zm-1 .32c.47.08.12.31.1.27-.2.12-.36-.28-.07-.24ZM124.42 484.84c.22.26.23.33 0 .26s-.19 0 0 .25c.37.45.3 1.19 1.47 2.21.25.22.4.27.37.12s0-.2.13-.06c.3.31.62-.31 1.87-.8.95-.37.65-.84 1-.77s.82-.6.32-.78 1.11.12 2.27-1.71c1.35-2.14 2.45-1.94 1.64-2.51-.23-.16-.21-.17.18-.06s.45.06.42-.07c-.06-.28.46-.17.59-.65.37-1.41-1.13-2.47-.62-1.85s-4.05-2.3-5.68-1.76c-.17 0-.79-.58-1.16-.5s-1.72-.42-2.23-.32c-.67.14-1.59-.55-1.89-.17-.12.16-.24.17-.35.05-.5-.53-1 .52-.31.14.24-.14.25-.12.08.07-.74.78-1.08-1.14-.37 2.36.23-.12 1.71 5.87 2.27 6.55Zm8.58-3.11c.23-.05.28.06.06.27s-.06-.49-.06-.27Zm-5.32 4.48c0-.28.17-.32.18-.27.14.06-.27.83-.18.27Zm-1.25-7.95c1.07.46.76-.43 1.72.14s1.31.1 1.37.38a2.17 2.17 0 0 0 1.28.35c.24-.11-.24.51.93.24a5.3 5.3 0 0 1-1 1.5c-.54.47-1.37 2.39-1.56 2.27s.13.29-.33.78 0 .71-.18.57-.78.57-.63.73-.07.16-.29.22c-.54.15-.38.51-.66.57s-.47-3-.94-2.89l-.13.05c0 .09-.07.05 0 0 .11-.22.28-1.26-1.12-5.17a9.71 9.71 0 0 1 1.54.26Zm-1.57 5c.27.1.39.61.06.28s-.07-.3-.06-.25Z"/><path class="cls-13" d="M126 483.17c-.07.05 0 .09 0 0ZM31.69 478c.13 1.54 1 1.3.71 1.58s.34.18.26.71c0 .31 0 .37.39.41s.41.05.07.1-.52.38-.06.42.43.41.06.34c-.2 0-.19.12.05.57.47.89.81.62.63 1s.6.81.41 1.21c-.09.2 0 .29.19.31s.26.07.07.23.16 1.61.43 1.12-.16.67.09.67.11 2.36 1 3.24c.43.42.58.48.67.27.29-.65.28 1.88 3.61-2.94-.16.16 2-3.15 2.14-3.31.62-.67.64-1.35.77-1.22s.06-1 .3-.76.33-.84.81-1.33-.39-.48-.14-.6-.29-.55-.65-.85c-1-.8-1.4-.07-2-.61-.18-.17-.38-.21-.46-.1s-.16.14-.21.06c-.14-.23-.87-.5-1-.37s-.15.05-.19-.08-.12-.14-.2-.06-.38 0-.69-.11c-.78-.37-.51.25-.84-.07-.13-.13-3-1-3.07-.64s-.72-.35-.8 0c0 .15-.1.12-.19-.08s-.18-.24-.26-.05c-.25.56-.92-.71-1.47-.4-.19.11-.17.13.11.09.77-.14-.62.19-.54 1.25Zm4.05 8c-.19.22-.27.15-.23.11-.01-.11.58-.45.23-.11Zm4.93-6.88c.25.25-.27.43-.19.35-.08-.04-.01-.47.19-.31Zm-5.68.49c.1.09.11 0 0-.24s-.11-.35.18 0a3.77 3.77 0 0 0 2.29.56c.23-.1.57.43.57.18s3.93.38 4.15 0c.11-.23.68 0-.83 1.72-.74.83-.18 1.12-.59 1s-1.06.68-.89.85 0 .2-.09.3c-.3.31-.31-.14-.59.34a.31.31 0 0 0 .11.47c.23.11.2.12-.11.07-.48-.1-.46.29-.43.26 0 .27-.06.31-.18.19s-1.24 1.6-1.25 1.65c-.33 1.48-1.34-4-1.94-4.31-.15-.06-.16-.14 0-.17.35-.08-.52-2.06-.87-2.48-.16-.18.29-.51.48-.35Zm-1 1c.11.41-.39.4-.32.32-.17-.1.23-.51.33-.27ZM77.63 479.37c.05-.11.12-.07.15.09.1.4.53.18.55.46s1.11.17.83.35.91.4 1.13.73.74 0 .75.24.76.47.95.28.37 0 .64.23c.77.69 1.65.34 1.6.66s.3-.16.43.15.36-.23.62.16 2 .72 2 .45c0-.1.2-.12.43 0 1 .36.64-2 .37-2s-.39-.49 0-.55 0-3 0-3.09c.12-1-.66-1.6-.41-1.77s-.3-.3-.53-2.08c-.12-.95-.43-.56-.32-1.13s-.43-.68-.22-.82-.52-1.23-.74-1.09-.17 0-.18-.11-.15-.12-.34 0c-.48.32-.25-.26-.49-.15-1.6.76-5.7 4.1-5.41 4.54s-.22-.17-.58.71c-.13.29-.23.42-.23.29s-.61.27-.93.84c-.24.41-.67.19-.3.37.2.1.19.16 0 .22-.46.11 0 .39-.31.4-.65.02.43 1.88.54 1.62Zm10.37 3.3c.05.09-.1.53-.25.31s.31-.37.25-.31Zm-7.38-2.12c-.34.08-.46 0-.24-.16s.62.07.2.16Zm-1.66-2.09c.07-.33 1.28-.67 1-1-.11-.17-.08-.18.14-.09s.28 0 .28-.11c0-.38.78-.31.36-.49s.45-.24.81-.49c.54-.36 3.1-2.81 3.73-2.65 0 0 .15.05 0 .07s.08 1.37.36 1.7-.13.81 0 1.11c.49.87.38 1.7.62 1.22s-.16 1.35 0 1.26c.34-.22-.49 2.56-.53 1.51 0-.31-.61 0-.62-.28s-.29.08-.48-.21-1-.43-1.09-.22-1.24-.15-.36-.1c.42 0 .43 0 .08-.1-.51-.16-1.09.12-1.21-.06s-1-.43-1.11-.25-.1.1-.12 0c-.09-.28-1.19-.65-1.29-.43s-.13.09-.18-.1c-.15-.46-.48-.01-.43-.29ZM-7.52 490.29c.08-.06.07.06 0 .28-.23.58.61 1.39.29 1.24s0 1.66.14 1.53.16.29.21.77c.1 1.2.83 1.73.51 1.59s-.22.3 0 .28.26 1.46.53 1.61c.48.28-.28.93 1.31 1.59l1 .42A18.74 18.74 0 0 0 2 494.68c.21 0 1.67-1.41 1.86-1.27s0-.43.82-.71.19-.17.79-.94c.23-.29.35-.4.29-.24-.3.68 1-.59-.63-1.59-1.23-.76-1.73-.42-2.22-.64-.26-.11 0 .31-.3.34-.11 0-.15-.1-.11-.25.09-.39-.32-.55-.62-.23s-.24.21-.18 0c.15-.63-1.84-.39-1.8-.48.21-.44-5-1.11-5.44-1.33-.75-.37-2.1-.06-1.64.64.08.13 0 .08-.2-.11-1.07-1.05-.33 2.57-.14 2.42Zm3.58 8.61c0-.32.14-.34.15-.29.48.21-.02 1.39-.15.29Zm-.9-9.46c.14-.11.18-.08.11.07s.26.26 1 .14c.34 0-.18.22.71.44a5.7 5.7 0 0 0 2.48.43c.69-.18.06 0 1.36.41s.83-.25 1.25.19c.56.6-.41.51-.36.89 0 .21-1.07.65-1 .9s-.39-.1-.35.2-.78.06-.32.52.23.28-.3.4-2.11 2-1.93 2.26 0 .1-.22.06-.28 0-.18.11c.25.33-.46-.07-.43.23s-.81.93-1 .83c-.49-.23 0-.27 0-.18s.18 0 .07-.19-.07-.27 0-.22 0-1.43-.28-1.76q-.18-.24.06-.12c.58.29-1.18-5.22-.67-5.61Z"/><path d="M327.44 150.18c6.56-4.37 11.48-19.67 3-32-8.9-12.92-42.89-27-80.87-18s-55.73 30.6-74.3 57.91-30.87 40.16-43.17 48.63c0 0 7.11 16.39 25.14 32.79s27.32 22.94 42.89 19.25 83.05-55.86 83.05-55.86Z" style="fill:#b16333"/><path class="cls-6" d="M323.62 138.43c1.36-6.82-2.19-17.21-18.31-24-12.41-5.25-45.34-8.46-70.75 4.65s-31.42 36.06-51.36 58.19-35.79 29-48.63 30.05"/><path class="cls-6" d="M309.69 138.16S305 125.32 284 122.32c-16-2.29-33.88 1.64-50.27 16.39s-25.41 37.15-42.62 56.55c-15.63 17.62-35.51 25.13-48.35 25.13"/><path class="cls-6" d="M279.91 141.17c-7.65-3.55-27.87-.82-42.62 19.12s-30.17 45.94-46.44 59.28c-13.66 11.2-29.78 12.84-37.43 12.84M268.71 166c-7.65 1.36-26.17 3.19-48.36 44.25-23.76 44-50.81 36.34-50.81 36.34"/><path class="cls-15" d="M311.27 184.59a58.4 58.4 0 0 1 17.79-.89c9.42 1.06 13.52 5 13.52 5s-.36 16-8 19.74-18 .71-21.52-5.87-1.79-17.98-1.79-17.98Z"/><path class="cls-7" d="M327.58 139.53s-7 0-20.49-.41-23.36-2.05-29.09 7-6.56 25.41-9 38.52a105.85 105.85 0 0 1-6.56 22.13l-12.7-1.23s.82-10.65-7.38-16.39-24.24-7.06-32 9.43c-8.06 17.21 4.1 32 13.93 38.11 0 0-5.73 16.8-24.17 22.12 0 0-10.25 49.18-16 54.92 0 0 14.75 22.53 26.22 36.88s26.23 21.31 26.64 27 5.73 45.49 5.73 45.49 4.51-41 9.43-46.72 22.95-22.94 32.37-47.94c4.65-26.23 7.79-41.8 7.79-41.8s16 1.23 23.77-6.76 7-15.37 6.35-19.88-1.85-8.4 0-10.85 3.07-5.74 2.66-6.56-6.69-1.37-11.68-3.89a39.17 39.17 0 0 1-7.85-5.06l.68-4a116.58 116.58 0 0 0 12.7 5.74c5.33 1.84 8.81 2.05 10 1s1.31-10.38 1.31-10.38 6.76-.41 9.84-1.43 5.58-3.91 3.89-7.58c-3.48-7.58-11.54-20.83-12.16-25.55s3.76-2.93 3.76-15c0-14.17-7.99-36.91-7.99-36.91Z"/><path class="cls-16" d="M324.3 242.59a50.61 50.61 0 0 1-10.86-3.89 39.17 39.17 0 0 1-7.85-5.06M306.89 230a109.83 109.83 0 0 0 11.11 4.14c5.4 1.63 8.5 2.15 10 2"/><path d="M296.3 175.59a46.76 46.76 0 0 1 25.41 0" style="stroke:#b16333;stroke-width:6.8px;stroke-linejoin:round;stroke-linecap:round;fill:none"/><path class="cls-18" d="M224.31 236.65c5.74 2.87 17.21 4.3 24-1.23M304.22 209.19c1.64 4.71 3.69 13.52 2 20.49A71.83 71.83 0 0 1 295 253.45M227.39 205.3c3.28 4.3 11.88 16.59 11.88 16.59"/><path d="M314.07 194.86c-.42 2.51-1.58 3.64-3.44 3.33s-2.6-1.75-2.18-4.27 1.58-3.63 3.44-3.32 2.6 1.75 2.18 4.26Z"/><path class="cls-15" d="M295 180.51a67.26 67.26 0 0 1 20.49-1c10.86 1.23 15.57 5.74 15.57 5.74s-.41 18.44-9.22 22.74-20.69.82-24.79-6.76-2.05-20.72-2.05-20.72ZM332.6 185.42a36.4 36.4 0 0 1 7 1.23"/><path d="M294.93 181.87c-10.92.82-47.8-1.64-52.59 7.24" style="stroke-width:6.8px;stroke-linejoin:round;stroke:#010101;fill:none"/><g style="opacity:.4;mix-blend-mode:multiply"><path d="M285.16 238c-6.17-1.06-8.51-6.2-7-15.23s5.49-13.08 11.66-12 8.51 6.2 6.95 15.23-5.45 13.07-11.61 12Z" style="fill:#f49b87"/></g><path class="cls-6" d="M158.34 329.67c3.28 12.7 41.8 61.88 50.81 70.07L237 377.61M252.18 376.38s20.9 17.62 24.18 21.72c0 0 10.65-16 16.8-29.5s9.42-30.74 9.42-30.74M242.34 421.46c-4.5 25 4.51 81.14-2 137.69s-25.41 217.18-24.18 267.18M358.31 479.65c.82 21.31-8.19 55.73-13.11 87.69s-7.79 111.46-7.79 111.46"/><path class="cls-6" d="M378.8 487.84c-4.1 15.58-23.76 35.25-29.5 53.28M119 479.65c0 19.67-13.11 75.4-23 98.35s-23 46.71-23 46.71 8.2 10.66 0 22.13M133.75 496c-6.55 17.21-22.13 34.42-22.13 34.42"/><path class="zero" d="M235 390.93a2.67 2.67 0 1 1-2.67-2.66 2.66 2.66 0 0 1 2.67 2.66Z"/><circle class="zero" cx="250.54" cy="492.15" r="2.66"/><path class="zero" d="M251.56 430.06a2.66 2.66 0 1 1-2.66-2.66 2.66 2.66 0 0 1 2.66 2.66Z"/></g></g></g></svg>