<svg xmlns="http://www.w3.org/2000/svg" viewBox="0 0 280 280"><defs><clipPath id="clip-path"><circle id="SVGID" class="cls-1" cx="140" cy="-220" r="129"/></clipPath><clipPath id="clip-path-2"><circle id="SVGID-2" data-name="SVGID" class="cls-2" cx="140" cy="140" r="129"/></clipPath><style>.cls-1{fill:#153745}.cls-2{fill:#fcbf22}.cls-7{fill:#eaa28d}.cls-9{fill:#825048}.cls-10,.cls-18{fill:none;stroke-linecap:round;stroke-linejoin:round}.cls-10{stroke:#5d3933;stroke-width:1.29px}.cls-11{fill:#e7937d}.cls-13{fill:#e9e3cf}.cls-18{stroke:#010101;stroke-width:.86px}</style></defs><g style="isolation:isolate"><g id="Layer_1" data-name="Layer 1"><circle id="SVGID-3" data-name="SVGID" class="cls-1" cx="140" cy="-220" r="129"/><g style="clip-path:url(#clip-path)"><path d="M116.43-165.29c-15.06 6.29-51.5 17.9-79.69 44.61C4.13-89.79-25.61-34.88-42.2 5.73s0 73.78 30.32 76.64 52.05-21.16 52.05-21.16l36.6-88.66s0 111-.57 125.84c0 0 26.31 7.43 73.79 5.72s63.49-10.3 63.49-10.3-1.15-51.48-2.86-77.81 6.86-62.92 6.86-62.92l37.18 95.52s17.73 38.4 53.76 29.19 37.18-51.47 27.46-88.08-47-91.37-73.22-115.54c-37.17-34.32-86.55-43.09-86.55-43.09Z" style="fill:#047889"/><path d="m183.61-167.21-2.5 5.74c-12.65 29.05-36.18 83.11-65.33 130.3-12.11 19.61-26.36 39.39-39.07 56-4.17 0-4.38 52.77-.21 52.78C91.38 59.73 120.66 23.12 143.58-14 174-63.18 198.1-118.63 211.07-148.42c1.31-3 2.48-5.7 3.53-8.08 2.4-6.86-28.6-17.58-30.99-10.71Z" style="fill:#010101"/><path class="cls-7" d="M72-125.45c8.49-3.77 18.68-7.43 28.41-3.81s17.73 8.2 18.3 12.39-.57 5.91-.57 5.91 4.95 3.63 4.57 9.16-3.43 7-3.43 7 5.24 5.1 3 11.25c-1.54 4.32-3.62 5.15-3.62 5.15s5.72 7 .76 12-13.73 1.14-16-2.86a37.76 37.76 0 0 1-9.73 3.81S88.4-37.74 80-13.15c-7.84 23-28.22 62.54-39.85 74.36 0 0-25.78-5.94-41.18-22.88-15.24-16.78-14.09-25.55-14.09-25.55S4.1-15.39 14.43-30.12 33.88-58.33 37.5-66.91s5.34-19.45 11.63-33.94S65.14-122.4 72-125.45ZM170.86-111.81c-.61-4.48 6.3-11.73 11.44-14.59a57.07 57.07 0 0 1 9.15-4.15l.15-5s12.15-4.29 22.16.29 22.59 8.58 35.18 27.74 37.18 58.34 45.18 73.78S310.71-4 310.71-4 304.42 23.17 287 34s-32.31 14.58-32.31 14.58-20.59-35.17-30.6-60.91-16-39.18-17.45-42.9-12-16.59-12-16.59a114.78 114.78 0 0 1-11.3 5.58c-4.14 1.57-6.72 0-7.72-3.14a12 12 0 0 1 .29-6.73s-4.86-1-5.72-5.57 2.86-8.3 2.86-8.3-5-.71-5-5.43 6-12.15 6-12.15-2.61-.11-3.19-4.25Z"/></g><circle id="SVGID-4" data-name="SVGID" class="cls-2" cx="140" cy="140" r="129"/><g style="clip-path:url(#clip-path-2)"><path class="cls-9" d="M130.56 186.25s1.24-7 13.34-12.64c8.79-4.1 24.78-5.46 37.25-2.89 13.33 2.75 33.53 10.77 41.23 28.91s11.91 45.45 11 76.79-11 80.27-11 80.27l-93.65-17.22s13-45.82 20.16-66.35S161 241.6 160.25 237.2s-4.94-20.2-4.94-20.2-1.31 13.6-6.79 16.9-9.89.55-10.26-5.31a37.7 37.7 0 0 1 4-18.69c3.12-6.42 5-8.44 5-8.44s-7.88 3.67-11.36 9.9-8.43 8.8-11.91 6.42-3.49-6.6-2.2-11.18a26 26 0 0 1 4.76-8.62 9.11 9.11 0 0 1 .19-6 23.93 23.93 0 0 1 3.82-5.73Z"/><path class="cls-10" d="M126.53 198c6.65-8.15 20-19 38-21.07M130.56 186.25c6.33-5.49 18.29-14 31.76-13.88M147.24 201.46c6.14-8.2 17-11.91 25.66-13.28M155.31 217l5.08-4s4.67 4.53 10.72 4.39c0 0-1 12 7.7 19.94s15.39 7.14 15.39 7.14"/><path class="cls-11" d="M132.21 206.69c2-6-3.08-7.4-6.28-7.81.55-.62 1.19-1.37 1.79-2.18 1.65-2.2 7.52-7.15 7.52-7.15.73-2.47-.74-6.14-.74-6.14s-2 1.07-3.68 2a6.06 6.06 0 0 0-.26.85 23.93 23.93 0 0 0-3.84 5.68 9.11 9.11 0 0 0-.19 6 26 26 0 0 0-4.76 8.62c-1.29 4.58-1.29 8.79 2.2 11.18a4.93 4.93 0 0 0 2.32.85 54.64 54.64 0 0 0 5.92-11.9ZM139.42 217.6a34.55 34.55 0 0 0-1.16 11c.3 4.76 3.26 7.47 7.31 6.55.28-1.72.63-3.85 1-6.19 1-5.75-1.78-9.62-7.15-11.36Z"/><path d="M128.73 339.47s18.05-12.19 52.14-5.59 41.51 22.81 41.51 22.81-8.52 64.06-42.61 102S99.5 495 78.06 490s-52.23-29.12-68.73-65.41a312.1 312.1 0 0 1-22-68.17L-61 493.87s-46.19 5.5-81.92 5.5a366.06 366.06 0 0 1-65.43-6.05s2.75-87.42 26.94-169.34 68.18-129.75 101.16-154S-1.11 138.7 3.83 136.5 22 126.05 22 126.05l24.19 18.69 25.55 50.86S88 208.52 93.45 239.86 119.29 368 119.29 368Z" style="fill:#ccc191"/><path class="cls-13" d="M87.15 222.92c1.75 2.07 2.08 1.43 2.37 1.54-1-2.87-2-5.51-3.16-7.92-.85.83-1.36 3.84.79 6.38ZM92.11 237.79c.7-.9-2.27-.57-2.27-.26.7 0-4.54 1.82-4.47 7.55.12 9.27 9.34 5.27 8.64 4.13-.1-.16-.05-.27.13-.27s.47-.6.74-1.25c-.55-2.92-1.67-9.18-1.8-9.84-.99-.04-1.61.76-.97-.06Zm.32.94c-.25.25-1.36-.12-.44-.17.52-.03.52.17.44.17ZM88.67 270.08c.2.15.16.24-.1.24-.72 0 .92 3.49 1.91 4s2.83.56 3 .09a.88.88 0 0 1 .81-.4c.74 0 2.39-1.58 2.11-2s1-.54.7-1c-.11-.17 0-.35.21-.43.51-.17.8-5.31.31-5.31-.18 0-.25-.24-.16-.51s0-.44-.4-.28-.5.08-.36-.15c.27-.44-.74-1.5-1.17-1.23-.18.11-.3.08-.3-.08 0-.34-2.34-.4-2.54-.07a3.58 3.58 0 0 0-3.31 1.56c-.37.51-.44.75-.17.59s.23 0-.13.4c-.92 1 0 3-.47 2.69s-.35 1.6.06 1.89ZM-1.48 146.08c.28.94 2 2.29 2.49 2s-.23.56 1 .88c.9.24 4.1-1 5.1-2a11.48 11.48 0 0 0 2.66-8.68 6.58 6.58 0 0 0-1.3-1.78 4.48 4.48 0 0 0-2-1.31c-1 .52-1.86 1-2.57 1.28a22.84 22.84 0 0 1-3 .89 9.58 9.58 0 0 0-2.38 8.72ZM30.58 148.22c.41 0 .43.07.1.28s-.3.4.14.76c1.19 1 2.81.31 1.81 1-1.31.85 2.53.46 3.6.37 2.29-.18 5.18-7.35 3.43-8.47-.25-.15-.22-.29.08-.4.47-.17-3.62-5.84-7-2.42-3.65 3.58-2.87 8.88-2.16 8.88ZM30.66 171.49c0 .19-.13.24-.33.12-.89-.55-.2.52.91 1.4 1.64 1.32 4.8 2.23 4.8 1.39 0-.5 1.12.2.9-.17s.64-1.15.88-.91c.74.74 3.39-6.75.29-9.93-2.44-2.49-5.78-1.28-7.11 1.3-.86 1.65-.73 4.39-1.18 5.09-.1.17 0 .32.24.32s.32.07 0 .32c-1 .58.6.34.6 1.07ZM-.75 170.16c.54 0-.41 2 .27 1.54s.09.43 1.16 1.43 4.32 1.17 5 .29a1.44 1.44 0 0 1 .91-.33c1.42-.12.06-.68 1.49-1.83s3.24-6.71 1.8-7.27c-.85-.34.33-1.73-.69-1.36-.3.11-.53.06-.49-.1.3-1.64-.7-.53-.7-1.13s-1.58.12-1.76-.44-.29 0-.37 0c-.57.9-2.21-.35-4.48 2-.81.84-2.23 4.36-1.94 4.84.11.18.06.3-.12.3-.43.04-.51 2.06-.08 2.06ZM65.48 183.67c.41-.67-1.75 0-1.84 0-2.61 1-3.29.82-4.63 3.66-2.23 4.75.36 6.1-.59 5.53-.56-.34-.54.45-.09.45s0 1.21 1 1.51.87 1.18 1.37 1.18c.21 0 .26-.19.12-.42s-.15-.34.25 0c.68.54 3.33.86 3.33.4 0-.21.14-.26.34-.14.49.3.59-.93 1-.65s.91-1.53 1.36-1.53c.64 0-.36 0 1.23-1.83a4.14 4.14 0 0 0 .76-1.44l-3.32-6.6c-.26.03-.43.1-.29-.12ZM-.93 196.88c.63-.24.57.46.15.46s0 1.1.23.86.39.08.61.39c.37.5.49.51 1 .08.85-.68-.22.14.78.68.8.43 1.13.45.89 0-.11-.16.08-.23.42-.14 1.8.47 7.61-7.29 4.67-11.45-1.93-2.74-2.51-1.4-3.46-2-.37-.22-.86.36-.94.36-.93.92-.9-.67-1.35 0-.33.53.32 1.1-.28.86s-1 1.7-1.65 1.32c-.24-.14-.3-.09-.16.14.27.44-.44 2.14-.8 1.92s-1.11 1.74-1.06 2.78c.11 2.39.5 3.91.95 3.74ZM27 195.1c.21-.13.25.09.1.56-.19.64-.13.74.36.56s.52-.15.16.27c-1 1.18 3.63 3.7 5.2 2.79.43-.26.54-.25.37 0s0 .39.28.39c.79 0 .34-.82.84-.53s.39-.48 1.4-.48.95-1.07 1.27-.86 1.72-.82 1.72-1.36c0-.27.15-.47.35-.47.54 0-.22-1.64.2-1.24 1 1 .89-5.48 0-5.48-.14 0-.27-.24-.27-.51s-.37-.59-.8-.7c-1.42-.36-.66-1.72-1.85-1.4-.68.19-3.88-1.56-6.19-.11-3.89 2.47-3.64 8.86-3.14 8.57ZM-1.55 222.92c1.24 1.29 1.34.47 1.34.91 0 1.18 6.83-1.63 6.17-2.66-.28-.44 1 .32 1.36-.48.15-.4 0-.48-.55-.34s-.7.14-.17-.25c1.27-.95 5.19-9.6-3.21-9.6-1.55.28-1.91.58-1.25 1.05.42.29.41.32-.06.16-.71-.22-2.06 1-1.81 1.7.03.08-5.03 6.19-1.82 9.51ZM59.78 224.37c-.25.4 2.22.17 3.46-.33s3.69-2.78 3.56-3.37a.34.34 0 0 1 .34-.44c.51 0 1.31-1.88 1.07-2.52-.31-.82.85-.58.2-1.34-.49-.59-.15-2.05-2.08-3.71-1.29-1.11-2.54-.12-2.19-.7s-2.08-.47-2.58 0c-.75.74-.77-.23-1.08.62s-.82.14-1.81 1.56c-.89 1.27-4.36 8.53-2.86 7.95.33-.13.41 0 .27.35-.27.73.21-.11 1.23.84a3.14 3.14 0 0 0 1.69.74c.51.06.87.2.78.35ZM27.35 221.1c-.45-.27-.44.58 0 2.53.19.8 2.57 3.07 3 2.83.2-.13.26 0 .14.29-.6 1.56 3.65 1.21 3 .17-.13-.21.13-.14.57.15 1.21.8 2-.46 1.78-.47s0-.24.35-.52c.62-.47 2.48-9.11-2.82-13.16-2.59-2-2.45-.59-2.6-.59-.38 1-1.15-.62-1.92.16-.29.28-.24.33.2.16.87-.32.35.89-.34.63-.87-.34.09.93-.35.87-.91-.13-1.12.13-1.05 1.31.08 1.37-.7 4.37.09 5.41.34.4.32.45-.05.23ZM67.1 236.29c-6-2.13-8.32 12.33-5.51 10 .65-.55.14.83-.45.59s-.21 1.22 2.23 2.07c6.03 2.05 10.54-10.26 3.73-12.66ZM-1.48 246.93c.28.94 2 2.3 2.49 2s-.23.57 1 .88c.9.24 4.1-1 5.1-2a11.45 11.45 0 0 0 2.66-8.67 6.28 6.28 0 0 0-1.3-1.78c-4.47-4.78-11.78 3.2-9.95 9.57ZM39.66 243c-.25-.16-.22-.29.08-.41.47-.17-3.62-5.84-7-2.42-3.61 3.62-2.83 8.91-2.12 8.91.41 0 .43.07.1.29s-.3.39.14.75c1.19 1 2.81.32 1.81 1-1.31.86 2.53.46 3.6.38 2.25-.23 5.14-7.39 3.39-8.5ZM70.18 264.27c-.48.3-.77-1.18-.39-.94.17.1.3 0 .3-.17 0-.52-.78-.22-.54-.62.44-.73-2.84-2.32-2.28-1.36.26.43 1-.38.66.27s-1.19-.81-1.94-.81c-.27.25-1.8.4-2.75.88-2.57 1.29-3.08 4.09-3.51 4.24-.65.23.61 1.64 0 1.28s-.89.93-.35.61c.22-.14.15.1-.15.53-1.37 2 1.61 5 4.47 4.49s5.22-3.76 4.9-4.08c-.1-.11.13-.56.51-1 1.08-1.16.63-2.3 1.14-3.14.18-.23.15-.32-.07-.18ZM37.82 274.18c.74.73 3.39-6.75.29-9.93-2.44-2.5-5.78-1.28-7.11 1.29-.86 1.66-.73 4.39-1.18 5.09-.1.17 0 .32.24.32s.32.08 0 .32c-1 .62.65.35.65 1.08 0 .19-.13.23-.33.11-.89-.54-.2.52.91 1.41 1.64 1.31 4.8 2.22 4.8 1.38 0-.49 1.12.2.9-.17s.59-1.14.83-.9ZM9.85 264.84c-.85-.33.33-1.73-.69-1.36-.3.11-.53.07-.49-.1.3-1.64-.7-.51-.7-1.12s-1.58.11-1.76-.44-.29.05-.37.05c-.57.9-2.21-.35-4.48 2-.81.84-2.23 4.37-1.94 4.84.11.18.06.3-.12.3-.4 0-.48 2-.05 2s-.41 2 .27 1.55.09.44 1.16 1.44 4.32 1.16 5 .28a1.56 1.56 0 0 1 .91-.33c1.42-.12.06-.67 1.49-1.82s3.21-6.73 1.77-7.29Z"/><path class="cls-1" d="M87.4 98c7.15-7.33 15.22-19.61 24.38-29.32s23.46-19.43 43.07-17.78c20.7 1.74 30.32 9.8 38.85 19.06s13.38 25.11 10.54 31.61C200.08 111.11 151 132.1 151 132.1l-47.1-9.17-17.23-11.54Z"/><path class="cls-9" d="M87.4 98c-12.92 10.72-22 16.77-41.23 24.74s-22 8-22 8 8 18.42 9.62 28.32 1.37 12.09 1.37 12.09A168.53 168.53 0 0 1 55 181.85c8 5.23 16.77 13.75 16.77 13.75l46.7-34.6s19 20.07 36 16.22 22.27-24.46 22.27-24.46 15.39.09 16.77-1.56-5.5-10.45-3.3-17.69c.53-1.76 7.7-1.37 12.09-10.72s1.93-21.17 1.93-21.17-14-7.42-17.87-12.37a78.5 78.5 0 0 1-15.67 11.55c-9.35 5.22-19.52 17.59-19.52 17.59l-3.85-3.3s6.88-11.27 4.68-20.61-14.3-14-25.29-7.7-9.35 23.37-9.35 23.37-6.6 3.29-17.59-1.65S87.4 98 87.4 98Z"/><path class="cls-10" d="M135.79 95.26c-6 13.2-2.75 18.14-2.75 18.14M117.37 110.11c1.1 9.89 8.25 14.29 12.92 14.29M118.47 161c-2.48-3-8.39-13.06-9.62-16.9"/><path d="M183.21 113.27c6.32 2.88 13.61 14.29 13.61 14.29" style="stroke-width:3.87px;stroke:#010101;fill:none;stroke-linecap:round;stroke-linejoin:round"/><path d="M179.16 130.81c-1.46 1.34-2.71 1.48-3.7.4s-.77-2.31.69-3.66 2.7-1.48 3.7-.4.76 2.31-.69 3.66Z"/><g style="mix-blend-mode:multiply"><path d="M148 145.32c-3-3.53-2-7.59 3.21-12s9.36-4.92 12.4-1.39 2 7.6-3.22 12.05-9.39 4.88-12.39 1.34Z" style="fill:#f49b87"/></g><path d="M165.2 153.54c4.4 1.92 8.94 4.4 8.94 4.4" style="stroke:#df6d58;stroke-width:3.01px;fill:none;stroke-linecap:round;stroke-linejoin:round"/><path class="cls-18" d="M35.17 171.13c-19.24-6.46-35.32-8.52-46.46-6.46M34.07 165.5c-1.65-1.65-19.38-10.31-33.81-12"/></g></g></g></svg>