<svg xmlns="http://www.w3.org/2000/svg" viewBox="0 0 280 280"><defs><clipPath id="clip-path"><circle id="SVGID" class="cls-1" cx="140" cy="140" r="129"/></clipPath><style>.cls-1{fill:#047889}.cls-5{fill:#ef9657}.cls-7{fill:#f09e64}.cls-14,.cls-8,.cls-9{fill:none;stroke-linecap:round;stroke-linejoin:round}.cls-8{stroke:#c5513d}.cls-14,.cls-8{stroke-width:.86px}.cls-14,.cls-9{stroke:#010101}.cls-9{stroke-width:2.58px}.cls-10{opacity:.44;mix-blend-mode:multiply}.cls-11{fill:#f49b87}</style></defs><g style="isolation:isolate"><g id="Layer_1" data-name="Layer 1"><circle id="SVGID-2" data-name="SVGID" class="cls-1" cx="140" cy="140" r="129"/><g style="clip-path:url(#clip-path)"><path d="M96.7 181.27c-12.92 5.57-58 12-104.29 49.33s-63.06 96.09-59.2 134.7 35.61 58.77 62.2 51.05 49.76-45.05 49.76-45.05L52 399.19l149.71 2.57 12.44-102.1L257.52 364l-3.43 23.59 31.74 54.48s42-29.17 44.61-72.92-16.3-91-46.76-121a256 256 0 0 0-87.08-55.77c-21.88-8.15-28-12.11-28-12.11Z" style="fill:#a5bcc5"/><path class="cls-5" d="M112.14 118.16c-2.1 19.45-6.29 45-9.15 53.38s-6.29 9.73-6.29 9.73 12.58 26.12 20.21 39.46S130.25 239 132 239s10.49-12 18.68-25.16 17.93-33.56 17.93-33.56-8.39-4.95-6.49-20.59 4.58-27.83 4.58-27.83Z"/><path d="M113.09 80.79c1-5.91 3.15-15.78 8.3-23.93S133 42.89 143 38.13c12-5.72 24.45-4.29 29.17-3.29a22.15 22.15 0 0 1 8.58 4.29s5.29-.43 8.15 1a12.33 12.33 0 0 1 4.41 3.87s9.58 1.58 9 5.29-5.14 15.71-10.86 25.45S180.59 89 180.59 89s.14 21-7.3 25-55.19 3.53-55.19 3.53l-7.48-9.25Z" style="fill:#183846"/><path class="cls-7" d="M132.35 62.11s-10 10.31-15.54 23.64c-3.43 8.29-6.38 14.3-6 32.6s11 30.5 26.88 31.84 24-8.58 28.22-15.64 7.81-21.16 7.81-21.73 2.48-17 1.34-24.79a64 64 0 0 0-2.48-11.43 198.35 198.35 0 0 1-21.35-5.34 75.11 75.11 0 0 1-18.88-9.15Z"/><path class="cls-7" d="M180.59 89s10.29-1 8.58 9.53-7.06 14.68-10.68 15.83-5.53.57-5.53.57a131.21 131.21 0 0 0 5.15-14.11c1.52-5.73 2.48-11.82 2.48-11.82ZM113.09 80.79s-4.38-3.62-11 .38-6.68 13-4.2 19.07 8.58 9 12.78 8c0 0 .95-8.77 1.9-15.25a63.77 63.77 0 0 0 .52-12.2Z"/><path class="cls-8" d="M157.14 93.37c-3 5-4.91 12.35-4.77 16.21s1.33 6.77-.38 8.63-9.15-2.15-9.15-2.15"/><path d="M134.06 99.1c-.34 1.44-1.06 2-2.12 1.79s-1.44-1.11-1.1-2.55 1-2 2.12-1.79 1.44 1.11 1.1 2.55ZM166.37 104.54c-.34 1.43-1.05 2-2.12 1.79s-1.43-1.11-1.09-2.55 1.05-2 2.12-1.79 1.43 1.11 1.09 2.55Z"/><path class="cls-9" d="M127 85.86c4.14-.91 13-.53 18 3.64M158.38 92.59c3.64-1.5 12.51-2.29 15.87.21"/><g class="cls-10"><path class="cls-11" d="M125.73 122.13c-3.6 0-5.41-2.74-5.36-8s1.9-8 5.51-7.92 5.41 2.74 5.37 8-1.91 7.95-5.52 7.92Z"/></g><g class="cls-10"><ellipse class="cls-11" cx="162.7" cy="120.31" rx="7.97" ry="5.44" transform="rotate(-65.67 162.695 120.311)"/></g><path d="M137.62 121.71a14.94 14.94 0 0 0 13.73 3" style="stroke:#df6d58;stroke-width:3.44px;fill:none;stroke-linecap:round;stroke-linejoin:round"/><path class="cls-8" d="M104.71 87.65c2.09 4.77 5.91 14.11 5.91 14.11M184 97.57c-4.39 2.29-7.63 8.77-7.63 8.77"/><path d="M162.47 132.46c-7.24 5.72-10.29 7.24-14.1 7.24s-4.77-7.24-6.49-7.62-4.19 2.28-7.43 3.62-7.82 0-13.35-8.77c-5.14-8.16-6.49-25.54-4.51-40.66-3.33 8-6.16 14.16-5.78 32.08.38 18.3 11 30.5 26.88 31.84s24-8.58 28.22-15.64a60.8 60.8 0 0 0 4.51-10.37 43.09 43.09 0 0 1-7.95 8.28Z" style="fill:#153745;opacity:.31;mix-blend-mode:multiply"/><path class="cls-14" d="M132.35 62.11c7.48-8.54 17.49-17.69 30.93-22.55M141.26 66.73c6.44-9.44 25.46-26 39.47-27.6M193.31 44c-8 1.43-29 14.87-37.75 28M172.58 76.6a32.61 32.61 0 0 0 13.58.28"/><path d="M180.81 186.17C141.59 287 109.69 356.5 89.53 381.76a10.75 10.75 0 0 0 16.81 13.41c14.28-17.9 33.26-54 56.42-107.42 11.93-27.49 24.57-59 38.05-93.71 1.95-4.99-18.06-12.87-20-7.87Z" style="fill:#fcbf22"/><path class="cls-5" d="M-3.3 309.53s29.17-30 44.61-41.18 35.61-20.59 53.62-15.87 26.6 20.16 30.89 33 11.58 34.74 4.72 36.89-10.3-3-13.3-9.44a79.29 79.29 0 0 1-4.15-10.44s2.29 7.25-2.86 9.92-8.19-2.29-10.29-6.29c0 0 5 9.53-.57 12.58s-10.68-1.53-12.78-4.2c0 0 3.82 2.67.77 5.92s-10.49 0-10.49 0-23.74 40.32-31.7 50.85c0 0-23.21 6.15-42.08-17.49s-6.39-44.25-6.39-44.25Z"/><path class="cls-8" d="M99.94 306.15c-3.62-6.3-9.53-18.12-11.25-25.74M113.09 302.52c-1.71-10.48-6.67-23.07-10.67-29.17"/><path class="cls-14" d="M214.19 299.66c2.43-22 3-36 3.29-44M225.49 275.35a169.67 169.67 0 0 1-10.3 26"/></g></g></g></svg>