<svg xmlns="http://www.w3.org/2000/svg" viewBox="0 0 280 280"><defs><clipPath id="clip-path"><circle id="SVGID" class="cls-1" cx="140" cy="140" r="129"/></clipPath><style>.cls-1{fill:#bab891}.cls-6{fill:#eaa28d}.cls-7{fill:#153745}.cls-9{opacity:.64;mix-blend-mode:multiply}.cls-10{fill:#f49b87}.cls-13,.cls-14,.cls-15{fill:none;stroke-linecap:round;stroke-linejoin:round}.cls-14{stroke:#c5513d}.cls-13,.cls-15{stroke:#010101}.cls-13{stroke-width:3.24px}.cls-14,.cls-15{stroke-width:.93px}</style></defs><g style="isolation:isolate"><g id="Layer_1" data-name="Layer 1"><circle id="SVGID-2" data-name="SVGID" class="cls-1" cx="140" cy="140" r="129"/><g style="clip-path:url(#clip-path)"><path d="M320.38 282.66c-38.82 17.26-86.26 1.23-86.26 1.23s-6.78 61-8 90.58 3.08 86.87 3.08 86.87h-18.07c-2.89-13.52-10.78-49.93-16-69.62-6.47-24.49-19-64.69-23.57-104.9s-5.23-83.18-5.85-92.88-61.62-2.47-61.62-2.47c-2.31 24.19-2.31 46.83-3.23 75S94 345.05 91.18 379.24c-2.27 28-.52 68.37.2 82.1H-7.41s-10.47-146 14.18-197.16 69-61.62 69-61.62c9.86-16.63 24-28.34 37.58-32 0 0 20.34-2 38.82 1.24s32.35 15.71 32.35 15.71c12.48 0 36.51 3.69 62.39 14.79a396.89 396.89 0 0 0 47.59 16.9s0-6.78-3.08-22.8-8.62-32-6.16-40.05 58.53-19.71 58.53-19.71 11.09 38.81 16 64.08-.59 64.69-39.41 81.94Z" style="fill:#d1ceb4"/><path d="M211.13 461.34H91.38c-.72-13.73-2.47-54.1-.2-82.1 2.77-34.19 8.77-84.56 9.7-112.75s.92-50.83 3.23-75c0 0 61-7.24 61.62 2.47s1.23 52.68 5.85 92.88 17.1 80.41 23.57 104.9c5.2 19.67 13.09 56.08 15.98 69.6Z" style="fill:#df6d58"/><path class="cls-6" d="M110.89 131.71c1.23 13.55-4.31 46.83-6.78 59.76 0 0 20.34 8.63 38.82 6.78s22.8-4.31 22.8-4.31-3.08-42.51-2.47-55.45Z"/><path class="cls-7" d="M103.29 95c-.41-4.21-.41-7.81-.41-7.81a24.09 24.09 0 0 0 7 2.67l2 11.3-1.75 4.72-6.19-2.39Z"/><path d="M166.34 75c6.7-7 3.42-17.35-1.46-21.95-5.24-4.93-12.4-9.16-25.34-9.16s-19.1 4.31-30 11.19S93.1 64.63 88 66.09c-2.44.7-8.17 1.85-8.17 1.85A46.51 46.51 0 0 0 91.1 81.72c2.83 2.31 8.7 7.37 21 8.81s25.27-2.26 32.25-4.93S166.34 75 166.34 75Z" style="fill:#fed57e"/><path class="cls-6" d="M165.32 72.35A71.14 71.14 0 0 1 171.68 96c1.19 11.65-1 26.09-1 26.09s-1.85 14.12-7.19 23.82c-4.43 8.05-16.66 13.23-28.14 11.5a29.67 29.67 0 0 1-22.44-15.5c-6.5-11.87-7.13-20-7.13-20s-14.17-.2-16-10.68 3.49-15 7.39-16 6.16-.2 6.16-.2l.67 8.49 6.11 2.39s-.8-9.93-.18-15.56a79.76 79.76 0 0 0 30.37-4.16c16.19-5.62 25.02-13.84 25.02-13.84Z"/><g class="cls-9"><path class="cls-10" d="M126 128.72c-3.32.57-5.43-1.62-6.26-6.48s.42-7.62 3.74-8.19 5.44 1.61 6.27 6.47-.47 7.63-3.75 8.2Z"/></g><g class="cls-9"><path class="cls-10" d="M160.41 125.84c3.32.57 5.44-1.61 6.27-6.47s-.43-7.63-3.75-8.2-5.43 1.61-6.27 6.47.43 7.63 3.75 8.2Z"/></g><path d="M135.33 157.38c11.48 1.73 23.71-3.45 28.14-11.5 5.34-9.7 7.19-23.82 7.19-23.82v-.28l-.5-1.32s-7.55-3.85-15.87-2.92-14.33.92-21.57 1.54-14 3.85-16 8.16a49.8 49.8 0 0 1-4-9.39c-1.23-4.47-2.67-12-2.67-12l-6.05-2.41c-.1 5 1.8 18.41 1.8 18.41s.63 8.16 7.13 20a29.67 29.67 0 0 0 22.4 15.53Z" style="opacity:.2;mix-blend-mode:multiply;fill:#153745"/><path d="M134.92 126c4.78 2.16 13.09 1.54 18-.77" style="stroke-width:2.78px;stroke:#c5513d;fill:none;stroke-linecap:round;stroke-linejoin:round"/><ellipse cx="129.57" cy="104.19" rx="1.43" ry="1.93"/><path d="M161.81 102.75c0 1.28-.48 1.93-1.43 1.93S159 104 159 102.75s.48-1.93 1.43-1.93 1.38.65 1.38 1.93Z"/><path class="cls-13" d="M121 96c4.92-3.49 13.45-3.8 17.25-2M151.15 93.2c4.21-2 9-3.29 14.89-.82"/><path class="cls-14" d="M145 99.67c2.16 2.57 10.27 11.3 10.07 13.14s-9 5.86-9 5.86M95.69 104.7c2.06 2.57 8.42 8.11 8.42 8.11"/><path class="cls-15" d="M164.65 59.31c-2.77-5.23-17.56-12.63-32.66-7.85s-18.94 10.93-28.8 15.25C93.68 70.87 89 70.87 89 70.87"/><path class="cls-15" d="M162.8 63.93c-4.93-2.92-17.1-6-27.57-3.69s-16.64 6.77-25.11 9.7a56.49 56.49 0 0 1-16.48 2.93M162.49 69.17c-8-.46-19.87-2.46-35.89 2.77s-28.49 6.32-36 3.24M100.73 82.42c8.16 2.46 26.64.92 36.66-3.39A154.9 154.9 0 0 1 159 71.94M75.77 202.56c6.47.62 18.79-1.23 19.72 3.7s-.93 18.18.61 24.34l4.9 19.72M184.52 187.47c-.31 12-9.86 26.49-12.32 35.43s-3.39 20.33-3.7 25.88M54.52 266c3.69 11.4 6.46 72.39 4.62 99.81S54.82 461 54.82 461M217.79 245.69c-2.77 12.33-8 37-7.08 54.84s-4.93 47.14-4.62 57.92M234.12 283.89c-.31-12.63 3.08-33.57 6.78-43.43M248 252.78c-2.77 6.16-8 21.87-9.24 31.42"/><path class="cls-6" d="M253 62.09c-1-3.29-1.43-4.73.21-6.17s10.83-4.59 15.81-5.54c8.63-1.64 21.16.41 29 4.52s16.61 12.73 21.13 25.1 22.38 55 23 57.71-4.52 15.41-20.74 20.34a61.34 61.34 0 0 1-31 .82 22.64 22.64 0 0 0-6.77-14.38c-6.58-6.36-8-12.94-10.48-16s-11.09-4.93-18.07-5.54-11.09-.82-11.71-4.32 1.44-8.21 6-10.68 13.76-25.26 13.76-25.26Z"/><rect class="cls-7" x="191.4" y="61.26" width="88.93" height="48.06" rx="7.74"/><path class="cls-6" d="M284.85 66.19c-7.4 1.23-15.61 5.34-18.69 12.74s-1.23 15.19 3.9 16.43a5.82 5.82 0 0 0 1.85 6.16c3.08 2.46 4.93 2 4.93 2a7.29 7.29 0 0 0 6 7c5.91 1.27 2.01-44.33 2.01-44.33Z"/><path class="cls-14" d="M243.36 116c5.34 0 15.61 1.85 15.51 7.08M292.24 82c-5 1.64-16.33 10.06-15.4 21.56M289.47 73.38c-5.44 1.54-19.2 7.19-19.41 22M280.12 67.12c4.21-1.24 8.12-2 8.12-2M277.76 107.58a11.55 11.55 0 0 0 10.58 3.69c3.49-.82 6.16-3.8 6.06-5.64s-3.29-3.91-3.29-3.91M263.08 52.23c1 4.52-7.6 9-7.6 9"/><rect x="197.77" y="91.97" width="10.32" height="10.32" rx="2.98" style="fill:#010101"/><path class="cls-7" d="M193.45 256.32a4.78 4.78 0 1 1-4.77-4.77 4.77 4.77 0 0 1 4.77 4.77Z"/></g></g></g></svg>