<svg xmlns="http://www.w3.org/2000/svg" viewBox="0 0 280 280"><defs><clipPath id="clip-path"><circle id="SVGID" class="cls-1" cx="140" cy="-220" r="129"/></clipPath><clipPath id="clip-path-2"><circle id="SVGID-2" data-name="SVGID" class="cls-2" cx="-220" cy="140" r="129"/></clipPath><clipPath id="clip-path-3"><circle id="SVGID-3" data-name="SVGID" class="cls-3" cx="140" cy="140" r="129"/></clipPath><clipPath id="clip-path-4"><circle id="SVGID-4" data-name="SVGID" class="cls-4" cx="500" cy="140" r="129"/></clipPath><style>.cls-1{fill:#fcc336}.cls-2{fill:#253f4c}.cls-3{fill:#e9dac9}.cls-4{fill:#a5bcc5}.cls-7{fill:#153745}.cls-9{fill:#ef9a5d}.cls-10,.cls-17,.cls-18,.cls-26{fill:none;stroke-linecap:round;stroke-linejoin:round}.cls-10,.cls-17{stroke:#010101}.cls-10,.cls-26{stroke-width:.86px}.cls-15{fill:#e48139}.cls-17{stroke-width:3.01px}.cls-18{stroke:#5d3933;stroke-width:1.29px}.cls-26{stroke:#c5513d}.cls-27{fill:#e27d67}</style></defs><g style="isolation:isolate"><g id="Layer_1" data-name="Layer 1"><circle id="SVGID-5" data-name="SVGID" class="cls-1" cx="140" cy="-220" r="129"/><g style="clip-path:url(#clip-path)"><path class="cls-7" d="M26.32 42.36c-4.9 16.55-10.72 31.25-4 36.46s30.33 8.27 30.33 8.27l7.68-43.19Z"/><path d="M60.33 43.9c-3.07 15.93-7.66 43.19-7.66 43.19s34.61 10.72 71.38 10.72a261.79 261.79 0 0 0 68-9.49l-2.45-37.07s-43.2-25.43-65.87-27.88-63.4 20.53-63.4 20.53Z" style="fill:#84a7b3"/><path class="cls-4" d="M115-171.78c-4.6-.92-12.87 13.33-21.6 18.84S47-130.88 29.08-106.52-9.52-38-5.85-5.89 12.07 47 35.05 51.55 93 42.36 111.33 33.17s30.79-15.62 30.79-15.62L126 48.8s31.71 22 73.06 16.54 57.49-46.95 61.12-69.85c4.6-28.95-9.65-75.36-23-95.58-12.49-19-27.57-29.41-41.81-39.52s-19.3-14.24-19.3-14.24-14.25-19.3-19.76-19.3-41.31 1.37-41.31 1.37Z"/><path class="cls-9" d="M131.09-35.76s21.45-3.37 31.86-3.06 22.67.92 22.67.92 5.52 24.2 8.58 32.17A86.38 86.38 0 0 0 176.43.09c-9.49 4.29-21.75 11-21.75 11a36.44 36.44 0 0 0 .32-29.38c-6.75-16.24-23.91-17.47-23.91-17.47ZM142.12 17.55S141.2 36.85 126 48.8c0 0-17.92-10.73-20.68-13.18Z"/><path class="cls-10" d="M194.2-5.73c8.89.92 21.14 12.56 27.57 20.22M187.16-4.2c6.12 3.06 16.23 15.93 18.38 23.89M38.57-2.67C32.75 2.54 24.48 13.26 22 19.39M31.32-3.9A33.34 33.34 0 0 0 12.23 9.89M154.68 11.12a50.39 50.39 0 0 1-12.56 6.43"/><path class="cls-3" d="M127.11 58.29a2.15 2.15 0 1 1-2.11-2.14 2.14 2.14 0 0 1 2.11 2.14Z"/><path class="cls-10" d="M131.4 52.78c.31 10.42-1.23 35.84-2.45 44.42"/></g><circle id="SVGID-6" data-name="SVGID" class="cls-2" cx="-220" cy="140" r="129"/><g style="clip-path:url(#clip-path-2)"><path d="M2.26 229.24c-20.89-23.37-51.68-54.43-74.5-72.85s-41.79-26.67-53.33-29.14-24.43-4.13-35.43 3.85-15.4 20.61-16.86 32.34 2.19 22.73 7.33 26.21a12.6 12.6 0 0 0 3.66 10.63c4.77 4.58 8.62 3.48 8.62 3.48a8.42 8.42 0 0 0 10 3.07c4.69-1.66 5.18-11.86 5.18-11.86s2.65 11.18 13.38 16.12c9.89 4.57 16.12 5.14 23.27 15.58s32.26 50.4 32.26 50.4Z" style="fill:#ed8f4c"/><path d="M58.89 375.48c-7.35 34.65-29.63 53.26-55.49 61.93l-21.13 4.91a147.76 147.76 0 0 1-24.55 1.34c-25.36-.68-52.8-8-74.73-15.62 20.8-30.6 38.23-88.85 38.14-116.26 17.79 10.91 29.16 17.36 29.44 17.52l-24.73-52.23s4.4-19.79 28.58-35.19 47.84-12.64 47.84-12.64 7.7 3.85 25.29 30.24 41.94 66.01 31.34 116Z" style="fill:#cdcbaf"/></g><circle id="SVGID-7" data-name="SVGID" class="cls-3" cx="140" cy="140" r="129"/><g style="clip-path:url(#clip-path-3)"><path class="cls-15" d="M267.3 490.37 227 430.62s-7-26.39-13.94-52.28S200.09 334 200.09 334s-10 51.28-12 80.16.49 68.21.49 68.21-10.19 9.69-28.41 14.65c-.54-20.78-2.05-93.43 2.4-124.31 5.23-36.22 12.7-69.82 18.3-89.24 4-13.92 7.65-25 9.38-30.1 10.19 3.75 28.84 11.44 42.9 24.5 20.91 19.42 42.07 47.67 52.52 100.94s3.54 86.19-18.37 111.56Z"/><path class="cls-4" d="M190.3 253.4c-1.73 5.13-5.36 16.18-9.38 30.1-5.6 19.42-13.07 53-18.3 89.24-4.45 30.88-2.94 103.53-2.4 124.31a82.12 82.12 0 0 1-25.35 2.77c-17.85-.78-35.69-5.3-48.58-9.41 3.29-14.42 19.2-86.22 19.2-124.39 0-41-8.33-79.67-18.3-111.17 3.84-1.51 7.71-2.84 11.58-4 25.64-7.47 78.91-2 78.91-2 3.32 1.36 7.62 2.71 12.62 4.55Z"/><path class="cls-15" d="M87.19 254.85c10 31.5 18.3 70.12 18.3 111.17 0 38.17-15.91 110-19.2 124.39-11.56-3.67-19.14-7-19.14-7s14.94-47.3 15.44-74.19-10-56.76-10-56.76l-11.41 69.2-27.88 73.68s-41.82-9-46.3-71.69S6.91 320.09 27.32 297.19c17.33-19.44 38.25-33.86 59.87-42.34Z"/><path class="cls-7" d="M106 172c-8.47 4-24.65 5-27.88 2.73s-1-6.47 3.48-7.71c0 0-17.67 0-18.42-6.23s17.68-10.7 17.68-10.7-16.43 2.24-21.66-1.49-5.73-8.22-.75-10.46c0 0-8.71-1.74-9-7.47s8.46-6.22 8.46-6.22-15.18-5.23-12.69-12.7 20.41-11 20.41-11-15.9-5.2-13.63-12.42 16.43-7 16.43-7-9-7.71-5-12.69 15.43-2 24.15-3.49c0 0-7.47-9.21.5-15.43s29.37-12.45 51-4.48S168.22 65.43 171 74.39c0 0 13.19-15.93 35.85-15.68s34.85 11.45 42.57 19.17 20.87 17.42 26.58 22.4 9.71 10.46 8 16.43-21.16 0-21.16 0 13.19 7.47 14.93 12.7-5.47 7-5.47 7 13.69 10.2 12 15.93-8.47 5.23-8.47 5.23 8.72 10.2 5.73 16.43-12.2 2.49-12.2 2.49 3.49 6.72-1 10.95-13.2-.75-13.2-.75 3.74 9.21 0 12.7-11.2-2.24-11.2-2.24a8.06 8.06 0 0 1-7.22 7c-6.72 1-10.21-6.23-10.21-6.23s-7.46 5.73-16.92 5-13 2.24-19.42-6.47a110.43 110.43 0 0 1-9.46-14.69l-29.93-14.02Z"/><path class="cls-10" d="M167.23 128.66c8.46-5.73 8.21-10 11-16.93s10.41-12.73 18.37-9.21S213.28 109 220 105s14.94-6.22 21.41.75 11.2 3.23 15.19 5a14.79 14.79 0 0 1 6.22 6M135.11 120.94c-3.56-4.15-3.4-6.14-4.73-9.79s-5.8-4.65-9.46-.66-4.81 8.3-9.79 8.79-7.3-2-11.12-4-6.8-1-10.12 4-6.64 7.8-11.12 6.81-6.47-5.48-11-3.65-7 3.15-9.88 2"/><path class="cls-10" d="M65.66 100.78c7 3.24 14.44 3.9 20.25.75s6.8-7.14 11.61-8.3 6.31 2.16 11.12 4.15 9-.5 11.62-4.32 8.8-5.14 12.28-2 4.65 3.15 11.29 4.32 7.63 9.62 6.47 16.62M87.57 65.18a28.27 28.27 0 0 0 20.08 1.16c5.81-1.82 12.94-5 17.92-.66s7.3 7 12.61 6.47 10.63.83 12.12 5.64 3.82 6.48 9.79 8.8 3.82 14.27 3.82 14.27M80.85 150.07c8 1.24 12.86-3.74 15.68-6.89s6.47-3.32 10.12.5 8.3 0 8.3 0M82.92 166.91c6 1.66 7.8-2.32 12.12-5s11.78.34 11.78.34M171.87 142.85c7.14.5 12.28-5.48 15.44-10s10.62-8.63 15.43-5.81 6 8.3 8.63 12.45 9 3.65 13.94 0 11.29-3.15 12.95 2 6.64 9.13 11.78 8.13 10.12-2.82 13.77.67.5 8.13 3.82 13.11M231.12 123.1c8.46-.17 12.95-.33 15.77 5.31s6 7.47 10.29 7.3 9.46-4 15.1.67M183.32 156.29c7.31-.33 15.27-2.82 19.42 1.5s.17 7.3 6.64 12.11 11.45-1.49 17.43 1 8.13 5.31 9.62 10.45 7 8.3 11.62 9.13"/><path class="cls-10" d="M255.1 186.66c-1.41-5.81-3.73-9.79-8.88-12.11s-7.3-6.64-8.63-11.12-2.49-7.8-9-7.8-11.95-.33-14.44-4M192 176.54c4.15 2.16 12.12 3.32 13 9.62s1.16 9.63 6.31 12.45"/><path d="M135.11 120.94c-9.46 5-18.67 13.94-26.13 32.61-6.79 17-7.72 29.88-3 37.84s14.44 12 14.44 12 2.24 18.17-4.48 31.12-17.18 16.43-17.18 16.43S100.51 276 115 286s34.6 8.71 45.56 1.74 16.43-26.64 17.17-38.83c0 0-9.21-2.24-10.7-15.44s-1-43.56-1-43.56a21.79 21.79 0 0 0 17.93-2.49c9.21-5.73 13.19-15.43 9-21.91s-15.44-6.47-21.41-.5c0 0-7.47-4.72-6.22-12.19s.74-18.67-2-21.91-9-2.74-15.93-5.23-12.29-4.74-12.29-4.74Z" style="fill:#825048"/><path d="M119.08 150.87c-.69 1.53-1.61 2-2.74 1.53s-1.36-1.54-.67-3.07 1.61-2 2.74-1.53 1.36 1.55.67 3.07ZM142.1 157.84c-.68 1.53-1.61 2-2.74 1.53s-1.35-1.54-.66-3.07 1.61-2 2.74-1.53 1.35 1.55.66 3.07Z"/><path class="cls-17" d="M116.82 139.61c3.73-1.61 9.33.38 11.45 2.49M139.35 145c4.73-2 11.2-1.5 13.94 1.24"/><path class="cls-18" d="M128.77 151.56a14.77 14.77 0 0 1-7.35 4.36c-2.36.62-4.85.62-5.47 3.11s2.49 6.22 2.49 6.22M183.53 170.48c-7.22 4.36-12.94 8.71-12.94 8.71M166 189.9a12.17 12.17 0 0 1-5.6-5.48M120.43 203.34c4.6 2.37 13.81 3.49 13.81 3.49"/><g style="opacity:.6;mix-blend-mode:multiply"><path d="M136.44 180.34c-3.05-1.44-3.53-4.46-1.42-8.93s4.74-6 7.8-4.57 3.53 4.45 1.42 8.93-4.74 6.01-7.8 4.57Z" style="fill:#f49b87"/></g><path d="M104.16 169c2.72.21 4.67-1.83 5.8-6.09 1.05-4 .52-6.62-1.57-7.9a89.5 89.5 0 0 0-4.23 13.99Z" style="fill:#f49b87;opacity:.6;mix-blend-mode:multiply"/><path d="M112.34 171.85c.83-2 3.92-2 7.78-1.62s8 1.37 8 3.74-3.92 3.79-8.71 3.54-8.26-2.8-7.07-5.66Z" style="fill:#df6d58"/><path d="M114.58 173.22a33.55 33.55 0 0 1 10.51.44" style="stroke:#b45848;stroke-width:1.29px;fill:none;stroke-linecap:round;stroke-linejoin:round"/></g><circle id="SVGID-8" data-name="SVGID" class="cls-4" cx="500" cy="140" r="129"/><g style="clip-path:url(#clip-path-4)"><path d="M342 373.41s26.89 7.84 45.56 17.18a315.87 315.87 0 0 1 31 17.55s-3.74 47.05-34.73 65.72-66.84.37-81.4-23.53-38.43-91.85-42.55-104.18-5.6-18.29-16.43-22-26.14-11.95-37.71-18.29-6.72-14.19-2.62-13.45 22.41 7.47 22.41 7.47-18.67-12.69-22.78-19.41.37-13.82 8.59-8.59 17.55 11.95 25 16.43c0 0-17.18-14.94-21.66-26.52s3.36-14.93 11.57-6.34S245.69 276 245.69 276s-5.6-8.58.37-19.79 20.17-11.57 19.8-6-8.39 12.4-8.39 12.4-1.32 5.07 8.3 11.46c10.46 6.94 18.38 3 18.38 3a45.3 45.3 0 0 0-6.72-12.32c-4.48-5.6-13.44-9.33-11.57-14.56s12.9-2.78 21.28 4.48c11.2 9.71 19 25 23.52 45.18s28.76 82.9 28.76 82.9Z" style="fill:#eaa28d"/><path class="cls-26" d="M225.53 299.85c3.23 2.24 11.37 5.73 11.37 5.73 1.49-6.31 11.61-23.07 15.1-26.72"/><path class="cls-26" d="M245.69 276a34.7 34.7 0 0 0 4 5.56"/><path class="cls-27" d="M267.34 248.3c3.83 4.81 9.77 8.14 12.21 7.32 1.43-.47 2.92-2.28 3.93-3.72-6.27-4.12-13.02-5.65-16.14-3.6ZM251.46 249.91c4.93 3.07 12.35 2 14.39-.13-.24-3.9-8.06-4.5-14.39.13Z"/></g></g></g></svg>