<svg xmlns="http://www.w3.org/2000/svg" viewBox="0 0 500 500"><defs><clipPath id="clip-path"><circle id="SVGID" class="cls-1" cx="250" cy="-270" r="204"/></clipPath><clipPath id="clip-path-2"><circle id="SVGID-2" data-name="SVGID" class="cls-1" cx="250" cy="250" r="204"/></clipPath><style>.cls-1,.cls-10,.cls-17,.cls-19,.cls-8{fill:none}.cls-5{fill:#153745}.cls-6{fill:#f7986e}.cls-7{fill:#eaa28d}.cls-19,.cls-8{stroke:#010101}.cls-10,.cls-17,.cls-19,.cls-8{stroke-linecap:round;stroke-linejoin:round}.cls-10,.cls-17,.cls-8{stroke-width:1.36px}.cls-9{fill:#ef9657}.cls-10{stroke:#c5513d}.cls-13{fill:#1d1d1b}.cls-17{stroke:#df6d58}.cls-19{stroke-width:4.08px}</style></defs><g style="isolation:isolate"><g id="Layer_1" data-name="Layer 1"><g style="clip-path:url(#clip-path)"><path d="M179 271.08c-8 21.51-12.29 54.09-12.29 54.09 83.36 14.72 187.82 10.29 298.73 0 0 0-6.76-70.07-9.22-78.68s-110.64-34.42-150-34.42S179 271.08 179 271.08Z" style="fill:#df6d58"/><path class="cls-5" d="M320.49-224.15s2.73-3.28 8.47.82 13.11 14.75 35.24 22.13 82 12.29 122.94 56.55 83.59 147.52 77 217.19-18.81 86.87-49.14 104.08-55.73 13.12-55.73 13.12 9 65.56 5.74 72.12-137.69 53.27-154.9 52.45c0 0-18.85-53.27-22.95-82.78 0 0-13.93 76.22-19.67 80.32s-92.61-29.5-94.25-33.6 9.84-40.16 9.84-40.16L170 245.47l-46.71-72.95 22.13-16.39S135.54 72.54 132.26 16s-5.73-105.74 16.4-132 50.81-36.88 63.92-43.44 17.76-8.74 18.85-15.3.82-20.76 6.83-23.49 82.23-25.92 82.23-25.92Z"/><path class="cls-6" d="M497.49 39.94a1 1 0 0 0-.09-.43 1.14 1.14 0 0 0-.1-.19 1.22 1.22 0 0 0-.3-.3 1.11 1.11 0 0 0-.62-.19v1.11ZM497 18.68a1.22 1.22 0 0 0 .3-.3 1.14 1.14 0 0 0 .1-.19 1.07 1.07 0 0 0 0-.86 1.14 1.14 0 0 0-.1-.19 1.22 1.22 0 0 0-.3-.3 1.11 1.11 0 0 0-.62-.19v2.22a1.11 1.11 0 0 0 .62-.19ZM497.49 84.3a1.07 1.07 0 0 0-.09-.43 1.74 1.74 0 0 0-.1-.19 1.38 1.38 0 0 0-.3-.29 1.11 1.11 0 0 0-.62-.19v1.1ZM497 63a1.22 1.22 0 0 0 .3-.3 1 1 0 0 0 .1-.18 1.08 1.08 0 0 0 .09-.44 1 1 0 0 0-.09-.43 1.74 1.74 0 0 0-.1-.19 1.42 1.42 0 0 0-.3-.3 1.11 1.11 0 0 0-.62-.19v2.22A1.11 1.11 0 0 0 497 63ZM496.38 41.05a1.11 1.11 0 0 0 .62-.19 1.22 1.22 0 0 0 .3-.3 1.14 1.14 0 0 0 .1-.19 1 1 0 0 0 .09-.43h-1.11ZM497.3 128.05a1.22 1.22 0 0 0-.3-.3 1.11 1.11 0 0 0-.62-.19v1.11h1.11a1 1 0 0 0-.09-.43 1.14 1.14 0 0 0-.1-.19ZM497 107.41a1.42 1.42 0 0 0 .3-.3 1.74 1.74 0 0 0 .1-.19 1 1 0 0 0 .09-.43 1.08 1.08 0 0 0-.09-.44 1.62 1.62 0 0 0-.1-.18 1.22 1.22 0 0 0-.3-.3 1.11 1.11 0 0 0-.62-.19v2.22a1.11 1.11 0 0 0 .62-.19ZM496.38 85.41a1.11 1.11 0 0 0 .62-.19 1.18 1.18 0 0 0 .3-.29 1.74 1.74 0 0 0 .1-.19 1.08 1.08 0 0 0 .09-.44h-1.11ZM497.49 173a1 1 0 0 0-.09-.43 1.14 1.14 0 0 0-.1-.19 1.22 1.22 0 0 0-.3-.3 1.11 1.11 0 0 0-.62-.19V173ZM497 151.77a1.22 1.22 0 0 0 .3-.3 1.14 1.14 0 0 0 .1-.19 1.07 1.07 0 0 0 0-.86 1.14 1.14 0 0 0-.1-.19 1.22 1.22 0 0 0-.3-.3 1.11 1.11 0 0 0-.62-.19V152a1.11 1.11 0 0 0 .62-.23Z"/><path class="cls-6" d="M496.38 129.78a1.11 1.11 0 0 0 .62-.19 1.22 1.22 0 0 0 .3-.3 1.14 1.14 0 0 0 .1-.19 1 1 0 0 0 .09-.43h-1.11ZM496.38 174.14a1.11 1.11 0 0 0 .62-.14 1.22 1.22 0 0 0 .3-.3 1.14 1.14 0 0 0 .1-.19 1 1 0 0 0 .09-.43h-1.11ZM474.2 38.83a1.11 1.11 0 0 0-1.11 1.11h2.22a1.11 1.11 0 0 0-1.11-1.11ZM495.27 39.94h1.11v-1.11a1.11 1.11 0 0 0-1.11 1.11ZM474.2 16.65a1.11 1.11 0 1 0 1.11 1.11 1.11 1.11 0 0 0-1.11-1.11ZM495.27 17.76a1.11 1.11 0 0 0 1.11 1.11v-2.22a1.11 1.11 0 0 0-1.11 1.11ZM485.29 27.74a1.11 1.11 0 1 0 1.11 1.11 1.11 1.11 0 0 0-1.11-1.11ZM463.11 27.74a1.11 1.11 0 1 0 1.1 1.11 1.11 1.11 0 0 0-1.1-1.11ZM485.29 5.56a1.11 1.11 0 1 0 1.11 1.11 1.11 1.11 0 0 0-1.11-1.11ZM463.11 5.56a1.11 1.11 0 1 0 1.1 1.11 1.11 1.11 0 0 0-1.1-1.11ZM453.12 39.94a1.22 1.22 0 0 0-.08-.43 1.18 1.18 0 0 0-.11-.19 1.07 1.07 0 0 0-.3-.3 1.08 1.08 0 0 0-.62-.19v1.11ZM452.63 18.68a1.07 1.07 0 0 0 .3-.3 1.18 1.18 0 0 0 .11-.19 1.2 1.2 0 0 0 0-.86 1.18 1.18 0 0 0-.11-.19 1.07 1.07 0 0 0-.3-.3 1.08 1.08 0 0 0-.62-.19v2.22a1.08 1.08 0 0 0 .62-.19ZM474.2 83.2a1.1 1.1 0 0 0-1.11 1.1h2.22a1.11 1.11 0 0 0-1.11-1.1ZM495.27 84.3h1.11v-1.1a1.1 1.1 0 0 0-1.11 1.1ZM474.2 61a1.11 1.11 0 1 0 1.11 1.11A1.11 1.11 0 0 0 474.2 61ZM495.27 62.12a1.1 1.1 0 0 0 1.11 1.11V61a1.11 1.11 0 0 0-1.11 1.12ZM485.29 72.11a1.11 1.11 0 1 0 1.11 1.1 1.1 1.1 0 0 0-1.11-1.1Z"/><circle class="cls-6" cx="463.11" cy="73.21" r="1.11"/><path class="cls-6" d="M485.29 49.92A1.11 1.11 0 1 0 486.4 51a1.11 1.11 0 0 0-1.11-1.08ZM463.11 49.92a1.11 1.11 0 1 0 1.1 1.11 1.11 1.11 0 0 0-1.1-1.11ZM453.12 84.3a1.26 1.26 0 0 0-.08-.43l-.11-.19a1.18 1.18 0 0 0-.3-.29 1.08 1.08 0 0 0-.62-.19v1.1ZM452.63 63a1.35 1.35 0 0 0 .41-.48 1.27 1.27 0 0 0 .08-.44 1.22 1.22 0 0 0-.08-.43l-.11-.19a1.22 1.22 0 0 0-.3-.3A1.08 1.08 0 0 0 452 61v2.22a1.08 1.08 0 0 0 .63-.22ZM474.2 41.05a1.11 1.11 0 0 0 1.11-1.11h-2.22a1.1 1.1 0 0 0 1.11 1.11ZM495.27 39.94a1.1 1.1 0 0 0 1.11 1.11v-1.11ZM452 41.05a1.08 1.08 0 0 0 .62-.19 1.07 1.07 0 0 0 .3-.3 1 1 0 0 0 .19-.62H452ZM474.2 127.56a1.11 1.11 0 0 0-1.11 1.11h2.22a1.11 1.11 0 0 0-1.11-1.11ZM495.27 128.67h1.11v-1.11a1.11 1.11 0 0 0-1.11 1.11ZM474.2 105.38a1.11 1.11 0 0 0 0 2.22 1.11 1.11 0 1 0 0-2.22ZM495.27 106.49a1.11 1.11 0 0 0 1.11 1.11v-2.22a1.1 1.1 0 0 0-1.11 1.11ZM485.29 116.47a1.11 1.11 0 0 0 0 2.22 1.11 1.11 0 0 0 0-2.22Z"/><circle class="cls-6" cx="463.11" cy="117.58" r="1.11"/><path class="cls-6" d="M485.29 94.29a1.11 1.11 0 1 0 1.11 1.11 1.1 1.1 0 0 0-1.11-1.11ZM463.11 94.29a1.11 1.11 0 1 0 1.1 1.11 1.1 1.1 0 0 0-1.1-1.11ZM452.93 128.05a1.07 1.07 0 0 0-.3-.3 1.08 1.08 0 0 0-.62-.19v1.11h1.11a1 1 0 0 0-.19-.62ZM452.63 107.41a1.22 1.22 0 0 0 .3-.3l.11-.19a1.22 1.22 0 0 0 .08-.43 1.27 1.27 0 0 0-.08-.44 1.74 1.74 0 0 0-.11-.18 1.07 1.07 0 0 0-.3-.3 1.08 1.08 0 0 0-.62-.19v2.22a1.08 1.08 0 0 0 .62-.19ZM474.2 85.41a1.11 1.11 0 0 0 1.11-1.11h-2.22a1.1 1.1 0 0 0 1.11 1.11ZM495.27 84.3a1.1 1.1 0 0 0 1.11 1.11V84.3ZM452 85.41a1.08 1.08 0 0 0 .62-.19 1 1 0 0 0 .3-.29l.11-.19a1.27 1.27 0 0 0 .08-.44H452ZM474.2 171.92a1.11 1.11 0 0 0-1.11 1.11h2.22a1.11 1.11 0 0 0-1.11-1.11ZM495.27 173h1.11v-1.11a1.11 1.11 0 0 0-1.11 1.11ZM474.2 149.74a1.11 1.11 0 1 0 1.11 1.11 1.11 1.11 0 0 0-1.11-1.11ZM495.27 150.85a1.11 1.11 0 0 0 1.11 1.11v-2.22a1.11 1.11 0 0 0-1.11 1.11ZM485.29 160.83a1.11 1.11 0 1 0 1.11 1.11 1.11 1.11 0 0 0-1.11-1.11ZM463.11 160.83a1.11 1.11 0 1 0 1.1 1.11 1.11 1.11 0 0 0-1.1-1.11ZM485.29 138.65a1.11 1.11 0 1 0 1.11 1.11 1.11 1.11 0 0 0-1.11-1.11ZM463.11 138.65a1.11 1.11 0 1 0 1.1 1.11 1.11 1.11 0 0 0-1.1-1.11ZM452.93 172.41a1.07 1.07 0 0 0-.3-.3 1.08 1.08 0 0 0-.62-.19V173h1.11a1.22 1.22 0 0 0-.08-.43 1.18 1.18 0 0 0-.11-.16ZM452.63 151.77a1.07 1.07 0 0 0 .3-.3 1.18 1.18 0 0 0 .11-.19 1.2 1.2 0 0 0 0-.86 1.18 1.18 0 0 0-.11-.19 1.07 1.07 0 0 0-.3-.3 1.08 1.08 0 0 0-.62-.19V152a1.08 1.08 0 0 0 .62-.23ZM474.2 129.78a1.11 1.11 0 0 0 1.11-1.11h-2.22a1.11 1.11 0 0 0 1.11 1.11ZM495.27 128.67a1.11 1.11 0 0 0 1.11 1.11v-1.11Z"/><path class="cls-6" d="M452 129.78a1.08 1.08 0 0 0 .62-.19 1.07 1.07 0 0 0 .3-.3 1.18 1.18 0 0 0 .11-.19 1.22 1.22 0 0 0 .08-.43H452ZM485.29 183a1.11 1.11 0 1 0 1.11 1.11 1.11 1.11 0 0 0-1.11-1.11ZM463.11 183a1.11 1.11 0 1 0 1.1 1.11 1.11 1.11 0 0 0-1.1-1.11ZM453.12 217.39a1.22 1.22 0 0 0-.12-.39 1.18 1.18 0 0 0-.11-.19 1.07 1.07 0 0 0-.3-.3 1.08 1.08 0 0 0-.62-.19v1.11ZM452.63 196.13a1.07 1.07 0 0 0 .3-.3 1.18 1.18 0 0 0 .11-.19 1.2 1.2 0 0 0 0-.86 1.18 1.18 0 0 0-.11-.19 1.07 1.07 0 0 0-.3-.3 1.08 1.08 0 0 0-.62-.19v2.22a1.08 1.08 0 0 0 .62-.19ZM474.2 174.14a1.11 1.11 0 0 0 1.11-1.11h-2.22a1.11 1.11 0 0 0 1.11 1.11ZM495.27 173a1.11 1.11 0 0 0 1.11 1.11V173ZM452 174.14a1.08 1.08 0 0 0 .62-.19 1.07 1.07 0 0 0 .3-.3 1.18 1.18 0 0 0 .11-.19 1.22 1.22 0 0 0 .08-.43H452ZM463.11 251.77a1.11 1.11 0 1 0-1.11-1.11 1.1 1.1 0 0 0 1.11 1.11ZM462 228.48a1.11 1.11 0 0 0 1.11 1.11 1.08 1.08 0 0 0 .86-.43l-.15-1.52a1.1 1.1 0 0 0-1.82.84ZM453.12 261.75a1.22 1.22 0 0 0-.08-.43l-.11-.19a1.22 1.22 0 0 0-.3-.3 1.08 1.08 0 0 0-.62-.19v1.11ZM452.63 240.49a1.07 1.07 0 0 0 .3-.3 1 1 0 0 0 .19-.62 1.22 1.22 0 0 0-.08-.43 1.18 1.18 0 0 0-.11-.19 1.07 1.07 0 0 0-.3-.3 1.08 1.08 0 0 0-.62-.19v2.22a1.08 1.08 0 0 0 .62-.19Z"/><path class="cls-6" d="M452 218.5a1.08 1.08 0 0 0 .62-.19 1.07 1.07 0 0 0 .3-.3 1.18 1.18 0 0 0 .11-.19 1.22 1.22 0 0 0 .08-.43H452ZM452 262.86a1.08 1.08 0 0 0 .62-.19 1.07 1.07 0 0 0 .3-.3 1.74 1.74 0 0 0 .11-.18 1.27 1.27 0 0 0 .08-.44H452ZM429.83 38.83a1.11 1.11 0 0 0-1.11 1.11h2.22a1.11 1.11 0 0 0-1.11-1.11ZM450.91 39.94H452v-1.11a1.11 1.11 0 0 0-1.09 1.11ZM429.83 16.65a1.11 1.11 0 1 0 1.11 1.11 1.11 1.11 0 0 0-1.11-1.11ZM450.91 17.76a1.11 1.11 0 0 0 1.1 1.11v-2.22a1.11 1.11 0 0 0-1.1 1.11ZM440.92 27.74a1.11 1.11 0 1 0 1.08 1.11 1.11 1.11 0 0 0-1.08-1.11ZM418.74 27.74a1.11 1.11 0 0 0 0 2.22 1.11 1.11 0 1 0 0-2.22ZM440.92 5.56A1.11 1.11 0 1 0 442 6.67a1.11 1.11 0 0 0-1.08-1.11ZM418.74 5.56a1.11 1.11 0 1 0 1.11 1.11 1.11 1.11 0 0 0-1.11-1.11ZM408.76 39.94a1 1 0 0 0-.09-.43.69.69 0 0 0-.1-.19 1.07 1.07 0 0 0-.3-.3 1.08 1.08 0 0 0-.62-.19v1.11ZM408.27 18.68a1.07 1.07 0 0 0 .3-.3.69.69 0 0 0 .1-.19 1.07 1.07 0 0 0 0-.86.69.69 0 0 0-.1-.19 1.07 1.07 0 0 0-.3-.3 1.08 1.08 0 0 0-.62-.19v2.22a1.08 1.08 0 0 0 .62-.19ZM429.83 83.2a1.11 1.11 0 0 0-1.11 1.1h2.22a1.1 1.1 0 0 0-1.11-1.1ZM450.91 84.3H452v-1.1a1.1 1.1 0 0 0-1.09 1.1ZM429.83 61a1.11 1.11 0 0 0 0 2.22 1.11 1.11 0 1 0 0-2.22ZM450.91 62.12a1.1 1.1 0 0 0 1.1 1.11V61a1.11 1.11 0 0 0-1.1 1.12ZM440.92 72.11a1.11 1.11 0 1 0 1.11 1.1 1.1 1.1 0 0 0-1.11-1.1ZM418.74 72.11a1.11 1.11 0 1 0 1.11 1.1 1.11 1.11 0 0 0-1.11-1.1ZM440.92 49.92A1.11 1.11 0 1 0 442 51a1.11 1.11 0 0 0-1.08-1.08ZM418.74 49.92a1.11 1.11 0 0 0 0 2.22 1.11 1.11 0 1 0 0-2.22ZM408.76 84.3a1.07 1.07 0 0 0-.09-.43.87.87 0 0 0-.1-.19 1.18 1.18 0 0 0-.3-.29 1.08 1.08 0 0 0-.62-.19v1.1ZM408.27 63a1.07 1.07 0 0 0 .3-.3.64.64 0 0 0 .1-.18 1.08 1.08 0 0 0 .09-.44 1 1 0 0 0-.09-.43.87.87 0 0 0-.1-.19 1.22 1.22 0 0 0-.3-.3 1.08 1.08 0 0 0-.62-.19v2.22a1.08 1.08 0 0 0 .62-.19ZM429.83 41.05a1.1 1.1 0 0 0 1.11-1.11h-2.22a1.11 1.11 0 0 0 1.11 1.11ZM450.91 39.94a1.1 1.1 0 0 0 1.1 1.11v-1.11ZM407.65 41.05a1.08 1.08 0 0 0 .62-.19 1.07 1.07 0 0 0 .3-.3.69.69 0 0 0 .1-.19 1 1 0 0 0 .09-.43h-1.11ZM429.83 127.56a1.11 1.11 0 0 0-1.11 1.11h2.22a1.11 1.11 0 0 0-1.11-1.11ZM450.91 128.67H452v-1.11a1.11 1.11 0 0 0-1.09 1.11ZM429.83 105.38a1.11 1.11 0 1 0 1.11 1.11 1.11 1.11 0 0 0-1.11-1.11ZM450.91 106.49a1.11 1.11 0 0 0 1.1 1.11v-2.22a1.1 1.1 0 0 0-1.1 1.11ZM440.92 116.47a1.11 1.11 0 1 0 1.11 1.11 1.1 1.1 0 0 0-1.11-1.11ZM418.74 116.47a1.11 1.11 0 1 0 1.11 1.11 1.11 1.11 0 0 0-1.11-1.11ZM440.92 94.29A1.11 1.11 0 1 0 442 95.4a1.1 1.1 0 0 0-1.08-1.11ZM418.74 94.29a1.11 1.11 0 1 0 1.11 1.11 1.11 1.11 0 0 0-1.11-1.11ZM408.57 128.05a1.07 1.07 0 0 0-.3-.3 1.08 1.08 0 0 0-.62-.19v1.11h1.11a1 1 0 0 0-.09-.43.69.69 0 0 0-.1-.19ZM408.27 107.41a1.22 1.22 0 0 0 .3-.3.87.87 0 0 0 .1-.19 1 1 0 0 0 .09-.43 1.08 1.08 0 0 0-.09-.44.81.81 0 0 0-.1-.18 1.07 1.07 0 0 0-.3-.3 1.08 1.08 0 0 0-.62-.19v2.22a1.08 1.08 0 0 0 .62-.19ZM429.83 85.41a1.1 1.1 0 0 0 1.11-1.11h-2.22a1.11 1.11 0 0 0 1.11 1.11ZM450.91 84.3a1.1 1.1 0 0 0 1.1 1.11V84.3ZM407.65 85.41a1.08 1.08 0 0 0 .62-.19 1 1 0 0 0 .3-.29.87.87 0 0 0 .1-.19 1.08 1.08 0 0 0 .09-.44h-1.11ZM429.83 171.92a1.11 1.11 0 0 0-1.11 1.11h2.22a1.11 1.11 0 0 0-1.11-1.11ZM450.91 173H452v-1.11a1.11 1.11 0 0 0-1.09 1.11ZM429.83 149.74a1.11 1.11 0 1 0 1.11 1.11 1.11 1.11 0 0 0-1.11-1.11ZM450.91 150.85A1.11 1.11 0 0 0 452 152v-2.22a1.11 1.11 0 0 0-1.09 1.07ZM440.92 160.83a1.11 1.11 0 1 0 1.11 1.11 1.11 1.11 0 0 0-1.11-1.11ZM418.74 160.83a1.11 1.11 0 1 0 1.11 1.11 1.11 1.11 0 0 0-1.11-1.11ZM440.92 138.65a1.11 1.11 0 1 0 1.11 1.11 1.11 1.11 0 0 0-1.11-1.11ZM418.74 138.65a1.11 1.11 0 1 0 1.11 1.11 1.11 1.11 0 0 0-1.11-1.11ZM408.57 172.41a1.07 1.07 0 0 0-.3-.3 1.08 1.08 0 0 0-.62-.19V173h1.11a1 1 0 0 0-.09-.43.69.69 0 0 0-.1-.16ZM408.27 151.77a1.07 1.07 0 0 0 .3-.3.69.69 0 0 0 .1-.19 1.07 1.07 0 0 0 0-.86.69.69 0 0 0-.1-.19 1.07 1.07 0 0 0-.3-.3 1.08 1.08 0 0 0-.62-.19V152a1.08 1.08 0 0 0 .62-.23Z"/><path class="cls-6" d="M429.83 129.78a1.11 1.11 0 0 0 1.11-1.11h-2.22a1.11 1.11 0 0 0 1.11 1.11ZM450.91 128.67a1.11 1.11 0 0 0 1.1 1.11v-1.11ZM407.65 129.78a1.08 1.08 0 0 0 .62-.19 1.07 1.07 0 0 0 .3-.3.69.69 0 0 0 .1-.19 1 1 0 0 0 .09-.43h-1.11ZM429.83 216.28a1.11 1.11 0 0 0-1.11 1.11h2.22a1.11 1.11 0 0 0-1.11-1.11ZM450.91 217.39H452v-1.11a1.11 1.11 0 0 0-1.09 1.11ZM429.83 194.1a1.11 1.11 0 1 0 1.11 1.11 1.11 1.11 0 0 0-1.11-1.11ZM450.91 195.21a1.11 1.11 0 0 0 1.1 1.11v-2.22a1.11 1.11 0 0 0-1.1 1.11ZM440.92 205.19a1.11 1.11 0 1 0 1.08 1.11 1.11 1.11 0 0 0-1.08-1.11ZM418.74 205.19a1.11 1.11 0 1 0 1.11 1.11 1.11 1.11 0 0 0-1.11-1.11ZM440.92 183a1.11 1.11 0 1 0 1.11 1.11 1.11 1.11 0 0 0-1.11-1.11ZM418.74 183a1.11 1.11 0 1 0 1.11 1.11 1.11 1.11 0 0 0-1.11-1.11ZM408.76 217.39a1 1 0 0 0-.09-.43.69.69 0 0 0-.1-.19 1.07 1.07 0 0 0-.3-.3 1.08 1.08 0 0 0-.62-.19v1.11ZM408.27 196.13a1.07 1.07 0 0 0 .3-.3.69.69 0 0 0 .1-.19 1.07 1.07 0 0 0 0-.86.69.69 0 0 0-.1-.19 1.07 1.07 0 0 0-.3-.3 1.08 1.08 0 0 0-.62-.19v2.22a1.08 1.08 0 0 0 .62-.19ZM429.83 174.14a1.11 1.11 0 0 0 1.11-1.11h-2.22a1.11 1.11 0 0 0 1.11 1.11ZM450.91 173a1.11 1.11 0 0 0 1.1 1.11V173ZM407.65 174.14a1.08 1.08 0 0 0 .62-.19 1.07 1.07 0 0 0 .3-.3.69.69 0 0 0 .1-.19 1 1 0 0 0 .09-.43h-1.11ZM429.83 260.64a1.11 1.11 0 0 0-1.11 1.11h2.22a1.11 1.11 0 0 0-1.11-1.11ZM450.91 261.75H452v-1.11a1.11 1.11 0 0 0-1.09 1.11ZM429.83 238.46a1.11 1.11 0 1 0 0 2.22 1.11 1.11 0 1 0 0-2.22ZM450.91 239.57a1.1 1.1 0 0 0 1.1 1.11v-2.22a1.11 1.11 0 0 0-1.1 1.11ZM440.92 249.55a1.11 1.11 0 1 0 1.11 1.11 1.11 1.11 0 0 0-1.11-1.11ZM418.74 249.55a1.11 1.11 0 1 0 0 2.22 1.11 1.11 0 1 0 0-2.22ZM440.92 227.37a1.11 1.11 0 1 0 1.11 1.11 1.11 1.11 0 0 0-1.11-1.11ZM418.74 227.37a1.11 1.11 0 1 0 1.11 1.11 1.11 1.11 0 0 0-1.11-1.11ZM408.57 261.13a1.22 1.22 0 0 0-.3-.3 1.08 1.08 0 0 0-.62-.19v1.11h1.11a1 1 0 0 0-.09-.43.87.87 0 0 0-.1-.19ZM408.27 240.49a1.07 1.07 0 0 0 .3-.3.69.69 0 0 0 .1-.19 1 1 0 0 0 .09-.43 1 1 0 0 0-.09-.43.69.69 0 0 0-.1-.19 1.07 1.07 0 0 0-.3-.3 1.08 1.08 0 0 0-.62-.19v2.22a1.08 1.08 0 0 0 .62-.19Z"/><path class="cls-6" d="M429.83 218.5a1.11 1.11 0 0 0 1.11-1.11h-2.22a1.11 1.11 0 0 0 1.11 1.11ZM450.91 217.39a1.11 1.11 0 0 0 1.1 1.11v-1.11ZM407.65 218.5a1.08 1.08 0 0 0 .62-.19 1.07 1.07 0 0 0 .3-.3.69.69 0 0 0 .1-.19 1 1 0 0 0 .09-.43h-1.11ZM440.92 271.73a1.11 1.11 0 0 0-1.1 1.11 1.07 1.07 0 0 0 .31.77l1.9-.75a1.11 1.11 0 0 0-1.11-1.13ZM418.74 271.73a1.11 1.11 0 1 0 0 2.22 1.11 1.11 0 1 0 0-2.22ZM408.27 284.85a1.07 1.07 0 0 0 .3-.3.64.64 0 0 0 .1-.18 1.08 1.08 0 0 0 .09-.44 1.07 1.07 0 0 0-.09-.43.87.87 0 0 0-.1-.19 1.22 1.22 0 0 0-.3-.3 1.16 1.16 0 0 0-.62-.18V285a1.08 1.08 0 0 0 .62-.15ZM429.83 262.86a1.1 1.1 0 0 0 1.11-1.11h-2.22a1.11 1.11 0 0 0 1.11 1.11ZM450.91 261.75a1.1 1.1 0 0 0 1.1 1.11v-1.11ZM407.65 262.86a1.08 1.08 0 0 0 .62-.19 1.07 1.07 0 0 0 .3-.3.81.81 0 0 0 .1-.18 1.08 1.08 0 0 0 .09-.44h-1.11ZM385.47 38.83a1.11 1.11 0 0 0-1.11 1.11h2.22a1.11 1.11 0 0 0-1.11-1.11ZM406.54 39.94h1.11v-1.11a1.11 1.11 0 0 0-1.11 1.11ZM385.47 16.65a1.11 1.11 0 1 0 1.11 1.11 1.11 1.11 0 0 0-1.11-1.11ZM406.54 17.76a1.11 1.11 0 0 0 1.11 1.11v-2.22a1.11 1.11 0 0 0-1.11 1.11ZM396.56 27.74a1.11 1.11 0 1 0 1.11 1.11 1.11 1.11 0 0 0-1.11-1.11ZM374.38 27.74a1.11 1.11 0 1 0 1.11 1.11 1.11 1.11 0 0 0-1.11-1.11ZM396.56 5.56a1.11 1.11 0 1 0 1.11 1.11 1.11 1.11 0 0 0-1.11-1.11ZM374.38 5.56a1.11 1.11 0 1 0 1.11 1.11 1.11 1.11 0 0 0-1.11-1.11ZM364.4 39.94a1 1 0 0 0-.09-.43 1.14 1.14 0 0 0-.1-.19 1.07 1.07 0 0 0-.3-.3 1.11 1.11 0 0 0-.62-.19v1.11ZM363.91 18.68a1.07 1.07 0 0 0 .3-.3 1.14 1.14 0 0 0 .1-.19 1.07 1.07 0 0 0 0-.86 1.14 1.14 0 0 0-.1-.19 1.07 1.07 0 0 0-.3-.3 1.11 1.11 0 0 0-.62-.19v2.22a1.11 1.11 0 0 0 .62-.19ZM385.47 83.2a1.11 1.11 0 0 0-1.11 1.1h2.22a1.11 1.11 0 0 0-1.11-1.1ZM406.54 84.3h1.11v-1.1a1.11 1.11 0 0 0-1.11 1.1ZM385.47 61a1.11 1.11 0 1 0 1.11 1.11 1.11 1.11 0 0 0-1.11-1.11ZM406.54 62.12a1.11 1.11 0 0 0 1.11 1.11V61a1.11 1.11 0 0 0-1.11 1.12ZM396.56 72.11a1.11 1.11 0 1 0 1.11 1.1 1.11 1.11 0 0 0-1.11-1.1ZM374.38 72.11a1.11 1.11 0 1 0 1.11 1.1 1.11 1.11 0 0 0-1.11-1.1ZM396.56 49.92a1.11 1.11 0 1 0 1.11 1.08 1.11 1.11 0 0 0-1.11-1.08ZM374.38 49.92a1.11 1.11 0 1 0 1.11 1.08 1.11 1.11 0 0 0-1.11-1.08ZM364.4 84.3a1.07 1.07 0 0 0-.09-.43 1.74 1.74 0 0 0-.1-.19 1.18 1.18 0 0 0-.3-.29 1.11 1.11 0 0 0-.62-.19v1.1ZM363.91 63a1.07 1.07 0 0 0 .3-.3 1 1 0 0 0 .1-.18 1.08 1.08 0 0 0 .09-.44 1 1 0 0 0-.09-.43 1.74 1.74 0 0 0-.1-.19 1.22 1.22 0 0 0-.3-.3 1.11 1.11 0 0 0-.62-.19v2.22a1.11 1.11 0 0 0 .62-.19ZM385.47 41.05a1.11 1.11 0 0 0 1.11-1.11h-2.22a1.11 1.11 0 0 0 1.11 1.11ZM406.54 39.94a1.11 1.11 0 0 0 1.11 1.11v-1.11ZM363.29 41.05a1.11 1.11 0 0 0 .62-.19 1.07 1.07 0 0 0 .3-.3 1.14 1.14 0 0 0 .1-.19 1 1 0 0 0 .09-.43h-1.11ZM385.47 127.56a1.11 1.11 0 0 0-1.11 1.11h2.22a1.11 1.11 0 0 0-1.11-1.11ZM406.54 128.67h1.11v-1.11a1.11 1.11 0 0 0-1.11 1.11ZM385.47 105.38a1.11 1.11 0 1 0 1.11 1.11 1.11 1.11 0 0 0-1.11-1.11ZM406.54 106.49a1.11 1.11 0 0 0 1.11 1.11v-2.22a1.11 1.11 0 0 0-1.11 1.11ZM396.56 116.47a1.11 1.11 0 1 0 1.11 1.11 1.11 1.11 0 0 0-1.11-1.11ZM374.38 116.47a1.11 1.11 0 1 0 1.11 1.11 1.11 1.11 0 0 0-1.11-1.11ZM396.56 94.29a1.11 1.11 0 1 0 1.11 1.11 1.11 1.11 0 0 0-1.11-1.11ZM374.38 94.29a1.11 1.11 0 1 0 1.11 1.11 1.11 1.11 0 0 0-1.11-1.11ZM364.21 128.05a1.07 1.07 0 0 0-.3-.3 1.11 1.11 0 0 0-.62-.19v1.11h1.11a1 1 0 0 0-.09-.43 1.14 1.14 0 0 0-.1-.19ZM364.21 107.11a1.74 1.74 0 0 0 .1-.19 1 1 0 0 0 .09-.43 1.08 1.08 0 0 0-.09-.44 1.62 1.62 0 0 0-.1-.18 1.07 1.07 0 0 0-.3-.3 1.11 1.11 0 0 0-.62-.19v2.22a1.11 1.11 0 0 0 .62-.19 1.22 1.22 0 0 0 .3-.3ZM385.47 85.41a1.11 1.11 0 0 0 1.11-1.11h-2.22a1.11 1.11 0 0 0 1.11 1.11ZM406.54 84.3a1.11 1.11 0 0 0 1.11 1.11V84.3ZM364.21 84.93a1.74 1.74 0 0 0 .1-.19 1.08 1.08 0 0 0 .09-.44h-1.11v1.11a1.11 1.11 0 0 0 .62-.19 1 1 0 0 0 .3-.29ZM385.47 171.92a1.11 1.11 0 0 0-1.11 1.11h2.22a1.11 1.11 0 0 0-1.11-1.11ZM406.54 173h1.11v-1.11a1.11 1.11 0 0 0-1.11 1.11ZM385.47 149.74a1.11 1.11 0 1 0 1.11 1.11 1.11 1.11 0 0 0-1.11-1.11ZM406.54 150.85a1.11 1.11 0 0 0 1.11 1.11v-2.22a1.11 1.11 0 0 0-1.11 1.11ZM396.56 160.83a1.11 1.11 0 1 0 1.11 1.11 1.11 1.11 0 0 0-1.11-1.11ZM374.38 160.83a1.11 1.11 0 1 0 1.11 1.11 1.11 1.11 0 0 0-1.11-1.11ZM396.56 138.65a1.11 1.11 0 1 0 1.11 1.11 1.11 1.11 0 0 0-1.11-1.11ZM374.38 138.65a1.11 1.11 0 1 0 1.11 1.11 1.11 1.11 0 0 0-1.11-1.11ZM364.21 172.41a1.07 1.07 0 0 0-.3-.3 1.11 1.11 0 0 0-.62-.19V173h1.11a1 1 0 0 0-.09-.43 1.14 1.14 0 0 0-.1-.16ZM364.21 151.47a1.14 1.14 0 0 0 .1-.19 1.07 1.07 0 0 0 0-.86 1.14 1.14 0 0 0-.1-.19 1.07 1.07 0 0 0-.3-.3 1.11 1.11 0 0 0-.62-.19V152a1.11 1.11 0 0 0 .62-.19 1.07 1.07 0 0 0 .3-.34Z"/><path class="cls-6" d="M385.47 129.78a1.11 1.11 0 0 0 1.11-1.11h-2.22a1.11 1.11 0 0 0 1.11 1.11ZM406.54 128.67a1.11 1.11 0 0 0 1.11 1.11v-1.11ZM364.21 129.29a1.14 1.14 0 0 0 .1-.19 1 1 0 0 0 .09-.43h-1.11v1.11a1.11 1.11 0 0 0 .62-.19 1.07 1.07 0 0 0 .3-.3ZM385.47 216.28a1.11 1.11 0 0 0-1.11 1.11h2.22a1.11 1.11 0 0 0-1.11-1.11ZM406.54 217.39h1.11v-1.11a1.11 1.11 0 0 0-1.11 1.11ZM385.47 194.1a1.11 1.11 0 1 0 1.11 1.11 1.11 1.11 0 0 0-1.11-1.11ZM406.54 195.21a1.11 1.11 0 0 0 1.11 1.11v-2.22a1.11 1.11 0 0 0-1.11 1.11ZM396.56 205.19a1.11 1.11 0 1 0 1.11 1.11 1.11 1.11 0 0 0-1.11-1.11ZM374.38 205.19a1.11 1.11 0 1 0 1.11 1.11 1.11 1.11 0 0 0-1.11-1.11ZM396.56 183a1.11 1.11 0 1 0 1.11 1.11 1.11 1.11 0 0 0-1.11-1.11ZM374.38 183a1.11 1.11 0 1 0 1.11 1.11 1.11 1.11 0 0 0-1.11-1.11ZM364.21 216.77a1.07 1.07 0 0 0-.3-.3 1.11 1.11 0 0 0-.62-.19v1.11h1.11a1 1 0 0 0-.09-.43 1.14 1.14 0 0 0-.1-.19ZM364.21 195.83a1.14 1.14 0 0 0 .1-.19 1.07 1.07 0 0 0 0-.86 1.14 1.14 0 0 0-.1-.19 1.07 1.07 0 0 0-.3-.3 1.11 1.11 0 0 0-.62-.19v2.22a1.11 1.11 0 0 0 .62-.19 1.07 1.07 0 0 0 .3-.3ZM385.47 174.14a1.11 1.11 0 0 0 1.11-1.11h-2.22a1.11 1.11 0 0 0 1.11 1.11ZM406.54 173a1.11 1.11 0 0 0 1.11 1.11V173ZM364.21 173.65a1.14 1.14 0 0 0 .1-.19 1 1 0 0 0 .09-.43h-1.11v1.11a1.11 1.11 0 0 0 .62-.19 1.07 1.07 0 0 0 .3-.3ZM385.47 260.64a1.11 1.11 0 0 0-1.11 1.11h2.22a1.11 1.11 0 0 0-1.11-1.11ZM407.65 260.64a1.11 1.11 0 0 0-1.11 1.11h1.11ZM385.47 238.46a1.11 1.11 0 1 0 1.11 1.11 1.11 1.11 0 0 0-1.11-1.11ZM406.54 239.57a1.11 1.11 0 0 0 1.11 1.11v-2.22a1.11 1.11 0 0 0-1.11 1.11ZM396.56 249.55a1.11 1.11 0 1 0 1.11 1.11 1.11 1.11 0 0 0-1.11-1.11ZM374.38 249.55a1.11 1.11 0 1 0 1.11 1.11 1.11 1.11 0 0 0-1.11-1.11ZM396.56 227.37a1.11 1.11 0 1 0 1.11 1.11 1.11 1.11 0 0 0-1.11-1.11ZM374.38 227.37a1.11 1.11 0 1 0 1.11 1.11 1.11 1.11 0 0 0-1.11-1.11ZM364.21 261.13a1.22 1.22 0 0 0-.3-.3 1.11 1.11 0 0 0-.62-.19v1.11h1.11a1 1 0 0 0-.09-.43 1.74 1.74 0 0 0-.1-.19ZM364.21 240.19a1.14 1.14 0 0 0 .1-.19 1 1 0 0 0 .09-.43 1 1 0 0 0-.09-.43 1.14 1.14 0 0 0-.1-.19 1.07 1.07 0 0 0-.3-.3 1.11 1.11 0 0 0-.62-.19v2.22a1.11 1.11 0 0 0 .62-.19 1.07 1.07 0 0 0 .3-.3Z"/><path class="cls-6" d="M385.47 218.5a1.11 1.11 0 0 0 1.11-1.11h-2.22a1.11 1.11 0 0 0 1.11 1.11ZM406.54 217.39a1.11 1.11 0 0 0 1.11 1.11v-1.11ZM364.21 218a1.14 1.14 0 0 0 .1-.19 1 1 0 0 0 .09-.43h-1.11v1.11a1.11 1.11 0 0 0 .62-.19 1.07 1.07 0 0 0 .3-.3ZM385.47 282.83a1.11 1.11 0 1 0 1.11 1.1 1.11 1.11 0 0 0-1.11-1.1ZM406.54 283.93a1.11 1.11 0 0 0 1.11 1.11v-2.21a1.11 1.11 0 0 0-1.11 1.1ZM374.38 293.92a1.11 1.11 0 1 0 1.11 1.11 1.11 1.11 0 0 0-1.11-1.11ZM396.56 271.73a1.11 1.11 0 1 0 1.11 1.11 1.11 1.11 0 0 0-1.11-1.11ZM374.38 271.73a1.11 1.11 0 1 0 1.11 1.11 1.11 1.11 0 0 0-1.11-1.11ZM364.21 284.55a1 1 0 0 0 .1-.18 1.08 1.08 0 0 0 .09-.44 1.07 1.07 0 0 0-.09-.43 1.74 1.74 0 0 0-.1-.19 1.22 1.22 0 0 0-.3-.3 1.18 1.18 0 0 0-.62-.18V285a1.11 1.11 0 0 0 .62-.19 1.07 1.07 0 0 0 .3-.26ZM385.47 262.86a1.11 1.11 0 0 0 1.11-1.11h-2.22a1.11 1.11 0 0 0 1.11 1.11ZM406.54 261.75a1.11 1.11 0 0 0 1.11 1.11v-1.11ZM364.21 262.37a1.62 1.62 0 0 0 .1-.18 1.08 1.08 0 0 0 .09-.44h-1.11v1.11a1.11 1.11 0 0 0 .62-.19 1.07 1.07 0 0 0 .3-.3ZM341.11 38.83a1.11 1.11 0 0 0-1.11 1.11h2.22a1.11 1.11 0 0 0-1.11-1.11ZM362.18 39.94h1.11v-1.11a1.11 1.11 0 0 0-1.11 1.11ZM341.11 18.87a1.11 1.11 0 1 0-1.11-1.11 1.11 1.11 0 0 0 1.11 1.11ZM362.18 17.76a1.11 1.11 0 0 0 1.11 1.11v-2.22a1.11 1.11 0 0 0-1.11 1.11ZM352.2 30a1.11 1.11 0 1 0-1.11-1.11A1.11 1.11 0 0 0 352.2 30ZM330 30a1.11 1.11 0 1 0-1.11-1.11A1.11 1.11 0 0 0 330 30ZM352.2 7.78a1.11 1.11 0 1 0-1.11-1.11 1.11 1.11 0 0 0 1.11 1.11ZM330 7.78a1.11 1.11 0 1 0-1.11-1.11A1.11 1.11 0 0 0 330 7.78ZM320 39.94a1 1 0 0 0-.09-.43 1.14 1.14 0 0 0-.1-.19 1.07 1.07 0 0 0-.3-.3 1.11 1.11 0 0 0-.62-.19v1.11ZM319.85 18.38a1.14 1.14 0 0 0 .1-.19 1.07 1.07 0 0 0 0-.86 1.14 1.14 0 0 0-.1-.19 1.07 1.07 0 0 0-.3-.3 1.11 1.11 0 0 0-.62-.19v2.22a1.11 1.11 0 0 0 .62-.19 1.07 1.07 0 0 0 .3-.3ZM341.11 83.2a1.11 1.11 0 0 0-1.11 1.1h2.22a1.11 1.11 0 0 0-1.11-1.1ZM363.29 83.2a1.11 1.11 0 0 0-1.11 1.1h1.11ZM341.11 61a1.11 1.11 0 1 0 1.11 1.11 1.11 1.11 0 0 0-1.11-1.11ZM362.18 62.12a1.11 1.11 0 0 0 1.11 1.11V61a1.11 1.11 0 0 0-1.11 1.12ZM352.2 72.11a1.11 1.11 0 1 0 1.11 1.1 1.11 1.11 0 0 0-1.11-1.1ZM330 72.11a1.11 1.11 0 1 0 1.11 1.1 1.11 1.11 0 0 0-1.11-1.1ZM352.2 49.92a1.11 1.11 0 1 0 1.11 1.08 1.11 1.11 0 0 0-1.11-1.08ZM330 49.92a1.11 1.11 0 1 0 1.13 1.08 1.11 1.11 0 0 0-1.13-1.08ZM319.85 83.68a1.18 1.18 0 0 0-.3-.29 1.11 1.11 0 0 0-.62-.19v1.1H320a1.07 1.07 0 0 0-.09-.43 1.74 1.74 0 0 0-.06-.19ZM319.85 62.74a1 1 0 0 0 .1-.18 1.08 1.08 0 0 0 .09-.44 1 1 0 0 0-.09-.43 1.74 1.74 0 0 0-.1-.19 1.22 1.22 0 0 0-.3-.3 1.11 1.11 0 0 0-.62-.19v2.22a1.11 1.11 0 0 0 .62-.19 1.07 1.07 0 0 0 .3-.3ZM341.11 41.05a1.11 1.11 0 0 0 1.11-1.11H340a1.11 1.11 0 0 0 1.11 1.11ZM362.18 39.94a1.11 1.11 0 0 0 1.11 1.11v-1.11ZM319.85 40.56a1.14 1.14 0 0 0 .1-.19 1 1 0 0 0 .09-.43h-1.11v1.11a1.11 1.11 0 0 0 .62-.19 1.07 1.07 0 0 0 .3-.3ZM341.11 127.56a1.11 1.11 0 0 0-1.11 1.11h2.22a1.11 1.11 0 0 0-1.11-1.11ZM363.29 127.56a1.11 1.11 0 0 0-1.11 1.11h1.11ZM341.11 105.38a1.11 1.11 0 1 0 1.11 1.11 1.11 1.11 0 0 0-1.11-1.11ZM362.18 106.49a1.11 1.11 0 0 0 1.11 1.11v-2.22a1.11 1.11 0 0 0-1.11 1.11ZM352.2 116.47a1.11 1.11 0 1 0 1.11 1.11 1.11 1.11 0 0 0-1.11-1.11ZM330 116.47a1.11 1.11 0 1 0 1.11 1.11 1.11 1.11 0 0 0-1.11-1.11ZM352.2 94.29a1.11 1.11 0 1 0 1.11 1.11 1.11 1.11 0 0 0-1.11-1.11ZM330 94.29a1.11 1.11 0 1 0 1.11 1.11 1.11 1.11 0 0 0-1.11-1.11ZM319.85 128.05a1.07 1.07 0 0 0-.3-.3 1.11 1.11 0 0 0-.62-.19v1.11H320a1 1 0 0 0-.09-.43 1.14 1.14 0 0 0-.06-.19ZM319.85 107.11a1.74 1.74 0 0 0 .1-.19 1 1 0 0 0 .09-.43 1.08 1.08 0 0 0-.09-.44 1.62 1.62 0 0 0-.1-.18 1.07 1.07 0 0 0-.3-.3 1.11 1.11 0 0 0-.62-.19v2.22a1.11 1.11 0 0 0 .62-.19 1.22 1.22 0 0 0 .3-.3ZM341.11 85.41a1.11 1.11 0 0 0 1.11-1.11H340a1.11 1.11 0 0 0 1.11 1.11ZM362.18 84.3a1.11 1.11 0 0 0 1.11 1.11V84.3ZM319.85 84.93a1.74 1.74 0 0 0 .1-.19 1.08 1.08 0 0 0 .09-.44h-1.11v1.11a1.11 1.11 0 0 0 .62-.19 1 1 0 0 0 .3-.29ZM341.11 171.92A1.11 1.11 0 0 0 340 173h2.22a1.11 1.11 0 0 0-1.11-1.08ZM363.29 171.92a1.11 1.11 0 0 0-1.11 1.11h1.11ZM341.11 149.74a1.11 1.11 0 1 0 1.11 1.11 1.11 1.11 0 0 0-1.11-1.11ZM362.18 150.85a1.11 1.11 0 0 0 1.11 1.11v-2.22a1.11 1.11 0 0 0-1.11 1.11ZM352.2 160.83a1.11 1.11 0 1 0 1.11 1.11 1.11 1.11 0 0 0-1.11-1.11ZM330 160.83a1.11 1.11 0 1 0 1.11 1.11 1.11 1.11 0 0 0-1.11-1.11ZM352.2 138.65a1.11 1.11 0 1 0 1.11 1.11 1.11 1.11 0 0 0-1.11-1.11ZM330 138.65a1.11 1.11 0 1 0 1.11 1.11 1.11 1.11 0 0 0-1.11-1.11ZM319.85 172.41a1.07 1.07 0 0 0-.3-.3 1.11 1.11 0 0 0-.62-.19V173H320a1 1 0 0 0-.09-.43 1.14 1.14 0 0 0-.06-.16ZM319.85 151.47a1.14 1.14 0 0 0 .1-.19 1.07 1.07 0 0 0 0-.86 1.14 1.14 0 0 0-.1-.19 1.07 1.07 0 0 0-.3-.3 1.11 1.11 0 0 0-.62-.19V152a1.11 1.11 0 0 0 .62-.19 1.07 1.07 0 0 0 .3-.34Z"/><path class="cls-6" d="M341.11 129.78a1.11 1.11 0 0 0 1.11-1.11H340a1.11 1.11 0 0 0 1.11 1.11ZM362.18 128.67a1.11 1.11 0 0 0 1.11 1.11v-1.11ZM319.85 129.29a1.14 1.14 0 0 0 .1-.19 1 1 0 0 0 .09-.43h-1.11v1.11a1.11 1.11 0 0 0 .62-.19 1.07 1.07 0 0 0 .3-.3ZM341.11 216.28a1.11 1.11 0 0 0-1.11 1.11h2.22a1.11 1.11 0 0 0-1.11-1.11ZM363.29 216.28a1.11 1.11 0 0 0-1.11 1.11h1.11ZM341.11 194.1a1.11 1.11 0 1 0 1.11 1.11 1.11 1.11 0 0 0-1.11-1.11ZM362.18 195.21a1.11 1.11 0 0 0 1.11 1.11v-2.22a1.11 1.11 0 0 0-1.11 1.11ZM352.2 205.19a1.11 1.11 0 1 0 1.11 1.11 1.11 1.11 0 0 0-1.11-1.11ZM330 205.19a1.11 1.11 0 1 0 1.11 1.11 1.11 1.11 0 0 0-1.11-1.11ZM352.2 183a1.11 1.11 0 1 0 1.11 1.11 1.11 1.11 0 0 0-1.11-1.11ZM330 183a1.11 1.11 0 1 0 1.11 1.11A1.11 1.11 0 0 0 330 183ZM319.85 216.77a1.07 1.07 0 0 0-.3-.3 1.11 1.11 0 0 0-.62-.19v1.11H320a1 1 0 0 0 0-.39 1.14 1.14 0 0 0-.15-.23ZM319.85 195.83a1.14 1.14 0 0 0 .1-.19 1.07 1.07 0 0 0 0-.86 1.14 1.14 0 0 0-.1-.19 1.07 1.07 0 0 0-.3-.3 1.11 1.11 0 0 0-.62-.19v2.22a1.11 1.11 0 0 0 .62-.19 1.07 1.07 0 0 0 .3-.3ZM341.11 174.14a1.11 1.11 0 0 0 1.11-1.11H340a1.11 1.11 0 0 0 1.11 1.11ZM362.18 173a1.11 1.11 0 0 0 1.11 1.11V173ZM319.85 173.65a1.14 1.14 0 0 0 .1-.19 1 1 0 0 0 .05-.46h-1.11v1.11a1.11 1.11 0 0 0 .62-.19 1.07 1.07 0 0 0 .34-.27ZM341.11 260.64a1.11 1.11 0 0 0-1.11 1.11h2.22a1.11 1.11 0 0 0-1.11-1.11ZM363.29 260.64a1.11 1.11 0 0 0-1.11 1.11h1.11ZM341.11 238.46a1.11 1.11 0 1 0 1.11 1.11 1.11 1.11 0 0 0-1.11-1.11ZM362.18 239.57a1.11 1.11 0 0 0 1.11 1.11v-2.22a1.11 1.11 0 0 0-1.11 1.11ZM352.2 249.55a1.11 1.11 0 1 0 1.11 1.11 1.11 1.11 0 0 0-1.11-1.11ZM330 249.55a1.11 1.11 0 1 0 1.11 1.11 1.11 1.11 0 0 0-1.11-1.11ZM352.2 227.37a1.11 1.11 0 1 0 1.11 1.11 1.11 1.11 0 0 0-1.11-1.11ZM330 227.37a1.11 1.11 0 1 0 1.11 1.11 1.11 1.11 0 0 0-1.11-1.11ZM319.85 261.13a1.22 1.22 0 0 0-.3-.3 1.11 1.11 0 0 0-.62-.19v1.11H320a1 1 0 0 0-.09-.43 1.74 1.74 0 0 0-.06-.19ZM319.85 240.19a1.14 1.14 0 0 0 .1-.19 1 1 0 0 0 .09-.43 1 1 0 0 0-.09-.43 1.14 1.14 0 0 0-.1-.19 1.07 1.07 0 0 0-.3-.3 1.11 1.11 0 0 0-.62-.19v2.22a1.11 1.11 0 0 0 .62-.19 1.07 1.07 0 0 0 .3-.3Z"/><path class="cls-6" d="M341.11 218.5a1.11 1.11 0 0 0 1.11-1.11H340a1.11 1.11 0 0 0 1.11 1.11ZM362.18 217.39a1.11 1.11 0 0 0 1.11 1.11v-1.11ZM319.85 218a1.14 1.14 0 0 0 .1-.19 1 1 0 0 0 .09-.43h-1.11v1.11a1.11 1.11 0 0 0 .62-.19 1.07 1.07 0 0 0 .3-.3ZM341.11 305a1.11 1.11 0 0 0-1.11 1.11h2.22a1.11 1.11 0 0 0-1.11-1.11ZM341.11 282.83a1.11 1.11 0 1 0 1.11 1.1 1.11 1.11 0 0 0-1.11-1.1ZM362.18 283.93a1.11 1.11 0 0 0 1.11 1.11v-2.21a1.11 1.11 0 0 0-1.11 1.1ZM352.2 293.92a1.11 1.11 0 1 0 1.11 1.11 1.11 1.11 0 0 0-1.11-1.11ZM330 293.92a1.11 1.11 0 1 0 1.11 1.11 1.11 1.11 0 0 0-1.11-1.11ZM352.2 271.73a1.11 1.11 0 1 0 1.11 1.11 1.11 1.11 0 0 0-1.11-1.11ZM330 271.73a1.11 1.11 0 1 0 1.11 1.11 1.11 1.11 0 0 0-1.11-1.11ZM320 306.12a1.08 1.08 0 0 0-.09-.44 1 1 0 0 0-.1-.18 1.07 1.07 0 0 0-.3-.3 1.11 1.11 0 0 0-.62-.19v1.11ZM319.55 284.85a1.07 1.07 0 0 0 .3-.3 1 1 0 0 0 .1-.18 1.08 1.08 0 0 0 .09-.44 1.07 1.07 0 0 0-.09-.43 1.74 1.74 0 0 0-.1-.19 1.22 1.22 0 0 0-.3-.3 1.18 1.18 0 0 0-.62-.18V285a1.11 1.11 0 0 0 .62-.15ZM341.11 262.86a1.11 1.11 0 0 0 1.11-1.11H340a1.11 1.11 0 0 0 1.11 1.11ZM362.18 261.75a1.11 1.11 0 0 0 1.11 1.11v-1.11ZM318.93 262.86a1.11 1.11 0 0 0 .62-.19 1.07 1.07 0 0 0 .3-.3 1.62 1.62 0 0 0 .1-.18 1.08 1.08 0 0 0 .09-.44h-1.11ZM341.11 307.23a1.11 1.11 0 0 0 1.11-1.11H340a1.11 1.11 0 0 0 1.11 1.11ZM318.93 307.23a1.11 1.11 0 0 0 .62-.19 1.22 1.22 0 0 0 .3-.3 1.74 1.74 0 0 0 .1-.19 1.07 1.07 0 0 0 .09-.43h-1.11ZM296.75 38.83a1.11 1.11 0 0 0-1.11 1.11h2.22a1.11 1.11 0 0 0-1.11-1.11ZM318.93 38.83a1.11 1.11 0 0 0-1.11 1.11h1.11ZM296.75 18.87a1.11 1.11 0 1 0-1.11-1.11 1.11 1.11 0 0 0 1.11 1.11ZM317.82 17.76a1.11 1.11 0 0 0 1.11 1.11v-2.22a1.11 1.11 0 0 0-1.11 1.11ZM307.84 30a1.11 1.11 0 1 0-1.11-1.11 1.11 1.11 0 0 0 1.11 1.11ZM285.66 30a1.11 1.11 0 1 0-1.11-1.11 1.11 1.11 0 0 0 1.11 1.11ZM307.84 7.78a1.11 1.11 0 1 0-1.11-1.11 1.11 1.11 0 0 0 1.11 1.11ZM285.66 7.78a1.11 1.11 0 1 0-1.11-1.11 1.11 1.11 0 0 0 1.11 1.11ZM275.68 39.94a1.22 1.22 0 0 0-.09-.43 1.14 1.14 0 0 0-.1-.19 1.22 1.22 0 0 0-.3-.3 1.11 1.11 0 0 0-.62-.19v1.11ZM275.49 18.38a1.14 1.14 0 0 0 .1-.19 1.07 1.07 0 0 0 0-.86 1.14 1.14 0 0 0-.1-.19 1.22 1.22 0 0 0-.3-.3 1.11 1.11 0 0 0-.62-.19v2.22a1.11 1.11 0 0 0 .62-.19 1.22 1.22 0 0 0 .3-.3ZM296.75 83.2a1.1 1.1 0 0 0-1.11 1.1h2.22a1.11 1.11 0 0 0-1.11-1.1ZM318.93 83.2a1.11 1.11 0 0 0-1.11 1.1h1.11ZM296.75 61a1.11 1.11 0 1 0 1.11 1.11 1.11 1.11 0 0 0-1.11-1.11ZM317.82 62.12a1.11 1.11 0 0 0 1.11 1.11V61a1.11 1.11 0 0 0-1.11 1.12ZM307.84 72.11a1.11 1.11 0 1 0 1.11 1.1 1.1 1.1 0 0 0-1.11-1.1ZM285.66 72.11a1.11 1.11 0 1 0 1.11 1.1 1.1 1.1 0 0 0-1.11-1.1ZM307.84 49.92A1.11 1.11 0 1 0 309 51a1.11 1.11 0 0 0-1.16-1.08ZM285.66 49.92a1.11 1.11 0 1 0 1.11 1.08 1.11 1.11 0 0 0-1.11-1.08ZM275.49 83.68a1.38 1.38 0 0 0-.3-.29 1.11 1.11 0 0 0-.62-.19v1.1h1.11a1.27 1.27 0 0 0-.09-.43 1.74 1.74 0 0 0-.1-.19ZM275.49 62.74a1 1 0 0 0 .1-.18 1.28 1.28 0 0 0 .09-.44 1.22 1.22 0 0 0-.09-.43 1.74 1.74 0 0 0-.1-.19 1.42 1.42 0 0 0-.3-.3 1.11 1.11 0 0 0-.62-.19v2.22a1.11 1.11 0 0 0 .62-.19 1.22 1.22 0 0 0 .3-.3ZM296.75 41.05a1.11 1.11 0 0 0 1.11-1.11h-2.22a1.1 1.1 0 0 0 1.11 1.11ZM317.82 39.94a1.11 1.11 0 0 0 1.11 1.11v-1.11ZM275.49 40.56a1.14 1.14 0 0 0 .1-.19 1.18 1.18 0 0 0 .09-.43h-1.11v1.11a1.11 1.11 0 0 0 .62-.19 1.22 1.22 0 0 0 .3-.3ZM296.75 127.56a1.11 1.11 0 0 0-1.11 1.11h2.22a1.11 1.11 0 0 0-1.11-1.11ZM318.93 127.56a1.11 1.11 0 0 0-1.11 1.11h1.11ZM296.75 105.38a1.11 1.11 0 0 0 0 2.22 1.11 1.11 0 1 0 0-2.22ZM317.82 106.49a1.11 1.11 0 0 0 1.11 1.11v-2.22a1.11 1.11 0 0 0-1.11 1.11ZM307.84 116.47a1.11 1.11 0 0 0 0 2.22 1.11 1.11 0 1 0 0-2.22ZM285.66 116.47a1.11 1.11 0 0 0 0 2.22 1.11 1.11 0 1 0 0-2.22ZM307.84 94.29A1.11 1.11 0 1 0 309 95.4a1.1 1.1 0 0 0-1.16-1.11ZM285.66 94.29a1.11 1.11 0 1 0 1.11 1.11 1.1 1.1 0 0 0-1.11-1.11ZM275.49 128.05a1.22 1.22 0 0 0-.3-.3 1.11 1.11 0 0 0-.62-.19v1.11h1.11a1.18 1.18 0 0 0-.09-.43 1.14 1.14 0 0 0-.1-.19ZM275.49 107.11a1.74 1.74 0 0 0 .1-.19 1.22 1.22 0 0 0 .09-.43 1.28 1.28 0 0 0-.09-.44 1.62 1.62 0 0 0-.1-.18 1.22 1.22 0 0 0-.3-.3 1.11 1.11 0 0 0-.62-.19v2.22a1.11 1.11 0 0 0 .62-.19 1.42 1.42 0 0 0 .3-.3ZM296.75 85.41a1.11 1.11 0 0 0 1.11-1.11h-2.22a1.1 1.1 0 0 0 1.11 1.11ZM317.82 84.3a1.11 1.11 0 0 0 1.11 1.11V84.3ZM275.49 84.93a1.74 1.74 0 0 0 .1-.19 1.28 1.28 0 0 0 .09-.44h-1.11v1.11a1.11 1.11 0 0 0 .62-.19 1.18 1.18 0 0 0 .3-.29ZM296.75 171.92a1.11 1.11 0 0 0-1.11 1.11h2.22a1.11 1.11 0 0 0-1.11-1.11ZM318.93 171.92a1.11 1.11 0 0 0-1.11 1.11h1.11ZM296.75 149.74a1.11 1.11 0 1 0 1.11 1.11 1.11 1.11 0 0 0-1.11-1.11ZM317.82 150.85a1.11 1.11 0 0 0 1.11 1.11v-2.22a1.11 1.11 0 0 0-1.11 1.11ZM307.84 160.83a1.11 1.11 0 1 0 1.11 1.11 1.11 1.11 0 0 0-1.11-1.11ZM285.66 160.83a1.11 1.11 0 1 0 1.11 1.11 1.11 1.11 0 0 0-1.11-1.11ZM307.84 138.65a1.11 1.11 0 1 0 1.11 1.11 1.11 1.11 0 0 0-1.11-1.11ZM285.66 138.65a1.11 1.11 0 1 0 1.11 1.11 1.11 1.11 0 0 0-1.11-1.11ZM275.49 172.41a1.22 1.22 0 0 0-.3-.3 1.11 1.11 0 0 0-.62-.19V173h1.11a1.22 1.22 0 0 0-.09-.43 1.14 1.14 0 0 0-.1-.16ZM275.19 151.77a1.22 1.22 0 0 0 .3-.3 1.14 1.14 0 0 0 .1-.19 1.07 1.07 0 0 0 0-.86 1.14 1.14 0 0 0-.1-.19 1.22 1.22 0 0 0-.3-.3 1.11 1.11 0 0 0-.62-.19V152a1.11 1.11 0 0 0 .62-.23Z"/><path class="cls-6" d="M296.75 129.78a1.11 1.11 0 0 0 1.11-1.11h-2.22a1.11 1.11 0 0 0 1.11 1.11ZM317.82 128.67a1.11 1.11 0 0 0 1.11 1.11v-1.11ZM274.57 129.78a1.11 1.11 0 0 0 .62-.19 1.22 1.22 0 0 0 .3-.3 1.14 1.14 0 0 0 .1-.19 1.22 1.22 0 0 0 .09-.43h-1.11ZM296.75 216.28a1.11 1.11 0 0 0-1.11 1.11h2.22a1.11 1.11 0 0 0-1.11-1.11ZM318.93 216.28a1.11 1.11 0 0 0-1.11 1.11h1.11ZM296.75 194.1a1.11 1.11 0 1 0 1.11 1.11 1.11 1.11 0 0 0-1.11-1.11ZM317.82 195.21a1.11 1.11 0 0 0 1.11 1.11v-2.22a1.11 1.11 0 0 0-1.11 1.11ZM307.84 205.19a1.11 1.11 0 1 0 1.16 1.11 1.11 1.11 0 0 0-1.16-1.11ZM285.66 205.19a1.11 1.11 0 1 0 1.11 1.11 1.11 1.11 0 0 0-1.11-1.11ZM307.84 183a1.11 1.11 0 1 0 1.11 1.11 1.11 1.11 0 0 0-1.11-1.11ZM285.66 183a1.11 1.11 0 1 0 1.11 1.11 1.11 1.11 0 0 0-1.11-1.11ZM275.49 216.77a1.22 1.22 0 0 0-.3-.3 1.11 1.11 0 0 0-.62-.19v1.11h1.11a1.22 1.22 0 0 0-.09-.43 1.14 1.14 0 0 0-.1-.19ZM275.19 196.13a1.22 1.22 0 0 0 .3-.3 1.14 1.14 0 0 0 .1-.19 1.07 1.07 0 0 0 0-.86 1.14 1.14 0 0 0-.1-.19 1.22 1.22 0 0 0-.3-.3 1.11 1.11 0 0 0-.62-.19v2.22a1.11 1.11 0 0 0 .62-.19ZM296.75 174.14a1.11 1.11 0 0 0 1.11-1.11h-2.22a1.11 1.11 0 0 0 1.11 1.11ZM317.82 173a1.11 1.11 0 0 0 1.11 1.11V173ZM274.57 174.14a1.11 1.11 0 0 0 .62-.19 1.22 1.22 0 0 0 .3-.3 1.14 1.14 0 0 0 .1-.19 1.22 1.22 0 0 0 .09-.43h-1.11ZM296.75 260.64a1.11 1.11 0 0 0-1.11 1.11h2.22a1.11 1.11 0 0 0-1.11-1.11ZM318.93 260.64a1.11 1.11 0 0 0-1.11 1.11h1.11ZM296.75 240.68a1.11 1.11 0 1 0-1.11-1.11 1.11 1.11 0 0 0 1.11 1.11ZM317.82 239.57a1.11 1.11 0 0 0 1.11 1.11v-2.22a1.11 1.11 0 0 0-1.11 1.11ZM307.84 251.77a1.11 1.11 0 1 0-1.11-1.11 1.11 1.11 0 0 0 1.11 1.11ZM307.84 229.59a1.11 1.11 0 1 0-1.11-1.11 1.11 1.11 0 0 0 1.11 1.11ZM285.66 227.37a1.11 1.11 0 1 0 1.11 1.11 1.11 1.11 0 0 0-1.11-1.11ZM275.68 261.75a1.22 1.22 0 0 0-.09-.43 1.74 1.74 0 0 0-.1-.19 1.42 1.42 0 0 0-.3-.3 1.11 1.11 0 0 0-.62-.19v1.11ZM275.19 240.49a1.22 1.22 0 0 0 .3-.3 1.14 1.14 0 0 0 .1-.19 1.18 1.18 0 0 0 .09-.43 1.22 1.22 0 0 0-.09-.43 1.14 1.14 0 0 0-.1-.19 1.22 1.22 0 0 0-.3-.3 1.11 1.11 0 0 0-.62-.19v2.22a1.11 1.11 0 0 0 .62-.19Z"/><path class="cls-6" d="M296.75 218.5a1.11 1.11 0 0 0 1.11-1.11h-2.22a1.11 1.11 0 0 0 1.11 1.11ZM317.82 217.39a1.11 1.11 0 0 0 1.11 1.11v-1.11ZM274.57 218.5a1.11 1.11 0 0 0 .62-.19 1.22 1.22 0 0 0 .3-.3 1.14 1.14 0 0 0 .1-.19 1.22 1.22 0 0 0 .09-.43h-1.11ZM317.82 306.12h1.11V305a1.11 1.11 0 0 0-1.11 1.12ZM317.82 283.93a1.11 1.11 0 0 0 1.11 1.11v-2.21a1.11 1.11 0 0 0-1.11 1.1ZM307.84 293.92A1.11 1.11 0 1 0 309 295a1.1 1.1 0 0 0-1.16-1.08ZM307.84 271.73a1.11 1.11 0 1 0 1.11 1.11 1.11 1.11 0 0 0-1.11-1.11ZM275.19 284.85a1.22 1.22 0 0 0 .3-.3 1 1 0 0 0 .1-.18 1.1 1.1 0 0 0 0-.87 1.74 1.74 0 0 0-.1-.19 1.42 1.42 0 0 0-.3-.3 1.18 1.18 0 0 0-.62-.18V285a1.11 1.11 0 0 0 .62-.15ZM296.75 262.86a1.11 1.11 0 0 0 1.11-1.11h-2.22a1.1 1.1 0 0 0 1.11 1.11ZM317.82 261.75a1.11 1.11 0 0 0 1.11 1.11v-1.11ZM274.57 262.86a1.11 1.11 0 0 0 .62-.19 1.22 1.22 0 0 0 .3-.3 1.62 1.62 0 0 0 .1-.18 1.28 1.28 0 0 0 .09-.44h-1.11ZM317.82 306.12a1.11 1.11 0 0 0 1.11 1.11v-1.11ZM252.39 38.83a1.11 1.11 0 0 0-1.11 1.11h2.21a1.11 1.11 0 0 0-1.1-1.11ZM274.57 38.83a1.11 1.11 0 0 0-1.11 1.11h1.11ZM252.39 18.87a1.11 1.11 0 1 0-1.11-1.11 1.11 1.11 0 0 0 1.11 1.11ZM273.46 17.76a1.11 1.11 0 0 0 1.11 1.11v-2.22a1.11 1.11 0 0 0-1.11 1.11ZM263.48 30a1.11 1.11 0 1 0-1.11-1.11 1.1 1.1 0 0 0 1.11 1.11ZM241.29 30a1.11 1.11 0 1 0-1.1-1.11 1.1 1.1 0 0 0 1.1 1.11ZM263.48 7.78a1.11 1.11 0 1 0-1.11-1.11 1.11 1.11 0 0 0 1.11 1.11ZM241.29 7.78a1.11 1.11 0 1 0-1.1-1.11 1.11 1.11 0 0 0 1.1 1.11ZM231.31 39.94a1.22 1.22 0 0 0-.08-.43 1.18 1.18 0 0 0-.11-.19 1.07 1.07 0 0 0-.3-.3 1.08 1.08 0 0 0-.62-.19v1.11ZM231.12 18.38a1.18 1.18 0 0 0 .11-.19 1.2 1.2 0 0 0 0-.86 1.18 1.18 0 0 0-.11-.19 1.07 1.07 0 0 0-.3-.3 1.08 1.08 0 0 0-.62-.19v2.22a1.08 1.08 0 0 0 .62-.19 1.07 1.07 0 0 0 .3-.3ZM252.39 83.2a1.1 1.1 0 0 0-1.11 1.1h2.21a1.1 1.1 0 0 0-1.1-1.1ZM274.57 83.2a1.1 1.1 0 0 0-1.11 1.1h1.11ZM252.39 61a1.11 1.11 0 1 0 1.1 1.11 1.11 1.11 0 0 0-1.1-1.11ZM273.46 62.12a1.1 1.1 0 0 0 1.11 1.11V61a1.11 1.11 0 0 0-1.11 1.12ZM263.48 72.11a1.11 1.11 0 1 0 1.1 1.1 1.1 1.1 0 0 0-1.1-1.1ZM241.29 72.11a1.11 1.11 0 1 0 1.11 1.1 1.1 1.1 0 0 0-1.11-1.1ZM263.48 49.92a1.11 1.11 0 1 0 1.1 1.11 1.11 1.11 0 0 0-1.1-1.11ZM241.29 49.92A1.11 1.11 0 1 0 242.4 51a1.11 1.11 0 0 0-1.11-1.08ZM231.12 83.68a1.18 1.18 0 0 0-.3-.29 1.08 1.08 0 0 0-.62-.19v1.1h1.11a1.26 1.26 0 0 0-.08-.43ZM231.12 62.74a1.08 1.08 0 0 0 .11-.18 1.27 1.27 0 0 0 .08-.44 1.22 1.22 0 0 0-.08-.43l-.11-.19a1.22 1.22 0 0 0-.3-.3 1.08 1.08 0 0 0-.62-.19v2.22a1.08 1.08 0 0 0 .62-.19 1.07 1.07 0 0 0 .3-.3ZM252.39 41.05a1.1 1.1 0 0 0 1.1-1.11h-2.21a1.1 1.1 0 0 0 1.11 1.11ZM273.46 39.94a1.1 1.1 0 0 0 1.11 1.11v-1.11ZM231.12 40.56a1 1 0 0 0 .19-.62h-1.11v1.11a1.08 1.08 0 0 0 .62-.19 1.07 1.07 0 0 0 .3-.3ZM252.39 127.56a1.11 1.11 0 0 0-1.11 1.11h2.21a1.11 1.11 0 0 0-1.1-1.11ZM274.57 127.56a1.11 1.11 0 0 0-1.11 1.11h1.11ZM252.39 107.6a1.11 1.11 0 1 0-1.11-1.11 1.11 1.11 0 0 0 1.11 1.11ZM273.46 106.49a1.11 1.11 0 0 0 1.11 1.11v-2.22a1.1 1.1 0 0 0-1.11 1.11ZM263.48 118.69a1.11 1.11 0 1 0-1.11-1.11 1.11 1.11 0 0 0 1.11 1.11ZM241.29 118.69a1.11 1.11 0 1 0-1.1-1.11 1.11 1.11 0 0 0 1.1 1.11ZM263.48 96.5a1.11 1.11 0 1 0-1.11-1.1 1.1 1.1 0 0 0 1.11 1.1ZM241.29 96.5a1.11 1.11 0 1 0-1.1-1.1 1.1 1.1 0 0 0 1.1 1.1ZM231.31 128.67a1 1 0 0 0-.19-.62 1.07 1.07 0 0 0-.3-.3 1.08 1.08 0 0 0-.62-.19v1.11ZM231.12 107.11l.11-.19a1.22 1.22 0 0 0 .08-.43 1.27 1.27 0 0 0-.08-.44 1.74 1.74 0 0 0-.11-.18 1.07 1.07 0 0 0-.3-.3 1.08 1.08 0 0 0-.62-.19v2.22a1.08 1.08 0 0 0 .62-.19 1.22 1.22 0 0 0 .3-.3ZM252.39 85.41a1.1 1.1 0 0 0 1.1-1.11h-2.21a1.1 1.1 0 0 0 1.11 1.11ZM273.46 84.3a1.1 1.1 0 0 0 1.11 1.11V84.3ZM231.12 84.93l.11-.19a1.27 1.27 0 0 0 .08-.44h-1.11v1.11a1.08 1.08 0 0 0 .62-.19 1 1 0 0 0 .3-.29ZM252.39 171.92a1.11 1.11 0 0 0-1.11 1.11h2.21a1.11 1.11 0 0 0-1.1-1.11ZM273.46 173h1.11v-1.11a1.11 1.11 0 0 0-1.11 1.11ZM252.39 152a1.11 1.11 0 1 0-1.11-1.11 1.11 1.11 0 0 0 1.11 1.11ZM273.46 150.85a1.11 1.11 0 0 0 1.11 1.11v-2.22a1.11 1.11 0 0 0-1.11 1.11ZM263.48 163.05a1.11 1.11 0 1 0-1.11-1.11 1.11 1.11 0 0 0 1.11 1.11ZM241.29 163.05a1.11 1.11 0 1 0-1.1-1.11 1.11 1.11 0 0 0 1.1 1.11ZM263.48 140.87a1.11 1.11 0 1 0-1.11-1.11 1.11 1.11 0 0 0 1.11 1.11ZM241.29 140.87a1.11 1.11 0 1 0-1.1-1.11 1.11 1.11 0 0 0 1.1 1.11ZM231.31 173a1.22 1.22 0 0 0-.08-.43 1.18 1.18 0 0 0-.11-.19 1.07 1.07 0 0 0-.3-.3 1.08 1.08 0 0 0-.62-.19V173ZM231.12 151.47a1.18 1.18 0 0 0 .11-.19 1.2 1.2 0 0 0 0-.86 1.18 1.18 0 0 0-.11-.19 1.07 1.07 0 0 0-.3-.3 1.08 1.08 0 0 0-.62-.19V152a1.08 1.08 0 0 0 .62-.19 1.07 1.07 0 0 0 .3-.34Z"/><path class="cls-6" d="M252.39 129.78a1.11 1.11 0 0 0 1.1-1.11h-2.21a1.11 1.11 0 0 0 1.11 1.11ZM273.46 128.67a1.11 1.11 0 0 0 1.11 1.11v-1.11ZM231.12 129.29a1.18 1.18 0 0 0 .11-.19 1.22 1.22 0 0 0 .08-.43h-1.11v1.11a1.08 1.08 0 0 0 .62-.19 1.07 1.07 0 0 0 .3-.3ZM252.39 216.28a1.11 1.11 0 0 0-1.11 1.11h2.21a1.11 1.11 0 0 0-1.1-1.11ZM273.46 217.39h1.11v-1.11a1.11 1.11 0 0 0-1.11 1.11ZM252.39 194.1a1.11 1.11 0 1 0 1.1 1.11 1.11 1.11 0 0 0-1.1-1.11ZM273.46 195.21a1.11 1.11 0 0 0 1.11 1.11v-2.22a1.11 1.11 0 0 0-1.11 1.11ZM263.48 205.19a1.11 1.11 0 1 0 1.1 1.11 1.11 1.11 0 0 0-1.1-1.11ZM241.29 205.19a1.11 1.11 0 1 0 1.11 1.11 1.11 1.11 0 0 0-1.11-1.11ZM263.48 183a1.11 1.11 0 1 0 1.1 1.11 1.11 1.11 0 0 0-1.1-1.11ZM241.29 183a1.11 1.11 0 1 0 1.11 1.11 1.11 1.11 0 0 0-1.11-1.11ZM231.12 216.77a1.07 1.07 0 0 0-.3-.3 1.08 1.08 0 0 0-.62-.19v1.11h1.11a1.22 1.22 0 0 0-.08-.43 1.18 1.18 0 0 0-.11-.19ZM231.12 195.83a1.18 1.18 0 0 0 .11-.19 1.2 1.2 0 0 0 0-.86 1.18 1.18 0 0 0-.11-.19 1.07 1.07 0 0 0-.3-.3 1.08 1.08 0 0 0-.62-.19v2.22a1.08 1.08 0 0 0 .62-.19 1.07 1.07 0 0 0 .3-.3ZM252.39 174.14a1.11 1.11 0 0 0 1.1-1.11h-2.21a1.11 1.11 0 0 0 1.11 1.11ZM273.46 173a1.11 1.11 0 0 0 1.11 1.11V173ZM231.12 173.65a1.18 1.18 0 0 0 .11-.19 1.22 1.22 0 0 0 .08-.43h-1.11v1.11a1.08 1.08 0 0 0 .62-.19 1.07 1.07 0 0 0 .3-.3ZM252.39 260.64a1.11 1.11 0 0 0-1.11 1.11h2.21a1.11 1.11 0 0 0-1.1-1.11ZM273.46 261.75h1.11v-1.11a1.11 1.11 0 0 0-1.11 1.11ZM252.39 238.46a1.11 1.11 0 1 0 1.1 1.11 1.11 1.11 0 0 0-1.1-1.11ZM273.46 239.57a1.1 1.1 0 0 0 1.11 1.11v-2.22a1.11 1.11 0 0 0-1.11 1.11ZM263.48 249.55a1.11 1.11 0 1 0 1.1 1.11 1.11 1.11 0 0 0-1.1-1.11ZM241.29 249.55a1.11 1.11 0 1 0 1.11 1.11 1.11 1.11 0 0 0-1.11-1.11ZM263.48 227.37a1.11 1.11 0 1 0 1.1 1.11 1.11 1.11 0 0 0-1.1-1.11ZM241.29 227.37a1.11 1.11 0 1 0 1.11 1.11 1.11 1.11 0 0 0-1.11-1.11ZM231.12 261.13a1.22 1.22 0 0 0-.3-.3 1.08 1.08 0 0 0-.62-.19v1.11h1.11a1.22 1.22 0 0 0-.08-.43ZM230.82 240.49a1.07 1.07 0 0 0 .3-.3 1 1 0 0 0 .19-.62 1.22 1.22 0 0 0-.08-.43 1.18 1.18 0 0 0-.11-.19 1.07 1.07 0 0 0-.3-.3 1.08 1.08 0 0 0-.62-.19v2.22a1.08 1.08 0 0 0 .62-.19Z"/><path class="cls-6" d="M252.39 218.5a1.11 1.11 0 0 0 1.1-1.11h-2.21a1.11 1.11 0 0 0 1.11 1.11ZM273.46 217.39a1.11 1.11 0 0 0 1.11 1.11v-1.11ZM230.2 218.5a1.08 1.08 0 0 0 .62-.19 1.07 1.07 0 0 0 .3-.3 1.18 1.18 0 0 0 .11-.19 1.22 1.22 0 0 0 .08-.43h-1.11ZM252.39 305a1.1 1.1 0 0 0-1.11 1.11h2.21a1.1 1.1 0 0 0-1.1-1.11ZM252.39 282.83a1.11 1.11 0 1 0 1.1 1.1 1.1 1.1 0 0 0-1.1-1.1ZM273.46 283.93a1.1 1.1 0 0 0 1.11 1.11v-2.21a1.1 1.1 0 0 0-1.11 1.1ZM263.48 293.92a1.11 1.11 0 1 0 1.1 1.11 1.1 1.1 0 0 0-1.1-1.11ZM241.29 293.92a1.11 1.11 0 1 0 1.11 1.08 1.1 1.1 0 0 0-1.11-1.08ZM263.48 271.73a1.11 1.11 0 1 0 1.1 1.11 1.11 1.11 0 0 0-1.1-1.11ZM241.29 271.73a1.11 1.11 0 1 0 1.11 1.11 1.11 1.11 0 0 0-1.11-1.11ZM230.82 284.85a1.35 1.35 0 0 0 .41-.48 1.22 1.22 0 0 0 0-.87l-.11-.19a1.22 1.22 0 0 0-.3-.3 1.16 1.16 0 0 0-.62-.18V285a1.08 1.08 0 0 0 .62-.15ZM252.39 262.86a1.1 1.1 0 0 0 1.1-1.11h-2.21a1.1 1.1 0 0 0 1.11 1.11ZM273.46 261.75a1.1 1.1 0 0 0 1.11 1.11v-1.11ZM230.2 262.86a1.08 1.08 0 0 0 .62-.19 1.07 1.07 0 0 0 .3-.3 1.74 1.74 0 0 0 .11-.18 1.27 1.27 0 0 0 .08-.44h-1.11ZM252.39 307.23a1.11 1.11 0 0 0 1.1-1.11h-2.21a1.11 1.11 0 0 0 1.11 1.11ZM208 38.83a1.11 1.11 0 0 0-1.11 1.11h2.22a1.11 1.11 0 0 0-1.11-1.11ZM230.2 38.83a1.11 1.11 0 0 0-1.11 1.11h1.11ZM208 18.87a1.11 1.11 0 1 0-1.11-1.11 1.11 1.11 0 0 0 1.11 1.11ZM229.09 17.76a1.11 1.11 0 0 0 1.11 1.11v-2.22a1.11 1.11 0 0 0-1.11 1.11ZM219.11 30a1.11 1.11 0 0 0 0-2.22 1.11 1.11 0 0 0 0 2.22ZM196.93 30a1.11 1.11 0 1 0-1.11-1.11 1.11 1.11 0 0 0 1.11 1.11ZM219.11 7.78A1.11 1.11 0 1 0 218 6.67a1.11 1.11 0 0 0 1.11 1.11ZM196.93 7.78a1.11 1.11 0 1 0-1.11-1.11 1.11 1.11 0 0 0 1.11 1.11ZM187 39.94a1 1 0 0 0-.09-.43.69.69 0 0 0-.1-.19 1.07 1.07 0 0 0-.3-.3 1.11 1.11 0 0 0-.62-.19v1.11ZM186.76 18.38a.69.69 0 0 0 .1-.19 1.07 1.07 0 0 0 0-.86.69.69 0 0 0-.1-.19 1.07 1.07 0 0 0-.3-.3 1.11 1.11 0 0 0-.62-.19v2.22a1.11 1.11 0 0 0 .62-.19 1.07 1.07 0 0 0 .3-.3ZM208 83.2a1.11 1.11 0 0 0-1.11 1.1h2.22a1.11 1.11 0 0 0-1.11-1.1ZM230.2 83.2a1.11 1.11 0 0 0-1.11 1.1h1.11ZM208 61a1.11 1.11 0 1 0 1.11 1.11A1.11 1.11 0 0 0 208 61ZM229.09 62.12a1.11 1.11 0 0 0 1.11 1.11V61a1.11 1.11 0 0 0-1.11 1.12ZM219.11 72.11a1.11 1.11 0 1 0 1.11 1.1 1.11 1.11 0 0 0-1.11-1.1ZM196.93 72.11a1.11 1.11 0 1 0 1.11 1.1 1.11 1.11 0 0 0-1.11-1.1ZM219.11 49.92a1.11 1.11 0 0 0 0 2.22 1.11 1.11 0 0 0 0-2.22ZM196.93 49.92A1.11 1.11 0 1 0 198 51a1.11 1.11 0 0 0-1.07-1.08ZM186.76 83.68a1.18 1.18 0 0 0-.3-.29 1.11 1.11 0 0 0-.62-.19v1.1H187a1.07 1.07 0 0 0-.09-.43.87.87 0 0 0-.15-.19ZM186.76 62.74a.64.64 0 0 0 .1-.18 1.08 1.08 0 0 0 .09-.44 1 1 0 0 0-.09-.43.87.87 0 0 0-.1-.19 1.22 1.22 0 0 0-.3-.3 1.11 1.11 0 0 0-.62-.19v2.22a1.11 1.11 0 0 0 .62-.19 1.07 1.07 0 0 0 .3-.3ZM208 41.05a1.11 1.11 0 0 0 1.11-1.11h-2.22a1.11 1.11 0 0 0 1.11 1.11ZM229.09 39.94a1.11 1.11 0 0 0 1.11 1.11v-1.11ZM186.76 40.56a.69.69 0 0 0 .1-.19 1 1 0 0 0 .09-.43h-1.11v1.11a1.11 1.11 0 0 0 .62-.19 1.07 1.07 0 0 0 .3-.3ZM208 127.56a1.11 1.11 0 0 0-1.11 1.11h2.22a1.11 1.11 0 0 0-1.11-1.11ZM230.2 127.56a1.11 1.11 0 0 0-1.11 1.11h1.11ZM208 107.6a1.11 1.11 0 1 0-1.11-1.11 1.11 1.11 0 0 0 1.11 1.11ZM229.09 106.49a1.11 1.11 0 0 0 1.11 1.11v-2.22a1.11 1.11 0 0 0-1.11 1.11ZM219.11 118.69a1.11 1.11 0 1 0-1.11-1.11 1.11 1.11 0 0 0 1.11 1.11ZM196.93 118.69a1.11 1.11 0 1 0-1.11-1.11 1.11 1.11 0 0 0 1.11 1.11ZM219.11 96.5a1.11 1.11 0 1 0-1.11-1.1 1.1 1.1 0 0 0 1.11 1.1ZM196.93 96.5a1.11 1.11 0 1 0-1.11-1.1 1.11 1.11 0 0 0 1.11 1.1ZM187 128.67a1 1 0 0 0-.09-.43.69.69 0 0 0-.1-.19 1.07 1.07 0 0 0-.3-.3 1.11 1.11 0 0 0-.62-.19v1.11ZM186.76 107.11a.87.87 0 0 0 .1-.19 1 1 0 0 0 .09-.43 1.08 1.08 0 0 0-.09-.44.81.81 0 0 0-.1-.18 1.07 1.07 0 0 0-.3-.3 1.11 1.11 0 0 0-.62-.19v2.22a1.11 1.11 0 0 0 .62-.19 1.22 1.22 0 0 0 .3-.3ZM208 85.41a1.11 1.11 0 0 0 1.11-1.11h-2.22a1.11 1.11 0 0 0 1.11 1.11ZM229.09 84.3a1.11 1.11 0 0 0 1.11 1.11V84.3ZM186.76 84.93a.87.87 0 0 0 .1-.19 1.08 1.08 0 0 0 .09-.44h-1.11v1.11a1.11 1.11 0 0 0 .62-.19 1 1 0 0 0 .3-.29ZM208 171.92a1.11 1.11 0 0 0-1.11 1.11h2.22a1.11 1.11 0 0 0-1.11-1.11ZM230.2 171.92a1.11 1.11 0 0 0-1.11 1.11h1.11ZM208 152a1.11 1.11 0 1 0-1.11-1.11A1.11 1.11 0 0 0 208 152ZM229.09 150.85a1.11 1.11 0 0 0 1.11 1.15v-2.22a1.11 1.11 0 0 0-1.11 1.07ZM219.11 163.05a1.11 1.11 0 1 0-1.11-1.11 1.11 1.11 0 0 0 1.11 1.11ZM196.93 163.05a1.11 1.11 0 1 0-1.11-1.11 1.11 1.11 0 0 0 1.11 1.11ZM219.11 140.87a1.11 1.11 0 1 0-1.11-1.11 1.11 1.11 0 0 0 1.11 1.11ZM196.93 140.87a1.11 1.11 0 1 0-1.11-1.11 1.11 1.11 0 0 0 1.11 1.11ZM187 173a1 1 0 0 0-.09-.43.69.69 0 0 0-.1-.19 1.07 1.07 0 0 0-.3-.3 1.11 1.11 0 0 0-.62-.19V173ZM186.76 151.47a.69.69 0 0 0 .1-.19 1.07 1.07 0 0 0 0-.86.69.69 0 0 0-.1-.19 1.07 1.07 0 0 0-.3-.3 1.11 1.11 0 0 0-.62-.19V152a1.11 1.11 0 0 0 .62-.19 1.07 1.07 0 0 0 .3-.34Z"/><path class="cls-6" d="M208 129.78a1.11 1.11 0 0 0 1.11-1.11h-2.22a1.11 1.11 0 0 0 1.11 1.11ZM229.09 128.67a1.11 1.11 0 0 0 1.11 1.11v-1.11ZM186.76 129.29a.69.69 0 0 0 .1-.19 1 1 0 0 0 .09-.43h-1.11v1.11a1.11 1.11 0 0 0 .62-.19 1.07 1.07 0 0 0 .3-.3ZM208 216.28a1.11 1.11 0 0 0-1.11 1.11h2.22a1.11 1.11 0 0 0-1.11-1.11ZM230.2 216.28a1.11 1.11 0 0 0-1.11 1.11h1.11ZM208 196.32a1.11 1.11 0 1 0-1.11-1.11 1.11 1.11 0 0 0 1.11 1.11ZM229.09 195.21a1.11 1.11 0 0 0 1.11 1.11v-2.22a1.11 1.11 0 0 0-1.11 1.11ZM219.11 207.41a1.11 1.11 0 1 0-1.11-1.11 1.11 1.11 0 0 0 1.11 1.11ZM196.93 207.41a1.11 1.11 0 1 0-1.11-1.11 1.11 1.11 0 0 0 1.11 1.11ZM219.11 185.23a1.11 1.11 0 1 0-1.11-1.11 1.11 1.11 0 0 0 1.11 1.11ZM196.93 185.23a1.11 1.11 0 1 0-1.11-1.11 1.11 1.11 0 0 0 1.11 1.11ZM187 217.39a1 1 0 0 0-.09-.43.69.69 0 0 0-.1-.19 1.07 1.07 0 0 0-.3-.3 1.11 1.11 0 0 0-.62-.19v1.11ZM186.76 195.83a.69.69 0 0 0 .1-.19 1.07 1.07 0 0 0 0-.86.69.69 0 0 0-.1-.19 1.07 1.07 0 0 0-.3-.3 1.11 1.11 0 0 0-.62-.19v2.22a1.11 1.11 0 0 0 .62-.19 1.07 1.07 0 0 0 .3-.3ZM208 174.14a1.11 1.11 0 0 0 1.11-1.11h-2.22a1.11 1.11 0 0 0 1.11 1.11ZM229.09 173a1.11 1.11 0 0 0 1.11 1.11V173ZM186.76 173.65a.69.69 0 0 0 .1-.19 1 1 0 0 0 .14-.46h-1.11v1.11a1.11 1.11 0 0 0 .62-.19 1.07 1.07 0 0 0 .25-.27ZM208 260.64a1.11 1.11 0 0 0-1.11 1.11h2.22a1.11 1.11 0 0 0-1.11-1.11ZM230.2 260.64a1.11 1.11 0 0 0-1.11 1.11h1.11ZM208 238.46a1.11 1.11 0 1 0 1.11 1.11 1.11 1.11 0 0 0-1.11-1.11ZM229.09 239.57a1.11 1.11 0 0 0 1.11 1.11v-2.22a1.11 1.11 0 0 0-1.11 1.11ZM219.11 249.55a1.11 1.11 0 1 0 0 2.22 1.11 1.11 0 1 0 0-2.22ZM196.93 249.55a1.11 1.11 0 1 0 1.11 1.11 1.11 1.11 0 0 0-1.11-1.11ZM219.11 227.37a1.11 1.11 0 1 0 1.11 1.11 1.11 1.11 0 0 0-1.11-1.11ZM196.93 227.37a1.11 1.11 0 1 0 1.11 1.11 1.11 1.11 0 0 0-1.11-1.11ZM186.76 261.13a1.22 1.22 0 0 0-.3-.3 1.11 1.11 0 0 0-.62-.19v1.11H187a1 1 0 0 0-.09-.43.87.87 0 0 0-.15-.19ZM186.76 240.19a.69.69 0 0 0 .1-.19 1 1 0 0 0 .09-.43 1 1 0 0 0-.09-.43.69.69 0 0 0-.1-.19 1.07 1.07 0 0 0-.3-.3 1.11 1.11 0 0 0-.62-.19v2.22a1.11 1.11 0 0 0 .62-.19 1.07 1.07 0 0 0 .3-.3Z"/><path class="cls-6" d="M208 218.5a1.11 1.11 0 0 0 1.11-1.11h-2.22a1.11 1.11 0 0 0 1.11 1.11ZM229.09 217.39a1.11 1.11 0 0 0 1.11 1.11v-1.11ZM186.76 218a.69.69 0 0 0 .1-.19 1 1 0 0 0 .09-.43h-1.11v1.11a1.11 1.11 0 0 0 .62-.19 1.07 1.07 0 0 0 .3-.3ZM208 282.83a1.11 1.11 0 1 0 1.11 1.1 1.11 1.11 0 0 0-1.11-1.1ZM229.09 283.93a1.11 1.11 0 0 0 1.11 1.07v-2.21a1.11 1.11 0 0 0-1.11 1.14ZM219.11 293.92a1.11 1.11 0 1 0 1.11 1.11 1.11 1.11 0 0 0-1.11-1.11ZM219.11 271.73a1.11 1.11 0 0 0 0 2.22 1.11 1.11 0 1 0 0-2.22ZM196.93 271.73a1.11 1.11 0 1 0 1.11 1.11 1.11 1.11 0 0 0-1.11-1.11ZM186.76 284.55a.64.64 0 0 0 .1-.18 1.08 1.08 0 0 0 .09-.44 1.07 1.07 0 0 0-.09-.43.87.87 0 0 0-.1-.19 1.22 1.22 0 0 0-.3-.3 1.18 1.18 0 0 0-.62-.18v2.09l.22.1a1.1 1.1 0 0 0 .4-.17 1.07 1.07 0 0 0 .3-.3ZM208 262.86a1.11 1.11 0 0 0 1.11-1.11h-2.22a1.11 1.11 0 0 0 1.11 1.11ZM229.09 261.75a1.11 1.11 0 0 0 1.11 1.11v-1.11ZM185.84 262.86a1.11 1.11 0 0 0 .62-.19 1.07 1.07 0 0 0 .3-.3.81.81 0 0 0 .1-.18 1.08 1.08 0 0 0 .09-.44h-1.11ZM163.66 38.83a1.11 1.11 0 0 0-1.11 1.11h2.22a1.11 1.11 0 0 0-1.11-1.11ZM185.84 38.83a1.11 1.11 0 0 0-1.11 1.11h1.11ZM163.66 18.87a1.11 1.11 0 1 0-1.11-1.11 1.11 1.11 0 0 0 1.11 1.11ZM184.73 17.76a1.11 1.11 0 0 0 1.11 1.11v-2.22a1.11 1.11 0 0 0-1.11 1.11ZM174.75 30a1.11 1.11 0 1 0-1.11-1.11 1.11 1.11 0 0 0 1.11 1.11ZM152.57 30a1.11 1.11 0 1 0-1.11-1.11 1.11 1.11 0 0 0 1.11 1.11ZM174.75 7.78a1.11 1.11 0 1 0-1.11-1.11 1.11 1.11 0 0 0 1.11 1.11ZM152.57 7.78a1.11 1.11 0 1 0-1.11-1.11 1.11 1.11 0 0 0 1.11 1.11ZM142.59 39.94a1 1 0 0 0-.09-.43 1.14 1.14 0 0 0-.1-.19 1.07 1.07 0 0 0-.3-.3 1.11 1.11 0 0 0-.62-.19v1.11ZM142.4 18.38a1.14 1.14 0 0 0 .1-.19 1.07 1.07 0 0 0 0-.86 1.14 1.14 0 0 0-.1-.19 1.07 1.07 0 0 0-.3-.3 1.11 1.11 0 0 0-.62-.19v2.22a1.11 1.11 0 0 0 .62-.19 1.07 1.07 0 0 0 .3-.3ZM163.66 83.2a1.11 1.11 0 0 0-1.11 1.1h2.22a1.11 1.11 0 0 0-1.11-1.1ZM185.84 83.2a1.11 1.11 0 0 0-1.11 1.1h1.11ZM163.66 61a1.11 1.11 0 1 0 1.11 1.11 1.11 1.11 0 0 0-1.11-1.11ZM184.73 62.12a1.11 1.11 0 0 0 1.11 1.11V61a1.11 1.11 0 0 0-1.11 1.12ZM174.75 72.11a1.11 1.11 0 1 0 1.11 1.1 1.11 1.11 0 0 0-1.11-1.1ZM152.57 72.11a1.11 1.11 0 1 0 1.11 1.1 1.11 1.11 0 0 0-1.11-1.1ZM174.75 49.92a1.11 1.11 0 1 0 1.11 1.08 1.11 1.11 0 0 0-1.11-1.08ZM152.57 49.92a1.11 1.11 0 1 0 1.11 1.08 1.11 1.11 0 0 0-1.11-1.08ZM142.4 83.68a1.18 1.18 0 0 0-.3-.29 1.11 1.11 0 0 0-.62-.19v1.1h1.11a1.07 1.07 0 0 0-.09-.43 1.74 1.74 0 0 0-.1-.19ZM142.4 62.74a1 1 0 0 0 .1-.18 1.08 1.08 0 0 0 .09-.44 1 1 0 0 0-.09-.43 1.74 1.74 0 0 0-.1-.19 1.22 1.22 0 0 0-.3-.3 1.11 1.11 0 0 0-.62-.19v2.22a1.11 1.11 0 0 0 .62-.19 1.07 1.07 0 0 0 .3-.3ZM163.66 41.05a1.11 1.11 0 0 0 1.11-1.11h-2.22a1.11 1.11 0 0 0 1.11 1.11ZM184.73 39.94a1.11 1.11 0 0 0 1.11 1.11v-1.11ZM142.4 40.56a1.14 1.14 0 0 0 .1-.19 1 1 0 0 0 .09-.43h-1.11v1.11a1.11 1.11 0 0 0 .62-.19 1.07 1.07 0 0 0 .3-.3ZM163.66 127.56a1.11 1.11 0 0 0-1.11 1.11h2.22a1.11 1.11 0 0 0-1.11-1.11ZM185.84 127.56a1.11 1.11 0 0 0-1.11 1.11h1.11ZM163.66 107.6a1.11 1.11 0 1 0-1.11-1.11 1.11 1.11 0 0 0 1.11 1.11ZM184.73 106.49a1.11 1.11 0 0 0 1.11 1.11v-2.22a1.11 1.11 0 0 0-1.11 1.11ZM174.75 118.69a1.11 1.11 0 1 0-1.11-1.11 1.11 1.11 0 0 0 1.11 1.11ZM152.57 118.69a1.11 1.11 0 1 0-1.11-1.11 1.11 1.11 0 0 0 1.11 1.11ZM174.75 96.5a1.11 1.11 0 1 0-1.11-1.1 1.11 1.11 0 0 0 1.11 1.1ZM152.57 96.5a1.11 1.11 0 1 0-1.11-1.1 1.11 1.11 0 0 0 1.11 1.1ZM142.5 128.24a1.14 1.14 0 0 0-.1-.19 1.24 1.24 0 0 0-.18-.21l.08.83h.29a1 1 0 0 0-.09-.43ZM142.1 107.41a1.22 1.22 0 0 0 .3-.3 1.74 1.74 0 0 0 .1-.19 1 1 0 0 0 .09-.43 1.08 1.08 0 0 0-.09-.44 1.62 1.62 0 0 0-.1-.18 1.07 1.07 0 0 0-.3-.3 1.11 1.11 0 0 0-.62-.19v2.22a1.11 1.11 0 0 0 .62-.19ZM163.66 85.41a1.11 1.11 0 0 0 1.11-1.11h-2.22a1.11 1.11 0 0 0 1.11 1.11ZM184.73 84.3a1.11 1.11 0 0 0 1.11 1.11V84.3ZM141.48 85.41a1.11 1.11 0 0 0 .62-.19 1 1 0 0 0 .3-.29 1.74 1.74 0 0 0 .1-.19 1.08 1.08 0 0 0 .09-.44h-1.11ZM163.66 171.92a1.11 1.11 0 0 0-1.11 1.11h2.22a1.11 1.11 0 0 0-1.11-1.11ZM185.84 171.92a1.11 1.11 0 0 0-1.11 1.11h1.11ZM163.66 152a1.11 1.11 0 1 0-1.11-1.11 1.11 1.11 0 0 0 1.11 1.11ZM184.73 150.85a1.11 1.11 0 0 0 1.11 1.11v-2.22a1.11 1.11 0 0 0-1.11 1.11ZM174.75 163.05a1.11 1.11 0 1 0-1.11-1.11 1.11 1.11 0 0 0 1.11 1.11ZM152.57 163.05a1.11 1.11 0 1 0-1.11-1.11 1.11 1.11 0 0 0 1.11 1.11ZM174.75 140.87a1.11 1.11 0 1 0-1.11-1.11 1.11 1.11 0 0 0 1.11 1.11ZM152.57 140.87a1.11 1.11 0 1 0-1.11-1.11 1.11 1.11 0 0 0 1.11 1.11ZM142.4 172.41a1.07 1.07 0 0 0-.3-.3 1.11 1.11 0 0 0-.62-.19V173h1.11a1 1 0 0 0-.09-.43 1.14 1.14 0 0 0-.1-.16Z"/><path class="cls-6" d="M163.66 129.78a1.11 1.11 0 0 0 1.11-1.11h-2.22a1.11 1.11 0 0 0 1.11 1.11ZM184.73 128.67a1.11 1.11 0 0 0 1.11 1.11v-1.11ZM142.5 129.1a1 1 0 0 0 .09-.43h-.29l.08.65a1.14 1.14 0 0 0 .12-.22ZM163.66 216.28a1.11 1.11 0 0 0-1.11 1.11h2.22a1.11 1.11 0 0 0-1.11-1.11ZM185.84 216.28a1.11 1.11 0 0 0-1.11 1.11h1.11ZM163.66 196.32a1.11 1.11 0 1 0-1.11-1.11 1.11 1.11 0 0 0 1.11 1.11ZM184.73 195.21a1.11 1.11 0 0 0 1.11 1.11v-2.22a1.11 1.11 0 0 0-1.11 1.11ZM174.75 207.41a1.11 1.11 0 1 0-1.11-1.11 1.11 1.11 0 0 0 1.11 1.11ZM152.57 205.19a1.11 1.11 0 1 0 1.11 1.11 1.11 1.11 0 0 0-1.11-1.11ZM174.75 185.23a1.11 1.11 0 1 0-1.11-1.11 1.11 1.11 0 0 0 1.11 1.11ZM152.57 183a1.11 1.11 0 1 0 1.11 1.11 1.11 1.11 0 0 0-1.11-1.11ZM142.1 196.13a1.07 1.07 0 0 0 .3-.3 1.14 1.14 0 0 0 .1-.19 1.07 1.07 0 0 0 0-.86 1.14 1.14 0 0 0-.1-.19 1.07 1.07 0 0 0-.3-.3 1.11 1.11 0 0 0-.62-.19v2.22a1.11 1.11 0 0 0 .62-.19ZM163.66 174.14a1.11 1.11 0 0 0 1.11-1.11h-2.22a1.11 1.11 0 0 0 1.11 1.11ZM184.73 173a1.11 1.11 0 0 0 1.11 1.11V173ZM141.48 174.14a1.11 1.11 0 0 0 .62-.19 1.07 1.07 0 0 0 .3-.3 1.14 1.14 0 0 0 .1-.19 1 1 0 0 0 .09-.43h-1.11ZM185.84 260.64a1.11 1.11 0 0 0-1.11 1.11h1.11ZM184.73 239.57a1.11 1.11 0 0 0 1.11 1.11v-2.22a1.11 1.11 0 0 0-1.11 1.11ZM174.75 227.37a1.11 1.11 0 1 0 1.11 1.11 1.11 1.11 0 0 0-1.11-1.11Z"/><path class="cls-6" d="M163.66 218.5a1.11 1.11 0 0 0 1.11-1.11h-2.22a1.11 1.11 0 0 0 1.11 1.11ZM184.73 217.39a1.11 1.11 0 0 0 1.11 1.11v-1.11ZM184.73 283.93a1.06 1.06 0 0 0 .17.58l.94.41v-2.09a1.11 1.11 0 0 0-1.11 1.1ZM174.75 271.73a1.11 1.11 0 1 0 1.11 1.11 1.11 1.11 0 0 0-1.11-1.11ZM184.73 261.75a1.11 1.11 0 0 0 1.11 1.11v-1.11ZM141.48 38.83a1.11 1.11 0 0 0-1.11 1.11h1.11ZM140.37 17.76a1.11 1.11 0 0 0 1.11 1.11v-2.22a1.11 1.11 0 0 0-1.11 1.11ZM141.48 83.2a1.11 1.11 0 0 0-1.11 1.1h1.11ZM140.37 62.12a1.11 1.11 0 0 0 1.11 1.11V61a1.11 1.11 0 0 0-1.11 1.12ZM140.37 39.94a1.11 1.11 0 0 0 1.11 1.11v-1.11ZM140.37 106.49a1.11 1.11 0 0 0 1.11 1.11v-2.22a1.11 1.11 0 0 0-1.11 1.11ZM140.37 84.3a1.11 1.11 0 0 0 1.11 1.11V84.3ZM141.48 171.92a1.11 1.11 0 0 0-1.11 1.11h1.11ZM140.37 195.21a1.11 1.11 0 0 0 1.11 1.11v-2.22a1.11 1.11 0 0 0-1.11 1.11ZM130.39 183a1.22 1.22 0 0 0-.38.07l1.17 1.82a1.15 1.15 0 0 0 .32-.78 1.11 1.11 0 0 0-1.11-1.11Z"/><path class="cls-6" d="M140.37 173a1.11 1.11 0 0 0 1.11 1.11V173Z"/><path class="cls-7" d="M123.25 172.52s-18 1.37-25.13 2.19-26.5-.55-28.42 1.37-3.27 7.1-2.45 12 2.45 6.28 2.45 6.28-14.2 8.47-19.39 13.11-13.12 11.75-10.93 20.22S52 240 52 240a18.63 18.63 0 0 0 .27 10.66 15.17 15.17 0 0 0 6.83 7.92s.27 4.92 5.74 10.11 8.16 4.64 8.16 4.64 5.74 8.74 19.67 10.38 33.33-3.28 44.8-11.47S170 245.47 170 245.47s6.85-27-12.84-51.64c-17.52-21.83-33.91-21.31-33.91-21.31Z"/><path class="cls-8" d="M406-86.46c1.64 19.12 13.93 61.74 20.76 78.95s21.31 78.68 21.31 78.68"/><path class="cls-8" d="M391.79 57.24s23.77 7.65 38 11.2 39.34 8.47 53.54 10.93 31.15 10.92 35 15.84"/><path class="cls-8" d="M458.45 74.18c7.11-1.92 24.86-9.29 49.45-5.74M362 160c13.66 7.1 32.51 13.93 54.91 21a214.93 214.93 0 0 0 42.34 8.75"/><path class="cls-8" d="M428.68 68.71c5.73 13.39 8.64 33.3 1.63 57.37-6.28 21.58-25.95 42.07-35.78 47.54M183.08 238.09c5.46-13.93 17.21-54.91 20.49-67.48a180.09 180.09 0 0 0 4.37-27.32"/><path class="cls-8" d="M219.41 202.58c-2.18-10.39-10.11-54.92-13.11-68.58s-11.75-37.7-17.76-47S176 59.15 177.61 38.66 183.35-8.6 180.07-19s-12.56-37.43-12.56-37.43M145.38 156.13c19.94-1.09 44.25 6.83 56 24.32M135.54 164.33c12.84 2.18 33.33 6.28 44.81 21.85s10.92 27.32 10.92 27.32M287.16 231.53c-1.36-16.11-5.73-82.5-4.09-99.44s-6-149.16-6.83-180.85-1.64-120.48-1.64-120.48"/><path class="cls-9" d="M300.55 218.22a2.94 2.94 0 1 1-2.94-2.95 2.94 2.94 0 0 1 2.94 2.95ZM296.87 161.05a2.95 2.95 0 1 1-2.95-2.94 2.95 2.95 0 0 1 2.95 2.94Z"/><path class="cls-7" d="M391.79 57.24s-26.22-10.11-36.06-16.67-22.67-14.75-33.6-20.76-17.48-9-21.85-13.66S287.44-9.15 282.79-8s-10.38 11.74-4.37 22.94 15.3 17.49 19.94 21.59 7.38 6.55 4.92 8.46-21 2.74-32.78 1.92-33.88-6.61-39.61-6.91-13.12-.28-15 6 5.43 11 5.43 11-5.19 2.19-4.37 6.83 4.65 9.29 4.65 9.29-4.6 4.06-1.1 10.88 6.56 9.84 6.56 9.84a15.2 15.2 0 0 0 3.28 14.47c6 6.56 28.68 19.13 44 24.86s40.16 8.2 51.64 12.3S362 160 362 160s20.76-11.75 30.32-49.72-.53-53.04-.53-53.04Z"/><path class="cls-10" d="M278.15-3.89C281 2.67 285.52 8 290.85 8a9.89 9.89 0 0 0 7.79-3.28M221.32 57c7.45 4.51 24 10 32.86 10.86a69.55 69.55 0 0 1 16 3.49M221.6 73.08c8.19 5.19 15.77 10.32 24.79 13.39s21.51 4.1 24.61 5.33M227.06 93.85c6.83 5.94 18.71 13.11 27.12 15.57s18 3.48 21.71 5.32"/><path class="cls-10" d="M217.81 42.83c3.38.51 12.19 4 13.21 9.12a9.11 9.11 0 0 1-2.25 8.19M219.14 58.4c2.35 1.23 10.76 3.69 11.78 7.79s.51 9.52-2.46 10.85M231.23 79.09c1.53 2.56 4 14.45-2.46 15.58M232.56 98.15c2.66 3.07 4.51 7.17 2.87 9.83s-3.18 2-3.18 2M69.7 194.38c3.56-2.8 10.73-4.64 14.41.07s-.2 11.47-3.07 14.75-9.42 9.63-9.42 9.63"/><path class="cls-10" d="M52 240c1.84-5.19 10-18.71 23.56-22.6s21.51 1.63 22.13 8"/><path class="cls-10" d="M59.05 258.58c1.71-10 1.71-17 11.34-24.59s24.58-9.42 29.3-8a7.37 7.37 0 0 1 5.32 5.53"/><path class="cls-10" d="M73 273.33c-2.8-9.42-3-19.46 1.3-26s12.91-13.52 22.54-15.37 16.39 2.05 18 5.33a9.45 9.45 0 0 1-1.64 10.86c-3.07 3.07-10.45 5.94-15.16 5.94 0 0 0 6.56-8.2 12.5"/><path class="cls-10" d="M97.23 258c3.48 1 9.22 6.56 9.63 10.45M85.75 200c5.74 2.05 23.16.82 27.05-.21"/><path class="cls-10" d="M98.46 201.21c4.5 2.66 8 11.47 14.13 14.14a38.8 38.8 0 0 0 10.86 3.07"/><path class="cls-10" d="M109.73 213.91c1 4.71 7.37 11.27 13.52 13.73a23.9 23.9 0 0 0 11.88 1.43M69.7 176.08c4.37 4 7 12.43 14.21 11.81s10.24-2 9.42-6.35a11.32 11.32 0 0 0-3.27-6.35M66.29 196.29c-1.64 3.28-2.66 8.81 2.87 11.48s16.59-9.22 16.59-9.22M86.57 216.17c-5.73 0-9.83 3.07-9.63 5.94s4.51 5.53 4.51 5.53M89.85 226.41c-3.48.82-3.07 5.33-1 7.79M100.71 231.74c-4.1 1.23-5.74 4.3-4.92 7.58s7.38 5.33 10.86 5.33 9-2.26 9-2.26M98.05 254.07c-4.1 1.23-12.71 2.05-12.71 2.05"/></g><g style="clip-path:url(#clip-path-2)"><circle cx="250" cy="250" r="204" style="fill:#a5bcc5"/><path class="cls-9" d="M142.5 378.93C93.33 401.06 19.57 458.43-5 560.05S-.1 709.21-.1 709.21l86.87-45.89-9.83-32.78s19.67-54.1 27-71.31c0 0 13.12 18.85 14.76 29.51s.82 76.22-.82 103.26-3.28 37.7-3.28 48.36 26.22 68 41 86.87 61.46 33.6 96.71 13.94S339.2 769 339.2 769l29.91.41s57.78-13.52 59.42-124.16c1.61-108.22-9-167-45.07-213.91-24.59-32-55.73-46.71-71.31-52s-169.65-.41-169.65-.41Z"/><path class="cls-5" d="M190.59 165.29c0-7.92 9.56-21.85 26.77-27.32s42.62-4.64 58.73 7.93c0 0 2.12-31 32.79-56.55 31.14-26 78.68-25.14 106-6.56 23.54 16 36.61 52.18 27.05 85.78s-30.05 54.37-56.28 61.2-54.64-.28-65.84-7.93c0 0 4.1 24.59-14.48 47.27a55.52 55.52 0 0 1-44.52 20.48Z"/><path class="cls-13" d="M433 105.44h1.86c-.39-.72-.79-1.42-1.21-2.11a2 2 0 0 0-.65-.11ZM440.43 129.83a2.22 2.22 0 1 0-2.22-2.21 2.22 2.22 0 0 0 2.22 2.21ZM439.21 114.68c-.31-.78-.62-1.55-.95-2.31a2.31 2.31 0 0 0-.05.46 2.23 2.23 0 0 0 1 1.85ZM433 135h2.22a2.22 2.22 0 0 0-2.22-2.22ZM435.25 120.22A2.21 2.21 0 0 0 433 118v4.43a2.21 2.21 0 0 0 2.25-2.21ZM433 107.65a2.21 2.21 0 0 0 2.15-1.68c-.1-.18-.19-.36-.29-.53H433ZM440.43 159.41a2.22 2.22 0 1 0-2.22-2.22 2.22 2.22 0 0 0 2.22 2.22ZM440.43 144.62a2.22 2.22 0 1 0-2.22-2.22 2.22 2.22 0 0 0 2.22 2.22ZM433 164.59h2.22a2.21 2.21 0 0 0-2.22-2.22ZM435.25 149.8a2.21 2.21 0 0 0-2.22-2.22V152a2.22 2.22 0 0 0 2.22-2.2ZM433 137.23a2.21 2.21 0 0 0 2.22-2.22H433ZM438.21 172a2.2 2.2 0 0 0 2 2.19c.45-1.35.89-2.73 1.3-4.13a2.19 2.19 0 0 0-1.05-.28 2.21 2.21 0 0 0-2.25 2.22ZM435.25 179.37a2.22 2.22 0 0 0-2.22-2.22v4.44a2.21 2.21 0 0 0 2.22-2.22ZM433 166.8a2.21 2.21 0 0 0 2.22-2.21H433ZM420.46 105.44a2.22 2.22 0 1 0-4.43 0ZM433 105.44v-2.22a2.21 2.21 0 0 0-2.21 2.22ZM418.25 92.87a2.22 2.22 0 1 0-2.25-2.22 2.22 2.22 0 0 0 2.25 2.22Z"/><circle class="cls-13" cx="425.64" cy="98.04" r="2.22"/><path class="cls-13" d="M410.85 100.26a2.22 2.22 0 1 0-2.22-2.26 2.21 2.21 0 0 0 2.22 2.26ZM410.85 85.47a2.22 2.22 0 1 0-2.22-2.22 2.21 2.21 0 0 0 2.22 2.22ZM403.46 105.44h2.22a2.22 2.22 0 0 0-2.22-2.22ZM405.68 90.65a2.22 2.22 0 0 0-2.22-2.22v4.44a2.23 2.23 0 0 0 2.22-2.22ZM403.46 78.08a2.23 2.23 0 0 0 1.68-.78l-1.68-.75ZM420.46 135a2.22 2.22 0 1 0-4.43 0ZM430.82 135H433v-2.22a2.22 2.22 0 0 0-2.18 2.22ZM418.25 122.44a2.22 2.22 0 1 0-2.22-2.22 2.21 2.21 0 0 0 2.22 2.22ZM430.82 120.22a2.21 2.21 0 0 0 2.21 2.22V118a2.21 2.21 0 0 0-2.21 2.22ZM425.64 129.83a2.22 2.22 0 1 0-2.22-2.21 2.22 2.22 0 0 0 2.22 2.21ZM410.85 129.83a2.22 2.22 0 1 0-2.22-2.21 2.21 2.21 0 0 0 2.22 2.21ZM425.64 115.05a2.22 2.22 0 1 0-2.22-2.22 2.22 2.22 0 0 0 2.22 2.22ZM410.85 115.05a2.22 2.22 0 1 0-2.22-2.22 2.21 2.21 0 0 0 2.22 2.22ZM403.46 135h2.22a2.23 2.23 0 0 0-2.22-2.22ZM405.68 120.22a2.22 2.22 0 0 0-2.22-2.21v4.43a2.22 2.22 0 0 0 2.22-2.22ZM416 105.44a2.22 2.22 0 0 0 4.43 0ZM430.82 105.44a2.21 2.21 0 0 0 2.21 2.21v-2.21ZM403.46 107.65a2.22 2.22 0 0 0 2.22-2.21h-2.22ZM418.25 162.37a2.21 2.21 0 0 0-2.22 2.22h4.43a2.21 2.21 0 0 0-2.21-2.22ZM430.82 164.59H433v-2.22a2.21 2.21 0 0 0-2.18 2.22ZM418.25 147.58a2.22 2.22 0 1 0 2.21 2.22 2.21 2.21 0 0 0-2.21-2.22ZM430.82 149.8A2.22 2.22 0 0 0 433 152v-4.44a2.21 2.21 0 0 0-2.18 2.24ZM425.64 155a2.22 2.22 0 1 0 2.22 2.22 2.22 2.22 0 0 0-2.22-2.22ZM410.85 155a2.22 2.22 0 1 0 2.22 2.22 2.23 2.23 0 0 0-2.22-2.22Z"/><circle class="cls-13" cx="425.64" cy="142.4" r="2.22"/><path class="cls-13" d="M410.85 140.19a2.22 2.22 0 1 0 2.22 2.21 2.22 2.22 0 0 0-2.22-2.21ZM403.46 162.37v2.22h2.22a2.22 2.22 0 0 0-2.22-2.22ZM405.68 149.8a2.22 2.22 0 0 0-2.22-2.22V152a2.23 2.23 0 0 0 2.22-2.2ZM416 135a2.22 2.22 0 1 0 4.43 0ZM433 135h-2.21a2.21 2.21 0 0 0 2.21 2.22ZM403.46 137.23a2.22 2.22 0 0 0 2.22-2.22h-2.22ZM420.46 194.16a2.22 2.22 0 1 0-4.43 0ZM430.82 194.16h.37c.41-.69.8-1.4 1.2-2.11a2.21 2.21 0 0 0-1.57 2.11ZM418.25 177.15a2.22 2.22 0 1 0 2.21 2.22 2.22 2.22 0 0 0-2.21-2.22ZM430.82 179.37a2.21 2.21 0 0 0 2.21 2.22v-4.44a2.22 2.22 0 0 0-2.21 2.22ZM425.64 184.55a2.22 2.22 0 1 0 2.22 2.22 2.21 2.21 0 0 0-2.22-2.22ZM410.85 184.55a2.22 2.22 0 1 0 2.22 2.22 2.22 2.22 0 0 0-2.22-2.22ZM425.64 169.76a2.22 2.22 0 1 0 2.22 2.22 2.21 2.21 0 0 0-2.22-2.22ZM410.85 169.76a2.22 2.22 0 1 0 2.22 2.22 2.22 2.22 0 0 0-2.22-2.22ZM403.46 194.16h2.22a2.23 2.23 0 0 0-2.22-2.22ZM405.68 179.37a2.23 2.23 0 0 0-2.22-2.22v4.44a2.22 2.22 0 0 0 2.22-2.22ZM416 164.59a2.22 2.22 0 0 0 4.43 0ZM433 164.59h-2.21a2.21 2.21 0 0 0 2.21 2.21ZM403.46 166.8a2.22 2.22 0 0 0 2.22-2.21h-2.22ZM418.25 206.73a2.21 2.21 0 0 0-.11 4.42c.78-.77 1.55-1.58 2.3-2.4a2.21 2.21 0 0 0-2.19-2.02ZM410.85 214.12a2.21 2.21 0 0 0-1 4.17c1.08-.8 2.14-1.62 3.19-2.48a2.22 2.22 0 0 0-2.19-1.69ZM425.64 199.34a2.21 2.21 0 0 0-.84 4.26c.87-1.11 1.72-2.27 2.54-3.45a2.19 2.19 0 0 0-1.7-.81ZM410.85 199.34a2.22 2.22 0 1 0 2.22 2.21 2.22 2.22 0 0 0-2.22-2.21ZM403.46 222.45l1.08-.64a2.21 2.21 0 0 0-1.08-.29ZM405.68 209a2.22 2.22 0 0 0-2.22-2.22v4.44a2.23 2.23 0 0 0 2.22-2.22ZM416 194.16a2.22 2.22 0 1 0 4.43 0ZM430.82 194.16a2.1 2.1 0 0 0 .06.51l.31-.51ZM403.46 196.38a2.22 2.22 0 0 0 2.22-2.22h-2.22ZM390.89 75.86a2.22 2.22 0 1 0-4.44 0ZM401.24 75.86h.59l-.57-.23c0 .08-.02.15-.02.23ZM382.21 70.48c-.79-.13-1.59-.24-2.38-.35a2.2 2.2 0 0 0 1.45.56 2.26 2.26 0 0 0 .93-.21ZM373.88 75.86h2.22a2.22 2.22 0 0 0-2.22-2.22ZM390.89 105.44a2.22 2.22 0 1 0-4.44 0ZM401.24 105.44h2.22v-2.22a2.21 2.21 0 0 0-2.22 2.22ZM388.67 92.87a2.22 2.22 0 1 0-2.22-2.22 2.22 2.22 0 0 0 2.22 2.22ZM401.24 90.65a2.22 2.22 0 0 0 2.22 2.22v-4.44a2.21 2.21 0 0 0-2.22 2.22ZM396.07 100.26a2.22 2.22 0 1 0-2.22-2.26 2.21 2.21 0 0 0 2.22 2.26ZM381.28 100.26a2.22 2.22 0 1 0-2.22-2.26 2.22 2.22 0 0 0 2.22 2.26ZM396.07 85.47a2.22 2.22 0 1 0-2.22-2.22 2.21 2.21 0 0 0 2.22 2.22ZM381.28 85.47a2.22 2.22 0 1 0-2.22-2.22 2.22 2.22 0 0 0 2.22 2.22ZM373.88 105.44h2.22a2.21 2.21 0 0 0-2.22-2.22ZM376.1 90.65a2.21 2.21 0 0 0-2.22-2.22v4.44a2.22 2.22 0 0 0 2.22-2.22ZM386.45 75.86a2.22 2.22 0 1 0 4.44 0ZM401.24 75.86a2.21 2.21 0 0 0 2.22 2.22v-1.53c-.54-.24-1.08-.47-1.63-.69ZM376.1 75.86h-2.22v2.22a2.21 2.21 0 0 0 2.22-2.22ZM390.89 135a2.22 2.22 0 1 0-4.44 0ZM401.24 135h2.22v-2.22a2.22 2.22 0 0 0-2.22 2.22ZM388.67 122.44a2.22 2.22 0 1 0-2.22-2.22 2.21 2.21 0 0 0 2.22 2.22ZM401.24 120.22a2.21 2.21 0 0 0 2.22 2.22V118a2.21 2.21 0 0 0-2.22 2.22ZM396.07 129.83a2.22 2.22 0 1 0-2.22-2.21 2.21 2.21 0 0 0 2.22 2.21ZM381.28 129.83a2.22 2.22 0 1 0-2.22-2.21 2.22 2.22 0 0 0 2.22 2.21ZM396.07 115.05a2.22 2.22 0 1 0-2.22-2.22 2.21 2.21 0 0 0 2.22 2.22ZM381.28 115.05a2.22 2.22 0 1 0-2.22-2.22 2.22 2.22 0 0 0 2.22 2.22ZM373.88 135h2.22a2.22 2.22 0 0 0-2.22-2.22ZM376.1 120.22a2.21 2.21 0 0 0-2.22-2.21v4.43a2.21 2.21 0 0 0 2.22-2.22ZM386.45 105.44a2.22 2.22 0 0 0 4.44 0ZM401.24 105.44a2.21 2.21 0 0 0 2.22 2.21v-2.21ZM376.1 105.44h-2.22v2.21a2.21 2.21 0 0 0 2.22-2.21ZM388.67 162.37a2.22 2.22 0 0 0-2.22 2.22h4.44a2.21 2.21 0 0 0-2.22-2.22Z"/><path class="cls-13" d="M401.24 164.59h2.22v-2.22a2.21 2.21 0 0 0-2.22 2.22ZM388.67 147.58a2.22 2.22 0 1 0 2.22 2.22 2.22 2.22 0 0 0-2.22-2.22ZM401.24 149.8a2.22 2.22 0 0 0 2.22 2.22v-4.44a2.21 2.21 0 0 0-2.22 2.22ZM396.07 155a2.22 2.22 0 1 0 2.21 2.22 2.22 2.22 0 0 0-2.21-2.22ZM381.28 155a2.22 2.22 0 1 0 2.22 2.22 2.22 2.22 0 0 0-2.22-2.22ZM396.07 140.19a2.22 2.22 0 1 0 2.21 2.21 2.21 2.21 0 0 0-2.21-2.21ZM381.28 140.19a2.22 2.22 0 1 0 2.22 2.21 2.21 2.21 0 0 0-2.22-2.21ZM373.88 162.37v2.22h2.22a2.21 2.21 0 0 0-2.22-2.22ZM376.1 149.8a2.21 2.21 0 0 0-2.22-2.22V152a2.22 2.22 0 0 0 2.22-2.2ZM386.45 135a2.22 2.22 0 1 0 4.44 0ZM403.46 135h-2.22a2.21 2.21 0 0 0 2.22 2.22ZM373.88 137.23a2.21 2.21 0 0 0 2.22-2.23h-2.22ZM388.67 191.94a2.23 2.23 0 0 0-2.22 2.22h4.44a2.22 2.22 0 0 0-2.22-2.22ZM401.24 194.16h2.22v-2.22a2.22 2.22 0 0 0-2.22 2.22ZM388.67 177.15a2.22 2.22 0 1 0 2.22 2.22 2.23 2.23 0 0 0-2.22-2.22ZM401.24 179.37a2.21 2.21 0 0 0 2.22 2.22v-4.44a2.22 2.22 0 0 0-2.22 2.22ZM396.07 184.55a2.22 2.22 0 1 0 2.21 2.22 2.21 2.21 0 0 0-2.21-2.22ZM381.28 184.55a2.22 2.22 0 1 0 2.22 2.22 2.21 2.21 0 0 0-2.22-2.22ZM396.07 169.76a2.22 2.22 0 1 0 2.21 2.22 2.21 2.21 0 0 0-2.21-2.22ZM381.28 169.76a2.22 2.22 0 1 0 2.22 2.24 2.21 2.21 0 0 0-2.22-2.24ZM373.88 191.94v2.22h2.22a2.22 2.22 0 0 0-2.22-2.22ZM376.1 179.37a2.22 2.22 0 0 0-2.22-2.22v4.44a2.21 2.21 0 0 0 2.22-2.22ZM386.45 164.59a2.22 2.22 0 0 0 4.44 0ZM403.46 164.59h-2.22a2.21 2.21 0 0 0 2.22 2.21ZM373.88 166.8a2.21 2.21 0 0 0 2.22-2.21h-2.22ZM390.89 223.74a2.22 2.22 0 1 0-4.44 0ZM403.46 221.52a2.21 2.21 0 0 0-2.21 2.16c.74-.4 1.48-.81 2.21-1.23ZM388.67 206.73a2.22 2.22 0 1 0 2.22 2.22 2.22 2.22 0 0 0-2.22-2.22ZM401.24 209a2.22 2.22 0 0 0 2.22 2.22v-4.44a2.21 2.21 0 0 0-2.22 2.22ZM396.07 214.12a2.22 2.22 0 1 0 2.21 2.22 2.22 2.22 0 0 0-2.21-2.22ZM381.28 214.12a2.22 2.22 0 1 0 2.22 2.22 2.22 2.22 0 0 0-2.22-2.22ZM396.07 199.34a2.22 2.22 0 1 0 2.21 2.21 2.21 2.21 0 0 0-2.21-2.21ZM381.28 199.34a2.22 2.22 0 1 0 2.22 2.21 2.21 2.21 0 0 0-2.22-2.21ZM373.88 223.73h2.22a2.21 2.21 0 0 0-2.22-2.21ZM376.1 209a2.21 2.21 0 0 0-2.22-2.22v4.44a2.22 2.22 0 0 0 2.22-2.22ZM386.45 194.16a2.22 2.22 0 1 0 4.44 0ZM403.46 194.16h-2.22a2.21 2.21 0 0 0 2.22 2.22ZM373.88 196.38a2.21 2.21 0 0 0 2.22-2.22h-2.22ZM381.28 228.91a2.21 2.21 0 0 0-2.22 2.22.09.09 0 0 0 0 .05c1.42-.25 2.85-.53 4.27-.85a2.21 2.21 0 0 0-2.05-1.42ZM386.45 223.74a2.22 2.22 0 0 0 4.44 0ZM373.88 226a2.21 2.21 0 0 0 2.22-2.22h-2.22ZM361.32 75.86a2.22 2.22 0 1 0-4.44 0ZM373.88 75.86v-2.22a2.22 2.22 0 0 0-2.21 2.22ZM366.49 70.69a2.21 2.21 0 0 0 2.05-1.38h-4.09a2.22 2.22 0 0 0 2.04 1.38ZM352.94 70.31c-.61.08-1.23.18-1.85.28a2.11 2.11 0 0 0 .61.1 2.19 2.19 0 0 0 1.24-.38ZM344.31 75.86h2.22a2.23 2.23 0 0 0-2.22-2.22ZM361.32 105.44a2.22 2.22 0 1 0-4.44 0ZM373.88 105.44v-2.22a2.21 2.21 0 0 0-2.21 2.22ZM359.1 92.87a2.22 2.22 0 1 0-2.22-2.22 2.23 2.23 0 0 0 2.22 2.22ZM371.67 90.65a2.22 2.22 0 0 0 2.21 2.22v-4.44a2.21 2.21 0 0 0-2.21 2.22Z"/><circle class="cls-13" cx="366.49" cy="98.04" r="2.22"/><path class="cls-13" d="M351.7 100.26a2.22 2.22 0 1 0-2.21-2.26 2.21 2.21 0 0 0 2.21 2.26ZM366.49 85.47a2.22 2.22 0 1 0-2.22-2.22 2.21 2.21 0 0 0 2.22 2.22ZM351.7 85.47a2.22 2.22 0 1 0-2.21-2.22 2.21 2.21 0 0 0 2.21 2.22ZM344.31 105.44h2.22a2.22 2.22 0 0 0-2.22-2.22ZM346.53 90.65a2.22 2.22 0 0 0-2.22-2.22v4.44a2.23 2.23 0 0 0 2.22-2.22ZM356.88 75.86a2.22 2.22 0 1 0 4.44 0ZM373.88 75.86h-2.21a2.21 2.21 0 0 0 2.21 2.22ZM346.53 75.86h-2.22v2.22a2.22 2.22 0 0 0 2.22-2.22ZM361.32 135a2.22 2.22 0 1 0-4.44 0ZM373.88 135v-2.22a2.22 2.22 0 0 0-2.21 2.22ZM359.1 122.44a2.22 2.22 0 1 0-2.22-2.22 2.22 2.22 0 0 0 2.22 2.22ZM371.67 120.22a2.21 2.21 0 0 0 2.21 2.22V118a2.21 2.21 0 0 0-2.21 2.22ZM366.49 129.83a2.22 2.22 0 1 0-2.22-2.21 2.21 2.21 0 0 0 2.22 2.21ZM351.7 129.83a2.22 2.22 0 1 0-2.21-2.21 2.21 2.21 0 0 0 2.21 2.21ZM366.49 115.05a2.22 2.22 0 1 0-2.22-2.22 2.21 2.21 0 0 0 2.22 2.22ZM351.7 115.05a2.22 2.22 0 1 0-2.21-2.22 2.21 2.21 0 0 0 2.21 2.22ZM344.31 135h2.22a2.23 2.23 0 0 0-2.22-2.22ZM346.53 120.22a2.22 2.22 0 0 0-2.22-2.21v4.43a2.22 2.22 0 0 0 2.22-2.22ZM356.88 105.44a2.22 2.22 0 0 0 4.44 0ZM373.88 105.44h-2.21a2.21 2.21 0 0 0 2.21 2.21ZM346.53 105.44h-2.22v2.21a2.22 2.22 0 0 0 2.22-2.21ZM359.1 162.37a2.21 2.21 0 0 0-2.22 2.22h4.44a2.22 2.22 0 0 0-2.22-2.22ZM371.67 164.59h2.21v-2.22a2.21 2.21 0 0 0-2.21 2.22ZM359.1 152a2.22 2.22 0 1 0-2.22-2.22 2.23 2.23 0 0 0 2.22 2.22ZM371.67 149.8a2.22 2.22 0 0 0 2.21 2.22v-4.44a2.21 2.21 0 0 0-2.21 2.22ZM366.49 159.41a2.22 2.22 0 1 0-2.22-2.22 2.21 2.21 0 0 0 2.22 2.22ZM351.7 159.41a2.22 2.22 0 1 0-2.21-2.22 2.21 2.21 0 0 0 2.21 2.22Z"/><circle class="cls-13" cx="366.49" cy="142.4" r="2.22"/><path class="cls-13" d="M351.7 144.62a2.22 2.22 0 1 0-2.21-2.22 2.21 2.21 0 0 0 2.21 2.22ZM344.31 164.59h2.22a2.22 2.22 0 0 0-2.22-2.22ZM346.53 149.8a2.22 2.22 0 0 0-2.22-2.22V152a2.23 2.23 0 0 0 2.22-2.2ZM356.88 135a2.22 2.22 0 1 0 4.44 0ZM373.88 135h-2.21a2.21 2.21 0 0 0 2.21 2.22ZM346.53 135h-2.22v2.22a2.22 2.22 0 0 0 2.22-2.22ZM359.1 191.94a2.22 2.22 0 0 0-2.22 2.22h4.44a2.23 2.23 0 0 0-2.22-2.22ZM371.67 194.16h2.21v-2.22a2.22 2.22 0 0 0-2.21 2.22ZM359.1 177.15a2.22 2.22 0 1 0 2.22 2.22 2.22 2.22 0 0 0-2.22-2.22ZM371.67 179.37a2.21 2.21 0 0 0 2.21 2.22v-4.44a2.22 2.22 0 0 0-2.21 2.22ZM366.49 184.55a2.22 2.22 0 1 0 2.22 2.22 2.21 2.21 0 0 0-2.22-2.22ZM351.7 184.55a2.22 2.22 0 1 0 2.22 2.22 2.21 2.21 0 0 0-2.22-2.22ZM366.49 169.76a2.22 2.22 0 1 0 2.22 2.22 2.21 2.21 0 0 0-2.22-2.22ZM351.7 169.76a2.22 2.22 0 1 0 2.22 2.22 2.21 2.21 0 0 0-2.22-2.22ZM344.31 191.94v2.22h2.22a2.23 2.23 0 0 0-2.22-2.22ZM346.53 179.37a2.23 2.23 0 0 0-2.22-2.22v4.44a2.22 2.22 0 0 0 2.22-2.22ZM356.88 164.59a2.22 2.22 0 0 0 4.44 0ZM373.88 164.59h-2.21a2.21 2.21 0 0 0 2.21 2.21ZM346.53 164.59h-2.22v2.21a2.22 2.22 0 0 0 2.22-2.21ZM359.1 221.52a2.21 2.21 0 0 0-2.22 2.22h4.44a2.22 2.22 0 0 0-2.22-2.22ZM371.67 223.73h2.21v-2.21a2.21 2.21 0 0 0-2.21 2.21ZM359.1 206.73a2.22 2.22 0 1 0 2.22 2.22 2.21 2.21 0 0 0-2.22-2.22ZM371.67 209a2.22 2.22 0 0 0 2.21 2.22v-4.44a2.21 2.21 0 0 0-2.21 2.22ZM366.49 214.12a2.22 2.22 0 1 0 2.22 2.22 2.22 2.22 0 0 0-2.22-2.22ZM351.7 214.12a2.22 2.22 0 1 0 2.22 2.22 2.22 2.22 0 0 0-2.22-2.22ZM366.49 199.34a2.22 2.22 0 1 0 2.22 2.21 2.21 2.21 0 0 0-2.22-2.21ZM351.7 199.34a2.22 2.22 0 1 0 2.22 2.21 2.21 2.21 0 0 0-2.22-2.21ZM344.31 221.52v2.21h2.22a2.22 2.22 0 0 0-2.22-2.21ZM346.53 209a2.22 2.22 0 0 0-2.22-2.22v4.44a2.23 2.23 0 0 0 2.22-2.22ZM356.88 194.16a2.22 2.22 0 1 0 4.44 0ZM373.88 194.16h-2.21a2.21 2.21 0 0 0 2.21 2.22ZM346.53 194.16h-2.22v2.22a2.22 2.22 0 0 0 2.22-2.22ZM366.49 228.91a2.2 2.2 0 0 0-1.73 3.59c1.18 0 2.36-.05 3.55-.11a2.21 2.21 0 0 0-1.82-3.48ZM351.7 228.91a2.21 2.21 0 0 0-2.21 2.22 1.75 1.75 0 0 0 .05.46c1.36.19 2.76.35 4.17.48a2.27 2.27 0 0 0 .21-.94 2.21 2.21 0 0 0-2.22-2.22ZM356.88 223.74a2.22 2.22 0 0 0 4.44 0ZM373.88 223.73h-2.21a2.21 2.21 0 0 0 2.21 2.22ZM344.31 226a2.22 2.22 0 0 0 2.22-2.22h-2.22ZM344.31 73.64a2.22 2.22 0 0 0-2.22 2.22h2.22ZM331.74 105.44a2.22 2.22 0 0 0-4.44 0ZM344.31 105.44v-2.22a2.21 2.21 0 0 0-2.22 2.22ZM329.52 92.87a2.22 2.22 0 1 0-2.22-2.22 2.22 2.22 0 0 0 2.22 2.22ZM342.09 90.65a2.22 2.22 0 0 0 2.22 2.22v-4.44a2.21 2.21 0 0 0-2.22 2.22ZM336.92 100.26A2.22 2.22 0 1 0 334.7 98a2.21 2.21 0 0 0 2.22 2.26ZM322.13 100.26a2.22 2.22 0 1 0-2.22-2.26 2.22 2.22 0 0 0 2.22 2.26ZM336.92 85.47a2.22 2.22 0 1 0-2.22-2.22 2.21 2.21 0 0 0 2.22 2.22ZM322.13 85.47a2.22 2.22 0 1 0-2.22-2.22 2.22 2.22 0 0 0 2.22 2.22ZM314.73 105.44H317a2.21 2.21 0 0 0-2.22-2.22ZM317 90.65a2.21 2.21 0 0 0-2.22-2.22v4.44a2.22 2.22 0 0 0 2.22-2.22ZM331.74 75.89c-1.26.49-2.51 1-3.75 1.57a2.21 2.21 0 0 0 3.75-1.57ZM344.31 75.86h-2.22a2.21 2.21 0 0 0 2.22 2.22ZM331.74 135a2.22 2.22 0 0 0-4.44 0ZM344.31 135v-2.22a2.22 2.22 0 0 0-2.22 2.22ZM329.52 122.44a2.22 2.22 0 1 0-2.22-2.22 2.21 2.21 0 0 0 2.22 2.22ZM342.09 120.22a2.21 2.21 0 0 0 2.22 2.22V118a2.21 2.21 0 0 0-2.22 2.22ZM336.92 129.83a2.22 2.22 0 1 0-2.22-2.21 2.21 2.21 0 0 0 2.22 2.21ZM322.13 129.83a2.22 2.22 0 1 0-2.22-2.21 2.22 2.22 0 0 0 2.22 2.21ZM336.92 115.05a2.22 2.22 0 1 0-2.22-2.22 2.21 2.21 0 0 0 2.22 2.22ZM322.13 115.05a2.22 2.22 0 1 0-2.22-2.22 2.22 2.22 0 0 0 2.22 2.22ZM314.73 135H317a2.22 2.22 0 0 0-2.22-2.22ZM317 120.22a2.21 2.21 0 0 0-2.22-2.21v4.43a2.21 2.21 0 0 0 2.22-2.22ZM327.3 105.44a2.22 2.22 0 0 0 4.44 0ZM344.31 105.44h-2.22a2.21 2.21 0 0 0 2.22 2.21ZM317 105.44h-2.22v2.21a2.21 2.21 0 0 0 2.22-2.21ZM329.52 162.37a2.22 2.22 0 0 0-2.22 2.22h4.44a2.21 2.21 0 0 0-2.22-2.22ZM344.31 162.37a2.21 2.21 0 0 0-2.22 2.22h2.22ZM329.52 152a2.22 2.22 0 1 0-2.22-2.22 2.22 2.22 0 0 0 2.22 2.22Z"/><path class="cls-13" d="M342.09 149.8a2.22 2.22 0 0 0 2.22 2.22v-4.44a2.21 2.21 0 0 0-2.22 2.22ZM336.92 159.41a2.22 2.22 0 1 0-2.22-2.22 2.21 2.21 0 0 0 2.22 2.22ZM322.13 159.41a2.22 2.22 0 1 0-2.22-2.22 2.22 2.22 0 0 0 2.22 2.22ZM336.92 144.62a2.22 2.22 0 1 0-2.22-2.22 2.21 2.21 0 0 0 2.22 2.22ZM322.13 144.62a2.22 2.22 0 1 0-2.22-2.22 2.22 2.22 0 0 0 2.22 2.22ZM314.73 164.59H317a2.21 2.21 0 0 0-2.22-2.22ZM317 149.8a2.21 2.21 0 0 0-2.22-2.22V152a2.22 2.22 0 0 0 2.22-2.2ZM327.3 135a2.22 2.22 0 0 0 4.44 0ZM344.31 135h-2.22a2.21 2.21 0 0 0 2.22 2.22ZM317 135h-2.22v2.22A2.21 2.21 0 0 0 317 135ZM329.52 191.94a2.23 2.23 0 0 0-2.22 2.22h4.44a2.22 2.22 0 0 0-2.22-2.22ZM344.31 191.94a2.22 2.22 0 0 0-2.22 2.22h2.22ZM329.52 177.15a2.22 2.22 0 1 0 2.22 2.22 2.23 2.23 0 0 0-2.22-2.22ZM342.09 179.37a2.21 2.21 0 0 0 2.22 2.22v-4.44a2.22 2.22 0 0 0-2.22 2.22ZM336.92 184.55a2.22 2.22 0 1 0 2.21 2.22 2.21 2.21 0 0 0-2.21-2.22ZM322.13 184.55a2.22 2.22 0 1 0 2.22 2.22 2.21 2.21 0 0 0-2.22-2.22ZM336.92 169.76a2.22 2.22 0 1 0 2.21 2.22 2.21 2.21 0 0 0-2.21-2.22ZM322.13 169.76a2.22 2.22 0 1 0 2.22 2.22 2.21 2.21 0 0 0-2.22-2.22ZM314.73 191.94v2.22H317a2.22 2.22 0 0 0-2.27-2.22ZM317 179.37a2.22 2.22 0 0 0-2.22-2.22v4.44a2.21 2.21 0 0 0 2.22-2.22ZM327.3 164.59a2.22 2.22 0 0 0 4.44 0ZM344.31 164.59h-2.22a2.21 2.21 0 0 0 2.22 2.21ZM314.73 166.8a2.21 2.21 0 0 0 2.22-2.21h-2.22ZM329.52 221.52a2.22 2.22 0 0 0-2.22 2.22h4.44a2.21 2.21 0 0 0-2.22-2.22ZM344.31 221.52a2.21 2.21 0 0 0-2.22 2.21h2.22ZM329.52 211.17a2.22 2.22 0 1 0-2.22-2.17 2.22 2.22 0 0 0 2.22 2.17ZM342.09 209a2.22 2.22 0 0 0 2.22 2.22v-4.44a2.21 2.21 0 0 0-2.22 2.22ZM336.92 218.56a2.22 2.22 0 1 0-2.22-2.22 2.21 2.21 0 0 0 2.22 2.22ZM322.13 214.12a2.22 2.22 0 1 0 2.22 2.22 2.22 2.22 0 0 0-2.22-2.22ZM336.92 203.77a2.22 2.22 0 1 0-2.22-2.22 2.21 2.21 0 0 0 2.22 2.22ZM322.13 199.34a2.22 2.22 0 1 0 2.22 2.21 2.21 2.21 0 0 0-2.22-2.21ZM314.73 223.73H317a2.21 2.21 0 0 0-2.22-2.21ZM317 209a2.21 2.21 0 0 0-2.22-2.22v4.44A2.22 2.22 0 0 0 317 209ZM327.3 194.16a2.22 2.22 0 0 0 4.44 0ZM344.31 194.16h-2.22a2.21 2.21 0 0 0 2.22 2.22ZM314.73 196.38a2.21 2.21 0 0 0 2.22-2.22h-2.22ZM336.52 229c.59.17 1.19.32 1.81.48a2.22 2.22 0 0 0-1.41-.52 2.58 2.58 0 0 0-.4.04ZM320.06 231.91c0-.61.07-1.2.09-1.76a2.12 2.12 0 0 0-.24 1 2.25 2.25 0 0 0 .15.76ZM314.73 253.31h.21c.28-.66.55-1.31.8-2a2.13 2.13 0 0 0-1-.26ZM317 238.52a2.22 2.22 0 0 0-2.22-2.22v4.44a2.21 2.21 0 0 0 2.22-2.22ZM327.3 223.74a2.22 2.22 0 0 0 4.44 0Z"/><path class="cls-13" d="M344.31 223.73h-2.22a2.21 2.21 0 0 0 2.22 2.22ZM314.73 226a2.21 2.21 0 0 0 2.22-2.22h-2.22ZM314.73 253.78l.21-.47h-.21ZM300 103.22a2.21 2.21 0 0 0-2.22 2.22h4.44a2.22 2.22 0 0 0-2.22-2.22ZM314.73 103.22a2.21 2.21 0 0 0-2.21 2.22h2.21ZM312.52 90.65a2.22 2.22 0 0 0 2.21 2.22v-4.44a2.21 2.21 0 0 0-2.21 2.22ZM307.34 100.26a2.22 2.22 0 1 0-2.22-2.26 2.21 2.21 0 0 0 2.22 2.26ZM302.17 135a2.22 2.22 0 0 0-4.44 0ZM314.73 135v-2.22a2.22 2.22 0 0 0-2.21 2.22ZM300 122.44a2.22 2.22 0 1 0-2.22-2.22 2.22 2.22 0 0 0 2.22 2.22ZM312.52 120.22a2.21 2.21 0 0 0 2.21 2.22V118a2.21 2.21 0 0 0-2.21 2.22ZM307.34 129.83a2.22 2.22 0 1 0-2.22-2.21 2.21 2.21 0 0 0 2.22 2.21ZM292.55 129.83a2.22 2.22 0 1 0-2.21-2.21 2.21 2.21 0 0 0 2.21 2.21ZM307.34 115.05a2.22 2.22 0 1 0-2.22-2.22 2.21 2.21 0 0 0 2.22 2.22ZM292.55 115.05a2.22 2.22 0 1 0-2.21-2.22 2.21 2.21 0 0 0 2.21 2.22ZM285.16 135h2.22a2.23 2.23 0 0 0-2.22-2.22ZM287.38 120.22a2.22 2.22 0 0 0-2.11-2.2 2.12 2.12 0 0 1-.11.21v4.21a2.22 2.22 0 0 0 2.22-2.22ZM297.73 105.44a2.22 2.22 0 0 0 4.44 0ZM314.73 105.44h-2.21a2.21 2.21 0 0 0 2.21 2.21ZM302.17 164.59a2.22 2.22 0 0 0-4.44 0ZM314.73 164.59v-2.22a2.21 2.21 0 0 0-2.21 2.22ZM300 152a2.22 2.22 0 1 0-2.22-2.22A2.23 2.23 0 0 0 300 152ZM312.52 149.8a2.22 2.22 0 0 0 2.21 2.22v-4.44a2.21 2.21 0 0 0-2.21 2.22ZM307.34 159.41a2.22 2.22 0 1 0-2.22-2.22 2.21 2.21 0 0 0 2.22 2.22ZM292.55 159.41a2.22 2.22 0 1 0-2.21-2.22 2.21 2.21 0 0 0 2.21 2.22ZM307.34 144.62a2.22 2.22 0 1 0-2.22-2.22 2.21 2.21 0 0 0 2.22 2.22ZM292.55 144.62a2.22 2.22 0 1 0-2.21-2.22 2.21 2.21 0 0 0 2.21 2.22ZM285.16 164.59h2.22a2.22 2.22 0 0 0-2.22-2.22ZM287.38 149.8a2.22 2.22 0 0 0-2.22-2.22V152a2.23 2.23 0 0 0 2.22-2.2ZM297.73 135a2.22 2.22 0 0 0 4.44 0ZM314.73 135h-2.21a2.21 2.21 0 0 0 2.21 2.22ZM287.38 135h-2.22v2.22a2.22 2.22 0 0 0 2.22-2.22ZM300 191.94a2.22 2.22 0 0 0-2.22 2.22h4.44a2.23 2.23 0 0 0-2.22-2.22ZM312.52 194.16h2.21v-2.22a2.22 2.22 0 0 0-2.21 2.22ZM300 181.59a2.22 2.22 0 1 0-2.22-2.22 2.22 2.22 0 0 0 2.22 2.22ZM312.52 179.37a2.21 2.21 0 0 0 2.21 2.22v-4.44a2.22 2.22 0 0 0-2.21 2.22ZM307.34 189a2.22 2.22 0 1 0-2.22-2.21 2.21 2.21 0 0 0 2.22 2.21ZM292.55 189a2.22 2.22 0 1 0-2.21-2.21 2.21 2.21 0 0 0 2.21 2.21ZM307.34 174.2a2.22 2.22 0 1 0-2.22-2.22 2.21 2.21 0 0 0 2.22 2.22ZM292.55 174.2a2.22 2.22 0 1 0-2.21-2.22 2.21 2.21 0 0 0 2.21 2.22ZM285.16 194.16h2.22a2.23 2.23 0 0 0-2.22-2.22ZM287.38 179.37a2.23 2.23 0 0 0-2.22-2.22v4.44a2.22 2.22 0 0 0 2.22-2.22ZM297.73 164.59a2.22 2.22 0 0 0 4.44 0ZM314.73 164.59h-2.21a2.21 2.21 0 0 0 2.21 2.21ZM287.38 164.59h-2.22v2.21a2.22 2.22 0 0 0 2.22-2.21ZM300 221.52a2.21 2.21 0 0 0-2.22 2.22h4.44a2.22 2.22 0 0 0-2.22-2.22ZM312.52 223.73h2.21v-2.21a2.21 2.21 0 0 0-2.21 2.21ZM300 206.73a2.22 2.22 0 1 0 2.22 2.22 2.21 2.21 0 0 0-2.22-2.22ZM312.52 209a2.22 2.22 0 0 0 2.21 2.22v-4.44a2.21 2.21 0 0 0-2.21 2.22ZM307.34 214.12a2.22 2.22 0 1 0 2.22 2.22 2.23 2.23 0 0 0-2.22-2.22ZM292.55 214.12a2.22 2.22 0 1 0 2.22 2.22 2.22 2.22 0 0 0-2.22-2.22ZM307.34 199.34a2.22 2.22 0 1 0 2.22 2.21 2.22 2.22 0 0 0-2.22-2.21ZM292.55 199.34a2.22 2.22 0 1 0 2.22 2.21 2.21 2.21 0 0 0-2.22-2.21ZM285.16 221.52v2.21h2.22a2.22 2.22 0 0 0-2.22-2.21ZM287.38 209a2.22 2.22 0 0 0-2.22-2.22v4.44a2.23 2.23 0 0 0 2.22-2.22ZM297.73 194.16a2.22 2.22 0 0 0 4.44 0ZM314.73 194.16h-2.21a2.21 2.21 0 0 0 2.21 2.22ZM285.16 196.38a2.22 2.22 0 0 0 2.22-2.22h-2.22ZM300 251.09a2.21 2.21 0 0 0-2.22 2.22h4.44a2.22 2.22 0 0 0-2.22-2.22ZM314.73 251.09a2.21 2.21 0 0 0-2.21 2.22h2.21ZM300 236.3a2.22 2.22 0 1 0 2.22 2.22 2.22 2.22 0 0 0-2.22-2.22ZM312.52 238.52a2.21 2.21 0 0 0 2.21 2.22v-4.44a2.22 2.22 0 0 0-2.21 2.22ZM307.34 243.7a2.22 2.22 0 1 0 2.22 2.22 2.22 2.22 0 0 0-2.22-2.22ZM292.55 243.7a2.22 2.22 0 1 0 2.22 2.22 2.21 2.21 0 0 0-2.22-2.22ZM307.34 228.91a2.22 2.22 0 1 0 2.22 2.22 2.22 2.22 0 0 0-2.22-2.22ZM292.55 228.91a2.22 2.22 0 1 0 2.22 2.22 2.21 2.21 0 0 0-2.22-2.22ZM285.16 251.09v2.22h2.22a2.22 2.22 0 0 0-2.22-2.22ZM287.38 238.52a2.23 2.23 0 0 0-2.22-2.22v4.44a2.22 2.22 0 0 0 2.22-2.22ZM297.73 223.74a2.22 2.22 0 0 0 4.44 0ZM314.73 223.73h-2.21a2.21 2.21 0 0 0 2.21 2.22ZM285.16 226a2.22 2.22 0 0 0 2.22-2.22h-2.22ZM300 265.88a2.22 2.22 0 1 0 2.22 2.22 2.21 2.21 0 0 0-2.22-2.22ZM292.55 273.27a2.22 2.22 0 1 0 2.22 2.22 2.22 2.22 0 0 0-2.22-2.22ZM307.34 262.92a2.22 2.22 0 1 0-2.22-2.22 2.21 2.21 0 0 0 2.22 2.22ZM292.55 258.49a2.22 2.22 0 1 0 2.22 2.21 2.21 2.21 0 0 0-2.22-2.21ZM285.16 282.88h2.22a2.22 2.22 0 0 0-2.22-2.21ZM287.38 268.1a2.22 2.22 0 0 0-2.22-2.22v4.43a2.22 2.22 0 0 0 2.22-2.21ZM297.73 253.31a2.22 2.22 0 0 0 4.44 0ZM312.52 253.31a2.22 2.22 0 0 0 1.48 2.09c.26-.54.5-1.08.73-1.62v-.47ZM285.16 255.53a2.22 2.22 0 0 0 2.22-2.22h-2.22ZM287.38 282.88h-2.22v1.78q1-.46 2.07-1a2.26 2.26 0 0 0 .15-.78Z"/><path class="cls-13" d="M285.16 132.79a2.22 2.22 0 0 0-2.22 2.22h2.22ZM285.16 122.44v-4.21c-.61 1.14-1.18 2.27-1.72 3.38a2.22 2.22 0 0 0 1.72.83ZM272.59 164.59a2.22 2.22 0 1 0-4.44 0ZM285.16 164.59v-2.22a2.21 2.21 0 0 0-2.22 2.22ZM270.37 152a2.22 2.22 0 1 0-2.22-2.22 2.22 2.22 0 0 0 2.22 2.22ZM282.94 149.8a2.22 2.22 0 0 0 2.22 2.22v-4.44a2.21 2.21 0 0 0-2.22 2.22ZM277.77 159.41a2.22 2.22 0 1 0-2.22-2.22 2.21 2.21 0 0 0 2.22 2.22ZM263 159.41a2.22 2.22 0 1 0-2.22-2.22 2.22 2.22 0 0 0 2.22 2.22ZM280 142.4a2.21 2.21 0 0 0-2.21-2.21 2.11 2.11 0 0 0-.8.15c-.32 1.54-.53 2.79-.66 3.72a2.16 2.16 0 0 0 1.46.56 2.21 2.21 0 0 0 2.21-2.22Z"/><circle class="cls-13" cx="262.98" cy="142.4" r="2.22"/><path class="cls-13" d="M255.59 164.59h2.21a2.21 2.21 0 0 0-2.21-2.22ZM257.8 149.8a2.21 2.21 0 0 0-2.21-2.22V152a2.22 2.22 0 0 0 2.21-2.2ZM285.16 135h-2.22a2.21 2.21 0 0 0 2.22 2.22ZM255.59 137.23a2.22 2.22 0 0 0 1.22-.37l-1.22-.29ZM272.59 194.16a2.22 2.22 0 1 0-4.44 0ZM285.16 194.16v-2.22a2.22 2.22 0 0 0-2.22 2.22ZM270.37 181.59a2.22 2.22 0 1 0-2.22-2.22 2.21 2.21 0 0 0 2.22 2.22ZM282.94 179.37a2.21 2.21 0 0 0 2.22 2.22v-4.44a2.22 2.22 0 0 0-2.22 2.22ZM277.77 189a2.22 2.22 0 1 0-2.22-2.21 2.21 2.21 0 0 0 2.22 2.21ZM263 189a2.22 2.22 0 1 0-2.22-2.21A2.22 2.22 0 0 0 263 189ZM277.77 174.2a2.22 2.22 0 1 0-2.22-2.22 2.21 2.21 0 0 0 2.22 2.22ZM263 174.2a2.22 2.22 0 1 0-2.22-2.22 2.22 2.22 0 0 0 2.22 2.22ZM255.59 194.16h2.21a2.22 2.22 0 0 0-2.21-2.22ZM257.8 179.37a2.22 2.22 0 0 0-2.21-2.22v4.44a2.21 2.21 0 0 0 2.21-2.22ZM268.15 164.59a2.22 2.22 0 0 0 4.44 0ZM285.16 164.59h-2.22a2.21 2.21 0 0 0 2.22 2.21ZM257.8 164.59h-2.21v2.21a2.21 2.21 0 0 0 2.21-2.21ZM270.37 221.52a2.22 2.22 0 0 0-2.22 2.22h4.44a2.21 2.21 0 0 0-2.22-2.22ZM285.16 221.52a2.21 2.21 0 0 0-2.22 2.21h2.22ZM270.37 206.73a2.22 2.22 0 1 0 2.22 2.22 2.22 2.22 0 0 0-2.22-2.22ZM282.94 209a2.22 2.22 0 0 0 2.22 2.22v-4.44a2.21 2.21 0 0 0-2.22 2.22ZM277.77 214.12a2.22 2.22 0 1 0 2.21 2.22 2.22 2.22 0 0 0-2.21-2.22ZM263 214.12a2.22 2.22 0 1 0 2.22 2.22 2.22 2.22 0 0 0-2.22-2.22ZM277.77 199.34a2.22 2.22 0 1 0 2.21 2.21 2.21 2.21 0 0 0-2.21-2.21ZM263 199.34a2.22 2.22 0 1 0 2.22 2.21 2.21 2.21 0 0 0-2.22-2.21ZM255.59 221.52v2.21h2.21a2.21 2.21 0 0 0-2.21-2.21ZM257.8 209a2.21 2.21 0 0 0-2.21-2.22v4.44a2.22 2.22 0 0 0 2.21-2.22ZM268.15 194.16a2.22 2.22 0 1 0 4.44 0ZM285.16 194.16h-2.22a2.21 2.21 0 0 0 2.22 2.22ZM257.8 194.16h-2.21v2.22a2.21 2.21 0 0 0 2.21-2.22ZM270.37 251.09a2.22 2.22 0 0 0-2.22 2.22h4.44a2.21 2.21 0 0 0-2.22-2.22ZM285.16 251.09a2.21 2.21 0 0 0-2.22 2.22h2.22Z"/><circle class="cls-13" cx="270.37" cy="238.52" r="2.22"/><path class="cls-13" d="M282.94 238.52a2.21 2.21 0 0 0 2.22 2.22v-4.44a2.22 2.22 0 0 0-2.22 2.22ZM277.77 243.7a2.22 2.22 0 1 0 2.21 2.22 2.21 2.21 0 0 0-2.21-2.22ZM263 243.7a2.22 2.22 0 1 0 2.22 2.22 2.21 2.21 0 0 0-2.22-2.22ZM277.77 228.91a2.22 2.22 0 1 0 2.21 2.22 2.21 2.21 0 0 0-2.21-2.22ZM263 228.91a2.22 2.22 0 1 0 2.22 2.22 2.21 2.21 0 0 0-2.22-2.22ZM255.59 251.09v2.22h2.21a2.21 2.21 0 0 0-2.21-2.22ZM257.8 238.52a2.22 2.22 0 0 0-2.21-2.22v4.44a2.21 2.21 0 0 0 2.21-2.22ZM268.15 223.74a2.22 2.22 0 0 0 4.44 0ZM285.16 223.73h-2.22a2.21 2.21 0 0 0 2.22 2.22ZM257.8 223.73h-2.21V226a2.21 2.21 0 0 0 2.21-2.27ZM270.37 280.67a2.22 2.22 0 0 0-2.22 2.21h4.44a2.21 2.21 0 0 0-2.22-2.21ZM282.94 282.88h2.22v-2.21a2.21 2.21 0 0 0-2.22 2.21ZM270.37 270.31a2.22 2.22 0 1 0-2.22-2.21 2.21 2.21 0 0 0 2.22 2.21ZM282.94 268.1a2.21 2.21 0 0 0 2.22 2.21v-4.43a2.21 2.21 0 0 0-2.22 2.22ZM277.77 277.71a2.22 2.22 0 1 0-2.22-2.22 2.21 2.21 0 0 0 2.22 2.22ZM263 277.71a2.22 2.22 0 1 0-2.22-2.22 2.22 2.22 0 0 0 2.22 2.22ZM277.77 262.92a2.22 2.22 0 1 0-2.22-2.22 2.21 2.21 0 0 0 2.22 2.22ZM263 262.92a2.22 2.22 0 1 0-2.22-2.22 2.22 2.22 0 0 0 2.22 2.22ZM257.8 282.88a2.22 2.22 0 0 0-2-2.2l1.24 2.2ZM257.8 268.1a2.21 2.21 0 0 0-2.21-2.22v4.43a2.21 2.21 0 0 0 2.21-2.21ZM268.15 253.31a2.22 2.22 0 1 0 4.44 0ZM285.16 253.31h-2.22a2.21 2.21 0 0 0 2.22 2.22ZM255.59 255.53a2.21 2.21 0 0 0 2.21-2.22h-2.21ZM263 288.06a2.2 2.2 0 0 0-2.1 1.54 35.4 35.4 0 0 0 4.2 0 2.22 2.22 0 0 0-2.1-1.54ZM268.15 282.88a2.22 2.22 0 1 0 4.44 0ZM282.94 282.88a2.21 2.21 0 0 0 1.51 2.1l.71-.32v-1.78ZM257.8 282.88h-.8l.56 1a2.19 2.19 0 0 0 .24-1ZM238.58 135H243v-.15c-1.47-.07-2.94-.1-4.4-.09a1.94 1.94 0 0 0-.02.24ZM243 164.59a2.22 2.22 0 0 0-4.44 0ZM255.59 164.59v-2.22a2.21 2.21 0 0 0-2.22 2.22ZM240.8 152a2.22 2.22 0 1 0-2.22-2.22 2.23 2.23 0 0 0 2.22 2.22ZM253.37 149.8a2.22 2.22 0 0 0 2.22 2.22v-4.44a2.21 2.21 0 0 0-2.22 2.22ZM248.19 159.41a2.22 2.22 0 1 0-2.22-2.22 2.21 2.21 0 0 0 2.22 2.22ZM233.4 159.41a2.22 2.22 0 1 0-2.21-2.22 2.21 2.21 0 0 0 2.21 2.22ZM248.19 144.62a2.22 2.22 0 1 0-2.19-2.22 2.21 2.21 0 0 0 2.19 2.22Z"/><circle class="cls-13" cx="233.4" cy="142.4" r="2.22"/><path class="cls-13" d="M226 164.59h2.22a2.21 2.21 0 0 0-2.22-2.22ZM228.23 149.8a2.21 2.21 0 0 0-2.22-2.22V152a2.22 2.22 0 0 0 2.22-2.2ZM238.58 135a2.22 2.22 0 0 0 4.44 0ZM255.59 137.23v-.66l-1.89-.4a2.23 2.23 0 0 0 1.89 1.06ZM226 137.23a2.21 2.21 0 0 0 2.14-1.68c-.72.1-1.43.21-2.14.34ZM240.8 191.94a2.22 2.22 0 0 0-2.22 2.22H243a2.23 2.23 0 0 0-2.2-2.22ZM255.59 191.94a2.22 2.22 0 0 0-2.22 2.22h2.22ZM240.8 181.59a2.22 2.22 0 1 0-2.22-2.22 2.22 2.22 0 0 0 2.22 2.22ZM253.37 179.37a2.21 2.21 0 0 0 2.22 2.22v-4.44a2.22 2.22 0 0 0-2.22 2.22ZM248.19 189a2.22 2.22 0 1 0-2.22-2.21 2.21 2.21 0 0 0 2.22 2.21ZM233.4 189a2.22 2.22 0 1 0-2.21-2.21 2.21 2.21 0 0 0 2.21 2.21ZM248.19 174.2A2.22 2.22 0 1 0 246 172a2.21 2.21 0 0 0 2.19 2.2ZM233.4 174.2a2.22 2.22 0 1 0-2.21-2.22 2.21 2.21 0 0 0 2.21 2.22ZM226 194.16h2.22a2.22 2.22 0 0 0-2.22-2.22ZM228.23 179.37a2.22 2.22 0 0 0-2.22-2.22v4.44a2.21 2.21 0 0 0 2.22-2.22ZM238.58 164.59a2.22 2.22 0 0 0 4.44 0ZM255.59 164.59h-2.22a2.21 2.21 0 0 0 2.22 2.21ZM228.23 164.59H226v2.21a2.21 2.21 0 0 0 2.23-2.21ZM240.8 221.52a2.21 2.21 0 0 0-2.22 2.22H243a2.22 2.22 0 0 0-2.2-2.22ZM255.59 221.52a2.21 2.21 0 0 0-2.22 2.21h2.22ZM240.8 206.73A2.22 2.22 0 1 0 243 209a2.21 2.21 0 0 0-2.2-2.27ZM253.37 209a2.22 2.22 0 0 0 2.22 2.22v-4.44a2.21 2.21 0 0 0-2.22 2.22ZM248.19 214.12a2.22 2.22 0 1 0 2.22 2.22 2.23 2.23 0 0 0-2.22-2.22ZM233.4 214.12a2.22 2.22 0 1 0 2.22 2.22 2.22 2.22 0 0 0-2.22-2.22ZM248.19 199.34a2.22 2.22 0 1 0 2.22 2.21 2.22 2.22 0 0 0-2.22-2.21ZM233.4 199.34a2.22 2.22 0 1 0 2.22 2.21 2.21 2.21 0 0 0-2.22-2.21ZM226 221.52v2.21h2.22a2.21 2.21 0 0 0-2.22-2.21ZM228.23 209a2.21 2.21 0 0 0-2.22-2.22v4.44a2.22 2.22 0 0 0 2.22-2.22ZM238.58 194.16a2.22 2.22 0 0 0 4.44 0ZM255.59 194.16h-2.22a2.21 2.21 0 0 0 2.22 2.22ZM228.23 194.16H226v2.22a2.21 2.21 0 0 0 2.23-2.22ZM243 253.31a2.22 2.22 0 0 0-2.22-2.22 2.14 2.14 0 0 0-1.44.55l.94 1.67ZM255.59 251.09a2.21 2.21 0 0 0-2.22 2.22h2.22Z"/><circle class="cls-13" cx="240.8" cy="238.52" r="2.22"/><path class="cls-13" d="M253.37 238.52a2.21 2.21 0 0 0 2.22 2.22v-4.44a2.22 2.22 0 0 0-2.22 2.22ZM248.19 248.13a2.22 2.22 0 1 0-2.22-2.21 2.21 2.21 0 0 0 2.22 2.21ZM248.19 233.35a2.22 2.22 0 1 0-2.22-2.22 2.22 2.22 0 0 0 2.22 2.22ZM233.4 228.91a2.22 2.22 0 1 0 2.22 2.22 2.21 2.21 0 0 0-2.22-2.22ZM238.58 223.74a2.22 2.22 0 0 0 4.44 0ZM255.59 223.73h-2.22a2.21 2.21 0 0 0 2.22 2.22ZM226 226a2.21 2.21 0 0 0 2.22-2.22H226ZM253.37 268.1a2.21 2.21 0 0 0 2.22 2.21v-4.43a2.21 2.21 0 0 0-2.22 2.22ZM248.19 258.49a2.22 2.22 0 1 0 2.22 2.21 2.22 2.22 0 0 0-2.22-2.21ZM243 253.31h-2.7l1.19 2.1a2.22 2.22 0 0 0 1.51-2.1ZM255.59 253.31h-2.22a2.21 2.21 0 0 0 2.22 2.22ZM211.22 162.37a2.22 2.22 0 0 0-2.22 2.22h4.44a2.21 2.21 0 0 0-2.22-2.22ZM226 162.37a2.21 2.21 0 0 0-2.22 2.22H226ZM211.22 152a2.22 2.22 0 1 0-2.22-2.2 2.22 2.22 0 0 0 2.22 2.2ZM223.79 149.8A2.22 2.22 0 0 0 226 152v-4.44a2.21 2.21 0 0 0-2.21 2.24ZM218.62 159.41a2.22 2.22 0 1 0-2.22-2.22 2.21 2.21 0 0 0 2.22 2.22ZM203.83 159.41a2.22 2.22 0 1 0-2.22-2.22 2.22 2.22 0 0 0 2.22 2.22ZM218.62 144.62a2.22 2.22 0 1 0-2.22-2.22 2.21 2.21 0 0 0 2.22 2.22ZM205.71 143.58c-.49.32-1 .66-1.43 1a2.23 2.23 0 0 0 1.43-1ZM196.44 162.37v2.22h2.21a2.21 2.21 0 0 0-2.21-2.22ZM198.65 149.8a1.43 1.43 0 0 0 0-.29c-.78.82-1.51 1.66-2.18 2.49a2.22 2.22 0 0 0 2.18-2.2ZM226 137.23v-1.34c-.62.1-1.24.22-1.85.34a2.23 2.23 0 0 0 1.85 1ZM211.22 191.94a2.23 2.23 0 0 0-2.22 2.22h4.44a2.22 2.22 0 0 0-2.22-2.22ZM226 191.94a2.22 2.22 0 0 0-2.22 2.22H226ZM211.22 181.59a2.22 2.22 0 1 0-2.22-2.22 2.21 2.21 0 0 0 2.22 2.22ZM223.79 179.37a2.21 2.21 0 0 0 2.22 2.22v-4.44a2.22 2.22 0 0 0-2.22 2.22ZM218.62 189a2.22 2.22 0 1 0-2.22-2.21 2.21 2.21 0 0 0 2.22 2.21ZM206.05 186.77a2.22 2.22 0 0 0-4.05-1.26l2 3.46a2.21 2.21 0 0 0 2.05-2.2ZM218.62 174.2a2.22 2.22 0 1 0-2.22-2.2 2.21 2.21 0 0 0 2.22 2.2ZM203.83 169.76a2.22 2.22 0 1 0 2.22 2.22 2.21 2.21 0 0 0-2.22-2.22ZM197.42 177.4l1.22 2.15v-.18a2.19 2.19 0 0 0-1.22-1.97ZM209 164.59a2.22 2.22 0 0 0 4.44 0ZM226 164.59h-2.22a2.21 2.21 0 0 0 2.22 2.21ZM196.44 166.8a2.21 2.21 0 0 0 2.21-2.21h-2.21ZM226 221.52a2.21 2.21 0 0 0-2.22 2.21H226ZM223.79 209a2.22 2.22 0 0 0 2.22 2.22v-4.44a2.21 2.21 0 0 0-2.22 2.22ZM218.62 214.12a2 2 0 0 0-.43 0l2.07 3.65a2.22 2.22 0 0 0-1.64-3.7ZM218.62 199.34a2.22 2.22 0 1 0 2.21 2.21 2.21 2.21 0 0 0-2.21-2.21ZM209 194.16a2.22 2.22 0 0 0 4.44 0ZM226 194.16h-2.22a2.21 2.21 0 0 0 2.22 2.22Z"/><path class="cls-13" d="M226 223.73h-2.22a2 2 0 0 0 .05.43l.68 1.21a2.18 2.18 0 0 0 1.49.63ZM196.44 162.37a2.21 2.21 0 0 0-2.22 2.22h2.22ZM196.44 152l-.01.01.01.01V152zM196.44 164.59h-2.22a2.21 2.21 0 0 0 2.22 2.21Z"/><path class="cls-7" d="M213.53 152.73c-13.93 2.05-25.53 9.42-33.74 26.27s-17.62 59.83-9.83 80.32 22.54 21.31 22.95 32.37-6.56 41.39-16.8 58.6-33.61 28.69-33.61 28.69 11.07 29.5 66.8 32 102.85-31.55 102.85-31.55-28.68-13.12-36.88-36.88-8.19-40.16-5.32-60.65a193.5 193.5 0 0 1 8.6-36.06S293.43 248.41 306 231c10.65-14.76 7.17-30.94-4.71-35.86-12.62-5.22-29.85 3.35-35.59 14.41 0 0-2-23.63-13.93-37.15s-24.71-16.4-38.24-19.67Z"/><g style="mix-blend-mode:multiply;opacity:.57"><path d="M228 251.25c-6.74-1-9.44-6.51-8-16.38s5.6-14.4 12.35-13.42 9.43 6.51 8 16.38-5.61 14.4-12.35 13.42Z" style="fill:#f49b87"/></g><path d="M167.07 241.22c6.26.5 10.15-4 11.53-13.5 1.43-9.87-1.27-15.39-8-16.37l-.58-.06a148.74 148.74 0 0 0-2.95 29.93Z" style="opacity:.42;fill:#f49b87;mix-blend-mode:multiply"/><path d="M224 209.35c-.44 2.49-1.6 3.58-3.44 3.26s-2.56-1.76-2.12-4.24 1.6-3.59 3.44-3.26 2.57 1.75 2.12 4.24ZM184.83 204.65c-.44 2.48-1.6 3.58-3.44 3.26s-2.56-1.76-2.12-4.25 1.6-3.58 3.44-3.26 2.56 1.76 2.12 4.25Z"/><path class="cls-17" d="M196.8 197a21.63 21.63 0 0 1-5.12 12.71c-3.28 3.69-11.48 7.17-12.09 9.83s15 11.27 15 11.27"/><path d="M179.79 236.53c2.26 1.84 13.94 5.73 26.64 2.66" style="stroke-width:4.76px;stroke:#df6d58;stroke-linecap:round;stroke-linejoin:round;fill:none"/><path class="cls-19" d="M210.12 189c5.33-1.84 16.18-3.89 25.61 2.46M193.93 187.35c-3.07-2.45-9.63-4.3-16-3.07"/><path class="cls-17" d="M294.74 211.12c-4.1 4.3-15.57 13.32-15.57 13.32M278.55 245.75c-11.06-1.64-14.95-8.61-14.95-8.61"/><path class="cls-8" d="M104 559.23c-4.91-11.06-5.32-30.32 3.69-42.61s7-26.23 3.28-41.8"/><path class="cls-8" d="M100.3 485.47c2.45 7.79 7.37 24.18 7.37 31.15"/><path style="fill:#047889" d="m239.68 494.49 12.33 162.82h79.58l12.33-162.82H239.68z"/><path d="M291.8 509.86c-35.56 0-52.12-4.88-52.12-15.37s16.56-15.38 52.12-15.38 52.12 4.89 52.12 15.38-16.56 15.37-52.12 15.37Z" style="fill:#5f92a0"/><ellipse cx="291.8" cy="494.49" rx="49.04" ry="12.29" style="fill:#fff"/></g></g></g></svg>