<svg xmlns="http://www.w3.org/2000/svg" viewBox="0 0 280 280"><defs><clipPath id="clip-path"><circle id="SVGID" class="cls-1" cx="140" cy="-220" r="129"/></clipPath><clipPath id="clip-path-2"><circle id="SVGID-2" data-name="SVGID" class="cls-2" cx="140" cy="140" r="129"/></clipPath><style>.cls-1{fill:#047889}.cls-2{fill:#e9dac9}.cls-14,.cls-23,.cls-6{fill:none;stroke-linecap:round;stroke-linejoin:round}.cls-6{stroke:#010101}.cls-14,.cls-6{stroke-width:.86px}.cls-11{fill:#df6d58}.cls-13{fill:#ef9657}.cls-14{stroke:#c5513d}.cls-18{fill:#e7947f}.cls-21{opacity:.48;mix-blend-mode:multiply}.cls-22{fill:#f49b87}.cls-23{stroke:#153745;stroke-width:2.58px}.cls-24{fill:#e58a74}</style></defs><g style="isolation:isolate"><g id="Layer_1" data-name="Layer 1"><circle id="SVGID-3" data-name="SVGID" class="cls-1" cx="140" cy="-220" r="129"/><g style="clip-path:url(#clip-path)"><path d="M96.7-178.73c-12.92 5.57-58 12-104.29 49.33S-70.65-33.31-66.79 5.3s35.61 58.77 62.2 51.05 49.76-45 49.76-45L52 39.19l149.71 2.57 12.44-102.1L257.52 4l-3.43 23.6 31.74 54.48s42-29.17 44.61-72.92-16.3-90.95-46.76-121a256 256 0 0 0-87.08-55.77c-21.88-8.15-28-12.11-28-12.11Z" style="fill:#a5bcc5"/><path class="cls-6" d="M279.54 9.44c11.46-2.86 23.46-4 36.6-1.14"/><path d="M180.81-173.83C141.59-73 109.69-3.5 89.53 21.76a10.75 10.75 0 0 0 16.81 13.41c14.28-17.9 33.26-54 56.42-107.42 11.93-27.49 24.57-59 38.05-93.71 1.95-4.99-18.06-12.87-20-7.87Z" style="fill:#fcbf22"/><path d="M203.47 29.32C209 12.16 215.48-8 237.36-22.16s87.08-25.31 87.08-25.31l2.57 3L221.48 51.2Z" style="fill:#e7d6c3"/><path class="cls-6" d="M211.09 20.5c4.77-11.44 16.71-28.12 33-38.7C267-33.07 324.91-46 324.91-46"/><path class="cls-6" d="M216.24 22.41a138.56 138.56 0 0 1 36.42-36.8c17.73-12 71.49-29 71.49-29"/><path class="cls-6" d="M219.86 25.46c9-9.53 21.74-23.64 41-36s57.77-28 57.77-28"/><path class="cls-6" d="M224.63 28.13c13-12 29.74-26.5 42.52-35.27s39.46-22.69 39.46-22.69"/><path d="M97.94-23.16C102.8-29.74 118-46 121.67-46.9s36 16.88 57.2 33.75 40.61 36 44.33 40.61S97.94-23.16 97.94-23.16Z" style="fill:#ece0d1"/><path d="M50.75 22.89C56.33 10 82.49-24.3 88.5-26.45S177.39-.62 195.74 8.73c19.74 10.06 39.37 27.41 39.37 27.41S209 56.35 185.45 58.92 50.75 22.89 50.75 22.89Z" style="fill:#fdece1"/><path class="cls-11" d="M45.6 24.6 37 66.21s130 23.17 148 23.6 39-16.73 57.48-33 20.61-29.21 20.61-29.21S279 19 285 13s52.31-60 52.31-60-91.38 65.17-106.82 78.47c-6.43 16.73-19.3 21-42 18.87S45.6 24.6 45.6 24.6Z"/><path class="cls-6" d="M81.25-20.11c21.17 2.86 56.74 14.35 78 21.55C182.3 9.25 222.53 31 227.3 34.61M74.2-12.29c14.49 1.72 43.47 8.58 77.22 19.83s68.06 27.07 73.4 30.88M68.1-4.28C87-1.23 120.15 6 154.47 17.26s58.72 20.21 67.68 23.83M62.76 3c12.78 2.86 51.29 11.25 80.84 18.88s73.21 21.92 73.21 21.92M58.38 9.63c8.77 1.34 69 15.07 90 20.6s57.19 14.29 61.77 15.82M54.75 15.55c21.55 4 71.31 13.91 103.15 22.11 27.1 7 41.18 10.11 41.18 10.11"/><path d="M48.6 19.45s125.7 28.13 142.85 27.46c16.73-.65 32.61-3.86 36-16.3L333-50.47l4.31 3.47-106.82 81.47s-3 12.44-18.44 15.44-27.89 3.43-60.05-3.43S45.6 24.6 45.6 24.6Z" style="fill:#e89b86"/><path class="cls-13" d="M-3.3-50.47s29.17-30 44.61-41.18 35.61-20.59 53.62-15.87 26.6 20.16 30.89 33 11.58 34.74 4.72 36.89-10.3-3-13.3-9.44a79.29 79.29 0 0 1-4.15-10.44s2.29 7.25-2.86 9.92-8.23-2.26-10.29-6.26c0 0 5 9.53-.57 12.58s-10.68-1.53-12.78-4.2c0 0 3.82 2.67.77 5.92s-10.49 0-10.49 0S53.13.77 45.17 11.3c0 0-23.21 6.15-42.08-17.49S-3.3-50.47-3.3-50.47ZM263.09 27.6l-14.58 12s-5.58-2.53-8.44-4.06-3.43-5.14-8-4.57a10.81 10.81 0 0 0-9 11.44c.58 6.1 8.77 13 8.77 13s-10.48 3.24-19.82 7.25-17.35 5.91-23.26 4.19-16.78-7.62-24-8.58-11.06-3.24-15.25 1-.38 9.15-.38 9.15S143 64 137.69 63.21s-8.58 1.72-8.77 7.24.19 1 .19 1-3.05 2.09-2.29 7.81 5.91 10.11 5.91 10.11S131.4 92 136.16 97s22.69 13 48.62 15.25 42.9-2.1 59.87-8.39 41.18-21.74 41.18-21.74S299 65.5 288.5 46.81c-9.56-17.03-25.41-19.21-25.41-19.21Z"/><path class="cls-14" d="M248.51 39.62c5.67 2.81 10.82 4.71 13.3 9.48M228.06 33.66c3.81 7.43 9.72 10.1 13 9.91s5.3-4.57 5.3-4.57M231.87 55.39s5.91 5 11.82 7.25M149.13 68.36c5.72 6.48 14.68 11.82 23.07 15.63a39.25 39.25 0 0 0 15.63 3.62M129.11 71.41c2.48 4.57 14.68 13.34 25.74 18.49a101.46 101.46 0 0 0 25.36 7.63M132.73 89.33c5.53 4.77 23.07 12.77 35.27 15.06"/><path class="cls-14" d="M150.27 58.78c3.86 2.14 9 4.14 10.16 8.58s-.72 8.58-1.72 9.15M130.4 65.78c7.29 1.29 13.3 4.29 13.44 8.87a10.71 10.71 0 0 1-2.72 7.43M127 75.36c4.44 1.29 12 5.29 12.16 9.58a11.47 11.47 0 0 1-2 7M141.26 95c.58 1.29 1.58 3.29-.57 5"/></g><circle id="SVGID-4" data-name="SVGID" class="cls-2" cx="140" cy="140" r="129"/><g style="clip-path:url(#clip-path-2)"><path d="M259.41 229c-21.86-19.8-50.73-23.51-63-31.48l-87.77 12.83c.37 13.56-2 28.32 5.37 41 .82 1.24 0 3.31.41 4.55a5.94 5.94 0 0 1 1 1l73 17.56c-6 18.42-22.54 55.81-30 80-5.88 19.16-10.89 78-12.73 101.6l31.56 18.26s37.25-8.52 59.38-31.75c24.81-26.05 36.28-61 45.35-103.09s-.72-90.66-22.57-110.48Z" style="fill:#fcc336"/><path d="M188.48 274.52c-6 18.42-22.54 55.81-30 80-5.88 19.16-10.89 78-12.73 101.6l-60.4-34.93s17-49.63 20.89-63.92 9.08-100.34 9.08-100.34Z" style="fill:#fef2eb"/><path class="cls-18" d="M182.16 148.07c.82 13.19.55 27.49 3.85 36.29a28.4 28.4 0 0 0 10.44 13.19s.83 26.12-1.1 42.61a265 265 0 0 1-6.87 34.36 61.16 61.16 0 0 1-28.31 8c-15.95.27-31.89-4.95-31.89-4.95l-11.55-111.91 11.82-28.86Z"/><path d="M185.73 79.89c-1.1-12.37-9.07-31.89-24.46-37.66s-32.44-6-43.16 1.65a27.83 27.83 0 0 0-11.55 19s-15 5.69-20.8 20.89c-5 13-6.51 30.61.91 47.1s16.32 45.82 8.07 70S64 339.4 64 366.34s25.29 65.43 39.59 66.53 35.18-1.1 36.83-18.15-5.5-21.44-.55-37.93S147 353.15 142 340.5s-8.25-22.54-3.3-37.94 5.5-25.29-.55-37.93-14.29-27.49-10.44-44.54 5.5-26.94 2.75-37.93-1.1-17.6 0-30.79 55.27-71.48 55.27-71.48Z" style="fill:#153745"/><path d="M121.4 63.4a107.85 107.85 0 0 1 33 1.37c17.87 3.58 28.32 11.82 28.32 11.82s11-4.12 15.67 6 .27 21.17-4.68 24.47c0 0 3.3 20.34-1.65 31.06s-11.82 19.8-27.21 21.17S135.7 153 128.55 145s-6.6-9.34-6.6-9.34-11.63 5.77-19-9.9c-5.21-11.12 2.74-19.15 11.54-14.93 0 0-3.3-13.66 2.48-24.93 5.32-10.29 4.43-22.5 4.43-22.5Z" style="fill:#eaa28d"/><path d="M172.94 91.42c.72 1.6.49 2.69-.69 3.22s-2.16 0-2.89-1.6-.49-2.68.7-3.22 2.15 0 2.88 1.6ZM142 105.72c.72 1.59.49 2.68-.7 3.22s-2.15 0-2.88-1.6-.49-2.69.7-3.23 2.12.01 2.88 1.61Z"/><path class="cls-14" d="M182 76.41c5.69 7.15 10.27 23.28 11.73 30.7"/><path class="cls-14" d="M191.87 83.38c0 3.29-.73 13.19-.73 13.19M122 135.7c-4.3-6.69-7-19.52-7.78-24.28M155.22 93.82c.91 2.75 8.06 6.42 11.36 7.33s5.15 2.55 3.89 5.68a33.3 33.3 0 0 1-4.39 7.15"/><g class="cls-21"><path class="cls-22" d="M145.37 134.5c-3.78 2.81-7.8 1.43-11.92-4.11s-4.29-9.79-.51-12.6 7.8-1.43 11.92 4.11 4.29 9.79.51 12.6Z"/></g><g class="cls-21"><path class="cls-22" d="M187.36 119.62c-4.67.58-7.49-2.61-8.34-9.46s1.09-10.63 5.77-11.21 7.49 2.61 8.34 9.46-1.13 10.59-5.77 11.21Z"/></g><path class="cls-23" d="M124.06 101.15c1.83-3.3 6.78-9 17.78-8.79M156 86.12c1.65-2.93 7.33-10.44 18.88-7.33"/><path class="cls-11" d="M156.13 133.77c1.2-3.66 5-8.24 10.72-11.18s13.29-.55 13.29-.55a28.65 28.65 0 0 1-10 7.79c-5.94 2.84-14.01 3.94-14.01 3.94Z"/><path class="cls-14" d="M156.87 133.13a44.2 44.2 0 0 1 11.08-7.6c4.68-2.39 11.37-3.12 11.37-3.12"/><path class="cls-18" d="M29.31 330.05S31 342.43 64.77 347s43.3-4.12 43.3-4.12-3.71-82.47-3.3-108.45.42-51.13 2.06-55.17 8.62-10.63 8.25-22.72.14-18.05 1.1-20.8 2.75-5.09 2.2-6.74-3.71-1.92-3.71-1.92a13.4 13.4 0 0 0-8.52 5.5 54.41 54.41 0 0 0-5 10.17 15.12 15.12 0 0 1-3.3-7.84c-.55-4.81-.82-7.56-.82-7.56L82.51 124s-.42-6.46-.42-10.44-17.45-.28-20.2 6.6-4.13 19.66-3.16 30.84 4.26 16.08 3 23.36-8.25 38.35-17 77.94c-7.62 34.13-15.42 77.75-15.42 77.75Z"/><path class="cls-24" d="M86 126.63c3.71-4.95 14.12-21.17 14.12-21.17l-5.92-4.86-20.45 10.86 3.3 12.37Z"/><path class="cls-18" d="M76.18 127.86c4.13-2.47 13.75-10.44 19.52-10.86s16.22 4 17.73 7.43 1.51 5.91-1.1 7.14-11.82-2.74-11.82-2.74l-14 11.4Z"/><path class="cls-24" d="M67 112.19c4.68-9.48 8.16-18.37 16.31-24.32s18.06-10.27 21.81-9.72 3.3 3.58 2.66 5.68a8.48 8.48 0 0 1-1.47 3s5.87.73 6.51 3.57-1.56 7.15-4.21 8.06-19.71.92-19.71.92Z"/><path class="cls-11" d="M106.28 86.86a30.76 30.76 0 0 0-5.36-.78s.62 4.74 4.61 6.46a35.19 35.19 0 0 0 6.67 2 7 7 0 0 0 .59-4.16c-.64-2.79-6.51-3.52-6.51-3.52ZM96.66 80.22c1.37 2.36 5.24 4.11 8 3.32a20.41 20.41 0 0 0 3.42-1.3c.25-1.8-.15-3.67-3-4.09-1.73-.25-4.81.54-8.42 2.07Z"/><path class="cls-14" d="M100.92 86.08c-6.18-.51-19 2.15-25.15 10.4"/><path class="cls-18" d="M61.89 120.17c3.57-7.15 6.46-12.1 15.8-19.11S94.19 92 100 92.81a14.69 14.69 0 0 1 11.27 7.84c1.65 3.43 5.91 9.76 5 12.78s-7.42 3.3-11.54-.55-6.19-6-6.19-6a44.74 44.74 0 0 1-7.65 6.33c-3.63 2.31-7 4.21-7 4.21s-.42 2.58-1.38 6.58-16.77 6-16.77 6Z"/><path class="cls-11" d="M116.18 113.43c.87-2.73-2.52-8.15-4.4-11.7a7.32 7.32 0 0 0-3.36 7.71 11.6 11.6 0 0 0 2.75 6.28c2.44.15 4.5-.72 5.01-2.29Z"/><path class="cls-14" d="M82.71 123.33c-3.37 2.13-7.15 3.91-9.83 7.49M97.35 131.57c-2.89 3-8.93 6.26-8.93 6.26s6.11 8 7.42 17.8a65.66 65.66 0 0 1-2 26.46"/><path class="cls-14" d="M101.2 142.71c-1.44 5.7-5.25 12.37-4.63 16.08"/><path class="cls-11" d="M114.26 126.56c-.83-3.09-3-4.7-5.24-5.91l-.26-.07c-2.89 1.1-3.68 3.34-2.38 5.4 1.52 2.43 3.07 4.63 5.61 4.77s2.52-3.25 2.27-4.19ZM118.38 129a2.24 2.24 0 0 0-1.14-1.19c-2.71 1.26-6.36 7.61-5.25 11 .82 2.46 2.34 3.09 3.18 3.25a22.76 22.76 0 0 1 1.77-6.62c.96-2.83 1.99-4.83 1.44-6.44Z"/><path class="cls-14" d="M107.11 131.37a19.32 19.32 0 0 0 3.92.41"/><path class="cls-6" d="M220.09 262.43c-11 20.89-26.25 65.29-32.85 82.88s-14.7 55.94-14.7 55.94M207 262.43c-4.95 16.49-3.71 37.93-3.71 37.93"/></g></g></g></svg>