<svg xmlns="http://www.w3.org/2000/svg" id="Layer_1" data-name="Layer 1" viewBox="0 0 280 280"><defs><clipPath id="clip-path"><circle id="SVGID" class="cls-1" cx="140" cy="140" r="129"/></clipPath><style>.cls-1{fill:#047889}.cls-3{fill:#153745}.cls-4{fill:#a5bcc5}.cls-11,.cls-12,.cls-6{fill:none;stroke-linecap:round;stroke-linejoin:round}.cls-6{stroke:#b16333}.cls-12,.cls-6{stroke-width:.86px}.cls-9{fill:#fdece1}.cls-10{fill:#f49b87}.cls-11{stroke:#f09e64;stroke-width:3.01px}.cls-12{stroke:#e89b86}.cls-15{fill:#df6d58}</style></defs><circle id="SVGID-2" data-name="SVGID" class="cls-1" cx="140" cy="140" r="129"/><g style="clip-path:url(#clip-path)"><path class="cls-3" d="M301.63 378.5c-2.75 57.18-13.75 85.22-39.58 100.06a105.58 105.58 0 0 1-51.69 13.75l-73.67-64.88 20.89-145.15 18.14 15.4s35.74-5.5 47.84-24.19c11.36-17.57 15-29.79 17.63-48.53 15.17 6.2 30.36 15.22 39.55 29.69 13.6 21.45 23.64 66.67 20.89 123.85Z"/><path class="cls-4" d="M241.19 225c-2.67 18.74-6.27 31-17.63 48.53-12.1 18.69-47.84 24.19-47.84 24.19l44.26-80c6.62 1.92 13.91 4.28 21.21 7.28Z"/><path d="M103.7 65.11C90.5 62.63 66.59 69.23 57.52 97s0 46.46 4.12 72 0 54.16-7.7 69.55-21.44 26.69-22.26 31.36 16.76 5.77 28.31 4.95 52-22.27 67.9-42.89-2.47-116.55-2.47-116.55Z" style="fill:#fcbf22"/><path class="cls-6" d="M98.2 74.18c-9.07-.27-26.66 14-26.66 44.53s12.92 48.11 7.69 83.3-20.61 54.16-33.23 65.7"/><path class="cls-6" d="M96 89.58c-8.79 7.14-14.29 24.42-4.12 58.82s9.62 56.63 3.57 73.95-22.81 41.24-27.21 45.09M110.57 144.56a115.7 115.7 0 0 1 6.05 54.7c-2.75 21.44-13.74 41.79-13.74 41.79"/><path class="cls-3" d="M168.58 447.77C153.73 488.46 127.34 505.5 107 505s-43.43-7.14-59.93-33S19.58 383.45 30 326.81c7.71-41.78 30.68-60.52 49.16-72.55 3.56 16 13.14 37.76 36.33 42.59 15.92 3.31 9.51-21.54 1.53-42.58L173 283.93s10.42 123.16-4.42 163.84Z"/><path class="cls-4" d="M115.52 296.85c-23.19-4.85-32.77-26.59-36.33-42.59 6.56-4.27 12.55-7.7 17.09-11l20.77 11c7.95 21.05 14.39 45.9-1.53 42.59Z"/><path d="M173 64.38c.68-5.36-9.53-17.23-21.26-20-10.67-2.5-28.41-5.32-45.41 11.64-15.72 15.67-14.16 33.26-12.23 46a59.11 59.11 0 0 0 8.25 22.13l19.93 9.9Z" style="fill:#fdc84b"/><path d="M122.67 144.56c1.37 9.62 6.32 42.33 1.1 58s-14.85 31.34-27.49 40.69c0 0 5 24.46 9.07 36.83s5 14.85 10.17 16.77 41.79 5.77 63 0 27.77-15.39 33.27-30.51 8.21-48.66 8.21-48.66-12.37-2.2-21.71-10.45-13.2-21.44-14.3-34.36a210.57 210.57 0 0 0-3.57-24.19l-47-12.37Z" style="fill:#e9dac9"/><path class="cls-9" d="M140.54 59.06c-10 4.39-21.45 10.45-25.29 30.79a96.87 96.87 0 0 0 0 34.64s-8-6.6-14-5.5-13.2 9.35-6.88 21.17 22 11.27 27.22 8.52l4.12-2.75s17.05 17.59 37.39 14.3 30.24-16.22 31.61-34.64-4.4-39-13.19-51.41-16.22-16.77-20.07-17.87-16.51.83-20.91 2.75Z"/><path class="cls-10" d="M144 138.92c-3.58 1.94-6.85.27-9.7-5s-2.48-8.9 1.1-10.84 6.85-.27 9.7 5 2.49 8.92-1.1 10.84Z"/><ellipse class="cls-10" cx="186.45" cy="111.49" rx="6.14" ry="9" transform="rotate(-7.02 186.349 111.417)"/><path d="M141.86 108.57c.87 1.88.6 3.17-.79 3.82s-2.55 0-3.42-1.87-.61-3.17.78-3.81 2.57-.02 3.43 1.86ZM175.87 95.37c.87 1.88.6 3.17-.79 3.81s-2.55 0-3.42-1.86-.61-3.17.78-3.81 2.56-.02 3.43 1.86Z"/><path class="cls-11" d="M122.94 102.5c1.52-3.85 4-11 17.05-11.55M158.68 84.9c2.61-4 6-7.83 10.31-9.07a12.22 12.22 0 0 1 7.7.27"/><path class="cls-12" d="M155.79 93.15c1.24 2.06 5.36 6.46 8.66 8.11s6.88 2.34 7.15 3.71-4.67 8-4.67 8M115.25 124.49a67.63 67.63 0 0 0 10.44 21.44M101 129.85c3.44 2.88 15.12 9.76 15.12 9.76"/><path d="M155.79 127.37s7-2.47 13.06-5.08a67.33 67.33 0 0 0 9.21-4.67 16.83 16.83 0 0 1-8.38 9.89c-6.74 3.49-13.89-.14-13.89-.14Z" style="fill:#e7937d"/><path class="cls-9" d="M90.23 427.43s17.13-50 25.84-74.22c8.8-24.47 19.79-58.28 24.19-78.63s6.33-56.63 5.5-69.55-1.1-34.63-1.65-41.51 5.77-10.17 11-5.22 5.77 17.32 6.87 28.87a199.4 199.4 0 0 1 .82 21.71s8.25-5.5 17.87-5.5 18.42 6.33 22 11.55 1.37 14.3 1.37 14.3 1.37 9.89-1.37 18.14-4.95 10.45-4.95 10.45 2.2 19.79-6.33 36.28c0 0-2.47 41-7.69 76.15-5.31 35.78-11.55 67.63-15.12 77.52 0 0-12.1 13.47-44 3s-34.35-23.34-34.35-23.34Z"/><path d="M248 279.26c-10.17 30.51-19 69-22.54 89.89s-4.67 37.39-4.67 37.39" style="stroke:#010101;stroke-width:.86px;fill:none;stroke-linecap:round;stroke-linejoin:round"/><path class="cls-15" d="M151.44 156.15c-4.09-1.09-7.75 2.08-7.33 7.37.19 2.42.35 6.68.51 11.74a15.34 15.34 0 0 0 6.36-2.94c2.75-2.46 1.73-9.71.46-16.17Z"/><path class="cls-12" d="M162.8 208.88a28.63 28.63 0 0 0-6 5.59M204.13 230.42a17.61 17.61 0 0 0-13.19-13c-7.7-1.64-18.88 1.1-26.76 6.42"/><path class="cls-15" d="M197.72 257.82s2.2-2.2 4.95-10.45a30.31 30.31 0 0 0 .86-3.24c-5.66-1.77-9.52 1.24-12.23 6.9a61.47 61.47 0 0 0-2.93 6.51s2.57 2.29 5.5 1.74a17.93 17.93 0 0 0 3.87-1.27 1.42 1.42 0 0 1-.02-.19Z"/><path class="cls-12" d="M197.72 257.82c-2.39 1.92-9 2.65-11-3s2.75-18.51 2.75-18.51-4 4.95-13.56 6.42c0 0 7.33 10.44 7.7 22.9s-6.24 22.73-6.24 22.73"/></g></svg>