<svg xmlns="http://www.w3.org/2000/svg" viewBox="0 0 280 280"><defs><clipPath id="clip-path"><circle id="SVGID" class="cls-1" cx="140" cy="140" r="129"/></clipPath><style>.cls-1{fill:#e9dac9}.cls-4{fill:#364a57}.cls-5{fill:#eaa28d}.cls-6{fill:#153745}.cls-7{fill:#df6d58}.cls-11,.cls-12,.cls-15{fill:none;stroke-linecap:round;stroke-linejoin:round}.cls-11{stroke:#c5513d}.cls-11,.cls-15{stroke-width:.7px}.cls-12,.cls-15{stroke:#010101}.cls-12{stroke-width:2.09px}.cls-18{fill:#bab891}</style></defs><g style="isolation:isolate"><g id="Layer_1" data-name="Layer 1"><circle id="SVGID-2" data-name="SVGID" class="cls-1" cx="140" cy="140" r="129"/><g style="clip-path:url(#clip-path)"><path class="cls-4" d="M182.26 205.88h-.16L112 199l-12.56 53.32s14.83 5.4 30.63 5.21c15-.19 30.24-6.13 31.68-6.7 4.61-10.29 10.31-19.75 14.32-30.35 1.93-4.91 4.11-9.72 6.19-14.6Z"/><path class="cls-5" d="M43.08 92.59c-2.78 6.9-4.15 12.72-.1 21.58s7.13 11 6.74 16-6 43.16-5.2 62.24 12.72 34.68 22.74 43.16 32.18 16.76 32.18 16.76 11.75-8.67 13.87-27.55S112 199 112 199s-15.61-2.89-20.81-3.08c0 0-2.12-17.92-2.7-34.88s-2.12-39.88-2.31-46.24 2.7-21.39 2.7-21.39L77.34 63.88s-7.83-4.37-12.59-1.29a14.19 14.19 0 0 0-5.91 7.33S55.5 71.78 51.75 77a68.81 68.81 0 0 0-8.67 15.59Z"/><path class="cls-6" d="M161.87 233.83c-8.1 11.94-23.9 17.34-22.74 29.28.92 9.49 10.4 25.05 10.4 25.05l.77 72.45s21 10.41 44.71 9.25a134.92 134.92 0 0 0 42.39-9.25s2.73-23.56 5.2-47a432.4 432.4 0 0 1 6.94-42.78Z"/><path class="cls-7" d="M213.31 96.25s-9.34-5.19-19 0a18.25 18.25 0 0 0-9.82 16.47c0 4.86-1 9-6.36 11.28s-13.39 6.16-14.94 12.71-1.36 13.4-5.78 15.61c-6.93 3.47-11.94 7.9-11.56 18.5.36 9.86 43.16 56.26 43.16 56.26s65.13 33.14 70.53 34.49 15.6-1 22-5.39 13.68-1.93 19.85-.77 15.41-2.51 18.5-11.18 9.63-4.82 14.64-10.79-.19-12.52 1.35-18.3 9.3-7.17 8.09-14.65c-1-6-5.78-7.32-11.75-10.4-6.5-3.36-2.31-9.45-2.31-14.84s-6.75-9.06-11.18-9.44-5.2-6.94-3.08-11a9.05 9.05 0 0 0-6.75-12.91c-7.51-1.55-9.82-2.32-10.79-6s2.51-8.09 1.16-13.29-8.67-6.55-13.68-7.13.58-6.17-3.66-10.41-10.21.2-13.3-1.92-1.54-7.71-7.13-12.14-11.19-3.01-17.5-.73-9.15-6.17-19.56-3.86a15.43 15.43 0 0 0-11.13 9.83Z"/><path d="M232.25 87.84c.72.23.59-.09.68.07s.47-.11.86-.53a15.88 15.88 0 0 0-2.7-1 1.83 1.83 0 0 0 1.16 1.46ZM221.29 93.66c1.25.5 1 0 1.28.14s.26-.26.37 0 .21-.21.32 0 1-.5.82-.86c-.05-.1 0-.18.07-.17s-.13-.4.12-.38c.43 0-.41-2.8-.77-3s-.24-.11 0-.14.26-.15-.33-.5-.7-.29-.66 0c0 .1 0 .09-.11 0-.32-.53-1.36.5-1.61.64-.57.43-.66.56-.66 1 0 .73-.21.67-.2.46s0-.13-.09 0 .18.11-.05.55.15 1.72 1.5 2.26Zm1.49-4.72c0 .06-.28.46-.27.23s.36-.28.27-.23ZM225 102.24c1.87 3.42 4.5.12 4-.17-.07 0-.07-.09 0-.12a2.35 2.35 0 0 0-.13-1.26s0-.1 0-.14 0-.62-.17-.63-.4-.36-.09-.19 0-.33-.36-.48-.32-.12 0-.16.26 0 0-.15c-.46-.19-.65-.93-1.5-1-.68 0-.83.78-.73.24s-.95.23-.89.35a3.88 3.88 0 0 0-.13 3.71Zm1.17-3.72c.18-.12.23 0 .19 0s-.51.2-.18 0ZM238.34 97c.1-.16 0 .26.52.14a3.86 3.86 0 0 0 1.51-1.74 4.81 4.81 0 0 0-.72-3.74 2.84 2.84 0 0 0-.84-.41c-2.59-.91-3.73 3.5-1.79 5.5.29.25 1.18.45 1.32.25ZM249.35 91.2c.15-.08.17 0 .09.09s0 .21.2.25c.63.13 1.11-.44.87 0s1-.33 1.41-.57.56-1.79.3-2.81a22.33 22.33 0 0 0-4 .72c.11 1.41.93 2.43 1.13 2.32ZM230.39 108.93c.07-.12.08-.05 0 .17-.14.56.57 1.11.35 1.09s.19.66.4.69.11.05 0 .11c-.27.14 1 1.11 1.5 1.11s1.16-.35 1.13-.56.08-.24.22-.31.57-1.06.39-1.17.25-.38.06-.49a.13.13 0 0 1 0-.21c.16-.16-.75-2.13-.93-2s-.14 0-.16-.16-.07-.17-.2 0-.17.12-.17 0-.57-.41-.67-.23-.1.09-.13 0-1 .32-1 .48a1.51 1.51 0 0 0-.92 1.23c.03.26.05.32.13.25ZM253.47 99.43c.13-.06.14 0 .05.13-.23.42.31 0 .45.27 0 .07 0 .11-.1.11-.44 0 0 .23.62.34.87.17 2.22-.12 2.05-.43s.46-.15.3-.24 0-.55.15-.51c.42.13-.07-3.18-1.85-3.75a1.83 1.83 0 0 0-2.39 1.89c0 .78.6 1.77.57 2.12 0 .08.07.12.15.07ZM241.66 104.78c-.14.08.23.84.38.76s.24.81.41.52.12.14.71.3 1.84-.42 1.91-.88a.56.56 0 0 1 .27-.3c.5-.32-.11-.26.19-1s-.12-3.13-.77-3.06c-.38 0-.22-.7-.52-.37-.09.1-.18.13-.21.06-.21-.66-.35 0-.48-.28s-.56.36-.74.19-.09.08-.13.09c0 .45-.88.31-1.27 1.62a4.4 4.4 0 0 0 .24 2.18c.08.08.08.13.01.17ZM235.83 119.47c.21-.36 0 1 .86 1.17.43.06 0 .3 1 .31 2.77 0 1.28-5 .73-4.69-.07 0-.15-.07-.18-.23-.07-.36-.34-.25-.4.17s-.21-.17-.17-.28c.18-.6-.71-.34-.56 0 0 .09 0 .09-.23 0s-.31-.13-.46.25-.15.32-.11.08 0-.3-.12-.22-.2.42-.22.43c-.06.45-.35.25-.21.5s-.17.59 0 .87a.8.8 0 0 1 0 .52c-.2.34-.08 1.37.07 1.12ZM246 112.21c.19.11.26.89.09.88s-.07.86.15 1.24c.48.83.93 1.32 1.06 1.17s.31 0 .15.14.21.41.26.27.16 0 .3 0 .28.1.4-.17c.18-.42-.06.1.42.1s.51-.06.33-.16 0-.1.13-.13c.77-.18 1.39-4.21-.52-5.18-1.26-.64-1.21 0-1.68 0-.18 0-.25.3-.28.31-.16.53-.46-.07-.49.28s.34.35.06.37 0 .84-.35.82c-.16-.02-.17.01-.03.06ZM256.76 105.52c-1 1.68.39 4 .5 3.81s.11 0 .15.19.09.3.24.13.17-.16.11.07c-.14.64 2.08.66 2.48 0 .11-.18.15-.2.15-.06s.07.15.18.09c.29-.16 0-.37.21-.36s.05-.26.42-.46.14-.58.3-.57.48-.64.37-.84a.19.19 0 0 1 0-.25c.2-.1-.41-.56-.17-.5.58.16-.75-2.21-1.06-2-.06 0-.15 0-.2-.14a.42.42 0 0 0-.44-.1c-.6.15-.59-.51-1-.15-.14.17-1.67.15-2.24 1.14ZM255 122.71c0-.18-.09-.18-.28 0s-.22.19-.11-.06c.29-.6 0-4.59-3.08-2.93-.52.41-.6.59-.26.63s.21 0 0 .08-.56.79-.34 1c0 0-.64 3.29 1.2 3.89.72.23.6-.09.68.07.24.44 2.21-2 1.77-2.2-.16-.14.48-.12.42-.48ZM273.31 113.67c.09-.11.15-.09.17.08s0-.09.62.07a1.38 1.38 0 0 0 .78-.06c.19-.1.35-.12.34 0s.86-.38 1.22-.81.83-1.76.66-2a.14.14 0 0 1 0-.23c.19-.1.11-1-.1-1.15s.2-.38-.19-.54-.46-.73-1.5-1c-.7-.16-1 .45-1 .17s-.87.23-1 .52-.33.07-.27.44-.28.22-.37.94.2 4.08.64 3.57ZM261.4 115.4c0 .17 0 .17.11 0 .26-.29.31.26 0 .29s.22.34 0 .4c-.36.13-.39.27-.13.69s.6 1.77 1.1 2c.2.09.2.11 0 .1s-.05.31.51.94c.23.26 1.56.63 1.65.46s.1 0 .11.09c.09.69 1.6-.28 1.16-.54-.08 0 0-.08.25-.06.61.06.65-.57.57-.52s-.06-.09 0-.27-.87-3.87-3.64-4.32c-1.35-.23-1 .26-1.08.29.13.47-.47.05-.61.45ZM240 127.85c0 .73-.21.67-.2.46s0-.13-.09 0c-.15.26.18.11 0 .55s.17 1.73 1.53 2.27 1 0 1.27.14.26-.26.37-.05.21-.21.32 0 1-.5.82-.86c-.05-.1 0-.18.07-.17.25 0-.13-.4.12-.38.43 0-.4-2.8-.77-3s-.23-.11 0-.14.26-.16-.33-.5-.71-.29-.67 0c0 .1 0 .09-.11 0-.32-.53-1.36.5-1.61.64-.62.44-.72.57-.72 1.04Zm2.68-1.47c0 .07-.28.47-.27.24s.37-.28.28-.24ZM280.22 121.48c.13-.33.21.28-.06.31s.17.49 1.24.33c2.65-.42 1.9-5.87-1.1-5.42-2.65.39-.66 6.22-.08 4.78ZM245.09 136a3.88 3.88 0 0 0-.17 3.68c1.87 3.42 4.51.12 4-.17-.07 0-.07-.09 0-.12a2.35 2.35 0 0 0-.13-1.26s0-.1 0-.14 0-.62-.17-.63-.4-.36-.09-.19 0-.33-.36-.48-.32-.13 0-.16.26 0 0-.15c-.45-.19-.64-.93-1.5-1-.68 0-.82.78-.73.23s-.94.28-.85.39Zm1 0c.19-.12.23-.05.2 0s-.53.17-.2 0ZM260.28 132.84a4.84 4.84 0 0 0-.72-3.75 3 3 0 0 0-.84-.4c-2.59-.91-3.73 3.5-1.79 5.5.29.29 1.18.46 1.32.25s0 .26.53.14a3.9 3.9 0 0 0 1.5-1.74ZM269.26 128.65c.15-.08.17-.06.09.09s0 .21.2.25c.64.13 1.11-.44.87 0s1-.32 1.41-.57c.81-.52.47-3.75-.4-3.82-.12 0-.14-.06-.05-.16s-2.5-1.46-3.09.49.71 3.86.97 3.72ZM254.39 147c-.07-.05-.07-.13 0-.21s-.76-2.13-.94-2-.14 0-.15-.16-.08-.17-.21 0-.17.13-.16 0-.57-.41-.68-.23-.1.09-.13 0-1 .32-1 .48a1.53 1.53 0 0 0-.92 1.23c0 .26 0 .37.06.25s.08 0 0 .18c-.14.56.57 1.11.35 1.09s.19.66.4.69.11 0 0 .11c-.27.14 1 1.11 1.5 1.11s1.16-.35 1.13-.56.08-.24.22-.31.58-1.06.39-1.17.33-.38.14-.5ZM273.39 136.88c.12-.06.13 0 0 .13-.23.42.31 0 .46.27 0 .07 0 .11-.11.11-.43 0 0 .23.62.34.87.17 2.22-.12 2.06-.43s.45-.15.3-.24 0-.56.14-.51c.42.12-.07-3.18-1.85-3.75a1.82 1.82 0 0 0-2.38 1.89c0 .78.59 1.77.56 2.12.04.08.11.12.2.07ZM264.68 138.6c-.39.05-.22-.71-.53-.37-.09.1-.18.13-.2.06-.21-.67-.36 0-.48-.28s-.57.36-.75.19-.09.08-.12.09c0 .45-.89.31-1.27 1.62a4.3 4.3 0 0 0 .23 2.18c.08 0 .08.1 0 .14s.22.84.38.76.23.81.4.52.12.14.71.3 1.84-.42 1.91-.88a.6.6 0 0 1 .27-.3c.5-.32-.11-.26.19-1s-.1-3.1-.74-3.03ZM258.33 153.7c-.07 0-.15-.06-.19-.22-.06-.36-.34-.25-.4.17s-.2-.17-.17-.28c.18-.6-.71-.34-.56 0 0 .09-.05.09-.23 0s-.31-.13-.46.25-.15.32-.1.08 0-.3-.13-.22-.19.42-.22.43c-.06.45-.34.25-.21.5s-.17.59 0 .86a.82.82 0 0 1 0 .53c-.14.37 0 1.4.13 1.14s0 1.05.87 1.18c.42.06 0 .3 1 .31 2.7-.02 1.21-5.02.67-4.73ZM266.18 148.39c0 .26.34.35.07.37s-.05.84-.35.82c-.12 0-.13 0 0 .08s.26.89.09.88-.07.86.15 1.24c.49.83.93 1.32 1.07 1.17s.3.05.14.14.22.41.26.27.16 0 .3 0 .28.1.4-.17c.18-.42-.06.1.42.1s.51-.06.34-.16 0-.1.13-.13c.76-.18 1.38-4.21-.53-5.18-1.26-.64-1.21 0-1.67 0-.19 0-.25.3-.28.31-.21.51-.51-.13-.54.26ZM281.65 144.23c.58.16-.75-2.21-1.06-2 0 0-.15 0-.2-.14s-.26-.15-.44-.1c-.6.15-.58-.51-1-.15-.21.2-1.75.18-2.32 1.17-1 1.68.39 4 .5 3.81s.11 0 .15.19.1.3.24.13.17-.16.12.07c-.15.64 2.07.66 2.47 0 .12-.18.16-.2.15-.06s.07.15.18.09c.29-.16 0-.37.21-.36s.05-.26.42-.46.15-.58.31-.57.47-.64.36-.84a.19.19 0 0 1 0-.25c.26-.13-.32-.59-.09-.53ZM274.93 160.16c0-.18-.09-.18-.27 0s-.23.19-.12-.06c.29-.6 0-4.59-3.08-2.93-.52.41-.6.59-.26.63s.22 0 0 .08-.56.79-.34 1c0 0-.64 3.29 1.21 3.89.71.23.59-.09.67.07.24.44 2.22-1.95 1.77-2.2-.18-.14.49-.12.42-.48ZM263.9 167.78c0-.1 0-.18.07-.17.25 0-.13-.4.12-.38.43 0-.4-2.8-.77-2.95s-.23-.11 0-.14.26-.16-.33-.5-.71-.29-.67 0c0 .1 0 .09-.11 0-.32-.53-1.36.5-1.61.64-.57.43-.65.56-.66 1 0 .73-.21.67-.2.46s0-.13-.08 0 .17.11-.05.55.18 1.73 1.53 2.27 1 0 1.27.14.26-.26.38 0 .21-.21.31 0 1-.56.8-.92Zm-1.29-3.95c0 .07-.29.47-.27.24s.35-.28.27-.24ZM268.85 177c-.06 0-.06-.09 0-.12a2.35 2.35 0 0 0-.13-1.26v-.14c0-.04 0-.62-.18-.63s-.4-.36-.08-.19 0-.33-.37-.48-.32-.13 0-.16.25-.05 0-.15c-.45-.19-.64-.93-1.49-1-.69 0-.83.78-.73.23s-1 .24-.9.36a3.91 3.91 0 0 0-.17 3.68c1.9 3.42 4.54.12 4.05-.14Zm-2.65-3.58c0 .15-.53.22-.2 0s.23-.05.2-.03ZM280.2 170.29a4.9 4.9 0 0 0-.73-3.75 2.77 2.77 0 0 0-.84-.4c-2.59-.91-3.72 3.5-1.78 5.5.28.29 1.18.46 1.31.25s0 .26.53.14a3.92 3.92 0 0 0 1.51-1.74ZM274.3 184.46c-.07 0-.07-.13 0-.2s-.75-2.13-.94-2-.14 0-.15-.16-.08-.17-.21 0-.17.13-.16 0-.57-.41-.68-.23-.1.09-.13 0-.94.32-.95.48a1.49 1.49 0 0 0-.92 1.23v.25c0-.12.09 0 0 .18-.14.56.57 1.11.36 1.09s.19.66.39.69.11.05 0 .1c-.26.15 1 1.12 1.51 1.12s1.16-.35 1.12-.56a.39.39 0 0 1 .22-.31c.28-.15.58-1.06.39-1.17s.34-.4.15-.51ZM278.24 191.15c-.07 0-.15-.06-.18-.22-.07-.36-.35-.25-.41.17s-.2-.17-.17-.28c.19-.6-.71-.34-.56 0 .05.09-.05.09-.23 0s-.31-.13-.46.25-.14.32-.1.08 0-.3-.12-.22-.2.42-.22.43c-.07.45-.35.25-.22.5s-.16.59 0 .86a.82.82 0 0 1 0 .53c-.14.37 0 1.4.13 1.14s0 1 .87 1.18c.42.06 0 .3 1 .31 2.7-.02 1.22-5.02.67-4.73ZM284 204.67c.44 0-.4-2.79-.76-2.94s-.24-.11 0-.14.26-.16-.33-.5-.7-.29-.67 0c0 .1 0 .09-.1 0-.32-.53-1.36.5-1.62.64-.57.43-.65.56-.66 1 0 .73-.21.67-.19.46s0-.13-.09 0c-.15.26.18.11-.05.55s.18 1.73 1.53 2.27 1 0 1.27.14.27-.26.38-.05.21-.21.31 0 1-.5.83-.86c-.06-.1 0-.18.06-.17.22 0-.16-.41.09-.4Zm-1.48-3.39c0 .07-.29.47-.27.24s.35-.28.27-.24ZM196.43 95.62c.12-.18.16-.2.15-.06s.07.15.18.09c.29-.16 0-.37.21-.36s.12-.14.23-.3a18.92 18.92 0 0 0-2.53 1.09c.65.07 1.53-.08 1.76-.46ZM188.36 111.18c.71.23.59-.09.67.07.24.44 2.22-2 1.77-2.2-.19-.11.45-.09.41-.45 0-.18-.09-.18-.27 0s-.23.19-.12-.06c.29-.6 0-4.59-3.08-2.93-.52.41-.6.59-.26.63s.22 0 0 .08-.56.79-.34 1c.04-.01-.63 3.26 1.22 3.86ZM209.5 99.56c.1-.11.15-.09.17.08s.05-.09.62.07a1.36 1.36 0 0 0 .78-.06c.19-.1.35-.12.34 0s.86-.38 1.23-.81.82-1.76.65-2a.15.15 0 0 1 0-.23c.11-.06.13-.38.09-.67l-.11.3a19.59 19.59 0 0 0-3.74-1.45c-.12.19-.26 0-.21.31s-.28.21-.37.93.11 4.04.55 3.53ZM198.71 104.69c.2.09.2.11 0 .11s0 .3.51.93c.23.26 1.56.63 1.66.46s.09 0 .11.09c.08.69 1.59-.28 1.16-.54-.09 0 0-.08.24-.06.61.06.66-.57.57-.52s-.06-.09 0-.27-.88-3.87-3.65-4.32c-1.35-.23-1 .26-1.08.29.05.45-.55 0-.69.44 0 .16 0 .16.11 0s.31.26 0 .29.22.34 0 .4c-.36.13-.39.27-.13.69s.69 1.79 1.19 2.01ZM216.41 107.37c.13-.33.21.28 0 .31s.16.49 1.23.33c2.66-.42 1.9-5.87-1.1-5.42-2.7.41-.71 6.22-.13 4.78ZM185.13 125.41c-.06 0-.06-.09 0-.12A2.35 2.35 0 0 0 185 124s0-.1.05-.14 0-.62-.18-.63-.4-.36-.08-.19 0-.33-.37-.48-.32-.12 0-.16.26-.05 0-.15c-.45-.19-.64-.93-1.5-1-.68 0-.82.78-.73.24 0-.17-.08-.19-.23-.14a10.42 10.42 0 0 1-.75.73 3.47 3.47 0 0 0-.08 3.44c1.87 3.48 4.49.18 4-.11Zm-2.85-3.55c.19-.12.23 0 .2 0s-.48.2-.2 0ZM194.44 120.33c.11-.16 0 .26.53.14a3.92 3.92 0 0 0 1.51-1.74 4.87 4.87 0 0 0-.73-3.74 2.7 2.7 0 0 0-.84-.41c-2.59-.91-3.72 3.5-1.79 5.5.29.29 1.19.46 1.32.25ZM205.45 114.54c.15-.08.17-.05.1.09s0 .21.19.25c.64.13 1.11-.44.87 0s1-.32 1.41-.57c.81-.52.47-3.75-.4-3.82-.12 0-.14-.06-.05-.16s-2.5-1.46-3.09.49.71 3.86.97 3.72ZM219.83 115.46c-.23 0-.15.52 0 .29s.07 0 .05.23c-.12 1 1.57 1.52 2.54.79a3 3 0 0 0 1-2.49c-.06 0-.06-.23 0-.45.17-.65-.23-1-.2-1.4 0-.13 0-.15-.08-.06s-.51-.28-.32-.27.11 0 .07-.13-.33.08-.32-.12c0-.36-1.51-.3-1.11 0 .18.11.31-.35.29 0s-.6-.07-.88.08c0 .14-.59.5-.85.87-.69 1-.33 2.13-.46 2.27s.56.4.27.39ZM186.49 132.27c.07-.12.08-.05 0 .17-.14.56.57 1.11.36 1.09s.19.66.39.69.11.05 0 .11c-.27.14 1 1.11 1.51 1.11s1.16-.35 1.12-.56a.39.39 0 0 1 .22-.31c.28-.15.58-1.06.39-1.17s.25-.38.06-.49-.07-.13 0-.21-.75-2.13-.94-2-.14 0-.15-.16-.08-.17-.21 0-.17.12-.16 0-.57-.41-.68-.23-.1.09-.13 0-.94.32-1 .48a1.51 1.51 0 0 0-.91 1.23c.04.25.06.36.13.25ZM209.58 122.77c.12-.06.13 0 0 .13-.23.42.31 0 .46.27 0 .07 0 .11-.11.11-.43 0 0 .23.62.34.87.17 2.22-.12 2.06-.43s.45-.15.3-.24 0-.56.15-.51c.42.13-.08-3.18-1.86-3.75a1.82 1.82 0 0 0-2.38 1.89 19 19 0 0 0 .57 2.12c.03.08.1.12.19.07ZM200.87 124.49c-.39.05-.22-.7-.53-.37-.09.1-.18.13-.2.06-.21-.66-.36-.05-.48-.28s-.57.36-.74.19-.1.08-.13.09c0 .45-.89.31-1.27 1.62a4.3 4.3 0 0 0 .23 2.18c.08 0 .09.1 0 .14s.22.84.38.76.23.81.4.52.12.14.72.3 1.83-.42 1.9-.88a.6.6 0 0 1 .27-.3c.51-.32-.11-.26.2-1s-.11-3.1-.75-3.03ZM226.89 120.8c-.29-.16-.32.35-.77 0s-.73.28-.71 0-.65.34-.68.36c-.77.89-1.06.95-1 2.27.11 2.21 1.34 2.2.87 2.17-.27 0-.11.28.06.19s.25.44.66.37.55.26.74.16.06-.12 0-.18-.12-.09.09 0 1.41-.34 1.32-.51 0-.12.1-.12 0-.46.25-.44 0-.75.21-.84-.13.08.09-.92A2.27 2.27 0 0 0 227 121c-.23-.07-.32-.12-.2-.12s.2-.01.09-.08ZM191.93 142.81c.21-.36 0 1 .87 1.17.42.06 0 .3 1 .31 2.77 0 1.29-5 .74-4.7-.07 0-.15-.06-.18-.22-.07-.36-.35-.25-.41.17s-.2-.17-.17-.28c.19-.6-.71-.34-.56 0 .05.09 0 .09-.23 0s-.31-.13-.46.25-.14.32-.1.08 0-.3-.12-.22-.2.42-.22.43c-.07.45-.35.25-.22.5s-.16.59 0 .87a.8.8 0 0 1 0 .52c-.21.31-.09 1.37.06 1.12ZM202.38 134.28c0 .26.33.35.06.37s-.05.84-.35.82c-.12 0-.13 0 0 .08s.26.89.08.88-.07.86.15 1.24c.49.83.93 1.32 1.07 1.17s.3 0 .14.14.22.41.26.27.16 0 .3 0 .29.1.4-.17-.06.1.42.1.51-.06.34-.16 0-.1.13-.13c.76-.18 1.38-4.21-.53-5.18-1.26-.64-1.21 0-1.67 0-.18 0-.25.3-.28.31-.19.51-.5-.09-.52.26ZM217.84 130.12c.59.16-.75-2.21-1.06-2-.05 0-.15 0-.2-.14s-.25-.15-.44-.1c-.59.15-.58-.51-1-.15-.21.2-1.75.18-2.32 1.17-1 1.68.39 4 .5 3.81s.11 0 .15.19.1.3.24.13.17-.16.12.07c-.15.64 2.08.66 2.48 0 .11-.18.15-.2.14-.06s.07.15.18.09c.29-.16 0-.37.21-.36s.05-.26.42-.46.15-.58.31-.57.47-.64.37-.84a.18.18 0 0 1 0-.25c.28-.13-.33-.59-.1-.53ZM211.12 146.05c0-.18-.09-.18-.27 0s-.23.19-.11-.06c.28-.6 0-4.59-3.09-2.93-.52.41-.59.59-.26.63s.22 0 0 .08-.56.79-.33 1c0 0-.65 3.29 1.2 3.89.71.23.59-.09.68.07.23.44 2.21-1.95 1.76-2.2-.18-.14.46-.12.42-.48ZM228.9 133.49c-.07.65.07 4 .51 3.52.1-.11.15-.09.17.08s.06-.09.62.07a1.36 1.36 0 0 0 .78-.06c.19-.1.35-.12.35 0s.85-.38 1.22-.81.82-1.76.65-1.95a.15.15 0 0 1 0-.23c.19-.1.12-1-.1-1.15s.2-.38-.19-.54-.46-.73-1.5-1c-.7-.16-1 .45-.95.17s-.87.23-.95.52-.33.07-.28.44-.23.22-.33.94ZM218.19 138.31c.06.45-.55 0-.68.43 0 .17 0 .17.11 0 .25-.29.3.26 0 .29s.22.33 0 .4c-.36.13-.39.27-.13.69s.61 1.77 1.11 2c.19.09.19.11 0 .1s0 .31.51.94c.23.26 1.56.63 1.66.46s.09 0 .11.09c.08.69 1.59-.28 1.16-.54-.09-.05 0-.08.24-.06.61.06.66-.57.57-.52s0-.09 0-.27-.88-3.87-3.65-4.32c-1.28-.21-.95.28-1.01.31ZM199.51 150.17c-.23-.1-.23-.11 0-.14s.26-.16-.33-.5-.7-.29-.67 0c0 .1 0 .09-.1 0-.32-.53-1.36.5-1.62.64-.57.43-.65.56-.66 1 0 .73-.21.67-.19.46s0-.13-.09 0c-.15.26.18.11-.05.55s.18 1.73 1.53 2.27 1 0 1.27.14.26-.26.38-.05.21-.21.31 0 1-.5.83-.86c-.06-.1 0-.18.06-.17.25 0-.13-.4.12-.38.42.01-.42-2.81-.79-2.96Zm-.71-.45c0 .07-.29.47-.27.24s.35-.28.27-.24ZM236.32 144.82c.13-.33.22.28 0 .31s.16.49 1.24.33c2.65-.42 1.89-5.87-1.11-5.42-2.7.39-.7 6.22-.13 4.78ZM205.05 162.86c-.07 0-.07-.09 0-.12a2.34 2.34 0 0 0-.12-1.26s0-.1 0-.14 0-.62-.18-.63-.39-.36-.08-.19 0-.33-.37-.48-.31-.13 0-.16.26 0 0-.15c-.45-.19-.64-.93-1.49-1-.69 0-.83.78-.73.23s-1 .24-.9.36A3.91 3.91 0 0 0 201 163c1.9 3.45 4.53.15 4.05-.14Zm-2.66-3.58c0 .15-.53.23-.19 0 .18-.09.22-.02.19 0ZM216.39 156.18a4.9 4.9 0 0 0-.73-3.75 2.8 2.8 0 0 0-.83-.4c-2.59-.91-3.73 3.5-1.79 5.5.28.29 1.18.46 1.32.25s0 .26.52.14a3.92 3.92 0 0 0 1.51-1.74ZM227.93 151.76c.82-.52.48-3.75-.4-3.82-.12 0-.14-.06-.05-.16s-2.49-1.46-3.09.49.71 3.86 1 3.72.18-.06.1.09 0 .21.2.25c.63.13 1.1-.44.86 0s1-.33 1.38-.57ZM243.34 151.73c-.06 0-.06-.23 0-.45.17-.65-.22-1-.2-1.4 0-.13 0-.15-.07-.06s-.52-.29-.33-.27.12-.05.08-.13-.34.08-.33-.12c0-.36-1.51-.3-1.11-.06.18.12.31-.34.29 0s-.6-.07-.87.08c-.05.14-.6.5-.85.87-.7 1-.34 2.13-.47 2.27s.55.48.26.47-.15.52 0 .29.07 0 .05.23c-.12 1 1.57 1.52 2.54.79a3 3 0 0 0 1.01-2.51ZM210.5 170.35c-.08 0-.08-.12 0-.2s-.75-2.13-.93-2-.14 0-.16-.16-.08-.17-.21 0-.17.13-.16 0-.57-.41-.68-.23-.09.09-.13 0-.94.32-.95.48a1.51 1.51 0 0 0-.92 1.23c0 .26 0 .37.05.25s.09 0 0 .18c-.14.56.58 1.11.36 1.09s.19.66.39.69.11.05 0 .1c-.26.15 1 1.12 1.51 1.12s1.16-.35 1.12-.56a.39.39 0 0 1 .21-.34c.28-.15.58-1.06.39-1.17s.29-.37.11-.48ZM229.89 160.73c-.44 0 0 .23.61.34.87.17 2.23-.12 2.06-.43s.46-.15.3-.24 0-.56.15-.51c.42.12-.08-3.18-1.86-3.75a1.83 1.83 0 0 0-2.38 1.89 19 19 0 0 0 .57 2.12c0 .08.06.12.15.07s.13 0 0 .13c-.23.42.32 0 .46.27.05.07.05.11-.06.11ZM220.78 161.94c-.38.05-.22-.71-.52-.37-.1.1-.19.13-.21.06-.21-.67-.36 0-.48-.28s-.56.36-.74.19-.1.07-.13.09c0 .45-.89.31-1.27 1.62a4.18 4.18 0 0 0 .24 2.18c.07 0 .08.1 0 .14s.22.84.38.76.23.81.41.52.12.14.71.3 1.83-.42 1.9-.88a.6.6 0 0 1 .27-.3c.51-.32-.11-.26.2-1s-.12-3.1-.76-3.03ZM246.8 158.25c-.29-.16-.32.35-.77 0s-.73.28-.71 0-.65.34-.68.36c-.77.89-1.06 1-1 2.27.11 2.21 1.34 2.2.87 2.17-.27 0-.11.28.06.19s.25.44.66.37.56.26.75.16.05-.12 0-.18-.13-.09.09-.05 1.4-.34 1.31-.51 0-.12.1-.12 0-.46.26-.44 0-.75.2-.84-.13.08.09-.92a2.27 2.27 0 0 0-1.05-2.27c-.23-.07-.32-.12-.2-.12s.14 0 .02-.07ZM214.43 177c-.07 0-.15-.06-.18-.22-.07-.36-.34-.25-.41.17s-.2-.17-.17-.28c.19-.6-.71-.34-.55 0 0 .09-.06.09-.24 0s-.31-.13-.46.25-.14.32-.1.08 0-.3-.12-.22-.2.42-.22.43c-.06.45-.35.25-.22.5s-.16.59 0 .86a.81.81 0 0 1 0 .53c-.14.37 0 1.4.13 1.14s0 1.05.86 1.18c.42.06 0 .3 1 .31 2.71.02 1.25-4.98.68-4.73ZM225.26 176.36c.76-.18 1.39-4.21-.52-5.18-1.26-.64-1.21 0-1.68-.05-.18 0-.25.31-.28.32-.16.53-.47-.07-.49.28s.33.35.06.37 0 .84-.35.82c-.11 0-.13 0 0 .08s.26.89.08.88-.07.86.16 1.24c.48.83.93 1.32 1.06 1.17s.3.05.15.14.21.41.25.27.16 0 .3 0 .29.1.4-.17c.18-.42-.05.1.42.1s.51-.06.34-.16-.04-.08.1-.11ZM236.79 170.19c.24 0 .05-.26.43-.46s.14-.58.3-.57.47-.64.37-.84 0-.21 0-.25-.41-.56-.17-.5c.58.16-.76-2.21-1.07-2-.05 0-.14 0-.2-.14s-.25-.15-.43-.1c-.6.15-.59-.51-1-.15-.21.2-1.74.18-2.32 1.17-1 1.68.39 4 .51 3.81s.1 0 .14.19.1.3.24.13.17-.16.12.07c-.14.64 2.08.66 2.48 0 .11-.18.15-.2.14-.06s.07.15.19.09c.36-.19.03-.4.27-.39ZM231 183.5c0-.18-.08-.18-.27 0s-.23.19-.11-.06c.29-.6 0-4.59-3.09-2.93-.52.41-.59.59-.25.63s.21 0 0 .08-.56.79-.34 1c0 0-.64 3.29 1.2 3.89.71.23.59-.09.68.07.23.44 2.21-2 1.76-2.2-.15-.14.5-.12.42-.48ZM253.16 171.52c.19-.1.11-1-.1-1.15s.2-.38-.19-.54-.47-.73-1.51-1c-.7-.16-1 .45-1 .17s-.86.23-.95.52-.33.07-.28.44-.27.22-.36.94.06 4 .5 3.52c.1-.11.15-.09.17.08 0 .32.06-.09.63.07a1.34 1.34 0 0 0 .77-.06c.19-.1.35-.12.35-.05s.86-.37 1.22-.8.82-1.76.66-1.95a.14.14 0 0 1 .09-.19ZM239.18 175.47c-1.34-.23-1 .26-1.08.29.06.44-.55 0-.68.43 0 .17 0 .17.11 0 .26-.3.3.26 0 .29s.21.33 0 .4c-.37.13-.39.27-.13.69s.6 1.77 1.1 2c.19.09.2.11 0 .1s-.05.31.51.94c.23.26 1.56.63 1.66.46s.1-.05.11.09c.09.69 1.59-.28 1.16-.54-.08 0 0-.08.24-.06.61.06.66-.57.57-.52s-.05-.09 0-.27-.75-3.85-3.57-4.3ZM220.19 190.57c.44 0-.4-2.8-.76-2.95s-.24-.11 0-.14.26-.16-.33-.5-.7-.29-.66 0c0 .1 0 .09-.11 0-.32-.53-1.36.5-1.62.64-.57.43-.65.56-.65 1 0 .73-.21.67-.2.46s0-.13-.09 0 .18.11-.05.55.18 1.73 1.53 2.27 1 0 1.27.14.27-.26.38 0 .21-.21.32 0 1-.5.82-.86c-.06-.1 0-.18.07-.17s-.11-.46.08-.44Zm-1.48-3.4c0 .07-.28.47-.27.24s.35-.28.27-.24ZM256.18 182.58c-.31 0 .16.49 1.24.33 2.65-.42 1.9-5.87-1.11-5.42-2.65.39-.65 6.22-.08 4.78.14-.33.22.28-.05.31ZM225 200.31c-.07 0-.07-.09 0-.12a2.35 2.35 0 0 0-.13-1.26v-.14c0-.04 0-.62-.18-.63s-.39-.36-.08-.19 0-.33-.37-.48-.31-.13 0-.16.26-.05 0-.15c-.45-.19-.64-.93-1.49-1-.69 0-.83.78-.73.23s-1 .24-.89.36a3.88 3.88 0 0 0-.17 3.68c1.85 3.45 4.48.15 4.04-.14Zm-2.66-3.58c0 .15-.52.22-.19 0 .14-.09.18-.02.15 0ZM235.57 189.88a2.67 2.67 0 0 0-.83-.4c-2.59-.91-3.73 3.5-1.79 5.5.29.29 1.18.46 1.32.25s0 .25.52.14a3.86 3.86 0 0 0 1.51-1.74 4.81 4.81 0 0 0-.73-3.75ZM247.84 189.21c.82-.52.48-3.75-.4-3.82-.12 0-.13-.06 0-.16s-2.5-1.46-3.1.49.71 3.86 1 3.72.17-.06.09.09 0 .21.2.25c.63.13 1.11-.44.86 0s.97-.32 1.35-.57ZM262.24 191.67a3 3 0 0 0 1-2.49c-.06 0-.06-.23 0-.45.17-.65-.22-1-.2-1.4 0-.13 0-.15-.07-.06s-.52-.29-.33-.27.12-.05.08-.13-.34.07-.32-.12c0-.36-1.52-.3-1.12-.06.18.12.31-.34.3 0s-.6-.06-.88.09c0 .14-.59.5-.85.87-.7 1-.33 2.13-.47 2.27s.55.48.26.47-.14.52 0 .29.08 0 .05.23c-.12.97 1.58 1.49 2.55.76ZM230.41 207.8c-.08 0-.08-.13 0-.2s-.75-2.13-.93-2-.14 0-.16-.16-.07-.17-.2 0-.18.13-.17 0-.57-.41-.67-.23-.1.09-.13 0-.95.32-1 .48a1.51 1.51 0 0 0-.92 1.23c0 .26 0 .37.05.25s.09 0 0 .18c-.14.56.58 1.11.36 1.09s.19.66.4.69.11 0 0 .1c-.27.15 1 1.12 1.5 1.12s1.16-.36 1.13-.56.08-.24.22-.31.57-1.06.38-1.17.32-.4.14-.51ZM252.92 197.34c.42.12-.07-3.18-1.85-3.75a1.83 1.83 0 0 0-2.39 1.89c0 .78.6 1.77.57 2.12 0 .08.06.12.15.07s.14 0 0 .13c-.23.42.31 0 .45.27 0 .07 0 .11-.1.11-.44 0 0 .23.61.34.88.16 2.23-.12 2.06-.43s.46-.15.3-.24.06-.56.2-.51ZM240.69 199.39c-.38.05-.22-.71-.52-.37-.09.1-.19.13-.21.06-.21-.67-.36-.05-.48-.28s-.56.36-.74.19-.1.07-.13.09c0 .45-.89.31-1.27 1.62a4.4 4.4 0 0 0 .24 2.18c.07.05.08.1 0 .14s.22.84.38.76.24.81.41.52.12.14.71.3 1.84-.42 1.9-.88a.63.63 0 0 1 .28-.3c.5-.32-.12-.26.19-1s-.11-3.1-.76-3.03ZM266.85 195.91c-.22-.07-.32-.12-.19-.12s.17 0 0-.09c-.28-.16-.31.35-.77 0s-.73.28-.71 0-.65.34-.68.36c-.77.89-1.06.95-1 2.27.1 2.21 1.33 2.2.86 2.17-.27 0-.1.28.06.19s.25.44.66.37.56.26.75.16.06-.12 0-.18-.12-.09.09-.05c.36.07 1.4-.34 1.31-.51s0-.12.1-.12 0-.46.26-.45 0-.74.2-.83-.13.08.1-.92a2.29 2.29 0 0 0-1.04-2.25ZM234.34 214.49c-.07 0-.15-.06-.18-.22-.07-.36-.34-.25-.4.17s-.21-.17-.17-.28c.18-.6-.71-.34-.56 0 0 .09-.06.09-.23 0s-.31-.13-.47.25-.14.32-.1.08 0-.3-.12-.22-.2.42-.22.43c-.06.45-.35.25-.22.5s-.16.59 0 .86a.9.9 0 0 1 0 .53c-.14.37 0 1.4.13 1.14s0 1.05.86 1.18c.43.06 0 .3 1 .31 2.71-.02 1.23-5.02.68-4.73ZM244.65 208.63c-1.26-.64-1.21 0-1.68 0-.18 0-.25.31-.28.32-.16.53-.46-.07-.49.28s.34.35.06.37 0 .84-.35.82c-.11 0-.12 0 0 .08s.26.89.08.88-.06.86.16 1.24c.48.83.93 1.32 1.06 1.17s.31 0 .15.14.21.41.26.27.15-.05.3 0 .28.1.39-.17-.05.1.42.1.51-.06.34-.16 0-.1.13-.13c.73-.21 1.36-4.24-.55-5.21ZM257.43 206.61c.19 0 .48-.64.37-.84s0-.21 0-.25-.41-.56-.17-.5c.58.16-.75-2.21-1.06-2-.06 0-.15 0-.2-.14a.42.42 0 0 0-.44-.1c-.6.15-.59-.51-1-.15-.22.2-1.75.18-2.32 1.17a3.63 3.63 0 0 0 .5 3.81c.05-.09.11 0 .15.19s.09.29.24.13.16-.16.11.07c-.14.64 2.08.66 2.48 0 .11-.18.15-.2.15-.06s.07.15.18.09c.29-.16 0-.37.21-.36s.05-.26.42-.46.22-.61.38-.6ZM250.67 220.93c-.21.19-.23.19-.11-.06.29-.6 0-4.59-3.08-2.93-.52.41-.6.59-.26.63s.21 0 0 .08-.56.79-.34 1c0 0-.64 3.29 1.2 3.89.72.23.59-.09.68.07.24.44 2.21-1.95 1.77-2.21-.2-.1.45-.08.41-.45-.02-.18-.08-.18-.27-.02ZM273.07 209c.19-.1.11-1-.1-1.15s.2-.39-.19-.54-.46-.73-1.51-1c-.69-.16-1 .45-.95.17s-.86.23-.95.52-.33.07-.28.44-.27.22-.36.94.06 4 .51 3.52c.09-.11.15-.09.17.08s0-.09.62.07a1.26 1.26 0 0 0 .77-.07c.2-.09.36-.11.35 0s.86-.37 1.22-.8.82-1.76.66-2a.14.14 0 0 1 .04-.18ZM258.45 217c.2.09.2.11 0 .1s0 .31.51.94c.24.26 1.57.63 1.66.46s.1 0 .11.08c.09.7 1.6-.27 1.16-.53-.08-.05 0-.08.25-.06.6.06.65-.57.56-.53s0-.08 0-.26-.87-3.87-3.64-4.33c-1.35-.22-1 .27-1.08.3.05.44-.55 0-.69.43-.05.17 0 .17.11 0 .26-.3.3.26 0 .29s.22.33 0 .4c-.36.13-.39.27-.13.69s.73 1.84 1.18 2.02ZM239.34 225.07c-.23-.1-.24-.11 0-.14s.27-.16-.32-.5-.71-.29-.67 0c0 .1 0 .09-.11 0-.32-.53-1.36.5-1.61.64-.57.43-.65.56-.66 1 0 .73-.21.67-.2.46s0-.13-.09 0 .18.11 0 .55.17 1.73 1.53 2.27 1 0 1.27.13.26-.25.37 0 .21-.21.32 0 1-.5.82-.86c0-.1 0-.18.07-.17.25 0-.13-.4.12-.39.36-.06-.48-2.84-.84-2.99Zm-.72-.45c0 .07-.28.47-.27.24s.36-.28.27-.24ZM276.09 220c-.31 0 .16.49 1.24.32 2.65-.41 1.9-5.86-1.1-5.41-2.66.39-.66 6.22-.09 4.78.14-.3.22.31-.05.31ZM244.87 237.76c-.07 0-.07-.09 0-.12a2.39 2.39 0 0 0-.13-1.27s0-.09 0-.13 0-.62-.17-.63-.4-.36-.09-.19 0-.33-.36-.48-.32-.13 0-.16.26-.05 0-.15c-.45-.19-.65-.93-1.5-1-.68 0-.82.78-.73.23s-.95.24-.89.36a3.88 3.88 0 0 0-.17 3.68c1.89 3.45 4.53.15 4.04-.14Zm-2.65-3.58c-.05.14-.53.22-.2 0s.23-.02.2 0ZM254.65 226.93c-2.59-.91-3.73 3.5-1.79 5.5.29.29 1.18.46 1.32.25s0 .25.52.14a3.86 3.86 0 0 0 1.51-1.74 4.84 4.84 0 0 0-.72-3.75 2.91 2.91 0 0 0-.84-.4ZM267.36 222.84c-.13 0-.14-.06-.05-.16s-2.5-1.46-3.09.49.7 3.86 1 3.72.17-.06.09.09 0 .2.2.25c.63.13 1.11-.44.87 0s1-.32 1.41-.57c.78-.52.44-3.75-.43-3.82ZM283.16 226.18c.18-.65-.22-1-.19-1.4 0-.13 0-.15-.08-.06s-.52-.29-.33-.27.12 0 .08-.13-.33.07-.32-.12c0-.36-1.51-.3-1.12-.06.18.11.31-.34.3 0s-.6-.06-.88.09c-.05.14-.59.5-.85.87-.7 1-.33 2.12-.46 2.27s.54.48.25.47-.14.52 0 .29.08 0 .05.23c-.12 1 1.58 1.52 2.55.79a3 3 0 0 0 1-2.49c-.06-.05-.06-.26 0-.48ZM250.32 245.25c-.07 0-.08-.13 0-.2s-.76-2.13-.94-2-.14 0-.16-.16-.07-.17-.2 0-.17.13-.17 0-.56-.41-.67-.23-.1.09-.13 0-1 .32-1 .48a1.51 1.51 0 0 0-.92 1.23c0 .26 0 .37.06.25s.08 0 0 .18c-.14.56.57 1.11.35 1.09s.19.66.4.69.11.05 0 .1c-.27.15 1 1.12 1.5 1.12s1.16-.36 1.13-.56.08-.24.22-.31.58-1.06.39-1.17.33-.4.14-.51ZM272.83 234.79c.42.12-.07-3.18-1.85-3.75a1.83 1.83 0 0 0-2.39 1.89c0 .78.6 1.77.57 2.12 0 .08.07.12.15.07s.14 0 .05.13c-.23.42.31 0 .45.27 0 .07 0 .11-.1.11-.43 0 0 .23.62.34.87.16 2.22-.12 2.05-.43s.46-.15.31-.24.01-.56.14-.51ZM260.6 236.84c-.38 0-.22-.71-.52-.37-.09.1-.18.13-.2.06-.21-.67-.36-.05-.49-.28s-.56.36-.74.19-.09.07-.12.09c0 .44-.89.31-1.27 1.62a4.3 4.3 0 0 0 .23 2.18c.08 0 .08.1 0 .14s.22.84.37.76.24.8.41.52.12.14.71.3 1.84-.42 1.91-.88a.56.56 0 0 1 .27-.3c.5-.32-.11-.26.19-1s-.1-3.1-.75-3.03ZM254.25 251.94c-.06 0-.15-.06-.18-.22-.07-.36-.34-.25-.4.17s-.2-.17-.17-.28c.18-.61-.71-.34-.56 0 0 .09-.05.09-.23 0s-.31-.13-.46.25-.15.32-.11.07 0-.29-.12-.21-.2.42-.22.43c-.06.45-.34.25-.21.5s-.17.59 0 .86a.82.82 0 0 1 0 .53c-.14.36 0 1.4.13 1.14s0 1 .87 1.18c.42.06 0 .3 1 .31 2.7-.02 1.21-5.02.66-4.73ZM264.56 246.08c-1.26-.64-1.21 0-1.68-.05-.18 0-.24.3-.28.32-.16.53-.46-.07-.49.28s.34.35.07.37-.05.84-.35.82c-.12 0-.13 0 0 .08s.26.89.09.87-.07.87.15 1.25c.49.83.93 1.32 1.06 1.17s.31.05.15.14.22.41.26.27.16 0 .3 0 .28.1.4-.17-.06.1.42.1.51-.06.34-.16 0-.1.12-.13c.73-.16 1.35-4.19-.56-5.16ZM277.34 244.06c.19 0 .48-.64.37-.84a.19.19 0 0 1 0-.25c.2-.11-.41-.57-.17-.5.58.16-.75-2.21-1.06-2-.06 0-.15 0-.2-.14a.42.42 0 0 0-.44-.1c-.6.15-.58-.51-1-.15-.22.2-1.75.18-2.32 1.17a3.63 3.63 0 0 0 .5 3.81c0-.09.11 0 .15.19s.09.29.24.13.17-.16.11.07c-.14.64 2.08.66 2.48 0 .12-.18.16-.2.15-.06s.07.14.18.09c.29-.16 0-.37.21-.36s.05-.26.42-.46.22-.61.38-.6ZM270.59 258.38c-.22.19-.23.19-.12-.06.29-.6 0-4.59-3.08-2.93-.52.41-.6.59-.26.63s.21 0 0 .08-.56.79-.34 1c0 0-.64 3.29 1.2 3.89.72.23.6-.09.68.07.24.44 2.22-1.95 1.77-2.21-.19-.1.45-.08.41-.45-.01-.18-.08-.19-.26-.02ZM279 250.36c-1.35-.22-1 .27-1.08.3.05.44-.55 0-.69.43-.05.17 0 .17.11 0 .26-.3.31.26 0 .29s.22.33 0 .4c-.36.13-.39.27-.13.69s.6 1.76 1.1 2c.2.09.2.11 0 .1s-.05.3.51.94c.23.26 1.56.63 1.66.46s.09-.05.11.08c.08.7 1.59-.27 1.16-.53-.09 0 0-.08.24-.06.61.06.66-.57.57-.53s-.06-.08 0-.26-.78-3.85-3.56-4.31ZM172.51 130.71c.14-.33.22.28 0 .31s.16.49 1.24.33c2.28-.36 2-4.44 0-5.29-.81.41-1.62.86-2.42 1.34-.33 1.76.78 4.32 1.18 3.31ZM164.17 134.2a10.59 10.59 0 0 0-1 2.51c-.13.56-.24 1.12-.35 1.68a8.52 8.52 0 0 0 1.26-.74c.7-.41.61-2.57.09-3.45ZM175.93 138.8c-.22 0-.14.52 0 .29s.08 0 .05.23c-.12 1 1.58 1.52 2.55.79a3 3 0 0 0 1-2.49c-.06 0-.06-.23 0-.45.17-.65-.22-1-.2-1.4 0-.13 0-.15-.07-.06s-.52-.28-.33-.27.12-.05.08-.13-.34.08-.33-.12c0-.36-1.51-.3-1.11-.05.18.11.31-.35.3 0s-.6-.07-.88.08c-.05.14-.59.5-.85.87-.7 1-.33 2.13-.47 2.27s.55.45.26.44ZM165.68 146.11c.12-.06.14 0 0 .13-.23.42.31 0 .45.27 0 .07 0 .11-.1.11-.44 0 0 .23.61.34.88.17 2.23-.12 2.06-.43s.46-.15.3-.24 0-.56.15-.51c.42.12-.07-3.18-1.85-3.75a1.83 1.83 0 0 0-2.39 1.89c0 .78.6 1.77.57 2.12.04.08.11.12.2.07ZM156.23 152.94a2.31 2.31 0 0 0 .75-.39ZM180.7 149c-.27 0-.1.28.06.19s.25.44.66.37.56.26.75.16.06-.12 0-.18-.13-.09.09-.05 1.4-.34 1.31-.51 0-.12.1-.12 0-.46.26-.44 0-.75.2-.84-.13.08.1-.92a2.29 2.29 0 0 0-1.06-2.27c-.22-.07-.32-.12-.2-.12s.18 0 .06-.09c-.28-.16-.32.35-.77 0s-.73.28-.71 0-.65.34-.68.36c-.77.89-1.06.95-1 2.27.07 2.19 1.3 2.19.83 2.19ZM150.62 162.93c-.07 0-.15-.06-.18-.22-.07-.36-.34-.25-.4.17s-.21-.17-.17-.28c.18-.6-.71-.34-.56 0 0 .09-.06.09-.23 0s-.31-.13-.47.25-.14.32-.1.08 0-.3-.12-.22-.2.42-.22.43c-.06.45-.35.25-.22.5s-.16.59 0 .87a.78.78 0 0 1 0 .52c-.14.37 0 1.4.13 1.14s0 1.05.86 1.18c.43.06 0 .3 1 .31 2.71-.01 1.23-5.02.68-4.73ZM160.93 157.07c-1.26-.64-1.21 0-1.68 0-.18 0-.25.3-.28.31-.16.53-.46-.07-.49.28s.34.35.06.37 0 .84-.35.82c-.11 0-.13 0 0 .08s.26.89.08.88-.06.86.16 1.24c.48.83.93 1.32 1.06 1.17s.31 0 .15.14.21.41.26.27.15 0 .3 0 .28.1.39-.17-.05.1.42.1.51-.06.34-.16 0-.1.13-.13c.73-.2 1.36-4.27-.55-5.2ZM173.71 155.05c.19 0 .48-.64.37-.84s0-.21 0-.25-.41-.56-.17-.5c.58.16-.75-2.21-1.06-2-.06 0-.15 0-.2-.14a.42.42 0 0 0-.44-.1c-.6.15-.59-.51-1-.15-.22.2-1.75.18-2.32 1.17-1 1.68.38 4 .5 3.81s.11 0 .15.19.09.3.24.13.16-.16.11.07c-.14.64 2.08.66 2.48 0 .11-.18.15-.2.14-.06s.07.15.19.09c.29-.16 0-.37.21-.36s0-.26.42-.46.22-.65.38-.6ZM167 169.37c-.21.19-.23.19-.11-.06.29-.6 0-4.59-3.08-2.93-.52.41-.6.59-.26.63s.21 0 0 .08-.56.79-.34 1c0 0-.64 3.29 1.2 3.89.72.23.59-.09.68.07.23.44 2.21-1.95 1.77-2.2-.2-.11.45-.09.41-.45-.07-.19-.13-.19-.27-.03ZM185 156.83c-.08.65.06 4 .51 3.52.09-.11.14-.09.17.08s.05-.09.62.07a1.34 1.34 0 0 0 .77-.06c.19-.1.36-.12.35-.05s.86-.37 1.22-.8.82-1.76.66-2a.14.14 0 0 1 0-.23c.19-.1.11-1-.1-1.15s.2-.38-.19-.54-.46-.73-1.51-1c-.69-.16-1 .45-1 .17s-.86.23-.95.52-.33.07-.28.44-.17.31-.27 1.03ZM174.73 165.48c.19.09.2.11 0 .1s0 .31.51.94c.24.26 1.57.63 1.66.46s.1 0 .11.09c.09.69 1.59-.28 1.16-.54-.08-.05 0-.08.25-.06.6.06.65-.57.56-.52s-.05-.09 0-.27-.87-3.87-3.64-4.32c-1.35-.23-1 .26-1.08.29 0 .45-.55 0-.69.43-.05.17 0 .17.11 0 .26-.3.3.26 0 .29s.22.33 0 .4c-.37.13-.39.27-.13.69s.68 1.8 1.18 2.02ZM155.62 173.51c-.23-.1-.24-.11 0-.14s.27-.16-.32-.5-.71-.29-.67 0c0 .1 0 .09-.11 0-.32-.53-1.36.5-1.61.64-.57.43-.65.56-.66 1 0 .73-.21.67-.2.46s0-.13-.09 0c-.15.26.18.11 0 .55s.17 1.73 1.53 2.27 1 0 1.27.14.26-.26.37-.05.21-.21.32 0 1-.5.82-.86c0-.1 0-.18.07-.17.25 0-.13-.4.12-.38.36.01-.46-2.81-.84-2.96Zm-.72-.45c0 .07-.28.47-.27.24s.37-.3.27-.24ZM192.42 168.16c.14-.33.22.28 0 .31s.16.49 1.24.33c2.65-.42 1.9-5.87-1.1-5.42-2.71.39-.71 6.22-.14 4.78ZM161.15 186.2c-.07 0-.07-.09 0-.12a2.35 2.35 0 0 0-.13-1.26s0-.1 0-.14 0-.62-.17-.63-.4-.36-.09-.19 0-.33-.36-.48-.32-.13-.05-.16.26-.05 0-.15c-.46-.19-.65-.93-1.5-1-.68 0-.83.78-.73.23s-.95.24-.89.36a3.88 3.88 0 0 0-.17 3.68c1.94 3.45 4.58.15 4.09-.14Zm-2.65-3.58c-.05.15-.53.22-.2 0s.23-.02.2 0ZM170.93 175.37c-2.59-.91-3.73 3.5-1.79 5.5.29.29 1.18.46 1.32.25s0 .26.52.14a3.86 3.86 0 0 0 1.51-1.74 4.84 4.84 0 0 0-.72-3.75 2.91 2.91 0 0 0-.84-.4ZM183.64 171.28c-.13 0-.14-.06 0-.16s-2.5-1.46-3.09.49.7 3.86 1 3.72.17-.06.09.09 0 .21.2.25c.63.13 1.11-.44.87 0s1-.32 1.41-.57c.73-.52.39-3.75-.48-3.82ZM198.43 177.56a3 3 0 0 0 1-2.49c-.06 0-.06-.23 0-.45.17-.65-.22-1-.19-1.4 0-.13 0-.15-.08-.06s-.52-.29-.33-.27.12 0 .08-.13-.33.08-.32-.12c0-.36-1.51-.3-1.12-.06.18.12.31-.34.3 0s-.6-.07-.88.08c-.05.14-.59.5-.85.87-.7 1-.33 2.13-.46 2.27s.54.48.25.47-.14.52 0 .29.08 0 0 .23c-.07.98 1.63 1.5 2.6.77ZM166.6 193.69c-.07 0-.08-.12 0-.2s-.76-2.13-.94-2-.14 0-.16-.16-.07-.17-.2 0-.17.13-.17 0-.56-.41-.67-.23-.1.09-.13 0-1 .32-1 .48a1.53 1.53 0 0 0-.92 1.23c0 .26 0 .37.06.25s.08 0 0 .18c-.14.56.57 1.11.35 1.09s.19.66.4.69.11.05 0 .1c-.27.15 1 1.12 1.5 1.12s1.16-.35 1.13-.56.08-.24.22-.31.58-1.06.39-1.17.33-.4.14-.51ZM189.11 183.23c.42.12-.07-3.18-1.85-3.75a1.83 1.83 0 0 0-2.39 1.89c0 .78.6 1.77.57 2.12 0 .08.07.12.15.07s.14 0 0 .13c-.23.42.31 0 .45.27 0 .07 0 .11-.1.11-.43 0 0 .23.62.34.87.17 2.22-.12 2-.43s.46-.15.31-.24.13-.56.24-.51ZM176.88 185.28c-.38.05-.22-.71-.52-.37-.09.1-.18.13-.21.06-.21-.67-.35-.05-.48-.28s-.56.36-.74.19-.09.07-.12.09c0 .45-.89.31-1.27 1.62a4.3 4.3 0 0 0 .23 2.18c.08 0 .08.1 0 .14s.22.84.37.76.24.81.41.52.12.14.71.3 1.84-.42 1.91-.88a.56.56 0 0 1 .27-.3c.5-.32-.11-.26.19-1s-.1-3.1-.75-3.03ZM202.9 181.59c-.28-.16-.31.35-.76 0s-.73.28-.72 0-.65.34-.68.36c-.77.89-1.06.95-1 2.27.1 2.21 1.33 2.2.87 2.17-.28 0-.11.28.06.19s.24.44.66.37.55.26.74.16.06-.12 0-.18-.12-.09.09 0c.36.07 1.41-.34 1.32-.51s0-.12.09-.12c.25 0 0-.46.26-.45s0-.74.2-.83-.13.08.1-.92a2.29 2.29 0 0 0-1-2.27c-.23-.07-.32-.12-.2-.12s.07-.05-.03-.12ZM170.53 200.38c-.07 0-.15-.06-.18-.22-.07-.36-.34-.25-.4.17s-.2-.17-.17-.28c.18-.6-.71-.34-.56 0 0 .09-.05.09-.23 0s-.31-.13-.46.25-.15.32-.11.08 0-.3-.12-.22-.2.42-.22.43c-.06.45-.34.25-.21.5s-.17.59 0 .86a.82.82 0 0 1 0 .53 1.12 1.12 0 0 0-.06.4l1.87 2.23h.17c2.72-.02 1.23-5.02.68-4.73ZM180.84 194.52c-1.26-.64-1.21 0-1.68-.05-.18 0-.24.31-.28.32-.16.53-.46-.07-.49.28s.34.35.06.37 0 .84-.34.82c-.12 0-.13 0 0 .08s.26.89.09.88-.07.86.15 1.24c.48.83.93 1.32 1.06 1.17s.31.05.15.14.22.41.26.27.16 0 .3 0 .28.1.4-.17-.06.1.42.1.51-.06.34-.16 0-.1.12-.13c.73-.16 1.35-4.19-.56-5.16ZM193.62 192.5c.19 0 .48-.64.37-.84a.19.19 0 0 1 0-.25c.2-.1-.41-.56-.17-.5.58.16-.75-2.21-1.06-2-.06 0-.15 0-.2-.14a.42.42 0 0 0-.44-.1c-.6.15-.58-.51-1-.15-.22.2-1.75.18-2.32 1.17a3.63 3.63 0 0 0 .5 3.81c.05-.09.11 0 .15.19s.09.29.24.13.17-.16.11.07c-.14.64 2.08.66 2.48 0 .12-.18.16-.2.15-.06s.07.15.18.09c.29-.16 0-.37.21-.36s0-.26.42-.46.22-.61.38-.6ZM186.87 206.82c-.22.19-.23.19-.12-.06.29-.6 0-4.59-3.08-2.93-.52.41-.6.59-.26.63s.21 0 0 .08-.56.79-.34 1c0 0-.64 3.29 1.2 3.89.72.23.6-.09.68.07.24.44 2.22-2 1.77-2.2-.19-.11.45-.09.41-.45-.01-.19-.08-.19-.26-.03ZM209.26 194.86c.19-.1.11-1-.1-1.15s.2-.38-.19-.54-.46-.73-1.5-1c-.7-.16-1 .45-.95.17s-.87.23-1 .52-.33.07-.27.44-.28.22-.37.94.07 4 .51 3.52c.09-.11.15-.09.17.08 0 .32.05-.09.62.07a1.36 1.36 0 0 0 .78-.06c.19-.1.35-.12.34 0s.86-.37 1.22-.8.83-1.76.66-1.95a.14.14 0 0 1 .08-.24ZM198.91 203.4c-.07 0-.06-.09 0-.27s-.87-3.87-3.64-4.33c-1.35-.22-1 .27-1.08.3 0 .44-.55 0-.69.43-.05.17 0 .17.11 0 .26-.3.31.26 0 .29s.22.33 0 .4c-.36.13-.39.27-.13.69s.6 1.77 1.1 2c.2.09.2.11 0 .1s0 .31.51.94c.23.26 1.56.63 1.65.46s.1-.05.12.08c.08.7 1.59-.27 1.16-.53-.09 0 0-.08.24-.06.74.1.74-.55.65-.5ZM175.53 211c-.23-.1-.23-.11 0-.14s.26-.16-.33-.5-.71-.29-.67 0c0 .1 0 .09-.11 0a.33.33 0 0 0-.4-.13l2.3 2.65a4.38 4.38 0 0 0-.79-1.88Zm-.71-.45c0 .07-.29.47-.27.24s.35-.32.27-.28ZM212.28 205.92c-.31 0 .17.49 1.24.32 2.65-.41 1.9-5.86-1.1-5.41-2.65.39-.66 6.22-.08 4.78.13-.33.21.28-.06.31ZM190.84 212.82c-2.59-.91-3.73 3.5-1.79 5.5.29.29 1.18.46 1.32.25s0 .25.53.14a3.9 3.9 0 0 0 1.5-1.74 4.84 4.84 0 0 0-.72-3.75 2.77 2.77 0 0 0-.84-.4ZM203.55 208.73c-.12 0-.14-.06-.05-.16s-2.5-1.46-3.09.49.71 3.86 1 3.72.17-.06.09.09 0 .21.2.25c.64.13 1.11-.44.87 0s1-.32 1.41-.57c.78-.55.44-3.75-.43-3.82ZM219.35 212.07c.18-.65-.22-1-.19-1.4 0-.13 0-.15-.08-.06s-.51-.29-.33-.27.12-.05.08-.13-.33.07-.32-.12c0-.36-1.51-.3-1.12-.06.18.12.32-.34.3 0s-.6-.06-.88.09c-.05.14-.59.5-.85.87-.69 1-.33 2.13-.46 2.27s.55.48.26.47-.15.52 0 .29.08 0 0 .23c-.12 1 1.58 1.52 2.55.79a3 3 0 0 0 1-2.49c-.02-.05-.02-.26.04-.48ZM208.58 221.43c-.1-.19.45-.15.3-.24s0-.56.15-.51c.41.12-.08-3.18-1.86-3.75a1.82 1.82 0 0 0-2.38 1.89 19 19 0 0 0 .57 2.12c0 .08.06.12.15.07s.13 0 0 .13c-.23.42.31 0 .46.27 0 .07 0 .11-.11.11-.43 0 0 .23.62.34.91.14 2.26-.12 2.1-.43ZM196.8 222.73c-.39.05-.22-.71-.53-.37-.09.1-.18.13-.2.06-.21-.67-.36 0-.48-.28s-.57.36-.74.19-.1.07-.13.09c0 .45-.89.31-1.27 1.62a4.3 4.3 0 0 0 .23 2.18c.08.05.08.1 0 .14s.22.84.38.76.23.81.4.52.12.14.71.3 1.84-.42 1.91-.88a.6.6 0 0 1 .27-.3c.5-.32-.11-.26.2-1s-.11-3.1-.75-3.03ZM223 219.25c-.23-.07-.32-.12-.2-.12s.18 0 .05-.09c-.28-.16-.31.34-.76 0s-.73.28-.71 0-.65.34-.68.36c-.77.89-1.06 1-1 2.27.11 2.21 1.34 2.2.87 2.17-.28 0-.11.28.06.19s.25.44.66.37.55.26.74.16.06-.12 0-.18-.12-.09.09-.05c.36.07 1.41-.34 1.32-.51s0-.12.1-.12 0-.46.25-.45 0-.74.21-.83-.14.08.09-.92a2.29 2.29 0 0 0-1.09-2.25ZM200.75 232c-1.26-.64-1.21 0-1.67-.05a.24.24 0 0 0-.2.15l3 1.52a2.33 2.33 0 0 0-1.13-1.62ZM213.54 230c.18 0 .47-.64.37-.84a.18.18 0 0 1 0-.25c.2-.11-.4-.56-.17-.5.58.16-.75-2.21-1.06-2-.05 0-.15 0-.2-.14s-.25-.15-.44-.1c-.59.15-.58-.51-1-.15-.21.2-1.75.18-2.32 1.17a3.63 3.63 0 0 0 .5 3.81c.05-.09.11 0 .15.19s.1.29.24.13.17-.16.12.07c-.15.64 2.07.66 2.48 0 .11-.18.15-.2.14-.06s.07.15.18.09c.29-.16 0-.37.21-.36s.05-.26.42-.46.22-.66.38-.6ZM228.88 230.62c-.3-.12-.46-.73-1.5-1-.7-.16-1 .45-.95.17s-.87.23-1 .52-.32.07-.27.44-.28.22-.37.94.07 4 .51 3.52c.1-.11.15-.09.17.08s.05-.09.62.07a1.28 1.28 0 0 0 .78-.07c.19-.09.35-.11.35 0s.85-.37 1.22-.8.82-1.76.65-2a.15.15 0 0 1 0-.23c.19-.1.12-1-.1-1.15s.28-.34-.11-.49ZM215.2 236.25c-1.35-.22-1 .27-1.08.3.06.44-.55 0-.68.43-.05.17 0 .17.1 0 .26-.3.31.26 0 .29s.22.33 0 .4c-.36.13-.39.27-.13.69s.36.85.57 1.31l4 2c.07-.11.08-.21 0-.27s0-.08.24-.06c.61.06.66-.57.57-.53s-.06-.08 0-.26-.79-3.84-3.59-4.3ZM232.33 238.28c-2.65.39-.66 6.22-.08 4.78.13-.33.21.28-.05.31s.16.49 1.23.32c2.66-.41 1.9-5.87-1.1-5.41ZM239.27 250c-.06 0-.06-.23 0-.45.17-.65-.23-1-.2-1.4 0-.13 0-.15-.07-.06s-.52-.29-.33-.28.12 0 .08-.12-.34.07-.33-.12c0-.36-1.51-.3-1.11-.06.18.11.31-.34.29 0s-.6-.06-.87.09c-.06.14-.6.5-.85.87a2.92 2.92 0 0 0-.44 1.94l3.28 1.6a2.81 2.81 0 0 0 .55-2.01Z"/><path class="cls-4" d="M264 224.29c-7.52-13.59-28.62-18.21-37-20.33l-44.73 1.92c-2.08 4.88-4.22 9.69-6.19 14.6-4 10.6-9.71 20.06-14.32 30.35l.12-.05 36.68 7.62c-6.89 6.37-14.21 7.92-21.5 7.93 8 4.79 16.64 8.77 24.8 10.85 15.89 4.05 44.22 5.78 56.07-6.07s13.57-33.24 6.07-46.82Z"/><path class="cls-5" d="M218.13 102s-11.56-1-18.11 8.67-12.34 20-13.11 29.67 7.71 15.66 7.71 15.66-10.21 31-17.53 46a32.85 32.85 0 0 0 23.12 12.33C215.43 215.52 227 204 227 204s-.38-17.73.77-28.9 3.47-22.35 3.47-22.35 7.13 1.15 11.76-4.63 4.43-12.33-.39-14.64-11.56 5-11.56 5-3.66-3.92-2.38-13.43c1.12-8.24-4-12.71-6.29-16.18s-4.25-6.87-4.25-6.87Z"/><path d="M199.12 120.53c-.37.89-.89 1.21-1.55.94s-.81-.86-.45-1.76.89-1.21 1.55-.94.81.86.45 1.76ZM216.36 127.14c-.54.8-1.11 1-1.71.61s-.62-1-.09-1.8 1.11-1 1.71-.62.62 1.01.09 1.81Z"/><g style="opacity:.6;mix-blend-mode:multiply"><path d="M211.58 141.81c-1.94-1.1-2.11-3.1-.49-5.94s3.41-3.73 5.35-2.63 2.11 3.11.5 5.95-3.42 3.72-5.36 2.62Z" style="fill:#f49b87"/></g><path d="M188.9 132.34c2.1.75 3.73-.43 4.83-3.5s.63-4.86-1.26-5.68a62 62 0 0 0-3.85 9.06Z" style="fill:#f49b87;opacity:.6;mix-blend-mode:multiply"/><path class="cls-11" d="M205.86 120.59c-1.41 1.22-6 2.51-7.38 2.76s-1.48 1.48-.78 2.7a27.75 27.75 0 0 0 3.67 3.85"/><path class="cls-12" d="M199.7 112.24a9.31 9.31 0 0 1 6.87 2.06M214.4 116.74c3.15-.45 8 .83 10.22 4.94"/><path class="cls-11" d="M240 139.73c-1.87 1.41-6.94 5-6.94 5M231.23 152.71c-3.6-.58-5-2.25-5.78-3.47M194.62 156c2.83 1.86 8.8 3.34 12.33 3.21"/><path class="cls-7" d="M207.5 139.57a9.89 9.89 0 0 1-10.25 2.86c-4-1.34-4.45-5.59-4.1-8.24a18.07 18.07 0 0 0 6.48 3.68 36.22 36.22 0 0 0 7.87 1.7Z"/><path d="M208.24 138.13a3 3 0 0 1-.74 1.44 36.22 36.22 0 0 1-7.87-1.7 18.07 18.07 0 0 1-6.48-3.68 6 6 0 0 1 .57-2.1c.49-.71 3.86 1.09 6.81 2 2.77.96 7.9 2.11 7.71 4.04Z" style="fill:#fff"/><path d="M193.72 132.09c.49-.71 3.86 1.09 6.81 2 2.77.91 7.9 2.06 7.71 4s-5.4 6.16-11 4.3-4.24-9.27-3.52-10.3Z" style="stroke-width:1.39px;stroke:#c5513d;fill:none;stroke-linecap:round;stroke-linejoin:round"/><path class="cls-15" d="M205 222.84c9.63 1.54 13.87 1.35 20.81-.38s16.95-3.28 23.89-.39"/><path class="cls-15" d="M230.27 221.11a19 19 0 0 1 11-5.4"/><rect class="cls-6" x="72.43" y="48.97" width="30.44" height="58.96" rx="5.45" transform="rotate(23.34 87.658 78.44)"/><rect x="56.85" y="62.66" width="58.96" height="30.44" rx="5.45" transform="rotate(-66.66 86.33 77.88)" style="fill:#fcbf22"/><rect class="cls-6" x="84.03" y="52.17" width="8.77" height="8.77" rx="2.74" transform="matrix(.92 .4 -.4 .92 29.64 -30.4)"/><path d="M200.4 256.56c-7.42 7.92-15.4 9.76-23.35 9.77a132.78 132.78 0 0 1-20.29-14.87c-11.56-10.41-41.33-47.4-51.74-63.88s-17.34-31.5-15.6-38.73 6.07-14.16 4.62-18.79-7.58-9.28-7.58-9.28-9.63-3.85-10.27-8 5.26-4.11 9.63-2.7a40.47 40.47 0 0 1 9.76 4.63c1.93 1.28 2.83 1.8 2.83 1.8l-4.66-7.39s-6-1.74-10.5-3.47c-4.22-1.62-8.09-4.3-8.35-7s2.18-4.43 6.71-4.08a33.74 33.74 0 0 1 12.82 3 46.24 46.24 0 0 1 8.22 4.63s-3.31-5.46-7.07-8.35c-6.45-2.51-12.72-7.71-12.07-12.21.38-2.64 4.72-4.15 10.49-1.48 5.17 2.38 9 4 13.1 7.71 2.84 2.57 5.21 4.53 5.21 4.53s-3.57-5.88-6.46-9.83c-3.25-4.45-4.82-7.32-4.91-10.86s2-5.77 4.11-5.26 6.75 5.08 11.4 11.21c8.48 11.17 11.69 19.1 14.26 27.84s2.47 20-1.26 35.84c0 0 13.11 16.37 27 30.44s43.35 40.46 48.56 51.06c3.68 10.02 4.06 24.47-4.61 33.72Z" style="fill:#edb19f"/><path class="cls-18" d="M85.82 110.12c-4.23-1.36-9.89-1.41-9.68 2.31 2.88 1.7 5.86 3.49 8.36 2.8 1.89-.52 2.94-2.88 3.42-4.36q-1-.39-2.1-.75ZM84.89 101.07c2.06-1.25 2.66-4.3 2.82-5.67a43.75 43.75 0 0 0-6.1-.79c-4.53-.35-7 1.38-6.71 4.08a3.16 3.16 0 0 0 .14.68c3.54 1.76 7.35 3.21 9.85 1.7ZM109.07 75.05a6.38 6.38 0 0 0 4-1.65c-3.38-3.9-6.41-6.57-8-7a3.09 3.09 0 0 0-3.4 1.87c2.14 3.87 4.85 6.87 7.4 6.78ZM83.51 81.73a4.79 4.79 0 0 0 0 1.31c3.07 2.93 7.34 4.2 9.57 3.57s3.2-3.83 3.42-5.32L94 80.16c-5.77-2.67-10.11-1.16-10.49 1.57Z"/><path class="cls-11" d="M112.54 93a74.46 74.46 0 0 1 6.55 9.06M102.65 102.29a48.45 48.45 0 0 1 9.21 10.34M98.41 116.55a23.12 23.12 0 0 1 5.75 6M129.49 141.34a27.47 27.47 0 0 1-6.16 12.14"/><path class="cls-5" d="M75.06 62.91c3 1.16 7 2.9 7.42 6s-2.12 4.82-4.14 4.24a26.44 26.44 0 0 1-4.24-1.74s4 4.34 4.91 6.94.1 4.53-2 5.39-7-1.54-9.35-4a12.51 12.51 0 0 1-.38-10c2.19-5.09 7.78-6.83 7.78-6.83Zm-15.51 31.7s5.68 2.12 8.77 2.41 4.14-1.16 4.24-4-5-5.4-8.39-5.78Z"/><path class="cls-18" d="M65.86 87.63c-1.19 1.88-.59 4.88 1.72 6.56a30.11 30.11 0 0 0 3.66 2.28c.89-.64 1.26-1.8 1.32-3.4.08-2.36-3.56-4.58-6.7-5.44ZM82.48 68.89c-.35-2.76-3.62-4.44-6.44-5.59-1.22 2.18-.5 5.56 1.81 7.51a17.08 17.08 0 0 0 2.84 2 3.75 3.75 0 0 0 1.79-3.92ZM75.27 72.72c-3.2 1.68-3.69 4.42-1.59 7.79a20.24 20.24 0 0 0 2.58 3.38 2.37 2.37 0 0 0 .73-.17c2.12-.86 2.89-2.79 2-5.39-.54-1.69-2.45-4.12-3.72-5.61Z"/><path class="cls-11" d="M74.1 71.39c-2-2.31-6.59-4-9.6-3.53a15.07 15.07 0 0 0-5.66 2.06M68.41 80.77c-2-1.86-3.47-3-3.47-3s-1.34 5.49-4.33 8.67"/><path class="cls-11" d="M43.46 92.2c9.54-8 18-6 22.4-4.57M62.18 95.61s-3.27 4.11-7.7 5.2c0 0 12.68 2.18 17.11 10.47s2.8 14.16 1.54 16.86M49.43 126.6a21.07 21.07 0 0 0 8.67 8.4"/></g></g></g></svg>