<svg xmlns="http://www.w3.org/2000/svg" viewBox="0 0 500 500"><defs><clipPath id="clip-path"><circle id="SVGID" class="cls-1" cx="250" cy="250" r="204"/></clipPath><style>.cls-1{fill:#047889}.cls-18,.cls-5,.cls-8{fill:none;stroke-linejoin:round}.cls-5{stroke:#010101}.cls-18,.cls-5,.cls-8{stroke-linecap:round}.cls-18,.cls-5{stroke-width:1.36px}.cls-7{fill:#ed8f4c}.cls-8{stroke:#2b4250;stroke-width:4.76px}.cls-17{fill:#e06059}.cls-18{stroke:#b16333}</style></defs><g style="isolation:isolate"><g id="Layer_1" data-name="Layer 1"><circle id="SVGID-2" data-name="SVGID" class="cls-1" cx="250" cy="250" r="204"/><g style="clip-path:url(#clip-path)"><circle cx="250" cy="250" r="204" style="fill:#df6d58"/><path class="cls-1" d="M139.31 302.7c-21.11 8-64.13 19.05-92.41 63.93s-14.75 115.55-5.53 151.82 25.82 111.26 75 126.62 71.92-13.52 71.92-13.52 9.83 20.29.61 44.87c0 0 55.32-12.29 92.82-38.11S333.34 575 335.8 533.82s-12.91-116.18-27.66-153.06-25.2-59.62-59.62-67.61-109.21-10.45-109.21-10.45Z"/><path class="cls-5" d="M263.06 406.37c2.87 7 14.21 31.83 15.44 42.08S270 476 262.11 495.16c-7.35 17.75-12.3 57.92-12.3 57.92"/><path d="M304.72 113.24S293 99.86 268.8 99.65s-48.56 8-67.41 29.51-44 70.27-54.3 87.48-23.76 42.21-24.17 49.18 37.7 29.91 50.81 37.29S243 327.29 270 327.29s71.3-7 73.35-9.84-8.6-25-7-36.47 7-21.31 7.38-34.42a72.35 72.35 0 0 1 7.79-31.15c4.09-8.19 9.42-21.3 7.78-38.11s-7.65-23.63-10.11-32.91-9.84-21.25-19.94-27c-14.69-8.52-24.53-4.15-24.53-4.15Z" style="fill:#e3c2a2"/><path class="cls-5" d="M330.68 160.09c5.46-6.42 7.1-13.25 6.28-23.08M321.94 129.36c-.28 10.38-13.66 15.85-27.87 18s-37.15 7.65-47.81 22.4M304.72 113.24a48.44 48.44 0 0 1 9.57 10.93M298.17 122c-15 2.46-46.72 5.74-62.84 44"/><path class="cls-5" d="M274.13 110.24c-12 .54-50 3-70.21 51.63s-32.79 64.2-43.44 76.49-18.58 31.15-18 44M201.73 217.33c-10.38 14.75-37.43 52.45-37.15 79.22M336.69 147.39c4.91 7.1 12 22.4 9 40.16s-15 38.52-16.39 57.1-10.65 22.94-11.75 41.52a89.78 89.78 0 0 0 5.19 34.42M315.38 223.61c0 8.47-2.73 22.13-11.75 39.34s-10.38 44.26-4.64 61.19"/><path class="cls-7" d="M223.31 224c-9.42 20.9-23.35 46.31-41 57s-34 18.44-43 21.72c0 0 19.67 28.68 61.47 32.78s79.08-4.1 79.08-4.1-9-52.45-1.64-71.3-54.91-36.1-54.91-36.1Z"/><path class="cls-8" d="M321.8 212.82c1.3-1.56 4.92-3.69 8.19-1.09 2.59 2.05 1.51 5.6-1.77 9.83s-11.34 15.85-17.49 13.11 9.02-19.39 11.07-21.85Z"/><path class="cls-7" d="M330.68 160.09s-7 11.89-24.18 12.71-19.5-1.44-28.82-.8c-8.2.54-22 7.37-22 7.37s-.82-9-9.43-12.29-22.53-2.48-26.25 13.09 1.63 76.22 16.8 85.65 38.93 7.78 49.58 1.64 21.31-31.15 22.95-32 13.11.21 14.55-1.63-5.33-17.42-4.31-21.11 8-11.88 10.66-25.2.45-27.43.45-27.43Z"/><g style="opacity:.53;mix-blend-mode:multiply"><path d="M269.11 235.48c-6.63-.06-10-5-9.87-14.73s3.51-14.62 10.13-14.55 10 5 9.87 14.73-3.51 14.61-10.13 14.55Z" style="fill:#f49b87"/></g><path d="M298.74 209.54c-1.33 1.84-2.7 2.27-4.06 1.28s-1.38-2.42-.05-4.25 2.7-2.27 4.06-1.28 1.38 2.42.05 4.25Z"/><path d="M302.3 245.43c-2.25-2.56-9.73-3.89-12.19-3.48" style="stroke:#c5513d;stroke-width:3.4px;stroke-linecap:round;fill:none;stroke-linejoin:round"/><path d="M298.17 189.19c7.51.95 16.12 4.64 19.39 8.74" style="stroke:#876351;stroke-width:4.08px;stroke-linecap:round;fill:none;stroke-linejoin:round"/><rect x="201.39" y="176.28" width="61.47" height="112.08" rx="10.19" style="fill:#153745"/><rect x="210.2" y="185.71" width="15.16" height="15.57" rx="4.23" style="fill:#010101"/><path class="cls-8" d="M294.21 194.93c-2 .65-11.07 12.49-10.86 21.92s9.34 12 13.73 11.4c5.46-.68 10.65-6.83 14.34-11.33s5.6-8.68 4.37-10.52-2.67-4.14-8.2-7.51-10.92-4.78-13.38-3.96Z"/><path class="cls-8" d="M315.38 211c2.59 1.23 5.19 2.6 5.19 2.6"/><path d="M293.11 195.61c-4.09-4.1-34.42-33.47-41.79-25.27" style="stroke:#2b4250;stroke-width:4.76px;fill:none;stroke-linejoin:round"/><path d="M195.72 244.78c-1.91.48-2.59 6-4.37 14.35-.9 4.22-2.73 11.2-.82 19.8 2.13 9.58 3.83 15.44 7.79 23.77s13.38 20.62 13.11 25.41-25.82 79.08-25.82 79.08 13.66-4.37 19.4 5.74 10.65 19.67 24.59 22.4 28.41-2.73 33-9c0 0 6-33.61 11.2-63.38s7.93-55.73 7.11-71.31-2.87-31.28-4.1-36.19-7.1-8.88-9.15-9.56c0 0 1.5-6.56 0-9.29a8.08 8.08 0 0 0-9.43-3.55 13.24 13.24 0 0 0-4.92 3.14 99 99 0 0 0 4.38-13.8c1.09-5.6 2.18-11.47-2.74-12.84s-9.42 4.37-12.43 10-7.92 14.75-8.74 21.31a135.06 135.06 0 0 1 2.6-15.43c1.5-5.6 1.23-11.48-4-12.16s-11.48 7.1-14.35 17.48a132.13 132.13 0 0 0-4.78 27.46l-1 14.61s-2.89-2.44-4.51-4c-.55-6.55-1.36-9.38-2.46-15.71s-7.37-8.87-9.56-8.33Z" style="fill:#ef9b5f"/><path class="cls-17" d="M249.4 223.34c4.51 1.43 7.69-4.23 9.26-8.27-.07-2.67-1-4.78-3.66-5.53-3.17-.88-6.18 1.2-8.72 4.3-1.34 3.88-.98 8.16 3.12 9.5ZM237.13 218.49c-.34-2.77-1.69-4.87-4.66-5.26-2.48-.33-5.2 1.28-7.69 4.17-1.51 3.52-2.29 7.23 1.95 8.4 4.8 1.32 8.54-3.37 10.4-7.31ZM191.34 259.15a7.79 7.79 0 0 0 6.16 0c3-1.51 3-6.85 3.22-12.9-1.94-1.24-3.95-1.71-5-1.45-1.91.48-2.59 6-4.37 14.35Z"/><path class="cls-18" d="M234 238.91c-1.23 7.1-1.5 18.71-.55 24.86M212.33 272.79a85.48 85.48 0 0 0 .79 11.74M253.36 236.18c-2.45 5.32-4.64 17.62-3.41 24.45M267.71 245.88a72.84 72.84 0 0 0-3 15"/><path class="cls-5" d="M114.72 575.21c3.69-18.85 18.85-40.16 26.23-58.19s27.45-71.72 34.42-90.57 7.17-19.05 7.17-19.05l3.07-.21"/><path class="cls-5" d="M114.31 402.28c6.56 9.42 16.8 57.37 19.26 70.89S141 517 141 517M262.65 426.32C261 444.48 250.36 499 240.93 530.54s-31.14 82.78-52.65 101M127 399c.82 12.29.82 25-1.63 34"/></g></g></g></svg>