<svg xmlns="http://www.w3.org/2000/svg" xmlns:xlink="http://www.w3.org/1999/xlink" viewBox="0 0 500 500"><defs><style>.cls-1,.cls-11,.cls-13,.cls-14,.cls-6{fill:none;}.cls-2{isolation:isolate;}.cls-3{clip-path:url(#clip-path);}.cls-4{fill:#d0c69a;}.cls-5{fill:#fcbf22;}.cls-11,.cls-6{stroke:#010101;}.cls-11,.cls-13,.cls-14,.cls-6{stroke-linecap:round;stroke-linejoin:round;}.cls-13,.cls-6{stroke-width:1.36px;}.cls-7{fill:#253f4c;}.cls-8{fill:#ef9657;}.cls-9{opacity:0.34;}.cls-9,.shade-8{mix-blend-mode:multiply;}.cls-10{fill:#f49b87;}.cls-11{stroke-width:6.12px;}.cls-12{fill:#153745;}.cls-13,.cls-14{stroke:#c5513d;}.cls-14{stroke-width:3.4px;}.zero-7{fill:#fff;}.shade-8{fill:#404da0;opacity:0.17;}.cls-15{fill:#f09e64;}</style><clipPath id="clip-path"><circle id="SVGID" class="cls-1" cx="250" cy="250" r="204"/></clipPath></defs><g class="cls-2"><g id="Layer_1" data-name="Layer 1"><g class="cls-3"><circle class="cls-4" cx="250" cy="250" r="204"/><path class="cls-5" d="M341.74,286.69c23.77,22.4,85.24,38.79,113.1,79.77s32.78,72.12,38.52,104.9c5.23,29.87,9.84,63.11,9.84,63.11l-11.27,1-74,59.63s-26.22,177-30.32,200.79c-79.8,10.85-156.83,17.66-217.19,0,0,0,4.1-54.09,10.66-104.9s9.83-66.39,9.83-66.39L156.52,655,71.28,551.68s32-54.91,50-86.87,60.65-83.6,100-104.09S341.74,286.69,341.74,286.69Z"/><path class="cls-6" d="M324.12,412.76c-1.23,20.49,13.93,58.19,22.54,82.37s17.62,72.12,17.62,72.12"/><path class="cls-6" d="M190.94,624.62c4.92-49.17-.82-117.2,3.28-145.06"/><path class="cls-6" d="M169.63,479.56c.82,22.13,22.13,62.28,22.13,62.28"/><path class="cls-6" d="M352.4,295.15c-4.1,14.35-38.93,51.23-52.46,65.16s-45.48,41.39-45.48,41.39"/><path class="cls-7" d="M172.09,164c-3.55-2.73-9.29-5.19-4.1-16.39s18.31-32.23,48.08-45.89,60.38-15,71.85-15.3,26.23,7.37,30.33,19.12,5.05,35.31,8.47,48.08c2.09,7.85,8.74,29.78,4.91,42.07s-11.74,28.42-19.12,29-83.87-32.51-83.87-32.51Z"/><path d="M200.42,130.5c.39.25-.39-.29-1.44,1.36-.9,1.41-.32,1.25-1,2.32-1.81,2.84-.24,2.57-1.06,3.09A190.65,190.65,0,0,0,185.8,156.5c-1.4,2.86-.71,2.2.79,3.48.09.08-.32.11-.43.12l.41.23c2.1-2.63,9-13.44,7.78-13.86-.36-.12.38-.85.39-.24,0,.24.37-.24.9-1.15a62.78,62.78,0,0,1,4-6.28c1.57-3.08.66-3.7,3.05-6.53,1.78-2.1,1.74-1.58-1.77-2.76C200.55,130.07,200.35,130.45,200.42,130.5Zm-8.59,18.78c.15,0,.34.32.3.38C192.29,150.33,191.59,149.36,191.83,149.28Z"/><path d="M186.74,129.64c-.21-.39-1.34.72-1.23,1.19.35,1.4-6.19,12.15-12.1,21.9l2.84,1.64c0-.06,7.66-12.81,7.64-12.87-.28-.59-.19.77,1.66-2.59,4.76-8.65.46-2.93,6.51-12.26l-3.13-1C186.7,129.35,186.7,129.76,186.74,129.64Z"/><path d="M186.74,129.64c0,.08,0,0,0,0Z"/><path d="M184.18,158.56c-.42.25-.37.18,0,.39C184.42,158.5,185.12,158,184.18,158.56Z"/><path d="M185,159c.05.08,0,.07,0-.1-.46-.24-.28-.13-.53.23C184.73,159.27,184.79,158.64,185,159Z"/><path d="M185.07,159.07c0,.06,0,.06,0,0Z"/><path d="M186.24,160.09c.24,0,.41-.06.35-.11-.59-.5-1.66-1.48-2-.77C186.34,160.2,186.13,160.1,186.24,160.09Z"/><path d="M203.35,170c-.18-.44-.34-.38-.39-.18C203.45,170.08,203.37,170.05,203.35,170Z"/><path d="M219,136.3c-.22.76.39.2-.1,1.1s-.74-.1-.8.16c-.57,2.25-1.67,3.08-1.7,3.89s-1,.7-1,1.57-.77,1.1-1.15,2.16c-.56,1.55-1.41,2-1,2.28.22.13.19.16-.14.18s-.43.19-.5,1c-.11,1.4-.5,1.15-.32.83s-.25-.23-.58.18-.29.84.28.75c.86-.12,0-.1-1,1.08-.48.57-.54.73-.24.59s.36-.09.27.06c-.27.47-.28-.33-1.5,1.82,0,0-5.16,7.43-4.09,6.89.54-.28.15.32-.15.33s-1.88,2.56-1.62,2.71.12.2,0,.28c-.39.21.27.28.08.61s-.35-1-1.1.58-.35,2.22-.83,2.24,0,.79-.41,1a.14.14,0,0,0-.1.1c1.46-.56,1.13-.81.84-.52-.52.53-.55-.43.14-.49s.93,1.4.93.74.58,0,.2.5c-.19.24-.16.35.09.35.48,0-.17-.1-.06.78,1.69-2.29.22-1.78,1-2.09.59-.22,0-.44.57-1.18.28-.38.27-.54,0-.58-.51-.07,0-.41.47-.13.68.39.64-2.23,1.14-1.94s2.79-4.24,2.66-4.92c-.05-.29,0-.51,0-.47s.16-.15.16-.43c0-1,3.31-3.2,2.41-3.17-.62,0,1-.72.48-1-.21-.11-.17-.16.13-.18s.35-.12.25-.31c-.23-.41.82-1.13.52-1.3s.18-1,.44-.91.37-1.08.9-1.73c.2-.26.25-.45.1-.45s1.39-2.74,2-3.3-.06-.35.05-1c0-.32.13-.34.32-.1s.25.2.27-.25c0-.91.27.21.89-1.32s1.54-1.62,1.27-1.77.5-1,.66-1.87c.07-.41.19-.53.41-.41s.37,0,.61-.81c.6-1.9,2.09-.92-1.86-2.39,0,.29-.1,0-.17-.06S219.06,136.13,219,136.3Zm-11.36,25.83c-.48-.27.22-.38.19-.32C208.24,161.8,208,162.3,207.66,162.13Z"/><path d="M229.78,140c-.36-.14-.24-.18-.47.28C229.6,140.72,229.46,140.25,229.78,140Z"/><path d="M228.06,143.19l.26-.53C228.07,142.65,227.84,143,228.06,143.19Z"/><path d="M228.94,141c-1.14,2.07-.23,1.41,0,.09Z"/><path d="M230.72,140.43c0-.05-.49-.25-.19.32C230.71,141.1,231,140.6,230.72,140.43Z"/><path d="M231.92,142.2c.94-1.28.73-1.08.31-1.24A4,4,0,0,1,231.92,142.2Z"/><path d="M238.54,145.73c-.1.43-.29,0-.66.54-.2.32-.12,1.43-2.71,4.87-1.47,1.94-.45,1.35-1,1.91-2.12,2.34-1.37,3-1.64,2.5s-.7.31-.58.86c.08.32,0,.38-.18.24-.47-.3,0,.86-.32.69s.17,1.1-.26.66-.87.34-1.1,1.26c-.34,1.41-.95.39-1.13,1.75-.05.38-.22.71-.37.72a13,13,0,0,0-2.52,3.94c0,.54-1.44,1.47-1.12,1.87s-1.11.62-.62.63-3.26,5-3,5.47c.1.18,0,.27-.26.28s-.33.06,0,.25c.51.32-.11.56-.24.3s-.76.6-.28.71.16.54-.13.35-.68.46-.43.62-1.4,2.67-1.08,2.86c.31-.42.53-.61.59-.48s.15.2.12-.15c-.08-.95,1.59-1.86,1.92-1.86.15,0,.36.19.55.43.05-.2.1-.28.22-.16.36.35.74-.48,2-2.12s.39-1.1.75-1.67.57.19.62-.65.33-.23.25-.87.28-.46,1.18-1.37,0-1.81.52-1.15.26-.17.68-.88c.3-.52,0-1.44.27-.92s1.77-2.24,1.44-2.25,1.77-1.15,1-1.61c-.18-.12-.12-.19.19-.21s.41-.1.27-.3c-.26-.36,0-.77.19-.42.36.73.49-1.47.9-1.47.67,0,.85-2.38,2-3,.71-.38,1.06-2.41,1.34-2.24s1.09-.92.39-.64c-.35.13,4.89-6,3.32-5.25-.55.27.19-.34.31-1.12s-.24,1.11,2.62-3.6C240.52,144.25,239.14,143.24,238.54,145.73Zm-4.38,8.76c-.58-.37.1-.35.07-.3C234.59,154.2,234.57,154.75,234.16,154.49Zm2.66-4.93c-.23-.44.27-.43.24-.38C237.39,149.19,237,149.86,236.82,149.56Z"/><path d="M221.73,176.76s-.49-.26-.2.32C221.7,177.43,222,176.94,221.73,176.76Z"/><path d="M239.34,143.84c0-.07.24,0-.19-.14C239.15,143.77,239.2,143.84,239.34,143.84Z"/><path d="M247.56,151.12c-.12,0-.15-.12-.06-.27.23-.39,1.11.45.77.71s.4.65.35.43,1-.33.43-.67c-.75-.46.29-.95.76.43.28-.51.52-.9.6-.75s.63-.8.58-1.29c0-.31,0-.35.13-.13s.34-.09.7-.63l-3.3-1.39a21.9,21.9,0,0,0-1.68,4.17C247.05,151.55,248.29,151.12,247.56,151.12Z"/><path d="M259.32,153.39c-.9,1.44-.13,1.66-.53,1.45s-.66.3-.25.31c.17,0,.06.12-.23.27-1,.51.12,1.4-.72,1.6-.24.06-.33.15-.21.22.36.22-3.47,5.71-3.17,6.33,0,.08-4.32,5.65-3.21,5.54.42,0,.43,0,0,.13-.67.24-.32.8-.55.39-.55-1-1.92,3.06-2.23,2.86-.16-.1-.2,0-.14.27.13.55-.26,1.18-.67,1.08s-6.31,11-6.34,10.94c-.43-.81-3.1,4.92-3.15,5.2.23.14,0-.14.77-.6s.77.91,1.66.62a.78.78,0,0,1,.83.1c.85-1.27,1.17-1.34,1.11-2s.09-1,.29-.64c.1.22.15.2.15,0s3.08-2.35,3.09-4.78c0-.94.23-1.7.25-.84,0,.56,1.68-2.52.91-2.51q-.3,0,0-.15c.47-.23.44.52.79-.14.12-.25.16-.49.08-.54s.19-.41.62-.83c1.3-1.24,1-2.45,1.44-2.46s.72-1.32,1.38-1.68c.32-.18.4-.31.24-.41s-.1-.22.18-.37c.63-.34.71-1.73,1-1.54s.79-2.18,1.59-2.29.21-1.08,1.26-1.89c.87-.67.1-.68.73-1.32,1.65-1.65.61-1.74,1.88-3.49s.76-2.54,1.48-2.71c1.18-.27.66-2.45,1.13-2.16s.65-2.31,1.44-2.76a3.74,3.74,0,0,0,.65-.69C259.56,152.32,260,152.27,259.32,153.39Z"/><path d="M269.51,159c-.18-.35-.47.15-.21.31s-.94,1.36-.86,2-.28-.06-.62.62.19.29-.43,1.28a2.49,2.49,0,0,0-.21.44c.45-.18.93-.19.23.09-1,.39.49.17.69-.17s.82.58,1,.23.81.28.3.72c-.68.58.63.83-.32,1.18-.53.2,0,0-.17.49.59-.43,1.08-1,.7-1s-.15-.48.13-.31.15-1.06.81-1.23c.3-.07.32-.14.09-.28s-.25-.19.13-.2c.88,0,0-1.13.85-1.4.58-.2.09-.91.08-.37,0,.81-.42-.89.42-.74.28,0,.69-.62,1.3-1.79-1-.49-2-1-3-1.48C270.06,158.36,269.64,159.28,269.51,159Z"/><path d="M280,165c-1.15,2.12-.36,1.48-.63,1.93-.08.14-.2.12-.27,0s-.41,0-.32.34c.13.54-3.94,6.22-3.64,6.41s-.4-.29-1.45,1.36c-.9,1.41-.32,1.25-1,2.32-1.8,2.84-.24,2.57-1.06,3.09-.52.33-12,19.23-11.87,21.65a9.54,9.54,0,0,1,1.55,1.06c.05,0-.12.1-.36.11s-.15,0,.34.24c2.09-2.63,9-13.44,7.77-13.86-.36-.12.39-.85.39-.24,0,.24.38-.24.9-1.15a62.78,62.78,0,0,1,4-6.28c1.57-3.08.66-3.7,3.06-6.53,3.22-3.8,3.71-7.37,3.94-6.91s1.13-1.3,1.07-2.06c0-.37-.11-.46-.23-.27-.22.37-.4.07.11-.35,1.07-.87-.73,2.86,1.54-1.39C280.28,162.49,281.08,163,280,165Zm-13.45,27.43c.14,0,.33.32.3.37C267,193.46,266.29,192.49,266.54,192.41Z"/><path d="M208.94,138c.29.17-1.06.93-.58.93s-.06.74-.21.46.06.19-2.35,3.24c-2.83,3.59-1.26,2.92-2,3.18s-1.77,1.87-1.6,2.19a.25.25,0,0,1-.16.4c-.77.3-2.26,3.71-3,4-.27.1-.29.18-.07.31s.19.17,0,.19c-.47,0-1.93,3.17-2.7,3.9-.34.31-.41.47-.21.47.48,0-1.63,1.7-1.41,2.9.15.81-.11-.71-1.72,2.53-.67,1.36-1.52.45,1.89,2.41,0-.19,0-.27.07-.14s.32,0,2.19-3.56c.61-1.16.11-1.62.52-1.39s0-.22.86-1,.12-.34.23-1,.23-.74.26-.24c0,.27.09.34.17.2.28-.49,1.07-.81.45-.82s.29.12.65-1.08c.29-1,2.42-3.45,2-3.68s.21.44,1.37-1.8.92-1,1.26-1.55c.13-.22,0-.34-.27-.4s-.45-.09.13-.23c1.47-.37,7.39-10.82,7.48-12.11-.8.36.05-.64,0,0,.8-.36-.08-.69.53-.93a3.25,3.25,0,0,0,.93-1.32c-.41-.15-.41.5-1.1.1-.34-.2.11-.32.08-.47l-1.17-.42C210.59,134.57,208.61,137.79,208.94,138Zm-3.46,5.4s.35.36.32.41C206.51,145.06,205.25,143.77,205.48,143.38Z"/><path d="M212.19,136.22c.05-.64-.8.36,0,0Z"/><path d="M212.55,134.07a.62.62,0,0,0,.9-.17l-.82-.3C212.66,133.75,212.21,133.87,212.55,134.07Z"/><path d="M201.36,168.75c-.16.06-.14,0,0,.13A.2.2,0,0,1,201.36,168.75Z"/><path d="M203,169.8c.11-.45.34.19.54.31-.11-.87.53-.78.06-.78-.25,0-.28-.11-.09-.35.38-.46-.19-1.08-.2-.5s-.15-.81-.93-.74-.66,1-.14.49c.29-.29.62,0-.84.52C201.31,168.89,201.29,168.83,203,169.8Z"/><path d="M228.94,141c.12-.22.24-.46.37-.72C229.09,139.94,229,140.72,228.94,141Z"/><path d="M212.52,175c.66-1,1.13-1.31,1.07-1.9,0-.34,0-.37.14-.12.41.77,2.17-3.15,1.92-3.15-.46,0,.56-.37.68-.9s1.15-.22.6-.55c-.24-.15-.2-.21.22-.37s.45-.18.12-.19c-.85,0,1.07-.13,1.57-3,.21-1.24.26.24,1.67-2.56,1.21-2.4,1.54-2.65,1.58-3.38,0-.43.06-.5.18-.27s.32-.06.77-1,3.2-4.23,2.62-4.22c-.15,0-.07-.17.18-.4s.36-.4,0-.39c-.74,0,.58-.06.44-.77-.08-.36-.06-.39.08-.13s.2.18.25-.12c.1-.66-1.11-.57-.13-.68s3.4-4.51,3.15-4.66.59.88,2.24-4.05c-2.62,3.56-3.42,2.15-3.32,1.62s-.41-.51-.54-.63C225.3,148.76,216.91,162,218.2,162c.07,0-5.19,7.14-4.6,7.14.17,0,.19,0,0,.13-1.79.89-.82,2.7-1.26,1.84-.27-.53-.5.54-1.63,1.83-.92,1.05-.06.83-.29,1.22C212.63,175.38,212.33,175.32,212.52,175Zm10.25-21.55c.26.16.22.33-.2.32C221.93,153.79,222.92,153.22,222.77,153.47Zm-2,7.36c.42.26-.07.52-.24.2C220.21,160.46,220.77,160.78,220.74,160.83Z"/><path d="M229,141.92c-.5.25-.23.71-.56.51-.06,0,0-.11-.16.23C229.06,142.71,229.42,141.73,229,141.92Z"/><path d="M229.58,140.29c-.07.33-.19.11-.27,0a11.87,11.87,0,0,0-.83,2.15c.33.2.06-.26.56-.51s-.27,1-.6.78c-.14-.09-.11-.06-.38.49.13.12.61.22.54.63-.35,1.93,3.44-.22,3.63-2.86C229.78,140,229.68,139.85,229.58,140.29Zm1.14.14c.29.17,0,.67-.19.32C230.23,140.18,230.76,140.38,230.72,140.43Z"/><path d="M220.22,179.76l1.21.7c1.29-2.68,1.46-2.54.67-3.51C221.5,179.52,221.07,177.47,220.22,179.76Zm1.8-2.06c.17-.27.33-.33.29-.27C222.92,177.81,221.58,178.4,222,177.7Z"/><path d="M221,178.58c1.13-.32,1.44-2.05.58-2.06-.33,0-2,.91-1.92,1.86,0,.35,0,.38-.12.15s-.28.06-.59.48C221.48,180.49,219.48,179,221,178.58Zm.76-1.82c.28.18,0,.67-.2.32C221.24,176.5,221.76,176.71,221.73,176.76Z"/><path d="M230.31,185.25c0-.36.07-.44.17-.25.32.62,5.88-10.4,5.81-10.54s-.15-.17-.15,0-.22.16-.48,0c-1.09-.56.76.33,1.68-1.19.8-1.33,0-.68,0-1.23,0-.15.12-.19.25-.07s.41-.06.84-.79,3.41-3.61,3.07-4,.79-.29.89-1.07c.2-1.54.93-.44.78-1.52,0-.35,0-.44.1-.23.25.46.86-.59.71-1.21-.23-.93.16.54,2-2.81,5.79-10.78,2.76-6.64,3.57-8,.26-.43.68.55.29-.59-.46.82-1.05,2-1.32,1.61s-.26-.17-.31.11-.14.32-.22.15c-.27-.52-.19.87-.79.5s-.63-1.18-.33-2.39c-2.11,1.87-3.52,9.74-10.31,16.87-.46.48-.52.63-.23.62s.27,0,0,.16c-1.47.74-.87,2.12-1.21,1.91s-2.42,3.32-2.24,3.69.09.27-.11.16c-.36-.22-.74.5-.43.5a13.77,13.77,0,0,0-1.45,3.6,24.59,24.59,0,0,1-2.79,5.07C230.57,185.74,230.28,185.68,230.31,185.25ZM247,154.17c.13.08.17.69-.13.51S247.07,154,247,154.17Z"/><path d="M247.17,154.12c.6.37.52-1,.79-.5.08.17.17.12.22-.15s.15-.32.31-.11.86-.79,1.32-1.61c-.47-1.38-1.51-.89-.76-.43.56.34-.51.37-.43.67s-.73-.15-.35-.43-.54-1.1-.77-.71c-.09.15-.06.27.06.27.42,0,.15.27-.39.41S246.41,153.66,247.17,154.12Z"/><path d="M241,191.62c.5.64.79-2.52-.19-.92C240,192,240.57,191.06,241,191.62Z"/><path d="M241.19,190.1a.78.78,0,0,0-.83-.1c-1,.3-1.16-1.87-2.35,0C241,191.74,240.1,191.72,241.19,190.1Z"/><path d="M258.59,184.63c-.28-.59-.18.77,1.67-2.59,4.91-8.93.16-2.54,7.12-13.22,2.38-3.65,1.45-2.34.74-2.17-.41.1-.62.07-.53-.09s-.33-.7-.63-.53c-.11.07-.1,0,0-.11.32-.33-.55-.56-.15-.76s.12-.84.34-1.48c-1.36.54-5.77,9.18-5.74,9.09-.2-.39-1.34.72-1.22,1.19.34,1.4-6.19,12.15-12.11,21.9L251,197.5C251,197.44,258.62,184.69,258.59,184.63Z"/><path d="M261.44,172.77c0,.08,0,0,0,0Z"/><path d="M267.41,163.77c.89-.36-.2-.29-.3.14Z"/><path d="M266.84,165.16c-.4.2.47.43.15.76-.13.13-.14.18,0,.11.3-.17.8.25.63.53s.12.19.53.09c.66-.16,1.09-.73.82-.73s-.1-.09.17-.19c.45-.16.48-.23.23-.53a.44.44,0,0,1,.09-.65c.51-.44-.13-1-.3-.72s-.77-.65-1-.23a1.74,1.74,0,0,1-1,.39C267,164.58,267.13,165,266.84,165.16Z"/><path d="M259.74,202.15c.05.08,0,.07,0-.1-.45-.24-.27-.13-.53.23C259.43,202.4,259.5,201.77,259.74,202.15Z"/><path d="M258.89,201.69c-.42.25-.37.18,0,.39C259.12,201.63,259.82,201.13,258.89,201.69Z"/><path d="M259.33,202.34c1.71,1,1.5.89,1.61.88s.41-.06.36-.11C260.71,202.61,259.63,201.63,259.33,202.34Z"/><path d="M259.77,202.2c0,.06,0,.06,0,0Z"/><path d="M288.44,175.9c.05.47.28,0,.25-.55.37-.64-1.8,0-1.17,0S288.39,175.52,288.44,175.9Z"/><path d="M288,169.8c.25.83-.88,1.71-.93,2.86-.05,1-.54.78-.21,1s-.17.34.12,1.49c.85-.79,1.94-.64,1.86.46,1.34-3.29,1.65-3.34,1.12-3.34-.27,0-.23,0,.13-.17.92-.33.58-2.12,1.12-1.81.25.15,1-1.16.64-1.16s-.22-.26,0-.33l-2.9-1.53A7.57,7.57,0,0,0,288,169.8Zm3.45-.51c.27.15.23.31-.18.31C290.68,169.6,291.63,169,291.49,169.29Z"/><path d="M298.09,172.73c-.25.14-3.25,4.58-2.68,4.58.8,0-1.5.43-1.3,1.74q.08.47-.09.18c-.1-.19-.21-.12-.3.2-.22.76.4.2-.1,1.1s-.74-.1-.8.16c-.57,2.25-1.67,3.08-1.7,3.89s-1,.7-1,1.57-.78,1.1-1.16,2.16c-.55,1.55-1.41,2-1,2.28.22.13.19.16-.13.18s-.43.19-.5,1c-.12,1.4-.51,1.15-.32.83s-.25-.23-.58.18-.3.84.27.75c.86-.12,0-.1-1,1.08-.47.57-.54.73-.24.59s.36-.09.27.06c-.27.47-.28-.33-1.5,1.82,0,0-5.16,7.43-4.09,6.89.55-.28.15.32-.15.33s-1.88,2.56-1.62,2.71.12.2,0,.28c-.39.21.27.28.08.61s-.35-1-1.1.58-.35,2.22-.83,2.24,0,.79-.41,1a.19.19,0,0,0-.1.1c1.46-.56,1.14-.82.84-.52-.52.53-.55-.43.14-.49s.93,1.4.94.74.58,0,.2.5c-.2.24-.17.35.09.35.53,0-.47.21.16.46,1.27-1.85.08-1.5.81-1.77.58-.22,0-.44.56-1.18.28-.38.28-.54,0-.58-.5-.07,0-.41.47-.13.68.39.65-2.23,1.15-1.94s2.79-4.24,2.65-4.92c-.05-.29,0-.51.05-.47s.16-.15.17-.43c0-1,3.3-3.2,2.4-3.17-.62,0,1-.72.48-1-.2-.11-.17-.16.13-.18s.36-.12.25-.31c-.23-.41.82-1.13.52-1.3s.18-1,.44-.91.38-1.08.9-1.73c.21-.26.25-.45.1-.45s1.39-2.74,2-3.31-.06-.34.05-1c.05-.32.13-.34.32-.1s.25.2.27-.25c0-.91.27.21.9-1.32s1.53-1.62,1.26-1.77.5-1,.66-1.87c.08-.41.2-.53.41-.41s.37,0,.62-.81c.42-1.36,1.71-1.89,1.18-2.2-.35-.2.26-.08.64-.5.81-.86,1-1.16.77-1.29s-.12-.18.18-.3c.55-.2,2.06-2.78,2.11-4C296.2,171,298.78,172.34,298.09,172.73Zm-15.73,32.53c-.48-.27.22-.38.19-.32C282.94,204.93,282.65,205.43,282.36,205.26Zm15.78-27.53c.07.26-.58.83-.27.22C298.05,177.61,298.17,177.68,298.14,177.73Z"/><path d="M305.43,183.56c0-.05-.5-.25-.2.32C305.41,184.23,305.71,183.73,305.43,183.56Z"/><path d="M303.64,184.13c-1.14,2.07-.23,1.41,0,.09Z"/><path d="M302.76,186.32c.1-.18.18-.36.26-.53C302.77,185.78,302.54,186.11,302.76,186.32Z"/><path d="M307.49,177.7c.51,0-.42.18-.68.69s-1.19.89-.76.88c.59,0-1.18,1.52-.41,1.71.33.09.31.12-.15.19s-.53.2-.46.53,0,.36-.1.1c-.27-.49-.26.3-.92,1.61.1.14.2.34.28,0s.94-.68,1.12-.32c.07.14.23.12.33,0,.44-.73-2-.4-.68-.67,2-.38,1.38,2.28,1.6,1.27s.54-.05,0,1.68c1.82-2.48.33-2.22,1-2.39s.86-.68.31-.8c-.38-.09-.38-.1.07-.16.82-.09,1.76-2.55,2.86-3.8l-3.08-1.46C307.45,177.16,307.22,177.7,307.49,177.7Z"/><path d="M296.27,219.81l.15.06A.36.36,0,0,0,296.27,219.81Z"/><path d="M316.19,183.75c.23.6-.17-.91-1.26,1.94-.26.67-.46.75.11,1.11,1.19.75-1.17-.54-1.79,2.06-.11.43-.3,0-.66.54-.21.32-.13,1.43-2.72,4.87-1.46,1.94-.45,1.35-1,1.91,0,0-1.59,1.52-1.52,2.38,0,.34,0,.37-.12.12-.21-.42-.7.31-.57.86.07.32,0,.38-.18.24-.48-.3,0,.86-.32.69s.16,1.1-.27.66-.87.34-1.09,1.26c-.34,1.41-1,.39-1.14,1.75-.05.38-.22.71-.37.72a13,13,0,0,0-2.52,3.94c.06.54-1.43,1.47-1.11,1.87s-1.11.62-.62.63-3.27,5-3,5.47c.1.18,0,.27-.26.28s-.32.06,0,.25c.52.32-.11.56-.24.3s-.76.6-.28.71.16.53-.13.35-.59.34-.48.55c2.18.82,1.58.22,2.07.77.18.07.12-.25.31-.06.35.35.73-.48,2-2.12s.38-1.1.75-1.68.56.2.61-.64.34-.23.25-.87.29-.46,1.18-1.37,0-1.81.53-1.15.25-.17.67-.88c.31-.52,0-1.44.27-.92s1.77-2.24,1.44-2.25,1.77-1.15,1-1.61c-.19-.12-.12-.19.19-.21s.41-.1.26-.3c-.26-.36,0-.77.19-.42.37.73.5-1.47.9-1.47.67,0,.85-2.38,2-3,.72-.38,1.07-2.41,1.34-2.24s1.1-.92.39-.64c-.35.13,4.89-6,3.33-5.25-1.08.52,2-2.32,6.16-10.34l-2.92-1.32C316.64,182.67,316.06,183.42,316.19,183.75Zm-7.33,13.87c-.58-.37.1-.35.07-.3C309.3,197.33,309.27,197.88,308.86,197.62Zm2.66-4.93c-.23-.44.28-.43.24-.38C312.09,192.32,311.67,193,311.52,192.69Zm5.3-9.51c.06,0,.35,1.62,0,.62C316.51,183,316.85,183.13,316.82,183.18Z"/><path d="M314,187c0-.06.68,0,.19-.33C313.94,186.47,313.65,187,314,187Z"/><path d="M322.27,194.25c-.13,0-.16-.12-.07-.27.23-.39,1.12.45.77.71s.4.65.35.43,1-.33.44-.67c-.76-.46.28-.95.75.43.29-.51.52-.9.6-.75s.63-.8.59-1.29c-.11-1.19-.81,3,3.82-6.3l-3.24-1.39C318.86,197.64,323,194.25,322.27,194.25Zm2.5-4.49c.6.36-.15.49-.34.12C324.13,189.28,324.8,189.7,324.77,189.76Z"/><path d="M286.9,179.35c0-.64-.8.36,0,0Z"/><path d="M269.58,208.07c.14.25.31,0,2.18-3.56.62-1.16.11-1.62.52-1.39s0-.22.86-1,.13-.34.23-1,.23-.74.26-.24c0,.27.09.34.17.2.29-.49,1.08-.81.45-.82s.29.12.65-1.08c.29-1,2.42-3.45,2-3.68s.22.44,1.37-1.8.93-1,1.27-1.55c.12-.22,0-.34-.28-.4s-.44-.09.13-.23c1.47-.37,7.39-10.82,7.49-12.11-.8.36,0-.64,0,0,.79-.36-.07-.69.52-.93a5.55,5.55,0,0,0,1.46-2.84c-.55,1.35-.89,2-1.62,1.62-.42-.24.33-.37,0-.56s.18-2.39-.69-1c0,0-3.34,5.19-2.92,5.43s-1.06.93-.58.93-.06.74-.21.46.06.19-2.35,3.24c-2.83,3.59-1.25,2.92-2,3.18s-1.78,1.87-1.6,2.19a.25.25,0,0,1-.17.4c-.77.3-2.25,3.71-3,4-.27.1-.29.18-.08.31s.19.17,0,.19c-.48,0-1.93,3.17-2.71,3.9-.33.31-.4.47-.2.47.47,0-1.64,1.7-1.42,2.9.15.81-.11-.71-1.71,2.53-.68,1.36-1.53.44,1.89,2.41C269.48,208,269.51,207.94,269.58,208.07Zm10.6-21.56s.36.36.33.41C281.21,188.19,280,186.9,280.18,186.51Z"/><path d="M287.25,176.64c.34.19-.41.32,0,.56.73.42,1.07-.27,1.62-1.62.09-1.11-1-1.24-1.86-.46C287.38,176.58,286.92,176.45,287.25,176.64Zm1.44-1.29c0,.52-.2,1-.25.55s-.32-.54-.92-.55S289.06,174.71,288.69,175.35Z"/><path d="M276.06,211.88c-.14.06-.13,0,0,.09A.14.14,0,0,1,276.06,211.88Z"/><path d="M278.27,212.46c-.26,0-.29-.11-.09-.35.38-.46-.2-1.08-.2-.5s-.15-.81-.94-.74-.66,1-.14.49c.3-.3.62,0-.84.52,0,.11-.18,0,2.14,1C278.28,212.44,278.65,212.46,278.27,212.46Z"/><path d="M288.43,216.13c.41.77,2.17-3.15,1.93-3.15-.46,0,.55-.37.67-.9s1.15-.22.61-.55c-.24-.15-.2-.21.22-.37s.44-.18.12-.19c-.86,0,1.06-.13,1.56-3,.21-1.24.26.24,1.67-2.56,1.21-2.4,1.55-2.65,1.58-3.38,0-.43.06-.5.18-.27s.32-.06.77-1,3.21-4.23,2.62-4.22c-.15,0-.07-.17.18-.4s.37-.4,0-.39c-.74,0,.58-.06.44-.77-.07-.36-.06-.39.08-.13s.2.17.25-.12c.11-.66-1.11-.57-.13-.68s3.4-4.51,3.15-4.66.62.81,2.24-4c-2.61,3.56-3.41,2.15-3.32,1.62s-.41-.51-.54-.63c-2.76,5.57-11.15,18.77-9.86,18.78.08,0-5.18,7.14-4.6,7.14.18,0,.2,0,0,.13-1.79.89-.82,2.7-1.26,1.84-.25-.5-.47.4-1.41,1.57l2.53,1C288.41,216.32,288.16,215.64,288.43,216.13Zm9-19.53c.26.16.22.33-.2.32C296.63,196.92,297.62,196.35,297.47,196.6Zm-2,7.36c.42.26-.07.52-.23.2C294.91,203.59,295.48,203.91,295.44,204Z"/><path d="M303.74,185.05c-.49.25-.23.71-.56.51-.06,0,0-.11-.16.23C303.76,185.84,304.13,184.86,303.74,185.05Z"/><path d="M303.64,184.13c.12-.22.25-.46.37-.72C303.79,183.07,303.68,183.85,303.64,184.13Z"/><path d="M303,186.43a.49.49,0,0,1,.35.52c-.1.56.7,1,1.27.63,3-1.79,2.45-5.56,2.09-3.93-.22,1,.37-1.65-1.6-1.27-1.34.27,1.12-.06.68.67-.1.17-.26.19-.33,0-.18-.36-1-.12-1.12.32-.05.21-.15.24-.23.07s-.51,1.14-.92,2c.31.33.14-.23.6-.47s0,.79-.72.74C302.77,186.32,302.68,186.33,303,186.43Zm2.48-2.87c.28.17,0,.67-.2.32C304.93,183.31,305.46,183.51,305.43,183.56Z"/><path d="M296.25,219.65c-.53,0-.06.14.47.33C296.55,219.79,296.38,219.65,296.25,219.65Z"/><path d="M310.36,217.6c-1.09-.56.76.33,1.68-1.19.81-1.33,0-.68,0-1.23,0-.15.12-.19.25-.07s.41-.06.85-.79,3.4-3.61,3.07-4,.78-.29.88-1.07c.2-1.54.93-.45.79-1.52-.05-.35,0-.44.1-.23.24.46.85-.59.7-1.21-.23-.93.17.54,2-2.81,5.79-10.78,2.76-6.64,3.58-8,.26-.44.68.57.28-.59-.45.82-1,2-1.31,1.61s-.27-.17-.32.11-.13.32-.22.15c-.27-.52-.19.87-.79.5s-.63-1.18-.33-2.39c-2.11,1.87-3.51,9.73-10.31,16.87-.46.48-.51.63-.23.62s.27,0,0,.16c-1.47.74-.86,2.12-1.21,1.91s-2.42,3.32-2.23,3.69.08.27-.11.16c-.37-.22-.74.5-.44.5a13.77,13.77,0,0,0-1.45,3.6c-.14.82-.87.48,2.32,1.39C312.07,216,310.86,217.86,310.36,217.6Zm11.34-20.3c.12.08.17.69-.14.51S321.78,197.17,321.7,197.3Z"/><path d="M321.87,197.25c.6.37.52-1,.79-.5.09.17.17.12.22-.15s.15-.32.32-.11.86-.79,1.31-1.61c-.47-1.38-1.51-.89-.75-.43.56.34-.51.37-.44.67s-.73-.14-.35-.43-.54-1.1-.77-.71c-.09.15-.06.27.07.27.41,0,.15.27-.4.41S321.11,196.79,321.87,197.25Z"/><path d="M186.18,160.36c.28.17,0,.48.39,0C186.06,160,185.66,160.05,186.18,160.36Z"/><path d="M173.41,152.73c-1.82,3-3.57,5.88-5,8.37a20.52,20.52,0,0,0,2.62,2.11c.19-.32,2.6-4.35,5.27-8.84Zm-2.7,6.31c-.26.26-.38.24-.5-.08-.2-.54-.19-.56.36-.4C170.6,158.51,171.09,158.66,170.71,159Zm2.11-1.66c0,1-1,.28-.43,0,.13-.07.12-.22,0-.32C171.82,156.66,173,157.05,172.82,157.38Zm1.12-3.1c.15,0,.33.32.3.37C174.41,155.32,173.69,154.35,173.94,154.28Z"/><path d="M182.34,168.05c-.4,0-.08-.49.17-.34s3.71-5.06,2.76-5.06c-.42,0,1.84-2.6.83-1.79-.65.52-.85-1.32-1-1s1.25,1.63.2,1.91c-.64.16-1.2-.4-.75-.76.17-.13.18-.23,0-.23-.4,0,.17-1.55,0-1.65-.31.42-.54.15-.35-.2l-.3-.18c-1.62,1.17-.5,2.29-1.1,1.93-.08,0-.09.23,0,.63.16.91.25-.67-1.59,2.65-2.49,4.5-2.81,3.16.54,4.83C181.85,168.68,183,168.05,182.34,168.05Zm-1.91-1.59c-.38-.23.69-1.15.45-.74C181,166,180.65,166.6,180.43,166.46Z"/><path d="M186.16,160.1l-1.53-.89c-.7,1.64.26,1.51-.13,1.82s.11.92.75.76c1.05-.28-.43-1.52-.2-1.91s.32,1.84,1.28.74C186.32,160.26,185.56,160.14,186.16,160.1Z"/><path d="M203,169.8a.65.65,0,0,0,.06.4c.2.37-.39.62-.27.82C203.65,170,203.55,170.14,203,169.8Z"/><path d="M218.92,179c-.08,0-.07-.09-.13.18C218.83,179.12,218.88,179.07,218.92,179Z"/><path d="M237.73,191.41l0,.08S237.73,191.49,237.73,191.41Z"/><path d="M238,191.9c.21.14,1.2-.47.4-.35C238.4,191.5,237.54,191.63,238,191.9Z"/><path d="M237.91,190.2c.1-.21.14-.15,0-.22A.94.94,0,0,0,237.91,190.2Z"/><path d="M260.88,203.49c.29.17,0,.48.4,0C260.81,203.2,260.33,203.15,260.88,203.49Z"/><path d="M190.6,172.49c-.2-.11-.18-.18,0-.19a9,9,0,0,0,2-3.3c-.11-.4,1.17-.79.51-.79s.34-.06.81-1.38,1-1,.88-1.75c-2.64-1.52-2.91-2.16-3.17,0,0,.31-.15.39-.38.26s-.79.44-.79,1.08c0,.41-1.43,2.4-1.21,2.52.45.27-1.4,1.57-1.93,2.7,3.57,1.78,2.59,1.43,3.22,1.19Q190.89,172.65,190.6,172.49Z"/><path d="M203.44,170.19c.08.18.09.15.06-.08Z"/><path d="M201,174.39c.3.17,1.12-1.09.91-1.22s1.16-1.62.81-2.15c-1.39,1.52-2.19,1-1.86,1.46q.2.26-.06.15c-.73-.35.22-4.19.66-3.07.28.72.58-.24.39-.32a.94.94,0,0,1-.51-.36c-.68-.4-3.46,4.67-3.29,5,.27.56-.09-.54-1,1.08-.81,1.4-.49,1.21,2.4,2.65C201.53,174.62,200.73,174.21,201,174.39Z"/><path d="M203,170.2a.65.65,0,0,1-.06-.4c-2.52-1.46-1.34-.66-1.08-.56s-.11,1-.39.32c-.44-1.12-1.39,2.72-.66,3.07q.25.1.06-.15c-.36-.45.41.13,1.86-1.46C202.63,170.82,203.22,170.57,203,170.2Z"/><path d="M203.37,170c.08.2,0,.18.13.08Z"/><path d="M209,180.84c-.4-.24.72,0,1-1.69.11-.61.25-1,.32-.82.18.33,1.56-2.26,1.41-2.64s.13.18.66-.46c-2.69-1.55-2-.82-2.27-1.09-.54-.5-3.54,5.83-3.45,5.88.33.2-.39.22-.77.82l2.55,1.27A3.35,3.35,0,0,0,209,180.84Z"/><path d="M220.22,179.76c-.23.6-1.7.65-1.43-.57a68.76,68.76,0,0,0-3.64,6.26l2.92,1.45c.65-.92,2.25-4.15,3.36-6.44Z"/><path d="M219.8,180.12c1.07-.14-.16-.7-.88-1.11C218.53,179.53,218.68,180.27,219.8,180.12Z"/><path d="M228.6,187.47c-.18-.44.19.18.67-.47s.85-1,1-1.45c-2.72-1.57-1.38-2.37-5.85,4.5l2.42,1.21C227.78,189.59,228.72,187.77,228.6,187.47Z"/><path d="M240.35,191.38c-1.85,2.58-3,1.42-2.65.11-.46-.65-1.07.76-.79.77s.11.43-.25.35.11-.12-1.26,2.45l3.12,1.33C240.33,193.12,241.67,192.15,240.35,191.38Z"/><path d="M237.73,191.41a1.85,1.85,0,0,1,.3-.57C238.3,190.48,237.61,189.66,237.73,191.41Z"/><path d="M238,190.84c-1.1,1.47.17,3.54,2.32.54C236.58,189.21,238.43,190.3,238,190.84Zm.34.71c.8-.12-.19.49-.4.35C237.54,191.63,238.4,191.5,238.37,191.55Z"/><path d="M248.11,195.86l-2.22,3.65,3.09,1.3C251.46,196.65,251.69,197.93,248.11,195.86Zm.53,1.55c.15,0,.34.32.3.37C249.11,198.45,248.4,197.48,248.64,197.41Z"/><path d="M260.8,204c-.64.52-.84-1.32-1-1s1.24,1.63.2,1.91c-.64.16-1.21-.4-.76-.76.17-.13.19-.23,0-.23-.4,0,.17-1.55,0-1.65-.3.42-.53.15-.34-.2l-.31-.18c-1.62,1.17-.49,2.29-1.09,1.93-.08,0-.09.18,0,.52l2.58,1.07C260.07,205.35,261.66,203.3,260.8,204Z"/><path d="M259.2,204.16c-.45.36.12.92.76.76,1-.28-.44-1.52-.2-1.91s.4,1.5,1,1c.23-.18.33-.35.08-.5s-.33-.24,0-.26l-1.54-.89C258.64,204,259.59,203.85,259.2,204.16Z"/><path d="M266.93,206.73c-.28.19-.43.18-.58,1.3l2.71,1.1C269.87,208.13,270,208.51,266.93,206.73Z"/><path class="cls-8" d="M172.09,164c-2.73,9.57-4.17,27.32-1.23,41.6,1.69,8.18-13.52,24.79-14.89,27s.55,4.65,4.37,5.74a92,92,0,0,0,10.93,1.91,203.17,203.17,0,0,0,14.34,25c6.36,9.22,11.07,14.62,27.19,19.53S236,289.83,236,289.83L258.15,380s26.59-24.55,45.07-43c22.13-22.13,39.89-44.8,38.52-50.26-8.19-7.93-13.11-21.86-18-33.33s-11.2-28.69-11.2-28.69-47.78-17.06-73.83-31.55A400.21,400.21,0,0,0,172.09,164Z"/><path d="M192.33,206c0,2.7-1,4.08-3,4.08s-3-1.38-3-4.08,1-4.09,3-4.09S192.33,203.32,192.33,206Z"/><g class="cls-9"><ellipse class="cls-10" cx="215.97" cy="226.65" rx="16.45" ry="11.23" transform="translate(-12.63 440.55) rotate(-89.48)"/></g><path class="cls-11" d="M172.5,186.15c6.35-4.51,18.85-6.14,26.84-5.12"/><path class="cls-12" d="M237.45,214.84,252.61,212l1.85-10.89c-5.7-2.66-11.09-5.35-15.78-8-1.39-.78-2.78-1.53-4.17-2.28C236.56,199.05,237.45,214.84,237.45,214.84Z"/><path class="cls-13" d="M254.46,214.43c.82-4.72,3.48-10,4.71-11.07"/><path class="cls-13" d="M287,215c-.21,4.3-2.26,16.39-9.84,21.31s-14.55,1.43-16.19-1"/><path class="cls-14" d="M177.52,249.73c5.26,0,14-6.51,17.1-10"/><path class="cls-12" d="M312.51,224.67s-10.17-3.63-23.69-9c.76,4.67,2.79,9.61,7,12.86s16.74,6.49,20.92,7.47C314.33,229.65,312.51,224.67,312.51,224.67Z"/><path class="zero-7" d="M276.2,222.82a8.5,8.5,0,0,0-13.66-10.12,8.22,8.22,0,0,0-1.14,7.6c-.11.12-.21.25-.31.38l-6.1,8.23a4.92,4.92,0,0,0,7.91,5.86l6.09-8.24c.1-.13.19-.27.28-.41A8.24,8.24,0,0,0,276.2,222.82Z"/><path d="M263.61,101.29c.05,0-.11.09-.36.11s-.14,0,.34.24c2.1-2.63,9-13.44,7.78-13.86-.16,0-.11-.22,0-.34l-3.12.33C260.17,101.72,262,99.86,263.61,101.29Zm5.24-10.7c.15,0,.33.32.3.37C269.31,91.64,268.6,90.66,268.85,90.59Z"/><path d="M272,87.37c-.4,0-.27,0-.27.17S271.86,87.59,272,87.37Z"/><path d="M253.26,95.68l3.74-6.3q-2.08.36-4.23.78C249.82,95,249.57,93.54,253.26,95.68Z"/><path d="M262.06,100.33c.05.07,0,.06,0-.11-.46-.23-.28-.12-.53.23C261.75,100.58,261.81,99.94,262.06,100.33Z"/><path d="M261.2,99.87c-.42.25-.37.17,0,.38C261.43,99.81,262.14,99.31,261.2,99.87Z"/><path d="M263.25,101.4c.25,0,.41-.07.36-.11-2.05-1.76-1.46-.64-1.53-.92s-.31-.16-.44.14C263.36,101.5,263.15,101.4,263.25,101.4Z"/><path d="M262.08,100.37c0,.07,0,.06,0,0Z"/><path d="M280.36,111.28c-.18-.43-.34-.37-.38-.18C280.46,111.38,280.39,111.35,280.36,111.28Z"/><path d="M290.32,88.76c.22.13.19.17-.14.18s-.43.19-.5,1c-.11,1.39-.5,1.15-.32.82s-.25-.23-.58.19-.29.83.27.75c.87-.13,0-.11-1,1.08-.47.56-.53.72-.23.58s.35-.09.26.07c-.26.46-.27-.33-1.49,1.81,0,0-5.16,7.43-4.1,6.89.55-.28.16.32-.14.33s-1.88,2.56-1.63,2.71.13.2,0,.28c-.39.22.27.29.08.61s-.35-1-1.1.58-.35,2.23-.83,2.24,0,.8-.42,1a.19.19,0,0,0-.09.11c1.46-.57,1.13-.82.84-.52-.53.52-.55-.44.14-.5s.93,1.4.93.74.58,0,.2.51c-.19.23-.17.34.09.34.48,0-.17-.1-.06.78,1.69-2.29.22-1.78,1-2.08.59-.22,0-.44.57-1.18.27-.39.27-.55,0-.59-.51-.06,0-.4.46-.13.69.39.65-2.23,1.15-1.94s2.79-4.23,2.66-4.92c-.06-.29,0-.51,0-.46s.16-.16.17-.44c0-1,3.3-3.19,2.41-3.16-.62,0,1-.72.47-1-.2-.12-.16-.17.14-.19s.35-.12.25-.3c-.24-.41.81-1.13.52-1.31s.18-1,.43-.9.38-1.08.9-1.74c.21-.25.25-.45.1-.44s1.4-2.74,2-3.31c.39-.36.62-.43-2.57-.75C290.7,88.05,289.9,88.52,290.32,88.76Zm-5.64,14.68c-.48-.28.22-.38.18-.33C285.25,103.11,285,103.61,284.68,103.44Z"/><path d="M298.74,118.06s-.48-.25-.2.32C298.72,118.73,299,118.24,298.74,118.06Z"/><path d="M309.58,96.86c-.2-.42-.69.31-.57.86.07.31,0,.37-.18.24-.48-.31,0,.86-.32.68s.17,1.1-.27.66-.87.34-1.09,1.27c-.34,1.41-1,.39-1.14,1.74-.05.38-.22.72-.36.72-.34,0-2.57,3.5-2.53,3.94s-1.43,1.48-1.11,1.88-1.11.61-.62.63-3.26,5-3,5.46c.09.18,0,.27-.27.28s-.32.06,0,.25c.51.33-.11.57-.24.31s-.77.6-.29.71.16.53-.13.35-.67.46-.42.62-.81,1.7-1.16,2.81c.14.08.55-.66.67-.44s.15.2.12-.14c-.08-1,1.58-1.87,1.92-1.86.14,0,.36.18.55.42.05-.19.09-.28.22-.15.36.34.74-.48,2-2.13s.39-1.1.75-1.67.57.19.62-.65.33-.22.25-.86.28-.47,1.18-1.37,0-1.82.52-1.16.26-.16.67-.87c.31-.53,0-1.45.28-.93s1.77-2.23,1.44-2.24,1.76-1.15,1-1.62c-.18-.11-.12-.18.19-.2s.41-.11.27-.31c-.26-.36,0-.77.19-.41.36.72.49-1.48.9-1.47.67,0,.85-2.38,2-3,.64-.34,1-2,1.25-2.22-.44-.47-.89-.91-1.37-1.35,0,.14-.06.29-.31.13-.42-.27-.22-.39.14-.29l-.64-.57C309.27,96.55,309.87,97.42,309.58,96.86Z"/><path d="M318.1,126.09c-.43-.82-3.11,4.91-3.16,5.2.24.13,0-.15.78-.61s.76.91,1.66.62a.8.8,0,0,1,.83.1c.85-1.26,1.17-1.34,1.1-2s.1-1,.29-.63c.11.21.16.2.16,0s1.63-1.36,2.52-2.9c-.26-2-.54-3.87-.83-5.74C317.65,126.61,318.13,126.15,318.1,126.09Z"/><path d="M280.85,87.09c-.56.21-1.77,1.88-1.6,2.19a.26.26,0,0,1-.16.41c-.78.29-2.26,3.7-3,4-.27.11-.29.19-.07.31s.18.18,0,.2c-.47,0-1.93,3.16-2.71,3.89-.33.32-.4.48-.2.48.48,0-1.63,1.69-1.41,2.89.14.82-.11-.7-1.72,2.54-.67,1.35-1.52.44,1.89,2.41,0-.2,0-.27.07-.15s.32,0,2.19-3.56c.61-1.16.1-1.62.51-1.38s0-.23.87-1,.12-.34.22-1,.24-.74.27-.24c0,.26.08.34.17.19.28-.48,1.07-.8.44-.82s.29.13.66-1.07c.29-1,2.42-3.45,2-3.69s.22.44,1.38-1.79.92-1,1.26-1.56c.12-.21,0-.34-.28-.4s-.44-.08.14-.23.61.13,2.6-3.08C279.5,86.73,281.64,86.8,280.85,87.09Z"/><path d="M278.38,110.06c-.17.06-.14,0,0,.12A.13.13,0,0,1,278.38,110.06Z"/><path d="M280,111.1c.1-.45.34.2.54.31-.11-.87.53-.78.06-.78-.26,0-.28-.11-.09-.34.38-.46-.2-1.08-.2-.51s-.15-.81-.93-.74-.67,1-.14.5c.29-.3.62-.05-.84.52C278.33,110.2,278.31,110.14,280,111.1Z"/><path d="M295.22,103.27c.07,0-5.19,7.14-4.61,7.14.18,0,.2.06.05.13-1.8.9-.82,2.7-1.26,1.84-.27-.53-.5.54-1.64,1.84-.93,1.07-.28,1.21,1.63,2.31,1.69-2,1.09-2.72,1.35-2.22.41.76,2.17-3.16,1.93-3.16-.46,0,.56-.36.68-.89s1.14-.23.6-.56c-.24-.14-.2-.21.22-.36s.44-.19.12-.19c-.85,0,1.06-.13,1.56-3,.22-1.23.26.24,1.68-2.56,1.21-2.4,1.54-2.65,1.57-3.38,0-.43.07-.49.18-.27s.33-.05.78-1,3.2-4.22,2.61-4.22c-.15,0-.07-.17.19-.39s.36-.4.05-.4c-.75,0,.58-.06.43-.76-.07-.37,0-.39.09-.14s.2.18.24-.11c.11-.66-1.1-.57-.12-.68.33,0,.83-.58,1.34-1.28-.86-.47-1.73-.91-2.61-1.31C298.8,95.72,294.24,103.26,295.22,103.27Zm4.56-8.49c.27.16.22.32-.19.32C299,95.09,299.94,94.53,299.78,94.78Zm-2,7.36c.41.25-.07.52-.24.19C297.23,101.76,297.79,102.08,297.76,102.14Z"/><path d="M297.23,121.06l1.21.7c1.29-2.67,1.47-2.54.68-3.51C298.52,120.82,298.09,118.77,297.23,121.06Zm1.81-2c.17-.28.33-.33.29-.28C299.94,119.11,298.6,119.7,299,119Z"/><path d="M298,119.88c1.13-.31,1.43-2,.58-2-.34,0-2,.91-1.92,1.86,0,.34,0,.38-.12.14s-.28.07-.59.48C298.5,121.79,296.5,120.29,298,119.88Zm.75-1.82c.29.18,0,.67-.2.32C298.26,117.81,298.78,118,298.74,118.06Z"/><path d="M313.32,110.52c.25,0,.26,0,0,.17-1.47.74-.87,2.11-1.21,1.9s-2.42,3.32-2.24,3.69.08.28-.11.16c-.36-.22-.74.51-.43.5a13.19,13.19,0,0,0-1.45,3.6,25.37,25.37,0,0,1-2.79,5.08l2.15,1.24c.09-.3.06-.89.23-.56.32.63,5.88-10.4,5.81-10.54s-.15-.16-.15,0-.22.17-.49,0c-1.08-.56.76.34,1.69-1.19.8-1.32,0-.67,0-1.22s.27.53,1.09-.86c.35-.59,3.4-3.62,3.07-4-.19-.24.16-.3.47-.49-1.86-6.61-.5-3.28-5.45,1.92C313.09,110.39,313,110.53,313.32,110.52Z"/><path d="M318,132.92c.49.65.79-2.52-.19-.91C317,133.29,317.58,132.36,318,132.92Z"/><path d="M318.21,131.4a.8.8,0,0,0-.83-.1c-.95.31-1.17-1.86-2.35,0C318,133,317.12,133,318.21,131.4Z"/><path d="M263.2,101.66c.28.17,0,.48.39,0C263.08,101.34,262.68,101.35,263.2,101.66Z"/><path d="M196.08,125.83c.49.59.26-.17.67-.88.31-.52,0-1.44.28-.92s1.77-2.24,1.43-2.25,1.77-1.15,1-1.61c-.18-.12-.12-.19.19-.21s.41-.1.27-.3c-.26-.36,0-.77.19-.42.36.73.49-1.47.9-1.47.66,0,.84-2.38,2-3,.71-.38,1.06-2.41,1.33-2.24s1.1-.92.4-.64c-.35.14,4.89-6,3.32-5.25-.54.26.13-.3.29-1.05-7.74,4.29-4.92,3.4-5.73,4.29-2.11,2.34-1.36,3-1.64,2.5s-.69.31-.57.86c.07.32,0,.38-.18.24-.48-.3,0,.86-.32.69s.16,1.1-.27.66-.87.34-1.09,1.26c-.34,1.41-1,.39-1.14,1.75,0,.38-.22.71-.36.72a13.2,13.2,0,0,0-2.53,3.94c.06.54-1.43,1.47-1.11,1.87s-1.11.62-.62.63c.22,0-.18.71-.76,1.61,3.18,1,2.76,1.09,3.52.33C196.51,126,195.53,125.17,196.08,125.83Zm6.57-14.77c.37,0,.35.56-.06.3C202,111,202.69,111,202.65,111.06Z"/><path d="M216,108c-.13,0-.16-.12-.07-.27.24-.39,1.12.45.77.71s.41.65.35.43,1-.33.44-.67c-.76-.46.28-1,.76.43.28-.51.52-.9.59-.75s.64-.8.59-1.29c-.11-1.25-1.1,3.75,4.81-8.28q-2.53,1-5.1,2.08C213,111.08,216.6,108,216,108Zm2.5-4.49c.6.36-.14.49-.33.12C217.85,103,218.53,103.44,218.49,103.5Z"/><path d="M218.32,132c.32,0,.72-1.32,1.37-1.68.33-.18.4-.31.24-.41s-.09-.22.19-.37c.62-.34.7-1.73,1-1.54.46.28.8-2.18,1.59-2.29s.22-1.08,1.27-1.89c.86-.67.09-.68.73-1.32,1.65-1.65.61-1.74,1.88-3.49s.75-2.54,1.48-2.71c1.18-.27.66-2.45,1.12-2.16s.66-2.31,1.45-2.76,4.09-5.6,4-6.14c0-.29,0-.38.18-.28s1.85-2.19,1.21-1.9.14-.8.4-.64,1-1.16.73-1.31c-.5-.32,1.35,0,.72-1.77-.11-.3-.11-.49,0-.41,1.39,1.12.36-.43,4.12-6.34-1.54.4-3.09.82-4.65,1.27-2.38,4.36-7,11.91-7,12.7.06.61-.32-.08-.63.42s.36.54,0,.71-.81,1.59-.45,1.6c.18,0,.09.09-.19.19-.83.3-.49-.71-1.4.76s-.13,1.66-.54,1.45-.65.3-.24.31c.16,0,.06.12-.23.27-1,.51.12,1.4-.72,1.6-.24.06-.33.15-.21.22.35.22-3.48,5.71-3.17,6.33,0,.08-4.32,5.65-3.22,5.54.43,0,.43,0,0,.13-.66.24-.32.8-.54.39-.55-1-1.92,3.06-2.23,2.86-.16-.1-.21,0-.14.27.13.55-.26,1.18-.67,1.08a34.24,34.24,0,0,0-2,3.31c3.13,1.13,2.41,1.1,3.07.46C218.18,133.24,217.86,132,218.32,132Z"/><path d="M241.24,110.3c.2.5.19.51-.19.22-.69-.52-1.13,1.32-1,1.77.25.69-.07-.11-.45.1-.06,0-1.45,4-1.69,3.52s-.47.14-.22.3-.93,1.36-.85,2-.28-.06-.63.62.2.29-.42,1.28a1.94,1.94,0,0,0-.21.44c.45-.18.93-.19.23.09-1,.39.48.17.69-.17s.82.58,1,.23.81.28.29.72.63.83-.32,1.18c-.53.2,0,0-.16.49.59-.43,1.08-1,.69-1s-.14-.48.14-.31.14-1.06.81-1.23c.3-.07.32-.14.08-.28s-.25-.19.14-.2c.88,0,0-1.13.85-1.4.58-.2.09-.91.07-.37,0,.81-.41-.89.43-.74s2.28-4.4,5.89-10.45c.12-.22.13-.39,0-.39-.35,0,.13.16,6.78-11L250.42,94C245.48,102.18,241,109.61,241.24,110.3Zm6.48-10c-.25.25-.37.23-.49-.08-.2-.55-.19-.56.36-.4C247.62,99.82,248.11,100,247.72,100.35Zm2.11-1.67c0,1-1,.29-.42,0,.13-.07.12-.22,0-.32C248.84,98,250,98.35,249.83,98.68Zm1.13-3.1c.14,0,.33.32.3.38C251.42,96.62,250.71,95.66,251,95.58Z"/><path d="M245.78,132.27c3.23-3.8,3.71-7.37,3.95-6.91s1.13-1.3,1.06-2.06c0-.37-.1-.46-.22-.26-.22.36-.4.06.11-.36.33-.27.37-.22.35.39s.07.51.7-.82c1.25-2.65,3.48-5.7,3.23-6.2-.11-.23-.08-.27.11-.15.37.22.75-.52.43-.52-.14,0-.16-.15-.06-.32.28-.47.75.14.47-.45-.14-.3-.11-.37.09-.25.42.26,3.15-4.13,2.8-4.12s-.2-.08.18-.3c.62-.38.75-.58.38-.58s-.09-.5.17-.34,3.71-5.07,2.76-5.07c-.5,0,1.08-1.35,1.06-2-1,1.11-1-1.18-1.28-.75s1.25,1.64.2,1.91c-.64.17-1.2-.39-.76-.75s-.58-.13.13-1.83c-.2-.11-.35.36-.5.08-.05-.09,0-.21.05-.34l-.3-.17c-1.62,1.17-.5,2.29-1.1,1.93-.08-.05-.09.22,0,.62.16.91.25-.67-1.59,2.65-3.59,6.51-3.68,5.48-3.43,5.94.36.69-.14-.38-1.56,2.38-1.2,2.34-2.8,4-2,4,.34,0,.11.53-.35.25-.63-.38-.14,1-.59,1.07-.29.06.23-.55,0-.48-.46.12,0,2-.66,1.62-.42-.25-.14-.11-1.16,1.78-1.15,2.12-.36,1.48-.64,1.93-.07.14-.19.12-.27,0s-.4,0-.32.34c.14.54-3.93,6.22-3.64,6.41s-.39-.29-1.44,1.36c-.9,1.41-.32,1.25-1,2.32-1.81,2.84-.24,2.57-1.06,3.09a63.07,63.07,0,0,0-3.45,5.41l2.89,1.16a59.8,59.8,0,0,1,3.24-5C244.3,135.72,243.39,135.1,245.78,132.27ZM257.9,107c.14.28-.23.88-.45.75C257.06,107.54,258.14,106.62,257.9,107Z"/><path d="M263.18,101.4l-1.54-.89c-.69,1.64.27,1.51-.13,1.83s.12.92.76.75c1.05-.27-.44-1.51-.2-1.91s.31,1.85,1.28.75C263.34,101.56,262.58,101.45,263.18,101.4Z"/><path d="M185.7,124.71c-.85,0,1.06-.13,1.56-3,0-.22,4.37-5.39-3.24,2.64C186.47,125,186,124.72,185.7,124.71Z"/><path d="M205.77,130.15c.8-1.33,0-.68,0-1.23,0-.15.11-.19.25-.07s.41-.06.84-.79,3.4-3.61,3.07-4,.78-.29.88-1.07c.2-1.54.93-.44.79-1.52-.05-.35,0-.44.1-.23.24.46.85-.59.7-1.21-.23-.93.17.54,2-2.81,5.78-10.78,2.76-6.64,3.57-8,.26-.43.68.55.29-.59-.46.82-1.05,2-1.32,1.61s-.26-.17-.32.11-.13.32-.22.15c-.26-.52-.19.87-.79.5s-.63-1.18-.32-2.39c-2.11,1.87-3.51,9.73-10.31,16.87-.46.48-.52.63-.23.62s.26,0,0,.16c-1.47.74-.86,2.12-1.2,1.91-.16-.1-.82.83-1.39,1.78C204.9,130.87,205.1,131.24,205.77,130.15ZM215.42,111c.12.08.17.69-.13.51S215.5,110.91,215.42,111Z"/><path d="M217.48,108.19c.56.34-.51.37-.44.67s-.72-.14-.35-.43-.53-1.1-.77-.71c-.09.15-.06.28.07.27.73,0-.52.42-.72.61-.31,1.21-.24,2.05.32,2.39s.53-1,.79-.5c.09.17.17.12.22-.15s.16-.32.32-.11.86-.79,1.32-1.61C217.76,107.24,216.72,107.73,217.48,108.19Z"/><path d="M235.81,125.69c2.42-3.71,1.43-2.34.74-2.17-.41.1-.63.07-.53-.09s-.34-.7-.63-.53c-.12.07-.1,0,0-.11.33-.33-.54-.56-.14-.76s.11-.84.34-1.48c-1.36.54-5.77,9.18-5.75,9.09-.2-.39-1.33.72-1.22,1.19.17.68-1.27,3.54-3.47,7.41C231,140.46,226.09,140.6,235.81,125.69Z"/><path d="M229.86,129.64c0,.08,0,0,0,0Z"/><path d="M237.53,122.6c.45-.16.48-.23.24-.53a.44.44,0,0,1,.08-.65c.52-.44-.13-1-.29-.72s-.78-.65-1-.23a1.74,1.74,0,0,1-1,.39c-.11.59,0,1-.25,1.17s.47.43.14.76c-.12.13-.14.18,0,.11.29-.17.8.25.63.53s.5.28,1.35-.34C237.55,122.64,237,122.8,237.53,122.6Z"/><path d="M235.61,120.55c-.11.32-.13.23.23.09C236.54,120.36,236.06,120.37,235.61,120.55Z"/><path d="M280,111.1a.58.58,0,0,0,.06.4c.2.38-.4.62-.27.82C280.69,111.31,280.56,111.43,280,111.1Z"/><path d="M295.94,120.31c-.08,0-.07-.09-.14.18Z"/><path d="M315,133.21c.21.13,1.2-.47.39-.35C315.42,132.8,314.55,132.94,315,133.21Z"/><path d="M314.74,132.72a.19.19,0,0,1,0,.07S314.75,132.8,314.74,132.72Z"/><path d="M314.93,131.5c.1-.21.14-.14,0-.21A.77.77,0,0,0,314.93,131.5Z"/><path d="M255.94,132.22c.61,0,.88.17.92.55s.28,0,.26-.55C257.49,131.58,255.32,132.21,255.94,132.22Z"/><path d="M268.65,106.35c0,.31-.15.38-.38.25s-.79.44-.79,1.09c0,.4-1.43,2.39-1.22,2.52.54.31-2.1,2-2.06,3.26a.27.27,0,0,1-.28.29c-.53,0-.72.64-.22.72.87.15-.47,0-1,1.08s-1,.69-1,1.55-1,1.48-.64,1.48,0,.65-.2.39-.69,0-.39.21-.07.79-.35.63-.81.66-.39.9.38.93.19.58c-.71-1.27-3.64,4.74-3.45,5.37.25.83-.88,1.71-.94,2.86,0,.95-.53.78-.2,1s-.17.34.11,1.49c.83-.76,1.9-.66,1.88.4,0,.13.52-1.4,1.32-3,.09-.18,0-.29-.22-.29s-.22,0,.13-.17c.92-.33.59-2.12,1.12-1.81.25.15,1.05-1.16.65-1.16s-.15-.42.2-.35,2.28-2.84,2-3a3.37,3.37,0,0,1,.57-1.28c1-1.73.18-2.31.65-1.79s1.5-1.8,1.36-1.88c-.45-.27,1.67-2.12,1.36-2.3s.53-1.09,1.06-1.29c.23-.09.25-.19.06-.31s-.19-.17,0-.19a9.05,9.05,0,0,0,2-3.3c-.11-.4,1.16-.79.5-.79s.35-.06.82-1.37,1-1,.88-1.75C269.17,104.86,268.91,104.22,268.65,106.35Zm-8.91,20.12c-.64,0,.32-.56.18-.31C260.19,126.31,260.15,126.47,259.74,126.47Z"/><path d="M257.93,149.32c-.28,0,1.39-2.74,2-3.3s-.06-.35.05-1c.05-.32.13-.34.32-.1s.25.2.27-.25c0-.91.27.21.89-1.32s1.54-1.62,1.27-1.77.5-1,.66-1.87c.07-.41.19-.53.41-.41s.37,0,.61-.81c.43-1.36,1.72-1.89,1.18-2.2-.35-.2.26-.08.65-.5.8-.86,1-1.16.76-1.29s-.11-.18.19-.3c.62-.23,2.13-3.05,2.11-3.93,0-.21.08-.21.25,0,.51.63.47-1.45.77-.93.17.31.52-.14.06-.41-.7-.4.75-.19.73-.82a6.34,6.34,0,0,1,1.51-2.52c.15-.08.18-.4.06-.7-.21-.53-.21-.53.1-.17s.37.26.62-.29c.47-1.06-.05-2.34.33-1.43s.68-.7.67-1,0-.3.15-.1c.31.57,1.08-1.4.5-1.39-.16,0,0-.15.34-.33.73-.38,2.79-3.84,2.57-4.31-.09-.19-.06-.25.08-.17.3.17,1.12-1.09.9-1.21s1.17-1.62.82-2.16c-1.39,1.52-2.19,1.06-1.86,1.47.13.17.11.22-.06.14-.73-.34.22-4.19.66-3.06.28.71.58-.25.38-.32a.91.91,0,0,1-.5-.37c-.68-.39-3.47,4.67-3.29,5,.27.55-.09-.55-1,1.08s.07.89-.19,1.32-1.14-.2-.79.45c.12.24.1.31-.07.21s-1.25,1.38-.81,1.37c.1,0-3.66,5.15-3.3,6,.15.34.12.43-.19.44s-.28,0-.05-.18,0-.61-1,1.22c-.58,1-.7,1.4-.46,1.48s.19.17.05.25c-.41.23-.42-.51-.72,0s.4.52,0,.76c-.25.14-3.25,4.58-2.69,4.58.81,0-1.49.43-1.29,1.74,0,.31,0,.38-.09.18s-.21-.12-.3.2c-.22.76.39.2-.1,1.1s-.74-.1-.8.16c-.57,2.25-1.67,3.08-1.7,3.89s-1,.7-1,1.57-.77,1.1-1.15,2.16c-.56,1.55-1.41,2-1,2.28.22.13.19.16-.14.18s-.43.19-.5,1c-.11,1.4-.5,1.15-.32.83.33-.57-.77.07-.82.67,3.85,1.67,1.88,1.2,3.18-.41C258,149.51,258.08,149.32,257.93,149.32Zm8.37-14.5c.17-.34.3-.27.27-.22C266.64,134.86,266,135.43,266.3,134.82Z"/><path d="M280.45,111.5c.08.17.1.14.07-.09Z"/><path d="M280.38,111.33c.09.21.06.18.14.08Z"/><path d="M280,111.5a.58.58,0,0,1-.06-.4c-2.52-1.45-1.34-.65-1.09-.55s-.1,1-.38.32c-.44-1.13-1.39,2.72-.66,3.06.17.08.19,0,.06-.14-.36-.45.41.12,1.86-1.47C279.64,112.12,280.24,111.88,280,111.5Z"/><path d="M273.85,140.43c0-.05-.49-.25-.19.32C273.84,141.1,274.14,140.6,273.85,140.43Z"/><path d="M287.12,115.44c-.54-.5-3.54,5.83-3.46,5.88.43.26-.89.22-1,1.5-.05.9-.58,0-.67,1.32-.1,1.48-3.38,3.94-3.12,4.43s-1.15,1.74-.49,1.73c.4,0,.08.48-.16.34s-1.73,2.23-1.28,2.23c.18,0,.14.06-.1.15-.56.22-1.38,1.55-.95,1.55s-.42.18-.68.69-1.2.89-.76.88-1.18,1.52-.42,1.71c.34.09.31.12-.14.2s-.53.19-.47.52.05.36-.09.1-.23-.18-.36.26c-.33,1.06-.6,1.25-.51,1.43s.18.14.22-.07c.1-.44.94-.68,1.13-.32.07.14.22.12.33-.05.44-.73-2-.4-.69-.67,2-.38,1.39,2.28,1.61,1.27.27-1.22.45.59,0,1.42-.52,1.08,1.3-1.56.85-1.83-.26-.16-.24-.22.09-.3.65-.16.86-.68.31-.8-.39-.09-.38-.1.07-.16s.75-.48,1.74-2.16c1.65-2.79,1.74-1.72,1.52-2.2-.29-.63.33.12.82-1.24.92-2.57,2-3.68,1.93-4.34-.07-.42,0-.51.3-.51s.34-.05.16-.28-.11-.3.1-.33c.41-.06,1.82-2.6,1.44-2.6-.19,0-.78-.92-.21-.57s1.87-2.39,1.72-2.48c-.4-.24.72,0,1-1.69.1-.61.25-1,.32-.82.17.34,1.56-2.26,1.4-2.63s.14.17.67-.47C286.7,115,287.41,115.71,287.12,115.44Zm-5.21,14.68s-.3.27-.06-.2S282.27,129.83,281.91,130.12Z"/><path d="M272.07,141c-1.14,2.07-.23,1.41,0,.09Z"/><path d="M271.19,143.19l.26-.53C271.2,142.65,271,143,271.19,143.19Z"/><path d="M281.85,129.92c-.24.47.07.18.06.2C282.27,129.83,282.14,129.35,281.85,129.92Z"/><path d="M277.72,157.94c.71-.38,1.06-2.41,1.34-2.24s1.09-.92.39-.64c-.35.13,4.89-6,3.32-5.25-.55.27.19-.34.31-1.12s.19.34,1.28-1.42c5.63-9.06,4.62-8.42,5.07-8.42s.33-.06.15-.29-.16-.26.07-.14a.18.18,0,0,0,.3-.16c0-.78,3.23-5.27,2.67-5.28-.13,0,.09-.47.5-1.07,1.07-1.55.53-1.95.89-1.73.72.46.61-2.17.79-1.75s2.28-3.85,3.64-6.67l-1.21-.7c-.23.61-1.7.65-1.43-.57-2.15,3-8.26,14.91-8.11,15.89.1.6.09.61-.17.28s-.39-.16-1.13.94c-1.17,1.75-1.91,2.64-1.77,3,.23.6-.17-.91-1.26,1.94-.26.67-.46.75.11,1.11,1.18.75-1.18-.54-1.8,2.06-.1.43-.29,0-.66.54-.2.32-.12,1.43-2.71,4.87-1.47,1.94-.45,1.35-1,1.91-2.12,2.34-1.37,3-1.64,2.5s-.7.31-.58.86c.08.32,0,.38-.18.24-.47-.3,0,.86-.32.69s.17,1.1-.26.66c-.27-.26-.7.16-1,.86l2.89,1.47C276.62,159.59,277,158.34,277.72,157.94Zm7.52-17.89c.07,0,.36,1.62,0,.62C284.93,139.83,285.28,140,285.24,140.05Zm-5.05,9.13c.33,0-.09.68-.24.38S280.22,149.13,280.19,149.18Zm-2.83,5c.36,0,.34.56-.07.3C276.71,154.12,277.39,154.14,277.36,154.19Z"/><path d="M296.82,121.42c1.06-.14-.16-.69-.88-1.11C295.55,120.83,295.7,121.57,296.82,121.42Z"/><path d="M282.47,143.84c0-.06.68,0,.18-.33C282.36,143.34,282.07,143.84,282.47,143.84Z"/><path d="M290.3,151.53c.54-.14.81-.41.39-.41-.12,0-.15-.12-.06-.27.23-.39,1.11.45.77.71s.4.65.35.43,1-.33.43-.67c-.75-.46.29-.95.76.43.28-.51.52-.9.6-.75s.63-.8.58-1.29c0-.31,0-.35.13-.13.54,1,7.55-14.31,7.65-14.13s4-6.09,3.72-6.68c-.18-.43.19.19.67-.47,1.25-1.71,1.57-1.1-1.17-2.68C305.07,125.7,287.61,152.21,290.3,151.53Zm7.07-12.62c.13,0,.46.17.42.22C298.11,139.53,297.11,139,297.37,138.91Zm-4.17,7.72c.6.36-.15.49-.34.12C292.56,146.15,293.23,146.57,293.2,146.63Z"/><path d="M314.74,132.72a2.18,2.18,0,0,1,.31-.58C315.31,131.79,314.63,131,314.74,132.72Z"/><path d="M297.43,168.86c.79-.11.21-1.08,1.26-1.89.87-.67.1-.68.73-1.32,1.65-1.65.61-1.74,1.88-3.49s.76-2.54,1.48-2.71c1.18-.27.66-2.45,1.13-2.16s.65-2.31,1.44-2.76,4.09-5.6,4-6.14c0-.29,0-.38.17-.28s1.86-2.19,1.22-1.9.14-.8.39-.64,1-1.16.73-1.31c-.5-.32,1.36,0,.72-1.77-.11-.3-.11-.49,0-.41.59.48.81.44,1-.19,2.48-6.76,5.51-8.18,3.74-9.2-1.85,2.57-3,1.41-2.65.1-.46-.65-1.07.77-.8.77s.11.44-.24.35c-.07,0-.14-.06-.24.1.19,1.06-8.43,14.63-8.33,15.7.06.61-.31-.08-.63.42s.37.54,0,.71-.81,1.59-.45,1.6c.17,0,.08.09-.19.19-.84.3-.49-.71-1.41.76s-.13,1.66-.53,1.45-.66.3-.25.31c.17,0,.06.12-.23.27-1,.51.12,1.4-.72,1.6-.24.06-.33.15-.21.22.36.22-3.47,5.71-3.17,6.33,0,.08-4.32,5.65-3.21,5.54.42,0,.43,0,0,.13-1.05.38-.06.67,2,1.72C296.48,170.41,296.82,169,297.43,168.86Z"/><path d="M293.3,169.5c.32.17.33.2.29.13A.22.22,0,0,0,293.3,169.5Z"/><path d="M315.05,132.14c-1.1,1.48.17,3.55,2.32.55C313.6,130.51,315.45,131.6,315.05,132.14Zm.33.72c.81-.12-.18.48-.39.35C314.55,132.94,315.42,132.8,315.38,132.86Z"/><path d="M316,153.43c.2.5.19.51-.2.22-.69-.52-1.13,1.32-1,1.77.25.69-.06-.11-.45.1-.06,0-1.45,4-1.69,3.51s-.47.15-.21.31-.94,1.36-.86,2-.28-.06-.62.62.19.29-.43,1.28a2.49,2.49,0,0,0-.21.44c.45-.18.93-.19.23.09-1,.39.49.17.69-.17s.82.58,1,.23.81.28.3.72c-.68.58.63.83-.32,1.18-.53.2,0,0-.17.49.59-.43,1.08-1,.7-1s-.15-.48.13-.31.15-1.06.81-1.23c.3-.07.32-.14.09-.28s-.25-.19.13-.2c.88,0,0-1.13.85-1.4.58-.2.09-.91.08-.37,0,.81-.42-.89.42-.74s2.28-4.4,5.89-10.45c.13-.22.13-.39,0-.39-.45,0,0,.3,3.62-5.71-.11-.65-.21-1.32-.31-2-.18.5-.83-.09-.38-.34.13-.07.12-.22,0-.32-.37-.26.05-.17.31,0-.13-.83-.25-1.68-.37-2.53C319.54,146.37,315.69,152.79,316,153.43ZM322.29,143c0-.05.52.09.14.48s-.38.23-.5-.08C321.73,142.85,321.75,142.84,322.29,143Z"/><path d="M325.93,160.74c.34,0,.12.53-.34.25-.64-.38-.15,1-.6,1.07-.29.06.23-.56-.05-.48-.46.12,0,2-.66,1.62-.42-.25-.14-.11-1.16,1.78-1.15,2.12-.36,1.48-.63,1.93-.08.14-.2.12-.27,0s-.41,0-.32.34c.13.54-3.94,6.22-3.64,6.41s-.4-.29-1.45,1.36c-.9,1.41-.32,1.25-1,2.32-1.36,2.14-.81,2.51-.8,2.79,5.43,2.5.9.69,5.48-4.7,3.22-3.8,3.71-7.37,3.94-6.91s1.13-1.3,1.07-2.06c0-.37-.11-.46-.23-.27-.22.37-.4.07.11-.35.33-.27.37-.22.35.39s.07.51.7-.82c2.61-5.5,2.83-2.4,1.24-8.24C326.51,159.26,325.14,160.75,325.93,160.74Z"/><path d="M255.32,136.22c.05-.64-.8.36,0,0Z"/><path d="M255.32,136.22c-.8.36.05-.64,0,0,.8-.36-.08-.69.53-.93a5.62,5.62,0,0,0,1.46-2.84c-.55,1.35-.9,2-1.63,1.62-.41-.24.33-.37,0-.56s.1-.19-.24-1.52c-.45.42-3.77,5.76-3.37,6s-1.07.93-.58.93-.06.74-.21.46.06.19-2.35,3.24c-2.83,3.59-1.26,2.92-2,3.18a2.61,2.61,0,0,0-.84.76l2.72,1.14C249.54,146.78,255.21,137.83,255.32,136.22Zm-6.71,7.16s.35.36.32.41C249.64,145.06,248.38,143.77,248.61,143.38Z"/><path d="M255.44,132c.37,1.46-.1,1.32.24,1.52s-.41.32,0,.56c.73.42,1.08-.27,1.63-1.62C257.39,131.34,256.29,131.21,255.44,132Zm1.42.78c0-.38-.31-.54-.92-.55s1.55-.64,1.18,0C257.14,132.74,256.91,133.24,256.86,132.77Z"/><path d="M272.07,141c.12-.22.24-.46.37-.72C272.22,139.94,272.11,140.72,272.07,141Z"/><path d="M272.17,141.92c-.5.25-.23.71-.56.51-.06,0,0-.11-.16.23C272.19,142.71,272.55,141.73,272.17,141.92Z"/><path d="M269,153c.35-.31.36-.4,0-.39-.74,0,.58-.06.44-.77-.08-.36-.06-.39.08-.13s.2.18.25-.12c.1-.66-1.11-.57-.13-.68s3.4-4.51,3.15-4.66.59.88,2.24-4.05c-2.62,3.56-3.42,2.15-3.32,1.62.58-3.26-3.66,5-7,10.87l2.59,1.21C269.88,152.37,268.12,153.76,269,153Zm-3.27.79c-.64,0,.35-.57.2-.32C266.16,153.63,266.12,153.8,265.7,153.79Z"/><path d="M275.09,140.52c-.22,1,.36-1.65-1.61-1.27-1.33.27,1.13-.06.69.67-.11.17-.26.19-.33.05-.19-.36-1-.12-1.13.32s-.19.11-.27,0a11.87,11.87,0,0,0-.83,2.15c.33.2.06-.26.56-.51s-.27,1-.6.78c-.14-.09-.11-.06-.38.49.13.12.61.22.54.63s.58,2.11,3.32-1.62C275.62,140.47,275.3,139.54,275.09,140.52Zm-1.43.23c-.3-.57.23-.37.19-.32C274.14,140.6,273.84,141.1,273.66,140.75Z"/><path d="M286.31,164.57c0-.35,0-.44.1-.23.25.46.86-.59.71-1.21-.23-.93.16.54,2-2.81,5.79-10.78,2.76-6.64,3.57-8,.26-.43.68.55.29-.59-.46.82-1.05,2-1.32,1.61s-.26-.17-.31.11-.14.32-.22.15c-.27-.52-.19.87-.79.5s-.63-1.18-.33-2.39c-1.51,1.33-4.2,8.61-4.26,8.6-.24,0-1.33,1.7-2.65,3.69.88.49,1.75,1,2.63,1.44C286,164.89,286.43,165.44,286.31,164.57Zm3.81-10.4c.13.08.17.69-.13.51S290.2,154,290.12,154.17Z"/><path d="M292.18,151.32c.56.34-.51.37-.43.67s-.73-.15-.35-.43-.54-1.1-.77-.71c-.09.15-.06.27.06.27.73,0-.52.43-.72.61-.3,1.21-.24,2.05.33,2.39s.52-1,.79-.5c.08.17.17.12.22-.15s.15-.32.31-.11.86-.79,1.32-1.61C292.47,150.37,291.43,150.86,292.18,151.32Z"/><path d="M312.07,166.22c-.85.62-1.48.56-1.35.34s-.33-.7-.63-.53c-.11.07-.1,0,0-.11.33-.33-.54-.56-.14-.76s.07-.72.34-1.48c-1.2.48-5.76,9.16-5.74,9.09-.2-.39-1.34.72-1.22,1.19.2.84-1.14.06,2.88,2C307,173.79,311.56,167.49,312.07,166.22Z"/><path d="M304.57,172.77c0,.08,0,0,0,0Z"/><path d="M310,165.16c-.4.2.47.43.14.76-.12.13-.13.18,0,.11.3-.17.8.25.63.53s.12.19.53.09c.66-.16,1.09-.73.82-.73s-.1-.09.17-.19c.45-.16.48-.23.23-.53a.44.44,0,0,1,.09-.65c.51-.44-.13-1-.3-.72s-.77-.65-1-.23a1.74,1.74,0,0,1-1,.39C310.11,164.58,310.26,165,310,165.16Z"/><path d="M310.54,163.77c.88-.36-.2-.29-.3.14Z"/><path d="M330.65,175.35c.6,0,.87.17.91.55s.34.1.19-.81C331.37,175,330.16,175.34,330.65,175.35Z"/><path d="M330,173.63c.36.21-.17.34.12,1.49,1.64-1.52,2,1.7.83-4.31a4.65,4.65,0,0,0-.74,1.85C330.19,173.61,329.7,173.44,330,173.63Z"/><path d="M332.78,187.92c0-.76.1-.93-.39-.16Z"/><path d="M330,179.35c0-.64-.8.36,0,0Z"/><path d="M330.39,177.2c-.42-.24.33-.37,0-.56s.1-.31-.21-1.41c-.13-.46-3.76,5.67-3.4,5.88s-1.06.93-.58.93-.06.74-.21.46,0,.05-1.35,1.92l2.31,1c2.44-4.05,3.05-5.58,3.09-6.08-.8.36,0-.64,0,0,.79-.36-.07-.69.52-.93a5.34,5.34,0,0,0,1.36-2.34C331.79,175.31,331.59,177.9,330.39,177.2Z"/><path d="M330.15,175.12c.36,1.46-.1,1.33.23,1.52s-.41.32,0,.56c.88.52,1.53-1,1.43-1.68,0,.45-.21.8-.26.38s-.31-.54-.91-.55.72-.39,1.1-.26C331.63,174.31,330.68,174.62,330.15,175.12Z"/><path class="shade-8" d="M268.8,284.5c3.69,9.83-2.46,23.36-7,44.26s6.56,45.89,4.92,62.28,6.56,54.1,6.56,54.1l-44.26-59.42,10.66-81.14Z"/><path class="cls-15" d="M147,283.13c.44-6.59,11.74-11.2,27-9.56s24,2.73,35.52,11.75S227,311,227,311s.55-14.21,9-21.31,21.58-15,32.51-8.47c5.78,3.47-4.37,14.75-9,20.49s-9.56,19.4-9,30.33,4.09,28.13,1.64,42.34,8.74,40.7,15.84,49.72,99,144,99,144,23.09-11.32,61.68-22.13c41-11.47,63.1-11.47,63.1-11.47s16.6,39.75-7.37,103.67c-18.58,49.55-70.08,82.37-114.33,75s-84.83-47.94-116.79-96.5S177,455,172.09,441.45s-15.84-16.8-19.67-31.56a143.56,143.56,0,0,1-4.37-26.22s-12.84,4.37-18.58-6.29-4.37-18-.82-24,7.11-7.92,7.11-7.92A13.71,13.71,0,0,1,139,331.76c6-6.28,11.21-7.1,11.21-7.1s-4.1-9.56,3-16.12,20.76-1.91,26.23,0,14.75,10.38,14.75,10.38-8.2-17.21-15.3-19.67-17.76-3-24.86-5.46S146.68,287.23,147,283.13Z"/><path class="cls-13" d="M259.78,279.86c-4.37,4.91-12,9.56-9.28,15.84a13.27,13.27,0,0,0,7.92,7.65"/><path class="cls-13" d="M227,311a84,84,0,0,1,4.92,20.76"/><path class="cls-13" d="M194.22,318.92a47.44,47.44,0,0,1,9.29,11.2"/><path class="cls-13" d="M135.76,345.42c7.37-2.46,14.2-4.64,20.49-.82"/><line class="cls-13" x1="148.05" y1="383.67" x2="148.6" y2="373.01"/><path class="cls-13" d="M139.31,365.09c3.28,3.28,12.84,11.75,22.95,16.67"/><path class="cls-13" d="M150.24,324.66c9.83-2.46,15-1.64,20.76,0"/><path class="cls-13" d="M147.5,284.5c12.57,1.91,27.87-1.64,29-9.83"/><path class="cls-6" d="M309.37,425.88c2.46,17.21,25,34,25,34"/><path class="cls-15" d="M71.28,551.68S-10.47,439.6-10.47,425.47-3.71,396-4.32,373.83s-.62-28.89,2.46-38.72,9.22-19.67-1.23-21.52S-20.92,324-24,330.81s-11.68,44.25-11.68,44.25l-67-9.83s-19,47.94-1.23,95.89,25.82,94,70.07,141.37S39.94,657.81,80.5,658.43s65.77-16,65.77-16-8-16.6-34.42-48S71.28,551.68,71.28,551.68Z"/></g></g></g></svg>