<svg width="57" height="45" viewBox="0 0 57 45" fill="none" xmlns="http://www.w3.org/2000/svg">
<path d="M51.269 15.8767H6.14571C2.64533 18.9968 0.572266 22.867 0.572266 27.0607C0.572266 42.5715 13.1689 44.9969 28.7077 44.9969C44.2458 44.9969 56.8432 43.7082 56.8432 27.0607C56.8432 22.867 54.7701 18.9968 51.269 15.8767Z" fill="#F68A7A"/>
<path d="M13.9944 15.8765H10.5018C6.75974 22.6671 6.01315 31.7634 8.0729 38.47C8.4651 39.7468 8.96655 40.9885 9.55555 42.191C11.1054 42.8857 12.8185 43.418 14.664 43.8228C13.3907 42.0243 12.3528 40.0206 11.616 37.7935C9.40497 31.1085 10.2223 22.359 13.9944 15.8765Z" fill="#EA6E5A"/>
<path d="M41.5042 32.6796C42.1968 28.6505 42.0693 24.3587 40.8206 20.4402C40.2687 18.7103 39.4318 17.2045 38.3693 15.8774H34.3913C34.7261 16.217 35.0679 16.5567 35.3978 16.9223C36.7074 18.3714 37.3497 20.1706 37.7832 22.0482C38.5389 25.3266 38.6768 28.8081 38.0759 32.1187C37.4869 35.3599 36.3103 38.5052 34.6659 41.3564C33.8535 42.7655 32.9535 43.9239 31.9541 44.9716C33.5621 44.945 35.1288 44.8911 36.6423 44.7951C36.8258 44.5178 37.0065 44.2418 37.1738 43.9715C39.3022 40.5531 40.8213 36.6486 41.5042 32.6796Z" fill="#EA6E5A"/>
<path d="M46.9125 15.8779H43.4199C47.192 22.3604 48.0093 31.11 45.7983 37.7949C45.0216 40.1425 43.9073 42.2408 42.5381 44.1121C44.3597 43.7795 46.0588 43.3277 47.5982 42.7093C48.3027 41.3478 48.8932 39.9324 49.3421 38.4715C51.4011 31.7648 50.6553 22.6686 46.9125 15.8779Z" fill="#EA6E5A"/>
<path d="M19.3393 31.5423C18.7376 28.2317 18.8763 24.7502 19.632 21.4725C20.0648 19.5942 20.7071 17.7949 22.0168 16.3459C22.1617 16.1848 22.3095 16.03 22.458 15.8767H18.6081C17.7515 17.0603 17.0673 18.3791 16.5946 19.8631C15.3458 23.7823 15.2177 28.0741 15.9103 32.1032C16.5925 36.0722 18.1123 39.9774 20.2399 43.3958C20.5124 43.8328 20.8086 44.2824 21.1231 44.7335C22.7052 44.8588 24.3419 44.9338 26.0242 44.9688C24.795 43.7705 23.7116 42.4496 22.7486 40.78C21.1035 37.9281 19.9276 34.7842 19.3393 31.5423Z" fill="#EA6E5A"/>
<path d="M29.1154 15.8767H26.6278C26.37 21.2842 26.7349 26.7533 26.9485 32.1481C27.1159 36.3839 26.896 40.7401 27.3141 44.9899C27.7764 44.9941 28.2407 44.9969 28.7078 44.9969C29.2982 44.9969 29.8837 44.9941 30.4657 44.9892C29.9692 40.4747 30.201 35.8201 30 31.3112C29.7717 26.1741 29.5307 21.0076 29.1154 15.8767Z" fill="#EA6E5A"/>
<path d="M43.7633 5.02235C41.859 5.93702 40.1305 6.92663 37.9818 7.09331C35.5446 7.28241 33.9408 5.96154 31.7564 5.15613C28.7413 4.04466 26.365 5.2885 23.5895 6.43638C20.2817 7.80348 18.5007 7.14163 15.2742 5.88169C12.3628 4.74571 9.00597 6.38105 5.99023 6.55474V15.8786H51.4231V6.72913C50.9097 6.65139 50.3957 6.53862 49.883 6.37194C47.0423 5.44747 46.8596 3.53619 43.7633 5.02235Z" fill="#FBC5BB"/>
<path d="M46.7741 0.598583H10.6399C8.07237 0.598583 5.99023 2.68004 5.99023 5.24754V6.55372C9.00597 6.38003 12.3628 4.74469 15.2742 5.88067C18.5007 7.14061 20.2817 7.80246 23.5895 6.43536C26.365 5.28748 28.7413 4.04364 31.7564 5.15511C33.9408 5.96052 35.5446 7.28139 37.9818 7.09229C40.1305 6.92561 41.859 5.936 43.7633 5.02133C46.8596 3.53517 47.0423 5.44645 49.883 6.37092C50.3957 6.53761 50.9097 6.65037 51.4231 6.72811V5.24754C51.4231 2.68004 49.3416 0.598583 46.7741 0.598583Z" fill="#F68A7A"/>
<path d="M54.1267 30.068C53.9061 33.0683 52.8731 35.8306 51.6258 38.5619C51.1705 39.5586 50.6292 40.5194 50.0759 41.4747C54.2913 38.9198 56.8434 34.5461 56.8434 27.0621C56.8434 22.8683 54.7704 18.9982 51.2693 15.8781H49.877C50.9842 17.7298 52.2442 19.5185 52.9739 21.5419C53.965 24.2901 54.3396 27.1671 54.1267 30.068Z" fill="#EA6E5A"/>
<path d="M3.28824 30.0661C3.07463 27.1652 3.45001 24.2882 4.44102 21.54C5.17079 19.5166 6.43075 17.7279 7.53801 15.8762H6.14571C2.64533 18.9962 0.572266 22.8664 0.572266 27.0602C0.572266 33.8032 2.95489 38.0712 6.92312 40.7444C6.51831 40.0273 6.12888 39.3045 5.78921 38.56C4.54257 35.8286 3.50815 33.0664 3.28824 30.0661Z" fill="#EA6E5A"/>
</svg>
