<svg width="24" height="24" viewBox="0 0 24 24" fill="none" xmlns="http://www.w3.org/2000/svg">
<path d="M15.8571 23.1428H9L8.14286 16.2857H16.7143L15.8571 23.1428Z" stroke="white" stroke-width="1.5" stroke-miterlimit="10" stroke-linecap="round" stroke-linejoin="round"/>
<path d="M20.7943 10.4057C20.4439 10.7107 20.0351 10.9414 19.5928 11.0836C19.1505 11.2258 18.6839 11.2766 18.2214 11.233C17.7589 11.1894 17.31 11.0523 16.9021 10.8299C16.4942 10.6075 16.1357 10.3045 15.8485 9.93937C15.5613 9.57421 15.3512 9.15449 15.2312 8.70568C15.1111 8.25687 15.0835 7.78835 15.15 7.32855C15.2166 6.86875 15.3759 6.42726 15.6182 6.03091C15.8606 5.63455 16.181 5.2916 16.56 5.02285C18.0343 3.85714 22.7143 4.54285 22.7143 4.54285C22.7143 4.54285 22.2857 9.24 20.7943 10.4057Z" stroke="white" stroke-width="1.5" stroke-miterlimit="10" stroke-linecap="round" stroke-linejoin="round"/>
<path d="M15.8571 9.66857C14.866 10.4807 14.0508 11.4863 13.4613 12.624C12.8718 13.7617 12.5204 15.0076 12.4286 16.2857C12.4286 11.1429 9.85714 7.71428 5.57143 5.14285" stroke="white" stroke-width="1.5" stroke-miterlimit="10" stroke-linecap="round" stroke-linejoin="round"/>
<path d="M2.86286 8.57142C3.70219 9.29231 4.78284 9.66957 5.88846 9.62767C6.99409 9.58576 8.04308 9.12779 8.82544 8.34543C9.60779 7.56308 10.0658 6.51408 10.1077 5.40846C10.1496 4.30283 9.77232 3.22218 9.05143 2.38285C7.33714 0.685709 1.28571 0.857137 1.28571 0.857137C1.28571 0.857137 1.14857 6.85714 2.86286 8.57142Z" stroke="white" stroke-width="1.5" stroke-miterlimit="10" stroke-linecap="round" stroke-linejoin="round"/>
</svg>
