<svg width="53" height="47" viewBox="0 0 53 47" fill="none" xmlns="http://www.w3.org/2000/svg">
<path d="M32.9099 46.5327H20.5193C9.6449 46.5327 0.829102 37.717 0.829102 26.8426V5.66037C0.829102 2.86428 3.09557 0.598667 5.89072 0.598667H47.5385C50.3337 0.598667 52.5992 2.86428 52.5992 5.66037V26.8426C52.5992 37.717 43.7843 46.5327 32.9099 46.5327Z" fill="#F25864"/>
<path d="M47.826 0.873421C47.2292 0.697571 46.5987 0.599167 45.9441 0.599167H41.6027C32.7446 14.9051 19.6374 26.115 5.70215 35.7589C6.78019 37.2553 8.00999 38.6342 9.37608 39.8675C24.548 29.3017 38.7644 16.8827 47.826 0.873421Z" fill="#DE4E26"/>
<path d="M19.9873 45.6453C22.133 46.2204 24.3857 46.5327 26.7143 46.5327C27.2171 46.5327 27.7147 46.5145 28.2106 46.4862C37.0419 39.9677 45.3662 32.7243 52.3243 24.4069C52.5028 23.1789 52.5985 21.925 52.5985 20.6469V15.0393C44.0087 27.2047 32.3399 37.0486 19.9873 45.6453Z" fill="#DE4E26"/>
<path d="M24.8616 0.596767H18.0088C13.0092 7.02699 7.14988 12.7908 0.829102 18.0661V20.645C0.829102 22.074 0.949819 23.4728 1.17146 24.8379C10.1235 17.747 18.3494 9.80394 24.8616 0.596767Z" fill="#DE4E26"/>
</svg>
