<svg id="Capa_1" enable-background="new 0 0 511.64 511.64" height="512" viewBox="0 0 511.64 511.64" width="512" xmlns="http://www.w3.org/2000/svg"><path d="m386.019 52.806c-70.165-71.646-194.902-70.228-263.432 3.282-83.619 83.355-64.241 229.552 37.234 288.887v97.665h30v69h132v-69h30v-97.663c103.096-60.136 120.986-209.735 34.198-292.171zm-94.197 428.834h-72v-39h72zm-102-69v-30h132v30zm66-157.909-59.887-79.393 59.887 13.688 59.887-13.688zm73.884 68.333-7.885 4.249v25.327h-51v-67.977l87.5-116v-33.838l-102.5 23.429-102.5-23.429v33.838l87.5 116v67.977h-51v-25.327c-148.272-72.812-102.075-291.274 62.81-297.641 42.32-.851 82.213 14.982 112.387 44.558 75.003 71.339 56.458 201.031-35.312 248.834z"/></svg>