<svg id="Layer_1" enable-background="new 0 0 510 510" height="512" viewBox="0 0 510 510" width="512" xmlns="http://www.w3.org/2000/svg"><g><path d="m480 270c0-24.593-3.925-48.581-11.467-71.257 16.936-16.802 26.467-39.484 26.467-63.743 0-49.626-40.374-90-90-90-20.983 0-40.757 7.079-56.735 20.126-24.463-11.15-50.888-17.832-78.265-19.622v-15.504h30v-30h-90v30h30v15.504c-27.377 1.79-53.802 8.472-78.265 19.622-15.978-13.047-35.752-20.126-56.735-20.126-49.626 0-90 40.374-90 90 0 24.26 9.531 46.941 26.467 63.743-7.543 22.676-11.467 46.664-11.467 71.257 0 77.01 38.38 144.885 98.078 185.841l-16.106 24.159h-36.972v30h53.028l25.901-38.852c30.969 15.601 65.386 23.852 101.071 23.852s70.102-8.252 101.071-23.852l25.902 38.852h53.027v-30h-36.973l-16.105-24.159c59.743-40.987 98.078-108.878 98.078-185.841zm-75-195c33.084 0 60 26.916 60 60 0 11.777-3.375 22.994-9.567 32.55-17.917-34.959-44.904-64.728-77.547-86.097 8.288-4.213 17.508-6.453 27.114-6.453zm-360 60c0-33.084 26.916-60 60-60 9.606 0 18.826 2.24 27.115 6.453-32.607 21.346-59.61 51.097-77.548 86.097-6.192-9.556-9.567-20.774-9.567-32.55zm210 330c-107.523 0-195-87.477-195-195s87.477-195 195-195 195 87.477 195 195-87.477 195-195 195z"/><path d="m255 105c-90.981 0-165 74.019-165 165s74.019 165 165 165 165-74.019 165-165-74.019-165-165-165zm134.162 180c-2.888 26-13.185 49.793-28.733 69.216l-20.576-20.576-21.213 21.213 20.576 20.576c-19.423 15.548-43.216 25.845-69.216 28.733v-29.162h-30v29.162c-26-2.888-49.793-13.186-69.216-28.733l20.576-20.576-21.213-21.213-20.576 20.576c-15.547-19.423-25.846-43.216-28.733-69.216h29.162v-30h-29.162c2.887-25.999 13.186-49.792 28.733-69.216l20.577 20.577 21.213-21.213-20.577-20.577c19.423-15.547 43.216-25.846 69.216-28.733v29.162h30v-29.162c26 2.887 49.793 13.186 69.216 28.733l-20.576 20.576 21.213 21.213 20.576-20.576c15.548 19.423 25.846 43.216 28.733 69.216h-29.162v30z"/><path d="m240 263.787-25.606 25.607 21.212 21.212 34.394-34.393v-66.213h-30z"/></g></svg>