<svg id="Capa_1" enable-background="new 0 0 512.001 512.001" height="512" viewBox="0 0 512.001 512.001" width="512" xmlns="http://www.w3.org/2000/svg"><path d="m376.5 331.376c-41.493 0-75.25 33.757-75.25 75.248v.002c.002 24.88 20.245 45.123 45.125 45.123 24.882 0 45.125-20.243 45.125-45.125h-30c0 8.34-6.785 15.125-15.125 15.125s-15.125-6.785-15.125-15.123c0-24.951 20.299-45.25 45.25-45.25s45.25 20.299 45.25 45.25c0 41.562-33.813 75.375-75.375 75.375s-75.375-33.813-75.375-75.375v-35.458l30.124-30.122v-71.465h-30.124v-27.161h30.124v-71.465l-30.124-30.122v-35.459c0-41.562 33.813-75.375 75.375-75.375s75.375 33.813 75.375 75.375c0 24.951-20.299 45.25-45.25 45.25s-45.25-20.299-45.25-45.249c.001-8.339 6.786-15.125 15.125-15.125 8.34 0 15.125 6.785 15.125 15.125h30c0-24.882-20.243-45.125-45.125-45.125-24.881 0-45.123 20.243-45.125 45.123 0 41.493 33.757 75.25 75.25 75.25s75.25-33.757 75.25-75.25c.001-58.102-47.27-105.373-105.375-105.373-38.325 0-71.932 20.569-90.375 51.244-18.442-30.675-52.05-51.244-90.375-51.244-58.103 0-105.374 47.271-105.374 105.375 0 41.493 33.757 75.25 75.25 75.25s75.25-33.757 75.25-75.248c0 0 0 0 0-.002-.002-24.88-20.245-45.123-45.125-45.123-24.882 0-45.125 20.243-45.125 45.125h30c0-8.34 6.785-15.125 15.125-15.125s15.125 6.785 15.125 15.123c0 24.951-20.299 45.25-45.25 45.25s-45.25-20.299-45.25-45.25c0-41.562 33.813-75.375 75.375-75.375s75.375 33.813 75.375 75.375v35.455l-30.128 30.126v71.465h30.128v27.161h-30.128v71.465l30.128 30.126v35.454c0 41.562-33.813 75.375-75.375 75.375s-75.375-33.813-75.375-75.375c0-24.951 20.299-45.25 45.25-45.25s45.25 20.299 45.25 45.249c-.001 8.339-6.786 15.125-15.125 15.125s-15.125-6.785-15.125-15.125h-30c0 24.882 20.243 45.125 45.125 45.125 24.881 0 45.123-20.243 45.125-45.123 0-41.493-33.757-75.25-75.25-75.25s-75.25 33.757-75.25 75.25c0 58.104 47.271 105.375 105.375 105.375 38.325 0 71.932-20.569 90.375-51.244 18.443 30.675 52.05 51.244 90.375 51.244 58.104 0 105.375-47.271 105.375-105.375 0-41.494-33.758-75.252-75.251-75.252zm-135.627-147.994 15.126-15.125 15.125 15.125v29.038h-30.251zm0 116.2h30.251v29.038l-15.125 15.125-15.126-15.125z"/></svg>