<svg id="Capa_1" enable-background="new 0 0 512 512" height="512" viewBox="0 0 512 512" width="512" xmlns="http://www.w3.org/2000/svg"><g><path d="m512 447.272-30.771-66.277 30.561-30.568-21.192-21.197-22.81 22.815-24.139-51.992 30.077-30.084-21.192-21.197-22.326 22.331-25.874-55.73 23.609-19.948c53.229-44.975 83.757-110.741 83.757-180.435v-14.99h-14.985c-69.679 0-135.43 30.535-180.395 83.776l-20.063 23.755-55.234-25.656 22.326-22.331-21.192-21.197-30.077 30.084-51.98-24.145 22.81-22.815-21.192-21.197-30.561 30.568-66.262-30.779-64.713 64.728 86.576 86.596-10.486 10.488c-17.529 17.532-17.529 46.06 0 63.593 8.764 8.766 20.276 13.148 31.788 13.148s23.025-4.383 31.789-13.149l10.486-10.489 29.91 29.917-60.104 71.167c-16.687-6.662-34.701-8.754-52.705-6.046-21.682 3.26-41.337 13.18-56.84 28.687l-10.596 10.6 49.909 49.921-18.299 21.667 59.296 59.309 21.662-18.303 49.909 49.921 10.596-10.599c15.504-15.507 25.422-35.167 28.681-56.854 2.707-18.006.615-36.026-6.045-52.718l71.15-60.117 30.275 30.282-10.486 10.488c-8.491 8.493-13.167 19.785-13.167 31.796s4.676 23.303 13.167 31.796c8.765 8.767 20.275 13.149 31.789 13.149 11.511 0 23.025-4.384 31.788-13.149l10.486-10.489 86.576 86.597zm-43.314-359.992c-5.335-9.041-11.818-17.425-19.322-24.931s-15.886-13.989-24.924-19.326c18.067-6.757 37.137-10.989 56.704-12.461-1.471 19.572-5.703 38.647-12.458 56.718zm-350.029 116.99c-5.843 5.844-15.35 5.844-21.193 0s-5.843-15.354 0-21.198l10.486-10.489 21.193 21.197zm-76.089-139.479 28.706-28.712 204.934 95.192-76.553 90.644zm.913 285.608c16.54-10.798 36.676-14.233 55.778-9.609l-29.941 35.452zm28.806 68.783 266.928-316.061c14.514-17.185 31.508-31.66 50.238-43.081 14.545 4.569 27.839 12.624 38.719 23.506 10.879 10.882 18.933 24.18 23.5 38.729-11.418 18.734-25.889 35.732-43.07 50.249l-315.988 266.99zm89.094 49.144-25.837-25.843 35.444-29.948c4.623 19.106 1.188 39.248-9.607 55.791zm219.218-232.9 95.394 205.466-28.706 28.712-157.452-157.488zm-51.565 179.269c-5.843 5.845-15.35 5.843-21.193 0-2.83-2.831-4.389-6.595-4.389-10.598 0-4.004 1.559-7.768 4.389-10.599l10.486-10.488 21.193 21.198z"/></g></svg>