<svg id="Capa_1" enable-background="new 0 0 512 512" height="512" viewBox="0 0 512 512" width="512" xmlns="http://www.w3.org/2000/svg"><g><path d="m421.625 210.875v-30.188c0-11.164-3.063-21.622-8.384-30.59l8.384-8.385v-21.274c0-33.188-27-60.188-60.188-60.188h-.062v-60.25h-90.25v60.25h-30.25v-60.25h-90.25v60.25h-.062c-33.188 0-60.188 27-60.188 60.188v21.274l8.389 8.389c-5.32 8.969-8.389 19.422-8.389 30.585v30.188l-60.25.002v126.649l38.912 38.912h23.231c1.823 7.079 4.916 13.648 9.002 19.473-15.323 7.221-25.957 22.809-25.957 40.84v30.125c0 24.882 20.243 45.125 45.125 45.125h271.125c24.882 0 45.125-20.243 45.125-45.125v-30.125c0-18.031-10.634-33.619-25.957-40.84 4.086-5.825 7.179-12.394 9.002-19.473h23.236l38.907-38.907v-126.654zm30.25 30v30.25h-30.25v-30.25zm-150.75-210.875h30.25v30.25h-30.25zm-120.5 0h30.25v30.25h-30.25zm-60.25 90.437c0-16.646 13.542-30.188 30.188-30.188h210.875c16.646 0 30.188 13.542 30.188 30.188v8.848l-51.463 51.464h-168.323l-51.463-51.464v-8.848zm101.961 150.563 33.665 16.832 33.663-16.832h41.711v39.036l-21.338 21.339h-108.074l-21.338-21.339v-39.036zm48.789-24.271-15.125 7.562-15.125-7.562v-35.979h30.25zm-111.713-35.979h51.463v30.25h-60.25v81.462l38.912 38.913h132.927l38.912-38.913v-81.462h-60.25v-30.251h51.463l37.979-37.979c.688 2.524 1.058 5.177 1.058 7.916v180.751c0 16.646-13.542 30.188-30.188 30.188h-210.876c-16.646 0-30.188-13.542-30.188-30.188v-180.751c0-2.736.386-5.38 1.073-7.901zm51.463 210.875v60.375h-30.25v-60.375zm30 0h30.25v60.375h-30.25zm60.25 0h30.25v60.375h-30.25zm-210.75-180.75v30.25h-30.25v-30.25zm-30.25 84.224v-23.974h30.25v45.312h-8.912zm45.187 141.776v-30.125c0-8.34 6.785-15.125 15.125-15.125h30.125.062v60.375h-30.188c-8.338 0-15.124-6.785-15.124-15.125zm301.376 0c0 8.34-6.785 15.125-15.125 15.125h-30.188v-60.375h.062 30.125c8.34 0 15.125 6.785 15.125 15.125v30.125zm23.854-120.437h-8.917v-45.312h30.25v23.979z"/><path d="m210.875 120.499h30v30h-30z"/><path d="m271.125 120.499h30v30h-30z"/></g></svg>