<svg id="Capa_1" enable-background="new 0 0 512.027 512.027" height="512" viewBox="0 0 512.027 512.027" width="512" xmlns="http://www.w3.org/2000/svg"><g><path d="m287.845 160.515-127.279 127.279 63.64 63.639 127.279-127.279zm-84.852 127.279 84.853-84.853 21.213 21.213-84.853 84.853z"/><path d="m404.52 255.982 94.296-94.305c8.501-8.502 13.184-19.804 13.184-31.826 0-12.024-4.684-23.325-13.184-31.818l-84.845-84.845c-8.497-8.504-19.799-13.188-31.822-13.188-12.021 0-23.324 4.682-31.826 13.184l-94.296 94.305-94.351-94.305c-8.501-8.502-19.802-13.184-31.821-13.184s-23.32 4.682-31.821 13.183l-84.846 84.846c-8.504 8.497-13.188 19.798-13.188 31.822 0 12.022 4.682 23.324 13.187 31.828l94.347 94.294-94.35 94.35c-8.502 8.502-13.184 19.803-13.184 31.822s4.682 23.32 13.184 31.822l84.85 84.85c8.501 8.502 19.803 13.184 31.822 13.184s23.32-4.682 31.821-13.183l94.353-94.349 94.294 94.348c8.501 8.501 19.804 13.184 31.825 13.184 12.024 0 23.326-4.684 31.818-13.183l84.85-84.85c8.501-8.501 13.184-19.803 13.184-31.822s-4.682-23.32-13.181-31.819zm-374.52-126.131c0-4.006 1.56-7.77 4.396-10.605l84.851-84.85c2.835-2.835 6.602-4.396 10.608-4.396s7.773 1.561 10.611 4.399l94.348 94.303c-11.923 11.922-87.933 87.926-106.066 106.058l-94.351-94.297c-2.835-2.835-4.397-6.604-4.397-10.612zm110.463 347.753c-2.835 2.835-6.602 4.396-10.608 4.396s-7.773-1.561-10.608-4.397l-84.85-84.85c-2.835-2.835-4.397-6.602-4.397-10.608s1.562-7.773 4.396-10.608c1.786-1.786 239.056-239.045 242.85-242.839l94.291-94.301c2.835-2.835 6.604-4.396 10.612-4.396 4.005 0 7.77 1.56 10.604 4.397l84.854 84.855c2.833 2.83 4.392 6.594 4.392 10.6 0 4.008-1.562 7.777-4.396 10.612zm337.141-84.851-84.855 84.854c-2.83 2.832-6.594 4.392-10.6 4.392-4.008 0-7.776-1.562-10.608-4.394l-94.297-94.351 106.065-106.06 94.296 94.341c2.835 2.835 4.396 6.603 4.396 10.608-.001 4.008-1.563 7.775-4.397 10.61z"/><path d="m367.148 72.426h30v30h-30z" transform="matrix(.707 -.707 .707 .707 50.107 295.822)"/><path d="m409.574 114.852h30v30h-30z" transform="matrix(.707 -.707 .707 .707 32.535 338.251)"/><path d="m324.722 114.852h29.999v30h-29.999z" transform="matrix(.707 -.707 .707 .707 7.684 278.254)"/><path d="m367.148 157.278h30v30h-30z" transform="matrix(.707 -.707 .707 .707 -9.892 320.674)"/><path d="m114.853 324.721h30v30h-30z" transform="matrix(.707 -.707 .707 .707 -202.184 191.318)"/><path d="m157.279 367.147h30v30h-30z" transform="matrix(.707 -.707 .707 .707 -219.763 233.757)"/><path d="m72.426 367.147h30v30h-30z" transform="matrix(.707 -.707 .707 .707 -244.612 173.748)"/><path d="m114.853 409.574h30v30h-30z" transform="matrix(.707 -.707 .707 .707 -262.184 216.17)"/></g></svg>