<svg id="Capa_1" enable-background="new 0 0 512 512" height="512" viewBox="0 0 512 512" width="512" xmlns="http://www.w3.org/2000/svg"><g><g><path d="m395.341 242.679h-133.015v-65.679h-26.667v-74.667h-26.667v-55.333c0-25.916-21.084-47-47-47s-47 21.084-47 47v55.333h-26.667v74.667h-26.666v335h337.375c36.133-34.5 51.308-71.881 51.308-112.902v-101.42c-.001-30.326-24.674-54.999-55.001-54.999zm-250.349-195.679c0-9.374 7.626-17 17-17s17 7.626 17 17v55.333h-34zm-26.667 85.333h87.334v44.667h-87.334zm-26.666 349.667v-275h140.667v35.679h-41c-30.327 0-55 24.673-55 55v101.42c0 29.619 8.93 58.527 25.13 82.902h-69.797zm328.682-82.902c0 30.852-12.116 60.743-33.425 82.902h-187.165c-21.309-22.158-33.425-52.05-33.425-82.902v-48.84h254.016v48.84zm0-78.839h-254.015v-22.58c0-13.785 11.215-25 25-25h204.016c13.785 0 25 11.215 25 25v22.58z"/></g><path d="m232.377 401.129h121.912v30h-121.912z"/></g></svg>