<svg id="Capa_1" enable-background="new 0 0 512 512" height="512" viewBox="0 0 512 512" width="512" xmlns="http://www.w3.org/2000/svg"><g><path d="m252.438 282.797c1.042 0 2.094-.003 3.136-.01 75.32-.5 149.148-19.012 215.55-53.784l-6.778 28.076 29.162 7.04 18.455-76.444-76.443-18.455-7.04 29.162 24.969 6.028c-135.771 69.687-297.161 64.702-429.494-15.339l-8.192-4.954-15.526 25.67 8.191 4.954c73.663 44.555 157.964 68.056 244.01 68.056z"/><path d="m467 331.952h-422c-24.813 0-45 20.187-45 45v90c0 24.813 20.187 45 45 45h422c24.813 0 45-20.187 45-45v-90c0-24.813-20.187-45-45-45zm15 135c0 8.271-6.729 15-15 15h-422c-8.271 0-15-6.729-15-15v-90c0-8.271 6.729-15 15-15h422c8.271 0 15 6.729 15 15z"/><path d="m61 391.952h30v60h-30z"/><path d="m121 391.952h30v60h-30z"/><path d="m181 391.952h30v60h-30z"/><path d="m241 391.952h30v60h-30z"/><path d="m301 391.952h30v60h-30z"/><path d="m361 391.952h30v60h-30z"/><path d="m421 391.952h30v60h-30z"/><path d="m106 143.452c24.813 0 45-20.187 45-45 0-6.178-1.765-17.433-17.025-43.74-7.708-13.288-15.313-24.322-15.633-24.785l-12.342-17.867-12.342 17.867c-.32.463-7.925 11.497-15.633 24.785-15.26 26.307-17.025 37.562-17.025 43.74 0 24.813 20.187 45 45 45zm.003-77.199c8.633 14.543 14.869 27.609 14.997 32.211-.006 8.266-6.733 14.988-15 14.988-8.271 0-15-6.729-15-14.983.122-4.585 6.362-17.657 15.003-32.216z"/><path d="m406 143.452c24.813 0 45-20.187 45-45 0-6.178-1.765-17.433-17.025-43.74-7.708-13.288-15.313-24.322-15.633-24.785l-12.342-17.867-12.342 17.868c-.32.463-7.925 11.497-15.633 24.785-15.26 26.306-17.025 37.561-17.025 43.739 0 24.813 20.187 45 45 45zm.003-77.199c8.633 14.543 14.869 27.609 14.997 32.211-.006 8.266-6.733 14.988-15 14.988-8.271 0-15-6.729-15-14.983.122-4.585 6.362-17.657 15.003-32.216z"/><path d="m256 203.452c41.355 0 75-33.645 75-75 0-17.037-10.659-41.03-32.587-73.348-15.244-22.468-30.266-40.508-30.898-41.265l-11.515-13.791-11.514 13.791c-.632.757-15.654 18.798-30.898 41.265-21.929 32.319-32.588 56.311-32.588 73.348 0 41.355 33.645 75 75 75zm0-155.953c21.455 28.013 45 64.855 45 80.953 0 24.813-20.187 45-45 45s-45-20.187-45-45c0-16.098 23.546-52.941 45-80.953z"/></g></svg>