<svg id="Capa_1" enable-background="new 0 0 512 512" height="512" viewBox="0 0 512 512" width="512" xmlns="http://www.w3.org/2000/svg"><g><path d="m427.43 410.339v-287.353h-105.367v-56.923c0-36.427-29.635-66.063-66.063-66.063s-66.063 29.636-66.063 66.063v56.923h-105.367v287.353l-17.358 101.661h377.576zm-207.493-344.276c0-19.885 16.177-36.063 36.063-36.063s36.063 16.178 36.063 36.063v56.923h-72.127v-56.923zm-117.168 415.937 11.802-69.118v-259.896h282.859v259.896l11.801 69.118z"/><path d="m299.694 238.769c-5.512-18.932-23.007-32.811-43.694-32.811s-38.182 13.879-43.694 32.811c-15.788 7.544-29.316 19.02-39.427 33.522-11.87 17.027-18.145 37.033-18.145 57.855 0 55.838 45.428 101.266 101.266 101.266s101.266-45.428 101.266-101.266c0-20.822-6.274-40.828-18.145-57.855-10.111-14.503-23.639-25.978-39.427-33.522zm-59.205 12.7c0-8.553 6.958-15.511 15.511-15.511s15.511 6.958 15.511 15.511v20.103h-15.511c-8.553 0-15.511-6.958-15.511-15.511zm15.511 149.943c-39.296 0-71.266-31.97-71.266-71.266 0-22.789 11.139-44.062 28.967-57.324 6.69 16.821 23.122 28.749 42.298 28.749h45.511v-26.198c15.939 13.348 25.755 33.39 25.755 54.773.001 39.296-31.969 71.266-71.265 71.266z"/><path d="m256 341.412c-5.045 0-9.149-4.104-9.149-9.149h-30c0 21.587 17.562 39.149 39.149 39.149s39.149-17.562 39.149-39.149h-30c0 5.045-4.104 9.149-9.149 9.149z"/></g></svg>