<svg id="Layer_1" enable-background="new 0 0 510 510" height="512" viewBox="0 0 510 510" width="512" xmlns="http://www.w3.org/2000/svg"><path d="m465 240h-30v-45h-30v-150h-360v315h-45v30c0 41.355 33.645 75 75 75h285c41.355 0 75-33.645 75-75h30c24.813 0 45-20.186 45-45v-60c0-24.814-20.187-45-45-45zm-270-45v45h-120v-94.492c19.923 9.403 47.979 5.975 63.546-4.402 6.605-3.677 10.969-6.105 21.444-6.105 10.483 0 14.848 2.43 21.456 6.107 20.237 13.174 51.912 13.139 72.089 0 6.608-3.677 10.973-6.107 21.456-6.107 10.489 0 14.856 2.43 21.467 6.108 7.92 4.407 17.777 9.892 36.043 9.892 23.52 0 33.064-9.087 42.5-13.232v57.231zm135 111.213v38.787h-30v-38.787l15-15zm45-231.213v31.438c-20.832 4.308-23.029 14.562-42.5 14.562-10.481 0-14.848-2.429-21.456-6.106-20.237-13.171-51.918-13.142-72.098-.001-6.608 3.677-10.973 6.107-21.456 6.107-10.482 0-14.848-2.43-21.455-6.107-20.234-13.171-51.902-13.141-72.08 0-6.607 3.677-10.972 6.107-21.455 6.107-13.551 0-16.946-4.113-27.5-9.326v-36.674zm-300 195h120v90h-120zm-45 120h165c0 16.871 5.603 32.456 15.041 45h-135.041c-24.813 0-45-20.186-45-45zm375 0c0 24.814-20.187 45-45 45h-90c-24.813 0-45-20.186-45-45v-165h75v38.787l-30 30v81.213h90v-81.213l-30-30v-38.787h75zm75-45c0 8.272-6.729 15-15 15h-30v-90h30c8.271 0 15 6.728 15 15z"/></svg>