<svg id="Capa_1" enable-background="new 0 0 512 512" height="512" viewBox="0 0 512 512" width="512" xmlns="http://www.w3.org/2000/svg"><g><path d="m391 225c0-41.355-33.645-75-75-75h-120c-41.355 0-75 33.645-75 75v137h60v150h150v-150h60zm-30 107h-30v-122h-30v272h-30v-150h-30v150h-30v-272h-30v122h-30v-107c0-24.813 20.187-45 45-45h120c24.813 0 45 20.187 45 45z"/><path d="m256 120c33.084 0 60-26.916 60-60s-26.916-60-60-60-60 26.916-60 60 26.916 60 60 60zm0-90c16.542 0 30 13.458 30 30s-13.458 30-30 30-30-13.458-30-30 13.458-30 30-30z"/><path d="m421 482h-30v30h60v-120h-30z"/><path d="m91 392h-30v120h60v-30h-30z"/><path d="m61 271h30v91h-30z"/><path d="m421 271h30v91h-30z"/><path d="m91 30h30v-30h-60v120h30z"/><path d="m391 0v30h30v90h30v-120z"/><path d="m61 150h30v91h-30z"/><path d="m421 150h30v91h-30z"/></g></svg>