<svg id="Capa_1" enable-background="new 0 0 512 512" height="512" viewBox="0 0 512 512" width="512" xmlns="http://www.w3.org/2000/svg"><g><g><path d="m412 312c-55.14 0-100 44.86-100 100s44.86 100 100 100 100-44.86 100-100-44.86-100-100-100zm70 100c0 12.481-3.299 24.2-9.047 34.357-9.942-8.427-15.953-20.949-15.953-34.357s6.011-25.93 15.953-34.357c5.748 10.157 9.047 21.876 9.047 34.357zm-130.953 34.357c-5.748-10.157-9.047-21.876-9.047-34.357s3.299-24.2 9.047-34.357c9.942 8.427 15.953 20.949 15.953 34.357s-6.011 25.93-15.953 34.357zm20.004 22.364c16.191-14.038 25.949-34.664 25.949-56.721s-9.758-42.683-25.949-56.721c11.524-8.342 25.667-13.279 40.949-13.279s29.425 4.937 40.949 13.28c-16.191 14.037-25.949 34.663-25.949 56.72s9.758 42.683 25.949 56.72c-11.524 8.343-25.667 13.28-40.949 13.28s-29.425-4.937-40.949-13.279z"/></g><path d="m490.035 21.924c-29.234-29.235-76.806-29.232-106.045.008l-.286.286-291.741 325.036-50.002 53.724-20.749-20.749-21.212 21.213 110.558 110.558 21.213-21.213-20.783-20.783 53.719-50.004 324.741-291.468.587-.557c14.164-14.163 21.965-32.995 21.965-53.032-.01-20.035-7.81-38.864-21.965-53.019zm-366.344 334.893 20.068-22.359 33.744 33.744-22.359 20.068zm-60.502 65.388 40.234-43.23 29.566 29.566-43.229 40.236zm405.898-315.709-269.224 241.64-36.035-36.035 241.643-269.221c17.563-17.276 45.902-17.191 63.352.257 8.491 8.492 13.171 19.793 13.177 31.813 0 11.891-4.583 23.078-12.913 31.546z"/></g></svg>