<svg id="Capa_1" enable-background="new 0 0 512 512" height="512" viewBox="0 0 512 512" width="512" xmlns="http://www.w3.org/2000/svg"><path d="m460.601 340.204c13.931-30.788 21.273-64.461 21.273-99.266 0-64.357-25.062-124.861-70.569-170.369-45.506-45.507-106.011-70.569-170.367-70.569-64.357 0-124.862 25.062-170.369 70.569s-70.569 106.012-70.569 170.369c0 64.356 25.062 124.861 70.569 170.368s106.012 70.569 170.369 70.569c34.805 0 68.469-7.362 99.256-21.293 14.558 30.384 45.616 51.418 81.496 51.418 49.797 0 90.31-40.513 90.31-90.31 0-35.872-21.025-66.924-51.399-81.486zm21.399 81.486c0 5.613-.787 11.043-2.229 16.203l-43.081-24.866v-49.757c26.022 6.686 45.31 30.343 45.31 58.42zm-120.619 0c0-28.078 19.288-51.735 45.31-58.42v49.757l-43.081 24.865c-1.442-5.158-2.229-10.588-2.229-16.202zm76.608-256.002h-46.43c-24.88 0-45.122 20.242-45.122 45.126 0 8.338-6.784 15.122-15.128 15.122-8.338 0-15.122-6.784-15.122-15.122v-60.252c0-24.88-20.242-45.122-45.128-45.122-24.88 0-45.122 20.242-45.122 45.128 0 8.338-6.784 15.122-15.128 15.122-8.338 0-15.122-6.784-15.122-15.122v-30.127c0-24.884-20.245-45.129-45.129-45.129h-40.101c35.926-28.363 81.26-45.312 130.481-45.312 89.812 0 166.681 56.428 197.051 135.688zm-407.449 90.249h59.776c8.338 0 15.122 6.784 15.122 15.135 0 24.88 20.242 45.122 45.122 45.122h120.506c8.338 0 15.122 6.784 15.122 15.122s-6.784 15.122-15.122 15.122h-30.132c-24.88 0-45.121 20.242-45.121 45.122v55.439c-89.963-19.684-158.628-96.941-165.273-191.062zm210.398 195.938c-5.086 0-10.128-.192-15.125-.548v-59.767c0-8.338 6.784-15.122 15.122-15.122h30.131c24.88 0 45.122-20.242 45.122-45.122s-20.242-45.122-45.122-45.122h-120.507c-8.338 0-15.122-6.784-15.122-15.135 0-24.88-20.242-45.122-45.122-45.122h-59.776c3.23-45.752 21.116-87.515 48.979-120.625h71.039c8.342 0 15.129 6.787 15.129 15.129v30.127c0 24.88 20.241 45.122 45.128 45.122 24.88 0 45.122-20.241 45.122-45.128 0-8.338 6.784-15.122 15.128-15.122 8.338 0 15.122 6.784 15.122 15.122v60.252c0 24.88 20.241 45.122 45.128 45.122 24.88 0 45.122-20.241 45.122-45.126 0-8.338 6.784-15.122 15.122-15.122h55.413c3.2 14.583 4.902 29.72 4.902 45.25 0 32.55-7.423 63.394-20.649 90.947-3.134-.33-6.315-.503-9.536-.503-49.797 0-90.31 40.513-90.31 90.309 0 3.223.173 6.406.504 9.543-27.55 13.224-58.396 20.641-90.944 20.641zm137.694 11.987 28.058-16.195v32.444c-10.82-2.78-20.469-8.502-28.058-16.249zm58.058 16.249v-32.444l28.059 16.195c-7.589 7.747-17.238 13.469-28.059 16.249z"/></svg>