<?xml version="1.0" encoding="iso-8859-1"?>
<!-- Generator: Adobe Illustrator 19.0.0, SVG Export Plug-In . SVG Version: 6.00 Build 0)  -->
<svg xmlns="http://www.w3.org/2000/svg" xmlns:xlink="http://www.w3.org/1999/xlink" version="1.1" id="Layer_1" x="0px" y="0px" viewBox="0 0 511.999 511.999" style="enable-background:new 0 0 511.999 511.999;" xml:space="preserve">
<g>
	<g>
		<path d="M382.587,183.633l-35.879-39.377c-8.543-9.375-13.248-21.524-13.248-34.208V92.273V62.272V0h-41.64h-30.001h-11.64    h-30.001h-41.64v62.272v30.001v17.775c0,12.685-4.704,24.833-13.248,34.208l-35.879,39.377    c-13.589,14.913-21.072,34.238-21.072,54.413v273.952h295.318V238.047C403.66,217.871,396.175,198.546,382.587,183.633z     M291.822,30.001h11.639v32.27h-11.639V30.001z M250.181,30.001h11.64v32.27h-11.64V30.001z M208.541,30.001h11.638v32.27h-11.638    V30.001z M373.658,481.999H138.343V238.048c0-12.684,4.704-24.832,13.248-34.208l35.879-39.377    c13.589-14.913,21.072-34.238,21.072-54.414V92.273h11.639h30.001h11.64h30.001h11.638v17.775    c0,20.177,7.483,39.502,21.072,54.414l35.879,39.377c8.543,9.375,13.248,21.524,13.248,34.208V481.999z"/>
	</g>
</g>
<g>
	<g>
		<path d="M157.415,243.49v181.195h197.171V243.49H157.415z M324.584,394.684H187.416V273.491h137.168V394.684z"/>
	</g>
</g>
<g>
	<g>
		<rect x="200.33" y="296.073" width="111.335" height="30.001"/>
	</g>
</g>
<g>
	<g>
		<rect x="200.33" y="342.105" width="111.335" height="30.001"/>
	</g>
</g>
<g>
</g>
<g>
</g>
<g>
</g>
<g>
</g>
<g>
</g>
<g>
</g>
<g>
</g>
<g>
</g>
<g>
</g>
<g>
</g>
<g>
</g>
<g>
</g>
<g>
</g>
<g>
</g>
<g>
</g>
</svg>
