<svg id="Capa_1" enable-background="new 0 0 509.932 509.932" height="512" viewBox="0 0 509.932 509.932" width="512" xmlns="http://www.w3.org/2000/svg"><path d="m439.611 327.432c6.47-8.031 10.355-18.228 10.355-29.319 0-25.509-18.619-36.693-23.033-42.427-4.492-4.493-6.967-10.466-6.967-16.82v-37.352c0-40.959-20.355-79.806-55.292-102.957l32.139-64.277-141.847-34.28-141.847 34.279 32.138 64.277c-34.956 23.165-55.292 62.021-55.292 102.957v37.352c0 6.354-2.474 12.327-6.967 16.82-4.382 5.692-23.033 16.945-23.033 42.427 0 11.092 3.885 21.288 10.354 29.319-32.925 17.742-55.354 52.55-55.354 92.5v90h480v-90c.001-39.95-22.428-74.757-55.354-92.499zm-49.645-125.918v37.352c0 29.016 20.959 41.939 25.074 47.353 10.564 10.563 3.002 28.713-11.893 28.713-11.455 0-79.176 0-90.507 0l-5.022-29.649c31.978-18.493 52.348-52.821 52.348-90.851v-61.626c18.918 17.407 30 42.047 30 68.708zm-192.937 143.418h25.62l8.127-48.209c15.388 3.773 32.083 3.979 48.352-.01l8.165 48.219h26.615l-56.96 73.233zm132.937-225.5c-.077 79.251.173 75.408-.216 80.622l-74.784-37.392-74.786 37.389c-.385-5.181-.137-1.119-.215-80.618h150.001zm-75.001 76.77 66.364 33.182c-15.324 29.091-43.288 36.258-43.975 36.646-32.679 10.888-71.416-3.688-88.759-36.647zm.001-165.339 98.153 23.721-17.424 34.848h-161.459l-17.424-34.848zm-148.18 284.069c-14.891 0-22.46-18.147-11.893-28.713 4.276-5.625 25.073-18.375 25.073-47.353v-37.352c0-26.661 11.081-51.3 30-68.707v61.625c0 38.019 20.36 72.349 52.314 90.853l-4.998 29.647c-9.818 0-80.61 0-90.496 0zm-61.82 105c0-41.355 33.645-75 75-75h38.3l110.455 135h-223.755zm420 60h-157.483l-31.053-37.953 75.482-97.047h38.054c41.355 0 75 33.645 75 75z"/></svg>