<svg id="Capa_1" enable-background="new 0 0 510 510" height="512" viewBox="0 0 510 510" width="512" xmlns="http://www.w3.org/2000/svg"><g><path d="m465 420v-420h-360c-33.084 0-60 26.916-60 60v390c0 33.084 26.916 60 60 60h360v-30h-30v-60zm-30-30h-300v-360h300zm-360-330c0-16.542 13.458-30 30-30v360c-10.92 0-21.17 2.933-30 8.052zm330 420h-300c-16.542 0-30-13.458-30-30s13.458-30 30-30h300z"/><path d="m405 60h-240v240h240zm-30 210h-180v-180h180z"/><path d="m165 330h240v30h-240z"/><path d="m270 240h30v-45h45v-30h-45v-45h-30v45h-45v30h45z"/></g></svg>