<svg id="Capa_1" enable-background="new 0 0 512 512" height="512" viewBox="0 0 512 512" width="512" xmlns="http://www.w3.org/2000/svg"><g><path d="m256 0c-140.959 0-256 115.049-256 256 0 140.959 115.049 256 256 256 140.959 0 256-115.049 256-256 0-140.959-115.049-256-256-256zm-226 256c0-124.617 101.383-226 226-226 56.922 0 108.988 21.162 148.767 56.02l-43.24 43.24c-28.625-23.874-65.426-38.26-105.527-38.26-90.981 0-165 74.019-165 165 0 27.151 10.86 53.322 30.044 72.96-.028.665-.044 1.345-.044 2.04 0 11.111 3.047 21.52 8.333 30.454l-43.313 43.313c-34.858-39.779-56.02-91.845-56.02-148.767zm330.442 69.82c.386 2.205.558 3.802.558 5.18 0 16.542-13.458 30-30 30h-30v30h-30v-60h-30v60h-30v-30h-30c-16.542 0-30-13.458-30-30 0-1.377.172-2.975.558-5.18l1.447-8.278-6.303-5.557c-16.334-14.402-25.702-34.808-25.702-55.985 0-74.439 60.561-135 135-135s135 60.561 135 135c0 21.177-9.368 41.583-25.702 55.985l-6.303 5.557zm-104.442 156.18c-56.922 0-108.988-21.162-148.767-56.02l43.314-43.314c8.933 5.287 19.342 8.334 30.453 8.334v30h150v-30c33.084 0 60-26.916 60-60 0-.695-.016-1.375-.044-2.04 19.184-19.638 30.044-45.809 30.044-72.96 0-40.101-14.386-76.902-38.26-105.527l43.24-43.24c34.858 39.778 56.02 91.845 56.02 148.767 0 124.617-101.383 226-226 226z"/><path d="m196 211c-24.813 0-45 20.187-45 45s20.187 45 45 45 45-20.187 45-45-20.187-45-45-45zm0 60c-8.271 0-15-6.729-15-15s6.729-15 15-15 15 6.729 15 15-6.729 15-15 15z"/><path d="m316 211c-24.813 0-45 20.187-45 45s20.187 45 45 45 45-20.187 45-45-20.187-45-45-45zm0 60c-8.271 0-15-6.729-15-15s6.729-15 15-15 15 6.729 15 15-6.729 15-15 15z"/></g></svg>