<svg id="Capa_1" enable-background="new 0 0 512 512" height="512" viewBox="0 0 512 512" width="512" xmlns="http://www.w3.org/2000/svg"><g><path d="m181 165h30v30h-30z"/><path d="m301 165h30v30h-30z"/><path d="m490.799 392.437c-13.87-18.869-33.014-32.536-55.365-39.524l-62.203-19.449c17.557-21.977 29.079-48.974 32.02-78.463h.749c33.084 0 60-26.916 60-60s-26.916-60-60-60h-.748c-7.55-75.695-71.604-135.001-149.252-135.001s-141.702 59.306-149.252 135h-.748c-33.084 0-60 26.916-60 60s26.916 60 60 60h.748c2.941 29.49 14.463 56.487 32.02 78.464l-62.202 19.449c-22.351 6.988-41.496 20.656-55.365 39.524s-21.201 41.22-21.201 64.638v54.925h512v-54.926c0-23.417-7.331-45.769-21.201-64.637zm-353.863-137.437h238.128c-2.032 16.222-7.315 31.446-15.173 45h-207.782c-7.859-13.554-13.141-28.778-15.173-45zm0-120h123.53c15.979 0 30.393-6.793 40.535-17.631 10.14 10.838 24.555 17.631 40.534 17.631h33.53c.616 4.915.936 9.921.936 15v75h-240.001v-75c0-5.079.32-10.085.936-15zm119.064 225c-30.362 0-58.121-11.34-79.279-30h158.558c-21.158 18.66-48.917 30-79.279 30zm0 30c25.495 0 49.52-6.401 70.565-17.669-10.402 28.925-38.102 49.669-70.564 49.669-32.461 0-60.161-20.743-70.563-49.667 21.044 11.267 45.068 17.667 70.562 17.667zm180-195c0 16.542-13.458 30-30 30v-60c16.542 0 30 13.458 30 30zm-68.764-90h-25.702c-14.079 0-25.534-11.455-25.534-25.535v-33.356c22.979 13.322 41.15 34.049 51.236 58.891zm-111.236-75c10.355 0 20.408 1.319 30 3.797v45.669c0 14.079-11.455 25.534-25.535 25.534h-115.701c17.838-43.935 60.974-75 111.236-75zm-180 165c0-16.542 13.458-30 30-30v60c-16.542 0-30-13.458-30-30zm406 287h-452v-24.925c0-34.793 22.312-65.146 55.519-75.529l66.415-20.766c6.754 51.406 50.847 91.22 104.067 91.22s97.313-39.814 104.067-91.221l66.413 20.766c33.208 10.384 55.519 40.736 55.519 75.529z"/></g></svg>