<svg id="Layer_1" enable-background="new 0 0 510.001 510.001" height="512" viewBox="0 0 510.001 510.001" width="512" xmlns="http://www.w3.org/2000/svg"><g><path d="m481.155 370.075-2.709 8.127c-4.347 13.041-15.093 22.572-28.06 25.595v-253.796h-30v-60h-29.994l-.007-90.001-30 .002.006 89.999h-29.896l-.442 60h-29.668v253.796c-12.968-3.022-23.714-12.554-28.061-25.596l-2.709-8.126-28.461 9.488 2.708 8.125c9.396 28.19 35.674 47.13 65.389 47.13h51.133v45.183h-45v30h120v-30h-45v-45.183h51.133c29.715 0 55.992-18.94 65.389-47.129l2.709-8.126zm-60.77-190.074v21.015l-90 33.75v-54.765zm-90 86.805 90-33.749v51.762h-30v30h30v30h-30v30h30v30h-90zm29.89-146.805h30.11v30h-30.33z"/><path d="m142.885 360.001c-4.136 0-7.5-3.364-7.5-7.5v-22.5h30v-30c0-33.084-26.916-60-60-60h-30c-33.084 0-60 26.916-60 60v30h30v22.5c0 4.136-3.364 7.5-7.5 7.5-20.678 0-37.5 16.822-37.5 37.5v112.5h180v-112.5c0-20.678-16.822-37.5-37.5-37.5zm-67.5-90h30c16.542 0 30 13.458 30 30h-90c0-16.542 13.458-30 30-30zm-37.5 120c20.678 0 37.5-16.822 37.5-37.5v-22.5h30v22.5c0 20.678 16.822 37.5 37.5 37.5 4.136 0 7.5 3.364 7.5 7.5v22.5h-120v-22.5c0-4.136 3.365-7.5 7.5-7.5zm-7.5 90v-30h120v30z"/></g></svg>