<svg id="Capa_1" enable-background="new 0 0 511.785 511.785" height="512" viewBox="0 0 511.785 511.785" width="512" xmlns="http://www.w3.org/2000/svg"><g><path d="m511.785 255.892c-18.439-14.369-38.675-28.987-59.98-38.333l7.162-3.585c27.324-13.678 41.102-44.638 32.759-73.617-7.103-24.684-30.193-39.603-49.967-41.601-7.713-1.323-12.368-2.121-18.994-8.747-6.624-6.623-7.421-11.278-8.743-18.99-1.986-19.768-16.944-42.885-41.596-49.964-28.972-8.34-59.936 5.435-73.614 32.759l-3.873 7.738c-9.407-21.902-24.3-42.673-39.046-61.55-14.758 18.896-29.626 39.63-39.046 61.55l-3.872-7.736c-13.678-27.323-44.635-41.1-73.616-32.759-24.681 7.099-39.607 30.196-41.601 49.967-1.323 7.713-2.121 12.369-8.747 18.994-6.624 6.624-11.278 7.421-18.99 8.743-19.767 1.985-42.886 16.946-49.964 41.597-8.341 28.977 5.436 59.936 32.759 73.613l7.165 3.586c-21.286 9.336-41.561 23.978-59.981 38.335 19.051 14.886 39.957 29.839 62.078 39.283l-9.263 4.637c-36.659 17.547-47.915 69.375-17.93 98.112 13.368 13.368 25.949 15.524 35.135 17.098 7.712 1.322 12.366 2.119 18.99 8.743 6.626 6.626 7.424 11.281 8.746 18.995 1.574 9.187 3.731 21.768 17.101 35.137 28.741 29.984 80.566 18.732 98.117-17.93 0 .001 4.347-8.683 4.347-8.683 9.36 21.492 24.084 41.927 38.571 60.498 14.5-18.59 29.199-38.985 38.572-60.497l4.347 8.685c13.652 27.451 45.054 41.093 73.615 32.759 24.672-7.096 39.602-30.195 41.594-49.964 1.323-7.711 2.12-12.366 8.744-18.99 6.626-6.625 11.281-7.424 18.994-8.746 59.473-7.814 72.385-86.341 17.209-115.218 0 0-9.26-4.635-9.26-4.635 22.102-9.433 43.046-24.411 62.078-39.284zm-255.892-204.313c8.829 14.57 15.781 30.119 20.781 46.46l-20.781 41.514-20.782-41.513c5.001-16.342 11.953-31.891 20.782-46.461zm-204.311 204.314c14.015-8.492 28.947-15.247 44.609-20.207l42.363 21.206-39.897 19.972c-16.563-5.013-32.318-12.029-47.075-20.971zm204.311 204.312c-8.603-14.198-15.421-29.337-20.397-45.227l20.397-40.748 20.398 40.749c-4.978 15.89-11.796 31.028-20.398 45.226zm207.004-95.078c-.875 3.038-2.416 6.79-7.214 11.587-6.626 6.625-11.281 7.424-18.994 8.746-9.187 1.575-21.769 3.732-35.138 17.102-13.368 13.368-15.524 25.949-17.099 35.136-1.322 7.712-2.119 12.366-8.744 18.991-15.657 15.753-40.904 8.241-50.071-10.147 0 0-69.745-139.33-69.745-139.33l-69.744 139.328c-7.211 14.403-23.4 21.7-38.491 17.358-3.036-.874-6.787-2.415-11.587-7.213-6.625-6.625-7.423-11.281-8.745-18.994-1.575-9.187-3.731-21.769-17.102-35.139-13.368-13.368-25.949-15.524-35.136-17.098-7.712-1.322-12.366-2.119-18.989-8.743-4.799-4.798-6.339-8.548-7.212-11.583-4.345-15.092 2.956-31.279 17.358-38.489l139.328-69.746-139.327-69.746c-14.402-7.21-21.703-23.396-17.358-38.489.873-3.035 2.413-6.784 7.211-11.583 6.624-6.624 11.279-7.421 18.99-8.743 9.187-1.574 21.768-3.73 35.136-17.098 13.37-13.37 15.526-25.952 17.102-35.139 1.322-7.712 2.12-12.368 8.745-18.993 4.8-4.799 8.551-6.34 11.587-7.214 15.095-4.342 31.281 2.956 38.491 17.358l69.744 139.328 69.745-139.329c7.21-14.403 23.396-21.704 38.489-17.359 3.035.874 6.785 2.414 11.583 7.212 6.624 6.624 7.421 11.278 8.743 18.99 1.574 9.187 3.73 21.768 17.099 35.136 13.369 13.369 25.951 15.526 35.138 17.101 7.713 1.322 12.368 2.121 18.994 8.746 4.798 4.798 6.339 8.55 7.214 11.587 4.345 15.093-2.956 31.28-17.359 38.49l-139.326 69.745 139.326 69.745c14.402 7.209 21.702 23.396 17.358 38.489zm-49.768-88.263-39.897-19.972 42.363-21.206c15.662 4.96 30.594 11.715 44.609 20.207-14.758 8.942-30.512 15.958-47.075 20.971z"/><path d="m298.66 155.125h88v30h-88z" transform="matrix(.707 -.707 .707 .707 -19.934 292.126)"/><path d="m127.539 326.246h88v30h-88z" transform="matrix(.707 -.707 .707 .707 -191.054 221.245)"/><path d="m327.72 297.599h30v88h-30z" transform="matrix(.707 -.707 .707 .707 -141.167 342.392)"/><path d="m156.601 126.479h30v87.999h-30z" transform="matrix(.707 -.707 .707 .707 -70.286 171.271)"/></g></svg>