<?xml version="1.0" encoding="iso-8859-1"?>
<!-- Generator: Adobe Illustrator 19.0.0, SVG Export Plug-In . SVG Version: 6.00 Build 0)  -->
<svg xmlns="http://www.w3.org/2000/svg" xmlns:xlink="http://www.w3.org/1999/xlink" version="1.1" id="Capa_1" x="0px" y="0px" viewBox="0 0 512 512" style="enable-background:new 0 0 512 512;" xml:space="preserve">
<g>
	<g>
		<polygon points="441.452,185.453 420.256,206.649 454.622,241.014 270.989,241.014 270.989,57.378 305.354,91.744 326.55,70.548     256.001,0 185.453,70.548 206.649,91.744 241.014,57.378 241.014,241.014 57.378,241.014 91.744,206.649 70.548,185.453     0,256.001 70.548,326.55 91.744,305.354 57.378,270.989 241.014,270.989 241.014,454.622 206.649,420.256 185.453,441.452     256.001,512 326.55,441.452 305.354,420.256 270.989,454.622 270.989,270.989 454.622,270.989 420.256,305.354 441.452,326.55     512,256.001   "/>
	</g>
</g>
<g>
</g>
<g>
</g>
<g>
</g>
<g>
</g>
<g>
</g>
<g>
</g>
<g>
</g>
<g>
</g>
<g>
</g>
<g>
</g>
<g>
</g>
<g>
</g>
<g>
</g>
<g>
</g>
<g>
</g>
</svg>
