<svg id="Capa_1" enable-background="new 0 0 512 512" height="512" viewBox="0 0 512 512" width="512" xmlns="http://www.w3.org/2000/svg"><g><path d="m491.312 488.431c-23.244-33.394-57.03-61.381-97.707-80.938-41.495-19.949-89.078-30.493-137.605-30.493s-96.109 10.544-137.604 30.493c-5.355 2.574-10.587 5.299-15.694 8.159v-83.932c10.846 1.426 19.037 3.572 27.491 5.789 15.914 4.174 32.37 8.491 64.804 8.491 32.435 0 48.892-4.316 64.807-8.491 14.723-3.862 28.629-7.509 57.195-7.509s42.473 3.647 57.195 7.509c15.914 4.175 32.371 8.491 64.806 8.491h15v-330h-15c-28.566 0-42.473-3.647-57.195-7.509-15.915-4.175-32.372-8.491-64.807-8.491s-48.892 4.316-64.807 8.491c-14.723 3.862-28.629 7.509-57.195 7.509-28.564 0-42.47-3.647-57.192-7.509-15.914-4.175-32.37-8.491-64.804-8.491l-.298 435.133c-20.566 15.42-38.162 33.398-52.013 53.298l-16.405 23.569h503.433zm-109.507-179.94c-15.915-4.175-32.372-8.491-64.807-8.491s-48.892 4.316-64.807 8.491c-14.723 3.862-28.629 7.509-57.195 7.509-28.564 0-42.47-3.647-57.192-7.509-10.145-2.661-20.518-5.378-35.102-7v-29.771c10.846 1.426 19.037 3.572 27.491 5.789 15.914 4.174 32.37 8.491 64.804 8.491 32.435 0 48.892-4.316 64.807-8.491 14.723-3.862 28.629-7.509 57.195-7.509s42.473 3.647 57.195 7.509c13.253 3.476 26.89 7.048 49.807 8.147v29.961c-18.96-1.032-30.312-4.009-42.196-7.126zm-251.613-150.982c15.914 4.174 32.37 8.491 64.804 8.491 32.435 0 48.892-4.316 64.807-8.491 14.723-3.862 28.629-7.509 57.195-7.509s42.473 3.647 57.195 7.509c13.253 3.476 26.89 7.048 49.807 8.147v29.96c-18.956-1.033-30.312-4.009-42.195-7.125-15.915-4.175-32.372-8.491-64.807-8.491s-48.892 4.316-64.807 8.491c-14.723 3.862-28.629 7.509-57.195 7.509-28.564 0-42.47-3.647-57.192-7.509-10.145-2.661-20.518-5.378-35.102-7v-29.771c10.846 1.426 19.036 3.572 27.49 5.789zm-27.49-36.018v-29.771c10.846 1.426 19.037 3.572 27.491 5.789 15.914 4.174 32.37 8.491 64.804 8.491 32.435 0 48.892-4.316 64.807-8.491 14.721-3.862 28.628-7.509 57.194-7.509s42.473 3.647 57.195 7.509c13.253 3.476 26.89 7.048 49.807 8.147v29.96c-18.956-1.033-30.312-4.009-42.195-7.125-15.915-4.175-32.372-8.491-64.807-8.491s-48.892 4.316-64.807 8.491c-14.723 3.862-28.629 7.509-57.195 7.509-28.564 0-42.47-3.647-57.192-7.509-10.145-2.661-20.518-5.378-35.102-7zm27.49 96.018c15.914 4.174 32.37 8.491 64.804 8.491 32.435 0 48.892-4.316 64.807-8.491 14.723-3.862 28.629-7.509 57.195-7.509s42.473 3.647 57.195 7.509c13.253 3.476 26.89 7.048 49.807 8.147v29.96c-18.956-1.033-30.312-4.009-42.195-7.125-15.915-4.175-32.372-8.491-64.807-8.491s-48.892 4.316-64.807 8.491c-14.723 3.862-28.629 7.509-57.195 7.509-28.564 0-42.47-3.647-57.192-7.509-10.145-2.661-20.518-5.378-35.102-7v-29.771c10.846 1.426 19.036 3.572 27.49 5.789zm64.804-171.509c32.435 0 48.892-4.316 64.807-8.491 14.722-3.862 28.629-7.509 57.195-7.509s42.473 3.647 57.195 7.509c13.254 3.477 26.884 7.051 49.807 8.149v29.958c-18.956-1.033-30.312-4.009-42.195-7.125-15.915-4.175-32.372-8.491-64.807-8.491s-48.892 4.316-64.807 8.491c-14.723 3.862-28.629 7.509-57.195 7.509-28.564 0-42.47-3.647-57.192-7.509-10.145-2.661-20.518-5.378-35.102-7v-29.771c10.846 1.426 19.037 3.572 27.491 5.789 15.913 4.175 32.369 8.491 64.803 8.491zm-130.291 436c45.09-46.837 115.617-75 191.295-75s146.205 28.163 191.295 75z"/></g></svg>