<?xml version="1.0" encoding="iso-8859-1"?>
<!-- Generator: Adobe Illustrator 19.0.0, SVG Export Plug-In . SVG Version: 6.00 Build 0)  -->
<svg xmlns="http://www.w3.org/2000/svg" xmlns:xlink="http://www.w3.org/1999/xlink" version="1.1" id="Layer_1" x="0px" y="0px" viewBox="0 0 512 512" style="enable-background:new 0 0 512 512;" xml:space="preserve">
<g>
	<g>
		<path d="M435.389,359.807l-2.452-3.845c-0.333-0.523-33.43-53.063-39.244-118.417c-3.598-40.438-16.43-74.55-37.11-98.65    c-13.783-16.063-30.629-27.64-50.361-34.666V0H205.761v104.098c-50.679,17.71-81.973,64.357-87.948,133.859    c-5.591,65.046-38.568,118.023-38.891,118.534l-2.441,3.853l0.13,87.177l102.273-0.153c6.501,36.68,38.591,64.632,77.108,64.632    c38.597,0,70.743-28.069,77.149-64.862l102.378-0.153L435.389,359.807z M237.107,31.347h0.001h37.768v65.812    c-6.144-0.683-12.495-1.028-19.053-1.028c-0.093,0-0.188,0-0.282,0c-6.333,0.009-12.479,0.346-18.434,0.999V31.347z     M149.046,240.642c3.93-45.726,21.75-99.252,81.553-110.864h49.952c63.16,12.468,78.567,72.885,81.917,110.545    c4.036,45.372,19.513,84.652,30.997,108.434l-275.092,0.411C129.786,325.353,145.145,286.025,149.046,240.642z M255.992,480.653    c-21.095,0-38.989-13.978-44.91-33.156H300.9C294.982,466.675,277.088,480.653,255.992,480.653z M107.912,416.126l-0.053-35.595    l296.214-0.442l0.052,35.597L107.912,416.126z"/>
	</g>
</g>
<g>
</g>
<g>
</g>
<g>
</g>
<g>
</g>
<g>
</g>
<g>
</g>
<g>
</g>
<g>
</g>
<g>
</g>
<g>
</g>
<g>
</g>
<g>
</g>
<g>
</g>
<g>
</g>
<g>
</g>
</svg>
