<svg id="Capa_1" enable-background="new 0 0 511.647 511.647" height="512" viewBox="0 0 511.647 511.647" width="512" xmlns="http://www.w3.org/2000/svg"><g><path d="m487.591 123.212c-13.509-11.803-32.445-22.253-56.28-31.061-47.108-17.407-109.431-26.994-175.487-26.994-66.057 0-128.379 9.587-175.487 26.995-23.835 8.808-42.771 19.258-56.28 31.061-10.975 9.587-24.057 25.339-24.057 45.934v177.98c0 46.319 65.255 84.006 170.3 98.355l7.374 1.007 78.15-78.149 78.149 78.149 7.374-1.007c105.045-14.349 170.3-52.037 170.3-98.355v-177.98c0-20.595-13.082-36.347-24.056-45.935zm-396.856-2.92c43.863-16.208 102.493-25.135 165.089-25.135s121.226 8.926 165.089 25.135c38.03 14.053 60.735 32.317 60.735 48.855 0 12.238-13.178 26.126-36.156 38.103-24.904 12.981-60.512 23.365-100.878 29.474l-88.79-88.79-88.79 88.79c-40.366-6.109-75.975-16.493-100.878-29.474-22.978-11.977-36.156-25.864-36.156-38.103 0-16.538 22.705-34.802 60.735-48.855zm96.595 138.562 53.494-53.493v135.554l-53.494 53.494zm83.494-53.493 53.493 53.493v135.554l-53.493-53.493zm-240.824 14.512c26.891 20.575 70.793 36.651 127.33 45.703v59.579c-36.355-6.24-68.286-15.974-91.175-27.904-22.977-11.978-36.155-25.865-36.155-38.104zm0 127.255v-37.254c26.891 20.575 70.793 36.651 127.33 45.702v57.559c-36.354-6.24-68.287-15.974-91.175-27.904-22.977-11.977-36.155-25.865-36.155-38.103zm415.492 38.103c-22.888 11.93-54.821 21.664-91.175 27.904v-57.559c56.537-9.051 100.44-25.127 127.331-45.703v37.255c-.001 12.238-13.179 26.126-36.156 38.103zm0-87.981c-22.888 11.93-54.82 21.664-91.175 27.904v-59.579c56.537-9.051 100.44-25.127 127.331-45.703v39.274c-.001 12.24-13.179 26.127-36.156 38.104z"/></g></svg>