<svg id="Capa_1" enable-background="new 0 0 512 512" height="512" viewBox="0 0 512 512" width="512" xmlns="http://www.w3.org/2000/svg"><g><path d="m509.76 348.388 2.24-29.916-27.982-2.095c.392-5.074.596-10.183.596-15.322 0-34.916-9.138-68.508-26.353-98.486 64.479-73.891 27.041-185.655 20.183-202.436-20.29 4.759-108.48 23.228-150.925 100.581-22.783-6.891-46.857-10.472-71.519-10.472s-48.735 3.58-71.517 10.471c-43.236-80.592-142.109-98.311-150.927-100.58-10.959 26.025-40.568 133.34 20.181 202.44-17.213 29.977-26.35 63.568-26.35 98.482 0 5.139.203 10.248.596 15.322l-27.983 2.095 2.24 29.916 30.358-2.273c4.607 19.626 12.222 38.442 22.635 55.981l-47.944 29.212 15.609 25.619 49.505-30.163c6.762 8.36 14.242 16.318 22.413 23.808 43.12 39.526 100.363 61.295 161.184 61.295s118.063-21.769 161.184-61.295c8.171-7.49 15.651-15.448 22.413-23.808l49.505 30.163 15.609-25.619-47.945-29.212c10.413-17.539 18.029-36.354 22.635-55.981zm-51.388-311.97c8.312 31.478 15.256 98.244-17.762 140.21-7.505-9.393-16.918-19.485-27.006-28.294l35.089-63.43-26.251-14.521-32.917 59.503c-10.672-7.108-21.926-13.312-33.653-18.569 24.781-44.411 77.511-66.563 102.5-74.899zm-404.737-.029c24.966 8.28 77.612 30.333 102.494 74.927-11.727 5.258-22.981 11.461-33.653 18.569l-32.917-59.503-26.251 14.522 35.089 63.43c-8.607 7.438-19.466 18.726-27.011 28.301-32.984-42.061-26.111-108.433-17.751-140.246zm377.406 350.032-35.643-21.717-15.609 25.619 33.828 20.611c-36.335 43.094-93.468 70.932-157.617 70.932s-121.282-27.838-157.617-70.932l33.828-20.611-15.609-25.619-35.643 21.717c-7.853-13.291-13.925-27.574-17.941-42.584l49.484-3.705-2.24-29.916-52.352 3.92c-.341-4.322-.524-8.682-.524-13.082 0-99.7 89.098-180.812 198.614-180.812s198.614 81.112 198.614 180.812c0 4.399-.183 8.76-.524 13.082l-52.352-3.92-2.24 29.916 49.484 3.705c-4.016 15.01-10.088 29.294-17.941 42.584z"/><path d="m281.873 409.352c-5.931 0-10.71-4.638-10.881-10.559h-.002c.001-.11.008-.218.008-.329v-9.4c19.066-5.948 32.866-22.9 32.866-42.844 0-24.882-21.472-45.125-47.864-45.125s-47.864 20.243-47.864 45.125c0 19.942 13.798 36.893 32.861 42.842v9.402c0 6.003-4.884 10.887-10.887 10.887-5.93 0-10.71-4.638-10.881-10.559l-29.987.867c.644 22.257 18.595 39.692 40.869 39.692 9.778 0 18.762-3.454 25.806-9.201 7.047 5.763 16.074 9.201 25.957 9.201 22.545 0 40.887-18.342 40.887-40.887h-30c-.001 6.004-4.885 10.888-10.888 10.888zm-25.873-78.256c9.85 0 17.864 6.785 17.864 15.125s-8.014 15.125-17.864 15.125-17.864-6.785-17.864-15.125 8.014-15.125 17.864-15.125z"/><g><path d="m183.164 210.723c-28.211 0-51.162 22.951-51.162 51.162h30c0-11.669 9.493-21.162 21.162-21.162s21.163 9.493 21.163 21.162h30c-.001-28.211-22.952-51.162-51.163-51.162z"/><path d="m328.836 210.723c-28.211 0-51.163 22.951-51.163 51.162h30c0-11.669 9.494-21.162 21.163-21.162s21.162 9.493 21.162 21.162h30c.001-28.211-22.951-51.162-51.162-51.162z"/></g></g></svg>