<svg id="Capa_1" enable-background="new 0 0 512 512" height="512" viewBox="0 0 512 512" width="512" xmlns="http://www.w3.org/2000/svg"><g><path d="m87 0v512h338v-512zm101.687 30h134.626v31.352h-134.626zm206.313 452h-278v-452h41.687v61.352h194.626v-61.352h41.687z"/><path d="m232.25 163h47.5v30h-47.5z"/><path d="m154.75 163h47.5v30h-47.5z"/><path d="m309.75 163h47.5v30h-47.5z"/><path d="m232.25 241.676h47.5v30h-47.5z"/><path d="m154.75 241.676h47.5v30h-47.5z"/><path d="m309.75 241.676h47.5v30h-47.5z"/><path d="m232.25 320.351h47.5v30h-47.5z"/><path d="m154.75 320.351h47.5v30h-47.5z"/><path d="m309.75 320.351h47.5v30h-47.5z"/><path d="m241 422h30v30h-30z"/></g></svg>