<svg id="Capa_1" enable-background="new 0 0 511.999 511.999" height="512" viewBox="0 0 511.999 511.999" width="512" xmlns="http://www.w3.org/2000/svg"><g><path d="m360.499 29.669c-39.198 0-76.449 15.065-104.5 41.816-28.05-26.751-65.3-41.816-104.499-41.816-83.537 0-151.5 67.963-151.5 151.5 0 24.922 6.304 49.491 18.734 73.026 48.089 91.039 229.921 222.839 237.265 228.135 7.344-5.297 189.177-137.097 237.265-228.135 12.432-23.536 18.735-48.105 18.735-73.026 0-83.537-67.963-151.5-151.5-151.5zm-8.634 30.316c2.862-.203 5.741-.316 8.634-.316 57.644 0 106.039 40.352 118.426 94.291-8.757 5.106-19.75 4.43-28.426-1.49-5.083-3.468-12.568-12.841-12.568-12.841l-10.693 7.476c-13.924 9.734-31.516 13.083-47.954 9.318-8.525-14.548-10.614-32.334-5.51-48.539l3.921-12.445s-10.778-3.812-16.023-8.132c-8.347-6.875-12.395-17.247-9.807-27.322zm-200.365-.316c2.893 0 5.771.113 8.634.316 2.587 10.075-1.517 20.378-9.807 27.322-4.411 3.695-16.022 8.132-16.022 8.132l3.921 12.445c5.104 16.204 3.016 33.99-5.511 48.539-16.437 3.765-34.03.416-47.954-9.318l-10.696-7.477s-7.398 9.624-12.565 12.843c-8.914 5.554-19.669 6.594-28.425 1.489 12.386-53.939 60.781-94.291 118.425-94.291zm315.236 180.514c-38.963 73.765-174.791 178.179-210.738 205.012-35.953-26.833-171.752-131.208-210.736-205.012-9.456-17.902-14.556-36.4-15.191-55.045 15.786 4.711 33.331 2.363 47.581-7.351 12.915 6.684 27.285 10.131 41.727 10.13 9.231 0 23.251-2.939 32.178-5.81 13.896-19.626 22.163-48.308 18.068-71.79 13.89-10.935 21.406-27.303 21.355-44.067 20.6 7.074 39.143 19.65 53.54 36.767l11.479 13.647 11.479-13.647c14.398-17.117 32.941-29.693 53.541-36.767-.051 16.764 7.465 33.131 21.355 44.067-4.095 23.483 4.173 52.165 18.068 71.79 8.929 2.872 22.946 5.811 32.178 5.81 14.44-.001 28.814-3.448 41.727-10.131 14.25 9.715 31.794 12.063 47.581 7.352-.634 18.644-5.734 37.142-15.192 55.045z"/><path d="m298.156 267.503c-25.457 0-46.167-20.71-46.167-46.166 0-10.063 3.179-19.623 9.192-27.649l-12.921-24.018c-53.257 0-96.584 43.327-96.584 96.583s43.327 96.583 96.584 96.583c24.224 0 47.391-9.009 65.234-25.368 17.725-16.25 28.705-38.342 30.918-62.207l-22.628-14.263c-7.123 4.256-15.294 6.505-23.628 6.505zm-4.935 47.852c-12.296 11.273-28.264 17.482-44.961 17.482-36.715 0-66.584-29.869-66.584-66.583 0-28.118 17.521-52.222 42.218-61.967-1.262 5.534-1.904 11.243-1.904 17.05 0 41.998 34.168 76.166 76.167 76.166 3.084 0 6.154-.187 9.196-.556-3.559 6.842-8.32 13.08-14.132 18.408z"/><path d="m307.321 184.837h30v30h-30z"/></g></svg>