<svg id="Capa_1" enable-background="new 0 0 512 512" height="512" viewBox="0 0 512 512" width="512" xmlns="http://www.w3.org/2000/svg"><g><path d="m512 212h-34.656l-60-212h-322.688l-60 212h-34.656v270h61v30h30v-30h330v30h30v-30h61zm-394.656-182h277.313l51.509 182h-380.332zm364.656 422h-452v-210h452z"/><path d="m451 272h-390v150h390zm-30 120h-330v-90h330z"/><path d="m241 92h30v60h-30z"/><path d="m121 332h30v30h-30z"/><path d="m181 332h30v30h-30z"/><path d="m241 332h30v30h-30z"/><path d="m301 332h30v30h-30z"/><path d="m361 332h30v30h-30z"/></g></svg>