<svg id="Capa_1" enable-background="new 0 0 510 510" height="512" viewBox="0 0 510 510" width="512" xmlns="http://www.w3.org/2000/svg"><g><path d="m99.5 90h30c0-17.365-9.192-26.766-15.275-32.987-5.109-5.225-6.725-7.112-6.725-12.013s1.616-6.788 6.725-12.013c6.083-6.221 15.275-15.622 15.275-32.987h-30c0 4.901-1.616 6.788-6.725 12.013-6.083 6.221-15.275 15.622-15.275 32.987s9.192 26.766 15.275 32.987c5.109 5.225 6.725 7.112 6.725 12.013z"/><path d="m170.5 90h30c0-17.365-9.192-26.766-15.275-32.987-5.109-5.225-6.725-7.112-6.725-12.013s1.616-6.788 6.725-12.013c6.083-6.221 15.275-15.622 15.275-32.987h-30c0 4.901-1.616 6.788-6.725 12.013-6.083 6.221-15.275 15.622-15.275 32.987s9.192 26.766 15.275 32.987c5.109 5.225 6.725 7.112 6.725 12.013z"/><path d="m241.5 90h30c0-17.365-9.192-26.766-15.275-32.987-5.109-5.225-6.725-7.112-6.725-12.013s1.616-6.788 6.725-12.013c6.083-6.221 15.275-15.622 15.275-32.987h-30c0 4.901-1.616 6.788-6.725 12.013-6.083 6.221-15.275 15.622-15.275 32.987s9.192 26.766 15.275 32.987c5.109 5.225 6.725 7.112 6.725 12.013z"/><path d="m312.5 90h30c0-17.365-9.192-26.766-15.275-32.987-5.109-5.225-6.725-7.112-6.725-12.013s1.616-6.788 6.725-12.013c6.083-6.221 15.275-15.622 15.275-32.987h-30c0 4.901-1.616 6.788-6.725 12.013-6.083 6.221-15.275 15.622-15.275 32.987s9.192 26.766 15.275 32.987c5.109 5.225 6.725 7.112 6.725 12.013z"/><path d="m390 165v-45h-360v91.134c0 51.127 10.528 100.739 31.293 147.458 34.568 77.779 27.814 141.375 28.707 151.408h240c.646-9.902-3.898-58.375 16.924-120.96 74.771-8.436 133.076-72.052 133.076-149.04v-75zm-32.871 90h-294.258c-1.309-9.919-2.148-19.926-2.56-30h299.379c-.413 10.074-1.252 20.081-2.561 30zm2.871-105v45h-300v-45zm-240.259 330c-.568-15.159-2.089-30.169-4.517-45h189.553c-2.428 14.831-3.949 29.841-4.517 45zm191.269-75h-202.02c-5.046-19.949-11.803-39.513-20.283-58.592-8.86-19.936-15.661-40.451-20.431-61.408h283.448c-4.77 20.957-11.571 41.472-20.431 61.408-8.48 19.079-15.237 38.643-20.283 58.592zm138.99-165c0 55.914-38.44 103.016-90.28 116.273 20.089-46.042 30.28-94.857 30.28-145.139v-16.134h60z"/></g></svg>