<svg id="Capa_1" enable-background="new 0 0 510 510" height="512" viewBox="0 0 510 510" width="512" xmlns="http://www.w3.org/2000/svg"><g><path d="m120 63.887 31.174 56.113h28.826v-120h-30v56.113l-31.174-56.113h-28.826v120h30z"/><path d="m360 63.887 31.174 56.113h28.826v-120h-30v56.113l-31.174-56.113h-28.826v120h30z"/><path d="m255 120c24.813 0 45-20.187 45-45v-30c0-24.813-20.187-45-45-45s-45 20.187-45 45v30c0 24.813 20.187 45 45 45zm-15-75c0-8.271 6.729-15 15-15s15 6.729 15 15v30c0 8.271-6.729 15-15 15s-15-6.729-15-15z"/><path d="m165 390c-24.813 0-45 20.187-45 45v30c0 24.813 20.187 45 45 45s45-20.187 45-45v-30c0-24.813-20.187-45-45-45zm15 75c0 8.271-6.729 15-15 15s-15-6.729-15-15v-30c0-8.271 6.729-15 15-15s15 6.729 15 15z"/><path d="m0 420h30v90h30v-90h30v-30h-90z"/><path d="m300 413.787-15 15-15-15v-23.787h-30v36.213l23.787 23.787-23.787 23.787v36.213h30v-23.787l15-15 15 15v23.787h30v-36.213l-23.787-23.787 23.787-23.787v-36.213h-30z"/><path d="m360 390h30v120h-30z"/><path d="m435 270v-30c-12.597 0-32.21-13.663-52.975-28.127-37.483-26.112-88.818-61.873-157.025-61.873-47.327 0-83.288 43.695-73.367 90.529-53.918 4.141-85.313 32.09-86.723 33.372l20.121 22.252c.266-.236 24.647-21.496 66.378-25.504-9.049 46.351 26.575 89.351 73.591 89.351 67.71 0 119.13-35.696 156.676-61.76 20.92-14.523 40.679-28.24 53.324-28.24zm-65.073-30h-45.656l11.549-23.098c12.039 7.622 22.915 15.33 34.107 23.098zm-122.772 0 21.645-54.112c14.61 3.93 28.228 9.553 40.962 16.047l-19.033 38.065zm43.574 30 18.972 37.943c-12.742 6.513-26.351 12.159-40.924 16.111l-21.622-54.054zm-65.729-90c4.625 0 9.155.215 13.611.584l-23.766 59.416h-32.252c-1.698-4.798-2.592-9.871-2.592-15-.001-24.813 20.186-45 44.999-45zm-45 105c0-5.129.895-10.202 2.592-15h32.252l23.763 59.409c-4.457.374-8.985.591-13.607.591-24.813 0-45-20.187-45-45zm155.755 7.969-11.484-22.969h45.486c-11.075 7.658-21.965 15.354-34.002 22.969z"/><path d="m465 480c-8.271 0-15-6.729-15-15v-30c0-8.271 6.729-15 15-15s15 6.729 15 15h30c0-24.813-20.187-45-45-45s-45 20.187-45 45v30c0 24.813 20.187 45 45 45s45-20.187 45-45h-30c0 8.271-6.729 15-15 15z"/></g></svg>