<svg id="Capa_1" enable-background="new 0 0 510 510" height="512" viewBox="0 0 510 510" width="512" xmlns="http://www.w3.org/2000/svg"><g><path d="m70.789 510h368.423l-22.5-90h-39.417l27.705-193.934v-61.632l14.811-44.434-14.304-42.912c8.32-8.17 13.493-19.534 13.493-32.088 0-24.813-20.187-45-45-45s-45 20.187-45 45c0 26.169 22.489 47.234 49.123 44.803l10.066 30.197-10 30h-108.189v-62.58c17.458-6.192 30-22.865 30-42.42 0-24.813-20.187-45-45-45s-45 20.187-45 45c0 19.555 12.542 36.228 30 42.42v62.58h-109.189l-10-30 10.065-30.197c26.674 2.434 49.124-18.67 49.124-44.803 0-24.813-20.187-45-45-45s-45 20.187-45 45c0 12.554 5.173 23.918 13.492 32.088l-14.304 42.912 15.812 47.435v58.632l27.705 193.933h-39.416zm288.211-465c0-8.271 6.729-15 15-15s15 6.729 15 15-6.729 15-15 15-15-6.729-15-15zm-104-15c8.271 0 15 6.729 15 15s-6.729 15-15 15-15-6.729-15-15 6.729-15 15-15zm-120 0c8.271 0 15 6.729 15 15s-6.729 15-15 15-15-6.729-15-15 6.729-15 15-15zm0 193.934v-43.934h240v43.935l-28.009 196.065h-183.982zm-18.289 226.066h276.577l7.5 30h-291.577z"/><path d="m270 297.42c17.458-6.192 30-22.865 30-42.42 0-24.813-20.187-45-45-45s-45 20.187-45 45c0 19.555 12.542 36.228 30 42.42v32.58h-30v30h30v30h30v-30h30v-30h-30zm-15-57.42c8.271 0 15 6.729 15 15s-6.729 15-15 15-15-6.729-15-15 6.729-15 15-15z"/></g></svg>