<?xml version="1.0" encoding="iso-8859-1"?>
<!-- Generator: Adobe Illustrator 19.0.0, SVG Export Plug-In . SVG Version: 6.00 Build 0)  -->
<svg xmlns="http://www.w3.org/2000/svg" xmlns:xlink="http://www.w3.org/1999/xlink" version="1.1" id="Layer_1" x="0px" y="0px" viewBox="0 0 512 512" style="enable-background:new 0 0 512 512;" xml:space="preserve">
<g>
	<g>
		<path d="M420.564,116.335L512,24.901L487.099,0l-91.436,91.436l-87.677-9.742L100.128,289.551l-36.26-36.26l-24.901,24.901    l36.26,36.26l19.484,19.484l-53.035,53.035l-16.776-16.776L0,395.095l16.776,16.776l83.352,83.353v-0.001L116.905,512    l24.901-24.901l-16.776-16.776l53.035-53.035l19.484,19.484l36.26,36.26l24.901-24.901l-36.26-36.26l207.857-207.858    L420.564,116.335z M100.128,445.424l-33.552-33.552l53.035-53.035l33.552,33.552L100.128,445.424z M197.548,386.971l-72.52-72.52    l33.552-33.552l36.26,36.26l24.901-24.901l-36.26-36.26l33.552-33.552l36.26,36.26l24.901-24.901l-36.259-36.26l33.552-33.552    l36.26,36.26l24.901-24.901l-36.26-36.26l20.534-20.534l65.268,7.252l7.252,65.268L197.548,386.971z"/>
	</g>
</g>
<g>
</g>
<g>
</g>
<g>
</g>
<g>
</g>
<g>
</g>
<g>
</g>
<g>
</g>
<g>
</g>
<g>
</g>
<g>
</g>
<g>
</g>
<g>
</g>
<g>
</g>
<g>
</g>
<g>
</g>
</svg>
