<svg id="Layer_1" enable-background="new 0 0 511.787 511.787" height="512" viewBox="0 0 511.787 511.787" width="512" xmlns="http://www.w3.org/2000/svg"><g id="XMLID_1992_"><path id="XMLID_1993_" d="m234.106 234.239h60v30h-60z" transform="matrix(.707 -.707 .707 .707 -98.883 259.751)"/><path id="XMLID_2003_" d="m75.007 464.073c0-4.493 1.75-8.717 4.926-11.894l45.221-45.221 21.213 21.213 42.426-42.427 20.561 20.561 186.846-164.507c24.39-.971 48.538-9.315 68.77-25.043l21.875 21.875 21.213-21.213-21.875-21.875c83.858-112.871-55.618-252.203-168.382-168.38l-21.875-21.875-21.213 21.213 21.875 21.875c-15.701 20.198-24.045 44.297-25.039 68.646l-167.1 184.381 20.705 20.705-42.426 42.426 21.213 21.213-45.221 45.221c-29.415 28.929-8.157 80.197 33.106 79.926h208.18v-30h-208.179c-9.274 0-16.82-7.545-16.82-16.82zm380.018-405.754c31.476 31.477 34.697 80.648 9.706 115.772l-125.479-125.478c35.283-25.105 84.403-21.663 115.773 9.706zm-136.985 11.508 125.478 125.478c-35.124 24.991-84.295 21.771-115.772-9.706s-34.698-80.648-9.706-115.772zm-41.612 86.484c11.328 38.14 41.25 68.723 80.098 80.449l-145.866 128.426-.653-.653-63.64-63.64-.509-.509zm-130.06 187.009 21.213 21.213-21.213 21.213-21.213-21.213z"/><path id="XMLID_2015_" d="m90.007 135.893v-105h30c16.542 0 30 13.458 30 30h30c0-33.084-26.916-60-60-60h-60v92.58c-28.4-10.625-60.581 11.96-59.999 42.42 2.259 59.614 87.745 59.603 89.999 0zm-60 0c0-8.271 6.729-15 15-15 19.872.754 19.867 29.249 0 30-8.271 0-15-6.729-15-15z"/><path id="XMLID_2018_" d="m450.007 330.893h-60v92.58c-28.4-10.625-60.581 11.96-59.999 42.42 2.26 59.613 87.746 59.602 89.999 0v-105h30c16.542 0 30 13.458 30 30h30c0-33.084-26.916-60-60-60zm-75 150c-8.271 0-15-6.729-15-15 .754-19.872 29.249-19.867 30 0 0 8.271-6.729 15-15 15z"/></g></svg>