<svg id="Capa_1" enable-background="new 0 0 512 512" height="512" viewBox="0 0 512 512" width="512" xmlns="http://www.w3.org/2000/svg"><g><path d="m452.915 436.068-122.83-245.666v-130.152h-60.36v-15.126c0-24.881-20.243-45.124-45.125-45.124h-60.251c-24.881 0-45.124 20.243-45.124 45.124v15.126h-60.14v451.75h271v-60.247h113.133zm-303.69-390.944c0-8.339 6.785-15.124 15.124-15.124h60.251c8.34 0 15.125 6.785 15.125 15.124v15.126h-90.5zm150.86 436.876h-211v-391.75h211v100.151l-30.25 60.501v-130.401h-150.61v331.249l180.86.003zm-115.673-60.25h-35.188v-30.254h50.315zm30.127-60.254h-65.314v-210.995h90.61v160.402zm3.413 60.257 97.132-194.27 97.133 194.27z"/><path d="m300.085 366.937h30v30h-30z"/><path d="m300.085 289.562h30v58.25h-30z"/></g></svg>