<svg id="Capa_1" enable-background="new 0 0 510 510" height="512" viewBox="0 0 510 510" width="512" xmlns="http://www.w3.org/2000/svg"><g><path d="m0 510h360v-510h-360zm30-480h300v450h-300z"/><path d="m510 165c0-33.084-26.916-60-60-60s-60 26.916-60 60v185l45 60v100h30v-100l45-60zm-30 111.972-30 20-30.001-20v-38.944l30.001 20 30-20zm-30-141.972c16.542 0 30 13.458 30 30v36.972l-30 20.001-30-20.001v-36.972c0-16.542 13.458-30 30-30zm0 245-30-40v-26.973l30.001 20 30-20v26.973z"/><path d="m165 60h-105v90h105zm-30 60h-45v-30h45z"/><path d="m195 150h105v-90h-105zm30-60h45v30h-45z"/><path d="m165 180h-105v90h105zm-30 60h-45v-30h45z"/><path d="m195 270h105v-90h-105zm30-60h45v30h-45z"/><path d="m165 300h-105v90h105zm-30 60h-45v-30h45z"/><path d="m195 390h105v-90h-105zm30-60h45v30h-45z"/><path d="m60 420h240.001v30h-240.001z"/></g></svg>