<svg id="Layer_1" enable-background="new 0 0 510 510" height="512" viewBox="0 0 510 510" width="512" xmlns="http://www.w3.org/2000/svg"><g><path d="m510 120v-30c-30.344 0-495.593 0-510 0v30h30v30h-30v30h30v30h-30v30h30v30h-30v30h30v30h-30v30h30v30h-30v30h510v-30h-30v-30h30v-30h-30v-30h30v-30h-30v-30h30v-30h-30v-30h30v-30h-30v-30zm-60 270h-390v-270h390z"/><path d="m120 300c16.542 0 30 13.458 30 30v30h210v-30c0-16.542 13.458-30 30-30h9.27l22.5-45-22.5-45h-9.27c-16.542 0-30-13.458-30-30v-30h-210v30c0 16.542-13.458 30-30 30h-9.271l-22.5 45 22.5 45zm9.659-60.777c28.508-4.633 50.341-29.426 50.341-59.223h150c0 29.797 21.833 54.59 50.341 59.223l7.888 15.777-7.888 15.777c-28.508 4.633-50.341 29.426-50.341 59.223h-150c0-29.797-21.833-54.59-50.341-59.223l-7.888-15.777z"/><path d="m210 240h30v30h-30z"/><path d="m270 240h30v30h-30z"/><path d="m390 330h30v30h-30z"/><path d="m90 330h30v30h-30z"/><path d="m390 150h30v30h-30z"/><path d="m90 150h30v30h-30z"/></g></svg>