<svg id="Capa_1" enable-background="new 0 0 512 512" height="512" viewBox="0 0 512 512" width="512" xmlns="http://www.w3.org/2000/svg"><g><path d="m120.5 369.501h30v30h-30z"/><path d="m361.5 369.501h30v30h-30z"/><path d="m60.25 355.502h30v30h-30z"/><path d="m421.75 355.502h30v30h-30z"/><path d="m449.752 241v-25.974c-.312-69.24 22.349-139.51 61.512-196.632l-20.198-18.393c-41.476 30.474-76.846 71.372-99.432 117.697-18.875 38.363-29.75 80.7-31.779 123.303h-31.126c-9.422 0-18.665 1.13-27.602 3.27v-29.245c-.312-69.238 22.348-139.508 61.511-196.63l-20.195-18.396c-41.51 30.486-76.772 71.467-99.451 118.248-19.222 39.318-30.146 82.689-31.871 126.162-9.14-2.265-18.518-3.444-27.85-3.41h-30.77v-25.974c-.312-69.239 22.349-139.51 61.512-196.632l-20.197-18.393c-41.476 30.474-76.845 71.372-99.432 117.698-18.875 38.363-29.75 80.699-31.779 123.301h-62.605v271h511.982l.018-271zm-31.2-110.059c6.083-12.364 13.098-24.303 20.945-35.695-12.73 37.38-19.919 79.886-19.745 119.793v25.959h-29.868c2.004-38.032 11.81-75.791 28.668-110.057zm-388.552 200.31 130.751.003c17.276 36.434 54.302 60.248 95.25 60.248s77.975-23.814 95.25-60.248l130.744-.003-.006 95.077c-2.235-1.159-4.381-2.579-6.824-4.201-16.679-13.476-51.733-19.374-76.841 0-11.119 9.81-32.851 9.706-43.654 0-16.68-13.475-51.732-19.374-76.84 0-11.119 9.81-32.85 9.705-43.653 0-16.68-13.476-51.735-19.373-76.842 0-11.12 9.81-32.854 9.705-43.658 0-16.68-13.476-51.737-19.374-76.845 0-2.445 1.624-4.594 3.044-6.831 4.204v-95.08zm210.875-74.241c-.064-43.129 9.987-86.556 29.068-125.585 6.043-12.361 12.991-24.282 20.75-35.648-12.624 37.256-19.734 79.522-19.566 119.263v71.086c0 8.34-6.785 15.125-15.125 15.125-8.34 0-15.125-6.785-15.125-15.125v-29.116zm-119.573-126.067c6.083-12.365 13.098-24.304 20.945-35.696-12.731 37.38-19.919 79.886-19.745 119.793v25.96h-29.867c2.003-38.032 11.809-75.792 28.667-110.057zm62.026 140.057c9.281-.042 18.636 1.534 27.547 4.505v10.62c0 24.882 20.244 45.125 45.126 45.125s45.125-20.243 45.125-45.125v-10.7c8.788-2.906 18.076-4.425 27.602-4.425h153.27l-.002 30.25-151.371.003c-10.151 36.636-38.339 59.707-74.625 60.248-36.493.319-65.645-26.066-74.625-60.247l-151.375-.003v-30.251zm-153.328 211v-23.96c10.504-2.367 17.487-6.979 23.424-10.92 11.12-9.81 32.855-9.706 43.66 0 16.679 13.475 51.736 19.374 76.844 0 11.12-9.809 32.852-9.706 43.655 0 16.68 13.475 51.732 19.374 76.84 0 11.119-9.81 32.849-9.705 43.652 0 16.68 13.475 51.733 19.374 76.841 0 11.119-9.809 32.85-9.706 43.653 0 5.935 3.941 12.916 8.552 23.416 10.919v23.961z"/></g></svg>