<svg id="Capa_1" enable-background="new 0 0 512 512" height="512" viewBox="0 0 512 512" width="512" xmlns="http://www.w3.org/2000/svg"><g><path d="m361.5 180.75h30v30h-30z"/><path d="m436.687 120.5v-15.125c0-24.882-20.243-45.125-45.125-45.125h-30.125c-24.882 0-45.125 20.243-45.125 45.125v15.125h-316.312v331.25h512v-331.25zm-90.375-15.125c0-8.34 6.785-15.125 15.125-15.125h30.125c8.34 0 15.125 6.785 15.125 15.125v15.125h-60.375zm-30.062 195.875h-16.214c.713-4.941 1.09-9.99 1.09-15.125s-.377-10.184-1.09-15.125h16.214c8.34 0 15.125 6.785 15.125 15.125s-6.785 15.125-15.125 15.125zm0-60.25h-25.289c-16.936-35.589-53.246-60.25-95.211-60.25-58.104 0-105.375 47.271-105.375 105.375s47.271 105.375 105.375 105.375c41.966 0 78.275-24.661 95.211-60.25h25.289c2.601 0 5.147-.233 7.629-.658-18.449 53.009-68.914 91.158-128.129 91.158-74.784 0-135.625-60.841-135.625-135.625s60.841-135.625 135.625-135.625c59.215 0 109.68 38.149 128.129 91.158-2.482-.425-5.028-.658-7.629-.658zm-45.125 45.125c0 41.562-33.813 75.375-75.375 75.375s-75.375-33.813-75.375-75.375 33.813-75.375 75.375-75.375 75.375 33.813 75.375 75.375zm-241.125 135.625v-271.25h70.809c-42.71 29.983-70.684 79.594-70.684 135.625 0 56.027 27.969 105.638 70.672 135.625zm331.375-135.625c0-56.031-27.975-105.642-70.684-135.625h191.309v30.25h-30.188c-33.187 0-60.187 27-60.187 60.188v180.812h-100.922c42.703-29.987 70.672-79.598 70.672-135.625zm60.25 135.625v-180.812c0-16.646 13.542-30.188 30.187-30.188h30.188v211z"/><path d="m195.75 241c-24.882 0-45.125 20.243-45.125 45.125s20.243 45.125 45.125 45.125 45.125-20.243 45.125-45.125-20.243-45.125-45.125-45.125zm0 60.25c-8.34 0-15.125-6.785-15.125-15.125s6.785-15.125 15.125-15.125 15.125 6.785 15.125 15.125-6.785 15.125-15.125 15.125z"/></g></svg>