<svg id="Capa_1" enable-background="new 0 0 512 512" height="512" viewBox="0 0 512 512" width="512" xmlns="http://www.w3.org/2000/svg"><g><path d="m5.5 512h273c46.869 0 85-38.131 85-85v-427h-358zm288-32.079v-37.921h37.921c-5.191 18.291-19.63 32.73-37.921 37.921zm-258-449.921h298v382h-70v70h-228z"/><path d="m91.18 259.967-11.484-11.484-21.213 21.213 32.697 32.698 52.926-52.928-21.212-21.213z"/><path d="m91.18 358.787-11.484-11.483-21.213 21.213 32.697 32.696 52.926-52.926-21.212-21.213z"/><path d="m186.5 242.86h117v30h-117z"/><path d="m186.5 339.86h117v30h-117z"/><path d="m461.5 85.615-45 49.5v267.799c0 24.813 20.187 45 45 45s45-20.187 45-45v-267.799zm-15 111.61h30v141.689h-30zm15-67.012 15 16.5v20.512h-30v-20.512zm0 287.701c-8.271 0-15-6.729-15-15v-34h30v34c0 8.271-6.729 15-15 15z"/><path d="m219.169 180c15.624 0 22.885 1.676 31.292 3.616 8.904 2.055 18.998 4.384 38.039 4.384h15v-106h-15c-33.381-.161-33.597-8.13-69.334-8-35.749-.13-35.941 7.838-69.335 8-15.624 0-22.885-1.676-31.292-3.616-8.904-2.055-18.998-4.384-38.039-4.384h-15v106h15c33.386.161 33.593 8.13 69.334 8 35.744.129 35.944-7.838 69.335-8zm-69.335-22c-26.756.098-30.226-5.375-54.334-7.436v-45.886c6.448.667 11.157 1.753 16.293 2.938 19.867 5.77 56.313 5.745 76.078-.001 16.164-4.772 46.421-4.774 62.589.001 6.22 1.435 13.018 3.004 23.04 3.82v45.886c-21.316-2.703-26.129-7.37-54.331-7.322-35.746-.129-35.943 7.839-69.335 8z"/></g></svg>