<svg id="Capa_1" enable-background="new 0 0 512 512" height="512" viewBox="0 0 512 512" width="512" xmlns="http://www.w3.org/2000/svg"><g><path d="m437 422v-60h-45v-60h-61v-152c0-26.692-14.028-50.156-35.087-63.451 7.839-9.175 12.587-21.064 12.587-34.049 0-28.949-23.551-52.5-52.5-52.5s-52.5 23.551-52.5 52.5c0 12.985 4.748 24.874 12.587 34.049-21.059 13.295-35.087 36.759-35.087 63.451v152h-61v60h-45v60h-45v90h452v-90zm-203.5-369.5c0-12.407 10.093-22.5 22.5-22.5s22.5 10.093 22.5 22.5-10.093 22.5-22.5 22.5-22.5-10.093-22.5-22.5zm22.5 52.5c24.813 0 45 20.187 45 45v15h-90v-15c0-24.813 20.187-45 45-45zm-45 90h90v107h-30v-77h-30v77h-30zm-61 137h212v30h-212zm-45 60h302v30h-302zm347 90h-392v-30h392z"/></g></svg>