<svg id="Capa_1" enable-background="new 0 0 512 512" height="512" viewBox="0 0 512 512" width="512" xmlns="http://www.w3.org/2000/svg"><g><path d="m174.653 304.782h164.172v30h-164.172z" transform="matrix(.707 -.707 .707 .707 -150.923 275.204)"/><path d="m270.608 346.413h55.523v30h-55.523z" transform="matrix(.707 -.707 .707 .707 -168.167 316.835)"/><path d="m475.739 258.217v-30h-30v-8.41c0-36.402-25.954-66.856-60.33-73.829v-57.332c0-31.516-25.641-57.157-57.157-57.157h-2.836c-17.423-19.844-42.833-31.489-69.416-31.489s-51.993 11.645-69.417 31.489h-2.836c-31.517 0-57.157 25.641-57.157 57.157v57.333c-34.375 6.973-60.33 37.427-60.33 73.829v8.41h-30v30h30v223.782h-30v30h90v-30h-30v-223.783h30.33v193.696h258.82v-193.696h30.33v223.783h-30v30h90v-30h-30v-223.783zm-379.478-30v-8.41c0-19.74 12.684-36.573 30.33-42.779v51.188h-30.33zm259.149 193.696h-198.82v-333.267c0-14.974 12.183-27.157 27.157-27.157h17.581l4.496-6.104c11.709-15.895 30.467-25.385 50.176-25.385s38.467 9.49 50.175 25.385l4.496 6.104h17.581c14.975 0 27.157 12.183 27.157 27.157v333.267zm30-193.696v-51.188c17.646 6.205 30.33 23.039 30.33 42.779v8.41h-30.33z"/></g></svg>