<svg id="Capa_1" enable-background="new 0 0 510 510" height="512" viewBox="0 0 510 510" width="512" xmlns="http://www.w3.org/2000/svg"><g><path d="m510 180h-51.507l-90-150h-255.993c-28.949 0-52.5 23.551-52.5 52.5s23.551 52.5 52.5 52.5h194.007l27 45h-333.507v150h71.703l-30 150h426.594l-30-150h71.703zm-186.507-75h-210.993c-12.407 0-22.5-10.093-22.5-22.5s10.093-22.5 22.5-22.5h239.007l72 120h-55.015zm156.507 105v30h-450v-30zm-377.703 120h17.703v120h-41.703zm257.703 0v120h-30v-120zm-60 120h-30v-120h30zm-60 0h-30v-120h30zm-60 0h-30v-120h30zm251.703 0h-41.703v-120h17.703zm-401.703-150v-30h450v30c-20.565 0-450 0-450 0z"/></g></svg>