<svg id="Layer_1" enable-background="new 0 0 510 510" height="512" viewBox="0 0 510 510" width="512" xmlns="http://www.w3.org/2000/svg"><g><path d="m510 240c0-33.084-26.916-60-60-60h-75v-92.55c46.785-17.16 35.962-86.498-15-87.45h-210c-50.956 1.011-61.778 70.293-15 87.45v92.55h-75c-33.084 0-60 26.916-60 60v210h45v60h90v-60h255v60h90v-60h30zm-360-180c-19.883-.744-19.86-29.254 0-30h210c19.879.741 19.867 29.265 0 30h-15v120h-180v-120zm-90 150h390c16.542 0 30 13.458 30 30v120h-450v-120c0-16.542 13.458-30 30-30zm45 270h-30v-30h30zm345 0h-30v-30h30zm-420-60v-30h450v30c-20.022 0-427.274 0-450 0z"/><path d="m60 300h30v30h-30z"/><path d="m120 300h30v30h-30z"/><path d="m180 300h30v30h-30z"/><path d="m195 60h30v30h-30z"/><path d="m285 60h30v30h-30z"/><path d="m285 120h30v30h-30z"/><path d="m195 120h30v30h-30z"/><path d="m390 330c24.813 0 45-20.186 45-45-2.262-59.617-87.747-59.6-90 .001 0 24.813 20.186 44.999 45 44.999zm0-60c8.271 0 15 6.728 15 15-.753 19.872-29.25 19.867-30 0 0-8.272 6.728-15 15-15z"/></g></svg>