<svg id="Capa_1" enable-background="new 0 0 512 512" height="512" viewBox="0 0 512 512" width="512" xmlns="http://www.w3.org/2000/svg"><g><path d="m479.484 362-33.161-45.376c11.69-7.527 19.677-20.317 20.589-35.016 1.073-17.286-7.591-33.355-22.612-41.935-4.502-2.572-7.3-7.656-7.3-13.267v-14.816h74.998v-84.862l-293.519-126.728h-68.692l-149.787 129.736v81.852h80.38v15h60v195.412h-30v90h150v-90h-30v-195.412h60v-15h116.62v14.816c0 16.352 8.59 31.417 22.419 39.316 5.017 2.865 7.91 8.24 7.55 14.027-.458 7.383-6.601 13.526-13.984 13.984-4.212.264-8.207-1.172-11.253-4.035-3.051-2.868-4.731-6.75-4.731-10.934h-30c0 12.368 5.17 24.321 14.186 32.794 2.03 1.908 4.202 3.599 6.484 5.075l-33.155 45.369h-32.516v90h180v-90zm-249.104-240.412v-83.774l194.033 83.774zm-60-91.588h30v91.588h-30zm-140.38 151.588v-30h50.38v30zm25.229-60 85.151-73.752v73.752zm175.151 360.412h-90v-30h90zm-30-60h-30v-195.412h30zm60-225.412h-150v-45h150zm30-45h191.618v30h-191.618zm131.62 182.599 20.326 27.813h-40.652zm60 87.813h-120v-30h120z"/></g></svg>