<?xml version="1.0" encoding="iso-8859-1"?>
<!-- Generator: Adobe Illustrator 19.0.0, SVG Export Plug-In . SVG Version: 6.00 Build 0)  -->
<svg version="1.1" id="Layer_1" xmlns="http://www.w3.org/2000/svg" xmlns:xlink="http://www.w3.org/1999/xlink" x="0px" y="0px"
	 viewBox="0 0 512 512" style="enable-background:new 0 0 512 512;" xml:space="preserve">
<g>
	<g>
		<rect x="83.592" y="386.987" width="344.816" height="31.347"/>
	</g>
</g>
<g>
	<g>
		<path d="M512,162.331h-31.347v30.104H343.667c-12.837-29.069-39.718-50.595-71.993-55.931V93.666h-31.347v42.837
			c-32.277,5.336-59.157,26.862-71.993,55.931H31.347v-30.104H0v105.866l55.05,5.005c-0.446,2.556-0.691,5.181-0.691,7.862
			c0,25.207,20.507,45.714,45.714,45.714c25.078,0,45.496-20.299,45.704-45.329l30.639,2.786
			c17.205,25.637,46.456,42.543,79.584,42.543s62.378-16.906,79.584-42.543l30.638-2.786c0.208,25.03,20.626,45.329,45.704,45.329
			c25.207,0,45.714-20.507,45.714-45.714c0-2.681-0.246-5.306-0.691-7.862l55.05-5.005V162.331z M100.073,295.431
			c-7.922,0-14.367-6.445-14.367-14.367c0-1.758,0.332-3.435,0.913-4.992l27.591,2.508c0.143,0.81,0.231,1.636,0.231,2.485
			C114.44,288.986,107.995,295.431,100.073,295.431z M31.347,239.571v-15.789h129.141c-0.178,2.382-0.271,4.788-0.271,7.215
			c0,7.032,0.768,13.888,2.214,20.491L31.347,239.571z M256,295.431c-35.53,0-64.436-28.906-64.436-64.436
			S220.47,166.559,256,166.559s64.436,28.906,64.436,64.436C320.436,266.526,291.53,295.431,256,295.431z M411.927,295.431
			c-7.922,0-14.367-6.445-14.367-14.367c0-0.848,0.088-1.676,0.231-2.484l27.592-2.508c0.579,1.557,0.912,3.235,0.912,4.991
			C426.294,288.986,419.849,295.431,411.927,295.431z M480.653,239.57l-131.085,11.917c1.446-6.605,2.214-13.459,2.214-20.492
			c0-2.427-0.093-4.833-0.271-7.215h129.141V239.57z"/>
	</g>
</g>
<g>
	<g>
		<rect x="221.665" y="203.879" width="68.671" height="31.347"/>
	</g>
</g>
<g>
</g>
<g>
</g>
<g>
</g>
<g>
</g>
<g>
</g>
<g>
</g>
<g>
</g>
<g>
</g>
<g>
</g>
<g>
</g>
<g>
</g>
<g>
</g>
<g>
</g>
<g>
</g>
<g>
</g>
</svg>
