<svg id="Capa_1" enable-background="new 0 0 511.558 511.558" height="512" viewBox="0 0 511.558 511.558" width="512" xmlns="http://www.w3.org/2000/svg"><g id="XMLID_1322_"><path id="XMLID_1325_" d="m160.488 298.192c0 52.543 42.747 95.291 95.291 95.291s95.291-42.747 95.291-95.291v-134.901h-190.582zm30-104.901h130.581v104.902c0 30.839-21.498 56.734-50.291 63.532v-35.247h-30v35.247c-28.792-6.798-50.291-32.693-50.291-63.532v-104.902z"/><path id="XMLID_1328_" d="m299.866 103.679v-103.679h-88.714v24.958h-35.188v-16.4h-30v62.799h30v-16.399h35.188v48.721h-109.736v189.978c0 29.246 8.22 57.718 23.771 82.336 15.122 23.939 36.488 43.262 61.787 55.878 9.688 4.831 15.707 14.368 15.707 24.889v1.7c0 29.278 23.819 53.097 53.098 53.097s53.098-23.819 53.098-53.097v-1.7c0-10.521 6.019-20.058 15.707-24.889 25.299-12.616 46.665-31.938 61.787-55.878 15.551-24.619 23.771-53.09 23.771-82.336v-189.978zm-58.714-73.679h28.714v73.679h-28.714zm138.99 263.657c0 47.486-26.419 90.16-68.946 111.367-19.935 9.941-32.319 29.765-32.319 51.736v1.7c0 12.736-10.362 23.097-23.098 23.097s-23.098-10.361-23.098-23.097v-1.7c0-21.971-12.384-41.795-32.319-51.736-42.527-21.208-68.946-63.882-68.946-111.368v-159.977h248.727v159.978z"/></g></svg>