<?xml version="1.0" encoding="iso-8859-1"?>
<!-- Generator: Adobe Illustrator 19.0.0, SVG Export Plug-In . SVG Version: 6.00 Build 0)  -->
<svg xmlns="http://www.w3.org/2000/svg" xmlns:xlink="http://www.w3.org/1999/xlink" version="1.1" id="Layer_1" x="0px" y="0px" viewBox="0 0 512.001 512.001" style="enable-background:new 0 0 512.001 512.001;" xml:space="preserve">
<g>
	<g>
		<path d="M421.362,88.752c-7.279-3.425-14.988-5.72-23.027-6.878c-3.599-7.215-10.582-12.456-18.859-13.628    C353.595,27.273,307.911,0,255.969,0c-44.253,0-83.965,19.797-110.759,50.994H74.991C33.641,50.994,0,84.635,0,125.985v129.984    c0,24.81,20.185,44.995,44.995,44.995H79.99v210.974h89.989V300.964h34.996c11.055,0,21.184-4.015,29.026-10.653    c7.248,1.093,14.606,1.654,21.968,1.654c80.495,0,145.982-65.487,145.982-145.982c0-11.592-1.365-22.87-3.93-33.688    c3.672,0.819,7.205,2.016,10.572,3.6L421.362,88.752z M139.983,481.942h-29.996v-30.996h14.998v-29.996h-14.998v-19.998h14.998    v-29.996h-14.998v-69.992h29.996V481.942z M219.973,255.969c0,8.27-6.728,14.998-14.998,14.998H44.995    c-8.27,0-14.998-6.728-14.998-14.998V125.985c0-24.81,20.185-44.995,44.995-44.995h50.288    c-7.657,15.335-12.701,32.193-14.527,49.994H79.99v39.995h89.989v-39.995h-29.029c2.379-18.346,9.061-35.36,18.998-49.994h15.03    c24.81,0,44.995,20.185,44.995,44.995V255.969z M255.969,261.969c-2.132,0-4.263-0.062-6.388-0.177    c0.248-1.908,0.389-3.849,0.389-5.822V125.985c0-36.942-26.859-67.709-62.068-73.853c19.131-13.914,42.656-22.135,68.068-22.135    c40.647,0,76.471,21.021,97.189,52.758c-1.41,3.127-2.201,6.589-2.201,10.235c0,11.086,7.255,20.503,17.265,23.767    c2.434,9.341,3.733,19.135,3.733,29.226C371.955,209.937,319.924,261.969,255.969,261.969z"/>
	</g>
</g>
<g>
	<g>
		<path d="M504.116,355.265c-8.032-20.647-21.518-38.144-38.962-50.937c1.071-2.08,2.194-4.38,3.342-6.915l-27.328-12.369    c-0.798,1.763-1.575,3.373-2.315,4.832c-26.953-10.577-56.448-10.646-83.588-0.089c-28.624,11.135-51.199,32.75-63.565,60.865    c-12.367,28.114-13.045,59.362-1.911,87.986c11.136,28.625,32.751,51.2,60.865,63.566c14.833,6.524,30.532,9.796,46.264,9.795    c14.087,0,28.2-2.625,41.723-7.885c28.624-11.135,51.199-32.75,63.565-60.865C514.573,415.136,515.251,383.89,504.116,355.265z     M397.073,311.965c11.41,0,23.004,2.312,34.1,7.192c20.78,9.141,36.758,25.827,44.988,46.984c0.756,1.943,1.413,3.907,2.021,5.879    l-84.767,32.975l-32.963-84.739C371.815,314.857,384.329,311.965,397.073,311.965z M474.747,431.173    c-13.988,31.8-45.218,50.769-77.917,50.767c-11.41,0-23.004-2.312-34.1-7.192c-20.781-9.141-36.758-25.827-44.988-46.984    c-8.229-21.157-7.728-44.253,1.413-65.032c4.064-9.238,9.59-17.384,16.177-24.306l41.001,105.399l105.447-41.019    C481.109,412.468,478.763,422.044,474.747,431.173z"/>
	</g>
</g>
<g>
	<g>
		<path d="M479.393,170.151l-29.137,7.126c2.129,8.701,3.552,17.834,4.231,27.144l29.916-2.184    C483.602,191.265,481.918,180.469,479.393,170.151z"/>
	</g>
</g>
<g>
	<g>
		<path d="M454.343,232.09c-0.753,9.318-2.223,18.475-4.369,27.217l29.131,7.151c2.527-10.293,4.255-21.043,5.136-31.953    L454.343,232.09z"/>
	</g>
</g>
<g>
	<g>
		<path d="M449.854,110.405l-22.415,19.933c5.291,5.951,9.979,13.196,13.935,21.534l27.102-12.856    C463.301,128.107,457.037,118.481,449.854,110.405z"/>
	</g>
</g>
<g>
</g>
<g>
</g>
<g>
</g>
<g>
</g>
<g>
</g>
<g>
</g>
<g>
</g>
<g>
</g>
<g>
</g>
<g>
</g>
<g>
</g>
<g>
</g>
<g>
</g>
<g>
</g>
<g>
</g>
</svg>
