<svg id="Capa_1" enable-background="new 0 0 512 512" height="512" viewBox="0 0 512 512" width="512" xmlns="http://www.w3.org/2000/svg"><g><path d="m337.059 200.257v-87.257h-12.726v-83h31.333v-30h-167.999v113h-12.726v87.257c-23.367 6.343-40.607 27.729-40.607 53.077v203.666c0 30.327 24.673 55 55 55h133.333c30.327 0 55-24.673 55-55v-203.667c0-25.347-17.241-46.733-40.608-53.076zm-119.392-170.257h76.667v83h-76.667zm-12.726 113h102.119v55.333h-102.119zm142.726 314c0 13.785-11.215 25-25 25h-133.334c-13.785 0-25-11.215-25-25v-15.333c33.524 0 68.39-7.924 98.375-22.917 25.842-12.92 56.068-19.75 84.959-19.75zm0-88c-33.523 0-68.39 7.925-98.374 22.917-25.841 12.92-56.068 19.75-84.959 19.75v-105h183.333zm0-92.333h-183.334v-23.333c0-13.785 11.215-25 25-25h133.333c13.785 0 25 11.215 25 25v23.333z"/></g></svg>