<?xml version="1.0" encoding="iso-8859-1"?>
<!-- Generator: Adobe Illustrator 19.0.0, SVG Export Plug-In . SVG Version: 6.00 Build 0)  -->
<svg xmlns="http://www.w3.org/2000/svg" xmlns:xlink="http://www.w3.org/1999/xlink" version="1.1" id="Layer_1" x="0px" y="0px" viewBox="0 0 512.001 512.001" style="enable-background:new 0 0 512.001 512.001;" xml:space="preserve">
<g>
	<g>
		<path d="M447.92,63.98h-63.369V5.761H127.449V63.98H64.08L0,261.393h68.065V506.24h375.871V261.393h68.065L447.92,63.98z     M158.09,36.402H353.91V63.98H158.09V36.402z M348.916,230.752h-77.595V94.621h63.986L348.916,230.752z M240.68,94.621v136.13    h-77.589L176.7,94.621H240.68z M42.162,230.752l44.187-136.13h41.1h18.455l-13.609,136.13h-64.23H42.162z M188.07,475.599H98.707    V261.393h89.363V475.599z M413.294,475.599H218.712V261.393h194.582V475.599z M379.711,230.752l-13.609-136.13h18.449h41.1    l44.187,136.13h-25.902H379.711z"/>
	</g>
</g>
<g>
	<g>
		<rect x="141.309" y="347.548" width="30.642" height="41.897"/>
	</g>
</g>
<g>
	<g>
		
			<rect x="247.104" y="328.496" transform="matrix(0.7071 -0.7071 0.7071 0.7071 -157.8555 306.537)" width="87.981" height="30.641"/>
	</g>
</g>
<g>
	<g>
		
			<rect x="259.111" y="363.852" transform="matrix(0.7071 -0.7071 0.7071 0.7071 -172.4961 341.9029)" width="134.71" height="30.641"/>
	</g>
</g>
<g>
</g>
<g>
</g>
<g>
</g>
<g>
</g>
<g>
</g>
<g>
</g>
<g>
</g>
<g>
</g>
<g>
</g>
<g>
</g>
<g>
</g>
<g>
</g>
<g>
</g>
<g>
</g>
<g>
</g>
</svg>
