<svg id="Capa_1" enable-background="new 0 0 512 512" height="512" viewBox="0 0 512 512" width="512" xmlns="http://www.w3.org/2000/svg"><g><path d="m387.36 321.367c27.76-31.12 44.64-72.13 44.64-117 0-29.979-7.54-58.239-20.819-82.968l69.554-69.554v51.774h30v-102.986h-102.987v30h51.774l-65.129 65.129c-.001-.001-.002-.003-.003-.004-32.24-41.01-82.29-67.39-138.39-67.39s-106.15 26.38-138.39 67.39c-.001.001-.002.003-.003.004l-65.129-65.129h51.774v-30h-102.987v102.987h30v-51.775l69.554 69.554c-13.279 24.73-20.819 52.989-20.819 82.968 0 44.87 16.88 85.88 44.64 117h-124.64v190h512v-190zm-277.36-117c0-80.5 65.5-146 146-146s146 65.5 146 146c0 47.82-23.11 90.35-58.75 117-24.36 18.2-54.57 29-87.25 29s-62.89-10.8-87.25-29c-35.64-26.65-58.75-69.18-58.75-117zm49.31 147c27.77 18.32 61.01 29 96.69 29s68.92-10.68 96.69-29h129.31v69.341c-12.036-1.086-19.918-3.369-28.126-5.748-12.279-3.559-26.197-7.593-52.478-7.593s-40.198 4.034-52.478 7.593c-11.368 3.295-22.105 6.407-44.126 6.407-22.02 0-32.757-3.112-44.124-6.407-12.278-3.559-26.195-7.593-52.475-7.593-26.279 0-40.195 4.034-52.474 7.593-11.367 3.295-22.103 6.407-44.122 6.407s-32.756-3.112-44.123-6.407c-9.703-2.812-20.435-5.919-37.475-7.1v-56.493zm-129.31 130v-43.427c12.601 1.047 20.691 3.39 29.123 5.834 12.279 3.559 26.195 7.593 52.475 7.593 26.279 0 40.196-4.034 52.475-7.593 11.367-3.294 22.103-6.407 44.122-6.407 22.02 0 32.756 3.112 44.124 6.407 12.278 3.559 26.195 7.593 52.476 7.593s40.198-4.034 52.478-7.593c11.368-3.295 22.105-6.407 44.126-6.407s32.758 3.112 44.126 6.407c9.512 2.757 20.013 5.798 36.478 7.029v30.564z"/><path d="m211.14 222.857c0 2.3 0 6.58-8.33 10.78-2.31 1.16-4.9 1.73-7.77 1.72-3.1 0-5.77-.75-8.16-2.28-6.36-4.06-6.88-7-6.88-10.16v-60.55h-30v60.55c0 14.73 6.97 26.66 20.73 35.44 7.25 4.64 15.41 6.99 24.27 7h.08c7.59 0 14.73-1.66 21.23-4.93 16.01-8.06 24.83-21.41 24.83-37.57v-60.49h-30z"/><path d="m331.38 264.037 33.76-101.67h-31.61l-15.17 45.67-15.77-45.67h-31.74l35.12 101.67z"/></g></svg>