<svg id="Capa_1" enable-background="new 0 0 512 512" height="512" viewBox="0 0 512 512" width="512" xmlns="http://www.w3.org/2000/svg"><g><path d="m462.571 216.976h-191.571v-179.426h-72.277c-38.714 0-74.338 13.457-102.461 35.927l-32.035-27.796-19.661 22.659 29.959 25.995c-25.049 28.864-40.228 66.512-40.228 107.639v17.38c-19.874 6.408-34.297 25.073-34.297 47.051v68.857c0 22.318 14.873 41.22 35.224 47.339 6.382 51.696 50.57 91.85 103.964 91.85h233.623c53.394 0 97.582-40.154 103.964-91.85 20.352-6.119 35.225-25.021 35.225-47.339v-68.857c0-27.255-22.174-49.429-49.429-49.429zm-263.848-149.426h42.277v131.515l-121.621-105.53c22.253-16.327 49.69-25.985 79.344-25.985zm-134.426 134.424c0-33.617 12.405-64.391 32.877-87.987l118.693 102.989h-151.57zm-34.297 113.86h38.857v19.428c0 10.713-8.715 19.429-19.428 19.429-10.713 0-19.428-8.716-19.428-19.429v-19.428zm344.286 0h38.857v19.428c0 10.713-8.715 19.429-19.428 19.429s-19.429-8.716-19.429-19.429zm-30 19.428c0 10.713-8.716 19.429-19.429 19.429s-19.428-8.716-19.428-19.429v-19.428h38.857zm-68.857 0c0 10.713-8.716 19.429-19.429 19.429s-19.429-8.716-19.429-19.429v-19.428h38.857v19.428zm-68.858 0c0 10.713-8.716 19.429-19.429 19.429s-19.428-8.716-19.428-19.429v-19.428h38.857zm-68.857 0c0 10.713-8.716 19.429-19.429 19.429s-19.429-8.716-19.429-19.429v-19.428h38.857v19.428zm235.098 109.188h-233.624c-37.027 0-67.835-27.063-73.727-62.443 6.963-2.395 13.225-6.299 18.396-11.327 8.908 8.661 21.052 14.011 34.429 14.011s25.521-5.35 34.429-14.011c8.908 8.661 21.052 14.011 34.428 14.011s25.521-5.35 34.429-14.011c8.908 8.661 21.052 14.011 34.429 14.011 13.376 0 25.521-5.35 34.429-14.011 8.908 8.661 21.052 14.011 34.428 14.011s25.521-5.35 34.429-14.011c8.908 8.661 21.052 14.011 34.429 14.011s25.521-5.35 34.428-14.011c5.171 5.028 11.433 8.932 18.396 11.327-5.893 35.38-36.702 62.443-73.728 62.443zm109.188-109.188c0 10.713-8.716 19.429-19.429 19.429s-19.428-8.716-19.428-19.429v-19.428h38.857zm-452-49.428v-19.429c0-10.713 8.716-19.429 19.429-19.429h413.143c10.713 0 19.429 8.716 19.429 19.429v19.429z"/></g></svg>