<svg id="Layer_1" enable-background="new 0 0 511.998 511.998" height="512" viewBox="0 0 511.998 511.998" width="512" xmlns="http://www.w3.org/2000/svg"><g><path d="m60.004 204.17h30v42.666h-30z"/><path d="m60.004 296.836h30v42.666h-30z"/><path d="m421.994 204.17h30v42.666h-30z"/><path d="m421.994 296.836h30v42.666h-30z"/><path d="m481.998 50.833v24.333h-30.004v-24.333h-30v24.333h-30.003v-24.333h-30v131h-30.988v-24.333h-30v24.333h-30.004v-49.334h29.332v-30h-59.332v79.334h-30.004v-24.333h-30v24.333h-30.988v-131h-30v24.333h-30.003v-24.333h-30v24.333h-30.004v-24.333h-30v410.333h511.998v-410.333zm0 84.336h-90.007v-30.004h90.007zm-361.991 0h-90.007v-30.004h90.007zm-90.007 295.997v-265.997h90.007v265.996h-90.007zm251.001 0h-50.005v-48.333c1.261-33.132 48.756-33.107 50.005 0zm30 0v-48.333c-2.774-72.887-107.257-72.831-110.005 0v48.333h-50.989v-219.333h211.983v219.333zm80.99 0v-265.997h90.007v265.996h-90.007z"/><path d="m240.999 253.499h30v40.333h-30z"/><path d="m301.003 253.499h30v40.333h-30z"/><path d="m180.995 253.499h30v40.333h-30z"/></g></svg>