<svg id="Capa_1" enable-background="new 0 0 512.013 512.013" height="512" viewBox="0 0 512.013 512.013" width="512" xmlns="http://www.w3.org/2000/svg"><g><path d="m256.007 0c-116.943 0-212.083 95.14-212.083 212.083 0 56.649 22.061 109.908 62.118 149.965l149.965 149.965 149.965-149.965c40.057-40.057 62.118-93.315 62.118-149.965-.001-116.943-95.141-212.083-212.083-212.083zm128.752 340.835-128.752 128.751-128.752-128.751c-34.391-34.391-53.331-80.116-53.331-128.752 0-100.401 81.682-182.083 182.083-182.083 100.4 0 182.083 81.683 182.083 182.083-.001 48.636-18.941 94.361-53.331 128.752z"/><path d="m256.007 60c-83.859 0-152.083 68.224-152.083 152.083s68.224 152.083 152.083 152.083 152.083-68.224 152.083-152.083-68.225-152.083-152.083-152.083zm0 274.166c-67.317 0-122.083-54.766-122.083-122.083s54.766-122.083 122.083-122.083 122.083 54.766 122.083 122.083-54.767 122.083-122.083 122.083z"/><path d="m292.897 201.851c7.688-8.692 12.369-20.103 12.369-32.592 0-27.162-22.098-49.259-49.259-49.259s-49.259 22.098-49.259 49.259c0 12.489 4.681 23.9 12.369 32.592-12.78 10.615-20.934 26.617-20.934 44.49 0 31.884 25.939 57.824 57.824 57.824s57.824-25.94 57.824-57.824c-.001-17.872-8.154-33.875-20.934-44.49zm-56.15-32.592c0-10.62 8.64-19.259 19.259-19.259s19.259 8.64 19.259 19.259-8.64 19.259-19.259 19.259-19.259-8.64-19.259-19.259zm19.26 104.907c-15.342 0-27.824-12.482-27.824-27.824s12.481-27.824 27.824-27.824 27.823 12.482 27.823 27.824-12.481 27.824-27.823 27.824z"/></g></svg>