<svg id="Capa_1" enable-background="new 0 0 512 512" height="512" viewBox="0 0 512 512" width="512" xmlns="http://www.w3.org/2000/svg"><g><path d="m286 204.787-30 30-30-30-21.213 21.213 30 30-30 30 21.213 21.213 30-30 30 30 21.213-21.213-30-30 30-30z"/><path d="m256 121c-74.439 0-135 60.561-135 135s60.561 135 135 135 135-60.561 135-135-60.561-135-135-135zm0 240c-57.897 0-105-47.103-105-105s47.103-105 105-105 105 47.103 105 105-47.103 105-105 105z"/><path d="m512 241h-31.504c-3.561-54.453-26.456-105.158-65.397-144.099-38.942-38.942-89.646-61.836-144.099-65.397v-31.504h-30v31.504c-54.453 3.561-105.158 26.456-144.099 65.397-38.941 38.941-61.836 89.646-65.397 144.099h-31.504v30h31.504c3.561 54.453 26.456 105.158 65.397 144.099 38.942 38.941 89.646 61.836 144.099 65.397v31.504h30v-31.504c54.453-3.561 105.157-26.456 144.099-65.397 38.941-38.942 61.836-89.646 65.397-144.099h31.504zm-241 209.429v-29.429h-30v29.429c-95.591-7.306-172.123-83.838-179.429-179.429h29.429v-30h-29.429c7.306-95.591 83.838-172.123 179.429-179.429v29.429h30v-29.429c95.591 7.306 172.123 83.838 179.429 179.429h-29.429v30h29.429c-7.306 95.591-83.838 172.123-179.429 179.429z"/></g></svg>