<svg id="Capa_1" enable-background="new 0 0 512 512" height="512" viewBox="0 0 512 512" width="512" xmlns="http://www.w3.org/2000/svg"><g><g><path d="m473.928 422.009c5.123-8.833 8.072-19.075 8.072-30 0-33.084-26.916-60-60-60h-.22v-52.233c0-25.98-13.23-48.927-33.306-62.462 11.113-10.896 18.026-26.062 18.026-42.819 0-33.084-26.916-60-60-60-10.491 0-20.358 2.714-28.947 7.466-5.338-7.559-12.006-14.022-19.599-19.124 11.125-10.897 18.046-26.071 18.046-42.837 0-33.084-26.916-60-60-60s-60 26.916-60 60c0 16.742 6.9 31.897 17.997 42.791-3.987 2.693-7.748 5.784-11.223 9.263-3.051 3.051-5.829 6.381-8.316 9.914-8.592-4.755-18.462-7.472-28.957-7.472-33.084 0-60 26.916-60 60 0 16.756 6.912 31.922 18.026 42.819-20.076 13.535-33.306 36.481-33.306 62.462v52.233h-.221c-33.084 0-60 26.916-60 60 0 10.925 2.949 21.167 8.072 30h-38.072v30h512v-30h-38.072zm-82.148-142.233v52.233h-90.56v-52.233c0-24.968 20.312-45.28 45.28-45.28s45.28 20.312 45.28 45.28zm-150.78 82.233v60h-75.5v-60zm30 0h75.5v60h-75.5zm105.5-187.513c0 16.542-13.458 30-30 30s-30-13.458-30-30 13.458-30 30-30 30 13.458 30 30zm-150.5-114.496c0-16.542 13.458-30 30-30s30 13.458 30 30-13.458 30-30 30-30-13.458-30-30zm69.438 83.035c-5.661 9.154-8.938 19.93-8.938 31.461 0 16.756 6.912 31.922 18.026 42.819-20.076 13.535-33.306 36.481-33.306 62.462v52.233h-30.44v-52.233c0-25.98-13.23-48.927-33.306-62.462 11.113-10.896 18.026-26.062 18.026-42.819 0-11.53-3.276-22.305-8.936-31.458 2.018-3.562 4.522-6.87 7.427-9.776 8.544-8.552 19.912-13.262 32.009-13.262 16.47 0 31.508 9.011 39.438 23.035zm-159.938 31.461c0-16.542 13.458-30 30-30s30 13.458 30 30-13.458 30-30 30-30-13.458-30-30zm-15.28 105.28c0-24.968 20.312-45.28 45.28-45.28s45.28 20.312 45.28 45.28v52.233h-90.56zm-60.22 112.233c0-16.542 13.458-30 30-30h45.5v60h-45.5c-16.542 0-30-13.458-30-30zm316.5 30v-60h45.5c16.542 0 30 13.458 30 30s-13.458 30-30 30z"/></g><g><path d="m115.5 482h396.5v30h-396.5z"/></g><g><path d="m0 482h85.22v30h-85.22z"/></g></g></svg>