<svg id="Capa_1" enable-background="new 0 0 512 512" height="512" viewBox="0 0 512 512" width="512" xmlns="http://www.w3.org/2000/svg"><g><path d="m242.426 196.21h30v-30.353h30v-30.005h-200.957v30.005h140.957z"/><path d="m470.053 512-26.961-239.995h-81.145v-138.805c0-40.403-32.865-73.273-73.261-73.273h-11.261v-29.922h30v-30.005h-210.956v30.005h30v29.922h-11.261c-40.396 0-73.261 32.87-73.261 73.273v348.795h54.522v30.005h30v-30.005h103.439l-3.371 30.005zm-33.56-30.005h-176.397l20.22-179.986h135.957zm-280.024-451.99h90.957v29.922h-90.957zm-41.261 59.927h173.479c23.854 0 43.261 19.41 43.261 43.268v138.805h-78.449l-13.479 119.976h-168.073v-258.781c0-23.858 19.407-43.268 43.261-43.268zm-43.261 362.058v-30.005h164.702l-3.371 30.005z"/><path d="m346.947 406.983c24.813 0 45-20.19 45-45.007v-30.005h-30v30.005c0 8.272-6.729 15.002-15 15.002s-15-6.73-15-15.002v-30.005h-30v30.005c0 24.817 20.187 45.007 45 45.007z"/></g></svg>