<svg id="Capa_1" enable-background="new 0 0 510 510" height="512" viewBox="0 0 510 510" width="512" xmlns="http://www.w3.org/2000/svg"><g><path d="m492.193 287.821c-23.723-23.723-62.323-23.722-86.046 0l-4.643 4.643c-.703-.521-2.247-2.34-4.712-4.734-6.136-5.96-17.979-15.48-36.778-17.382v-105.348c0-90.981-74.019-165-165-165s-165 74.019-165 165v176.163c-18.461 17.452-30 42.154-30 69.503v99.334h390v-56.932l11.489 11.489 90.691-90.69c23.723-23.723 23.722-62.324-.001-86.046zm-432.179-122.821c0-74.439 60.56-135 135-135s135 60.561 135 135v109.875c-16.682 7.075-29.976 21.625-34.933 40.125h-40.067v-32.883c27.183-18.996 45-50.513 45-86.117v-61h-15c-24.813 0-45-20.187-45-45h-30c0 24.813-20.187 45-45 45h-75v61c0 35.605 17.817 67.121 45 86.117v32.883h-39.333c-12.601 0-24.639 2.454-35.666 6.901v-156.901zm165 158.787-30 29.999-30-29.999v-27.161c19.061 5.693 40.005 5.972 60 0zm-30-52.787c-41.355 0-75-33.645-75-75v-31h45c24.507 0 46.305-11.814 60-30.047 10.824 14.412 26.714 24.813 45 28.541v32.506c0 41.355-33.645 75-75 75zm-165 139.667c0-36.208 29.458-65.667 65.666-65.667h48.121l36.213 36.213v98.787h-75v-60h-30v60h-45v-69.333zm330 69.333h-45v-60h-30v60h-75v-98.787l36.213-36.213h48.425c2.572 10.84 8.085 20.791 16.162 28.867l49.201 49.201v56.932zm110.967-127.346-69.478 69.476-69.477-69.476c-12.026-12.026-12.026-31.594 0-43.62 12.024-12.024 31.592-12.028 43.621-.001l25.857 25.857 25.856-25.856c12.026-12.026 31.594-12.025 43.621 0 12.026 12.026 12.026 31.594 0 43.62z"/></g></svg>