<svg id="Capa_1" enable-background="new 0 0 512 512" height="512" viewBox="0 0 512 512" width="512" xmlns="http://www.w3.org/2000/svg"><g><path d="m260.734 248.308v-60h90v-30c0-41.355-33.645-75-75-75s-75 33.645-75 75h-13.934c-8.013 0-15.547-3.121-21.214-8.787l-37.551-37.55c-3.431-3.431-7.14-6.48-11.069-9.144 11.118-10.898 18.034-26.067 18.034-42.827 0-33.084-26.916-60-60-60s-60 26.916-60 60c0 16.773 6.927 31.953 18.06 42.852-19.933 13.494-33.06 36.317-33.06 62.148v347h150v-269.437c11.816 3.787 24.243 5.744 36.8 5.745zm15-135c24.813 0 45 20.187 45 45h-90c0-24.813 20.187-45 45-45zm-230.734-53.308c0-16.542 13.458-30 30-30s30 13.458 30 30-13.458 30-30 30-30-13.458-30-30zm45 422v-166h-30v166h-30v-196h90v196zm52.417-275.344-22.417-12.754v62.098h-90v-91c0-24.813 20.187-45 45-45 12.021 0 23.322 4.682 31.822 13.183l37.552 37.552c11.333 11.332 26.4 17.573 42.427 17.573h43.934v30h-43.934c-15.638-.001-30.986-4.03-44.384-11.652z"/><path d="m482 278.308c0-41.355-33.645-75-75-75s-75 33.645-75 75h-152v233.692h30v-30h272v30h30v-233.692zm-120-.001c0-24.813 20.187-45 45-45s45 20.187 45 45zm-152 173.693v-143.692h272v143.692z"/></g></svg>