<svg id="Capa_1" enable-background="new 0 0 512.096 512.096" height="512" viewBox="0 0 512.096 512.096" width="512" xmlns="http://www.w3.org/2000/svg"><g><path d="m374.096 356.141v-129.735c46.181-24.452 51.205-91.475 7.641-122.254.001 0-74.308-53.197-74.308-53.197v29.186c0 21.137-17.196 38.333-38.333 38.333h-211c-63.576.985-80.438 86.519-23 111.932v161.39c0 38.237 31.107 69.345 69.345 69.345h407.655v-105zm-30-121v121h-47.25v-121zm-286-86.666h211c28.625 0 53.195-17.691 63.351-42.715l31.828 22.786c11.055 7.914 17.654 20.755 17.654 34.351 0 23.294-18.951 42.245-42.245 42.245h-281.588c-37.496-1.514-37.664-55.079 0-56.667zm208.75 86.666v121h-47.25v-121zm-77.25 0v121h-47.25v-121zm-124.5 0h47.25v121h-47.25zm417 196h-377.655c-21.694 0-39.345-17.65-39.345-39.345v-5.655h417z"/></g></svg>