<svg id="Capa_1" enable-background="new 0 0 512 512" height="512" viewBox="0 0 512 512" width="512" xmlns="http://www.w3.org/2000/svg"><g><path d="m416.752 270.523c1.759-4.815 2.719-10.013 2.719-15.433 0-11.491-4.318-21.99-11.412-29.945 7.093-7.955 11.412-18.454 11.412-29.945 0-15.956-8.333-29.987-20.852-37.964 12.897-13.469 20.852-31.749 20.852-51.871 0-41.294-33.439-74.89-74.541-74.89h-207.631c-24.687 0-44.771 20.163-44.771 44.945 0 11.491 4.318 21.99 11.412 29.945-7.093 7.955-11.412 18.454-11.412 29.945 0 15.956 8.333 29.987 20.851 37.964-12.897 13.469-20.851 31.749-20.851 51.87 0 17.049 5.711 32.776 15.296 45.377h-107.824v45c0 41.723 33.944 75.667 75.667 75.667h1.294v90.333h119.476v-90.331h119.127v90.333h119.476v-90.333h1.96c41.355 0 75-33.645 75-75v-45.667zm-279.453-180.156c-8.145 0-14.771-6.705-14.771-14.945s6.626-14.945 14.771-14.945h207.631c24.56 0 44.541 20.138 44.541 44.89s-19.981 44.89-44.541 44.89h-177.861-29.77c-8.145 0-14.771-6.704-14.771-14.945s6.626-14.945 14.771-14.945h206.642v-30zm29.77 89.889h177.861 29.77c8.145 0 14.771 6.704 14.771 14.945s-6.626 14.945-14.771 14.945h-206.641v30h206.642c8.145 0 14.771 6.704 14.771 14.945s-6.626 14.945-14.771 14.945h-207.632c-24.56 0-44.541-20.137-44.541-44.89s19.982-44.89 44.541-44.89zm-.632 271.267h-59.476v-60.333h59.476zm238.602 0h-59.476v-60.333h59.476zm76.961-135.333c0 24.813-20.187 45-45 45h-361.333c-25.181 0-45.667-20.486-45.667-45.667v-15h452z"/></g></svg>