<svg id="Capa_1" enable-background="new 0 0 512 512" height="512" viewBox="0 0 512 512" width="512" xmlns="http://www.w3.org/2000/svg"><g><path d="m462.27 397.666c-5.159-25.8-24.944-46.754-50.405-53.384l-81.804-21.3-7.995-44.624c11.549-13.277 19.546-30.033 22.4-48.584h6.774c30.127 0 54.637-24.51 54.637-54.637 0-24.925-16.783-45.99-39.637-52.526v-77.486c.001-24.882-20.242-45.125-45.124-45.125h-130.232c-24.882 0-45.125 20.243-45.125 45.125v77.486c-22.854 6.537-39.637 27.601-39.637 52.526 0 30.127 24.51 54.637 54.637 54.637h6.774c2.854 18.551 10.852 35.307 22.4 48.584l-7.995 44.624-81.804 21.3c-25.461 6.63-45.247 27.584-50.405 53.384l-22.859 114.334h458.26zm-100.77 84.334h-30.25v-15.124c0-8.34 6.785-15.125 15.125-15.125s15.125 6.785 15.125 15.125zm-144.865-182.564c11.89 6.151 25.25 9.611 39.365 9.611s27.475-3.46 39.365-9.611l5.185 28.941-44.55 31.768-44.55-31.768zm-20.263-148.936h119.256v64.109c0 35.531-26.749 64.438-59.628 64.438s-59.628-28.907-59.628-64.438zm179.506 24.637c0 13.585-11.052 24.637-24.637 24.637h-5.613v-49.274h5.613c13.585 0 24.637 11.052 24.637 24.637zm-184.994-145.137h130.232c8.34 0 15.125 6.785 15.125 15.125v75.375h-160.482v-75.375c0-8.34 6.785-15.125 15.125-15.125zm-54.762 145.137c0-13.585 11.052-24.637 24.637-24.637h5.613v49.273h-5.613c-13.585 0-24.637-11.051-24.637-24.636zm-56.974 228.41c2.921-14.612 14.126-26.479 28.547-30.234l42.93-11.178v59.612h-15.125v30h60.25v-30h-15.125v-67.424l11.383-2.964 63.992 45.633 63.992-45.632 11.383 2.964v70c-17.529 6.198-30.125 22.927-30.125 42.552v15.124h-237.788zm312.352 78.453v-15.124c0-19.624-12.596-36.354-30.125-42.552v-62.189l42.93 11.178c14.42 3.754 25.625 15.622 28.547 30.234l15.686 78.453z"/><path d="m241.006 105.375h30v-15.125h15.125v-30h-15.125v-15.125h-30v15.125h-15.125v30h15.125z"/></g></svg>