<svg id="Capa_1" enable-background="new 0 0 512 512" height="512" viewBox="0 0 512 512" width="512" xmlns="http://www.w3.org/2000/svg"><g><path d="m87.351 188.184v14.974h30v-14.974c0-24.771-20.187-44.923-45-44.923h-27.569c-8.151 0-14.782-6.62-14.782-14.757s6.631-14.757 14.782-14.757h15v-29.949h-15c-24.693 0-44.782 20.055-44.782 44.706s20.089 44.706 44.782 44.706h27.568c8.272 0 15.001 6.718 15.001 14.974z"/><path d="m480.523 482.051c9.42-23.806 14.332-49.39 14.332-75.163 0-49.819-18.269-96.897-49.674-133.309v-137.061c0-75.276-61.347-136.518-136.752-136.518s-136.752 61.242-136.752 136.518v136.978c-13.877-8.213-25.651-19.562-34.438-33.284l-4.424-6.909h-70.284l-2.174 12.39c-1.331 7.584-2.006 15.359-2.006 23.11 0 25.379 7.186 50.062 20.782 71.381 11.238 17.623 26.402 32.306 44.252 42.942-.921 7.828-1.393 15.759-1.393 23.761 0 25.773 4.912 51.356 14.332 75.163h-31.476v29.95h407.152v-29.949zm-16.34-59.897h-311.52c-.447-5.068-.672-10.162-.672-15.265 0-67.395 39.185-128.913 100.094-157.613h112.676c60.909 28.699 100.094 90.218 100.094 157.613 0 5.102-.226 10.197-.672 15.265zm-197.794-202.827c6.175-17.222 22.687-29.576 42.034-29.576s35.859 12.354 42.034 29.576zm42.04-189.378c58.863 0 106.752 47.807 106.752 106.57v108.66c-10.143-7.82-21.097-14.743-32.767-20.622-4.797-36.491-36.15-64.754-73.991-64.754-37.842 0-69.195 28.263-73.991 64.754-11.666 5.877-22.615 12.797-32.755 20.613v-108.652c0-58.762 47.889-106.569 106.752-106.569zm-220.078 238.855c0-1.851.049-3.703.148-5.552h28.196c10.09 13.789 22.659 25.444 37.083 34.427-10.518 16.58-18.656 34.668-24.065 53.723-25.895-19.246-41.362-49.465-41.362-82.598zm80.677 213.247c-4.604-9.613-8.307-19.648-11.07-29.949h300.93c-2.763 10.301-6.466 20.336-11.07 29.949z"/></g></svg>