<svg id="Capa_1" enable-background="new 0 0 512 512" height="512" viewBox="0 0 512 512" width="512" xmlns="http://www.w3.org/2000/svg"><g><path d="m451.75 60.251h-150.625v-60.251h-90.25v60.251h-150.625v331.249h150.625v120.5h90.25v-120.5h150.625zm-210.875-30.251h30.25v30.251h-30.25zm30.25 452h-30.25v-90.5h30.25zm150.625-120.5h-331.5v-271.249h331.5z"/><path d="m256 331.257c58.108 0 105.382-47.274 105.382-105.382s-47.274-105.383-105.382-105.383-105.382 47.274-105.382 105.382 47.274 105.383 105.382 105.383zm-56.439-55.488 41.439-23.919v47.903c-16.347-3.313-30.78-11.941-41.439-23.984zm71.439 23.985v-47.904l41.439 23.918c-10.659 12.044-25.092 20.672-41.439 23.986zm60.382-73.879c0 8.364-1.39 16.405-3.916 23.929l-56.466-32.593v-65.216c34.404 6.975 60.382 37.449 60.382 73.88zm-90.382-73.88v65.217l-56.466 32.592c-2.526-7.524-3.916-15.565-3.916-23.929 0-36.431 25.978-66.905 60.382-73.88z"/></g></svg>