<svg id="Capa_1" enable-background="new 0 0 511.931 511.931" height="512" viewBox="0 0 511.931 511.931" width="512" xmlns="http://www.w3.org/2000/svg"><g><path d="m150.965 135.965h-45v60 30 60h45c24.813 0 45-20.187 45-45 0-11.517-4.354-22.032-11.495-30 7.142-7.968 11.495-18.483 11.495-30 0-24.813-20.187-45-45-45zm-15 30h15c8.271 0 15 6.729 15 15s-6.729 15-15 15h-15zm15 90h-15v-30h15c8.271 0 15 6.729 15 15s-6.729 15-15 15z"/><path d="m279.257 130.841-23.292 46.583-23.292-46.583-26.832 13.416 35.124 70.249v71.459h30v-71.459l35.125-70.249z"/><path d="m330.965 285.965h75v-30h-45v-30h30v-30h-30v-30h45v-30h-75z"/><path d="m504.612 66.092 7.319-20.126h-511.931l7.319 20.126c48.61 133.678 25.488 219.654 0 289.748l-7.319 20.125h150.965v15c0 24.813-20.187 45-45 45v30h60c41.355 0 75-33.645 75-75v-15h270.965l-7.319-20.126c-48.609-133.678-25.487-219.654.001-289.747zm-293.647 279.873v45c0 24.813-20.187 45-45 45h-.036c9.436-12.543 15.036-28.131 15.036-45v-45h-138.393c22.727-67.707 38.695-150.357-.131-270h426.917c-22.727 67.707-38.695 150.357.131 270z"/></g></svg>