<svg id="Capa_1" enable-background="new 0 0 511.636 511.636" height="512" viewBox="0 0 511.636 511.636" width="512" xmlns="http://www.w3.org/2000/svg"><g><path d="m280.263 263.282 85.546-29.845 85.545 29.845-1.95-90.582 54.82-72.136-86.75-26.136-51.665-74.428-51.665 74.428-86.75 26.136 54.819 72.136zm118.535-163.149 55.392 16.689-35.004 46.06 1.245 57.838-54.623-19.057-54.623 19.057 1.246-57.838-35.004-46.06 55.392-16.689 32.989-47.524z"/><path d="m470.523 321.683c-32.253 21.348-69.823 32.631-108.648 32.631-108.704 0-197.141-88.437-197.141-197.141 0-38.841 11.292-76.424 32.655-108.685l-17.077-22.568c-49.832 15.941-92.728 46.681-124.05 88.895-31.958 43.073-48.851 94.27-48.851 148.055 0 66.448 25.876 128.919 72.862 175.904 46.985 46.986 109.456 72.862 175.904 72.862 53.777 0 104.965-16.89 148.029-48.844 42.203-31.315 72.938-74.204 88.882-124.029zm-410.059 39.176c-11.582-23.076-18.959-48.116-21.763-74.164 12.808-3.005 26.08-1.979 38.279 2.971 9.676 23.837 4.156 52.636-16.516 71.193-.064.057 0 0 0 0zm78.34 73.866c-.048.048-8.337 7.254-8.337 7.254-10.242-7.221-19.938-15.375-28.981-24.418-9.161-9.161-17.405-18.995-24.696-29.385 0 0 2.953-4.123 7.23-8.301 18.063-18.265 45.162-23.852 68.993-14.175 9.68 23.843 4.081 50.962-14.209 69.025zm93.144 45.577c-26.067-2.854-51.118-10.288-74.196-21.936 0 0-.048.052 0 0 19.325-20.769 47.452-26.311 71.295-16.633 4.988 12.292 5.99 25.67 2.901 38.569zm154.382-41.603c-36.212 26.87-78.969 41.612-124.009 42.842 3.434-19.609.923-42.573-10.765-62.316-20.646-12.59-45.707-14.455-65.881-10.154 4.301-20.174 2.068-44.77-10.154-65.88-21.111-12.889-45.706-14.455-65.88-10.155 4.301-20.174 2.603-42.234-10.154-65.88-20.743-11.521-42.47-14.157-61.97-10.817 1.304-44.906 16.04-87.531 42.838-123.648 19.312-26.029 43.622-47.098 71.518-62.199-11.285 27.304-17.14 56.669-17.14 86.681 0 60.671 23.627 117.711 66.528 160.613 42.901 42.901 99.941 66.528 160.613 66.528 29.997 0 59.351-5.85 86.645-17.125-15.1 27.895-36.166 52.201-62.189 71.51z"/></g></svg>