<svg id="Layer_1" enable-background="new 0 0 510 510" height="512" viewBox="0 0 510 510" width="512" xmlns="http://www.w3.org/2000/svg"><g><path d="m450 75h-34.845l-30-75c-83.457 0-213.372 0-260.311 0l-30 75h-34.844v90h31.248l30 345h267.505l30-345h31.247zm-30 60h-330v-30h330zm-55.155-105 18 45h-64.548l9-45zm-68.142 0-9 45h-65.406l-9-45zm-151.548 0h37.548l9 45h-64.548zm3.597 450-2.609-30h217.713l-2.609 30zm217.713-60h-222.93l-22.174-255h267.278z"/><path d="m191.36 363.64c31.431 31.431 83.962 22.105 116.672-10.607 81.832-87.354-19.125-187.727-106.065-106.065-33.109 33.108-41.748 85.531-10.607 116.672zm95.46-31.821c-19.058 19.06-44.693 25.745-63.028 18.083 20.046-7.164 38.566-26.274 44.998-43.996 2.418-5.643 4.165-9.72 10.963-16.517 10.648-10.649 15.232-9.234 26.75-15.938 4.878 17.845-2.192 40.877-19.683 58.368zm-63.639-63.639c16.603-16.604 42.342-26.717 63.019-18.081-19.678 6.98-38.483 26.04-44.985 43.989-2.418 5.643-4.166 9.72-10.963 16.517-10.625 10.625-15.278 9.261-26.754 15.941-4.878-17.843 2.19-40.874 19.683-58.366z"/></g></svg>