<svg id="Capa_1" enable-background="new 0 0 512 512" height="512" viewBox="0 0 512 512" width="512" xmlns="http://www.w3.org/2000/svg"><g><path d="m376.5 241c-27.76 0-53.593 8.396-75.104 22.775l-.006-136.955c0-12.3-4.856-23.799-13.673-32.377-8.814-8.577-20.444-13.114-32.758-12.777-4.856.133-9.525 1.077-13.896 2.682v-21.033c0-24.908-20.264-45.171-45.172-45.171-7.531 0-14.632 1.863-20.883 5.136-7.718-13.871-22.525-23.28-39.493-23.28-16.963 0-31.765 9.403-39.487 23.267-6.244-3.265-13.336-5.123-20.857-5.123-24.907 0-45.171 20.264-45.171 45.171v123.286c-17.413 6.399-30 23.45-30 43.094v86.808c0 83.053 67.569 150.656 150.623 150.699h.079c37.558 0 73.018-13.652 100.72-38.604 20.456 48.93 68.815 83.402 125.078 83.402 74.715 0 135.5-60.785 135.5-135.5s-60.785-135.5-135.5-135.5zm-301.329-192.856c8.366 0 15.172 6.806 15.172 15.171v165.752c0-12.3-4.856-23.799-13.673-32.378-4.826-4.696-10.504-8.171-16.67-10.307v-123.067c0-8.365 6.806-15.171 15.171-15.171zm160.856 353.726c-22.797 22.787-53.095 35.333-85.326 35.333-.02 0-.043 0-.063 0-66.52-.035-120.638-54.181-120.638-120.7v-86.808c0-8.485 6.61-15.57 14.735-15.793 4.134-.111 8.054 1.41 11.015 4.29 2.962 2.882 4.594 6.744 4.594 10.875v88.599h30v-81.746h30v-190.749c0-8.366 6.806-15.171 15.171-15.171s15.172 6.806 15.172 15.171v190.749h.034 29.966.034v-172.605c0-8.366 6.806-15.171 15.171-15.171s15.172 6.806 15.172 15.171l-.017 170.32h30l.017-106.541c.182-8.327 6.707-15.221 14.718-15.44 4.142-.121 8.055 1.41 11.015 4.29 2.962 2.882 4.593 6.744 4.593 10.876l.008 164.261c-18.993 23.326-30.398 53.064-30.398 85.419 0 6.314.444 12.526 1.284 18.613-1.993 2.316-4.073 4.574-6.257 6.757zm140.473 80.13c-58.173 0-105.5-47.327-105.5-105.5s47.327-105.5 105.5-105.5 105.5 47.327 105.5 105.5-47.327 105.5-105.5 105.5z"/><path d="m363.195 388.856-29.922-29.922-21.213 21.213 51.135 51.135 77.745-77.744-21.213-21.213z"/></g></svg>