<svg id="Capa_1" enable-background="new 0 0 512 512" height="512" viewBox="0 0 512 512" width="512" xmlns="http://www.w3.org/2000/svg"><g><path d="m495.925 320.29c-10.241-8.586-23.67-12.17-36.843-9.837-20.771 3.681-38.63 5.547-53.082 5.547-56.831 0-144.381-28.939-145.257-29.23-3.769-1.257-93.018-30.77-154.743-30.77-18.983 0-42.442 2.742-69.727 8.151-21.018 4.166-36.273 22.734-36.273 44.15v142.699c0 24.813 20.187 45 45 45h422c24.813 0 45-20.187 45-45v-96.253c0-13.333-5.859-25.893-16.075-34.457zm-13.925 130.71c0 8.271-6.729 15-15 15h-422c-8.271 0-15-6.729-15-15v-142.699c0-7.141 5.091-13.333 12.106-14.723 25.011-4.957 47.105-7.578 63.894-7.578 56.831 0 144.381 28.939 145.257 29.23 3.769 1.257 93.018 30.77 154.743 30.77 16.202 0 35.822-2.021 58.316-6.007 4.48-.795 8.86.373 12.335 3.286 1.998 1.675 5.349 5.391 5.349 11.468z"/><path d="m61 333.496h30v87.504h-30z"/><path d="m121 333.468h30v87.532h-30z"/><path d="m181 345.991h30v75.009h-30z"/><path d="m241 363.871h30v57.129h-30z"/><path d="m301 379.435h30v41.565h-30z"/><path d="m361 389.362h30v31.638h-30z"/><path d="m421 389.362h30v31.638h-30z"/><path d="m311.606 206.607-21.212-21.214-19.394 19.394v-188.787h-30v188.787l-19.394-19.394-21.212 21.214 55.606 55.606z"/><path d="m461.606 236.607-21.212-21.214-19.394 19.394v-218.787h-30v218.787l-19.394-19.394-21.212 21.214 55.606 55.606z"/><path d="m161.606 176.607-21.212-21.214-19.394 19.394v-158.787h-30v158.787l-19.394-19.394-21.212 21.214 55.606 55.606z"/></g></svg>