<svg id="Capa_1" enable-background="new 0 0 512.003 512.003" height="512" viewBox="0 0 512.003 512.003" width="512" xmlns="http://www.w3.org/2000/svg"><g id="XMLID_555_"><path id="XMLID_617_" d="m511.97 400.362c-.591-23.363-10.281-45.206-27.287-61.504-13.971-13.39-31.578-21.784-50.497-24.287 18.69-18.41 29.542-44.105 28.8-71.576-1.404-51.987-43.25-93.277-95.267-94.001-26.075-.352-50.687 9.521-69.252 27.83-18.569 18.312-28.795 42.758-28.795 68.835 0 26.66 10.283 51.119 28.973 69.015-14.582 2.263-29.512 8.503-42.29 17.671-12.527-9.607-27.25-15.707-42.878-17.775 18.69-18.41 29.542-44.105 28.8-71.576-.941-34.854-20.061-64.898-48.237-81.134 2.042-5.603 3.121-11.564 3.121-17.643 0-28.406-23.11-51.516-51.516-51.516s-51.516 23.11-51.516 51.516c0 6.098 1.085 12.075 3.139 17.692-7.021 4.072-13.576 9.06-19.511 14.913-18.569 18.312-28.795 42.759-28.795 68.836 0 26.591 10.229 50.991 28.826 68.876-18.894 2.506-36.481 10.89-50.44 24.262-17.012 16.296-26.713 38.142-27.317 61.516-.004.245-.031 101.03-.031 101.03h512.003s-.026-100.743-.033-100.98zm-168.5-92.053c-8.055-2.943-16.623-8.32-23.506-14.752-12.981-12.132-19.959-28.246-20.262-46.654h1.371c20.88 0 51.627-12.577 65.238-18.641 13.611 6.064 44.358 18.641 65.239 18.641h1.454c-.519 27.485-17.793 51.914-43.777 61.406l-9.853 3.6v25.677c0 7.182-5.843 13.025-13.025 13.025s-13.025-5.843-13.025-13.025v-25.677zm22.875-129.325c.318 0 .639.002.957.007 26.074.363 48.43 15.512 59.075 37.523-15.424-2.046-40.145-11.847-53.572-18.285l-6.494-3.119-6.494 3.119c-13.378 6.426-38.003 16.198-53.462 18.272 3.272-6.718 7.693-12.907 13.178-18.317 12.577-12.404 29.167-19.2 46.812-19.2zm-243.584 129.325c-8.056-2.943-16.624-8.32-23.506-14.752-12.981-12.132-19.958-28.245-20.261-46.654h1.37c21.195 0 60.422-3.381 85.233-15.417 9.27 4.632 25.751 11.444 46.705 14.195-.022 27.981-17.417 52.996-43.785 62.628l-9.853 3.6v25.677c0 7.182-5.843 13.025-13.025 13.025s-13.025-5.843-13.025-13.025v-25.677zm-37.286-91.471c3.288-6.849 7.772-13.154 13.35-18.655 12.578-12.403 29.167-19.2 46.812-19.2.318 0 .639.002.957.007 24.954.347 46.5 14.238 57.638 34.723-18.527-4.422-30.411-11.889-30.541-11.972l-8.385-5.464-8.264 5.645c-12.878 8.795-45.379 14.27-71.567 14.916zm38.656-72.62c0-11.864 9.652-21.516 21.516-21.516s21.516 9.652 21.516 21.516c0 2.371-.409 4.693-1.155 6.897-6.133-1.303-12.485-2.03-18.997-2.121-7.395-.103-14.671.619-21.724 2.122-.746-2.204-1.156-4.526-1.156-6.898zm-94.128 327.124c.004-29.065.013-67.688.024-70.386.886-31.574 27.663-57.229 59.762-57.229h.021l13.249.003c2.991 20.823 20.942 36.882 42.58 36.882 21.626 0 39.569-16.041 42.575-36.848l13.316.003c32.099.011 58.87 25.669 59.738 57.229.011 2.668.019 41.284.022 70.347h-231.287zm261.288 0c-.009-70.183-.023-70.758-.029-70.98-.417-16.496-5.39-32.224-14.252-45.787 10.54-6.775 22.736-10.848 33.495-10.848h.015l13.249.003c2.991 20.823 20.941 36.882 42.579 36.882 21.626 0 39.57-16.041 42.575-36.848l13.315.003c32.099.011 58.87 25.669 59.738 57.229.011 2.668.019 41.284.023 70.347h-190.708z"/><path id="XMLID_1423_" d="m265.981 144.282 57.031-62.22c9.872-10.771 13.519-25.629 9.753-39.746-3.541-13.277-12.919-23.746-25.729-28.72-12.809-4.974-26.795-3.579-38.369 3.83l-2.686 1.719-2.686-1.719c-11.574-7.408-25.56-8.803-38.369-3.83-12.81 4.975-22.188 15.443-25.729 28.721-3.765 14.117-.119 28.975 9.753 39.746zm-37.797-94.234c1.046-3.923 3.817-7.016 7.602-8.486 1.495-.581 3.043-.867 4.581-.867 2.356 0 4.687.674 6.756 1.999l18.859 12.071 18.859-12.071c3.421-2.189 7.552-2.601 11.337-1.131s6.556 4.562 7.602 8.485c1.113 4.171.035 8.562-2.882 11.744l-34.916 38.092-34.916-38.092c-2.917-3.183-3.995-7.573-2.882-11.744z"/></g></svg>