<svg id="Capa_1" enable-background="new 0 0 511.647 511.647" height="512" viewBox="0 0 511.647 511.647" width="512" xmlns="http://www.w3.org/2000/svg"><g><path d="m496.915 291-15.502-35.213 15.488-35.182c12.633-28.696 1.733-62.243-25.354-78.034l-33.238-19.376-8.149-37.567c-6.647-30.641-35.191-51.374-66.379-48.227l-38.28 3.862-28.674-25.602c-23.388-20.882-58.661-20.882-82.049 0l-28.699 25.624-38.246-3.858c-31.204-3.146-59.733 17.586-66.38 48.228l-8.157 37.599-33.21 19.359c-27.087 15.79-37.987 49.337-25.354 78.033l15.502 35.213-15.488 35.182c-12.633 28.696-1.733 62.243 25.354 78.034l33.238 19.376 8.149 37.567c6.2 28.582 31.447 48.542 60.132 48.542 3.43.242 40.209-3.833 44.527-4.176l28.674 25.602c11.695 10.442 26.357 15.662 41.024 15.662 14.664 0 29.332-5.222 41.024-15.662l28.699-25.624c4.509.382 40.97 4.407 44.494 4.173 28.683 0 53.931-19.962 60.131-48.542l8.156-37.599 33.21-19.36c27.09-15.791 37.99-49.337 25.357-78.034zm-27.47-82.482-18.369 41.726c-5.568 12.647-18.538 20.16-32.281 18.687l-108.01-11.56c.439-12.96-3.916-25.338-11.299-34.939l80.479-72.981c10.254-9.299 25.18-10.863 37.139-3.891l39.336 22.93c13.893 8.1 19.485 25.308 13.005 40.028zm-213.621 72.305c-13.785 0-25-11.215-25-25 1.373-33.166 48.632-33.156 50 0 0 13.786-11.215 25-25 25zm110.967-213.573c16.002-1.613 30.641 9.021 34.05 24.739l4.198 19.351c-16.206-1.033-32.549 4.389-45.227 15.887l-30.792 27.923 17.013-38.017c6.984-15.606 7.066-32.816 1.062-47.896zm-165.997 1.114 33.964-30.325c11.997-10.711 30.091-10.712 42.088 0l34.008 30.364c10.308 9.204 13.441 23.862 7.797 36.476l-44.366 99.141c-11.368-4.209-25.349-4.234-36.736-.063l-44.529-99.07c-5.677-12.626-2.552-27.303 7.774-36.523zm-55.973-1.088 19.701 1.987c-5.99 15.094-5.883 32.311 1.133 47.923l17.041 37.913-30.898-27.927c-12.685-11.465-29.026-16.861-45.223-15.812l4.197-19.345c3.408-15.718 18.048-26.348 34.049-24.739zm-89.626 101.255 39.387-22.96c11.938-6.96 26.848-5.41 37.1 3.856l80.601 72.851c-7.418 9.582-11.816 21.921-11.424 34.898l-107.992 11.737c-13.767 1.489-26.755-6.012-32.333-18.681l-18.345-41.672c-6.48-14.72-.889-31.929 13.006-40.029zm17.116 184.596-17.102-9.969c-13.895-8.1-19.486-25.308-13.006-40.028l7.977-18.119c10.836 8.979 24.604 14.095 39.16 14.095 3.626.319 43.489-4.485 48.094-4.859l-36.11 20.757c-14.825 8.519-25.006 22.394-29.013 38.123zm72.545 91.27c-16 1.613-30.641-9.021-34.05-24.738l-9.665-44.555c-2.93-13.505 3.151-27.206 15.132-34.092l94.184-54.139c7.044 10.26 17.474 18.016 29.666 21.655l-22.207 106.322c-2.83 13.55-13.985 23.588-27.758 24.978zm89.946 29.211-14.771-13.188c13.718-8.69 23.752-22.682 27.251-39.437l8.498-40.689 8.582 40.756c3.523 16.731 13.573 30.702 27.293 39.373l-14.767 13.184c-11.995 10.713-30.088 10.714-42.086.001zm175.727-98.473-9.653 44.497c-3.409 15.718-18.045 26.354-34.05 24.739l-45.36-4.576c-13.749-1.387-24.9-11.404-27.747-24.927l-22.381-106.287c12.208-3.596 22.661-11.317 29.74-21.549l94.275 53.986c12.012 6.879 18.111 20.59 15.176 34.117zm45.924-32.02-17.107 9.973c-4.026-15.732-14.232-29.598-29.085-38.104l-36.071-20.656c4.7.379 44.432 5.094 48.073 4.788 14.58 0 28.374-5.137 39.221-14.145l7.975 18.115c6.479 14.721.888 31.93-13.006 40.029z"/></g></svg>