<svg id="Layer_1" enable-background="new 0 0 510 510" height="512" viewBox="0 0 510 510" width="512" xmlns="http://www.w3.org/2000/svg"><path d="m465.162 391.898c0-11.762 0-110.357 0-121.898h-45v-195h-300v-15.929c0-32.572-26.499-59.071-59.071-59.071h-60.929v30h60.929c16.03 0 29.071 13.042 29.071 29.071v163.466c-146.773 66.035-103.078 284.914 60.002 287.463 82.708 0 149.998-67.29 149.998-150h135v31.898c-67.268 18.749-55.583 116.483 15.001 118.102 70.596-1.626 82.255-99.365 14.999-118.102zm-75-286.898v30h-270v-30zm-270 60h270v105h-120.076c-34.97-46.479-93.124-68.56-149.924-56.984zm30 225c-16.542 0-30-13.458-30-30 1.508-39.744 58.498-39.734 60 0 0 16.542-13.458 30-30 30zm30.454-81.667c-4.771-2.822-9.958-5.015-15.454-6.435v-60.963c21.879 2.741 41.943 11.396 58.543 24.309zm-45.454-6.435c-5.496 1.42-10.683 3.612-15.454 6.435l-43.089-43.089c16.6-12.912 36.664-21.568 58.543-24.309zm-36.667 27.648c-2.822 4.772-5.015 9.958-6.435 15.454h-60.962c2.74-21.879 11.397-41.943 24.309-58.543zm-6.435 45.454c1.42 5.496 3.612 10.683 6.435 15.454l-43.089 43.089c-12.912-16.6-21.568-36.664-24.309-58.543zm27.648 36.667c4.771 2.822 9.958 5.015 15.454 6.435v60.963c-21.879-2.741-41.943-11.397-58.543-24.309zm45.454 6.435c5.496-1.42 10.683-3.612 15.454-6.435l43.089 43.089c-16.6 12.912-36.664 21.567-58.543 24.309zm36.667-27.648c2.822-4.772 5.015-9.958 6.435-15.454h60.963c-2.741 21.879-11.396 41.943-24.309 58.543zm6.435-45.454c-1.42-5.496-3.612-10.683-6.435-15.454l43.089-43.089c12.912 16.6 21.567 36.664 24.309 58.543zm88.882-15c-2.127-10.433-5.347-20.472-9.522-30h147.538v30zm153.016 150c-16.542 0-30-13.458-30-30 1.508-39.744 58.498-39.734 60 0 0 16.542-13.458 30-30 30z"/></svg>