<?xml version="1.0" encoding="iso-8859-1"?>
<!-- Generator: Adobe Illustrator 19.0.0, SVG Export Plug-In . SVG Version: 6.00 Build 0)  -->
<svg xmlns="http://www.w3.org/2000/svg" xmlns:xlink="http://www.w3.org/1999/xlink" version="1.1" id="Layer_1" x="0px" y="0px" viewBox="0 0 511.999 511.999" style="enable-background:new 0 0 511.999 511.999;" xml:space="preserve">
<g>
	<g>
		<path d="M379.872,106.928h19.679V75.581h-19.679c-15.46,0-28.039-12.577-28.039-28.038V47.08    c0.173-4.105-0.119-18.335-11.209-30.464C330.547,5.591,315.217,0,295.061,0c-20.071,0-35.479,5.535-45.799,16.45    c-11.614,12.286-12.093,26.824-12.018,30.426v41.94h-12.888v30.506h-24.924c-47.963,0-86.984,39.022-86.984,86.985V370.16    c0,78.211,63.629,141.839,141.839,141.839S396.124,448.37,396.124,370.16V206.307c0-47.963-39.021-86.985-86.984-86.985h-28.012    V88.816H268.59V46.672l0.071-0.015l-0.077-0.699c0.096-3.73,2.457-14.612,26.477-14.612c10.459,0,18.344,2.194,22.201,6.177    c2.937,3.033,3.235,6.822,3.258,7.869l-0.033,2.149C320.486,80.288,347.126,106.928,379.872,106.928z M143.795,206.307    c0-30.678,24.958-55.638,55.637-55.638h37.802v93.504h-93.439V206.307z M364.778,370.161c0,60.926-49.566,110.492-110.491,110.492    c-60.926,0-110.492-49.566-110.492-110.492v-94.641h220.982V370.161z M309.14,150.669c30.68,0,55.638,24.959,55.638,55.638v37.866    H268.58v-93.504H309.14z"/>
	</g>
</g>
<g>
</g>
<g>
</g>
<g>
</g>
<g>
</g>
<g>
</g>
<g>
</g>
<g>
</g>
<g>
</g>
<g>
</g>
<g>
</g>
<g>
</g>
<g>
</g>
<g>
</g>
<g>
</g>
<g>
</g>
</svg>
