<svg id="Capa_1" enable-background="new 0 0 512 512" height="512" viewBox="0 0 512 512" width="512" xmlns="http://www.w3.org/2000/svg"><g><path d="m55.845 220.968 24.56 13.158 10.43 17.167 25.639-15.578-14.684-24.165-13.77-7.378 2.236-19.074-8.579-17.183 10.449-11.614 5.607-27.715-29.404-5.949-3.984 19.688-18.633 20.713 13.706 27.454z"/><path d="m51.166 343.555 25.662-2.76 15.141-18.207 22.088 3.549 4.759-29.62-38.977-6.263-18.305 22.013-31.446 3.38-10.543 26.084h-19.545v30h39.776z"/><path d="m512 376.5c0-24.63-11.834-46.493-30.125-60.221v-182.333c0-24.882-20.243-45.125-45.125-45.125s-45.125 20.243-45.125 45.125v182.334c-10.65 7.993-19.107 18.747-24.317 31.198l-39.137-8.826-4.204-7.66c24.94-21.085 40.942-53.483 40.942-89.758v-48.894c13.596-5.838 23.144-19.356 23.144-35.066v-25.22c0-35.917-14.168-69.505-39.895-94.577-25.718-25.064-59.679-38.358-95.635-37.432-34.672.893-67.091 15.275-91.285 40.496-24.049 25.071-37.293 58.021-37.293 92.783v23.95c0 15.71 9.548 29.228 23.144 35.066v48.893c0 36.274 16.003 68.672 40.942 89.758l-4.204 7.66-55.458 12.507c-78.372 18.245-125.767 83.666-128.369 160.842h512c-1.44-28.078-7.943-58.248-22.148-82.187 13.68-13.625 22.148-32.479 22.148-53.313zm-90.375-242.554c0-8.34 6.785-15.125 15.125-15.125s15.125 6.785 15.125 15.125v16.68h-30.25zm-267.678 23.328v-23.95c0-26.983 10.279-52.559 28.943-72.016 18.685-19.479 43.689-30.585 70.407-31.273 27.796-.716 54.05 9.557 73.925 28.926 19.883 19.377 30.833 45.335 30.833 73.093v25.22c-.034 4.289-4.41 8.817-9.965 8.144-21.217 0-38.479-17.262-38.479-38.479v-11.338h-30c0 13.521-11 24.52-24.52 24.52s-24.52-11-24.52-24.52h-30v11.338c0 21.217-17.262 38.479-38.479 38.479-4.492 0-8.145-3.653-8.145-8.144zm23.144 83.959v-47.47c19.622-4.402 36.089-17.251 45.366-34.513 9.104 6.824 20.405 10.871 32.633 10.871s23.529-4.047 32.633-10.871c9.563 17.794 26.764 30.899 47.187 34.896v47.087c0 46.849-35.399 84.962-78.91 84.962s-78.909-38.113-78.909-84.962zm125.643 113.424c-6.727 25.957-28.904 35.335-46.734 35.335s-40.007-9.379-46.734-35.335l4.174-7.606c13.081 5.885 27.466 9.145 42.56 9.145s29.479-3.26 42.56-9.145zm88.891 82.09v45.253h-271.25v-45.253h-30v45.253h-56.453c10.967-50.211 49.891-90.04 101.05-101.578l47.6-10.735c10.399 30.035 40.715 50.607 73.428 50.305 31.825.243 62.673-19.341 73.428-50.305l32.083 7.235c.135 24.471 11.943 46.177 30.148 59.824h-.034zm30 45.253v-31.771c4.886.997 9.944 1.521 15.125 1.521 9.89 0 19.325-1.927 27.975-5.395 6.054 11.034 10.593 23.008 13.353 35.645zm15.125-60.25c-24.99 0-45.25-20.26-45.25-45.25 0-19.684 12.574-36.426 30.125-42.651v-32.724h15.125v-30h-15.125v-30.25h15.125v-30h-15.125v-30.25h30.25v153.225c17.551 6.225 30.125 22.966 30.125 42.65 0 24.99-20.26 45.25-45.25 45.25z"/><path d="m256 276.442c10.41 0 19.14 7 21.48 16.41l28.9-5.75c-2.75-13.81-16.81-39.94-50.38-39.94s-47.63 26.13-50.38 39.94l28.9 5.75c2.34-9.41 11.07-16.41 21.48-16.41z"/><path d="m421.75 361.5h30v30h-30z"/></g></svg>