<svg id="Layer_1" enable-background="new 0 0 510 510" height="512" viewBox="0 0 510 510" width="512" xmlns="http://www.w3.org/2000/svg"><g><path d="m510 210h-142.806c14.397-21.466 22.806-47.268 22.806-75 0-74.439-60.561-135-135-135s-135 60.561-135 135c0 27.732 8.409 53.534 22.806 75h-142.806v120h30v180h450v-180h30zm-270-178.924v28.924h30v-28.924c45.916 6.597 82.327 43.008 88.924 88.924h-28.924v30h28.924c-6.597 45.915-43.008 82.327-88.924 88.924v-28.924h-30v28.924c-45.916-6.597-82.327-43.008-88.924-88.924h28.924v-30h-28.924c6.597-45.915 43.008-82.327 88.924-88.924zm210 448.924h-390v-150h390zm30-180h-450v-60h140.252c23.185 18.751 52.676 30 84.748 30s61.562-11.249 84.748-30h140.252z"/><path d="m295.606 154.394-25.606-25.607v-38.787h-30v51.213l34.394 34.393z"/><path d="m105 420h150v30h-150z"/><path d="m105 360h120v30h-120z"/></g></svg>