<svg id="Capa_1" enable-background="new 0 0 512 512" height="512" viewBox="0 0 512 512" width="512" xmlns="http://www.w3.org/2000/svg"><g><path d="m178.903 227.633h30v30h-30z"/><path d="m303.097 227.633h30v30h-30z"/><path d="m454.752 384.808-85.673-28.4c20.266-22.544 33.906-51.156 37.819-82.743h20.428c27.165 0 49.266-22.101 49.266-49.266 0-24.098-17.396-44.197-40.287-48.431l-10.111-75.835h-27.25c-9.829-26.943-27.375-51.004-50.234-68.61-26.776-20.623-58.835-31.523-92.71-31.523s-65.934 10.9-92.71 31.523c-22.86 17.606-40.406 41.668-50.235 68.61h-27.249l-10.111 75.835c-22.891 4.235-40.287 24.333-40.287 48.431 0 27.165 22.101 49.266 49.266 49.266h20.428c3.914 31.587 17.553 60.198 37.819 82.743l-85.673 28.4c-34.242 11.351-57.248 43.214-57.248 79.288v47.904h512v-47.904c0-36.074-23.006-67.937-57.248-79.288zm-313.791-89.146c16.518 9.689 38.734 18.209 65.799 18.207 7.697 0 15.793-.69 24.254-2.237 16.579-3.032 33.392-3.032 49.971 0 8.465 1.548 16.553 2.237 24.254 2.237 27.065 0 49.281-8.521 65.801-18.211-16.826 47.301-62.038 81.262-115.04 81.262-53-.001-98.212-33.959-115.039-81.258zm4.554-165.529-3.6 45h-35.844l6-45zm254.414 0 6 45h-35.844l-3.6-45zm-63.54 0 3.6 45h-35.972l-1.2-45zm-63.582 0 1.2 45h-36.014l1.2-45zm-64.824 45h-35.972l3.6-45h33.572zm170.079 30v47.581c-4.122 4.106-11.914 11.07-22.777 17.335-21.553 12.43-44.736 16.491-68.902 12.071-20.16-3.688-40.605-3.688-60.766 0-24.167 4.421-47.349.36-68.902-12.071-10.872-6.27-18.669-13.242-22.777-17.333v-47.584h244.124zm68.53 19.266c0 10.623-8.643 19.266-19.266 19.266h-19.265v-38.532h19.265c10.624 0 19.266 8.643 19.266 19.266zm-190.592-194.399c47.706 0 90.653 28.017 110.497 70.133h-220.994c19.844-42.116 62.791-70.133 110.497-70.133zm-190.592 194.399c0-10.624 8.643-19.266 19.266-19.266h19.265v38.532h-19.266c-10.623 0-19.265-8.643-19.265-19.266zm416.592 257.601h-452v-17.904c0-23.118 14.744-43.538 36.687-50.812l102.185-33.874c24.692 17.324 54.741 27.509 87.128 27.509s62.436-10.184 87.127-27.509l102.186 33.873c21.943 7.275 36.687 27.695 36.687 50.813z"/></g></svg>