<svg id="Capa_1" enable-background="new 0 0 512 512" height="512" viewBox="0 0 512 512" width="512" xmlns="http://www.w3.org/2000/svg"><g><path d="m427.32 271.286v-51.399l-58.807-81.48v-138.407h-274.543v138.407l-58.807 81.48v292.113h377.157c35.575 0 64.518-29.495 64.518-65.069v-112.906c-.001-30.41-21.156-55.957-49.518-62.739zm19.517 62.739v41.453h-69.035v-41.453c0-19.033 15.484-34.518 34.518-34.518s34.517 15.485 34.517 34.518zm-100.997-175.77 37.155 51.48h-303.508l37.155-51.48zm51.48 81.48v31.552c-28.362 6.782-49.518 32.328-49.518 62.739v65.943h-282.639v-160.234zm-273.35-209.457h214.543v97.977h-31.549v-56.786h-30v56.786h-30.723v-56.786h-30v56.786h-30.723v-56.786h-30v56.786h-31.548zm-58.807 399.69h282.64v16.963c0 12.691 3.698 24.527 10.052 34.517h-292.692zm347.157 51.48c-19.033 0-34.518-15.484-34.518-34.517v-41.453h69.035v41.453c0 19.032-15.484 34.517-34.517 34.517z"/><path d="m177.114 334.852h39.127v39.127h30v-39.127h39.128v-30h-39.128v-39.128h-30v39.128h-39.127z"/></g></svg>