<svg id="Capa_1" enable-background="new 0 0 512 512" height="512" viewBox="0 0 512 512" width="512" xmlns="http://www.w3.org/2000/svg"><g><path d="m512 120.438c0-66.41-54.028-120.438-120.438-120.438s-120.437 54.028-120.437 120.438c0 9.747 1.172 19.224 3.368 28.305-24.438 3.395-47.374 13.946-65.892 30.331-22.818-20.189-52.344-31.522-83.123-31.522-69.189-.001-125.478 56.288-125.478 125.476 0 35.549 15.85 72.491 47.109 109.8 33.486 40.705 91.863 86.444 161.492 129.172 69.447-42.489 128.423-88.937 161.492-129.171 31.26-37.31 47.109-74.251 47.109-109.8 0-11.774-1.638-23.17-4.686-33.982 56.456-9.946 99.484-59.345 99.484-118.609zm-164.902 243.124c-29.544 35.262-76.115 73.255-138.497 113-62.381-39.745-108.952-77.737-138.496-113-26.987-32.209-40.105-61.823-40.105-90.534 0-52.646 42.831-95.478 95.478-95.478 37.952.107 62.767 19.942 83.123 45.518 21.597-27.625 45.833-43.295 77.057-45.316 18.893 34.77 54.413 59.245 95.813 62.696 3.706 10.171 5.731 21.143 5.731 32.58 0 28.711-13.118 58.325-40.104 90.534zm44.464-152.687c-49.867 0-90.438-40.57-90.438-90.438s40.571-90.437 90.438-90.437 90.438 40.57 90.438 90.438-40.57 90.437-90.438 90.437z"/><path d="m391.562 60.25c-24.882 0-45.125 20.243-45.125 45.125v15h30v-15c0-8.34 6.785-15.125 15.125-15.125s15.125 6.785 15.125 15.125v75.25h30v-75.25c.001-24.882-20.243-45.125-45.125-45.125z"/></g></svg>