<svg id="Capa_1" enable-background="new 0 0 512 512" height="512" viewBox="0 0 512 512" width="512" xmlns="http://www.w3.org/2000/svg"><g><path d="m471 90c0-49.626-40.374-90-90-90h-250c-49.626 0-90 40.374-90 90v422h280v-182h150zm-30 135.562-22.502 10.8-37.504-18-37.496 18-22.498-10.8v-33.722l22.498 10.8 37.498-18 37.502 18 22.502-10.8zm-150 155.254-47.502 34.201-62.502-45-62.499 45-47.497-34.2v-37.033l47.497 34.2 62.499-45 62.502 45 47.502-34.2zm150-290.816v68.562l-22.502 10.8-37.504-18-37.496 18-22.498-10.8v-68.562c0-33.084 26.916-60 60-60s60 26.916 60 60zm-310-60h182.98c-14.28 15.935-22.98 36.969-22.98 60v216.816l-47.502 34.201-62.502-45-62.499 45-47.497-34.2v-216.817c0-33.084 26.916-60 60-60zm-60 452v-64.216l47.497 34.2 62.499-45 62.502 45 47.502-34.2v64.216zm250-182v-41.161l22.498 10.8 37.498-18 37.502 18 22.502-10.8v41.161z"/></g></svg>