<svg id="Capa_1" enable-background="new 0 0 512 512" height="512" viewBox="0 0 512 512" width="512" xmlns="http://www.w3.org/2000/svg"><g><g><path d="m256 512c-68.38 0-132.667-26.629-181.02-74.98-48.351-48.353-74.98-112.64-74.98-181.02s26.629-132.667 74.98-181.02c48.353-48.351 112.64-74.98 181.02-74.98s132.667 26.629 181.02 74.98c48.351 48.353 74.98 112.64 74.98 181.02s-26.629 132.667-74.98 181.02c-48.353 48.351-112.64 74.98-181.02 74.98zm0-482c-60.367 0-117.12 23.508-159.806 66.194s-66.194 99.439-66.194 159.806 23.508 117.12 66.194 159.806 99.439 66.194 159.806 66.194 117.12-23.508 159.806-66.194 66.194-99.439 66.194-159.806-23.508-117.12-66.194-159.806-99.439-66.194-159.806-66.194z"/></g><g><path d="m157.5 263.5c-28.949 0-52.5-23.551-52.5-52.5s23.551-52.5 52.5-52.5 52.5 23.551 52.5 52.5-23.551 52.5-52.5 52.5zm0-75c-12.407 0-22.5 10.093-22.5 22.5s10.093 22.5 22.5 22.5 22.5-10.093 22.5-22.5-10.093-22.5-22.5-22.5z"/></g><g><path d="m354.5 263.5c-28.948 0-52.5-23.551-52.5-52.5s23.552-52.5 52.5-52.5 52.5 23.551 52.5 52.5-23.552 52.5-52.5 52.5zm0-75c-12.406 0-22.5 10.093-22.5 22.5s10.094 22.5 22.5 22.5 22.5-10.093 22.5-22.5-10.094-22.5-22.5-22.5z"/></g><g><path d="m191.808 388.509-22.706-19.606c.704-.819 17.615-20.241 50.115-37.146 29.594-15.393 78.665-31.815 144.383-22.635l-4.15 29.712c-45.92-6.417-88.021-.057-125.141 18.895-27.842 14.213-42.357 30.616-42.501 30.78z"/></g></g></svg>