<svg id="Capa_1" enable-background="new 0 0 510 510" height="512" viewBox="0 0 510 510" width="512" xmlns="http://www.w3.org/2000/svg"><g><path d="m405 300h-56.103c7.007-10.569 11.103-23.229 11.103-36.833v-23.167h-53.167c-13.604 0-26.265 4.095-36.833 11.104v-42.18c50.816-7.301 90-51.12 90-103.924 0-57.897-47.103-105-105-105s-105 47.103-105 105c0 52.804 39.184 96.623 90 103.924v42.18c-10.569-7.009-23.23-11.104-36.833-11.104h-53.167v23.167c0 13.604 4.095 26.265 11.104 36.833h-56.104v90h33.289l30 120h173.423l30-120h33.288zm-98.167-30h22.531c-3.212 17.057-18.222 30-36.197 30h-22.531c3.212-17.057 18.221-30 36.197-30zm-126.833-165c0-41.355 33.645-75 75-75s75 33.645 75 75-33.645 75-75 75-75-33.645-75-75zm.635 165h22.531c17.976 0 32.985 12.943 36.198 30h-22.531c-17.975 0-32.985-12.943-36.198-30zm-45.635 60h240v30h-240zm49.211 120h55.789v30h-48.289zm85.789 30v-30h55.788l-7.5 30zm63.288-60h-156.577l-7.5-30h171.577z"/><path d="m300 105h-30c0 8.271-6.728 15-15 15-8.271 0-15-6.729-15-15h-30c0 24.813 20.187 45 45 45 24.814 0 45-20.187 45-45z"/></g></svg>