<svg id="Capa_1" enable-background="new 0 0 512 512" height="512" viewBox="0 0 512 512" width="512" xmlns="http://www.w3.org/2000/svg"><g><path d="m474.081 275.896-67.093-30.847c19.894-15.187 32.762-39.132 32.762-66.035v-29.271c0-19.011-6.436-36.539-17.223-50.552 3.716-8.774 5.602-18.09 5.602-27.76 0-39.387-32.043-71.43-71.43-71.43-39.386 0-71.43 32.043-71.43 71.43 0 9.603 1.924 19.02 5.607 27.753-10.791 14.015-17.229 31.545-17.229 50.56v29.271c0 26.867 12.834 50.782 32.683 65.972l-67.23 30.909c-23.036 10.591-37.92 33.816-37.92 59.17v24.796l-40.082-25.628v-50.438c0-25.128-9.785-48.751-27.553-66.519l-23.692-23.692h-25.702v32.544h-43.444v15c0 14.175-11.532 25.707-25.707 25.707h-15v29.735c0 28.276 21.235 51.686 48.595 55.119v80.985l-6.577 3.872c-15.281 8.996-24.825 25.599-24.909 43.33l-.151 32.123h495.042v-176.934c0-25.353-14.884-48.579-37.919-59.17zm-130.018-14.79c4.121.632 8.341.959 12.635.959 4.22 0 8.367-.321 12.419-.932v16.452c0 6.908-5.62 12.527-12.527 12.527s-12.527-5.62-12.527-12.527zm12.635-164.415c23.821 0 44.021 15.783 50.703 37.439h-101.407c6.682-21.656 26.883-37.439 50.704-37.439zm0-66.691c22.845 0 41.43 18.585 41.43 41.43 0 2.071-.165 4.108-.459 6.115-12.099-6.893-26.077-10.854-40.971-10.854s-28.872 3.961-40.972 10.854c-.298-2.014-.458-4.057-.458-6.116 0-22.844 18.586-41.429 41.43-41.429zm-53.052 134.13h106.103v14.884c0 29.252-23.799 53.051-53.051 53.051s-53.051-23.799-53.051-53.051v-14.884zm-72.106 317.87h-74.096v-26.896c0-12.579 4.898-24.404 13.792-33.299l-21.213-21.213c-14.561 14.561-22.58 33.92-22.58 54.512v26.896h-80.343l.01-1.984c.034-7.209 3.915-13.96 10.128-17.618l21.358-12.572v-127.704h-23.044c-14.089 0-25.552-11.463-25.552-25.552v-1.786c18.68-5.229 33.426-19.975 38.655-38.655h45.496v-15.745c10.948 11.861 16.947 27.176 16.947 43.412v66.865l70.313 44.957c18.865 12.062 30.128 32.632 30.128 55.024v31.358zm109.792 0v-1.335c0-16.455 13.387-29.841 29.841-29.841h10.656v31.176zm140.668 0h-70.171v-31.177h27.169v-66.663h-30v36.663h-37.825c-32.997 0-59.841 26.845-59.841 59.841v1.336h-49.792v-26.393c25.856-5.101 45.418-27.94 45.418-55.269v-69.25h-30v69.25c0 11.886-7.916 21.954-18.751 25.221-4.629-17.096-13.946-32.556-27.026-44.687v-45.807c0-13.674 8.028-26.201 20.452-31.913l62.431-28.703v3.136c0 23.45 19.078 42.527 42.527 42.527s42.527-19.078 42.527-42.527v-3.136l62.431 28.703c12.423 5.713 20.451 18.24 20.451 31.914z"/><path d="m341.698 348.828h30v30h-30z"/></g></svg>