<svg id="Capa_1" enable-background="new 0 0 510.429 510.429" height="512" viewBox="0 0 510.429 510.429" width="512" xmlns="http://www.w3.org/2000/svg"><g><path d="m495.817 322.925c11.984-20.639 16.526-59.323 13.885-118.264-1.892-42.224-5.937-71.512-9.591-98.231-4.171 1.82-70.652 26.576-128.225 61.504-23.452-14.294-49.145-24.077-75.979-29.004 13.593-29.593-8.082-63.716-40.907-63.716-32.798 0-54.508 34.084-40.913 63.704-97.758 17.86-176.676 100.655-183.584 206.296h-30.503v15c0 41.355 33.645 75 75 75h360c41.355 0 75-33.645 75-75v-15h-31.5c6.605-6.466 12.455-13.916 17.317-22.289zm-20.419-173.932c6.047 55.155 8.958 133.926-5.525 158.868-16.926 29.147-52.505 45.052-88.791 33.424l17.808-30.668 45.968-2.85-1.855-29.942-26.007 1.612 23.588-40.621-25.943-15.064-23.588 40.621-11.49-23.385-26.926 13.229 20.311 41.336-17.808 30.667c-26.069-23.195-33.17-62.36-14.983-93.683 16.793-28.921 104.406-70.159 135.241-83.544zm-235.398-28.779c0-8.271 6.729-15 15-15s15 6.729 15 15-6.729 15-15 15-15-6.729-15-15zm104.024 66.456c-4.686 3.569-9.378 7.443-13.715 11.501-42.569 39.758-38.652 107.994 1.214 147.043h-84.595c19.22-33.14 2.663-75.942-34.261-87.342 4.715-10.401 15.189-17.658 27.333-17.658v-30c-28.456 0-52.331 19.919-58.459 46.541-39.293 9.044-58.633 53.692-38.469 88.459h-82.5c10.646-139.296 160.735-221.657 283.452-158.544zm-179.024 128.544c0-16.542 13.458-30 30-30s30 13.458 30 30-13.458 30-30 30-30-13.458-30-30zm270 90h-360c-19.556 0-36.239-12.539-42.43-30h444.859c-6.19 17.461-22.873 30-42.429 30z"/></g></svg>