<svg id="Capa_1" enable-background="new 0 0 512 512" height="512" viewBox="0 0 512 512" width="512" xmlns="http://www.w3.org/2000/svg"><path d="m422.251 242.704h-117.486c-2.25-7.546-6.292-14.662-12.105-20.693 3.034-2.81 5.751-5.958 8.078-9.392h136.012v-30h-126.755c0-.07.005-.14.005-.21 0-12.707-7.513-27.918-22.967-46.501-10.256-12.333-20.412-21.774-20.84-22.169l-10.193-9.443-10.194 9.443c-.427.396-10.583 9.836-20.839 22.169-15.454 18.583-22.967 33.794-22.967 46.501 0 .07.005.14.005.21h-126.755v30h136.013c2.327 3.434 5.044 6.582 8.077 9.392-5.813 6.031-9.855 13.147-12.105 20.693h-117.486c-49.488 0-89.749 40.262-89.749 89.749 0 41.494 33.757 75.251 75.251 75.251 22.486 0 42.685-9.927 56.486-25.612 10.677 14.65 27.955 24.196 47.429 24.196h44.667v-44.667c0-32.349-26.318-58.667-58.667-58.667h-89.917v30h45.25c-.27 24.721-20.464 44.75-45.248 44.75-24.951 0-45.25-20.299-45.25-45.251 0-32.946 26.803-59.749 59.749-59.749h117.726c2.379 7.552 6.542 14.659 12.518 20.634 9.927 9.927 22.967 14.89 36.007 14.89s26.08-4.963 36.007-14.891c5.975-5.975 10.139-13.082 12.518-20.634h117.727c32.945 0 59.749 26.803 59.749 59.749 0 24.952-20.3 45.251-45.251 45.251-24.784 0-44.979-20.029-45.248-44.75h45.25v-30h-89.918c-32.349 0-58.666 26.318-58.666 58.667v44.667h44.666c19.474 0 36.752-9.546 47.429-24.196 13.801 15.686 34.001 25.613 56.487 25.613 41.493 0 75.251-33.757 75.251-75.251-.002-49.487-40.263-89.749-89.751-89.749zm-257.084 90.25c15.807 0 28.667 12.86 28.667 28.667v14.667h-14.667c-15.807 0-28.667-12.86-28.667-28.667v-14.667zm90.833-186.974c12.721 13.715 24 29.474 24 36.429 0 13.234-10.767 24-24 24-13.234 0-24-10.766-24-24 0-6.956 11.28-22.715 24-36.429zm14.794 126.146c-8.159 8.158-21.431 8.156-29.588 0-8.157-8.158-8.157-21.431 0-29.588 8.157-8.159 21.431-8.158 29.588 0s8.157 21.43 0 29.588zm90.706 75.495c0 15.807-12.86 28.667-28.667 28.667h-14.666v-14.667c0-15.807 12.859-28.667 28.666-28.667h14.667z"/></svg>