<svg id="Capa_1" enable-background="new 0 0 512 512" height="512" viewBox="0 0 512 512" width="512" xmlns="http://www.w3.org/2000/svg"><g><path d="m512 255.918c.024-68.382-26.582-132.662-74.92-180.999-48.316-48.316-112.555-74.919-180.903-74.919h-.096c-39.93.015-78.468 9.109-113.255 26.306-60.035-30.268-103.937-33.995-127.225-10.705-23.297 23.296-19.566 67.19 10.704 127.226-17.196 34.787-26.291 73.324-26.305 113.255-.025 68.382 26.582 132.662 74.919 180.999 48.316 48.316 112.555 74.919 180.904 74.919h.095c39.931-.014 78.468-9.109 113.255-26.305 34.061 17.173 62.925 25.804 85.78 25.804 17.431 0 31.367-5.02 41.446-15.1 23.296-23.295 19.565-67.189-10.705-127.227 17.197-34.785 26.291-73.323 26.306-113.254zm-30-.01c-.004 9.907-.64 19.716-1.891 29.383-30.013-2.543-57.855-15.441-79.442-37.029-46.916-46.917-49.473-121.747-7.852-172.299 8.06 6.149 15.762 12.879 23.052 20.169 42.668 42.668 66.155 99.411 66.133 159.776zm-225.908-225.908h.084c39.736 0 77.902 10.188 111.514 29.328-49.272 62.275-45.41 152.973 11.765 210.147 25.865 25.865 58.998 41.623 94.799 45.397-10.157 37.798-30.086 72.45-58.508 100.874-14.134 14.135-29.81 26.168-46.646 35.945-48.442-26.585-108.853-71.296-173.172-135.616-64.289-64.288-108.989-124.67-135.578-173.098 9.656-16.71 21.624-32.441 35.905-46.721 42.704-42.704 99.468-66.234 159.837-66.256zm-219.278 6.814c8.743-8.743 32.667-10.256 74.657 7.897-12.914 8.878-25.108 19.01-36.429 30.331-11.292 11.292-21.4 23.452-30.262 36.329-16.109-37.409-18.427-64.096-7.966-74.557zm39.461 356.375c2.954-.241 5.925-.363 8.906-.363 49.193 0 91.393 33.435 104.02 79.242-34.771-10.678-66.624-29.755-93.07-56.2-7.209-7.209-13.827-14.789-19.856-22.679zm179.632 88.811h-.084c-11.628 0-23.122-.873-34.407-2.587-4.691-30.281-19.332-58.101-41.951-79.31-25.638-24.039-59.122-37.277-94.284-37.277-9.107 0-18.15.889-27.008 2.648-32.218-58.332-36.698-128.017-13.445-189.54 31.211 51.542 76.519 107.887 129.985 161.353 53.514 53.514 109.913 98.856 161.493 130.07-25.311 9.61-52.421 14.633-80.299 14.643zm219.28-6.813c-4.215 4.215-11.062 6.355-20.185 6.354-13.52 0-32.035-4.703-54.372-14.322 12.877-8.862 25.036-18.97 36.327-30.261 11.322-11.322 21.453-23.516 30.332-36.431 18.152 41.979 16.653 65.903 7.898 74.66z"/><path d="m190.051 214.493c16.3 0 32.6-6.205 45.009-18.614 24.817-24.818 24.817-65.2 0-90.018-12.023-12.022-28.007-18.644-45.009-18.644-.001 0 0 0 0 0-17.001 0-32.987 6.622-45.009 18.643-12.023 12.022-18.644 28.007-18.644 45.01 0 17.002 6.621 32.987 18.644 45.009 12.409 12.409 28.709 18.614 45.009 18.614zm-23.796-87.419c6.356-6.356 14.807-9.856 23.795-9.856 8.989 0 17.44 3.5 23.796 9.856 13.121 13.121 13.121 34.471 0 47.592-13.121 13.121-34.471 13.122-47.592 0-6.356-6.356-9.857-14.807-9.857-23.795.001-8.99 3.501-17.441 9.858-23.797z"/><path d="m378.49 330.739h30v30h-30z"/><path d="m274.272 67.783h30v30h-30z"/><path d="m285.099 311.174h30v30h-30z"/></g></svg>