<svg id="Capa_1" enable-background="new 0 0 512 512" height="512" viewBox="0 0 512 512" width="512" xmlns="http://www.w3.org/2000/svg"><g><path d="m406.5 150.5c0-82.986-67.514-150.5-150.5-150.5h-150.5v512h150.5c82.986 0 150.5-67.514 150.5-150.5 0-39.854-15.576-77.446-43.239-105.5 27.663-28.054 43.239-65.646 43.239-105.5zm-30 211c0 66.444-54.056 120.5-120.5 120.5h-120.5v-452h120.5c66.444 0 120.5 54.056 120.5 120.5 0 36.569-16.394 70.767-44.979 93.825l-14.472 11.675 14.473 11.675c28.584 23.058 44.978 57.256 44.978 93.825z"/><path d="m256 271h-90.5v181h90.5c49.902 0 90.5-40.598 90.5-90.5s-40.598-90.5-90.5-90.5zm0 151h-60.5v-121h60.5c33.359 0 60.5 27.14 60.5 60.5s-27.141 60.5-60.5 60.5z"/><path d="m346.5 150.5c0-49.902-40.598-90.5-90.5-90.5h-90.5v181h90.5c49.902 0 90.5-40.598 90.5-90.5zm-151-60.5h60.5c33.359 0 60.5 27.14 60.5 60.5s-27.141 60.5-60.5 60.5h-60.5z"/></g></svg>