<svg id="Capa_1" enable-background="new 0 0 512 512" height="512" viewBox="0 0 512 512" width="512" xmlns="http://www.w3.org/2000/svg"><g><g><path d="m277.899 151.501 63.307-63.25c9.875-9.865 15.313-22.825 15.313-36.491s-5.438-26.626-15.313-36.491c-17.132-17.117-43.297-19.842-63.306-8.177-20.007-11.665-46.174-8.94-63.307 8.176-9.877 9.868-15.316 22.829-15.315 36.495.001 13.664 5.44 26.622 15.315 36.488zm-42.102-115.01c4.342-4.339 10.046-6.508 15.75-6.508s11.408 2.169 15.75 6.508l10.602 10.592 10.602-10.592c8.686-8.677 22.816-8.677 31.502 0 4.202 4.198 6.517 9.62 6.517 15.268s-2.314 11.07-6.517 15.269l-42.104 42.065-42.103-42.066c-4.203-4.199-6.518-9.621-6.519-15.267.001-5.646 2.316-11.069 6.52-15.269z"/></g><g><path d="m482.602 362.03v-175.163h-379.406v-51.867c0-24.813-20.187-45-45-45h-28.798v30h28.797c8.271 0 15 6.729 15 15v242.004c0 24.813 20.187 45 45 45h3.091c-5.109 8.826-8.05 19.056-8.05 29.966 0 33.101 26.937 60.03 60.046 60.03s60.046-26.93 60.046-60.03c0-10.91-2.941-21.14-8.05-29.966h120.238c-5.109 8.826-8.05 19.056-8.05 29.966 0 33.101 26.937 60.03 60.046 60.03 33.11 0 60.047-26.93 60.047-60.03 0-10.91-2.941-21.14-8.05-29.966h33.091v-30h-364.404c-8.271 0-15-6.729-15-15v-14.974zm-279.272 89.94c0 16.559-13.479 30.03-30.046 30.03s-30.046-13.472-30.046-30.03c0-15.928 12.474-28.994 28.17-29.966h3.752c15.696.972 28.17 14.037 28.17 29.966zm224.231 0c0 16.559-13.479 30.03-30.047 30.03-16.567 0-30.046-13.472-30.046-30.03 0-15.928 12.474-28.994 28.17-29.966h3.752c15.697.972 28.171 14.037 28.171 29.966zm-164.663-119.94h-64.851v-115.163h64.851zm30-115.163h64.852v115.163h-64.852zm-124.851 115.163h-64.852v-115.163h64.852zm284.555 0h-64.852v-115.163h64.852z"/></g></g></svg>