<svg id="Capa_1" enable-background="new 0 0 512 512" height="512" viewBox="0 0 512 512" width="512" xmlns="http://www.w3.org/2000/svg"><g><path d="m0 46v120 180 120h512v-420zm241 268.101c-25.849-6.677-45-30.195-45-58.101s19.151-51.424 45-58.101zm30-116.202c25.849 6.677 45 30.195 45 58.101s-19.151 51.424-45 58.101zm-241-1.899h60v120h-60zm0 150h90v-180h-90v-90h211v91.257c-42.511 7.163-75 44.227-75 88.743s32.489 81.58 75 88.743v91.257h-211zm241 90v-91.257c42.511-7.163 75-44.227 75-88.743s-32.489-81.58-75-88.743v-91.257h211v90h-90.005v180h90.005v90zm210.995-240v120h-60v-120z"/></g></svg>