<svg id="Capa_1" enable-background="new 0 0 512.009 512.009" height="512" viewBox="0 0 512.009 512.009" width="512" xmlns="http://www.w3.org/2000/svg"><g><path d="m480.262 390.98c-19.745-30.047-46.988-53.369-79.114-67.832l-11.342-45.37c-2.597-10.389.675-21.618 8.539-29.306 28.771-28.128 45.272-67.341 45.272-107.658 0-77.643-63.167-140.809-140.81-140.809h-150.572v44.2c0 20.178 7.095 39.263 20.106 54.409v43.619l-44.103 73.466 23.997 23.997v20.62l25.769 10.692-23.255 16.392 4.74 25.811c3.615 18.491 21.318 31.471 40.438 28.237l44.636-7.661 3.87 42.387-43.076 135.831h306.646l.007-14.993c.017-37.734-10.961-74.399-31.748-106.032zm-298.027-360.975h120.572c61.101 0 110.81 49.709 110.81 110.884.101 31.708-13.487 64.286-36.707 86.6l-17.842-24.663c7.333-14.871 6.664-32.37-2.403-47.151-10.931-18.032-32.784-27.506-53.792-22.161v-8.071c0-26.3-21.396-47.697-47.697-47.697h-61.157c-7.63-9.486-11.783-21.192-11.783-33.541v-14.2zm12.615 281.874c-5.082 1.231-6.705-6.734-7.128-11.018l34.918-24.612-.845-19.551-39.56-16.415v-13.015l-16.216-16.216 36.323-60.506v-42.801h52.834c9.758 0 17.697 7.939 17.697 17.697v45.789l37.508-8.662c9.896-2.285 17.188 3.046 20.712 8.792 1.692 2.758 6.573 12.522-1.661 22.357l-7.499 8.957 38.76 53.579c-2.298 9.361-2.38 19.245.009 28.8l9.835 39.342-93.704 32.899-5.348-58.569zm51.492 170.125 29.336-92.509 112.234-39.405c52.053 23.092 88.045 74.368 93.402 131.913h-234.972z"/><path d="m116.829 271.005v-30l-71.696-.001c-8.34 0-15.125-6.786-15.125-15.125-.042-7.052 6.095-15.136 15.126-15.124 8.339 0 15.124 6.785 15.124 15.124h30c0-24.881-20.243-45.124-45.125-45.124-23.393-.533-45.638 20.444-45.125 45.125 0 24.881 20.242 45.124 45.124 45.125z"/><path d="m75.258 331.254 60.251-.001-.001-30-60.251.001c-24.881 0-45.124 20.244-45.124 45.125-.531 23.397 20.445 45.636 45.126 45.124 24.881 0 45.124-20.243 45.124-45.124h-30c0 8.339-6.785 15.124-15.125 15.124-7.051.043-15.137-6.094-15.125-15.125.001-8.338 6.785-15.123 15.125-15.124z"/></g></svg>