<svg id="Capa_1" enable-background="new 0 0 512 512" height="512" viewBox="0 0 512 512" width="512" xmlns="http://www.w3.org/2000/svg"><g><path d="m460.777 0h-167.103v45.941h-35.186c-91.669 0-166.248 74.578-166.248 166.248v117.128h-28.478l-12.539 149.517h109.111l-12.539-149.517h-25.501v-117.128c0-75.097 61.096-136.193 136.194-136.193h9.479c-1.23 3.976-1.895 8.199-1.895 12.574 0 11.205 4.352 21.408 11.447 29.025l-11.105 6.777c-21.713 13.249-39.769 31.977-52.218 54.158-5.629 10.03-10.046 20.675-13.209 31.675h-30.192v30.054h24.803c-.275 3.675-.431 7.362-.431 11.057v260.684h227.069v-260.686c0-3.695-.155-7.382-.431-11.057h23.945v-30.054h-29.334c-3.164-11-7.58-21.645-13.209-31.675-12.449-22.181-30.506-40.908-52.218-54.158l-11.105-6.777c4.477-4.807 7.855-10.645 9.742-17.115h45.089c19.855 0 36.009 16.153 36.009 36.008h30.054c0-33.098-24.468-60.583-56.265-65.332l56.265-26.786v-44.368zm-376.874 448.779 7.498-89.408h28.755l7.498 89.408zm237.373-360.21c0 6.933-5.641 12.574-12.574 12.574s-12.574-5.641-12.574-12.574 5.641-12.574 12.574-12.574 12.574 5.641 12.574 12.574zm70.906 334.054h-107.427v-121.909h107.427zm0-151.963h-137.482v182.017h137.481v29.269h-166.96s.179-238.019.524-241.689h165.912c.346 3.67.525 30.403.525 30.403zm-15.184-77.422c3.059 5.45 5.669 11.127 7.823 16.965h-152.24c2.154-5.838 4.765-11.515 7.824-16.965 9.933-17.698 24.341-32.641 41.665-43.213l26.632-16.251 26.632 16.251c17.323 10.572 31.731 25.515 41.664 43.213zm-32.022-127.027c-4.922-7.956-12.384-14.177-21.248-17.527v-18.63h97.198z"/></g></svg>