<svg id="Capa_1" enable-background="new 0 0 512 512" height="512" viewBox="0 0 512 512" width="512" xmlns="http://www.w3.org/2000/svg"><g><g><path d="m451.704 31.796v-31.796h-30v31.796h-30.248v-31.796h-30v31.796h-30.248v-31.796h-30v31.796h-30.248v-31.796h-30v31.796h-30.249v-31.796h-30v31.796h-30.248v-31.796h-30v31.796h-30.248v-31.796h-30v31.796h-60.215v480.204h512v-480.204zm-391.489 30v38.933h30v-38.933h30.248v38.933h30v-38.933h30.248v38.933h30v-38.933h30.249v38.933h30v-38.933h30.248v38.933h30v-38.933h30.248v38.933h30v-38.933h30.248v38.933h30v-38.933h30.296v71.171h-452v-71.171zm-30.215 420.204v-319.033h452v319.033z"/></g><g><path d="m331.975 253.772c-21.312-38.22-48.294-59.269-75.975-59.269s-54.663 21.049-75.975 59.269c-16.975 30.441-27.943 68.009-27.943 95.71 0 57.301 46.618 103.918 103.918 103.918s103.918-46.618 103.918-103.918c0-27.7-10.968-65.269-27.943-95.71zm-5.21 69.871-28.004 19.648-42.76-30-42.753 30-28.011-19.655c2.199-10.017 5.471-20.571 9.569-30.908h122.389c4.099 10.339 7.371 20.896 9.57 30.915zm-70.765-99.14c16.508 0 33.135 16.26 46.428 38.224h-92.857c13.294-21.963 29.921-38.224 46.429-38.224zm0 198.898c-37.715 0-68.902-28.4-73.352-64.934l30.6 21.472 42.754-30 42.759 30 30.591-21.463c-4.455 36.53-35.64 64.925-73.352 64.925z"/></g></g></svg>