<svg id="Capa_1" enable-background="new 0 0 512 512" height="512" viewBox="0 0 512 512" width="512" xmlns="http://www.w3.org/2000/svg"><g><path d="m0 31v450h512v-450zm482 420h-452v-390h452z"/><path d="m316 181c19.555 0 36.228-12.541 42.42-30h62.58v-30h-62.58c-6.192-17.459-22.865-30-42.42-30s-36.228 12.541-42.42 30h-182.58v30h182.58c6.192 17.459 22.865 30 42.42 30zm0-60c8.271 0 15 6.729 15 15s-6.729 15-15 15-15-6.729-15-15 6.729-15 15-15z"/><path d="m196 301c19.555 0 36.228-12.541 42.42-30h182.58v-30h-182.58c-6.192-17.459-22.865-30-42.42-30s-36.228 12.541-42.42 30h-62.58v30h62.58c6.192 17.459 22.865 30 42.42 30zm0-60c8.271 0 15 6.729 15 15s-6.729 15-15 15-15-6.729-15-15 6.729-15 15-15z"/><path d="m316 421c19.555 0 36.228-12.541 42.42-30h62.58v-30h-62.58c-6.192-17.459-22.865-30-42.42-30s-36.228 12.541-42.42 30h-182.58v30h182.58c6.192 17.459 22.865 30 42.42 30zm0-60c8.271 0 15 6.729 15 15s-6.729 15-15 15-15-6.729-15-15 6.729-15 15-15z"/></g></svg>