<svg id="Capa_1" enable-background="new 0 0 512 512" height="512" viewBox="0 0 512 512" width="512" xmlns="http://www.w3.org/2000/svg"><g><path d="m511.999 169.312c0-33.152-26.971-60.124-60.123-60.124h-60.377c-16.61 0-30.124-13.514-30.124-30.124v-30.126h-90.25v30.126c0 33.152 26.972 60.124 60.124 60.124h60.377c16.61 0 30.124 13.514 30.124 30.124v37.752h-421.75v120.372h155.058c-2.878 9.587-4.433 19.74-4.433 30.252 0 58.104 47.271 105.375 105.375 105.375s105.375-47.271 105.375-105.375c0-10.511-1.554-20.665-4.433-30.252h155.058zm-180.75-60.124c-16.61 0-30.124-13.514-30.124-30.124v-.126h30.25v.126c0 10.969 2.952 21.261 8.104 30.124zm112.397 30h8.23c16.61 0 30.123 13.514 30.123 30.124v37.752h-30.249v-37.752c0-10.97-2.952-21.262-8.104-30.124zm-413.646 97.875h90.5v60.372h-90.5zm226 195.999c-41.562 0-75.375-33.813-75.375-75.375s33.813-75.375 75.375-75.375 75.375 33.813 75.375 75.375-33.813 75.375-75.375 75.375zm0-180.75c-35.715 0-67.332 17.865-86.399 45.123h-19.101v-60.372h271.25v60.372h-79.351c-19.067-27.258-50.684-45.123-86.399-45.123zm226 45.124h-30.25v-60.372h30.25z"/><path d="m285.337 307.137-29.337 29.338-29.337-29.338-21.213 21.213 29.337 29.338-29.337 29.337 21.213 21.213 29.337-29.338 29.337 29.338 21.213-21.213-29.337-29.337 29.337-29.338z"/></g></svg>