<?xml version="1.0" encoding="iso-8859-1"?>
<!-- Generator: Adobe Illustrator 19.0.0, SVG Export Plug-In . SVG Version: 6.00 Build 0)  -->
<svg xmlns="http://www.w3.org/2000/svg" xmlns:xlink="http://www.w3.org/1999/xlink" version="1.1" id="Layer_1" x="0px" y="0px" viewBox="0 0 511.999 511.999" style="enable-background:new 0 0 511.999 511.999;" xml:space="preserve">
<g>
	<g>
		<path d="M429.669,333.143c-0.143-64.529-35.624-122.789-91.69-152.75V98.647h30.251V0H143.77v98.647h30.25v81.745    c-56.067,29.961-91.546,88.222-91.689,152.75l-0.035,15.742H214.76L256,511.999l41.239-163.115h132.464L429.669,333.143z     M175.184,31.414h161.631v35.818H175.184V31.414z M306.564,98.648v73.278h-101.13V98.648H306.564z M256,383.839l-8.838-34.954    h17.675L256,383.839z M305.183,317.47h-98.365h-92.176c5.624-50.025,37.267-93.54,83.952-114.131h114.811    c46.686,20.591,78.328,64.106,83.952,114.131H305.183z"/>
	</g>
</g>
<g>
</g>
<g>
</g>
<g>
</g>
<g>
</g>
<g>
</g>
<g>
</g>
<g>
</g>
<g>
</g>
<g>
</g>
<g>
</g>
<g>
</g>
<g>
</g>
<g>
</g>
<g>
</g>
<g>
</g>
</svg>
