<svg id="Capa_1" enable-background="new 0 0 510 510" height="512" viewBox="0 0 510 510" width="512" xmlns="http://www.w3.org/2000/svg"><g><path d="m510 390v-345h-510v345h191.703l-9 45h-32.703v30h210v-30h-32.703l-9-45zm-480-30v-285h450v285c-12.91 0-437.093 0-450 0zm266.703 75h-83.406l9-45h65.406z"/><path d="m165 105h-105v105h105zm-30 75h-45v-45h45z"/><path d="m330 330v-30h60v30h30v-30h30v-30h-30v-30h-30v30h-60v-30h-30v30h-30v30h30v30z"/><path d="m60 240h90v30h-90z"/><path d="m60 300h135v30h-135z"/><path d="m255 105h195v30h-195z"/><path d="m315 165h135v30h-135z"/></g></svg>