<svg id="Capa_1" enable-background="new 0 0 512 512" height="512" viewBox="0 0 512 512" width="512" xmlns="http://www.w3.org/2000/svg"><g><path d="m467 359.63h-90.537l10-30h95.537v-299.63h-452v299.63h95.536l10 30h-90.536c-24.813 0-45 20.187-45 45s20.187 45 45 45h5v32.37h30v-32.37h352v32.37h30v-32.37h5c24.813 0 45-20.187 45-45s-20.186-45-45-45zm-407-299.63h392v239.63h-392zm97.159 269.63h197.681l-10 30h-177.681zm309.841 90h-422c-8.271 0-15-6.729-15-15s6.729-15 15-15h422c8.271 0 15 6.729 15 15s-6.728 15-15 15z"/><path d="m268.544 183.413h164.172v30h-164.172z" transform="matrix(.707 -.707 .707 .707 -37.602 306.046)"/><path d="m364.499 225.043h55.523v30h-55.523z" transform="matrix(.707 -.707 .707 .707 -54.846 347.677)"/></g></svg>