<svg id="Capa_1" enable-background="new 0 0 512 512" height="512" viewBox="0 0 512 512" width="512" xmlns="http://www.w3.org/2000/svg"><g><path d="m482 211v30h-31.571c-1.882-24.621-8.359-47.977-18.569-69.212l39.486-22.797-15-25.981-39.536 22.826c-13.626-19.828-30.818-37.02-50.646-50.646l22.826-39.536-25.98-15-22.798 39.486c-21.235-10.21-44.591-16.687-69.212-18.569v-31.571h30v-30h-90v30h30v31.571c-24.621 1.882-47.977 8.359-69.213 18.569l-22.797-39.486-25.98 15 22.826 39.536c-19.828 13.626-37.02 30.818-50.646 50.646l-39.536-22.826-15 25.981 39.486 22.797c-10.21 21.235-16.687 44.591-18.569 69.212h-31.571v-30h-30v90h30v-30h31.571c1.882 24.621 8.359 47.977 18.569 69.212l-39.486 22.798 15 25.981 39.536-22.826c13.626 19.828 30.818 37.02 50.646 50.646l-22.826 39.536 25.98 15 22.797-39.486c21.235 10.21 44.591 16.687 69.212 18.569v31.57h-30v30h90v-30h-30v-31.571c24.621-1.882 47.977-8.359 69.212-18.569l22.798 39.486 25.98-15-22.826-39.536c19.828-13.626 37.02-30.818 50.646-50.646l39.536 22.826 15-25.981-39.486-22.797c10.21-21.235 16.687-44.591 18.569-69.212h31.572v30h30v-90zm-226 210c-90.981 0-165-74.019-165-165s74.019-165 165-165 165 74.019 165 165-74.019 165-165 165z"/><path d="m316 271c-24.813 0-45 20.187-45 45s20.187 45 45 45 45-20.187 45-45-20.187-45-45-45zm0 60c-8.271 0-15-6.729-15-15s6.729-15 15-15 15 6.729 15 15-6.729 15-15 15z"/><path d="m196 271c-24.813 0-45 20.187-45 45s20.187 45 45 45 45-20.187 45-45-20.187-45-45-45zm0 60c-8.271 0-15-6.729-15-15s6.729-15 15-15 15 6.729 15 15-6.729 15-15 15z"/><path d="m316 181c0-33.084-26.916-60-60-60s-60 26.916-60 60 26.916 60 60 60 60-26.916 60-60zm-60 30c-16.542 0-30-13.458-30-30s13.458-30 30-30 30 13.458 30 30-13.458 30-30 30z"/><path d="m361 211h30v30h-30z"/><path d="m121 211h30v30h-30z"/></g></svg>