<svg id="Capa_1" enable-background="new 0 0 510.029 510.029" height="512" viewBox="0 0 510.029 510.029" width="512" xmlns="http://www.w3.org/2000/svg"><g><path d="m431.265 30h45v30h-45z"/><path d="m431.265 90h60v30h-60z"/><path d="m431.265 150h45v30h-45z"/><path d="m431.265 210h60v30h-60z"/><path d="m401.265 262.741v-187.741c0-41.355-33.644-75-75-75s-75 33.645-75 75v187.741c-37.162 24.895-59.944 67.069-60 112.088-.044 34.971 13.361 68.216 37.743 93.611 51.834 53.987 137.124 55.573 190.877 3.824 26.685-25.69 41.38-60.232 41.38-97.264 0-45.091-22.781-87.329-60-112.259zm-120-112.741h30v30h-30zm45 195c16.542 0 30 13.458 30 30s-13.458 30-30 30-30-13.458-30-30 13.458-30 30-30zm72.813 105.652c-20.745 19.972-48.074 30.367-76.92 29.27-55.702-2.116-100.963-49.243-100.894-105.055.085-68.655 58.464-93.675 60-95.157v-69.71h30v106.898c-25.85 6.678-45 30.195-45 58.102 0 33.084 26.916 60 60 60s60-26.916 60-60c0-27.906-19.15-51.424-45-58.102v-226.898h-30v30h-30v-45c0-24.813 20.187-45 45-45 24.814 0 45 20.187 45 45v204.71c1.527 1.474 60 26.505 60 95.29.001 28.803-11.43 55.67-32.186 75.652z"/><path d="m215.63 144.51-27.307-15.766c2.499-7.467 3.874-15.446 3.874-23.744s-1.375-16.276-3.874-23.744l27.307-15.766-15-25.98-27.337 15.783c-10.583-11.93-24.892-20.481-41.095-23.784v-31.509h-30v31.509c-16.204 3.302-30.518 11.851-41.101 23.781l-27.332-15.78-15 25.98 27.302 15.762c-2.5 7.468-3.869 15.449-3.869 23.747s1.369 16.279 3.869 23.747l-27.302 15.764 15 25.98 27.332-15.78c10.583 11.93 24.897 20.479 41.101 23.781v31.509h30v-31.509c16.203-3.302 30.512-11.854 41.095-23.784l27.337 15.783zm-98.433 5.49c-24.813 0-45-20.187-45-45s20.187-45 45-45 45 20.187 45 45-20.187 45-45 45z"/></g></svg>