<svg id="Capa_1" enable-background="new 0 0 512.006 512.006" height="512" viewBox="0 0 512.006 512.006" width="512" xmlns="http://www.w3.org/2000/svg"><g><path d="m64.291 422.006-22.5 90h428.423l-22.5-90h-26.712v-30h30v-30h-45c-8.271 0-15-6.729-15-15v-285.518h-71.428l-121.794-61.488-76.777 19.194v327.812c0 8.271-6.729 15-15 15h-45v30h30v30zm367.5 60h-351.577l7.5-30h336.577zm-70.788-180h-30v-210.518h30zm-150-261.724 30 15.146v246.579h-30zm60 30.291 30 15.146v216.287h-30zm-90-35.456v266.889h-30v-259.389zm-30 311.889v-15h210v15c0 5.258.915 10.305 2.58 15h-215.16c1.665-4.695 2.58-9.742 2.58-15zm-30 45h270v30h-270z"/></g></svg>