<?xml version="1.0" encoding="iso-8859-1"?>
<!-- Generator: Adobe Illustrator 19.0.0, SVG Export Plug-In . SVG Version: 6.00 Build 0)  -->
<svg xmlns="http://www.w3.org/2000/svg" xmlns:xlink="http://www.w3.org/1999/xlink" version="1.1" id="Layer_1" x="0px" y="0px" viewBox="0 0 512.001 512.001" style="enable-background:new 0 0 512.001 512.001;" xml:space="preserve">
<g>
	<g>
		<path d="M480.611,90.367c-7.022-20.379-17.706-38.076-31.123-52.111c-13.417-14.035-29.576-24.419-47.562-30.185    c-68.31-21.906-124.481,6.264-145.928,19.751C234.551,14.336,178.372-13.835,110.07,8.071    C74.09,19.613,45.411,49.618,31.376,90.417c-18.464,53.647-9.167,115.533,24.868,165.529    c22.734,33.407,37.577,71.104,42.933,109.02c0.309,2.195,0.609,4.429,0.908,6.713c5.147,39.971,12.738,72.061,22.554,95.363    c11.761,27.911,26.923,42.983,45.088,44.799c1.027,0.11,2.055,0.159,3.062,0.159c17.876,0,32.818-16.04,44.43-47.741    c8.599-23.442,15.372-54.844,19.073-88.441c2.075-18.783,6.923-33.986,14.015-43.981c2.544-3.571,6.225-3.96,7.691-3.96    c1.466,0,5.147,0.389,7.691,3.96c7.092,9.995,11.94,25.198,14.015,43.981c3.701,33.597,10.474,64.999,19.073,88.441    c11.622,31.702,26.555,47.742,44.43,47.742c1.008,0,2.035-0.05,3.063-0.159c18.165-1.816,33.327-16.888,45.088-44.799    c9.816-23.302,17.407-55.392,22.554-95.363c0.289-2.204,0.579-4.359,0.878-6.474c5.337-37.976,20.23-75.802,43.043-109.368    C489.819,205.841,499.075,143.984,480.611,90.367z M431.085,239.018c-25.377,37.337-41.956,79.523-47.931,122.017    c-0.309,2.224-0.618,4.499-0.918,6.813c-10.484,81.368-30.036,112.78-40.749,114.197c-2.254-0.798-9.955-8.2-18.235-32.689    c-7.013-20.748-12.629-48.031-15.801-76.819c-2.673-24.17-9.187-43.692-19.372-58.026c-7.362-10.364-19.362-16.559-32.08-16.559    c-12.718,0-24.719,6.195-32.08,16.559c-10.185,14.334-16.699,33.856-19.372,58.026c-3.172,28.788-8.788,56.071-15.801,76.819    c-8.279,24.489-15.98,31.891-18.235,32.689c-10.713-1.417-30.255-32.829-40.749-114.197c-0.309-2.404-0.629-4.758-0.958-7.062    c-5.985-42.435-22.524-84.5-47.821-121.678c-28.749-42.235-36.719-94.186-21.317-138.955    c10.943-31.781,32.639-54.954,59.542-63.582c29.297-9.397,59.502-8.788,89.777,1.786c23.133,8.08,37.646,19.262,37.746,19.342    l0.339,0.269l0.05,0.03l9.137,6.793l35.811,26.604l-39.213,67.213l57.817,37.706l16.339-25.068l-33.956-22.145L331.4,83.344    l-48.779-36.25c22.005-11.322,62.824-25.706,110.167-10.524c26.883,8.619,48.579,31.781,59.522,63.552    C467.723,144.852,459.783,196.783,431.085,239.018z"/>
	</g>
</g>
<g>
</g>
<g>
</g>
<g>
</g>
<g>
</g>
<g>
</g>
<g>
</g>
<g>
</g>
<g>
</g>
<g>
</g>
<g>
</g>
<g>
</g>
<g>
</g>
<g>
</g>
<g>
</g>
<g>
</g>
</svg>
