<svg id="Capa_1" enable-background="new 0 0 511.998 511.998" height="512" viewBox="0 0 511.998 511.998" width="512" xmlns="http://www.w3.org/2000/svg"><g><path d="m0 0v168.934h511.998v-168.934zm190.994 97.334h130.01v41.6h-130.01zm130.01-30h-130.01v-37.334h130.01zm-291.004-37.334h130.994v108.934h-130.994zm451.998 108.934h-130.994v-108.934h130.994z"/><path d="m328.003 305.063h-30v18h-27.004v-50.5c0-7.445 6.057-13.502 13.502-13.502s13.502 6.057 13.502 13.502v.494h30v-.494c0-23.987-19.515-43.502-43.502-43.502s-43.502 19.515-43.502 43.502v50.5h-27.003v-18h-30v18h-183.996v188.935h511.998v-188.935h-183.995zm3.002 176.935h-150.012v-128.935h150.012zm-180.012-128.935v30.004h-120.993v-30.004zm-120.993 60.004h120.993v68.931h-120.993zm331.005 68.931v-68.931h120.993v68.931zm120.993-98.931h-120.993v-30.004h120.993z"/><path d="m232.333 378.396h47.333v30h-47.333z"/><path d="m381.007 67.334h30.002v30h-30.002z"/><path d="m100.989 67.334h30.002v30h-30.002z"/></g></svg>