<svg id="Capa_1" enable-background="new 0 0 512 512" height="512" viewBox="0 0 512 512" width="512" xmlns="http://www.w3.org/2000/svg"><g><path d="m315.005 0c-23.504 0-46.942 2.603-69.661 7.737l-26.541 5.997 69.022 69.021c5.849 5.849 5.848 15.365 0 21.213-2.831 2.831-6.598 4.39-10.606 4.39-4.01 0-7.777-1.559-10.607-4.389l-77.839-77.839-9.573 4.577c-22.648 10.827-44.03 24.42-63.552 40.399l-12.823 10.497 93.077 93.077c2.833 2.833 4.392 6.6 4.392 10.608 0 4.007-1.56 7.774-4.392 10.605-2.831 2.83-6.598 4.389-10.605 4.389-4.01 0-7.777-1.559-10.608-4.389l-93.077-93.078-10.497 12.824c-15.981 19.526-29.574 40.908-40.399 63.552l-4.577 9.573 77.839 77.839c5.849 5.849 5.849 15.365 0 21.214-2.83 2.83-6.597 4.389-10.606 4.389s-7.776-1.559-10.607-4.389l-69.03-69.031-5.995 26.545c-5.137 22.731-7.74 46.173-7.74 69.674v196.995h196.995c23.498 0 46.94-2.603 69.673-7.737l26.547-5.994-69.032-69.031c-5.849-5.849-5.849-15.365 0-21.214 2.83-2.83 6.597-4.389 10.606-4.389 4.01 0 7.776 1.559 10.607 4.389l77.839 77.839 9.573-4.576c22.643-10.824 44.025-24.417 63.552-40.399l12.825-10.496-93.079-93.078c-2.834-2.833-4.394-6.6-4.394-10.606s1.56-7.773 4.394-10.606c2.83-2.831 6.598-4.389 10.607-4.389s7.776 1.559 10.607 4.389l93.077 93.078 10.496-12.823c15.98-19.523 29.572-40.905 40.4-63.553l4.576-9.573-77.839-77.839c-5.849-5.849-5.849-15.365 0-21.213 2.83-2.831 6.598-4.389 10.607-4.389s7.776 1.559 10.606 4.389l69.021 69.021 5.997-26.541c5.134-22.72 7.737-46.157 7.737-69.661v-196.998zm-285.005 315.005c0-11.837.729-23.653 2.174-35.35l29.375 29.375c8.497 8.496 19.797 13.175 31.819 13.175s23.323-4.679 31.819-13.176c17.546-17.545 17.546-46.094 0-63.64l-62.685-62.685c6.358-12.113 13.608-23.786 21.671-34.897l69.298 69.297c8.496 8.496 19.796 13.175 31.82 13.176 12.022 0 23.323-4.679 31.819-13.176 8.497-8.497 13.177-19.796 13.179-31.815.001-12.023-4.679-23.325-13.179-31.824l-69.298-69.298c11.111-8.063 22.781-15.311 34.898-21.671l62.685 62.685c8.496 8.496 19.795 13.175 31.82 13.176 12.022 0 23.323-4.679 31.82-13.176 17.545-17.546 17.545-46.094 0-63.639l-29.369-29.369c11.691-1.445 23.504-2.173 35.339-2.173h145.781l-430.786 430.784zm452-118.01c0 11.834-.729 23.647-2.173 35.337l-29.368-29.368c-8.496-8.497-19.797-13.176-31.82-13.176-12.022 0-23.323 4.679-31.82 13.176-8.5 8.5-13.182 19.8-13.182 31.819 0 12.02 4.682 23.32 13.182 31.82l62.685 62.685c-6.359 12.116-13.606 23.786-21.671 34.898l-69.297-69.298c-8.496-8.497-19.797-13.176-31.82-13.176-12.022 0-23.323 4.679-31.82 13.176-8.5 8.5-13.181 19.8-13.181 31.82s4.681 23.32 13.181 31.819l69.299 69.298c-11.112 8.064-22.785 15.313-34.899 21.671l-62.685-62.685c-8.496-8.497-19.797-13.176-31.82-13.176-12.022 0-23.323 4.679-31.819 13.176-17.546 17.545-17.546 46.094 0 63.64l29.374 29.374c-11.696 1.446-23.514 2.175-35.349 2.175h-145.787l430.79-430.789z"/></g></svg>