<svg id="Capa_1" enable-background="new 0 0 512 512" height="512" viewBox="0 0 512 512" width="512" xmlns="http://www.w3.org/2000/svg"><g><path d="m512 128.533-80.643-44.192-44.191-84.341-31.581 61.281c-14.219-4.49-29.016-6.77-44.15-6.77-27.924 0-57.382 9.293-82.364 25.76-24.982-16.466-54.441-25.76-82.364-25.76-80.895.001-146.707 65.813-146.707 146.708 0 48.802 23.407 77.079 56.083 115.237l51.954 161.935c6.283 20.105 24.647 33.609 45.717 33.609h9.033l63.271-119.556c.793-1.5 2.077-1.815 3.014-1.815s2.22.314 3.014 1.815l63.269 119.556h9.033c21.07 0 39.434-13.503 45.717-33.61l51.953-161.934c32.677-38.159 56.084-66.436 56.084-115.237 0-13.68-1.866-27.119-5.554-40.105zm-94.108 116.286c-10.203 20.215-27.934 39.65-42.552 56.713l-53.821 167.759-.04.126c-1.488 4.786-4.809 8.574-9.055 10.697l-53.822-101.703c-5.805-10.969-17.12-17.783-29.53-17.783s-23.726 6.814-29.53 17.783l-53.823 101.703c-4.247-2.123-7.566-5.91-9.055-10.696l-53.862-167.886c-25.245-29.466-52.802-59.179-52.802-100.313 0-64.353 52.354-116.707 116.707-116.707 31.37 0 58.167 14.506 82.364 33.056 31.691-24.293 67.848-39.354 108.311-30.169l-75.21 41.134 80.802 44.192 44.192 80.802 39.334-71.921c3.646 21.575 1.292 43.598-8.608 63.213zm-8.638-94.198-22.088 40.386-22.089-40.386-40.386-22.088 40.386-22.088 22.089-40.386 22.088 40.386 40.386 22.088z"/><path d="m464.958 28.404h30v30h-30z"/><path d="m279.457 198.895h30v30h-30z"/></g></svg>