<svg id="Layer_1" enable-background="new 0 0 509.958 509.958" height="512" viewBox="0 0 509.958 509.958" width="512" xmlns="http://www.w3.org/2000/svg"><g><path d="m483.819 357.648-123.86-123.861-105 105.001-105-105.001-123.861 123.861c-34.797 34.797-34.797 91.416 0 126.213 17.398 17.398 40.252 26.098 63.107 26.098 22.853 0 45.707-8.699 63.106-26.098l102.648-102.647 102.647 102.646c17.398 17.398 40.252 26.097 63.106 26.097 22.853 0 45.708-8.699 63.107-26.098 16.856-16.857 26.14-39.268 26.14-63.107-.001-23.837-9.284-46.249-26.14-63.104zm-3.861 63.106c0 10.693-2.823 20.95-8.101 29.933l-98.186-98.187 31.287-31.287 57.647 57.648c11.191 11.19 17.353 26.068 17.353 41.893zm-432.647-41.894 57.647-57.647 31.287 31.287-98.177 98.178c-13.271-22.691-10.193-52.381 9.243-71.818zm83.787 83.788c-11.552 11.551-26.72 17.326-41.893 17.325-10.358-.001-20.716-2.698-29.922-8.083l98.176-98.177 31.286 31.287zm78.86-78.861-83.787-83.787 23.787-23.787 83.787 83.787zm150-107.574 23.787 23.787-83.787 83.787-23.787-23.787zm18.861 186.435-57.648-57.648 31.287-31.287 98.178 98.177c-22.691 13.272-52.381 10.194-71.817-9.242z"/><path d="m194.958 210h45v60h30v-60-30-60h45c41.355 0 75-33.645 75-75v-30h-75c-16.871 0-32.456 5.602-45 15.041v-30.041h-30v90 30 .041c-12.544-9.438-28.129-15.041-45-15.041h-75v30c0 41.355 33.645 75 75 75zm120-165h45c0 24.813-20.186 45-45 45h-45c0-24.813 20.187-45 45-45zm-120 90c24.813 0 45 20.187 45 45h-45c-24.813 0-45-20.187-45-45z"/></g></svg>