<?xml version="1.0" encoding="iso-8859-1"?>
<!-- Generator: Adobe Illustrator 19.0.0, SVG Export Plug-In . SVG Version: 6.00 Build 0)  -->
<svg xmlns="http://www.w3.org/2000/svg" xmlns:xlink="http://www.w3.org/1999/xlink" version="1.1" id="Layer_1" x="0px" y="0px" viewBox="0 0 512.001 512.001" style="enable-background:new 0 0 512.001 512.001;" xml:space="preserve">
<g>
	<g>
		<path d="M382.463,431.971h-38.04c20.141-12.65,37.927-28.914,52.261-47.98c18.141-4.334,34.038-16.986,41.705-35.496    c7.665-18.508,5.368-38.689-4.391-54.58c5.837-41.184-1.794-83.768-21.738-120.589c-18.865-34.828-48.135-63.18-83.359-81.077    l8.395-20.266l14.428,5.976l11.484-27.726L241.934,0L230.45,27.726l14.429,5.977l-55.465,133.902l8.29,3.434l-16.524,39.894    l75.837,31.412l16.524-39.894l8.29,3.434l15.218-36.74c36.523,21.232,58.381,61.568,55.833,104.123    c-11.18,6.387-20.412,16.37-25.709,29.158c-5.297,12.789-5.828,26.375-2.44,38.797c-31.618,35.643-82.838,47.788-127.359,29.345    l-73.444-30.422l12.78-30.853l103.374,42.82l11.484-27.726l-156.93-65.003l-11.484,27.726l25.83,10.699l-12.78,30.853    l-31.688,76.503l64.737,26.815c-35.677,0.208-64.641,29.288-64.641,65.014v15.005h382.873v-15.005    C447.486,461.141,418.316,431.971,382.463,431.971z M240.776,203.134l-20.388-8.444l5.041-12.169l20.388,8.445L240.776,203.134z     M269.714,156.719l-4.123,9.955l-36.966-15.312l43.98-106.176l36.966,15.313l-8.318,20.081L269.714,156.719z M308.621,141.209    l8.76-21.148c28.897,15.195,52.897,38.765,68.492,67.558c13.703,25.298,20.551,53.798,20.009,82.261    c-0.022-0.01-0.045-0.019-0.067-0.028c-0.933-0.386-1.874-0.747-2.819-1.084c-0.343-0.122-0.688-0.226-1.031-0.341    c-0.604-0.204-1.207-0.411-1.817-0.595c-0.4-0.121-0.801-0.223-1.202-0.334c-0.558-0.156-1.115-0.317-1.678-0.457    c-0.401-0.1-0.802-0.182-1.204-0.273c-0.569-0.129-1.137-0.262-1.709-0.374c-0.37-0.072-0.74-0.13-1.11-0.196    c-0.611-0.108-1.221-0.216-1.834-0.306c-0.318-0.046-0.637-0.08-0.955-0.121c-0.671-0.086-1.342-0.17-2.016-0.233    c-0.251-0.023-0.502-0.038-0.753-0.059c-0.745-0.061-1.49-0.114-2.237-0.147c-0.174-0.007-0.348-0.009-0.522-0.015    c-0.606-0.021-1.211-0.05-1.819-0.053C382.635,213.703,354.11,165.951,308.621,141.209z M354.899,313.911    c3.085-7.447,8.886-13.248,16.333-16.333c0.28-0.116,0.563-0.219,0.846-0.326l0.186-0.069c5.375-2.001,11.124-2.424,16.639-1.277    c0.019,0.004,0.038,0.009,0.057,0.013c0.433,0.091,0.865,0.191,1.295,0.301c0.098,0.025,0.194,0.055,0.292,0.081    c0.356,0.095,0.711,0.192,1.063,0.3c0.205,0.063,0.409,0.135,0.614,0.203c0.248,0.082,0.497,0.16,0.743,0.249    c0.456,0.164,0.91,0.338,1.362,0.525c0.551,0.228,1.091,0.476,1.627,0.735c0.122,0.059,0.242,0.122,0.364,0.183    c0.452,0.227,0.899,0.462,1.338,0.711c0.073,0.041,0.146,0.082,0.219,0.124c3.302,1.908,6.228,4.429,8.589,7.428l0.571,0.726    c1.448,1.962,2.669,4.114,3.626,6.426c3.085,7.447,3.085,15.651,0,23.099c-3.085,7.448-8.886,13.248-16.333,16.333    c-2.315,0.958-4.704,1.619-7.119,1.981l-0.906,0.108c-3.788,0.45-7.638,0.165-11.321-0.82c-0.083-0.022-0.166-0.046-0.249-0.069    c-0.484-0.134-0.965-0.283-1.443-0.441c-0.13-0.043-0.26-0.083-0.389-0.128c-0.561-0.195-1.119-0.402-1.67-0.63    c-0.453-0.188-0.9-0.386-1.34-0.594c-0.206-0.097-0.407-0.203-0.61-0.305c-0.223-0.111-0.448-0.219-0.667-0.335    c-0.314-0.167-0.623-0.343-0.93-0.521c-0.098-0.056-0.198-0.11-0.296-0.167c-0.376-0.223-0.746-0.454-1.111-0.692    c-0.022-0.014-0.044-0.027-0.066-0.042c-4.709-3.09-8.476-7.453-10.861-12.668l-0.073-0.159c-0.131-0.283-0.261-0.564-0.38-0.851    C351.814,329.562,351.814,321.358,354.899,313.911z M103.727,388.924l8.72-21.05l73.444,30.422    c17.649,7.31,36.12,10.827,54.412,10.826c36.965-0.003,73.168-14.38,100.143-40.864c0.422,0.417,0.861,0.816,1.295,1.221    c0.14,0.131,0.277,0.265,0.419,0.395c0.537,0.492,1.088,0.968,1.645,1.44c0.206,0.175,0.407,0.354,0.615,0.526    c0.507,0.419,1.026,0.823,1.547,1.226c0.268,0.208,0.532,0.419,0.804,0.623c0.481,0.359,0.974,0.703,1.467,1.047    c0.322,0.226,0.639,0.458,0.967,0.678c0.471,0.315,0.953,0.615,1.433,0.918c0.36,0.228,0.714,0.461,1.081,0.682    c0.485,0.292,0.983,0.566,1.477,0.845c0.372,0.209,0.737,0.427,1.115,0.629c0.556,0.298,1.126,0.576,1.694,0.857    c0.328,0.163,0.648,0.335,0.98,0.492c0.907,0.43,1.828,0.84,2.761,1.226c0.022,0.009,0.044,0.018,0.066,0.027    c-19.742,20.51-44.737,35.821-72.316,44.02c-36.19,10.759-75.371,8.711-110.327-5.77L103.727,388.924z M98.003,481.99    c5.629-11.82,17.694-20.009,31.634-20.009h252.827c13.94,0,26.003,8.19,31.633,20.009H98.003z"/>
	</g>
</g>
<g>
</g>
<g>
</g>
<g>
</g>
<g>
</g>
<g>
</g>
<g>
</g>
<g>
</g>
<g>
</g>
<g>
</g>
<g>
</g>
<g>
</g>
<g>
</g>
<g>
</g>
<g>
</g>
<g>
</g>
</svg>
