<svg id="Capa_1" enable-background="new 0 0 512 512" height="512" viewBox="0 0 512 512" width="512" xmlns="http://www.w3.org/2000/svg"><g><path d="m188.5 286c0-11.517-4.354-22.032-11.495-30 7.142-7.968 11.495-18.483 11.495-30 0-24.813-20.187-45-45-45h-45v150h45c24.813 0 45-20.187 45-45zm-60-75h15c8.271 0 15 6.729 15 15s-6.729 15-15 15h-15zm15 90h-15v-30h15c8.271 0 15 6.729 15 15s-6.729 15-15 15z"/><path d="m248.5 407c0-24.813-20.187-45-45-45h-45v150h30v-57.43c17.461 6.191 30 22.873 30 42.43v15h30v-15c0-20.16-8.01-38.474-20.997-51.965 12.605-7.983 20.997-22.043 20.997-38.035zm-60-15h15c8.271 0 15 6.729 15 15s-6.729 15-15 15h-15z"/><path d="m308.5 226c0-24.813-20.187-45-45-45h-45v150h30v-60h15c24.813 0 45-20.187 45-45zm-60-15h15c8.271 0 15 6.729 15 15s-6.729 15-15 15h-15z"/><path d="m398.5 271v60h30v-105c0-24.813-20.187-45-45-45s-45 20.187-45 45v105h30v-60zm-15-60c8.271 0 15 6.729 15 15v15h-30v-15c0-8.271 6.729-15 15-15z"/><path d="m38.5 512h30v-60h45v-30h-45v-30h45v-30h-75z"/><path d="m278.5 512h75v-30h-45v-30h45v-30h-45v-30h45v-30h-75z"/><path d="m473.5 392v-30h-75v150h75v-30h-45v-30h45v-30h-45v-30z"/><path d="m203.5 150h120c57.897 0 105-47.103 105-105v-45h-75c-38.151 0-71.612 20.455-90 50.971-18.388-30.516-51.849-50.971-90-50.971h-75v45c0 57.897 47.103 105 105 105zm150-120h45v15c0 41.355-33.645 75-75 75h-17.238l56.608-45.287-18.74-23.426-65.599 52.479c.665-40.786 34.028-73.766 74.969-73.766zm-225 0h45c40.941 0 74.304 32.98 74.969 73.765l-65.598-52.478-18.741 23.426 56.608 45.287h-17.238c-41.355 0-75-33.645-75-75z"/></g></svg>