<svg id="Layer_1" enable-background="new 0 0 511.858 511.858" height="512" viewBox="0 0 511.858 511.858" width="512" xmlns="http://www.w3.org/2000/svg"><g><path d="m255.675 172.861c-77.563 0-140.664 63.102-140.664 140.665 7.072 186.354 274.285 186.303 281.328-.002 0-77.561-63.102-140.663-140.664-140.663zm0 251.328c-61.021 0-110.664-49.644-110.664-110.664 5.563-146.61 215.787-146.57 221.328.001 0 61.02-49.644 110.663-110.664 110.663z"/><path d="m379.549 158.456c-17.241-13.788-27.13-34.139-27.13-55.835v-21.182h-24.382v-29.186l-26.274-34.296h-31.088v-17.957h-30v17.957h-31.088l-26.274 34.296v29.187h-24.383v21.183c0 21.749-9.78 42.012-26.831 55.595-92.33 69.863-99.977 217.556-15.869 296.768 122.99 123.079 339.104 32.901 337.916-141.463.002-60.634-27.188-117.154-74.597-155.067zm-92.595-110.499 11.083 14.467v19.016h-27.362v-33.483zm-73.642 14.467 11.083-14.467h16.28v33.482h-27.363zm42.365 419.575c-159.307-.523-228.852-200.773-104.885-300.317 21.917-17.459 35.383-42.695 37.759-70.243h52.123v28.639h30v-28.639h52.127c2.396 27.5 15.95 52.805 38.011 70.446 123.75 98.628 53.12 300.03-105.135 300.114z"/></g></svg>