<svg id="Capa_1" enable-background="new 0 0 510 510" height="512" viewBox="0 0 510 510" width="512" xmlns="http://www.w3.org/2000/svg"><g><path id="XMLID_659_" d="m405 0h-90v30h-120v-30h-90v45c0 39.673 15.447 77.086 42.882 105.012-27.659 28.206-42.882 65.424-42.882 104.988 0 39.569 15.227 76.793 42.893 105-27.666 28.207-42.893 65.43-42.893 105v45h90v-30h120v30h90v-45c0-39.57-15.227-76.793-42.893-105 27.666-28.207 42.893-65.431 42.893-105 0-39.563-15.222-76.781-42.882-104.988 27.435-27.926 42.882-65.339 42.882-105.012zm-208.102 60h116.203c-6.678 25.849-30.195 45-58.102 45-27.905 0-51.423-19.151-58.101-45zm-61.898-30h30v15c0 28.614 13.425 54.151 34.305 70.647-9.919 3.962-19.402 8.993-28.309 15.038-22.999-22.513-35.996-53.148-35.996-85.685zm162.423 392.576c7.706 7.706 13.052 17.14 15.688 27.424h-116.222c2.637-10.284 7.981-19.717 15.688-27.423 11.334-11.335 26.4-17.577 42.423-17.577s31.089 6.242 42.423 17.576zm77.577 57.424h-30v-15c0-24.035-9.362-46.635-26.363-63.638-2.542-2.542-5.223-4.891-8.002-7.085 9.93-3.962 19.442-8.978 28.343-14.984.291.285.588.565.876.854 22.664 22.664 35.146 52.799 35.146 84.853zm-35.147-140.147c-2.993 2.993-6.163 5.847-9.427 8.484-21.562 17.443-47.644 26.663-75.426 26.663-24.035 0-46.635 9.362-63.638 26.363-17 17.002-26.362 39.602-26.362 63.637v15h-30v-15c0-32.054 12.482-62.189 35.146-84.853 2.993-2.993 6.163-5.847 9.427-8.484 21.563-17.443 47.645-26.663 75.427-26.663 24.035 0 46.635-9.362 63.638-26.363 17-17.002 26.362-39.602 26.362-63.637 0-24.036-9.362-46.635-26.363-63.636-2.543-2.542-5.224-4.892-8.003-7.087 9.929-3.962 19.441-8.977 28.343-14.984.291.286.589.566.877.854 22.664 22.664 35.146 52.8 35.146 84.853 0 32.054-12.482 62.189-35.147 84.853zm-127.276-42.429c-7.706-7.706-13.052-17.14-15.688-27.424h116.223c-2.637 10.284-7.981 19.717-15.688 27.423-11.335 11.335-26.402 17.577-42.424 17.577s-31.089-6.242-42.423-17.576zm84.847-84.847c7.706 7.706 13.051 17.14 15.688 27.423h-116.223c2.637-10.284 7.981-19.717 15.688-27.423 11.334-11.335 26.4-17.577 42.423-17.577s31.089 6.242 42.424 17.577zm77.576-167.577c0 36.391-16.247 70.412-44.573 93.338-21.563 17.442-47.645 26.662-75.427 26.662-24.036 0-46.636 9.363-63.637 26.364s-26.363 39.6-26.363 63.636c0 24.035 9.362 46.635 26.363 63.638 2.542 2.542 5.223 4.891 8.002 7.085-9.93 3.962-19.442 8.978-28.343 14.984-.291-.285-.588-.565-.876-.854-22.664-22.664-35.146-52.799-35.146-84.853 0-32.053 12.482-62.189 35.146-84.854 22.665-22.664 52.799-35.146 84.854-35.146 49.626 0 90-40.374 90-90v-15h30z"/></g></svg>