<svg id="Capa_1" enable-background="new 0 0 512 512" height="512" viewBox="0 0 512 512" width="512" xmlns="http://www.w3.org/2000/svg"><g><path d="m417 330.25v-108.25c0-67.83-42.16-126-101.66-149.67.76-3.83 1.16-7.78 1.16-11.83 0-33.36-27.14-60.5-60.5-60.5s-60.5 27.14-60.5 60.5c0 4.05.4 8 1.16 11.83-59.5 23.67-101.66 81.84-101.66 149.67v108.25l-59 20v86.75h137.39c4.03 42.03 39.54 75 82.61 75s78.58-32.97 82.61-75h137.39v-86.75zm29 76.75h-380v-35.25l59-20v-129.75c0-55.95 35.26-103.82 84.73-122.56 14.39-5.45 29.99-8.44 46.27-8.44s31.88 2.99 46.27 8.44c49.47 18.74 84.73 66.61 84.73 122.56v129.75l59 20zm-220.5-346.5c0-16.82 13.68-30.5 30.5-30.5s30.5 13.68 30.5 30.5c0 1.14-.06 2.27-.19 3.37-9.82-1.89-19.95-2.87-30.31-2.87s-20.49.98-30.31 2.87c-.13-1.1-.19-2.23-.19-3.37zm30.5 421.5c-26.5 0-48.53-19.56-52.4-45h104.8c-3.87 25.44-25.9 45-52.4 45z"/></g></svg>