<svg id="Layer_1" enable-background="new 0 0 510 510" height="512" viewBox="0 0 510 510" width="512" xmlns="http://www.w3.org/2000/svg"><g id="XMLID_577_"><path id="XMLID_590_" d="m390 92.58v-92.58h-270v92.58c-17.459 6.192-30 22.865-30 42.42v330c0 24.814 20.187 45 45 45h240c24.814 0 45-20.186 45-45v-330c0-19.555-12.541-36.228-30-42.42zm-240-62.58h30v30h30v-30h30v30h30v-30h30v30h30v-30h30v60h-210zm-15 90h240c8.272 0 15 6.729 15 15v15h-270v-15c0-8.271 6.729-15 15-15zm240 360h-240c-8.271 0-15-6.728-15-15v-30h30v-30h-30v-30h30v-30h-30v-30h30v-30h-30v-30h30v-30h-30v-45h270v30h-195v240h195v15c0 8.272-6.728 15-15 15zm15-240v180h-165v-180z"/><path id="XMLID_703_" d="m295.934 378.79 28.132 10.42 27.486-74.21h-45.741l11.419-34.257-28.46-9.486-24.581 73.743h44.259z"/></g></svg>