<svg id="Capa_1" enable-background="new 0 0 510 510" height="512" viewBox="0 0 510 510" width="512" xmlns="http://www.w3.org/2000/svg"><g><path d="m510 0h-300v30h-150c-33.084 0-60 26.916-60 60v360c0 33.084 26.916 60 60 60h285v-30h-30v-60h30v-75h165zm-300 195h-60v-60h60zm-180-105c0-16.542 13.458-30 30-30v330c-10.566 0-20.916 2.787-30 8.052zm255 390h-225c-16.542 0-30-13.458-30-30s13.458-30 30-30h225zm30-90h-225v-330h120v45h-90v120h90v30h-90v30h90v60h105zm165-75c-12.606 0-231.712 0-240 0v-285h240z"/><path d="m450 60h-180v105h180zm-30 75h-120v-45h120z"/><path d="m390 195h60v30h-60z"/><path d="m390 255h60v30h-60z"/><path d="m360 195h-90v90h90zm-30 60h-30v-30h30z"/></g></svg>