<svg id="Capa_1" enable-background="new 0 0 512 512" height="512" viewBox="0 0 512 512" width="512" xmlns="http://www.w3.org/2000/svg"><path id="XMLID_656_" d="m512 313.382v-83.549h-279.079c-18.59 0-36.125-9.876-45.759-25.774-15.038-24.812-42.403-40.226-71.416-40.226h-35.413v-25.667h22v-30h-22v-31.44c0-8.947 7.279-16.226 16.226-16.226s16.226 7.279 16.226 16.226v12.774h30v-12.774c0-25.489-20.737-46.226-46.226-46.226s-46.226 20.737-46.226 46.226v87.108h-50.333v149.549c0 49.157 27.905 91.912 68.702 113.277-16.06 12.901-26.368 32.685-26.368 54.841h30c0-22.24 18.093-40.333 40.333-40.333h291.909c22.24 0 40.333 18.094 40.333 40.333h30c0-23.133-11.23-43.688-28.52-56.514 39.108-21.875 65.611-63.7 65.611-111.605zm-127.785 97.785h-256.43c-53.919 0-97.785-43.866-97.785-97.785v-55.549h76.702v-30h-76.702v-34h85.746c18.59 0 36.125 9.876 45.76 25.774 15.038 24.812 42.402 40.226 71.416 40.226h249.078v34h-169v30h168.441c-5.233 49.023-46.838 87.334-97.226 87.334z"/></svg>