<svg id="Capa_1" enable-background="new 0 0 510 510" height="512" viewBox="0 0 510 510" width="512" xmlns="http://www.w3.org/2000/svg"><g><path d="m360 299h-45v-37.98c2.466-2.21 4.81-4.553 7.02-7.02h97.98v-89c0-90.981-74.019-165-165-165s-165 74.019-165 165v89h97.98c2.21 2.467 4.554 4.81 7.02 7.02v37.98h-45c-49.626 0-90 40.374-90 90v121h390v-121c0-49.626-40.374-90-90-90zm60 90v31h-75v60h-105v-84.787l15-15 51.213-51.213h53.787c33.084 0 60 26.916 60 60zm-225-195v-51.507l60-36 60 36v51.507c0 33.084-26.916 60-60 60s-60-26.916-60-60zm-75 30v-59c0-74.439 60.561-135 135-135s135 60.561 135 135v59h-50.148c3.329-9.388 5.148-19.485 5.148-30v-68.493l-90-54-90 54v68.493c0 10.515 1.819 20.612 5.148 30zm165 54.852v28.934l-30 30-30-30v-28.934c18.821 6.674 40.106 7.055 60 0zm-135 50.148h53.787l30 30-23.787 23.787v97.213h-45v-60h-75v-31c0-33.084 26.916-60 60-60zm-60 121h45v30h-45zm285 30v-30h45v30z"/><path d="m270 420h30v30h-30z"/></g></svg>