<svg id="Layer_1" enable-background="new 0 0 510 510" height="512" viewBox="0 0 510 510" width="512" xmlns="http://www.w3.org/2000/svg"><g><path d="m465 378.607c-12.429 18.009-45 63.185-45 86.393 0 24.814 20.186 45 45 45s45-20.186 45-45c0-23.229-32.669-68.526-45-86.393zm0 101.393c-8.272 0-15-6.728-15-14.982.122-4.585 6.361-17.655 15-32.212 8.635 14.551 14.872 27.615 15 32.206-.007 8.265-6.733 14.988-15 14.988z"/><path d="m480 107.58v-40.08c-3.404-89.448-131.628-89.38-135 0v375c0 20.678-16.822 37.5-37.5 37.5h-120c-18.11 0-33.262-12.904-36.745-30h1.245c31.981 0 58-26.019 58-58v-2h60v-390h-270v390h60v2c0 31.981 26.019 58 58 58h2.427c3.744 33.701 32.39 60 67.073 60h120c37.22 0 67.5-30.28 67.5-67.5v-375c1.891-49.693 73.127-49.655 75 0v40.08c-17.459 6.192-30 22.865-30 42.42v75c0 19.555 12.541 36.228 30 42.42v77.58h30v-77.58c17.459-6.192 30-22.865 30-42.42v-75c0-19.555-12.541-36.228-30-42.42zm-240-77.58v90h-210v-90zm-210 330v-30h30v-30h-30v-30h30v-30h-30v-30h30v-30h-30v-30h210v210c-10.395 0-199.611 0-210 0zm60 32v-2h90v2c0 15.44-12.561 28-28 28h-34c-15.439 0-28-12.56-28-28zm390-167c-.756 19.877-29.251 19.862-30 0v-75c.756-19.877 29.251-19.862 30 0z"/><path d="m150 210h-30v30h-30v30h30v30h30v-30h30v-30h-30z"/></g></svg>