<svg id="Capa_1" enable-background="new 0 0 512.6 512.6" height="512" viewBox="0 0 512.6 512.6" width="512" xmlns="http://www.w3.org/2000/svg"><g><path d="m126.158 296.839c19.408 11.926 35.889 19.987 59.342 19.925 23.469.06 39.938-8.004 59.341-19.925l-33.359-57.775h66.719c.596-22.772-.673-41.215-12.421-61.376-11.653-20.259-26.931-30.551-46.901-41.43l-33.379 57.809-33.379-57.808c-19.978 10.881-35.258 21.184-46.903 41.432-11.752 20.172-13.013 38.61-12.419 61.373h66.719zm102.772-117.993c8.501 8.132 14.682 18.772 17.458 30.218h-34.906zm-60.888 105.45 17.458-30.234 17.457 30.234c-11.283 3.26-23.63 3.26-34.915 0zm-36.861-91.574c2.969-5.127 6.643-9.796 10.889-13.875l17.449 30.218h-34.906c1.404-5.723 3.61-11.232 6.568-16.343z"/><path d="m512.6 235.222-141.6-131.414v-28.043h-371v301h34.18c-15.102 44.052 37.771 79.137 72.42 48.505 34.677 30.643 87.519-4.48 72.42-48.505h206.66c-10.595 28.573 11.864 60.436 42.42 60 30.55.438 53.02-31.432 42.419-60h42.08v-141.543zm-141.6-90.485 88.387 82.028h-88.387zm-294.4 262.028c-8.271 0-15-6.729-15-15 .824-19.9 29.179-19.894 30 0 0 8.271-6.729 15-15 15zm75-15c0 8.271-6.729 15-15 15-19.9-.824-19.894-29.179 0-30 8.271 0 15 6.729 15 15zm189.4-45h-311v-241h311zm102.1 45c0 8.271-6.729 15-15 15-19.9-.824-19.894-29.179 0-30 8.272 0 15 6.729 15 15zm-72.1-45v-90h111.6v30h-37v30h37v30z"/></g></svg>