<svg id="Capa_1" enable-background="new 0 0 512 512" height="512" viewBox="0 0 512 512" width="512" xmlns="http://www.w3.org/2000/svg"><path d="m402.276 361.498 8.931-35.72c7.301-29.197 3.908-60.103-9.552-87.023-6.642-13.282-10.152-28.152-10.152-43.004v-195.751h-120.373v195.752c0 19.366 4.551 38.758 13.162 56.103l.158.319c10.258 20.517 12.843 44.071 7.28 66.324l-10.75 43h-9.982v-34.066c0-33.152-26.971-60.124-60.123-60.124h-60.377c-16.61 0-30.124-13.514-30.124-30.124v-30.126h-90.25v30.126c0 33.152 26.972 60.124 60.124 60.124h60.377c16.61 0 30.124 13.513 30.124 30.124v34.066h-180.749v111.591l38.912 38.911h434.176l38.912-38.912v-111.59zm-312.027-94.19c-16.61 0-30.124-13.514-30.124-30.124v-.126h30.25v.126c0 10.969 2.952 21.261 8.104 30.124zm271.254-237.308v90.5h-60.373v-90.5zm-50.063 209.072-.159-.319c-6.641-13.282-10.151-28.151-10.151-43.001v-45.252h60.373v45.25c0 19.486 4.606 38.996 13.32 56.421 10.259 20.519 12.844 44.075 7.28 66.33l-10.75 42.997h-59.45l8.931-35.724c7.27-29.081 3.933-59.858-9.394-86.702zm-108.794 58.236h8.23c16.61 0 30.123 13.513 30.123 30.124v34.066h-30.249v-34.066c0-10.97-2.952-21.261-8.104-30.124zm279.354 94.19v30.251h-452v-30.251zm-21.338 90.502h-409.324l-21.338-21.338v-8.913h452v8.913z"/></svg>