<svg id="Capa_1" enable-background="new 0 0 512 512" height="512" viewBox="0 0 512 512" width="512" xmlns="http://www.w3.org/2000/svg"><g><path d="m512 166c0-24.813-20.187-45-45-45h-105v150h-362v120h32.58c6.192 17.459 22.865 30 42.42 30s36.228-12.541 42.42-30h5.16c6.192 17.459 22.865 30 42.42 30s36.228-12.541 42.42-30h187.16c6.192 17.459 22.865 30 42.42 30s36.228-12.541 42.42-30h32.58zm-30 0v45h-30v-60h15c8.271 0 15 6.729 15 15zm-407 225c-8.271 0-15-6.729-15-15s6.729-15 15-15 15 6.729 15 15-6.729 15-15 15zm90 0c-8.271 0-15-6.729-15-15s6.729-15 15-15 15 6.729 15 15-6.729 15-15 15zm197-30h-154.58c-6.192-17.459-22.865-30-42.42-30s-36.228 12.541-42.42 30h-5.16c-6.192-17.459-22.865-30-42.42-30s-36.228 12.541-42.42 30h-2.58v-60h332zm75 30c-8.271 0-15-6.729-15-15s6.729-15 15-15 15 6.729 15 15-6.729 15-15 15zm42.42-30c-6.192-17.459-22.865-30-42.42-30s-36.228 12.541-42.42 30h-2.58c0-5.417 0-199.573 0-210h30v90h60v120z"/><path d="m45 241c24.813 0 45-20.187 45-45h-30c0 8.271-6.729 15-15 15s-15-6.729-15-15v-60c0-8.271 6.729-15 15-15s15 6.729 15 15h30c0-24.813-20.187-45-45-45s-45 20.187-45 45v60c0 24.813 20.187 45 45 45z"/><path d="m165 241c24.813 0 45-20.187 45-45v-60c0-24.813-20.187-45-45-45s-45 20.187-45 45v60c0 24.813 20.187 45 45 45zm-15-105c0-8.271 6.729-15 15-15s15 6.729 15 15v60c0 8.271-6.729 15-15 15s-15-6.729-15-15z"/><path d="m330 196v-60c0-24.813-20.187-45-45-45h-45v150h45c24.813 0 45-20.187 45-45zm-60-75h15c8.271 0 15 6.729 15 15v60c0 8.271-6.729 15-15 15h-15z"/></g></svg>