<?xml version="1.0" encoding="iso-8859-1"?>
<!-- Generator: Adobe Illustrator 19.0.0, SVG Export Plug-In . SVG Version: 6.00 Build 0)  -->
<svg xmlns="http://www.w3.org/2000/svg" xmlns:xlink="http://www.w3.org/1999/xlink" version="1.1" id="Layer_1" x="0px" y="0px" viewBox="0 0 512 512" style="enable-background:new 0 0 512 512;" xml:space="preserve">
<g>
	<g>
		<path d="M381.023,107.163V35.721H130.977v71.442H0v369.116h512V107.163H381.023z M166.698,71.442h178.605v35.721H166.698V71.442z     M476.279,440.558H35.721V142.884h95.256h250.047h95.256V440.558z"/>
	</g>
</g>
<g>
	<g>
		<path d="M148.837,178.605c-36.11,0-65.488,29.378-65.488,65.488s29.378,65.488,65.488,65.488s65.488-29.378,65.488-65.488    S184.948,178.605,148.837,178.605z M148.837,273.861c-16.414,0-29.767-13.354-29.767-29.767s13.354-29.767,29.767-29.767    s29.767,13.354,29.767,29.767S165.251,273.861,148.837,273.861z"/>
	</g>
</g>
<g>
	<g>
		<path d="M148.837,321.488c-36.11,0-65.488,29.378-65.488,65.488v29.767h130.977v-29.767    C214.326,350.866,184.948,321.488,148.837,321.488z M119.667,381.023c2.766-13.57,14.794-23.814,29.17-23.814    s26.404,10.244,29.17,23.814H119.667z"/>
	</g>
</g>
<g>
	<g>
		<rect x="256" y="202.419" width="166.698" height="35.721"/>
	</g>
</g>
<g>
	<g>
		<rect x="256" y="273.861" width="166.698" height="35.721"/>
	</g>
</g>
<g>
	<g>
		<rect x="256" y="345.302" width="119.07" height="35.721"/>
	</g>
</g>
<g>
</g>
<g>
</g>
<g>
</g>
<g>
</g>
<g>
</g>
<g>
</g>
<g>
</g>
<g>
</g>
<g>
</g>
<g>
</g>
<g>
</g>
<g>
</g>
<g>
</g>
<g>
</g>
<g>
</g>
</svg>
