<svg id="Layer_1" enable-background="new 0 0 511.977 511.977" height="512" viewBox="0 0 511.977 511.977" width="512" xmlns="http://www.w3.org/2000/svg"><g><g><path d="m255.988 511.976c-68.377 0-132.661-26.627-181.011-74.977s-74.977-112.634-74.977-181.011 26.628-132.661 74.978-181.01 112.633-74.978 181.01-74.978 132.661 26.627 181.011 74.977 74.978 112.634 74.978 181.011-26.628 132.661-74.978 181.011-112.634 74.977-181.011 74.977zm0-481.976c-60.363 0-117.114 23.507-159.798 66.19s-66.19 99.435-66.19 159.798 23.507 117.114 66.19 159.797 99.435 66.19 159.798 66.19 117.114-23.507 159.798-66.19 66.19-99.434 66.19-159.797-23.507-117.114-66.19-159.797-99.434-66.191-159.798-66.191z"/></g><g><path d="m255.988 452.957c-108.608 0-196.968-88.359-196.968-196.968 0-41.447 12.735-81.106 36.828-114.692l10.3-14.358 278.891 278.89-14.358 10.3c-33.586 24.092-73.246 36.828-114.693 36.828zm-145.386-279.14c-14.166 24.964-21.581 53.045-21.581 82.171 0 92.066 74.901 166.968 166.968 166.968 29.126 0 57.207-7.416 82.171-21.582z"/></g><g><path d="m405.828 385.039-278.891-278.89 14.358-10.3c33.586-24.093 73.246-36.828 114.692-36.828 108.608 0 196.968 88.359 196.968 196.968 0 41.447-12.735 81.106-36.828 114.692zm-232.011-274.437 227.558 227.558c14.166-24.964 21.581-53.045 21.581-82.171 0-92.066-74.901-166.968-166.968-166.968-29.126-.001-57.207 7.415-82.171 21.581z"/></g></g></svg>