<svg id="Capa_1" enable-background="new 0 0 512 512" height="512" viewBox="0 0 512 512" width="512" xmlns="http://www.w3.org/2000/svg"><g id="XMLID_191_"><g id="XMLID_32_"><path id="XMLID_1481_" d="m256.018 330.069-78.117-78.965c-20.571-20.795-23.292-53.256-6.47-77.186 18.605-26.465 54.552-33.58 81.835-16.198l2.751 1.753 2.751-1.753c27.282-17.383 63.23-10.267 81.835 16.198 16.822 23.93 14.102 56.391-6.47 77.186zm-35.194-151.825c-9.566 0-18.944 4.525-24.85 12.926-8.464 12.04-7.095 28.372 3.255 38.835l56.79 57.406 56.789-57.407c10.351-10.462 11.719-26.794 3.255-38.834-9.361-13.315-27.445-16.896-41.173-8.149l-18.871 12.021-18.871-12.021c-5.067-3.228-10.728-4.777-16.324-4.777z"/></g><g id="XMLID_29_"><path id="XMLID_1478_" d="m256.018 383.768c-87.133 0-158.021-70.888-158.021-158.021s70.888-158.022 158.021-158.022 158.021 70.888 158.021 158.021-70.888 158.022-158.021 158.022zm0-286.043c-70.591 0-128.021 57.43-128.021 128.021s57.43 128.021 128.021 128.021 128.021-57.43 128.021-128.021c0-70.59-57.43-128.021-128.021-128.021z"/></g><g id="XMLID_33_"><path id="XMLID_1475_" d="m255.896 508.793-66.163-70.921-189.733.322v-434.987h512v434.987l-188.665-.321zm-53.144-100.943 53.353 57.188 54.381-57.188 171.514.293v-374.936h-452v374.936z"/></g></g></svg>