<?xml version="1.0" encoding="iso-8859-1"?>
<!-- Generator: Adobe Illustrator 19.0.0, SVG Export Plug-In . SVG Version: 6.00 Build 0)  -->
<svg xmlns="http://www.w3.org/2000/svg" xmlns:xlink="http://www.w3.org/1999/xlink" version="1.1" id="Layer_1" x="0px" y="0px" viewBox="0 0 512.001 512.001" style="enable-background:new 0 0 512.001 512.001;" xml:space="preserve">
<g>
	<g>
		<path d="M472.23,87.179c-13.548-39.329-41.227-68.27-75.937-79.401c-65.459-20.993-119.362,5.734-140.291,18.815    C235.072,13.511,181.17-13.215,115.709,7.778c-34.727,11.135-62.41,40.094-75.953,79.448    c-17.787,51.69-8.834,111.304,23.951,159.472c1.743,2.56,3.51,5.262,5.251,8.03l4.409,7.006h365.284l4.408-7.015    c1.764-2.807,3.548-5.54,5.306-8.125l0.001-0.001C481.103,198.429,490.024,138.835,472.23,87.179z M423.574,229.739    c-0.452,0.664-0.904,1.337-1.357,2.017H89.788c-0.434-0.65-0.867-1.291-1.299-1.927c-27.492-40.391-35.113-90.053-20.386-132.847    c10.436-30.328,31.124-52.436,56.76-60.656c27.976-8.971,56.83-8.401,85.755,1.697c22.119,7.722,36.004,18.41,36.103,18.487    L256,63.823l9.278-7.314c0.535-0.421,54.224-41.869,121.858-20.184c25.624,8.217,46.307,30.312,56.748,60.618    C458.617,139.709,451.023,189.353,423.574,229.739z"/>
	</g>
</g>
<g>
	<g>
		<path d="M86.479,293.335l14.458,22.972c15.343,24.381,25.064,50.494,28.894,77.616c0.24,1.702,0.475,3.442,0.704,5.219    c9.282,72.011,28.102,109.935,55.939,112.717c16.759,1.675,30.419-11.592,40.622-39.43c6.822-18.614,12.195-43.506,15.13-70.094    c1.977-17.911,6.75-27.806,10.408-32.954c1.072-1.509,2.571-1.734,3.37-1.734c0.798,0,2.297,0.226,3.37,1.735    c3.656,5.146,8.43,15.039,10.408,32.953c2.934,26.586,8.307,51.48,15.13,70.094c9.632,26.277,22.348,39.571,37.831,39.571    c0.919,0,1.851-0.047,2.79-0.141c27.836-2.783,46.657-40.706,55.94-112.717c0.221-1.713,0.447-3.39,0.678-5.032    c3.82-27.153,13.555-53.332,28.935-77.812l14.427-22.963H86.479z M352.462,389.93c-0.247,1.755-0.489,3.547-0.724,5.378    c-8.444,65.511-23.076,83.825-28.194,86.393c-6.009-5.113-18.507-33.192-23.965-82.655c-2.154-19.512-7.459-35.335-15.767-47.027    c-6.383-8.986-16.779-14.35-27.808-14.35c-11.029,0-21.424,5.364-27.808,14.35c-8.308,11.694-13.613,27.516-15.767,47.027    c-5.459,49.467-17.957,77.544-23.965,82.656c-5.117-2.567-19.75-20.88-28.194-86.395c-0.245-1.899-0.497-3.758-0.752-5.575    c-3.236-22.922-10.084-45.172-20.421-66.42h233.836C362.557,344.644,355.694,366.959,352.462,389.93z"/>
	</g>
</g>
<g>
</g>
<g>
</g>
<g>
</g>
<g>
</g>
<g>
</g>
<g>
</g>
<g>
</g>
<g>
</g>
<g>
</g>
<g>
</g>
<g>
</g>
<g>
</g>
<g>
</g>
<g>
</g>
<g>
</g>
</svg>
