<svg id="Capa_1" enable-background="new 0 0 512 512" height="512" viewBox="0 0 512 512" width="512" xmlns="http://www.w3.org/2000/svg"><g><path d="m493.31 430.49c-9.55-6.89-16.132-16.549-18.532-27.199l-42.215-187.248c-8.888-39.431-31.178-75.227-62.763-100.796-20.399-16.514-44.183-28.298-69.429-34.692.693-1.097 1.353-2.222 1.97-3.38l41.157-77.175h-174.996l41.157 77.176c.617 1.157 1.277 2.283 1.97 3.38-25.246 6.394-49.03 18.178-69.429 34.692-31.585 25.569-53.875 61.365-62.763 100.795l-42.214 187.249c-2.4 10.649-8.982 20.308-18.532 27.198-12.102 8.73-19.082 22.848-18.673 37.765.661 24.12 21.12 43.745 45.606 43.745h420.752c24.486 0 44.945-19.625 45.606-43.746.41-14.917-6.571-29.034-18.672-37.764zm-257.18-367.43-17.63-33.06h75l-17.63 33.06c-3.928 7.365-11.541 11.94-19.87 11.94s-15.942-4.575-19.87-11.94zm230.246 418.94h-420.752c-8.392 0-15.397-6.535-15.618-14.568-.137-4.982 2.195-9.697 6.237-12.613 15.492-11.177 26.233-27.134 30.245-44.93l42.215-187.249c12.015-53.304 52.517-95.178 103.07-110.903-.5 2.68-.774 5.44-.774 8.263v225h30v-225c0-8.271 6.729-15 15-15s15 6.729 15 15v225h30v-225c0-2.823-.274-5.583-.774-8.263 50.554 15.725 91.055 57.599 103.07 110.904l42.215 187.248c4.012 17.797 14.753 33.753 30.245 44.931 4.042 2.916 6.374 7.63 6.237 12.612-.219 8.033-7.224 14.568-15.616 14.568z"/></g></svg>