<svg id="Capa_1" enable-background="new 0 0 512 512" height="512" viewBox="0 0 512 512" width="512" xmlns="http://www.w3.org/2000/svg"><g><path d="m0 0v512h512v-512zm482 482h-452v-452h452z"/><path d="m256 451c107.523 0 195-87.477 195-195s-87.477-195-195-195-195 87.477-195 195 87.477 195 195 195zm0-240c24.813 0 45 20.187 45 45s-20.187 45-45 45-45-20.187-45-45 20.187-45 45-45zm-41.33 107.542c7.869 5.218 16.768 9 26.33 10.948v30.433c-17.763-2.552-34.106-9.56-47.85-19.862zm56.33 10.949c9.562-1.949 18.46-5.731 26.33-10.948l21.52 21.52c-13.743 10.301-30.086 17.309-47.849 19.862v-30.434zm47.543-32.162c5.217-7.869 9-16.768 10.948-26.329h30.433c-2.552 17.763-9.56 34.106-19.861 47.849zm10.948-56.329c-1.948-9.561-5.731-18.46-10.948-26.329l21.52-21.52c10.301 13.743 17.309 30.086 19.861 47.849zm-32.161-47.542c-7.869-5.218-16.768-9-26.33-10.948v-30.433c17.763 2.552 34.106 9.56 47.849 19.862zm-56.33-10.949c-9.562 1.949-18.46 5.731-26.33 10.948l-21.52-21.52c13.743-10.301 30.086-17.31 47.849-19.862v30.434zm-47.543 32.162c-5.217 7.869-9 16.768-10.948 26.329h-30.433c2.552-17.763 9.56-34.106 19.861-47.849zm-10.948 56.329c1.948 9.561 5.731 18.46 10.948 26.329l-21.52 21.52c-10.301-13.743-17.309-30.086-19.861-47.849zm-10.725 90.429c19.424 15.547 43.216 25.846 69.216 28.733v30.149c-34.25-3.102-65.512-16.707-90.527-37.571zm99.216 28.733c26-2.888 49.792-13.186 69.216-28.733l21.311 21.311c-25.015 20.863-56.277 34.469-90.527 37.571zm90.429-49.946c15.547-19.424 25.846-43.216 28.733-69.216h30.149c-3.102 34.25-16.707 65.512-37.571 90.527zm28.733-99.216c-2.887-26-13.186-49.792-28.733-69.216l21.311-21.311c20.864 25.015 34.469 56.277 37.571 90.527zm-49.946-90.429c-19.424-15.547-43.216-25.846-69.216-28.733v-30.149c34.25 3.102 65.512 16.707 90.527 37.571zm-99.216-28.733c-26 2.888-49.792 13.186-69.216 28.733l-21.311-21.311c25.015-20.864 56.277-34.469 90.527-37.571zm-90.429 49.946c-15.547 19.424-25.846 43.216-28.733 69.216h-30.149c3.102-34.25 16.707-65.512 37.571-90.527zm-28.733 99.216c2.887 26 13.186 49.792 28.733 69.216l-21.311 21.311c-20.864-25.015-34.469-56.277-37.571-90.527z"/><path d="m61 421h30v30h-30z"/><path d="m61 61h30v30h-30z"/><path d="m421 61h30v30h-30z"/><path d="m421 421h30v30h-30z"/></g></svg>