<svg id="Capa_1" enable-background="new 0 0 512 512" height="512" viewBox="0 0 512 512" width="512" xmlns="http://www.w3.org/2000/svg"><g><path d="m301.748 211.364c-12.127-12.239-28.291-19.017-45.511-19.086-.089 0-.177 0-.266 0-17.121 0-33.234 6.643-45.397 18.72-25.235 25.061-25.399 66.002-.366 91.265 12.128 12.239 28.292 19.017 45.512 19.086h.266c17.121 0 33.234-6.643 45.397-18.72 25.235-25.061 25.399-66.003.365-91.265zm-21.489 69.957c-6.504 6.459-15.12 10.011-24.276 10.011h-.142c-9.208-.037-17.852-3.662-24.338-10.207-13.391-13.513-13.303-35.414.196-48.819 6.504-6.459 15.12-10.011 24.275-10.011h.143c9.208.037 17.851 3.662 24.337 10.207 13.391 13.513 13.303 35.413-.195 48.819z"/><path d="m263.04 319.166h140.02v30.005h-140.02z" transform="matrix(.708 -.706 .706 .708 -138.742 332.508)"/><path d="m108.446 164.002h140.021v30.005h-140.021z" transform="matrix(.708 -.706 .706 .708 -74.306 178.151)"/><path d="m144.795 317.673h30.005v69.032h-30.005z" transform="matrix(.709 -.705 .705 .709 -201.788 214.973)"/><path d="m337.6 126.128h30.004v69.033h-30.004z" transform="matrix(.709 -.705 .705 .709 -10.755 295.206)"/><path d="m512 175.891-175.246-175.891-61.687 61.568-42.332-42.488-213.596 213.188 42.331 42.488-61.47 61.352 175.245 175.892 61.47-61.353 43.124 43.284 213.598-213.188-43.125-43.284zm-60.975 104.793-171.125 170.796-43.124-43.284-61.472 61.353-132.891-133.381 61.47-61.352-42.331-42.488 171.125-170.796 42.331 42.487 61.687-61.568 132.892 133.38-61.687 61.569z"/></g></svg>