<svg id="Capa_1" enable-background="new 0 0 512 512" height="512" viewBox="0 0 512 512" width="512" xmlns="http://www.w3.org/2000/svg"><path d="m481.875 273.705v-153.205h-90.02c10.325-18.182 29.855-30.482 52.216-30.482v-30c-31.549.726-60.728-27.477-60.017-60.018h-30c.726 31.55-27.479 60.728-60.019 60.018v30c22.361 0 41.892 12.301 52.217 30.482h-133.194c-30.806-2.507-55.112-28.36-55.112-59.801h-30c0 31.441-24.306 57.294-55.111 59.801h-42.71v153.205h-30.125v238.295h90.25v-30.125h331.5v30.125h90.25v-238.295zm-30 0h-30.25v-92.955h-150.5v92.955h-30.25v-92.955h-74.868c10.39-17.934 29.781-30.033 51.958-30.033v-.217h233.91zm-60.25 0h-90.5v-62.955h90.5zm-271.25-62.955h90.5v62.955h-90.5zm248.678-160.95c5.919 8.889 14.901 18.402 25.271 25.252-10.01 6.663-18.614 15.274-25.271 25.288-6.656-10.015-15.261-18.626-25.271-25.289 10.37-6.849 19.352-16.362 25.271-25.251zm-226.107 60.595c6.668 10.032 15.29 18.655 25.322 25.322-10.032 6.667-18.654 15.29-25.322 25.322-6.667-10.032-15.29-18.654-25.322-25.322 10.032-6.667 18.655-15.29 25.322-25.322zm-82.821 40.105h7.804v.217c22.176 0 41.566 12.099 51.957 30.033h-29.511v92.955h-30.25zm.125 331.5h-30.25v-90.5h30.25zm30-30.125v-60.375h331.5v60.375zm391.75 30.125h-30.25v-90.5h30.25zm-452-120.5v-57.796h452v57.796z"/></svg>