<svg id="Capa_1" enable-background="new 0 0 512 512" height="512" viewBox="0 0 512 512" width="512" xmlns="http://www.w3.org/2000/svg"><g><path d="m461.446 122.906c-13.651-9.15-27.362-13.624-37.257-15.813v-32.093h30v-30h-396.378v30h30v32.093c-9.895 2.189-23.606 6.663-37.257 15.813-41.783 28.006-50.554 76.475-50.554 112.205 0 51.244 28.325 97.271 81.914 133.104 27.182 18.176 54.14 29.298 68.589 34.549v64.236h210.994v-64.236c14.449-5.252 41.406-16.373 68.589-34.549 53.589-35.833 81.914-81.86 81.914-133.104 0-35.73-8.771-84.199-50.554-112.205zm-67.257-47.906v30h-276.378v-30zm-327.989 73.547c17.362-12.076 35.346-13.448 36.94-13.547h305.682c1.921.123 19.755 1.569 36.978 13.547 6.559 4.562 12.228 10.056 17.014 16.453h-413.628c4.786-6.397 10.455-11.891 17.014-16.453zm114.303 288.453v-30h150.994v30zm233.5-94.121c-30.634 20.612-61.855 31.524-69.814 34.121h-176.376c-7.981-2.604-39.192-13.517-69.815-34.121-13.085-8.804-24.286-18.107-33.614-27.879h383.232c-9.328 9.772-20.529 19.075-33.613 27.879zm-270.503-57.879h-45v-30h45zm135 0h-45v-30h45zm135 0h-45v-30h45zm56.056 0h-26.056v-60h-105v60h-30v-60h-105v60h-30v-60h-105v60h-26.056c-8.269-15.689-12.444-32.343-12.444-49.889 0-14.95 1.647-28.329 4.912-40.111h442.177c3.264 11.782 4.912 25.161 4.912 40.111-.001 17.546-4.176 34.2-12.445 49.889z"/></g></svg>