<svg id="Capa_1" enable-background="new 0 0 512 512" height="512" viewBox="0 0 512 512" width="512" xmlns="http://www.w3.org/2000/svg"><g><path d="m482 183.713v-73.713c0-24.813-20.187-45-45-45h-151c-11.517 0-22.032 4.354-30 11.495-7.968-7.141-18.483-11.495-30-11.495h-151c-24.813 0-45 20.187-45 45v73.713c-17.459 6.192-30 22.865-30 42.42v141c0 19.555 12.541 36.228 30 42.42v37.447h30v-34.867h392v34.867h30v-37.447c17.459-6.192 30-22.865 30-42.42v-141c0-19.555-12.541-36.228-30-42.42zm-196-88.713h151c8.271 0 15 6.729 15 15v73.713c-17.459 6.192-30 22.865-30 42.42v12.781c-4.695-1.665-9.741-2.58-15-2.58h-121c-5.259 0-10.305.915-15 2.58v-128.914c0-8.271 6.729-15 15-15zm136 186.333c0 8.271-6.729 15-15 15h-121c-8.271 0-15-6.729-15-15s6.729-15 15-15h121c8.271 0 15 6.73 15 15zm-347-186.333h151c8.271 0 15 6.729 15 15v128.914c-4.695-1.665-9.741-2.58-15-2.58h-121c-5.259 0-10.305.915-15 2.58v-12.781c0-19.555-12.541-36.228-30-42.42v-73.713c0-8.271 6.729-15 15-15zm166 186.333c0 8.271-6.729 15-15 15h-121c-8.271 0-15-6.729-15-15s6.729-15 15-15h121c8.271 0 15 6.73 15 15zm241 85.8c0 8.271-6.729 15-15 15h-422c-8.271 0-15-6.729-15-15v-141c0-8.271 6.729-15 15-15s15 6.729 15 15v55.201c0 24.813 20.187 45 45 45h121c11.517 0 22.032-4.354 30-11.495 7.968 7.141 18.483 11.495 30 11.495h121c24.813 0 45-20.187 45-45v-55.201c0-8.271 6.729-15 15-15s15 6.729 15 15z"/></g></svg>