<svg id="Capa_1" enable-background="new 0 0 512 512" height="512" viewBox="0 0 512 512" width="512" xmlns="http://www.w3.org/2000/svg"><path id="XMLID_671_" d="m306.017 130.045v-70.748h44.107l26.648 17.719 16.611-24.981-34.195-22.738h-53.172v-29.297h-108.335v130.045c-46.54 20.749-79.065 67.448-79.065 121.606v260.349h266.466v-260.349c0-54.158-32.525-100.857-79.065-121.606zm-78.336-100.045h48.336v28.768h-48.336zm0 58.768h48.336v31.988c-7.789-1.425-15.811-2.174-24.005-2.174h-.327c-8.194 0-16.216.749-24.004 2.174zm24.004 59.814h.327c50.728 0 93.011 36.839 101.51 85.168-3.476.94-6.278 2.075-8.796 3.098-4.298 1.747-7.138 2.901-14.06 2.901-6.921 0-9.761-1.154-14.059-2.901-5.601-2.276-12.569-5.109-25.355-5.109-12.785 0-19.754 2.833-25.354 5.11-4.297 1.747-7.135 2.901-14.055 2.901s-9.759-1.154-14.056-2.901c-5.6-2.277-12.569-5.11-25.354-5.11s-19.754 2.833-25.354 5.11c-4.297 1.747-7.135 2.901-14.055 2.901s-9.758-1.154-14.055-2.901c-2.518-1.024-5.319-2.158-8.794-3.098 8.499-48.331 50.782-85.169 101.51-85.169zm58.659 194.559c-6.687-26.062-30.376-45.382-58.495-45.382s-51.808 19.32-58.495 45.382h-44.738v-78.119c5.446 2.199 12.331 4.727 24.408 4.727 12.785 0 19.753-2.833 25.353-5.11 4.297-1.747 7.136-2.901 14.056-2.901s9.759 1.154 14.056 2.901c5.6 2.277 12.569 5.11 25.354 5.11s19.753-2.833 25.354-5.11c4.297-1.747 7.136-2.901 14.056-2.901 6.921 0 9.761 1.154 14.059 2.901 5.601 2.276 12.569 5.109 25.355 5.109 12.081 0 18.968-2.529 24.415-4.728v78.12h-44.738zm-28.113 15c0 16.753-13.63 30.382-30.382 30.382-16.753 0-30.382-13.629-30.382-30.382s13.629-30.382 30.382-30.382c16.752 0 30.382 13.629 30.382 30.382zm-133.615 123.859v-108.859h44.738c6.687 26.062 30.376 45.382 58.495 45.382s51.808-19.32 58.495-45.382h44.738v108.859z"/></svg>