<?xml version="1.0" encoding="iso-8859-1"?>
<!-- Generator: Adobe Illustrator 19.0.0, SVG Export Plug-In . SVG Version: 6.00 Build 0)  -->
<svg xmlns="http://www.w3.org/2000/svg" xmlns:xlink="http://www.w3.org/1999/xlink" version="1.1" id="Layer_1" x="0px" y="0px" viewBox="0 0 512 512" style="enable-background:new 0 0 512 512;" xml:space="preserve">
<g>
	<g>
		<path d="M258.56,85.572l-0.225-0.074l-2.467,0.007c-0.107,0-0.215,0.001-0.323,0.002l-1.93,0.008l-0.167,0.056    c-26.387,1.342-47.464,23.264-47.464,49.955c0,26.801,20.994,48.726,47.794,49.912l0.786,0.023    c0.475,0.016,0.951,0.028,1.434,0.028c0.479,0,0.955-0.013,1.43-0.028l0.789-0.023c26.8-1.187,47.794-23.111,47.794-49.913    C306.011,108.852,284.961,86.942,258.56,85.572z M257.031,155.462c-0.189,0.005-0.378,0.011-0.567,0.017    c-0.312,0.01-0.625,0.01-0.933,0c-0.189-0.006-0.378-0.012-0.567-0.017c-10.655-0.545-18.979-9.274-18.979-19.936    c-0.001-10.843,8.69-19.719,19.433-20.013c0.193,0.007,0.386,0.011,0.579,0.011l0.783-0.003c10.67,0.422,19.23,9.245,19.23,20.005    C276.01,146.187,267.685,154.917,257.031,155.462z"/>
	</g>
</g>
<g>
	<g>
		<path d="M259.818,326.65l-0.32-0.163l-3.637,0.013c-0.104,0-0.208,0.001-0.312,0.002l-3.091,0.013l-0.259,0.131    c-25.798,1.969-46.215,23.623-46.215,49.885c0,26.802,20.994,48.727,47.794,49.913l0.786,0.023    c0.475,0.016,0.951,0.028,1.434,0.028c0.479,0,0.955-0.013,1.43-0.028l0.789-0.023c26.8-1.187,47.794-23.111,47.794-49.913    C306.011,350.29,285.63,328.65,259.818,326.65z M257.03,396.466c-0.189,0.005-0.377,0.011-0.566,0.017    c-0.312,0.01-0.625,0.01-0.933,0c-0.189-0.006-0.377-0.012-0.566-0.017c-10.655-0.545-18.98-9.274-18.98-19.936    c0-10.8,8.628-19.653,19.311-20.019c0.234,0.011,0.469,0.017,0.703,0.017l0.968-0.004c10.584,0.524,19.045,9.311,19.045,20.006    C276.011,387.191,267.685,395.921,257.03,396.466z"/>
	</g>
</g>
<g>
	<g>
		<path d="M437.02,74.98C388.667,26.629,324.38,0,256,0S123.333,26.629,74.98,74.98C26.629,123.333,0,187.62,0,256    s26.629,132.667,74.98,181.02c48.347,48.346,112.625,74.974,180.997,74.98c0.007,0,0.014,0,0.02,0h0.001H256    c68.38,0,132.667-26.629,181.02-74.98C485.371,388.667,512,324.38,512,256S485.371,123.333,437.02,74.98z M96.195,415.806    C53.508,373.12,30,316.367,30,256S53.508,138.88,96.194,96.194C138.88,53.508,195.633,30,256,30c1.659,0,3.314,0.025,4.967,0.061    l-0.003,0.071c56.417,2.622,100.61,48.872,100.61,105.292c0,58.067-47.245,105.427-105.28,105.571    c-0.106,0-0.209,0.001-0.308,0.003c-0.103-0.002-0.211-0.003-0.322-0.003c-74.573,0.188-135.242,61.009-135.242,135.581    c0,27.214,8.046,53.319,22.979,75.473C126.353,442.221,110.483,430.094,96.195,415.806z M415.806,415.806    c-41.493,41.493-96.279,64.859-154.754,66.133l-0.002-0.074c-0.765,0.017-1.528,0.042-2.291,0.068    c-1.837,0.064-3.688,0.064-5.524,0c-0.701-0.024-1.402-0.048-2.105-0.064c-56.485-2.575-100.709-48.793-100.709-105.292    c0-57.923,47-105.192,104.831-105.579c0.479,0.022,1.11,0.021,1.576-0.004c74.348-0.452,134.746-61.165,134.746-135.569    c0-27.895-8.414-53.849-22.888-75.423c17.015,9.82,32.857,21.929,47.12,36.193C458.492,138.88,482,195.633,482,256    S458.492,373.12,415.806,415.806z"/>
	</g>
</g>
<g>
</g>
<g>
</g>
<g>
</g>
<g>
</g>
<g>
</g>
<g>
</g>
<g>
</g>
<g>
</g>
<g>
</g>
<g>
</g>
<g>
</g>
<g>
</g>
<g>
</g>
<g>
</g>
<g>
</g>
</svg>
