<svg id="Layer_1" enable-background="new 0 0 512 512" height="512" viewBox="0 0 512 512" width="512" xmlns="http://www.w3.org/2000/svg"><g><path d="m512 369h-17.324l-17.112-26.49c-19.183-29.695-49.984-48.995-84.42-53.555l52.697-162.771-95.479 16.551-94.362-110.823-94.361 110.823-95.479-16.551 52.697 162.771c-34.436 4.56-65.237 23.86-84.42 53.555l-17.113 26.49h-17.324v30h17.324l17.112 26.49c22.086 34.188 59.57 54.598 100.271 54.598h242.588c40.7 0 78.185-20.41 100.271-54.598l17.11-26.49h17.324zm-361.949-81.087-11.224-34.67h234.347l-11.224 34.67zm23.332-112.694 82.617-97.031 82.617 97.031 63.372-10.985-19.104 59.01h-253.77l-19.104-59.01zm-113.748 183.571c16.535-25.596 44.599-40.877 75.071-40.877h242.588c30.473 0 58.536 15.281 75.071 40.876l6.596 10.211h-405.922zm392.73 50.421c-16.535 25.596-44.6 40.877-75.071 40.877h-242.588c-30.472 0-58.536-15.281-75.071-40.876l-6.596-10.212h405.923z"/><path d="m241 160.884h30v30.002h-30z"/></g></svg>