<svg id="Capa_1" enable-background="new 0 0 512 512" height="512" viewBox="0 0 512 512" width="512" xmlns="http://www.w3.org/2000/svg"><g><path d="m60.25 266.49h210.75v30h-210.75z"/><path d="m60.25 326.741h120.5v30h-120.5z"/><path d="m512 160.986c0-74.715-60.785-135.5-135.5-135.5-48.862 0-91.761 26-115.603 64.888h-200.647v55.617h-60.25v271h60.25v69.524l139.041-69.524h192.209v-55.617h60.25v-87.759c36.303-24.336 60.25-65.737 60.25-112.629zm-135.5-105.5c58.173 0 105.5 47.327 105.5 105.5s-47.327 105.5-105.5 105.5-105.5-47.327-105.5-105.5 47.327-105.5 105.5-105.5zm-286.25 64.888h156.97c-2.591 8.23-4.411 16.798-5.386 25.617h-151.584zm101.959 266.616-101.959 50.982v-50.982h-60.25v-211h211.835c1.161 10.489 3.523 20.619 6.947 30.253l-188.532.001v30l203.627-.001c21.704 32.375 56.983 54.912 97.623 59.408v91.338h-169.291zm229.541-55.617h-30.25v-35.722c10.488-1.16 20.617-3.522 30.25-6.945z"/><path d="m376.5 206.236c-8.34 0-15.125-6.785-15.125-15.125h-30c0 24.882 20.243 45.125 45.125 45.125s45.125-20.243 45.125-45.125c0-11.566-4.375-22.131-11.556-30.125 7.181-7.994 11.556-18.559 11.556-30.125 0-24.882-20.243-45.125-45.125-45.125s-45.125 20.243-45.125 45.125h30c0-8.34 6.785-15.125 15.125-15.125s15.125 6.785 15.125 15.125-6.785 15.125-15.125 15.125h-14.125v30h14.125c8.34 0 15.125 6.785 15.125 15.125s-6.785 15.125-15.125 15.125z"/></g></svg>