<svg id="Capa_1" enable-background="new 0 0 512 512" height="512" viewBox="0 0 512 512" width="512" xmlns="http://www.w3.org/2000/svg"><g><path d="m512 297.372h-53.477v-127.744c0-24.813-20.187-45-45-45h-315.046c-24.813 0-45 20.187-45 45v127.744h-53.477v30h18v15c0 24.813 20.187 45 45 45h386c24.813 0 45-20.187 45-45v-15h18zm-83.477-127.744v127.744h-223.523v-127.744c0-5.258-.915-10.305-2.58-15h32.58v26.162c0 24.813 20.187 45 45 45 5.852 0 11.446-1.123 16.579-3.164 5.21 19.089 22.703 33.164 43.421 33.164 24.813 0 45-20.187 45-45v-56.162h28.523c8.272 0 15 6.729 15 15zm-133.523 11.162c0 8.271-6.729 15-15 15s-15-6.729-15-15v-26.162h90v56.162c0 8.271-6.729 15-15 15s-15-6.729-15-15v-30zm-211.523-11.162c0-8.271 6.729-15 15-15h61.523c8.271 0 15 6.729 15 15v127.744h-91.523zm380.523 172.744c0 8.271-6.729 15-15 15h-386c-8.271 0-15-6.729-15-15v-15h416z"/></g></svg>