<svg id="Capa_1" enable-background="new 0 0 512 512" height="512" viewBox="0 0 512 512" width="512" xmlns="http://www.w3.org/2000/svg"><g><path d="m301.25 60.25h30v30h-30z"/><path d="m322.463 391.5 69.037-69.037v-171.963h60.25v-60.25h60.25v-90.25h-271v150.5h60.25v129.412l-21.338 21.338h-39.037v-120.5h-30.125v-99.708l-90.25-45.125v144.833h-30.25v-75.375h-30v195.875h-60.25v90.25h60.25v30.25h-30.125v90.25h481.875v-90.25h-30.125v-60.25h-30.125v-45.25h-30v45.25h-30.125v60.25h-120.625v-30.25zm129.287-361.5h30.25v30.25h-30.25zm-180.75 0h150.75v90.5h-150.75zm-120.5 54.458 30.25 15.125v81.167h-30.25zm-60.25 126.292h120.5.125v30.25h-26.338v30h26.338v30.25h-120.625zm-60.25 150.75v-30.25h262.338l38.912-38.912v-141.838h30.25v159.537l-51.463 51.463zm391.625 30h30.25v30.25h-30.25zm60.25 60.25h.125v30.25h-421.875v-30.25h.125zm-240.875-30h-150.75v-30.25h150.75z"/></g></svg>