<svg id="Capa_1" enable-background="new 0 0 511.738 511.738" height="512" viewBox="0 0 511.738 511.738" width="512" xmlns="http://www.w3.org/2000/svg"><g><path d="m473.691 37.229c-50.214-49.869-132.175-49.334-182.703 1.194l-3.678 3.678c-43.14 43.139-71.731 100.146-80.509 160.521l-8.753 60.202c-3.234 22.244-13.769 43.247-29.662 59.14l-16.303 16.304c-5.983-2.864-12.578-4.379-19.407-4.379-12.02 0-23.32 4.681-31.819 13.18l-100.857 100.855 63.639 63.64 100.856-100.857c8.5-8.5 13.181-19.8 13.181-31.82 0-6.829-1.515-13.425-4.38-19.408l16.303-16.303c15.894-15.894 36.896-26.427 59.14-29.662l60.202-8.753c60.373-8.777 117.381-37.369 160.521-80.508l4.552-4.552c24.387-24.387 37.784-56.811 37.725-91.3-.06-34.487-13.572-66.866-38.048-91.172zm-330.409 352.265-79.644 79.643-21.213-21.213 79.644-79.644c5.848-5.848 15.365-5.848 21.213 0 2.833 2.833 4.394 6.6 4.394 10.606 0 4.008-1.561 7.775-4.394 10.608zm338.456-261.041c.026 15.027-3.282 29.541-9.57 42.706l-34.063-34.063 38.881-38.881c3.107 9.643 4.734 19.814 4.752 30.238zm-149.698 72.284-21.214-21.214 21.214-21.214 21.214 21.214zm42.427-.001 34.418 34.418c-8.64 5.715-17.624 10.906-26.886 15.541l-28.745-28.745zm-126.228-41.375 20.162 20.162-32.677 32.677.765-5.261c2.358-16.217 6.325-32.158 11.75-47.578zm12.63-29.796c4.634-9.262 9.825-18.246 15.541-26.886l34.418 34.418-21.214 21.214zm51.332-69.929c1.009-1.009 2.037-1.985 3.077-2.942l37.975 37.975-21.214 21.214-37.444-37.444c4.431-5.225 9.076-10.273 13.928-15.125zm41.052 77.46 21.214-21.214 21.214 21.214-21.214 21.214zm42.426-42.426 45.696-45.696c3.906 2.856 7.645 6.034 11.177 9.541 3.682 3.657 7.036 7.555 10.057 11.653l-45.715 45.715zm-12.367-64.519c10.099 0 20.176 1.55 29.861 4.6l-38.706 38.706-33.812-33.812c13.492-6.324 28.091-9.494 42.657-9.494zm-160.628 258.728c2.281-7.083 3.979-14.357 5.053-21.739l.77-5.297 61.107-61.108 21.214 21.214-61.108 61.108-5.297.77c-7.382 1.073-14.655 2.771-21.739 5.052zm81.941-13.805-5.262.765 32.677-32.677 20.162 20.162c-15.419 5.426-31.36 9.393-47.577 11.75zm143.624-72.034c-4.852 4.852-9.9 9.497-15.125 13.928l-37.444-37.444 21.214-21.214 38.007 38.007c-.689.731-1.386 1.457-2.1 2.171z"/></g></svg>