<svg id="Capa_1" enable-background="new 0 0 512 512" height="512" viewBox="0 0 512 512" width="512" xmlns="http://www.w3.org/2000/svg"><g><g><path d="m58.712 498.745c-32.314 0-58.712-26.289-58.712-58.602s26.398-58.602 58.712-58.602 58.602 26.289 58.602 58.602c-.001 32.313-26.289 58.602-58.602 58.602zm0-87.204c-15.771 0-28.603 12.831-28.603 28.602s12.831 28.602 28.603 28.602c15.771 0 28.602-12.831 28.602-28.602s-12.832-28.602-28.602-28.602z"/></g><g><path d="m187.987 371.541c-37.94 0-85.944-18.258-95.25-59.481-31.484-19.562-50.737-53.873-50.737-91.305 0-48.356 32.503-90.629 78.392-103.504 21.795-47.603 80.874-67.744 127.263-43.309 21.124-37.188 61.6-60.687 104.346-60.687 66.264 0 121.78 57.648 119.927 123.772 25.24 20.337 40.072 51.028 40.072 83.728 0 59.276-48.225 107.5-107.5 107.5h-127.674c-14.928 25.934-49.662 43.286-88.839 43.286zm16.513-278.286c-16.018 0-31.633 6.331-43.21 17.377-9.537 9.099-14.313 20.293-18.59 32.448-17.749 3.524-33.75 9.086-47.047 21.978-14.973 14.518-23.653 34.826-23.653 55.697 0 33.596 20.496 57.586 48.842 72.511.922 13.012 3.659 22.944 14.249 31.642 14.496 11.906 34.478 16.633 52.897 16.633 17.835 0 36.892-4.423 51.281-15.4 9.758-7.444 13.485-16.775 17.37-27.885h147.861c42.733 0 77.5-34.767 77.5-77.5 0-30.512-17.274-52.779-41.41-69.185 2.6-25.086-.359-48.601-15.303-69.732-16.67-23.57-44.289-38.584-73.287-38.584-25.7 0-50.672 11.476-67.645 30.728-12.031 13.646-17.615 30.216-23.948 46.884-16.827-13.898-32.586-27.612-55.907-27.612z"/></g></g></svg>