<svg id="Capa_1" enable-background="new 0 0 512 512" height="512" viewBox="0 0 512 512" width="512" xmlns="http://www.w3.org/2000/svg"><g><path d="m496.526 324c-3.583-58.729-28.148-113.448-70.113-155.413-45.519-45.519-106.04-70.587-170.413-70.587s-124.894 25.068-170.413 70.587c-41.964 41.965-66.529 96.683-70.113 155.413h-15.474v90h512v-90zm-110.002-150.67h-261.048c35.938-28.374 81.287-45.33 130.524-45.33s94.587 16.956 130.524 45.33zm-291.986 30h322.924c11.56 13.736 21.405 28.958 29.198 45.34h-381.32c7.793-16.382 17.638-31.604 29.198-45.34zm-40.735 75.34h404.395c4.341 14.521 7.159 29.692 8.263 45.33h-420.921c1.103-15.638 3.922-30.808 8.263-45.33zm428.197 105.33h-452v-30h452z"/></g></svg>