<?xml version="1.0" encoding="iso-8859-1"?>
<!-- Generator: Adobe Illustrator 19.0.0, SVG Export Plug-In . SVG Version: 6.00 Build 0)  -->
<svg xmlns="http://www.w3.org/2000/svg" xmlns:xlink="http://www.w3.org/1999/xlink" version="1.1" id="Layer_1" x="0px" y="0px" viewBox="0 0 512 512" style="enable-background:new 0 0 512 512;" xml:space="preserve">
<g>
	<g>
		<path d="M441.792,97.323v40.068c-12.203,15.756-63.61,76.827-126.986,76.827h-57.778v-34.465h-30.417v34.465h-17.753v-34.465    H178.44v34.465h-17.752v-34.465h-30.417v34.465H30.417v-15.233H0v15.233v72.411v15.233h30.417v-15.233h52.722    c-10.567,13.466-16.893,30.41-16.893,48.815c0,43.689,35.543,79.233,79.233,79.233h96.34c43.688,0,79.232-35.544,79.232-79.233    c0-18.404-6.326-35.35-16.893-48.815h10.648c63.388,0,114.804,61.096,126.986,76.826v40.069H512V97.323H441.792z M130.271,381.82    c-19.49-6.408-33.607-24.77-33.607-46.377s14.117-39.968,33.607-46.376V381.82z M130.271,256.211H30.417v-11.577h99.854V256.211z     M178.44,384.259h-17.753v-97.63h17.753V384.259z M178.44,256.211h-17.753v-11.577h17.753V256.211z M226.611,384.259h-17.754    v-97.63h17.754V384.259z M226.611,256.211h-17.753v-11.577h17.753V256.211z M257.028,381.819v-92.752    c19.49,6.408,33.606,24.769,33.606,46.376S276.518,375.411,257.028,381.819z M441.792,317.572    c-27.159-27.072-72.339-61.361-126.986-61.361h-57.778v-11.577h57.778c54.646,0,99.826-34.288,126.986-61.362V317.572z     M481.583,373.106h-9.374V358.4v-4.786V147.231v-4.786v-14.706h9.374V373.106z"/>
	</g>
</g>
<g>
</g>
<g>
</g>
<g>
</g>
<g>
</g>
<g>
</g>
<g>
</g>
<g>
</g>
<g>
</g>
<g>
</g>
<g>
</g>
<g>
</g>
<g>
</g>
<g>
</g>
<g>
</g>
<g>
</g>
</svg>
