<svg id="Capa_1" enable-background="new 0 0 512 512" height="512" viewBox="0 0 512 512" width="512" xmlns="http://www.w3.org/2000/svg"><g><path d="m480.58 292.884c-1.625-13.693-7.888-25.979-17.159-35.26 11.522-24.114 17.579-50.695 17.579-77.624 0-99.252-80.748-180-180-180h-90c-99.252 0-180 80.748-180 180 0 26.929 6.057 53.51 17.578 77.625-9.271 9.281-15.534 21.566-17.158 35.26-19.793 17.395-31.42 42.003-31.42 67.115 0 21.355 7.859 42.092 22.129 58.39 12.017 13.723 27.883 23.574 45.336 28.282 10.007 20.248 30.544 33.328 53.535 33.328 10.8 0 20.932-2.883 29.696-7.897 30.597 25.814 67.555 39.897 105.304 39.897s74.706-14.083 105.304-39.897c8.763 5.014 18.896 7.897 29.696 7.897 22.991 0 43.528-13.08 53.535-33.328 17.453-4.708 33.319-14.559 45.336-28.282 14.27-16.298 22.129-37.035 22.129-58.39 0-25.112-11.627-49.72-31.42-67.116zm-29.58-112.884c0 21.565-4.657 42.853-13.53 62.301-5.236-1.497-10.761-2.301-16.47-2.301-2.091 0-4.155.117-6.192.327-14.866-53.322-55.263-94.735-106.333-111.811 13.888-13.619 22.525-32.574 22.525-53.516 0-16.516-5.378-31.794-14.459-44.198 75.435 7.801 134.459 71.735 134.459 149.198zm-240-150h45c24.813 0 45 20.187 45 45s-20.187 45-45 45c-74.704 0-139.167 49.732-158.879 120.319-2.014-.205-4.054-.319-6.121-.319-5.71 0-11.234.804-16.47 2.301-8.873-19.448-13.53-40.736-13.53-62.301 0-82.71 67.29-150 150-150zm-118.364 399.126-2.789-8.657-8.966-1.53c-29.007-4.949-50.881-30.287-50.881-58.939 0-33.822 29.461-50.486 31.031-52.216-.008-7.746.019-7.564-.025-8.365.309-16.275 13.645-29.419 29.994-29.419 15.863 0 29.969 12.615 29.969 30.313v7.471c1.9 2.116 30.031 17.226 30.031 52.216 0 18.074-8.761 29.973-10.963 35.212 2.902 4.922 10.963 11.792 10.963 24.788 0 16.542-13.458 30-30 30-12.943 0-24.342-8.389-28.364-20.874zm79.684 21.93c5.506-9.065 8.68-19.697 8.68-31.056 0-9.468-2.237-18.679-6.527-27.065 4.335-10.707 6.527-21.752 6.527-32.935 0-22.488-8.303-43.608-23.208-60h53.208v-30h-68.06c-4.403-7.593-10.425-14.129-17.586-19.15 15.306-59.024 68.666-100.85 130.646-100.85 61.982 0 115.32 41.846 130.583 100.895-7.133 5.014-13.133 11.535-17.523 19.105h-68.06v30h53.209c-14.906 16.392-23.209 37.512-23.209 60 0 11.183 2.192 22.228 6.527 32.935-4.29 8.386-6.527 17.597-6.527 27.065 0 11.359 3.174 21.991 8.68 31.056-24.715 20.041-53.987 30.944-83.68 30.944-29.694 0-58.966-10.903-83.68-30.944zm258.799-32.117-8.966 1.53-2.789 8.657c-4.022 12.485-15.421 20.874-28.364 20.874-16.542 0-30-13.458-30-30 0-12.942 7.99-19.745 10.963-24.788-2.189-5.209-10.963-17.15-10.963-35.212 0-34.846 28.254-50.237 30.031-52.216-.008-7.746.019-7.564-.025-8.365.309-16.275 13.645-29.419 29.994-29.419 15.863 0 29.969 12.615 29.969 30.313v7.471c1.532 1.689 31.031 18.38 31.031 52.216 0 28.652-21.874 53.99-50.881 58.939z"/><path d="m211 390h90v30h-90z"/></g></svg>