<svg id="Capa_1" enable-background="new 0 0 512 512" height="512" viewBox="0 0 512 512" width="512" xmlns="http://www.w3.org/2000/svg"><g><path d="m496.938 105.375c0-58.104-47.272-105.375-105.376-105.375-56.044 0-102.004 43.981-105.192 99.241-19.171-5.757-39.475-8.866-60.496-8.866-116.242 0-210.812 94.57-210.812 210.812s94.571 210.813 210.813 210.813 210.812-94.57 210.812-210.812c0-33.388-7.809-64.984-21.687-93.068 46.861-10.686 81.938-52.695 81.938-102.745zm-316.188 20.7v24.488c0 8.34-6.785 15.125-15.125 15.125-24.882 0-45.125 20.243-45.125 45.125v30.125c0 8.34-6.785 15.125-15.125 15.125h-54.613c16.376-63.509 66.479-113.613 129.988-129.988zm-129.988 220.237h54.613c8.34 0 15.125 6.785 15.125 15.125v30.125c0 24.882 20.243 45.125 45.125 45.125s45.125-20.243 45.125-45.125c0-8.34 6.785-15.125 15.125-15.125s15.125 6.786 15.125 15.125c0 24.882 20.243 45.125 45.125 45.125 8.34 0 15.125 6.785 15.125 15.125v13.707c-22.957 10.573-48.488 16.481-75.375 16.481-84.125 0-155.017-57.75-175.113-135.688zm280.327 101.837c-1.873-23.174-21.316-41.462-44.964-41.462-8.34 0-15.125-6.785-15.125-15.125 0-24.882-20.243-45.125-45.125-45.125s-45.125 20.243-45.125 45.125c0 8.34-6.785 15.125-15.125 15.125s-15.125-6.785-15.125-15.125v-30.125c0-24.882-20.243-45.125-45.125-45.125h-59.674c-.415-4.989-.638-10.031-.638-15.125s.223-10.136.638-15.125h59.674c24.882 0 45.125-20.243 45.125-45.125v-30.125c0-8.34 6.785-15.125 15.125-15.125 24.882 0 45.125-20.243 45.125-45.125v-29.549c4.989-.415 10.031-.638 15.125-.638 22.422 0 43.893 4.124 63.722 11.621 11.056 42.319 47.828 74.348 92.546 78.328 2.95 5.054 5.661 10.264 8.12 15.613h-104.138c-24.882 0-45.125 20.243-45.125 45.125s20.243 45.125 45.125 45.125c8.34 0 15.125 6.785 15.125 15.125 0 24.882 20.243 45.125 45.125 45.125h43.891c-13.208 28.739-33.732 53.443-59.177 71.712zm75.599-146.961c0 15.62-1.992 30.783-5.734 45.25h-54.579c-8.34 0-15.125-6.785-15.125-15.125 0-24.882-20.243-45.125-45.125-45.125-8.34 0-15.125-6.785-15.125-15.125s6.785-15.125 15.125-15.125h114.826c3.743 14.466 5.737 29.629 5.737 45.25zm-15.126-120.438c-41.562 0-75.375-33.813-75.375-75.375s33.814-75.375 75.375-75.375 75.375 33.813 75.375 75.375-33.813 75.375-75.375 75.375z"/><path d="m431.562 75.623c-6.542-16.508-22.242-27.174-39.999-27.174s-33.457 10.667-39.999 27.174-2.41 35.034 10.526 47.197l7.575 7.122-13.261 12.467 20.551 21.856 14.607-13.735 14.607 13.735 20.551-21.856-13.261-12.467 7.575-7.122c12.938-12.164 17.07-30.69 10.528-47.197zm-31.078 25.34-8.922 8.389-8.922-8.389c-5.982-5.625-3.952-12.358-3.188-14.288.765-1.93 3.898-8.227 12.109-8.227s11.345 6.297 12.109 8.227c.767 1.93 2.797 8.663-3.186 14.288z"/></g></svg>