<svg id="Capa_1" enable-background="new 0 0 512 512" height="512" viewBox="0 0 512 512" width="512" xmlns="http://www.w3.org/2000/svg"><g><path d="m451.75 60.251h-150.625v-60.251h-90.25v60.251h-150.625v331.249h150.625v120.5h90.25v-120.5h150.625zm-210.875-30.251h30.25v30.251h-30.25zm30.25 452h-30.25v-90.5h30.25zm150.625-120.5h-331.5v-271.249h331.5z"/><path d="m256 331.257c58.108 0 105.383-47.274 105.383-105.382s-47.275-105.383-105.383-105.383-105.383 47.274-105.383 105.382 47.275 105.383 105.383 105.383zm75.383-105.382c0 15.37-4.634 29.674-12.563 41.606l-104.426-104.426c11.933-7.93 26.236-12.563 41.606-12.563 41.566 0 75.383 33.817 75.383 75.383zm-138.202-41.607 104.426 104.426c-11.933 7.93-26.236 12.563-41.606 12.563-41.566 0-75.383-33.816-75.383-75.382-.001-15.371 4.633-29.674 12.563-41.607z"/></g></svg>