<svg id="Capa_1" enable-background="new 0 0 510 510" height="512" viewBox="0 0 510 510" width="512" xmlns="http://www.w3.org/2000/svg"><g><path d="m345 383.58h30v30h-30z"/><path d="m345 323.58h30v30h-30z"/><path d="m345 263.58h30v30h-30z"/><path d="m345 203.58h30v30h-30z"/><path d="m367.284 40.467-7.284-4.047-7.284 4.047c-64.175 35.652-110.62 94.709-131.085 163.112h-146.631c-41.355 0-75 33.645-75 75 0 20.16 8.01 38.474 20.997 51.965-12.604 7.983-20.997 22.044-20.997 38.036 0 11.517 4.353 22.032 11.495 30-7.142 7.967-11.495 18.483-11.495 30 0 24.813 20.187 45 45 45h465v-190.566c0-100.703-54.685-193.641-142.716-242.547zm-337.284 328.113c0-8.271 6.729-15 15-15h165v30h-165c-8.271 0-15-6.729-15-15zm45-135h139.449c-1.789 9.871-3.054 19.882-3.764 30h-120.685v30h120v30h-135c-24.813 0-45-20.187-45-45s20.187-45 45-45zm135 210h-165c-8.271 0-15-6.729-15-15s6.729-15 15-15h165zm270 0h-30v-150h-30v150h-120v-150h-30v150h-30c0-17.817 0-143.512 0-160.566 0-87.003 45.769-167.508 120-212.111 74.231 44.604 120 125.109 120 212.111z"/></g></svg>