<svg id="Layer_1" enable-background="new 0 0 509.867 509.867" height="512" viewBox="0 0 509.867 509.867" width="512" xmlns="http://www.w3.org/2000/svg"><g id="XMLID_22_"><path id="XMLID_27_" d="m489.913 296.57-53.506-90.143c-1.09-53.977-23.256-104.909-62.695-143.836-133.094-132.266-358.178-41.42-358.763 146.442-.475 64.578 26.521 137.11 74.994 179.314v121.521h255v-75h58.681c17.27 0 31.319-14.045 31.319-31.31v-58.69h28.657c11.567 0 22.145-6.335 27.606-16.532 5.391-10.066 4.886-22.195-1.293-31.766zm-25.153 17.603c-.371.694-.884.694-1.159.694h-58.657v88.69c0 .722-.592 1.31-1.319 1.31h-88.681v75h-195v-105.791l-5.671-4.504c-126.212-108.544-73.139-340.094 110.427-339.681 100.217 1.626 181.749 82.698 181.749 180.722v4.116c.58.977-6.831-11.503 58.247 98.092.153.23.437.657.064 1.352z"/><path id="XMLID_482_" d="m344.943 164.867h-30v-30h-180v150c0 33.084 26.916 60 60 60h60c27.906 0 51.424-19.15 58.102-45h31.898c16.542 0 30-13.458 30-30v-75c0-16.542-13.458-30-30-30zm-60 0v30h-120v-30zm-30 150h-60c-16.542 0-30-13.458-30-30v-60h120v60c0 16.542-13.458 30-30 30zm90-45h-30v-75h30z"/></g></svg>