<svg id="Capa_1" enable-background="new 0 0 512 512" height="512" viewBox="0 0 512 512" width="512" xmlns="http://www.w3.org/2000/svg"><g><path d="m349.038 351.501h-30v27.963h-27.964v30h27.964v27.964h30v-27.964h27.964v-30h-27.964z"/><path d="m360.499 289.484h-46.025v-42.353c32.235-19.467 53.835-54.839 53.835-95.165v-40.877c0-61.255-49.834-111.089-111.089-111.089s-111.089 49.834-111.089 111.089v40.877c0 39.3 20.514 73.897 51.396 93.65v43.867h-46.025c-64.029 0-116.12 52.091-116.12 116.119v106.398h441.237v-106.397c-.001-64.028-52.091-116.119-116.12-116.119zm-103.279-259.484c40.256 0 73.739 29.491 80.017 68h-8.427c-15.044 0-27.334-11.989-27.833-26.914.005-.315.024-.627.024-.943v-.425h-.048-29.953-.048v.425c0 .316.019.628.024.943-.5 14.925-12.788 26.914-27.833 26.914h-65.941c6.278-38.509 39.762-68 80.018-68zm-81.089 121.967v-23.967h67.013c16.962 0 32.241-7.337 42.833-19.003 10.592 11.666 25.871 19.003 42.833 19.003h9.499v23.967c0 44.712-36.376 81.089-81.089 81.089s-81.089-36.377-81.089-81.089zm81.089 111.089c9.401 0 18.53-1.178 27.254-3.387v34.127l-28.474 28.593-28.474-28.593v-34.776c9.456 2.626 19.413 4.036 29.694 4.036zm189.398 218.944h-43.133v-37.633h-30v37.633h-234.971v-37.633h-30v37.633h-43.132v-76.397c0-47.486 38.633-86.119 86.12-86.119h59.268l45.23 45.42 45.231-45.42h59.268c47.486 0 86.119 38.633 86.119 86.119z"/></g></svg>