<svg height="512pt" viewBox="-31 0 512 512" width="512pt" xmlns="http://www.w3.org/2000/svg"><path d="m285 362c-15.167969 0-252.6875 0-270 0-8.285156 0-15 6.714844-15 15s6.714844 15 15 15h50.730469l25.851562 51.707031c2.542969 5.082031 7.734375 8.292969 13.417969 8.292969h45v30h-75c-8.285156 0-15 6.714844-15 15s6.714844 15 15 15h240c8.285156 0 15-6.714844 15-15s-6.714844-15-15-15h-75v-30h45c90.980469 0 165-74.019531 165-165 0-91.53125-74.019531-166-165-166h-45v-46c0-8.285156-6.714844-15-15-15h-15v-45c0-8.285156-6.714844-15-15-15h-60c-8.285156 0-15 6.714844-15 15v45h-15c-8.285156 0-15 6.714844-15 15v182c0 8.285156 6.714844 15 15 15h15v45c0 8.285156 6.714844 15 15 15h60c8.285156 0 15-6.714844 15-15v-45h15c8.285156 0 15-6.714844 15-15v-46h45c41.355469 0 75 34.09375 75 76 0 41.355469-33.644531 75-75 75zm-170.730469 60-15-30h50.730469v30zm65.730469 60v-90h30v90zm-30-452h30v30h-30zm30 272h-30v-30h30zm30-60h-90v-152h90zm180 45c0-58.449219-47.101562-106-105-106h-45v-30h45c74.4375 0 135 61.011719 135 136 0 74.4375-60.5625 135-135 135h-45v-30h45c57.898438 0 105-47.101562 105-105zm0 0"/></svg>