<svg id="Capa_1" enable-background="new 0 0 510 510" height="512" viewBox="0 0 510 510" width="512" xmlns="http://www.w3.org/2000/svg"><g><path d="m356.059 134.986c12.593-23.087 9.147-52.664-10.369-72.18-23.724-23.723-62.324-23.721-86.046 0l-4.644 4.643-4.644-4.644c-23.724-23.723-62.324-23.721-86.046 0-19.696 19.696-22.939 49.279-10.399 72.179h-153.911v330h510v-330h-153.941zm-101.059 104.557 74.557-74.557h125.521l-200.078 175.068-200.078-175.068h125.521zm-65.081 83.429-159.919 99.95v-239.88zm23.586 20.637 41.495 36.308 41.496-36.309 146.201 91.377h-375.394zm106.575-20.637 159.92-139.93v239.88zm-134.557-238.952c12.025-12.025 31.592-12.027 43.62 0l25.857 25.856 25.856-25.856c12.025-12.026 31.595-12.026 43.62.001 12.055 12.055 12.055 31.564 0 43.62l-69.476 69.475-69.477-69.476c-12.026-12.027-12.026-31.594 0-43.62z"/></g></svg>