<svg id="Capa_1" enable-background="new 0 0 512 512" height="512" viewBox="0 0 512 512" width="512" xmlns="http://www.w3.org/2000/svg"><g><path d="m421 30v-30h-30v30h-120v-30h-30v30h-120v-30h-30v30h-91v482h512v-482zm-330 30v30h30v-30h120v30h30v-30h120v30h30v-30h61v61h-452v-61zm-61 422v-331h452v331z"/><path d="m181 211h60v30h-60z"/><path d="m271 211h60v30h-60z"/><path d="m181 301h60v30h-60z"/><path d="m271 301h60v30h-60z"/><path d="m361 301h60v30h-60z"/><path d="m91 391h60v30h-60z"/><path d="m181 391h60v30h-60z"/><path d="m106 271c-24.813 0-45 20.187-45 45s20.187 45 45 45 45-20.187 45-45-20.187-45-45-45zm0 60c-8.271 0-15-6.729-15-15s6.729-15 15-15 15 6.729 15 15-6.729 15-15 15z"/><path d="m406 181c-24.813 0-45 20.187-45 45s20.187 45 45 45 45-20.187 45-45-20.187-45-45-45zm0 60c-8.271 0-15-6.729-15-15s6.729-15 15-15 15 6.729 15 15-6.729 15-15 15z"/></g></svg>