<svg id="Capa_1" enable-background="new 0 0 512 512" height="512" viewBox="0 0 512 512" width="512" xmlns="http://www.w3.org/2000/svg"><g><path d="m113 0v76.188l21.334 306.334v129.478h243.333v-129.478l21.297-305.813.036-76.709zm256 30v30.667h-226v-30.667zm-205.674 337-19.245-276.333h59.014v104.239h105.811v-104.239h59.014l-19.245 276.333zm69.769-276.333h45.811v74.239h-45.811zm46.905 391.333h-48v-5.667c0-13.234 10.767-24 24-24s24 10.766 24 24zm30 0v-5.667c0-29.776-24.225-54-54-54s-54 24.224-54 54v5.667h-37.666v-85h183.333v85z"/><path d="m203.095 230.333h105.811v30h-105.811z"/><path d="m224 292.333h64v30h-64z"/></g></svg>