<svg id="Capa_1" enable-background="new 0 0 512 512" height="512" viewBox="0 0 512 512" width="512" xmlns="http://www.w3.org/2000/svg"><g><path d="m241 301.25h30v30h-30z"/><path d="m301.25 271.125h30v30h-30z"/><path d="m286.125 210.875h30v30h-30z"/><path d="m211.875 285.854c-24.882 0-45.125-20.243-45.125-45.125s20.243-45.125 45.125-45.125 45.125 20.243 45.125 45.125-20.243 45.125-45.125 45.125zm0-60.25c-8.34 0-15.125 6.785-15.125 15.125s6.785 15.125 15.125 15.125 15.125-6.786 15.125-15.125-6.785-15.125-15.125-15.125z"/><path d="m256 512c-33.188 0-60.188-27-60.188-60.188 0-14.714 5.42-28.878 15.063-39.815v-9.413c-9.205-2.826-18.101-6.513-26.614-11.029l-6.659 6.66c-.915 14.552-7.098 28.398-17.503 38.804-21.856 22.888-62.548 23.578-85.118 0-23.467-23.467-23.467-61.651 0-85.118 10.404-10.404 24.253-16.587 38.804-17.502l6.66-6.66c-4.517-8.514-8.203-17.409-11.029-26.614h-9.413c-10.937 9.643-25.1 15.063-39.814 15.063-33.189 0-60.189-27-60.189-60.188s27-60.188 60.188-60.188c14.716 0 28.878 5.419 39.814 15.063h9.413c2.826-9.205 6.513-18.1 11.029-26.614l-6.659-6.66c-14.553-.915-28.399-7.097-38.805-17.502-23.467-23.468-23.467-61.651 0-85.118 21.857-22.887 62.549-23.579 85.118 0 10.405 10.405 16.588 24.252 17.503 38.804l6.659 6.66c8.514-4.517 17.409-8.203 26.614-11.03v-9.413c-9.644-10.937-15.063-25.1-15.063-39.814.002-33.188 27.002-60.188 60.189-60.188s60.188 27 60.188 60.188c0 14.715-5.419 28.878-15.063 39.814v9.413c9.205 2.827 18.101 6.513 26.614 11.03l6.66-6.66c.914-14.551 7.097-28.399 17.502-38.804 21.855-22.887 62.548-23.579 85.117 0 22.888 21.856 23.578 62.548 0 85.118-10.403 10.404-24.252 16.586-38.804 17.502l-6.659 6.66c4.517 8.514 8.203 17.41 11.029 26.614h9.413c10.937-9.643 25.099-15.063 39.814-15.063 33.189.001 60.189 27.001 60.189 60.188s-27 60.188-60.188 60.188c-14.715 0-28.878-5.419-39.814-15.063h-9.413c-2.826 9.205-6.513 18.1-11.029 26.614l6.659 6.66c14.553.915 28.399 7.098 38.804 17.502 22.887 21.857 23.579 62.548 0 85.118-21.855 22.887-62.549 23.578-85.117 0-10.405-10.405-16.588-24.253-17.502-38.804l-6.66-6.66c-8.514 4.517-17.409 8.203-26.614 11.029v9.413c9.643 10.937 15.063 25.101 15.063 39.815-.001 33.188-27.001 60.188-60.189 60.188zm-76.281-158.329c17.584 12.626 39.293 21.701 61.156 25.338v45.835c-8.05 6.068-15.195 15.777-15.063 26.968.001 16.646 13.542 30.188 30.188 30.188s30.188-13.542 30.188-30.188c.441-10.169-6.635-20.64-15.063-26.968v-45.835c21.347-3.498 43.107-12.445 61.156-25.338l32.416 32.416c-1.401 9.983.41 21.899 8.417 29.72 10.562 11.009 31.001 12.103 42.691 0 11.009-10.562 12.103-31.002 0-42.691-6.874-7.502-19.284-9.902-29.72-8.418l-32.414-32.416c12.626-17.585 21.7-39.294 25.338-61.155h45.835c6.068 8.05 15.777 15.195 26.968 15.063 16.646-.002 30.188-13.544 30.188-30.19s-13.542-30.188-30.188-30.188c-10.169-.441-20.639 6.635-26.968 15.063h-45.834c-3.498-21.346-12.445-43.105-25.338-61.156l32.414-32.415c9.981 1.401 21.898-.411 29.72-8.418 11.009-10.562 12.103-31.002 0-42.691-10.562-11.01-31.001-12.103-42.691 0-7.503 6.88-9.901 19.286-8.417 29.72l-32.416 32.416c-17.583-12.626-39.293-21.7-61.156-25.339v-45.837c8.05-6.068 15.195-15.777 15.063-26.968-.001-16.645-13.543-30.187-30.189-30.187s-30.188 13.542-30.188 30.188c-.441 10.168 6.636 20.639 15.063 26.968v45.834c-21.347 3.499-43.107 12.446-61.156 25.339l-32.414-32.416c1.4-9.983-.412-21.9-8.419-29.72-10.562-11.009-31.002-12.103-42.692 0-11.77 11.77-11.77 30.921 0 42.691 6.88 7.501 19.288 9.901 29.721 8.418l32.414 32.415c-12.626 17.585-21.7 39.294-25.338 61.156h-45.836c-6.068-8.05-15.776-15.195-26.968-15.063-16.645.003-30.187 13.544-30.187 30.19s13.542 30.188 30.188 30.188c10.168.441 20.639-6.635 26.968-15.063h45.835c3.498 21.345 12.445 43.105 25.338 61.155l-32.414 32.416c-9.977-1.4-21.892.412-29.721 8.418-11.77 11.77-11.77 30.921 0 42.691 10.562 11.009 31.002 12.103 42.692 0 7.502-6.879 9.901-19.286 8.419-29.72z"/></g></svg>