<svg id="Capa_1" enable-background="new 0 0 512 512" height="512" viewBox="0 0 512 512" width="512" xmlns="http://www.w3.org/2000/svg"><g><path d="m76 165.952h35.975c-4.009 26.861-13.428 58.53-29.485 91.074 17.465 35.417 31.759 80.237 31.759 120.002 0 50.938-19.891 95.761-39.271 134.944 0 0 14.851-.001 168.495-.01-19.798-40.072-39.225-84.634-39.225-134.933 0-39.403 14.061-84.112 31.759-119.998-17.465-35.417-31.759-80.237-31.759-120.002 0-49.471 18.803-94.984 38.922-137-.046 0-14.877.001-167.804.009 7.437 15.525 24.838 48 34.219 94.299-13.865-11.875-31.276-18.375-49.585-18.375h-60v15c0 41.457 34.535 74.99 76 74.99zm120.637-135.99c-9.313 24.291-22.388 65.809-22.388 107.067 0 40.303 12.469 79.984 21.749 103.933h-73.498c9.279-23.949 21.749-63.63 21.749-103.933 0-41.258-13.075-82.776-22.388-107.067zm.197 240.99c-9.347 23.676-22.585 64.545-22.585 106.077 0 40.906 12.846 81.174 22.164 105h-74.328c9.318-23.826 22.164-64.094 22.164-105 0-41.532-13.238-82.4-22.585-106.077zm-136.834-164.99c19.59 0 36.791 12.718 43.265 30h-27.265c-19.59 0-36.791-12.718-43.265-30z"/><path d="m392.509 240.962h-128.874c14.653 35.921 37.365 93.866 37.365 135 0 40.845-23.096 100.799-37.251 136h164.502l-8.347-20.627c-.289-.714-28.904-71.934-28.904-115.373 0-33.92 17.525-84.361 25.271-105h19.729c41.457 0 76-33.534 76-75v-15h-46c-36.22 0-66.522 25.808-73.491 60zm-84.906 241c9.222-26.23 23.397-72.071 23.397-106 0-33.822-14.078-79.016-23.31-105.01h76.619c-9.231 25.993-23.309 71.188-23.309 105.01 0 33.929 14.176 79.77 23.397 106zm128.397-241c-2.549 0-8.34 0-12.43 0 6.19-17.461 22.873-30.01 42.43-30.01h13.265c-6.474 17.281-23.675 30.01-43.265 30.01z"/></g></svg>