<svg id="Capa_1" enable-background="new 0 0 512.034 512.034" height="512" viewBox="0 0 512.034 512.034" width="512" xmlns="http://www.w3.org/2000/svg"><g><path d="m512.017 372.034h-30v-73h-60v-37h-90v80h-152v-80h-90v37h-60v73h-30v30h30v73h60v37h90v-80h152v80h90v-37h60v-73h30zm-452 73v-116h30v116zm90 37h-30v-190h30zm30-80v-30h152v30zm212 80h-30v-190h30zm60-37h-30v-116h30z"/><path d="m256.017 223c61.481 0 111.5-50.019 111.5-111.5s-50.018-111.5-111.5-111.5-111.5 50.019-111.5 111.5 50.019 111.5 111.5 111.5zm0-193c44.939 0 81.5 36.561 81.5 81.5s-36.561 81.5-81.5 81.5-81.5-36.561-81.5-81.5 36.561-81.5 81.5-81.5z"/><path d="m291.017 96.5h-20v-36.5h-30v66.5h50z"/></g></svg>