<?xml version="1.0" encoding="iso-8859-1"?>
<!-- Generator: Adobe Illustrator 19.0.0, SVG Export Plug-In . SVG Version: 6.00 Build 0)  -->
<svg version="1.1" id="Layer_1" xmlns="http://www.w3.org/2000/svg" xmlns:xlink="http://www.w3.org/1999/xlink" x="0px" y="0px"
	 viewBox="0 0 512 512" style="enable-background:new 0 0 512 512;" xml:space="preserve">
<g>
	<g>
		<polygon points="0,0 0,116.364 46.545,116.364 46.545,46.545 116.364,46.545 116.364,0 		"/>
	</g>
</g>
<g>
	<g>
		<polygon points="395.636,0 395.636,46.545 465.455,46.545 465.455,116.364 512,116.364 512,0 		"/>
	</g>
</g>
<g>
	<g>
		<polygon points="465.455,395.636 465.455,465.455 395.636,465.455 395.636,512 512,512 512,395.636 		"/>
	</g>
</g>
<g>
	<g>
		<polygon points="46.545,465.455 46.545,395.636 0,395.636 0,512 116.364,512 116.364,465.455 		"/>
	</g>
</g>
<g>
	<g>
		<path d="M256,155.152c-21.388,0-38.788,17.4-38.788,38.788s17.4,38.788,38.788,38.788s38.788-17.4,38.788-38.788
			S277.388,155.152,256,155.152z"/>
	</g>
</g>
<g>
	<g>
		<path d="M256,232.727c-38.499,0-69.818,31.32-69.818,69.818c0,21.388,17.4,38.788,38.788,38.788h62.061
			c21.388,0,38.788-17.4,38.788-38.788C325.818,264.048,294.499,232.727,256,232.727z"/>
	</g>
</g>
<g>
</g>
<g>
</g>
<g>
</g>
<g>
</g>
<g>
</g>
<g>
</g>
<g>
</g>
<g>
</g>
<g>
</g>
<g>
</g>
<g>
</g>
<g>
</g>
<g>
</g>
<g>
</g>
<g>
</g>
</svg>
