<svg id="Capa_1" enable-background="new 0 0 510 510" height="512" viewBox="0 0 510 510" width="512" xmlns="http://www.w3.org/2000/svg"><g><path d="m479.488 315c-7.83-117.645-105.532-210-224.488-210-118.874 0-216.652 92.273-224.488 210h-30.512v90h510v-90zm-146.513-163.788c-44.836 38.386-111.116 38.382-155.95 0 48.32-21.109 105.29-22.132 155.95 0zm-183.863 15.019c58.395 58.266 153.202 58.444 211.774.001 11.334 7.346 21.793 15.767 31.322 25.204-79.551 64.523-194.273 65.006-274.418 0 9.554-9.459 19.975-17.844 31.322-25.205zm-50.952 47.897c90.609 74.083 222.054 74.913 313.68 0 21.558 29.172 34.73 64.047 37.561 100.872h-388.802c2.831-36.825 16.003-71.7 37.561-100.872zm381.84 160.872h-450v-30h450z"/></g></svg>