<?xml version="1.0" encoding="iso-8859-1"?>
<!-- Generator: Adobe Illustrator 19.0.0, SVG Export Plug-In . SVG Version: 6.00 Build 0)  -->
<svg xmlns="http://www.w3.org/2000/svg" xmlns:xlink="http://www.w3.org/1999/xlink" version="1.1" id="Layer_1" x="0px" y="0px" viewBox="0 0 512 512" style="enable-background:new 0 0 512 512;" xml:space="preserve">
<g>
	<g>
		<path d="M294.746,51.496C291.113,22.506,266.329,0,236.371,0h-0.677c-32.451,0-58.852,26.401-58.852,58.852v360.225h14.81    l28.159,70.688c0.607,1.523,1.414,2.917,2.371,4.17V512h31.283v-25.284l26.944-67.638h14.813V82.779h8.652v110.47h31.283V51.496    H294.746z M208.125,58.852c0-15.202,12.367-27.569,27.569-27.569h0.677c15.201,0,27.569,12.367,27.569,27.569v7.208h-55.814    V58.852z M208.125,97.344h55.814V337.35h-55.814V97.344z M236.032,445.951l-10.703-26.868h21.405L236.032,445.951z     M263.94,387.795h-55.814v-19.162h55.814V387.795z"/>
	</g>
</g>
<g>
</g>
<g>
</g>
<g>
</g>
<g>
</g>
<g>
</g>
<g>
</g>
<g>
</g>
<g>
</g>
<g>
</g>
<g>
</g>
<g>
</g>
<g>
</g>
<g>
</g>
<g>
</g>
<g>
</g>
</svg>
