<svg id="Layer_1" enable-background="new 0 0 510 510" height="512" viewBox="0 0 510 510" width="512" xmlns="http://www.w3.org/2000/svg"><g><path d="m270 180v-90h-30v-60h120v-30c-11.985 0-230.203 0-240 0v30h30v60h-30v90c-33.084 0-60 26.916-60 60v270h270v-270c0-33.084-26.916-60-60-60zm-90-150h30v60h-30zm-30 90h90v60h-90zm-30 90h150c16.542 0 30 13.458 30 30h-210c0-16.542 13.458-30 30-30zm180 60v150h-210v-150zm-210 210v-30h210v30z"/><path d="m150 360h30v30h30v-30h30v-30h-30v-30h-30v30h-30z"/><path d="m405 63.607c-12.427 18.005-45 63.188-45 86.393 0 24.813 20.186 45 45 45s45-20.187 45-45c0-23.21-32.605-68.435-45-86.393zm0 101.393c-8.272 0-15-6.729-15-14.982.122-4.585 6.361-17.656 15-32.211 8.635 14.55 14.872 27.615 15 32.206-.007 8.264-6.733 14.987-15 14.987z"/></g></svg>