<svg id="Layer_1" enable-background="new 0 0 510 510" height="512" viewBox="0 0 510 510" width="512" xmlns="http://www.w3.org/2000/svg"><g><path d="m30 90h30v169.542l60 90v70.458h-30v90h90v-90h-30v-70.458l60-90v-169.542h30v-90h-210zm120 390h-30v-30h30zm-46.973-210h63.945l-31.972 47.958zm76.973-30h-90v-150h90zm-120-210h150v30h-150z"/><path d="m480 0h-210v90h30v169.542l60 90v70.458h-30v90h90v-90h-30v-70.458l60-90v-169.542h30zm-90 480h-30v-30h30zm-46.973-210h63.945l-31.972 47.958zm76.973-30h-90v-150h90zm30-180h-150v-30h150z"/></g></svg>