<svg id="Capa_1" enable-background="new 0 0 512 512" height="512" viewBox="0 0 512 512" width="512" xmlns="http://www.w3.org/2000/svg"><g><path d="m466.976 110.007c-24.826 0-45.023 20.198-45.023 45.024v57.342c-4.761-1.68-9.826-2.556-15.024-2.556-12.026 0-23.333 4.684-31.836 13.188l-119.093 119.09-119.092-119.091c-8.503-8.504-19.81-13.188-31.836-13.188-5.198 0-10.264.875-15.024 2.556v-57.342c0-24.826-20.197-45.024-45.023-45.024s-45.025 20.199-45.025 45.025v156.071l114.63 129.63v69.185h282.74v-69.185l114.63-129.63v-156.071c0-24.826-20.198-45.024-45.024-45.024zm-225.976 369.91h-96.37v-50.546l-114.63-129.63v-144.71c0-8.284 6.74-15.024 15.024-15.024s15.023 6.74 15.023 15.024v99.659.151c0 12.026 4.684 23.333 13.188 31.836l60.55 60.549 21.213-21.213-60.55-60.55c-2.838-2.837-4.4-6.61-4.4-10.623 0-.008 0-.015 0-.022v-.065c.022-3.98 1.583-7.719 4.4-10.536 2.838-2.838 6.611-4.401 10.624-4.401s7.785 1.563 10.623 4.4l125.305 125.306zm241-180.176-114.63 129.63v50.546h-96.37v-110.395l125.305-125.305c2.838-2.837 6.61-4.4 10.623-4.4s7.786 1.563 10.624 4.401c2.817 2.817 4.378 6.556 4.4 10.536v.065.022c0 4.013-1.563 7.786-4.4 10.624l-60.55 60.549 21.213 21.213 60.55-60.549c8.504-8.504 13.188-19.811 13.188-31.837 0-.051 0-.101 0-.151v-99.659c0-8.284 6.739-15.024 15.023-15.024s15.024 6.74 15.024 15.024z"/><path d="m256 299.669 129.029-129.03c18.649-18.649 28.92-43.445 28.92-69.819s-10.271-51.169-28.92-69.818c-18.648-18.649-43.443-28.92-69.817-28.92-21.642 0-42.221 6.916-59.212 19.701-16.992-12.784-37.57-19.7-59.212-19.7-26.374 0-51.169 10.271-69.817 28.92-18.649 18.649-28.92 43.444-28.92 69.818s10.271 51.169 28.92 69.818zm-107.816-247.453c12.982-12.983 30.244-20.133 48.604-20.133s35.622 7.15 48.605 20.133l10.607 10.607 10.606-10.607c12.982-12.983 30.244-20.133 48.605-20.133 18.36 0 35.622 7.15 48.604 20.133 12.983 12.983 20.133 30.245 20.133 48.605 0 18.361-7.149 35.623-20.133 48.605l-107.815 107.817-107.816-107.817c-12.983-12.982-20.133-30.244-20.133-48.605s7.149-35.622 20.133-48.605z"/></g></svg>