<svg id="Layer_1" enable-background="new 0 0 510 510" height="512" viewBox="0 0 510 510" width="512" xmlns="http://www.w3.org/2000/svg"><g><path d="m233.822 164.965-49.429 49.428 21.213 21.213 49.394-49.393 49.394 49.393 21.213-21.213-49.429-49.428c5.716-5.983 13.052-14.008 20.438-23.048 22.464-27.492 33.384-49.381 33.384-66.917 0-41.354-33.645-75-75-75s-75 33.646-75 75c0 17.536 10.92 39.425 33.385 66.917 7.386 9.04 14.721 17.065 20.437 23.048zm21.178-134.965c24.814 0 45 20.188 45 45 0 15.733-23.755 46.591-45.006 68.814-21.249-22.202-44.994-53.043-44.994-68.814 0-24.812 20.187-45 45-45z"/><path d="m496.236 238.763c-17.426-17.425-45.609-18.369-64.114-2.186l-107.721 93.423h-26.956c10.567-28.456-11.974-60.558-42.445-60h-123.541l-41.459 20.729v-35.729h-90v255h90v-35.73l78.541-39.27h182.173l143.734-128.094c19.867-17.891 20.956-48.976 1.788-68.143zm-436.236 241.237h-30v-195h30zm414.431-195.439-135.145 120.439h-177.827l-71.459 35.729v-116.459l48.541-24.27h116.459c19.874.753 19.868 29.262 0 30h-60v30h140.599l116.227-100.799c17.339-14.064 38.602 9.817 22.605 25.36z"/></g></svg>