<svg id="Capa_1" enable-background="new 0 0 512 512" height="512" viewBox="0 0 512 512" width="512" xmlns="http://www.w3.org/2000/svg"><g><path d="m299.516 101.243c10.204-10.761 16.484-25.278 16.484-41.243 0-33.084-26.916-60-60-60s-60 26.916-60 60c0 15.965 6.28 30.482 16.484 41.243-27.694 15.364-46.484 44.905-46.484 78.757v75h180v-75c0-33.852-18.79-63.393-46.484-78.757zm-73.516-41.243c0-16.542 13.458-30 30-30s30 13.458 30 30-13.458 30-30 30-30-13.458-30-30zm90 165h-120v-45c0-33.084 26.916-60 60-60s60 26.916 60 60z"/><path d="m116.94 359.852c11.133-10.899 18.06-26.079 18.06-42.852 0-33.084-26.916-60-60-60s-60 26.916-60 60c0 16.773 6.927 31.953 18.06 42.852-19.933 13.494-33.06 36.317-33.06 62.148v90h150v-90c0-25.831-13.127-48.654-33.06-62.148zm-71.94-42.852c0-16.542 13.458-30 30-30s30 13.458 30 30-13.458 30-30 30-30-13.458-30-30zm75 165h-90v-60c0-24.813 20.187-45 45-45s45 20.187 45 45z"/><path d="m478.94 359.852c11.133-10.899 18.06-26.079 18.06-42.852 0-33.084-26.916-60-60-60s-60 26.916-60 60c0 16.773 6.927 31.953 18.06 42.852-19.933 13.494-33.06 36.317-33.06 62.148v90h150v-90c0-25.831-13.127-48.654-33.06-62.148zm-71.94-42.852c0-16.542 13.458-30 30-30s30 13.458 30 30-13.458 30-30 30-30-13.458-30-30zm75 165h-90v-60c0-24.813 20.187-45 45-45s45 20.187 45 45z"/><path d="m234.787 278.654-58.336 58.336 58.336 58.336 21.213-21.213-22.123-22.123h83.787v-30h-83.787l22.123-22.123z"/><path d="m256 416.539 22.123 22.124h-83.787v30h83.787l-22.123 22.123 21.213 21.213 58.336-58.336-58.336-58.337z"/></g></svg>