<svg height="511pt" viewBox="0 0 511 511.99996" width="511pt" xmlns="http://www.w3.org/2000/svg"><path d="m466.730469 18.316406c-34.242188-23.765625-81.652344-24.707031-116.96875-1.050781-22.90625 15.34375-38.792969 38.3125-44.726563 64.671875-8.195312 36.417969-25.039062 73.566406-46.28125 103.480469-52.949218-43.492188-150.335937-99.566407-197.558594-52.339844-31.632812 31.632813-14.65625 87.925781 5.671876 127.644531-9.753907 5.753906-18.757813 12.730469-26.886719 20.859375-52.640625 52.640625-52.640625 138.296875 0 190.9375 52.640625 52.636719 138.292969 52.644531 190.9375 0 8.125-8.128906 15.105469-17.132812 20.859375-26.886719 39.949218 20.445313 96.1875 37.128907 127.644531 5.671876 47.363281-47.363282-9.210937-144.992188-52.171875-197.355469 32.324219-24.03125 66.714844-40.257813 97.214844-45.234375 21.796875-3.558594 41.601562-13.71875 57.261718-29.378906 45.980469-45.976563 39.953126-122.882813-14.996093-161.019532zm-257.027344 432.988282c-40.941406 40.941406-107.5625 40.941406-148.503906 0-40.945313-40.945313-40.945313-107.5625 0-148.507813 6.222656-6.222656 13.113281-11.5625 20.554687-15.996094 5.207032 8.28125 10.882813 16.585938 16.976563 24.851563-5.9375 3.332031-11.429688 7.472656-16.316407 12.359375-29.28125 29.28125-29.285156 76.792969 0 106.078125 29.28125 29.28125 76.792969 29.28125 106.074219 0 4.886719-4.886719 9.027344-10.382813 12.363281-16.320313 8.265626 6.097657 16.570313 11.769531 24.851563 16.976563-4.433594 7.441406-9.773437 14.332031-16 20.558594zm-91.949219-115.605469c8.832032 10.441406 18.292969 20.730469 28.304688 30.742187 10.011718 10.015625 20.304687 19.476563 30.742187 28.304688-2.234375 5.242187-5.441406 10.039062-9.527343 14.128906-17.558594 17.554688-46.089844 17.554688-63.644532 0-17.558594-17.558594-17.558594-46.089844 0-63.648438 4.085938-4.085937 8.882813-7.292968 14.125-9.527343zm240.457032 94.390625c-34.109376 34.105468-135.585938-29.511719-190.9375-84.863282-55.339844-55.339843-118.90625-156.886718-84.859376-190.9375 20.585938-20.585937 85.382813-4.976562 157.484376 54.457032-1.671876 1.800781-3.355469 3.566406-5.058594 5.269531l-35.742188 35.742187-42.433594-42.429687-21.214843 21.214844 148.507812 148.507812 21.214844-21.214843-42.429687-42.433594 27.152343-27.152344c4.605469-4.605469 9.324219-9.046875 14.121094-13.332031 59.21875 71.976562 74.75 136.613281 54.195313 157.171875zm102.304687-271.96875c-11.191406 11.1875-25.324219 18.445312-40.882813 20.984375-95.226562 15.539062-166.453124 103.621093-178.105468 113.082031l-21.214844-21.214844 35.746094-35.742187c36.546875-36.550781 65.800781-91.390625 78.25-146.703125 4.238281-18.828125 15.65625-35.285156 32.152344-46.335938 24.582031-16.464844 58.78125-16.148437 83.164062.773438 40.417969 28.046875 42.992188 83.054687 10.890625 115.15625zm0 0"/></svg>