<svg id="Capa_1" enable-background="new 0 0 512.057 512.057" height="512" viewBox="0 0 512.057 512.057" width="512" xmlns="http://www.w3.org/2000/svg"><g><path d="m.028 0v144.271l75-37.5 75 37.5v-114.271h31v114.271l75-37.5 75 37.5v-114.271h31v114.271l75-37.5 75 37.5v-144.271zm120 95.729-45-22.5-45 22.5v-65.729h90zm181 0-45-22.5-45 22.5v-65.729h90zm181 0-45-22.5-45 22.5v-65.729h90z"/><path d="m.028 512.057 75-37.5 75 37.5v-114.271h31v114.271l75-37.5 75 37.5v-114.271h31v114.271l75-37.5 75 37.5v-144.271h-512v144.271zm392-114.271h90v65.729l-45-22.5-45 22.5zm-91 65.73-45-22.5-45 22.5v-65.729h90zm-271-65.73h90v65.729l-45-22.5-45 22.5z"/><path d="m.028 328.164 75-37.5 75 37.5v-114.271h31v114.271l75-37.5 75 37.5v-114.271h31v114.271l75-37.5 75 37.5v-144.271h-512v144.271zm392-114.271h90v65.729l-45-22.5-45 22.5zm-91 65.73-45-22.5-45 22.5v-65.729h90zm-271-65.73h90v65.729l-45-22.5-45 22.5z"/></g></svg>