<svg id="Capa_1" enable-background="new 0 0 512 512" height="512" viewBox="0 0 512 512" width="512" xmlns="http://www.w3.org/2000/svg"><g><path d="m460.002 296.226c-18.604-24.754-28.539-60.125-26.971-93.525 0-22.495-8.691-43.451-24.474-59.008-11.594-11.839-26.747-19.078-42.715-21.839v-1.483h25.999c35.498 0 64.377-28.879 64.377-64.377v-25.87h-55.998c-19.427 0-36.857 8.662-48.671 22.312-18.282-31.333-52.261-52.436-91.08-52.436v30c41.562 0 75.374 33.812 75.374 75.374v16.506c-16.075 2.798-31.254 10.09-42.713 21.813-8.352 8.232-14.695 17.985-18.833 28.671-18.438 2.095-35.598 10.362-49.106 23.87-22.905 25.189-55.008 42.732-85.278 47.073-29.316 4.46-55.79 18.08-76.561 39.386-50.684 51.992-50.196 137.314 1.087 190.198l.16.166.166.16c52.884 51.283 138.207 51.77 190.198 1.087.532-.519 1.038-1.057 1.56-1.583 24.418 23.756 57.664 38.715 94.09 39.275l.23.004.23-.004c73.657-1.132 134.334-61.12 135.259-133.722.38-29.753-8.71-58.104-26.33-82.048zm-59.782-236.102h25.752c-2.046 17.016-16.572 30.248-34.13 30.248h-25.752c2.046-17.017 16.572-30.248 34.13-30.248zm-314.405 391.717c-39.253-38.767-40.011-109.953-.981-148.206 16.177-16.594 36.782-27.199 59.515-30.658 37.327-5.485 74.578-25.79 102.256-55.729 10.157-10.055 23.428-15.534 37.4-15.433 27.707-.201 52.092 25.215 51.836 51.836.101 13.972-5.378 27.243-15.433 37.4-29.938 27.678-50.244 64.929-55.718 102.181-3.471 22.809-14.077 43.415-30.67 59.591-38.762 39.503-109.96 37.786-148.205-.982zm265.029 30.155c-28.396.177-55.645-12.939-75.337-33.156 9.642-15.452 16.049-32.738 18.854-51.172 4.348-30.659 22.335-62.695 47.061-85.204 15.906-15.906 24.579-36.87 24.419-59.03.375-35.879-26.255-68.339-59.516-78.411 2.188-3.598 4.807-6.95 7.865-9.965 19.449-19.734 54.665-19.005 73.307 0 9.951 9.809 15.461 23.067 15.533 37.359-1.599 40.741 10.384 81.439 32.854 111.651 13.674 18.583 20.745 40.652 20.45 63.824.525 55.344-51.033 104.474-105.49 104.104z"/><path d="m160.403 302.044c-41.493 0-75.25 33.757-75.25 75.25s33.757 75.25 75.25 75.25 75.25-33.757 75.25-75.25-33.756-75.25-75.25-75.25zm0 120.5c-24.951 0-45.25-20.299-45.25-45.25s20.299-45.25 45.25-45.25 45.25 20.299 45.25 45.25-20.298 45.25-45.25 45.25z"/></g></svg>