<svg id="Capa_1" enable-background="new 0 0 512 512" height="512" viewBox="0 0 512 512" width="512" xmlns="http://www.w3.org/2000/svg"><g><path d="m136 422h120v30h-120z"/><path d="m451 255c0-24.813-20.187-45-45-45s-45 20.187-45 45c0 19.555 12.541 36.228 30 42.42v17.58c0 8.271-6.729 15-15 15h-45v-330h-270v512h270v-152h45c24.813 0 45-20.187 45-45v-17.58c17.459-6.192 30-22.865 30-42.42zm-219.27-225-15 30h-41.459l-15-30zm69.27 452h-210v-452h35.73l30 60h78.541l30-60h35.729v300h-75c-8.271 0-15-6.729-15-15v-46.509c34.192-6.968 60-37.271 60-73.491v-75h-60v30h30v45c0 24.813-20.187 45-45 45s-45-20.187-45-45v-45h30v-30h-60v75c0 36.22 25.808 66.522 60 73.491v46.509c0 24.813 20.187 45 45 45h75zm105-212c-8.271 0-15-6.729-15-15s6.729-15 15-15 15 6.729 15 15-6.729 15-15 15z"/></g></svg>