<svg id="Capa_1" enable-background="new 0 0 512 512" height="512" viewBox="0 0 512 512" width="512" xmlns="http://www.w3.org/2000/svg"><g><path d="m150.625 60.25h30v30h-30z"/><path d="m271.125 60.25h30v30h-30z"/><path d="m391.625 60.25h30v30h-30z"/><path d="m210.875 120.5h30v30h-30z"/><path d="m271.125 120.5h30v30h-30z"/><path d="m331.375 120.5h30v30h-30z"/><path d="m391.625 120.5h30v30h-30z"/><path d="m150.625 180.75h30v30h-30z"/><path d="m210.875 180.75h30v30h-30z"/><path d="m331.375 180.75h30v30h-30z"/><path d="m150.625 241h30v30h-30z"/><path d="m210.875 241h30v30h-30z"/><path d="m271.125 241h30v30h-30z"/><path d="m331.375 241h30v30h-30z"/><path d="m391.625 241h30v30h-30z"/><path d="m150.625 301.25h30v30h-30z"/><path d="m210.875 301.25h30v30h-30z"/><path d="m271.125 301.25h30v30h-30z"/><path d="m331.375 301.25h30v30h-30z"/><path d="m391.625 301.25h30v30h-30z"/><path d="m150.625 361.5h30v30h-30z"/><path d="m271.125 361.5h30v30h-30z"/><path d="m331.375 361.5h30v30h-30z"/><path d="m391.625 361.5h30v30h-30z"/><path d="m481.875 0h-391.5v60.25h-60.25v451.75h391.5v-60.25h60.25zm-90.25 482h-331.5v-391.75h30.25v361.5h301.25zm60.25-60.25h-331.5v-391.75h331.5z"/></g></svg>