<svg id="Capa_1" enable-background="new 0 0 510 510" height="512" viewBox="0 0 510 510" width="512" xmlns="http://www.w3.org/2000/svg"><path d="m434.255 137.458c-7.977-66.717-76.624-109.592-140.699-85.939-22.412-32.273-59.189-51.519-98.556-51.519-72.67 0-129.307 64.606-118.75 137.339-43.623 9.668-76.25 48.596-76.25 95.161 0 53.762 43.738 97.5 97.5 97.5h38.316l-20.455 75h77.344l-15 105h55.91l105-180h73.885c53.762 0 97.5-43.738 97.5-97.5 0-45.773-31.796-85.023-75.745-95.042zm-217.87 342.542h-4.09l15-105h-72.656l36.818-135h57.732l-30 90h84.696zm196.115-180c-3.325 0-143.551 0-151.689 0l30-90h-122.268l-24.545 90h-46.498c-37.22 0-67.5-30.28-67.5-67.5 0-36.456 28.524-66.076 64.938-67.431l19.354-.721-5.54-18.559c-17.223-57.704 26.164-115.789 86.248-115.789 49.739 0 90 40.498 90 90h30c0-14.608-2.627-28.613-7.429-41.572 48.484-15.142 97.384 21.254 97.429 71.501l-.118 14.125 13.767 1.241c34.976 3.151 61.351 32.043 61.351 67.205 0 37.22-30.28 67.5-67.5 67.5z"/></svg>