<svg id="Capa_1" enable-background="new 0 0 512 512" height="512" viewBox="0 0 512 512" width="512" xmlns="http://www.w3.org/2000/svg"><g><path d="m437.019 74.981c-48.352-48.352-112.639-74.981-181.019-74.981s-132.667 26.629-181.019 74.981-74.981 112.639-74.981 181.019 26.629 132.667 74.981 181.019 112.639 74.981 181.019 74.981 132.667-26.629 181.019-74.981 74.981-112.639 74.981-181.019-26.629-132.667-74.981-181.019zm-56.583 326.671-50.348-50.348h42.431l32.827 32.825 10.291-14.414c4.25-5.952 8.135-12.1 11.661-18.411h33.741c-8.379 17.999-19.181 34.914-32.234 50.348zm-109.436-109.435v109.436h-30v-109.436l-29.088 29.088h-42.434l50.348-50.348h72.339l50.352 50.348h-42.429zm-60 72.427v51.175c-12.578-3.551-24.757-8.604-36.17-15.004zm-86.048-254.383c-6.363 5.72-12.374 11.875-17.984 18.436-8.489 9.93-15.908 20.628-22.192 31.912h-33.776c8.389-18 19.203-34.915 32.267-50.348zm-53.708 80.348c-5.72 16.168-9.324 33.093-10.653 50.348h-30.086c1.126-17.241 4.172-34.108 9.056-50.348zm-40.745 80.348h30.064c1.301 17.306 4.863 34.197 10.571 50.348h-31.599c-4.876-16.241-7.917-33.108-9.036-50.348zm59.501-14.957c0-39.523 14.125-77.81 39.771-107.808 2.682-3.137 5.472-6.164 8.363-9.078 20.235-20.394 45.396-35.202 72.866-42.942v141.184l-99.828 99.828c-13.898-24.685-21.172-52.425-21.172-81.184zm151-145.739h30v50.348h-30zm141.229 37.931c25.647 29.998 39.771 68.285 39.771 107.808 0 28.76-7.275 56.5-21.173 81.185l-99.827-99.819v-141.193c31.395 8.846 59.772 26.923 81.229 52.019zm-141.229 42.417h30v50.348h-30zm60 174.035 36.171 36.17c-11.414 6.4-23.593 11.453-36.171 15.004zm139.866-43.339c5.708-16.15 9.27-33.041 10.571-50.348h30.063c-1.119 17.24-4.159 34.107-9.036 50.348zm10.543-80.348c-1.33-17.255-4.933-34.181-10.654-50.348h31.684c4.883 16.24 7.93 33.108 9.056 50.348zm9.591-80.348h-33.777c-6.284-11.283-13.703-21.982-22.192-31.912-5.61-6.561-11.621-12.716-17.984-18.436h41.686c13.065 15.433 23.879 32.348 32.267 50.348zm-62.88-80.348h-55.323c-17.062-8.445-35.356-14.42-54.327-17.587l-17.47-2.915v20.502h-30v-20.502l-17.469 2.916c-18.972 3.167-37.265 9.142-54.328 17.587h-55.323c40.106-32.559 89.75-50.262 142.12-50.262s102.014 17.703 142.12 50.261zm-347.16 271.044h33.741c3.526 6.311 7.411 12.459 11.661 18.411l10.291 14.415 32.826-32.826h42.434l-50.348 50.348h-48.37c-13.054-15.434-23.856-32.35-32.235-50.348zm62.813 80.347h55.286c17.187 8.509 35.614 14.526 54.471 17.673l17.47 2.916v-20.589h30v20.589l17.47-2.916c18.857-3.148 37.285-9.164 54.472-17.673h55.286c-40.125 32.614-89.811 50.348-142.228 50.348s-102.103-17.734-142.227-50.348z"/></g></svg>