<svg id="Capa_1" enable-background="new 0 0 512 512" height="512" viewBox="0 0 512 512" width="512" xmlns="http://www.w3.org/2000/svg"><path d="m481.71 275.008c20.368-32.076 30.29-64.609 30.29-99.267 0-40.798-12.54-78.241-35.31-105.431-24.794-29.608-59.266-45.257-99.69-45.257-52.65 0-98.409 29.853-121 73.402-22.591-43.548-68.35-73.402-121-73.402-40.421 0-74.892 15.648-99.686 45.252-22.773 27.19-35.314 64.635-35.314 105.436 0 35.46 9.672 67.023 30.346 98.825-.614 5.023-.225 3.823-.346 50.487h-30v30h30v45c0 24.813 20.187 45 45 45h75v-50.277l109.006 92.171 102.994-88.767v46.873h75c24.813 0 45-20.187 45-45v-45h30v-30h-30c-.101-47.021.223-45.473-.29-50.045zm-346.71-219.955c58.448 0 106 47.103 106 105h30c0-57.897 47.552-105 106-105 72.143 0 105 62.561 105 120.688 0 23.716-5.697 46.407-17.344 68.852-7.637-5.97-17.234-9.541-27.656-9.541h-75v90h-212v-90h-75c-10.392 0-19.965 3.551-27.591 9.489-11.819-22.16-17.409-44.44-17.409-68.8 0-58.127 32.857-120.688 105-120.688zm-15 360h-45c-8.271 0-15-6.729-15-15v-120c0-8.271 6.729-15 15-15h45zm139 32.197-109-91.748v-.45h212zm193-47.197c0 8.271-6.729 15-15 15h-45v-150h45c8.271 0 15 6.729 15 15z"/></svg>