<svg id="Capa_1" enable-background="new 0 0 512 512" height="512" viewBox="0 0 512 512" width="512" xmlns="http://www.w3.org/2000/svg"><g><path d="m437.02 74.98c-48.353-48.352-112.64-74.98-181.02-74.98s-132.667 26.628-181.02 74.98c-48.351 48.353-74.98 112.64-74.98 181.02s26.629 132.667 74.98 181.02c48.353 48.351 112.64 74.98 181.02 74.98s132.667-26.629 181.02-74.98c48.351-48.353 74.98-112.64 74.98-181.02s-26.629-132.667-74.98-181.02zm-407.02 181.02c0-10.281.69-20.405 2.027-30.326h201.338l44.413-44.413h191.523c4.157 11.831 7.357 24.108 9.504 36.739h-113.67l-58.239 58.239h-275.998c-.594-6.668-.898-13.419-.898-20.239zm426.231-104.739h-190.88l-44.413 44.413h-182.764c5.113-18.44 12.51-35.939 21.867-52.174h141.672l69.287-69.287v-43.721c80.486 5.3 149.599 52.925 185.231 120.769zm-215.231-120.769v31.294l-51.713 51.714h-108.578c38.515-47.289 95.746-78.758 160.291-83.008zm-125.71 402.241h189.975l33.553 33.553c-25.657 10.14-53.599 15.714-82.818 15.714-53.151 0-102.076-18.444-140.71-49.267zm252.203 19.803-49.803-49.802h-233.447c-23.376-27.322-40.361-60.267-48.615-96.495h283.693l58.24-58.239h104.3c.093 2.656.14 5.322.14 8-.001 84.101-46.177 157.62-114.508 196.536z"/><path d="m319.369 86.304h30v30h-30z"/><path d="m105.717 339.486h30v30h-30z"/><path d="m382.282 306.217h30v30h-30z"/></g></svg>