<svg id="Capa_1" enable-background="new 0 0 510 510" height="512" viewBox="0 0 510 510" width="512" xmlns="http://www.w3.org/2000/svg"><g><path d="m457.5 194.986h-97.5v-90h-78.941c12.593-23.087 9.147-52.664-10.369-72.18-23.724-23.723-62.324-23.721-86.046 0l-4.644 4.643-4.644-4.644c-23.724-23.723-62.324-23.721-86.046 0-19.713 19.713-22.93 49.296-10.4 72.179h-78.91v330h45c0 33.084 26.916 60 60 60s60-26.916 60-60h165c0 33.084 26.916 60 60 60s60-26.916 60-60h60c0-35.355 0-134.346 0-170zm-346.977-140.966c12.025-12.025 31.592-12.027 43.62 0l25.857 25.856 25.856-25.856c12.025-12.026 31.595-12.026 43.62.001 12.055 12.055 12.055 31.564 0 43.62l-69.476 69.475-69.477-69.476c-12.026-12.027-12.026-31.594 0-43.62zm-5.08 80.966 74.557 74.557 74.557-74.557h75.443v120h-300v-120zm-75.443 150h300v30h-300zm75 180c-16.542 0-30-13.458-30-30s13.458-30 30-30 30 13.458 30 30-13.458 30-30 30zm285 0c-16.542 0-30-13.458-30-30s13.458-30 30-30 30 13.458 30 30-13.458 30-30 30zm90-60h-38.072c-10.391-17.915-29.768-30-51.928-30s-41.537 12.085-51.928 30h-181.144c-10.391-17.915-29.769-30-51.928-30s-41.537 12.085-51.928 30h-23.072v-60h450zm-120-90v-90h82.5l37.5 50v40z"/></g></svg>