<svg id="Capa_1" enable-background="new 0 0 510 510" height="512" viewBox="0 0 510 510" width="512" xmlns="http://www.w3.org/2000/svg"><g><path d="m255 195c-33.084 0-60 26.916-60 60s26.916 60 60 60 60-26.916 60-60-26.916-60-60-60zm0 90c-16.542 0-30-13.458-30-30s13.458-30 30-30 30 13.458 30 30-13.458 30-30 30z"/><path d="m465 210c-19.555 0-36.228 12.542-42.42 30h-33.418c-2.888-26-13.187-49.792-28.733-69.216l23.675-23.674c6.113 2.912 12.749 4.377 19.389 4.377 39.81 0 60.206-48.413 31.82-76.798-17.545-17.545-46.095-17.546-63.64 0-13.827 13.827-16.749 34.485-8.782 51.208l-23.675 23.674c-19.424-15.547-43.216-25.846-69.216-28.733v-33.418c17.459-6.192 30-22.865 30-42.42 0-24.813-20.186-45-45-45s-45 20.187-45 45c0 19.555 12.541 36.228 30 42.42v33.418c-26 2.887-49.793 13.186-69.216 28.733l-23.675-23.674c7.967-16.724 5.045-37.381-8.782-51.208-17.546-17.546-46.096-17.545-63.64 0-28.372 28.371-8.003 76.798 31.82 76.798 6.64 0 13.275-1.465 19.389-4.377l23.675 23.674c-15.548 19.424-25.846 43.216-28.733 69.216h-33.418c-6.192-17.458-22.865-30-42.42-30-24.813 0-45 20.187-45 45 0 24.814 20.187 45 45 45 19.555 0 36.228-12.541 42.42-30h33.418c2.887 26 13.186 49.793 28.733 69.216l-23.675 23.675c-16.725-7.968-37.383-5.046-51.209 8.782-17.546 17.546-17.546 46.094 0 63.64 8.772 8.772 20.296 13.159 31.82 13.159 33.083 0 54.823-34.516 40.602-64.368l23.675-23.675c19.423 15.548 43.216 25.845 69.216 28.733v33.418c-17.459 6.192-30 22.865-30 42.42 0 24.814 20.186 45 45 45s45-20.186 45-45c0-19.555-12.541-36.228-30-42.42v-33.418c26-2.888 49.792-13.186 69.216-28.733l23.675 23.675c-14.226 29.861 7.529 64.368 40.602 64.368 39.81 0 60.206-48.413 31.82-76.799-13.827-13.828-34.486-16.75-51.209-8.783l-23.674-23.674c15.546-19.423 25.844-43.216 28.732-69.216h33.418c6.192 17.459 22.865 30 42.42 30 24.814 0 45-20.186 45-45 0-24.813-20.186-45-45-45zm-50.9-114.099c5.849 5.849 5.849 15.365 0 21.213-9.389 9.388-25.607 2.723-25.607-10.607-.001-13.304 16.192-20.02 25.607-10.606zm-159.1-65.901c8.272 0 15 6.729 15 15s-6.728 15-15 15c-8.271 0-15-6.729-15-15s6.729-15 15-15zm-159.1 87.114c-5.849-5.849-5.849-15.365 0-21.213 5.861-5.861 15.352-5.862 21.214 0 5.862 5.863 5.862 15.35 0 21.213-5.848 5.849-15.363 5.85-21.214 0zm-50.9 152.886c-8.271 0-15-6.728-15-15 0-8.271 6.729-15 15-15s15 6.729 15 15c0 8.272-6.729 15-15 15zm72.114 144.1c-5.849 5.848-15.363 5.849-21.214 0-9.457-9.456-2.668-25.601 10.606-25.601 3.842 0 7.683 1.463 10.608 4.387 5.849 5.848 5.849 15.365 0 21.214zm137.886 65.9c-8.271 0-15-6.728-15-15s6.729-15 15-15c8.272 0 15 6.728 15 15s-6.728 15-15 15zm0-120c-57.898 0-105-47.103-105-105s47.102-105 105-105 105 47.103 105 105-47.103 105-105 105zm159.1 32.886c5.849 5.849 5.849 15.365 0 21.214-5.85 5.849-15.364 5.848-21.214 0-5.849-5.849-5.849-15.365 0-21.214 5.852-5.851 15.364-5.848 21.214 0zm50.9-122.886c-8.272 0-15-6.728-15-15 0-8.271 6.728-15 15-15s15 6.729 15 15c0 8.272-6.728 15-15 15z"/></g></svg>