<?xml version="1.0" encoding="iso-8859-1"?>
<!-- Generator: Adobe Illustrator 19.0.0, SVG Export Plug-In . SVG Version: 6.00 Build 0)  -->
<svg xmlns="http://www.w3.org/2000/svg" xmlns:xlink="http://www.w3.org/1999/xlink" version="1.1" id="Layer_1" x="0px" y="0px" viewBox="0 0 512 512" style="enable-background:new 0 0 512 512;" xml:space="preserve">
<g>
	<g>
		<path d="M437.019,74.981C388.667,26.629,324.38,0,256,0S123.333,26.629,74.981,74.981C26.629,123.333,0,187.62,0,256    s26.629,132.667,74.981,181.019C123.333,485.371,187.62,512,256,512s132.667-26.629,181.019-74.981    C485.371,388.667,512,324.38,512,256S485.371,123.333,437.019,74.981z M256,477.867c-122.337,0-221.867-99.529-221.867-221.867    S133.663,34.133,256,34.133S477.867,133.663,477.867,256S378.337,477.867,256,477.867z"/>
	</g>
</g>
<g>
	<g>
		<path d="M369.778,184.806v-34.133h-32.803c-1.313-4.855-3.22-9.578-5.719-14.06l27.835-27.835l-24.136-24.136l-27.835,27.835    c-4.482-2.5-9.205-4.405-14.06-5.72V73.956h-34.133v33.141c-5.333,1.563-10.489,3.864-15.329,6.871l-21.28-21.28l-24.136,24.136    l20.114,20.114l-24.136,24.136l-20.114-20.114l-24.136,24.136l20.114,20.114l-24.137,24.137l-20.114-20.114l-24.135,24.136    l21.28,21.28c-3.008,4.839-5.308,9.997-6.871,15.329H82.908v34.133h32.802c1.313,4.855,3.22,9.577,5.719,14.06l-27.833,27.833    l24.136,24.136l27.833-27.833c4.482,2.5,9.205,4.405,14.06,5.718v32.802h34.133v-33.142c5.333-1.563,10.489-3.863,15.328-6.871    l21.28,21.28l24.136-24.136l-20.114-20.112l24.136-24.136l20.114,20.114l24.136-24.136l-20.112-20.114l24.137-24.137    l20.112,20.114l24.136-24.136l-21.28-21.28c3.007-4.839,5.308-9.995,6.87-15.328H369.778z M296.739,187.22L196.172,287.788    c-11.09,11.09-29.136,11.089-40.226-0.002c-5.373-5.371-8.331-12.514-8.331-20.112s2.959-14.741,8.331-20.114l100.566-100.566    c5.373-5.373,12.516-8.331,20.114-8.331c7.598,0,14.741,2.959,20.112,8.331c11.09,11.09,11.09,29.136,0,40.226H296.739z"/>
	</g>
</g>
<g>
	<g>
		
			<rect x="233.407" y="181.875" transform="matrix(0.7071 -0.7071 0.7071 0.7071 -63.2883 233.714)" width="34.133" height="22.755"/>
	</g>
</g>
<g>
	<g>
		<path d="M352.711,295.822c-31.369,0-56.889,25.52-56.889,56.889s25.52,56.889,56.889,56.889s56.889-25.52,56.889-56.889    S384.08,295.822,352.711,295.822z M352.711,375.467c-12.547,0-22.756-10.208-22.756-22.756s10.208-22.756,22.756-22.756    s22.756,10.208,22.756,22.756S365.259,375.467,352.711,375.467z"/>
	</g>
</g>
<g>
</g>
<g>
</g>
<g>
</g>
<g>
</g>
<g>
</g>
<g>
</g>
<g>
</g>
<g>
</g>
<g>
</g>
<g>
</g>
<g>
</g>
<g>
</g>
<g>
</g>
<g>
</g>
<g>
</g>
</svg>
