<svg id="Capa_1" enable-background="new 0 0 512 512" height="512" viewBox="0 0 512 512" width="512" xmlns="http://www.w3.org/2000/svg"><g><path d="m401.395 84.809v-84.809h-290.79v84.809c-28.368 10.703-48.605 38.123-48.605 70.191v282c0 41.355 33.645 75 75 75h238c41.355 0 75-33.645 75-75v-282c0-32.068-20.237-59.488-48.605-70.191zm-260.79-54.809h230.789v50h-230.789zm-3.605 80h238c24.813 0 45 20.187 45 45v23.398h-68.866c-26.866-21.75-60.424-33.664-95.134-33.664s-68.268 11.915-95.134 33.664h-68.866v-23.398c0-24.813 20.187-45 45-45zm283 98.398v175.203h-79.968l-4.241 3.709c-22.085 19.316-50.422 29.955-79.791 29.955s-57.706-10.638-79.791-29.955l-4.241-3.709h-79.968v-175.203h79.968l4.241-3.709c22.085-19.316 50.422-29.955 79.791-29.955s57.706 10.638 79.791 29.955l4.241 3.709zm-45 273.602h-238c-24.813 0-45-20.187-45-45v-23.398h68.866c26.866 21.75 60.424 33.664 95.134 33.664s68.268-11.915 95.134-33.664h68.866v23.398c0 24.813-20.187 45-45 45z"/><path d="m305.063 231.006-49.063-28.326-49.063 28.327v39.335l-34.063 19.667v56.653l49.063 28.326 34.063-19.667 34.063 19.666 49.063-28.326v-56.653l-34.063-19.667zm-68.126 17.321 19.063-11.007 19.063 11.006v22.012l-19.063 11.007-19.063-11.006zm-34.063 81.013v-22.012l19.063-11.006 19.063 11.006v22.012l-19.063 11.006zm106.252 0-19.063 11.006-19.063-11.006v-22.012l19.063-11.006 19.063 11.006z"/></g></svg>