<svg id="Capa_1" enable-background="new 0 0 512.017 512.017" height="512" viewBox="0 0 512.017 512.017" width="512" xmlns="http://www.w3.org/2000/svg"><g><path d="m512.017 448.377-87.753-87.753 21.213-21.213-254.558-254.559 21.213-21.213-21.213-21.213-84.853 84.853-42.426-42.427 21.213-21.213-21.213-21.213-63.64 63.64 21.213 21.213 21.214-21.214 42.427 42.427-63.64 63.64 21.213 21.213c23.396-23.395 61.46-23.394 84.854 0l148.492 148.492 42.427-42.427 63.64 63.64 21.213-21.213 87.753 87.753zm-299.885-299.885-21.213 21.213-42.427-42.426 21.214-21.213zm-63.64 63.64c-16.286-16.286-37.304-25.013-58.671-26.182l37.458-37.458 63.64 63.64 42.426-42.427 106.066 106.066-63.64 63.64zm190.919 106.066 21.213-21.213 42.427 42.427-21.213 21.213z"/><path d="m239.558 209.558h30v90h-30z" transform="matrix(.707 -.707 .707 .707 -105.442 254.562)"/></g></svg>