<svg id="Capa_1" enable-background="new 0 0 512 512" height="512" viewBox="0 0 512 512" width="512" xmlns="http://www.w3.org/2000/svg"><g><path d="m512 106.42-106.42-106.42c-37.68 41.103-88.413 69.383-142.917 76.157-45.208 5.839-89.166 28.116-123.777 62.727s-56.888 78.569-62.727 123.777c-6.518 54.28-35.388 105.508-76.159 142.919l106.422 106.418c37.68-41.103 88.413-69.383 142.917-76.157 45.208-5.839 89.166-28.116 123.777-62.727s56.888-78.57 62.727-123.777c6.774-54.504 35.054-105.237 76.157-142.917zm-42.121.305c-16.046 18.01-29.474 38.117-39.935 59.578-41.979-9.437-74.811-42.268-84.248-84.248 21.461-10.461 41.568-23.889 59.578-39.935zm-101.266 96.051c-13.703 31.251-38.318 65.531-69.311 96.524s-65.272 55.608-96.523 69.312c-8.077 3.541-16.277 7.567-24.505 12.015-3.218-5.26-6.767-10.292-10.622-15.065l197.909-197.909c4.774 3.855 9.806 7.405 15.066 10.623-4.447 8.224-8.472 16.423-12.014 24.5zm-237.239 130.949c4.448-8.227 8.473-16.427 12.015-24.502 13.704-31.252 38.319-65.532 69.312-96.524 30.993-30.993 65.273-55.608 96.523-69.312 8.076-3.541 16.276-7.566 24.502-12.013 3.218 5.26 6.767 10.292 10.623 15.066l-197.91 197.907c-4.773-3.855-9.805-7.405-15.065-10.622zm28.726-173.627c29.949-29.949 67.738-49.193 106.407-54.187 17.424-2.251 34.574-6.354 51.156-12.157.936 3.545 1.998 7.036 3.194 10.464-7.971 4.359-15.899 8.282-23.68 11.694-34.587 15.166-72.121 42.006-105.689 75.574s-60.407 71.102-75.573 105.689c-3.411 7.78-7.335 15.71-11.694 23.682-3.428-1.196-6.919-2.258-10.463-3.194 5.802-16.583 9.905-33.733 12.156-51.157 4.993-38.671 24.237-76.46 54.186-106.408zm-117.98 245.176c16.048-18.011 29.477-38.118 39.938-59.579 41.979 9.437 74.807 42.27 84.244 84.249-21.46 10.461-41.566 23.889-59.576 39.935zm203.376.813c-17.425 2.251-34.576 6.354-51.16 12.158-.936-3.545-1.998-7.036-3.194-10.464 7.972-4.36 15.902-8.283 23.684-11.695 34.587-15.166 72.121-42.006 105.689-75.573 33.568-33.568 60.408-71.103 75.574-105.689 3.412-7.781 7.335-15.71 11.694-23.68 3.428 1.196 6.919 2.258 10.464 3.194-5.803 16.583-9.906 33.733-12.156 51.156-4.994 38.669-24.238 76.458-54.187 106.407-29.95 29.948-67.74 49.192-106.408 54.186z"/><path d="m98.848 120.1 19.979-22.379-16.891-15.078-2.059-28.555-35.332-17.61-13.382 26.851 20.022 9.979 1.704 23.618z"/><path d="m176.364 35.427-17.416-35.427-26.922 13.235 9.869 20.077-12.967 19.815 6.589 34.167 29.457-5.681-4.287-22.231z"/><path d="m53.127 128.928-19.815 12.967-20.077-9.869-13.235 26.922 35.427 17.416 23.955-15.677 22.231 4.287 5.681-29.457z"/><path d="m413.152 391.899-19.979 22.38 16.891 15.078 2.059 28.555 35.332 17.609 13.382-26.85-20.023-9.979-1.703-23.619z"/><path d="m383.072 458.873-6.589-34.167-29.458 5.681 4.288 22.23-15.678 23.956 17.417 35.427 26.922-13.236-9.869-20.076z"/><path d="m458.873 383.072 19.815-12.967 20.076 9.869 13.236-26.922-35.427-17.417-23.956 15.678-22.23-4.288-5.681 29.458z"/></g></svg>