<?xml version="1.0" encoding="iso-8859-1"?>
<!-- Generator: Adobe Illustrator 19.0.0, SVG Export Plug-In . SVG Version: 6.00 Build 0)  -->
<svg xmlns="http://www.w3.org/2000/svg" xmlns:xlink="http://www.w3.org/1999/xlink" version="1.1" id="Layer_1" x="0px" y="0px" viewBox="0 0 512 512" style="enable-background:new 0 0 512 512;" xml:space="preserve">
<g>
	<g>
		<path d="M88.816,276.898C39.843,276.898,0,316.741,0,365.714s39.843,88.816,88.816,88.816s88.816-39.843,88.816-88.816    S137.79,276.898,88.816,276.898z M88.816,423.184c-31.689,0-57.469-25.781-57.469-57.469s25.781-57.469,57.469-57.469    s57.469,25.781,57.469,57.469S120.505,423.184,88.816,423.184z"/>
	</g>
</g>
<g>
	<g>
		<path d="M423.184,276.898c-48.973,0-88.816,39.843-88.816,88.816s39.843,88.816,88.816,88.816    c48.973,0,88.816-39.843,88.816-88.816S472.157,276.898,423.184,276.898z M423.184,423.184c-31.689,0-57.469-25.781-57.469-57.469    s25.781-57.469,57.469-57.469c31.689,0,57.469,25.781,57.469,57.469S454.872,423.184,423.184,423.184z"/>
	</g>
</g>
<g>
	<g>
		<circle cx="88.816" cy="365.714" r="15.673"/>
	</g>
</g>
<g>
	<g>
		<circle cx="423.184" cy="365.714" r="15.673"/>
	</g>
</g>
<g>
	<g>
		<path d="M438.857,215.026V151.51H324.896l-50.922-94.041h-72.031v31.347H255.3l39.83,73.557l-42.262,29.657L91.803,151.51h-18.66    v63.516c-21.156,2.196-41.677,8.806-60.093,19.46l15.696,27.135c18.174-10.514,38.945-16.071,60.07-16.071    c66.258,0,120.163,53.905,120.163,120.163v15.673h94.041v-15.673c0-66.258,53.905-120.163,120.163-120.163    c21.125,0,41.896,5.557,60.07,16.071l15.696-27.135C480.534,223.833,460.013,217.223,438.857,215.026z M407.51,215.018    c-71.051,7.337-127.695,63.972-135.032,135.023h-32.956c-7.337-71.051-63.981-127.686-135.032-135.023v-27.993l154.643,38.904    l61.377-43.072h87V215.018z"/>
	</g>
</g>
<g>
</g>
<g>
</g>
<g>
</g>
<g>
</g>
<g>
</g>
<g>
</g>
<g>
</g>
<g>
</g>
<g>
</g>
<g>
</g>
<g>
</g>
<g>
</g>
<g>
</g>
<g>
</g>
<g>
</g>
</svg>
