<?xml version="1.0" encoding="iso-8859-1"?>
<!-- Generator: Adobe Illustrator 19.0.0, SVG Export Plug-In . SVG Version: 6.00 Build 0)  -->
<svg xmlns="http://www.w3.org/2000/svg" xmlns:xlink="http://www.w3.org/1999/xlink" version="1.1" id="Layer_1" x="0px" y="0px" viewBox="0 0 512.001 512.001" style="enable-background:new 0 0 512.001 512.001;" xml:space="preserve">
<g>
	<g>
		<path d="M436.217,309.139l46.878-100.668L168.101,51.305l6.954-14.933L96.948,0L28.906,146.118l78.107,36.372l6.186-13.286    l189.477,82.084v41.008H286.87v31.428h15.806v72.07l-70.843,96.779l25.359,18.565l45.484-62.136v63h31.428v-63.986l47.53,63.277    l25.129-18.875l-72.658-96.731v-71.962h15.806v-31.428h-15.806v-27.394L436.217,309.139z M423.443,213.831l18.248,9.105    l-21.05,45.206l-18.713-8.106L423.443,213.831z M91.79,140.732l-21.126-9.837l41.508-89.139l21.126,9.838L91.79,140.732z     M126.472,140.704l16.347-35.105l12.011-25.793l240.481,119.988l-22.232,47.743L126.472,140.704z"/>
	</g>
</g>
<g>
</g>
<g>
</g>
<g>
</g>
<g>
</g>
<g>
</g>
<g>
</g>
<g>
</g>
<g>
</g>
<g>
</g>
<g>
</g>
<g>
</g>
<g>
</g>
<g>
</g>
<g>
</g>
<g>
</g>
</svg>
