<svg id="Capa_1" enable-background="new 0 0 512 512" height="512" viewBox="0 0 512 512" width="512" xmlns="http://www.w3.org/2000/svg"><g><path d="m452 423.509v-423.509h-30v30h-332v-30h-30v423.509c-34.192 6.969-60 37.272-60 73.491v15h150v-15c0-36.219-25.808-66.522-60-73.491v-31.509h332v31.509c-34.192 6.968-60 37.271-60 73.491v15h150v-15c0-36.219-25.808-66.522-60-73.491zm-83.697-197.509-112.303 51.498-112.303-51.498zm-224.606-30 112.303-51.498 112.303 51.498zm278.303 38.38v119.24l-130.014-59.62zm0-46.76-130.014-59.62 130.014-59.62zm-166-76.122-112.303-51.498h224.607zm-35.986 16.502-130.014 59.62v-119.24zm0 166-130.014 59.62v-119.24zm35.986 16.502 112.303 51.498h-224.606zm-138.57 171.498h-84.86c6.19-17.461 22.873-30 42.43-30s36.239 12.539 42.43 30zm277.14 0c6.19-17.461 22.873-30 42.43-30s36.239 12.539 42.43 30z"/></g></svg>