<svg id="Capa_1" enable-background="new 0 0 512 512" height="512" viewBox="0 0 512 512" width="512" xmlns="http://www.w3.org/2000/svg"><g><path d="m301.25 451.75h30v-150.499h-45.325v30h15.325z"/><path d="m225.874 451.75c24.882 0 45.125-20.243 45.125-45.125v-60.249c0-24.882-20.243-45.125-45.125-45.125s-45.125 20.243-45.125 45.125v60.249c0 24.882 20.243 45.125 45.125 45.125zm-15.125-105.374c0-8.34 6.785-15.125 15.125-15.125s15.125 6.785 15.125 15.125v60.249c0 8.34-6.785 15.125-15.125 15.125s-15.125-6.785-15.125-15.125z"/><path d="m149.5 88.876c-24.882 0-45.125 20.243-45.125 45.125v30.124c0 24.882 20.243 45.125 45.125 45.125s45.125-20.243 45.125-45.125v-30.124c0-24.882-20.243-45.125-45.125-45.125zm15.125 75.249c0 8.34-6.785 15.125-15.125 15.125s-15.125-6.785-15.125-15.125v-30.124c0-8.34 6.785-15.125 15.125-15.125s15.125 6.785 15.125 15.125z"/><path d="m255.999 118.876c8.34 0 15.125 6.785 15.125 15.125h30c0-24.882-20.243-45.125-45.125-45.125s-45.125 20.243-45.125 45.125v30.124c0 24.882 20.243 45.125 45.125 45.125s45.125-20.243 45.125-45.125h-30c0 8.34-6.785 15.125-15.125 15.125s-15.125-6.785-15.125-15.125v-30.124c0-8.34 6.785-15.125 15.125-15.125z"/><path d="m317.375 88.874v30h30.125v90.376h30v-90.376h30.125v-30z"/><path d="m406.562 15.125v-15.125h-30v15.125h-60.375v-15.125h-30v15.125h-60.375v-15.125h-30v15.125h-60.375v-15.125h-30v15.125h-75.312v496.875h451.75v-496.875zm45.313 466.875h-391.75v-211.001h391.75zm0-241.001h-391.75v-195.874h45.312v15.125h30v-15.125h60.375v15.125h30v-15.125h60.375v15.125h30v-15.125h60.375v15.125h30v-15.125h45.312v195.874z"/></g></svg>