<svg id="Capa_1" enable-background="new 0 0 512 512" height="512" viewBox="0 0 512 512" width="512" xmlns="http://www.w3.org/2000/svg"><path d="m405.556 421.75h-36.906c16.996-9.811 32.819-21.909 47.068-36.157 42.662-42.662 66.157-99.384 66.157-159.718s-23.495-117.056-66.157-159.718-99.385-66.157-159.718-66.157-117.056 23.495-159.718 66.157-66.157 99.384-66.157 159.718 23.495 117.056 66.157 159.718 99.385 66.157 159.718 66.157h149.556c8.34 0 15.125 6.785 15.125 15.125s-6.785 15.125-15.125 15.125h-270.056c-8.34 0-15.125-6.785-15.125-15.125 0-24.882-20.243-45.125-45.125-45.125s-45.125 20.243-45.125 45.125v45.125h30v-45.125c0-8.34 6.785-15.125 15.125-15.125s15.125 6.785 15.125 15.125c0 24.882 20.243 45.125 45.125 45.125h270.056c24.882 0 45.125-20.243 45.125-45.125s-20.243-45.125-45.125-45.125zm-340.176-150.75h55.12v30.25h-45.283c-4.066-9.714-7.368-19.822-9.837-30.25zm-5.255-45.125c0-5.089.196-10.133.579-15.125h59.796v30.25h-59.796c-.383-4.992-.579-10.036-.579-15.125zm60.375-45.125h-55.12c2.468-10.428 5.771-20.536 9.836-30.25h45.284zm30-119.847c9.55-6.129 19.668-11.442 30.25-15.862v256.209h-30.25zm60.25-25.617c9.822-2.332 19.923-3.931 30.25-4.717v270.681h-30.25zm235.87 145.464h-55.12v-30.25h45.283c4.066 9.714 7.368 19.822 9.837 30.25zm5.255 45.125c0 5.089-.196 10.133-.579 15.125h-59.796v-30.25h59.796c.383 4.992.579 10.036.579 15.125zm-60.375 45.125h55.12c-2.468 10.428-5.771 20.536-9.836 30.25h-45.284zm-30 119.847c-9.55 6.129-19.668 11.442-30.25 15.862v-256.209h30.25zm-60.25 25.617c-9.822 2.332-19.923 3.931-30.25 4.717v-270.681h30.25zm-30.25-385.895c32.703 2.488 63.181 13.051 89.456 29.681h-89.456zm-30 390.612c-32.703-2.488-63.181-13.051-89.456-29.681h89.456zm150.5-53.996v-35.935h29.551c-8.411 13.128-18.347 25.188-29.551 35.935zm29.551-246.685h-150.051v-30.25h126.188c8.9 9.261 16.904 19.389 23.863 30.25zm-300.551-35.935v35.935h-29.551c8.411-13.128 18.347-25.188 29.551-35.935zm-29.551 246.685h150.051v30.25h-126.188c-8.9-9.261-16.904-19.389-23.863-30.25z"/></svg>