<svg id="Capa_1" enable-background="new 0 0 510 510" height="512" viewBox="0 0 510 510" width="512" xmlns="http://www.w3.org/2000/svg"><g><path d="m75 0v510h360v-510zm330 480h-300v-450h300z"/><path d="m285 150h15c24.814 0 45-20.187 45-45s-20.186-45-45-45c-40.094 0-91.003 0-135 0v150h120zm15-60c8.272 0 15 6.729 15 15s-6.728 15-15 15h-15v-30zm-45 90h-60v-90h60z"/><path d="m150 240h150v30h-150z"/><path d="m330 240h30v30h-30z"/><path d="m150 300h150v30h-150z"/><path d="m330 300h30v30h-30z"/><path d="m150 360h150v30h-150z"/><path d="m330 360h30v30h-30z"/><path d="m150 420h150v30h-150z"/><path d="m330 420h30v30h-30z"/></g></svg>