<svg id="Capa_1" enable-background="new 0 0 512 512" height="512" viewBox="0 0 512 512" width="512" xmlns="http://www.w3.org/2000/svg"><g><path d="m512 253.235-38.658-38.657h-43.655v-23.685c0-68.382-55.634-124.016-124.016-124.016h-99.342c-68.383 0-124.016 55.633-124.016 124.016v23.685h-43.655l-38.658 38.657v76.616h32.234v115.273h447.532v-115.274h32.234zm-399.787-62.342c0-51.895 42.22-94.116 94.116-94.116h99.342c51.896 0 94.116 42.22 94.116 94.116v23.685h-45.056c3.574-7.189 5.595-15.28 5.595-23.838 0-29.631-24.107-53.738-53.738-53.738h-101.176c-29.631 0-53.738 24.107-53.738 53.738 0 8.558 2.021 16.649 5.595 23.838h-45.056zm69.361-.153c0-13.145 10.694-23.838 23.838-23.838h101.176c13.145 0 23.838 10.694 23.838 23.838s-10.694 23.838-23.838 23.838h-101.176c-13.144-.001-23.838-10.694-23.838-23.838zm-119.44 139.11h29.416v85.372h-29.416zm328.416 0v85.372h-29.9v-85.372zm-59.8 85.373h-29.9v-85.373h29.9zm-59.8 0h-29.9v-85.373h29.9zm-59.8 0h-29.9v-85.373h29.9zm-59.8 0h-29.9v-85.373h29.9zm298.516 0h-29.416v-85.373h29.415v85.373zm32.234-115.273h-452.2v-34.33l21.142-21.143h409.916l21.142 21.143z"/></g></svg>