<svg id="Capa_1" enable-background="new 0 0 510 510" height="512" viewBox="0 0 510 510" width="512" xmlns="http://www.w3.org/2000/svg"><g><path d="m260.789 365.836c-16.085 16.085-37.207 24.127-58.337 24.125-21.124-.002-42.255-8.044-58.337-24.125-32.166-32.167-32.166-84.506 0-116.673l143.189-143.189-84.852-84.853-143.189 143.19c-78.954 78.955-78.954 207.423.001 286.378 38.247 38.247 89.099 59.311 143.188 59.311s104.941-21.064 143.188-59.311l143.19-143.189-84.853-84.853zm-15.91-259.861-31.82 31.82-42.427-42.426 31.82-31.82zm79.549 323.501c-32.581 32.581-75.899 50.524-121.976 50.524s-89.395-17.943-121.977-50.524c-67.257-67.258-67.257-176.694 0-243.952l68.943-68.943 42.427 42.426-68.943 68.943c-43.863 43.864-43.862 115.235.001 159.099 43.864 43.865 115.236 43.864 159.099 0l68.942-68.943 42.427 42.426zm90.156-90.156-42.427-42.427 31.82-31.82 42.427 42.426z"/><path d="m451.199 65.632h-6.878v-6.877c0-32.398-26.357-58.755-58.754-58.755s-58.755 26.357-58.755 58.754l4.155 120.23 119.712 4.147.52.009c32.397 0 58.754-26.357 58.754-58.754-.001-32.397-26.357-58.754-58.754-58.754zm.234 87.508-91.452-3.167-3.168-91.452c.127-15.748 12.976-28.521 28.754-28.521 15.855 0 28.754 12.899 28.754 28.754v36.877h36.878c15.855 0 28.754 12.899 28.754 28.754-.001 15.778-12.773 28.628-28.52 28.755z"/></g></svg>