<?xml version="1.0" encoding="iso-8859-1"?>
<!-- Generator: Adobe Illustrator 19.0.0, SVG Export Plug-In . SVG Version: 6.00 Build 0)  -->
<svg xmlns="http://www.w3.org/2000/svg" xmlns:xlink="http://www.w3.org/1999/xlink" version="1.1" id="Layer_1" x="0px" y="0px" viewBox="0 0 512 512" style="enable-background:new 0 0 512 512;" xml:space="preserve">
<g>
	<g>
		<path d="M341.333,113.778V0H170.667v113.778h-34.133v312.889c0,47.053,38.281,85.333,85.333,85.333h68.267    c47.053,0,85.333-38.281,85.333-85.333V113.778H341.333z M204.8,34.133h102.4v79.644H204.8V34.133z M341.333,426.667    c0,28.232-22.967,51.2-51.2,51.2h-68.267c-28.233,0-51.2-22.968-51.2-51.2V147.911h170.667V426.667z"/>
	</g>
</g>
<g>
	<g>
		<path d="M273.067,345.814v-84.125H307.2L256,193.422l-51.2,68.267h34.133v84.587c-9.548,5.882-15.929,16.431-15.929,28.444    c0,18.41,14.978,33.387,33.388,33.387c18.41,0,33.387-14.978,33.387-33.387C289.779,362.382,283.047,351.593,273.067,345.814z"/>
	</g>
</g>
<g>
</g>
<g>
</g>
<g>
</g>
<g>
</g>
<g>
</g>
<g>
</g>
<g>
</g>
<g>
</g>
<g>
</g>
<g>
</g>
<g>
</g>
<g>
</g>
<g>
</g>
<g>
</g>
<g>
</g>
</svg>
