<svg id="Capa_1" enable-background="new 0 0 512 512" height="512" viewBox="0 0 512 512" width="512" xmlns="http://www.w3.org/2000/svg"><g><path d="m457.871 205.131v-205.13l-403.742-.001v205.129c0 20.465 9.381 38.78 24.069 50.871-14.688 12.091-24.069 30.406-24.069 50.871v205.129l403.741-.001v-205.13c0-20.464-9.382-38.778-24.068-50.868 14.687-12.092 24.068-30.406 24.069-50.87zm-30 0c-.001 19.778-16.092 35.869-35.871 35.869v30c19.778 0 35.869 16.09 35.87 35.868v175.13l-343.741.002v-175.129c0-19.778 16.091-35.869 35.869-35.87v-30.001c-19.778 0-35.869-16.092-35.869-35.87v-175.13l343.741.001v175.13z"/><path d="m149.999 240.999h71.001v30h-71.001z"/><path d="m291 241h71.001v30h-71.001z"/><path d="m291 334.043h101.001v30h-101.001z"/><path d="m291 394.043h71.001v30h-71.001z"/><path d="m214.355 374.603c6.064-7.668 9.688-17.351 9.688-27.864 0-24.813-20.187-45-45-45s-45 20.187-45 45c0 10.513 3.624 20.195 9.688 27.864-12.029 10.097-19.688 25.239-19.688 42.136v35h110v-35c0-16.898-7.659-32.039-19.688-42.136zm-35.312-42.864c8.271 0 15 6.729 15 15s-6.729 15-15 15-15-6.729-15-15 6.729-15 15-15zm25 90h-50v-5c0-13.785 11.215-25 25-25s25 11.215 25 25z"/><g><path d="m361.978 150.5h30v30h-30z"/><path d="m291 150.5h30v30h-30z"/><path d="m291 90.5h100.979v30h-100.979z"/><path d="m200.717 99.334-50.297-13.863-7.97 28.922 33.872 9.336-26.771 26.771h-23.787v30h36.213l80.951-80.951-21.213-21.213z"/></g></g></svg>