<svg id="Capa_1" enable-background="new 0 0 512 512" height="512" viewBox="0 0 512 512" width="512" xmlns="http://www.w3.org/2000/svg"><g><path d="m277.921 82.366-21.921 21.921-21.921-21.921-21.213 21.214 21.921 21.92-21.921 21.92 21.213 21.214 21.921-21.921 21.921 21.921 21.213-21.214-21.921-21.92 21.921-21.92z"/><path d="m362 160.858v-160.858h-212v160.858h-150v351.142h512v-351.142zm-182-130.858h152v191h-152zm-150 452v-110.977h452v110.977zm452-140.977h-452v-29.866h452zm-452-59.865v-90.3h120v30.15h-90.071v30h392v-30h-89.929v-30.15h120v90.3z"/></g></svg>