<svg id="Capa_1" enable-background="new 0 0 510 510" height="512" viewBox="0 0 510 510" width="512" xmlns="http://www.w3.org/2000/svg"><g><path d="m420 15v45l-54.271.001-4.145 8.291c-6.695 13.39-20.154 21.708-35.125 21.708h-142.918c-14.971 0-28.43-8.318-35.125-21.708l-4.146-8.292h-54.27v-45h-90v480h90v-405h36.461c12.808 18.713 33.918 30 57.08 30h142.918c23.162 0 44.272-11.287 57.08-30h36.461v405h90v-480zm-360 30v240h-30v-240zm0 270v30h-30v-30zm-30 150v-90h30v90zm450-420v240h-30v-240zm-30 270h30v30h-30zm0 150v-90h30v90z"/><path d="m165 375v30h30v90h120v-90h30v-30c-22.291 0-157.261 0-180 0zm120 90h-60v-60h60z"/></g></svg>