<svg id="Capa_1" enable-background="new 0 0 510.113 510.113" height="512" viewBox="0 0 510.113 510.113" width="512" xmlns="http://www.w3.org/2000/svg"><g><path d="m415.916 242.948c-20.263-51.821-46.479-137.454-43.288-239.391h-235.143c3.167 102.105-22.998 187.406-43.29 239.391-9.684 26.634-18.048 49.637-22.385 73.659-12.416 83.859 37.613 175.866 43.894 189.95h278.705c6.194-13.837 56.357-106.263 43.895-189.949-4.338-24.024-12.702-47.026-22.388-73.66zm-160.859 117.906-151.032-51.454c2.9-11.793 6.838-23.878 11.363-36.733h279.338c4.525 12.855 8.463 24.94 11.363 36.733zm-87.727-327.297h175.453c1.993 95.252 22.765 158.25 41.119 209.11h-257.691c18.354-50.86 39.126-113.858 41.119-209.11zm-67.764 306.017 140.49 47.863v89.12h-105.612c-10.137-22.268-36.437-85.339-34.878-136.983zm276.103 136.983h-105.612v-89.12l140.49-47.863c1.559 51.644-24.741 114.715-34.878 136.983z"/><path d="m22.479 50.43h30v71.311h-30z" transform="matrix(.604 -.797 .797 .604 -53.773 63.983)"/><path d="m436.979 71.085h71.311v30h-71.311z" transform="matrix(.797 -.604 .604 .797 43.898 302.832)"/><path d="m1.824 197.028h71.311v30h-71.311z" transform="matrix(.797 -.604 .604 .797 -120.418 65.642)"/><path d="m457.634 176.373h30v71.311h-30z" transform="matrix(.604 -.797 .797 .604 18.244 460.762)"/><path d="m181.057 155.557h30v30h-30z"/><path d="m196.057 92.557h30v30h-30z"/><path d="m256.057 125.557h30v30h-30z"/><path d="m242.057 182.557h30v30h-30z"/><path d="m285.057 65.557h30v30h-30z"/><path d="m303.057 182.557h30v30h-30z"/></g></svg>