<svg id="Capa_1" enable-background="new 0 0 512 512" height="512" viewBox="0 0 512 512" width="512" xmlns="http://www.w3.org/2000/svg"><g><path d="m435.083 109.511c-20.534-13.922-48.574-8.546-62.5 11.992l-9.182 13.541-4.021-5.597c-2.723-3.79-4.938-6.984-6.896-10.253-7.685-12.825-19.905-22.185-33.875-26.514 3.143-7.787 4.891-16.281 4.891-25.181 0-37.219-30.28-67.499-67.5-67.499s-67.5 30.28-67.5 67.5c0 8.899 1.748 17.394 4.891 25.18-13.97 4.328-26.19 13.688-33.874 26.512-1.96 3.271-4.175 6.465-6.898 10.256l-4.02 5.596-9.182-13.542c-13.926-20.537-41.961-25.915-62.501-11.991-20.536 13.926-25.915 41.963-11.989 62.5l16.525 24.374c14.821 21.856 39.435 35.118 65.845 35.474 11.657.162 23.171-2.257 33.703-6.903v287.044h150v-287.044c10.204 4.501 21.323 6.911 32.616 6.911.363 0 .724-.002 1.093-.007 26.404-.356 51.018-13.618 65.839-35.475l16.525-24.373c13.926-20.537 8.547-48.574-11.99-62.501zm-179.083-79.511c20.678 0 37.5 16.822 37.5 37.5s-16.822 37.5-37.5 37.5-37.5-16.822-37.5-37.5 16.822-37.5 37.5-37.5zm15 452v-158.5h-30v158.5h-30v-188.5h90v188.5zm151.243-326.825-16.525 24.372c-9.323 13.749-24.805 22.09-41.407 22.315l-.694.004c-13.813 0-27.216-5.734-36.773-15.733l-25.844-27.033v104.4h-90v-104.4l-25.843 27.034c-9.558 9.999-22.961 15.733-36.773 15.733l-.688-.004c-16.609-.225-32.091-8.566-41.414-22.314l-16.525-24.374c-4.642-6.845-2.849-16.191 3.996-20.833 6.847-4.641 16.191-2.849 20.834 3.997l16.525 24.372c3.882 5.726 10.075 9.062 16.999 9.154 6.924.08 13.189-3.08 17.219-8.691l11.652-16.223c2.733-3.805 5.627-7.932 8.268-12.337 5.483-9.151 15.109-14.614 25.75-14.614h2.639c11.592 9.371 26.328 15 42.361 15s30.769-5.629 42.361-15h2.639c10.641 0 20.267 5.463 25.751 14.616 2.64 4.403 5.533 8.53 8.266 12.334l11.651 16.221c4.03 5.613 10.315 8.812 17.228 8.693 6.917-.092 13.11-3.428 16.992-9.154l16.525-24.372c4.642-6.846 13.987-8.64 20.833-3.998 6.846 4.643 8.639 13.99 3.997 20.835z"/></g></svg>