<svg id="Capa_1" enable-background="new 0 0 512 512" height="512" viewBox="0 0 512 512" width="512" xmlns="http://www.w3.org/2000/svg"><g><path d="m486.291 270.994h25.607v-29.988h-25.607c-.632-9.92-1.884-19.719-3.748-29.351 19.54-23.701 29.949-53.35 29.44-84.348-.554-33.763-14.013-65.51-37.896-89.393s-55.63-37.341-89.393-37.896c-30.983-.507-60.645 9.9-84.348 29.44-9.632-1.865-19.432-3.116-29.352-3.748v-25.607h-29.988v25.607c-9.92.632-19.719 1.884-29.351 3.748-23.701-19.541-53.352-29.949-84.348-29.44-33.763.554-65.51 14.013-89.393 37.896-23.883 23.882-37.342 55.629-37.896 89.392-.509 30.998 9.899 60.648 29.44 84.348-1.865 9.632-3.116 19.432-3.748 29.352h-25.607v29.988h25.607c.632 9.92 1.884 19.719 3.748 29.351-19.54 23.701-29.949 53.35-29.44 84.348.554 33.763 14.013 65.51 37.896 89.393s55.63 37.341 89.393 37.896c.725.012 1.449.018 2.172.018 30.21 0 59.031-10.374 82.177-29.458 9.632 1.865 19.431 3.116 29.35 3.748v25.607h29.988v-25.607c9.919-.632 19.718-1.883 29.35-3.748 23.147 19.085 51.966 29.459 82.177 29.458.722 0 1.448-.006 2.172-.018 33.763-.554 65.51-14.013 89.393-37.896s37.341-55.63 37.896-89.392c.509-30.999-9.9-60.648-29.44-84.349 1.865-9.632 3.116-19.431 3.749-29.351zm-95.623-50.67 60.443-11.796c3.705 15.226 5.684 31.121 5.684 47.471 0 15.565-1.78 30.722-5.148 45.278l-60.42-11.791c2.658-10.731 4.078-21.946 4.078-33.487.001-12.327-1.616-24.283-4.637-35.675zm-11.003-28.406c-13.462-25.874-34.805-47.018-60.83-60.226l12.094-61.974c50.122 20.233 90.267 60.13 110.833 110.082zm-123.665 173.401c-60.279 0-109.318-49.04-109.318-109.319s49.039-109.319 109.318-109.319 109.318 49.04 109.318 109.319-49.039 109.319-109.318 109.319zm34.369-244.331c-10.998-2.801-22.512-4.294-34.369-4.294s-23.372 1.493-34.369 4.294l-11.791-60.42c14.827-3.501 30.279-5.363 46.16-5.363s31.333 1.862 46.16 5.363zm-109.298-51.27 12.094 61.974c-26.025 13.209-47.368 34.352-60.83 60.227l-62.097-12.119c20.566-49.952 60.711-89.848 110.833-110.082zm-125.866 186.282c0-16.35 1.979-32.245 5.684-47.471l60.443 11.796c-3.02 11.391-4.638 23.347-4.638 35.675 0 11.541 1.42 22.756 4.079 33.487l-60.42 11.791c-3.368-14.556-5.148-29.713-5.148-45.278zm76.068 61.991c13.319 26.689 34.947 48.535 61.484 62.113l-12.101 62.007c-50.638-20.574-91.051-61.23-111.288-112.039zm89.93 72.916c11.126 2.872 22.786 4.4 34.797 4.4s23.671-1.528 34.797-4.4l11.791 60.42c-14.957 3.567-30.554 5.468-46.589 5.468s-31.631-1.901-46.589-5.468zm110.141 51.205-12.101-62.007c26.536-13.578 48.165-35.424 61.484-62.113l61.905 12.081c-20.236 50.808-60.65 91.464-111.288 112.039zm52.857-412.111c25.939.427 50.33 10.767 68.68 29.117s28.691 42.741 29.116 68.681c.265 16.116-3.308 31.756-10.294 45.825-11.431-29.967-29.157-57.454-52.516-80.813-23.358-23.358-50.845-41.084-80.81-52.515 14.058-6.975 29.688-10.542 45.824-10.295zm-354.199 97.798c.426-25.939 10.766-50.33 29.116-68.68s42.742-28.69 68.68-29.117c16.108-.25 31.748 3.318 45.817 10.298-29.963 11.431-57.448 29.156-80.804 52.513-23.359 23.359-41.085 50.846-52.516 80.812-6.985-14.07-10.558-29.711-10.293-45.826zm97.797 354.199c-25.939-.426-50.33-10.767-68.68-29.116-18.35-18.35-28.691-42.741-29.116-68.681-.265-16.116 3.308-31.756 10.294-45.825 11.431 29.966 29.157 57.454 52.516 80.813 23.36 23.36 50.85 41.088 80.82 52.518-14.058 6.983-29.688 10.554-45.834 10.291zm354.199-97.797c-.426 25.939-10.766 50.33-29.116 68.68s-42.742 28.69-68.68 29.117c-16.115.244-31.751-3.322-45.816-10.298 29.963-11.431 57.447-29.156 80.803-52.512 23.359-23.359 41.085-50.846 52.516-80.812 6.985 14.069 10.558 29.709 10.293 45.825z"/></g></svg>