<svg id="Capa_1" enable-background="new 0 0 512 512" height="512" viewBox="0 0 512 512" width="512" xmlns="http://www.w3.org/2000/svg"><g><path d="m512 422h-125.08c1.665-4.695 2.58-9.742 2.58-15v-15h14.5v-82.456h5.372c30.122 0 54.628-24.506 54.628-54.628s-24.506-54.628-54.628-54.628h-5.372v-21.122h-296v212.834h14.5v15c0 5.258.915 10.305 2.58 15h-125.08v30h18v15c0 24.813 20.187 45 45 45h386c24.813 0 45-20.187 45-45v-15h18zm-102.628-191.711c13.58 0 24.628 11.048 24.628 24.628s-11.048 24.628-24.628 24.628h-5.372v-49.256zm-271.372-21.122h236v152.833h-236zm14.5 197.833v-15h207v15c0 8.271-6.729 15-15 15h-177c-8.271 0-15-6.729-15-15zm311.5 60c0 8.271-6.729 15-15 15h-386c-8.271 0-15-6.729-15-15v-15h416z"/><path d="m241 60h30v89.167h-30z"/><path d="m161 90h30v59.167h-30z"/><path d="m321 90h30v59.167h-30z"/><path d="m241 0h30v30h-30z"/><path d="m321 30h30v30h-30z"/><path d="m161 30h30v30h-30z"/></g></svg>