<svg id="Layer_1" enable-background="new 0 0 510.069 510.069" height="512" viewBox="0 0 510.069 510.069" width="512" xmlns="http://www.w3.org/2000/svg"><g><path d="m488.078 21.991c-24.059-24.059-63.604-28.543-111.342-12.631-44.236 14.746-91.331 45.599-132.609 86.877-25.807 25.806-47.538 53.885-63.807 82.117-66.268-37.191-126.121-40.682-158.328-8.475-24.06 24.06-28.545 63.602-12.631 111.343 14.745 44.236 45.599 91.331 86.877 132.609s88.374 72.132 132.609 86.877c18.771 6.257 36.274 9.36 52.067 9.36 24.374 0 44.676-7.392 59.275-21.992 18.006-18.005 25.147-44.902 20.653-77.783-3.405-24.915-13.424-52.485-29.142-80.539 28.236-16.27 56.32-38.003 82.13-63.813 41.278-41.278 72.132-88.374 86.877-132.609 15.915-47.74 11.43-87.282-12.629-111.341zm-302.37 216.343c12.058-36.171 36.423-74.83 69.216-110.085l126.896 126.897c-35.255 32.793-73.914 57.158-110.085 69.215-35.87 11.956-65.265 9.995-80.643-5.384-15.378-15.38-17.341-44.772-5.384-80.643zm-142.504-47.242c21.722-21.72 70.413-15.914 123.395 13.977-3.601 7.983-6.734 15.926-9.352 23.778-13.33 39.99-12.338 74.222 2.474 98.425l-52.848 54.374c-32.711-35.209-57.016-73.799-69.054-109.911-11.955-35.871-9.992-65.264 5.385-80.643zm275.773 275.772c-15.379 15.38-44.774 17.341-80.643 5.384-36.23-12.077-74.954-36.503-110.256-69.375l52.467-53.981c13.247 8.817 29.692 13.289 48.609 13.289 15.792 0 33.3-3.104 52.067-9.36 7.851-2.617 15.791-5.75 23.773-9.35 29.95 53.05 35.803 101.573 13.983 123.393zm153.271-343.017c-12.058 36.171-36.423 74.83-69.215 110.085l-126.896-126.897c35.255-32.792 73.914-57.158 110.085-69.215 15.529-5.176 29.843-7.744 42.332-7.744 16.36 0 29.59 4.407 38.311 13.127 15.378 15.38 17.34 44.773 5.383 80.644z"/></g></svg>