<svg id="Capa_1" enable-background="new 0 0 509.359 509.359" height="512" viewBox="0 0 509.359 509.359" width="512" xmlns="http://www.w3.org/2000/svg"><g><path d="m475.238 127.34-156.888 17.06-63.67-144.4-63.67 144.4-156.889-17.06 93.219 127.34-93.219 127.34 156.889-17.061 63.67 144.4 63.67-144.4 156.889 17.061-93.219-127.34zm-119.418 112.34h-75.16l37.58-65.091 92.602-10.069zm-63.56-80.091-37.58 65.091-37.58-65.091 37.58-85.23zm-193.742 4.93 92.602 10.069 37.58 65.091h-75.16zm55.021 105.161h75.16l-37.58 65.091-92.601 10.069zm63.561 80.09 37.58-65.091 37.58 65.091-37.58 85.23zm193.742-4.93-92.602-10.07-37.58-65.091h75.16z"/></g></svg>