<svg id="Capa_1" enable-background="new 0 0 512 512" height="512" viewBox="0 0 512 512" width="512" xmlns="http://www.w3.org/2000/svg"><g><path d="m359.07 247.42c20.617-29.474 31.78-65.234 31.76-101.2v-85.89l-134.83-44.66-134.83 44.66v85.89c-.02 35.965 11.143 71.727 31.76 101.2h-152.93v248.91h512v-248.91zm-207.9-101.2v-64.22l104.83-34.73 104.83 34.73c-.332 64.019 7.609 114.737-40.241 165.42-10.782 11.783-25.166 21.579-38.979 30 0 0-25.61 16.28-25.61 16.28-7.708-4.899-29.264-18.604-36.61-23.27-42.224-26.71-68.324-73.446-68.22-124.21zm-121.17 248.664c48.835-27.833 108.296 16.724 95.28 71.446h-95.28zm452 71.446h-326.153c11.716-70.419-58.902-128.905-125.847-104.326v-84.584h149.3c14.662 14.409 59.195 40.111 76.7 51.82 17.757-11.879 61.807-37.246 76.7-51.82h149.3z"/><path d="m401 435.47c24.81 0 45-20.19 45-45-2.476-59.698-87.533-59.68-90 0 0 24.81 20.19 45 45 45zm0-60c8.27 0 15 6.73 15 15-.825 19.899-29.178 19.893-30 0 0-8.27 6.73-15 15-15z"/><path d="m138 310.47h30v30h-30z"/><path d="m208 382.47h30v30h-30z"/><path d="m295 363.47h30v30h-30z"/><path d="m319.61 137.08-21.22-21.22-59.39 59.4-25.39-25.4-21.22 21.22 46.61 46.6z"/></g></svg>