<svg id="Capa_1" enable-background="new 0 0 511.5 511.5" height="512" viewBox="0 0 511.5 511.5" width="512" xmlns="http://www.w3.org/2000/svg"><path id="XMLID_1593_" d="m481 57.5h-26.75v-14.75c0-23.572-19.178-42.75-42.75-42.75-10.585 0-20.276 3.875-27.75 10.271-7.474-6.396-17.165-10.271-27.75-10.271s-20.276 3.875-27.75 10.271c-7.474-6.396-17.165-10.271-27.75-10.271s-20.276 3.875-27.75 10.271c-7.474-6.396-17.165-10.271-27.75-10.271s-20.276 3.875-27.75 10.271c-7.474-6.396-17.165-10.271-27.75-10.271s-20.276 3.875-27.75 10.271c-7.474-6.396-17.165-10.271-27.75-10.271-23.572 0-42.75 19.178-42.75 42.75v14.75h-30.75v-14.5h-30v59h30v-14.5h30.75v424h30v-61.333h36.6v61.333h30v-61.333h36.601v61.333h30v-61.333h36.6v61.333h30v-61.333h36.601v61.333h30v-61.333h36.6v61.333h30v-424h26.748zm-69.5-27.5c7.03 0 12.75 5.72 12.75 12.75v14.75h-25.5v-14.75c0-7.03 5.72-12.75 12.75-12.75zm-55.5 0c7.03 0 12.75 5.72 12.75 12.75v14.75h-25.5v-14.75c0-7.03 5.72-12.75 12.75-12.75zm-55.5 0c7.03 0 12.75 5.72 12.75 12.75v14.75h-25.5v-14.75c0-7.03 5.72-12.75 12.75-12.75zm-55.5 0c7.03 0 12.75 5.72 12.75 12.75v14.75h-25.5v-14.75c0-7.03 5.72-12.75 12.75-12.75zm-55.5 0c7.03 0 12.75 5.72 12.75 12.75v14.75h-25.5v-14.75c0-7.03 5.72-12.75 12.75-12.75zm-68.25 12.75c0-7.03 5.72-12.75 12.75-12.75s12.75 5.72 12.75 12.75v14.75h-25.5zm0 188.594c5.693 4.074 13.841 8.616 26.623 8.616 15.505 0 24.199-6.685 29.953-11.109 4.499-3.459 6.361-4.891 11.665-4.891 5.307 0 7.169 1.432 11.669 4.892 5.754 4.424 14.449 11.108 29.954 11.108 15.506 0 24.201-6.685 29.955-11.108 4.5-3.459 6.363-4.892 11.669-4.892 5.308 0 7.171 1.432 11.672 4.892 5.753 4.423 14.448 11.108 29.954 11.108s24.201-6.685 29.955-11.108c4.5-3.46 6.363-4.892 11.67-4.892 5.309 0 7.172 1.432 11.674 4.893 5.755 4.423 14.45 11.107 29.957 11.107 12.787 0 20.936-4.544 26.63-8.618v39.29c-6.716 2.349-11.401 5.943-14.957 8.676-4.501 3.46-6.364 4.893-11.673 4.893s-7.172-1.432-11.674-4.893c-5.755-4.423-14.45-11.107-29.957-11.107-15.506 0-24.201 6.685-29.955 11.108-4.5 3.46-6.363 4.892-11.67 4.892s-7.17-1.432-11.67-4.892c-5.755-4.423-14.45-11.108-29.956-11.108-15.505 0-24.2 6.685-29.954 11.108-4.5 3.46-6.363 4.892-11.67 4.892s-7.169-1.432-11.669-4.892c-5.754-4.424-14.449-11.108-29.954-11.108-15.504 0-24.198 6.685-29.952 11.108-4.499 3.459-6.361 4.892-11.666 4.892-5.307 0-7.169-1.432-11.669-4.892-3.555-2.734-8.24-6.327-14.954-8.676zm0 74.24c5.693 4.074 13.841 8.616 26.623 8.616 15.505 0 24.199-6.685 29.953-11.109 4.499-3.459 6.361-4.891 11.665-4.891 5.307 0 7.169 1.432 11.669 4.892 5.754 4.424 14.449 11.108 29.954 11.108 15.506 0 24.201-6.685 29.955-11.108 4.5-3.459 6.363-4.892 11.669-4.892 5.308 0 7.171 1.432 11.672 4.892 5.753 4.423 14.448 11.108 29.954 11.108s24.201-6.685 29.955-11.108c4.5-3.46 6.363-4.892 11.67-4.892 5.309 0 7.172 1.432 11.674 4.893 5.755 4.423 14.45 11.107 29.957 11.107 12.787 0 20.936-4.544 26.63-8.618v39.29c-6.716 2.349-11.401 5.943-14.957 8.676-4.501 3.46-6.364 4.893-11.673 4.893s-7.172-1.432-11.674-4.893c-5.755-4.423-14.45-11.107-29.957-11.107-15.506 0-24.201 6.685-29.955 11.108-4.5 3.46-6.363 4.892-11.67 4.892s-7.17-1.432-11.67-4.892c-5.755-4.423-14.45-11.108-29.956-11.108-15.505 0-24.2 6.685-29.954 11.108-4.5 3.46-6.363 4.892-11.67 4.892s-7.169-1.432-11.669-4.892c-5.754-4.424-14.449-11.108-29.954-11.108-15.504 0-24.198 6.685-29.952 11.108-4.499 3.459-6.361 4.892-11.666 4.892-5.307 0-7.169-1.432-11.669-4.892-3.555-2.734-8.24-6.327-14.954-8.676zm303-109.192c-6.716 2.349-11.401 5.943-14.957 8.676-4.501 3.46-6.364 4.893-11.673 4.893s-7.172-1.432-11.674-4.893c-5.755-4.423-14.45-11.107-29.957-11.107-15.506 0-24.201 6.685-29.955 11.108-4.5 3.46-6.363 4.892-11.67 4.892s-7.17-1.432-11.67-4.892c-5.755-4.423-14.45-11.108-29.956-11.108-15.505 0-24.2 6.685-29.954 11.108-4.5 3.46-6.363 4.892-11.67 4.892s-7.169-1.432-11.669-4.892c-5.754-4.424-14.449-11.108-29.954-11.108-15.504 0-24.198 6.685-29.952 11.108-4.499 3.459-6.361 4.892-11.666 4.892-5.307 0-7.169-1.432-11.669-4.892-3.555-2.734-8.24-6.327-14.954-8.676v-39.288c5.693 4.074 13.841 8.616 26.623 8.616 15.505 0 24.199-6.685 29.953-11.109 4.499-3.459 6.361-4.891 11.665-4.891 5.307 0 7.169 1.432 11.669 4.892 5.754 4.424 14.449 11.108 29.954 11.108 15.506 0 24.201-6.685 29.955-11.108 4.5-3.459 6.363-4.892 11.669-4.892 5.308 0 7.171 1.432 11.672 4.892 5.753 4.423 14.448 11.108 29.954 11.108s24.201-6.685 29.955-11.108c4.5-3.46 6.363-4.892 11.67-4.892 5.309 0 7.172 1.432 11.674 4.893 5.755 4.423 14.45 11.107 29.957 11.107 12.787 0 20.936-4.544 26.63-8.618zm-303 183.432c5.693 4.074 13.841 8.616 26.623 8.616 15.505 0 24.199-6.685 29.953-11.109 4.499-3.459 6.361-4.891 11.665-4.891 5.307 0 7.169 1.432 11.669 4.892 5.754 4.424 14.449 11.108 29.954 11.108 15.506 0 24.201-6.685 29.955-11.108 4.5-3.459 6.363-4.892 11.669-4.892 5.308 0 7.171 1.432 11.672 4.892 5.753 4.423 14.448 11.108 29.954 11.108s24.201-6.685 29.955-11.108c4.5-3.46 6.363-4.892 11.67-4.892 5.309 0 7.172 1.432 11.674 4.893 5.755 4.423 14.45 11.107 29.957 11.107 12.787 0 20.936-4.544 26.63-8.618v40.345h-303zm303-257.673c-6.716 2.349-11.401 5.943-14.957 8.676-4.501 3.46-6.364 4.893-11.673 4.893s-7.172-1.432-11.674-4.893c-5.755-4.423-14.45-11.107-29.957-11.107-15.506 0-24.201 6.685-29.955 11.108-4.5 3.46-6.363 4.892-11.67 4.892s-7.17-1.432-11.67-4.892c-5.755-4.423-14.45-11.108-29.956-11.108-15.505 0-24.2 6.685-29.954 11.108-4.5 3.46-6.363 4.892-11.67 4.892s-7.169-1.432-11.669-4.892c-5.754-4.424-14.449-11.108-29.954-11.108-15.504 0-24.198 6.685-29.952 11.108-4.499 3.459-6.361 4.892-11.666 4.892-5.307 0-7.169-1.432-11.669-4.892-3.555-2.734-8.24-6.327-14.954-8.676v-34.652h303z"/></svg>