<svg id="Capa_1" enable-background="new 0 0 511.972 511.972" height="512" viewBox="0 0 511.972 511.972" width="512" xmlns="http://www.w3.org/2000/svg"><g><path d="m308.946 198.916c10.629 2.144 20.766 7.156 29.314 14.494l12.778 10.97c15.749 13.519 38.465 15.773 56.529 5.609 20.769-11.686 30.437-36.681 22.987-59.432-10.202-31.157-29.089-74.98-61.893-111.195l12.773-52.548-13.037-4.391c-1.618-.546-38.445-12.404-72.109 21.815-21.731 1.559-89.92 11.128-136.788 69.742-44.263 55.356-55.896 137.015-34.686 242.829-24.852 9.968-42.456 34.291-42.456 62.663 0 15.273 5.023 29.735 14.298 41.549l-17.736 70.951h330.966l-17.737-70.951c9.274-11.813 14.298-26.276 14.298-41.549 0-27.905-17.021-51.909-41.226-62.176 3.747-17.035 5.392-44.663-12.852-70.091-7.464-10.402-16.248-18.685-24.742-26.694-17.138-16.16-26.972-26.456-25.267-43.202 2.097.599 4.283 1.142 6.586 1.607zm-191.603 283.056 7.5-30h239.12l7.5 30zm259.104-82.5c0 8.234-2.632 16.045-7.502 22.5h-249.084c-4.869-6.455-7.502-14.266-7.502-22.5 0-20.678 16.822-37.5 37.5-37.5h189.088c20.678 0 37.5 16.822 37.5 37.5zm-69.402-137.134c7.802 7.357 15.172 14.307 20.948 22.357 12.209 17.016 10.405 36.148 7.732 47.277h-181.286c-19.646-97.019-10.167-170.655 28.261-218.965 46.021-57.856 119.762-59.066 120.464-59.071l6.832-.016 4.473-5.165c10.813-12.486 21.92-16.955 30.346-18.296l-9.184 37.779 5.799 5.946c32.353 33.17 50.819 75.792 60.614 105.708 3.009 9.19-.854 19.263-9.188 23.952-7.111 4.001-16.064 3.107-22.276-2.226l-12.779-10.97c-12.433-10.673-27.275-17.983-42.924-21.14-12.807-2.583-20.768-8.433-24.339-17.884-2.952-7.812-1.936-15.4-1.925-15.476l-.022.145-29.618-4.771c-.231 1.436-2.115 14.449 2.897 29.028 2.315 6.735 6.279 14.372 13.034 21.183-10.791 40.123 12.85 62.414 32.141 80.605z"/></g></svg>