<svg id="Capa_1" enable-background="new 0 0 512 512" height="512" viewBox="0 0 512 512" width="512" xmlns="http://www.w3.org/2000/svg"><g><path d="m180.75 391.6h150.5v30h-150.5z"/><path d="m331.25 90.375v-60.25h-150.5v60.25h-180.75v391.5h512v-391.5zm150.75 60.25h-15.125c-8.34 0-15.125-6.785-15.125-15.125v-15.125h30.25zm-60.25 286.125v15.125h-331.5v-15.125c0-24.882-20.243-45.125-45.125-45.125h-15.125v-211h15.125c24.882 0 45.125-20.243 45.125-45.125v-15.125h331.5v15.125c0 24.882 20.243 45.125 45.125 45.125h15.125v211h-15.125c-24.882 0-45.125 20.243-45.125 45.125zm-211-376.625h90.5v30.25h-90.5zm-150.5 60.25v15.125c0 8.34-6.785 15.125-15.125 15.125h-15.125v-30.25zm-30.25 301.25h15.125c8.34 0 15.125 6.785 15.125 15.125v15.125h-30.25zm421.75 30.25v-15.125c0-8.34 6.785-15.125 15.125-15.125h15.125v30.25z"/><path d="m256 150.625c-58.104 0-105.375 47.271-105.375 105.375s47.271 105.375 105.375 105.375 105.375-47.271 105.375-105.375-47.271-105.375-105.375-105.375zm0 180.75c-41.562 0-75.375-33.813-75.375-75.375s33.813-75.375 75.375-75.375 75.375 33.813 75.375 75.375-33.813 75.375-75.375 75.375z"/><path d="m271 206.452h-30v34.548h-34.548v30h34.548v34.548h30v-34.548h34.548v-30h-34.548z"/></g></svg>