<svg id="Capa_1" enable-background="new 0 0 512 512" height="512" viewBox="0 0 512 512" width="512" xmlns="http://www.w3.org/2000/svg"><g><path d="m497.464 170.769c1.899-5.497 2.946-11.389 2.946-17.523 0-7.335-2.188-21.263-21.116-57.379-9.821-18.741-32.688-56.091-32.688-56.091s-14.566 23.778-17.064 28.028c-20.234-18.704-43.169-33.908-68.443-45.301-33.126-14.932-68.487-22.503-105.099-22.503-68.38 0-132.667 26.629-181.02 74.98-48.351 48.353-74.98 112.64-74.98 181.02s26.629 132.667 74.98 181.02c48.353 48.351 112.64 74.98 181.02 74.98s132.667-26.629 181.02-74.98c48.351-48.353 74.98-112.64 74.98-181.02 0-29.272-4.889-57.913-14.536-85.231zm-27.055-17.523c0 13.125-10.679 23.804-23.804 23.804-13.126 0-23.805-10.679-23.805-23.804 0-6.563 8.835-27.964 23.805-54.995 14.97 27.031 23.804 48.432 23.804 54.995zm-54.603 262.56c-42.686 42.686-99.439 66.194-159.806 66.194s-117.12-23.508-159.806-66.194-66.194-99.439-66.194-159.806 23.508-117.12 66.194-159.806 99.439-66.194 159.806-66.194c32.333 0 63.546 6.68 92.771 19.853 24.523 11.054 46.565 26.167 65.681 44.998-.178.338-.356.675-.534 1.015-18.928 36.116-21.116 50.044-21.116 57.379 0 29.667 24.137 53.804 53.805 53.804 10.318 0 19.963-2.925 28.161-7.982 4.798 18.487 7.232 37.549 7.232 56.933 0 60.367-23.508 117.12-66.194 159.806z"/><path d="m162.68 208.392c0-12.804 10.417-23.221 23.222-23.221 12.804 0 23.221 10.417 23.221 23.221v24.148h30v-24.148c0-29.346-23.875-53.221-53.221-53.221-29.347 0-53.222 23.875-53.222 53.221v24.148h30z"/><path d="m302.878 208.392c0-12.804 10.417-23.221 23.221-23.221 12.805 0 23.222 10.417 23.222 23.221v24.148h30v-24.148c0-29.346-23.875-53.221-53.222-53.221-29.346 0-53.221 23.875-53.221 53.221v24.148h30z"/><path d="m256 300.871c-47.759 0-94.346-9.267-138.467-27.542l-20.74-8.591v22.449c0 87.788 71.42 159.209 159.207 159.209s159.207-71.421 159.207-159.209v-22.449l-20.74 8.591c-44.121 18.275-90.708 27.542-138.467 27.542zm0 30c43.6 0 86.297-7.132 127.254-21.228-1.81 10.283-4.842 20.149-8.937 29.446-37.82 14.869-77.59 22.421-118.317 22.421s-80.498-7.552-118.317-22.421c-4.094-9.297-7.127-19.163-8.937-29.446 40.957 14.096 83.654 21.228 127.254 21.228zm-89.91 49.021c29.243 7.705 59.328 11.618 89.91 11.618s60.667-3.914 89.91-11.618c-23.276 22.581-54.997 36.504-89.91 36.504s-66.634-13.923-89.91-36.504z"/></g></svg>