<svg id="Capa_1" enable-background="new 0 0 510 510" height="512" viewBox="0 0 510 510" width="512" xmlns="http://www.w3.org/2000/svg"><g><path d="m168.803 337.011 86.197-21.549 86.197 21.549-86.197-193.945zm86.197-52.473-33.803 8.451 33.803-76.055 33.803 76.056z"/><path d="m375 0v30h105v105h30v-135z"/><path d="m480 480h-105v30h135v-135h-30z"/><path d="m30 375h-30v135h135v-30h-105z"/><path d="m30 30h105v-30h-135v135h30z"/><path d="m300 49.836v-49.836h-90v49.836c-78.546 17.076-142.541 79.102-160.164 160.164h-49.836v90h49.836c17.076 78.547 79.101 142.541 160.164 160.164v49.836h90v-49.836c78.547-17.076 142.541-79.102 160.164-160.164h49.836v-90h-49.836c-17.076-78.547-79.102-142.541-160.164-160.164zm-60-19.836h30v60h-30zm-210 210h63.008v30h-63.008zm240 240h-30v-63.008h30zm30-50.655v-42.353h-90v42.353c-63.686-16.244-113.101-65.659-129.345-129.345h42.353v-90h-42.353c16.244-63.686 65.659-113.101 129.345-129.345v39.345h90v-39.345c63.685 16.244 113.101 65.659 129.345 129.345h-42.345v90h42.345c-16.244 63.686-65.66 113.101-129.345 129.345zm180-159.345h-63v-30h63z"/></g></svg>