<svg id="Capa_1" enable-background="new 0 0 512 512" height="512" viewBox="0 0 512 512" width="512" xmlns="http://www.w3.org/2000/svg"><g><path d="m444.472 161.167 24.366-24.366c17.545-17.545 17.545-46.094 0-63.639-17.544-17.545-46.094-17.546-63.639 0l-24.366 24.366c-24.249-16.134-51.278-27.329-79.833-33.068v-34.46h45v-30h-180v30h45v34.46c-28.555 5.739-55.584 16.935-79.833 33.068l-24.367-24.367c-17.545-17.546-46.095-17.545-63.639 0-17.545 17.545-17.545 46.094 0 63.639l24.366 24.366c-24.413 36.696-37.527 79.756-37.527 124.834 0 60.367 23.508 117.121 66.194 159.806s99.439 66.194 159.806 66.194 117.121-23.508 159.806-66.194 66.194-99.439 66.194-159.806c0-45.078-13.114-88.138-37.528-124.833zm-18.059-66.793c5.849-5.849 15.365-5.848 21.213 0 5.848 5.849 5.848 15.365 0 21.213l-21.568 21.568c-3.287-3.745-6.696-7.406-10.252-10.962s-7.217-6.965-10.962-10.252zm-185.413-64.374h30v30.502c-4.972-.324-9.972-.502-15-.502s-10.028.178-15 .502zm-176.626 85.587c-5.848-5.849-5.848-15.365 0-21.213 5.849-5.848 15.365-5.849 21.213 0l21.568 21.568c-3.745 3.287-7.406 6.696-10.962 10.252s-6.965 7.217-10.252 10.962zm191.626 366.413c-108.075 0-196-87.925-196-196s87.925-196 196-196 196 87.925 196 196-87.925 196-196 196z"/><path d="m241 241h30c8.271 0 15 6.729 15 15h30c0-24.813-20.187-45-45-45v-30h-30v30c-24.813 0-45 20.187-45 45s20.187 45 45 45h30c8.271 0 15 6.729 15 15s-6.729 15-15 15h-30c-8.271 0-15-6.729-15-15h-30c0 24.813 20.187 45 45 45v30h30v-30c24.813 0 45-20.187 45-45s-20.187-45-45-45h-30c-8.271 0-15-6.729-15-15s6.729-15 15-15z"/><path d="m256 121c-90.981 0-165 74.019-165 165s74.019 165 165 165 165-74.019 165-165-74.019-165-165-165zm0 300c-74.439 0-135-60.561-135-135s60.561-135 135-135 135 60.561 135 135-60.561 135-135 135z"/></g></svg>