<svg id="Layer_1" enable-background="new 0 0 510 510" height="512" viewBox="0 0 510 510" width="512" xmlns="http://www.w3.org/2000/svg"><g id="XMLID_19_"><path id="XMLID_41_" d="m90 301h90v30h-90z"/><path id="XMLID_42_" d="m330 301h90v30h-90z"/><path id="XMLID_45_" d="m480 75v46h-450v-46h-30v360h30v-44h450v44h30c0-25.754 0-167.156 0-360zm0 166h-30v-90h30zm-450 0v-90h30v90zm60-90h30v90h-30zm60 0h30v90h-30zm60 0h30v90h-30zm60 0h30v90h-30zm60 0h30v90h-30zm60 0h30v90h-30zm-360 120h210v90h-210zm240 90v-90h210v90z"/></g></svg>