<svg id="Capa_1" enable-background="new 0 0 512 512" height="512" viewBox="0 0 512 512" width="512" xmlns="http://www.w3.org/2000/svg"><g><path d="m316 416h60v30h-60z"/><path d="m316 284h60v30h-60z"/><path d="m316 218h60v30h-60z"/><path d="m481 0h-450v180h30.662l15 332h358.675l15-332h30.663zm-30 90h-30v-60h30zm-330 0v-60h30v60zm60-60h30v60h-30zm60 0h30v60h-30zm60 0h30v60h-30zm60 0h30v60h-30zm-270 0v60h-30v-60zm14.337 452-4.608-102h310.542l-4.608 102zm307.289-132h-313.252l-7.681-170h328.614zm-351.626-200v-30h390v30z"/></g></svg>