<?xml version="1.0" encoding="iso-8859-1"?>
<!-- Generator: Adobe Illustrator 19.0.0, SVG Export Plug-In . SVG Version: 6.00 Build 0)  -->
<svg xmlns="http://www.w3.org/2000/svg" xmlns:xlink="http://www.w3.org/1999/xlink" version="1.1" id="Layer_1" x="0px" y="0px" viewBox="0 0 512 512" style="enable-background:new 0 0 512 512;" xml:space="preserve">
<g>
	<g>
		<path d="M178.442,5.671c-33.581,0-60.9,27.319-60.9,60.899c0,33.581,27.319,60.9,60.9,60.9c33.58,0,60.899-27.319,60.899-60.9    C239.341,32.99,212.022,5.671,178.442,5.671z M178.442,97.469c-17.038,0-30.9-13.862-30.9-30.9    c0-17.038,13.862-30.899,30.9-30.899c17.038,0,30.899,13.861,30.899,30.899C209.341,83.607,195.48,97.469,178.442,97.469z"/>
	</g>
</g>
<g>
	<g>
		<path d="M451.1,335.942c-33.58,0-60.899,27.319-60.899,60.9c-0.001,33.579,27.319,60.899,60.899,60.899    c33.581,0,60.9-27.319,60.9-60.899C512,363.261,484.681,335.942,451.1,335.942z M451.1,427.74c-17.038,0-30.9-13.861-30.9-30.899    c0-17.038,13.862-30.9,30.9-30.9c17.038,0,30.9,13.862,30.9,30.9C482,413.879,468.138,427.74,451.1,427.74z"/>
	</g>
</g>
<g>
	<g>
		<path d="M351.822,348.122c-4.929-4.38-10.452-7.922-16.341-10.596c0.124-1.341,0.208-2.687,0.208-4.037    c0-24.224-19.707-43.931-43.931-43.931s-43.932,19.707-43.932,43.931c0,1.639,0.097,3.261,0.271,4.865l-102.743,12.149    l25.194-68.279l16.156,25.901c6.087,9.76,16.588,15.586,28.09,15.586c10.813,0,20.962-5.294,27.149-14.162    c6.188-8.867,7.653-20.22,3.923-30.367l-48.714-132.495h-66.658L37.773,363.646C15.848,369.141,0,388.94,0,412.08    c0,27.54,22.406,49.946,49.947,49.946h258.575c35.941,0,65.182-29.24,65.182-65.182    C373.704,378.24,365.728,360.481,351.822,348.122z M291.759,319.558c7.093,0,12.952,5.331,13.811,12.194    c-1.566,0.071-3.133,0.177-4.701,0.361l-22.974,2.717c-0.042-0.433-0.068-0.878-0.068-1.341    C277.827,325.807,284.077,319.558,291.759,319.558z M150.299,176.687h25.922l41.49,112.848c0.462,1.256,0.055,2.242-0.368,2.849    c-0.423,0.605-1.208,1.328-2.547,1.328c-1.079,0-2.064-0.546-2.635-1.462L163.6,214.398l-51.68,140.058l-39.597,4.682    L150.299,176.687z M308.521,432.027H49.947C38.948,432.026,30,423.078,30,412.08c0-10.106,7.568-18.623,17.604-19.809    l256.787-30.364c1.434-0.17,2.858-0.254,4.272-0.254c8.568,0,16.692,3.084,23.229,8.894c7.616,6.77,11.811,16.108,11.811,26.298    C343.703,416.244,327.921,432.027,308.521,432.027z"/>
	</g>
</g>
<g>
	<g>
		<rect x="15" y="476.329" width="479.88" height="30"/>
	</g>
</g>
<g>
	<g>
		<path d="M277.827,239.764c0-1.12,0-1.12,1.062-2.857c2.042-3.344,5.46-8.939,5.46-18.496s-3.418-15.151-5.46-18.494    c-1.062-1.737-1.062-1.737-1.062-2.856h-30c0,9.558,3.418,15.152,5.46,18.495c1.062,1.737,1.062,1.737,1.062,2.855    c0,1.12,0,1.12-1.062,2.857c-2.042,3.344-5.46,8.939-5.46,18.496s3.418,15.152,5.46,18.496c1.062,1.737,1.062,1.737,1.062,2.857    h30c0-9.557-3.418-15.152-5.46-18.496C277.827,240.884,277.827,240.884,277.827,239.764z"/>
	</g>
</g>
<g>
	<g>
		<path d="M329.169,239.764c0-1.12,0-1.12,1.062-2.858c2.042-3.344,5.459-8.938,5.459-18.495c0-9.556-3.417-15.15-5.459-18.493    c-1.062-1.738-1.062-1.738-1.062-2.857h-30c0,9.557,3.418,15.151,5.459,18.495c1.062,1.737,1.062,1.737,1.062,2.855    c0,1.12,0,1.12-1.062,2.858c-2.042,3.344-5.459,8.938-5.459,18.495s3.417,15.151,5.459,18.495    c1.062,1.738,1.062,1.738,1.062,2.858h30c0-9.557-3.417-15.151-5.459-18.495C329.169,240.884,329.169,240.884,329.169,239.764z"/>
	</g>
</g>
<g>
</g>
<g>
</g>
<g>
</g>
<g>
</g>
<g>
</g>
<g>
</g>
<g>
</g>
<g>
</g>
<g>
</g>
<g>
</g>
<g>
</g>
<g>
</g>
<g>
</g>
<g>
</g>
<g>
</g>
</svg>
