<svg id="Layer_1" enable-background="new 0 0 510 510" height="512" viewBox="0 0 510 510" width="512" xmlns="http://www.w3.org/2000/svg"><g id="XMLID_375_"><path id="XMLID_1316_" d="m480 30v-30h-116.224l-22.059 75h-132.974c-20.819-107.413-175.761-95.27-178.743 15.001-.038 50.039 41.137 90.655 91.16 89.999l30.148 330h237.118l48.333-435h-63.77l13.235-45zm-171.445 157.752c-28.06-9.727-61.811-3.821-81.479 9.142-10.146 5.646-18.159 10.106-35.826 10.106-19.239-.044-26.684-5.105-38.559-11.607l-8.258-90.393h188.46zm-248.555-97.752c1.634-70.617 99.373-82.24 118.101-15h-66.534l6.848 74.96c-32.352-.846-58.415-27.407-58.415-59.96zm118.692 390-2.741-30h188.956l-3.333 30zm189.549-60h-195.031l-17.298-189.351c27.84 11.65 64.808 6.4 85.753-7.544 10.145-5.645 18.158-10.105 35.825-10.105 9.825 0 16.686 1.398 22.58 3.602l-14.461 49.166 28.781 8.465 12.949-44.027c14.166 7.049 44.005 9.013 61.567 3.796zm35-315-10.626 95.631c-13.849 8.179-42.475 8.538-56.725.502l28.275-96.133z"/><path id="XMLID_1324_" d="m195 270h30v30h-30z"/><path id="XMLID_1325_" d="m195 345h30v30h-30z"/><path id="XMLID_1347_" d="m255 300h30v30h-30z"/></g></svg>