<svg id="Capa_1" enable-background="new 0 0 510 510" height="512" viewBox="0 0 510 510" width="512" xmlns="http://www.w3.org/2000/svg"><path d="m255 0c-140.931 0-255 114.05-255 255v195c0 33.084 26.916 60 60 60h150c17.908 0 33.997-7.896 45-20.377 11.003 12.481 27.092 20.377 45 20.377h150c33.084 0 60-26.916 60-60v-195c0-140.931-114.05-255-255-255zm0 30c124.065 0 225 100.935 225 225v143.072c-8.833-5.123-19.075-8.072-30-8.072v-135c0-107.523-87.477-195-195-195s-195 87.477-195 195v135c-10.925 0-21.167 2.949-30 8.072v-143.072c0-124.065 100.935-225 225-225zm0 380.377c-11.003-12.481-27.092-20.377-45-20.377v-135c0-24.813 20.187-45 45-45s45 20.187 45 45v135c-17.908 0-33.997 7.896-45 20.377zm0-230.377c-41.355 0-75 33.645-75 75v90.043c-8.724-6.564-18.923-11.26-30-13.518v-76.525c0-57.897 47.103-105 105-105s105 47.103 105 105v76.525c-11.077 2.258-21.276 6.954-30 13.518v-90.043c0-41.355-33.645-75-75-75zm0-60c-74.439 0-135 60.561-135 135v76.525c-11.077 2.258-21.276 6.954-30 13.518v-90.043c0-90.981 74.019-165 165-165s165 74.019 165 165v90.043c-8.724-6.564-18.923-11.26-30-13.518v-76.525c0-74.439-60.561-135-135-135zm-45 360h-150c-16.542 0-30-13.458-30-30s13.458-30 30-30h30v-15c0-24.813 20.187-45 45-45s45 20.187 45 45v15h30c16.542 0 30 13.458 30 30s-13.458 30-30 30zm240 0h-150c-16.542 0-30-13.458-30-30s13.458-30 30-30h30v-15c0-24.813 20.187-45 45-45s45 20.187 45 45v15h30c16.542 0 30 13.458 30 30s-13.458 30-30 30z"/></svg>