<svg id="Capa_1" enable-background="new 0 0 512 512" height="512" viewBox="0 0 512 512" width="512" xmlns="http://www.w3.org/2000/svg"><g><path d="m446.388 131.179c-14.025-15.487-33.639-24.816-54.388-26.033v-29.646c0-41.631-33.869-75.5-75.5-75.5-24.73 0-46.72 11.952-60.5 30.382-13.779-18.43-35.77-30.382-60.5-30.382-41.631 0-75.5 33.869-75.5 75.5v29.646c-20.749 1.217-40.363 10.546-54.388 26.033-15.066 16.637-22.435 38.988-20.216 61.323l17.965 180.853c3.605 36.284 33.819 63.645 70.281 63.645 5.575 0 11.055-.668 16.358-1.925v76.925h212v-76.925c5.303 1.257 10.783 1.925 16.358 1.925 36.461 0 66.675-27.361 70.28-63.645l17.965-180.853c2.22-22.335-5.149-44.686-20.215-61.323zm-250.888-101.179c25.089 0 45.5 20.411 45.5 45.5v4.905h30v-4.905c0-25.089 20.411-45.5 45.5-45.5s45.5 20.411 45.5 45.5v33.592c-11.017 3.675-21.098 9.75-29.598 17.898-14.931-6.846-43.519-17.359-78.301-17.359-34.078 0-60.574 10.102-74.805 17.07-8.437-8.004-18.41-13.978-29.297-17.609v-33.592c.001-25.089 20.412-45.5 45.501-45.5zm115.09 120.399c-14.794 12.254-33.488 19.232-52.691 19.232h-3.797c-19.436 0-38.346-7.154-53.223-19.685 12.285-4.942 30.787-10.315 53.223-10.315 23.065 0 43.094 5.658 56.488 10.768zm-130.59 331.601v-49.76c17.203 4.203 44.158 9.135 76 9.135s58.797-4.931 76-9.135v49.76zm14.202-77.311c15.181-14.912 35.124-23.315 55.915-23.315h11.765c20.792 0 40.734 8.403 55.916 23.315-15.383 3.325-37.04 6.685-61.798 6.685s-46.415-3.36-61.798-6.685zm242.549-215.152-17.966 180.853c-2.073 20.872-19.453 36.61-40.427 36.61-12.169 0-23.597-5.391-31.354-14.791-21.417-25.952-52.442-40.835-85.121-40.835h-11.765c-32.679 0-63.704 14.884-85.121 40.836-7.757 9.399-19.186 14.79-31.354 14.79-20.974 0-38.354-15.739-40.427-36.61l-17.966-180.853c-1.403-14.125 3.071-27.699 12.599-38.22 9.528-10.523 22.594-16.317 36.788-16.317 15.653 0 30.071 7.161 39.554 19.647 21.395 28.167 55.005 44.984 89.91 44.984h3.797c34.904 0 68.516-16.816 89.911-44.984 9.483-12.486 23.9-19.647 39.554-19.647 14.195 0 27.26 5.794 36.788 16.316s14.003 24.096 12.6 38.221z"/><path d="m241 230.502h30v30h-30z"/><path d="m166 215.502h30v30h-30z"/><path d="m106 185.502h30v30h-30z"/><path d="m121 320.502h30v30h-30z"/><path d="m181 275.502h30v30h-30z"/><path d="m106 253.002h30v30h-30z"/><path d="m241 290.502h30v30h-30z"/><path d="m316 215.502h30v30h-30z"/><path d="m376 185.502h30v30h-30z"/><path d="m361 320.502h30v30h-30z"/><path d="m301 275.502h30v30h-30z"/><path d="m376 253.002h30v30h-30z"/></g></svg>