<svg id="Capa_1" enable-background="new 0 0 509.341 509.341" height="512" viewBox="0 0 509.341 509.341" width="512" xmlns="http://www.w3.org/2000/svg"><g><path d="m496.648 242.045c2.68-130.074-111.917-244.694-242.002-241.998-214.82.216-322.851 261.095-171.116 413.118 69.378 71.155 182.448 91.135 272.139 48.832l136.283 47.344-42.823-123.27c31.118-41.87 47.519-91.486 47.519-144.026zm-142.871 187.536c-138.88 74.784-312.462-29.527-311.127-187.539-.002-116.894 95.101-211.997 211.998-211.997 180.131-.48 278.458 214.415 160.773 350.418l27.866 80.213z"/><path d="m425.217 197.313c-5.655-83.107-103.258-131.252-170.567-77.466-104.64-78.294-230.053 61.14-139.782 157.577l139.78 139.798 132.267-132.267.414.171c25.075-24.78 40.156-55.217 37.888-87.813zm-102.466-70.212c21.956.926 44.044 13.471 57.551 31.908h-125.655c20.031-20.216 41.582-33.237 68.104-31.908zm-136.194 0c26.508-1.331 48.094 11.712 68.089 31.908h-125.652c13.513-18.441 35.601-30.981 57.563-31.908zm68.091 247.695-37.787-37.787h75.574zm67.787-67.787h-135.573l-44-44h223.574zm66.213-73.918v-.082h-268v.068c-6.506-14.12-8.37-29.195-5.29-44.068h278.578c3.083 14.878 1.222 29.96-5.288 44.082z"/></g></svg>