<svg id="Layer_1" enable-background="new 0 0 510 510" height="512" viewBox="0 0 510 510" width="512" xmlns="http://www.w3.org/2000/svg"><g><path d="m510 210.45c0-53.75-19.968-88.041-22.586-95.797-11.008 3.32-14.946 5.797-22.414 5.797-12.71 0-24.083-8.055-28.301-20.043l-3.652-10.38-11.477.383c-35.542 1.23-65.861-30.169-61.057-67.671l1.711-13.354c-93.588-29.401-203.908 14.72-248.674 104.518-69.607 36.046-113.55 107.713-113.55 186.547 1.646 219.02 294.894 290.062 396.546 96.45 67.346-35.014 113.454-105.445 113.454-186.45zm-300 270c-168.374.049-243.873-213.863-114.134-319.326-36.685 151.81 100.507 290.421 253.46 253.46-33.691 41.378-84.179 65.866-139.326 65.866zm90-90c-99.252 0-180-80.748-180-180 0-110.613 99.65-196.053 210.034-177.495 1.268 46.09 37.355 83.64 82.844 87.216 11.213 19.644 33.096 31.955 56.812 30.096 41.499 116.764-45.584 240.183-169.69 240.183z"/><path d="m315 150.45c0-33.084-26.916-60-60-60-79.489 3.017-79.467 116.996.001 120 33.083 0 59.999-26.916 59.999-60zm-60 30c-16.542 0-30-13.458-30-30 1.508-39.744 58.498-39.734 60 0 0 16.542-13.458 30-30 30z"/><path d="m315 255.45c-24.813 0-45 20.187-45 45 2.262 59.617 87.747 59.6 90-.001 0-24.812-20.187-44.999-45-44.999zm0 60c-8.271 0-15-6.729-15-15 .754-19.872 29.249-19.867 30 0 0 8.271-6.729 15-15 15z"/><path d="m345 180.45h30v30h-30z"/><path d="m165 240.45h30v30h-30z"/><path d="m390 255.45h30v30h-30z"/></g></svg>