<svg id="Capa_1" enable-background="new 0 0 512 512" height="512" viewBox="0 0 512 512" width="512" xmlns="http://www.w3.org/2000/svg"><g><path d="m60 239.813h111.267v-93.433h-111.267zm30-63.434h51.267v33.433h-51.267z"/><path d="m434.62 291.025v-175.05c0-24.813-20.187-45-45-45h-344.62c-24.813 0-45 20.187-45 45v220.05c0 24.813 20.187 45 45 45h75v60h392v-150zm-359.62 0v30h45v30h-75c-8.271 0-15-6.729-15-15v-220.05c0-8.271 6.729-15 15-15h344.62c8.271 0 15 6.729 15 15v175.05zm407 120h-332v-90h332z"/><path d="m180 351.025h45.5v30h-45.5z"/><path d="m255.5 351.025h45.5v30h-45.5z"/><path d="m331 351.025h45.5v30h-45.5z"/><path d="m406.5 351.025h45.5v30h-45.5z"/></g></svg>