<?xml version="1.0" encoding="iso-8859-1"?>
<!-- Generator: Adobe Illustrator 19.0.0, SVG Export Plug-In . SVG Version: 6.00 Build 0)  -->
<svg version="1.1" id="Layer_1" xmlns="http://www.w3.org/2000/svg" xmlns:xlink="http://www.w3.org/1999/xlink" x="0px" y="0px"
	 viewBox="0 0 512 512" style="enable-background:new 0 0 512 512;" xml:space="preserve">
<g>
	<g>
		<path d="M422.23,0h-157.76L0,264.469L247.531,512L512,247.531V89.77L422.23,0z M478.123,233.498L247.531,464.09L47.91,264.469
			L278.502,33.877h129.694l69.926,69.927V233.498z"/>
	</g>
</g>
<g>
	<g>
		<path d="M419.207,92.795c-11.73-11.73-27.327-18.191-43.917-18.191c-16.591,0-32.188,6.46-43.917,18.191
			c-11.73,11.73-18.191,27.327-18.191,43.917c0,16.59,6.46,32.186,18.191,43.917c11.73,11.73,27.327,18.191,43.917,18.191
			c16.59,0,32.185-6.46,43.917-18.191c11.73-11.73,18.191-27.327,18.191-43.917C437.397,120.122,430.937,104.525,419.207,92.795z
			 M395.251,156.674c-5.332,5.332-12.422,8.268-19.963,8.268s-14.63-2.937-19.963-8.268c-5.332-5.332-8.268-12.422-8.268-19.963
			c0-7.541,2.937-14.63,8.269-19.963s12.422-8.268,19.961-8.268c7.541,0,14.63,2.937,19.963,8.269
			c5.332,5.331,8.268,12.42,8.268,19.961C403.519,144.252,400.582,151.342,395.251,156.674z"/>
	</g>
</g>
<g>
	<g>
		<path d="M248.859,331.765c2.113-3.912,3.443-7.908,3.997-11.992c0.553-4.082,0.138-8.199-1.246-12.353
			c-1.383-4.151-4.048-8.2-7.993-12.145c-3.39-3.39-6.833-5.76-10.328-7.111c-3.495-1.348-7.075-1.885-10.745-1.609
			c-3.667,0.278-7.491,1.264-11.47,2.959c-3.981,1.697-8.217,3.825-12.716,6.385l-4.152,2.491l-14.117-14.118
			c2.213-1.659,4.602-3.112,7.162-4.36c2.561-1.244,4.982-2.283,7.267-3.114c2.283-0.831,4.238-1.435,5.864-1.817
			c1.625-0.379,2.683-0.535,3.166-0.466l-6.643-21.591c-4.567,1.246-9.618,3.046-15.155,5.398
			c-5.535,2.353-10.762,5.572-15.675,9.654l-10.485-10.485l-7.163,7.163l10.485,10.485c-2.974,3.669-5.33,7.509-7.059,11.523
			c-1.731,4.014-2.647,8.081-2.751,12.197c-0.104,4.119,0.622,8.2,2.179,12.249c1.557,4.048,4.136,7.873,7.734,11.471
			c2.769,2.769,5.587,4.792,8.46,6.072c2.871,1.282,5.917,1.904,9.134,1.869c3.218-0.033,6.679-0.691,10.381-1.973
			c3.703-1.279,7.767-3.096,12.197-5.45l6.435-3.529l13.806,13.806c-2.837,2.146-5.83,3.997-8.979,5.554
			c-3.148,1.558-6.089,2.839-8.824,3.841c-2.733,1.004-5.104,1.714-7.111,2.129c-2.006,0.417-3.321,0.591-3.944,0.519l7.37,22.318
			c6.229-1.245,12.44-3.442,18.632-6.591c6.194-3.148,11.885-6.903,17.075-11.263l12.145,12.145l7.163-7.162l-12.041-12.041
			C244.1,339.359,246.747,335.674,248.859,331.765z M179.779,304.617c-2.214,0.21-4.186-0.553-5.917-2.283
			c-3.598-3.598-3.183-8.027,1.246-13.287l12.768,12.768C184.691,303.477,181.992,304.411,179.779,304.617z M224.518,328.699
			l-12.457-12.457c3.252-1.591,6.108-2.612,8.563-3.063c2.457-0.449,4.585,0.226,6.384,2.025
			C230.47,318.667,229.639,323.163,224.518,328.699z"/>
	</g>
</g>
<g>
	<g>
		<path d="M340.466,224.378c-1.039-2.836-2.664-5.363-4.879-7.578c-2.213-2.213-4.759-3.856-7.629-4.93
			c-2.873-1.073-5.849-1.521-8.928-1.349c-3.081,0.174-6.108,0.918-9.082,2.231c-2.977,1.316-5.709,3.218-8.201,5.709
			c-2.491,2.491-4.396,5.226-5.709,8.2c-1.316,2.977-2.042,5.986-2.179,9.032c-0.14,3.046,0.311,6.02,1.349,8.928
			c1.038,2.907,2.665,5.467,4.878,7.681c2.216,2.216,4.759,3.825,7.63,4.827c2.873,1.004,5.829,1.438,8.876,1.297
			c3.044-0.138,6.055-0.864,9.031-2.179c2.974-1.314,5.708-3.218,8.2-5.709c2.491-2.491,4.394-5.224,5.709-8.2
			c1.313-2.974,2.057-6.003,2.231-9.084C341.936,230.176,341.504,227.217,340.466,224.378z M325.727,242.439
			c-1.731,1.731-3.962,2.441-6.696,2.129c-2.733-0.309-5.206-1.573-7.421-3.789c-2.213-2.213-3.495-4.706-3.841-7.473
			c-0.347-2.767,0.346-5.016,2.077-6.747c1.729-1.729,3.996-2.439,6.799-2.128s5.312,1.575,7.525,3.789
			c2.146,2.146,3.374,4.619,3.685,7.421C328.166,238.443,327.454,240.71,325.727,242.439z"/>
	</g>
</g>
<g>
	<g>
		<polygon points="279.845,232.059 275.381,170.919 261.263,171.749 269.879,233.513 274.239,296.417 288.357,295.794 		"/>
	</g>
</g>
<g>
	<g>
		<path d="M254.569,222.768c-1.074-2.87-2.716-5.412-4.931-7.629c-2.213-2.213-4.741-3.839-7.577-4.878
			c-2.837-1.037-5.796-1.469-8.876-1.297c-3.079,0.174-6.108,0.918-9.082,2.231c-2.976,1.315-5.709,3.217-8.2,5.709
			c-2.491,2.491-4.395,5.226-5.709,8.201c-1.316,2.977-2.042,5.987-2.179,9.03c-0.14,3.046,0.296,6.004,1.297,8.876
			c1.004,2.873,2.613,5.416,4.826,7.629c2.216,2.216,4.776,3.841,7.681,4.879c2.907,1.038,5.881,1.488,8.928,1.349
			c3.044-0.138,6.055-0.864,9.03-2.181c2.974-1.314,5.709-3.218,8.2-5.709c2.491-2.491,4.394-5.225,5.709-8.2
			c1.314-2.974,2.059-6.003,2.232-9.082C256.09,228.616,255.641,225.641,254.569,222.768z M239.88,240.883
			c-1.731,1.731-3.981,2.423-6.747,2.076c-2.769-0.344-5.258-1.625-7.473-3.841c-2.144-2.144-3.391-4.6-3.737-7.37
			c-0.347-2.767,0.346-5.016,2.077-6.747c1.729-1.729,3.963-2.438,6.695-2.129c2.733,0.313,5.209,1.575,7.422,3.789
			c2.216,2.216,3.494,4.708,3.841,7.474C242.302,236.904,241.61,239.154,239.88,240.883z"/>
	</g>
</g>
<g>
</g>
<g>
</g>
<g>
</g>
<g>
</g>
<g>
</g>
<g>
</g>
<g>
</g>
<g>
</g>
<g>
</g>
<g>
</g>
<g>
</g>
<g>
</g>
<g>
</g>
<g>
</g>
<g>
</g>
</svg>
