<svg id="Layer_1" enable-background="new 0 0 510 510" height="512" viewBox="0 0 510 510" width="512" xmlns="http://www.w3.org/2000/svg"><g><path d="m135 285.142h30v-30h30v-30h-30v-30h-30v30h-30v30h30z"/><path d="m510 311.452-60.924-116.31h-29.076v-15c-2.269-59.632-87.752-59.586-90 0v15h-30v-60h-300v315h91.899c16.001 59.64 100.224 59.6 116.202 0h123.797c16.002 59.64 100.224 59.6 116.203 0h61.899zm-79.076-86.31 39.286 75h-95.21v-75zm-70.924-45c.756-19.877 29.251-19.862 30 0v15h-30zm-90-15v150h-240v-150zm-120 300c-16.542 0-30-13.458-30-30 1.508-39.744 58.498-39.734 60 0 0 16.542-13.458 30-30 30zm58.101-45c-16.001-59.64-100.224-59.6-116.202 0h-61.899v-75h240v75zm181.899 45c-16.542 0-30-13.458-30-30 1.508-39.744 58.498-39.734 60 0 0 16.542-13.458 30-30 30zm58.102-45c-16.002-59.64-100.224-59.6-116.203 0h-31.899v-195h45v105h135v90z"/><path d="m360 15.142h30v45h-30z"/><path d="m428.787 60.143h42.426v30h-42.426z" transform="matrix(.707 -.707 .707 .707 78.668 340.206)"/><path d="m285 53.929h30v42.426h-30z" transform="matrix(.707 -.707 .707 .707 34.734 234.141)"/></g></svg>