<svg id="Capa_1" enable-background="new 0 0 512 512" height="512" viewBox="0 0 512 512" width="512" xmlns="http://www.w3.org/2000/svg"><g><path d="m503.866 429.987c-3.281-33.088-25.669-61.598-57.037-72.631l-104.409-36.726-12.162-40.452c23.675-20.712 38.655-51.129 38.655-84.982l.116-108.408c.062-23.164-8.912-44.953-25.269-61.354-16.358-16.402-38.122-25.434-61.285-25.434h-161.969v60.712c-.46 23.991 7.543 50.13 22.594 74.091v60.393c0 33.847 14.975 64.26 38.643 84.972l-12.169 40.482-103.895 36.797c-30.985 10.974-53.276 39.183-56.789 71.865l-8.89 82.688h512zm-353.36-399.987h131.968c15.135 0 29.355 5.902 40.043 16.618 9.778 9.804 15.502 22.557 16.378 36.246-6.862-3.282-14.539-5.124-22.639-5.124h-120.5c-15.475 0-29.409 6.712-39.052 17.375-4.28-11.587-6.426-23.134-6.201-33.94zm22.594 165.195v-64.799c0-12.493 10.164-22.656 22.656-22.656h120.5c12.462 0 22.605 10.115 22.654 22.565v.05h.001c0 .014.001.027.001.041v64.799c0 45.715-37.191 82.906-82.906 82.906s-82.906-37.191-82.906-82.906zm98.028 128.029c0 8.338-6.784 15.122-15.122 15.122s-15.122-6.784-15.122-15.122 6.784-15.122 15.122-15.122 15.122 6.783 15.122 15.122zm150.497 158.776v-45.253h-30v45.253h-271.25v-45.253h-30v45.253h-56.977l5.319-49.482c2.288-21.28 16.802-39.647 36.977-46.793l118.231-41.875 13.984-46.521c2.877 1.36 5.818 2.604 8.821 3.722-3.715 6.554-5.847 14.117-5.847 22.173 0 24.88 20.242 45.122 45.122 45.122s45.122-20.241 45.122-45.122c0-8.056-2.132-15.619-5.847-22.172 2.999-1.116 5.936-2.358 8.809-3.716l13.99 46.535 118.794 41.785c20.424 7.185 35.001 25.748 37.138 47.292l4.866 49.052z"/><path d="m328.388 383.183-29.043-19.167-16.524 25.039 18.896 12.471 6.176 27.955 37.51 12.304 9.351-28.506-21.257-6.973z"/><path d="m183.612 383.183-5.109 23.123-21.257 6.973 9.351 28.506 37.51-12.304 6.176-27.955 18.896-12.471-16.524-25.039z"/><path d="m236.849 238.251 19.154 10 19.151-9.999 12.207 6.374 13.887-26.592-26.093-13.626-19.153 10.001-19.153-10-26.097 13.624 13.884 26.594z"/><path d="m365.189 313.065 21.433-7.3 25.88 12.239 32.701-22.117-16.808-24.849-18.531 12.533-21.407-10.123-32.939 11.219z"/><path d="m125.378 305.765 21.433 7.3 9.671-28.398-32.939-11.219-21.407 10.123-18.531-12.533-16.808 24.849 32.701 22.117z"/></g></svg>