<svg id="Capa_1" enable-background="new 0 0 512 512" height="512" viewBox="0 0 512 512" width="512" xmlns="http://www.w3.org/2000/svg"><g><path d="m493 241h-33.266v-241h-407.468v241h-33.266v30h33.266v241h407.469v-241h33.265zm-63.266 0h-40v-211h40zm-188.734 219v22h-88.734v-90.5h207.469v90.5h-88.735v-22zm30-408v-22h88.734v90.5h-207.468v-90.5h88.734v22zm-118.734 98.5h88.734v90.5h-88.734zm88.734 120.5v90.5h-88.734v-90.5zm118.734 90.5h-88.734v-90.5h88.734zm-88.734-120.5v-90.5h88.734v90.5zm-188.734-211h40v211h-40zm0 241h40v211h-40zm347.468 211h-40v-211h40z"/></g></svg>