<svg id="Capa_1" enable-background="new 0 0 511.65 511.65" height="512" viewBox="0 0 511.65 511.65" width="512" xmlns="http://www.w3.org/2000/svg"><g><path d="m423.129 263.421c3.123-4.497 6.029-9.123 8.697-13.879 21.356-38.065 25.675-81.365 12.163-121.923l-2.371-7.115c-19.935-8.837-48.913-11.618-69.818-9.505 7.957-15.674 12.191-33.104 12.191-50.996h-30c0 15.748-4.479 31.003-12.773 44.135-3.726-11.614-9.646-22.579-17.654-32.547-4.432-5.516-8.958-10.453-14.573-15.257v-56.334h-30v36.85c-5.905-2.92-17.124-7.316-23.621-9.616-26.495 9.375-53.263 25.903-67.944 44.446-7.482 9.45-13.078 19.803-16.71 30.758-7.623-12.741-11.725-27.364-11.725-42.436h-30c0 17.955 4.264 35.445 12.275 51.162-21.365-2.368-49.108.169-71.235 9.34l-2.371 7.115c-13.512 40.558-9.193 83.857 12.163 121.923 2.669 4.756 5.575 9.382 8.697 13.879-37.547 12.608-72.53 41.829-88.467 80.249 20.688 43.58 54.355 70.289 94.948 81.711 20.131 5.664 41.387 7.467 63.139 5.538 4.738 18.022 15.331 34.142 31.544 47.925 15.954 13.563 40.87 25.445 65.623 32.807 49.935-14.853 88.182-45.003 97.989-80.75 5.663.508 11.294.769 16.88.768 15.936-.001 31.519-2.08 46.472-6.288 40.593-11.421 73.344-37.38 94.948-81.711-17.104-39.67-50.92-67.642-88.467-80.249zm-137.759-106.979 14.628-48.758c1.225-4.085 2.327-8.424 3.314-12.949 8.164 11.757 12.544 25.1 12.567 39.359 0 0-32.442 36.261-34.99 39.504 1.358-5.984 2.851-11.722 4.481-17.156zm25.802 27.727 32.188-35.764c24.193-9.236 49.628-10.621 74.346-4.009 8.029 30.302 3.844 62.147-12.044 90.468-4.192 7.471-9.099 14.575-14.656 21.292-10.917-1.365-22.061-1.7-33.348-1.011v-14.645h-48.36c-11.925 0-23.144 3.071-32.918 8.453 6.156-23.892 17.998-46.124 34.792-64.784zm16.486 86.331v.07c0 24.775-20.156 44.93-44.93 44.93h-11.903v-6.527c0-21.214 17.259-38.473 38.473-38.473zm-116.711-180.197c10.277-12.981 25.565-23.682 44.425-31.143 7.945 3.139 15.191 6.83 21.706 10.986-1.31 10.607-3.268 20.427-5.815 28.918l-14.628 48.759c-4.236 14.12-7.643 29.987-10.147 46.966-6.337-10.888-13.818-21.177-22.378-30.688l-28.334-31.482c.129-15.52 5.213-29.74 15.171-42.316zm-117.004 54.092c25.412-6.798 51.587-5.158 76.385 4.792l31.483 34.981c17.003 18.893 28.923 41.448 35.012 65.678-10.132-5.93-21.907-9.347-34.471-9.347h-48.361v14.644c-11.286-.689-22.431-.354-33.348 1.011-5.557-6.716-10.464-13.821-14.656-21.292-15.888-28.319-20.073-60.165-12.044-90.467zm146.882 164.578v6.527h-11.903c-24.774 0-44.93-20.156-44.93-44.93v-.07h18.361c21.213 0 38.472 17.259 38.472 38.473zm-84.918 92.024c-18.298 1.668-36.064.208-52.779-4.495-29.832-8.394-54.163-27.023-69.256-52.836 15.308-26.233 40.013-45.166 70.309-53.69 16.284-4.581 33.536-6.094 51.278-4.648 4.05 20.19 16.245 37.459 32.994 48.253-19.135 21.983-30.198 44.996-32.546 67.416zm168.886 20.365c-6.078 25.295-31.301 46.624-69.483 58.935-37.612-12.141-62.46-33.176-68.455-58.128-5.616-23.372 5.528-50.438 31.435-76.67h75.602c25.884 26.165 36.56 52.308 30.901 75.863zm83.729-24.86c-16.669 4.69-34.384 6.156-52.631 4.51-.832-8.964-3.064-18.036-6.708-27.158-5.472-13.699-14.072-27.266-25.639-40.495 16.57-10.809 28.625-27.98 32.646-48.031 17.742-1.446 34.995.067 51.279 4.648 30.296 8.524 55.001 27.457 70.309 53.69-15.093 25.813-39.424 44.442-69.256 52.836z"/></g></svg>