<svg id="Capa_1" enable-background="new 0 0 510 510" height="512" viewBox="0 0 510 510" width="512" xmlns="http://www.w3.org/2000/svg"><g><path d="m135 195c19.555 0 36.227-12.542 42.42-30h32.58v30h30v-30h30v-30h-30v-30h-30v30h-32.58c-6.192-17.459-22.865-30-42.42-30-24.813 0-45 20.187-45 45s20.187 45 45 45zm0-60c8.271 0 15 6.729 15 15s-6.729 15-15 15-15-6.729-15-15 6.729-15 15-15z"/><path d="m345 480v-30h163.028l-40-60 40-60h-163.028v-30h-30v180h-255v-210h355.848l-68.571-120 68.571-120h-355.848v-30h-30v480h-30v30h510v-30zm106.972-120-20 30 20 30h-106.972v-60zm-87.82-300-51.429 90 51.429 90h-304.152v-180z"/></g></svg>