<svg id="Capa_1" enable-background="new 0 0 512 512" height="512" viewBox="0 0 512 512" width="512" xmlns="http://www.w3.org/2000/svg"><path d="m512 79.086v-30h-512v30h37.698l33.826 65.957h-71.524v30h37.698l33.826 65.957h-71.524v30h37.698l33.826 65.957h-71.524v30h37.698l49.212 95.957h338.18l49.212-95.957h37.698v-30h-71.524l33.826-65.957h37.698v-30h-71.524l33.826-65.957h37.698v-30h-71.525l33.826-65.957zm-71.414 287.871-33.826 65.957h-301.52l-33.826-65.957h49.579v21.497h30v-21.497h30.003v21.497h30v-21.497h30.004v21.497h30v-21.497h30.004v21.497h30v-21.497h30.003v21.497h30v-21.497zm0-95.957-33.826 65.957h-301.52l-33.826-65.957h49.579v21.497h30v-21.497h30.003v21.497h30v-21.497h30.004v21.497h30v-21.497h30.004v21.497h30v-21.497h30.003v21.497h30v-21.497zm0-95.957-33.826 65.957h-301.52l-33.826-65.957h49.579v21.497h30v-21.497h30.003v21.497h30v-21.497h30.004v21.497h30v-21.497h30.004v21.497h30v-21.497h30.003v21.497h30v-21.497zm-33.826-30h-301.52l-33.826-65.957h49.579v21.497h30v-21.497h30.003v21.497h30v-21.497h30.004v21.497h30v-21.497h30.004v21.497h30v-21.497h30.003v21.497h30v-21.497h49.579z"/></svg>