<?xml version="1.0" encoding="iso-8859-1"?>
<!-- Generator: Adobe Illustrator 19.0.0, SVG Export Plug-In . SVG Version: 6.00 Build 0)  -->
<svg xmlns="http://www.w3.org/2000/svg" xmlns:xlink="http://www.w3.org/1999/xlink" version="1.1" id="Layer_1" x="0px" y="0px" viewBox="0 0 512.001 512.001" style="enable-background:new 0 0 512.001 512.001;" xml:space="preserve">
<g>
	<g>
		<path d="M494.108,413.796V66.897H17.893v346.899H0v31.308h17.893h301.559h121.835h52.82h17.893v-31.308H494.108z M409.979,413.796    h-59.219v-33.249h59.219V413.796z M409.98,349.239h-0.001h-90.527v15.587h-218.4V147.178H409.98V349.239z M462.8,413.796h-21.514    V380.48v-31.241V115.871H69.744v280.263h249.708v17.663H49.201V98.205H462.8V413.796z"/>
	</g>
</g>
<g>
	<g>
		<path d="M181.489,267.003v-37.038h-14.139c-0.29,0.578-1.012,1.33-2.169,2.254c-1.157,0.926-2.458,1.837-3.903,2.733    s-2.905,1.662-4.38,2.298c-1.475,0.637-2.675,0.954-3.599,0.954v12.838c1.098,0,2.355-0.188,3.773-0.564    c1.416-0.376,2.804-0.867,4.164-1.475c1.357-0.607,2.586-1.272,3.686-1.995c1.098-0.722,1.908-1.431,2.428-2.125v22.119h-12.317    v12.491h37.472v-12.491H181.489z"/>
	</g>
</g>
<g>
	<g>
		<polygon points="217.4,243.149 217.4,234.127 204.91,234.127 204.91,243.149 196.755,243.149 196.755,254.251 204.91,254.251     204.91,263.273 217.4,263.273 217.4,254.251 225.64,254.251 225.64,243.149   "/>
	</g>
</g>
<g>
	<g>
		<path d="M260.163,267.003v-37.038h-14.138c-0.29,0.578-1.012,1.33-2.169,2.254c-1.157,0.926-2.458,1.837-3.903,2.733    c-1.446,0.896-2.905,1.662-4.38,2.298c-1.475,0.637-2.675,0.954-3.599,0.954v12.838c1.097,0,2.355-0.188,3.773-0.564    c1.416-0.376,2.804-0.867,4.164-1.475c1.358-0.607,2.586-1.272,3.686-1.995c1.098-0.722,1.908-1.431,2.428-2.125v22.119h-12.317    v12.491h37.472v-12.491H260.163z"/>
	</g>
</g>
<g>
	<g>
		<g>
			<rect x="278.378" y="259.889" width="27.496" height="8.849"/>
			<rect x="278.378" y="242.369" width="27.496" height="8.846"/>
		</g>
	</g>
</g>
<g>
	<g>
		<path d="M333.977,267.003c0.521-0.578,1.286-1.228,2.298-1.952c1.011-0.722,2.11-1.445,3.297-2.169    c1.185-0.722,2.385-1.431,3.599-2.125c1.214-0.694,2.255-1.301,3.122-1.822c1.271-0.751,2.515-1.575,3.73-2.471    c1.214-0.896,2.313-1.937,3.296-3.123c0.982-1.184,1.778-2.529,2.386-4.032c0.606-1.503,0.91-3.209,0.91-5.118    c0-4.626-1.661-8.299-4.987-11.016c-3.326-2.717-8.111-4.077-14.356-4.077c-2.544,0-4.987,0.233-7.329,0.694    c-2.342,0.463-4.496,1.084-6.462,1.865c-1.966,0.781-3.73,1.664-5.291,2.646c-1.561,0.984-2.805,1.995-3.729,3.036l8.848,10.235    c1.676-1.908,3.41-3.453,5.204-4.64c1.791-1.184,3.903-1.778,6.331-1.778c2.138,0,3.787,0.493,4.943,1.475    c1.156,0.984,1.735,2.284,1.735,3.903c0,0.81-0.233,1.518-0.694,2.125c-0.463,0.607-1.229,1.288-2.299,2.039    c-1.07,0.751-2.515,1.62-4.336,2.602c-1.822,0.983-4.092,2.226-6.809,3.73c-2.544,1.445-4.654,2.921-6.331,4.424    c-1.677,1.504-3.008,3.137-3.99,4.9c-0.984,1.765-1.678,3.716-2.082,5.856c-0.405,2.138-0.607,4.568-0.607,7.285v0.001h43.196    v-12.491H333.977z"/>
	</g>
</g>
<g>
</g>
<g>
</g>
<g>
</g>
<g>
</g>
<g>
</g>
<g>
</g>
<g>
</g>
<g>
</g>
<g>
</g>
<g>
</g>
<g>
</g>
<g>
</g>
<g>
</g>
<g>
</g>
<g>
</g>
</svg>
