<svg id="Capa_1" enable-background="new 0 0 512 512" height="512" viewBox="0 0 512 512" width="512" xmlns="http://www.w3.org/2000/svg"><g><path d="m481.875 391.625v-331.5h15.125v-30h-482v30h15.125v331.5h-30.125v90.25h512v-90.25zm-60.25 0v-30.25h30.25v30.25zm-271-211v90.5h-90.5v-90.5zm-30.25-30v-90.5h30.25v90.5zm30.25 150.5v90.5h-30.25v-90.5zm30-241h30.25v331.5h-30.25zm60.25 0h30.25v331.5h-30.25zm60.25 0h30.25v331.5h-30.25zm60.25 0h30.25v331.5h-30.25zm90.5 271.25h-30.25v-30.25h30.25zm0-60.25h-30.25v-90.5h30.25zm0-120.5h-30.25v-30.25h30.25zm0-60.25h-30.25v-30.25h30.25zm-391.75-30.25h30.25v90.5h-30.25zm0 241h30.25v90.5h-30.25zm421.875 150.75h-452v-30.25h452z"/><path d="m90.375 210.875h30v30h-30z"/></g></svg>