<svg height="512pt" viewBox="-31 0 512 512" width="512pt" xmlns="http://www.w3.org/2000/svg"><path d="m201.113281 147.535156c-13.195312-11.472656-31.265625-27.183594-72.328125-27.183594-68.90625 0-128.785156 49.359376-128.785156 162.78125 0 54.644532 18.632812 112.140626 51.113281 157.742188 31.726563 44.535156 71.957031 71.125 107.617188 71.125 18.101562 0 26.992187-6.46875 34.136719-11.667969 6.679687-4.859375 12.449218-9.058593 31.882812-9.058593 19.503906 0 25.277344 4.203124 31.96875 9.074218 7.128906 5.191406 16.003906 11.652344 34.050781 11.652344 35.519531 0 75.660157-26.433594 107.378907-70.710938 32.648437-45.570312 51.375-103.289062 51.375-158.351562 0-111.765625-58.523438-160.757812-129.292969-160.757812-42.0625 0-59.921875 15.167968-72.964844 26.246093-2.636719 2.238281-4.871094 4.101563-6.949219 5.628907 5.496094-52.773438 50.234375-94.054688 104.433594-94.054688 8.285156 0 15-6.714844 15-15s-6.714844-15-15-15c-37.496094 0-71.46875 15.371094-95.953125 40.140625-14.410156-40.8125-53.363281-70.140625-99.046875-70.140625-8.28125 0-15 6.714844-15 15 0 50.539062 35.894531 92.851562 83.527344 102.789062-4.375 11.675782-7.175782 24.113282-8.144532 37.054688-2.671874-1.839844-5.511718-4.257812-9.019531-7.308594zm-34.4375-115.609375c27.792969 6.433594 49.714844 28.355469 56.148438 56.148438-27.789063-6.433594-49.714844-28.355469-56.148438-56.148438zm100.007813 139.367188c11.574218-9.828125 22.507812-19.109375 53.546875-19.109375 72.058593 0 99.292969 58.980468 99.292969 130.753906 0 48.941406-16.679688 100.289062-45.761719 140.882812-25.710938 35.886719-57.507813 58.179688-82.992188 58.179688-8.28125 0-10.824219-1.851562-16.394531-5.90625-8.589844-6.253906-20.359375-14.820312-49.625-14.820312-29.195312 0-40.953125 8.554687-49.535156 14.800781-5.59375 4.070312-8.144532 5.925781-16.484375 5.925781-25.589844 0-57.464844-22.425781-83.179688-58.53125-28.949219-40.636719-45.550781-91.789062-45.550781-140.335938 0-119.84375 69.085938-132.78125 98.785156-132.78125 29.84375 0 40.917969 9.628907 52.644532 19.824219 10.375 9.019531 22.136718 19.246094 43.3125 19.246094h.003906.015625c20.585937-.007813 31.921875-9.636719 41.921875-18.128906zm0 0"/><path d="m164.75 286c0 21.132812 12.167969 43.273438 36.207031 65.957031-14.285156 10.132813-29.4375 19.054688-42.78125 25.5625-7.445312 3.632813-10.539062 12.613281-6.90625 20.058594 3.632813 7.445313 12.613281 10.535156 20.058594 6.902344 14.09375-6.875 34.28125-18.554688 53.421875-32.757813 19.140625 14.203125 39.328125 25.882813 53.421875 32.757813 7.464844 3.640625 16.433594.527343 20.058594-6.902344 3.632812-7.445313.542969-16.425781-6.90625-20.058594-13.34375-6.507812-28.496094-15.429687-42.78125-25.5625 24.039062-22.683593 36.207031-44.824219 36.207031-65.957031 0-33.085938-26.917969-60-60-60-33.085938 0-60 26.914062-60 60zm90 0c0 14.433594-12.539062 31.242188-30 47.027344-17.457031-15.785156-30-32.59375-30-47.027344 0-16.542969 13.460938-30 30-30 16.542969 0 30 13.457031 30 30zm0 0"/></svg>