<?xml version="1.0" encoding="iso-8859-1"?>
<!-- Generator: Adobe Illustrator 19.0.0, SVG Export Plug-In . SVG Version: 6.00 Build 0)  -->
<svg xmlns="http://www.w3.org/2000/svg" xmlns:xlink="http://www.w3.org/1999/xlink" version="1.1" id="Layer_1" x="0px" y="0px" viewBox="0 0 512 512" style="enable-background:new 0 0 512 512;" xml:space="preserve">
<g>
	<g>
		<path d="M209.216,117.216c-26.826-45.955-62.691-55.602-88.055-55.602h-0.001c-25.364,0-61.229,9.646-88.054,55.602    C11.138,154.851,0,209.196,0,278.744v171.641h242.322V278.744C242.322,209.196,231.183,154.85,209.216,117.216z M211.905,419.968    H30.417V278.744c0-116.914,33.923-186.711,90.744-186.711c56.82,0,90.744,69.797,90.744,186.711V419.968z"/>
	</g>
</g>
<g>
	<g>
		<path d="M478.894,117.216c-26.825-45.955-62.69-55.602-88.054-55.602h-0.001c-25.364,0-61.229,9.646-88.055,55.602    c-21.967,37.634-33.106,91.98-33.106,161.528v171.641H512h0V278.744C512,209.196,500.862,154.85,478.894,117.216z     M481.583,419.968H300.095V278.744c0-116.913,33.923-186.711,90.745-186.711c56.82,0,90.743,69.797,90.743,186.711V419.968z"/>
	</g>
</g>
<g>
	<g>
		<path d="M121.161,129.188c-29.131,0-52.83,23.699-52.83,52.829s23.699,52.829,52.83,52.829c29.13,0,52.829-23.699,52.829-52.829    S150.291,129.188,121.161,129.188z M121.161,204.427c-12.359,0-22.412-10.054-22.412-22.411c0-12.357,10.054-22.411,22.412-22.411    s22.411,10.054,22.411,22.411C143.572,194.373,133.518,204.427,121.161,204.427z"/>
	</g>
</g>
<g>
	<g>
		<path d="M121.161,249.492c-43.965,0-79.732,35.767-79.732,79.732c0,43.965,35.768,79.733,79.732,79.733    s79.732-35.768,79.732-79.733C200.893,285.258,165.126,249.492,121.161,249.492z M121.161,378.539    c-27.193,0-49.314-22.122-49.314-49.315s22.122-49.314,49.314-49.314s49.314,22.121,49.314,49.314    S148.354,378.539,121.161,378.539z"/>
	</g>
</g>
<g>
	<g>
		<path d="M390.839,129.188c-29.13,0-52.829,23.699-52.829,52.829s23.699,52.829,52.829,52.829c29.131,0,52.83-23.699,52.83-52.829    S419.97,129.188,390.839,129.188z M390.839,204.427c-12.357,0-22.411-10.054-22.411-22.411c0-12.357,10.054-22.411,22.411-22.411    c12.359,0,22.412,10.054,22.412,22.411C413.252,194.373,403.198,204.427,390.839,204.427z"/>
	</g>
</g>
<g>
	<g>
		<path d="M390.839,249.492c-43.965,0-79.732,35.767-79.732,79.732c0,43.965,35.768,79.733,79.732,79.733    s79.732-35.768,79.732-79.733C470.571,285.258,434.804,249.492,390.839,249.492z M390.839,378.539    c-27.193,0-49.314-22.122-49.314-49.315s22.122-49.314,49.314-49.314c27.192,0,49.314,22.121,49.314,49.314    S418.032,378.539,390.839,378.539z"/>
	</g>
</g>
<g>
</g>
<g>
</g>
<g>
</g>
<g>
</g>
<g>
</g>
<g>
</g>
<g>
</g>
<g>
</g>
<g>
</g>
<g>
</g>
<g>
</g>
<g>
</g>
<g>
</g>
<g>
</g>
<g>
</g>
</svg>
