<svg id="Capa_1" enable-background="new 0 0 510.166 510.166" height="512" viewBox="0 0 510.166 510.166" width="512" xmlns="http://www.w3.org/2000/svg"><g><path d="m315.166 0c-37.492 0-73.838 10.741-105 30.677v-30.677h-210v255.001l80-60h40c0 34.73 9.137 67.361 25.117 95.636l-145.283 145.283 74.247 74.246 145.282-145.282c28.275 15.98 60.907 25.118 95.637 25.118 107.523 0 195-87.477 195-195 0-107.525-87.478-195.002-195-195.002zm-105 195.001v-.038c.021-57.88 47.115-104.963 105-104.963 57.897 0 105 47.103 105 105.001 0 22.259-6.968 42.919-18.83 59.924-10.578-15.239-24.901-27.242-41.435-34.996 9.485-10.615 15.265-24.606 15.265-39.928 0-33.084-26.916-60.001-60-60.001-33.085 0-60.001 26.916-60.001 60.001 0 15.321 5.78 29.313 15.265 39.928-16.534 7.754-30.856 19.757-41.435 34.996-11.862-17.005-18.83-37.665-18.829-59.924zm74.999-15c0-16.543 13.458-30.001 30.001-30.001 16.542 0 30 13.458 30 30.001 0 16.538-13.452 29.994-29.989 29.999-.002 0 .008 0-.022 0-16.538-.006-29.99-13.461-29.99-29.999zm29.99 59.999c.003 0 .007.001.011.001s.007-.001.011-.001c27.171.004 51.66 14.414 64.93 37.452-38.099 30.072-91.77 30.083-129.882 0 13.269-23.038 37.757-37.448 64.93-37.452zm-244.99-74.999-40 30v-165.001h150.001v135.001zm4.081 302.738-31.82-31.82 119.876-119.876c9.34 11.753 20.067 22.48 31.82 31.819zm240.92-107.738c-90.981 0-165.001-74.019-165.001-165h30c0 74.439 60.561 135 135.001 135 74.439 0 135-60.561 135-135s-60.561-135.001-135-135.001c-42.367 0-80.231 19.624-105 50.252v-42.511c29.517-24.379 66.543-37.74 105-37.74 90.981 0 165 74.019 165 165.001 0 90.98-74.019 164.999-165 164.999z"/><path d="m60.165 75h90.001v30h-90.001z"/></g></svg>