<?xml version="1.0" encoding="iso-8859-1"?>
<!-- Generator: Adobe Illustrator 19.0.0, SVG Export Plug-In . SVG Version: 6.00 Build 0)  -->
<svg xmlns="http://www.w3.org/2000/svg" xmlns:xlink="http://www.w3.org/1999/xlink" version="1.1" id="Layer_1" x="0px" y="0px" viewBox="0 0 512 512" style="enable-background:new 0 0 512 512;" xml:space="preserve">
<g>
	<g>
		<path d="M406.574,457.239l-87.359-217.173c7.957-11.994,12.607-26.363,12.607-41.804c0-1.925-0.096-3.827-0.238-5.717    l67.469-92.304L325.783,0l-65.085,47.561l38.508,52.68l-19.114,26.144c-7.575-2.545-15.671-3.947-24.093-3.947    c-8.422,0-16.518,1.401-24.093,3.947l-19.114-26.144l38.508-52.68L186.216,0l-73.27,100.241l67.469,92.304    c-0.142,1.89-0.238,3.792-0.238,5.717c0,15.441,4.65,29.81,12.607,41.804L105.428,457.23c-3.979,9.875-3.875,20.709,0.295,30.504    c4.169,9.792,11.903,17.377,21.778,21.356c4.816,1.941,9.861,2.91,14.903,2.91c5.294,0,10.585-1.068,15.602-3.204    c9.797-4.169,17.385-11.904,21.367-21.787l76.625-190.475l76.63,190.483c3.98,9.875,11.567,17.609,21.364,21.779    c5.018,2.136,10.307,3.204,15.602,3.204c5.041,0,10.088-0.97,14.903-2.91c9.875-3.98,17.609-11.564,21.778-21.356    C410.446,477.938,410.551,467.105,406.574,457.239z M319.268,41.895l42.649,58.346l-41.948,57.39    c-3.828-6.004-8.47-11.436-13.781-16.137l30.159-41.251l-33.748-46.167L319.268,41.895z M192.032,157.63l-41.948-57.389    l42.649-58.346l16.669,12.181l-33.748,46.165l30.159,41.251C200.502,146.193,195.859,151.625,192.032,157.63z M151.561,475.811    c-2.036,5.051-7.801,7.505-12.853,5.47c-2.448-0.985-4.364-2.865-5.397-5.292c-1.032-2.424-1.058-5.106-0.069-7.56l82.777-205.78    c5.566,3.469,11.607,6.237,18.008,8.18L151.561,475.811z M210.159,198.262c0-25.277,20.564-45.842,45.841-45.842    c25.277,0,45.841,20.565,45.841,45.842c0,25.277-20.564,45.841-45.841,45.841C230.723,244.103,210.159,223.539,210.159,198.262z     M378.69,475.987c-1.032,2.427-2.949,4.306-5.397,5.292c-5.058,2.038-10.819-0.419-12.85-5.462l-82.466-204.992    c6.4-1.942,12.442-4.711,18.006-8.179l82.78,205.789C379.747,470.881,379.722,473.564,378.69,475.987z"/>
	</g>
</g>
<g>
</g>
<g>
</g>
<g>
</g>
<g>
</g>
<g>
</g>
<g>
</g>
<g>
</g>
<g>
</g>
<g>
</g>
<g>
</g>
<g>
</g>
<g>
</g>
<g>
</g>
<g>
</g>
<g>
</g>
</svg>
