<svg id="Layer_1" enable-background="new 0 0 510 510" height="512" viewBox="0 0 510 510" width="512" xmlns="http://www.w3.org/2000/svg"><g id="XMLID_122_"><path id="XMLID_125_" d="m316.172 189.959c-7.639-7.639-10.399-18.999-7.205-29.648h.001c9.79-32.638 7.631-65.662-6.42-98.155-3.998-9.246-2.025-14.909-2.548-32.156h30v-30c-18.837 0-134.386 0-150 0v30h30c-.519 17.076 1.468 22.867-2.549 32.156-14.05 32.493-16.21 65.517-6.419 98.154 3.195 10.649.434 22.01-7.204 29.649l-21.861 21.861c-14.166 14.166-21.967 33-21.967 53.033v245.147h210v-245.147c0-20.033-7.801-38.868-21.967-53.034zm13.828 290.041h-150v-30h120v-180h-120c.427-2.6-2.855-20.932 13.18-36.967l21.861-21.861c15.454-15.454 21.097-38.246 14.726-59.482-7.813-26.044-6.105-51.436 5.22-77.627 3.326-7.693 5.013-15.764 5.013-23.99v-20.073h30v20.073c0 8.228 1.686 16.299 5.013 23.99 11.325 26.19 13.033 51.582 5.22 77.627-6.371 21.235-.728 44.028 14.726 59.482l21.861 21.861c8.5 8.499 13.18 19.8 13.18 31.82zm-150-60v-120h90v120z"/><path id="XMLID_158_" d="m0 510h120v-165h-120zm30-135h60v30h-60zm0 60h60v45h-60z"/><path id="XMLID_162_" d="m390 345v165h120v-165zm90 135h-60v-45h60zm0-75h-60v-30h60z"/></g></svg>