<?xml version="1.0" encoding="iso-8859-1"?>
<!-- Generator: Adobe Illustrator 19.0.0, SVG Export Plug-In . SVG Version: 6.00 Build 0)  -->
<svg xmlns="http://www.w3.org/2000/svg" xmlns:xlink="http://www.w3.org/1999/xlink" version="1.1" id="Layer_1" x="0px" y="0px" viewBox="0 0 512.001 512.001" style="enable-background:new 0 0 512.001 512.001;" xml:space="preserve">
<g>
	<g>
		<path d="M437.019,74.982C388.666,26.63,324.38,0,256,0S123.333,26.63,74.981,74.982C26.63,123.334,0,187.62,0,256    s26.629,132.667,74.981,181.019C123.334,485.371,187.62,512,256,512s132.667-26.629,181.019-74.981S512.001,324.38,512.001,256    S485.371,123.333,437.019,74.982z M256,30.002c23.594,0,46.631,3.607,68.497,10.53C309.834,55.633,283.017,67.58,256,79.042    c-27.016-11.463-53.834-23.409-68.497-38.51C209.369,33.609,232.405,30.002,256,30.002z M256,239.707    c-41.913-17.776-80.004-35.159-80.004-64.045c0-28.884,38.09-46.266,80.004-64.042c41.914,17.776,80.004,35.158,80.004,64.042    C336.003,204.549,297.912,221.93,256,239.707z M256,272.285c41.914,17.778,80.004,35.161,80.004,64.046    c0,28.885-38.091,46.268-80.003,64.045c-41.914-17.777-80.005-35.16-80.005-64.045C175.997,307.445,214.087,290.063,256,272.285z     M158.192,459.855c-22.709-10.916-43.656-25.707-62-44.05C53.509,373.12,30.001,316.367,30.001,256    c0-60.366,23.508-117.119,66.193-159.805c18.344-18.344,39.291-33.133,62-44.051c13.202,18.371,35.608,31.614,60.366,43.185    c-13.214,6.168-25.775,12.807-36.517,20.375c-24.258,17.093-36.05,36.705-36.05,59.959c0,23.254,11.792,42.867,36.049,59.961    c10.74,7.567,23.3,14.205,36.512,20.373c-13.213,6.168-25.772,12.806-36.512,20.374c-24.258,17.093-36.05,36.706-36.05,59.961    c0,23.254,11.792,42.867,36.049,59.96c10.741,7.569,23.304,14.208,36.519,20.377C193.801,428.238,171.393,441.483,158.192,459.855    z M256,481.999c-23.594,0-46.631-3.608-68.498-10.531c14.662-15.103,41.481-27.05,68.499-38.513    c27.017,11.464,53.835,23.411,68.497,38.513C302.631,478.392,279.594,481.999,256,481.999z M415.805,415.805    c-18.344,18.344-39.291,33.133-62,44.051c-13.201-18.372-35.608-31.617-60.367-43.189c13.215-6.169,25.776-12.808,36.518-20.376    c24.257-17.094,36.049-36.707,36.049-59.961c0-23.255-11.792-42.868-36.05-59.961c-10.739-7.568-23.299-14.206-36.512-20.374    c13.213-6.168,25.772-12.806,36.512-20.373c24.257-17.094,36.049-36.707,36.049-59.961c0-23.254-11.792-42.866-36.05-59.959    c-10.741-7.568-23.303-14.207-36.517-20.375c24.758-11.57,47.165-24.814,60.366-43.185c22.71,10.918,43.657,25.707,62.001,44.051    c42.686,42.686,66.193,99.439,66.193,159.805S458.491,373.12,415.805,415.805z"/>
	</g>
</g>
<g>
</g>
<g>
</g>
<g>
</g>
<g>
</g>
<g>
</g>
<g>
</g>
<g>
</g>
<g>
</g>
<g>
</g>
<g>
</g>
<g>
</g>
<g>
</g>
<g>
</g>
<g>
</g>
<g>
</g>
</svg>
