<svg id="Capa_1" enable-background="new 0 0 512 512" height="512" viewBox="0 0 512 512" width="512" xmlns="http://www.w3.org/2000/svg"><g><path d="m236.297 332c-1.887-8.978-5.439-17.344-10.304-24.78l21.739-21.739-21.213-21.213-21.739 21.739c-7.435-4.866-15.802-8.418-24.779-10.304v-30.703h-30v30.703c-8.977 1.887-17.344 5.438-24.78 10.304l-21.739-21.739-21.213 21.213 21.739 21.738c-4.866 7.435-8.418 15.802-10.304 24.779h-30.704v30h30.703c1.887 8.978 5.439 17.345 10.305 24.78l-21.739 21.739 21.213 21.213 21.739-21.739c7.435 4.866 15.802 8.418 24.779 10.304v30.705h30v-30.703c8.977-1.887 17.344-5.438 24.779-10.304l21.739 21.739 21.213-21.213-21.739-21.739c4.866-7.435 8.418-15.802 10.304-24.779h30.704v-30h-30.703zm-71.297 57.857c-23.632 0-42.857-19.226-42.857-42.857 0-23.632 19.226-42.857 42.857-42.857s42.857 19.226 42.857 42.857-19.226 42.857-42.857 42.857z"/><path d="m486.337 173.707c15.981-18.428 25.663-42.458 25.663-68.707 0-57.897-47.103-105-105-105-24.506 0-47.076 8.441-64.961 22.565l-264.526 184.602c-46.519 29.21-77.513 80.966-77.513 139.833 0 90.981 74.019 165 165 165 57.473 0 108.168-29.544 137.721-74.236l.007.005zm-36.917-53.707h31.071c-5.98 29.344-29.147 52.51-58.491 58.491v-31.071c12.764-4.527 22.893-14.656 27.42-27.42zm-84.84 0c4.527 12.764 14.656 22.893 27.42 27.42v31.071c-29.344-5.98-52.51-29.147-58.491-58.491zm42.42-30c8.271 0 15 6.729 15 15s-6.729 15-15 15-15-6.729-15-15 6.729-15 15-15zm-15-27.42c-12.764 4.527-22.893 14.656-27.42 27.42h-31.071c5.98-29.344 29.147-52.51 58.491-58.491zm15 147.42c6.39 0 12.648-.576 18.726-1.674l-95.739 137.689c-.531-90.202-73.805-163.474-164.008-164.002l137.773-96.146c-1.147 6.206-1.752 12.6-1.752 19.133 0 57.897 47.103 105 105 105zm73.491-120h-31.071c-4.527-12.764-14.656-22.893-27.42-27.42v-31.071c29.344 5.981 52.51 29.147 58.491 58.491zm-315.491 392c-74.439 0-135-60.561-135-135 0-44.442 21.59-83.933 54.829-108.547l.09.129 9.3-6.49c20.593-12.732 44.842-20.092 70.781-20.092 74.439 0 135 60.561 135 135s-60.561 135-135 135z"/></g></svg>