<svg id="Capa_1" enable-background="new 0 0 510 510" height="512" viewBox="0 0 510 510" width="512" xmlns="http://www.w3.org/2000/svg"><g><path d="m465 120v-60h-68.529c-21.277-19.103-49.162-30-78.401-30h-95.14c-29.232 0-56.831 10.606-78.403 30h-26.607c-6.192-17.458-22.865-30-42.42-30-24.813 0-45 20.187-45 45s20.187 45 45 45c19.555 0 36.227-12.541 42.42-30h38.794l4.393-4.394c16.512-16.512 38.468-25.606 61.823-25.606h95.141c22.725 0 45.103 8.886 61.823 25.606l4.393 4.394h50.713v30h-45v45h-30v-30h-134.5c-24.813 0-45 20.187-45 45s20.187 45 45 45h134.5v-30h30v255h-75v-120h30v-30c-17.012 0-133.696 0-150 0v30h30v120h-225v30h510v-360zm-389.5-30c-8.271 0-15-6.729-15-15s6.729-15 15-15 15 6.729 15 15-6.729 15-15 15zm254.5 105h-104.5c-8.271 0-15-6.729-15-15s6.729-15 15-15h104.5zm-75 255v-120h30v120zm225-300v120h-60v-120zm-60 210h60v30h-60zm0-30v-30h60v30zm0 120v-30h60v30z"/></g></svg>