<svg id="Capa_1" enable-background="new 0 0 512 512" height="512" viewBox="0 0 512 512" width="512" xmlns="http://www.w3.org/2000/svg"><path d="m436.687 482v-198.5c17.531-6.196 30.126-22.937 30.126-42.562 0-24.882-20.243-45.125-45.125-45.125h-75.375v-34.613c0-18.114-6.435-34.753-17.138-47.753 19.126-10.092 32.199-30.173 32.199-53.26.001-33.187-26.999-60.187-60.187-60.187s-60.187 27-60.187 60.188c0 10.589 2.758 20.542 7.58 29.195-30.545 9.583-52.767 38.153-52.767 71.818v155.112h-30.25v-241.063h-120.376v271.062h30.125v48.792l30.125 60.219v26.677h-105.437v30h512v-30zm.126-241.062c0 8.34-6.785 15.125-15.125 15.125h-15.125v-30.25h15.125c8.34-.001 15.125 6.785 15.125 15.125zm-135.626-210.938c16.646 0 30.188 13.542 30.188 30.188s-13.542 30.188-30.188 30.188c-14.935.413-30.58-13.374-30.188-30.188.001-16.646 13.543-30.188 30.188-30.188zm-30.124 85.949c23.058-.464 45.789 20.141 45.25 45.251v64.612h60.25v30.25h-90.501v-75.375h-30v75.375h-30.25v-94.862c0-24.951 20.299-45.251 45.251-45.251zm-195.876 200.363v-211.062h60.375v211.062h-60.25zm211 30v30.25h-180.875v-30.25zm-150.75 135.688v-33.761l-20.849-41.676h162.323l-20.849 41.676v33.761zm150.625 0v-26.676l30.125-60.219v-48.792h30.25v135.687zm90.375 0v-165.688h-150.625v-30.25h180.875v195.938z"/></svg>