<svg id="Capa_1" enable-background="new 0 0 512 512" height="512" viewBox="0 0 512 512" width="512" xmlns="http://www.w3.org/2000/svg"><g><path d="m512 169.312c0-33.152-26.972-60.124-60.124-60.124h-60.377c-16.61 0-30.124-13.514-30.124-30.124v-30.126h-90.25v30.126c0 33.152 26.972 60.124 60.124 60.124h60.376c16.61 0 30.124 13.514 30.124 30.124v29.761c-140.065-11.999-282.056-8.564-421.749 9.751v116.848c49.959 6.513 101.606 11.376 152.168 14.023-1.011 5.849-1.543 11.859-1.543 17.993 0 58.104 47.271 105.375 105.375 105.375s105.375-47.271 105.375-105.375c0-6.138-.533-12.153-1.545-18.006 50.236-2.613 101.998-7.492 152.17-14.007zm-180.751-60.124c-16.61 0-30.124-13.514-30.124-30.124v-.126h30.25v.126c0 10.969 2.952 21.261 8.104 30.124zm112.396 30h8.231c16.61 0 30.124 13.514 30.124 30.124v35.834c-10.075-1.174-20.159-2.269-30.25-3.286v-32.549c0-10.969-2.953-21.261-8.105-30.123zm-293.02 85.749v84.612c-10.088-.552-20.172-1.171-30.25-1.881v-80.834c10.079-.712 20.163-1.344 30.25-1.897zm-120.625 10.412c20.096-2.375 40.225-4.423 60.375-6.162v76.125c-20.155-1.739-40.284-3.779-60.375-6.158zm226 197.713c-41.562 0-75.375-33.813-75.375-75.375s33.813-75.375 75.375-75.375 75.375 33.813 75.375 75.375-33.813 75.375-75.375 75.375zm0-180.75c-29.514 0-56.227 12.201-75.375 31.819v-60.605c80.421-3.153 160.986-1.266 241.125 5.662v76.11c-23.88 2.063-47.791 3.693-71.719 4.863-17.403-34.292-53.016-57.849-94.031-57.849zm226 46.838c-10.075 1.191-20.16 2.28-30.25 3.311v-70.446c10.091 1.032 20.176 2.138 30.25 3.331z"/><path d="m285.337 307.137-29.337 29.338-29.337-29.338-21.213 21.213 29.337 29.338-29.337 29.337 21.213 21.213 29.337-29.338 29.337 29.338 21.213-21.213-29.337-29.337 29.337-29.338z"/></g></svg>