<svg id="Capa_1" enable-background="new 0 0 512 512" height="512" viewBox="0 0 512 512" width="512" xmlns="http://www.w3.org/2000/svg"><g><path d="m241 376h15c24.813 0 45-20.187 45-45v-15c0-8.271 6.729-15 15-15h45v-30h-45c-24.813 0-45 20.187-45 45v15c0 8.271-6.729 15-15 15h-15z"/><path d="m181 271h60v30h-60z"/><path d="m200.394 425.393 21.213 21.213c9.187-9.187 21.401-14.246 34.394-14.246s25.207 5.06 34.394 14.246l21.213-21.213c-14.855-14.853-34.603-23.033-55.608-23.033-21.006 0-40.754 8.18-55.606 23.033z"/><path d="m91 391h6.164c19.547 69.738 83.351 121 158.836 121s139.289-51.262 158.836-121h6.164c33.084 0 60-26.916 60-60s-26.916-60-60-60h-.685c-4.085-44.647-26.263-85.904-61.428-113.992 1.385-6.79 2.113-13.815 2.113-21.008v-45h-30v-16c0-41.355-33.645-75-75-75s-75 33.645-75 75v16h-30v45c0 7.193.728 14.218 2.113 21.008-35.165 28.088-57.343 69.345-61.428 113.992h-.685c-33.084 0-60 26.916-60 60s26.916 60 60 60zm330-45v-45c16.542 0 30 13.458 30 30s-13.458 30-30 30h-.681c.442-4.943.681-9.943.681-15zm-210-271c0-24.813 20.187-45 45-45s45 20.187 45 45v16h-90zm-30 46h150v15c0 41.355-33.645 75-75 75s-75-33.645-75-75zm-60 165c0-37.791 15.9-73.618 43.246-99.001 17.96 32.184 52.354 54.001 91.754 54.001s73.794-21.817 91.754-54.002c27.346 25.384 43.246 61.211 43.246 99.002v60c0 74.99-60.561 136-135 136s-135-61.009-135-136zm-30 15v45c0 5.056.239 10.057.681 15h-.681c-16.542 0-30-13.458-30-30s13.458-30 30-30z"/><path d="m241 151h30v30h-30z"/></g></svg>