<svg id="Capa_1" enable-background="new 0 0 510 510" height="512" viewBox="0 0 510 510" width="512" xmlns="http://www.w3.org/2000/svg"><g id="XMLID_775_"><path id="XMLID_868_" d="m465 0h-90v105h-90v-45h-25c-118.824 0-215 96.159-215 215v235h85c118.824 0 215-96.159 215-215v-100h120zm-150 295c0 102.01-82.99 185-185 185h-55v-205c0-100.335 80.297-182.27 180-184.934v83.721l-34.521 34.521-52.674-13.816-7.611 29.018 52.408 13.746 10.746 42.985-20.417 19.759h-37.931v30h35.144l6.834 12.386-54.615 67.149 23.273 18.93 67.385-82.851-15.345-27.814 15.416-14.918 23.701 10.773 12.414-27.311-26.41-12.005-11.186-44.738 34.602-34.601h38.787zm120-130c-7.244 0-121.225 0-150 0v-30h120v-105h30z"/><path id="XMLID_928_" d="m105 345h30v30h-30z"/><path id="XMLID_929_" d="m120 240h30v30h-30z"/></g></svg>