<svg id="Capa_1" enable-background="new 0 0 511.976 511.976" height="512" viewBox="0 0 511.976 511.976" width="512" xmlns="http://www.w3.org/2000/svg"><g><path d="m499.816 257.157c-15.724-18.651-42.712-23.769-64.173-12.167l-75.412 40.766c-7.455-12.962-20.432-22.351-35.704-24.934 16.387-17.078 26.473-40.246 26.473-65.727 0-25.436-14.467-57.623-43-95.667-20.405-27.206-52-58.88-52-58.88s-31.595 31.673-52 58.88c-28.533 38.044-43 70.231-43 95.667 0 25.122 9.806 47.994 25.786 65h-186.786v211.333h136.572v-34.333h231.108l125.926-107.02c21.815-18.391 24.6-51.102 6.21-72.918zm-25.593 50.02-117.57 99.918h-220.081v-117h179.428c11.58 0 21 9.42 21 21s-9.42 21-21 21h-81.333v30h81.333c26.349 0 48.094-20.086 50.731-45.75l83.179-44.965c9.018-4.875 20.36-2.725 26.969 5.113 7.729 9.169 6.558 22.916-2.656 30.684zm-444.223 134.251v-151.333h76.572v151.333zm161-246.333c0-33.139 40.272-84.367 64.956-111.498 7.449 8.208 17.906 20.289 28.258 34.119 23.722 31.686 36.786 59.167 36.786 77.379 0 35.841-29.159 65-65 65s-65-29.159-65-65z"/></g></svg>