<svg id="Capa_1" enable-background="new 0 0 510 510" height="512" viewBox="0 0 510 510" width="512" xmlns="http://www.w3.org/2000/svg"><g><path d="m442.5 60v-30h-105v-30h-150v30h-15c-33.084 0-60 26.916-60 60v301.898c-25.849 6.678-45 30.195-45 58.102 0 33.084 26.916 60 60 60s60-26.916 60-60c0-27.906-19.151-51.424-45-58.102v-61.898h240v92.58c-17.458 6.192-30 22.865-30 42.42v45h90v-45c0-19.555-12.542-36.228-30-42.42v-362.58zm-225-30h90v30h-90zm-60 420c0 16.542-13.458 30-30 30s-30-13.458-30-30 13.458-30 30-30 30 13.458 30 30zm-15-150v-90h240v90zm270 180h-30v-15c0-8.271 6.729-15 15-15s15 6.729 15 15zm-30-300h-240v-90c0-16.542 13.458-30 30-30h15v30h150v-30h45z"/></g></svg>