<svg id="Capa_1" enable-background="new 0 0 512.018 512.018" height="512" viewBox="0 0 512.018 512.018" width="512" xmlns="http://www.w3.org/2000/svg"><g><path d="m60 60.009h30v30h-30z"/><path d="m422 60.009h30v30h-30z"/><path d="m467 .009h-422c-24.813 0-45 20.187-45 45 0 .732 0 1.261 30.115 425.237 1.673 23.418 21.389 41.763 44.885 41.763h362c23.496 0 43.212-18.344 44.885-41.768 31.908-449.408 30.115-422.162 30.115-425.232 0-24.813-20.187-45-45-45zm-15.039 468.1c-.557 7.795-7.128 13.9-14.961 13.9h-362c-7.833 0-14.404-6.106-14.96-13.894-.293-4.124-28.902-406.909-30.034-423.512.215-8.084 6.859-14.594 14.994-14.594h422c8.271 0 15 6.729 15 15 0 1.052 1.317-18.16-30.039 423.1z"/><path d="m382.708 91.593c-2.579-1.29-63.889-31.583-126.708-31.583s-124.129 30.293-126.708 31.583l-11.636 5.818 37.533 112.598h201.623l37.533-112.598zm-47.52 88.416h-61.161l32.774-49.16-24.961-16.641-43.868 65.801h-61.161l-22.29-66.87c19.632-8.22 60.845-23.13 101.479-23.13 40.495 0 81.802 14.926 101.474 23.143z"/><path d="m241 241.009h30v211h-30z"/><path d="m90 422.009h30v30h-30z"/><path d="m392 422.009h30v30h-30z"/></g></svg>