<svg id="Capa_1" enable-background="new 0 0 512.215 512.215" height="512" viewBox="0 0 512.215 512.215" width="512" xmlns="http://www.w3.org/2000/svg"><g><path d="m152.215 263c-53.545 0-97.107 43.562-97.107 97.107s43.562 97.107 97.107 97.107 97.107-43.562 97.107-97.107-43.562-97.107-97.107-97.107zm0 164.215c-37.003 0-67.107-30.104-67.107-67.107s30.104-67.108 67.107-67.108 67.107 30.104 67.107 67.107-30.104 67.108-67.107 67.108z"/><path d="m512.107 453.5h-51.667c-4.338-11.771-13.631-21.157-25.333-25.635v-157.462c0-72.975-57.907-132.344-129.084-132.344h-97.867v-41.176c0-53.421-43.462-96.883-96.883-96.883h-85.166v30h70.166v188.659c-56.272 22.334-96.166 77.319-96.166 141.448 0 83.872 68.235 152.107 152.107 152.107 70.794 0 130.447-48.616 147.329-114.215h105.563v29.494c-16.877 5.986-29 22.103-29 41.006 0 23.986 19.514 43.5 43.5 43.5 18.717 0 34.709-11.883 40.833-28.5h51.667v-29.999zm-206.084-285.44c54.635 0 99.084 45.911 99.084 102.344v28.596h-113.615c-16.088-36.525-46.127-65.573-83.336-80.341v-50.599zm-127.867-71.177v41.176h-51.883v-106.363c29.683 6.826 51.883 33.462 51.883 65.187zm-51.883 71.177h51.883v42.163c-8.433-1.455-17.099-2.222-25.941-2.222s-17.508.767-25.941 2.222v-42.163zm25.942 314.155c-67.33 0-122.107-54.777-122.107-122.107s54.777-122.108 122.107-122.108 122.107 54.777 122.107 122.107-54.777 122.108-122.107 122.108zm148.904-153.215h103.988v39h-100.988c.134-2.614.203-5.246.203-7.893 0-10.658-1.107-21.062-3.203-31.107zm118.488 153c-7.444 0-13.5-6.056-13.5-13.5s6.056-13.5 13.5-13.5 13.5 6.056 13.5 13.5-6.055 13.5-13.5 13.5z"/></g></svg>