<svg id="Capa_1" enable-background="new 0 0 511.958 511.958" height="512" viewBox="0 0 511.958 511.958" width="512" xmlns="http://www.w3.org/2000/svg"><g><path d="m285.979 389.958c41.355 0 75-33.645 75-75 0-24.813 20.187-45 45-45h15v-30c-14.095 0-30.95 0-45 0-42.367 0-80.231 19.623-105 50.252v-64.195l98.028-98.028c29.24-29.24 29.24-76.817 0-106.057-29.239-29.24-76.817-29.24-106.057 0l-6.972 6.972-6.972-6.972c-29.239-29.24-76.817-29.24-106.057 0s-29.24 76.817 0 106.057l98.028 98.028v64.195c-24.769-30.628-62.633-50.252-105-50.252-14.05 0-30.905 0-45 0v30h15c24.813 0 45 20.187 45 45 0 41.355 33.645 75 75 75h15v30h-75c-20.044 0-38.962 8.242-53.269 23.208-27.63 28.902-20.686 61.465-21.731 68.792h330c-1.046-7.339 5.908-39.88-21.731-68.792-14.307-14.966-33.225-23.208-53.269-23.208h-75v-30zm60 60c19.399 0 36.404 13.612 42.553 32h-265.106c6.149-18.388 23.154-32 42.553-32zm-3.76-174.431c-7.117 11.465-11.24 24.974-11.24 39.432 0 24.813-20.187 45-45 45h-13.924c5.669-39.457 33.35-71.899 70.164-84.432zm-178.056-232.384c17.542-17.542 46.087-17.543 63.631 0l28.185 28.185 28.185-28.185c17.543-17.543 46.088-17.543 63.631 0s17.543 46.087 0 63.63l-91.815 91.815-91.815-91.815c-17.545-17.542-17.545-46.087-.002-63.63zm16.816 271.815c0-14.458-4.123-27.967-11.24-39.432 36.814 12.533 64.495 44.976 70.164 84.432h-13.924c-24.813 0-45-20.186-45-45z"/></g></svg>