<svg id="Layer_1" enable-background="new 0 0 511.999 511.999" height="512" viewBox="0 0 511.999 511.999" width="512" xmlns="http://www.w3.org/2000/svg"><g><path d="m455.998 481.999v-152.308h30.002v-33.529c0-31.141-25.334-56.475-56.475-56.475h-33.531v-202.687h-30v53.999h-30.756c-4.691-33.984-30.811-61.221-64.238-67.588v-23.411h-30v23.411c-33.427 6.367-59.548 33.604-64.239 67.588h-30.756v-53.999h-30v202.688h-33.531c-31.141 0-56.475 25.334-56.475 56.475v33.529h30.002v152.308h-32.007v30h464.011v-30h-32.007zm.002-185.836v3.529h-30.002v122.304h-30.004v-152.308h33.531c14.599 0 26.475 11.876 26.475 26.475zm-150.009 3.528h-99.982v-71.698c2.521-66.245 97.485-66.195 99.982 0zm60.003 30v30.004h-219.989v-30.004zm-219.989 60.004h219.989v32.3h-219.989zm0-268.696h60.003v-19.007c2.521-66.246 97.485-66.196 99.982 0v19.007h60.003v178.693h-30.003v-71.698c-4.034-106-155.986-105.919-159.982 0v71.698h-30.003zm-90.006 178.692v-3.529c0-14.599 11.876-26.475 26.475-26.475h33.531v152.308h-30.004v-122.304zm30.002 152.304h339.997v30.004h-339.997z"/><path d="m241 86h30v30.002h-30z"/></g></svg>