<svg id="Layer_1" enable-background="new 0 0 511.954 511.954" height="512" viewBox="0 0 511.954 511.954" width="512" xmlns="http://www.w3.org/2000/svg"><g><path d="m240.953 188.884h30.002v30h-30.002z"/><path d="m180.949 247.551h150.01v30h-150.01z"/><path d="m300.957 188.884h30.002v30h-30.002z"/><path d="m180.949 188.884h30.002v30h-30.002z"/><path d="m407.619 277.551c24.445 0 44.333-19.888 44.333-44.333-2.229-58.733-86.447-58.717-88.667.001.001 24.444 19.888 44.332 44.334 44.332zm0-58.667c7.903 0 14.333 6.43 14.333 14.333-.721 18.989-27.949 18.984-28.667 0 .001-7.903 6.431-14.333 14.334-14.333z"/><path d="m104.337 277.551c24.446 0 44.333-19.888 44.333-44.333-2.229-58.733-86.447-58.717-88.667.001.001 24.444 19.889 44.332 44.334 44.332zm0-58.667c7.903 0 14.333 6.43 14.333 14.333-.721 18.989-27.949 18.984-28.667 0 .001-7.903 6.431-14.333 14.334-14.333z"/><path d="m165.948 43.873h346.006v-30h-346.006c-59.634 2.27-59.588 87.756 0 90.004h60.004c8.272 0 15.002 6.73 15.002 15.002v15.002h-240.954v364.2h511.907v-364.2h-240.953v-15.002c0-24.814-20.188-45.002-45.002-45.002h-60.004c-19.879-.757-19.864-29.255 0-30.004zm-135.948 424.208v-135.527h30.942v80.262h30v-80.262h30.004v80.262h30v-80.262h30.003v80.262h30v-80.262h30.004v80.262h30v-80.262h30.004v80.262h30v-80.262h30.004v80.262h30v-80.262h30.003v80.262h30v-80.262h30.942v135.527zm451.907-165.527h-451.907v-138.673h451.907z"/></g></svg>