<svg id="Capa_1" enable-background="new 0 0 510 510" height="512" viewBox="0 0 510 510" width="512" xmlns="http://www.w3.org/2000/svg"><g><path d="m465 165v-75c0-24.813-20.187-45-45-45h-15.425c-3.207-25.337-24.881-45-51.075-45h-197c-26.194 0-47.868 19.663-51.075 45h-15.425c-24.813 0-45 20.187-45 45v75h-30v30h90v-30h-30v-75c0-8.271 6.729-15 15-15h15.425c3.208 25.337 24.881 45 51.075 45h197c26.194 0 47.868-19.663 51.075-45h15.425c8.271 0 15 6.729 15 15v75h-30v30h90v-30zm-195-135h45v60h-45zm-30 60h-45v-60h45zm-105-21.5v-17c0-11.855 9.645-21.5 21.5-21.5h8.5v60h-8.5c-11.855 0-21.5-9.645-21.5-21.5zm240 0c0 11.855-9.645 21.5-21.5 21.5h-8.5v-60h8.5c11.855 0 21.5 9.645 21.5 21.5z"/><path d="m465 405c0-24.813-20.187-45-45-45h-15.425c-3.207-25.337-24.881-45-51.075-45h-197c-26.194 0-47.868 19.663-51.075 45h-15.425c-24.813 0-45 20.187-45 45v75h-30v30h90v-30h-30v-75c0-8.271 6.729-15 15-15h15.425c3.208 25.337 24.881 45 51.075 45h197c26.194 0 47.868-19.663 51.075-45h15.425c8.271 0 15 6.729 15 15v75h-30v30h90v-30h-30zm-195-60h45v60h-45zm-30 60h-45v-60h45zm-105-21.5v-17c0-11.855 9.645-21.5 21.5-21.5h8.5v60h-8.5c-11.855 0-21.5-9.645-21.5-21.5zm240 0c0 11.855-9.645 21.5-21.5 21.5h-8.5v-60h8.5c11.855 0 21.5 9.645 21.5 21.5z"/></g></svg>