<svg id="Capa_1" enable-background="new 0 0 512.278 512.278" height="512" viewBox="0 0 512.278 512.278" width="512" xmlns="http://www.w3.org/2000/svg"><g><path d="m467.426 43.885c-59.197-58.789-155.826-58.148-215.404 1.428l-11.485 11.486c-28.535 28.534-50.305 62.116-64.707 99.813l-55.245 144.604c-9.854 25.793-24.75 48.77-44.273 68.293l-76.312 76.312 66.248 66.249 76.313-76.313c19.522-19.523 42.5-34.419 68.293-44.273l144.604-55.245c37.696-14.402 71.278-36.172 99.813-64.707l12.536-12.536c28.749-28.749 44.542-66.972 44.472-107.63-.071-40.657-16-78.828-44.853-107.481zm-401.178 425.757-23.822-23.822 55.099-55.099c4.156-4.156 8.128-8.45 11.918-12.873l24.777 24.778c-4.423 3.79-8.717 7.761-12.873 11.917zm380.345-231.859-12.536 12.536c-25.531 25.531-55.578 45.01-89.307 57.895l-144.604 55.245c-14.696 5.615-28.596 12.654-41.62 21.048l-30.965-30.965c8.394-13.023 15.433-26.923 21.048-41.62l55.245-144.604c12.886-33.729 32.365-63.775 57.896-89.306l11.485-11.486c47.921-47.919 125.55-48.527 173.051-1.355 23.153 22.994 35.936 53.623 35.992 86.246.056 32.625-12.617 63.297-35.685 86.366z"/><path d="m243.28 153.289h201v30h-201z" transform="matrix(.707 -.707 .707 .707 -18.307 292.38)"/><path d="m241.941 110.863h118.824v30h-118.824z" transform="matrix(.707 -.707 .707 .707 -.734 249.953)"/><path d="m326.795 195.715h118.823v30h-118.823z" transform="matrix(.707 -.707 .707 .707 -35.881 334.806)"/></g></svg>