<svg id="Capa_1" enable-background="new 0 0 512 512" height="512" viewBox="0 0 512 512" width="512" xmlns="http://www.w3.org/2000/svg"><g><path d="m451.75 165.624c0-58.104-47.271-105.375-105.376-105.375-20.612 0-39.856 5.954-56.115 16.224-7.812-4.232-16.01-7.671-24.5-10.275 3.339-6.295 5.24-13.465 5.24-21.073.001-24.882-20.243-45.125-45.124-45.125s-45.125 20.243-45.125 45.125c0 7.649 1.919 14.856 5.292 21.175-55.314 17.243-95.667 69.398-95.667 130.758v119.192c.335 21.208-12.379 41.638-30.125 52.656v82.844h120.5v15.125c0 24.882 20.243 45.125 45.125 45.125s45.125-20.243 45.125-45.125v-15.125h120.5v-82.844c-17.518-10.735-30.279-31.009-30.125-52.656v-46.322c51.024-7.304 90.375-51.292 90.375-104.304zm-119.121 165.626c1.796 10.719 5.49 20.97 10.833 30.25h-235.175c5.343-9.28 9.036-19.531 10.833-30.25zm89.121-165.626c0 41.562-33.813 75.376-75.376 75.376s-75.376-33.813-75.376-75.376c0-41.562 33.813-75.375 75.376-75.375s75.376 33.813 75.376 75.375zm-195.875-135.624c8.339 0 15.125 6.785 15.125 15.125s-6.785 15.125-15.125 15.125-15.125-6.785-15.125-15.125 6.785-15.125 15.125-15.125zm-.375 60.251c12.546-.123 27.893 2.654 40.143 7.731-15.372 18.316-24.644 41.915-24.644 67.642 0 53.012 39.351 97 90.376 104.304v31.322h-211v-104.192c0-58.693 47.159-106.607 105.125-106.807zm15.5 376.624c0 8.34-6.785 15.125-15.125 15.125s-15.125-6.785-15.125-15.125v-15.125h30.25zm-150.75-45.125v-30.25h271.25v30.25z"/><path d="m331.375 210.752h30v-90.25h-44.125v30h14.125z"/></g></svg>