<svg id="Capa_1" enable-background="new 0 0 510 510" height="512" viewBox="0 0 510 510" width="512" xmlns="http://www.w3.org/2000/svg"><g><path d="m470.082 420v-255h-30v-60h-30v-105h-30v105h-30v60h-30v255h-30v30h90v30h-30v30h90v-30h-30v-30h90v-30zm-90-285h30v30h-30zm60 60v92.006c-12.204 6.976-22.77 12.994-45 12.994s-32.795-6.017-45-12.994v-32.006h30v-30h-30v-30zm-90 225v-30h30v-30h-30v-39.075c11.056 5.047 24.801 9.075 45 9.075 20.2 0 33.945-4.028 45-9.075v99.075z"/><path d="m243.263 180.753 21.214 21.214 21.213-21.213-63.641-63.64-21.213 21.213 21.214 21.213-22.114 22.114c-11.28-8.026-24.004-13.137-37.133-15.339v-31.315h-30v31.316c-13.128 2.202-25.852 7.312-37.132 15.339l-22.114-22.115 21.213-21.213-21.213-21.213-63.639 63.64 21.213 21.213 21.213-21.214 22.114 22.114c-8.026 11.281-13.136 24.004-15.338 37.133h-31.317v30h31.317c2.202 13.128 7.312 25.852 15.338 37.133l-22.114 22.113-21.213-21.213-21.213 21.213 63.639 63.64 21.213-21.213-21.213-21.214 22.114-22.113c11.28 8.026 24.004 13.136 37.132 15.338v31.316h30v-31.316c13.129-2.202 25.853-7.311 37.133-15.338l22.114 22.113-21.214 21.214 21.213 21.213 63.641-63.64-21.213-21.213-21.214 21.213-22.114-22.113c8.026-11.281 13.137-24.005 15.338-37.133h31.316v-30h-31.316c-2.201-13.129-7.312-25.852-15.338-37.133zm-137.886 31.82c23.391-23.394 61.456-23.396 84.853 0 23.393 23.395 23.393 61.459 0 84.853-23.395 23.395-61.459 23.395-84.853 0-23.395-23.394-23.395-61.458 0-84.853z"/><path d="m132.803 240h30v30h-30z" transform="matrix(.707 -.707 .707 .707 -137.022 179.2)"/></g></svg>