<svg id="Capa_1" enable-background="new 0 0 512 512" height="512" viewBox="0 0 512 512" width="512" xmlns="http://www.w3.org/2000/svg"><g><path d="m512 181.522v-92h-65.477l-42.392-89.522h-296.262l-42.392 89.522h-65.477v92h27.478v300.478h-27.478v30h512v-30h-27.478v-300.478zm-271.321 283.067v-2.841c.218-3.759 6.864-12.425 15.321-20.607 8.452 8.177 15.091 16.833 15.321 20.596v2.852c0 8.448-6.873 15.321-15.321 15.321s-15.321-6.872-15.321-15.321zm64.531-33.889c0 7.942-1.903 15.443-5.258 22.092-5.653-19.314-27.368-37.631-34.705-43.376l-9.247-7.241-9.248 7.241c-7.336 5.744-29.052 24.062-34.705 43.376-3.355-6.648-5.258-14.15-5.258-22.092v-46.773c0-22.562 15.261-41.626 36.003-47.411 6.682 30.815 31.349 55.008 62.417 60.986v33.198zm11.072 51.3c11.789-13.833 18.928-31.743 18.928-51.3v-61.773h-15c-27.135 0-49.21-22.076-49.21-49.21v-15h-15c-43.677 0-79.21 35.534-79.21 79.21v46.773c0 19.557 7.139 37.467 18.928 51.3h-65.599v-179.678h46.831l-.38-15.372-.028-.929c0-19.48 15.848-35.329 35.329-35.329h88.26c19.48 0 35.329 15.848 35.329 35.319l-.409 16.31h46.831v179.679zm95.599 0v-209.678h-47.867c-6.312-29.469-32.558-51.629-63.884-51.629h-88.26c-31.326 0-57.572 22.16-63.884 51.629h-47.867v209.678h-42.641v-300.388h397.045v300.388zm-285.025-452h258.288l28.185 59.522h-314.658zm-96.856 89.522h452v32h-452z"/></g></svg>