<svg id="Capa_1" enable-background="new 0 0 512 512" height="512" viewBox="0 0 512 512" width="512" xmlns="http://www.w3.org/2000/svg"><g><path d="m406 422h-240c-8.271 0-15-6.729-15-15s6.729-15 15-15h277.314l68.686-240h-58v-60h-93v-92h-210v152h-24.955l-6.349-25.784-.011.003c-4.844-19.622-22.588-34.219-43.685-34.219h-31c-24.813 0-45 20.187-45 45h30c0-8.271 6.729-15 15-15h31c8.271 0 15 6.729 15 15h.456l56.352 228.856c-15.774 7.002-26.808 22.804-26.808 41.144 0 24.813 20.187 45 45 45h17.58c-1.665 4.695-2.58 9.742-2.58 15 0 24.813 20.187 45 45 45s45-20.187 45-45c0-5.258-.915-10.305-2.58-15h95.161c-1.665 4.695-2.58 9.742-2.58 15 0 24.813 20.187 45 45 45s45-20.187 45-45-20.188-45-45.001-45zm18.5-300v30h-63.5v-30zm-243.5-92h150v122h-150zm291.229 152-51.543 180h-242.931l-44.322-180zm-231.229 285c0 8.271-6.729 15-15 15s-15-6.729-15-15 6.729-15 15-15 15 6.729 15 15zm165 15c-8.271 0-15-6.729-15-15s6.729-15 15-15 15 6.729 15 15-6.729 15-15 15z"/><path d="m271 62v15c0 8.271-6.729 15-15 15s-15-6.729-15-15v-15h-30v15c0 24.813 20.187 45 45 45s45-20.187 45-45v-15z"/></g></svg>