<?xml version="1.0" encoding="iso-8859-1"?>
<!-- Generator: Adobe Illustrator 19.0.0, SVG Export Plug-In . SVG Version: 6.00 Build 0)  -->
<svg xmlns="http://www.w3.org/2000/svg" xmlns:xlink="http://www.w3.org/1999/xlink" version="1.1" id="Layer_1" x="0px" y="0px" viewBox="0 0 511.999 511.999" style="enable-background:new 0 0 511.999 511.999;" xml:space="preserve">
<g>
	<g>
		<path d="M490.692,291.217c-7.802-22.646-23.894-39.361-44.152-45.857c-23.876-7.658-45.062-4.039-60.26,1.48l0.006-220h-82.145V0    h-29.999v26.839H128.375V0H98.375v26.839H16.231v386.648h264.953c1.934,6.114,3.368,12.318,4.245,18.533    c0.15,1.063,0.297,2.149,0.439,3.255c6.376,49.458,19.634,74.515,40.529,76.603c0.816,0.081,1.614,0.121,2.4,0.121    c26.77-0.003,35.983-46.502,39.104-74.786c0.721-6.525,2.022-11.102,3.38-14.277c1.357,3.176,2.658,7.752,3.379,14.277    c3.121,28.285,12.329,74.79,39.103,74.786c0.784,0,1.586-0.04,2.399-0.121c20.898-2.089,34.156-27.145,40.531-76.603    c0.138-1.071,0.279-2.121,0.423-3.146c2.514-17.86,9.531-35.669,20.295-51.504C495.73,353.676,500.695,320.253,490.692,291.217z     M46.231,56.839h52.145v19.467h29.999V56.839h145.768v19.467h29.999V56.839h52.146v70.052H46.231V56.839z M265.189,380.682    c0.632,0.928,1.248,1.863,1.853,2.805H46.231V156.891h310.051v89.947c-15.198-5.518-36.381-9.137-60.259-1.48    c-20.268,6.499-36.363,23.224-44.162,45.884C241.863,320.295,246.846,353.731,265.189,380.682z M452.603,363.76    c-13.33,19.61-22.041,41.807-25.191,64.189c-0.16,1.14-0.315,2.303-0.469,3.489c-3.399,26.372-8.446,40.303-11.994,46.7    c-3.503-7.539-8.091-22.656-10.47-44.217c-1.476-13.375-5.186-24.325-11.028-32.546c-5.091-7.164-13.379-11.441-22.17-11.44    c-8.792,0-17.079,4.277-22.167,11.44c-5.842,8.221-9.553,19.172-11.028,32.546c-2.38,21.558-6.967,36.677-10.47,44.217    c-3.548-6.397-8.595-20.329-11.995-46.704c-0.159-1.234-0.321-2.442-0.488-3.617c-3.154-22.347-11.849-44.483-25.142-64.015    c-13.048-19.17-16.697-42.646-9.762-62.798c4.689-13.628,13.785-23.498,24.954-27.08c31.15-9.988,55.852,8.575,56.813,9.311    l9.061,7.694l9.436-7.636c1.036-0.795,25.735-19.358,56.889-9.37c11.164,3.58,20.258,13.444,24.948,27.063    C469.267,321.127,465.631,344.594,452.603,363.76z"/>
	</g>
</g>
<g>
	<g>
		<rect x="97.257" y="198.015" width="29.999" height="29.999"/>
	</g>
</g>
<g>
	<g>
		<rect x="156.596" y="198.015" width="29.999" height="29.999"/>
	</g>
</g>
<g>
	<g>
		<rect x="215.925" y="198.015" width="29.999" height="29.999"/>
	</g>
</g>
<g>
	<g>
		<rect x="275.253" y="198.015" width="29.999" height="29.999"/>
	</g>
</g>
<g>
</g>
<g>
</g>
<g>
</g>
<g>
</g>
<g>
</g>
<g>
</g>
<g>
</g>
<g>
</g>
<g>
</g>
<g>
</g>
<g>
</g>
<g>
</g>
<g>
</g>
<g>
</g>
<g>
</g>
</svg>
