<svg id="Capa_1" enable-background="new 0 0 512 512" height="512" viewBox="0 0 512 512" width="512" xmlns="http://www.w3.org/2000/svg"><g><path d="m436.694 86.008h-361.388c-41.524 0-75.306 33.782-75.306 75.306v189.372c0 41.524 33.782 75.306 75.306 75.306h361.388c41.524 0 75.306-33.782 75.306-75.306v-189.372c0-41.524-33.782-75.306-75.306-75.306zm45.306 264.678c0 24.982-20.324 45.306-45.306 45.306h-361.388c-24.982 0-45.306-20.324-45.306-45.306v-189.372c0-24.982 20.324-45.306 45.306-45.306h361.388c24.982 0 45.306 20.324 45.306 45.306z"/><path d="m363.053 226.842c-3.581 0-6.782.144-9.694.414l4.205-25.379h51.435v-30h-76.874l-13.243 79.928 18.458 11.297 7.105-3.014c4.186-1.776 8.476-3.246 18.607-3.246 7.372 0 14.232 2.95 19.318 8.307 5.082 5.352 7.669 12.374 7.285 19.772-.718 13.85-12.159 24.918-26.045 25.197-13.504.293-26.944-10.784-27.198-26.635h-30c0 2.637.184 5.29.546 7.881 3.905 27.988 29.069 48.75 57.256 48.749 29.537-.595 53.872-24.155 55.401-53.637.815-15.695-4.686-30.605-15.489-41.983-10.648-11.218-25.62-17.651-41.073-17.651z"/><path d="m237.618 229.602c-2.1 0-4.168.132-6.207.365 13.522-16.977 30.707-28 37.664-31.26l-12.733-27.164c-11.022 5.167-29.347 17.48-44.719 35.181-20.475 23.576-30.273 50.536-28.356 77.988.399 29.64 24.62 53.632 54.352 53.632 29.98 0 54.371-24.391 54.371-54.371-.001-29.98-24.392-54.371-54.372-54.371zm0 78.742c-13.438 0-24.371-10.933-24.371-24.371s10.933-24.371 24.371-24.371 24.371 10.933 24.371 24.371c0 13.439-10.933 24.371-24.371 24.371z"/><path d="m127.667 213.685h-30v27.315h-27.315v30h27.315v27.315h30v-27.315h27.315v-30h-27.315z"/></g></svg>