<svg id="Capa_1" enable-background="new 0 0 510 510" height="512" viewBox="0 0 510 510" width="512" xmlns="http://www.w3.org/2000/svg"><g id="XMLID_934_"><path id="XMLID_3553_" d="m314.835 285v30.001c-2.11-.002-57.599-.001-59.67-.001v-33.802c27.629-19.315 45-50.812 45-86.198h14.67c24.861 0 45-20.132 45-45 0-19.555-12.542-36.228-30-42.42v-3.746c0-57.254-46.579-103.834-103.833-103.834h-62.334c-57.254 0-103.833 46.58-103.833 103.834v3.746c-17.458 6.192-30 22.865-30 42.42 0 24.86 20.134 45 45 45h15.33c0 35.605 17.817 67.122 45 86.117v33.883h-57.83c-42.552 0-77.17 34.618-77.17 77.17v117.83h509.67v-225zm82.5 30v60h30v-60h52.5v105h-135v-105zm-82.5-150h-14.67v-15.991l18.71-13.44c6.312 1.77 10.96 7.561 10.96 14.432 0 8.281-6.716 14.999-15 14.999zm-151.167-135h62.334c40.712 0 73.833 33.122 73.833 73.834v1.166h-210v-1.166c0-40.712 33.122-73.834 73.833-73.834zm104.577 105-62.64 45h-20.385l-63.358-45zm-178.41 30h-15c-8.281 0-15-6.717-15-15 0-6.88 4.656-12.693 10.983-14.454l19.017 13.509zm30.33 30v-24.405l55.485 39.405h39.614l54.57-39.202v24.202h.33c0 41.438-33.526 75-75 75-41.354 0-74.999-33.645-74.999-75zm105 100.669v49.331h30.003c0 33.084-26.916 60-60 60s-60-26.916-60-60h29.997v-49.374c19.594 5.853 40.593 5.798 60 .043zm-195 184.331v-87.83c0-26.01 21.16-47.17 47.17-47.17h27.833c0 49.626 40.375 90 90 90 49.627 0 90-40.374 90-90 .116 0 29.528.001 29.667.001v134.999zm314.67 0v-30h135v30c-13.798 0-117.263 0-135 0z"/><path id="XMLID_3562_" d="m59.835 405h30v30h-30z"/></g></svg>