<svg id="Capa_1" enable-background="new 0 0 510 510" height="512" viewBox="0 0 510 510" width="512" xmlns="http://www.w3.org/2000/svg"><g><path d="m464.019 174.932c-2.114-.571-4.25-.947-6.397-1.155.575-1.059-2.082 3.835 5.62-10.353 20.634-45.611 11.57-73.875-.019-95.507-12.214-22.799-43.234-40.699-92.199-53.2-42.498-10.851-87.799-14.717-116.024-14.717s-73.526 3.866-116.023 14.716c-48.965 12.502-79.985 30.401-92.199 53.201-11.589 21.632-20.654 49.896-.019 95.507 7.7 14.186 5.045 9.294 5.619 10.352-2.147.209-4.283.585-6.397 1.156-28.42 7.681-42.087 45.501-31.114 86.1 9.671 35.782 34.786 60.057 60.067 60.056.022 0 .044-.002.066-.002v8.914c0 99.252 80.748 180 180 180s180-80.748 180-180v-8.914c.022 0 .045.002.067.002 25.279 0 50.396-24.277 60.065-60.056 10.974-40.599-2.693-78.419-31.113-86.1zm-390.797-92.848c7.737-14.442 34.408-28.401 73.176-38.3 39.804-10.163 82.199-13.784 108.602-13.784s68.798 3.621 108.602 13.784c38.768 9.898 65.439 23.858 73.176 38.3 8.281 15.458 15.044 33.479-.64 68.464l-13.251 24.198c-2.534-5.48-5.533-11.27-9.048-17.066-25.332-41.763-78.526-56.387-121.988-34.794-23.403 11.627-33.133 13.363-36.851 13.363-3.717 0-13.446-1.736-36.85-13.363-43.54-21.629-96.714-6.872-121.989 34.794-3.516 5.796-6.514 11.586-9.048 17.066l-13.25-24.197c-15.684-34.984-8.923-53.006-.641-68.465zm-29.394 171.121c-6.72-24.863-.273-46.541 9.98-49.312 5.968-1.616 14.178 3.222 21.192 12.205v74.985c-10.269.193-24.932-14.791-31.172-37.878zm211.172 226.795c-82.71 0-150-67.29-150-150v-116.923c1.327-5.085 6.37-22.625 16.81-39.838 16.916-27.886 53.371-38.204 82.991-23.486 22.964 11.409 38.446 16.496 50.198 16.496 11.753 0 27.235-5.087 50.199-16.496 29.62-14.719 66.073-4.401 82.99 23.486 10.452 17.231 15.495 34.789 16.811 39.837v116.924c.001 82.71-67.289 150-149.999 150zm211.171-226.795c-6.239 23.085-20.908 38.066-31.171 37.877v-74.985c7.014-8.982 15.225-13.817 21.192-12.205 10.253 2.772 16.7 24.449 9.979 49.313z"/><path d="m345 330h30v30h-30z"/><path d="m285 300h30v30h-30z"/><path d="m195 300h30v30h-30z"/><path d="m135 330h30v30h-30z"/><path d="m320.894 241.577 12.266-24.532-26.833-13.416-25.682 51.364 51.364 25.682 13.416-26.833z"/><path d="m209.23 205.256-28.46 9.488 8.673 26.018-26.02 8.673 9.488 28.461 54.479-18.16z"/><path d="m255 360c-39.388 0-69.895 33.565-71.175 34.994l22.319 20.046c.228-.25 23.002-25.04 48.856-25.04s48.628 24.79 48.825 25.006l22.35-20.013c-1.279-1.428-31.787-34.993-71.175-34.993z"/></g></svg>