<?xml version="1.0" encoding="iso-8859-1"?>
<!-- Generator: Adobe Illustrator 19.0.0, SVG Export Plug-In . SVG Version: 6.00 Build 0)  -->
<svg xmlns="http://www.w3.org/2000/svg" xmlns:xlink="http://www.w3.org/1999/xlink" version="1.1" id="Layer_1" x="0px" y="0px" viewBox="0 0 512 512" style="enable-background:new 0 0 512 512;" xml:space="preserve">
<g>
	<g>
		<path d="M460.27,84.248h-30.419H233.682v71.244h-21.289V84.248h-30.65c-31.616,0-61.298,8.44-86.912,23.185L79.259,91.861    c-8.772-8.772-20.434-13.603-32.84-13.603c-12.404,0-24.067,4.831-32.839,13.603c-18.107,18.107-18.107,47.571,0,65.678    l15.863,15.863c-14.283,25.312-22.447,54.515-22.447,85.593c0,96.356,78.392,174.747,174.746,174.747    S356.49,355.351,356.49,258.995c0-4.772-0.196-9.554-0.584-14.32l82.274-10.132L512,225.453V84.248H460.27z M30.398,124.699    c-0.001-4.279,1.666-8.301,4.693-11.329c3.027-3.026,7.05-4.694,11.33-4.694s8.303,1.668,11.33,4.694l11.71,11.71    c-8.211,6.882-15.746,14.483-22.56,22.758L35.091,136.03C32.066,133.003,30.398,128.98,30.398,124.699z M429.853,204.921    l-108.676,13.383l2.743,15.751c1.428,8.2,2.152,16.591,2.152,24.941c0,79.583-64.745,144.329-144.328,144.329    c-79.583,0-144.327-64.746-144.327-144.33c0-79.582,64.745-144.328,144.328-144.328h0.231v71.244h82.127v-71.244h165.751V204.921z     M481.583,198.55l-21.312,2.625v-86.508h21.312V198.55z"/>
	</g>
</g>
<g>
	<g>
		<path d="M83.043,258.996H52.625c0,71.197,57.923,129.119,129.12,129.119v-30.419C127.32,357.696,83.043,313.42,83.043,258.996z"/>
	</g>
</g>
<g>
</g>
<g>
</g>
<g>
</g>
<g>
</g>
<g>
</g>
<g>
</g>
<g>
</g>
<g>
</g>
<g>
</g>
<g>
</g>
<g>
</g>
<g>
</g>
<g>
</g>
<g>
</g>
<g>
</g>
</svg>
