<?xml version="1.0" encoding="iso-8859-1"?>
<!-- Generator: Adobe Illustrator 19.0.0, SVG Export Plug-In . SVG Version: 6.00 Build 0)  -->
<svg xmlns="http://www.w3.org/2000/svg" xmlns:xlink="http://www.w3.org/1999/xlink" version="1.1" id="Layer_1" x="0px" y="0px" viewBox="0 0 512.001 512.001" style="enable-background:new 0 0 512.001 512.001;" xml:space="preserve">
<g>
	<g>
		<path d="M461.696,239.673c-0.867-10.592-6.009-20.547-14.113-27.326l-111.507-94.892c-21.377-18.193-48.607-28.211-76.677-28.211    H155.165c-9.926,0-19.385-3.734-26.635-10.512L89.02,41.787L68.431,63.804l39.51,36.945    c12.854,12.019,29.624,18.639,47.223,18.639h104.234c20.918,0,41.211,7.467,57.141,21.024l111.559,94.937l0.125,0.104    c1.965,1.637,3.215,4.072,3.429,6.682c0.112,1.37,0.011,4.005-1.929,6.249c-3.114,3.601-8.623,4.049-12.286,1.001l-69.345-57.738    c-16.055-13.368-36.403-20.73-57.296-20.73h-81.991c-20.623,0-37.402,16.778-37.402,37.402s16.778,37.402,37.402,37.402h78.708    c4.002,0,7.259,3.255,7.259,7.259c0,4.001-3.255,7.258-7.259,7.258H156.845c-19.608,0-37.855-10.562-47.619-27.566l-10.005-17.424    c-7.614-13.257-17.06-25.355-28.074-35.956l-40.926-39.391L9.316,161.617l40.927,39.391c8.961,8.623,16.644,18.465,22.838,29.25    l10.005,17.423c15.124,26.337,43.387,42.698,73.758,42.698h130.67c20.623,0,37.402-16.778,37.402-37.402    c0-20.622-16.778-37.401-37.402-37.401h-78.708c-4.002,0-7.259-3.255-7.259-7.259s3.255-7.259,7.259-7.259h81.991    c13.86,0,27.358,4.883,38.009,13.751l69.345,57.738c16.198,13.486,40.589,11.49,54.373-4.447    C459.298,260.268,462.556,250.172,461.696,239.673z"/>
	</g>
</g>
<g>
	<g>
		<path d="M223.718,345.788C137.406,369.242,60.046,403.71,0,445.465l17.209,24.749c57.248-39.81,131.39-72.777,214.414-95.337    c87.513-23.78,181.845-35.838,280.379-35.838v-30.143C410.798,308.896,313.807,321.309,223.718,345.788z"/>
	</g>
</g>
<g>
</g>
<g>
</g>
<g>
</g>
<g>
</g>
<g>
</g>
<g>
</g>
<g>
</g>
<g>
</g>
<g>
</g>
<g>
</g>
<g>
</g>
<g>
</g>
<g>
</g>
<g>
</g>
<g>
</g>
</svg>
