<svg id="Capa_1" enable-background="new 0 0 506.5 506.5" height="512" viewBox="0 0 506.5 506.5" width="512" xmlns="http://www.w3.org/2000/svg"><g><path d="m431.141 353.247c-2.464-2.42-4.991-4.782-7.57-7.09v-176.353c0-93.63-76.174-169.804-169.804-169.804s-169.803 76.174-169.803 169.804v175.475c-48.013 41.771-72.098 100.74-68.697 161.221h476c2.936-56.68-17.051-111.363-60.126-153.253zm-317.177-183.443c7.696-185.496 271.965-185.39 279.608.001 0-.001 0 153.65 0 153.65-28.24-18.017-60.771-30.448-95.304-36.23v-30.395c27.64-15.596 46.346-45.24 46.346-79.175v-37.308h-15c-33.55 0-60.846-27.295-60.846-60.846v-15h-15c-50.093 0-90.846 40.753-90.846 90.846v22.308c0 33.525 18.256 62.864 45.346 78.606v30.965c-34.125 5.714-66.297 17.916-94.304 35.59zm244.803 306.696c-10.752 0-19.5-8.748-19.5-19.5 1.071-25.869 37.933-25.862 39 0 0 10.752-8.747 19.5-19.5 19.5zm-15-66.67c-27.02 8.125-42.34 40.195-30.49 66.67h-45.01v-109.611l23.935-50.264c17.948 2.916 35.275 7.836 51.565 14.589zm-206.5 42.67c.825-19.902 29.18-19.892 30 0v24h-30zm29.5-42.589v-80.308c15.116-5.929 31.078-10.299 47.565-12.977l23.935 50.264v109.61h-41v-24c0-19.74-12.782-36.54-30.5-42.589zm87-171.411c-33.551 0-60.846-27.295-60.846-60.846v-22.308c0-28.915 20.271-53.183 47.349-59.337 6.89 37.386 36.748 66.826 74.343 73.099v8.546c0 33.551-27.295 60.846-60.846 60.846zm0 30c4.935 0 9.777-.401 14.5-1.162v29.773l-15 31.5-15-31.5c0-7.366 0-22.522 0-29.939 5.039.87 10.217 1.328 15.5 1.328zm-157.353 106.151c11.96-11.746 25.547-21.995 40.354-30.583v66.184c-17.199 6.33-29.5 22.879-29.5 42.248v24h-61.26c3.71-37.542 21.281-73.245 50.406-101.849zm307.844 101.849c11.852-26.48-3.475-58.547-30.49-66.67v-63.383c46.609 27.493 82.396 77.815 86.76 130.053z"/></g></svg>