<svg id="Layer_1" enable-background="new 0 0 508.825 508.825" height="512" viewBox="0 0 508.825 508.825" width="512" xmlns="http://www.w3.org/2000/svg"><path d="m269.413 150.63v-30.63h14c41.907 0 76-34.093 76-76v-44h-44c-24.955 0-47.136 12.093-61 30.723-13.865-18.63-36.045-30.723-61-30.723h-44v44c0 41.907 34.093 76 76 76h14v30.63c-92.26 7.648-165 85.169-165 179.37 9.05 238.467 350.987 238.401 360-.002 0-94.199-72.741-171.72-165-179.368zm46-120.63h14v14c0 25.364-20.636 46-46 46h-14v-14c0-25.364 20.635-46 46-46zm-90 60c-25.364 0-46-20.636-46-46v-14h14c25.364 0 46 20.636 46 46v14zm148.552 330.484c-10.848-9.623-22.776-17.867-35.49-24.578 3.039-16.146 4.945-33.271 5.638-50.906h59.551c-2.809 28.17-13.448 54.066-29.699 75.484zm-268.804-75.484h59.551c.692 17.636 2.599 34.761 5.638 50.906-12.714 6.711-24.642 14.955-35.49 24.578-16.25-21.418-26.89-47.314-29.699-75.484zm29.699-105.484c10.848 9.623 22.776 17.867 35.49 24.578-3.039 16.145-4.945 33.27-5.638 50.906h-59.551c2.809-28.17 13.449-54.066 29.699-75.484zm178.471-47.452c14.773 6.334 28.329 14.977 40.218 25.469-6.986 6.143-14.504 11.603-22.441 16.319-4.426-14.501-10.242-28.909-17.777-41.788zm-19.541 27.471c3.768 8.29 7.056 17.382 9.834 27.11-30.767 10.716-65.24 11.558-98.423 0 2.778-9.727 6.065-18.82 9.834-27.11 24.061-52.293 54.698-52.283 78.755 0zm-99.06 95.465c.568-13.441 1.898-26.496 3.943-38.917 35.073 11.46 73.805 12.311 111.479 0 2.044 12.421 3.375 25.476 3.943 38.917zm119.365 30c-.568 13.441-1.898 26.496-3.943 38.917-35.073-11.46-73.805-12.311-111.479 0-2.045-12.421-3.375-25.476-3.943-38.917zm-136.377-111.148c-7.938-4.717-15.455-10.177-22.441-16.319 11.889-10.492 25.444-19.135 40.218-25.469-7.536 12.879-13.352 27.286-17.777 41.788zm0 192.296c4.424 14.502 10.241 28.909 17.776 41.789-14.774-6.334-28.329-14.977-40.218-25.469 6.987-6.143 14.504-11.603 22.442-16.32zm37.317 14.317c-3.769-8.29-7.056-17.382-9.834-27.11 30.767-10.716 65.24-11.558 98.423 0-16.096 56.955-53.93 101.708-88.589 27.11zm116.072-14.317c7.938 4.717 15.455 10.177 22.441 16.319-11.889 10.492-25.444 19.135-40.218 25.469 7.536-12.879 13.352-27.286 17.777-41.788zm13.006-111.148c-.692-17.636-2.599-34.761-5.638-50.906 12.714-6.711 24.642-14.956 35.49-24.578 16.25 21.419 26.89 47.314 29.699 75.484z"/></svg>