<svg id="Capa_1" enable-background="new 0 0 512 512" height="512" viewBox="0 0 512 512" width="512" xmlns="http://www.w3.org/2000/svg"><g><path d="m442.431 203.309-26.497 39.325-13.63 4.17c-3.375-4.53-6.943-8.899-10.683-13.08v-62.524c0-94.212-76.647-171.2-170.858-171.2s-170.857 76.988-170.857 171.199v61.387c-31.661 34.735-49.727 80.959-49.727 130.252 0 29.137 6.458 58.268 19.077 84.548 11.999 24.988 30.356 45.403 50.017 64.614h302.037c22.821-22.294 42.269-44.91 54.535-74.845 47.287-.234 85.975-39.544 85.975-86.706v-147.14zm-221.668-173.967c77.669 0 140.857 64.188 140.857 141.857v27.023c-4.491-23.789-18.42-45.26-38.185-59.211-18.237-12.873-38.744-17.107-60.687-17.107 10.132-28.805-12.006-59.889-42.457-59.889s-52.589 31.083-42.457 59.889c-21.684 0-41.862 4.179-59.956 16.788-19.077 13.295-32.838 33.559-37.973 56.256v-23.75c.001-77.668 63.189-141.856 140.858-141.856zm-15.471 77.674c0-8.271 6.729-15 15-15s15 6.729 15 15c0 7.678-5.802 14.019-13.251 14.889-8.753.611-16.749-5.716-16.749-14.889zm64.216 44.889c29.985 0 55.2 20.808 61.962 48.745h-222.09c6.762-27.937 31.977-48.745 61.962-48.745zm131.811 265.36c-8.514 24.63-22.789 46.754-41.44 64.307h-279.17c-14.846-13.991-27.133-31.155-35.712-49.942-9.832-21.541-14.817-44.686-14.817-68.792 0-53.395 24.935-102.453 66.93-132.188h246.357c42.396 30.07 66.939 80.494 66.939 132.188-.001 18.725-3.057 37.032-9.087 54.427zm80.803-66.816c0 27.036-19.873 50.982-46.524 55.793 10.057-44.615 4.185-92.444-16.83-133.103l16.106-4.927 23.517-34.903h23.73v117.14z"/></g></svg>