<svg id="Layer_1" enable-background="new 0 0 510 510" height="512" viewBox="0 0 510 510" width="512" xmlns="http://www.w3.org/2000/svg"><g id="XMLID_93_"><path id="XMLID_128_" d="m420 0v30h-23.787l-30-30h-222.426l-30 30h-23.787v-30h-30v510h66.213l30-30h197.573l30 30h66.214c0-26.702 0-483.037 0-510zm-293.787 60 30-30h197.573l30 30h36.214v30h-330v-30zm-36.213 60h150v210h-150zm0 240h150v30h-150zm180 0h150v30h-150zm0-30v-210h150v210zm126.213 150-30-30h-222.426l-30 30h-23.787v-60h330v60z"/><path id="XMLID_144_" d="m180 180h30v90h-30z"/><path id="XMLID_145_" d="m300 180h30v90h-30z"/></g></svg>