<svg id="Capa_1" enable-background="new 0 0 512 512" height="512" viewBox="0 0 512 512" width="512" xmlns="http://www.w3.org/2000/svg"><g><path d="m491.606 85.606 4.394-4.393v-81.213h-480v81.213l4.394 4.393c16.512 16.513 25.606 38.468 25.606 61.82v217.147c0 23.353-9.094 45.307-25.606 61.82l-4.394 4.394v81.213h480v-81.213l-4.394-4.393c-16.512-16.513-25.606-38.468-25.606-61.82v-217.148c0-23.352 9.094-45.307 25.606-61.82zm-40.658 336.394h-389.896c9.754-17.343 14.948-36.984 14.948-57.426v-217.148c0-20.442-5.194-40.083-14.948-57.426h389.895c-9.753 17.343-14.947 36.984-14.947 57.426v217.147c0 20.443 5.194 40.084 14.948 57.427zm15.052-392v30h-420v-30zm-420 452v-30h420v30z"/></g></svg>