<?xml version="1.0" encoding="iso-8859-1"?>
<!-- Generator: Adobe Illustrator 19.0.0, SVG Export Plug-In . SVG Version: 6.00 Build 0)  -->
<svg xmlns="http://www.w3.org/2000/svg" xmlns:xlink="http://www.w3.org/1999/xlink" version="1.1" id="Layer_1" x="0px" y="0px" viewBox="0 0 512 512" style="enable-background:new 0 0 512 512;" xml:space="preserve">
<g>
	<g>
		<path d="M403.152,0H108.848C89.741,0,74.196,15.545,74.196,34.652v442.696c0,19.107,15.545,34.652,34.652,34.652h294.304    c19.107,0,34.652-15.545,34.652-34.652V34.652C437.804,15.545,422.259,0,403.152,0z M403.152,480.653H108.848    c-1.822,0-3.305-1.483-3.305-3.305V34.652c0-1.822,1.483-3.305,3.305-3.305h294.304c1.822,0,3.305,1.483,3.305,3.305v442.696h0    C406.457,479.17,404.974,480.653,403.152,480.653z"/>
	</g>
</g>
<g>
	<g>
		<path d="M127.188,53.812v98.74h257.625v-98.74H127.188z M353.466,121.205H158.535V85.159h194.931V121.205z"/>
	</g>
</g>
<g>
	<g>
		<path d="M309.387,176.24H278.04h-44.08h-31.347h-75.425v83.537v31.347v52.191v31.347v83.537h75.425h31.347h44.08h31.347h75.426    V291.123v-31.347V176.24H309.387z M202.613,426.852h-44.078v-52.191h44.078V426.852z M202.613,343.314h-44.078v-52.191h44.078    V343.314z M202.613,259.776h-44.078v-52.19h44.078V259.776z M278.04,426.852h-44.08v-52.191h44.08V426.852z M278.04,343.315    h-44.08v-52.191h44.08V343.315z M278.04,259.776h-44.08v-52.19h44.08V259.776z M353.465,426.852h-44.079v-52.191v-31.347v-52.191    h44.079V426.852z M353.465,259.776h-44.079v-52.19h44.079V259.776z"/>
	</g>
</g>
<g>
</g>
<g>
</g>
<g>
</g>
<g>
</g>
<g>
</g>
<g>
</g>
<g>
</g>
<g>
</g>
<g>
</g>
<g>
</g>
<g>
</g>
<g>
</g>
<g>
</g>
<g>
</g>
<g>
</g>
</svg>
