<svg id="Capa_1" enable-background="new 0 0 512.145 512.145" height="512" viewBox="0 0 512.145 512.145" width="512" xmlns="http://www.w3.org/2000/svg"><path d="m446 215.573c-19.948-.848-19.847-29.199 0-30h8c76.874-3.146 76.988-112.801 0-116h-183c-31.981 0-58 26.019-58 58s26.019 58 58 58h31c8.271 0 15 6.729 15 15s-6.729 15-15 15c-26.546-2.229-50.078 18.021-50 45 0 24.813 20.187 45 45 45h41c23.459 0 43.331 15.618 49.785 37h-387.785v100h496v-83.153l13.877-55.51c1.408-5.634 2.123-11.436 2.123-17.243 2.501-38.09-27.577-71.25-66-71.094zm-108 60h-41c-19.87-.814-19.924-29.163 0-30 26.56 2.222 50.069-18.015 50-45 0-24.813-20.187-45-45-45h-31c-15.439 0-28-12.561-28-28s12.561-28 28-28h183c15.439 0 28 12.561 28 28s-12.561 28-28 28h-8c-24.813 0-45 20.187-45 45s20.187 45 45 45c19.851 0 36 16.149 36 36-.026 4.829.134 10.375-1.227 15.061 0 0-11.484 45.939-11.484 45.939h-50.688c-7.071-38.073-40.511-67-80.601-67zm52 97v40h-264v-40zm-360 0h66v40h-66zm436 40h-46v-40h46z"/></svg>