<svg id="Capa_1" enable-background="new 0 0 509.422 509.422" height="512" viewBox="0 0 509.422 509.422" width="512" xmlns="http://www.w3.org/2000/svg"><g><path d="m408.864 306.104 100.558-51.393-100.558-51.393 49.154-151.915-151.914 49.154-51.393-100.557-51.393 100.558-151.914-49.154 49.154 151.915-100.558 51.392 100.558 51.393-49.154 151.914 151.915-49.154 51.393 100.558 51.393-100.558 151.914 49.154zm-76.263 5.284-56.677-56.677 56.677-56.677 110.899 56.677zm-12.669-183.773 91.472-29.597-29.597 91.472-40.948-20.927zm-8.544 49.206-56.677 56.677-56.677-56.677 56.677-110.899zm-183.773 12.669-29.597-91.472 91.472 29.597-20.927 40.948zm49.206 8.544 56.677 56.677-56.677 56.677-110.899-56.677zm12.669 183.773-91.472 29.597 29.597-91.472 40.948 20.927zm8.544-49.206 56.677-56.677 56.677 56.677-56.677 110.899zm142.825 8.258 40.948-20.927 29.597 91.472-91.472-29.597z"/></g></svg>