<?xml version="1.0" encoding="iso-8859-1"?>
<!-- Generator: Adobe Illustrator 19.0.0, SVG Export Plug-In . SVG Version: 6.00 Build 0)  -->
<svg version="1.1" id="Layer_1" xmlns="http://www.w3.org/2000/svg" xmlns:xlink="http://www.w3.org/1999/xlink" x="0px" y="0px"
	 viewBox="0 0 512 512" style="enable-background:new 0 0 512 512;" xml:space="preserve">
<g>
	<g>
		<path d="M391,190v-55C391,60.561,330.439,0,256,0S121,60.561,121,135v11h30v-11c0-57.897,47.103-105,105-105
			c57.897,0,105,47.103,105,105v55H30v322h452V190H391z M452,482H60V220h392V482z"/>
	</g>
</g>
<g>
	<g>
		<path d="M256,280c-16.542,0-30,13.458-30,30c0,11.08,6.042,20.769,15,25.964V425h30v-89.036c8.958-5.195,15-14.884,15-25.964
			C286,293.458,272.542,280,256,280z"/>
	</g>
</g>
<g>
</g>
<g>
</g>
<g>
</g>
<g>
</g>
<g>
</g>
<g>
</g>
<g>
</g>
<g>
</g>
<g>
</g>
<g>
</g>
<g>
</g>
<g>
</g>
<g>
</g>
<g>
</g>
<g>
</g>
</svg>
