<svg id="Capa_1" enable-background="new 0 0 509.228 509.228" height="512" viewBox="0 0 509.228 509.228" width="512" xmlns="http://www.w3.org/2000/svg"><path id="XMLID_676_" d="m435.209 265.355 74.019-74.019-191.338-191.336-74.019 74.019 85.062 85.062-24.185 24.185-29.042-29.042-259.446 259.448c-10.486 10.485-16.26 24.426-16.26 39.255s5.774 28.77 16.26 39.254l.787.787c10.485 10.485 24.426 16.26 39.254 16.26s28.77-5.774 39.254-16.26l259.448-259.448-29.042-29.042 24.185-24.185zm-122.632-31.835-22.751 22.751-36.869-36.869 22.751-22.751zm-256.276 245.708c-6.815 0-13.222-2.654-18.042-7.473l-.787-.787c-4.818-4.819-7.472-11.226-7.472-18.041s2.654-13.222 7.473-18.042l8.138-8.138 36.87 36.87-8.138 8.138c-4.82 4.819-11.227 7.473-18.042 7.473zm47.392-36.824-36.87-36.869 164.92-164.919 36.869 36.869zm214.197-399.977 148.911 148.91-31.592 31.592-148.911-148.91z"/></svg>