<svg id="Capa_1" enable-background="new 0 0 510 510" height="512" viewBox="0 0 510 510" width="512" xmlns="http://www.w3.org/2000/svg"><g><path d="m420 0v195h-30v-60h-30v-82.5c0-28.948-23.552-52.5-52.5-52.5s-52.5 23.552-52.5 52.5v15c0 12.406-10.094 22.5-22.5 22.5s-22.5-10.094-22.5-22.5v-15c0-28.948-23.552-52.5-52.5-52.5s-52.5 23.552-52.5 52.5v157.5h-45v76.061c-36.604 21.151-60 60.405-60 103.939 0 66.168 53.832 120 120 120s120-53.832 120-120c0-43.51-23.376-82.776-60-103.939v-76.061h-45v-157.5c0-12.406 10.094-22.5 22.5-22.5s22.5 10.094 22.5 22.5v15c0 28.948 23.552 52.5 52.5 52.5s52.5-23.552 52.5-52.5v-15c0-12.406 10.094-22.5 22.5-22.5s22.5 10.094 22.5 22.5v82.5h-30v60h-75v30h75v30c0 24.814 20.186 45 45 45s45-20.186 45-45v-30h30v255h-60v-32.58c17.459-6.192 30-22.865 30-42.42 0-25.041-34.211-55.043-45-65.666-6.112 6.019-45 39.332-45 65.666 0 19.555 12.541 36.228 30 42.42v32.58h-75v30h255v-510zm-300 480c-41.791 0-77.019-28.633-87.101-67.31 21.08 5.27 53.76 7.684 92.938-8.872 28.992-12.249 64.293.813 81.286 8.787-10.052 38.72-45.301 67.395-87.123 67.395zm38.564-171.341c28.489 13.535 47.779 41.273 50.963 72.263-23.527-9.43-61.151-19.196-95.364-4.739-39.672 16.764-70.039 9.628-83.665 4.482 3.264-30.887 22.529-58.509 50.939-72.006l8.563-4.068v-64.591h60v64.591zm171.436-143.659h30v30h-30zm30 90c0 8.272-6.728 15-15 15s-15-6.728-15-15v-30h30zm-15 126.737c8.355 9.651 14.8 19.36 15 23.284-.012 8.262-6.736 14.978-15 14.978-8.272 0-15-6.728-15.001-14.968.191-3.917 6.64-13.635 15.001-23.294zm135 98.263h-30v-450h30z"/></g></svg>