<svg id="Capa_1" enable-background="new 0 0 512 512" height="512" viewBox="0 0 512 512" width="512" xmlns="http://www.w3.org/2000/svg"><path d="m376.5 180.75c-7.154 0-13.962 1.506-20.125 4.219v-109.719c0-24.882-20.243-45.125-45.125-45.125-5.893 0-11.525 1.135-16.69 3.199-5.202-19.177-22.76-33.324-43.56-33.324s-38.358 14.147-43.56 33.324c-5.165-2.063-10.798-3.199-16.69-3.199-20.8 0-38.358 14.147-43.56 33.324-5.165-2.063-10.798-3.199-16.69-3.199-24.882 0-45.125 20.243-45.125 45.125v237.444c0 24.351 5.756 48.734 16.646 70.514 8.818 17.635 13.479 37.379 13.479 57.097v41.57h240.875v-15c0-33.907 14.761-66.014 40.498-88.087 18.908-16.216 29.752-39.802 29.752-64.71v-163.453zm20.125 163.452c0 16.143-7.028 31.429-19.282 41.938-28.567 24.501-46.39 58.823-50.199 95.859h-181.644v-11.569c0-24.351-5.756-48.734-16.646-70.514-8.818-17.635-13.479-37.379-13.479-57.097v-237.444c0-8.34 6.785-15.125 15.125-15.125s15.125 6.785 15.125 15.125v134.5h30v-164.625c0-8.34 6.785-15.125 15.125-15.125s15.125 6.785 15.125 15.125v164.625h30v-194.75c0-8.34 6.785-15.125 15.125-15.125s15.125 6.785 15.125 15.125v194.75h30v-164.625c0-8.34 6.785-15.125 15.125-15.125s15.125 6.785 15.125 15.125v202.007c-36.322 21.298-60.659 63.393-60.25 106.354v23.014h30v-23.014c-.452-39.062 24.497-73.263 60.25-88.216v-64.521c0-11.097 9.028-20.125 20.125-20.125h20.125z"/></svg>