<svg id="Capa_1" enable-background="new 0 0 512 512" height="512" viewBox="0 0 512 512" width="512" xmlns="http://www.w3.org/2000/svg"><g><path d="m135.5 331.375h241v30h-241z"/><path d="m195.746 391.625h120.508v30h-120.508z"/><path d="m0 30.125v451.75h512v-451.75zm482 60.25h-337.229l-15.125-30.25h352.354zm-385.895-30.25 15.125 30.25h-81.23v-30.25zm-66.105 391.75v-331.5h452v331.5z"/><path d="m150.625 286.062h30v-90.25h-30v30.126h-30.25v-60.25h-30v90.25h60.25z"/><path d="m391.625 225.938h-30.25v-60.25h-30v90.25h60.25v30.124h30v-90.25h-30z"/><path d="m301.125 165.688h-90.25v120.375h90.25zm-30 90.374h-30.25v-60.375h30.25z"/></g></svg>