<svg id="Capa_1" enable-background="new 0 0 512 512" height="512" viewBox="0 0 512 512" width="512" xmlns="http://www.w3.org/2000/svg"><g><path d="m331 122v-32h60v-45c0-24.813-20.187-45-45-45h-120c-24.813 0-45 20.187-45 45v77h-90v390h330v-390zm30-77v15h-30v-15c0-8.271 6.729-15 15-15s15 6.729 15 15zm-150 0c0-8.271 6.729-15 15-15h77.58c-1.665 4.695-2.58 9.742-2.58 15v137h-90c0-14.133 0-118.099 0-137zm180 437h-270v-330h60v30h-30v30h210v-30h-30v-30h60z"/><path d="m151 332h210v-90h-210zm30-60h150v30h-150z"/><path d="m211 362h30v30h-30z"/><path d="m271 362h30v30h-30z"/><path d="m331 362h30v30h-30z"/><path d="m331 422h30v30h-30z"/><path d="m271 422h30v30h-30z"/><path d="m211 422h30v30h-30z"/><path d="m151 422h30v30h-30z"/><path d="m151 362h30v30h-30z"/></g></svg>