<svg id="Capa_1" enable-background="new 0 0 512 512" height="512" viewBox="0 0 512 512" width="512" xmlns="http://www.w3.org/2000/svg"><g id="XMLID_733_"><path id="XMLID_741_" d="m126.483 220.146h30v28.8h-30z"/><path id="XMLID_743_" d="m188.437 220.146h30v30.834h-30z"/><path id="XMLID_746_" d="m394.604.174h-93.557c-56.653 0-104.062 40.339-115.013 93.802-3.947-.465-7.924-.738-11.919-.793-30.61-.4-59.493 11.174-81.284 32.665-21.795 21.494-33.798 50.188-33.798 80.796 0 31.759 12.415 60.852 34.957 81.919 1.272 1.189 2.581 2.344 3.908 3.481-24.696 1.675-47.861 11.863-65.875 29.118-19.919 19.083-31.279 44.658-31.985 72.017-.026.977-.038 118.647-.038 118.647h345.028s-.012-117.628-.037-118.585c-.691-27.349-12.038-52.92-31.949-72.003-18.026-17.277-41.216-27.476-65.936-29.147 17.458-15.291 30.044-35.733 35.63-58.555 5.968.939 12.083 1.431 18.311 1.431h14.805c4.557 26.195 27.457 46.177 54.935 46.177 28.979 0 52.867-22.223 55.515-50.522 22.154-6.213 42.176-18.905 57.35-36.552 18.28-21.26 28.348-48.428 28.348-76.5 0-64.732-52.664-117.396-117.396-117.396zm-220.906 123.007c3.4.047 6.782.302 10.127.748.676 12.61 3.354 24.695 7.717 35.948-3.626-1.982-7.171-4.145-10.621-6.502l-8.46-5.778-8.46 5.778c-20.382 13.921-44.14 21.383-68.79 21.657 4.214-10.307 10.506-19.757 18.685-27.824 16.029-15.808 37.271-24.338 59.802-24.027zm141.303 270.818c.018.705.027 87.827.027 87.827h-34.722v-55.905h-30v55.905h-155.585v-55.905h-30v55.905h-34.721s.009-87.15.028-87.871c1.028-39.796 34.729-72.16 75.134-72.16h.027l20.969.012c6.408 19.474 24.755 33.578 46.346 33.578 21.583 0 39.924-14.093 46.339-33.555l21.047.012c40.41.014 74.105 32.384 75.111 72.157zm-113.855-108.923-9.853 3.6v17.921c0 10.36-8.429 18.789-18.789 18.789s-18.789-8.429-18.789-18.789v-17.921l-9.853-3.599c-10.087-3.685-20.799-10.402-29.389-18.43-16.644-15.555-25.441-36.303-25.441-60.001 0-.531.029-1.057.039-1.586h4.734c27.858 0 54.849-7.413 78.654-21.521 14.535 8.62 30.237 14.717 46.84 18.201 9.991 9.707 21.698 17.654 34.618 23.34-6.199 27.32-26.006 50.219-52.771 59.996zm207.455-81.229-14.887 2.394 2.471 14.874c.239 1.437.36 2.874.36 4.27 0 14.204-11.555 25.759-25.759 25.759-14.203 0-25.758-11.555-25.758-25.759 0-1.094.08-2.252.238-3.44l2.258-16.978h-46.477c-48.19 0-87.396-39.206-87.396-87.396s39.206-87.396 87.396-87.396h93.557c48.19 0 87.396 39.206 87.396 87.396 0 43.153-30.869 79.438-73.399 86.276z"/><path id="XMLID_750_" d="m367.521 308.801c-7.846 0-15.363 6.899-15 15 .364 8.127 6.591 15 15 15 7.846 0 15.363-6.899 15-15-.364-8.127-6.59-15-15-15z"/><path id="XMLID_753_" d="m389.087 56.578c-12.856-4.992-26.896-3.592-38.513 3.844l-2.749 1.759-2.749-1.759c-11.618-7.436-25.656-8.837-38.513-3.844-12.858 4.993-22.271 15.5-25.825 28.828-3.779 14.169-.12 29.083 9.79 39.895l57.297 62.51 57.297-62.51c9.909-10.811 13.568-25.725 9.789-39.894-3.553-13.328-12.966-23.836-25.824-28.829zm-6.08 48.451-35.182 38.383-35.182-38.382c-2.954-3.223-4.045-7.669-2.919-11.893 1.06-3.973 3.866-7.104 7.699-8.593 1.513-.587 3.082-.878 4.639-.878 2.386 0 4.746.683 6.842 2.024l18.921 12.11 18.921-12.111c3.462-2.217 7.647-2.635 11.48-1.146s6.639 4.621 7.699 8.594c1.127 4.224.036 8.67-2.918 11.892z"/></g></svg>