<svg id="Capa_1" enable-background="new 0 0 512.039 512.039" height="512" viewBox="0 0 512.039 512.039" width="512" xmlns="http://www.w3.org/2000/svg"><g><path d="m374.142 65.235h30.01v30.01h-30.01z" transform="matrix(.707 -.707 .707 .707 57.226 298.648)"/><path d="m379.678 315.181c21.404-15.538 41.815-32.967 61.027-52.182 41.207-41.212 65.593-96.845 70.523-160.882 3.176-59.325-4.014-78.096-7.222-94.132-16.738-3.425-34.726-10.271-94.12-7.222-64.029 4.93-119.653 29.32-160.86 70.532-3.804 3.805-7.528 7.663-11.193 11.559-7.34-3.259-17.696-6.036-31.147-5.388-46.163 2.09-91.292 41.406-131.684 83.41 46.246 11.249 55.183 21.735 77.821 45.138-18.077 37.166-32.211 81.828-38.482 121.854l-114.322 61.632c88.9 42.209 84.85 47.655 122.5 122.539l61.564-114.325c37.967-5.842 81.939-19.514 118.301-36.781 7.328 10.971 14.897 30.917 19.939 43.29 24.573-24.014 50.664-49.593 57.355-89.042zm-248.909-166.694c41.556-34.42 58.211-41.097 85.163-40.787-18.415 22.297-34.661 45.851-48.553 70.428-10.419-10.898-22.635-22.387-36.61-29.641zm-7.569 298.993c-16.026-27.775-30.87-42.613-58.671-58.662l45.744-24.661c-1.125 23.333-.251 22.402.465 37.149 16.303.815 12.992 1.529 37.074.469zm97.459-88.324c-35.69 9.691-64.556 12.305-80.705 12.931.625-16.161 3.239-45.026 12.929-80.717 8.82-32.489 21.7-64.223 38.282-94.319 20.718-37.603 47.324-72.773 79.081-104.534 36.374-36.378 83.809-57.156 140.99-61.756 18.722-1.506 35.503-.938 48.577.203l-8.477 8.479c-22.276 22.279-34.555 51.901-34.577 83.408l30.008.019c.016-23.498 9.174-45.59 25.788-62.206l8.477-8.479c1.14 13.075 1.708 29.858.203 48.583-4.599 57.189-25.374 104.63-61.747 141.009-13.265 13.267-27.136 25.614-41.522 37.025-11.899-32.502-17.51-35.166-31.562-49.489l-85.142 85.153s21.536 21.563 22.116 22.163c-20.417 9.187-41.403 16.738-62.719 22.527zm83.037-44.687 40.59-40.595c12.057 24.271 6.876 51.3-12.947 77.012-7.565-13.249-16.813-25.439-27.643-36.417z"/></g></svg>