<svg id="Capa_1" enable-background="new 0 0 512.027 512.027" height="512" viewBox="0 0 512.027 512.027" width="512" xmlns="http://www.w3.org/2000/svg"><path d="m393.544 271.013c6.682 25.954 30.284 45.188 58.295 45.188 33.188 0 60.188-27 60.188-60.188s-27-60.188-60.188-60.188c-28.01 0-51.613 19.234-58.295 45.188h-33.242c-2.557-17.866-9.607-34.302-19.973-48.117l76.93-76.93c5.896 2.833 12.498 4.422 19.464 4.422 24.867 0 45.098-20.231 45.098-45.098s-20.23-45.098-45.098-45.098-45.099 20.231-45.099 45.098c0 6.966 1.589 13.568 4.422 19.463l-76.93 76.93c-13.815-10.366-30.251-17.415-48.117-19.973v-33.215c25.954-6.682 45.188-30.284 45.188-58.295 0-33.188-27-60.188-60.187-60.188-33.188 0-60.188 27-60.188 60.188 0 28.01 19.234 51.613 45.188 58.295v33.215c-17.866 2.557-34.302 9.607-48.117 19.973l-46.832-46.832c2.833-5.896 4.422-12.497 4.422-19.464 0-24.867-20.231-45.098-45.098-45.098-24.868 0-45.099 20.231-45.099 45.098s20.231 45.098 45.099 45.098c6.966 0 13.568-1.589 19.463-4.422l46.832 46.832c-10.366 13.815-17.415 30.251-19.973 48.117h-33.215c-6.682-25.954-30.284-45.188-58.295-45.188-33.187.002-60.187 27.002-60.187 60.189s27 60.188 60.188 60.188c28.01 0 51.613-19.234 58.295-45.188h33.215c2.557 17.866 9.607 34.302 19.973 48.117l-54.91 54.91c-11.907-7.906-26.177-12.527-41.51-12.527-41.494 0-75.251 33.757-75.251 75.25s33.757 75.25 75.25 75.25 75.25-33.757 75.25-75.25c0-15.333-4.62-29.603-12.527-41.51l54.91-54.91c13.815 10.366 30.251 17.416 48.117 19.973v33.215c-25.954 6.682-45.188 30.284-45.188 58.295 0 33.188 27 60.188 60.188 60.188 33.187 0 60.187-27 60.187-60.188 0-28.011-19.234-51.613-45.188-58.295v-33.215c17.866-2.557 34.302-9.607 48.117-19.973l76.957 76.957c-2.833 5.896-4.422 12.497-4.422 19.463 0 24.867 20.23 45.098 45.098 45.098s45.099-20.231 45.099-45.098-20.231-45.098-45.099-45.098c-6.966 0-13.568 1.589-19.463 4.422l-76.957-76.957c10.366-13.815 17.415-30.251 19.973-48.117zm58.295-45.187c16.646 0 30.188 13.542 30.188 30.188s-13.542 30.188-30.188 30.188-30.188-13.542-30.188-30.188 13.543-30.188 30.188-30.188zm-391.651 60.375c-16.646 0-30.188-13.542-30.188-30.188s13.542-30.188 30.188-30.188 30.188 13.542 30.188 30.188-13.543 30.188-30.188 30.188zm376.535-226.009c8.325 0 15.098 6.773 15.098 15.098s-6.772 15.098-15.098 15.098-15.099-6.773-15.099-15.098 6.774-15.098 15.099-15.098zm-210.91.009c0-16.646 13.542-30.188 30.188-30.188 16.645 0 30.187 13.542 30.187 30.188s-13.543 30.187-30.188 30.187c-16.646 0-30.187-13.542-30.187-30.187zm-135.537 45.187c0-8.325 6.773-15.098 15.099-15.098s15.098 6.773 15.098 15.098-6.773 15.098-15.098 15.098-15.099-6.772-15.099-15.098zm-15.026 376.625c-24.951 0-45.25-20.299-45.25-45.25s20.299-45.25 45.25-45.25 45.25 20.299 45.25 45.25-20.299 45.25-45.25 45.25zm210.937-30.187c0 16.646-13.542 30.188-30.187 30.188-16.646 0-30.188-13.542-30.188-30.188s13.542-30.188 30.188-30.188c16.645 0 30.187 13.542 30.187 30.188zm-30.187-120.438c-41.562 0-75.375-33.813-75.375-75.375s33.813-75.375 75.375-75.375 75.375 33.813 75.375 75.375-33.813 75.375-75.375 75.375zm195.848 105.375c0 8.325-6.773 15.098-15.099 15.098s-15.098-6.773-15.098-15.098 6.772-15.098 15.098-15.098 15.099 6.773 15.099 15.098z"/></svg>