<svg id="Capa_1" enable-background="new 0 0 512 512" height="512" viewBox="0 0 512 512" width="512" xmlns="http://www.w3.org/2000/svg"><g><path d="m367.996 159.003c79.404 0 144.004-64.599 144.004-144.003v-15h-149.702c-32.632.608-63.188 13.957-86.038 37.539-8.08 8.339-14.863 17.625-20.26 27.593-5.397-9.968-12.179-19.253-20.26-27.593-22.851-23.582-53.406-36.931-86.038-37.539h-149.702v15c0 79.404 64.6 144.003 144.003 144.003h45.448l-42.652 173.179c-17.546 1.1-27.719 7.008-36.05 11.847-7.965 4.627-13.72 7.97-26.893 7.97s-18.928-3.343-26.893-7.97c-9.226-5.359-20.708-12.029-41.963-12.029h-15v180h512v-160h-15c-13.175 0-18.931-3.343-26.896-7.971-9.227-5.359-20.709-12.029-41.965-12.029s-32.738 6.67-41.965 12.029c-6.654 3.865-11.782 6.827-20.965 7.7l-47.47-192.726zm-20.601-127.371v27.912h30v-29.544h30v29.543h30v-29.543h43.623c-7.366 55.799-55.243 99.003-113.021 99.003h-57.647l-39.35-.003v-4.378c0-45.892 33.082-84.727 76.395-92.99zm-203.392 97.371c-57.777 0-105.654-43.204-113.021-99.003h43.624v29.543h30v-29.543h30v29.543h30v-27.911c43.313 8.263 76.394 47.098 76.394 92.99v4.378zm-114.003 352.997v-47.879c4.256 1.421 7.784 3.461 11.894 5.849 9.226 5.36 20.708 12.03 41.962 12.03 21.255 0 32.737-6.67 41.962-12.03 7.965-4.627 13.72-7.97 26.893-7.97 13.172 0 18.927 3.343 26.891 7.97 9.226 5.359 20.708 12.03 41.961 12.03 21.255 0 32.737-6.67 41.963-12.03 7.965-4.627 13.72-7.97 26.893-7.97 13.174 0 18.929 3.343 26.895 7.97 9.226 5.36 20.708 12.03 41.963 12.03 21.256 0 32.738-6.67 41.965-12.029 7.966-4.627 13.722-7.971 26.896-7.971s18.931 3.343 26.896 7.971c6.777 3.936 14.776 8.576 26.965 10.765v31.264zm371.242-112.029c7.966-4.627 13.722-7.971 26.896-7.971s18.931 3.343 26.896 7.971c6.777 3.937 14.773 8.581 26.965 10.769v39.139c-4.257-1.421-7.786-3.462-11.896-5.85-9.226-5.359-20.708-12.029-41.964-12.029s-32.738 6.67-41.965 12.029c-7.966 4.627-13.722 7.971-26.896 7.971s-18.929-3.343-26.895-7.97c-9.226-5.36-20.708-12.03-41.963-12.03s-32.736 6.67-41.962 12.03c-7.965 4.627-13.72 7.97-26.894 7.97-13.172 0-18.927-3.343-26.891-7.97-9.226-5.359-20.708-12.03-41.961-12.03-21.254 0-32.737 6.67-41.962 12.03-7.965 4.627-13.72 7.97-26.893 7.97s-18.928-3.343-26.893-7.97c-6.776-3.936-14.775-8.576-26.963-10.765v-39.151c4.258 1.421 7.782 3.468 11.894 5.856 9.225 5.36 20.707 12.03 41.961 12.03 21.255 0 32.737-6.67 41.962-12.03 7.965-4.627 13.72-7.97 26.893-7.97 13.172 0 18.927 3.343 26.891 7.97 9.226 5.359 20.708 12.03 41.961 12.03 21.255 0 32.737-6.67 41.963-12.03 7.965-4.627 13.72-7.97 26.893-7.97 13.174 0 18.929 3.343 26.895 7.97 9.226 5.36 20.708 12.03 41.963 12.03 21.256 0 32.739-6.67 41.965-12.029zm-68.82-25.919c-.013-.008-.026-.015-.039-.023-9.226-5.36-20.708-12.03-41.963-12.03s-32.736 6.67-41.962 12.03c-7.965 4.627-13.72 7.97-26.894 7.97-13.172 0-18.927-3.343-26.891-7.97-4.916-2.856-10.473-6.083-17.807-8.476l43.482-176.551h66.493z"/></g></svg>