<svg id="Layer_1" enable-background="new 0 0 510 510" height="512" viewBox="0 0 510 510" width="512" xmlns="http://www.w3.org/2000/svg"><path d="m480 55.458v-55.458h-30v55.458l-30 45v169.542h-30v-60h-30v-21.602c0-38.656-21.478-73.408-56.054-90.696-20.938-10.469-33.946-31.515-33.946-54.926v-12.776h-30v12.776c0 23.41-13.008 44.457-33.947 54.927-34.574 17.287-56.053 52.039-56.053 90.695v21.602h-30v60h-30v-169.541l-30-45v-55.459h-30v55.458l-30 45v409.542h510v-409.541zm-15 31.583 15 22.5v40.459h-30v-40.459zm15 92.959v30h-30v-30zm-30 60h30v135h-30c0-13.798 0-117.263 0-135zm-270-51.602c0-27.219 15.124-51.69 39.469-63.863 14.761-7.38 26.868-18.296 35.531-31.44 8.662 13.145 20.77 24.06 35.531 31.441 24.345 12.172 39.469 36.643 39.469 63.862v21.602h-150zm-30 51.602h210v30h-210zm270 60v120h-105v-30c-3.026-79.509-117.002-79.448-120 0v30h-105v-120zm-360 75h-30v-135h30zm0-165h-30v-30h30zm-15-122.959 15 22.5v40.459h-30v-40.459zm-15 392.959v-75h30v75zm60 0v-30h105v30zm135 0v-90c1.513-39.754 58.501-39.724 60 0v90zm90 0v-30h105v30zm135 0v-75h30v75z"/></svg>