<svg id="Capa_1" enable-background="new 0 0 512 512" height="512" viewBox="0 0 512 512" width="512" xmlns="http://www.w3.org/2000/svg"><path d="m512 118.282v-30h-67.197c4.773-8.484 7.51-18.26 7.51-28.668v-44.666h-44.667c-32.349 0-58.666 26.318-58.666 58.667v14.668h-7.229v.046c-23.032-.037-46.075 8.708-63.608 26.241l-22.143 22.14-22.142-22.142c-17.47-17.47-40.41-26.216-63.358-26.242v-.044h-7.479v-14.668c0-32.349-26.318-58.667-58.667-58.667h-44.667v44.667c0 10.408 2.736 20.184 7.51 28.668h-67.197v30h103.488c-12.187 13.932-18.371 31.312-18.542 48.751h-.053c0 24.479-19.915 44.393-44.393 44.393h-15v89.146h15c24.479 0 44.393 19.915 44.393 44.393h.053c.171 17.44 6.355 34.82 18.542 48.752h-103.488v30h67.196c-4.773 8.484-7.509 18.259-7.509 28.667v44.667h44.667c32.349 0 58.667-26.318 58.667-58.667v-14.667h7.396v-.042c22.973-.007 45.952-8.755 63.441-26.244l22.142-22.141 22.142 22.142c17.496 17.497 40.479 26.245 63.462 26.245.077 0 .153-.005.229-.005v.047h7.146v14.667c0 32.349 26.317 58.667 58.666 58.667h44.667v-44.667c0-10.408-2.736-20.183-7.509-28.667h67.197v-30h-103.488c12.187-13.932 18.371-31.313 18.542-48.752h.053c0-24.479 19.915-44.393 44.394-44.393h15v-89.146h-15c-24.479 0-44.394-19.915-44.394-44.393h-.053c-.171-17.439-6.355-34.819-18.542-48.751h103.488zm-133.021-44.668c0-15.807 12.859-28.667 28.666-28.667h14.667v14.667c0 15.807-12.86 28.667-28.667 28.667h-14.666zm-289.292-28.666h14.667c15.807 0 28.667 12.86 28.667 28.667v14.667h-14.667c-15.807 0-28.667-12.86-28.667-28.667zm43.334 393.438c0 15.807-12.86 28.667-28.667 28.667h-14.667v-14.667c0-15.807 12.86-28.667 28.667-28.667h14.667zm289.291 14v14.667h-14.667c-15.807 0-28.666-12.86-28.666-28.667v-14.667h14.666c15.807 0 28.667 12.86 28.667 28.667zm34.188-212.479v32.186c-17.792 3.657-33.28 13.693-43.978 27.596-2.229-3.033-4.714-5.936-7.455-8.677-29.34-29.341-77.08-29.339-106.422 0l-20.857 20.859 53.212 53.211 21.213-21.213-31.997-31.997c8.505-8.323 19.722-12.901 31.641-12.901 12.088 0 23.451 4.707 31.998 13.254 17.643 17.643 17.643 46.351 0 63.994-11.285 11.285-26.29 17.5-42.25 17.5-15.959 0-30.964-6.215-42.249-17.5l-43.356-43.355-43.355 43.354c-11.285 11.285-26.29 17.5-42.249 17.5-15.96 0-30.964-6.215-42.25-17.5-17.643-17.643-17.643-46.351 0-63.995 17.525-17.523 45.967-17.641 63.639-.352l-31.997 31.997 21.213 21.213 53.211-53.211-20.859-20.86c-29.339-29.34-77.08-29.34-106.42 0-2.742 2.742-5.226 5.644-7.456 8.677-10.697-13.901-26.185-23.937-43.977-27.594v-32.186c17.791-3.657 33.279-13.693 43.977-27.595 2.229 3.033 4.714 5.937 7.456 8.678 29.341 29.34 77.08 29.34 106.421 0l20.858-20.86-53.211-53.211-21.213 21.213 31.997 31.997c-17.671 17.288-46.114 17.172-63.639-.353-17.643-17.643-17.643-46.351 0-63.994 23.295-23.296 61.201-23.297 84.499 0l43.355 43.355 43.354-43.355c23.297-23.297 61.202-23.296 84.499 0 17.643 17.643 17.643 46.351 0 63.995-17.525 17.524-45.968 17.642-63.639.352l31.997-31.997-21.213-21.213-53.212 53.211 20.858 20.86c14.213 14.213 33.11 22.041 53.211 22.041 20.1 0 38.997-7.828 53.21-22.041 2.742-2.742 5.226-5.645 7.456-8.677 10.7 13.901 26.187 23.937 43.979 27.594z"/></svg>