<svg id="Layer_1" enable-background="new 0 0 510.054 510.054" height="512" viewBox="0 0 510.054 510.054" width="512" xmlns="http://www.w3.org/2000/svg"><g><path d="m496.292 177.607c18.292-22.559 18.321-54.814.007-77.41 31.764-39.048 5.065-97.787-44.814-100.102-15.28-.72-29.994 4.195-41.628 13.661-22.564-18.291-54.82-18.312-77.411.006-22.563-18.295-54.824-18.321-77.419 0-22.566-18.297-54.826-18.319-77.42 0-22.562-18.295-54.817-18.319-77.41-.007-39.05-31.762-97.787-5.067-100.101 44.814-.71 15.279 4.196 29.993 13.661 41.628-18.291 22.563-18.312 54.82.006 77.411-18.295 22.562-18.321 54.824 0 77.419-18.296 22.565-18.321 54.825 0 77.42-18.293 22.562-18.321 54.815-.007 77.41-31.765 39.048-5.064 97.787 44.813 100.102 15.272.719 29.993-4.195 41.628-13.661 22.563 18.291 54.82 18.312 77.411-.006 22.563 18.296 54.825 18.32 77.419 0 22.565 18.295 54.825 18.321 77.42 0 22.562 18.293 54.815 18.321 77.41.007 39.048 31.765 97.787 5.065 100.102-44.813.71-15.279-4.196-29.994-13.661-41.628 18.291-22.564 18.312-54.82-.006-77.411 18.295-22.562 18.321-54.824 0-77.419 18.296-22.568 18.319-54.827 0-77.421zm-26.803 15.228c13.996 12.472 14.091 34.408-.001 46.966-9.088 8.1-9.115 22.33 0 30.452 13.996 12.474 14.095 34.409 0 46.967-9.1 8.108-9.1 22.341.001 30.454 14.043 12.514 14.04 34.455-.003 46.967-9.095 8.108-9.101 22.344.001 30.45 7.119 6.344 10.947 15.456 10.505 25.003-1.28 27.568-35.947 40.665-54.899 19.396-6.527-7.329-15.325-6.853-15.226-6.831-5.808 0-11.357 2.488-15.229 6.831-12.514 14.043-34.454 14.04-46.968-.003-8.084-9.07-22.316-9.13-30.451.003-12.472 13.996-34.408 14.092-46.966-.001-8.1-9.087-22.33-9.115-30.452 0-12.517 14.044-34.456 14.041-46.97-.002-8.111-9.099-22.337-9.098-30.451.003-12.514 14.043-34.455 14.04-46.967-.003-6.534-7.329-15.331-6.85-15.231-6.828-5.808.001-11.355 2.491-15.219 6.829-6.344 7.118-15.43 10.934-25.003 10.505-27.568-1.28-40.665-35.947-19.396-54.899 9.101-8.105 9.104-22.339 0-30.454-14.044-12.514-14.04-34.454.003-46.968 9.068-8.083 9.131-22.313-.003-30.451-13.996-12.472-14.092-34.408.001-46.966 9.088-8.1 9.114-22.33 0-30.452-14.044-12.517-14.041-34.456.002-46.97 9.1-8.112 9.097-22.338-.003-30.451-14.043-12.514-14.04-34.455.003-46.967 9.095-8.109 9.102-22.344-.001-30.45-7.118-6.345-10.946-15.458-10.504-25.005 1.28-27.565 35.948-40.667 54.899-19.396 6.527 7.329 15.325 6.853 15.226 6.831 5.808 0 11.357-2.488 15.229-6.831 12.514-14.044 34.454-14.04 46.968.003 8.113 9.1 22.338 9.097 30.451-.003 12.472-13.996 34.408-14.092 46.966.001 8.1 9.088 22.33 9.114 30.452 0 12.474-13.996 34.409-14.095 46.967 0 6.529 7.327 15.326 6.852 15.227 6.83 5.808 0 11.357-2.489 15.228-6.831 12.514-14.043 34.455-14.04 46.967.003 8.166 9.159 22.41 9.027 30.45-.001 6.344-7.118 15.427-10.931 25.003-10.505 27.567 1.28 40.665 35.947 19.396 54.899-9.101 8.104-9.104 22.339 0 30.454 14.043 12.514 14.04 34.454-.003 46.968-9.021 7.688-9.02 22.765.001 30.453z"/><path d="m90.027 105.027h30v45h-30z"/><path d="m90.027 240.027h30v45h-30z"/><path d="m90.027 360.027h30v45h-30z"/><path d="m165.027 165.027h30v45h-30z"/><path d="m165.027 300.027h30v45h-30z"/><path d="m240.027 105.027h30v45h-30z"/><path d="m240.027 240.027h30v45h-30z"/><path d="m240.027 360.027h30v45h-30z"/><path d="m315.027 165.027h30v45h-30z"/><path d="m315.027 300.027h30v45h-30z"/><path d="m390.027 105.027h30v45h-30z"/><path d="m390.027 240.027h30v45h-30z"/><path d="m390.027 360.027h30v45h-30z"/></g></svg>