<svg id="Capa_1" enable-background="new 0 0 510 510" height="512" viewBox="0 0 510 510" width="512" xmlns="http://www.w3.org/2000/svg"><g><path d="m382.5 210.001c-5.856 0-11.449 1.137-16.586 3.181-5.205-19.097-22.691-33.182-43.414-33.182-8.021 0-15.554 2.12-22.082 5.813-11.428-17.85-33.395-25.158-52.918-18.233v-40.486c17.488 6.832 25.205 7.906 30 7.906 24.812 0 45-20.187 45-45 0-24.814-20.188-45.001-45-45.001-4.795 0-12.512 1.074-30 7.906v-7.905c0-24.813-20.187-45-45-45s-45 20.187-45 45v7.906c-17.489-6.832-25.206-7.906-30-7.906-24.813 0-45 20.187-45 45.001 0 24.813 20.187 45 45 45 4.794 0 12.511-1.074 30-7.906v130.485c-4.695-1.665-9.741-2.58-14.999-2.58-24.814 0-45.001 20.187-45.001 45v120c0 49.626 40.374 90 90 90h150c49.626 0 90-40.374 90-90 0-24.282 0-138.962 0-165 0-24.812-20.187-44.999-45-44.999zm-90-120c0 8.271-6.729 15-14.988 15-7.419-.136-33.719-11.914-40.487-15 6.752-3.079 33.061-14.865 40.475-15.001 8.271 0 15 6.729 15 15.001zm-105-45.001c0-8.271 6.729-15 15.001-15 8.271 0 15 6.729 15 15v20.979c-5.889 2.764-11.078 5.293-14.926 7.198l-.075-.039-.075.039c-3.847-1.905-9.036-4.434-14.924-7.198v-20.979zm-75 45.001c0-8.272 6.729-15.001 14.988-15.001 7.415.137 33.691 11.901 40.488 15.001-6.718 3.063-33.06 14.863-40.477 15-8.27 0-14.999-6.73-14.999-15zm285 329.999c0 33.084-26.916 60-60 60h-150c-33.084 0-60-26.916-60-60v-120c0-8.271 6.729-15 15.001-15 8.268 0 14.994 6.724 14.999 14.99 0 6.862.001 59.348.001 60.01h30c0-7.648-.001-239.807-.001-245.978 5.889-2.764 11.079-5.294 14.926-7.199l.076.038.074-.038c3.847 1.905 9.037 4.434 14.925 7.198 0 10.221-.001 190.229-.001 200.978h30c0-13.02.001-93.768.001-105.01.005-8.266 6.731-14.99 15-14.99 8.271 0 15 6.729 15 14.999 0 13.692-.001 93.064-.001 105h30c0-9.729.001-80.633.001-90.019.011-8.262 6.735-14.98 15-14.98 8.271 0 15 6.729 15 15v90h30v-60.019c.011-8.262 6.735-14.98 15-14.98 8.271 0 15 6.729 15 14.999-.001 26.129-.001 140.806-.001 165.001z"/></g></svg>