<svg id="Capa_1" enable-background="new 0 0 512 512" height="512" viewBox="0 0 512 512" width="512" xmlns="http://www.w3.org/2000/svg"><g><path d="m466.947 244.222-15.947-51.492v-192.73h-390v192.73l-15.948 51.492c-21.607 69.767-4.366 145.333 44.948 198.764v69.014h332v-69.014c49.314-53.432 66.555-128.997 44.947-198.764zm-135.947-183.713c-34.192 6.968-60 37.271-60 73.491v116.491c-4.848.988-9.864 1.509-15 1.509s-10.152-.521-15-1.509v-116.491c0-36.219-25.808-66.522-60-73.491v-30.509h150zm0 31.071v85.42c0 24.484-11.796 46.262-30 59.959v-102.959c0-19.555 12.541-36.228 30-42.42zm-150 0c17.459 6.192 30 22.865 30 42.42v102.959c-18.204-13.697-30-35.475-30-59.959zm-107.29 161.517 17.29-55.827v-167.27h60v147c0 57.897 47.103 105 105 105s105-47.103 105-105v-147h60v167.27l17.291 55.828c18.344 59.232 3.867 123.364-37.743 168.903h-289.096c-41.611-45.54-56.087-109.672-37.742-168.904zm318.29 228.903h-272v-30h272z"/></g></svg>