<svg id="Capa_1" enable-background="new 0 0 512 512" height="512" viewBox="0 0 512 512" width="512" xmlns="http://www.w3.org/2000/svg"><path d="m440.291 120.5-139.527-69.764c.229-1.84.361-3.71.361-5.611 0-24.882-20.243-45.125-45.125-45.125s-45.125 20.243-45.125 45.125c0 1.901.132 3.771.361 5.611l-139.527 69.764h-71.709v391.5h512v-391.5zm-9.754 60.25h-349.074l-30.25-30.25h409.574zm-242.455 138.526c-13.31 0-24.138-10.828-24.138-24.138s10.828-24.138 24.138-24.138 24.139 10.828 24.139 24.138-10.829 24.138-24.139 24.138zm0 30c27.756-.212 53.072 15.157 52.918 44.547v27.927h-105.835v-27.927c-.153-29.391 25.159-44.758 52.917-44.547zm135.835 23.74c27.755-.212 53.072 15.157 52.918 44.547v4.188h-105.835v-4.188c-.154-29.391 25.16-44.759 52.917-44.547zm-24.138-54.139c0-13.31 10.828-24.138 24.138-24.138 13.311 0 24.139 10.828 24.139 24.138s-10.828 24.138-24.139 24.138c-13.31.001-24.138-10.827-24.138-24.138zm66.584 33.547c7.311-9.231 11.693-20.883 11.693-33.546 0-29.852-24.286-54.138-54.139-54.138-29.852 0-54.138 24.286-54.138 54.138 0 12.663 4.382 24.315 11.693 33.546-4.683 2.37-11.481 6.35-16.728 11.134-6.495-14.786-18.651-27.2-34.216-34.872 7.311-9.231 11.693-20.883 11.693-33.546 0-29.852-24.287-54.138-54.139-54.138s-54.138 24.286-54.138 54.138c0 12.663 4.382 24.315 11.693 33.546-23.951 11.244-41.022 36.894-40.472 65.139v27.927h-14.915v-211h331.5v211h-14.915v-4.188c.551-28.246-16.521-53.896-40.472-65.14zm-306.113-150.461v228.574l-30.25 30.25v-289.074zm21.213 249.787h349.074l30.25 30.25h-409.574zm370.287-21.213v-228.574l30.25-30.25v289.074zm-195.75-400.537c8.34 0 15.125 6.785 15.125 15.125s-6.785 15.125-15.125 15.125-15.125-6.785-15.125-15.125 6.785-15.125 15.125-15.125zm-31.326 47.559c8.123 7.848 19.166 12.691 31.326 12.691s23.204-4.843 31.326-12.691l85.883 42.941h-234.418z"/></svg>