<svg id="Capa_1" enable-background="new 0 0 512 512" height="512" viewBox="0 0 512 512" width="512" xmlns="http://www.w3.org/2000/svg"><g id="XMLID_564_"><path id="XMLID_759_" d="m482 88.377v29h-32v-15.667h-30v15.667h-29.667v-63.334h-30v63.334h-29.666v-29h-30v29h-29.667v-78.281h-30v78.281h-29.667v-15.667h-30v15.667h-29.666v-61.914h-30v61.914h-29.667v-29h-30v29h-32v-29h-30v88h30v-29h32v29h30v-29h29.667v61.914h30v-61.914h29.666v15.666h30v-15.666h29.667v78.281h30v-78.281h29.667v29h30v-29h29.666v63.333h30v-63.333h29.667v15.666h30v-15.666h32v29h30v-88z"/><path id="XMLID_800_" d="m97.833 287.043v60h-28v30h28v60h95.881l106.785 35.86v-221.72l-106.785 35.86zm30 30h53.333v90h-53.333zm142.667 114.14-59.333-19.926v-98.427l59.333-19.926z"/><path id="XMLID_803_" d="m344.167 378.043v30c25.364 0 46-20.636 46-46s-20.636-46-46-46v30c8.822 0 16 7.178 16 16s-7.178 16-16 16z"/><path id="XMLID_804_" d="m344.167 259.043v30c40.252 0 73 32.748 73 73s-32.748 73-73 73v30c56.794 0 103-46.206 103-103s-46.206-103-103-103z"/></g></svg>