<svg id="Capa_1" enable-background="new 0 0 512 512" height="512" viewBox="0 0 512 512" width="512" xmlns="http://www.w3.org/2000/svg"><g><path d="m256 60.178c-74.754 0-135.572 60.817-135.572 135.572s60.818 135.572 135.572 135.572 135.571-60.817 135.571-135.572-60.817-135.572-135.571-135.572zm0 241.144c-58.212 0-105.572-47.359-105.572-105.572s47.36-105.572 105.572-105.572 105.571 47.359 105.571 105.572-47.359 105.572-105.571 105.572z"/><path d="m304.704 157.903c-7.966-20.101-27.083-33.089-48.704-33.089s-40.739 12.988-48.704 33.088c-7.966 20.101-2.935 42.659 12.818 57.469l13.988 13.152-21.574 20.284 20.55 21.856 22.922-21.55 22.923 21.552 20.55-21.856-21.574-20.284 13.988-13.152c15.752-14.812 20.783-37.37 12.817-57.47zm-33.368 35.612-15.336 14.42-15.336-14.419c-10.283-9.668-6.792-21.243-5.478-24.561s6.701-14.141 20.814-14.141 19.5 10.824 20.814 14.141 4.805 14.892-5.478 24.56z"/><path d="m394.389 57.306c-36.974-36.958-86.113-57.306-138.388-57.306-.026 0-.061 0-.086 0-52.421.022-101.601 20.353-138.479 57.247-36.877 36.894-57.186 86.082-57.186 138.503 0 34.932 9.319 69.225 26.95 99.17 17.104 29.052 41.56 53.348 70.723 70.261 30.638 17.769 53.736 46.229 65.039 80.137l12.226 36.682h-69.563v30h180.75v-30h-69.561l12.238-36.699c11.204-33.599 34.65-62.259 66.02-80.699 28.891-16.983 53.104-41.25 70.02-70.177 17.44-29.823 26.659-63.944 26.659-98.674-.001-52.302-20.372-101.469-57.362-138.445zm4.805 221.974c-14.333 24.509-34.848 45.069-59.326 59.459-37.623 22.117-65.776 56.591-79.275 97.071l-4.59 13.764-4.581-13.743c-13.618-40.853-41.478-75.16-78.449-96.601-24.708-14.33-45.429-34.916-59.921-59.53-14.917-25.337-22.802-54.367-22.802-83.95 0-44.411 17.19-86.067 48.404-117.295 31.215-31.227 72.864-48.436 117.274-48.455h.073c44.261 0 85.874 17.231 117.179 48.523 31.321 31.309 48.57 72.94 48.57 117.227 0 29.413-7.8 58.297-22.556 83.53z"/></g></svg>