<svg id="Capa_1" enable-background="new 0 0 512 512" height="512" viewBox="0 0 512 512" width="512" xmlns="http://www.w3.org/2000/svg"><g><path d="m466.976 197.261h-15.4v-28.043h30.016v-30h-30.016v-18.81c0-33.093-26.937-60.016-60.047-60.016h-90.505v-15.392c0-24.813-20.197-45-45.024-45-24.826 0-45.024 20.187-45.024 45v15.392h-90.505c-33.11 0-60.048 26.923-60.048 60.016v18.81h-30.015v30h30.016v28.043h-15.4c-24.826 0-45.024 20.187-45.024 45s20.198 45 45.024 45h15.4v194.739h30.016v30h30.016v-30h271.089v30h30.016v-30h30.016v-194.739h15.4c24.827 0 45.024-20.187 45.024-45s-20.198-45-45.025-45zm-225.984-152.261c0-8.271 6.732-15 15.008-15s15.008 6.729 15.008 15v15.392h-30.016zm-150.552 75.408c0-16.551 13.472-30.016 30.032-30.016h271.057c16.56 0 30.032 13.465 30.032 30.016v18.81h-331.121zm-45.416 136.853c-8.275 0-15.008-6.729-15.008-15s6.733-15 15.008-15h15.4v30zm165.952 194.739v-56.87c0-24.813 20.198-45 45.024-45 24.827 0 45.024 20.187 45.024 45v56.87zm120.064 0v-56.87c0-41.355-33.662-75-75.04-75-41.377 0-75.04 33.645-75.04 75v56.87h-90.52v-282.783h331.12v282.783zm135.936-194.739h-15.4v-30h15.4c8.276 0 15.008 6.729 15.008 15s-6.732 15-15.008 15z"/><path d="m240.992 384.109h30.016v30h-30.016z"/></g></svg>