<svg id="Capa_1" enable-background="new 0 0 512.013 512.013" height="512" viewBox="0 0 512.013 512.013" width="512" xmlns="http://www.w3.org/2000/svg"><g><path d="m512.013 251.415c-38.818-66.537-133.62-166.381-256.007-165.625-99.685-2.445-203.412 75.311-256.006 165.625 38.818 66.538 133.62 166.381 256.006 165.625 4.656.114 9.322.051 13.99-.178-2.765 7.745-3.285 12.857-3.285 16.532 0 27.319 22.226 49.545 49.545 49.545s49.545-22.226 49.545-49.545c0-6.255-1.507-16.672-13.042-37.17 65.056-28.736 123.786-83.903 159.254-144.809zm-195.757 201.525c-10.777 0-19.545-8.768-19.545-19.545 0-5.613 7.501-21.282 19.545-39.358 12.045 18.078 19.545 33.746 19.545 39.358 0 10.777-8.767 19.545-19.545 19.545zm94.462-128.274-27.999-27.999h-24.213v30h11.787l16.454 16.454c-15.137 10.53-31.91 20.109-50.192 27.618-7.837-11.405-10.814-14.448-20.299-27.019-11.832 15.713-14.008 16.969-29.598 40.984-9.906 1.506-20.123 2.336-30.652 2.336-10.858.206-21.784-.648-32.695-2.455l4.874-19.497-29.104-7.276-4.923 19.693c-23.668-7.562-46.896-19.368-68.82-34.458l16.382-16.382h11.787v-30h-24.213l-28.049 28.049c-20.214-16.933-38.877-36.649-55.195-58.299h34.056l25.732 25.731 21.213-21.213-19.518-19.519 19.518-19.518-21.213-21.213-25.731 25.731h-33.938c12.026-15.736 30.672-37.513 55.133-58.241l27.991 27.991h24.213v-30h-11.786l-16.452-16.452c20.163-14.024 43.226-26.374 68.893-34.374l4.92 19.679 29.104-7.276-4.829-19.318c10.525-1.706 21.414-2.634 32.65-2.634 10.858-.206 21.785.648 32.696 2.455l-4.874 19.497 29.104 7.276 4.923-19.693c23.67 7.563 46.906 19.355 68.832 34.449l-16.393 16.393h-11.787v30h24.213l28.054-28.054c20.216 16.935 38.885 36.651 55.203 58.304h-34.07l-25.731-25.731-21.213 21.213 19.519 19.519-19.519 19.519 21.213 21.213 25.731-25.731h33.935c-12.026 15.737-30.662 37.515-55.124 58.248z"/><path d="m512.006 143.286c-81.077-74.725-152.854-113.988-255.995-114.213-.002 0-.003 0-.005 0s-.003 0-.005 0c-103.141.225-174.917 39.488-255.995 114.213l19.977 22.382c53.208-47.49 119.427-106.593 236.023-106.595 116.596.002 182.815 59.104 236.023 106.594z"/><path d="m256.006 146.04c-58.104 0-105.375 47.271-105.375 105.375s47.271 105.375 105.375 105.375 105.375-47.271 105.375-105.375-47.271-105.375-105.375-105.375zm0 180.75c-41.562 0-75.375-33.813-75.375-75.375s33.813-75.375 75.375-75.375 75.375 33.813 75.375 75.375-33.813 75.375-75.375 75.375z"/><path d="m256.006 206.29c-24.882 0-45.125 20.243-45.125 45.125s20.243 45.125 45.125 45.125 45.125-20.243 45.125-45.125-20.243-45.125-45.125-45.125zm0 60.25c-8.34 0-15.125-6.785-15.125-15.125s6.785-15.125 15.125-15.125 15.125 6.785 15.125 15.125-6.785 15.125-15.125 15.125z"/></g></svg>