<?xml version="1.0" encoding="iso-8859-1"?>
<!-- Generator: Adobe Illustrator 19.0.0, SVG Export Plug-In . SVG Version: 6.00 Build 0)  -->
<svg xmlns="http://www.w3.org/2000/svg" xmlns:xlink="http://www.w3.org/1999/xlink" version="1.1" id="Layer_1" x="0px" y="0px" viewBox="0 0 512 512" style="enable-background:new 0 0 512 512;" xml:space="preserve">
<g>
	<g>
		<path d="M90.084,183.612V39.885H17.697v143.726C6.833,193.478,0,207.708,0,223.505s6.833,30.027,17.697,39.892v208.718h72.387    V263.397c10.864-9.865,17.697-24.096,17.697-39.892S100.948,193.478,90.084,183.612z M48.114,70.302h11.552v99.622    c-0.032-0.003-0.066-0.004-0.099-0.008c-0.82-0.086-1.647-0.149-2.477-0.198c-0.108-0.006-0.216-0.019-0.324-0.024    c-0.952-0.051-1.91-0.078-2.874-0.078s-1.923,0.028-2.875,0.078c-0.104,0.006-0.208,0.018-0.312,0.024    c-0.834,0.049-1.665,0.113-2.489,0.199c-0.033,0.003-0.068,0.004-0.1,0.007V70.302z M59.666,441.697H48.114V277.085    c0.034,0.003,0.068,0.004,0.101,0.008c0.74,0.078,1.487,0.132,2.236,0.179c0.196,0.012,0.39,0.034,0.587,0.045    c0.945,0.05,1.896,0.077,2.853,0.077c0.957,0,1.907-0.027,2.852-0.077c0.2-0.01,0.397-0.032,0.597-0.046    c0.745-0.048,1.489-0.101,2.227-0.18c0.032-0.002,0.066-0.003,0.099-0.007V441.697z M66.431,243.331    c-0.373,0.237-0.75,0.463-1.135,0.678c-0.06,0.033-0.118,0.07-0.178,0.102c-0.43,0.235-0.868,0.453-1.31,0.66    c-0.119,0.056-0.238,0.109-0.358,0.162c-0.383,0.171-0.77,0.334-1.161,0.484c-0.08,0.031-0.158,0.065-0.239,0.094    c-0.463,0.172-0.933,0.328-1.405,0.47c-0.108,0.032-0.218,0.062-0.326,0.093c-0.4,0.115-0.804,0.218-1.211,0.31    c-0.101,0.023-0.201,0.049-0.303,0.07c-0.49,0.105-0.982,0.195-1.478,0.268c-0.088,0.013-0.176,0.021-0.265,0.034    c-0.417,0.057-0.834,0.101-1.255,0.136c-0.133,0.01-0.266,0.021-0.4,0.03c-0.504,0.032-1.009,0.054-1.517,0.054    c-0.508,0-1.013-0.021-1.517-0.054c-0.134-0.009-0.267-0.02-0.399-0.03c-0.42-0.034-0.839-0.079-1.255-0.136    c-0.088-0.012-0.176-0.021-0.265-0.034c-0.497-0.073-0.99-0.163-1.479-0.268c-0.101-0.021-0.201-0.047-0.302-0.07    c-0.407-0.092-0.81-0.197-1.211-0.31c-0.109-0.031-0.219-0.061-0.326-0.093c-0.474-0.142-0.942-0.298-1.405-0.47    c-0.081-0.03-0.159-0.064-0.239-0.095c-0.39-0.15-0.777-0.311-1.16-0.483c-0.121-0.054-0.24-0.107-0.36-0.163    c-0.442-0.207-0.879-0.424-1.309-0.659c-0.061-0.033-0.12-0.07-0.18-0.104c-0.382-0.214-0.759-0.44-1.131-0.676    c-6.564-4.165-10.933-11.493-10.933-19.826s4.369-15.661,10.932-19.827c0.375-0.238,0.755-0.466,1.143-0.682    c0.056-0.031,0.11-0.065,0.166-0.096c0.433-0.237,0.874-0.456,1.32-0.665c0.113-0.053,0.226-0.103,0.34-0.154    c0.393-0.176,0.79-0.343,1.191-0.496c0.071-0.027,0.141-0.058,0.212-0.084c0.468-0.174,0.942-0.332,1.421-0.476    c0.101-0.03,0.205-0.058,0.306-0.087c0.409-0.117,0.821-0.223,1.236-0.317c0.094-0.021,0.189-0.045,0.284-0.066    c0.493-0.105,0.989-0.196,1.487-0.27c0.085-0.012,0.17-0.021,0.255-0.032c0.419-0.057,0.841-0.101,1.263-0.136    c0.132-0.011,0.264-0.021,0.395-0.03c0.504-0.032,1.01-0.055,1.518-0.055c0.508,0,1.014,0.021,1.518,0.055    c0.133,0.008,0.265,0.019,0.396,0.03c0.423,0.034,0.844,0.079,1.263,0.136c0.085,0.011,0.171,0.02,0.257,0.032    c0.499,0.074,0.995,0.164,1.487,0.27c0.095,0.02,0.19,0.045,0.284,0.066c0.415,0.094,0.827,0.201,1.236,0.317    c0.102,0.029,0.205,0.057,0.306,0.087c0.479,0.144,0.952,0.301,1.42,0.476c0.071,0.026,0.141,0.057,0.212,0.084    c0.403,0.154,0.8,0.32,1.193,0.497c0.113,0.051,0.226,0.1,0.338,0.153c0.446,0.209,0.888,0.429,1.321,0.666    c0.056,0.03,0.11,0.064,0.164,0.094c0.387,0.216,0.77,0.445,1.146,0.684c6.563,4.166,10.931,11.493,10.931,19.826    C77.362,231.837,72.994,239.165,66.431,243.331z"/>
	</g>
</g>
<g>
	<g>
		<path d="M224.824,237.77V39.885h-72.387v197.886c-10.864,9.865-17.697,24.096-17.697,39.892c0,15.797,6.833,30.027,17.697,39.893    v154.558h72.387V317.557c10.864-9.866,17.697-24.097,17.697-39.893S235.688,247.637,224.824,237.77z M182.854,70.302h11.552    v153.78c-0.033-0.003-0.067-0.004-0.099-0.008c-0.78-0.082-1.566-0.14-2.355-0.189c-0.153-0.009-0.304-0.026-0.457-0.034    c-0.949-0.05-1.903-0.077-2.864-0.077c-0.961,0-1.915,0.027-2.864,0.077c-0.156,0.008-0.31,0.026-0.466,0.035    c-0.786,0.049-1.57,0.106-2.346,0.188c-0.032,0.004-0.066,0.005-0.099,0.008V70.302z M194.407,441.698h-11.552V331.245    c0.033,0.003,0.067,0.004,0.1,0.008c0.777,0.082,1.559,0.14,2.346,0.188c0.156,0.01,0.31,0.027,0.466,0.035    c0.949,0.05,1.903,0.077,2.864,0.077s1.915-0.027,2.864-0.077c0.153-0.008,0.304-0.025,0.457-0.034    c0.789-0.049,1.576-0.106,2.355-0.189c0.031-0.003,0.065-0.004,0.098-0.008V441.698z M201.188,297.479    c-0.391,0.249-0.788,0.488-1.191,0.713c-0.043,0.023-0.083,0.049-0.126,0.072c-0.44,0.241-0.888,0.464-1.34,0.675    c-0.104,0.049-0.21,0.095-0.314,0.143c-0.405,0.181-0.812,0.353-1.226,0.51c-0.063,0.023-0.124,0.051-0.187,0.074    c-0.471,0.175-0.95,0.335-1.432,0.479c-0.097,0.029-0.197,0.056-0.295,0.084c-0.413,0.118-0.828,0.224-1.247,0.319    c-0.093,0.021-0.185,0.045-0.278,0.064c-0.494,0.105-0.991,0.196-1.49,0.27c-0.083,0.012-0.167,0.021-0.25,0.032    c-0.421,0.058-0.844,0.102-1.267,0.137c-0.132,0.011-0.264,0.021-0.396,0.03c-0.504,0.032-1.009,0.055-1.517,0.055    c-0.508,0-1.013-0.021-1.517-0.055c-0.133-0.008-0.265-0.019-0.396-0.03c-0.425-0.034-0.848-0.079-1.267-0.137    c-0.083-0.011-0.167-0.02-0.25-0.031c-0.501-0.074-0.998-0.164-1.49-0.27c-0.093-0.02-0.185-0.044-0.278-0.064    c-0.419-0.095-0.834-0.202-1.247-0.319c-0.098-0.028-0.198-0.055-0.295-0.084c-0.482-0.145-0.959-0.303-1.431-0.479    c-0.063-0.023-0.125-0.051-0.188-0.074c-0.413-0.158-0.819-0.328-1.223-0.509c-0.105-0.048-0.212-0.094-0.316-0.144    c-0.452-0.211-0.899-0.434-1.339-0.674c-0.044-0.024-0.086-0.051-0.13-0.075c-0.401-0.223-0.797-0.461-1.186-0.709    c-6.555-4.168-10.917-11.491-10.917-19.818c0-8.332,4.368-15.659,10.93-19.825c0.379-0.241,0.763-0.471,1.154-0.689    c0.052-0.029,0.102-0.061,0.154-0.089c0.436-0.238,0.88-0.459,1.328-0.669c0.109-0.051,0.219-0.099,0.329-0.149    c0.399-0.179,0.804-0.349,1.212-0.505c0.065-0.025,0.129-0.053,0.194-0.077c0.471-0.175,0.949-0.334,1.43-0.479    c0.097-0.029,0.196-0.056,0.294-0.084c0.414-0.118,0.829-0.225,1.249-0.32c0.092-0.021,0.183-0.044,0.276-0.064    c0.494-0.105,0.991-0.197,1.491-0.271c0.083-0.012,0.168-0.02,0.251-0.031c0.421-0.058,0.843-0.102,1.267-0.137    c0.132-0.01,0.263-0.021,0.394-0.03c0.504-0.032,1.01-0.055,1.518-0.055c0.508,0,1.014,0.021,1.518,0.055    c0.132,0.008,0.264,0.019,0.394,0.03c0.424,0.034,0.847,0.079,1.266,0.137c0.084,0.011,0.168,0.02,0.252,0.032    c0.5,0.074,0.998,0.164,1.49,0.27c0.093,0.02,0.185,0.043,0.277,0.064c0.42,0.095,0.836,0.202,1.249,0.32    c0.097,0.028,0.197,0.055,0.294,0.084c0.482,0.145,0.959,0.303,1.431,0.479c0.065,0.024,0.129,0.052,0.194,0.076    c0.41,0.156,0.814,0.326,1.215,0.506c0.109,0.049,0.218,0.097,0.326,0.148c0.449,0.21,0.893,0.431,1.33,0.67    c0.052,0.028,0.1,0.059,0.152,0.087c0.391,0.218,0.777,0.45,1.157,0.692c6.561,4.166,10.928,11.493,10.928,19.824    C212.102,285.99,207.742,293.311,201.188,297.479z"/>
	</g>
</g>
<g>
	<g>
		<path d="M359.564,118.62V39.885h-72.388v78.735c-10.864,9.866-17.697,24.096-17.697,39.893c0,15.797,6.833,30.027,17.697,39.892    v273.708h72.388V198.406c10.864-9.865,17.696-24.096,17.696-39.892S370.428,128.486,359.564,118.62z M317.594,70.302h11.553    v34.629c-0.033-0.003-0.068-0.005-0.101-0.008c-0.715-0.075-1.437-0.127-2.16-0.173c-0.223-0.014-0.444-0.039-0.667-0.051    c-0.943-0.05-1.892-0.076-2.848-0.076c-0.955,0-1.904,0.026-2.848,0.076c-0.221,0.011-0.44,0.036-0.661,0.051    c-0.725,0.047-1.449,0.098-2.166,0.174c-0.035,0.003-0.069,0.004-0.102,0.007V70.302z M329.147,441.698h-11.553V212.094    c0.033,0.003,0.067,0.004,0.1,0.008c0.822,0.086,1.652,0.15,2.485,0.199c0.105,0.006,0.21,0.018,0.316,0.024    c0.952,0.051,1.91,0.078,2.875,0.078c0.965,0,1.922-0.028,2.875-0.078c0.105-0.006,0.211-0.018,0.316-0.024    c0.833-0.049,1.663-0.112,2.485-0.199c0.032-0.004,0.066-0.005,0.099-0.008V441.698z M335.898,178.348    c-0.368,0.232-0.74,0.456-1.118,0.668c-0.06,0.033-0.119,0.07-0.178,0.103c-0.434,0.237-0.876,0.457-1.322,0.666    c-0.109,0.051-0.22,0.1-0.331,0.149c-0.399,0.18-0.803,0.349-1.212,0.505c-0.065,0.025-0.129,0.053-0.194,0.077    c-0.471,0.175-0.95,0.335-1.432,0.479c-0.096,0.029-0.194,0.055-0.291,0.083c-0.415,0.119-0.832,0.226-1.253,0.321    c-0.091,0.021-0.181,0.044-0.274,0.063c-0.495,0.105-0.993,0.197-1.493,0.271c-0.081,0.012-0.164,0.02-0.246,0.031    c-0.422,0.058-0.846,0.102-1.271,0.137c-0.131,0.01-0.262,0.021-0.393,0.03c-0.504,0.032-1.01,0.055-1.519,0.055    s-1.014-0.021-1.518-0.055c-0.132-0.008-0.264-0.019-0.394-0.03c-0.425-0.034-0.849-0.079-1.269-0.137    c-0.083-0.011-0.166-0.019-0.248-0.031c-0.501-0.074-0.998-0.164-1.491-0.27c-0.093-0.02-0.185-0.044-0.277-0.064    c-0.42-0.095-0.835-0.202-1.249-0.32c-0.097-0.027-0.196-0.054-0.293-0.083c-0.482-0.145-0.959-0.303-1.432-0.479    c-0.064-0.024-0.127-0.051-0.191-0.075c-0.411-0.157-0.817-0.328-1.22-0.508c-0.106-0.048-0.214-0.095-0.32-0.145    c-0.45-0.211-0.896-0.432-1.334-0.672c-0.05-0.026-0.096-0.057-0.146-0.084c-0.393-0.219-0.78-0.452-1.162-0.695    c-6.561-4.166-10.928-11.493-10.928-19.824c0-8.334,4.37-15.663,10.934-19.829c0.376-0.238,0.757-0.467,1.145-0.683    c0.054-0.03,0.106-0.063,0.16-0.092c0.435-0.238,0.878-0.458,1.326-0.668c0.109-0.052,0.22-0.1,0.331-0.149    c0.398-0.178,0.801-0.348,1.208-0.503c0.067-0.025,0.132-0.054,0.199-0.078c0.47-0.175,0.946-0.333,1.427-0.478    c0.099-0.029,0.2-0.057,0.3-0.085c0.411-0.118,0.824-0.223,1.241-0.318c0.094-0.021,0.188-0.045,0.283-0.065    c0.493-0.105,0.989-0.196,1.487-0.27c0.085-0.012,0.17-0.021,0.255-0.032c0.419-0.057,0.841-0.101,1.263-0.136    c0.132-0.011,0.264-0.021,0.396-0.03c0.504-0.032,1.009-0.055,1.517-0.055s1.013,0.021,1.517,0.055    c0.133,0.008,0.264,0.019,0.396,0.03c0.424,0.034,0.846,0.079,1.265,0.137c0.084,0.011,0.169,0.02,0.253,0.032    c0.5,0.074,0.997,0.164,1.49,0.27c0.093,0.02,0.186,0.044,0.278,0.064c0.418,0.095,0.833,0.202,1.245,0.319    c0.099,0.028,0.199,0.055,0.298,0.084c0.481,0.144,0.956,0.302,1.427,0.478c0.068,0.025,0.135,0.054,0.202,0.08    c0.405,0.155,0.804,0.322,1.199,0.5c0.114,0.051,0.227,0.101,0.341,0.154c0.444,0.208,0.883,0.426,1.315,0.662    c0.066,0.035,0.129,0.075,0.194,0.112c0.372,0.208,0.739,0.428,1.101,0.657c6.574,4.164,10.951,11.498,10.951,19.839    C346.843,166.852,342.469,174.183,335.898,178.348z"/>
	</g>
</g>
<g>
	<g>
		<path d="M494.304,313.595V39.885h-72.388v273.709c-10.864,9.865-17.696,24.095-17.696,39.892s6.832,30.027,17.696,39.893v78.735    h72.388V393.38C505.168,383.514,512,369.283,512,353.487C512,337.69,505.168,323.46,494.304,313.595z M452.334,70.302h11.553    v229.603c-0.033-0.003-0.068-0.005-0.101-0.008c-0.717-0.075-1.441-0.127-2.166-0.174c-0.221-0.014-0.44-0.039-0.661-0.051    c-0.943-0.05-1.893-0.076-2.848-0.076s-1.904,0.026-2.848,0.076c-0.221,0.011-0.44,0.037-0.661,0.051    c-0.725,0.047-1.449,0.098-2.166,0.174c-0.034,0.004-0.068,0.005-0.102,0.008V70.302z M463.887,441.698h-11.553v-34.629    c0.033,0.003,0.067,0.004,0.1,0.008c0.779,0.082,1.564,0.14,2.352,0.189c0.153,0.009,0.306,0.026,0.459,0.034    c0.949,0.05,1.903,0.077,2.864,0.077s1.915-0.027,2.864-0.077c0.154-0.008,0.306-0.025,0.459-0.034    c0.788-0.049,1.574-0.107,2.352-0.189c0.034-0.004,0.068-0.005,0.101-0.008V441.698z M470.658,373.31    c-0.382,0.243-0.77,0.476-1.164,0.696c-0.05,0.027-0.097,0.058-0.147,0.085c-0.437,0.239-0.882,0.46-1.331,0.671    c-0.107,0.05-0.216,0.098-0.324,0.147c-0.399,0.179-0.804,0.349-1.213,0.505c-0.066,0.025-0.13,0.053-0.196,0.077    c-0.47,0.175-0.947,0.334-1.428,0.478c-0.099,0.03-0.2,0.057-0.299,0.085c-0.411,0.118-0.824,0.223-1.241,0.318    c-0.094,0.021-0.188,0.045-0.282,0.065c-0.493,0.105-0.989,0.196-1.488,0.27c-0.084,0.012-0.168,0.021-0.252,0.032    c-0.42,0.058-0.843,0.102-1.266,0.137c-0.132,0.011-0.264,0.021-0.396,0.03c-0.504,0.032-1.009,0.055-1.517,0.055    s-1.013-0.021-1.517-0.055c-0.133-0.008-0.265-0.019-0.396-0.03c-0.424-0.034-0.846-0.079-1.266-0.137    c-0.084-0.011-0.168-0.02-0.253-0.032c-0.5-0.074-0.996-0.164-1.488-0.27c-0.094-0.02-0.188-0.044-0.282-0.065    c-0.417-0.095-0.83-0.201-1.241-0.318c-0.099-0.028-0.201-0.056-0.299-0.085c-0.481-0.144-0.957-0.302-1.428-0.478    c-0.066-0.024-0.13-0.053-0.196-0.077c-0.409-0.156-0.813-0.326-1.213-0.505c-0.108-0.049-0.217-0.096-0.324-0.147    c-0.45-0.21-0.894-0.432-1.331-0.671c-0.05-0.027-0.097-0.058-0.147-0.085c-0.394-0.219-0.782-0.452-1.164-0.696    c-6.56-4.167-10.925-11.493-10.925-19.823c0-8.333,4.368-15.661,10.932-19.827c0.378-0.24,0.761-0.47,1.151-0.687    c0.052-0.029,0.102-0.061,0.154-0.089c0.436-0.239,0.881-0.459,1.329-0.669c0.109-0.051,0.217-0.098,0.326-0.148    c0.401-0.179,0.804-0.349,1.214-0.506c0.065-0.024,0.129-0.053,0.194-0.076c0.471-0.175,0.948-0.334,1.43-0.479    c0.097-0.029,0.197-0.056,0.295-0.084c0.413-0.118,0.828-0.225,1.247-0.32c0.093-0.021,0.185-0.045,0.279-0.064    c0.493-0.105,0.99-0.196,1.489-0.27c0.084-0.012,0.169-0.021,0.253-0.032c0.42-0.057,0.843-0.102,1.266-0.137    c0.132-0.011,0.263-0.021,0.395-0.03c0.504-0.032,1.01-0.055,1.518-0.055c0.508,0,1.014,0.021,1.518,0.055    c0.132,0.008,0.264,0.019,0.395,0.03c0.424,0.034,0.846,0.079,1.265,0.137c0.084,0.011,0.169,0.02,0.253,0.032    c0.5,0.074,0.997,0.164,1.489,0.27c0.093,0.02,0.186,0.044,0.279,0.064c0.419,0.095,0.834,0.202,1.247,0.32    c0.098,0.028,0.197,0.055,0.295,0.084c0.482,0.145,0.958,0.303,1.43,0.479c0.065,0.024,0.129,0.052,0.194,0.077    c0.409,0.156,0.813,0.326,1.213,0.505c0.11,0.049,0.219,0.097,0.328,0.148c0.449,0.21,0.893,0.431,1.329,0.669    c0.053,0.028,0.102,0.06,0.154,0.089c0.389,0.217,0.773,0.447,1.151,0.687c6.563,4.166,10.932,11.494,10.932,19.827    C481.583,361.817,477.217,369.142,470.658,373.31z"/>
	</g>
</g>
<g>
</g>
<g>
</g>
<g>
</g>
<g>
</g>
<g>
</g>
<g>
</g>
<g>
</g>
<g>
</g>
<g>
</g>
<g>
</g>
<g>
</g>
<g>
</g>
<g>
</g>
<g>
</g>
<g>
</g>
</svg>
