<svg id="Capa_1" enable-background="new 0 0 512 512" height="512" viewBox="0 0 512 512" width="512" xmlns="http://www.w3.org/2000/svg"><g><g><path d="m339.022 480.029h-201.106v-144.179c-31.252-30.391-49.044-72.292-49.044-116.024 0-89.215 72.582-161.797 161.796-161.797 88.316 0 160.333 71.126 161.774 159.105l47.066 130.06h-47.044v59.64h-73.442zm-171.106-30h141.107v-73.195h73.442v-59.64h34.284l-34.284-94.737v-2.631c0-72.673-59.124-131.797-131.797-131.797s-131.796 59.124-131.796 131.797c0 37.482 16.051 73.318 44.037 98.318l5.007 4.473z"/></g><g><path d="m296.538 249.826h-91.74c-17.531 0-33.688-8.809-43.219-23.565-9.405-14.56-10.788-32.632-3.7-48.344 5.49-12.17 13.251-23.027 23.069-32.267 39.095-36.792 100.344-36.793 139.439 0 9.817 9.24 17.579 20.096 23.069 32.267 7.087 15.711 5.704 33.784-3.7 48.344-9.53 14.756-25.687 23.565-43.218 23.565zm-45.87-101.786c-17.688 0-35.376 6.486-49.159 19.458-6.939 6.531-12.418 14.187-16.283 22.755-2.925 6.483-2.358 13.675 1.553 19.731 3.981 6.163 10.717 9.842 18.019 9.842h91.74c7.302 0 14.037-3.679 18.019-9.842 3.912-6.056 4.478-13.248 1.554-19.73-3.865-8.569-9.344-16.225-16.283-22.756-13.784-12.972-31.473-19.458-49.16-19.458z"/></g><g><path d="m0 204.826h58.872v30h-58.872z"/></g><g><path d="m79.233 33.956h30v58.871h-30z" transform="matrix(.707 -.707 .707 .707 -17.224 85.2)"/></g><g><path d="m31.276 105.728h30v58.872h-30z" transform="matrix(.383 -.924 .924 .383 -96.308 126.192)"/></g><g><path d="m453.129 204.826h58.871v30h-58.871z"/></g><g><path d="m388.332 48.392h58.871v30h-58.871z" transform="matrix(.707 -.707 .707 .707 77.537 313.973)"/></g><g><path d="m436.288 120.164h58.871v30h-58.871z" transform="matrix(.924 -.383 .383 .924 -16.274 188.514)"/></g></g></svg>