<svg id="Capa_1" enable-background="new 0 0 512 512" height="512" viewBox="0 0 512 512" width="512" xmlns="http://www.w3.org/2000/svg"><g><path d="m52.266 0v512h407.469v-512zm377.468 30v110.822h-30v-80.822h-287.468v80.822h-30v-110.822zm-60 100.822h-227.468v-40.822h227.469v40.822zm-227.468 40v-10h98.734v80.178h-158.734v-70.178zm98.734 100.178v80.178h-98.734v-10h-60v-70.178zm-98.734 110.178h227.469v40.822h-227.469zm227.468-40v10h-98.734v-80.178h158.734v70.178zm-98.734-100.178v-80.178h98.734v10h60v70.178zm-188.734 241v-110.822h30v80.822h287.469v-80.822h30v110.822z"/></g></svg>