<svg id="Capa_1" enable-background="new 0 0 511.998 511.998" height="512" viewBox="0 0 511.998 511.998" width="512" xmlns="http://www.w3.org/2000/svg"><g><path d="m408.999 85.003v-30h-43.134l-13.001-55.003h-193.73l-13 55.003h-43.135v30h21.548l25.98 238.184-34.527 55.243v133.568h279.999v-133.568l-34.527-55.243 25.978-238.184zm-226.129-55.003h146.258l5.91 25.003h-158.078zm154.813 311.729 16.252 26.003h-195.872l16.252-26.003zm-191.683 140.269v-84.266h219.999v84.266zm186.544-170.269h-61.545v-25.003h17.333v-30h-64.667v30h17.333v25.003h-61.544l-24.73-226.725h202.548z"/><path d="m240.998 421.994h30.002v30h-30.002z"/><path d="m180.994 421.994h30.002v30h-30.002z"/><path d="m301.002 421.994h30.002v30h-30.002z"/></g></svg>