<svg id="Capa_1" enable-background="new 0 0 512 512" height="512" viewBox="0 0 512 512" width="512" xmlns="http://www.w3.org/2000/svg"><g><path d="m256 60c-57.897 0-105 47.103-105 105v120c0 57.897 47.103 105 105 105s105-47.103 105-105v-120c0-57.897-47.103-105-105-105zm75 225c0 41.355-33.645 75-75 75s-75-33.645-75-75v-52.5l114-85.5-18-24-96 72v-30c0-41.355 33.645-75 75-75s75 33.645 75 75z"/><path d="m421 240h30v-30h-30v-45c0-90.981-74.019-165-165-165s-165 74.019-165 165v45h-30v30h30v242h-30v30h390v-30h-30zm-30 242h-270v-102.242c29.885 42.45 79.255 70.242 135 70.242s105.115-27.792 135-70.242zm0-197c0 74.439-60.561 135-135 135s-135-60.561-135-135c0-14.518 0-105.387 0-120 0-74.439 60.561-135 135-135s135 60.561 135 135z"/><path d="m218.5 232.5h75v30h-75z" transform="matrix(.8 -.6 .6 .8 -97.3 203.1)"/></g></svg>