<svg id="Capa_1" enable-background="new 0 0 512 512" height="512" viewBox="0 0 512 512" width="512" xmlns="http://www.w3.org/2000/svg"><g><path d="m419.337 308.699c15.37-17.022 24.163-39.331 24.163-62.683 0-19.048-5.6-37.12-16.258-52.661.836-6.919 1.258-13.909 1.258-20.855 0-95.117-77.383-172.5-172.5-172.5s-172.5 77.383-172.5 172.5c0 6.948.422 13.938 1.258 20.855-10.658 15.541-16.258 33.613-16.258 52.661 0 23.351 8.793 45.661 24.163 62.683-15.04 13.97-24.163 33.873-24.163 55.051v148.25h375v-148.25c0-21.177-9.123-41.081-24.163-55.051zm-80.837 173.301h-93.393l30.974-12.83c26.745-11.078 39.491-41.85 28.413-68.594-5.367-12.956-15.457-23.046-28.413-28.413-12.957-5.366-27.227-5.366-40.182 0l-62.399 25.846v-22.738h-75v-11.521c0-18.505 11.608-35.39 28.886-42.016l66.482-25.497c17.815 11.848 39.18 18.763 62.132 18.763s44.317-6.915 62.132-18.763l66.482 25.497c17.277 6.626 28.886 23.511 28.886 42.016v11.521h-75zm-112.5-344.854c11.003 12.474 27.099 20.354 45 20.354h67.5v45c0 45.491-37.01 82.5-82.5 82.5-45.491 0-82.5-37.009-82.5-82.5v-45h7.5c17.901 0 33.997-7.881 45-20.354zm172.5 35.354c0 7.502-.596 15.067-1.771 22.485l-1.03 6.503 4.091 5.16c8.969 11.316 13.71 24.929 13.71 39.367 0 17.858-7.575 34.824-20.58 46.773l-49.859-19.122c15.89-19.403 25.438-44.19 25.438-71.168v-75h-97.499c-16.542 0-30-13.458-30-30v-66.709c4.931-.518 9.934-.789 15-.789 78.575 0 142.5 63.925 142.5 142.5zm-286.29 34.149 4.091-5.161-1.031-6.504c-1.174-7.414-1.77-14.979-1.77-22.484 0-62.856 40.91-116.331 97.5-135.214v60.214c0 16.542-13.458 30-30 30h-37.5v75c0 26.978 9.548 51.765 25.438 71.168l-49.858 19.122c-13.005-11.95-20.58-28.916-20.58-46.773 0-14.439 4.741-28.052 13.71-39.368zm-13.71 198.622h45v37.636l103.88-43.029c5.553-2.3 11.668-2.3 17.221 0s9.877 6.625 12.177 12.177c4.748 11.462-.715 24.65-12.177 29.397l-97.888 40.548h-68.213zm270 76.729v-76.729h45v76.729z"/><path d="m203.5 180h30v30h-30z"/><path d="m278.5 180h30v30h-30z"/></g></svg>