<svg id="Capa_1" enable-background="new 0 0 510 510" height="512" viewBox="0 0 510 510" width="512" xmlns="http://www.w3.org/2000/svg"><g><path d="m429.271 105-45-90h-168.541l-45 90h-35.73v-15c0-24.813-20.187-45-45-45s-45 20.187-45 45v15h-45v390h510v-390zm-195.001-60h131.459l30 60h-191.459zm-159.27 45c0-8.271 6.729-15 15-15s15 6.729 15 15v15h-30zm405 45v150h-45.838c-7.486-67.405-64.793-120-134.162-120s-126.676 52.595-134.162 120h-135.838v-150zm-75 165c0 57.897-47.103 105-105 105s-105-47.103-105-105 47.103-105 105-105 105 47.103 105 105zm-375 165v-150h135.838c7.486 67.405 64.793 120 134.162 120s126.676-52.595 134.162-120h45.838v150z"/><path d="m300 225c-41.355 0-75 33.645-75 75s33.645 75 75 75 75-33.645 75-75-33.645-75-75-75zm0 120c-24.814 0-45-20.187-45-45s20.186-45 45-45 45 20.187 45 45-20.186 45-45 45z"/><path d="m60 165h60v30h-60z"/></g></svg>