<svg id="Layer_1" enable-background="new 0 0 510.002 510.002" height="512" viewBox="0 0 510.002 510.002" width="512" xmlns="http://www.w3.org/2000/svg"><g><path d="m320.409.002h-130.818c-117.119-.576-174.176 146.601-87.568 225.12l120.875 110.803c-91.919 36.512-68.092 172.301 32.103 174.077 100.208-1.784 124.007-137.583 32.1-174.077l120.875-110.803c86.639-78.55 29.499-225.712-87.567-225.12zm-5.409 420c0 33.084-26.916 60-60 60-79.489-3.017-79.467-116.995.001-120 33.083 0 59.999 26.916 59.999 60zm72.705-216.995-132.705 121.646-132.705-121.646c-66.582-60.366-22.67-173.46 67.296-173.005h130.818c90.006-.443 133.854 112.663 67.296 173.005z"/><path d="m240 390.002h30v60h-30z"/></g></svg>