<svg id="Capa_1" enable-background="new 0 0 510 510" height="512" viewBox="0 0 510 510" width="512" xmlns="http://www.w3.org/2000/svg"><g><path d="m450.491 92.008c-18.476-55.043-69.854-92.008-127.937-92.008h-4.559c-98.31 0-166.753 97.967-132.68 190.307.778 2.676 3.645 8.943 6.65 19.693h-71.97v-105h-90v405h90v-210h71.695c-1.693 6.289-3.721 12.604-6.098 18.945-34.617 92.313 33.543 191.055 132.403 191.055h4.558c58.083 0 109.461-36.965 127.939-92.008 39.349-105.124 39.35-220.867-.001-325.984zm-390.495 297.992h30v30h-30zm0 90v-30h30v30zm30-210v90h-30v-225h30v105h107.411c.844 9.899.768 19.905-.207 30zm332.311 137.713-.186.523c-14.308 42.924-54.322 71.764-99.568 71.764h-4.558c-37.074 0-70.449-17.477-91.566-47.949-21.117-30.473-25.763-67.858-12.745-102.572 8.189-21.841 12.877-43.488 14.063-64.83l30.911-7.728 23.643 70.929-27.222 54.442 26.833 13.416 25.855-51.708h25.574l26.228 65.571 27.855-11.143-26.326-65.816 38.006-38.006-21.213-21.213-40.608 40.607h-27.976l-24.001-72.002 50.399-62.998h52.791v-30h-45v-60h-30v69.738l-53.551 66.938-32.943 8.236c-3.033-28.967-11.802-48.605-13.318-53.391-13.018-34.715-8.372-72.1 12.745-102.572s54.492-47.949 91.566-47.949h4.559c45.245 0 85.259 28.84 99.567 71.765l.186.523c36.927 98.475 36.927 206.944 0 305.425z"/><path d="m373.496 209h30v30h-30z"/></g></svg>