<svg id="Capa_1" enable-background="new 0 0 511.979 511.979" height="512" viewBox="0 0 511.979 511.979" width="512" xmlns="http://www.w3.org/2000/svg"><g><path d="m446.078 65.901c-42.497-42.497-98.999-65.901-159.099-65.901s-116.602 23.404-159.099 65.901-65.901 99-65.901 159.099c0 44.809 13.017 87.614 37.25 124.11l-86.07 86.07c-17.545 17.545-17.545 46.094 0 63.64 17.546 17.546 46.094 17.545 63.64 0l86.07-86.07c36.496 24.233 79.301 37.25 124.11 37.25 60.1 0 116.603-23.404 159.099-65.901 42.497-42.497 65.901-98.999 65.901-159.099s-23.404-116.602-65.901-159.099zm-390.492 411.706c-5.849 5.849-15.364 5.849-21.213 0s-5.849-15.365 0-21.213l40.475-40.475 21.213 21.213zm61.688-61.688-21.214-21.213 21.569-21.569c3.286 3.745 6.695 7.407 10.25 10.963 3.555 3.555 7.217 6.965 10.963 10.25zm307.591-53.033c-76.031 76.031-199.741 76.031-275.772 0s-76.031-199.741 0-275.772c76.031-76.031 199.741-76.031 275.772 0s76.031 199.741 0 275.772z"/><path d="m377.489 166.31c-10.517 10.517-22.714 10.884-40.149 8.328-2.556-17.434-2.188-29.632 8.329-40.148l-21.213-21.213c-17.574 17.574-19.658 37.867-17.913 56.687-18.82-1.745-39.113.339-56.687 17.913s-19.658 37.867-17.913 56.687c-18.82-1.745-39.113.339-56.687 17.913l21.213 21.213c10.517-10.517 22.714-10.884 40.148-8.329 2.556 17.435 2.188 29.632-8.328 40.148l21.213 21.213c17.574-17.574 19.658-37.867 17.913-56.687 18.82 1.745 39.113-.339 56.687-17.913s19.658-37.867 17.913-56.687c18.82 1.745 39.113-.339 56.687-17.913zm-66.271 34.452c1.568 10.695 2.029 19.418-.272 26.992l-26.72-26.72c7.574-2.301 16.296-1.84 26.992-.272zm-48.477 48.477c-1.568-10.695-2.029-19.417.272-26.992l26.72 26.72c-7.575 2.3-16.297 1.839-26.992.272z"/><path d="m403.652 108.328c-64.333-64.334-169.012-64.334-233.345 0-64.334 64.333-64.334 169.012 0 233.345s169.012 64.333 233.345 0c64.333-64.334 64.333-169.012 0-233.345zm-21.213 212.132c-52.637 52.637-138.282 52.637-190.919 0s-52.637-138.282 0-190.919 138.282-52.637 190.919 0 52.636 138.282 0 190.919z"/></g></svg>