<svg id="Capa_1" enable-background="new 0 0 512 512" height="512" viewBox="0 0 512 512" width="512" xmlns="http://www.w3.org/2000/svg"><g><path d="m465.744 317.345c11.657-39.853 11.644-82.612-.038-122.658 19.374-16.02 24.977-44.205 11.997-66.687-12.97-22.467-40.152-31.709-63.704-22.97-28.684-30.022-65.722-51.391-106.244-61.297-4.188-24.788-25.795-43.733-51.755-43.733-25.944 0-47.539 18.92-51.745 43.684-40.34 9.83-77.362 31.219-106.202 61.356-10.15-3.797-21.199-4.363-31.877-1.502-13.546 3.63-24.867 12.317-31.878 24.462-12.972 22.468-7.384 50.63 11.959 66.655-11.657 39.852-11.644 82.611.038 122.658-19.374 16.02-24.978 44.204-11.998 66.687 7.012 12.145 18.333 20.832 31.878 24.461 4.523 1.212 9.113 1.812 13.673 1.812 6.187 0 12.313-1.131 18.148-3.306 28.685 30.024 65.725 51.394 106.249 61.301 4.188 24.787 25.794 43.732 51.755 43.732 25.943 0 47.539-18.92 51.745-43.685 40.337-9.829 77.358-31.216 106.196-61.351 5.932 2.209 12.095 3.276 18.206 3.275 18.157-.001 35.842-9.417 45.555-26.24 12.972-22.466 7.385-50.628-11.958-66.654zm-14.022-174.345c6.203 10.744 2.509 24.532-8.235 30.736-10.742 6.203-24.532 2.51-30.736-8.235-6.202-10.745-2.508-24.533 8.236-30.736 3.534-2.041 7.396-3.01 11.212-3.01 7.781-.001 15.36 4.036 19.523 11.245zm-195.722-113c12.406 0 22.5 10.093 22.5 22.5s-10.094 22.5-22.5 22.5c-12.407 0-22.5-10.093-22.5-22.5s10.093-22.5 22.5-22.5zm-195.721 113c3.004-5.205 7.856-8.928 13.662-10.483 1.938-.52 3.905-.776 5.86-.776 3.898 0 7.747 1.022 11.213 3.024 10.745 6.204 14.439 19.992 8.236 30.736-6.204 10.744-19.992 14.437-30.736 8.236-10.744-6.205-14.439-19.992-8.235-30.737zm13.662 236.483c-5.805-1.556-10.657-5.278-13.662-10.483-6.203-10.745-2.509-24.532 8.235-30.736 10.746-6.204 24.533-2.508 30.736 8.235 6.203 10.744 2.509 24.532-8.236 30.735-5.204 3.007-11.268 3.805-17.073 2.249zm182.059 102.517c-12.407 0-22.5-10.093-22.5-22.5s10.093-22.5 22.5-22.5c12.406 0 22.5 10.093 22.5 22.5s-10.094 22.5-22.5 22.5zm48.019-43.686c-8.16-18.423-26.607-31.314-48.019-31.314-21.395 0-39.83 12.871-48 31.271-32.523-8.586-62.288-25.75-85.86-49.508 3.784-5.174 6.626-11.048 8.335-17.425 3.629-13.545 1.767-27.693-5.245-39.838-10.698-18.528-31.061-28.056-51.081-25.932-8.828-32.466-8.845-66.833-.05-99.131 1.858.199 3.72.303 5.576.303 18.157 0 35.842-9.417 45.555-26.24 7.012-12.145 8.875-26.292 5.245-39.838-1.705-6.361-4.537-12.222-8.307-17.386 23.701-23.869 53.45-41.061 85.812-49.59 8.161 18.423 26.608 31.314 48.02 31.314 21.395 0 39.829-12.871 48-31.271 32.533 8.589 62.306 25.76 85.88 49.528-11.874 16.278-13.815 38.699-3.11 57.243 9.713 16.824 27.396 26.239 45.555 26.239 1.841 0 3.686-.103 5.529-.298 8.827 32.466 8.842 66.833.045 99.131-20.035-2.144-40.423 7.384-51.129 25.928-10.697 18.529-8.767 40.929 3.082 57.204-23.704 23.88-53.461 41.079-85.833 49.61zm147.703-69.314c-6.203 10.745-19.99 14.438-30.735 8.236-10.744-6.203-14.438-19.991-8.236-30.736 4.163-7.21 11.741-11.246 19.524-11.246 3.814 0 7.678.97 11.212 3.01 10.744 6.204 14.438 19.992 8.235 30.736z"/><path d="m150.067 194.84v122.32l105.933 61.16 105.933-61.16v-122.32l-105.933-61.16zm166.866 8.66-60.933 35.18-60.933-35.18 60.933-35.18zm-136.866 25.981 60.933 35.179v70.359l-60.933-35.18zm90.933 105.538v-70.359l60.933-35.179v70.359z"/></g></svg>