<svg id="Capa_1" enable-background="new 0 0 512 512" height="512" viewBox="0 0 512 512" width="512" xmlns="http://www.w3.org/2000/svg"><g><path d="m453.868 97.828-97.829-97.828-51.616 51.616h-201.297c-24.809 0-44.993 20.184-44.993 44.993v415.391h344.067v-362.505zm-66.663 24.243-16.734-16.757 24.231-24.231 16.745 16.745zm-13.713-62.198-24.208 24.208-17.441-17.465 24.196-24.195zm-285.364 36.736c0-8.27 6.728-14.998 14.998-14.998h75.765l-90.763 91.554zm284.077 385.395h-284.077v-266.233l133-134.159h83.295l67.782 67.883z"/><path d="m273.748 250.472-41.582 41.582-41.581-41.582-21.21 21.21 41.582 41.582-41.582 41.581 21.21 21.21 41.581-41.582 41.582 41.582 21.21-21.21-41.582-41.581 41.582-41.582z"/></g></svg>