<svg id="Capa_1" enable-background="new 0 0 510 510" height="512" viewBox="0 0 510 510" width="512" xmlns="http://www.w3.org/2000/svg"><g><path d="m0 113.787v396.213h390v-510h-276.213zm105-62.574v53.787h-53.787zm255 428.787h-330v-345h105v-105h225z"/><path d="m465 78.681-45 115.5v270.819c0 24.813 20.186 45 45 45 24.813 0 45-20.187 45-45v-270.819zm-15 150.396c9.703 2.091 19.982 2.158 30 0v190.923h-30zm29.326-30.986c-9.207 3.436-19.428 3.443-28.652 0l14.326-36.772zm-14.326 281.909c-8.272 0-15-6.729-15-15v-15h30v15c0 8.271-6.729 15-15 15z"/><path d="m165 60h165v30h-165z"/><path d="m165 120h165v30h-165z"/><path d="m60 420h270v30h-270z"/><path d="m150 300h-90v90h90zm-30 60h-30v-30h30z"/><path d="m195 300h135v30h-135z"/><path d="m195 360h75v30h-75z"/><path d="m300 360h30v30h-30z"/><path d="m300 180h30v30h-30z"/><path d="m195 180h75v30h-75z"/><path d="m195 240h135v30h-135z"/><path d="m101 227.787-19.394-19.393-21.212 21.212 40.606 40.607 63.981-63.982-21.212-21.212z"/></g></svg>