<svg id="Capa_1" enable-background="new 0 0 512 512" height="512" viewBox="0 0 512 512" width="512" xmlns="http://www.w3.org/2000/svg"><g><path d="m512 271.993v-30h-512v30h30v62.58c-17.459 6.192-30 22.865-30 42.42s12.541 36.228 30 42.42v62.58h-30v30h512v-30h-30v-62.58c17.459-6.192 30-22.865 30-42.42s-12.541-36.228-30-42.42v-62.58zm-185.667 120c-8.271 0-15-6.729-15-15s6.729-15 15-15 15 6.729 15 15-6.729 15-15 15zm-15-57.42c-17.459 6.192-30 22.865-30 42.42s12.541 36.228 30 42.42v62.58h-110.666v-62.58c17.459-6.192 30-22.865 30-42.42s-12.541-36.228-30-42.42v-62.58h110.667v62.58zm-125.666 27.42c8.271 0 15 6.729 15 15s-6.729 15-15 15-15-6.729-15-15 6.729-15 15-15zm-140.667 0c8.271 0 15 6.729 15 15s-6.729 15-15 15-15-6.729-15-15 6.729-15 15-15zm15 57.419c17.459-6.192 30-22.865 30-42.42s-12.541-36.228-30-42.42v-62.58h110.667v62.58c-17.459 6.192-30 22.865-30 42.42s12.541 36.228 30 42.42v62.58h-110.667zm407-27.419c-8.271 0-15-6.729-15-15s6.729-15 15-15 15 6.729 15 15-6.729 15-15 15zm-15-57.42c-17.459 6.192-30 22.865-30 42.42s12.541 36.228 30 42.42v62.58h-110.667v-62.58c17.459-6.192 30-22.865 30-42.42s-12.541-36.228-30-42.42v-62.58h110.667z"/><path d="m45.241 183.074 11.185 27.837 199.574-80.197 199.574 80.197 11.186-27.837-170.531-68.526 215.764-86.704-11.185-27.837-244.808 98.375-244.807-98.375-11.186 27.837 215.764 86.704z"/></g></svg>