<svg id="Capa_1" enable-background="new 0 0 509.052 509.052" height="512" viewBox="0 0 509.052 509.052" width="512" xmlns="http://www.w3.org/2000/svg"><path id="XMLID_580_" d="m490.292 14.93h-426.853v-14.93h-30v59.861h30v-14.931h106.149v226.887l-110.267 70.56-.257.168c-35.87 24.005-49.936 70.378-33.447 110.265 9.667 23.382 28.013 41.217 51.659 50.22 10.563 4.021 21.506 6.022 32.415 6.022 13.512 0 26.971-3.072 39.578-9.181l228.438-111.028v-343.913h112.584v-30zm-231.331 62.141v-32.141h29.373v32.141zm-59.373-32.141h29.373v32.141h-29.373zm-111.638 430.063c-15.842-6.031-28.132-17.979-34.608-33.645-11.029-26.677-1.657-57.685 22.287-73.789l2.688-1.72c7.628 12.764 19.623 32.78 31.641 52.599 11.66 19.229 21.062 34.517 27.944 45.439 1.424 2.261 2.741 4.333 3.961 6.237l-5.693 2.767c-15.254 7.393-32.379 8.142-48.22 2.112zm213.049-82.223c-.929-4.334-1.415-8.778-1.415-13.314 0-29.637 20.537-54.556 48.123-61.307v51.92zm46.708-105.223c-44.241 7.195-78.123 45.667-78.123 91.909 0 9.168 1.306 18.099 3.881 26.696l-104.445 50.764c-12.177-18.816-39.444-63.714-65.428-107.251l95.997-61.429v-114.457h148.119v113.768zm-148.119-143.768v-36.708h148.119v36.708zm148.119-66.708h-29.373v-32.141h29.373z"/></svg>