<svg id="Capa_1" enable-background="new 0 0 512 512" height="512" viewBox="0 0 512 512" width="512" xmlns="http://www.w3.org/2000/svg"><g><path d="m331.804 220.75c25.967 0 47.092-21.125 47.092-47.092-3.744-37.935-32.487-58.95-47.092-74.307-16.486 16.273-44.387 39.787-47.091 74.307 0 25.967 21.125 47.092 47.091 47.092zm0-78.586c8.782 10.598 17.092 23.505 17.092 31.495 0 9.424-7.667 17.092-17.092 17.092-9.424 0-17.091-7.667-17.091-17.092 0-7.992 8.31-20.9 17.091-31.495z"/><path d="m256 121.399c25.967 0 47.092-21.125 47.092-47.092-3.744-37.935-32.488-58.95-47.092-74.307-16.486 16.273-44.387 39.787-47.091 74.307 0 25.966 21.125 47.092 47.091 47.092zm0-78.587c8.782 10.598 17.092 23.505 17.092 31.495 0 9.424-7.667 17.092-17.092 17.092-9.424 0-17.091-7.667-17.091-17.092 0-7.991 8.31-20.899 17.091-31.495z"/><path d="m492.719 421.75-25.822-180.75h-421.794l-25.821 180.75h-19.282v90.25h512v-90.25zm-421.597-150.75h369.756l21.536 150.75h-412.828zm410.878 211h-452v-30.25h452z"/><path d="m150.625 391.5h210.75v-90.25h-210.75zm30-60.25h150.75v30.25h-150.75z"/><path d="m180.195 220.75c25.967 0 47.092-21.125 47.092-47.092-3.744-37.935-32.487-58.95-47.092-74.307-16.486 16.273-44.387 39.787-47.091 74.307 0 25.967 21.125 47.092 47.091 47.092zm0-78.586c8.782 10.598 17.092 23.505 17.092 31.495 0 9.424-7.667 17.092-17.092 17.092-9.424 0-17.091-7.667-17.091-17.092 0-7.992 8.311-20.9 17.091-31.495z"/></g></svg>