<svg height="512pt" viewBox="0 0 512 512" width="512pt" xmlns="http://www.w3.org/2000/svg"><path d="m0 512h512v-512h-512zm482-482v452h-452v-91h30v61h392v-392h-392v61h-30v-91zm-392 91v-31h332v121c-33.085938 0-60 26.914062-60 60s26.914062 60 60 60v91h-332v-31h30v-30h-30v-210h30v-30zm332 180c-16.542969 0-30-13.457031-30-30s13.457031-30 30-30zm-362 60h-30v-210h30zm0 0"/><path d="m331 121h-150v90h150zm-30 60h-90v-30h90zm0 0"/><path d="m181 241h30v30h-30zm0 0"/><path d="m241 241h30v30h-30zm0 0"/><path d="m301 241h30v30h-30zm0 0"/><path d="m181 301h30v30h-30zm0 0"/><path d="m241 301h30v30h-30zm0 0"/><path d="m301 301h30v30h-30zm0 0"/><path d="m181 361h30v30h-30zm0 0"/><path d="m241 361h30v30h-30zm0 0"/><path d="m301 361h30v30h-30zm0 0"/></svg>