<svg id="Capa_1" enable-background="new 0 0 510 510" height="512" viewBox="0 0 510 510" width="512" xmlns="http://www.w3.org/2000/svg"><g><path d="m510 323.787-53.787-53.787h-81.213v-30h30v-30h-30v-60h-105v-60h90v-90h-120v150h-105v60h-30v30h30v30h-81.213l-53.787 53.787v51.213h30v135h450v-135h30zm-240-293.787h60v30h-60c0-10.492 0-19.508 0-30zm-105 150h180v30h-180zm-135 156.213 36.213-36.213h68.787v45h-105zm105 38.787v45h-75v-45zm-75 105v-30h75v30zm165 0v-60c0-16.542 13.458-30 30-30s30 13.458 30 30v60zm120 0h-30v-60c0-33.084-26.916-60-60-60s-60 26.916-60 60v60h-30c0-12.217 0-230.36 0-240h180zm30 0v-30h75v30zm75-60h-75v-45h75zm30-75h-105v-45h68.787l36.213 36.213z"/><path d="m210 270h30v30h-30z"/><path d="m270 270h30v30h-30z"/></g></svg>