<svg id="Capa_1" enable-background="new 0 0 512 512" height="512" viewBox="0 0 512 512" width="512" xmlns="http://www.w3.org/2000/svg"><g><path d="m316 90v-90h-120v90h-135v422h390v-422zm-135 90h150c16.542 0 30 13.458 30 30v182c0 16.542-13.458 30-30 30h-150c-16.542 0-30-13.458-30-30v-182c0-16.542 13.458-30 30-30zm135-30h-120v-30h120zm-90-120h60v60h-60zm195 452h-330v-362h75v31.899c-25.849 6.677-45 30.195-45 58.101v182c0 33.084 26.916 60 60 60h150c33.084 0 60-26.916 60-60v-182c0-27.906-19.151-51.424-45-58.101v-31.899h75z"/></g></svg>