<?xml version="1.0" encoding="iso-8859-1"?>
<!-- Generator: Adobe Illustrator 19.0.0, SVG Export Plug-In . SVG Version: 6.00 Build 0)  -->
<svg version="1.1" id="Layer_1" xmlns="http://www.w3.org/2000/svg" xmlns:xlink="http://www.w3.org/1999/xlink" x="0px" y="0px"
	 viewBox="0 0 512 512" style="enable-background:new 0 0 512 512;" xml:space="preserve">
<g>
	<g>
		<g>
			<path d="M425.729,83.027c-6.933-21.803-24.849-41.28-52.158-56.175C341.826,9.537,300.072,0,256,0s-85.826,9.537-117.573,26.852
				c-27.308,14.895-45.223,34.372-52.158,56.175H41.513v318.27h41.514V512h345.946V401.297h41.514V83.027H425.729z M256,41.513
				c59.35,0,104.917,19.261,122.988,41.514H133.012C151.083,60.774,196.65,41.513,256,41.513z M387.459,470.487H124.541v-69.189
				h262.919V470.487z M428.973,359.784H83.027V124.541h345.946V359.784z"/>
			<rect x="235.243" y="172.973" width="41.514" height="138.378"/>
			<rect x="138.378" y="172.973" width="41.514" height="138.378"/>
			<rect x="332.108" y="172.973" width="41.514" height="138.378"/>
		</g>
	</g>
</g>
<g>
</g>
<g>
</g>
<g>
</g>
<g>
</g>
<g>
</g>
<g>
</g>
<g>
</g>
<g>
</g>
<g>
</g>
<g>
</g>
<g>
</g>
<g>
</g>
<g>
</g>
<g>
</g>
<g>
</g>
</svg>
