<svg id="Capa_1" enable-background="new 0 0 511.905 511.905" height="512" viewBox="0 0 511.905 511.905" width="512" xmlns="http://www.w3.org/2000/svg"><g><path d="m472.431 72.597c-52.687-52.687-140.078-52.879-192.957 0l-24.55 24.55-24.55-24.55c-52.631-52.631-138.27-52.631-190.9 0-52.632 52.632-52.632 138.269 0 190.901l215.397 215.397 217.56-215.397c52.632-52.632 52.632-138.27 0-190.901zm-21.16 169.635-196.294 194.342-194.29-194.29c-40.935-40.934-40.935-107.54 0-148.474 40.934-40.933 107.538-40.936 148.475 0l30.763 30.763v40.894l-74.34 74.34 120 30-45.66 45.66v51.213h30v-38.787l74.34-74.34-120-30 45.66-45.66v-53.32l30.763-30.763c40.892-40.892 109.315-41.216 150.531 0 40.934 40.935 40.934 107.54.052 148.422z"/></g></svg>