<svg id="Capa_1" enable-background="new 0 0 498.27 498.27" height="512" viewBox="0 0 498.27 498.27" width="512" xmlns="http://www.w3.org/2000/svg"><g><path d="m417.814 498.27 63.639-63.64-115.54-115.54c36.449-77.265-15.817-172.511-102.066-181.585 19.827-42.881 28.777-90.34 27.533-137.505h-30c.101 13.325-.039 27.441-1.582 40.638h-211.188c-1.551-13.202-1.707-27.323-1.602-40.638h-30c-3.277 90.756 35.817 181.729 105.193 240.608-.873 4.473-1.502 8.984-1.899 13.512-68.22 58.911-106.522 149.084-103.294 238.986h30c-.103-13.329.045-27.416 1.596-40.638h211.214c1.522 13.137 1.66 27.334 1.561 40.638h30c.767-34.558-3.369-69.115-13.882-102.01 8.464-1.929 16.77-4.716 24.776-8.367zm21.213-63.64-21.213 21.213-89.214-89.213c7.76-6.114 15.1-13.453 21.213-21.213zm-120.413-99.199c-96.641 88.955-228.849-43.296-139.903-139.904 19.285-19.285 44.618-28.928 69.951-28.928 86.892-.583 132.225 106.842 69.952 168.832zm-63.773-264.793c-3.875 17.396-9.444 34.413-16.63 50.73h-168.02c-7.176-16.292-12.745-33.321-16.622-50.73zm-169.117 80.73h102.909c-23.732 12.19-44.853 34.114-56.129 58.174-18.131-17.123-33.937-36.784-46.78-58.174zm37.07 141.856c3.76 17.19 11.06 33.754 21.901 48.515h-58.952c10.493-17.47 22.959-33.795 37.051-48.515zm-69.235 129.244c3.876-17.413 9.437-34.451 16.609-50.73h105.47c21.429 14.74 46.355 22.267 71.361 22.587 3.137 9.261 5.764 18.651 7.878 28.143z"/></g></svg>