<svg id="Capa_1" enable-background="new 0 0 510 510" height="512" viewBox="0 0 510 510" width="512" xmlns="http://www.w3.org/2000/svg"><g><path d="m405 255h30v30h-30z"/><path d="m510 270c0-49.626-40.374-90-90-90s-90 40.374-90 90c0 44.516 32.489 81.58 75 88.743v98.757c0 12.407-10.094 22.5-22.5 22.5h-15c-12.406 0-22.5-10.093-22.5-22.5v-30c0-28.949-23.552-52.5-52.5-52.5s-52.5 23.551-52.5 52.5v30c0 12.407-10.094 22.5-22.5 22.5h-15c-12.406 0-22.5-10.093-22.5-22.5v-85.08c17.459-6.192 30-22.865 30-42.42v-22.92c26.955-9.675 51.912-28.014 72.755-53.929 30.024-37.332 47.245-85.863 47.245-133.151v-30c0-33.084-26.916-60-60-60v-30h-45c-24.814 0-45 20.187-45 45s20.186 45 45 45h45v-30c16.542 0 30 13.458 30 30v30c0 86.355-64.346 165-135 165s-135-78.645-135-165v-30c0-16.542 13.458-30 30-30v30h45c24.813 0 45-20.187 45-45s-20.187-45-45-45h-45v30c-33.084 0-60 26.916-60 60v30c0 80.265 49.883 161.913 120 187.08v22.92c0 19.555 12.541 36.228 30 42.42v85.08c0 28.949 23.552 52.5 52.5 52.5h15c28.948 0 52.5-23.551 52.5-52.5v-30c0-12.407 10.094-22.5 22.5-22.5s22.5 10.093 22.5 22.5v30c0 28.949 23.552 52.5 52.5 52.5h15c28.948 0 52.5-23.551 52.5-52.5v-98.757c42.511-7.163 75-44.227 75-88.743zm-270-210h-15c-8.272 0-15-6.729-15-15s6.728-15 15-15h15zm-150-30h15c8.271 0 15 6.729 15 15s-6.729 15-15 15h-15zm90 284.125v15.875c0 8.271-6.729 15-15 15-8.272 0-15-6.729-15-15v-15.875c10.119 1.165 19.873 1.167 30 0zm240 15.875c-33.084 0-60-26.916-60-60s26.916-60 60-60 60 26.916 60 60-26.916 60-60 60z"/></g></svg>