<svg id="Capa_1" enable-background="new 0 0 512 512" height="512" viewBox="0 0 512 512" width="512" xmlns="http://www.w3.org/2000/svg"><g><path d="m452 196c-27.906 0-51.424 19.151-58.101 45h-32.965c-2.566-18.037-9.684-34.628-20.159-48.562l45.035-45.035c5.875 2.817 12.45 4.398 19.389 4.398 24.813 0 45-20.187 45-45s-20.187-45-45-45-45 20.187-45 45c0 6.939 1.581 13.515 4.398 19.39l-45.035 45.035c-13.935-10.474-30.525-17.592-48.562-20.159v-32.965c25.849-6.677 45-30.195 45-58.101 0-33.084-26.916-60-60-60s-60 26.916-60 60c0 27.906 19.151 51.424 45 58.101v32.965c-18.037 2.566-34.628 9.684-48.562 20.159l-45.035-45.035c2.817-5.875 4.398-12.451 4.398-19.389 0-24.813-20.187-45-45-45s-45 20.187-45 45 20.187 45 45 45c6.939 0 13.514-1.581 19.389-4.398l45.035 45.035c-10.474 13.935-17.592 30.525-20.159 48.562h-32.965c-6.678-25.849-30.195-45-58.101-45-33.084 0-60 26.916-60 60s26.916 60 60 60c27.906 0 51.424-19.151 58.101-45h32.965c2.566 18.037 9.684 34.628 20.159 48.562l-45.035 45.035c-5.875-2.817-12.451-4.398-19.389-4.398-24.813 0-45 20.187-45 45s20.187 45 45 45 45-20.187 45-45c0-6.939-1.581-13.514-4.398-19.389l45.035-45.035c13.935 10.474 30.525 17.592 48.562 20.159v32.965c-25.849 6.677-45 30.195-45 58.101 0 33.084 26.916 60 60 60s60-26.916 60-60c0-27.906-19.151-51.424-45-58.101v-32.965c18.037-2.566 34.628-9.684 48.562-20.159l45.035 45.035c-2.817 5.875-4.398 12.451-4.398 19.39 0 24.813 20.187 45 45 45s45-20.187 45-45-20.187-45-45-45c-6.939 0-13.514 1.581-19.389 4.398l-45.035-45.035c10.474-13.935 17.592-30.525 20.159-48.562h32.965c6.677 25.849 30.195 45 58.101 45 33.084 0 60-26.916 60-60s-26.916-60.002-60-60.002zm-392 90c-16.542 0-30-13.458-30-30s13.458-30 30-30 30 13.458 30 30-13.458 30-30 30zm345.199-194.2c8.271 0 15 6.729 15 15s-6.729 15-15 15-15-6.729-15-15 6.729-15 15-15zm-179.199-31.8c0-16.542 13.458-30 30-30s30 13.458 30 30-13.458 30-30 30-30-13.458-30-30zm-119.2 61.8c-8.271 0-15-6.729-15-15s6.729-15 15-15 15 6.729 15 15-6.729 15-15 15zm0 298.4c-8.271 0-15-6.729-15-15s6.729-15 15-15 15 6.729 15 15-6.729 15-15 15zm179.2 31.8c0 16.542-13.458 30-30 30s-30-13.458-30-30 13.458-30 30-30 30 13.458 30 30zm-30-120c-41.907 0-76-34.093-76-76s34.093-76 76-76c41.906 0 76 34.093 76 76s-34.094 76-76 76zm149.199 58.2c8.271 0 15 6.729 15 15s-6.729 15-15 15-15-6.729-15-15 6.729-15 15-15zm46.801-104.2c-16.542 0-30-13.458-30-30s13.458-30 30-30 30 13.458 30 30-13.458 30-30 30z"/></g></svg>