<svg id="Capa_1" enable-background="new 0 0 512 512" height="512" viewBox="0 0 512 512" width="512" xmlns="http://www.w3.org/2000/svg"><g><path d="m136 180h240c41.355 0 75-33.645 75-75v-15h-40.627l-130.214-82.969c-7.219-4.6-15.572-7.031-24.159-7.031s-16.94 2.431-24.159 7.031l-130.214 82.969h-40.627v15c0 41.355 33.645 75 75 75zm111.962-147.669c2.393-1.525 5.173-2.331 8.038-2.331s5.645.806 8.038 2.331l90.507 57.669h-197.09zm170.468 87.669c-6.19 17.461-22.873 30-42.43 30h-240c-19.557 0-36.239-12.539-42.43-30z"/><path d="m165 302c-24.813 0-45 20.187-45 45v23.787l-30-30v-83.787c0-24.813-20.187-45-45-45h-45v171.213l90 90v38.787h120v-165c0-24.813-20.187-45-45-45zm15 180h-60v-21.213l-90-90v-128.787h15c8.271 0 15 6.729 15 15v96.213l90 90v-96.213c0-8.271 6.729-15 15-15s15 6.729 15 15z"/><path d="m467 212c-24.813 0-45 20.187-45 45v83.787l-30 30v-23.787c0-24.813-20.187-45-45-45s-45 20.187-45 45v165h120v-38.787l90-90v-171.213zm15 158.787-90 90v21.213h-60v-135c0-8.271 6.729-15 15-15s15 6.729 15 15v96.213l90-90v-96.213c0-8.271 6.729-15 15-15h15z"/><path d="m307.213 286-30-30 30-30-21.213-21.213-30 30-30-30-21.213 21.213 30 30-30 30 21.213 21.213 30-30 30 30z"/></g></svg>