<svg id="Capa_1" enable-background="new 0 0 512 512" height="512" viewBox="0 0 512 512" width="512" xmlns="http://www.w3.org/2000/svg"><path d="m347.569 286.668c11.202-17.326 17.303-37.664 17.303-58.999v-4.411h29.883v-30h-29.883v-69.85h29.883v-30h-29.883v-93.408h-217.744v93.409h-29.883v30h29.883v69.85h-29.883v30h29.883v4.411c0 21.335 6.101 41.673 17.303 58.999h-71.613v225.331h326.363v-225.332zm-170.441-256.668h157.744v63.409h-157.744zm0 93.409h157.744v69.85h-157.744zm0 104.26v-4.411h157.744v4.411c0 22.802-9.614 44.034-26.537 58.999h-104.67c-16.923-14.965-26.537-36.197-26.537-58.999zm93.872 197.283v-34.925h59.706v91.973h-149.412v-91.973h59.706v34.925zm118.182 57.048h-28.476v-121.973h-209.412v121.973h-28.476v-165.332h266.363v165.332z"/></svg>