<svg id="Capa_1" enable-background="new 0 0 512.015 512.015" height="512" viewBox="0 0 512.015 512.015" width="512" xmlns="http://www.w3.org/2000/svg"><g><path d="m512.015 427.512-77.061-117.208c-21.942-33.375-58.888-53.299-98.829-53.299h-54.519l-17.521-88.083 67.65-52.055c15.351-11.812 21.769-31.459 16.352-50.055s-21.383-31.723-40.675-33.443l-87.09-7.766c-15.245-19.168-40.417-29.39-66.045-24.292-17.685 3.517-32.939 13.71-42.957 28.702-3.971 5.943-6.913 12.363-8.819 19.044l-77.435 40.476c-17.165 8.972-26.892 27.209-24.78 46.463 2.111 19.253 15.561 34.949 34.263 39.986l17.781 4.79 30.376 152.71v178.523h30v-105h118.42v105h30v-105h30v105h90v-119.75l55.688 84.699zm-375.75-380.83c5.565-8.329 14.04-13.991 23.865-15.945 2.459-.489 4.91-.725 7.328-.725 17.517 0 33.222 12.367 36.767 30.188 4.034 20.28-9.184 40.062-29.463 44.095-20.288 4.035-40.063-9.184-44.096-29.464-1.954-9.824.035-19.821 5.599-28.149zm-106.158 86.043c-.292-2.657-.515-11.708 8.855-16.605l62.854-32.853c7.349 30.683 34.928 51.756 65.608 51.756 4.35 0 8.765-.424 13.19-1.304 35.635-7.088 59.138-41.188 53.484-76.766l70.65 6.3c10.531.939 13.789 9.385 14.536 11.951.748 2.566 2.535 11.441-5.844 17.889l-82.412 63.414 19.99 100.5h-91.763l-16.498-82.941-100.406-27.051c-10.209-2.75-11.953-11.633-12.244-14.29zm86.861 65.462 17.594 88.451c2.249 11.306 7.014 21.6 13.623 30.368h-38.169l-25.367-127.526zm-4.262 178.819v-30h118.42v30zm148.419 0v-30h30v30zm60 105v-135h15c5.403 0 10.576 1.527 15 4.297v130.703zm15-165h-128.004c-19.22 0-36.142-12.291-42.416-30h170.421c29.811 0 57.385 14.871 73.761 39.78l60.58 92.141-25.067 16.48-60.579-92.14c-10.813-16.444-29.016-26.261-48.696-26.261z"/></g></svg>