<svg id="Capa_1" enable-background="new 0 0 512 512" height="512" viewBox="0 0 512 512" width="512" xmlns="http://www.w3.org/2000/svg"><g><path d="m90.038 0 29.233 469.807c1.479 23.66 21.207 42.193 44.913 42.193h183.633c23.706 0 43.434-18.533 44.912-42.197l29.233-469.803zm300 30-2.899 46.59c-13.168 8.506-20.873 15.41-41.139 15.41-17.958 0-26.22-5.508-36.68-12.481-11.708-7.805-26.278-17.519-53.32-17.519s-41.612 9.714-53.32 17.519c-10.46 6.973-18.722 12.481-36.68 12.481-19.848 0-27.321-6.484-41.139-15.41l-2.899-46.59zm-27.251 437.936c-.493 7.887-7.069 14.064-14.971 14.064h-183.632c-7.901 0-14.478-6.178-14.971-14.06l-22.072-354.703c9.571 4.852 21.703 8.763 38.859 8.763 27.042 0 41.612-9.714 53.32-17.519 10.46-6.973 18.722-12.481 36.68-12.481s26.22 5.508 36.68 12.481c11.708 7.805 26.278 17.519 53.32 17.519 17.156 0 29.288-3.911 38.859-8.763z"/><path d="m256 302c-41.355 0-75 33.645-75 75 0 41.452 33.545 75 75 75 41.355 0 75-33.645 75-75 0-41.452-33.545-75-75-75zm0 30c6.829 0 13.425 1.515 19.408 4.379l-60.029 60.029c-2.864-5.983-4.379-12.579-4.379-19.408 0-24.813 20.187-45 45-45zm0 90c-6.829 0-13.424-1.515-19.407-4.379l60.029-60.029c2.863 5.983 4.378 12.579 4.378 19.408 0 24.813-20.187 45-45 45z"/><path d="m211 242h30v30h-30z"/><path d="m271 212h30v30h-30z"/><path d="m241 152h30v30h-30z"/></g></svg>