<?xml version="1.0" encoding="iso-8859-1"?>
<!-- Generator: Adobe Illustrator 19.0.0, SVG Export Plug-In . SVG Version: 6.00 Build 0)  -->
<svg xmlns="http://www.w3.org/2000/svg" xmlns:xlink="http://www.w3.org/1999/xlink" version="1.1" id="Layer_1" x="0px" y="0px" viewBox="0 0 512 512" style="enable-background:new 0 0 512 512;" xml:space="preserve">
<g>
	<g>
		<path d="M22.345,0v512h467.31V0H22.345z M459.654,481.999H52.346V30.001h407.307V481.999z"/>
	</g>
</g>
<g>
	<g>
		<path d="M375.483,306.934h11.995v-30.001H271v-12.278h36.887v-27.098c31.318-18.319,51.08-52.243,51.08-88.945    c0-56.776-46.19-102.967-102.967-102.967c-56.777,0-102.968,46.19-102.968,102.966c0,36.702,19.761,70.626,51.08,88.945v27.098    H241v12.278H124.522v30.001h11.995l-12.189,97.006l29.767,3.741l12.658-100.747h74.246v12.279h-65.003v30.001h65.003v12.278    h-65.003v30.001h65.003v25.756H271v-25.756h65.003v-30.001H271v-12.278h65.003v-30.001H271v-12.279h74.246l12.658,100.747    l29.767-3.74L375.483,306.934z M234.113,234.653v-15.756l-8.701-4.025c-25.743-11.908-42.377-37.917-42.377-66.261    c0-40.233,32.732-72.965,72.965-72.965s72.965,32.732,72.965,72.965c0,28.344-16.634,54.353-42.377,66.261l-8.703,4.025v15.756    H234.113z"/>
	</g>
</g>
<g>
	<g>
		<rect x="76.999" y="435.96" width="31.719" height="30.001"/>
	</g>
</g>
<g>
	<g>
		<rect x="127.386" y="435.96" width="31.719" height="30.001"/>
	</g>
</g>
<g>
	<g>
		<rect x="177.778" y="435.96" width="31.719" height="30.001"/>
	</g>
</g>
<g>
	<g>
		<rect x="330.005" y="435.96" width="104.995" height="30.001"/>
	</g>
</g>
<g>
	<g>
		<rect x="204.629" y="140.146" width="32.671" height="30.001"/>
	</g>
</g>
<g>
	<g>
		<rect x="274.692" y="140.146" width="32.671" height="30.001"/>
	</g>
</g>
<g>
</g>
<g>
</g>
<g>
</g>
<g>
</g>
<g>
</g>
<g>
</g>
<g>
</g>
<g>
</g>
<g>
</g>
<g>
</g>
<g>
</g>
<g>
</g>
<g>
</g>
<g>
</g>
<g>
</g>
</svg>
