<svg id="Capa_1" enable-background="new 0 0 512.049 512.049" height="512" viewBox="0 0 512.049 512.049" width="512" xmlns="http://www.w3.org/2000/svg"><g><path d="m434.101 109.201c-53.694-41.921-98.427-63.177-132.956-63.177-15.875 0-31.241 4.231-45 12.32-13.759-8.089-29.124-12.32-45-12.32-36.606 0-76.863 20.261-104.188 37.258-57.466 35.747-83.386 68.095-106.957 97.536 49.444 64.099 104.205 109.229 151.145 134.865v45.341c0 57.897 47.104 105 105.001 105 57.896 0 104.999-47.103 104.999-105v-45.343c47.334-25.868 101.503-70.915 150.904-135.872-21.201-21.832-45.027-44.905-77.948-70.608zm-222.956-33.177c12.871 0 25.304 4.255 35.956 12.306l9.044 6.835 9.044-6.835c10.652-8.051 23.086-12.306 35.956-12.306 44.559 0 112.229 52.303 153.896 90h-99.681c-37.529 0-67.756 8.987-89.84 26.711-1.869 1.5-5.014 3.289-9.375 3.289-4.36 0-7.505-1.788-9.374-3.289-22.084-17.724-52.312-26.711-89.841-26.711h-105.262c36.125-38.564 109.606-90 159.477-90zm-159.58 120h99.58v84.939c-42.613-26.333-78.417-61.71-99.58-84.939zm204.581 240c-41.355 0-75.001-33.645-75.001-75v-163.37c19.201 2.729 34.912 8.898 46.849 18.478 7.948 6.379 17.945 9.892 28.151 9.892s20.204-3.513 28.152-9.892c11.936-9.58 27.647-15.749 46.848-18.478v163.37c0 41.356-33.645 75-74.999 75zm104.999-155.072v-84.928h98.932c-20.917 23.207-56.406 58.591-98.932 84.928z"/><path d="m211.145 316.024h30.001v30h-30.001z" transform="matrix(.707 -.707 .707 .707 -167.832 256.859)"/><path d="m271.145 256.024h30.001v30h-30.001z" transform="matrix(.707 -.707 .707 .707 -107.833 281.712)"/><path d="m211.145 256.024h30.001v30h-30.001z" transform="matrix(.707 -.707 .707 .707 -125.407 239.286)"/><path d="m271.145 316.024h30.001v30h-30.001z" transform="matrix(.707 -.707 .707 .707 -150.259 299.285)"/><path d="m241.145 376.024h30.001v30h-30.001z" transform="matrix(.707 -.707 .707 .707 -201.472 295.645)"/></g></svg>