<svg id="Capa_1" enable-background="new 0 0 512 512" height="512" viewBox="0 0 512 512" width="512" xmlns="http://www.w3.org/2000/svg"><g id="XMLID_752_"><path id="XMLID_758_" d="m92.664 243.849-21.138-21.319-8.634 8.562c12.195-95.446 93.94-169.463 192.648-169.463v-30.022c-59.897 0-116.209 23.325-158.562 65.678-37.072 37.072-59.565 84.839-64.598 136.343l-11.33-11.141-21.05 21.406 46.503 45.729z"/><path id="XMLID_778_" d="m418.461 257.823 21.048 21.406 9.755-9.592c-7.097 100.682-91.268 180.431-193.724 180.431v30.022c59.897 0 116.209-23.325 158.562-65.679 39.311-39.311 62.215-90.649 65.306-145.715l10.578 10.49 21.138-21.318-46.16-45.773z"/><path id="XMLID_788_" d="m136.076 397.6 24.869-24.869c26.071 21.375 59.39 34.221 95.655 34.221 83.319 0 151.104-67.785 151.104-151.105 0-36.265-12.846-69.584-34.221-95.655l25.349-25.348 14.049 14.049c8.096 8.096 18.729 12.144 29.364 12.144s21.268-4.048 29.364-12.144l30.102-30.102c6.635-6.633 10.289-15.453 10.289-24.834 0-9.382-3.654-18.202-10.288-24.837-7.393-7.392-17.607-11.082-28.016-10.142l-17.797 1.618-3.262-3.263 1.617-17.798c.947-10.412-2.75-20.623-10.143-28.015-6.634-6.634-15.454-10.287-24.835-10.287-9.382 0-18.202 3.653-24.835 10.287l-30.102 30.101c-16.191 16.191-16.191 42.537 0 58.728l13.266 13.266-25.349 25.348c-26.071-21.375-59.39-34.221-95.655-34.221-83.319 0-151.104 67.785-151.104 151.104 0 36.265 12.846 69.585 34.221 95.656l-24.869 24.869-13.266-13.266c-16.19-16.19-42.536-16.191-58.728 0l-30.101 30.102c-6.634 6.634-10.287 15.454-10.287 24.835 0 9.382 3.653 18.202 10.287 24.836 7.392 7.392 17.601 11.085 28.015 10.143l17.798-1.618 3.263 3.263-1.618 17.798c-.946 10.412 2.751 20.624 10.143 28.015 6.634 6.634 15.454 10.287 24.836 10.287 9.381 0 18.202-3.653 24.835-10.287l30.102-30.101c16.19-16.191 16.19-42.537 0-58.728zm249.491-334.75 30.102-30.101c1.3-1.3 2.818-1.494 3.607-1.494s2.307.194 3.607 1.494c1.073 1.074 1.611 2.557 1.473 4.07l-2.89 31.8 23.148 23.149 31.801-2.891c1.508-.139 2.996.4 4.069 1.473 1.3 1.3 1.494 2.818 1.494 3.608 0 .789-.194 2.307-1.494 3.607l-30.102 30.102c-4.486 4.486-11.786 4.486-16.272 0l-48.544-48.544c-4.485-4.488-4.485-11.787.001-16.273zm-108.931 312.414v-25.292l32.362-22.328h45.04c-18.298 24.766-45.795 42.334-77.402 47.62zm62.716-207.721c14.331 13.438 25.404 30.31 31.882 49.294l-51.499 10.032-30.547 21.68-12.553-3.74v-23.163l34.587-4.91 6.632-36.989zm-27.035-19.174-21.529 12.223-5.283 29.472-38.891 5.521v71.605l48.022 14.307 37.196-26.399 45.471-8.858c.25 3.17.381 6.374.381 9.607 0 14.675-2.626 28.747-7.43 41.775h-70.608l-53.032 36.589v42.304c-51.21-4.201-93.491-40.406-106.756-88.522l46.582-39.364 19.483-66.564-11.436-30.116c18.172-10.905 39.422-17.185 62.113-17.185 20.079.001 39.029 4.919 55.717 13.605zm-142.513 23.148 4.476 11.786-14.116 48.226-24.59 20.78c.904-31.358 13.791-59.762 34.23-80.792zm-40.906 277.633-30.102 30.101c-1.3 1.3-2.818 1.494-3.607 1.494s-2.307-.194-3.608-1.495c-1.073-1.073-1.61-2.556-1.472-4.068l2.89-31.801-23.148-23.149-31.801 2.891c-1.514.134-2.996-.4-4.069-1.473-1.3-1.3-1.494-2.818-1.494-3.608 0-.789.194-2.307 1.494-3.607l30.101-30.101c4.486-4.486 11.785-4.486 16.272 0l48.544 48.544c4.486 4.487 4.486 11.786 0 16.272z"/><path id="XMLID_796_" d="m197.462 309.655h30.022v28.947h-30.022z"/></g></svg>