<svg id="Capa_1" enable-background="new 0 0 512 512" height="512" viewBox="0 0 512 512" width="512" xmlns="http://www.w3.org/2000/svg"><path d="m505.027 210.875-120.5-180.75h-38.152c-24.882 0-45.125 20.243-45.125 45.125s20.243 45.125 45.125 45.125h1.849l36.238 90.5h-256.923l36.238-90.5h1.849c24.882 0 45.125-20.243 45.125-45.125s-20.243-45.125-45.125-45.125h-38.152l-120.5 180.75h-6.974v201.963l69.037 69.037h149.208l36.127-60.246 3.259-.001 36.123 60.247h149.209l69.037-69.037v-201.963zm-475.027 30h452v30.25h-452zm338.526-150.5h-22.151c-8.34 0-15.125-6.785-15.125-15.125s6.785-15.125 15.125-15.125h22.098l100.5 150.75h-52.197zm-224.999-30.25h22.098c8.34 0 15.125 6.785 15.125 15.125s-6.785 15.125-15.125 15.125h-22.151l-48.25 120.5h-52.197zm287.01 391.75h-119.791l-36.127-60.253-37.241.013-36.123 60.24h-119.792l-51.463-51.463v-99.287h452v99.287z"/></svg>