<svg id="Capa_1" enable-background="new 0 0 512 512" height="512" viewBox="0 0 512 512" width="512" xmlns="http://www.w3.org/2000/svg"><g><path d="m166 120h15v30h30v-30h15c57.897 0 105-47.103 105-105v-15h-45c-38.151 0-71.612 20.455-90 50.971-18.388-30.516-51.849-50.971-90-50.971h-45v15c0 57.897 47.103 105 105 105zm120-90h13.493c-6.97 34.191-37.274 60-73.493 60h-13.493c6.97-34.191 37.274-60 73.493-60zm-180 0c36.219 0 66.523 25.809 73.493 60h-13.493c-36.219 0-66.523-25.809-73.493-60z"/><path d="m60 257c0 35.98 14.256 69.888 40.142 95.48 25.778 25.485 59.821 39.52 95.858 39.52 74.439 0 135-60.561 135-135v-15h-271zm239.932 15c-7.301 50.817-51.127 90-103.932 90-53.308 0-97.552-39.183-104.922-90z"/><path d="m461.097 155.083c-16.825-5.128-35.755-4.943-53.303.522-15.664 4.877-29.3 13.772-39.19 25.395h-368.604v76c0 69.397 36.632 130.433 91.662 165h-91.662v15c0 41.355 33.645 75 75 75h241c41.355 0 75-33.645 75-75v-15h-91.195c20.158-12.727 37.837-29.038 52.126-48.039.467-.19.961-.391 1.484-.604 14.704-5.978 53.763-21.855 88.628-45.482 46.42-31.457 69.957-65.732 69.957-101.875 0-34.691-19.029-61.202-50.903-70.917zm-102.667 296.917c-6.19 17.461-22.873 30-42.43 30h-241c-19.557 0-36.239-12.539-42.43-30zm-162.43-30c-91.533 0-166-74.019-166-165v-46h331v46c0 90.981-74.019 165-165 165zm229.214-118.96c-16.372 11.095-33.608 20.285-48.608 27.459 9.27-22.695 14.394-47.508 14.394-73.499v-56.043c13.499-16.312 39.516-23.833 61.351-17.178 11.073 3.376 29.649 13.349 29.649 42.221 0 25.586-19.105 51.506-56.786 77.04z"/></g></svg>