<svg id="Capa_1" enable-background="new 0 0 512 512" height="512" viewBox="0 0 512 512" width="512" xmlns="http://www.w3.org/2000/svg"><path d="m452 173.251v-81.509h-452v260h279.342l99.658 68.516v-38.516h58c41.355 0 75-33.645 75-75v-60c0-36.219-25.808-66.522-60-73.491zm-34.595-51.509-178.135 118.195c-8.061 5.349-18.479 5.349-26.539 0l-178.136-118.195zm-387.405 32.954 166.145 110.238c9.068 6.017 19.462 9.025 29.855 9.025s20.787-3.008 29.855-9.025l166.145-110.238v137.046h-43v-38.516l-99.658 68.516h-249.342zm452 152.046c0 24.813-20.187 45-45 45h-88v11.484l-38.523-26.484 38.523-26.484v11.484h88c16.869 0 32.457-5.6 45-15.036zm-30-17.58v-84.84c17.459 6.192 30 22.865 30 42.42s-12.541 36.228-30 42.42z"/></svg>