<svg id="Capa_1" enable-background="new 0 0 512 512" height="512" viewBox="0 0 512 512" width="512" xmlns="http://www.w3.org/2000/svg"><g><path d="m467.821 268.333c-22.365 0-40.561-18.196-40.561-40.561v-227.772h-341.815v227.772c0 22.365-18.512 40.561-41.266 40.561h-15.033v243.667h453.709v-243.667zm-226.502 166.417v47.183h-36.593v-47.183zm-182.106-30.067v-26.295h182.106v26.295zm182.106-105.598v49.236h-182.106v-49.236zm30.067 49.236v-49.236h36.593v49.236zm0 30.067h181.402v26.295h-181.402zm66.66-30.067v-49.236h114.742v49.236zm59.147-318.254v197.705c0 15.387 4.958 29.632 13.345 41.246h-139.152v-53.193l54.423-72.932c21.92-29.375 33.992-65.737 33.992-102.389v-10.437zm-67.46 0v10.438c0 30.215-9.952 60.191-28.021 84.407l-45.36 60.785-45.359-60.785c-18.07-24.216-28.022-54.192-28.022-84.407v-10.438zm-214.221 0h37.392v10.438c0 36.651 12.072 73.014 33.991 102.389l54.423 72.932v53.193h-139.285c8.47-11.614 13.479-25.859 13.479-41.246zm-56.299 404.683h115.446v47.183h-115.446zm212.173 47.183v-47.183h181.402v47.183z"/></g></svg>