<?xml version="1.0" encoding="iso-8859-1"?>
<!-- Generator: Adobe Illustrator 19.0.0, SVG Export Plug-In . SVG Version: 6.00 Build 0)  -->
<svg xmlns="http://www.w3.org/2000/svg" xmlns:xlink="http://www.w3.org/1999/xlink" version="1.1" id="Layer_1" x="0px" y="0px" viewBox="0 0 512 512" style="enable-background:new 0 0 512 512;" xml:space="preserve">
<g>
	<g>
		<path d="M0,35.721v369.116h35.721v71.442h107.163v-71.442h226.233v71.442h107.163v-71.442H512V35.721H0z M107.163,440.558H71.442    v-35.721h35.721V440.558z M197.698,369.116h-54.814H35.721v-59.535h161.977c-4.582,8.939-7.186,19.051-7.186,29.767    C190.512,350.065,193.116,360.178,197.698,369.116z M256,369.116c-16.414,0-29.767-13.354-29.767-29.767    c0-16.414,13.354-29.767,29.767-29.767s29.767,13.354,29.767,29.767C285.767,355.763,272.414,369.116,256,369.116z     M440.558,440.558h-35.721v-35.721h35.721V440.558z M476.279,369.116H369.116h-54.814c4.583-8.939,7.186-19.051,7.186-29.767    c0-10.716-2.604-20.829-7.186-29.767h161.977V369.116z M476.279,273.861H267.607l-42.914-96.556l-32.642,14.509l36.466,82.047    H35.721V71.442h440.558V273.861z"/>
	</g>
</g>
<g>
	<g>
		<path d="M256,107.163c-56.496,0-109.611,22.001-149.559,61.95l25.258,25.258c33.201-33.203,77.345-51.487,124.301-51.487    s91.099,18.284,124.302,51.487l25.258-25.258C365.611,129.163,312.496,107.163,256,107.163z"/>
	</g>
</g>
<g>
</g>
<g>
</g>
<g>
</g>
<g>
</g>
<g>
</g>
<g>
</g>
<g>
</g>
<g>
</g>
<g>
</g>
<g>
</g>
<g>
</g>
<g>
</g>
<g>
</g>
<g>
</g>
<g>
</g>
</svg>
