<svg id="Layer_1" enable-background="new 0 0 510 510" height="512" viewBox="0 0 510 510" width="512" xmlns="http://www.w3.org/2000/svg"><g><path d="m60 0v510h390v-510zm360 480h-330v-450h330z"/><path d="m165 390c-.582 45.524 50.978 75.215 90 51.962 39.032 23.255 90.582-6.445 89.999-51.963.001-27.905-19.149-51.424-44.999-58.101v-153.796c25.85-6.677 45-30.195 45-58.102.585-45.518-50.98-75.219-90-51.962-39.032-23.255-90.582 6.445-89.999 51.963-.001 27.905 19.149 51.424 44.999 58.101v153.797c-25.85 6.676-45 30.195-45 58.101zm30-270c-.179-25.661 31.033-39.606 49.995-22.356l10.005 8.957 10.005-8.957c18.969-17.253 50.176-3.298 49.995 22.356 0 16.542-13.458 30-30 30h-15v83.787l-15-15-15 15v-83.787h-15c-16.542 0-30-13.458-30-30zm30 240h15v-83.787l15-15 15 15v83.787h15c16.542 0 30 13.458 30 30 .181 25.657-31.033 39.608-49.995 22.357l-10.005-8.958-10.005 8.957c-18.969 17.253-50.176 3.298-49.995-22.356 0-16.542 13.458-30 30-30z"/></g></svg>