<svg id="Capa_1" enable-background="new 0 0 512 512" height="512" viewBox="0 0 512 512" width="512" xmlns="http://www.w3.org/2000/svg"><g><path d="m316.262 210.75c58.104 0 105.375-47.271 105.375-105.375s-47.272-105.375-105.375-105.375-105.375 47.271-105.375 105.375 47.271 105.375 105.375 105.375zm0-180.75c41.562 0 75.375 33.813 75.375 75.375s-33.813 75.375-75.375 75.375-75.375-33.813-75.375-75.375 33.813-75.375 75.375-75.375z"/><path d="m286.789 122.819 7.575 7.122-13.261 12.467 20.551 21.856 14.607-13.735 14.607 13.735 20.551-21.856-13.261-12.467 7.575-7.122c12.937-12.163 17.068-30.689 10.526-47.197s-22.242-27.174-39.999-27.174-33.457 10.667-39.999 27.174-2.409 35.034 10.528 47.197zm17.363-36.144c.765-1.93 3.898-8.227 12.109-8.227s11.345 6.297 12.109 8.227c.765 1.93 2.795 8.664-3.188 14.288l-8.922 8.389-8.922-8.389c-5.981-5.625-3.95-12.358-3.186-14.288z"/><path d="m498.791 223.252c-16.167-16.919-46.725-17.813-63.815 0l-60.487 60.487h-14.657c-6.192-17.548-22.944-30.157-42.585-30.157h-69.529c-33.615-28.925-84.54-27.458-116.4 4.402l-131.306 131.359 122.657 122.657 49.614-82.048 25.81-25.809 183.675-.001 117.033-117.074c17.587-17.595 17.583-46.223-.01-63.816zm-381.982 240.462-74.38-74.38 32.712-32.74 66.332 66.333zm360.775-197.855-108.246 108.283-183.671.001-25.276 25.275-64.041-64.042 56.18-56.18c23.164-23.541 61.927-20.688 83.104 4.385h81.613c8.349 0 15.142 6.792 15.142 15.142s-6.793 15.142-15.142 15.142h-103.593v30h103.592c19.63 0 36.373-12.593 42.574-30.126h27.094l69.274-69.274c4.955-5.016 15.013-6.394 21.39 0 5.898 5.899 5.9 15.496.006 21.394z"/></g></svg>