<svg id="Capa_1" enable-background="new 0 0 510 510" height="512" viewBox="0 0 510 510" width="512" xmlns="http://www.w3.org/2000/svg"><g><path d="m330 0c-66.488 0-124.668 36.239-155.837 90h-84.163v-45c0-24.813-20.187-45-45-45s-45 20.187-45 45v465h90v-240h84.163c31.169 53.761 89.349 90 155.837 90 99.252 0 180-80.748 180-180s-80.748-180-180-180zm-300 360h30v45h-30zm0 120v-45h30v45zm30-150h-30v-285c0-8.271 6.729-15 15-15s15 6.729 15 15v225zm30-90v-120h70.296c-6.658 18.776-10.296 38.97-10.296 60s3.638 41.224 10.296 60zm240 90c-82.71 0-150-67.29-150-150s67.29-150 150-150 150 67.29 150 150c0 21.323-4.482 41.616-12.537 60h-103.869c5.882-8.77 9.756-18.99 10.979-30h15.427c24.814 0 45-20.187 45-45s-20.186-45-45-45c-15.908 0-123.928 0-150 0v82.5c0 37.22 30.28 67.5 67.5 67.5h142.424c-27.394 36.41-70.955 60-119.924 60zm45-180h15c8.272 0 15 6.729 15 15s-6.728 15-15 15h-15zm-30 52.5c0 20.678-16.822 37.5-37.5 37.5s-37.5-16.822-37.5-37.5v-52.5h75z"/></g></svg>