<svg id="Capa_1" enable-background="new 0 0 511.991 511.991" height="512" viewBox="0 0 511.991 511.991" width="512" xmlns="http://www.w3.org/2000/svg"><g><path d="m416.465 45.253c-17.821 37.957-26.857 78.579-26.857 120.738 0 32.598 5.606 64.771 16.663 95.627l28.242-10.12c-9.891-27.6-14.905-56.369-14.905-85.507 0-37.718 8.079-74.051 24.014-107.988z"/><path d="m467.272 78.599c-11.722 27.713-17.665 57.116-17.665 87.392 0 20.74 2.827 41.316 8.403 61.159l28.881-8.116c-4.833-17.201-7.284-35.047-7.284-53.043 0-26.24 5.146-51.71 15.296-75.705z"/><path d="m347.088 165.991c0-91.237-74.216-165.991-165.144-165.991-94.597 0-164.856 81.515-164.856 172.437v234.554c0 57.897 47.103 105 105 105s105-47.103 105-105v-60.968c0-12.154 7.248-23.03 18.467-27.707 61.678-25.719 101.533-85.511 101.533-152.325zm-113.08 124.636c-22.428 9.352-36.92 31.096-36.92 55.396v60.968c0 41.355-33.645 75-75 75s-75-33.645-75-75v-234.554c0-75.553 57.994-142.437 134.863-142.437 74.116 0 135.137 60.961 135.137 135.991 0 54.668-32.611 103.591-83.08 124.636z"/><path d="m182.073 59.991c-60.857 0-104.985 53.704-104.985 112.445v68.555h15c8.271 0 15 6.729 15 15s-6.729 15-15 15h-15v121h30v-93.57c17.461-6.191 30-22.873 30-42.43s-12.539-36.239-30-42.43v-41.125c0-39.65 28.669-82.445 74.985-82.445 41.363 0 75.015 34.094 75.015 76 0 10.582-2.204 20.774-6.253 30.062-11.583-26.494-38.031-45.062-68.747-45.062v30c24.813 0 45 20.187 45 45 0 .012-.001.025-.001.037-4.91 3.674-10.318 6.793-16.165 9.231-44.853 18.675-73.834 62.122-73.834 110.732h30c0-36.458 21.732-69.034 55.371-83.04 39.261-16.367 64.629-54.426 64.629-96.96 0-58.06-47.127-106-105.015-106z"/></g></svg>