<?xml version="1.0" encoding="iso-8859-1"?>
<!-- Generator: Adobe Illustrator 19.0.0, SVG Export Plug-In . SVG Version: 6.00 Build 0)  -->
<svg version="1.1" id="Layer_1" xmlns="http://www.w3.org/2000/svg" xmlns:xlink="http://www.w3.org/1999/xlink" x="0px" y="0px"
	 viewBox="0 0 512 512" style="enable-background:new 0 0 512 512;" xml:space="preserve">
<g>
	<g>
		<path d="M438.92,127.232H271.674V31.347H469.59V0H42.411v31.347h197.916v95.885H73.081L42.211,312.449L72.911,512h366.177
			l30.7-199.551L438.92,127.232z M99.636,158.579h312.73l6.556,39.337H93.08L99.636,158.579z M311.011,229.263v138.295H200.99
			V229.263H311.011z M73.957,312.646l13.897-83.384h81.787v138.295H82.405L73.957,312.646z M412.196,480.653H99.805l-12.576-81.748
			h337.545L412.196,480.653z M429.596,367.559h-87.237V229.263h81.787l13.897,83.384L429.596,367.559z"/>
	</g>
</g>
<g>
</g>
<g>
</g>
<g>
</g>
<g>
</g>
<g>
</g>
<g>
</g>
<g>
</g>
<g>
</g>
<g>
</g>
<g>
</g>
<g>
</g>
<g>
</g>
<g>
</g>
<g>
</g>
<g>
</g>
</svg>
