<?xml version="1.0" encoding="iso-8859-1"?>
<!-- Generator: Adobe Illustrator 19.0.0, SVG Export Plug-In . SVG Version: 6.00 Build 0)  -->
<svg xmlns="http://www.w3.org/2000/svg" xmlns:xlink="http://www.w3.org/1999/xlink" version="1.1" id="Layer_1" x="0px" y="0px" viewBox="0 0 512 512" style="enable-background:new 0 0 512 512;" xml:space="preserve">
<g>
	<g>
		<path d="M272.532,80.151c-6.949,0-13.867,0.468-20.71,1.387V18.2h-35.243V0h-31.347v18.2h-35.243v294.784h101.834V113.237    c6.814-1.154,13.74-1.739,20.71-1.739c67.839,0,123.03,55.19,123.03,123.03c0,54.409-36.134,102.622-88.102,117.978h-39.27    H136.467H85.09v31.347h51.377v32.726H85.22V512h231.373v-95.419H268.19v-32.726h53.36v-2.907    c62.419-20.885,105.36-79.982,105.36-146.419C426.91,149.404,357.657,80.151,272.532,80.151z M220.476,281.638h-39.14v-32.222    h39.14V281.638z M220.476,218.069h-39.14V49.547h39.14V218.069z M167.814,383.855h69.029v32.726h-69.029V383.855z     M285.246,447.928v32.725H116.567v-32.725h19.9H268.19H285.246z"/>
	</g>
</g>
<g>
</g>
<g>
</g>
<g>
</g>
<g>
</g>
<g>
</g>
<g>
</g>
<g>
</g>
<g>
</g>
<g>
</g>
<g>
</g>
<g>
</g>
<g>
</g>
<g>
</g>
<g>
</g>
<g>
</g>
</svg>
