<svg id="Capa_1" enable-background="new 0 0 512 512" height="512" viewBox="0 0 512 512" width="512" xmlns="http://www.w3.org/2000/svg"><g><path d="m484.074 315.7c-19.337-22.171-44.567-34.381-71.044-34.381-20.873 0-39.813-12.341-48.247-31.437l-43.973-99.629-33.683-28.366-27.258 32.201c-10.929 12.915-30.323 14.533-43.229 3.61-12.914-10.929-14.533-30.322-3.608-43.233l27.158-32.105-54.86-46.204-185.33 185.498 254.19 254.156h257.81v-86.01c0-26.363-9.854-53.371-27.926-74.1zm-247.675-120.773c24.03-.002 39.736-13.62 54.293-30.816l5.478 4.614 22.809 51.677-39.556 15.286 10.814 27.983 40.869-15.794c5.5 12.461 10.585 24.82 19.705 35.219l-30.03 36.146 23.076 19.171 30.501-36.713c11.692 6.188 24.911 9.618 38.672 9.618 17.68 0 34.881 8.559 48.433 24.097 12.447 14.276 19.945 32.431 20.928 50.37h-188.798l-59.72-59.675-10.028-132.496c4.142.873 8.351 1.313 12.554 1.313zm-49.329-118.084 10.8 9.096-7.74 9.15c-20.159 23.821-18.72 58.797 2.298 80.934l8.898 117.565-115.541-115.454zm79.54 368.966-224.333-224.164 22.296-22.297 216.6 216.438h201.337v30.023z"/><path d="m0 445.844h173.766v30h-173.766z"/><path d="m0 386.156h112.489v30h-112.489z"/><path d="m0 325.999h60.713v30h-60.713z"/></g></svg>