<svg id="Capa_1" enable-background="new 0 0 512 512" height="512" viewBox="0 0 512 512" width="512" xmlns="http://www.w3.org/2000/svg"><g><path d="m369.362 268.685c-13.765-55.862-42.899-115.266-86.719-176.774-34.692-48.696-65.42-79.858-66.711-81.161l-10.655-10.75-10.654 10.75c-1.656 1.671-41.019 41.617-80.896 101.793-23.516 35.485-42.281 70.644-55.774 104.499-17.099 42.899-25.769 83.903-25.769 121.872 0 95.44 77.649 173.086 173.094 173.086 29.386 0 58.064-7.397 83.568-21.477 19.641 13.541 43.431 21.477 69.039 21.477 67.233 0 121.932-54.696 121.932-121.925 0-63.361-48.583-115.588-110.455-121.39zm80.455 121.39c0 19.942-6.383 38.421-17.214 53.501l-128.222-128.215c15.081-10.83 33.561-17.213 53.504-17.213 50.692 0 91.932 41.238 91.932 91.927zm-387.634-51.161c0-77.752 41.453-156.741 76.229-209.313 26.181-39.579 52.64-70.563 66.867-86.314 11.766 13.021 31.884 36.442 53.248 66.477 27.937 39.276 63.352 97.603 80.101 159.904-58.115 9.259-102.673 59.728-102.673 120.406 0 30.065 10.939 57.623 29.046 78.904-18.625 8.559-38.958 13.022-59.724 13.022-78.902.001-143.094-64.187-143.094-143.086zm203.772 51.161c0-19.942 6.383-38.421 17.214-53.502l128.221 128.215c-15.082 10.83-33.562 17.213-53.505 17.213-50.69 0-91.93-41.238-91.93-91.926z"/></g></svg>