<svg id="Capa_1" enable-background="new 0 0 512 512" height="512" viewBox="0 0 512 512" width="512" xmlns="http://www.w3.org/2000/svg"><g><path d="m482 349.58v-109.08c0-74.715-60.785-135.5-135.5-135.5-1.795 0-3.586.043-5.373.114-19.614-37.841-50.845-60.114-85.127-60.114-34.283 0-65.513 22.273-85.127 60.114-1.787-.071-3.577-.114-5.373-.114-74.715 0-135.5 60.785-135.5 135.5v109.08c-17.459 6.192-30 22.865-30 42.42 0 24.813 20.187 45 45 45s45-20.187 45-45c0-19.555-12.541-36.228-30-42.42v-79.08c0-16.542 13.458-30 30-30s30 13.458 30 30v196.5h272v-196.5c0-16.542 13.458-30 30-30s30 13.458 30 30v79.08c-17.459 6.192-30 22.865-30 42.42 0 24.813 20.187 45 45 45s45-20.187 45-45c0-19.555-12.541-36.228-30-42.42zm-437 57.42c-8.271 0-15-6.729-15-15s6.729-15 15-15 15 6.729 15 15-6.729 15-15 15zm211-332c20.22 0 39.414 12.855 53.496 35.159-19.748 5.613-38.073 15.671-53.496 29.508-15.422-13.836-33.748-23.894-53.496-29.508 14.081-22.304 33.274-35.159 53.496-35.159zm-106 272h212v30h-212zm-60-136.5c-9.865 0-19.172 2.408-27.39 6.644 10.657-46.971 52.741-82.144 102.89-82.144 28.475 0 55.688 11.536 75.5 31.826v150.174h-91v-46.5c0-33.084-26.916-60-60-60zm60 226.5v-30h212v30zm272-226.5c-33.084 0-60 26.916-60 60v46.5h-91v-150.174c19.813-20.29 47.025-31.826 75.5-31.826 50.149 0 92.233 35.173 102.89 82.144-8.218-4.236-17.525-6.644-27.39-6.644zm45 196.5c-8.271 0-15-6.729-15-15s6.729-15 15-15 15 6.729 15 15-6.729 15-15 15z"/></g></svg>