<svg id="Capa_1" enable-background="new 0 0 512 512" height="512" viewBox="0 0 512 512" width="512" xmlns="http://www.w3.org/2000/svg"><g><path d="m421 32v-32h-30v32h-120v-32h-30v32h-120v-32h-30v32h-91v480h512v-480zm-330 30v30h-30v30h90v-30h-30v-30h120v30h-30v30h90v-30h-30v-30h120v30h-30v30h90v-30h-30v-30h61v90h-452v-90zm-61 420v-300h452v300z"/><path d="m361 302c-24.813 0-45 20.187-45 45 0 19.555 12.541 36.228 30 42.42v17.58c0 8.271-6.729 15-15 15h-120c-8.271 0-15-6.729-15-15v-46.509c34.192-6.968 60-37.271 60-73.491v-75h-60v30h30v45c0 24.813-20.187 45-45 45s-45-20.187-45-45v-45h30v-30h-60v75c0 36.22 25.808 66.522 60 73.491v46.509c0 24.813 20.187 45 45 45h120c24.813 0 45-20.187 45-45v-17.58c17.459-6.192 30-22.865 30-42.42 0-24.813-20.187-45-45-45zm0 60c-8.271 0-15-6.729-15-15s6.729-15 15-15 15 6.729 15 15-6.729 15-15 15z"/></g></svg>