<svg id="Layer_1" enable-background="new 0 0 510 510" height="512" viewBox="0 0 510 510" width="512" xmlns="http://www.w3.org/2000/svg"><path d="m405 225c0-4.449 0-146.628 0-150h-90v-75c-8.989 0-203.826 0-210 0v225h-30v88.147l30 4.091v192.762h300v-151.853l30 4.091v-137.238zm-90-120h60v44h-60zm0 74h60v46h-60zm-90-149h60v45h-60zm0 75h60v44h-60zm0 74h60v46h-60zm-90-149h60v45h-60zm0 75h60v44h-60zm0 74h60v46h-60zm240 301h-240v-30h240zm0-60h-240v-98.672l240 32.728zm30-92.132-300-40.909v-31.959h300z"/></svg>