<svg id="Capa_1" enable-background="new 0 0 512 512" height="512" viewBox="0 0 512 512" width="512" xmlns="http://www.w3.org/2000/svg"><g><path d="m241 60h30v30h-30z"/><path d="m315.985 30c-14.063-18.697-36.317-30-59.985-30s-45.922 11.303-59.985 30h-105.015v377h60v45h90v-45h30v105h90v-105h60v-377zm-103.294 30 4.333-7.488c8.035-13.886 22.969-22.512 38.976-22.512s30.941 8.626 38.976 22.512l4.333 7.488h91.691v60h-270v-60zm-31.691 90h150v167h-150zm120 332v-30h30v30zm30-105v45h-30v-45h-90v45h-30v-45h-60v-227h30v197h210v-197h30v227z"/><path d="m271 187.5h-30v31h-31v30h31v31h30v-31h31v-30h-31z"/></g></svg>