<svg id="Capa_1" enable-background="new 0 0 512 512" height="512" viewBox="0 0 512 512" width="512" xmlns="http://www.w3.org/2000/svg"><g><path d="m256 0c-139.09 0-256 115.84-256 256 0 139.09 115.85 256 256 256 139.49 0 256-116.38 256-256 0-139.09-115.85-256-256-256zm159.1 415.1c-89.22 89.21-228.98 89.21-318.2 0-89.21-89.22-89.21-228.98 0-318.2 102.87-102.87 267.07-83.82 346.96 34.88l-28.76 28.76c-5.86 5.86-15.35 5.86-21.21 0l-21.22-21.21c-17.54-17.55-46.09-17.55-63.64 0-8.5 8.5-13.18 19.8-13.18 31.82s4.68 23.32 13.18 31.82l21.22 21.21c5.86 5.86 5.86 15.35 0 21.21l-10.61 10.61c-6.28-6.28-13.31-11.5-20.89-15.6-7.59-4.1-15.72-7.08-24.2-8.84 5.61-32.52-4.11-67.18-29.16-92.23-19.83-19.83-46.2-30.76-74.24-30.76-28.05 0-54.42 10.93-74.25 30.76s-30.75 46.2-30.75 74.24c0 28.05 10.92 54.42 30.75 74.25l127.28 127.28c19.83 19.83 46.2 30.75 74.25 30.75 28.04 0 54.41-10.92 74.24-30.75l42.43-42.43c8.5-8.5 13.18-19.8 13.18-31.82s-4.68-23.32-13.18-31.82c-17.55-17.54-46.1-17.54-63.64 0l-5.65 5.65c-.64-11.61-3.51-23.11-8.61-33.82l14.26-14.25c8.5-8.5 13.18-19.8 13.18-31.82s-4.68-23.32-13.18-31.82l-21.21-21.22c-5.87-5.86-5.87-15.35 0-21.21 5.86-5.86 15.35-5.86 21.21 0l21.21 21.21c17.55 17.55 46.1 17.55 63.64 0l23.08-23.08c41 83.77 26.24 185.9-44.29 256.43zm-169.71-127.28c8.26-8.26 14.85-17.56 19.78-27.48 12.54 1.91 24.11 7.73 33.26 16.87 23.39 23.4 23.39 61.46 0 84.86l21.21 21.21 53.03-53.03c5.86-5.87 15.35-5.87 21.22 0 5.86 5.86 5.86 15.35 0 21.21l-42.43 42.43c-14.17 14.16-33 21.96-53.03 21.96-20.04 0-38.87-7.8-53.04-21.96l-127.28-127.28c-14.16-14.17-21.96-33-21.96-53.04 0-20.03 7.8-38.86 21.96-53.03 14.17-14.16 33-21.97 53.04-21.97 20.03 0 38.86 7.81 53.03 21.97 29.24 29.24 29.24 76.82 0 106.07z"/><path d="m198.574 198.574h30v30h-30z" transform="matrix(.707 -.707 .707 .707 -88.465 213.57)"/></g></svg>