<svg id="Capa_1" enable-background="new 0 0 512 512" height="512" viewBox="0 0 512 512" width="512" xmlns="http://www.w3.org/2000/svg"><g><path d="m405.523 163.356v-33.837c0-19.636-11.8-36.985-30.064-44.199l-16.607-6.559c6.364-7.862 10.186-17.861 10.186-28.74v-4.257c0-25.234-20.53-45.764-45.764-45.764s-45.763 20.53-45.763 45.764v4.257c0 10.879 3.822 20.878 10.186 28.74l-16.608 6.559c-5.718 2.259-10.802 5.511-15.089 9.516-4.287-4.005-9.371-7.257-15.089-9.516l-16.607-6.559c6.364-7.862 10.186-17.861 10.186-28.74v-4.257c0-25.234-20.53-45.764-45.764-45.764s-45.764 20.53-45.764 45.764v4.257c0 10.879 3.822 20.878 10.186 28.74l-16.607 6.559c-18.263 7.214-30.064 24.563-30.064 44.199v33.837zm-98.062-117.592c0-8.72 7.094-15.814 15.813-15.814 8.72 0 15.814 7.094 15.814 15.814v4.257c0 8.72-7.094 15.814-15.814 15.814s-15.813-7.094-15.813-15.814zm-25.369 67.411 41.182-16.266 41.182 16.266c6.753 2.667 11.117 9.083 11.117 16.344v3.887h-104.598v-3.887c0-7.261 4.364-13.676 11.117-16.344zm-109.18-67.411c0-8.72 7.094-15.814 15.814-15.814s15.814 7.094 15.814 15.814v4.257c0 8.72-7.094 15.814-15.814 15.814s-15.814-7.094-15.814-15.814zm-36.485 87.642v-3.887c0-7.261 4.364-13.676 11.117-16.344l41.182-16.266 41.182 16.266c6.753 2.667 11.117 9.083 11.117 16.344v3.887z"/><path d="m303.898 436.866-13.537-5.835c6.352-7.727 10.171-17.611 10.171-28.372v-2.823c0-24.674-20.074-44.749-44.748-44.749s-44.749 20.074-44.749 44.749v2.823c0 10.76 3.819 20.644 10.171 28.372l-13.537 5.835c-16.081 6.932-26.472 22.726-26.472 40.237v34.897h149.173v-34.897c0-17.511-10.391-33.305-26.472-40.237zm-62.913-37.03c0-8.16 6.639-14.799 14.799-14.799s14.798 6.639 14.798 14.799v2.823c0 8.16-6.638 14.799-14.798 14.799s-14.799-6.639-14.799-14.799zm59.435 82.214h-89.272v-4.947c0-5.542 3.288-10.54 8.377-12.734l36.259-15.63 36.258 15.63c5.089 2.194 8.378 7.192 8.378 12.734z"/><path d="m89.129 304.118h151.68v26.007h29.95v-26.007h151.68v26.007h29.95v-55.957h-181.63v-26.959h72.143v-55.957h-29.95v26.008h-114.336v-26.008h-29.95v55.957h72.143v26.959h-181.629v55.957h29.949z"/><path d="m122.7 436.866-13.537-5.835c6.352-7.727 10.171-17.611 10.171-28.372v-2.823c0-24.674-20.074-44.749-44.749-44.749s-44.749 20.074-44.749 44.749v2.823c0 10.76 3.819 20.644 10.171 28.372l-13.536 5.835c-16.08 6.932-26.471 22.726-26.471 40.237v34.897h149.172v-34.897c0-17.511-10.391-33.305-26.472-40.237zm-62.913-37.03c0-8.16 6.639-14.799 14.799-14.799s14.799 6.639 14.799 14.799v2.823c0 8.16-6.639 14.799-14.799 14.799s-14.799-6.639-14.799-14.799zm59.435 82.214h-89.272v-4.947c0-5.542 3.288-10.54 8.378-12.734l36.258-15.63 36.259 15.63c5.089 2.194 8.378 7.192 8.378 12.734v4.947z"/><path d="m485.528 436.866-13.537-5.835c6.352-7.727 10.171-17.611 10.171-28.372v-2.823c0-24.674-20.074-44.749-44.748-44.749s-44.748 20.074-44.748 44.749v2.823c0 10.76 3.819 20.644 10.171 28.372l-13.537 5.835c-16.081 6.932-26.472 22.726-26.472 40.237v34.897h149.172v-34.897c0-17.511-10.391-33.305-26.472-40.237zm-62.912-37.03c0-8.16 6.638-14.799 14.798-14.799s14.798 6.639 14.798 14.799v2.823c0 8.16-6.638 14.799-14.798 14.799s-14.798-6.639-14.798-14.799zm59.434 82.214h-89.272v-4.947c0-5.542 3.288-10.54 8.378-12.734l36.259-15.63 36.258 15.63c5.089 2.194 8.378 7.192 8.378 12.734v4.947z"/></g></svg>