<svg id="Capa_1" enable-background="new 0 0 510 510" height="512" viewBox="0 0 510 510" width="512" xmlns="http://www.w3.org/2000/svg"><g id="XMLID_1537_"><path id="XMLID_1540_" d="m135 0h-75v167.101l30 105v237.899h90v-242.101l-25.114-87.899h85.114v-180h-90zm-45 30h30v137.101l30 105v87.899h-30v-92.101l-30-105zm30 360h30v30h-30zm0 90v-30h30v30zm90-450v45h-30v30h30v45h-60v-120z"/><path id="XMLID_1546_" d="m420 237.899v-237.899h-90v242.101l25.114 87.899h-85.114v180h90 15 75v-167.101zm-30-117.899h-30v-30h30zm0-90v30h-30v-30zm-90 450v-45h30v-30h-30v-45h60v120zm120 0h-30v-137.101l-30-105v-87.899h30v92.101l30 105z"/></g></svg>