<svg id="Capa_1" enable-background="new 0 0 512 512" height="512" viewBox="0 0 512 512" width="512" xmlns="http://www.w3.org/2000/svg"><g><path d="m356.604 366.204-50.604-14.458v-26.732c27.629-15.946 45-45.55 45-77.915v-30.039h40v-90h-29.941v-22.06c0-36.24-25.838-66.555-60.059-73.501v-31.499h-90v31.499c-34.221 6.946-60.059 37.261-60.059 73.501v22.06h-29.941v90h40v30c0 32.4 17.371 62.007 45 77.954v26.732l-50.604 14.458c-32.028 9.151-54.396 38.806-54.396 72.114v73.682h310v-73.682c0-33.308-22.368-62.963-54.396-72.114zm-25.545-261.204v22.06h-30.059v-64.5c17.489 6.176 30.059 22.864 30.059 42.44zm-60.059-75v97.06h-30v-97.06zm-90.059 75c0-19.576 12.569-36.264 30.059-42.44v64.5h-30.059zm-29.941 82.06v-30h210v30zm85 187.315v-68.381l-8.996-3.929c-21.871-9.554-36.004-31.144-36.004-55.005v-30h130.078v30c0 23.861-14.211 45.451-36.082 55.004l-8.996 3.929v68.381l35 10v37.626h-110v-37.625zm75 77.625v30h-110v-30zm-180-13.682c0-19.985 13.421-37.778 32.638-43.269l7.362-2.104v89.055h-40zm250 43.682h-40v-89.054l7.362 2.104c19.217 5.49 32.638 23.283 32.638 43.268z"/></g></svg>