<svg id="Capa_1" enable-background="new 0 0 510 510" height="512" viewBox="0 0 510 510" width="512" xmlns="http://www.w3.org/2000/svg"><g><path d="m270 150v-31.898c25.85-6.678 45-30.195 45-58.102 0-33.084-26.916-60-60-60s-60 26.916-60 60c0 27.906 19.15 51.424 45 58.102v31.898h-240v360h510v-360zm-45-90c0-16.542 13.458-30 30-30s30 13.458 30 30-13.458 30-30 30-30-13.458-30-30zm255 240h-150v-120h150zm-210-30v-90h30v150h180v30h-240v120h-30v-180h-180v-30h180v-90h30v90zm-90-90v60h-150v-60zm-150 150h150v150h-150zm240 150v-90h210v90z"/><path d="m240 300h30v30h-30z"/></g></svg>