<svg id="Capa_1" enable-background="new 0 0 510.5 510.5" height="512" viewBox="0 0 510.5 510.5" width="512" xmlns="http://www.w3.org/2000/svg"><g id="XMLID_437_"><path id="XMLID_488_" d="m103.719 183.724h73.448v30h-73.448z"/><path id="XMLID_762_" d="m139.352 120.639c-35.529 0-69.167 7.138-94.716 20.1-28.784 14.602-44.636 35.195-44.636 57.985v113.052c0 22.79 15.852 43.383 44.636 57.985 25.55 12.962 59.188 20.1 94.716 20.1s69.167-7.138 94.716-20.1c28.784-14.602 44.636-35.195 44.636-57.985v-34.967h231.796v-156.17zm-81.144 46.854c21.424-10.868 50.242-16.854 81.144-16.854s59.72 5.986 81.144 16.854c17.927 9.095 28.208 20.478 28.208 31.231s-10.282 22.136-28.208 31.231c-21.424 10.868-50.241 16.854-81.144 16.854s-59.72-5.986-81.144-16.854c-17.926-9.095-28.208-20.477-28.208-31.231s10.282-22.136 28.208-31.231zm162.288 175.514c-1.457.739-2.954 1.451-4.477 2.144v-29.122h-30v38.916c-14.442 3.212-30.253 4.917-46.667 4.917-16.666 0-32.713-1.756-47.333-5.065v-38.768h-30v28.818c-1.293-.598-2.567-1.208-3.811-1.839-17.926-9.096-28.208-20.479-28.208-31.232v-63.77c4.424 3.09 9.307 6 14.636 8.703 21.921 11.121 49.802 17.939 79.716 19.656v46.274h30v-46.274c29.914-1.717 57.795-8.535 79.716-19.656 5.329-2.703 10.212-5.613 14.636-8.703v63.77c0 10.753-10.282 22.136-28.208 31.231zm192.919-96.198h-30.082v-41.17h-30v41.17h-74.629v-48.085c0-18.031-9.931-34.683-28.331-48.085h51.627v42h30v-42h81.415zm67.085 0h-37.085v-96.17h37.085z"/></g></svg>