<svg id="Capa_1" enable-background="new 0 0 512 512" height="512" viewBox="0 0 512 512" width="512" xmlns="http://www.w3.org/2000/svg"><g><path d="m0 0v512h512v-512zm208.65 282.33v-54.85l-40.65-40.65 21.21-21.22 156.98 156.98-21.21 21.21-40.26-40.26h-54.86c-22.478 22.487-173.94 173.95-173.94 173.95-5.85 5.85-15.37 5.85-21.22 0-5.84-5.85-5.84-15.36 0-21.21 0 0 152.146-152.149 173.95-173.95zm33.64 51.21h30l52.69 52.69 63.64-63.64-199.41-199.4-63.64 63.64 53.08 53.07v30l-88.65 88.65v-268.55h332v332h-268.17zm239.71 148.46h-388.17l30-30h328.17v-392h-392v328.55l-30 30v-388.55h452z"/><path d="m362 150h30v30h-30z"/><path d="m332 120h30v30h-30z"/><path d="m302 150h30v30h-30z"/><path d="m332 180h30v30h-30z"/></g></svg>