<svg id="Layer_1" enable-background="new 0 0 510 510" height="512" viewBox="0 0 510 510" width="512" xmlns="http://www.w3.org/2000/svg"><g id="XMLID_578_"><path id="XMLID_647_" d="m480 210h30v-30c-7.259 0-52.693 0-60 0v-120c-5.676 0-142.881 0-150 0v120c-18.025 0-132.163 0-150 0v-30h105v-150h-240v150h105v30h-120v30h30v270h-30v30h510v-30h-30c0-6.103 0-242.654 0-270zm-435-180h180v90h-180zm240 300h165v90h-165zm105-240h30v90h-30zm-60 0h30v90h-30zm120 120v90h-165v-90zm0 270h-390v-270h195v240h195z"/><path id="XMLID_656_" d="m315 240h105v30h-105z"/><path id="XMLID_657_" d="m315 360h105v30h-105z"/></g></svg>