<svg id="Capa_1" enable-background="new 0 0 512 512" height="512" viewBox="0 0 512 512" width="512" xmlns="http://www.w3.org/2000/svg"><g><path d="m482 126.316v17.807c0 71.295-58.003 129.297-129.298 129.297h-92.208v-32.262h-30v32.262h-27.208v-32.262h-30v32.262h-27.208v-32.262h-30v32.262h-86.12v29.811h-29.958v30h29.958v32.036h32.778c-2.681 6.122-4.179 12.875-4.179 19.975 0 27.556 22.419 49.975 49.975 49.975h7.546v30.256h30v-30.256h27.208v30.256h30v-30.256h27.208v30.256h30v-30.256h14.422c27.557 0 49.976-22.419 49.976-49.975 0-7.1-1.498-13.853-4.179-19.975h31.989c71.295 0 129.298 58.003 129.298 129.298v17.435h30v-385.684zm-111.6 176.116c18.45-2.049 35.959-7.257 51.972-15.077v63.978c-16.012-7.82-33.522-13.028-51.972-15.077zm-30 .988v31.847h-79.906v-31.847zm-109.906 0v31.847h-27.208v-31.847zm-57.208 0v31.847h-27.208v-31.847zm-113.328 0h56.12v31.847h-56.12zm48.574 101.798c-11.014 0-19.975-8.961-19.975-19.975s8.961-19.975 19.975-19.975h7.546v39.95zm37.546 0v-39.95h27.208v39.95zm57.208 0v-39.95h27.208v39.95zm91.606-19.975c0 11.014-8.961 19.975-19.976 19.975h-14.422v-39.95h14.422c11.015 0 19.976 8.961 19.976 19.975zm187.108 16.385c-8.431-11.696-18.408-22.204-29.628-31.229v-102.111c11.22-9.025 21.197-19.533 29.628-31.229z"/><g><path d="m365.756 223.993c27.038 0 49.035-21.997 49.035-49.036v-86.34h8.497c36.692 0 66.544-29.852 66.544-66.544v-22.073h-105.041v129.768c-5.856-2.476-12.288-3.846-19.035-3.846-27.039 0-49.036 21.997-49.036 49.035 0 27.039 21.997 49.036 49.036 49.036zm49.035-193.993h44.175c-3.631 16.352-18.249 28.617-35.678 28.617h-8.497zm-49.035 125.922c10.496 0 19.035 8.539 19.035 19.035s-8.539 19.036-19.035 19.036-19.036-8.54-19.036-19.036 8.54-19.035 19.036-19.035z"/><path d="m257.839 0h30.009v30.002h-30.009z"/><path d="m257.839 60.03h30.009v30.002h-30.009z"/><path d="m287.849 30.016h30.012v30h-30.012z"/><path d="m227.828 30.016h30.011v30h-30.011z"/></g></g></svg>