<?xml version="1.0" encoding="iso-8859-1"?>
<!-- Generator: Adobe Illustrator 19.0.0, SVG Export Plug-In . SVG Version: 6.00 Build 0)  -->
<svg xmlns="http://www.w3.org/2000/svg" xmlns:xlink="http://www.w3.org/1999/xlink" version="1.1" id="Layer_1" x="0px" y="0px" viewBox="0 0 512 512" style="enable-background:new 0 0 512 512;" xml:space="preserve">
<g>
	<g>
		<path d="M373.967,185.575c-7.717-22.403-23.641-38.938-43.688-45.367c-32.83-10.529-60.51,0.505-74.28,8.166    c-13.77-7.659-41.453-18.691-74.28-8.164c-20.056,6.431-35.983,22.977-43.697,45.394c-9.883,28.718-4.959,61.766,13.171,88.402    c10.554,15.506,17.441,32.971,19.917,50.515c0.148,1.047,0.292,2.117,0.433,3.21c6.302,48.892,19.444,73.667,40.177,75.741    c0.814,0.081,1.609,0.121,2.392,0.12c26.579-0.004,35.707-45.984,38.794-73.955c0.668-6.058,1.845-10.398,3.094-13.482    c1.249,3.084,2.426,7.425,3.094,13.482c3.178,28.795,12.763,76.67,41.187,73.834c20.732-2.074,33.874-26.849,40.175-75.737    c0.136-1.057,0.276-2.093,0.418-3.105c2.473-17.572,9.379-35.099,19.971-50.683C378.949,247.311,383.854,214.275,373.967,185.575z     M335.986,257.05c-13.165,19.368-21.767,41.288-24.877,63.394c-0.158,1.123-0.313,2.269-0.464,3.443    c-3.276,25.418-8.108,39.092-11.571,45.542c-3.411-7.54-7.805-22.271-10.102-43.089c-1.46-13.23-5.134-24.064-10.917-32.203    c-5.064-7.127-13.308-11.382-22.055-11.382s-16.991,4.254-22.054,11.381c-5.784,8.14-9.457,18.974-10.917,32.204    c-2.298,20.818-6.691,35.549-10.102,43.089c-3.463-6.45-8.296-20.125-11.572-45.543c-0.157-1.219-0.318-2.411-0.482-3.572    c-3.115-22.07-11.702-43.932-24.831-63.223c-12.823-18.838-16.41-41.907-9.597-61.707c4.599-13.366,13.512-23.044,24.453-26.553    c30.59-9.808,54.857,8.422,55.798,9.142l9.074,7.716l9.457-7.656c1.018-0.782,25.286-19.011,55.875-9.202    c10.936,3.507,19.846,13.179,24.447,26.535C352.365,215.153,348.791,238.212,335.986,257.05z"/>
	</g>
</g>
<g>
	<g>
		<path d="M449.103,116.267C365.484,100.989,267.215,10.427,266.232,9.515L256,0l-10.235,9.518    c-0.981,0.913-99.111,91.447-182.868,106.75L50.57,118.52v132.215c0,64.195,23.647,125.924,64.876,169.357    c30.413,32.038,129.202,85.755,133.393,88.026L256,512l7.161-3.882c4.191-2.271,102.98-55.988,133.393-88.026    c41.23-43.433,64.876-105.162,64.876-169.357V118.52L449.103,116.267z M431.372,250.735c0,56.573-20.636,110.758-56.618,148.662    c-20.789,21.9-87.12,60.823-118.754,78.365c-31.634-17.542-97.965-56.464-118.754-78.365    c-35.982-37.905-56.618-92.089-56.618-148.662v-107.58C153.464,124.857,228.98,63.996,256,40.637    c27.02,23.359,102.536,84.221,175.372,102.518V250.735z"/>
	</g>
</g>
<g>
</g>
<g>
</g>
<g>
</g>
<g>
</g>
<g>
</g>
<g>
</g>
<g>
</g>
<g>
</g>
<g>
</g>
<g>
</g>
<g>
</g>
<g>
</g>
<g>
</g>
<g>
</g>
<g>
</g>
</svg>
