<?xml version="1.0" encoding="iso-8859-1"?>
<!-- Generator: Adobe Illustrator 19.0.0, SVG Export Plug-In . SVG Version: 6.00 Build 0)  -->
<svg xmlns="http://www.w3.org/2000/svg" xmlns:xlink="http://www.w3.org/1999/xlink" version="1.1" id="Layer_1" x="0px" y="0px" viewBox="0 0 512.001 512.001" style="enable-background:new 0 0 512.001 512.001;" xml:space="preserve">
<g>
	<g>
		<path d="M272.589,150.692c-67.195,0-121.862,54.672-121.862,121.874c0,67.201,54.668,121.874,121.862,121.874    s121.861-54.673,121.861-121.874C394.451,205.364,339.784,150.692,272.589,150.692z M272.589,364.439    c-50.654,0-91.865-41.214-91.865-91.874c0-50.66,41.211-91.874,91.865-91.874s91.864,41.214,91.864,91.874    S323.244,364.439,272.589,364.439z"/>
	</g>
</g>
<g>
	<g>
		<path d="M272.589,247.566c-13.784,0-24.998,11.215-24.998,25s11.214,25,24.998,25s24.998-11.215,24.998-25    C297.587,258.781,286.373,247.566,272.589,247.566z"/>
	</g>
</g>
<g>
	<g>
		<path d="M272.589,193.785c-11.027,0-19.998,8.972-19.998,20c0,11.028,8.97,20,19.998,20c11.027,0,19.998-8.972,19.998-20    C292.587,202.757,283.616,193.785,272.589,193.785z"/>
	</g>
</g>
<g>
	<g>
		<path d="M213.813,252.566c-11.027,0-19.998,8.972-19.998,20c0,11.028,8.971,20,19.998,20c11.027,0,19.998-8.972,19.998-20    S224.841,252.566,213.813,252.566z"/>
	</g>
</g>
<g>
	<g>
		<path d="M272.589,311.347c-11.027,0-19.998,8.972-19.998,20s8.971,20,19.998,20c11.027,0,19.998-8.972,19.998-20    S283.617,311.347,272.589,311.347z"/>
	</g>
</g>
<g>
	<g>
		<path d="M331.363,252.566c-11.027,0-19.998,8.972-19.998,20s8.971,20,19.998,20c11.027,0,19.998-8.972,19.998-20    C351.361,261.538,342.39,252.566,331.363,252.566z"/>
	</g>
</g>
<g>
	<g>
		<path d="M441.878,103.26c-41.665-41.669-95.985-66.07-154.291-69.651V0h-14.999c-72.6,0-140.907,28.221-192.338,79.463    C28.836,130.69,0.358,198.867,0.063,271.436L0,286.497h33.588c3.346,58.716,27.79,113.452,69.71,155.375    c45.219,45.223,105.342,70.129,169.29,70.129s124.07-24.906,169.29-70.129C487.098,396.649,512,336.521,512,272.566    S487.099,148.483,441.878,103.26z M30.584,256.497C38.571,135.244,136.305,37.918,257.591,30.46v68.495    c-40.755,3.447-78.639,20.907-107.949,50.034c-29.317,29.132-46.971,66.859-50.586,107.508H30.584z M272.589,482.001    c-110.791,0-201.746-86.493-208.941-195.504h64.651l0.062-14.939c0.322-78.979,65.022-143.234,144.228-143.234h14.999v-64.65    c108.497,7.717,194.416,98.454,194.416,208.893C482.003,388.049,388.06,482.001,272.589,482.001z"/>
	</g>
</g>
<g>
</g>
<g>
</g>
<g>
</g>
<g>
</g>
<g>
</g>
<g>
</g>
<g>
</g>
<g>
</g>
<g>
</g>
<g>
</g>
<g>
</g>
<g>
</g>
<g>
</g>
<g>
</g>
<g>
</g>
</svg>
