<svg id="Capa_1" enable-background="new 0 0 512.054 512.054" height="512" viewBox="0 0 512.054 512.054" width="512" xmlns="http://www.w3.org/2000/svg"><g><path d="m451.027 195c0-107.523-87.477-195-195-195s-195 87.477-195 195c0 68.894 35.912 129.557 90 164.254v152.801l105-38.383 105 38.383v-152.801c54.088-34.697 90-95.36 90-164.254zm-270 179.991c18.712 7.826 38.889 12.824 60 14.437v57.784l-60 21.933zm150 94.155-60-21.933v-57.784c21.111-1.614 41.289-6.611 60-14.437zm-75-109.146c-90.981 0-165-74.019-165-165s74.019-165 165-165 165 74.019 165 165-74.018 165-165 165z"/><path d="m351.486 99.541c-25.498-25.499-59.399-39.541-95.459-39.541s-69.961 14.042-95.459 39.541c-52.637 52.637-52.637 138.283 0 190.919l21.213-21.213c-40.939-40.94-40.939-107.553 0-148.493 19.832-19.832 46.199-30.754 74.246-30.754s54.414 10.922 74.246 30.753c6.322 6.322 11.665 13.258 16.034 20.615l-56.848 23.547c-8.242-9.15-20.175-14.915-33.432-14.915-24.813 0-45 20.187-45 45s20.187 45 45 45 45-20.187 45-45c0-.797-.022-1.59-.063-2.377l56.788-23.523c8.774 34.704-.381 73.048-27.479 100.146l21.213 21.213c52.637-52.636 52.637-138.282 0-190.918zm-95.459 110.459c-8.271 0-15-6.729-15-15s6.729-15 15-15 15 6.729 15 15-6.728 15-15 15z"/><path d="m226.027 285h60v30h-60z"/></g></svg>