<svg id="Capa_1" enable-background="new 0 0 512.01 512.01" height="512" viewBox="0 0 512.01 512.01" width="512" xmlns="http://www.w3.org/2000/svg"><g><path d="m405.532 76.513h30v30h-30z" transform="matrix(.707 -.707 .707 .707 58.462 324.165)"/><path d="m341.607 97.794h30v30h-30z" transform="matrix(.707 -.707 .707 .707 24.691 285.196)"/><path d="m384.21 140.397h30v30h-30z" transform="matrix(.707 -.707 .707 .707 7.044 327.799)"/><path d="m299.004 140.396h30v30h-30z" transform="matrix(.707 -.707 .707 .707 -17.912 267.549)"/><path d="m341.608 182.999h30v30h-30z" transform="matrix(.707 -.707 .707 .707 -35.559 310.152)"/><path d="m256.401 183h30v30h-30z" transform="matrix(.707 -.707 .707 .707 -60.516 249.902)"/><path d="m299.004 225.603h30v30h-30z" transform="matrix(.707 -.707 .707 .707 -78.163 292.505)"/><path d="m378.589 298.861c25.945-33.112 67.765-87.837 96.71-138.338 40.607-70.848 47.449-118.187 20.915-144.721-26.524-26.523-73.807-19.707-144.554 20.838-45.974 26.347-93.431 61.636-138.487 96.812-6.215-8.459-22.153-23.613-29.797-31.317-7.326 25.638-18.166 54.273-38.297 73.169l-91.871 91.871c-37.485 37.485-40.762 96.414-9.847 137.658l-43.361 43.361 63.815 63.815 43.361-43.361c41.244 30.915 100.173 27.638 137.658-9.847l91.924-91.924c18.616-20.017 47.644-30.93 73.117-38.245-7.692-7.631-22.84-23.563-31.286-29.771zm-12.012-236.193c54.963-31.498 93.468-40.609 108.424-25.653 14.965 14.965 5.828 53.53-25.73 108.59-28.639 49.969-70.909 104.964-96.199 137.179-20.472-10.162-43.202-15.548-66.799-15.566-17.229-.013-33.999 2.833-49.776 8.294 5.461-15.777 8.307-32.546 8.294-49.775-.018-23.588-5.399-46.308-15.551-66.772 44.878-35.098 92.145-70.398 137.337-96.297zm-292.155 225.72 91.818-91.818c10.897-10.788 20.554-24.031 28.01-38.165 13.344 19.678 20.524 42.934 20.542 67.355.024 32.402-12.51 62.781-35.3 85.545l-94.374 94.374-10.695-10.695c-29.389-29.389-29.389-77.208-.001-106.596zm-10.607 181.195-21.389-21.389 21.39-21.39.088.088 21.213 21.213.088.088zm251.677-123.866-91.871 91.871c-29.388 29.388-77.208 29.388-106.596 0l-10.695-10.695 94.368-94.368.012-.012c22.759-22.784 53.138-35.318 85.541-35.295 24.421.019 47.675 7.198 67.353 20.541-14.128 7.451-27.358 17.096-38.112 27.958z"/></g></svg>