<svg id="Capa_1" enable-background="new 0 0 505.617 505.617" height="512" viewBox="0 0 505.617 505.617" width="512" xmlns="http://www.w3.org/2000/svg"><g><path d="m365.747 302.851 139.87-50.042-139.87-50.041 56.434-119.33-119.329 56.436-50.043-139.874-50.041 139.873-119.33-56.435 56.436 119.33-139.873 50.041 139.873 50.042-56.436 119.329 119.33-56.434 50.041 139.872 50.042-139.872 119.329 56.434zm-6.53-156.451-21.853 46.213-17.94-6.419-6.419-17.938zm-212.816 0 46.213 21.855-6.418 17.938-17.939 6.419zm0 212.817 21.855-46.212 17.939 6.418 6.418 17.939zm63.262-63.261-120.604-43.147 120.604-43.147 43.146-120.603 43.148 120.603 120.602 43.147-120.602 43.147-43.148 120.602zm109.761 23.467 17.94-6.418 21.853 46.212-46.212-21.854z"/></g></svg>