<svg id="Capa_1" enable-background="new 0 0 512 512" height="512" viewBox="0 0 512 512" width="512" xmlns="http://www.w3.org/2000/svg"><g><path d="m290.611 286.051-34.611 13.801-34.611-13.8-5.354 36.875-29.258 23.073 29.257 23.074 5.354 36.875 34.611-13.8 34.611 13.8 5.354-36.875 29.259-23.074-29.257-23.074zm-22.616 66.875-1.606 11.068-10.389-4.142-10.389 4.142-1.606-11.068-8.782-6.926 8.782-6.926 1.606-11.068 10.389 4.142 10.389-4.142 1.606 11.068 8.782 6.926z"/><path d="m512 226c0-74.439-61.01-135-136-135-5.07 0-10.073.289-15 .836v-60.836h-15c-38.147 0-71.61 20.452-90 50.963-18.39-30.511-51.853-50.963-90-50.963h-15v60.836c-4.927-.547-9.93-.836-15-.836-74.99 0-136 60.561-136 135 0 69.664 53.434 127.168 121.753 134.26 7.147 67.761 64.624 120.74 134.247 120.74s127.1-52.979 134.247-120.74c68.319-7.092 121.753-64.596 121.753-134.26zm-181-163.493v36.223c-23.74 8.419-44.453 23.289-60 42.51v-5.24c0-36.219 25.81-66.524 60-73.493zm-150 0c34.19 6.969 60 37.275 60 73.493v5.24c-15.547-19.221-36.26-34.09-60-42.51zm-151 163.493c0-57.897 47.552-105 106-105 53.132 0 97.167 39.67 104.057 90.946-61.728 7.296-110.825 56.399-118.113 118.129-51.828-6.832-91.944-50.898-91.944-104.075zm226 225c-57.897 0-105-47.103-105-105s47.103-105 105-105 105 47.103 105 105-47.103 105-105 105zm134.056-120.925c-7.288-61.73-56.385-110.833-118.113-118.129 6.89-51.276 50.925-90.946 104.057-90.946 58.448 0 106 47.103 106 105 0 53.177-40.116 97.243-91.944 104.075z"/></g></svg>