<svg id="Capa_1" enable-background="new 0 0 512 512" height="512" viewBox="0 0 512 512" width="512" xmlns="http://www.w3.org/2000/svg"><g><path d="m484.663 158.882c-15.743-23.974-37.257-43.046-63.946-56.686-32.564-16.642-72.842-25.08-119.717-25.08-15.881 0-31.247 4.231-45 12.318-13.752-8.088-29.118-12.318-45-12.318-46.875 0-87.153 8.438-119.717 25.081-26.689 13.64-48.203 32.712-63.946 56.686-26.75 40.734-27.325 81.421-27.337 83.233 0 107.523 87.925 195 196 195h120c108.075 0 196-87.477 196-195v-.1c-.012-1.712-.587-42.399-27.337-83.134zm-432.25 16.467c29.731-45.276 83.088-68.233 158.587-68.233 12.879 0 25.311 4.254 35.951 12.303l9.049 6.844 9.049-6.844c10.642-8.049 23.073-12.303 35.951-12.303 74.838 0 127.94 22.576 157.835 67.101 13.231 19.708 18.908 39.723 21.343 52.899h-104.178c-8.432 0-12.038-3.252-19.394-10.607-8.185-8.184-19.394-19.393-40.606-19.393s-32.422 11.209-40.606 19.393c-7.355 7.355-10.962 10.607-19.394 10.607s-12.038-3.252-19.394-10.607c-8.185-8.184-19.394-19.393-40.606-19.393s-32.422 11.209-40.606 19.393c-7.355 7.355-10.962 10.607-19.394 10.607h-104.238c2.35-12.842 7.835-32.25 20.651-51.767zm290.42 69.39c-7.814 4.958-14.658 10.427-21.203 15.663-17.918 14.334-33.392 26.713-65.63 26.713s-47.712-12.379-65.63-26.713c-6.545-5.237-13.389-10.705-21.203-15.663 2.792-2.373 5.228-4.805 7.44-7.017 7.355-7.355 10.962-10.607 19.394-10.607s12.038 3.252 19.394 10.607c8.185 8.184 19.394 19.393 40.606 19.393s32.422-11.209 40.606-19.393c7.355-7.355 10.962-10.607 19.394-10.607s12.038 3.252 19.394 10.607c2.21 2.212 4.647 4.645 7.438 7.017zm-26.833 162.377h-120c-86.474 0-157.704-66.067-165.314-150h75.33c32.228.004 47.7 12.381 65.615 26.713 19.503 15.603 41.608 33.287 84.37 33.287s64.867-17.684 84.37-33.287c17.918-14.334 33.392-26.713 65.63-26.713h75.306c-7.652 83.976-78.863 150-165.307 150z"/><path d="m110.751 61.951-9.502-28.455c-37.788 12.619-70.085 32.501-95.993 59.093l21.488 20.935c22.537-23.132 50.801-40.484 84.007-51.573z"/><path d="m506.744 92.589c-25.907-26.592-58.203-46.474-95.993-59.094l-9.502 28.455c33.207 11.09 61.471 28.441 84.007 51.573z"/><path d="m400.357 450.707 11.285 27.797c36.413-14.783 69.473-38.258 95.606-67.886l-22.498-19.845c-23.077 26.164-52.26 46.889-84.393 59.934z"/><path d="m27.249 390.773-22.498 19.845c26.135 29.628 59.194 53.103 95.606 67.886l11.285-27.796c-32.131-13.046-61.314-33.771-84.393-59.935z"/></g></svg>