<svg id="Capa_1" enable-background="new 0 0 512.054 512.054" height="512" viewBox="0 0 512.054 512.054" width="512" xmlns="http://www.w3.org/2000/svg"><g><path d="m509.569 220.108c-7.903-57.555-35.88-109.673-75.675-148.138-39.89-38.556-89.933-62.685-144.72-69.779l-16.925-2.191v100.553h-32.5v-100.553l-16.926 2.192c-54.72 7.085-104.716 31.17-144.583 69.65-39.77 38.385-67.574 89.212-75.756 147.895l42.913 57.507-39.364 35.018 2.334 8.902c29.479 112.393 131.308 190.89 247.632 190.89 116.45 0 218.308-78.601 247.7-191.144l2.322-8.894-39.087-34.772zm-469.695 102.211 66.513-59.184-19.941-22.413-18.552 16.506-33.631-45.068c8.903-45.376 31.226-86.316 64.812-118.732 31.039-29.959 69.021-50.032 110.675-58.644v68.352c-39.32 9.635-68.583 45.17-68.583 87.418v15l62.5.001v42.371c0 25.045-7.078 49.469-20.468 70.633-12.996 20.54-19.865 44.246-19.865 68.554 0 32.586 12.357 63.695 34.301 87.29-74.185-19.822-134.692-76.618-157.761-152.084zm314.239 137.342c-41.258-.755-74.595-34.529-74.595-75.964h-30c0 40.078 22.359 75.029 55.257 93.043-15.776 3.481-33.109 5.262-53.594 5.262 0 0-13.618-10.382-23.784-20.516-20.248-20.184-34.064-45.782-34.064-74.373 0-18.621 5.262-36.78 15.217-52.514 16.432-25.97 25.116-55.941 25.116-86.673v-72.371h-60.602c6.677-25.85 30.194-45 58.101-45h60.001v200h15c50.344 0 98.92 20.686 133.833 56.851-22.127 30.956-51.744 55.799-85.886 72.255zm118.083-137.574c-4.162 13.67-9.558 26.724-16.034 39.062-36.475-35.167-84.51-56.52-134.997-60.069v-170.527h47.5v-30h-66.417v-65.77c41.71 8.623 79.735 28.736 110.796 58.759 33.611 32.488 55.918 73.512 64.763 118.968l-33.369 44.718-18.552-16.506-19.941 22.413z"/></g></svg>