<svg id="Capa_1" enable-background="new 0 0 512 512" height="512" viewBox="0 0 512 512" width="512" xmlns="http://www.w3.org/2000/svg"><g><path d="m437.02 74.98c-48.353-48.351-112.64-74.98-181.02-74.98s-132.667 26.629-181.02 74.98c-48.351 48.353-74.98 112.64-74.98 181.02s26.629 132.667 74.98 181.02c48.353 48.351 112.64 74.98 181.02 74.98s132.667-26.629 181.02-74.98c48.351-48.353 74.98-112.64 74.98-181.02s-26.629-132.667-74.98-181.02zm-181.02 407.02c-124.617 0-226-101.383-226-226s101.383-226 226-226 226 101.383 226 226-101.383 226-226 226z"/><path d="m165.5 210.5c-25.089 0-45.5 20.411-45.5 45.5s20.411 45.5 45.5 45.5 45.5-20.411 45.5-45.5-20.411-45.5-45.5-45.5zm0 61c-8.547 0-15.5-6.953-15.5-15.5s6.953-15.5 15.5-15.5 15.5 6.953 15.5 15.5-6.953 15.5-15.5 15.5z"/><path d="m346.5 210.5c-25.089 0-45.5 20.411-45.5 45.5s20.411 45.5 45.5 45.5 45.5-20.411 45.5-45.5-20.411-45.5-45.5-45.5zm0 61c-8.547 0-15.5-6.953-15.5-15.5s6.953-15.5 15.5-15.5 15.5 6.953 15.5 15.5-6.953 15.5-15.5 15.5z"/><path d="m320.578 70.892c-18.492-6.45-38.272-3.632-54.273 7.733-3.825 2.717-7.267 5.852-10.305 9.308-3.037-3.455-6.48-6.591-10.305-9.308-16.002-11.366-35.783-14.184-54.273-7.733-78.608 27.421-131.422 101.811-131.422 185.108s52.814 157.687 131.422 185.108c6.524 2.276 13.207 3.397 19.83 3.397 12.147 0 24.088-3.776 34.443-11.131 3.825-2.717 7.267-5.852 10.305-9.308 3.037 3.455 6.48 6.591 10.305 9.308 10.356 7.356 22.295 11.131 34.443 11.131 6.622 0 13.307-1.122 19.83-3.397 78.608-27.421 131.422-101.811 131.422-185.108s-52.814-157.687-131.422-185.108zm-92.255 338.024c-7.976 5.665-17.824 7.073-27.021 3.866-66.573-23.223-111.302-86.229-111.302-156.782s44.729-133.559 111.303-156.782c3.24-1.13 6.56-1.688 9.852-1.688 6.051 0 12.003 1.884 17.169 5.553 8.056 5.723 12.676 14.664 12.676 24.532v256.77c0 9.868-4.62 18.809-12.677 24.531zm82.374 3.866c-9.195 3.208-19.044 1.8-27.021-3.866-8.056-5.722-12.676-14.663-12.676-24.531v-256.77c0-9.868 4.62-18.81 12.677-24.531 7.976-5.665 17.825-7.073 27.021-3.866 66.573 23.223 111.302 86.229 111.302 156.782s-44.729 133.559-111.303 156.782z"/></g></svg>