<svg id="Capa_1" enable-background="new 0 0 510 510" height="512" viewBox="0 0 510 510" width="512" xmlns="http://www.w3.org/2000/svg"><g><path d="m390 285v-15c0-6.05 2.705-11.654 7.258-15.41 44.469 4.594 82.742-30.429 82.742-74.59 0-36.663-26.445-67.266-61.261-73.739-6.472-34.816-37.076-61.261-73.739-61.261s-67.266 26.442-73.738 61.258c-13.786 2.552-26.475 8.903-36.72 18.229-18.547-21.838-45.388-10.646-63.216-7.79l-27.788-37.56c-27.633-37.336-80.493-45.234-117.843-17.603l-16.674 12.343 48.029 64.903c6.043 8.17 13.499 15.157 21.954 20.63-1.215 3.672-2.477 6.997-3.959 9.562-6.977 12.067-31.045 26.797-31.045 51.648 0 17.274 11.615 29.614 20.948 39.53 9.891 10.506 11.069 12.057 15.074 24.85h-80.022v79.542l66.973 100.458h376.055l66.972-100.458v-79.542zm-60 0c-.462-11 1.53-20.205-3.272-32.825 11.792 3.766 24.736 3.771 36.545 0-4.804 12.623-2.802 21.622-3.272 32.825zm-59.853-31.492c7.85 1.582 15.284 1.837 22.595 1.082 4.553 3.757 7.258 9.361 7.258 15.41v15h-51.023c5.395-17.235 6.589-14.875 21.17-31.492zm14.853-118.508h15v-15c0-24.813 20.186-45 45-45s45 20.187 45 45v15h15c24.814 0 45 20.187 45 45s-20.186 45-45 45c-17.831 0-27.493-9.867-33.202-12.853-5.837 3.739-12.524 12.853-26.798 12.853-14.281 0-20.93-9.094-26.798-12.853-5.736 2.999-15.523 12.99-33.455 12.852 3.31-28.077-24.79-43.824-31.605-57.549-1.904-3.841-3.586-9.307-4.865-13.466 8.373-11.836 21.972-18.984 36.723-18.984zm-233.55-54.221c23.136-11.641 52.055-5.305 67.972 16.202l10.76 14.545c-18.691-1.813-31.752 5.22-40.021 18.89-8.673-7.201-9.557-11.008-38.711-49.637zm35.343 158.809c-6.289-6.682-12.793-13.592-12.793-18.968 0-9.337 18.497-21.902 27.017-36.633 8.616-14.904 10.715-37.41 18.233-41.762 3.919-2.268 13.31-.176 21.594 1.669 19.11 4.254 21.087 3.163 23.656 3.446 17.129 0 38.362-9.097 45.24-5.12 7.895 4.573 9.663 28.763 19.742 44.202 8.748 13.393 25.518 25.333 25.518 34.198 0 9.327-18.569 22.006-27.01 36.622-5.119 8.836-7.541 18.957-10.46 27.758h-106.06c-7.778-23.448-7.17-26.814-24.677-45.412zm393.207 75.412v30h-450v-30zm-53.027 120h-343.946l-40-60h423.945z"/><path d="m150 210h30v30h-30z"/></g></svg>