<svg id="Capa_1" enable-background="new 0 0 504.961 504.961" height="512" viewBox="0 0 504.961 504.961" width="512" xmlns="http://www.w3.org/2000/svg"><g><path d="m504.961 215.801-24.961-16.641-25.547 38.32h-37.662c-3.101-34.25-16.707-65.512-37.57-90.527l32.358-32.358-21.213-21.213-32.358 32.358c-25.016-20.863-56.277-34.469-90.527-37.57v-37.662l38.32-25.547-16.641-24.961-36.68 24.453-36.679-24.453-16.641 24.961 38.32 25.547v37.662c-34.25 3.102-65.512 16.707-90.527 37.57l-32.358-32.358-21.213 21.213 32.358 32.358c-20.863 25.016-34.47 56.277-37.57 90.527h-37.662l-25.547-38.32-24.961 16.641 24.453 36.68-24.453 36.679 24.961 16.641 25.547-38.32h37.662c3.101 34.25 16.707 65.512 37.57 90.527l-32.358 32.358 21.213 21.213 32.358-32.358c25.016 20.863 56.277 34.469 90.527 37.57v37.662l-38.32 25.547 16.641 24.961 36.68-24.453 36.68 24.453 16.64-24.961-38.32-25.547v-37.662c34.25-3.102 65.512-16.707 90.527-37.57l32.358 32.358 21.213-21.213-32.358-32.358c20.863-25.016 34.469-56.277 37.57-90.527h37.662l25.547 38.32 24.961-16.641-24.453-36.68zm-252.481 171.679c-74.439 0-135-60.56-135-135 0-74.439 60.561-135 135-135s135 60.561 135 135c0 74.44-60.56 135-135 135z"/><path d="m297.48 162.48c-24.814 0-45 20.187-45 45s20.186 45 45 45 45-20.187 45-45-20.186-45-45-45zm0 60c-8.271 0-15-6.729-15-15s6.729-15 15-15c8.272 0 15 6.729 15 15 0 8.272-6.728 15-15 15z"/><path d="m207.48 252.48c-24.813 0-45 20.187-45 45 0 24.814 20.187 45 45 45s45-20.186 45-45c0-24.813-20.186-45-45-45zm0 60c-8.271 0-15-6.728-15-15 0-8.271 6.729-15 15-15s15 6.729 15 15c0 8.272-6.728 15-15 15z"/><path d="m177.48 192.48h30v30h-30z"/><path d="m297.48 282.48h30v30h-30z"/></g></svg>