<svg id="Capa_1" enable-background="new 0 0 512 512" height="512" viewBox="0 0 512 512" width="512" xmlns="http://www.w3.org/2000/svg"><path d="m512 191.626-63.905-63.905 42.596-42.596-63.816-63.816-42.596 42.596-63.905-63.905-42.603 42.602-21.301-21.301-63.816 63.817 85.206 85.206-107.536 107.535-85.206-85.206-63.816 63.816 21.302 21.302-42.604 42.603 63.905 63.905-42.596 42.596 63.816 63.816 42.596-42.596 63.905 63.905 42.603-42.602 21.301 21.301 63.816-63.817-85.205-85.205 107.535-107.535 85.205 85.205 63.816-63.816-21.301-21.301zm-85.125-127.891 21.391 21.39-21.383 21.383-21.39-21.39zm-106.501-21.308 149.2 149.199-21.391 21.39-149.199-149.2zm-235.249 405.838-21.391-21.39 21.384-21.383 21.39 21.39zm106.501 21.308-149.2-149.199 21.391-21.39 149.199 149.2zm63.903-21.302-.087-.087-191.626-191.626-.089-.089 21.391-21.39 191.802 191.802zm-42.602-127.808-21.39-21.39 107.535-107.535 21.39 21.39zm235.344-64.933-21.391 21.39-191.801-191.802 21.391-21.39.088.088 191.626 191.625z"/></svg>