<svg id="Capa_1" enable-background="new 0 0 512 512" height="512" viewBox="0 0 512 512" width="512" xmlns="http://www.w3.org/2000/svg"><g><path d="m346.5 150.5c0-49.902-40.598-90.5-90.5-90.5s-90.5 40.598-90.5 90.5v90.5h90.5c49.902 0 90.5-40.598 90.5-90.5zm-151 0c0-33.36 27.141-60.5 60.5-60.5s60.5 27.14 60.5 60.5-27.141 60.5-60.5 60.5h-60.5z"/><path d="m316.5 361.5c0 33.36-27.141 60.5-60.5 60.5s-60.5-27.14-60.5-60.5v-60.5h60.5c82.986 0 150.5-67.514 150.5-150.5s-67.514-150.5-150.5-150.5-150.5 67.514-150.5 150.5v211c0 82.986 67.514 150.5 150.5 150.5s150.5-67.514 150.5-150.5v-15h-90zm28.757 15h30.314c-7.405 59.393-58.205 105.5-119.571 105.5-66.444 0-120.5-54.056-120.5-120.5v-211c0-66.444 54.056-120.5 120.5-120.5s120.5 54.056 120.5 120.5-54.056 120.5-120.5 120.5h-90.5v90.5c0 49.902 40.598 90.5 90.5 90.5 44.794 0 82.091-32.71 89.257-75.5z"/></g></svg>