<svg id="Capa_1" enable-background="new 0 0 512 512" height="512" viewBox="0 0 512 512" width="512" xmlns="http://www.w3.org/2000/svg"><g><path d="m467 211h-20c-7.074 0-13.77 1.646-19.731 4.567-4.406-18.672-11.797-36.2-21.635-52.062 6.304-2.148 12.226-5.724 17.244-10.742l14.143-14.143c17.546-17.545 17.546-46.094 0-63.639-17.544-17.545-46.094-17.546-63.64 0l-14.144 14.143c-5.015 5.015-8.59 10.932-10.738 17.232-15.858-9.842-33.384-17.237-52.053-21.649 2.913-5.956 4.554-12.643 4.554-19.707v-20c0-24.813-20.187-45-45-45s-45 20.187-45 45v20c0 7.058 1.637 13.739 4.546 19.69-18.669 4.404-36.197 11.792-52.057 21.626-2.149-6.286-5.721-12.188-10.726-17.194l-14.143-14.141c-17.546-17.547-46.096-17.545-63.64 0-17.546 17.545-17.546 46.094 0 63.64l14.143 14.142c5.002 5.003 10.901 8.573 17.182 10.723-9.838 15.857-17.23 33.381-21.639 52.048-5.945-2.902-12.618-4.534-19.666-4.534h-20c-24.813 0-45 20.187-45 45s20.187 45 45 45h20c7.048 0 13.721-1.632 19.666-4.533 4.409 18.667 11.801 36.191 21.639 52.048-6.281 2.15-12.179 5.72-17.182 10.723l-14.143 14.142c-17.546 17.545-17.546 46.094 0 63.639 8.773 8.774 20.295 13.159 31.82 13.159 11.521 0 23.048-4.387 31.819-13.159l14.144-14.143c5.005-5.005 8.576-10.908 10.725-17.193 15.861 9.834 33.388 17.222 52.057 21.626-2.908 5.952-4.545 12.633-4.545 19.691v20c0 24.813 20.187 45 45 45s45-20.187 45-45v-20c0-7.064-1.641-13.751-4.554-19.707 18.669-4.411 36.195-11.807 52.053-21.649 2.148 6.3 5.723 12.217 10.738 17.233l14.143 14.142c8.772 8.773 20.296 13.159 31.819 13.159 11.524 0 23.048-4.386 31.82-13.159 17.546-17.545 17.546-46.094 0-63.64l-14.143-14.142c-5.019-5.019-10.939-8.595-17.243-10.743 9.838-15.861 17.229-33.39 21.635-52.062 5.962 2.922 12.658 4.568 19.732 4.568h20c24.813 0 45-20.187 45-45s-20.187-45-45-45zm-211.037 191c-80.179 0-145.46-64.968-145.988-145.025.007-.325.025-.648.025-.975s-.018-.65-.025-.975c.528-80.057 65.809-145.025 145.988-145.025 80.505 0 146 65.495 146 146s-65.495 146-146 146zm124.487-291.664 14.143-14.143c5.852-5.849 15.366-5.848 21.214 0 5.849 5.849 5.849 15.365 0 21.213l-14.143 14.143c-5.85 5.85-15.364 5.849-21.214 0h.001c-5.848-5.848-5.848-15.364-.001-21.213zm-139.45-65.336c0-8.271 6.729-15 15-15s15 6.729 15 15v20c0 8.271-6.729 15-15 15s-15-6.729-15-15zm-144.807 51.194c2.925-2.924 6.766-4.386 10.606-4.386 3.842 0 7.683 1.462 10.607 4.387l14.142 14.141c5.849 5.849 5.849 15.365 0 21.214h.001c-5.85 5.85-15.364 5.848-21.214 0l-14.143-14.142c-5.847-5.849-5.847-15.366.001-21.214zm-31.193 174.806h-20c-8.271 0-15-6.729-15-15s6.729-15 15-15h20c8.074 0 14.659 6.416 14.97 14.414-.001.196-.007.39-.007.586s.007.39.007.586c-.311 7.998-6.896 14.414-14.97 14.414zm66.55 130.664-14.143 14.143c-5.85 5.85-15.364 5.849-21.214 0-5.849-5.849-5.849-15.365 0-21.213l14.143-14.143c2.925-2.924 6.766-4.386 10.606-4.386 3.842 0 7.683 1.462 10.606 4.386 5.849 5.848 5.849 15.364.002 21.213zm139.45 65.336c0 8.271-6.729 15-15 15s-15-6.729-15-15v-20c0-8.271 6.729-15 15-15s15 6.729 15 15zm144.807-51.194c-5.85 5.85-15.364 5.848-21.214 0l-14.142-14.141c-5.849-5.849-5.849-15.365 0-21.214h-.001c5.851-5.849 15.365-5.847 21.214 0l14.143 14.142c5.848 5.848 5.848 15.365 0 21.213zm51.193-144.806h-20c-8.271 0-15-6.729-15-15s6.729-15 15-15h20c8.271 0 15 6.729 15 15s-6.729 15-15 15z"/><path d="m255.963 140c-63.963 0-116 52.038-116 116s52.037 116 116 116 116-52.038 116-116-52.037-116-116-116zm15 116c0 8.271-6.729 15-15 15s-15-6.729-15-15 6.729-15 15-15 15 6.729 15 15zm4.39-40.602c-1.423-.682-2.889-1.286-4.39-1.818v-42.244c12.558 2.219 24.18 7.166 34.236 14.215zm-34.39-1.818c-1.5.532-2.967 1.135-4.389 1.818l-29.846-29.846c10.056-7.049 21.677-11.995 34.236-14.215v42.243zm-25.602 23.031c-.682 1.423-1.285 2.889-1.818 4.389h-42.243c2.219-12.558 7.166-24.18 14.215-34.236zm-1.818 34.389c.532 1.5 1.135 2.967 1.818 4.389l-29.846 29.847c-7.05-10.056-11.996-21.678-14.215-34.236zm23.03 25.602c1.423.682 2.889 1.286 4.39 1.818v42.244c-12.558-2.219-24.18-7.166-34.236-14.215zm34.39 1.818c1.5-.532 2.967-1.135 4.389-1.818l29.846 29.846c-10.056 7.049-21.677 11.995-34.236 14.215v-42.243zm25.602-23.031c.682-1.423 1.285-2.889 1.818-4.389h42.243c-2.219 12.558-7.166 24.18-14.215 34.236zm1.818-34.389c-.532-1.5-1.135-2.966-1.817-4.389l29.846-29.847c7.049 10.056 11.995 21.677 14.215 34.236z"/></g></svg>