<svg id="Capa_1" enable-background="new 0 0 512 512" height="512" viewBox="0 0 512 512" width="512" xmlns="http://www.w3.org/2000/svg"><g><path d="m466 91h46v-30h-46c-24.813 0-45 20.187-45 45v15h-61v330h152v-330h-61v-15c0-8.271 6.729-15 15-15zm-45 60v60h-31v-60zm-31 270v-180h92v180zm92-270v60h-31v-60z"/><path d="m308.033 219.033c29.241-29.242 29.241-76.823 0-106.066-29.242-29.242-76.824-29.242-106.066 0l-10.606 10.607 106.066 106.066zm-72.429-93.642c16.726-7.969 37.387-5.039 51.217 8.789 13.827 13.829 16.758 34.491 8.789 51.216z"/><path d="m240 241c-2.628 0-5.212.188-7.752.518-3.342-5.916-7.683-11.279-12.895-15.811-10.91-9.484-24.885-14.707-39.353-14.707-2.606 0-5.191.166-7.746.495-10.462-18.48-30.302-30.495-52.254-30.495s-41.792 12.015-52.254 30.495c-2.555-.329-5.14-.495-7.746-.495-33.084 0-60 26.916-60 60 0 10.925 2.949 21.167 8.072 30h-8.072v15c0 60.298 38.435 113.623 95.639 132.691l2.309.77h134.105l2.309-.77c57.203-19.068 95.638-72.393 95.638-132.691v-15h-30c0-33.084-26.916-60-60-60zm30 60h-60c0-16.542 13.458-30 30-30s30 13.458 30 30zm-240-30c0-16.542 13.458-30 30-30 8.97 0 13.344 3.454 26.644 8.278l4.406-16.187c3.54-13.007 15.445-22.091 28.95-22.091s25.41 9.084 28.95 22.091l4.406 16.187c13.27-4.814 17.659-8.278 26.644-8.278 9.657 0 18.458 4.705 23.993 12.038-14.559 10.958-23.993 28.378-23.993 47.962h-45v-30h-30v30h-45c-16.542 0-30-13.458-30-30zm197.105 148.46h-124.21c-38.941-13.905-66.367-48.198-71.875-88.46h267.96c-5.508 40.262-32.934 74.555-71.875 88.46z"/><path d="m105 151c24.813 0 45-20.187 45-45s-20.187-45-45-45-45 20.187-45 45 20.187 45 45 45zm0-60c8.271 0 15 6.729 15 15s-6.729 15-15 15-15-6.729-15-15 6.729-15 15-15z"/></g></svg>