<svg id="Capa_1" enable-background="new 0 0 511.887 511.887" height="512" viewBox="0 0 511.887 511.887" width="512" xmlns="http://www.w3.org/2000/svg"><g><path d="m498.728 434.618-110.459-110.46-21.325 21.325-23.848-23.347c65.556-76.528 62.123-192.218-10.302-264.643-76.031-76.03-199.742-76.03-275.771 0-76.03 76.03-76.03 199.741 0 275.772 38.016 38.015 87.95 57.022 137.886 57.022 45.296 0 90.592-15.641 126.99-46.921l23.831 23.331-21.101 21.101 110.46 110.459c8.772 8.772 20.296 13.159 31.819 13.159s23.047-4.386 31.819-13.159c17.547-17.545 17.547-46.094.001-63.639zm-420.492-122.566c-64.333-64.333-64.333-169.012 0-233.345 32.167-32.167 74.42-48.25 116.673-48.25s84.506 16.083 116.673 48.25c64.333 64.333 64.333 169.012 0 233.345-64.335 64.333-169.012 64.333-233.346 0zm399.279 164.992c-5.848 5.848-15.363 5.848-21.213 0l-89.247-89.246 21.214-21.213 89.246 89.246c5.849 5.848 5.849 15.365 0 21.213z"/><path d="m209.908 120.379h-30v60h-60v30h60v60h30v-60h60v-30h-60z"/></g></svg>