<svg id="Capa_1" enable-background="new 0 0 512 512" height="512" viewBox="0 0 512 512" width="512" xmlns="http://www.w3.org/2000/svg"><g><g><path d="m256 512c-68.38 0-132.667-26.629-181.02-74.98-48.351-48.353-74.98-112.64-74.98-181.02s26.629-132.667 74.98-181.02c48.353-48.351 112.64-74.98 181.02-74.98s132.667 26.629 181.02 74.98c48.351 48.353 74.98 112.64 74.98 181.02s-26.629 132.667-74.98 181.02c-48.353 48.351-112.64 74.98-181.02 74.98zm0-482c-60.367 0-117.12 23.508-159.806 66.194s-66.194 99.439-66.194 159.806 23.508 117.12 66.194 159.806 99.439 66.194 159.806 66.194 117.12-23.508 159.806-66.194 66.194-99.439 66.194-159.806-23.508-117.12-66.194-159.806-99.439-66.194-159.806-66.194z"/></g><g><g><path d="m175.05 155.355h30v61.998h-30z"/></g><g><path d="m306.95 155.355h30v61.998h-30z"/></g></g><g><path d="m254.896 412.739c-26.255 0-47.615-21.36-47.615-47.615v-52.347c0-26.255 21.36-47.615 47.615-47.615s47.615 21.36 47.615 47.615v52.347c0 26.255-21.361 47.615-47.615 47.615zm0-117.577c-9.713 0-17.615 7.902-17.615 17.615v52.347c0 9.713 7.902 17.615 17.615 17.615s17.615-7.902 17.615-17.615v-52.347c0-9.713-7.903-17.615-17.615-17.615z"/></g><g><path d="m144.17 156.353h-30c0-37.036 30.132-67.167 67.168-67.167 14.904 0 29.023 4.783 40.83 13.832l-18.248 23.812c-6.524-5-14.333-7.643-22.582-7.643-20.494-.002-37.168 16.671-37.168 37.166z"/></g><g><path d="m394.271 156.353h-30c0-20.494-16.673-37.167-37.167-37.167-8.249 0-16.058 2.643-22.581 7.643l-18.25-23.811c11.807-9.049 25.926-13.832 40.831-13.832 37.036-.001 67.167 30.13 67.167 67.167z"/></g></g></svg>