<svg id="Capa_1" enable-background="new 0 0 512.04 512.04" height="512" viewBox="0 0 512.04 512.04" width="512" xmlns="http://www.w3.org/2000/svg"><g><path d="m511.749 334.811-.988-12.814-12.813-.988c-5.059-.39-50.12-3.125-73.948 20.703-15.805 15.805-19.629 38.861-11.086 56.92l-16.529 16.528 21.213 21.213 16.526-16.526c6.267 2.965 13.133 4.449 20.093 4.449 13.096 0 26.51-5.217 36.83-15.538 23.828-23.826 21.093-68.888 20.702-73.947zm-41.915 52.735c-8.071 8.072-20.162 9.118-26.951 2.329-6.788-6.788-5.743-18.878 2.329-26.95 5.49-5.49 15.856-9.466 29.191-11.196 2.575-.334 5.057-.56 7.358-.708-.823 12.351-3.764 28.362-11.927 36.525z"/><path d="m245.135 232.68-16.528-16.528-21.213 21.213 16.528 16.528c-8.542 18.059-4.719 41.115 11.085 56.92 18.52 18.521 49.868 20.993 65.29 20.993 4.419 0 7.532-.203 8.659-.29l12.814-.988.988-12.814c.39-5.06 3.123-50.122-20.704-73.949-15.805-15.805-38.86-19.628-56.919-11.085zm35.707 32.298c5.489 5.49 9.466 15.857 11.196 29.191.333 2.565.559 5.038.707 7.333-2.296-.149-4.769-.374-7.334-.707-13.334-1.73-23.701-5.707-29.19-11.196-8.072-8.072-9.117-20.163-2.329-26.95 3.01-3.011 7.062-4.48 11.345-4.48 5.374.001 11.113 2.317 15.605 6.809z"/><path d="m310.1 155.658 12.814.988c1.127.087 4.239.29 8.66.29 15.423 0 46.769-2.474 65.288-20.993 9.42-9.42 14.942-21.671 15.548-34.494.377-7.994-1.17-15.639-4.43-22.458l16.497-16.497-21.213-21.213-16.529 16.529c-18.06-8.543-41.117-4.72-56.92 11.086-23.827 23.827-21.094 68.889-20.704 73.949zm29.732-36.358c1.73-13.334 5.707-23.702 11.196-29.191 4.493-4.493 10.23-6.808 15.605-6.808 4.282 0 8.335 1.47 11.345 4.479 3.105 3.106 4.691 7.458 4.465 12.254-.253 5.349-2.665 10.567-6.794 14.696-5.49 5.49-15.856 9.466-29.191 11.196-2.565.333-5.037.558-7.333.707.148-2.295.374-4.768.707-7.333z"/><path d="m382 246.758h87v30h-87z"/><path d="m0 246.758h115v30h-115z"/><path d="m439 114.758h73v30h-73z"/><path d="m280 380.758h84v30h-84z"/><path d="m154 410.677h30c0-41.862-34.057-75.919-75.919-75.919h-108.081v30h108.081c25.32 0 45.919 20.599 45.919 45.919z"/><path d="m274 112.254h-30c0 25.642-20.861 46.504-46.504 46.504h-135.496v30h135.496c42.185 0 76.504-34.319 76.504-76.504z"/><path d="m172 96.758h32v-30h-32c-34.187 0-62 27.813-62 62h30c0-17.645 14.355-32 32-32z"/><path d="m94 407.758h-30c0 34.738 28.262 63 63 63h153.681v-30h-153.681c-18.196 0-33-14.804-33-33z"/></g></svg>