<svg id="Capa_1" enable-background="new 0 0 512 512" height="512" viewBox="0 0 512 512" width="512" xmlns="http://www.w3.org/2000/svg"><g><path d="m91.697 173.891c.095.934-.021-.615 0 0z"/><path d="m481 166c0-91.533-74.019-166-165-166-49.941 0-97.434 23.524-129.029 63.42-7.269-1.624-14.198-2.42-20.971-2.42-56.378 0-102.521 44.661-104.903 100.462-36.961 17.357-61.097 54.072-61.097 94.538 0 57.897 47.552 105 106 105h57.566l77.434 25.811v85.402l111.213-111.213h53.787c58.448 0 106-47.103 106-105 0-27.403-11.639-54.004-32.201-74.164.671-5.037 1.201-10.26 1.201-15.836zm-210 233.787v-34.598l-77.231-25.744 47.231-47.232v34.598l77.231 25.744zm211-143.787c0 41.355-34.094 75-76 75h-57.566l-77.434-25.811v-85.402l-111.213 111.213h-53.787c-41.906 0-76-33.645-76-75 0-31.435 20.686-59.763 51.474-70.49l10.713-3.732c-.368-5.546-.472-7.399-.49-7.886-.07-.688-.255-2.718-.697-7.972.045-41.318 33.673-74.92 75-74.92 6.936 0 14.056 1.227 22.408 3.861l10.523 3.319 6.302-9.058c25.754-37.02 67.162-59.122 110.767-59.122 74.439 0 135 61.009 135 136 0 6.689-1.097 13.149-3.214 27.643 2.037 2.449 34.214 22.998 34.214 62.357z"/><path d="m361 391h30v60h-30z"/><path d="m421 451h30v61h-30z"/><path d="m301 451h30v61h-30z"/><path d="m121 391h30v60h-30z"/><path d="m181 451h30v61h-30z"/><path d="m61 451h30v61h-30z"/></g></svg>