<svg id="Layer_1" enable-background="new 0 0 510 510" height="512" viewBox="0 0 510 510" width="512" xmlns="http://www.w3.org/2000/svg"><g><path d="m480 480v-270h-60v-90h-150v-30h75v-90h-105v120h-150v90h-60v270h-30v30h510v-30zm-165-420h-45v-30h45zm135 180v240h-30v-240zm-330 210h60v30h-60zm150-60h30v90h-30zm-30 90h-30v-90h30zm90-30h60v30h-60zm60-300v270h-60v-60h-150v60h-60v-270zm-330 90h30v240h-30z"/><path d="m360 180h-210v90h210zm-30 60h-150v-30h150z"/><path d="m150 300h30v30h-30z"/><path d="m210 300h30v30h-30z"/><path d="m270 300h30v30h-30z"/><path d="m330 300h30v30h-30z"/></g></svg>