<svg id="Capa_1" enable-background="new 0 0 512 512" height="512" viewBox="0 0 512 512" width="512" xmlns="http://www.w3.org/2000/svg"><g><path d="m120.5 105.312h30v-30.125h30.125v-30h-30.125v-30.125h-30v30.125h-30.125v30h30.125z"/><path d="m60.25 165.688h30v30h-30z"/><path d="m30.125 105.437h30v30h-30z"/><path d="m437.593 240.514c24.581-50.529 15.927-113.28-25.981-155.189-52.832-52.831-138.794-52.831-191.625.001l-180.364 180.362c-52.831 52.831-52.831 138.794 0 191.625s138.794 52.832 191.625 0l28.01-28.01c23.48 40.405 67.239 67.633 117.241 67.633 74.715 0 135.5-60.785 135.5-135.5.001-52.747-30.3-98.548-74.406-120.922zm43.336 105.924h-208.858c7.305-51.093 51.348-90.5 104.429-90.5s97.124 39.406 104.429 90.5zm-239.73-239.899c41.134-41.135 108.065-41.135 149.199 0 33.353 33.352 39.635 83.653 18.902 123.422-10.507-2.622-21.493-4.023-32.8-4.023-47.354 0-89.104 24.422-113.337 61.327l-101.345-101.345zm-31.163 329.562c-41.135 41.134-108.065 41.134-149.199 0l-.001-.001c-41.134-41.134-41.134-108.064 0-149.198l79.768-79.768 108.404 108.404c-5.179 14.341-8.009 29.796-8.009 45.9 0 13.263 1.924 26.083 5.493 38.206zm166.464 30.837c-53.081 0-97.124-39.407-104.429-90.5h208.858c-7.305 51.093-51.348 90.5-104.429 90.5z"/></g></svg>