<?xml version="1.0" encoding="iso-8859-1"?>
<!-- Generator: Adobe Illustrator 19.0.0, SVG Export Plug-In . SVG Version: 6.00 Build 0)  -->
<svg xmlns="http://www.w3.org/2000/svg" xmlns:xlink="http://www.w3.org/1999/xlink" version="1.1" id="Layer_1" x="0px" y="0px" viewBox="0 0 512 512" style="enable-background:new 0 0 512 512;" xml:space="preserve">
<g>
	<g>
		<path d="M395.121,243.538c-5.675,0-11.099,1.086-16.089,3.041l-84.908-83.087c19.877-12.731,34.73-27.969,43.198-44.439    c11.524-22.415,11.54-47.125,0.046-71.455C315.759,1.853,270.026-11.72,211.894,10.364    c-38.792,14.735-77.344,12.094-77.701,12.071l-4.139-0.32l-57.43,27.128l95.322,201.795l57.429-27.127l2.382-3.4    c0.177-0.254,14.703-20.744,39.437-39.555l88.558,86.659c-3.117,6.055-4.888,12.911-4.888,20.177    c0,13.84,6.39,26.213,16.372,34.334l-84.9,102.367h-92.694V512h202.563v-87.507h-69.184l76.891-92.709    c22.156-2.398,39.463-21.209,39.463-43.991C439.375,263.391,419.522,243.538,395.121,243.538z M182.887,209.348L114.316,64.182    l11.202-5.291l68.572,145.165L182.887,209.348z M218.662,182.758L157.576,53.44c17.217-1.145,41.074-4.548,65.437-13.802    c20.036-7.611,38.176-10.024,52.455-6.977c15.124,3.227,26.109,12.487,33.584,28.312c17.881,37.852-10.887,64.399-38.168,80.006    C248.262,153.921,230.482,170.187,218.662,182.758z M360.891,455.808v24.877h0H220.958v-24.877H360.891z M395.121,300.732    c-7.135,0-12.939-5.805-12.939-12.939s5.805-12.939,12.939-12.939c7.135,0.001,12.939,5.805,12.939,12.939    S402.255,300.732,395.121,300.732z"/>
	</g>
</g>
<g>
</g>
<g>
</g>
<g>
</g>
<g>
</g>
<g>
</g>
<g>
</g>
<g>
</g>
<g>
</g>
<g>
</g>
<g>
</g>
<g>
</g>
<g>
</g>
<g>
</g>
<g>
</g>
<g>
</g>
</svg>
