<svg id="Layer_1" enable-background="new 0 0 512 512" height="512" viewBox="0 0 512 512" width="512" xmlns="http://www.w3.org/2000/svg"><path d="m418.755 413.755h-17.904v-92.311l23-9.028v-125.603h-23.568c-5.181-58.503-45.292-107.124-99.283-124.812v-62.001h-90v62.001c-53.991 17.688-94.103 66.309-99.283 124.813h-23.569v125.602l23 9.028v92.311h-17.903c-45.901 0-83.244 37.344-83.244 83.245v15h491.998v-15c0-45.901-37.343-83.245-83.244-83.245zm-47.904 0h-99.851v-41.339l99.851-39.195zm-89.849 30v38.245h-50.005v-38.245zm-162.854-151.792v-75.15h32.851v88.045zm62.851-75.15h30v111.597l-30-11.776zm60 0h30v123.374l-14.999 5.888-15.001-5.888zm152.852 0v75.15l-32.852 12.896v-88.045h32.852zm-62.852 99.822-30 11.776v-111.598h30zm39.133-129.822h-99.132v-100.991c52.061 6.82 93.262 48.642 99.132 100.991zm-129.132-156.813h30v25.618c-9.833-1.027-20.167-1.027-30 0zm0 55.822v100.991h-99.133c5.87-52.349 47.072-94.171 99.133-100.991zm-99.852 247.398 99.852 39.196v41.339h-99.852zm-47.903 110.535h107.752v38.245h-158.846c6.493-22.081 26.941-38.245 51.094-38.245zm217.757 38.245v-38.245h107.753c24.153 0 44.602 16.165 51.094 38.245z"/></svg>