<svg id="Capa_1" enable-background="new 0 0 512 512" height="512" viewBox="0 0 512 512" width="512" xmlns="http://www.w3.org/2000/svg"><g><g><path d="m448.486 169.87 63.514-63.515-105.857-105.856-63.515 63.515 21.172 21.172-22.504 22.504c-9.12-5.398-19.549-8.286-30.425-8.286-15.995 0-31.034 6.229-42.293 17.489l-104.795 103.796c-29.336 29.336-65.645 51.776-105.003 64.895l-3.352 1.118-55.428 55.427 169.372 169.372 55.427-55.428 1.118-3.352c13.116-39.348 35.547-75.648 64.872-104.98l104.769-103.771c19.693-19.694 22.775-49.806 9.246-72.76l22.512-22.512zm-42.343-127.029 63.515 63.515-21.171 21.171-63.516-63.515zm-363.801 299.288 21.172-21.172 127.028 127.029-21.171 21.171zm332.095-119.38-104.745 103.746-.051.051c-27.005 27.004-48.748 59.329-63.707 94.489l-115.467-115.468c35.159-14.957 67.476-36.694 94.438-63.656l83.523-82.728 63.615 63.615 21.171-21.171-63.514-63.514c5.655-5.655 13.174-8.77 21.172-8.77 7.997 0 15.516 3.115 21.171 8.77l42.343 42.342c11.673 11.675 11.673 30.67.051 42.294zm10.535-74.05-21.172-21.171 21.172-21.171 21.171 21.171z"/><path d="m225.308 233.794h74.852v29.941h-74.852z" transform="matrix(.707 -.707 .707 .707 -98.95 258.642)"/><path d="m189.542 292.014h29.941v29.941h-29.941z" transform="matrix(.707 -.707 .707 .707 -157.171 234.526)"/></g></g></svg>