<svg id="Layer_1" enable-background="new 0 0 510 510" height="512" viewBox="0 0 510 510" width="512" xmlns="http://www.w3.org/2000/svg"><g><path d="m0 0v510h510v-510zm480 480h-450v-450h450z"/><path d="m450 60h-390v390h390zm-30 360h-330v-330h330z"/><path d="m150 180h30v30h-30z"/><path d="m210 180h30v30h-30z"/><path d="m270 180h30v30h-30z"/><path d="m330 180h30v30h-30z"/><path d="m120 120h30v30h-30z"/><path d="m180 120h30v30h-30z"/><path d="m240 120h30v30h-30z"/><path d="m300 120h30v30h-30z"/><path d="m150 300h30v30h-30z"/><path d="m210 300h30v30h-30z"/><path d="m270 300h30v30h-30z"/><path d="m330 300h30v30h-30z"/><path d="m120 240h30v30h-30z"/><path d="m180 240h30v30h-30z"/><path d="m240 240h30v30h-30z"/><path d="m300 240h30v30h-30z"/><path d="m120 360h30v30h-30z"/><path d="m180 360h30v30h-30z"/><path d="m240 360h30v30h-30z"/><path d="m300 360h30v30h-30z"/><path d="m360 120h30v30h-30z"/><path d="m360 240h30v30h-30z"/><path d="m360 360h30v30h-30z"/></g></svg>