<svg id="Capa_1" enable-background="new 0 0 510 510" height="512" viewBox="0 0 510 510" width="512" xmlns="http://www.w3.org/2000/svg"><g><path d="m195 397.5h120v-90h-120zm30-60h60v30h-60z"/><path d="m435 187.5h-45v-63.541l-35.729-71.459h-198.541l-35.73 71.459v63.541h-45c-41.355 0-75 33.645-75 75v195h510v-195c0-41.355-33.645-75-75-75zm-360 240h-45v-165c0-24.813 20.187-45 45-45zm255-240v-45h30v45c-10.492 0-19.508 0-30 0zm-155.73-105h161.459l15 30c-22.906 0-160.601 0-191.459 0zm125.73 60v45h-90v-45zm-165 285h-30v-210h30zm15-285h30v45c-10.492 0-19.508 0-30 0zm15 285v-210h180v210zm210 0v-210h30v210zm105 0h-45v-210c24.814 0 45 20.187 45 45z"/><path d="m195 247.5h120v30h-120z"/></g></svg>