<svg id="Capa_1" enable-background="new 0 0 512 512" height="512" viewBox="0 0 512 512" width="512" xmlns="http://www.w3.org/2000/svg"><g><path d="m493 241h-33.266v-241h-407.468v241h-33.266v30h33.266v241h407.469v-241h33.265zm-350.734 100h98.734v80.999h-98.734zm98.734 110.999v30.001h-98.734v-30.001zm30 0h98.734v30.001h-98.734zm0-30v-80.999h98.734v80.999zm98.734-110.999h-227.468v-40h227.469v40zm-227.468-70v-40h227.469v40zm227.468-70h-98.734v-80.999h98.734zm-98.734-110.999v-30.001h98.734v30.001zm-30 0h-98.734v-30.001h98.734zm0 30v80.999h-98.734v-80.999zm158.734 0h30v150.999h-30zm30-30h-30v-30.001h30zm-317.468-30.001v30.001h-30v-30.001zm-30 60.001h30v150.999h-30zm30 180.999v150.999h-30v-150.999zm-30 180.999h30v30.001h-30zm317.468 30.001v-30.001h30v30.001zm30-60.001h-30v-150.999h30z"/></g></svg>