<svg id="Capa_1" enable-background="new 0 0 510 510" height="512" viewBox="0 0 510 510" width="512" xmlns="http://www.w3.org/2000/svg"><g><path d="m480 419.578v-145c0-35.841-29.159-65-65-65h-35.986l43.592-182.113-67.602-27.043-49.997 20-50-20-49.997 20-50.005-20-67.61 27.042 43.592 182.114h-35.987c-35.841 0-65 29.159-65 65v145h-30v90h510v-90zm-357.395-373.886 32.399-12.958 50.005 20 49.997-20 50 20 49.997-20 32.391 12.958-39.228 163.887h-48.166v-90h-30v90h-30v-90h-30v90h-48.167zm-62.605 228.886c0-19.299 15.701-35 35-35h320c19.299 0 35 15.701 35 35v145h-390zm420 205h-450v-30h450z"/><path d="m135 389.578h240v-120h-240zm90-30v-60h60v60zm120 0h-30v-60h30zm-180-60h30v60h-30z"/></g></svg>