<svg height="512pt" viewBox="-61 0 512 512" width="512pt" xmlns="http://www.w3.org/2000/svg"><path d="m240 165h-30c0 8.269531-6.730469 15-15 15s-15-6.730469-15-15h-30c0 24.8125 20.1875 45 45 45s45-20.1875 45-45zm0 0"/><path d="m315 270h-75v-10.144531c35.441406-16.882813 60-53.054688 60-94.855469v-18.308594c17.640625-8.066406 30-30.09375 30-56.691406 0-33.644531-19.765625-60-45-60-4.839844 0-9.472656.976562-13.804688 2.777344-19.695312-20.726563-47.257812-32.777344-76.195312-32.777344s-56.5 12.046875-76.195312 32.777344c-4.332032-1.800782-8.964844-2.777344-13.804688-2.777344-25.234375 0-45 26.355469-45 60 0 26.597656 12.359375 48.625 30 56.691406v18.308594c0 41.800781 24.558594 77.972656 60 94.855469v10.144531h-75c-41.355469 0-75 33.644531-75 75v167h390v-167c0-41.355469-33.644531-75-75-75zm-15-180c0 18.3125-8.882812 30-15 30s-15-11.6875-15-30 8.882812-30 15-30 15 11.6875 15 30zm-195-30c6.117188 0 15 11.6875 15 30s-8.882812 30-15 30-15-11.6875-15-30 8.882812-30 15-30zm15 105v-18.308594c17.640625-8.066406 30-30.09375 30-56.691406 0-13.984375-3.421875-26.699219-9.226562-36.796875 14.058593-14.679687 33.660156-23.203125 54.226562-23.203125s40.167969 8.523438 54.226562 23.203125c-5.804687 10.097656-9.226562 22.8125-9.226562 36.796875 0 26.597656 12.359375 48.625 30 56.691406v18.308594c0 41.355469-33.644531 75-75 75s-75-33.644531-75-75zm75 105c5.09375 0 10.097656-.371094 15-1.074219v16.074219c0 8.269531-6.730469 15-15 15s-15-6.730469-15-15v-16.074219c4.902344.703125 9.90625 1.074219 15 1.074219zm165 212h-30v-62h-30v62h-90v-32h-30v32h-90v-62h-30v62h-30v-137c0-24.8125 20.1875-45 45-45h77.578125c6.195313 17.457031 22.867187 30 42.421875 30s36.226562-12.542969 42.421875-30h77.578125c24.8125 0 45 20.1875 45 45zm0 0"/><path d="m180 390h30v30h-30zm0 0"/><path d="m180 330h30v30h-30zm0 0"/></svg>