<svg id="Capa_1" enable-background="new 0 0 512.081 512.081" height="512" viewBox="0 0 512.081 512.081" width="512" xmlns="http://www.w3.org/2000/svg"><g><path d="m444.613 10.607-10.607-10.607-384.031 384.031c-29.311 29.31-29.315 76.753 0 106.066 29.309 29.31 76.753 29.314 106.065 0l193.112-193.112-42.427-42.426 21.214-21.213 42.427 42.427 74.246-74.246c52.638-52.638 52.638-138.284.001-190.92zm-309.785 458.277c-17.585 17.585-46.052 17.588-63.64 0s-17.588-46.051 0-63.639l129.473-129.473 63.639 63.64zm171.899-171.899-21.214 21.214-63.639-63.64 21.213-21.214zm-21.214-63.639-21.213-21.214 125.474-125.473c2.864 5.983 4.379 12.578 4.379 19.407 0 12.02-4.681 23.32-13.18 31.82zm137.887-53.033-53.033 53.033-21.214-21.213 53.033-53.033c14.166-14.166 21.967-33 21.967-53.033 0-14.936-4.341-29.202-12.418-41.367l21.517-21.517c30.77 41.094 27.487 99.79-9.852 137.13z"/><path d="m88.008 422.064h30v30h-30z" transform="matrix(.707 -.707 .707 .707 -278.885 200.857)"/></g></svg>