<svg id="Capa_1" enable-background="new 0 0 512 512" height="512" viewBox="0 0 512 512" width="512" xmlns="http://www.w3.org/2000/svg"><g><path d="m220 285.518h30v30h-30z"/><path d="m280 285.518h30v30h-30z"/><path d="m220 349.908h30v30h-30z"/><path d="m280 349.908h30v30h-30z"/><path d="m220 414.298h30v30h-30z"/><path d="m280 414.298h30v30h-30z"/><path d="m370 361.908v-144h-210v84h-160v210h512v-150zm-210-30v30h-130v-30zm0 60v30h-130v-30zm-130 90v-30h130v30zm310 0h-150c0-39.79 0-197.413 0-234h150zm142 0h-112v-90h112z"/><path d="m412.404 421.908h30v30h-30z"/><path d="m50.94 143.083 7.061 34.123 34.489 5.007 4.933 23.832 29.377-6.081-9.195-44.419-34.487-5.007-7.06-34.125-34.485-5.004-4.929-23.826-29.377 6.078 9.189 44.418z"/><path d="m433.223 196.772 7.063-34.126 34.485-5.004 7.06-34.122 24.08-3.494-4.308-29.69-44.889 6.514-7.06 34.123-34.483 5.005-7.064 34.126-24.086 3.497 4.311 29.689z"/><path d="m153.386 100.645 27.232 22.508-7.955 23.729 28.443 9.536 14.504-43.263-27.23-22.507 11.231-33.494-27.229-22.502 7.955-23.722-28.443-9.538-14.508 43.259 27.231 22.502z"/><path d="m315.441 157.717 35.171-29.07-11.228-33.496 27.229-22.504-11.23-33.49 19.288-15.94-19.111-23.125-35.171 29.066 11.23 33.491-27.229 22.503 11.23 33.497-19.292 15.944z"/></g></svg>