<svg id="Capa_1" enable-background="new 0 0 510 510" height="512" viewBox="0 0 510 510" width="512" xmlns="http://www.w3.org/2000/svg"><g><path d="m510 120h-135.041c9.438-12.544 15.041-28.129 15.041-45 0-41.355-33.645-75-75-75-24.508 0-46.306 11.818-60 30.052-13.694-18.234-35.492-30.052-60-30.052-41.355 0-75 33.645-75 75 0 16.871 5.604 32.456 15.041 45h-135.041v120h30v270h450v-270h30zm-195-90c24.814 0 45 20.187 45 45s-20.186 45-45 45h-45v-45c0-24.813 20.186-45 45-45zm-165 45c0-24.813 20.186-45 45-45s45 20.187 45 45v45h-45c-24.814 0-45-20.187-45-45zm45 345h-135v-180h135zm-135 60v-30h135v30zm165 0v-240h60v240zm90 0v-30h135v30zm135-60h-135v-180h135zm30-210c-15.661 0-425.067 0-450 0v-60h450z"/></g></svg>