<svg id="Capa_1" enable-background="new 0 0 510 510" height="512" viewBox="0 0 510 510" width="512" xmlns="http://www.w3.org/2000/svg"><g><path d="m330 15c-90.393 0-164.428 66.312-177.842 152.137-85.588 13.209-152.158 87.263-152.158 177.863 0 66.168 53.832 120 120 120h17.773c6.222 17.01 22.238 29.469 40.973 29.983.426.012.851.017 1.274.017 19.892 0 36.38-12.83 42.427-30h17.553c61.877 0 118.606-48.036 119.931-119.054.188-10.079-.657-20.419-2.413-30.946h32.482c66.196 0 120-53.553 120-120 0-99.765-80.935-180-180-180zm0 30c29.179 0 57.022 8.219 81.205 23.865-14.791 30.984-46.182 51.135-81.205 51.135-35.024 0-66.414-20.151-81.206-51.136 24.177-15.643 52.024-23.864 81.206-23.864zm-135 405c0 8.42-6.949 15.254-15.432 14.994-8.033-.221-14.568-7.227-14.568-15.618-.16-.893 3.417-51.735-36.311-101.105-4.594-5.71-7.022-12.604-7.022-19.938 0-32.165 26.168-58.333 58.333-58.333s58.333 26.168 58.333 58.333c0 7.334-2.429 14.228-7.022 19.938-23.416 29.098-36.311 64.75-36.311 100.387zm45-15h-14.216c2.766-24.192 12.784-47.896 28.899-67.923 8.802-10.939 13.649-24.698 13.649-38.744.001-48.707-39.625-88.333-88.332-88.333-72.317 0-110.584 82.462-74.684 127.077 16.115 20.027 26.134 43.73 28.899 67.923h-14.215c-49.626 0-90-40.374-90-90 0-82.889 67.074-150 150-150 82.888 0 150 67.074 150 150 0 49.647-40.161 90-90 90zm150-150h-40.201c-23.787-67.481-88.131-118.682-166.788-119.964 5.884-28.88 20.256-55.782 41.913-77.054 20.814 37.793 60.756 62.018 105.076 62.018s84.262-24.225 105.076-62.018c29.906 29.367 44.924 67.776 44.924 107.018 0 49.646-40.161 90-90 90z"/></g></svg>