<svg id="Capa_1" enable-background="new 0 0 512.003 512.003" height="512" viewBox="0 0 512.003 512.003" width="512" xmlns="http://www.w3.org/2000/svg"><g><path d="m180.751 180.772h30v30h-30z"/><path d="m301.251 180.772h30v30h-30z"/><path d="m511.953 147.849c-.654-21.589-7.635-42.966-19.15-58.651-19.062-25.962-45.403-44.343-76.177-53.156-35.206-10.082-74.215-7.311-115.984 8.213h-89.279c-41.767-15.524-80.778-18.294-115.984-8.213-30.773 8.812-57.114 27.193-76.177 53.156-11.517 15.685-18.498 37.062-19.152 58.651-.737 24.319 6.669 45.212 20.854 58.829 33.465 33.67 45.858 58.587 47.924 94.506 23.561-11.991 27.128-5.19 49.063-42.868 12.78 20.973 16.298 46.253 9.604 70.029-12.019 38.38 14.45 83.538 54.442 91.519 6.267 35.209 37.081 62.034 74.064 62.034s67.797-26.824 74.064-62.034c39.095-7.741 66.701-52.297 54.442-91.519-6.694-23.775-3.175-49.056 9.604-70.029 21.992 38.236 26.572 31.035 49.036 43.108 2.051-36.133 14.114-60.413 47.951-94.747 14.186-13.616 21.592-34.509 20.855-58.828zm-423.752 102.344c-7.37-17.219-21.115-40.769-46.521-65.157-17.572-16.869-13.751-57.035 1.703-78.083 10.524-14.334 29.521-33.269 60.254-42.07 19.764-5.745 41.906-6.046 63.632-2-34.038 20.277-58.994 55.448-58.655 89.757-1.075 53.227-11.463 82.282-20.413 97.553zm167.8 201.704c-20.246 0-37.427-13.365-43.188-31.736 17.483-3.585 32.703-13.449 43.188-27.13 10.485 13.68 25.705 23.544 43.188 27.13-5.761 18.371-22.942 31.736-43.188 31.736zm-.024-131.966-19.491-27.109 38.998-.009zm115.573-81.995c-19.595 28.964-25.397 64.88-15.92 98.54 8.161 25.835-13.495 55.993-41.784 55.172-23.102 0-41.979-18.381-42.805-41.284l31.41-43.666c13.243-17.64-.523-44.164-22.496-43.886l-47.948.011c-21.83-.574-35.6 26.157-22.489 43.879l31.443 43.733c-.862 22.87-19.726 41.212-42.803 41.212-27.171.828-50.167-28.107-41.784-55.172 9.478-33.66 3.675-69.576-15.92-98.541l-10.054-14.857c4.479-18.281 7.629-41.185 8.207-69.831.992-49.166 60.641-74.398 72.682-78.99h89.449c12.027 4.541 71.66 29.55 72.657 78.99.578 28.646 3.728 51.55 8.207 69.832zm98.774-52.9c-25.406 24.389-39.151 47.939-46.521 65.158-8.95-15.271-19.339-44.326-20.412-97.553-.206-35.601-23.826-68.322-58.655-89.757 22.77-4.261 44.07-3.601 63.632 2 30.732 8.801 49.729 27.735 60.254 42.07 15.453 21.047 19.274 61.213 1.702 78.082z"/></g></svg>