<svg id="Layer_1" enable-background="new 0 0 510 510" height="512" viewBox="0 0 510 510" width="512" xmlns="http://www.w3.org/2000/svg"><g id="XMLID_242_"><path id="XMLID_249_" d="m495 150c-24.814 0-45-20.187-45-45v-15h-390v15c0 24.813-20.187 45-45 45h-15v210h15c24.813 0 45 20.187 45 45v15h390v-15c0-24.813 20.186-45 45-45h15v-210zm-15 60h-45v30h45v30h-45v30h45v31.507c-29.342 5.981-52.513 29.151-58.493 58.493h-333.014c-5.98-29.342-29.151-52.512-58.493-58.493v-31.507h45v-30h-45v-30h45v-30h-45v-31.507c29.342-5.981 52.513-29.151 58.493-58.493h333.014c5.98 29.342 29.151 52.512 58.493 58.493z"/><path id="XMLID_258_" d="m330 165h-60v92.58c-28.4-10.625-60.581 11.96-59.999 42.42 2.259 59.613 87.746 59.603 89.999 0v-105h30c16.542 0 30 13.458 30 30h30c0-33.084-26.916-60-60-60zm-75 150c-8.271 0-15-6.729-15-15 .754-19.872 29.249-19.867 30 0 0 8.271-6.728 15-15 15z"/><path id="XMLID_259_" d="m150 330h30v30h-30z"/><path id="XMLID_260_" d="m150 270h30v30h-30z"/><path id="XMLID_261_" d="m150 210h30v30h-30z"/><path id="XMLID_262_" d="m150 150h30v30h-30z"/></g></svg>