<svg id="Capa_1" enable-background="new 0 0 512 512" height="512" viewBox="0 0 512 512" width="512" xmlns="http://www.w3.org/2000/svg"><g><path d="m91 0v512h330v-512zm300 482h-270v-452h270z"/><path d="m361 60h-210v150h210zm-30 120h-150v-90h150z"/><path d="m181 330h30v-30h30v-30h-30v-30h-30v30h-30v30h30z"/><path d="m217.213 362.574-21.213 21.213-21.213-21.213-21.213 21.213 21.213 21.213-21.213 21.213 21.213 21.213 21.213-21.213 21.213 21.213 21.213-21.213-21.213-21.213 21.213-21.213z"/><path d="m271 270h90v30h-90z"/><path d="m271 360h90v30h-90z"/><path d="m271 420h90v30h-90z"/></g></svg>