<svg id="Capa_1" enable-background="new 0 0 512 512" height="512" viewBox="0 0 512 512" width="512" xmlns="http://www.w3.org/2000/svg"><g><path d="m512 127.66h-199.835v56.796l20 214.952v106.096h159.835v-106.096l20-214.952zm-169.835 30h139.835l-.328 28.935h-139.178zm136.715 58.934-15.549 167.119h-102.497l-15.549-167.119zm-16.88 258.91h-32.917v-29.483h-30v29.483h-36.918v-61.791h99.835z"/><path d="m197.958 96.351v-90.104h-115.313v90.104h-48.858l-33.787 33.787v78.215l25 25v135.397l-25 25v78.215l33.787 33.787h213.029l33.786-33.787v-78.215l-25-25v-135.396l25-25v-78.216l-33.786-33.787zm-85.313-60.104h55.313v59.741h-55.313zm137.958 159.68-10.309 10.31h-157.649v183.727h151.745l16.213 16.213v53.363l-16.213 16.213h-188.177l-16.213-16.213v-53.363l25-25v-160.25l-25-25v-53.363l16.213-16.213h188.177l16.213 16.213zm-137.958 164.037v-123.727h112.958v123.727z"/></g></svg>