<svg id="Capa_1" enable-background="new 0 0 512 512" height="512" viewBox="0 0 512 512" width="512" xmlns="http://www.w3.org/2000/svg"><g><path d="m492 374.5v-327h-472v327h-20v90h512v-90zm-442-297h412v297h-412zm187.334 357v-30h37.333v30zm-207.334-30h177.334v30h-177.334zm452 30h-177.333v-30h177.333z"/><path d="m432 161h-352v150h352zm-30 120h-292v-90h292z"/><path d="m140 221h35.5v30h-35.5z"/><path d="m205.5 221h35.5v30h-35.5z"/><path d="m271 221h35.5v30h-35.5z"/><path d="m336.5 221h35.5v30h-35.5z"/></g></svg>