<svg id="Capa_1" enable-background="new 0 0 512 512" height="512" viewBox="0 0 512 512" width="512" xmlns="http://www.w3.org/2000/svg"><g><path d="m512 90v-45c0-24.813-20.187-45-45-45h-141c-24.813 0-45 20.187-45 45v45h40v30h-35c-24.813 0-45 20.187-45 45v45h80v15.014c0 8.271-6.729 15-15 15h-20c-24.813 0-45 20.187-45 45v15h-76c-8.271 0-15-6.729-15-15v-15.014h60v-45c0-24.813-20.187-45-45-45h-15v-30h60v-45c0-24.813-20.187-45-45-45h-60c-24.813 0-45 20.187-45 45v45h60v30h-75c-24.813 0-45 20.187-45 45v45h60v15.014c0 24.813 20.187 45 45 45h136v31.025c-7.57.635-15.164.961-22.754.961h-218.246v150h512v-210h-36.746c-46.616 0-93.349 10.91-135.146 31.551-21.837 10.783-45.169 18.615-69.108 23.301v-71.837c0-8.271 6.729-15 15-15h80c24.813 0 45-20.187 45-45v-15.015h41v-45c0-24.813-20.187-45-45-45h-56v-30zm-422 30v-15c0-8.271 6.729-15 15-15h60c8.271 0 15 6.729 15 15v15zm-60 120v-15c0-8.271 6.729-15 15-15h120c8.271 0 15 6.729 15 15v15zm75 60.014c-8.271 0-15-6.729-15-15v-15.014h30v15.014c0 5.258.915 10.305 2.58 15zm377 181.986h-452v-90h6.746c42.034 0 84.174 9.838 121.862 28.449 41.797 20.641 88.53 31.551 135.146 31.551h188.246zm-128.608-121.551c37.688-18.611 79.828-28.449 121.862-28.449h6.746v90h-188.246c-42.034 0-84.174-9.838-121.862-28.449-1.062-.525-2.13-1.039-3.199-1.551h49.553c46.616 0 93.349-10.91 135.146-31.551zm27.608-135.435c0 8.271-6.729 15-15 15h-17.58c1.665-4.695 2.58-9.742 2.58-15v-15.014h30zm26-75.014c8.271 0 15 6.729 15 15v15h-151v-15c0-8.271 6.729-15 15-15zm-96-90v-15c0-8.271 6.729-15 15-15h141c8.271 0 15 6.729 15 15v15z"/></g></svg>