<svg id="Capa_1" enable-background="new 0 0 512 512" height="512" viewBox="0 0 512 512" width="512" xmlns="http://www.w3.org/2000/svg"><g><path d="m447 162.177v-71.676h-75.055c1.355-6.253 1.863-12.653 1.48-19.134-1.068-18.082-9.042-35.371-22.453-48.683-13.411-13.313-30.759-21.157-48.849-22.09-16.278-.833-32.009 3.875-46.122 13.721-14.107-9.843-29.841-14.564-46.114-13.72-18.091.932-35.44 8.775-48.854 22.084-13.412 13.31-21.389 30.598-22.458 48.679-.384 6.484.125 12.887 1.48 19.144h-75.055v71.731l-65 121.509v30.76c0 44.112 35.888 80 80 80s80-35.888 80-80v-30.76l-65-121.51v-41.731h59.066c1.884 2.517 3.914 4.986 6.128 7.389l49.806 49.816v241.795h-45v28c0 9.374-7.626 17-17 17h-15v47h246v-47h-15c-9.374 0-17-7.626-17-17v-28h-45v-241.786l48.429-48.429c.48-.48.922-.96 1.327-1.437l.049.044c2.215-2.403 4.246-4.873 6.131-7.391h59.064v41.676l-65 122.593v29.73c0 44.112 35.888 80 80 80s80-35.888 80-80v-29.73zm-367 202.324c-27.235 0-49.454-21.891-49.99-49h99.98c-.536 27.11-22.755 49-49.99 49zm46.919-79h-93.838l46.919-87.708zm55.245-241.526c21.114-20.95 47.149-14.808 63.587.574l10.249 9.952 10.247-9.952c16.443-15.381 42.483-21.526 63.59-.573 3.419 3.394 6.117 6.924 8.192 10.525h-164.06c2.076-3.601 4.774-7.132 8.195-10.526zm134.878 405.526c.529 12.561 6.011 23.865 14.54 32h-151.164c8.529-8.135 14.011-19.439 14.54-32zm-61.042-268.213-30.787-30.787h61.574c-11.485 11.485-22.872 22.872-30.787 30.787zm16 26.427v211.787h-32v-211.79l16 16.003zm57.939-100.366c-1.092 1.092-6.09 6.09-13.152 13.152h-121.574l-13.151-13.151c-5.902-6.471-10.373-14.377-12.392-22.849h172.662c-2.018 8.473-6.489 16.378-12.393 22.848zm102.061 90.58 46.431 87.573h-92.863zm0 166.572c-27.235 0-49.454-21.891-49.99-49h99.98c-.536 27.11-22.755 49-49.99 49z"/></g></svg>