<?xml version="1.0" encoding="iso-8859-1"?>
<!-- Generator: Adobe Illustrator 19.0.0, SVG Export Plug-In . SVG Version: 6.00 Build 0)  -->
<svg xmlns="http://www.w3.org/2000/svg" xmlns:xlink="http://www.w3.org/1999/xlink" version="1.1" id="Layer_1" x="0px" y="0px" viewBox="0 0 512 512" style="enable-background:new 0 0 512 512;" xml:space="preserve">
<g>
	<g>
		<path d="M411.826,100.174c-5.851,0-11.472,1.008-16.696,2.86v-8.426c0-27.618-22.468-50.087-50.087-50.087    c-5.878,0-11.522,1.017-16.767,2.886C326.881,21.03,304.981,0,278.261,0s-48.62,21.03-50.016,47.408    c-5.245-1.869-10.889-2.886-16.767-2.886c-27.619,0-50.087,22.469-50.087,50.087v161.624l-11.13-13.913v-27.536    c0-27.618-22.469-50.087-50.087-50.087c-27.618,0-50.087,22.469-50.087,50.087v83.88l111.304,135.825V512h256v-79.537    l44.522-89.043V150.261C461.913,122.643,439.445,100.174,411.826,100.174z M384,478.609H194.783v-33.391H384V478.609z     M428.522,335.537l-38.145,76.289H185.991L83.478,286.73v-71.946c0-9.206,7.49-16.696,16.696-16.696    c9.206,0,16.696,7.49,16.696,16.696v39.248l77.913,97.391V94.609c0-9.206,7.49-16.696,16.696-16.696s16.696,7.49,16.696,16.696    v144.696h33.391V94.609V50.087c0-9.206,7.49-16.696,16.696-16.696c9.207,0,16.696,7.49,16.696,16.696v44.522v144.696h33.391    V94.609c0-9.206,7.489-16.696,16.696-16.696s16.696,7.49,16.696,16.696v22.261v33.391v111.304h33.391V150.261    c0-9.206,7.489-16.696,16.696-16.696c9.207,0,16.696,7.49,16.696,16.696V335.537z"/>
	</g>
</g>
<g>
</g>
<g>
</g>
<g>
</g>
<g>
</g>
<g>
</g>
<g>
</g>
<g>
</g>
<g>
</g>
<g>
</g>
<g>
</g>
<g>
</g>
<g>
</g>
<g>
</g>
<g>
</g>
<g>
</g>
</svg>
