<svg id="Capa_1" enable-background="new 0 0 512 512" height="512" viewBox="0 0 512 512" width="512" xmlns="http://www.w3.org/2000/svg"><g><path d="m448.361 384.721 17.678-17.678-21.213-21.213-17.678 17.678-21.366-21.367 17.678-17.678-21.213-21.213-17.678 17.678-64.929-64.93 179.177-179.179c8.499-8.499 13.18-19.8 13.18-31.82s-4.681-23.32-13.18-31.82-19.8-13.18-31.82-13.18-23.32 4.681-31.819 13.18l-179.178 179.181-179.179-179.18c-8.498-8.499-19.799-13.18-31.819-13.18s-23.32 4.681-31.819 13.18c-8.499 8.499-13.18 19.8-13.18 31.82s4.681 23.32 13.18 31.819l179.178 179.18-64.929 64.93-17.678-17.678-21.213 21.213 17.678 17.677-21.366 21.367-17.678-17.678-21.213 21.213 17.678 17.678-63.64 63.64 63.639 63.639 106.219-106.219 17.678 17.678 21.213-21.213-17.678-17.678 64.929-64.93 64.929 64.93-17.677 17.678 21.213 21.213 17.677-17.678 106.219 106.219 63.639-63.639zm-413.965-329.115c-2.833-2.833-4.393-6.6-4.393-10.606 0-4.007 1.56-7.773 4.393-10.607 2.833-2.833 6.6-4.393 10.606-4.393 4.007 0 7.773 1.56 10.607 4.393l179.178 179.18-21.213 21.213zm29.243 413.967-21.213-21.213 21.213-21.213 21.213 21.213zm42.426-42.425-21.213-21.213 42.58-42.58 21.213 21.213zm63.793-63.794-21.213-21.213 307.747-307.748c2.833-2.833 6.6-4.393 10.606-4.393 4.007 0 7.773 1.56 10.607 4.393 2.833 2.833 4.393 6.6 4.393 10.607 0 4.006-1.56 7.773-4.393 10.606zm172.284.001-64.929-64.93 21.213-21.214 64.929 64.93zm21.213 21.213 21.213-21.213 42.58 42.58-21.213 21.213zm63.793 63.792 21.213-21.213 21.213 21.213-21.213 21.213z"/></g></svg>