<svg id="Capa_1" enable-background="new 0 0 512 512" height="512" viewBox="0 0 512 512" width="512" xmlns="http://www.w3.org/2000/svg"><path d="m438 311.733v-55.567l73.467-73.466-182.434-182.433-143.466 143.466h-155.567v168h-30v145c0 30.327 24.673 55 55 55h402c30.327 0 55-24.673 55-55v-145zm-84.375-244.448 76.448 76.448h-87.834zm50.925 106.448-161.622 119.72c-5.34 3.956-12.516 3.956-17.857 0l-161.621-119.72zm33.45 40.008v-62.08l31.04 31.04zm-111.407-168.608-14.685 98.6h-83.915zm-266.593 163.378 147.214 109.048c8.012 5.935 17.397 8.901 26.786 8.901 9.386 0 18.776-2.968 26.785-8.901l147.215-109.048v103.222h-52v45c0 8.271-6.729 15-15 15h-170c-8.271 0-15-6.729-15-15v-45h-96zm422 248.222c0 13.785-11.215 25-25 25h-402c-13.785 0-25-11.215-25-25v-115h96v15c0 24.813 20.187 45 45 45h170c24.813 0 45-20.187 45-45v-15h96z"/></svg>