<svg id="Capa_1" enable-background="new 0 0 510 510" height="512" viewBox="0 0 510 510" width="512" xmlns="http://www.w3.org/2000/svg"><g><path d="m300 0c-66.168 0-120 53.832-120 120s53.832 120 120 120h61.574l26.667 240h-298.241c-16.542 0-30-13.458-30-30h-30c0 33.084 26.916 60 60 60h405v-510zm-90 120c0-44.516 32.489-81.58 75-88.743v177.486c-42.511-7.163-75-44.227-75-88.743zm105 90v-180h150v360h-56.574l-20-180zm103.426 270-6.667-60h53.241v60c-15.993 0-32.256 0-46.574 0z"/><path d="m345 60h30v30h-30z"/><path d="m405 60h30v30h-30z"/><path d="m135 90v-30c-33.084 0-60 26.916-60 60s26.916 60 60 60v-30c-16.542 0-30-13.458-30-30s13.458-30 30-30z"/><path d="m135 240v-30c-49.626 0-90-40.374-90-90s40.374-90 90-90v-30c-66.169 0-120 53.832-120 120s53.831 120 120 120z"/></g></svg>