<?xml version="1.0" encoding="iso-8859-1"?>
<!-- Generator: Adobe Illustrator 19.0.0, SVG Export Plug-In . SVG Version: 6.00 Build 0)  -->
<svg xmlns="http://www.w3.org/2000/svg" xmlns:xlink="http://www.w3.org/1999/xlink" version="1.1" id="Layer_1" x="0px" y="0px" viewBox="0 0 512 512" style="enable-background:new 0 0 512 512;" xml:space="preserve">
<g>
	<g>
		<path d="M468.12,0H281.485c-24.195,0-43.88,19.685-43.88,43.88v331.102c0,24.195,19.685,43.88,43.88,43.88h78.317v28.857    c0,18.902-15.379,34.281-34.281,34.281H162.105c-18.903,0-34.282-15.379-34.282-34.281V391.65    c24.522-6.619,42.624-29.046,42.624-55.632V285.77h21.461v-63.695c10.209-1.781,19.915-6.09,28.071-12.571l5.668-4.504v-88.545    l-5.668-4.504c-10.956-8.705-24.705-13.499-38.717-13.499c-34.339,0-62.275,27.937-62.275,62.275v125.042h21.46v50.248    c0,15.231-12.393,27.624-27.624,27.624s-27.623-12.391-27.623-27.622v-50.248h21.46V160.729c0-34.339-27.937-62.275-62.275-62.275    c-14.012,0-27.761,4.794-38.717,13.499L0,116.456v88.545l5.668,4.504c8.157,6.481,17.863,10.79,28.071,12.571v63.695h21.461    v50.248c0,26.586,18.101,49.012,42.623,55.631v56.069c0,35.445,28.837,64.281,64.282,64.281h163.416    c35.444,0,64.281-28.836,64.281-64.281v-28.857h78.317c24.195,0,43.88-19.685,43.88-43.88V43.88C512,19.685,492.315,0,468.12,0z     M181.263,128.453c5.083,0,9.96,1.15,14.385,3.365v57.82c-4.425,2.215-9.302,3.365-14.385,3.365    c-17.797,0-32.275-14.479-32.275-32.275C148.989,142.932,163.466,128.453,181.263,128.453z M148.987,213.97    c4.029,2.451,8.363,4.444,12.921,5.939v35.861h-12.921V213.97z M76.66,255.77H63.74v-35.861c4.558-1.494,8.892-3.487,12.921-5.939    V255.77z M44.385,193.003c-5.083,0-9.96-1.15-14.385-3.365v-57.82c4.425-2.215,9.302-3.365,14.385-3.365    c17.797,0,32.275,14.479,32.275,32.275C76.661,178.524,62.182,193.003,44.385,193.003z M482,374.981    c0,7.653-6.227,13.88-13.88,13.88H281.485c-7.653,0-13.88-6.227-13.88-13.88V43.88c0-7.653,6.227-13.88,13.88-13.88H468.12    c7.653,0,13.88,6.227,13.88,13.88V374.981z"/>
	</g>
</g>
<g>
	<g>
		<path d="M284.289,46.051v152.584h181.029V46.051H284.289z M435.318,168.635H314.289V76.051h121.029V168.635z"/>
	</g>
</g>
<g>
	<g>
		<path d="M374.804,221.742c-41.598,0-75.44,33.843-75.44,75.44s33.843,75.439,75.44,75.439c41.597,0,75.44-33.842,75.44-75.439    S416.401,221.742,374.804,221.742z M374.804,342.622c-25.056,0-45.44-20.384-45.44-45.439s20.385-45.44,45.44-45.44    s45.44,20.385,45.44,45.44S399.859,342.622,374.804,342.622z"/>
	</g>
</g>
<g>
</g>
<g>
</g>
<g>
</g>
<g>
</g>
<g>
</g>
<g>
</g>
<g>
</g>
<g>
</g>
<g>
</g>
<g>
</g>
<g>
</g>
<g>
</g>
<g>
</g>
<g>
</g>
<g>
</g>
</svg>
