<svg id="Capa_1" enable-background="new 0 0 512 512" height="512" viewBox="0 0 512 512" width="512" xmlns="http://www.w3.org/2000/svg"><g><path d="m467.473 337c26.749-17.058 44.527-46.991 44.527-81v-15h-32c-36.751 0-68.738 20.761-84.866 51.168-9.374-26.226-7.886-55.988 4.007-81.153l16.428-35.015-16.43-35.015c-6.632-14.139-10.139-29.868-10.139-45.485s3.507-31.346 10.141-45.485l23.466-50.015h-148.26l18.045 48.073c5.712 15.218 8.608 31.175 8.608 47.427s-2.896 32.209-8.607 47.427l-12.414 33.073 12.414 33.073c5.711 15.218 8.607 31.175 8.607 47.427s-2.896 32.209-8.607 47.427l-12.414 33.073 12.414 33.073c5.711 15.218 8.607 31.175 8.607 47.427 0 16.225-2.886 32.154-8.578 47.348l-18.36 47.152h148.909s-23.875-49.108-23.875-49.108c-11.853-25.146-13.326-54.865-3.963-81.059 16.129 30.406 48.117 51.167 84.867 51.167h32v-15c0-34.009-17.778-63.942-44.527-81zm-149.821-146h57.742c-21.791 41.897-21.795 89.095 0 131h-57.741l2.827-7.531c15.156-39.625 13.572-84.485-2.828-123.469zm.286 291c17.605-41.26 17.144-88.763-.286-130h57.742c-21.43 40.873-21.981 89.071-.365 130zm57.455-452c-21.79 41.899-21.795 89.094 0 131h-57.741c17.739-42.391 17.739-88.604.001-131zm40.327 292c6.819-29.282 33.239-51.14 64.561-51-6.82 29.282-33.24 51.14-64.561 51zm64.56 81c-31.322.14-57.741-21.718-64.561-51h.281c31.234 0 57.472 21.809 64.28 51z"/><path d="m221.578 464.848c-5.692-15.194-8.578-31.123-8.578-47.348 0-16.252 2.896-32.209 8.607-47.427l12.414-33.073-12.414-33.073c-5.711-15.218-8.607-31.175-8.607-47.427s2.896-32.209 8.607-47.427l12.414-33.073-12.414-33.073c-5.711-15.218-8.607-31.175-8.607-47.427s2.896-32.209 8.607-47.427l18.045-48.073h-148.259s23.468 50.015 23.468 50.015c11.891 25.165 13.381 54.926 4.006 81.152-16.129-30.406-48.117-51.167-84.867-51.167h-34v15c0 34.009 17.778 63.942 44.527 81-26.749 17.058-44.527 46.991-44.527 81v15h34c36.751 0 68.738-20.761 84.866-51.168 9.374 26.227 7.886 55.988-4.007 81.153l-16.428 35.015 16.43 35.015c6.632 14.139 10.139 29.868 10.139 45.485 0 15.583-3.491 31.276-10.097 45.392l-23.875 49.108h148.909zm-82.971-273.848h57.741c-17.738 42.39-17.74 88.605 0 131h-57.742l3.412-7.272c18.637-38.958 16.702-85.724-3.411-123.728zm.365 291c21.606-40.849 21.06-89.198-.364-130h57.741c-17.435 41.303-17.897 88.672-.286 130zm-40.692-291c-6.902 29.98-34.621 52.055-66.561 51 6.903-29.98 34.622-52.055 66.561-51zm0-30c-31.939 1.056-59.659-21.02-66.561-51h2.281c31.234 0 57.472 21.809 64.28 51zm98.068-131c-17.736 42.392-17.74 88.604.001 131h-57.742c21.791-41.897 21.795-89.095.001-131z"/></g></svg>