<svg id="Capa_1" enable-background="new 0 0 512 512" height="512" viewBox="0 0 512 512" width="512" xmlns="http://www.w3.org/2000/svg"><g><path d="m298.39 48.174v-18.174h213.61v-30h-512v30h213.61v18.174c0 18.094 11.399 33.568 27.39 39.64v31.19h-53.86v72.784c-8.622 31.552-23.296 58.64-40.255 89.9-2.611 4.812-5.279 9.73-7.994 14.789-11.627 21.664-23.433 48.012-22.871 79.228.074 75.169 61.251 136.295 136.438 136.295h7.104c75.232 0 136.438-61.206 136.438-136.438v-2.459c0-25.8-7.848-51.427-23.991-78.344-17.447-29.091-36.615-64.016-47.09-102.955v-72.8h-53.919v-31.19c15.991-6.072 27.39-21.546 27.39-39.64zm-152.371 327.388-.003-.288c-.468-24.364 9.498-46.333 19.308-64.61 2.693-5.018 5.34-9.897 7.93-14.67 16.271-29.993 30.559-56.328 40.171-87.156h27.575v272.544c-53.322-5.734-94.981-51.001-94.981-105.82zm219.981-2.459v2.459c0 54.826-41.669 100.098-95 105.822v-272.546h27.575c11.756 38.665 30.542 72.733 47.706 101.352 13.269 22.123 19.719 42.702 19.719 62.913zm-71.082-194.266h-77.778v-29.833h77.779v29.833zm-26.528-148.837v18.174c0 6.832-5.558 12.39-12.39 12.39s-12.39-5.558-12.39-12.39v-18.174z"/></g></svg>