<svg id="Capa_1" enable-background="new 0 0 510 510" height="512" viewBox="0 0 510 510" width="512" xmlns="http://www.w3.org/2000/svg"><g><path d="m464.02 174.932c-2.114-.571-4.251-.947-6.398-1.155.575-1.059-2.082 3.834 5.62-10.353 20.634-45.611 11.57-73.875-.019-95.507-12.214-22.799-43.234-40.699-92.199-53.2-42.498-10.851-87.799-14.717-116.024-14.717s-73.526 3.866-116.023 14.716c-48.965 12.502-79.985 30.401-92.199 53.201-11.589 21.632-20.654 49.896-.019 95.507 7.701 14.187 5.045 9.295 5.619 10.353-2.147.208-4.283.584-6.397 1.155-28.42 7.681-42.087 45.501-31.114 86.1 9.671 35.782 34.786 60.057 60.067 60.056.433 0 .866-.028 1.299-.042 4.837 41.447 23.874 79.807 54.155 108.832l-53.416 80.122h28.028c18.542 0 28.615-5.037 36.709-9.083 6.87-3.435 11.833-5.917 23.293-5.917 11.459 0 16.423 2.482 23.293 5.917 8.094 4.047 18.167 9.083 36.708 9.083s28.614-5.037 36.708-9.083c6.869-3.435 11.832-5.917 23.291-5.917s16.421 2.481 23.291 5.917c8.094 4.046 18.167 9.083 36.707 9.083h20.811l-18.491-55.472c47.557-28.455 79.868-77.405 86.43-133.483.439.015.877.043 1.316.043 25.279 0 50.395-24.277 60.065-60.056 10.975-40.599-2.692-78.419-31.111-86.1zm-390.798-92.848c7.737-14.442 34.408-28.401 73.176-38.3 39.804-10.163 82.199-13.784 108.602-13.784s68.798 3.621 108.602 13.784c38.768 9.898 65.439 23.858 73.176 38.3 8.281 15.458 15.043 33.48-.64 68.465l-13.251 24.197c-2.534-5.48-5.533-11.27-9.048-17.066-25.332-41.763-78.526-56.387-121.988-34.794-23.404 11.627-33.134 13.363-36.851 13.363s-13.447-1.736-36.85-13.363c-43.542-21.631-96.716-6.868-121.989 34.794-3.516 5.796-6.514 11.586-9.048 17.066l-13.25-24.197c-15.684-34.984-8.923-53.006-.641-68.465zm-29.394 171.121c-6.72-24.863-.273-46.541 9.98-49.312 5.969-1.613 14.179 3.21 21.192 12.189v75.012c-10.268.17-24.933-14.804-31.172-37.889zm241.174 211.795c-18.541 0-28.614 5.037-36.708 9.084-6.869 3.435-11.833 5.916-23.291 5.916-11.459 0-16.423-2.481-23.292-5.916-8.094-4.047-18.167-9.084-36.709-9.084-10.459 0-18.224 1.603-24.458 3.726.067-.1 83.148-124.754 83.945-125.802 6.18-8.129 15.783-12.924 26.079-12.924 14.072 0 26.605 8.952 31.091 22.41 3.931 11.792 34.593 103.778 40.66 121.978-11.92-5.96-21.015-9.388-37.317-9.388zm52.566-39.729-27.45-82.349c-4.966-14.899-15.262-27.338-28.94-34.973-28.273-15.78-64.475-7.544-82.841 20.004l-51.001 76.501c-27.083-27.877-42.336-65.113-42.336-104.454v-86.923c1.327-5.085 6.37-22.625 16.811-39.838 16.916-27.887 53.371-38.204 82.991-23.486 22.964 11.409 38.446 16.496 50.198 16.496s27.234-5.087 50.199-16.496c29.621-14.718 66.074-4.401 82.99 23.486 10.452 17.231 15.495 34.789 16.811 39.837v86.924c0 51.108-25.444 97.68-67.432 125.271zm128.603-172.066c-6.2 22.94-20.715 37.891-30.977 37.891-.065 0-.13-.001-.195-.002v-75.012c7.013-8.98 15.223-13.799 21.192-12.189 10.254 2.771 16.701 24.448 9.98 49.312z"/><path d="m333.16 217.045-26.833-13.416-25.682 51.364 51.364 25.682 13.416-26.833-24.531-12.265z"/><path d="m180.77 214.744 8.673 26.018-26.02 8.673 9.488 28.461 54.479-18.16-18.16-54.48z"/></g></svg>