<svg height="511pt" viewBox="0 0 511.998 511" width="511pt" xmlns="http://www.w3.org/2000/svg"><path d="m241.003906.5h29.992188v61.980469h-29.992188zm0 0"/><path d="m332.546875 25.78125 26.824219 13.410156-29.988282 59.976563-26.824218-13.410157zm0 0"/><path d="m179.441406 25.777344 29.988282 59.980468-26.824219 13.410157-29.988281-59.976563zm0 0"/><path d="m10.191406 432.773438-10.191406 28.207031 141.90625 51.285156 10.195312-28.207031-56.378906-20.375 16.105469-44.25c7.417969 8.640625 12.847656 22.730468 30.910156 29.304687l5.558594 2.023438c23.449219 8.535156 49.183594-3.601563 57.660156-26.886719 8.503907-23.359375-3.519531-49.152344-26.886719-57.65625l-5.558593-2.023438c-18.097657-6.585937-30.828125.652344-42.519531 2.582032l7.90625-21.71875c42.5-8.222656 77.703124-38.121094 92.582031-79l24.519531-67.359375 24.515625 67.359375c14.863281 40.835937 50.035156 70.769531 92.582031 79l7.90625 21.71875c-11.519531-1.898438-24.445312-9.160156-42.519531-2.582032l-5.554687 2.023438c-23.363282 8.503906-35.390626 34.292969-26.886719 57.660156 6.703125 18.414063 24.078125 29.621094 42.242187 29.621094 5.191406 0 10.394532-.910156 15.414063-2.738281l5.558593-2.023438c18.097657-6.585937 23.1875-20.304687 30.910157-29.304687l16.109375 44.253906-56.378906 20.375 10.191406 28.203125 141.90625-51.285156-10.191406-28.207031-57.324219 20.71875-16.128907-44.316407c15.773438 3.546875 26.417969 8.441407 42.515626 2.582031l5.558593-2.023437c23.363281-8.503906 35.390625-34.292969 26.886719-57.660156-8.484375-23.308594-34.347656-35.367188-57.660156-26.882813l-5.558594 2.019532c-18.09375 6.585937-23.191406 20.3125-30.910156 29.308593l-7.902344-21.71875c27.269531-33.613281 35.023438-79.144531 20.140625-120.027343l-43.734375-120.164063-121.691406 44.289063-121.683594-44.292969-43.738281 120.167969c-14.863281 40.832031-7.160157 86.371093 20.144531 120.027343l-7.90625 21.714844c-7.601562-8.859375-12.839844-22.726563-30.910156-29.304687l-5.558594-2.023438c-23.308594-8.484375-49.171875 3.578125-57.65625 26.886719-8.503906 23.363281 3.519531 49.152343 26.886719 57.65625l5.554687 2.023437c18.171875 6.613282 30.933594-.703125 42.519532-2.578125l-16.128907 44.316407zm153.0625-40.398438 5.558594 2.023438c7.789062 2.835937 11.796875 11.429687 8.964844 19.21875-2.835938 7.789062-11.433594 11.796874-19.21875 8.964843l-5.558594-2.023437c-6.953125-2.53125-7.675781-7.25-20.273438-23.335938 20-4.226562 23.578126-7.378906 30.527344-4.847656zm-29.566406-76.839844c-19.75-24.527344-25.8125-57.039062-16.058594-87.210937h95.671875l-10 27.476562c-11.3125 31.082031-37.589843 53.421875-69.613281 59.734375zm175.011719-59.734375-10.003907-27.476562h95.671876c9.757812 30.171875 3.695312 62.683593-16.054688 87.210937-32.023438-6.3125-58.300781-28.652344-69.613281-59.734375zm50.304687 164.757813-5.558594 2.023437c-7.789062 2.832031-16.386718-1.175781-19.222656-8.964843-2.832031-7.785157 1.175782-16.382813 8.964844-19.21875l5.558594-2.023438c7-2.546875 10.613281.671875 30.53125 4.847656-12.605469 16.089844-13.324219 20.804688-20.273438 23.335938zm91.351563-65.167969 5.558593-2.019531c7.765626-2.828125 16.390626 1.191406 19.21875 8.960937 2.832032 7.785157-1.175781 16.382813-8.960937 19.21875l-5.558594 2.023438c-6.949219 2.53125-10.535156-.621094-30.53125-4.84375 12.605469-16.097657 13.324219-20.808594 20.273438-23.339844zm-66.828125-156.957031h-95.746094l-12.5625-34.617188 84.546875-30.769531zm-231.292969-65.386719 84.546875 30.773437-12.5625 34.613282h-95.746094zm-100.847656 250.527344-5.558594-2.023438c-7.785156-2.832031-11.796875-11.429687-8.960937-19.21875 2.832031-7.785156 11.464843-11.785156 19.21875-8.960937l5.558593 2.019531c6.953125 2.53125 7.671875 7.25 20.277344 23.339844-20.007813 4.226562-23.585937 7.375-30.535156 4.84375zm0 0"/></svg>