<svg id="Capa_1" enable-background="new 0 0 511.892 511.892" height="512" viewBox="0 0 511.892 511.892" width="512" xmlns="http://www.w3.org/2000/svg"><g><path d="m489.541 228.014 22.351-20.012-15.311-17.1c-1.03-1.149-104.556-114.957-240.615-114.957-136.046 0-239.585 113.808-240.618 114.96l-15.307 17.097 22.351 20.012 15.305-17.094c.255-.285 26.033-28.821 69.408-56.576 50.189-32.115 100.274-48.399 148.862-48.399s98.673 16.284 148.862 48.399c43.375 27.754 69.152 56.291 69.405 56.573z"/><path d="m22.341 290.979-22.341 20.022c2.055 2.293 9.742 10.669 22.375 22.18l20.205-22.175c-11.89-10.835-18.946-18.584-20.239-20.027z"/><path d="m259.966 405.946c-10.742 0-21.693-.729-32.55-2.168l-3.941 29.74c12.159 1.612 24.437 2.429 36.492 2.429 9.788 0 19.713-.539 29.5-1.603l-3.24-29.824c-8.716.946-17.551 1.426-26.261 1.426z"/><path d="m129.548 405.376c20.376 9.512 41.093 16.908 61.573 21.984l7.217-29.119c-18.603-4.61-37.477-11.356-56.101-20.049z"/><path d="m47.063 354.091c17.258 13.596 35.297 25.807 53.615 36.293l14.904-26.036c-17.042-9.756-33.85-21.136-49.954-33.823z"/><path d="m397.836 366.295 15.111 25.916c18.257-10.645 36.159-23.18 53.21-37.256l-19.099-23.135c-15.802 13.045-32.363 24.644-49.222 34.475z"/><path d="m315.321 399.604 6.703 29.242c20.767-4.76 41.625-11.987 61.996-21.478l-12.67-27.193c-18.463 8.602-37.313 15.139-56.029 19.429z"/><path d="m488.947 291.604c-2.831 3.169-9.461 10.592-19.408 20.171l20.81 21.609c10.759-10.361 17.916-18.373 20.972-21.794l.567-.634-22.342-20.021z"/><path d="m447.141 250.952 8.96-10.006-8.96-10.006c-.871-.973-21.721-24.092-55.371-47.335-45.137-31.178-92.098-47.658-135.804-47.658s-90.667 16.48-135.804 47.658c-33.65 23.243-54.5 46.363-55.371 47.335l-8.96 10.006 8.96 10.006c.871.973 21.721 24.092 55.371 47.335 45.137 31.178 92.098 47.658 135.804 47.658s90.667-16.48 135.804-47.658c33.65-23.243 54.5-46.362 55.371-47.335zm-146.175-40.006c0 24.813-20.187 45-45 45s-45-20.187-45-45 20.187-45 45-45 45 20.187 45 45zm-45 105c-72.157 0-135.191-52.52-158.862-75 15.71-14.92 48.749-43.056 90.281-60.304-4.114 9.274-6.419 19.522-6.419 30.303 0 41.355 33.645 75 75 75s75-33.645 75-75c0-10.781-2.304-21.029-6.418-30.303 41.529 17.248 74.568 45.382 90.28 60.303-23.68 22.489-86.71 75.001-158.862 75.001z"/></g></svg>