<svg id="Capa_1" enable-background="new 0 0 512 512" height="512" viewBox="0 0 512 512" width="512" xmlns="http://www.w3.org/2000/svg"><g><g><path d="m115.5 482h396.5v30h-396.5z"/></g><g><path d="m0 482h85.22v30h-85.22z"/></g><g><path d="m512 167.66v-30h-61.03v-47.66h-30v47.66h-61.03v30h16.03v60h-16.03v42.343h-30v-90h-45v-90.003h-45v-90h-120v90h-45v90.003h-45v90h-29.94v68.069l32.297 84.058h-32.297v30h512v-30h-47.629l32.141-92.338c10.278-27.995 15.488-57.309 15.488-87.132v-15h-16.03v-60zm-212.06 102.343h-60v-60h60zm-90-60v60h-60v-60zm45-90.003v60h-60v-60zm-105-90h60v60h-60zm-45 90h60v60h-60zm-45 90.003h60v60h-60zm408.368 109.564-35.703 102.563h-368.17l-34.435-89.623v-32.504h359.94v-42.343h91.559c-1.418 21.147-5.837 41.91-13.191 61.907zm-62.338-91.907v-59.54h60v59.54z"/></g><g><path d="m264.8 330h30v30h-30z"/></g><g><path d="m200.2 330h30v30h-30z"/></g><g><path d="m135.6 330h30v30h-30z"/></g><g><path d="m71 330h30v30h-30z"/></g><g><path d="m329.4 330h30v30h-30z"/></g><g><path d="m394 330h30v30h-30z"/></g></g></svg>