<svg id="Capa_1" enable-background="new 0 0 512 512" height="512" viewBox="0 0 512 512" width="512" xmlns="http://www.w3.org/2000/svg"><g><g><path d="m16 135h45v35c-27.301 13.467-45 41.339-45 72.434v269.566h300v-269.566c0-31.095-17.699-58.966-45-72.434v-35h45v-135h-300zm270 137v150h-240v-150zm-240 210v-30h240v30zm239.992-240h-239.984c.177-20.964 13.131-39.54 32.586-47h174.812c19.455 7.46 32.409 26.036 32.586 47zm-44.992-77h-150v-30h150zm-195-135h240v75h-240z"/><path d="m76 302h180v30h-180z"/><path d="m76 362h90v30h-90z"/><path d="m226 362h30v30h-30z"/><path d="m451 422h-60c-24.813 0-45 20.187-45 45s20.187 45 45 45h60c24.813 0 45-20.187 45-45s-20.187-45-45-45zm-75 45c0-8.271 6.729-15 15-15h15v30h-15c-8.271 0-15-6.729-15-15zm75 15h-15v-30h15c8.271 0 15 6.729 15 15s-6.729 15-15 15z"/><path d="m391 391.979c11.523 0 23.047-4.386 31.82-13.159l42.426-42.427c8.5-8.5 13.181-19.8 13.181-31.82s-4.681-23.321-13.181-31.82c-8.499-8.5-19.8-13.181-31.82-13.181s-23.32 4.681-31.819 13.181l-42.427 42.427c-17.544 17.545-17.544 46.094 0 63.64 8.773 8.773 20.297 13.159 31.82 13.159zm42.426-102.406c4.007 0 7.773 1.561 10.607 4.394 2.833 2.833 4.394 6.6 4.394 10.607 0 4.006-1.561 7.773-4.394 10.606l-10.607 10.607-21.213-21.213 10.607-10.607c2.833-2.833 6.6-4.394 10.606-4.394zm-53.033 46.82 10.607-10.607 21.213 21.214-10.606 10.607c-5.848 5.849-15.364 5.849-21.213 0s-5.849-15.365-.001-21.214z"/></g></g></svg>