<svg id="Capa_1" enable-background="new 0 0 512.008 512.008" height="512" viewBox="0 0 512.008 512.008" width="512" xmlns="http://www.w3.org/2000/svg"><g><path d="m421.008 330.14c-7 0-13.82.79-20.38 2.3-.001 0-.003.001-.004.001l-66.58-161.301h-56.036v30h35.964l27.655 67h-147.151l-9.176-18h23.708v-30h-87.748v30h30.367l15.77 30.934-45.885 54.327c-57.804-21.538-122.393 23.871-121.503 85.74 1.029 93.697 123.873 125.026 170.069 44.999h53.46c28.687.392 50.834-27.887 43.73-55.61l91.881-99.941 13.758 33.332c-25.74 16.09-42.899 44.69-42.899 77.219 4.995 120.726 177.024 120.688 182-.001 0-50.179-40.82-90.999-91-90.999zm-228.757-32h137.59l-79.725 86.719c-7.45-5.479-16.639-8.719-26.578-8.719h-53.46c-5.65-9.9-13.11-18.65-21.93-25.78-.001 0-.001-.001-.002-.001zm-52.713 138c-19.881-.816-19.911-29.17 0-30 22.705-.018 61.067.013 84 0 19.873.813 19.918 29.167 0 30-23.041-.025-61.196.017-84 0zm-48.53 46c-33.64 0-61-27.36-61-61-.163-53.217 64.559-80.771 102.7-44.48-50.63 8.889-50.593 80.091 0 88.96-10.92 10.24-25.59 16.52-41.7 16.52zm330 0c-58.878-.372-82.937-75.168-36.417-109.912l22.552 54.635 27.73-11.446-22.56-54.656c36.292-5.5 70 23.63 69.695 60.379 0 33.64-27.36 61-61 61z"/><path d="m234.292 66.769 31.078 12.031 28.73-39.628 42.811 18.468h25.097v-30h-18.902l-59.189-25.533-29.27 40.373-30.922-11.97-41.303 56.13h-32.414v30h47.586z"/><path d="m72.478 119.81 8.03 5.09 8.03-5.09c1.09-.69 10.96-7.08 20.99-18.11 14.28-15.71 21.82-33.24 21.82-50.72 0-28.03-22.8-50.84-50.84-50.84s-50.84 22.81-50.84 50.84c-.885 27.728 22.615 56.084 42.81 68.83zm8.03-89.67c11.49 0 20.84 9.35 20.84 20.84 0 16.14-12.29 29.73-20.84 37.24-8.55-7.51-20.84-21.1-20.84-37.24 0-11.49 9.35-20.84 20.84-20.84z"/><path d="m413.959 103.746 21.393-21.393 21.394 21.393 21.213-21.213-21.394-21.393 21.394-21.394-21.213-21.213-21.394 21.394-21.393-21.394-21.213 21.213 21.393 21.394-21.393 21.393z"/></g></svg>