<svg id="Capa_1" enable-background="new 0 0 510 510" height="512" viewBox="0 0 510 510" width="512" xmlns="http://www.w3.org/2000/svg"><g><path d="m309.312 166.156-54.312-110.049-54.312 110.049-121.447 17.647 87.879 85.661-20.745 120.956 108.625-57.107 108.625 57.107-20.746-120.956 87.879-85.661zm-27.454 12.158-26.858 36.416-26.858-36.416 26.858-54.42zm-138.148 26.437 60.202-8.748 26.817 36.36-43.593 14.718zm52.8 70.828 43.49-14.683v46.41l-53.781 28.274zm73.49 31.727v-46.41l43.49 14.683 10.291 60.001zm52.864-60.226-43.593-14.718 26.817-36.36 60.202 8.748z"/><path d="m450 0h-30c0 33.084-26.916 60-60 60v30c33.084 0 60 26.916 60 60h30c0-33.084 26.916-60 60-60v-30c-33.084 0-60-26.916-60-60zm-15 100.299c-6.663-10.021-15.278-18.636-25.299-25.299 10.02-6.663 18.636-15.278 25.299-25.299 6.663 10.021 15.278 18.636 25.299 25.299-10.021 6.663-18.636 15.278-25.299 25.299z"/><path d="m90 360h-30c0 33.084-26.916 60-60 60v30c33.084 0 60 26.916 60 60h30c0-33.084 26.916-60 60-60v-30c-33.084 0-60-26.916-60-60zm-15 100.299c-6.663-10.021-15.278-18.636-25.299-25.299 10.021-6.663 18.636-15.278 25.299-25.299 6.663 10.021 15.278 18.636 25.299 25.299-10.021 6.663-18.636 15.278-25.299 25.299z"/></g></svg>