<svg id="Capa_1" enable-background="new 0 0 510 510" height="512" viewBox="0 0 510 510" width="512" xmlns="http://www.w3.org/2000/svg"><g><path d="m240 75h30v30h-30z"/><path d="m195 135h30v30h-30z" transform="matrix(.707 -.707 .707 .707 -44.558 192.427)"/><path d="m280.607 130.607h30v30h-30z" transform="matrix(.707 -.707 .707 .707 -16.378 251.672)"/><path d="m370.768 185.151c38.978-43.228 15.583-113.18-42.028-123.891-6.473-34.815-37.077-61.26-73.74-61.26s-67.266 26.445-73.739 61.261c-57.643 10.717-80.991 80.684-42.029 123.89-7.532 21.502-4.936 45.309 7.191 64.638-21.086 29.047-11.996 69.972 19.169 87.511 2.755 16.82 14.872 30.535 30.804 35.6 1.583 7.199 4.474 13.911 8.392 19.892-31.565 8.845-54.788 37.856-54.788 72.208v45h45c24.508 0 46.305-11.817 60-30.052 13.694 18.235 35.492 30.052 60 30.052h45v-45c0-34.352-23.223-63.362-54.787-72.21 3.918-5.98 6.809-12.692 8.392-19.892 15.932-5.064 28.048-18.779 30.804-35.6 31.183-17.549 40.244-58.478 19.169-87.511 12.107-19.297 14.735-43.101 7.19-64.636zm-175.768 294.849h-15v-15c0-24.814 20.187-45 45-45h15v15c0 24.813-20.187 45-45 45zm135-15v15h-15c-24.814 0-45-20.187-45-45v-15h15c24.814 0 45 20.186 45 45zm13.37-295.078-9.626 7.833 5.893 10.924c8.98 16.647 6.633 37.528-6.568 51.822l-10.615 11.494 11.932 10.121c17.739 15.048 12.305 43.567-9.461 51.196l-10.959 3.841c.984 11.881 1.034 11.898 1.034 12.847 0 8.272-6.729 15-15 15h-15v15c0 16.542-13.458 30-30 30s-30-13.458-30-30v-15h-15c-8.638 0-15.677-7.36-14.938-16.283l.966-11.565-10.952-3.839c-21.776-7.633-27.191-36.157-9.461-51.196l11.931-10.121-10.615-11.494c-7.694-8.332-11.931-19.164-11.931-30.502 0-15.917 7.598-24.22 11.256-32.244l-9.626-7.834c-10.568-8.6-16.63-21.328-16.63-34.922 0-24.813 20.187-45 45-45h15v-15c0-24.813 20.187-45 45-45 24.814 0 45 20.187 45 45v15h15c24.813 0 45 20.187 45 45 0 13.594-6.061 26.322-16.63 34.922z"/></g></svg>