<svg id="Capa_1" enable-background="new 0 0 511.998 511.998" height="512" viewBox="0 0 511.998 511.998" width="512" xmlns="http://www.w3.org/2000/svg"><g><path d="m471 140.007v-140.007h-430.001v140.007h30.001v281.987h-30.001v90.004h430.001v-90.004h-30.002v-281.987zm-400.001-110.007h370.001v80.007h-370.001zm153.666 140.011v-30.004h62.668v30.004zm216.335 311.987h-370.001v-30.004h370.001zm-229.668-104.671v-65.66h89.335v65.66c0 24.629-20.038 44.667-44.667 44.667s-44.668-20.037-44.668-44.667zm119.335-65.66h3.333c11.763 0 21.332 9.569 21.332 21.332s-9.569 21.332-21.332 21.332h-3.334v-42.664zm80.331 110.327h-95.2c8.017-10.706 13.231-23.627 14.543-37.664h3.659c28.305 0 51.332-23.027 51.332-51.332 0-28.304-23.027-51.332-51.332-51.332h-152.668v95.66c0 16.735 5.534 32.202 14.869 44.667h-95.201v-281.986h93.665v60.004h46.334v20.322h30v-20.322h46.334v-60.004h93.665z"/><path d="m219.666 55.003h72.667v30h-72.667z"/><path d="m322.334 55.003h30.001v30h-30.001z"/><path d="m159.662 55.003h30.001v30h-30.001z"/></g></svg>