<?xml version="1.0" encoding="iso-8859-1"?>
<!-- Generator: Adobe Illustrator 19.0.0, SVG Export Plug-In . SVG Version: 6.00 Build 0)  -->
<svg xmlns="http://www.w3.org/2000/svg" xmlns:xlink="http://www.w3.org/1999/xlink" version="1.1" id="Layer_1" x="0px" y="0px" viewBox="0 0 512 512" style="enable-background:new 0 0 512 512;" xml:space="preserve">
<g>
	<g>
		<path d="M509.813,352.274c-3.59-11.513-11.221-21.056-21.489-26.872c-10.584-5.995-22.669-7.342-34.03-3.791l-101.64,31.764    l-115.404-64.3c-28.632-15.952-61.142-19.508-91.542-10.006l-52.184,18.553v-13.845H0v157.836h93.523v-13.797l66.417-20.034    l147.098,55.872l174.544-54.546c11.36-3.55,20.533-11.539,25.832-22.497C512.552,375.982,513.404,363.786,509.813,352.274z     M63.552,411.612H29.971v-97.835h33.582V411.612z M480.434,373.543c-1.65,3.414-4.414,5.874-7.783,6.927l-164.661,51.458    l-146.941-55.814l-67.525,20.367v-67.025l61.381-21.833c22.407-6.92,46.466-4.204,67.768,7.665l126.639,70.561l113.913-35.6    c3.367-1.052,7.041-0.604,10.339,1.265c3.615,2.047,6.328,5.492,7.64,9.701C482.516,365.422,482.243,369.802,480.434,373.543z"/>
	</g>
</g>
<g>
	<g>
		<path d="M474.101,95.274c-7.28-21.152-22.32-36.772-41.264-42.853c-30.473-9.781-56.236,0.209-69.362,7.41    c-13.13-7.2-38.898-17.188-69.366-7.41c-18.952,6.083-33.995,21.712-41.271,42.878c-9.291,27.025-4.669,58.115,12.364,83.166    c9.725,14.303,16.07,30.408,18.35,46.58c0.138,0.97,0.27,1.962,0.401,2.976c5.929,46.037,18.442,69.38,38.255,71.362    c8.93,0.887,21.406-3.09,30.21-27.129c4.156-11.349,7.418-26.436,9.187-42.479c0.437-3.966,1.12-7.105,1.869-9.563    c0.749,2.458,1.432,5.597,1.869,9.563c1.769,16.042,5.031,31.129,9.187,42.478c8.087,22.086,19.28,27.242,27.965,27.242    c0.768,0,1.518-0.041,2.244-0.113c19.813-1.982,32.327-25.325,38.258-71.375c0.125-0.975,0.254-1.93,0.384-2.861    c2.277-16.199,8.64-32.36,18.401-46.735C478.79,153.362,483.395,122.283,474.101,95.274z M436.996,161.547    c-12.326,18.15-20.38,38.698-23.294,59.423c-0.147,1.054-0.293,2.129-0.432,3.215c-2.744,21.313-6.676,33.675-9.718,40.162    c-3.038-7.499-6.516-20.597-8.419-37.86c-1.376-12.483-4.851-22.727-10.33-30.445c-4.896-6.899-12.87-11.019-21.328-11.019    s-16.432,4.119-21.328,11.019c-5.479,7.719-8.954,17.961-10.33,30.444c-1.903,17.264-5.381,30.362-8.419,37.861    c-3.042-6.487-6.974-18.848-9.718-40.161c-0.146-1.139-0.297-2.252-0.45-3.338c-2.918-20.692-10.958-41.186-23.25-59.262    c-11.742-17.269-15.031-38.399-8.801-56.523c4.171-12.132,12.22-20.905,22.083-24.073c27.469-8.813,49.387,7.171,50.958,8.355    l9.089,7.648l9.409-7.641c1.481-1.119,23.443-17.193,50.969-8.363c9.858,3.165,17.905,11.933,22.078,24.057    C451.999,123.159,448.721,144.281,436.996,161.547z"/>
	</g>
</g>
<g>
</g>
<g>
</g>
<g>
</g>
<g>
</g>
<g>
</g>
<g>
</g>
<g>
</g>
<g>
</g>
<g>
</g>
<g>
</g>
<g>
</g>
<g>
</g>
<g>
</g>
<g>
</g>
<g>
</g>
</svg>
