<svg id="Capa_1" enable-background="new 0 0 512.059 512.059" height="512" viewBox="0 0 512.059 512.059" width="512" xmlns="http://www.w3.org/2000/svg"><g><path d="m317.059 0c-107.523 0-195 87.477-195 195 0 48.374 17.712 92.685 46.984 126.803l-18.05 18.05-21.213-21.213-129.78 129.779 63.64 63.639 129.779-129.779-21.213-21.213 18.05-18.049c34.118 29.271 78.429 46.983 126.803 46.983 107.523 0 195-87.477 195-195s-87.477-195-195-195zm-253.419 469.632-21.213-21.213 87.353-87.353 21.213 21.213zm253.419-109.632c-45.363 0-86.507-18.404-116.364-48.134l-.503-.503c-29.73-29.857-48.134-71-48.134-116.364 0-90.981 74.019-165 165-165s165 74.019 165 165-74.018 165.001-164.999 165.001z"/><path d="m217.206 180h199.706v30h-199.706z" transform="matrix(.707 -.707 .707 .707 -45.022 281.308)"/><path d="m377.059 210c-24.813 0-45 20.187-45 45s20.187 45 45 45 45-20.187 45-45-20.187-45-45-45zm0 60c-8.271 0-15-6.729-15-15s6.729-15 15-15 15 6.729 15 15-6.729 15-15 15z"/><path d="m302.059 135c0-24.813-20.187-45-45-45s-45 20.187-45 45 20.187 45 45 45 45-20.187 45-45zm-60 0c0-8.271 6.729-15 15-15s15 6.729 15 15-6.729 15-15 15-15-6.729-15-15z"/></g></svg>