<svg id="Capa_1" enable-background="new 0 0 511.357 511.357" height="512" viewBox="0 0 511.357 511.357" width="512" xmlns="http://www.w3.org/2000/svg"><path id="XMLID_1485_" d="m505.234 288.334c-1.774-2.157-250.082-286.527-250.082-286.527s-247.293 284.395-249.059 286.552c-3.537 4.318-6.093 7.439-6.093 13.029 0 17.501 21.387 24.188 29.438 26.705 12.939 4.045 31.137 7.635 54.089 10.67 26.851 3.551 58.815 6.17 93.654 7.74l51.651 71.21h-13.93v30h25.28v61.837h30v-61.837h27.428v-30h-16.08l51.608-71.163c35.244-1.564 67.575-4.201 94.693-7.787 22.952-3.035 41.15-6.625 54.089-10.67 8.051-2.518 29.438-9.204 29.438-26.705-.001-5.608-2.569-8.731-6.124-13.054zm-137.69-112.939c-12.03-1.245-23.705-2.242-35.43-3.03-20.825-1.401-42.528-2.216-64.603-2.442v-65.266h38.053c20.717 23.614 41.845 47.725 61.98 70.738zm-211.674 88.844 33.633-62.53c15.646-.907 31.703-1.479 48.008-1.719v59.937c-27.26.441-54.5 1.885-81.641 4.312zm111.642-64.315c16.056.168 31.895.659 47.322 1.467l35.809 62.414c-27.639-2.349-55.378-3.667-83.131-3.959zm-30-29.939c-19.852.285-39.369 1.047-58.252 2.296-11.942.789-23.59 1.785-35.911 3.089 20.044-23.005 41.076-47.107 61.698-70.713h32.465zm-123.571 39.165c14.619-1.962 27.593-3.49 40.025-4.703l-34.209 63.6c-21.955 2.687-43.818 6.031-65.544 10.027 15.355-17.829 36.198-41.867 59.728-68.924zm221.207 83.527-17.741 24.463c-19.977.707-40.719 1.074-61.729 1.074-21.371 0-42.468-.379-62.76-1.11l-17.666-24.355c53.188-3.93 106.704-3.955 159.896-.072zm52.232-25.125-36.505-63.626c14.76 1.319 29.857 3.015 46.135 5.175 23.635 27.062 44.571 51.108 59.999 68.948-23.073-4.241-46.301-7.732-69.629-10.497zm-132.18-220.255c7.777 8.849 15.822 18.007 24.035 27.36h-47.969c8.179-9.353 16.19-18.511 23.934-27.36zm-155.046 263.286c-12.852-1.468-23.47-2.989-32.247-4.481 24.043-4.227 48.248-7.637 72.555-10.221l14.041 19.358c-19.516-1.209-37.826-2.77-54.349-4.656zm155.027 92.362-40.021-55.176c13.268.294 26.807.445 40.518.445 13.361 0 26.558-.144 39.501-.423zm156.021-92.362c-16.82 1.921-35.493 3.503-55.404 4.72l14.156-19.52c24.623 2.596 49.143 6.037 73.496 10.318-8.777 1.493-19.395 3.014-32.248 4.482z"/></svg>