<svg id="Capa_1" enable-background="new 0 0 512 512" height="512" viewBox="0 0 512 512" width="512" xmlns="http://www.w3.org/2000/svg"><path d="m406.625 90.375h-75.375v-30.125h-30.125v-15.125c0-24.882-20.243-45.125-45.125-45.125s-45.125 20.243-45.125 45.125v15.125h-30.125v30.125h-75.375c-24.882 0-45.125 20.243-45.125 45.125v301.25c0 24.882 20.243 45.125 45.125 45.125h15.125v30.125h271v-30.125h15.125c24.882 0 45.125-20.243 45.125-45.125v-301.25c0-24.882-20.243-45.125-45.125-45.125zm-195.875 331.375v-30.25h90.5v30.25zm30.125-135.601c.149-3.845 6.167-14.296 15.125-25.78 8.952 11.478 14.969 21.921 15.125 25.772-.009 8.333-6.791 15.109-15.125 15.109-8.34 0-15.125-6.785-15.125-15.101zm0 60.226c0-8.34 6.785-15.125 15.125-15.125s15.125 6.785 15.125 15.125v15.125h-30.25zm75.375 15.125h-15.125v-15.125c0-11.568-4.38-22.13-11.563-30.125 7.183-7.995 11.563-18.557 11.563-30.125 0-10.481-5.728-23.067-18.024-39.609-14.033-18.25-16.418-19.486-27.101-31.189-11.486 12.552-12.571 12.424-27.101 31.189-12.297 16.542-18.024 29.127-18.024 39.609 0 11.568 4.38 22.13 11.563 30.125-7.183 7.995-11.563 18.557-11.563 30.125v15.125h-15.125c-24.951 0-45.25-20.299-45.25-45.25v-60.25c0-44.592 38.842-91.235 51.748-105.5h107.512c21.549 23.98 51.306 65.621 51.74 105.5v60.25c0 24.951-20.299 45.25-45.25 45.25zm-75.375-316.375c0-8.34 6.785-15.125 15.125-15.125s15.125 6.785 15.125 15.125v15.125h-30.25zm60.375 45.125v30.25h-90.5v-30.25zm-211 346.5v-301.25c0-8.34 6.785-15.125 15.125-15.125h75.375v9.144c-14.655 15.956-60.25 70.133-60.25 126.481v60.25c0 36.358 25.919 66.772 60.25 73.745v31.755h-15.125c-19.624 0-36.354 12.596-42.552 30.125h-17.698c-8.34 0-15.125-6.785-15.125-15.125zm271.25 45.25h-211v-15.125c0-8.34 6.785-15.125 15.125-15.125h180.75c8.34 0 15.125 6.785 15.125 15.125zm60.25-45.25c0 8.34-6.785 15.125-15.125 15.125h-17.698c-6.198-17.529-22.927-30.125-42.552-30.125h-15.125v-31.755c34.331-6.972 60.25-37.387 60.25-73.745v-60.25c0-56.348-45.595-110.525-60.25-126.481v-9.144h75.375c8.34 0 15.125 6.785 15.125 15.125z"/></svg>