<svg height="512pt" viewBox="0 0 512 512" width="512pt" xmlns="http://www.w3.org/2000/svg"><path d="m497 91h-136v-76c0-8.285156-6.714844-15-15-15h-180c-8.285156 0-15 6.714844-15 15v76h-136c-8.285156 0-15 6.714844-15 15v90c0 8.285156 6.714844 15 15 15h15v256c0 24.8125 20.1875 45 45 45h362c24.8125 0 45-20.1875 45-45v-256h15c8.285156 0 15-6.714844 15-15v-90c0-8.285156-6.714844-15-15-15zm-316-61h150v61h-150zm271 437c0 8.269531-6.730469 15-15 15h-362c-8.269531 0-15-6.730469-15-15v-256h31v45c0 8.285156 6.714844 15 15 15h60c8.285156 0 15-6.714844 15-15v-45h150v45c0 8.285156 6.714844 15 15 15h61c8.285156 0 15-6.714844 15-15v-45h30zm-301-256v30h-30v-30zm241 0v30h-31v-30zm90-30h-452v-60h452zm0 0"/><path d="m322.578125 423.519531c-13.171875-6.425781-28.480469-15.546875-42.972656-26 24.160156-22.996093 36.394531-45.328125 36.394531-66.519531 0-33.085938-26.914062-60-60-60s-60 26.914062-60 60c0 21.191406 12.234375 43.523438 36.398438 66.519531-14.496094 10.453125-29.800782 19.574219-42.972657 26-7.445312 3.632813-10.539062 12.613281-6.90625 20.058594 3.632813 7.445313 12.613281 10.535156 20.058594 6.902344 13.3125-6.492188 33.871094-18.453125 53.421875-33.132813 19.550781 14.679688 40.109375 26.640625 53.421875 33.132813 7.449219 3.632812 16.429687.542969 20.058594-6.902344 3.632812-7.445313.542969-16.425781-6.902344-20.058594zm-96.578125-92.519531c0-16.542969 13.457031-30 30-30s30 13.457031 30 30c0 14.484375-12.601562 31.496094-30 47.449219-17.398438-15.953125-30-32.964844-30-47.449219zm0 0"/></svg>