<svg id="Capa_1" enable-background="new 0 0 512.213 512.213" height="512" viewBox="0 0 512.213 512.213" width="512" xmlns="http://www.w3.org/2000/svg"><g><path d="m386 120h-62.244c-20.082-70.773-84.804-120-158.756-120-92.026 0-165 74.86-165 165 0 73.85 49.123 138.639 120 158.693v62.307h-81.213l126.213 126.213 126.213-126.213h-81.213v-62.235c54.938-15.518 98.247-58.827 113.765-113.765h62.235v81.213l126.213-126.213-126.213-126.213zm-193.985 177.277-12.015 2.439v116.284h38.787l-53.787 53.787-53.787-53.787h38.787v-116.368l-12.029-2.431c-98.446-19.894-141.345-137.617-78.432-216.448l21.398 21.398c-51.336 68.49-2.656 167.849 84.063 167.849 23.55 0 45.314-7.794 62.849-20.938l21.476 21.476c-16.361 13.061-35.871 22.386-57.31 26.739zm-27.015-207.277c41.355 0 75 33.645 75 75 0 41.332-33.642 75-75 75-41.355 0-75-33.645-75-75 0-41.332 33.642-75 75-75zm251 21.213 53.787 53.787-53.787 53.787v-38.787h-116.283c-2.041 6.705-3.861 37.607-29.178 69.326l-21.476-21.476c13.143-17.535 20.937-39.299 20.937-62.85 0-86.641-99.28-135.458-167.849-84.063l-21.421-21.42c78.558-62.946 196.577-19.884 216.547 78.468l2.44 12.015h116.283z"/></g></svg>