<svg id="Capa_1" enable-background="new 0 0 512 512" height="512" viewBox="0 0 512 512" width="512" xmlns="http://www.w3.org/2000/svg"><g><path d="m412.35 26.4c-16.728-6.429-35.563-5.615-51.674 2.232-16.067 7.826-27.779 21.476-32.979 38.436-3.558 11.604-10.011 22.312-18.663 30.964-10.542 10.542-23.701 17.547-38.034 20.428v-31.04c17.459-6.192 30-22.865 30-42.42 0-24.813-20.187-45-45-45s-45 20.187-45 45c0 19.555 12.541 36.228 30 42.42v31.041c-14.333-2.882-27.492-9.886-38.034-20.428-8.652-8.652-15.105-19.36-18.663-30.964-5.199-16.96-16.911-30.61-32.978-38.436-16.112-7.848-34.947-8.662-51.675-2.232l-99.65 38.294v10.305c0 74.412 60.539 134.95 134.95 134.95h11.734c-8.346 8.423-10.684 17.032-10.684 24.006 0 21.955 22.003 34.751 40.483 41.624-21.904 12.625-25.483 27.832-25.483 36.388 0 9.712 4.599 27.997 35.396 41.345.49.212 1.001.412 1.499.619-13.748 9.424-21.895 21.937-21.895 36.049 0 16.337 10.895 30.541 28.787 40.277-12.765 9.622-22.701 23.035-28.017 38.985l28.461 9.487c6.669-20.008 24.875-33.688 45.77-34.68v67.95h30v-67.949c20.895.991 39.101 14.672 45.77 34.68l28.461-9.487c-5.317-15.951-15.253-29.363-28.017-38.985 17.892-9.736 28.787-23.94 28.787-40.277 0-14.113-8.147-26.625-21.894-36.05.498-.207 1.009-.407 1.499-.619 30.794-13.348 35.393-31.633 35.393-41.345 0-8.555-3.579-23.763-25.483-36.388 33.457-12.443 40.483-29.501 40.483-41.624 0-9.696-4.295-17.604-10.679-24.006h11.729c74.411 0 134.95-60.538 134.95-134.95v-10.305zm-156.35 3.6c8.271 0 15 6.729 15 15s-6.729 15-15 15-15-6.729-15-15 6.729-15 15-15zm-15 383.139c-29.236-3.379-45-16.131-45-23.158s15.764-19.78 45-23.158zm30-46.316c29.236 3.379 45 16.131 45 23.158 0 7.026-15.764 19.779-45 23.158zm-240.516-281.704 79.928-30.716c8.99-3.457 19.115-3.019 27.777 1.2 8.507 4.143 14.697 11.337 17.432 20.257 4.989 16.275 14.025 31.277 26.132 43.384 16.228 16.228 36.87 26.476 59.248 29.647v31.058h-106.051c-54.457.001-99.361-41.688-104.466-94.83zm135.515 148.858c.17-1.274 4.717-7.79 22.536-14.106 14.451-5.123 32.698-8.396 52.465-9.5v47.17c-19.767-1.104-38.013-4.377-52.464-9.499-17.819-6.316-22.366-12.833-22.537-14.065zm15.001 77.991c0-2.439 4.704-8.348 17.325-13.819 11.456-4.965 26.495-8.298 42.675-9.586v46.81c-16.18-1.288-31.219-4.621-42.675-9.586-12.621-5.471-17.325-11.38-17.325-13.819zm132.675 13.819c-11.456 4.965-26.495 8.298-42.675 9.586v-46.81c16.18 1.288 31.219 4.621 42.675 9.586 12.621 5.471 17.325 11.379 17.325 13.819s-4.704 8.348-17.325 13.819zm9.789-77.745c-14.451 5.122-32.697 8.396-52.464 9.499v-47.17c19.768 1.104 38.014 4.377 52.465 9.5 17.724 6.283 22.316 12.763 22.533 14.085-.216 1.323-4.81 7.803-22.534 14.086zm53.586-68.092h-106.05v-31.058c22.378-3.171 43.019-13.419 59.248-29.647 12.106-12.107 21.143-27.109 26.132-43.384 2.734-8.92 8.925-16.115 17.432-20.257 8.661-4.218 18.785-4.655 27.776-1.2l79.928 30.716c-5.105 53.141-50.009 94.83-104.466 94.83z"/></g></svg>