<svg id="Capa_1" enable-background="new 0 0 512.055 512.055" height="512" viewBox="0 0 512.055 512.055" width="512" xmlns="http://www.w3.org/2000/svg"><g><path d="m440.259 224.267c-9.394-23.162-23.298-41.778-41.326-55.333-18.734-14.085-41.477-22.426-67.598-24.792-18.788-1.701-39.005-.275-60.308 4.239v-44.217c0-.795-.021-1.585-.06-2.37h61.199c41.355 0 75-33.645 75-75v-26.794h-91.139c-36.456 0-66.905 26.15-73.612 60.675-5.756-2.492-12.097-3.881-18.759-3.881h-27.231v30h27.231c9.578 0 17.37 7.792 17.37 17.37v44.217c-21.303-4.513-41.522-5.939-60.308-4.239-26.121 2.366-48.864 10.707-67.598 24.792-18.028 13.555-31.933 32.171-41.326 55.333-9.591 23.649-14.455 52.129-14.455 84.65 0 32.441 7.658 65.897 22.147 96.75 14.684 31.268 35.379 57.665 59.849 76.337 35.509 27.096 75.773 36.076 116.69 26.093 10.835 2.644 21.625 3.958 32.292 3.958 29.616 0 58.292-10.13 84.398-30.051 24.47-18.672 45.166-45.069 59.849-76.337 14.489-30.853 22.147-64.308 22.147-96.75.003-32.521-4.86-61.001-14.452-84.65zm-124.232-194.267h61.026c-1.65 23.322-21.152 41.793-44.887 41.793h-61.026c1.651-23.322 21.152-41.793 44.887-41.793zm38.492 428.154c-20.178 15.396-52.956 31.361-94.531 19.981l-3.96-1.084-3.96 1.084c-41.575 11.379-74.354-4.585-94.531-19.981-41.986-32.039-70.195-92.013-70.195-149.237 0-54.343 15.149-94.457 43.809-116.005 28.373-21.332 71.242-25.203 120.711-10.902l4.166 1.205 4.166-1.205c49.47-14.3 92.34-10.429 120.711 10.902 28.66 21.548 43.809 61.662 43.809 116.005 0 57.225-28.21 117.199-70.195 149.237z"/><path d="m211.027 315h30v65h-30z"/><path d="m271.027 315h30v65h-30z"/></g></svg>