<svg id="Capa_1" enable-background="new 0 0 510 510" height="512" viewBox="0 0 510 510" width="512" xmlns="http://www.w3.org/2000/svg"><g><path d="m105 90h75v1.56l-75 57v46.441h105v-30h-75v-1.56l75-57.001v-46.44h-105z"/><path d="m360 60h-60v135.001h30v-45h30c24.813 0 45-20.187 45-45 0-24.814-20.186-45.001-45-45.001zm0 60.001h-30v-30.001h30c8.271 0 15 6.729 15 15.001 0 8.27-6.729 15-15 15z"/><path d="m240 60h30.001v135.001h-30.001z"/><path d="m465 225v-225h-420v225h-45v285h510v-285zm-210 176.25-195-146.249h390zm-101.707-38.78-123.293 100.877v-193.347zm24.718 18.539 76.989 57.741 76.989-57.742 120.99 98.992h-395.958zm178.696-18.538 123.293-92.471v193.347zm-281.707-332.471h360v195h-360z"/></g></svg>