<svg id="Capa_1" enable-background="new 0 0 511.967 511.967" height="512" viewBox="0 0 511.967 511.967" width="512" xmlns="http://www.w3.org/2000/svg"><path d="m481.141 116.049-102.853-102.853c-17.595-17.595-46.225-17.595-63.82 0-16.92 16.169-17.814 46.729.001 63.821l102.855 102.85c5.016 4.955 6.394 15.013 0 21.39-5.897 5.897-15.492 5.897-21.389 0l-74.516-74.516-223.426 223.426c-15.22 15.22-27.481 33.609-35.762 53.512l-27.971 10.22-34.248 34.248 63.82 63.82 34.248-34.247 10.222-27.971c19.902-8.281 38.291-20.542 53.511-35.762l159.61-159.61 10.695 10.695c41.085 41.085 107.937 41.085 149.022 0s41.087-107.937.001-149.023zm-381.033 304.581-8.757-8.758c6.727-15.02 16.244-28.88 27.856-40.492l9.513-9.513 21.394 21.394-9.513 9.513c-11.613 11.611-25.473 21.128-40.493 27.856zm-36.276 48.911-21.394-21.394 8.346-8.346 19.092-6.976 9.279 9.279-6.977 19.092zm289.5-225.682-31.909-31.909-150.097 150.097-21.394-21.394 171.487-171.487 53.303 53.303c17.594 17.594 46.222 17.594 63.815 0 16.919-16.168 17.813-46.727-.001-63.817l-102.854-102.849c-5.017-4.957-6.396-15.015 0-21.394 5.898-5.898 15.495-5.898 21.393 0l102.853 102.853c29.388 29.388 29.388 77.207 0 106.596-29.389 29.389-77.208 29.389-106.596.001z"/></svg>