<svg id="Layer_1" enable-background="new 0 0 510 510" height="512" viewBox="0 0 510 510" width="512" xmlns="http://www.w3.org/2000/svg"><g><path d="m510 300v-90h-65.244c-4.793-20.192-12.861-39.668-23.761-57.355l46.137-46.137-63.64-63.64-46.137 46.137c-17.687-10.9-37.163-18.968-57.355-23.761v-65.244h-90v65.244c-20.193 4.793-39.668 12.861-57.355 23.761l-46.137-46.137-63.64 63.64 46.138 46.137c-10.9 17.688-18.968 37.162-23.761 57.355h-65.245v90h65.244c4.793 20.193 12.861 39.668 23.761 57.355l-46.138 46.137 63.64 63.64 46.137-46.137c17.687 10.899 37.162 18.968 57.355 23.761v65.244h90v-65.244c20.192-4.793 39.668-12.861 57.355-23.761l46.137 46.137 63.64-63.64-46.137-46.137c10.899-17.688 18.968-37.163 23.761-57.355zm-85.294 103.492-21.214 21.214-42.562-42.564-10.336 7.36c-38.122 27.149-74.168 28.606-80.594 30.302v60.196h-30v-60.195l-12.518-2.101c-46.076-7.733-72.679-32.223-78.412-35.562l-42.562 42.564-21.213-21.214 42.563-42.562-7.36-10.336c-27.149-38.122-28.607-74.168-30.302-80.594h-60.196v-30h60.196l2.1-12.518c7.732-46.076 32.223-72.68 35.562-78.412l-42.563-42.562 21.213-21.214 42.562 42.563c5.825-3.393 32.434-27.846 78.412-35.562l12.518-2.1v-60.195h30v60.195l12.518 2.101c46.075 7.732 72.68 32.223 78.412 35.562l42.562-42.563 21.214 21.214-42.564 42.562 7.36 10.336c27.149 38.122 28.606 74.168 30.302 80.594h60.196v30h-60.195l-2.101 12.517c-7.732 46.076-32.223 72.68-35.562 78.412z"/><path d="m255 120c-74.439 0-135 60.561-135 135s60.561 135 135 135 135-60.561 135-135-60.561-135-135-135zm15 238.924v-28.924h-30v28.924c-45.916-6.597-82.327-43.008-88.924-88.924h28.924v-30h-28.924c6.597-45.916 43.008-82.327 88.924-88.924v28.924h30v-28.924c45.916 6.597 82.327 43.008 88.924 88.924h-28.924v30h28.924c-6.597 45.916-43.008 82.327-88.924 88.924z"/><path d="m270 210h-30v54.271l38.292 19.145 13.416-26.832-21.708-10.854z"/></g></svg>