<svg id="Layer_1" enable-background="new 0 0 511.976 511.976" height="512" viewBox="0 0 511.976 511.976" width="512" xmlns="http://www.w3.org/2000/svg"><g><g><path d="m255.988 511.976c-68.376 0-132.661-26.627-181.011-74.977s-74.977-112.634-74.977-181.011c0-68.376 26.627-132.661 74.977-181.011s112.634-74.977 181.011-74.977 132.661 26.627 181.011 74.977 74.977 112.634 74.977 181.011-26.627 132.661-74.977 181.011-112.634 74.977-181.011 74.977zm0-481.976c-60.363 0-117.114 23.507-159.798 66.19s-66.19 99.435-66.19 159.798 23.507 117.114 66.19 159.797 99.434 66.19 159.797 66.19 117.114-23.507 159.797-66.19 66.19-99.434 66.19-159.797-23.507-117.114-66.19-159.797-99.433-66.191-159.796-66.191z"/></g><g><path d="m417.408 316.363h-322.84v-120.75h322.84zm-292.84-30h262.84v-60.75h-262.84z"/></g></g></svg>