<svg id="Capa_1" enable-background="new 0 0 513 513" height="512" viewBox="0 0 513 513" width="512" xmlns="http://www.w3.org/2000/svg"><g><path d="m155.593 80.125h169.487v-30.047h-169.487c-55.416 0-100.5 45.154-100.5 100.657 0 54.676 36.811 102.647 89.517 116.657l7.695-29.041c-39.574-10.519-67.212-46.548-67.212-87.616 0-38.935 31.626-70.61 70.5-70.61z"/><path d="m372.184 246.482-8.646 28.771c37.899 11.425 64.369 47.123 64.369 86.81 0 38.935-31.626 70.61-70.5 70.61h-181.544v30.047h181.543c55.416 0 100.5-45.154 100.5-100.657 0-26.459-8.392-51.58-24.269-72.647-15.347-20.367-37.172-35.615-61.453-42.934z"/><path d="m437.031 218.606 10.654-10.768c2.646-2.675 64.815-66.263 64.815-132.252 0-41.678-33.855-75.586-75.47-75.586-41.614 0-75.469 33.908-75.469 75.587 0 65.988 62.169 129.577 64.815 132.252zm-.001-188.559c25.072 0 45.47 20.429 45.47 45.54 0 38.822-29.204 79.449-45.484 99.08-16.282-19.589-45.455-60.126-45.455-99.08 0-25.111 20.397-45.54 45.469-45.54z"/><path d="m422.031 65.449h30v30.047h-30z"/><path d="m75.969 294.394c-41.614 0-75.469 33.908-75.469 75.587 0 65.988 62.168 129.577 64.815 132.251l10.654 10.768 10.654-10.768c2.646-2.675 64.815-66.263 64.815-132.251.001-41.679-33.855-75.587-75.469-75.587zm0 174.648c-16.282-19.636-45.469-60.249-45.469-99.061 0-25.111 20.397-45.541 45.469-45.541s45.47 20.429 45.47 45.541c0 38.812-29.187 79.425-45.47 99.061z"/><path d="m60.969 359.844h30v30.047h-30z"/><path d="m202.366 224.529-21.214 21.246 25.606 25.647h114.483v-30.047h-29.696l-25.762-45.437-26.087 14.837 17.35 30.6h-37.861z"/></g></svg>