<svg id="Capa_1" enable-background="new 0 0 512 512" height="512" viewBox="0 0 512 512" width="512" xmlns="http://www.w3.org/2000/svg"><g><path d="m116.108 283.339h-46.108v16.154c0 41.295 33.596 74.891 74.892 74.891h46.108v-16.154c0-41.294-33.596-74.891-74.892-74.891zm28.784 61.046c-19.923 0-36.857-13.048-42.707-31.045h13.924c19.923 0 36.857 13.048 42.707 31.045z"/><path d="m497 218.339v-60h-113.073c-28.24 0-56.318 5.929-82.072 17.202-5.695-9.647-12.414-18.784-20.106-27.279 12.618-8.371 20.958-22.698 20.958-38.942 0-25.754-20.953-46.706-46.707-46.706s-46.707 20.952-46.707 46.706c0 16.243 8.34 30.57 20.957 38.941-7.88 8.701-14.742 18.069-20.526 27.967-26.186-11.725-54.778-17.89-83.617-17.89h-111.107v60h-15v86.154c0 79.893 64.998 144.891 144.892 144.891 44.323 0 85.67-21.598 111.108-57.198 25.438 35.6 66.786 57.198 111.109 57.198 79.893 0 144.891-64.998 144.891-144.891v-86.154h-15zm-113.073-30h83.073v30h-81.109c-22.721 0-44.234 5.263-63.393 14.625-1.633-10.368-4.245-20.504-7.81-30.294 21.752-9.393 45.425-14.331 69.239-14.331zm-166.225 62.711c1.768-32.305 15.19-62.655 38.298-86.396 23.072 23.707 36.486 54.055 38.288 86.404-15.94 13.041-29.055 29.406-38.288 48.026-9.235-18.625-22.354-34.992-38.298-48.034zm38.298-158.435c9.212 0 16.707 7.494 16.707 16.706s-7.495 16.707-16.707 16.707-16.707-7.495-16.707-16.707 7.495-16.706 16.707-16.706zm-211 95.724h81.108c24.457 0 48.701 5.191 70.922 15.07-3.431 9.561-5.96 19.443-7.547 29.546-19.155-9.356-40.661-14.615-63.375-14.615h-81.108zm192.77 176.71c-18.841 33.516-54.43 54.336-92.878 54.336-63.352 0-114.892-51.54-114.892-114.891v-56.154h96.109c62.075 0 112.81 49.482 114.829 111.075zm244.23-60.555c0 63.351-51.54 114.891-114.891 114.891-38.449 0-74.038-20.82-92.878-54.336l-3.167-5.634c2.019-61.593 52.753-111.075 114.829-111.075h96.107z"/><path d="m321 358.23v16.154h46.108c41.295 0 74.892-33.596 74.892-74.891v-16.154h-46.108c-41.296 0-74.892 33.597-74.892 74.891zm74.892-44.891h13.924c-5.85 17.998-22.784 31.045-42.707 31.045h-13.924c5.849-17.997 22.783-31.045 42.707-31.045z"/></g></svg>