<svg id="Capa_1" enable-background="new 0 0 512 512" height="512" viewBox="0 0 512 512" width="512" xmlns="http://www.w3.org/2000/svg"><g><path d="m422 184.166v-184.166h-332v184.166h-90v327.834h512v-327.834zm-30-154.166v214.166h-121v-30h30v-30h-30v-22.211c21.428-6.457 37.083-26.367 37.083-49.872 0-28.719-23.364-52.083-52.083-52.083s-52.083 23.364-52.083 52.083c0 23.505 15.655 43.414 37.083 49.872v22.211h-30v30h30v30h-121v-214.166zm-136 104.166c-12.177 0-22.083-9.906-22.083-22.083s9.906-22.083 22.083-22.083 22.083 9.906 22.083 22.083-9.906 22.083-22.083 22.083zm-166 80v30h-30v30h392v-30h-30v-30h60v90h-452v-90zm-60 267.834v-147.834h452v147.834z"/><path d="m151 452h210v-90h-210zm30-60h150v30h-150z"/></g></svg>