<svg id="Capa_1" enable-background="new 0 0 512 512" height="512" viewBox="0 0 512 512" width="512" xmlns="http://www.w3.org/2000/svg"><g><path d="m91 181c-8.271 0-15-6.729-15-15s6.729-15 15-15c4.006 0 7.773 1.56 10.607 4.394l10.607 10.606 21.213-21.214-10.607-10.606c-8.5-8.499-19.8-13.18-31.82-13.18-24.813 0-45 20.187-45 45s20.187 45 45 45c8.271 0 15 6.729 15 15s-6.729 15-15 15c-4.006 0-7.773-1.56-10.607-4.394l-10.607-10.606-21.213 21.214 10.607 10.606c8.5 8.5 19.8 13.18 31.82 13.18 24.813 0 45-20.187 45-45s-20.187-45-45-45z"/><path d="m196 121c-24.813 0-45 20.187-45 45v60c0 24.813 20.187 45 45 45s45-20.187 45-45v-60c0-24.813-20.187-45-45-45zm15 105c0 8.271-6.729 15-15 15s-15-6.729-15-15v-60c0-8.271 6.729-15 15-15s15 6.729 15 15z"/><path d="m436 213.28-34.605-92.28h-40.395v150h30v-92.28l34.605 92.28h40.395v-150h-30z"/><path d="m301 121c-24.813 0-45 20.187-45 45v60c0 24.813 20.187 45 45 45s45-20.187 45-45v-60c0-24.813-20.187-45-45-45zm15 105c0 8.271-6.729 15-15 15s-15-6.729-15-15v-60c0-8.271 6.729-15 15-15s15 6.729 15 15z"/><path d="m467 61h-166v-61h-90v61h-166c-24.813 0-45 20.187-45 45v180c0 24.813 20.187 45 45 45h166v181h90v-181h166c24.813 0 45-20.187 45-45v-180c0-24.813-20.187-45-45-45zm-226-31h30v31h-30zm30 452h-30v-151h30zm211-196c0 8.271-6.729 15-15 15-11.726 0-408.737 0-422 0-8.271 0-15-6.729-15-15v-180c0-8.271 6.729-15 15-15h422c8.271 0 15 6.729 15 15z"/></g></svg>