<svg id="Capa_1" enable-background="new 0 0 511.797 511.797" height="512" viewBox="0 0 511.797 511.797" width="512" xmlns="http://www.w3.org/2000/svg"><g><path d="m394.839 205.338 116.53-43.304-60.213-162.034-116.53 43.304 7.337 19.743-231.311 85.957 6.389 17.192-49.966 18.568-11.06-29.761 14.325-5.323-10.45-28.121-56.773 21.096 10.45 28.121 14.325-5.323 11.06 29.761-38.524 14.316 32.762 88.163 116.611-43.334 6.389 17.192 54.799-20.364c.212 13.237 6.163 25.097 15.474 33.204l-85.354 216.399 27.907 11.008 32.77-83.081h108.371l32.77 83.081 27.907-11.008-85.354-216.398c9.481-8.256 15.492-20.401 15.492-33.931 0-10.956-3.94-21.007-10.472-28.819l97.003-36.047zm-153.868 45.122c0-8.271 6.729-15 15-15s15 6.729 15 15-6.729 15-15 15-15-6.729-15-15zm57.352 148.257h-84.705l40.744-103.297c.535.019 1.069.041 1.609.041s1.074-.022 1.609-.041zm135.162-360.146 39.313 105.792-60.288 22.403-39.313-105.791zm-294.133 187.667-88.49 32.883-11.862-31.92 88.49-32.883zm237.7-68.765-203.19 75.506-24.639-66.305 203.19-75.506z"/></g></svg>