<svg id="Capa_1" enable-background="new 0 0 510 510" height="512" viewBox="0 0 510 510" width="512" xmlns="http://www.w3.org/2000/svg"><g><path d="m480 210v30h-45.63c-3.182-38.379-18.455-73.373-41.992-101.165l32.328-32.327 21.213 21.213 21.213-21.213-63.64-63.64-21.213 21.213 21.213 21.214-32.327 32.327c-27.792-23.537-62.786-38.81-101.165-41.992v-45.63h30v-30h-90v30h30v45.63c-38.378 3.182-73.374 18.455-101.165 41.992l-32.328-32.328 21.213-21.213-21.213-21.213-63.64 63.64 21.213 21.213 21.213-21.214 32.328 32.328c-23.536 27.791-38.809 62.786-41.991 101.165h-45.63v-30h-30v90h30v-30h45.63c3.182 38.379 18.455 73.374 41.992 101.165l-32.328 32.328-21.213-21.214-21.213 21.213 63.64 63.64 21.213-21.213-21.213-21.213 32.328-32.328c27.791 23.537 62.787 38.81 101.165 41.992v45.63h-30v30h90v-30h-30v-45.63c38.379-3.182 73.373-18.455 101.165-41.992l32.327 32.327-21.213 21.214 21.213 21.213 63.64-63.64-21.213-21.213-21.213 21.213-32.328-32.327c23.537-27.791 38.811-62.786 41.992-101.165h45.629v30h30v-90zm-225 195c-82.71 0-150-67.29-150-150s67.29-150 150-150 150 67.29 150 150-67.29 150-150 150z"/><path d="m195 187.5c0 4.136-3.364 7.5-7.5 7.5-20.678 0-37.5 16.822-37.5 37.5v15c0 20.678 16.822 37.5 37.5 37.5 4.136 0 7.5 3.364 7.5 7.5v22.5h30v-22.5c0-20.678-16.822-37.5-37.5-37.5-4.136 0-7.5-3.364-7.5-7.5v-15c0-4.136 3.364-7.5 7.5-7.5 20.678 0 37.5-16.822 37.5-37.5v-22.5h-30z"/><path d="m300 240c24.813 0 45-20.187 45-45 0-24.814-20.187-45-45-45-24.814 0-45 20.186-45 45 0 24.813 20.186 45 45 45zm0-60c8.271 0 15 6.729 15 15s-6.729 15-15 15c-8.272 0-15-6.729-15-15s6.728-15 15-15z"/><path d="m294.742 331.472c-8.984-5.06-9.75-17-9.753-17.038l-29.979 1.133c.11 2.924 1.751 28.944 25.008 42.044 7.292 4.107 15.459 6.105 23.676 6.105 12.81 0 25.738-4.855 35.651-14.141l-20.508-21.895c-6.817 6.382-16.725 7.942-24.095 3.792z"/><path d="m330 270h30v30h-30z"/></g></svg>