<svg id="Capa_1" enable-background="new 0 0 512 512" height="512" viewBox="0 0 512 512" width="512" xmlns="http://www.w3.org/2000/svg"><g><path d="m437.02 74.98c-48.353-48.351-112.64-74.98-181.02-74.98s-132.667 26.629-181.02 74.98c-48.351 48.353-74.98 112.64-74.98 181.02s26.629 132.667 74.98 181.02c48.353 48.351 112.64 74.98 181.02 74.98s132.667-26.629 181.02-74.98c48.351-48.353 74.98-112.64 74.98-181.02s-26.629-132.667-74.98-181.02zm-181.02 407.02c-124.617 0-226-101.383-226-226s101.383-226 226-226 226 101.383 226 226-101.383 226-226 226z"/><path d="m256 65c-105.318 0-191 85.682-191 191s85.682 191 191 191 191-85.682 191-191-85.682-191-191-191zm59.934 41.578c-.92.496-1.835 1.009-2.734 1.558l-17.869 10.896c-23.641 14.419-53.161 14.662-77.037.636l-20.402-11.985c-.632-.371-1.271-.724-1.911-1.071 18.557-7.482 38.814-11.612 60.019-11.612 21.173 0 41.4 4.116 59.934 11.578zm-59.934 310.422c-88.776 0-161-72.224-161-161 0-47.899 21.033-90.97 54.339-120.488 9.566-7.386 22.669-8.241 33.358-1.962l20.402 11.985c16.457 9.667 34.824 14.492 53.185 14.491 18.935 0 37.863-5.133 54.667-15.381l17.868-10.896c10.611-6.471 24.154-5.699 33.76 1.689 33.353 29.52 54.421 72.624 54.421 120.562 0 88.776-72.224 161-161 161z"/><path d="m297 241h30v30h-30z"/><path d="m312 181c-36.219 0-66.524 25.809-73.493 60h-26.077c-6.191-17.461-22.874-30-42.43-30-24.813 0-45 20.187-45 45 0 72.234 58.766 131 131 131s131-58.766 131-131c0-41.355-33.645-75-75-75zm-56 176c-55.691 0-101-45.309-101-101 0-8.271 6.729-15 15-15s15 6.729 15 15v15h82v-15c0-24.813 20.187-45 45-45s45 20.187 45 45c0 55.691-45.309 101-101 101z"/></g></svg>