<svg id="Capa_1" enable-background="new 0 0 512 512" height="512" viewBox="0 0 512 512" width="512" xmlns="http://www.w3.org/2000/svg"><g><path d="m151 80.333h-30.2v80.333h-30.2v80.334h-30.2v80.333h-30.2v80.333h-30.2v110.334h241v-512h-90zm-.2 30h60.2v50.333h-60.2zm-30.2 80.334h90.4v50.333h-90.4zm-30.2 80.333h120.6v50.333h-120.6zm120.6 211h-181v-50.333h181zm-150.8-80.333v-50.333h150.8v50.333zm150.8-371.667v50.333h-30v-50.333z"/><path d="m481.8 401.667v-80.333h-30.2v-80.334h-30.2v-80.333h-30.2v-80.334h-30.2v-80.333h-90v512h241v-110.333zm-30 0h-150.8v-50.333h150.8zm-30.2-80.334h-120.6v-50.333h120.6zm-30.2-80.333h-90.4v-50.333h90.4zm-30.2-80.333h-60.2v-50.333h60.2zm-30.2-130.667v50.333h-30v-50.333zm151 452h-181v-50.333h181z"/></g></svg>