<svg id="Capa_1" enable-background="new 0 0 512 512" height="512" viewBox="0 0 512 512" width="512" xmlns="http://www.w3.org/2000/svg"><g><path d="m442.375 301.613c15.445-8.911 25.871-25.587 25.871-44.663 0-28.418-23.119-51.537-51.537-51.537-23.697 0-42.975 19.278-42.975 42.975h30.013c0-7.147 5.815-12.962 12.962-12.962 11.868 0 21.524 9.656 21.524 21.524s-9.656 21.524-21.524 21.524c0 0-40.068 0-40.156 0-29.526 0-56.251 12.207-75.408 31.832v-69.26l18.387-29.282 42.178-10.637-2.891-43.408 27.842-33.409-27.842-33.409 2.892-43.408-42.177-10.637-23.145-36.855-40.389 16.219-40.388-16.22-23.143 36.856-42.178 10.637 2.891 43.408-27.842 33.41 27.842 33.409-2.892 43.408 42.177 10.637 18.388 29.282v69.26c-19.157-19.626-45.882-31.832-75.408-31.832-.088 0-40.156 0-40.156 0-11.868 0-21.524-9.656-21.524-21.524s9.656-21.524 21.524-21.524c7.147 0 12.962 5.815 12.962 12.962h30.013c0-23.697-19.278-42.975-42.975-42.975-28.418 0-51.537 23.119-51.537 51.537 0 19.076 10.426 35.752 25.871 44.663-24.122 19.336-39.599 49.033-39.599 82.282 0 41.511 33.772 75.283 75.283 75.283s75.283-33.771 75.283-75.281c0-24.893-20.252-45.145-45.145-45.145s-45.145 20.252-45.145 45.145h30.013c0-8.344 6.788-15.132 15.132-15.132 8.343 0 15.132 6.787 15.132 15.13 0 24.962-20.308 45.27-45.27 45.27s-45.27-20.308-45.27-45.27c0-41.58 33.828-75.407 75.408-75.407s75.408 33.828 75.408 75.407v128.104h30.013v-60.276h30.263v60.276h30.013v-128.105c0-41.58 33.828-75.407 75.408-75.407s75.408 33.828 75.408 75.407c0 24.962-20.308 45.27-45.27 45.27s-45.27-20.307-45.27-45.268c0-8.344 6.788-15.132 15.132-15.132s15.132 6.788 15.132 15.132h30.013c0-24.893-20.252-45.145-45.145-45.145s-45.145 20.251-45.145 45.143c0 41.511 33.772 75.283 75.283 75.283s75.283-33.772 75.283-75.283c.001-33.248-15.476-62.946-39.598-82.282zm-260.474-123.466 2.026-30.415-19.518-23.42 19.518-23.422-2.026-30.415 29.581-7.46 16.213-25.818 28.305 11.367 28.305-11.367 16.213 25.818 29.581 7.461-2.026 30.415 19.518 23.421-19.518 23.421 2.026 30.416-29.581 7.46-16.213 25.818-28.305-11.369-28.305 11.368-16.213-25.819zm58.967 60.331 15.132-6.077 15.132 6.077v183.232h-30.263v-183.232z"/><path d="m256 172.957c26.824 0 48.646-21.823 48.646-48.646s-21.822-48.646-48.646-48.646-48.646 21.823-48.646 48.646 21.822 48.646 48.646 48.646zm0-67.279c10.275 0 18.633 8.359 18.633 18.633s-8.359 18.633-18.633 18.633-18.633-8.359-18.633-18.633 8.358-18.633 18.633-18.633z"/></g></svg>