<svg id="Capa_1" enable-background="new 0 0 512 512" height="512" viewBox="0 0 512 512" width="512" xmlns="http://www.w3.org/2000/svg"><g><path d="m447.792 169.958c-2.689-2.558-4.232-6.082-4.232-9.668v-54.378c0-57.427-46.212-104.49-103.015-104.911-27.886-.212-54.127 10.492-73.907 30.126-17.505 17.376-28.044 39.865-30.239 64.125-13.965-11.153-30.811-18.763-49.19-21.47v-28.87c0-8.255 6.716-14.971 14.971-14.971h20.184v-29.941h-20.184c-16.224 0-30.464 8.648-38.359 21.575-13.425-12.737-31.541-20.577-51.465-20.577h-90.962v26.741c0 41.274 33.579 74.854 74.854 74.854h3.091c-.074.073-.15.143-.224.217-19.782 19.635-30.676 45.799-30.676 73.67v55.489c0 3.586-1.561 7.13-4.284 9.721-31.48 29.973-48.77 70.406-48.686 113.853.081 41.783 16.795 81.214 47.062 111.031 29.787 29.342 68.685 45.426 109.739 45.426.683 0 1.368-.004 2.052-.014 41.438-.54 80.309-17.086 109.452-46.59 8.684-8.792 16.197-18.439 22.48-28.741 10.914 2.418 22.142 3.661 33.537 3.661.683 0 1.369-.004 2.054-.014 41.438-.54 80.309-17.086 109.452-46.589 29.17-29.53 45.234-68.654 45.234-110.166-.001-43.352-17.31-83.692-48.739-113.589zm-351.544-97.306c-23.689 0-43.153-18.435-44.8-41.712h60.907c23.689 0 43.153 18.435 44.799 41.712zm166.224 371.704c-23.578 23.869-55.022 37.255-88.541 37.692-.552.007-1.099.011-1.65.011-33.141-.001-64.598-13.037-88.736-36.815-24.525-24.16-38.067-56.037-38.133-89.759-.069-35.148 13.921-67.86 39.39-92.109 8.63-8.216 13.579-19.664 13.579-31.406v-55.49c0-19.832 7.752-38.448 21.828-52.42 13.941-13.838 32.397-21.438 52.028-21.438.188 0 .377 0 .564.002 40.415.3 73.295 33.931 73.295 74.971v54.378c0 11.747 4.934 23.178 13.537 31.362 25.429 24.189 39.433 56.825 39.433 91.897 0 33.582-12.996 65.234-36.594 89.124zm32.068-187.231c9.969-14.286 26.519-23.656 45.222-23.656 30.391 0 55.116 24.725 55.116 55.116s-24.725 55.116-55.116 55.116c-3.859 0-7.623-.406-11.259-1.167-2.491-31.505-14.24-60.969-33.963-85.409zm135.455 115.548c-23.577 23.868-55.022 37.254-88.541 37.692-7.363.087-14.641-.483-21.781-1.65 4.172-11.519 6.982-23.554 8.354-35.904 3.838.537 7.751.832 11.735.832 46.901 0 85.057-38.156 85.057-85.057s-38.156-85.057-85.057-85.057c-25.342 0-48.113 11.154-63.705 28.798-.003-.118-.019-.234-.019-.352v-54.378c0-16.117-3.641-31.418-10.134-45.1v-27.698c0-19.832 7.752-38.448 21.828-52.42 13.94-13.838 32.397-21.438 52.027-21.438.188 0 .377 0 .564.002 40.415.3 73.295 33.931 73.295 74.971v54.378c0 11.747 4.934 23.178 13.537 31.362 25.429 24.189 39.433 56.825 39.433 91.897.001 33.581-12.995 65.233-36.593 89.122z"/></g></svg>