<?xml version="1.0" encoding="iso-8859-1"?>
<!-- Generator: Adobe Illustrator 19.0.0, SVG Export Plug-In . SVG Version: 6.00 Build 0)  -->
<svg xmlns="http://www.w3.org/2000/svg" xmlns:xlink="http://www.w3.org/1999/xlink" version="1.1" id="Layer_1" x="0px" y="0px" viewBox="0 0 512 512" style="enable-background:new 0 0 512 512;" xml:space="preserve">
<g>
	<g>
		<path d="M475.019,69.549c10.131-14.68,9.609-33.448-2.103-45.149c-13.227-13.216-35.486-12.182-50.671,2.356L217.072,223.151    l-16.2-16.185L0,407.647l89.305,89.221l200.872-200.682l-16.2-16.185l108.069-112.685l34.538,34.505L512,106.496L475.019,69.549z     M89.305,454.442l-46.839-46.795L60.52,389.61l46.839,46.795L89.305,454.442z M173.077,366.352l-10.602-10.592l26.78-26.755    l10.602,10.592L173.077,366.352z M223.292,320.582l-34.037-34.003l-69.246,69.181l34.036,34.004l-25.453,25.429l-46.839-46.795    l119.119-119.006l46.839,46.795L223.292,320.582z M252.739,258.783l-14.428-14.414L443.019,48.418    c3.806-3.642,7.85-3.617,8.665-2.805c0.814,0.813,0.839,4.854-2.807,8.655L252.739,258.783z M416.584,159.395l-13.759-13.746    l51.818-54.031l14.891,14.877L416.584,159.395z"/>
	</g>
</g>
<g>
</g>
<g>
</g>
<g>
</g>
<g>
</g>
<g>
</g>
<g>
</g>
<g>
</g>
<g>
</g>
<g>
</g>
<g>
</g>
<g>
</g>
<g>
</g>
<g>
</g>
<g>
</g>
<g>
</g>
</svg>
