<svg id="Capa_1" enable-background="new 0 0 512 512" height="512" viewBox="0 0 512 512" width="512" xmlns="http://www.w3.org/2000/svg"><path d="m490.051 197.605c-19.346-12.675-43.705-14.991-65.16-6.195-16.055 6.581-28.817 18.804-36.073 34.011-33.92-26.369-74.633-41.9-117.818-44.827v-32.668c17.529-6.198 30.125-22.927 30.125-42.552v-15.124h29.452v-90.25h-149.154v90.25h29.452v15.125c0 19.624 12.596 36.354 30.125 42.552v32.668c-43.185 2.927-83.898 18.458-117.818 44.827-7.256-15.208-20.019-27.431-36.073-34.012-21.455-8.796-45.814-6.479-65.161 6.195l-21.946 14.379 16.441 25.094 21.945-14.379c11.076-7.256 25.035-8.576 37.341-3.531 11.889 4.777 21.228 15.858 23.496 28.855 19.107 108.514 103.989 216.506 156.775 263.977 88.677-82.001 144.599-190.951 156.773-263.972 2.017-12.269 11.22-23.977 23.497-28.86 12.306-5.045 26.265-3.725 37.34 3.531l21.946 14.379 16.441-25.094zm-278.628-137.355v-30.25h89.154v30.25zm29.452 45.125v-15.125h30.25v15.125c0 8.34-6.785 15.125-15.125 15.125s-15.125-6.785-15.125-15.125zm56.062 109.29c-7.43 15.251-23.235 25.663-40.937 25.663s-33.507-10.412-40.937-25.663c26.931-5.995 54.943-5.995 81.874 0zm-110.74 8.923c4.445 10.813 11.384 20.552 20.373 28.335 13.707 11.869 31.262 18.405 49.431 18.405s35.724-6.536 49.431-18.405c8.989-7.783 15.928-17.521 20.373-28.335 9.369 3.754 18.488 8.302 27.262 13.63-7.344 16.692-19.076 31.513-33.814 42.473-18.375 13.664-40.247 20.887-63.251 20.887s-44.876-7.223-63.251-20.887c-14.738-10.96-26.47-25.781-33.814-42.473 8.771-5.328 17.89-9.877 27.26-13.63zm69.811 246.501c-27.168-28.562-100.41-112.761-124.178-212.832.779-.693 1.561-1.383 2.348-2.061 9.434 19.058 23.246 35.611 40.669 48.568 23.589 17.541 51.651 26.813 81.153 26.813s57.564-9.272 81.153-26.813c17.423-12.957 31.235-29.51 40.669-48.568.783.674 1.559 1.359 2.333 2.048-21.957 88.209-75.12 160.151-124.147 212.845z"/></svg>