<svg id="Capa_1" enable-background="new 0 0 512 512" height="512" viewBox="0 0 512 512" width="512" xmlns="http://www.w3.org/2000/svg"><g><path d="m198.883 133.405-22.432 22.432 21.213 21.213 22.432-22.432c6.339 3.999 13.383 6.968 20.904 8.682v31.7h30v-31.701c7.521-1.714 14.566-4.683 20.904-8.682l22.432 22.432 21.213-21.213-22.432-22.432c3.999-6.339 6.968-13.383 8.682-20.905h31.701v-30h-31.701c-1.714-7.521-4.683-14.566-8.682-20.905l22.432-22.432-21.213-21.213-22.432 22.432c-6.339-3.999-13.383-6.968-20.904-8.682v-31.699h-30v31.701c-7.521 1.714-14.566 4.683-20.904 8.682l-22.432-22.432-21.213 21.213 22.432 22.432c-3.999 6.339-6.968 13.383-8.682 20.905h-31.701v30h31.701c1.714 7.52 4.683 14.565 8.682 20.904zm57.117-73.405c20.678 0 37.5 16.822 37.5 37.5s-16.822 37.5-37.5 37.5-37.5-16.822-37.5-37.5 16.822-37.5 37.5-37.5z"/><path d="m467 315h45v-15c0-41.355-33.645-75-75-75h-362c-41.355 0-75 33.645-75 75v15h30c12.407 0 22.5 10.093 22.5 22.5s-10.093 22.5-22.5 22.5h-30v15c0 36.219 25.808 66.522 60 73.491v63.509h392v-63.509c34.192-6.968 60-37.272 60-73.491v-15h-45c-12.407 0-22.5-10.093-22.5-22.5s10.093-22.5 22.5-22.5zm-392-60h362c19.556 0 36.239 12.539 42.43 30h-446.86c6.191-17.461 22.874-30 42.43-30zm15 227v-32h332v32zm389.43-92c-6.191 17.461-22.874 30-42.43 30h-362c-19.556 0-36.239-12.539-42.43-30zm-402.006-30c3.251-6.824 5.076-14.452 5.076-22.5s-1.825-15.676-5.076-22.5h342.152c-3.251 6.824-5.076 14.452-5.076 22.5s1.825 15.676 5.076 22.5z"/></g></svg>