<svg id="Capa_1" enable-background="new 0 0 512 512" height="512" viewBox="0 0 512 512" width="512" xmlns="http://www.w3.org/2000/svg"><g><path d="m443.896 178.27c-7.943-35.538-25.68-67.777-51.738-93.835-36.366-36.367-84.721-56.395-136.158-56.395-46.119 0-90.736 16.559-125.631 46.626-31.421 27.073-53.229 63.504-62.242 103.593-17.054 2.219-32.811 9.948-45.149 22.302-14.818 14.781-22.978 34.47-22.978 55.439 0 39.749 29.732 72.684 68.125 77.733 9.012 40.092 30.821 76.526 62.244 103.601 34.895 30.067 79.512 46.626 125.631 46.626s90.736-16.559 125.631-46.626c31.421-27.074 53.229-63.504 62.242-103.593 17.054-2.219 32.811-9.948 45.149-22.302 14.818-14.781 22.978-34.47 22.978-55.439 0-39.741-29.722-72.671-68.104-77.73zm23.919 111.949c-9.136 9.147-21.289 14.185-34.219 14.185h-15.056l-2.003 12.654c-12.558 79.326-80.074 136.902-160.537 136.902s-147.979-57.576-160.537-136.902l-2.003-12.654h-15.056c-26.69 0-48.404-21.714-48.404-48.404 0-12.942 5.03-25.087 14.185-34.219 9.136-9.147 21.289-14.185 34.219-14.185h15.056l2.003-12.655c12.558-79.325 80.074-136.901 160.537-136.901 22.854 0 41.447 18.593 41.447 41.447v40.707c0 22.854-18.593 41.447-41.447 41.447s-41.447-18.593-41.447-41.447h-30c0 39.396 32.051 71.447 71.447 71.447s71.447-32.051 71.447-71.447v-40.707c0-9.774-1.977-19.094-5.546-27.587 18.054 8.008 34.66 19.364 49.044 33.748 24.449 24.449 40.219 55.327 45.606 89.298l2.006 12.65h15.039c26.69 0 48.404 21.714 48.404 48.404 0 12.942-5.03 25.087-14.185 34.219z"/><path d="m256 369.29c-18.656 0-36.69-6.686-50.779-18.827l-19.583 22.727c19.532 16.831 44.521 26.1 70.362 26.1s50.83-9.269 70.362-26.1l-19.583-22.727c-14.089 12.141-32.123 18.827-50.779 18.827z"/><path d="m215.995 271c0-24.813-20.187-45-45-45s-45 20.187-45 45h30c0-8.271 6.729-15 15-15s15 6.729 15 15z"/><path d="m341.005 226c-24.813 0-45 20.187-45 45h30c0-8.271 6.729-15 15-15s15 6.729 15 15h30c0-24.813-20.187-45-45-45z"/></g></svg>