<svg id="Capa_1" enable-background="new 0 0 512 512" height="512" viewBox="0 0 512 512" width="512" xmlns="http://www.w3.org/2000/svg"><g><g><path d="m213.429 383.646-32.833-16.417v-57.979h-30.125v-6.698c17.528-6.198 30.125-22.927 30.125-42.552s-12.596-36.354-30.125-42.552v-8.991c15.982-4.981 30.138-17.983 40.814-37.84 12.533-23.31 19.436-55.007 19.436-89.253v-51.239h-40.686c-8.915 0-17.508-3.745-23.577-10.274-11.726-12.616-28.329-19.851-45.552-19.851h-40.685v81.363c0 34.247 6.902 65.944 19.436 89.253 10.677 19.857 24.833 32.859 40.814 37.84v8.991c-17.529 6.198-30.125 22.927-30.125 42.552s12.597 36.354 30.125 42.552v36.698h30.125v46.521l49.417 24.708c6.683 3.341 10.833 10.058 10.833 17.528 0 7.25-3.973 13.874-10.369 17.288l-68.759 36.706h-26.373c-8.34 0-15.125-6.785-15.125-15.125h-30c0 24.882 20.243 45.125 45.125 45.125h33.878l75.381-40.24c16.186-8.64 26.241-25.406 26.241-43.753.001-18.907-10.505-35.905-27.416-44.361zm-107.35-227.236c-10.226-19.019-15.858-45.671-15.858-75.046v-51.364h10.686c8.915 0 17.508 3.745 23.577 10.274 11.726 12.615 28.328 19.851 45.551 19.851h10.686v21.238c0 29.375-5.632 56.027-15.858 75.046-8.317 15.469-19.03 24.34-29.392 24.34-10.362.001-21.075-8.871-29.392-24.339zm29.391 88.465c8.34 0 15.125 6.785 15.125 15.125s-6.785 15.125-15.125 15.125-15.125-6.785-15.125-15.125 6.785-15.125 15.125-15.125z"/><path d="m120.471 88.744h30v30h-30z"/></g><g><path d="m424.362 383.646-32.833-16.417v-57.979h-30.125v-6.698c17.528-6.198 30.125-22.927 30.125-42.552s-12.596-36.354-30.125-42.552v-8.991c15.982-4.981 30.138-17.983 40.814-37.84 12.533-23.31 19.436-55.007 19.436-89.253v-51.239h-40.686c-8.915 0-17.508-3.745-23.577-10.274-11.725-12.616-28.328-19.851-45.551-19.851h-40.686v81.363c0 34.247 6.902 65.944 19.436 89.253 10.677 19.857 24.833 32.859 40.814 37.84v8.991c-17.529 6.198-30.125 22.927-30.125 42.552s12.597 36.354 30.125 42.552v36.698h30.125v46.521l49.417 24.708c6.683 3.341 10.833 10.058 10.833 17.528 0 7.25-3.973 13.874-10.369 17.288l-68.759 36.706h-26.373c-8.34 0-15.125-6.785-15.125-15.125h-30c0 24.882 20.243 45.125 45.125 45.125h33.878l75.381-40.24c16.186-8.64 26.241-25.406 26.241-43.753.001-18.907-10.504-35.905-27.416-44.361zm-107.35-227.236c-10.226-19.019-15.858-45.671-15.858-75.046v-51.364h10.686c8.915 0 17.508 3.745 23.577 10.274 11.726 12.615 28.328 19.851 45.551 19.851h10.686v21.238c0 29.375-5.632 56.027-15.858 75.046-8.317 15.469-19.03 24.34-29.392 24.34-10.362.001-21.074-8.871-29.392-24.339zm29.392 88.465c8.34 0 15.125 6.785 15.125 15.125s-6.785 15.125-15.125 15.125-15.125-6.785-15.125-15.125 6.785-15.125 15.125-15.125z"/><path d="m331.404 88.744h30v30h-30z"/></g></g></svg>