<?xml version="1.0" encoding="iso-8859-1"?>
<!-- Generator: Adobe Illustrator 19.0.0, SVG Export Plug-In . SVG Version: 6.00 Build 0)  -->
<svg xmlns="http://www.w3.org/2000/svg" xmlns:xlink="http://www.w3.org/1999/xlink" version="1.1" id="Layer_1" x="0px" y="0px" viewBox="0 0 512 512" style="enable-background:new 0 0 512 512;" xml:space="preserve">
<g>
	<g>
		<rect x="394.596" y="204.223" width="30.092" height="30.002"/>
	</g>
</g>
<g>
	<g>
		<path d="M480.106,147.718c-40.707-40.707-105.886-42.388-148.613-5.033c-6.983-6.105-14.57-11.162-22.549-15.181    c-1.091-13.557-6.224-26.479-14.953-37.209l-40.626-49.941h-23.375c-5.635-11.876-17.74-20.108-31.735-20.108    c-19.359,0-35.109,15.75-35.109,35.109c0,19.358,15.75,35.108,35.109,35.108c13.994,0,26.099-8.233,31.735-20.107h9.106    l31.622,38.872c1.965,2.415,3.6,5.031,4.896,7.787c-32.863-4.76-67.499,5.47-92.733,30.704    c-20.566,20.567-31.894,47.912-31.894,76.998s11.327,56.431,31.894,76.996l1.538,1.538h-80.067    c-16.897,0-31.844-11.375-36.348-27.66L31.358,143.076c-3.248-11.743-0.597-24.398,7.092-33.85l31.622-38.873h9.106    c5.636,11.875,17.74,20.107,31.735,20.107c19.359,0,35.109-15.75,35.109-35.108c0-19.359-15.75-35.109-35.109-35.109    c-13.995,0-26.099,8.234-31.735,20.108H55.804L15.176,90.294C1.37,107.267-3.391,129.989,2.442,151.075L39.09,283.587    c8.086,29.242,34.924,49.665,65.264,49.665h35.231v65.975c0,51.021,41.509,92.529,92.529,92.529h100.002    c51.02,0,92.528-41.509,92.528-92.529v-42.052l55.463-55.463C500.673,281.146,512,253.801,512,224.716    S500.673,168.285,480.106,147.718z M198.256,60.46c-2.816,0-5.107-2.291-5.107-5.106c0-2.816,2.291-5.107,5.107-5.107    c2.815,0,5.106,2.291,5.106,5.107C203.363,58.169,201.072,60.46,198.256,60.46z M110.912,50.245c2.816,0,5.107,2.291,5.107,5.107    c0,2.815-2.291,5.106-5.107,5.106c-2.815,0-5.106-2.291-5.106-5.106C105.806,52.536,108.097,50.245,110.912,50.245z     M394.643,399.227h-0.001c0,34.478-28.05,62.527-62.526,62.527H232.113c-34.478,0-62.527-28.05-62.527-62.527v-65.975h35.231    c3.018,0,6.026-0.201,9.006-0.6l117.672,117.673l63.148-63.148V399.227z M379.286,219.224c0-16.739,13.617-30.356,30.356-30.356    c16.739,0,30.356,13.617,30.356,30.356s-13.617,30.356-30.356,30.356C392.904,249.58,379.286,235.963,379.286,219.224z     M458.892,280.498l-34.248,34.248v-37.052C450.692,271.008,470,247.33,470,219.225c0-33.281-27.077-60.358-60.358-60.358    s-60.358,27.076-60.358,60.358c0,28.105,19.308,51.782,45.357,58.469v67.055l-63.148,63.148L204.096,280.498    c-14.9-14.9-23.105-34.71-23.105-55.782c0-21.072,8.206-40.884,23.105-55.784c15.381-15.381,35.578-23.068,55.783-23.068    c20.198,0,40.405,7.69,55.782,23.068l15.834,15.834l15.831-15.834c30.758-30.758,80.808-30.758,111.566,0    c14.9,14.9,23.105,34.711,23.105,55.784C481.997,245.788,473.792,265.598,458.892,280.498z"/>
	</g>
</g>
<g>
	<g>
		<path d="M214.704,179.541c-12.068,12.067-18.712,28.111-18.712,45.175h30.002c0-9.052,3.524-17.561,9.925-23.961    c6.4-6.4,14.91-9.926,23.962-9.926v-30.002C242.816,160.827,226.772,167.474,214.704,179.541z"/>
	</g>
</g>
<g>
</g>
<g>
</g>
<g>
</g>
<g>
</g>
<g>
</g>
<g>
</g>
<g>
</g>
<g>
</g>
<g>
</g>
<g>
</g>
<g>
</g>
<g>
</g>
<g>
</g>
<g>
</g>
<g>
</g>
</svg>
