<?xml version="1.0" encoding="iso-8859-1"?>
<!-- Generator: Adobe Illustrator 19.0.0, SVG Export Plug-In . SVG Version: 6.00 Build 0)  -->
<svg version="1.1" id="Layer_1" xmlns="http://www.w3.org/2000/svg" xmlns:xlink="http://www.w3.org/1999/xlink" x="0px" y="0px"
	 viewBox="0 0 512 512" style="enable-background:new 0 0 512 512;" xml:space="preserve">
<g>
	<g>
		<path d="M470.759,208.625L422.735,66.034L0.395,208.274l0.118,0.351H0v237.341h512V208.625H470.759z M305.707,138.525
			l7.591,22.539l28.045-9.446l-7.591-22.539l69.282-23.334l34.649,102.879h-77.141l-8.179-24.286l-28.045,9.446l4.998,14.841
			h-52.044l-6.936-20.593l-61.145,20.593H97.565L305.707,138.525z M480.653,414.619H393.33v-30.104h-34.332v30.104H31.347V239.972
			h327.65v30.104h34.332v-30.103h87.324V414.619z"/>
	</g>
</g>
<g>
	<g>
		<rect x="358.996" y="310.125" width="34.332" height="34.332"/>
	</g>
</g>
<g>
	<g>
		<rect x="72.894" y="283.01" width="228.885" height="31.347"/>
	</g>
</g>
<g>
	<g>
		<rect x="72.894" y="340.229" width="68.66" height="31.347"/>
	</g>
</g>
<g>
	<g>
		<rect x="267.442" y="340.229" width="34.332" height="31.347"/>
	</g>
</g>
<g>
	<g>
		<rect x="198.781" y="340.229" width="34.332" height="31.347"/>
	</g>
</g>
<g>
</g>
<g>
</g>
<g>
</g>
<g>
</g>
<g>
</g>
<g>
</g>
<g>
</g>
<g>
</g>
<g>
</g>
<g>
</g>
<g>
</g>
<g>
</g>
<g>
</g>
<g>
</g>
<g>
</g>
</svg>
