<svg id="Capa_1" enable-background="new 0 0 512 512" height="512" viewBox="0 0 512 512" width="512" xmlns="http://www.w3.org/2000/svg"><g><path d="m311.824 187.468-62.134 111.941v-212.079h-67.38v-29.072h35.574v-30h-35.574v-28.258h-94.888v87.33h-67.38v424.67h471.915zm-122.744 221.137h-139.038v-217.881h169.648v162.734zm-71.658-378.605h34.888v57.33h-34.888zm-67.38 87.33h169.648v43.395h-169.648zm0 364.67v-43.395h122.385l-24.085 43.395zm261.782-232.716 129.171 232.716h-258.342z"/><path d="m358.519 381.957-21.213-21.213-25.482 25.483-25.483-25.483-21.213 21.213 25.483 25.482-25.483 25.483 21.213 21.213 25.483-25.483 25.482 25.483 21.213-21.213-25.482-25.483z"/></g></svg>