<svg id="Capa_1" enable-background="new 0 0 510 510" height="512" viewBox="0 0 510 510" width="512" xmlns="http://www.w3.org/2000/svg"><g id="XMLID_831_"><path id="XMLID_852_" d="m360 60v-30h-62.551c-2.206-6.254-5.803-11.986-10.633-16.816-8.501-8.502-19.8-13.184-31.816-13.184-19.557 0-36.239 12.539-42.43 30h-62.57v30h-75v450h360v-450zm-180 0h60v-15c0-8.271 6.728-15 15-15 4.003 0 7.769 1.562 10.603 4.396 2.835 2.835 4.397 6.601 4.397 10.604v15h60v30h-150zm225 420h-300v-390h45v30h210v-30h45z"/><path id="XMLID_1571_" d="m255 300c-41.356 0-75 33.645-75 75s33.644 75 75 75c41.355 0 75-33.645 75-75s-33.645-75-75-75zm45 75c0 6.938-1.581 13.515-4.398 19.39l-25.602-25.603v-36.207c17.459 6.192 30 22.865 30 42.42zm-90 0c0-19.555 12.541-36.228 30-42.42v48.633l34.39 34.39c-5.875 2.816-12.452 4.397-19.39 4.397-24.814 0-45-20.187-45-45z"/><path id="XMLID_1573_" d="m195 270v-30h-30v-30h60v-30h-60v-30h-30v150h30v-30z"/><path id="XMLID_1574_" d="m285 150h60v30h-60z"/><path id="XMLID_1575_" d="m285 210h90v30h-90z"/><path id="XMLID_1576_" d="m330 270h45v30h-45z"/></g></svg>