<?xml version="1.0" encoding="iso-8859-1"?>
<!-- Generator: Adobe Illustrator 19.0.0, SVG Export Plug-In . SVG Version: 6.00 Build 0)  -->
<svg version="1.1" id="Layer_1" xmlns="http://www.w3.org/2000/svg" xmlns:xlink="http://www.w3.org/1999/xlink" x="0px" y="0px"
	 viewBox="0 0 512 512" style="enable-background:new 0 0 512 512;" xml:space="preserve">
<g>
	<g>
		<g>
			<path d="M0,41.513v428.973h512V41.513H0z M152.216,428.973H41.513V83.027h110.703V428.973z M318.27,428.973H193.73V83.027H318.27
				V428.973z M470.487,428.973H359.784V83.027h110.703V428.973z"/>
			<path d="M415.135,283.676c15.26,0,27.676-12.415,27.676-27.676s-12.415-27.676-27.676-27.676S387.459,240.74,387.459,256
				S399.875,283.676,415.135,283.676z"/>
			<path d="M96.865,221.405c15.26,0,27.676-12.415,27.676-27.676s-12.415-27.676-27.676-27.676s-27.676,12.415-27.676,27.676
				S81.604,221.405,96.865,221.405z"/>
			<rect x="76.108" y="262.919" width="41.514" height="83.027"/>
		</g>
	</g>
</g>
<g>
</g>
<g>
</g>
<g>
</g>
<g>
</g>
<g>
</g>
<g>
</g>
<g>
</g>
<g>
</g>
<g>
</g>
<g>
</g>
<g>
</g>
<g>
</g>
<g>
</g>
<g>
</g>
<g>
</g>
</svg>
