<svg id="Capa_1" enable-background="new 0 0 512.001 512.001" height="512" viewBox="0 0 512.001 512.001" width="512" xmlns="http://www.w3.org/2000/svg"><g><path d="m284.771 66.667c-75.385 0-136.714 61.33-136.714 136.714s61.33 136.714 136.714 136.714 136.714-61.33 136.714-136.714-61.329-136.714-136.714-136.714zm0 243.428c-58.842 0-106.714-47.872-106.714-106.714s47.872-106.714 106.714-106.714 106.714 47.872 106.714 106.714-47.871 106.714-106.714 106.714z"/><path d="m284.771 209.333c-33.361 0-62.716 21.308-73.045 53.021l28.525 9.291c6.295-19.327 24.186-32.312 44.52-32.312s38.225 12.985 44.52 32.312l28.525-9.291c-10.329-31.713-39.683-53.021-73.045-53.021z"/><path d="m241 141.667h30v41.333h-30z"/><path d="m301.25 141.667h30v41.333h-30z"/><path d="m489.774 205.774c0-113.464-92.31-205.774-205.774-205.774-44.388 0-86.66 13.913-122.247 40.233-34.871 25.792-60.319 61.137-73.593 102.215l-.352 1.089-8.956 55.413-56.625 102.688v38.362h47.105l18.983 103.695h106.936l16.135 68.306h244.439l-28.293-158.775c39.657-38.634 62.242-91.899 62.242-147.452zm-254.649 276.227-16.135-68.306h-105.668l-18.983-103.695h-42.112v-.638l55.41-100.485 9.417-58.271c23.826-72.188 90.773-120.606 166.946-120.606 96.922 0 175.774 78.852 175.774 175.774 0 49.868-21.306 97.578-58.454 130.897l-6.217 5.576 24.904 139.754z"/></g></svg>