<svg id="Capa_1" enable-background="new 0 0 512 512" height="512" viewBox="0 0 512 512" width="512" xmlns="http://www.w3.org/2000/svg"><g><path d="m241 376h15c24.813 0 45-20.187 45-45v-15c0-8.271 6.729-15 15-15h45v-30h-45c-24.813 0-45 20.187-45 45v15c0 8.271-6.729 15-15 15h-15z"/><path d="m181 271h60v30h-60z"/><path d="m200.394 425.393 21.213 21.213c9.187-9.187 21.401-14.246 34.394-14.246s25.207 5.06 34.394 14.246l21.213-21.213c-14.855-14.853-34.603-23.033-55.608-23.033-21.006 0-40.754 8.18-55.606 23.033z"/><path d="m91 391h6.164c19.547 69.738 83.351 121 158.836 121s139.29-51.262 158.836-121h6.164c33.084 0 60-26.916 60-60s-26.916-60-60-60h-.682c-5.118-56.265-38.782-106.208-89.318-132.003v-108.997h-60v-30h-30v30h-60v108.997c-50.536 25.795-84.2 75.738-89.318 132.003h-.682c-33.084 0-60 26.916-60 60s26.916 60 60 60zm330-45v-45c16.542 0 30 13.458 30 30s-13.458 30-30 30h-.681c.442-4.943.681-9.943.681-15zm-210-286h90v64.288l-90 22.5zm0 117.712 90-22.5v55.788h-90zm-90 108.288c0-45.597 22.943-87.502 60-112.271v67.271h150v-67.272c37.057 24.769 60 66.674 60 112.271v60c0 74.99-60.561 136-135 136s-135-61.009-135-136zm-30 15v45c0 5.056.239 10.057.681 15h-.681c-16.542 0-30-13.458-30-30s13.458-30 30-30z"/></g></svg>