<svg id="Capa_1" enable-background="new 0 0 507.813 507.813" height="512" viewBox="0 0 507.813 507.813" width="512" xmlns="http://www.w3.org/2000/svg"><g id="XMLID_816_"><path id="XMLID_817_" d="m124.656 181.696h30v29.78h-30z"/><path id="XMLID_848_" d="m124.656 352.806h30v29.78h-30z"/><path id="XMLID_849_" d="m352.754 181.696h30v29.78h-30z"/><path id="XMLID_853_" d="m352.754 352.806h30v29.78h-30z"/><path id="XMLID_856_" d="m507.813 255.127v-117.083h-60.406v-63.909l-79.653-70.229-79.653 70.229v63.909h-68.791v-63.909l-79.654-70.229-79.653 70.229v63.909h-60.003v117.083h60.003v54.027h-60.003v117.083h60.003v77.67h159.307v-77.67h68.791v77.67h159.307v-77.67h60.406v-117.083h-60.406v-54.027zm-60.003-87.083h30.004v57.083h-30.004zm0 171.11h30.004v57.083h-30.004zm-159.709-171.11v57.083h-68.791v-57.083zm0 87.083v54.027h-68.791v-54.027zm-258.101-30v-57.083h30.003v57.083zm0 171.11v-57.083h30.003v57.083zm159.31 77.67h-99.307v-386.227l49.653-43.779 49.654 43.779zm30-77.67v-57.083h68.791v57.083zm198.097 77.67h-99.307v-386.227l49.653-43.779 49.653 43.779v386.227z"/></g></svg>