<?xml version="1.0" encoding="iso-8859-1"?>
<!-- Generator: Adobe Illustrator 19.0.0, SVG Export Plug-In . SVG Version: 6.00 Build 0)  -->
<svg xmlns="http://www.w3.org/2000/svg" xmlns:xlink="http://www.w3.org/1999/xlink" version="1.1" id="Layer_1" x="0px" y="0px" viewBox="0 0 512 512" style="enable-background:new 0 0 512 512;" xml:space="preserve">
<g>
	<g>
		<path d="M508.736,407.932l-33.48-89.772c9.246-8.166,15.094-20.096,15.094-33.373V44.532C490.349,19.976,470.373,0,445.817,0    H67.36C42.805,0,22.827,19.976,22.827,44.532v240.255c0,12.85,5.478,24.44,14.213,32.576L3.264,407.93    c-4.87,13.059-3.031,27.69,4.918,39.138c7.948,11.45,21.015,18.285,34.952,18.285h425.73c13.938,0,27.004-6.834,34.953-18.283    C511.768,435.621,513.605,420.99,508.736,407.932z M54.047,44.532c0-7.341,5.972-13.312,13.313-13.312h378.458    c7.341,0,13.312,5.971,13.312,13.312v240.255c0,7.341-5.971,13.313-13.312,13.313H67.36c-7.341,0-13.313-5.972-13.313-13.313    V44.532z M478.174,429.264c-1.018,1.463-3.96,4.869-9.31,4.869H43.135c-5.351,0-8.293-3.405-9.31-4.869    c-1.017-1.464-3.179-5.411-1.309-10.425l33.385-89.52h1.458h378.458h0.281l33.385,89.52    C481.353,423.852,479.191,427.799,478.174,429.264z"/>
	</g>
</g>
<g>
	<g>
		<rect x="203.01" y="100.985" width="197.037" height="31.219"/>
	</g>
</g>
<g>
	<g>
		<rect x="113.545" y="163.549" width="286.491" height="31.219"/>
	</g>
</g>
<g>
	<g>
		<rect x="113.545" y="226.123" width="286.491" height="31.219"/>
	</g>
</g>
<g>
	<g>
		<path d="M291.631,414.071l-8.246-20.194c-0.978-2.396-3.308-3.961-5.895-3.961h-44.313c-2.587,0-4.917,1.565-5.895,3.961    l-8.246,20.194c-1.712,4.189,1.369,8.776,5.894,8.776h60.806C290.26,422.846,293.341,418.26,291.631,414.071z"/>
	</g>
</g>
<g>
	<g>
		<rect x="4.331" y="480.78" width="504.924" height="31.22"/>
	</g>
</g>
<g>
	<g>
		<rect x="113.545" y="72.127" width="60.753" height="60.753"/>
	</g>
</g>
<g>
</g>
<g>
</g>
<g>
</g>
<g>
</g>
<g>
</g>
<g>
</g>
<g>
</g>
<g>
</g>
<g>
</g>
<g>
</g>
<g>
</g>
<g>
</g>
<g>
</g>
<g>
</g>
<g>
</g>
</svg>
