<svg id="Capa_1" enable-background="new 0 0 512 512" height="512" viewBox="0 0 512 512" width="512" xmlns="http://www.w3.org/2000/svg"><g><path d="m372.06 183.914c-5.688-.157-11.239.73-16.431 2.577v-24.529c40.527-4.54 72.141-39 72.141-80.719 0-44.798-36.446-81.243-81.243-81.243-22.049 0-42.063 8.842-56.715 23.15-.069.036-.141.066-.21.102-7.723-13.858-22.528-23.252-39.488-23.252-16.966 0-31.776 9.4-39.497 23.266-6.249-3.271-13.353-5.122-20.881-5.122-24.908 0-45.172 20.264-45.172 45.171v21.018c-4.368-1.603-9.042-2.535-13.895-2.667-12.31-.34-23.943 4.2-32.758 12.777-8.817 8.579-13.673 20.077-13.673 32.377l-.008 174.504c-.001 28.638 7.42 56.874 21.461 81.654 12.216 21.559 29.24 40.231 49.543 54.418v74.604h189.733v-74.604c20.302-14.187 37.326-32.859 49.542-54.417 14.041-24.779 21.462-53.012 21.462-81.648v-71.636c.001-24.58-19.698-45.117-43.911-45.781zm25.71-102.672c0 28.255-22.987 51.242-51.242 51.242s-51.242-22.987-51.242-51.242 22.986-51.242 51.241-51.242 51.243 22.987 51.243 51.242zm-11.798 220.09c0 47.151-23.909 90.25-63.956 115.29l-7.048 4.407v60.971h-129.733v-60.972l-7.048-4.407c-40.05-25.041-63.958-68.142-63.957-115.296l.008-174.505c0-4.131 1.631-7.994 4.594-10.875 2.959-2.88 6.865-4.403 11.015-4.291 7.882.216 14.339 6.892 14.717 15.038v90.888l.018 16.073 30-.017v-106.189c0-.424-.006-.846-.018-1.268v-62.864c0-8.366 6.806-15.171 15.172-15.171s15.171 6.806 15.171 15.171v172.602l30 .006.034-190.752c0-8.366 6.806-15.171 15.172-15.171s15.171 6.806 15.171 15.171v190.749h30v-91.692c8.784 7.16 19.086 12.518 30.343 15.518v157.921h30v-88.599c0-4.131 1.631-7.994 4.594-10.875 2.96-2.88 6.879-4.419 11.015-4.29 8.125.223 14.734 7.307 14.734 15.793v71.636z"/></g></svg>