<svg id="Capa_1" enable-background="new 0 0 510.056 510.056" height="512" viewBox="0 0 510.056 510.056" width="512" xmlns="http://www.w3.org/2000/svg"><g><path d="m267.469 284.916c-3.855-19.166-14.972-34.183-29.527-40.109-2.89-17.381-11.82-32.102-24.18-39.81-3.957-14.226-12.014-25.695-22.507-32.174-14.048-50.48-70.585-50.516-84.625.032-12.364 7.712-21.298 22.441-24.183 39.831-13.115 5.371-23.6 18.182-28.317 35.169-11.7 7.298-20.323 20.886-23.662 37.061h-30.468l43.945 152.124v72.876h210v-72.876l43.947-152.124zm-195.582-12.507 8.688-2.848 1.451-9.028c2.045-12.734 9.076-20.617 14.42-20.617h15v-15c0-14.564 6.58-25.422 12.941-27.507l8.688-2.848 1.451-9.028c2.045-12.734 9.076-20.617 14.42-20.617s12.377 7.883 14.423 20.617l1.45 9.028 8.687 2.848c4.631 1.518 10.475 8.508 12.362 20.268l1.449 9.028 8.689 2.848c6.36 2.085 12.939 12.943 12.939 27.506v15h15c4.472 0 9.408 5.061 12.354 12.858h-174.76c2.499-6.671 6.46-11.234 10.348-12.508zm152.058 207.507h-150v-30h150zm3.721-60h-157.439l-30.334-105h218.107z"/><path d="m450.02.14c-23.134 0-85.75 0-122.147 0-39.571 0-68.31 37.586-57.883 75.797l73.955 241.226v192.754h90v-192.753c.222-.723-4.967 16.199 73.957-241.227 10.418-38.179-18.275-75.797-57.882-75.797zm-33.097 58.968-12.234 240.808h-31.485l-12.229-240.729c-.685-15.009 10.423-27.314 24.463-29.048h7.017c14.245 1.76 25.136 14.265 24.468 28.969zm-89.05-28.968h10.131c-5.042 9.2-7.488 19.64-6.994 30.49l6.818 134.245-38.951-127.039c-5.056-19.029 9.273-37.696 28.996-37.696zm76.072 449.776h-30v-150h30zm75.071-412.082-38.952 127.042 6.823-134.325c.491-10.797-1.955-21.217-6.997-30.411h10.13c19.681 0 34.06 18.632 28.996 37.694z"/></g></svg>