<svg id="Capa_1" enable-background="new 0 0 512 512" height="512" viewBox="0 0 512 512" width="512" xmlns="http://www.w3.org/2000/svg"><g><path d="m240.876 387.137c0-18.114-6.435-34.752-17.138-47.753 19.126-10.092 32.199-30.173 32.199-53.259 0-33.187-27-60.187-60.188-60.187s-60.188 27-60.188 60.187c0 10.589 2.758 20.542 7.58 29.195-30.545 9.583-52.767 38.153-52.767 71.817v124.863h165.784l-15.282-76.73zm-45.126-131.199c16.646 0 30.188 13.542 30.188 30.187s-13.542 30.188-30.188 30.188c-14.935.413-30.58-13.374-30.188-30.188 0-16.646 13.542-30.187 30.188-30.187zm-5.818 226.062-9.307-46.729v-28.646h-30v31.604l8.718 43.771h-38.968v-94.863c0-24.951 20.299-45.25 45.251-45.25 23.057-.464 45.789 20.141 45.25 45.25v51.092l8.718 43.771z"/><path d="m391.5 120.498v-45.248c0-41.493-33.757-75.25-75.25-75.25h-60.251c-37.127 0-68.04 27.034-74.138 62.446-18.105 5.872-31.236 22.891-31.236 42.927v15.127h-15.125v30h120.5v-30h-15.127v-15.126c0-19.028-11.845-35.331-28.545-41.954 5.216-19.231 22.813-33.42 43.671-33.42h60.251c24.951 0 45.25 20.299 45.25 45.25v436.75h90.25v-391.502zm-210.875-15.124c0-8.339 6.784-15.124 15.124-15.124s15.124 6.784 15.124 15.124v15.124h-30.248zm241.125 376.626h-30.25v-331.502h30.25z"/><path d="m180.75 180.748h30v30h-30z"/><path d="m241 180.748h30v30h-30z"/><path d="m271.125 241h30v30h-30z"/><path d="m271.125 361.5h30v30h-30z"/><path d="m301.25 301.249h30v30h-30z"/><path d="m120.5 180.748h30v30h-30z"/><path d="m90.375 240.996h30v30h-30z"/><path d="m60.25 301.25h30v30h-30z"/></g></svg>