<svg id="Capa_1" enable-background="new 0 0 512.063 512.063" height="512" viewBox="0 0 512.063 512.063" width="512" xmlns="http://www.w3.org/2000/svg"><g><path d="m317.788 159.779v-64.311h-43.118v-65.468h72.611l32.152 31.027 20.832-21.587-40.869-39.44h-162.823v30h48.097v65.468h-50.395v64.311c-66.727 15.07-116.711 74.823-116.711 146.039v206.245h356.936v-206.245c-.001-71.216-49.986-130.969-116.712-146.039zm-202.139 102.795h280.765c5.217 13.42 8.085 28.002 8.085 43.244v115.99h-296.936v-115.99c0-15.242 2.869-29.824 8.086-43.244zm172.139-106.468h-63.513v-30.639h63.513zm-60.513 30h57.513c38.442 0 72.704 18.217 94.622 46.468h-246.757c21.918-28.25 56.18-46.468 94.622-46.468zm-119.712 295.936v-30.235h296.936v30.235z"/><path d="m241.031 396.318h30v-39.127h39.128v-30h-39.128v-39.128h-30v39.128h-39.127v30h39.127z"/></g></svg>