<svg id="Capa_1" enable-background="new 0 0 512 512" height="512" viewBox="0 0 512 512" width="512" xmlns="http://www.w3.org/2000/svg"><g><path d="m256 512c140.959 0 256-115.05 256-256 0-140.959-115.05-256-256-256-140.959 0-256 115.049-256 256 0 140.959 115.049 256 256 256zm-105-55.924c-15.779-8.314-30.461-18.435-43.767-30.095l43.767-43.768zm180 13.115c-23.481 8.285-48.72 12.809-75 12.809s-51.519-4.524-75-12.809v-116.978l109.973-109.973c.298.386.583.783.887 1.164 10.721 13.401 24.272 22.265 39.14 25.828zm-30-288.191c0-33.084 20.187-60 45-60 6.583 0 12.834 1.91 18.475 5.312l-63.03 63.031c-.286-2.729-.445-5.511-.445-8.343zm11.384 39.829 71.71-71.71c4.368 9.244 6.906 20.172 6.906 31.881 0 33.084-20.187 60-45 60-13.357 0-25.367-7.808-33.616-20.171zm113.596-113.597c34.858 39.779 56.02 91.846 56.02 148.768 0 86.735-49.123 162.201-121 200.076v-186.845c37.029-8.873 60-48.004 60-88.231 0-19.671-5.241-38.436-14.88-53.907zm-169.98-77.232c56.922 0 108.988 21.162 148.767 56.02l-18.74 18.74c-11.828-8.964-25.572-13.76-40.027-13.76-44.251 0-75 43.437-75 90 0 11.635 1.831 22.956 5.319 33.468l-95.319 95.319v-40.296c34.192-6.968 60-37.271 60-73.491v-75h-30v75c0 19.555-12.541 36.228-30 42.42v-117.42h-30v117.42c-17.459-6.192-30-22.865-30-42.42v-75h-30v75c0 36.219 25.808 66.522 60 73.491v70.296l-64.98 64.98c-34.858-39.778-56.02-91.845-56.02-148.767 0-124.617 101.383-226 226-226z"/></g></svg>