<svg id="Capa_1" enable-background="new 0 0 512 512" height="512" viewBox="0 0 512 512" width="512" xmlns="http://www.w3.org/2000/svg"><g><path d="m451 243.484v-48.484c0-107.523-87.477-195-195-195s-195 87.477-195 195v48.484c-33.887 6.771-61 36.666-61 73.516 0 37.348 27.753 67.282 61.891 73.681 6.725 51.456 50.848 91.319 104.109 91.319h47.58c6.192 17.459 22.865 30 42.42 30 24.813 0 45-20.187 45-45s-20.187-45-45-45c-19.555 0-36.228 12.541-42.42 30h-47.58c-36.219 0-66.522-25.808-73.491-60h28.491v-150h-30v-47c0-90.981 74.019-165 165-165s165 74.019 165 165v47h-30v150h45c41.459 0 76-33.535 76-75 0-36.857-27.12-66.747-61-73.516zm-195 208.516c8.271 0 15 6.729 15 15s-6.729 15-15 15-15-6.729-15-15 6.729-15 15-15zm-165-90h-15c-24.935 0-46-20.607-46-45s21.065-45 46-45h15zm345 0h-15v-90h15c24.935 0 46 20.607 46 45s-21.065 45-46 45z"/><path d="m256 90c-57.897 0-105 47.103-105 105s47.103 105 105 105 105-47.103 105-105-47.103-105-105-105zm0 180c-41.355 0-75-33.645-75-75s33.645-75 75-75 75 33.645 75 75-33.645 75-75 75z"/><path d="m271 150h-30v30h-30v30h30v30h30v-30h30v-30h-30z"/></g></svg>