<svg id="Capa_1" enable-background="new 0 0 505.334 505.334" height="512" viewBox="0 0 505.334 505.334" width="512" xmlns="http://www.w3.org/2000/svg"><g><path d="m176.005 371.527h77.315l29.997-51.958h60.206l38.658-66.958-38.658-66.958h-60.27l-29.933-51.847h-77.315l-38.658 66.958 29.966 51.902-29.966 51.902zm59.995-30h-42.675l-21.338-36.958 21.274-36.847h42.802l21.273 36.847zm111.541-88.915-21.338 36.958h-42.675l-21.337-36.958 21.337-36.958h42.675zm-154.216-88.805h42.675l21.337 36.958-21.273 36.847h-42.802l-21.274-36.847z"/><path d="m132.061 100.703c113.678-92.152 288.087-23.735 311.654 118.171l-12.218-9.874-18.855 23.333 51.264 41.428 41.429-51.265-23.335-18.855-8.593 10.634c-46.835-238.487-374.954-249.911-438.308-15.102l29.137 7.142c10.149-41.409 34.236-78.917 67.825-105.612z"/><path d="m373.273 404.631c-113.678 92.152-288.087 23.735-311.654-118.171l12.218 9.873 18.855-23.333-51.264-41.428-41.428 51.265 23.334 18.856 8.593-10.634c46.835 238.487 374.954 249.91 438.309 15.101l-29.137-7.142c-10.15 41.41-34.237 78.918-67.826 105.613z"/></g></svg>