<svg id="Layer_1" enable-background="new 0 0 509.848 509.848" height="512" viewBox="0 0 509.848 509.848" width="512" xmlns="http://www.w3.org/2000/svg"><g id="XMLID_871_"><path id="XMLID_874_" d="m489.903 296.55-53.506-90.143c-2.428-179.048-230.018-275.657-357.904-148.3-40.557 39.61-63.128 93.203-63.554 150.906-.475 64.585 26.529 137.116 74.994 179.314v121.521h255v-75h58.68c17.27 0 31.32-14.045 31.32-31.31v-58.69h28.657c11.567 0 22.146-6.335 27.607-16.532 5.39-10.066 4.885-22.195-1.294-31.766zm-25.153 17.603c-.371.694-.884.694-1.159.694h-58.657v88.69c0 .722-.592 1.31-1.32 1.31h-88.68v75h-195v-105.79l-5.671-4.504c-126.133-108.462-73.272-340.034 110.427-339.681 100.217 1.626 181.749 82.697 181.749 180.722v4.116c.58.977-6.831-11.503 58.247 98.092.153.229.437.656.064 1.351z"/><path id="XMLID_877_" d="m229.856 124.158-4.923 4.079-4.923-4.079c-26.446-25.88-69.013-25.704-95.242.524-26.403 26.404-26.403 69.367 0 95.771l100.165 97.29 100.01-97.137.155-.153c60.776-65.511-29.197-156.301-95.242-96.295zm74.1 75.013-79.022 76.751-79.023-76.751c-14.637-14.714-14.612-38.591.07-53.275 14.707-14.707 38.639-14.707 53.346 0l.496.497 25.11 20.802 25.11-20.802.496-.497c14.707-14.707 38.639-14.707 53.346 0 14.684 14.684 14.709 38.561.071 53.275z"/></g></svg>