<svg id="Capa_1" enable-background="new 0 0 512 512" height="512" viewBox="0 0 512 512" width="512" xmlns="http://www.w3.org/2000/svg"><g><path d="m512 166h-76.041c9.438-12.544 15.041-28.129 15.041-45 0-41.355-33.645-75-75-75h-270c-24.813 0-45 20.187-45 45v60c0 5.258.915 10.305 2.58 15h-63.58v90h32.99l30 210h386.019l30-210h32.991zm-421-15v-15h300v-30h-300v-15c0-8.271 6.729-15 15-15h270c24.813 0 45 20.187 45 45s-20.187 45-45 45h-270c-8.271 0-15-6.729-15-15zm-61 45h452v30h-452zm392.991 240h-333.982l-25.714-180h385.409z"/><path d="m241 286h30v120h-30z"/><path d="m151 286h30v120h-30z"/><path d="m331 286h30v120h-30z"/></g></svg>