<svg id="Layer_1" enable-background="new 0 0 510 510" height="512" viewBox="0 0 510 510" width="512" xmlns="http://www.w3.org/2000/svg"><g><path d="m455.732 206.795 18.535-23.59-69.267-54.424v-128.781h-90v58.066l-60-47.143-219.268 172.282 18.535 23.59 35.733-28.075v181.28h-30v30h180v32.58c-17.459 6.192-30 22.865-30 42.42 0 24.813 20.186 45 45 45 24.813 0 45-20.187 45-45 0-19.555-12.541-36.228-30-42.42v-32.58h180v-30h-30v-181.28zm-200.732 273.205c-8.272 0-15-6.728-15-15s6.728-15 15-15c8.271 0 15 6.728 15 15s-6.729 15-15 15zm90-450h30v75.209l-30-23.571zm45 330h-270v-204.852l135-106.072 135 106.072z"/><path d="m150 225c0 57.897 47.102 105 105 105s105-47.103 105-105c0-57.898-47.103-105-105-105s-105 47.102-105 105zm180 0c0 41.355-33.645 75-75 75s-75-33.645-75-75 33.644-75 75-75 75 33.645 75 75z"/><path d="m240 180v54.27l38.292 19.146 13.416-26.832-21.708-10.854v-35.73z"/></g></svg>