<svg id="Capa_1" enable-background="new 0 0 510 510" height="512" viewBox="0 0 510 510" width="512" xmlns="http://www.w3.org/2000/svg"><g><path d="m450 480v-148.643l30 17.836v-117.515l-30-18.715v-107.963h-90v51.82l-105-65.5-105.724 65.952c20.386-33.631 30.724-61.303 30.724-82.272 0-41.355-33.645-75-75-75s-75 33.645-75 75c0 21.479 10.842 49.989 32.226 84.736 9.442 15.344 18.807 28.431 24.751 36.399l-56.977 35.543v116.835l30-17.747v149.234h-60v30h510v-30zm-390-405c0-24.813 20.186-45 45-45 24.813 0 45 20.187 45 45 0 26.139-26.431 68.951-45 95.007-18.57-26.058-45-68.868-45-95.007zm330 60h30v59.249l-30-18.714zm-330 113.322 195-121.642 105 65.5 90 56.143v48.135l-194.981-115.92-195.019 115.371zm90 231.678v-105h60v105zm90 0v-135h-120v135h-30v-166.983l164.981-97.6 165.019 98.105v166.478z"/><path d="m90 60h30v30h-30z"/><path d="m270 450h120v-105h-120zm30-75h60v45h-60z"/></g></svg>