<svg id="Capa_1" enable-background="new 0 0 512 512" height="512" viewBox="0 0 512 512" width="512" xmlns="http://www.w3.org/2000/svg"><path id="_x3C_Group_x3E_" d="m436.812 75.188c-48.485-48.486-112.699-75.188-180.812-75.188s-132.327 26.702-180.812 75.188c-48.486 48.485-75.188 112.699-75.188 180.812s26.702 132.327 75.188 180.812c48.485 48.486 112.699 75.188 180.812 75.188s132.327-26.702 180.812-75.188c48.486-48.485 75.188-112.699 75.188-180.812s-26.702-132.327-75.188-180.812zm44.678 195.812c-1.191 18.084-4.503 35.597-9.716 52.281l-67.28-67.281 67.281-67.282c5.213 16.684 8.525 34.198 9.716 52.281h-29.491v30h29.49zm-240.49 181v29.49c-18.084-1.191-35.597-4.503-52.281-9.716l67.28-67.28 67.282 67.281c-16.684 5.214-34.198 8.525-52.281 9.716v-29.491zm-210.49-211c1.191-18.084 4.503-35.597 9.716-52.281l67.281 67.281-67.281 67.281c-5.214-16.685-8.525-34.198-9.716-52.281h29.49v-30zm240.49-181v-29.49c18.083 1.191 35.597 4.503 52.281 9.716l-67.281 67.282-67.281-67.281c16.684-5.213 34.198-8.525 52.281-9.716v29.489zm106.068 181h-84.855l60-60h84.854zm-46.068 196.067-60-59.999v-84.854l60 60zm-150.001-84.853 60.001-60.001v84.853l-60 60zm.001-277.28 60 60v84.853l-60-60zm150 84.853-60 60v-84.853l60-60zm-171.213 21.213 60 60h-84.853l-60-60zm-24.853 90h84.853l-60 60h-84.853zm217.28 60.001-60.001-60.001h84.853l60 60zm103.862-180.001h-95.076v-95.076c15.779 8.314 30.461 18.435 43.767 30.095l-21.488 21.488 21.213 21.213 21.488-21.488c11.66 13.307 21.781 27.989 30.096 43.768zm-370.056-43.767 21.488 21.488 21.213-21.213-21.488-21.488c13.306-11.66 27.988-21.781 43.767-30.096v95.076h-95.076c8.315-15.779 18.436-30.461 30.096-43.767zm-30.096 253.767h95.275l.001 95.076c-15.979-8.314-30.661-18.435-43.967-30.095l21.488-21.488-21.213-21.213-21.488 21.487c-11.66-13.306-21.781-27.988-30.096-43.767zm370.056 43.767-21.488-21.488-21.213 21.213 21.488 21.488c-13.306 11.66-27.989 21.781-43.767 30.095v-95.275l95.076-.001c-8.315 15.98-18.436 30.662-30.096 43.968z"/></svg>