<svg id="Capa_1" enable-background="new 0 0 512 512" height="512" viewBox="0 0 512 512" width="512" xmlns="http://www.w3.org/2000/svg"><path d="m421.625 210.875v-30.25h15.062v-60.188c0-33.188-27-60.188-60.188-60.188h-15.125v-60.249h-90.25v60.25h-30.25v-60.25h-90.25v60.25h-15.124c-33.188 0-60.188 27-60.188 60.188v60.188h15 .063v30.25h-60.25v171.838l38.912 38.91 21.338.001v30.188c0 33.188 27 60.188 60.187 60.188h210.875c33.188 0 60.188-27 60.188-60.188v-30.188l21.339-.001 38.911-38.91v-171.839zm30.25 30v30.25h-30.25v-30.25zm-60.25 180.875h-30.25v-241.125h30.25zm-150.75 0v-241.125h30.25v241.125zm-30-241.125v60.375h-30.25v-60.375zm0 120.625h-30.25v-30.25h30.25zm-30.25 129.983v-99.983h30.25v99.983l-15.125 7.562zm150.75-129.983h-30.25v-30.25h30.25zm0-60.25h-30.25v-60.375h30.25zm-30.25 190.233v-99.983h30.25v99.983l-15.124 7.562zm0-401.233h30.25v30.25h-30.25zm-120.5 0h30.25v30.25h-30.25zm-75.313 90.437c0-16.646 13.542-30.188 30.188-30.188h241c16.646 0 30.188 13.542 30.188 30.188v30.188l-301.375.001v-30.189zm45.313 60.188v241.125h-30.25v-241.125zm-60.25 60.25v30.25h-30.25v-30.25zm-8.912 150.749-21.338-21.338v-69.161h30.25v90.5zm279.975 90.376h-210.876c-16.645 0-30.187-13.542-30.187-30.188v-.062h34.201l41.175 20.587 41.173-20.587h38.152l41.175 20.587 41.173-20.587h34.201v.062c0 16.646-13.542 30.188-30.187 30.188zm69.098-90.376-8.911.001v-90.5h30.25v69.161z"/></svg>