<?xml version="1.0" encoding="iso-8859-1"?>
<!-- Generator: Adobe Illustrator 19.0.0, SVG Export Plug-In . SVG Version: 6.00 Build 0)  -->
<svg xmlns="http://www.w3.org/2000/svg" xmlns:xlink="http://www.w3.org/1999/xlink" version="1.1" id="Layer_1" x="0px" y="0px" viewBox="0 0 512 512" style="enable-background:new 0 0 512 512;" xml:space="preserve">
<g>
	<g>
		<rect x="212.846" y="440.393" width="86.309" height="31.347"/>
	</g>
</g>
<g>
	<g>
		<polygon points="285.564,306.775 316.087,306.775 316.087,275.428 232.053,275.428 232.053,359.462 263.4,359.462 263.4,328.94     319.475,385.017 341.641,362.851   "/>
	</g>
</g>
<g>
	<g>
		<path d="M247.985,217.503c-19.728,0-38.275,7.683-52.224,21.633c-28.797,28.797-28.797,75.653,0,104.45l22.165-22.165    c-16.574-16.575-16.574-43.544,0-60.119c8.029-8.03,18.704-12.451,30.059-12.451c11.355,0,22.03,4.421,30.06,12.451l22.165-22.165    C286.259,225.185,267.712,217.503,247.985,217.503z"/>
	</g>
</g>
<g>
	<g>
		<path d="M433.074,65.793h0.061V0H78.865v65.905L21.984,169.851h56.881V512h354.269V169.851h56.882L433.074,65.793z     M110.212,31.347h291.576v19.748H110.212V31.347z M351.09,169.851v227.984H160.909V169.851H351.09z M177.483,138.504l9.448-56.062    h53.395v56.062H177.483z M271.673,138.503V82.441h53.401l9.449,56.062H271.673z M74.871,138.504l30.678-56.062h49.593    l-9.448,56.062h-16.131H74.871z M401.787,480.653H110.212V169.851h19.35v259.331h252.874V169.851h19.352V480.653z     M382.437,138.504h-16.126l-9.449-56.062h49.589l30.677,56.062H382.437z"/>
	</g>
</g>
<g>
</g>
<g>
</g>
<g>
</g>
<g>
</g>
<g>
</g>
<g>
</g>
<g>
</g>
<g>
</g>
<g>
</g>
<g>
</g>
<g>
</g>
<g>
</g>
<g>
</g>
<g>
</g>
<g>
</g>
</svg>
