<svg id="Capa_1" enable-background="new 0 0 512 512" height="512" viewBox="0 0 512 512" width="512" xmlns="http://www.w3.org/2000/svg"><g><path d="m135 80.333h-45v80.333h-90v190.667h60v80.333h45v80.334h136v-512h-106zm-15 30h91v50.333h-91zm91 80.334v50.333h-181v-50.333zm-181 80.333h181v50.333h-181zm60 80.333h121v50.333h-121zm45 130.667v-50.333h76v50.333zm76-452v50.333h-46v-50.333z"/><path d="m512 160.667h-90v-80.334h-45v-80.333h-106v512h136v-80.333h45v-80.333h60zm-30 80.333h-181v-50.333h181zm-90-80.333h-91v-50.333h91zm-45-130.667v50.333h-46v-50.333zm30 452h-76v-50.333h76zm45-80.333h-121v-50.333h121zm-121-80.334v-50.333h181v50.333z"/></g></svg>