<svg id="Capa_1" enable-background="new 0 0 512 512" height="512" viewBox="0 0 512 512" width="512" xmlns="http://www.w3.org/2000/svg"><g><g><path d="m256 286.36-119.963-119.962c-11.771-11.772-18.254-27.424-18.254-44.071 0-16.648 6.483-32.299 18.255-44.071 11.771-11.773 27.423-18.256 44.071-18.256s32.3 6.483 44.071 18.255l31.82 31.82 31.82-31.821c11.772-11.771 27.423-18.254 44.07-18.254 16.648 0 32.3 6.483 44.071 18.255 11.772 11.772 18.256 27.424 18.256 44.072s-6.483 32.299-18.255 44.071zm-98.75-141.175 98.75 98.749 98.75-98.749c6.105-6.105 9.468-14.223 9.468-22.858s-3.362-16.752-9.469-22.859c-6.106-6.106-14.224-9.468-22.859-9.468-8.634 0-16.752 3.362-22.857 9.468l-53.033 53.034-53.033-53.034c-6.106-6.106-14.224-9.468-22.858-9.468s-16.752 3.363-22.858 9.469c-6.106 6.105-9.468 14.223-9.468 22.858-.001 8.634 3.362 16.752 9.467 22.858z"/></g><g><path d="m301 512h-90v-60h-60v-90h60v-35.787l-117.389-117.389c-23.104-23.104-35.829-53.823-35.829-86.498s12.724-63.394 35.829-86.498c23.104-23.104 53.823-35.828 86.498-35.828 27.896 0 54.367 9.275 75.891 26.366 21.523-17.091 47.995-26.366 75.89-26.366 32.675 0 63.395 12.724 86.498 35.829 23.104 23.104 35.829 53.823 35.829 86.498 0 32.674-12.725 63.394-35.829 86.498l-117.388 117.388v35.787h60v90h-60zm-60-30h30v-60h60v-30h-60v-78.213l126.176-126.175c17.438-17.438 27.042-40.624 27.042-65.285 0-24.662-9.604-47.847-27.042-65.284-17.439-17.439-40.624-27.043-65.286-27.043-24.661 0-47.846 9.604-65.284 27.042l-10.606 10.607-10.607-10.607c-17.438-17.438-40.623-27.042-65.284-27.042s-47.846 9.604-65.285 27.042c-17.438 17.438-27.042 40.623-27.042 65.285 0 24.661 9.604 47.846 27.042 65.285l126.176 126.175v78.213h-60v30h60z"/></g></g></svg>