<svg id="Capa_1" enable-background="new 0 0 512 512" height="512" viewBox="0 0 512 512" width="512" xmlns="http://www.w3.org/2000/svg"><g><path d="m27.667 0v512h456.667v-512zm30 324.333h40.187c45.899 0 91.85 9.525 134.03 27.667-42.179 18.142-88.131 27.667-134.03 27.667h-40.187zm396.666 74.667v83h-396.666v-72.333h40.187c56.93 0 113.935-13.457 164.855-38.917 46.774-23.388 99.14-35.75 151.438-35.75h40.186zm0-94h-40.186c-50.297 0-100.649 10.511-146.815 30.516-54.332-29.183-112.549-41.183-169.478-41.183h-40.187v-107.635h147.615v69.365h101.437v-69.365h147.615v118.302zm-219.052-78.938v-108.728h41.437v108.729h-41.437zm219.052-69.364h-147.614v-69.364h-101.438v69.364h-147.614v-126.698h396.667v126.698z"/><path d="m320 407.333h96v30h-96z"/></g></svg>