<svg id="Capa_1" enable-background="new 0 0 511.901 511.901" height="512" viewBox="0 0 511.901 511.901" width="512" xmlns="http://www.w3.org/2000/svg"><g><path d="m511.899 0h-63.64l-230.375 230.376-45.96-45.96c-17.545-17.546-46.095-17.546-63.64 0l-20.663 20.663-87.619 71.165 235.657 235.657 71.164-87.618 20.664-20.665c17.546-17.545 17.546-46.094 0-63.639l-45.964-45.964 230.376-230.375zm-278.552 467.163-20.058-20.058 25.809-25.809-21.213-21.213-25.809 25.809-21.214-21.214 25.809-25.809-21.213-21.213-25.809 25.809-21.214-21.214 25.809-25.809-21.213-21.213-25.809 25.809-21.212-21.212 25.809-25.809-21.213-21.213-25.809 25.809-20.057-20.058 51.895-42.149 178.862 178.862zm72.927-84.758-10.606 10.606-176.777-176.776 10.606-10.606c5.849-5.849 15.365-5.849 21.214 0l155.563 155.563c5.849 5.849 5.849 15.365 0 21.213zm-67.177-130.816 23.787-23.787 21.213 21.214-23.787 23.787zm242.802-200.376-176.589 176.589-21.213-21.214 176.588-176.588h21.214z"/></g></svg>