<svg id="Capa_1" enable-background="new 0 0 510 510" height="512" viewBox="0 0 510 510" width="512" xmlns="http://www.w3.org/2000/svg"><g><path d="m374.065 270h48.516c6.192 17.459 22.865 30 42.42 30 24.814 0 45-20.187 45-45 0-24.814-20.186-45-45-45-19.555 0-36.228 12.541-42.42 30h-48.516c-2.741-21.879-11.397-41.943-24.309-58.543l39.367-39.367c38.688 22.451 87.862-5.316 87.862-50.582 0-32.325-26.161-58.493-58.493-58.493-45.026 0-73.182 48.917-50.582 87.862l-39.367 39.367c-16.6-12.912-36.664-21.568-58.543-24.309v-48.515c17.459-6.192 30-22.865 30-42.42 0-24.813-20.186-45-45-45s-45 20.187-45 45c0 19.555 12.541 36.228 30 42.42v48.516c-21.879 2.74-41.943 11.396-58.543 24.309l-39.367-39.367c22.599-38.943-5.555-87.862-50.582-87.862-52.373 0-77.825 63.389-41.36 99.854 19.012 19.013 48.181 22.308 70.729 9.222l39.367 39.367c-12.912 16.6-21.568 36.664-24.309 58.543h-48.515c-6.192-17.459-22.865-30-42.42-30-24.813 0-45 20.186-45 45 0 24.813 20.187 45 45 45 19.555 0 36.228-12.541 42.42-30h48.516c2.74 21.879 11.396 41.943 24.309 58.543l-37.164 37.164c-23.619-14.126-54.743-11.033-75.065 9.291-24.038 24.038-24.04 62.944 0 86.984 24.038 24.038 62.944 24.04 86.984 0 20.323-20.323 23.416-51.445 9.293-75.064l37.164-37.164c16.6 12.912 36.664 21.568 58.543 24.309v48.516c-17.459 6.192-30 22.865-30 42.42 0 24.813 20.186 45 45 45s45-20.187 45-45c0-19.555-12.541-36.228-30-42.42v-48.516c21.879-2.74 41.943-11.396 58.543-24.309l37.164 37.164c-24.48 40.939 5.089 93.08 52.785 93.08 16.43 0 31.875-6.398 43.492-18.016 24.038-24.038 24.04-62.944 0-86.984-20.322-20.324-51.446-23.417-75.065-9.293l-37.164-37.164c12.913-16.6 21.568-36.664 24.31-58.543zm90.935-30c8.272 0 15 6.729 15 15 0 8.272-6.728 15-15 15s-15-6.728-15-15c0-8.271 6.728-15 15-15zm-46.508-176.985c15.745 0 28.493 12.743 28.493 28.493 0 25.303-30.79 37.995-48.641 20.147-17.836-17.839-5.165-48.64 20.148-48.64zm-163.492-33.015c8.272 0 15 6.729 15 15s-6.728 15-15 15c-8.271 0-15-6.729-15-15s6.729-15 15-15zm-183.64 81.655c-17.783-17.783-5.327-48.641 20.147-48.641 25.32 0 37.978 30.809 20.147 48.641-11.109 11.109-29.185 11.108-40.294 0zm-26.36 158.345c-8.271 0-15-6.728-15-15 0-8.271 6.729-15 15-15s15 6.729 15 15c0 8.272-6.729 15-15 15zm24.229 170.772c-12.312-12.312-12.315-32.243 0-44.559 19.952-19.952 53.786-5.495 53.786 22.279 0 27.814-33.872 42.193-53.786 22.28zm185.771 39.228c-8.271 0-15-6.728-15-15s6.729-15 15-15c8.272 0 15 6.728 15 15s-6.728 15-15 15zm0-135c-49.626 0-90-40.374-90-90s40.374-90 90-90 90 40.374 90 90-40.374 90-90 90zm195 73.492c0 17.413-14.092 31.508-31.508 31.508-27.948 0-42.051-34.016-22.279-53.787 5.951-5.951 13.863-9.228 22.279-9.228 17.414 0 31.508 14.091 31.508 31.507z"/><path d="m210 225h30v30h-30z"/><path d="m270 255h30v30h-30z"/></g></svg>