<svg id="Capa_1" enable-background="new 0 0 512 512" height="512" viewBox="0 0 512 512" width="512" xmlns="http://www.w3.org/2000/svg"><g><path d="m436 0h-360v392h88v60h47v60h90v-60h47v-60h88zm-165 482h-30v-30h30zm47-60h-124v-30h124zm28-218h-51.671c-9.664-17.494-27.82-35.962-38.329-46.366-10.46 10.349-28.71 28.93-38.329 46.366h-51.671v-114h180zm-74.61 22.625c-.862 20.407-29.931 20.38-30.779.007.156-4.168 6.696-14.567 15.382-25.167 8.617 10.551 15.236 21.053 15.397 25.16zm-105.39 7.375h45.221c9.375 50.408 80.202 50.372 89.557 0h45.222v50.401c0 9.704-7.895 17.599-17.599 17.599h-57.401v60h-30v-60h-57.401c-9.704 0-17.599-7.895-17.599-17.599zm240 128h-105v-30h27.401c26.246 0 47.599-21.353 47.599-47.599v-224.401h-240v224.401c0 26.246 21.353 47.599 47.599 47.599h27.401v30h-105v-332h300z"/></g></svg>