<?xml version="1.0" encoding="iso-8859-1"?>
<!-- Generator: Adobe Illustrator 19.0.0, SVG Export Plug-In . SVG Version: 6.00 Build 0)  -->
<svg xmlns="http://www.w3.org/2000/svg" xmlns:xlink="http://www.w3.org/1999/xlink" version="1.1" id="Layer_1" x="0px" y="0px" viewBox="0 0 512 512" style="enable-background:new 0 0 512 512;" xml:space="preserve">
<g>
	<g>
		<path d="M473.092,238.13c-8.481-48.1-50.572-84.757-101.067-84.757c-48.641,0-89.486,34.013-100.001,79.505    c-6.392-2.261-12.176-2.821-16.866-2.659c-4.992,0.186-9.598,1.179-13.764,2.64c-10.522-45.482-51.363-79.486-99.996-79.486    c-50.495,0-92.586,36.657-101.067,84.757H0v31.475h39.675c6.676,50.18,49.747,89.022,101.723,89.022    c52.627,0,96.121-39.818,101.955-90.909c3.113-2.708,7.987-5.911,13.107-6.05c4.277-0.14,8.852,1.966,13.629,6.213    c5.908,51.012,49.365,90.746,101.935,90.746c51.976,0,95.047-38.841,101.723-89.022H512V238.13H473.092z M141.398,327.151    c-39.233,0-71.151-31.918-71.151-71.151s31.918-71.151,71.151-71.151c39.234,0,71.152,31.918,71.152,71.151    S180.632,327.151,141.398,327.151z M372.026,327.151c-39.234,0-71.151-31.918-71.151-71.151s31.918-71.151,71.151-71.151    c39.233,0,71.151,31.918,71.151,71.151S411.259,327.151,372.026,327.151z"/>
	</g>
</g>
<g>
	<g>
		<path d="M136.408,199.492c-39.349,5.94-53.388,41.5-55.313,59.474l31.296,3.352c0.029-0.279,3.274-27.863,28.715-31.703    L136.408,199.492z"/>
	</g>
</g>
<g>
	<g>
		<path d="M367.124,199.368c-39.348,5.94-53.386,41.5-55.313,59.474l31.297,3.352l-0.014,0.116    c0.009-0.078,1.005-7.851,5.484-15.723c5.271-9.265,12.874-14.531,23.245-16.096L367.124,199.368z"/>
	</g>
</g>
<g>
</g>
<g>
</g>
<g>
</g>
<g>
</g>
<g>
</g>
<g>
</g>
<g>
</g>
<g>
</g>
<g>
</g>
<g>
</g>
<g>
</g>
<g>
</g>
<g>
</g>
<g>
</g>
<g>
</g>
</svg>
