<svg id="Capa_1" enable-background="new 0 0 512 512" height="512" viewBox="0 0 512 512" width="512" xmlns="http://www.w3.org/2000/svg"><g><path d="m211 60h30v30h-30z"/><path d="m271 60h30v30h-30z"/><path d="m512 255c0-41.355-33.645-75-75-75v30c8.271 0 15 6.729 15 15s-6.729 15-15 15h-45.946c.618-5.25.946-10.587.946-16v-44h-272v44c0 .35.011.697.013 1.046-18.566-13.858-30.013-35.823-30.013-60.046 0-37.179 27.199-68.11 62.74-73.981 7.359 33.681 37.403 58.981 73.26 58.981h60c41.355 0 75-33.645 75-75s-33.645-75-75-75h-121c-90.981 0-165 74.019-165 165 0 49.409 21.836 93.809 56.357 124.075-17.087 23.825-26.357 52.404-26.357 81.984 0 77.715 63.226 140.941 140.941 140.941h143.778c75.5 0 137.084-60.846 137.281-135.637.042-16.04-2.74-31.816-8.14-46.69 38.15-3.478 68.14-35.632 68.14-74.673zm-369.087 73.517c7.227.972 14.598 1.483 22.087 1.483h5.9c11.894 9.568 25.424 17.178 40.1 22.339v69.661h-40.059c-28.089 0-50.941-22.852-50.941-50.941 0-17.254 8.674-33.155 22.913-42.542zm98.087 30.652c4.927.543 9.93.831 15 .831s10.073-.288 15-.831v62.831h-30zm60-6.83c12.31-4.329 23.815-10.378 34.224-17.863 16.001 7.442 26.5 23.077 26.771 40.806.188 12.404-4.513 24.114-13.239 32.974-8.729 8.863-20.362 13.744-32.756 13.744h-15zm-45-22.339c-41.976 0-78.331-24.526-95.489-60h190.978c-17.158 35.474-53.513 60-95.489 60zm-106-120h212v14c0 5.438-.413 10.781-1.207 16h-209.586c-.794-5.219-1.207-10.562-1.207-16zm136-180c24.813 0 45 20.187 45 45s-20.187 45-45 45h-60c-24.813 0-45-20.187-45-45s20.187-45 45-45zm-256 135c0-74.439 60.561-135 135-135h1.041c-6.714 8.924-11.473 19.391-13.668 30.762-51.965 6.257-92.373 50.614-92.373 104.238 0 22.76 7.191 44.431 20.795 62.67 11.432 15.327 27.089 27.395 44.695 34.6 3.759 12.798 9.352 24.818 16.477 35.756-63.505-10.963-111.967-66.438-111.967-133.026zm284.719 317h-143.778c-61.173 0-110.941-49.768-110.941-110.941 0-23.195 7.246-45.613 20.609-64.328 8.71 5.206 17.933 9.639 27.581 13.188-11.576 14.2-18.19 32.153-18.19 51.14 0 44.631 36.31 80.941 80.941 80.941h145.059c20.493 0 39.718-8.06 54.13-22.693 14.41-14.63 22.174-33.979 21.861-54.482-.385-25.254-13.191-47.908-33.475-61.557 6.605-7.575 12.386-15.886 17.202-24.792 11.862 8.115 22.016 18.577 29.803 30.823 10.833 17.035 16.531 36.74 16.479 56.986-.154 58.291-48.28 105.715-107.281 105.715zm122.281-182h-8.277c-7.689-11.376-17.009-21.471-27.616-30h35.893c19.557 0 36.239-12.539 42.43-30 1.664 4.693 2.57 9.743 2.57 15 0 24.813-20.187 45-45 45z"/></g></svg>