<svg id="Capa_1" enable-background="new 0 0 510 510" height="512" viewBox="0 0 510 510" width="512" xmlns="http://www.w3.org/2000/svg"><g><path d="m450 255v-120h-90v-120h-210v120h-90v120h-60v45c0 41.355 33.645 75 75 75h120v30c-41.355 0-75 33.645-75 75v15h270v-15c0-41.355-33.645-75-75-75v-30h120c41.355 0 75-33.645 75-75v-45zm-30 0h-150v-90h150zm-240-210h150v90c-3.395 0-145.608 0-150 0zm-90 120h150v90h-150zm267.43 300h-204.86c6.191-17.461 22.874-30 42.43-30h120c19.557 0 36.239 12.539 42.43 30zm-72.43-60h-60v-30h60zm195-105c0 24.813-20.187 45-45 45h-360c-24.813 0-45-20.187-45-45v-15h450z"/><path d="m180 195h30v30h-30z"/><path d="m360 195h30v30h-30z"/><path d="m270 75h30v30h-30z"/></g></svg>