<svg id="Capa_1" enable-background="new 0 0 512.667 512.667" height="512" viewBox="0 0 512.667 512.667" width="512" xmlns="http://www.w3.org/2000/svg"><path id="XMLID_1406_" d="m483.167 73v-15.333h-30v15.333h-42.333v-73h-194v334.669l-48.334-19.745v-58.591h16.333v-30h-62.667v30h16.334v78.742l78.333 32v42.591c0 40.252-32.748 73-73 73s-73-32.748-73-73v-262.43c23.057-6.547 40-27.777 40-52.904s-16.943-46.356-40-52.904v-41.428h-30v41.43c-23.057 6.547-40 27.777-40 52.904s16.943 46.356 40 52.904v262.43c0 56.794 46.206 103 103 103s103-46.206 103-103v-379.668h134v43h-42.333v-15.333h-30v15.333h-28.667v299.5c0 31.706 25.794 57.5 57.5 57.5h12.913c4.757 14.419 16.168 25.83 30.587 30.587v51.413h30v-51.413c14.419-4.757 25.83-16.168 30.587-30.587h12.913c31.706 0 57.5-25.794 57.5-57.5v-299.5zm-452.334 21.333c0-13.785 11.215-25 25-25s25 11.215 25 25-11.215 25-25 25-25-11.214-25-25zm451 109.667h-172v-101h172zm-86 229c-9.925 0-18-8.075-18-18s8.075-18 18-18 18 8.075 18 18-8.074 18-18 18zm58.5-33h-12.913c-6.315-19.141-24.357-33-45.587-33s-39.272 13.859-45.587 33h-12.913c-15.164 0-27.5-12.336-27.5-27.5v-138.5h172v138.5c0 15.164-12.336 27.5-27.5 27.5z"/></svg>