<svg id="Capa_1" enable-background="new 0 0 512 512" height="512" viewBox="0 0 512 512" width="512" xmlns="http://www.w3.org/2000/svg"><g><path d="m497 0c-67.088 0-132.177 13.143-193.459 39.063-59.185 25.033-112.334 60.866-157.973 106.505s-81.472 98.788-106.506 157.973c-25.919 61.282-39.062 126.371-39.062 193.459v15h407.546v-15c0-49.325 40.129-89.454 89.454-89.454h15v-407.546zm-430.307 315.227c23.52-55.608 57.194-105.553 100.088-148.446 42.894-42.894 92.838-76.568 148.446-100.088 52.99-22.413 109.019-34.655 166.773-36.459v45.54c-51.598 1.789-101.675 12.819-149.068 32.865-50.192 21.23-95.267 51.619-133.971 90.323s-69.094 83.779-90.323 133.971c-20.045 47.392-31.076 97.469-32.865 149.067h-45.54c1.805-57.754 14.047-113.783 36.46-166.773zm239.054-9.48c-47.534 47.534-75.182 109.646-78.799 176.253h-45.573c3.657-78.769 36.062-152.301 92.193-208.433s129.664-88.536 208.432-92.193v45.574c-66.607 3.617-128.72 31.266-176.253 78.799zm176.253-48.744v45.605c-95.571 7.306-172.087 83.822-179.392 179.392h-45.605c3.583-58.589 28.093-113.175 69.957-155.04 41.865-41.865 96.451-66.375 155.04-69.957zm-119.676-78.79c-41.201 17.426-78.2 42.371-109.97 74.141s-56.714 68.769-74.141 109.97c-16.107 38.08-25.105 78.273-26.857 119.676h-45.568c1.775-47.558 12.005-93.704 30.479-137.381 19.718-46.617 47.947-88.486 83.906-124.444s77.828-64.188 124.444-83.906c43.678-18.474 89.824-28.704 137.382-30.479v45.567c-41.402 1.752-81.595 10.75-119.675 26.856zm16.159 303.787h-45.758c7.157-79.015 70.26-142.118 149.275-149.274v45.757c-53.903 6.78-96.736 49.614-103.517 103.517z"/></g></svg>