<svg id="Capa_1" enable-background="new 0 0 512 512" height="512" viewBox="0 0 512 512" width="512" xmlns="http://www.w3.org/2000/svg"><g><path d="m462.107 282.544c12.254-11.883 19.893-28.5 19.893-46.877 0-36.025-29.309-65.333-65.333-65.333-36.025 0-65.334 29.308-65.334 65.333 0 18.377 7.638 34.995 19.893 46.877-9.78 5.325-18.525 12.317-25.862 20.585-8.079-21.672-23.823-39.641-43.923-50.585 12.254-11.883 19.893-28.5 19.893-46.877 0-36.025-29.309-65.333-65.333-65.333-36.025 0-65.333 29.308-65.333 65.333 0 18.377 7.638 34.995 19.893 46.877-20.1 10.944-35.845 28.913-43.923 50.585-7.337-8.268-16.082-15.26-25.862-20.585 12.254-11.883 19.892-28.5 19.892-46.877 0-36.025-29.308-65.333-65.333-65.333s-65.335 29.308-65.335 65.333c0 18.377 7.638 34.995 19.893 46.877-29.696 16.169-49.893 47.665-49.893 83.789v95.333h512v-95.333c0-36.124-20.198-67.62-49.893-83.789zm-80.774-46.877c0-19.482 15.851-35.333 35.334-35.333 19.482 0 35.333 15.851 35.333 35.333s-15.851 35.333-35.333 35.333c-19.483 0-35.334-15.851-35.334-35.333zm-160.666-30c0-19.482 15.851-35.333 35.333-35.333s35.333 15.851 35.333 35.333-15.851 35.333-35.333 35.333c-19.483 0-35.333-15.851-35.333-35.333zm-160.667 30c0-19.482 15.851-35.333 35.333-35.333s35.333 15.851 35.333 35.333c0 19.483-15.851 35.333-35.333 35.333s-35.333-15.851-35.333-35.333zm100.667 196h-130.667v-65.333c0-36.025 29.309-65.334 65.333-65.334s65.333 29.309 65.333 65.333v65.334zm160.666 0h-130.666v-65.333-30c0-36.025 29.308-65.334 65.333-65.334 36.024 0 65.333 29.309 65.333 65.333v30zm160.667 0h-130.667v-65.333c0-36.025 29.309-65.333 65.334-65.333 36.024-.001 65.333 29.308 65.333 65.332z"/><path d="m241 50.333h30v60h-30z"/><path d="m306 85.333h60v30h-60z" transform="matrix(.5 -.866 .866 .5 81.108 341.15)"/><path d="m161 70.333h30v60h-30z" transform="matrix(.866 -.5 .5 .866 -26.587 101.442)"/></g></svg>