<svg id="Capa_1" enable-background="new 0 0 512 512" height="512" viewBox="0 0 512 512" width="512" xmlns="http://www.w3.org/2000/svg"><g><path d="m229.749 390.331c9.858 0 18.886-3.81 26.266-8.501 7.38 4.692 16.408 8.501 26.267 8.501 31.974 0 55.864-41.142 55.864-77.926 0-22.345-9.315-35.13-17.131-41.92-9.771-8.49-23.166-12.978-38.733-12.978-3.591 0-7.235.24-10.857.705 2.315-13.572 14.16-23.936 28.381-23.936v-30c-30.81 0-56.16 23.823-58.599 54.016-3.82-.517-7.669-.784-11.458-.784-15.568 0-28.962 4.488-38.734 12.979-7.814 6.79-17.13 19.575-17.13 41.92 0 36.782 23.89 77.924 55.864 77.924zm0-102.825c7.056 0 14.369 1.4 20.592 3.943l5.674 2.318 5.674-2.318c6.223-2.543 13.536-3.943 20.593-3.943 23.183 0 25.864 14.21 25.864 24.898 0 23.775-15.048 47.926-25.864 47.926-3.236 0-9.231-2.235-16.351-8.507l-9.916-8.735-9.916 8.735c-7.12 6.272-13.115 8.507-16.351 8.507-10.816 0-25.864-24.151-25.864-47.926.001-10.688 2.682-24.898 25.865-24.898z"/><path d="m371.651 60h-30.651v-60h-170v60h-30.651l-50.349 44.209v407.791h332v-407.791zm-170.651-30h110v30h-110zm-49.349 60h208.699l31.65 27.791v25.209h-272v-25.209zm240.349 83v248h-272v-248zm-272 309v-31h272v31z"/></g></svg>