<svg id="Capa_1" enable-background="new 0 0 512 512" height="512" viewBox="0 0 512 512" width="512" xmlns="http://www.w3.org/2000/svg"><g><g><path d="m377.846 166.085c.418-4.106.632-8.271.632-12.485 0-67.535-54.943-122.478-122.478-122.478s-122.478 54.943-122.478 122.478c0 4.214.214 8.379.632 12.485h-134.154v314.793h512v-314.793zm-121.846-104.963c50.993 0 92.478 41.485 92.478 92.478 0 50.992-41.485 92.478-92.478 92.478s-92.478-41.485-92.478-92.478 41.485-92.478 92.478-92.478zm0 214.955c52.604 0 97.565-33.337 114.875-79.992h111.125v27.436l-226 146.829-226-146.829v-27.436h111.125c17.31 46.655 62.271 79.992 114.875 79.992zm0 130.048 71.506-46.457 123.835 91.209h-391.518l122.707-92.486zm-100.239-65.123-125.761 94.787v-176.492zm326.239 95.199-127.616-93.994 127.616-82.91z"/><path d="m267.177 171.928 5.544-81.719h-33.261l5.544 81.719z"/></g><circle cx="256.091" cy="204.181" r="16.63"/></g></svg>