<svg id="Capa_1" enable-background="new 0 0 512 512" height="512" viewBox="0 0 512 512" width="512" xmlns="http://www.w3.org/2000/svg"><g><path d="m488.982 302h-158.671c-4.367-47.564-29.325-91.419-68.627-119.438-13.145-9.371-20.684-23.11-20.684-37.695v-52.867h30v-30h-60v-62h-90v62h-61v30h30v52.867c0 14.585-7.539 28.324-20.684 37.695-43.403 30.943-69.316 81.2-69.316 134.438 0 32.825 9.619 64.538 27.817 91.711l69.176 103.289h137.015l35.185-52.535c24.712 31.933 63.396 52.535 106.807 52.535 74.99 0 136-60.561 136-135 0-42.844-20.927-70.324-23.018-75zm-7.657 63.42c-23.158-3.288-47.057 1.939-66.897 15.166-22.237 14.825-52.12 14.825-74.359 0-20.355-13.57-44.803-18.714-68.418-14.952 1.322-11.506 4.655-22.76 9.968-33.634h189.762c5.28 10.807 8.606 21.989 9.944 33.42zm-330.325-335.42h30v32h-30zm-64.269 176.99c21.143-15.072 33.269-37.715 33.269-62.123v-52.867h91v52.867c0 24.407 12.126 47.05 33.269 62.123 13.76 9.81 25.361 21.998 34.424 35.772-40.633 15.163-85.88 14.807-126.457-1.424-27.642-11.057-57.882-15.927-87.768-14.389 6.602-7.385 14.044-14.099 22.263-19.959zm131.262 275.01h-104.986l-60.264-89.983c-14.879-22.216-22.743-48.157-22.743-75.017 0-20.076 4.515-39.631 12.85-57.364 32.801-6.101 67.419-2.773 98.245 9.558 24.448 9.779 50.336 14.642 76.2 14.641 25.535-.001 51.039-4.761 75.087-14.194 3.891 10.36 6.512 21.226 7.764 32.36h-36.129c-2.153 4.815-23.017 32.258-23.017 74.999 0 19.144 4.014 37.365 11.231 53.878zm158.007 0c-51.43 0-94.337-37.168-103.283-86.052 17.35-3.775 35.657-.437 50.712 9.6 16.098 10.732 34.956 16.097 53.82 16.096 18.86-.001 37.727-5.366 53.82-16.095 14.575-9.717 32.335-13.162 49.255-9.895-8.911 49.029-52.301 86.346-104.324 86.346z"/><path d="m90 332h30v30h-30z"/><path d="m120 362h30v30h-30z"/></g></svg>