<svg id="Capa_1" enable-background="new 0 0 512 512" height="512" viewBox="0 0 512 512" width="512" xmlns="http://www.w3.org/2000/svg"><g><path d="m481.466 269.587c17.715-6.051 30.494-22.849 30.494-42.587 0-24.813-20.187-45-45-45h-210c-24.813 0-45 20.187-45 45v15h-30v-242h-181.92l33.663 272h58.924c5.038 56.619 39.257 106.398 89.334 132.004v77.996h-60v30h330v-30h-60v-77.992c51.251-26.16 85.136-77.171 89.505-134.421zm-239.506-42.587c0-8.271 6.729-15 15-15h210c8.271 0 15 6.729 15 15s-6.729 15-15 15c-7.998 0-215.656 0-225 0zm-181.742 15-26.237-212h117.979v212c-9.002 0-81.736 0-91.742 0zm151.742 240v-97.297l-8.995-3.93c-44.001-19.225-74.954-60.803-80.194-108.773h328.354c-5.312 47.592-35.6 89.298-80.171 108.773l-8.994 3.93v97.297z"/><path d="m91.96 62h30v60h-30z"/></g></svg>