<svg id="Capa_1" enable-background="new 0 0 512 512" height="512" viewBox="0 0 512 512" width="512" xmlns="http://www.w3.org/2000/svg"><g><path d="m482 256c0-14.764-1.439-29.502-4.286-43.939l32.468-27.806-64.959-112.511-40.344 14.227c-22.221-19.447-48.226-34.476-76.077-43.965l-7.844-42.006h-129.916l-7.843 42.005c-27.852 9.49-53.857 24.519-76.077 43.965l-40.345-14.226-64.959 112.511 32.468 27.806c-2.846 14.435-4.286 29.175-4.286 43.939s1.44 29.504 4.287 43.939l-32.469 27.806 64.958 112.511 40.345-14.227c22.22 19.447 48.225 34.476 76.077 43.965l7.844 42.006h129.917l7.844-42.005c27.852-9.49 53.856-24.519 76.077-43.965l40.344 14.227 64.959-112.511-32.468-27.806c2.846-14.438 4.285-29.176 4.285-43.94zm-35.438-45.993c3.608 15.009 5.438 30.483 5.438 45.993s-1.83 30.984-5.438 45.993l-2.146 8.927 27.326 23.402-40.041 69.354-33.978-11.981-6.659 6.334c-22.47 21.375-49.994 37.281-79.598 45.999l-8.82 2.598-6.604 35.374h-80.083l-6.605-35.373-8.82-2.598c-29.604-8.718-57.128-24.624-79.597-45.999l-6.659-6.334-33.978 11.981-40.042-69.354 27.327-23.403-2.146-8.928c-3.609-15.008-5.439-30.482-5.439-45.992s1.83-30.984 5.438-45.993l2.146-8.928-27.327-23.403 40.042-69.354 33.978 11.981 6.659-6.334c22.469-21.375 49.993-37.281 79.597-45.999l8.82-2.598 6.605-35.372h80.083l6.604 35.373 8.82 2.598c29.604 8.718 57.128 24.624 79.598 45.999l6.659 6.334 33.978-11.981 40.041 69.354-27.326 23.402z"/><path d="m256 105c-83.262 0-151 67.738-151 151s67.738 151 151 151 151-67.738 151-151-67.738-151-151-151zm0 166.904c20.667 8.012 35.023 24.972 37.607 44.096h-75.214c2.584-19.123 16.94-36.083 37.607-44.096zm0-31.808c-20.667-8.012-35.023-24.972-37.607-44.096h75.214c-2.584 19.123-16.94 36.083-37.607 44.096zm38.027-98.968v24.872h-76.055v-24.872c11.965-3.971 24.748-6.128 38.028-6.128s26.063 2.157 38.027 6.128zm-159.027 114.872c0-41.516 21.02-78.212 52.973-100.014v33.803c0 26.078 13.376 50.302 35.091 66.211-21.715 15.909-35.091 40.133-35.091 66.211v33.803c-31.953-21.802-52.973-58.498-52.973-100.014zm82.973 114.872v-24.872h76.055v24.872c-11.965 3.971-24.748 6.128-38.028 6.128s-26.063-2.157-38.027-6.128zm106.054-14.858v-33.803c0-26.078-13.376-50.302-35.091-66.211 21.715-15.909 35.091-40.133 35.091-66.211v-33.803c31.953 21.802 52.973 58.498 52.973 100.014s-21.02 78.212-52.973 100.014z"/></g></svg>