<?xml version="1.0" encoding="iso-8859-1"?>
<!-- Generator: Adobe Illustrator 19.0.0, SVG Export Plug-In . SVG Version: 6.00 Build 0)  -->
<svg xmlns="http://www.w3.org/2000/svg" xmlns:xlink="http://www.w3.org/1999/xlink" version="1.1" id="Layer_1" x="0px" y="0px" viewBox="0 0 512 512" style="enable-background:new 0 0 512 512;" xml:space="preserve">
<g>
	<g>
		<path d="M196.655,80.122c-78.181,0-141.785,63.604-141.785,141.785s63.604,141.786,141.785,141.786S338.44,300.088,338.44,221.908    S274.836,80.122,196.655,80.122z M196.655,333.693c-61.639,0-111.785-50.147-111.785-111.786s50.147-111.785,111.785-111.785    c61.639,0,111.785,50.146,111.785,111.785S258.294,333.693,196.655,333.693z"/>
	</g>
</g>
<g>
	<g>
		<path d="M196.655,135.903c-47.423,0-86.004,38.581-86.004,86.004c0,47.423,38.581,86.005,86.004,86.005    c47.423,0,86.004-38.582,86.004-86.005C282.659,174.484,244.078,135.903,196.655,135.903z M196.655,277.912    c-30.881,0-56.004-25.124-56.004-56.005c0-30.881,25.123-56.004,56.004-56.004c30.881,0,56.004,25.123,56.004,56.004    C252.659,252.788,227.536,277.912,196.655,277.912z"/>
	</g>
</g>
<g>
	<g>
		<path d="M451.565,400.052c-17.483-7.624-36.449-11.489-56.37-11.489h-94.26c55.44-34.815,92.376-96.498,92.376-166.655    c0-108.437-88.219-196.655-196.655-196.655C88.219,25.252,0,113.471,0,221.908s88.219,196.655,196.655,196.655h198.539    c15.77,0,30.7,3.024,44.38,8.989C467.726,439.825,482,459.741,482,486.746h30C512,447.832,490.537,417.044,451.565,400.052z     M30,221.908c0-91.894,74.761-166.655,166.655-166.655c91.893,0,166.655,74.762,166.655,166.655s-74.762,166.655-166.655,166.655    C104.761,388.563,30,313.801,30,221.908z"/>
	</g>
</g>
<g>
</g>
<g>
</g>
<g>
</g>
<g>
</g>
<g>
</g>
<g>
</g>
<g>
</g>
<g>
</g>
<g>
</g>
<g>
</g>
<g>
</g>
<g>
</g>
<g>
</g>
<g>
</g>
<g>
</g>
</svg>
