<?xml version="1.0" encoding="iso-8859-1"?>
<!-- Generator: Adobe Illustrator 19.0.0, SVG Export Plug-In . SVG Version: 6.00 Build 0)  -->
<svg xmlns="http://www.w3.org/2000/svg" xmlns:xlink="http://www.w3.org/1999/xlink" version="1.1" id="Layer_1" x="0px" y="0px" viewBox="0 0 512 512" style="enable-background:new 0 0 512 512;" xml:space="preserve">
<g>
	<g>
		<path d="M451.732,281.954c22.392-21.762,36.33-52.18,36.33-85.799c0-65.996-53.691-119.688-119.688-119.688    c-29.338,0-71.589,22.207-76.31,24.74l-98.106,54.938c0.12-1.722,0.202-3.453,0.202-5.205c0-41.065-33.409-74.472-74.472-74.472    c-41.065,0-74.472,33.409-74.472,74.472c0,28.674,16.299,53.599,40.11,66.038L0,264.76v51.084h368.374    c2.007,0,4.001-0.052,5.984-0.15v0.15h59.844c23.099,0,41.891,18.792,41.891,41.891s-18.792,41.891-41.891,41.891H314.514v35.906    h119.688c42.897,0,77.797-34.9,77.797-77.797C512,320.866,486.212,289.928,451.732,281.954z M81.122,150.94    c0-21.265,17.3-38.566,38.566-38.566c21.265,0,38.566,17.301,38.566,38.566s-17.301,38.566-38.566,38.566    C98.422,189.506,81.122,172.205,81.122,150.94z M368.374,279.938H46.386l262.79-147.164c14.803-7.921,43.83-20.4,59.198-20.4    c46.198,0,83.782,37.585,83.782,83.782S414.573,279.938,368.374,279.938z"/>
	</g>
</g>
<g>
</g>
<g>
</g>
<g>
</g>
<g>
</g>
<g>
</g>
<g>
</g>
<g>
</g>
<g>
</g>
<g>
</g>
<g>
</g>
<g>
</g>
<g>
</g>
<g>
</g>
<g>
</g>
<g>
</g>
</svg>
