<svg id="Capa_1" enable-background="new 0 0 509.873 509.873" height="512" viewBox="0 0 509.873 509.873" width="512" xmlns="http://www.w3.org/2000/svg"><g><path d="m481.278 290.79 28.595-35.854-28.595-35.854 16.196-42.945-38.339-25.242 2.059-45.836-44.234-12.145-12.146-44.234-45.836 2.059-25.242-38.339-42.946 16.195-35.854-28.595-35.854 28.595-42.945-16.196-25.243 38.338-45.836-2.059-12.144 44.235-44.234 12.146 2.059 45.836-38.339 25.242 16.196 42.946-28.596 35.853 28.595 35.854-16.196 42.945 38.338 25.243-2.059 45.836 44.234 12.146 12.146 44.234 45.836-2.059 25.242 38.339 42.946-16.196 35.854 28.595 35.854-28.595 42.945 16.196 25.242-38.338 45.836 2.059 12.146-44.234 44.234-12.146-2.059-45.836 38.339-25.242zm-20.339 31.082-32.537 21.423 1.748 38.933-37.598 10.324-10.324 37.598-38.934-1.749-21.422 32.537-36.453-13.749-30.483 24.311-30.481-24.311-36.455 13.749-21.423-32.537-38.933 1.748-10.324-37.598-37.598-10.324 1.749-38.933-32.537-21.422 13.749-36.455-24.311-30.481 24.311-30.481-13.749-36.455 32.537-21.423-1.748-38.933 37.598-10.324 10.324-37.598 38.933 1.749 21.422-32.537 36.455 13.749 30.481-24.311 30.482 24.31 36.454-13.748 21.422 32.537 38.934-1.748 10.323 37.598 37.598 10.324-1.748 38.933 32.536 21.423-13.747 36.454 24.31 30.481-24.31 30.481z"/><path d="m254.936 89.937c-90.981 0-165 74.019-165 165s74.019 165 165 165 165-74.019 165-165-74.018-165-165-165zm0 299.999c-74.439 0-135-60.56-135-135s60.56-135 135-135 135 60.56 135 135-60.56 135-135 135z"/><path d="m254.936 159.084-30.093 60.975-67.29 9.778 48.691 47.462-11.494 67.018 60.185-31.642 60.186 31.642-11.494-67.018 48.691-47.462-67.29-9.778zm20.342 130.392-20.342-10.694-20.342 10.694 3.885-22.651-16.457-16.041 22.743-3.305 10.171-20.608 10.171 20.608 22.743 3.305-16.457 16.041z"/></g></svg>