<svg id="Capa_1" enable-background="new 0 0 511.159 511.159" height="512" viewBox="0 0 511.159 511.159" width="512" xmlns="http://www.w3.org/2000/svg"><g id="XMLID_685_"><path id="XMLID_759_" d="m442.192 297.654v-186.187c23.953 19.965 37.951 49.525 37.951 81.148v25.15h30v-25.15c0-45.649-22.723-87.95-60.784-113.155l-37.167-24.611v196.348c-6.409-2.909-13.515-4.543-21-4.543-28.122 0-51 22.878-51 51s22.878 51 51 51 51-22.878 51-51zm-72 0c0-11.58 9.42-21 21-21s21 9.42 21 21-9.42 21-21 21-21-9.42-21-21z"/><path id="XMLID_824_" d="m72.663 371.205c-6.409-2.909-13.515-4.543-21-4.543-28.122 0-51 22.878-51 51s22.878 51 51 51 51-22.878 51-51v-162.999h168.123v86.539c-6.409-2.909-13.515-4.543-21-4.543-28.122 0-51 22.878-51 51s22.878 51 51 51 51-22.878 51-51v-227h-228.123zm-21 67.457c-11.58 0-21-9.42-21-21s9.42-21 21-21 21 9.42 21 21-9.421 21-21 21zm198.122-30.002c-11.58 0-21-9.42-21-21s9.42-21 21-21 21 9.42 21 21-9.42 21-21 21zm-147.122-218.001h168.123v34.004h-168.123z"/><path id="XMLID_829_" d="m509.114 413.756c-3.403-12.761-12.416-22.821-24.727-27.602-12.31-4.78-25.751-3.439-36.875 3.68l-2.039 1.305-2.039-1.305c-11.124-7.119-24.564-8.461-36.875-3.68s-21.324 14.841-24.728 27.603c-3.618 13.567-.114 27.847 9.374 38.197l54.268 59.206 54.268-59.205c9.487-10.352 12.991-24.632 9.373-38.199zm-31.489 17.927-32.153 35.078-32.152-35.078c-2.533-2.763-3.468-6.574-2.502-10.195.909-3.406 3.314-6.092 6.601-7.368 1.297-.504 2.642-.753 3.977-.753 2.046 0 4.069.585 5.866 1.735l18.211 11.657 18.212-11.657c2.969-1.9 6.557-2.258 9.843-.982s5.691 3.961 6.6 7.368c.965 3.621.03 7.432-2.503 10.195z"/><path id="XMLID_833_" d="m65.687 127.827 54.268-59.205c9.487-10.351 12.991-24.631 9.373-38.198-3.403-12.761-12.417-22.822-24.728-27.603-12.313-4.782-25.752-3.439-36.875 3.681l-2.039 1.305-2.039-1.305c-11.123-7.12-24.565-8.461-36.875-3.681-12.311 4.781-21.323 14.842-24.726 27.602-3.619 13.567-.115 27.847 9.373 38.199zm-34.654-89.673c.908-3.406 3.314-6.091 6.6-7.367 1.298-.504 2.642-.753 3.977-.753 2.046 0 4.07.585 5.867 1.735l18.211 11.656 18.21-11.655c2.969-1.899 6.556-2.258 9.843-.982 3.286 1.276 5.692 3.961 6.6 7.367.966 3.621.03 7.433-2.502 10.196l-32.152 35.077-32.153-35.077c-2.532-2.763-3.468-6.575-2.501-10.197z"/><path id="XMLID_836_" d="m138.246 441.308h30v31.361h-30z"/><path id="XMLID_837_" d="m287.144 61.31h30v31.361h-30z"/></g></svg>