<svg id="Capa_1" enable-background="new 0 0 512 512" height="512" viewBox="0 0 512 512" width="512" xmlns="http://www.w3.org/2000/svg"><g><path d="m449 39v-39h-30v39h-88.667v-39h-30v39h-88.666v-39h-30v39h-88.667v-39h-30v39h-63v393h318.409c11.882 50.667 17.891 62.654 24.247 80h49.841l16.912-53.575c.147-.467.575-.78 1.064-.78.49 0 .918.314 1.065.782l16.785 53.573h49.865c5.302-14.702 33.4-82.492 33.779-162h.033c0-66.292 0-247.633 0-311zm8.313 443h-6.951l-10.196-32.542v-.001c-9.157-28.919-50.15-28.945-59.365-.063 0 0-10.292 32.607-10.292 32.607h-6.978c-3.139-6.422-54.011-170.374-.417-169.997 9.361.131 12.991 3.252 23.056 13.1 1.486 1.454 5.04 4.908 6.583 6.404h35.34c1.564-1.524 5.088-4.933 6.583-6.404 10.064-9.847 13.694-12.968 23.055-13.099 53.476-.352 2.956 162.831-.418 169.995zm24.687-194.261c-7.267-3.895-15.606-5.864-24.688-5.733-20.309.282-31.324 9.723-41.41 19.5h-10.959c-10.086-9.777-21.102-19.218-41.411-19.5-13.783-.215-26.182 4.51-35.377 13.615-27.215 28.799-19.116 73.986-15.327 106.379h-282.828v-270h452zm-452-185.739v-33h452v33z"/><path d="m83.5 192h30v30h-30z"/><path d="m146.5 192h30v30h-30z"/><path d="m209.5 192h30v30h-30z"/><path d="m272.5 192h30v30h-30z"/><path d="m335.5 192h30v30h-30z"/><path d="m398.5 192h30v30h-30z"/><path d="m83.5 252h30v30h-30z"/><path d="m146.5 252h30v30h-30z"/><path d="m209.5 252h30v30h-30z"/><path d="m272.5 252h30v30h-30z"/><path d="m83.5 312h30v30h-30z"/><path d="m146.5 312h30v30h-30z"/><path d="m209.5 312h30v30h-30z"/></g></svg>