<svg id="Capa_1" enable-background="new 0 0 512 512" height="512" viewBox="0 0 512 512" width="512" xmlns="http://www.w3.org/2000/svg"><path d="m421 0h-90v15c0 5.396-.26 10.726-.746 16h-148.484c-.505-5.283-.77-10.616-.77-16v-15h-90v15c0 96.537 51.75 172.184 106.975 241.007-54.088 67.463-106.975 144.104-106.975 240.993v15h90v-15c0-5.396.26-10.726.746-16h148.484c.505 5.283.77 10.616.77 16v15h90v-15c0-96.537-51.75-172.184-106.975-241.007 54.089-67.462 106.975-144.104 106.975-240.993zm-96.083 61c-2.68 10.177-6.182 20.162-10.372 30h-116.893c-4.164-9.79-7.693-19.791-10.417-30zm-68.927 123.333c-15.476-19.863-30.731-40.987-43.402-63.333h86.954c-12.237 21.438-27.243 42.379-43.552 63.333zm-134.507-154.333h30.081c5.182 69.02 45.263 127.85 85.205 178.436-6.431 7.918-12.911 15.796-19.428 23.746-47.314-59.497-90.83-124.25-95.858-202.182zm65.6 421c2.68-10.177 6.182-20.162 10.372-30h116.893c4.164 9.79 7.693 19.791 10.416 30zm68.927-123.333c15.476 19.863 30.731 40.987 43.402 63.333h-86.954c12.237-21.438 27.243-42.379 43.552-63.333zm134.508 154.333h-30.081c-5.183-69.021-45.264-127.851-85.205-178.436 6.461-7.954 12.935-15.825 19.428-23.746 47.313 59.497 90.829 124.25 95.858 202.182zm-122.926-216.486c-54.077 65.916-109.892 133.956-116.034 216.486h-30.085c5.863-92.809 65.331-165.295 122.936-235.514 54.076-65.916 109.891-133.956 116.033-216.486h30.085c-5.863 92.809-65.331 165.295-122.935 235.514z"/></svg>