<svg id="Layer_1" enable-background="new 0 0 510 510" height="512" viewBox="0 0 510 510" width="512" xmlns="http://www.w3.org/2000/svg"><g><path d="m255 .721-255 155.125v43.433c-.066 49.676 61.551 73.622 95 37.712 21.724 23.03 58.237 23.071 80 0 16.831 17.843 43.307 22.381 65 11.262v66.026h-105v30h105v165h30v-165h105v-30h-105v-66.026c21.727 11.136 48.192 6.557 65-11.262 21.723 23.03 58.238 23.071 80 0 33.465 35.925 95.074 11.938 95-37.712v-43.433zm225 198.558c-1.261 33.129-48.751 33.104-50 0v-20h-30v20c-1.261 33.129-48.751 33.104-50 0v-20h-30v20c-1.261 33.129-48.751 33.104-50 0v-20h-30v20c-1.261 33.129-48.751 33.104-50 0v-20h-30v20c-1.261 33.129-48.751 33.104-50 0v-20h-30v20c-1.261 33.129-48.751 33.104-50 0v-26.567l225-136.876 225 136.875z"/><path d="m450 374.279h-135v135h30v-45h105v45h30c0-22.189 0-201.939 0-225h-30zm-105 30h105v30h-105z"/><path d="m60 284.279h-30v225h30v-45h105v45h30c0-14.798 0-119.746 0-135h-135zm105 150h-105v-30h105z"/></g></svg>