<svg id="Capa_1" enable-background="new 0 0 512 512" height="512" viewBox="0 0 512 512" width="512" xmlns="http://www.w3.org/2000/svg"><g><path d="m379.615 368.177 20.776-133.274c2.874-18.442-2.438-37.149-14.578-51.327-8.817-10.297-20.556-17.384-33.469-20.503v-62h-64.45v-56.074l-90-44.999v101.073h-64.45v62c-12.913 3.119-24.653 10.206-33.47 20.504-12.139 14.177-17.452 32.885-14.577 51.327l43.198 277.096h298.772v-143.823zm-151.721-319.637 30 15v37.533h-30zm94.45 82.532v30.195h-158.9v-30.195zm-207.305 99.21c-1.523-9.771 1.292-19.683 7.724-27.195s15.792-11.82 25.681-11.82h188.9c9.889 0 19.249 4.308 25.681 11.82s9.247 17.424 7.724 27.195l-21.496 137.895h-65.712v52.912h-138.756zm39.242 251.719-4.819-30.913h134.079v30.913zm243.086 0h-83.826v-83.825h83.826z"/></g></svg>