<svg id="Capa_1" enable-background="new 0 0 512 512" height="512" viewBox="0 0 512 512" width="512" xmlns="http://www.w3.org/2000/svg"><g><path d="m293.293 481.494c-4.467 0-8.101-3.633-8.101-8.1v-12.53c18.592-6.276 32.021-23.87 32.021-44.552v-24.194l93.611-65.297v-237.207h-124.242v-30.209h50.17v-59.405h-30v29.405h-70.34v-29.405h-236.412v512h29.166l.386-481.488h176.86v28.894h50.17v30.208h-124.242v237.073l90.833 65.297v24.329c0 20.682 13.428 38.275 32.02 44.552v12.53c0 21.008 17.092 38.605 38.1 38.605h218.707v-30.506zm87.531-361.88v39.92h-59.072v30h59.072v39.919h-218.484v-109.839zm-218.484 139.839h218.484v51.717l-83.326 58.123h-54.493l-80.665-57.987zm90.833 139.84h34.04v17.02c0 9.385-7.635 17.02-17.02 17.02s-17.02-7.635-17.02-17.02z"/></g></svg>