<svg id="Capa_1" enable-background="new 0 0 510 510" height="512" viewBox="0 0 510 510" width="512" xmlns="http://www.w3.org/2000/svg"><g><path d="m510 99.177-76.961-84.177h-356.078l-76.961 84.177c1.598 40.371 15.66 395.667 15.666 395.823h208.668l15-330h31.332l15 330h208.668c14.964-359.602 15.666-291.002 15.666-395.823zm-475.894 140.823h171.787l-6.818 150h-158.15zm10.228 225-2.046-45h155.423l-2.045 45zm162.923-255h-174.514l-2.046-45h178.605zm-177.257-75v-24.177l60.182-65.823h329.637l60.181 65.823v24.177c-24.654 0-434.86 0-450 0zm274.106 105h171.787l-6.818 150h-158.15zm10.228 225-2.046-45h155.423l-2.045 45zm162.923-255h-174.514l-2.046-45h178.605z"/><path d="m195 75h120v30h-120z"/><path d="m120 270c-24.813 0-45 20.186-45 45 0 24.813 20.187 45 45 45s45-20.187 45-45c0-24.814-20.186-45-45-45zm0 60c-8.271 0-15-6.728-15-15s6.729-15 15-15 15 6.728 15 15-6.729 15-15 15z"/><path d="m390 270c-24.814 0-45 20.186-45 45 0 24.813 20.186 45 45 45s45-20.187 45-45c0-24.814-20.186-45-45-45zm0 60c-8.272 0-15-6.728-15-15s6.728-15 15-15 15 6.728 15 15-6.728 15-15 15z"/></g></svg>