<svg id="Capa_1" enable-background="new 0 0 512 512" height="512" viewBox="0 0 512 512" width="512" xmlns="http://www.w3.org/2000/svg"><g><g><path d="m452 270h-30v-90h-30v90h-30v-60h-30v60h-30v-30h-30v30h-30v30h210z"/></g><g><path d="m120 60h214v30h-214z"/></g><g><path d="m60 60h30v30h-30z"/></g><g><path d="m60 180h30v30h-30z"/></g><g><path d="m60 360h90v30h-90z"/></g><g><path d="m512 120h-118v-120h-394v512h394v-152h118zm-148 362h-334v-452h334v90h-304v30h122v30h-62v30h62v30h-122v30h122v30h-122v30h122v30h30v66.31l94.729-66.31h57.271zm118-152h-184.729l-55.271 38.69v-38.69h-30v-180h270z"/></g></g></svg>