<svg id="Capa_1" enable-background="new 0 0 512 512" height="512" viewBox="0 0 512 512" width="512" xmlns="http://www.w3.org/2000/svg"><g><path d="m357.924 247.911c3.026-14.391-1.025-29.987-12.177-41.139l-94.135-94.136c18.594-10.204 31.23-29.971 31.23-52.636 0-33.084-26.916-60-60-60s-60 26.916-60 60c0 13.253 4.327 25.51 11.632 35.45-1.911.643-3.809 1.335-5.688 2.091-39.999 16.082-65.844 54.336-65.844 97.457v317h150v-270.767l29.173 29.173c2.879 2.88 6.086 5.309 9.528 7.278-5.621 9.437-8.862 20.449-8.862 32.207l-.023 202.106 30 .004.012-102.712h66.279l-.012 102.708 30 .004.023-202.108c-.001-30.71-22.044-56.356-51.136-61.98zm-33.39 1.28c-2.833 2.833-6.599 4.392-10.604 4.392s-7.771-1.56-10.604-4.392l-10.567-10.567 21.207-21.207 10.567 10.567c5.848 5.847 5.848 15.361.001 21.207zm-101.693-219.191c16.542 0 30 13.458 30 30 0 16.516-13.417 29.956-29.924 29.998h-.154c-16.505-.042-29.922-13.482-29.922-29.998 0-16.542 13.458-30 30-30zm-59.79 451.998h-30.11v-152.71h30.11zm59.89 0h-29.89v-152.71h29.89zm-7.996-321.188-21.213 21.213 29.208 29.208v88.057h-90v-104.29c0-30.806 18.462-58.135 47.036-69.623 8.873-3.568 18.281-5.377 27.964-5.377h8.606l76.207 76.206-21.207 21.207zm97.827 218.478.008-69.396c0-18.273 14.866-33.14 33.14-33.14s33.14 14.866 33.14 33.138l-.008 69.398z"/></g></svg>