<svg id="Capa_1" enable-background="new 0 0 512 512" height="512" viewBox="0 0 512 512" width="512" xmlns="http://www.w3.org/2000/svg"><g><path d="m108 0v439.545c0 39.952 32.503 72.455 72.455 72.455h151.09c39.952 0 72.455-32.503 72.455-72.455v-439.545zm197.977 30-8.5 28h-82.955l-8.5-28zm-131.306 0 17.608 58h127.443l17.608-58h36.67v363h-236v-363zm156.874 452h-151.09c-23.41 0-42.455-19.045-42.455-42.455v-16.545h236v16.545c0 23.41-19.045 42.455-42.455 42.455z"/><path d="m349.427 301.467-93.427-175.432-93.427 175.432 93.427-20.123zm-93.427-111.61 36.573 68.676-36.573-7.877-36.573 7.877z"/><path d="m168 333h30v30h-30z"/><path d="m314 333h30v30h-30z"/></g></svg>