<svg id="Capa_1" enable-background="new 0 0 512 512" height="512" viewBox="0 0 512 512" width="512" xmlns="http://www.w3.org/2000/svg"><g><path d="m463.706 48.255c-64.335-64.334-169.013-64.332-233.345 0l-182.068 182.1c-64.388 64.387-64.394 168.952 0 233.345 64.389 64.389 168.952 64.393 233.345 0l182.068-182.1c64.393-64.391 64.391-168.953 0-233.345zm-21.213 212.133-182.068 182.1c-52.665 52.665-138.251 52.668-190.919 0-52.664-52.664-52.668-138.252 0-190.919l182.068-182.1c52.636-52.635 138.281-52.638 190.919 0 52.666 52.665 52.668 138.251 0 190.919z"/><path d="m415.099 96.895c-40.982-40.982-107.507-40.985-148.492 0l-169.706 169.706c-40.982 40.981-40.986 107.508 0 148.493 40.981 40.982 107.508 40.985 148.492 0l169.706-169.706c40.939-40.94 40.939-107.553 0-148.493zm-74.246 180.313-42.427-42.427-21.213 21.213 42.427 42.427-63.64 63.639-42.427-42.427-21.213 21.213 42.426 42.426-10.606 10.608c-29.259 29.259-76.806 29.259-106.066 0-14.14-14.139-21.926-32.973-21.926-53.033 0-3.572.258-7.101.744-10.576l31.789 31.789 21.213-21.213-41.362-41.362c2.755-4.156 5.94-8.067 9.543-11.671l53.033-53.033 42.426 42.427 21.213-21.213-42.426-42.427 63.64-63.64 42.427 42.427 21.213-21.213-42.427-42.427 10.606-10.606c29.259-29.259 76.806-29.26 106.066 0 17.312 17.313 24.371 41.053 21.184 63.61l-31.791-31.791-21.213 21.213 41.359 41.359c-2.729 4.127-5.908 8.042-9.54 11.674z"/><path d="m325.853 113.715h30v30h-30z" transform="matrix(.707 -.707 .707 .707 8.817 278.717)"/><path d="m325.853 198.568h30v30h-30z" transform="matrix(.707 -.707 .707 .707 -51.182 303.57)"/><path d="m156.147 368.273h30v30h-30z" transform="matrix(.707 -.707 .707 .707 -220.888 233.28)"/><path d="m241 283.421h30v30h-30z" transform="matrix(.707 -.707 .707 .707 -136.034 268.423)"/><path d="m241 198.568h30v30h-30z" transform="matrix(.707 -.707 .707 .707 -76.035 243.57)"/><path d="m156.147 283.421h30v30h-30z" transform="matrix(.707 -.707 .707 .707 -160.888 208.427)"/></g></svg>