<svg id="Capa_1" enable-background="new 0 0 512 512" height="512" viewBox="0 0 512 512" width="512" xmlns="http://www.w3.org/2000/svg"><g><path d="m447.841 209.945h-2.383v-24.712c0-35.378-28.782-64.16-64.16-64.16h-38.984v-5.989c0-32.308-26.285-58.593-58.594-58.593h-55.44c-32.308 0-58.593 26.285-58.593 58.593v5.989h-38.985c-35.378 0-64.16 28.782-64.16 64.16v24.712h-2.382c-35.378 0-64.16 28.782-64.16 64.16v181.404h512v-181.404c0-35.378-28.781-64.16-64.159-64.16zm0 30c18.836 0 34.159 15.324 34.159 34.16v61.181h-36.542v-95.341zm-248.154-124.861c0-15.766 12.827-28.593 28.593-28.593h55.439c15.767 0 28.594 12.827 28.594 28.593v5.989h-112.626zm-68.984 35.989h250.595c18.836 0 34.16 15.324 34.16 34.16v180.053h-318.916v-180.053c0-18.836 15.325-34.16 34.161-34.16zm-66.543 88.872h2.382v95.341h-36.542v-61.181c0-18.836 15.324-34.16 34.16-34.16zm-34.16 185.564v-60.223h36.542v60.223zm66.542 0v-30.223h318.916v30.223zm348.916 0v-60.223h36.542v60.223z"/><path d="m176.479 334.124h30v-29.522h159.042v-30h-219.042v30h30z"/><path d="m211 196.808h90v30h-90z"/></g></svg>