<svg id="Capa_1" enable-background="new 0 0 512 512" height="512" viewBox="0 0 512 512" width="512" xmlns="http://www.w3.org/2000/svg"><g><path d="m512 222.282c0-61.76-50.246-112.005-112.006-112.005-19.543 0-38.219 4.927-54.867 14.336-4.444-10.134-10.06-19.757-16.778-28.614l-72.822-95.999-72.823 95.999c-6.63 8.74-12.188 18.227-16.604 28.214-16.472-9.066-35.142-13.936-54.094-13.936-61.761 0-112.006 50.245-112.006 112.005v22.643h.035c-.009.46-.035.916-.035 1.377h29.945c0-21.594 17.568-39.162 39.162-39.162s39.162 17.568 39.162 39.162v45.309h-29.153v89.81h26.711c-6.624 32.771-35.463 57.508-69.935 57.508v29.945h89.971c22.082 0 44.131-7.607 62.086-21.421 6.448-4.96 12.28-10.655 17.392-16.901 1.447 2.854 51.848 81.448 51.848 81.448s47.685-76.903 49.101-79.807c19.536 22.612 48.366 36.68 78.899 36.68h89.971v-29.945c-34.472 0-63.311-24.738-69.935-57.508h27.768v-89.81h-29.263v-45.309c0-21.594 17.568-39.162 39.162-39.162s39.163 17.568 39.163 39.162h29.945c0-.462-.026-.918-.035-1.377h.035zm-326.962-56.439c2.632-18.76 10.075-36.654 21.524-51.747l48.965-64.549 48.965 64.549c11.449 15.093 18.892 32.987 21.524 51.747s.4 38.011-6.455 55.671l-27.207 70.097h-73.655l-27.207-70.097c-6.854-17.66-9.086-36.911-6.454-55.671zm218.011 185.633h-293.988v-29.921h293.988zm-333.942-174.28c-10.581 0-20.61 2.397-29.583 6.666 13.804-25.936 41.109-43.641 72.482-43.641 16.159 0 31.486 4.579 44.781 13.29-.545 2.708-1.019 5.432-1.404 8.173-3.341 23.813-.507 48.249 8.194 70.665l22.992 59.238h-48.355v-45.285c0-38.105-31.002-69.106-69.107-69.106zm56.756 261.733h-18.276c15.112-15.223 25.461-35.217 28.606-57.508h59.382c-.165 2.129-.252 4.259-.27 6.387-9.761 29.745-38.608 51.121-69.442 51.121zm150.295-14.031-19.391 31.136-21.455-33.32c-7.968-12.375-11.276-26.942-9.639-41.293h59.221c2.451 14.962-.552 30.336-8.736 43.477zm127.308 14.031h-18.276c-15.493 0-30.544-5.054-43.528-14.615-11.836-8.716-20.981-20.686-25.988-33.939-.04-2.984-.219-5.972-.549-8.954h59.736c3.143 22.291 13.493 42.284 28.605 57.508zm39.427-261.733c-38.106 0-69.107 31.001-69.107 69.107v45.285h-49.302l22.992-59.238c8.701-22.417 11.534-46.853 8.194-70.666-.358-2.554-.801-5.091-1.298-7.617 13.492-9.072 29.137-13.845 45.623-13.845 31.374 0 58.679 17.705 72.482 43.641-8.974-4.27-19.003-6.667-29.584-6.667z"/></g></svg>