<svg id="Layer_1" enable-background="new 0 0 511.909 511.909" height="512" viewBox="0 0 511.909 511.909" width="512" xmlns="http://www.w3.org/2000/svg"><path d="m511.909 333.823v-34.329c0-32.278-26.26-58.539-58.538-58.539h-69.378c4.737-8.448 7.44-18.184 7.44-28.539v-34.329h-28.003v-31.438h28.002v-34.329c0-32.278-26.261-58.539-58.539-58.539h-153.877c-32.278 0-58.539 26.261-58.539 58.539v34.329h28.001v31.438h-28.001v34.329c0 10.355 2.703 20.091 7.44 28.539h-69.378c-32.278-.001-58.539 26.26-58.539 58.538v34.329h28.002v31.438h-28.002v34.329c0 32.278 26.261 58.539 58.539 58.539h153.876c17.269 0 32.815-7.516 43.539-19.449 10.724 11.933 26.271 19.449 43.539 19.449h153.877c32.278 0 58.538-26.261 58.538-58.539v-34.329h-28.001v-31.438h28.002zm-30-34.33v4.329h-210.954c-1.623-17.444 10.634-32.759 28.539-32.868h153.877c15.736 0 28.538 12.803 28.538 28.539zm-238.956 34.33h26.004v31.438h-26.004zm-92.475-221.503c0-15.736 12.802-28.539 28.539-28.539h153.877c17.886.101 30.174 15.431 28.539 32.868h-210.955zm28.001 34.329h154.951v31.438h-154.951zm-28.001 65.766v-4.329h210.955c1.623 17.444-10.634 32.759-28.539 32.868h-153.877c-15.737 0-28.539-12.802-28.539-28.539zm-120.478 87.078c0-15.736 12.803-28.539 28.539-28.539h153.876c17.886.101 30.174 15.431 28.539 32.868h-210.954zm28.002 34.33h154.951v31.438h-154.951zm154.414 94.305h-153.877c-17.897-.105-30.169-15.43-28.539-32.868h210.955c1.628 17.439-10.64 32.763-28.539 32.868zm269.493-28.539c0 15.736-12.802 28.539-28.538 28.539h-153.877c-17.886-.101-30.174-15.431-28.539-32.868h210.954zm-28.001-34.329h-154.951v-31.438h154.951z"/></svg>