<?xml version="1.0" encoding="iso-8859-1"?>
<!-- Generator: Adobe Illustrator 19.0.0, SVG Export Plug-In . SVG Version: 6.00 Build 0)  -->
<svg xmlns="http://www.w3.org/2000/svg" xmlns:xlink="http://www.w3.org/1999/xlink" version="1.1" id="Layer_1" x="0px" y="0px" viewBox="0 0 512 512" style="enable-background:new 0 0 512 512;" xml:space="preserve">
<g>
	<g>
		<path d="M451.918,436.245H432.02l25.855-78.89H271.673v-31.347h188.495L265.951,0h-25.624v80.173L93.601,326.008h146.726v31.347    H54.125l25.855,78.89H60.082c0,24.487-19.921,44.408-44.408,44.408V512c24.445,0,46.221-11.636,60.082-29.663    C89.616,500.364,111.391,512,135.837,512s46.221-11.636,60.082-29.663C209.779,500.364,231.555,512,256,512    c24.445,0,46.22-11.636,60.082-29.663C329.943,500.364,351.718,512,376.163,512s46.22-11.636,60.082-29.663    C450.106,500.364,471.881,512,496.327,512v-31.347C471.839,480.653,451.918,460.732,451.918,436.245z M271.673,70.852    l133.333,223.809H271.673V70.852z M148.815,294.661l91.511-153.324v153.324H148.815z M384.754,479.811    c-2.781,0.549-5.652,0.842-8.591,0.842c-24.487,0-44.408-19.921-44.408-44.408h-31.347c0,24.487-19.921,44.408-44.408,44.408    s-44.408-19.921-44.408-44.408h-31.347c0,24.487-19.921,44.408-44.408,44.408c-2.939,0-5.81-0.294-8.591-0.842l-29.86-91.109    h317.229L384.754,479.811z"/>
	</g>
</g>
<g>
</g>
<g>
</g>
<g>
</g>
<g>
</g>
<g>
</g>
<g>
</g>
<g>
</g>
<g>
</g>
<g>
</g>
<g>
</g>
<g>
</g>
<g>
</g>
<g>
</g>
<g>
</g>
<g>
</g>
</svg>
