<svg id="Capa_1" enable-background="new 0 0 512 512" height="512" viewBox="0 0 512 512" width="512" xmlns="http://www.w3.org/2000/svg"><g><path d="m370.065 71.262-50.524-26.262c-11.437-5.718-18.541-17.214-18.541-30v-15h-90v15c0 12.786-7.104 24.282-18.541 30l-50.524 26.262c-30.254 15.151-56.162 38.037-74.931 66.191l-41.806 62.707 74.883 49.922 27.156-40.734c7.953 11.081 21.805 33.033 23.895 48.642 4.689 35.014-5.689 62.344-15.726 88.774-8.181 21.543-16.64 43.82-16.45 69.061.214 28.472 16.192 66.158 30.243 96.175h213.6c16.318-34.86 30.045-69.775 30.243-96.175.189-25.24-8.27-47.517-16.45-69.06-10.036-26.43-20.414-53.76-15.726-88.774 2.091-15.611 15.947-37.568 23.895-48.642l27.156 40.734 74.884-49.922-41.806-62.708c-18.768-28.154-44.676-51.04-74.93-66.191zm50.173 137.218-33.648-50.472-22.422 28.772c-2.97 3.812-29.131 38.08-33.035 67.229-5.697 42.543 6.581 74.878 17.414 103.406 7.53 19.832 14.644 38.565 14.496 58.185-.119 15.886-7.006 38.208-20.48 66.4h-173.125c-13.475-28.191-20.362-50.513-20.481-66.4-.147-19.62 6.966-38.353 14.497-58.185 10.833-28.528 23.111-60.862 17.414-103.406-3.903-29.149-30.065-63.418-33.036-67.229l-22.422-28.772-33.649 50.472-24.96-16.64 25.164-37.746c15.901-23.852 37.858-43.235 63.498-56.055l50.524-26.262c17.011-8.546 28.944-23.849 33.248-41.777h33.531c4.303 17.928 16.236 33.231 33.247 41.777l50.524 26.262c25.64 12.82 47.597 32.203 63.498 56.055l25.163 37.746z"/><path d="m248.555 162.939-29.955 1.645c.481 8.762 2.589 18.595 7.049 32.88l28.637-8.94c-3.631-11.629-5.398-19.519-5.731-25.585z"/><path d="m244.376 423.076 28.704 8.723c3.075-10.119 5.672-20.361 7.72-30.442l-29.399-5.973c-1.86 9.158-4.224 18.475-7.025 27.692z"/><path d="m263.664 216.703-28.448 9.525c2.505 7.482 5.767 17.424 8.779 27.98l28.849-8.23c-3.176-11.134-6.574-21.493-9.18-29.275z"/><path d="m262.195 112.12-27.387-12.247c-.257.575-6.354 14.262-10.985 30.166l28.803 8.389c4.034-13.851 9.513-26.185 9.569-26.308z"/><path d="m256.984 338.862c.003.516.004 1.033.004 1.564 0 8.904-.447 17.926-1.329 26.814l29.853 2.962c.979-9.869 1.477-19.887 1.477-29.763 0-.589-.002-1.177-.005-1.764z"/><path d="m255.349 310.459 29.825-3.241c-1.102-10.138-2.743-20.571-4.879-31.008l-29.391 6.013c1.948 9.524 3.444 19.024 4.445 28.236z"/></g></svg>