<svg id="Capa_1" enable-background="new 0 0 512.003 512.003" height="512" viewBox="0 0 512.003 512.003" width="512" xmlns="http://www.w3.org/2000/svg"><g><path d="m226.168 174.753h30v30h-30z"/><path d="m240.619 226.553h30v30h-30z"/><path d="m292.4 241.003h30v30h-30z"/><path d="m346.664 241.003h30v30h-30z"/><path d="m391.274 90.722c-5.669.064-11.096 1.188-16.09 3.182-5.087-19.337-22.721-33.642-43.632-33.646-.003 0-.006 0-.009 0-5.812 0-11.458 1.091-16.702 3.178-5.207-19.17-22.763-33.308-43.56-33.308-5.891 0-11.522 1.135-16.686 3.197-5.201-19.169-22.755-33.312-43.556-33.316-20.958-.456-41.85 16.573-44.656 38.547-8.995-5.352-19.496-8.428-30.701-8.428-33.147 0-60.167 26.968-60.23 60.116l-.372 197.377 30.583 150.639v73.743h298.633l32.617-222.675v-153.478c.582-24.819-22.086-45.947-45.639-45.128zm15.639 196.42-28.543 194.861h-242.707v-46.757l-30.577-150.611.367-194.333c.032-16.637 13.593-30.173 30.23-30.173 16.669 0 30.229 13.561 30.229 30.23h.001v90.27h30l-.001-135.5c-.037-7.057 6.091-15.133 15.134-15.119 8.335.001 15.116 6.784 15.116 15.119l.001 105.375h30v-75.277c.011-8.327 6.788-15.099 15.118-15.099 8.343 0 15.131 6.788 15.131 15.13l.001 105.37h30v-75.259c-.032-7.051 6.104-15.123 15.133-15.111 8.335.001 15.116 6.784 15.116 15.119l.001 75.251h30v-44.81c.011-8.234 6.712-15.006 14.948-15.098 7.089-.1 15.322 6.013 15.301 15.13v151.292z"/></g></svg>