<svg id="Layer_1" enable-background="new 0 0 512.145 512.145" height="512" viewBox="0 0 512.145 512.145" width="512" xmlns="http://www.w3.org/2000/svg"><path d="m319.844 256.124 48.773-48.773 81.407-35.069-20.755-20.755 52.441-29.998 30.435-121.478-121.477 30.436-29.999 52.44-20.754-20.754-35.068 81.405-48.774 48.774-48.774-48.774-35.068-81.405-20.754 20.754-29.999-52.44-121.478-30.436 30.435 121.478 52.441 29.998-20.755 20.755 81.407 35.069 48.773 48.773-179.012 179.011c-17.494 16.785-17.494 46.988 0 63.772 17.582 17.582 46.189 17.582 63.771 0l179.013-179.013 179.013 179.013c16.785 17.494 46.986 17.492 63.771 0 17.494-16.785 17.494-46.988 0-63.772zm53.464 95.891 21.216 21.216-21.345 21.345-21.216-21.216zm-42.558.132-157.436-157.436 21.345-21.345 157.436 157.436zm79.609-295.667 60.52-15.163-15.163 60.519-48.432 27.706-24.629-24.63zm-60.387 58.176 47.569 47.569-34.087 14.684-28.167-28.167zm-32.487 58.71 21.345 21.346-40.199 40.2-21.345-21.345zm-261.056-71.53-15.163-60.519 60.52 15.163 27.705 48.433-24.629 24.63zm105.744 12.82 14.685 34.086-28.167 28.167-34.087-14.684zm-23.337 237.359 21.345 21.345-21.216 21.216-21.345-21.346zm-82.989 125.68c-5.618 5.855-15.727 5.855-21.345 0-5.856-5.618-5.855-15.727 0-21.345l61.905-61.905 21.345 21.346zm125.547-125.548-21.346-21.345 53.465-53.465 21.345 21.345zm296.249 125.548c-5.885 5.885-15.46 5.884-21.345 0l-61.905-61.905 21.345-21.345 61.905 61.905c5.855 5.618 5.855 15.726 0 21.345z"/></svg>