<svg id="Capa_1" enable-background="new 0 0 512 512" height="512" viewBox="0 0 512 512" width="512" xmlns="http://www.w3.org/2000/svg"><g><path d="m218.25 60c-49.902 0-90.5 40.598-90.5 90.5s40.598 90.5 90.5 90.5 90.5-40.598 90.5-90.5-40.598-90.5-90.5-90.5zm0 151c-33.359 0-60.5-27.14-60.5-60.5s27.141-60.5 60.5-60.5 60.5 27.14 60.5 60.5-27.141 60.5-60.5 60.5z"/><path d="m429.25 0c-39.88 0-77.469 15.546-105.5 43.165-28.031-27.619-65.62-43.165-105.5-43.165-82.986 0-150.5 67.514-150.5 150.5s67.514 150.5 150.5 150.5c21.031 0 41.556-4.328 60.5-12.657v73.157c0 33.36-27.141 60.5-60.5 60.5s-60.5-27.14-60.5-60.5v-15h-90v15c0 82.986 67.514 150.5 150.5 150.5s150.5-67.514 150.5-150.5v-211c0-33.36 27.141-60.5 60.5-60.5h15v-90zm-15 61.243c-42.79 7.166-75.5 44.463-75.5 89.257v211c0 66.444-54.056 120.5-120.5 120.5-61.366 0-112.166-46.107-119.571-105.5h30.314c7.166 42.79 44.463 75.5 89.257 75.5 49.902 0 90.5-40.598 90.5-90.5v-126.629l-23.369 15.71c-19.87 13.358-43.084 20.419-67.131 20.419-66.444 0-120.5-54.056-120.5-120.5s54.056-120.5 120.5-120.5c36.604 0 70.803 16.365 93.826 44.898l11.674 14.467 11.674-14.467c19.845-24.594 47.992-40.147 78.826-43.973z"/></g></svg>