<svg id="Capa_1" enable-background="new 0 0 512 512" height="512" viewBox="0 0 512 512" width="512" xmlns="http://www.w3.org/2000/svg"><g><path d="m474.496 150c-29.804 0-58.082 11.964-78.762 32.7-5.757-6.339-13.452-13.823-22.917-20.877 25.76-31.084 55.132-52.404 82.152-59.282l25.138-6.399-18.085-18.595c-23.754-24.424-51.604-43.584-82.78-56.948-31.891-13.671-65.772-20.599-100.726-20.599-.45 0-.901.001-1.351.003-67.575.345-131.297 27.344-179.428 76.024-23.752 24.024-42.37 51.97-55.338 83.063-13.417 32.173-20.109 66.184-19.891 101.087.445 70.842 20.125 119.057 30.698 144.959 1.418 3.474 2.643 6.473 3.631 9.059 5.451 14.256 5.708 29.785.724 43.729-8.096 22.651-23.636 24-25.381 24.08.209-.009.315-.004.315-.004v30h42.879c50.826 0 92.176-41.35 92.176-92.176v-35.735c0-12.363 4.285-24.462 12.066-34.068l6.604-8.154c10.33 4.436 24.244 12.779 28.548 24.813 3.703 10.353.051 23.381-10.854 38.723l-8.772 12.341 12.422 8.657c.999.696 20.48 14.04 44.275 14.04 5.481 0 11.195-.709 16.962-2.444 11.204-3.371 20.896-9.953 29.002-19.653 32.439 61.386 82.761 93.656 146.693 93.656h15v-114.873h30v-247.127zm-304.793 108.512c-.481 2.349-.913 4.672-1.302 6.964-4.58-18.492-4.944-37.999-.766-57.055 7.662-34.946 29.943-64.739 61.125-81.74.988-.538 1.982-1.068 2.981-1.589 45.108-23.503 92.751-24.05 135.698-1.931-8.02 8.053-14.994 16.071-20.805 23.307-25.633-11.227-60.383-15.949-101.031 5.229-39.564 20.615-65.81 57.551-75.9 106.815zm-32.152 125.577v35.735c0 32.921-25.719 59.949-58.119 62.045 2.359-4.047 4.519-8.64 6.38-13.846 7.393-20.681 7.055-43.602-.952-64.542-1.108-2.898-2.392-6.042-3.877-9.681-10.497-25.716-28.065-68.757-28.474-133.811-.193-30.854 5.721-60.916 17.58-89.351 11.475-27.516 27.955-52.251 48.982-73.519 42.491-42.977 98.691-66.813 158.246-67.116.401-.002.794-.003 1.194-.003 53.598 0 104.124 18.417 144.653 52.351-11.465 5.43-22.128 12.268-31.878 19.748-54.329-32.354-115.652-33.703-173.409-3.611-1.165.607-2.321 1.224-3.474 1.852-38.821 21.165-66.549 58.217-76.073 101.657-9.264 42.253-.515 86.297 23.986 121.72l-6.012 7.423c-12.093 14.929-18.753 33.734-18.753 52.949zm122.741 25.138c-7.903 2.422-16.211.941-22.809-1.317 9.38-18.31 11.227-35.576 5.476-51.496-5.283-14.624-17.157-27.391-34.339-36.919-4.818-2.672-9.391-4.734-13.207-6.263-.494-10.497-.445-29.057 3.854-49.54 8.447-40.249 28.701-68.978 60.199-85.39 30.521-15.903 60.176-15.04 88.142 2.566 13.428 8.454 23.495 18.959 29.372 25.961-25.949 46.531-102.529 63.734-103.286 63.899l-12.414 2.684.6 12.686c.1 2.109 2.515 48.848 21.304 99.376-6.064 12.961-13.746 20.949-22.892 23.753zm169.204-42.1v114.133c-50.994-5.143-89.239-37.105-113.817-95.205-14.965-35.373-20.679-71.315-22.745-89.402 26.104-7.714 84.507-29.438 110.072-74.892l4.774-6.874c12.277-17.674 30.948-29.586 51.716-33.492v125.73h-45v30h45v30h-30z"/></g></svg>