<svg id="Capa_1" enable-background="new 0 0 512 512" height="512" viewBox="0 0 512 512" width="512" xmlns="http://www.w3.org/2000/svg"><g><path d="m422 0v60h-422v120.71c0 74.715 60.785 135.5 135.5 135.5 52.415 0 97.974-29.913 120.5-73.566 22.526 43.654 68.085 73.566 120.5 73.566 15.955 0 31.271-2.78 45.5-7.868v53.178c0 33.349-27.132 60.48-60.48 60.48s-60.479-27.131-60.479-60.48v-37.219h-90.001v37.219c0 82.975 67.505 150.48 150.48 150.48 41.985 0 80.044-17.351 107.167-48.857 28.335-32.916 43.313-79.019 43.313-133.325v-329.818zm60 90v30h-452v-30zm0 239.818c0 91.025-48.417 152.182-120.48 152.182-66.434 0-120.48-54.047-120.48-120.48v-7.219h30.001v7.219c0 49.891 40.589 90.48 90.479 90.48s90.48-40.589 90.48-90.48v-68.347c11.33-7.631 21.444-16.931 30-27.539zm-105.5-43.608c-58.173 0-105.5-47.327-105.5-105.5h-30c0 58.173-47.327 105.5-105.5 105.5s-105.5-47.327-105.5-105.5v-30.71h452v30.71c0 58.173-47.327 105.5-105.5 105.5zm75.5-226.21v-30h30v30z"/></g></svg>