<svg id="Layer_1" enable-background="new 0 0 510 510" height="512" viewBox="0 0 510 510" width="512" xmlns="http://www.w3.org/2000/svg"><g><path d="m420 142.975v-142.975h-330v142.975l-90 75v292.025h510v-292.025zm-236.388 203.399-153.612 118.163v-212.694zm31.49 13.626h79.797l155.999 120h-391.796zm111.286-13.626 153.612-94.531v212.694zm142.977-123.211-49.365 30.379v-71.517zm-79.365-193.163v242.003l-94.245 57.997h-81.51l-94.245-57.997v-242.003zm-300 223.542-49.365-30.379 49.365-41.138z"/><path d="m255 285c57.897 0 105-47.103 105-105-5.278-139.106-204.743-139.068-210 .001 0 57.896 47.102 104.999 105 104.999zm-60.645-60.949 45.645-20.753v50.192c-18.661-3.802-34.812-14.565-45.645-29.439zm75.645 29.439v-50.192l45.647 20.753c-10.835 14.874-26.986 25.637-45.647 29.439zm58.09-56.736-58.09-26.412v-63.832c40.404 8.233 67.671 48.426 58.09 90.244zm-88.09-90.244v63.832l-58.09 26.412c-9.582-41.82 17.687-82.011 58.09-90.244z"/></g></svg>