<svg id="Layer_1" enable-background="new 0 0 510 510" height="512" viewBox="0 0 510 510" width="512" xmlns="http://www.w3.org/2000/svg"><path d="m360 120v-90h-60v-30h-90v30h-60v90h-60v212.101l30 105v72.899h270v-72.565l30-90v-227.435zm-150 360v-30h90v30zm180-137.435-30 90v47.435h-30v-42.111l30-75v-92.889h-30v87.111l-25.155 62.889h-34.845v-60h30v-90h-90v90h30v60h-34.189l-25.811-77.435v-72.565h-30v77.435l30 90v42.565h-30v-47.101l-30-105v-177.899h30v90h30v-180h30v180h30v-210h30v210h30v-180h30v180h30v-90h30zm-150-12.565v-30h30v30z"/></svg>