<svg id="Capa_1" enable-background="new 0 0 512 512" height="512" viewBox="0 0 512 512" width="512" xmlns="http://www.w3.org/2000/svg"><path d="m451 212v-90h-90v30h-30v-92h-120v-15c0-13.991-9.186-26.29-25.865-34.63-13.375-6.687-30.825-10.37-49.135-10.37s-35.76 3.683-49.135 10.37c-16.679 8.34-25.865 20.639-25.865 34.63v422c0 13.991 9.186 26.29 25.865 34.63 13.375 6.687 30.825 10.37 49.135 10.37h195v-90h30v30h90v-90h-90v30h-30v-210h30v30zm-60 180h30v30h-30zm-90-302v62h-90v-62zm-200.718-52.797c9.156-4.578 22.174-7.203 35.718-7.203s26.563 2.625 35.718 7.203c7.669 3.834 9.282 7.278 9.282 7.797v385.467c-12.743-5.474-28.518-8.467-45-8.467s-32.257 2.993-45 8.467v-385.467c0-.519 1.613-3.963 9.282-7.797zm0 437.594c-7.669-3.834-9.282-7.278-9.282-7.797s1.613-3.963 9.282-7.797c9.156-4.578 22.174-7.203 35.718-7.203s26.563 2.625 35.718 7.203c7.669 3.834 9.282 7.278 9.282 7.797s-1.613 3.963-9.282 7.797c-9.155 4.578-22.174 7.203-35.718 7.203s-26.562-2.625-35.718-7.203zm200.718 7.203h-93.841c2.528-4.678 3.841-9.718 3.841-15v-45h90zm0-90h-90v-210h90zm90-240h30v30h-30z"/></svg>