<svg id="Capa_1" enable-background="new 0 0 512 512" height="512" viewBox="0 0 512 512" width="512" xmlns="http://www.w3.org/2000/svg"><g><path d="m346.672 257.748c-20.394-31.004-31.174-67.008-31.174-104.119v-63.285h31.419v-90.344h-181.834v90.344h31.419v63.285c0 37.111-10.78 73.115-31.174 104.119l-114.092 173.453v80.799h409.528v-80.799zm-151.476-197.517v-30.118h121.607v30.117h-121.607zm31.419 93.398v-63.285h58.77v63.285c0 43.009 12.493 84.736 36.128 120.668l3.184 4.84h-137.394l3.184-4.84c23.635-35.932 36.128-77.659 36.128-120.668zm204.035 328.258h-349.3v-41.67l86.145-130.966h177.01l86.146 130.966v41.67z"/><path d="m194.993 366.47c0-2.724 2.497-4.994 10.329-4.994 6.924 0 14.302 1.93 22.134 5.903l8.06-19.411c-8.287-4.654-19.297-6.924-29.967-6.924-24.632 0-37.005 12.032-37.005 26.788 0 29.626 43.929 21.567 43.929 31.556 0 2.724-2.724 4.314-10.329 4.314-8.74 0-18.729-2.838-26.221-7.265l-8.627 19.524c7.945 4.881 21.34 8.173 34.621 8.173 24.632 0 37.004-12.26 37.004-26.789 0-29.286-43.928-21.34-43.928-30.875z"/><path d="m297.038 341.044c-25.881 0-44.837 17.48-44.837 41.545s18.956 41.545 44.837 41.545c25.88 0 44.836-17.481 44.836-41.545s-18.955-41.545-44.836-41.545zm0 61.409c-9.876 0-17.821-7.492-17.821-19.864 0-12.373 7.945-19.864 17.821-19.864 9.875 0 17.821 7.492 17.821 19.864 0 12.373-7.946 19.864-17.821 19.864z"/><path d="m358.59 425.928c1.393-2.786 4.047-4.312 6.832-4.312 2.985 0 4.511 1.393 4.511 3.648 0 1.592-.464 3.383-3.648 6.368l-16.783 15.522v9.619h37.214v-12.139h-15.655l6.634-6.036c6.766-6.103 7.96-10.216 7.96-14.793 0-8.823-7.761-14.527-18.773-14.527-10.017 0-16.717 4.378-20.1 10.747z"/></g></svg>