<svg id="Capa_1" enable-background="new 0 0 512 512" height="512" viewBox="0 0 512 512" width="512" xmlns="http://www.w3.org/2000/svg"><g><path d="m512 196c0-63.411-51.588-115-114.999-115h-282.001c-63.411 0-115 51.589-115 115v15h22.23c-3.971 7.642-6.23 16.309-6.23 25.5 0 12.867 4.414 24.716 11.79 34.14-3.915.232-8.149.36-12.79.36h-15v30h15c5.425 0 10.396-.155 15-.433v30.433h-30v15c0 46.869 38.131 85 85 85h342.001c46.868 0 84.999-38.131 84.999-85v-15h-30v-30.433c4.604.278 9.575.433 15 .433h15v-30h-15c-4.641 0-8.875-.128-12.79-.36 7.377-9.423 11.79-21.272 11.79-34.14 0-9.191-2.259-17.859-6.23-25.5h22.23zm-84.999 205h-342.001c-25.13 0-46.376-16.939-52.921-40h447.842c-6.544 23.061-27.791 40-52.92 40zm24.999-70h-392v-34.79c7.368-1.791 13.717-3.896 19.978-5.974 14.309-4.75 27.824-9.236 55.525-9.236s41.216 4.486 55.525 9.236c15.943 5.292 32.427 10.764 64.978 10.764 32.549 0 49.032-5.472 64.974-10.764 14.309-4.75 27.823-9.236 55.522-9.236 27.7 0 41.215 4.486 55.523 9.236 6.26 2.078 12.608 4.182 19.975 5.973zm-10.523-69.236c-15.942-5.292-32.426-10.764-64.975-10.764s-49.032 5.472-64.974 10.764c-14.309 4.75-27.823 9.236-55.522 9.236-27.701 0-41.217-4.486-55.526-9.236-15.943-5.292-32.427-10.764-64.977-10.764s-49.034 5.472-64.977 10.764c-.187.062-.374.124-.561.186-13.348-.797-23.965-11.905-23.965-25.45 0-14.061 11.439-25.5 25.5-25.5h369c14.061 0 25.5 11.439 25.5 25.5 0 13.544-10.616 24.652-23.963 25.449-.187-.062-.373-.123-.56-.185zm-326.477-150.764h21v27.282h30v-27.282h40v27.282h30v-27.282h40v27.282h30v-27.282h40v27.282h30v-27.282h21.001c41.751 0 76.568 30.261 83.674 70h-449.35c7.106-39.739 41.924-70 83.675-70z"/></g></svg>