<svg id="Capa_1" enable-background="new 0 0 512.439 512.439" height="512" viewBox="0 0 512.439 512.439" width="512" xmlns="http://www.w3.org/2000/svg"><g><path d="m512.219 225.05c0-60.1-23.404-116.602-65.901-159.099-76.061-76.061-167.76-64.773-174.099-65.901h-30c-6.49 1.15-97.584-10.607-175.029 65.832-43.187 42.626-66.971 99.153-66.971 159.168v15h30v-15c0-24.393 21.523-45 47-45 24.813 0 45 20.187 45 45v15h30v-15c0-24.813 20.187-45 45-45s45 20.187 45 45v61.021c-29.356-22.053-71.331-19.746-98.028 6.951-29.24 29.24-29.24 76.817-.016 106.042l113.044 113.375 113.028-113.36c29.24-29.24 29.24-76.817 0-106.057-26.697-26.697-68.672-29.004-98.028-6.951 0-21.323 0-39.696 0-61.021 0-24.813 20.187-45 45-45s45 20.187 45 45v15h30v-15c0-24.813 20.187-45 45-45s45 20.187 45 45v15h30zm-163.184 89.185c17.543 17.543 17.543 46.087-.016 63.646l-91.8 92.069-91.815-92.084c-17.543-17.543-17.543-46.087 0-63.63 17.542-17.542 46.087-17.543 63.631 0l28.185 28.185 28.185-28.185c17.542-17.544 46.087-17.544 63.63-.001zm-271.816-164.185c-12.361 0-24.366 2.948-35.195 8.493 21.719-59.073 71.51-104.901 133.321-121.619-7.521 9.327-14.493 20.333-20.789 32.925-13.901 27.802-23.631 61.568-28.579 98.283-13.122-11.257-30.153-18.082-48.758-18.082zm120 0c-14.687 0-28.39 4.26-39.97 11.585 4.814-29.307 12.993-56.074 24.14-78.369 16.91-33.819 39.081-53.216 60.83-53.216v135.041c-12.544-9.438-28.129-15.041-45-15.041zm120 0c-16.871 0-32.456 5.603-45 15.041v-135.041c21.749 0 43.92 19.396 60.83 53.216 11.147 22.295 19.326 49.062 24.14 78.37-11.58-7.326-25.283-11.586-39.97-11.586zm120 0c-18.605 0-35.635 6.825-48.758 18.082-4.948-36.714-14.678-70.481-28.579-98.283-6.256-12.512-13.18-23.455-20.646-32.743 60.593 16.791 109.427 62.158 131.001 120.624-9.969-4.91-21.174-7.68-33.018-7.68z"/></g></svg>