<?xml version="1.0" encoding="iso-8859-1"?>
<!-- Generator: Adobe Illustrator 19.0.0, SVG Export Plug-In . SVG Version: 6.00 Build 0)  -->
<svg xmlns="http://www.w3.org/2000/svg" xmlns:xlink="http://www.w3.org/1999/xlink" version="1.1" id="Layer_1" x="0px" y="0px" viewBox="0 0 512 512" style="enable-background:new 0 0 512 512;" xml:space="preserve">
<g>
	<g>
		<path d="M328.595,23.9V0h-145.19v23.9H75.367V512h361.266V23.9H328.595z M213.405,30h85.19v40.043h-85.19V30z M358.015,100.043    v333.159h-204.03V100.043H358.015z M406.634,482L406.634,482H105.367V53.9h78.038v16.143h-59.419v393.159h264.029V70.043h-59.419    V53.9h78.038V482z"/>
	</g>
</g>
<g>
	<g>
		<rect x="183.97" y="240" width="144.07" height="30"/>
	</g>
</g>
<g>
	<g>
		<rect x="183.97" y="301.75" width="144.07" height="30"/>
	</g>
</g>
<g>
	<g>
		<rect x="183.97" y="363.49" width="144.07" height="30"/>
	</g>
</g>
<g>
	<g>
		<polygon points="303.075,122.461 249.94,174.741 211.156,148.114 194.176,172.847 253.351,213.472 324.116,143.846   "/>
	</g>
</g>
<g>
</g>
<g>
</g>
<g>
</g>
<g>
</g>
<g>
</g>
<g>
</g>
<g>
</g>
<g>
</g>
<g>
</g>
<g>
</g>
<g>
</g>
<g>
</g>
<g>
</g>
<g>
</g>
<g>
</g>
</svg>
