<svg id="Capa_1" enable-background="new 0 0 512 512" height="512" viewBox="0 0 512 512" width="512" xmlns="http://www.w3.org/2000/svg"><g><path d="m512 0h-512v351h180.235v161l75.765-33.796 75.765 33.796v-161h180.235zm-422 261v-171h332v171zm211.765 75.765c0 25.235-20.53 45.765-45.765 45.765s-45.765-20.53-45.765-45.765 20.531-45.765 45.765-45.765 45.765 20.53 45.765 45.765zm-45.765 108.589-45.765 20.414v-68.674c12.725 9.676 28.582 15.435 45.765 15.435s33.04-5.759 45.765-15.435v68.674zm226-124.354h-151.896c-2.356-11.085-7.142-21.279-13.774-30h135.67v-231h-392v231h135.67c-6.632 8.721-11.418 18.915-13.774 30h-151.896v-291h452z"/><path d="m151 130.5h210v30h-210z"/><path d="m151 190.5h210v30h-210z"/></g></svg>