<svg id="Capa_1" enable-background="new 0 0 512 512" height="512" viewBox="0 0 512 512" width="512" xmlns="http://www.w3.org/2000/svg"><g><path d="m458.486 312.283c-3.626-2.093-7.402-3.688-11.25-4.835v-102.881c3.849-1.147 7.624-2.756 11.25-4.85 25.07-14.475 33.69-46.646 19.216-71.716-14.473-25.069-46.643-33.69-71.716-19.216-3.626 2.093-6.895 4.566-9.813 7.325l-89.111-51.448c.93-3.906 1.437-7.974 1.437-12.161.001-28.95-23.551-52.501-52.499-52.501s-52.5 23.551-52.5 52.5c0 4.187.507 8.255 1.437 12.161l-89.111 51.448c-2.917-2.759-6.187-5.232-9.813-7.325-25.071-14.475-57.24-5.853-71.715 19.216-14.475 25.07-5.854 57.242 19.216 71.717 3.627 2.094 7.402 3.703 11.25 4.85v102.881c-3.848 1.147-7.624 2.742-11.25 4.835-25.071 14.475-33.691 46.647-19.216 71.717 9.713 16.824 27.396 26.24 45.555 26.24 8.899 0 17.915-2.263 26.161-7.023 3.626-2.093 6.895-4.566 9.813-7.325l89.111 51.448c-.93 3.906-1.437 7.974-1.437 12.161 0 28.949 23.552 52.5 52.5 52.5s52.5-23.551 52.5-52.5c0-4.187-.507-8.255-1.437-12.161l89.111-51.448c2.917 2.759 6.187 5.232 9.813 7.325 8.248 4.762 17.26 7.024 26.161 7.023 18.157-.001 35.842-9.417 45.555-26.24 14.473-25.07 5.853-57.242-19.218-71.717zm-342.668-119.897 42.684 24.644c-4.835 12.056-7.502 25.207-7.502 38.97s2.667 26.914 7.502 38.97l-42.673 24.637c-6.046-5.71-13.293-9.811-21.066-12.128v-102.972c7.771-2.317 15.011-6.414 21.055-12.121zm265.353-25.974-42.71 24.659c-16.311-20.67-40.214-35.08-67.461-38.995v-49.271c7.968-2.38 15.143-6.606 21.036-12.179l89.165 51.479c-1.88 7.89-1.953 16.216-.03 24.307zm-125.171 164.588c-41.355 0-75-33.645-75-75s33.645-75 75-75 75 33.645 75 75-33.645 75-75 75zm-15-178.924c-27.248 3.915-51.151 18.324-67.461 38.995l-42.71-24.659c1.922-8.091 1.85-16.417-.03-24.307l89.165-51.479c5.893 5.573 13.068 9.799 21.036 12.179zm-110.171 193.512 42.71-24.659c16.311 20.67 40.214 35.08 67.461 38.995v49.271c-7.968 2.38-15.143 6.606-21.036 12.179l-89.165-51.479c1.88-7.89 1.953-16.216.03-24.307zm140.171 14.336c27.248-3.915 51.151-18.324 67.461-38.995l42.71 24.659c-1.922 8.091-1.85 16.417.03 24.307l-89.165 51.479c-5.893-5.573-13.068-9.799-21.036-12.179zm125.171-40.317-42.673-24.637c4.835-12.056 7.502-25.207 7.502-38.97s-2.667-26.914-7.502-38.97l42.684-24.644c6.044 5.708 13.285 9.805 21.055 12.121v102.973c-7.774 2.317-15.021 6.417-21.066 12.127zm24.815-184.843c3.534-2.041 7.396-3.01 11.212-3.01 7.781 0 15.36 4.036 19.523 11.246 6.203 10.744 2.509 24.532-8.235 30.736-10.741 6.204-24.531 2.509-30.736-8.235-6.202-10.746-2.508-24.534 8.236-30.737zm-164.986-104.764c12.406 0 22.5 10.093 22.5 22.5s-10.094 22.5-22.5 22.5-22.5-10.093-22.5-22.5 10.094-22.5 22.5-22.5zm-195.722 113c4.163-7.21 11.741-11.246 19.523-11.246 3.814 0 7.678.97 11.212 3.01 10.744 6.203 14.438 19.991 8.236 30.736-6.203 10.744-19.991 14.438-30.736 8.236-10.743-6.204-14.438-19.992-8.235-30.736zm30.736 234.236c-10.742 6.201-24.531 2.509-30.735-8.236-6.203-10.744-2.509-24.532 8.235-30.736 10.741-6.204 24.532-2.51 30.736 8.235 6.202 10.746 2.508 24.534-8.236 30.737zm164.986 104.764c-12.406 0-22.5-10.093-22.5-22.5s10.094-22.5 22.5-22.5 22.5 10.093 22.5 22.5-10.094 22.5-22.5 22.5zm195.722-113c-6.204 10.745-19.991 14.438-30.735 8.236-10.744-6.203-14.438-19.991-8.236-30.736 4.163-7.21 11.741-11.246 19.524-11.246 3.814 0 7.678.97 11.212 3.01 10.743 6.204 14.438 19.992 8.235 30.736z"/><path d="m256 211c-24.813 0-45 20.187-45 45s20.187 45 45 45 45-20.187 45-45-20.187-45-45-45zm0 60c-8.271 0-15-6.729-15-15s6.729-15 15-15 15 6.729 15 15-6.729 15-15 15z"/></g></svg>