<svg id="Capa_1" enable-background="new 0 0 512 512" height="512" viewBox="0 0 512 512" width="512" xmlns="http://www.w3.org/2000/svg"><g><path d="m388.25 67.5h30v30h-30z"/><path d="m485.75 82.5c0-45.491-37.01-82.5-82.5-82.5s-82.5 37.009-82.5 82.5c0 28.896 14.946 54.353 37.5 69.093v194.407c0 41.907-34.094 76-76 76s-76-34.093-76-76c0-15.462 7.065-22.689 28.922-41.025 24.322-20.404 61.078-51.238 61.078-109.975v-30h-30v-90c0-41.355-33.645-75-75-75h-15v30h15c24.813 0 45 20.187 45 45v90h-30v30c0 15.462-7.065 22.689-28.922 41.025-5.063 4.248-10.533 8.836-16.078 13.982-5.545-5.146-11.015-9.734-16.078-13.982-21.857-18.336-28.922-25.563-28.922-41.025v-30h-30v-90c0-24.813 20.187-45 45-45h15v-30h-15c-41.355 0-75 33.645-75 75v90h-30v30c0 58.737 36.756 89.571 61.078 109.975 21.856 18.335 28.922 25.563 28.922 41.025 0 91.533 74.467 166 166 166s166-74.467 166-166v-194.407c22.554-14.74 37.5-40.197 37.5-69.093zm-67.5 263.5c0 74.991-61.01 136-136 136s-136-61.009-136-136c0-30.753-18.37-46.165-39.641-64.009-22.436-18.822-50.359-42.246-50.359-86.991h30c0 30.753 18.37 46.165 39.641 64.008 7.727 6.481 16.483 13.828 24.316 22.349l11.043 12.014 11.043-12.014c7.833-8.521 16.59-15.868 24.316-22.349 21.271-17.843 39.641-33.255 39.641-64.008h30c0 44.745-27.923 68.169-50.359 86.992-21.271 17.843-39.641 33.255-39.641 64.008 0 58.449 47.552 106 106 106s106-47.551 106-106v-182.392c4.868.898 9.876 1.392 15 1.392s10.132-.493 15-1.392zm-15-211c-28.948 0-52.5-23.551-52.5-52.5s23.552-52.5 52.5-52.5 52.5 23.551 52.5 52.5-23.552 52.5-52.5 52.5z"/></g></svg>