<svg id="Layer_1" enable-background="new 0 0 510 510" height="512" viewBox="0 0 510 510" width="512" xmlns="http://www.w3.org/2000/svg"><g><path d="m510 105v-30h-196.898c-5.44-21.053-22.049-37.663-43.102-43.102v-31.898h-30v31.898c-21.053 5.439-37.663 22.049-43.102 43.102h-196.898v30h80.729l-41.689 83.369c-23.796 19.266-39.04 48.699-39.04 81.631 0 57.897 47.103 105 105 105s105-47.103 105-105c0-32.932-15.244-62.365-39.04-81.631l-41.689-83.369h67.627c5.438 21.053 22.049 37.663 43.102 43.102v271.898h-75v60h-45v30h270v-30h-45v-60h-75v-271.898c21.053-5.438 37.662-22.049 43.102-43.102h67.627l-41.688 83.369c-23.797 19.266-39.041 48.699-39.041 81.631 0 57.897 47.103 105 105 105s105-47.103 105-105c0-32.932-15.244-62.365-39.04-81.631l-41.688-83.369zm-330 165c0 41.355-33.645 75-75 75s-75-33.645-75-75 33.645-75 75-75 75 33.645 75 75zm-75-105c-7.503 0-14.822.798-21.883 2.301l21.883-43.762 21.883 43.762c-7.061-1.503-14.38-2.301-21.883-2.301zm210 315h-120v-30h120zm-60-360c-16.542 0-30-13.458-30-30s13.458-30 30-30 30 13.458 30 30-13.458 30-30 30zm225 150c0 41.355-33.645 75-75 75s-75-33.645-75-75 33.645-75 75-75 75 33.645 75 75zm-75-105c-7.503 0-14.822.798-21.883 2.301l21.883-43.762 21.883 43.762c-7.061-1.503-14.38-2.301-21.883-2.301z"/><path d="m120 225h-30v51.213l26.894 26.893 21.212-21.213-18.106-18.106z"/><path d="m420 225h-30v51.213l26.894 26.893 21.212-21.213-18.106-18.106z"/></g></svg>