<svg id="Capa_1" enable-background="new 0 0 512 512" height="512" viewBox="0 0 512 512" width="512" xmlns="http://www.w3.org/2000/svg"><g id="XMLID_864_"><path id="XMLID_881_" d="m512 298.905h-512v30h21.141l28.464 120.022c6.793 28.641 32.095 48.644 61.529 48.644h289.731c29.435 0 54.736-20.003 61.529-48.644l28.464-120.022h21.142zm-111.134 168.666h-289.732c-15.471 0-28.769-10.514-32.339-25.567l-9.702-40.911c4.355.794 7.972 1.847 11.834 2.977 8.976 2.627 19.148 5.604 38.383 5.604s29.408-2.977 38.383-5.604c8.06-2.359 15.021-4.396 29.956-4.396 14.936 0 21.897 2.037 29.958 4.396 8.976 2.627 19.149 5.604 38.384 5.604 19.236 0 29.409-2.977 38.385-5.604 8.061-2.359 15.023-4.396 29.959-4.396 14.938 0 21.899 2.037 29.961 4.396 8.977 2.626 19.15 5.604 38.387 5.604s29.41-2.977 38.386-5.604c3.863-1.13 7.481-2.184 11.837-2.978l-9.702 40.911c-3.57 15.054-16.868 25.568-32.338 25.568zm49.408-97.543c-12.591.86-20.497 3.163-27.63 5.25-8.062 2.359-15.023 4.396-29.96 4.396-14.938 0-21.899-2.037-29.961-4.396-8.977-2.626-19.15-5.604-38.387-5.604-19.236 0-29.409 2.977-38.385 5.604-8.061 2.359-15.023 4.396-29.959 4.396s-21.897-2.037-29.958-4.396c-8.976-2.626-19.149-5.604-38.384-5.604-19.234 0-29.407 2.977-38.382 5.604-8.061 2.359-15.022 4.396-29.957 4.396-14.936 0-21.897-2.037-29.958-4.396-7.132-2.087-15.038-4.39-27.627-5.251l-9.753-41.123h408.054z"/><path id="XMLID_885_" d="m175.777 237.984c11.789 0 23.406-1.83 34.528-5.439 29.895-9.701 61.495-9.701 91.39 0 11.122 3.609 22.739 5.439 34.528 5.439 30.355 0 58.754-11.961 79.968-33.679 21.207-21.712 32.493-50.402 31.777-80.785-.677-28.772-12.374-55.902-32.935-76.393-20.56-20.489-47.73-32.093-76.505-32.674-12.738-.261-25.266 1.611-37.25 5.552-29.621 9.741-60.936 9.743-90.558 0-11.984-3.94-24.518-5.809-37.25-5.551-28.775.582-55.945 12.186-76.505 32.674-20.561 20.49-32.257 47.62-32.935 76.393-.715 30.382 10.57 59.072 31.777 80.785 21.215 21.717 49.615 33.678 79.97 33.678zm-1.699-193.537c9.335-.189 18.513 1.176 27.271 4.056 35.753 11.759 73.549 11.758 109.303 0 8.757-2.88 17.923-4.256 27.271-4.056 43.127.872 79.04 36.66 80.055 79.779.523 22.238-7.733 43.232-23.248 59.116-15.521 15.891-36.298 24.642-58.506 24.642-8.64 0-17.142-1.337-25.269-3.975-17.976-5.833-36.465-8.75-54.955-8.75s-36.979 2.917-54.955 8.75c-8.127 2.637-16.628 3.975-25.269 3.975-22.208 0-42.986-8.751-58.506-24.642-15.515-15.884-23.771-36.878-23.248-59.116 1.016-43.119 36.928-78.907 80.056-79.779z"/><path id="XMLID_886_" d="m148 89.905h30v29.333h-30z"/><path id="XMLID_887_" d="m322 89.905h30v29.333h-30z"/><path id="XMLID_889_" d="m241 127.905h30v29.333h-30z"/></g></svg>