<svg id="Layer_1" enable-background="new 0 0 510 510" height="512" viewBox="0 0 510 510" width="512" xmlns="http://www.w3.org/2000/svg"><g><path d="m510 193.003-75-37.296v-40.522l-97.706-17.765c-54.607-9.93-109.98-9.93-164.588 0l-97.706 17.766v40.522l-75 37.295v123.541l75 37.704v40.566l97.706 17.765c54.597 9.928 109.982 9.93 164.588 0l97.706-17.764v-40.566l75-37.704zm-480 105.045v-86.459l45-22.377v131.458zm375 71.73-73.073 13.286c-51.045 9.281-102.809 9.281-153.854 0l-73.073-13.286v-.447c0-9.932 0-220.04 0-229.107l73.073-13.286c51.045-9.281 102.809-9.281 153.854 0l73.073 13.285v229.107zm75-71.73-45 22.622v-131.458l45 22.377z"/><path d="m220.648 167.139-72.885 10.991 4.475 29.664 72.315-10.91c20.205-2.51 40.689-2.51 60.895 0l72.315 10.91 4.475-29.664-72.508-10.939c-4.46-.28-31.54-4.745-69.082-.052z"/><path d="m285.446 313.117c-20.203 2.51-40.689 2.51-60.893 0l-72.316-10.909-4.475 29.664c1.166.176-10.653-1.606 72.885 10.99 22.391 2.799 45.499 2.901 68.705 0l72.885-10.99-4.475-29.664z"/><path d="m150 240h210v30h-210z"/></g></svg>