<svg id="Capa_1" enable-background="new 0 0 512 512" height="512" viewBox="0 0 512 512" width="512" xmlns="http://www.w3.org/2000/svg"><g><path d="m437.02 74.98c-48.353-48.351-112.64-74.98-181.02-74.98s-132.667 26.629-181.02 74.98c-48.351 48.353-74.98 112.64-74.98 181.02s26.629 132.667 74.98 181.02c48.353 48.351 112.64 74.98 181.02 74.98s132.667-26.629 181.02-74.98c48.351-48.353 74.98-112.64 74.98-181.02s-26.629-132.667-74.98-181.02zm9.78 248.765c-16.925 0-30.694-13.77-30.694-30.695s13.77-30.694 30.694-30.694c16.925 0 30.695 13.77 30.695 30.694 0 16.925-13.769 30.695-30.695 30.695zm-412.8-30.695c0-16.925 13.77-30.694 30.694-30.694 16.925 0 30.695 13.77 30.695 30.694 0 16.925-13.77 30.695-30.695 30.695-16.924 0-30.694-13.77-30.694-30.695zm381.806 122.756c-42.686 42.686-99.439 66.194-159.806 66.194s-117.12-23.508-159.806-66.194c-18.76-18.76-33.812-40.24-44.796-63.547 4.283.961 8.729 1.485 13.297 1.485 33.467 0 60.695-27.228 60.695-60.695s-27.228-60.694-60.695-60.694c-12.728 0-24.548 3.946-34.316 10.668 3.121-55.487 26.203-107.217 65.815-146.83 42.686-42.685 99.439-66.193 159.806-66.193s117.12 23.508 159.806 66.194c39.702 39.702 62.801 91.576 65.838 147.205-9.87-6.947-21.884-11.044-34.844-11.044-33.467 0-60.694 27.228-60.694 60.694 0 33.467 27.228 60.695 60.694 60.695 4.77 0 9.406-.571 13.862-1.616-10.989 23.358-26.061 44.883-44.856 63.678z"/><path d="m423.458 161.979-15.706-20.036c-13.005-16.589-33.339-26.044-54.413-25.328l-44.255 1.534 1.039 29.982 44.255-1.534c11.541-.408 22.65 4.78 29.764 13.854l15.706 20.035z"/><path d="m154.89 146.598 44.255 1.534 1.039-29.982-44.255-1.534c-21.067-.715-41.407 8.739-54.413 25.329l-15.706 20.035 23.61 18.508 15.706-20.035c7.114-9.075 18.233-14.266 29.764-13.855z"/><path d="m270.421 279.407h-22.842v30h22.842c8.272 0 15.002 6.73 15.002 15.002s-6.73 15.001-15.002 15.001h-22.842v30h22.842c8.272 0 15.002 6.73 15.002 15.002s-6.73 15.002-15.002 15.002h-22.842v30h22.842c24.814 0 45.002-20.188 45.002-45.002 0-11.517-4.354-22.034-11.496-30.002 7.142-7.968 11.496-18.484 11.496-30.002 0-24.813-20.188-45.001-45.002-45.001z"/><path d="m188.357 177.773c-27.394 0-49.681 22.287-49.681 49.681h30c0-10.852 8.829-19.681 19.681-19.681s19.68 8.829 19.68 19.681h30c.001-27.394-22.286-49.681-49.68-49.681z"/><path d="m322.401 177.773c-27.394 0-49.68 22.287-49.68 49.681h30c0-10.852 8.829-19.681 19.68-19.681 10.852 0 19.681 8.829 19.681 19.681h30c0-27.394-22.287-49.681-49.681-49.681z"/></g></svg>