<?xml version="1.0" encoding="iso-8859-1"?>
<!-- Generator: Adobe Illustrator 19.0.0, SVG Export Plug-In . SVG Version: 6.00 Build 0)  -->
<svg version="1.1" id="Layer_1" xmlns="http://www.w3.org/2000/svg" xmlns:xlink="http://www.w3.org/1999/xlink" x="0px" y="0px"
	 viewBox="0 0 512 512" style="enable-background:new 0 0 512 512;" xml:space="preserve">
<g>
	<g>
		<path d="M0,83.349v345.302h512V83.349H0z M273.86,119.07h83.349v35.721H273.86V119.07z M35.721,119.07h83.349v35.721H35.721
			V119.07z M119.07,392.93H35.721v-35.721h83.349V392.93z M238.14,392.93h-83.349v-35.721h83.349V392.93z M238.14,321.488H35.721
			V190.512H238.14V321.488z M238.14,154.791h-83.349V119.07h83.349V154.791z M357.209,392.93H273.86v-35.721h83.349V392.93z
			 M476.279,392.93H392.93v-35.721h83.349V392.93z M476.279,321.488H273.86V190.512h202.419V321.488z M476.279,154.791H392.93
			V119.07h83.349V154.791z"/>
	</g>
</g>
<g>
</g>
<g>
</g>
<g>
</g>
<g>
</g>
<g>
</g>
<g>
</g>
<g>
</g>
<g>
</g>
<g>
</g>
<g>
</g>
<g>
</g>
<g>
</g>
<g>
</g>
<g>
</g>
<g>
</g>
</svg>
