<svg id="Capa_1" enable-background="new 0 0 512 512" height="512" viewBox="0 0 512 512" width="512" xmlns="http://www.w3.org/2000/svg"><g><path d="m240.875 189.208c0-41.493-33.757-75.25-75.25-75.25s-75.25 33.757-75.25 75.25v15h74.667v-30h-42.111c6.201-17.601 22.999-30.25 42.694-30.25 24.951 0 45.25 20.299 45.25 45.25s-20.299 45.25-45.25 45.25h-165.625v30h165.625c41.493 0 75.25-33.757 75.25-75.25z"/><path d="m346.375 234.458c-24.951 0-45.25-20.299-45.25-45.25s20.299-45.25 45.25-45.25c19.695 0 36.493 12.649 42.695 30.25h-42.112v30h74.667v-15c0-41.493-33.757-75.25-75.25-75.25s-75.25 33.757-75.25 75.25 33.757 75.25 75.25 75.25h165.625v-30z"/><path d="m292.908 294.708-36.908-41.962-36.908 41.962h-219.092v30h67.197c-4.773 8.483-7.509 18.259-7.509 28.667v44.667h44.667c32.349 0 58.666-26.318 58.666-58.667v-14.667h69.638l23.341-26.538 23.342 26.538h69.638v14.667c0 32.349 26.317 58.667 58.666 58.667h44.667v-44.667c0-10.408-2.736-20.183-7.509-28.667h67.196v-30zm-159.887 44.667c0 15.807-12.859 28.667-28.666 28.667h-14.667v-14.667c0-15.807 12.86-28.667 28.667-28.667h14.666zm289.291 14v14.667h-14.667c-15.807 0-28.666-12.86-28.666-28.667v-14.667h14.666c15.807 0 28.667 12.86 28.667 28.667z"/></g></svg>