<svg id="Capa_1" enable-background="new 0 0 512 512" height="512" viewBox="0 0 512 512" width="512" xmlns="http://www.w3.org/2000/svg"><g><path d="m419.648 200.677c-8.783-8.617-20.292-13.241-32.436-13.002-7.404.141-14.386 2.1-20.537 5.426-2.431-4.594-5.557-8.835-9.31-12.517-9.62-9.438-22.216-14.512-35.516-14.241-11.189.214-21.504 4.203-29.748 10.716-1.634-2.183-3.436-4.249-5.397-6.173-10.273-10.079-23.738-15.48-37.921-15.209-7.801.149-15.326 1.976-22.161 5.29v-107.775c-.001-29.33-23.862-53.192-53.193-53.192s-53.192 23.862-53.192 53.192v194.937c-24.697 11.806-41.801 37.031-41.801 66.18v80.498c0 28.174 10.026 55.531 28.23 77.033l34.001 40.16h230.66l34-40.159c18.204-21.502 28.23-48.859 28.23-77.033v-95.688c.001-.09.007-.179.007-.27v-65.11c0-12.336-5.073-24.387-13.916-33.063zm-116.642 15.808c0-10.94 8.868-19.808 19.808-19.808s19.808 8.868 19.808 19.808v100.221c0 10.727-8.325 19.875-19.044 20.28-11.269.426-20.572-8.618-20.572-19.793zm-76.385-7.438c0-12.673 10.367-23.31 23.04-23.38 17.13 0 23.344 17.503 23.344 23.946v44.607c-9.245-8.216-21.405-13.22-34.717-13.22h-11.667zm-76.384-155.855c0-12.788 10.404-23.192 23.192-23.192s23.192 10.404 23.192 23.192v187.808s-45.881.028-46.384.038zm253.32 341.616c0 21.084-7.503 41.557-21.126 57.648l-25.014 29.544h-202.841l-25.013-29.544c-13.624-16.091-21.127-36.564-21.127-57.648v-80.498c0-23.881 19.428-43.309 43.309-43.309h86.543c12.314 0 22.333 10.019 22.333 22.333s-10.019 22.333-22.333 22.333h-90.667v30h102.192c10.142 0 19.628-2.856 27.702-7.802 7.869 17.171 25.207 29.135 45.299 29.135 19.516 0 36.437-11.288 44.601-27.673 3.66 1.878 11.252 4.994 20.677 4.994 5.427 0 10.634-.959 15.464-2.711v53.198zm.007-95.958c0 8.789-7.367 15.89-16.251 15.452-8.311-.41-14.691-7.58-14.691-15.901v-65.263c0-8.544 6.927-15.471 15.471-15.471s15.471 6.927 15.471 15.471z"/></g></svg>