<svg id="Capa_1" enable-background="new 0 0 512 512" height="512" viewBox="0 0 512 512" width="512" xmlns="http://www.w3.org/2000/svg"><path d="m471.858 281.52c-25.778-25.485-59.821-39.52-95.858-39.52h-30v-16c0-8.271 6.729-15 15-15v-30c-24.813 0-45 20.187-45 45v16h-30c-12.081 0-23.793 1.604-34.943 4.595-6.44-9.855-10.057-18.066-10.057-26.798v-67.797c0-44.516-32.489-81.58-75-88.743v-18.257c0-8.271 6.729-15 15-15v-30c-24.813 0-45 20.187-45 45v18.257c-42.511 7.163-75 44.227-75 88.743v67.797c0 13.795-9.41 26.261-21.324 42.045-17.677 23.418-39.676 52.562-39.676 100.158 0 82.71 67.738 150 151 150 24.278 0 48.094-5.871 69.438-17.026 19.425 10.838 41.783 17.026 65.562 17.026h90c36.037 0 70.08-14.035 95.858-39.52 25.886-25.592 40.142-59.5 40.142-95.48s-14.256-69.888-40.142-95.48zm-290.858 95.48c0-52.522 38.762-96.158 89.182-103.809-8.911 12.335-14.182 27.464-14.182 43.809v120c0 16.345 5.271 31.474 14.182 43.809-50.42-7.651-89.182-51.287-89.182-103.809zm105 60v-120c0-24.813 20.187-45 45-45s45 20.187 45 45v120c0 24.813-20.187 45-45 45s-45-20.187-45-45zm-135 45c-66.72 0-121-53.832-121-120 0-37.544 17.092-60.187 33.62-82.084 14.08-18.654 27.38-36.273 27.38-60.119v-67.797c0-33.084 26.916-60 60-60s60 26.916 60 60v67.797c0 14.503 4.988 26.831 11.658 38.017-42.598 22.73-71.658 67.625-71.658 119.186 0 38.299 16.033 72.923 41.737 97.516-13.277 4.918-27.402 7.484-41.737 7.484zm240.802-1.168c8.92-12.339 14.198-27.477 14.198-43.832v-120c0-16.355-5.278-31.493-14.198-43.832 50.98 7.58 90.198 51.253 90.198 103.832s-39.218 96.252-90.198 103.832z"/></svg>