<svg id="Capa_1" enable-background="new 0 0 512 512" height="512" viewBox="0 0 512 512" width="512" xmlns="http://www.w3.org/2000/svg"><g><path d="m454.706 281.003c-13.735-29.26-37.874-52.691-67.627-65.519 17.384-14.801 28.441-36.823 28.441-61.39 0-44.461-36.172-80.633-80.633-80.633-6.914 0-13.62.892-20.026 2.541-17.319-26.547-47.278-44.132-81.27-44.132-33.99 0-63.946 17.581-81.266 44.124-6.407-1.647-13.117-2.533-20.031-2.533-44.461 0-80.633 36.172-80.633 80.633 0 24.56 11.051 46.576 28.427 61.378-47.06 20.29-80.088 67.131-80.088 121.548v52.677l302.321.059c7.305 51.023 51.292 90.373 104.303 90.373 58.104 0 105.376-47.271 105.376-105.375 0-40.794-23.302-76.247-57.294-93.751zm-43.053-11.502c-1.667-.079-3.343-.123-5.029-.123-13.734 0-26.861 2.644-38.903 7.445-8.409-15.91-19.56-30.156-32.828-42.096h.006c30.546.003 57.997 13.472 76.754 34.774zm-76.766-166.04c27.919 0 50.633 22.714 50.633 50.633 0 27.915-22.708 50.626-50.622 50.632-.004 0-.007 0-.011 0s-.008 0-.012 0c-11.304-.003-21.744-3.739-30.175-10.028 16.04-17.307 25.862-40.454 25.862-65.856 0-8.569-1.122-16.879-3.219-24.797 2.463-.371 4.978-.584 7.544-.584zm-101.296-41.59c36.928 0 66.971 30.043 66.971 66.971s-30.043 66.972-66.971 66.972c-36.929 0-66.972-30.043-66.972-66.972s30.043-66.971 66.972-66.971zm-151.93 92.223c0-27.919 22.714-50.633 50.633-50.633 2.566 0 5.08.215 7.543.586-2.096 7.918-3.218 16.227-3.218 24.795 0 25.397 9.819 48.541 25.853 65.846-8.431 6.29-18.864 10.036-30.168 10.038-.004 0-.007 0-.011 0s-.009 0-.013 0c-27.912-.007-50.619-22.717-50.619-50.632zm-51.661 205.603v-22.677c0-56.401 45.882-102.287 102.281-102.294h.005c-30.87 27.774-50.315 68.01-50.315 112.707v12.264zm81.971-12.264c0-67.062 54.559-121.62 121.62-121.62 47.025 0 87.89 26.835 108.117 65.99-20.89 16.384-35.455 40.476-39.387 67.953h-190.35zm294.653 102.696c-41.562 0-75.376-33.813-75.376-75.375s33.813-75.376 75.376-75.376 75.376 33.813 75.376 75.376c0 41.562-33.813 75.375-75.376 75.375z"/><path d="m377.5 359.631h14.124v60.25h30v-90.25h-44.124z"/></g></svg>