<svg id="Capa_1" enable-background="new 0 0 511.998 511.998" height="512" viewBox="0 0 511.998 511.998" width="512" xmlns="http://www.w3.org/2000/svg"><g><g><path d="m493.797 511.998h-475.596v-511.998h475.596zm-445.596-30h415.596v-451.998h-415.596z"/></g><g><path d="m206.332 422.994h99.334v30h-99.334z"/></g><g><path d="m335.668 422.994h30.002v30h-30.002z"/></g><g><path d="m395.671 422.994h30.002v30h-30.002z"/></g><g><path d="m146.328 422.994h30.002v30h-30.002z"/></g><g><path d="m86.325 422.994h30.002v30h-30.002z"/></g><g><path d="m153.979 210.554c-41.782 0-75.775-33.993-75.775-75.775s33.993-75.775 75.775-75.775 75.775 33.993 75.775 75.775c.001 41.783-33.992 75.775-75.775 75.775zm0-121.55c-25.24 0-45.775 20.535-45.775 45.775 0 25.241 20.535 45.775 45.775 45.775s45.775-20.535 45.775-45.775c.001-25.24-20.534-45.775-45.775-45.775z"/></g><g><path d="m138.979 119.778h30v30.002h-30z"/></g><g><path d="m358.019 210.554c-41.782 0-75.775-33.993-75.775-75.775s33.993-75.775 75.775-75.775 75.775 33.993 75.775 75.775c0 41.783-33.993 75.775-75.775 75.775zm0-121.55c-25.24 0-45.775 20.535-45.775 45.775 0 25.241 20.535 45.775 45.775 45.775s45.775-20.535 45.775-45.775-20.535-45.775-45.775-45.775z"/></g><g><path d="m343.019 119.778h30v30.002h-30z"/></g><g><path d="m153.979 391.065c-41.782 0-75.775-33.993-75.775-75.775 0-41.783 33.993-75.775 75.775-75.775s75.775 33.993 75.775 75.775c.001 41.782-33.992 75.775-75.775 75.775zm0-121.55c-25.24 0-45.775 20.535-45.775 45.775s20.535 45.775 45.775 45.775 45.775-20.535 45.775-45.775c.001-25.241-20.534-45.775-45.775-45.775z"/></g><g><path d="m138.979 300.289h30v30.002h-30z"/></g><g><path d="m358.019 391.065c-41.782 0-75.775-33.993-75.775-75.775 0-41.783 33.993-75.775 75.775-75.775s75.775 33.993 75.775 75.775-33.993 75.775-75.775 75.775zm0-121.55c-25.24 0-45.775 20.535-45.775 45.775s20.535 45.775 45.775 45.775 45.775-20.535 45.775-45.775c0-25.241-20.535-45.775-45.775-45.775z"/></g><g><path d="m343.019 300.289h30v30.002h-30z"/></g></g></svg>