<?xml version="1.0" encoding="iso-8859-1"?>
<!-- Generator: Adobe Illustrator 19.0.0, SVG Export Plug-In . SVG Version: 6.00 Build 0)  -->
<svg version="1.1" id="Capa_1" xmlns="http://www.w3.org/2000/svg" xmlns:xlink="http://www.w3.org/1999/xlink" x="0px" y="0px"
	 viewBox="0 0 512 512" style="enable-background:new 0 0 512 512;" xml:space="preserve">
<g>
	<g>
		<path d="M425.059,94.873c-3.595-3.996-9.05-5.76-14.304-4.632c-17.694,3.805-34.024,11.253-48.538,22.138
			c-27.252,20.438-63.557,24.646-94.746,10.98c-3.873-1.698-8.284-1.681-12.145,0.047c-3.862,1.728-6.812,5.005-8.128,9.025
			c-3.438,10.503-5.182,21.472-5.182,32.602c0,57.891,47.098,104.99,104.99,104.99c57.891,0,104.99-47.098,104.99-104.99
			C451.996,139.098,442.43,114.183,425.059,94.873z M347.006,240.026c-41.351,0-74.993-33.642-74.993-74.993
			c0-2.743,0.147-5.469,0.441-8.173c36.796,10.082,76.732,2.788,107.76-20.483c8.584-6.437,18.003-11.292,28.092-14.489
			c8.881,12.582,13.692,27.608,13.692,43.145C421.999,206.385,388.357,240.026,347.006,240.026z"/>
	</g>
</g>
<g>
	<g>
		<path d="M478.183,64.983C438.566,12.018,368.843-11.818,304.689,5.674c-62.735,17.103-108.721,67.182-120.013,130.693
			c-2.191,12.325-11.529,25.117-23.724,33.222c-4.552-4.504-10.056-8.015-16.251-10.27c-11.295-4.112-23.514-3.577-34.405,1.502
			c-10.894,5.08-19.156,14.097-23.268,25.391c-4.112,11.294-3.577,23.513,1.503,34.406l6.338,13.593L54.09,253.226
			c-22.486,10.486-32.25,37.309-21.765,59.796c2.981,6.392,7.326,11.87,12.684,16.143L4.404,429.511
			c-2.896,7.158-4.364,14.726-4.364,22.495C0.04,485.086,26.954,512,60.034,512c33.081,0,59.994-26.913,59.994-59.994
			c0-7.769-1.468-15.337-4.363-22.493l-36.774-90.878c4.523-0.591,8.978-1.866,13.231-3.849l40.779-19.016l6.338,13.594
			c5.08,10.893,14.097,19.155,25.392,23.266c5.021,1.828,10.227,2.738,15.415,2.738c6.481,0,12.94-1.419,18.989-4.24
			c17.534-8.176,27.33-26.288,25.823-44.532c14.512-4.442,31.12-3.124,44.11,3.858c22.129,11.893,47.04,18.683,72.042,19.637
			c2.136,0.082,4.271,0.123,6.395,0.123c23.997,0,47.273-5.187,69.289-15.454c45.225-21.088,78.141-60.968,90.312-109.412
			C519.178,156.906,508.671,105.745,478.183,64.983z M87.859,440.764c1.441,3.564,2.173,7.347,2.173,11.242
			c0,16.54-13.457,29.997-29.997,29.997c-16.54,0-29.997-13.457-29.997-29.997c0-3.896,0.731-7.678,2.174-11.244l27.823-68.759
			L87.859,440.764z M79.445,307.599c-3.633,1.694-7.704,1.872-11.47,0.501c-3.765-1.37-6.77-4.125-8.463-7.755
			c-3.495-7.496-0.24-16.436,7.254-19.932l40.78-19.016l2.307,4.948l10.37,22.239L79.445,307.599z M186.359,323.941
			c-3.634,1.694-7.707,1.872-11.47,0.501c-3.765-1.37-6.77-4.125-8.463-7.755l-50.709-108.747
			c-1.693-3.631-1.872-7.704-0.501-11.468c1.37-3.765,4.125-6.77,7.755-8.463c3.632-1.693,7.703-1.871,11.469-0.501
			c3.765,1.371,6.77,4.125,8.463,7.755l50.71,108.746C197.108,311.504,193.854,320.445,186.359,323.941z M477.916,198.037
			c-9.96,39.646-36.894,72.281-73.896,89.534c-38.879,18.129-82.927,16.838-120.849-3.542
			c-20.565-11.053-45.966-13.024-68.442-5.718l-38.604-82.786c19.809-12.551,34.328-32.778,38.085-53.908
			c9.241-51.98,46.934-92.981,98.369-107.005c11.465-3.126,23.152-4.638,34.744-4.638c41.371,0,81.604,19.235,106.84,52.974
			C479.217,116.447,487.875,158.395,477.916,198.037z"/>
	</g>
</g>
<g>
</g>
<g>
</g>
<g>
</g>
<g>
</g>
<g>
</g>
<g>
</g>
<g>
</g>
<g>
</g>
<g>
</g>
<g>
</g>
<g>
</g>
<g>
</g>
<g>
</g>
<g>
</g>
<g>
</g>
</svg>
