<svg id="Capa_1" enable-background="new 0 0 510 510" height="512" viewBox="0 0 510 510" width="512" xmlns="http://www.w3.org/2000/svg"><g><path d="m345.442 300h-64.845l-18.53-46.321c23.189-16.297 38.375-43.246 38.375-73.679v-62.58c17.459-6.192 30-22.865 30-42.42v-75h-138c-39.701 0-72 32.299-72 72v108c0 30.433 15.186 57.382 38.375 73.679l-18.53 46.321h-64.845c-41.355 0-75 33.645-75 75v135h420v-135c0-41.355-33.644-75-75-75zm-195-228c0-23.159 18.841-42 42-42h108v45c0 8.271-6.729 15-15 15h-135zm0 48h120v60c0 33.084-26.916 60-60 60s-60-26.916-60-60zm84.489 146.613 18.654 46.632-43.143 64.714-43.142-64.714 18.654-46.632c15.957 4.518 33.02 4.518 48.977 0zm-204.489 108.387c0-24.814 20.186-45 45-45h66.973l53.027 79.542v70.458h-90v-30h-30v30h-45zm360 105h-45v-30h-30v30h-90v-70.459l53.028-79.541h66.973c24.813 0 45 20.186 45 45v105z"/><path d="m335.442 150v30h48.885l-52.5 90h93.615v-30h-41.384l52.5-90z"/><path d="m509.558 1h-101.116v30h48.885l-52.5 90h93.615v-30h-41.384z"/></g></svg>