<svg id="Capa_1" enable-background="new 0 0 512.114 512.114" height="512" viewBox="0 0 512.114 512.114" width="512" xmlns="http://www.w3.org/2000/svg"><g><path d="m474.461 240.891v-22.43c0-58.338-22.718-113.184-63.969-154.435s-96.097-63.969-154.435-63.969-113.184 22.718-154.435 63.969-63.969 96.097-63.969 154.435v22.43c-21.33 3.519-37.653 22.08-37.653 44.391v59.108c0 24.813 20.187 45 45 45h90.287v-149.108h-10v-19.454c0-72.107 58.663-130.771 130.771-130.771s130.771 58.664 130.771 130.771v19.454h-10.001v149.108h90.287c24.813 0 45-20.187 45-45v-59.108c-.001-22.311-16.324-40.872-37.654-44.391zm-369.174 118.499h-60.287c-8.271 0-15-6.729-15-15v-59.108c0-8.271 6.729-15 15-15h60.287zm150.77-299.333c-88.648 0-160.77 72.122-160.77 160.771v19.454h-27.634v-21.821c0-103.886 84.518-188.404 188.404-188.404s188.403 84.518 188.403 188.404v21.821h-27.633v-19.454c.001-88.649-72.121-160.771-160.77-160.771zm226.057 284.333c0 8.271-6.729 15-15 15h-60.287v-89.108h60.287c8.271 0 15 6.729 15 15z"/><path d="m211.114 369.644c-31.544 7.893-54.591 36.349-54.591 70.118 0 39.864 32.432 72.295 72.295 72.295 39.864 0 72.296-32.432 72.296-72.295v-225.022h-90zm30 27.209v-152.113h30v195.021c0 23.322-18.974 42.295-42.296 42.295-23.321 0-42.295-18.974-42.295-42.295 0-22.638 17.696-41.193 40.288-42.244z"/></g></svg>