<svg id="Capa_1" enable-background="new 0 0 512 512" height="512" viewBox="0 0 512 512" width="512" xmlns="http://www.w3.org/2000/svg"><g><path d="" fill="none"/><path d="m311.675 452h-.001" fill="none"/><path d="m324.48 208.806c-6.922-36.55-29.789-68.37-62.376-86.564v-122.242h-119.14v122.245c-39.523 22.085-64.57 64.245-64.57 109.979v279.776h248.28v-60.918c60.178-7.417 106.931-58.86 106.932-121.011 0-62.91-47.889-114.845-109.126-121.265zm-92.376-178.806v30.14h-59.14v-30.14zm-67.869 115.059 8.729-4.017v-50.902h59.14v50.902l8.729 4.017c26.787 12.327 46.197 36.226 53.091 64.354-25.833 3.745-49.679 15.647-68.469 34.437-2.521 2.521-4.918 5.133-7.188 7.828h-109.873v-19.454c0-37.341 21.919-71.555 55.841-87.165zm82.433 250.014c-17.363-17.364-26.925-40.45-26.925-65.005 0-19.48 6.019-38.036 17.176-53.543l128.259 128.261c-15.081 10.831-33.562 17.214-53.505 17.214-24.555 0-47.641-9.563-65.005-26.927zm-46.982-16.613h-91.292v-96.782h91.292c-6.519 15.077-9.942 31.47-9.942 48.39-.001 16.92 3.423 33.315 9.942 48.392zm-91.292 103.54v-73.54h109.875c2.269 2.695 4.666 5.306 7.186 7.826 19.456 19.457 44.329 31.528 71.219 34.806v30.908zm277.997-98.426-128.259-128.262c15.507-11.156 34.063-17.175 53.543-17.175 50.69 0 91.931 41.241 91.931 91.932 0 19.944-6.384 38.423-17.215 53.505z"/></g></svg>