<svg id="Capa_1" enable-background="new 0 0 510 510" height="512" viewBox="0 0 510 510" width="512" xmlns="http://www.w3.org/2000/svg"><g id="XMLID_2_"><path id="XMLID_9_" d="m390 300h-64.845l-18.546-46.361c15.435-10.828 27.435-26.404 33.666-44.836 19.876-4.663 34.725-22.526 34.725-43.803 0-6.178-1.765-17.434-17.025-43.74-1.575-2.715-3.145-5.333-4.649-7.789 12.984-7.903 21.674-22.191 21.674-38.471v-75h-135c-11.1 0-21.561 6.156-30 17.465-8.44-11.309-18.9-17.465-30-17.465h-45v75c0 19.555 12.541 36.229 30 42.42v62.58c0 30.433 15.186 57.382 38.375 73.679l-18.53 46.321h-63.921c-41.355 0-75 33.645-75 75v135h419.076v-135c0-41.355-33.645-75-75-75zm-60-120c-8.272 0-15-6.729-15-14.982.122-4.585 6.361-17.655 15-32.212 8.64 14.556 14.878 27.622 15 32.194 0 8.271-6.728 15-15 15zm-98.784-140.242c4.297-7.624 8.112-9.663 8.784-9.758h105v45c0 8.271-6.728 15-15 15h-105v-30c0-4.438 1.945-12.665 6.216-20.242zm-66.216-9.759 14.957-.001c.715.097 4.53 2.136 8.827 9.76 4.271 7.577 6.216 15.804 6.216 20.242v30h-15c-8.271 0-15-6.729-15-15zm30 90.001h30 77.76c-.245.418-.489.838-.734 1.26-15.261 26.306-17.026 37.562-17.026 43.74 0 17.441 9.981 32.587 24.525 40.053-9.615 20.853-30.773 34.947-54.525 34.947-33.084 0-60-26.916-60-60zm60 150c8.436 0 16.648-1.202 24.473-3.428l18.67 46.673-43.143 64.714-43.143-64.714 18.654-46.632c7.79 2.205 16.004 3.387 24.489 3.387zm-179.076 105c0-24.814 20.187-45 45-45h66.049l53.027 79.542v70.458h-90v-30h-30v30h-44.076zm359.076 105h-45v-30h-30v30h-90v-70.459l53.027-79.541h66.973c24.814 0 45 20.186 45 45z"/><path id="XMLID_8_" d="m52.5 62.958h29.999v54.083h-29.999z" transform="matrix(.555 -.832 .832 .555 -44.827 96.24)"/><path id="XMLID_7_" d="m45 150h45v30h-45z"/><path id="XMLID_6_" d="m40.458 225h54.083v29.999h-54.083z" transform="matrix(.832 -.555 .555 .832 -121.791 77.75)"/><path id="XMLID_5_" d="m415.458 75h54.083v29.999h-54.083z" transform="matrix(.832 -.555 .555 .832 24.395 260.57)"/><path id="XMLID_4_" d="m420 150h45v30h-45z"/><path id="XMLID_3_" d="m427.5 212.958h29.999v54.083h-29.999z" transform="matrix(.555 -.832 .832 .555 -2.647 475.054)"/></g></svg>