<svg id="Layer_1" enable-background="new 0 0 509.861 509.861" height="512" viewBox="0 0 509.861 509.861" width="512" xmlns="http://www.w3.org/2000/svg"><g id="XMLID_586_"><path id="XMLID_597_" d="m489.919 296.563-53.506-90.143c-1.09-53.977-23.256-104.909-62.695-143.836-132.919-132.168-358.157-41.59-358.763 146.443-.988 63.583 27.312 138.374 74.994 179.313v121.521h255v-75h58.681c17.27 0 31.319-14.045 31.319-31.31v-58.69h28.657c11.567 0 22.145-6.335 27.607-16.532 5.39-10.066 4.885-22.195-1.294-31.766zm-25.153 17.603c-.371.694-.884.694-1.159.694h-58.657v88.69c0 .722-.592 1.31-1.319 1.31h-88.681v75h-195v-105.79l-5.671-4.504c-79.663-63.741-97.012-215.378-14.809-289.983 33.599-32.813 78.024-50.461 125.236-49.698 100.217 1.626 181.749 82.697 181.749 180.722v4.116l57.833 97.434.414.658c.153.229.437.656.064 1.351z"/><path id="XMLID_601_" d="m284.949 194.861v30h19.746l-38 60h78.254v-30h-23.745l38-60z"/><path id="XMLID_602_" d="m269.949 164.861v-30h-43.138l62-75h-108.862v30h45.139l-62 75z"/><path id="XMLID_604_" d="m104.949 209.861v30h45.139l-62 75h106.861v-30h-43.138l62-75z"/></g></svg>