<svg height="512pt" viewBox="-31 0 512 512.00003" width="512pt" xmlns="http://www.w3.org/2000/svg"><path d="m247.5 104.996094c-24.3125 0-41.8125 10.617187-52.5 19.957031-10.6875-9.339844-28.183594-19.957031-52.5-19.957031-38.6875 0-67.5 29.4375-67.5 66.820312 0 33.347656 23.558594 52.679688 48.5 73.148438 19.527344 16.023437 41.65625 34.183594 58.605469 62.699218 2.703125 4.546876 7.605469 7.332032 12.894531 7.332032 5.292969 0 10.191406-2.785156 12.894531-7.332032 16.949219-28.515624 39.082031-46.675781 58.605469-62.699218 24.941406-20.46875 48.5-39.800782 48.5-73.148438 0-37.460937-28.886719-66.820312-67.5-66.820312zm-.03125 116.777344c-16.132812 13.242187-35.394531 29.046874-52.46875 51.46875-17.070312-22.421876-36.332031-38.226563-52.46875-51.46875-24.660156-20.238282-37.53125-31.648438-37.53125-49.957032 0-21.335937 15.773438-36.820312 37.5-36.820312 25.488281 0 38.988281 18.828125 39.972656 20.253906 2.726563 4.296875 7.375 6.8125 12.46875 6.855469 5.066406.042969 9.820313-2.625 12.617188-6.90625.132812-.199219 13.929687-20.203125 39.941406-20.203125 21.730469 0 37.5 15.484375 37.5 36.820312 0 18.304688-12.867188 29.71875-37.53125 49.957032zm0 0"/><path d="m222.769531 1.925781c-119.34375-16.523437-222.769531 75.511719-222.769531 193.074219 0 53.125 21.785156 104.019531 60 140.710938v161.289062c0 8.285156 6.714844 15 15 15h150c8.285156 0 15-6.714844 15-15v-47s40.191406 0 40.289062-.003906c46.472657-.886719 79.261719-11.34375 90.628907-56.808594l15.796875-63.1875h48.289062c5.292969 0 10.195313-2.792969 12.898438-7.347656 2.703125-4.554688 2.804687-10.195313.265625-14.84375l-58.261719-106.6875c3.160156-102.996094-73.628906-186.25-167.136719-199.195313zm186.949219 298.074219h-34.714844c-6.882812 0-12.886718 4.683594-14.554687 11.359375l-18.636719 74.554687c-6.40625 25.617188-20.304688 33.273438-61.957031 34.085938h-54.855469c-24.8125 0-45-20.1875-45-45 0-8.285156-6.714844-15-15-15-8.28125 0-15 6.714844-15 15 0 36.21875 25.808594 66.523438 60 73.492188v33.507812h-120v-152.835938c0-4.265624-1.816406-8.332031-4.996094-11.175781-34.957031-31.285156-55.003906-76.113281-55.003906-122.988281 0-97.214844 85.214844-177.679688 188.652344-163.359375 79.59375 11.019531 145.824218 83.195313 141.117187 172.226563-.148437 2.777343.480469 5.539062 1.8125 7.980468zm0 0"/></svg>