<?xml version="1.0" encoding="iso-8859-1"?>
<!-- Generator: Adobe Illustrator 19.0.0, SVG Export Plug-In . SVG Version: 6.00 Build 0)  -->
<svg xmlns="http://www.w3.org/2000/svg" xmlns:xlink="http://www.w3.org/1999/xlink" version="1.1" id="Layer_1" x="0px" y="0px" viewBox="0 0 512 512" style="enable-background:new 0 0 512 512;" xml:space="preserve">
<g>
	<g>
		<path d="M353.151,292.932c-8.326-8.497-12.913-19.73-12.913-31.627v-24.823v-34.327c0-17.719-12.582-32.552-29.279-36.043    L293.866,0h-75.73L201.04,166.112c-16.698,3.49-29.279,18.323-29.279,36.043v34.327v24.823c0,11.897-4.585,23.13-12.913,31.627    c-13.855,14.14-21.485,32.827-21.485,52.623V512h237.273V345.556C374.636,325.76,367.006,307.072,353.151,292.932z     M245.207,30.001h21.585l13.927,135.331h-49.438L245.207,30.001z M201.763,202.155c0-3.761,3.06-6.82,6.82-6.82h94.834    c3.761,0,6.82,3.06,6.82,6.82v34.327H201.763V202.155z M344.635,481.999h-177.27V345.556c0-11.897,4.585-23.129,12.913-31.626    c12.641-12.9,20.1-29.586,21.31-47.446h108.825c1.21,17.86,8.669,34.547,21.31,47.446c8.326,8.497,12.913,19.73,12.913,31.626    V481.999z"/>
	</g>
</g>
<g>
	<g>
		<path d="M319.755,409.839l-31.822-93.04c-4.742-13.868-17.277-22.828-31.932-22.828s-27.19,8.96-31.932,22.828l-31.819,93.04    c-3.518,10.284-1.843,21.704,4.478,30.547c6.321,8.842,16.585,14.122,27.455,14.122h63.64c10.87,0,21.133-5.279,27.455-14.122    C321.598,431.543,323.272,420.124,319.755,409.839z M290.869,422.94c-0.511,0.715-1.455,1.567-3.048,1.567h-63.64    c-1.593,0-2.537-0.853-3.048-1.567c-0.511-0.716-1.013-1.885-0.497-3.393l31.819-93.04c0.575-1.682,1.768-2.534,3.545-2.534    c1.777,0,2.97,0.853,3.545,2.534l31.819,93.04C291.882,421.055,291.38,422.224,290.869,422.94z"/>
	</g>
</g>
<g>
</g>
<g>
</g>
<g>
</g>
<g>
</g>
<g>
</g>
<g>
</g>
<g>
</g>
<g>
</g>
<g>
</g>
<g>
</g>
<g>
</g>
<g>
</g>
<g>
</g>
<g>
</g>
<g>
</g>
</svg>
