<svg id="Capa_1" enable-background="new 0 0 511.764 511.764" height="512" viewBox="0 0 511.764 511.764" width="512" xmlns="http://www.w3.org/2000/svg"><g><path d="m500.382 255.382c0-11.348-2.127-22.655-6.206-33.208 32.856-41.455 17.798-106.16-29.527-128.807 10.176-75.123-79.834-122.624-135.976-72.07-43.071-28.382-102.513-28.381-145.583 0-56.177-50.568-146.149-3.024-135.975 72.07-47.334 22.652-62.378 87.359-29.527 128.807-8.336 21.309-8.24 45.845.248 67.078-33.158 41.407-18.198 106.433 29.279 129.145-10.176 75.123 79.834 122.625 135.975 72.07 43.07 28.382 102.512 28.382 145.583 0 56.178 50.567 146.149 3.025 135.976-72.07 47.485-22.716 62.432-87.746 29.279-129.145 4.241-10.733 6.454-22.266 6.454-33.87zm-37.096-28.796c9.566 17.824 9.392 40.382-.266 58.117 0 0-5.274 9.802-5.274 9.802l7.854 7.889c29.465 28.831 16.775 80.761-22.789 92.57.001 0-14.309 4.496-14.309 4.496l4.495 14.311c10.793 32.68-15.112 68.174-49.616 67.612-16.089.001-31.021-7.289-40.967-20l-9.359-11.96c-23.356 20.234-45.486 32.378-77.173 32.461-31.722-.091-53.804-12.224-77.173-32.461l-9.359 11.96c-9.946 12.711-24.878 20.001-40.968 20.001-34.498.563-60.414-34.937-49.615-67.611-.001.001 4.497-14.311 4.497-14.311l-14.312-4.497c-39.569-11.812-52.249-63.746-22.787-92.57-.001 0 7.854-7.888 7.854-7.888l-5.275-9.803c-4.816-8.951-7.362-19.09-7.362-29.32 0-10.153 2.387-19.842 7.096-28.796l5.093-9.686-7.669-7.807c-29.154-28.921-16.354-80.528 23.051-92.292-.001 0 14.311-4.497 14.311-4.497l-4.498-14.312c-10.793-32.679 15.114-68.174 49.616-67.611 16.089-.001 31.021 7.29 40.967 20l9.359 11.96c23.358-20.235 45.483-32.378 77.174-32.461 31.719.091 53.805 12.224 77.173 32.461l9.359-11.96c9.946-12.711 24.878-20.001 40.968-20.001 34.5-.563 60.414 34.937 49.615 67.613.001-.001-4.495 14.31-4.495 14.31l14.31 4.496c39.411 11.768 52.201 63.379 23.049 92.293.001 0-7.667 7.806-7.667 7.806z"/><g><path d="m402.051 235.051c0-80.046-65.122-145.168-145.169-145.168-100.218-1.446-172.805 104.538-135.493 197.382-20.033 35.913 6.97 81.416 48.12 81.067-.001 0 8.18 0 8.18 0v47.55h158.385v-47.55h8.181c41.155.351 68.151-45.166 48.12-81.067 6.425-16.626 9.676-34.151 9.676-52.214zm-38.335 63.062c12.901 15.949 1.047 40.389-19.461 40.219h-38.18v47.55h-98.385v-47.55h-38.181c-20.509.171-32.36-24.276-19.46-40.218 0 0 5.69-7.178 5.69-7.178-41.237-77.08 13.225-170.793 101.144-171.053 87.919.266 142.382 93.972 101.144 171.053z"/><path d="m174.882 229.382h51v30h-51z"/><path d="m285.882 229.382h51v30h-51z"/><path d="m240.882 286.882h30v51h-30z"/></g></g></svg>