<svg id="Capa_1" enable-background="new 0 0 512 512" height="512" viewBox="0 0 512 512" width="512" xmlns="http://www.w3.org/2000/svg"><g><path d="m370.918 85.6c5.983 2.866 12.58 4.38 19.411 4.382h.014c12.015 0 23.313-4.677 31.812-13.171 17.552-17.541 17.561-46.09.021-63.642-17.541-17.551-46.092-17.561-63.645-.02-8.503 8.497-13.187 19.797-13.191 31.817-.002 6.83 1.509 13.428 4.371 19.413l-250.353 250.192c-7.674 7.669-17.873 11.892-28.723 11.892h-.013c-10.853-.003-21.056-4.233-28.728-11.91s-11.895-17.882-11.892-28.735 4.233-21.056 11.91-28.727l74.167-74.119c6.204-6.201 11.656-6.396 22.413-6.224 12.096.189 28.634.452 44.098-15.001 15.464-15.454 15.212-32.003 15.028-44.086-.164-10.761.033-16.208 6.238-22.409 6.205-6.2 11.654-6.393 22.413-6.223 12.083.19 28.632.454 44.096-15l21.221-21.207-21.208-21.221-21.221 21.207c-6.204 6.2-11.652 6.394-22.412 6.223-12.08-.19-28.633-.454-44.097 15s-15.212 32.003-15.028 44.086c.164 10.761-.033 16.208-6.238 22.409-6.204 6.201-11.662 6.392-22.414 6.224-12.087-.19-28.634-.452-44.097 15.001l-74.167 74.119c-13.345 13.338-20.698 31.073-20.704 49.94-.006 18.866 7.336 36.606 20.673 49.951s31.073 20.698 49.941 20.703h.021c18.859 0 36.591-7.342 49.931-20.673zm8.82-51.229c2.924-2.922 6.764-4.383 10.604-4.383 3.843 0 7.686 1.463 10.61 4.389 5.846 5.851 5.844 15.368-.007 21.215-2.833 2.831-6.598 4.39-10.603 4.39h-.005c-4.007-.001-7.773-1.563-10.606-4.397-2.832-2.834-4.392-6.602-4.391-10.608.003-4.008 1.564-7.774 4.398-10.606z"/><path d="m491.36 176.218c-27.531-27.547-72.343-27.563-99.893-.031l-250.367 250.207c-16.723-7.974-37.388-5.049-51.221 8.773-8.503 8.497-13.187 19.797-13.191 31.817-.003 12.02 4.675 23.323 13.172 31.826h.001c8.497 8.501 19.797 13.187 31.817 13.19h.014c12.015 0 23.313-4.677 31.812-13.171 13.833-13.824 16.77-34.487 8.805-51.215l250.367-250.207c15.845-15.837 41.625-15.831 57.464.018 15.838 15.847 15.83 41.624-.018 57.462l-74.166 74.119c-6.204 6.2-11.655 6.394-22.414 6.224-12.081-.189-28.632-.453-44.098 15.001-15.464 15.454-15.212 32.003-15.028 44.086.164 10.761-.033 16.208-6.238 22.409-6.204 6.199-11.647 6.395-22.413 6.223-12.076-.189-28.632-.452-44.096 15l-21.221 21.207 21.208 21.221 21.221-21.207c6.204-6.2 11.644-6.4 22.413-6.223 12.085.194 28.633.453 44.096-15 15.464-15.454 15.212-32.003 15.028-44.086-.164-10.761.033-16.208 6.238-22.409 6.204-6.201 11.645-6.396 22.415-6.224 12.092.193 28.633.453 44.097-15.001l74.166-74.119c27.548-27.531 27.562-72.342.03-99.89zm-359.065 301.39c-2.833 2.831-6.598 4.39-10.603 4.39h-.005c-4.007-.001-7.773-1.563-10.605-4.397h-.001c-2.832-2.834-4.392-6.602-4.391-10.608.002-4.007 1.564-7.773 4.398-10.605 2.924-2.922 6.764-4.383 10.604-4.383 3.843 0 7.686 1.463 10.61 4.389 5.847 5.851 5.844 15.367-.007 21.214z"/></g></svg>