<svg id="Capa_1" enable-background="new 0 0 510 510" height="512" viewBox="0 0 510 510" width="512" xmlns="http://www.w3.org/2000/svg"><g><path d="m420 420v-360c0-33.084-26.916-60-60-60h-300c-33.084 0-60 26.916-60 60v60h90v330c0 33.084 26.916 60 60 60h300c33.084 0 60-26.916 60-60v-30zm-390-330v-30c0-16.542 13.458-30 30-30s30 13.458 30 30v30zm90 360c0-414.137.171-391.396-.309-396.102-.695-7.739-3.363-16.33-7.743-23.898h248.052c16.542 0 30 13.458 30 30v360h-210v30c0 16.542-13.458 30-30 30s-30-13.458-30-30zm330 30h-248.052c5.255-9.071 8.052-19.415 8.052-30h270c0 16.542-13.458 30-30 30z"/><path d="m360 60h-210v90h210zm-30 60h-150v-30h150z"/><path d="m150 180h60v30h-60z"/><path d="m210 240h150v30h-150z"/><path d="m150 300h150v30h-150z"/><path d="m300 360h60v30h-60z"/></g></svg>