<svg id="Capa_1" enable-background="new 0 0 512 512" height="512" viewBox="0 0 512 512" width="512" xmlns="http://www.w3.org/2000/svg"><g><path d="m45 0c-24.813 0-45 20.187-45 45v60c0 24.813 20.187 45 45 45s45-20.187 45-45v-60c0-24.813-20.187-45-45-45zm15 105c0 8.271-6.729 15-15 15s-15-6.729-15-15v-60c0-8.271 6.729-15 15-15s15 6.729 15 15z"/><path d="m157.5 103.153-26.586-103.153-29.104 7.276 36.478 142.724h38.424l36.478-142.724-29.104-7.276z"/><path d="m315 120h-45v-30h30v-30h-30v-30h45v-30h-75v150h75z"/><path d="m375 90h5.729l32.562 65.125 26.833-13.416-28.601-57.201c13.977-7.645 23.477-22.487 23.477-39.508 0-24.813-20.187-45-45-45h-45v150h30zm0-60h15c8.271 0 15 6.729 15 15s-6.729 15-15 15h-15z"/><path d="m45 180h-45v150h45c24.813 0 45-20.187 45-45v-60c0-24.813-20.187-45-45-45zm15 105c0 8.271-6.729 15-15 15h-15v-90h15c8.271 0 15 6.729 15 15z"/><path d="m180 285c0 8.271-6.729 15-15 15s-15-6.729-15-15v-105h-30v105c0 24.813 20.187 45 45 45s45-20.187 45-45v-105h-30z"/><path d="m315 300h-45v-30h30v-30h-30v-30h45v-30h-75v60 30 60h75z"/><path d="m450 60h62v30h-62z"/><circle cx="390" cy="444.5" r="15"/><path d="m430.266 296.893c-7.678-15.354-23.107-24.893-40.266-24.893s-32.588 9.539-40.266 24.893l-74.999 150c-14.85 29.701 6.765 65.107 40.265 65.107h150c33.473 0 55.128-35.375 40.266-65.106zm34.734 185.107h-150c-11.195 0-18.357-11.839-13.433-21.69l74.999-150v.001c2.564-5.127 7.711-8.311 13.434-8.311s10.87 3.184 13.434 8.31l74.999 149.998c4.914 9.835-2.22 21.692-13.433 21.692z"/><path d="m375 347h30v60h-30z"/></g></svg>