<?xml version="1.0" encoding="iso-8859-1"?>
<!-- Generator: Adobe Illustrator 19.0.0, SVG Export Plug-In . SVG Version: 6.00 Build 0)  -->
<svg xmlns="http://www.w3.org/2000/svg" xmlns:xlink="http://www.w3.org/1999/xlink" version="1.1" id="Layer_1" x="0px" y="0px" viewBox="0 0 512.001 512.001" style="enable-background:new 0 0 512.001 512.001;" xml:space="preserve">
<g>
	<g>
		<path d="M495.876,37.106c-11.361-12.222-27.447-19.23-44.135-19.23H60.258c-16.687,0-32.773,7.009-44.135,19.23    C4.762,49.327-1.057,65.882,0.158,82.525l30.06,411.6h451.563l30.06-411.6C513.057,65.882,507.238,49.327,495.876,37.106z     M453.892,464.125H58.108L38,188.797h95.556l32.591,82.203h179.709l32.591-82.203h95.555L453.892,464.125z M481.922,80.34    l-5.73,78.457H358.067L325.476,241H186.524l-32.591-82.203H35.809l-5.73-78.457c-0.619-8.48,2.228-16.579,8.017-22.807    c5.789-6.227,13.659-9.656,22.162-9.656h391.484c8.502,0,16.373,3.43,22.162,9.656C479.694,63.76,482.541,71.86,481.922,80.34z"/>
	</g>
</g>
<g>
	<g>
		<path d="M342.02,89.703c-57.078-26.184-114.961-26.184-172.039,0l-12.935,5.934l39.939,100.737h118.032l39.939-100.737    L342.02,89.703z M294.638,166.373h-21.163v-39.55h-30v39.55h-26.111l-21.764-54.896c40.521-15.365,80.282-15.365,120.804,0    L294.638,166.373z"/>
	</g>
</g>
<g>
</g>
<g>
</g>
<g>
</g>
<g>
</g>
<g>
</g>
<g>
</g>
<g>
</g>
<g>
</g>
<g>
</g>
<g>
</g>
<g>
</g>
<g>
</g>
<g>
</g>
<g>
</g>
<g>
</g>
</svg>
