<svg id="Capa_1" enable-background="new 0 0 510 510" height="512" viewBox="0 0 510 510" width="512" xmlns="http://www.w3.org/2000/svg"><g><path d="m240 210h30v30h-30z"/><path d="m240 75h30v105h-30z"/><path d="m416.079 285h-77.65c34.227-63.14 51.571-113.532 51.571-150 0-74.439-60.56-135-135-135s-135 60.561-135 135c0 36.466 17.344 86.859 51.57 150h-77.649l-69.231 225h460.62zm-94.614 30h54.387l-53.571 75h-48.895c16.61-23.787 33.774-50.681 48.079-75zm16.255 105 61.86-86.605 45.11 146.605h-354.69l80-60zm-82.72-390c57.897 0 105 47.103 105 105 0 64.224-68.619 175.341-105.001 228.784-36.117-53.044-104.999-164.455-104.999-228.784 0-57.897 47.102-105 105-105zm-138.921 285h72.455c14.545 24.725 30.797 50.155 48.08 75h-76.614l-87.098 65.323z"/></g></svg>