<svg id="Capa_1" enable-background="new 0 0 512 512" height="512" viewBox="0 0 512 512" width="512" xmlns="http://www.w3.org/2000/svg"><g><path d="m0 0v512h512v-512zm482 30v91h-196c-8.271 0-15-6.729-15-15v-15h-241v-61zm-452 452v-361h213.57c6.19 17.461 22.873 30 42.43 30h196v331z"/><path d="m226 256c0-24.813-20.187-45-45-45s-45 20.187-45 45 20.187 45 45 45 45-20.187 45-45zm-45 15c-8.271 0-15-6.729-15-15s6.729-15 15-15 15 6.729 15 15-6.729 15-15 15z"/><path d="m181 151c-66.168 0-120 53.832-120 120s53.832 120 120 120 120-53.832 120-120-53.832-120-120-120zm-29.576 205.002c2.388-14.17 14.737-25.002 29.576-25.002s27.188 10.832 29.576 25.002c-9.268 3.234-19.219 4.998-29.576 4.998s-20.308-1.764-29.576-4.998zm86.123-15.041c-8.267-23.258-30.488-39.961-56.547-39.961s-48.28 16.703-56.547 39.961c-20.391-16.513-33.453-41.738-33.453-69.961 0-49.626 40.374-90 90-90s90 40.374 90 90c0 28.223-13.062 53.448-33.453 69.961z"/><path d="m331 211h120v30h-120z"/><path d="m331 271h120v30h-120z"/><path d="m331 331h120v30h-120z"/><path d="m61 421h240v30h-240z"/><path d="m421 61h30v30h-30z"/><path d="m301 61h30v30h-30z"/><path d="m361 61h30v30h-30z"/></g></svg>