<?xml version="1.0" encoding="iso-8859-1"?>
<!-- Generator: Adobe Illustrator 19.0.0, SVG Export Plug-In . SVG Version: 6.00 Build 0)  -->
<svg xmlns="http://www.w3.org/2000/svg" xmlns:xlink="http://www.w3.org/1999/xlink" version="1.1" id="Layer_1" x="0px" y="0px" viewBox="0 0 512 512" style="enable-background:new 0 0 512 512;" xml:space="preserve">
<g>
	<g>
		<path d="M495.764,301.386l-69.594-69.474h-61.045V124.509l-65.836-25.342c0.245-1.949,0.386-3.929,0.386-5.943    c0-26.195-21.344-47.507-47.58-47.507c-26.236,0-47.58,21.311-47.58,47.507c0,26.195,21.344,47.507,47.58,47.507    c13.373,0,25.468-5.546,34.12-14.445l48.865,18.809v86.817H230.57v-19.195h46.071v-30h-121.69v30h45.57v19.195h-53.367    l-48.542-48.462c-19.642-19.608-51.601-19.609-71.241,0.003L0,210.78l110.245,110.077h40.529v52.943h92.152v62.483h-37.898v30    h104.28v-30h-36.336v-62.483h92.152v-52.943h24.166l82.677,82.55l23.8-23.764C506.236,369.191,512,355.296,512,340.514    C511.999,325.731,506.233,311.835,495.764,301.386z M252.094,110.73c-9.669-0.001-17.534-7.854-17.534-17.507    c0-9.653,7.866-17.507,17.534-17.507c9.669,0,17.534,7.854,17.534,17.507C269.628,102.876,261.762,110.73,252.094,110.73z     M335.078,343.801H180.82v-22.943h154.258V343.801z M474.522,358.431l-2.555,2.551l-70.231-70.124H122.69L42.492,210.78    l6.125-6.115c7.926-7.915,20.824-7.914,28.751-0.001l57.341,57.247h279.016L474.52,322.6c4.793,4.785,7.433,11.147,7.434,17.915    C481.954,347.283,479.315,353.645,474.522,358.431z"/>
	</g>
</g>
<g>
</g>
<g>
</g>
<g>
</g>
<g>
</g>
<g>
</g>
<g>
</g>
<g>
</g>
<g>
</g>
<g>
</g>
<g>
</g>
<g>
</g>
<g>
</g>
<g>
</g>
<g>
</g>
<g>
</g>
</svg>
