<svg id="Layer_1" enable-background="new 0 0 509.929 509.929" height="512" viewBox="0 0 509.929 509.929" width="512" xmlns="http://www.w3.org/2000/svg"><g><path d="m321.179 268.915-65.25-83.27-65.25 83.27 65.25 61.518zm-65.25-34.631 24.75 31.584-24.75 23.334-24.75-23.334z"/><path d="m135.929 314.965h30v30h-30z" transform="matrix(.707 -.707 .707 .707 -189.114 203.367)"/><path d="m345.929 314.965h30v30h-30z" transform="matrix(.707 -.707 .707 .707 -127.607 351.86)"/><path d="m509.929 164.965c0-24.814-20.187-45-45-45-39.342-.116-59.638 47.802-32.681 75.887l-52.977 38.208-92.562-127.266c28.23-28.187 8.282-76.829-31.78-76.829-24.813 0-45 20.186-45 45 0 13.002 5.549 24.728 14.396 32.95l-91.818 126.253-54.597-38.631c26.545-28.201 6.146-75.696-32.981-75.572-41.451-.014-60.585 51.983-29.642 78.814l29.643 207.25v73.936h420v-73.925l29.938-207.516c9.233-8.247 15.061-20.233 15.061-33.559zm-45-15c8.271 0 15 6.729 15 15-.753 19.872-29.25 19.867-30 0 0-8.272 6.729-15 15-15zm-210-90c8.271 0 15 6.729 15 15-.753 19.872-29.25 19.867-30 0 0-8.272 6.729-15 15-15zm-115.577 215.796 113.345-155.854c2.088.103 4.043.07 6.352-.14l113.537 156.103 90.194-65.051-25.843 179.145h-364.001l-25.651-179.345zm100.577 144.204v30h-75v-30zm30 0h75v30h-75zm-225-270c8.271 0 15 6.729 15 15-.753 19.872-29.25 19.867-30 0 0-8.272 6.729-15 15-15zm30 270h60v30h-60zm360 30h-60v-30h60z"/></g></svg>