<svg id="Capa_1" enable-background="new 0 0 512 512" height="512" viewBox="0 0 512 512" width="512" xmlns="http://www.w3.org/2000/svg"><g><path d="m339.948 0h-167.897l-27.288 435.227-.029 76.773h222.532v-75.835zm-28.178 30 3.762 59.999h-119.065l3.762-59.999zm-137.036 421.332h162.532v30.668h-162.532zm.959-30 6.835-109.015c20.248 22.016 49.235 35.606 80.703 35.606 30.278 0 57.848 17.216 71.241 44.151l1.834 29.258zm87.538-103.409c-36.623 0-68.64-25.309-77.255-60.591l8.611-137.333h122.827l13.899 221.678c-19.002-15.066-42.856-23.754-68.082-23.754z"/><path d="m242.667 160h30v106.666h-30z"/></g></svg>