<?xml version="1.0" encoding="iso-8859-1"?>
<!-- Generator: Adobe Illustrator 19.0.0, SVG Export Plug-In . SVG Version: 6.00 Build 0)  -->
<svg version="1.1" id="Layer_1" xmlns="http://www.w3.org/2000/svg" xmlns:xlink="http://www.w3.org/1999/xlink" x="0px" y="0px"
	 viewBox="0 0 512 512" style="enable-background:new 0 0 512 512;" xml:space="preserve">
<g>
	<g>
		<path d="M445.849,115.341h-91.387v168.791h-247.56v123.78h47.37c7.367,25.945,31.257,45.011,59.531,45.011
			c28.275,0,52.163-19.065,59.532-45.011h72.235c7.367,25.945,31.257,45.011,59.532,45.011s52.163-19.065,59.531-45.011H512V317.89
			v-33.758v-102.64L445.849,115.341z M213.802,419.165c-15.512,0-28.132-12.62-28.132-28.132c0-15.512,12.62-28.132,28.132-28.132
			c15.512,0,28.132,12.62,28.132,28.132C241.934,406.545,229.314,419.165,213.802,419.165z M405.099,419.165
			c-15.512,0-28.132-12.62-28.132-28.132c0-15.512,12.62-28.132,28.132-28.132c15.512,0,28.132,12.62,28.132,28.132
			C433.231,406.545,420.611,419.165,405.099,419.165z M478.242,374.154H464.63c-7.367-25.945-31.257-45.011-59.531-45.011
			c-28.275,0-52.163,19.065-59.532,45.011h-72.235c-7.367-25.945-31.257-45.011-59.532-45.011
			c-28.275,0-52.163,19.065-59.531,45.011h-13.61V317.89h213.802h123.78V374.154z M478.242,284.132H388.22V149.099h43.646
			l46.376,46.376V284.132z"/>
	</g>
</g>
<g>
	<g>
		<path d="M106.901,59.077v191.297h213.802V59.077H106.901z M196.923,216.615h-56.264V92.835h56.264V216.615z M286.945,216.615
			h-56.264V92.835h56.264V216.615z"/>
	</g>
</g>
<g>
	<g>
		<rect y="59.077" width="78.769" height="33.758"/>
	</g>
</g>
<g>
	<g>
		<rect x="22.505" y="137.846" width="56.264" height="33.758"/>
	</g>
</g>
<g>
	<g>
		<rect x="45.011" y="216.615" width="33.758" height="33.758"/>
	</g>
</g>
<g>
</g>
<g>
</g>
<g>
</g>
<g>
</g>
<g>
</g>
<g>
</g>
<g>
</g>
<g>
</g>
<g>
</g>
<g>
</g>
<g>
</g>
<g>
</g>
<g>
</g>
<g>
</g>
<g>
</g>
</svg>
