<svg id="Capa_1" enable-background="new 0 0 512 512" height="512" viewBox="0 0 512 512" width="512" xmlns="http://www.w3.org/2000/svg"><g><path d="m478.109 299.686 19-144h-40.851l27.377-137.84-88.276-17.532-20.844 104.95 58.851 11.689-7.693 38.734h-88.782l19 144h-206.891v-117h55v30h30v-30h39v-34.114c0-30.815-25.07-55.886-55.886-55.886h-158.114v207h-59v42.889c0 60.164 48.947 109.111 109.111 109.111h81.389v60h131v-60h81.389c60.164 0 109.111-48.947 109.111-109.111v-42.889h-33.891zm-68.325-218.004 9.156-46.099 29.425 5.844-9.156 46.1zm53.107 104.004-15.042 114h-61.698l-15.042-114zm-373.891-63h128.114c14.273 0 25.886 11.612 25.886 25.886v4.114h-124v147h-30zm202.5 359h-71v-30h71zm190.5-139.111c0 43.622-35.489 79.111-79.111 79.111h-293.778c-43.622 0-79.111-35.489-79.111-79.111v-12.889h452z"/></g></svg>