<svg id="Capa_1" enable-background="new 0 0 512 512" height="512" viewBox="0 0 512 512" width="512" xmlns="http://www.w3.org/2000/svg"><g><path d="m478.94 414.852c11.133-10.899 18.06-26.079 18.06-42.852 0-27.906-19.151-51.424-45-58.101v-66.015h-181v-30.824h120v-90h-29.941v-22.06c0-36.24-25.838-66.555-60.059-73.501v-31.499h-90v31.499c-34.221 6.946-60.059 37.261-60.059 73.501v22.06h-29.941v90h120v30.824h-181v66.015c-25.849 6.677-45 30.195-45 58.101 0 16.773 6.927 31.953 18.06 42.852-19.933 13.494-33.06 36.317-33.06 62.148v35h150v-35c0-25.831-13.127-48.654-33.06-62.148 11.133-10.899 18.06-26.079 18.06-42.852 0-27.906-19.151-51.424-45-58.101v-36.015h151v36.015c-25.849 6.678-45 30.195-45 58.101 0 16.773 6.927 31.953 18.06 42.852-19.933 13.494-33.06 36.317-33.06 62.148v35h150v-35c0-25.831-13.127-48.654-33.06-62.148 11.133-10.899 18.06-26.079 18.06-42.852 0-27.906-19.151-51.424-45-58.101v-36.015h151v36.015c-25.849 6.678-45 30.195-45 58.101 0 16.773 6.927 31.953 18.06 42.852-19.933 13.494-33.06 36.317-33.06 62.148v35h150v-35c0-25.831-13.127-48.654-33.06-62.148zm-147.881-309.852v22.06h-30.059v-64.5c17.489 6.176 30.059 22.864 30.059 42.44zm-60.059-75v97.06h-30v-97.06zm-90.059 75c0-19.576 12.569-36.264 30.059-42.44v64.5h-30.059zm-29.941 52.06h210v30h-210zm-31 319.94v5h-90v-5c0-24.813 20.187-45 45-45s45 20.187 45 45zm-15-105c0 16.542-13.458 30-30 30s-30-13.458-30-30 13.458-30 30-30 30 13.458 30 30zm196 105v5h-90v-5c0-24.813 20.187-45 45-45s45 20.187 45 45zm-15-105c0 16.542-13.458 30-30 30s-30-13.458-30-30 13.458-30 30-30 30 13.458 30 30zm121 0c0-16.542 13.458-30 30-30s30 13.458 30 30-13.458 30-30 30-30-13.458-30-30zm75 110h-90v-5c0-24.813 20.187-45 45-45s45 20.187 45 45z"/></g></svg>