<svg id="Capa_1" enable-background="new 0 0 512 512" height="512" viewBox="0 0 512 512" width="512" xmlns="http://www.w3.org/2000/svg"><g><g><path d="m422 0v30h38.733l-49.571 49.468c-51.434 51.327-111.559 91.434-178.704 119.206-67.146 27.772-138.035 41.854-210.698 41.854h-21.76v30h21.76c76.617 0 151.364-14.848 222.164-44.131s134.197-71.572 188.43-125.692l49.646-49.545v38.84h30v-90z"/></g><g><path d="m482 115.421-25.418 24.537c-30.167 29.122-63.242 55.209-98.306 77.536l-6.943 4.421v260.085h-30v-242.21l-21.646 10.699c-12.675 6.265-25.649 12.149-38.564 17.491-19.494 8.063-39.603 15.22-59.768 21.273l-10.688 3.208v189.539h-30v-181.741l-17.897 3.524c-32.217 6.343-65.291 10.157-98.305 11.337l-14.465.517v166.363h-30v30h512v-30h-30zm-100.667 122.895c24.637-16.137 48.289-34.043 70.667-53.49v297.174h-70.667zm-160.666 76.362c17.529-5.59 34.947-11.956 51.922-18.976 6.247-2.584 12.508-5.289 18.744-8.099v194.397h-70.666zm-160.667 29.745c23.689-1.372 47.349-4.032 70.667-7.943v145.52h-70.667z"/></g><g><path d="m120 30h158.5v30h-158.5z"/></g><g><path d="m30 30h60v30h-60z"/></g><g><path d="m30 90h158.5v30h-158.5z"/></g><g><path d="m218.5 90h60v30h-60z"/></g><g><path d="m30 150h120v30h-120z"/></g></g></svg>