<?xml version="1.0" encoding="iso-8859-1"?>
<!-- Generator: Adobe Illustrator 19.0.0, SVG Export Plug-In . SVG Version: 6.00 Build 0)  -->
<svg xmlns="http://www.w3.org/2000/svg" xmlns:xlink="http://www.w3.org/1999/xlink" version="1.1" id="Capa_1" x="0px" y="0px" viewBox="0 0 512 512" style="enable-background:new 0 0 512 512;" xml:space="preserve">
<g>
	<g>
		<path d="M401.347,134.351l-15.34-42.499V0H125.993v91.852l-15.34,42.499c-11.726,32.487-17.671,66.473-17.671,101.011v216.822    c0,32.982,26.833,59.816,59.816,59.816h206.404c32.982,0,59.816-26.834,59.816-59.816V235.361    C419.018,200.823,413.073,166.838,401.347,134.351z M155.993,30h200.014v9.738H155.993V30z M155.993,69.739h200.014v9.737H155.993    V69.739z M389.018,452.184c0,16.44-13.375,29.816-29.816,29.816H152.798c-16.44,0-29.816-13.376-29.816-29.816V235.361    c0-31.056,5.346-61.614,15.889-90.825l12.655-35.061h208.948l12.655,35.061c10.543,29.211,15.889,59.77,15.889,90.825V452.184z"/>
	</g>
</g>
<g>
	<g>
		<path d="M277.132,296.136c-1.274,0.986-2.867,1.578-4.602,1.578c-4.16,0-7.532-3.372-7.532-7.532c0-3.005,1.764-5.592,4.31-6.8    c-3.664-2.884-8.284-4.609-13.308-4.609c-11.897,0-21.541,9.644-21.541,21.541c0,11.897,9.644,21.541,21.541,21.541    c11.897,0,21.541-9.644,21.541-21.541C277.541,298.884,277.398,297.488,277.132,296.136z"/>
	</g>
</g>
<g>
	<g>
		<path d="M362.602,290.347c-1.926-2.166-47.859-53.065-106.602-53.065c-58.743,0-104.676,50.898-106.602,53.065l-8.863,9.967    l8.863,9.968c1.927,2.166,47.859,53.063,106.602,53.063s104.675-50.897,106.602-53.063l8.863-9.968L362.602,290.347z     M193.646,309.511c-4.398-3.236-8.252-6.401-11.446-9.196c3.195-2.796,7.049-5.961,11.446-9.197    c-0.441,3.003-0.678,6.072-0.678,9.196C192.968,303.438,193.205,306.507,193.646,309.511z M256,333.345    c-18.214,0-33.032-14.817-33.032-33.031c0-18.214,14.818-33.032,33.032-33.032s33.032,14.819,33.032,33.032    C289.032,318.528,274.214,333.345,256,333.345z M318.351,309.535c0.443-3.011,0.681-6.088,0.681-9.22    c0-3.124-0.237-6.192-0.678-9.196c4.407,3.243,8.268,6.414,11.467,9.215C326.637,303.122,322.775,306.285,318.351,309.535z"/>
	</g>
</g>
<g>
	<g>
		<rect x="241" y="167.62" width="30" height="55.32"/>
	</g>
</g>
<g>
	<g>
		<rect x="196.613" y="181.382" transform="matrix(0.977 -0.2132 0.2132 0.977 -36.374 49.564)" width="30" height="24.09"/>
	</g>
</g>
<g>
	<g>
		<rect x="288.338" y="178.442" transform="matrix(0.2132 -0.977 0.977 0.2132 47.3466 445.6757)" width="24.09" height="30"/>
	</g>
</g>
<g>
	<g>
		<rect x="199.588" y="392.198" transform="matrix(0.2132 -0.977 0.977 0.2132 -231.323 527.1495)" width="24.09" height="30"/>
	</g>
</g>
<g>
	<g>
		<rect x="285.374" y="395.144" transform="matrix(0.977 -0.2132 0.2132 0.977 -79.9072 73.4023)" width="30" height="24.09"/>
	</g>
</g>
<g>
	<g>
		
			<rect x="157.334" y="181.356" transform="matrix(0.9122 -0.4097 0.4097 0.9122 -70.9069 89.0401)" width="29.999" height="57.269"/>
	</g>
</g>
<g>
	<g>
		<rect x="311.047" y="195.007" transform="matrix(0.4097 -0.9122 0.9122 0.4097 8.9399 433.828)" width="57.269" height="29.999"/>
	</g>
</g>
<g>
	<g>
		<rect x="241" y="377.69" width="30" height="55.32"/>
	</g>
</g>
<g>
	<g>
		
			<rect x="143.699" y="375.604" transform="matrix(0.4097 -0.9122 0.9122 0.4097 -254.5884 387.7755)" width="57.269" height="29.999"/>
	</g>
</g>
<g>
	<g>
		
			<rect x="324.667" y="362.015" transform="matrix(0.9122 -0.4097 0.4097 0.9122 -130.2348 173.4557)" width="29.999" height="57.269"/>
	</g>
</g>
<g>
</g>
<g>
</g>
<g>
</g>
<g>
</g>
<g>
</g>
<g>
</g>
<g>
</g>
<g>
</g>
<g>
</g>
<g>
</g>
<g>
</g>
<g>
</g>
<g>
</g>
<g>
</g>
<g>
</g>
</svg>
