<svg id="Capa_1" enable-background="new 0 0 512 512" height="512" viewBox="0 0 512 512" width="512" xmlns="http://www.w3.org/2000/svg"><g><path d="m188.25 0c-29.086 0-52.75 23.664-52.75 52.75v98.25c0 8.271-6.729 15-15 15s-15-6.729-15-15v-98.25c0-29.086-23.664-52.75-52.75-52.75s-52.75 23.664-52.75 52.75v80.499c0 24.64 8.722 48.606 24.557 67.482l21.197 25.269-21.197 25.268c-15.835 18.877-24.557 42.843-24.557 67.483v140.499c0 29.086 23.664 52.75 52.75 52.75s52.75-23.664 52.75-52.75v-158.25c0-8.271 6.729-15 15-15s15 6.729 15 15v158.25c0 29.086 23.664 52.75 52.75 52.75s52.75-23.664 52.75-52.75v-140.499c0-24.64-8.722-48.606-24.557-67.482l-21.197-25.269 21.197-25.268c15.835-18.877 24.557-42.843 24.557-67.483v-80.499c0-29.086-23.664-52.75-52.75-52.75zm22.75 133.249c0 17.6-6.229 34.719-17.541 48.202l-37.371 44.549 37.371 44.549c11.312 13.483 17.541 30.602 17.541 48.202v140.499c0 12.544-10.206 22.75-22.75 22.75s-22.75-10.206-22.75-22.75v-158.25c0-24.813-20.187-45-45-45s-45 20.187-45 45v158.25c0 12.544-10.206 22.75-22.75 22.75s-22.75-10.206-22.75-22.75v-140.499c0-17.6 6.229-34.719 17.541-48.202l37.371-44.549-37.371-44.549c-11.312-13.483-17.541-30.602-17.541-48.202v-80.499c0-12.544 10.206-22.75 22.75-22.75s22.75 10.206 22.75 22.75v98.25c0 24.813 20.187 45 45 45s45-20.187 45-45v-98.25c0-12.544 10.206-22.75 22.75-22.75s22.75 10.206 22.75 22.75z"/><path d="m459.25 0c-29.086 0-52.75 23.664-52.75 52.75v143.25c0 8.271-6.729 15-15 15s-15-6.729-15-15v-143.25c0-29.086-23.664-52.75-52.75-52.75s-52.75 23.664-52.75 52.75v125.499c0 24.64 8.722 48.606 24.557 67.483l43.193 51.488v162.03c0 29.086 23.664 52.75 52.75 52.75s52.75-23.664 52.75-52.75v-162.03l43.193-51.488c15.835-18.878 24.557-42.843 24.557-67.483v-125.499c0-29.086-23.664-52.75-52.75-52.75zm22.75 178.249c0 17.6-6.229 34.719-17.541 48.202l-50.209 59.853v172.946c0 12.544-10.206 22.75-22.75 22.75s-22.75-10.206-22.75-22.75v-172.947l-50.209-59.853c-11.312-13.483-17.541-30.601-17.541-48.201v-125.499c0-12.544 10.206-22.75 22.75-22.75s22.75 10.206 22.75 22.75v143.25c0 24.813 20.187 45 45 45s45-20.187 45-45v-143.25c0-12.544 10.206-22.75 22.75-22.75s22.75 10.206 22.75 22.75z"/></g></svg>