<svg id="Capa_1" enable-background="new 0 0 512 512" height="512" viewBox="0 0 512 512" width="512" xmlns="http://www.w3.org/2000/svg"><g><path d="m512 414.952h-102.321c-2.26-7.175-7.04-17.103-16.968-31.247-8.445-12.031-28.311-34.874-28.311-34.874h62.409v-111.152c0-29.859-24.292-54.15-54.15-54.15h-225.066v-55.447h153.443v-41.569l-48.432-48.431h-252.604v406.87h320.604c7.196 17.005 24.05 28.966 43.646 28.966s36.45-11.962 43.646-28.966h104.104zm-115.19-96.121h-65.12v-30h65.119v30zm-366.81-250.749h210.178l30 30h-240.178zm0 60h87.593v55.109h-87.593zm87.593 130.749v156.121h-87.593v-201.761l342.659.338c13.316 0 24.15 10.834 24.15 24.15v21.152zm201.229 156.121h-171.229v-126.121h154.097v60h62.41s-19.865 22.843-28.311 34.874c-9.927 14.144-14.707 24.072-16.967 31.247zm45.428 28.966c-9.576 0-17.366-7.791-17.366-17.367.025-4.741 7.461-17.695 17.366-31.077 9.906 13.382 17.341 26.336 17.367 31.076 0 9.577-7.791 17.368-17.367 17.368z"/></g></svg>