<svg id="Capa_1" enable-background="new 0 0 512 512" height="512" viewBox="0 0 512 512" width="512" xmlns="http://www.w3.org/2000/svg"><g><path d="m512 406v-390h-512v390h181v60h-60v30h270v-30h-60v-60zm-482-360h452v330h-452zm271 420h-90v-60h90z"/><path d="m228.542 169.67 22.31-22.31-21.213-21.213-22.31 22.31c-7.869-5.218-16.768-9-26.33-10.948v-31.509h-30v31.509c-9.562 1.948-18.46 5.731-26.33 10.948l-22.31-22.31-21.212 21.213 22.31 22.31c-5.218 7.869-9 16.768-10.948 26.33h-31.509v30h31.509c1.948 9.562 5.731 18.46 10.948 26.33l-22.31 22.31 21.213 21.213 22.31-22.31c7.869 5.218 16.768 9 26.33 10.948v31.509h30v-31.509c9.562-1.948 18.46-5.731 26.33-10.948l22.31 22.31 21.213-21.213-22.31-22.31c5.218-7.869 9-16.768 10.948-26.33h31.509v-30h-31.509c-1.949-9.562-5.731-18.46-10.949-26.33zm-62.542 86.33c-24.813 0-45-20.187-45-45s20.187-45 45-45 45 20.187 45 45-20.187 45-45 45z"/><path d="m151 196h30v30h-30z" transform="matrix(.707 -.707 .707 .707 -100.579 179.177)"/><path d="m301 106h150v30h-150z"/><path d="m361 166h90v30h-90z"/><path d="m301 166h30v30h-30z"/><path d="m361 226h90v30h-90z"/><path d="m301 226h30v30h-30z"/><path d="m361 286h90v30h-90z"/><path d="m301 286h30v30h-30z"/></g></svg>