<svg id="Capa_1" enable-background="new 0 0 512 512" height="512" viewBox="0 0 512 512" width="512" xmlns="http://www.w3.org/2000/svg"><g><path d="m428.5 422v-30h-30v-212h-45v-30h30v-30h-30v-120h-30v120h-30v30h30v30h-45v212h-30v30h45v60h-30v30h150v-30h-30v-60zm-60-212v30h-60v-30zm-60 60h60v122h-60zm45 212h-30v-60h30z"/><path d="m198.166 259.276 6.463-21.833c4.38-14.795 5.5-30.682 3.238-45.943l-7.633-51.523c-3.588-24.216-24.754-42.477-49.234-42.477s-45.646 18.261-49.234 42.478l-7.633 51.522c-2.262 15.262-1.142 31.149 3.238 45.944l6.463 21.833c-12.534 12.261-20.334 29.345-20.334 48.223v204.5h135v-204.5c0-18.878-7.8-35.962-20.334-48.224zm-47.166 10.724c20.678 0 37.5 16.822 37.5 37.5v24.5h-75v-24.5c0-20.678 16.822-37.5 37.5-37.5zm-24.863-41.072c-3.148-10.637-3.954-22.059-2.328-33.031l7.633-51.522c1.426-9.621 9.834-16.875 19.559-16.875s18.133 7.254 19.559 16.875l7.633 51.523c1.626 10.972.82 22.394-2.328 33.03l-4.235 14.307c-6.508-2.093-13.437-3.235-20.63-3.235s-14.122 1.142-20.628 3.236zm-12.637 253.072v-120h75v120z"/></g></svg>