<svg id="Capa_1" enable-background="new 0 0 510 510" height="512" viewBox="0 0 510 510" width="512" xmlns="http://www.w3.org/2000/svg"><g><path d="m75 285h30v45h-30z"/><path d="m75 210h30v45h-30z"/><path d="m75 135h30v45h-30z"/><path d="m75 60h30v45h-30z"/><path d="m195 457.5c0 12.407-10.094 22.5-22.5 22.5h-45c-12.406 0-22.5-10.093-22.5-22.5v-67.5h75v-300c0-49.626-40.374-90-90-90s-90 40.374-90 90v300h75v67.5c0 28.949 23.552 52.5 52.5 52.5h45c28.948 0 52.5-23.551 52.5-52.5 0-12.407 10.094-22.5 22.5-22.5h37.5v-30h-37.5c-28.948 0-52.5 23.551-52.5 52.5zm-165-367.5c0-33.084 26.916-60 60-60s60 26.916 60 60v270h-120z"/><path d="m435 120v-67.5c0-28.949-23.552-52.5-52.5-52.5h-45c-28.948 0-52.5 23.551-52.5 52.5 0 12.407-10.094 22.5-22.5 22.5h-37.5v30h37.5c28.948 0 52.5-23.551 52.5-52.5 0-12.407 10.094-22.5 22.5-22.5h45c12.406 0 22.5 10.093 22.5 22.5v67.5h-75v300c0 49.626 40.374 90 90 90s90-40.374 90-90v-300zm45 300c0 33.084-26.916 60-60 60s-60-26.916-60-60v-270h120z"/><path d="m405 180h30v45h-30z"/><path d="m405 255h30v45h-30z"/><path d="m405 330h30v45h-30z"/><path d="m405 405h30v45h-30z"/></g></svg>