<svg id="Capa_1" enable-background="new 0 0 512.005 512.005" height="512" viewBox="0 0 512.005 512.005" width="512" xmlns="http://www.w3.org/2000/svg"><g><path d="m135.503 30h30v30h-30z"/><path d="m75.503 0h30v30h-30z"/><path d="m75.503 60h30v30h-30z"/><path d="m15.503 30h30v30h-30z"/><path d="m15.503 90h30v30h-30z"/><path d="m460.276 326.685-114.773-22.829v-142.397l-35.73-71.459h-24.271v-60h-90v60h-24.271l-35.729 71.459v350.541h210v-24.618l123.792 24.624 26.338-132.406c4.842-24.337-11.02-48.074-35.356-52.915zm-294.773-86.685h150v166.646l-16.748 4.818c-18.857 5.424-39.03.02-52.649-14.107-21.065-21.849-51.81-30.229-80.603-22.647zm150-60v30h-150v-30zm-90-120h30v30h-30zm65.729 60 15 30h-131.459l15-30zm-125.729 362v-75.675l1.453-.577c20.013-7.953 42.604-3.073 57.552 12.432 15.867 16.458 37.407 25.364 59.561 25.364 7.656 0 15.388-1.064 22.98-3.249l8.454-2.432v44.137zm300.706-108.253-20.484 102.982-100.222-19.935v-122.351l108.92 21.665c8.112 1.614 13.399 9.526 11.786 17.639z"/><path d="m195.503 270h90v30h-90z"/><path d="m255.503 330h30v30h-30z"/></g></svg>