<svg id="Capa_1" enable-background="new 0 0 510 510" height="512" viewBox="0 0 510 510" width="512" xmlns="http://www.w3.org/2000/svg"><g><path d="m135 240h30v-30h30v-30h-30v-30h-30v30h-30v30h30z"/><path d="m461.16 120h-86.16v-15c0-24.813-20.186-45-45-45-19.555 0-36.228 12.541-42.42 30h-287.58v300h60c0 33.084 26.916 60 60 60s60-26.916 60-60h105 30 15c0 33.084 26.916 60 60 60s60-26.916 60-60h60v-107.202zm-4.32 90h-81.84v-60h63.84zm-126.84-120c8.272 0 15 6.729 15 15v15h-30v-15c0-8.271 6.728-15 15-15zm-45 30v15 135h-255v-150zm-165 300c-16.542 0-30-13.458-30-30s13.458-30 30-30 30 13.458 30 30-13.458 30-30 30zm51.928-60c-10.391-17.915-29.769-30-51.928-30s-41.537 12.085-51.928 30h-38.072v-60h255v60zm218.072 60c-16.542 0-30-13.458-30-30s13.458-30 30-30 30 13.458 30 30-13.458 30-30 30zm90-60h-38.072c-10.391-17.915-29.768-30-51.928-30s-41.537 12.085-51.928 30h-23.072v-210h30v90h120v-2.799l15 50z"/></g></svg>