<svg id="Layer_1" enable-background="new 0 0 510 510" height="512" viewBox="0 0 510 510" width="512" xmlns="http://www.w3.org/2000/svg"><g><path d="m360 151.257v-31.257h30v-120h-270v120h30v31.257c-42.511 7.163-75 44.227-75 88.743v270h360v-270c0-44.516-32.489-81.58-75-88.743zm-210-121.257h30v30h30v-30h30v30h30v-30h30v30h30v-30h30v60h-210zm180 90v30h-150v-30zm75 360h-300v-240c0-33.084 26.916-60 60-60h180c33.084 0 60 26.916 60 60z"/><path d="m255 225c-57.898 0-105 47.103-105 105s47.102 105 105 105 105-47.103 105-105-47.103-105-105-105zm0 180c-41.355 0-75-33.645-75-75s33.645-75 75-75 75 33.645 75 75-33.645 75-75 75z"/><path d="m270 285h-30v30h-30v30h30v30h30v-30h30v-30h-30z"/></g></svg>