<svg id="Capa_1" enable-background="new 0 0 510 510" height="512" viewBox="0 0 510 510" width="512" xmlns="http://www.w3.org/2000/svg"><g><path d="m480 322.5v-240h-450v240h-30v30c0 41.355 33.645 75 75 75h360c41.355 0 75-33.645 75-75v-30zm-72.421 0c6.192-17.458 22.865-30 42.42-30h.001v30zm-20.159-210c-6.192 17.458-22.865 30-42.42 30s-36.228-12.542-42.42-30zm-284.999 0c-6.192 17.458-22.865 30-42.42 30h-.001v-30zm-42.421 60c36.221 0 66.523-25.808 73.492-60h138.018c6.968 34.192 37.271 60 73.49 60s66.522-25.808 73.49-60h31.51v150h-.001c-36.22 0-66.522 25.808-73.491 60h-138.018c-6.968-34.192-37.271-60-73.49-60s-66.522 25.808-73.49 60h-31.51zm147.42 150h-84.84c6.192-17.458 22.865-30 42.42-30s36.227 12.542 42.42 30zm227.58 75h-360c-24.813 0-45-20.187-45-45h450c0 24.813-20.186 45-45 45z"/><path d="m195 232.5c24.814 0 45-20.187 45-45s-20.186-45-45-45-45 20.187-45 45 20.186 45 45 45zm0-60c8.271 0 15 6.729 15 15s-6.729 15-15 15-15-6.729-15-15 6.729-15 15-15z"/><path d="m315 292.5c24.814 0 45-20.187 45-45s-20.186-45-45-45-45 20.187-45 45 20.186 45 45 45zm0-60c8.272 0 15 6.729 15 15s-6.728 15-15 15-15-6.729-15-15 6.728-15 15-15z"/><path d="m390 202.5h30v30h-30z"/><path d="m90 202.5h30v30h-30z"/></g></svg>