<?xml version="1.0" encoding="iso-8859-1"?>
<!-- Generator: Adobe Illustrator 19.0.0, SVG Export Plug-In . SVG Version: 6.00 Build 0)  -->
<svg version="1.1" id="Capa_1" xmlns="http://www.w3.org/2000/svg" xmlns:xlink="http://www.w3.org/1999/xlink" x="0px" y="0px"
	 viewBox="0 0 512 512" style="enable-background:new 0 0 512 512;" xml:space="preserve">
<g>
	<g>
		<path d="M507.606,216.525L295.475,4.394c-5.856-5.857-15.354-5.858-21.213,0l-21.215,21.214
			c-14.272,14.273-16.931,35.828-7.982,52.818C117.723,248.216,124.149,239.571,123.47,240.719
			c-0.028,0.047-0.062,0.088-0.089,0.135l-56.748,98.447L46.82,359.114c-13.901,13.9-16.776,34.568-8.801,51.228L4.394,443.967
			C1.58,446.78,0,450.596,0,454.574c0,3.979,1.58,7.793,4.394,10.606l42.427,42.426C49.633,510.42,53.448,512,57.427,512
			s7.794-1.581,10.606-4.394l33.644-33.644c16.805,8.005,37.431,4.997,51.209-8.782l19.812-19.812
			c103.655-59.75,98.926-56.976,99.926-57.722c0.01-0.008,0.021-0.014,0.031-0.021l160.92-120.69
			c17.017,8.965,38.566,6.271,52.819-7.983l21.213-21.213C513.465,231.88,513.465,222.383,507.606,216.525z M57.427,475.787
			l-21.214-21.213l21.214-21.213l21.213,21.213L57.427,475.787z M131.673,443.967c-5.848,5.849-15.362,5.85-21.214,0L68.033,401.54
			c-5.863-5.863-5.863-15.349,0-21.213l10.606-10.606l63.64,63.639L131.673,443.967z M165.966,414.621l-68.587-68.587l42.223-73.25
			l99.613,99.614L165.966,414.621z M265.062,355.819c-7.558-7.558-104.15-104.151-108.88-108.881l109.095-145.462l72.624,72.623
			l72.624,72.623L265.062,355.819z M465.181,237.739c-5.849,5.848-15.363,5.85-21.214,0L274.262,68.034
			c-5.849-5.849-5.849-15.365-0.001-21.213l10.607-10.607l190.919,190.919L465.181,237.739z"/>
	</g>
</g>
<g>
	<g>
		<path d="M284.868,248.345l21.213-21.213c5.858-5.858,5.858-15.355,0-21.213c-5.857-5.858-15.355-5.858-21.213,0l-21.213,21.213
			l-21.213-21.213c-5.857-5.858-15.355-5.858-21.213,0c-5.858,5.858-5.858,15.355,0,21.213l21.213,21.213l-21.213,21.213
			c-5.858,5.858-5.858,15.355,0,21.213c5.857,5.858,15.356,5.858,21.213,0l21.213-21.213l21.213,21.213
			c5.857,5.858,15.356,5.858,21.213,0c5.858-5.858,5.858-15.355,0-21.213L284.868,248.345z"/>
	</g>
</g>
<g>
</g>
<g>
</g>
<g>
</g>
<g>
</g>
<g>
</g>
<g>
</g>
<g>
</g>
<g>
</g>
<g>
</g>
<g>
</g>
<g>
</g>
<g>
</g>
<g>
</g>
<g>
</g>
<g>
</g>
</svg>
