<svg id="Layer_1" enable-background="new 0 0 510 510" height="512" viewBox="0 0 510 510" width="512" xmlns="http://www.w3.org/2000/svg"><g id="XMLID_380_"><path id="XMLID_391_" d="m0 15v480h510v-480zm480 450h-450v-300h450zm0-330h-450v-90h450z"/><path id="XMLID_397_" d="m420 75h30v30h-30z"/><path id="XMLID_398_" d="m360 75h30v30h-30z"/><path id="XMLID_399_" d="m300 75h30v30h-30z"/><path id="XMLID_400_" d="m90 435h30v-30h30v-30h-30v-180h-30v180h-30v30h30z"/><path id="XMLID_401_" d="m390 435h30v-210h30v-30h-90v30h30z"/><path id="XMLID_402_" d="m300 435h30v-135h30v-30h-30v-75h-30v75h-30v30h30z"/><path id="XMLID_403_" d="m180 435h30v-105h30v-30h-30v-105h-30v105h-30v30h30z"/><path id="XMLID_404_" d="m60 75h150v30h-150z"/></g></svg>