<svg id="Capa_1" enable-background="new 0 0 512 512" height="512" viewBox="0 0 512 512" width="512" xmlns="http://www.w3.org/2000/svg"><g><path d="m286 130c35.841 0 65-29.159 65-65s-29.159-65-65-65-65 29.159-65 65 29.159 65 65 65zm0-100c19.299 0 35 15.701 35 35s-15.701 35-35 35-35-15.701-35-35 15.701-35 35-35z"/><path d="m346 160h-135v352h150v-144.57c4.693 1.664 9.743 2.57 15 2.57 24.813 0 45-20.187 45-45v-90c0-41.355-33.645-75-75-75zm45 165c0 8.271-6.729 15-15 15s-15-6.729-15-15v-105h-30v262h-30v-142h-30v142h-30v-292h105c24.813 0 45 20.187 45 45z"/><path d="m136 220c-24.813 0-45 20.187-45 45v15h30v-15c0-8.271 6.729-15 15-15s15 6.729 15 15v247h30v-247c0-24.813-20.187-45-45-45z"/></g></svg>