<svg id="Capa_1" enable-background="new 0 0 510 510" height="512" viewBox="0 0 510 510" width="512" xmlns="http://www.w3.org/2000/svg"><g><path d="m435.609 152.24 39.946-117.795-117.795 39.946-99.686-74.391 1.59 124.373-101.555 71.819 31.383 9.755-189.492 131.194v97.859h75v75h97.859l131.194-189.492 9.755 31.383 71.819-101.555 124.373 1.59zm13.993 68.911-62.299-.796-20.976-42.357 45.898-6.933zm-125.22 63.69-18.499-59.512 33.711-33.711 20.927 42.26-36.073 51.009zm83.217-143.417-45.966 6.943 6.943-45.966 59.046-20.023zm-68.664-43.649-6.933 45.897-42.358-20.975-.796-62.299zm-62.813 51.703 42.26 20.927-33.712 33.711-59.512-18.499-.046-.066zm-246.122 255.522v-52.141l195.865-135.606 34.84 10.83-176.918 176.917zm127.141 75h-52.141v-53.787l176.917-176.917 10.83 34.84z"/><path d="m141.967 40.607h30v30h-30z" transform="matrix(.707 -.707 .707 .707 6.655 127.279)"/><path d="m141.967 83.033h30v30h-30z" transform="matrix(.707 -.707 .707 .707 -23.345 139.706)"/><path d="m184.394 83.033h30v30h-30z" transform="matrix(.707 -.707 .707 .707 -10.919 169.706)"/><path d="m184.393 40.607h30v30h-30z" transform="matrix(.707 -.707 .707 .707 19.081 157.279)"/><path d="m293.787 441.213h30v30h-30z" transform="matrix(.707 -.707 .707 .707 -232.15 351.967)"/><path d="m336.213 441.213h30v30h-30z" transform="matrix(.707 -.707 .707 .707 -219.724 381.967)"/><path d="m336.213 398.787h30v30h-30z" transform="matrix(.707 -.707 .707 .707 -189.724 369.541)"/><path d="m293.787 398.787h30v30h-30z" transform="matrix(.707 -.707 .707 .707 -202.15 339.541)"/></g></svg>