<svg id="Capa_1" enable-background="new 0 0 512 512" height="512" viewBox="0 0 512 512" width="512" xmlns="http://www.w3.org/2000/svg"><g><path d="m512 165.626c0-58.104-47.271-105.376-105.376-105.376-41.965 0-78.275 24.661-95.211 60.25h-311.413v331.25h451.75v-190.913c35.589-16.936 60.25-53.246 60.25-95.211zm-196.037 53.649-90.088 77.218-170.326-145.993h246.79c-.713 4.941-1.09 9.99-1.09 15.126 0 19.579 5.373 37.924 14.714 53.649zm-148.283 66.85-137.68 118.012v-236.024zm23.049 19.756 35.146 30.125 35.146-30.125 135.18 115.869h-340.653zm231.021 98.256-137.68-118.012 50.723-43.477c18.835 17.578 44.097 28.353 71.831 28.353 5.136 0 10.185-.377 15.126-1.09zm-15.126-163.136c-41.562 0-75.375-33.813-75.375-75.375s33.813-75.376 75.375-75.376 75.376 33.813 75.376 75.376c0 41.562-33.813 75.375-75.376 75.375z"/><path d="m377.5 150.503h14.124v60.25h30v-90.25h-44.124z"/></g></svg>