<svg id="Capa_1" enable-background="new 0 0 511.989 511.989" height="512" viewBox="0 0 511.989 511.989" width="512" xmlns="http://www.w3.org/2000/svg"><g><path d="m369.71 112.279h30v30h-30z" transform="matrix(.707 -.707 .707 .707 22.679 309.31)"/><path d="m327.283 154.706h30v30h-30z" transform="matrix(.707 -.707 .707 .707 -19.748 291.736)"/><path d="m284.857 197.132h30v30h-30z" transform="matrix(.707 -.707 .707 .707 -62.174 274.163)"/><path d="m242.431 239.558h30v30h-30z" transform="matrix(.707 -.707 .707 .707 -104.6 256.589)"/><path d="m511.989 148.492-148.493-148.492-42.426 42.427-21.213-21.213-21.213 21.213 21.213 21.213-21.213 21.213-21.214-21.213-21.213 21.213 21.213 21.213-21.213 21.213-21.213-21.213-21.213 21.213 21.213 21.213-21.214 21.214-21.213-21.213-21.213 21.213 21.213 21.213-42.427 42.426 37.123 37.123-151.921 151.922c-20.47 20.469-20.47 53.776 0 74.247 10.235 10.234 23.679 15.352 37.123 15.352s26.889-5.118 37.123-15.353l151.922-151.921 37.123 37.123 42.426-42.427 21.213 21.213 21.213-21.213-21.213-21.213 21.214-21.214 21.213 21.213 21.213-21.213-21.213-21.213 21.213-21.213 21.213 21.213 21.213-21.213-21.213-21.213 21.213-21.213 21.213 21.213 21.213-21.213-21.213-21.213zm-443.603 326.931c-8.773 8.772-23.047 8.772-31.82 0-8.773-8.773-8.773-23.047 0-31.82l109.496-109.496 31.82 31.82zm130.708-130.708-31.82-31.82 21.213-21.213 31.82 31.82zm206.828-132.583-21.213-21.213-21.213 21.213 21.213 21.213-21.213 21.213-21.213-21.213-21.213 21.213 21.213 21.213-21.214 21.214-21.213-21.213-21.213 21.213 21.213 21.213-21.213 21.213-106.065-106.066 21.213-21.213 21.213 21.213 21.213-21.213-21.213-21.213 21.214-21.214 21.213 21.213 21.213-21.213-21.213-21.213 21.213-21.213 21.213 21.213 21.213-21.213-21.213-21.213 21.213-21.213 21.213 21.213 21.213-21.213-21.213-21.213 21.213-21.213 106.065 106.065-21.213 21.213-21.213-21.213-21.213 21.213 21.213 21.213z"/></g></svg>