<svg id="Capa_1" enable-background="new 0 0 512 512" height="512" viewBox="0 0 512 512" width="512" xmlns="http://www.w3.org/2000/svg"><g><path d="m437.02 74.98c-48.353-48.351-112.64-74.98-181.02-74.98s-132.667 26.629-181.02 74.98c-48.351 48.353-74.98 112.64-74.98 181.02s26.629 132.667 74.98 181.02c48.353 48.351 112.64 74.98 181.02 74.98s132.667-26.629 181.02-74.98c48.351-48.353 74.98-112.64 74.98-181.02s-26.629-132.667-74.98-181.02zm-407.02 181.02c0-60.367 23.508-117.12 66.194-159.806s99.439-66.194 159.806-66.194c55.339 0 107.632 19.768 148.845 55.942l-45.607 45.607-10.607-10.607-21.213 21.213 10.607 10.607-22.035 22.035c-12.975-9.611-28.322-16.19-44.989-18.682v-31.115h15v-30h-60v30h15v31.115c-16.667 2.492-32.014 9.072-44.989 18.682l-22.035-22.035 10.607-10.607-21.213-21.213-42.426 42.426 21.213 21.213 10.607-10.607 22.035 22.035c-9.611 12.975-16.19 28.322-18.682 44.989h-31.118v-15h-30v60h30v-15h31.115c2.492 16.667 9.072 32.014 18.682 44.989l-22.035 22.035-10.607-10.607-21.213 21.213 10.607 10.607-45.607 45.607c-36.174-41.21-55.942-93.503-55.942-148.842zm297 0c0 39.149-31.851 71-71 71-14.157 0-27.349-4.182-38.436-11.351l98.085-98.085c7.169 11.087 11.351 24.279 11.351 38.436zm-142 0c0-39.149 31.851-71 71-71 14.157 0 27.349 4.182 38.436 11.351l-98.085 98.085c-7.169-11.087-11.351-24.279-11.351-38.436zm230.806 159.806c-42.686 42.686-99.439 66.194-159.806 66.194-55.339 0-107.632-19.768-148.845-55.942l45.607-45.607 10.607 10.607 21.213-21.213-10.607-10.607 22.035-22.035c12.975 9.611 28.322 16.19 44.989 18.682v31.115h-15v30h60v-30h-15v-31.115c16.667-2.492 32.014-9.072 44.989-18.682l22.035 22.035-10.607 10.607 21.213 21.213 42.426-42.426-21.213-21.213-10.607 10.607-22.035-22.035c9.611-12.975 16.19-28.322 18.682-44.989h31.118v15h30v-60h-30v15h-31.115c-2.492-16.667-9.072-32.014-18.682-44.989l22.035-22.035 10.607 10.607 21.213-21.213-10.607-10.607 45.607-45.607c36.174 41.21 55.942 93.503 55.942 148.842 0 60.367-23.508 117.12-66.194 159.806z"/></g></svg>