<?xml version="1.0" encoding="iso-8859-1"?>
<!-- Generator: Adobe Illustrator 19.0.0, SVG Export Plug-In . SVG Version: 6.00 Build 0)  -->
<svg xmlns="http://www.w3.org/2000/svg" xmlns:xlink="http://www.w3.org/1999/xlink" version="1.1" id="Layer_1" x="0px" y="0px" viewBox="0 0 511.999 511.999" style="enable-background:new 0 0 511.999 511.999;" xml:space="preserve">
<g>
	<g>
		<path d="M511.999,228.922v-77.45l-47.227-5.094c-2.274-6.71-5.061-13.242-8.341-19.552l29.171-36.442L430.753,35.7l-36.928,29.74    c-6.292-3.114-12.802-5.744-19.484-7.873l-5.066-46.393h-77.455l-5.147,47.127c-6.716,2.267-13.253,5.044-19.567,8.312    l-36.402-29.216l-54.761,54.775l29.699,36.972c-0.518,1.045-1.02,2.097-1.512,3.154c-14.357,4.042-25.78,9.826-33.145,14.221    c-17.381-10.371-57.286-28.513-105.273-13.124c-26.94,8.64-48.387,31.01-58.836,61.376c-13.593,39.501-6.777,85.02,18.231,121.763    C40.929,339.781,51.258,366,54.98,392.36c0.218,1.538,0.43,3.109,0.637,4.719c8.527,66.148,26.042,101.007,52.056,103.609    c15.935,1.592,28.825-10.765,38.34-36.724c6.236-17.014,11.145-39.746,13.822-64.009c1.764-15.98,5.981-24.75,9.21-29.292    c0.47-0.661,1.122-0.996,1.938-0.996s1.469,0.335,1.938,0.996c3.229,4.542,7.446,13.312,9.21,29.292    c2.678,24.263,7.586,46.995,13.822,64.009c8.973,24.479,20.95,36.86,35.64,36.86c0.889,0,1.791-0.045,2.7-0.136    c26.016-2.603,43.528-37.461,52.054-103.604c0.201-1.554,0.406-3.076,0.615-4.562c1.311-9.317,3.466-18.618,6.382-27.784    l0.786,7.137l77.449-0.075l5.116-47.126c6.708-2.272,13.242-5.055,19.554-8.329l36.425,29.185l54.714-54.82l-29.724-36.946    c3.152-6.373,5.809-12.959,7.953-19.71L511.999,228.922z M292.107,299.59c-18.448,27.139-30.497,57.829-34.849,88.756    c-0.224,1.598-0.444,3.228-0.66,4.897c-3.226,25.025-7.979,45.772-13.748,59.996c-4.586,11.311-8.488,15.436-10.358,16.876    c-5.567-6.066-15.836-30.757-20.547-73.451c-1.982-17.964-6.885-32.558-14.572-43.375c-6.058-8.527-15.924-13.618-26.391-13.618    c-10.466,0-20.331,5.09-26.39,13.617c-7.687,10.819-12.59,25.412-14.572,43.376c-4.711,42.687-14.976,67.377-20.544,73.447    c-1.881-1.444-5.778-5.572-10.361-16.872c-5.769-14.225-10.523-34.971-13.748-59.992c-0.224-1.736-0.453-3.434-0.688-5.087    c-4.357-30.877-16.384-61.482-34.777-88.506c-19.713-28.963-25.196-64.524-14.665-95.125c7.342-21.333,21.787-36.85,39.632-42.573    c47.749-15.312,85.305,13.149,86.83,14.328l9.284,7.318l9.284-7.317c0.381-0.3,38.586-29.8,86.831-14.329    c17.836,5.719,32.277,21.227,39.621,42.546C317.252,235.083,311.789,270.63,292.107,299.59z M308.121,152.255    c7.178-4.451,15.518-6.881,24.188-6.881c25.346,0,45.965,20.619,45.965,45.964c0,22.037-15.59,40.494-36.318,44.939    c-0.021-14.155-2.28-28.194-6.878-41.544C329.22,177.729,319.91,163.235,308.121,152.255z M447.157,288.556l-16.715,16.748    l-31.634-25.347l-9.007,5.576c-9.559,5.919-19.876,10.321-30.663,13.084l-10.068,2.579l-4.41,40.633l-23.661,0.022l-2.982-27.071    c9.809-14.861,16.681-31.095,20.471-47.752c39.004-3.158,69.782-35.885,69.782-75.688c0-41.885-34.076-75.96-75.961-75.96    c-19.09,0-37.223,7.104-51.118,19.775c-1.624-0.638-3.269-1.226-4.935-1.761c-12.353-3.961-24.165-5.688-35.2-5.91l0.734-1.236    l-25.619-31.891l16.728-16.733L264.517,103l9.012-5.572c9.553-5.907,19.874-10.3,30.677-13.056l10.073-2.57l4.439-40.632h23.657    l4.401,40.295l10.319,2.432c10.809,2.546,21.144,6.713,30.721,12.387l8.95,5.302l31.854-25.655l16.757,16.705l-25.343,31.658    l5.591,9.007c5.927,9.548,10.333,19.856,13.094,30.639l2.58,10.073l40.645,4.392l0.028,23.661l-40.287,4.457l-2.418,10.321    c-2.54,10.844-6.728,21.246-12.448,30.918l-5.288,8.942L447.157,288.556z"/>
	</g>
</g>
<g>
</g>
<g>
</g>
<g>
</g>
<g>
</g>
<g>
</g>
<g>
</g>
<g>
</g>
<g>
</g>
<g>
</g>
<g>
</g>
<g>
</g>
<g>
</g>
<g>
</g>
<g>
</g>
<g>
</g>
</svg>
