<svg id="Capa_1" enable-background="new 0 0 512 512" height="512" viewBox="0 0 512 512" width="512" xmlns="http://www.w3.org/2000/svg"><g><path d="m422 0v60h-332v-60h-90v512h512v-512zm-332 422v-122h332v122zm0-262h30.333v40h-30.333zm0 70h30.333v40h-30.333zm60.333 0h30.333v40h-30.333zm60.334 0h30.333v40h-30.333zm30.333-30h-30.333v-40h30.333zm30-40h30.333v40h-30.333zm0 70h30.333v40h-30.333zm60.333 0h30.333v40h-30.333zm60.334 0h30.333v40h-30.333zm30.333-30h-30.333v-40h30.333zm-60.333 0h-30.333v-40h30.333zm-30.334-70v-40h30.333v40zm-30 0h-30.333v-40h30.333zm-60.333 0h-30.333v-40h30.333zm-60.333 0h-30.333v-40h30.333zm0 30v40h-30.333v-40zm241.333-30h-30.333v-40h30.333zm-301.667-40v40h-30.333v-40zm-90.333-60h30v392h-30zm452 452h-452v-30h452zm-30-60v-392h30v392z"/></g></svg>