<svg id="Capa_1" enable-background="new 0 0 512 512" height="512" viewBox="0 0 512 512" width="512" xmlns="http://www.w3.org/2000/svg"><path d="m353.213 0h-308.213c-24.813 0-45 20.187-45 45v422c0 24.813 20.187 45 45 45h422c24.813 0 45-20.187 45-45v-308.213zm-111.213 270v90h-90v-90zm-90-30v-90h90v90zm120 30h90v90h-90zm0-30v-90h62.58c4.527 12.764 14.656 22.893 27.42 27.42v62.58zm105-90c-8.271 0-15-6.729-15-15v-83.787l98.787 98.787zm90 332h-422c-8.271 0-15-6.729-15-15v-422c0-8.271 6.729-15 15-15h287v90h-60v-60h-30v60h-90v-60h-30v60h-60v30h60v90h-60v30h60v90h-60v30h60v60h30v-60h90v60h30v-60h90v60h30v-60h60v-30h-60v-90h60v-30h-60v-60h90v287c0 8.271-6.729 15-15 15z"/></svg>