<svg id="Capa_1" enable-background="new 0 0 512 512" height="512" viewBox="0 0 512 512" width="512" xmlns="http://www.w3.org/2000/svg"><g><path d="m490.787 148.492 21.213-21.213-127.279-127.279-21.213 21.213 26.517 26.517-63.64 63.64-79.55-79.55-21.213 21.213 53.033 53.033-182.461 182.461 31.82 31.82-53.034 53.033 21.213 21.213-96.193 96.194 21.213 21.213 96.194-96.194 21.213 21.213 53.033-53.033 31.82 31.82 182.461-182.461 53.033 53.033 21.213-21.213-79.55-79.55 63.64-63.64zm-233.345 21.213 84.853 84.853-21.214 21.214-84.853-84.853zm-118.822 224.888-21.213-21.213 31.82-31.82 21.213 21.213zm.001-106.066 76.395-76.395 84.853 84.853-76.395 76.395zm224.887-55.182-84.853-84.853 21.214-21.214 84.853 84.853zm15.91-68.942-31.82-31.82 63.64-63.64 31.82 31.82z"/></g></svg>