<svg id="Capa_1" enable-background="new 0 0 509.499 509.499" height="512" viewBox="0 0 509.499 509.499" width="512" xmlns="http://www.w3.org/2000/svg"><g><path d="m89.749 0v509.297l64.566-12.912 50.444 13.114 49.998-13 49.999 13 50.436-13.114 64.558 12.912c0-23.746 0-494.665 0-509.297zm30 105h45v35.925l-45-4.5zm75 0h45v43.425l-45-4.5zm45-30h-45v-45h45zm30-45h45v45h-45zm0 75h45v38.925l-45 4.5zm75 0h45v31.425l-45 4.5zm45-30h-45v-45h45zm-225-45v45h-45v-45zm16.51 285h-61.509v-30h61.509c-1.946 9.548-2.079 19.803 0 30zm208.49 157.703-35.435-7.087-49.559 12.886-49.999-13-49.998 13-49.566-12.886-35.443 7.088v-37.704h270zm-270-67.703v-60h75v-.052c13.695 18.234 35.492 30.052 60 30.052s46.306-11.818 60-30.052v.052h75v60zm90-105c0-24.813 20.187-45 45-45s45 20.187 45 45-20.187 45-45 45-45-20.188-45-45zm118.491-15h61.509v30h-61.509c1.946-9.549 2.078-19.803 0-30zm61.509-30h-75v.052c-13.694-18.234-35.492-30.052-60-30.052s-46.305 11.818-60 30.052v-.052h-75v-88.426l135 13.5 135-13.5z"/></g></svg>