<svg id="Capa_1" enable-background="new 0 0 512 512" height="512" viewBox="0 0 512 512" width="512" xmlns="http://www.w3.org/2000/svg"><g><path d="m404.938 216.016 31.81-72.303-13.676-6.062c-39.447-17.484-84.697-17.484-124.145 0l-13.676 6.062 31.81 72.303c-23.207 7.072-44.058 19.593-61.062 36.067-17.004-16.474-37.855-28.995-61.062-36.067l31.811-72.303-13.676-6.062c-39.448-17.483-84.697-17.483-124.146 0l-13.676 6.062 31.811 72.303c-61.897 18.862-107.061 76.489-107.061 144.473 0 83.262 67.738 151 151 151 40.767 0 77.805-16.246 105-42.594 27.195 26.349 64.233 42.594 105 42.594 83.262 0 151-67.738 151-151 0-67.984-45.164-125.611-107.062-144.473zm-8.067-56.16-21.659 49.23h-28.424l-21.659-49.23c23.357-7.097 48.385-7.097 71.742 0zm-124.871 200.633c0 21.853-5.824 42.37-16 60.084-10.176-17.714-16-38.231-16-60.084s5.824-42.37 16-60.084c10.176 17.714 16 38.231 16 60.084zm-85.128-200.633-21.66 49.23h-28.424l-21.66-49.23c23.359-7.097 48.385-7.097 71.744 0zm-35.872 321.633c-66.72 0-121-54.28-121-121s54.28-121 121-121c33.391 0 63.666 13.596 85.58 35.542-16.755 24.317-26.58 53.76-26.58 85.458s9.826 61.141 26.58 85.458c-21.914 21.946-52.189 35.542-85.58 35.542zm210 0c-33.391 0-63.666-13.596-85.58-35.542 16.755-24.317 26.58-53.76 26.58-85.458s-9.826-61.141-26.58-85.458c21.915-21.946 52.19-35.542 85.58-35.542 66.72 0 121 54.28 121 121s-54.28 121-121 121z"/><path d="m256 130.702 53.285-53.285c17.57-17.57 17.57-46.159 0-63.729-14.404-14.405-36.215-16.998-53.285-7.788-17.072-9.21-38.881-6.615-53.285 7.788-8.512 8.511-13.199 19.828-13.199 31.865s4.688 23.354 13.199 31.864zm-32.072-95.801c2.937-2.937 6.794-4.405 10.651-4.405s7.715 1.468 10.652 4.405l10.769 10.769 10.769-10.769c5.874-5.873 15.43-5.874 21.304 0 5.873 5.874 5.873 15.43 0 21.303l-32.073 32.072-32.072-32.072c-2.845-2.845-4.412-6.627-4.412-10.651s1.567-7.806 4.412-10.652z"/></g></svg>