<svg id="Capa_1" enable-background="new 0 0 511.658 511.658" height="512" viewBox="0 0 511.658 511.658" width="512" xmlns="http://www.w3.org/2000/svg"><path d="m474.045 383.596c-4.44-9.86-10.8-18.5-18.54-25.56 17.954-34.929 25.969-78.161 21.02-118.81 2.022-6.69 2.822-14.198 2.21-21.38 20.429-18.495 24.162-52.116 8.19-74.74 1.181-69.683-78.967-111.916-135.55-72.15-42.792-19.201-97.18-22.686-142.645-8.805-8.098-80.333-120.826-83.804-134.129-4.495-34.754-2.08-64.794 25.498-64.666 60.5-.163 35.586 30.803 63.113 65.98 60.5-14.426 31.976-20.777 70.334-16.87 106.63-37.263 10.577-56.192 56.39-35.74 90.47-36.863 58.223 6.624 136.484 75.631 135.899 37.609.001 69.839-23.449 82.859-56.489 47.234 22.115 108.619 24.517 157.77 5.91 24.098 34.955 76.566 43.585 110.75 16.53 53.656 1.596 71.523-70.321 23.73-94.01zm-71.11-45.94c-1.22 0-2.43.03-3.63.09l-23.54-19.64h-102.45l-55.37-28.15-42.37 16.81c-15.125-6.773-34.156-6.801-49.45.08-9.1-11.91-22.21-20.11-37.06-23.01-9.452-78.355 36.305-153.945 104.8-184.22l-35.02 65.83 92.71 99.41 71.37-84.26c8.432 17.1 22.898 31.291 40.07 39.52-2.375 44.076 45.891 74.708 84.63 54.02-1.4 24.36-7.67 47.44-17.86 68.28-8.429-3.09-17.489-4.76-26.83-4.76zm-2.5-252c35.942.197 61.374 32.039 55.82 67.16l4.01 4.72c7.241 8.289 8.725 21.025 3.68 30.73-2.19 4.32-5.49 8.06-9.68 10.81l-9.04 5.94c1.032 4.664 3.985 12.868 3.71 17.64.063 15.162-12.427 28.033-28 28-15.44 0-28-12.56-28-28-.316-5.419 3.957-16.845 5.29-22.12l-14.21-4.31c-23.701-7.158-40.11-29.586-40.08-54.07-.383-30.655 25.913-56.88 56.5-56.5zm-71.919 8.49c-9.663 14.34-15.132 32.158-14.54 50.6v.01l-63.5 74.96-55.09-59.08 39.3-73.89c30.702-5.961 65.024-3.142 93.83 7.4zm-258.081 54.51c-40.468-1.679-40.445-59.332 0-61h33.5v-20.5c0-20.678 16.822-37.5 37.5-37.5s37.5 16.822 37.5 37.5v6.31c-35.35 16.61-65.36 42.79-86.64 75.19zm28.5 333c-49.439.17-77.092-58.349-45.629-96.39-.001 0 8.099-9.87 8.099-9.87l-8.46-9.58c-14.577-16.121-8.174-42.519 11.4-50.58 10.327-4.645 23.847-2.822 32.47 4.3 4.35 3.45 7.82 8.07 9.95 13.54l7.59 19.51 16.03-13.45c5.749-4.823 13.086-7.477 20.55-7.48 26.734.072 41.521 30.93 25.15 51.74-3.01 3.85-6.91 7.03-11.46 9.19l-10.87 5.16c1.939 8.743 4.704 18.074 4.13 27.07-.908 30.903-26.971 56.972-58.95 56.84zm169-38c-28.73 0-55.91-6.77-80.03-18.79.098-3.71-.045-7.434-.43-11.14 26.723-18.89 33.593-58.667 14.54-85.17l14.4-5.72 49.71 25.27h97.85c-28.615 15.856-45.372 52.361-36.93 85.58-18.519 6.46-38.42 9.97-59.11 9.97zm184.5 4c-2.635.118-8.714-1.426-11.36-1.89l-5.62 5.18c-28.828 26.639-75.904 8.819-80.22-29.92-4.038-32.771 27.294-59.927 58.63-52.099 15.92 3.657 29.174 15.581 34.46 31.11 0 0 2.49 7.23 2.49 7.23l7.32 2.24c21.193 7.027 16.688 37.644-5.7 38.149z"/></svg>