<svg id="Capa_1" enable-background="new 0 0 512 512" height="512" viewBox="0 0 512 512" width="512" xmlns="http://www.w3.org/2000/svg"><g><path d="m352.773 137.991c10.389-11.641 16.036-28.966 16.783-51.568.004-25.987-1.488-26.689-3.689-40.982-13.274-1.995-15.364-3.819-40.982-3.689-8.382.277-16.034 1.232-22.944 2.85-19.282-28.036-32.019-34.356-45.778-44.602-13.202 9.924-26.717 16.594-45.786 44.615-6.908-1.621-14.551-2.586-22.935-2.863-25.99-.008-26.688 1.49-40.982 3.689-1.997 13.272-3.813 15.368-3.689 40.982.744 22.522 6.351 39.809 16.671 51.449-41.188 23.229-69.065 67.397-69.065 117.959v120.838c-.002 74.622 60.707 135.331 135.329 135.331h60.588c74.622 0 135.331-60.709 135.331-135.331v-120.838c0-50.475-27.781-94.578-68.852-117.84zm-40.544-64.872c8.664-1.638 20.172-1.635 27.104-1.124.966 14.813.095 37.04-9.687 46.821-1.83 1.83-5.456 3.788-10.33 5.766-7.346-1.849-14.926-3.102-22.69-3.691 15.224-27.863 16.134-35.905 15.603-47.772zm-56.065-35.592c11.159 9.79 26.271 26.13 26.271 39.968 0 7.185-9.029 24.776-20.584 43.004h-11.369c-11.558-18.239-20.592-35.833-20.592-43.004 0-13.834 15.107-30.171 26.274-39.968zm-83.151 34.448c7.082-.482 17.909-.491 27.085 1.124-.541 13.627.635 19.459 15.585 47.773-7.798.574-15.412 1.815-22.791 3.66-4.81-1.96-8.399-3.901-10.213-5.715-8.08-6.309-11.385-33.484-9.666-46.842zm218.612 304.694c0 58.08-47.251 105.331-105.331 105.331h-60.588c-58.08 0-105.331-47.251-105.331-105.331v-120.838c0-58.08 47.251-105.331 105.331-105.331h60.588c58.08 0 105.331 47.251 105.331 105.331z"/><path d="m179.75 210.009-10.695-10.695-21.213 21.213 31.908 31.909 31.908-31.909-21.213-21.213z"/><path d="m256 210.009-10.695-10.695-21.213 21.213 31.908 31.909 31.908-31.909-21.213-21.213z"/><path d="m332.25 210.009-10.695-10.695-21.213 21.213 31.908 31.909 31.908-31.909-21.213-21.213z"/><path d="m179.75 300.384-10.695-10.695-21.213 21.213 31.908 31.909 31.908-31.909-21.213-21.213z"/><path d="m256 300.384-10.695-10.695-21.213 21.213 31.908 31.909 31.908-31.909-21.213-21.213z"/><path d="m332.25 300.384-10.695-10.695-21.213 21.213 31.908 31.909 31.908-31.909-21.213-21.213z"/><path d="m179.75 390.759-10.695-10.695-21.213 21.213 31.908 31.909 31.908-31.909-21.213-21.213z"/><path d="m256 390.759-10.695-10.695-21.213 21.213 31.908 31.909 31.908-31.909-21.213-21.213z"/><path d="m332.25 390.759-10.695-10.695-21.213 21.213 31.908 31.909 31.908-31.909-21.213-21.213z"/></g></svg>