<svg id="Capa_1" enable-background="new 0 0 508.749 508.749" height="512" viewBox="0 0 508.749 508.749" width="512" xmlns="http://www.w3.org/2000/svg"><g id="XMLID_1497_"><path id="XMLID_1500_" d="m400.132 247.837c.012-2.32-.123-4.651-.443-6.98l-25.228-183.381-.044-.296c-2.516-15.926-10.651-30.464-22.91-40.938-12.257-10.474-27.887-16.242-44.01-16.242h-106.245c-16.123 0-31.753 5.768-44.011 16.242-12.259 10.474-20.395 25.013-22.91 40.938l-25.271 183.677c-.317 2.307-.452 4.617-.443 6.916h-.022v260.976h71.057l30.055-211.91h89.335l30.055 211.91h71.057v-260.912zm-30.164-2.892c.771 5.599-.851 11.028-4.564 15.288s-8.872 6.606-14.523 6.606h-193.012c-5.651 0-10.81-2.346-14.523-6.606s-5.335-9.689-4.564-15.288l1.721-12.512h227.745zm-205.982-183.221c2.972-18.391 18.623-31.724 37.266-31.724h106.244c18.644 0 34.294 13.333 37.267 31.724l19.357 140.71h-219.491zm-10.379 417.025h-15.012v-185.853c6.029 2.564 12.57 3.944 19.273 3.944h21.538zm201.535 0-25.799-181.91h21.538c6.704 0 13.244-1.38 19.273-3.944v185.853h-15.012z"/><path id="XMLID_1504_" d="m227.629 59.065h56.317v30h-56.317z"/></g></svg>