<svg id="Capa_1" enable-background="new 0 0 473.312 473.312" height="512" viewBox="0 0 473.312 473.312" width="512" xmlns="http://www.w3.org/2000/svg"><g><path d="m417.091 303.652c34.882-33.97 10.039-95.281-39.211-94.94-49.246-.341-74.094 60.979-39.209 94.94-6.493 5.201-15.93 18.98-15.93 18.98-10.57 15.37-36.17 47.2-71.14 54.62l6.22 29.35c22.85-4.85 42.1-16.95 57.25-30.2v96.91h125.62v-120.62c0-19.82-9.22-37.51-23.6-49.04zm-39.21-64.94c33.861 1.201 33.842 49.976 0 51.17-33.937-1.414-33.922-49.767 0-51.17zm32.81 204.6h-65.62v-90.62c0-5.18 1.2-10.08 3.35-14.43 0 0 .01-.01.01-.02 5.451-10.992 16.576-18.332 29.45-18.36 18.09 0 32.81 14.71 32.81 32.81z"/><path d="m56.221 303.652c-34.882-33.97-10.039-95.281 39.211-94.94 49.246-.341 74.094 60.979 39.209 94.94 6.493 5.201 15.93 18.98 15.93 18.98 10.57 15.37 36.17 47.2 71.14 54.62l-6.22 29.35c-22.85-4.85-42.1-16.95-57.25-30.2v96.91h-125.62v-120.62c0-19.82 9.22-37.51 23.6-49.04zm39.21-64.94c-33.861 1.201-33.842 49.976 0 51.17 33.937-1.414 33.921-49.767 0-51.17zm-32.81 204.6h65.62v-90.62c0-5.18-1.2-10.08-3.35-14.43 0 0-.01-.01-.01-.02-5.451-10.992-16.576-18.332-29.45-18.36-18.09 0-32.81 14.71-32.81 32.81z"/><path d="m196.904 231.256 39.81-39.811 39.806 39.806 68.04-68.04-40.27-40.27c55.222-76.917-45.098-165.46-114.481-100.29-27.273 23.922-35.415 65.986-18.4 98.009l-42.55 42.551zm0-42.427-25.618-25.618 18.597-18.597 25.618 25.618zm46.827-158.517c36.271-.495 58.584 41.347 39.04 71.11l-63.89-63.89c7.36-4.7 15.91-7.22 24.85-7.22zm-45.26 29.24 103.66 103.66-25.61 25.62-69.01-69.01c-15.836-15.32-19.567-41.068-9.04-60.27z"/></g></svg>