<?xml version="1.0" encoding="iso-8859-1"?>
<!-- Generator: Adobe Illustrator 19.0.0, SVG Export Plug-In . SVG Version: 6.00 Build 0)  -->
<svg version="1.1" id="Capa_1" xmlns="http://www.w3.org/2000/svg" xmlns:xlink="http://www.w3.org/1999/xlink" x="0px" y="0px"
	 viewBox="0 0 512 512" style="enable-background:new 0 0 512 512;" xml:space="preserve">
<g>
	<g>
		<path d="M451,30c-19.555,0-36.228,12.542-42.42,30H154.541l-49.632-24.816C100.416,15.078,82.441,0,61,0H31
			c-8.284,0-15,6.716-15,15v210c0,8.284,6.716,15,15,15h30c21.441,0,39.416-15.078,43.909-35.184L154.541,180H166v75
			c0,19.555,12.541,36.228,30,42.42v37.16c-17.459,6.192-30,22.865-30,42.42v120c0,8.284,6.716,15,15,15h120c8.284,0,15-6.716,15-15
			V377c0-19.555-12.541-36.228-30-42.42v-37.16c17.459-6.192,30-22.865,30-42.42v-15h15c24.813,0,45-20.187,45-45v-15h32.58
			c6.192,17.458,22.865,30,42.42,30c24.813,0,45-20.187,45-45V75C496,50.187,475.813,30,451,30z M76,195c0,8.271-6.729,15-15,15H46
			V30h15c8.271,0,15,6.729,15,15V195z M136,155.73l-30,15V69.271l30,15V155.73z M286,482h-30v-45c0-8.284-6.716-15-15-15
			s-15,6.716-15,15v45h-30V377c0-8.271,6.729-15,15-15h60c8.271,0,15,6.729,15,15V482z M226,332v-32h30v32H226z M406,150h-45H241
			c-8.284,0-15,6.716-15,15s6.716,15,15,15h105v15c0,8.271-6.729,15-15,15h-30c-8.284,0-15,6.716-15,15v30c0,8.271-6.729,15-15,15
			h-60c-8.271,0-15-6.729-15-15v-90c0-8.284-6.716-15-15-15h-15V90h240V150z M466,165c0,8.271-6.729,15-15,15s-15-6.729-15-15V75
			c0-8.271,6.729-15,15-15s15,6.729,15,15V165z"/>
	</g>
</g>
<g>
</g>
<g>
</g>
<g>
</g>
<g>
</g>
<g>
</g>
<g>
</g>
<g>
</g>
<g>
</g>
<g>
</g>
<g>
</g>
<g>
</g>
<g>
</g>
<g>
</g>
<g>
</g>
<g>
</g>
</svg>
