<svg id="Capa_1" enable-background="new 0 0 512 512" height="512" viewBox="0 0 512 512" width="512" xmlns="http://www.w3.org/2000/svg"><g><path d="m467 53h-306.707l-27.897-22.705c-24.003-19.536-54.268-30.295-85.217-30.295h-47.179v196h47.179c30.95 0 61.214-10.759 85.217-30.295l27.897-22.705h69.667v30h-15c-24.813 0-45 20.187-45 45v45h34.648l-34.648 29.89v219.11h240v-219.11l-34.648-29.89h34.648v-45c0-24.813-20.187-45-45-45h-15v-90h117.04c8.271 0 15 6.729 15 15v53.959c-27.584 29.792-42.7 68.298-42.7 109.128v38.673h30v-38.673c0-34.934 13.604-67.778 38.307-92.48l4.394-4.393v-66.214c-.001-24.813-20.188-45-45.001-45zm-353.542 89.437c-18.668 15.195-42.207 23.563-66.279 23.563h-17.179v-136h17.179c24.072 0 47.611 8.368 66.28 23.563l26.501 21.569v45.736zm56.502-29.437v-30h60v30zm210 193.63v175.37h-180v-175.37l50.576-43.63h78.849zm0-88.63v15h-180v-15c0-8.271 6.729-15 15-15h150c8.271 0 15 6.729 15 15zm-120-45v-90h60v90z"/><path d="m259.96 295.25h60v30h-60z"/><path d="m259.96 357.5h60v30h-60z"/><path d="m259.96 419.75h60v30h-60z"/></g></svg>