<?xml version="1.0" encoding="iso-8859-1"?>
<!-- Generator: Adobe Illustrator 19.0.0, SVG Export Plug-In . SVG Version: 6.00 Build 0)  -->
<svg xmlns="http://www.w3.org/2000/svg" xmlns:xlink="http://www.w3.org/1999/xlink" version="1.1" id="Layer_1" x="0px" y="0px" viewBox="0 0 512 512" style="enable-background:new 0 0 512 512;" xml:space="preserve">
<g>
	<g>
		<path d="M195.918,102.051V62.694C195.918,28.124,167.794,0,133.224,0S70.531,28.124,70.531,62.694v39.357    C33.798,216.823,0,341.435,0,475.424v15.672l15.672,0.001c26.684,0.001,39.122,4.423,53.525,9.545    c14.969,5.324,31.935,11.356,64.027,11.357c32.089,0,49.057-6.032,64.027-11.355c14.403-5.12,26.841-9.543,53.522-9.543    l15.676-0.001v-15.672C266.449,341.437,232.651,216.824,195.918,102.051z M101.878,62.694c0-17.285,14.062-31.347,31.347-31.347    c17.285,0,31.347,14.062,31.347,31.347v26.122h-62.694V62.694z M101.878,120.163h62.694v67.918    c0,17.285-14.062,31.347-31.347,31.347c-17.285,0-31.347-14.062-31.347-31.347V120.163z M186.751,471.109    c-11.244,3.998-21.292,7.57-37.854,8.945V282.122h-31.347v197.932c-16.561-1.375-26.608-4.948-37.851-8.946    c-12.296-4.373-25.938-9.223-48.204-10.818c1.753-89.378,18.81-174.922,41.129-256.148c7.114,26.813,31.582,46.634,60.6,46.634    c29.018,0,53.486-19.821,60.6-46.632c22.319,81.225,39.376,166.77,41.129,256.15C212.69,461.887,199.047,466.738,186.751,471.109z    "/>
	</g>
</g>
<g>
	<g>
		<path d="M496.328,20.902c-26.684-0.001-39.122-4.423-53.525-9.545C427.833,6.033,410.867,0.001,378.776,0    c-32.089,0-49.057,6.032-64.027,11.355c-14.404,5.121-26.841,9.543-53.522,9.543l-15.676,0.001v15.672    c0,133.991,33.798,258.605,70.531,373.378v39.357c0,34.569,28.125,62.694,62.694,62.694s62.694-28.125,62.694-62.694v-39.357    C478.202,295.177,512,170.565,512,36.576V20.903L496.328,20.902z M410.122,449.306c0,17.285-14.062,31.347-31.347,31.347    s-31.347-14.062-31.347-31.347v-26.122h62.694V449.306z M410.122,391.837h-62.694v-67.918c0-17.285,14.062-31.347,31.347-31.347    s31.347,14.062,31.347,31.347V391.837z M439.375,307.857c-7.114-26.812-31.582-46.633-60.6-46.633    c-29.018,0-53.486,19.821-60.6,46.632c-22.319-81.225-39.376-166.77-41.129-256.15c22.264-1.592,35.906-6.444,48.202-10.816    c11.244-3.998,21.292-7.57,37.854-8.945v197.933h31.347V31.946c16.561,1.375,26.608,4.948,37.851,8.946    c12.296,4.373,25.938,9.223,48.204,10.818C478.75,141.086,461.694,226.632,439.375,307.857z"/>
	</g>
</g>
<g>
</g>
<g>
</g>
<g>
</g>
<g>
</g>
<g>
</g>
<g>
</g>
<g>
</g>
<g>
</g>
<g>
</g>
<g>
</g>
<g>
</g>
<g>
</g>
<g>
</g>
<g>
</g>
<g>
</g>
</svg>
