<svg id="Capa_1" enable-background="new 0 0 512 512" height="512" viewBox="0 0 512 512" width="512" xmlns="http://www.w3.org/2000/svg"><g><path d="m382.213 0h-351.213v512h450v-413.213zm8.787 51.213 38.787 38.787h-38.787zm-330 430.787v-452h300v90h90v362z"/><path d="m316 120h-120c-24.813 0-45 20.187-45 45v182c0 24.813 20.187 45 45 45h120c24.813 0 45-20.187 45-45v-182c0-24.813-20.187-45-45-45zm15 227c0 8.271-6.729 15-15 15h-120c-8.271 0-15-6.729-15-15v-182c0-8.271 6.729-15 15-15h120c8.271 0 15 6.729 15 15z"/><path d="m151 60h30v30h-30z"/><path d="m211 60h30v30h-30z"/><path d="m271 60h30v30h-30z"/><path d="m391 180h30v30h-30z"/><path d="m391 240h30v30h-30z"/><path d="m391 302h30v30h-30z"/><path d="m391 362h30v30h-30z"/><path d="m391 422h30v30h-30z"/><path d="m91 60h30v30h-30z"/><path d="m91 120h30v30h-30z"/><path d="m91 180h30v30h-30z"/><path d="m91 240h30v30h-30z"/><path d="m91 302h30v30h-30z"/><path d="m91 362h30v30h-30z"/><path d="m91 422h30v30h-30z"/><path d="m151 422h30v30h-30z"/><path d="m211 422h30v30h-30z"/><path d="m271 422h30v30h-30z"/><path d="m331 422h30v30h-30z"/></g></svg>