<svg id="Capa_1" enable-background="new 0 0 512 512" height="512" viewBox="0 0 512 512" width="512" xmlns="http://www.w3.org/2000/svg"><path d="m512 45.125c0-24.882-20.243-45.125-45.125-45.125s-45.125 20.243-45.125 45.125c0 19.624 12.596 36.354 30.125 42.552v62.948h-30.25v-60.25h-331.25v60.25h-30.25v-62.948c17.529-6.198 30.125-22.928 30.125-42.552 0-24.882-20.243-45.125-45.125-45.125s-45.125 20.243-45.125 45.125c0 19.624 12.596 36.354 30.125 42.552v92.948h60.25v331.375h30v-30.125h30.25v30.125h30v-30.125h30.25v30.125h30v-30.125h30.25v30.125h30v-30.125h30.25v30.125h30v-30.125h30.25v30.125h30v-331.375h60.25v-92.948c17.529-6.198 30.125-22.928 30.125-42.552zm-466.875-15.125c8.34 0 15.125 6.785 15.125 15.125s-6.785 15.125-15.125 15.125-15.125-6.785-15.125-15.125 6.785-15.125 15.125-15.125zm126.904 346.502 20-45.185-20-45.185 20-45.188-20-45.187 20-45.191-13.362-30.192h27.443l13.362 30.192-20 45.192 20 45.186-20 45.188 20 45.185-20 45.185 20 45.188-13.36 30.185h-27.443l13.361-30.185zm60.25 0 20-45.185-20-45.185 20-45.188-20-45.187 20-45.191-13.362-30.192h152.708v331.5h-152.707l13.361-30.185zm-111.904-256.127h25.485l13.362 30.192-20 45.192 20 45.186-20 45.188 20 45.185-20 45.185 20 45.188-13.36 30.185h-25.486v-331.501zm346.5-60.125c-8.34 0-15.125-6.785-15.125-15.125s6.785-15.125 15.125-15.125 15.125 6.785 15.125 15.125-6.785 15.125-15.125 15.125z"/></svg>