<?xml version="1.0" encoding="iso-8859-1"?>
<!-- Generator: Adobe Illustrator 19.0.0, SVG Export Plug-In . SVG Version: 6.00 Build 0)  -->
<svg version="1.1" id="Layer_1" xmlns="http://www.w3.org/2000/svg" xmlns:xlink="http://www.w3.org/1999/xlink" x="0px" y="0px"
	 viewBox="0 0 512 512" style="enable-background:new 0 0 512 512;" xml:space="preserve">
<g>
	<g>
		<path d="M256,0C114.84,0,0,114.842,0,256s114.84,256,256,256s256-114.842,256-256S397.16,0,256,0z M336.677,57.278
			c57.736,23.526,102.998,71.503,122.848,131.007L336.677,259.21V57.278z M256,41.513c13.374,0,26.461,1.241,39.164,3.595v144.914
			L120.995,89.466C157.887,59.501,204.879,41.513,256,41.513z M295.164,237.958v45.222L256,305.79l-39.164-22.611v-45.221
			L256,215.347L295.164,237.958z M175.323,454.724c-55.263-22.52-99.094-67.439-120.154-123.427l120.154-69.37V454.724z
			 M44.17,289.71c-1.741-10.984-2.657-22.242-2.657-33.71c0-51.686,18.378-99.159,48.94-136.231l124.033,71.611L44.17,289.71z
			 M256,470.487c-13.374,0-26.461-1.241-39.164-3.595V331.115l167.45,96.677C348.485,454.595,304.063,470.487,256,470.487z
			 M416.3,398.339l-118.787-68.582l171.48-99.004c0.976,8.285,1.493,16.705,1.493,25.247
			C470.487,310.574,449.987,360.443,416.3,398.339z"/>
	</g>
</g>
<g>
</g>
<g>
</g>
<g>
</g>
<g>
</g>
<g>
</g>
<g>
</g>
<g>
</g>
<g>
</g>
<g>
</g>
<g>
</g>
<g>
</g>
<g>
</g>
<g>
</g>
<g>
</g>
<g>
</g>
</svg>
