<svg id="Capa_1" enable-background="new 0 0 512.015 512.015" height="512" viewBox="0 0 512.015 512.015" width="512" xmlns="http://www.w3.org/2000/svg"><path d="m.007 280.011v232.004h512v-231.958c-24.416-26.359-57.274-34.763-88.547-38.441 3.534-7.198 7.395-14.397 11.315-21.702 19.904-33.777 34.255-73.93 33.111-113.108-.198-58.885-48.422-106.791-107.499-106.791-26.768 0-43.237-.912-74.816 13.421-18.788 8.146-40.339 8.146-59.128 0-32.245-14.424-47.493-13.421-74.815-13.421-59.077 0-107.3 47.906-107.499 106.791-1.142 40.137 13.685 79.988 33.111 113.108 3.914 7.292 7.768 14.479 11.297 21.665-31.871 3.85-64.01 12.297-88.53 38.432zm408.335-74.283c-16.355 30.474-33.265 61.981-30.714 101.278v53.389c0 28.668-19.756 52.807-46.37 59.516v-38.281c.853-16.5-3.949-48.005-14.876-76.907-14.835-38.747-35.028-60.642-60.374-63.915-25.568 3.422-45.719 25.448-60.374 63.915-10.928 28.904-15.73 60.408-14.876 76.908v38.28c-26.614-6.709-46.37-30.848-46.37-59.516v-53.389c2.55-39.297-14.359-70.805-30.714-101.278-18.018-31.181-30.447-63.637-29.544-98.82.143-42.399 34.909-76.906 77.499-76.893 26.437.009 28.788-1.793 62.88 10.945 26.928 10.061 55.992 9.848 82.999 0 35.379-12.901 35.46-10.871 62.881-10.945 42.59-.116 77.356 34.494 77.499 76.893.837 35.945-11.972 68.483-29.546 98.82zm-378.335 87.11c14.338-11.25 42.107-21.408 70.318-22.032 3.254 11.122 4.936 22.557 4.097 34.663-.102 1.143-.001 53.948-.036 54.926 0 50.382 40.988 91.37 91.37 91.37h15l-.026-71.438c-.775-13.043 3.861-40.92 12.963-64.994 9.119-24.119 21.03-40.215 32.313-43.911 11.283 3.696 23.194 19.792 32.312 43.911 9.261 24.652 13.831 52.646 12.938 65.884v70.548h15c50.382 0 91.37-40.988 91.37-91.37-.034-.672.066-54.536-.036-54.926-.838-12.096.84-23.52 4.088-34.633 28.421.684 56.158 10.801 70.327 21.968v189.211h-452v-189.177z"/></svg>