<svg id="Layer_1" enable-background="new 0 0 510 510" height="512" viewBox="0 0 510 510" width="512" xmlns="http://www.w3.org/2000/svg"><path id="XMLID_736_" d="m510 90v-90h-510v90h30v183.279c-3.517 1.047-6.933 2.558-10.16 4.552-27.871 17.225-26.003 58.359 3.285 73.002l6.875 3.438v155.729h150v-15c0-31.751-7.505-63.549-21.705-91.961l-8.295-16.582v-49.559c57.287-50.365 90-122.502 90-199.049v-47.849h30v47.85c0 76.546 32.713 148.684 90 199.049v49.559l-8.297 16.586c-14.198 28.407-21.703 60.205-21.703 91.956v15h150v-155.729l6.875-3.438c33.857-16.746 29.248-67.056-6.875-77.554v-183.279zm-462.875 212.833 72.875 36.438v26.459l-83.459-41.73c-13.734-7.341-3.706-27.777 10.584-21.167zm12.875 177.167v-110.729l63.821 31.911 7.641 15.275c9.889 19.786 15.977 41.499 17.887 63.544h-89.349zm150-342.15c0 59.068-21.963 115.176-61.137 158.179-3.492-25.146-14.991-48.371-33.257-66.636l-21.213 21.213c14.889 14.889 23.72 34.207 25.318 54.979-13.121-6.557-57.54-28.787-59.712-29.835v-185.75h150v47.85zm-180-77.85v-30h450v30c-12.053 0-437.095 0-450 0zm420 420h-89.35c1.91-22.044 7.997-43.757 17.885-63.539l7.643-15.28 63.822-31.91zm23.459-156-83.459 41.729v-26.459l72.875-36.438c14.287-6.542 24.344 13.722 10.584 21.168zm-23.459-48.25c-2.106 1.016-37.403 18.688-59.712 29.835 1.598-20.772 10.43-40.09 25.318-54.979l-21.213-21.213c-18.266 18.265-29.765 41.49-33.257 66.636-39.173-43.003-61.136-99.111-61.136-158.179v-47.85h150z"/></svg>