<svg id="Capa_1" enable-background="new 0 0 510 510" height="512" viewBox="0 0 510 510" width="512" xmlns="http://www.w3.org/2000/svg"><g><path d="m510 316.5c0-25.64-20.86-46.5-46.5-46.5h-4.23l-30-60h35.73v-90h-135v-45h-330v330h62.58c6.192 17.458 22.866 30 42.42 30s36.227-12.542 42.42-30h215.16c6.192 17.458 22.866 30 42.42 30 19.555 0 36.227-12.542 42.42-30h62.58zm-84.271-46.5h-95.729v-60h65.729zm9.271-120v30h-105v-30zm-135 135h-45v-15c0-25.839-10.834-50.137-30.477-67.472.312-2.489.478-5.001.478-7.527 0-33.084-26.916-60-60-60-18.704 0-35.72 8.513-46.848 22.44-8.397-10.516-13.153-23.68-13.153-37.441v-15h195zm-105-90c0 16.544-13.283 30-30 30-16.542 0-30-13.458-30-30 0-16.578 13.314-30 30.001-30 16.541 0 29.999 13.458 29.999 30zm-120-90v15c0 25.95 11.238 50.504 30.476 67.487-.311 2.484-.476 4.992-.476 7.513 0 33.084 26.916 60 60.001 60 18.711 0 35.732-8.52 46.86-22.456 8.508 10.602 13.139 23.672 13.139 37.456v15h-195v-180zm30 300c-8.271 0-15-6.729-15-15s6.729-15 15.001-15c8.271 0 15 6.729 15 15-.001 8.271-6.73 15-15.001 15zm42.42-30c-6.192-17.459-22.865-30-42.42-30s-36.228 12.542-42.42 30h-32.58v-60h270v60zm257.58 30c-8.272 0-15.001-6.729-15.001-15s6.729-15 15.001-15c8.271 0 15 6.729 15 15s-6.729 15-15 15zm75-30h-32.58c-6.192-17.459-22.865-30-42.42-30s-36.228 12.542-42.42 30h-32.58v-75h133.51c9.093.005 16.49 7.405 16.49 16.5z"/></g></svg>