<svg id="Capa_1" enable-background="new 0 0 512.032 512.032" height="512" viewBox="0 0 512.032 512.032" width="512" xmlns="http://www.w3.org/2000/svg"><g><path d="m395.375 258.448-50.381 49.38c-4.089 4.089-8.83 7.283-13.983 9.509v-56.327h-180.146c-20.033 0-38.868 7.801-53.031 21.965-104.157 104.121 2.508-2.511-97.834 97.836l111.212 111.211c10.504-10.504 69.135-69.136 81.013-81.014h120.953c36.169 0 71.3-14.384 96.384-39.465 81.038-81.027 94.538-94.5 102.471-102.428l-10.611-10.611c-29.274-29.272-76.692-29.348-106.047-.056zm-284.163 191.147-68.789-68.788 21.211-21.218 68.787 68.797zm277.138-99.265c-19.5 19.497-46.899 30.68-75.172 30.68h-133.38l-26.164 26.164-68.787-68.798 34.198-34.187c8.499-8.499 19.799-13.18 31.819-13.18h150.146v30.001h-121v29.999h133.164c20.006 0 38.818-7.781 52.977-21.911l50.381-49.38c14.11-14.11 34.861-16.66 51.262-8.808-24.288 24.273-55.964 55.943-79.444 79.42z"/><path d="m181.011 125.01c0 57.897 47.103 105 105 105s105-47.103 105-105-47.103-105-105-105-105 47.102-105 105zm180 0c0 41.355-33.645 75-75 75s-75-33.645-75-75 33.645-75 75-75 75 33.644 75 75z"/><path d="m271.011 125.01h-30c0 24.813 20.187 45 45 45s45-20.187 45-45h-30c0 8.271-6.729 15-15 15s-15-6.729-15-15z"/></g></svg>