<svg id="Capa_1" enable-background="new 0 0 510.265 510.265" height="512" viewBox="0 0 510.265 510.265" width="512" xmlns="http://www.w3.org/2000/svg"><g id="XMLID_443_"><path id="XMLID_1033_" d="m458.799 368.345v-77c0-88.444-56.674-163.888-135.609-191.958l16.734-18.709-19.094-21.347 2.903-28.506-28.002-6.029-14.387-24.796-26.212 11.606-26.212-11.606-14.387 24.795-28.002 6.029 2.903 28.506-19.094 21.349 16.735 18.708c-78.935 28.069-135.61 103.513-135.61 191.958v77h-35v141.92h477.334v-141.92zm-314.315 30v81.92h-33.767v-81.92zm30 0h33.766v81.92h-33.766zm63.766 0h33.766v81.92h-33.766zm63.765 0h33.766v81.92h-33.766zm63.766 0h33.767v81.92h-33.767zm-155.191-317.667 10.032-11.215-1.524-14.963 14.725-3.169 7.547-13.008 13.763 6.094 13.763-6.094 7.549 13.009 14.723 3.169-1.524 14.962 10.032 11.215-9.038 10.103c-11.533-2.036-23.396-3.103-35.504-3.103s-23.971 1.068-35.504 3.103zm-129.125 246.667h66.667v-30h-66.667v-6c0-95.76 77.906-173.667 173.667-173.667s173.667 77.907 173.667 173.667v6h-66.667v30h66.667v41h-347.334zm-35 71h34.252v81.92h-34.252zm417.334 81.92h-34.252v-81.92h34.252z"/><path id="XMLID_1045_" d="m221.465 297.345h67.334v30h-67.334z"/></g></svg>