<svg id="Capa_1" enable-background="new 0 0 510 510" height="512" viewBox="0 0 510 510" width="512" xmlns="http://www.w3.org/2000/svg"><g><path d="m453.782 113.518-198.782-107.036-198.782 107.036h-56.218v390h510v-390zm-288.782 172.5c0-12.407 10.093-22.5 22.5-22.5s22.5 10.093 22.5 22.5-10.093 22.5-22.5 22.5-22.5-10.093-22.5-22.5zm0 52.5c41.355 0 75 33.645 75 75h-150c0-41.355 33.645-75 75-75zm135-52.5c0-12.407 10.093-22.5 22.5-22.5s22.5 10.093 22.5 22.5-10.093 22.5-22.5 22.5-22.5-10.093-22.5-22.5zm45 52.5c41.355 0 75 33.645 75 75h-150c0-41.355 33.645-75 75-75zm23.56-27.333c4.102-7.477 6.44-16.053 6.44-25.167 0-28.949-23.551-52.5-52.5-52.5s-52.5 23.551-52.5 52.5c0 15.699 6.935 29.801 17.893 39.43-13.371 8.7-24.647 20.358-32.893 34.042-8.246-13.684-19.522-25.342-32.893-34.042 10.958-9.629 17.893-23.73 17.893-39.43 0-28.949-23.551-52.5-52.5-52.5s-52.5 23.551-52.5 52.5c0 9.113 2.337 17.69 6.439 25.167-19.886 4.577-37.629 14.821-51.439 28.93v-136.597h330v136.596c-13.811-14.108-31.553-24.353-51.44-28.929zm60.227-137.667h-347.574l-30-30h407.574zm-368.787 21.213v227.574l-30 30v-287.574zm21.213 248.787h347.574l30 30h-407.574zm368.787-21.213c0-13.757 0-217.932 0-227.574l30-30v287.574zm-195-381.751 135.504 72.964h-271.008z"/></g></svg>