<svg id="Capa_1" enable-background="new 0 0 512 512" height="512" viewBox="0 0 512 512" width="512" xmlns="http://www.w3.org/2000/svg"><g><path d="m421 399.595v-137.19l12.933-12.933c11.006-11.005 17.067-25.638 17.067-41.203 0-32.129-26.14-58.269-58.269-58.269v-30h30v-120h-333.462v120h30v30c-32.129 0-58.269 26.14-58.269 58.269 0 15.565 6.061 30.198 17.067 41.203l12.933 12.933v137.189l-12.933 12.933c-11.006 11.006-17.067 25.639-17.067 41.204 0 32.129 26.14 58.269 58.269 58.269h273.462c32.129 0 58.269-26.14 58.269-58.269 0-15.565-6.061-30.198-17.067-41.203zm-238.269-309.595v-60h30v60zm60-60h30v60h-30zm60 0h30v60h-30zm90 60h-30v-60h30zm-273.462-60h33.462v60h-33.462zm30 90h213.462v30h-213.462zm243.462 362h-273.462c-15.587 0-28.269-12.682-28.269-28.269 0-7.551 2.94-14.65 8.28-19.99l21.72-21.72v-162.042l-21.72-21.72c-5.34-5.34-8.28-12.439-8.28-19.99 0-15.587 12.682-28.269 28.269-28.269h273.462c15.587 0 28.269 12.682 28.269 28.269 0 7.551-2.94 14.65-8.28 19.99l-21.72 21.72v162.043l21.72 21.72c5.339 5.339 8.28 12.438 8.28 19.989 0 15.587-12.682 28.269-28.269 28.269z"/></g></svg>