<svg id="Capa_1" enable-background="new 0 0 512.005 512.005" height="512" viewBox="0 0 512.005 512.005" width="512" xmlns="http://www.w3.org/2000/svg"><path d="m145.19 403.155 43.293-15.821 263.47-263.47c17.697 14.155 43.662 13.044 60.052-3.346l-21.213-21.213c-5.893 5.893-15.483 5.893-21.376 0l-81.758-81.757c-.066-.067-.131-.132-.197-.198-11.179-11.179-26.172-17.337-42.247-17.346-16.034-.009-31.58 6.381-42.652 17.532l21.288 21.138c5.475-5.515 13.256-8.674 21.347-8.67 8.111.004 15.593 3.117 21.198 8.708l21.539 21.539-263.267 263.267-15.821 43.293 7.566 7.566-31.307 31.307-7.565-7.565-43.293 15.821-34.247 34.245 63.816 63.816 34.246-34.246 15.821-43.293-7.565-7.565 31.307-31.307zm-81.374 66.42-21.39-21.39 8.344-8.344 19.089-6.976 9.277 9.277-6.976 19.089zm366.722-366.721-21.376 21.376-21.39-21.39 21.376-21.376zm-63.979 21.199 21.39 21.39-215.991 215.99-19.088 6.976-9.277-9.277 6.975-19.088z"/></svg>