<svg id="Capa_1" enable-background="new 0 0 512.074 512.074" height="512" viewBox="0 0 512.074 512.074" width="512" xmlns="http://www.w3.org/2000/svg"><g><path d="m386.019 172.11h72.111v30h-72.111z" transform="matrix(.832 -.555 .555 .832 -32.902 265.55)"/><path d="m416.21 100.882-84.136 56.09v128.028h30v-111.972l70.777-47.185z"/><path d="m197.074 151.054h30v72.111h-30z" transform="matrix(.555 -.832 .832 .555 -61.248 259.776)"/><path d="m201.298 125.843 70.776 47.185v111.972h30v-128.028l-84.136-56.09z"/><path d="m317.074 0c-107.523 0-195 87.477-195 195 0 48.374 17.713 92.685 46.984 126.803l-31.983 31.984-21.211-21.211-115.864 115.863 63.635 63.635 115.863-115.863-21.211-21.211 31.984-31.983c34.119 29.271 78.429 46.983 126.803 46.983 107.523 0 195-87.477 195-195s-87.476-195-195-195zm-253.439 469.647-21.208-21.208 73.437-73.437 21.208 21.208zm253.439-109.647c-90.981 0-165-74.019-165-165s74.019-165 165-165 165 74.019 165 165-74.018 165-165 165z"/></g></svg>