<svg id="Capa_1" enable-background="new 0 0 510 510" height="512" viewBox="0 0 510 510" width="512" xmlns="http://www.w3.org/2000/svg"><g><path d="m502.5 30v-30h-495v30h30v30h-30v30h30v150h-30v15c0 91.015 54.371 171.099 135 206.261v48.739h180v-48.739c80.243-34.994 135-114.831 135-206.261v-15h-31.518c1.002-4.916 1.518-9.942 1.518-15 0-41.355-33.645-75-75-75-47.63 0-82.899 43.797-73.482 90h-91.518v-150h315v-30h-315v-30zm-435 0h30v30h-30zm0 60h30v150h-30zm225 350.872v39.128h-120v-39.128c-3.773-2.256-73.203-20.054-112.856-96.073 17.912 1.203 28.959-2.281 41.915-8.969 6.559-3.385 11.298-5.83 22.191-5.83 10.887 0 15.624 2.445 22.18 5.829 7.916 4.086 17.768 9.171 35.94 9.171 18.173 0 28.024-5.085 35.94-9.171 6.556-3.384 11.293-5.829 22.18-5.829 10.886 0 15.623 2.444 22.18 5.828 7.918 4.087 17.772 9.172 35.95 9.172 18.173 0 28.023-5.085 35.94-9.171 6.557-3.384 11.293-5.829 22.181-5.829 21.7 0 23.606 11.876 49.244 14.55-39.691 76.353-109.283 94.106-112.985 96.322zm125.438-125.975c-11.991.699-17.534-1.486-25.748-5.726-7.918-4.086-17.771-9.171-35.949-9.171-18.173 0-28.024 5.085-35.94 9.171-6.557 3.384-11.293 5.829-22.18 5.829-10.895 0-15.633-2.445-22.191-5.83-7.916-4.086-17.768-9.17-35.938-9.17-18.173 0-28.024 5.085-35.94 9.171-6.556 3.384-11.293 5.829-22.18 5.829s-15.624-2.445-22.18-5.829c-7.916-4.086-17.768-9.171-35.94-9.171-18.179 0-28.032 5.085-35.95 9.171-6.558 3.385-11.296 5.829-22.182 5.829-9.649 0-14.468-1.92-20.001-4.71-3.893-13.015-6.452-26.51-7.532-40.29h388.826c-1.209 15.414-4.268 30.47-8.975 44.897zm-110.438-89.897c0-24.518 19.874-45 45-45 24.813 0 45 20.186 45 45 0 5.137-.89 10.21-2.58 15h-84.84c-1.69-4.79-2.58-9.863-2.58-15zm-150 15h-30v-150h30zm0-180h-30v-30h30z"/></g></svg>