<svg id="Capa_1" enable-background="new 0 0 512 512" height="512" viewBox="0 0 512 512" width="512" xmlns="http://www.w3.org/2000/svg"><g id="Add_Selection_1_"><g><g><path d="m156.735 512-156.735-413.098 413.816 156.538-145.086 48.356 144.989 144.988-63.64 63.216-144.988-144.564zm35.244-200.103 158.101 158.101 21.213-21.213-158.1-158.1 111.128-37.038-272.517-103.137 103.137 272.515z"/></g></g><g><path d="m422 60h-30v30h-30v30h30v30h30v-30h30v-30h-30z"/><path d="m407 0c-57.897 0-105 47.103-105 105s47.103 105 105 105 105-47.103 105-105-47.103-105-105-105zm0 180c-41.355 0-75-33.645-75-75s33.645-75 75-75 75 33.645 75 75-33.645 75-75 75z"/></g></g></svg>