<svg id="Layer_1" enable-background="new 0 0 510.373 510.373" height="512" viewBox="0 0 510.373 510.373" width="512" xmlns="http://www.w3.org/2000/svg"><path d="m337.805 420.172c-19.555 0-36.228 12.541-42.42 30h-35.16c-9.998-29.645-49.182-40-72.42-18.505-13.8-12.369-33.34-14.801-49.405-7.09 5.829-12.145 5.921-26.472 0-38.81 16.054 7.705 35.596 5.287 49.405-7.09 17.111 15.337 42.906 15.322 60 0 17.111 15.337 42.906 15.322 60 0 17.111 15.337 42.906 15.322 60 0 43.384 36.416 99.906-20.167 63.505-63.505 15.337-17.111 15.322-42.906 0-60 15.337-17.111 15.322-42.906 0-60 15.337-17.111 15.322-42.906 0-60 15.337-17.111 15.322-42.906 0-60 36.416-43.384-20.167-99.906-63.505-63.505-17.111-15.337-42.906-15.322-60 0-17.111-15.337-42.906-15.322-60 0-17.111-15.337-42.906-15.322-60 0-17.111-15.337-42.906-15.322-60 0-43.384-36.416-99.906 20.167-63.505 63.505-15.337 17.111-15.322 42.906 0 60-15.337 17.111-15.322 42.906 0 60-15.337 17.111-15.322 42.906 0 60-15.337 17.111-15.322 42.906 0 60-15.337 17.111-15.322 42.906 0 60-15.337 17.111-15.322 42.906 0 60-36.662 42.831 20.457 100.141 63.505 63.505 17.111 15.337 42.906 15.322 60 0 23.962 21.478 61.787 11.474 72.42-18.505h35.16c6.192 17.458 22.865 30 42.42 30h75c24.813 0 45-20.187 45-45v-45zm-255-15c0-8.271 6.729-15 15-15 19.872.754 19.867 29.249 0 30-8.271 0-15-6.729-15-15zm0-60c0-8.271 6.729-15 15-15 19.872.754 19.867 29.249 0 30-8.271 0-15-6.729-15-15zm0-60c0-8.271 6.729-15 15-15 19.872.754 19.867 29.249 0 30-8.271 0-15-6.729-15-15zm0-60c0-8.271 6.729-15 15-15 19.872.754 19.867 29.249 0 30-8.271 0-15-6.729-15-15zm0-60c0-8.271 6.729-15 15-15 19.872.754 19.867 29.249 0 30-8.271 0-15-6.729-15-15zm0-60c0-8.271 6.729-15 15-15 19.872.754 19.867 29.249 0 30-8.271 0-15-6.729-15-15zm105-26.495c17.111 15.337 42.906 15.322 60 0 17.111 15.337 42.906 15.322 60 0 13.8 12.369 33.34 14.801 49.405 7.09-7.705 16.054-5.287 35.596 7.09 49.405-15.337 17.111-15.322 42.906 0 60-15.337 17.111-15.322 42.906 0 60-12.369 13.8-14.801 33.34-7.09 49.405-16.054-7.705-35.596-5.287-49.405 7.09-17.111-15.337-42.906-15.322-60 0-17.111-15.337-42.906-15.322-60 0-13.8-12.369-33.34-14.801-49.405-7.09 7.705-16.054 5.287-35.596-7.09-49.405 15.337-17.111 15.322-42.906 0-60 15.337-17.111 15.322-42.906 0-60 12.369-13.8 14.801-33.34 7.09-49.405 16.054 7.705 35.596 5.286 49.405-7.09zm225 26.495c0 8.271-6.729 15-15 15-19.872-.754-19.867-29.249 0-30 8.271 0 15 6.729 15 15zm0 60c0 8.271-6.729 15-15 15-19.872-.754-19.867-29.249 0-30 8.271 0 15 6.729 15 15zm0 60c0 8.271-6.729 15-15 15-19.872-.754-19.867-29.249 0-30 8.271 0 15 6.729 15 15zm0 60c0 8.271-6.729 15-15 15-19.872-.754-19.867-29.249 0-30 8.271 0 15 6.729 15 15zm-255 75c-8.271 0-15-6.729-15-15 .754-19.872 29.249-19.867 30 0 0 8.271-6.729 15-15 15zm60 0c-8.271 0-15-6.729-15-15 .754-19.872 29.249-19.867 30 0 0 8.271-6.729 15-15 15zm60 0c-8.271 0-15-6.729-15-15 .754-19.872 29.249-19.867 30 0 0 8.271-6.729 15-15 15zm60 0c-8.271 0-15-6.729-15-15 .754-19.872 29.249-19.867 30 0 0 8.271-6.729 15-15 15zm60 0c-8.271 0-15-6.729-15-15 .754-19.872 29.249-19.867 30 0 0 8.271-6.729 15-15 15zm0-330c8.271 0 15 6.729 15 15-.754 19.872-29.249 19.867-30 0 0-8.271 6.729-15 15-15zm-60 0c8.271 0 15 6.729 15 15-.754 19.872-29.249 19.867-30 0 0-8.271 6.729-15 15-15zm-60 0c8.271 0 15 6.729 15 15-.754 19.872-29.249 19.867-30 0 0-8.271 6.729-15 15-15zm-60 0c8.271 0 15 6.729 15 15-.754 19.872-29.249 19.867-30 0 0-8.271 6.729-15 15-15zm-60 0c8.271 0 15 6.729 15 15-.754 19.872-29.249 19.867-30 0 0-8.271 6.729-15 15-15zm-60 0c8.271 0 15 6.729 15 15-.754 19.872-29.249 19.867-30 0 0-8.271 6.729-15 15-15zm0 450c-8.271 0-15-6.729-15-15 .754-19.872 29.249-19.867 30 0 0 8.271-6.729 15-15 15zm60 0c-8.271 0-15-6.729-15-15 .754-19.872 29.249-19.867 30 0 0 8.271-6.729 15-15 15zm60 0c-8.271 0-15-6.729-15-15 .754-19.872 29.249-19.867 30 0 0 8.271-6.729 15-15 15zm105-15c0-8.271 6.729-15 15-15h15v30h-15c-8.271 0-15-6.729-15-15zm105 0c0 8.271-6.729 15-15 15h-30v-30h45z"/></svg>