<svg id="Capa_1" enable-background="new 0 0 510 510" height="512" viewBox="0 0 510 510" width="512" xmlns="http://www.w3.org/2000/svg"><g><path d="m435 75c-.94.12-36.361-1.73-73.887 18.927-62.56 34.439-148.415 35.13-212.226 0-37.476-20.63-72.995-18.814-73.887-18.927-41.355 0-75 33.645-75 75v210c0 41.355 33.645 75 75 75 .94-.12 36.362 1.73 73.887-18.927 62.559-34.44 148.414-35.129 212.226 0 37.478 20.63 72.995 18.814 73.887 18.927 41.355 0 75-33.645 75-75v-210c0-41.355-33.645-75-75-75zm-302.304 44.293c-5.976 18.035-22.904 30.707-42.696 30.707-20.95 0-39.024-14.73-43.768-34.572 7.806-6.506 17.836-10.428 28.768-10.428.855.105 28.04-1.438 57.696 14.293zm78.792 244.232c5.087-19.272 22.664-33.525 43.512-33.525 20.849 0 38.426 14.253 43.512 33.525-27.77-4.569-57.664-4.831-87.024 0zm268.512-3.525c0 24.814-20.187 45-45 45-.882-.112-29.085 1.492-59.419-15.208-14.308-7.877-29.645-14.251-45.71-19.053-2.217-39.38-34.946-70.739-74.871-70.739-39.924 0-72.654 31.359-74.871 70.739-16.065 4.802-31.402 11.177-45.709 19.053-30.297 16.679-58.584 15.102-59.42 15.208-24.813 0-45-20.186-45-45v-209.999c35.346 47.042 108.782 36.921 129.925-17.771 66.911 26.684 150.458 23.871 215.655-12.022 30.297-16.679 58.584-15.102 59.42-15.208 24.813 0 45 20.187 45 45z"/><path d="m165 195c-24.813 0-45 20.186-45 45s20.187 45 45 45 45-20.186 45-45-20.187-45-45-45zm0 60c-8.271 0-15-6.729-15-15s6.729-15 15-15 15 6.729 15 15-6.729 15-15 15z"/><path d="m405 270c-24.814 0-45 20.186-45 45s20.186 45 45 45c24.813 0 45-20.186 45-45s-20.187-45-45-45zm0 60c-8.272 0-15-6.728-15-15s6.728-15 15-15c8.271 0 15 6.728 15 15s-6.729 15-15 15z"/><path d="m75 330h30v30h-30z"/><path d="m405 165h30v30h-30z"/><path d="m330 210h30v30h-30z"/><path d="m60 255h30v30h-30z"/><path d="m255 180h30v30h-30z"/></g></svg>