<svg id="Capa_1" enable-background="new 0 0 509.088 509.088" height="512" viewBox="0 0 509.088 509.088" width="512" xmlns="http://www.w3.org/2000/svg"><g><path d="m477.268 137.886 31.82-31.82-21.213-21.213-31.82 31.82-21.213-21.214 31.82-31.82-21.213-21.213-31.82 31.82-21.214-21.214 31.82-31.819-21.213-21.213-31.82 31.819-21.213-21.213-48.608 48.607c-44.761.723-87.622 23.771-113.121 61.269l-74.861 115.858c-21.919 32.343-25.291 72.61-11.445 107.154l-18.831 18.831c-13.827 13.828-16.748 34.485-8.781 51.208l-74.342 74.342 21.213 21.213 74.342-74.342c16.731 7.97 37.372 5.055 51.208-8.782l18.819-18.819c34.501 13.832 74.777 10.495 107.165-11.456l115.562-74.666.294-.195c37.498-25.499 60.547-68.369 61.269-113.121l48.607-48.607zm-351.718 266.865c-5.849 5.849-15.365 5.849-21.214 0-5.848-5.849-5.848-15.365 0-21.213l13.004-13.004c6.128 7.986 13.217 15.077 21.214 21.214zm246.327-108.827c-1.485.96 15.33-9.906-115.846 74.854-33.599 22.847-78.836 18.576-107.568-10.153-28.73-28.73-33-73.969-10.153-107.568l74.854-115.846c19.951-29.239 53.301-47.277 88.14-48.01l118.582 118.582c-.735 34.837-18.772 68.192-48.009 88.141zm62.965-115.612-106.066-106.066 21.213-21.213 106.065 106.066z"/><path d="m243.923 201.525-53.033 53.033c-17.545 17.546-17.545 46.094 0 63.639 17.585 17.586 46.051 17.589 63.639 0l53.033-53.033c17.586-17.586 17.589-46.052 0-63.64-17.546-17.546-46.014-17.624-63.639.001zm42.427 42.426c-5.862 5.861-15.35 5.863-21.213 0-5.844-5.844-5.924-15.397.124-21.325 5.594-5.469 14.225-5.6 19.961-.908 6.904 5.639 7.4 15.961 1.128 22.233zm-53.034 53.034c-5.861 5.861-15.349 5.862-21.213 0-5.848-5.849-5.848-15.365 0-21.213l23.019-23.019c4.417 9.23 11.964 16.786 21.213 21.213z"/></g></svg>