<svg id="Capa_1" enable-background="new 0 0 510 510" height="512" viewBox="0 0 510 510" width="512" xmlns="http://www.w3.org/2000/svg"><g><path d="m386.188 240c12.086-17.346 18.812-38.182 18.812-60 0-41.855-24.62-78.064-60.136-94.919-2.563-47.347-41.888-85.081-89.864-85.081-46.514 0-84.899 35.469-89.531 80.78-11.713-13.578-29.139-21.512-48.027-20.716-6.174-17.492-22.863-30.064-42.442-30.064h-30v30h30c6.08 0 11.315 3.643 13.669 8.854-41.134 25.291-37.121 86.196 6.628 105.861-6.738 21.859-6.831 44.703-1.523 65.284h-48.774v15c0 57.897 47.102 105 105 105h60v61.51c-34.192 6.968-60 37.271-60 73.49v15h210v-15c0-36.22-25.808-66.522-60-73.49v-61.509h60c57.897 0 105-47.103 105-105v-15zm-11.188-60c0 23.736-11.139 45.854-30.001 60h-18.772c12.799-49.629-7.339-102.355-51.1-130.742 7.942-2.79 16.356-4.258 24.873-4.258 41.355 0 75 33.645 75 75zm-120-150c28.205 0 51.914 19.568 58.297 45.839-26.549-3.37-52.546 3.581-73.25 17.971-14.663-3.794-29.982-4.759-45.032-2.876-.519-33.63 26.702-60.934 59.985-60.934zm-165 90c0-16.542 13.458-30 30-30 12.134 0 22.668 7.162 27.377 17.676-16.149 9.92-29.781 23.553-39.701 39.701-10.514-4.709-17.676-15.243-17.676-27.377zm120 0c62.362 0 105.456 61.981 84.879 120h-169.758c-20.601-58.087 22.582-120 84.879-120zm117.43 360h-144.86c6.19-17.461 22.873-30 42.43-30h60c19.557 0 36.239 12.539 42.43 30zm-57.43-60h-30v-60h30zm90-90c-9.955 0-199.817 0-210 0-36.219 0-66.523-25.81-73.493-60h356.986c-6.97 34.19-37.274 60-73.493 60z"/><path d="m225 165h30v30h-30z"/><path d="m165 180h30v30h-30z"/></g></svg>