<svg id="Capa_1" enable-background="new 0 0 512 512" height="512" viewBox="0 0 512 512" width="512" xmlns="http://www.w3.org/2000/svg"><g><path d="m488.556 23.444c-20.783-20.782-53.041-28.083-90.836-20.556-33.651 6.701-66.647 24.24-90.527 48.12-23.785 23.785-35.62 51.455-34.225 80.02 1.063 21.765 9.628 42.907 24.939 61.851l-21.055 21.055-24.441-24.44-237.927 237.925c-19.317 19.317-19.317 50.749.03 70.094 9.659 9.659 22.342 14.487 35.031 14.487 12.685 0 25.374-4.83 35.031-14.487l237.93-237.927-24.441-24.441 21.055-21.055c18.944 15.311 40.086 23.876 61.852 24.939 1.512.074 3.016.111 4.522.111 26.956 0 52.972-11.809 75.498-34.335 23.88-23.88 41.419-56.875 48.121-90.525 7.526-37.794.225-70.053-20.557-90.836zm-425.192 452.857c-7.621 7.622-20.019 7.619-27.668-.029-7.62-7.621-7.62-20.021 0-27.641l174.04-174.038 27.669 27.668zm195.253-195.252-27.669-27.668 21.464-21.463 27.669 27.669zm123.817-71.982c-18.581-.907-36.997-9.982-53.259-26.243-16.261-16.261-25.336-34.678-26.244-53.259-.561-11.477 1.975-22.671 7.562-33.486 9.41 22.146 23.976 43.329 43.037 62.389 19.061 19.061 40.245 33.627 62.391 43.037-10.813 5.586-22.008 8.121-33.487 7.562zm97.257-100.646c-5.12 25.711-18.442 51.885-36.032 71.114-24.256-6.796-47.932-21.294-68.916-42.279-20.984-20.984-35.482-44.66-42.279-68.915 19.23-17.59 45.404-30.912 71.115-36.033 27.247-5.425 50.491-.926 63.765 12.348 13.273 13.274 17.774 36.515 12.347 63.765z"/></g></svg>