<svg id="Capa_1" enable-background="new 0 0 512 512" height="512" viewBox="0 0 512 512" width="512" xmlns="http://www.w3.org/2000/svg"><g><path d="m481 452v-32.024c20.295-32.006 31-67.858 31-103.976 0-85.55-55.823-157.615-131.74-184.154-26.494-76.662-99.081-131.846-184.26-131.846-107.799 0-196 88.214-196 196 0 36.118 10.705 71.97 31 103.976v31.024c0 16.262-14.196 30-31 30v30h46c22.695 0 44.538-7.272 62.561-20.664 7.529 3.777 15.299 7.035 23.241 9.798 26.474 75.905 98.521 131.866 184.198 131.866 30.424 0 60.44-7.119 87.439-20.664 18.024 13.392 39.866 20.664 62.561 20.664h46v-30c-16.804 0-31-13.738-31-30zm-376.275-118.086c-4.47 3.179-20.085 23.849-51.793 26.768 5.265-8.963 8.068-19.122 8.068-29.682v-39.998c-1.219-2.492-31-39.851-31-95.002 0-91.533 74.467-166 166-166 90.981 0 165 74.467 165 166 0 90.981-74.019 165-165 165-53.05 0-85.843-24.734-91.275-27.086zm302.55 121c-5.121 2.218-38.305 27.086-91.275 27.086-62.928 0-120.516-37.168-148.045-93.028 9.258 1.343 18.632 2.028 28.045 2.028 107.523 0 195-87.477 195-195 0-9.517-.692-18.874-2.003-28.032 55.845 27.534 93.003 85.114 93.003 148.032 0 54.781-29.808 92.565-31 95.002v40.998c0 10.563 2.821 20.717 8.089 29.682-31.706-2.912-47.322-23.574-51.814-26.768z"/><path d="m91 181h210v30h-210z"/><path d="m91 121h210v30h-210z"/><path d="m91 241h210v30h-210z"/></g></svg>