<svg id="Capa_1" enable-background="new 0 0 512 512" height="512" viewBox="0 0 512 512" width="512" xmlns="http://www.w3.org/2000/svg"><path d="m477.104 351.956c12.983-29.887 19.833-62.391 19.833-95.956 0-64.357-25.062-124.861-70.569-170.369-45.507-45.506-106.011-70.568-170.368-70.568-27.61 0-54.503 4.631-79.813 13.494-10.378-17.104-29.178-28.557-50.605-28.557-11.954 0-23.504 3.624-33.217 10.221-9.712-6.597-21.262-10.221-33.216-10.221-32.615 0-59.148 26.533-59.148 59.147-.161 25.163 16.282 49.991 47.797 75.445-21.341 36.452-32.735 78.05-32.735 121.408 0 64.357 25.062 124.861 70.569 170.369 45.507 45.507 106.012 70.569 170.369 70.569 38.029 0 74.705-8.767 107.743-25.318 14.501 13.276 33.202 26.69 55.887 40.381 56.014-33.927 92.899-68.974 92.364-106.121-.001-23.972-14.343-44.643-34.891-53.924zm-221.104-306.893c89.813 0 166.682 56.428 197.052 135.688h-46.43c-24.88 0-45.122 20.241-45.122 45.126 0 8.338-6.784 15.122-15.128 15.122-8.338 0-15.122-6.784-15.122-15.122v-60.252c0-24.88-20.242-45.122-45.128-45.122-24.88 0-45.122 20.242-45.122 45.128 0 8.338-6.784 15.122-15.128 15.122-8.338 0-15.122-6.784-15.122-15.122v-30.126c0-21.367-14.931-39.3-34.903-43.947 5.907-10.637 9.041-21.431 8.883-32.41 0-.552-.027-1.098-.042-1.647 22.286-8.035 46.291-12.438 71.312-12.438zm-196.851-15.063c14.838-.629 24.908 13.083 33.217 22.853 7.931-9.267 18.618-23.815 33.217-22.853 16.072 0 29.147 13.076 29.147 29.147 0 19.494-21.517 43.815-62.364 70.61-40.848-26.794-62.364-51.116-62.364-70.61-.001-16.071 13.075-29.147 29.147-29.147zm-13.547 241h59.776c8.338 0 15.122 6.784 15.122 15.136 0 24.88 20.242 45.122 45.122 45.122h120.506c8.338 0 15.122 6.784 15.122 15.122s-6.784 15.122-15.122 15.122h-30.132c-24.88 0-45.122 20.241-45.122 45.122v55.44c-89.962-19.686-158.626-96.943-165.272-191.064zm195.273 195.39v-59.767c0-8.338 6.784-15.122 15.122-15.122h30.132c24.88 0 45.121-20.242 45.121-45.122s-20.242-45.122-45.122-45.122h-120.506c-8.338 0-15.122-6.784-15.122-15.135 0-24.88-20.242-45.122-45.122-45.122h-59.78c2.259-31.982 11.679-62.015 26.663-88.507 6.312 4.234 13.005 8.491 20.104 12.775 24.314-14.727 45.016-29.664 60.625-44.893h12.63c8.342 0 15.129 6.787 15.129 15.129v30.126c0 24.88 20.242 45.122 45.128 45.122 24.88 0 45.122-20.242 45.122-45.128 0-8.338 6.784-15.122 15.127-15.122 8.338 0 15.122 6.784 15.122 15.122v60.252c0 24.88 20.242 45.122 45.128 45.122 24.88 0 45.122-20.242 45.122-45.126 0-8.338 6.784-15.122 15.122-15.122h55.413c3.2 14.583 4.902 29.72 4.902 45.249 0 32.617-7.47 63.512-20.746 91.108-9.555 1.083-18.666 4.482-26.562 9.845-9.712-6.597-21.263-10.221-33.217-10.221-32.614 0-59.147 26.533-59.147 59.147-.091 14.2 5.11 28.293 15.316 42.452-26.431 11.947-55.742 18.606-86.582 18.606-5.083.002-10.125-.19-15.122-.546zm178.755 10.099c-40.848-26.794-62.364-51.116-62.364-70.61 0-16.072 13.076-29.147 29.147-29.147 14.838-.629 24.908 13.083 33.217 22.853 7.931-9.267 18.618-23.815 33.217-22.853 16.072 0 29.147 13.076 29.147 29.147 0 19.495-21.516 43.816-62.364 70.61z"/></svg>