<svg id="Capa_1" enable-background="new 0 0 512 512" height="512" viewBox="0 0 512 512" width="512" xmlns="http://www.w3.org/2000/svg"><g><path d="m30 51.213 62.824 62.824 21.213-21.213-62.824-62.824h38.787v-30h-90v90h30z"/><path d="m482 460.787-62.824-62.824-21.213 21.213 62.824 62.824h-38.787v30h90v-90h-30z"/><path d="m422 0v30h38.787l-62.824 62.824 21.213 21.213 62.824-62.824v38.787h30v-90z"/><path d="m92.824 397.963-62.824 62.824v-38.787h-30v90h90v-30h-38.787l62.824-62.824z"/><path d="m421.933 160.199-165.933-95.802-165.933 95.802v191.603l165.933 95.801 165.933-95.801zm-180.933 104.461v139.642l-45.466-26.25v-139.642zm15-25.98-45.466-26.25 120.933-69.821 45.466 26.25zm45.467-113.392-120.933 69.821-45.467-26.25 120.933-69.821zm-181.4 69.552 45.466 26.25v139.641l-45.466-26.25zm150.933 209.462v-139.642l120.933-69.821v139.641z"/></g></svg>