<?xml version="1.0" encoding="iso-8859-1"?>
<!-- Generator: Adobe Illustrator 19.0.0, SVG Export Plug-In . SVG Version: 6.00 Build 0)  -->
<svg xmlns="http://www.w3.org/2000/svg" xmlns:xlink="http://www.w3.org/1999/xlink" version="1.1" id="Layer_1" x="0px" y="0px" viewBox="0 0 511.999 511.999" style="enable-background:new 0 0 511.999 511.999;" xml:space="preserve">
<g>
	<g>
		<path d="M480.612,90.368c-14.045-40.77-42.723-70.766-78.681-82.297c-68.313-21.905-124.484,6.26-145.93,19.745    c-21.45-13.485-77.626-41.649-145.932-19.745c-35.974,11.536-64.658,41.55-78.697,82.345    c-18.461,53.647-9.165,115.527,24.869,165.53c22.738,33.406,37.585,71.104,42.937,109.019c0.308,2.187,0.611,4.422,0.905,6.708    c5.153,39.978,12.743,72.063,22.558,95.366c11.758,27.915,26.926,42.99,45.086,44.806c1.033,0.103,2.054,0.155,3.069,0.154    c17.873-0.001,32.81-16.042,44.43-47.745c8.591-23.437,15.363-54.843,19.07-88.432c2.073-18.785,6.92-33.994,14.018-43.984    c2.541-3.576,6.222-3.962,7.687-3.962c1.465,0,5.146,0.386,7.687,3.961c7.098,9.991,11.945,25.2,14.018,43.985    c3.707,33.59,10.479,64.995,19.07,88.432c11.621,31.705,26.555,47.746,44.43,47.745c1.013,0,2.037-0.052,3.069-0.154    c18.159-1.816,33.328-16.891,45.086-44.806c9.815-23.303,17.405-55.389,22.558-95.366c0.283-2.201,0.574-4.356,0.871-6.467    c5.344-37.982,20.228-75.801,43.044-109.368C489.818,205.839,499.08,143.981,480.612,90.368z M431.083,239.016    c-25.377,37.334-41.95,79.528-47.928,122.021c-0.313,2.223-0.619,4.493-0.918,6.811c-10.489,81.373-30.035,112.784-40.753,114.199    c-2.25-0.797-9.951-8.199-18.229-32.688c-7.015-20.752-12.628-48.033-15.804-76.818c-2.667-24.175-9.183-43.7-19.368-58.035    c-7.365-10.366-19.358-16.553-32.082-16.553c-12.723,0-24.716,6.188-32.082,16.554c-10.185,14.334-16.701,33.859-19.368,58.034    c-3.177,28.785-8.79,56.066-15.805,76.818c-8.278,24.489-15.979,31.891-18.229,32.688c-10.719-1.414-30.265-32.825-40.754-114.197    c-0.31-2.406-0.628-4.76-0.954-7.066c-5.988-42.428-22.527-84.503-47.829-121.676c-28.751-42.241-36.718-94.186-21.311-138.954    c10.939-31.784,32.639-54.961,59.538-63.586c29.296-9.395,59.503-8.792,89.782,1.788c23.128,8.082,37.641,19.261,37.749,19.345    l9.24,7.225l9.249-7.197c0.144-0.112,14.657-11.291,37.785-19.373c30.279-10.581,60.485-11.183,89.781-1.788    c26.887,8.622,48.582,31.784,59.524,63.547C467.729,144.854,459.792,196.78,431.083,239.016z"/>
	</g>
</g>
<g>
	<g>
		<path d="M401.643,124.074c-9.363-27.142-28.587-47.152-52.742-54.898c-41.901-13.437-76.912,1.815-92.9,11.142    c-15.991-9.327-51.005-24.578-92.902-11.142c-24.138,7.741-43.357,27.733-52.726,54.848    c-12.128,35.102-6.155,75.577,15.979,108.269c14.118,20.855,23.278,44.672,26.484,68.848l0.059,0.46V402.94h29.926v-97.328    c8.823-10.87,38.106-43.303,73.178-43.303c35.31,0,64.323,32.284,73.152,43.242v97.389h29.926V301.805l0.085-0.652    c3.216-24.25,12.349-48.024,26.412-68.752C407.756,199.706,413.763,159.209,401.643,124.074z M360.81,215.6    c-11.087,16.342-19.592,34.311-25.169,53.004c-17.75-16.704-45.743-36.221-79.641-36.221c-33.905,0-61.9,19.523-79.65,36.229    c-5.584-18.683-14.104-36.681-25.218-53.096c-16.877-24.93-21.54-55.478-12.474-81.719c6.262-18.123,18.501-31.29,33.578-36.125    c8.642-2.771,16.894-3.87,24.553-3.87c28.621,0,48.926,15.35,49.948,16.138l9.262,7.3l9.262-7.3    c0.325-0.257,33.09-25.548,74.501-12.268c15.089,4.839,27.332,18.018,33.59,36.161C382.415,160.1,377.726,190.668,360.81,215.6z"/>
	</g>
</g>
<g>
</g>
<g>
</g>
<g>
</g>
<g>
</g>
<g>
</g>
<g>
</g>
<g>
</g>
<g>
</g>
<g>
</g>
<g>
</g>
<g>
</g>
<g>
</g>
<g>
</g>
<g>
</g>
<g>
</g>
</svg>
