<svg id="Capa_1" enable-background="new 0 0 512 512" height="512" viewBox="0 0 512 512" width="512" xmlns="http://www.w3.org/2000/svg"><g><path d="m336.33 32.793-160.66-29.993-175.67 32.793v476.407l175.67-32.793 160.66 29.993 175.67-32.793v-476.407zm-175.66 3.319v30.488l-130.67 24.393v-30.489zm-130.67 318.881v-173.489l130.67-24.393v173.489zm130.67 6.119v29.488l-130.67 24.393v-29.489zm-130.67-210.119v-29.489l130.67-24.393v29.489zm0 324.895v-30.384l130.67-24.393v32.178zm291.33.187-130.66-22.766v-417.197l130.66 24.392v52.876c-33.073 4.563-61.609 24.335-77.817 54.533-18.422 34.322-17.097 74.457 3.543 107.36l74.274 118.397zm-48.861-216.744c-14.839-23.655-15.783-52.526-2.523-77.23 12.979-24.181 36.963-39.029 64.158-39.718.74-.019 1.482-.028 2.227-.028s1.487.009 2.227.028c27.194.689 51.178 15.537 64.157 39.718 13.259 24.704 12.315 53.575-2.524 77.23l-63.86 101.797zm209.531 192.165-130.67 24.393v-82.219l74.273-118.397c20.641-32.903 21.966-73.037 3.544-107.36-16.208-30.198-44.744-49.97-77.817-54.533v-52.876l130.67-24.392z"/><path d="m336.33 183.354c-24.813 0-45 20.187-45 45s20.187 45 45 45 45-20.187 45-45-20.187-45-45-45zm0 60c-8.271 0-15-6.729-15-15s6.729-15 15-15 15 6.729 15 15-6.729 15-15 15z"/></g></svg>