<svg id="Capa_1" enable-background="new 0 0 512 512" height="512" viewBox="0 0 512 512" width="512" xmlns="http://www.w3.org/2000/svg"><g><path d="m256 84.595c-57.897 0-105 47.103-105 105s47.103 105 105 105 105-47.103 105-105-47.103-105-105-105zm-75 105c0-41.355 33.645-75 75-75 15.264 0 29.47 4.594 41.33 12.458l-103.872 103.872c-7.864-11.86-12.458-26.066-12.458-41.33zm75 75c-15.264 0-29.47-4.594-41.33-12.458l103.872-103.872c7.863 11.859 12.458 26.065 12.458 41.33 0 41.355-33.645 75-75 75z"/><path d="m417.523 97.67c-31.497-60-90.572-96.501-158.026-97.641-2.326-.039-4.665-.039-6.996 0-67.452 1.14-126.527 37.641-158.024 97.641-14.976 28.527-22.344 60.407-21.307 92.193 1.1 33.756 11.794 66.796 30.924 95.549l90.877 136.588h-88.971v90h300v-90h-88.971l90.877-136.587c19.13-28.753 29.824-61.793 30.924-95.549 1.037-31.787-6.331-63.667-21.307-92.194zm-281.523 384.33v-30h78.931l19.96 30zm240-30v30h-98.891l19.96-30zm6.929-183.206-126.929 190.774-126.929-190.774c-31.691-47.632-34.694-106.391-8.032-157.181 26.32-50.137 75.654-80.637 131.966-81.588.996-.017 1.995-.025 2.995-.025s1.999.008 2.992.025c56.315.951 105.649 31.452 131.969 81.588 26.662 50.79 23.66 109.55-8.032 157.181z"/></g></svg>