<svg id="Capa_1" enable-background="new 0 0 512 512" height="512" viewBox="0 0 512 512" width="512" xmlns="http://www.w3.org/2000/svg"><g><path d="m146.066 416.369v95.631h210v-121h120v-15c0-8.271 6.729-15 15-15h15v-90h-15c-8.271 0-15-6.729-15-15v-15h-90v-181h-60v-30h-60v-30h-90v30h-60v177.892l-1.273-1.843c-11.057-16.514-28.753-26.886-48.571-28.46-19.866-1.578-39.013 5.907-52.543 20.532l-7.746 8.373 105.954 171.346c9.105 14.874 20.58 27.804 34.179 38.529zm302.571-145.369c4.527 12.768 14.662 22.903 27.43 27.43v35.141c-12.768 4.527-22.903 14.662-27.43 27.43h-95.141c-4.527-12.768-14.662-22.903-27.43-27.43v-35.141c12.768-4.527 22.903-14.662 27.43-27.43zm-384.79-63.505c10.639.845 20.137 6.423 26.057 15.303l56.162 81.31v-244.108h30v151h30c0-10.89 0-170.568 0-181h30v181h30v-151h30v151h30v-121h30v151h-30v15c0 8.271-6.729 15-15 15h-15v90h15c8.271 0 15 6.729 15 15v46h-60v30h60v30h-150v-80.921c-3.533-2.952-23.018-13.46-38.628-38.958l-93.036-150.457c5.849-3.232 12.567-4.714 19.445-4.169z"/><path d="m386.066 301h30v30h-30z" transform="matrix(.707 -.707 .707 .707 -105.975 376.163)"/></g></svg>