<svg id="Layer_1" enable-background="new 0 0 509.786 509.786" height="512" viewBox="0 0 509.786 509.786" width="512" xmlns="http://www.w3.org/2000/svg"><g><path d="m449.893 119.786h-30.975l-3.067-28.97c-3.345-31.583-27.683-56.112-58.314-60.371-16.824-47.606-86.642-36.768-87.644 14.341.893 50.107 68.797 62.005 87.035 16.039 15.447 3.673 27.348 16.705 29.089 33.148l2.733 25.812h-267.714l2.733-25.812c1.741-16.443 13.642-29.476 29.089-33.148 18.248 45.972 86.146 34.06 87.035-16.041-1.006-51.116-70.829-61.939-87.644-14.34-30.632 4.259-54.97 28.788-58.314 60.371l-3.067 28.97h-30.975v90h30v300h330v-300h30zm-135-60c-8.272 0-15-6.729-15-15 .753-19.872 29.25-19.867 30 0 0 8.271-6.729 15-15 15zm-120-30c8.271 0 15 6.729 15 15-.753 19.872-29.25 19.867-30 0 0-8.272 6.728-15 15-15zm195 450h-270v-270h270zm30-300h-330v-30h330z"/><path d="m254.893 449.786c57.897 0 105-47.102 105-105-5.278-139.106-204.743-139.068-210 .001 0 57.896 47.102 104.999 105 104.999zm-60.646-60.949 45.646-20.753v50.192c-18.661-3.803-34.813-14.565-45.646-29.439zm75.646 29.439v-50.192l45.645 20.753c-10.833 14.874-26.984 25.636-45.645 29.439zm60-73.49c0 5.76-.675 11.362-1.91 16.754l-58.09-26.412v-63.832c34.192 6.967 60 37.27 60 73.49zm-90-73.49v63.832l-58.09 26.412c-9.931-40.577 18.146-82.762 58.09-90.244z"/></g></svg>