<svg id="Capa_1" enable-background="new 0 0 512 512" height="512" viewBox="0 0 512 512" width="512" xmlns="http://www.w3.org/2000/svg"><g><path d="m438.093 16.411c-15.372-10.583-35.537-16.411-56.781-16.411s-41.409 5.828-56.781 16.411c-11.893 8.187-20.18 18.887-24.034 30.589h-43.87v-30h-90v90h-30v78.102c-54.508 27.997-89.21 84.306-89.21 146.108 0 52.189 24.644 100.886 66.316 131.846v48.944h195.79v-48.944c41.672-30.959 66.315-79.656 66.315-131.846 0-61.802-34.703-118.112-89.21-146.108v-78.102h-30v-30h43.87c3.854 11.702 12.142 22.402 24.034 30.589 15.371 10.583 35.536 16.411 56.78 16.411s41.409-5.828 56.781-16.411c16.835-11.589 26.49-28.206 26.49-45.589s-9.655-34-26.49-45.589zm-181.466 163.155h-30v-42.566h30zm-60-42.566v42.566h-30v-42.566zm-41.709 72.566h41.709v106.644h-118.369c5.184-46.155 34.048-86.753 76.66-106.644zm131.26 233.256-6.656 4.456v34.722h-135.79v-34.722l-6.656-4.456c-33.156-22.195-54.438-57.561-58.809-96.612h118.359v60h30v-60h118.359c-4.37 39.051-25.652 74.417-58.807 96.612zm58.818-126.612h-118.369v-106.644h41.709c42.612 19.891 71.476 60.489 76.66 106.644zm-148.369-209.21v-60h30v60zm184.685-13c-28.378 0-53.272-14.953-53.272-32s24.894-32 53.272-32 53.271 14.953 53.271 32-24.893 32-53.271 32z"/></g></svg>