<?xml version="1.0" encoding="iso-8859-1"?>
<!-- Generator: Adobe Illustrator 19.0.0, SVG Export Plug-In . SVG Version: 6.00 Build 0)  -->
<svg xmlns="http://www.w3.org/2000/svg" xmlns:xlink="http://www.w3.org/1999/xlink" version="1.1" id="Layer_1" x="0px" y="0px" viewBox="0 0 512 512" style="enable-background:new 0 0 512 512;" xml:space="preserve">
<g>
	<g>
		<path d="M227.556,22.756H0v364.089h238.933v68.267H153.6v34.133h204.8v-34.133h-85.333v-68.267H512V238.933V22.756H227.556z     M477.867,352.711H34.133V56.889h193.422v182.044h250.311V352.711z M477.867,204.8H261.689V56.889h216.178V204.8z"/>
	</g>
</g>
<g>
	<g>
		<path d="M369.778,91.022c-21.958,0-39.822,17.864-39.822,39.822c0,21.958,17.864,39.822,39.822,39.822    c21.958,0,39.822-17.864,39.822-39.822C409.6,108.886,391.736,91.022,369.778,91.022z"/>
	</g>
</g>
<g>
	<g>
		<rect x="102.4" y="119.467" width="34.133" height="159.289"/>
	</g>
</g>
<g>
</g>
<g>
</g>
<g>
</g>
<g>
</g>
<g>
</g>
<g>
</g>
<g>
</g>
<g>
</g>
<g>
</g>
<g>
</g>
<g>
</g>
<g>
</g>
<g>
</g>
<g>
</g>
<g>
</g>
</svg>
