<svg id="Capa_1" enable-background="new 0 0 512 512" height="512" viewBox="0 0 512 512" width="512" xmlns="http://www.w3.org/2000/svg"><g><path d="m437.02 74.98c-48.353-48.351-112.64-74.98-181.02-74.98s-132.667 26.629-181.02 74.98c-48.351 48.353-74.98 112.64-74.98 181.02s26.629 132.667 74.98 181.02c48.353 48.351 112.64 74.98 181.02 74.98s132.667-26.629 181.02-74.98c48.351-48.353 74.98-112.64 74.98-181.02s-26.629-132.667-74.98-181.02zm-181.02 407.02c-124.617 0-226-101.383-226-226s101.383-226 226-226 226 101.383 226 226-101.383 226-226 226z"/><path d="m177.313 174.934h-101.077v30h51.097c-4.27 7.963-6.699 17.054-6.699 26.704 0 31.267 25.438 56.704 56.704 56.704s56.704-25.438 56.704-56.704-25.463-56.704-56.729-56.704zm.025 83.408c-14.725 0-26.704-11.979-26.704-26.704s11.979-26.704 26.704-26.704 26.704 11.979 26.704 26.704-11.979 26.704-26.704 26.704z"/><path d="m385.669 174.934h-101.076v30h51.097c-4.27 7.963-6.699 17.054-6.699 26.704 0 31.267 25.438 56.704 56.704 56.704s56.704-25.438 56.704-56.704-25.463-56.704-56.73-56.704zm.026 83.408c-14.725 0-26.704-11.979-26.704-26.704s11.979-26.704 26.704-26.704 26.704 11.979 26.704 26.704-11.98 26.704-26.704 26.704z"/><path d="m335.451 352.039c-5.971 5.971-13.91 9.259-22.354 9.259h-108.608v30h108.607c16.458 0 31.93-6.409 43.567-18.046l31.539-31.539-21.213-21.213z"/></g></svg>