<svg id="Capa_1" enable-background="new 0 0 512.005 512.005" height="512" viewBox="0 0 512.005 512.005" width="512" xmlns="http://www.w3.org/2000/svg"><g><path d="m210.755 136.812c0-41.493-33.757-75.25-75.25-75.25s-75.25 33.757-75.25 75.25 33.757 75.25 75.25 75.25 75.25-33.757 75.25-75.25zm-120.5 0c0-24.951 20.299-45.25 45.25-45.25s45.25 20.299 45.25 45.25-20.299 45.25-45.25 45.25-45.25-20.299-45.25-45.25z"/><path d="m255.005 251.349 181.361-38.863 75.639 20.244v-191.835l-75.639 20.244-270.936-58.058c-87.626-18.518-165.578 49.238-165.425 133.731-.496 53.415 32.635 104.103 82.116 125.416l-23.223 189.52h61.904v15.125c0 24.882 20.243 45.125 45.125 45.125h180.453c24.882 0 45.125-20.243 45.125-45.125s-20.243-45.125-45.125-45.125h-30.125c-8.34 0-15.125-6.785-15.125-15.125s6.785-15.125 15.125-15.125h195.75v-30h-195.75c-24.882 0-45.125 20.243-45.125 45.125s20.243 45.125 45.125 45.125h30.125c8.34 0 15.125 6.785 15.125 15.125s-6.785 15.125-15.125 15.125h-180.453c-8.34 0-15.125-6.785-15.125-15.125v-15.125h61.945l-15.062-120.5h57.321v-79.899zm182.139-159.363 44.861-12.006v113.665l-44.861-12.006-45.639 9.78v-109.213zm-407.139 44.826c.001-70.774 66.24-118.316 129.138-104.398l202.362 43.363v122.069l-202.361 43.364c-68.471 14.579-129.354-38.838-129.139-104.398zm62.793 284.936 18.444-150.512c8.312 1.575 16.782 2.379 25.312 2.379 7.787 0 15.627-.679 23.438-2.03l18.771 150.164h-85.965zm101.137-120.5-4.481-35.852 35.552-7.618v43.47z"/></g></svg>