<svg id="Capa_1" enable-background="new 0 0 512 512" height="512" viewBox="0 0 512 512" width="512" xmlns="http://www.w3.org/2000/svg"><g><path d="m351.664 95.664c-14.622 0-28.792 1.972-42.261 5.656-23.555-59.289-81.488-101.32-149.067-101.32-88.41 0-160.336 71.926-160.336 160.336 0 35.824 11.817 68.935 31.748 95.658-19.934 26.723-31.748 59.842-31.748 95.67 0 88.41 71.926 160.336 160.336 160.336 67.583 0 125.532-42.032 149.084-101.328 13.464 3.685 27.626 5.664 42.244 5.664 88.41 0 160.336-71.926 160.336-160.336s-71.926-160.336-160.336-160.336zm-191.328-65.664c54.77 0 101.745 33.964 121.001 81.932-35.699 17.5-63.976 47.887-78.742 85.059-13.47-3.684-27.636-5.663-42.259-5.663-41.553 0-79.462 15.891-107.976 41.913-14.106-20.823-22.36-45.916-22.36-72.905 0-71.868 58.468-130.336 130.336-130.336zm0 452c-71.868 0-130.336-58.468-130.336-130.336s58.468-130.336 130.336-130.336 130.336 58.469 130.336 130.336-58.468 130.336-130.336 130.336zm191.328-95.664c-11.707 0-23.058-1.554-33.858-4.464 1.874-9.787 2.867-19.883 2.867-30.208 0-63.197-36.757-117.964-90.01-144.066 19.255-47.969 66.231-81.934 121.002-81.934 71.867 0 130.335 58.468 130.335 130.336s-58.468 130.336-130.336 130.336z"/><g><g><path d="m104.034 329.918-27.982-10.817c10.149-26.253 32.344-46.548 59.371-54.29l8.26 28.841c-18.047 5.168-32.869 18.726-39.649 36.266z"/></g></g></g></svg>