<svg id="Capa_1" enable-background="new 0 0 512 512" height="512" viewBox="0 0 512 512" width="512" xmlns="http://www.w3.org/2000/svg"><g><path d="m319.241 312.53v-267.575c0-24.788-20.187-44.955-45-44.955h-139.6v.065c-.858-.033-1.716-.065-2.582-.065-36.58 0-66.34 29.726-66.34 66.264v445.736h162.682v-47.443c3.451.52 6.984.79 10.578.79h207.302v-152.817zm-45-282.53c8.271 0 15 6.709 15 14.955v17.551h-40.08v30h40.08v32.506h-40.08v30h40.08v32.506h-40.08v30h40.08v32.506h-40.08v30h40.08v32.506h-50.262c-21.616 0-40.578-20.323-40.578-43.491v-202.775c0-13.379-4.003-25.836-10.858-36.264zm-75.84 452h-102.682v-415.736c0-19.996 16.303-36.264 36.342-36.264 20.038 0 36.34 16.268 36.34 36.264v328.588c0 23.796 11.868 44.878 30 57.65zm40.578-46.653c-22.375 0-40.578-18.166-40.578-40.495v-66.117c11.567 8.65 25.618 13.795 40.578 13.795h101.225c-7.296 14.178-11.165 29.986-11.165 46.391 0 16.418 3.876 32.239 11.184 46.426zm177.302 0h-40.113c-22.758-26.647-22.768-66.158-.03-92.817h40.143z"/></g></svg>