<svg id="Capa_1" enable-background="new 0 0 511.498 511.498" height="512" viewBox="0 0 511.498 511.498" width="512" xmlns="http://www.w3.org/2000/svg"><path id="XMLID_1420_" d="m470.833 10.606-10.605-10.606-222.946 222.92-108 82.567c-11.348-7.031-25.045-10.091-39.714-8.703-18.491 1.746-36.434 10.466-50.522 24.555-29.849 29.848-33.218 75.046-7.51 100.756 11.599 11.599 27.163 17.278 43.497 17.278 4.053 0 8.152-.369 12.251-1.064-.317 1.855-.584 3.717-.76 5.586-1.847 19.555 4.207 37.394 17.046 50.232 11.325 11.326 26.542 17.372 43.396 17.372 2.251 0 4.531-.108 6.835-.325 18.491-1.746 36.435-10.466 50.523-24.555 14.089-14.089 22.81-32.032 24.555-50.523 1.402-14.843-1.759-28.692-8.973-40.121l58.439-83.195 82.916-82.916c20.928-1.862 55.608-9.602 87.978-38.128l6.211-6.168c21.032-21.032 36.17-52.996 40.492-85.502 4.869-36.629-4.047-68.399-25.109-89.46zm-165.958 187.147 23.034 23.034-53.661 53.661-10.22-35.848zm-143.274 171.062c-1.841.174-3.674.436-5.501.747.31-1.827.573-3.66.746-5.501 1.261-13.349-1.166-25.894-6.914-36.599l88.865-67.938 11.632 40.801-52.774 75.13c-10.585-5.541-22.928-7.877-36.054-6.64zm-108.853 32.066c-14.011-14.011-10.642-40.178 7.51-58.329 9.163-9.164 20.573-14.811 32.129-15.901 1.321-.125 2.622-.187 3.901-.187 8.887 0 16.702 2.982 22.299 8.578 6.402 6.402 9.383 15.707 8.392 26.2-1.091 11.556-6.738 22.966-15.901 32.129-18.152 18.152-44.318 21.521-58.33 7.51zm146.264 32.393c-1.092 11.556-6.738 22.967-15.901 32.129-9.163 9.164-20.574 14.811-32.13 15.902-10.491.992-19.797-1.989-26.199-8.393-6.402-6.402-9.383-15.707-8.393-26.199 1.092-11.556 6.738-22.966 15.901-32.129 9.163-9.164 20.574-14.811 32.13-15.901 1.32-.125 2.621-.187 3.901-.187 8.887 0 16.701 2.982 22.298 8.579 6.403 6.402 9.383 15.707 8.393 26.199zm267.191-337.166c-3.483 26.199-15.434 51.711-31.967 68.244l-5.179 5.178c-32.038 28.037-66.302 30.902-78.962 30.902-.038 0-.075 0-.113 0l-23.892-23.892 132.55-132.529c7.494 13.797 10.234 32.009 7.563 52.097z"/></svg>