<svg id="Capa_1" enable-background="new 0 0 511.719 511.719" height="512" viewBox="0 0 511.719 511.719" width="512" xmlns="http://www.w3.org/2000/svg"><g><path d="m487.212 425.553c-9.613-9.807-22.468-15.208-36.199-15.208h-90.319c2.768-6.03 4.37-12.677 4.51-19.653.23-11.5-3.334-22.459-10.137-31.475 12.646-9.226 20.878-24.156 20.878-40.972 0-9.491-2.623-18.383-7.181-25.986 16.609-8.184 28.25-24.994 28.639-44.355.275-13.739-4.866-26.706-14.477-36.511-9.613-9.807-22.469-15.208-36.2-15.208h-101.962c-10.34 0-18.752-8.412-18.752-18.752 0-7.296 4.283-13.983 10.911-17.034l76.269-35.109c39.604-18.231 57.119-65.341 39.045-105.017l-9.234-20.273-205.286 94.004c-38.176 17.481-70.344 45.398-93.026 80.732s-34.671 76.205-34.671 118.192c0 58.441 22.758 113.384 64.082 154.708s96.267 64.082 154.708 64.082h221.499c27.783 0 50.833-22.275 51.381-49.654.274-13.739-4.867-26.706-14.478-36.511zm-36.905 56.166h-221.498c-104.099 0-188.79-84.69-188.79-188.79 0-73.621 43.251-140.997 110.188-171.648l177.396-81.233c6.318 22.893-4.725 47.755-26.957 57.99l-76.269 35.109c-17.232 7.933-28.366 25.315-28.366 44.285 0 26.882 21.87 48.752 48.752 48.752h101.961c5.604 0 10.851 2.205 14.775 6.208 3.922 4.001 6.02 9.296 5.907 14.91-.224 11.169-9.818 20.255-21.387 20.255h-20.763v30c11.407 0 20.687 9.28 20.687 20.687s-9.28 20.687-20.744 20.687l-10.73.041.057 30c5.604 0 10.851 2.205 14.775 6.208 3.922 4.001 6.02 9.297 5.907 14.911-.224 11.168-9.818 20.255-21.387 20.255v30h137.191c5.604 0 10.851 2.205 14.774 6.208 3.922 4.001 6.02 9.297 5.908 14.911-.223 11.167-9.817 20.254-21.387 20.254z"/></g></svg>