<svg id="Capa_1" enable-background="new 0 0 511.407 511.407" height="512" viewBox="0 0 511.407 511.407" width="512" xmlns="http://www.w3.org/2000/svg"><g id="XMLID_1505_"><path id="XMLID_1508_" d="m359.376 130.602h-18.024v-61.111h-21.41l31.422-54.509-25.99-14.982-40.058 69.491h-12.446v-56.02h-88.888v56.02h-15.943v61.111h-16.008v107.744l6.478 25.797-6.478 22.938v224.327h207.346v-224.327l-6.478-22.938 6.478-25.797v-107.744zm-145.394-87.13h28.888v26.02h-28.888zm-15.943 56.019h113.313v31.111h-113.313zm131.337 135.146-7.522 29.958 7.522 26.639v190.172h-147.345v-190.171l7.522-26.639-7.522-29.958v-74.035h147.346v74.034z"/><path id="XMLID_1511_" d="m239.696 238.491h30v120h-30z"/></g></svg>