<svg id="Capa_1" enable-background="new 0 0 512 512" height="512" viewBox="0 0 512 512" width="512" xmlns="http://www.w3.org/2000/svg"><g><path d="m503.19 8.809c-6.233-6.233-14.849-9.406-23.634-8.716l-10.193.804c-80.595 6.356-158.209 34.213-224.452 80.559-53.53 37.452-97.503 84.974-130.697 141.243l-114.214 193.611 95.69 95.69 193.61-114.214c56.27-33.194 103.791-77.168 141.243-130.698 46.346-66.242 74.203-143.856 80.559-224.452l.804-10.193c.693-8.787-2.484-17.401-8.716-23.634zm-241.081 97.227c58.302-40.791 126.037-66.237 196.644-74.001l-253.9 253.905-58.438-58.438c30.178-48.007 69.049-88.831 115.694-121.466zm-4.165 275.418-27.54 16.246-116.105-116.104 16.246-27.54zm-220.296 30.078 60.911-103.253 105.162 105.162-103.253 60.911zm368.316-161.641c-32.635 46.645-73.459 85.516-121.466 115.693l-58.432-58.432 253.899-253.905c-7.764 70.607-33.211 138.343-74.001 196.644z"/></g></svg>