<?xml version="1.0" encoding="iso-8859-1"?>
<!-- Generator: Adobe Illustrator 19.0.0, SVG Export Plug-In . SVG Version: 6.00 Build 0)  -->
<svg xmlns="http://www.w3.org/2000/svg" xmlns:xlink="http://www.w3.org/1999/xlink" version="1.1" id="Layer_1" x="0px" y="0px" viewBox="0 0 512 512" style="enable-background:new 0 0 512 512;" xml:space="preserve">
<g>
	<g>
		<path d="M455.145,156.326L455.145,156.326c-13.349,0-24.209,10.86-24.209,24.209v66.928c0,13.35,10.861,24.209,24.209,24.209    h18.054v121.52c0,31.573-25.686,57.258-57.258,57.258H325.46c-4.741-10.124-13.919-17.763-25.019-20.406v-36.483    c70.602-32.807,119.68-104.388,119.68-187.229C420.121,92.561,327.56,0,213.788,0S7.454,92.561,7.454,206.334    c0,82.839,49.079,154.421,119.679,187.229v36.484c-16.324,3.887-28.504,18.582-28.504,36.079V512h230.314v-30.202h86.996    c48.857,0,88.605-39.748,88.605-88.605v-121.52v-83.666v-31.681H455.145z M473.199,188.007v52.319h-10.916v-52.653h10.916V188.007    z M38.801,206.334c0-96.488,78.499-174.987,174.987-174.987s174.987,78.499,174.987,174.987s-78.499,174.987-174.987,174.987    S38.801,302.822,38.801,206.334z M269.094,412.668v16.363H158.481v-16.363H269.094z M297.597,480.653h-167.62v-14.528    c0-3.169,2.578-5.747,5.747-5.747H291.85c3.168,0,5.747,2.578,5.747,5.747V480.653z"/>
	</g>
</g>
<g>
	<g>
		<path d="M214.833,146.266c-31.587,0-57.286,25.698-57.286,57.285c0,31.586,25.698,57.284,57.286,57.284    c31.586,0,57.284-25.698,57.284-57.284C272.118,171.964,246.419,146.266,214.833,146.266z M214.832,229.489    c-14.303,0-25.939-11.636-25.939-25.938c0-14.303,11.636-25.939,25.939-25.939c14.303,0,25.938,11.636,25.938,25.939    S229.134,229.489,214.832,229.489z"/>
	</g>
</g>
<g>
</g>
<g>
</g>
<g>
</g>
<g>
</g>
<g>
</g>
<g>
</g>
<g>
</g>
<g>
</g>
<g>
</g>
<g>
</g>
<g>
</g>
<g>
</g>
<g>
</g>
<g>
</g>
<g>
</g>
</svg>
