<svg id="Capa_1" enable-background="new 0 0 510.034 510.034" height="512" viewBox="0 0 510.034 510.034" width="512" xmlns="http://www.w3.org/2000/svg"><g><path d="m510.034 263.054-23.068-19.18-23.852 28.688c-37.11-12.916-78.719-7.3-111.087 15.036l-155.614-92.967 85.361-97.273-22.548-19.788-88.998 101.417-55.474-33.141c-33.52-23.174-79.109-15.404-103.256 16.811l-10.038 13.057 43.54 27.399v79.351h-45v150h501.102l-36.883-114.305zm-67.88 34.719-24.257 29.177-36.543-21.832c18.819-9.113 40.329-11.728 60.8-7.345zm-344.168-127.046c318.569 190.372 299.738 179.118 300.498 179.572l-20.94 25.186-329.625-206.246c14.624-9.082 34.462-9.477 50.067 1.488zm-67.986 141.737h60v30h-60zm0 90v-30h60v30zm90-120h-45v-60.58l282.94 176.879-2.827 3.7h-235.113c0-2.711 0-116.604 0-119.999zm339.898 120h-65.771l47.381-56.99z"/></g></svg>