<svg id="Layer_1" enable-background="new 0 0 512.007 512.007" height="512" viewBox="0 0 512.007 512.007" width="512" xmlns="http://www.w3.org/2000/svg"><g><path d="m489.227 390.967h-105.746v-79.595l42.907-42.907-42.907-35.771v-47.308h30.116v-32.641l-44.707-32.502 57.499-47.936-72.306-72.307-56.828 68.164-41.252-29.991-41.252 29.991-56.827-68.164-72.305 72.306 57.499 47.936-44.708 32.502v32.641h30.116v47.308l-42.907 35.771 42.907 42.907v79.595h-105.746v30h15.002v91.04h436.442v-91.04h15.002v-29.999zm-333.314-94.635-25.857-25.857 89.615-74.711c2.911 4.184 6.756 8.03 10.948 10.958zm100.09-140.262c12.557-.174 19.115 15.659 10.122 24.436-5.327 5.553-14.916 5.554-20.243 0-8.993-8.777-2.436-24.611 10.121-24.436zm31.336 45.65c1.867-1.868 3.533-3.862 4.997-5.956l89.615 74.711-25.857 25.857-74.706-89.61c2.104-1.476 4.095-3.147 5.951-5.002zm66.142 5.962-26.746-22.298h26.746zm12.73-52.297h-39.476l18.389-15.331zm-10.117-110.947 25.857 25.857-89.615 74.711c-2.911-4.184-6.756-8.03-10.948-10.958zm-100.091 30.825 22 15.994-22 26.388-22-26.388zm-100.09-30.825 74.706 89.61c-4.191 2.928-8.037 6.774-10.948 10.958l-89.615-74.71zm29.358 110.947h-39.476l21.087-15.331zm-26.745 30h26.746l-26.746 22.298zm0 154.662 97.478-116.923 97.478 116.923v50.919h-194.956zm285.699 141.96h-53.214v-30.52h-30v30.52h-30.003v-30.52h-30v30.52h-30.004v-30.52h-30v30.52h-30.004v-30.52h-30v30.52h-30.003v-30.52h-30v30.52h-53.215v-61.04h376.442v61.04z"/><path d="m241.003 330.433h30v36.735h-30z"/><path d="m296.007 330.433h30v36.735h-30z"/><path d="m186 330.433h30v36.735h-30z"/></g></svg>