<?xml version="1.0" encoding="iso-8859-1"?>
<!-- Generator: Adobe Illustrator 19.0.0, SVG Export Plug-In . SVG Version: 6.00 Build 0)  -->
<svg xmlns="http://www.w3.org/2000/svg" xmlns:xlink="http://www.w3.org/1999/xlink" version="1.1" id="Layer_1" x="0px" y="0px" viewBox="0 0 512 512" style="enable-background:new 0 0 512 512;" xml:space="preserve">
<g>
	<g>
		<path d="M60.566,0v512L256,418.967L451.434,512V0H60.566z M420.037,462.279l-164.036-78.085L91.964,462.279V31.398h328.073    V462.279z"/>
	</g>
</g>
<g>
	<g>
		<path d="M389.358,149.017l-92.148-13.39L256,52.127l-41.209,83.5l-92.148,13.39l66.679,64.996l-15.741,91.776l82.42-43.33    l82.42,43.33l-15.741-91.776L389.358,149.017z M296.719,248.392L256,226.986l-40.719,21.406l7.777-45.341l-32.942-32.109    l45.525-6.616L256,123.075l20.359,41.251l45.525,6.616l-32.942,32.109L296.719,248.392z"/>
	</g>
</g>
<g>
</g>
<g>
</g>
<g>
</g>
<g>
</g>
<g>
</g>
<g>
</g>
<g>
</g>
<g>
</g>
<g>
</g>
<g>
</g>
<g>
</g>
<g>
</g>
<g>
</g>
<g>
</g>
<g>
</g>
</svg>
