<svg id="Capa_1" enable-background="new 0 0 511.988 511.988" height="512" viewBox="0 0 511.988 511.988" width="512" xmlns="http://www.w3.org/2000/svg"><path d="m507.542 300.253-69.352-183.823c-12.679-33.606-45.331-56.186-81.25-56.186-30.82 0-58.528 17.125-72.312 44.691l26.833 13.417c8.669-17.338 26.096-28.108 45.479-28.108 23.51 0 44.882 14.779 53.181 36.776l54.388 144.159c-.724-.031-1.449-.06-2.179-.06h-141.547c-14.934 0-28.93 6.624-38.398 18.173-8.692 10.603-12.549 24.134-10.859 37.611-10.199-2.435-20.864-2.435-31.063 0 1.69-13.477-2.167-27.008-10.859-37.611-9.468-11.549-23.464-18.173-38.398-18.173h-141.548c-.729 0-1.454.029-2.179.06l54.388-144.159c8.299-21.997 29.671-36.776 53.181-36.776 19.383 0 36.81 10.771 45.479 28.108l26.833-13.417c-13.784-27.566-41.492-44.691-72.312-44.691-35.919 0-68.571 22.58-81.25 56.186l-69.351 183.823c-4.265 9.369-5.547 19.904-3.476 30.255l16.264 81.321c4.626 23.128 25.102 39.915 48.688 39.915h109.02c23.585 0 44.062-16.787 48.688-39.915l9.79-48.952c13.189-10.416 31.961-10.416 45.15.001l9.79 48.951c4.626 23.128 25.102 39.915 48.688 39.915h109.02c23.585 0 44.062-16.787 48.688-39.915l16.264-81.321c2.068-10.351.786-20.885-3.479-30.255zm-332.601 121.491h-109.019c-9.335 0-17.439-6.644-19.271-15.798l-16.264-81.321c-2.389-10.729 6.463-23.664 19.271-23.506h141.548c10.989-.239 21.937 10.978 19.271 23.506l-16.264 81.321c-1.832 9.154-9.937 15.798-19.272 15.798zm306.66-97.119-16.264 81.321c-1.831 9.154-9.936 15.798-19.271 15.798h-109.02c-9.335 0-17.439-6.644-19.271-15.798l-16.264-81.321c-2.389-10.729 6.463-23.664 19.271-23.506h141.548c10.989-.238 21.938 10.978 19.271 23.506z"/></svg>