<?xml version="1.0" encoding="iso-8859-1"?>
<!-- Generator: Adobe Illustrator 19.0.0, SVG Export Plug-In . SVG Version: 6.00 Build 0)  -->
<svg version="1.1" id="Layer_1" xmlns="http://www.w3.org/2000/svg" xmlns:xlink="http://www.w3.org/1999/xlink" x="0px" y="0px"
	 viewBox="0 0 512 512" style="enable-background:new 0 0 512 512;" xml:space="preserve">
<g>
	<g>
		<path d="M487.583,284.444c1.091-9.423,1.661-18.928,1.661-28.444c0-65.341-25.445-126.771-71.648-172.974
			S309.964,11.378,244.622,11.378S117.851,36.823,71.648,83.026S0,190.659,0,256s25.445,126.771,71.648,172.974
			c46.203,46.203,107.633,71.648,172.974,71.648c17.296,0,34.443-1.813,51.2-5.382v5.382H512V284.444H487.583z M295.822,460.213
			c-16.663,4.163-33.84,6.276-51.2,6.276c-116.064,0-210.489-94.425-210.489-210.489S128.559,45.511,244.622,45.511
			c116.065,0,210.489,94.425,210.489,210.489c0,9.53-0.646,19.046-1.914,28.444h-34.529c1.52-9.366,2.31-18.869,2.31-28.444
			c0-97.242-79.112-176.356-176.356-176.356C147.38,79.644,68.267,158.758,68.267,256s79.113,176.356,176.356,176.356
			c17.548,0,34.692-2.545,51.2-7.557V460.213z M261.689,278.771c6.904,5.195,11.378,13.454,11.378,22.74s-4.474,17.546-11.378,22.74
			V278.771z M182.044,210.489c0,28.589,19.277,52.743,45.511,60.193v53.57c-6.904-5.195-11.378-13.454-11.378-22.74h-34.133
			c0,28.589,19.277,52.743,45.511,60.193v35.491C157.152,388.737,102.4,328.646,102.4,256s54.752-132.737,125.156-141.195v35.491
			C201.322,157.745,182.044,181.9,182.044,210.489z M227.556,187.749v45.479c-6.904-5.195-11.378-13.454-11.378-22.74
			S220.652,192.943,227.556,187.749z M295.822,388.724c-11.007,4.255-22.423,7.091-34.133,8.483v-35.503
			c13.976-3.969,25.971-12.677,34.133-24.279V388.724z M304.815,284.444c-5.907-20.804-22.322-37.218-43.126-43.126v-53.57
			c6.904,5.195,11.378,13.454,11.378,22.74H307.2c0-28.589-19.277-52.743-45.511-60.193v-35.491
			c70.403,8.458,125.156,68.549,125.156,141.195c0,9.612-0.974,19.128-2.864,28.444h-79.165V284.444z M477.867,466.489H329.956
			V318.578h147.911V466.489z"/>
	</g>
</g>
<g>
	<g>
		<polygon points="404.483,328.575 336.097,396.96 360.233,421.096 387.988,393.342 387.988,443.733 422.121,443.733 
			422.121,394.485 448.733,421.096 472.867,396.96 		"/>
	</g>
</g>
<g>
</g>
<g>
</g>
<g>
</g>
<g>
</g>
<g>
</g>
<g>
</g>
<g>
</g>
<g>
</g>
<g>
</g>
<g>
</g>
<g>
</g>
<g>
</g>
<g>
</g>
<g>
</g>
<g>
</g>
</svg>
