<svg id="Capa_1" enable-background="new 0 0 512.654 512.654" height="512" viewBox="0 0 512.654 512.654" width="512" xmlns="http://www.w3.org/2000/svg"><g id="XMLID_818_"><path id="XMLID_845_" d="m117.124 309.369c-25.433 0-46.123 20.691-46.123 46.123s20.69 46.123 46.123 46.123 46.123-20.691 46.123-46.123-20.69-46.123-46.123-46.123zm0 62.246c-8.891 0-16.123-7.233-16.123-16.123s7.232-16.123 16.123-16.123 16.123 7.233 16.123 16.123-7.232 16.123-16.123 16.123z"/><path id="XMLID_850_" d="m481.912 317.574v-90.511l-91.165-18.158v-65.449h27.167v-30h-57.167v89.473l-57.384-11.43-11.906-121.46h20.457v-30h-311.667v30h18.96l-11.198 242.885c-5.167 13.201-8.009 27.558-8.009 42.568 0 64.583 52.542 117.124 117.124 117.124 53.294 0 98.383-35.781 112.519-84.581h113.515c2.679 44.381 39.62 79.671 84.662 79.671 46.777 0 84.834-38.056 84.834-84.834 0-26.236-11.975-49.725-30.742-65.298zm-30-16.03c-7.642-2.268-15.723-3.505-24.092-3.505-1.17 0-2.331.041-3.49.089v-51.944l27.582 5.494zm-246.677-231.505 7.956 116.833h-52.287v-27.529c0-22.434-18.251-40.686-40.686-40.686h-14.826l1.679-48.619h98.164zm-100.878 78.619h15.862c5.892 0 10.686 4.793 10.686 10.686v27.529h-27.867zm12.767 293.958c-48.04 0-87.124-39.083-87.124-87.124s39.084-87.124 87.124-87.124 87.124 39.083 87.124 87.124-39.084 87.124-87.124 87.124zm229.58-84.581h-112.488c.018-.846.032-1.693.032-2.543 0-64.583-52.542-117.124-117.124-117.124-29.442 0-56.379 10.924-76.979 28.926l9.093-197.255h27.815l-5.071 146.833h173.322l-10-146.833h26.009l14.364 146.535 118.652 23.634v64.735c-22.697 9.792-40.299 29.212-47.625 53.092zm81.116 79.672c-30.235 0-54.834-24.599-54.834-54.834s24.599-54.834 54.834-54.834 54.834 24.599 54.834 54.834-24.598 54.834-54.834 54.834z"/><path id="XMLID_957_" d="m427.82 367.873c-7.846 0-15.363 6.899-15 15 .364 8.127 6.591 15 15 15 7.846 0 15.363-6.899 15-15-.364-8.128-6.591-15-15-15z"/></g></svg>