<svg id="Capa_1" enable-background="new 0 0 512 512" height="512" viewBox="0 0 512 512" width="512" xmlns="http://www.w3.org/2000/svg"><g><path d="m250.091 173.713c-25.543 10.947-49.67 21.287-99.091 21.287h-15v257h240v-302h-15c-55.579 0-83.707 12.055-110.909 23.713zm95.909 248.287h-180v-197.311c45.868-1.958 71.271-12.843 95.909-23.402 22.815-9.778 44.503-19.071 84.091-20.945z"/><path d="m391 90v-90h-90v90h-30v-90h-30v90h-30v-90h-90v90h-45v422h360v-422zm-30-60v30h-30v-30zm-180 0v30h-30v-30zm225 452h-300v-362h45v-30h30v30h150v-30h30v30h45z"/></g></svg>