<svg id="Capa_1" enable-background="new 0 0 512 512" height="512" viewBox="0 0 512 512" width="512" xmlns="http://www.w3.org/2000/svg"><g><path d="m421.781 108.861c-27.833-63.995-91.661-108.861-165.781-108.861-74.117 0-137.944 44.864-165.779 108.856-52.516 18.674-90.221 68.871-90.221 127.714 0 35.88 14.492 75.923 38.765 107.114 14.991 19.263 32.734 33.894 51.611 42.996v65.07h30.125v60.25h30v-60.25h30.125v-65.08c3.981-1.921 7.909-4.1 11.774-6.504 6.101 3.159 12.263 5.865 18.474 8.099v63.485h30.126v60.25h30v-60.25h30.125v-63.485c6.211-2.234 12.372-4.94 18.473-8.099 3.865 2.404 7.794 4.571 11.775 6.491v65.092h30.125v60.251h30v-60.25h30.125v-65.07c18.877-9.102 36.621-23.733 51.611-42.996 24.274-31.191 38.766-71.234 38.766-107.114 0-58.842-37.704-109.034-90.219-127.709zm-165.781-78.861c83.089 0 150.688 67.598 150.688 150.688 0 83.545-69.534 185.596-150.688 185.596s-150.688-102.052-150.688-185.596c0-83.09 67.599-150.688 150.688-150.688zm-226 206.57c0-37.097 19.254-69.771 48.286-88.586-1.948 10.61-2.973 21.539-2.973 32.703 0 48.125 19.482 101.892 52.115 143.825 11.116 14.284 23.249 26.635 36.234 36.942-9.307 3.929-18.804 6.004-28.16 6.004-56.819.001-105.502-71.969-105.502-130.888zm120.626 185.18h-30.25v-25.517c5.032.804 10.082 1.227 15.125 1.227s10.093-.434 15.125-1.239zm120.499 0h-30.25v-26.373c5.025.592 10.068.907 15.125.907s10.1-.314 15.125-.907zm120.499 0h-30.25v-25.529c5.032.805 10.082 1.238 15.125 1.238s10.093-.423 15.125-1.227zm57.936-96.491c-20.871 26.819-47.5 42.2-73.061 42.2-9.732 0-19.223-2.117-28.272-5.915 13.027-10.325 25.198-22.706 36.346-37.032 32.633-41.933 52.115-95.7 52.115-143.825 0-11.161-1.025-22.086-2.971-32.692 29.028 18.815 48.283 51.48 48.283 88.575 0 29.432-12.127 62.587-32.44 88.689z"/><path d="m344.614 173.337c0-31.434-25.573-57.006-57.007-57.006-11.354 0-22.331 3.392-31.606 9.576-9.275-6.184-20.251-9.576-31.606-9.576-31.434 0-57.007 25.573-57.007 57.006-.216 33.807 30.658 66.9 88.613 101.833 57.955-34.933 88.829-68.026 88.613-101.833zm-30 0c0 18.233-20.222 41.072-58.613 66.316-38.391-25.244-58.613-48.083-58.613-66.316 0-14.891 12.115-27.006 27.007-27.006 14.2-.556 23.641 12.925 31.606 22.122 7.543-8.866 18.263-23.214 31.606-22.122 14.892 0 27.007 12.115 27.007 27.006z"/></g></svg>