<svg id="Capa_1" enable-background="new 0 0 512 512" height="512" viewBox="0 0 512 512" width="512" xmlns="http://www.w3.org/2000/svg"><g><path d="m512 92.427-92.436-92.427-65.204 65.467c-28.419-26.733-72.668-26.827-99.704.21l-59.041 59.041-3.695 34.116-60.89 60.89-33.741 3.655-77.245 77.246c-27.829 27.828-26.034 73.961 1.381 101.375l88.568 88.568c27.429 27.429 73.538 29.22 101.375 1.381l77.246-77.245 3.735-34.49 60.475-60.475 34.116-3.695 59.042-59.042c26.927-26.927 26.946-70.93.534-99.362zm-92.436-49.738 49.738 49.738-42.624 42.624-49.738-49.738zm-213.131 144.058 118.477 118.478-47.188 47.188-118.477-118.478zm53.493 214.217-69.771 69.771c-15.873 15.871-42.316 15.251-58.95-1.381l-88.568-88.568c-15.836-15.835-17.64-42.69-1.381-58.949l69.771-69.771 21.414-2.319 129.804 129.803zm164.842-165.175-51.567 51.567-21.413 2.319-129.805-129.805 2.319-21.414 51.566-51.567c15.872-15.872 42.315-15.252 58.95 1.381l88.568 88.568c16.633 16.634 17.253 43.079 1.382 58.951z"/></g></svg>