<svg id="Capa_1" enable-background="new 0 0 512 512" height="512" viewBox="0 0 512 512" width="512" xmlns="http://www.w3.org/2000/svg"><g><path d="m481.906 424.548v-64.955h-211v-41.693h34.98v-39.12c9.297-3.88 18.075-8.823 26.252-14.783l33.429 20.401 52.066-85.343-33.391-20.368c1-6.508 1.503-13.113 1.503-19.738s-.504-13.23-1.503-19.738l33.391-20.368-52.064-85.34-33.429 20.39c-8.178-5.96-16.957-10.904-26.255-14.784v-39.109h-99.96v39.11c-9.298 3.88-18.077 8.824-26.255 14.784l-33.429-20.39-52.064 85.34 33.391 20.368c-1 6.508-1.503 13.113-1.503 19.738s.504 13.23 1.503 19.738l-33.391 20.368 52.066 85.343 33.429-20.401c8.177 5.96 16.956 10.903 26.252 14.783v39.12h34.98v41.693h-211v65.018c-17.408 6.218-29.904 22.868-29.904 42.388 0 24.813 20.187 45 45 45s45-20.187 45-45c0-19.589-12.587-36.286-30.094-42.452v-34.955h110.667v35.018c-17.41 6.218-29.906 22.868-29.906 42.388 0 24.813 20.187 45 45 45s45-20.187 45-45c0-19.589-12.587-36.286-30.094-42.452v-34.955h110.667v35.018c-17.41 6.218-29.906 22.868-29.906 42.388 0 24.813 20.187 45 45 45s45-20.187 45-45c0-19.589-12.587-36.286-30.094-42.452v-34.955h110.667v35.018c-17.411 6.221-29.907 22.871-29.907 42.391 0 24.813 20.187 45 45 45s45-20.187 45-45c0-19.589-12.587-36.286-30.094-42.452zm-256.406-170.504c-12.85-4.114-24.585-10.722-34.882-19.642l-8.282-7.175-26.107 15.933-20.814-34.117 26.063-15.897-2.598-10.651c-1.866-7.651-2.812-15.573-2.812-23.545s.946-15.895 2.812-23.545l2.598-10.651-26.063-15.897 20.816-34.12 26.108 15.924 8.28-7.173c10.296-8.919 22.032-15.528 34.882-19.642l10.426-3.338v-30.508h39.96v30.507l10.426 3.338c12.85 4.114 24.586 10.723 34.882 19.642l8.28 7.173 26.108-15.924 20.816 34.12-26.063 15.897 2.598 10.651c1.866 7.651 2.812 15.573 2.812 23.545s-.946 15.895-2.812 23.545l-2.598 10.651 26.063 15.897-20.814 34.117-26.107-15.933-8.282 7.175c-10.296 8.919-22.032 15.528-34.882 19.642l-10.427 3.338v30.519h-39.96v-30.518zm-180.5 227.956c-8.271 0-15-6.729-15-15s6.729-15 15-15 15 6.729 15 15-6.729 15-15 15zm140.667 0c-8.271 0-15-6.729-15-15s6.729-15 15-15 15 6.729 15 15-6.729 15-15 15zm140.666 0c-8.271 0-15-6.729-15-15s6.729-15 15-15 15 6.729 15 15-6.729 15-15 15zm140.667 0c-8.271 0-15-6.729-15-15s6.729-15 15-15 15 6.729 15 15-6.729 15-15 15z"/><path d="m325.742 158.95c0-38.508-31.328-69.836-69.836-69.836s-69.836 31.328-69.836 69.836 31.328 69.836 69.836 69.836 69.836-31.328 69.836-69.836zm-109.672 0c0-21.966 17.87-39.836 39.836-39.836s39.836 17.87 39.836 39.836-17.87 39.836-39.836 39.836-39.836-17.87-39.836-39.836z"/></g></svg>