<svg id="Capa_1" enable-background="new 0 0 512 512" height="512" viewBox="0 0 512 512" width="512" xmlns="http://www.w3.org/2000/svg"><g><path d="m171.938 197.849-22.004 22.004 21.213 21.213 22.004-22.004c13.743 10.301 30.086 17.309 47.849 19.861v31.077h30v-31.076c17.763-2.552 34.106-9.56 47.849-19.861l22.004 22.004 21.213-21.213-22.004-22.004c10.301-13.743 17.309-30.086 19.862-47.849h31.076v-30h-31.076c-2.552-17.763-9.56-34.106-19.862-47.849l22.004-22.004-21.213-21.213-22.004 22.004c-13.743-10.303-30.086-17.311-47.849-19.863v-31.076h-30v31.076c-17.763 2.552-34.106 9.56-47.849 19.862l-22.004-22.004-21.213 21.213 22.004 22.004c-10.301 13.743-17.309 30.086-19.862 47.849h-31.076v30h31.076c2.552 17.763 9.56 34.106 19.862 47.849zm84.062-137.849c41.355 0 75 33.645 75 75s-33.645 75-75 75-75-33.645-75-75 33.645-75 75-75z"/><path d="m256 180c24.813 0 45-20.187 45-45s-20.187-45-45-45-45 20.187-45 45 20.187 45 45 45zm0-60c8.271 0 15 6.729 15 15s-6.729 15-15 15-15-6.729-15-15 6.729-15 15-15z"/><path d="m422 392v-62h-151v-30h-30v30h-151v62h-90v120h210v-120h-90v-32h272v32h-90v120h210v-120zm-242 90h-150v-60h150zm302 0h-150v-60h150z"/></g></svg>