<svg id="Capa_1" enable-background="new 0 0 512 512" height="512" viewBox="0 0 512 512" width="512" xmlns="http://www.w3.org/2000/svg"><g><path d="m307.149 96.68v-67.542h-41v-29.138h-30v29.138h-41v67.542c-89.492 24.609-155.431 106.687-155.431 203.889 0 116.584 94.847 211.431 211.431 211.431s211.431-94.847 211.431-211.431c0-97.202-65.939-179.28-155.431-203.889zm122.763 188.889h-58.361c-.736-18.914-2.862-37.349-6.285-54.904 6.17 2.571 12.075 5.363 17.673 8.375 15.984 8.601 28.921 18.856 37.412 29.657 4.342 5.525 7.527 11.165 9.561 16.872zm-88.386 0h-75.377v-75.377c23.178.971 45.447 4.191 65.918 9.459 5.268 20.471 8.487 42.741 9.459 65.918zm-75.377-105.401v-58.362c5.708 2.034 11.347 5.219 16.871 9.561 10.801 8.491 21.056 21.427 29.657 37.412 3.012 5.598 5.805 11.503 8.375 17.673-17.554-3.423-35.989-5.548-54.903-6.284zm-46.871-48.801c5.524-4.342 11.164-7.527 16.871-9.561v58.362c-18.914.736-37.349 2.862-54.904 6.285 2.571-6.17 5.363-12.075 8.375-17.673 8.602-15.986 18.857-28.922 29.658-37.413zm16.871 78.826v75.377h-75.377c.971-23.178 4.191-45.447 9.459-65.918 20.471-5.269 42.74-8.488 65.918-9.459zm-105.402 75.376h-58.361c2.034-5.708 5.219-11.347 9.561-16.871 8.49-10.801 21.427-21.056 37.412-29.657 5.598-3.012 11.503-5.805 17.673-8.375-3.423 17.554-5.548 35.99-6.285 54.903zm-58.361 30h58.361c.736 18.914 2.862 37.349 6.285 54.904-6.17-2.571-12.075-5.363-17.673-8.375-15.984-8.601-28.921-18.856-37.412-29.657-4.342-5.525-7.527-11.164-9.561-16.872zm88.386 0h75.377v75.377c-23.178-.971-45.447-4.191-65.918-9.459-5.268-20.47-8.487-42.74-9.459-65.918zm75.377 105.402v58.361c-5.708-2.034-11.347-5.219-16.871-9.562-10.801-8.49-21.056-21.427-29.657-37.411-3.012-5.598-5.805-11.503-8.375-17.673 17.554 3.423 35.989 5.549 54.903 6.285zm46.871 48.8c-5.524 4.343-11.164 7.528-16.871 9.562v-58.361c18.914-.736 37.349-2.862 54.904-6.285-2.571 6.17-5.363 12.075-8.375 17.673-8.602 15.984-18.857 28.921-29.658 37.411zm-16.871-78.825v-75.377h75.377c-.971 23.178-4.191 45.447-9.459 65.918-20.471 5.268-42.74 8.488-65.918 9.459zm105.402-75.377h58.361c-2.034 5.708-5.219 11.347-9.561 16.871-8.49 10.801-21.427 21.056-37.412 29.657-5.598 3.012-11.503 5.805-17.673 8.375 3.423-17.554 5.548-35.989 6.285-54.903zm44.001-91.684c-5.658-3.948-11.795-7.71-18.398-11.263-12.459-6.704-26.193-12.448-40.887-17.171-4.723-14.695-10.467-28.428-17.171-40.888-3.553-6.602-7.314-12.74-11.263-18.398 38.511 18.037 69.683 49.209 87.719 87.72zm-190.403-164.747h52v31.6c-8.523-1.05-17.198-1.6-26-1.6s-17.477.55-26 1.6zm-50.684 77.028c-3.948 5.658-7.71 11.795-11.263 18.398-6.704 12.459-12.448 26.193-17.171 40.888-14.694 4.723-28.428 10.467-40.887 17.171-6.602 3.553-12.74 7.314-18.398 11.263 18.036-38.512 49.208-69.684 87.719-87.72zm-87.718 241.088c5.658 3.948 11.795 7.71 18.398 11.263 12.459 6.704 26.193 12.448 40.887 17.171 4.723 14.694 10.467 28.428 17.171 40.887 3.553 6.602 7.314 12.74 11.263 18.398-38.512-18.037-69.684-49.209-87.719-87.719zm241.086 87.718c3.948-5.658 7.71-11.795 11.263-18.398 6.704-12.459 12.448-26.193 17.171-40.887 14.694-4.723 28.428-10.467 40.887-17.171 6.602-3.553 12.74-7.314 18.398-11.263-18.036 38.511-49.208 69.683-87.719 87.719z"/><path d="m4.718 12.069h30v30h-30z"/><path d="m64.718 72.069h30v30h-30z"/><path d="m447.282 482h30v30h-30z"/><path d="m477.282 422h30v30h-30z"/><path d="m24.718 462h30v30h-30z"/><path d="m443.718 27.069h30v30h-30z"/></g></svg>