<svg id="Capa_1" enable-background="new 0 0 512 512" height="512" viewBox="0 0 512 512" width="512" xmlns="http://www.w3.org/2000/svg"><g id="XMLID_870_"><path id="XMLID_926_" d="m0 28.166v357.145h204.594v68.523h-135.24v30h373.293v-30h-135.24v-68.523h204.593v-357.145zm95.758 187.651v-98.417h237.106v61.514h-58.818v117.162h-20.795v-5.819c0-24.832-12.692-46.75-31.926-59.624 8.409-9.438 13.531-21.864 13.531-35.469 0-29.438-23.95-53.389-53.39-53.389-29.438 0-53.389 23.95-53.389 53.389 0 13.605 5.123 26.031 13.531 35.469-19.234 12.874-31.926 34.793-31.926 59.624v5.819h-79.612v-80.259zm-65.688-30v-68.417h35.688v68.417zm273.976 81.678h28.581v28.581h-28.581zm28.581-30h-28.581v-28.581h28.581zm-192.943 58.581v-5.819c0-22.996 18.709-41.705 41.705-41.705h.157c22.996 0 41.705 18.709 41.705 41.705v5.819zm41.783-77.524c-12.896 0-23.389-10.492-23.389-23.389s10.492-23.389 23.389-23.389 23.39 10.492 23.39 23.389-10.493 23.389-23.39 23.389zm95.939 235.282h-42.812v-68.523h42.812zm-247.406-98.523v-29.234h302.864v29.234zm452 0h-119.136v-29.234h119.136zm-119.136-59.235v-178.676h119.136v178.676zm-332.864-208.676v-29.234h452v29.234z"/><path id="XMLID_945_" d="m397.863 160.361h49.928v30h-49.928z"/><path id="XMLID_946_" d="m397.863 223.115h49.928v30h-49.928z"/></g></svg>