<svg id="Layer_1" enable-background="new 0 0 509.117 509.117" height="512" viewBox="0 0 509.117 509.117" width="512" xmlns="http://www.w3.org/2000/svg"><path d="m487.904 148.493-21.213 21.213-127.28-127.28 21.213-21.213-21.213-21.213-94.861 94.862c-32.151 32.151-42.078 77.622-30.517 118.037-40.57-11.58-86.088-1.434-117.977 30.455l-96.056 96.057 21.213 21.213 21.213-21.214 127.28 127.281-21.213 21.213 21.213 21.213 96.057-96.057c31.889-31.89 42.035-77.407 30.455-117.977 40.31 11.531 85.802 1.719 118.037-30.517l94.862-94.861zm-42.426 42.426-20.62 20.62-127.279-127.28 20.619-20.619zm-381.839 127.278 21.809-21.807 127.279 127.28-21.808 21.809zm170.3 84.26-127.279-127.279c8.618-8.35 12.639-13.455 21.413-19.826l125.692 125.692c-6.361 8.761-11.39 12.706-19.826 21.413zm33.615-50.051-110.843-110.842c67.624-18.763 129.597 43.248 110.843 110.842zm-25.357-195.062 109.575 109.576c-66.48 16.93-126.407-43.483-109.575-109.576zm138.645 96.218-125.287-125.287c6.934-9.91 12.565-14.234 20.811-22.804l127.279 127.28c-8.555 8.233-12.889 13.875-22.803 20.811z"/></svg>