<svg id="Layer_1" enable-background="new 0 0 510.001 510.001" height="512" viewBox="0 0 510.001 510.001" width="512" xmlns="http://www.w3.org/2000/svg"><g><path d="m427.826 400.342c28.145-76.459 26.774-197.371.918-278.868-3.99-12.578-3.387-26.225 1.697-38.424 16.163-38.778-11.844-82.36-54.428-83.042-13.778-.194-27.353 4.361-38.157 12.902-6.184 4.889-14.175 6.874-21.93 5.457-38.128-6.987-83.655-6.986-121.779-.001-7.749 1.427-15.746-.566-21.931-5.456-10.801-8.54-24.314-13.122-38.156-12.902-31.745.508-57.648 25.741-58.971 57.444-.462 11.081 2.124 22.027 7.479 31.655 3.902 7.017 4.595 15.4 1.901 23.002-29.792 84.076-30.768 210.683-2.222 288.231 2.806 7.622 2.307 16.109-1.403 23.897-18.695 39.232 9.767 84.636 52.615 85.742 14.787.394 29.107-4.662 40.353-14.202 6.89-5.843 15.825-8.418 24.516-7.066 36.039 5.604 77.378 5.604 113.417-.001 8.695-1.347 17.626 1.225 24.514 7.067 11.245 9.538 25.589 14.59 40.354 14.202 30.875-.797 56.489-25.551 58.315-56.354.602-10.139-1.37-20.301-5.699-29.387-3.71-7.788-4.208-16.274-1.403-23.896zm-22.844 51.507c-1.444 24.361-30.472 37.031-49.317 21.049-13.355-11.328-30.999-16.56-48.529-13.832-33.109 5.15-71.089 5.148-104.196 0-17.306-2.693-34.994 2.35-48.531 13.832-5.615 4.765-12.756 7.282-20.174 7.091-21.439-.554-35.641-23.262-26.307-42.847 7.215-15.146 8.094-31.896 2.473-47.165-26.006-70.649-24.953-190.806 2.347-267.848 5.568-15.714 4.125-33.064-3.96-47.604-2.668-4.795-3.955-10.268-3.723-15.824.649-15.574 13.872-28.448 29.476-28.698 6.979-.116 13.607 2.114 19.071 6.44 12.954 10.242 29.698 14.411 45.943 11.432 34.739-6.365 76.223-6.366 110.966.001 16.236 2.974 32.987-1.19 45.94-11.432 5.473-4.326 12.103-6.57 19.073-6.44 20.34.326 35.53 21.561 27.216 41.505-7.81 18.739-8.733 39.705-2.602 59.036 24.665 77.746 24.456 191.703-.475 259.434-5.621 15.27-4.742 32.019 2.474 47.165 2.188 4.589 3.142 9.537 2.835 14.705z"/><path d="m315.037 139.844-45 18v-52.844h-30v52.845l-45-18v-34.845h-30v235.155l75 30v49.845h30v-49.845l75-30v-235.155h-30zm0 32.311v27.689l-45 18v-27.689zm0 87.689-45 18v-27.689l45-18zm-120-27.689 45 18v27.689l-45-18zm45-42v27.689l-45-18v-27.689zm-45 129.689v-27.689l45 18v27.689zm75 18v-27.689l45-18v27.689z"/></g></svg>