<svg id="Capa_1" enable-background="new 0 0 512 512" height="512" viewBox="0 0 512 512" width="512" xmlns="http://www.w3.org/2000/svg"><g><path d="m437.02 74.98c-48.353-48.351-112.64-74.98-181.02-74.98s-132.667 26.629-181.02 74.98c-48.351 48.353-74.98 112.64-74.98 181.02v15h210v-15c0-25.364 20.636-46 46-46s46 20.636 46 46v15h210v-15c0-68.38-26.629-132.667-74.98-181.02zm-346.335 166.02c7.608-84.529 78.838-151 165.315-151s157.707 66.471 165.315 151h-30.146c-7.491-67.958-65.248-121-135.169-121s-127.678 53.042-135.169 121zm165.315-61c-36.773 0-67.53 26.252-74.514 61h-30.42c7.309-51.37 51.577-91 104.934-91s97.625 39.63 104.934 91h-30.42c-6.984-34.748-37.741-61-74.514-61zm195.431 61c-7.686-101.094-92.402-181-195.431-181s-187.745 79.906-195.431 181h-30.083c3.562-54.723 26.575-105.674 65.708-144.806 42.686-42.686 99.439-66.194 159.806-66.194s117.12 23.508 159.806 66.194c39.133 39.132 62.146 90.083 65.708 144.806z"/><path d="m194.109 301-23.109 53.921v72.3l22 36v48.779h124.271l23.653-61h.076c0-.095 0-149.867 0-150zm102.62 181h-73.729v-27.221l-22-36v-27.779h31.4c6.804 35.374 39.198 61.578 76.348 60zm14.271-61c-21.779 1.559-40.61-9.917-47.623-30h47.623zm-109.966-60 12.856-30h97.11v30z"/></g></svg>