<svg id="Capa_1" enable-background="new 0 0 512 512" height="512" viewBox="0 0 512 512" width="512" xmlns="http://www.w3.org/2000/svg"><g><path d="m164.5 165.191c0-12.269 9.981-22.25 22.25-22.25s22.25 9.981 22.25 22.25c-.003 5.294.002 44.83 0 51.125 0 41.355 33.645 75 75 75h15v-57.316c0-36.298-25.921-66.649-60.224-73.531-5.466-53.804-78.055-65.151-99.901-16.178-34.012-20.748-79.267 4.866-78.875 44.933 0-.001 0 6.97 0 6.97-34.192 6.968-60 37.271-60 73.491v57.315h15c41.355 0 75-33.645 75-75 0-10.74 0-62.777 0-62.777 0-12.269 9.981-22.25 22.25-22.25s22.25 9.981 22.25 22.25v159.777h-134.5v163h512v-163h-347.5zm104.5 68.809v24.745c-17.461-6.191-30-22.874-30-42.43v-24.745c17.461 6.191 30 22.874 30 42.43zm-209 18c0 19.556-12.539 36.239-30 42.43v-24.745c0-19.556 12.539-36.239 30-42.43zm68.981 127-19.047 39h-79.934v-39zm11.205 45.419 52.814 24.206v33.375h-80.935zm82.814 25.944 75.609-21.265 43.283 52.902h-118.892zm66-49.726-79.758 22.432-55.886-25.615 9.012-18.454h126.632zm-259 47.363h65.283l-16.605 34h-48.678zm350.654 34-36.606-44.74 60.14 14.74h77.812v30zm101.346-60h-74.188l-88.812-21.767v-21.233h163z"/><path d="m477.706 89.98c-1.869-8.815-5.355-17.035-10.124-24.349l24.275-24.275-21.213-21.213-24.275 24.275c-7.314-4.769-15.534-8.255-24.349-10.124v-34.294h-30v34.294c-8.815 1.869-17.035 5.355-24.349 10.124l-24.275-24.275-21.213 21.213 24.275 24.275c-4.769 7.314-8.255 15.534-10.124 24.349h-34.294v30h34.294c1.869 8.815 5.355 17.035 10.124 24.349l-24.275 24.275 21.213 21.213 24.275-24.275c7.314 4.768 15.533 8.255 24.349 10.124v34.294h30v-34.294c8.815-1.869 17.035-5.355 24.349-10.124l24.275 24.275 21.213-21.213-24.275-24.275c4.769-7.314 8.256-15.534 10.125-24.349h34.293v-30zm-70.686 57.262c-23.303 0-42.262-18.959-42.262-42.262 2.322-56.066 82.211-56.049 84.525 0-.001 23.303-18.96 42.262-42.263 42.262z"/></g></svg>