<svg id="Capa_1" enable-background="new 0 0 512 512" height="512" viewBox="0 0 512 512" width="512" xmlns="http://www.w3.org/2000/svg"><g><path d="m45 0c-24.813 0-45 20.187-45 45 0 19.556 12.539 36.238 30 42.429v303.571h30v-303.571c17.461-6.191 30-22.873 30-42.429 0-24.813-20.187-45-45-45zm0 60c-8.271 0-15-6.729-15-15s6.729-15 15-15 15 6.729 15 15-6.729 15-15 15z"/><path d="m482 424.571v-303.571h-30v303.571c-17.461 6.191-30 22.873-30 42.429 0 24.813 20.187 45 45 45s45-20.187 45-45c0-19.556-12.539-36.238-30-42.429zm-15 57.429c-8.271 0-15-6.729-15-15s6.729-15 15-15 15 6.729 15 15-6.729 15-15 15z"/><path d="m361 60h-31.507c-6.968-34.192-37.274-60-73.493-60s-66.525 25.808-73.493 60h-31.507v61h-30v30h30v30h-30v30h30v30h-30v30h30v30h-30v30h30v30h-30v30h30v61h31.507c6.968 34.192 37.273 60 73.493 60s66.525-25.808 73.493-60h31.507v-61h30v-30h-30v-30h30v-30h-30v-30h30v-30h-30v-30h30v-30h-30v-30h30v-30h-30zm-105-30c19.556 0 36.238 12.539 42.429 30h-84.859c6.192-17.461 22.874-30 42.43-30zm0 452c-19.556 0-36.238-12.539-42.429-30h84.859c-6.192 17.461-22.874 30-42.43 30zm75-60h-150v-332h150z"/><path d="m210.5 121h30v30h-30z"/><path d="m271.5 121h30v30h-30z"/><path d="m210.5 181h30v30h-30z"/><path d="m271.5 181h30v30h-30z"/><path d="m210.5 241h30v30h-30z"/><path d="m271.5 241h30v30h-30z"/><path d="m210.5 301h30v30h-30z"/><path d="m271.5 301h30v30h-30z"/><path d="m210.5 361h30v30h-30z"/><path d="m271.5 361h30v30h-30z"/></g></svg>