<svg id="Capa_1" enable-background="new 0 0 511.868 511.868" height="512" viewBox="0 0 511.868 511.868" width="512" xmlns="http://www.w3.org/2000/svg"><g><path d="m508.031 217.735c-10.456-36.219-44.733-64.139-96.516-78.616-49.27-13.774-110.721-15.223-177.707-4.19-2.997.494-5.978 1.019-8.951 1.56-9.098-25.983-23.406-44.211-23.406-44.211l-23.518 18.626s9.967 12.845 17.265 31.85c-50.659 12.232-96.244 31.297-131.042 55.096-40.278 27.55-64.156 60.954-64.156 90.24s19.062 59.552 53.69 59.552h14.708v71.947h379.984v-78.138c24.826-12.012 43.328-30.018 53.904-52.633 10.321-22.068 12.415-47.977 5.745-71.083zm-409.633 171.855v-41.947h319.984v41.947zm329.696-71.948h-19.469c4.549-8.255 7.145-17.732 7.145-27.805v-12.914h-30v12.914c0 15.332-12.474 27.805-27.805 27.805h-84.575v-40.719h-30v40.719h-84.575c-15.331 0-27.805-12.473-27.805-27.805v-12.914h-30v12.914c0 10.073 2.596 19.549 7.145 27.805h-54.465c-11.352 0-21.354-8.381-23.286-19.505-3.814-23.358 14.659-50.882 50.689-75.524 39.9-27.289 95.867-47.917 157.59-58.083 61.806-10.18 120.315-8.943 164.754 3.48 41.397 11.573 68.307 32.188 75.771 58.044 4.685 16.227 3.191 34.471-4.096 50.054-8.544 18.272-24.77 32.591-47.018 41.534z"/></g></svg>