<?xml version="1.0" encoding="iso-8859-1"?>
<!-- Generator: Adobe Illustrator 19.0.0, SVG Export Plug-In . SVG Version: 6.00 Build 0)  -->
<svg xmlns="http://www.w3.org/2000/svg" xmlns:xlink="http://www.w3.org/1999/xlink" version="1.1" id="Layer_1" x="0px" y="0px" viewBox="0 0 512 512" style="enable-background:new 0 0 512 512;" xml:space="preserve">
<g>
	<g>
		<path d="M193.65,156.647c-36.028,0-62.835,14.829-65.191,36.061c-0.109,0.986-0.165,1.984-0.165,2.964    c0,21.366,24.679,37.366,60.019,38.91c1.787,0.078,3.583,0.117,5.337,0.117c37.87,0,65.357-16.413,65.357-39.026    C259.007,173.06,231.52,156.647,193.65,156.647z M193.65,203.354c-1.302,0-2.638-0.029-3.971-0.088    c-15.277-0.668-24.739-4.874-28.581-7.608c4.389-3.133,15.725-7.663,32.552-7.663c16.856,0,28.204,4.547,32.577,7.68    C221.854,198.808,210.506,203.354,193.65,203.354z"/>
	</g>
</g>
<g>
	<g>
		<path d="M387.3,263.657v-67.982c0-28.763-21.711-54.808-61.135-73.338c-35.657-16.761-82.719-25.992-132.515-25.992    c-48.057,0-93.907,8.675-129.104,24.428c-38.388,17.179-61.189,41.593-64.202,68.744C0.116,191.572,0,193.644,0,195.674v120.651    c0,27.153,19.619,52.17,55.243,70.442c31.905,16.365,74.893,26.488,121.046,28.505c5.824,0.254,11.666,0.383,17.361,0.383H512    V263.657H387.3z M31.499,192.974c3.498-31.527,69.49-65.282,162.15-65.282c95.648,0,162.303,35.828,162.303,67.983    c0,32.155-66.655,67.982-162.303,67.982c-5.245,0-10.626-0.119-15.993-0.354c-2.283-0.099-4.559-0.224-6.825-0.367    c-0.119-0.007-0.239-0.014-0.359-0.022c-35.193-2.259-68.219-9.711-93.66-21.2c-0.883-0.399-1.754-0.801-2.615-1.208    c-0.087-0.042-0.173-0.084-0.26-0.124c-0.735-0.348-1.46-0.699-2.178-1.051c-0.415-0.205-0.824-0.412-1.235-0.619    c-0.394-0.199-0.79-0.396-1.179-0.596c-0.583-0.3-1.16-0.603-1.73-0.906c-0.13-0.069-0.259-0.137-0.388-0.205    c-21.341-11.434-34.124-25.26-35.711-38.541c-0.016-0.135-0.025-0.27-0.039-0.404c-0.033-0.322-0.066-0.644-0.086-0.964    c-0.028-0.474-0.045-0.948-0.045-1.421C31.347,194.794,31.398,193.885,31.499,192.974z M355.953,251.057v12.6H336.69    C343.833,259.722,350.257,255.508,355.953,251.057z M480.653,384.308h-32.889v-41.32h-31.347v41.32h-38.861v-66.746h-31.347    v66.746h-38.113v-41.32H276.75v41.32h-38.862v-66.746h-31.347v66.746H193.65c-5.241,0-10.621-0.119-15.993-0.353    c-3.096-0.135-6.172-0.315-9.229-0.527v-40.441h-31.347v36.803c-13.785-2.275-26.847-5.377-38.861-9.236v-66.401H66.873v53.31    c-22.619-12.202-35.527-27.096-35.527-41.139v-65.242c4.296,3.351,9.026,6.561,14.15,9.626c0.057,0.034,0.113,0.07,0.17,0.104    c0.646,0.386,1.306,0.765,1.964,1.145c0.645,0.373,1.295,0.745,1.951,1.114c0.517,0.289,1.035,0.578,1.559,0.863    c0.995,0.543,2.004,1.081,3.025,1.614c0.254,0.132,0.502,0.266,0.758,0.398c0.108,0.055,0.21,0.112,0.318,0.167    c1.247,0.639,2.517,1.266,3.797,1.887c0.187,0.091,0.377,0.181,0.565,0.271c1.348,0.648,2.713,1.286,4.096,1.913    c0.071,0.032,0.138,0.066,0.21,0.098c0.026,0.011,0.053,0.023,0.08,0.034c1.691,0.763,3.412,1.507,5.153,2.237    c0.338,0.141,0.674,0.283,1.013,0.423c1.522,0.629,3.062,1.248,4.621,1.852c0.712,0.277,1.43,0.548,2.149,0.819    c0.793,0.299,1.593,0.592,2.396,0.885c22.229,8.131,47.548,13.707,74.746,16.464c0.41,0.042,0.818,0.085,1.228,0.125    c1.18,0.116,2.36,0.23,3.547,0.335c1.728,0.155,3.463,0.297,5.203,0.428c0.678,0.051,1.358,0.099,2.039,0.146    c2.088,0.146,4.182,0.28,6.285,0.393c0.086,0.004,0.17,0.011,0.256,0.016l1.028,0.561h306.999V384.308z"/>
	</g>
</g>
<g>
</g>
<g>
</g>
<g>
</g>
<g>
</g>
<g>
</g>
<g>
</g>
<g>
</g>
<g>
</g>
<g>
</g>
<g>
</g>
<g>
</g>
<g>
</g>
<g>
</g>
<g>
</g>
<g>
</g>
</svg>
