<svg id="Capa_1" enable-background="new 0 0 512 512" height="512" viewBox="0 0 512 512" width="512" xmlns="http://www.w3.org/2000/svg"><g><path d="m420.628 263.009-62.787-263.009h-203.682l-62.787 263.009c-20.049 83.984-2.765 172.448 47.422 242.709l4.487 6.281h225.439l4.486-6.281c50.187-70.26 67.471-158.724 47.422-242.709zm-264.273-143.009 7.162-30h32.483v30zm69.645-30h60v30h-60zm90 0h32.483l7.162 30h-39.645zm18.159-60 7.162 30h-170.642l7.162-30zm18.989 452h-194.295c-41.774-62.14-55.742-138.965-38.301-212.025l28.641-119.975h213.614l28.642 119.975c17.44 73.06 3.473 149.885-38.301 212.025z"/></g></svg>