<svg id="Capa_1" enable-background="new 0 0 512 512" height="512" viewBox="0 0 512 512" width="512" xmlns="http://www.w3.org/2000/svg"><g><path d="m512 45h-344.082c-15.584-26.88-44.674-45-77.918-45-49.626 0-90 40.374-90 90v332c0 49.626 40.374 90 90 90 33.244 0 62.334-18.12 77.918-45h344.082zm-362 332h-120v-242h120zm30-242h242v242h-242zm-90-105c33.084 0 60 26.916 60 60v15h-120v-15c0-33.084 26.916-60 60-60zm0 452c-33.084 0-60-26.916-60-60v-15h120v15c0 33.084-26.916 60-60 60zm392-45h-303.257c.822-4.88 1.257-9.89 1.257-15v-15h272v-302h-272v-15c0-5.11-.435-10.12-1.257-15h303.257z"/></g></svg>