<svg id="Capa_1" enable-background="new 0 0 512 512" height="512" viewBox="0 0 512 512" width="512" xmlns="http://www.w3.org/2000/svg"><g><path d="m180 105c0-24.813-20.187-45-45-45s-45 20.187-45 45 20.187 45 45 45 45-20.187 45-45zm-45 15c-8.271 0-15-6.729-15-15s6.729-15 15-15 15 6.729 15 15-6.729 15-15 15z"/><path d="m135 0c-74.439 0-135 60.561-135 135s60.561 135 135 135 135-60.561 135-135-60.561-135-135-135zm-45 229.855v-4.855c0-24.813 20.187-45 45-45s45 20.187 45 45v4.855c-13.647 6.5-28.905 10.145-45 10.145s-31.353-3.645-45-10.145zm118.478-19.927c-6.996-34.157-37.284-59.928-73.478-59.928s-66.482 25.771-73.478 59.928c-19.44-19.068-31.522-45.612-31.522-74.928 0-57.897 47.103-105 105-105s105 47.103 105 105c0 29.316-12.082 55.86-31.522 74.928z"/><path d="m422 347c0-24.813-20.187-45-45-45s-45 20.187-45 45 20.187 45 45 45 45-20.187 45-45zm-45 15c-8.271 0-15-6.729-15-15s6.729-15 15-15 15 6.729 15 15-6.729 15-15 15z"/><path d="m377 242c-74.439 0-135 60.561-135 135s60.561 135 135 135 135-60.561 135-135-60.561-135-135-135zm-45 229.855v-4.855c0-24.813 20.187-45 45-45s45 20.187 45 45v4.855c-13.647 6.5-28.905 10.145-45 10.145s-31.353-3.645-45-10.145zm118.478-19.927c-6.996-34.157-37.284-59.928-73.478-59.928s-66.482 25.771-73.478 59.928c-19.44-19.068-31.522-45.612-31.522-74.928 0-57.897 47.103-105 105-105s105 47.103 105 105c0 29.316-12.082 55.86-31.522 74.928z"/><path d="m180 302h-180v210h180v-68.787l36.213-36.213-36.213-36.213zm-30 128.787v51.213h-120v-150h120v51.213l23.787 23.787z"/><path d="m60 362h60v30h-60z"/><path d="m60 422h60v30h-60z"/><path d="m332 0v68.787l-36.213 36.213 36.213 36.213v68.787h180v-210zm150 180h-120v-51.213l-23.787-23.787 23.787-23.787v-51.213h120z"/><path d="m392 60h60v30h-60z"/><path d="m392 120h60v30h-60z"/></g></svg>