<svg id="Capa_1" enable-background="new 0 0 512 512" height="512" viewBox="0 0 512 512" width="512" xmlns="http://www.w3.org/2000/svg"><path d="m495.295 191.016-3.855-33.176c-4.363-47.203-51.898-84.523-99.437-76.682-90.072 12.876-181.592 12.875-272.02-.001-46.669-7.783-95.012 28.76-99.426 76.683l-3.854 33.176h-16.703v240.875h512v-240.875zm-397.948 30 35.714 53.57c15.364 23.046 41.072 36.805 68.77 36.805h108.339c27.697 0 53.405-13.759 68.769-36.805l35.714-53.57h67.347v120.625h-452v-120.625zm56.139 30.125h205.028l-4.536 6.805c-9.787 14.681-26.164 23.445-43.808 23.445h-108.339c-17.644 0-34.021-8.765-43.808-23.445zm-103.128-89.839c2.852-30.75 33.893-55.569 65.4-50.444 93.235 13.276 187.606 13.277 280.479 0 30.292-5.071 62.516 18.738 65.403 50.444l3.452 29.713h-66.496l-20.083 30.125h-245.027l-20.083-30.125h-66.497zm-20.358 240.589v-30.25h452v30.25z"/></svg>