<svg id="Capa_1" enable-background="new 0 0 509.461 509.461" height="512" viewBox="0 0 509.461 509.461" width="512" xmlns="http://www.w3.org/2000/svg"><g id="XMLID_966_"><path id="XMLID_969_" d="m472.364 196.088v-67.009l-58.314-33.668-33.668-58.315h-67.009l-58.643-37.096-58.643 37.097h-67.009l-33.667 58.314-58.315 33.668v67.009l-37.096 58.642 37.097 58.643v67.009l58.315 33.668 33.668 58.314h67.009l58.643 37.097 58.643-37.097h67.009l33.668-58.314 58.314-33.668v-67.009l37.097-58.643zm-30 108.592v58.382l-50.275 29.027-29.027 50.275h-58.382l-49.949 31.599-49.949-31.599h-58.382l-29.027-50.275-50.275-29.027v-58.382l-31.6-49.95 31.599-49.949v-58.382l50.275-29.027 29.027-50.275h58.382l49.949-31.599 49.949 31.599h58.382l29.027 50.275 50.275 29.027v58.382l31.599 49.949z"/><path id="XMLID_970_" d="m254.73 119.73v30c16.542 0 30 13.458 30 30s-13.458 30-30 30-30-13.458-30-30h-30c0 33.084 26.916 60 60 60s60-26.916 60-60-26.915-60-60-60z"/><path id="XMLID_971_" d="m149.73 269.73c-24.813 0-45 20.186-45 45h30c0-8.271 6.729-15 15-15s15 6.729 15 15c0 8.272-6.729 15-15 15v30c24.814 0 45-20.186 45-45s-20.186-45-45-45z"/><path id="XMLID_972_" d="m164.73 104.73h30v30h-30z"/><path id="XMLID_973_" d="m194.73 374.73h30v30h-30z"/><path id="XMLID_974_" d="m330.484 330.484c-23.395 23.394-23.395 61.459 0 84.853l21.213-21.213c-5.666-5.666-8.786-13.2-8.786-21.214 0-8.013 3.12-15.547 8.786-21.213s13.2-8.786 21.213-8.786c8.014 0 15.548 3.12 21.214 8.786l21.213-21.213c-23.395-23.395-61.458-23.393-84.853 0z"/><path id="XMLID_975_" d="m344.73 149.73h30v30h-30z"/><path id="XMLID_976_" d="m104.73 194.73h30v30h-30z"/><path id="XMLID_977_" d="m239.73 299.73h30v30h-30z"/><path id="XMLID_978_" d="m379.124 250.337c-5.849-5.849-5.849-15.364 0-21.213l-21.213-21.213c-17.546 17.545-17.546 46.094 0 63.639 8.772 8.772 20.296 13.159 31.819 13.159s23.047-4.387 31.819-13.159l-21.213-21.213c-5.849 5.848-15.362 5.848-21.212 0z"/></g></svg>