<svg id="Capa_1" enable-background="new 0 0 512 512" height="512" viewBox="0 0 512 512" width="512" xmlns="http://www.w3.org/2000/svg"><g><path d="m401.186 80.815h30v30h-30z" transform="matrix(.707 -.707 .707 .707 54.144 322.347)"/><path d="m358.582 123.418h30v30h-30z" transform="matrix(.707 -.707 .707 .707 11.543 304.704)"/><path d="m315.979 166.021h30v30.001h-30z" transform="matrix(.707 -.707 .707 .707 -31.059 287.062)"/><path d="m273.376 208.624h30v30h-30z" transform="matrix(.707 -.707 .707 .707 -73.663 269.407)"/><path d="m230.773 251.228h30v30h-30z" transform="matrix(.707 -.707 .707 .707 -116.266 251.764)"/><path d="m490.787 191.629 21.213-21.212-33.053-33.053c8.123-12.215 12.488-26.546 12.488-41.549 0-20.1-7.827-38.997-22.04-53.209-23.811-24.727-65.803-29.37-94.758-9.552l-33.053-33.054-21.213 21.213 31.998 31.998-21.391 21.391-31.998-31.998-21.213 21.213 31.998 31.998-21.39 21.39-31.999-31.998-21.213 21.213 31.999 31.998-21.39 21.39-31.998-31.998-21.213 21.213 31.998 31.998-21.39 21.39-31.998-31.998-21.213 21.213 31.998 31.998-42.604 42.603 21.302 21.302-160.654 160.655 63.816 63.816 160.654-160.654 21.302 21.302 42.604-42.604 31.998 31.998 21.213-21.213-31.998-31.998 21.39-21.39 31.999 31.998 21.213-21.213-31.999-31.998 21.39-21.39 31.999 31.999 21.213-21.213-31.999-31.999 21.39-21.391 31.998 31.999 21.213-21.213-31.998-31.999 21.39-21.39zm-426.971 277.944-21.39-21.39 139.441-139.441 21.39 21.39zm181.868-139.441-63.816-63.816-.088-.088 202.408-202.41c16.212-16.966 46.855-17.863 63.993 0 17.643 17.643 17.643 46.351 0 63.994l-202.409 202.409z"/></g></svg>