<svg id="Capa_1" enable-background="new 0 0 510 510" height="512" viewBox="0 0 510 510" width="512" xmlns="http://www.w3.org/2000/svg"><g><path d="m408.661 207.803 7.068 19.998c17.229 48.746-19.123 100.002-70.729 100.002-41.355 0-75-33.645-75-75 0-11.985-2.014-23.761-5.985-34.998l-28.285 9.996c17.228 48.746-19.123 100.002-70.73 100.002-51.713 0-87.926-51.346-70.729-100.002l7.068-19.998h-101.339v300h510v-300zm-347.595 30c-9.056 63.087 39.931 120 103.934 120 38.148 0 71.61-20.452 90-50.963 18.39 30.511 51.853 50.963 90 50.963 63.921 0 113.004-56.81 103.934-120h31.066v150.645c-24.15 2.164-38.662 9.415-51.709 15.938-14.398 7.199-26.834 13.417-53.294 13.417-26.459 0-38.895-6.218-53.293-13.416-15.547-7.773-33.168-16.584-66.709-16.584-33.54 0-51.16 8.811-66.706 16.584-14.398 7.198-26.832 13.416-53.291 13.416-26.458 0-38.893-6.218-53.291-13.416-13.046-6.523-27.557-13.774-51.707-15.938v-150.646zm-31.066 240v-59.218c16.779 1.884 26.926 6.952 38.291 12.634 15.546 7.773 33.166 16.584 66.707 16.584s51.161-8.81 66.707-16.584c14.398-7.198 26.832-13.416 53.29-13.416 26.46 0 38.894 6.218 53.293 13.416 15.547 7.773 33.168 16.584 66.709 16.584 33.542 0 51.163-8.81 66.71-16.584 11.365-5.682 21.513-10.75 38.293-12.634v59.218z"/><path d="m165 297.803c24.814 0 45-20.186 45-45 0-17.5-19.016-47.918-29.29-63.507 4.325-56.73 28.488-109.479 69.142-150.133l15.754-15.754-21.212-21.212-15.754 15.754c-47.007 47.008-73.12 107.749-77.834 169.061-10.535 15.744-30.806 47.908-30.806 65.791 0 24.814 20.186 45 45 45zm0-77.194c8.635 14.551 14.872 27.615 15 32.206-.007 8.266-6.733 14.988-15 14.988-8.271 0-15-6.728-15-14.982.122-4.585 6.361-17.656 15-32.212z"/><path d="m345 297.803c24.814 0 45-20.186 45-45 0-17.5-19.016-47.918-29.29-63.507 4.325-56.73 28.488-109.479 69.143-150.133l15.754-15.754-21.213-21.212-15.754 15.754c-47.007 47.008-73.119 107.749-77.834 169.062-10.534 15.743-30.806 47.907-30.806 65.79 0 24.814 20.186 45 45 45zm0-77.194c8.635 14.551 14.872 27.615 15 32.206-.007 8.266-6.733 14.988-15 14.988-8.272 0-15-6.728-15-14.982.122-4.585 6.361-17.656 15-32.212z"/></g></svg>