<svg id="Capa_1" enable-background="new 0 0 512 512" height="512" viewBox="0 0 512 512" width="512" xmlns="http://www.w3.org/2000/svg"><g><path d="m475.371 36.629c-48.837-48.838-128.303-48.838-177.14 0l-261.603 261.603c-48.838 48.838-48.838 128.302 0 177.14 24.419 24.419 56.495 36.628 88.57 36.628s64.151-12.209 88.57-36.628l261.603-261.603c48.839-48.838 48.839-128.302 0-177.14zm-282.82 417.525c-37.138 37.137-97.566 37.137-134.705 0-37.138-37.138-37.138-97.566 0-134.705l71.448-71.447 134.704 134.704zm92.666-92.666-134.705-134.704 76.271-76.271 134.704 134.704zm168.937-168.937-71.448 71.447-134.705-134.704 71.447-71.448c37.139-37.137 97.565-37.137 134.705 0 37.139 37.139 37.139 97.567.001 134.705z"/><path d="m369.705 154.807h30.097v30.006h-30.097z" transform="matrix(.707 -.707 .707 .707 -7.382 321.798)"/><path d="m412.269 112.243h30.096v30.006h-30.096z" transform="matrix(.707 -.707 .707 .707 35.181 339.428)"/><path d="m369.705 69.68h30.097v30.006h-30.097z" transform="matrix(.707 -.707 .707 .707 52.811 296.865)"/><path d="m327.142 112.243h30.096v30.006h-30.096z" transform="matrix(.707 -.707 .707 .707 10.248 279.235)"/><path d="m154.761 369.75h30.097v30.007h-30.097z" transform="matrix(.707 -.707 .707 .707 -222.322 232.756)"/><path d="m112.198 412.313h30.097v30.007h-30.097z" transform="matrix(.707 -.707 .707 .707 -264.894 215.144)"/><path d="m69.635 369.75h30.097v30.007h-30.097z" transform="matrix(.707 -.707 .707 .707 -247.254 172.564)"/><path d="m112.198 327.187h30.097v30.007h-30.097z" transform="matrix(.707 -.707 .707 .707 -204.699 190.21)"/></g></svg>