<svg id="Layer_1" enable-background="new 0 0 511.954 511.954" height="512" viewBox="0 0 511.954 511.954" width="512" xmlns="http://www.w3.org/2000/svg"><g><g><path d="m255.978 432.824c-97.53 0-176.876-79.346-176.876-176.876 8.892-234.328 344.895-234.264 353.752.002-.001 97.528-79.347 176.874-176.876 176.874zm0-323.752c-80.988 0-146.876 65.888-146.876 146.876 7.384 194.583 286.397 194.53 293.752-.002-.001-80.986-65.889-146.874-146.876-146.874z"/></g><g><path d="m255.978 511.954c-16.312 0-31.82-5.187-44.849-15.001-10.415-7.863-23.861-11.49-36.813-9.864-32.732 4.168-64.935-14.384-77.68-44.849-5.181-12.198-14.752-21.769-26.95-26.95-30.428-12.923-48.871-44.867-44.849-77.681 1.612-13.153-1.891-26.228-9.864-36.813-19.89-26.406-19.89-63.291 0-89.698 7.973-10.585 11.477-23.66 9.864-36.813-4.022-32.813 14.42-64.757 44.849-77.68 12.198-5.181 21.769-14.752 26.95-26.95 11.714-27.582 38.635-45.405 68.583-45.405 5.11-.124 10.185.938 15.29.935 10.977 0 21.852-3.638 30.621-10.243 25.723-19.923 63.974-19.923 89.697 0 8.77 6.605 19.644 10.243 30.62 10.243 2.062 0 4.146-.127 6.193-.378 32.733-4.167 64.935 14.383 77.681 44.849 5.181 12.198 14.752 21.768 26.95 26.95 30.428 12.923 48.87 44.867 44.849 77.68-1.613 13.154 1.89 26.228 9.863 36.814 19.89 26.406 19.89 63.291 0 89.698-7.974 10.585-11.477 23.659-9.863 36.813 4.021 32.814-14.421 64.757-44.849 77.681-12.198 5.181-21.77 14.752-26.95 26.95-12.744 30.465-44.952 49.019-77.681 44.849-12.953-1.626-26.398 2.001-36.813 9.864-13.029 9.812-28.538 14.999-44.849 14.999zm-75.47-55.243c17.447 0 34.732 5.782 48.669 16.28 15.372 11.905 38.228 11.905 53.6 0 16.552-12.497 37.926-18.262 58.513-15.679 1.804.221 3.637.333 5.448.333 17.887.001 33.968-10.649 40.969-27.132 8.234-19.388 23.447-34.6 42.835-42.834 18.183-7.723 29.203-26.811 26.8-46.418-2.563-20.907 3.005-41.687 15.678-58.512 11.885-15.779 11.885-37.82 0-53.599-12.673-16.826-18.241-37.606-15.678-58.513 2.403-19.607-8.617-38.695-26.8-46.418-19.388-8.234-34.6-23.446-42.835-42.833-7.617-18.209-26.861-29.296-46.417-26.8-3.254.398-6.565.601-9.843.601-17.447 0-34.732-5.781-48.67-16.28-15.372-11.907-38.228-11.907-53.599-.002-13.938 10.498-31.222 16.279-48.67 16.28-3.277 0-6.588-.202-9.843-.601-19.56-2.494-38.798 8.588-46.418 26.799-8.234 19.388-23.446 34.6-42.834 42.834-18.183 7.723-29.204 26.811-26.8 46.418 2.562 20.907-3.006 41.687-15.679 58.513-11.885 15.779-11.885 37.82 0 53.599 12.673 16.826 18.241 37.606 15.679 58.513-2.404 19.608 8.617 38.696 26.799 46.418 19.388 8.234 34.6 23.446 42.834 42.833 7 16.483 23.083 27.133 40.971 27.133 5.1-.046 10.177-1.07 15.291-.933z"/></g><g><path d="m341.945 319.639h-171.935v-122.417h30v.865c1.033 27.144 39.945 27.124 40.968 0v-16.833h30v16.833c1.033 27.145 39.944 27.123 40.968 0v-.865h30v122.417zm-141.935-30h111.936v-45.412c-18.149 8.606-42.439 3.872-55.968-10.264-13.526 14.136-37.822 18.869-55.968 10.264z"/></g></g></svg>