<svg id="Layer_1" enable-background="new 0 0 510 510" height="512" viewBox="0 0 510 510" width="512" xmlns="http://www.w3.org/2000/svg"><g id="XMLID_116_"><path id="XMLID_220_" d="m150 165.004c-49.626 0-90 40.374-90 90 4.525 119.233 175.493 119.201 180-.001 0-49.625-40.374-89.999-90-89.999zm0 150c-33.084 0-60-26.916-60-60 3.017-79.489 116.996-79.467 120 .001 0 33.083-26.916 59.999-60 59.999z"/><path id="XMLID_1365_" d="m296.984 285.004c19.607-91.314-53.39-181.087-146.985-179.999-82.709-.001-149.999 67.289-149.999 149.999s67.29 150 150 150h360v-120zm-266.984-30c0-66.168 53.832-120 120-120 158.978 6.033 158.934 233.991-.002 240-66.166 0-119.998-53.832-119.998-120zm450 120h-45v-30h-30v30h-45v-30h-30v30h-90.1c20.602-15.474 37.1-36.125 47.562-60h192.538z"/><path id="XMLID_1367_" d="m135 240.004h30v30h-30z"/></g></svg>