<svg id="Capa_1" enable-background="new 0 0 512 512" height="512" viewBox="0 0 512 512" width="512" xmlns="http://www.w3.org/2000/svg"><path d="m413.576 144.163c5.106-8.697 8.049-18.811 8.049-29.604v-44.667h-44.667c-32.349 0-58.666 26.318-58.666 58.667v24.441c-8.553 3.926-16.598 9.003-23.987 15.19-2.422 2.028-4.744 4.153-6.969 6.366l.438-10.397c1.262-29.976-22.1-55.39-52.076-56.651-14.522-.609-28.411 4.469-39.111 14.305s-16.929 23.25-17.541 37.771c-.507 12.056 3.71 23.588 11.876 32.471 8.166 8.884 19.303 14.056 31.358 14.563l1.262-29.974c-26.499-1.115-11.917-40.092 10.894-39.163 13.449.566 23.93 11.968 23.364 25.416-1.954 46.419.063 97.055-12.31 142.145-14.266 52.005-64.332 89.75-119.045 89.75-53.179.001-96.445-43.264-96.445-96.445 0-40.89 33.267-74.157 74.157-74.157 31.058 0 56.326 25.268 56.326 56.326 0 23.192-18.868 42.06-42.061 42.06-16.899 0-30.648-13.749-30.648-30.648 0-11.865 9.653-21.519 21.519-21.519v-30c-28.407 0-51.519 23.111-51.519 51.519 0 33.442 27.207 60.648 60.648 60.648 39.734 0 72.061-32.326 72.061-72.06 0-47.6-38.726-86.326-86.326-86.326-57.432 0-104.157 46.725-104.157 104.157 0 69.723 56.724 126.446 126.446 126.446 36.744 0 71.806-13.748 99.08-36.61 4.803 14.174 14.645 25.811 27.909 32.89l39.405 21.034 21.032-39.405c7.38-13.824 8.934-29.695 4.376-44.688s-14.681-27.314-28.505-34.693l-15.858-8.465c7.307-25.27 6.418-51.726 12.087-77.26 8.547-38.503 39.846-64.372 77.885-64.372 31.922 0 57.893 25.971 57.893 57.894 0 21.874-17.796 39.67-39.67 39.67-14.338 0-26.003-11.665-26.003-26.002 0-8.686 7.066-15.752 15.752-15.752v-30c-25.228 0-45.752 20.524-45.752 45.752 0 30.88 25.123 56.002 56.003 56.002 38.416 0 69.67-31.254 69.67-69.67 0-17.971-5.425-34.697-14.718-48.633 26.681 13.817 44.968 41.67 44.968 73.732 0 45.761-37.229 82.991-82.991 82.991h-19.342v30h19.342c62.303-.001 112.991-50.688 112.991-112.991 0-57.368-42.976-104.885-98.424-112.054zm-124.031 222.577c3.214 10.575-2.747 25.616-9.045 34.775-11.015-3.846-23.353-12.296-26.867-23.859-3.214-10.573 2.748-25.617 9.044-34.775 11.015 3.846 23.354 12.296 26.868 23.859zm58.747-238.181c0-15.807 12.859-28.667 28.666-28.667h14.667v14.667c0 15.807-12.86 28.667-28.667 28.667h-14.666z"/></svg>