<svg id="Capa_1" enable-background="new 0 0 512 512" height="512" viewBox="0 0 512 512" width="512" xmlns="http://www.w3.org/2000/svg"><g><g><path d="m151 45.5c0 38.151 20.455 71.612 50.971 90-30.516 18.388-50.971 51.849-50.971 90v61c0 38.151 20.455 71.612 50.971 90-30.516 18.388-50.971 51.849-50.971 90v45.5h210v-45.5c0-38.151-20.455-71.612-50.971-90 30.516-18.388 50.971-51.849 50.971-90v-61c0-38.151-20.455-71.612-50.971-90 30.516-18.388 50.971-51.849 50.971-90v-45.5h-210zm180 180v15.5h-150v-15.5c0-5.048.509-9.979 1.464-14.75h147.071c.956 4.771 1.465 9.702 1.465 14.75zm-1.464 75.75h-147.072c-.956-4.771-1.464-9.702-1.464-14.75v-15.5h150v15.5c0 5.048-.509 9.979-1.464 14.75zm1.464 180.75h-150v-15.5c0-5.048.509-9.979 1.464-14.75h147.071c.955 4.771 1.464 9.702 1.464 14.75v15.5zm-14.852-60.25h-120.296c13.685-18.347 35.552-30.25 60.148-30.25 24.597 0 46.463 11.903 60.148 30.25zm-120.296-90.5h120.297c-13.686 18.347-35.552 30.25-60.149 30.25-24.596 0-46.463-11.903-60.148-30.25zm120.296-150.5h-120.296c13.685-18.347 35.552-30.25 60.148-30.25 24.597 0 46.463 11.903 60.148 30.25zm-120.296-90.5h120.297c-13.686 18.347-35.552 30.25-60.149 30.25-24.596 0-46.463-11.903-60.148-30.25zm-14.852-60.25h150v15.5c0 5.048-.509 9.979-1.464 14.75h-147.072c-.955-4.771-1.464-9.702-1.464-14.75z"/><path d="m75.5 83.422h-30v36.34l-45.5 26.27v69.859l45.5 26.269v27.68l-45.5 26.269v69.859l45.5 26.269v36.34h30v-36.34l45.5-26.269v-69.859l-45.5-26.269v-27.68l45.5-26.269v-69.859l-45.5-26.269zm15.5 265.226-30.5 17.609-30.5-17.609v-35.218l30.5-17.609 30.5 17.609zm0-150.078-30.5 17.61-30.5-17.61v-35.218l30.5-17.609 30.5 17.609z"/><path d="m512 221.07-45.5-26.269v-36.34h-30v36.34l-45.5 26.269v69.859l45.5 26.269v36.34h30v-36.34l45.5-26.268zm-30 52.539-30.5 17.609-30.5-17.609v-35.219l30.5-17.609 30.5 17.609z"/></g></g></svg>