<svg id="Capa_1" enable-background="new 0 0 511.939 511.939" height="512" viewBox="0 0 511.939 511.939" width="512" xmlns="http://www.w3.org/2000/svg"><path d="m421.657 235.978c-1.649 0-3.291.09-4.922.269-10.149-10.145-40.548-40.559-48.882-48.873-51.436-51.317-104.623-104.381-104.623-172.374v-15h-218.073v511.866l244.609.074v-15.004c0-17.041 1.625-45.272 2.685-61.875 31.577-2.624 61.31-14.09 86.699-33.553 25.7-19.701 45.297-46.894 55.88-77.3 18.465-5.722 31.752-22.956 31.752-43.104 0-24.883-20.243-45.126-45.125-45.126zm-60.758 141.719c-23.848 18.281-52.381 27.943-82.516 27.943-43.107 0-82.702-19.796-108.63-54.313l-23.986 18.018c27.165 36.437 70.675 61.459 116.63 65.547-.807 12.733-1.87 31.226-2.361 47.039l-184.879-.056v-451.875h158.777c6.881 73.003 62.919 128.916 112.729 178.611 2.522 2.509 13.52 13.508 16.388 16.377-14.327 14.932-22.524 34.895-22.524 56.114 0 31.267 17.865 59.003 44.671 72.489-7.041 8.987-15.193 17.126-24.299 24.106zm61.658-81.5-10.646.617c-2.761 10.093-5.832 20.785-10.806 31.128-18.233-7.99-30.575-26.195-30.575-46.839 0-13.146 4.999-25.526 13.751-34.886l23.616 23.616 8.853-3.035c8.18-3.363 20.462 3.991 20.034 14.306-.002 8.001-6.25 14.631-14.227 15.093z"/></svg>