<svg id="Capa_1" enable-background="new 0 0 512 512" height="512" viewBox="0 0 512 512" width="512" xmlns="http://www.w3.org/2000/svg"><g><path d="m256 0-195 65.024v446.976h135v-89.033c0-33.096 26.916-60.022 60-60.022 16.022 0 31.089 6.245 42.428 17.587 11.332 11.328 17.572 26.398 17.572 42.435v89.033h135v-446.976zm-165 152.868h60v60.022h-60zm90 0h150v60.022h-150zm240 329.121h-75v-59.022c0-24.057-9.364-46.667-26.363-63.661-17.001-17.006-39.601-26.372-63.637-26.372-49.626 0-90 40.389-90 90.033v59.022h-75v-179.066h330zm0-209.077h-330v-30.011h330zm0-60.022h-60v-60.022h60zm-330-90.033v-36.202l165-55.02 165 55.02v36.202z"/></g></svg>