<svg id="Capa_1" enable-background="new 0 0 512.007 512.007" height="512" viewBox="0 0 512.007 512.007" width="512" xmlns="http://www.w3.org/2000/svg"><g><path d="m364.1 241.125c75.65 6.945 95.424 4.683 97.205 3.407 41.914-10.281 52.351-57.314 50.501-83.195-1.974-7.796-25.661-38.023-42.16-43.834 3.344-18.546-11.491-53.393-16.648-58.509-5.724-5.771-41.082-19.755-58.416-16.47-6.739-18.254-36.909-40.421-43.915-42.325-36.439-2.284-75.007 15.628-83.195 50.5-1.023.342-3.683 22.59 3.407 97.206-63.122-26.324-138.732-13.858-190.012 37.422-47.525 47.525-62.531 117.436-42.46 197.237l-38.407 115.217 14.222 14.222 115.219-38.406c79.801 20.071 149.713 5.065 197.237-42.46 51.28-51.28 63.746-126.89 37.422-190.012zm87.376-84.612c3.21-3.21 6.001-6.637 8.378-10.255 7.017 3.43 19.145 17.057 22.121 22.956-.316 9.986-3.37 39.735-28.244 46.29-8.586 1.92-53.301-1.023-103.829-5.766 5.886-2.712 11.979-5.541 18.12-8.42 72.779-34.13 80.26-41.61 83.454-44.805zm-20.256-75.665c4.79 8.814 17.259 36.183-.922 54.416-6.97 6.416-52.283 28.683-102.199 51.518-.702-.68.33.249-2.817-2.818 22.932-49.896 45.271-95.172 51.622-102.022 11.73-14.457 40.703-9.727 54.316-1.094zm-134.739-22.505c3.808-20.241 30.81-28.242 46.337-28.295 5.734 3.243 18.036 13.123 23.064 22.339-3.594 2.371-6.998 5.15-10.19 8.342s-10.665 10.665-44.894 83.331c-2.912 6.181-5.773 12.318-8.514 18.239-4.756-50.606-7.712-95.411-5.803-103.956zm-69.052 391.342c-29.005 5.229-64.576 2.418-99.004-7.372l-88.102 29.368 29.367-88.103c-3.149-11.254-6.247-25.439-7.833-37.218l83.802 83.802 21.213-21.213-106.677-106.678c.428-6.019 1.126-11.924 2.124-17.697 4.887-28.287 16.644-52.788 34.947-72.955l133.467 133.467 21.213-21.213-132.293-132.294c56.178-40.559 135.275-35.578 185.813 14.959 34.152 34.152 47.503 81.349 40.053 125.7l-72.182-72.182-21.213 21.213 83.767 83.767c-6.991 16.314-17.129 31.59-30.426 44.887-9.002 9.002-18.957 16.587-29.79 22.751l-87.478-87.478-21.213 21.213 78.925 78.925c-5.969 1.789-12.123 3.253-18.48 4.351z"/><path d="m215.734 223.667h30v30h-30z" transform="matrix(.707 -.707 .707 .707 -101.183 233.057)"/><path d="m130.593 308.807h30v30h-30z" transform="matrix(.707 -.707 .707 .707 -186.323 197.791)"/></g></svg>