<svg id="Capa_1" enable-background="new 0 0 512.394 512.394" height="512" viewBox="0 0 512.394 512.394" width="512" xmlns="http://www.w3.org/2000/svg"><g id="XMLID_175_"><g id="XMLID_97_"><path id="XMLID_950_" d="m258.792 397.415c-47.875 0-93.448-15.15-131.794-43.812-38.346-28.663-65.779-68.083-79.333-113.998l-8.407-28.479 105.712-86.768c32.713-26.852 78.31-29.724 113.863-8.075 35.345-21.251 80.401-18.423 113.033 8.136l106.473 86.664-8.419 28.521c-13.554 45.916-40.986 85.336-79.333 113.999-38.347 28.661-83.921 43.812-131.795 43.812zm-185.133-175.715 2.778 9.411c23.69 80.253 98.677 136.304 182.354 136.304 83.678 0 158.665-56.051 182.355-136.305l2.765-9.368-90.984-74.057c-24.723-20.124-59.692-20.676-85.039-1.344l-8.991 6.857-10.259-7.644c-25.375-18.902-60.178-18.084-84.636 1.991z"/></g><g id="XMLID_84_"><path id="XMLID_946_" d="m258.792 287.598c-48.782 0-87.543-30.851-89.169-32.164l-14.45-11.67 14.45-11.67c1.626-1.313 40.388-32.163 89.169-32.163s87.542 30.85 89.169 32.163l14.45 11.67-14.45 11.67c-1.626 1.314-40.388 32.164-89.169 32.164zm-51.656-43.866c12.96 6.725 31.475 13.866 51.656 13.866 20.146 0 38.629-7.115 51.591-13.834-12.961-6.718-31.445-13.833-51.591-13.833-20.302 0-38.753 7.096-51.656 13.801z"/></g><g id="XMLID_215_"><path id="XMLID_943_" d="m68.964 512.394-57.129-62.327c-9.886-10.785-13.537-25.663-9.767-39.8 3.546-13.297 12.937-23.779 25.765-28.761 12.826-4.98 26.831-3.583 38.421 3.835l2.709 1.734 2.709-1.734c11.589-7.419 25.592-8.816 38.421-3.835 12.828 4.981 22.219 15.464 25.765 28.761 3.77 14.138.119 29.016-9.767 39.8zm-25.669-103.793c-1.544 0-3.1.288-4.602.871-3.803 1.477-6.587 4.584-7.638 8.525-1.117 4.19-.035 8.601 2.895 11.798l35.014 38.2 35.015-38.2c2.93-3.196 4.012-7.607 2.895-11.798-1.051-3.941-3.835-7.049-7.638-8.525-3.802-1.477-7.955-1.062-11.389 1.137l-18.882 12.086-18.882-12.086c-2.08-1.331-4.421-2.008-6.788-2.008z"/></g><g id="XMLID_222_"><path id="XMLID_940_" d="m441.122 138.003-59.121-64.5c-10.163-11.087-13.917-26.383-10.041-40.916 3.646-13.669 13.3-24.445 26.487-29.566 13.186-5.12 27.583-3.684 39.499 3.942l3.176 2.033 3.177-2.033c11.915-7.626 26.311-9.062 39.499-3.942 13.187 5.121 22.841 15.897 26.487 29.566 3.876 14.533.123 29.829-10.041 40.916zm-26.778-107.97c-1.69 0-3.393.315-5.036.954-4.163 1.616-7.209 5.018-8.36 9.331-1.223 4.587-.039 9.415 3.169 12.914l37.006 40.373 37.007-40.373c3.208-3.499 4.392-8.327 3.169-12.914-1.151-4.313-4.198-7.715-8.36-9.331-4.161-1.617-8.706-1.163-12.466 1.244l-19.349 12.383-19.348-12.383c-2.278-1.457-4.841-2.198-7.432-2.198z"/></g><g id="XMLID_353_"><path id="XMLID_939_" d="m481.203 480.571h30v31.36h-30z"/></g><g id="XMLID_114_"><path id="XMLID_938_" d="m253.179 434.571h30v31.36h-30z"/></g><g id="XMLID_107_"><path id="XMLID_937_" d="m299.178 19.818h30v31.36h-30z"/></g><g id="XMLID_116_"><path id="XMLID_936_" d="m37.19 49.737h30v31.36h-30z"/></g></g></svg>