<svg id="Capa_1" enable-background="new 0 0 510 510" height="512" viewBox="0 0 510 510" width="512" xmlns="http://www.w3.org/2000/svg"><g><path d="m315 135v-90h-120v90h-195v330h510v-330zm-30-60v30h-60v-30zm0 60c0 16.542-13.458 30-30 30s-30-13.458-30-30zm195 300h-450v-270h173.072c10.391 17.916 29.769 30 51.928 30s41.537-12.084 51.928-30h173.072z"/><path d="m360 225h90v30h-90z"/><path d="m270 285h60v30h-60z"/><path d="m270 225h60v30h-60z"/><path d="m270 345h60v30h-60z"/><path d="m450 285h-90v90h90zm-30 60h-30v-30h30z"/><path d="m60 306.213 90 90 90-90v-81.213h-180zm51.213 8.787h77.574l-38.787 38.787zm98.787-60v30h-120v-30z"/></g></svg>