<svg id="Capa_1" enable-background="new 0 0 512 512" height="512" viewBox="0 0 512 512" width="512" xmlns="http://www.w3.org/2000/svg"><g><path d="m460.006 94.008c-28.669 0-51.993 23.324-51.993 51.993v10.565l-26.914-16.059c-77.26-46.101-173.251-46.101-250.514 0l-26.598 15.87v-10.377c0-28.669-23.324-51.993-51.993-51.993-28.669.001-51.994 23.325-51.994 51.994v219.998c0 28.669 23.325 51.993 51.994 51.993s51.993-23.324 51.993-51.993v-7.884c42.172 26.449 94.39 40.707 150.415 40.707 1.493 0 2.992-.01 4.49-.03 54.937-.744 107.691-15.482 149.121-41.096v8.304c0 28.669 23.324 51.993 51.993 51.993s51.994-23.324 51.994-51.993v-219.999c0-28.669-23.325-51.993-51.994-51.993zm-314.087 72.198c67.803-40.456 152.043-40.456 219.846 0l42.248 25.209v30.134c-95.758-47.784-208.23-47.836-304.026-.157v-30.166zm259.201 87.58c-38.256 28.118-91.025 44.503-146.634 45.256-58.181.788-111.683-15.209-151.97-45.231 93.103-50.946 205.497-50.959 298.604-.025zm-353.126 134.28c-12.168 0-22.068-9.899-22.068-22.067v-219.998c0-12.168 9.9-22.067 22.068-22.067s22.067 9.899 22.067 22.067v219.998c0 12.168-9.899 22.067-22.067 22.067zm206.493-19.197c-59.403.787-113.936-15.895-154.5-47.153v-33.428c42.172 26.448 94.39 40.707 150.414 40.707 1.493 0 2.992-.01 4.49-.03 54.937-.744 107.691-15.482 149.121-41.096v33.575c-38.464 29.442-92.502 46.652-149.525 47.425zm223.587-2.87c0 12.168-9.9 22.067-22.068 22.067s-22.067-9.899-22.067-22.067v-219.998c0-12.168 9.899-22.067 22.067-22.067s22.068 9.899 22.068 22.067z"/></g></svg>