<?xml version="1.0" encoding="iso-8859-1"?>
<!-- Generator: Adobe Illustrator 19.0.0, SVG Export Plug-In . SVG Version: 6.00 Build 0)  -->
<svg xmlns="http://www.w3.org/2000/svg" xmlns:xlink="http://www.w3.org/1999/xlink" version="1.1" id="Capa_1" x="0px" y="0px" viewBox="0 0 512 512" style="enable-background:new 0 0 512 512;" xml:space="preserve">
<g>
	<g>
		<path d="M458.405,312.044L361.334,256l97.071-56.043c12.186-7.035,20.901-18.395,24.543-31.985    c3.642-13.59,1.772-27.786-5.263-39.971c-7.034-12.185-18.394-20.901-31.984-24.543c-13.589-3.64-27.786-1.773-39.972,5.263    l-97.07,56.043V52.676C308.659,23.63,285.029,0,255.984,0s-52.675,23.63-52.675,52.676v112.087l-97.071-56.043    c-12.185-7.035-26.382-8.905-39.971-5.263c-13.591,3.642-24.95,12.357-31.985,24.543c-14.522,25.153-5.873,57.433,19.281,71.956    L150.633,256l-97.071,56.044C28.408,326.567,19.758,358.847,34.281,384c7.035,12.186,18.394,20.901,31.985,24.543    c4.538,1.216,9.144,1.817,13.719,1.817c9.127,0,18.136-2.394,26.252-7.08l97.071-56.043v112.087    c0,29.046,23.63,52.676,52.675,52.676c29.046,0,52.676-23.63,52.676-52.676V347.237l97.07,56.043    c8.117,4.687,17.124,7.08,26.252,7.08c4.575,0,9.183-0.602,13.72-1.817c13.591-3.642,24.95-12.358,31.984-24.543    c7.035-12.185,8.904-26.38,5.263-39.971S470.591,319.079,458.405,312.044z M367.77,294.356l-9.563,3.342l-11.038-6.373    l9.563-3.342L367.77,294.356z M425.966,132.517c3.875-1.091,7.981-1.152,11.971-0.082c5.851,1.568,10.74,5.32,13.769,10.565    c5.279,9.143,3.445,20.472-3.771,27.541l-27.365-9.564L425.966,132.517z M379.383,158.571l12.473-7.201l-1.887,9.953    l-12.473,7.201L379.383,158.571z M404.968,187.304l9.563,3.342l-57.799,33.37l-9.563-3.342L404.968,187.304z M334.056,184.741    l11.038-6.373l-1.887,9.953l-11.038,6.373L334.056,184.741z M306.649,168.245l-8.768,46.245l-26.898,15.53v-31.059    L306.649,168.245z M281.665,256l-12.842,22.241h-25.68L230.302,256l12.841-22.24h25.681L281.665,256z M278.659,152.758    l-7.676,6.611v-66.74l7.676-6.611V152.758z M255.984,30c10.557,0,19.452,7.251,21.965,17.035l-21.966,18.918l-21.965-18.917    C236.532,37.252,245.426,30,255.984,30z M233.309,86.016l7.675,6.611v14.403l-7.675-6.61V86.016z M233.308,140.011l7.675,6.61    v12.746l-7.675-6.61V140.011z M240.984,198.961v31.059l-26.897-15.529l-8.769-46.247L240.984,198.961z M64.034,170.542    c-7.218-7.07-9.051-18.399-3.773-27.542c3.028-5.245,7.918-8.997,13.769-10.565c1.954-0.523,3.936-0.782,5.906-0.782    c2.051,0,4.086,0.287,6.062,0.843l5.401,28.482L64.034,170.542z M109.909,197.847l-12.473-7.201l9.563-3.342l12.473,7.201    L109.909,197.847z M120.112,151.37l57.799,33.37l1.887,9.954l-57.799-33.371L120.112,151.37z M144.196,217.643l9.563-3.342    l11.039,6.373l-9.563,3.342L144.196,217.643z M86.002,379.482c-3.876,1.092-7.982,1.153-11.972,0.083    c-5.851-1.568-10.741-5.32-13.769-10.565c-5.278-9.143-3.445-20.472,3.772-27.541l27.365,9.564L86.002,379.482z M132.585,353.428    l-12.473,7.201l1.887-9.952l12.473-7.201L132.585,353.428z M106.999,324.696l-9.563-3.342l57.799-33.37l9.562,3.342    L106.999,324.696z M177.911,327.259l-11.039,6.373l1.887-9.953l11.039-6.373L177.911,327.259z M199.086,271.529L154.65,256    l44.436-15.529L225.983,256L199.086,271.529z M205.317,343.758l8.769-46.248l26.898-15.53v31.06L205.317,343.758z     M233.309,359.243l7.675-6.611v66.741l-7.675,6.61V359.243z M255.984,482c-10.557,0-19.452-7.252-21.965-17.036l21.965-18.917    l21.966,18.918C275.435,474.749,266.541,482,255.984,482z M278.659,425.982l-7.676-6.61V404.97l7.676,6.611V425.982z     M278.659,371.987l-7.676-6.611v-12.745l7.676,6.611V371.987z M270.983,313.04v-31.06l26.898,15.529l8.768,46.247L270.983,313.04z     M285.983,256l26.897-15.529L357.317,256l-44.436,15.53L285.983,256z M334.056,327.259l-1.888-9.953l57.801,33.371l1.887,9.953    L334.056,327.259z M404.968,324.696l-12.473-7.201l9.563-3.342l12.472,7.201L404.968,324.696z M451.705,369    c-3.028,5.245-7.918,8.997-13.769,10.565c-3.99,1.069-8.095,1.009-11.972-0.083l-5.396-28.46l27.365-9.564    C455.15,348.528,456.984,359.857,451.705,369z"/>
	</g>
</g>
<g>
	<g>
		<circle cx="167.69" cy="103.08" r="15"/>
	</g>
</g>
<g>
	<g>
		<circle cx="79.41" cy="256" r="15"/>
	</g>
</g>
<g>
	<g>
		<circle cx="167.69" cy="408.92" r="15"/>
	</g>
</g>
<g>
	<g>
		<circle cx="344.27" cy="408.92" r="15"/>
	</g>
</g>
<g>
	<g>
		<circle cx="432.56" cy="256" r="15"/>
	</g>
</g>
<g>
	<g>
		<circle cx="344.27" cy="103.08" r="15"/>
	</g>
</g>
<g>
</g>
<g>
</g>
<g>
</g>
<g>
</g>
<g>
</g>
<g>
</g>
<g>
</g>
<g>
</g>
<g>
</g>
<g>
</g>
<g>
</g>
<g>
</g>
<g>
</g>
<g>
</g>
<g>
</g>
</svg>
