<svg id="Capa_1" enable-background="new 0 0 512 512" height="512" viewBox="0 0 512 512" width="512" xmlns="http://www.w3.org/2000/svg"><g><path d="m407 60.5h-302c-57.897 0-105 47.103-105 105v286h30v-30h452v30h30v-286c0-57.897-47.103-105-105-105zm-302 30h302c41.355 0 75 33.645 75 75v16h-166v-30h-120v30h-166v-16c0-41.355 33.645-75 75-75zm-75 241v-30h30.25v30zm60.25-30h30.25v30h-30.25zm60.25 0h30.25v30h-30.25zm60.25 0h30.25v30h-30.25zm60.25 0h30.25v30h-30.25zm60.25 0h30.25v30h-30.25zm60.25 0h30.25v30h-30.25zm60.25 0h30.25v30h-30.25zm-421.75-30v-60h166v30h120v-30h166v60zm196-60v-30h60v30zm-196 180v-30h452v30z"/></g></svg>