<svg id="Capa_1" enable-background="new 0 0 512 512" height="512" viewBox="0 0 512 512" width="512" xmlns="http://www.w3.org/2000/svg"><g><path d="m512 227.521h-56.354v-118.112h-183.987v118.112h-30.916v-18.269c0-40.367-21.133-77.474-55.49-98.135 9.72-10.587 15.666-24.693 15.666-40.164 0-32.778-26.667-59.445-59.445-59.445s-59.446 26.667-59.446 59.446c0 15.471 5.946 29.577 15.666 40.164-34.357 20.661-55.49 57.768-55.49 98.135v18.269h-42.204v90.29h23.775v182.681h30v-32.681h404.45v32.681h30v-182.682h23.775zm-210.341-88.112h123.986v88.112h-123.986zm-116.185 55.999h2.218c12.465 0 22.606 10.141 22.606 22.605v9.508h-24.824zm-44-153.9c16.236 0 29.445 13.209 29.445 29.445s-13.209 29.447-29.445 29.447-29.446-13.21-29.446-29.446 13.21-29.446 29.446-29.446zm-69.27 167.744c0-31.136 17.026-59.655 44.434-74.428l8.209-4.425h33.253l8.209 4.425c13.987 7.539 25.261 17.013 32.957 30.232-3.727-.841-91.872 0-91.872 0v30.351h48.079v32.113h-83.27v-18.268zm-42.204 48.269h452v30.29h-452zm428.225 180.29h-404.45v-120h404.45z"/><path d="m348.833 169.33h30v30h-30z"/></g></svg>