<svg id="Capa_1" enable-background="new 0 0 511.736 511.736" height="512" viewBox="0 0 511.736 511.736" width="512" xmlns="http://www.w3.org/2000/svg"><g><path d="m201.561 271.845h30v46.669h-30z" transform="matrix(.707 -.707 .707 .707 -145.294 239.588)"/><path d="m152.872 320.534h30v46.669h-30z" transform="matrix(.707 -.707 .707 .707 -193.983 219.42)"/><path d="m496.582 234.261c-15.511-16.02-41.577-19.763-60.988-9.052l-63.925-63.925 31.484-31.484c19.871 10.568 44.609 7.297 60.968-9.032h.001c46.508-50.537-22.643-119.65-73.15-73.148-16.021 15.511-19.763 41.576-9.052 60.987l-31.465 31.465-63.926-63.925c18.423-34.095-6.757-76.345-45.626-76.136-27.801-.573-52.298 23.921-51.722 51.724-.206 38.869 42.042 64.048 76.136 45.626l15.236 15.236-231.273 231.272 48.689 48.69-97.964 97.964 21.213 21.213 97.965-97.965 48.69 48.69 231.273-231.274 15.236 15.236c-18.42 34.1 6.757 76.342 45.626 76.136 45.908-.043 69.006-55.807 36.574-88.298zm-84.396-165.429c8.47-8.471 22.253-8.469 30.723 0 19.533 21.22-9.505 50.254-30.723 30.722-8.427-8.087-8.428-22.635 0-30.722zm-186.641-1.737c-13.621-13.648-3.921-37.066 15.361-37.085 11.675-.241 21.966 10.047 21.724 21.724-.02 19.282-23.438 28.981-37.085 15.361zm103.698 94.189-63.993 63.993-27.476-27.476 63.993-63.993zm-237.537 182.585 124.855-124.855 76.165 76.166-124.854 124.854zm222.233-69.902-27.477-27.477 63.993-63.993 27.477 27.476zm161.429 12.229c-13.649 13.62-37.067 3.921-37.084-15.362-.242-11.674 10.047-21.965 21.723-21.723 19.282.02 28.984 23.437 15.361 37.085z"/></g></svg>