<svg id="Capa_1" enable-background="new 0 0 512 512" height="512" viewBox="0 0 512 512" width="512" xmlns="http://www.w3.org/2000/svg"><g><path d="m459.826 151.652 52.174-52.174-99.477-99.478-52.174 52.174-26.087-26.087-308.175 308.174 26.087 26.087-52.174 52.174 99.478 99.478 52.175-52.175 13.156 13.156c17.949 17.949 41.527 26.924 65.104 26.924 23.578 0 47.156-8.975 65.105-26.924 12.505-12.504 21.102-28.247 24.862-45.527l19.226-88.35 88.35-19.226c17.28-3.76 33.023-12.357 45.527-24.862 35.899-35.899 35.899-94.31 0-130.209zm-360.348 317.915-57.045-57.045 30.958-30.958 57.045 57.045zm313.045-427.134 57.045 57.045-30.959 30.958-57.045-57.046zm-78.261 26.087 21.216 21.216-265.741 265.742-21.217-21.217zm117.505 205.281c-8.43 8.429-19.042 14.225-30.691 16.76l-107.188 23.326-23.327 107.189c-2.535 11.648-8.33 22.26-16.759 30.69-24.201 24.199-63.576 24.2-87.777 0l-75.072-75.072 265.742-265.741 61.916 61.916 13.157 13.157c24.198 24.198 24.198 63.575-.001 87.775z"/></g></svg>