<svg id="Capa_1" enable-background="new 0 0 512 512" height="512" viewBox="0 0 512 512" width="512" xmlns="http://www.w3.org/2000/svg"><g><path d="m256 512-71.63-129.64c-42.447-12.454-80.503-36.282-107.702-67.554-29.89-34.367-45.689-75.422-45.689-118.727 0-55.177 26.957-106.178 68.737-141.384 43.371-36.546 99.916-54.695 156.284-54.695s112.914 18.149 156.284 54.695c41.78 35.206 68.736 86.206 68.736 141.384 0 43.305-15.799 84.36-45.688 118.727-27.199 31.272-65.254 55.1-107.701 67.554zm0-482.368c-107.535 0-195.021 74.667-195.021 166.446 0 38.756 16.04 75.729 42.351 103.889 27.323 29.243 62.926 46.665 101.179 56.776l51.491 93.458 51.492-93.458c38.254-10.113 73.853-27.531 101.178-56.776 26.31-28.159 42.35-65.134 42.35-103.889.001-91.778-87.485-166.446-195.02-166.446z"/></g></svg>