<svg height="512pt" viewBox="-31 0 512 512" width="512pt" xmlns="http://www.w3.org/2000/svg"><path d="m390 392h-60v-255c0-24.8125-20.1875-45-45-45h-15v-47c0-24.8125-20.1875-45-45-45h-120c-24.8125 0-45 20.1875-45 45v47h-15c-24.8125 0-45 20.1875-45 45v330c0 24.8125 20.1875 45 45 45 16.53125-.011719 311.597656-.070312 345 0 33.085938 0 60-26.914062 60-60s-26.914062-60-60-60zm-90 90c-16.542969 0-30-13.457031-30-30s13.457031-30 30-30h30v60zm-51.929688-60h-218.070312v-240h270v210c-22.160156 0-41.535156 12.085938-51.929688 30zm-158.070312-377c0-8.269531 6.730469-15 15-15h120c8.269531 0 15 6.730469 15 15v47h-150zm-45 77h240c8.269531 0 15 6.730469 15 15v15h-270v-15c0-8.269531 6.730469-15 15-15zm-15 345v-15h210c0 10.925781 2.949219 21.167969 8.074219 30h-203.074219c-8.269531 0-15-6.730469-15-15zm360 15h-30v-60h30c16.542969 0 30 13.457031 30 30s-13.457031 30-30 30zm0 0"/><path d="m231.578125 363.519531c-13.34375-6.507812-28.5-15.429687-42.785156-25.5625 24.039062-22.683593 36.207031-44.824219 36.207031-65.957031 0-33.085938-26.914062-60-60-60s-60 26.914062-60 60c0 21.132812 12.167969 43.273438 36.207031 65.957031-14.285156 10.132813-29.441406 19.054688-42.785156 25.5625-7.445313 3.632813-10.535156 12.613281-6.902344 20.058594 3.632813 7.445313 12.613281 10.535156 20.054688 6.902344 14.09375-6.875 34.285156-18.554688 53.425781-32.757813 19.136719 14.203125 39.328125 25.882813 53.421875 32.757813 7.460937 3.640625 16.433594.527343 20.058594-6.902344 3.632812-7.445313.542969-16.429687-6.902344-20.058594zm-96.578125-91.519531c0-16.542969 13.457031-30 30-30s30 13.457031 30 30c0 14.433594-12.542969 31.242188-30 47.027344-17.457031-15.785156-30-32.59375-30-47.027344zm0 0"/></svg>