<svg id="Layer_1" enable-background="new 0 0 509.339 509.339" height="512" viewBox="0 0 509.339 509.339" width="512" xmlns="http://www.w3.org/2000/svg"><path d="m477.312 11.427-10.197-11c-15.286 14.171-424.261 393.315-450.048 417.221-49.296 49.175 18.659 122.41 71.385 77.001l249.448-231.252 64.395-18.791 68.597-63.595c48.637-45.086 51.516-120.939 6.42-169.584zm-286.806 286.342 30.593 33-22 20.397-30.594-33.001zm-122.45 174.88c-9.099 8.433-23.362 7.896-31.798-1.203-8.435-9.1-7.895-23.363 1.204-31.798l109.042-101.088 30.594 33.001zm175.042-162.275-30.594-33.001 66.001-61.187 30.594 33zm207.399-151.363-63.404 58.78-52.097 15.202-34.489-37.202 164.096-152.127c23.316 35.409 19.148 84.519-14.106 115.347z"/></svg>