<?xml version="1.0" encoding="iso-8859-1"?>
<!-- Generator: Adobe Illustrator 19.0.0, SVG Export Plug-In . SVG Version: 6.00 Build 0)  -->
<svg xmlns="http://www.w3.org/2000/svg" xmlns:xlink="http://www.w3.org/1999/xlink" version="1.1" id="Layer_1" x="0px" y="0px" viewBox="0 0 512 512" style="enable-background:new 0 0 512 512;" xml:space="preserve">
<g>
	<g>
		<polygon points="384.625,256 261.689,150.627 261.689,228.646 170.667,150.627 170.667,361.373 261.689,283.354 261.689,361.373       "/>
	</g>
</g>
<g>
	<g>
		<path d="M256,0C116.812,0,0,113.778,0,256c0,137.671,109.986,256,256,256c146.773,0,256-119.088,256-256    C512,122.88,405.049,0,256,0z M256,477.867c-122.337,0-221.867-99.529-221.867-221.867S133.663,34.133,256,34.133    S477.867,133.663,477.867,256S378.337,477.867,256,477.867z"/>
	</g>
</g>
<g>
</g>
<g>
</g>
<g>
</g>
<g>
</g>
<g>
</g>
<g>
</g>
<g>
</g>
<g>
</g>
<g>
</g>
<g>
</g>
<g>
</g>
<g>
</g>
<g>
</g>
<g>
</g>
<g>
</g>
</svg>
