<svg id="Capa_1" enable-background="new 0 0 512.213 512.213" height="512" viewBox="0 0 512.213 512.213" width="512" xmlns="http://www.w3.org/2000/svg"><g><path d="m361.107 211.107h15c24.813 0 45-20.187 45-45 0-15.225 0-120.926 0-135h-30v90h-30v-90h-30v90h-30v-90h-30v135c0 24.813 20.187 45 45 45h15v98.787l-106.93-106.931c10.941-18.704 16.93-42.181 16.93-66.856 0-49.916-27.304-105-75-105-29.653 0-52.037 22.428-63.986 49.801l-80.908-80.908-21.213 21.213 92.764 92.764c-1.082 7.201-1.657 14.607-1.657 22.13 0 26.969 7.136 52.524 20.093 71.96 10.777 16.165 24.603 26.813 39.907 31.014v242.026h30v-242.026c8.519-2.338 16.579-6.675 23.911-12.851l126.089 126.09v128.787h30v-98.787l129.893 129.893 21.213-21.213-151.106-151.106zm-195 0c-23.101 0-42.795-30.81-44.817-68.604l62.401 62.401c-5.434 3.976-11.386 6.203-17.584 6.203zm35.87-30.343-76.46-76.46c7.33-25.274 22.969-43.198 40.589-43.198 24.393 0 45 34.346 45 75 .001 16.567-3.423 32.084-9.129 44.658zm114.13.343c-8.271 0-15-6.729-15-15v-15h90v15c0 8.271-6.729 15-15 15z"/></g></svg>