<svg id="Capa_1" enable-background="new 0 0 512 512" height="512" viewBox="0 0 512 512" width="512" xmlns="http://www.w3.org/2000/svg"><g><path d="m388.74 175.088c0-24.813-20.187-45-45-45h-10.118v-29.947h25.118v-35.07h29.566v-30h-29.566v-35.071h-140.236v100.142h25.118v29.947h-10.118c-24.813 0-45 20.187-45 45v15h-30v185.446c-45.036 8.802-107.656 18.996-142.03 15.601l-16.474-1.628v16.554c0 11.162 3.901 23.311 11.926 37.139 24.616 42.421 70.836 68.759 120.654 68.759.031 0 286.16.04 286.16.04v-321.912h-30zm-140.236-145.088h80.236v40.142h-80.236zm25.118 70.142h30v29.947h-30zm-55.118 74.946c0-8.271 6.729-15 15-15h110.236c8.271 0 15 6.729 15 15v15h-140.236zm-85.845 306.872c-.026 0-.052 0-.079 0-39.157 0-75.441-20.616-94.707-53.816-1.337-2.305-2.458-4.431-3.394-6.389 58.887-.688 150.508-20.635 179.884-27.386 10.763-2.474 21.739-1.161 30.908 3.696 15.023 7.957 24.729 23.632 24.729 39.934 0 12.548-5.224 24.646-14.331 33.192-8.08 7.582-18.237 11.39-28.584 10.734l-.481-.031zm153.196.04c6.197-8.673 10.514-18.596 12.633-29.059 33.084-.265 59.921-27.251 59.921-60.397h-30c0 16.621-13.405 30.162-29.971 30.398-4.527-21.626-18.665-40.551-39.124-51.387-15.535-8.229-33.885-10.509-51.669-6.423-3.903.897-10.549 2.399-19.142 4.246v-59.244h200.237v171.866zm102.885-201.866h-200.236v-60.045h200.236z"/><path d="m418.693 35.071h93.307v30h-93.307z"/></g></svg>