<svg id="Layer_1" enable-background="new 0 0 510 510" height="512" viewBox="0 0 510 510" width="512" xmlns="http://www.w3.org/2000/svg"><g id="XMLID_119_"><path id="XMLID_159_" d="m404.959 150c9.438-12.544 15.041-28.129 15.041-45v-15h-150v15c0 16.871 5.603 32.456 15.041 45h-285.041v360h510v-360zm75.041 120h-270v-90h270zm-177.43-150h84.859c-14.178 39.762-70.695 39.737-84.859 0zm-122.57 60v90h-150v-90zm-150 120h150v180h-150zm180 180v-180h270v180z"/><path id="XMLID_164_" d="m60 210h90v30h-90z"/><path id="XMLID_165_" d="m300 330h90v30h-90z"/><path id="XMLID_166_" d="m240 210h30v30h-30z"/><path id="XMLID_167_" d="m300 210h30v30h-30z"/><path id="XMLID_168_" d="m360 210h30v30h-30z"/><path id="XMLID_169_" d="m420 210h30v30h-30z"/><path id="XMLID_170_" d="m60 120h30v-90h30v90h30v-90h30v-30h-150v30h30z"/></g></svg>