<svg id="Capa_1" enable-background="new 0 0 512 512" height="512" viewBox="0 0 512 512" width="512" xmlns="http://www.w3.org/2000/svg"><g><path d="m256 0c-94.29 0-171 76.71-171 171v170c0 94.29 76.71 171 171 171s171-76.71 171-171v-170c0-94.29-76.71-171-171-171zm0 30c77.414 0 140.457 62.711 140.996 140h-281.992c.54-77.289 63.582-140 140.996-140zm-141 311v-68.989c12.009 3.932 21.724 13.358 25.81 25.861l3.379 10.341h16.982c11.77 0 21.346 9.576 21.346 21.346s-9.576 21.346-21.346 21.346h-45.827c-.228-3.272-.344-6.575-.344-9.905zm5.75 39.905h40.421c28.312 0 51.346-23.034 51.346-51.346 0-26.992-20.936-49.187-47.421-51.198-9.981-19.584-28.519-33.326-50.096-37.229v-41.132h126v30.178h-30v30h90v-30h-30v-30.178h126v130.857c-12.47-5.829-26.162-8.911-40.225-8.911-37.493 0-70.909 21.754-86.288 55.148h-14.487c-37.193 0-67.452 30.259-67.452 67.453 0 7.786 1.326 15.268 3.764 22.232-34.258-17.416-60.493-48.423-71.562-85.874zm135.25 101.095c-20.651 0-37.452-16.801-37.452-37.453s16.801-37.453 37.452-37.453h35.57l3.379-10.341c8.759-26.8 33.604-44.807 61.826-44.807 13.871 0 27.213 4.38 38.282 12.456-11.18 66.65-69.28 117.598-139.057 117.598z"/></g></svg>