<svg id="Capa_1" enable-background="new 0 0 511.986 511.986" height="512" viewBox="0 0 511.986 511.986" width="512" xmlns="http://www.w3.org/2000/svg"><g id="XMLID_607_"><path id="XMLID_761_" d="m484.428 41.882c-19.326-20.718-46.659-32.6-74.991-32.6h-306.888c-28.332 0-55.665 11.882-74.991 32.6-19.325 20.717-29.28 48.809-27.313 77.073l21.932 315.091c2.68 38.5 35.01 68.658 73.603 68.658h320.427c38.593 0 70.923-30.158 73.603-68.657l21.932-315.092c1.966-28.264-7.989-56.356-27.314-77.073zm-2.615 74.989-21.932 315.092c-1.59 22.846-20.774 40.741-43.675 40.741h-320.426c-22.9 0-42.085-17.896-43.675-40.741l-21.932-315.092c-1.413-20.289 5.45-39.653 19.323-54.525 13.873-14.873 32.714-23.063 53.053-23.063h306.888c20.339 0 39.18 8.19 53.053 23.063 13.873 14.872 20.736 34.236 19.323 54.525z"/><path id="XMLID_903_" d="m338.686 148.934c0-45.598-37.096-82.693-82.693-82.693s-82.693 37.096-82.693 82.693v15h165.387v-15zm-67.693-15v-14.616h-30v14.616h-35.519c6.475-21.772 26.672-37.693 50.519-37.693s44.044 15.921 50.519 37.693z"/><path id="XMLID_906_" d="m158.583 188.981c-32.972 0-59.797 26.825-59.797 59.798v138.794c0 32.973 26.825 59.798 59.797 59.798 32.973 0 59.798-26.825 59.798-59.798v-1.749l-.402-1.703c-6.984-29.534-8.669-59.786-5.008-89.914l5.41-44.52v-.908c0-32.973-26.825-59.798-59.798-59.798zm29.758 200.144c-.81 15.712-13.848 28.246-29.758 28.246-16.43 0-29.797-13.367-29.797-29.798v-138.794c0-16.431 13.367-29.798 29.797-29.798 16.158 0 29.353 12.926 29.787 28.98l-5.18 42.626c-4.011 33.009-2.278 66.149 5.151 98.538z"/><path id="XMLID_909_" d="m353.403 188.981c-32.973 0-59.798 26.825-59.798 59.798v.908l5.41 44.52c3.661 30.128 1.976 60.38-5.008 89.914l-.402 1.703v1.749c0 32.973 26.825 59.798 59.798 59.798 32.972 0 59.797-26.825 59.797-59.798v-138.794c0-32.973-26.825-59.798-59.797-59.798zm29.797 198.592c0 16.431-13.367 29.798-29.797 29.798-15.91 0-28.948-12.534-29.758-28.246 7.429-32.389 9.162-65.528 5.151-98.537l-5.18-42.626c.434-16.055 13.629-28.98 29.787-28.98 16.43 0 29.797 13.367 29.797 29.798z"/></g></svg>