<svg id="Capa_1" enable-background="new 0 0 512 512" height="512" viewBox="0 0 512 512" width="512" xmlns="http://www.w3.org/2000/svg"><g><path d="m256 60c-57.897 0-105 47.103-105 105 0 40.951 23.826 77.853 60.286 95.011 2.501 22.462 21.596 39.989 44.714 39.989 23.119 0 42.213-17.526 44.714-39.989 36.46-17.158 60.286-54.059 60.286-95.011 0-57.897-47.103-105-105-105zm0 30c4.103 0 8.126.344 12.053.981-6.519 16.977-23.112 29.019-42.053 29.019h-29.959c13.697-18.204 35.475-30 59.959-30zm0 180c-8.271 0-15-6.729-15-15s6.729-15 15-15 15 6.729 15 15-6.729 15-15 15zm37.409-39.979c-8.081-12.063-21.831-20.021-37.409-20.021-15.577 0-29.328 7.958-37.409 20.021-22.929-13.204-37.591-37.866-37.591-65.021 0-5.136.521-10.152 1.509-15h43.491c18.933 0 37.012-7.075 50.906-19.922 8.605-7.956 15.132-17.68 19.208-28.4 20.947 13.317 34.886 36.715 34.886 63.322 0 27.155-14.662 51.817-37.591 65.021z"/><path d="m256 0c-90.981 0-165 74.019-165 165v182c0 90.981 74.019 165 165 165s165-74.019 165-165v-182c0-90.981-74.019-165-165-165zm135 347c0 74.439-60.561 135-135 135s-135-60.561-135-135v-182c0-74.439 60.561-135 135-135s135 60.561 135 135z"/><path d="m271 332h-30v30h-30v30h30v30h30v-30h30v-30h-30z"/></g></svg>