<svg id="Capa_1" enable-background="new 0 0 510.408 510.408" height="512" viewBox="0 0 510.408 510.408" width="512" xmlns="http://www.w3.org/2000/svg"><g><path d="m314.086 255.933c-37.259 19.81-82.705 18.66-117.803 0-86.7-46.097-192.348 13.342-196.18 114.016-2.912 76.54 56.113 140.255 132.899 140.255 22.117 0 44.062-5.473 63.461-15.826 35.335-18.855 81.102-19.392 117.44 0 19.4 10.354 41.345 15.826 63.462 15.826 76.953 0 135.898-64.082 132.935-140.158-3.965-101.784-110.579-159.65-196.214-114.113zm13.942 211.978c-45.623-24.347-102.025-23.3-145.688 0-69.889 37.297-155.426-13.579-152.258-96.821 2.941-77.318 84.117-124.819 152.117-88.668 43.117 22.926 99.194 24.872 145.971 0 68.002-36.155 149.176 11.344 152.117 88.668 3.169 83.254-82.377 134.112-152.259 96.821z"/><path d="m336.631 309.61c-24.235 13.473-50.795 20.594-76.808 20.594-7.438-.8-44.681 4.849-90.446-20.594-48.864-27.169-108.539 7.015-109.365 64.495-.854 59.373 59.829 93.79 108.912 66.941 46.151-25.241 83.747-20.198 89.52-20.843 26.515 0 53.708 7.207 78.639 20.843 48.899 26.745 109.77-7.389 108.913-66.941-.827-57.483-60.504-91.663-109.365-64.495zm14.846 105.116c-29.332-16.043-61.503-24.522-93.034-24.522-5.767.655-50.315-4.793-103.915 24.522-29.133 15.938-65.04-3.964-64.521-40.189.514-35.677 36.092-54.657 64.792-38.706 53.416 29.695 97.852 23.581 105.023 24.373 31.102 0 62.701-8.428 91.385-24.374 28.653-15.935 64.276 2.977 64.791 38.707.52 36.243-35.425 56.105-64.521 40.189z"/><path d="m255.184 240.204c66.168 0 120-53.832 120-120s-53.832-120-120-120-120 53.832-120 120 53.832 120 120 120zm0-210c49.626 0 90 40.374 90 90s-40.374 90-90 90-90-40.374-90-90 40.374-90 90-90z"/><path d="m255.184 180.204c33.084 0 60-26.916 60-60s-26.916-60-60-60-60 26.916-60 60 26.916 60 60 60zm0-90c16.542 0 30 13.458 30 30s-13.458 30-30 30-30-13.458-30-30 13.458-30 30-30z"/></g></svg>