<?xml version="1.0" encoding="iso-8859-1"?>
<!-- Generator: Adobe Illustrator 19.0.0, SVG Export Plug-In . SVG Version: 6.00 Build 0)  -->
<svg xmlns="http://www.w3.org/2000/svg" xmlns:xlink="http://www.w3.org/1999/xlink" version="1.1" id="Layer_1" x="0px" y="0px" viewBox="0 0 512 512" style="enable-background:new 0 0 512 512;" xml:space="preserve">
<g>
	<g>
		<path d="M255.415,0L69.532,260.049l110.392,189.748V512h152.107v-63.955l110.437-187.986L255.415,0z M255.979,242.274    c7.494,0,13.591,6.096,13.591,13.591c0,7.495-6.097,13.591-13.591,13.591c-7.495,0-13.591-6.096-13.591-13.591    C242.388,248.37,248.484,242.274,255.979,242.274z M300.668,480.637h-89.38v-20.286h89.38V480.637z M306.852,428.986H204.103    l-97.268-167.189L240.297,75.086v138.652c-17.077,6.378-29.273,22.852-29.273,42.127c0,24.788,20.167,44.954,44.954,44.954    c24.788,0,44.954-20.167,44.954-44.954c0-19.274-12.195-35.749-29.273-42.127V76.297l133.417,185.49L306.852,428.986z"/>
	</g>
</g>
<g>
</g>
<g>
</g>
<g>
</g>
<g>
</g>
<g>
</g>
<g>
</g>
<g>
</g>
<g>
</g>
<g>
</g>
<g>
</g>
<g>
</g>
<g>
</g>
<g>
</g>
<g>
</g>
<g>
</g>
</svg>
