<svg id="Capa_1" enable-background="new 0 0 512 512" height="512" viewBox="0 0 512 512" width="512" xmlns="http://www.w3.org/2000/svg"><g><path d="m436 160h-135v352h150v-144.57c4.693 1.664 9.743 2.57 15 2.57 24.813 0 45-20.187 45-45v-90c0-41.355-33.645-75-75-75zm45 165c0 8.271-6.729 15-15 15s-15-6.729-15-15v-105h-30v262h-30v-157h-30v157h-30v-292h105c24.813 0 45 20.187 45 45z"/><path d="m136 130c35.841 0 65-29.159 65-65s-29.159-65-65-65-65 29.159-65 65 29.158 65 65 65zm0-100c19.299 0 35 15.701 35 35s-15.701 35-35 35-35-15.701-35-35 15.701-35 35-35z"/><path d="m195.999 160h-119.999c-41.355 0-75 33.645-75 75v90c0 12.02 4.68 23.321 13.18 31.82s19.8 13.18 31.82 13.18c5.257 0 10.307-.906 15-2.57v144.57h150v-336.077c-.001-11.682-8.971-15.923-15.001-15.923zm-44.999 322v-157h-30v157h-30v-156.875-105.125h-30v105.072c-.039 8.239-6.753 14.928-15 14.928-4.006 0-7.773-1.561-10.606-4.394s-4.394-6.599-4.394-10.606v-90c0-24.813 20.187-45 45-45h104.999v292z"/><path d="m241 160h30v352h-30z"/><path d="m421 130c24.813 0 45-20.187 45-45 0-11.16-4.118-21.867-11.595-30.148-.112-.121-.222-.246-.335-.371l-29.815-33.03c-12.316-13.632-29.904-21.451-48.255-21.451-18.355 0-35.942 7.82-48.253 21.454-.461.51-.896.991-1.295 1.433l-28.863 31.968c-7.473 8.282-11.589 18.988-11.589 30.145 0 24.813 20.187 45 45 45zm-105-45c0-3.719 1.371-7.287 3.859-10.044 7.264-8.045 19.238-21.31 25.686-28.449l4.47-4.948c6.631-7.346 16.103-11.559 25.985-11.559s19.355 4.214 25.99 11.558c0 0 14.75 16.338 23.608 26.151-.001.002 6.539 7.247 6.539 7.247 2.492 2.758 3.863 6.325 3.863 10.044 0 8.271-6.729 15-15 15h-90c-8.272 0-15-6.729-15-15z"/></g></svg>