<svg id="Layer_1" enable-background="new 0 0 510.027 510.027" height="512" viewBox="0 0 510.027 510.027" width="512" xmlns="http://www.w3.org/2000/svg"><g id="XMLID_652_"><path id="XMLID_904_" d="m489.993 296.729-53.506-90.144c-1.09-53.977-23.256-104.909-62.695-143.836-82.009-80.945-212.958-84.792-295.209-4.463-40.557 39.61-63.128 93.203-63.554 150.906-.475 64.585 26.529 137.116 74.994 179.314v121.521h255v-75h58.681c17.27 0 31.319-14.045 31.319-31.31v-58.69h28.657c11.567 0 22.146-6.335 27.607-16.532 5.389-10.066 4.884-22.195-1.294-31.766zm-25.154 17.604c-.371.694-.884.694-1.159.694h-58.657v88.69c0 .722-.592 1.31-1.319 1.31h-88.681v75h-195v-105.791l-5.671-4.504c-41.926-33.297-69.784-97.724-69.323-160.318.746-101.061 80.608-180.992 179.751-179.363 100.217 1.626 181.749 82.697 181.749 180.722v4.116c.58.977-6.831-11.503 58.247 98.092.152.229.437.656.063 1.352z"/><path id="XMLID_907_" d="m118.958 103.961c-58.485 58.484-58.485 153.646 0 212.131 55.833 58.193 156.3 58.19 212.132 0 58.485-58.484 58.485-153.647 0-212.131-58.618-58.62-153.505-58.628-212.132 0zm21.213 21.213c19.091-19.091 43.48-30.955 69.853-34.224v46.656c-46.988 17.399-35.711 86.46 15.001 87.42 19.859.743 19.876 29.249-.001 30h-45v30h30v44.076c-97.842-11.294-140.255-134.726-69.853-203.928zm169.706 169.705c-19.091 19.091-43.48 30.956-69.854 34.224v-46.656c46.988-17.399 35.711-86.46-15.001-87.42-19.859-.743-19.876-29.249.001-30h45v-30h-30v-44.076c97.842 11.292 140.255 134.727 69.854 203.928z"/></g></svg>