<svg id="Capa_1" enable-background="new 0 0 510 510" height="512" viewBox="0 0 510 510" width="512" xmlns="http://www.w3.org/2000/svg"><g><path d="m75 0v510h360v-510zm330 480h-300v-450h300z"/><path d="m375 60h-240v150h240zm-30 120h-180v-90h180z"/><path d="m150 240h30v30h-30z"/><path d="m210 240h30v30h-30z"/><path d="m270 240h30v30h-30z"/><path d="m150 300h30v30h-30z"/><path d="m210 300h30v30h-30z"/><path d="m270 300h30v30h-30z"/><path d="m150 360h30v30h-30z"/><path d="m210 360h30v30h-30z"/><path d="m270 360h30v30h-30z"/><path d="m150 420h90v30h-90z"/><path d="m270 420h30v30h-30z"/><path d="m330 240h30v30h-30z"/><path d="m330 300h30v30h-30z"/><path d="m330 360h30v90h-30z"/><path d="m195 120h120v30h-120z"/></g></svg>