<svg id="Capa_1" enable-background="new 0 0 512.09 512.09" height="512" viewBox="0 0 512.09 512.09" width="512" xmlns="http://www.w3.org/2000/svg"><g><path d="m498.931 350.438-9.541-9.54 18.356-18.356c-35.052-67.304-84.302-132.443-135.028-183.17-50.508-50.507-115.619-99.848-183.17-135.028l-18.356 18.356-9.541-9.541c-17.545-17.545-46.095-17.544-63.639 0l-84.853 84.853c-17.546 17.546-17.546 46.094 0 63.64l9.541 9.541-18.356 18.355c35.051 67.304 84.303 132.444 135.028 183.169 50.516 50.517 115.628 99.854 183.169 135.028l18.356-18.356 9.541 9.541c17.544 17.545 46.094 17.546 63.64 0l84.853-84.853c17.546-17.545 17.546-46.093 0-63.639zm-464.559-210c-5.848-5.848-5.848-15.365 0-21.213l84.853-84.853c5.848-5.848 15.364-5.849 21.213 0l9.541 9.541-106.066 106.066zm282.678 330.374c-24.576-13.995-92.662-55.505-156.464-119.308-63.803-63.802-105.314-131.891-119.308-156.464l153.767-153.767c24.548 13.963 92.526 55.379 156.46 119.313 63.802 63.803 105.313 131.891 119.308 156.464zm160.668-77.947-84.853 84.853c-5.85 5.85-15.364 5.848-21.214 0l-9.541-9.541 106.066-106.066 9.541 9.541c5.85 5.848 5.85 15.364.001 21.213z"/><path d="m241.045 91.045h30v330h-30z" transform="matrix(.707 -.707 .707 .707 -106.057 256.046)"/><path d="m330.291 181.799c-43.695-43.695-89.533-76.498-120.292-96.322l-16.252 25.217c29.53 19.032 73.51 50.497 115.332 92.318 41.8 41.8 73.275 85.79 92.319 115.333l25.215-16.254c-19.836-30.772-52.649-76.619-96.322-120.292z"/><path d="m110.693 193.746-25.215 16.254c19.835 30.77 52.646 76.617 96.321 120.292 43.695 43.695 89.534 76.498 120.293 96.322l16.252-25.217c-29.53-19.032-73.511-50.497-115.332-92.318-41.801-41.803-73.276-85.792-92.319-115.333z"/></g></svg>