<?xml version="1.0" encoding="iso-8859-1"?>
<!-- Generator: Adobe Illustrator 19.0.0, SVG Export Plug-In . SVG Version: 6.00 Build 0)  -->
<svg xmlns="http://www.w3.org/2000/svg" xmlns:xlink="http://www.w3.org/1999/xlink" version="1.1" id="Layer_1" x="0px" y="0px" viewBox="0 0 512 512" style="enable-background:new 0 0 512 512;" xml:space="preserve">
<g>
	<g>
		<path d="M437,0H75C50.187,0,30,20.187,30,45v362c0,24.813,20.187,45,45,45h166v60h30v-60h166c24.813,0,45-20.187,45-45V45    C482,20.187,461.813,0,437,0z M221,371v-2.462V271h70v97.538V371H221z M191,241v79.919c-17.648-12.058-31.416-28.69-40-47.904    v-93.9C168.979,139.009,209.279,111,256,111s87.021,28.009,105,68.115v93.9c-8.584,19.214-22.352,35.846-40,47.904V241H191z     M452,407c0,8.271-6.729,15-15,15H271v-21h50v-45.367c48.914-24.49,80-74.318,80-129.633c0-79.953-65.047-145-145-145    s-145,65.047-145,145c0,55.315,31.086,105.143,80,129.633V401h50v21H75c-8.271,0-15-6.729-15-15V45c0-8.271,6.729-15,15-15h362    c8.271,0,15,6.729,15,15V407z"/>
	</g>
</g>
<g>
</g>
<g>
</g>
<g>
</g>
<g>
</g>
<g>
</g>
<g>
</g>
<g>
</g>
<g>
</g>
<g>
</g>
<g>
</g>
<g>
</g>
<g>
</g>
<g>
</g>
<g>
</g>
<g>
</g>
</svg>
