<?xml version="1.0" encoding="iso-8859-1"?>
<!-- Generator: Adobe Illustrator 19.0.0, SVG Export Plug-In . SVG Version: 6.00 Build 0)  -->
<svg xmlns="http://www.w3.org/2000/svg" xmlns:xlink="http://www.w3.org/1999/xlink" version="1.1" id="Layer_1" x="0px" y="0px" viewBox="0 0 512 512" style="enable-background:new 0 0 512 512;" xml:space="preserve">
<g>
	<g>
		<path d="M385.347,98.365V64.674h32.337V32.337h-32.337V16.168H353.01v16.168h-80.842V0h-32.337v32.337H158.99V16.168h-32.337    v16.168H94.316v32.337h32.337v33.692c-45.822,7.721-80.842,47.673-80.842,95.656V512h194.021v-86.232h32.337V512h194.021V194.021    C466.189,146.037,431.17,106.086,385.347,98.365z M369.179,129.347c30.08,0,55.43,20.642,62.627,48.505H306.552    C313.749,149.989,339.099,129.347,369.179,129.347z M142.821,129.347c30.08,0,55.43,20.642,62.627,48.505H80.194    C87.391,149.989,112.741,129.347,142.821,129.347z M207.495,479.663H78.147v-53.895h129.347V479.663z M207.495,393.432H78.147    v-32.337h129.347V393.432z M207.495,328.758H78.147v-53.895h129.347V328.758z M207.495,242.526H78.147v-32.337h129.347V242.526z     M272.168,393.432h-32.337v-32.337h32.337V393.432z M272.168,328.758h-32.337v-53.895h32.337V328.758z M272.168,242.526h-32.337    v-32.337h32.337V242.526z M273.523,177.853h-35.047c-6.834-40.562-38.925-72.652-79.487-79.487V64.674H353.01v33.692    C312.448,105.2,280.357,137.29,273.523,177.853z M433.853,479.663H304.505v-53.895h129.347V479.663z M433.853,393.432H304.505    v-32.337h129.347V393.432z M433.853,328.758H304.505v-53.895h129.347V328.758z M433.853,242.526H304.505v-32.337h129.347V242.526z    "/>
	</g>
</g>
<g>
</g>
<g>
</g>
<g>
</g>
<g>
</g>
<g>
</g>
<g>
</g>
<g>
</g>
<g>
</g>
<g>
</g>
<g>
</g>
<g>
</g>
<g>
</g>
<g>
</g>
<g>
</g>
<g>
</g>
</svg>
