<svg id="Capa_1" enable-background="new 0 0 512 512" height="512" viewBox="0 0 512 512" width="512" xmlns="http://www.w3.org/2000/svg"><g><path d="m210.875 150.625h30v30h-30z"/><path d="m271.125 150.625h30v30h-30z"/><path d="m437.784 280.354v-66.67l27.942 16.687 46.272-77.476-255.998-152.895-75.375 45.017v-45.017h-90.25v98.919l-90.375 53.976 46.273 77.476 27.941-16.686v209.175h201.043c13.815 51.284 60.719 89.14 116.305 89.14 66.41 0 120.438-54.028 120.438-120.438 0-50.041-30.68-93.046-74.216-111.208zm-317.409-250.354h30.25v32.935l-30.25 18.067zm-79.236 133.268 214.861-128.325 214.86 128.325-15.507 25.965-199.353-119.052-199.354 119.052zm63.076 32.5 151.785-90.645 151.784 90.645v76.454c-5.307-.718-10.721-1.096-16.222-1.096-21.961 0-42.565 5.912-60.312 16.223v-76.473h-150.5v181.984h-76.535zm106.535 197.092v-151.985h90.5v71.102c-18.737 21.237-30.125 49.104-30.125 79.586 0 .434.012.865.016 1.298h-60.391zm180.812 89.14c-49.867 0-90.438-40.57-90.438-90.438s40.57-90.438 90.438-90.438 90.438 40.571 90.438 90.438-40.57 90.438-90.438 90.438z"/><path d="m391.562 331.375c-24.882 0-45.125 20.243-45.125 45.125v15h30v-15c0-8.34 6.785-15.125 15.125-15.125s15.125 6.785 15.125 15.125v75.25h30v-75.25c.001-24.882-20.243-45.125-45.125-45.125z"/></g></svg>