<svg id="Capa_1" enable-background="new 0 0 508.663 508.663" height="512" viewBox="0 0 508.663 508.663" width="512" xmlns="http://www.w3.org/2000/svg"><path id="XMLID_974_" d="m508.663 152.911h-181.791l-23.58-56h-143.959v41.25c0 5.167.891 10.128 2.509 14.75h-86.237c-24.044 0-43.605 19.56-43.605 43.604 0 5.107.89 10.008 2.511 14.566-19.693 4.196-34.511 21.72-34.511 42.645 0 17.005 9.791 31.758 24.025 38.944-2.576 5.561-4.025 11.746-4.025 18.267 0 22.687 17.419 41.375 39.583 43.413-1.452 4.34-2.25 8.976-2.25 13.798 0 24.044 19.562 43.604 43.605 43.604l407.725-.002zm-30 128.456-72.089-98.456h72.089zm-195.734-61.471c12.121-.164 23.205-4.688 31.753-12.077l59.351 173.932h-119.806zm-93.596-92.985h94.041l18.508 43.954c-.331 10.556-9 19.046-19.634 19.046-10.843 0-19.665-8.821-19.665-19.665v-17.335h-58.5c-8.133 0-14.75-6.617-14.75-14.75zm-113.728 56h59.058v27.21h-59.058c-7.502 0-13.605-6.104-13.605-13.605s6.103-13.605 13.605-13.605zm-32 57.21h32 59.058v27.211h-71.058-20c-7.502 0-13.605-6.104-13.605-13.605s6.103-13.606 13.605-13.606zm6.395 70.816c0-7.502 6.103-13.605 13.605-13.605h71.058v27.211h-33.725-37.333c-7.502-.001-13.605-6.104-13.605-13.606zm37.333 57.211c0-7.502 6.104-13.605 13.605-13.605h33.725v27.21h-33.725c-7.501-.001-13.605-6.103-13.605-13.605zm77.334-185.237h69.553c3.057 11.584 10.212 21.517 19.805 28.169l-30.266 170.67h-59.093v-198.839zm241.064 198.839-67.85-198.84h31.511l109.271 149.237v49.603z"/></svg>