<svg id="Capa_1" enable-background="new 0 0 512 512" height="512" viewBox="0 0 512 512" width="512" xmlns="http://www.w3.org/2000/svg"><g><path d="m0 246h30v30h-30z"/><path d="m241 100h30v30h-30z"/><path d="m482 362.266h30v30h-30z"/><path d="m482 0h30v30h-30z"/><path d="m0 100h30v30h-30z"/><path d="m454.673 366.325c12.061-23.126 12.084-59.389.117-82.602-7.684-14.646-7.699-40.343-.117-55.07 12.098-23.226 12.098-59.596-.017-82.861-7.531-14.591-7.531-40.188.017-54.811 10.215-19.441 9.238-42.808-2.642-61.474-11.596-18.291-31.412-29.21-53.007-29.21h-50.049c-44.426-.893-76.61 48.267-56.817 88.325 8.741 15.315 9.145 41.776 1.032 57.467-11.91 23.075-11.91 59.225.02 82.336 7.684 14.649 7.699 40.341.117 55.07-12.061 23.129-12.084 59.388-.117 82.602 5.555 10.607 7.08 26.82 4.683 40.664-25.753-9.139-55.68-26.034-83.105-29.401.93-4.053 2.221-7.813 3.884-11.035 12.098-23.225 12.098-59.597-.017-82.861-7.565-14.7-7.551-40.395.153-55.076 11.947-23.173 11.924-59.432-.153-82.596-7.531-14.591-7.531-40.188.017-54.811 10.215-19.441 9.238-42.808-2.642-61.474-11.596-18.291-31.412-29.21-53.007-29.21h-50.049c-21.595 0-41.411 10.919-53.007 29.21-11.888 18.683-12.86 42.061-2.625 61.506 7.531 14.591 7.531 40.188-.017 54.811-12.061 23.128-12.084 59.389-.117 82.602 7.684 14.649 7.699 40.341.117 55.07-12.098 23.227-12.098 59.596.017 82.861 2.2 4.263 3.75 9.469 4.663 15.063l-62.005 3.084v127.496h512v-89.235l-58.032-3.038c-6.835-14.782-6.605-39.24.705-53.402zm-134.654-13.697c-7.77-14.796-7.769-40.646-.017-55.405 11.91-23.074 11.91-59.225.017-82.267-7.77-14.798-7.769-40.645-.017-55.405 11.91-23.074 11.91-59.225.017-82.267-5.395-10.098-4.968-21.917 1.287-31.714 6.063-9.564 16.407-15.274 27.67-15.274h50.049c11.263 0 21.606 5.71 27.67 15.274 6.244 9.781 6.684 21.584 1.304 31.682-11.957 23.201-11.927 59.487.153 82.596 7.573 14.728 7.559 40.449-.153 55.076-11.91 23.074-11.91 59.225-.017 82.267 7.77 14.799 7.769 40.644.017 55.405-9.294 18.006-11.322 43.963-6.118 65.45l-32.881-1.721v-323.325h-30v321.754c-4.576-.283-27.723-1.331-31.797-1.8 3.762-20.394 1.372-43.749-7.184-60.326zm-236 0c-7.77-14.796-7.769-40.646-.017-55.405 11.91-23.074 11.91-59.225.017-82.267-7.77-14.798-7.769-40.645-.017-55.405 11.91-23.074 11.91-59.225.017-82.267-5.395-10.098-4.968-21.917 1.287-31.714 6.063-9.564 16.407-15.274 27.67-15.274h50.049c11.263 0 21.606 5.71 27.67 15.274 6.244 9.781 6.684 21.584 1.304 31.682-11.957 23.2-11.927 59.487.153 82.596 7.572 14.728 7.558 40.449-.153 55.076-11.91 23.074-11.91 59.225-.017 82.267 7.729 14.665 7.741 40.381.189 55.07-3.569 6.835-6.055 14.691-7.532 23.111-1.372-.034-29.403 1.425-31.639 1.519v-283.891h-30v285.385l-30.954 1.54c-1.277-9.936-3.946-19.389-8.027-27.297zm397.981 129.372h-452v-68.951l152.352-7.58c20.25-1.008 40.818 2.649 59.481 10.576l33.94 14.415c17.782 7.552 36.58 11.894 55.874 12.904l150.353 7.871z"/></g></svg>