<svg id="Capa_1" enable-background="new 0 0 510 510" height="512" viewBox="0 0 510 510" width="512" xmlns="http://www.w3.org/2000/svg"><path d="m345 86.666v-86.666h-180v86.666c-79.913 83.681-79.972 252.926 0 336.668v86.666h180v-86.666c79.913-83.681 79.972-252.926 0-336.668zm-6.397 297.014c-4.048-10.119-9.88-19.339-17.107-27.265 11.189-61.784 11.494-139.414-.02-202.922 7.22-7.913 13.048-17.115 17.098-27.216 48.558 70.638 48.569 186.744.029 257.403zm-123.019-47.577c-7.436-51.063-7.465-111.016.018-162.311 24.787 12.119 53.956 12.145 78.797 0 7.478 51.266 7.459 111.218.018 162.311-24.796-12.13-53.985-12.157-78.833 0zm99.416-243.216c0 27.906-19.15 51.424-45 58.102v-120.989h45zm-120-62.887h45v120.988c-25.85-6.678-45-30.195-45-58.102zm-23.574 96.277c4.05 10.101 9.878 19.303 17.098 27.216-11.223 61.901-11.499 139.529-.02 202.922-7.228 7.926-13.06 17.146-17.106 27.265-48.537-70.649-48.534-186.759.028-257.403zm23.574 290.723c0-27.906 19.15-51.424 45-58.102v121.102h-45zm120 63h-45v-121.102c25.85 6.678 45 30.195 45 58.102z"/></svg>