<svg id="Layer_1" enable-background="new 0 0 510 510" height="512" viewBox="0 0 510 510" width="512" xmlns="http://www.w3.org/2000/svg"><g><path d="m510 420v-390h-510v390h185.73l-15 30h-35.73v30h240v-30h-35.729l-15-30zm-30-360v270h-450v-270zm-450 330v-30h450v30c-7.781 0-442.207 0-450 0zm275.729 60h-101.459l15-30h71.459z"/><path d="m360 90h90v30h-90z"/><path d="m360 150h90v30h-90z"/><path d="m360 210h90v30h-90z"/><path d="m360 270h90v30h-90z"/><path d="m60 90h90v30h-90z"/><path d="m60 150h90v30h-90z"/><path d="m60 210h90v30h-90z"/><path d="m60 270h90v30h-90z"/><path d="m225 270h60v30h30v-60c0-17.907-7.896-33.997-20.377-45 12.481-11.003 20.377-27.093 20.377-45v-60h-30v30.052h-60v-30.052h-30v60c0 17.907 7.895 33.997 20.377 45-12.482 11.003-20.377 27.093-20.377 45v60h30zm.001-119.948h59.998c-1.57 39.686-58.442 39.656-59.998 0zm59.999 89.948h-60c1.513-39.754 58.501-39.724 60 0z"/></g></svg>