<svg id="Capa_1" enable-background="new 0 0 512 512" height="512" viewBox="0 0 512 512" width="512" xmlns="http://www.w3.org/2000/svg"><g><path d="m388.614 234.731c-6.992-67.107-21.477-123.462-42.22-163.863-30.072-58.573-65.755-70.868-90.394-70.868s-60.322 12.295-90.394 70.868c-20.743 40.401-35.228 96.756-42.22 163.863h-41.386v103.269c0 95.944 78.056 174 174 174s174-78.056 174-174v-103.269zm-196.32-150.161c23.156-45.103 47.425-54.57 63.706-54.57s40.55 9.467 63.706 54.57c18.877 36.769 32.199 88.768 38.861 151.285-44.723 5.792-82.648 33.554-102.567 72.074-19.919-38.52-57.844-66.283-102.567-72.074 6.662-62.517 19.984-114.516 38.861-151.285zm-80.294 253.43v-73.269h24c57.897 0 105 47.103 105 105v111.493c-72.38-7.525-129-68.887-129-143.224zm288 0c0 74.337-56.62 135.699-129 143.225v-111.494c0-57.897 47.103-105 105-105h24z"/><path d="m211 98.5h30v30h-30z"/><path d="m284 145h30v30h-30z"/><path d="m241 198h30v30h-30z"/></g></svg>