<svg id="Capa_1" enable-background="new 0 0 512 512" height="512" viewBox="0 0 512 512" width="512" xmlns="http://www.w3.org/2000/svg"><g><path d="m452 22.959h-392c-33.084 0-60 26.916-60 60v346.082c0 33.084 26.916 60 60 60h392c33.084 0 60-26.916 60-60v-346.082c0-33.084-26.916-60-60-60zm30 406.082c0 16.542-13.458 30-30 30h-392c-16.542 0-30-13.458-30-30v-346.082c0-16.542 13.458-30 30-30h392c16.542 0 30 13.458 30 30z"/><path d="m60 429.041h392v-346.082h-392zm30-30v-30h332v30zm332-286.082v226.082h-332v-226.082z"/><path d="m256 309.041c45.447 0 89.694-15.982 124.591-45.003l11.533-9.591-92.713-111.486-11.533 9.591c-6.304 5.242-16.95 11.49-31.878 11.49s-25.574-6.248-31.877-11.489l-11.532-9.591-92.715 111.485 11.533 9.591c34.897 29.02 79.144 45.003 124.591 45.003zm-38.632-124.908c9.818 5.457 22.708 9.907 38.632 9.907 15.923 0 28.813-4.451 38.633-9.908l54.803 65.899c-27.356 18.794-60.012 29.009-93.436 29.009s-66.079-10.215-93.435-29.008z"/></g></svg>