<svg id="Capa_1" enable-background="new 0 0 512 512" height="512" viewBox="0 0 512 512" width="512" xmlns="http://www.w3.org/2000/svg"><g><path d="m512 275.694c0-20.877-11.095-39.97-28.295-50.643 1.063-4.493 1.609-9.123 1.609-13.78 0-15.897-6.19-30.842-17.431-42.085-11.242-11.242-26.189-17.432-42.086-17.432-4.658 0-9.287.546-13.781 1.61-8.089-13.033-21.014-22.556-35.885-26.407.503-3.606.761-7.26.761-10.951 0-20.877-8.129-40.505-22.891-55.268s-34.39-22.893-55.269-22.893c-7.667 0-15.272 1.124-22.543 3.303-13.446-24.846-39.824-41.148-68.821-41.148s-55.374 16.302-68.82 41.146c-7.271-2.178-14.876-3.302-22.543-3.302-20.875 0-40.503 8.13-55.272 22.893-20.511 20.516-27.629 50.708-19.552 77.793-24.865 13.442-41.181 39.836-41.181 68.897 0 18.07 7.038 35.057 19.816 47.832 12.775 12.772 29.758 19.806 47.823 19.806h.014l60.363-.013 82.732 82.733v154.215h99.194v-110.302l74.881-73.89 75.09-.016c28.72-.006 52.087-23.377 52.087-52.098zm-444.354-30.507c-.003 0-.005 0-.008 0-10.084 0-19.566-3.927-26.698-11.057-7.134-7.132-11.063-16.615-11.063-26.76 0-21.396 14.366-40.481 34.936-46.409l17.995-5.187-9.056-16.392c-10.352-18.737-7.017-42.389 8.107-57.516 9.123-9.121 21.249-14.143 34.145-14.143 8.216 0 16.294 2.073 23.358 5.993l16.402 9.103 5.2-18.024c5.932-20.558 25.013-34.917 46.402-34.917 21.39 0 40.472 14.358 46.405 34.917l5.2 18.021 16.402-9.1c7.066-3.921 15.143-5.994 23.358-5.994 12.898 0 25.023 5.022 34.141 14.141s14.14 21.244 14.14 34.141c0 3.811-.436 7.554-1.293 11.189-14.494 3.996-27.064 13.397-34.99 26.169-4.495-1.064-9.123-1.61-13.781-1.61-15.895 0-30.841 6.19-42.089 17.433-14.769 14.771-20.42 36.13-15.791 55.848-8.148 5.051-14.925 11.993-19.806 20.121zm102.613 29.856 40.488-.009v40.497zm70.366 207.079v-159.236c6.86 3.239 14.409 4.947 22.222 4.947h.01l17.206-.004v154.292h-39.438zm69.316-122.398v-31.9l32.335-.007zm149.965-61.81-197.055.042c-.002 0-.002 0-.004 0-5.934 0-11.515-2.311-15.711-6.507-4.198-4.198-6.51-9.778-6.51-15.756 0-13.135 8.82-24.851 21.45-28.492l17.994-5.188-9.056-16.391c-6.355-11.504-4.308-26.024 4.976-35.31 5.601-5.599 13.046-8.683 20.962-8.683 5.047 0 10.003 1.27 14.332 3.673l16.402 9.104 5.201-18.025c3.642-12.622 15.357-21.438 28.487-21.438 13.132 0 24.847 8.815 28.489 21.438l5.201 18.025 16.402-9.104c4.33-2.403 9.286-3.673 14.332-3.673 7.917 0 15.361 3.083 20.959 8.68 5.598 5.599 8.681 13.042 8.681 20.96 0 5.048-1.27 10.005-3.672 14.334l-9.101 16.402 18.022 5.2c12.622 3.642 21.438 15.356 21.438 28.488-.003 12.25-9.969 22.219-22.219 22.221z"/></g></svg>