<svg id="Capa_1" enable-background="new 0 0 512 512" height="512" viewBox="0 0 512 512" width="512" xmlns="http://www.w3.org/2000/svg"><g><path d="m0 11.174v53.652c0 37.215 30.277 67.492 67.492 67.492h26.508v60h90v-60h162v60h90v-60h8.508c37.215 0 67.492-30.277 67.492-67.492v-53.652zm154 151.144h-30v-30h30zm252 0h-30v-30h30zm76-97.492c0 20.673-16.819 37.492-37.492 37.492h-377.016c-20.673 0-37.492-16.819-37.492-37.492v-23.652h452z"/><path d="m406 229.826h-30v51h-222v-51h-30v51h-124v57c0 37.962 20.519 72.985 53 91.78v41.22h94v30h218v-30h94v-41.209c14.652-8.466 27.104-20.325 36.296-34.664 10.928-17.045 16.704-36.8 16.704-57.128v-57h-106zm-323 211v-36c0-17.645 14.355-32 32-32s32 14.355 32 32v36zm158 30h-64v-66c0-17.645 14.355-32 32-32s32 14.355 32 32zm30 0v-66c0-17.645 14.355-32 32-32s32 14.355 32 32v66zm158-30h-64v-36c0-17.645 14.355-32 32-32s32 14.355 32 32zm53-103c0 21.198-9.032 41.256-24.097 55.44-5.433-28.679-30.667-50.44-60.903-50.44-18.779 0-35.621 8.403-47 21.633-11.379-13.23-28.221-21.633-47-21.633s-35.621 8.403-47 21.633c-11.379-13.23-28.221-21.633-47-21.633s-35.621 8.403-47 21.633c-11.379-13.23-28.221-21.633-47-21.633-30.248 0-55.491 21.779-60.909 50.476-15.082-14.156-24.091-34.173-24.091-55.476v-27h452z"/></g></svg>