<svg id="Capa_1" enable-background="new 0 0 511.958 511.958" height="512" viewBox="0 0 511.958 511.958" width="512" xmlns="http://www.w3.org/2000/svg"><g><path d="m498.799 119.225c-13.827-13.827-34.485-16.749-51.208-8.782l-46.076-46.075c7.967-16.724 5.045-37.381-8.782-51.208-17.546-17.546-46.094-17.545-63.64 0-35.944 35.944-44.512 76.477-44.163 113.75-33.35-.369-76.105 6.518-113.804 44.216-35.945 35.945-44.513 76.477-44.163 113.751-33.349-.369-76.105 6.517-113.804 44.216-17.545 17.545-17.546 46.094 0 63.64 13.827 13.827 34.485 16.749 51.208 8.782l46.075 46.076c-7.966 16.723-5.045 37.381 8.782 51.208 17.546 17.546 46.094 17.545 63.64 0 35.944-35.944 44.512-76.476 44.162-113.75 33.349.369 76.105-6.517 113.804-44.217 35.945-35.945 44.513-76.477 44.163-113.751 33.349.369 76.104-6.517 113.804-44.216 17.547-17.546 17.547-46.094.002-63.64zm-212.162 146.199-40.067-40.067c13.145-8.016 28.022-9.511 47.972-7.975 1.601 20.906-.115 35.384-7.905 48.042zm-231.051 106.095c-5.848 5.849-15.364 5.849-21.213 0s-5.849-15.365 0-21.213c30.704-30.704 65.384-36.066 94.536-35.399 1.033 9.292 2.336 18.2 3.561 26.572.18 1.231.353 2.432.525 3.63-30.49-1.458-55.03 4.031-77.409 26.41zm33.017 11.805c13.145-8.015 28.022-9.51 47.972-7.975 1.6 20.906-.115 35.384-7.905 48.041zm103.235-50.531c6.858 46.861 14.631 99.976-30.186 144.793-5.849 5.848-15.364 5.849-21.213 0s-5.848-15.365 0-21.213c15.42-15.42 23.677-32.738 25.983-54.501 2.022-19.078-.737-40.605-4.268-64.736-6.859-46.863-14.633-99.977 30.185-144.796 30.704-30.704 65.385-36.067 94.536-35.399 1.032 9.292 2.336 18.199 3.561 26.571.18 1.231.353 2.433.525 3.631-30.49-1.458-55.029 4.03-77.409 26.41-15.421 15.421-23.677 32.739-25.983 54.501-2.022 19.079.737 40.606 4.269 64.739zm33.483-86.259 40.067 40.067c-13.145 8.016-28.022 9.511-47.972 7.975-1.601-20.906.114-35.385 7.905-48.042zm124.483-71.711c6.859 46.863 14.633 99.977-30.185 144.796-30.704 30.704-65.385 36.067-94.537 35.399-1.032-9.292-2.335-18.199-3.561-26.571-.18-1.231-.353-2.433-.525-3.631 30.49 1.458 55.029-4.03 77.409-26.41 15.421-15.421 23.677-32.739 25.983-54.501 2.022-19.08-.737-40.607-4.268-64.737-6.859-46.862-14.632-99.977 30.186-144.795 5.849-5.848 15.364-5.849 21.213 0s5.848 15.365 0 21.213c-15.42 15.42-23.677 32.738-25.983 54.501-2.022 19.078.737 40.605 4.268 64.736zm33.484-86.256 40.067 40.066c-13.144 8.015-28.022 9.51-47.972 7.975-1.6-20.906.115-35.384 7.905-48.041zm94.297 73.085c-30.704 30.704-65.385 36.067-94.536 35.399-1.033-9.292-2.336-18.2-3.561-26.572-.18-1.231-.353-2.432-.525-3.63 30.49 1.458 55.03-4.03 77.409-26.41 5.848-5.849 15.364-5.849 21.213 0 5.849 5.848 5.849 15.364 0 21.213z"/></g></svg>