<svg id="Capa_1" enable-background="new 0 0 510 510" height="512" viewBox="0 0 510 510" width="512" xmlns="http://www.w3.org/2000/svg"><path d="m255 0c-140.93 0-255 114.049-255 255 0 140.93 114.051 255 255 255 140.93 0 255-114.051 255-255 0-140.93-114.049-255-255-255zm179.886 120h-44.886c-16.58 0-30-13.417-30-30 0-10.631 5.593-20.263 14.397-25.621 23.4 14.71 43.918 33.598 60.489 55.621zm-179.886 360c-124.065 0-225-100.935-225-225 0-162.819 168.227-271.341 315.97-205.769-7.631 8.249-12.885 18.575-14.965 29.863-45.06 12.953-76.005 54.136-76.005 100.906-.497 24.934 1.418 34.419-2.509 49.257-41.961-55.454-44.151-128.228-83.998-136.383-20.192-4.133-38.994 11.854-51.379 24.24-76.03 76.03-76.03 199.74 0 275.771 76.026 76.028 199.738 76.031 275.771 0 12.386-12.386 28.373-31.187 24.24-51.379-8.409-41.076-86.174-42.419-141.531-88.061 6.172-13.56 9.406-28.36 9.406-43.445v-30c0-31.802 19.646-59.339 48.357-70.143 7.999 22.876 29.927 40.143 56.643 40.143h63.945c16.621 31.365 26.055 67.1 26.055 105 0 124.065-100.935 225-225 225zm-10.606-214.394c29.956 29.956 68.441 45.4 99.365 57.81 8.547 3.43 42.35 16.153 43.977 24.107.141.687.885 7.203-16.062 24.15-64.327 64.325-169.002 64.342-233.346 0-64.333-64.334-64.333-169.013 0-233.346 14.801-14.801 21.646-16.107 23.6-16.107 8.024 0 21.647 36.522 24.656 44.021 12.409 30.924 27.854 69.409 57.81 99.365z"/></svg>