<svg id="Capa_1" enable-background="new 0 0 512.025 512.025" height="512" viewBox="0 0 512.025 512.025" width="512" xmlns="http://www.w3.org/2000/svg"><path d="m60.24 167.494.024 36.204c-36.199 20.465-60.695 61.836-60.244 104.333 0 29.415 10.605 56.395 28.186 77.333l-28.206 28.204 21.213 21.213 28.988-28.988c19.788 14.261 44.057 22.675 70.256 22.675h21.3v-55.678c29.458-6.822 51.487-33.258 51.487-64.76 0-.02-.001-.04-.001-.06h125.555c0 .02-.001.04-.001.06 0 31.502 22.03 57.938 51.487 64.76v55.678h21.299c26.189 0 50.449-8.407 70.233-22.658l28.971 28.971 21.213-21.213-28.183-28.183c17.591-20.941 28.204-47.929 28.204-77.354.419-41.765-23.351-83.471-60.256-104.34l-.024-36.197h60.259v-30h-210.875v-15.125c0-24.882-20.243-45.125-45.125-45.125s-45.125 20.243-45.125 45.125v15.125h-210.875v30zm210.885-30h-30.25v-15.125c0-8.34 6.785-15.125 15.125-15.125s15.125 6.785 15.125 15.125zm58.545 30 .019 30.25h-147.363l-.019-30.25zm70.613 230.559v-25.263c29.458-6.822 51.486-33.258 51.486-64.76 0-34.457-26.349-62.871-59.956-66.163l-32.116-32.128-.026-42.246h62.068l.036 54.735c35.233 13.716 60.661 47.721 60.244 85.801.001 46.935-35.934 85.632-81.736 90.024zm-51.487-90.022c0-20.119 16.368-36.487 36.487-36.487 20.118 0 36.486 16.368 36.486 36.487s-16.368 36.487-36.486 36.487c-20.119 0-36.487-16.368-36.487-36.487zm-22.786-30.062-24.872.003-.025-50.229h34.165l20.646 20.653c-12.878 6.367-23.401 16.782-29.914 29.573zm-85.123-.01-.025-50.215h30.25l.025 50.215zm-84.77-29.562 20.646-20.653h34.1l.025 50.229-24.857-.003c-6.514-12.792-17.037-23.207-29.914-29.573zm-29.36 96.121c-20.119 0-36.487-16.368-36.487-36.487s16.368-36.487 36.487-36.487 36.487 16.368 36.487 36.487-16.368 36.487-36.487 36.487zm-36.482-122.295-.036-54.729h62.068l.026 42.253-32.108 32.12c-33.607 3.292-59.957 31.706-59.957 66.163 0 31.502 22.03 57.938 51.487 64.76v25.263c-45.802-4.392-81.737-43.089-81.737-90.022-.416-38.086 25.02-72.091 60.257-85.808z"/></svg>