<svg id="Capa_1" enable-background="new 0 0 512 512" height="512" viewBox="0 0 512 512" width="512" xmlns="http://www.w3.org/2000/svg"><g><path d="m512 274.179h-100.667c9.208-12.332 14.667-27.619 14.667-44.158v-76.044h-31.991l-11.798-82.562c-2.271-15.94-10.225-30.529-22.39-41.074-12.159-10.551-27.721-16.362-43.821-16.362-10.542 0-20.757 2.439-30.023 7.109-9.239-4.633-19.491-7.112-29.977-7.112-10.487 0-20.74 2.48-29.98 7.114-9.275-4.656-19.599-7.111-30.02-7.111-16.099 0-31.662 5.808-43.822 16.354-12.161 10.547-20.112 25.135-22.388 41.073l-11.799 82.569h-31.991v75c0 16.963 5.668 32.624 15.2 45.203h-101.2v135c0 41.355 33.645 75 75 75h45v-45c0-16.871-5.603-32.456-15.041-45h197.267l103.835 103.844 63.644-63.645-40.206-40.199h82.501zm-171.835-221.175c6.71 5.816 11.094 13.856 12.346 22.647l11.193 78.325h-29.694l-11.796-82.574c-1.397-9.776-4.938-19.038-10.267-27.177 1.34-.146 2.689-.247 4.053-.247 8.877.001 17.457 3.205 24.165 9.026zm-47.65 22.642 11.19 78.331h-95.41l11.19-78.331c2.579-18.055 18.277-31.669 36.515-31.669s33.936 13.614 36.515 31.669zm-133.026.003c2.577-18.055 18.273-31.67 36.511-31.67 1.359 0 2.713.089 4.059.238-5.333 8.141-8.875 17.406-10.273 27.186l-11.796 82.573h-29.694zm236.511 108.328v46.044c0 24.237-19.719 43.956-43.956 43.956h-191.044c-19.555 0-36.228-12.541-42.42-30h137.42v-30h-140v-30zm-306 255.202v15h-15c-24.813 0-45-20.187-45-45v-15h15c24.813 0 45 20.187 45 45zm392-75h-124.938l70.214 70.201-21.215 21.215-91.408-91.417h-284.653v-60h452z"/></g></svg>