<svg id="Capa_1" enable-background="new 0 0 512 512" height="512" viewBox="0 0 512 512" width="512" xmlns="http://www.w3.org/2000/svg"><g><path d="m316 232.279c-24.813 0-45 20.187-45 45v90c0 24.813 20.187 45 45 45s45-20.187 45-45v-90c0-24.813-20.187-45-45-45zm15 135c0 8.271-6.729 15-15 15s-15-6.729-15-15v-90c0-8.271 6.729-15 15-15s15 6.729 15 15z"/><path d="m390.246 203.033-44.246-44.246v-68.787h-30v-90h-120v90h-30v68.787l-44.246 44.246c-19.832 19.831-30.754 46.199-30.754 74.246v234.721h330v-234.721c0-28.047-10.922-54.415-30.754-74.246zm-164.246-173.033h60v60h-60zm90 90v30h-120v-30zm75 362h-270v-204.721c0-20.034 7.802-38.868 21.967-53.033l44.246-44.246h137.573c15.07 15.07 44.247 44.246 44.247 44.247 14.165 14.165 21.967 32.999 21.967 53.032z"/></g></svg>