<svg id="Capa_1" enable-background="new 0 0 512 512" height="512" viewBox="0 0 512 512" width="512" xmlns="http://www.w3.org/2000/svg"><g><path d="m115.088 250.453-10.152 24.509 10.152 24.509 27.717-11.48-5.397-13.029 5.397-13.028z"/><path d="m85.25 293.365 5.489-18.404-5.489-18.402 12.294-9.641 10.299-26.334-27.94-10.927-7.316 18.707-21.925 17.193 8.771 29.404-8.771 29.405 21.925 17.194 7.316 18.707 27.94-10.927-10.299-26.334z"/><path d="m32.207 306.768 6.539-31.806-6.539-31.806 19.436-24.478 14.074-35.577-27.897-11.036-12.437 31.441-25.383 31.968 8.119 39.488-8.119 39.488 25.383 31.968 12.437 31.441 27.897-11.035-14.074-35.578z"/><path d="m480.253 390.976c-19.745-30.047-46.988-53.369-79.114-67.832l-11.342-45.37c-2.597-10.389.675-21.618 8.539-29.306 28.771-28.128 45.272-67.341 45.272-107.658 0-77.643-63.167-140.809-140.81-140.809h-150.571v44.2c0 20.178 7.095 39.263 20.106 54.409v43.619l-44.103 73.466 23.997 23.997v20.62l25.769 10.692-23.255 16.392 4.74 25.811c3.615 18.491 21.318 31.471 40.438 28.237l44.636-7.661 3.87 42.387-43.078 135.83h306.646l.007-14.993c.019-37.734-10.96-74.399-31.747-106.031zm-298.026-360.976h120.572c61.101 0 110.81 49.709 110.81 110.884.101 31.708-13.487 64.286-36.707 86.6l-17.842-24.663c7.333-14.871 6.664-32.37-2.403-47.151-10.931-18.032-32.784-27.506-53.792-22.161v-8.071c0-26.3-21.396-47.697-47.697-47.697h-61.158c-7.63-9.486-11.783-21.192-11.783-33.541zm12.614 281.875c-5.082 1.231-6.705-6.734-7.128-11.018l34.918-24.612-.845-19.551-39.56-16.415v-13.015l-16.216-16.216 36.323-60.506v-42.801h52.834c9.758 0 17.697 7.939 17.697 17.697v45.789l37.508-8.662c9.896-2.285 17.188 3.046 20.712 8.792 1.692 2.758 6.573 12.522-1.661 22.357l-7.499 8.957 38.76 53.579c-2.298 9.361-2.38 19.245.009 28.8l9.835 39.342-93.704 32.899-5.348-58.569zm51.492 170.125 29.336-92.509 112.234-39.405c52.053 23.092 88.045 74.368 93.402 131.913h-234.972z"/></g></svg>