<svg id="Capa_1" enable-background="new 0 0 512 512" height="512" viewBox="0 0 512 512" width="512" xmlns="http://www.w3.org/2000/svg"><g><path d="m339.164 336.268c6.733-8.261 12.351-17.032 16.815-26.183h38.601c6.192 17.459 22.865 30 42.42 30 24.813 0 45-20.187 45-45s-20.187-45-45-45c-19.555 0-36.228 12.541-42.42 30h-28.406c1.589-7.892 2.396-15.943 2.396-24.085 0-28.909-10.169-56.666-29.406-80.268-12.109-14.856-27.265-27.341-44.693-36.989 17.429-9.648 32.585-22.133 44.693-36.989 6.733-8.261 12.351-17.032 16.815-26.182h38.601c6.192 17.459 22.865 30 42.42 30 24.813 0 45-20.187 45-45s-20.187-45-45-45c-19.555 0-36.228 12.541-42.42 30h-28.406c1.589-7.892 2.396-15.943 2.396-24.086v-21.486h-30v21.486c0 8.169-1.091 16.236-3.223 24.086h-158.695c-2.132-7.85-3.223-15.917-3.223-24.086v-21.486h-30v21.486c0 28.91 10.169 56.666 29.406 80.268 12.109 14.856 27.265 27.341 44.693 36.989-17.429 9.648-32.585 22.133-44.693 36.989-6.733 8.261-12.351 17.032-16.815 26.183h-38.6c-6.192-17.459-22.865-30-42.42-30-24.813 0-45 20.187-45 45s20.187 45 45 45c19.555 0 36.228-12.541 42.42-30h28.406c-1.589 7.892-2.396 15.943-2.396 24.085 0 28.909 10.169 56.666 29.406 80.268 12.109 14.856 27.265 27.341 44.693 36.989-17.429 9.648-32.585 22.133-44.693 36.989-6.733 8.261-12.351 17.032-16.815 26.182h-38.601c-6.192-17.459-22.865-30-42.42-30-24.813 0-45 20.187-45 45s20.187 45 45 45c19.555 0 36.228-12.541 42.42-30h28.406c-1.589 7.892-2.396 15.943-2.396 24.086v21.486h30v-21.486c0-8.169 1.091-16.236 3.223-24.086h158.695c2.132 7.85 3.223 15.917 3.223 24.086v21.486h30v-21.486c0-8.143-.807-16.193-2.396-24.086h28.406c6.192 17.459 22.865 30 42.42 30 24.813 0 45-20.187 45-45s-20.187-45-45-45c-19.555 0-36.228 12.541-42.42 30h-38.601c-4.464-9.15-10.082-17.921-16.815-26.182-12.109-14.856-27.265-27.341-44.693-36.989 17.427-9.648 32.583-22.133 44.692-36.989zm97.836-56.183c8.271 0 15 6.729 15 15s-6.729 15-15 15-15-6.729-15-15 6.729-15 15-15zm0-234.513c8.271 0 15 6.729 15 15s-6.729 15-15 15-15-6.729-15-15 6.729-15 15-15zm-362 186.343c-8.271 0-15-6.729-15-15s6.729-15 15-15 15 6.729 15 15-6.729 15-15 15zm0 234.513c-8.271 0-15-6.729-15-15s6.729-15 15-15 15 6.729 15 15-6.729 15-15 15zm362-30c8.271 0 15 6.729 15 15s-6.729 15-15 15-15-6.729-15-15 6.729-15 15-15zm-240.91-353.627c-1.923-2.36-3.723-4.772-5.409-7.229h130.639c-1.686 2.456-3.486 4.869-5.409 7.229-14.81 18.171-35.502 32.019-59.91 40.163-24.409-8.144-45.101-21.992-59.911-40.163zm0 111.885c14.81-18.172 35.502-32.019 59.91-40.163 24.408 8.144 45.1 21.992 59.91 40.163 1.923 2.36 3.723 4.772 5.409 7.229h-130.638c1.686-2.457 3.486-4.869 5.409-7.229zm139.258 37.229c2.132 7.849 3.223 15.917 3.223 24.085s-1.091 16.236-3.223 24.085h-158.696c-2.132-7.849-3.223-15.917-3.223-24.085s1.091-16.236 3.223-24.085zm-19.438 197.284c1.923 2.36 3.723 4.772 5.409 7.229h-130.638c1.686-2.456 3.486-4.869 5.409-7.229 14.81-18.171 35.502-32.019 59.91-40.163 24.408 8.144 45.1 21.992 59.91 40.163zm-59.91-71.722c-24.408-8.144-45.1-21.992-59.91-40.163-1.923-2.36-3.723-4.772-5.409-7.229h130.639c-1.686 2.456-3.486 4.869-5.409 7.229-14.811 18.172-35.503 32.019-59.911 40.163z"/></g></svg>