<svg id="Capa_1" enable-background="new 0 0 512.678 512.678" height="512" viewBox="0 0 512.678 512.678" width="512" xmlns="http://www.w3.org/2000/svg"><path d="m465.356 37.994-37.993-37.994-37.993 37.994h-46.963v71.991c0 41.591 30.05 76.273 69.574 83.535-4.665 54.429-52.198 93.298-105.442 93.176 13.576-15.475 21.819-35.739 21.819-57.894 0-38.416-31.254-69.67-69.67-69.67-30.88 0-56.003 25.123-56.003 56.002 0 25.228 20.524 45.752 45.752 45.752v-30c-8.686 0-15.752-7.066-15.752-15.752 0-14.338 11.665-26.002 26.003-26.002 21.874 0 39.67 17.796 39.67 39.67 0 31.922-25.971 57.894-57.893 57.894h-127.116c-62.303 0-112.99 50.688-112.99 112.991s50.688 112.991 112.99 112.991h19.343c68.19 0 123.667-55.477 123.667-123.667v-12.511h-30v12.511c0 51.648-42.019 93.667-93.667 93.667h-19.343c-45.761 0-82.99-37.229-82.99-82.991 0-32.062 18.288-59.916 44.969-73.731-9.293 13.937-14.719 30.663-14.719 48.634 0 38.417 31.254 69.67 69.67 69.67 30.88 0 56.003-25.123 56.003-56.003 0-25.228-20.524-45.752-45.752-45.752v30c8.686 0 15.752 7.066 15.752 15.752 0 14.338-11.665 26.003-26.003 26.003-21.874 0-39.67-17.796-39.67-39.67 0-31.922 25.971-57.893 57.893-57.894h134.69v14.667c0 32.349 26.318 58.667 58.667 58.667h44.666v-44.667c0-16.554-6.902-31.517-17.967-42.193 41.161-20.293 70.277-61.418 73.499-109.526 39.863-6.983 70.263-41.826 70.263-83.658v-71.992zm-108.832 322.035h-14.666c-15.807 0-28.667-12.86-28.667-28.667v-14.667h14.667c15.807 0 28.666 12.86 28.666 28.667zm125.795-250.044c0 30.303-24.653 54.956-54.956 54.956s-54.956-24.653-54.956-54.956v-41.991h29.389l25.567-25.567 25.567 25.567h29.389z"/></svg>