<svg id="Capa_1" enable-background="new 0 0 512 512" height="512" viewBox="0 0 512 512" width="512" xmlns="http://www.w3.org/2000/svg"><g><path d="m166 211c-24.813 0-45 20.187-45 45s20.187 45 45 45 45-20.187 45-45-20.187-45-45-45zm0 60c-8.271 0-15-6.729-15-15s6.729-15 15-15 15 6.729 15 15-6.729 15-15 15z"/><path d="m166 91c-24.813 0-45 20.187-45 45s20.187 45 45 45 45-20.187 45-45-20.187-45-45-45zm0 60c-8.271 0-15-6.729-15-15s6.729-15 15-15 15 6.729 15 15-6.729 15-15 15z"/><path d="m358.024 177.906-24.049 17.936c7.84 10.509 27.025 30.081 27.025 60.158 0 27.162-12.448 41.74-26.764 59.833l23.527 18.615c17.705-22.39 33.237-42.43 33.237-78.448 0-39.498-22.564-64.134-32.976-78.094z"/><path d="m420.951 161.08c-1.271-64.189-27.335-103.932-49.286-126.127-24.682-24.956-49.726-33.771-50.78-34.135l-2.374-.818h-77.511c-.55 10.594 2.018 29.654-5.434 51.063-4.639-6.158-9.357-11.517-13.901-16.111-24.682-24.956-49.726-33.771-50.78-34.135l-2.374-.817h-77.511v15c0 26.511-6.237 39.194-13.46 53.88-7.753 15.764-16.54 33.631-16.54 67.12 0 21.093 6.919 42.363 19.261 59.976-12.493 17.675-19.261 38.578-19.261 60.024 0 21.453 6.773 42.365 19.261 60.028-12.348 17.625-19.261 38.886-19.261 59.972 0 33.489 8.787 51.356 16.54 67.12 7.223 14.686 13.46 27.369 13.46 53.88v15h77.511l2.374-.818c1.055-.363 26.099-9.179 50.78-34.134 4.543-4.594 9.261-9.952 13.901-16.111 7.448 21.399 4.886 40.517 5.434 51.063h77.511l2.374-.818c1.055-.363 26.099-9.179 50.78-34.134 21.951-22.195 48.015-61.94 49.286-126.129 8.359-12.156 30.049-48.205 30.049-94.919 0-46.725-21.687-82.763-30.049-94.92zm-219.631 293.865c-16.137 16.671-32.573 24.645-38.186 27.055h-42.775c-2.159-24.18-9.394-38.891-15.899-52.12-7.223-14.686-13.46-27.369-13.46-53.88 0-17.92 7.097-36.094 19.491-49.882.85-.952-3.004 3.451 8.823-10.118l-8.117-9.296c-.59-.95-20.197-20.008-20.197-50.704 0-18.184 6.915-35.891 19.491-49.882.85-.952-3.004 3.451 8.823-10.118l-8.117-9.296c-.602-.976-20.197-19.691-20.197-50.704 0-26.511 6.237-39.194 13.46-53.88 6.506-13.229 13.74-27.94 15.899-52.12h42.769c5.678 2.438 22.085 10.413 38.192 27.055 26.329 27.203 39.68 63.857 39.68 108.945v5.217l3.237 4.091c.268.338 26.763 34.358 26.763 80.692 0 45.9-26.524 80.387-26.766 80.695l-3.234 4.09v5.215c0 45.088-13.351 81.742-39.68 108.945zm192.914-118.25-3.234 4.09v5.215c0 45.088-13.351 81.742-39.68 108.945-16.137 16.671-32.573 24.645-38.186 27.055h-42.769c-2.153-24.416-9.42-39.435-16.045-52.855 9.283-20.638 16-46.429 16.63-78.226 8.36-12.156 30.05-48.205 30.05-94.919 0-46.725-21.687-82.763-30.049-94.92-.63-31.796-7.347-57.586-16.63-78.224 6.625-13.42 13.892-28.439 16.045-52.855h42.762c5.678 2.438 22.085 10.413 38.192 27.055 26.329 27.202 39.68 63.856 39.68 108.944v5.217l3.237 4.091c.268.338 26.763 34.358 26.763 80.692 0 45.9-26.524 80.387-26.766 80.695z"/><path d="m166 331c-24.813 0-45 20.187-45 45s20.187 45 45 45 45-20.187 45-45-20.187-45-45-45zm0 60c-8.271 0-15-6.729-15-15s6.729-15 15-15 15 6.729 15 15-6.729 15-15 15z"/></g></svg>