<svg id="Capa_1" enable-background="new 0 0 506.119 506.119" height="512" viewBox="0 0 506.119 506.119" width="512" xmlns="http://www.w3.org/2000/svg"><g><path d="m437.388 259.65 68.732-68.731-190.92-190.919-68.731 68.731 41.455 41.455-109.106 91.501c-40.158-30.577-100.675-28.271-139.389 10.444l-10.606 10.606 81.367 81.367-110.19 202.015 202.014-110.19 81.367 81.367 10.606-10.606c38.699-38.701 41.039-99.206 10.444-139.389l91.501-109.106zm-148.493-190.919 26.305-26.305 148.493 148.493-26.306 26.306c-31.598-31.599-111.163-111.164-148.492-148.494zm-213.715 362.209 57.121-104.723 47.602 47.602zm207.139 2.87-210.009-210.011c29.565-19.631 70.512-17.004 95.731 8.214l106.066 106.065c25.217 25.219 27.843 66.164 8.212 95.732zm1.422-128.523-82.909-82.909 108.387-90.896 65.419 65.419z"/></g></svg>