<svg id="Capa_1" enable-background="new 0 0 512 512" height="512" viewBox="0 0 512 512" width="512" xmlns="http://www.w3.org/2000/svg"><path d="m512 120.433c0-66.407-54.025-120.433-120.433-120.433s-120.433 54.026-120.433 120.433c0 16.308 3.265 31.865 9.164 46.063-25.635 21.805-61.387 44.37-99.596 44.37h-150.577v30.308l-30.125 10v69.901l30.125 10v30.272h37.052l20 150.653h100.504l-11.999-90.384h50.136v-50.486c59.375 26.564 92.31 73.908 98.065 80.612h82.685v-91.88c34.331-6.972 60.25-37.387 60.25-73.745 0-22.299-9.759-42.354-25.219-56.146 41.502-19.032 70.401-60.971 70.401-109.538zm-30 0c0 19.529-6.224 37.631-16.79 52.43l-126.073-126.073c14.799-10.566 32.901-16.79 52.43-16.79 49.865 0 90.433 40.568 90.433 90.433zm-452 178.991v-26.599l30.125-10v-21.959h105.567v90.482h-105.567v-21.924zm83.458 182.576-16.018-120.652h39.978l16.017 120.652zm82.359-90.384h-24.119l-4.018-30.268h13.002c5.093 0 10.143.417 15.135 1.168zm-.125-59.382v-92.253c38.896-4.511 73.728-25.731 99.784-47.035 6.036 7.979 13.043 15.184 20.841 21.442v183.524c-26.481-25.796-70.134-59.815-120.625-65.678zm150.625 89.507v-189.706c9.54 3.882 19.683 6.58 30.25 7.898v181.808zm60.25-92.941v-85.368c17.599 6.203 30.25 22.989 30.25 42.684s-12.651 36.481-30.25 42.684zm-105.433-208.367c0-19.529 6.224-37.631 16.79-52.43l126.073 126.073c-14.799 10.566-32.901 16.79-52.43 16.79-49.865 0-90.433-40.568-90.433-90.433z"/></svg>