<svg id="Capa_1" enable-background="new 0 0 512.038 512.038" height="512" viewBox="0 0 512.038 512.038" width="512" xmlns="http://www.w3.org/2000/svg"><g><path d="m492.686 158.259 15.953-32.558-122.303-122.302-32.558 15.954c-62.518-25.803-132.996-25.804-195.52 0l-32.556-15.954-122.304 122.303 15.955 32.558c-25.804 62.52-25.804 132.999 0 195.52l-15.955 32.556 122.304 122.304 32.558-15.954c31.261 12.902 64.511 19.353 97.76 19.353 33.25 0 66.5-6.451 97.76-19.353l32.559 15.954 122.302-122.303-15.953-32.558c25.801-62.52 25.801-132.999-.002-195.52zm-138.189 301.37-6.407 2.855c-58.512 26.077-125.629 26.077-184.141 0l-6.408-2.855-25.786 12.637-91.981-91.982 12.637-25.787-2.855-6.407c-26.077-58.512-26.077-125.629 0-184.142l2.855-6.407-12.637-25.788 91.981-91.981 25.786 12.637 6.408-2.855c58.512-26.077 125.629-26.077 184.141 0l6.408 2.855 25.786-12.637 91.983 91.982-12.637 25.787 2.855 6.407c26.076 58.512 26.076 125.629 0 184.142l-2.855 6.407 12.637 25.787-91.982 91.982z"/><path d="m363.183 123.194v-24.173h-30v25.061l-44.021 19.105c-6.611 2.869-12.688 6.569-18.143 10.934v-88.102h-30v88.102c-5.455-4.365-11.531-8.064-18.142-10.934l-44.021-19.105v-25.061h-30v24.184c-40.837 33.58-63.503 82.375-63.503 132.814 0 94.106 76.561 170.666 170.666 170.666 94.106 0 170.667-76.56 170.667-170.666 0-52.006-23.469-100.546-63.503-132.825zm-122.164 272.691c-70.537-7.512-125.666-67.369-125.666-139.866 0-33.707 12.001-65.869 33.503-91.128v96.491c0 31.881 18.896 60.682 48.142 73.375l44.021 19.105zm0-74.727-32.078-13.921c-18.275-7.932-30.085-25.931-30.085-45.854v-19.5l62.163 26.979zm0-85.096-62.163-26.979v-52.297l32.078 13.921c18.275 7.932 30.085 25.931 30.085 45.854zm30-19.5c0-19.923 11.81-37.922 30.086-45.854l32.078-13.921v52.297l-62.164 26.979zm0 52.299 62.164-26.979v19.5c0 19.923-11.81 37.922-30.086 45.854l-32.078 13.921zm0 127.024v-42.023l44.022-19.105c29.245-12.692 48.142-41.493 48.142-73.374v-96.502c21.394 25.117 33.503 57.234 33.503 91.139 0 72.496-55.129 132.353-125.667 139.865z"/></g></svg>