<svg height="512pt" viewBox="-106 0 512 512" width="512pt" xmlns="http://www.w3.org/2000/svg"><path d="m225 0c-11.515625 0-22.03125 4.355469-30 11.496094-7.96875-7.140625-18.484375-11.496094-30-11.496094-20.722656 0-38.210938 14.085938-43.414062 33.179688-5.136719-2.042969-10.730469-3.179688-16.585938-3.179688-20.722656 0-38.210938 14.085938-43.414062 33.179688-5.136719-2.042969-10.730469-3.179688-16.585938-3.179688-24.8125 0-45 20.1875-45 45v116.460938c0 24.257812 5.734375 48.546874 16.582031 70.246093 8.777344 17.554688 13.417969 37.207031 13.417969 56.832031v148.460938c0 8.285156 6.714844 15 15 15h180c8.285156 0 15-6.714844 15-15v-177.449219l57.480469-86.230469c1.640625-2.464843 2.519531-5.359374 2.519531-8.320312v-120c0-8.285156-6.714844-15-15-15h-15v-45c0-24.8125-20.1875-45-45-45zm0 30c8.269531 0 15 6.730469 15 15v45h-30v-45c0-8.269531 6.730469-15 15-15zm-75 15c0-8.269531 6.730469-15 15-15s15 6.730469 15 15v45h-30c0-14.09375 0-30.949219 0-45zm-60 30c0-8.269531 6.730469-15 15-15s15 6.730469 15 15v60c0 8.269531-6.730469 15-15 15s-15-6.730469-15-15c0-7.257812 0-52.691406 0-60zm-45 15c8.269531 0 15 6.730469 15 15v30c0 8.269531-6.730469 15-15 15s-15-6.730469-15-15v-30c0-8.269531 6.730469-15 15-15zm225 130.460938-57.480469 86.230468c-1.640625 2.464844-2.519531 5.359375-2.519531 8.320313v166.988281h-60v-77c0-8.285156-6.714844-15-15-15s-15 6.714844-15 15v77h-60v-133.460938c0-24.257812-5.734375-48.546874-16.582031-70.246093-8.777344-17.554688-13.417969-37.207031-13.417969-56.832031v-44.039063c4.695312 1.664063 9.742188 2.578125 15 2.578125 11.515625 0 22.03125-4.355469 30-11.496094 7.96875 7.144532 18.484375 11.496094 30 11.496094 15.992188 0 30.050781-8.390625 38.035156-20.996094 9.976563 9.601563 22.582032 16.484375 36.632813 19.414063-18.355469 20.4375-29.667969 48.246093-29.667969 76.582031 0 8.285156 6.714844 15 15 15s15-6.714844 15-15c0-30.9375 18.996094-62.019531 45.164062-73.90625.820313-.375 1.578126-.820312 2.296876-1.3125 7.109374-1.175781 12.539062-7.335938 12.539062-14.78125 0-8.285156-6.714844-15-15-15h-30c-19.554688 0-36.238281-12.539062-42.429688-30h117.429688zm0 0"/></svg>