<svg id="Capa_1" enable-background="new 0 0 512.245 512.245" height="512" viewBox="0 0 512.245 512.245" width="512" xmlns="http://www.w3.org/2000/svg"><g><path d="m451.537 137.84c-.803-1.492-1.616-2.976-2.441-4.459l23.494-23.494c56.735-61.641-27.622-145.947-89.225-89.223 0 0-16.805 16.806-16.805 16.806-74.26-49.927-147.123-49.992-221.478 0l-16.806-16.807c-61.64-56.736-145.946 27.623-89.224 89.224 0 0 23.494 23.494 23.494 23.494-72.602 126.705-46.271 233.745-43.946 234.133-.002 0 1.504 4.561 1.504 4.561l191.452 140.17h88.53l191.452-140.17c3.012-10.847 33.046-95.379-40.001-234.235zm14.133 215.993-175.392 128.412h-68.914l-175.389-128.41c-13.378-62.579 5.013-145.887 54.185-225.267l-39.895-39.895c-12.902-12.902-12.901-33.896 0-46.798 12.903-12.901 33.896-12.902 46.797 0l35.517 35.518c74.69-63.061 151.745-63.1 226.483 0l35.516-35.518c12.901-12.9 33.895-12.902 46.798.001 12.902 12.902 12.902 33.895 0 46.797l-39.894 39.895c49.185 79.412 67.549 162.671 54.188 225.265z"/><path d="m262.61 155.869-6.789-3.445c-62.257 28.128-104.718 93.327-103.999 161.803-.001-.001-.001 28.265-.001 28.265 0 40.116 32.637 72.753 72.753 72.753h62.494c40.116 0 72.753-32.637 72.753-72.753v-28.266c.567-65.68-38.385-129.137-97.211-158.357zm67.211 186.623c0 23.574-19.179 42.753-42.753 42.753h-62.494c-23.574 0-42.753-19.179-42.753-42.753v-28.266c-.416-51.911 28.833-102.433 74-127.934 45.167 25.502 74.415 76.022 74 127.934z"/><path d="m270.821 303.618v-12.373h25v-30h-80v30h25v12.373c0 8.063-9.82 17.656-25.629 25.034l12.688 27.186c11.549-5.39 20.925-11.76 27.942-18.858 7.017 7.098 16.393 13.468 27.942 18.858l12.688-27.186c-15.811-7.378-25.631-16.971-25.631-25.034z"/><path d="m128.821 156.245h30v30h-30z"/><path d="m352.821 156.245h30v30h-30z"/></g></svg>