<svg id="Capa_1" enable-background="new 0 0 508.531 508.531" height="512" viewBox="0 0 508.531 508.531" width="512" xmlns="http://www.w3.org/2000/svg"><g><path d="m179.266 220.325-14.72 30.454-15.28-30.56v-41.459h-30v48.541l35.729 71.459h19.681l34.59-71.566v-48.434h-30z"/><path d="m239.266 178.76h30v120h-30z"/><path d="m344.266 178.76h-45v120h30v-30h15c24.814 0 45-20.187 45-45 0-24.814-20.187-45-45-45zm0 60h-15v-30h15c8.272 0 15 6.729 15 15s-6.729 15-15 15z"/><path d="m449.728 238.76 33.75-135h-34.212v-40.926l-195-62.834-195 62.834v40.926h-34.212l33.75 135-33.75 135h80.419c56.483 96.777 144.512 131.862 148.793 134.771 4.702-3.195 92.49-38.305 148.793-134.771h80.419zm-30.462-135h-30v-28.74l30 9.666zm-60-38.407v38.407h-210v-38.407l105-33.833zm-270 19.333 30-9.666v28.74h-30zm165 390.209c-46.718-24.684-85.439-59.272-113.431-101.135h32.607c21.544 26.954 45.463 53.091 74.115 67.416l6.708 3.354 6.708-3.354c28.652-14.325 52.571-40.462 74.115-67.416h32.607c-27.99 41.863-66.712 76.451-113.429 101.135zm-41.733-101.135h83.465c-13.049 14.756-26.895 27.976-41.732 36.89-14.837-8.915-28.684-22.134-41.733-36.89zm232.521-30h-381.576l26.25-105-26.25-105h381.576l-26.25 105z"/></g></svg>