<svg id="Layer_1" enable-background="new 0 0 510 510" height="512" viewBox="0 0 510 510" width="512" xmlns="http://www.w3.org/2000/svg"><g><path d="m510 30h-390v75h-60v240h49.508l-58.334 105h-51.174v30h68.826l51.174-92.113v32.113h30v60h120v-60h90v60h120v-60h30zm-30 30v30h-330v-30zm-330 60h150v120h-150zm180 0h150v120h-150zm-240 15h30v180h-30zm150 315h-60v-30h60zm210 0h-60v-30h60zm-300-60c0-21.765 0-81.849 0-120h330v120c-68.212 0-260.296 0-330 0z"/><path d="m210 315h30v30h-30z"/><path d="m390 315h30v30h-30z"/><path d="m285 315h60v30h-60z"/></g></svg>