<svg id="Capa_1" enable-background="new 0 0 512.07 512.07" height="512" viewBox="0 0 512.07 512.07" width="512" xmlns="http://www.w3.org/2000/svg"><g><path d="m494.603 163.027c11.341-17.047 17.432-37.051 17.432-57.993 0-28.046-10.922-54.414-30.754-74.246-35.875-35.874-91.462-40.31-132.215-13.312-44.325-17.283-92.352-21.866-139.463-13.218-51.146 9.388-97.686 33.855-134.587 70.757-36.901 36.901-61.369 83.441-70.757 134.586-8.646 47.102-4.067 95.122 13.208 139.44-11.34 17.048-17.432 37.052-17.432 57.994 0 28.046 10.922 54.414 30.754 74.246 20.47 20.47 47.357 30.705 74.246 30.705 20.24 0 40.478-5.802 57.98-17.4 29.737 11.594 61.131 17.486 92.809 17.485 15.534 0 31.144-1.414 46.644-4.259 51.146-9.388 97.686-33.855 134.587-70.757 36.901-36.901 61.369-83.441 70.757-134.586 8.645-47.104 4.066-95.124-13.209-139.442zm-460.837 51.992c8.284-45.134 29.884-86.21 62.463-118.79 32.579-32.579 73.656-54.179 118.79-62.463 36.402-6.682 73.422-4.418 108.325 6.469l-24.528 24.528c-30.168-6.716-61.672-6.259-91.666 1.437-33.85 8.686-64.87 26.405-89.707 51.242-24.838 24.837-42.557 55.857-51.242 89.707-7.696 29.995-8.153 61.499-1.437 91.665l-24.528 24.529c-10.889-34.9-13.153-71.919-6.47-108.324zm57.112 57.681c-1.944-19.408-.491-39.109 4.381-58.095 7.351-28.647 22.356-54.91 43.396-75.95s47.303-36.046 75.95-43.396c18.985-4.871 38.686-6.325 58.095-4.381zm-38.876 187.368c-14.166-14.166-21.967-33-21.967-53.033s7.801-38.868 21.967-53.033l302-302c14.621-14.621 33.827-21.931 53.033-21.931s38.412 7.311 53.033 21.931c14.166 14.166 21.967 33 21.967 53.033s-7.801 38.868-21.967 53.033l-302 302c-29.242 29.241-76.824 29.241-106.066 0zm364.81-162.604c-7.351 28.647-22.356 54.91-43.396 75.95s-47.303 36.046-75.95 43.396c-18.986 4.872-38.686 6.326-58.095 4.381l181.823-181.823c1.943 19.41.489 39.11-4.382 58.096zm61.493-.413c-8.284 45.134-29.884 86.21-62.463 118.79-32.579 32.579-73.656 54.179-118.79 62.463-36.404 6.681-73.424 4.418-108.325-6.469l24.528-24.528c14.067 3.132 28.421 4.723 42.782 4.722 16.436 0 32.876-2.052 48.884-6.16 33.85-8.686 64.87-26.405 89.707-51.242 24.838-24.837 42.557-55.857 51.242-89.707 7.696-29.995 8.153-61.499 1.437-91.665l24.528-24.529c10.888 34.901 13.152 71.919 6.47 108.325z"/><path d="m107.543 379.779c-5.194-5.194-12.1-8.055-19.445-8.055-7.347 0-14.252 2.861-19.446 8.055-5.193 5.194-8.054 12.1-8.054 19.446 0 7.345 2.86 14.251 8.054 19.445l24.748 24.747c5.194 5.194 12.1 8.055 19.445 8.055s14.251-2.861 19.446-8.055c5.193-5.194 8.054-12.1 8.054-19.446 0-7.345-2.86-14.251-8.054-19.445zm10.606 49.496c-1.416 1.417-3.3 2.197-5.304 2.197-2.003 0-3.887-.78-5.303-2.197l-24.749-24.749c-2.925-2.924-2.925-7.682 0-10.606 1.416-1.417 3.3-2.197 5.304-2.197 2.003 0 3.887.78 5.303 2.197l24.749 24.749c2.925 2.924 2.925 7.683 0 10.606z"/><path d="m181.789 393.92c10.722-10.722 10.722-28.168 0-38.891l-14.143 14.142c2.924 2.924 2.924 7.683 0 10.607-2.925 2.925-7.684 2.923-10.606 0l-24.749-24.75c-1.416-1.416-2.196-3.299-2.196-5.302s.78-3.887 2.197-5.304c1.416-1.417 3.3-2.197 5.303-2.197s3.887.78 5.303 2.197l14.143-14.142c-5.194-5.194-12.1-8.055-19.445-8.055s-14.251 2.861-19.444 8.054c-5.195 5.194-8.056 12.1-8.056 19.446s2.86 14.251 8.055 19.445l24.749 24.75c5.361 5.36 12.403 8.041 19.445 8.041s14.083-2.68 19.444-8.041z"/><path d="m190.628 346.19c5.194 5.194 12.1 8.055 19.445 8.055s14.251-2.861 19.444-8.054c5.195-5.194 8.056-12.1 8.056-19.446s-2.86-14.251-8.056-19.446l-14.141 14.144c1.416 1.416 2.196 3.299 2.196 5.302s-.78 3.887-2.197 5.304c-1.416 1.417-3.3 2.197-5.303 2.197s-3.887-.78-5.303-2.197l-24.748-24.749c-2.924-2.924-2.924-7.683 0-10.607 2.924-2.925 7.682-2.924 10.607 0l14.141-14.144c-10.723-10.721-28.168-10.721-38.891.001-10.722 10.722-10.722 28.168 0 38.891z"/><path d="m443.419 132.291c10.722-10.722 10.722-28.169 0-38.891l-24.749-24.748c-5.194-5.194-12.1-8.055-19.445-8.055s-14.251 2.861-19.446 8.055l-19.445 19.445 63.64 63.64zm-49.498-49.497c1.416-1.417 3.3-2.197 5.304-2.197 2.003 0 3.887.78 5.303 2.197l24.749 24.749c2.925 2.924 2.925 7.682 0 10.606l-5.304 5.304-35.354-35.355z"/><path d="m257.803 306.502c7.042 0 14.085-2.681 19.446-8.042 10.722-10.722 10.722-28.168 0-38.891l-44.194-44.194-14.143 14.143 44.194 44.193c2.924 2.924 2.924 7.683.001 10.606-2.925 2.924-7.683 2.925-10.607 0l-44.194-44.194-14.143 14.143 44.194 44.194c5.362 5.362 12.404 8.042 19.446 8.042z"/><path d="m413.367 162.343-14.142-14.142-17.678 17.678-10.607-10.607 10.607-10.606-14.143-14.143-10.606 10.607-10.607-10.607 17.678-17.677-14.142-14.143-31.821 31.82 63.641 63.64z"/><path d="m307.3 268.409 14.143-14.143-21.213-21.213 5.304-5.303c10.722-10.723 10.722-28.169 0-38.891l-3.536-3.536c-10.723-10.721-28.168-10.722-38.891 0l-19.447 19.447zm-30.051-68.943c2.923-2.924 7.68-2.925 10.606 0l3.536 3.536c2.924 2.924 2.923 7.682-.001 10.605l-5.304 5.304-14.142-14.142z"/><path d="m322.049 135.02h20.001v90h-20.001z" transform="matrix(.707 -.707 .707 .707 -30.039 287.521)"/></g></svg>