<svg id="Capa_1" enable-background="new 0 0 512 512" height="512" viewBox="0 0 512 512" width="512" xmlns="http://www.w3.org/2000/svg"><g><path d="m512 212h-181v-38.578c58.851-9.981 109.508-29.226 142.51-44.123 11.477-5.181 20.321-15.007 24.265-26.959 3.94-11.941 2.684-25.087-3.447-36.067-11.477-20.547-36.32-28.771-57.789-19.122-26.747 12.017-73.346 30.149-126.282 38.435 3.677-7.766 5.743-16.438 5.743-25.586 0-33.084-26.916-60-60-60s-60 26.916-60 60c0 9.148 2.066 17.82 5.743 25.586-52.936-8.286-99.534-26.418-126.281-38.436-21.473-9.646-46.313-1.424-57.789 19.123-6.131 10.98-7.388 24.126-3.447 36.067 3.943 11.952 12.788 21.778 24.265 26.959 33.002 14.897 83.659 34.142 142.51 44.123v38.578h-181.001v30h181v270h90v-120h60v-150h181zm-63.167-137.484c7.172-3.225 15.47-.478 19.301 6.384 2.077 3.72 2.486 7.995 1.152 12.04-1.339 4.055-4.222 7.257-8.12 9.017-32.68 14.752-83.534 33.98-142.237 43.027-9.719-6.286-16.096-16.428-17.544-27.886 61.973-7.672 116.934-28.872 147.448-42.582zm-222.833-14.516c0-16.542 13.458-30 30-30s30 13.458 30 30-13.458 30-30 30-30-13.458-30-30zm-175.166 41.957c-3.898-1.76-6.781-4.962-8.12-9.017-1.334-4.044-.925-8.32 1.151-12.04 3.833-6.861 12.131-9.606 19.302-6.385 30.514 13.711 85.475 34.911 147.447 42.583-1.447 11.458-7.824 21.6-17.544 27.886-58.702-9.047-109.556-28.275-142.236-43.027zm160.166 67.158c16.621-11.397 27.371-29.353 29.535-49.47 5.131.229 10.288.355 15.465.355s10.334-.126 15.465-.355c2.164 20.117 12.914 38.073 29.535 49.47v42.885h-90zm30 312.885h-30v-150h30zm30-120v-30h30v30zm30-60h-30v-30h-30v30h-30v-60h90z"/></g></svg>