<svg id="Capa_1" enable-background="new 0 0 512 512" height="512" viewBox="0 0 512 512" width="512" xmlns="http://www.w3.org/2000/svg"><g id="XMLID_970_"><path id="XMLID_973_" d="m509.13 207.831c-6.221-23.328-22.698-41.721-45.204-50.46-22.506-8.738-47.077-6.288-67.41 6.729l-15.275 9.776-15.274-9.776c-20.334-13.015-44.905-15.468-67.411-6.729-22.506 8.74-38.982 27.132-45.203 50.46-6.615 24.801-.209 50.905 17.135 69.828l95.754 104.465v27.941c0 15.518-7.76 29.842-20.758 38.316-21.524 14.033-34.374 37.752-34.374 63.446h30c0-15.518 7.76-29.841 20.759-38.315 21.523-14.034 34.373-37.753 34.373-63.447v-27.941l95.754-104.465c17.343-18.923 23.749-45.026 17.134-69.828zm-39.25 49.558-88.639 96.702-88.638-96.702v.001c-10.39-11.336-14.227-26.972-10.264-41.828 3.727-13.974 13.595-24.989 27.076-30.225s28.198-3.765 40.379 4.03l31.447 20.128 31.448-20.128c12.18-7.797 26.897-9.265 40.378-4.03s23.35 16.251 27.077 30.225c3.962 14.856.125 30.493-10.264 41.827z"/><path id="XMLID_976_" d="m231.582 406.6-11.927-8.196c-10.444-7.177-16.68-19.027-16.68-31.7v-7.652c0-25.522-14.037-48.749-36.635-60.615-12.695-6.666-20.581-19.715-20.581-34.054v-33.555l95.753-104.465c17.345-18.923 23.75-45.027 17.136-69.829-6.222-23.327-22.697-41.719-45.203-50.459-22.504-8.739-47.076-6.288-67.412 6.728l-15.274 9.776-15.275-9.776c-20.335-13.017-44.905-15.469-67.411-6.73-22.506 8.74-38.982 27.132-45.203 50.46-6.615 24.802-.209 50.906 17.135 69.828l95.754 104.465v33.555c0 25.523 14.038 48.749 36.634 60.614 12.695 6.667 20.582 19.716 20.582 34.055v7.652c0 22.558 11.1 43.651 29.69 56.426l11.927 8.195c10.445 7.178 16.681 19.028 16.681 31.701v48.976h30v-48.975c-.001-22.556-11.1-43.65-29.691-56.425zm-199.726-342.337c3.727-13.973 13.596-24.989 27.077-30.224 5.323-2.067 10.838-3.089 16.314-3.089 8.393 0 16.694 2.4 24.065 7.118l31.447 20.128 31.447-20.128c12.182-7.796 26.898-9.265 40.379-4.029 13.48 5.235 23.35 16.252 27.076 30.225 3.962 14.856.125 30.492-10.264 41.826l-88.638 96.703-88.639-96.703c-10.389-11.334-14.226-26.97-10.264-41.827z"/><path id="XMLID_978_" d="m76.321 406.446v-24.147h-30v24.147c0 20.411 7.949 39.602 22.382 54.035 8.767 8.767 13.595 20.423 13.595 32.822v18.697h30v-18.696c0-20.412-7.949-39.603-22.382-54.035-8.767-8.768-13.595-20.424-13.595-32.823z"/><path id="XMLID_979_" d="m401.979 111.005c0-12.398 4.828-24.056 13.596-32.822 14.433-14.434 22.382-33.624 22.382-54.036v-24.147h-30v24.146c0 12.398-4.828 24.056-13.595 32.823-14.434 14.433-22.382 33.623-22.382 54.035v11.686h30v-11.685z"/><path id="XMLID_980_" d="m432.478 443.324h30v31.36h-30z"/><path id="XMLID_981_" d="m26.921 275.324h30v31.36h-30z"/><path id="XMLID_982_" d="m301.798 39.931h30v31.36h-30z"/></g></svg>