<svg id="Capa_1" enable-background="new 0 0 512.001 512.001" height="512" viewBox="0 0 512.001 512.001" width="512" xmlns="http://www.w3.org/2000/svg"><g><path d="m483.797 365.758-169.619-203.195v-74.127c32.707-6.924 57.324-36.021 57.324-70.76v-17.676h-232v17.676c0 34.739 24.617 63.836 57.324 70.76v74.148l-168.766 203.242c-13.28 15.992-20.583 36.259-20.558 57.047 0 49.145 39.983 89.127 89.127 89.127h318.746c74.986.273 116.732-88.872 68.422-146.242zm-256.971-192.342v-113.416h-15c-19.053 0-35.206-12.654-40.495-30h168.341c-5.289 17.346-21.441 30-40.495 30h-15v113.438l120.675 144.562h-64.481c-7.848-17.971-21.523-33.169-38.493-42.98 0 0-12.997-7.526-12.997-7.526l-33.379 57.809-33.379-57.809-12.997 7.526c-16.968 9.81-30.645 25.01-38.493 42.98h-63.865zm46.133 242.114c-11.283 3.26-23.631 3.26-34.914 0l17.457-30.233zm43.431-75.23h-34.906l17.449-30.219c8.5 8.132 14.682 18.771 17.457 30.219zm-86.87 0h-34.906c2.775-11.448 8.957-22.087 17.457-30.219zm185.855 141.7h-318.746c-32.64.004-59.19-26.595-59.127-59.235 0-13.768 4.843-27.182 13.638-37.772l30.717-36.993h81.243c-.49 4.906-.245 17.208-.299 22.3h66.719l-33.36 57.774c19.407 11.926 35.892 19.987 59.342 19.926 23.467.06 39.94-8.005 59.342-19.925l-33.36-57.774h66.719c-.055-5.164.192-17.325-.299-22.3h81.991l30.871 36.982c8.858 10.611 13.736 24.068 13.736 37.891 0 32.602-26.524 59.126-59.127 59.126z"/><path d="m96.502 416h30v30h-30z"/><path d="m375.502 380h30v30h-30z"/></g></svg>