<svg id="Layer_1" enable-background="new 0 0 510 510" height="512" viewBox="0 0 510 510" width="512" xmlns="http://www.w3.org/2000/svg"><g><path d="m420 150h15c41.355 0 75-33.645 75-75s-33.645-75-75-75h-315-90-30v30h30v90h30v390h30v-390h30v-90h315c24.814 0 45 20.187 45 45s-20.186 45-45 45h-210c-8.272 0-15-6.729-15-15s6.728-15 15-15h210v-30h-210c-24.814 0-45 20.187-45 45s20.186 45 45 45h15v30h-90v300h360v-300h-90zm-330-60h-30v-60h30zm180 60h120v30h-120zm210 300h-300v-240h300z"/><path d="m285 420h90v-45h45v-90h-45v-45h-90v45h-45v90h45zm-15-75v-30h45v-45h30v45h45v30h-45v45h-30v-45z"/></g></svg>