<svg id="Layer_1" enable-background="new 0 0 509.855 509.855" height="512" viewBox="0 0 509.855 509.855" width="512" xmlns="http://www.w3.org/2000/svg"><g id="XMLID_643_"><path id="XMLID_646_" d="m489.907 296.557-53.506-90.144c-2.415-178.889-229.832-275.745-357.904-148.298-40.557 39.61-63.128 93.203-63.554 150.906-.475 64.585 26.529 137.116 74.994 179.313v121.521h255v-75h58.68c17.271 0 31.32-14.045 31.32-31.31v-58.69h28.657c11.567 0 22.146-6.335 27.607-16.532 5.389-10.066 4.884-22.195-1.294-31.766zm-25.154 17.603c-.371.694-.884.694-1.159.694h-58.657v88.69c0 .722-.592 1.31-1.32 1.31h-88.68v75h-195v-105.79l-5.671-4.504c-41.926-33.297-69.784-97.724-69.323-160.318.746-101.06 80.608-180.991 179.751-179.362 100.217 1.626 181.749 82.697 181.749 180.722v4.116c.58.977-6.831-11.503 58.247 98.092.152.228.436.655.063 1.35z"/><path id="XMLID_649_" d="m224.937 59.855c-82.71 0-150 67.29-150 150 7.541 198.722 292.489 198.668 300-.002 0-82.708-67.29-149.998-150-149.998zm0 270c-66.168 0-120-53.832-120-120 6.033-158.978 233.991-158.934 240 .002 0 66.166-53.832 119.998-120 119.998z"/><path id="XMLID_650_" d="m209.937 269.855h30v30h-30z"/><path id="XMLID_651_" d="m227.983 119.956c-17.27-1.138-33.364 7.432-42.017 22.388l25.969 15.021c2.89-4.996 8.271-7.85 14.059-7.475 7.33.487 13.441 6.613 13.91 13.947.437 6.798-3.738 13.062-10.15 15.232-11.852 4.01-19.816 15.017-19.816 27.389v33.396h30v-32.564c18.923-6.688 31.196-25.258 29.906-45.372-1.438-22.431-19.434-40.471-41.861-41.962z"/></g></svg>