<svg id="Capa_1" enable-background="new 0 0 512 512" height="512" viewBox="0 0 512 512" width="512" xmlns="http://www.w3.org/2000/svg"><g><path d="m219.736 261.5c49.626 0 90-40.374 90-90s-40.374-90-90-90-90 40.374-90 90 40.374 90 90 90zm0-150c33.084 0 60 26.916 60 60s-26.916 60-60 60-60-26.916-60-60 26.916-60 60-60z"/><path d="m60 231.5h22.152c7.397 16.984 17.981 32.595 31.456 46.077 28.29 28.304 65.955 43.903 106.058 43.923h.076c40.049-.001 77.707-15.593 106.037-43.909 28.35-28.334 43.962-66.012 43.962-106.091h142.259v-150h-89.93v39.17h-27.16v-39.17h-175.17c-61.387 0-114.271 37.072-137.463 90h-22.277c-16.026 0-31.094 6.241-42.427 17.574-11.332 11.332-17.573 26.399-17.573 42.426 0 .671.029 1.335.051 2h-.051v212c0 57.897 47.036 105 104.851 105h277.897c38.186 0 69.252-31.107 69.252-69.342s-31.066-69.342-69.252-69.342h-277.897c-41.272 0-74.851-33.645-74.851-75v-53.388c8.833 5.123 19.075 8.072 30 8.072zm159.74-180h145.17v39.17h87.16v-39.17h29.93v90h-144.859l1.862 16.666c.489 4.378.737 8.864.737 13.334 0 32.063-12.49 62.205-35.17 84.873-22.665 22.654-52.788 35.127-84.829 35.127-.02 0-.041 0-.061 0-66.138-.032-119.942-53.865-119.94-120.003.001-66.166 53.833-119.997 120-119.997zm-180.954 98.787c5.667-5.667 13.2-8.787 21.214-8.787h12.756c-1.976 9.695-3.016 19.727-3.016 29.997 0 10.197 1.012 20.235 2.979 30.003h-12.719c-16.542 0-30-13.458-30-30 0-8.014 3.12-15.547 8.786-21.213zm66.065 231.528h277.897c21.644 0 39.252 17.649 39.252 39.342s-17.608 39.343-39.252 39.343h-277.897c-41.273 0-74.851-33.645-74.851-75v-35.227c19.042 19.456 45.562 31.542 74.851 31.542z"/><path d="m204.737 156.5h30v30h-30z" transform="matrix(.707 -.707 .707 .707 -56.91 205.608)"/></g></svg>