<svg id="Capa_1" enable-background="new 0 0 512 512" height="512" viewBox="0 0 512 512" width="512" xmlns="http://www.w3.org/2000/svg"><g><path d="m271 24.06v-24.06h-30v24.06l-241 80.275v407.665h512v-407.665zm0 51.291v-19.67l133.502 44.468h-297.004l133.502-44.468v19.67zm-241 406.649v-351.852h452v351.852z"/><path d="m191.131 174.97h-126.388v126.387h126.388zm-30 96.386h-66.388v-66.386h66.388z"/><path d="m318.709 301.356h126.388v-126.386h-126.388zm30-96.386h66.388v66.387h-66.388z"/><path d="m178.344 336.413 33.425 121.887 121.887-33.424-33.424-121.888zm54.423 85.022-17.557-64.023 64.023-17.558 17.557 64.024z"/></g></svg>