<svg id="Capa_1" enable-background="new 0 0 512 512" height="512" viewBox="0 0 512 512" width="512" xmlns="http://www.w3.org/2000/svg"><g><path d="m301 201.905v-156.842c0-12.026-4.678-23.337-13.173-31.85-8.502-8.521-19.806-13.213-31.827-13.213-24.813 0-45 20.215-45 45.063v156.843h-142.681l34.5 310.094h306.361l34.5-310.095zm99.059 120.764h-63.897l10.101-90.764h63.894zm-281.429 60.125-3.352-30.125h281.443l-3.352 30.125zm177.32 30-7.695 69.206h-59.51l-7.695-69.206zm-84.927-90.125-10.101-90.764h115.156l-10.101 90.764zm29.977-277.606c0-8.306 6.729-15.063 15-15.063 3.997 0 7.759 1.564 10.592 4.403 2.843 2.849 4.408 6.634 4.408 10.659v156.843h-30zm-70.264 186.842 10.101 90.764h-68.897l-10.098-90.764zm-48.768 180.889h68.898l7.694 69.206h-68.893zm196.472 69.206 7.695-69.206h63.898l-7.7 69.206z"/></g></svg>