<?xml version="1.0" encoding="iso-8859-1"?>
<!-- Generator: Adobe Illustrator 19.0.0, SVG Export Plug-In . SVG Version: 6.00 Build 0)  -->
<svg xmlns="http://www.w3.org/2000/svg" xmlns:xlink="http://www.w3.org/1999/xlink" version="1.1" id="Layer_1" x="0px" y="0px" viewBox="0 0 512 512" style="enable-background:new 0 0 512 512;" xml:space="preserve">
<g>
	<g>
		<path d="M485.825,187.852c4.91-8.541,7.539-18.245,7.539-28.359c0-15.252-5.947-29.592-16.744-40.377l-78.474-78.384    l-80.848,80.754l22.018,21.992l-24.642,24.614l-13.704-13.688L104.452,350.696c-22.636,22.609-24.871,57.985-6.729,83.129    c-23.305,12.818-52.851,9.248-72.571-10.449l-3.914-3.91L0,440.679l3.914,3.91c16.815,16.796,39.171,26.266,62.949,26.666    c0.523,0.009,1.043,0.013,1.564,0.013c19.326,0,37.841-6.043,53.31-17.222c8.899,4.334,18.591,6.518,28.29,6.518    c16.505,0,33.009-6.275,45.574-18.825l196.518-196.29l-13.704-13.688l25.313-25.283c9.734,6.717,21.098,10.092,32.47,10.092    c9.812,0,19.62-2.514,28.38-7.515l26.187,26.156L512,213.996L485.825,187.852z M318.447,276.606l-24.336-24.308l-21.237,21.213    l24.337,24.308l-23.648,23.621l-24.337-24.308l-21.237,21.213l24.337,24.308l-77.963,77.872    c-13.419,13.403-35.253,13.404-48.673,0c-13.419-13.404-13.419-35.213,0-48.617l175.28-175.077l24.336,24.308l24.336,24.308    L318.447,276.606z M357.175,210.546l-21.264-21.24l24.642-24.614l21.264,21.24L357.175,210.546z M455.382,178.657    c-9.652,9.642-24.825,10.482-35.446,2.529L360.75,122.07l-0.197,0.196l-0.78-0.779l38.372-38.328l57.237,57.17    C465.961,150.896,465.961,168.09,455.382,178.657z"/>
	</g>
</g>
<g>
</g>
<g>
</g>
<g>
</g>
<g>
</g>
<g>
</g>
<g>
</g>
<g>
</g>
<g>
</g>
<g>
</g>
<g>
</g>
<g>
</g>
<g>
</g>
<g>
</g>
<g>
</g>
<g>
</g>
</svg>
