<?xml version="1.0" encoding="iso-8859-1"?>
<!-- Generator: Adobe Illustrator 19.0.0, SVG Export Plug-In . SVG Version: 6.00 Build 0)  -->
<svg xmlns="http://www.w3.org/2000/svg" xmlns:xlink="http://www.w3.org/1999/xlink" version="1.1" id="Layer_1" x="0px" y="0px" viewBox="0 0 512 512" style="enable-background:new 0 0 512 512;" xml:space="preserve">
<g>
	<g>
		<path d="M472.294,366.533V209.135H338.081v-95.036H172.499v54.999H38.286v197.436H0v31.368h38.286h134.213h31.368h102.845h31.368    h134.213H512v-31.368H472.294z M172.499,366.534H69.654v-0.001V200.467h102.845V366.534z M306.713,209.136v157.399H203.868v-0.001    V169.098v-23.631h102.845V209.136z M440.926,366.533H338.081v-126.03h102.845V366.533z"/>
	</g>
</g>
<g>
	<g>
		<path d="M265.443,264.141v-31.669h-12.089c-0.247,0.495-0.865,1.138-1.854,1.928c-0.989,0.792-2.102,1.57-3.338,2.336    c-1.237,0.768-2.484,1.422-3.745,1.966c-1.261,0.545-2.288,0.816-3.078,0.816v10.977c0.939,0,2.014-0.16,3.227-0.482    c1.211-0.321,2.398-0.741,3.56-1.261c1.162-0.519,2.213-1.086,3.153-1.705c0.939-0.618,1.632-1.224,2.077-1.817v18.913h-10.531    v10.68h32.041v-10.68H265.443z"/>
	</g>
</g>
<g>
	<g>
		<path d="M122.996,292.373c0.444-0.494,1.099-1.05,1.965-1.669c0.865-0.617,1.805-1.235,2.819-1.854    c1.012-0.618,2.039-1.223,3.077-1.817c1.038-0.593,1.929-1.113,2.67-1.557c1.086-0.642,2.151-1.347,3.189-2.113    c1.038-0.766,1.976-1.656,2.818-2.67c0.841-1.012,1.52-2.162,2.04-3.448c0.52-1.285,0.779-2.745,0.779-4.376    c0-3.956-1.422-7.094-4.265-9.42c-2.843-2.323-6.934-3.485-12.274-3.485c-2.177,0-4.265,0.198-6.267,0.593    c-2.003,0.396-3.846,0.927-5.526,1.595c-1.681,0.667-3.189,1.421-4.524,2.262c-1.335,0.841-2.399,1.705-3.189,2.595l7.565,8.752    c1.434-1.632,2.917-2.954,4.45-3.968c1.532-1.013,3.338-1.52,5.414-1.52c1.829,0,3.237,0.42,4.227,1.261    c0.989,0.842,1.484,1.954,1.484,3.338c0,0.693-0.198,1.298-0.593,1.817c-0.395,0.52-1.051,1.101-1.965,1.743    c-0.916,0.643-2.151,1.385-3.709,2.225c-1.557,0.841-3.499,1.904-5.822,3.189c-2.176,1.237-3.981,2.498-5.414,3.783    c-1.435,1.286-2.571,2.682-3.412,4.19c-0.842,1.509-1.435,3.178-1.781,5.006c-0.346,1.83-0.519,3.906-0.519,6.23v0h36.935v-10.68    H122.996z"/>
	</g>
</g>
<g>
	<g>
		<path d="M408.761,315.925c-0.496-1.508-1.2-2.843-2.114-4.005c-0.915-1.162-2.015-2.126-3.3-2.893    c-1.286-0.766-2.696-1.298-4.227-1.595c1.384-0.247,2.657-0.729,3.819-1.442c1.161-0.716,2.161-1.62,3.003-2.707    c0.841-1.087,1.495-2.299,1.966-3.635c0.469-1.335,0.705-2.745,0.705-4.227c0-1.977-0.421-3.771-1.261-5.378    c-0.842-1.606-2.029-2.991-3.56-4.153c-1.533-1.162-3.387-2.051-5.563-2.67c-2.176-0.618-4.573-0.927-7.194-0.927    c-1.978,0-3.907,0.174-5.785,0.52c-1.88,0.346-3.635,0.828-5.266,1.446c-1.631,0.619-3.091,1.372-4.376,2.262    c-1.286,0.891-2.324,1.855-3.115,2.893l7.492,8.603c1.137-1.781,2.532-3.153,4.19-4.117c1.656-0.964,3.498-1.446,5.526-1.446    c1.878,0,3.387,0.42,4.524,1.261c1.137,0.841,1.705,2.076,1.705,3.708c0,1.88-0.779,3.388-2.336,4.524    c-1.558,1.138-3.721,1.705-6.49,1.705h-2.448v8.529h2.225c3.559,0,6.167,0.569,7.824,1.705c1.655,1.139,2.484,2.819,2.484,5.044    c0,4.105-2.794,6.156-8.381,6.156c-2.374,0-4.414-0.358-6.119-1.075c-1.705-0.716-3.226-1.768-4.561-3.153l-6.378,8.455    c4.252,4.4,10.135,6.601,17.652,6.601c3.065,0,5.833-0.36,8.306-1.076c2.472-0.717,4.586-1.73,6.342-3.041    c1.755-1.311,3.102-2.893,4.042-4.747c0.939-1.855,1.409-3.943,1.409-6.267C409.502,319.053,409.254,317.434,408.761,315.925z"/>
	</g>
</g>
<g>
</g>
<g>
</g>
<g>
</g>
<g>
</g>
<g>
</g>
<g>
</g>
<g>
</g>
<g>
</g>
<g>
</g>
<g>
</g>
<g>
</g>
<g>
</g>
<g>
</g>
<g>
</g>
<g>
</g>
</svg>
