<svg id="Capa_1" enable-background="new 0 0 512 512" height="512" viewBox="0 0 512 512" width="512" xmlns="http://www.w3.org/2000/svg"><g><path d="m512 396.36h-35.338v-25.274c16.282-6.189 27.887-21.949 27.887-40.375 0-18.598-11.818-34.488-28.339-40.554v-73.397c0-52.475-42.691-95.166-95.166-95.166h-21.747v-121.594h-306.141c-14.183 0-27.466 5.488-37.403 15.453-10.2 10.229-15.795 23.985-15.753 38.691v412.857c0 24.812 20.318 44.999 45.292 44.999h314.004v-285.251h21.747c35.39 0 64.261 28.363 65.125 63.549-16.334 6.163-27.985 21.95-27.985 40.414 0 18.65 11.885 34.573 28.479 40.602v25.047h-35.339v30h35.339v85.639h30v-85.64h35.338zm-50.634-78.831c7.269 0 13.183 5.914 13.183 13.183s-5.914 13.183-13.183 13.183-13.183-5.914-13.183-13.183 5.914-13.183 13.183-13.183zm-132.067-259.416c-12.873-4.635-22.999-15.059-27.235-28.116h27.235zm-239.865 337.105c12.432 4.477 22.306 14.351 26.783 26.783h-26.783zm0-365.221h27.235c-4.235 13.057-14.362 23.481-27.235 28.116zm-59.437 24.104c-.019-6.72 2.466-12.924 6.997-17.468 4.267-4.28 10.006-6.636 16.161-6.636h6.281v362.608 29.397h-14.144c-5.366 0-10.514.932-15.294 2.64v-370.541zm299.302 427.902h-284.007c-8.433 0-15.294-6.73-15.294-15.003 0-8.272 6.861-15.002 15.294-15.002h284.007zm-26.783-60.001c4.477-12.433 14.35-22.307 26.783-26.783v26.783zm26.783-57.875c-29.009 5.963-51.914 28.865-57.874 57.875h-124.117c-5.96-29.01-28.865-51.911-57.874-57.875v-274.922c29.009-5.963 51.914-28.865 57.874-57.874h124.117c5.96 29.01 28.865 51.911 57.874 57.874v32.39h-133.363c-28.991 0-52.577 23.586-52.577 52.577s23.586 52.577 52.577 52.577h133.363zm0-212.532v45.154h-133.363c-12.449 0-22.577-10.128-22.577-22.577s10.128-22.577 22.577-22.577zm51.744 45.154h-21.747v-45.154h21.747c35.933 0 65.166 29.233 65.166 65.166v5.861c-17.041-16.036-39.976-25.873-65.166-25.873z"/></g></svg>