<svg id="Capa_1" enable-background="new 0 0 512 512" height="512" viewBox="0 0 512 512" width="512" xmlns="http://www.w3.org/2000/svg"><g><path d="m496 280.787-38.787-38.787h-111.213v-46c0-19.555-12.541-36.228-30-42.42v-32.58h30v-76c0-24.813-20.187-45-45-45h-240c-24.813 0-45 20.187-45 45v76h30v32.58c-17.459 6.192-30 22.865-30 42.42v271c0 24.813 20.187 45 45 45h396.213l38.787-38.787zm-450-235.787c0-8.271 6.729-15 15-15h240c8.271 0 15 6.729 15 15v46h-270zm240 76v30h-210v-30zm-240 151h60v120h-60zm15 210c-8.271 0-15-6.729-15-15v-45h90v-180h-90v-46c0-8.271 6.729-15 15-15h240c8.271 0 15 6.729 15 15v46h-111.213l-38.787 38.787v192.427l8.787 8.787h-113.787zm405-21.213-21.213 21.213h-227.574l-21.213-21.213v-167.574l21.213-21.213h227.574l21.213 21.213z"/><path d="m226 302h30v60h-30z"/><path d="m226 392h30v60h-30z"/><path d="m286 392h30v60h-30z"/><path d="m346 302h30v60h-30z"/><path d="m286 302h30v60h-30z"/><path d="m346 392h30v60h-30z"/><path d="m406 302h30v60h-30z"/><path d="m406 392h30v60h-30z"/></g></svg>