<?xml version="1.0" encoding="iso-8859-1"?>
<!-- Generator: Adobe Illustrator 19.0.0, SVG Export Plug-In . SVG Version: 6.00 Build 0)  -->
<svg xmlns="http://www.w3.org/2000/svg" xmlns:xlink="http://www.w3.org/1999/xlink" version="1.1" id="Layer_1" x="0px" y="0px" viewBox="0 0 512 512" style="enable-background:new 0 0 512 512;" xml:space="preserve">
<g>
	<g>
		<path d="M276.947,91.774v319.92c0,55.309,44.998,100.307,100.307,100.307S477.56,467.002,477.56,411.693V91.774H276.947z     M447.477,411.692h-0.001c0,38.72-31.502,70.222-70.222,70.222c-38.72,0-70.222-31.502-70.222-70.222V121.858h140.445V411.692z"/>
	</g>
</g>
<g>
	<g>
		<path d="M213.726,196.503v-68.656h-19.843V36.391L75.611,0v127.847H55.767v68.656H34.44v215.189    c0,55.309,44.998,100.307,100.307,100.307c55.309,0,100.307-44.998,100.307-100.307V196.503H213.726z M105.695,40.734    l58.102,17.877v69.236h-58.102V40.734z M85.851,157.932h97.792v38.571H85.851V157.932z M204.97,411.692L204.97,411.692    c-0.001,38.72-31.503,70.222-70.223,70.222s-70.222-31.502-70.222-70.222V226.588H204.97V411.692z"/>
	</g>
</g>
<g>
</g>
<g>
</g>
<g>
</g>
<g>
</g>
<g>
</g>
<g>
</g>
<g>
</g>
<g>
</g>
<g>
</g>
<g>
</g>
<g>
</g>
<g>
</g>
<g>
</g>
<g>
</g>
<g>
</g>
</svg>
