<svg id="Capa_1" enable-background="new 0 0 512.034 512.034" height="512" viewBox="0 0 512.034 512.034" width="512" xmlns="http://www.w3.org/2000/svg"><g><path d="m238.408 241.034h-15.062v-186.561l-120.376 40.125v146.437h-15.062v60.25h-15.064v210.75h180.63v-210.75h-15.065v-60.251zm-14.935 120.5h-120.63v-30.25h120.63zm-90.503-245.313 60.375-20.125v144.938h-60.375zm-15.062 154.813h90.5v30.25h-90.5zm-15.064 211v-90.5h120.63v90.5z"/><path d="m282.79 105.517 30.904 92.703v313.815h90.25v-313.816l30.898-92.705c18.167-50-23.171-107.117-76.026-105.48-52.857-1.637-94.195 55.483-76.026 105.483zm60.904 105.267h30.25v30.25h-30.25zm0 271.25v-211h30.25v211zm15.122-452c33.396-.869 58.92 35.241 47.565 65.993l-28.25 84.757h-38.627l-28.253-84.754c-11.506-31.554 15.056-67.048 47.565-65.996z"/></g></svg>