<svg id="Capa_1" enable-background="new 0 0 510 510" height="512" viewBox="0 0 510 510" width="512" xmlns="http://www.w3.org/2000/svg"><g><path d="m510 105h-30v-45h-30v45h-30v-75h30v-30c-11.219 0-80.184 0-90 0v30h30v75h-270v-75h30v-30c-11.219 0-80.184 0-90 0v30h30v75h-30v-45h-30v45h-30v30h30v45h30v-45h30v90h-30v30h30v30h-30v30h30v195h30v-30h75v30h120v-30h75v30h30c0-9.84 0-199.208 0-210h30v-30h-30v-30h30v-30h-30v-75h30v45h30v-45h30zm-390 345v-30h75v30zm165 30h-60v-120h60zm30-30v-30h75v30zm75-240h-30v30h30v30h-30v30h30v90h-75v-30h30v-30c-39.174 0-140.543 0-180 0v30h30v30h-75v-75h30v-30h-30v-30h30v-30h-30v-90h270z"/></g></svg>