<svg id="Capa_1" enable-background="new 0 0 512 512" height="512" viewBox="0 0 512 512" width="512" xmlns="http://www.w3.org/2000/svg"><g id="XMLID_1390_"><path id="XMLID_1391_" d="m134.661 280.01h50.181v30h-50.181z"/><path id="XMLID_1394_" d="m433.257 147.715-14.034-39.324h-161.132c-9.524-12.203-24.356-20.072-40.999-20.072h-2.697v-35.236h37.33l15.569 20.24 23.779-18.291-24.576-31.949h-52.102v-23.083h-109.287v88.318h-2.697c-28.673 0-52 23.327-52 52v371.682h368.418l8.338-20.979c43.698-109.952 45.861-231.875 6.09-343.306zm-164.166-9.324h128.984l6.927 19.408c1.133 3.175 2.229 6.359 3.289 9.552h-139.2v-27.032zm-133.983-108.391h49.286v58.318h-49.286zm-54.697 110.318c0-12.131 9.869-22 22-22h114.681c12.131 0 22 9.869 22 22v74.456h-158.681zm188.68 143.598h96.456v54.304h-96.456zm-30 61.329h-158.68v-100.471h158.681v100.471zm-158.68 136.755v-106.755h158.681v106.755zm318.877-2.059-.819 2.059h-129.378v-113.78h126.456v-114.304h-126.456v-56.565h148.041c24.077 93.38 18.045 192.288-17.844 282.59z"/></g></svg>