<svg id="Capa_1" enable-background="new 0 0 512 512" height="512" viewBox="0 0 512 512" width="512" xmlns="http://www.w3.org/2000/svg"><g><path d="m439 101.884v69h-238v-170.884h-97.345c-57.155 0-103.655 46.5-103.655 103.655v162.345c0 57.833 47.051 104.884 104.884 104.884h64.733l-58.093 58.094c-6.958-4.412-15.194-6.978-24.024-6.978-24.813 0-45 20.187-45 45s20.187 45 45 45c19.555 0 36.228-12.541 42.42-30h209.16c2.162 6.146 5.694 11.913 10.6 16.819 8.772 8.773 20.296 13.159 31.82 13.159 11.523 0 23.047-4.387 31.82-13.159 17.544-17.545 17.544-46.094 0-63.639-15.139-15.141-38.467-17.203-55.854-6.215l-58.082-58.082h64.733c57.832.001 104.883-47.05 104.883-104.883v-134.116h43v-30zm-147 99h75v42.116h-75zm-262-97.229c0-14.892 4.456-28.756 12.086-40.357l107.585 107.585h-119.671zm141-73.655v119.787l-107.702-107.701c11.601-7.63 25.465-12.086 40.357-12.086zm-83.5 452c-8.271 0-15-6.729-15-15s6.729-15 15-15 15 6.729 15 15-6.729 15-15 15zm304.606-25.606c5.848 5.849 5.848 15.364 0 21.213-2.833 2.833-6.6 4.394-10.607 4.394s-7.773-1.561-10.606-4.394c-5.848-5.849-5.848-15.364 0-21.213 2.833-2.833 6.6-4.394 10.607-4.394s7.773 1.561 10.606 4.394zm-54.032-4.394h-207.148l81.116-81.116h44.916zm100.926-186c0 41.291-33.593 74.884-74.884 74.884h-259.232c-41.291 0-74.884-33.593-74.884-74.884v-65.116h232v72.116h135v-72.116h42z"/></g></svg>