<svg id="Capa_1" enable-background="new 0 0 512 512" height="512" viewBox="0 0 512 512" width="512" xmlns="http://www.w3.org/2000/svg"><g><path d="m362 14c0 16.276-3.691 31.705-10.275 45.5h-191.45c-6.584-13.795-10.275-29.224-10.275-45.5v-14h-30v14c0 52.652 30.077 98.41 73.951 121-43.874 22.59-73.951 68.348-73.951 121s30.077 98.41 73.951 121c-43.874 22.59-73.951 68.348-73.951 121v14h30v-14c0-16.276 3.691-31.705 10.275-45.5h191.45c6.584 13.795 10.275 29.224 10.275 45.5v14h30v-14c0-52.652-30.077-98.41-73.951-121 43.874-22.59 73.951-68.348 73.951-121s-30.077-98.41-73.951-121c43.874-22.59 73.951-68.348 73.951-121v-14h-30zm-10.275 196.5c4.524 9.479 7.677 19.732 9.208 30.5h-209.867c1.532-10.768 4.685-21.021 9.209-30.5zm-191.45 91c-4.524-9.479-7.677-19.732-9.209-30.5h209.867c-1.532 10.768-4.685 21.021-9.208 30.5zm170.047 121h-148.644c19.145-18.849 45.397-30.5 74.322-30.5s55.177 11.651 74.322 30.5zm-148.644-91h148.645c-19.146 18.849-45.398 30.5-74.323 30.5s-55.177-11.651-74.322-30.5zm148.644-151h-148.644c19.145-18.849 45.397-30.5 74.322-30.5s55.177 11.651 74.322 30.5zm-148.644-91h148.645c-19.146 18.849-45.398 30.5-74.323 30.5s-55.177-11.651-74.322-30.5z"/><path d="m425.697 157.997-25.955 15.043c14.562 25.124 22.258 53.811 22.258 82.96s-7.696 57.836-22.258 82.96l25.955 15.043c17.208-29.689 26.303-63.578 26.303-98.003s-9.095-68.314-26.303-98.003z"/><path d="m477.648 128.002-25.955 15.044c19.828 34.207 30.307 73.267 30.307 112.954s-10.479 78.747-30.307 112.954l25.955 15.044c22.473-38.773 34.352-83.034 34.352-127.998s-11.879-89.225-34.352-127.998z"/><path d="m86.303 157.997c-17.208 29.689-26.303 63.578-26.303 98.003s9.095 68.314 26.303 98.003l25.955-15.043c-14.562-25.124-22.258-53.811-22.258-82.96s7.696-57.836 22.258-82.96z"/><path d="m60.307 143.046-25.955-15.044c-22.473 38.773-34.352 83.034-34.352 127.998s11.879 89.225 34.352 127.998l25.955-15.044c-19.828-34.207-30.307-73.266-30.307-112.954s10.479-78.747 30.307-112.954z"/></g></svg>