<svg id="Layer_1" enable-background="new 0 0 510.043 510.043" height="512" viewBox="0 0 510.043 510.043" width="512" xmlns="http://www.w3.org/2000/svg"><path d="m495.284 98.823c-13.964-20.952-11.916-49.535 6.754-68.205l4.97-4.97-21.213-21.213c-3.413 3.553-7.884 7.347-13.151 14.447-1.988-2.438-4.154-4.651-6.513-6.599-24.618-20.325-63.303-9.597-67.632-8.309l-9.655 2.877-.99 10.026c-.443 4.494-3.624 44.501 21.005 64.825 13.945 11.501 33.083 13.672 50.962 11.567 2.375 7.812 5.895 15.281 10.499 22.188 13.168 19.76 11.765 46.287-3.405 64.535l-16.554 19.444-12.955-19.433c-20.591-30.895-63.949-35.232-90.119-9.062l-37.919 37.919-112.899-173.108-13.066 14.091c-22.116 23.851-36.625 51.125-44.051 82.911l-138.71-68.752 5.831 41.993c14.177 102.077 74.583 191.391 163.079 242.683l-161.363 161.365h116.761l103.894-89.054 26.367 4.395c103.184 18.537 194.899-79.355 170.225-180.526 3.604-3.076 8.22-4.815 13.108-4.815h9.775c5.556 0 10.645-2.942 13.435-7.71l28.16-33.075c11.693-14.029 18.39-31.086 19.364-49.325.974-18.237-3.865-35.911-13.994-51.11zm-302.28-13.464 71.301 109.328-97.208-48.182c4.426-22.975 12.974-43.178 25.907-61.146zm203.399 147.59-3.708 5.722 1.873 6.557c13.502 47.257-3.844 98.822-43.162 128.311-25.975 19.479-59.241 27.593-91.263 22.253l-40.186-6.697-106.105 90.948h-33.238l139.109-139.11-18.614-9.307c-85.137-42.57-145.076-122.366-162.569-215.357l271.352 134.496 58.607-58.608c10.926-10.925 28.42-11.137 39.83-.481 1.406 1.312 2.79 2.984 4.115 4.972l10.559 15.84c-10.805 3.499-20.223 10.619-26.6 20.461zm31.546-174.387c-7.113-5.87-9.598-18.259-10.25-27.889 9.431-1.161 22.177-1.163 29.334 4.746 4.982 4.114 8.438 12.321 9.807 23.205-.192 1.59-.343 3.189-.445 4.799-9.813 1.122-21.693.709-28.446-4.861z"/></svg>