<svg id="Capa_1" enable-background="new 0 0 512 512" height="512" viewBox="0 0 512 512" width="512" xmlns="http://www.w3.org/2000/svg"><g><path d="m374.578 150.267c-6.733-4.768-14.079-9.016-21.969-12.742 27.319-33.787 13.287-84.21 12.801-91.988-12.997-2.115-38.909-7.181-63.721-.944-13.123-22.067-35.133-36.874-45.851-44.593-4.358 3.846-30.816 19.137-45.885 44.584-24.802-6.226-50.696-1.162-63.687.952-.487 7.787-14.548 58.311 12.89 92.098-7.802 3.699-15.067 7.911-21.734 12.632-33.926 24.026-51.858 60.588-51.858 105.734 0 46.476 18.639 109.319 47.483 160.101 35.129 61.841 78.794 95.899 122.953 95.899s87.824-34.058 122.952-95.899c28.845-50.781 47.483-113.625 47.483-160.101.001-45.146-17.931-81.708-51.857-105.733zm-35.703-78.195c.968 14.813.1 37.054-9.685 46.84-2.013 2.013-6.187 4.18-11.801 6.355-6.83-1.659-13.919-3.022-21.246-4.084 15.221-28.419 16.47-35.077 15.579-47.979 9.143-1.628 19.208-1.65 27.153-1.132zm-83.038-34.545c11.166 9.797 26.273 26.134 26.273 39.969 0 6.906-8.379 23.48-19.322 40.986-2.248-.049-4.508-.082-6.789-.082-2.392 0-4.762.035-7.118.089-10.94-17.499-19.318-34.072-19.318-40.993.001-13.839 15.115-30.179 26.274-39.969zm-73.352 81.385c-9.785-9.785-10.653-32.026-9.685-46.84 7.94-.519 18-.5 27.138 1.125-.905 11.812.316 19.98 15.618 48.03-7.292 1.066-14.348 2.429-21.147 4.088-5.675-2.191-9.896-4.375-11.924-6.403zm170.382 282.371c-29.138 51.297-64.444 80.717-96.867 80.717s-67.729-29.42-96.867-80.717c-26.06-45.878-43.568-104.263-43.568-145.283 0-97.116 98.211-107.601 140.436-107.601s140.435 10.485 140.435 107.601c0 41.021-17.509 99.405-43.569 145.283z"/><path d="m210.875 210.875h30v30h-30z"/><path d="m150.625 241h30v30h-30z"/><path d="m210.875 271.125h30v30h-30z"/><path d="m150.625 301.25h30v30h-30z"/><path d="m210.875 331.375h30v30h-30z"/><path d="m210.875 391.625h30v30h-30z"/><path d="m271.125 391.625h30v30h-30z"/><path d="m271.125 331.375h30v30h-30z"/><path d="m324.313 271.125h30v30h-30z"/></g></svg>