<svg id="Capa_1" enable-background="new 0 0 512 512" height="512" viewBox="0 0 512 512" width="512" xmlns="http://www.w3.org/2000/svg"><g><path d="m391.362 230.509-21.19-21.476-32.281 31.85h-28.551l-8.191-8.17 48.614-48.978-21.414-21.254-48.562 48.926-8.629-8.606v-28.585l31.681-31.344-21.219-21.447-25.434 25.163-25.693-25.965-21.445 21.221 31.94 32.277v28.721l-8.577 8.635-48.122-48.099-21.328 21.339 48.189 48.166-7.946 8h-28.984l-31.343-31.716-21.459 21.207 25.169 25.469-25.959 25.658 21.208 21.457 32.279-31.905h29.107l8.522 8.545-47.947 47.409 21.212 21.453 48.04-47.5 7.939 7.96v28.849l-31.805 31.34 21.176 21.49 25.558-25.185 25.568 25.943 21.488-21.178-31.816-32.282v-28.937l8.432-8.376 48.504 48.17 21.26-21.408-48.358-48.025 8.325-8.269h28.451l31.341 31.771 21.478-21.188-25.179-25.524zm-109.642 25.437-25.597 25.424-25.357-25.424 25.357-25.529z"/><path d="m256 0-256 256 256 256 256-256zm-213.333 256 213.333-213.334 213.334 213.334-213.334 213.334z"/></g></svg>