<svg id="Capa_1" enable-background="new 0 0 512 512" height="512" viewBox="0 0 512 512" width="512" xmlns="http://www.w3.org/2000/svg"><g><path d="m497 0c-54.564 0-98.983 9.826-132.024 29.204-24.68 14.474-42.046 33.795-50.98 56.502-9.119-2.414-18.689-3.706-28.556-3.706h-58.863c-9.873 0-19.448 1.294-28.571 3.71-8.933-22.709-26.3-42.031-50.982-56.506-33.041-19.378-77.46-29.204-132.024-29.204h-15v288.182l46.185-36.174c3.651 21.895 16.947 41.423 36.501 52.72 2.155 1.245 4.321 2.307 6.505 3.226-3.292 47.067 7.135 94.607 30.722 136.375l4.296 7.671h23.791v15c0 24.813 20.187 45 45 45h126c24.813 0 45-20.187 45-45v-15h23.756l4.306-7.624c23.602-41.796 34.034-89.346 30.74-136.419 2.187-.92 4.355-1.982 6.512-3.229 19.555-11.297 32.851-30.826 36.502-52.721l46.184 36.175v-288.182zm-386.399 219.814-9.289 27.513c-3.189 9.447-5.756 19.034-7.742 28.7-11.447-8.423-18.399-21.901-18.399-36.268v-48.562l-45.171 35.381v-196.292c41.815 1.621 76.809 10.11 101.848 24.795 18.892 11.08 31.991 25.515 38.432 42.18-33.105 19.403-55.387 55.357-55.387 96.423 0 8.904-1.445 17.695-4.292 26.13zm223.399 247.186c0 8.271-6.729 15-15 15h-126c-8.271 0-15-6.729-15-15v-15h156zm-68.66-105h-18.68c-7.306 0-13.979-3.027-18.792-8.524s-6.931-12.512-5.966-19.753l9.34-70.047c1.649-12.358 12.292-21.676 24.758-21.676s23.109 9.318 24.758 21.675l9.34 70.047c.965 7.241-1.153 14.257-5.966 19.753s-11.486 8.525-18.792 8.525zm104.701 60h-99.041v-30.298c13.736-1.421 26.516-7.97 35.703-18.464 10.439-11.924 15.226-27.771 13.131-43.48l-9.34-70.048c-3.627-27.199-27.055-47.71-54.494-47.71s-50.867 20.511-54.494 47.71l-9.34 70.047c-2.095 15.708 2.691 31.556 13.131 43.48 9.188 10.494 21.968 17.043 35.703 18.464v30.299h-99.042c-26.093-50.954-30.607-110.624-12.223-165.076l9.289-27.513c3.894-11.533 5.868-23.553 5.868-35.727 0-45.041 36.644-81.685 81.685-81.685h58.863c45.041 0 81.685 36.644 81.685 81.778 0 12.177 1.976 24.201 5.872 35.738l9.255 27.399c18.39 54.456 13.881 114.128-12.211 165.086zm111.959-195.422-45.17-35.38v48.562c0 14.37-6.955 27.851-18.407 36.274-1.988-9.672-4.557-19.265-7.749-28.717l-9.255-27.4c-2.85-8.438-4.294-17.231-4.294-26.231 0-41.071-22.289-77.03-55.401-96.431 6.442-16.662 19.54-31.094 38.429-42.172 25.038-14.687 60.032-23.176 101.847-24.797z"/><path d="m185 162.59h30v30h-30z"/><path d="m297 162.59h30v30h-30z"/></g></svg>