<?xml version="1.0" encoding="iso-8859-1"?>
<!-- Generator: Adobe Illustrator 19.0.0, SVG Export Plug-In . SVG Version: 6.00 Build 0)  -->
<svg xmlns="http://www.w3.org/2000/svg" xmlns:xlink="http://www.w3.org/1999/xlink" version="1.1" id="Capa_1" x="0px" y="0px" viewBox="0 0 512 512" style="enable-background:new 0 0 512 512;" xml:space="preserve">
<g>
	<g>
		<path d="M492.045,72.058C299.333,137,269.75,44,159.248,32.993C118.674,28.952,75.277,37.022,30,56.602V0H0v512h30V372.853    c176.333-80.186,196.667,35.814,341.648,36.16c33.187,0.079,81.812-8.369,130.307-25.342L512,380.155V65.073L492.045,72.058z     M482,358.767c-196.333,56.9-185.333-23.767-322.752-42.476C118.846,310.79,75.277,320.319,30,339.898V89.556    C195.333,11.667,243,120.25,347.125,125C387.829,126.857,417,126.5,482,106.969V358.767z"/>
	</g>
</g>
<g>
</g>
<g>
</g>
<g>
</g>
<g>
</g>
<g>
</g>
<g>
</g>
<g>
</g>
<g>
</g>
<g>
</g>
<g>
</g>
<g>
</g>
<g>
</g>
<g>
</g>
<g>
</g>
<g>
</g>
</svg>
