<svg id="Capa_1" enable-background="new 0 0 512 512" height="512" viewBox="0 0 512 512" width="512" xmlns="http://www.w3.org/2000/svg"><path d="m512 301.248h-8.169c-2.927-20.447-11.739-39.021-24.669-53.938l-77.959-129.922-.219-.354c-13.772-21.573-37.904-31.228-61.483-24.592-22.769 6.408-37.782 25.984-38.248 49.875l29.994.585c.245-12.583 8.622-19.398 16.38-21.582 8.364-2.355 20.086-.508 27.968 11.696l48.448 80.742c-7.87-1.882-16.077-2.886-24.515-2.886-35.608 0-67.143 17.756-86.228 44.876-15.782-13.449-35.781-20.882-57.302-20.882-21.52 0-41.518 7.434-57.3 20.882-19.085-27.12-50.62-44.877-86.228-44.877-8.438 0-16.645 1.003-24.515 2.886l48.448-80.742c7.883-12.205 19.601-14.051 27.968-11.696 7.758 2.183 16.135 8.999 16.38 21.582l29.994-.585c-.466-23.891-15.479-43.467-38.248-49.875-23.579-6.637-47.712 3.018-61.483 24.592l-78.176 130.277c-12.93 14.916-21.742 33.491-24.669 53.938h-8.169v30h8.169c7.304 51.024 51.291 90.375 104.303 90.375 58.104 0 105.375-47.271 105.375-105.375 0-11.3-1.795-22.187-5.103-32.399 11.069-12.141 26.461-18.98 43.255-18.981 16.795 0 32.188 6.839 43.257 18.98-3.308 10.213-5.103 21.1-5.103 32.4 0 58.104 47.271 105.375 105.375 105.375 53.011 0 96.999-39.351 104.303-90.375h8.169zm-399.528 90.375c-41.562 0-75.375-33.813-75.375-75.375s33.813-75.375 75.375-75.375 75.375 33.813 75.375 75.375-33.814 75.375-75.375 75.375zm287.056 0c-41.562 0-75.375-33.813-75.375-75.375s33.813-75.375 75.375-75.375 75.375 33.813 75.375 75.375-33.813 75.375-75.375 75.375z"/></svg>