<svg id="Capa_1" enable-background="new 0 0 512 512" height="512" viewBox="0 0 512 512" width="512" xmlns="http://www.w3.org/2000/svg"><g><path d="m490.242 315.219c3.857-7.834 6.033-16.638 6.033-25.944 0-13.058-4.275-25.132-11.489-34.912v-42.252c0-116.958-95.152-212.111-212.112-212.111h-35.899c-116.959 0-212.112 95.153-212.112 212.112v46.011c-5.656 9.046-8.938 19.721-8.938 31.152 0 9.306 2.176 18.11 6.033 25.944-10.388 24.311-27.214 64.639 9.196 110.152l4.503 5.629h83.967c-11.653 19.284-18.367 41.872-18.367 66v15h307.334v-15c0-24.128-6.714-46.716-18.366-66h86.518l4.504-5.63c36.409-45.512 19.583-85.84 9.195-110.151zm-23.967-25.944c0 15.958-13.358 31.975-35.118 28.272 4.18-15.324 6.425-31.439 6.425-48.07v-9.137c15.844.134 28.693 13.06 28.693 28.935zm-411.612-77.163c0-100.417 81.695-182.112 182.112-182.112h35.899c100.417 0 182.111 81.695 182.111 182.111v20.861c-6.07-2.472-14.744-3.972-25.317-2.098-28.975-28.593-67.446-33.582-108.549-36.785l30.302-75.755h-41.601l19.505-48.763-27.854-11.142-35.962 89.904h41.601l-17.328 43.321c-10.365-.917-20.803-2.064-31.118-3.784-57.427-9.571-87.138-37.782-87.898-38.517l-14.231-14.231-9.55 17.778c-.072.134-7.329 13.568-19.506 29.758-15.749 20.939-34.84 38.812-52.613 47.674-7.02 0-13.755 1.239-20.004 3.501v-21.721zm352.919 39.311v18.053c0 84.286-68.571 152.857-152.857 152.857s-152.857-68.571-152.857-152.852l.007-20.241c28.152-18.391 50.402-48.631 62.169-66.863 16.293 11.367 46.128 27.858 89.491 35.085 18.516 3.086 36.721 4.429 54.326 5.727 40.56 2.993 75.88 5.598 99.721 28.234zm-335.712 9.048-.003 9.005c0 16.783 2.285 33.041 6.539 48.491-19.239 2.282-32.681-12.734-32.681-28.692 0-15.015 11.494-27.392 26.145-28.804zm-21.665 140.529c-15.953-23.352-12.636-43.34-6.017-61.293 8.899 5.398 19.332 8.51 30.479 8.51 4.904 0 9.667-.612 14.226-1.746 9.567 20.523 22.828 38.986 38.932 54.529zm81.998 81c3.339-21.647 13.8-40.968 28.89-55.517 27.405 16.405 59.434 25.85 93.631 25.85s66.226-9.445 93.631-25.85c15.09 14.549 25.551 33.869 28.89 55.517zm329.593-81h-80.172c16.266-15.699 29.634-34.377 39.221-55.147 5.236 1.529 10.765 2.364 16.488 2.364 11.147 0 21.58-3.112 30.479-8.51 6.619 17.953 9.937 37.941-6.016 61.293z"/><path d="m154.991 258h30v30h-30z"/><path d="m324.324 258h30v30h-30z"/><path d="m254.657 294.333c-20.521 0-39.658 11.044-49.942 28.822l25.969 15.021c4.94-8.539 14.126-13.844 23.974-13.844 9.849 0 19.035 5.305 23.975 13.844l25.969-15.021c-10.286-17.778-29.423-28.822-49.945-28.822z"/></g></svg>