<svg id="Capa_1" enable-background="new 0 0 512.045 512.045" height="512" viewBox="0 0 512.045 512.045" width="512" xmlns="http://www.w3.org/2000/svg"><g><path d="m512.045 231.263-20.06-7.033c-10.489-3.677-20.748-6.893-30.782-9.669 9.838-22.659 23.277-63.989 13.771-105.379l-2.274-9.904-10.041-1.561c-1.158-.18-12.55-1.855-28.378-.996-2.552-14.597-8.921-36.618-24.846-56.665l-5.536-6.97-8.771 1.52c-2.082.361-45.062 8.099-72.949 34.306-17.794-16.083-37.95-29.202-60.103-38.972l-6.053-2.669-6.053 2.669c-22.152 9.77-42.308 22.888-60.102 38.971-27.889-26.206-70.868-33.944-72.95-34.305l-8.771-1.52-5.536 6.97c-15.926 20.048-22.295 42.068-24.847 56.665-15.829-.859-27.221.817-28.378.997l-10.041 1.561-2.274 9.904c-9.506 41.39 3.933 82.72 13.771 105.379-10.033 2.776-20.293 5.992-30.782 9.669l-20.06 7.032 13.35 16.542c38.568 47.795 32.439 104.226 32.379 104.743l-.744 5.988 3.611 4.835c1.942 2.602 48.447 63.712 124.423 63.712 4.007 0 7.952-.154 11.833-.459 8.946 17.001 30.257 48.779 67.823 57.382l3.349.767 3.349-.767c37.565-8.603 58.877-40.381 67.823-57.382 3.88.305 7.825.459 11.833.459 75.976 0 122.48-61.111 124.423-63.712l3.571-4.839-.698-5.938c-.066-.564-6.195-56.995 32.373-104.79zm-64.496-104.682c3.705 32.792-8.854 65.367-16.115 80.929-11.338-2.208-22.338-3.776-32.993-4.711-2.712-12.284-8.311-32.618-19.115-55.679 21.466-19.083 52.255-21.01 68.223-20.539zm-273.936 8.198c25.771 26.441 42.898 61.336 53.476 89.123-13.791-7.901-29.05-13.736-45.698-17.442-11.614-2.585-23.86-4.093-36.703-4.544 4.157-15.953 12.63-41.195 28.925-67.137zm176.147 20.082c9.125 18.368 14.532 35.241 17.6 47.054-12.843.451-25.091 1.959-36.705 4.545-16.672 3.712-31.949 9.559-45.756 17.476 10.566-27.799 27.712-62.731 53.602-89.234 4.012 6.417 7.769 13.134 11.259 20.159zm54.846-53.622c-13.358 3.484-27.307 9.348-39.832 18.982-6.579-10.614-13.834-20.571-21.724-29.819 14.514-13.58 36.157-20.901 48.235-24.141 8.013 12.731 11.661 25.849 13.321 34.978zm-148.581-41.06c25.096 12.056 46.691 28.781 64.609 49.976-32.199 31.304-52.582 72.95-64.612 105.125-12.017-32.14-32.367-73.729-64.504-105.021 16.073-19 37.086-36.879 64.507-50.08zm-135.229 6.025c13.566 3.633 34.352 11.393 48.176 24.226-7.881 9.24-15.128 19.188-21.701 29.791-12.525-9.634-26.474-15.498-39.833-18.982 1.663-9.143 5.319-22.286 13.358-35.035zm-56.3 60.379c15.985-.479 46.764 1.459 68.222 20.537-10.804 23.061-16.403 43.395-19.115 55.68-10.654.935-21.654 2.502-32.992 4.71-7.259-15.562-19.817-48.137-16.115-80.927zm191.526 327.299c-19.229-5.735-32.408-21.372-40.053-33.396 14.859-4.886 28.317-12.444 40.053-22.543 11.736 10.099 25.193 17.656 40.051 22.542-7.649 12.033-20.826 27.664-40.051 33.397zm180.007-104.43c-10.794 12.194-46.514 47.633-97.003 47.633-29.76 0-53.928-10.135-71.831-30.122l-11.173-12.474-11.173 12.474c-17.903 19.987-42.071 30.122-71.831 30.122-50.512 0-86.24-35.469-97.003-47.63.746-16.513-.302-60.193-26.996-103.141 88.689-26.87 156.036-16.35 195.499 30.808l11.504 13.747 11.504-13.747c39.464-47.158 106.812-57.677 195.499-30.808-26.694 42.947-27.742 86.625-26.996 103.138z"/><path d="m331.248 275.949c-43.478 8.648-51.458 48.789-51.776 50.493l-1.104 5.907 3.28 5.035c.84 1.29 18.839 28.241 53.276 28.241 4.362 0 8.993-.433 13.881-1.405 43.478-8.648 51.458-48.789 51.776-50.493l1.104-5.907-3.28-5.035c-.946-1.453-23.681-35.48-67.157-26.836zm37.751 38.373c-3.105 6.925-10.294 17.341-26.046 20.474-15.746 3.135-26.379-3.739-31.898-8.949 3.105-6.925 10.294-17.341 26.046-20.474 15.749-3.133 26.379 3.74 31.898 8.949z"/><path d="m180.798 275.949c-43.476-8.645-66.212 25.382-67.158 26.835l-3.28 5.035 1.104 5.907c.318 1.705 8.299 41.845 51.775 50.493 4.891.973 9.518 1.405 13.882 1.405 34.433 0 52.437-26.951 53.276-28.241l3.28-5.035-1.104-5.907c-.318-1.703-8.299-41.844-51.775-50.492zm-11.707 58.847c-15.751-3.133-22.94-13.55-26.046-20.475 5.521-5.209 16.146-12.083 31.9-8.948 15.751 3.133 22.94 13.55 26.045 20.475-5.519 5.209-16.145 12.079-31.899 8.948z"/></g></svg>