<svg id="Capa_1" enable-background="new 0 0 512 512" height="512" viewBox="0 0 512 512" width="512" xmlns="http://www.w3.org/2000/svg"><g><path d="m316.5 0v90h90v-90zm60 60h-30v-30h30z"/><path d="m316.5 361.5c0 33.36-27.141 60.5-60.5 60.5s-60.5-27.14-60.5-60.5v-15h-90v15c0 82.986 67.514 150.5 150.5 150.5s150.5-67.514 150.5-150.5v-241.5h-90zm30 0v-211.5h30v211.5c0 66.444-54.056 120.5-120.5 120.5-61.366 0-112.166-46.107-119.571-105.5h30.314c7.166 42.79 44.463 75.5 89.257 75.5 49.901 0 90.5-40.598 90.5-90.5z"/></g></svg>