<svg id="Capa_1" enable-background="new 0 0 512 512" height="512" viewBox="0 0 512 512" width="512" xmlns="http://www.w3.org/2000/svg"><g><path d="m367.01 140.235v-87.949l-52.286-52.286h-117.449l-52.285 52.286v87.949h-80.462v333.098l38.667 38.667h305.61l38.667-38.667v-333.098zm-59.319-104.841 29.318 29.318v75.523h-29.318zm-30 104.841h-43.383v-50.475h43.383zm0-109.955v29.48h-43.383v-29.48zm-102.701 34.432 29.318-29.318v104.842h-29.318zm242.482 396.195-21.093 21.093h-280.757l-21.093-21.093v-290.672h322.943z"/><path d="m256.937 339.711 61.609-62.859c8.327-8.492 12.848-19.718 12.73-31.609-.116-11.892-4.857-23.025-13.35-31.353-17.286-16.951-44.996-16.911-62.254-.085-17.575-16.465-45.271-15.954-62.22 1.331-17.187 17.529-16.909 45.773.62 62.961zm-42.063-103.572c5.608-5.719 14.82-5.807 20.549-.19l20.711 20.265 20.253-20.7c5.606-5.717 14.818-5.809 20.537-.202 2.77 2.716 4.316 6.348 4.354 10.227s-1.437 7.541-4.155 10.312l-40.612 41.438-41.435-40.612c-5.718-5.608-5.808-14.821-.202-20.538z"/><path d="m186.314 371.541-21.167 35.563-21.738-35.563h-18.496v66.74h20.499v-29.365l14.492 23.358h9.915l14.493-24.407.191 30.414h20.498l-.19-66.74z"/><path d="m274.982 374.497c-5.721-2.987-12.173-4.481-19.354-4.481-7.184 0-13.635 1.494-19.354 4.481-5.721 2.988-10.202 7.136-13.443 12.441-3.242 5.309-4.863 11.299-4.863 17.973s1.621 12.666 4.863 17.973c3.241 5.308 7.723 9.455 13.443 12.441 5.72 2.987 12.171 4.481 19.354 4.481 7.182 0 13.634-1.494 19.354-4.481 5.721-2.986 10.201-7.134 13.443-12.441 3.241-5.307 4.862-11.299 4.862-17.973s-1.621-12.664-4.862-17.973c-3.241-5.305-7.722-9.453-13.443-12.441zm-6.387 39.233c-1.335 2.512-3.132 4.45-5.388 5.815-2.257 1.368-4.783 2.05-7.579 2.05-2.798 0-5.324-.682-7.58-2.05-2.257-1.365-4.052-3.304-5.387-5.815s-2.002-5.449-2.002-8.819c0-3.368.667-6.308 2.002-8.819 1.335-2.51 3.13-4.448 5.387-5.815 2.256-1.366 4.782-2.05 7.58-2.05 2.796 0 5.322.684 7.579 2.05 2.256 1.367 4.053 3.306 5.388 5.815 1.334 2.512 2.002 5.451 2.002 8.819 0 3.37-.668 6.309-2.002 8.819z"/><path d="m324.751 371.541h-18.496v66.74h20.499v-29.365l14.492 23.358h9.915l14.492-24.407.192 30.414h20.498l-.191-66.74h-18.496l-21.167 35.563z"/></g></svg>