<svg id="Capa_1" enable-background="new 0 0 512 512" height="512" viewBox="0 0 512 512" width="512" xmlns="http://www.w3.org/2000/svg"><path d="m512 142.246-142.246-142.246-63.816 63.816 17.913 17.913-124.212 124.212c-20.753 20.753-32.817 47.903-34.349 76.952l-40.623 40.623-15.821 43.293 7.565 7.565-31.307 31.307-7.565-7.565-43.294 15.82-34.245 34.247 63.816 63.817 34.245-34.245 15.822-43.293-7.566-7.566 31.307-31.307 7.565 7.565 43.294-15.82 40.721-40.721c29.079-1.543 56.2-13.597 76.948-34.344l124.118-124.12 17.913 17.913zm-448.184 327.327-21.39-21.39 8.344-8.344 19.089-6.976 9.277 9.277-6.976 19.088zm305.938-427.147 99.819 99.819-21.39 21.39-99.819-99.819zm-216.885 325.981-9.277-9.277 6.975-19.089 29.645-29.645 21.39 21.39-29.645 29.645zm75.959-51.822-33.494-33.494c1.462-21.138 10.396-40.814 25.518-55.936l19.807-19.807 63.993 63.993-19.714 19.714c-15.168 15.168-34.906 24.107-56.11 25.53zm97.038-66.458-63.993-63.993 83.191-83.191 63.993 63.993z"/></svg>