<svg id="Capa_1" enable-background="new 0 0 512 512" height="512" viewBox="0 0 512 512" width="512" xmlns="http://www.w3.org/2000/svg"><g id="XMLID_1012_"><path id="XMLID_1013_" d="m256 257.66c20.575 0 37.314-16.739 37.314-37.314h-30c0 4.033-3.281 7.314-7.314 7.314-4.034 0-7.315-3.281-7.315-7.314h-30c0 20.575 16.739 37.314 37.315 37.314z"/><path id="XMLID_1042_" d="m443.027 355.985c-24.061-22.56-55.283-34.983-87.915-34.983h-51.242v-8.91c36.609-16.311 60.508-45.826 65.384-80.421 19.138-4.901 33.325-22.294 33.325-42.938 0-1.556-.09-3.091-.247-4.606 36.512-9.481 53.668-22.358 53.668-40.023 0-11.49-7.641-21.222-22.711-28.925-10.475-5.354-25.045-10.071-43.305-14.019-6.343-1.371-13.054-2.632-20.073-3.781-6.572-54.777-53.322-97.379-109.842-97.379h-7.607c-56.489 0-103.22 42.556-109.832 97.291-7.216 1.173-14.108 2.464-20.614 3.871-18.26 3.947-32.83 8.664-43.305 14.019-15.07 7.702-22.711 17.433-22.711 28.923 0 17.664 17.156 30.541 53.668 40.022-.157 1.515-.247 3.05-.247 4.606 0 20.594 14.122 37.953 33.19 42.903 4.428 36.441 27.411 64.63 66.051 80.879v8.487h-51.774c-68.827 0-124.821 55.994-124.821 124.821v66.178h447.867v-76.096c-.001-28.798-13.453-57.927-36.907-79.919zm-19.499-211.899c-4.271 2.82-13.963 7.616-34.799 12.495-5.036-4.775-11.188-8.386-18.021-10.388v-18.233c1.276.227 2.564.449 3.812.684 28.92 5.434 43.189 11.675 49.008 15.442zm-82.819.327h-29.137c-16.847 0-31.305-10.393-37.319-25.101 23.354.508 45.917 1.98 66.456 4.327zm-168.887-20.831c20.556-2.33 43.116-3.79 66.461-4.282-6.011 14.714-20.472 25.114-37.324 25.114h-29.137zm80.64-93.582h7.607c38.489 0 70.747 27.112 78.727 63.236-25.523-2.7-53.679-4.129-82.797-4.129-28.91 0-56.874 1.408-82.252 4.071 8.003-36.095 40.246-63.178 78.715-63.178zm-114.984 98.645c1.423-.267 2.886-.523 4.344-.779v18.175c-7.045 1.969-13.386 5.641-18.552 10.54-20.836-4.879-30.527-9.674-34.798-12.495 5.818-3.767 20.088-10.008 49.006-15.441zm34.344 89.723v-15.317h-18.083c-7.896-.001-14.319-6.424-14.319-14.318 0-7.896 6.423-14.319 14.318-14.319h47.221c22.43 0 42.424-10.57 55.306-26.977 12.882 16.407 32.877 26.977 55.307 26.977h46.688c7.896 0 14.318 6.424 14.318 14.319s-6.423 14.318-14.318 14.318h-18.15l.067 15.067c.139 30.932-20.937 56.997-56.378 69.725l-9.93 3.566v45.246c0 9.707-7.897 17.604-17.604 17.604s-17.604-7.897-17.604-17.604v-45.167l-10.117-3.482c-25.876-8.909-56.722-28.223-56.722-69.638zm39.053 132.634c6.101 19.259 24.139 33.258 45.39 33.258s39.29-13.999 45.391-33.258h53.456c5.403 0 10.75.473 16.011 1.348v59.234h-230.246v-59.223c5.207-.889 10.555-1.359 16.011-1.359zm-148.808 130.998v-36.177c0-35.598 19.722-66.672 48.81-82.884v119.061zm78.81 0v-40.416h230.246v40.416zm309.056 0h-48.811v-119.446c7.673 4.095 14.873 9.211 21.385 15.317 17.43 16.343 27.426 37.495 27.426 58.034z"/></g></svg>