<svg id="Capa_1" enable-background="new 0 0 510 510" height="512" viewBox="0 0 510 510" width="512" xmlns="http://www.w3.org/2000/svg"><g id="XMLID_1640_"><path id="XMLID_1643_" d="m116.36 375 63.64 63.64 63.64-63.64-63.64-63.64zm63.64 21.214-21.214-21.214 21.214-21.214 21.214 21.214z"/><path id="XMLID_1646_" d="m464.246 30.754c-19.832-19.832-46.199-30.754-74.246-30.754s-54.414 10.922-74.246 30.754-30.754 46.199-30.754 74.246c0 15.826 3.478 31.116 10.072 45h-40.072v-150h-90v30h-30v-30h-90v150h-30v360h330v-310.072c13.884 6.593 29.174 10.072 45 10.072 28.047 0 54.414-10.922 74.246-30.754s30.754-46.199 30.754-74.246-10.922-54.414-30.754-74.246zm-329.246 89.246h30v30h-30zm60-30h30v60h-30zm30-60v30h-30v-30zm-60 30v30h-30v-30zm-60-30v30h-30v-30zm-30 60h30v60h-30zm240 90v60h-270v-60zm-270 300v-210h270v210zm398.033-321.967c-29.242 29.242-76.824 29.242-106.066 0s-29.242-76.824 0-106.066c14.621-14.621 33.827-21.932 53.033-21.932s38.412 7.31 53.033 21.932c29.242 29.242 29.242 76.824 0 106.066z"/><path id="XMLID_1655_" d="m411.213 62.574-21.213 21.213-21.213-21.213-21.213 21.213 21.213 21.213-21.213 21.213 21.213 21.213 21.213-21.213 21.213 21.213 21.213-21.213-21.213-21.213 21.213-21.213z"/></g></svg>