<svg id="Capa_1" enable-background="new 0 0 512 512" height="512" viewBox="0 0 512 512" width="512" xmlns="http://www.w3.org/2000/svg"><g><path d="m452 51.377v-37.606h-30v37.605h-30v-37.605h-30v37.605h-212v-37.605h-30v37.605h-30v-37.605h-30v37.605h-60v446.852h512v-446.851zm-392 30v32.799h30v-32.799h30v32.799h30v-32.799h212v32.799h30v-32.799h30v32.799h30v-32.799h30v81.815h-452v-81.815zm30 111.815h332v212.129h-332zm-60 275.037v-275.037h30v242.129h392v-242.129h30v275.036h-452z"/><path d="m150.973 225.146h30.011v30h-30.011z"/><path d="m210.995 225.146h30.011v30h-30.011z"/><path d="m271.017 225.146h30.011v30h-30.011z"/><path d="m150.973 285.234h30.011v30h-30.011z"/><path d="m210.995 285.234h30.011v30h-30.011z"/><path d="m271.017 285.234h30.011v30h-30.011z"/><path d="m150.973 345.321h30.011v30h-30.011z"/><path d="m210.995 345.321h30.011v30h-30.011z"/><path d="m331.017 225.146h30.011v30h-30.011z"/><path d="m331.017 285.234h30.011v30h-30.011z"/></g></svg>