<svg id="Capa_1" enable-background="new 0 0 512.054 512.054" height="512" viewBox="0 0 512.054 512.054" width="512" xmlns="http://www.w3.org/2000/svg"><g><path d="m220.354 83.006c-7.431-7.328-17.266-11.116-28.356-10.966-15.253.214-24.004 7.041-31.268 13.942h-4.395c-7.263-6.901-16.015-13.729-31.269-13.942-11.132-.148-20.924 3.638-28.355 10.966-38.078 37.38 7.416 154.726 10.436 162.023h41.703l9.706-30.748 9.633 30.748h41.728c2.957-7.087 48.537-124.7 10.437-162.023zm-30.734 130.079-5.741-18.325c-3.484-11.121-13.655-18.593-25.309-18.593-11.627 0-21.792 7.45-25.292 18.538l-5.816 18.426c-5.785-17.848-15.828-53.54-15.828-86.185.188-11.685 2.702-25.411 12.771-24.91 5.144.036 6.673 1.19 13.798 8.147 0 0 5.963 5.799 5.963 5.799h28.734l5.963-5.799c7.004-6.853 8.643-8.077 13.552-8.146 10.277-.736 12.831 13.166 13.017 24.908.001 32.621-10.026 68.282-15.812 86.14z"/><path d="m230.3 299.888h69.588v-69.588c53.444-104.514-23.707-230.87-141.356-230.27-85.193-1.756-160.266 73.302-158.501 158.504-1.352 77.147 60.048 147.631 136.577 156.981 31.861 4.436 65.062-1.096 93.692-15.627zm-89.566-14.087c-62.021-7.587-111.807-64.732-110.704-127.269.117-114.07 138.64-171.437 219.369-90.864 40.96 39.643 49.237 106.307 20.489 155.161v47.059h-47.059c-24.617 14.076-53.834 19.874-82.095 15.913z"/><path d="m476.868 187.661-29.902-29.902-95.706 95.705 31.89 31.89c5.089 5.089 7.892 11.855 7.892 19.052s-2.803 13.963-7.892 19.052l-60.104 60.104c-10.506 10.504-27.598 10.504-38.104 0l-31.89-31.89-95.294 95.293 29.903 29.903c23.234 23.234 53.944 35.186 84.841 35.186 23.559 0 47.228-6.95 67.768-21.146 28.041-19.381 55.577-42.525 81.844-68.792 26.265-26.266 49.41-53.802 68.791-81.844 32.817-47.48 26.913-111.661-14.037-152.611zm-10.64 135.554c-36.21 52.676-90.339 106.802-143.013 143.013-35.555 24.572-83.641 20.127-114.339-10.572l-8.69-8.69 52.868-52.867 10.677 10.677c22.202 22.203 58.327 22.203 80.529 0l60.104-60.104c22.089-21.194 22.092-59.336-.001-80.529.001 0-10.676-10.677-10.676-10.677l53.279-53.279 8.689 8.689c30.699 30.697 35.146 78.784 10.573 114.339z"/></g></svg>