<svg id="Capa_1" enable-background="new 0 0 512 512" height="512" viewBox="0 0 512 512" width="512" xmlns="http://www.w3.org/2000/svg"><g><path d="m0 0v512h512v-512zm482 482h-452v-30h452zm0-60h-452v-272h452zm-452-302v-90h452v90z"/><path d="m59.735 60h30v30h-30z"/><path d="m119.735 60h30v30h-30z"/><path d="m179.735 60h30v30h-30z"/><path d="m332 60h120v30h-120z"/><path d="m195.007 325.78-21.739 21.739 21.213 21.213 21.739-21.739c7.435 4.866 15.802 8.418 24.779 10.304v30.703h30v-30.703c8.977-1.887 17.344-5.438 24.779-10.304l21.739 21.739 21.213-21.213-21.739-21.739c4.866-7.435 8.418-15.802 10.304-24.78h30.705v-30h-30.703c-1.886-8.977-5.438-17.344-10.304-24.78l21.739-21.739-21.213-21.213-21.739 21.739c-7.435-4.866-15.802-8.418-24.779-10.304v-30.703h-30v30.703c-8.977 1.887-17.344 5.438-24.779 10.304l-21.739-21.739-21.213 21.213 21.739 21.739c-4.866 7.435-8.418 15.802-10.304 24.78h-30.705v30h30.703c1.887 8.977 5.438 17.344 10.304 24.78zm60.993-82.637c23.632 0 42.857 19.226 42.857 42.857s-19.225 42.857-42.857 42.857-42.857-19.226-42.857-42.857 19.225-42.857 42.857-42.857z"/></g></svg>