<svg id="Capa_1" enable-background="new 0 0 512 512" height="512" viewBox="0 0 512 512" width="512" xmlns="http://www.w3.org/2000/svg"><g><path d="m333.511 0c-48.663 0-91.41 25.791-115.308 64.416-11.19-2.882-23.005-4.411-35.318-4.35-117.745.717-177.681 132.501-113.564 220.894l47.019 65.715-73.351 102.533 56.862 13.525 31.288 49.267 51.747-72.321 51.745 72.321 31.289-49.267 56.861-13.525-73.351-102.531 47.019-65.717c3.046-4.289 5.796-8.644 8.284-13.045 9.278 2.015 18.904 3.086 28.777 3.086 74.715 0 135.5-60.785 135.5-135.5s-60.784-135.501-135.499-135.501zm-119.166 199.952c.024 6.175-1.765 12.411-5.808 17.862l-25.652 35.856-25.652-35.856c-16.331-23.829 3.453-50.13 25.652-49.891 8.553-.236 15.962 3.144 21.443 8.487 2.606 8.211 5.969 16.088 10.017 23.542zm-81.724 258.421-13.975-22.007-25.282-6.014 41.419-57.897 29.657 41.448zm139.785-28.02-25.279 6.013-13.977 22.008-139.43-194.871c-53.024-74.324 2.23-173.995 89.165-173.437 7.729.03 15.136.795 22.2 2.197-4.586 13.584-7.074 28.125-7.074 43.237 0 1.446.031 2.884.076 4.319-4.834-1.235-9.92-1.902-15.202-1.896-51.77.288-78.135 58.5-50.052 97.344zm-.355-166.85-41.064 57.395-29.658-41.449 31.607-44.18c1.249-1.788 2.386-3.597 3.421-5.421 11.279 11.611 24.612 21.213 39.41 28.213-1.175 1.836-2.408 3.652-3.716 5.442zm61.46-22.503c-58.173 0-105.5-47.327-105.5-105.5s47.327-105.5 105.5-105.5 105.5 47.327 105.5 105.5-47.327 105.5-105.5 105.5z"/><path d="m318.511 60.25h30v30h-30z"/><path d="m318.511 111.375h30v99.375h-30z"/></g></svg>