<svg id="Capa_1" enable-background="new 0 0 512 512" height="512" viewBox="0 0 512 512" width="512" xmlns="http://www.w3.org/2000/svg"><g><path d="m382.421 190.064 17.31-17.31 17.31 17.31 21.213-21.213-17.31-17.31 17.31-17.31-21.213-21.212-17.31 17.309-17.31-17.309-21.213 21.212 17.31 17.31-17.31 17.31z"/><path d="m512 270.981h-44.489l-25.35-23.607-5.231-14.78c30.657-14.126 51.991-45.143 51.991-81.053 0-49.18-40.01-89.19-89.189-89.19s-89.19 40.011-89.19 89.19c0 1.633.047 3.254.134 4.865l-13.267 3.061-41.448-24.433-32.631 19.235-60.92-124.681-87.864 45.362 60.715 111.48-.467.519-46.597 8.337-18.435 52.086-25.35 23.608h-44.412v90.25h33.414l30.12 120.479 384.938.702 30.13-121.18h33.398zm-112.269-178.63c32.637 0 59.189 26.553 59.189 59.19s-26.553 59.19-59.189 59.19c-32.638 0-59.19-26.553-59.19-59.19s26.553-59.19 59.19-59.19zm-284.169-4.814 33.358-17.222 40.76 83.423-20.728-4.782-12.418 13.812zm-19.971 176.778 15.065-42.57 39.562-7.079 29.221-32.502 39.995 9.228 36.526-21.533 36.526 21.532 24.843-5.732c13.423 32.299 45.301 55.072 82.402 55.072 2.739 0 5.447-.131 8.123-.374l8.479 23.959 7.157 6.665h-335.057zm329.437 188.054-338.062-.616-22.63-90.521h383.352zm56.972-121.138h-452v-30.25h452z"/><path d="m241 210.731h30v30h-30z"/><path d="m307.25 220.731h30v30h-30z"/><path d="m174.75 220.731h30v30h-30z"/></g></svg>