<svg id="Layer_1" enable-background="new 0 0 510 510" height="512" viewBox="0 0 510 510" width="512" xmlns="http://www.w3.org/2000/svg"><g><path d="m30 0v510h450v-510zm120 208.5c0-24.549 8.655-48.455 24.371-67.315l42.654-51.185h22.975v390h-90v-178.5c0-17.369 14.131-31.5 31.5-31.5v-30c-17.369 0-31.5-14.131-31.5-31.5zm120 271.5v-390h22.975l42.654 51.185c22.384 25.33 44.407 94.824-7.129 98.815v30c17.369 0 31.5 14.131 31.5 31.5v178.5zm180 0h-60v-178.5c0-18.553-8.259-35.214-21.293-46.5 38.846-33.712 18.461-98.439-10.031-133.021l-51.651-61.979h-104.05l-51.65 61.98c-28.483 34.553-48.88 99.325-10.031 133.02-13.035 11.286-21.294 27.947-21.294 46.5v178.5h-60v-450h390z"/><path d="m300 360h30v45h-30z"/><path d="m180 360h30v45h-30z"/></g></svg>