<svg id="Capa_1" enable-background="new 0 0 511.957 511.957" height="512" viewBox="0 0 511.957 511.957" width="512" xmlns="http://www.w3.org/2000/svg"><g><path d="m510.537 107.486-21.213-21.213-10.606 10.607c-3.722 3.722-7.671 6.837-11.75 9.464l-61.354-61.355c2.627-4.078 5.742-8.028 9.464-11.75l10.606-10.607-21.213-21.212-10.606 10.607c-31.467 31.467-32.94 72.052-29.844 97.434-15.548-1.896-36.797-2.076-58.166 5.301l-50.261-50.364c7.832-16.348 5.353-37.092-8.795-51.24-17.545-17.546-46.094-17.544-63.639 0-17.586 17.584-17.59 46.052 0 63.64 13.815 13.815 34.442 16.763 51.196 8.788l43.708 43.798c-3.926 2.919-7.766 6.21-11.479 9.922-28.074 28.075-29.642 73.425-27.788 99.491-26.065-1.854-71.416-.287-99.491 27.788-31.467 31.467-32.94 72.053-29.844 97.435-25.382-3.096-65.967-1.623-97.434 29.844l-10.608 10.607 21.213 21.214 10.607-10.607c3.722-3.722 7.671-6.837 11.749-9.464l61.354 61.355c-2.627 4.078-5.742 8.027-9.464 11.749l-10.606 10.606 21.213 21.213 10.606-10.606c31.466-31.466 32.94-72.05 29.845-97.432 19.597 2.39 39.715 1.061 58.161-5.305l50.283 50.388c-7.972 16.725-5.052 37.388 8.778 51.218 17.545 17.544 46.093 17.544 63.639 0 17.546-17.545 17.546-46.095 0-63.641-13.824-13.823-34.477-16.747-51.198-8.786l-43.709-43.801c3.927-2.92 7.769-6.207 11.482-9.92 28.074-28.074 29.642-73.423 27.788-99.489 35.006 2.487 74.762-3.061 99.491-27.79 31.466-31.466 32.94-72.05 29.845-97.433 36.093 4.402 71.408-3.821 97.435-29.847zm-306.165-51.901c-5.863-5.863-5.863-15.35 0-21.213 5.848-5.847 15.364-5.849 21.213 0 5.863 5.863 5.863 15.35 0 21.213-5.85 5.849-15.365 5.848-21.213 0zm103.213 400.787c5.862 5.863 5.863 15.35 0 21.213-5.848 5.849-15.363 5.848-21.213 0-5.862-5.863-5.863-15.35 0-21.213 5.847-5.846 15.363-5.85 21.213 0zm63.338-315.341c1.815 8.717 3.922 23.909 1.4 40.337l-41.66-41.746c16.408-2.507 31.571-.401 40.26 1.409zm-128.233 128.236c.944 8.995 1.728 22.772.062 37.125l-37.186-37.187c14.355-1.666 28.134-.882 37.124.062zm-166.692 124.93c16.448-2.532 31.658-.42 40.366 1.393 1.816 8.722 3.925 23.928 1.395 40.368zm65.036-23.271c-1.815-8.717-3.922-23.909-1.4-40.337l41.659 41.746c-16.408 2.506-31.57.401-40.259-1.409zm10.016-71.37c2.628-4.081 5.744-8.033 9.469-11.758 3.603-3.603 7.737-6.565 12.204-9.01l60.446 60.446c-2.445 4.466-5.406 8.6-9.009 12.203-3.749 3.749-7.728 6.881-11.837 9.519zm118.218-56.866c-.944-8.995-1.728-22.772-.062-37.125l37.187 37.187c-14.356 1.667-28.134.882-37.125-.062zm69.967-9.521-60.446-60.446c2.445-4.466 5.406-8.6 9.009-12.203 3.749-3.749 7.728-6.881 11.837-9.52l61.274 61.4c-2.628 4.082-5.745 8.034-9.47 11.759-3.603 3.603-7.738 6.565-12.204 9.01zm56.358-116.801c-1.816-8.722-3.925-23.928-1.395-40.368l41.761 41.761c-16.449 2.532-31.658.42-40.366-1.393z"/></g></svg>