<svg id="Layer_1" enable-background="new 0 0 510.042 510.042" height="512" viewBox="0 0 510.042 510.042" width="512" xmlns="http://www.w3.org/2000/svg"><g><path d="m127.721 210.039h30v30h-30z"/><path d="m75 150.039h30v30h-30z"/><path d="m345 420.039h30v30h-30z"/><path d="m60 285.039h30v30h-30z"/><path d="m210 270.039h30v30h-30z"/><path d="m165 330.039h30v30h-30z"/><path d="m75 405.039h30v30h-30z"/><path d="m180 420.039h30v30h-30z"/><path d="m270 345.039h30v30h-30z"/><path d="m496.76 433.22-33.14-33.14c31.682-51.975 24.228-118.682-17.201-162.665 37.014-108.446-75.943-212.862-181.405-166.469-41.672-42.949-105.539-52.514-157.176-26.648l-31.019-31.019c-28.34-28.341-76.819-8.315-76.819 31.821v464.939h464.94c40.08 0 60.2-48.439 31.82-76.819zm-247.066-334.394 7.833 9.626c91.812-59.458 203.118 35.133 153.523 136.799l7.821 7.12c35.283 32.122 44.302 83.957 22.739 125.7l-311.051-311.052c41.175-15.822 89.552-4.554 119.135 31.807zm215.246 381.213h-434.94v-434.939c0-13.361 16.156-20.058 25.606-10.608l419.94 419.94c9.448 9.45 2.759 25.607-10.606 25.607z"/></g></svg>