<?xml version="1.0" encoding="iso-8859-1"?>
<!-- Generator: Adobe Illustrator 19.0.0, SVG Export Plug-In . SVG Version: 6.00 Build 0)  -->
<svg xmlns="http://www.w3.org/2000/svg" xmlns:xlink="http://www.w3.org/1999/xlink" version="1.1" id="Layer_1" x="0px" y="0px" viewBox="0 0 512 512" style="enable-background:new 0 0 512 512;" xml:space="preserve">
<g>
	<g>
		<path d="M366.385,271.046c29.388-28.716,47.665-68.758,47.665-112.996C414.05,70.9,343.149,0,256,0S97.95,70.9,97.95,158.05    c0,44.237,18.276,84.28,47.665,112.996C87.161,272.711,40.12,320.777,40.12,379.627V512H471.88V379.626    C471.88,320.776,424.84,272.71,366.385,271.046z M256,30.001c45.63,0,85.756,23.996,108.439,60.027    c-17.782,12.188-38.916,18.816-60.685,18.816c-28.7,0-55.679-11.181-75.965-31.483l-9.876-9.884l-10.559,9.151    c-14.798,12.825-33.747,19.888-53.356,19.888c-3.333,0-6.644-0.204-9.922-0.602C165.966,56.634,207.928,30.001,256,30.001z     M127.951,158.05c0-11.639,1.57-22.915,4.492-33.639c7.068,1.387,14.273,2.106,21.551,2.106c22.321,0,44.02-6.691,62.344-19.05    c24.555,20.322,55.133,31.378,87.414,31.378c26.244,0,51.783-7.514,73.682-21.432c4.285,12.774,6.612,26.437,6.612,40.636    c0,66.169-50.449,120.776-114.904,127.379c-0.054,0.005-0.107,0.011-0.161,0.016c-0.955,0.097-1.914,0.181-2.876,0.256    c-0.295,0.023-0.592,0.043-0.887,0.063c-0.78,0.056-1.562,0.107-2.346,0.149c-0.557,0.029-1.115,0.049-1.673,0.071    c-0.568,0.022-1.136,0.049-1.706,0.065c-1.163,0.03-2.327,0.049-3.496,0.049c-1.169,0-2.333-0.019-3.496-0.049    c-0.57-0.016-1.138-0.042-1.706-0.065c-0.558-0.022-1.117-0.042-1.673-0.071c-0.784-0.042-1.565-0.094-2.346-0.149    c-0.296-0.021-0.592-0.041-0.887-0.063c-0.961-0.075-1.92-0.159-2.876-0.256c-0.054-0.005-0.107-0.011-0.161-0.016    C178.401,278.826,127.951,224.219,127.951,158.05z M334.604,384.037l-47.697,33.166l39.251-104.818l19.218,18.102l-25.78,32.633    L334.604,384.037z M166.624,330.487l19.218-18.102l39.251,104.818l-47.697-33.165l15.009-20.917L166.624,330.487z M241,481.998    H70.122V379.626c0-43.356,35.273-78.628,78.628-78.628h5.425l-28.14,26.505l28.822,36.483l-19.587,27.298L241,464.805V481.998z     M217.507,311.394c8.577,2.149,17.341,3.561,26.257,4.235c0.182,0.015,0.366,0.025,0.549,0.038    c1.135,0.082,2.272,0.159,3.412,0.217c0.536,0.028,1.075,0.043,1.612,0.065c0.821,0.034,1.641,0.073,2.464,0.094    c1.395,0.037,2.794,0.057,4.198,0.057s2.803-0.02,4.198-0.057c0.823-0.021,1.643-0.06,2.464-0.094    c0.537-0.022,1.076-0.038,1.612-0.065c1.14-0.058,2.276-0.135,3.412-0.217c0.183-0.014,0.366-0.023,0.549-0.038    c8.916-0.674,17.68-2.085,26.257-4.235L256,414.189L217.507,311.394z M441.879,481.999L441.879,481.999H271.001v-17.193    l105.731-73.52l-19.587-27.298l28.822-36.483L357.827,301h5.425c43.355,0,78.628,35.273,78.628,78.628V481.999z"/>
	</g>
</g>
<g>
	<g>
		<rect x="89.154" y="429.959" width="77.203" height="30.001"/>
	</g>
</g>
<g>
</g>
<g>
</g>
<g>
</g>
<g>
</g>
<g>
</g>
<g>
</g>
<g>
</g>
<g>
</g>
<g>
</g>
<g>
</g>
<g>
</g>
<g>
</g>
<g>
</g>
<g>
</g>
<g>
</g>
</svg>
