<svg id="Capa_1" enable-background="new 0 0 512 512" height="512" viewBox="0 0 512 512" width="512" xmlns="http://www.w3.org/2000/svg"><g id="XMLID_927_"><path id="XMLID_950_" d="m155.823 165.326c-30.728 0-55.728 24.999-55.728 55.727 0 30.729 25 55.728 55.728 55.728s55.728-24.999 55.728-55.728c-.001-30.728-25-55.727-55.728-55.727zm0 81.426c-14.17 0-25.698-11.528-25.698-25.698 0-14.169 11.528-25.697 25.698-25.697s25.698 11.528 25.698 25.697-11.529 25.698-25.698 25.698z"/><path id="XMLID_964_" d="m282.228 130.488-14.188-24.574-33.394 19.28c-10.552-8.679-22.468-15.566-35.219-20.357v-38.537h-87.21v38.536c-12.751 4.791-24.668 11.679-35.219 20.357l-33.394-19.28-43.604 75.526 33.38 19.272c-1.108 6.707-1.667 13.512-1.667 20.342 0 6.829.559 13.636 1.667 20.342l-33.38 19.272 43.604 75.526 33.394-19.28c10.552 8.679 22.468 15.566 35.219 20.357v38.536h87.21v-38.536c12.751-4.791 24.668-11.679 35.219-20.357l33.394 19.28 43.605-75.526-33.38-19.272c1.108-6.706 1.667-13.512 1.667-20.342s-.559-13.635-1.667-20.341l33.38-19.273-12.079-20.921h33.658v285.182h178.776v-315.212zm-35.433 66.503c2.062 7.819 3.108 15.915 3.108 24.062 0 8.148-1.045 16.244-3.108 24.063l-2.926 11.095 26.756 15.447-13.575 23.514-26.783-15.464-8.146 8.091c-11.578 11.501-25.975 19.822-41.633 24.063l-11.089 3.004v30.911h-27.15v-30.911l-11.089-3.004c-15.658-4.242-30.054-12.562-41.633-24.063l-8.146-8.091-26.783 15.464-13.576-23.514 26.756-15.447-2.926-11.095c-2.062-7.82-3.108-15.916-3.108-24.063 0-8.146 1.046-16.242 3.108-24.062l2.926-11.095-26.756-15.448 13.575-23.513 26.784 15.464 8.146-8.091c11.578-11.501 25.975-19.822 41.633-24.063l11.089-3.004v-30.911h27.15v30.911l11.089 3.004c15.658 4.242 30.054 12.562 41.633 24.063l8.146 8.091 26.783-15.464 13.575 23.513-26.756 15.448zm235.175 218.679h-118.716v-255.152h118.716z"/><path id="XMLID_966_" d="m400.231 208.794h44.763v30.03h-44.763z"/><path id="XMLID_968_" d="m400.231 273.079h44.763v30.03h-44.763z"/><path id="XMLID_977_" d="m400.231 337.364h44.763v30.03h-44.763z"/></g></svg>