<svg id="Capa_1" enable-background="new 0 0 512 512" height="512" viewBox="0 0 512 512" width="512" xmlns="http://www.w3.org/2000/svg"><g><path d="m479.375 225.875 32.625-195.75h-421.75v-30.125h-90.25v512h90.25v-90.384h421.75zm-419.125 256.125h-30.25v-452h30.25zm416.336-90.384h-386.336v-331.491h386.336l-27.625 165.75z"/><path d="m190.617 124.888-21.213 21.213 34.645 34.645h-83.549v90.249h173.798l55.856 55.856 21.213-21.213-34.643-34.643h83.547v-90.249h-173.796zm-40.117 85.858h30.25v30.249h-30.25zm60.25 30.249v-30.249h23.299l30.249 30.249zm179.521 0h-30.25v-30.249h30.25zm-60.25-30.249v30.249h-23.297l-30.249-30.249z"/></g></svg>