<svg id="Capa_1" enable-background="new 0 0 512 512" height="512" viewBox="0 0 512 512" width="512" xmlns="http://www.w3.org/2000/svg"><g><path d="m427.47 40.87c-42.008-48.99-122.14-48.982-164.14 0h-153.33v-31h-59.777c-27.693 0-50.223 22.53-50.223 50.223v397.777h.22c0 27.57 22.43 50 50 50h461.78v-467zm-114.66 0c34.743-16.075 79.668-3.526 99.35 30 6.17 10.47 9.84 22.96 9.84 37.22 1.873 29.804-48.327 91.771-76.6 118.83-28.346-27.159-78.441-88.968-76.599-118.831-.001-14.259 3.669-26.749 9.839-37.219 8.02-13.61 20.25-23.79 34.17-30zm-282.81 19.223c0-11.151 9.072-20.224 20.223-20.224h29.777v368h-29.78c-7.19 0-14.04 1.53-20.22 4.28zm.22 397.777c0-11.03 8.97-20 20-20h59.78v-21-346h135.46c-4.39 11.59-6.66 24.13-6.66 37.22-2.611 42.045 56.795 113.69 91.6 146.21v102.57c0 28.121-22.878 51-51 51h-46.4c-40.931 0-74.847 30.524-80.233 70h-102.547c-11.03 0-20-8.97-20-20zm451.78 20h-298.792c5.045-22.85 25.448-40 49.792-40h46.4c44.664 0 81-36.337 81-81v-102.57c34.882-32.607 94.207-104.185 91.599-146.211.001-13.089-2.269-25.629-6.659-37.219h36.66z"/><path d="m345.4 156c46.933-.521 62.553-62.063 22.449-85.13-13.059-7.825-31.84-7.827-44.899 0-40.104 23.066-24.478 84.617 22.45 85.13zm0-30c-8.57 0-15.53-6.96-15.53-15.53.844-20.603 30.213-20.598 31.06 0 0 8.57-6.97 15.53-15.53 15.53z"/><path d="m422 417.87h30v30h-30z"/><path d="m422 357.87h30v30h-30z"/><path d="m422 297.87h30v30h-30z"/></g></svg>