<svg id="Capa_1" enable-background="new 0 0 511 511" height="512" viewBox="0 0 511 511" width="512" xmlns="http://www.w3.org/2000/svg"><path id="XMLID_998_" d="m435.25.5h-359.5c-41.769 0-75.75 33.981-75.75 75.75v404.248h83.998v30.002h343.004v-30.002h83.998v-404.248c0-41.769-33.981-75.75-75.75-75.75zm-126.91 30-52.84 173.511-52.84-173.511zm-278.34 45.75c0-25.227 20.523-45.75 45.75-45.75h8.248v362h-53.998zm0 374.248v-27.998h53.998v27.998zm83.998 30v-98.787l28.979 28.979 21.213-21.213-50.192-50.191v-308.786h57.302l69.2 227.233v222.767h-126.502zm283.004.002h-126.502v-222.767l69.2-227.233h57.302v307.785l-51.191 51.191 21.213 21.213 29.979-29.979v99.787.003zm83.998-30.002h-53.998v-27.998h53.998zm-53.998-57.998v-362h8.248c25.227 0 45.75 20.523 45.75 45.75v316.25z"/></svg>