<svg id="Capa_1" enable-background="new 0 0 512 512" height="512" viewBox="0 0 512 512" width="512" xmlns="http://www.w3.org/2000/svg"><g><path d="m256 252.914 108.737-108.795c32.898-32.916 32.898-86.473 0-119.388-.001-.001.001 0 0 0-15.938-15.946-37.132-24.731-59.673-24.731-17.846 0-34.846 5.505-49.064 15.711-14.217-10.206-31.217-15.711-49.063-15.711-22.541 0-43.735 8.784-59.673 24.73-32.898 32.916-32.898 86.473 0 119.388zm-87.518-206.976c10.272-10.278 23.929-15.938 38.455-15.938s28.182 5.66 38.454 15.938l10.609 10.615 10.609-10.615c10.273-10.278 23.929-15.938 38.455-15.938 14.525 0 28.183 5.66 38.454 15.938 21.21 21.221 21.21 55.751 0 76.973l-87.518 87.566-87.518-87.566c-21.21-21.222-21.21-55.752 0-76.973z"/><path d="m457 422h-93.108c8.419-11.745 13.379-26.128 13.379-41.648v-93.7h-243.076c-29.011 0-52.612 23.602-52.612 52.613s23.602 52.613 52.612 52.613h8.739c1.802 11.096 6.162 21.346 12.453 30.122h-100.387v30h31.507c6.968 34.192 37.273 60 73.493 60h192c36.22 0 66.525-25.808 73.493-60h31.507zm-345.417-82.735c0-12.469 10.144-22.613 22.612-22.613h7.813v45.226h-7.813c-12.468 0-22.612-10.145-22.612-22.613zm60.425 41.087v-63.7h175.264v63.7c0 22.965-18.684 41.648-41.648 41.648h-91.967c-22.966 0-41.649-18.684-41.649-41.648zm179.992 101.648h-192c-19.556 0-36.238-12.539-42.429-30h276.859c-6.192 17.461-22.874 30-42.43 30z"/></g></svg>