<svg id="Capa_1" enable-background="new 0 0 512 512" height="512" viewBox="0 0 512 512" width="512" xmlns="http://www.w3.org/2000/svg"><g><path d="m211 302h90v30h-90z"/><path d="m181 210h60v30h-60z"/><path d="m271 210h60v30h-60z"/><path d="m383.281 362c5.074-14.38 7.719-29.606 7.719-45v-47.005c37.712-28.299 60-72.561 60-119.995 0-82.71-67.29-150-150-150h-90c-82.71 0-150 67.29-150 150 0 47.434 22.288 91.696 60 119.995v47.005c0 15.394 2.645 30.62 7.719 45h-128.719v15c0 74.439 60.561 135 135 135h242c74.439 0 135-60.561 135-135v-15zm37.719-212c0 29.625-10.876 57.703-30 79.372v-4.372c0-58.196-37.015-107.908-88.739-126.833 8.579-10.379 13.739-23.682 13.739-38.167 0-10.837-2.903-21.003-7.95-29.787 62.899 3.662 112.95 55.986 112.95 119.787zm-330 0c0-66.168 53.832-120 120-120h45c16.542 0 30 13.458 30 30s-13.458 30-30 30c-74.439 0-135 60.561-135 135v4.372c-19.124-21.67-30-49.747-30-79.372zm60 167v-92c0-57.897 47.103-105 105-105s105 47.103 105 105v92c0 15.622-3.488 31.014-10.121 45h-189.758c-6.633-13.986-10.121-29.378-10.121-45zm226 165h-242c-52.805 0-96.631-39.183-103.932-90h449.863c-7.3 50.817-51.126 90-103.931 90z"/><path d="m455.394 305.393 21.213 21.213 15-15c14.12-14.12 14.12-37.094 0-51.213-2.423-2.422-2.423-6.364 0-8.787l15-15-21.213-21.213-15 15c-14.12 14.12-14.12 37.094 0 51.213 2.423 2.422 2.423 6.364 0 8.787z"/><path d="m5.394 305.393 21.213 21.213 15-15c14.12-14.12 14.12-37.094 0-51.213-2.423-2.422-2.423-6.364 0-8.787l15-15-21.213-21.213-15 15c-14.12 14.12-14.12 37.094 0 51.213 2.423 2.422 2.423 6.364 0 8.787z"/></g></svg>