<svg id="Layer_1" enable-background="new 0 0 511.998 511.998" height="512" viewBox="0 0 511.998 511.998" width="512" xmlns="http://www.w3.org/2000/svg"><path d="m80.011 0v511.998h351.976v-511.998zm321.976 214.65h-77.325v-77.325h77.325zm0 198.583-95.032-61.258h95.032zm-196.943-61.258-95.032 61.258v-61.258zm12.292-30v-77.325h77.325v77.325zm0-107.325v-77.325h77.325v77.325zm-30 0h-77.325v-77.325h77.325zm30-107.325v-77.325h77.325v77.325zm184.651 0h-77.325v-77.325h77.325zm-214.651-77.325v77.325h-77.325v-77.325zm-77.325 214.65h77.325v77.325h-77.325zm0 237.348v-33.073l145.988-94.104 145.988 94.104v33.073zm214.651-160.023v-77.325h77.325v77.325z"/></svg>