<?xml version="1.0" encoding="iso-8859-1"?>
<!-- Generator: Adobe Illustrator 19.0.0, SVG Export Plug-In . SVG Version: 6.00 Build 0)  -->
<svg version="1.1" id="Capa_1" xmlns="http://www.w3.org/2000/svg" xmlns:xlink="http://www.w3.org/1999/xlink" x="0px" y="0px"
	 viewBox="0 0 512 512" style="enable-background:new 0 0 512 512;" xml:space="preserve">
<g>
	<g>
		<path d="M449.453,226.636C451.134,216.199,452,205.611,452,195C452,87.431,363.714,0,256,0C148.418,0,60,87.29,60,195
			c0,10.611,0.865,21.199,2.547,31.636C24.203,247.52,0,287.681,0,332c0,66.168,53.832,120,120,120h70.788l-7.5,30H165
			c-8.284,0-15,6.716-15,15s6.716,15,15,15c7.347,0,174.794,0,182,0c8.284,0,15-6.716,15-15s-6.716-15-15-15h-18.289l-7.5-30H392
			c66.168,0,120-53.832,120-120C512,287.681,487.797,247.52,449.453,226.636z M271,30.681C355.53,38.243,422,109.044,422,195
			c0,31.929-9.18,63.564-25.708,90.079l-21.78-21.78C385.705,243.059,392,218.822,392,195c0-69.407-53.042-126.739-121-134.175
			V30.681z M392,332v15c0,8.271-6.729,15-15,15c-4.641,0-237.346,0-242,0c-8.271,0-15-6.729-15-15v-15H392z M141.213,302l30-30
			h169.574l30,30H141.213z M362,195c0,16.49-3.772,32.562-10.585,47.067h-190.83C153.772,227.563,150,211.491,150,195
			c0-57.897,47.551-105,106-105C314.448,90,362,137.103,362,195z M241,30.681v30.144C173.042,68.261,120,125.593,120,195
			c0,23.823,6.296,48.06,17.488,68.299l-21.78,21.78C99.18,258.564,90,226.929,90,195C90,109.044,156.471,38.243,241,30.681z
			 M198.288,422H120c-49.626,0-90-40.374-90-90c0-30.468,15.246-58.322,39.935-74.821c5.737,17.633,13.864,34.396,24.105,49.596
			c-2.569,2.758-3.972,6.293-4.029,10.001C90.01,316.851,90,316.924,90,317v30c0,24.813,20.187,45,45,45h70.788L198.288,422z
			 M214.212,482l22.5-90h38.576l22.5,90H214.212z M392,422h-78.289l-7.5-30H377c24.813,0,45-20.187,45-45v-30
			c0-0.076-0.01-0.149-0.011-0.225c-0.005-0.354-0.023-0.706-0.053-1.058c-0.283-3.322-1.657-6.461-3.975-8.943
			c10.242-15.2,18.368-31.963,24.105-49.596C466.754,273.678,482,301.532,482,332C482,381.626,441.626,422,392,422z"/>
	</g>
</g>
<g>
</g>
<g>
</g>
<g>
</g>
<g>
</g>
<g>
</g>
<g>
</g>
<g>
</g>
<g>
</g>
<g>
</g>
<g>
</g>
<g>
</g>
<g>
</g>
<g>
</g>
<g>
</g>
<g>
</g>
</svg>
