<svg id="Capa_1" enable-background="new 0 0 512 512" height="512" viewBox="0 0 512 512" width="512" xmlns="http://www.w3.org/2000/svg"><g><path d="m482.25 267.276c-7.198-9.952-8.044-23.516-2.155-34.558 12.99-24.354 19.855-52.667 19.855-81.878 0-47.878-20.793-89.035-60.132-119.021-33.44-24.381-55.429-29.37-63.318-31.819-6.644 2.166-29.614 7.075-63.318 31.818-30.751 23.44-50.169 53.707-57.182 88.673-7.013-34.967-26.431-65.233-57.182-88.673-33.44-24.38-55.429-29.369-63.318-31.818-6.644 2.166-29.614 7.075-63.318 31.818-39.339 29.987-60.132 71.143-60.132 119.022 0 29.212 6.866 57.525 19.855 81.879 5.889 11.041 5.043 24.605-2.155 34.557-19.185 26.523-29.75 59.903-29.75 93.99 0 48.188 23.087 89.497 66.764 119.461 35.896 23.737 61.507 29.269 68.736 31.273 5.849-1.703 32.632-7.23 68.736-31.272 23.178-15.901 40.556-34.997 51.764-56.62 11.208 21.623 28.586 40.719 51.764 56.62 35.896 23.736 61.507 29.268 68.736 31.272 5.849-1.703 32.632-7.23 68.736-31.272 43.677-29.965 66.764-71.274 66.764-119.462 0-34.087-10.565-67.467-29.75-93.99zm-105.75 207.312c-22.459-30.191-28.045-82.091-27.729-113.322 0-29.734 3.221-58.668 9.07-81.473 4.303-16.78 4.823-38.591 1.356-56.922-4.025-21.284-6.153-46.192-6.153-72.032-.074-30.826 3.942-79.152 23.456-111.349 19.212 31.255 23.622 80.61 23.456 111.349 0 25.839-2.128 50.748-6.153 72.032-3.467 18.331-2.947 40.142 1.356 56.922 5.849 22.805 9.07 51.739 9.07 81.473.316 31.231-5.27 83.131-27.729 113.322zm-137.405-241.87c8.045-15.083 13.734-31.686 16.905-49.08 3.171 17.393 8.86 33.997 16.905 49.08 5.889 11.041 5.043 24.605-2.155 34.557-5.696 7.874-10.625 16.357-14.75 25.279-4.125-8.922-9.055-17.405-14.75-25.279-7.198-9.951-8.044-23.515-2.155-34.557zm-51.128 222.786c-21.769 15.097-43.978 22.824-52.484 25.438-8.403-2.565-30.066-10.079-51.747-24.953-35.657-24.461-53.736-56.331-53.736-94.723 0-27.824 8.544-54.959 24.058-76.408 13.866-19.17 15.561-45.178 4.317-66.258-10.68-20.024-16.325-43.455-16.325-67.76 0-38.385 16-70.207 47.558-94.579 18.717-14.456 37.806-22.096 45.891-24.93 8.106 2.841 27.186 10.48 45.894 24.93 31.557 24.373 47.558 56.194 47.558 94.579 0 24.305-5.645 47.736-16.325 67.76-11.244 21.08-9.549 47.088 4.317 66.258 15.513 21.449 24.057 48.584 24.057 76.408 0 38.128-17.843 69.835-53.033 94.238zm83.033-94.238c0-27.824 8.544-54.959 24.058-76.408 13.866-19.17 15.561-45.178 4.317-66.258-10.68-20.024-16.325-43.455-16.325-67.76-.358-41.115 19.74-76.233 55.111-100.049-10.026 27.304-15.117 60.86-15.117 100.049 0 27.679 2.309 54.515 6.676 77.607 2.661 14.067 2.292 31.297-.938 43.894-6.549 25.534-10.01 56.284-10.01 88.926 0 40.056 5.871 74.275 17.457 101.971-39.787-22.113-66.204-60.038-65.229-101.972zm145.775 101.964c11.584-27.695 17.454-61.911 17.454-101.964 0-32.642-3.461-63.392-10.01-88.926-3.23-12.597-3.599-29.826-.938-43.894 4.367-23.092 6.676-49.928 6.676-77.607 0-39.189-5.09-72.745-15.117-100.049 34.633 22.931 55.719 59.236 55.111 100.049 0 24.305-5.645 47.736-16.325 67.76-11.244 21.08-9.549 47.088 4.317 66.258 15.513 21.45 24.057 48.585 24.057 76.409 1.023 41.921-25.62 80.014-65.225 101.964z"/><path d="m135.5 232.998c17.587 0 34.452-9.488 46.271-26.032 10.902-15.26 16.906-35.291 16.906-56.404s-6.004-41.144-16.906-56.404c-11.819-16.543-28.684-26.032-46.271-26.032s-34.452 9.488-46.271 26.032c-10.902 15.26-16.906 35.291-16.906 56.404s6.004 41.144 16.906 56.404c11.819 16.544 28.684 26.032 46.271 26.032zm0-134.871c17.984 0 33.177 24.013 33.177 52.436s-15.193 52.436-33.177 52.436-33.177-24.013-33.177-52.436 15.193-52.436 33.177-52.436z"/><path d="m135.5 278.415c-41.493 0-75.25 37.244-75.25 83.022s33.757 83.022 75.25 83.022 75.25-37.244 75.25-83.022-33.757-83.022-75.25-83.022zm0 136.045c-24.951 0-45.25-23.786-45.25-53.022s20.299-53.022 45.25-53.022 45.25 23.786 45.25 53.022-20.299 53.022-45.25 53.022z"/></g></svg>