<svg id="Capa_1" enable-background="new 0 0 512 512" height="512" viewBox="0 0 512 512" width="512" xmlns="http://www.w3.org/2000/svg"><g><path d="m497 60.315c-43.26 0-80.508 26.206-96.72 63.574-35.81-39.08-87.222-63.639-144.28-63.639-38.824 0-75.034 11.376-105.5 30.95v-30.885h-30v54.25h-30.25v-54.25h-30v54.25h-30.25v-54.25h-30v105.375c0 23.751 11.353 46.087 30.125 60.198v225.862h90.25v-54.745c35.209 33.878 83.022 54.745 135.625 54.745 69.745 0 131.074-36.673 165.75-91.742v91.742h90.25v-391.435zm-105.265 100.69c-.135 1.292-.112 12.166-.11 14.251-7.572-14.615-22.831-24.631-40.396-24.631h-190.458c-3.533 0-6.968.418-10.271 1.184v-23.53c28.682-23.736 65.449-38.029 105.5-38.029 56.079 0 105.727 28.006 135.735 70.755zm-60.111 170.37h-151.242l.35-119.8h-15.044c-12.197 0-20.393-6.219-20.393-15.475 0-8.533 6.942-15.475 15.475-15.475h190.458c8.533 0 15.475 6.942 15.475 15.475 0 9.256-8.192 15.475-20.386 15.475h-15.044zm-241.249-122.166v212.541h-30.25v-212.541c-17.273-7.955-30.307-24.186-30.125-43.519v-21.125h90.5v21.125c.511 18.966-13.084 35.667-30.125 43.519zm165.625 212.541c-56.015 0-105.608-27.946-135.625-70.613v-125.25c1.328-.998 2.614-2.042 3.866-3.12 5.434 7.355 15.777 14.46 26.409 16.995l-.355 121.612h211.417l-.355-121.613c12.069-3.109 23.886-10.9 30.269-23.006v114.56h11.996c-27.477 53.637-83.33 90.435-147.622 90.435zm226 0h-30.25v-90.435h30.25zm-60.25-120.435h-.125v-135.625c0-36.428 25.974-66.902 60.375-73.876v209.501z"/><path d="m210.875 210.94h30v90.25h-30z"/><path d="m271.125 210.94h30v90.25h-30z"/></g></svg>