<svg id="Capa_1" enable-background="new 0 0 510 510" height="512" viewBox="0 0 510 510" width="512" xmlns="http://www.w3.org/2000/svg"><g><path d="m398.892 182.08c-73.07-86.835-71.493-170.784-74.401-182.08h-138.983c-2.939 11.421-1.32 95.234-74.398 182.081-29.679 35.273-28.193 87.998 5.31 121.501 29.147 29.147 73.347 34.399 108.077 14.642 17.207 15.7 43.766 15.717 60.993.013 13.501 7.683 28.815 11.76 44.535 11.76 48.423 0 87.706-38.509 89.874-85.765 1.05-22.733-6.411-44.805-21.007-62.152zm-8.961 60.772c-1.403 30.604-26.476 55.676-57.083 57.079-10.986.511-21.752-1.976-31.251-7.079l14.686-29.371c2.614-5.229 7.871-8.479 13.718-8.479h30v-30h-30c-17.284 0-32.822 9.604-40.551 25.062l-20.73 41.458c-5.65 11.3-21.789 11.3-27.438.001l-20.73-41.459c-7.73-15.459-23.268-25.062-40.552-25.062h-29.999v30h29.999c5.847 0 11.104 3.249 13.719 8.479l14.685 29.369c-9.5 5.103-20.271 7.588-31.254 7.081-30.603-1.403-55.675-26.476-57.079-57.084-.701-15.173 4.269-29.893 13.993-41.45 42.439-50.434 69.318-109.611 77.899-171.397h86.076c8.58 61.784 35.459 120.962 77.897 171.396 9.726 11.557 14.696 26.278 13.995 41.456z"/><path d="m345.001 378.608c-12.43 18.01-45 63.183-45 86.392 0 24.814 20.186 45 45 45 24.813 0 45-20.186 45-45 0-23.236-32.687-68.553-45-86.392zm0 101.392c-8.272 0-15-6.728-15-14.982.122-4.585 6.361-17.655 15-32.212 8.635 14.551 14.872 27.615 15 32.206-.007 8.265-6.733 14.988-15 14.988z"/><path d="m180.001 378.608c-12.43 18.01-45 63.182-45 86.392 0 24.814 20.187 45 45 45s45-20.186 45-45c0-23.236-32.687-68.553-45-86.392zm0 101.392c-8.271 0-15-6.728-15-14.982.122-4.585 6.361-17.655 15-32.212 8.635 14.551 14.872 27.615 15 32.206-.006 8.265-6.733 14.988-15 14.988z"/></g></svg>