<svg id="Capa_1" enable-background="new 0 0 512 512" height="512" viewBox="0 0 512 512" width="512" xmlns="http://www.w3.org/2000/svg"><g><path d="m512 0h-512v331.249h60.25v60.251h60.25v120.5h90.25v-120.5h90.5v120.5h90.25v-120.5h60.25v-60.251h60.25zm-421.75 361.5v-30.251h30.25v30.251zm60.25 120.5v-150.751h30.25v150.751zm60.25-120.5v-30.251h90.5v30.251zm120.5 120.5v-150.751h30.25v150.751zm90.5-120.5h-30.25v-30.251h30.25zm60.25-60.251h-452v-271.249h452z"/><path d="m256 271.007c58.108 0 105.382-47.274 105.382-105.382s-47.274-105.382-105.382-105.382-105.382 47.274-105.382 105.382 47.274 105.382 105.382 105.382zm-56.439-55.488 41.439-23.918v47.903c-16.347-3.314-30.78-11.941-41.439-23.985zm71.439 23.985v-47.904l41.439 23.918c-10.659 12.044-25.092 20.672-41.439 23.986zm60.382-73.879c0 8.364-1.39 16.405-3.916 23.929l-56.466-32.592v-65.216c34.404 6.974 60.382 37.448 60.382 73.879zm-90.382-73.879v65.216l-56.466 32.592c-2.526-7.524-3.916-15.565-3.916-23.929 0-36.431 25.978-66.905 60.382-73.879z"/></g></svg>