<svg id="Capa_1" enable-background="new 0 0 512 512" height="512" viewBox="0 0 512 512" width="512" xmlns="http://www.w3.org/2000/svg"><path d="m366.54 357.211c51.417-35.312 85.21-94.51 85.21-161.461 0-107.937-87.813-195.75-195.75-195.75s-195.75 87.813-195.75 195.75c0 66.951 33.793 126.149 85.21 161.461l-37.261 64.539h-47.949v90.25h391.5v-90.25h-47.948zm-15.045-26.06-15.199-26.326c10.972-8.098 20.682-17.809 28.78-28.78l26.326 15.199c-10.936 15.46-24.448 28.972-39.907 39.907zm-200.995-135.401c0-58.173 47.327-105.5 105.5-105.5s105.5 47.327 105.5 105.5c0 33.591-15.781 63.565-40.318 82.899l-30.93-53.572c6.769-7.894 10.872-18.138 10.872-29.328 0-24.882-20.243-45.125-45.125-45.125s-45.125 20.243-45.125 45.125c0 11.19 4.103 21.433 10.872 29.328l-30.93 53.572c-24.535-19.334-40.316-49.308-40.316-82.899zm-29.165-15h-30.399c1.741-19.317 6.808-37.687 14.626-54.535l26.323 15.198c-5.394 12.275-9.019 25.494-10.55 39.337zm0 30c1.532 13.843 5.157 27.062 10.551 39.337l-26.323 15.198c-7.818-16.848-12.885-35.218-14.626-54.535zm149.665-149.665v-30.399c19.317 1.741 37.687 6.808 54.535 14.626l-15.198 26.323c-12.275-5.394-25.494-9.019-39.337-10.55zm-30 0c-13.843 1.532-27.062 5.157-39.337 10.551l-15.198-26.323c16.848-7.818 35.218-12.885 54.535-14.626zm149.665 149.665h30.398c-1.741 19.317-6.808 37.687-14.626 54.535l-26.323-15.198c5.395-12.275 9.02-25.494 10.551-39.337zm0-30c-1.532-13.843-5.157-27.062-10.551-39.337l26.323-15.198c7.818 16.848 12.885 35.218 14.626 54.535zm-149.79 15c0-8.34 6.785-15.125 15.125-15.125s15.125 6.785 15.125 15.125-6.785 15.125-15.125 15.125-15.125-6.785-15.125-15.125zm6.84 44.349c2.688.501 5.454.776 8.285.776s5.597-.274 8.285-.776l30.937 53.585c-12.131 4.876-25.368 7.565-39.222 7.565s-27.091-2.69-39.222-7.565zm-6.715 90.316v30.398c-19.317-1.741-37.687-6.808-54.535-14.626l15.198-26.323c12.275 5.395 25.494 9.02 39.337 10.551zm30 0c13.843-1.532 27.062-5.157 39.337-10.551l15.198 26.323c-16.848 7.818-35.218 12.885-54.535 14.626zm120.402-230.159-26.326 15.199c-8.098-10.972-17.809-20.682-28.78-28.78l15.199-26.326c15.459 10.935 28.971 24.447 39.907 39.907zm-230.896-39.908 15.199 26.326c-10.972 8.098-20.682 17.809-28.78 28.78l-26.326-15.199c10.935-15.459 24.447-28.971 39.907-39.907zm-39.908 230.896 26.326-15.199c8.098 10.972 17.808 20.682 28.78 28.78l-15.2 26.326c-15.458-10.935-28.97-24.447-39.906-39.907zm50.813 81.018c25.617 12.326 54.311 19.238 84.589 19.238s58.972-6.912 84.589-19.238l28.572 49.488h-226.322zm250.339 109.738h-331.5v-30.25h331.5z"/></svg>