<svg id="Capa_1" enable-background="new 0 0 512 512" height="512" viewBox="0 0 512 512" width="512" xmlns="http://www.w3.org/2000/svg"><path d="m366.642 271.338v-29.958h29.264v-30h-29.264v-30.088h29.264v-30h-29.264v-30.077l29.354.004.004-30-31.024-.004c-9.09-51.759-54.34-91.215-108.628-91.215-54.29 0-99.541 39.458-108.628 91.22l-31.766-.01-.01 30 30.109.01v30.078h-30.104v30h30.104v30.088h-30.104v30h30.104v29.953h-49.374l14.549 240.661h288.737l15.356-240.662zm-30-160.966v160.967h-65.294v-239.911c37.127 7.054 65.294 39.759 65.294 78.944zm-160.588 0c0-39.185 28.167-71.89 65.294-78.944v239.911h-65.294zm207.292 190.966-1.912 29.973-251.071.048-1.815-30.021zm-243.877 180.662-7.294-120.641 247.344-.047-7.701 120.688z"/></svg>