<svg id="Capa_1" enable-background="new 0 0 511.825 511.825" height="512" viewBox="0 0 511.825 511.825" width="512" xmlns="http://www.w3.org/2000/svg"><path d="m434.711 415.856c-14.903-40.608-67.513-56.342-102.405-30.102 0-.001-6.409 4.676-6.409 4.676-4.233-16.085-6.444-32.652-6.668-49.605h93.685v-30h-92.033c1.615-14.718 6.106-33.969 10.24-46.011 27.49 18.87 68.437 14.941 91.736-9.139 104.901.99 122.497-145.29 21.317-169.603-4.867-49.507-60.39-80.44-105.264-57.58-46.791-37.99-119.204-37.989-165.994 0-44.88-22.865-100.4 8.084-105.263 57.58-101.238 24.361-83.521 170.609 21.317 169.603 23.297 24.081 64.25 28.008 91.736 9.139 4.135 12.044 8.625 31.292 10.24 46.011h-92.032v30h93.685c-.224 16.954-2.435 33.521-6.668 49.605l-6.408-4.676c-34.891-26.246-87.511-10.497-102.405 30.102-30.513 11.669-54.918 36.291-66.15 67.182l-10.469 28.787h510.83l-10.468-28.787c-11.232-30.891-35.637-55.513-66.15-67.182zm-294.265-169.031c-13.134 0-25.408-5.882-33.676-16.136l-5.291-6.563-8.356 1.107c-33.074 4.684-63.426-21.887-63.184-55.28 0-29.884 23.364-54.358 53.191-55.719l15.605-.712c-.225-2.936-1.571-16.768-1.525-19.376-.298-34.832 40.443-55.717 68.484-35.084 0-.001 9.991 7.205 9.991 7.205 22.26-22.782 47.85-36.402 80.229-36.442 32.369.036 57.985 13.67 80.228 36.442l9.991-7.206c28.05-20.633 68.78.257 68.483 35.086.073 2.593-1.335 16.523-1.524 19.375l15.605.712c29.827 1.36 53.191 25.835 53.191 55.719.242 33.391-30.112 59.967-63.185 55.28 0 0-8.356-1.107-8.356-1.107l-5.291 6.563c-18.146 23.186-55.515 20.838-70.543-4.51 0 .001-8.119-13.21-8.119-13.21-22.39 15.862-42.308 25.818-70.482 25.824-28.156.001-48.123-9.978-70.481-25.824l-8.119 13.211c-7.944 12.927-21.726 20.645-36.866 20.645zm70.639 14.292c28.452 10.206 61.207 10.206 89.659 0-4.065 13.291-8.081 30.232-10.146 49.708h-69.367c-2.066-19.476-6.082-36.417-10.146-49.708zm-166.732 220.708c12.206-22.347 32.652-36.272 57.291-42.336l2.045-8.308c4.109-16.695 18.988-28.356 36.183-28.356 7.949 0 15.545 2.477 21.966 7.163l39.226 28.623 6.908-18.552c10.375-27.865 14.354-54.812 14.671-79.234h66.543c.317 24.422 4.296 51.369 14.671 79.234l6.908 18.552 39.227-28.624c6.42-4.686 14.016-7.162 21.965-7.162 17.194 0 32.073 11.661 36.183 28.356l2.045 8.308c24.635 6.059 45.095 20 57.291 42.336z"/></svg>