<svg id="Capa_1" enable-background="new 0 0 512 512" height="512" viewBox="0 0 512 512" width="512" xmlns="http://www.w3.org/2000/svg"><g><path d="m481 227c0-41.355-33.645-75-75-75s-75 33.645-75 75c0 36.219 25.808 66.522 60 73.491v76.509c0 57.897-47.103 105-105 105s-105-47.103-105-105v-15.838c67.406-7.486 120-64.793 120-134.162 0-20.23-2.912-25.131-22.863-142.845 13.637-7.741 22.863-22.386 22.863-39.155 0-24.813-20.187-45-45-45s-45 20.187-45 45c0 22.291 16.295 40.837 37.596 44.38 20.77 121.835 22.404 121.647 22.404 137.62 0 57.897-47.103 105-105 105s-105-47.103-105-105c0-15.979 1.673-16.012 22.404-137.62 21.301-3.543 37.596-22.089 37.596-44.38 0-24.813-20.187-45-45-45s-45 20.187-45 45c0 16.769 9.226 31.414 22.863 39.155-20.073 118.429-22.863 122.655-22.863 142.845 0 69.369 52.594 126.676 120 134.162v15.838c0 74.439 60.561 135 135 135s135-60.561 135-135v-76.509c34.192-6.969 60-37.272 60-73.491zm-225-197c8.271 0 15 6.729 15 15s-6.729 15-15 15-15-6.729-15-15 6.729-15 15-15zm-180 0c8.271 0 15 6.729 15 15s-6.729 15-15 15-15-6.729-15-15 6.729-15 15-15zm330 242c-24.813 0-45-20.187-45-45s20.187-45 45-45 45 20.187 45 45-20.187 45-45 45z"/><path d="m391 212h30v30h-30z"/></g></svg>