<svg id="Capa_1" enable-background="new 0 0 512 512" height="512" viewBox="0 0 512 512" width="512" xmlns="http://www.w3.org/2000/svg"><g><path d="m253.307 330.541c.894.03 1.792.045 2.693.045s1.799-.015 2.695-.045c25.658-.867 48.359-14.952 60.725-37.679 12.604-23.165 12.055-50.45-1.467-72.987l-61.953-103.256-61.953 103.255c-13.522 22.538-14.071 49.823-1.467 72.987 12.365 22.727 35.066 36.813 60.727 37.68zm-33.536-95.232 36.229-60.381 36.229 60.38c7.996 13.328 8.311 29.484.84 43.214-7.233 13.293-20.461 21.531-35.383 22.035-1.118.038-2.254.038-3.368 0-14.924-.504-28.153-8.742-35.385-22.035-7.473-13.73-7.159-29.885.838-43.213z"/><path d="m132.96 40h30v30h-30z"/><path d="m396.238 111.08h30v30h-30z"/><path d="m407 362h-68.634c13.546-10.839 25.061-24.477 33.758-40.462 10.752-19.762 16.399-42.045 16.33-64.441-.074-23.896-6.662-47.442-19.051-68.092l-113.403-189.005-113.403 189.004c-12.39 20.65-18.978 44.196-19.051 68.093-.069 22.395 5.578 44.678 16.33 64.44 8.698 15.985 20.213 29.623 33.76 40.462h-68.636c-41.355 0-75 33.645-75 75s33.645 75 75 75h302c41.355 0 75-33.645 75-75s-33.645-74.999-75-74.999zm-253.454-104.81c.057-18.494 5.167-36.735 14.776-52.751l87.678-146.129 87.678 146.129c9.609 16.016 14.719 34.257 14.776 52.75.054 17.37-4.332 34.663-12.682 50.01-17.499 32.161-49.673 52.095-86.064 53.325-2.441.083-4.972.082-7.405 0-36.398-1.23-68.576-21.165-86.075-53.325-8.351-15.347-12.736-32.64-12.682-50.009zm-90.966 194.81h163.42v-30h-163.42c6.192-17.459 22.865-30 42.42-30h242.041c-9.438 12.544-15.041 28.129-15.041 45s5.603 32.456 15.041 45h-242.041c-19.555 0-36.228-12.541-42.42-30zm344.42 30c-24.813 0-45-20.187-45-45s20.187-45 45-45 45 20.187 45 45-20.187 45-45 45z"/></g></svg>