<svg id="Capa_1" enable-background="new 0 0 512 512" height="512" viewBox="0 0 512 512" width="512" xmlns="http://www.w3.org/2000/svg"><g><path d="m305.93 212.03c-6.183-17.474-22.864-30.03-42.43-30.03h-15c-19.566 0-36.246 12.556-42.43 30.03-34.608.634-62.57 28.964-62.57 63.72v22.5c0 24.664 14.088 46.085 34.63 56.682 2.501 16.877 10.374 32.435 22.754 44.567 14.808 14.51 34.382 22.501 55.116 22.501 20.733 0 40.306-7.99 55.113-22.5 12.382-12.132 20.255-27.691 22.757-44.569 20.543-10.597 34.631-32.018 34.631-56.682v-22.5c-.001-34.755-27.963-63.085-62.571-63.719zm-57.43-.03h15c8.271 0 15 6.729 15 15s-6.729 15-15 15h-15c-8.271 0-15-6.729-15-15s6.729-15 15-15zm-75 63.75c0-18.221 14.516-33.106 32.59-33.721 5.39 15.162 18.688 26.599 34.91 29.334v26.887c0 18.61-15.14 33.75-33.75 33.75s-33.75-15.14-33.75-33.75zm82.5 116.25c-12.835 0-24.952-4.946-34.118-13.928-4.774-4.678-8.459-10.181-10.942-16.187 18.046-1.036 34.098-9.611 45.06-22.618 10.961 13.007 27.013 21.582 45.059 22.618-2.484 6.006-6.169 11.509-10.943 16.188-9.164 8.981-21.281 13.927-34.116 13.927zm82.5-93.75c0 18.61-15.14 33.75-33.75 33.75s-33.75-15.14-33.75-33.75v-26.887c16.222-2.734 29.52-14.172 34.91-29.334 18.074.615 32.59 15.5 32.59 33.721z"/><path d="m323.5 147.901h30v30h-30z"/><path d="m158.5 147.901h30v30h-30z"/><path d="m472.124 78.403c-32.48-29.915-74.656-32.896-90.652-32.855-34.02-28.419-77.781-45.548-125.472-45.548s-91.451 17.129-125.471 45.547c-15.996-.042-58.171 2.939-90.652 32.855-26.46 24.372-39.877 60.173-39.877 106.41v116.958l6.346 4.482c.918.648 20.084 13.896 53.654 16.732v189.016h392v-189.016c33.566-2.838 52.736-16.083 53.654-16.732l6.346-4.482v-116.958c0-46.237-13.416-82.038-39.876-106.409zm-442.124 206.744v-100.335c0-37.386 10.096-65.702 30.006-84.163 11.733-10.878 25.542-17.078 38.069-20.592-23.918 32.493-38.075 72.593-38.075 115.943v96.835c-12.952-1.386-23.271-4.663-30-7.688zm392 196.853h-332v-286c0-91.533 74.467-166 166-166s166 74.467 166 166zm60-196.853c-6.729 3.026-17.048 6.3-30 7.687v-96.834c0-43.398-14.187-83.54-38.155-116.052 12.43 3.487 26.162 9.66 37.954 20.521 20.04 18.458 30.201 46.835 30.201 84.343z"/></g></svg>