<svg id="Capa_1" enable-background="new 0 0 512 512" height="512" viewBox="0 0 512 512" width="512" xmlns="http://www.w3.org/2000/svg"><g><path d="m452 60v-60h-90v60h-212v-60h-90v60h-60v90h150 1v60h45v60h15v2.25c0 17.77 2.848 35.352 8.466 52.26 9.257 27.854 46.787 71.535 47.138 71.886 2.971 2.972 4.53 6.926 4.387 11.135-.257 7.636-6.42 13.979-14.03 14.439-5.776.347-11.147-2.545-14.007-7.557-7.89-13.825-22.943-22.413-39.285-22.413h-52.669v15c0 28.335 11.113 54.895 31.293 74.785 19.806 19.522 45.918 30.215 73.689 30.215.52 0 1.044-.004 1.565-.011 27.942-.404 54.124-11.754 73.721-31.961 19.616-20.226 30.17-46.775 29.718-74.757-.421-26.036-10.43-50.843-28.186-69.866-.242-.266-.495-.54-.747-.806-17.088-18.223-27.617-40.798-30.341-64.599h14.288v-60h45v-60h1 150v-90zm-422 60v-30h30v30zm60 0v-90h30v90zm220.212 235.165.081.086c.128.134.255.274.376.408l.145.157c12.709 13.588 19.874 31.324 20.175 49.94.323 19.959-7.227 38.919-21.257 53.386-14.011 14.447-32.698 22.562-52.619 22.85-20.26.3-39.351-7.368-53.762-21.573-10.783-10.628-17.941-23.922-20.864-38.419h21.181c5.596 0 10.666 2.791 13.229 7.282 8.563 15.006 24.604 23.673 41.877 22.634 22.889-1.386 41.425-20.438 42.199-43.373.415-12.272-4.263-24.29-12.843-33.043-4.59-5.251-33.839-41.324-40.195-60.45-4.602-13.85-6.935-28.251-6.935-42.8v-2.25h30.551c2.811 31.464 16.29 61.327 38.661 85.165zm-24.212-115.165h-60v-30h60zm45-60h-150v-30h150zm-181-60v-30h212v30zm242 0v-90h30v90zm90 0h-30v-30h30z"/></g></svg>