<svg id="Capa_1" enable-background="new 0 0 510.991 510.991" height="512" viewBox="0 0 510.991 510.991" width="512" xmlns="http://www.w3.org/2000/svg"><g id="XMLID_1003_"><path id="XMLID_1004_" d="m255.496 300.507c23.919 0 43.379-19.459 43.379-43.378h-30c0 7.377-6.002 13.378-13.379 13.378s-13.379-6.001-13.379-13.378h-30c0 23.919 19.46 43.378 43.379 43.378z"/><path id="XMLID_1007_" d="m505.744 443.672v-32.53c-.001-26.751-5.921-53.571-17.122-77.562-11.385-24.385-28.33-46.036-49.004-62.615-17.704-14.197-27.454-36.071-27.454-61.593v-46.869c0-40.711-14.977-78.4-42.309-106.908-.241-12.95-4.897-25.512-13.423-35.568-10.791-12.728-26.55-20.027-43.235-20.027h-115.82c-16.686 0-32.444 7.299-43.234 20.026-9.055 10.68-13.747 24.187-13.415 37.983-26.224 28.47-40.586 65.298-40.586 104.493v45.757c0 24.977-10.638 47.832-29.186 62.705-20.674 16.579-37.619 38.23-49.004 62.615-11.201 23.991-17.121 50.812-17.121 77.563v33.898c-3.107 10.37-4.751 21.29-4.751 32.453v33.498h510.832v-33.498c0-11.655-1.789-23.046-5.168-33.821zm-84.894-149.304c30.846 24.737 50.049 60.881 54.085 100.882-3.509-3.19-7.237-6.17-11.184-8.898-18.512-12.794-40.212-19.556-62.755-19.556h-80.946v-13.374c35.891-16.178 64.606-45.544 79.933-81.888 5.688 8.578 12.668 16.259 20.867 22.834zm-165.354 121.984c-19.053 0-34.554-15.501-34.554-34.555v-18.687c11.319 2.621 23.106 4.007 35.211 4.007 11.638 0 22.979-1.291 33.896-3.72v18.399c0 19.055-15.501 34.556-34.553 34.556zm-125.33-255.881h92.992c-21.179 20.979-49.628 32.788-79.91 32.788h-13.105c-.001 0 .013-32.112.023-32.788zm3.975-30c2.826-10.938 7.136-21.323 12.872-31.017l5.142 31.017zm9.107 92.788c43.824 0 84.613-19.567 112.04-53.703 27.427 34.136 68.215 53.703 112.04 53.703h14.249c-6.134 63.802-60.04 113.858-125.422 113.858s-119.29-50.056-125.425-113.858zm220.778-126.606c6.468 10.433 11.248 21.764 14.274 33.818h-19.88zm18.114 63.818c.01.677.024 32.788.024 32.788h-14.837c-30.282 0-58.731-11.809-79.91-32.788zm-205.114-121.044c5.079-5.99 12.497-9.427 20.352-9.427h115.819c7.854 0 15.272 3.437 20.352 9.427 5.08 5.991 7.257 13.872 5.972 21.621l-11.51 69.423h-145.447l-11.51-69.424c-1.285-7.748.892-15.629 5.972-21.62zm-87.302 254.941c8.643-6.931 16.04-15.088 22.058-24.155 15 36.504 43.453 66.105 79.159 82.602v13.981h-80.946c-22.543 0-44.243 6.762-62.754 19.556-4.121 2.848-8.001 5.97-11.643 9.32 3.944-40.168 23.171-76.48 54.126-101.304zm-59.644 183.125c0-26.81 12.792-51.654 34.218-66.461 13.476-9.312 29.277-14.235 45.698-14.235h82.724c5.631 23.566 24.21 42.145 47.776 47.777v36.418h-210.416zm450.832 3.498h-210.416v-36.418c23.565-5.631 42.144-24.211 47.776-47.777h82.724c16.421 0 32.223 4.923 45.699 14.235 21.425 14.807 34.217 39.651 34.217 66.461z"/><path id="XMLID_1461_" d="m240.287 111.222h30v-15.987h15.986v-30h-15.986v-15.985h-30v15.985h-15.986v30h15.986z"/></g></svg>