<svg id="Capa_1" enable-background="new 0 0 512 512" height="512" viewBox="0 0 512 512" width="512" xmlns="http://www.w3.org/2000/svg"><g id="Delete"><g><g><path d="m350.574 512-145.189-146.189-48.356 146.189-157.029-414.723 414.11 156.539-145.086 48.356 145.189 145.188zm-158.301-201.727 158.301 158.3 21.213-21.213-158.3-158.301 111.128-37.038-272.516-103.136 103.137 272.516z"/></g></g><g><path d="m428.213 62.574-21.213 21.213-21.213-21.213-21.213 21.213 21.213 21.213-21.213 21.213 21.213 21.213 21.213-21.213 21.213 21.213 21.213-21.213-21.213-21.213 21.213-21.213z"/><path d="m407 0c-57.897 0-105 47.103-105 105s47.103 105 105 105 105-47.103 105-105-47.103-105-105-105zm0 180c-41.355 0-75-33.645-75-75s33.645-75 75-75 75 33.645 75 75-33.645 75-75 75z"/></g></g></svg>