<?xml version="1.0" encoding="iso-8859-1"?>
<!-- Generator: Adobe Illustrator 19.0.0, SVG Export Plug-In . SVG Version: 6.00 Build 0)  -->
<svg xmlns="http://www.w3.org/2000/svg" xmlns:xlink="http://www.w3.org/1999/xlink" version="1.1" id="Layer_1" x="0px" y="0px" viewBox="0 0 512 512" style="enable-background:new 0 0 512 512;" xml:space="preserve">
<g>
	<g>
		<path d="M403.331,35.004V7.837h-31.347v27.167H140.016V7.837h-31.347v27.167H0v98.22v31.347v339.592h512V164.571v-31.347v-98.22    H403.331z M480.653,472.816H31.347V164.571h449.306V472.816z M480.653,133.224H31.347V66.351h77.322v27.167h31.347V66.351h231.967    v27.167h31.347V66.351h77.322V133.224z"/>
	</g>
</g>
<g>
	<g>
		<rect x="73.404" y="271.151" width="62.694" height="31.347"/>
	</g>
</g>
<g>
	<g>
		<rect x="73.404" y="334.89" width="62.694" height="31.347"/>
	</g>
</g>
<g>
	<g>
		<rect x="73.404" y="398.629" width="62.694" height="31.347"/>
	</g>
</g>
<g>
	<g>
		<rect x="174.237" y="271.151" width="62.694" height="31.347"/>
	</g>
</g>
<g>
	<g>
		<rect x="174.237" y="334.89" width="62.694" height="31.347"/>
	</g>
</g>
<g>
	<g>
		<rect x="174.237" y="398.629" width="62.694" height="31.347"/>
	</g>
</g>
<g>
	<g>
		<rect x="275.069" y="207.412" width="62.694" height="31.347"/>
	</g>
</g>
<g>
	<g>
		<rect x="275.069" y="271.151" width="62.694" height="31.347"/>
	</g>
</g>
<g>
	<g>
		<rect x="275.069" y="334.89" width="62.694" height="31.347"/>
	</g>
</g>
<g>
	<g>
		<rect x="275.069" y="398.629" width="62.694" height="31.347"/>
	</g>
</g>
<g>
	<g>
		<rect x="375.902" y="207.412" width="62.694" height="31.347"/>
	</g>
</g>
<g>
	<g>
		<rect x="375.902" y="271.151" width="62.694" height="31.347"/>
	</g>
</g>
<g>
	<g>
		<rect x="375.902" y="334.89" width="62.694" height="31.347"/>
	</g>
</g>
<g>
</g>
<g>
</g>
<g>
</g>
<g>
</g>
<g>
</g>
<g>
</g>
<g>
</g>
<g>
</g>
<g>
</g>
<g>
</g>
<g>
</g>
<g>
</g>
<g>
</g>
<g>
</g>
<g>
</g>
</svg>
