<svg id="Capa_1" enable-background="new 0 0 510 510" height="512" viewBox="0 0 510 510" width="512" xmlns="http://www.w3.org/2000/svg"><g><path d="m280.185 211.16-25.185-44.073-25.185 44.073h-50.749l25.312 43.84-25.311 43.84h50.749l25.184 44.073 25.185-44.073h50.747l-25.31-43.84 25.311-43.84zm-1.214 57.68h-16.196l-7.775 13.606-7.775-13.606h-16.196l7.99-13.84-7.99-13.84h16.196l7.775-13.606 7.775 13.607h16.196l-7.99 13.84z"/><path d="m240 0h30v30h-30z"/><path d="m148.156 18.269h30v30h-30z" transform="matrix(.924 -.383 .383 .924 -.312 64.97)"/><path d="m70.295 70.295h30v30h-30z" transform="matrix(.707 -.707 .707 .707 -35.33 85.294)"/><path d="m18.269 148.156h30v30h-30z" transform="matrix(.383 -.924 .924 .383 -130.199 131.455)"/><path d="m0 240h30v30h-30z"/><path d="m18.269 331.844h30v30h-30z" transform="matrix(.924 -.383 .383 .924 -130.197 39.133)"/><path d="m70.295 409.706h30v30h-30z" transform="matrix(.707 -.707 .707 .707 -275.33 184.706)"/><path d="m148.156 461.731h30v30h-30z" transform="matrix(.383 -.924 .924 .383 -339.724 445.033)"/><path d="m240 480h30v30h-30z"/><path d="m331.844 461.731h30v30h-30z" transform="matrix(.924 -.383 .383 .924 -156.036 169.021)"/><path d="m409.706 409.706h30v30h-30z" transform="matrix(.707 -.707 .707 .707 -175.919 424.706)"/><path d="m461.731 331.844h30v30h-30z" transform="matrix(.383 -.924 .924 .383 -26.149 654.554)"/><path d="m480 240h30v30h-30z"/><path d="m461.731 148.156h30v30h-30z" transform="matrix(.924 -.383 .383 .924 -26.148 194.854)"/><path d="m409.706 70.295h30v30h-30z" transform="matrix(.707 -.707 .707 .707 64.081 325.294)"/><path d="m398.632 211.741 42.264-17.507-11.48-27.716-42.298 17.52c-4.582-8.494-9.955-16.502-16.026-23.918l32.4-32.4-21.213-21.213-32.4 32.4c-7.416-6.072-15.421-11.448-23.917-16.03l17.52-42.295-27.717-11.481-17.507 42.265c-9.088-2.742-18.54-4.627-28.258-5.6v-45.766h-30v45.748c-9.721.97-19.169 2.878-28.258 5.62l-17.507-42.265-27.717 11.481 17.52 42.295c-8.496 4.582-16.501 9.958-23.917 16.03l-32.4-32.4-21.213 21.213 32.4 32.4c-6.072 7.416-11.449 15.421-16.03 23.917l-42.295-17.52-11.481 27.717 42.265 17.507c-2.743 9.089-4.651 18.537-5.62 28.258h-45.747v30h45.748c.969 9.721 2.877 19.169 5.62 28.258l-42.265 17.507 11.481 27.717 42.295-17.52c4.581 8.496 9.958 16.5 16.03 23.917l-32.4 32.4 21.213 21.213 32.4-32.4c7.416 6.072 15.421 11.448 23.917 16.03l-17.52 42.295 27.717 11.481 17.507-42.266c9.09 2.743 18.537 4.65 28.258 5.62v45.747h30v-45.748c9.721-.97 19.168-2.878 28.258-5.62l17.507 42.266 27.717-11.481-17.52-42.295c8.496-4.582 16.5-9.958 23.917-16.03l32.4 32.4 21.213-21.213-32.4-32.4c6.072-7.416 11.449-15.421 16.03-23.917l42.294 17.52 11.48-27.716-42.265-17.507c2.743-9.089 4.651-18.537 5.62-28.258h45.748v-30h-45.753c-.971-9.722-2.872-19.171-5.615-28.26zm-143.632 163.259c-66.169 0-120-53.832-120-120s53.831-120 120-120 120 53.831 120 120-53.832 120-120 120z"/><path d="m331.844 18.269h30v30h-30z" transform="matrix(.383 -.924 .924 .383 183.378 340.981)"/></g></svg>