<svg id="Capa_1" enable-background="new 0 0 512 512" height="512" viewBox="0 0 512 512" width="512" xmlns="http://www.w3.org/2000/svg"><g><path d="m463.711 241h-26.711v-150.5c0-66.798-32.591-90.5-60.5-90.5s-60.5 23.702-60.5 90.5v150.5h-26.711l-18.289 73.153v197.847h211v-197.847zm-11.711 90v30h-151v-30zm-75.5-301c18.243 0 30.5 24.313 30.5 60.5 0 16.71-13.682 30.305-30.5 30.305s-30.5-13.595-30.5-30.305c0-36.187 12.257-60.5 30.5-60.5zm-30.5 112.548c8.962 5.238 19.381 8.256 30.5 8.256s21.538-3.018 30.5-8.256v98.452h-61zm94.289 128.452 7.5 30h-142.577l7.5-30zm-139.289 211v-91h151v91z"/><path d="m105.5 362h60v30h-60z"/><path d="m195.846 181h-120.692l-3.664 9.699c-25.98 68.776-41.49 183.28-41.49 306.301v15h211v-15c0-123.021-15.51-237.525-41.49-306.301zm-99.772 30h78.853c17.584 51.553 29.596 126.715 34.098 211h-147.05c4.502-84.285 16.514-159.447 34.099-211zm-35.996 271c.105-10.084.315-20.091.627-30h149.591c.312 9.909.522 19.916.627 30z"/></g></svg>