<svg id="Capa_1" enable-background="new 0 0 511.995 511.995" height="512" viewBox="0 0 511.995 511.995" width="512" xmlns="http://www.w3.org/2000/svg"><g><path d="m255.997 0-226 64.266v221.729c0 60.367 23.508 117.121 66.194 159.806s99.439 66.194 159.806 66.194 117.121-23.508 159.806-66.194 66.194-99.439 66.194-159.806v-221.729zm196 242.484h-39.309c-6.495-22.132-26.986-38.338-51.191-38.338s-44.696 16.207-51.191 38.338h-39.309v-67.162h-15c-12.869 0-23.338-10.47-23.338-23.338s10.47-23.338 23.338-23.338h15v-93.191l181 51.469zm-211-207.029v65.338c-22.132 6.496-38.338 26.986-38.338 51.191s16.207 44.696 38.338 51.191v39.309h-67.162v15c0 12.869-10.47 23.338-23.338 23.338s-23.338-10.47-23.338-23.338v-15h-67.162v-155.56zm-181 250.54v-13.511h39.309c6.495 22.132 26.986 38.338 51.191 38.338s44.696-16.207 51.191-38.338h39.309v67.162h15c12.869 0 23.338 10.47 23.338 23.338s-10.47 23.338-23.338 23.338h-15v95.103c-101.093-7.686-181-92.402-181-195.43zm211 195.431v-67.25c22.132-6.496 38.338-26.986 38.338-51.191s-16.207-44.696-38.338-51.191v-39.309h67.162v-15c0-12.869 10.47-23.338 23.338-23.338s23.338 10.47 23.338 23.338v15h67.162v13.511c0 103.027-79.906 187.743-181 195.43z"/></g></svg>