<svg id="Capa_1" enable-background="new 0 0 512 512" height="512" viewBox="0 0 512 512" width="512" xmlns="http://www.w3.org/2000/svg"><g><path d="m355.565 199.129c-8.829 0-17.486.747-25.921 2.16l.017-.161h-.422l4.055-51.312h29.697v-29.977h-26.24l-24.57-59.999h-66.365l-19.947-59.84h-91.731l-17.414 59.84h-70.586l-20.55 59.999h-25.588v29.977h30.183l36.347 362.184h229.919l1.25-11.098c17.908 7.155 37.434 11.098 57.866 11.098 37.576 0 72.939-13.058 101.141-37.066 4.261 1.472 8.829 2.283 13.584 2.283 22.999 0 41.71-18.711 41.71-41.71v-79.942c0-86.259-70.177-156.436-156.435-156.436zm-156.436 156.436c0 18.455 3.221 36.169 9.116 52.622h-122.901l-18.358-177.082h193.924c-37.519 28.603-61.781 73.748-61.781 124.46zm-42.494-325.588h47.628l9.954 29.863h-66.273zm-89.078 59.84h224.506l12.294 30.022h-247.082zm-7.307 59.998h242.972l-4.055 51.312h-234.937zm33.105 332.208-4.881-43.86h134.298c10.679 17.106 24.567 32.008 40.818 43.86zm135.751-126.458c0-21.18 5.241-41.156 14.484-58.711 26.568 2.121 47.542 24.403 47.542 51.507v7.204c0 35.528 28.905 64.433 64.433 64.433 26.901 0 49.992-16.577 59.627-40.046 7.925 3.938 13.387 12.115 13.387 21.549v34.007c0 7.105 1.79 13.798 4.936 19.659-22.136 17.42-49.242 26.857-77.95 26.857-69.73-.001-126.459-56.73-126.459-126.459zm126.459-34.457c19 0 34.457 15.457 34.457 34.457 0 18.999-15.457 34.456-34.457 34.456-18.999 0-34.456-15.457-34.456-34.456 0-19 15.456-34.457 34.456-34.457zm126.458 114.399c0 6.47-5.264 11.733-11.733 11.733-6.47 0-11.734-5.263-11.734-11.733v-34.007c0-24.517-16.421-45.259-38.839-51.839-2.992-32.771-30.614-58.531-64.152-58.531-17.273 0-32.968 6.845-44.549 17.949-10.292-18.677-27.682-32.903-48.509-39.047 23.128-25.143 56.282-40.927 93.058-40.927 69.73 0 126.458 56.729 126.458 126.458z"/></g></svg>