<?xml version="1.0" encoding="iso-8859-1"?>
<!-- Generator: Adobe Illustrator 19.0.0, SVG Export Plug-In . SVG Version: 6.00 Build 0)  -->
<svg xmlns="http://www.w3.org/2000/svg" xmlns:xlink="http://www.w3.org/1999/xlink" version="1.1" id="Layer_1" x="0px" y="0px" viewBox="0 0 512 512" style="enable-background:new 0 0 512 512;" xml:space="preserve">
<g>
	<g>
		<circle cx="256" cy="317.979" r="32.337"/>
	</g>
</g>
<g>
	<g>
		<path d="M304.505,222.338V0h-32.337v123.958h-32.337V0h-32.337v222.338c-45.225,7.708-79.764,47.175-79.764,94.563h32.337    c0-35.066,28.53-63.596,63.596-63.596h64.674c35.066,0,63.596,28.53,63.596,63.596h32.337    C384.269,269.513,349.73,230.046,304.505,222.338z M272.168,220.968h-32.337v-64.674h32.337V220.968z"/>
	</g>
</g>
<g>
	<g>
		<path d="M458.105,433.853h-32.337c0,25.26-20.55,45.811-45.811,45.811s-45.811-20.55-45.811-45.811h-32.337    c0,25.26-20.55,45.811-45.811,45.811s-45.811-20.55-45.811-45.811h-32.337c0,25.26-20.55,45.811-45.811,45.811    s-45.811-20.55-45.811-45.811H53.895c0,25.26-20.55,45.811-45.811,45.811V512c25.217,0,47.68-12.003,61.979-30.599    C84.363,499.997,106.825,512,132.042,512s47.68-12.003,61.979-30.599C208.32,499.997,230.783,512,256,512    s47.68-12.003,61.979-30.599C332.278,499.997,354.741,512,379.958,512s47.68-12.003,61.979-30.599    C456.236,499.997,478.698,512,503.916,512v-32.337C478.655,479.663,458.105,459.113,458.105,433.853z"/>
	</g>
</g>
<g>
</g>
<g>
</g>
<g>
</g>
<g>
</g>
<g>
</g>
<g>
</g>
<g>
</g>
<g>
</g>
<g>
</g>
<g>
</g>
<g>
</g>
<g>
</g>
<g>
</g>
<g>
</g>
<g>
</g>
</svg>
