<svg id="Capa_1" enable-background="new 0 0 511.885 511.885" height="512" viewBox="0 0 511.885 511.885" width="512" xmlns="http://www.w3.org/2000/svg"><g><path d="m456.093 65.677-33.572-33.573-24.32 24.32-55.934-56.424-135.255 135.255 57.094 57.596c-9.87 11.253-19.418 22.783-28.561 34.538-18.541 23.837-38.767 46.748-60.114 68.097l-121.963 121.963c-21.569 21.569-21.568 56.665 0 78.233 10.448 10.449 24.341 16.203 39.117 16.203 14.775 0 28.669-5.755 39.117-16.203l121.963-121.962c22.229-22.229 43.284-46.08 62.581-70.891 18.54-23.836 38.765-46.746 60.114-68.096l79.733-79.733c11.93-11.929 18.5-27.79 18.5-44.662s-6.57-32.732-18.5-44.661zm-381.411 408.792c-9.872-9.872-9.873-25.935-.001-35.807l58.875-58.875 35.808 35.808-58.875 58.875c-4.782 4.782-11.141 7.416-17.904 7.416-6.762-.001-13.12-2.635-17.903-7.417zm115.896-80.088-35.808-35.808 41.875-41.874c22.225-22.224 43.28-46.076 62.582-70.891 18.537-23.834 38.762-46.745 60.112-68.096l103.182-103.182 12.359 12.359c6.264 6.263 9.713 14.59 9.713 23.448 0 8.857-3.449 17.185-9.713 23.448l-79.733 79.734c-22.226 22.225-43.281 46.077-62.582 70.891-18.536 23.833-38.761 46.744-60.113 68.096zm150.484-280.818-34.965-34.966 36.078-36.078 34.813 35.118zm-56.178-13.753 34.965 34.966s-30.954 31.105-35.494 35.889l-35.009-35.316z"/></g></svg>