<svg id="Capa_1" enable-background="new 0 0 512.001 512.001" height="512" viewBox="0 0 512.001 512.001" width="512" xmlns="http://www.w3.org/2000/svg"><g><path d="m255.361 492.405c41.493 0 75.25-33.757 75.25-75.25 0-17.593-10.961-39.561-33.51-67.157-24.528-28.951-27.92-30.387-41.74-43.884-14.44 14.052-17.101 14.893-41.74 43.884-22.549 27.596-33.51 49.563-33.51 67.157 0 41.493 33.757 75.25 75.25 75.25zm0-144.435c21.357 22.33 45.25 53.361 45.25 69.185 0 24.951-20.299 45.25-45.25 45.25s-45.25-20.299-45.25-45.25c0-15.824 23.892-46.857 45.25-69.185z"/><path d="m105.375 411.539c32.436 0 58.823-26.388 58.823-58.823 0-13.778-8.274-30.602-25.296-51.435-19.184-22.597-21.359-23.09-33.527-34.966-13.097 12.719-14.263 12.38-33.527 34.966-17.021 20.833-25.296 37.657-25.296 51.435 0 32.435 26.388 58.823 58.823 58.823zm.035-103.228c17.581 18.875 28.789 37.167 28.789 44.405 0 15.893-12.93 28.823-28.823 28.823s-28.823-12.93-28.823-28.823c-.001-8.661 13.567-27.876 28.857-44.405z"/><g><path d="m0 155.096c15.637 16.845 24.952 31.573 80.444 72.508 58.434 41.209 119.141 62.992 175.557 62.992s117.123-21.782 175.557-62.992c55.737-41.239 64.503-55.282 80.444-72.508-15.637-16.845-24.952-31.573-80.444-72.508-58.435-41.21-119.141-62.992-175.558-62.992s-117.122 21.782-175.556 62.991c-55.492 40.935-64.807 55.664-80.444 72.509zm150.5 0c0-58.173 47.327-105.5 105.5-105.5s105.5 47.327 105.5 105.5-47.327 105.5-105.5 105.5-105.5-47.327-105.5-105.5zm263.17 48.412c-12.89 9.057-28.253 18.711-45.456 27.458 14.693-21.662 23.286-47.781 23.286-75.87 0-28.121-8.613-54.266-23.336-75.942 14.448 7.343 29.654 16.392 45.506 27.53 26.44 18.578 46.614 37.36 57.656 48.412-11.039 11.049-31.213 29.832-57.656 48.412zm-372.994-48.412c11.042-11.052 31.215-29.834 57.655-48.412 12.892-9.058 28.257-18.717 45.462-27.467-14.697 21.664-23.293 47.786-23.293 75.88 0 28.122 8.614 54.268 23.338 75.944-14.447-7.343-29.654-16.394-45.507-27.532-26.44-18.579-46.614-37.362-57.655-48.413z"/><path d="m256 94.908c-33.188 0-60.188 27-60.188 60.188s27 60.188 60.188 60.188 60.188-27 60.188-60.188-27-60.188-60.188-60.188zm0 90.375c-16.646 0-30.188-13.542-30.188-30.188s13.542-30.188 30.188-30.188 30.188 13.542 30.188 30.188-13.542 30.188-30.188 30.188z"/></g></g></svg>