<svg id="Capa_1" enable-background="new 0 0 510 510" height="512" viewBox="0 0 510 510" width="512" xmlns="http://www.w3.org/2000/svg"><g><path d="m105 480h405v30h-405z"/><path d="m0 420h405v30h-405z"/><path d="m495 0h-480v360h480zm-30 330h-420v-300h420z"/><path d="m202.624 260.748c41.127 16.092 85.091 24.252 130.669 24.252h82.716c1.706-6.604 18.794-46.547 18.794-105 0-58.598-17.134-98.576-18.794-105h-82.716c-45.578 0-89.542 8.16-130.669 24.252-72.303 28.293-118.139 74.352-126.673 80.748 8.524 6.389 54.383 52.459 126.673 80.748zm130.669-155.748h60.862c14.074 48.747 14.074 101.253 0 150h-60.862c-77.636 0-146.728-24.561-210.688-75 63.96-50.439 133.052-75 210.688-75z"/><path d="m225.317 164.259h53.668v30h-53.668z" transform="matrix(.191 -.982 .982 .191 28.028 392.526)"/><path d="m297.871 164.259h83.313v29.999h-83.313z" transform="matrix(.123 -.992 .992 .123 119.853 494.149)"/></g></svg>