<svg id="Layer_1" enable-background="new 0 0 510 510" height="512" viewBox="0 0 510 510" width="512" xmlns="http://www.w3.org/2000/svg"><path d="m352.793 330h-75v-135h-30v-195h-150v195h-30v315h285c119.264-4.539 119.173-175.504 0-180zm-43.809 30-84 120h-1.488l-52.947-47.064 97.244-72.936zm-153.166-103.324c-67.788 87.165-56.801 73.037-58.024 74.61v-98.786zm91.975 80.824-12.775 9.582-70.28-53.003 19.781-25.443 63.274 26.364zm-101.474-19.736 63.719 48.054-62.371 46.779-44.409-39.475zm101.474-55.264-90.001-37.5h90.001zm-120-232.5h90v165h-90zm-30 378.402 80.548 71.598h-80.548zm163.81 71.598 26.612-38.018 74.402 37.2c-8.756 1.449-5.934.538-101.014.818zm133.902-17.914-89.898-44.949 39.996-57.137h7.19c53.086-.122 79.815 64.961 42.712 102.086z"/></svg>