<svg id="Capa_1" enable-background="new 0 0 512 512" height="512" viewBox="0 0 512 512" width="512" xmlns="http://www.w3.org/2000/svg"><path d="m482 321.034v-2.57c.001-24.805-20.194-45-45-45-18.803 0-26.494 9.833-45.993 20.579-4.342-20.306-22.425-35.579-44.008-35.579-24.912 0-45.149 20.359-44.999 45.271.048 8.102-6.708 14.729-15.002 14.729-.002 0 0 0-.002 0-10.66 0-21.198.609-31.602 1.78l105.565-105.564c5.803-5.803 15.388-5.826 21.213 0 17.539 17.54 46.101 17.54 63.64 0 15.529-15.528 17.021-39.227 5.964-56.277 21.344-6.176 33.763-4.661 47.069-17.969 17.54-17.539 17.54-46.1 0-63.639l-1.818-1.818c7.969-16.724 5.04-37.387-8.789-51.215-13.827-13.829-34.49-16.759-51.215-8.789l-1.818-1.817c-17.538-17.539-46.099-17.541-63.639-.001-13.296 13.295-11.775 25.664-17.969 47.07-17.048-11.055-40.747-9.567-56.277 5.964-17.54 17.539-17.54 46.101 0 63.64 5.803 5.803 5.826 15.388 0 21.213l-105.564 105.562c1.171-10.405 1.78-20.943 1.78-31.604 0-8.235 6.551-15.002 14.642-15.002.121 0 .241.001.364.001 24.796 0 44.994-20.191 44.994-45 0-21.583-15.273-39.666-35.579-44.008 10.706-19.425 20.579-27.174 20.579-45.993 0-24.804-20.195-45.001-45-45h-2.57c-6.191-17.461-22.874-30-42.43-30s-36.239 12.54-42.429 30h-2.57c-24.813 0-45 20.187-45 45 0 18.803 9.82 26.471 20.579 45.992-20.306 4.342-35.579 22.425-35.579 44.008 0 24.798 20.189 45.001 44.996 45 .091 0 .184 0 .274-.001 8.15-.031 14.729 6.74 14.729 15.001 0 51.357-19.84 97.237-58.97 136.367l-44.566 44.569c6.992 6.992 98.731 98.73 106.066 106.066l44.566-44.566c39.129-39.13 85.01-58.97 136.367-58.97 8.229 0 15.05 6.566 15.001 14.729-.15 24.912 20.086 45.271 44.999 45.271 21.583 0 39.666-15.273 44.008-35.579 19.462 10.727 27.182 20.579 45.992 20.579 24.813 0 45-20.187 45-45v-2.571c17.461-6.19 30-22.873 30-42.429s-12.538-36.239-29.999-42.43zm-163.467-148.78c17.545-17.545 17.545-46.094 0-63.639-5.804-5.804-5.825-15.389 0-21.214 5.815-5.815 15.399-5.814 21.213 0l30.852 30.852 18.437-77.341c1.966-9.845 16.237-15.264 24.958-6.543l21.213 21.212 10.606-10.606c5.803-5.803 15.388-5.826 21.213 0 5.803 5.803 5.826 15.388 0 21.213l-10.606 10.606 21.213 21.213c8.705 8.706 3.307 22.99-6.543 24.958l-77.341 18.437 30.852 30.852c5.815 5.815 5.814 15.399 0 21.213-5.804 5.804-15.389 5.825-21.214 0-17.544-17.546-46.094-17.546-63.639 0l-138.587 138.586c-13.212 4.348-24.698 9.17-36.043 14.83 5.725-11.476 10.525-22.962 14.83-36.044zm-252.754 210.327c44.96-44.959 67.757-97.977 67.757-157.58 0-12.126-4.73-23.507-13.32-32.045-8.171-8.122-18.941-12.903-31.679-12.955-8.224 0-15.001-6.775-15.001-15 0-8.271 6.729-15 15-15h43.63c-43.79-72.446-43.63-67.979-43.63-75 0-8.271 6.729-15 15-15l30-.001v-15c0-8.271 6.729-15 15-15s15 6.729 15 15v15h30c8.207 0 15 6.761 15 15 0 7.245-.662 3.913-43.631 75h43.631c8.271 0 15 6.729 15 15 0 8.224-6.776 15-15 15-.122 0-.242-.001-.363-.001-11.792 0-22.905 4.595-31.317 12.957-8.59 8.539-13.32 19.919-13.32 32.045 0 67.843-25.749 127.994-76.532 178.783-.004.004-.008.007-.012.011-2.465 2.465-20.041 20.041-23.352 23.352l-21.213-21.213zm401.221-4.118h-15l-.001 30c0 12.309-13.912 18.601-22.273 13.021l-67.726-41.651v43.63c0 8.271-6.729 15-15 15-8.244 0-15.048-6.815-15-15.091.072-11.894-4.529-23.112-12.955-31.589-8.539-8.59-19.919-13.32-32.045-13.32-59.603 0-112.62 22.797-157.58 67.757l-23.353 23.353-21.214-21.213s23.36-23.36 23.364-23.364c50.789-50.783 110.94-76.533 178.783-76.532 12.126 0 23.506-4.73 32.045-13.32 8.426-8.476 13.027-19.695 12.956-31.589-.05-8.276 6.758-15.09 15-15.09 8.271 0 15 6.729 15 15v43.631l67.725-41.652c8.705-5.805 22.275 1.095 22.275 13.021v30h15c8.271 0 15 6.729 15 15-.001 8.269-6.73 14.998-15.001 14.998z"/></svg>