<svg id="Capa_1" enable-background="new 0 0 512 512" height="512" viewBox="0 0 512 512" width="512" xmlns="http://www.w3.org/2000/svg"><g><path d="m512 184.494c0-33.132-16.158-64.164-42.778-83.283.096-1.387.145-2.778.145-4.17 0-33.084-26.916-60-60-60-2.678 0-5.343.178-7.982.533-19.371-23.701-48.302-37.574-79.288-37.574-24.364 0-47.727 8.676-66.097 24.202-18.37-15.526-41.733-24.202-66.097-24.202-30.997 0-59.934 13.882-79.304 37.596-2.693-.369-5.413-.555-8.146-.555-33.084 0-60 26.916-60 60 0 1.433.051 2.865.153 4.292-26.513 19.13-42.606 50.115-42.606 83.161s16.093 64.031 42.606 83.161c-.102 1.427-.153 2.859-.153 4.292 0 33.084 26.916 60 60 60 2.733 0 5.452-.186 8.145-.554 16.502 20.206 39.948 33.264 65.697 36.69 9.104 12.414 14.496 27.711 14.496 44.251v99.666h130.419v-99.667c0-16.535 5.379-31.837 14.478-44.249 25.745-3.422 49.193-16.475 65.698-36.67 2.639.354 5.304.532 7.981.532 33.084 0 60-26.916 60-60 0-1.392-.048-2.783-.145-4.169 26.62-19.119 42.778-50.151 42.778-83.283zm-220.791 297.506h-70.419v-69.667c0-16.272-3.731-31.685-10.368-45.445 10.771-2.205 21.094-6.112 30.577-11.576v27.688h30v-27.688c9.483 5.465 19.806 9.371 30.577 11.576-6.637 13.76-10.368 29.173-10.368 45.445v69.667zm154.231-234.554-9.989 5.71 2.926 11.127c.656 2.496.989 5.074.989 7.663 0 16.542-13.458 30-30 30-3.229 0-6.423-.519-9.492-1.542l-10.926-3.644-6.341 9.614c-13.47 20.422-36.091 32.615-60.511 32.615-21.007 0-40.966-9.129-54.761-25.048l-11.335-13.08-11.336 13.081c-13.794 15.918-33.754 25.048-54.761 25.048-24.439 0-47.07-12.208-60.537-32.656l-6.362-9.661-10.96 3.698c-3.099 1.045-6.326 1.576-9.591 1.576-16.542 0-30-13.458-30-30 0-2.607.338-5.204 1.005-7.718l2.952-11.123-9.979-5.731c-22.472-12.908-36.431-37.001-36.431-62.881 0-25.879 13.959-49.974 36.432-62.88l9.979-5.732-2.952-11.123c-.667-2.514-1.005-5.111-1.005-7.718 0-16.542 13.458-30 30-30 3.264 0 6.491.53 9.592 1.576l10.959 3.697 6.362-9.66c13.467-20.446 36.097-32.654 60.536-32.654 21.007 0 40.967 9.129 54.761 25.047l11.336 13.081 11.336-13.081c13.794-15.918 33.754-25.047 54.761-25.047 24.42 0 47.041 12.192 60.51 32.613l6.341 9.614 10.925-3.643c3.07-1.024 6.264-1.543 9.493-1.543 16.542 0 30 13.458 30 30 0 2.589-.333 5.167-.989 7.664l-2.926 11.127 9.989 5.71c22.551 12.891 36.56 37.013 36.56 62.952s-14.009 50.061-36.56 62.952z"/><path d="m105.548 127.375c-14.413 11.755-23.048 29.548-23.048 48.448 0 22.305 12.025 43.067 31.383 54.185l14.941-26.015c-10.069-5.783-16.324-16.577-16.324-28.17s6.255-22.387 16.324-28.17l9.978-5.731-2.95-11.122c-.21-.792-.316-1.609-.316-2.43 0-5.193 4.225-9.417 9.417-9.417v-30c-21.402 0-38.874 17.145-39.405 38.422z"/><path d="m377.691 104.797c-11.756-14.413-29.549-23.047-48.448-23.047-22.304 0-43.066 12.025-54.185 31.382l26.015 14.941c5.783-10.069 16.577-16.324 28.17-16.324s22.387 6.255 28.17 16.324l5.731 9.978 11.122-2.95c.792-.21 1.609-.316 2.43-.316 5.193 0 9.417 4.225 9.417 9.417h30c0-21.401-17.145-38.874-38.422-39.405z"/></g></svg>