<svg id="Capa_1" enable-background="new 0 0 511.578 511.578" height="512" viewBox="0 0 511.578 511.578" width="512" xmlns="http://www.w3.org/2000/svg"><g><path d="m197.029 54.192c-12.387-21.515-34.305-40.73-58.181-54.192-40.049 22.108-60.206 53.227-66.548 71.619h-43.957v164.768 28.51c0 55.846 41.643 102.141 95.506 109.484v137.198h30v-137.199c53.862-7.343 95.505-53.638 95.505-109.484v-193.277h-43.927c-1.726-4.651-4.381-10.654-8.398-17.427zm-58.181-18.69c18.743 13.172 28.918 27.208 34.319 37.327-11.855 1.437-23.324 4.139-34.271 7.964-11.153-3.893-22.648-6.557-34.363-7.971 5.402-10.118 15.576-24.151 34.315-37.32zm-80.505 66.117c9.131.117 30.415-.404 39.201.62-15.182 10.847-28.45 24.206-39.201 39.462zm161.011 163.277c-4.414 106.784-156.598 106.788-161.011-.001v-28.509c0-74.312 60.456-134.768 134.767-134.768h26.244z"/><path d="m457.538 169.578c-3.979 0-7.924.15-11.833.429-6.4-17.213-23.743-42.238-57.702-61.007-34 18.791-51.329 43.85-57.708 61.023-8.015-.738-29.191-.36-37.524-.445v158h.15c-3.469 49.501 32.291 93.473 80.082 100.815v83.185h30v-83.185c45.41-7.216 80.232-46.639 80.232-94.047v-164.768zm-69.532-24.992c15.104 10.958 23.099 22.483 27.216 30.51-9.416 2.504-18.501 5.824-27.179 9.878-8.763-4.079-17.891-7.376-27.249-9.855 4.125-8.006 12.141-19.581 27.212-30.533zm-65.235 55.058c11.337.347 22.383 2.077 33.061 5.156-12.638 9.943-23.785 21.697-33.061 34.86zm130.464 134.702c0 35.97-29.263 65.232-65.232 65.232s-65.232-29.263-65.232-65.232c0-72.873 58.135-132.423 130.465-134.7v134.7z"/></g></svg>