<?xml version="1.0" encoding="iso-8859-1"?>
<!-- Generator: Adobe Illustrator 19.0.0, SVG Export Plug-In . SVG Version: 6.00 Build 0)  -->
<svg xmlns="http://www.w3.org/2000/svg" xmlns:xlink="http://www.w3.org/1999/xlink" version="1.1" id="Layer_1" x="0px" y="0px" viewBox="0 0 512 512" style="enable-background:new 0 0 512 512;" xml:space="preserve">
<g>
	<g>
		<path d="M349.069,111.165c-2.097-20.085-13.435-36.925-29.311-46.117V0H192.242v65.048c-15.877,9.192-27.215,26.033-29.312,46.118    L121.086,512h269.828L349.069,111.165z M222.242,29.9h67.516v27.63h-67.516V29.9z M192.77,114.26    c1.431-13.721,11.06-24.409,23.151-26.465h80.158c12.091,2.056,21.719,12.744,23.152,26.465l31.747,304.111H161.022L192.77,114.26    z M182.026,482.1H154.37l3.531-33.829h24.125V482.1z M241,482.1h-28.975v-33.828H241V482.1z M299.975,482.1H271v-33.829h28.975    V482.1z M329.975,448.272H354.1l3.531,33.828h-27.656V448.272z"/>
	</g>
</g>
<g>
	<g>
		<path d="M306.017,172.923H205.983l-10.112,91.947h120.258L306.017,172.923z M229.339,234.97l3.535-32.146h46.252l3.535,32.146    H229.339z"/>
	</g>
</g>
<g>
</g>
<g>
</g>
<g>
</g>
<g>
</g>
<g>
</g>
<g>
</g>
<g>
</g>
<g>
</g>
<g>
</g>
<g>
</g>
<g>
</g>
<g>
</g>
<g>
</g>
<g>
</g>
<g>
</g>
</svg>
