<svg id="Capa_1" enable-background="new 0 0 508.568 508.568" height="512" viewBox="0 0 508.568 508.568" width="512" xmlns="http://www.w3.org/2000/svg"><g><path d="m481.305 254.275c1.589-105.133-78.133-202.736-181.186-222.389l-6.027 29.389c215.859 49.89 205.267 352.052-11.817 388.024l6.736-11.003-25.588-15.662-27.391 44.749 32.502 41.186 23.551-18.584-8.35-10.581c109.957-12.255 199.739-114.037 197.57-225.129z"/><path d="m102.219 379.561c-98.171-117.424-25.544-300.203 124.119-320.316l-6.747 11.053 25.606 15.631 27.336-44.783-32.553-41.146-23.527 18.613 8.338 10.539c-109.94 12.282-199.697 114.041-197.527 225.125-1.59 105.128 78.131 202.739 181.184 222.388l6.027-29.389c-43.773-8.977-83.64-33.026-112.256-67.715z"/><path d="m254.345 324.05c1.906 0 3.57 1.223 4.141 3.041l19.482 62.186h55.576c1.817-3.666 75.639-196.752 17.356-254.519-10.491-10.344-24.457-15.66-40.306-15.476-23.828.333-36.119 11.318-48.518 23.401h-15.586c-12.397-12.083-24.69-23.068-48.518-23.401-15.891-.207-29.816 5.131-40.305 15.476-58.264 57.979 15.456 250.466 17.354 254.519h55.551l19.634-62.194c.574-1.814 2.237-3.033 4.139-3.033zm-32.746-5.999-13.015 41.226h-12.714c-3.688-7.952-68.154-210.237 1.685-209.998 14.739-.755 24.493 11.752 36.742 23.405h39.973c12.264-11.662 21.989-24.155 36.741-23.404 69.703-.162 5.641 201.175 1.685 209.997h-12.689l-12.895-41.154c-10.095-31.912-55.348-31.947-65.513-.072z"/></g></svg>