<svg id="Layer_1" enable-background="new 0 0 511.964 511.964" height="512" viewBox="0 0 511.964 511.964" width="512" xmlns="http://www.w3.org/2000/svg"><g><path d="m228.901 276.477c23.203 0 42.081-18.877 42.081-42.08v-82.784c12.135 1.217 21.64 11.488 21.64 23.938h30c0-29.808-24.25-54.059-54.059-54.059h-27.582v72.591c-26.307-8.313-54.616 12.624-54.161 40.314.001 23.203 18.878 42.08 42.081 42.08zm0-54.161c6.661 0 12.081 5.419 12.081 12.081-.607 16.004-23.556 15.999-24.161 0 0-6.662 5.419-12.081 12.08-12.081z"/><path d="m155.978 368.21c-17.922 0-33.262 11.262-39.317 27.081h-43.281v30h43.28c13.734 35.892 64.915 35.87 78.635 0h243.289v-30h-243.289c-6.055-15.819-21.396-27.081-39.317-27.081zm0 54.161c-6.661 0-12.08-5.419-12.08-12.081.607-16.005 23.556-16 24.161 0-.001 6.662-5.42 12.081-12.081 12.081z"/><path d="m511.964 122.26h-58.38v-31.249h-58.38v-31.248h-278.444v31.249h-58.38v31.249h-58.38v153.449h58.38v31.249h58.38v31.249h278.443v-31.249h58.38v-31.249h58.38v-153.45zm-481.964 123.449v-93.449h28.38v93.449zm58.38 31.249v-155.947h28.38v155.946h-28.38zm276.824 31.249h-218.444v-218.444h218.443v218.444zm58.38-31.249h-28.38v-155.947h28.38zm58.38-31.249h-28.38v-93.449h28.38z"/></g></svg>