<svg id="Capa_1" enable-background="new 0 0 512 512" height="512" viewBox="0 0 512 512" width="512" xmlns="http://www.w3.org/2000/svg"><g><path d="m483.467 384.454c-17.187-13.094-39.812-20.306-63.71-20.306-25.035 0-46.062 8.232-60.12 23.353h-78.637v36.647h-163c-27.57 0-50-22.43-50-50v-120h67.073c6.23 37.949 39.242 67 78.927 67h134c44.112 0 80-35.888 80-80v-44.135c47.497-7.25 84-48.374 84-97.865 0-54.589-44.411-99-99-99s-99 44.411-99 99c0 49.491 36.503 90.615 84 97.865v44.135c0 27.57-22.43 50-50 50h-134c-23.074 0-42.537-15.714-48.276-37h112.276v-254h-278v254h38v120c0 44.112 35.888 80 80 80h163v34.352h78.637c14.058 15.12 35.085 23.352 60.12 23.352 23.897 0 46.523-7.211 63.71-20.306 18.399-14.018 28.533-33.035 28.533-53.546s-10.134-39.527-28.533-53.546zm-70.467-250.306c16.058 0 30.031 9.63 35.972 23.856-10.481 6.43-22.8 10.144-35.972 10.144s-25.49-3.715-35.972-10.144c5.941-14.227 19.914-23.856 35.972-23.856zm0-104c38.047 0 69 30.953 69 69 0 13.566-3.951 26.219-10.74 36.9-10.568-16.65-27.994-28.201-48.092-31.148l-17.648-40.695-27.52 11.943 13.598 31.361c-15.293 4.947-28.315 15.08-36.857 28.539-6.789-10.681-10.74-23.334-10.74-36.9-.001-38.047 30.952-69 68.999-69zm-270 0h105v194h-105-26.952l-26.048-31.41v-131.18l26.048-31.41zm-113 0h47.075l-17.075 20.59v152.82l17.075 20.59h-47.075zm435.285 437.535c-11.992 9.137-28.161 14.169-45.528 14.169-18.655 0-32.801-5.927-40.907-17.14l-4.491-6.212h-63.359v-41h63.358l4.491-6.212c8.106-11.214 22.252-17.141 40.907-17.141 17.367 0 33.536 5.032 45.528 14.169 10.779 8.213 16.716 18.755 16.716 29.684s-5.937 21.471-16.715 29.683z"/><path d="m140 77.148h30v100h-30z"/></g></svg>