<svg id="Capa_1" enable-background="new 0 0 512 512" height="512" viewBox="0 0 512 512" width="512" xmlns="http://www.w3.org/2000/svg"><g><path d="m354.167 334.501c0 43.217-24.184 57.864-52.185 74.824-10.406 6.303-21.311 12.92-30.981 21.225v-113.033c5.457.699 11.786 1.214 18.616 1.214 18.803 0 41.363-3.895 59.717-18.541 12.278-9.798 20.006-23.791 21.761-39.401 1.754-15.61-2.676-30.97-12.474-43.248-20.225-25.345-57.3-29.513-82.649-9.287-1.742 1.39-3.396 2.84-4.97 4.34v-44.993c3.481.408 9.456.918 15.318.918 21.816 0 40.654-5.859 54.669-17.042 23.47-18.729 27.328-53.061 8.599-76.531-9.959-12.48-24.331-19.414-39.134-20.356 0-.045.003-.089.003-.133-.001-30.028-24.43-54.457-54.457-54.457s-54.456 24.429-54.456 54.456c-16.21.877-30.065 9.12-39.137 20.489-18.729 23.47-14.871 57.802 8.599 76.531 16.848 13.444 37.52 17.013 54.727 17.012 5.53 0 10.696-.37 15.267-.898v45.011c-1.576-1.502-3.233-2.954-4.977-4.346-12.279-9.798-27.64-14.232-43.248-12.474-15.61 1.754-29.604 9.482-39.401 21.76-20.226 25.347-16.06 62.423 9.287 82.649 18.356 14.647 40.913 18.541 59.717 18.541 6.832 0 13.164-.515 18.623-1.215v113.034c-9.67-8.305-20.575-14.922-30.981-21.225-28.002-16.96-52.186-31.607-52.186-74.824h-30c0 60.12 36.952 82.501 66.644 100.484 25.992 15.743 46.522 28.178 46.522 62.016v14.999h30v-14.999c0-33.838 20.53-46.273 46.523-62.016 29.691-17.983 66.643-40.364 66.643-100.484zm-80.852-62.88c2.495-12.422 8.226-29.431 21.367-39.917 12.417-9.908 30.58-7.867 40.488 4.549 9.908 12.417 7.868 30.58-4.549 40.488-18.041 14.396-44.603 12.853-59.359 10.506.292-4.415.887-9.821 2.053-15.626zm-48.279 17.096c-12.664.321-30.522-1.49-43.664-11.976-6.015-4.8-9.801-11.655-10.66-19.302s1.311-15.171 6.111-21.186c9.627-12.066 28.467-14.141 40.488-4.549 18.04 14.396 22.431 40.639 23.418 55.548-4.37.693-9.774 1.313-15.693 1.465zm66.731-198.921c5.03-4.014 11.617-5.55 17.945-4.837 6.344.715 12.429 3.691 16.425 8.698 8.291 10.389 6.506 26.096-3.862 34.37-15.276 12.189-37.664 11.315-50.919 9.37 1.07-13.376 5.21-35.47 20.411-47.601zm-102.049 38.231c-5.106-4.075-8.32-9.894-9.049-16.385-.73-6.491 1.113-12.878 5.187-17.984 8.032-10.066 24.372-11.841 34.37-3.862 15.275 12.189 19.391 34.213 20.436 47.57-13.279 1.925-35.742 2.792-50.944-9.339zm66.266-41.979c-4.692-7.767-10.402-14.4-17.046-19.702-2.144-1.711-4.389-3.243-6.718-4.595-.435-2.385-.676-4.82-.676-7.295 0-13.485 10.971-24.456 24.456-24.456s24.456 10.971 24.456 24.456c0 2.478-.237 4.913-.669 7.297-2.321 1.343-4.573 2.871-6.731 4.593-7.161 5.715-12.736 12.5-17.072 19.702z"/></g></svg>