<svg id="Capa_1" enable-background="new 0 0 512.42 512.42" height="512" viewBox="0 0 512.42 512.42" width="512" xmlns="http://www.w3.org/2000/svg"><g><path d="m368.002 111.792c-26.69 0-51.707 7.287-73.181 19.962-37.564-26.15-84.026-34.056-128.278-21.642l-80.697 22.638 4.499 14.687c2.501 8.166 7.682 19.093 15.687 28.135-8.374 7.009-15.233 15.889-21.683 24.238-16.446 21.29-31.98 41.4-69.349 41.4h-15v20.841l2.964 3.985c2.082 2.799 42.962 56.989 98.342 76.792-5.361 7.583-8.992 15.726-10.961 22.154l-4.499 14.687 80.698 22.638c13.739 3.854 27.687 5.75 41.52 5.75 30.721-.001 60.855-9.361 86.757-27.392 21.474 12.676 46.491 19.963 73.182 19.963 79.632 0 144.418-64.786 144.418-144.418s-64.786-144.418-144.419-144.418zm60.139 47.121c-5.233 28.449-30.2 50.077-60.139 50.077s-54.905-21.628-60.138-50.077c17.486-10.847 38.092-17.122 60.138-17.122 22.047.001 42.654 6.275 60.139 17.122zm-253.494 214.51-48.532-13.615c3.616-5.181 8.515-9.813 14.473-9.813v-30c-39.147 0-75.957-31.132-96.549-52.419 32.649-8.773 50.354-31.694 64.052-49.426 12.691-16.429 20.458-25.725 32.498-25.725v-30c-5.959 0-10.86-4.635-14.475-9.813l48.534-13.615c32.279-9.055 66.032-4.649 94.566 11.973-28.067 26.362-45.629 63.786-45.629 105.24 0 41.453 17.562 78.877 45.629 105.24-28.534 16.622-62.286 21.028-94.567 11.973zm133.217-19.917c5.233-28.448 30.199-50.076 60.138-50.076s54.905 21.628 60.139 50.076c-17.486 10.847-38.092 17.122-60.139 17.122-22.046 0-42.652-6.275-60.138-17.122zm145.425-21.111c-13.04-34.424-46.348-58.965-85.286-58.965s-72.246 24.541-85.286 58.965c-18.105-20.247-29.132-46.951-29.132-76.185 0-29.235 11.026-55.938 29.132-76.185 13.04 34.425 46.348 58.966 85.286 58.966s72.247-24.541 85.286-58.966c18.105 20.247 29.132 46.951 29.132 76.185-.001 29.234-11.027 55.938-29.132 76.185z"/></g></svg>