<?xml version="1.0" encoding="iso-8859-1"?>
<!-- Generator: Adobe Illustrator 19.0.0, SVG Export Plug-In . SVG Version: 6.00 Build 0)  -->
<svg xmlns="http://www.w3.org/2000/svg" xmlns:xlink="http://www.w3.org/1999/xlink" version="1.1" id="Layer_1" x="0px" y="0px" viewBox="0 0 512 512" style="enable-background:new 0 0 512 512;" xml:space="preserve">
<g>
	<g>
		<path d="M385.657,0v71.201H316.92v-7.463c0-8.656-7.018-15.673-15.673-15.673c-8.656,0-15.673,7.018-15.673,15.673v7.463h-35.526    v-7.463c0-8.656-7.018-15.673-15.674-15.673c-8.656,0-15.673,7.018-15.673,15.673v7.463h-35.526v-7.463    c0-8.656-7.018-15.673-15.673-15.673c-8.656,0-15.674,7.018-15.674,15.673v7.463h-25.483V0H39.717v512h86.626v-68.472h26.179    v9.927c0,8.656,7.018,15.673,15.673,15.673s15.673-7.018,15.673-15.673v-9.927h35.527v9.927c0,8.656,7.018,15.673,15.673,15.673    s15.673-7.018,15.673-15.673v-9.927h35.527v9.927c0,8.656,7.018,15.673,15.673,15.673s15.673-7.018,15.673-15.673v-9.927h68.042    V512h86.626V0H385.657z M94.996,480.653H71.064V31.347h23.932V480.653z M385.657,412.181h-68.042v-9.927    c0-8.656-7.018-15.674-15.673-15.674s-15.673,7.018-15.673,15.674v9.927h-35.527v-9.927c0-8.656-7.018-15.674-15.673-15.674    s-15.673,7.018-15.673,15.674v9.927h-35.527v-9.927c0-8.656-7.018-15.674-15.673-15.674s-15.673,7.018-15.673,15.674v9.927    h-26.179V273.038h71.109v9.927c0,8.656,7.018,15.673,15.673,15.673s15.673-7.018,15.673-15.673v-9.927h35.527v9.927    c0,8.656,7.018,15.673,15.673,15.673s15.673-7.018,15.673-15.673v-9.927h35.527v9.927c0,8.656,7.018,15.673,15.673,15.673    s15.673-7.018,15.673-15.673v-9.927h23.111V412.181z M385.657,241.691h-23.111v-9.927c0-8.656-7.018-15.673-15.673-15.673    s-15.673,7.018-15.673,15.673v9.927h-35.527v-9.927c0-8.656-7.018-15.673-15.673-15.673s-15.673,7.018-15.673,15.673v9.927    h-35.527v-9.927c0-8.656-7.018-15.673-15.673-15.673s-15.673,7.018-15.673,15.673v9.927h-71.109V102.548h25.483v12.39    c0,8.656,7.018,15.673,15.674,15.673c8.656,0,15.673-7.018,15.673-15.673v-12.39h35.526v12.39c0,8.656,7.018,15.673,15.673,15.673    c8.656,0,15.674-7.018,15.674-15.673v-12.39h35.526v12.39c0,8.656,7.018,15.673,15.673,15.673c8.656,0,15.673-7.018,15.673-15.673    v-12.39h68.738V241.691z M440.936,480.653h-23.932V31.347h23.932V480.653z"/>
	</g>
</g>
<g>
</g>
<g>
</g>
<g>
</g>
<g>
</g>
<g>
</g>
<g>
</g>
<g>
</g>
<g>
</g>
<g>
</g>
<g>
</g>
<g>
</g>
<g>
</g>
<g>
</g>
<g>
</g>
<g>
</g>
</svg>
