<svg id="Capa_1" enable-background="new 0 0 512 512" height="512" viewBox="0 0 512 512" width="512" xmlns="http://www.w3.org/2000/svg"><g><path d="m464 34.806v-34.806h-416v34.806l32 59v324.388l-32 59v34.806h416v-34.806l-32-59v-324.388zm-31.521-4.806-24.407 45h-304.143l-24.408-45zm-30.479 75v302h-292v-302zm-322.479 377 24.407-45h304.143l24.407 45z"/><path d="m210.843 261.104c4.702 14.9 16.397 26.605 31.157 31.411v38.34c-15.69-11.805-35.569-17.97-55.731-18.74v29.902c25.312.457 45.736 13.031 57.403 35.864h26.656c11.671-22.837 32.088-35.404 57.403-35.864v-29.902c-20.165.771-40.04 6.935-55.731 18.74v-38.34c14.76-4.806 26.455-16.511 31.157-31.411 44.793-14.362 44.766-77.971 0-92.315-14.358-44.793-77.974-44.765-92.314 0-44.794 14.362-44.765 77.971 0 92.315zm13.605-64.53 13.463-.718.717-13.463c.519-9.753 8.59-17.393 18.372-17.393s17.853 7.64 18.372 17.394l.717 13.463 13.463.718c9.754.521 17.395 8.59 17.395 18.372s-7.641 17.853-17.395 18.373l-13.463.718-.717 13.463c-.52 9.753-8.59 17.393-18.372 17.393s-17.853-7.64-18.372-17.393l-.717-13.463-13.463-.718c-23.06-1.941-23.052-34.811 0-36.746z"/></g></svg>