<svg id="Capa_1" enable-background="new 0 0 512 512" height="512" viewBox="0 0 512 512" width="512" xmlns="http://www.w3.org/2000/svg"><g><path d="m285.231 21.486c0 8.169-1.091 16.236-3.223 24.086h-158.694c-2.132-7.85-3.223-15.917-3.223-24.086v-21.486h-30v21.486c0 28.91 10.168 56.666 29.406 80.268 12.109 14.856 27.265 27.341 44.694 36.989-17.429 9.648-32.585 22.133-44.694 36.989-19.237 23.602-29.406 51.358-29.406 80.268 0 28.909 10.168 56.666 29.406 80.268 12.109 14.856 27.265 27.341 44.693 36.989-17.429 9.648-32.585 22.132-44.693 36.989-19.237 23.603-29.406 51.359-29.406 80.269v21.485h30v-21.486c0-8.169 1.091-16.236 3.223-24.086h158.694c2.132 7.85 3.223 15.917 3.223 24.086v21.486h30v-21.486c0-28.91-10.168-56.666-29.406-80.268-12.104-14.851-27.253-27.332-44.673-36.978 30.576-16.897 53.781-42.308 65.643-72.732l7.973-20.449-191.455-.001c-2.132-7.849-3.223-15.917-3.223-24.086s1.091-16.236 3.223-24.086l191.455-.004-7.974-20.449c-11.862-30.422-35.068-55.833-65.643-72.73 17.42-9.646 32.569-22.127 44.673-36.977 19.237-23.602 29.406-51.358 29.406-80.268v-21.486h-30v21.486zm-22.66 407.713c1.923 2.36 3.723 4.772 5.409 7.229h-130.638c1.686-2.456 3.486-4.869 5.41-7.229 14.81-18.171 35.501-32.019 59.91-40.163 24.407 8.144 45.098 21.992 59.909 40.163zm5.457-119.112c-14.573 21.36-37.424 38.064-65.374 47.388-24.405-8.144-45.094-21.991-59.903-40.161-1.923-2.36-3.723-4.772-5.409-7.228zm-.001-108.176-130.685.003c1.686-2.456 3.486-4.869 5.409-7.228 14.809-18.169 35.497-32.016 59.903-40.16 27.95 9.323 50.8 26.026 65.373 47.385zm-65.366-78.947c-24.408-8.144-45.099-21.992-59.91-40.163-1.923-2.36-3.723-4.772-5.409-7.229h130.638c-1.686 2.456-3.486 4.869-5.409 7.229-14.81 18.171-35.501 32.018-59.91 40.163z"/><path d="m361.909 240.999h60v30h-60z"/><path d="m332.886 170.933h60v30h-60z" transform="matrix(.707 -.707 .707 .707 -25.188 311.058)"/><path d="m347.887 296.065h30v60h-30z" transform="matrix(.707 -.707 .707 .707 -124.276 352.099)"/></g></svg>