<svg id="Layer_1" enable-background="new 0 0 510.002 510.002" height="512" viewBox="0 0 510.002 510.002" width="512" xmlns="http://www.w3.org/2000/svg"><g><path d="m204.308 329.452 19.167-39.171-26.947-13.186-26.361 53.876 17.556 29.029h52.278v-30h-35.362z"/><path d="m236.697 195-25.169 51.439 26.947 13.186 16.526-33.776 16.527 33.778 26.948-13.185-25.171-51.442z"/><path d="m305.694 329.452-.331.548h-35.362v30h52.278l17.557-29.029-26.36-53.873-26.948 13.185z"/><path d="m405.001 142.974-90-75v-67.974h-120v67.975l-90 75v47.025c0 9.452 3.294 18.148 8.796 25-11.681 14.549-8.144 29.428-8.796 35 0 9.452 3.294 18.147 8.796 25-5.502 6.853-8.796 15.548-8.796 25v161.25c0 42.699 51.598 64.834 82.5 35.147 18.883 18.14 48.617 18.141 67.5 0 18.883 18.14 48.617 18.141 67.5 0 30.346 29.558 82.62 7.656 82.5-35.147v-161.25c0-9.452-3.294-18.147-8.796-25 11.681-14.549 8.144-29.428 8.796-35 0-9.452-3.294-18.147-8.796-25 5.502-6.852 8.796-15.548 8.796-25zm-180-112.974h60v30h-60zm150 160c0 5.514-4.486 10-10 10v30c5.514 0 10 4.486 10 10v10c0 5.514-4.486 10-10 10v30c5.514 0 10 4.486 10 10v161.25c-.945 24.847-36.563 24.828-37.5 0v-41.25h-30v41.25c-.945 24.847-36.563 24.828-37.5 0v-41.25h-30v41.25c-.945 24.847-36.563 24.828-37.5 0v-41.25h-30v41.25c-.945 24.847-36.563 24.828-37.5 0v-161.25c0-5.514 4.486-10 10-10v-30c-5.514 0-10-4.486-10-10v-10c0-5.514 4.486-10 10-10v-30c-5.514 0-10-4.486-10-10v-32.974l80.431-67.026h79.139l80.431 67.026v32.974z"/></g></svg>