<svg id="Capa_1" enable-background="new 0 0 512.029 512.029" height="512" viewBox="0 0 512.029 512.029" width="512" xmlns="http://www.w3.org/2000/svg"><g><path d="m368.034 380.847c14.281-15.935 22.98-36.969 22.98-60v-30h-60c-23.031 0-44.065 8.7-60 22.98v-56.155c6.701 2.126 13.679 3.202 20.685 3.202 11.756 0 23.587-3.032 34.301-9.218 22.059-12.736 34.904-36.252 34.273-61.025 21.769-11.84 35.713-34.722 35.713-60.194 0-25.471-13.944-48.353-35.713-60.193.63-24.773-12.214-48.29-34.273-61.025-22.058-12.735-48.846-12.102-69.985.832-21.139-12.934-47.927-13.569-69.986-.832-22.059 12.736-34.903 36.252-34.272 61.025-21.77 11.84-35.713 34.722-35.713 60.193s13.944 48.354 35.713 60.194c-.63 24.773 12.213 48.289 34.272 61.025 17.099 9.873 37.038 11.705 54.986 6.009v56.161c-15.935-14.281-36.969-22.98-60-22.98h-60v30c0 23.031 8.7 44.065 22.98 60h-43.073l38.895 131.182h232.396l38.895-131.182h-43.074zm-37.02-60h30c0 33.084-26.916 60-60 60h-30c0-33.084 26.916-60 60-60zm-129.985-95.171c-14.463-8.351-21.883-24.941-18.464-41.283l2.749-13.136-12.75-4.188c-15.863-5.21-26.521-19.931-26.521-36.632s10.658-31.422 26.521-36.632l12.75-4.188-2.749-13.136c-3.419-16.342 4-32.933 18.464-41.283 14.463-8.35 32.541-6.481 44.984 4.651l10.001 8.948 10.001-8.948c12.445-11.131 30.522-12.999 44.985-4.65 14.463 8.351 21.884 24.941 18.464 41.283l-2.749 13.136 12.75 4.188c15.862 5.21 26.52 19.931 26.52 36.632s-10.658 31.422-26.52 36.632l-12.75 4.188 2.749 13.136c3.419 16.342-4.001 32.932-18.464 41.283s-32.541 6.481-44.984-4.651l-10.001-8.948-10.001 8.948c-12.443 11.132-30.522 13-44.985 4.65zm-50.015 95.171h30c33.084 0 60 26.916 60 60h-30c-33.084 0-60-26.916-60-60zm198.802 161.182h-187.603l-21.105-71.182h229.814z"/><path d="m308.514 130.437c0-28.949-23.551-52.5-52.5-52.5s-52.5 23.551-52.5 52.5 23.551 52.5 52.5 52.5 52.5-23.551 52.5-52.5zm-75 0c0-12.407 10.093-22.5 22.5-22.5s22.5 10.093 22.5 22.5-10.093 22.5-22.5 22.5c-12.406 0-22.5-10.093-22.5-22.5z"/></g></svg>