<svg id="Capa_1" enable-background="new 0 0 511.974 511.974" height="512" viewBox="0 0 511.974 511.974" width="512" xmlns="http://www.w3.org/2000/svg"><g><path d="m370.59 320.477c-21.25-17.708-39.603-33.002-39.603-63.477v-109.58c17.459-6.192 30-22.865 30-42.42 0-57.897-47.103-105-105-105s-105 47.103-105 105c0 19.555 12.541 36.228 30 42.42v109.58c0 30.475-18.353 45.768-39.603 63.477-23.623 19.685-50.397 41.998-50.397 86.523 0 31.102 13.671 60.42 37.509 80.439 23.825 20.008 55.313 28.356 86.394 22.901 14.697-2.579 28.699-8.444 41.097-17.147 16.956 11.903 37.225 18.781 59.796 18.781 24.712 0 48.652-8.543 67.695-24.535 23.838-20.019 37.509-49.337 37.509-80.439 0-44.525-26.774-66.838-50.397-86.523zm-129.603-288.968v43.491h30v-43.491c34.192 6.968 60 37.271 60 73.491 0 8.271-6.729 15-15 15h-120c-8.271 0-15-6.729-15-15 0-36.219 25.808-66.522 60-73.491zm123.198 432.956c-17.271 14.504-39.259 20.303-61.916 16.326-13.277-2.33-25.817-8.519-36.262-17.896l-10.021-8.996-10.021 8.996c-10.445 9.377-22.985 15.565-36.262 17.896-22.651 3.979-44.644-1.822-61.916-16.326-17.033-14.304-26.802-35.25-26.802-57.465 0-30.475 18.353-45.768 39.603-63.477 6.776-5.647 13.809-11.513 20.397-18.054v36.531h30v-212h90v212h30v-36.531c6.588 6.541 13.621 12.407 20.397 18.054 21.25 17.708 39.603 33.002 39.603 63.477.002 22.216-9.767 43.161-26.8 57.465z"/><path d="m240.987 272h30v90h-30z"/></g></svg>