<svg id="Capa_1" enable-background="new 0 0 512 512" height="512" viewBox="0 0 512 512" width="512" xmlns="http://www.w3.org/2000/svg"><g><path d="m45.188 0v512h421.625v-512zm391.624 482h-361.624v-452h361.625v452z"/><path d="m150.625 406.625c0 24.882 20.243 45.125 45.125 45.125s45.125-20.243 45.125-45.125-20.243-45.125-45.125-45.125-45.125 20.243-45.125 45.125zm60.25 0c0 8.34-6.785 15.125-15.125 15.125s-15.125-6.785-15.125-15.125 6.785-15.125 15.125-15.125 15.125 6.785 15.125 15.125z"/><path d="m130.542 306.208c0 24.882 20.243 45.125 45.125 45.125s45.125-20.243 45.125-45.125-20.243-45.125-45.125-45.125-45.125 20.244-45.125 45.125zm60.25 0c0 8.34-6.785 15.125-15.125 15.125s-15.125-6.785-15.125-15.125 6.785-15.125 15.125-15.125 15.125 6.786 15.125 15.125z"/><path d="m110.459 205.792c0 24.882 20.243 45.125 45.125 45.125s45.125-20.243 45.125-45.125-20.243-45.125-45.125-45.125-45.125 20.243-45.125 45.125zm60.25 0c0 8.34-6.785 15.125-15.125 15.125s-15.125-6.785-15.125-15.125 6.785-15.125 15.125-15.125 15.125 6.785 15.125 15.125z"/><path d="m135.5 150.5c24.882 0 45.125-20.243 45.125-45.125s-20.243-45.125-45.125-45.125-45.125 20.243-45.125 45.125 20.243 45.125 45.125 45.125zm0-60.25c8.34 0 15.125 6.785 15.125 15.125s-6.785 15.125-15.125 15.125-15.125-6.785-15.125-15.125 6.785-15.125 15.125-15.125z"/><path d="m316.25 451.75c24.882 0 45.125-20.243 45.125-45.125s-20.243-45.125-45.125-45.125-45.125 20.243-45.125 45.125 20.243 45.125 45.125 45.125zm0-60.25c8.34 0 15.125 6.785 15.125 15.125s-6.785 15.125-15.125 15.125-15.125-6.785-15.125-15.125 6.785-15.125 15.125-15.125z"/><path d="m336.333 351.333c24.882 0 45.125-20.243 45.125-45.125s-20.243-45.125-45.125-45.125-45.125 20.243-45.125 45.125 20.244 45.125 45.125 45.125zm0-60.25c8.34 0 15.125 6.785 15.125 15.125s-6.785 15.125-15.125 15.125-15.125-6.785-15.125-15.125 6.786-15.125 15.125-15.125z"/><path d="m356.417 250.917c24.882 0 45.125-20.243 45.125-45.125s-20.243-45.125-45.125-45.125-45.125 20.243-45.125 45.125 20.243 45.125 45.125 45.125zm0-60.25c8.34 0 15.125 6.785 15.125 15.125s-6.785 15.125-15.125 15.125-15.125-6.785-15.125-15.125 6.785-15.125 15.125-15.125z"/><path d="m376.5 150.5c24.882 0 45.125-20.243 45.125-45.125s-20.243-45.125-45.125-45.125-45.125 20.243-45.125 45.125 20.243 45.125 45.125 45.125zm0-60.25c8.34 0 15.125 6.785 15.125 15.125s-6.785 15.125-15.125 15.125-15.125-6.785-15.125-15.125 6.785-15.125 15.125-15.125z"/></g></svg>