<svg id="Capa_1" enable-background="new 0 0 512 512" height="512" viewBox="0 0 512 512" width="512" xmlns="http://www.w3.org/2000/svg"><g><path d="m413.5 287v-75h-38.072c5.123-8.833 8.072-19.075 8.072-30v-182h-255v182c0 10.925 2.949 21.167 8.072 30h-38.072v75c0 52.066 25.401 98.303 64.455 126.994l-32.791 98.006h251.672l-32.791-98.006c39.054-28.691 64.455-74.928 64.455-126.994zm-60-257v30h-195v-30zm-195 152v-92h195v92c0 16.542-13.458 30-30 30h-135c-16.542 0-30-13.458-30-30zm225 60v30h-255v-30zm-254.113 60h253.226c-7.448 63.26-61.384 112.5-126.613 112.5s-119.165-49.24-126.613-112.5zm210.777 180h-168.328l17.507-52.323c20.255 9.501 42.844 14.823 66.657 14.823s46.402-5.322 66.657-14.823z"/></g></svg>