<svg id="Layer_1" enable-background="new 0 0 510 510" height="512" viewBox="0 0 510 510" width="512" xmlns="http://www.w3.org/2000/svg"><g><path d="m0 10v490h510v-490c-26.023 0-483.982 0-510 0zm340 30v85h-77.129l-39.027-56.522-24.688 17.045 27.258 39.477h-56.414v-85zm-200 0v115h230v-115h110v370h-210v-195h-30v195h-210v-370zm-110 430v-30h450v30z"/><path d="m435 245c-3.026-79.509-117.002-79.448-120 0v135h120zm-60-30c16.542 0 30 13.458 30 30v45h-60v-45c0-16.542 13.458-30 30-30zm-30 135v-30h60v30z"/><path d="m75 380h120v-135c-3.026-79.509-117.002-79.448-120 0zm30-30v-30h60v30zm30-135c16.542 0 30 13.458 30 30v45h-60v-45c0-16.542 13.458-30 30-30z"/><path d="m420 85h30v30h-30z"/><path d="m60 85h30v30h-30z"/></g></svg>