<svg id="Layer_1" enable-background="new 0 0 508.408 508.408" height="512" viewBox="0 0 508.408 508.408" width="512" xmlns="http://www.w3.org/2000/svg"><g><path d="m180.204 149.213h-61v30h30v95.377c-33.795 38.336-6.917 99.623 45 99.623 51.92 0 78.794-61.288 45-99.623v-5.377h90v90h60v-30h-30v-90h-30v-9c0-28.121-22.879-51-51-51h-46.65c-10.145-17.892-29.355-30-51.35-30zm0 30c15.99 0 29 13.01 29 29v47.898c-9.801-2.532-20.195-2.532-30 0v-76.898zm14 165c-16.542 0-30-13.458-30-30 1.508-39.744 58.498-39.734 60 0 0 16.542-13.458 30-30 30zm105-114v9h-60v-30h39c11.579 0 21 9.421 21 21z"/><path d="m434.204 89.213c-60.242 0-108.365-17.578-143.033-52.246l-36.967-36.967-36.967 36.967c-34.668 34.668-82.791 52.246-143.033 52.246h-15v258.254c0 24.612 20.511 62.327 56.459 83.296l138.541 77.646c2.607-1.461-7.952 4.457 138.541-77.646 34.825-20.314 56.459-57.978 56.459-98.296v-243.254zm-15 243.254c0 29.647-15.886 57.346-41.467 72.319l-123.533 69.231-123.533-69.231c-26.701-15.628-41.467-43.797-41.467-57.319v-228.609c113.249-5.417 155.215-69.52 165-76.433 9.81 6.931 51.715 71.014 165 76.433z"/></g></svg>