<svg id="Capa_1" enable-background="new 0 0 512 512" height="512" viewBox="0 0 512 512" width="512" xmlns="http://www.w3.org/2000/svg"><g><path d="m422 346v-150h-62.596c19.483-19.073 31.596-45.646 31.596-75v-45h-45c-57.897 0-105 47.103-105 105v15h-151v150h-90v30h1.509c6.969 34.192 37.272 60 73.491 60h362c36.219 0 66.522-25.808 73.491-60h1.509v-30zm-151-165c0-41.355 33.645-75 75-75h15v15c0 41.355-33.645 75-75 75h-15zm-151 45h272v120h-272zm317 180h-362c-19.555 0-36.228-12.542-42.42-30h446.84c-6.192 17.458-22.865 30-42.42 30z"/><path d="m164.181 269.18 21.212 21.214c5.865-5.863 15.35-5.863 21.215 0l21.212-21.214c-8.5-8.499-19.8-13.18-31.82-13.18s-23.32 4.681-31.819 13.18z"/><path d="m316 256c-12.02 0-23.32 4.681-31.819 13.18l21.212 21.214c5.865-5.863 15.35-5.863 21.215 0l21.212-21.214c-8.5-8.499-19.8-13.18-31.82-13.18z"/></g></svg>