<svg id="Capa_1" enable-background="new 0 0 512 512" height="512" viewBox="0 0 512 512" width="512" xmlns="http://www.w3.org/2000/svg"><g><path d="m421 376c0-24.813-20.187-45-45-45s-45 20.187-45 45 20.187 45 45 45 45-20.187 45-45zm-45 15c-8.271 0-15-6.729-15-15s6.729-15 15-15 15 6.729 15 15-6.729 15-15 15z"/><path d="m301 497v15h150v-15c0-41.459-33.535-76-75-76-41.458 0-75 34.535-75 76zm75-46c19.283 0 36.201 13.167 42.442 31h-84.885c6.242-17.833 23.16-31 42.443-31z"/><path d="m181 376c0-24.813-20.187-45-45-45s-45 20.187-45 45 20.187 45 45 45 45-20.187 45-45zm-45 15c-8.271 0-15-6.729-15-15s6.729-15 15-15 15 6.729 15 15-6.729 15-15 15z"/><path d="m211 497c0-41.459-33.535-76-75-76-41.458 0-75 34.535-75 76v15h150zm-117.442-15c6.241-17.833 23.159-31 42.442-31s36.201 13.167 42.442 31z"/><path d="m256 151c24.813 0 45-20.187 45-45h-30c0 8.271-6.729 15-15 15s-15-6.729-15-15h-30c0 24.813 20.187 45 45 45z"/><path d="m451 286c0-64.069-37.444-122.25-94.595-149.258 2.984-9.727 4.595-20.05 4.595-30.742 0-58.049-47.116-106-105-106-57.809 0-105 47.884-105 106 0 10.692 1.611 21.015 4.595 30.742-57.151 27.008-94.595 85.189-94.595 149.258v15h30c0-16.542 13.458-30 30-30s30 13.458 30 30h30c0-16.542 13.458-30 30-30s30 13.458 30 30v211h30v-211c0-16.542 13.458-30 30-30s30 13.458 30 30h30c0-16.542 13.458-30 30-30s30 13.458 30 30h30zm-195-256c41.355 0 75 34.093 75 76 0 41.252-33.579 75-75 75-41.423 0-75-33.75-75-75 0-41.907 33.645-76 75-76zm135 211c-17.908 0-33.997 7.896-45 20.377-11.003-12.481-27.092-20.377-45-20.377s-33.997 7.896-45 20.377c-11.003-12.481-27.092-20.377-45-20.377s-33.997 7.896-45 20.377c-11.003-12.481-27.092-20.377-45-20.377-8.483 0-16.555 1.78-23.877 4.969 11.147-35.704 36.852-65.82 71.313-82.095 18.817 28.376 51.04 47.126 87.564 47.126s68.747-18.75 87.564-47.126c34.461 16.275 60.166 46.391 71.313 82.095-7.322-3.189-15.394-4.969-23.877-4.969z"/></g></svg>