<svg id="Capa_1" enable-background="new 0 0 512 512" height="512" viewBox="0 0 512 512" width="512" xmlns="http://www.w3.org/2000/svg"><g><path d="m180 347c0-24.813-20.187-45-45-45s-45 20.187-45 45 20.187 45 45 45 45-20.187 45-45zm-45 15c-8.271 0-15-6.729-15-15s6.729-15 15-15 15 6.729 15 15-6.729 15-15 15z"/><path d="m422 105c0-24.813-20.187-45-45-45s-45 20.187-45 45 20.187 45 45 45 45-20.187 45-45zm-45 15c-8.271 0-15-6.729-15-15s6.729-15 15-15 15 6.729 15 15-6.729 15-15 15z"/><path d="m437 332c-36.219 0-66.522 25.808-73.491 60h-94.347c3.866-34.809-5.712-70.455-28.733-99.216l52.355-52.355c87.691 70.19 219.216 7.827 219.216-105.429 0-74.439-60.561-135-135-135-113.36 0-175.538 131.626-105.429 219.216l-52.355 52.355c-23.104-18.493-52.389-29.571-84.216-29.571-74.439 0-135 60.561-135 135s60.561 135 135 135c58.667 0 108.704-37.62 127.278-90h101.231c6.968 34.192 37.271 60 73.491 60 41.355 0 75-33.645 75-75s-33.645-75-75-75zm-105-102.145v-4.855c0-24.813 20.187-45 45-45s45 20.187 45 45v4.855c-13.647 6.5-28.905 10.145-45 10.145s-31.353-3.645-45-10.145zm45-199.855c57.897 0 105 47.103 105 105 0 29.316-12.082 55.86-31.522 74.928-6.996-34.157-37.284-59.928-73.478-59.928s-66.482 25.771-73.478 59.928c-19.44-19.068-31.522-45.612-31.522-74.928 0-57.897 47.103-105 105-105zm-287 441.855v-4.855c0-24.813 20.187-45 45-45s45 20.187 45 45v4.855c-13.647 6.5-28.905 10.145-45 10.145s-31.353-3.645-45-10.145zm118.478-19.927c-6.996-34.157-37.284-59.928-73.478-59.928s-66.482 25.771-73.478 59.928c-19.44-19.068-31.522-45.612-31.522-74.928 0-57.897 47.103-105 105-105s105 47.103 105 105c0 29.316-12.082 55.86-31.522 74.928zm228.522.072c-24.813 0-45-20.187-45-45s20.187-45 45-45 45 20.187 45 45-20.187 45-45 45z"/><path d="m422 392h30v30h-30z"/></g></svg>