<svg id="Capa_1" enable-background="new 0 0 512 512" height="512" viewBox="0 0 512 512" width="512" xmlns="http://www.w3.org/2000/svg"><g><path d="m436.751 176.264c8.339 0 15.124 6.785 15.124 15.125 0 8.339-6.785 15.124-15.125 15.124h-15v45.125h30v-17.688c17.53-6.197 30.125-22.936 30.125-42.562 0-24.882-20.244-45.125-45.126-45.125-24.881 0-45.124 20.243-45.124 45.125h30c0-8.34 6.786-15.124 15.126-15.124z"/><path d="m421.75 266.764h30v30h-30z"/><path d="m61.251 176.264c8.339 0 15.124 6.785 15.124 15.125 0 8.339-6.785 15.124-15.125 15.124h-15v45.125h30v-17.688c17.53-6.197 30.125-22.936 30.125-42.562 0-24.882-20.244-45.125-45.126-45.125-24.881 0-45.124 20.243-45.124 45.125h30c0-8.34 6.786-15.124 15.126-15.124z"/><path d="m46.25 266.764h30v30h-30z"/><path d="m503.866 429.987c-3.296-33.232-25.534-61.55-57.037-72.631l-104.409-36.726-12.162-40.452c23.675-20.712 38.655-51.129 38.655-84.982l.116-108.408c.062-23.19-8.932-45.002-25.324-61.41-16.472-16.486-39.066-25.378-62.37-25.378h-160.829v60.712c-.46 23.991 7.543 50.13 22.594 74.091v60.393c0 33.847 14.975 64.26 38.643 84.972l-12.169 40.482-103.895 36.797c-31.174 11.041-53.254 38.983-56.789 71.865l-8.89 82.688h512zm-347.162-334.872c-4.28-11.587-6.426-23.134-6.201-33.94l.003-31.175h131.968c15.135 0 29.355 5.902 40.043 16.618 9.778 9.804 15.502 22.557 16.378 36.246-6.862-3.282-14.539-5.124-22.639-5.124h-120.5c-15.474 0-29.409 6.712-39.052 17.375zm16.396 100.08v-64.799c0-12.493 10.164-22.656 22.656-22.656h120.5c12.493 0 22.656 10.164 22.656 22.656v64.799c0 45.715-37.191 82.906-82.906 82.906s-82.906-37.191-82.906-82.906zm139.46 130.312-56.56 34.711-56.56-34.711 8.47-28.177c14.6 6.903 30.904 10.772 48.096 10.772 17.188 0 33.487-3.867 48.084-10.766zm109.065 156.493v-45.253h-30v45.253h-271.25v-45.253h-30v45.253h-56.977l5.319-49.475c2.302-21.414 16.681-39.611 36.983-46.801l104.307-36.944 75.993 46.637 76.009-46.648 104.859 36.884c20.516 7.216 34.998 25.658 37.145 47.3l4.864 49.047z"/><path d="m225.421 202.783h61.157v30h-61.157z"/></g></svg>