<svg id="Capa_1" enable-background="new 0 0 512 512" height="512" viewBox="0 0 512 512" width="512" xmlns="http://www.w3.org/2000/svg"><g><path d="m482 220.749v-119.883h-30v30h-70.764l-1.484 13.341c-.021.186-2.442 19.07-15.986 37.815-18.566 25.697-48.506 38.726-88.989 38.726h-214.777v-59.883h30v-65.084c0-24.813-20.187-45-45-45s-45 20.187-45 45v65.085h30v59.883h-30v240.47h120.187v-60h271.623v60h120.19v-240.47zm-452-124.968c0-8.271 6.729-15 15-15s15 6.729 15 15v35.085h-30zm358.083 103.811c10.345-14.318 15.817-28.708 18.644-38.726h45.273v59.883h-83.697c8.279-6.883 14.766-14.216 19.78-21.157zm-297.896 231.627h-60.187v-90.47h60.187zm30-60v-30.47h271.623v30.47zm361.813 60h-60.19v-90.47h60.19zm-452-120.47v-60h452v60z"/></g></svg>