<svg id="Capa_1" enable-background="new 0 0 512 512" height="512" viewBox="0 0 512 512" width="512" xmlns="http://www.w3.org/2000/svg"><g><path d="m331.375 30.125h-150.75v-30.125h-90.25v75.25c0 39.928 10.231 79.492 29.587 114.416 14.019 25.294 32.659 47.795 54.728 66.331-22.068 18.539-40.708 41.043-54.728 66.338-19.356 34.923-29.587 74.487-29.587 114.416v75.249h90.25v-30.115h150.75v30.115h90.25v-75.25c0-39.928-10.231-79.492-29.587-114.416-14.019-25.294-32.665-47.79-54.737-66.324 22.072-18.54 40.715-41.047 54.737-66.345 19.356-34.923 29.587-74.487 29.587-114.416v-75.249h-90.25zm-75.375 172.295c-9.913-5.948-20.647-13.215-29.699-21.795h59.398c-9.051 8.58-19.786 15.847-29.699 21.795zm54.129-51.795h-108.258c-4.792-7.557-10.846-20.317-14.002-30.25h136.263c-3.156 9.933-9.211 22.693-14.003 30.25zm21.246-90.5v15.125c0 5.06-.284 10.108-.815 15.125h-149.12c-.531-5.017-.815-10.065-.815-15.125v-15.125zm-185.174 114.997c-16.896-30.484-25.826-65.019-25.826-99.872v-45.25h30.25v45.25c0 29.512 7.562 58.755 21.869 84.568 13.376 24.134 32.423 44.855 55.298 60.232l-26.486 16.554c-.542.339-1.07.699-1.609 1.042-21.777-17-40.066-38.293-53.496-62.524zm109.799 134.458c9.917 5.95 20.656 13.221 29.71 21.806h-59.42c9.054-8.585 19.793-15.856 29.71-21.806zm-54.136 51.806h108.272c4.79 7.557 10.84 20.308 13.995 30.239h-136.262c3.155-9.931 9.205-22.682 13.995-30.239zm-21.239 90.499v-15.135c0-5.06.284-10.108.815-15.125h149.12c.531 5.017.815 10.066.815 15.125v15.135zm185.174-115.007c16.896 30.484 25.826 65.019 25.826 99.872v45.25h-30.25v-45.25c0-29.512-7.562-58.755-21.869-84.568-13.376-24.134-32.423-44.855-55.298-60.232l26.486-16.554c.548-.342 1.081-.706 1.625-1.052 21.772 17.002 40.051 38.305 53.48 62.534zm-4.424-306.878h30.25v45.25c0 34.853-8.931 69.388-25.826 99.872s-41.448 56.361-71.004 74.833l-62.178 38.861c-25.026 15.641-45.817 37.553-60.124 63.365-14.307 25.813-21.869 55.056-21.869 84.568v45.251h-30.25v-45.25c0-34.853 8.931-69.388 25.826-99.872s41.448-56.361 71.004-74.833l62.178-38.861c25.026-15.641 45.817-37.553 60.124-63.365 14.307-25.813 21.869-55.056 21.869-84.568z"/><path d="m45.125 271.125c-24.882 0-45.125 20.243-45.125 45.125s20.243 45.125 45.125 45.125 45.125-20.243 45.125-45.125-20.243-45.125-45.125-45.125zm0 60.25c-8.34 0-15.125-6.785-15.125-15.125s6.785-15.125 15.125-15.125 15.125 6.785 15.125 15.125-6.785 15.125-15.125 15.125z"/><path d="m466.875 150.625c-24.882 0-45.125 20.243-45.125 45.125s20.243 45.125 45.125 45.125 45.125-20.243 45.125-45.125-20.243-45.125-45.125-45.125zm0 60.25c-8.34 0-15.125-6.785-15.125-15.125s6.785-15.125 15.125-15.125 15.125 6.785 15.125 15.125-6.785 15.125-15.125 15.125z"/><path d="m60.25 180.75h30v30h-30z"/><path d="m421.75 301.25h30v30h-30z"/></g></svg>