<svg id="Capa_1" enable-background="new 0 0 512.018 512.018" height="512" viewBox="0 0 512.018 512.018" width="512" xmlns="http://www.w3.org/2000/svg"><g><path d="m512.018 21.213-21.214-21.213-50.836 50.836-190.918-21.214-249.05 249.05 233.346 233.346 249.05-249.05-21.214-190.919zm-61.032 230.737-217.64 217.641-190.919-190.919 217.64-217.641 152.735 16.97-52.178 52.178-21.213-21.213-21.213 21.213 63.64 63.64 21.213-21.213-21.213-21.213 52.178-52.178z"/><path d="m201.526 331.705c-17.585 17.584-17.589 46.052 0 63.639 17.585 17.585 46.051 17.589 63.639 0 17.587-17.587 17.588-46.052 0-63.64-17.586-17.586-46.051-17.587-63.639.001zm42.426 42.426c-5.861 5.861-15.35 5.863-21.213 0-5.861-5.861-5.863-15.349 0-21.213 5.864-5.863 15.35-5.863 21.213 0 5.862 5.863 5.863 15.35 0 21.213z"/><path d="m265.165 225.639c17.587-17.587 17.588-46.051 0-63.64-17.586-17.586-46.051-17.588-63.64 0-17.585 17.585-17.589 46.051 0 63.639 17.587 17.587 46.051 17.59 63.64.001zm-42.426-42.427c5.862-5.861 15.35-5.863 21.213 0 5.862 5.863 5.863 15.35 0 21.213-5.862 5.862-15.349 5.863-21.213 0-5.862-5.861-5.863-15.349 0-21.213z"/><path d="m121.066 263.672h224.559v30h-224.559z"/></g></svg>