<svg id="Capa_1" enable-background="new 0 0 510 510" height="512" viewBox="0 0 510 510" width="512" xmlns="http://www.w3.org/2000/svg"><g><path d="m450 394.07v-128.14c0-14.374 5.973-28.264 16.82-39.11 8.499-8.5 13.18-19.8 13.18-31.819 0-24.813-20.187-45-45-45-8.271 0-15-6.729-15-15v-15h30v-120.001h-390v120h30v15c0 8.271-6.729 15-15 15-24.813 0-45 20.187-45 45 0 12.02 4.681 23.32 13.18 31.82 10.847 10.846 16.82 24.736 16.82 39.11v128.14c0 14.374-5.973 28.264-16.82 39.11-8.499 8.5-13.18 19.8-13.18 31.82 0 24.813 20.187 45 45 45h360c24.813 0 45-20.187 45-45 0-12.02-4.681-23.32-13.18-31.82-10.847-10.846-16.82-24.736-16.82-39.11zm-360-364.07h30v30h30v-30h30v30h30v-30h30v30h30v-30h30v30h30v-30h30v30h30v-30h30v60h-330zm-15 150c24.813 0 45-20.187 45-45v-15h270v15c0 24.813 20.187 45 45 45 8.271 0 15 6.729 15 15 0 4.007-1.56 7.773-4.393 10.606-5.896 5.896-10.827 12.426-14.754 19.394h-351.706c-3.928-6.968-8.858-13.498-14.754-19.393-2.832-2.834-4.393-6.6-4.393-10.607 0-8.271 6.729-15 15-15zm345.752 225h-30.752v-150h30.752c-.483 3.607-.752 7.253-.752 10.93v128.14c0 3.677.27 7.323.752 10.93zm-331.504-150h30.752v150h-30.752c.482-3.607.752-7.253.752-10.93v-128.14c0-3.677-.27-7.323-.752-10.93zm60.752 0h210v150h-210zm285 225h-360c-8.271 0-15-6.729-15-15 0-4.007 1.561-7.773 4.393-10.606 5.896-5.896 10.827-12.426 14.754-19.394h351.705c3.928 6.968 8.858 13.498 14.754 19.393 2.834 2.834 4.394 6.6 4.394 10.607 0 8.271-6.729 15-15 15z"/><path d="m180 285h150v30h-150z"/><path d="m180 345h150v30h-150z"/></g></svg>