<?xml version="1.0" encoding="iso-8859-1"?>
<!-- Generator: Adobe Illustrator 19.0.0, SVG Export Plug-In . SVG Version: 6.00 Build 0)  -->
<svg xmlns="http://www.w3.org/2000/svg" xmlns:xlink="http://www.w3.org/1999/xlink" version="1.1" id="Layer_1" x="0px" y="0px" viewBox="0 0 512.001 512.001" style="enable-background:new 0 0 512.001 512.001;" xml:space="preserve">
<g>
	<g>
		<path d="M451.332,88.904c-9.552-38.858-33.769-69.117-64.782-80.941c-59.039-22.51-120.044,9.251-130.549,15.154    c-10.506-5.903-71.507-37.666-130.549-15.154c-31.014,11.826-55.23,42.085-64.782,80.941    c-12.605,51.28,2.535,105.966,41.538,150.038l4.476,5.059h30.351l9.207,39.05l-11.712,4.216l10.162,28.226l8.479-3.053    l9.35,39.657l-27.991,10.077l10.162,28.226l24.758-8.913l9.35,39.657l-44.27,15.937l10.162,28.226l41.038-14.773l14.492,61.469    h107.38l27.034-114.658l56.189-20.228l-10.162-28.226l-37.813,13.613l11.085-47.013l36.89-13.281l-10.162-28.226l-18.513,6.665    l8.641-36.646h34.528l4.477-5.059C448.797,194.871,463.936,140.184,451.332,88.904z M328.468,292.772l-71.709,25.815    l10.162,28.226l53.333-19.2l-11.085,47.013l-52.41,18.867l10.162,28.226l34.034-12.253L283.852,482H223.97l-9.832-41.698    l29.009-10.444l-10.162-28.226l-25.777,9.28l-9.35-39.657l45.288-16.303l-10.162-28.226l-42.056,15.14l-9.35-39.657l61.568-22.164    l-10.162-28.226l-58.335,21.001l-6.796-28.821h89.017l10.047,27.905l72.632-26.148L328.468,292.772z M391.638,214.002H120.362    c-29.181-35.613-40.315-78.257-30.561-117.936c7.094-28.86,24.85-51.878,46.337-60.072    c49.752-18.97,105.441,13.425,105.972,13.738l0.612,0.366l1.825,0.867l-0.09,0.124l58.311,42.144l17.571-24.313l-36.145-26.123    c19.853-8.423,57.182-19.949,91.667-6.801c21.487,8.194,39.244,31.212,46.337,60.072    C431.953,135.744,420.82,178.389,391.638,214.002z"/>
	</g>
</g>
<g>
</g>
<g>
</g>
<g>
</g>
<g>
</g>
<g>
</g>
<g>
</g>
<g>
</g>
<g>
</g>
<g>
</g>
<g>
</g>
<g>
</g>
<g>
</g>
<g>
</g>
<g>
</g>
<g>
</g>
</svg>
