<svg id="Capa_1" enable-background="new 0 0 512 512" height="512" viewBox="0 0 512 512" width="512" xmlns="http://www.w3.org/2000/svg"><g><path d="m376.295 81.751v-81.751h-240.59v81.751l-36.313 79.895v350.354h313.218v-350.354zm-24.659 18.249 22.678 49.895h-236.628l22.678-49.895zm-5.341-70v40h-180.59v-40zm-216.904 452v-302.105h253.218v302.105z"/><path d="m315.016 285.316c-6.149-4.623-13.29-7.827-21.158-9.631l24.914-24.913-21.213-21.213-26.672 26.671c-1.224-13.811-12.851-24.679-26.975-24.679h-20.17v30h17.258v12.74c-17.108-1.482-32.333 2.24-44.016 11.025-11.214 8.431-24.582 25.648-24.582 59.789 0 27.897 13.471 56.202 34.318 72.111 14.744 11.25 32.1 15.41 49.279 11.9 3.966.81 7.938 1.211 11.888 1.211 13.163-.001 26.051-4.458 37.391-13.111 20.848-15.909 34.318-44.214 34.318-72.111.002-34.141-13.366-51.358-24.58-59.789zm-27.936 108.05c-8.507 6.491-17.632 8.466-27.12 5.869l-3.96-1.085-3.96 1.084c-9.489 2.596-18.614.622-27.12-5.869-13.468-10.277-22.518-29.672-22.518-48.261 0-12.011 2.188-27.974 12.61-35.81 8.177-6.148 21.254-7.057 36.822-2.555l4.166 1.204 4.166-1.204c15.568-4.5 28.645-3.593 36.822 2.555 10.422 7.836 12.61 23.799 12.61 35.81 0 18.589-9.05 37.984-22.518 48.262z"/></g></svg>