<svg id="Capa_1" enable-background="new 0 0 512 512" height="512" viewBox="0 0 512 512" width="512" xmlns="http://www.w3.org/2000/svg"><g><path d="m401.568 0h-291.136c-36.965 0-67.038 30.073-67.038 67.038v377.924c0 36.965 30.073 67.038 67.038 67.038h291.136c36.965 0 67.038-30.073 67.038-67.038v-377.924c0-36.965-30.073-67.038-67.038-67.038zm37.038 444.962c0 20.423-16.615 37.038-37.038 37.038h-291.136c-20.423 0-37.038-16.615-37.038-37.038v-377.924c0-20.423 16.615-37.038 37.038-37.038h291.136c20.423 0 37.038 16.615 37.038 37.038z"/><path d="m156.667 70.333c-28.856 0-52.333 23.477-52.333 52.333 0 28.857 23.477 52.333 52.333 52.333 28.857.001 52.333-23.476 52.333-52.332 0-28.857-23.476-52.334-52.333-52.334zm0 74.667c-12.315 0-22.333-10.019-22.333-22.333 0-12.315 10.018-22.333 22.333-22.333s22.333 10.019 22.333 22.333-10.018 22.333-22.333 22.333z"/><path d="m156.667 337c-28.856 0-52.333 23.477-52.333 52.333 0 28.857 23.477 52.333 52.333 52.333 28.857 0 52.333-23.477 52.333-52.333s-23.476-52.333-52.333-52.333zm0 74.667c-12.315 0-22.333-10.019-22.333-22.333 0-12.315 10.018-22.333 22.333-22.333 12.315-.001 22.333 10.018 22.333 22.332 0 12.315-10.018 22.334-22.333 22.334z"/><path d="m156.667 203.667c-28.856 0-52.333 23.477-52.333 52.333s23.477 52.333 52.333 52.333c28.857 0 52.333-23.476 52.333-52.333s-23.476-52.333-52.333-52.333zm0 74.666c-12.315 0-22.333-10.019-22.333-22.333s10.018-22.333 22.333-22.333 22.333 10.018 22.333 22.333-10.018 22.333-22.333 22.333z"/><path d="m355.333 70.333c-28.857 0-52.333 23.477-52.333 52.334 0 28.856 23.476 52.333 52.333 52.333s52.334-23.477 52.334-52.333c0-28.857-23.477-52.334-52.334-52.334zm0 74.667c-12.315 0-22.333-10.019-22.333-22.333 0-12.315 10.019-22.333 22.333-22.333 12.315 0 22.334 10.019 22.334 22.333s-10.019 22.333-22.334 22.333z"/><path d="m355.333 337c-28.857 0-52.333 23.477-52.333 52.333 0 28.857 23.477 52.333 52.333 52.333s52.334-23.477 52.334-52.333-23.477-52.333-52.334-52.333zm0 74.667c-12.315 0-22.333-10.019-22.333-22.333 0-12.315 10.018-22.334 22.333-22.334s22.334 10.019 22.334 22.333c0 12.315-10.019 22.334-22.334 22.334z"/><path d="m355.333 203.667c-28.857 0-52.333 23.476-52.333 52.333s23.477 52.333 52.333 52.333 52.334-23.477 52.334-52.333-23.477-52.333-52.334-52.333zm0 74.666c-12.315 0-22.333-10.018-22.333-22.333s10.019-22.333 22.333-22.333c12.315 0 22.334 10.019 22.334 22.333s-10.019 22.333-22.334 22.333z"/><path d="m241 64h30v384h-30z"/></g></svg>