<svg id="Capa_1" enable-background="new 0 0 511.619 511.619" height="512" viewBox="0 0 511.619 511.619" width="512" xmlns="http://www.w3.org/2000/svg"><g id="XMLID_109_"><g id="XMLID_108_"><path id="XMLID_476_" d="m0 498.221 69.726-85.518c11.364-13.938 278.716-341.752 314.151-377.187 29.075-29.076 76.366-29.547 105.419-1.053 14.297 14.023 22.224 32.793 22.321 52.854.097 20.063-7.646 38.909-21.801 53.064l-.537.537c-35.79 35.791-384.43 282.996-399.254 293.502zm437.351-454.863c-11.646 0-23.359 4.469-32.26 13.371-23.243 23.243-156.518 184.958-241.233 288.283 126.294-90.331 282.707-203.804 304.209-225.307l.537-.537c8.451-8.45 13.072-19.71 13.015-31.706-.058-11.992-4.792-23.208-13.329-31.581-8.524-8.36-19.701-12.523-30.939-12.523z"/></g><g id="XMLID_110_"><path id="XMLID_475_" d="m380.937 89.61h76.839v30h-76.839z" transform="matrix(.707 -.707 .707 .707 48.857 327.169)"/></g></g></svg>