<?xml version="1.0" encoding="iso-8859-1"?>
<!-- Generator: Adobe Illustrator 19.0.0, SVG Export Plug-In . SVG Version: 6.00 Build 0)  -->
<svg xmlns="http://www.w3.org/2000/svg" xmlns:xlink="http://www.w3.org/1999/xlink" version="1.1" id="Layer_1" x="0px" y="0px" viewBox="0 0 512 512" style="enable-background:new 0 0 512 512;" xml:space="preserve">
<g>
	<g>
		<path d="M337.106,303.383c22.062-15.743,39.376-37.726,49.355-63.346h58.858v-113.35h-15.194    C418.738,91.514,396.45,59.982,366.9,37.432C334.811,12.943,296.463,0,256,0c-40.237,0-78.413,12.813-110.403,37.054    c-29.78,22.567-52.283,54.269-63.726,89.634h-15.19v113.35h58.858c9.98,25.62,27.293,47.603,49.355,63.346    c-89.1,19.233-156.076,98.64-156.076,193.409V512h474.364v-15.208C493.182,402.024,426.207,322.616,337.106,303.383z     M402.386,157.102h12.517v52.519h-12.517V157.102z M109.614,209.622H97.097v-52.519h12.517V209.622z M114.182,126.687    C136.997,69.388,193.491,30.416,256,30.416c62.641,0,119.01,38.929,141.819,96.271h-16.735    C358.047,80.924,310.633,49.451,256,49.451c-54.633,0-102.047,31.473-125.084,77.236H114.182z M146.469,189.397    c0-60.395,49.136-109.529,109.531-109.529s109.531,49.135,109.531,109.529c0,6.909-0.65,13.668-1.879,20.225H256v30.416h97.098    c-18.313,34.971-54.962,58.891-97.098,58.891C195.604,298.928,146.469,249.792,146.469,189.397z M49.917,481.585    c7.713-85.229,79.561-152.241,166.764-152.241h78.635c87.203,0,159.052,67.012,166.764,152.241H49.917z"/>
	</g>
</g>
<g>
</g>
<g>
</g>
<g>
</g>
<g>
</g>
<g>
</g>
<g>
</g>
<g>
</g>
<g>
</g>
<g>
</g>
<g>
</g>
<g>
</g>
<g>
</g>
<g>
</g>
<g>
</g>
<g>
</g>
</svg>
