<svg id="Capa_1" enable-background="new 0 0 512 512" height="512" viewBox="0 0 512 512" width="512" xmlns="http://www.w3.org/2000/svg"><g><path d="m452 135v-74h-150c-18.343 0-34.808 8.15-46 21.005-11.192-12.855-27.657-21.005-46-21.005h-150v74h-60v316h512v-316zm-362 201h120c16.758 0 30.444 13.368 30.975 30h-150.975zm241-245h31v21.898l-15.5 10.164-15.5-10.164zm-30 .025v38.076l45.5 29.836 45.5-29.836v-38.101h30v215h-120c-11.312 0-21.909 3.106-31 8.494v-192.494c0-16.758 13.368-30.444 30-30.975zm121 244.975v30h-150.975c.531-16.632 14.216-30 30.975-30zm-332-245h120c17.094 0 31 13.906 31 31v192.479c-9.09-5.386-19.69-8.479-31-8.479h-120zm392 330h-452v-256h30v231h392v-231h30z"/><path d="m301 246h91v30h-91z"/><path d="m301 186h91v30h-91z"/><path d="m120 246h91v30h-91z"/><path d="m120 186h91v30h-91z"/><path d="m120 126h91v30h-91z"/></g></svg>