<?xml version="1.0" encoding="iso-8859-1"?>
<!-- Generator: Adobe Illustrator 19.0.0, SVG Export Plug-In . SVG Version: 6.00 Build 0)  -->
<svg xmlns="http://www.w3.org/2000/svg" xmlns:xlink="http://www.w3.org/1999/xlink" version="1.1" id="Layer_1" x="0px" y="0px" viewBox="0 0 512 512" style="enable-background:new 0 0 512 512;" xml:space="preserve">
<g>
	<g>
		<path d="M381.781,288.412c0,64.208-48.362,117.327-110.573,124.859v-20.456c50.993-7.395,90.295-51.393,90.295-104.403V172.005    L473.049,60.459l-21.508-21.508l-90.038,90.038v-23.486C361.503,47.328,314.174,0,256,0S150.497,47.328,150.497,105.503v182.909    c0,15.149,3.215,29.559,8.989,42.592l-15.187,15.187c-8.991-17.311-14.08-36.962-14.08-57.78v-50.997H99.802v50.997    c0,29.267,8.099,56.676,22.162,80.116l-83.013,83.013l21.508,21.508l79.827-79.827c25.397,28.013,60.799,46.792,100.506,50.647    v37.714h-75.086V512h180.588v-30.417h-75.086v-37.714c79.017-7.671,140.99-74.459,140.99-155.456v-50.997h-30.417V288.412z     M180.915,105.503c0-41.402,33.684-75.086,75.086-75.086c41.402,0,75.086,33.684,75.086,75.086v53.903L183.294,307.198    c-1.552-6.006-2.38-12.301-2.38-18.786V105.503z M240.791,413.271c-31.293-3.789-59.078-19.113-78.97-41.584l14.358-14.358    c16.223,18.763,38.935,31.764,64.612,35.487V413.271z M256,363.499c-23.473,0-44.456-10.834-58.236-27.756l133.321-133.321v85.99    h0.001C331.085,329.815,297.401,363.499,256,363.499z"/>
	</g>
</g>
<g>
</g>
<g>
</g>
<g>
</g>
<g>
</g>
<g>
</g>
<g>
</g>
<g>
</g>
<g>
</g>
<g>
</g>
<g>
</g>
<g>
</g>
<g>
</g>
<g>
</g>
<g>
</g>
<g>
</g>
</svg>
