<svg id="Capa_1" enable-background="new 0 0 512.017 512.017" height="512" viewBox="0 0 512.017 512.017" width="512" xmlns="http://www.w3.org/2000/svg"><g><path d="m362 283.008h30v30h-30z"/><path d="m126 283.008h30v30h-30z"/><path d="m463 199.99 49.017-.055-.033-30-48.984.055v-38.683c0-66.333-53.966-120.299-120.299-120.299h-173.402c-66.333 0-120.299 53.966-120.299 120.299v38.774h-49v30h49v142.927h-30v90h30v68h90v-68h234v68h90v-68h30v-90h-30zm-192-158.982h71.701c49.791 0 90.299 40.508 90.299 90.299v38.701h-162zm41.698 233.087c27.869-37.663 79.394-64.909 120.302-71.673v140.586h-155.629c8.152-26.218 19.979-49.323 35.327-68.913zm-56.698 39.519c-19.309-48.539-52.475-87.938-97.729-113.606h195.459c-45.259 25.672-78.418 65.063-97.73 113.606zm-177-182.307c0-49.791 40.508-90.299 90.299-90.299h71.701v129h-162zm0 71.073c72.819 13.397 133.656 65.423 155.626 140.629h-155.626zm30 268.628h-30v-38h30zm324 0h-30v-38h30zm30-68c-111.407 0-302.582 0-414 0v-30h414z"/></g></svg>