<svg id="Capa_1" enable-background="new 0 0 510 510" height="512" viewBox="0 0 510 510" width="512" xmlns="http://www.w3.org/2000/svg"><g><path d="m405 210c-52.805 0-96.623 39.184-103.924 90h-46.076v-32.883c27.183-18.996 45-50.513 45-86.117 0-13.116 0-85.117 0-93.166 0-40.161-32.673-72.834-72.834-72.834h-167.166v32.167c0 24.16 11.834 45.598 30 58.855v74.978c0 35.605 17.817 67.121 45 86.117v32.883h-39.334c-52.75 0-95.666 42.916-95.666 95.667v99.333h390v-76.076c63.081 9.066 120-39.902 120-103.924 0-57.897-47.103-105-105-105zm-315-165h137.166c23.619 0 42.834 19.215 42.834 42.834v2.166h-137.167c-23.618 0-42.833-19.215-42.833-42.833zm30 136v-61h150v61c0 41.355-33.645 75-75 75s-75-33.645-75-75zm105 100.626v27.161l-30 29.999-30-29.999v-27.161c19.063 5.693 40.005 5.972 60 0zm-195 114.041c0-36.209 29.458-65.667 65.666-65.667h48.121l36.213 36.213v98.787h-75v-45h-30v45h-45zm330 69.333h-45v-45h-30v45h-75v-98.787l36.213-36.213h54.863c5.076 35.327 27.799 65.029 58.924 79.855zm45-75c-41.355 0-75-33.645-75-75s33.645-75 75-75 75 33.645 75 75-33.645 75-75 75z"/><path d="m420 270h-30v30h-30v30h30v30h30v-30h30v-30h-30z"/></g></svg>