<?xml version="1.0" encoding="iso-8859-1"?>
<!-- Generator: Adobe Illustrator 19.0.0, SVG Export Plug-In . SVG Version: 6.00 Build 0)  -->
<svg version="1.1" id="Layer_1" xmlns="http://www.w3.org/2000/svg" xmlns:xlink="http://www.w3.org/1999/xlink" x="0px" y="0px"
	 viewBox="0 0 512 512" style="enable-background:new 0 0 512 512;" xml:space="preserve">
<g>
	<g>
		<path d="M256,71.442c-29.546,0-53.581,24.037-53.581,53.581h35.721c0-9.848,8.012-17.86,17.86-17.86s17.86,8.012,17.86,17.86
			h35.721C309.581,95.478,285.546,71.442,256,71.442z"/>
	</g>
</g>
<g>
	<g>
		<path d="M256,0c-68.939,0-125.023,56.085-125.023,125.023h35.721c0-49.241,40.061-89.302,89.302-89.302
			s89.302,40.061,89.302,89.302h35.721C381.023,56.085,324.939,0,256,0z"/>
	</g>
</g>
<g>
	<g>
		<path d="M327.442,160.744H184.558c-29.546,0-53.581,24.037-53.581,53.581v244.093c0,29.545,24.035,53.581,53.581,53.581h142.884
			c29.546,0,53.581-24.037,53.581-53.581V214.326C381.023,184.781,356.988,160.744,327.442,160.744z M345.302,458.419
			c0,9.848-8.011,17.86-17.86,17.86H184.558c-9.848,0-17.86-8.012-17.86-17.86V214.326c0-9.848,8.012-17.86,17.86-17.86h142.884
			c9.849,0,17.86,8.012,17.86,17.86V458.419z"/>
	</g>
</g>
<g>
	<g>
		<path d="M256,232.186c-29.546,0-53.581,24.037-53.581,53.581c0,29.545,24.035,53.581,53.581,53.581s53.581-24.037,53.581-53.581
			C309.581,256.223,285.546,232.186,256,232.186z M256,303.628c-9.848,0-17.86-8.012-17.86-17.86s8.012-17.86,17.86-17.86
			s17.86,8.012,17.86,17.86S265.848,303.628,256,303.628z"/>
	</g>
</g>
<g>
</g>
<g>
</g>
<g>
</g>
<g>
</g>
<g>
</g>
<g>
</g>
<g>
</g>
<g>
</g>
<g>
</g>
<g>
</g>
<g>
</g>
<g>
</g>
<g>
</g>
<g>
</g>
<g>
</g>
</svg>
