<?xml version="1.0" encoding="iso-8859-1"?>
<!-- Generator: Adobe Illustrator 19.0.0, SVG Export Plug-In . SVG Version: 6.00 Build 0)  -->
<svg xmlns="http://www.w3.org/2000/svg" xmlns:xlink="http://www.w3.org/1999/xlink" version="1.1" id="Layer_1" x="0px" y="0px" viewBox="0 0 512 512" style="enable-background:new 0 0 512 512;" xml:space="preserve">
<g>
	<g>
		<path d="M224.863,322.865c0-34.552-28.11-62.663-62.663-62.663c-34.553,0-62.663,28.11-62.663,62.663    c0,29.138,19.991,53.694,46.979,60.674v22.75h-23.789v31.367h78.409V406.29h-23.253v-22.75    C204.871,376.559,224.863,352.004,224.863,322.865z M162.2,354.16c-17.256,0-31.296-14.039-31.296-31.295    s14.04-31.296,31.296-31.296s31.296,14.039,31.296,31.296C193.496,340.121,179.456,354.16,162.2,354.16z"/>
	</g>
</g>
<g>
	<g>
		<path d="M512,24.559l-29.556-10.506l-13.338,37.522h-64.611v31.367h18.334l-73.177,224.409    c-64.728-53.74-108.512-84.247-133.192-92.856c-16.383-5.714-33.325-8.397-50.171-8.104l-61.406-88.965h30.725V86.059H28.611    v31.367h38.157l64.796,93.876c-8.689,2.341-17.225,5.504-25.505,9.501c-34.753,16.778-60.893,46.086-73.604,82.524    c-12.71,36.439-10.471,75.647,6.307,110.399c10.023,20.759,24.517,38.441,42.33,52.027H0v31.367h195.95    c13.679,0.551,28.942,0.827,45.824,0.827c16.892,0,35.412-0.277,55.568-0.827h169.933v-31.367h-66.542    c6.875-8.106,12.357-17.641,16.093-28.349c12.034-34.498,2.325-70.75-25.339-94.61c-5.433-4.685-10.746-9.239-15.945-13.666    l80.278-246.187h35.426v0.001L512,24.559z M387.21,427.074c-6.034,17.298-22.425,36.184-50.337,37.313    c-14.451,0.584-27.9,1.033-40.447,1.368h-97.941c-40.548-1.564-58.739-5.205-66.866-8.04    c-28.527-9.951-51.472-30.415-64.609-57.624c-13.134-27.209-14.889-57.903-4.938-86.432c9.952-28.528,30.417-51.473,57.624-64.609    c15.575-7.52,32.289-11.309,49.088-11.309c12.548,0,25.146,2.115,37.343,6.371c14.363,5.01,54.883,27.579,164.874,122.437    C392.154,384.792,393.244,409.776,387.21,427.074z"/>
	</g>
</g>
<g>
</g>
<g>
</g>
<g>
</g>
<g>
</g>
<g>
</g>
<g>
</g>
<g>
</g>
<g>
</g>
<g>
</g>
<g>
</g>
<g>
</g>
<g>
</g>
<g>
</g>
<g>
</g>
<g>
</g>
</svg>
