<svg id="Capa_1" enable-background="new 0 0 512.699 512.699" height="512" viewBox="0 0 512.699 512.699" width="512" xmlns="http://www.w3.org/2000/svg"><g><path d="m448.098 331.618c26.532-34.278 38.439-77.164 36.299-122.594h-52.728c9.012-54.423-2.505-98.863-22.602-149.403-29.385 10.281-62.245 22.072-87.127 40.731-11.022-20.913-25.245-40.279-42.437-57.471l-23.106-23.107-23.106 23.107c-17.194 17.194-31.418 36.563-42.441 57.479-24.895-18.672-57.721-30.453-87.123-40.739-20.11 50.585-31.592 94.929-22.597 149.403h-52.733c-2.143 45.425 9.775 88.33 36.299 122.594-92.151 37.408-85.164 103.545 16.508 136.901 77.171 26.746 200.509 30.978 289.231 15.293-.132-1.276-1.075-14.946-1.039-15.789.444-32.182 43.585-41.485 57.305-12.44 0 0 5.921 12.968 5.921 12.968 92.666-30.993 113.959-96.342 15.476-136.933zm-141.701 40.407h-20.091c29.47-31.953 49.264-70.646 57.897-112.501 36.549-21.866 68.558-21.043 109.439-20.499-7.538 74.592-70.698 133-147.245 133zm82.224-273.037 2.517-.916c13.571 35.973 17.005 74.515 9.911 111.896-18.062 1.857-35.659 6.446-52.238 13.611 1.742-32.49-3.291-65.378-14.369-95.197 16.418-12.395 34.587-22.263 54.179-29.394zm-134.117-34.894 1.894-1.893c83.161 78.178 83.157 219.437 0 297.61-82.303-76.983-83.254-217.707-1.894-295.717zm-133.764 36.495.916-2.517c20.485 7.209 39.604 17.379 56.696 30.31-11.078 29.816-16.111 62.709-14.369 95.197-16.579-7.165-34.175-11.754-52.238-13.61-6.9-36.531-3.849-74.09 8.995-109.38zm-27.343 138.436c26.6 0 52.478 7.073 75.194 20.499 8.633 41.854 28.427 80.548 57.897 112.501h-20.091c-76.547 0-139.707-58.408-147.246-133zm352.798 191.464c-32.264-40.276-97.376-23.07-105.939 27.38-91.889 10.868-226.404 7.181-296.589-41.056-6.054-4.814-13.27-12.151-13.27-19.79 0-15.932 28.723-31.729 56.095-41.561 31.659 28.906 73.758 46.561 119.905 46.561h100c46.147 0 88.246-17.655 119.905-46.561 53.708 20.427 83.409 44.72 19.893 75.027z"/></g></svg>