<svg id="Capa_1" enable-background="new 0 0 512.001 512.001" height="512" viewBox="0 0 512.001 512.001" width="512" xmlns="http://www.w3.org/2000/svg"><g><path d="m153.574 121.001h57.427v30h-57.427z"/><path d="m301.001 121.001h57.426v30h-57.426z"/><path d="m211.001 241.001h90v30h-90z"/><path d="m241.001 151.001h30v60h-30z"/><path d="m499.546 311.116c-30.328-57.573-61.421-79.706-77.545-97.608v-47.508c0-91.218-74.797-166-166-166-91.22 0-166 74.797-166 166v47.508c-16.001 17.765-47.194 39.994-77.545 97.608-8.149 15.47-12.456 32.708-12.456 49.851l.001 151.034h37.163c61.734 0 111.616-50.102 111.341-111.84l-.004-.304c-.345-13.931 3.127-27.321 9.947-39.073 28.074 20.224 62.136 31.217 97.554 31.217s69.48-10.993 97.554-31.217c6.819 11.752 10.291 25.142 9.947 39.073l-.004.304c-.276 61.734 49.603 111.84 111.341 111.84h37.163v-151.034c-.001-17.143-4.308-34.381-12.457-49.851zm-381.041 89.322c.124 44.783-36.062 81.563-81.342 81.563h-7.163v-121.034c0-12.29 3.112-24.693 8.998-35.868 30.087-57.113 59.455-74.767 97.825-115.986 7.969 16.725 5.039 37.387-8.789 51.216-12.888 14.951-45.165 36.447-61.512 86.938-7.7 23.783-9.906 49.468-6.38 74.279l29.701-4.222c-5.328-37.488 4.875-74.402 28.158-103.388l21.376 21.376c-14.093 18.706-21.424 41.349-20.872 65.126zm59.358-62.659 3.205-3.205-42.427-42.426 10.606-10.607c29.243-29.242 29.243-76.824 0-106.066l-10.606-10.607-18.64 18.64v-17.507c0-74.991 61.009-136 136-136s136 61.009 136 136v17.507l-18.64-18.64-10.606 10.607c-29.243 29.242-29.243 76.824 0 106.066l10.606 10.606-42.426 42.427 3.204 3.205c-22.622 15.707-49.836 24.222-78.139 24.222-28.301 0-55.516-8.515-78.137-24.222zm304.138 144.222h-7.163c-44.784 0-81.467-36.286-81.342-81.563.552-23.777-6.779-46.419-20.873-65.125l21.377-21.377c23.283 28.986 33.486 65.9 28.159 103.388l29.701 4.222c3.526-24.811 1.32-50.496-6.38-74.279-16.371-50.566-48.849-72.248-61.512-86.938-13.828-13.829-16.758-34.491-8.789-51.216 38.332 41.178 67.721 58.84 97.825 115.986 5.887 11.176 8.999 23.579 8.998 35.868z"/></g></svg>