<svg id="Capa_1" enable-background="new 0 0 512 512" height="512" viewBox="0 0 512 512" width="512" xmlns="http://www.w3.org/2000/svg"><g><path d="m437.02 74.98c-48.353-48.351-112.64-74.98-181.02-74.98s-132.667 26.629-181.02 74.98c-48.351 48.353-74.98 112.64-74.98 181.02s26.629 132.667 74.98 181.02c48.353 48.351 112.64 74.98 181.02 74.98s132.667-26.629 181.02-74.98c48.352-48.353 74.98-112.64 74.98-181.02s-26.628-132.667-74.98-181.02zm-181.02 407.02c-124.617 0-226-101.383-226-226s101.383-226 226-226 226 101.383 226 226-101.383 226-226 226z"/><path d="m275.87 190h20v51h-79.739v-51h20v-30h-70v30h20v132h-20v30h70v-30h-20v-51h79.739v51h-20v30h70v-30h-20v-132h20v-30h-70z"/><path d="m447.988 232.45-21.213-21.213-44.762 44.763 44.762 44.763 21.213-21.213-23.55-23.55z"/><path d="m64.012 232.45 23.55 23.55-23.55 23.55 21.214 21.213 44.762-44.763-44.762-44.763z"/><path d="m300.763 85.225-21.213-21.213-23.55 23.55-23.549-23.55-21.214 21.213 44.763 44.763z"/><path d="m211.237 426.775 21.214 21.213 23.549-23.55 23.55 23.55 21.213-21.213-44.763-44.763z"/></g></svg>