<svg id="Capa_1" enable-background="new 0 0 512 512" height="512" viewBox="0 0 512 512" width="512" xmlns="http://www.w3.org/2000/svg"><g><g><path d="m256 392c-74.991 0-136-61.009-136-136s61.009-136 136-136 136 61.009 136 136-61.009 136-136 136zm0-242c-58.449 0-106 47.551-106 106s47.551 106 106 106 106-47.551 106-106-47.551-106-106-106z"/></g><g><path d="m303.91 512h-95.82l-14.466-38.736c-16.404-4.7-32.201-11.247-47.135-19.534l-37.631 17.167-67.755-67.755 17.167-37.631c-8.287-14.935-14.834-30.731-19.534-47.135l-38.736-14.466v-95.82l38.736-14.466c4.7-16.404 11.247-32.201 19.534-47.135l-17.167-37.631 67.755-67.755 37.631 17.167c14.934-8.287 30.73-14.834 47.135-19.534l14.466-38.736h95.82l14.466 38.736c16.404 4.7 32.201 11.247 47.135 19.534l37.631-17.167 67.755 67.755-17.167 37.631c8.287 14.934 14.834 30.73 19.534 47.135l38.736 14.466v95.82l-38.736 14.466c-4.7 16.404-11.247 32.2-19.534 47.135l17.167 37.631-67.755 67.755-37.631-17.167c-14.934 8.287-30.73 14.834-47.135 19.534zm-75-30h54.18l12.652-33.879 7.671-1.905c18.862-4.685 36.878-12.151 53.549-22.192l6.772-4.079 32.917 15.017 38.311-38.311-15.017-32.917 4.079-6.772c10.041-16.671 17.507-34.688 22.192-53.549l1.905-7.671 33.879-12.652v-54.18l-33.879-12.652-1.905-7.671c-4.685-18.862-12.151-36.878-22.192-53.549l-4.079-6.772 15.017-32.917-38.311-38.311-32.917 15.017-6.772-4.079c-16.67-10.041-34.687-17.507-53.549-22.192l-7.671-1.905-12.652-33.879h-54.18l-12.652 33.879-7.671 1.905c-18.862 4.685-36.878 12.151-53.549 22.192l-6.772 4.079-32.917-15.017-38.311 38.311 15.017 32.917-4.079 6.772c-10.041 16.67-17.507 34.687-22.192 53.549l-1.905 7.671-33.879 12.652v54.18l33.879 12.652 1.905 7.671c4.685 18.861 12.151 36.877 22.192 53.549l4.079 6.772-15.017 32.917 38.311 38.311 32.917-15.017 6.772 4.079c16.67 10.041 34.687 17.507 53.549 22.192l7.671 1.905z"/></g><g><path d="m245.394 309.033-53.034-53.033 21.213-21.213 31.821 31.819 53.033-53.032 21.213 21.213z"/></g></g></svg>