<svg id="Capa_1" enable-background="new 0 0 512 512" height="512" viewBox="0 0 512 512" width="512" xmlns="http://www.w3.org/2000/svg"><g><g><path d="m437.02 74.98c-48.353-48.351-112.64-74.98-181.02-74.98s-132.667 26.629-181.02 74.98c-48.351 48.353-74.98 112.64-74.98 181.02s26.629 132.667 74.98 181.02c48.353 48.351 112.64 74.98 181.02 74.98s132.667-26.629 181.02-74.98c48.351-48.353 74.98-112.64 74.98-181.02s-26.629-132.667-74.98-181.02zm-21.214 340.826c-42.686 42.686-99.439 66.194-159.806 66.194s-117.12-23.508-159.806-66.194-66.194-99.439-66.194-159.806 23.508-117.12 66.194-159.806 99.439-66.194 159.806-66.194 117.12 23.508 159.806 66.194 66.194 99.439 66.194 159.806-23.508 117.12-66.194 159.806z"/><path d="m256 157.5c26.881 0 48.75-21.869 48.75-48.75s-21.869-48.75-48.75-48.75-48.75 21.869-48.75 48.75 21.869 48.75 48.75 48.75zm0-67.5c10.339 0 18.75 8.411 18.75 18.75s-8.411 18.75-18.75 18.75-18.75-8.411-18.75-18.75 8.411-18.75 18.75-18.75z"/><path d="m116.119 123.621h45v30h-45z" transform="matrix(.707 -.707 .707 .707 -57.42 138.619)"/><path d="m383.996 325.911h45v30h-45z" transform="matrix(.707 -.707 .707 .707 -122 387.287)"/><path d="m362.501 129.522h30v30h-30z"/><path d="m392.501 189.522h30v30h-30z"/><path d="m81.398 315.903h30.001v30.001h-30.001z" transform="matrix(.828 -.561 .561 .828 -168.98 110.985)"/><path d="m65.62 239.111h30.001v30.001h-30.001z" transform="matrix(.828 -.561 .561 .828 -128.631 88.926)"/><path d="m246.526 409.137c-10.64 4.562-23.672-10.234-23.801-10.385l-11.465 9.662-11.53 9.604c9.987 11.991 33.569 29.423 58.61 18.695 8.099-3.469 15.094-6.467 31.535 10.826l21.742-20.671c-21.6-22.721-41.068-28.022-65.091-17.731z"/><path d="m351.601 292.5h31.899v-30h-31.899c-2.765-10.705-8.426-20.254-16.084-27.777l15.972-27.665-25.98-15-15.958 27.64c-5.113-1.422-10.492-2.198-16.052-2.198h-22.499v-30h-30v30h-22.5c-5.56 0-10.939.776-16.052 2.198l-15.958-27.64-25.98 15 15.972 27.665c-7.658 7.523-13.318 17.072-16.084 27.777h-31.898v30h31.899c2.765 10.705 8.426 20.254 16.084 27.777l-15.972 27.665 25.98 15 15.958-27.64c5.113 1.422 10.492 2.198 16.052 2.198h22.499v30h30v-30h22.5c5.56 0 10.939-.776 16.052-2.198l15.958 27.64 25.98-15-15.972-27.665c7.657-7.523 13.318-17.072 16.083-27.777zm-133.101 15c-16.542 0-30-13.458-30-30s13.458-30 30-30h75c16.542 0 30 13.458 30 30s-13.458 30-30 30z"/></g></g></svg>