<svg id="Capa_1" enable-background="new 0 0 510 510" height="512" viewBox="0 0 510 510" width="512" xmlns="http://www.w3.org/2000/svg"><g><path d="m448.589 288.406-32.864-43.17-32.864 43.17-33.143 11.594h-69.519v-22.979c18.401-16.491 30-40.425 30-67.021 0-16.386 0-122.959 0-140.729 0-38.197-31.074-69.271-69.269-69.271h-140.73v86.459c0 23.16 11.289 44.269 30 57.076v66.465c0 26.596 11.599 50.529 30 67.02v22.98h-76.334c-40.62 0-73.667 33.047-73.667 73.667v136.333h210 .001 209.999v-116.102l37.487 11.261 1.213-54.242 30.901-44.596zm-228.39 116.594c-41.355 0-75-33.645-75-75h24.404l50.596 43.85 50.596-43.85h24.404c0 41.355-33.644 75-75 75zm0-135c-33.084 0-60-26.916-60-60v-60.671c21.967-2.297 42.613-10.642 59.951-24.265 16.271 12.532 38.018 21.193 60.049 23.973v60.963c0 33.084-26.916 60-60 60zm-90-240h110.73c21.653 0 39.27 17.616 39.27 39.271v49.467c-18.449-3.043-36.42-11.371-47.645-22.595l-12.355-12.356c-5.748 4.271-26.64 35.586-71.175 36.205-11.691-7.1-18.825-19.668-18.825-33.532zm120 264.853v13.298l-30 26-30-26v-13.298c18.821 6.672 40.105 7.054 60 0zm-210 78.814c0-24.078 19.589-43.667 43.667-43.667h31.333c0 52.805 39.184 96.622 90 103.924v46.076h-165zm195 106.333v-46.076c50.816-7.301 90-51.119 90-103.924h22.857l14.494 20.917 1.213 54.242 36.436-10.944v85.785zm203.909-138.763-.533 23.854-22.851-6.864-22.851 6.864-.533-23.854-13.59-19.611 22.521-7.878 14.452-18.984 14.452 18.984 22.521 7.878z"/></g></svg>