<svg id="Capa_1" enable-background="new 0 0 512 512" height="512" viewBox="0 0 512 512" width="512" xmlns="http://www.w3.org/2000/svg"><g><path d="m370.787 362h72.427v30h-72.427z" transform="matrix(.707 -.707 .707 .707 -147.372 398.213)"/><path d="m362 177.606c0-13.891-3.947-27.092-11.115-37.173-8.452-11.887-20.486-18.433-33.885-18.433-12.379 0-22.497 4.813-30 10.736-7.503-5.923-17.621-10.736-30-10.736-13.399 0-25.433 6.546-33.885 18.433-7.167 10.081-11.115 23.282-11.115 37.173 0 64.673 73.742 95.224 75 96.229 1.296-1.035 75-31.956 75-96.229zm-120 0c0-13.88 6.869-25.606 15-25.606 10.22 0 16.251 9.268 16.944 10.39l12.877 25.087 13.229-25.077c.663-1.077 6.699-10.4 16.95-10.4 8.131 0 15 11.726 15 25.606 0 8.837-3.376 38.403-45 62.343-41.624-23.94-45-53.506-45-62.343z"/><path d="m422 275.797v-215.797h-121.509c-6.969-34.192-37.272-60-73.491-60h-90c-41.355 0-75 33.645-75 75v167h-30v30h-32v30h32v20.601c-20.73 21.679-30 54.152-30 84.399 0 26.969 7.136 52.524 20.093 71.96 14.204 21.306 33.703 33.04 54.907 33.04s40.703-11.734 54.907-33.04c12.957-19.436 20.093-44.991 20.093-71.96 0-30.27-9.282-62.732-30-84.399v-80.601h-30v-167c0-24.813 20.187-45 45-45h90c19.555 0 36.228 12.542 42.42 30h-117.42v272h136.109c-10.24 17.661-16.109 38.157-16.109 60 0 66.168 53.832 120 120 120s120-53.832 120-120c0-55.813-38.301-102.848-90-116.203zm-330-3.797v32.026c-4.868-1.336-9.883-2.026-15-2.026s-10.132.69-15 2.026v-32.026zm-15 210c-24.393 0-45-34.346-45-75s20.607-75 45-75 45 34.346 45 75-20.607 75-45 75zm105-392h210v182c-30.362 0-58.121 11.34-79.279 30h-130.721zm225 390.743v-28.743h-30v28.743c-37.631-6.341-67.403-36.113-73.743-73.743h28.743v-30h-28.743c6.34-37.631 36.112-67.403 73.743-73.743v28.743h30v-28.743c37.631 6.341 67.403 36.113 73.743 73.743h-28.743v30h28.743c-6.34 37.631-36.112 67.403-73.743 73.743z"/></g></svg>