<svg id="Capa_1" enable-background="new 0 0 512 512" height="512" viewBox="0 0 512 512" width="512" xmlns="http://www.w3.org/2000/svg"><g><path d="m316 31c-41.355 0-75 33.645-75 75v15h196c41.355 0 75-33.645 75-75v-15zm121 60h-163.43c6.191-17.461 22.874-30 42.43-30h163.43c-6.191 17.461-22.874 30-42.43 30z"/><path d="m68.787 361h-68.787v90h68.787l30 30h413.213v-150h-413.213zm141.213 90h-30v-90h30zm30-90h182v90h-182zm242 90h-30v-90h30zm-332-90v90h-38.787l-30-30h-51.213v-30h51.213l30-30z"/><path d="m270 391h30v30h-30z"/><path d="m61.261 212.261c-34.816 6.473-61.261 37.076-61.261 73.739v15h196c36.219 0 66.524-25.809 73.493-60h167.507c41.355 0 75-33.645 75-75v-15h-377c-36.663 0-67.266 26.445-73.739 61.261zm375.739-1.261h-196v15c0 24.813-20.187 45-45 45h-163.43c6.191-17.461 22.874-30 42.43-30h15v-15c0-24.813 20.187-45 45-45h344.43c-6.191 17.461-22.874 30-42.43 30z"/></g></svg>