<svg id="Capa_1" enable-background="new 0 0 512 512" height="512" viewBox="0 0 512 512" width="512" xmlns="http://www.w3.org/2000/svg"><g><path d="m421.756 248.786c-1.172-26.626-8.708-53.016-22.603-76.675l9.635-9.635c17.612-17.612 17.612-46.27 0-63.882-5.224-5.224-11.501-9.011-18.354-11.162 1.135-3.989 1.721-8.159 1.721-12.42 0-12.066-4.699-23.41-13.231-31.941-8.531-8.532-19.875-13.23-31.94-13.23-4.265 0-8.44.587-12.432 1.723-2.108-6.712-5.816-13.023-11.126-18.333-8.532-8.533-19.876-13.231-31.942-13.231s-23.409 4.699-31.94 13.23l-48.54 48.54-48.54-48.54c-17.612-17.612-46.269-17.612-63.882 0-5.223 5.223-9.01 11.5-11.162 18.352-15.252-4.325-32.352-.496-44.337 11.488-11.989 11.989-15.816 29.096-11.484 44.353-6.862 2.15-13.149 5.94-18.379 11.17-17.612 17.612-17.612 46.27 0 63.882l14.862 14.862c-4.222 1.956-8.186 4.601-11.712 7.939-8.942 8.465-13.96 19.899-14.129 32.197-.038 2.799.188 5.557.643 8.255-9.618 51.918 5.584 107.572 45.634 147.659 31.326 31.354 72.986 48.627 117.308 48.636h.035c15.476-.001 30.625-2.117 45.127-6.195 12.21 3.433 24.88 5.468 37.818 6.028 18.697 52.475 68.87 90.144 127.683 90.144 74.715 0 135.5-60.785 135.5-135.5 0-58.847-37.711-109.043-90.233-127.714zm-44.909-133.424c4.053 0 7.862 1.578 10.729 4.444 5.915 5.916 5.915 15.541 0 21.456l-6.17 6.17c-2.541-2.924-5.189-5.787-7.97-8.568l-13.188-13.188 5.873-5.87c2.864-2.866 6.674-4.444 10.726-4.444zm-53.246-38.425 12.654-12.654c2.866-2.866 6.676-4.444 10.729-4.444 4.052 0 7.862 1.578 10.728 4.444 2.865 2.865 4.444 6.675 4.444 10.728s-1.579 7.863-4.444 10.729l-18.7 18.7-16.23-16.23c-1.777-1.777-3.674-3.368-5.658-4.793l6.303-6.303c.057-.059.116-.119.174-.177zm-42.844-42.494c2.865-2.865 6.676-4.443 10.728-4.443 4.053 0 7.863 1.578 10.729 4.443 5.881 5.882 5.915 15.431.102 21.354l-19.585 19.585c-8.551 1.398-16.735 5.222-23.372 11.505-4.135 3.915-7.431 8.464-9.796 13.44l-17.344-17.344zm-211.016 317.74c-24.229-24.252-37.348-55.462-39.385-87.257l108.498 108.509c6.844 6.845 14.181 13.017 21.93 18.485-34.411-1.255-66.576-15.248-91.043-39.737zm90.327.04-123.388-123.4c-2.921-2.921-4.499-6.807-4.442-10.939.057-4.129 1.746-7.972 4.755-10.821 2.813-2.663 6.485-3.98 10.208-3.98 3.856 0 7.768 1.414 10.835 4.21l75.641 75.617 21.202-21.225-120.446-120.423c-5.915-5.916-5.915-15.541 0-21.456 2.865-2.866 6.675-4.444 10.728-4.444 4.052 0 7.862 1.578 10.728 4.444l122.05 122.05 21.215-21.211-134.857-134.906c-5.916-5.916-5.916-15.541 0-21.457 5.916-5.915 15.54-5.915 21.456 0l134.88 134.88 21.213-21.213-122.05-122.05c-2.866-2.865-4.444-6.675-4.444-10.728s1.578-7.863 4.444-10.729c5.916-5.915 15.54-5.915 21.456 0l179.853 179.854 21.213-21.213-62.648-62.649c-2.921-2.921-4.499-6.805-4.442-10.938.057-4.129 1.745-7.973 4.755-10.822 5.902-5.588 15.588-5.251 21.587.748l50.654 50.655c22.837 22.837 35.813 51.854 38.957 81.722-4.827-.523-9.727-.799-14.69-.799-74.715 0-135.5 60.785-135.5 135.5 0 4.991.28 9.918.808 14.771-30.87-3.22-59.481-16.796-81.731-39.048zm216.421 129.777c-58.173 0-105.5-47.327-105.5-105.5s47.328-105.5 105.5-105.5 105.5 47.327 105.5 105.5-47.327 105.5-105.5 105.5z"/><path d="m391.489 301h-30v90.5h70.5v-30h-40.5z"/></g></svg>