<svg id="Capa_1" enable-background="new 0 0 512 512" height="512" viewBox="0 0 512 512" width="512" xmlns="http://www.w3.org/2000/svg"><g><path d="m512 421.993v-30.002h-29.996v-30.002h-22.997c-36.216 0-66.517 25.81-73.484 60.005h-20.463c-26.405 0-50.143 14.674-61.95 38.294-6.695 13.391-20.152 21.71-35.121 21.71h-211.175c-11.16 0-20.372-6.156-24.643-16.468-2.681-6.472-2.827-13.164-.614-19.201 5.325 2.172 11.075 3.31 16.999 3.31 12.019 0 23.319-4.682 31.817-13.184l21.415-21.422c4.135.81 8.354 1.305 12.626 1.471 1.075.042 2.148.063 3.22.063 19.533 0 38.327-6.927 53.234-19.687l127.064-108.758c22.635 7.189 47.679 1.351 64.903-15.876l90.377-90.395-21.21-21.214-30.433 30.439-32.325-32.332 30.433-30.439-21.21-21.214-30.433 30.439-32.326-32.332 30.432-30.438-21.21-21.214-30.432 30.438-32.326-32.332 30.432-30.439-21.211-21.213-90.377 90.395c-16.649 16.652-22.69 41.064-16.357 63.254l-109.297 127.655c-13.464 15.725-20.439 35.779-19.641 56.467.186 4.831.793 9.595 1.799 14.246l-20.781 20.789c-14.197 14.202-16.904 35.612-8.121 52.563-9.688 15.312-11.4 34.162-4.16 51.643 8.939 21.581 29 34.988 52.356 34.988h211.175c26.404 0 50.142-14.673 61.951-38.295 6.694-13.391 20.151-21.71 35.12-21.71h20.463c6.966 34.195 37.267 60.005 73.483 60.005h22.997v-30.002h29.997v-30.002h-29.996v-30.002h29.996zm-312.564-262.837-4.073-8.753c-6.064-13.033-3.306-28.623 6.863-38.794l38.734-38.741 139.397 139.424-38.734 38.741c-10.52 10.521-26.502 13.09-39.77 6.387l-8.921-4.507-102.337 87.594-78.88-78.896zm-121.29 141.664 14.001-16.353 75.591 75.605-16.373 14.014c-20.475 17.525-51.441 16.321-70.498-2.744-19.06-19.066-20.255-50.043-2.721-70.522zm-40.195 93.199 12.467-12.472c2.73 3.902 5.815 7.587 9.236 11.008 3.755 3.757 7.828 7.11 12.157 10.032l-12.651 12.656c-2.833 2.834-6.599 4.394-10.605 4.394-4.005 0-7.772-1.561-10.604-4.394-5.849-5.852-5.849-15.373 0-21.224zm414.056 87.435c-21.497-3.373-37.995-22.026-37.995-44.46s16.498-41.087 37.995-44.46z"/><path d="m220.604 187.65h29.999v59.999h-29.999z" transform="matrix(.707 -.707 .707 .707 -84.896 230.314)"/></g></svg>