<svg id="Capa_1" enable-background="new 0 0 510 510" height="512" viewBox="0 0 510 510" width="512" xmlns="http://www.w3.org/2000/svg"><g><path d="m360 210c0-26.692-14.027-50.156-35.087-63.451 7.839-9.175 12.587-21.064 12.587-34.049 0-28.949-23.552-52.5-52.5-52.5s-52.5 23.551-52.5 52.5c0 12.984 4.749 24.874 12.587 34.049-21.059 13.295-35.087 36.759-35.087 63.451v45h150zm-97.5-97.5c0-12.407 10.094-22.5 22.5-22.5s22.5 10.093 22.5 22.5-10.094 22.5-22.5 22.5-22.5-10.093-22.5-22.5zm67.5 112.5h-90v-15c0-24.813 20.186-45 45-45s45 20.187 45 45z"/><path d="m435 45v-45c-12.339 0-384.877 0-390 0v60h-30v30h30v60h-30v30h30v60h-30v30h30v60h-30v30h30v60h-30v30h30v60h390v-195h60c0-25.738 0-207.42 0-270zm-300 435h-60v-30h30v-30h-30v-60h30v-30h-30v-60h30v-30h-30v-60h30v-30h-30v-60h30v-30h-30v-30h60zm270 0h-240v-450h240zm60-195h-30v-30h30zm0-60h-30v-60h30zm-30-90v-60h30v60z"/><path d="m195 390h180v-105h-180zm30-75h120v45h-120z"/></g></svg>