<svg id="Capa_1" enable-background="new 0 0 512 512" height="512" viewBox="0 0 512 512" width="512" xmlns="http://www.w3.org/2000/svg"><g><path d="m473.609 31.489h-148.192c-17.425-19.844-42.834-31.489-69.417-31.489s-51.992 11.645-69.416 31.489h-148.193v30h28.199v420.511h30v30h30v-30h258.82v30h30v-30h30v-420.511h28.199zm-118.151 360.511h-200.556v-30h200.556zm0 30v30h-200.556v-30zm59.952 30h-29.951v-120h-260.557v120h-28.312v-390.511h104.738l4.496-6.104c11.709-15.895 30.467-25.385 50.176-25.385s38.467 9.49 50.176 25.385l4.496 6.104h104.738z"/><path d="m126.391 302.87h259.218v-211.853h-259.218zm229.218-30h-84.609v-60.926h29.181v-30h-29.181v-60.926h84.609zm-199.218-151.853h84.609v60.926h-29.819v30h29.819v60.926h-84.608v-151.852z"/></g></svg>