<svg id="Capa_1" enable-background="new 0 0 512 512" height="512" viewBox="0 0 512 512" width="512" xmlns="http://www.w3.org/2000/svg"><g><path d="m248.104 64.985v-64.985h-90v64.985c-31.774 15.08-53.908 45.236-58.92 79.887h-31.08v367.128h270v-367.128h-31.08c-5.013-34.651-27.146-64.807-58.92-79.887zm-30-34.985v30h-30v-30zm-42.283 60h54.564c23.909 9.337 41.149 30.232 46.193 54.872h-146.95c5.044-24.64 22.284-45.535 46.193-54.872zm132.283 84.872v30h-210v-30zm0 60v187.128h-210v-187.128zm-210 247.128v-30h210v30z"/><path d="m293.896 30h30v30h-30z"/><path d="m353.896 30h30v30h-30z"/><path d="m413.896 30h30v30h-30z"/></g></svg>