<svg id="Capa_1" enable-background="new 0 0 511.757 511.757" height="512" viewBox="0 0 511.757 511.757" width="512" xmlns="http://www.w3.org/2000/svg"><g><path d="m503.879 255.875c0-4.977 1.669-10.967 3.436-17.309 2.803-10.06 5.979-21.462 3.617-33.405-2.442-12.347-9.882-21.824-16.445-30.186-3.935-5.013-7.651-9.748-9.428-14.031-1.852-4.464-2.597-10.552-3.387-16.997-1.28-10.448-2.731-22.29-9.598-32.547-6.916-10.33-17.347-16.201-26.55-21.382-5.62-3.163-10.928-6.151-14.283-9.507-3.356-3.355-6.344-8.663-9.507-14.283-5.181-9.203-11.052-19.634-21.382-26.549-10.257-6.867-22.099-8.317-32.546-9.598-6.445-.79-12.534-1.536-16.998-3.387-4.284-1.776-9.019-5.493-14.031-9.428-21.516-17.871-36.652-21.234-63.59-12.826-15.148 4.483-19.514 4.46-34.617-.001-26.878-8.391-42.088-5.064-63.591 12.829-5.013 3.934-9.748 7.651-14.032 9.428-4.464 1.851-10.552 2.597-16.997 3.387-10.448 1.28-22.29 2.731-32.546 9.598-10.33 6.916-16.202 17.347-21.382 26.55-3.163 5.619-6.151 10.927-9.507 14.283-3.355 3.356-8.663 6.343-14.282 9.506-24.774 13.017-33.566 25.849-36.147 53.929-1.662 15.326-3.08 19.04-12.816 31.028-17.779 21.381-21.279 36.615-12.827 63.591 1.766 6.342 3.435 12.332 3.435 17.308s-1.669 10.966-3.436 17.308c-2.803 10.061-5.979 21.463-3.617 33.406 2.442 12.348 9.882 21.824 16.445 30.186 3.935 5.013 7.652 9.748 9.428 14.032 1.851 4.464 2.597 10.552 3.387 16.997 2.593 27.84 11.132 40.809 36.148 53.928 13.599 7.376 16.413 10.212 23.789 23.789 12.988 24.741 25.881 33.587 53.929 36.147 15.345 1.66 19.057 3.097 31.028 12.816 21.505 17.725 36.134 21.327 63.591 12.827 15.148-4.484 19.533-4.457 34.616.001 26.93 8.42 42.155 5.008 63.592-12.829 12.005-9.753 15.725-11.149 31.029-12.814 28.027-2.587 40.89-11.317 53.929-36.15 3.162-5.619 6.15-10.926 9.505-14.281 3.355-3.356 8.663-6.343 14.282-9.507 24.837-13.046 33.558-25.891 36.148-53.929 1.666-15.315 3.063-19.021 12.815-31.026 17.791-21.369 21.27-36.668 12.827-63.592-1.766-6.343-3.434-12.333-3.434-17.31zm-25.464 25.36c5.55 19.037 4.743 21.584-7.526 37.016-12.873 15.542-17.02 26.177-18.994 45.903-2.225 19.725-3.761 21.864-21.087 31.434-17.734 9.434-25.791 17.501-35.215 35.216-9.541 17.304-11.754 18.881-31.435 21.087-19.817 1.972-30.417 6.184-45.904 18.995-15.439 12.277-17.987 13.071-37.016 7.526-19.51-5.953-31.298-5.912-50.719 0-18.981 5.524-21.563 4.779-37.015-7.527-15.546-12.874-26.178-17.019-45.905-18.993-7.812-.957-15.191-1.862-19.505-4.749-4.385-2.936-8.049-9.445-11.928-16.336-3.83-6.804-8.17-14.515-14.437-20.78-6.266-6.267-13.977-10.607-20.78-14.436-17.27-9.54-18.881-11.702-21.086-31.435-1.973-19.821-6.183-30.415-18.995-45.903-12.226-15.392-13.1-17.952-7.526-37.016 5.952-19.515 5.912-31.294-.001-50.719-2.09-7.503-4.064-14.59-3.086-19.533 1.048-5.297 5.694-11.216 10.613-17.482 5.01-6.382 10.19-12.982 13.542-21.064 3.418-8.244 4.499-17.061 5.452-24.84 2.218-19.636 3.721-21.869 21.086-31.433 17.781-9.455 25.795-17.527 35.216-35.217 9.564-17.332 11.747-18.87 31.435-21.086 19.816-1.972 30.416-6.183 45.904-18.995 6.267-4.919 12.186-9.565 17.483-10.613 6.227-.999 12.066 1.177 19.533 3.087 19.508 5.952 31.297 5.913 50.719 0 7.502-2.09 14.589-4.064 19.532-3.086 5.298 1.048 11.216 5.694 17.482 10.613 6.383 5.01 12.982 10.19 21.065 13.542 8.244 3.418 17.061 4.499 24.84 5.452 7.812.957 15.191 1.861 19.505 4.75 4.386 2.936 8.05 9.445 11.929 16.336 3.829 6.803 8.17 14.515 14.437 20.78 6.266 6.267 13.977 10.607 20.78 14.437 6.891 3.879 13.4 7.543 16.336 11.928 2.889 4.314 3.793 11.693 4.75 19.506 1.971 19.814 6.183 30.418 18.995 45.904 12.278 15.44 13.071 17.987 7.526 37.015-5.952 19.503-5.913 31.295 0 50.716z"/><path d="m255.879 67.875c-103.664 0-188 84.336-188 188 10.327 249.408 365.712 249.335 376-.001 0-103.662-84.336-187.999-188-187.999zm15 100.837v-70.12c14.732 1.394 28.88 4.816 42.163 9.989v60.132h-42.163zm42.163 30v42.163h-42.163v-42.163zm-72.163-30h-42.163v-60.132c13.283-5.173 27.431-8.595 42.163-9.989zm0 30v42.163h-42.163v-42.163zm-72.164 42.163h-70.12c1.394-14.732 4.816-28.88 9.989-42.163h60.132v42.163zm-70.12 30h70.12v42.163h-60.132c-5.172-13.283-8.594-27.431-9.988-42.163zm100.12 0h42.163v42.163h-42.163zm42.164 72.163v70.12c-14.732-1.394-28.88-4.816-42.163-9.989v-60.132h42.163zm30 0h42.163v60.132c-13.283 5.173-27.431 8.595-42.163 9.989zm0-30v-42.163h42.163v42.163zm72.163-42.163h70.12c-1.394 14.732-4.816 28.88-9.989 42.163h-60.132v-42.163zm0-30v-42.163h60.132c5.173 13.283 8.595 27.431 9.989 42.163zm44.55-72.163h-44.551v-44.551c17.656 11.723 32.829 26.896 44.551 44.551zm-218.877-44.551v44.551h-44.551c11.723-17.656 26.896-32.828 44.551-44.551zm-44.55 218.877h44.551v44.551c-17.656-11.723-32.829-26.895-44.551-44.551zm218.877 44.551v-44.551h44.551c-11.723 17.656-26.896 32.828-44.551 44.551z"/></g></svg>