<svg id="Capa_1" enable-background="new 0 0 512 512" height="512" viewBox="0 0 512 512" width="512" xmlns="http://www.w3.org/2000/svg"><g><path d="m45 121h15v-30h-15c-24.813 0-45 20.187-45 45v90c0 52.854 39.63 96.704 91 103.944v137.056c0 24.813 20.187 45 45 45h210c24.813 0 45-20.187 45-45v-15h121v-452h-271v452h120v15c0 8.271-6.729 15-15 15h-210c-8.271 0-15-6.729-15-15v-137.076c50.816-7.301 90-51.119 90-103.924v-90c0-24.813-20.187-45-45-45h-15v30h15c8.271 0 15 6.729 15 15v90c0 5.136-.521 10.152-1.509 15h-147.962c-1.001-4.848-1.529-9.864-1.529-15v-90c0-8.271 6.729-15 15-15zm331 240c-8.271 0-15-6.729-15-15s6.729-15 15-15 15 6.729 15 15-6.729 15-15 15zm-105 61v-392h211v392h-91v-33.58c17.459-6.192 30-22.865 30-42.42 0-24.813-20.187-45-45-45s-45 20.187-45 45c0 19.555 12.541 36.228 30 42.42v33.58zm-105.041-151c-13.697 18.204-35.475 30-59.959 30-24.811 0-46.879-11.796-60.759-30z"/><path d="m361 151h30v-30h30v-30h-30v-30h-30v30h-30v30h30z"/><path d="m301 181h151v30h-151z"/><path d="m301 241h151v30h-151z"/></g></svg>