<svg id="Capa_1" enable-background="new 0 0 512 512" height="512" viewBox="0 0 512 512" width="512" xmlns="http://www.w3.org/2000/svg"><path id="XMLID_53_" d="m421.029 48.172c-1.098-13.169-7.058-25.349-16.782-34.297-9.725-8.947-22.357-13.875-35.572-13.875h-225.35c-13.215 0-25.849 4.928-35.572 13.875-9.725 8.948-15.685 21.128-16.782 34.297l-10.475 125.692-.097 1.166 24.481 336.97h302.24l24.396-335.803.084-1.167zm-52.354-18.172c11.628 0 21.492 9.076 22.458 20.664l9.121 109.446h-78.359c13.443-15.387 21.599-35.505 21.599-57.494 0-21.497 2.644-42.973 7.857-63.831l2.197-8.785zm-46.05 0-.378 1.509c-5.808 23.236-8.753 47.16-8.753 71.107 0 31.702-25.792 57.494-57.494 57.494-31.703 0-57.495-25.792-57.495-57.494 0-23.951-2.945-47.875-8.754-71.107l-.377-1.509zm-179.3 0h15.126l2.196 8.785c5.214 20.854 7.857 42.331 7.857 63.831 0 21.989 8.156 42.107 21.599 57.494h-78.358l9.121-109.446c.967-11.588 10.831-20.664 22.459-20.664zm73.449 452v-43.244h80.475v43.244zm110.475 0v-73.244h-140.475v73.244h-53.994l-21.207-291.89h288.854l-21.207 291.89z"/></svg>