<svg id="Capa_1" enable-background="new 0 0 511.884 511.884" height="512" viewBox="0 0 511.884 511.884" width="512" xmlns="http://www.w3.org/2000/svg"><g><g><path d="m495.392 16.492c-10.635-10.635-24.775-16.492-39.815-16.492s-29.181 5.857-39.815 16.492c-9.483 9.482-15.153 21.753-16.274 34.961l-114.72 94.752-70.79 33.447-213.978 230.926 101.307 101.307 230.926-213.979 33.446-70.788 94.753-114.721c13.208-1.121 25.479-6.792 34.96-16.274 10.636-10.635 16.492-24.775 16.492-39.815 0-15.041-5.856-29.181-16.492-39.816zm-393.292 453.758-60.466-60.466 174.901-188.754c14.619 33.201 41.066 59.704 74.245 74.387zm209.48-198.858c-33.319-11.666-59.395-37.796-70.992-71.133l60.75-28.703 38.991 38.991zm48.009-84.012-35.085-35.086 82.244-67.929c2.448 4.244 5.457 8.2 9.014 11.757s7.513 6.565 11.756 9.013zm95.988-104.9c-14.529 0-26.307-11.778-26.307-26.307s11.778-26.307 26.307-26.307 26.307 11.778 26.307 26.307-11.778 26.307-26.307 26.307z"/></g><path d="m84.42 391.812h41.307v30h-41.307z" transform="matrix(.707 -.707 .707 .707 -256.884 193.45)"/><path d="m197.117 285.246h29.044v30h-29.044z" transform="matrix(.707 -.707 .707 .707 -150.318 237.591)"/></g></svg>