<svg id="Capa_1" enable-background="new 0 0 512 512" height="512" viewBox="0 0 512 512" width="512" xmlns="http://www.w3.org/2000/svg"><g><path d="m256 331c-8.271 0-15-6.729-15-15h-30c0 24.813 20.187 45 45 45s45-20.187 45-45h-30c0 8.271-6.729 15-15 15z"/><path d="m391 45c0-24.813-20.187-45-45-45-9.814 0-19.145 3.107-26.983 8.985l-63.017 47.265-63.017-47.265c-7.837-5.878-17.168-8.985-26.983-8.985-24.813 0-45 20.187-45 45 0 5.258.915 10.305 2.58 15h-123.58v121h30v331h452v-331h30v-121h-123.58c1.665-4.695 2.58-9.742 2.58-15zm-53.984-12.015c2.604-1.953 5.711-2.985 8.984-2.985 8.271 0 15 6.729 15 15s-6.729 15-15 15h-45.002zm-81.016 388.015c5.093 0 10.099-.372 15-1.076v62.076h-30v-62.076c4.901.704 9.907 1.076 15 1.076zm0-30c-41.355 0-75-33.645-75-75s33.645-75 75-75 75 33.645 75 75-33.645 75-75 75zm15-178.924c-4.901-.704-9.907-1.076-15-1.076s-10.099.372-15 1.076v-122.076h30zm-120-167.076c0-8.271 6.729-15 15-15 3.273 0 6.379 1.032 8.983 2.985l36.018 27.015h-45.001c-8.271 0-15-6.729-15-15zm-121 45h181v61h-181zm30 91h151v40.145c-35.443 16.882-60 53.053-60 94.855s24.557 77.973 60 94.855v71.145h-151zm392 301h-151v-71.145c35.443-16.883 60-53.053 60-94.855s-24.557-77.973-60-94.855v-40.145h151zm30-331h-181v-61h181z"/></g></svg>