<svg id="Capa_1" enable-background="new 0 0 510 510" height="512" viewBox="0 0 510 510" width="512" xmlns="http://www.w3.org/2000/svg"><g><path d="m240 480h30v30h-30z"/><path d="m322.084 465.526h30.001v30h-30.001z" transform="matrix(.94 -.342 .342 .94 -144.021 144.269)"/><path d="m394.269 423.85h30v30h-30z" transform="matrix(.766 -.643 .643 .766 -186.338 365.752)"/><path d="m447.846 360h30v30.001h-30z" transform="matrix(.5 -.866 .866 .5 -93.334 588.343)"/><path d="m476.354 281.676h30v30h-30z" transform="matrix(.174 -.985 .985 .174 113.863 729.048)"/><path d="m476.354 198.325h30v30h-30z" transform="matrix(.985 -.174 .174 .985 -29.579 88.565)"/><path d="m447.846 120h30.001v30h-30.001z" transform="matrix(.866 -.5 .5 .866 -5.49 249.513)"/><path d="m394.269 56.15h30v30h-30z" transform="matrix(.643 -.766 .766 .643 91.684 338.923)"/><path d="m322.084 14.474h30v30.001h-30z" transform="matrix(.342 -.94 .94 .342 194.099 336.149)"/><path d="m32.154 120h30v30h-30z" transform="matrix(.5 -.866 .866 .5 -93.337 108.337)"/><path d="m3.646 198.324h30v30h-30z" transform="matrix(.174 -.985 .985 .174 -194.675 194.645)"/><path d="m3.646 281.676h30v30h-30z" transform="matrix(.985 -.174 .174 .985 -51.234 7.745)"/><path d="m32.154 360h30v30h-30z" transform="matrix(.866 -.5 .5 .866 -181.184 73.819)"/><path d="m85.731 423.851h30v30h-30z" transform="matrix(.643 -.766 .766 .643 -300.2 233.933)"/><path d="m157.915 465.526h30v30h-30z" transform="matrix(.342 -.94 .94 .342 -337.772 478.658)"/><path d="m392.858 117.142-99.941 32.337-37.917-74.19-37.917 74.19-99.941-32.337 32.337 99.941-74.19 37.917 74.19 37.917-32.337 99.941 99.941-32.336 37.917 74.189 37.917-74.189 99.941 32.336-32.337-99.941 74.19-37.917-74.189-37.917zm-46.613 46.613-12.781 39.499-17.682-9.037-9.037-17.682zm-91.245-22.544c3.111 6.087 28.147 55.076 31.31 61.265l-31.31 31.311-31.311-31.311c6.679-13.067 24.503-47.946 31.311-61.265zm-51.745 35.325-9.037 17.682-17.682 9.037-12.781-39.499zm-.778 47.153 31.31 31.311-31.311 31.31c-13.068-6.678-47.946-24.503-61.266-31.31.001 0 48.197-24.632 61.267-31.311zm-38.722 122.556 12.781-39.5 17.682 9.037 9.037 17.682zm59.934-38.722 31.311-31.31 31.31 31.311c-3.163 6.191-28.203 55.185-31.31 61.265-6.808-13.321-24.632-48.196-31.311-61.266zm122.556 38.722-39.5-12.781 9.037-17.682 17.682-9.037zm-38.722-59.935-31.31-31.31 31.311-31.311c6.652 3.399 54.23 27.715 61.266 31.311-7.02 3.587-54.643 27.926-61.267 31.31z"/><path d="m240 0h30v30h-30z"/><path d="m157.915 14.474h30v30h-30z" transform="matrix(.94 -.342 .342 .94 .347 60.917)"/><path d="m85.731 56.15h30v30h-30z" transform="matrix(.766 -.643 .643 .766 -22.168 81.393)"/></g></svg>