<svg id="Capa_1" enable-background="new 0 0 512 512" height="512" viewBox="0 0 512 512" width="512" xmlns="http://www.w3.org/2000/svg"><g><path d="m377.5 90.253h14.124v60.25h30v-90.25h-44.124z"/><path d="m512 105.376c0-58.105-47.271-105.376-105.376-105.376-47.455 0-87.678 31.534-100.83 74.745-25.2-9.516-52.175-14.495-79.919-14.495-60.333 0-117.056 23.495-159.718 66.157s-66.157 99.385-66.157 159.718 23.495 117.056 66.157 159.718 99.385 66.157 159.718 66.157 117.056-23.495 159.718-66.157 66.157-99.384 66.157-159.718c0-27.744-4.974-54.721-14.491-79.92 43.21-13.154 74.741-53.376 74.741-100.829zm-286.125 376.624c-108.006 0-195.875-87.869-195.875-195.875s87.869-195.875 195.875-195.875c26.701 0 52.158 5.395 75.373 15.115v.011c0 58.104 47.271 105.375 105.376 105.375h.022c9.717 23.214 15.104 48.674 15.104 75.374 0 108.006-87.869 195.875-195.875 195.875zm180.749-301.249c-41.562 0-75.376-33.813-75.376-75.375s33.813-75.376 75.376-75.376 75.376 33.813 75.376 75.376c0 41.562-33.813 75.375-75.376 75.375z"/><path d="m273.852 180.75c-17.483 0-34.32 5.824-47.977 16.319-13.656-10.495-30.494-16.319-47.977-16.319-43.432 0-78.766 35.334-78.766 78.765 0 22.048 9.646 44.74 28.671 67.447 19.705 24.305 57.429 53.314 98.071 77.964 40.433-24.423 78.538-53.89 98.071-77.964 19.024-22.707 28.671-45.399 28.671-67.447.001-43.431-35.333-78.765-78.764-78.765zm-47.977 188.706c-64.205-41.444-96.742-78.409-96.742-109.94 0-26.889 21.876-48.765 48.766-48.765 22.165-.575 36.365 15.243 47.977 29.556 11.514-14.875 27.35-30.349 47.977-29.556 26.89 0 48.766 21.876 48.766 48.765-.002 31.53-32.539 68.496-96.744 109.94z"/></g></svg>