<svg id="Capa_1" enable-background="new 0 0 512 512" height="512" viewBox="0 0 512 512" width="512" xmlns="http://www.w3.org/2000/svg"><g id="Setting_30_"><g><path d="m301 512h-90v-66.424c-20.346-4.782-39.52-12.713-57.253-23.684l-46.241 46.24-63.638-63.641 46.239-46.24c-10.97-17.733-18.901-36.906-23.682-57.251h-66.425v-90h66.425c4.781-20.346 12.712-39.52 23.683-57.253l-46.24-46.24 63.639-63.639 46.24 46.24c17.733-10.971 36.907-18.902 57.253-23.683v-66.425h90v66.425c20.346 4.781 39.52 12.712 57.253 23.684l46.24-46.24 63.639 63.639-46.239 46.24c10.971 17.734 18.901 36.908 23.683 57.253h66.424v90h-66.425c-4.78 20.344-12.712 39.517-23.683 57.251l46.239 46.24-63.639 63.641-46.24-46.24c-17.733 10.971-36.907 18.902-57.253 23.684v66.423zm-60-30h30v-61.387l12.512-2.104c24.74-4.161 47.609-13.621 67.972-28.119l10.336-7.359 42.674 42.674 21.213-21.214-42.675-42.674 7.358-10.335c14.499-20.364 23.959-43.232 28.119-67.969l2.103-12.513h61.388v-30h-61.388l-2.104-12.513c-4.16-24.739-13.621-47.607-28.119-67.971l-7.358-10.335 42.675-42.675-21.213-21.212-42.674 42.674-10.336-7.359c-20.362-14.498-43.231-23.958-67.971-28.119l-12.512-2.103v-61.387h-30v61.387l-12.513 2.104c-24.74 4.16-47.608 13.621-67.97 28.119l-10.335 7.359-42.675-42.675-21.212 21.212 42.675 42.675-7.359 10.335c-14.498 20.362-23.958 43.23-28.119 67.97l-2.105 12.514h-61.387v30h61.387l2.104 12.513c4.16 24.738 13.621 47.606 28.119 67.969l7.359 10.335-42.675 42.674 21.213 21.214 42.674-42.674 10.335 7.359c20.362 14.498 43.23 23.958 67.971 28.119l12.513 2.104z"/></g><g><path d="m256 361c-57.897 0-105-47.103-105-105s47.103-105 105-105 105 47.103 105 105-47.103 105-105 105zm0-180c-41.355 0-75 33.645-75 75s33.645 75 75 75 75-33.645 75-75-33.645-75-75-75z"/></g><g><path d="m241 307.213-40.606-40.607 21.212-21.212 19.394 19.393 49.394-49.393 21.212 21.212z"/></g></g></svg>