<svg id="Capa_1" enable-background="new 0 0 512 512" height="512" viewBox="0 0 512 512" width="512" xmlns="http://www.w3.org/2000/svg"><g><path d="m121.919 206.82c23.204 21.556 58.527 34.221 94.233 34.221 3.648 0 7.307-.133 10.951-.401l13.897-1.026v-17.641c7.817 1.526 16.201 2.288 25.156 2.288 31.561-.001 70.143-9.477 115.333-28.378 50.68-21.197 90.842-46.459 92.526-47.524l18.561-11.732-17.678-13.024c-5.847-4.307-135.196-98.422-233.898-74.781v-17.077l-13.897-1.025c-39.287-2.898-79.608 10.102-105.249 33.921-16.462 15.293-26.592 34.453-29.77 56.038h-61.084v30h61.084c3.182 21.617 13.334 40.813 29.835 56.141zm20.353-120.199c16.519-15.346 42.433-25.016 68.728-26.177v32.435l21.155-9.52c65.525-29.484 164.33 25.212 205.686 51.476-16.158 9.075-40.595 21.94-67.929 33.373-61.621 25.774-109.257 32.619-137.757 19.794l-21.155-9.521v32.471c-26.485-1.053-51.916-10.554-68.663-26.111-10.365-9.629-16.973-21.081-19.778-34.161h148.441v-30h-148.44c2.8-13.047 9.385-24.465 19.712-34.059z"/><path d="m467 301.68h-422c-24.813 0-45 20.187-45 45v90c0 24.813 20.187 45 45 45h422c24.813 0 45-20.187 45-45v-90c0-24.813-20.187-45-45-45zm15 135c0 8.271-6.729 15-15 15h-422c-8.271 0-15-6.729-15-15v-90c0-8.271 6.729-15 15-15h422c8.271 0 15 6.729 15 15z"/><path d="m61 361.68h30v60h-30z"/><path d="m121 361.68h30v60h-30z"/><path d="m181 361.68h30v60h-30z"/><path d="m241 361.68h30v60h-30z"/><path d="m301 361.68h30v60h-30z"/><path d="m361 361.68h30v60h-30z"/><path d="m421 361.68h30v60h-30z"/></g></svg>