<svg id="Capa_1" enable-background="new 0 0 512.001 512.001" height="512" viewBox="0 0 512.001 512.001" width="512" xmlns="http://www.w3.org/2000/svg"><g><path d="m431.557 123.242c-58.434-41.209-119.14-62.992-175.557-62.992s-117.122 21.783-175.556 62.992c-55.492 40.935-64.807 55.664-80.444 72.508 12.25 13.196 20.645 25.108 50.375 49.323-12.83 20.698-20.25 45.086-20.25 71.177 0 74.715 60.785 135.5 135.5 135.5 71.145 0 129.658-55.117 135.087-124.893 43.086-8.254 87.586-28.092 130.845-58.599 55.737-41.239 64.503-55.282 80.444-72.508-15.637-16.844-24.952-31.573-80.444-72.508zm-390.881 72.508c11.042-11.052 31.215-29.834 57.655-48.412 12.892-9.058 28.257-18.717 45.462-27.467-13.407 19.763-21.714 43.242-23.072 68.537-19.779 6.968-37.467 18.401-51.852 33.086-12.138-10.166-21.735-19.28-28.193-25.744zm124.949 226c-58.173 0-105.5-47.327-105.5-105.5s47.327-105.5 105.5-105.5 105.5 47.327 105.5 105.5-47.327 105.5-105.5 105.5zm99.605-197.26c-11.166-12.111-24.506-22.185-39.395-29.602.46-16.247 13.81-29.325 30.166-29.325 16.646 0 30.187 13.542 30.187 30.188 0 13.426-8.814 24.829-20.958 28.739zm33.733 67.584c-2.766-15.295-8.11-29.703-15.561-42.762 19.446-9.985 32.786-30.24 32.786-53.562 0-33.188-27-60.188-60.188-60.188-29.307 0-53.775 21.06-59.099 48.837-10.044-2.382-20.514-3.65-31.276-3.65-4.781 0-9.503.252-14.157.738 6.985-51.45 51.196-91.237 104.532-91.237 58.173 0 105.5 47.327 105.5 105.5 0 42.878-25.722 79.841-62.537 96.324zm114.707-47.911c-12.89 9.057-28.253 18.711-45.456 27.458 14.693-21.662 23.286-47.781 23.286-75.87 0-28.121-8.613-54.266-23.336-75.942 14.448 7.343 29.654 16.392 45.506 27.53 26.44 18.578 46.614 37.36 57.656 48.412-11.039 11.049-31.213 29.832-57.656 48.412z"/><path d="m120.375 316.25c0-7.926 2.074-15.718 5.998-22.534l-25.999-14.968c-6.541 11.361-9.999 24.329-9.999 37.501v.111h30z"/><path d="m126.457 338.927-25.944 15.063c6.615 11.393 16.142 20.894 27.551 27.476l14.992-25.985c-6.874-3.965-12.615-9.689-16.599-16.554z"/><path d="m204.836 338.857 25.972 15.016c6.586-11.392 10.068-24.402 10.067-37.523v-.42l-30 .321c0 7.955-2.088 15.772-6.039 22.606z"/><path d="m203.066 250.965-14.943 26.013c6.881 3.953 12.631 9.667 16.629 16.524l25.916-15.111c-6.635-11.381-16.18-20.865-27.602-27.426z"/><path d="m127.826 251.172 15.088 25.93c6.823-3.97 14.633-6.08 22.586-6.101l-.081-30c-13.22.036-26.219 3.553-37.593 10.171z"/><path d="m165.667 361.5.026 30c13.22-.012 26.226-3.505 37.611-10.102l-15.039-25.958c-6.829 3.958-14.643 6.054-22.598 6.06z"/></g></svg>