<svg id="Capa_1" enable-background="new 0 0 512 512" height="512" viewBox="0 0 512 512" width="512" xmlns="http://www.w3.org/2000/svg"><g><path d="m467 210.491c-19.555 0-36.228 12.541-42.42 30h-26.802c-3.044-28.023-14.238-53.634-31.157-74.409l18.827-18.828c17.007 8.102 37.888 4.539 51.209-8.782 17.342-17.343 17.347-46.294 0-63.64-17.544-17.545-46.094-17.546-63.64 0-13.321 13.32-16.952 34.201-8.801 51.228l-18.863 18.863c-20.8-16.766-46.383-27.823-74.353-30.76v-26.743c17.459-6.192 30-22.865 30-42.42 0-24.813-20.187-45-45-45s-45 20.187-45 45c0 19.555 12.541 36.228 30 42.42v26.743c-27.97 2.937-53.553 13.994-74.354 30.761l-18.882-18.883c7.967-16.723 5.045-37.381-8.782-51.208-17.544-17.545-46.094-17.546-63.64 0-17.545 17.546-17.545 46.094 0 63.639 8.772 8.773 20.296 13.159 31.82 13.159 6.639 0 13.276-1.465 19.389-4.377l18.828 18.828c-16.919 20.775-28.112 46.386-31.157 74.409h-26.802c-6.192-17.459-22.865-30-42.42-30-24.813 0-45 20.187-45 45s20.187 45 45 45c19.555 0 36.228-12.541 42.42-30h26.687c2.855 28.169 13.949 53.936 30.817 74.864l-18.373 18.373c-16.723-7.967-37.382-5.045-51.21 8.782-17.545 17.546-17.545 46.094 0 63.639 17.311 17.312 46.327 17.314 63.64 0 13.827-13.827 16.749-34.484 8.782-51.208l18.318-18.318c20.902 17.022 46.696 28.252 74.918 31.215v26.743c-17.459 6.192-30 22.865-30 42.42 0 24.813 20.187 45 45 45s45-20.187 45-45c0-19.555-12.541-36.228-30-42.42v-26.743c28.223-2.963 54.017-14.193 74.918-31.215l18.299 18.299c-8.15 17.025-4.52 37.906 8.801 51.228 17.311 17.312 46.326 17.314 63.64 0 17.342-17.343 17.347-46.294 0-63.64-13.826-13.827-34.485-16.749-51.209-8.782l-18.373-18.373c16.868-20.927 27.962-46.694 30.817-74.864h26.687c6.192 17.459 22.865 30 42.42 30 24.813 0 45-20.187 45-45s-20.186-45-44.999-45zm-72.769-114.446c5.762-5.762 15.45-5.764 21.214 0 5.763 5.764 5.764 15.448 0 21.213-5.851 5.85-15.365 5.848-21.214 0-5.763-5.763-5.763-15.448 0-21.213zm-138.231-66.045c8.271 0 15 6.729 15 15s-6.729 15-15 15-15-6.729-15-15 6.729-15 15-15zm-159.445 87.259c-5.848-5.849-5.848-15.365 0-21.213 5.755-5.754 15.457-5.756 21.213 0 5.849 5.849 5.849 15.365 0 21.213-5.763 5.763-15.448 5.764-21.213 0zm-51.555 153.232c-8.271 0-15-6.729-15-15s6.729-15 15-15 15 6.729 15 15-6.729 15-15 15zm72.769 144.445c-5.764 5.763-15.449 5.764-21.214 0-5.848-5.849-5.848-15.365 0-21.213 5.755-5.754 15.457-5.756 21.213 0 5.849 5.848 5.849 15.364.001 21.213zm138.231 67.064c-8.271 0-15-6.729-15-15s6.729-15 15-15 15 6.729 15 15-6.729 15-15 15zm159.445-88.278c5.763 5.764 5.764 15.448 0 21.213-5.851 5.85-15.365 5.848-21.214 0-5.763-5.763-5.764-15.448 0-21.213 5.763-5.762 15.451-5.764 21.214 0zm-159.445-25.097c-62.102 0-112.625-50.523-112.625-112.625s50.523-112.625 112.625-112.625 112.625 50.523 112.625 112.625-50.523 112.625-112.625 112.625zm211-98.134c-8.271 0-15-6.729-15-15s6.729-15 15-15 15 6.729 15 15-6.729 15-15 15z"/><path d="m178.628 240.491h30v30h-30z"/><path d="m214.394 183.193h30v30h-30z"/><path d="m303.372 240.491h30v30h-30z"/><path d="m267.606 297.789h30v30h-30z"/></g></svg>