<svg id="Capa_1" enable-background="new 0 0 512 512" height="512" viewBox="0 0 512 512" width="512" xmlns="http://www.w3.org/2000/svg"><g><path d="m335.45 352.039c-5.971 5.971-13.909 9.259-22.354 9.259h-108.607v30h108.607c16.458 0 31.93-6.409 43.566-18.046l31.539-31.538-21.212-21.214z"/><path d="m512 119.847h-39.108c-10.126-16.062-22.117-31.111-35.873-44.866-48.352-48.352-112.639-74.981-181.019-74.981s-132.667 26.629-181.02 74.98c-13.755 13.755-25.746 28.804-35.873 44.866h-39.107v30h22.916c-15.002 32.899-22.916 68.916-22.916 106.154 0 68.38 26.629 132.667 74.98 181.02 48.353 48.351 112.64 74.98 181.02 74.98s132.667-26.629 181.02-74.98c48.351-48.353 74.98-112.64 74.98-181.02 0-37.238-7.914-73.255-22.916-106.153h22.916zm-256-89.847c73.531 0 138.963 35.305 180.261 89.847h-360.522c41.298-54.542 106.73-89.847 180.261-89.847zm45 119.847h128.987v51.745c0 35.562-28.932 64.493-64.493 64.493h-.001c-35.562 0-64.493-28.932-64.493-64.493zm-90 51.745c0 35.562-28.932 64.493-64.494 64.493s-64.494-28.932-64.494-64.493v-51.745h128.988zm45 280.408c-124.617 0-226-101.383-226-226 0-34.791 7.909-67.767 22.013-97.236v42.828c0 52.104 42.39 94.493 94.494 94.493s94.493-42.39 94.493-94.493v-36.745c0-8.271 6.729-15 15-15s15 6.729 15 15v36.745c0 52.104 42.39 94.493 94.494 94.493s94.493-42.39 94.493-94.493v-42.828c14.104 29.468 22.013 62.445 22.013 97.236 0 124.617-101.383 226-226 226z"/></g></svg>