<svg id="Capa_1" enable-background="new 0 0 511.001 511.001" height="512" viewBox="0 0 511.001 511.001" width="512" xmlns="http://www.w3.org/2000/svg"><g><path d="m477.631 376.4c-13.844-19.847-43.713-24.366-62.808-9.503 0-.001-70.958 52.874-70.958 52.874h-23.034c6.228-16.448 2.038-36.121-10.607-48.466 0 0-87.304-87.304-87.304-87.304h-198.081v143h47.959l122.46 84h175.547l97.385-72.414c19.588-14.566 23.823-42.463 9.441-62.187zm-27.343 38.113-89.415 66.488h-156.314l-122.46-84h-27.26v-83h155.656l78.517 78.517c3.01 3.01 4.667 7.01 4.667 11.264.118 14.027-17.326 21.249-27.184 11.263 0 0-65.61-65.61-65.61-65.61l-21.213 21.213 65.61 65.61c8.886 8.887 20.538 13.36 32.216 13.423v.09h76.314l78.937-58.818c3.167-2.361 7.064-3.339 10.973-2.745 12.78 1.813 16.959 18.669 6.566 26.305z"/><path d="m228.406 230.944 39.806-39.806 39.806 39.806 68.044-68.044-40.266-40.266c38.293-49.77 2.372-122.784-60.56-122.633-22.109-.137-42.611 9.602-57.437 25.85-24.789 24.022-30.91 64.137-14.873 94.485l-42.565 42.565zm0-42.425-25.618-25.618 18.593-18.593 25.619 25.617zm46.832-158.518c36.346-.147 58.597 40.625 39.039 71.113l-63.891-63.891c7.356-4.702 15.91-7.222 24.852-7.222zm-45.262 29.238 103.661 103.661-25.618 25.618-69.006-69.006c-15.829-15.328-19.561-41.06-9.037-60.273z"/></g></svg>