<svg id="Capa_1" enable-background="new 0 0 512 512" height="512" viewBox="0 0 512 512" width="512" xmlns="http://www.w3.org/2000/svg"><g><path d="m376 0h-240c-24.813 0-45 20.187-45 45 0 19.556 12.539 36.239 30 42.43v167.57c0 57.679 36.459 108.462 90 127.321v84.679c0 24.813 20.187 45 45 45s45-20.187 45-45v-84.679c53.541-18.859 90-69.643 90-127.321v-167.57c17.461-6.191 30-22.874 30-42.43 0-24.813-20.187-45-45-45zm-93.739 356.693-11.261 2.899v107.408c0 8.271-6.729 15-15 15s-15-6.729-15-15v-107.408l-11.261-2.898c-41.448-10.668-71.699-45.23-77.649-86.693h207.82c-5.95 41.463-36.202 76.024-77.649 86.692zm93.739-296.693h-15v180h-210v-180h-15c-8.271 0-15-6.729-15-15s6.729-15 15-15h240c8.271 0 15 6.729 15 15s-6.729 15-15 15z"/><path d="m256 78.607c-10.852 15.724-18.387 26.125-27.975 42.653-15.26 26.306-17.025 37.562-17.025 43.74 0 24.813 20.187 45 45 45s45-20.187 45-45c0-6.178-1.765-17.434-17.025-43.74-9.588-16.528-17.124-26.931-27.975-42.653zm0 101.393c-8.271 0-15-6.729-15-14.982.122-4.585 6.361-17.656 15-32.211 8.635 14.55 14.872 27.615 15 32.206-.007 8.264-6.733 14.987-15 14.987z"/></g></svg>