<svg id="Capa_1" enable-background="new 0 0 512 512" height="512" viewBox="0 0 512 512" width="512" xmlns="http://www.w3.org/2000/svg"><g><path d="m478.94 133.352c11.133-10.899 18.06-26.079 18.06-42.852 0-33.084-26.916-60-60-60s-60 26.916-60 60c0 10.925 2.949 21.167 8.072 30h-77.432c5.303-8.944 8.36-19.37 8.36-30.5 0-33.084-26.916-60-60-60s-60 26.916-60 60c0 11.13 3.057 21.556 8.36 30.5h-77.432c5.123-8.833 8.072-19.075 8.072-30 0-33.084-26.916-60-60-60s-60 26.916-60 60c0 16.773 6.927 31.953 18.06 42.852-19.933 13.494-33.06 36.317-33.06 62.148v286.5h150v-271.5h31v271.5h150v-271.5h31v271.5h150v-286.5c0-25.831-13.127-48.654-33.06-62.148zm-222.94-73.352c16.542 0 30 13.458 30 30s-13.458 30-30 30-30-13.458-30-30 13.458-30 30-30zm226 203.692h-90v-68.192c0-19.555 12.541-36.228 30-42.42v80.612h30v-80.612c17.459 6.192 30 22.865 30 42.42zm-75-173.192c0-16.542 13.458-30 30-30s30 13.458 30 30-13.458 30-30 30-30-13.458-30-30zm-362 0c0-16.542 13.458-30 30-30s30 13.458 30 30-13.458 30-30 30-30-13.458-30-30zm15 62.58v80.612h30v-80.612c17.459 6.192 30 22.865 30 42.42v68.192h-90v-68.192c0-19.555 12.541-36.228 30-42.42zm30 298.92v-128.308h-30v128.308h-30v-158.308h90v158.308zm181 0v-128.308h-30v128.308h-30v-158.308h90v158.308zm30-271.5v83.192h-90v-83.192h-62.509c-2.258-11.078-6.967-21.275-13.532-30h106.041v83.192h30v-83.192h106.041c-6.565 8.725-11.274 18.922-13.532 30zm151 271.5v-128.308h-30v128.308h-30v-158.308h90v158.308z"/></g></svg>