<?xml version="1.0" encoding="iso-8859-1"?>
<!-- Generator: Adobe Illustrator 19.0.0, SVG Export Plug-In . SVG Version: 6.00 Build 0)  -->
<svg xmlns="http://www.w3.org/2000/svg" xmlns:xlink="http://www.w3.org/1999/xlink" version="1.1" id="Layer_1" x="0px" y="0px" viewBox="0 0 512 512" style="enable-background:new 0 0 512 512;" xml:space="preserve">
<g>
	<g>
		<path d="M401.104,308.848c3.9-19.261,3.049-39.106-2.914-57.681c-8.846-27.559-27.843-47.829-52.117-55.614    c-9.527-3.055-18.682-4.571-27.326-5.007l-11.374-56.055h52.63L256,0L151.998,134.492h52.63l-11.374,56.054    c-8.645,0.436-17.8,1.952-27.327,5.007c-24.281,7.787-43.28,28.064-52.123,55.634c-5.957,18.57-6.806,38.407-2.908,57.661H0    v30.119h121.191c3.415,6.949,7.493,13.669,12.24,20.048c9.289,12.484,15.566,26.232,18.657,40.862    c1.42,6.721,2.656,14.13,3.673,22.023c7.498,58.177,22.632,87.606,46.266,89.97c14.715,1.469,26.474-9.528,34.963-32.689    c5.356-14.613,9.569-34.103,11.862-54.881c1.394-12.635,4.599-19.665,7.148-23.408c2.543,3.732,5.752,10.762,7.148,23.408    c2.292,20.777,6.505,40.268,11.861,54.881C282.998,500.976,293.885,512,307.4,512c0.847,0,1.706-0.043,2.574-0.13    c23.633-2.363,38.767-31.793,46.266-89.97c1.017-7.891,2.252-15.299,3.672-22.019c3.088-14.617,9.376-28.38,18.689-40.907    c4.733-6.366,8.801-13.073,12.209-20.006H512v-30.12H401.104z M256,49.236l42.637,55.137h-28.109l18.045,88.93    c-14.018,3.272-25.267,8.686-32.573,12.916c-7.306-4.231-18.555-9.644-32.573-12.917l18.045-88.93h-28.109L256,49.236z     M354.428,341.004c-11.923,16.038-19.993,33.753-23.986,52.652c-1.585,7.503-2.956,15.711-4.076,24.395    c-5.103,39.59-13.378,56.63-17.847,62.056c-4.614-7.16-11.924-27.297-15.435-59.11c-1.727-15.645-6.028-28.4-12.783-37.908    c-5.579-7.854-14.664-12.543-24.302-12.543c-9.639,0-18.724,4.689-24.302,12.542c-6.756,9.51-11.056,22.264-12.783,37.909    c-3.51,31.813-10.821,51.95-15.435,59.109c-4.469-5.426-12.744-22.465-17.846-62.056c-1.12-8.687-2.491-16.895-4.077-24.4    c-3.996-18.915-12.058-36.617-23.962-52.615c-0.509-0.684-1.005-1.375-1.494-2.068h199.798    C355.417,339.65,354.929,340.33,354.428,341.004z M370.181,308.848H141.82c-4.409-16.122-4.315-32.939,0.664-48.461    c5.836-18.195,17.733-31.372,32.64-36.152c39.3-12.603,70.314,10.82,71.554,11.775l9.322,7.347l9.322-7.348    c0.313-0.247,31.769-24.531,71.555-11.774c14.902,4.779,26.797,17.951,32.636,36.138    C374.496,275.898,374.591,292.721,370.181,308.848z"/>
	</g>
</g>
<g>
</g>
<g>
</g>
<g>
</g>
<g>
</g>
<g>
</g>
<g>
</g>
<g>
</g>
<g>
</g>
<g>
</g>
<g>
</g>
<g>
</g>
<g>
</g>
<g>
</g>
<g>
</g>
<g>
</g>
</svg>
