<svg id="Capa_1" enable-background="new 0 0 512 512" height="512" viewBox="0 0 512 512" width="512" xmlns="http://www.w3.org/2000/svg"><path d="m497 120.5c-.002 0-.002 0-.004 0-5.088 0-10.133.289-15.121.841v-71.09h-15c-.001 0-.002 0-.004 0-12.952 0-25.546 2.327-37.31 6.773-15.135-42.459-43.98-51.581-53.061-57.024-11.187 6.139-38.329 16.043-53.062 57.024-11.765-4.446-24.36-6.773-37.314-6.773h-15v70.249h-15.125c-.002 0-.002 0-.004 0h-15.121v-70.249h-15c-.001 0-.002 0-.004 0-12.952 0-25.546 2.327-37.31 6.773-15.134-42.459-43.979-51.581-53.06-57.024-11.187 6.139-38.329 16.043-53.061 57.024-11.765-4.446-24.36-6.773-37.314-6.773h-15v71.089c-4.989-.551-10.036-.84-15.125-.84h-15v54.386c0 27.046 8.015 53.181 23.178 75.577 13.227 19.537 31.114 35.079 52.134 45.397v35.515h-18.203v30h18.204v90.5h-18.204v30h18.204v30.125h120.375v-90.375h18.14v-30h-18.14v-95.765c21.021-10.318 38.908-25.86 52.135-45.397 3.015-4.453 5.735-9.06 8.178-13.787 2.443 4.727 5.163 9.333 8.178 13.787 13.227 19.537 31.114 35.079 52.135 45.397v35.515h-18.204v30h18.204v90.5h-18.204v30h18.204v30.125h120.375v-90.375h18.14v-30h-18.14v-95.765c21.021-10.318 38.908-25.86 52.135-45.397 15.161-22.396 23.176-48.53 23.176-75.577v-54.386zm-324.423-18.174c10.634-10.633 23.882-17.698 38.298-20.592v46.437c-18.555 6.537-35.594 17.133-49.996 31.333-3.71 3.658-7.173 7.501-10.402 11.496v-15.377h.023c0-20.133 7.84-39.061 22.077-53.297zm-37.081-68.194c8.618 5.957 22.896 18.588 25.759 38.238-9.19 7.059-19.14 17.886-25.755 28.985-6.251-10.373-15.192-20.744-25.755-28.985 2.865-19.664 17.159-32.298 25.751-38.238zm-75.371 47.602c14.415 2.895 27.665 9.959 38.298 20.592 14.236 14.236 22.077 33.164 22.077 53.297h-.023v15.321c-3.216-3.975-6.663-7.799-10.355-11.44-14.402-14.201-31.441-24.797-49.996-31.334v-46.436zm180.875 93.152c0 21.028-6.231 41.346-18.02 58.758-13.045 20.065-34.56 34.513-57.292 42.325v206.031h-60.375v-206.031c-22.507-7.657-43.877-21.968-57.292-42.325-11.79-17.412-18.021-37.73-18.021-58.758v-23.333c22.229 3.149 42.801 13.284 59.058 29.313 19.841 19.563 31 45.667 31.42 73.502l.27 14.773h29.55l.224-14.773c.42-27.836 11.579-53.939 31.42-73.502 16.258-16.03 36.827-26.165 59.058-29.313zm172.577-72.56c10.634-10.633 23.882-17.698 38.298-20.592v46.437c-18.555 6.537-35.594 17.133-49.996 31.333-3.71 3.658-7.173 7.501-10.402 11.496v-15.377h.023c0-20.133 7.84-39.061 22.077-53.297zm-37.081-68.194c8.618 5.957 22.896 18.588 25.759 38.238-9.19 7.059-19.14 17.886-25.755 28.985-6.251-10.373-15.192-20.744-25.755-28.985 2.865-19.664 17.159-32.298 25.751-38.238zm-75.371 47.602c14.415 2.895 27.665 9.959 38.298 20.592 14.236 14.236 22.077 33.164 22.077 53.297h-.023v15.321c-3.216-3.975-6.663-7.799-10.355-11.44-14.402-14.201-31.441-24.797-49.996-31.334v-46.436zm180.875 93.152c0 21.028-6.231 41.346-18.02 58.758-13.045 20.065-34.56 34.513-57.292 42.325v206.031h-60.375v-206.031c-22.507-7.657-43.877-21.968-57.292-42.325-11.789-17.413-18.02-37.73-18.02-58.758v-23.333c22.229 3.149 42.801 13.284 59.058 29.313 19.841 19.563 31 45.667 31.42 73.502l.27 14.773h29.55l.224-14.773c.42-27.836 11.579-53.939 31.42-73.502 16.258-16.03 36.827-26.165 59.058-29.313v23.333z"/></svg>