<svg id="Capa_1" enable-background="new 0 0 512 512" height="512" viewBox="0 0 512 512" width="512" xmlns="http://www.w3.org/2000/svg"><path d="m158.304 321.222c-4.846 7.192-7.679 15.847-7.679 25.153s2.833 17.961 7.679 25.153c-9.952 5.721-18.586 13.69-25.091 23.391-11.509-2.053-21.815-3.294-27.838-3.294-24.882 0-45.125 20.243-45.125 45.125s20.243 45.125 45.125 45.125c6.022 0 16.329-1.242 27.838-3.294 13.825 20.616 37.261 33.419 62.537 33.419h120.5c25.278 0 48.715-12.806 62.541-33.425 11.461 2.035 21.919 3.3 27.834 3.3 24.882 0 45.125-20.243 45.125-45.125s-20.243-45.125-45.125-45.125c-5.916 0-16.373 1.265-27.834 3.3-6.506-9.703-15.142-17.674-25.095-23.396 4.847-7.192 7.679-15.848 7.679-25.153s-2.833-17.962-7.679-25.153c9.953-5.722 18.589-13.693 25.095-23.396 11.461 2.035 21.919 3.3 27.834 3.3 24.882 0 45.125-20.243 45.125-45.125s-20.243-45.125-45.125-45.125c-5.916 0-16.373 1.265-27.834 3.3-6.506-9.703-15.142-17.674-25.095-23.396 4.847-7.192 7.679-15.848 7.679-25.153s-2.833-17.962-7.679-25.153c9.953-5.722 18.589-13.693 25.095-23.396 11.461 2.035 21.919 3.3 27.834 3.3 24.882 0 45.125-20.243 45.125-45.125s-20.243-45.125-45.125-45.125c-5.916 0-16.373 1.265-27.834 3.3-13.826-20.623-37.263-33.429-62.541-33.429h-120.5c-25.276 0-48.712 12.803-62.537 33.419-11.509-2.053-21.815-3.294-27.838-3.294-24.882 0-45.125 20.243-45.125 45.125s20.243 45.125 45.125 45.125c6.022 0 16.329-1.242 27.838-3.294 6.505 9.701 15.14 17.67 25.091 23.391-4.846 7.192-7.679 15.847-7.679 25.153s2.833 17.961 7.679 25.153c-9.952 5.721-18.586 13.69-25.091 23.391-11.509-2.053-21.815-3.294-27.838-3.294-24.882 0-45.125 20.243-45.125 45.125s20.243 45.125 45.125 45.125c6.022 0 16.329-1.242 27.838-3.294 6.505 9.7 15.14 17.67 25.091 23.391zm157.946-200.722h-120.5c-22.343-.234-37.961-14.669-46.146-37.345-12.45 2.926-39.229 7.649-44.229 7.22-8.34 0-15.125-6.785-15.125-15.125s6.785-15.125 15.125-15.125c5.429-.369 32.237 4.381 44.229 7.22 6.978-20.07 23.271-37.864 46.146-37.345h120.5c22.342.234 37.961 14.669 46.146 37.344 12.45-2.925 39.229-7.648 44.229-7.219 8.34 0 15.125 6.785 15.125 15.125s-6.785 15.125-15.125 15.125c-5.429.369-32.237-4.381-44.229-7.219-6.978 20.07-23.272 37.863-46.146 37.344zm0 60.25h-120.5c-8.34 0-15.125-6.785-15.125-15.125s6.785-15.125 15.125-15.125h120.5c8.34 0 15.125 6.785 15.125 15.125s-6.785 15.125-15.125 15.125zm-120.5 210.75h120.5c22.342.234 37.961 14.669 46.146 37.344 12.45-2.925 39.229-7.648 44.229-7.219 8.34 0 15.125 6.785 15.125 15.125s-6.785 15.125-15.125 15.125c-5.429.369-32.237-4.381-44.229-7.219-6.978 20.07-23.272 37.863-46.146 37.344h-120.5c-22.343-.234-37.961-14.669-46.146-37.345-12.45 2.926-39.229 7.649-44.229 7.22-8.34 0-15.125-6.785-15.125-15.125s6.785-15.125 15.125-15.125c5.429-.369 32.237 4.381 44.229 7.22 6.978-20.071 23.271-37.864 46.146-37.345zm0-60.25h120.5c8.34 0 15.125 6.785 15.125 15.125s-6.785 15.125-15.125 15.125h-120.5c-8.34 0-15.125-6.785-15.125-15.125s6.785-15.125 15.125-15.125zm-46.146-67.345c-12.45 2.926-39.229 7.649-44.229 7.22-8.34 0-15.125-6.785-15.125-15.125s6.785-15.125 15.125-15.125c5.429-.369 32.237 4.381 44.229 7.22 6.978-20.07 23.271-37.864 46.146-37.345h120.5c22.342.234 37.961 14.669 46.146 37.344 12.45-2.925 39.229-7.648 44.229-7.219 8.34 0 15.125 6.785 15.125 15.125s-6.785 15.125-15.125 15.125c-5.429.369-32.237-4.381-44.229-7.219-6.978 20.07-23.272 37.863-46.146 37.344h-120.5c-22.875.519-39.168-17.274-46.146-37.345z"/></svg>