<svg id="Capa_1" enable-background="new 0 0 512 512" height="512" viewBox="0 0 512 512" width="512" xmlns="http://www.w3.org/2000/svg"><g><path d="m188.5 60h30v30h-30z"/><path d="m308.5 60h30v30h-30z"/><path d="m428.5 60h30v30h-30z"/><path d="m368.5 60h30v30h-30z"/><path d="m278.5 121.899v-121.899h-150v121.899c-25.849 6.678-45 30.195-45 58.101h-30v332h300v-332h-30c0-27.906-19.151-51.424-45-58.101zm-30-91.899v90h-90v-90zm-105 120h120c16.542 0 30 13.458 30 30h-180c0-16.542 13.458-30 30-30zm180 60v30.261c-60.913 2.083-94.019 16.777-126.092 31.032-30.522 13.565-59.51 26.43-113.908 28.43v-89.723zm0 60.277v151.723h-240v-92.261c60.913-2.083 94.019-16.777 126.092-31.032 30.522-13.565 59.51-26.43 113.908-28.43zm-240 211.723v-30h240v30z"/></g></svg>