<svg id="Layer_1" enable-background="new 0 0 510 510" height="512" viewBox="0 0 510 510" width="512" xmlns="http://www.w3.org/2000/svg"><g><path d="m0 187.5v34c0 104.109 77.635 190.415 178.05 204.097-5.622 18.444-22.791 31.903-43.05 31.903h-15v30h270v-30h-15c-20.26 0-37.429-13.459-43.051-31.903 100.415-13.682 178.051-99.988 178.051-204.097v-34zm30 30h450c-.149 2.426 1.127 23.822-6.336 50.829l-47.672-16.726-57.001 20-57-20-56.997 20-56.999-20-57 20-56.998-20-47.662 16.724c-7.329-26.524-6.223-49-6.335-50.827zm164.959 240c6.565-8.726 11.274-18.922 13.532-30h93.019c2.258 11.078 6.967 21.274 13.531 30zm109.041-60h-98c-70.254 0-131.016-41.382-159.217-101.046l37.215-13.058 56.998 20 57-20 56.999 20 56.997-20 57 20 57.001-20 37.224 13.06c-28.202 59.663-88.964 101.044-159.217 101.044z"/><path d="m240 337.5h30v30h-30z"/><path d="m180 337.5h30v30h-30z"/><path d="m300 337.5h30v30h-30z"/><path d="m87.5 157.5h30c0-5.548 1.818-7.593 6.211-12.536 18.398-18.143 18.347-46.847 0-64.933-4.393-4.942-6.211-6.988-6.211-12.536 0-5.546 1.818-7.591 6.21-12.532 5.491-6.177 13.79-15.512 13.79-32.464h-30c0 5.546-1.818 7.591-6.21 12.532-18.401 18.141-18.347 46.846-.001 64.93 4.393 4.942 6.211 6.988 6.211 12.536s-1.818 7.593-6.211 12.536c-5.491 6.178-13.789 15.514-13.789 32.467z"/><path d="m182.5 157.5h30c0-5.548 1.818-7.593 6.211-12.536 18.398-18.143 18.347-46.847 0-64.933-4.393-4.942-6.211-6.988-6.211-12.536 0-5.546 1.818-7.591 6.21-12.532 5.491-6.177 13.79-15.512 13.79-32.464h-30c0 5.546-1.818 7.591-6.21 12.532-18.401 18.141-18.347 46.846-.001 64.93 4.393 4.942 6.211 6.988 6.211 12.536s-1.818 7.593-6.211 12.536c-5.491 6.178-13.789 15.514-13.789 32.467z"/><path d="m277.5 157.5h30c0-5.548 1.818-7.593 6.211-12.536 18.399-18.143 18.347-46.848 0-64.933-4.393-4.942-6.211-6.988-6.211-12.536 0-5.546 1.818-7.591 6.211-12.532 5.491-6.176 13.789-15.511 13.789-32.463h-30c0 5.546-1.818 7.591-6.211 12.532-18.4 18.141-18.346 46.847 0 64.93 4.393 4.942 6.211 6.988 6.211 12.536s-1.818 7.593-6.211 12.536c-5.491 6.177-13.789 15.513-13.789 32.466z"/><path d="m372.5 157.5h30c0-5.548 1.818-7.593 6.211-12.536 18.399-18.143 18.347-46.848 0-64.933-4.393-4.942-6.211-6.988-6.211-12.536 0-5.546 1.818-7.591 6.211-12.532 5.491-6.176 13.789-15.511 13.789-32.463h-30c0 5.546-1.818 7.591-6.211 12.532-18.4 18.141-18.346 46.847 0 64.93 4.393 4.942 6.211 6.988 6.211 12.536s-1.818 7.593-6.211 12.536c-5.491 6.177-13.789 15.513-13.789 32.466z"/></g></svg>