<svg id="Capa_1" enable-background="new 0 0 512 512" height="512" viewBox="0 0 512 512" width="512" xmlns="http://www.w3.org/2000/svg"><g><path d="m434 30.393v-30h-30v30h-30v-30h-30v30h-176v-30h-30v30h-30v-30h-30v30h-78v407h181.796l74.204 74.214c16.774-16.775 28.86-28.86 74.213-74.213h181.787c0-77.165 0-334.499 0-407h-78zm-404 30h452v47h-452zm71.977 216.021c.423-7.153 1.86-14.211 4.2-21.021h299.645c3.392 9.846 4.881 20.3 4.151 30.667h-307.945c-.22-3.203-.242-6.421-.051-9.646zm22.115-51.021c34.577-38.036 88.027-37.476 124.506 0zm139.309 0c36.499-37.48 89.939-38.033 124.506 0zm138.332 90.667c-4.117 8.378-9.713 16.472-16.741 24.131-.054.052-.106.104-.159.158l-6.378 6.378h-244.908l-6.556-6.556c-7.017-7.654-12.606-15.741-16.72-24.111zm-53.279 60.667-30.667 30.667h-123.574l-30.667-30.667zm-92.454 92.453-31.787-31.787h63.574zm226-61.787h-121.787l39.143-39.143.415.172c110.241-106.148-28.382-263.118-143.77-176.348-112.078-85.501-248.282 64.861-150.872 168.644l46.67 46.676h-121.799v-270h452z"/></g></svg>