<svg id="Layer_1" enable-background="new 0 0 510 510" height="512" viewBox="0 0 510 510" width="512" xmlns="http://www.w3.org/2000/svg"><g><path d="m270 240.799h-30v-30h60v-30h-90v90h60c19.877.756 19.862 29.251 0 30h-60v30h60c59.632-2.269 59.587-87.753 0-90z"/><path d="m255 .799c-140.93 0-255 114.051-255 255 12.345 337.906 497.696 337.837 510-.003 0-140.927-114.051-254.997-255-254.997zm0 405c-82.71 0-150-67.29-150-150 7.541-198.722 292.489-198.668 300 .002 0 82.708-67.29 149.998-150 149.998zm116.165-287.378c-27.792-23.537-62.786-38.811-101.165-41.993v-45.118c50.77 3.359 96.987 23.625 133.06 55.216zm-131.165-41.993c-38.379 3.182-73.373 18.455-101.165 41.992l-31.895-31.894c36.073-31.591 82.29-51.856 133.06-55.216zm-122.378 63.206c-23.537 27.792-38.81 62.786-41.992 101.165h-45.118c3.359-50.77 23.625-96.987 55.216-133.059zm-41.992 131.165c3.182 38.379 18.455 73.373 41.992 101.165l-31.895 31.893c-31.592-36.072-51.856-82.289-55.216-133.059h45.119zm63.205 122.378c27.791 23.537 62.786 38.811 101.165 41.992v45.118c-50.77-3.359-96.987-23.625-133.06-55.217zm131.165 41.992c38.379-3.182 73.374-18.455 101.165-41.992l31.895 31.894c-36.072 31.592-82.29 51.857-133.06 55.217zm122.378-63.205c23.537-27.792 38.811-62.786 41.992-101.165h45.118c-3.359 50.77-23.624 96.986-55.216 133.059zm41.992-131.165c-3.182-38.379-18.455-73.373-41.992-101.165l31.895-31.895c31.591 36.072 51.856 82.29 55.216 133.059h-45.119z"/></g></svg>