<svg id="Capa_1" enable-background="new 0 0 512 512" height="512" viewBox="0 0 512 512" width="512" xmlns="http://www.w3.org/2000/svg"><g><path d="m420 77.36v-77.36c-102.54 0-225.469 0-328 0v77.36c0 30.479 21.208 56.098 49.637 62.879v53.3l-44.637-8.679c-1.608 54.047 6.937 107.646 28.83 157.21-1.03 3.9-1.57 7.98-1.57 12.15v36.9c-.539 24.339 20.123 46.006 44.24 47.12l32.75 73.76h109.5l32.75-73.76c24.121-1.121 44.776-22.776 44.24-47.12v-36.9c0-4.17-.54-8.25-1.57-12.15 21.892-49.56 30.439-103.168 28.83-157.21l-44.637 8.679v-53.3c28.429-6.781 49.637-32.4 49.637-62.879zm-99.27-47.36h69.27v47.36c0 19.1-15.54 34.64-34.64 34.64s-34.63-15.54-34.63-34.64zm19.63 110.24c.001 0 .002.001.003.001v59.129c.001 0-69.363 13.491-69.363 13.491v-72.62c13.8-3.29 25.89-11.01 34.68-21.58 8.8 10.569 20.89 18.289 34.68 21.579zm-64.86 223.43v18c-1.072 25.864-37.927 25.866-39 0v-18c1.064-25.865 37.935-25.867 39 0zm-54.14-333.67h69.28v47.36c0 19.1-15.54 34.64-34.64 34.64s-34.64-15.54-34.64-34.64zm19.64 110.24v72.62s-69.362-13.49-69.363-13.491v-59.129c.001 0 .002-.001.003-.001 13.79-3.29 25.88-11.01 34.68-21.58 8.79 10.571 20.88 18.291 34.68 21.581zm-119-62.88v-47.36h69.27v47.36c-1.899 45.961-67.375 45.935-69.27 0zm119 166.06v73.08c-6.8 2.16-12.97 5.76-18.14 10.43l-30.61-15.05c-14.61-7.18-31.55-6.39-45.4 2.08-11.06-29.81-17.54-60.83-19.34-92.61zm-78.65 162.28c-5.14-3.21-8.09-8.52-8.09-14.58v-36.9c0-4.51 1.63-8.59 4.57-11.71 5.125-5.483 13.443-7.156 20.18-3.71 0 0 28.67 14.1 28.67 14.1-.77 3.47-1.18 7.07-1.18 10.77.172 7.219-.668 21.904 1.18 28.76l-28.67 14.1c-5.44 2.67-11.51 2.37-16.66-.83zm78.65 76.3h-20.25l-22.8-51.35 24.91-12.25c5.17 4.68 11.34 8.28 18.14 10.44zm50.25 0h-20.25v-53.16c6.8-2.16 12.97-5.76 18.14-10.44l24.91 12.25zm41.74-75.47c-4.477-2.211-23.817-11.714-28.67-14.1 1.841-6.78 1.012-21.61 1.18-28.76 0-3.7-.41-7.3-1.18-10.77l28.67-14.1c6.736-3.445 15.056-1.774 20.18 3.71 2.94 3.12 4.57 7.2 4.57 11.71v36.9c.257 12.506-13.634 21.17-24.75 15.41zm32.16-92.57c-13.85-8.47-30.8-9.26-45.4-2.08l-30.61 15.05c-5.17-4.67-11.34-8.27-18.14-10.43v-73.08l113.49-22.07c-1.8 31.78-8.28 62.8-19.34 92.61z"/></g></svg>