<?xml version="1.0" encoding="iso-8859-1"?>
<!-- Generator: Adobe Illustrator 19.0.0, SVG Export Plug-In . SVG Version: 6.00 Build 0)  -->
<svg xmlns="http://www.w3.org/2000/svg" xmlns:xlink="http://www.w3.org/1999/xlink" version="1.1" id="Layer_1" x="0px" y="0px" viewBox="0 0 512.001 512.001" style="enable-background:new 0 0 512.001 512.001;" xml:space="preserve">
<g>
	<g>
		<path d="M447.92,63.98h-63.368V5.761H127.449V63.98H64.079L0,261.394h68.064V506.24h123.441h128.99h123.44V261.394h68.065    L447.92,63.98z M158.091,36.402h195.818V63.98H158.091V36.402z M348.915,230.752H271.32V94.621h63.986L348.915,230.752z     M240.679,94.621v136.131h-77.59l13.609-136.131H240.679z M42.161,230.752L86.349,94.621h41.101h18.454l-13.609,136.131H68.064    H42.161z M289.853,475.599h-67.706v-148.18h67.706V475.599z M413.293,475.599h-92.799V296.777h-128.99v178.821H98.706V261.394    h314.588V475.599z M379.71,230.752L366.102,94.621h18.45h41.1l44.187,136.131h-25.902H379.71z"/>
	</g>
</g>
<g>
</g>
<g>
</g>
<g>
</g>
<g>
</g>
<g>
</g>
<g>
</g>
<g>
</g>
<g>
</g>
<g>
</g>
<g>
</g>
<g>
</g>
<g>
</g>
<g>
</g>
<g>
</g>
<g>
</g>
</svg>
