<svg id="Capa_1" enable-background="new 0 0 512 512" height="512" viewBox="0 0 512 512" width="512" xmlns="http://www.w3.org/2000/svg"><g><path d="m226 62h60v30h-60z"/><path d="m361 28.042v-28.042h-210v28.042c-72.668 38.469-120 114.308-120 198.958 0 91.445 54.752 170.062 132.667 205.18l-9.964 49.82h-32.703v30h270v-30h-32.703l-9.964-49.82c77.912-35.117 132.667-113.731 132.667-205.18 0-84.555-47.246-160.443-120-198.958zm-180 1.958h150v17c0 41.355-33.645 75-75 75s-75-33.645-75-75zm150 197c0 16.32-5.391 32.1-15.081 45h-119.838c-9.69-12.9-15.081-28.68-15.081-45 0-41.355 33.645-75 75-75s75 33.645 75 75zm-30 75v30h-90v-30zm-240-75c0-66.985 35.106-129.451 91.087-164.924 4.59 31.781 23.463 59.002 49.885 74.924-30.517 18.388-50.972 51.849-50.972 90 0 27.465 10.861 53.844 30 73.412v45.104l-11.266 56.331c-65.7-32.62-108.734-100.772-108.734-174.847zm123.297 255 24-120h95.406l24 120zm157.97-80.153-11.267-56.334v-45.102c19.14-19.568 30-45.947 30-73.411 0-38.151-20.455-71.612-50.971-90 26.422-15.921 45.294-43.142 49.884-74.923 55.98 35.472 91.087 97.938 91.087 164.923 0 74.075-43.034 142.228-108.733 174.847z"/><path d="m132.266 173.02c4.185-9.55 9.499-18.634 15.794-27.001l9.019-11.986-23.972-18.037-9.019 11.986c-7.691 10.221-14.184 21.323-19.3 32.999l-6.021 13.739 27.478 12.041z"/><path d="m379.733 173.02 6.02 13.739 27.479-12.04-6.02-13.739c-5.114-11.672-11.607-22.774-19.3-32.999l-9.019-11.986-23.973 18.036 9.019 11.986c6.297 8.371 11.612 17.456 15.794 27.003z"/><path d="m148.06 307.981c-6.295-8.367-11.609-17.452-15.794-27.001l-6.02-13.739-27.478 12.041 6.021 13.739c5.116 11.675 11.609 22.777 19.3 32.999l9.019 11.986 23.972-18.037z"/><path d="m379.733 280.98c-4.183 9.547-9.497 18.631-15.794 27.001l-9.019 11.986 23.973 18.036 9.019-11.986c7.692-10.224 14.186-21.326 19.3-32.999l6.02-13.739-27.479-12.04z"/></g></svg>