<svg id="Capa_1" enable-background="new 0 0 512 512" height="512" viewBox="0 0 512 512" width="512" xmlns="http://www.w3.org/2000/svg"><g><path d="m451 270.202v-61.782c17.459-6.192 30-22.865 30-42.42v-30c0-24.813-20.187-45-45-45s-45 20.187-45 45v30c0 19.555 12.541 36.228 30 42.42v60.253c-35.337-2.343-64.168-6.293-90-11.108v-49.145c17.459-6.192 30-22.865 30-42.42v-30c0-24.813-20.187-45-45-45s-45 20.187-45 45v30c0 19.555 12.541 36.228 30 42.42v42.953c-14.102-3.167-72.982-17.764-90-21.449v-51.504c17.459-6.192 30-22.865 30-42.42v-30c0-24.813-20.187-45-45-45s-45 20.187-45 45v30c0 19.555 12.541 36.228 30 42.42v45.569c-25.799-4.591-54.904-8.402-90-10.683v-64.886c17.459-6.192 30-22.865 30-42.42v-30c0-24.813-20.187-45-45-45s-45 20.187-45 45v30c0 19.555 12.541 36.228 30 42.42v63.381c-14.357-.52-29.638-.801-46-.801h-15v270h512v-210h-15c-16.444 0-31.718-.279-46-.798zm-30-134.202c0-8.271 6.729-15 15-15s15 6.729 15 15v30c0 8.271-6.729 15-15 15s-15-6.729-15-15zm-120 0c0-8.271 6.729-15 15-15s15 6.729 15 15v30c0 8.271-6.729 15-15 15s-15-6.729-15-15zm-120-30c0-8.271 6.729-15 15-15s15 6.729 15 15v30c0 8.271-6.729 15-15 15s-15-6.729-15-15zm-120-30c0-8.271 6.729-15 15-15s15 6.729 15 15v30c0 8.271-6.729 15-15 15s-15-6.729-15-15zm421 375h-452v-209.92c10.846.117 21.156.362 31 .721v59.199h30v-57.674c35.337 2.343 64.167 6.295 90 11.11v76.564h30v-70.374c14.103 3.167 72.982 17.764 90 21.449v78.925h30v-72.99c25.798 4.591 54.904 8.402 90 10.683v62.307h30v-60.799c9.878.357 20.193.602 31 .719z"/></g></svg>