<svg id="Capa_1" enable-background="new 0 0 512 512" height="512" viewBox="0 0 512 512" width="512" xmlns="http://www.w3.org/2000/svg"><g><path d="m512 317c0-32.514-14.701-62.665-40.334-82.723-21.707-16.987-34.666-44.155-34.666-72.676v-131.601h-90v91c0 50.178-40.822 91-91 91s-91-40.822-91-91v-91h-90v131.601c0 28.521-12.959 55.689-34.667 72.676-25.632 20.058-40.333 50.21-40.333 82.723 0 35.604 17.818 67.121 45 86.117v78.883h422v-78.882c27.183-18.997 45-50.513 45-86.118zm-482 0c0-23.224 10.505-44.764 28.822-59.097 28.915-22.628 46.178-58.629 46.178-96.302v-101.601h30v61c0 66.72 54.28 121 121 121s121-54.28 121-121v-61h30v101.601c0 37.673 17.263 73.674 46.178 96.302 18.317 14.333 28.822 35.873 28.822 59.097 0 41.355-33.645 75-75 75h-302c-41.355 0-75-33.645-75-75zm407 135h-362v-34.374c9.51 2.84 19.579 4.374 30 4.374h302c10.421 0 20.49-1.534 30-4.374z"/></g></svg>