<svg id="Capa_1" enable-background="new 0 0 512 512" height="512" viewBox="0 0 512 512" width="512" xmlns="http://www.w3.org/2000/svg"><g><path d="m407 207.106v-19.606c0-12.407 10.094-22.5 22.5-22.5s22.5 10.093 22.5 22.5v22.5h30v-22.5c0-28.949-23.552-52.5-52.5-52.5-14.679 0-27.963 6.063-37.5 15.808-9.537-9.745-22.821-15.808-37.5-15.808h-53.5v-15c0-10.735-3.783-20.599-10.08-28.342 10.778-9.622 17.58-23.608 17.58-39.158 0-28.949-23.552-52.5-52.5-52.5-28.949 0-52.5 23.551-52.5 52.5 0 15.55 6.802 29.537 17.58 39.158-6.297 7.743-10.08 17.608-10.08 28.342v15h-53.5c-14.679 0-27.963 6.063-37.5 15.808-9.537-9.745-22.821-15.808-37.5-15.808-28.949 0-52.5 23.551-52.5 52.5v22.5h30v-22.5c0-12.407 10.093-22.5 22.5-22.5s22.5 10.093 22.5 22.5v19.606l-91 227v2.894c0 21.235 11.86 40.75 33.396 54.949 19.611 12.93 45.395 20.051 72.604 20.051s52.993-7.121 72.604-20.051c21.536-14.199 33.396-33.714 33.396-54.949v-2.895l-83.826-209.105h227.653l-83.827 209.105v2.895c0 21.235 11.86 40.75 33.396 54.949 19.611 12.93 45.395 20.051 72.604 20.051s52.993-7.121 72.604-20.051c21.536-14.199 33.396-33.714 33.396-54.949v-2.895zm-151-177.106c12.406 0 22.5 10.093 22.5 22.5s-10.094 22.5-22.5 22.5c-12.407 0-22.5-10.093-22.5-22.5s10.093-22.5 22.5-22.5zm-15 90c0-8.271 6.729-15 15-15s15 6.729 15 15v15h-30zm-83.5 45h197c12.406 0 22.5 10.093 22.5 22.5v7.5h-242v-7.5c0-12.407 10.093-22.5 22.5-22.5zm-37.5 85.312 68.826 171.688h-137.652zm56.09 216.591c-14.765 9.736-34.685 15.097-56.09 15.097s-41.325-5.361-56.09-15.097c-4.555-3.003-10.999-8.072-15.309-14.903h142.798c-4.31 6.831-10.754 11.9-15.309 14.903zm284.736-44.903h-137.652l68.826-171.688zm-12.736 44.903c-14.765 9.736-34.685 15.097-56.09 15.097s-41.325-5.361-56.09-15.097c-4.555-3.003-10.998-8.072-15.309-14.903h142.798c-4.311 6.831-10.754 11.9-15.309 14.903z"/></g></svg>