<svg id="Capa_1" enable-background="new 0 0 512 512" height="512" viewBox="0 0 512 512" width="512" xmlns="http://www.w3.org/2000/svg"><g><path d="m211 255v-60c0-24.813-20.187-45-45-45h-60c-24.813 0-45 20.187-45 45v60c0 41.355 33.645 75 75 75s75-33.645 75-75zm-105-75h60c8.271 0 15 6.729 15 15v15h-90v-15c0-8.271 6.729-15 15-15zm30 120c-24.813 0-45-20.187-45-45v-15h90v15c0 24.813-20.187 45-45 45z"/><path d="m437 330h-61-60c-24.508 0-46.305 11.818-60 30.052-13.695-18.234-35.492-30.052-60-30.052h-60-61c-41.355 0-75 33.645-75 75v107h512v-107c0-41.355-33.645-75-75-75zm-55.27 30-5.73 11.459-5.73-11.459zm-140.73 122h-211v-77c0-24.813 20.187-45 45-45h16v32.58c-17.459 6.192-30 22.865-30 42.42v15h30v-15c0-8.271 6.729-15 15-15s15 6.729 15 15v15h30v-15c0-19.555-12.541-36.228-30-42.42v-32.58h60v60h30v-57.42c17.459 6.192 30 22.865 30 42.42zm241 0h-211v-77c0-24.813 20.187-45 45-45h20.73l39.27 78.541 39.27-78.541h21.73c24.813 0 45 20.187 45 45z"/><path d="m451 255v-84.271l-75-37.5-75 37.5v84.271c0 41.355 33.645 75 75 75s75-33.645 75-75zm-75-88.229 45 22.5v20.729h-90v-20.729zm0 133.229c-24.813 0-45-20.187-45-45v-15h90v15c0 24.813-20.187 45-45 45z"/><path d="m421 420h30v30h-30z"/><path d="m211 150h90v-30h30v-90h-30v-30h-90v30h-30v90h30zm0-90h30v-30h30v30h30v30h-30v30h-30v-30h-30z"/></g></svg>