<svg id="Capa_1" enable-background="new 0 0 512 512" height="512" viewBox="0 0 512 512" width="512" xmlns="http://www.w3.org/2000/svg"><g><path d="m263.5 181h-30v105c0 8.271-6.729 15-15 15s-15-6.729-15-15v-105h-30v105c0 24.813 20.187 45 45 45s45-20.187 45-45z"/><path d="m143.5 331v-150h-39.271l-20.729 41.459-20.729-41.459h-39.271v150h30v-101.459l30 60 30-60v101.459z"/><path d="m338.5 241c-8.271 0-15-6.729-15-15s6.729-15 15-15c4.007 0 7.773 1.56 10.606 4.393l10.607 10.607 21.213-21.213-10.606-10.606c-8.499-8.5-19.8-13.18-31.819-13.18-24.813 0-45 20.187-45 45s20.187 45 45 45c8.271 0 15 6.729 15 15s-6.729 15-15 15c-4.007 0-7.773-1.56-10.606-4.393l-10.608-10.608-21.213 21.213 10.606 10.606c8.499 8.5 19.8 13.18 31.819 13.18 24.813 0 45-20.187 45-45s-20.186-44.999-44.999-44.999z"/><path d="m398.5 181v30h30v120h30v-120h30v-30c-11.219 0-80.184 0-90 0z"/><path d="m83.5 422h-30v-60h-30v150h30v-60h30v60h30c0-21.777 0-130.476 0-150h-30z"/><path d="m188.5 362c-24.813 0-45 20.187-45 45v105h30v-60h30v60h30c0-21.425 0-83.666 0-105 0-24.813-20.187-45-45-45zm-15 60v-15c0-8.271 6.729-15 15-15s15 6.729 15 15v15z"/><path d="m316 465.153-26.586-106.343-29.104 7.276 36.478 145.914h38.424l36.478-145.914-29.104-7.276z"/><path d="m398.5 512h75v-30h-45v-30h30v-30h-30v-30h45v-30h-75z"/><path d="m203.5 150h120c41.355 0 75-33.645 75-75s-33.645-75-75-75h-120c-41.355 0-75 33.645-75 75s33.645 75 75 75zm165-75c0 24.813-20.187 45-45 45h-68.787l86.404-86.405c16.083 6.869 27.383 22.841 27.383 41.405zm-165-45h98.787l-53.787 53.787-30-30-21.213 21.213 45 45h-38.787c-24.813 0-45-20.187-45-45s20.187-45 45-45z"/></g></svg>