<svg id="Capa_1" enable-background="new 0 0 512 512" height="512" viewBox="0 0 512 512" width="512" xmlns="http://www.w3.org/2000/svg"><g><path d="m364.136 92.434-36.431 36.43c-21.17-61.218-63.984-86.293-112.889-122.724.362 48.247 2.886 85.498-25.278 127.967l-41.674-41.673-27.776 27.776c-55.883 54.682-44.236 150.583 22.78 190.629-.001 0 14.377 8.767 14.377 8.767l-26.17 34.872h45.843l-61.929 82.522h96.011v75h90v-75h96.011l-61.929-82.522h45.843l-26.17-34.872 14.378-8.766c67.028-40.055 78.652-135.961 22.778-190.629.001-.001-27.775-27.777-27.775-27.777zm-93.136 389.566h-30v-45h30zm65.989-75h-161.978l61.929-82.522h-45.843l64.903-86.488 64.903 86.487h-45.843zm16.527-121.776-16.852 10.275-80.664-107.489-80.664 107.489-16.852-10.275c-54.536-34.115-59.003-108.542-10.62-150.364l46.39 46.39c26.118-37.839 46.168-68.628 49.89-115.889 31.764 22.873 53.676 56.811 61.245 95.23 0 0 5.453 27.564 5.453 27.564l53.294-53.295c48.396 41.829 43.897 116.27-10.62 150.364z"/><path d="m403 33h30v30h-30z"/><path d="m0 97.378h30v30h-30z"/><path d="m85 0h30v30h-30z"/><path d="m482 148.9h30v30h-30z"/></g></svg>