<svg id="Capa_1" enable-background="new 0 0 512.001 512.001" height="512" viewBox="0 0 512.001 512.001" width="512" xmlns="http://www.w3.org/2000/svg"><g><path d="m294.566 0c-90.981 0-165 74.019-165 165v62c0 44.134 17.134 85.842 48.245 117.443 5.16 5.241 10.604 10.086 16.284 14.536l-14.382 14.382-10.607-10.607c-29.242-29.243-76.824-29.242-106.066 0l-10.606 10.606 74.247 74.246c19.367 19.367 44.265 37.327 72.001 51.939 15.47 8.148 32.708 12.456 49.85 12.456l151.035-.001v-37.163c0-37.88-18.741-71.191-47.825-91.479 61.753-23.204 107.825-84.042 107.825-156.358v-62c0-90.981-74.019-165-165.001-165zm75.001 474.837v7.163l-121.034.001c-12.29 0-24.693-3.112-35.868-8.998-57.113-30.087-74.767-59.455-115.986-97.825 16.724-7.967 37.388-5.039 51.216 8.789 14.951 12.888 36.447 45.165 86.938 61.512 23.783 7.7 49.467 9.908 74.279 6.38l-4.222-29.701c-37.49 5.327-74.395-4.884-103.381-28.166l18.405-18.405c22.626 11.714 47.747 17.971 73.779 18.108 42.244 2.767 75.874 37.875 75.874 81.142zm60-247.837c0 75.25-60.352 136.49-134.615 136.701-112.327-6.638-135.385-98.126-135.385-136.701v-62c0-74.439 60.561-135 135-135 74.44 0 135 60.561 135 135z"/><path d="m192.14 151h57.427v30h-57.427z"/><path d="m339.567 151h57.427v30h-57.427z"/><path d="m249.567 271h90v30h-90z"/><path d="m279.567 181h30v60h-30z"/></g></svg>