<svg id="Layer_1" enable-background="new 0 0 510 510" height="512" viewBox="0 0 510 510" width="512" xmlns="http://www.w3.org/2000/svg"><path d="m480 90v45c0 1.827-.048 3.644-.141 5.448l-110.308-110.308c1.805-.092 3.622-.14 5.449-.14h45v-30h-45c-74.44 0-135 60.561-135 135v105h-105c-74.439 0-135 60.56-135 135v45h30v-45c0-1.828.047-3.644.14-5.449l110.309 110.309c-1.805.092-3.622.14-5.449.14h-45v30h45c74.439 0 135-60.56 135-135v-105h105c74.439 0 135-60.561 135-135v-45zm-336.213 180 96.213 96.213v8.787c0 15.733-3.484 30.665-9.712 44.075l-139.363-139.363c13.41-6.227 28.342-9.712 44.075-9.712zm31.277 202.049-137.114-137.114c6.135-14.806 15.563-27.913 27.366-38.406l148.154 148.154c-10.493 11.804-23.599 21.232-38.406 27.366zm64.936-148.262-53.787-53.787h53.787zm30-137.574 53.787 53.787h-53.787zm96.213 53.787-96.213-96.213v-8.787c0-15.733 3.484-30.665 9.712-44.075l139.363 139.362c-13.41 6.229-28.343 9.713-44.075 9.713zm78.471-26.529-148.155-148.155c10.493-11.803 23.6-21.231 38.406-27.366l137.115 137.114c-6.135 14.807-15.563 27.913-27.366 38.407z"/></svg>