<?xml version="1.0" encoding="iso-8859-1"?>
<!-- Generator: Adobe Illustrator 19.0.0, SVG Export Plug-In . SVG Version: 6.00 Build 0)  -->
<svg version="1.1" id="Layer_1" xmlns="http://www.w3.org/2000/svg" xmlns:xlink="http://www.w3.org/1999/xlink" x="0px" y="0px"
	 viewBox="0 0 512 512" style="enable-background:new 0 0 512 512;" xml:space="preserve">
<g>
	<g>
		<path d="M256,54.857c-13.444,0-24.381,10.937-24.381,24.381s10.937,24.381,24.381,24.381s24.381-10.937,24.381-24.381
			S269.444,54.857,256,54.857z"/>
	</g>
</g>
<g>
	<g>
		<path d="M457.143,438.857v-243.81H310.857v36.571h109.714v170.667H91.429V231.619h109.714v-36.571H54.857v243.81h146.286v36.571
			h-42.667V512h195.048v-36.571h-42.667v-36.571H457.143z M274.286,475.429h-36.571v-36.571h36.571V475.429z"/>
	</g>
</g>
<g>
	<g>
		<path d="M359.619,158.476V0H152.381v158.476h85.333v133.435h-37.25l55.531,55.518l55.545-55.518h-37.254V158.476H359.619z
			 M188.952,121.905V36.571h134.095v85.333H188.952z"/>
	</g>
</g>
<g>
</g>
<g>
</g>
<g>
</g>
<g>
</g>
<g>
</g>
<g>
</g>
<g>
</g>
<g>
</g>
<g>
</g>
<g>
</g>
<g>
</g>
<g>
</g>
<g>
</g>
<g>
</g>
<g>
</g>
</svg>
