<svg id="Capa_1" enable-background="new 0 0 512 512" height="512" viewBox="0 0 512 512" width="512" xmlns="http://www.w3.org/2000/svg"><g><path d="m467.832 214.827c-9.553-.273-18.693 2.4-26.445 7.592-3.939-5.081-8.899-9.318-14.555-12.379 2.009-6.299 3.069-12.925 3.069-19.695 0-30.167-20.45-55.707-48.886-62.802-11.244-23.146-34.747-38.147-61.053-38.147-4.525 0-9.013.448-13.42 1.337-11.067-8.836-24.123-14.535-38.057-16.677v-11.323c0-24.239-19.711-44.336-43.94-44.8-7.528-.152-14.828 1.609-21.365 5.057-7.672-13.702-22.327-22.99-39.117-22.99-16.77 0-31.408 9.266-39.089 22.941-6.163-3.197-13.151-5.016-20.561-5.016-24.707 0-44.808 20.101-44.808 44.808v20.457c-4.634-1.626-9.609-2.52-14.791-2.52-24.708 0-44.809 20.101-44.809 44.807l-.005 166.508c-.001 25.422 8.129 49.52 23.512 69.686 12.549 16.453 29.532 29.333 48.614 37.039v113.29h144v-31.596c19.073 19.483 45.646 31.596 75 31.596h115.874c57.897 0 105-47.103 105-105v-146.123c0-24.725-19.813-45.383-44.168-46.05zm-175.767-96.87 6.64 6.593 8.841-3.063c4.004-1.387 8.182-2.091 12.417-2.091 16.442 0 30.924 10.497 36.033 26.12l3.032 9.271 9.704.989c17.77 1.811 31.169 16.672 31.169 34.569 0 5.369-1.232 10.573-3.544 15.281-5.785 1.201-11.252 3.523-16.154 6.864-1.154-1.429-2.39-2.806-3.729-4.108-8.866-8.627-20.581-13.205-32.949-12.851-8.867.243-17.133 3.136-24.059 7.911-8.105-10.339-20.461-17.153-34.278-17.532-5.805-.164-11.438.761-16.701 2.658v-83.95c8.836 2.207 16.95 6.757 23.578 13.339zm-105.939 364.043h-84v-105.223l-10.826-3.136c-36.094-10.456-61.302-44.033-61.3-81.654l.006-166.509c0-8.165 6.644-14.808 14.809-14.808 8.054 0 14.615 6.468 14.791 14.481v105.849h.017 29.983.017l-.018-168.267c0-8.165 6.643-14.808 14.808-14.808s14.809 6.643 14.809 14.808v168.267h.033 29.967.033v-186.192c0-8.165 6.643-14.808 14.808-14.808s14.809 6.643 14.809 14.808v186.192h30v-167.678c0-4.15 1.721-8.218 4.72-11.161 2.858-2.803 6.575-4.292 10.382-4.233 8.003.153 14.514 6.795 14.514 14.806v299.256c0 8.271-6.729 15-15 15h-37.36v105.01zm295.874-75c0 41.355-33.645 75-75 75h-115.874c-41.355 0-75-33.645-75-75v-.011h7.36c24.813 0 45-20.187 45-45v-130.662c0-4.203 1.66-8.132 4.673-11.064 3.012-2.93 6.999-4.473 11.206-4.365 8.267.227 14.991 7.433 14.991 16.063v39.618h30v-29.997c0-8.63 6.725-15.835 14.99-16.062 4.202-.12 8.195 1.435 11.207 4.365 3.014 2.932 4.673 6.861 4.673 11.077l.034 39.781 30-.025-.026-30.617h.026c0-4.203 1.659-8.132 4.673-11.064 3.013-2.93 7.021-4.479 11.206-4.364 8.266.227 14.99 7.432 14.99 16.062v40.142h30v-30.63c0-4.203 1.659-8.132 4.673-11.064 3.013-2.93 6.998-4.493 11.207-4.364 8.266.227 14.99 7.432 14.99 16.062v146.119z"/><path d="m451 112.089c24.813 0 45-20.187 45-45s-20.187-45-45-45-45 20.187-45 45 20.187 45 45 45zm0-60c8.271 0 15 6.729 15 15s-6.729 15-15 15-15-6.729-15-15 6.729-15 15-15z"/><path d="m286 0h30v30h-30z"/><path d="m467 163h30v30h-30z"/></g></svg>