<svg id="Capa_1" enable-background="new 0 0 512.039 512.039" height="512" viewBox="0 0 512.039 512.039" width="512" xmlns="http://www.w3.org/2000/svg"><path d="m507.836 183.414-2.372-7.115-1.385-.462c14.869-42.799 4.274-75.728 3.757-77.277l-2.372-7.115-1.385-.462c14.869-42.799 4.274-75.727 3.757-77.276l-2.372-7.115-7.115-2.372c-1.548-.517-34.475-11.113-77.275 3.757l-.462-1.386-7.115-2.372c-1.548-.517-34.475-11.112-77.275 3.757l-.462-1.385-7.115-2.372c-2.956-.985-73.23-23.348-142.629 46.05-60.847 60.845-64.317 157.399-10.135 222.247l-175.881 175.864 63.64 63.639 175.878-175.858c64.627 54.015 161.189 50.962 222.268-10.117 69.398-69.397 47.035-139.672 46.05-142.63zm-89.501-4.838c8.162-22.056 9.454-41.66 8.64-55.958 23.791-9.244 43.624-8.342 54.069-6.752 1.591 10.446 2.492 30.278-6.751 54.069-14.297-.813-33.901.479-55.958 8.641zm62.709-147.562c1.592 10.453 2.493 30.303-6.77 54.115-13.693-.753-32.267.43-53.201 7.703l-.462-1.386-1.385-.462c7.273-20.934 8.456-39.508 7.703-53.201 23.811-9.262 43.663-8.36 54.115-6.769zm-84.853 0c1.591 10.446 2.492 30.277-6.751 54.068-14.297-.813-33.902.479-55.958 8.642 8.162-22.056 9.454-41.661 8.64-55.958 23.793-9.244 43.624-8.342 54.069-6.752zm-353.744 417.387 154.164-154.187 21.213 21.213-154.163 154.187zm398.126-143.57c-52.757 52.757-138.154 52.765-190.919 0l-42.427-42.427c-52.759-52.76-52.764-138.154 0-190.919 34.495-34.495 72.566-45.113 104.126-40.417 2.605 17.219 3.38 60.189-40.486 104.057l21.213 21.213c34.412-34.412 72.431-45.108 104.065-40.426 4.685 31.641-6.023 69.662-40.425 104.065l21.213 21.213c34.419-34.419 72.437-45.106 104.064-40.425 4.704 31.757-6.112 69.754-40.424 104.066z"/></svg>