<svg id="Capa_1" enable-background="new 0 0 510 510" height="512" viewBox="0 0 510 510" width="512" xmlns="http://www.w3.org/2000/svg"><g><path d="m510 90c0-49.626-40.374-90-90-90-22.108 0-43.286 8.142-59.656 22.646-32.662-14.827-68.401-22.646-105.344-22.646-140.932 0-255 114.05-255 255 0 58.416 19.938 114.674 56.385 159.897-28.447 39.286-.448 95.103 48.615 95.103h165c5.983 0 11.797-.725 17.379-2.055 126.969-16.099 222.621-124.7 222.621-252.945 0-36.944-7.819-72.681-22.646-105.344 14.504-16.369 22.646-37.547 22.646-59.656zm-90-60c33.084 0 60 26.916 60 60 0 10.815-2.927 21.298-8.309 30.427-20.229-32.437-48.229-60.983-82.118-82.118 9.13-5.382 19.612-8.309 30.427-8.309zm-315 450c-16.542 0-30-13.458-30-30 0-20.935 21.095-35.596 40.796-27.99l16.575 6.401 3.529-17.414c4.319-21.312 23.691-36.887 46.028-35.95l11.087.46 3.685-10.467c4.219-11.987 15.592-20.04 28.3-20.04 16.542 0 30 13.458 30 30v15h15c24.814 0 45 20.187 45 45 0 24.814-20.186 45-45 45zm210.731-104.407c-9.3-7.175-20.323-12.22-32.333-14.394-12.522-53.002-83.677-63.084-110.557-15.855-5.239.504-10.342 1.561-15.247 3.106-23.989-25.037-37.594-58.6-37.594-93.45 0-74.439 60.561-135 135-135s135 60.561 135 135c0 51.378-28.864 97.746-74.269 120.593zm23.556 88.09c8.578-20.645 7.586-44.509-3.554-64.738 51.735-28.968 84.267-83.638 84.267-143.945 0-90.981-74.019-165-165-165s-165 74.019-165 165c0 40.008 14.67 78.626 40.744 108.524-8.357 7.277-15.131 16.387-19.627 26.786-10.468-1.068-21.425.578-31.656 5.412-31.974-39.84-49.461-89.333-49.461-140.722 0-124.065 100.935-225 225-225s225 100.935 225 225c0 93.46-57.565 175.09-140.713 208.683z"/><path d="m285 165c-24.814 0-45 20.187-45 45 0 24.814 20.186 45 45 45s45-20.186 45-45c0-24.813-20.186-45-45-45zm0 60c-8.272 0-15-6.729-15-15s6.728-15 15-15 15 6.729 15 15-6.728 15-15 15z"/></g></svg>