<svg id="Capa_1" enable-background="new 0 0 512 512" height="512" viewBox="0 0 512 512" width="512" xmlns="http://www.w3.org/2000/svg"><g><path d="m512 228.526h-27.013c-.288-44.619-36.725-80.833-81.487-80.833-21.65 0-41.801 8.297-56.922 23.108-9.796-4.034-20.345-6.143-31.078-6.143-21.23 0-41.332 8.105-56.602 22.822-11.693 11.271-19.59 25.503-22.992 41.045h-171.906v-153.649c0-24.745 20.187-44.876 45-44.876 11.76 0 22.813 4.568 31.124 12.862 5.702 5.69 9.644 12.667 11.555 20.274-35.283 7.691-61.786 39.109-61.786 76.605v15h157.107v-15c0-38.581-28.059-70.721-64.87-77.207-2.368-15.431-9.548-29.665-20.815-40.908-13.974-13.945-32.554-21.626-52.315-21.626-41.355 0-75 33.589-75 74.876v153.65h-34v89.876h34v59.845c0 41.287 33.645 74.875 75 74.875h1.5v8.741c0 11.104-9.066 20.137-20.21 20.137h-44.79v30h44.79c27.686 0 50.21-22.492 50.21-50.137v-8.741h231v8.741c0 27.646 22.524 50.137 50.21 50.137h44.79v-30h-44.79c-11.144 0-20.21-9.034-20.21-20.137v-8.741h2.5c41.355 0 75-33.589 75-74.875v-59.845h33zm-297.384-103.785h-92.34c6.346-19.381 24.645-33.422 46.17-33.422s39.825 14.041 46.17 33.422zm188.884 52.952c28.219 0 51.199 22.755 51.487 50.833h-102.977c.11-10.966 3.619-21.382 10.178-30.149 9.838-13.145 24.896-20.684 41.312-20.684zm-88 16.965c4.534 0 9.011.596 13.328 1.745-4.419 10.042-6.746 20.902-6.817 32.123h-54.967c7.139-19.864 26.106-33.868 48.456-33.868zm133.5 183.589c0 24.745-20.187 44.875-45 44.875h-295c-24.813 0-45-20.131-45-44.875v-59.845h385zm33-89.845h-452v-29.876h452z"/><path d="m379.5 109.834c30.052 0 54.5-24.412 54.5-54.418s-24.448-54.418-54.5-54.418-54.5 24.412-54.5 54.418 24.448 54.418 54.5 54.418zm0-78.836c13.51 0 24.5 10.954 24.5 24.418s-10.99 24.418-24.5 24.418-24.5-10.954-24.5-24.418 10.99-24.418 24.5-24.418z"/></g></svg>