<svg id="Capa_1" enable-background="new 0 0 512.893 512.893" height="512" viewBox="0 0 512.893 512.893" width="512" xmlns="http://www.w3.org/2000/svg"><g><path d="m505.027 250.493-26.694-26.693.678-.678c23.021-23.02 23.021-60.477 0-83.497l-44.489-44.489c-12.367-12.368-28.901-18.08-45.125-17.159.921-16.224-4.792-32.758-17.159-45.125l-32.852-32.852-42.426 42.427-26.693-26.694-53.033 53.033-21.214-21.213-64.346 64.347c-59.316 59.316-72.58 147.501-39.815 219.742-21.505 1.572-42.164 10.73-57.821 26.386l-26.172 26.172 128.693 128.693 26.172-26.171c15.657-15.657 24.814-36.315 26.386-57.821 25.705 11.658 53.425 17.5 81.149 17.5 50.191 0 100.383-19.105 138.593-57.315l64.347-64.347-21.213-21.213zm-74.247 31.82-32.174-32.174 11.284-11.284c5.485-5.485 12.778-8.506 20.536-8.506 7.757 0 15.05 3.021 20.535 8.506l11.638 11.637zm-127.662-150.231c11.325-11.323 29.748-11.322 41.071 0l11.638 11.638-31.82 31.82-32.173-32.174zm73.922 32.851 11.638 11.638c11.323 11.323 11.323 29.748 0 41.071l-11.284 11.284-32.173-32.174zm80.758 36.976-3.491 3.491c-8.627-3.805-17.983-5.454-27.247-4.928.524-9.259-1.125-18.616-4.929-27.244l24.028-24.028 11.638 11.638c11.324 11.323 11.324 29.747.001 41.071zm-44.49-85.56 11.638 11.638-21.213 21.213-32.173-32.174.677-.677c11.325-11.324 29.748-11.323 41.071 0zm-62.284-62.285c11.323 11.323 11.323 29.748 0 41.071l-3.491 3.491c-8.619-3.8-17.965-5.45-27.216-4.93.063-1.116.094-2.238.094-3.364 0-8.369-1.746-16.466-5.036-23.895l24.012-24.011zm-80.758 4.096 11.638 11.638c5.485 5.485 8.507 12.778 8.507 20.535s-3.02 15.05-8.506 20.535l-11.285 11.285-32.174-32.174zm-128.748 407.348-4.959 4.959-86.267-86.267 4.959-4.958c14.182-14.182 34.49-20.412 54.054-16.879 6.539 9.399 13.995 18.349 22.369 26.724s17.324 15.83 26.724 22.369c3.531 19.564-2.698 39.871-16.88 54.052zm246.128-97.635c-64.722 64.722-170.034 64.724-234.76 0-31.353-31.353-48.62-73.04-48.62-117.38s17.268-86.026 48.62-117.379l43.134-43.134 234.76 234.759z"/></g></svg>