<?xml version="1.0" encoding="iso-8859-1"?>
<!-- Generator: Adobe Illustrator 19.0.0, SVG Export Plug-In . SVG Version: 6.00 Build 0)  -->
<svg xmlns="http://www.w3.org/2000/svg" xmlns:xlink="http://www.w3.org/1999/xlink" version="1.1" id="Layer_1" x="0px" y="0px" viewBox="0 0 512 512" style="enable-background:new 0 0 512 512;" xml:space="preserve">
<g>
	<g>
		<path d="M298.856,66.908c-7.08-7.668-23.256-37.242-24.377-44.564L271.285,0l-19.886,10.679    c-2.548,1.368-62.451,34.334-65.872,105.297c-1.773,36.776,9.841,59.686,22.223,73.517v275.621    c0,25.853,21.033,46.886,46.886,46.886c25.852,0,46.886-21.033,46.886-46.886V193.39c1.738-1.71,3.423-3.539,5.037-5.511    c8.457-10.338,14.896-24.125,18.131-38.822C330.991,120.443,322.056,92.037,298.856,66.908z M269.976,465.114    c0,8.457-6.881,15.338-15.339,15.338c-8.457,0-15.338-6.881-15.338-15.338v-16.561h30.676V465.114z M269.976,417.006H239.3    V209.363h24.617h6.059V417.006z M293.88,142.275c-2.906,13.2-12.487,35.538-29.966,35.54h-20.945    c-6.753-3.498-27.974-17.921-25.93-60.32c1.624-33.682,20.471-56.13,34.393-68.238c7.649,15.74,18.593,32.93,24.245,39.051    C291.796,105.767,297.92,123.924,293.88,142.275z"/>
	</g>
</g>
<g>
</g>
<g>
</g>
<g>
</g>
<g>
</g>
<g>
</g>
<g>
</g>
<g>
</g>
<g>
</g>
<g>
</g>
<g>
</g>
<g>
</g>
<g>
</g>
<g>
</g>
<g>
</g>
<g>
</g>
</svg>
