<svg id="Capa_1" enable-background="new 0 0 510 510" height="512" viewBox="0 0 510 510" width="512" xmlns="http://www.w3.org/2000/svg"><g><path d="m255 0c-140.932 0-255 114.05-255 255 0 140.931 114.049 255 255 255 140.932 0 255-114.05 255-255 0-140.931-114.049-255-255-255zm0 480c-124.065 0-225-100.935-225-225s100.935-225 225-225 225 100.935 225 225-100.935 225-225 225z"/><path d="m223.709 208.81c8.167-8.167 12.664-19.024 12.664-30.573 0-23.896-19.338-43.237-43.237-43.237-11.257 0-21.857 4.273-29.949 12.053-8.092-7.78-18.692-12.053-29.949-12.053-23.896 0-43.238 19.337-43.238 43.237 0 11.549 4.497 22.407 12.664 30.573l60.522 56.482c.832-.776-8.25 7.7 60.523-56.482zm-99.832-39.933c5.162-5.16 13.559-5.161 18.72 0l20.59 20.589 20.59-20.589c5.162-5.16 13.56-5.161 18.72 0 5.119 5.119 5.177 13.381.148 18.568l-39.458 36.816-39.458-36.816c-5.019-5.177-4.981-13.438.148-18.568z"/><path d="m376.763 135c-11.257 0-21.857 4.273-29.949 12.053-8.092-7.78-18.692-12.053-29.949-12.053-23.895 0-43.237 19.337-43.237 43.237 0 11.549 4.497 22.407 12.664 30.573l60.523 56.482c.832-.776-8.251 7.7 60.522-56.482 8.167-8.167 12.664-19.024 12.664-30.573-.001-23.896-19.34-43.237-43.238-43.237zm9.509 52.446-39.458 36.816-39.458-36.816c-5.019-5.178-4.98-13.439.148-18.569 5.162-5.16 13.56-5.161 18.72 0l20.59 20.589 20.59-20.589c5.162-5.16 13.56-5.161 18.72 0 5.118 5.119 5.176 13.382.148 18.569z"/><path d="m150 330c0 57.897 47.102 105 105 105s105-47.103 105-105v-15h-210zm178.493 15c-6.97 34.191-37.274 60-73.493 60s-66.523-25.809-73.493-60z"/></g></svg>