<svg id="Capa_1" enable-background="new 0 0 512 512" height="512" viewBox="0 0 512 512" width="512" xmlns="http://www.w3.org/2000/svg"><g><path d="m233.5 378.922v-49.858c59.115-7.404 105-57.975 105-119.064v-120h-15c-13.701 0-27.103 2.092-39.829 6.028-23.968-32-56.918-48.792-58.444-49.558l-6.728-3.376-6.728 3.376c-1.526.766-34.476 17.559-58.444 49.558-12.724-3.936-26.126-6.028-39.827-6.028h-15v120c0 61.089 45.885 111.66 105 119.064v49.858c-13.398-10.582-30.293-16.922-48.651-16.922h-71.349v41.348c0 43.369 35.283 78.652 78.651 78.652h41.349v30h30v-30h41.349c43.368 0 78.651-35.283 78.651-78.652v-41.348h-71.349c-18.358 0-35.253 6.34-48.651 16.922zm-14.978-301.762c8.562 5.282 23.774 15.891 36.78 31.353-13.966 8.178-26.468 18.86-36.802 31.634-10.331-12.771-22.828-23.45-36.789-31.627 12.984-15.39 28.247-26.052 36.811-31.36zm-90.022 132.84v-88.922c32.198 4.652 60.812 24.105 76.883 53.075l13.117 23.645 13.117-23.645c16.071-28.97 44.685-48.423 76.883-53.075v88.922c0 49.626-40.374 90-90 90s-90-40.374-90-90zm33.651 242c-26.826 0-48.651-21.825-48.651-48.652v-11.348h41.349c26.826 0 48.651 21.825 48.651 48.652v11.348zm161.349-48.652c0 26.827-21.825 48.652-48.651 48.652h-41.349v-11.348c0-26.827 21.825-48.652 48.651-48.652h41.349z"/><path d="m143.5 0h30v30h-30z"/><path d="m83.5 30h30v30h-30z"/><path d="m308.5 30h30v30h-30z"/><path d="m368.5 60h30v30h-30z"/><path d="m398.5 0h30v30h-30z"/></g></svg>