<svg id="Capa_1" enable-background="new 0 0 512 512" height="512" viewBox="0 0 512 512" width="512" xmlns="http://www.w3.org/2000/svg"><g><path d="m467 24.25h-422c-24.813 0-45 20.187-45 45v300c0 24.813 20.187 45 45 45h152.112l-11.81 43.5h-57.914v30h257.222v-30h-57.913l-11.81-43.5h152.113c24.813 0 45-20.187 45-45v-300c0-24.813-20.187-45-45-45zm-422 30h422c8.271 0 15 6.729 15 15v255h-43.444v-240h-365.112v240h-43.444v-255c0-8.271 6.729-15 15-15zm363.556 90h-305.112v-30h305.111v30zm-305.112 30h305.111v150h-305.111zm180.358 240 11.81 43.5h-79.225l11.81-43.5zm183.198-30h-422c-8.271 0-15-6.729-15-15v-15h452v15c0 8.271-6.729 15-15 15z"/><path d="m178.444 204.25c-24.813 0-45 20.187-45 45s20.187 45 45 45 45-20.187 45-45-20.186-45-45-45zm0 60c-8.271 0-15-6.729-15-15s6.729-15 15-15 15 6.729 15 15-6.728 15-15 15z"/><path d="m256 264.25h122.556v30h-122.556z"/><path d="m256 204.25h122.556v30h-122.556z"/></g></svg>