<svg id="Capa_1" enable-background="new 0 0 512 512" height="512" viewBox="0 0 512 512" width="512" xmlns="http://www.w3.org/2000/svg"><g><path d="m511.431 186.56-16.139-16.139v-44.783c0-60.378-49.121-109.499-109.5-109.499h-44.782l-16.139-16.139-73.474 73.473-46.617 118.949-204.211 204.212 48.059 48.058-36.569 36.569 21.115 21.115 36.569-36.569 46.193 46.193 204.275-204.274 117.81-47.757zm-125.638-140.56c43.913 0 79.638 35.726 79.638 79.638v14.922l-94.559-94.56zm83.408 140.56-39.595 39.595-144.33-144.33 39.596-39.595zm-199.464-78.045 133.381 133.382-87.761 35.575-80.347-80.347zm20.943 186.512-127.922 127.922-73.137-73.137 127.922-127.923zm-247.881 101.607 25.707-25.707 73.137 73.137-25.707 25.707z"/><path d="m156.136 302.201h76.6v29.861h-76.6z" transform="matrix(.707 -.707 .707 .707 -167.297 230.373)"/></g></svg>