<svg id="Capa_1" enable-background="new 0 0 511.545 511.545" height="512" viewBox="0 0 511.545 511.545" width="512" xmlns="http://www.w3.org/2000/svg"><g><path d="m511.289 165.593c-9.177-125.179-156.389-194.469-255.485-109.79-152.589-123.41-345.189 83.308-210.051 227.593l210.049 210.066c.426-.442 209.672-209.64 210.046-210.062 32.217-34.955 47.93-75.692 45.441-117.807zm-443.051 97.879h67.806l45.895-72.241 36.864 56.791 36.854-56.775 79.661 125.591 51.826-53.365h56.223l-187.565 187.564zm397.235-30h-91.013l-34.174 35.189-84.339-132.964-37.146 57.225-37.136-57.209-62.105 97.759h-73.426c-68.864-133.068 105.138-254.749 209.666-137.203 104.637-117.606 278.516 4.251 209.673 137.203z"/></g></svg>