<svg id="Capa_1" enable-background="new 0 0 512 512" height="512" viewBox="0 0 512 512" width="512" xmlns="http://www.w3.org/2000/svg"><g><path d="m512 298.24h-38.813c13.59-12.299 24.05-27.585 30.576-44.874l-28.066-10.595c-12.523 33.177-44.773 55.468-80.248 55.468h-68.781c1.918-4.605 3.109-9.505 3.495-14.531 3.977-4.638 6.988-9.98 8.911-15.719h39.409c48.464 0 87.893-39.43 87.893-87.894 0-38.417-31.254-69.67-69.67-69.67-30.88 0-56.003 25.123-56.003 56.003 0 25.228 20.524 45.752 45.752 45.752v-30c-8.686 0-15.752-7.066-15.752-15.752 0-14.338 11.665-26.003 26.003-26.003 21.874 0 39.67 17.796 39.67 39.67 0 31.922-25.971 57.893-57.893 57.894h-39.409c-1.923-5.739-4.934-11.081-8.911-15.719-.856-11.167-5.654-21.725-13.687-29.757s-18.591-12.83-29.757-13.687c-8.502-7.29-19.36-11.363-30.719-11.363s-22.217 4.073-30.719 11.363c-11.165.857-21.725 5.655-29.757 13.687s-12.83 18.59-13.687 29.756c-3.977 4.638-6.988 9.98-8.911 15.719h-39.409c-31.922 0-57.893-25.971-57.893-57.894 0-21.875 17.796-39.67 39.67-39.67 14.338 0 26.003 11.665 26.003 26.003 0 8.686-7.066 15.752-15.752 15.752v30c25.228 0 45.752-20.524 45.752-45.752 0-30.88-25.123-56.003-56.003-56.003-38.416 0-69.67 31.254-69.67 69.67 0 48.464 39.429 87.893 87.893 87.894h39.409c1.923 5.739 4.934 11.081 8.911 15.719.385 5.026 1.576 9.926 3.495 14.531h-68.781c-35.475 0-67.725-22.291-80.248-55.468l-28.066 10.597c6.526 17.288 16.986 32.574 30.576 44.874h-38.813v30h91.342c-4.773 8.483-7.509 18.259-7.509 28.667v44.667h44.667c32.349 0 58.667-26.318 58.667-58.667v-14.668h39.441c8.291 6.602 18.614 10.275 29.392 10.275s21.1-3.673 29.392-10.275h39.441v14.667c0 32.349 26.318 58.667 58.667 58.667h44.667v-44.667c0-10.408-2.736-20.183-7.509-28.667h91.342zm-354.833 44.667c0 15.807-12.86 28.667-28.667 28.667h-14.667v-14.667c0-15.807 12.86-28.667 28.667-28.667h14.667zm111.944-40.455c-3.288 3.853-8.067 6.063-13.111 6.063s-9.823-2.21-13.111-6.063l-4.967-5.82-7.627.604c-5.056.396-9.99-1.417-13.558-4.984-3.566-3.567-5.383-8.508-4.983-13.558l.604-7.627-5.82-4.967c-3.853-3.288-6.062-8.066-6.062-13.11s2.21-9.823 6.062-13.11l5.82-4.967-.604-7.627c-.399-5.049 1.417-9.991 4.983-13.557 3.568-3.567 8.512-5.38 13.558-4.984l7.627.604 4.967-5.82c3.288-3.853 8.067-6.063 13.111-6.063s9.823 2.21 13.111 6.063l4.967 5.82 7.627-.604c5.05-.399 9.99 1.417 13.558 4.984 3.566 3.567 5.383 8.508 4.983 13.558l-.604 7.627 5.82 4.966c3.853 3.288 6.062 8.067 6.062 13.111s-2.21 9.823-6.062 13.111l-5.82 4.966.604 7.627c.399 5.049-1.417 9.991-4.983 13.558s-8.504 5.385-13.558 4.984l-7.627-.604zm129.056 69.122h-14.667c-15.807 0-28.667-12.86-28.667-28.667v-14.667h14.667c15.807 0 28.667 12.86 28.667 28.667z"/><path d="m241 237.928h30v30.125h-30z"/></g></svg>