<svg id="Capa_1" enable-background="new 0 0 512.042 512.042" height="512" viewBox="0 0 512.042 512.042" width="512" xmlns="http://www.w3.org/2000/svg"><g><path d="m501.486 11.144c-37.467-10.844-74.869-15.272-113.679-5.93-41.942 10.096-82.322 27.119-116.657 53.085l-58.278-58.278s-31.346 31.361-32.658 32.709c-65.86 67.656-101.542 174.614-73.019 266.792-22.683-6.505-48.147-.85-65.981 16.984l-41.214 40.665 41.214 40.665c14.222 14.222 34.351 21.321 54.349 19.274-1.993 19.39 4.413 39.488 19.238 54.313l40.665 40.598 40.664-40.599c25.804-25.803 26.114-67.571.967-93.782 84.228.146 170.307-45.027 228.904-103.624 65.014-65.013 106.659-177.633 75.485-262.872zm-299.775 42.512c.887-.911 1.975-2.015 11.162-11.208l35.162 35.161c-59.087 54.401-103.415 134.063-111.831 214.483-25.275-79.144 6.71-178.036 65.507-238.436zm-113.097 333.814c-9.893 0-19.192-3.853-26.188-10.847l-19.451-19.452 19.451-19.452c14.44-14.44 37.936-14.439 52.374 0l19.452 19.451-19.452 19.452c-6.994 6.995-16.294 10.848-26.186 10.848zm86.303 62.74-19.451 19.451-19.452-19.451c-14.439-14.439-14.439-37.934 0-52.374l19.452-19.451 19.451 19.451c14.44 14.44 14.44 37.934 0 52.374zm107.535-119.52c-42.581 15.89-82.873 20.791-114.64 14.094-9.107-43.203 3.026-89.613 20.002-129.315 17.368-40.619 42.364-78.538 73.944-109.519 21.549 67.693 72.682 123.786 137.916 151.835-32.452 30.945-73.805 56.703-117.222 72.905zm139.253-96.383c-66.314-24.416-117.681-81.632-134.975-150.134 57.794-44.66 128.86-63.245 190.37-48.643 15.318 64.535-5.885 139.574-55.395 198.777z"/><path d="m364.314 85.634c-17.546 17.545-17.546 46.094 0 63.639 17.311 17.312 46.327 17.314 63.64 0 17.546-17.545 17.546-46.094 0-63.639-17.545-17.545-46.095-17.547-63.64 0zm42.426 42.426c-5.762 5.762-15.45 5.764-21.214 0-5.763-5.764-5.764-15.448 0-21.213 5.756-5.755 15.457-5.756 21.214 0 5.849 5.848 5.849 15.365 0 21.213z"/></g></svg>