<svg id="Layer_1" enable-background="new 0 0 510 510" height="512" viewBox="0 0 510 510" width="512" xmlns="http://www.w3.org/2000/svg"><g id="XMLID_580_"><path id="XMLID_587_" d="m368.242 45c-7.72 0-14.546-4.92-16.986-12.244-6.532-19.592-24.796-32.756-45.447-32.756h-36.283c-24.813 0-45 20.187-45 45v15h-45v69.457c-208.299 71.055-162.759 376.061 60.003 380.543 222.795-4.501 268.263-309.527 59.997-380.543v-69.457h-45v-15c0-8.271 6.729-15 15-15h36.283c7.719 0 14.545 4.92 16.986 12.243 6.53 19.593 24.794 32.757 45.447 32.757h36.283v-30zm36.284 270c0 90.981-74.019 165-165 165-218.594-8.295-218.535-321.738.002-330 90.979 0 164.998 74.019 164.998 165zm-135-225v32.308c-19.824-3.075-40.133-3.081-60 0v-32.308z"/><path id="XMLID_593_" d="m434.526 45h30v30h-30z"/><path id="XMLID_594_" d="m404.526 15h30v30h-30z"/><path id="XMLID_595_" d="m404.526 75h30v30h-30z"/><path id="XMLID_596_" d="m135.252 302.592-29.793-3.523c-10.254 86.699 63.162 160.269 149.998 149.997l-3.523-29.792c-67.444 7.977-124.672-49.129-116.682-116.682z"/></g></svg>