<?xml version="1.0" encoding="iso-8859-1"?>
<!-- Generator: Adobe Illustrator 19.0.0, SVG Export Plug-In . SVG Version: 6.00 Build 0)  -->
<svg xmlns="http://www.w3.org/2000/svg" xmlns:xlink="http://www.w3.org/1999/xlink" version="1.1" id="Layer_1" x="0px" y="0px" viewBox="0 0 512 512" style="enable-background:new 0 0 512 512;" xml:space="preserve">
<g>
	<g>
		<path d="M160.48,181.7l-22.29,20.09c5.08,5.63,9.63,13.09,13.53,22.15l27.56-11.85C174.08,200,167.76,189.78,160.48,181.7z"/>
	</g>
</g>
<g>
	<g>
		<path d="M108.67,158.25c-6.88,0-13.55,0.94-19.81,2.79l8.49,28.77c3.51-1.03,7.32-1.56,11.32-1.56c3.85,0,7.52,0.48,10.9,1.44    l8.15-28.87C121.68,159.11,115.27,158.25,108.67,158.25z"/>
	</g>
</g>
<g>
	<g>
		<path d="M56.36,182.26c-7.19,8.12-13.44,18.37-18.57,30.45l27.61,11.73c3.87-9.1,8.38-16.6,13.43-22.29L56.36,182.26z"/>
	</g>
</g>
<g>
	<g>
		<path d="M512,94.1H0v177.026h22.89c0,0.001,0,0.002,0,0.004c-0.25,1.9-0.49,3.83-0.72,5.76l13.68,1.59    c-0.33,0.84-0.65,1.7-0.97,2.56c-3.48,9.45-6.17,19.32-8.25,29.1c-1.13,5.33-2.08,10.62-2.88,15.82v0.01    c-2.27,14.77-3.29,28.71-3.72,40.04c-0.02,0.62-0.03,1.24-0.03,1.86c0,12.9,5.05,25.5,14.03,34.79    c9.37,9.68,22.46,15.24,35.93,15.24h76.71c13.04,0,25.38-5,34.75-14.06l0.69-0.67c10.21-9.88,15.74-23.68,15.18-37.86    c-0.16-4-0.39-8.33-0.73-12.91c6.47,2.95,13.55,4.53,20.74,4.53h76.71c13.03,0,25.38-4.99,34.75-14.06l0.57-0.55    c9.31,9.3,22.13,14.61,35.31,14.61h76.7c13.04,0,25.39-4.99,34.76-14.06l0.69-0.67c10.2-9.88,15.74-23.68,15.18-37.86    c-0.37-9.18-1.13-20.09-2.62-31.75H512V94.1z M161.25,381.61l-0.69,0.67c-3.75,3.62-8.68,5.62-13.89,5.62H69.96    c-5.38,0-10.62-2.22-14.36-6.09c-3.76-3.9-5.8-9.24-5.59-14.68c1.03-27.66,8.33-117.92,58.66-117.92    c50.12,0,57.56,89.77,58.64,117.28C167.54,372.15,165.33,377.66,161.25,381.61z M308.58,320.64l-0.69,0.67    c-3.74,3.62-8.67,5.62-13.88,5.62H217.3c-5.38,0-10.62-2.22-14.36-6.09c-3.76-3.89-5.8-9.24-5.6-14.68    c1.04-27.66,8.34-117.91,58.67-117.91c50.12,0,57.56,89.76,58.64,117.28C314.88,311.18,312.67,316.69,308.58,320.64z     M455.92,320.64l-0.69,0.67c-3.74,3.62-8.67,5.62-13.89,5.62h-76.7c-5.38,0-10.62-2.22-14.36-6.09c-3.76-3.89-5.8-9.24-5.6-14.68    c1.04-27.66,8.34-117.91,58.67-117.91c50.12,0,57.56,89.76,58.64,117.28C462.22,311.18,460,316.69,455.92,320.64z M482,235.27    c-1.47-5.32-3.15-10.59-5.06-15.74c-18.82-50.65-50.41-61.28-73.59-61.28c-23.24,0-54.87,10.67-73.67,61.51    c-0.02-0.08-0.05-0.15-0.08-0.23c-18.82-50.65-50.4-61.28-73.59-61.28c-23.29,0-55,10.72-73.79,61.83    c-3.29,8.96-5.89,18.28-7.92,27.56c-0.81,3.73-1.54,7.45-2.18,11.13c-1.94-3.33-3.96-6.39-6.03-9.21    c-17.92-24.36-40.03-30.35-57.42-30.35c-17.53,0-39.83,6.08-57.8,30.87L30,245.26V124.1h452V235.27z"/>
	</g>
</g>
<g>
</g>
<g>
</g>
<g>
</g>
<g>
</g>
<g>
</g>
<g>
</g>
<g>
</g>
<g>
</g>
<g>
</g>
<g>
</g>
<g>
</g>
<g>
</g>
<g>
</g>
<g>
</g>
<g>
</g>
</svg>
