<svg id="Capa_1" enable-background="new 0 0 512 512" height="512" viewBox="0 0 512 512" width="512" xmlns="http://www.w3.org/2000/svg"><g><path d="m301 105c0-24.813-20.187-45-45-45s-45 20.187-45 45 20.187 45 45 45 45-20.187 45-45zm-45 15c-8.271 0-15-6.729-15-15s6.729-15 15-15 15 6.729 15 15-6.729 15-15 15z"/><path d="m76 422c-24.813 0-45 20.187-45 45s20.187 45 45 45 45-20.187 45-45-20.187-45-45-45zm0 60c-8.271 0-15-6.729-15-15s6.729-15 15-15 15 6.729 15 15-6.729 15-15 15z"/><path d="m256 422c-24.813 0-45 20.187-45 45s20.187 45 45 45 45-20.187 45-45-20.187-45-45-45zm0 60c-8.271 0-15-6.729-15-15s6.729-15 15-15 15 6.729 15 15-6.729 15-15 15z"/><path d="m436 422c-24.813 0-45 20.187-45 45s20.187 45 45 45 45-20.187 45-45-20.187-45-45-45zm0 60c-8.271 0-15-6.729-15-15s6.729-15 15-15 15 6.729 15 15-6.729 15-15 15z"/><path d="m91 332h150v60h30v-60h150v60h30v-90h-180v-32.838c67.406-7.486 120-64.793 120-134.162 0-74.439-60.561-135-135-135s-135 60.561-135 135c0 69.369 52.594 126.676 120 134.162v32.838h-180v90h30zm210-102.145c-13.646 6.5-28.905 10.145-45 10.145s-31.354-3.645-45-10.145v-4.855c0-24.813 20.187-45 45-45s45 20.187 45 45zm-150-94.855c0-57.897 47.103-105 105-105s105 47.103 105 105c0 29.316-12.082 55.86-31.522 74.928-6.996-34.157-37.284-59.928-73.478-59.928s-66.482 25.771-73.478 59.928c-19.44-19.068-31.522-45.612-31.522-74.928z"/></g></svg>