<svg id="Capa_1" enable-background="new 0 0 512 512" height="512" viewBox="0 0 512 512" width="512" xmlns="http://www.w3.org/2000/svg"><g><path d="m436 226c-53.429 0-60.794-10.223-74.164-28.78l-.056-.077c-14.266-19.846-43.953-61.143-105.78-61.143-61.826 0-91.513 41.297-105.77 61.13l-.065.09c-13.37 18.557-20.735 28.78-74.165 28.78h-76v240h512v-240zm-360 30c31.084 0 51.879-3.554 67.427-11.524 15.328-7.856 23.335-18.971 31.079-29.719l.074-.103c13.081-18.197 34.975-48.654 81.42-48.654s68.34 30.457 81.431 48.667l.064.089c7.744 10.749 15.751 21.862 31.078 29.719 15.549 7.971 36.344 11.525 67.427 11.525h46v30h-46c-84.207 0-104.774-28.535-122.92-53.711-12.26-17.01-26.155-36.289-57.08-36.289s-44.82 19.279-57.08 36.289c-18.146 25.176-38.713 53.711-122.92 53.711h-46v-30zm406 60v53.077c-1.979-1.48-4.019-3.105-6.14-4.799-10.198-8.143-22.89-18.278-39.86-18.278-17.081 0-29.519 10.204-39.513 18.403-7.586 6.222-14.136 11.597-20.487 11.597-6.35 0-12.9-5.374-20.485-11.597-9.995-8.199-22.434-18.403-39.515-18.403s-29.519 10.204-39.513 18.403c-7.586 6.222-14.136 11.597-20.487 11.597-6.35 0-12.9-5.374-20.485-11.597-9.995-8.199-22.434-18.403-39.515-18.403s-29.519 10.204-39.513 18.403c-7.586 6.222-14.136 11.597-20.487 11.597-6.35 0-12.9-5.374-20.485-11.597-9.995-8.199-22.434-18.403-39.515-18.403-16.97 0-29.661 10.135-39.859 18.278-2.121 1.693-4.161 3.32-6.141 4.799v-53.077zm-291.849-30c15.504-11.749 25.102-25.064 33.106-36.17 12.219-16.951 17.773-23.83 32.743-23.83s20.524 6.879 32.742 23.83c8.004 11.105 17.603 24.421 33.106 36.17zm-160.151 150v-32.707c9.817-3.564 17.918-10.028 24.86-15.572 7.876-6.289 14.679-11.721 21.14-11.721 6.351 0 12.901 5.375 20.487 11.597 9.994 8.199 22.432 18.403 39.513 18.403s29.52-10.204 39.515-18.403c7.585-6.223 14.135-11.597 20.485-11.597 6.351 0 12.901 5.375 20.487 11.597 9.994 8.199 22.432 18.403 39.513 18.403s29.52-10.204 39.515-18.403c7.585-6.223 14.135-11.597 20.485-11.597 6.351 0 12.901 5.375 20.487 11.597 9.994 8.199 22.432 18.403 39.513 18.403s29.52-10.204 39.515-18.403c7.585-6.223 14.135-11.597 20.485-11.597 6.462 0 13.265 5.432 21.141 11.722 6.943 5.544 15.042 12.008 24.859 15.571v32.707z"/><path d="m173.5 64.087h30v60h-30z" transform="matrix(.866 -.5 .5 .866 -21.789 106.855)"/><path d="m293.5 79.087h60v30h-60z" transform="matrix(.5 -.866 .866 .5 80.267 327.201)"/><path d="m241 46h30v60h-30z"/></g></svg>