<svg id="Capa_1" enable-background="new 0 0 512 512" height="512" viewBox="0 0 512 512" width="512" xmlns="http://www.w3.org/2000/svg"><g><path d="m426.082 150.625c-10.997 0-21.306 2.979-30.188 8.151v-38.276h-331.249v165.625c0 56.027 27.969 105.638 70.673 135.625h-109.588v90.25h409.08v-90.25h-109.587c22.184-15.578 40.391-36.45 52.765-60.771 60.53-4.92 108.281-55.748 108.281-117.524v-32.642c.001-33.188-26.999-60.188-60.187-60.188zm-256.062 66.338 15.125 15.125v39.037h-30.25v-39.037zm234.79 234.787v30.25h-349.08v-30.25zm-38.915-165.625c0 74.784-60.841 135.625-135.624 135.625h-.001c-74.784 0-135.625-60.841-135.625-135.625v-135.625h60.375v39.037l-30.125 30.125v81.463h90.25v-81.463l-30.125-30.125v-39.037h180.875zm90.375-42.67c0 40.878-28.042 75.329-65.901 85.128 3.598-13.556 5.526-27.785 5.526-42.458v-75.312c0-16.646 13.542-30.188 30.188-30.188s30.188 13.542 30.188 30.188v32.642z"/><path d="m220.412 67.414c2.696 3.169 3.862 5.639.559 10.785l-12.638 13.558 21.945 20.455 12.638-13.558c13.772-14.061 13.42-40.39-2.789-53.853-2.696-3.168-3.863-5.638-.561-10.784l12.641-13.562-21.945-20.455-12.641 13.562c-13.772 14.062-13.417 40.39 2.791 53.852z"/><path d="m295.725 67.414c2.696 3.169 3.862 5.639.559 10.785l-12.638 13.558 21.945 20.455 12.638-13.558c13.772-14.061 13.42-40.39-2.789-53.853-2.696-3.168-3.863-5.638-.561-10.784l12.641-13.562-21.946-20.455-12.641 13.562c-13.772 14.062-13.416 40.39 2.792 53.852z"/><path d="m145.1 67.414c2.696 3.169 3.862 5.639.559 10.785l-12.639 13.558 21.945 20.455 12.638-13.558c13.772-14.061 13.42-40.39-2.789-53.853-2.696-3.168-3.863-5.638-.561-10.784l12.641-13.562-21.945-20.455-12.641 13.562c-13.772 14.062-13.416 40.39 2.792 53.852z"/></g></svg>