<svg id="Capa_1" enable-background="new 0 0 511.996 511.996" height="512" viewBox="0 0 511.996 511.996" width="512" xmlns="http://www.w3.org/2000/svg"><g><path d="m100.02 120.033c-13.374-23.133-13.374-51.874 0-75.006l-25.971-15.017c-18.73 32.395-18.73 72.644 0 105.039z"/><path d="m48.046 150.04c-24.078-41.642-24.078-93.378 0-135.021l-25.971-15.016c-29.434 50.904-29.434 114.149 0 165.054z"/><path d="m255.943 135.049c18.73-32.395 18.73-72.644 0-105.039l-25.971 15.017c13.374 23.132 13.374 51.873 0 75.006z"/><path d="m307.917 165.056c29.434-50.904 29.434-114.149 0-165.054l-25.971 15.017c24.078 41.642 24.078 93.378 0 135.021z"/><path d="m511.996 144.17-189.16 86.725c-1.942-11.65-5.185-23.033-9.713-34.023l-3.826-9.285h-129.301v-62.637c17.459-6.192 30-22.865 30-42.42 0-24.813-20.187-45-45-45s-45 20.187-45 45c0 19.555 12.541 36.228 30 42.42v62.637h-125.341l-3.826 9.285c-7.879 19.117-11.873 39.36-11.873 60.167 0 42.6 17.293 83.434 47.673 113.096v141.859h196.856v-56.875h53.011l8.487-83.382 52.876-11.091-12.662-42.626 156.799 71.888zm-347-76.64c8.271 0 15 6.729 15 15s-6.729 15-15 15-15-6.729-15-15 6.729-15 15-15zm164.832 270.439-42.47 8.908-7.964 78.241h-55.909v56.875h-136.856v-125.069l-4.996-4.472c-27.121-24.277-42.677-59.055-42.677-95.414 0-13.53 2.081-26.759 6.196-39.452h243.646c2.776 8.567 4.62 17.388 5.531 26.378l-50.326 23.073 74.964 34.369zm152.168 5.181-166.009-76.111 166.009-76.112z"/></g></svg>