<svg id="Capa_1" enable-background="new 0 0 512 512" height="512" viewBox="0 0 512 512" width="512" xmlns="http://www.w3.org/2000/svg"><g><path d="m467 271h-61c-8.271 0-15-6.729-15-15 0-41.458-33.534-76-75-76h-120c-41.457 0-75 34.533-75 76 0 8.271-6.729 15-15 15h-61c-24.813 0-45 20.187-45 45s20.187 45 45 45h61c29.352 0 55.928-12.104 75-31.585v72.79l-82.908-9.788c-2.337-.277-4.723-.417-7.092-.417-33.084 0-60 26.916-60 60s26.916 60 60 60h330c33.084 0 60-26.916 60-60s-26.916-60-60-60c-2.369 0-4.755.14-7.091.416l-82.909 9.788v-72.79c19.072 19.482 45.648 31.586 75 31.586h61c24.813 0 45-20.187 45-45s-20.187-45-45-45zm-49.572 151.209c1.174-.139 2.375-.209 3.572-.209 16.542 0 30 13.458 30 30s-13.458 30-30 30h-32.58c1.665-4.695 2.58-9.742 2.58-15 0-16.544-8.983-31.19-22.551-39.009zm-69.632 29.896c7.527.889 13.204 7.292 13.204 14.895 0 8.271-6.729 15-15 15h-255c-16.542 0-30-13.458-30-30s13.458-30 30-30c1.197 0 2.398.07 3.573.209zm119.204-121.105h-61c-41.355 0-75-33.645-75-75h-30v149.746l-45 5.313-45-5.313v-149.746h-30c0 41.355-33.645 75-75 75h-61c-8.271 0-15-6.729-15-15s6.729-15 15-15h61c24.813 0 45-20.187 45-45 0-24.935 20.607-46 45-46h120c24.393 0 45 21.065 45 46 0 24.813 20.187 45 45 45h61c8.271 0 15 6.729 15 15s-6.729 15-15 15z"/><path d="m136 120h30c0-49.626 40.374-90 90-90s90 40.374 90 90h30c0-66.168-53.832-120-120-120s-120 53.832-120 120z"/><path d="m316 120c0-33.084-26.916-60-60-60s-60 26.916-60 60 26.916 60 60 60 60-26.916 60-60zm-60 30c-16.542 0-30-13.458-30-30s13.458-30 30-30 30 13.458 30 30-13.458 30-30 30z"/></g></svg>