<?xml version="1.0" encoding="iso-8859-1"?>
<!-- Generator: Adobe Illustrator 19.0.0, SVG Export Plug-In . SVG Version: 6.00 Build 0)  -->
<svg xmlns="http://www.w3.org/2000/svg" xmlns:xlink="http://www.w3.org/1999/xlink" version="1.1" id="Layer_1" x="0px" y="0px" viewBox="0 0 512 512" style="enable-background:new 0 0 512 512;" xml:space="preserve">
<g>
	<g>
		<path d="M456.66,435.933h-31.476c0,24.588-20.003,44.591-44.591,44.591c-24.588,0-44.591-20.003-44.591-44.591h-31.476    c0,24.588-20.003,44.591-44.591,44.591c-24.588,0-44.591-20.003-44.591-44.591h-31.476c0,24.588-20.003,44.591-44.591,44.591    c-24.588,0-44.591-20.003-44.591-44.591H63.209c0,24.588-20.003,44.591-44.591,44.591V512c24.546,0,46.411-11.684,60.329-29.785    C92.865,500.316,114.73,512,139.276,512s46.411-11.684,60.329-29.785C213.523,500.316,235.388,512,259.935,512    s46.411-11.684,60.329-29.785C334.181,500.316,356.047,512,380.593,512s46.411-11.684,60.329-29.785    C454.839,500.316,476.705,512,501.251,512v-31.476C476.664,480.524,456.66,460.521,456.66,435.933z"/>
	</g>
</g>
<g>
	<g>
		<circle cx="127.74" cy="62.155" r="31.476"/>
	</g>
</g>
<g>
	<g>
		<path d="M509.12,83.6l-15.738-27.258L289.826,173.865l-15.738-27.259L480.803,27.258L465.065,0L258.35,119.347l-15.738-27.259    l112.287-64.829L339.161,0L226.874,64.828l-7.869-13.629l-27.258,15.738l33.585,58.17H96.259    c-34.134,0-61.903-27.769-61.903-61.903H2.88c0,46.127,33.621,84.543,77.641,92.047v85.544l41.968,52.46v49.883l-47.912,13.847    l8.74,30.238l181.512-52.46l-8.74-30.238l-39.172,11.321v-50.992l-41.968-36.722v-71.548h68.555l42.671,73.908l27.258-15.738    l-7.869-13.629L509.12,83.6z M111.997,219.535v-62.952h31.476v62.952H111.997z M185.441,279.137v45.806l-31.476,9.098v-51.827    l-24.962-31.201h24.293L185.441,279.137z"/>
	</g>
</g>
<g>
</g>
<g>
</g>
<g>
</g>
<g>
</g>
<g>
</g>
<g>
</g>
<g>
</g>
<g>
</g>
<g>
</g>
<g>
</g>
<g>
</g>
<g>
</g>
<g>
</g>
<g>
</g>
<g>
</g>
</svg>
