<svg id="Capa_1" enable-background="new 0 0 512 512" height="512" viewBox="0 0 512 512" width="512" xmlns="http://www.w3.org/2000/svg"><g><path d="m454.525 89.632v-30.151h35.341v-29.878h-35.341v-29.603h-395.643v29.603h-36.748v29.877h36.748v30.152h29.878v332.735h-29.878v29.603h-36.748v29.878h36.748v30.152h395.643v-30.152h35.341v-29.878h-35.341v-29.603h-30.243v-332.735zm-365.765-59.755h335.888v29.877h-335.888zm335.888 452.246h-335.888v-29.877h335.888zm-30.243-59.755h-275.768v-332.736h275.768z"/><path d="m161.799 347.719c16.988 0 30.81 13.821 30.81 30.81v14.939h128.162v-14.938c0-16.989 13.821-30.81 30.81-30.81h14.939v-183.122h-14.94c-16.988 0-30.81-13.821-30.81-30.809v-14.939h-128.161v14.939c0 16.988-13.821 30.809-30.81 30.809h-14.939v183.121zm14.939-155.104c21.483-5.457 38.43-22.404 43.888-43.887h72.127c5.458 21.483 22.406 38.43 43.888 43.887v127.087c-21.483 5.457-38.43 22.405-43.888 43.888h-72.127c-5.458-21.483-22.406-38.431-43.888-43.888z"/><path d="m241.765 180.638h29.877v29.877h-29.877z"/><path d="m241.765 240.393h29.877v29.877h-29.877z"/><path d="m241.765 300.148h29.877v29.877h-29.877z"/></g></svg>