<svg id="Capa_1" enable-background="new 0 0 512.001 512.001" height="512" viewBox="0 0 512.001 512.001" width="512" xmlns="http://www.w3.org/2000/svg"><g><path d="m489.774 205.774c0-113.464-92.31-205.774-205.774-205.774-44.388 0-86.66 13.913-122.247 40.233-34.871 25.792-60.319 61.137-73.594 102.215l-.352 1.089-8.955 55.413-56.625 102.688v38.362h47.106l18.982 103.695h106.936l16.135 68.306h244.439l-28.293-158.775c39.657-38.634 62.242-91.899 62.242-147.452zm-254.649 276.227-16.135-68.306h-105.668l-18.983-103.695h-42.112v-.638l55.41-100.485 9.416-58.27c23.827-72.189 90.775-120.607 166.947-120.607 96.923 0 175.774 78.852 175.774 175.774 0 49.868-21.306 97.578-58.453 130.897l-6.217 5.576 24.903 139.754z"/><path d="m363.633 106.5h-155.557l-42.366 78.127 120.146 115.879 120.144-115.879zm-1.455 60.25h-61.323v-30.25h44.919zm-91.323-30.25v30.25h-61.324l16.404-30.25zm-49.362 60.25h128.723l-64.361 62.077z"/></g></svg>