<svg id="Capa_1" enable-background="new 0 0 512.003 512.003" height="512" viewBox="0 0 512.003 512.003" width="512" xmlns="http://www.w3.org/2000/svg"><g><path d="m336.363 391.397c-56.607-2.452-109.474-25.649-149.791-65.965-40.317-40.317-63.514-93.184-65.966-149.791l74.149-30.033-.004-145.608h-194.748v135.5c-.413 98.88 39.876 196.343 110.274 266.226 69.624 70.107 166.859 110.678 266.226 110.274h135.5v-194.75h-145.608zm-171.608-266.005-44.377 17.974v-113.366h44.373zm211.748 356.608c-92.554 0-179.567-36.042-245.013-101.487-65.445-65.446-101.487-152.459-101.487-245.013v-105.5h60.375v135.625c0 68.38 26.629 132.667 74.98 181.02 48.353 48.352 112.64 74.98 181.02 74.98h135.625v60.375zm105.5-134.75v44.375h-113.366l17.974-44.375z"/><path d="m502.216 0h-133.323l-8.375 20.228 33.721 33.72-123.11 123.11 63.816 63.816 123.11-123.109 33.721 33.72 20.228-8.375v-133.323zm-20.213 99.287-23.948-23.948-123.11 123.11-21.391-21.39 123.11-123.11-23.948-23.949h69.287z"/></g></svg>