<svg id="Capa_1" enable-background="new 0 0 512 512" height="512" viewBox="0 0 512 512" width="512" xmlns="http://www.w3.org/2000/svg"><g><path d="m383.729 256.021c7.033-23.375 10.604-45.793 10.604-66.854 0-104.307-84.859-189.167-189.166-189.167s-189.167 84.86-189.167 189.167c0 34.718 9.632 72.898 28.628 113.481 14.894 31.817 35.587 65.273 61.505 99.438 43.874 57.833 87.124 97.358 88.944 99.012l10.09 9.173 10.09-9.173c.937-.851 19.889-18.151 45.325-46.4 23.063 34.52 62.377 57.302 106.918 57.302 70.855 0 128.5-57.645 128.5-128.5 0-65.359-49.049-119.476-112.271-127.479zm-178.552 213.226c-36.458-35.863-159.177-165.141-159.177-280.08 0-87.765 71.402-159.167 159.167-159.167s159.166 71.402 159.166 159.167c0 20.628-4.056 43.043-12.047 66.738-63.71 7.55-113.286 61.887-113.286 127.595 0 14.8 2.523 29.02 7.148 42.263-16.876 19.277-31.703 34.388-40.971 43.484zm162.323 12.753c-54.313 0-98.5-44.187-98.5-98.5s44.187-98.5 98.5-98.5 98.5 44.187 98.5 98.5-44.187 98.5-98.5 98.5z"/><path d="m382.5 325h-30v43.5h-43.5v30h43.5v43.5h30v-43.5h43.5v-30h-43.5z"/><path d="m299.333 189.166c0-25.152-9.795-48.8-27.581-66.585-17.785-17.786-41.433-27.581-66.586-27.581-25.152 0-48.8 9.795-66.585 27.581-17.786 17.785-27.581 41.433-27.581 66.585 0 25.153 9.795 48.801 27.581 66.586 17.785 17.786 41.433 27.581 66.585 27.581 25.153 0 48.801-9.795 66.586-27.581 17.786-17.785 27.581-41.433 27.581-66.586zm-48.794 45.373c-12.119 12.119-28.233 18.794-45.373 18.794-17.139 0-33.253-6.675-45.372-18.794-12.12-12.119-18.794-28.233-18.794-45.373 0-17.139 6.674-33.253 18.794-45.372 12.119-12.12 28.233-18.794 45.372-18.794 17.14 0 33.254 6.674 45.373 18.794 12.119 12.119 18.794 28.233 18.794 45.372 0 17.14-6.675 33.254-18.794 45.373z"/></g></svg>