<svg id="Capa_1" enable-background="new 0 0 512.523 512.523" height="512" viewBox="0 0 512.523 512.523" width="512" xmlns="http://www.w3.org/2000/svg"><g><path d="m437.331 264.889c46.434-42.326 78.669-119.839 74.595-182.279-2.198-33.7-14.874-58.329-36.655-71.224-25.233-14.939-52.478-15.182-78.78-.701-11.698 6.44-20.651 14.518-25.856 19.838h-228.746c-5.205-5.321-14.158-13.399-25.856-19.838-26.303-14.481-53.545-14.239-78.78.701-21.781 12.895-34.457 37.524-36.655 71.224-4.074 62.44 28.161 139.953 74.595 182.279-3.391 10.066-5.615 20.706-6.5 31.749-1.934 24.115 2.851 47.768 13.836 68.403 11.963 22.471 31.117 40.724 55.393 52.787l19.814 9.846c21.556 10.712 35.705 31.307 38.148 54.849h-59.621v30h240v-30h-59.623c2.443-23.541 16.592-44.137 38.15-54.849l19.813-9.846c24.275-12.063 43.43-30.316 55.393-52.787 10.985-20.635 15.77-44.289 13.836-68.403-.887-11.043-3.111-21.684-6.501-31.749zm-25.647-228.317c16.701-8.933 32.502-8.727 48.304.629 8.975 5.313 20.076 17.842 22.003 47.362 1.7 26.061-4.698 58.358-17.556 88.611-10.596 24.933-24.766 46.814-40.794 63.268-15.253-23.622-38.105-41.59-65.692-50.158-14.389-4.469-24.056-17.342-24.056-32.033v-.375c0-18.391 14.962-33.354 33.353-33.354h25.017v-69.213c3.78-3.846 10.603-10.021 19.421-14.737zm-212.577 83.951h114.309c-6.029 9.695-9.524 21.121-9.524 33.354v.375c0 11.308 2.981 22.037 8.322 31.358h-111.905c5.341-9.322 8.322-20.051 8.322-31.358v-.375c0-12.232-3.495-23.659-9.524-33.354zm-37.664 95.087h189.637c16.958 5.713 31.454 16.237 42.268 30h-274.173c10.814-13.763 25.31-24.287 42.268-30zm200.819-155.087v30h-212v-30zm-314.173 112.651c-12.857-30.252-19.256-62.55-17.556-88.611 1.927-29.52 13.028-42.049 22.003-47.362 15.804-9.355 31.602-9.562 48.304-.629 8.818 4.716 15.641 10.891 19.422 14.737v69.214h25.017c18.391 0 33.353 14.962 33.353 33.354v.375c0 14.691-9.667 27.564-24.056 32.033-27.587 8.568-50.439 26.536-65.692 50.158-16.029-16.455-30.199-38.336-40.795-63.269zm253.086 264.295c-8.466 13.661-13.463 29.106-14.638 45.054h-60.55c-1.175-15.948-6.171-31.393-14.637-45.054-9.756-15.742-23.68-28.419-40.265-36.661l-10.462-5.199h191.278l-10.461 5.199c-16.587 8.242-30.509 20.919-40.265 36.661zm92.484-71.859h-274.795c-14.975-18.116-22.297-41.273-20.268-66.574.653-8.139 2.249-15.985 4.662-23.426h306.006c2.413 7.441 4.009 15.288 4.662 23.426 2.03 25.301-5.292 48.457-20.267 66.574z"/><path d="m241.262 305.61h30v30h-30z"/><path d="m301.262 305.61h30v30h-30z"/><path d="m361.262 305.61h30v30h-30z"/><path d="m181.262 305.61h30v30h-30z"/><path d="m121.262 305.61h30v30h-30z"/></g></svg>