<svg id="Capa_1" enable-background="new 0 0 510.965 510.965" height="512" viewBox="0 0 510.965 510.965" width="512" xmlns="http://www.w3.org/2000/svg"><g id="XMLID_1125_"><path id="XMLID_1171_" d="m510.965 312.078-17.215-57.615 17.09-57.196-15.064-62.501-70.272-20.997-41.09 12.839 12.356-41.355-15.064-62.501-70.174-20.968-57.616 17.215-57.613-17.215-57.591 17.206-56.698-17.186-63.858 18.208-18.113 64.966 17.172 57.471-17.215 57.615 17.215 57.613-17.186 57.514 18.183 63.766 63.771 18.182 46.962-14.03-14.932 43.796 18.269 64.065 63.771 18.183 57.523-17.186 57.615 17.215 57.616-17.215 57.414 17.155 66.499-18.029 18.217-63.888-17.186-57.514zm-44.043-42.615 12.733 42.615-12.733 42.613h-81.319l11.263-39.5-13.664-45.729h83.72zm-385.135 96.423-39.301-11.205-11.205-39.293 17.244-57.711-17.215-57.613 17.215-57.615-17.257-57.759 11.273-40.436 39.214-11.181 56.894 17.244 57.653-17.224 57.614 17.215 57.616-17.215 45.052 13.462 9.125 37.86-17.34 58.032 17.215 57.615-17.215 57.613 17.244 57.711-11.169 39.17-41.896 11.358-57.813-17.274-57.616 17.215-57.614-17.215zm114.069 112.014-39.301-11.206-11.119-38.991 14.226-41.727 37.457 11.192 41.456-12.386v80.356zm72.72-12.762v-81.05l43.574 13.02 41.656-11.293v79.323l-42.616 12.733zm199.939 1.433-41.896 11.359-42.813-12.792v-80.447h83.116l12.762 42.711zm-1.593-227.108h-81.799l11.772-39.398-12.551-42.005 41.355-12.922 44.954 13.433 9.125 37.86z"/><path id="XMLID_1180_" d="m80.378 126.526h32.701v30h-32.701z"/><path id="XMLID_1181_" d="m146.857 126.526h32.701v30h-32.701z"/><path id="XMLID_1182_" d="m217.337 126.526h32.701v30h-32.701z"/><path id="XMLID_1183_" d="m183.098 62.193h30.7v30h-30.7z"/><path id="XMLID_1184_" d="m284.817 62.193h30.7v30h-30.7z"/><path id="XMLID_1185_" d="m81.378 62.193h30.701v30h-30.701z"/><path id="XMLID_1186_" d="m183.098 184.476h30.7v30h-30.7z"/><path id="XMLID_1189_" d="m183.098 304.489h30.7v30h-30.7z"/><path id="XMLID_1190_" d="m284.817 304.489h30.7v30h-30.7z"/><path id="XMLID_1191_" d="m81.378 304.489h30.701v30h-30.701z"/><path id="XMLID_1192_" d="m283.817 126.526h32.7v30h-32.7z"/><path id="XMLID_1193_" d="m80.378 241.463h32.701v30h-32.701z"/><path id="XMLID_1194_" d="m146.857 241.463h32.701v30h-32.701z"/><path id="XMLID_1195_" d="m217.337 241.463h32.701v30h-32.701z"/><path id="XMLID_1196_" d="m283.817 241.463h32.7v30h-32.7z"/></g></svg>