<?xml version="1.0" encoding="iso-8859-1"?>
<!-- Generator: Adobe Illustrator 19.0.0, SVG Export Plug-In . SVG Version: 6.00 Build 0)  -->
<svg xmlns="http://www.w3.org/2000/svg" xmlns:xlink="http://www.w3.org/1999/xlink" version="1.1" id="Layer_1" x="0px" y="0px" viewBox="0 0 511.999 511.999" style="enable-background:new 0 0 511.999 511.999;" xml:space="preserve">
<g>
	<g>
		<path d="M511.999,185.506l-22.261-22.261c-38.87,38.87-102.116,38.87-140.985,0c-38.869-38.87-38.87-102.116,0-140.985L326.493,0    c-35.224,35.224-46.186,85.659-32.892,130.354c-44.695-13.294-95.131-2.332-130.355,32.892    c-35.224,35.224-46.186,85.659-32.892,130.354C85.659,280.307,35.224,291.269,0,326.493l22.261,22.261    c38.87-38.87,102.116-38.87,140.985,0c38.869,38.87,38.87,102.116,0,140.985l22.261,22.261    c35.224-35.224,46.186-85.659,32.892-130.354c44.695,13.294,95.131,2.332,130.355-32.892    c35.224-35.224,46.186-85.659,32.892-130.355C426.34,231.692,476.776,220.73,511.999,185.506z M326.493,326.493    c-38.87,38.869-102.116,38.87-140.985,0c-38.87-38.87-38.87-102.116,0-140.985c38.87-38.869,102.116-38.87,140.985,0    C365.362,224.378,365.363,287.623,326.493,326.493z"/>
	</g>
</g>
<g>
	<g>
		
			<rect x="240.251" y="182.542" transform="matrix(0.7071 -0.7071 0.7071 0.7071 -106.0396 255.993)" width="31.481" height="146.913"/>
	</g>
</g>
<g>
	<g>
		
			<rect x="269.945" y="173.854" transform="matrix(0.7071 -0.7071 0.7071 0.7071 -76.3588 268.2982)" width="31.481" height="104.938"/>
	</g>
</g>
<g>
	<g>
		
			<rect x="210.581" y="233.215" transform="matrix(0.7071 -0.7071 0.7071 0.7071 -135.7209 243.7091)" width="31.481" height="104.938"/>
	</g>
</g>
<g>
	<g>
		<rect x="373.823" y="69.957" transform="matrix(0.7071 -0.7071 0.7071 0.7071 27.5321 311.32)" width="31.481" height="104.938"/>
	</g>
</g>
<g>
	<g>
		
			<rect x="106.691" y="337.101" transform="matrix(0.7071 -0.7071 0.7071 0.7071 -239.6083 200.6744)" width="31.481" height="104.938"/>
	</g>
</g>
<g>
</g>
<g>
</g>
<g>
</g>
<g>
</g>
<g>
</g>
<g>
</g>
<g>
</g>
<g>
</g>
<g>
</g>
<g>
</g>
<g>
</g>
<g>
</g>
<g>
</g>
<g>
</g>
<g>
</g>
</svg>
