<?xml version="1.0" encoding="iso-8859-1"?>
<!-- Generator: Adobe Illustrator 19.0.0, SVG Export Plug-In . SVG Version: 6.00 Build 0)  -->
<svg xmlns="http://www.w3.org/2000/svg" xmlns:xlink="http://www.w3.org/1999/xlink" version="1.1" id="Layer_1" x="0px" y="0px" viewBox="0 0 511.999 511.999" style="enable-background:new 0 0 511.999 511.999;" xml:space="preserve">
<g>
	<g>
		<path d="M300.658,101.169c-26.643-26.644-62.066-41.316-99.745-41.316c-37.678,0-73.101,14.672-99.744,41.316    c-26.643,26.643-41.316,62.066-41.316,99.744s14.673,73.101,41.316,99.744c26.643,26.643,62.066,41.316,99.744,41.316    s73.102-14.673,99.744-41.316c26.643-26.643,41.316-62.066,41.316-99.744C341.973,163.234,327.3,127.811,300.658,101.169z     M278.88,278.879c-42.991,42.993-112.943,42.992-155.935,0c-20.826-20.826-32.295-48.515-32.295-77.967    c0-29.452,11.469-57.141,32.295-77.967c20.826-20.826,48.515-32.295,77.967-32.295s57.142,11.469,77.967,32.295    C321.871,165.937,321.871,235.889,278.88,278.879z"/>
	</g>
</g>
<g>
	<g>
		<path d="M376.608,298.598c42.475-76.463,31.289-174.968-33.562-239.819c-78.372-78.373-205.894-78.372-284.267,0    s-78.372,205.893,0,284.266c39.186,39.187,90.66,58.779,142.133,58.779c33.714,0,67.425-8.407,97.686-25.216l135.391,135.391    l78.01-78.009L376.608,298.598z M80.557,321.269c-66.364-66.364-66.364-174.346,0-240.712    c33.182-33.181,76.769-49.772,120.356-49.772c43.587,0,87.173,16.591,120.355,49.772c66.364,66.364,66.364,174.346,0,240.712    C254.904,387.633,146.922,387.632,80.557,321.269z M324.771,359.227c6.335-4.963,12.443-10.35,18.274-16.181    c5.831-5.831,11.217-11.939,16.181-18.274L468.444,433.99l-34.454,34.454L324.771,359.227z"/>
	</g>
</g>
<g>
</g>
<g>
</g>
<g>
</g>
<g>
</g>
<g>
</g>
<g>
</g>
<g>
</g>
<g>
</g>
<g>
</g>
<g>
</g>
<g>
</g>
<g>
</g>
<g>
</g>
<g>
</g>
<g>
</g>
</svg>
