<svg id="Capa_1" enable-background="new 0 0 512 512" height="512" viewBox="0 0 512 512" width="512" xmlns="http://www.w3.org/2000/svg"><g><path d="m467 136.654c-24.813 0-45 20.187-45 45v15h-121v-105c0-24.813-20.187-45-45-45s-45 20.187-45 45v15h-121v-15c0-24.813-20.187-45-45-45s-45 20.187-45 45v373.692h90v-268.692h121v268.692h90v-178.692h121v178.692h90v-283.692c0-24.813-20.187-45-45-45zm-407 298.692h-30v-343.692c0-8.271 6.729-15 15-15s15 6.729 15 15zm30-268.692v-30h121v30zm181 268.692h-30v-343.692c0-8.271 6.729-15 15-15s15 6.729 15 15zm30-178.692v-30h121v30zm181 178.692h-30v-253.692c0-8.271 6.729-15 15-15s15 6.729 15 15z"/></g></svg>