<?xml version="1.0" encoding="iso-8859-1"?>
<!-- Generator: Adobe Illustrator 19.0.0, SVG Export Plug-In . SVG Version: 6.00 Build 0)  -->
<svg xmlns="http://www.w3.org/2000/svg" xmlns:xlink="http://www.w3.org/1999/xlink" version="1.1" id="Layer_1" x="0px" y="0px" viewBox="0 0 512 512" style="enable-background:new 0 0 512 512;" xml:space="preserve">
<g>
	<g>
		<path d="M109.322,0v512h293.357V0H109.322z M372.261,481.583H139.739V30.417h232.522V481.583z"/>
	</g>
</g>
<g>
	<g>
		<path d="M151.764,42.441v201.391h208.473V42.441H151.764z M329.819,213.415H182.181V72.858h147.638V213.415z"/>
	</g>
</g>
<g>
	<g>
		<path d="M255.999,261.085c-57.476,0-104.237,46.759-104.237,104.236c0,57.476,46.76,104.237,104.237,104.237    s104.237-46.759,104.237-104.236C360.236,307.846,313.476,261.085,255.999,261.085z M255.999,439.142    c-40.704,0-73.82-33.115-73.82-73.82c0-40.704,33.115-73.82,73.82-73.82s73.82,33.115,73.82,73.82    C329.819,406.026,296.704,439.142,255.999,439.142z"/>
	</g>
</g>
<g>
	<g>
		<path d="M255.999,306.711v30.417c15.546,0,28.194,12.647,28.194,28.194h30.417C314.61,333.004,288.318,306.711,255.999,306.711z"/>
	</g>
</g>
<g>
</g>
<g>
</g>
<g>
</g>
<g>
</g>
<g>
</g>
<g>
</g>
<g>
</g>
<g>
</g>
<g>
</g>
<g>
</g>
<g>
</g>
<g>
</g>
<g>
</g>
<g>
</g>
<g>
</g>
</svg>
