<svg id="Capa_1" enable-background="new 0 0 505.934 505.934" height="512" viewBox="0 0 505.934 505.934" width="512" xmlns="http://www.w3.org/2000/svg"><g><path d="m367.439 24.86c-37.383 15.484-71.025 37.521-100.107 65.521-41.098-30.818-99.827-27.558-137.186 9.799l-63.641 63.64 63.641 63.639-21.213 21.213 39.623 39.624c-8.03 2.587-15.583 7.046-21.946 13.409-5.416 5.416-13.787 17.016-23.892 55.039-6.355 23.921-9.157 41.133-12.449 59.084 25.812-4.734 94.145-16.363 114.122-36.34 6.364-6.364 10.823-13.917 13.41-21.947l39.623 39.623 21.214-21.213 63.639 63.641 63.641-63.641c37.355-37.357 40.617-96.087 9.799-137.186 28-29.082 50.037-62.725 65.521-100.107 29.596-71.453 23.751-128.967 24.531-138.33 0 0-66.896-5.057-138.33 24.532zm-184.26 333.416c-5.669 5.668-29.777 13.543-54.83 19.473 5.931-25.055 13.806-49.16 19.474-54.828 9.743-9.746 25.606-9.752 35.354-.002 9.749 9.747 9.749 25.608.002 35.357zm-74.248-194.456 42.427-42.428c25.61-25.607 65.288-28.789 94.394-9.541l-94.394 94.395zm42.427 84.852 132.739-132.738c19.199-19.199 40.604-35.395 63.638-48.358-.434 50.4 40.597 91.238 90.795 90.773-12.966 23.039-29.163 44.448-48.366 63.651l-132.74 132.738zm233.346 106.066-42.428 42.428-42.426-42.428 94.395-94.393c19.247 29.104 16.069 68.784-9.541 94.393zm69.426-228.668c-45.09 12.828-86.954-28.927-74.104-74.104 30.055-12.295 62.188-19.533 95.347-21.244-1.71 33.161-8.948 65.294-21.243 95.348z"/><path d="m321.064 140.033c-24.814 0-45 20.185-45 45 0 24.812 20.186 45 45 45 24.812 0 45-20.188 45-45 0-24.814-20.188-45-45-45zm0 60c-8.272 0-15-6.729-15-15 0-8.272 6.728-15 15-15 8.271 0 15 6.728 15 15s-6.729 15-15 15z"/><path d="m1.45 337.828h63.64v30h-63.64z" transform="matrix(.707 -.707 .707 .707 -239.742 126.866)"/><path d="m1.45 457.828h63.64v30h-63.64z" transform="matrix(.707 -.707 .707 .707 -324.595 162.013)"/><path d="m121.45 457.828h63.64v29.999h-63.64z" transform="matrix(.707 -.707 .707 .707 -289.443 246.855)"/></g></svg>