<svg id="Capa_1" enable-background="new 0 0 510 510" height="512" viewBox="0 0 510 510" width="512" xmlns="http://www.w3.org/2000/svg"><g><path d="m424.635 225h-60c0-7.599 0-22.373 0-30h-.102c-2.09-41.709-36.68-75-78.898-75h-26v-32.58c17.459-6.192 30-22.865 30-42.42 0-24.813-20.186-45-45-45s-45 20.187-45 45c0 19.555 12.541 36.228 30 42.42v32.58h-26c-42.219 0-76.809 33.291-78.898 75h-39.372l39.27 78.541v236.459h240v-90h60zm-180-195c8.271 0 15 6.729 15 15s-6.729 15-15 15-15-6.729-15-15 6.729-15 15-15zm-110.729 195h95.73v110.005c-14.338-4.17-31.745-4.549-52.077-1.101-8.411 1.426-16.259 3.346-22.923 5.242v-72.687zm125.729 0h75v124.449c-20.091 6.493-55.923 14.286-75 3.095zm-56-75h82c25.671 0 46.796 19.846 48.838 45h-179.676c2.042-25.154 23.167-45 48.838-45zm-49 330v-109.53c19.962-6.593 55.71-14.512 75-3.04v52.57h-30v30h90v-30h-30v-35.131c23.267 6.641 51.673 2.369 75-4.148v99.279zm240-90h-30v-135h30z"/></g></svg>