<svg id="Capa_1" enable-background="new 0 0 511 511" height="512" viewBox="0 0 511 511" width="512" xmlns="http://www.w3.org/2000/svg"><g id="XMLID_427_"><path id="XMLID_450_" d="m384.518 323.327c17.169-22.258 26.742-49.826 26.742-78.241 0-70.553-57.399-127.952-127.952-127.952-30.698 0-60.385 11.037-83.592 31.078-20.144 17.395-34.318 40.578-40.637 66.146-60.211 14.558-105.244 68.438-106.248 132.824-30.909 9.448-52.831 38.121-52.831 71.565 0 41.277 33.582 74.859 74.859 74.859h257.594c51.344 0 93.116-41.771 93.116-93.116-.001-32.072-16.3-60.409-41.051-77.163zm-101.21-176.193c54.011 0 97.952 43.941 97.952 97.952 0 24.146-9.029 47.496-25.024 65.372-7.595-2.008-15.566-3.083-23.783-3.083-2.731 0-5.459.119-8.175.357-17.945-57.133-71.55-97.259-132.551-97.259-.039 0-.077.001-.116.001 14.026-37.64 49.935-63.34 91.697-63.34zm49.145 316.472h-257.594c-24.735 0-44.859-20.124-44.859-44.859 0-22.896 17.134-42.06 39.855-44.573l14.446-1.599-1.142-14.489c-.229-2.906-.345-5.834-.345-8.7 0-60.055 48.858-108.912 108.913-108.912 51.671 0 96.57 36.699 106.76 87.264l3.114 15.45 15.278-3.874c5.072-1.286 10.312-1.938 15.575-1.938 34.802 0 63.116 28.313 63.116 63.115-.002 34.802-28.315 63.115-63.117 63.115z"/><path id="XMLID_473_" d="m128.269 341.785h30c0-13.209 10.747-23.956 23.956-23.956v-30c-29.751 0-53.956 24.204-53.956 53.956z"/><path id="XMLID_474_" d="m268.308 17.394h30v61.755h-30z"/><path id="XMLID_478_" d="m169.901 43.762h30v61.755h-30z" transform="matrix(.866 -.5 .5 .866 -12.548 102.45)"/><path id="XMLID_479_" d="m97.862 115.801h30v61.755h-30z" transform="matrix(.5 -.866 .866 .5 -70.596 171.079)"/><path id="XMLID_482_" d="m438.755 312.615h30v61.755h-30z" transform="matrix(.5 -.866 .866 .5 -70.597 564.706)"/><path id="XMLID_488_" d="m449.245 230.086h61.755v30h-61.755z"/><path id="XMLID_494_" d="m422.877 131.678h61.755v30h-61.755z" transform="matrix(.866 -.5 .5 .866 -12.547 246.531)"/><path id="XMLID_495_" d="m350.838 59.639h61.755v30h-61.755z" transform="matrix(.5 -.866 .866 .5 126.217 367.893)"/></g></svg>