<svg id="Capa_1" enable-background="new 0 0 512 512" height="512" viewBox="0 0 512 512" width="512" xmlns="http://www.w3.org/2000/svg"><g><path d="m422 76v30c33.084 0 60 26.916 60 60v60h-452v-60c0-33.084 26.916-60 60-60v-30c-49.626 0-90 40.374-90 90v195c0 41.355 33.645 75 75 75h166v-75c0-8.271 6.729-15 15-15s15 6.729 15 15v75h166c41.355 0 75-33.645 75-75 0-6.559 0-138.631 0-195 0-49.626-40.374-90-90-90zm60 285c0 24.813-20.187 45-45 45h-136v-45c0-24.813-20.187-45-45-45s-45 20.187-45 45v45h-136c-24.813 0-45-20.187-45-45v-105h452z"/><path d="m93.574 316h84.853v30h-84.853z" transform="matrix(.707 -.707 .707 .707 -194.219 193.114)"/><path d="m334.574 316h84.853v30h-84.853z" transform="matrix(.707 -.707 .707 .707 -123.632 363.527)"/></g></svg>