<svg id="Capa_1" enable-background="new 0 0 512 512" height="512" viewBox="0 0 512 512" width="512" xmlns="http://www.w3.org/2000/svg"><g><g><path d="m437.02 74.981c-48.353-48.353-112.64-74.981-181.02-74.981s-132.667 26.628-181.02 74.981c-48.352 48.352-74.98 112.639-74.98 181.019s26.628 132.667 74.98 181.019c48.353 48.353 112.64 74.981 181.02 74.981s132.667-26.628 181.02-74.981c48.352-48.352 74.98-112.639 74.98-181.019s-26.628-132.667-74.98-181.019zm-21.213 340.825c-42.687 42.686-99.441 66.194-159.807 66.194s-117.12-23.508-159.807-66.194c-42.685-42.686-66.193-99.439-66.193-159.806s23.508-117.12 66.193-159.806c42.687-42.686 99.441-66.194 159.807-66.194s117.12 23.508 159.807 66.194c42.685 42.686 66.193 99.439 66.193 159.806s-23.508 117.12-66.193 159.806z"/></g><g><path d="m391.722 114.594c-26.028-24.988-62.895-31.689-96.211-17.49-16.607 7.078-30.1 18.362-39.511 32.359-9.411-13.996-22.903-25.281-39.511-32.359-33.316-14.199-70.183-7.499-96.211 17.49-38.871 37.317-60.278 87.536-60.278 141.406s21.407 104.089 60.278 141.406c16.992 16.313 38.597 24.831 60.824 24.831 11.82 0 23.82-2.412 35.387-7.341 16.607-7.078 30.1-18.362 39.511-32.359 9.411 13.996 22.903 25.281 39.511 32.359 11.568 4.931 23.564 7.341 35.387 7.341 22.225 0 43.834-8.52 60.824-24.831 38.871-37.317 60.278-87.536 60.278-141.406s-21.407-104.089-60.278-141.406zm-186.994 272.704c-17.295 7.373-43.104 8.213-63.674-11.533-32.922-31.607-51.054-74.14-51.054-119.765s18.132-88.158 51.054-119.765c12.429-11.932 26.768-16.346 39.988-16.346 8.659 0 16.841 1.895 23.686 4.812 17.535 7.475 36.272 25.78 36.272 54.743v20.728c-8.897-5.189-19.228-8.178-30.25-8.178-33.222 0-60.25 27.028-60.25 60.25s27.028 60.25 60.25 60.25c11.022 0 21.353-2.989 30.25-8.178v28.239c0 28.964-18.737 47.269-36.272 54.743zm36.272-135.053c0 16.68-13.57 30.25-30.25 30.25s-30.25-13.57-30.25-30.25 13.57-30.25 30.25-30.25 30.25 13.57 30.25 30.25zm129.946 123.52c-20.569 19.747-46.379 18.905-63.674 11.533-17.535-7.474-36.272-25.779-36.272-54.742v-28.239c8.897 5.189 19.229 8.178 30.25 8.178 33.222 0 60.25-27.028 60.25-60.25s-27.028-60.25-60.25-60.25c-11.021 0-21.353 2.989-30.25 8.178v-20.728c0-28.962 18.737-47.268 36.272-54.742 6.846-2.918 15.025-4.812 23.686-4.812 13.22 0 27.561 4.416 39.988 16.346 32.922 31.605 51.054 74.138 51.054 119.763s-18.132 88.158-51.054 119.765zm-99.946-123.52c0-16.68 13.57-30.25 30.25-30.25s30.25 13.57 30.25 30.25-13.57 30.25-30.25 30.25-30.25-13.571-30.25-30.25z"/></g></g></svg>