<svg id="Layer_1" enable-background="new 0 0 509.855 509.855" height="512" viewBox="0 0 509.855 509.855" width="512" xmlns="http://www.w3.org/2000/svg"><g id="XMLID_675_"><path id="XMLID_943_" d="m489.906 296.557-53.505-90.144c-2.414-178.875-229.818-275.751-357.904-148.298-40.557 39.61-63.128 93.203-63.554 150.906-.474 64.562 26.512 137.102 74.994 179.312v121.521h255v-75h58.681c17.27 0 31.319-14.045 31.319-31.309v-58.691h28.657c11.567 0 22.146-6.335 27.607-16.533 5.39-10.064 4.884-22.193-1.295-31.764zm-25.153 17.604c-.372.694-.884.694-1.159.694h-58.657v88.691c0 .722-.592 1.309-1.319 1.309h-88.681v75h-195v-105.792l-5.671-4.504c-126.053-108.378-73.406-339.97 110.428-339.679 100.217 1.626 181.749 82.697 181.749 180.722v4.116c.581.979-6.84-11.519 58.247 98.093.152.228.437.654.063 1.35z"/><path id="XMLID_946_" d="m224.937 59.855c-82.71 0-150 67.29-150 150 7.541 198.722 292.489 198.668 300-.002 0-82.708-67.29-149.998-150-149.998zm15 269.065v-29.065h-30v29.065c-54.199-6.789-97.275-49.865-104.065-104.064h29.065v-30h-29.065c6.789-54.199 49.865-97.275 104.065-104.064v29.064h30v-29.065c54.199 6.789 97.275 49.865 104.064 104.064h-29.065v30h29.065c-6.789 54.199-49.865 97.276-104.064 104.065z"/><path id="XMLID_947_" d="m239.937 149.855h-30v75h60v-30h-30z"/></g></svg>