<svg id="Capa_1" enable-background="new 0 0 511.323 511.323" height="512" viewBox="0 0 511.323 511.323" width="512" xmlns="http://www.w3.org/2000/svg"><g><path d="m180.571 273.213h30v30h-30z"/><path d="m300.571 273.213h30v30h-30z"/><path d="m240.571 273.213h30v30h-30z"/><path d="m499.91 309.433c-8.761-14.021-21.81-24.438-38.033-30.454-27.226-73.341-112.358-110.318-191.306-113.57v-43.749c19.142-6.682 33-25.773 33-48.236.801-24.089-31.424-55.427-48-69.313-16.583 13.888-48.811 45.249-48 69.314 0 22.462 13.858 41.554 33 48.235v43.75c-78.903 3.243-164.137 40.257-191.309 113.572-70.718 25.677-63.411 129.594 9.812 145.326l17.145 82.905h358.705l17.145-82.905c51.323-10.074 75.098-71.532 47.841-114.875zm-244.373-264.159c9.727 10.6 18.034 22.55 18.034 28.149 0 11.463-8.075 20.789-18 20.789s-18-9.326-18-20.789c0-4.792 7.024-16.302 17.966-28.149zm-154.887 431.939-10.825-52.348c11.075-2.113 21.567-6.669 30.66-13.338 25.091 19.226 64.966 19.249 90.086.063 25.092 19.164 64.909 19.163 90 0 25.12 19.187 64.996 19.16 90.086-.063 9.095 6.667 19.587 11.224 30.661 13.337l-10.826 52.348h-309.842zm380.297-121.516c-2.169 18.179-15.412 39.672-45.58 40.516-12.793-.021-25.072-5.457-33.71-14.935l-11.282-12.379-11.064 12.574c-8.163 9.276-20.46 14.597-33.739 14.597-13.278.001-25.576-5.32-33.739-14.597l-11.261-12.797-11.261 12.797c-8.163 9.276-20.46 14.597-33.739 14.597-13.278.001-25.576-5.32-33.739-14.597l-11.261-12.797-11.261 12.797c-8.163 9.276-20.46 14.597-33.739 14.597-13.278.001-25.576-5.32-33.739-14.597l-11.065-12.575-11.282 12.382c-8.637 9.478-20.913 14.914-33.709 14.933-54.769-1.422-63.679-76.537-10.894-90.756.001 0 7.94-2.139 7.94-2.139 36.956-144.609 328.511-144.657 365.504.004l7.939 2.136c29.089 7.825 36.864 31.955 34.681 50.239z"/></g></svg>