<svg id="Capa_1" enable-background="new 0 0 512 512" height="512" viewBox="0 0 512 512" width="512" xmlns="http://www.w3.org/2000/svg"><g><path d="m175.035 173.363 113.167 91.785 18.897-23.3-108.251-87.799 108.251-87.799-18.897-23.3-113.167 91.785-27.848-22.587c2.445-5.542 3.814-11.663 3.814-18.1 0-24.813-20.187-45-45-45s-45 20.187-45 45 20.187 45 45 45c7.409 0 14.398-1.811 20.568-4.996l24.654 19.996-24.654 19.996c-6.17-3.185-13.159-4.996-20.568-4.996-24.813 0-45 20.187-45 45s20.187 45 45 45 45-20.187 45-45c0-6.437-1.368-12.557-3.814-18.1zm-84.035-79.314c0-8.271 6.729-15 15-15s15 6.729 15 15c0 8.113-6.644 15-15 15-8.271 0-15-6.729-15-15zm15 135c-8.271 0-15-6.729-15-15s6.729-15 15-15c9.18 0 15 7.813 15 15 0 8.271-6.729 15-15 15z"/><path d="m30 169.049h31v-30c-21.373 0-39.598 0-61 0v60h30z"/><path d="m271 139.049h60v30h-60z"/><path d="m361 139.049h60v30h-60z"/><path d="m451 139.049v30h31v30h30c0-7.259 0-52.693 0-60-21.407 0-39.627 0-61 0z"/><path d="m0 319.049h30v60h-30z"/><path d="m30 409.049h-30v60h61v-30h-31z"/><path d="m91 439.049h60v30h-60z"/><path d="m181 439.049h60v30h-60z"/><path d="m271 439.049h60v30h-60z"/><path d="m361 439.049h60v30h-60z"/><path d="m482 439.049h-31v30h61c0-7.259 0-52.693 0-60h-30z"/><path d="m482 319.049h30v60h-30z"/><path d="m0 229.049h30v60h-30z"/><path d="m482 229.049h30v60h-30z"/></g></svg>