<svg id="Capa_1" enable-background="new 0 0 511.875 511.875" height="512" viewBox="0 0 511.875 511.875" width="512" xmlns="http://www.w3.org/2000/svg"><path d="m511.875 266.835c0-41.493-33.757-75.25-75.25-75.25s-75.25 33.757-75.25 75.25v15h74.667v-30h-42.111c6.201-17.601 22.999-30.25 42.694-30.25 24.951 0 45.25 20.299 45.25 45.25s-20.299 45.25-45.25 45.25h-165.687v-22.041c39.712-7.108 69.956-41.878 69.956-83.603v-71.991h-46.963l-37.993-37.994-37.993 37.994h-46.963v71.991c0 41.725 30.244 76.495 69.956 83.603v22.041h-165.688c-24.951 0-45.25-20.299-45.25-45.25s20.299-45.25 45.25-45.25c19.695 0 36.493 12.649 42.694 30.25h-42.111v30h74.667v-15c0-41.493-33.757-75.25-75.25-75.25s-75.25 33.757-75.25 75.25c0 40.221 31.719 73.171 71.457 75.153-4.806 8.506-7.564 18.316-7.564 28.763v44.667h44.666c17.329 0 32.921-7.558 43.67-19.544 10.749 11.986 26.342 19.544 43.67 19.544h44.667v-44.667c0-10.408-2.736-20.183-7.509-28.667h45.76c-4.773 8.484-7.509 18.259-7.509 28.667v44.667h44.667c17.329 0 32.921-7.558 43.67-19.544 10.749 11.986 26.342 19.544 43.67 19.544h44.666v-44.667c0-10.447-2.758-20.257-7.564-28.763 39.739-1.982 71.458-34.932 71.458-75.153zm-310.894-60.394v-41.991h29.389l25.567-25.567 25.567 25.567h29.389v41.991c0 30.303-24.653 54.956-54.956 54.956s-54.956-24.653-54.956-54.956zm-63.755 150.311c0 15.807-12.86 28.667-28.667 28.667h-14.666v-14.667c0-15.807 12.859-28.667 28.666-28.667h14.667zm73.34 14v14.667h-14.667c-15.807 0-28.667-12.86-28.667-28.667v-14.667h14.667c15.807 0 28.667 12.86 28.667 28.667zm134.077-14c0 15.807-12.86 28.667-28.667 28.667h-14.667v-14.667c0-15.807 12.86-28.667 28.667-28.667h14.667zm73.339 28.666h-14.666c-15.807 0-28.667-12.86-28.667-28.667v-14.667h14.667c15.807 0 28.666 12.86 28.666 28.667z"/></svg>