<svg id="Capa_1" enable-background="new 0 0 512 512" height="512" viewBox="0 0 512 512" width="512" xmlns="http://www.w3.org/2000/svg"><g><path d="m272 142.5h30v30h-30z"/><path d="m362 142.5h30v30h-30z"/><path d="m459.5 105h-8.436c-7.404-59.115-57.975-105-119.064-105s-111.66 45.885-119.064 105h-8.436c-28.948 0-52.5 23.551-52.5 52.5 0 16.952 8.084 32.044 20.591 41.649l-17.423 6.149c-56.923 20.091-95.168 74.146-95.168 134.511v67.191h-7.5c-28.948 0-52.5 23.551-52.5 52.5v52.5h264.5c28.948 0 52.5-23.551 52.5-52.5v-73.445c4.465.562 9.517.945 15 .945s10.535-.383 15-.945v73.445c0 28.949 23.552 52.5 52.5 52.5s52.5-23.551 52.5-52.5v-150c0-25.164-7.066-49.126-20.514-69.966 6.115-9.046 11.022-18.969 14.506-29.534h13.508c28.948 0 52.5-23.551 52.5-52.5s-23.552-52.5-52.5-52.5zm-217.5 15c0-49.626 40.374-90 90-90 8.271 0 15 6.729 15 15s-6.729 15-15 15c-4.007 0-7.773-1.56-10.606-4.393l-21.213 21.213c8.499 8.499 19.799 13.18 31.819 13.18 24.813 0 45-20.187 45-45 0-1.003-.045-1.996-.11-2.983 26.941 15.568 45.11 44.693 45.11 77.983v52.5c0 49.626-40.374 90-90 90s-90-40.374-90-90zm-37.5 15h7.5v37.5c0 2.519.087 5.019.241 7.5h-7.741c-12.406 0-22.5-10.093-22.5-22.5s10.094-22.5 22.5-22.5zm12.576 347h-40.152c3.251-6.824 5.076-14.452 5.076-22.5v-47.5h30v47.5c0 8.048 1.825 15.676 5.076 22.5zm47.424 0c-12.406 0-22.5-10.093-22.5-22.5v-7.5h45v7.5c0 12.407-10.094 22.5-22.5 22.5zm67.5-125c-14.344 0-24.905-3.609-24.943-3.622l-20.057-7.182v75.804h-45v-40h-90v77.5c0 12.407-10.094 22.5-22.5 22.5h-99.5v-22.5c0-12.407 10.094-22.5 22.5-22.5h37.5v-97.191c0-47.669 30.201-90.355 75.152-106.22l54.397-19.199c17.032 45.572 61.011 78.11 112.451 78.11 30.021 0 57.501-11.082 78.567-29.368 7.51 14.184 11.433 29.939 11.433 46.368v112.5h-45v-54.5l.067-21.328-20.058 7.183c-.104.036-10.665 3.645-25.009 3.645zm67.5 125c-12.406 0-22.5-10.093-22.5-22.5v-7.5h45v7.5c0 12.407-10.094 22.5-22.5 22.5zm60-302h-7.741c.154-2.481.241-4.981.241-7.5v-37.5h7.5c12.406 0 22.5 10.093 22.5 22.5s-10.094 22.5-22.5 22.5z"/></g></svg>