<svg id="Capa_1" enable-background="new 0 0 510 510" height="512" viewBox="0 0 510 510" width="512" xmlns="http://www.w3.org/2000/svg"><g><path d="m213.606 280.606 25.607-25.606h31.574l25.607 25.606 21.212-21.212-19.393-19.394 19.393-19.394-21.212-21.212-25.607 25.606h-31.574l-25.607-25.606-21.212 21.212 19.393 19.394-19.393 19.394z"/><path d="m0 75v172c0 7.662 2.999 20.229 26.382 49.653 28.804 36.246 77.795 84.308 114.449 112.617 29.526 22.805 41.787 25.73 49.169 25.73h130c7.394 0 19.668-2.946 49.208-25.917 36.679-28.523 85.648-76.892 114.435-113.305 23.361-29.552 26.357-42.126 26.357-49.778 0-36.727 0-78.002 0-111v-60zm101.557 259.41c-19.513-19.19-37.413-38.657-50.403-54.814-18.92-23.532-20.964-31.828-21.154-32.847v-1.099c84.473 7.206 152.009 74.669 159.329 159.109-9.789-2.888-42.79-26.109-87.772-70.349zm357.291-55.651c-12.991 16.249-30.887 35.83-50.393 55.138-44.968 44.514-77.97 67.912-87.783 70.855 7.324-84.437 74.858-151.897 159.328-159.102v.101c-.189 1.017-2.223 9.332-21.152 33.008zm21.152-63.216c-101.109 7.345-182.111 88.348-189.457 189.457h-71.086c-7.346-101.109-88.348-182.112-189.457-189.457v-50.543h450zm-450-80.543v-30h450v30z"/></g></svg>