<svg id="Capa_1" enable-background="new 0 0 512 512" height="512" viewBox="0 0 512 512" width="512" xmlns="http://www.w3.org/2000/svg"><g><path d="m450.739 61.261c-6.472-34.816-37.076-61.261-73.739-61.261h-377v15c0 41.355 33.645 75 75 75h107.507c5.981 29.341 29.153 52.492 58.493 58.475v91.525h-241v272h512v-377c0-36.663-26.445-67.266-61.261-73.739zm-239.739 13.739v-15h-136c-19.557 0-36.239-12.539-42.43-30h344.43c24.813 0 45 20.187 45 45v15h15c19.557 0 36.239 12.539 42.43 30h-223.43c-24.813 0-45-20.187-45-45zm120.5 75v332h-60.5v-332zm60 150h-30v-30h30zm-30 30h30v152h-30zm30-90h-30v-90h30zm-150.5 30v30h-211v-30zm-211 60h211v152h-30v-122h-151v122h-30zm120.5 60h30.5v92h-30.5zm-30 92h-30.5v-92h30.5zm361.5 0h-60.5v-332h60.5z"/><path d="m75 210h121v-15c0-41.355-33.645-75-75-75h-121v15c0 41.355 33.645 75 75 75zm46-60c19.557 0 36.239 12.539 42.43 30h-88.43c-19.557 0-36.239-12.539-42.43-30z"/></g></svg>