<svg id="Capa_1" enable-background="new 0 0 512 512" height="512" viewBox="0 0 512 512" width="512" xmlns="http://www.w3.org/2000/svg"><g><path d="m389.464 121.157 10.83-38.225-10.127-5.838c-1.456-.84-36.08-20.427-72.442-9.073-14.038 4.382-33.561 5.512-46.725 5.726v-33.403l-15.824.871c-30.302 1.668-40.609-1.446-51.527-4.742-8.74-2.638-18.646-5.629-36.47-5.63-.005 0-.008 0-.013 0-41.403 0-65.094 17.885-66.082 18.646l-8.476 6.529 21.93 65.139h-114.538v360h512v-360zm-25.5 90h13.036c8.271 0 15 6.729 15 15s-6.729 15-15 15h-21.536zm-37.3-114.498c14.107-4.404 28.586-1.301 38.011 1.938l-40.391 142.56h-53.284v-137.399c15.059-.234 38.035-1.596 55.664-7.099zm-159.499-35.816h.012c13.395.001 19.753 1.92 27.802 4.351 10.301 3.109 21.741 6.536 46.021 6.47v169.493h-54.407l-58.173-172.791c7.958-3.489 20.996-7.523 38.745-7.523zm-22.327 150.314 10.1 30h-19.938c-8.271 0-15-6.729-15-15s6.729-15 15-15zm-20.2-60 10.102 30.007c-24.693.141-44.74 20.267-44.74 44.993 0 24.813 20.187 45 45 45h242c24.813 0 45-20.187 45-45s-20.187-45-45-45h-4.536l8.5-30h101.036v150h-452v-150zm-94.638 300v-120h452v120z"/><path d="m422 391.157h30v30h-30z"/><path d="m332 391.157h60v30h-60z"/></g></svg>