<svg id="Layer_1" enable-background="new 0 0 510 510" height="512" viewBox="0 0 510 510" width="512" xmlns="http://www.w3.org/2000/svg"><path id="XMLID_326_" d="m439.542 300h70.458v-90h-204.189l30-90h-65.811v-30h15c24.814 0 45-20.187 45-45v-45h-45c-11.517 0-22.032 4.353-30 11.495-7.968-7.142-18.483-11.495-30-11.495h-45v45c0 24.813 20.186 45 45 45h15v30h-65.811l30 90h-204.189v90h70.458l122.426 81.617-24.596 98.383h-138.288v30h450v-30h-138.288l-24.596-98.383zm-154.542-270h15v15c0 8.271-6.728 15-15 15h-15v-15c0-8.271 6.728-15 15-15zm-60 30c-8.271 0-15-6.729-15-15v-15h15c8.271 0 15 6.729 15 15v15zm-9.189 90h78.377l-20 60h-38.377zm-185.811 90h450v30h-450zm169.212 240 27.904-111.617-102.574-68.383h260.916l-102.574 68.383 27.904 111.617z"/></svg>