<svg id="Layer_1" enable-background="new 0 0 511.999 511.999" height="512" viewBox="0 0 511.999 511.999" width="512" xmlns="http://www.w3.org/2000/svg"><path d="m428.913 481.999c-20.626-36.823-39.068-74.962-55.161-114.043h14.067v-30h-25.889c-8.937-23.733-17.001-47.739-24.195-72.046h16.052v-30h-24.452c-14.909-55.984-24.773-113.37-30.571-170.939h14.212v-30h-41.976v-34.971h-30v34.971h-41.975v30h14.212c-5.798 57.572-15.661 114.952-30.571 170.939h-24.452v30h16.052c-7.194 24.308-15.258 48.314-24.195 72.046h-25.889v30h14.067c-16.094 39.081-34.536 77.22-55.161 114.043h-54.977v30h455.777v-30zm-111.287-179.708c3.893 11.953 7.997 23.844 12.309 35.666h-29.822l-23.456-72.046h29.827c3.503 12.196 7.217 24.326 11.142 36.38zm-49.063 35.665h-25.126l12.563-38.591zm-27.502-251.757 2.361-21.228h25.155c5.769 57.5 15.24 114.926 29.757 170.939h-84.669c12.612-49.194 21.792-99.316 27.396-149.711zm-46.688 216.092c3.925-12.054 7.64-24.184 11.142-36.381h29.827l-23.456 72.046h-29.822c4.312-11.821 8.416-23.713 12.309-35.665zm-23.757 65.665h170.767c15.546 39 33.362 77.13 53.293 114.043h-55.817l-3.166-13.473c-8.734-37.175-41.506-63.139-79.694-63.139s-70.96 25.964-79.694 63.139l-3.166 13.473h-55.817c19.932-36.913 37.748-75.043 53.294-114.043zm137.426 114.043h-104.085c10.076-62.062 94.027-62.028 104.085 0z"/></svg>