<svg id="Capa_1" enable-background="new 0 0 512 512" height="512" viewBox="0 0 512 512" width="512" xmlns="http://www.w3.org/2000/svg"><g><path d="m210 150h92c24.813 0 45-20.187 45-45s-20.187-45-45-45h-92c-24.813 0-45 20.187-45 45s20.187 45 45 45zm0-60h92c8.271 0 15 6.729 15 15s-6.729 15-15 15h-92c-8.271 0-15-6.729-15-15s6.729-15 15-15z"/><path d="m451 364.58v-97.16c17.459-6.192 30-22.865 30-42.42s-12.541-36.228-30-42.42v-182.58h-390v182.58c-17.459 6.192-30 22.865-30 42.42s12.541 36.228 30 42.42v97.16c-17.459 6.192-30 22.865-30 42.42s12.541 36.228 30 42.42v62.58h390v-62.58c17.459-6.192 30-22.865 30-42.42s-12.541-36.228-30-42.42zm-30-94.58v92h-330v-92zm0-240v150h-330v-150zm-345 180h360c8.271 0 15 6.729 15 15s-6.729 15-15 15h-360c-8.271 0-15-6.729-15-15s6.729-15 15-15zm15 272v-30h330v30zm345-60h-360c-8.271 0-15-6.729-15-15s6.729-15 15-15h360c8.271 0 15 6.729 15 15s-6.729 15-15 15z"/></g></svg>