<svg id="Capa_1" enable-background="new 0 0 512.001 512.001" height="512" viewBox="0 0 512.001 512.001" width="512" xmlns="http://www.w3.org/2000/svg"><g><path d="m413.421 190.045c-10.589-.295-20.705 2.794-29.162 8.79-8.576-11.684-22.129-19.458-37.354-19.875-10.729-.302-20.979 2.879-29.505 9.034-8.823-11.571-22.752-19.053-38.394-19.053-6.458 0-12.624 1.275-18.259 3.586v-123.576c0-26.271-21.045-48.222-46.912-48.931-13.174-.371-25.58 4.487-34.996 13.65-9.42 9.165-14.607 21.449-14.607 34.589v195.261h-.735c-24.813 0-45 20.187-45 45v52.563c0 94.245 76.674 170.918 170.918 170.918s170.918-76.673 170.918-170.918v-102.107c0-26.271-21.045-48.221-46.912-48.931zm16.912 151.038c0 77.702-63.216 140.918-140.918 140.918s-140.918-63.216-140.918-140.918v-52.563c0-8.271 6.729-15 15-15h30.735v-225.261c0-4.972 1.963-9.62 5.527-13.088 3.563-3.467 8.268-5.296 13.254-5.163 9.778.269 17.734 8.766 17.734 18.943v168.248h30c0-10.067 8.19-18.258 18.259-18.258 10.067 0 18.258 8.19 18.258 18.313l.037 10 30-.056c0-4.972 1.963-9.62 5.528-13.088 3.563-3.466 8.256-5.283 13.253-5.163 9.779.269 17.734 8.766 17.734 18.943v10.394h30c0-4.972 1.963-9.619 5.528-13.088 3.562-3.466 8.272-5.285 13.253-5.163 9.778.269 17.734 8.766 17.734 18.943v102.107z"/><path d="m293.723 14.667h77.385v30.001h-77.385z" transform="matrix(.922 -.388 .388 .922 14.495 131.189)"/><path d="m317.415 76.043h30.001v77.385h-30.001z" transform="matrix(.388 -.922 .922 .388 97.784 376.675)"/><path d="m54.458 99.735h77.385v30.001h-77.385z" transform="matrix(.922 -.388 .388 .922 -37.195 45.085)"/><path d="m78.15-9.025h30.001v77.385h-30.001z" transform="matrix(.388 -.922 .922 .388 29.691 104.032)"/></g></svg>