<?xml version="1.0" encoding="iso-8859-1"?>
<!-- Generator: Adobe Illustrator 19.0.0, SVG Export Plug-In . SVG Version: 6.00 Build 0)  -->
<svg version="1.1" id="Layer_1" xmlns="http://www.w3.org/2000/svg" xmlns:xlink="http://www.w3.org/1999/xlink" x="0px" y="0px"
	 viewBox="0 0 512 512" style="enable-background:new 0 0 512 512;" xml:space="preserve">
<g>
	<g>
		<path d="M487.929,141.84l-80.119,80.118h-21.318v-5.674c0-38.907-30.289-70.854-68.523-73.55
			c7.445-11.516,11.787-25.218,11.787-39.922c0-40.669-33.087-73.757-73.757-73.757c-40.669,0-73.757,33.087-73.757,73.757
			c0,14.704,4.343,28.405,11.787,39.922c-38.234,2.696-68.523,34.643-68.523,73.55v5.674h-21.318L24.071,141.84L0,165.911
			l80.118,80.119v236.915h351.763V246.029L512,165.911L487.929,141.84z M255.999,63.097c21.899,0,39.715,17.816,39.715,39.715
			c0,21.899-17.816,39.715-39.715,39.715s-39.715-17.816-39.715-39.715C216.284,80.913,234.102,63.097,255.999,63.097z
			 M199.263,176.569h113.472c21.899,0,39.715,17.816,39.715,39.715v5.674H159.548v-5.674h0
			C159.548,194.385,177.365,176.569,199.263,176.569z M397.839,448.902H114.16V255.999h11.347h260.985h11.347V448.902z"/>
	</g>
</g>
<g>
</g>
<g>
</g>
<g>
</g>
<g>
</g>
<g>
</g>
<g>
</g>
<g>
</g>
<g>
</g>
<g>
</g>
<g>
</g>
<g>
</g>
<g>
</g>
<g>
</g>
<g>
</g>
<g>
</g>
</svg>
