<svg id="Capa_1" enable-background="new 0 0 512 512" height="512" viewBox="0 0 512 512" width="512" xmlns="http://www.w3.org/2000/svg"><g><path d="m512 53.581h-91.116c-9.268-30.907-37.94-53.496-71.798-53.496h-261.13v53.496h-87.956v396.303h185.276c-6.241 18.594-23.819 32.032-44.487 32.032h-26.275v30h282.279v-30h-26.275c-20.669 0-38.247-13.438-44.487-32.032h185.969zm-30 306.302h-57.956v-276.302h57.956zm-89.037-294.557c-4.394-1.414-9.035-2.158-13.803-2.158h-19.766v-17.66c0-5.151-.871-10.1-2.454-14.722 17.862 3.167 32.109 16.921 36.023 34.54zm-77.004-35.242c7.579 1.061 13.435 7.564 13.435 15.424v47.659h49.766c5.095 0 8.467 2.335 10.398 4.294 2.955 2.997 4.548 7.105 4.484 11.567l.002 250.854h-276.088v-329.798zm-228.003 53.497v276.303h-57.956v-276.303zm221.669 398.335h-107.944c7.142-9.246 12.231-20.148 14.572-32.032h78.8c2.341 11.883 7.43 22.785 14.572 32.032zm-279.625-62.033v-30h452v30z"/><path d="m256 237.658c42.612 0 77.28-34.668 77.28-77.28s-34.668-77.28-77.28-77.28-77.28 34.668-77.28 77.28 34.668 77.28 77.28 77.28zm44.827-92.281h-29.827v-29.827c14.021 4.705 25.123 15.807 29.827 29.827zm-59.827-29.826v59.827h59.827c-6.287 18.738-24 32.28-44.827 32.28-26.07 0-47.28-21.21-47.28-47.28 0-20.828 13.543-38.541 32.28-44.827z"/><path d="m159.086 289.883h81.914v30h-81.914z"/><path d="m271 289.883h81.914v30h-81.914z"/></g></svg>