<svg id="Capa_1" enable-background="new 0 0 512.213 512.213" height="512" viewBox="0 0 512.213 512.213" width="512" xmlns="http://www.w3.org/2000/svg"><g><path d="m256.106 0c-94.62 0-192.491 72.303-192.491 193.298 0 53.161 30.862 121.429 91.729 202.907 44.508 59.58 88.313 103.559 90.157 105.401l10.606 10.606 10.606-10.606c1.843-1.843 45.649-45.821 90.157-105.401 60.867-81.479 91.729-149.746 91.729-202.907-.001-120.995-97.872-193.298-192.493-193.298zm76.951 377.954c-30.47 40.822-61.271 74.776-76.951 91.414-15.68-16.639-46.481-50.592-76.951-91.414-55.961-74.977-85.541-138.83-85.541-184.656 0-60.815 28.088-99.012 51.65-120.346 30.149-27.297 70.549-42.952 110.842-42.952s80.694 15.655 110.842 42.952c23.562 21.334 51.65 59.53 51.65 120.346 0 45.826-29.579 109.68-85.541 184.656z"/><path d="m256.106 60c-72.509 0-131.5 58.99-131.5 131.5s58.991 131.5 131.5 131.5 131.5-58.99 131.5-131.5-58.99-131.5-131.5-131.5zm0 30c36.206 0 68.039 19.059 86.009 47.667h-172.017c17.97-28.608 49.803-47.667 86.008-47.667zm101.5 101.5c0 8.206-.986 16.186-2.833 23.833h-197.333c-1.847-7.647-2.833-15.627-2.833-23.833s.986-16.186 2.833-23.833h197.333c1.847 7.647 2.833 15.627 2.833 23.833zm-101.5 101.5c-36.206 0-68.039-19.059-86.009-47.667h172.018c-17.97 28.608-49.803 47.667-86.009 47.667z"/></g></svg>