<?xml version="1.0" encoding="iso-8859-1"?>
<!-- Generator: Adobe Illustrator 19.0.0, SVG Export Plug-In . SVG Version: 6.00 Build 0)  -->
<svg xmlns="http://www.w3.org/2000/svg" xmlns:xlink="http://www.w3.org/1999/xlink" version="1.1" id="Layer_1" x="0px" y="0px" viewBox="0 0 512 512" style="enable-background:new 0 0 512 512;" xml:space="preserve">
<g>
	<g>
		<path d="M413.207,299.024l9.12-60.175l27.991-54.043l-27.992-54.043l-9.12-60.173l-54.411-27.27L316.048,0L256,9.921L195.952,0    l-42.748,43.321L98.795,70.59l-9.12,60.173l-27.992,54.043l27.991,54.043l9.12,60.175l16.113,8.074L63.464,458.822l99.455-35.449    L220.305,512l35.694-105.277L291.695,512l57.387-88.627l99.455,35.449l-51.443-151.724L413.207,299.024z M211.73,443.122    l-36.431-56.262l-63.137,22.503l30.036-88.587l11.007,5.516l42.748,43.321l43.117-7.123L211.73,443.122z M206.475,337.227    l-35.256-35.73l-44.875-22.49l-7.522-49.629l-23.086-44.572l23.086-44.572l7.522-49.629l44.875-22.49l35.256-35.73L256,40.567    l49.524-8.182l35.256,35.73l44.875,22.49l7.522,49.629l23.086,44.572l-23.086,44.572l-7.522,49.629l-44.875,22.49l-35.256,35.73    L256,329.044L206.475,337.227z M399.838,409.363l-63.137-22.503l-36.432,56.262l-27.339-80.633l43.117,7.124l42.748-43.321    l11.006-5.516L399.838,409.363z"/>
	</g>
</g>
<g>
	<g>
		<polygon points="237.605,115.029 237.605,283.794 274.395,283.794 274.395,71.985   "/>
	</g>
</g>
<g>
</g>
<g>
</g>
<g>
</g>
<g>
</g>
<g>
</g>
<g>
</g>
<g>
</g>
<g>
</g>
<g>
</g>
<g>
</g>
<g>
</g>
<g>
</g>
<g>
</g>
<g>
</g>
<g>
</g>
</svg>
