<svg id="Capa_1" enable-background="new 0 0 512.001 512.001" height="512" viewBox="0 0 512.001 512.001" width="512" xmlns="http://www.w3.org/2000/svg"><g><path d="m60.999 428.622c0-6.812.222-13.703.66-20.483l-29.938-1.935c-.479 7.421-.723 14.964-.723 22.418.096 2.728-.633 19.153 3.038 40.878l29.58-4.999c-3.243-19.196-2.52-33.037-2.617-35.879z"/><path d="m399.554 61.814h60v30h-60z" transform="matrix(.111 -.994 .994 .111 305.465 495.168)"/><path d="m82.138 178.391h29.999v60h-29.999z" transform="matrix(.994 -.112 .112 .994 -22.738 12.196)"/><path d="m386.214 181.071h60v30h-60z" transform="matrix(.111 -.994 .994 .111 175.091 587.91)"/><path d="m68.694 59.147h29.999v60h-29.999z" transform="matrix(.994 -.112 .112 .994 -9.461 9.939)"/><path d="m41.425 344.314 29.09 7.331c4.651-18.458 11.038-36.603 18.981-53.93l-27.271-12.502c-8.704 18.988-15.702 38.872-20.8 59.101z"/><path d="m479.2 393.308-29.844 3.054c1.09 10.654 1.643 21.507 1.643 32.26-.058 2.93.299 11.857-1.053 24.52l29.83 3.186c1.553-14.542 1.166-24.935 1.223-27.706 0-11.768-.606-23.65-1.799-35.314z"/><path d="m444.175 273.55-26.787 13.508c8.589 17.031 15.651 34.925 20.993 53.188l28.793-8.422c-5.852-20.011-13.59-39.617-22.999-58.274z"/><path d="m366.988 234.889c26.999-246.432 25.688-234.467 25.734-234.888h-273.447c1.13 10.374 24.645 224.948 25.734 234.888 3.067 12.274.803 25.35-6.214 35.875-31.27 46.902-47.797 101.49-47.797 157.86.284 2.644-2.519 36.88 16.584 75.084l4.146 8.292h129.271v-82.98c5.701-5.109 10.748-10.933 15-17.329 4.252 6.396 9.299 12.22 15 17.329v82.98h129.271l4.146-8.292c19.039-38.076 16.315-72.575 16.584-75.084 0-56.371-16.527-110.958-47.797-157.86-7.018-10.525-9.283-23.601-6.215-35.875zm14.369 247.112h-80.358v-35.148c9.388 3.329 19.485 5.148 30 5.148v-30c-33.084 0-60-26.916-60-60v-45h-30v45c0 33.084-26.916 60-60 60v30c10.515 0 20.612-1.819 30-5.148v35.148h-80.359c-11.485-27.852-9.392-50.508-9.642-53.376 0-50.428 14.785-99.261 42.758-141.219 11.496-17.243 15.34-38.591 10.611-58.741l-21.646-198.664h88.277v212h30v-212h88.277l-21.646 198.664c-4.729 20.15-.885 41.498 10.611 58.741 27.973 41.958 42.758 90.791 42.758 141.219-.244 2.81 1.827 25.565-9.641 53.376z"/></g></svg>