<svg id="Capa_1" enable-background="new 0 0 512 512" height="512" viewBox="0 0 512 512" width="512" xmlns="http://www.w3.org/2000/svg"><g><path d="m163.181 164.18 21.213 21.213c5.861-5.861 15.35-5.863 21.213 0l21.213-21.213c-8.5-8.499-19.8-13.18-31.82-13.18s-23.32 4.681-31.819 13.18z"/><path d="m285.181 164.18 21.213 21.213c5.861-5.861 15.35-5.863 21.213 0l21.213-21.213c-8.5-8.499-19.8-13.18-31.82-13.18s-23.32 4.681-31.819 13.18z"/><path d="m480.474 211c-6.068-29.76-29.799-53.173-59.735-58.739-6.472-34.816-37.076-61.261-73.739-61.261h-30.28c-14.103-18.696-36.628-30-60.72-30s-46.617 11.304-60.72 30h-30.28c-36.663 0-67.267 26.445-73.739 61.261-29.937 5.566-53.667 28.979-59.735 58.739h-31.526v15c0 99.149 49.485 138.271 85.618 166.836 21.958 17.36 34.382 27.923 34.382 43.164v15h272v-15c0-15.241 12.424-25.804 34.382-43.164 36.133-28.565 85.618-67.687 85.618-166.836v-15zm-375.474-30h15v-15c0-24.813 20.187-45 45-45h46.963l4.33-7.5c7.892-13.668 23.478-22.5 39.707-22.5s31.815 8.832 39.707 22.5l4.33 7.5h46.963c24.813 0 45 20.187 45 45v15h15c19.555 0 36.228 12.542 42.42 30h-386.84c6.192-17.458 22.865-30 42.42-30zm302.776 188.302c-19.393 15.332-37.899 29.962-43.819 51.698h-215.914c-5.92-21.736-24.427-36.366-43.819-51.698-32.655-25.816-69.399-54.859-73.787-128.302h451.127c-4.389 73.443-41.133 102.486-73.788 128.302z"/></g></svg>