<svg id="Capa_1" enable-background="new 0 0 510 510" height="512" viewBox="0 0 510 510" width="512" xmlns="http://www.w3.org/2000/svg"><g><path d="m377.791 420c4.031-10.502 12.201-19.309 23.011-24.141 39.598-17.7 64.198-58.62 64.198-106.792v-64.067h-31.875c-2.754-10.798-8.457-20.569-16.548-28.295 9.547-32.597-10.264-66.949-43.294-74.988-3.659-15.036-12.995-28.062-26.416-36.459 8.289-12.388 13.133-27.267 13.133-43.258v-42h-42c-25.855 0-48.801 12.655-63 32.086-14.199-19.431-37.145-32.086-63-32.086h-42v42c0 15.991 4.844 30.869 13.132 43.257-13.42 8.397-22.757 21.424-26.415 36.459-33.002 8.032-52.85 42.364-43.294 74.988-8.091 7.726-13.794 17.497-16.548 28.295h-31.875v64.067c0 48.172 24.6 89.092 64.198 106.793 10.81 4.831 18.98 13.639 23.011 24.141h-132.209v15c0 41.355 33.645 75 75 75h360c41.355 0 75-33.645 75-75v-15zm-59.791-390h12v12c0 24.899-19.091 45.438-43.323 47.769-3.939.382-5.822.169-16.677.231v-12c0-26.467 21.532-48 48-48zm-138 0h12c26.468 0 48 21.533 48 48v12c-6.977-.913-23.427 3.55-40.931-9.729-11.575-8.772-19.069-22.661-19.069-38.271zm-48.418 176.93-6.831-12.537c-5.055-9.276-4.926-20.264.345-29.393s14.723-14.735 25.283-14.996l14.273-.353.352-14.272c.327-13.243 8.979-24.007 20.711-27.837 11.051 7.173 23.869 11.547 37.836 12.323 3.734.21 60.21.366 66.429-.27 12.287-1.236 23.936-5.322 34.306-12.053 11.734 3.831 20.384 14.596 20.711 27.837l.352 14.272 14.273.353c22.513.556 36.379 24.659 25.628 44.389l-6.831 12.537 12.185 7.441c4.406 2.691 7.943 6.355 10.41 10.628h-292.027c5.657-9.799 13.742-12 22.595-18.069zm303.418 48.07v30h-360v-30zm-313.56 113.471c-21.464-9.595-36.836-29.084-43.194-53.471h353.508c-6.358 24.387-21.729 43.876-43.194 53.471-21.74 9.717-37.16 29.078-41.971 51.529h-183.178c-4.811-22.451-20.231-41.812-41.971-51.529zm313.56 111.529h-360c-19.557 0-36.239-12.539-42.43-30h444.859c-6.19 17.461-22.872 30-42.429 30z"/></g></svg>