<?xml version="1.0" encoding="iso-8859-1"?>
<!-- Generator: Adobe Illustrator 19.0.0, SVG Export Plug-In . SVG Version: 6.00 Build 0)  -->
<svg xmlns="http://www.w3.org/2000/svg" xmlns:xlink="http://www.w3.org/1999/xlink" version="1.1" id="Layer_1" x="0px" y="0px" viewBox="0 0 511.999 511.999" style="enable-background:new 0 0 511.999 511.999;" xml:space="preserve">
<g>
	<g>
		<path d="M511.986,210.548c-16.032,21.491-47.988,39.61-89.346,50.91c5.021-23.857,4.058-48.475-3.328-71.483    c-10.705-33.352-33.611-57.857-62.845-67.232c-51.201-16.418-93.694,3.275-111.771,14.172    c-18.078-10.898-60.572-30.591-111.771-14.172c-29.242,9.378-52.15,33.89-62.853,67.254c-9.305,29.006-8.397,60.561,1.831,89.927    c-8.298,3.252-16.587,6.887-24.849,10.927c-19.185,9.382-35.161,19.352-47.041,27.573v37.43    c8.222-6.68,30.324-23.535,60.99-38.429c7.102-3.449,14.987-6.931,23.511-10.205c2.906,4.961,6.099,9.803,9.589,14.495    c11.986,16.11,20.089,33.861,24.082,52.76c1.803,8.535,3.371,17.93,4.659,27.927c9.012,69.911,27.366,106.739,54.552,109.457    c16.453,1.641,29.852-11.295,39.812-38.464c6.612-18.04,11.818-42.159,14.661-67.914c1.9-17.215,6.473-26.705,9.976-31.634    c0.861-1.213,2.026-1.467,2.852-1.467c0.826,0,1.991,0.254,2.853,1.467c3.502,4.93,8.075,14.42,9.974,31.634    c2.843,25.754,8.05,49.873,14.661,67.914c9.396,25.637,21.851,38.605,37.053,38.603c0.909,0,1.83-0.046,2.758-0.139    c27.187-2.719,45.541-39.546,54.552-109.457c1.29-10,2.856-19.396,4.658-27.922c3.99-18.884,12.104-36.653,24.12-52.815    c6.275-8.44,11.606-17.361,15.975-26.599c0.556-0.119,1.118-0.231,1.672-0.352c40.806-8.91,74.731-23.506,99.014-42.243    L511.986,210.548L511.986,210.548z M371.25,303.769c-14.615,19.66-24.505,41.365-29.396,64.513    c-1.966,9.305-3.668,19.496-5.06,30.287c-7.922,61.457-21.74,80.018-26.656,82.995c-2.268-2.246-6.979-9.168-11.934-24.788    c-4.788-15.092-8.647-34.477-10.865-54.583c-2.092-18.954-7.252-34.334-15.336-45.716c-6.269-8.826-16.478-14.094-27.31-14.093    c-10.83,0-21.039,5.269-27.308,14.093c-8.085,11.38-13.244,26.762-15.336,45.717c-2.219,20.106-6.078,39.491-10.865,54.583    c-4.955,15.619-9.667,22.541-11.934,24.788c-4.917-2.978-18.734-21.538-26.656-82.995c-1.391-10.787-3.093-20.978-5.061-30.291    c-4.895-23.168-14.774-44.858-29.366-64.468c-1.48-1.99-2.894-4.012-4.244-6.062c28.442-7.397,61.293-10.788,95.608-4.094    C266.27,304.727,322,307.289,373.004,301.34C372.428,302.153,371.848,302.965,371.25,303.769z M389.649,268.671    c-40.41,6.826-99.698,10.109-174.371-4.461c-36.641-7.151-75.648-5-114.964,6.122c-8.204-23.359-9.004-48.333-1.678-71.17    c7.707-24.028,23.543-41.469,43.448-47.852c10.07-3.23,20.289-4.843,30.599-4.843c11.556,0,23.226,2.028,34.913,6.083    c17.039,5.911,27.756,14.13,27.814,14.174l9.158,7.418l9.364-7.381c0.107-0.082,10.823-8.301,27.863-14.212    c22.114-7.672,44.156-8.089,65.513-1.24c19.898,6.381,35.732,23.816,43.442,47.834    C397.906,221.445,397.317,245.786,389.649,268.671z"/>
	</g>
</g>
<g>
	<g>
		<rect x="229.697" width="29.998" height="62.397"/>
	</g>
</g>
<g>
	<g>
		<rect x="293.429" y="35.855" transform="matrix(0.5027 -0.8645 0.8645 0.5027 117.4811 305.9232)" width="62.399" height="30"/>
	</g>
</g>
<g>
	<g>
		<rect x="154.258" y="19.657" transform="matrix(0.8645 -0.5027 0.5027 0.8645 -2.6251 91.9758)" width="29.999" height="62.399"/>
	</g>
</g>
<g>
</g>
<g>
</g>
<g>
</g>
<g>
</g>
<g>
</g>
<g>
</g>
<g>
</g>
<g>
</g>
<g>
</g>
<g>
</g>
<g>
</g>
<g>
</g>
<g>
</g>
<g>
</g>
<g>
</g>
</svg>
