<svg id="Capa_1" enable-background="new 0 0 512 512" height="512" viewBox="0 0 512 512" width="512" xmlns="http://www.w3.org/2000/svg"><g id="Favourite_1_"><g><path d="m256 512c-140.959 0-256-115.049-256-256 0-140.959 115.049-256 256-256 140.959 0 256 115.049 256 256 0 140.959-115.049 256-256 256zm0-482c-124.617 0-226 101.383-226 226s101.383 226 226 226 226-101.383 226-226-101.383-226-226-226z"/></g><g><path d="m256 451c-107.523 0-195-87.477-195-195s87.477-195 195-195 195 87.477 195 195-87.477 195-195 195zm0-360c-90.981 0-165 74.019-165 165s74.019 165 165 165 165-74.019 165-165-74.019-165-165-165z"/></g><g><path d="m256 380.756c-54.981-46.737-77.463-63.983-95.187-84.628-16.928-19.72-24.813-38.393-24.813-58.764 0-39.295 28.489-71.364 67.5-71.364 20.877 0 39.001 9.514 52.5 27.532 13.499-18.018 31.623-27.532 52.5-27.532 38.983 0 67.5 32.041 67.5 71.364 0 20.371-7.885 39.044-24.813 58.764-17.862 20.806-40.641 38.261-95.187 84.628zm-52.5-184.756c-21.379 0-37.5 17.783-37.5 41.364 0 32.539 35.11 57.579 90 103.943 55.017-46.472 90-71.46 90-103.943 0-23.581-16.121-41.364-37.5-41.364-27.841 0-51.5 46-51.5 46s-25.807-46-53.5-46z"/></g></g></svg>