<svg id="Layer_1" enable-background="new 0 0 512 512" height="512" viewBox="0 0 512 512" width="512" xmlns="http://www.w3.org/2000/svg"><g><path d="m62.061 23.273v93.091h46.545v93.091h279.273v-93.091h29.494l94.627 18.925v-112.016zm77.575 93.091h31.03v62.061h-31.03zm155.152 0v62.061h-31.03v-62.061zm-62.061 62.06h-31.03v-62.061h31.03zm124.122 0h-31.03v-62.061h31.03zm124.121-80.986-60.525-12.105h-32.566-279.273-15.515v-31.03h387.879z"/><path d="m465.719 283.673-32.065-6.413c-8.351-1.672-16.858-.516-24.326 3.15-5.395-6.128-12.74-10.563-21.185-12.252l-32.065-6.413c-9.337-1.869-18.873-.202-26.929 4.559-6.84-6.385-16.012-10.304-26.086-10.304h-32.065c-8.459 0-16.355 2.788-22.753 7.531-6.366-4.725-14.239-7.531-22.758-7.531h-32.065c-10.075 0-19.245 3.919-26.087 10.304-8.058-4.762-17.593-6.428-26.929-4.559l-32.065 6.413c-8.445 1.689-15.791 6.122-21.185 12.252-7.469-3.666-15.978-4.821-24.326-3.15l-32.065 6.413c-17.826 3.565-30.765 19.348-30.765 37.528v35.648 131.879h496.485v-131.879-35.648c0-18.18-12.939-33.963-30.766-37.528zm-121.736 10c.814-.668 2.38-1.649 4.539-1.649.463 0 .955.046 1.472.149l32.065 6.413c3.373.674 5.82 3.661 5.82 7.1v51.163c0 12.833-10.441 23.273-23.273 23.273s-23.273-10.44-23.273-23.273v-57.576c0-2.982 1.66-4.788 2.65-5.6zm-80.023-1.094c.762-3.211 3.664-5.548 7.038-5.548h32.065c3.992 0 7.24 3.248 7.24 7.24v5.002 57.576c0 12.833-10.441 23.273-23.273 23.273-11.457 0-21.16-8.323-22.963-19.519zm-77.778 1.692c0-3.993 3.249-7.24 7.24-7.24h32.065c3.992 0 7.24 3.248 7.24 7.24h.216c.257 30.444-.216 62.578-.216 62.578 0 12.833-10.441 23.273-23.273 23.273s-23.273-10.44-23.273-23.273v-57.576-5.002zm-77.576 11.415c0-3.439 2.447-6.425 5.82-7.1l32.065-6.413c2.924-.581 5.021.69 6.011 1.501.99.812 2.65 2.618 2.65 5.6v57.575c0 12.833-10.441 23.273-23.273 23.273s-23.273-10.44-23.273-23.273zm-77.576 15.515c0-3.439 2.447-6.425 5.82-7.1l32.065-6.413c2.925-.58 5.021.69 6.011 1.501.99.812 2.65 2.618 2.65 5.6v42.06c0 12.833-10.441 23.273-23.273 23.273s-23.273-10.44-23.273-23.273zm0 136.496v-51.796c7.058 3.363 14.948 5.25 23.273 5.25 15.184 0 28.923-6.271 38.788-16.351 9.865 10.08 23.604 16.351 38.788 16.351s28.923-6.271 38.788-16.351c9.865 10.08 23.604 16.351 38.788 16.351 15.175 0 28.909-6.263 38.772-16.332 9.907 10.116 23.697 16.332 38.803 16.332 15.184 0 28.923-6.271 38.788-16.351 9.865 10.08 23.604 16.351 38.788 16.351s28.923-6.271 38.788-16.351c9.865 10.08 23.604 16.351 38.788 16.351 8.324 0 16.214-1.888 23.273-5.25v51.796zm411.152-77.576c-12.832 0-23.273-10.44-23.273-23.273v-42.061c0-2.982 1.66-4.788 2.65-5.6.989-.811 3.084-2.083 6.01-1.501l32.065 6.413c3.373.674 5.82 3.661 5.82 7.1v35.649c.001 12.834-10.44 23.273-23.272 23.273z"/></g></svg>