<svg id="Layer_1" enable-background="new 0 0 511.938 511.938" height="512" viewBox="0 0 511.938 511.938" width="512" xmlns="http://www.w3.org/2000/svg"><g><path d="m0 51.087v409.764h511.938v-409.764zm481.938 91.362h-72.362v-61.362h72.362zm-451.938-61.362h328.362l-59.972 59.972c-94.153-78.636-242.819-8.907-241.719 114.912-.001 81.722 66.486 148.209 148.211 148.209 123.947 1.08 193.63-147.822 114.74-241.927l59.954-59.953v328.551h-349.576zm239.622 131.165 28.663-28.663c60.128 75.563 4.017 191.483-93.405 190.589-65.181.001-118.21-53.028-118.21-118.211-.882-97.295 114.773-153.456 190.378-93.568l-28.638 28.638zm139.953 218.599v-258.402h72.362v258.401h-72.362z"/><path d="m204.882 204.42c-28.424 0-51.549 23.125-51.549 51.549 2.592 68.293 100.516 68.274 103.098-.001 0-28.424-23.125-51.548-51.549-51.548zm0 73.098c-11.882 0-21.549-9.667-21.549-21.549 1.084-28.548 42.018-28.54 43.098 0 0 11.882-9.667 21.549-21.549 21.549z"/><path d="m430.757 220.813h30v30.002h-30z"/><path d="m430.757 280.817h30v30.002h-30z"/><path d="m430.757 340.821h30v30.002h-30z"/></g></svg>