<svg id="Capa_1" enable-background="new 0 0 512 512" height="512" viewBox="0 0 512 512" width="512" xmlns="http://www.w3.org/2000/svg"><g><path d="m308.958 97.396h30v30h-30z"/><path d="m467 97.396h-68.042v-12.396c0-24.813-20.187-45-45-45h-47.396c-31.487 0-58.894 17.761-72.759 43.783-23.857-38.263-66.319-63.783-114.636-63.783h-74.167c-8.271 0-15-6.729-15-15v-5h-30v90.372c0 49.848 35.474 93.144 84.348 102.949l29.045 5.827c19.059 3.824 33.359 19.533 35.781 38.426h-149.174v30h20v4.426c0 90.981 74.019 165 165 165h15.719v45h-25.719v30h191.438v-30h-55.719v-63.98c52.422-27.669 88.239-82.736 88.239-146.02v-84.604h68.042c8.271 0 15 6.729 15 15v2.604h30v-62.604c0-24.813-20.187-45-45-45zm-347.707 72.337-29.045-5.827c-34.91-7.003-60.248-37.929-60.248-73.534v-42.942c4.693 1.664 9.743 2.57 15 2.57h74.167c57.897 0 105 47.103 105 105v100.26c0 12.303-10.01 22.313-22.313 22.313s-22.313-10.01-22.313-22.313v-11.992c0-35.606-25.338-66.532-60.248-73.535zm161.426 312.267h-50v-45h3.239c16.237 0 31.929-2.369 46.761-6.759zm88.239-210c0 74.439-60.561 135-135 135h-48.958c-74.439 0-135-60.561-135-135v-4.427h101.018c5.553 22.922 26.232 40 50.836 40 28.845 0 52.313-23.467 52.313-52.313v-132.864c0-28.891 23.505-52.396 52.396-52.396h47.396c8.271 0 15 6.729 15 15v187zm113.042-112.034c-4.693-1.664-9.743-2.57-15-2.57h-68.042v-30h68.042c8.271 0 15 6.729 15 15z"/></g></svg>