<svg id="Capa_1" enable-background="new 0 0 512 512" height="512" viewBox="0 0 512 512" width="512" xmlns="http://www.w3.org/2000/svg"><g><path d="m308.083 203.909c0-28.719-23.364-52.083-52.083-52.083s-52.083 23.364-52.083 52.083c0 23.505 15.655 43.414 37.083 49.872v22.211h-30v30h30v30h30v-30h30v-30h-30v-22.212c21.428-6.457 37.083-26.366 37.083-49.871zm-74.166 0c0-12.177 9.906-22.083 22.083-22.083s22.083 9.906 22.083 22.083-9.906 22.083-22.083 22.083-22.083-9.907-22.083-22.083z"/><path d="m501.635 290.393c-16.23-5.273-32.878-9.882-49.635-13.772v-42.86l-10.365-3.368c-6.49-2.109-13.042-4.099-19.635-5.991v-156.68l-8.292-4.146c-2.579-1.29-64.241-31.583-157.708-31.583s-155.129 30.294-157.708 31.583l-8.292 4.146v156.68c-6.593 1.892-13.144 3.882-19.635 5.991l-10.365 3.368v42.86c-16.757 3.89-33.405 8.499-49.635 13.772l-10.365 3.368v170.491l21.865-11.255c42.987-22.129 84.559-38.307 113.627-44.367 29.319 35.977 70.631 61.469 117.585 70.798l2.923.581 2.923-.581c46.954-9.329 88.266-34.821 117.585-70.798 29.068 6.06 70.64 22.238 113.627 44.367l21.865 11.254v-170.49zm-138.157 25.326c2.991-10.089 4.605-20.764 4.605-31.81v-41.771c18.215 3.646 36.261 8.172 53.917 13.531v73.72c-19.211-5.515-38.786-10.082-58.522-13.67zm-243.478-228.929c6.75-2.744 17.426-6.696 31.352-10.617 22.977-6.469 59.785-14.18 104.648-14.18s81.671 7.711 104.648 14.181c13.929 3.921 24.605 7.874 31.352 10.616v129.846c-7.936-1.842-15.911-3.534-23.917-5.054v-7.672c0-61.803-50.28-112.083-112.083-112.083s-112.083 50.28-112.083 112.083v7.672c-8.006 1.52-15.981 3.213-23.917 5.054zm218.083 117.119v80c0 45.261-36.822 82.083-82.083 82.083s-82.083-36.822-82.083-82.083v-80c0-45.261 36.822-82.083 82.083-82.083s82.083 36.822 82.083 82.083zm-248.083 51.759c17.656-5.36 35.702-9.885 53.917-13.531v41.771c0 11.046 1.614 21.721 4.605 31.81-19.737 3.588-39.311 8.155-58.522 13.67zm-60 159.841v-99.84c9.891-3.003 19.916-5.749 30-8.219v62.856l19.635-6.38c8.262-2.684 16.613-5.176 25.029-7.486 3.597 8.928 7.815 17.516 12.574 25.735-24.85 6.568-55.35 18.208-87.238 33.334zm226 33.886c-54.607-11.833-99.901-49.407-121.855-100.213 9.033-1.971 18.117-3.727 27.233-5.259 19.907 31.276 54.88 52.069 94.622 52.069s74.715-20.793 94.622-52.069c9.116 1.533 18.201 3.288 27.233 5.259-21.954 50.806-67.248 88.38-121.855 100.213zm226-33.886c-31.888-15.126-62.388-26.766-87.238-33.336 4.759-8.219 8.977-16.807 12.574-25.735 8.417 2.31 16.768 4.802 25.029 7.486l19.635 6.38v-62.856c10.084 2.471 20.109 5.217 30 8.219z"/></g></svg>