<svg id="Capa_1" enable-background="new 0 0 512.105 512.105" height="512" viewBox="0 0 512.105 512.105" width="512" xmlns="http://www.w3.org/2000/svg"><g id="Double_Click"><g><g><path d="m255.772 512.053-156.542-413.107 412.875 156.542-192.067 64.266zm-104.926-361.483 103.132 272.508 42.34-127.035 126.876-42.339z"/></g></g><g><path d="m94.417 237.317c-26.359-5.728-50.313-20.454-67.451-41.465-17.389-21.321-26.966-48.241-26.966-75.799 0-66.168 53.832-120 120-120 27.559 0 54.478 9.577 75.799 26.966 21.012 17.138 35.737 41.092 41.465 67.451l-29.316 6.37c-8.913-41.017-45.9-70.787-87.948-70.787-49.626 0-90 40.374-90 90 0 42.048 29.771 79.036 70.786 87.948z"/></g></g></svg>