<svg id="Capa_1" enable-background="new 0 0 512 512" height="512" viewBox="0 0 512 512" width="512" xmlns="http://www.w3.org/2000/svg"><g><path d="m512 122h-47.509c-6.969-34.192-37.271-60-73.491-60h-60v-62h-150l-.001 62h-74.999c-36.22 0-66.522 25.808-73.491 60h-32.509v300h100.515c-5.285 18.437-9.515 40.549-9.515 75v15h330v-15c0-34.451-4.23-56.563-9.515-75h100.515zm-406-30h104.999l.001-62h90v62h90c19.555 0 36.228 12.542 42.42 30h-369.84c6.192-17.458 22.865-30 42.42-30zm315 165c0 41.355-33.645 75-75 75s-75-33.645-75-75c0-20.034 7.802-38.868 21.967-53.033l-21.213-21.214c-6.121 6.121-11.39 12.865-15.754 20.088-4.364-7.223-9.633-13.968-15.754-20.088l-21.213 21.214c14.165 14.165 21.967 32.999 21.967 53.033 0 41.355-33.645 75-75 75s-75-33.645-75-75c0-38.506 28.278-57.744 30-59.967v-45.033h270v45.033c1.767 2.281 30 21.224 30 59.967zm-255 105c38.151 0 71.612-20.455 90-50.971 18.388 30.516 51.849 50.971 90 50.971 6.06 0 12-.523 17.782-1.513 1.72 12.153 4.096 22.305 6.733 31.513h-229.03c2.637-9.208 5.013-19.36 6.733-31.513 5.782.99 11.722 1.513 17.782 1.513zm-136-210h61v31.979c-19.144 19.619-30 45.865-30 73.021 0 41.089 23.728 76.736 58.198 93.973-1.953 16.701-5.295 29.173-9.063 41.027h-80.135zm360.688 330h-269.376c1.171-26.942 5.496-44.083 10.555-60h248.268c5.057 15.917 9.382 33.058 10.553 60zm91.312-90h-80.135c-3.769-11.854-7.11-24.326-9.063-41.027 34.47-17.237 58.198-52.884 58.198-93.973 0-27.156-10.856-53.402-30-73.021v-31.979h61z"/><path d="m346 212c-24.813 0-45 20.187-45 45s20.187 45 45 45 45-20.187 45-45-20.187-45-45-45zm0 60c-8.271 0-15-6.729-15-15s6.729-15 15-15 15 6.729 15 15-6.729 15-15 15z"/></g></svg>