<svg id="Capa_1" enable-background="new 0 0 512 512" height="512" viewBox="0 0 512 512" width="512" xmlns="http://www.w3.org/2000/svg"><g><path d="m0 189.428v90h89.166c7.72 109.748 99.476 196.68 211.154 196.68 116.72.001 211.68-94.959 211.68-211.68v-75zm476.629 118.932-29.597-29.597 34.968-34.968v20.633c0 15.144-1.863 29.86-5.371 43.932zm-176.309 74.69-41.287-41.287 41.287-41.287 41.287 41.287zm62.499-20.074 46.623 46.623c-16.258 12.252-34.631 21.84-54.464 28.11l-33.446-33.446zm-83.712 41.287-33.446 33.446c-19.833-6.27-38.206-15.858-54.464-28.11l46.623-46.623zm-160.457-160.456 34.956 34.956-29.596 29.597c-3.36-13.48-5.21-27.551-5.36-42.022zm18.048-24.379h76.243l-38.121 38.122zm100.621 18.048 41.787 41.787-41.287 41.287-41.787-41.787zm24.379-18.048h77.243l-38.622 38.622zm59.834 59.835 41.787-41.787 41.287 41.287-41.787 41.787zm66.166-59.835h76.243l-38.122 38.122zm-357.698 0h58.64v30h-58.64zm105.013 120.355 39.807-39.807 41.787 41.787-47.844 47.844c-13.837-14.536-25.297-31.354-33.75-49.824zm145.722 105.277 19.584-19.584 19.584 19.584c-6.435.693-12.969 1.049-19.585 1.049-6.614 0-13.148-.356-19.583-1.049zm151.141-55.453-47.844-47.844 41.787-41.787 39.807 39.807c-8.452 18.47-19.912 35.289-33.75 49.824z"/><path d="m263.109 159.706h74.421c39.482 0 71.604-32.121 71.604-71.604v-52.211h-52.211c-22.996 0-43.494 10.896-56.604 27.797-13.11-16.9-33.608-27.797-56.604-27.797h-52.21v52.211c.001 39.483 32.122 71.604 71.604 71.604zm93.814-93.815h22.211v22.211c0 22.94-18.663 41.604-41.604 41.604h-22.211v-22.211c0-22.941 18.663-41.604 41.604-41.604zm-135.417 0h22.21c22.94 0 41.604 18.663 41.604 41.604v22.211h-22.21c-22.94 0-41.604-18.663-41.604-41.604z"/></g></svg>