<svg height="512pt" viewBox="0 0 512 512" width="512pt" xmlns="http://www.w3.org/2000/svg"><path d="m497 91.921875h-60c-77.554688 0-142.851562 53.140625-160.984375 124.710937-1.605469-.800781-3.265625-1.507812-4.972656-2.117187.457031-67.03125 4.667969-117.367187 12.542969-149.71875 7.949218-32.6875 16.554687-34.769531 16.636718-34.78125 1.492188-.214844 7.746094 1.902344 17.03125 13.867187 7.59375 9.78125 12.777344 20.398438 13.902344 23.699219 1.046875 7.261719 7.292969 12.839844 14.84375 12.839844 8.285156 0 15-6.714844 15-15 0-9.925781-12.320312-29.308594-17.070312-35.9375-14.007813-19.566406-28.636719-29.484375-43.472657-29.484375-20.109375 0-35.058593 17.382812-44.457031 51.65625-9.398438-34.273438-24.34375-51.65625-44.457031-51.65625-14.835938 0-29.464844 9.921875-43.472657 29.484375-4.746093 6.628906-17.070312 26.011719-17.070312 35.9375 0 8.285156 6.714844 15 15 15 7.550781 0 13.800781-5.578125 14.847656-12.839844 1.125-3.300781 6.308594-13.917969 13.898438-23.699219 9.285156-11.960937 15.554687-14.085937 17.03125-13.867187.085937.011719 8.6875 2.09375 16.640625 34.78125 7.871093 32.351563 12.082031 82.6875 12.539062 149.71875-1.695312.605469-3.347656 1.308594-4.945312 2.105469-18.03125-71.5625-82.929688-124.699219-160.011719-124.699219h-61c-8.285156 0-15 6.714844-15 15v60c0 63.367187 36.132812 118.5 88.988281 146.132813-34.355469 17.277343-57.988281 52.863281-57.988281 93.867187 0 57.898437 47.101562 105 105 105 53.78125 0 98.242188-40.648437 104.289062-92.835937 4.894532 1.828124 10.1875 2.835937 15.710938 2.835937 5.527344 0 10.820312-1.007813 15.714844-2.835937 6.105468 52.1875 50.988281 92.835937 105.285156 92.835937 57.898438 0 105-47.101563 105-105 0-41.101563-23.742188-76.753906-58.226562-93.988281 52.414062-27.667969 88.226562-82.734375 88.226562-146.011719v-60c0-8.285156-6.714844-15-15-15zm-467 75v-45h46c74.4375 0 135 60.5625 135 135v45h-45c-74.992188 0-136-60.558594-136-135zm181 240c0 41.355469-33.644531 75-75 75s-75-33.644531-75-75 33.644531-75 75-75h75zm45-15c-8.269531 0-15-6.730469-15-15 0-14.519531 0-105.386719 0-120 0-8.269531 6.730469-15 15-15s15 6.730469 15 15v120c0 8.269531-6.730469 15-15 15zm121-60c41.355469 0 75 33.644531 75 75s-33.644531 75-75 75c-41.90625 0-76-33.644531-76-75 0-32.171875 0-39.84375 0-75zm105-165c0 74.4375-60.5625 135-135 135h-46v-45c0-74.4375 61.011719-135 136-135h45zm0 0"/><path d="m152.820312 180.101562c-23.164062-23.160156-62.601562-43.464843-84.851562-21.210937-22.410156 22.40625-1.65625 61.984375 21.210938 84.851563 23.160156 23.15625 62.597656 43.46875 84.851562 21.210937 22.417969-22.414063 1.632812-62.007813-21.210938-84.851563zm0 63.640626c-3.164062 3.160156-23.382812-2.167969-42.425781-21.214844-18.785156-18.78125-24.453125-39.179688-21.214843-42.425782 2.859374-2.851562 22.554687 1.339844 42.425781 21.214844 18.785156 18.78125 24.453125 39.179688 21.214843 42.425782zm0 0"/><path d="m360.179688 180.101562c-23.175782 23.179688-43.457032 62.609376-21.210938 84.855469 22.242188 22.246094 61.679688 1.960938 84.851562-21.214843 23.175782-23.175782 43.457032-62.605469 21.214844-84.851563-22.417968-22.417969-62.011718-1.632813-84.855468 21.210937zm42.425781 42.425782c-19.257813 19.257812-39.359375 24.285156-42.425781 21.214844-3.171876-3.171876 2.199218-23.414063 21.214843-42.425782 18.402344-18.402344 39.019531-24.617187 42.425781-21.214844 3.171876 3.171876-2.199218 23.414063-21.214843 42.425782zm0 0"/><path d="m136 361.921875c-24.8125 0-45 20.1875-45 45s20.1875 45 45 45 45-20.1875 45-45-20.1875-45-45-45zm0 60c-8.269531 0-15-6.730469-15-15s6.730469-15 15-15 15 6.730469 15 15-6.730469 15-15 15zm0 0"/><path d="m377 451.921875c24.8125 0 45-20.1875 45-45s-20.1875-45-45-45-45 20.1875-45 45 20.1875 45 45 45zm0-60c8.269531 0 15 6.730469 15 15s-6.730469 15-15 15-15-6.730469-15-15 6.730469-15 15-15zm0 0"/></svg>