<?xml version="1.0" encoding="iso-8859-1"?>
<!-- Generator: Adobe Illustrator 19.0.0, SVG Export Plug-In . SVG Version: 6.00 Build 0)  -->
<svg xmlns="http://www.w3.org/2000/svg" xmlns:xlink="http://www.w3.org/1999/xlink" version="1.1" id="Layer_1" x="0px" y="0px" viewBox="0 0 512 512" style="enable-background:new 0 0 512 512;" xml:space="preserve">
<g>
	<g>
		<path d="M420.997,490.349l-66.599-196.502h39.636v-31.326h-50.252l-46.266-136.509c9.222-9.862,14.884-23.094,14.884-37.631    c0-24.972-16.687-46.109-39.492-52.876V0h-31.326v35.506c-22.805,6.767-39.491,27.904-39.491,52.876    c0,13.563,4.931,25.99,13.081,35.606l-46.952,138.533h-47.764v31.326h37.146L91.003,490.349l9.56,3.24l-5.22,14.68L105.836,512    l5.275-14.836l9.559,3.24l70.007-206.557h50.905v17.751h31.326v-17.751h48.415l70.007,206.557l9.559-3.24L406.164,512    l10.494-3.731l-5.22-14.68L420.997,490.349z M257.245,64.553c13.139,0,23.83,10.689,23.83,23.829s-10.689,23.83-23.83,23.83    c-13.139,0-23.829-10.689-23.829-23.83C233.416,75.243,244.106,64.553,257.245,64.553z M272.908,262.521v-12.53h-31.326v12.53    h-40.288l41.027-121.052c4.75,1.338,9.752,2.069,14.924,2.069c4.348,0,8.574-0.521,12.635-1.478l40.827,120.461H272.908z"/>
	</g>
</g>
<g>
</g>
<g>
</g>
<g>
</g>
<g>
</g>
<g>
</g>
<g>
</g>
<g>
</g>
<g>
</g>
<g>
</g>
<g>
</g>
<g>
</g>
<g>
</g>
<g>
</g>
<g>
</g>
<g>
</g>
</svg>
