<svg id="Capa_1" enable-background="new 0 0 510 510" height="512" viewBox="0 0 510 510" width="512" xmlns="http://www.w3.org/2000/svg"><g><path d="m203.5 341.039v115.923l119.333-57.962zm30 47.923 20.668 10.038-20.668 10.039z"/><path d="m255.001 0c-140.699 0-254.58 113.862-254.58 254.581 0 90.523 47.363 170.59 119.579 215.855v39.564h270.001v-39.564c72.419-45.393 119.579-125.563 119.579-215.855 0-140.696-113.86-254.581-254.579-254.581zm-105.001 315h210.001v165h-210c0-.189-.001-162.653-.001-165zm-30-30v64.802c-19.328-27.547-29.999-60.629-29.999-94.802 0-90.981 74.019-165 165-165s165 74.019 165 165c0 34.173-10.672 67.254-30 94.802v-64.802zm270.001 149.049v-38.352c38.216-36.694 60-87.584 60-140.697 0-107.523-87.478-195-195-195-107.523 0-195 87.477-195 195 0 53.113 21.783 104.003 59.999 140.696v38.353c-55.827-42.137-89.579-108.709-89.579-179.468 0-123.834 100.746-224.581 224.58-224.581 123.833 0 224.579 100.747 224.579 224.581 0 70.759-33.752 137.331-89.579 179.468z"/></g></svg>