<svg id="Capa_1" enable-background="new 0 0 512 512" height="512" viewBox="0 0 512 512" width="512" xmlns="http://www.w3.org/2000/svg"><g><path d="m391 0h-120c-36.22 0-66.522 25.808-73.491 60h-61.509v62h-15c-41.355 0-75 33.645-75 75v15h330v-15c0-41.355-33.645-75-75-75h-15v-62h-57.42c6.192-17.458 22.865-30 42.42-30h120c24.813 0 45 20.187 45 45v437h30v-437c0-41.355-33.645-75-75-75zm-90 152c19.557 0 36.239 12.539 42.43 30h-264.86c6.19-17.461 22.873-30 42.43-30zm-45-30h-90v-32h90z"/><path d="m76 242h30v60h-30z"/><path d="m136 272h30v60h-30z"/><path d="m196 242h30v60h-30z"/><path d="m256 272h30v60h-30z"/><path d="m316 242h30v60h-30z"/><path d="m76 422h30v60h-30z"/><path d="m136 452h30v60h-30z"/><path d="m196 422h30v60h-30z"/><path d="m256 452h30v60h-30z"/><path d="m316 422h30v60h-30z"/><path d="m76 332h30v60h-30z"/><path d="m136 362h30v60h-30z"/><path d="m196 332h30v60h-30z"/><path d="m256 362h30v60h-30z"/><path d="m316 332h30v60h-30z"/></g></svg>