<svg id="Capa_1" enable-background="new 0 0 510 510" height="512" viewBox="0 0 510 510" width="512" xmlns="http://www.w3.org/2000/svg"><g><path d="m480 253.648c0-34.076 0-129.438 0-163.648h-60v-90h-330v90h-60v163.648l-30 165v91.352h510v-91.353zm-30-133.648v60h-30v-60zm-330-90h270v150h-270c0-6.925 0-143.1 0-150zm-60 90h30v60h-30zm390 90v30h-390v-30zm30 270h-450v-58.647l27.519-151.353h394.963l27.518 151.353z"/><path d="m90 300h30v30h-30z"/><path d="m90 360h30v30h-30z"/><path d="m150 300h30v30h-30z"/><path d="m150 360h30v30h-30z"/><path d="m210 300h30v30h-30z"/><path d="m210 360h30v30h-30z"/><path d="m270 360h30v30h-30z"/><path d="m270 300h30v30h-30z"/><path d="m330 300h30v30h-30z"/><path d="m330 360h30v30h-30z"/><path d="m390 300h30v30h-30z"/><path d="m390 360h30v30h-30z"/><path d="m60 420h30v30h-30z"/><path d="m120 420h30v30h-30z"/><path d="m180 420h150v30h-150z"/><path d="m360 420h30v30h-30z"/><path d="m420 420h30v30h-30z"/><path d="m150 60h75v30h-75z"/><path d="m150 120h105v30h-105z"/><path d="m255 60h105v30h-105z"/><path d="m285 120h75v30h-75z"/></g></svg>