<?xml version="1.0" encoding="iso-8859-1"?>
<!-- Generator: Adobe Illustrator 19.0.0, SVG Export Plug-In . SVG Version: 6.00 Build 0)  -->
<svg xmlns="http://www.w3.org/2000/svg" xmlns:xlink="http://www.w3.org/1999/xlink" version="1.1" id="Layer_1" x="0px" y="0px" viewBox="0 0 512 512" style="enable-background:new 0 0 512 512;" xml:space="preserve">
<g>
	<g>
		<path d="M494.237,240.327v-57.733h-58.595V152.24H345.7v63.009H166.299V152.24H76.358v30.354H17.763v57.733H0v31.347h17.763    v57.733h58.595v30.354H166.3v-63.009h179.402v63.009h89.942v-30.354h58.594v-57.733H512v-31.347H494.237z M76.358,298.059H49.11    v-84.118h27.248V298.059z M134.952,215.249v81.502v31.662h-27.248V183.587h27.248V215.249z M345.7,265.404H166.299v-18.808H345.7    V265.404z M404.296,328.414h-27.248v-31.662v-81.502v-31.662h27.248V328.414z M462.89,298.059h-27.248v-84.118h27.248V298.059z"/>
	</g>
</g>
<g>
</g>
<g>
</g>
<g>
</g>
<g>
</g>
<g>
</g>
<g>
</g>
<g>
</g>
<g>
</g>
<g>
</g>
<g>
</g>
<g>
</g>
<g>
</g>
<g>
</g>
<g>
</g>
<g>
</g>
</svg>
