<svg id="Capa_1" enable-background="new 0 0 510 510" height="512" viewBox="0 0 510 510" width="512" xmlns="http://www.w3.org/2000/svg"><g><path d="m510 60h-109.001c7.087-30.117 12.661-42.013 19.704-60-.169 0-316.176.013-331.356.013 7.461 19.115 12.764 30.71 19.654 59.987h-79.001v-30h-30v180h30v-30h88.896c-4.632 57.632-22.043 90.322-28.013 105.027-16.781 41.072-22.803 85.16-17.414 127.5 6.782 53.177 25.55 90.966 27.861 97.473h138.67v-90h30v90h138.669c2.283-6.429 21.089-44.373 27.861-97.476 5.389-42.337-.633-86.425-17.402-127.467-5.954-14.669-23.378-47.233-28.024-105.057h118.896zm-377.902-30h245.805c-2.369 8.017-5.082 18.155-7.668 30h-230.469c-2.586-11.845-5.299-21.983-7.668-30zm-10.621 450c-22.093-57.424-27.328-113.158-7.639-170.761 44.867 16.182 80.918 52.723 96.162 98.216v72.545zm114.125-90c-19.157-49.571-58.979-89.699-110.463-108.593 3.629-8.553 6.89-17.382 9.738-26.407h240.245c2.849 9.021 6.108 17.847 9.739 26.406-51.506 18.899-91.313 59.038-110.463 108.594zm152.921 90h-88.523v-72.545c15.244-45.496 51.296-82.037 96.162-98.217 19.773 57.831 14.343 113.627-7.639 170.762zm-21.238-255h-224.571c3.043-14.55 5.139-29.597 6.274-45h212.024c1.136 15.406 3.231 30.452 6.273 45zm112.715-75h-30v-30h-30v30h-30v-30h-30v30h-30v-30h-30v30h-30v-30h-30v30h-30v-30h-30v30h-30v-30h-30v30h-30v-30h-30v30h-30v-60h450z"/></g></svg>