<svg id="Capa_1" enable-background="new 0 0 512 512" height="512" viewBox="0 0 512 512" width="512" xmlns="http://www.w3.org/2000/svg"><path d="m485.875 180.75h-120.5v-90.375h-218.75v30.125h-30.25v-15.125c0-11.568-4.38-22.13-11.563-30.125 7.183-7.995 11.563-18.557 11.563-30.125 0-24.882-20.243-45.125-45.125-45.125s-45.125 20.243-45.125 45.125c0 11.568 4.38 22.13 11.563 30.125-7.183 7.995-11.563 18.557-11.563 30.125v406.625h90.25v-180.75h30.25v30.125h90.375v90.375h248.875l-33.875-135.5zm-414.625-150.75c8.34 0 15.125 6.785 15.125 15.125s-6.785 15.125-15.125 15.125-15.125-6.785-15.125-15.125 6.785-15.125 15.125-15.125zm15.125 452h-30.25v-376.625c0-8.34 6.785-15.125 15.125-15.125s15.125 6.785 15.125 15.125zm30-180.75v-150.75h30.25v150.75zm60.25-180.875h158.75v211h-158.75zm135.25 241-44.875 41.226v-41.226zm135.576 60.375h-156.951l74.875-68.786v-142.214h82.076l-26.375 105.5z"/></svg>