<svg id="Capa_1" enable-background="new 0 0 511.778 511.778" height="512" viewBox="0 0 511.778 511.778" width="512" xmlns="http://www.w3.org/2000/svg"><g><path d="m395.773 146.951-26.277-19.707v-69.575c-85.732 35.711-165.65 76.668-261.461 74.346 0 .002-30.975.002-30.975.002-78.923.806-106.1 103.942-39.214 143.837l82.229 178.255 95.106-43.871-54.604-118.373c40.745 6.542 80.567 19.081 117.567 37.186l91.353 44.704v-71.078l26.277-19.707c45.003-32.916 44.998-103.108-.001-136.019zm-318.713 15.066h30.976c.151 0 .302-.003.453-.003v94.788c-4.585-.144-9.171-.222-13.756-.222h-17.673c-62.724-2.594-62.709-91.976 0-94.563zm98.314 233.545-40.624 18.74-58.932-127.753c15.982.055 33.971-.152 49.824 1.203zm164.122-69.886-48.166-23.571c-47.746-23.364-99.877-38.083-152.842-43.344v-97.775c48.926-3.301 96.632-14.568 142.197-33.634l58.811-24.608zm38.277-66.706-8.277 6.208v-100.434l8.276 6.207c29.124 21.301 29.12 66.722.001 88.019z"/><path d="m466.778 199.961h45v30h-45z"/><path d="m436.254 82.211h44.548v30h-44.548z" transform="matrix(.707 -.707 .707 .707 65.561 352.701)"/><path d="m443.528 310.437h30v44.548h-30z" transform="matrix(.707 -.707 .707 .707 -100.962 421.677)"/></g></svg>