<svg id="Capa_1" enable-background="new 0 0 510 510" height="512" viewBox="0 0 510 510" width="512" xmlns="http://www.w3.org/2000/svg"><g><path d="m150 270v-60h90v-210h-240v210h70zm-120-240h180v150h-90v30l-40-30h-50z"/><path d="m60 60h45v30h-45z"/><path d="m60 120h120v30h-120z"/><path d="m270 0v210h90v60l80-60h70v-210zm210 180h-50l-40 30v-30h-90v-150h180z"/><path d="m330 60h45v30h-45z"/><path d="m330 120h120v30h-120z"/><path d="m448.516 401.243c10.204-10.761 16.484-25.278 16.484-41.243 0-33.084-26.916-60-60-60s-60 26.916-60 60c0 15.965 6.28 30.482 16.484 41.243-12.678 7.033-23.488 17.037-31.484 29.066-7.996-12.03-18.807-22.033-31.484-29.066 10.204-10.761 16.484-25.278 16.484-41.243 0-33.084-26.916-60-60-60s-60 26.916-60 60c0 15.965 6.28 30.482 16.484 41.243-12.678 7.033-23.488 17.037-31.484 29.066-7.996-12.03-18.807-22.033-31.484-29.066 10.204-10.761 16.484-25.278 16.484-41.243 0-33.084-26.916-60-60-60s-60 26.916-60 60c0 15.965 6.28 30.482 16.484 41.243-27.695 15.363-46.484 44.905-46.484 78.757v30h480v-30c0-33.852-18.789-63.394-46.484-78.757zm-73.516-41.243c0-16.542 13.458-30 30-30s30 13.458 30 30-13.458 30-30 30-30-13.458-30-30zm-150 0c0-16.542 13.458-30 30-30s30 13.458 30 30-13.458 30-30 30-30-13.458-30-30zm-150 0c0-16.542 13.458-30 30-30s30 13.458 30 30-13.458 30-30 30-30-13.458-30-30zm-30 120c0-33.084 26.916-60 60-60s60 26.916 60 60zm150 0c0-33.084 26.916-60 60-60s60 26.916 60 60zm150 0c0-33.084 26.916-60 60-60s60 26.916 60 60z"/></g></svg>