<svg id="Capa_1" enable-background="new 0 0 512 512" height="512" viewBox="0 0 512 512" width="512" xmlns="http://www.w3.org/2000/svg"><g><path d="m473.435 192.318c-17.422-17.781-38.961-30.156-62.5-36.23 6.998-10.019 10.876-22.073 10.876-34.418 0-33.084-26.916-60-60-60-17.901 0-33.997 7.881-45 20.354-11.003-12.474-27.099-20.354-45-20.354-33.084 0-60 26.916-60 60 0 10.629 2.888 21.037 8.154 30.123h-67.965v45 90 45h-45-77v-180h-30v330h30v-60h452v60h30c0-21.341 0-171.293 0-195 0-35.541-13.696-69.093-38.565-94.475zm-201.623-100.648c16.542 0 30 13.458 30 30h30c0-16.542 13.458-30 30-30s30 13.458 30 30c0 8.292-3.308 16.008-9.314 21.729l-65.686 62.557-65.685-62.557c-6.007-5.722-9.315-13.438-9.315-21.729 0-16.542 13.458-30 30-30zm-241.812 270.122h452v30h-452zm152-30v-150h65.94l68.871 65.592 68.519-65.256c53.83 4.289 96.67 50.025 96.67 104.664v45z"/><path d="m152 286.792c0-24.813-20.187-45-45-45s-45 20.187-45 45 20.187 45 45 45 45-20.187 45-45zm-45 15c-8.271 0-15-6.729-15-15s6.729-15 15-15 15 6.729 15 15-6.729 15-15 15z"/><path d="m152 196.792c0-24.813-20.187-45-45-45s-45 20.187-45 45 20.187 45 45 45 45-20.187 45-45zm-45 15c-8.271 0-15-6.729-15-15s6.729-15 15-15 15 6.729 15 15-6.729 15-15 15z"/><path d="m167.059 32.027h30v60h-30z" transform="matrix(.707 -.707 .707 .707 9.464 146.903)"/><path d="m422.059 47.028h60v30h-60z" transform="matrix(.707 -.707 .707 .707 88.545 337.822)"/></g></svg>