<svg id="Capa_1" enable-background="new 0 0 511 511" height="512" viewBox="0 0 511 511" width="512" xmlns="http://www.w3.org/2000/svg"><g id="XMLID_1097_"><path id="XMLID_1137_" d="m231 320v15h195.667v-88h-122.667c-40.252 0-73 32.748-73 73zm165.667-15h-132.968c6.1-16.336 21.864-28 40.301-28h92.667z"/><path id="XMLID_1160_" d="m462.667 189.333v1.129c-5.515-2.225-11.531-3.462-17.833-3.462h-201.167c-19.82 0-39.17 2.383-57.667 6.985v-37.318h-87.333v81.303c-2.825 2.365-5.595 4.8-8.296 7.317-15.583 14.52-28.52 31.1-38.594 49.213h-30.777v30h17.226c-7.812 21.948-11.892 45.467-11.892 69.834 0 11.76 5.42 22.274 13.889 29.186l-10.255 36.48h-29.968v30h477.667v-30h-27v-45c0-14.888 12.112-27 27-27h15v-198.667c0-10.108 8.224-18.333 18.333-18.333v-30c-26.651 0-48.333 21.682-48.333 48.333zm-334-2.666h27.333v17.036c-9.449 3.814-18.579 8.263-27.333 13.316zm292 273.333h-359.536l7.87-28h351.665v28zm42-99.997c-20.057 5.476-35.741 21.659-40.504 41.997h-358.163c-4.228 0-7.667-3.439-7.667-7.666v-.001c0-9.008.651-17.814 1.891-26.392h136.397v-30h-129.335c23.77-71.748 92.597-120.941 178.381-120.941h201.167c9.833 0 17.833 8 17.833 17.833z"/><path id="XMLID_1163_" d="m98.667 110.833v15.167h30v-15.167c0-28.581-23.253-51.833-51.834-51.833h-5.381v30h5.381c12.039 0 21.834 9.794 21.834 21.833z"/><path id="XMLID_1187_" d="m188.515 110.833c0-12.039 9.794-21.833 21.833-21.833h5.38v-30h-5.38c-28.581 0-51.833 23.252-51.833 51.833v15.167h30z"/><path id="XMLID_1188_" d="m127.333 21h30v40h-30z"/></g></svg>