<svg id="Capa_1" enable-background="new 0 0 512 512" height="512" viewBox="0 0 512 512" width="512" xmlns="http://www.w3.org/2000/svg"><g><path d="m166 60h60v30h-60z"/><path d="m166 422h60v30h-60z"/><path d="m346 211h30v-30h30v-30h-30v-30h-30v30h-30v30h30z"/><path d="m46 0v512h300v-242.076c4.901.704 9.907 1.076 15 1.076 57.897 0 105-47.103 105-105 0-58.449-47.103-106-105-106-5.093 0-10.099.375-15 1.086v-61.086zm270 482h-240v-452h240v40.241c-35.443 17.044-60 53.559-60 95.759 0 41.802 24.557 77.973 60 94.855zm120-316c0 41.355-33.645 75-75 75s-75-33.645-75-75c0-41.907 33.645-76 75-76s75 34.093 75 76z"/><path d="m241 226c0-24.813-20.187-45-45-45s-45 20.187-45 45 20.187 45 45 45 45-20.187 45-45zm-45 15c-8.271 0-15-6.729-15-15s6.729-15 15-15 15 6.729 15 15-6.729 15-15 15z"/><path d="m196 271c-41.355 0-75 33.645-75 75v15h150v-15c0-41.355-33.645-75-75-75zm-42.43 60c6.191-17.461 22.874-30 42.43-30s36.239 12.539 42.43 30z"/></g></svg>