<?xml version="1.0" encoding="iso-8859-1"?>
<!-- Generator: Adobe Illustrator 19.0.0, SVG Export Plug-In . SVG Version: 6.00 Build 0)  -->
<svg xmlns="http://www.w3.org/2000/svg" xmlns:xlink="http://www.w3.org/1999/xlink" version="1.1" id="Layer_1" x="0px" y="0px" viewBox="0 0 512 512" style="enable-background:new 0 0 512 512;" xml:space="preserve">
<g>
	<g>
		<path d="M60.497,0l41.426,512h308.155L451.503,0H60.497z M382.408,482H129.592l-2.273-28.093H384.68L382.408,482z     M387.107,423.906H124.892l-20.944-258.861c9.757-2.175,25.077-4.81,42.958-5.096c39.985-0.65,73.43,10.182,99.403,32.161    c33.226,28.116,74.238,35.616,108.557,35.615c19.063-0.001,36.052-2.316,48.494-4.698L387.107,423.906z M405.887,191.808    c-25.086,5.732-93.887,16.59-140.198-22.598c-31.466-26.628-73.053-40.197-120.265-39.239c-17.6,0.357-32.898,2.656-43.917,4.905    L93.022,30h325.956L405.887,191.808z"/>
	</g>
</g>
<g>
</g>
<g>
</g>
<g>
</g>
<g>
</g>
<g>
</g>
<g>
</g>
<g>
</g>
<g>
</g>
<g>
</g>
<g>
</g>
<g>
</g>
<g>
</g>
<g>
</g>
<g>
</g>
<g>
</g>
</svg>
