<svg id="Layer_1" enable-background="new 0 0 510 510" height="512" viewBox="0 0 510 510" width="512" xmlns="http://www.w3.org/2000/svg"><g><path d="m510 209.954h-360v-60h-150v300h30v60h90v-60h270v60h90v-60h30zm-390 0h-30v-30h30zm-90-30h30v30h-30zm60 300h-30v-30h30zm360 0h-30v-30h30zm30-60c-57.674 0-400.511 0-450 0v-180h450z"/><path d="m60 389.954h90v-120h-90zm30-90h30v60h-30z"/><path d="m330 269.954h-90v120h90zm-30 90h-30v-60h30z"/><path d="m450 269.954h-90v120h90zm-30 90h-30v-60h30z"/><path d="m180 284.954h30v30h-30z"/><path d="m180 344.954h30v30h-30z"/><path d="m223.18 163.134c17.546-17.545 46.095-17.545 63.64 0l21.213-21.213c-29.242-29.242-76.824-29.244-106.066 0z"/><path d="m350.459 99.495c-52.759-52.759-138.154-52.765-190.919 0l21.213 21.213c41.033-41.033 107.453-41.04 148.493 0z"/><path d="m371.673 78.281 21.213-21.213c-76.031-76.029-199.741-76.029-275.771 0l21.213 21.213c64.333-64.332 169.011-64.332 233.345 0z"/></g></svg>