<svg id="Capa_1" enable-background="new 0 0 512 512" height="512" viewBox="0 0 512 512" width="512" xmlns="http://www.w3.org/2000/svg"><g><path d="m256 226c-90.981 0-165 74.019-165 165 0 41.355 33.645 75 75 75h180c41.355 0 75-33.645 75-75 0-90.981-74.019-165-165-165zm90 210h-180c-24.813 0-45-20.187-45-45 0-74.439 60.561-135 135-135s135 60.561 135 135c0 24.813-20.187 45-45 45z"/><path d="m271 316h-30v30h-30v30h30v30h30v-30h30v-30h-30z"/><path d="m120 226c0-44.903-29.308-75-60-75-31.009 0-60 30.539-60 75 0 44.903 29.308 75 60 75 31.009 0 60-30.539 60-75zm-60 45c-16.262 0-30-20.607-30-45s13.738-45 30-45 30 20.607 30 45-13.738 45-30 45z"/><path d="m181 196c31.009 0 60-30.539 60-75 0-44.903-29.308-75-60-75-31.009 0-60 30.539-60 75 0 44.903 29.308 75 60 75zm0-120c16.262 0 30 20.607 30 45s-13.738 45-30 45-30-20.607-30-45 13.738-45 30-45z"/><path d="m331 196c31.009 0 60-30.539 60-75 0-44.903-29.308-75-60-75-31.009 0-60 30.539-60 75 0 44.903 29.308 75 60 75zm0-120c16.262 0 30 20.607 30 45s-13.738 45-30 45-30-20.607-30-45 13.738-45 30-45z"/><path d="m452 151c-31.009 0-60 30.539-60 75 0 44.903 29.308 75 60 75 31.009 0 60-30.539 60-75 0-44.903-29.308-75-60-75zm0 120c-16.262 0-30-20.607-30-45s13.738-45 30-45 30 20.607 30 45-13.738 45-30 45z"/></g></svg>