<svg id="Capa_1" enable-background="new 0 0 512 512" height="512" viewBox="0 0 512 512" width="512" xmlns="http://www.w3.org/2000/svg"><path d="m361.438 45.125c8.34 0 15.125 6.785 15.125 15.125h30c0-24.882-20.243-45.125-45.125-45.125h-150.626c-8.34 0-15.125-6.785-15.125-15.125h-30c0 19.624 12.596 36.354 30.125 42.552v47.823h-30.125v60.25h-60.25v361.375h271v-361.375h-60.25v-60.25h-30.125v-45.25zm-194.222 301.313h-31.778v-30.25h31.778c-1.002 4.887-1.528 9.946-1.528 15.125s.526 10.237 1.528 15.125zm-31.778 135.562v-105.562h45.33c13.736 18.259 35.578 30.091 60.135 30.091s46.399-11.832 60.135-30.091h45.4v105.562zm60.25-150.688c0-24.932 20.284-45.216 45.215-45.216s45.215 20.284 45.215 45.216-20.284 45.216-45.215 45.216-45.215-20.284-45.215-45.216zm118.902-15.124h31.848v30.25h-31.848c1.002-4.887 1.528-9.946 1.528-15.125s-.526-10.238-1.528-15.125zm31.848-135.563v105.562h-45.4c-13.736-18.259-35.578-30.091-60.135-30.091s-46.399 11.832-60.135 30.091h-45.33v-105.562zm-60.25-60.25v30.25h-90.5v-30.25h.125 90.25zm-30.126-30h-30.25v-45.25h30.25z"/></svg>