<svg id="Capa_1" enable-background="new 0 0 512 512" height="512" viewBox="0 0 512 512" width="512" xmlns="http://www.w3.org/2000/svg"><g><path d="m152.161 267.803c0 57.257 46.582 103.839 103.839 103.839s103.839-46.582 103.839-103.839c0-40.54-23.333-76.767-59.218-93.791-5.561-19.406-23.453-33.654-44.621-33.654s-39.06 14.248-44.621 33.653c-35.885 17.024-59.218 53.251-59.218 93.792zm87.418-81.024c0-9.055 7.366-16.421 16.421-16.421s16.421 7.366 16.421 16.421v25.074h-16.421c-9.055 0-16.421-7.366-16.421-16.421zm-28.03 22.02c5.754 19.1 23.5 33.055 44.451 33.055h46.421v-31.525c17.007 13.725 27.418 34.636 27.418 57.474 0 40.715-33.124 73.839-73.839 73.839s-73.839-33.124-73.839-73.839c0-23.706 11.22-45.332 29.388-59.004z"/><path d="m256 311.643c22.041 0 39.973-17.932 39.973-39.974h-30c0 5.499-4.474 9.974-9.973 9.974s-9.973-4.475-9.973-9.974h-30c0 22.042 17.931 39.974 39.973 39.974z"/><path d="m489.77 30v-30h-467.54v30h29.598v452h-29.598v30h467.54v-30h-29.598v-452zm-59.598 382.68h-348.344v-313.36h348.344zm-348.344 69.32v-39.32h348.344v39.32zm348.344-412.68h-348.344v-39.32h348.344z"/></g></svg>