<svg id="Layer_1" enable-background="new 0 0 510 510" height="512" viewBox="0 0 510 510" width="512" xmlns="http://www.w3.org/2000/svg"><g><path d="m0 45v420h510v-420zm480 390h-450v-360h450z"/><path d="m151.82 404.768c.664-.636-7.675 7.351 63.64-60.949 17.544-17.545 17.544-46.094 0-63.639h-.001c-17.545-17.547-46.095-17.547-63.64 0-17.545-17.546-46.094-17.546-63.64 0-17.544 17.545-17.544 46.094 0 63.639zm-42.427-103.375c5.864-5.862 15.35-5.862 21.214 0l21.213 21.213 21.213-21.213c5.863-5.862 15.351-5.862 21.214 0h-.001c5.816 5.816 5.849 15.261.095 21.117l-42.521 40.721-42.521-40.721c-5.754-5.856-5.722-15.3.094-21.117z"/><path d="m151.82 242.768 63.408-60.722.233-.227c17.544-17.545 17.544-46.094 0-63.639h-.001c-17.545-17.547-46.095-17.547-63.64 0-17.545-17.547-46.094-17.545-63.64 0-17.544 17.545-17.544 46.094 0 63.639zm-42.427-103.375c5.864-5.862 15.35-5.862 21.214 0l21.213 21.213 21.213-21.213c5.863-5.862 15.351-5.862 21.214 0h-.001c5.816 5.816 5.849 15.261.095 21.117l-42.521 40.721-42.521-40.721c-5.754-5.856-5.722-15.3.094-21.117z"/><path d="m358.181 404.768c.665-.637-7.683 7.357 63.639-60.949 17.546-17.545 17.546-46.094 0-63.639-17.545-17.545-46.094-17.545-63.639 0h-.001c-17.545-17.545-46.094-17.545-63.639 0-17.546 17.545-17.546 46.094 0 63.639zm-42.427-103.375c5.861-5.862 15.351-5.863 21.213.001l21.215 21.212 21.212-21.213c14.443-13.573 34.715 6.697 21.307 21.118l-42.52 40.72-42.522-40.721c-5.754-5.856-5.721-15.3.095-21.117z"/><path d="m358.181 242.768c.665-.637-7.683 7.357 63.639-60.949 17.546-17.545 17.546-46.094 0-63.639-17.545-17.545-46.094-17.545-63.639 0h-.001c-17.545-17.545-46.094-17.545-63.639 0-17.546 17.545-17.546 46.094 0 63.639zm-42.427-103.375c5.861-5.862 15.351-5.863 21.213.001l21.215 21.212 21.212-21.213c14.526-13.501 34.657 6.529 21.307 21.118l-42.52 40.72-42.522-40.721c-5.754-5.856-5.721-15.3.095-21.117z"/></g></svg>