<svg id="Capa_1" enable-background="new 0 0 512 512" height="512" viewBox="0 0 512 512" width="512" xmlns="http://www.w3.org/2000/svg"><g><path d="m317.866 0v512h152.267v-512zm122.267 482h-92.267v-452h92.267z"/><path d="m164.866 133.001c-67.822 0-122.999 55.177-122.999 122.999s55.177 122.999 122.999 122.999 123-55.177 123-122.999-55.178-122.999-123-122.999zm-81.935 79.041c20.634 3.988 36.269 22.177 36.269 43.958s-15.635 39.97-36.268 43.958c-7.056-13.098-11.065-28.068-11.065-43.958s4.009-30.86 11.064-43.958zm19.85 113.135c27.208-11.195 46.419-37.979 46.419-69.177s-19.211-57.982-46.419-69.177c16.476-14.802 38.246-23.822 62.085-23.822 24.107 0 46.099 9.221 62.639 24.319-27.123 11.023-46.305 37.646-46.305 68.68s19.182 57.657 46.305 68.68c-16.54 15.098-38.532 24.319-62.639 24.319-23.839 0-45.609-9.02-62.085-23.822zm144.347-25.837c-20.425-3.85-35.928-21.813-35.928-43.34s15.503-39.49 35.928-43.34c6.85 12.95 10.738 27.698 10.738 43.34s-3.888 30.39-10.738 43.34z"/></g></svg>