<?xml version="1.0" encoding="iso-8859-1"?>
<!-- Generator: Adobe Illustrator 19.0.0, SVG Export Plug-In . SVG Version: 6.00 Build 0)  -->
<svg xmlns="http://www.w3.org/2000/svg" xmlns:xlink="http://www.w3.org/1999/xlink" version="1.1" id="Layer_1" x="0px" y="0px" viewBox="0 0 511.999 511.999" style="enable-background:new 0 0 511.999 511.999;" xml:space="preserve">
<g>
	<g>
		<path d="M453.336,222.586L314.225,0.795l-26.517,16.632l128.679,205.158H94.658L223.337,17.428L196.82,0.796L57.709,222.586H0    l57.896,288.618h396.206l57.896-288.618H453.336z M38.203,253.887h81.219l12.243,102.84H58.833L38.203,253.887z M83.543,479.902    l-18.43-91.874h70.279l10.938,91.874H83.543z M212.069,479.902h-34.902l-10.938-91.874h74.46v91.874H212.069z M240.69,356.727    L240.69,356.727h-78.187l-12.243-102.84h90.43V356.727z M332.047,479.902h-60.735v-91.874h71.673L332.047,479.902z     M346.711,356.727h-75.4v-102.84h87.643L346.711,356.727z M428.457,479.902h-65.572l10.938-91.874h73.065L428.457,479.902z     M453.166,356.727h-75.618l12.243-102.84h84.005L453.166,356.727z"/>
	</g>
</g>
<g>
</g>
<g>
</g>
<g>
</g>
<g>
</g>
<g>
</g>
<g>
</g>
<g>
</g>
<g>
</g>
<g>
</g>
<g>
</g>
<g>
</g>
<g>
</g>
<g>
</g>
<g>
</g>
<g>
</g>
</svg>
