<svg id="Capa_1" enable-background="new 0 0 510.001 510.001" height="512" viewBox="0 0 510.001 510.001" width="512" xmlns="http://www.w3.org/2000/svg"><g><path d="m30 180.001v30h90.001v-90.001h-60.001v-30h60.001v-30h-90.001v90.001h60.001v30z"/><path d="m390 180.001v30h90.001v-90.001h-60.001v-30h60.001v-30h-90.001v90.001h60.001v30z"/><path d="m150 60v150.001h90.001v-150.001h-30v120.001h-30.001v-120.001z"/><path d="m315.001 60h-45v150.001h45c24.813 0 45-20.188 45-45 0-11.517-4.353-22.032-11.495-30 7.142-7.968 11.495-18.483 11.495-30 0-24.813-20.187-45.001-45-45.001zm-15.001 30h15c8.271 0 15 6.729 15 15.001 0 8.267-6.722 14.992-14.987 14.999-.161.001-14.877 0-15.013 0zm15.001 90.001h-15v-30c.311 0 15.448 0 15.013 0 8.265.007 14.987 6.733 14.987 15 0 8.27-6.729 15-15 15z"/><path d="m0 240v30.001h187.98c-14.281 15.935-22.98 36.969-22.98 59.999v120.001h45v15c0 24.812 20.187 45 45.001 45 24.813 0 45-20.188 45-45v-15h45v-120.001c0-23.03-8.699-44.064-22.979-59.999h187.979v-30.001zm270.001 225.001c0 8.271-6.729 15-15 15-8.272 0-15.001-6.729-15.001-15v-15h30v15zm-75.001-45v-30h120v30c-9.057 0-97.332 0-120 0zm120.001-90.001v30h-120.001v-30c0-33.07 26.895-59.978 59.962-59.999h.077c33.067.021 59.962 26.929 59.962 59.999z"/><path d="m0 0h510v30.001h-510z"/></g></svg>