<svg id="Capa_1" enable-background="new 0 0 512 512" height="512" viewBox="0 0 512 512" width="512" xmlns="http://www.w3.org/2000/svg"><g><path d="m467.7 392.169h-81.189c-7.885 0-14.3-6.415-14.3-14.3s6.415-14.3 14.3-14.3h25.083c25.26 0 45.811-20.551 45.811-45.811v-122.096c19.027-6.313 32.795-24.264 32.795-45.382v-75.02h-30v34.937h-35.624v-34.937h-30v75.021c0 21.131 13.784 39.091 32.829 45.394v122.085c0 8.718-7.093 15.811-15.811 15.811h-25.083c-24.427 0-44.3 19.873-44.3 44.3s19.873 44.3 44.3 44.3h81.189c7.885 0 14.3 6.415 14.3 14.3v.231c0 7.885-6.415 14.3-14.3 14.3h-186.734v-.619l36.676-36.677v-102.386c0-58.469-13.643-117.105-39.454-169.569-25.812-52.463-63.939-99.054-110.259-134.734l-9.108-7.017-9.108 7.017c-46.32 35.68-84.447 82.271-110.258 134.735-25.812 52.463-39.455 111.099-39.455 169.568v102.384l36.676 36.676v61.62h244.29v-31h186.734c24.427 0 44.3-19.873 44.3-44.3v-.231c0-24.427-19.873-44.3-44.3-44.3zm-43.125-251.973h35.624v10.084c0 9.821-7.99 17.812-17.812 17.812-9.821 0-17.812-7.99-17.812-17.812zm-394.724 171.124c0-53.925 12.583-108.005 36.388-156.391 22.091-44.902 53.966-85.141 92.582-117.002 38.615 31.86 70.491 72.101 92.582 117.002 23.806 48.386 36.389 102.466 36.389 156.391v90.019l-21.108 21.108h-215.725l-21.108-21.108zm221.264 170.829h-184.588v-29.851h184.588z"/><path d="m145.125 117.979h30v30h-30z"/><path d="m115.125 147.979h30v30h-30z"/><path d="m175.125 147.979h30v30h-30z"/></g></svg>