<svg id="Capa_1" enable-background="new 0 0 512 512" height="512" viewBox="0 0 512 512" width="512" xmlns="http://www.w3.org/2000/svg"><g><path d="m363 140.345v-61.433h-51.135c-15.906-56.067-95.63-56.618-111.759 0h-51.106v61.433h-149v335h512v-335zm-184-31.433h49.136v-15c-.302-14.699 12.644-27.644 27.346-27.34 15.363-.554 28.354 11.833 28.382 27.259 0 0 .087 15.081.087 15.081h49.049v31.433h-154zm303 336.433h-452v-275h452z"/><path d="m308 402.845h90v-50h50v-90h-50v-50h-90v50h-50v90h50zm-20-80v-30h50v-50h30v50h50v30h-50v50h-30v-50z"/><path d="m211 333.845c0-24.487-12.832-46.02-32.114-58.269 5.107-7.298 8.114-16.167 8.114-25.731 0-24.813-20.187-45-45-45s-45 20.187-45 45c0 9.563 3.008 18.433 8.114 25.731-19.282 12.249-32.114 33.782-32.114 58.269v20h138zm-84-84c0-8.271 6.729-15 15-15s15 6.729 15 15-6.729 15-15 15-15-6.729-15-15zm-22.701 74c4.427-16.675 19.652-29 37.701-29s33.273 12.325 37.701 29z"/><path d="m73 380.845h138v30h-138z"/></g></svg>