<svg id="Layer_1" enable-background="new 0 0 510 510" height="512" viewBox="0 0 510 510" width="512" xmlns="http://www.w3.org/2000/svg"><path d="m255 .798c-140.93 0-255 114.049-255 255 12.344 337.905 497.696 337.838 510-.003 0-140.928-114.049-254.997-255-254.997zm0 30c56.646 0 108.463 21.05 148.06 55.728l-43.061 43.061c-29.104-19.251-68.782-16.072-94.393 9.539l-84.852 84.854c-13.124 13.124-20.773 30.259-21.828 48.64h-29.869l-30.194 60.388 28.858 28.858-41.994 41.993c-126.832-141.396-22.493-374.655 169.273-373.061zm-119.634 296.285 12.232-24.464h15.661c2.006 5.536 4.667 10.822 7.947 15.761l-22.272 22.271zm140.847-156.138 21.214 21.214-63.64 63.64-21.213-21.213zm23.037-19.388c12.227-5.824 26.552-5.823 38.778 0l-19.389 19.389zm-106.084 106.047 19.408 19.407-19.408 19.408c-5.759-12.033-5.921-26.443 0-38.815zm-.747 81.988c4.939 3.279 10.225 5.94 15.761 7.947v15.661l-24.464 12.232-13.569-13.568zm21.96-21.96 19.408-19.408 19.408 19.408c-11.988 5.737-26.395 5.944-38.816 0zm61.834-19.407-21.213-21.214 63.64-63.64 21.214 21.214zm83.029-86.677-19.39-19.39 19.389-19.389c5.824 12.227 5.825 26.552.001 38.779zm-104.242 269.25c-56.646 0-108.463-21.05-148.06-55.728l41.994-41.993 28.858 28.857 60.388-30.193v-29.869c18.38-1.056 35.515-8.703 48.639-21.828l84.854-84.853c25.61-25.611 28.788-65.288 9.539-94.392l43.061-43.062c126.832 141.397 22.493 374.656-169.273 373.061z"/></svg>