<svg id="Capa_1" enable-background="new 0 0 511.508 511.508" height="512" viewBox="0 0 511.508 511.508" width="512" xmlns="http://www.w3.org/2000/svg"><g><path d="m417 301.38h-10c-19.902-.828-19.893-29.178 0-30h16c35.841 0 65-29.159 65-65s-29.159-65-65-65h-53v-29h-60v-92.253h-310v210.253h103.861c-22.796 38.784 6.427 89.424 51.64 89-.001 0 21.499 0 21.499 0 30.532 1.274 30.486 44.748 0 46h-75c-83.511 3.424-83.616 122.528 0 126h315c125.925-5.169 126.096-184.754 0-190zm-77-159v28h-30v-28zm-250 58v-150.253h130v150.253s-112.271 0-130 0zm160-150.253h30v150.253h-30zm-220 0h30v150.253h-30zm387 411.253h-315c-18.196 0-33-14.804-33-33s14.804-33 33-33h75c29.224 0 53-23.775 53-53s-23.776-53-53-53h-21.5c-16.267 0-29.5-13.233-29.5-29.5s13.233-29.5 29.5-29.5h154.5v-30h60v-29h53c19.299 0 35 15.701 35 35s-15.701 35-35 35h-16c-24.813 0-45 20.187-45 45s20.187 45 45 45h10c35.841 0 65 29.159 65 65s-29.159 65-65 65z"/><path d="m361 374.38h30v30h-30z"/><path d="m272 285.38h30v30h-30z"/><path d="m253 403.38h30v30h-30z"/><path d="m163.118 110.253-15.208-20.742-24.194 17.738 13.247 18.068-13.247 18.067 24.193 17.738 15.302-20.869h21.789v-30zm-7.618 14.978v.173l-.118-.086z"/></g></svg>