<svg id="Capa_1" enable-background="new 0 0 512 512" height="512" viewBox="0 0 512 512" width="512" xmlns="http://www.w3.org/2000/svg"><g><path d="m353.875 247.761h-30v23.364h-23.364v30h23.364v23.364h30v-23.364h23.364v-30h-23.364z"/><path d="m459.312 30v-30h-406.624v30h45.25v482h90.25v-482h135.688v30.25h-.062c-24.882 0-45.125 20.243-45.125 45.125v15.125h-60.25v232.088l38.912 38.912h66.526v30.25h-21.561v30h21.561v60.25h30v-60.25h21.561v-30h-21.561v-30.25h66.526l38.912-38.912v-232.088h-60.25v-15.125c0-24.882-20.243-45.125-45.125-45.125h-.062v-30.25zm-51.338 331.5h-138.198l-21.338-21.338v-8.912h28.969v-30h-28.969v-30.25h28.969v-30h-28.969v-30.25h180.875v30.25h-28.969v30h28.969v30.25h-28.969v30h28.969v8.912zm21.338-180.75h-180.874v-30.25h180.875v30.25zm-60.25-75.375v15.125h-60.375v-15.125c0-8.34 6.785-15.125 15.125-15.125h30.125c8.34 0 15.125 6.785 15.125 15.125zm-210.874 376.625h-30.25v-452h30.25z"/></g></svg>