<svg id="Layer_1" enable-background="new 0 0 509.84 509.84" height="512" viewBox="0 0 509.84 509.84" width="512" xmlns="http://www.w3.org/2000/svg"><g id="XMLID_964_"><path id="XMLID_967_" d="m489.659 296.542-53.506-90.144c-2.423-179.039-230.009-275.642-357.905-148.297-91.896 85.214-79.342 249.135 11.441 330.219v121.52h255v-75h58.681c17.27 0 31.319-14.045 31.319-31.31v-58.69h28.657c11.567 0 22.146-6.335 27.607-16.532 5.39-10.066 4.885-22.195-1.294-31.766zm-25.153 17.604c-.371.694-.884.694-1.159.694h-58.657v88.69c0 .722-.592 1.31-1.319 1.31h-88.681v75h-195v-105.791l-5.671-4.504c-126.214-108.548-73.137-340.091 110.427-339.681 100.217 1.626 181.749 82.697 181.749 180.722v4.116c.58.977-6.831-11.503 58.247 98.092.153.23.437.656.064 1.352z"/><path id="XMLID_970_" d="m329.689 164.84h-60v-30h-60v-30h-90v150h-30v30h150 30 90v-30h-30zm-180 90v-120h30v120zm60 0v-90h30v90zm60 0v-60h30v60z"/></g></svg>