<svg id="Capa_1" enable-background="new 0 0 512 512" height="512" viewBox="0 0 512 512" width="512" xmlns="http://www.w3.org/2000/svg"><g><path d="m168 343.905h30v30h-30z"/><path d="m269 343.905h30v30h-30z"/><path d="m168 167.905h70v30h-70z"/><path d="m168 227.905h70v30h-70z"/><path d="m168 70.905h103v30h-103z"/><path d="m447 290.57c12.756-12.756 34.242-33.494 34.242-33.494 19.759-19.916 32.09-39.105 30.635-66.306-1.355-34.068-31.053-65.92-64.877-70.141v-26.293c0-50.967-41.464-92.431-92.431-92.431h-282.569v.168c-39.022-1.818-72.104 29.864-72 68.928v36.904h108v332.964c0 38.172 30.878 69.227 68.833 69.227v-.19h265.94c38.171 0 69.226-31.055 69.226-69.227v-36.773h-65v-113.336zm-52.547 10.122-30.787-30.787h61.574zm73.216-73.217-12.43 12.43h-121.573l-13.152-13.152c-5.902-6.471-10.373-14.376-12.392-22.848h172.663c-2.119 8.773-6.796 17.043-13.116 23.57zm8.814-53.57h-164.061c17.542-29.609 51.27-30.008 71.782-9.952 0-.001 10.247 9.952 10.247 9.952l10.249-9.951c20.524-20.066 54.258-19.642 71.783 9.951zm-368.483-96h-78v-6.904c-.002-21.492 17.511-39.004 39.002-39 20.96-.433 39.433 18.037 38.998 39zm108 362.644c0 21.625-17.593 39.279-39.213 39.355v.189c-21.392-.025-38.787-17.61-38.787-39.224v-369.868c0-14.173-4.257-27.681-12.141-39.096h228.71c34.424 0 62.431 28.006 62.431 62.431v28.433c-7.837 2.3-15.4 5.965-22.546 10.951-74.348-50.297-158.084 47.195-95.808 113.574l95.807 95.824 22.547-22.547v83.334h-201zm266 .129c0 21.63-17.597 39.227-39.226 39.227h-209.071c9.384-13.32 13.064-29.056 12.297-46h236z"/></g></svg>