<svg id="Capa_1" enable-background="new 0 0 510 510" height="512" viewBox="0 0 510 510" width="512" xmlns="http://www.w3.org/2000/svg"><g><path d="m420 120h30v30h-30z"/><path d="m420 60h30v30h-30z"/><path d="m60 120h30v30h-30z"/><path d="m60 60h30v30h-30z"/><path d="m0 0v510h510c0-22.725 0-475.054 0-510zm30 330h60v90h-60zm150 60h60v30h-30v30h30v30h-60zm150-30h-150v-30h150zm-60 120v-30h30v-30h-30v-30h60v90zm210-60h-60v-90h60zm0-120h-90v150h90v30h-120c0-10.626 0-170.11 0-180h-210v180h-120v-30h90v-150h-90v-90h90v60h105c11.515 0 22.033-4.347 30-11.486 7.967 7.14 18.485 11.486 30 11.486h105v-60h90zm-330-150h60v-30h-60v-30h75c8.271 0 15 6.729 15 15v120c0 8.271-6.729 15-15 15h-75v-30h60v-30h-60zm135-60h75v30h-60v30h60v30h-60v30h60v30h-75c-8.271 0-15-6.729-15-15v-120c0-8.271 6.729-15 15-15zm105 90v-120h-105c-11.515 0-22.033 4.347-30 11.486-7.967-7.139-18.485-11.486-30-11.486h-105v120h-90v-150h450v150z"/></g></svg>