<svg id="Layer_1" enable-background="new 0 0 510 510" height="512" viewBox="0 0 510 510" width="512" xmlns="http://www.w3.org/2000/svg"><g><path d="m105 0v510h300v-510zm270 120h-105v-90h105zm-135 150v90h-105v-90zm-105-30v-90h105v90zm135 30h105v90h-105zm0-30v-90h105v90zm-30-210v90h-105v-90zm-105 360h105v90h-105zm135 90v-90h105v90z"/><path d="m165 60h45v30h-45z"/><path d="m165 180h45v30h-45z"/><path d="m165 300h45v30h-45z"/><path d="m165 420h45v30h-45z"/><path d="m300 60h45v30h-45z"/><path d="m300 180h45v30h-45z"/><path d="m300 300h45v30h-45z"/><path d="m300 420h45v30h-45z"/></g></svg>