<svg id="Capa_1" enable-background="new 0 0 512 512" height="512" viewBox="0 0 512 512" width="512" xmlns="http://www.w3.org/2000/svg"><g><path d="m425.379 75.376c-45.177-48.606-105.328-75.374-169.374-75.376-.001 0-.003 0-.004 0 0 0 0 0-.001 0-64.048 0-124.201 26.769-169.379 75.376-44.896 48.302-69.621 112.449-69.621 180.624s24.725 132.322 69.621 180.625c45.178 48.606 105.331 75.375 169.379 75.375s124.201-26.769 169.379-75.375c44.895-48.303 69.621-112.451 69.621-180.625s-24.726-132.322-69.621-180.624zm-169.379-45.376c17.002 0 30.834 13.832 30.834 30.833s-13.832 30.833-30.834 30.833c-17.001 0-30.833-13.831-30.833-30.833s13.832-30.833 30.833-30.833zm-209 226c0-103.441 64.603-190.867 152.469-217.594-.429 1.078-6.932 18.181-9.58 25.485-7.303 20.147-14.2 39.178-25.901 53.696-4.816 5.976-10.03 10.945-15.55 16.206-13.443 12.814-28.681 27.338-34.679 56.038-6.253 29.913 1.006 51.679 6.838 69.168 3.463 10.385 6.198 18.587 5.445 26.022-.761 7.52-3.538 13.849-6.753 21.176-5.988 13.647-13.441 30.631-7.473 57.661 5.154 23.342 17.4 34.867 28.205 45.035 9.052 8.518 17.602 16.564 24.821 32.747 3.912 8.769 8.404 16.821 13.372 24.116-76.831-33.435-131.214-114.852-131.214-209.756zm209 225.995c-25.235 0-49.071-19.655-63.76-52.578-9.672-21.681-21.862-33.153-31.657-42.371-9.823-9.244-16.312-15.351-19.471-29.657-3.858-17.471.337-27.032 5.649-39.137 3.699-8.43 7.892-17.985 9.129-30.21 1.4-13.839-2.785-26.393-6.834-38.533-5.175-15.518-10.525-31.563-5.932-53.54 4.089-19.563 13.764-28.785 26.013-40.46 5.977-5.697 12.157-11.588 18.208-19.096 9.162-11.369 15.747-24.223 21.287-37.47 11.16 13.844 28.242 22.724 47.367 22.724s36.208-8.879 47.368-22.724c5.54 13.247 12.125 26.102 21.287 37.47 6.051 7.508 12.231 13.399 18.208 19.096 12.249 11.675 21.924 20.897 26.013 40.46 4.593 21.976-.758 38.022-5.932 53.539-4.049 12.141-8.235 24.694-6.834 38.534 1.237 12.225 5.43 21.78 9.129 30.21 5.312 12.105 9.508 21.666 5.649 39.136-3.158 14.306-9.648 20.413-19.471 29.657-9.795 9.218-21.985 20.69-31.658 42.371-14.687 32.924-38.522 52.579-63.758 52.579zm77.784-16.239c4.968-7.295 9.46-15.348 13.372-24.117 7.22-16.183 15.77-24.228 24.821-32.746 10.805-10.168 23.052-21.693 28.206-45.035 5.969-27.029-1.484-44.013-7.473-57.66-3.215-7.328-5.992-13.656-6.753-21.176v-.001c-.753-7.435 1.982-15.638 5.445-26.023 5.832-17.489 13.09-39.254 6.838-69.166-2.7-12.918-7.483-24.082-14.624-34.128-6.158-8.664-13.223-15.398-20.055-21.91-5.52-5.261-10.733-10.23-15.55-16.206-11.701-14.518-18.599-33.549-25.901-53.696-2.647-7.304-9.151-24.407-9.58-25.485 87.867 26.727 152.47 114.153 152.47 217.593 0 94.904-54.383 176.321-131.216 209.756z"/><path d="m256 215.001c-17.535 0-33.069 12.49-43.741 35.169-8.979 19.081-13.925 44.118-13.925 70.498s4.945 51.417 13.925 70.498c10.672 22.679 26.206 35.169 43.741 35.169s33.07-12.49 43.742-35.169c8.979-19.081 13.925-44.118 13.925-70.498s-4.945-51.417-13.925-70.499c-10.672-22.679-26.207-35.168-43.742-35.168zm0 181.333c-9.39 0-27.666-26.708-27.666-75.667s18.276-75.666 27.666-75.666c9.391 0 27.667 26.708 27.667 75.667s-18.277 75.666-27.667 75.666z"/><path d="m241 150.333h30v30h-30z"/></g></svg>