<svg id="Capa_1" enable-background="new 0 0 512 512" height="512" viewBox="0 0 512 512" width="512" xmlns="http://www.w3.org/2000/svg"><g><path d="m406 211.18h-60v-90.18h-32.126l-20.167-121h-135.414l-20.167 121h-32.126v270h32.126l20.167 121h135.414l20.167-121h32.126v-90.18h60zm-137.707-181.18 5 30h-94.586l5-30zm-94.586 60h104.586l5.167 31h-114.92zm142.293 61v89.997l-56.237.003-27.941 25.624-30.331-75.287-43.123 49.659h-22.368v-89.996zm-132.293 331-5-30h94.586l-5 30zm94.586-60h-104.586l-5.167-31h114.92zm-142.293-61v-90.004h36.05l19.939-22.962 28.189 69.971 51.259-47.005 44.563-.003v90.003zm240-90.18h-30v-29.64h30z"/></g></svg>