<svg id="Capa_1" enable-background="new 0 0 512.001 512.001" height="512" viewBox="0 0 512.001 512.001" width="512" xmlns="http://www.w3.org/2000/svg"><g><path d="m187.896 176.246h40.551l-40.551 63.626v30.374h75.25v-30h-39.913l39.913-62.626v-31.374h-75.25z"/><path d="m359.741 120.639v-30.264h-68.72v30h31.84l-31.309 43.13v29.397h68.552v-30h-31.043z"/><path d="m489.774 205.774c0-113.464-92.31-205.774-205.774-205.774-44.388 0-86.66 13.912-122.247 40.233-34.871 25.792-60.319 61.137-73.593 102.215l-.352 1.089-8.956 55.412-56.625 102.69v38.361h47.105l18.983 103.695h106.936l16.135 68.306h244.439l-28.293-158.774c39.656-38.635 62.242-91.901 62.242-147.453zm-254.649 276.227-16.135-68.306h-105.668l-18.983-103.695h-42.112v-.639l55.41-100.485 9.417-58.27c23.826-72.188 90.773-120.606 166.946-120.606 96.922 0 175.774 78.853 175.774 175.774 0 49.867-21.306 97.577-58.454 130.897l-6.217 5.576 24.904 139.753h-184.882z"/></g></svg>