<svg id="Capa_1" enable-background="new 0 0 512 512" height="512" viewBox="0 0 512 512" width="512" xmlns="http://www.w3.org/2000/svg"><g><path d="m403.012 362v-362h-342.441l-60.571 60.571v391.429h120v60h392v-150zm-295.335-332h39.045v60.394h-39.045zm69.045 0h118.614v60.394h-118.614zm-146.722 42.997 42.998-42.997h4.679v90.394h247.659v-90.394h47.676v332h-30v-135.694h-283.012v195.694h-30zm60 349.003v-165.694h223.012v105.694h-193.012v60zm392 60h-332v-90h332z"/><path d="m180 422h45.5v30h-45.5z"/><path d="m255.5 422h45.5v30h-45.5z"/><path d="m331 422h45.5v30h-45.5z"/><path d="m406.5 422h45.5v30h-45.5z"/></g></svg>