<svg id="Capa_1" enable-background="new 0 0 512 512" height="512" viewBox="0 0 512 512" width="512" xmlns="http://www.w3.org/2000/svg"><g><path d="m497.497 326.964c-9.353-9.353-21.787-14.504-35.012-14.504s-25.659 5.151-35.01 14.503l-41.924 41.916c-7.723-12.841-21.111-21.89-36.674-23.712-6.967-16.887-18.378-31.968-32.888-43.208-13.352-10.344-28.667-17.18-44.988-20.191v-30.768h11.25c51.777 0 93.75-41.973 93.75-93.75v-15h-41.25c-24.598 0-47.009 9.527-63.75 25.079v-51.207c26.18-6.884 45.313-31.336 43.963-59.937-1.426-30.201-25.938-54.705-56.14-56.119-33.829-1.584-61.854 25.478-61.854 58.964 0 27.367 18.722 50.438 44.03 57.092v51.207c-16.741-15.552-39.152-25.079-63.75-25.079h-41.25v15c0 51.777 41.973 93.75 93.75 93.75h11.25v29.559c-30.244 3.134-57.911 19.393-75.389 44.377-26.602 1.193-51.733 9.917-73.301 25.484h-92.31v131.81h119.418l84.4 28.221c3.067 1.026 6.28 1.548 9.514 1.548h156.715c7.956 0 15.587-3.161 21.213-8.787l106.23-106.229c9.357-9.343 14.51-21.778 14.51-35.013s-5.154-25.671-14.503-35.006zm-267.747-105.964c-29.988 0-55.206-20.811-61.968-48.75h9.468c29.988 0 55.206 20.811 61.968 48.75zm105-48.75h9.468c-6.762 27.939-31.98 48.75-61.968 48.75h-9.468c6.762-27.939 31.98-48.75 61.968-48.75zm-107.78-113.22c0-16.008 13.023-29.03 29.03-29.03s29.03 13.022 29.03 29.03c0 16.007-13.022 29.029-29.03 29.029s-29.03-13.022-29.03-29.029zm88.167 285.78h-72.053c-12.525-7.673-26.17-13.235-40.388-16.523 13.456-11.594 30.829-18.287 49.024-18.287.35.001.7-.003 1.037.009l.302.009c25.85.449 48.86 13.816 62.078 34.792zm161.147 30.954-97.451 97.45c-5.626 5.626-13.257 8.787-21.213 8.787h-139.406c-3.234 0-6.447-.523-9.514-1.548l-84.4-28.221h-94.3v-71.812h72.473l4.069-3.178c18.819-14.694 41.426-22.462 65.378-22.462 1.349 0 2.697.026 4.045.079 19.437.721 38.279 6.761 54.488 17.467l3.761 2.483h108.6c10.536 0 19.373 8.247 19.772 18.776.038.991 0 1.946-.117 2.965l-.004.035c-.489 4.331-2.472 8.428-5.589 11.546-3.675 3.681-8.571 5.708-13.786 5.708h-104.37v30h104.37c13.237 0 25.672-5.153 35.007-14.503 6.545-6.546 11.116-14.84 13.203-23.783l57.387-57.377c3.686-3.687 8.586-5.717 13.798-5.717s10.112 2.03 13.807 5.725c3.681 3.676 5.708 8.571 5.708 13.785s-2.028 10.111-5.716 13.795z"/></g></svg>