<svg id="Capa_1" enable-background="new 0 0 512.044 512.044" height="512" viewBox="0 0 512.044 512.044" width="512" xmlns="http://www.w3.org/2000/svg"><g><path d="m512 227.824c-.099-61.942-50.521-112.302-112.486-112.302-17.373 0-34.769 4.106-50.305 11.876-4.094 2.047-8.274 3.923-12.523 5.631-5.054-4.743-12.47-9.963-20.498-12.801v-24.956h21.988v-30h-21.988v-30.25h21.988v-30h-164.352v30h21.988v30.25h-21.988v30h21.988v24.955c-6.443 2.31-14.426 6.963-20.496 12.801-4.249-1.709-8.429-3.583-12.524-5.63-15.538-7.77-32.933-11.876-50.306-11.876-62.025 0-112.486 50.461-112.486 112.499.612 76.189 41.864 111.092 77.493 161.45 8.307 11.076 12.882 24.801 12.882 38.646 0 43.508 35.396 78.904 78.905 78.904 21.077 0 40.892-8.208 55.794-23.111 15.67-16.398 45.288-17.265 61.853.001 14.903 14.903 34.718 23.11 55.794 23.11 43.508 0 78.905-35.396 78.905-78.905-.46-18.831 9.34-35.633 21.723-50.147 39.119-50.793 70.026-90.918 68.651-150.145zm-335.15 39.598 15.729 23.592c14.169 21.254 37.878 33.943 63.421 33.943s49.252-12.689 63.422-33.943l15.728-23.592c11.466 3.487 20.795 17.073 18.336 30.445-3.211 19.264-17.419 35.179-36.198 40.544l-43.381 12.395c-11.715 3.347-24.1 3.346-35.814 0l-43.381-12.395c-18.778-5.365-32.987-21.28-36.198-40.544-2.205-12.227 5.375-26.197 18.336-30.445zm48.962-232.4h60.375v30.25h-60.375zm60.376 60.25v22.04c-5.874.949-11.634 2.769-17.073 5.489-8.211 4.104-18.016 4.106-26.228 0-5.439-2.72-11.2-4.539-17.074-5.488v-22.041zm-81.053 53.498c6.612-2.723 16.103-3.279 24.335.863 16.612 8.308 36.448 8.308 53.061 0 7.607-3.803 16.476-4.118 24.335-.863 7.858 3.255 13.907 9.749 16.597 17.817 9.078 27.236 5.152 56.556-10.773 80.442l-18.229 27.344c-8.593 12.889-22.971 20.584-38.461 20.584s-29.867-7.695-38.46-20.584l-18.23-27.343c-15.924-23.887-19.851-53.206-10.772-80.441 2.69-8.07 8.739-14.564 16.597-17.819zm214.446 210.894c-15.654 17.853-28.665 43.166-27.956 68.454 0 26.966-21.938 48.904-48.905 48.904-13.063 0-25.344-5.087-34.581-14.324-26.932-28.197-76.726-28.799-104.278.001-9.237 9.236-21.518 14.323-34.581 14.323-26.966 0-48.905-21.938-48.905-48.905 0-20.221-6.657-40.266-18.75-56.469-32.199-45.538-71.997-80.15-71.625-143.64 0-45.483 37.003-82.486 82.487-82.486 12.739 0 25.495 3.012 36.889 8.708 3.327 1.664 6.702 3.233 10.118 4.708-8.626 27.266-7.478 56 2.877 81.946-22.687 9.449-38.202 36.587-33.448 61.914 5.104 30.627 27.693 55.928 57.548 64.458l43.38 12.395c15.936 4.56 34.776 5.058 52.297 0l43.381-12.395c29.855-8.53 52.444-33.831 57.548-64.458 4.425-24.527-9.542-51.797-33.451-61.908 10.358-25.949 11.506-54.686 2.879-81.954 3.416-1.475 6.792-3.042 10.119-4.706 11.393-5.697 24.149-8.708 36.889-8.708 45.483 0 82.486 37.003 82.486 82.486l.004.364c1.184 48.706-25.496 83.346-62.422 131.292z"/><path d="m156.625 400.772h30v30h-30z"/><path d="m325.375 400.772h30v30h-30z"/></g></svg>