<?xml version="1.0" encoding="iso-8859-1"?>
<!-- Generator: Adobe Illustrator 19.0.0, SVG Export Plug-In . SVG Version: 6.00 Build 0)  -->
<svg xmlns="http://www.w3.org/2000/svg" xmlns:xlink="http://www.w3.org/1999/xlink" version="1.1" id="Layer_1" x="0px" y="0px" viewBox="0 0 512.001 512.001" style="enable-background:new 0 0 512.001 512.001;" xml:space="preserve">
<g>
	<g>
		<path d="M473.611,10.601L463.009,0L292.014,170.994l-10.447,10.448l-34.13,34.129L29.277,433.734    c-8.629,8.629-13.382,20.102-13.382,32.304c0,12.203,4.753,23.676,13.364,32.287l0.315,0.316    c8.906,8.907,20.605,13.36,32.303,13.36c11.7,0,23.398-4.453,32.304-13.36l196.959-196.958l55.332-55.333l-43.703-43.703    l11.495-11.495c12.859,8.595,27.756,12.902,42.658,12.902c19.667,0,39.334-7.486,54.305-22.458l62.384-62.385    c14.506-14.505,22.496-33.792,22.496-54.305C496.106,44.393,488.118,25.107,473.611,10.601z M72.979,477.438    c-6.121,6.121-16.081,6.122-22.184,0.017l-0.315-0.316c-2.966-2.965-4.599-6.907-4.599-11.1c0-4.193,1.633-8.135,4.599-11.101    l196.957-196.959l11.25,11.25l11.25,11.25L72.979,477.438z M304.068,246.35l-12.926,12.925l-11.25-11.25l-11.25-11.25    l12.925-12.925L304.068,246.35z M452.408,98.007l-62.384,62.385c-14.546,14.545-36.361,17.5-53.861,8.861L461.284,44.132    c3.164,6.378,4.836,13.447,4.836,20.775C466.12,77.411,461.249,89.166,452.408,98.007z"/>
	</g>
</g>
<g>
</g>
<g>
</g>
<g>
</g>
<g>
</g>
<g>
</g>
<g>
</g>
<g>
</g>
<g>
</g>
<g>
</g>
<g>
</g>
<g>
</g>
<g>
</g>
<g>
</g>
<g>
</g>
<g>
</g>
</svg>
