<svg id="Layer_1" enable-background="new 0 0 510 510" height="512" viewBox="0 0 510 510" width="512" xmlns="http://www.w3.org/2000/svg"><g><path d="m60 0v510h390v-510zm360 480h-330v-450h330z"/><path d="m165 106.027v58.973h30v-58.973l21.68 14.453 16.64-24.96-53.32-35.547-53.32 35.547 16.64 24.96z"/><path d="m383.32 129.48-16.64-24.96-21.68 14.453v-58.973h-30v58.973l-21.68-14.453-16.64 24.96 53.32 35.547z"/><path d="m150 335.377c-33.795 38.336-6.917 99.623 45 99.623 51.92 0 78.794-61.289 45-99.623v-5.377h90v90h60v-30h-30v-90h-30v-9c0-28.121-22.879-51-51-51h-46.65c-10.145-17.893-29.355-30-51.35-30h-61v30h30zm45 69.623c-16.542 0-30-13.458-30-30 1.508-39.744 58.498-39.734 60 0 0 16.542-13.458 30-30 30zm105-114v9h-60v-30h39c11.579 0 21 9.421 21 21zm-90-22v47.898c-9.8-2.531-20.195-2.533-30 0v-76.898h1c15.991 0 29 13.01 29 29z"/></g></svg>