<svg id="Capa_1" enable-background="new 0 0 512 512" height="512" viewBox="0 0 512 512" width="512" xmlns="http://www.w3.org/2000/svg"><g><path d="m455.032 88.844-199.032-88.844-199.032 88.844v163.191c0 6.544 1.105 21.795 1.105 21.795 3.159 31.043 13.083 61.333 29.622 90.31 16.068 28.15 38.372 55.078 66.292 80.034 47.125 42.121 101.939 67.826 101.939 67.826s54.891-25.147 102.053-67.046c27.94-24.822 50.259-51.734 66.336-79.988 16.591-29.158 26.524-59.757 29.646-91.227 0 0 1.072-15.103 1.072-21.704v-163.191zm-30 131.35c-4.021-2.609-8.372-4.79-13.006-6.46l-27.749-10.002c7.576-8.494 12.192-19.682 12.192-31.932v-14.21c0-26.485-21.547-48.033-48.032-48.033s-48.033 21.548-48.033 48.033v14.209c0 12.3 4.652 23.531 12.283 32.037l-18.191 6.711c-5.139-9.199-13.473-16.379-23.496-20.019v-150.777l154.032 68.446zm-90.055 106.988v-11.786c0-20.672-13.066-39.271-32.514-46.28l-11.598-4.18c5.292-6.841 8.624-15.268 9.133-24.441l48.332-17.83 53.523 19.292c12.507 4.509 21.169 15.996 22.22 29.096-1.93 19.097-6.787 37.863-14.499 56.13h-74.597zm-232.229 0c-7.873-18.339-12.834-37.131-14.801-56.204 1.112-13.066 9.78-24.489 22.28-28.959l54.116-19.352 47.655 17.771c.501 9.229 3.86 17.705 9.197 24.573l-11.54 4.127c-19.517 6.979-32.63 25.595-32.63 46.322v11.722zm79.734-155.383c0 9.943-8.089 18.032-18.033 18.032s-18.033-8.089-18.033-18.032v-14.209c0-9.943 8.09-18.033 18.033-18.033s18.033 8.09 18.033 18.033zm122.495 155.11h-97.953v-11.449c0-8.088 5.116-15.351 12.732-18.074l36.477-13.045 36.058 12.997c7.588 2.735 12.687 9.992 12.687 18.058v11.513zm-48.977-74.813c-7.759 0-14.072-6.312-14.072-14.071v-6.058c0-7.759 6.312-14.071 14.072-14.071 7.759 0 14.071 6.312 14.071 14.071v6.058c0 7.758-6.312 14.071-14.071 14.071zm110.47-80.297c0 9.943-8.089 18.032-18.032 18.032s-18.033-8.089-18.033-18.032v-14.209c0-9.943 8.09-18.033 18.033-18.033s18.032 8.09 18.032 18.033zm-125.47-132.048v150.776c-10.001 3.631-18.32 10.788-23.462 19.958l-17.459-6.511c7.704-8.522 12.403-19.81 12.403-32.176v-14.208c0-26.485-21.547-48.033-48.033-48.033s-48.033 21.548-48.033 48.033v14.209c0 12.197 4.578 23.34 12.095 31.82l-28.388 10.152c-4.69 1.677-9.092 3.875-13.156 6.51v-112.084zm-122.512 317.431h122.512v113.191c-17.183-10.058-42.52-26.574-67.603-49.089-22.573-20.262-40.999-41.79-54.909-64.102zm220.163 64.812c-25.114 22.409-50.483 38.719-67.651 48.603v-113.415h123.044c-13.96 22.657-32.55 44.429-55.393 64.812z"/></g></svg>