<svg id="Capa_1" enable-background="new 0 0 512.032 512.032" height="512" viewBox="0 0 512.032 512.032" width="512" xmlns="http://www.w3.org/2000/svg"><g><path d="m417.209 305.253c11.197 7.884 24.938 11.726 38.678 10.817 31.396-2.075 56.051-28.386 56.129-59.9.798-32.69-28.493-61.072-60.188-60.34-12.165 0-23.89 3.616-33.907 10.458-1.067.729-2.164 1.372-3.283 1.927-3.408-11.337-8.022-22.241-13.806-32.618l9.55-9.55c3.377-3.377 7.815-5.656 12.836-6.591 13.396-2.495 25.251-9.267 34.283-19.584 20.279-22.29 18.996-59.564-1.174-80.46-22.235-25.127-64.311-25.222-86.732-1.677-8.644 8.644-14.388 19.547-16.611 31.535-.926 4.99-3.202 9.415-6.583 12.796l-9.433 9.432c-10.563-5.938-21.682-10.664-33.249-14.132.451-.883.962-1.732 1.532-2.542 7.885-11.195 11.727-24.931 10.817-38.679-2.075-31.395-28.388-56.049-59.901-56.128-32.683-.801-61.072 28.494-60.339 60.188 0 12.164 3.616 23.888 10.458 33.907.729 1.067 1.372 2.165 1.928 3.284-11.197 3.366-21.978 7.912-32.241 13.596l-8.927-8.927c-3.377-3.377-5.656-7.815-6.592-12.835-2.494-13.397-9.267-25.253-19.585-34.286-22.27-20.263-59.573-18.998-80.46 1.177-25.13 22.234-25.208 64.308-1.677 86.731 8.643 8.644 19.547 14.388 31.535 16.612 4.99.925 9.415 3.202 12.796 6.583l8.642 8.642c-6.037 10.673-10.832 21.917-14.342 33.625-.884-.451-1.732-.962-2.542-1.533-11.196-7.884-24.938-11.727-38.677-10.817-31.396 2.075-56.051 28.386-56.129 59.9-.798 32.69 28.493 61.072 60.188 60.34 12.165 0 23.89-3.616 33.907-10.458 1.067-.729 2.164-1.372 3.283-1.927 3.466 11.534 8.18 22.617 14.102 33.15l-8.432 8.432c-3.378 3.377-7.815 5.656-12.835 6.591-13.396 2.494-25.252 9.266-34.285 19.585-20.278 22.29-18.995 59.564 1.175 80.46 22.257 25.117 64.262 25.239 86.732 1.677 8.644-8.643 14.388-19.547 16.611-31.535.926-4.99 3.202-9.414 6.583-12.795l8.551-8.551c10.408 5.8 21.345 10.425 32.717 13.835-.451.884-.962 1.733-1.532 2.542-7.885 11.195-11.727 24.931-10.817 38.679 2.075 31.395 28.388 56.049 59.901 56.128h.152c32.628.715 60.917-28.55 60.187-60.188 0-12.164-3.616-23.888-10.458-33.907-.729-1.067-1.372-2.164-1.928-3.283 11.673-3.507 22.883-8.292 33.527-14.312l7.641 7.641c3.377 3.377 5.656 7.816 6.592 12.836 2.494 13.398 9.268 25.254 19.586 34.285 22.281 20.301 59.564 18.985 80.46-1.176 25.129-22.235 25.207-64.308 1.676-86.731-8.643-8.644-19.547-14.388-31.535-16.612-4.99-.925-9.415-3.202-12.796-6.583l-7.927-7.928c5.702-10.295 10.257-21.107 13.626-32.34.884.452 1.733.964 2.542 1.534zm-25.857-33.993c-3.697 24.807-13.798 49.226-28.437 69.101l24.84 24.841c7.689 7.689 17.558 12.83 28.537 14.866 5.997 1.112 11.458 3.992 15.793 8.328 12.452 12.018 10.888 33.107-.856 43.516-11.165 10.349-28.868 10.617-40.307.604-5.196-4.548-8.604-10.497-9.853-17.204-2.049-11.002-7.191-20.876-14.871-28.556l-24.717-24.718c-20.527 15.354-45.326 25.692-70.224 29.315v12.721c0 10.825 3.359 21.464 9.714 30.769 3.422 5.012 5.231 10.886 5.231 16.987.291 16.853-14.981 30.546-30.265 30.188-15.806-.039-29.002-12.386-30.041-28.107-.465-7.023 1.406-13.739 5.411-19.426 6.192-8.793 9.465-19.308 9.465-30.406v-12.725c-24.951-3.711-49.487-13.915-69.43-28.694l-25.512 25.512c-7.689 7.689-12.83 17.557-14.866 28.537-1.113 5.997-3.992 11.458-8.328 15.793-12.035 12.453-33.104 10.886-43.518-.857-10.35-11.166-10.615-28.87-.604-40.306 4.55-5.197 10.499-8.604 17.203-9.853 11.003-2.048 20.878-7.19 28.558-14.871l25.462-25.461c-15.209-20.46-25.45-45.138-29.059-69.895h-12.721c-10.825 0-21.465 3.359-30.769 9.714-5.011 3.422-10.885 5.231-16.987 5.231-16.855.293-30.544-14.985-30.188-30.266.039-15.806 12.386-29.001 28.107-30.041 7.025-.463 13.74 1.408 19.424 5.41 8.793 6.193 19.308 9.466 30.408 9.466h12.725c3.755-25.305 14.16-50.078 29.315-70.223l-25.719-25.719c-7.689-7.689-17.558-12.83-28.537-14.866-5.997-1.112-11.458-3.992-15.793-8.328-12.451-12.019-10.888-33.107.857-43.517 11.165-10.35 28.869-10.615 40.306-.604 5.196 4.549 8.604 10.498 9.853 17.205 2.049 11.002 7.191 20.877 14.871 28.556l25.84 25.84c20.284-14.857 44.732-24.872 69.101-28.437v-12.721c0-10.825-3.359-21.464-9.714-30.769-3.422-5.012-5.231-10.886-5.231-16.987-.291-16.853 14.981-30.546 30.265-30.187 15.806.039 29.002 12.386 30.041 28.107.465 7.023-1.406 13.739-5.411 19.426-6.192 8.793-9.465 19.308-9.465 30.406v12.725c25.158 3.738 49.813 14.045 69.895 29.058l26.462-26.462c7.688-7.689 12.829-17.558 14.865-28.537 1.113-5.996 3.992-11.458 8.328-15.793 11.992-12.464 33.115-10.883 43.518.858 10.35 11.166 10.614 28.871.604 40.306-4.55 5.197-10.498 8.604-17.202 9.852-11.002 2.048-20.877 7.19-28.558 14.871l-26.512 26.512c15.004 20.353 25.114 44.923 28.694 69.429h12.721c10.825 0 21.465-3.359 30.769-9.714 5.011-3.422 10.885-5.231 16.987-5.231 16.855-.293 30.544 14.985 30.188 30.266-.039 15.806-12.386 29.001-28.107 30.041-7.02.466-13.739-1.408-19.425-5.411-8.793-6.192-19.308-9.466-30.407-9.466h-12.724z"/><path d="m195.766 180.768c-24.817 0-45.008 20.19-45.008 45.008s20.19 45.008 45.008 45.008 45.008-20.19 45.008-45.008-20.191-45.008-45.008-45.008zm0 60.016c-8.275 0-15.008-6.733-15.008-15.008s6.732-15.008 15.008-15.008 15.008 6.732 15.008 15.008-6.733 15.008-15.008 15.008z"/><path d="m316.266 241.135c-24.817 0-45.008 20.19-45.008 45.008s20.19 45.008 45.008 45.008 45.008-20.19 45.008-45.008-20.191-45.008-45.008-45.008zm0 60.015c-8.275 0-15.008-6.732-15.008-15.008s6.732-15.008 15.008-15.008 15.008 6.732 15.008 15.008-6.733 15.008-15.008 15.008z"/><path d="m271.141 180.768h30v30h-30z"/><path d="m210.774 301.15h30v30h-30z"/></g></svg>