<svg id="Capa_1" enable-background="new 0 0 512 512" height="512" viewBox="0 0 512 512" width="512" xmlns="http://www.w3.org/2000/svg"><g><path d="m479.775 403.8-25.714-362.006c-1.675-23.436-21.391-41.794-44.886-41.794h-92.066c-24.813 0-45 20.187-45 45v43.944c0 15.08 7.491 29.077 20.039 37.442l63.282 42.188c4.183 2.789 6.68 7.454 6.68 12.481v105.945c0 8.271-6.729 15-15 15h-145.087c-27.636-19.645-60.339-30-94.915-30h-75v240h150v-15c0-24.813 20.187-45 45-45h207.781c26.081 0 46.745-22.179 44.886-48.2zm-44.886 18.2h-207.781c-36.219 0-66.524 25.809-73.493 60h-91.507v-180h45c29.719 0 57.705 9.318 80.931 26.948l4.021 3.052h155.048c24.813 0 45-20.187 45-45v-105.944c0-15.08-7.491-29.077-20.039-37.442l-63.282-42.188c-3.888-2.592-6.316-6.807-6.64-11.425h44.96c8.271 0 15 6.729 15 15h30c0-24.813-20.187-45-45-45h-45v-15.001c0-8.271 6.729-15 15-15h92.066c7.832 0 14.404 6.12 14.961 13.926l25.715 362.005c.619 8.641-6.195 16.069-14.96 16.069z"/><path d="m212.108 362h120v30h-120z"/></g></svg>