<svg id="Capa_1" enable-background="new 0 0 512.022 512.022" height="512" viewBox="0 0 512.022 512.022" width="512" xmlns="http://www.w3.org/2000/svg"><g><path d="m468.393 66.338c-28.118-28.108-65.5-43.59-105.257-43.592h-.029c-40.55.075-79.376 17-107.09 46.02-22.721-23.782-52.513-39.254-85.573-44.14-39.286-5.805-78.482 4.035-110.368 27.711-31.885 23.674-52.643 58.349-58.448 97.636-5.806 39.286 4.035 78.482 27.709 110.367 4.341 5.848 9.159 11.425 14.312 16.571l212.389 212.363 212.392-212.366c28.118-28.128 43.599-65.521 43.592-105.293-.008-39.771-15.502-77.159-43.629-105.277zm-390.433 10.085c20.678-15.354 45.208-23.418 70.499-23.418 5.839 0 11.718.43 17.6 1.299 31.36 4.635 59.038 21.204 77.935 46.656l12.095 16.289 12.028-16.339c22.149-30.088 57.679-48.093 95.041-48.164 31.738.008 61.578 12.369 84.025 34.809 20.393 20.385 32.467 46.875 34.522 75.35h-451.352c.216-2.845.531-5.695.952-8.546 4.635-31.359 21.203-59.038 46.655-77.936zm74.119 266.482h207.918l-103.96 103.946zm295.136-87.208-57.215 57.208h-267.925l-57.221-57.215c-4.119-4.113-7.964-8.565-11.43-13.233-11.065-14.902-18.337-31.806-21.54-49.552h448.246c-4.247 23.657-15.565 45.436-32.915 62.792z"/></g></svg>