<?xml version="1.0" encoding="iso-8859-1"?>
<!-- Generator: Adobe Illustrator 19.0.0, SVG Export Plug-In . SVG Version: 6.00 Build 0)  -->
<svg xmlns="http://www.w3.org/2000/svg" xmlns:xlink="http://www.w3.org/1999/xlink" version="1.1" id="Layer_1" x="0px" y="0px" viewBox="0 0 511.999 511.999" style="enable-background:new 0 0 511.999 511.999;" xml:space="preserve">
<g>
	<g>
		<path d="M404.116,148.116C404.116,66.445,337.671,0,255.999,0S107.883,66.445,107.883,148.116    c0,69.48,48.094,127.931,112.738,143.835v32.512h-12.312v139.845c0,26.297,21.394,47.691,47.691,47.691    c26.297,0,47.691-21.394,47.691-47.691V324.462h-12.312v-32.512C356.022,276.047,404.116,217.596,404.116,148.116z     M272.321,464.309h-0.001c0,8.998-7.322,16.32-16.32,16.32c-8.998,0-16.32-7.321-16.32-16.32V355.833h32.641V464.309z     M251.991,324.462v-28.231h8.016v28.231H251.991z M255.999,264.861c-64.374,0-116.745-52.372-116.745-116.745    S191.626,31.371,255.999,31.371s116.746,52.372,116.746,116.745S320.373,264.861,255.999,264.861z"/>
	</g>
</g>
<g>
	<g>
		<path d="M255.999,55.406c-51.12,0-92.71,41.589-92.71,92.71c0,51.12,41.589,92.71,92.71,92.71s92.709-41.59,92.709-92.71    S307.119,55.406,255.999,55.406z M255.999,209.454c-33.821,0-61.339-27.516-61.339-61.339s27.516-61.339,61.339-61.339    c33.822,0,61.339,27.515,61.339,61.339C317.338,181.938,289.821,209.454,255.999,209.454z"/>
	</g>
</g>
<g>
</g>
<g>
</g>
<g>
</g>
<g>
</g>
<g>
</g>
<g>
</g>
<g>
</g>
<g>
</g>
<g>
</g>
<g>
</g>
<g>
</g>
<g>
</g>
<g>
</g>
<g>
</g>
<g>
</g>
</svg>
