<svg id="Capa_1" enable-background="new 0 0 510 510" height="512" viewBox="0 0 510 510" width="512" xmlns="http://www.w3.org/2000/svg"><g><path d="m306.213 0h-231.213v510h360v-381.213zm8.787 51.213 68.787 68.787h-68.787zm-210 428.787v-450h180v120h120v330z"/><path d="m135 60h120v30h-120z"/><path d="m135 120h120v30h-120z"/><path d="m270 180h105v30h-105z"/><path d="m270 240h105v30h-105z"/><path d="m270 300h105v30h-105z"/><path d="m270 360h105v30h-105z"/><path d="m214.394 184.394-35.578 35.577-22.533-17.753-18.566 23.564 43.467 34.247 54.422-54.422z"/><path d="m156.283 322.218-18.566 23.564 43.467 34.247 54.422-54.422-21.212-21.213-35.578 35.577z"/><path d="m135 420h240v30h-240z"/></g></svg>