<svg id="Capa_1" enable-background="new 0 0 512 512" height="512" viewBox="0 0 512 512" width="512" xmlns="http://www.w3.org/2000/svg"><path d="m512 .228h-512v391.005h95.084c6.285 40.146 21.015 78.813 43.524 113.675l4.432 6.864h226.674l4.277-7.758c21.855-39.637 36.048-77.396 42.456-112.781h95.553zm-30 30v90.865h-452v-90.865zm-156.617 316.249-.002.18.002.18c.284 23.64-4.056 49.021-12.938 75.905h-41.342v-35.688c16.872-6.145 28.953-22.345 28.953-41.315s-12.081-35.17-28.953-41.314v-34.445h41.148c9.015 27.103 13.417 52.682 13.132 76.497zm-140.621.18c0-26.086 3.963-51.893 11.649-76.678h44.692v34.445c-16.872 6.145-28.954 22.344-28.954 41.315s12.082 35.171 28.954 41.316v35.687h-44.875c-7.565-24.603-11.466-50.207-11.466-76.085zm37.92-135.115 18.421.001v28.437h-33.338c4.373-9.719 9.347-19.216 14.917-28.438zm-47.488 28.437h-30.587c4.373-9.718 9.347-19.215 14.917-28.438h28.735c-4.873 9.278-9.232 18.77-13.065 28.438zm66.955 105.76c0-7.693 6.26-13.953 13.954-13.953s13.954 6.26 13.954 13.953c0 7.694-6.26 13.954-13.954 13.954s-13.954-6.26-13.954-13.954zm28.955-105.76v-28.437h15.804c5.087 9.632 9.667 19.113 13.752 28.438h-29.556zm49.438-28.437h31.365c5.087 9.632 9.667 19.113 13.752 28.438h-32.487c-3.741-9.355-7.951-18.837-12.63-28.438zm49.172-30h-226.674s-23.918 40.564-31.003 58.438h-82.037v-88.886h452v88.886h-83.828c-6.604-16.512-28.458-58.438-28.458-58.438zm-339.714 179.691v-91.254h71.99c-6.862 24.907-10.386 50.664-10.386 76.678 0 4.869.131 9.729.377 14.576zm103.253-91.254h31.895c-6.862 24.907-10.386 50.664-10.386 76.678 0 25.808 3.472 51.362 10.227 76.085h-31.919c-7.566-24.603-11.466-50.207-11.466-76.085 0-26.086 3.963-51.893 11.649-76.678zm11.091 182.763h30.621c3.889 9.873 8.322 19.563 13.294 29.03h-28.735c-5.683-9.41-10.743-19.106-15.18-29.03zm63.158 0h33.601v29.03h-18.421c-5.683-9.41-10.743-19.106-15.18-29.03zm63.602 29.03v-29.03h29.813c-4.15 9.516-8.814 19.194-14.009 29.03zm49.438 0c4.777-9.804 9.069-19.484 12.87-29.03h32.505c-4.15 9.516-8.814 19.194-14.009 29.03zm56.903-59.03h-33.573c7.919-26.594 11.779-52.021 11.511-76.085.27-24.244-3.653-49.87-11.691-76.678h33.56c9.014 27.104 13.417 52.683 13.131 76.498l-.002.18.002.18c.284 23.64-4.056 49.02-12.938 75.905zm42.598-61.509c.275-4.911.394-9.772.34-14.576.27-24.244-3.653-49.87-11.691-76.678h73.308v91.254z"/></svg>