<svg id="Capa_1" enable-background="new 0 0 512 512" height="512" viewBox="0 0 512 512" width="512" xmlns="http://www.w3.org/2000/svg"><g><path d="m451.004 195c0-107.523-87.477-195-195-195s-195 87.477-195 195 87.477 195 195 195 195-87.477 195-195zm-195 165c-90.981 0-165-74.019-165-165s74.019-165 165-165 165 74.019 165 165-74.018 165-165 165z"/><path d="m196.004 210v-30h30v-30h-30v-30h-30v30h-30v30h30v30z"/><path d="m346.004 150v-30h-30v30h-30v30h30v30h30v-30h30v-30z"/><path d="m203.098 307.908c13.94 14.249 32.72 22.092 52.906 22.092s38.966-7.843 52.906-22.092c28.082-27.468 21.037-60.634 22.094-67.908h-150c1.038 7.14-6.005 40.423 22.094 67.908zm95.361-37.908c-2.203 6.215-5.793 11.857-10.615 16.547l-.292.292c-8.257 8.487-19.461 13.161-31.548 13.161s-23.291-4.674-31.548-13.161l-.292-.292c-4.821-4.69-8.412-10.333-10.615-16.547z"/><path d="m450.409 421.916c-19.967-20.582-46.392-31.916-74.405-31.916h-120-120c-28.013 0-54.438 11.334-74.405 31.916-37.638 38.793-29.523 83.205-30.595 90.084h450c-1.07-6.873 6.985-51.352-30.595-90.084zm-387.909 60.084c7.018-34.851 37.833-62 73.504-62h240c35.672 0 66.487 27.149 73.504 62z"/></g></svg>