<svg id="Capa_1" enable-background="new 0 0 511.972 511.972" height="512" viewBox="0 0 511.972 511.972" width="512" xmlns="http://www.w3.org/2000/svg"><g><path d="m325.197 0c-17.338 0-32.689 7.875-42.017 19.905l-38.898.02c-60.084.029-108.966 48.936-108.966 109.021v71.035 222.219c0 49.501 40.272 89.772 89.773 89.772s89.772-40.271 89.772-89.772v-94.986c0-22.136 7.833-43.668 22.056-60.631 25.627-30.562 39.74-68.381 39.739-106.488v-113.123c0-25.901-23.084-46.972-51.459-46.972zm-80.9 49.925 29.441-.015v46.945h-22.928c-32.845 0-63.634 12.229-85.494 33.751-.922-44.118 34.829-80.713 78.981-80.681zm102.359 110.169c.001 31.521-11.316 61.678-32.728 87.214-18.744 22.354-29.067 50.731-29.067 79.905v94.986c0 32.959-26.814 59.772-59.773 59.772s-59.772-26.813-59.772-59.772v-222.219c0-16.063 6.343-31.931 17.861-44.677 16.099-17.813 41.382-28.449 67.633-28.449h95.846zm-42.918-63.24v-49.882c0-9.199 9.827-16.972 21.459-16.972s21.459 7.772 21.459 16.972v49.883h-42.918z"/><path d="m254.316 216.972h30v30h-30z"/><path d="m200.316 272.972h30v30h-30z"/><path d="m236.316 156.972h30v30h-30z"/></g></svg>