<svg id="Capa_1" enable-background="new 0 0 512 512" height="512" viewBox="0 0 512 512" width="512" xmlns="http://www.w3.org/2000/svg"><g><path d="m298.375 72.875c-11.216-8.302-26.265-12.875-42.375-12.875s-31.159 4.573-42.375 12.876c-15.132 11.203-31.562 17.124-47.515 17.124h-15.11v30c49.626 0 90 40.374 90 90v75h30v-75c0-49.626 40.374-90 90-90v-30h-15.11c-15.953 0-32.383-5.921-47.515-17.125zm-42.375 79.071c-10.01-18.033-24.541-33.219-42.038-44.049 5.978-3.078 11.836-6.706 17.513-10.909 5.999-4.441 14.938-6.988 24.525-6.988s18.526 2.547 24.524 6.987c5.677 4.203 11.536 7.832 17.514 10.91-17.497 10.83-32.028 26.016-42.038 44.049z"/><path d="m467 0c-24.813 0-45 20.187-45 45v30c0 3.604-1.53 7-3.981 9.652-6.397-21.527-22.967-40.993-48.235-56.154-30.629-18.377-71.038-28.498-113.784-28.498s-83.155 10.121-113.784 28.498c-25.268 15.161-41.838 34.627-48.235 56.154-2.451-2.652-3.981-6.048-3.981-9.652v-30c0-24.813-20.187-45-45-45s-45 20.187-45 45v180c0 57.897 47.103 105 105 105 24.813 0 45-20.187 45-45s-20.187-45-45-45c-24.799 0-44.977 20.165-44.999 44.96-18.205-13.697-30.001-35.476-30.001-59.96v-180c0-8.271 6.729-15 15-15s15 6.729 15 15v30c0 12.089 4.944 23.474 13.921 32.056 5.261 5.03 11.492 8.686 18.226 10.807 5.145 29.77 27.32 62.451 59.401 86.355 20.269 15.103 31.808 38.98 30.115 62.314-.439 6.078-.663 12.292-.663 18.468 0 44.078 11.135 84.327 30 109.238v117.762h90v-117.762c18.865-24.911 30-65.161 30-109.238 0-6.176-.224-12.39-.664-18.468-1.693-23.333 9.847-47.211 30.115-62.314 32.081-23.905 54.256-56.586 59.401-86.355 6.734-2.121 12.965-5.778 18.226-10.807 8.978-8.582 13.922-19.967 13.922-32.056v-30c0-8.271 6.729-15 15-15s15 6.729 15 15v180c0 24.484-11.796 46.263-30.001 59.96-.022-24.795-20.2-44.96-44.999-44.96-24.813 0-45 20.187-45 45s20.187 45 45 45c57.897 0 105-47.103 105-105v-180c0-24.813-20.187-45-45-45zm-377 285c0-8.271 6.729-15 15-15s15 6.729 15 15-6.729 15-15 15-15-6.729-15-15zm252.526-104.837c-28.833 21.484-44.575 54.583-42.112 88.54.389 5.358.586 10.841.586 16.297 0 39.263-10.096 75.334-26.348 94.137l-3.652 4.225v98.638h-30v-98.638l-3.652-4.225c-16.252-18.803-26.348-54.874-26.348-94.137 0-5.456.197-10.939.586-16.297 2.463-33.958-13.28-67.057-42.112-88.541-28.994-21.604-48.474-51.809-48.474-75.162 0-40.654 61.822-75 135-75s135 34.346 135 75c0 23.353-19.48 53.558-48.474 75.163zm49.474 104.837c0-8.271 6.729-15 15-15s15 6.729 15 15-6.729 15-15 15-15-6.729-15-15z"/></g></svg>