<svg id="Layer_1" enable-background="new 0 0 510 510" height="512" viewBox="0 0 510 510" width="512" xmlns="http://www.w3.org/2000/svg"><g><path d="m255 .799c-140.929 0-255 114.049-255 255 12.344 337.905 497.695 337.838 510-.003 0-140.926-114.049-254.997-255-254.997zm0 480c-124.065 0-225-100.935-225-225 11.312-298.083 438.734-298.002 450 .003 0 124.062-100.935 224.997-225 224.997z"/><path d="m240 180.799c0-43.426-37.076-76.98-77.313-74.941-97.687 6.504-95.637 146.386 2.314 149.941 41.354 0 74.999-33.645 74.999-75zm-60-30c0 8.271-6.729 15-15 15-19.872-.754-19.867-29.249 0-30 8.271 0 15 6.728 15 15zm-57.42 15c14.183 39.762 70.673 39.737 84.84 0 10.37 29.238-11.457 60-42.42 60-31.032 0-52.77-30.819-42.42-60z"/><path d="m342.687 105.857c-40.286 1.23-72.687 34.361-72.687 74.942 3.77 99.361 146.245 99.334 150-.001 0-43.425-37.076-76.98-77.313-74.941zm17.313 44.942c0 8.271-6.729 15-15 15-19.872-.754-19.867-29.249 0-30 8.271 0 15 6.728 15 15zm-15 75c-31.032 0-52.77-30.818-42.42-60 14.183 39.762 70.673 39.737 84.84 0 10.37 29.238-11.457 60-42.42 60z"/><path d="m165 390.799h180v-90h-180zm30-60h120v30h-120z"/></g></svg>