<svg id="Capa_1" enable-background="new 0 0 512 512" height="512" viewBox="0 0 512 512" width="512" xmlns="http://www.w3.org/2000/svg"><g><path d="m437.02 74.999c-48.353-48.363-112.64-74.999-181.02-74.999s-132.667 26.636-181.02 74.999c-48.351 48.365-74.98 112.668-74.98 181.065 0 44.973 11.826 89.215 34.2 127.942 20.268 35.082 48.756 65.028 82.715 87.058v40.936h278.17v-40.935c33.959-22.03 62.448-51.976 82.715-87.058 22.374-38.727 34.2-82.969 34.2-127.942 0-68.398-26.629-132.701-74.98-181.066zm-71.935 406.993h-218.17v-7.842c0-23.571 16.751-43.987 39.83-48.544l12.095-2.388v-53.78c0-18.087 14.71-32.801 32.792-32.801h48.734c18.082 0 32.792 14.715 32.792 32.801v53.78l12.095 2.388c23.079 4.557 39.83 24.973 39.83 48.544v7.842zm-195.603-121.455h-28.495c7.379-56.906 56.145-101.005 115.013-101.005s107.634 44.099 115.013 101.005h-28.495c-4.336-30.431-30.548-53.908-62.151-53.908h-48.734c-31.603 0-57.815 23.477-62.151 53.908zm217.879 79.521c-8.805-18.477-24.554-33.222-44.202-40.487v-9.027h58.819v-15.004c0-80.513-65.486-146.016-145.979-146.016s-145.979 65.503-145.979 146.016v15.004h58.819v9.027c-19.648 7.264-35.396 22.01-44.202 40.487-59.576-42.426-94.637-109.965-94.637-183.994 0-124.648 101.383-226.056 226-226.056s226 101.408 226 226.056c0 74.029-35.061 141.568-94.639 183.994z"/><path d="m112.64 132.642 63.111 35.414-53.657 45.039 19.285 22.986 86.91-72.952-100.971-56.658z"/><path d="m384.682 106.471-100.971 56.658 86.91 72.952 19.285-22.986-53.657-45.039 63.111-35.414z"/></g></svg>