<svg id="Capa_1" enable-background="new 0 0 512 512" height="512" viewBox="0 0 512 512" width="512" xmlns="http://www.w3.org/2000/svg"><g><path d="m273.96 94.901-7.908-94.901h-95.104l-8.19 98.278-60.508 60.509v353.213h307.5v-356.748zm-35.512-64.901 5 60h-49.896l5-60zm-54.985 90h73.104l123.182 54.748v247.252h-247.5v-182h127.5v17c0 41.355 33.645 75 75 75h15v-137.756l-90-39.999v55.755h-127.5v-38.787zm106.287 137v-56.593l30 13.333v85.689c-17.461-6.19-30-22.872-30-42.429zm-157.5 225v-30h247.5v30z"/><path d="m162.25 300h67.5v30h-67.5z"/><path d="m162.25 360h127.5v30h-127.5z"/></g></svg>