<svg id="Capa_1" enable-background="new 0 0 512 512" height="512" viewBox="0 0 512 512" width="512" xmlns="http://www.w3.org/2000/svg"><g><path d="m317 0c-107.523 0-195 87.477-195 195 0 37.494 10.647 72.543 29.061 102.303l-151.061 151.025 63.672 63.672 151.024-151.062c29.76 18.415 64.81 29.062 102.304 29.062 107.523 0 195-87.477 195-195s-87.477-195-195-195zm-253.328 469.537-21.208-21.208 126.522-126.523c6.519 7.598 13.611 14.69 21.209 21.209zm253.328-109.537c-90.981 0-165-74.019-165-165s74.019-165 165-165 165 74.019 165 165-74.019 165-165 165z"/><path d="m212 300h210c0-13.291 0-202.5 0-210h-210zm120-30v-30h-30v30h-60v-62.58c4.695 1.665 9.742 2.58 15 2.58 11.517 0 22.032-4.354 30-11.495 7.968 7.142 18.483 11.495 30 11.495s22.032-4.354 30-11.495c7.968 7.142 18.483 11.495 30 11.495 5.258 0 10.305-.915 15-2.58v62.58zm-90-150h150v45c0 8.271-6.729 15-15 15s-15-6.729-15-15v-15h-30v15c0 8.271-6.729 15-15 15s-15-6.729-15-15v-15h-30v15c0 8.271-6.729 15-15 15s-15-6.729-15-15c0-14.095 0-30.95 0-45z"/></g></svg>