<svg id="Capa_1" enable-background="new 0 0 512 512" height="512" viewBox="0 0 512 512" width="512" xmlns="http://www.w3.org/2000/svg"><g><path d="m75.154 180.077v60.368h-30v60.491h-45.154v211.064h512v-331.923zm-45.154 150.86h90.5v31.063h-90.5zm120.5 0h70.618c-6.936 9.177-11.581 19.763-13.677 31.063h-56.941zm176.911 44.917c0 25.159-20.469 45.627-45.628 45.627h-10.783v-59.481h-32.706c5.803-18.204 22.837-31.063 43.489-31.063 25.586 0 45.628 19.73 45.628 44.917zm15.038-44.917h50.56c4.43 12.237 14.182 21.783 26.654 26.071v37.837c-12.354 4.464-22.172 14.282-26.637 26.637h-50.98c9.633-12.692 15.364-28.5 15.364-45.627.001-16.471-5.251-32.071-14.961-44.918zm-191.949 61.063h90.5v30h-90.5zm-120.5 0h90.5v30h-90.5zm90.5 90h-90.5v-30h90.5zm120.5 0h-90.5v-30h90.5zm241 0h-211v-30-.519h149.41v-15c0-7.859 6.395-14.254 14.254-14.254h15v-92.746h-15c-8.126 0-14.254-5.823-14.254-13.545v-15h-345.256v-30.491h406.846zm-376.846-241.555v-30.368h376.846v30.368z"/><path d="m61.744 123.487c4.003 0 7.914-.396 11.707-1.128 11.02 18.039 30.712 29.419 52.647 29.419 34.046 0 61.744-27.698 61.744-61.744 0-34.045-27.698-61.743-61.744-61.743-3.998 0-7.924.396-11.77 1.138-10.88-17.642-30.379-29.429-52.584-29.429-34.046 0-61.744 27.698-61.744 61.743 0 34.046 27.698 61.744 61.744 61.744zm64.355-65.196c17.504 0 31.744 14.24 31.744 31.743 0 17.504-14.24 31.744-31.744 31.744-10.112 0-19.28-4.715-25.156-12.367 13.757-11.333 22.544-28.494 22.544-47.668 0-1.117-.034-2.226-.092-3.328.894-.074 1.794-.124 2.704-.124zm-64.355-28.291c17.503 0 31.743 14.24 31.743 31.743 0 17.504-14.24 31.744-31.743 31.744-17.504 0-31.744-14.24-31.744-31.744 0-17.503 14.24-31.743 31.744-31.743z"/></g></svg>