<svg id="Layer_1" enable-background="new 0 0 509.144 509.144" height="512" viewBox="0 0 509.144 509.144" width="512" xmlns="http://www.w3.org/2000/svg"><g><path d="m60 404.572h75v30h-75z"/><path d="m60 344.572h75v30h-75z"/><path d="m390 170.81v-156.238c-16.042 0-374.009 0-390 0v480h345c191.991-4.229 226.516-268.816 45-323.762zm-150-126.238v55.671l-21.997-10.034-23.001 15.336-23.004-15.335-21.998 10.034v-55.672zm-210 420v-420h90v102.328l49.254-22.466 25.75 17.165 25.745-17.164 49.251 22.466v-102.329h90v120.689c-169.061-14.077-245.863 203.502-109.758 299.31h-220.242zm315 0c-74.44 0-135-60.56-135-135 6.787-178.85 263.241-178.801 270 .002 0 74.437-60.561 134.998-135 134.998z"/><path d="m294.307 374.024 19.167-39.172-26.948-13.185-26.361 53.877 17.557 29.028h52.278v-30h-35.362z"/><path d="m388.475 291.013-25.171-51.441h-36.608l-25.17 51.439 26.948 13.186 16.526-33.775 16.527 33.777z"/><path d="m376.527 334.855 19.166 39.169-.331.548h-35.362v30h52.278l17.557-29.028-26.36-53.874z"/></g></svg>