<svg id="Capa_1" enable-background="new 0 0 510 510" height="512" viewBox="0 0 510 510" width="512" xmlns="http://www.w3.org/2000/svg"><g><path d="m450 82.5v-82.5h-315v120h-51.213l-83.787 83.787v306.213h300v-306.213l-83.787-83.787h-51.213v-90h255v52.5l-60 45v142.5h150v-142.5zm-180 133.713v263.787h-240v-263.787l66.213-66.213h107.573zm210 23.787h-90v-97.5l45-33.75 45 33.75z"/><path d="m120 180h60v30h-60z"/><path d="m83.33 364.702c4.943 8.778 12.013 15.894 20.514 20.816-1.638 22.1 9.135 44.77 30.421 56.756 28.704 16.164 65.417 6.109 81.721-22.841v-.001c14.973-26.586 7.402-102.705 4.828-130.858-17.477 8.524-25.394 12.182-41.001 20.687-14.415-24.146-75.746-53.446-100.832-65.687-1.783 19.487-9.668 96.24 4.349 121.128zm106.514 40.01c-8.117 14.414-26.446 19.537-40.86 11.421-14.446-8.135-19.557-26.411-11.42-40.86 4.872-8.651 30.409-25.473 56.899-39.898 1.403 30.119.261 60.672-4.619 69.337zm-84.448-114.234c22.531 12.432 43.733 26.507 48.452 33.836-24.25 15.076-34.509 25.031-39.548 31.823-1.891-1.771-3.523-3.835-4.83-6.156-4.035-7.164-5.149-33.187-4.074-59.503z"/></g></svg>