<?xml version="1.0" encoding="iso-8859-1"?>
<!-- Generator: Adobe Illustrator 19.0.0, SVG Export Plug-In . SVG Version: 6.00 Build 0)  -->
<svg xmlns="http://www.w3.org/2000/svg" xmlns:xlink="http://www.w3.org/1999/xlink" version="1.1" id="Layer_1" x="0px" y="0px" viewBox="0 0 511.999 511.999" style="enable-background:new 0 0 511.999 511.999;" xml:space="preserve">
<g>
	<g>
		<path d="M501.123,412.547c-40.308-40.31-89.522-67.922-139.594-78.522c3.429-3.325,6.845-6.669,10.231-10.054    c44.253-44.253,85.065-100.457,109.172-150.347c40.383-83.569,23.78-126.19,2.74-147.229    c-16.48-16.479-37.991-24.836-63.931-24.836c-34.762,0-76.603,14.945-124.364,44.419c-38.254,23.608-78.086,55.375-112.16,89.449    c-4.086,4.086-8.119,8.209-12.118,12.361L65.634,42.322l14.503-14.504L58.384,6.064L7.622,56.825L29.377,78.58L43.88,64.077    l106.235,106.234C90.693,236.297,41.834,309.91,4.562,389.711L0,399.476l107.71,107.71l9.765-4.561    c79.159-36.973,152.231-85.347,217.809-144.124c10.366,50.575,38.114,100.359,78.818,141.063l10.877,10.877l87.021-87.019    L501.123,412.547z M114.172,470.138L37.05,393.015c35.133-72.817,80.372-140.19,134.854-200.916l143.184,143.184    C254.362,389.766,186.989,435.006,114.172,470.138z M337.644,314.331L192.855,169.543c3.995-4.153,8.032-8.276,12.118-12.362    c31.966-31.966,70.807-62.956,106.563-85.022c42.227-26.06,79.643-39.835,108.205-39.835c17.732,0,31.527,5.177,42.176,15.826    c26.677,26.677,6.008,81.678-8.687,112.088c-22.35,46.254-61.903,100.655-103.225,141.977    C345.921,306.3,341.798,310.336,337.644,314.331z M425.27,466.643c-26.807-29.843-46.162-64.058-56.124-99.052    c34.995,9.961,69.21,29.316,99.053,56.125L425.27,466.643z"/>
	</g>
</g>
<g>
</g>
<g>
</g>
<g>
</g>
<g>
</g>
<g>
</g>
<g>
</g>
<g>
</g>
<g>
</g>
<g>
</g>
<g>
</g>
<g>
</g>
<g>
</g>
<g>
</g>
<g>
</g>
<g>
</g>
</svg>
