<svg id="Capa_1" enable-background="new 0 0 512 512" height="512" viewBox="0 0 512 512" width="512" xmlns="http://www.w3.org/2000/svg"><g><path d="m84.912 0v512h342.177v-512zm90 30h162.177v30h-162.177zm222.176 452h-282.176v-452h30v60h222.177v-60h30v452z"/><path d="m241 271.999h30v-17.543h59.301v-30h-5.963c-6.035 0-10.945-4.909-10.945-10.944v-35.372c0-31.568-25.338-57.646-56.483-58.133-15.498-.244-30.13 5.613-41.174 16.487-11.045 10.875-17.128 25.4-17.128 40.899v36.118c0 6.035-4.91 10.944-10.945 10.944h-5.963v30h59.3zm-12.393-58.487v-36.118c0-7.397 2.904-14.331 8.176-19.522 5.271-5.188 12.234-7.963 19.659-7.868 14.86.232 26.951 12.854 26.951 28.137v35.372c0 3.789.517 7.459 1.485 10.944h-57.756c.968-3.486 1.485-7.156 1.485-10.945z"/><path d="m232.25 302h47.5v30h-47.5z"/><path d="m154.75 302h47.5v30h-47.5z"/><path d="m309.75 302h47.5v30h-47.5z"/><path d="m232.25 362h47.5v30h-47.5z"/><path d="m154.75 362h47.5v30h-47.5z"/><path d="m309.75 362h47.5v30h-47.5z"/><path d="m232.25 422h47.5v30h-47.5z"/><path d="m154.75 422h47.5v30h-47.5z"/><path d="m309.75 422h47.5v30h-47.5z"/></g></svg>