<svg id="Capa_1" enable-background="new 0 0 512 512" height="512" viewBox="0 0 512 512" width="512" xmlns="http://www.w3.org/2000/svg"><g><path d="m497 241c-54.751 0-106.342 19.077-151.86 35.908-33.507 12.389-65.156 24.092-89.14 24.092s-55.633-11.703-89.14-24.092c-45.518-16.831-97.109-35.908-151.86-35.908h-15v210h512v-210zm-340.544 64.045c36.096 13.348 70.191 25.955 99.544 25.955s63.448-12.607 99.544-25.955c38.782-14.34 82.213-30.4 126.456-33.509v59.719c-41.427 1.39-75.466 8.318-108.494 15.046-37.107 7.559-72.155 14.699-117.506 14.699s-80.399-7.14-117.506-14.698c-33.028-6.728-67.067-13.656-108.494-15.046v-59.719c44.242 3.109 87.674 19.168 126.456 33.508zm-126.456 115.955v-59.731c38.297 1.356 69.595 7.726 102.506 14.43 36.931 7.522 75.119 15.301 123.494 15.301s86.563-7.779 123.494-15.302c32.911-6.704 64.209-13.074 102.506-14.43v59.732z"/><path d="m131.606 161.606-21.212-21.212-19.394 19.393v-98.787h-30v98.787l-19.394-19.393-21.212 21.212 55.606 55.607z"/><path d="m491.606 161.606-21.212-21.212-19.394 19.393v-98.787h-30v98.787l-19.394-19.393-21.212 21.212 55.606 55.607z"/><path d="m256 271c57.897 0 105-47.103 105-105s-47.103-105-105-105-105 47.103-105 105 47.103 105 105 105zm0-180c41.355 0 75 33.645 75 75s-33.645 75-75 75-75-33.645-75-75 33.645-75 75-75z"/></g></svg>