<?xml version="1.0" encoding="iso-8859-1"?>
<!-- Generator: Adobe Illustrator 19.0.0, SVG Export Plug-In . SVG Version: 6.00 Build 0)  -->
<svg xmlns="http://www.w3.org/2000/svg" xmlns:xlink="http://www.w3.org/1999/xlink" version="1.1" id="Layer_1" x="0px" y="0px" viewBox="0 0 512 512" style="enable-background:new 0 0 512 512;" xml:space="preserve">
<g>
	<g>
		<path d="M463.88,252.09c0-37.082-9.652-72.776-28.072-104.377c25.747-12.97,42.88-39.582,42.88-69.674    c0-43.031-35.008-78.04-78.038-78.04c-35.458,0-65.447,23.778-74.912,56.221C303.447,48.257,280.075,44.213,256,44.213    c-24.488,0-47.993,4.268-69.829,12.079c-9.568-32.28-39.479-55.902-74.822-55.902c-43.03,0-78.038,35.009-78.038,78.04    c0,30.052,17.086,56.631,42.778,69.62c-17.775,30.618-27.965,66.16-27.965,104.041c0,78.549,43.796,147.055,108.247,182.401    l-47.186,57.698L133.409,512l52.506-64.203c21.908,7.869,45.503,12.17,70.087,12.17s48.178-4.301,70.087-12.17L378.595,512    l24.225-19.811l-47.186-57.698C420.084,399.146,463.88,330.639,463.88,252.09z M400.651,31.294    c25.775,0,46.744,20.97,46.744,46.746c0,19.488-11.985,36.548-29.521,43.465c-17.357-21.46-38.881-39.344-63.106-52.433    C358.962,47.571,377.941,31.294,400.651,31.294z M64.604,78.43c0-25.775,20.969-46.746,46.744-46.746    c22.631,0,41.552,16.165,45.834,37.556c-24.375,13.225-45.813,31.19-63.097,52.638C76.572,114.952,64.604,97.903,64.604,78.43z     M272.723,427.877v-30.723H241.43v30.915c-85.633-7.028-154.146-75.416-161.371-160.995h31.291V235.78H80.176    c2.86-31.079,13.805-59.848,30.711-84.185l1.897-2.618c17.458-24.085,40.849-43.517,67.644-56.197l8.582-4.061    c16.391-6.746,34.007-11.095,52.419-12.606v29.588h31.294V76.296c20.393,1.9,40.078,7.28,58.703,16.093    c26.794,12.679,50.185,32.112,67.643,56.197c18.72,25.826,29.897,55.695,32.767,87.193h-29.033v31.294h29.138    C424.777,351.933,357.35,419.888,272.723,427.877z"/>
	</g>
</g>
<g>
	<g>
		<polygon points="240.353,133.018 240.353,250.092 198.136,318.286 224.745,334.76 271.647,258.994 271.647,133.018   "/>
	</g>
</g>
<g>
</g>
<g>
</g>
<g>
</g>
<g>
</g>
<g>
</g>
<g>
</g>
<g>
</g>
<g>
</g>
<g>
</g>
<g>
</g>
<g>
</g>
<g>
</g>
<g>
</g>
<g>
</g>
<g>
</g>
</svg>
