<svg id="Capa_1" enable-background="new 0 0 512 512" height="512" viewBox="0 0 512 512" width="512" xmlns="http://www.w3.org/2000/svg"><g><path d="m392 158.312 60 20v-116.624l-60 20v-21.688h-120v120h120zm30-55v33.377l-30-10v-13.377zm-60 46.688h-60v-60h60z"/><path d="m211 315c0-24.813-20.187-45-45-45s-45 20.187-45 45 20.187 45 45 45 45-20.187 45-45zm-45 15c-8.271 0-15-6.729-15-15s6.729-15 15-15 15 6.729 15 15-6.729 15-15 15z"/><path d="m166 360c-41.196 0-76 35.262-76 77v15h151v-15c0-41.549-33.605-77-75-77zm-43.396 62c6.433-18.196 23.969-32 43.396-32 19.399 0 36.404 13.611 42.553 32z"/><path d="m211 210h-181v272h-30v30h452v-30h-30v-242h90v-240h-301zm181 272h-332v-242h212v39.271l78.541-39.271h41.459zm-151-452h241v180h-138.541l-41.459 20.729v-20.729h-61z"/></g></svg>