<svg id="Capa_1" enable-background="new 0 0 512 512" height="512" viewBox="0 0 512 512" width="512" xmlns="http://www.w3.org/2000/svg"><g><path d="m451.004 195c0-107.523-87.477-195-195-195s-195 87.477-195 195 87.477 195 195 195 195-87.477 195-195zm-195 165c-90.981 0-165-74.019-165-165s74.019-165 165-165 165 74.019 165 165-74.018 165-165 165z"/><path d="m256.004 210c-44.373 0-84.157 28.126-98.998 69.988l28.275 10.024c10.606-29.914 39.027-50.012 70.723-50.012s60.117 20.098 70.722 50.012l28.275-10.024c-14.84-41.862-54.624-69.988-98.997-69.988z"/><path d="m196.004 180c24.813 0 45-20.187 45-45h-30c0 8.271-6.729 15-15 15s-15-6.729-15-15h-30c0 24.813 20.187 45 45 45z"/><path d="m316.004 150c-8.271 0-15-6.729-15-15h-30c0 24.813 20.187 45 45 45s45-20.187 45-45h-30c0 8.271-6.729 15-15 15z"/><path d="m450.409 421.916c-19.967-20.582-46.392-31.916-74.405-31.916h-120-120c-28.013 0-54.438 11.334-74.405 31.916-37.638 38.793-29.523 83.205-30.595 90.084h450c-1.07-6.873 6.985-51.352-30.595-90.084zm-387.909 60.084c7.018-34.851 37.833-62 73.504-62h240c35.672 0 66.487 27.149 73.504 62z"/></g></svg>