<?xml version="1.0" encoding="iso-8859-1"?>
<!-- Generator: Adobe Illustrator 19.0.0, SVG Export Plug-In . SVG Version: 6.00 Build 0)  -->
<svg xmlns="http://www.w3.org/2000/svg" xmlns:xlink="http://www.w3.org/1999/xlink" version="1.1" id="Layer_1" x="0px" y="0px" viewBox="0 0 512 512" style="enable-background:new 0 0 512 512;" xml:space="preserve">
<g>
	<g>
		<path d="M439.564,137.631V0h-56.189h-30.001h-26.186h-30.001h-26.187h-30.001h-26.187h-30.001h-26.186h-30.001H72.436v137.631    h24.92v20.203h-24.92V512h367.128V157.834h-24.92v-20.203H439.564z M327.189,30.001h26.186v77.629h-26.186V30.001z     M271.001,30.001h26.187v77.629h-26.187V30.001z M214.813,30.001H241v77.629h-26.187V30.001z M158.626,30.001h26.186v77.629    h-26.186V30.001z M158.626,137.631h26.186h30.001h26.187h30.001h26.187h30.001h26.186h30.001h1.267v20.203h-0.002H127.357v-20.203    h1.267H158.626z M102.437,30.001h26.187v77.629h-26.187V30.001z M409.563,481.999H102.437V187.836h307.125V481.999z     M409.564,107.63h-26.187V30.001h26.187V107.63z"/>
	</g>
</g>
<g>
	<g>
		<path d="M314.551,276.366v-49.367H197.45v49.367h-49.367v117.102h49.367v49.367h117.101v-49.367h49.367V276.366H314.551z     M333.917,363.466H284.55v49.367h-57.099v-49.367h-49.367v-57.099h49.367V257h57.099v49.367h49.367V363.466z"/>
	</g>
</g>
<g>
</g>
<g>
</g>
<g>
</g>
<g>
</g>
<g>
</g>
<g>
</g>
<g>
</g>
<g>
</g>
<g>
</g>
<g>
</g>
<g>
</g>
<g>
</g>
<g>
</g>
<g>
</g>
<g>
</g>
</svg>
