<svg id="Capa_1" enable-background="new 0 0 512 512" height="512" viewBox="0 0 512 512" width="512" xmlns="http://www.w3.org/2000/svg"><path d="m460.781 120.005c9.301-12.515 14.818-27.998 14.818-44.755 0-41.493-33.757-75.25-75.25-75.25-21.915 0-41.664 9.422-55.428 24.422-35.774-15.999-74.84-24.422-115.203-24.422-110.056 0-199.593 89.537-199.593 199.593v122.08c-9.364 10.613-15.063 24.532-15.063 39.765v30.199c-9.452 12.579-15.062 28.202-15.062 45.113 0 41.493 33.757 75.25 75.25 75.25s75.25-33.757 75.25-75.25c0-16.911-5.61-32.534-15.062-45.114v-30.199c0-15.232-5.699-29.152-15.062-39.765v-122.08c0-60.292 49.051-109.343 109.343-109.343 31.456 0 60.838 14.029 80.613 38.492 19.775 24.461 27.337 56.131 20.747 86.889l-35.188 164.207c-14.863 70.45 39.864 132.317 106.842 132.163 60.25 0 109.267-49.018 109.267-109.268v-120.45c0-58.926-17.934-115.096-51.219-162.277zm21.219 162.277v79.218h-60.375v-150.75h50.127c6.743 22.933 10.248 46.962 10.248 71.532zm-81.651-252.282c24.951 0 45.25 20.299 45.25 45.25 0 7.116-1.661 13.848-4.602 19.843-3.759-4.231-7.639-8.379-11.675-12.414-17.044-17.044-35.89-31.626-56.098-43.597 7.565-5.691 16.951-9.082 27.125-9.082zm-309.974 273.177c-4.835-1.256-9.903-1.927-15.125-1.927s-10.29.671-15.125 1.927v-88.584h30.25zm15.063 64.665c-9.247-4.067-19.454-6.342-30.187-6.342s-20.94 2.275-30.188 6.342v-6.404c0-16.646 13.542-30.188 30.188-30.188s30.187 13.542 30.187 30.188zm-30.188 114.158c-24.951 0-45.25-20.299-45.25-45.25s20.299-45.25 45.25-45.25 45.25 20.299 45.25 45.25-20.299 45.25-45.25 45.25zm15.935-297.407h-30.389c7.183-81.569 72.353-146.738 153.922-153.922v30.388c-64.876 6.976-116.557 58.657-123.533 123.534zm311.548 297.407c-48.393 1.364-89.075-48.068-77.508-95.877l35.188-164.207c8.498-39.658-1.252-80.493-26.75-112.034-22.325-27.616-54.146-44.92-88.943-48.799v-30.629c61.745 3.597 119.294 29.342 163.39 73.438 22.521 22.521 40.252 48.553 52.699 76.858h-69.182v210.75h90.373v11.232c0 43.708-35.559 79.268-79.267 79.268z"/></svg>