<svg id="Capa_1" enable-background="new 0 0 512 512" height="512" viewBox="0 0 512 512" width="512" xmlns="http://www.w3.org/2000/svg"><path d="m388.958 324.675c21.2-28.412 32.667-62.75 32.667-98.8v-60.25c0-91.326-74.299-165.625-165.625-165.625s-165.625 74.299-165.625 165.625v60.25c0 36.05 11.467 70.388 32.667 98.8l-123.042 41.013v146.312h512v-146.312zm-57.583-123.801h-22.489c-17.656 1.858-40.366-24.914-52.886-34.162-13.183 9.688-34.338 35.503-52.886 34.162h-22.489v-35.249c0-27.161 12.818-45.25 75.375-45.25s75.375 18.089 75.375 45.25zm-128.261 30c19.818.801 38.865-11.087 52.886-24.695 13.958 13.512 32.325 25.248 52.886 24.695h22.003c-3.51 27.454-57.034 60.629-74.943 68.746-23.416-11.682-69.792-40.308-74.86-68.746zm278.886 251.126h-76.5v-62.564h-30v62.564h-104.5v-156.368c9.098-4.643 23.979-12.841 38.983-23.701 34.101-24.685 51.392-50.273 51.392-76.056v-60.25c0-28.873-11.556-49.748-34.348-62.044-16.7-9.01-39.27-13.206-71.027-13.206s-54.327 4.196-71.027 13.206c-22.792 12.296-34.348 33.171-34.348 62.044v60.25c0 25.782 17.291 51.371 51.392 76.056 15.004 10.861 29.885 19.058 38.983 23.701v156.368h-104.5v-62.564h-30v62.564h-76.5v-94.688l146.607-48.869-16.982-17.151c-25.311-25.563-39.25-59.45-39.25-95.416v-60.25c0-74.785 60.841-135.626 135.625-135.626s135.625 60.841 135.625 135.625v60.25c0 35.966-13.939 69.853-39.25 95.416l-16.982 17.151 146.607 48.87z"/></svg>