<svg id="Layer_1" enable-background="new 0 0 512 512" height="512" viewBox="0 0 512 512" width="512" xmlns="http://www.w3.org/2000/svg"><g><path d="m256 161.528c-70.92 0-128.618 57.698-128.618 128.618 6.466 170.394 250.795 170.347 257.236-.002 0-70.918-57.698-128.616-128.618-128.616zm0 227.236c-54.378 0-98.618-44.239-98.618-98.617-.752-80.044 93.506-127.271 156.907-79.502l-68.896 68.896 21.213 21.213 68.896-68.896c47.775 63.421.527 157.658-79.502 156.906z"/><path d="m256 101.206c-104.182 0-188.94 84.759-188.94 188.94 9.499 250.311 368.42 250.243 377.881-.002-.001-104.179-84.759-188.938-188.941-188.938zm0 347.881c-87.64 0-158.94-71.301-158.94-158.94 7.991-210.566 309.922-210.509 317.881.002-.001 87.637-71.301 158.938-158.941 158.938z"/><path d="m241 34.146h30v39.807h-30z"/><path d="m150.65 52.118h30v39.807h-30z" transform="matrix(.924 -.383 .383 .924 -14.952 68.873)"/><path d="m74.055 103.297h30v39.807h-30z" transform="matrix(.707 -.707 .707 .707 -61.033 99.057)"/><path d="m22.875 179.892h30.001v39.807h-30.001z" transform="matrix(.383 -.924 .924 .383 -161.205 158.325)"/><path d="m0 275.146h39.807v30h-39.807z"/><path d="m17.972 365.496h39.807v30h-39.807z" transform="matrix(.924 -.383 .383 .924 -142.725 43.457)"/><path d="m459.125 360.593h30v39.807h-30z" transform="matrix(.383 -.924 .924 .383 -58.847 672.922)"/><path d="m472.193 275.146h39.807v30h-39.807z"/><path d="m454.221 184.795h39.807v30.001h-39.807z" transform="matrix(.924 -.383 .383 .924 -40.368 196.661)"/><path d="m403.042 108.201h39.807v30h-39.807z" transform="matrix(.707 -.707 .707 .707 36.762 335.152)"/><path d="m326.446 57.021h39.807v30h-39.807z" transform="matrix(.383 -.924 .924 .383 147.27 364.447)"/></g></svg>