<?xml version="1.0" encoding="iso-8859-1"?>
<!-- Generator: Adobe Illustrator 19.0.0, SVG Export Plug-In . SVG Version: 6.00 Build 0)  -->
<svg version="1.1" id="Layer_1" xmlns="http://www.w3.org/2000/svg" xmlns:xlink="http://www.w3.org/1999/xlink" x="0px" y="0px"
	 viewBox="0 0 512 512" style="enable-background:new 0 0 512 512;" xml:space="preserve">
<g>
	<g>
		<path d="M256,120c-91.533,0-166,74.467-166,166s74.467,166,166,166s166-74.467,166-166S347.533,120,256,120z M256,422
			c-74.991,0-136-61.009-136-136s61.009-136,136-136s136,61.009,136,136S330.991,422,256,422z"/>
	</g>
</g>
<g>
	<g>
		<polygon points="266,276 266,191 236,191 236,306 351,306 351,276 		"/>
	</g>
</g>
<g>
	<g>
		<path d="M415.806,126.194c-10.539-10.539-21.938-19.903-34.034-28.038l15.218-26.358l-25.98-15l-15.199,26.325
			C329.528,70.163,300.826,62.444,271,60.502V30h35V0H206v30h35v30.502c-29.826,1.942-58.528,9.661-84.811,22.62L140.99,56.797
			l-25.98,15l15.218,26.358c-12.096,8.135-23.495,17.5-34.034,28.038C53.508,168.879,30,225.633,30,286
			c0,122.333,98.333,226,226,226c124,0,226-99.333,226-226C482,225.633,458.492,168.879,415.806,126.194z M256,482
			c-108.075,0-196-87.925-196-196S147.925,90,256,90s196,87.925,196,196S364.075,482,256,482z"/>
	</g>
</g>
<g>
</g>
<g>
</g>
<g>
</g>
<g>
</g>
<g>
</g>
<g>
</g>
<g>
</g>
<g>
</g>
<g>
</g>
<g>
</g>
<g>
</g>
<g>
</g>
<g>
</g>
<g>
</g>
<g>
</g>
</svg>
