<svg id="Capa_1" enable-background="new 0 0 512 512" height="512" viewBox="0 0 512 512" width="512" xmlns="http://www.w3.org/2000/svg"><g><g><path d="m429.695 212.352c10.738-13.116 17.194-29.868 17.194-48.103 0-41.938-34.119-76.057-76.057-76.057-21.156 0-40.314 8.69-54.114 22.678-21.626-12.008-45.341-19.398-70.079-21.807-7.908-23.931-30.472-41.255-57.02-41.255-33.11 0-60.047 26.937-60.047 60.047 0 3.129.242 6.203.706 9.205-1.861 1.198-3.704 2.431-5.527 3.701-28.589 19.918-50.645 47.218-64.012 79.164-38.124 27.414-60.739 71.336-60.739 118.433 0 80.413 65.42 145.833 145.833 145.833h235.666c71.958 0 130.501-58.542 130.501-130.5 0-54.911-33.886-102.145-82.305-121.339zm-58.863-94.16c25.396 0 46.057 20.661 46.057 46.057 0 15.524-7.728 29.268-19.53 37.616-11.686-28.928-30.465-54.154-55-73.777 7.843-6.189 17.73-9.896 28.473-9.896zm-181.213-40.384c16.568 0 30.048 13.479 30.048 30.047s-13.479 30.048-30.048 30.048-30.047-13.479-30.047-30.048c-.001-16.568 13.478-30.047 30.047-30.047zm191.88 356.384h-235.666c-63.871 0-115.833-51.963-115.833-115.834 0-38.657 19.667-77.858 55.246-98.847 10.171-31.011 32.269-57.131 57.235-74.524 11.006 13.942 28.038 22.916 47.138 22.916 29.135 0 53.481-20.861 58.909-48.428 25.395 3.293 49.374 12.906 70.238 28.296 25.731 18.979 48.15 46.979 57.613 85.029 62.788-.3 105.621 47.317 105.621 100.891 0 55.416-45.084 100.501-100.501 100.501z"/></g><path d="m163.019 336.109c-.923 1.101-1.919 2.128-2.958 3.054-5.324 4.742-12.145 7.146-20.275 7.146-22.123 0-40.121-17.998-40.121-40.12 0-22.123 17.998-40.121 40.121-40.121 8.041 0 15.794 2.366 22.421 6.843l16.794-24.858c-11.605-7.841-25.166-11.985-39.215-11.985-38.665 0-70.121 31.456-70.121 70.121 0 38.664 31.456 70.12 70.121 70.12 15.488 0 29.399-5.098 40.227-14.743 2.121-1.889 4.136-3.967 5.99-6.178z"/><path d="m264.545 236.068c-38.665 0-70.12 31.456-70.12 70.121 0 38.664 31.456 70.12 70.12 70.12 38.665 0 70.121-31.456 70.121-70.12 0-38.665-31.456-70.121-70.121-70.121zm-40.12 70.121c0-22.123 17.998-40.121 40.12-40.121 22.123 0 40.121 17.998 40.121 40.121 0 22.122-17.998 40.12-40.121 40.12-22.122 0-40.12-17.998-40.12-40.12z"/><path d="m406.054 359.141c2.122-2.672 7.008-8.818 7.516-9.442 5.312-6.54 13.34-16.424 13.34-31.096 0-19.327-15.736-35.05-35.078-35.05-18.062 0-32.431 12.265-35.757 30.52l29.515 5.377c1.074-5.897 4.964-5.897 6.243-5.897 3.699 0 5.078 3.098 5.078 5.05 0 3.753-2.503 7.105-6.626 12.181-.585.721-28.295 35.553-28.295 35.553l-.08 22.704 66.724.151.068-30z"/></g></svg>