<?xml version="1.0" encoding="iso-8859-1"?>
<!-- Generator: Adobe Illustrator 19.0.0, SVG Export Plug-In . SVG Version: 6.00 Build 0)  -->
<svg xmlns="http://www.w3.org/2000/svg" xmlns:xlink="http://www.w3.org/1999/xlink" version="1.1" id="Capa_1" x="0px" y="0px" viewBox="0 0 512 512" style="enable-background:new 0 0 512 512;" xml:space="preserve">
<g>
	<g>
		<path d="M383.436,250.394l-29.863-11.152c-40.104-14.976-67.049-53.808-67.049-96.629c0-42.821,26.945-81.653,67.049-96.629    l29.863-11.152l-27.628-15.901C334.289,6.546,309.721,0,284.763,0C206.125,0,142.15,63.976,142.15,142.613    c0,13.121,1.79,25.83,5.123,37.905v134.867c-11.078,5.53-18.709,16.975-18.709,30.176s7.631,24.646,18.709,30.175v35.187    c-11.078,5.53-18.709,16.975-18.709,30.176c0,18.587,15.122,33.709,33.709,33.709c18.587,0,33.709-15.122,33.709-33.709    c0-13.2-7.631-24.646-18.709-30.176v-35.187c11.078-5.53,18.709-16.975,18.709-30.175c0-13.2-7.631-24.646-18.709-30.176v-79.151    c16.105,18.467,36.88,32.754,60.465,41.016v85.535l-31.86,27.44v74.915c0,25.839,21.021,46.86,46.86,46.86    c25.839,0,46.86-21.021,46.86-46.86v-74.915l-31.86-27.44v-78.579c5.584,0.667,11.264,1.02,17.025,1.02    c14.804,0,29.465-2.321,43.439-6.78v36.939c-11.078,5.53-18.709,16.975-18.709,30.176s7.631,24.646,18.709,30.175v35.187    c-11.078,5.53-18.709,16.975-18.709,30.176c0,18.587,15.122,33.709,33.709,33.709s33.709-15.122,33.709-33.709    c0-13.2-7.631-24.646-18.709-30.176v-35.187c11.078-5.53,18.709-16.975,18.709-30.175c0-13.2-7.631-24.646-18.709-30.176v-50.469    L383.436,250.394z M162.273,444.808c-2.045,0-3.709-1.664-3.709-3.709c0-2.045,1.664-3.709,3.709-3.709s3.709,1.664,3.709,3.709    C165.982,443.144,164.318,444.808,162.273,444.808z M162.273,349.271c-2.045,0-3.709-1.664-3.709-3.709    c0-2.045,1.664-3.709,3.709-3.709s3.709,1.664,3.709,3.709C165.982,347.606,164.318,349.271,162.273,349.271z M269.598,403.98    v61.16c0,9.297-7.563,16.86-16.86,16.86c-9.297,0-16.86-7.563-16.86-16.86v-61.16l1.86-1.602v34.409h30v-34.409L269.598,403.98z     M284.763,255.227c-62.095,0-112.613-50.518-112.613-112.613S222.668,30,284.763,30c9.621,0,19.167,1.23,28.391,3.625    c-12.444,8.737-23.358,19.604-32.301,32.262c-15.916,22.527-24.329,49.058-24.329,76.727c0,27.669,8.413,54.2,24.329,76.727    c8.942,12.657,19.856,23.524,32.301,32.262C303.93,253.997,294.384,255.227,284.763,255.227z M343.203,444.808    c-2.045,0-3.709-1.664-3.709-3.709c0-2.045,1.664-3.709,3.709-3.709c2.045,0,3.709,1.664,3.709,3.709    C346.912,443.144,345.248,444.808,343.203,444.808z M343.203,349.271c-2.045,0-3.709-1.664-3.709-3.709    c0-2.045,1.664-3.709,3.709-3.709c2.045,0,3.709,1.664,3.709,3.709C346.912,347.606,345.248,349.271,343.203,349.271z"/>
	</g>
</g>
<g>
</g>
<g>
</g>
<g>
</g>
<g>
</g>
<g>
</g>
<g>
</g>
<g>
</g>
<g>
</g>
<g>
</g>
<g>
</g>
<g>
</g>
<g>
</g>
<g>
</g>
<g>
</g>
<g>
</g>
</svg>
