<svg id="Capa_1" enable-background="new 0 0 511.994 511.994" height="512" viewBox="0 0 511.994 511.994" width="512" xmlns="http://www.w3.org/2000/svg"><g id="XMLID_1590_"><path id="XMLID_1591_" d="m199.483 199.341-72.47 109.515 25.017 16.556 69.028-104.311 104.652-67.979-16.342-25.158z"/><path id="XMLID_1592_" d="m198.78 257.262h146.348v30h-146.348z" transform="matrix(.707 -.707 .707 .707 -112.865 272.044)"/><path id="XMLID_1595_" d="m511.994 96.559-96.558-96.559-51.596 51.595-39.894-39.894-189.167 123.079-123.078 189.166 39.894 39.894-51.595 51.596 96.559 96.559 51.595-51.594 37.889 37.889 62.17-29.941c47.871-23.056 91.194-53.797 128.767-91.368 37.571-37.572 68.312-80.896 91.368-128.767l29.941-62.17-37.889-37.89zm-96.558-54.133 54.133 54.133-30.382 30.382-54.134-54.133zm-318.877 427.142-54.133-54.133 30.382-30.383 54.133 54.134zm344.759-234.373c-43.207 89.713-116.41 162.916-206.123 206.123l-42.99 20.705-142.098-142.096 106.355-163.463 163.465-106.357 142.097 142.098z"/></g></svg>