<svg id="Capa_1" enable-background="new 0 0 512 512" height="512" viewBox="0 0 512 512" width="512" xmlns="http://www.w3.org/2000/svg"><g><path d="m437.02 74.98c-48.353-48.351-112.64-74.98-181.02-74.98s-132.667 26.629-181.02 74.98c-48.351 48.353-74.98 112.64-74.98 181.02s26.629 132.667 74.98 181.02c48.353 48.351 112.64 74.98 181.02 74.98s132.667-26.629 181.02-74.98c48.351-48.353 74.98-112.64 74.98-181.02s-26.629-132.667-74.98-181.02zm23.891 85.759h-81.11c-5.499-16.816-12.437-33.204-20.77-48.922-14.975-28.245-34.395-54.357-57.217-77.147 70.645 14.604 129.326 62.287 159.097 126.069zm21.089 95.261c0 22.682-3.373 44.589-9.62 65.261h-84.4c4.704-21.455 7.116-43.361 7.116-65.261s-2.411-43.806-7.116-65.261h84.4c6.247 20.672 9.62 42.579 9.62 65.261zm-452 0c0-22.682 3.373-44.589 9.62-65.261h84.4c-4.704 21.455-7.116 43.361-7.116 65.261s2.411 43.806 7.116 65.261h-84.4c-6.247-20.672-9.62-42.579-9.62-65.261zm116.905 0c0-22.104 2.727-43.999 7.956-65.261h86.139v130.521h-86.139c-5.229-21.261-7.956-43.156-7.956-65.26zm201.04-95.261h-76.945v-114.039c34.796 31.746 61.113 71.059 76.945 114.039zm-106.945-114.039v114.04h-76.945c15.832-42.981 42.149-82.294 76.945-114.04zm0 304.561v114.039c-34.796-31.747-61.113-71.06-76.945-114.04h76.945zm30 114.039v-114.04h76.945c-15.832 42.981-42.149 82.294-76.945 114.04zm0-144.039v-130.522h86.139c5.229 21.262 7.956 43.157 7.956 65.261s-2.727 43.999-7.956 65.261zm-60.815-286.59c-22.822 22.79-42.242 48.901-57.217 77.147-8.333 15.718-15.271 32.105-20.77 48.922h-81.11c29.772-63.783 88.453-111.466 159.097-126.069zm-159.096 316.59h81.11c5.499 16.816 12.437 33.204 20.77 48.922 14.975 28.245 34.395 54.357 57.217 77.147-70.645-14.604-129.326-62.287-159.097-126.069zm250.726 126.068c22.822-22.79 42.242-48.901 57.217-77.147 8.333-15.718 15.271-32.105 20.77-48.922h81.11c-29.772 63.783-88.453 111.466-159.097 126.069z"/></g></svg>