<svg id="Capa_1" enable-background="new 0 0 510 510" height="512" viewBox="0 0 510 510" width="512" xmlns="http://www.w3.org/2000/svg"><g><path d="m419.34 255.983c-4.027-43.253-26.489-81.235-59.439-105.983h60.099v-30h-60.041c9.438-12.544 15.041-28.129 15.041-45v-30h-45c-41.355 0-75 33.645-75 75 0-41.355-33.645-75-75-75h-45v30c0 16.871 5.603 32.456 15.041 45h-75.041v30h75.099c-32.95 24.748-55.412 62.73-59.439 105.983-51.137 7.015-90.66 50.984-90.66 104.017 0 57.897 47.103 105 105 105 46.911 0 108.813-24.192 122.995-30h54.01c14.182 5.808 76.084 30 122.995 30 57.897 0 105-47.103 105-105 0-53.033-39.523-97.002-90.66-104.017zm44.632 57.761-161.643 80.821c1.927-12.753 5.446-28.826 11.88-44.694 17.454-43.045 48.001-64.871 90.791-64.871 23.912 0 45.228 11.262 58.972 28.744zm-133.972-238.744h15c0 24.813-20.187 45-45 45h-15c0-24.813 20.187-45 45-45zm-165 0h15c24.813 0 45 20.187 45 45h-15c-24.813 0-45-20.187-45-45zm-60 210c42.79 0 73.337 21.826 90.791 64.871 6.434 15.868 9.954 31.941 11.88 44.694l-161.643-80.821c13.743-17.482 35.061-28.744 58.972-28.744zm-75 75c0-6.725.903-13.239 2.571-19.444l154.856 77.428c-23.757 7.956-56.492 17.016-82.427 17.016-41.355 0-75-33.645-75-75zm240.829 45h-31.658c-1.396-15.318-5.147-40.33-15.244-65.571-19.944-49.858-55.399-78.491-103.087-83.594 7.031-59.516 57.784-105.835 119.16-105.835h30c61.376 0 112.129 46.319 119.16 105.835-47.688 5.102-83.143 33.735-103.087 83.594-10.096 25.241-13.848 50.253-15.244 65.571zm134.171 30c-25.935 0-58.67-9.06-82.427-17.017l154.856-77.428c1.668 6.206 2.571 12.72 2.571 19.445 0 41.355-33.645 75-75 75z"/></g></svg>