<svg id="Capa_1" enable-background="new 0 0 512 512" height="512" viewBox="0 0 512 512" width="512" xmlns="http://www.w3.org/2000/svg"><g><path d="m497 203.5c-24.813 0-45-20.187-45-45v-158.5h-392v158.5c0 12.018-4.681 23.32-13.172 31.818-8.508 8.5-19.811 13.182-31.828 13.182h-15v308.5h512v-308.5zm-75-173.5v30h-76v-30zm-106 0v70c0 33.084-26.916 60-60 60s-60-26.916-60-60v-70zm-150 0v30h-76v-30zm-136 202.009c14.309-2.891 27.468-9.914 38.042-20.477 14.16-14.173 21.958-33.007 21.958-53.032v-68.5h76v10c0 44.516 32.489 81.58 75 88.743v29.666h-45.205v30h45.205v233.591h-211zm452 249.991h-211v-233.591h45.205v-30h-45.205v-29.666c42.511-7.163 75-44.227 75-88.743v-10h76v68.5c0 36.219 25.809 66.523 60 73.493z"/><path d="m75.171 391.33c0 33.256 27.056 60.312 60.312 60.312s60.312-27.056 60.312-60.312v-112.472h-120.624zm60.312 30.312c-16.714 0-30.312-13.598-30.312-30.312v-22.33h60.624v22.33c0 16.714-13.598 30.312-30.312 30.312zm30.312-112.784v30.142h-60.624v-30.142z"/><path d="m316.205 391.33c0 33.256 27.056 60.312 60.312 60.312s60.312-27.056 60.312-60.312v-112.472h-120.624zm60.312 30.312c-16.714 0-30.312-13.598-30.312-30.312v-22.33h60.624v22.33c0 16.714-13.598 30.312-30.312 30.312zm30.312-112.784v30.142h-60.624v-30.142z"/></g></svg>