<svg id="Capa_1" enable-background="new 0 0 512 512" height="512" viewBox="0 0 512 512" width="512" xmlns="http://www.w3.org/2000/svg"><g><path d="m511.991 512-14.012-72.713c-14.338-71.691-34.908-133.737-62.882-189.682-8.413-16.827-10.2-36.057-5.032-54.146l55.846-195.459h-459.772l55.847 195.458c5.167 18.09 3.38 37.32-5.032 54.146-28.031 56.057-48.616 118.103-62.933 189.683l-14.012 72.713h241.015l.001-54.355c4.964.554 9.969.846 15 .846s10.036-.292 15-.846v54.355zm-36.333-30h-174.633v-31.242c9.241-3.269 18.148-7.537 26.55-12.789l120.306-75.191c7.989 25.95 14.861 53.303 20.672 82.347zm-409.747-452h380.228l-44.92 157.218c-7.855 27.498-4.163 53.127 8.393 78.562-98.428 39.979-208.744 39.979-307.173 0 13.371-27.084 15.769-52.74 8.392-78.563zm145.113 452h-174.682l7.105-36.872c5.809-29.036 12.688-56.395 20.694-82.367l120.334 75.209c8.403 5.252 17.309 9.52 26.55 12.789zm-10.649-69.47-126.504-79.065c4.947-13.866 10.245-27.342 15.932-40.444 53.226 21.825 109.723 32.747 166.222 32.747 56.498 0 112.994-10.921 166.219-32.745 5.681 13.098 10.975 26.577 15.919 40.453l-126.488 79.054c-33.806 21.128-77.494 21.128-111.3 0z"/><path d="m256.025 108.505c7.968 7.142 18.483 11.495 30 11.495h75v-30h-75c-8.271 0-15-6.729-15-15v-15h-30v15c0 8.271-6.729 15-15 15h-75v30h75c11.517 0 22.032-4.354 30-11.495z"/><path d="m256.025 198.505c7.968 7.142 18.483 11.495 30 11.495h75v-30h-75c-8.271 0-15-6.729-15-15v-15h-30v15c0 8.271-6.729 15-15 15h-75v30h75c11.517 0 22.032-4.354 30-11.495z"/></g></svg>