<svg id="Capa_1" enable-background="new 0 0 513 513" height="512" viewBox="0 0 513 513" width="512" xmlns="http://www.w3.org/2000/svg"><g><path d="m109.305 368.814.14 2.031 18.057 51.284h-13.312v90.871h150.752v-90.87h-13.259l18.056-51.279 25.671-369.851h-211.407zm125.638 114.186h-90.752v-30.87h90.752zm-75.636-60.87-13.853-39.345h88.279l-13.853 39.345zm103.949-391.13-22.334 321.785h-102.649l-22.135-321.785z"/><path d="m383.997 0c-24.813 0-45 20.187-45 45v360.273c0 11.583 2.738 23.181 7.918 33.541l37.082 74.164 37.082-74.163c5.18-10.359 7.918-21.958 7.918-33.542v-360.273c0-24.813-20.187-45-45-45zm-15 45c0-8.271 6.729-15 15-15s15 6.729 15 15v298.566h-30zm30 360.273c0 6.95-1.643 13.909-4.751 20.125l-10.249 20.498-10.249-20.498c-3.108-6.217-4.751-13.176-4.751-20.125v-31.707h30z"/><path d="m174.702 176.392h30v30h-30z"/></g></svg>