<svg id="Capa_1" enable-background="new 0 0 512.208 512.208" height="512" viewBox="0 0 512.208 512.208" width="512" xmlns="http://www.w3.org/2000/svg"><g><path d="m434.211 102.848c-48.653-47.297-110.31-86.745-178.162-86.745-67.819 0-129.45 39.41-178.115 86.748-43.204 42.026-69.403 83.543-70.497 85.29l-7.437 11.874 11.339 8.229c48.093 34.888 145.966 77.86 244.71 77.86 95.159 0 194.117-41.102 244.804-77.855l11.354-8.231-7.45-11.881c-1.094-1.748-27.318-43.264-70.546-85.289zm-178.162-56.744c24.813 0 45 20.187 45 45s-20.187 45-45 45-45-20.187-45-45 20.187-45 45-45zm-104.557 35.473c11.145-7.325 23.01-14.033 35.444-19.598-3.79 8.959-5.887 18.801-5.887 29.124 0 41.355 33.645 75 75 75s75-33.645 75-75c0-10.325-2.098-20.17-5.889-29.13 12.433 5.562 24.298 12.266 35.445 19.587.285 3.169.445 6.358.445 9.543 0 57.975-47.188 105-105 105-57.765 0-105-46.98-105-105-.001-3.18.159-6.363.442-9.526zm-53.234 139.965c-20.758-8.951-40.506-19.319-57.138-29.617 10.627-14.962 31.002-41.645 58.193-68.017 6.778-6.574 14.255-13.382 22.337-20.111 2.621 27.967 13.806 53.479 30.903 73.884-5.455 1.311-10.822 3.189-15.998 5.648-17.38 8.257-30.735 21.74-38.297 38.213zm157.791 34.562c-49.398 0-94.571-11.091-129.759-23.564 4.784-9.431 12.803-17.203 23.137-22.112 14.494-6.886 30.496-6.794 43.905.251 19.098 10.036 40.766 15.425 62.716 15.425 22.454 0 44.062-5.623 62.716-15.425 13.41-7.045 29.413-7.137 43.906-.251 10.337 4.911 18.358 12.686 23.142 22.123-35.201 12.469-80.378 23.553-129.763 23.553zm157.799-34.545c-7.56-16.48-20.918-29.97-38.305-38.229-5.176-2.459-10.543-4.337-15.998-5.648 17.103-20.412 28.29-45.935 30.905-73.914 8.102 6.74 15.595 13.559 22.388 20.144 27.203 26.368 47.592 53.047 58.23 68.011-16.454 10.181-36.195 20.576-57.22 29.636z"/><path d="m151.049 421.104c0-32.898-45.207-103.28-62.658-128.525l-12.24-17.721-12.377 17.625c-17.899 25.49-63.725 95.669-63.725 128.621 0 41.458 34.535 75 76 75 41.355 0 75-33.645 75-75zm-121 0c0-16.387 23.909-59.282 45.896-93.039 21.618 33.761 45.104 76.63 45.104 93.039 0 24.813-20.187 45-45 45-24.934 0-46-20.608-46-45z"/></g></svg>