<svg id="Capa_1" enable-background="new 0 0 510 510" height="512" viewBox="0 0 510 510" width="512" xmlns="http://www.w3.org/2000/svg"><g><path d="m145 0c-46.869 0-85 38.131-85 85v365c0 33.084 26.916 60 60 60h330c0-15.284 0-497.597 0-510zm275 480h-300c-16.542 0-30-13.458-30-30s13.458-30 30-30h300zm-300-90c-10.925 0-21.168 2.949-30 8.072v-313.072c0-30.327 24.673-55 55-55h275v360z"/><path d="m120 90v270h270v-270zm240 30v121.63l-67.5-85.908-37.5 47.726-37.5-47.727-67.5 85.909v-121.63zm-90.862 150h-103.276l51.638-65.721zm38.153 0-33.215-42.273 18.424-23.448 51.638 65.721zm-157.291 60v-30h210v30z"/></g></svg>