<svg id="Capa_1" enable-background="new 0 0 512 512" height="512" viewBox="0 0 512 512" width="512" xmlns="http://www.w3.org/2000/svg"><g><path d="m0 0v281.103h512v-281.103zm482 251.103h-452v-221.103h452z"/><path d="m355.598 383.899v-31.398h-30v31.398h-54.598v-42.797h27.269v-30h-57.269v72.797h-54.598v-31.398h-30v31.398h-156.402v128.101h512v-128.101zm-325.598 30h77.759v23.101c0 16.871 5.603 32.456 15.041 45h-92.8zm152.759 68.101c-24.813 0-45-20.187-45-45v-23.101h236.482v23.101c0 24.813-20.187 45-45 45zm299.241-68.101v68.101h-92.8c9.438-12.544 15.041-28.129 15.041-45v-23.101z"/><path d="m137.26 125h107.48v30h-107.48z" transform="matrix(.707 -.707 .707 .707 -43.052 176.062)"/><path d="m267.26 125h107.48v30h-107.48z" transform="matrix(.707 -.707 .707 .707 -4.976 267.986)"/></g></svg>