<svg id="Capa_1" enable-background="new 0 0 512 512" height="512" viewBox="0 0 512 512" width="512" xmlns="http://www.w3.org/2000/svg"><g><path d="m421 61v-61h-30v61h-270v-61h-30v61h-91v451h512v-451zm-330 30v30h30v-30h270v30h30v-30h61v60h-452v-60zm-61 391v-301h452v301z"/><path d="m271 301h15c41.355 0 75-33.645 75-75v-15h-45c-24.508 0-46.305 11.818-60 30.052-13.695-18.234-35.492-30.052-60-30.052h-45v15c0 41.355 33.645 75 75 75h15v30h-120v15c0 57.897 47.103 105 105 105h60c57.897 0 105-47.103 105-105v-15h-120zm-45-30c-19.556 0-36.239-12.539-42.43-30h12.43c19.556 0 36.239 12.539 42.43 30zm90-30h12.43c-6.191 17.461-22.874 30-42.43 30h-12.43c6.191-17.461 22.874-30 42.43-30zm43.493 120c-6.969 34.191-37.274 60-73.493 60h-60c-36.219 0-66.524-25.809-73.493-60z"/></g></svg>