<svg id="Layer_1" enable-background="new 0 0 512.013 512.013" height="512" viewBox="0 0 512.013 512.013" width="512" xmlns="http://www.w3.org/2000/svg"><path d="m512.013 342.592h-98.746c24.114-29.506 37.497-67.444 37.447-105.527v-132.014h7.43c59.843-2.278 59.797-88.062 0-90.318h-3.46v30h3.46c20.088.765 20.073 29.561 0 30.318h-104.482c-17.251-29.547-48.378-48.826-82.655-50.976v-24.055h-30v24.055c-34.277 2.15-65.404 21.429-82.656 50.976h-104.483c-20.088-.765-20.073-29.561 0-30.318h3.46v-30h-3.46c-59.843 2.278-59.797 88.062 0 90.318h7.43v132.014c-.049 38.084 13.333 76.021 37.447 105.527h-98.745v30h34.097c-46.459 53.516-6.917 140.005 64.62 139.397 41.584.001 76.266-30.125 83.367-69.699h147.844c7.101 39.573 41.783 69.699 83.369 69.699 71.545.612 111.075-85.908 64.619-139.397h34.097zm-428.297 69.698h-37.608c5.175-18.123 19.484-32.432 37.607-37.607v37.607zm30-37.607c18.124 5.175 32.433 19.484 37.608 37.607h-37.608zm49.619-2.091h185.342c-9.444 11.14-16.066 24.744-18.749 39.698h-147.844c-2.683-14.953-9.305-28.558-18.749-39.698zm234.962 2.091v37.607h-37.608c5.175-18.123 19.484-32.432 37.608-37.607zm30 0c18.123 5.175 32.433 19.484 37.607 37.607h-37.607zm-7.583-164.136h-61.13v-105.496h61.13zm-173.299-156.674h17.184c27.358 0 52.527 15.457 64.986 39.636v117.038h-147.156v-117.036c12.458-24.181 37.627-39.638 64.986-39.638zm-94.986 51.178v105.496h-61.13v-105.496zm-47.104 192.522c-8.666-17.686-13.472-37.33-13.981-57.025h329.324c-.508 19.695-5.315 39.339-13.981 57.025-8.441 17.229-20.592 32.701-35.312 45.02h-230.738c-14.72-12.319-26.871-27.792-35.312-45.02zm-59.217 144.717h37.607v37.608c-18.122-5.174-32.432-19.484-37.607-37.608zm67.608 37.609v-37.609h37.608c-5.175 18.124-19.485 32.434-37.608 37.609zm246.973-37.609h37.608v37.608c-18.124-5.174-32.433-19.484-37.608-37.608zm67.608 37.609v-37.609h37.607c-5.175 18.124-19.484 32.434-37.607 37.609z"/></svg>