<svg id="Capa_1" enable-background="new 0 0 509.795 509.795" height="512" viewBox="0 0 509.795 509.795" width="512" xmlns="http://www.w3.org/2000/svg"><g><path d="m288.977 369.811c-54.446-40.188-105.054-89.643-148.492-148.492l68.679-68.679-84.853-84.853-123.811 123.81c8.159 12.834 46.686 96.048 134.417 183.781 87.77 87.768 170.914 126.236 183.781 134.417l123.81-123.81-84.853-84.853zm-122.24-217.171-21.214 21.213-42.426-42.426 21.213-21.214zm146.748 319.94c-9.41-6.111-80.625-41.686-157.355-118.415-75.685-75.687-109.985-144.375-118.415-157.355l44.17-44.17 42.426 42.426-23.047 23.047c4.917 6.41 34.535 52.081 86.686 104.232 52.17 52.17 97.815 81.764 104.233 86.687l23.047-23.047 42.426 42.426zm65.383-65.382-42.426-42.427 21.213-21.214 42.427 42.427z"/><path d="m449.295 90v-90h-210v150h45v43.027l45-29.999v76.972h70.458l64.542 43.027v-43.027h45v-150zm-180 30v-90h150v90h-79.542l-25.458 16.973v-16.973zm210 90h-45v16.973l-25.458-16.973h-49.542v-60h90v-30h30z"/><path d="m299.295 60h30v30h-30z"/><path d="m359.295 60h30v30h-30z"/></g></svg>