<svg id="Layer_1" enable-background="new 0 0 510 510" height="512" viewBox="0 0 510 510" width="512" xmlns="http://www.w3.org/2000/svg"><g><path d="m450 450c0-27.906-19.15-51.424-45-58.102v-151.898c0-57.898-47.103-105-105-105h-90c-57.898 0-105 47.102-105 105v151.898c-25.85 6.678-45 30.196-45 58.102v30h-60v30h510v-30h-60zm-315-210c0-41.355 33.645-75 75-75h90c41.355 0 75 33.645 75 75v150h-105v-47.58c46.977-17.385 35.719-86.463-15.001-87.42-50.727.961-61.97 70.044-14.999 87.42v47.58h-105zm105 60c0-8.272 6.729-15 15-15 19.872.753 19.867 29.25 0 30-8.271 0-15-6.728-15-15zm-150 180v-30c0-16.542 13.458-30 30-30h270c16.542 0 30 13.458 30 30v30z"/><path d="m240 0h30v60h-30z"/><path d="m0 240h60v30h-60z"/><path d="m450 240h60v30h-60z"/><path d="m80.901 65.901h30v60.001h-30z" transform="matrix(.707 -.707 .707 .707 -39.723 95.901)"/><path d="m384.099 80.901h60.001v30h-60.001z" transform="matrix(.707 -.707 .707 .707 53.474 320.9)"/></g></svg>