<svg id="Capa_1" enable-background="new 0 0 510 510" height="512" viewBox="0 0 510 510" width="512" xmlns="http://www.w3.org/2000/svg"><g><path d="m434.37 240.001c-1.141-13.756-3.835-27.076-7.905-39.788l42.147-17.458-11.48-27.717-42.179 17.471c-6.259-12.087-13.852-23.373-22.575-33.675l53.54-53.54-21.213-21.213-53.541 53.54c-10.301-8.724-21.587-16.315-33.674-22.574l17.472-42.18-27.717-11.48-17.458 42.149c-12.712-4.07-26.031-6.765-39.787-7.904v-75.632h-30.001v75.63c-13.755 1.141-27.076 3.835-39.787 7.905l-17.459-42.149-27.717 11.48 17.471 42.18c-12.087 6.258-23.373 13.851-33.674 22.574l-53.541-53.54-21.211 21.214 53.54 53.54c-8.724 10.302-16.317 21.588-22.576 33.676l-42.179-17.472-11.48 27.717 42.149 17.458c-4.071 12.712-6.765 26.032-7.906 39.788h-75.629v30h510v-30zm-179.371-135.001c77.649 0 141.703 59.307 149.253 135.001h-45.328c-7.301-50.817-51.119-90.001-103.925-90.001s-96.623 39.184-103.924 90.001h-45.328c7.55-75.694 71.604-135.001 149.252-135.001zm73.492 135.001h-146.983c6.969-34.192 37.272-60.001 73.491-60.001 36.22 0 66.523 25.809 73.492 60.001z"/><path d="m45 300h420v30h-420z"/><path d="m164.999 360h255.001v30h-255.001z"/><path d="m89.999 360h45v30h-45z"/><path d="m315 420h60v30h-60z"/><path d="m134.999 420h150.001v30h-150.001z"/><path d="m179.999 480h150.001v30h-150.001z"/></g></svg>