<svg id="Capa_1" enable-background="new 0 0 512 512" height="512" viewBox="0 0 512 512" width="512" xmlns="http://www.w3.org/2000/svg"><g><path d="m177.962 212c-33.084 0-60-26.916-60-60s26.916-60 60-60 60 26.916 60 60-26.916 60-60 60zm0-90c-16.542 0-30 13.458-30 30s13.458 30 30 30 30-13.458 30-30-13.458-30-30-30z"/><path d="m328.25 212c-33.084 0-60-26.916-60-60s26.916-60 60-60 60 26.916 60 60-26.916 60-60 60zm0-90c-16.542 0-30 13.458-30 30s13.458 30 30 30 30-13.458 30-30-13.458-30-30-30z"/><path d="m302.5 442h-93c-43.561 0-79-35.439-79-79v-8c0-43.561 35.439-79 79-79h93c43.561 0 79 35.439 79 79v8c0 43.561-35.44 79-79 79zm-93-136c-27.019 0-49 21.981-49 49v8c0 27.019 21.981 49 49 49h93c27.019 0 49-21.981 49-49v-8c0-27.019-21.981-49-49-49z"/><path d="m271.5 381h-31c-23.71 0-43-19.29-43-43h30c0 7.168 5.832 13 13 13h31c7.168 0 13-5.832 13-13h30c0 23.71-19.29 43-43 43z"/><path d="m256 512c-116.39 0-211.081-94.69-211.081-211.08v-89.84c0-116.39 94.691-211.08 211.081-211.08s211.081 94.69 211.081 211.08v89.84c0 116.39-94.691 211.08-211.081 211.08zm0-482c-99.848 0-181.081 81.232-181.081 181.08v89.84c0 99.848 81.233 181.08 181.081 181.08 99.849 0 181.081-81.232 181.081-181.08v-89.84c0-99.848-81.233-181.08-181.081-181.08z"/></g></svg>