<svg id="Capa_1" enable-background="new 0 0 510 510" height="512" viewBox="0 0 510 510" width="512" xmlns="http://www.w3.org/2000/svg"><g><path d="m462.42 165c8.358-23.568-4.191-49.214-27.475-57.438 1.441-34.077-25.858-62.562-59.945-62.562-.004 0-.009 0-.014 0-21.268-28.312-59.395-37.837-91.265-23.182-42.877-36.923-108.613-25.539-136.707 23.24-35.654 1.402-64.971 27.82-70.9 62.144-18.036 5.867-31.114 22.829-31.114 42.798 0 5.259.915 10.305 2.58 15h-32.58v76.5c0 54.984 23.053 104.685 60 139.945v73.555c0 30.327 24.673 55 55 55h250c30.327 0 55-24.673 55-55v-73.555c36.947-35.261 60-84.961 60-139.945v-76.5zm-357.42 30h150v7.5c0 28.948 23.552 52.5 52.5 52.5s52.5-23.552 52.5-52.5v-7.5h45v172.974c-28.209 23.128-64.261 37.026-103.5 37.026h-93c-39.239 0-75.291-13.898-103.5-37.026zm315-30h-60v-30h60c8.272 0 15 6.729 15 15s-6.728 15-15 15zm-265.394-89.767 10.931 1.108 4.354-10.088c9.506-22.022 31.137-36.253 55.109-36.253 34.282 0 49.186 26.478 53.749 30.254l10.94-7.46c21.784-14.857 51.658-7.757 64.564 15.209l5.186 9.229 10.433-1.794c18.46-3.173 35.128 11.093 35.128 29.562h-75v97.5c0 12.406-10.094 22.5-22.5 22.5s-22.5-10.094-22.5-22.5c0-11.365 0-75.05 0-97.5h-177.43c6.773-19.102 25.873-31.918 47.036-29.767zm-79.606 74.767c0-8.271 6.729-15 15-15h165v30h-165c-8.271 0-15-6.728-15-15zm-30 91.5v-46.5h30v140.789c-18.887-26.662-30-59.201-30-94.289zm360 213.5c0 13.785-11.215 25-25 25h-250c-13.785 0-25-11.215-25-25v-50.077c29.951 19.036 65.459 30.077 103.5 30.077h93c38.041 0 73.549-11.041 103.5-30.077zm60-213.5c0 35.088-11.113 67.627-30 94.289v-140.789h30z"/><path d="m450 30h30v30h-30z"/><path d="m60 0h30v30h-30z"/></g></svg>