<svg id="Capa_1" enable-background="new 0 0 512 512" height="512" viewBox="0 0 512 512" width="512" xmlns="http://www.w3.org/2000/svg"><g><path d="m185.291 350.151c15.066 16.196 36.662 24.382 64.268 24.382h12.883c27.604 0 49.203-8.187 64.269-24.382 25.598-27.517 21.122-67.461 20.919-69.147l-1.407-11.693-11.693-1.407c-1.684-.201-41.632-4.678-69.147 20.919-3.51 3.265-6.626 6.851-9.381 10.724-2.755-3.873-5.871-7.458-9.38-10.723-27.517-25.598-67.46-21.121-69.148-20.92l-11.693 1.407-1.407 11.693c-.207 1.686-4.682 41.632 20.917 69.147zm100.392-39.24c9.551-8.966 22.398-12.058 31.966-13.031-.97 9.528-4.038 22.308-12.904 31.838-7.643 8.216-18.819 13.038-33.337 14.408 1.362-14.441 6.14-25.578 14.275-33.215zm-59.366 0c8.135 7.638 12.914 18.774 14.275 33.215-14.438-1.363-25.578-6.142-33.214-14.276-8.966-9.55-12.058-22.399-13.031-31.967 9.579.972 22.423 4.065 31.97 13.028z"/><path d="m360 130h-34v-85c0-24.813-20.187-45-45-45h-50c-24.813 0-45 20.187-45 45v85h-34c-24.813 0-45 20.187-45 45v292c0 24.813 20.187 45 45 45h208c24.813 0 45-20.187 45-45v-292c0-24.813-20.187-45-45-45zm-144-85c0-8.271 6.729-15 15-15h50c8.271 0 15 6.729 15 15v25h-80zm0 55h80v30h-80zm-64 60h208c8.271 0 15 6.729 15 15v15h-238v-15c0-8.271 6.729-15 15-15zm223 60v202h-238v-202zm-15 262h-208c-8.271 0-15-6.729-15-15v-15h238v15c0 8.271-6.729 15-15 15z"/></g></svg>