<svg id="Capa_1" enable-background="new 0 0 512 512" height="512" viewBox="0 0 512 512" width="512" xmlns="http://www.w3.org/2000/svg"><g><path d="m390.334 80.546v-15.546c0-35.841-29.159-65-65-65h-198.667c-35.841 0-65 29.159-65 65v382c0 35.841 29.159 65 65 65h198.667c35.841 0 65-29.159 65-65v-134.21c33.51-2.565 59.999-30.632 59.999-64.789v-102.666c0-34.157-26.488-62.225-59.999-64.789zm29.999 167.455c0 19.299-15.701 35-35 35h-181.838l-30.495 27.004v-164.67c0-19.299 15.701-35 35-35h177.333c19.299 0 35 15.701 35 35zm-94.999 233.999h-50.063c3.971-7.642 6.23-16.31 6.23-25.5s-2.259-17.858-6.23-25.5h85.063v16c0 19.299-15.701 35-35 35zm-233.667-35v-16h85.064c-3.971 7.642-6.23 16.31-6.23 25.5s2.259 17.858 6.23 25.5h-50.064c-19.299 0-35-15.701-35-35zm35-417h198.667c19.299 0 35 15.701 35 35v15.335h-152.334c-35.841 0-65 29.159-65 65v210.333h23.686l48.182-42.667h145.466v87.999h-268.667v-336c0-19.299 15.701-35 35-35zm124.834 426.5c0 14.06-11.44 25.5-25.5 25.5-14.061 0-25.5-11.44-25.5-25.5s11.439-25.5 25.5-25.5c14.06 0 25.5 11.44 25.5 25.5z"/><path d="m311.667 147.888h-30v33.779h-33.78v30h33.78v33.78h30v-33.78h33.779v-30h-33.779z"/></g></svg>