<svg id="Capa_1" enable-background="new 0 0 512 512" height="512" viewBox="0 0 512 512" width="512" xmlns="http://www.w3.org/2000/svg"><g id="Wishlist"><g><path d="m421 512h-330v-512h330zm-300-30h270v-452h-270z"/></g><g><path d="m256 212.594c-1.683-1.429-90-35.583-90-96.594 0-30.841 23.061-55 52.5-55 15.809 0 28.544 5.748 37.5 12.286 8.956-6.538 21.691-12.286 37.5-12.286 29.439 0 52.5 24.159 52.5 55 0 60.745-88.414 95.248-90 96.594zm-37.5-121.594c-14.614 0-22.5 12.88-22.5 25 0 21.102 21.764 43.967 60 63.304 38.236-19.336 60-42.202 60-63.304 0-12.12-7.886-25-22.5-25-16.625 0-25.13 11.486-25.211 11.602l-12.664 18.09-11.864-18.015c-.908-1.177-9.456-11.677-25.261-11.677z"/></g><g><path d="m241 331h-90v-90h90zm-60-30h30v-30h-30z"/></g><g><path d="m241 451h-90v-90h90zm-60-30h30v-30h-30z"/></g><g><path d="m271 241h90v30h-90z"/></g><g><path d="m271 301h90v30h-90z"/></g><g><path d="m271 361h60v30h-60z"/></g><g><path d="m271 421h90v30h-90z"/></g></g></svg>