<?xml version="1.0" encoding="iso-8859-1"?>
<!-- Generator: Adobe Illustrator 19.0.0, SVG Export Plug-In . SVG Version: 6.00 Build 0)  -->
<svg xmlns="http://www.w3.org/2000/svg" xmlns:xlink="http://www.w3.org/1999/xlink" version="1.1" id="Layer_1" x="0px" y="0px" viewBox="0 0 512.001 512.001" style="enable-background:new 0 0 512.001 512.001;" xml:space="preserve">
<g>
	<g>
		<path d="M383.82,185.901v-39.778c0-18.052-14.686-32.739-32.739-32.739H310.31V96h16.912V0H183.285v96h19.286v17.384h-41.65    c-18.052,0-32.739,14.687-32.739,32.739v39.778c0,15.038,10.194,27.731,24.033,31.555v190.473    c-13.838,3.823-24.033,16.517-24.033,31.555v39.778c0,18.052,14.687,32.739,32.739,32.739h190.16    c18.053,0,32.739-14.687,32.739-32.739v-39.778c0-16.916-12.896-30.876-29.373-32.567V218.468    C370.924,216.777,383.82,202.817,383.82,185.901z M213.285,30h83.937v36h-83.937V30z M280.31,96v17.384h-47.739V96H280.31z     M353.82,479.261c0,1.51-1.228,2.739-2.739,2.739H160.92c-1.51,0-2.739-1.229-2.739-2.739v-39.778c0-1.51,1.229-2.739,2.739-2.739    h190.16c1.511,0,2.739,1.229,2.739,2.739V479.261z M324.446,406.744H182.214V218.64h142.233V406.744z M353.82,185.901    c0,1.51-1.228,2.739-2.739,2.739H160.92c-1.51,0-2.739-1.229-2.739-2.739v-39.778c0-1.51,1.229-2.739,2.739-2.739h41.65H310.31    h40.771c1.511,0,2.739,1.229,2.739,2.739V185.901z"/>
	</g>
</g>
<g>
	<g>
		<path d="M197.66,365.944h112.649V265.469H197.66V365.944z M227.66,295.469h52.649v40.475H227.66V295.469z"/>
	</g>
</g>
<g>
</g>
<g>
</g>
<g>
</g>
<g>
</g>
<g>
</g>
<g>
</g>
<g>
</g>
<g>
</g>
<g>
</g>
<g>
</g>
<g>
</g>
<g>
</g>
<g>
</g>
<g>
</g>
<g>
</g>
</svg>
