<?xml version="1.0" encoding="iso-8859-1"?>
<!-- Generator: Adobe Illustrator 19.0.0, SVG Export Plug-In . SVG Version: 6.00 Build 0)  -->
<svg xmlns="http://www.w3.org/2000/svg" xmlns:xlink="http://www.w3.org/1999/xlink" version="1.1" id="Layer_1" x="0px" y="0px" viewBox="0 0 512 512" style="enable-background:new 0 0 512 512;" xml:space="preserve">
<g>
	<g>
		<path d="M429.258,0H311.276H200.724H82.742L0,148.476V512h512V148.476L429.258,0z M410.841,31.347l58.808,105.527h-134.34    L316.781,31.347H410.841z M227.046,31.347h57.908l18.528,105.527h-94.966L227.046,31.347z M205.525,168.221h100.949v80.693    H205.525V168.221z M101.16,31.347h94.06L176.69,136.874H42.351L101.16,31.347z M480.653,480.653H31.347V168.221h139.84h2.992    v112.04h163.643v-112.04h2.992h139.841V480.653z"/>
	</g>
</g>
<g>
	<g>
		<polygon points="302.135,302.689 264.519,350.395 284.372,350.395 284.372,416.214 315.719,416.214 315.719,350.395     335.572,350.395   "/>
	</g>
</g>
<g>
	<g>
		<polygon points="214.044,302.689 176.428,350.395 196.281,350.395 196.281,416.214 227.628,416.214 227.628,350.395     247.481,350.395   "/>
	</g>
</g>
<g>
	<g>
		<rect x="181.656" y="428.46" width="148.699" height="31.347"/>
	</g>
</g>
<g>
</g>
<g>
</g>
<g>
</g>
<g>
</g>
<g>
</g>
<g>
</g>
<g>
</g>
<g>
</g>
<g>
</g>
<g>
</g>
<g>
</g>
<g>
</g>
<g>
</g>
<g>
</g>
<g>
</g>
</svg>
