<svg id="Capa_1" enable-background="new 0 0 510 510" height="512" viewBox="0 0 510 510" width="512" xmlns="http://www.w3.org/2000/svg"><g><path d="m169.213 449.141 85.787-21.396 85.787 21.396-85.787-193.977zm85.787-52.314-33.549 8.366 33.549-75.857 33.549 75.857z"/><path d="m240 165h30v60h-30z"/><path d="m240 60h30v60h-30z"/><path d="m510 75h-114.31l-7.031-75h-267.318l-7.031 75h-114.31v150h100.247l-26.719 285h362.943l-26.719-285h100.248zm-30 120h-103.19l26.719 285h-297.057l26.719-285h-103.191v-90h111.628l7.031-75h212.682l7.031 75h111.628z"/><path d="m375 135h75v30h-75z"/><path d="m60 135h75v30h-75z"/></g></svg>