<svg id="Capa_1" enable-background="new 0 0 512 512" height="512" viewBox="0 0 512 512" width="512" xmlns="http://www.w3.org/2000/svg"><g><path d="m384.5 317c-13.867 0-26.767 4.208-37.5 11.406v-9.606c0-30.214-14.805-57.03-37.536-73.59 39.407-19.696 66.536-60.441 66.536-107.41v-127.952l-12.472-2.133c-1.841-.316-45.817-7.715-107.528-7.715-61.712 0-105.687 7.399-107.529 7.715l-12.471 2.133v127.952c0 46.969 27.129 87.714 66.536 107.41-22.731 16.56-37.536 43.376-37.536 73.59v9.607c-10.733-7.199-23.633-11.407-37.5-11.407-37.22 0-67.5 30.28-67.5 67.5v60c0 37.22 30.28 67.5 67.5 67.5s67.5-30.28 67.5-67.5v-125.7c0-33.636 27.364-61 61-61s61 27.364 61 61v125.7c0 37.22 30.28 67.5 67.5 67.5s67.5-30.28 67.5-67.5v-60c0-37.22-30.28-67.5-67.5-67.5zm-219.5 127.5c0 20.678-16.822 37.5-37.5 37.5s-37.5-16.822-37.5-37.5v-60c0-20.678 16.822-37.5 37.5-37.5s37.5 16.822 37.5 37.5zm1-348.987c16.937-2.157 49.757-5.513 90-5.513 40.242 0 73.062 3.356 90 5.513v29.772c-18.714-2.258-51.064-5.285-90-5.285-38.94 0-71.287 3.027-90 5.285zm105 131.03v-76.389c32.186.653 58.232 3.262 73.288 5.136-7.207 36.449-36.491 65.053-73.288 71.253zm-15-196.543c40.239 0 73.061 3.355 90 5.513v29.747c-18.615-2.261-50.711-5.26-90-5.26s-71.385 2.999-90 5.26v-29.747c16.939-2.158 49.761-5.513 90-5.513zm-88.288 125.289c15.055-1.874 41.099-4.482 73.288-5.136v76.389c-36.797-6.199-66.081-34.804-73.288-71.253zm254.288 289.211c0 20.678-16.822 37.5-37.5 37.5s-37.5-16.822-37.5-37.5v-60c0-20.678 16.822-37.5 37.5-37.5s37.5 16.822 37.5 37.5z"/></g></svg>