<svg id="Capa_1" enable-background="new 0 0 512 512" height="512" viewBox="0 0 512 512" width="512" xmlns="http://www.w3.org/2000/svg"><g><path d="m464.805 357.172-73.805-122.197v-69.975c0-41.355-33.645-75-75-75h-8.072c5.123-8.833 8.072-19.075 8.072-30 0-33.084-26.916-60-60-60s-60 26.916-60 60c0 10.925 2.949 21.167 8.072 30h-8.072c-41.355 0-75 33.645-75 75v69.975l-73.805 122.197 9.73 8.263c2.202 1.869 51.601 43.121 124.074 48.336v98.229h150v-98.229c72.474-5.215 121.872-46.467 124.074-48.336zm-238.805-297.172c0-16.542 13.458-30 30-30s30 13.458 30 30-13.458 30-30 30-30-13.458-30-30zm-75 105c0-24.813 20.187-45 45-45h45v106h30v-106h45c24.813 0 45 20.187 45 45v91c0 19.555-12.541 36.228-30 42.42v-133.42h-30v91h-90v-91h-30v133.42c-17.459-6.192-30-22.865-30-42.42zm-64.414 184.98 39.855-65.986c9.303 23.032 29.708 40.432 54.56 45.497v54.169c-43.781-3.739-78.165-22.887-94.415-33.68zm184.414 132.02v-166h-30v166h-30v-196h90v196zm60-98.332v-54.178c24.852-5.065 45.256-22.465 54.56-45.496l39.876 66.022c-16.185 10.807-50.438 29.935-94.436 33.652z"/></g></svg>