<svg id="Capa_1" enable-background="new 0 0 512.065 512.065" height="512" viewBox="0 0 512.065 512.065" width="512" xmlns="http://www.w3.org/2000/svg"><g><path d="m241 270.033h-45c-8.271 0-15-6.729-15-15s6.729-15 15-15h45v-75c0-40.79-23.714-77.674-60-94.895v-25.105c0-24.813-20.187-45-45-45s-45 20.187-45 45v25.105c-36.286 17.221-60 54.104-60 94.895v317h-31v30h272v-30h-31zm-180-105c0-31.739 20.093-60.166 49.999-70.736l10.001-3.536v-45.728c0-8.271 6.729-15 15-15s15 6.729 15 15v45.729l10.001 3.535c29.906 10.57 49.999 38.996 49.999 70.736v45h-15c-24.813 0-45 20.187-45 45s20.187 45 45 45h15v182h-150z"/><path d="m452.065 211.083c-26.431 0-48.356 12.202-56.546 29.667-3.886-.767-7.152-2.825-8.614-5.602-7.811-14.844-23.077-24.066-39.841-24.066s-32.03 9.222-39.841 24.066c-1.868 3.549-6.68 5.934-11.975 5.934h-23.185v30h23.185c16.634 0 31.395-8.417 38.523-21.964 2.608-4.957 7.701-8.036 13.292-8.036s10.684 3.079 13.292 8.036c6.614 12.569 19.8 20.708 34.952 21.821 8.013 17.718 30.087 30.143 56.756 30.143 33.645 0 60-19.766 60-45s-26.353-44.999-59.998-44.999zm0 60c-18.313 0-30-8.884-30-15s11.687-15 30-15 30 8.884 30 15-11.686 15-30 15z"/></g></svg>