<svg id="Capa_1" enable-background="new 0 0 510 510" height="512" viewBox="0 0 510 510" width="512" xmlns="http://www.w3.org/2000/svg"><g><path d="m510 30.003h-390c-7.979 0-15.728 2.125-22.5 6.038-25.146-14.528-57.182-1.686-65.566 25.896-18.461 5.612-31.934 22.795-31.934 43.066 0 24.813 20.187 45 45 45h15v60h-60v15c0 91.014 54.367 171.098 135 206.261v48.739h180v-48.739c80.486-35.1 135-115.082 135-206.261v-15h-300v-60c19.555 0 36.227-12.541 42.42-30h317.58v-30h-317.578c-4.754-13.404-15.684-23.91-29.355-28.066-.198-.651-.414-1.295-.641-1.934h347.574zm-225 380.872v39.128h-120v-39.128c-3.773-2.257-73.201-20.055-112.856-96.073 17.912 1.203 28.959-2.281 41.915-8.969 6.559-3.385 11.297-5.83 22.191-5.83 10.887 0 15.623 2.445 22.18 5.829 7.916 4.086 17.767 9.171 35.94 9.171s28.023-5.085 35.939-9.171c6.557-3.384 11.293-5.829 22.181-5.829 10.886 0 15.623 2.444 22.18 5.828 7.918 4.087 17.771 9.172 35.95 9.172 18.173 0 28.023-5.085 35.94-9.171 6.557-3.384 11.293-5.829 22.181-5.829 10.894 0 15.632 2.445 22.19 5.83 6.516 3.363 14.354 7.396 27.054 8.72-39.689 76.354-109.29 94.11-112.985 96.322zm134.413-170.872c-1.209 15.414-4.268 30.47-8.976 44.896-1.14.066-2.323.104-3.567.104-10.887 0-15.624-2.445-22.181-5.829-7.918-4.086-17.772-9.171-35.949-9.171-18.173 0-28.024 5.085-35.94 9.171-6.557 3.384-11.293 5.829-22.18 5.829-10.895 0-15.633-2.445-22.191-5.83-7.916-4.086-17.768-9.17-35.939-9.17-18.173 0-28.024 5.085-35.94 9.171-6.557 3.384-11.293 5.829-22.18 5.829-10.888 0-15.624-2.445-22.181-5.829-7.916-4.086-17.767-9.171-35.939-9.171-18.179 0-28.032 5.085-35.95 9.172-6.557 3.384-11.294 5.828-22.18 5.828-9.649 0-14.468-1.921-20.001-4.711-3.893-13.014-6.451-26.509-7.532-40.289h29.413zm-284.413-165v15h15c8.271 0 15 6.729 15 15s-6.729 15-15 15h-30v90h-30v-90h-45c-8.271 0-15-6.729-15-15s6.729-15 15-15h15v-15c0-13.818 17.146-20.23 26.251-9.91l11.249 12.755 11.249-12.755c2.854-3.234 6.954-5.09 11.251-5.09 8.271 0 15 6.729 15 15z"/></g></svg>