<svg id="Capa_1" enable-background="new 0 0 512 512" height="512" viewBox="0 0 512 512" width="512" xmlns="http://www.w3.org/2000/svg"><g><path d="m213.927 70.259-29.481-40.259h286.964v-30h-430.9v483.339h55.594v28.661h30v-28.661h260v28.661h30v-28.661h55.387v-413.08zm227.563 383.08h-370.98v-90.257h370.98zm-370.98-120.257v-168.214h370.98v168.214zm0-198.214v-104.868h76.753l51.45 70.259h242.777v34.609z"/><path d="m101 203.975h30v30h-30z"/><path d="m101 263.975h30v30h-30z"/><path d="m161 203.975h30v30h-30z"/><path d="m161 263.975h30v30h-30z"/><path d="m170.217 393.21h171.568v30h-171.568z"/><path d="m291 203.975v90h120v-90zm90 60h-60v-30h60z"/></g></svg>