<svg id="Layer_1" enable-background="new 0 0 510 510" height="512" viewBox="0 0 510 510" width="512" xmlns="http://www.w3.org/2000/svg"><path d="m480 480v-480h-30v180h-58.008l15-120h-123.984l15 120h-81.026c9.982-17.217 9.467-34.995 4.728-54.161-9.922-40.129 5.72-67.023 8.79-80.839h-130.997c2.995 13.607 18.526 39.887 8.557 80.953-4.647 19.137-4.787 37.184 4.935 54.047h-52.995v-180h-30v480h-30v30h510v-30zm-342.788-346.969c4.702-19.365 5.37-39.126 2.042-58.031h51.418c-7.036 38.854 4.328 58.247 4.328 75-1.246 38.336-55.561 40.332-59.915 2.309-.366-4.975.448-12.363 2.127-19.278zm179.78-43.031h56.016l-11.25 90h-33.516zm133.008 120v195h-53.019c9.982-17.217 9.467-34.995 4.728-54.161-9.922-40.129 5.72-67.023 8.79-80.839h-130.996c2.995 13.607 18.526 39.887 8.557 80.953-4.647 19.137-4.787 37.184 4.935 54.047h-76.013c9.982-17.217 9.467-34.995 4.728-54.161-9.922-40.129 5.72-67.023 8.79-80.839h-130.997c2.995 13.607 18.526 39.887 8.557 80.953-4.647 19.137-4.787 37.184 4.935 54.047h-52.995v-195zm-130.746 90h51.418c-7.036 38.853 4.328 58.247 4.328 75 0 16.729-13.801 30.623-31.184 29.978-15.008-.569-27.628-12.723-28.731-27.668-.366-4.975.448-12.363 2.127-19.278 4.702-19.366 5.37-39.127 2.042-58.032zm-180 0h51.418c-1.788 9.873-2.474 19.933-2.071 30h-47.411c.434-10.113-.206-20.173-1.936-30zm55.746 75c0 16.92-13.976 30.616-31.184 29.978-15.008-.569-27.628-12.723-28.731-27.668-.332-4.507.312-10.989 1.683-17.31h56.275c1.217 5.439 1.957 11.039 1.957 15zm-135 60h390v45h-390z"/></svg>