<svg id="Capa_1" enable-background="new 0 0 512 512" height="512" viewBox="0 0 512 512" width="512" xmlns="http://www.w3.org/2000/svg"><path d="m448.282 76.806-12.472 4.601c-45.373 16.734-96.515 10.754-136.81-15.999-44.995-29.877-100.506-38.242-152.343-22.948l-56.592 16.886v-14.346c0-24.813-20.187-45-45-45s-45 20.187-45 45v467h90v-212h2.17l62.956-18.604c43.263-12.767 89.63-5.775 127.216 19.18 30.182 20.039 65.443 30.343 100.92 30.342 21.226-.001 42.532-3.689 62.864-11.189l5.467-2.017 60.276-116.784zm-418.217 193.194v-180h30v180zm0-225c0-8.271 6.729-15 15-15s15 6.729 15 15v15h-30zm0 437v-182h30v182zm400.352-188.545c-43.992 14.355-92.709 7.825-131.416-17.872-44.995-29.875-100.505-38.244-152.306-22.959l-56.63 16.735v-179.359h2.19l62.936-18.779c43.263-12.767 89.63-5.775 127.216 19.179 44.515 29.556 100.085 37.936 151.085 23.31l44.704 87.174z"/></svg>