<svg id="Capa_1" enable-background="new 0 0 512 512" height="512" viewBox="0 0 512 512" width="512" xmlns="http://www.w3.org/2000/svg"><g><g><path d="m446.173 415.451h-25.728l-24.382-37.91c8.271-16.727 12.62-35.223 12.62-54.04v-27.974c50.215-20.182 85.764-69.377 85.764-126.725 0-28.069-8.457-55.038-24.457-77.989-14.168-20.322-33.32-36.217-55.687-46.353-6.108-25.468-29.056-44.46-56.369-44.46s-50.262 18.992-56.37 44.459c-22.367 10.136-41.519 26.031-55.687 46.353-16 22.951-24.457 49.92-24.457 77.989 0 32.325 11.301 62.056 30.15 85.467h-98.052c-52.709 0-95.591 42.882-95.591 95.591v66.249c-22.872 3.783-40.374 23.69-40.374 47.617v48.275h209.748v-66.549h59.433c11.957 0 23.661-1.712 34.942-5.087l46.069 71.636h126.702v-48.274c0-26.619-21.656-48.275-48.274-48.275zm-116.217-357.473c0-15.427 12.551-27.978 27.978-27.978s27.978 12.551 27.978 27.978v41.364h-27.978c-15.427 0-27.978-12.551-27.978-27.978zm-59.469 49.991c8.099-11.617 18.283-21.374 29.999-28.879 3.791 28.327 28.099 50.252 57.448 50.252h57.978v-49.91c11.493 7.459 21.493 17.095 29.469 28.536 12.474 17.894 19.067 38.929 19.067 60.833 0 58.731-47.782 106.514-106.514 106.514s-106.514-47.782-106.514-106.513c0-21.905 6.594-42.94 19.067-60.833zm-116.969 176.3h43.783v53.183c-5.641-2.316-11.809-3.603-18.274-3.603-26.618 0-48.274 21.656-48.274 48.274v33.328h-42.826v-65.592c0-36.167 29.424-65.59 65.591-65.59zm43.783 197.731h-149.748v-18.274c0-10.076 8.198-18.274 18.274-18.274h94.925v-63.328c0-10.076 8.198-18.274 18.274-18.274s18.274 8.198 18.274 18.274v99.876zm89.432-66.549h-59.433v-33.328-97.854h26.069c8.26 0 16.34-1.957 23.617-5.613 22.665 16.745 50.668 26.66 80.947 26.66 7.053 0 13.982-.538 20.75-1.574v19.76c0 8.218-1.098 16.353-3.229 24.192-6.437-6.35-14.541-10.775-23.592-12.741-12.6-2.737-25.512-.402-36.358 6.573-22.388 14.398-28.888 44.327-14.489 66.714l3.529 5.488c-5.823 1.14-11.772 1.723-17.811 1.723zm177.714 66.549h-80.327l-57.873-89.988c-2.641-4.104-3.524-8.993-2.488-13.763s3.868-8.851 7.974-11.492c4.105-2.64 8.989-3.524 13.764-2.487 4.77 1.035 8.851 3.867 11.491 7.974l47.083 73.208h42.103c10.076 0 18.274 8.198 18.274 18.274v18.274z"/></g><g><path d="m357.934 245.315c29.091 0 52.758-23.667 52.758-52.758h-30c0 12.549-10.209 22.758-22.758 22.758s-22.758-10.209-22.758-22.758h-30c0 29.091 23.667 52.758 52.758 52.758z"/></g></g></svg>