<svg id="Capa_1" enable-background="new 0 0 512 512" height="512" viewBox="0 0 512 512" width="512" xmlns="http://www.w3.org/2000/svg"><g><path d="m497.821 116.232c-18.905-18.904-49.666-18.903-68.571 0l-61.422 61.422v-176.783h-337.93v59.982h-29.898v29.989h29.898v29.993h-29.898v29.989h29.898v29.993h-29.898v29.989h29.898v29.993h-29.898v29.989h29.898v29.992h-29.898v29.989h29.898v29.993h-29.898v29.989h29.898v29.993h-29.898v29.989h29.898v60.395h337.93v-196.332l129.993-129.993c18.905-18.905 18.905-49.666 0-68.571zm-256.401 230.241 7.142-7.142 26.16 26.16-7.142 7.142-31.23 5.07zm54.508-2.187-26.16-26.16 137.923-137.923 26.159 26.16zm41.911 136.854h-277.952v-30.406h34.371v-29.989h-34.371v-29.993h34.371v-29.989h-34.371v-29.993h34.371v-29.989h-34.371v-29.992h34.371v-29.989h-34.371v-29.993h34.371v-29.989h-34.371v-29.993h34.371v-29.989h-34.371v-29.994h34.371v-29.989h-34.371v-29.993h277.952v176.783l-59.324 59.324h-132.036v29.989h102.047l-29.989 29.989h-72.058v29.989h62.861l-9.26 57.038 81.86-13.289 55.899-55.899zm138.777-317.543-21.56 21.56-26.159-26.16 21.559-21.559c7.212-7.212 18.948-7.212 26.16 0v-.001c7.212 7.213 7.212 18.948 0 26.16z"/><path d="m146.479 87.033h131.172v29.989h-131.172z"/><path d="m146.479 147.011h131.172v29.989h-131.172z"/><path d="m146.479 206.99h131.172v29.989h-131.172z"/></g></svg>