<?xml version="1.0" encoding="iso-8859-1"?>
<!-- Generator: Adobe Illustrator 19.0.0, SVG Export Plug-In . SVG Version: 6.00 Build 0)  -->
<svg xmlns="http://www.w3.org/2000/svg" xmlns:xlink="http://www.w3.org/1999/xlink" version="1.1" id="Layer_1" x="0px" y="0px" viewBox="0 0 511.999 511.999" style="enable-background:new 0 0 511.999 511.999;" xml:space="preserve">
<g>
	<g>
		<path d="M255.998,0L3.033,161.536l83.922,55.721v95.432l169.159,112.316l84.861-56.345v70.067h-28.128v73.272H344.1v-42.018    h25.003v42.018h31.254v-73.272h-28.128v-90.819l52.031-34.546v-95.584l84.706-56.242L255.998,0z M340.975,331.146l-84.861,56.344    l-137.905-91.565v-57.916l137.791,91.489l84.975-56.421V331.146z M393.006,296.598l-20.777,13.795v-58.069l20.777-13.795V296.598z     M424.259,180.263l-67.641,44.911l-91.952-61.285l-17.333,26.007l81.055,54.022l-72.388,48.064L86.955,179.742l-26.651-17.696    L255.998,37.082l195.695,124.965L424.259,180.263z"/>
	</g>
</g>
<g>
</g>
<g>
</g>
<g>
</g>
<g>
</g>
<g>
</g>
<g>
</g>
<g>
</g>
<g>
</g>
<g>
</g>
<g>
</g>
<g>
</g>
<g>
</g>
<g>
</g>
<g>
</g>
<g>
</g>
</svg>
