<svg id="Capa_1" enable-background="new 0 0 510 510" height="512" viewBox="0 0 510 510" width="512" xmlns="http://www.w3.org/2000/svg"><g><path d="m435.312 74.688c-48.163-48.164-112.199-74.688-180.312-74.688s-132.149 26.524-180.312 74.688-74.688 112.199-74.688 180.312 26.524 132.149 74.688 180.312 112.199 74.688 180.312 74.688 132.149-26.524 180.312-74.688 74.688-112.199 74.688-180.312-26.524-132.149-74.688-180.312zm-58.91-9.048c-94.053 15.14-178.526 9.544-241.728-.681 72.278-45.926 166.804-47.524 241.728.681zm-273.838 24.025c98.803 19.557 204.064 20.939 305.643.719 35.125 32.713 59.808 76.493 68.422 125.735-199.957 62.805-377.523 19.965-443.127-.783 8.802-49.285 33.713-93.054 69.062-125.671zm152.436 390.335c-68.546 0-130.021-30.821-171.323-79.321 109.059 24.435 227.306 26.698 341.731 1.081-41.292 47.88-102.369 78.24-170.408 78.24zm-197.129-116.634c-19.697-35.689-29.358-76.005-27.666-117.628 68.494 21.008 148.413 33.438 228.846 33.438 75.749 0 149.712-10.929 220.773-32.637 1.55 41.657-8.277 82.044-28.235 117.788-168.056 46.105-316.327 20.222-393.718-.961z"/></g></svg>