<svg height="511pt" viewBox="0 -30 511.9989 511" width="511pt" xmlns="http://www.w3.org/2000/svg"><path d="m458.71875 284.648438c.039062-.042969.078125-.082032.117188-.125 3.25-3.300782 4.222656-4.945313 8.847656-11.5625 59.335937-60.15625 59.085937-157.363282-.753906-217.203126-19-18.96875-18.191407-18.265624-19.1875-19.089843-54.972657-45.398438-131.988282-46.675781-191.167969-11.574219-67.261719-39.972656-154.179688-27.296875-207.296875 31.96875l-12.109375 13.507812c-51.578125 57.550782-49.195313 145.421876 5.410156 200.09375 6.625 6.773438 55.304687 56.546876 55.320313 56.5625 8.148437 8.144532 18.664062 12.5 29.347656 13.085938.585937 10.6875 4.945312 21.199219 13.085937 29.34375 8.148438 8.144531 18.664063 12.503906 29.347657 13.085938.585937 10.6875 4.941406 21.203124 13.085937 29.347656 12.878906 12.878906 31.28125 16.113281 46.839844 10.625 2.164062 6.140625 5.695312 11.902344 10.597656 16.804687 17.546875 17.546875 46.101563 17.550781 63.648437 0l27.433594-27.429687c8.136719-8.140625 12.496094-18.644532 13.082032-29.324219 11.09375-.59375 21.4375-5.195313 29.351562-13.109375s12.511719-18.257812 13.109375-29.347656c10.675781-.589844 21.183594-4.945313 29.324219-13.085938 8.144531-8.144531 12.507812-18.65625 13.089844-29.339844 10.683593-.585937 21.199218-4.949218 29.339843-13.09375.046875-.042968.089844-.09375.136719-.140624zm-30.613281-225.285157 17.609375 17.609375c41.003906 41.003906 47.257812 103.792969 18.777344 151.453125-4.582032-7.015625-1.273438-2.171875-87.847657-89.222656 15.09375-2.433594 29.019531-9.507813 40.019531-20.507813 5.859376-5.855468 5.859376-15.355468 0-21.214843-5.859374-5.859375-15.359374-5.859375-21.21875 0-16.535156 16.535156-43.695312 16.796875-60.546874.585937l-4.285157-4.121094c-5.078125-4.882812-12.863281-5.578124-18.722656-1.671874l-76.90625 51.273437c-18.792969 12.523437-42.84375 12.777344-61.675781 1.792969 64.757812-65.816406 69.296875-74.207032 88.222656-87.699219.101562-.03125 87.769531-62.628906 166.574219 1.722656zm-308.992188 225.429688 42.4375-42.4375c5.847657-5.847657 15.367188-5.847657 21.214844 0 5.851563 5.851562 5.851563 15.367187.003906 21.214843 0 0 0 .003907-.003906.003907l-42.433594 42.433593c-.003906.003907-.007812.007813-.011719.011719-5.835937 5.824219-15.3125 5.835938-21.164062.027344l-.109375-.113281c-5.777344-5.855469-5.757813-15.316406.066406-21.140625zm42.433594 42.433593 42.4375-42.4375c5.851563-5.847656 15.367187-5.847656 21.214844 0 5.863281 5.867188 5.863281 15.355469 0 21.21875l-42.433594 42.433594c-5.847656 5.847656-15.367187 5.847656-21.214844 0-5.851562-5.847656-5.851562-15.363281-.003906-21.214844zm42.4375 63.648438c-5.847656-5.851562-5.851563-15.367188 0-21.21875l42.433594-42.433594c5.847656-5.847656 15.367187-5.847656 21.214843 0 5.863282 5.863282 5.867188 15.351563 0 21.21875-5.0625 5.066406-37.488281 37.492188-42.433593 42.433594-5.863281 5.863281-15.351563 5.863281-21.214844 0zm106.082031 0-27.429687 27.429688c-5.851563 5.847656-15.367188 5.847656-21.21875 0-5.847657-5.851563-5.847657-15.367188 0-21.21875l27.433593-27.429688c5.847657-5.847656 15.363282-5.851562 21.214844 0 5.851563 5.851562 5.851563 15.367188 0 21.21875zm106.082032-127.300781-84.867188-84.867188c-5.855469-5.859375-15.355469-5.859375-21.214844 0-2.929687 2.929688-4.394531 6.769531-4.394531 10.609375 0 3.835938 1.464844 7.675782 4.394531 10.605469l84.867188 84.867187c5.851562 5.851563 5.847656 15.367188 0 21.214844-5.847656 5.851563-15.367188 5.851563-21.21875 0 0 0-84.867188-84.863281-84.867188-84.863281-5.855468-5.859375-15.355468-5.859375-21.214844 0-5.859374 5.855469-5.859374 15.355469 0 21.214844l84.867188 84.867187c5.863281 5.863282 5.863281 15.351563 0 21.21875-5.851562 5.847656-15.367188 5.847656-21.21875 0-8.136719-8.140625-18.644531-12.496094-29.320312-13.085937-.597657-11.089844-5.199219-21.433594-13.113282-29.347657-8.136718-8.140624-18.644531-12.496093-29.320312-13.085937-.597656-11.089844-5.199219-21.433594-13.113282-29.347656-8.144531-8.144531-18.660156-12.503907-29.34375-13.085938-.585937-10.6875-4.945312-21.203125-13.089843-29.347656-17.546875-17.546875-46.101563-17.546875-63.648438 0l-42.433593 42.433594c-3.558594 3.558593-6.378907 7.570312-8.496094 11.847656-31.496094-31.945313-24.339844-24.6875-25.433594-25.796875-.039062-.039062-.078125-.078125-.117188-.117188-43.398437-43.402343-45.308593-113.203124-4.34375-158.910156l12.109376-13.511718c40.285156-44.945313 105.007812-57.1875 158.015624-32.359376-2.683593 2.378907-5.308593 4.835938-7.859374 7.382813-.054688.058594-81.613282 84.339844-81.613282 84.339844-5.695312 5.882812-5.621094 15.25.171875 21.039062 29.726563 29.730469 76.546875 34.1875 111.292969 11.023438l67.09375-44.730469c.730469.597656 116.742188 116.664062 118.644531 118.574219 10.527344 10.53125-.515625 21.554687-.570312 21.734375-5.878907 5.308594-14.976563 5.148437-20.644531-.515625zm0 0"/></svg>