<svg id="Capa_1" enable-background="new 0 0 512.283 512.283" height="512" viewBox="0 0 512.283 512.283" width="512" xmlns="http://www.w3.org/2000/svg"><g><path d="m482.283 230.142v61h-80.25c-22.64-58.778-32.193-121.783-30.907-186h-229.97c.831 46.053-3.69 92.543-15.038 136h-65.976v-48h-30v48h-30.142v271h512.283c0-75.745 0-206.571 0-282zm0 91v104.605c-21.474-23.392-52.166-69.638-67.579-104.605zm-364.929-50c-16.37 52.892-53.07 116.94-87.354 154.606v-154.606zm364.929 211h-452.283v-13.037c81.57-75.963 140.017-211.517 140.948-333.963h170.387c.891 122.402 59.492 258.168 140.948 333.963z"/><path d="m302.518 279.161-12.997-7.526-33.379 57.808-33.379-57.808c-19.976 10.882-35.259 21.184-46.902 41.433-11.753 20.17-13.014 38.61-12.419 61.374h66.718l-33.36 57.774c19.407 11.926 35.891 19.987 59.342 19.925 23.468.06 39.939-8.005 59.342-19.925l-33.36-57.774h66.718v-15c.254-32.635-18.025-64.157-46.324-80.281zm-107.264 65.28c2.775-11.448 8.956-22.087 17.457-30.219l17.448 30.219zm43.431 75.231 17.457-30.233 17.457 30.233c-11.284 3.26-23.631 3.26-34.914 0zm43.439-75.231 17.448-30.219c8.5 8.133 14.682 18.771 17.457 30.219z"/><path d="m170.101 36.134c3.3-8.39 7.041-17.897 7.041-35.992h-30c0 12.405-2.188 17.967-4.959 25.008-3.3 8.39-7.041 17.897-7.041 35.992h30c0-12.406 2.188-17.967 4.959-25.008z"/><path d="m270.101 36.134c3.3-8.39 7.041-17.897 7.041-35.992h-30c0 12.405-2.188 17.967-4.959 25.008-3.3 8.39-7.041 17.897-7.041 35.992h30c0-12.406 2.188-17.967 4.959-25.008z"/><path d="m370.101 36.134c3.3-8.39 7.041-17.897 7.041-35.992h-30c0 12.405-2.188 17.967-4.959 25.008-3.3 8.39-7.041 17.897-7.041 35.992h30c0-12.406 2.188-17.967 4.959-25.008z"/></g></svg>