<svg id="Capa_1" enable-background="new 0 0 505.84 505.84" height="512" viewBox="0 0 505.84 505.84" width="512" xmlns="http://www.w3.org/2000/svg"><g><path d="m471.348 327.159-33.231-13.76c12.749-37.734 12.748-83.224 0-120.958l33.231-13.76 6.775 16.356 27.717-11.48-25.027-60.42-27.717 11.48 6.771 16.347-33.258 13.771c-18.727-36.735-48.769-66.777-85.504-85.504l13.771-33.258 16.347 6.771 11.48-27.717-60.42-25.027-11.48 27.717 16.356 6.775-13.76 33.231c-37.734-12.748-83.224-12.748-120.958 0l-13.76-33.231 16.356-6.775-11.48-27.717-60.42 25.027 11.48 27.717 16.347-6.771 13.771 33.258c-36.735 18.727-66.777 48.769-85.504 85.504l-33.258-13.771 6.771-16.347-27.717-11.48-25.027 60.42 27.717 11.48 6.775-16.356 33.231 13.76c-12.748 37.734-12.748 83.224 0 120.958l-33.231 13.76-6.775-16.356-27.717 11.48 25.027 60.42 27.717-11.48-6.771-16.347 33.258-13.771c18.727 36.736 48.769 66.777 85.504 85.504l-13.771 33.258-16.347-6.771-11.48 27.717 60.42 25.027 11.48-27.717-16.356-6.775 13.76-33.231c37.734 12.748 83.224 12.748 120.958 0l13.76 33.231-16.356 6.775 11.48 27.717 60.42-25.027-11.48-27.717-16.347 6.771-13.771-33.258c36.736-18.727 66.777-48.769 85.504-85.504l33.258 13.771-6.771 16.347 27.717 11.48 25.027-60.42-27.717-11.48zm-218.428 90.58c-90.882 0-164.819-73.938-164.819-164.819 9.053-218.655 320.619-218.592 329.639.001-.001 90.881-73.938 164.818-164.82 164.818z"/><path d="m185.42 245.44c-24.813 0-45 20.187-45 45 2.471 59.699 87.538 59.681 90 0 0-24.813-20.187-45-45-45zm0 60c-8.271 0-15-6.729-15-15 .823-19.9 29.18-19.894 30 0 0 8.272-6.729 15-15 15z"/><path d="m170.42 170.399h30v30h-30z"/><path d="m320.42 170.399c-24.813 0-45 20.187-45 45 2.471 59.699 87.538 59.681 90 0 0-24.813-20.187-45-45-45zm0 60c-8.271 0-15-6.729-15-15 .823-19.9 29.18-19.894 30 0 0 8.272-6.729 15-15 15z"/><path d="m305.42 305.44h30v30h-30z"/></g></svg>