<svg id="Capa_1" enable-background="new 0 0 510 510" height="512" viewBox="0 0 510 510" width="512" xmlns="http://www.w3.org/2000/svg"><g><path d="m0 0v510h510v-510zm480 30v30h-180v30h180v30h-450v-90zm-450 450v-330h450v330z"/><path d="m60 60h30v30h-30z"/><path d="m120 60h30v30h-30z"/><path d="m180 60h30v30h-30z"/><path d="m255 302.235-27.932 36.692-43.527 15.227 26.265 37.903 1.029 46.102 44.165-13.266 44.165 13.266 1.029-46.102 26.265-37.903-43.527-15.227zm15.403 80.143-.352 15.713-15.051-4.522-15.052 4.521-.352-15.713-8.952-12.919 14.836-5.19 9.52-12.505 9.52 12.505 14.836 5.19z"/><path d="m240 180h-180v90h180zm-30 60h-120v-30h120z"/><path d="m270 180h180v30h-180z"/><path d="m270 240h180v30h-180z"/><path d="m60 360h90v30h-90z"/><path d="m60 420h120v30h-120z"/><path d="m360 360h90v30h-90z"/><path d="m345 300h105v30h-105z"/><path d="m60 300h105v30h-105z"/><path d="m330 420h120v30h-120z"/></g></svg>