<svg id="Capa_1" enable-background="new 0 0 512 512" height="512" viewBox="0 0 512 512" width="512" xmlns="http://www.w3.org/2000/svg"><g><path d="m31 0v512h450v-512zm420 30v151h-30v-120h-330v120h-30v-151zm-60 61v90h-270v-90zm-330 391v-271h390v271z"/><path d="m331 121h30v30h-30z"/><path d="m271 121h30v30h-30z"/><path d="m211 331h90v-90h-90zm30-60h30v30h-30z"/><path d="m331 331h90v-90h-90zm30-60h30v30h-30z"/><path d="m331 451h90v-90h-90zm30-60h30v30h-30z"/><path d="m211 451h90v-90h-90zm30-60h30v30h-30z"/><path d="m91 451h90v-210h-90zm30-180h30v150h-30z"/></g></svg>