<svg id="Capa_1" enable-background="new 0 0 511.214 511.214" height="512" viewBox="0 0 511.214 511.214" width="512" xmlns="http://www.w3.org/2000/svg"><g><path d="m452.941 262.377c-4.844-7.024-9.418-13.659-11.984-19.846-2.759-6.654-4.326-14.884-5.985-23.599-3.122-16.396-6.661-34.979-19.969-48.285-11.605-11.605-27.222-15.781-41.903-18.73 0-82.115-78.207-143.078-81.539-145.501l-8.823-6.416-8.822 6.417c-2.589 1.883-50.414 37.244-71.616 91.441-15.594-14.904-27.09-23.332-27.848-23.882l-8.822-6.417-8.822 6.417c-1.217.884-30.123 22.075-59.232 57.799-39.119 48.009-59.796 99.621-59.796 149.255 0 51.113 30.154 95.31 73.605 115.754 2.89 23.097 8.176 42.691 21.482 55.998 13.308 13.307 31.891 16.846 48.286 19.968 8.715 1.659 16.945 3.227 23.599 5.986 6.187 2.565 12.821 7.14 19.845 11.983 13.933 9.606 29.724 20.495 49.339 20.495s35.405-10.888 49.337-20.495c7.025-4.843 13.659-9.418 19.846-11.984 6.654-2.759 14.886-4.327 23.6-5.986 16.396-3.122 34.978-6.661 48.285-19.968s16.846-31.891 19.968-48.287c1.66-8.714 3.227-16.944 5.985-23.598 2.566-6.187 7.141-12.821 11.984-19.845 9.607-13.932 20.495-29.723 20.495-49.338-.001-19.613-10.889-35.404-20.495-49.336zm-170.203-224.44c18.675 16.385 60.421 58.839 60.421 110.882 0 33.315-27.105 60.42-60.42 60.42s-60.42-27.105-60.42-60.42c0-52.051 41.757-94.509 60.419-110.882zm-214.958 243.093c0-53.623 28.59-100.137 52.573-129.715 17.429-21.494 35.069-37.48 45.275-46.032 6.755 5.665 16.771 14.6 27.853 26.265-.748 5.626-1.163 11.385-1.163 17.272 0 40.866 27.254 75.481 64.538 86.639 4.165 14.466 6.625 29.715 6.625 45.572 0 53.955-43.896 97.851-97.852 97.851-53.954-.001-97.849-43.897-97.849-97.852zm360.461 62.992c-5.515 7.998-11.217 16.268-14.998 25.384-3.939 9.503-5.873 19.657-7.743 29.477-2.537 13.324-4.934 25.909-11.711 32.686s-19.361 9.173-32.685 11.71c-9.82 1.87-19.975 3.804-29.479 7.745-9.115 3.78-17.386 9.483-25.384 14.998-11.331 7.813-22.033 15.192-32.308 15.192s-20.978-7.38-32.309-15.193c-7.998-5.515-16.268-11.217-25.384-14.998-9.503-3.94-19.657-5.874-29.478-7.744-13.323-2.537-25.908-4.934-32.685-11.711-5.37-5.37-7.987-14.391-10.105-24.531 7.042 1.207 14.276 1.843 21.656 1.843 70.498 0 127.852-57.354 127.852-127.851 0-13.883-1.621-27.92-4.807-41.991 35.833-2.334 66.038-25.633 78.44-57.724 11.005 2.204 20.929 4.799 26.674 10.545 6.777 6.777 9.174 19.361 11.711 32.684 1.87 9.82 3.804 19.975 7.744 29.478 3.78 9.116 9.483 17.386 14.998 25.384 7.812 11.331 15.192 22.033 15.192 32.308.003 10.276-7.377 20.979-15.191 32.309z"/></g></svg>