<svg id="Capa_1" enable-background="new 0 0 512 512" height="512" viewBox="0 0 512 512" width="512" xmlns="http://www.w3.org/2000/svg"><g><path d="m283.625 204.67h-145.25v90.008h145.25zm-30 60.005h-85.25v-30.003h85.25z"/><path d="m447.069 422.405c.529-3.031.801-6.122.801-9.241 0-28.218-21.925-51.412-49.634-53.432-6.036-15.458-18.958-27.237-34.888-31.842v-150.309h30v-30.003h-30v-15.001c0-39.992-32.533-72.528-72.521-72.528h-16.174v-60.049h-127.305v60.049h-16.174c-39.988 0-72.521 32.536-72.521 72.528v15.001h-30v30.003h30v334.419l350.131-.021c41.115 0 74.564-33.453 74.564-74.572v-15.001h-36.279zm-98.721-66.626c12.121 0 22.199 9.072 23.442 21.103l1.694 16.391 16.159-3.221c1.533-.306 3.099-.461 4.654-.461 12.997 0 23.571 10.575 23.571 23.573 0 3.207-.65 6.346-1.883 9.241h-135.275c-1.233-2.896-1.884-6.034-1.884-9.241 0-12.998 10.574-23.573 23.571-23.573 1.556 0 3.122.155 4.653.46l16.16 3.224 1.694-16.393c1.244-12.031 11.323-21.103 23.444-21.103zm-171-325.776h67.305v30.047h-67.305zm-88.696 102.574c0-23.448 19.075-42.525 42.521-42.525h159.652c23.446 0 42.521 19.077 42.521 42.525v15.001h-244.694zm0 349.42v-304.416h244.695v150.309c-15.93 4.605-28.852 16.384-34.888 31.842-27.708 2.021-49.633 25.214-49.633 53.432 0 3.119.271 6.21.801 9.241h-36.28v15.001c0 16.705 5.521 32.145 14.834 44.591zm320.131-.021h-120.87c-19.313 0-35.796-12.35-41.968-29.568h204.806c-6.172 17.218-22.654 29.568-41.968 29.568z"/><path d="m166 324.115h30v30.003h-30z"/><path d="m226 324.115h30v30.003h-30z"/></g></svg>