<svg id="Layer_1" enable-background="new 0 0 511.962 511.962" height="512" viewBox="0 0 511.962 511.962" width="512" xmlns="http://www.w3.org/2000/svg"><path d="m437.984 95.188 43.972-43.971v34.081h30v-85.294h-85.294v30h34.081l-43.973 43.972c-52.953-47.813-120.8-73.972-192.666-73.972h-117.069v30h25.002v311.773l-43.137-19.3-88.604 88.605 54.835 24.532-55.131 55.131 21.213 21.213 55.13-55.13 24.534 54.834 88.604-88.604-19.3-43.137h311.781v25.002h30v-117.061c0-71.87-26.161-139.719-73.978-192.674zm43.978 192.674v62.06h-30.004v-55.782c0-57.515-20.598-111.864-58.304-154.622l23.084-23.084c42.17 47.263 65.224 107.574 65.224 171.428zm-319.925-197.854h55.79c50.89 0 97.491 18.719 133.278 49.634l-189.068 189.066zm210.281 70.846c30.918 35.788 49.64 82.392 49.64 133.286v55.782h-238.709zm-148.214-130.85c63.851 0 124.16 23.051 171.421 65.217l-23.084 23.085c-42.757-37.702-97.103-58.298-154.614-58.298h-55.79v-30.004zm-171.789 371.485 43.19-43.19 25.522 11.419-43.19 43.19zm58.154 58.156-11.42-25.523 43.191-43.191 11.419 25.523z"/></svg>