<svg id="Capa_1" enable-background="new 0 0 512 512" height="512" viewBox="0 0 512 512" width="512" xmlns="http://www.w3.org/2000/svg"><g><path d="m466.999 239.423c-24.813.002-44.999 20.188-44.999 45v41.107c-1.633-2.465-3.534-4.803-5.704-6.972l-31.82-31.819-84.908 84.907c-13.069 3.833-24.982 10.894-34.672 20.584-3.293 3.293-6.25 6.831-8.895 10.551-2.646-3.72-5.602-7.258-8.895-10.551-9.691-9.691-21.604-16.751-34.673-20.584l-84.908-84.907-31.819 31.819c-2.17 2.17-4.071 4.508-5.705 6.973v-41.108c0-24.812-20.187-44.998-45-45h-45.001v88.432c0 28.046 10.922 54.414 30.754 74.246l109.899 109.899h102.058l4.394-4.394c3.293-3.293 6.25-6.831 8.896-10.551 2.646 3.72 5.602 7.258 8.896 10.551l4.394 4.394h102.058l109.899-109.899c19.83-19.833 30.752-46.201 30.752-74.247v-88.432h-45.001zm-237.18 242.577h-76.739l-101.113-101.112c-14.166-14.166-21.967-33-21.967-53.034v-58.432h14.999c8.271 0 15.001 6.729 15.001 15v43.432c0 12.02 4.681 23.32 13.18 31.819l22.499 22.499c.009.009.017.017.026.025l48.099 48.099 21.213-21.213-48.112-48.112c-2.824-2.832-4.38-6.593-4.38-10.594 0-4.006 1.561-7.773 4.394-10.606l10.606-10.606 69.573 69.572 4.16.976c9.319 2.186 17.837 6.934 24.634 13.73 9.743 9.744 15.108 22.697 15.108 36.476 0 11.798-3.934 22.99-11.181 32.081zm252.181-154.146c0 20.032-7.802 38.867-21.967 53.033l-101.112 101.113h-76.739c-7.248-9.091-11.182-20.283-11.182-32.081 0-13.779 5.365-26.732 15.108-36.476h.001c6.795-6.797 15.313-11.544 24.633-13.73l4.16-.976 69.573-69.572 10.607 10.606c2.833 2.833 4.394 6.601 4.394 10.606 0 3.96-1.523 7.685-4.293 10.506l-48.2 48.2 21.213 21.213 48.1-48.099c.061-.06.12-.12.18-.18l22.344-22.345c8.5-8.499 13.181-19.8 13.181-31.819v-43.432c0-8.271 6.729-15 15-15h15v58.433z"/><path d="m256 300c82.71 0 150-67.29 150-150s-67.29-150-150-150-150 67.29-150 150 67.29 150 150 150zm101.81-86.554c-30.19-5.34-53.199-31.748-53.199-63.446s23.01-58.106 53.199-63.446c11.519 18.419 18.19 40.166 18.19 63.446s-6.671 45.027-18.19 63.446zm-21.111-152.183c-36.189 13.239-62.089 48.02-62.089 88.737s25.899 75.498 62.089 88.737c-21.328 19.413-49.655 31.263-80.699 31.263s-59.371-11.85-80.699-31.263c36.19-13.239 62.089-48.02 62.089-88.737s-25.899-75.499-62.089-88.737c21.328-19.413 49.655-31.263 80.699-31.263s59.371 11.85 80.699 31.263zm-182.509 25.291c30.19 5.339 53.2 31.747 53.2 63.446s-23.01 58.107-53.2 63.446c-11.519-18.418-18.19-40.166-18.19-63.446s6.671-45.028 18.19-63.446z"/></g></svg>