<svg id="Capa_1" enable-background="new 0 0 512 512" height="512" viewBox="0 0 512 512" width="512" xmlns="http://www.w3.org/2000/svg"><g><path d="m512 177.278h-137.176l-23.603 52.151c-12.494-36.524-31.675-60.743-32.717-62.04l-7.837-9.76-20.108 10.895c-9.688-14.917-23.795-25.729-41.501-31.661-16.73-5.604-30.787-4.841-32.334-4.735l-13.98.952v14.013c0 21.775-7.445 32.182-18.714 47.935-6.862 9.593-15.042 21.054-22.159 36.811l-24.694-54.559h-137.177v235.159h97.948c6.617 24.466 28.998 42.524 55.528 42.524s48.911-18.058 55.528-42.524h93.993c6.617 24.466 28.998 42.524 55.528 42.524s48.911-18.058 55.528-42.524h97.947zm-30 85.064h-30v-55.063h30zm-87.824-55.064h27.824v55.063h-52.746zm-209.453 48.132c6.663-19.106 15.327-31.217 23.705-42.929 9.74-13.615 19.75-27.607 23.124-49.311 12.28 2.394 30.193 9.657 38.792 31.341l6.229 15.71 25.586-13.862c8.602 13.516 22.609 39.32 27.72 70.548l-25.283 8.434c-6.429-12.865-18.826-31.53-40.794-44.906l-7.801-4.75-7.801 4.75c-21.969 13.376-34.365 32.041-40.794 44.907l-25.425-8.482c.634-4.174 1.542-8.011 2.742-11.45zm71.277 36.143-19.738-6.584c4.001-7.073 10.306-15.875 19.739-23.438 9.433 7.563 15.737 16.364 19.739 23.437zm-113.254-29.211h-52.746v-55.063h27.824zm-82.746-55.064v55.063h-30v-55.063zm93.476 217.684c-15.177 0-27.524-12.348-27.524-27.524s12.348-27.524 27.524-27.524 27.524 12.347 27.524 27.524-12.348 27.524-27.524 27.524zm0-85.049c-26.53 0-48.911 18.058-55.528 42.524h-67.948v-90.096h133.564l77.436 25.833v64.264h-31.997c-6.616-24.467-28.997-42.525-55.527-42.525zm205.048 85.049c-15.177 0-27.524-12.348-27.524-27.524s12.348-27.524 27.524-27.524 27.524 12.348 27.524 27.524-12.347 27.524-27.524 27.524zm55.528-42.524c-6.617-24.466-28.998-42.524-55.528-42.524s-48.911 18.058-55.528 42.524h-31.996v-64.264l77.435-25.832h133.565v90.096z"/><path d="m286 87.038h30v30h-30z"/><path d="m136 117.038h30v30h-30z"/><path d="m346 57.038h30v30h-30z"/></g></svg>