<svg id="Capa_1" enable-background="new 0 0 509.877 509.877" height="512" viewBox="0 0 509.877 509.877" width="512" xmlns="http://www.w3.org/2000/svg"><path id="XMLID_1601_" d="m167.566 0v405.97c-23.502-16.336-38.92-43.526-38.92-74.253 0-53.541-43.56-97.101-97.101-97.101h-2.899v30h2.899c36.999 0 67.101 30.102 67.101 67.101 0 47.976 28.215 89.481 68.92 108.808v69.352h313.665v-509.877zm283.665 479.877h-253.665v-29.701c6.964 1.258 14.135 1.917 21.456 1.917 57.11 0 105.057-39.977 117.331-93.416h28.791v-30h-25.745v-33.826h25.745v-30h-25.745v-33.825h25.745v-30h-25.745v-33.826h25.745v-30h-25.745v-37.107h-30v37.107h-25.251v30h25.251v33.825h-25.251v30h25.251v33.825h-25.251v30h25.251v33.826h-25.251v30h21.144c-11.496 36.707-45.822 63.416-86.27 63.416-7.391 0-14.576-.898-21.456-2.58v-389.512h253.665z"/></svg>