<svg id="Capa_1" enable-background="new 0 0 512 512" height="512" viewBox="0 0 512 512" width="512" xmlns="http://www.w3.org/2000/svg"><g><path d="m181.848 288.773v-55.151l.725.264.594.203c12.333 3.917 20.873 14.79 21.757 27.7l.604 8.819 29.843-2.043-.604-8.819c-1.72-25.132-18.281-46.317-42.225-54.063l-61.038-22.248-10.244 28.104 30.675 11.181v66.054h29.913z"/><path d="m381.278 183.435-61.038 22.248c-23.944 7.746-40.505 28.932-42.225 54.063l-.604 8.819 29.843 2.043.604-8.819c.884-12.91 9.424-23.782 21.757-27.7l1.319-.481v55.164h29.913v-66.061l30.675-11.174z"/><path d="m285.699 401.471h-58.618c-22.59 0-40.97-18.378-40.97-40.969h-29.913c0 39.084 31.798 70.882 70.883 70.882h58.618c39.084 0 70.883-31.797 70.883-70.882h-29.913c0 22.591-18.379 40.969-40.97 40.969z"/><path d="m512 122.155c0-43.902-22.27-84.001-59.572-107.263l-23.508-14.66.641 27.698c.018.767.03 1.538.03 2.31 0 29.33-13.136 56.582-35.592 74.815-39.326-30.178-87.208-46.533-137.609-46.533-50.573 0-98.61 16.465-138.012 46.84-22.685-18.234-35.968-45.628-35.968-75.123 0-.772.012-1.542.029-2.31l.641-27.697-23.508 14.66c-37.302 23.263-59.572 63.362-59.572 107.263 0 35.44 15.005 69.154 40.764 92.925-7.231 22.335-10.996 45.91-10.996 70.065 0 60.533 23.573 117.443 66.376 160.247s99.714 66.376 160.247 66.376 117.444-23.573 160.247-66.376 66.376-99.714 66.376-160.247c0-24.359-3.824-48.129-11.176-70.632 25.388-23.737 40.162-57.196 40.162-92.358zm-55.306-65.269c16.195 17.551 25.393 40.627 25.393 65.269 0 22.9-8.216 44.854-22.668 62.065-10.779-21.632-25.099-41.615-42.674-59.214 20.372-17.924 34.307-41.76 39.949-68.12zm-426.781 65.269c0-24.642 9.199-47.72 25.394-65.27 5.68 26.541 19.77 50.523 40.372 68.489-17.569 17.67-31.867 37.727-42.604 59.437-14.761-17.298-23.162-39.495-23.162-62.656zm226.478 359.7c-108.467 0-196.71-88.243-196.71-196.71s88.243-196.711 196.71-196.711 196.71 88.244 196.71 196.711-88.243 196.71-196.71 196.71z"/></g></svg>