<svg id="Capa_1" enable-background="new 0 0 512.005 512.005" height="512" viewBox="0 0 512.005 512.005" width="512" xmlns="http://www.w3.org/2000/svg"><g><path d="m70.203 380.886c-16.796 16.796-16.796 44.123 0 60.92 8.398 8.397 19.428 12.595 30.46 12.595 11.031 0 22.061-4.198 30.459-12.595v-.001c16.796-16.796 16.796-44.123 0-60.919s-44.124-16.798-60.919 0zm39.761 39.76c-5.128 5.13-13.474 5.129-18.604.001-5.129-5.129-5.129-13.475 0-18.604 2.564-2.565 5.934-3.846 9.303-3.846 3.368 0 6.737 1.282 9.302 3.846 5.128 5.129 5.128 13.475-.001 18.603z"/><path d="m498.44 128.423s-37.236-3.161-74.465-40.391c-38.936-38.936-40.396-74.47-40.396-74.47l-13.561-13.562-62.112 62.112-.051-.094-267.697 144.362c-17.88 9.643-30.942 25.694-36.78 45.198s-3.742 40.093 5.899 57.973c5.917 10.974 14.248 20.111 24.297 26.894l-4.203 4.203c-18.938 18.938-29.368 44.151-29.368 70.996s10.43 52.057 29.367 70.995c18.938 18.938 44.151 29.367 70.995 29.367s52.058-10.43 70.996-29.368l340.642-340.652zm-462.827 166.925c-12.099-22.436-3.689-50.533 18.748-62.633l180.024-97.082-178.982 178.982c-8.378-4.216-15.254-10.854-19.79-19.267zm114.59 166.131c-27.482 27.482-72.198 27.479-99.676.001-27.48-27.48-27.479-72.195.001-99.676l265.213-265.213c8.942 22.432 22.36 42.896 39.57 60.106 17.209 17.209 37.674 30.628 60.106 39.57zm288.696-288.696c-23.538-7.047-44.991-19.807-62.43-37.245s-30.198-38.892-37.245-62.43l24.012-24.012c8.941 22.428 22.374 42.886 39.581 60.094 17.208 17.208 37.666 30.64 60.094 39.581z"/><path d="m304.838 177.249h29.921v29.921h-29.921z" transform="matrix(.707 -.707 .707 .707 -42.246 282.428)"/></g></svg>