<svg id="Capa_1" enable-background="new 0 0 510 510" height="512" viewBox="0 0 510 510" width="512" xmlns="http://www.w3.org/2000/svg"><g><path d="m255 0c-140.93 0-255 114.051-255 255 0 140.93 114.051 255 255 255 140.93 0 255-114.051 255-255 0-140.93-114.051-255-255-255zm0 480c-124.065 0-225-100.935-225-225s100.935-225 225-225 225 100.934 225 225-100.935 225-225 225z"/><path d="m352.689 86.199c-34.129-19.789-75.519-9.592-97.689 19.688-22.086-29.169-63.403-39.567-97.689-19.688-58.424 33.88-97.311 97.012-97.311 168.801 0 71.839 38.93 134.945 97.311 168.801 34.441 19.971 75.743 9.296 97.689-19.688 22.075 29.154 63.378 39.584 97.689 19.688 129.598-75.154 129.685-262.398 0-337.602zm-180.329 311.649c-50.801-29.459-82.36-84.195-82.36-142.848s31.559-113.389 82.36-142.848c30.126-17.472 67.64 4.275 67.64 38.9v207.897c0 34.721-37.602 56.317-67.64 38.899zm165.28 0c-30.039 17.42-67.64-4.181-67.64-38.899v-207.897c0-34.712 37.593-56.321 67.64-38.899 50.801 29.458 82.36 84.194 82.36 142.847s-31.559 113.389-82.36 142.848z"/><path d="m165 210c-24.814 0-45 20.186-45 45 0 24.813 20.186 45 45 45s45-20.187 45-45c0-24.814-20.186-45-45-45zm0 60c-8.271 0-15-6.728-15-15 0-8.271 6.729-15 15-15s15 6.729 15 15c0 8.272-6.729 15-15 15z"/><path d="m300 255c0 24.813 20.186 45 45 45s45-20.187 45-45c0-24.814-20.186-45-45-45s-45 20.186-45 45zm60 0c0 8.272-6.728 15-15 15s-15-6.728-15-15c0-8.271 6.728-15 15-15s15 6.729 15 15z"/></g></svg>