<svg id="Capa_1" enable-background="new 0 0 512.094 512.094" height="512" viewBox="0 0 512.094 512.094" width="512" xmlns="http://www.w3.org/2000/svg"><g><path d="m462.553 386.441c9.622-10.829 15.483-25.071 15.483-40.663 0-33.801-27.499-61.3-61.3-61.3-7.639 0-14.95 1.416-21.701 3.981-4.026-2.634-8.314-4.967-12.828-6.988 9.622-10.829 15.484-25.072 15.484-40.664 0-33.801-27.499-61.3-61.3-61.3s-61.3 27.499-61.3 61.3c0 15.592 5.861 29.834 15.483 40.663-4.514 2.021-8.803 4.354-12.828 6.988-6.75-2.564-14.061-3.98-21.7-3.98s-14.95 1.416-21.701 3.981c-4.026-2.634-8.314-4.967-12.827-6.988 9.623-10.829 15.484-25.072 15.484-40.664 0-33.801-27.499-61.3-61.3-61.3s-61.299 27.499-61.299 61.3c0 15.592 5.861 29.834 15.483 40.663-4.513 2.021-8.802 4.354-12.828 6.988-6.75-2.564-14.061-3.98-21.7-3.98-33.801 0-61.299 27.499-61.299 61.3 0 15.592 5.861 29.833 15.482 40.663-29.325 12.465-50.133 42.355-49.527 76.079v49.528h512.068v-49.528c.605-33.724-20.203-63.615-49.529-76.079zm-126.162 27.652c-7.965-11.233-20.311-21.388-34.527-27.653 9.622-10.829 15.483-25.071 15.483-40.663 0-14.143-4.828-27.173-12.904-37.556 9.82-4.118 20.895-6.115 31.948-6.115 11.054 0 22.134 1.991 31.954 6.11-8.079 10.385-12.908 23.416-12.908 37.561 0 15.591 5.861 29.833 15.482 40.662-12.829 5.731-25.637 15.098-34.528 27.654zm-160.689 0c-7.965-11.233-20.312-21.389-34.528-27.653 9.622-10.829 15.483-25.071 15.483-40.663 0-14.145-4.829-27.175-12.907-37.56 9.82-4.118 20.898-6.111 31.95-6.111 11.053 0 22.129 1.998 31.949 6.116-8.076 10.383-12.903 23.412-12.903 37.555 0 15.592 5.861 29.833 15.482 40.663-12.827 5.73-25.635 15.097-34.526 27.653zm272.334-68.315c0 17.258-14.041 31.299-31.3 31.299s-31.3-14.041-31.3-31.299c0-17.259 14.041-31.3 31.3-31.3s31.3 14.041 31.3 31.3zm-111.644-136.271c17.259 0 31.3 14.041 31.3 31.3 0 17.258-14.041 31.299-31.3 31.299s-31.3-14.041-31.3-31.299c0-17.259 14.041-31.3 31.3-31.3zm-49.045 136.271c0 17.258-14.041 31.299-31.3 31.299-17.258 0-31.299-14.041-31.299-31.299 0-17.259 14.041-31.3 31.299-31.3 17.259 0 31.3 14.041 31.3 31.3zm-111.645-136.271c17.259 0 31.3 14.041 31.3 31.3 0 17.258-14.041 31.299-31.3 31.299-17.258 0-31.299-14.041-31.299-31.299 0-17.259 14.041-31.3 31.299-31.3zm-80.345 104.971c17.259 0 31.3 14.041 31.3 31.3 0 17.258-14.041 31.299-31.3 31.299-17.258 0-31.299-14.041-31.299-31.299 0-17.259 14.041-31.3 31.299-31.3zm65.345 167.569h-130.689v-19.528c0-38.299 32.818-55.442 65.343-55.442 32.526 0 65.346 17.144 65.346 55.442zm160.69 0h-130.69v-19.528c0-38.299 32.819-55.442 65.344-55.442 32.526 0 65.346 17.144 65.346 55.442zm160.689 0h-130.689v-19.528c0-38.299 32.818-55.442 65.344-55.442s65.346 17.144 65.346 55.442v19.528z"/><path d="m150.547 180.672v-60.25h211v60.25h121.284l-16.91-60.187 16.91-60.188h-61.159v-60.25h-331.25v60.25h-61.16l16.911 60.188-16.911 60.187zm292.694-90.375-8.482 30.188 8.482 30.187h-51.694v-30.25h30.125v-30.125zm-322.819-60.25h271.25v60.375h-271.25zm-51.569 60.25h21.569v30.125h30.125v30.25h-51.694l8.482-30.187z"/></g></svg>