<?xml version="1.0" encoding="iso-8859-1"?>
<!-- Generator: Adobe Illustrator 19.0.0, SVG Export Plug-In . SVG Version: 6.00 Build 0)  -->
<svg xmlns="http://www.w3.org/2000/svg" xmlns:xlink="http://www.w3.org/1999/xlink" version="1.1" id="Layer_1" x="0px" y="0px" viewBox="0 0 512.001 512.001" style="enable-background:new 0 0 512.001 512.001;" xml:space="preserve">
<g>
	<g>
		<path d="M374.061,0H344.06h-21.528H292.53h-21.528h-30.001h-21.53h-30.001H167.94h-30.001H86.41v181.831h22.854v26.226H86.41    v62.218v30.001v119.506v30.001v62.218h339.182v-62.218v-30.001V300.276v-30.001v-62.218h-22.855v-26.226h22.855v0V0H374.061z     M374.06,30.001h21.529v121.828H374.06V30.001z M322.531,30.001h21.528v121.828h-21.528V30.001z M271.001,30.001h21.528v121.828    h-21.528V30.001z M219.471,30.001h21.528v121.828h-21.528V30.001z M167.94,30.001h21.529v121.828H167.94V30.001z M139.265,181.83    h28.676h21.529h30.001H241h30.001h21.528h30.001h21.528h28.676v26.226h-233.47V181.83z M116.411,30.001h21.528v121.828h-21.528    V30.001z M395.59,481.999H116.411v-32.216H395.59V481.999z M395.59,419.781H116.411V300.275H395.59V419.781z M395.59,270.274    H116.411v-32.216H395.59V270.274z"/>
	</g>
</g>
<g>
	<g>
		<rect x="153.658" y="321.005" width="204.68" height="30.001"/>
	</g>
</g>
<g>
	<g>
		<rect x="153.658" y="369.047" width="204.68" height="30.001"/>
	</g>
</g>
<g>
</g>
<g>
</g>
<g>
</g>
<g>
</g>
<g>
</g>
<g>
</g>
<g>
</g>
<g>
</g>
<g>
</g>
<g>
</g>
<g>
</g>
<g>
</g>
<g>
</g>
<g>
</g>
<g>
</g>
</svg>
