<svg id="Capa_1" enable-background="new 0 0 512 512" height="512" viewBox="0 0 512 512" width="512" xmlns="http://www.w3.org/2000/svg"><g><path d="m135 130c35.841 0 65-29.159 65-65s-29.159-65-65-65-65 29.159-65 65 29.158 65 65 65zm0-100c19.299 0 35 15.701 35 35s-15.701 35-35 35-35-15.701-35-35 15.701-35 35-35z"/><path d="m75 160c-41.355 0-75 33.645-75 75v90c0 24.813 20.187 45 45 45 5.257 0 10.306-.906 15-2.57v144.57h150v-352zm75 322v-157h-30v157h-30v-156.875-105.125h-30v105.073c-.039 8.238-6.753 14.927-15 14.927-8.271 0-15-6.729-15-15v-90c0-24.813 20.187-45 45-45h104.999v292z"/><path d="m376 79c-74.99 0-136 61.009-136 136 0 74.99 61.009 136 136 136 74.99 0 136-61.01 136-136s-61.01-136-136-136zm-106 136c0-58.448 47.552-106 106-106 25.089 0 45.5 20.411 45.5 45.5s-20.411 45.5-45.5 45.5c-41.631 0-75.5 33.869-75.5 75.5 0 5.275.548 10.423 1.583 15.396-19.778-19.267-32.083-46.17-32.083-75.896zm106 106c-25.089 0-45.5-20.411-45.5-45.5s20.411-45.5 45.5-45.5c41.631 0 75.5-33.869 75.5-75.5 0-5.275-.548-10.423-1.583-15.395 19.778 19.267 32.083 46.169 32.083 75.895 0 58.448-47.552 106-106 106z"/><path d="m361 260.5h30v30h-30z"/><path d="m361 139.5h30v30h-30z"/></g></svg>