<svg id="Capa_1" enable-background="new 0 0 512 512" height="512" viewBox="0 0 512 512" width="512" xmlns="http://www.w3.org/2000/svg"><g><path d="m90.5 0c-24.813 0-45 20.187-45 45s20.187 45 45 45h15v75c0 24.813 20.187 45 45 45s45-20.187 45-45v-30c0-8.271 6.729-15 15-15s15 6.729 15 15v60c0 24.813 20.187 45 45 45s45-20.187 45-45v-105h181v-90zm0 60c-8.271 0-15-6.729-15-15s6.729-15 15-15h15v30zm180 150c-8.271 0-15-6.729-15-15v-60c0-24.813-20.187-45-45-45s-45 20.187-45 45v30c0 8.271-6.729 15-15 15s-15-6.729-15-15v-135h150v165c0 8.271-6.729 15-15 15zm196-150h-151v-30h151z"/><path d="m15.5 328.833c0 72.757 36.142 140.289 96.68 180.647l3.779 2.519h249.083l3.778-2.519c60.538-40.359 96.68-107.891 96.68-180.647v-56.833h-450v56.833zm30-26.833h390v26.833c0 61.214-29.683 118.135-79.637 153.167h-230.726c-49.954-35.031-79.637-91.952-79.637-153.167z"/><path d="m240.5 435.301 45 25.98 60-34.641v-69.282l-60-34.641-45 25.98-45-25.98-60 34.641v69.282l60 34.641zm75-60.622v34.642l-30 17.32-30-17.32v-34.642l30-17.32zm-150 0 30-17.32 30 17.32v34.642l-30 17.32-30-17.32z"/></g></svg>