<svg id="Layer_1" enable-background="new 0 0 510 510" height="512" viewBox="0 0 510 510" width="512" xmlns="http://www.w3.org/2000/svg"><g><path d="m261.372 255.388c-12.43-.294-33.136-1.454-63.23 2.98-36.866 5.434-63.453 16.609-79.024 33.219-24.983 26.647-28.021 65.46-9.194 94.036l-22.289 22.289 21.213 21.213 22.288-22.288c28.624 18.859 67.429 15.748 94.037-9.194 30.823-25.823 39.072-102.745 36.199-142.255zm-56.718 120.368c-14.601 13.689-35.04 16.727-51.509 9.071l40.555-40.555-21.213-21.213-40.555 40.556c-7.656-16.468-4.618-36.908 9.072-51.511 18.315-19.535 63.096-25.608 90.51-26.859-1.251 27.414-7.324 72.195-26.86 90.511z"/><path d="m457.5 156.973v-156.973h-300v60h-68.314l-81.686 130.698v319.302h330v-319.302l-81.686-130.698h-68.314v-30h240v126.973l-45 30v128.027h120v-128.027zm-356.711-6.973h143.423l9.278-37.113 41.946 67.113h-245.873l41.946-67.113zm120-30h-96.577l-7.5-30h111.577zm-183.289 360v-270h270v270zm435-195h-60v-81.973l30-20 30 20z"/></g></svg>