<svg id="Capa_1" enable-background="new 0 0 512 512" height="512" viewBox="0 0 512 512" width="512" xmlns="http://www.w3.org/2000/svg"><g><g><path d="m247.498 407.327h19.773l4.944-72.872h-29.659z"/><path d="m512 120.253v-41.894h-86.306l-40.124-63.219h-257.824l-39.607 63.219h-88.139v41.894c0 14.795 7.196 27.936 18.269 36.12-11.424 14.377-18.269 32.516-18.269 52.228v95.896h30.317v28.615c0 28.185 22.931 51.116 51.116 51.116s51.116-22.931 51.116-51.116v-28.615h69.05l-103.478 192.363h316.932l-103.479-192.363h67.381v28.615c0 28.185 22.931 51.116 51.116 51.116s51.116-22.931 51.116-51.116v-28.615h30.7v-95.896c0-19.705-6.81-37.839-18.176-52.214 11.084-8.182 18.289-21.33 18.289-36.134zm-29.93-11.964v11.964c0 7.657-5.782 13.979-13.208 14.853-3.291-1.858-6.719-3.498-10.264-4.907l-13.906-21.909h37.378zm-337.758-63.219h224.803l50.254 79.176h-324.661zm-114.382 63.219h39.457l-13.062 20.85c-4.568 1.624-8.951 3.632-13.121 5.977-7.458-.844-13.273-7.183-13.273-14.863v-11.964zm0 136.348h44.506v29.93h-44.506zm51.503 109.661c-11.682 0-21.186-9.504-21.186-21.186v-28.615h42.372v28.615c0 11.682-9.504 21.186-21.186 21.186zm66.774 112.631 108.38-201.472 108.38 201.472zm303.05-133.817c0 11.682-9.504 21.186-21.186 21.186s-21.186-9.504-21.186-21.186v-28.615h42.372zm30.7-58.545h-44.889v-29.93h44.889zm-74.82-59.86v59.86h-111.664l-38.887-72.288-38.886 72.288h-113.333v-59.86h-74.437v-6.106c0-30.01 24.586-54.425 54.807-54.425h342.796c30.009 0 54.424 24.415 54.424 54.425v6.106z"/></g><circle cx="256.985" cy="433.563" r="14.168"/></g></svg>