<svg id="Capa_1" enable-background="new 0 0 512 512" height="512" viewBox="0 0 512 512" width="512" xmlns="http://www.w3.org/2000/svg"><g><path d="m61 331h75v-30h-45v-30h30v-30h-30v-30h45v-30h-75z"/><path d="m196 181c-24.813 0-45 20.187-45 45v105h30v-60h30v60h30c0-21.425 0-83.666 0-105 0-24.813-20.187-45-45-45zm-15 60v-15c0-8.271 6.729-15 15-15s15 6.729 15 15v15z"/><path d="m301 241c-8.271 0-15-6.729-15-15s6.729-15 15-15c4.007 0 7.773 1.56 10.606 4.393l10.607 10.607 21.213-21.213-10.606-10.606c-8.5-8.5-19.8-13.181-31.82-13.181-24.813 0-45 20.187-45 45s20.187 45 45 45c8.271 0 15 6.729 15 15s-6.729 15-15 15c-4.007 0-7.773-1.56-10.606-4.393l-10.607-10.607-21.213 21.213 10.606 10.606c8.499 8.5 19.8 13.18 31.819 13.18 24.813 0 45-20.187 45-45s-20.186-44.999-44.999-44.999z"/><path d="m406 222.459-23.292-46.584-26.833 13.417 35.125 70.25v71.458h30v-71.458l35.125-70.25-26.833-13.417z"/><path d="m377 31h-242c-74.439 0-135 60.561-135 135v180c0 74.439 60.561 135 135 135h242c74.439 0 135-60.561 135-135v-180c0-74.439-60.561-135-135-135zm105 315c0 57.897-47.103 105-105 105h-242c-57.897 0-105-47.103-105-105v-180c0-57.897 47.103-105 105-105h242c57.897 0 105 47.103 105 105z"/></g></svg>