<svg id="Capa_1" enable-background="new 0 0 510 510" height="512" viewBox="0 0 510 510" width="512" xmlns="http://www.w3.org/2000/svg"><g><path d="m345 124.374v-64.374h-30v-25c0-19.299-15.701-35-35-35h-50c-19.299 0-35 15.701-35 35v25h-30v64.374c-43.325 12.94-75 53.149-75 100.626v285h330v-285c0-47.477-31.675-87.686-75-100.626zm-120-89.374c0-2.757 2.243-5 5-5h50c2.757 0 5 2.243 5 5v25h-60zm-30 55h120v30h-120zm0 60h120c41.355 0 75 33.645 75 75v135h-270v-135c0-41.355 33.645-75 75-75zm195 240v30h-270v-30zm-270 90v-30h270v30z"/><path d="m195 330h45v-105c0-24.814-20.186-45-45-45s-45 20.186-45 45v60c0 24.814 20.186 45 45 45zm-15-105c0-8.271 6.729-15 15-15s15 6.729 15 15v75h-15c-8.271 0-15-6.728-15-15z"/></g></svg>