<svg id="Capa_1" enable-background="new 0 0 512 512" height="512" viewBox="0 0 512 512" width="512" xmlns="http://www.w3.org/2000/svg"><g><g><path d="m301 359.611h30v30h-30z"/><path d="m151 359.611h30v30h-30z"/><path d="m181 389.611h30v30h-30z"/><path d="m512 163.278-.709-2.223c-13.618-42.723-40.874-82.887-76.745-113.092-36.732-30.929-78.552-47.963-117.756-47.963-10.464 0-20.806 1.523-30.736 4.528-9.73 2.943-19.842 4.436-30.054 4.436s-20.323-1.492-30.053-4.436c-9.931-3.005-20.273-4.528-30.737-4.528-39.204 0-81.024 17.034-117.756 47.964-35.871 30.205-63.127 70.369-76.745 113.092l-.709 2.222v2.333c0 47.927 22.164 98.705 61 140.194v21.006c0 56.805 19.986 104.457 57.799 137.805 34.647 30.556 83.373 47.384 137.201 47.384s102.554-16.828 137.201-47.384c37.813-33.348 57.799-81 57.799-137.805v-21.006c38.836-41.489 61-92.267 61-140.194zm-316.79-133.278c7.519 0 14.938 1.091 22.051 3.243 12.549 3.796 25.583 5.721 38.739 5.721s26.19-1.925 38.74-5.721c7.113-2.152 14.531-3.243 22.05-3.243 52.756 0 110.233 39.162 144.234 93.661-34.761-20.971-84.848-46.578-132.985-54.65l-4.333-.721-4.033 1.718c-.355.151-35.857 15.13-63.673 15.13s-63.317-14.979-63.664-15.126l-4.041-1.728-4.334.727c-48.136 8.072-98.224 33.679-132.985 54.65 34.001-54.499 91.478-93.661 144.234-93.661zm-157.918 179.996c7.246 4.701 15.883 9.432 26.167 13.956-1.63 7.772-2.459 15.932-2.459 24.42v9.584c-10.457-15.437-18.456-31.638-23.708-47.96zm383.708 116.816c0 47.945-16.475 87.817-47.643 115.305-29.163 25.719-70.841 39.883-117.357 39.883s-88.194-14.164-117.357-39.884c-31.168-27.487-47.643-67.359-47.643-115.304v-78.439c0-43.143 29.129-72.773 72.492-73.732.832-.019 1.667-.028 2.508-.028 35.188 0 62.602 10.571 75 16.372v138.628h30v-138.63c12.398-5.801 39.813-16.372 75-16.372.841 0 1.676.01 2.517.028 43.354.959 72.483 30.59 72.483 73.732zm.095-153.407c-18.421-17.927-43.961-28.14-71.905-28.758-1.057-.024-2.12-.036-3.189-.036-42.925 0-75.708 13.273-90 20.267-14.292-6.993-47.075-20.267-90-20.267-1.069 0-2.133.012-3.181.036-27.953.618-53.493 10.831-71.914 28.758-6.828 6.645-12.529 14.13-17.062 22.332-20.952-9.472-32.459-19.353-38.526-26.21 9.552-6.602 24.565-16.518 42.685-26.894 39.329-22.521 76.15-37.437 106.83-43.301 11.395 4.449 43.217 15.805 71.168 15.805 27.953 0 59.778-11.357 71.17-15.806 59.411 11.322 123.99 52.606 149.504 70.205-6.069 6.857-17.575 16.733-38.517 26.2-4.535-8.201-10.235-15.686-17.063-22.331zm27.446 50.548c10.284-4.525 18.921-9.255 26.167-13.956-5.252 16.322-13.251 32.522-23.708 47.959v-9.584c0-8.488-.829-16.648-2.459-24.419z"/><path d="m181 209.611h30v30h-30z"/><path d="m121 239.611h30v30h-30z"/><path d="m301 239.611h30v30h-30z"/><path d="m181 299.611h30v30h-30z"/><path d="m301 299.611h30v30h-30z"/><path d="m361 269.611h30v30h-30z"/><path d="m331 329.611h30v30h-30z"/></g></g></svg>