<svg id="Capa_1" enable-background="new 0 0 512 512" height="512" viewBox="0 0 512 512" width="512" xmlns="http://www.w3.org/2000/svg"><g><path d="m286.139 370.739v79.958c0 33.803 27.5 61.303 61.303 61.303h67.035c33.803 0 61.303-27.5 61.303-61.303v-79.958zm159.641 79.958c0 17.261-14.042 31.303-31.303 31.303h-67.035c-17.261 0-31.303-14.042-31.303-31.303v-49.958h129.641z"/><path d="m226.22 0h-160v61h-30v30h30v30.348h-30v329.35c0 33.802 27.5 61.302 61.303 61.302h97.395c33.803 0 61.303-27.5 61.303-61.303v-329.35h-30v-30.347h30v-30h-30v-61zm-130 30h100v31h-100zm98.697 452h-97.394c-17.261 0-31.303-14.042-31.303-31.303v-12.654h160v12.654c0 17.261-14.042 31.303-31.303 31.303zm31.303-73.957h-160v-256.695h160zm-30-286.695h-100v-30.348h100z"/><path d="m356.081 311.392h49.541c8.271 0 15 6.729 15 15v15h30v-15c0-24.813-20.187-45-45-45h-49.541c-8.151 0-14.782-6.632-14.782-14.783s6.631-14.782 14.782-14.782h15v-30h-15c-24.693 0-44.782 20.089-44.782 44.782s20.088 44.783 44.782 44.783z"/></g></svg>