<svg id="Layer_1" enable-background="new 0 0 511.977 511.977" height="512" viewBox="0 0 511.977 511.977" width="512" xmlns="http://www.w3.org/2000/svg"><g><path d="m436.999 74.978c-48.35-48.35-112.634-74.978-181.011-74.978s-132.661 26.628-181.01 74.978-74.978 112.633-74.978 181.01 26.628 132.661 74.978 181.011 112.634 74.978 181.011 74.978 132.661-26.628 181.011-74.978 74.978-112.634 74.978-181.011-26.629-132.661-74.979-181.01zm-21.213 340.808c-42.684 42.684-99.435 66.19-159.798 66.19s-117.114-23.506-159.798-66.19-66.19-99.434-66.19-159.798 23.507-117.114 66.19-159.798 99.435-66.19 159.798-66.19 117.114 23.507 159.798 66.19 66.19 99.435 66.19 159.798-23.506 117.115-66.19 159.798z"/><path d="m255.988 53.474c-111.667 0-202.515 90.848-202.515 202.515s90.848 202.515 202.515 202.515 202.515-90.848 202.515-202.515-90.848-202.515-202.515-202.515zm0 375.029c-95.125 0-172.515-77.39-172.515-172.515s77.39-172.515 172.515-172.515 172.515 77.39 172.515 172.515-77.39 172.515-172.515 172.515z"/><path d="m255.989 329.273v17.631h30v-17.631h27.439v17.631h30v-17.631h40.754v-160.171h-175.565v26.295h-49.101l-35.723 61.925v71.952h40.754v17.631h30v-17.631h61.442zm-47.372-103.877v20.941h-43.853l12.081-20.941zm-54.823 73.877v-22.936h54.823v22.936zm200.389 0h-115.566v-100.171h115.565v100.171z"/></g></svg>