<svg id="Capa_1" enable-background="new 0 0 512 512" height="512" viewBox="0 0 512 512" width="512" xmlns="http://www.w3.org/2000/svg"><g><path d="m45 148.102h96.833c8.271 0 15 6.729 15 15v20.838h30v-20.838c0-24.813-20.187-45-45-45h-96.833c-8.271 0-15-6.729-15-15s6.729-15 15-15h55.275c24.813 0 45-20.187 45-45v-12.94h-30v12.94c0 8.271-6.729 15-15 15h-55.275c-24.813 0-45 20.187-45 45s20.187 45 45 45z"/><path d="m471.441 391.291c4.646-8.341 7.304-17.935 7.304-28.141 0-47.193-38.395-85.589-85.589-85.589h-116.17v-52.403h-195.776v35.59h-26.236c-30.313 0-54.974 24.661-54.974 54.973 0 30.313 24.661 54.975 54.974 54.975h26.236v-.448c0 30.431 11.07 59.158 31.301 81.591h-73.474v30h414.326l58.637-58.638v-31.91zm-168.329-83.731v34.135h30v-34.135h30v34.135h30v-34.135h.044c30.652 0 55.589 24.938 55.589 55.59 0 15.455-12.573 28.028-28.028 28.028h-145.51c1.177-6.846 1.779-13.842 1.779-20.931v-62.687zm-248.138 33.136c-13.771 0-24.974-11.203-24.974-24.975 0-13.771 11.203-24.974 24.974-24.974h26.236v49.948h-26.236zm83.18 94.599c-17.375-17.375-26.944-40.476-26.944-65.048v-115.09h135.776v115.09c0 24.571-9.569 47.673-26.943 65.048l-16.543 16.543h-48.802zm302.782 16.543h-195.25c8.318-9.224 15.082-19.514 20.169-30.548h205.628z"/></g></svg>