<svg id="Capa_1" enable-background="new 0 0 510 510" height="512" viewBox="0 0 510 510" width="512" xmlns="http://www.w3.org/2000/svg"><g><path d="m336.542 98.458-127.67 35.414-35.414 127.67 127.67-35.414zm-59.787 103.297-60.213 16.703 16.703-60.213 60.213-16.703z"/><path d="m333.982 341.719c59.768-29.31 101.018-90.785 101.018-161.719 0-99.252-80.748-180-180-180s-180 80.748-180 180c0 70.934 41.25 132.409 101.018 161.719l65.227 138.281h-166.245v30h360v-30h-166.245zm-228.234-146.719h29.252v-30h-29.252c7.058-70.76 63.493-127.195 134.253-134.252v29.253h30v-29.253c70.759 7.059 127.193 63.493 134.251 134.252h-29.252v30h29.252c-7.058 70.759-63.493 127.194-134.252 134.252v-29.252h-30v29.252c-70.759-7.058-127.194-63.493-134.252-134.252zm188.453 160.732-39.201 83.108-39.201-83.107c25.615 5.695 52.962 5.656 78.402-.001z"/></g></svg>