<?xml version="1.0" encoding="iso-8859-1"?>
<!-- Generator: Adobe Illustrator 19.0.0, SVG Export Plug-In . SVG Version: 6.00 Build 0)  -->
<svg xmlns="http://www.w3.org/2000/svg" xmlns:xlink="http://www.w3.org/1999/xlink" version="1.1" id="Layer_1" x="0px" y="0px" viewBox="0 0 512 512" style="enable-background:new 0 0 512 512;" xml:space="preserve">
<g>
	<g>
		<path d="M343.273,198.847V34.909h29.091V0h-29.091H168.727h-29.091v34.909h29.091v163.938    c-50.509,30.5-81.455,84.897-81.455,144.426C87.273,436.309,162.964,512,256,512s168.727-75.691,168.727-168.727    C424.727,283.743,393.782,229.347,343.273,198.847z M194.249,224.529l9.387-4.893V34.909h104.727v184.727l9.387,4.893    c24.728,12.89,44.237,32.696,56.689,56.349c-0.05,0.04-0.1,0.08-0.15,0.12c-0.113-0.218-0.218-0.441-0.332-0.657    c-14.194,11.364-31.682,17.55-50.129,17.55c-21.477,0-41.667-8.364-56.853-23.55l-5.811-5.113    c-26.053-22.906-60.048-32.021-92.45-27.413C176.429,235.192,184.967,229.368,194.249,224.529z M256,477.091    c-73.787,0-133.818-60.031-133.818-133.818c0-15.553,2.668-30.663,7.674-44.802c1.635-2.907,3.962-4.07,4.678-5.068    c31.02-25.132,76.504-23.741,105.903,4.202c0.669,0.674,1.328,1.31,1.976,1.96l5.807,5.113    c21.049,18.537,47.793,28.662,76.091,28.662c22.514,0,44.038-6.416,62.499-18.37c1.974,9.181,3.009,18.657,3.009,28.304    C389.818,417.06,329.787,477.091,256,477.091z"/>
	</g>
</g>
<g>
</g>
<g>
</g>
<g>
</g>
<g>
</g>
<g>
</g>
<g>
</g>
<g>
</g>
<g>
</g>
<g>
</g>
<g>
</g>
<g>
</g>
<g>
</g>
<g>
</g>
<g>
</g>
<g>
</g>
</svg>
