<svg id="Capa_1" enable-background="new 0 0 512 512" height="512" viewBox="0 0 512 512" width="512" xmlns="http://www.w3.org/2000/svg"><g id="Disable"><g><path d="m257 512c-140.437 0-257-113.597-257-255 0-140.608 115.905-257 257-257 141.53 0 255 116.706 255 257 0 140.929-114.049 255-255 255zm0-482c-125.168 0-227 101.832-227 227 0 124.065 101.832 225 227 225 124.065 0 225-100.935 225-225 0-125.168-100.935-227-225-227zm0 422c-107.523 0-195-87.477-195-195 0-75.656 42.161-119.151 46.519-127.273l275.755 275.755c-8.093 4.341-51.841 46.518-127.274 46.518zm-143.945-275.311c-13.822 24.555-21.055 51.995-21.055 80.311 0 90.981 74.019 165 165 165 28.315 0 55.755-7.233 80.31-21.055zm292.426 207.584-275.754-275.755c8.089-4.34 51.842-46.518 127.273-46.518 107.523 0 195 87.477 195 195 0 75.657-42.161 119.15-46.519 127.273zm-228.791-271.218 224.255 224.255c13.822-24.554 21.055-51.994 21.055-80.31 0-90.981-74.019-165-165-165-28.315 0-55.755 7.233-80.31 21.055z"/></g></g></svg>