<svg id="Capa_1" enable-background="new 0 0 512 512" height="512" viewBox="0 0 512 512" width="512" xmlns="http://www.w3.org/2000/svg"><g><path d="m316.25 60.327c-55.398 0-105.491 23.137-141.135 60.25h-84.865v-60.404h-90.25v391.654h90.25v-60.25h84.865c35.645 37.113 85.737 60.25 141.135 60.25 107.937 0 195.75-87.813 195.75-195.75s-87.813-195.75-195.75-195.75zm-256 60.25v90.25 90.5 90.25 30.25h-30.25v-331.654h30.25zm30 30h61.177c-6.134 9.549-11.453 19.667-15.877 30.25h-45.3zm0 60.25h35.54c-3.452 14.53-5.29 29.679-5.29 45.25s1.838 30.72 5.29 45.25h-35.54zm0 150.75v-30.25h45.301c4.424 10.583 9.743 20.701 15.877 30.25zm226 60.25c-91.395 0-165.75-74.355-165.75-165.75s74.355-165.75 165.75-165.75 165.75 74.356 165.75 165.75-74.355 165.75-165.75 165.75z"/><path d="m301.25 241.077h30v30h-30z"/><path d="m316.253 170.099c-86.639 2.104-144.645 69.727-158.837 85.899 14.193 16.172 72.198 83.796 158.837 85.899 86.639-2.104 144.645-69.727 158.837-85.899-3.939-3.35-64.853-83.822-158.837-85.899zm-80.857 114.879c-15.979-10.244-28.808-21.287-36.952-28.979 8.144-7.693 20.973-18.735 36.952-28.979-3.257 9.059-5.043 18.813-5.043 28.979s1.787 19.92 5.043 28.979zm80.857 26.92c-30.823 0-55.899-25.076-55.899-55.899s25.076-55.899 55.899-55.899 55.899 25.076 55.899 55.899-25.076 55.899-55.899 55.899zm80.857-26.92c3.257-9.059 5.043-18.813 5.043-28.98s-1.786-19.921-5.043-28.979c15.979 10.245 28.808 21.287 36.952 28.98-8.141 7.69-20.97 18.734-36.952 28.979z"/></g></svg>