<svg id="Capa_1" enable-background="new 0 0 512 512" height="512" viewBox="0 0 512 512" width="512" xmlns="http://www.w3.org/2000/svg"><path d="m429.182 300.751-28.896-22.68c-3.515-37.925-10.279-91.258-27.301-140.266l-23.464-70.391c-13.44-40.322-51.028-67.414-93.533-67.414s-80.093 27.092-93.533 67.415l-23.415 70.246c-17.148 49.442-23.882 102.903-27.355 140.891l-28.475 22.163c-31.855 24.794-50.125 62.166-50.125 102.533 0 45.372 36.809 82.354 82.135 82.612 25.349 1.223 49.312-2.791 69.123-11.403 15.97 23.116 42.496 37.543 71.645 37.543 29.12 0 55.621-14.399 71.596-37.474 24.32 10.416 46.551 12.443 68.61 11.679 43.948.866 83.845-38.459 82.697-83.246 0-40.16-18.118-77.414-49.709-102.208zm19.709 102.488c.638 27.723-24.176 53.588-52.964 52.966-18.876 1.01-39.795-2.048-55.076-8.676 4.73-8.233 13.533-13.493 23.306-13.493h21.771v-30h-21.771c-24.533 0-46.229 15.638-53.987 38.912-7.787 23.359-29.56 39.052-54.182 39.052s-46.396-15.693-54.182-39.052c-7.759-23.274-29.454-38.912-53.987-38.912h-22.12v30h22.12c9.761 0 18.556 5.248 23.29 13.465-14.585 6.222-35.254 9.517-55.475 8.36-28.976-.035-52.549-23.638-52.549-52.613 0-31.047 14.052-59.79 38.551-78.859l38.795-30.194c3.434-40.51 8.991-94.206 26.982-146.786l23.503-70.507c9.35-28.053 35.501-46.902 65.072-46.902s55.722 18.849 65.072 46.901l23.492 70.476c8.094 21.367 21.545 74.03 26.999 146.278l39.108 30.695c24.297 19.069 38.231 47.721 38.231 78.608v.281z"/></svg>