<svg id="Capa_1" enable-background="new 0 0 510 510" height="512" viewBox="0 0 510 510" width="512" xmlns="http://www.w3.org/2000/svg"><g><path d="m101.005 75c25.739-28.716 5.516-75-33.505-75h-45v150h45c39.022 0 59.243-46.285 33.505-75zm-48.505-45h15c8.271 0 15 6.729 15 15s-6.729 15-15 15h-15zm0 60h15c8.271 0 15 6.729 15 15s-6.729 15-15 15h-15z"/><path d="m232.5 105v-105h-30v105c0 8.271-6.729 15-15 15s-15-6.729-15-15v-105h-30v105c0 24.813 20.186 45 45 45s45-20.187 45-45z"/><path d="m322.5 40.458-15 22.5-15-22.5v-40.458h-30v49.542l30 45v55.458h30v-55.458l30-45v-49.542h-30z"/><path d="m457.5 120v-120h-29.431l-40.172 33.477 19.206 23.046 20.397-16.998v80.475h-30v30h90v-30z"/><path d="m457.5 180h-29.431l-40.172 33.477 19.206 23.046 20.397-16.998v80.475h-30v30h90v-30h-30z"/><path d="m22.5 225v60c0 24.813 20.187 45 45 45h60v-90h-45v30h15v30h-30c-8.271 0-15-6.728-15-15v-60c0-8.271 6.729-15 15-15h60v-30h-60c-24.813 0-45 20.186-45 45z"/><path d="m232.5 210v-30h-75v150h75v-30h-45v-30h30v-30h-30v-30z"/><path d="m202.5 360h-45v150h30v-60h15c8.271 0 15 6.728 15 15v45h30v-45c0-11.517-4.354-22.032-11.495-30 25.739-28.716 5.516-75-33.505-75zm-15 60v-30h15c8.271 0 15 6.728 15 15s-6.729 15-15 15z"/><path d="m52.5 510h30v-60h30v-30h-30v-30h45v-30h-75z"/><path d="m277.5 510h75v-30h-45v-30h30v-30h-30v-30h45v-30h-75z"/><path d="m382.5 510h75v-30h-45v-30h30v-30h-30v-30h45v-30h-75z"/><path d="m262.5 210h30v120h30v-120h30v-30h-90z"/></g></svg>