<svg id="Capa_1" enable-background="new 0 0 511.984 511.984" height="512" viewBox="0 0 511.984 511.984" width="512" xmlns="http://www.w3.org/2000/svg"><g><path d="m260.997 459.145h250.987v30h-250.987z"/><path d="m350.997 429.145v-30h-120v-38.787l150.266-150.266 5.921 5.92c8.899 8.899 13.801 20.733 13.802 33.321v53.373c0 24.813 20.187 44.999 44.999 44.999 24.813 0 45-20.187 45-44.999v-53.373c.001-36.626-14.262-71.062-40.162-96.961l-11.595-11.596c10.076-2.684 19.319-7.967 26.889-15.538 23.394-23.394 23.394-61.458 0-84.853s-61.459-23.396-84.853 0c-11.333 11.333-17.574 26.4-17.574 42.427 0 1.274.054 2.539.132 3.799-1.256-.078-2.514-.132-3.773-.132v-.016l-52.179.002c-12.587-.001-24.421-4.902-33.321-13.803l-22.603-22.602c-8.499-8.5-19.8-13.181-31.82-13.181-12.02.001-23.32 4.682-31.819 13.182-17.546 17.545-17.546 46.094 0 63.639l22.603 22.603c12.92 12.92 28.058 22.993 44.61 29.828l-25.492 25.492-53.081-53.081-176.947 73.292 34.441 83.15 121.388-50.281 31.771 31.771-46.899 46.899.325 165.771h89.971v-60h120zm42.692-346.332c0-8.014 3.121-15.547 8.787-21.214 5.85-5.849 13.53-8.772 21.213-8.772 7.682 0 15.365 2.925 21.214 8.772 11.696 11.697 11.696 30.729 0 42.427-5.667 5.666-13.2 8.787-21.214 8.787-8.013 0-15.547-3.12-21.213-8.787-5.666-5.666-8.787-13.2-8.787-21.213zm-161.567 32.276-22.602-22.602c-5.849-5.849-5.848-15.365 0-21.214 2.833-2.833 6.601-4.394 10.606-4.394 4.007 0 7.773 1.561 10.606 4.394l22.604 22.604c13.945 13.946 32.295 21.873 51.912 22.526l-26.175 26.175c-17.661-4.899-33.768-14.306-46.951-27.489zm-31.125 344.056h-30.029l-.242-123.368 59.301-59.302-67.158-67.158-112.19 46.471-11.48-27.717 130.71-54.143 60.12 60.12 108.81-108.81c11.698-11.698 30.73-11.696 42.427 0l48.346 48.347c20.233 20.233 31.376 47.135 31.375 75.748v53.373c0 8.271-6.729 14.999-15 14.999s-14.999-6.729-14.999-14.999v-53.374c-.001-20.601-8.023-39.968-22.589-54.533l-27.134-27.133-180.268 180.266z"/><path d="m380.997 399.145h30v30h-30z"/><path d="m290.997 339.145h90v30h-90z"/></g></svg>