<svg id="Capa_1" enable-background="new 0 0 512 512" height="512" viewBox="0 0 512 512" width="512" xmlns="http://www.w3.org/2000/svg"><g><path d="m453.917 50.167c0-27.663-22.505-50.167-50.167-50.167h-295.5c-27.662 0-50.167 22.504-50.167 50.167 0 21.53 13.635 39.931 32.722 47.034v40.605c0 21.21 9.601 40.212 24.676 52.915 3.568 29.941 10.976 59.995 22.159 89.768 15.886 42.29 38.722 82.137 67.931 118.569v112.942h100.857v-112.942c29.209-36.432 52.046-76.278 67.931-118.569 11.184-29.773 18.591-59.827 22.159-89.769 15.074-12.703 24.676-31.705 24.676-52.915v-40.605c19.087-7.102 32.723-25.503 32.723-47.033zm-218.345 431.833v-70.667h40.857v70.667zm46.618-100.667h-52.38c-22.373-27.729-40.754-57.561-54.86-89h162.101c-14.107 31.439-32.488 61.271-54.861 89zm66.843-119h-186.066c-6.598-18.754-11.568-37.587-14.902-56.385 3.88.678 7.863 1.051 11.934 1.051h192c4.071 0 8.054-.374 11.934-1.051-3.332 18.799-8.303 37.632-14.9 56.385zm2.967-85.333h-192c-21.612 0-39.195-17.583-39.195-39.194v-37.472h270.389v37.472c.001 21.611-17.582 39.194-39.194 39.194zm51.75-106.666h-295.5c-11.12 0-20.167-9.047-20.167-20.167s9.047-20.167 20.167-20.167h295.5c11.12 0 20.167 9.047 20.167 20.167s-9.047 20.167-20.167 20.167z"/></g></svg>