<svg id="Capa_1" enable-background="new 0 0 512 512" height="512" viewBox="0 0 512 512" width="512" xmlns="http://www.w3.org/2000/svg"><g><path d="m457.302 191.865h-121.91v-30.001h-34.392v-71.447h29.587c36.448 0 66.94-25.993 73.914-60.416h32.02v-30.001h-361.042v30.001h32.02c6.974 34.423 37.466 60.416 73.914 60.416h29.587v71.447h-34.392v30.001h-121.91c-30.161 0-54.698 24.539-54.698 54.701 0 16.027 6.99 31.189 19.177 41.596 9.983 8.526 22.568 13.107 35.494 13.107 2.855 0 5.729-.225 8.593-.678l73.225-11.61c19.532-3.097 37.362-13.085 50.205-28.124 1.915-2.243 3.702-4.578 5.356-6.993 14.467 19.634 37.747 32.395 63.95 32.395s49.483-12.761 63.95-32.395c1.654 2.415 3.441 4.75 5.356 6.993 12.843 15.04 30.673 25.027 50.205 28.124l73.226 11.61c2.864.454 5.736.678 8.592.678 12.926-.001 25.512-4.582 35.493-13.106 12.188-10.408 19.178-25.57 19.178-41.597 0-30.162-24.537-54.701-54.698-54.701zm-275.889-131.449c-19.786 0-36.658-12.722-42.868-30.414h234.91c-6.21 17.692-23.082 30.414-42.868 30.414zm59.587 30.001h30v71.447h-30zm-109.209 168.933-73.225 11.61c-7.151 1.136-14.404-.911-19.907-5.612-5.503-4.699-8.659-11.545-8.659-18.782 0-13.62 11.08-24.699 24.698-24.699h119.789c-5.614 19.322-21.864 34.181-42.696 37.483zm124.209-3.091c-27.234 0-49.392-22.157-49.392-49.393v-15.001h98.783v15.001c.001 27.236-22.157 49.393-49.391 49.393zm217.341 9.089c-5.503 4.7-12.757 6.747-19.906 5.612l-73.226-11.61c-20.832-3.302-37.082-18.161-42.696-37.483h119.789c13.618 0 24.698 11.08 24.698 24.699 0 7.237-3.156 14.083-8.659 18.782z"/><path d="m119.848 324.774h-30v84.634c0 8.236-6.699 14.935-14.935 14.935s-14.935-6.699-14.935-14.935v-15.001h-30v15.001c0 24.778 20.157 44.936 44.935 44.936s44.935-20.158 44.935-44.936z"/><path d="m211.021 324.774h30v139.571h-30z"/><path d="m452.021 409.409c0 8.236-6.699 14.935-14.935 14.935s-14.935-6.699-14.935-14.935v-84.634h-30v84.634c0 24.778 20.157 44.936 44.935 44.936s44.935-20.158 44.935-44.936v-15.001h-30z"/><path d="m361.282 457.585v-59.676h-30v59.676c0 30.005 24.409 54.415 54.413 54.415h15v-30.001h-15c-13.461 0-24.413-10.953-24.413-24.414z"/><path d="m150.695 457.585c0 13.462-10.951 24.414-24.413 24.414h-15v30.001h15c30.004 0 54.413-24.41 54.413-54.415v-59.676h-30z"/><path d="m270.979 324.774h30v109.57h-30z"/></g></svg>