<svg id="Capa_1" enable-background="new 0 0 512.002 512.002" height="512" viewBox="0 0 512.002 512.002" width="512" xmlns="http://www.w3.org/2000/svg"><path d="m370.833 95.891c26.438 0 47.945-21.508 47.945-47.945s-21.507-47.946-47.945-47.946h-277.609v313.754c0 26.559 3.333 53.071 9.906 78.8 5.953 23.307 8.972 47.321 8.972 71.375v48.073h218.666v-48.073c0-24.055 3.019-48.068 8.973-71.375 6.572-25.73 9.905-52.243 9.905-78.8v-26.083h21.188c26.438 0 47.945-21.508 47.945-47.945 0-26.334-21.34-47.776-47.636-47.943 26.296-.167 47.636-21.61 47.636-47.944 0-26.438-21.508-47.945-47.945-47.945v-.003zm0-65.891c9.896 0 17.945 8.05 17.945 17.945s-8.05 17.945-17.945 17.945h-21.188v-35.89zm-247.609 0h196.422v65.893h-196.422zm0 95.893h196.422v65.888h-196.422zm196.422 187.861c0 24.055-3.019 48.069-8.972 71.375-6.573 25.73-9.906 52.242-9.906 78.8v18.073h-158.666v-18.073c0-26.557-3.333-53.068-9.905-78.8-5.954-23.305-8.973-47.319-8.973-71.375v-91.974h196.422zm69.132-74.028c0 9.896-8.05 17.945-17.945 17.945h-21.188v-35.891h21.188c9.896 0 17.945 8.05 17.945 17.946zm-17.945-77.942h-21.188v-35.892h21.188c9.896 0 17.945 8.05 17.945 17.945s-8.049 17.947-17.945 17.947z"/></svg>