<svg id="Capa_1" enable-background="new 0 0 512 512" height="512" viewBox="0 0 512 512" width="512" xmlns="http://www.w3.org/2000/svg"><g><path d="m437.02 74.98c-48.353-48.351-112.64-74.98-181.02-74.98s-132.667 26.629-181.02 74.98c-48.351 48.353-74.98 112.64-74.98 181.02s26.629 132.667 74.98 181.02c48.353 48.351 112.64 74.98 181.02 74.98s132.667-26.629 181.02-74.98c48.351-48.353 74.98-112.64 74.98-181.02s-26.629-132.667-74.98-181.02zm-21.214 340.826c-42.686 42.686-99.439 66.194-159.806 66.194s-117.12-23.508-159.806-66.194-66.194-99.439-66.194-159.806 23.508-117.12 66.194-159.806 99.439-66.194 159.806-66.194 117.12 23.508 159.806 66.194 66.194 99.439 66.194 159.806-23.508 117.12-66.194 159.806z"/><path d="m117.046 310.757c0 76.619 62.334 138.954 138.954 138.954s138.954-62.335 138.954-138.954v-15h-277.908zm138.954 108.954c-31.412 0-59.758-13.368-79.661-34.709h159.322c-19.903 21.341-48.249 34.709-79.661 34.709zm107.925-93.954c-1.421 10.272-4.285 20.089-8.371 29.245h-199.108c-4.086-9.156-6.95-18.973-8.371-29.245z"/><path d="m392.527 146.388-17.94-51.155-42.429 33.742-54.196 1.254 18.979 50.779-15.554 51.931 54.159-2.358 44.583 30.841 14.492-52.237 43.108-32.87zm-24.118 45.055-5.91 21.304-18.182-12.577-22.086.962 6.343-21.179-7.74-20.709 22.102-.512 17.303-13.76 7.316 20.862 18.434 12.203z"/><path d="m131.872 261.421 44.583-30.841 54.159 2.358-15.554-51.931 18.979-50.779-54.196-1.254-42.429-33.742-17.94 51.155-45.202 29.926 43.108 32.87zm12.573-95.586 7.316-20.862 17.303 13.76 22.102.512-7.74 20.709 6.343 21.179-22.086-.962-18.182 12.577-5.91-21.304-17.581-13.405z"/></g></svg>