<svg id="Capa_1" enable-background="new 0 0 510 510" height="512" viewBox="0 0 510 510" width="512" xmlns="http://www.w3.org/2000/svg"><g><path d="m333.832 136.618c-8.205-14.85-20.482-27.145-35.316-35.375 10.204-10.761 16.484-25.278 16.484-41.243 0-33.084-26.916-60-60-60s-60 26.916-60 60c0 15.965 6.28 30.482 16.484 41.243-14.834 8.229-27.111 20.525-35.316 35.375-69.481 30.715-116.168 99.85-116.168 178.382 0 107.523 87.477 195 195 195s195-87.477 195-195c0-78.43-46.591-147.624-116.168-178.382zm-108.832-76.618c0-16.542 13.458-30 30-30s30 13.458 30 30-13.458 30-30 30-30-13.458-30-30zm-30 120c0-33.084 26.916-60 60-60s60 26.916 60 60v30h-27.707l-15 90h-34.586l-15-90h-27.707zm-104.561 147h26.321c9.469 0 17.173 7.641 17.173 17.033 0 25.935 21.162 47.033 47.174 47.033 24.202 0 43.893 19.69 43.893 43.893v42.3c-72.873-13.442-129.12-74.919-134.561-150.259zm90.668 34.066c-9.47 0-17.174-7.641-17.174-17.033 0-25.935-21.162-47.033-47.173-47.033h-25.787c5.357-49.583 32.652-93.589 74.099-120.416-.136 3.612-.042.091-.071 63.416h32.293l15 90h85.414l15-90h32.292c-.029-63.232.064-59.786-.071-63.416 28.303 18.319 50.007 44.648 62.634 75.295l-48.177 34.411c-19.084 13.633-27.739 37.142-22.051 59.894 3.059 12.235-2.685 24.721-13.964 30.36-23.78 11.89-37.218 37.56-33.436 63.876l4.983 34.687c-12.787 3.189-26.157 4.893-39.918 4.893v-45.041c0-40.744-33.148-73.893-73.893-73.893zm142.662 103.902-4.14-28.814c-1.94-13.504 4.955-26.676 17.158-32.777 23.953-11.978 36.145-38.488 29.65-64.47-2.679-10.714 1.397-21.785 10.385-28.205l39.922-28.515c2.139 10.652 3.256 21.629 3.256 32.813 0 66.451-39.49 123.845-96.231 149.968z"/></g></svg>