<svg id="Capa_1" enable-background="new 0 0 512 512" height="512" viewBox="0 0 512 512" width="512" xmlns="http://www.w3.org/2000/svg"><g><path d="m437.02 74.98c-48.353-48.352-112.64-74.98-181.02-74.98s-132.667 26.628-181.02 74.98-74.98 112.64-74.98 181.02 26.628 132.667 74.98 181.02 112.64 74.98 181.02 74.98 132.667-26.628 181.02-74.98 74.98-112.64 74.98-181.02-26.628-132.667-74.98-181.02zm-21.213 340.827c-44.065 44.063-101.926 66.092-159.807 66.087-57.867-.005-115.753-22.034-159.807-66.087-88.116-88.118-88.116-231.495 0-319.613 88.118-88.116 231.495-88.116 319.613 0 88.117 88.118 88.117 231.494.001 319.613z"/><path d="m128.18 166.183c-60.003 60.003-60.003 157.635 0 217.638 30.001 30.002 69.41 45.002 108.818 45.002 39.409 0 78.818-15 108.819-45.002l10.606-10.606-217.637-217.639zm-14.514 119.948c23.499 7.286 47.835 22.568 68.735 43.469 20.814 20.814 36.145 45.337 43.444 68.733-27.911-2.501-55.131-14.405-76.451-35.725-21.327-21.327-33.232-48.556-35.728-76.477zm199.693 86.444c-16.882 13.232-36.434 21.459-56.638 24.691-7.661-30.604-26.332-62.104-53.108-88.88-26.482-26.483-58.263-45.358-88.883-53.088 3.229-20.211 11.457-39.771 24.695-56.658z"/><path d="m270.76 59.257-28.879 8.121 19.591 69.661-69.782-6.101-2.613 29.886 113.027 9.883z"/><path d="m341.293 209.896 9.883 113.027 29.887-2.613-6.102-69.782 69.661 19.591 8.121-28.879z"/></g></svg>