<svg id="Capa_1" enable-background="new 0 0 512 512" height="512" viewBox="0 0 512 512" width="512" xmlns="http://www.w3.org/2000/svg"><g><path d="m151 302h60v30h-60z"/><path d="m301 302h60v30h-60z"/><path d="m422 90h30v-30h30v-30h-30v-30h-30v30h-30v30h30z"/><path d="m30 120h30v-30h30v-30h-30v-30h-30v30h-30v30h30z"/><path d="m482 90h30v30h-30z"/><path d="m90 0h30v30h-30z"/><path d="m481 422v-135c0-124.35-100.632-225-225-225-124.35 0-225 100.632-225 225v135c0 16.262-14.196 30-31 30v30h46c31.805 0 59.031-19.91 69.917-47.912 29.165 46.741 81.048 77.912 140.083 77.912s110.918-31.171 140.083-77.912c10.886 28.002 38.112 47.912 69.917 47.912h46v-30c-16.804 0-31-13.738-31-30zm-390-15c0 22.408-16.464 41.043-37.93 44.445 5.176-8.904 7.93-18.978 7.93-29.445v-135c0-107.523 87.477-195 195-195 26.438 0 51.658 5.299 74.67 14.873-4.991 75.349-67.871 135.127-144.461 135.127h-77.543c-1.933 5.697-17.666 32.682-17.666 75zm165 75c-74.439 0-135-60.561-135-135v-30c0-15.513 2.577-30.607 7.674-45h57.535c57.243 0 108.152-27.666 140.055-70.322 40.232 24.418 64.736 67.535 64.736 115.322v30c0 74.439-60.561 135-135 135zm165-75c0-10.534 0-75.727 0-90 0-59.113-31.215-111.584-78.897-140.781 8.552-16.805 14.449-35.176 17.174-54.549 55.042 34.507 91.723 95.711 91.723 165.33v135c0 10.467 2.754 20.541 7.93 29.445-21.466-3.402-37.93-22.037-37.93-44.445z"/><path d="m256 392c-13.503 0-26.176-5.988-34.769-16.429l-23.164 19.064c14.315 17.391 35.43 27.365 57.933 27.365s43.618-9.974 57.933-27.365l-23.164-19.064c-8.593 10.441-21.266 16.429-34.769 16.429z"/></g></svg>