<svg id="Capa_1" enable-background="new 0 0 512 512" height="512" viewBox="0 0 512 512" width="512" xmlns="http://www.w3.org/2000/svg"><g><path d="m61 151h39.021l-39.021 37.141v22.859h39.021l-39.021 37.141v22.859h90v-30h-38.983l38.983-37.105v-22.895h-38.983l38.983-37.105v-22.895h-90z"/><path d="m211 151h39.021l-39.021 37.141v22.859h39.021l-39.021 37.141v22.859h90v-30h-38.983l38.983-37.105v-22.895h-38.983l38.983-37.105v-22.895h-90z"/><path d="m451 121h-90v30h39.021l-39.021 37.141v22.859h39.021l-39.021 37.141v22.859h90v-30h-38.983l38.983-37.105v-22.895h-38.983l38.983-37.105z"/><path d="m0 61v390h512c0-17.319 0-374.304 0-390zm482 360h-452v-90h452zm-452-120v-210h452v210z"/><path d="m61 361h30v30h-30z" transform="matrix(.707 -.707 .707 .707 -243.612 163.868)"/><path d="m121 361h30v30h-30z" transform="matrix(.707 -.707 .707 .707 -226.039 206.294)"/><path d="m181 361h30v30h-30z" transform="matrix(.707 -.707 .707 .707 -208.465 248.721)"/><path d="m241 361h30v30h-30z" transform="matrix(.707 -.707 .707 .707 -190.892 291.147)"/><path d="m301 361h30v30h-30z" transform="matrix(.707 -.707 .707 .707 -173.318 333.574)"/><path d="m361 361h30v30h-30z" transform="matrix(.707 -.707 .707 .707 -155.744 376)"/><path d="m421 361h30v30h-30z" transform="matrix(.707 -.707 .707 .707 -138.171 418.426)"/></g></svg>