<svg id="Capa_1" enable-background="new 0 0 512 512" height="512" viewBox="0 0 512 512" width="512" xmlns="http://www.w3.org/2000/svg"><g id="XMLID_1359_"><path id="XMLID_1389_" d="m0 28.163v357.158h204.577v68.477h-135.209v30.039h373.264v-30.039h-135.209v-68.477h204.577v-357.158zm481.961 30.039v155.743h-149.862v-155.743zm-291.752 237.85v-3.115c0-19.105 15.543-34.648 34.648-34.648s34.648 15.543 34.648 34.648v3.115zm16.09-86.36c0-10.233 8.325-18.558 18.558-18.558s18.558 8.325 18.558 18.558-8.325 18.558-18.558 18.558-18.558-8.325-18.558-18.558zm56.204 30.691c6.84-8.374 10.951-19.06 10.951-30.691 0-26.797-21.801-48.597-48.597-48.597s-48.597 21.801-48.597 48.597c0 11.631 4.111 22.317 10.951 30.691-16.357 11.75-27.041 30.922-27.041 52.554v3.115h-69.552v-80.211h60.579v-98.409h150.863v150.631h30.039v-24.078h61.246v52.068h-103.801v-3.115c0-21.633-10.684-40.805-27.041-52.555zm-171.885-54.581v-68.37h30.54v68.37zm186.766 267.996h-42.768v-68.477h42.768zm204.577-98.516h-451.922v-297.08h272.021v29.19h-241.481v238.699h362.806v-82.107h58.576z"/><path id="XMLID_1404_" d="m408.656 194.182 44.943-45.432c12.971-13.111 14.687-33.58 4.08-48.67-11.154-15.864-32.193-20.701-49.022-11.719-16.829-8.982-37.869-4.146-49.023 11.72-10.607 15.088-8.891 35.557 4.08 48.669zm-24.448-76.826c1.562-2.222 4.041-3.418 6.571-3.418 1.479 0 2.977.409 4.316 1.262l13.562 8.64 13.563-8.639v-.001c3.628-2.314 8.41-1.366 10.886 2.154 2.238 3.184 1.876 7.503-.861 10.269l-23.588 23.844-23.587-23.844c-2.738-2.765-3.1-7.084-.862-10.267z"/></g></svg>