<svg id="Capa_1" enable-background="new 0 0 512 512" height="512" viewBox="0 0 512 512" width="512" xmlns="http://www.w3.org/2000/svg"><g><path d="m112 60h198v30h-198z"/><path d="m422 387v-173.961l76.819-76.819c17.546-17.546 17.546-46.094 0-63.64-17.545-17.545-46.094-17.545-63.639 0l-13.18 13.181v-85.761h-422v467c0 24.813 20.187 45 45 45h422c24.813 0 45-20.187 45-45v-80zm-246.637-12.176 14.757-14.758 21.213 21.213-14.758 14.758-24.748 3.536zm35.97-35.97 198.862-198.862 21.214 21.213-198.862 198.861zm245.061-245.061c5.85-5.848 15.363-5.848 21.213 0 5.849 5.849 5.849 15.365 0 21.214l-24.984 24.984-21.214-21.213zm-411.394 388.207c-8.271 0-15-6.729-15-15v-437h362v85.761l-30 30v-25.761h-302v30h297.761l-47.761 47.761v-17.761h-198v30h185.761l-30 30h-207.761v30h177.761l-90.683 90.682-10.606 74.247 74.246-10.606 181.282-181.284v223.961c0 5.257.906 10.307 2.57 15zm437-15c0 8.271-6.729 15-15 15h-30c-8.271 0-15-6.729-15-15v-50h60z"/></g></svg>