<svg id="Capa_1" enable-background="new 0 0 512 512" height="512" viewBox="0 0 512 512" width="512" xmlns="http://www.w3.org/2000/svg"><g><path d="m360.839 115.778v-26.269h23.04v-55.906l-33.603-33.603h-219.58l-33.602 33.603v55.906h23.04v119.473h-25.286v69.691c0 50.813 26.163 95.622 65.719 121.689v111.638h159.838v-111.639c39.556-26.066 65.719-70.876 65.719-121.689v-69.691h-25.285v-63.367h26.476v26.199h29.836v-56.035zm-233.909-69.817 16.124-16.124h194.864l16.124 16.124v13.712h-227.112zm229.358 192.857v29.809h-231.603v-29.809zm-65.719 243.346h-100.165v-66.727c15.623 5.739 32.494 8.874 50.083 8.874s34.459-3.135 50.083-8.874v66.727zm-50.082-87.689c-57.107 0-104.686-41.554-114.103-96.011h228.206c-9.418 54.457-56.996 96.011-114.103 96.011zm-90.517-185.493v-119.473h181.033v119.473z"/></g></svg>