<?xml version="1.0" encoding="iso-8859-1"?>
<!-- Generator: Adobe Illustrator 19.0.0, SVG Export Plug-In . SVG Version: 6.00 Build 0)  -->
<svg xmlns="http://www.w3.org/2000/svg" xmlns:xlink="http://www.w3.org/1999/xlink" version="1.1" id="Layer_1" x="0px" y="0px" viewBox="0 0 512 512" style="enable-background:new 0 0 512 512;" xml:space="preserve">
<g>
	<g>
		<path d="M349.41,261.47c13.641-8.913,21.786-23.685,21.786-39.514v-78.337c0-24.83-17.359-45.668-40.574-51.055V30.302h-58.948V0    h-31.347v30.302h-57.554v61.946c-23.914,4.859-41.968,26.046-41.968,51.372v78.337c0,15.829,8.144,30.601,21.786,39.514    c6.363,4.158,12.784,15.172,12.784,30.404c0,15.234-6.421,26.247-12.784,30.404c-13.642,8.912-21.786,23.684-21.786,39.513V512    h230.39V361.793c0-15.83-8.144-30.602-21.786-39.513c-6.363-4.158-12.784-15.171-12.784-30.404    C336.624,276.642,343.045,265.628,349.41,261.47z M214.119,61.649h85.154v29.55h-85.154V61.649z M339.848,480.653H172.152V452.14    h167.696V480.653z M332.264,235.227c-16.646,10.875-26.988,32.581-26.988,56.647c0,24.066,10.341,45.773,26.988,56.647    c4.748,3.102,7.583,8.063,7.583,13.27v59H172.151v-59c0-5.207,2.835-10.169,7.584-13.27    c16.646-10.875,26.988-32.581,26.988-56.647s-10.34-45.773-26.988-56.647c-4.748-3.102-7.584-8.063-7.584-13.271v-78.337    c0-11.62,9.454-21.075,21.075-21.075h125.547c11.62,0,21.075,9.454,21.075,21.075v78.337h0.001    C339.848,227.163,337.013,232.124,332.264,235.227z"/>
	</g>
</g>
<g>
</g>
<g>
</g>
<g>
</g>
<g>
</g>
<g>
</g>
<g>
</g>
<g>
</g>
<g>
</g>
<g>
</g>
<g>
</g>
<g>
</g>
<g>
</g>
<g>
</g>
<g>
</g>
<g>
</g>
</svg>
