<svg id="Capa_1" enable-background="new 0 0 512 512" height="512" viewBox="0 0 512 512" width="512" xmlns="http://www.w3.org/2000/svg"><g><path d="m199.905 236.293-27.337-15.783-15 25.98 27.307 15.766c-2.5 7.468-3.875 15.446-3.875 23.744s1.375 16.276 3.875 23.744l-27.307 15.766 15 25.98 27.337-15.783c10.583 11.93 24.892 20.481 41.095 23.784v31.509h30v-31.509c16.203-3.302 30.512-11.854 41.095-23.784l27.337 15.783 15-25.98-27.307-15.766c2.5-7.468 3.875-15.446 3.875-23.744s-1.375-16.276-3.875-23.744l27.307-15.766-15-25.98-27.337 15.783c-10.583-11.93-24.892-20.481-41.095-23.784v-31.509h-30v31.509c-16.203 3.303-30.512 11.854-41.095 23.784zm56.095 4.707c24.813 0 45 20.187 45 45s-20.187 45-45 45-45-20.187-45-45 20.187-45 45-45z"/><path d="m241 271h30v30h-30z"/><path d="m0 61v390h512c0-17.104 0-373.227 0-390-55.238 0-491.587 0-512 0zm482 360h-452v-330h99.787l60 60h292.213zm-279.787-300-30-30h309.787v30z"/></g></svg>