<?xml version="1.0" encoding="iso-8859-1"?>
<!-- Generator: Adobe Illustrator 19.0.0, SVG Export Plug-In . SVG Version: 6.00 Build 0)  -->
<svg version="1.1" id="Capa_1" xmlns="http://www.w3.org/2000/svg" xmlns:xlink="http://www.w3.org/1999/xlink" x="0px" y="0px"
	 viewBox="0 0 512.001 512.001" style="enable-background:new 0 0 512.001 512.001;" xml:space="preserve">
<g>
	<g>
		<path d="M490.053,21.933c-29.243-29.243-76.828-29.243-106.071,0l-99.626,99.626l-10.608-10.608
			c-17.545-17.546-46.096-17.547-63.642,0c-17.547,17.547-17.547,46.096,0,63.643l10.607,10.607L82.82,323.094
			c-16.586,16.586-24.254,40.243-20.995,63.423l-48.648,48.648c-17.547,17.547-17.547,46.096,0,63.643
			c17.588,17.588,46.053,17.59,63.642,0l48.648-48.648c23.179,3.259,46.837-4.409,63.423-20.995l137.893-137.893l10.607,10.608
			c17.587,17.588,46.055,17.589,63.642,0c17.588-17.587,17.591-46.054,0-63.643l-10.607-10.607l99.627-99.627
			C519.295,98.759,519.295,51.176,490.053,21.933z M167.677,407.95c-11.333,11.333-27.527,15.606-43.319,11.434
			c-5.161-1.365-10.662,0.119-14.439,3.896l-54.315,54.314c-5.862,5.863-15.35,5.863-21.214,0c-5.848-5.848-5.848-15.366,0-21.214
			l54.315-54.314c3.776-3.776,5.26-9.276,3.896-14.44c-4.173-15.792,0.101-31.986,11.434-43.318l15.911-15.911l111.374,15.911
			L167.677,407.95z M257.837,317.79l-111.375-15.911l95.464-95.465l63.643,63.643L257.837,317.79z M379.818,280.666
			c-5.86,5.862-15.35,5.863-21.213,0L231.32,153.38c-5.848-5.848-5.848-15.366,0-21.214c5.848-5.848,15.366-5.849,21.214,0
			l127.285,127.285C385.681,265.314,385.682,274.802,379.818,280.666z M468.839,106.79l-99.627,99.627l-63.643-63.643l99.626-99.626
			c17.548-17.547,46.096-17.546,63.644,0C486.384,60.692,486.384,89.243,468.839,106.79z"/>
	</g>
</g>
<g>
</g>
<g>
</g>
<g>
</g>
<g>
</g>
<g>
</g>
<g>
</g>
<g>
</g>
<g>
</g>
<g>
</g>
<g>
</g>
<g>
</g>
<g>
</g>
<g>
</g>
<g>
</g>
<g>
</g>
</svg>
