<?xml version="1.0" encoding="iso-8859-1"?>
<!-- Generator: Adobe Illustrator 19.0.0, SVG Export Plug-In . SVG Version: 6.00 Build 0)  -->
<svg xmlns="http://www.w3.org/2000/svg" xmlns:xlink="http://www.w3.org/1999/xlink" version="1.1" id="Layer_1" x="0px" y="0px" viewBox="0 0 512 512" style="enable-background:new 0 0 512 512;" xml:space="preserve">
<g>
	<g>
		<path d="M346.607,145.737v-26.702h29.402V0H135.991v119.036h29.402v26.702h-56.927V512h295.068V145.737H346.607z M165.991,30    H346.01v59.036H165.991V30z M316.607,119.036v26.702H195.393v-26.702H316.607z M373.534,482H138.466V175.737h235.068V482z"/>
	</g>
</g>
<g>
	<g>
		<path d="M160.173,196v265h191.653V196H160.173z M321.826,431H190.173V226h131.653V431z"/>
	</g>
</g>
<g>
	<g>
		<polygon points="271.833,313.5 271.833,287.667 241.833,287.667 241.833,313.5 216,313.5 216,343.5 241.833,343.5     241.833,369.334 271.833,369.334 271.833,343.5 297.667,343.5 297.667,313.5   "/>
	</g>
</g>
<g>
</g>
<g>
</g>
<g>
</g>
<g>
</g>
<g>
</g>
<g>
</g>
<g>
</g>
<g>
</g>
<g>
</g>
<g>
</g>
<g>
</g>
<g>
</g>
<g>
</g>
<g>
</g>
<g>
</g>
</svg>
