<svg id="Capa_1" enable-background="new 0 0 512 512" height="512" viewBox="0 0 512 512" width="512" xmlns="http://www.w3.org/2000/svg"><g><path d="m308.5 0c-41.46 0-81.354 12.396-115.367 35.846-31.469 21.695-55.966 51.414-71.164 86.221-71.735 31.494-121.969 103.202-121.969 186.433 0 112.21 91.29 203.5 203.5 203.5 83.231 0 154.939-50.234 186.433-121.969 34.807-15.198 64.526-39.695 86.221-71.164 23.45-34.013 35.846-73.907 35.846-115.367 0-112.21-91.29-203.5-203.5-203.5zm-105 482c-95.668 0-173.5-77.832-173.5-173.5s77.832-173.5 173.5-173.5 173.5 77.832 173.5 173.5-77.832 173.5-173.5 173.5zm41.689-372.699c18.53-12.466 40.5-19.301 63.311-19.301 62.584 0 113.5 50.916 113.5 113.5 0 22.811-6.835 44.781-19.301 63.311-16.475-78.82-78.69-141.035-157.51-157.51zm157.728 239.855c2.675-13.141 4.083-26.737 4.083-40.656 0-.219-.008-.437-.008-.657 28.687-27.079 45.008-64.704 45.008-104.343 0-79.126-64.374-143.5-143.5-143.5-39.639 0-77.264 16.321-104.344 45.008-.219-.001-.437-.008-.656-.008-13.919 0-27.515 1.408-40.656 4.083 31.541-48.898 85.738-79.083 145.656-79.083 95.668 0 173.5 77.832 173.5 173.5 0 59.918-30.185 114.115-79.083 145.656z"/><path d="m203.5 210c-54.313 0-98.5 44.187-98.5 98.5s44.187 98.5 98.5 98.5 98.5-44.187 98.5-98.5-44.187-98.5-98.5-98.5zm0 167c-37.771 0-68.5-30.729-68.5-68.5s30.729-68.5 68.5-68.5 68.5 30.729 68.5 68.5-30.729 68.5-68.5 68.5z"/></g></svg>