<svg id="Capa_1" enable-background="new 0 0 504.263 504.263" height="512" viewBox="0 0 504.263 504.263" width="512" xmlns="http://www.w3.org/2000/svg"><g><path d="m498.377 208.57 5.885-29.418-48.301-9.662c9.107-75.537-45.667-130.304-121.19-121.19l-9.66-48.3-29.419 5.885 9.805 49.016c-11.558 3.828-22.857 9.05-33.663 15.541l-35.679-35.68-21.213 21.213 32.237 32.238c-12.768 10.903-24.031 23.429-33.354 37.097l-48.974-9.798-5.886 29.419 39.492 7.899c-3.104 6.995-5.718 14.142-7.783 21.396-2.898 10.18-10.27 18.756-20.222 23.529-44.473 21.334-80.128 65.885-86.734 115.057l-17.943 11.963c-13.332 8.887-31.636 4.272-38.943-10.343l-26.832 13.417c15.264 30.534 53.956 40.865 82.416 21.888l2.008-1.339c2.464 13.043 7.441 25.021 14.771 35.458l-43.353 43.352 21.213 21.213 43.364-43.364c10.437 7.327 22.409 12.309 35.452 14.772-.324.797-16.394 20.292-8.992 48.162 4.186 15.76 14.949 28.98 29.535 36.272l13.416-26.832c-14.332-7.167-19.409-25.349-10.343-38.944l11.962-17.943c49.125-6.603 93.701-42.22 115.058-86.736 4.772-9.951 13.349-17.32 23.528-20.219 7.255-2.065 14.401-4.679 21.397-7.783l7.9 39.49 29.418-5.885-9.798-48.974c13.658-9.314 26.18-20.57 37.097-33.353l32.238 32.237 21.213-21.213-35.68-35.679c6.491-10.806 11.713-22.105 15.542-33.663zm-176.555 76.164c-18.436 5.248-33.877 18.406-42.363 36.098-16.947 35.328-53.165 65.135-92.872 70.099-47.075 5.886-79.147-26.117-73.254-73.255 4.96-39.694 34.751-75.918 70.098-92.871 17.691-8.486 30.85-23.928 36.099-42.363 6.505-22.852 19.591-44.578 37.839-62.826 46.269-46.268 113.219-56.487 148.493-21.213 16.487 16.486 23.683 40.633 20.264 67.992-6.734 53.845-52.162 103.495-104.304 118.339z"/><path d="m331.264 124.023c-29.319 9.777-59.7 40.131-69.486 69.488-5.899 17.691-3.697 32.883 6.196 42.775 11.279 11.277 27.728 11.217 42.776 6.197 46.847-15.613 93.423-82.128 63.29-112.264-9.893-9.891-25.085-12.09-42.776-6.196zm20.514 39.489c-6.788 20.355-30.16 43.729-50.514 50.512-8.131 2.711-11.711 1.418-12.076 1.051-.367-.367-1.661-3.943 1.05-12.076 6.784-20.357 30.159-43.727 50.513-50.514 3.894-1.297 10.663-2.464 12.076-1.051.368.367 1.661 3.943-1.049 12.078z"/><path d="m157.516 274.321h30v30h-30z" transform="matrix(.707 -.707 .707 .707 -154.052 206.727)"/><path d="m199.942 316.746h30v29.999h-30z" transform="matrix(.707 -.707 .707 .707 -171.623 249.144)"/><path d="m221.155 253.108h30v30h-30z" transform="matrix(.707 -.707 .707 .707 -120.412 245.514)"/></g></svg>