<svg id="Capa_1" enable-background="new 0 0 511.213 511.213" height="512" viewBox="0 0 511.213 511.213" width="512" xmlns="http://www.w3.org/2000/svg"><g><path d="m423.005 126.426 21.213-21.213-42-42 35.572-35.572-21.213-21.213-35.572 35.572-42-42-21.213 21.213 42 42-37.633 37.633c-43.136-32.755-105.088-29.467-144.436 9.881-39.482 39.482-42.662 101.725-9.547 144.879-30.097 39.221-30.206 94.208-.334 133.547l-37.633 37.633-42-42-21.214 21.214 42 42-35.572 35.572 21.213 21.213 35.572-35.572 42 42 21.213-21.213-42-42 37.633-37.633c19.596 14.88 43.072 22.328 66.552 22.328 28.206 0 56.411-10.736 77.884-32.209 39.482-39.482 42.662-101.725 9.547-144.879 30.097-39.221 30.207-94.208.334-133.547l37.633-37.633zm-224.069 5.514c15.624-15.624 36.147-23.437 56.671-23.437s41.047 7.812 56.671 23.437c27.809 27.809 30.847 71.127 9.16 102.352-38.898-29.036-92.763-29.036-131.661 0-21.688-31.225-18.65-74.543 9.159-102.352zm100.668 123.666c-26.6 17.479-61.395 17.479-87.994 0 13.3-8.74 28.648-13.112 43.997-13.112s30.697 4.373 43.997 13.112zm12.673 123.666c-31.248 31.248-82.094 31.248-113.342 0-27.809-27.809-30.847-71.127-9.16-102.352 19.449 14.518 42.638 21.784 65.831 21.784s46.381-7.266 65.831-21.784c21.687 31.226 18.649 74.544-9.16 102.352z"/></g></svg>