<svg id="Capa_1" enable-background="new 0 0 512 512" height="512" viewBox="0 0 512 512" width="512" xmlns="http://www.w3.org/2000/svg"><g><path d="m303.495 81.528-47.495 28.457-47.495-28.457-208.505 96.351v9.593c0 64.907 25.276 125.931 71.173 171.827s106.92 71.173 171.827 71.173h26c64.907 0 125.931-25.276 171.827-71.173s71.173-106.92 71.173-171.827v-9.593zm-47.495 63.43 49.308-29.543 123.473 57.057h-345.562l123.473-57.057zm224.66 57.514c-5.204 29.297-25.575 56.753-58.683 78.535-40.645 26.739-94.972 41.465-152.977 41.465h-26c-58.005 0-112.332-14.726-152.977-41.465-33.108-21.782-53.479-49.238-58.683-78.535zm-211.66 198h-26c-77.639 0-145.698-41.764-182.923-103.997 4.277 3.299 8.758 6.503 13.458 9.595 45.483 29.923 105.667 46.402 169.465 46.402h26c63.798 0 123.981-16.479 169.465-46.402 4.7-3.092 9.181-6.296 13.458-9.595-37.225 62.233-105.284 103.997-182.923 103.997z"/></g></svg>