<svg id="Capa_1" enable-background="new 0 0 512 512" height="512" viewBox="0 0 512 512" width="512" xmlns="http://www.w3.org/2000/svg"><g><path d="m256 0c-82.986 0-150.5 67.514-150.5 150.5v211c0 82.986 67.514 150.5 150.5 150.5s150.5-67.514 150.5-150.5v-211c0-82.986-67.514-150.5-150.5-150.5zm120.5 361.5c0 66.444-54.056 120.5-120.5 120.5s-120.5-54.056-120.5-120.5v-211c0-66.444 54.056-120.5 120.5-120.5s120.5 54.056 120.5 120.5z"/><path d="m256 60c-49.901 0-90.5 40.598-90.5 90.5v211c0 49.901 40.599 90.5 90.5 90.5s90.5-40.599 90.5-90.5v-211c0-49.902-40.599-90.5-90.5-90.5zm60.5 301.5c0 33.359-27.141 60.5-60.5 60.5s-60.5-27.141-60.5-60.5v-211c0-33.36 27.141-60.5 60.5-60.5s60.5 27.14 60.5 60.5z"/></g></svg>