<svg id="Capa_1" enable-background="new 0 0 512 512" height="512" viewBox="0 0 512 512" width="512" xmlns="http://www.w3.org/2000/svg"><g id="Popular"><g><path d="m256 512c-140.959 0-256-115.049-256-256 0-140.959 115.049-256 256-256 140.959 0 256 115.049 256 256 0 140.959-115.049 256-256 256zm0-482c-124.617 0-226 101.383-226 226s101.383 226 226 226 226-101.383 226-226-101.383-226-226-226z"/></g><g><path d="m334.36 363.853-78.36-31.674-78.36 31.673 5.91-84.312-54.339-64.737 82.012-20.434 44.777-71.682 44.777 71.683 82.012 20.434-54.339 64.737zm-78.36-64.032 45.075 18.22-3.399-48.5 31.258-37.239-47.176-11.754-25.758-41.235-25.758 41.235-47.176 11.754 31.258 37.239-3.399 48.5z"/></g><g><path d="m256 451c-107.523 0-195-87.477-195-195s87.477-195 195-195 195 87.477 195 195-87.477 195-195 195zm0-360c-90.981 0-165 74.019-165 165s74.019 165 165 165 165-74.019 165-165-74.019-165-165-165z"/></g></g></svg>