<svg id="Capa_1" enable-background="new 0 0 512 512" height="512" viewBox="0 0 512 512" width="512" xmlns="http://www.w3.org/2000/svg"><g><path d="m416.079 230.344c-3.417-38.257-33.033-68.216-70.279-72.736-15.711-33.194-45.208-57.036-81.069-65.45-13.405-1.465-23.75-12.962-23.73-26.458v-57.717h-121.001v19c0 26.103-13.215 49.945-35.35 63.78l-35.201 22c-30.963 19.352-49.449 52.706-49.449 89.22v154.14l79.601 64.676c28.09 22.823 61.665 37.955 97.056 44.093 27.426 26.352 60.76 39.174 101.491 39.126 113.611.343 188.355-122.378 135.908-223.142zm-30.065 1.007-.428 10.707c-8.445-8.439-18.02-15.768-28.147-22.109h-67.067c17.206-49.798 89.054-40.325 95.642 11.402zm-175.014-193.368c.171 29.041-3.698 50.389 20.687 71.383-10.178 21.11-38.516 29.025-58.188 16.048 0 0-48.279-30.516-48.279-30.516 13.533-15.96 22.027-35.686 24.216-56.915zm-181 303.86v-45.86h43v21.572l94.064 69.428h45.436c14.061 0 25.5 11.439 25.5 25.5s-11.439 25.5-25.5 25.5c-41.383 0-81.863-14.372-113.981-40.468zm248.119 132.174c-13.185.022-30.159-1.255-48.036-8.906 58.824-20.673 45.501-106.886-17.584-108.128h-35.563l-73.936-54.573v-36.428h-73v-64c0-26.103 13.215-49.945 35.35-63.78l35.201-22c.371-.232.734-.474 1.101-.71l55.818 35.282c11.528 7.286 24.553 11.002 37.718 11.002 26.605.262 52.778-16.058 63.872-40.122.005.001.011.002.016.003 22.62 5.626 41.729 19.443 54.045 38.721-31.47 9.629-54.511 38.698-55.089 73.144-11.213 31.027-53.606 38.536-74.854 12.794l-22.938 19.334c33.914 41.213 101.436 32.036 123.391-15.701h64.794c97.889 68.972 49.477 223.011-70.306 224.068z"/><path d="m469 351.033h43v30h-43z"/><path d="m459.5 447.432h30v43h-30z" transform="matrix(.707 -.707 .707 .707 -192.607 472.858)"/><path d="m453 248.135h43v30h-43z" transform="matrix(.707 -.707 .707 .707 -47.086 412.592)"/></g></svg>