<svg id="Capa_1" enable-background="new 0 0 512 512" height="512" viewBox="0 0 512 512" width="512" xmlns="http://www.w3.org/2000/svg"><g><path d="m300 257c0-74.439-60.561-135-135-135s-135 60.561-135 135v15h-30v30h30v75c0 74.439 60.561 135 135 135s135-60.561 135-135v-75h30v-30h-30zm-240 0c0-57.897 47.103-105 105-105 2.843 0 5.66.118 8.447.341l-29.66 29.659 30 30-19.394 19.394 21.213 21.213 40.607-40.607-30-30 21.091-21.091c36.887 16.303 62.696 53.237 62.696 96.091v15h-210zm210 120c0 57.897-47.103 105-105 105s-105-47.103-105-105v-75h210z"/><path d="m165 452c33.645 0 60-19.766 60-45s-26.355-45-60-45-60 19.766-60 45 26.355 45 60 45zm0-60c18.313 0 30 8.884 30 15s-11.687 15-30 15-30-8.884-30-15 11.687-15 30-15z"/><path d="m247.069 64.061-7.42-29.067c-10.694 2.729-21.323 6.877-31.593 12.326l14.061 26.501c8.169-4.335 16.564-7.619 24.952-9.76z"/><path d="m341.102 94.552 23.354-18.831c-7.289-9.041-15.829-16.966-25.382-23.556l-17.035 24.693c7.173 4.95 13.587 10.903 19.063 17.694z"/><path d="m307.999 36.816c-11.014-3.566-22.507-5.512-34.162-5.783l-.697 29.992c8.75.204 17.368 1.661 25.617 4.332z"/><path d="m427.402 45.892-127.321 127.321 84.878 84.878 127.041-127.288zm-42.494 169.723-42.401-42.401 84.812-84.812 42.035 42.368z"/><path d="m151 0h30v90h-30z"/></g></svg>