<svg id="Capa_1" enable-background="new 0 0 511.123 511.123" height="512" viewBox="0 0 511.123 511.123" width="512" xmlns="http://www.w3.org/2000/svg"><g><path d="m240.561 289.514h30v30h-30z"/><path d="m428.462 322.304-22.639 22.638-29.813-29.812c11.182-13.39 17.56-30.465 17.56-48.703v-101.979h33.003v-30h-33.039c-10.584-179.332-265.429-179.195-275.945 0h-33.028v30h32.991v101.979c0 18.238 6.377 35.314 17.558 48.704l-29.811 29.811-22.639-22.638-63.64 63.64 125.18 125.179 63.64-63.639-22.639-22.639 40.513-40.513c18.388 7.155 41.303 7.155 59.692 0l40.513 40.513-22.639 22.639 63.64 63.639 125.18-125.179zm-64.903-171.763c-.135 8.133-6.863 14.75-14.998 14.75h-35.624c-8.225.174-15.401-7.204-14.994-15.432.22-8.033 7.226-14.568 15.618-14.568h35c8.155-.173 15.309 7.097 14.998 15.25zm-107.998-121.25c48.87 0 90.256 32.628 103.537 77.242-6.986-2.246-37.814-.904-45.537-1.242-39.767.008-60.736 47.964-32.879 76.378 8.546 8.784 20.001 13.622 32.255 13.622h35.624c5.251 0 10.304-.924 15.009-2.61v73.746c0 16.557-8.674 31.532-22.828 39.775 1.076-47.559-37.634-86.97-85.181-86.911-47.546-.059-86.258 39.353-85.181 86.911-14.154-8.242-22.828-23.218-22.828-39.775v-73.692c4.752 1.675 9.807 2.556 15.009 2.556h35c24.403 0 44.587-19.851 44.994-44.25.926-24.456-20.524-46.27-44.994-45.75h-34.376c-3.857 0-7.614.489-11.209 1.404 13.229-44.698 54.656-77.404 103.585-77.404zm-107.994 120.568c.22-8.033 7.227-14.568 15.618-14.568h34.376c8.154-.172 15.308 7.097 14.997 15.25-.135 8.133-6.863 14.75-14.997 14.75h-35c-8.225.173-15.4-7.205-14.994-15.432zm-3.366 318.838-82.753-82.753 21.213-21.214 82.753 82.754zm19.788-65.065-37.477-37.477 32.171-32.171c.31.16.614.327.927.483l20.943 10.469c4.808 8.887 11.16 16.814 18.679 23.452zm36.349-99.118c0-30.45 24.773-55.224 55.224-55.224 73.262 3.034 73.24 107.425 0 110.447-30.451.001-55.224-24.773-55.224-55.223zm111.553 63.875c7.11-6.277 13.162-13.717 17.866-22.022l.036.065 21.999-12.104c.219-.111.432-.23.65-.342l32.169 32.169-37.477 37.477zm33.817 79.095 82.753-82.754 21.213 21.214-82.753 82.753z"/></g></svg>