<svg id="Capa_1" enable-background="new 0 0 512 512" height="512" viewBox="0 0 512 512" width="512" xmlns="http://www.w3.org/2000/svg"><g><path d="m56.35 312.137h30v30h-30z"/><path d="m440.543 10.803h30v30h-30z"/><path d="m470.543 182.914h30v30h-30z"/><path d="m7.017 255.803h30v30h-30z"/><path d="m51.016 45.802h30v30h-30z"/><path d="m424.311 385.913h-27.692c-2.799 0-5.563.145-8.296.402-.699-15.259-6.861-30.312-18.488-41.939l-.297-.297c-11.7-11.7-12.901-29.976-3.617-43.036 1.528 2.24 3.275 4.334 5.25 6.256 6.133 5.966 17.479 13.078 36.711 13.078 27.812 0 64.769-27.76 71.896-33.324l15.14-11.822-15.141-11.822c-7.126-5.564-44.083-33.323-71.895-33.323-8.958 0-16.187 1.552-21.993 3.804-2.874-9.96-8.219-19.352-16.054-27.186l-.297-.297c-13.048-13.048-13.048-34.278 0-47.326l.297-.297c4.931-4.931 8.863-10.484 11.828-16.402 6.393 3.226 14.942 5.678 26.219 5.678 27.812 0 64.769-27.76 71.896-33.324l15.14-11.822-15.141-11.822c-7.126-5.564-44.083-33.323-71.895-33.323-19.028 0-30.328 6.961-36.505 12.886-.508-.544-1.011-1.091-1.542-1.622l-.297-.297c-6.32-6.321-9.802-14.725-9.802-23.663s3.481-17.342 9.802-23.663l-21.214-21.213c-24.745 24.744-24.745 65.007 0 89.752l.297.297c13.048 13.048 13.048 34.278 0 47.326l-.297.297c-2.609 2.609-4.946 5.414-7.033 8.367-6.68-4.496-16.644-8.468-31.014-8.468-27.813 0-64.769 27.759-71.896 33.323l-15.14 11.822 15.14 11.822c7.126 5.564 44.083 33.324 71.896 33.324 14.487 0 24.496-4.036 31.176-8.578 2.046 2.869 4.329 5.597 6.871 8.138l.297.297c13.048 13.048 13.048 34.278 0 47.326l-.297.297c-11.987 11.987-18.589 27.924-18.589 44.876s6.602 32.89 18.589 44.876l.297.297c7.971 7.971 11.065 18.994 9.293 29.341-.803.397-1.593.816-2.382 1.237-19.851-22.874-49.123-37.363-81.716-37.363h-35.633c-21.109 0-40.821 6.083-57.487 16.58-2.526-11.37-8.191-22.177-17.021-31.006l-.297-.297c-11.678-11.678-12.895-29.906-3.67-42.96 1.516 2.211 3.244 4.28 5.197 6.181 6.132 5.966 17.479 13.078 36.711 13.078 27.812 0 64.769-27.76 71.895-33.324l15.14-11.822-15.14-11.822c-7.127-5.564-44.083-33.323-71.895-33.323-8.909 0-16.107 1.535-21.898 3.767-2.876-9.946-8.219-19.324-16.044-27.149l-.297-.297c-13.048-13.048-13.048-34.278 0-47.326l.297-.297c4.919-4.919 8.844-10.457 11.807-16.359 6.384 3.205 14.908 5.634 26.135 5.634 27.812 0 64.769-27.76 71.895-33.324l15.14-11.822-15.14-11.822c-7.127-5.564-44.083-33.323-71.895-33.323-18.972 0-30.261 6.92-36.449 12.834-.492-.526-.979-1.056-1.492-1.57l-.297-.297c-6.32-6.321-9.802-14.725-9.802-23.663s3.481-17.342 9.802-23.663l-21.212-21.214c-24.745 24.744-24.745 65.007 0 89.752l.297.297c13.048 13.048 13.048 34.278 0 47.326l-.297.297c-2.623 2.623-4.971 5.444-7.066 8.414-6.68-4.516-16.667-8.515-31.088-8.515-27.812 0-64.768 27.759-71.895 33.323l-15.14 11.822 15.14 11.822c7.126 5.564 44.083 33.324 71.895 33.324 14.54 0 24.567-4.066 31.247-8.628 2.055 2.887 4.35 5.632 6.906 8.189l.297.297c13.048 13.048 13.048 34.278 0 47.326l-.297.297c-11.987 11.987-18.589 27.924-18.589 44.876s6.602 32.89 18.589 44.876l.297.297c7.709 7.709 10.854 18.273 9.451 28.319-11.129-5.123-23.499-7.996-36.532-7.996h-27.692c-48.352.001-87.689 39.338-87.689 87.69 0 21.064 17.137 38.201 38.201 38.201h435.598c21.064 0 38.201-17.137 38.201-38.201 0-48.352-39.337-87.689-87.689-87.689zm-16.43-125.827c8.704 0 23.31 7.1 36.323 15.155-12.991 8.047-27.585 15.137-36.323 15.137-19.458 0-19.458-11.004-19.458-15.146s0-15.146 19.458-15.146zm0-172.318c8.704 0 23.31 7.1 36.323 15.155-12.991 8.047-27.585 15.137-36.323 15.137-19.458 0-19.458-11.004-19.458-15.146s0-15.146 19.458-15.146zm-97.604 110.292c-8.704 0-23.311-7.1-36.323-15.155 12.991-8.048 27.585-15.137 36.323-15.137 19.458 0 19.458 11.003 19.458 15.146s0 15.146-19.458 15.146zm-72.093 190.743h35.633c43.11 0 78.184 35.073 78.184 78.184 0 8.17-6.646 14.816-14.816 14.816h-162.369c-8.17 0-14.816-6.646-14.816-14.816 0-43.111 35.073-78.184 78.184-78.184zm-36.567-128.717c8.701 0 23.299 7.094 36.308 15.146-13.009 8.052-27.606 15.146-36.308 15.146-19.459 0-19.459-11.004-19.459-15.146s0-15.146 19.459-15.146zm0-172.318c8.701 0 23.299 7.094 36.308 15.146-13.009 8.052-27.606 15.146-36.308 15.146-19.459 0-19.459-11.004-19.459-15.146s0-15.146 19.459-15.146zm-97.604 110.292c-8.701 0-23.299-7.095-36.308-15.146 13.009-8.052 27.606-15.146 36.308-15.146 19.459 0 19.459 11.003 19.459 15.146s0 15.146-19.459 15.146zm-74.013 275.542c0-31.811 25.879-57.689 57.689-57.689h27.692c8.826 0 17.189 2 24.672 5.562-6.445 13.842-10.053 29.262-10.053 45.512 0 5.192.897 10.175 2.528 14.816h-94.327c-4.522 0-8.201-3.678-8.201-8.201zm443.799 8.201h-94.327c1.631-4.641 2.528-9.625 2.528-14.816 0-16.249-3.608-31.67-10.054-45.513 7.484-3.561 15.847-5.562 24.672-5.562h27.692c31.811 0 57.689 25.879 57.689 57.689.001 4.524-3.678 8.202-8.2 8.202z"/></g></svg>