<svg id="Capa_1" enable-background="new 0 0 508 508" height="512" viewBox="0 0 508 508" width="512" xmlns="http://www.w3.org/2000/svg"><g id="XMLID_759_"><path id="XMLID_1198_" d="m199.77 0h-161.068v66.853h-35.66v374.295h35.66v66.852h161.068v-66.853h35.66v-374.294h-35.66zm-131.068 30h101.068v36.853h-101.068zm-35.66 211.933 148.341 37.672h-148.341zm0 67.671h172.388v34.761h-172.388zm56.429-84.292h115.959v29.448zm115.959-30h-172.388v-33.733h172.388zm-35.66 282.688h-101.068v-36.853h101.068zm-136.728-66.853v-36.782h172.388v36.782zm172.388-314.294v34.726h-172.388v-34.726z"/><path id="XMLID_1217_" d="m504.958 66.853h-35.66v-66.853h-161.068v66.853h-35.66v374.295h35.66v66.852h161.067v-66.853h35.66v-374.294zm-30 128.459h-172.388v-33.733h172.388zm0 30v34.293h-172.388v-34.293zm-34.134 64.292-138.254 35.11v-35.11zm34.134 22.284v32.478h-127.887zm-136.728-281.888h101.067v36.853h-101.067zm136.728 66.853v34.726h-172.388v-34.726zm-35.66 381.147h-101.068v-36.853h101.067v36.853zm-136.728-66.853v-36.782h172.388v36.782z"/></g></svg>