<svg id="Capa_1" enable-background="new 0 0 512 512" height="512" viewBox="0 0 512 512" width="512" xmlns="http://www.w3.org/2000/svg"><g id="XMLID_67_"><path id="XMLID_319_" d="m253.358 161.447c-73.987 0-134.18 60.192-134.18 134.18s60.193 134.18 134.18 134.18c68.916 0 125.854-52.227 133.337-119.18h28.77v-30h-28.77c-7.483-66.952-64.421-119.18-133.337-119.18zm0 238.36c-57.445 0-104.18-46.734-104.18-104.18s46.735-104.18 104.18-104.18 104.18 46.734 104.18 104.18-46.735 104.18-104.18 104.18z"/><path id="XMLID_356_" d="m253.358 221.213c-41.032 0-74.414 33.382-74.414 74.414s33.382 74.414 74.414 74.414 74.414-33.382 74.414-74.414-33.382-74.414-74.414-74.414zm0 118.828c-24.49 0-44.414-19.924-44.414-44.414s19.924-44.414 44.414-44.414 44.414 19.924 44.414 44.414-19.924 44.414-44.414 44.414z"/><path id="XMLID_359_" d="m34.49 0v512h443.02v-512zm413.02 30v53.525h-53.525v-53.525zm-83.526 0v53.525h-53.525v-53.525zm-299.494 0h215.969v53.525h-215.969zm383.02 452h-383.02v-368.475h383.02z"/><path id="XMLID_390_" d="m101.975 140.1h32.203v30h-32.203z"/></g></svg>