<svg id="Capa_1" enable-background="new 0 0 512 512" height="512" viewBox="0 0 512 512" width="512" xmlns="http://www.w3.org/2000/svg"><g><path d="m451.004 195c0-107.523-87.477-195-195-195s-195 87.477-195 195 87.477 195 195 195 195-87.477 195-195zm-195 165c-90.981 0-165-74.019-165-165s74.019-165 165-165 165 74.019 165 165-74.018 165-165 165z"/><path d="m151.004 270h30v15c0 24.813 20.187 45 45 45s45-20.187 45-45v-15h90v-30h-210zm90 15c0 8.271-6.729 15-15 15s-15-6.729-15-15v-15h30z"/><path d="m343.485 128.32-24.961-16.64-45.547 68.32h88.027v-30h-31.973z"/><path d="m193.485 111.68-24.961 16.64 14.453 21.68h-31.973v30h88.027z"/><path d="m450.409 421.916c-19.967-20.582-46.391-31.916-74.405-31.916h-120-120c-28.014 0-54.438 11.334-74.405 31.916-37.638 38.793-29.523 83.205-30.595 90.084h450c-1.07-6.873 6.985-51.352-30.595-90.084zm-387.909 60.084c7.018-34.851 37.832-62 73.504-62h240c35.672 0 66.486 27.149 73.504 62z"/></g></svg>