<svg id="Capa_1" enable-background="new 0 0 511.706 511.706" height="512" viewBox="0 0 511.706 511.706" width="512" xmlns="http://www.w3.org/2000/svg"><g><path d="m492.477 257.638c-21.989-21.989-55.795-25.101-81.15-9.372l-63.337-63.336 56.059-56.059c10.309 6.423 22.221 9.874 34.669 9.874 17.564 0 34.077-6.84 46.496-19.26 12.42-12.42 19.259-28.933 19.259-46.496s-6.839-34.076-19.259-46.496c-12.419-12.42-28.932-19.26-46.496-19.26s-34.077 6.84-46.496 19.26c-21.989 21.988-25.1 55.796-9.372 81.151l-56.073 56.073-63.323-63.323c6.423-10.309 9.874-22.221 9.874-34.669 0-17.563-6.839-34.076-19.259-46.496-25.638-25.639-67.354-25.639-92.992 0-25.638 25.638-25.638 67.354 0 92.992 12.819 12.819 29.657 19.229 46.496 19.229 12.045 0 24.081-3.298 34.655-9.857l13.775 13.775-232.429 232.427 49.562 49.562-73.136 73.136 21.213 21.213 73.136-73.136 49.562 49.562 232.428-232.427 13.761 13.761c-6.423 10.309-9.874 22.221-9.874 34.669 0 17.563 6.839 34.076 19.259 46.496 12.819 12.819 29.657 19.229 46.496 19.229 16.838 0 33.677-6.409 46.496-19.229 25.638-25.638 25.638-67.355 0-92.993zm-79.042-209.932c6.753-6.753 15.732-10.473 25.282-10.473 9.551 0 18.53 3.72 25.283 10.473 13.941 13.941 13.941 36.625 0 50.566-6.753 6.753-15.732 10.473-25.283 10.473-9.55 0-18.529-3.72-25.283-10.473-13.94-13.941-13.94-36.625.001-50.566zm-231.146 43.302c-13.941-13.941-13.941-36.625 0-50.566 6.971-6.971 16.127-10.456 25.283-10.456s18.312 3.485 25.283 10.456c13.941 13.941 13.941 36.625 0 50.566-13.941 13.943-36.625 13.942-50.566 0zm-38.378 354.698-77.91-77.91 33.475-33.476 36.391 36.392 21.213-21.213-36.392-36.392 33.476-33.476 36.391 36.391 21.213-21.213-36.391-36.391 33.476-33.476 36.392 36.392 21.213-21.213-36.392-36.392 47.148-47.148 77.911 77.911zm327.353-116.289c-13.941 13.94-36.624 13.942-50.566 0-13.941-13.941-13.941-36.625 0-50.566 6.971-6.971 16.127-10.456 25.283-10.456s18.312 3.485 25.283 10.456c13.941 13.941 13.941 36.625 0 50.566z"/></g></svg>