<svg id="Capa_1" enable-background="new 0 0 512 512" height="512" viewBox="0 0 512 512" width="512" xmlns="http://www.w3.org/2000/svg"><g><path d="m0 81.221v349.559h512v-349.559zm482 80.779h-42v-50.779h42zm-410 109v49h-42v-49zm-42-30v-49h42v49zm226 107.999c-23.84 0-45.609-9.02-62.085-23.822 27.208-11.196 46.418-37.979 46.418-69.177s-19.211-57.981-46.418-69.177c16.476-14.802 38.246-23.822 62.085-23.822 24.107 0 46.099 9.221 62.639 24.319-27.124 11.022-46.306 37.646-46.306 68.68s19.182 57.657 46.306 68.68c-16.54 15.098-38.532 24.319-62.639 24.319zm-81.935-49.041c-7.055-13.097-11.064-28.068-11.064-43.958s4.009-30.861 11.064-43.958c20.634 3.988 36.268 22.177 36.268 43.958s-15.634 39.97-36.268 43.958zm-40.148-58.958h-31.917v-49h49.001c-8.94 14.613-14.913 31.227-17.084 49zm0 30c2.171 17.773 8.144 34.387 17.084 49h-49.001v-49zm204.345-58.34c6.85 12.95 10.737 27.698 10.737 43.34s-3.887 30.39-10.737 43.34c-20.425-3.85-35.929-21.813-35.929-43.34s15.503-39.49 35.929-43.34zm39.821 58.34h31.917v49h-49.001c8.94-14.613 14.913-31.227 17.084-49zm0-30c-2.171-17.773-8.144-34.387-17.084-49h49.001v49zm-52.583-86.425c-15.888-10.921-34.456-18.21-54.5-20.658v-22.696h54.5zm-84.5-20.658c-20.044 2.448-38.612 9.737-54.5 20.658v-43.355h54.5zm-84.5 28.083h-54.5v-50.779h54.5zm0 188v50.779h-54.5v-50.779zm30 7.425c15.888 10.921 34.456 18.21 54.5 20.658v22.696h-54.5zm84.5 20.658c20.044-2.448 38.612-9.737 54.5-20.658v43.355h-54.5zm84.5-28.083h54.5v50.779h-54.5zm0-188v-50.779h54.5v50.779zm84.5 109h42v49h-42zm0-30v-49h42v49zm-368-129.779v50.779h-42v-50.779zm-42 238.779h42v50.779h-42zm410 50.779v-50.779h42v50.779z"/></g></svg>