<?xml version="1.0" encoding="iso-8859-1"?>
<!-- Generator: Adobe Illustrator 19.0.0, SVG Export Plug-In . SVG Version: 6.00 Build 0)  -->
<svg xmlns="http://www.w3.org/2000/svg" xmlns:xlink="http://www.w3.org/1999/xlink" version="1.1" id="Layer_1" x="0px" y="0px" viewBox="0 0 512 512" style="enable-background:new 0 0 512 512;" xml:space="preserve">
<g>
	<g>
		<path d="M454.437,237.933l-22.46-95.787c-4.803-20.48-25.374-33.237-45.85-28.432l-38.539,9.036l-6.029-25.623L369.31,0H119.258    l27.75,97.126L56.551,481.575V512h375.467v-30.425l-44.42-188.786l38.408-9.005C446.485,278.981,459.24,258.412,454.437,237.933z     M324.058,34.133l-13.004,45.511H177.512l-13.004-45.511H324.058z M396.078,477.867H92.489l85.668-364.089h132.254    L396.078,477.867z M418.212,250.551l-38.433,9.011l-24.373-103.587l38.514-9.031c2.115-0.496,4.329,0.874,4.825,2.992    l22.46,95.787C421.702,247.844,420.331,250.054,418.212,250.551z"/>
	</g>
</g>
<g>
</g>
<g>
</g>
<g>
</g>
<g>
</g>
<g>
</g>
<g>
</g>
<g>
</g>
<g>
</g>
<g>
</g>
<g>
</g>
<g>
</g>
<g>
</g>
<g>
</g>
<g>
</g>
<g>
</g>
</svg>
