<svg id="Capa_1" enable-background="new 0 0 512 512" height="512" viewBox="0 0 512 512" width="512" xmlns="http://www.w3.org/2000/svg"><g><path d="m418.291 0h-65.343l-342.557 342.27 10.612 10.612c19.304 19.304 19.182 50.836-.273 70.29l-20.73 20.73v68.098h68.098l20.73-20.731c19.456-19.454 50.988-19.574 70.29-.273l10.612 10.612 342.27-342.556v-65.343zm-388.275 481.984v-25.649l6.724-6.724 25.649 25.649-6.724 6.724zm55.909-25.637-30.272-30.272c8.935-16.397 11.721-35.25 8.349-53.146l75.069 75.069c-17.896-3.372-36.75-.586-53.146 8.349zm95.281-8.662-116.89-116.89 209.959-209.959 24.672 24.671-58.591 58.591 68.365 68.365 58.591-58.591 23.853 23.853zm127.515-217.671-25.917-25.917 78.646-78.646 25.917 25.917zm173.263-83.367-69.612 69.836-23.836-23.836 41.28-41.28-68.365-68.365-41.28 41.28-24.654-24.655 69.836-69.611h40.505l76.126 76.125z"/></g></svg>