<?xml version="1.0" encoding="iso-8859-1"?>
<!-- Generator: Adobe Illustrator 19.0.0, SVG Export Plug-In . SVG Version: 6.00 Build 0)  -->
<svg xmlns="http://www.w3.org/2000/svg" xmlns:xlink="http://www.w3.org/1999/xlink" version="1.1" id="Layer_1" x="0px" y="0px" viewBox="0 0 511.999 511.999" style="enable-background:new 0 0 511.999 511.999;" xml:space="preserve">
<g>
	<g>
		<path d="M458.542,36.692C458.542,16.46,442.083,0,421.85,0H90.148C69.915,0,53.455,16.46,53.455,36.692v207.048h20.897v30.62    v30.001v117.015v30.001v60.621h363.294v-60.621v-30.001V304.361V274.36v-30.62h20.897V36.692H458.542z M407.644,481.999H104.353    v-30.619h303.291V481.999z M407.644,421.377H104.353V304.361h303.291V421.377z M407.644,274.36H104.353v-30.62h303.291V274.36z     M428.542,213.738H83.457V36.692c0-3.689,3.001-6.69,6.691-6.69h331.703c3.689,0,6.691,3.001,6.691,6.69V213.738z"/>
	</g>
</g>
<g>
	<g>
		<rect x="100.344" y="46.322" width="30.001" height="151.097"/>
	</g>
</g>
<g>
	<g>
		<rect x="147.226" y="46.322" width="30.001" height="151.097"/>
	</g>
</g>
<g>
	<g>
		<rect x="194.108" y="46.322" width="30.001" height="151.097"/>
	</g>
</g>
<g>
	<g>
		<rect x="241" y="46.322" width="30.001" height="151.097"/>
	</g>
</g>
<g>
	<g>
		<rect x="287.882" y="46.322" width="30.001" height="151.097"/>
	</g>
</g>
<g>
	<g>
		<rect x="334.765" y="46.322" width="30.001" height="151.097"/>
	</g>
</g>
<g>
	<g>
		<rect x="381.657" y="46.322" width="30.001" height="151.097"/>
	</g>
</g>
<g>
	<g>
		<rect x="138.995" y="322.845" width="234.011" height="30.001"/>
	</g>
</g>
<g>
	<g>
		<rect x="138.995" y="372.887" width="234.011" height="30.001"/>
	</g>
</g>
<g>
</g>
<g>
</g>
<g>
</g>
<g>
</g>
<g>
</g>
<g>
</g>
<g>
</g>
<g>
</g>
<g>
</g>
<g>
</g>
<g>
</g>
<g>
</g>
<g>
</g>
<g>
</g>
<g>
</g>
</svg>
