<svg id="Capa_1" enable-background="new 0 0 512 512" height="512" viewBox="0 0 512 512" width="512" xmlns="http://www.w3.org/2000/svg"><g><path d="m394.127 335.325h-82.299v-35.581c11.028-5.381 21.296-12.42 30.452-20.992 20.02-18.743 33.123-43.235 37.618-69.938 18.39-5.684 31.788-22.846 31.788-43.087 0-19.591-12.561-36.302-30.053-42.502-.555-68.04-56.078-123.225-124.247-123.225-68.173 0-123.698 55.194-124.245 123.24-17.362 6.189-29.821 22.795-29.821 42.255v.474c0 20.101 13.296 37.156 31.553 42.833 4.494 26.707 17.597 51.204 37.621 69.95 8.384 7.849 17.701 14.411 27.68 19.594v36.979h-82.3c-64.658 0-117.261 52.603-117.261 117.26v59.415h510.776v-59.414c-.001-64.657-52.604-117.261-117.262-117.261zm-136.741-305.273c42.273 0 78.13 27.991 90.014 66.412h-57.474c-8.333 0-15.178-6.44-15.849-14.603.012-.437.033-.872.033-1.312h-.1-29.952-.1c0 .44.021.875.033 1.312-.671 8.163-7.516 14.603-15.849 14.603h-60.77c11.885-38.42 47.741-66.412 90.014-66.412zm-93.957 164.683-.981-13.974h-14.286c-8.156 0-14.791-6.636-14.791-14.791v-.474c0-8.156 6.636-14.79 14.791-14.79h15.026v-24.188h64.954c11.881 0 22.724-4.531 30.892-11.956 8.167 7.425 19.01 11.956 30.892 11.956h61.658v24.188h15.026c8.284 0 15.023 6.739 15.023 15.033 0 8.284-6.739 15.023-15.023 15.023h-14.287l-.981 13.974c-3.443 49.061-44.714 87.492-93.957 87.492-49.242-.001-90.513-38.432-93.956-87.493zm93.957 117.545c8.266 0 16.427-.82 24.389-2.405v55.503h21.692c-3.917 22.684-23.723 39.998-47.509 39.998s-43.591-17.314-47.509-39.998h21.776v-56.088c8.835 1.97 17.933 2.99 27.161 2.99zm223.95 169.668h-56.467v-36.009h-30.052v36.009h-277.636v-36.009h-30.052v36.009h-56.465v-29.362c0-48.086 39.122-87.208 87.209-87.208h60.242c4.125 39.31 37.459 70.051 77.843 70.051 40.383 0 73.717-30.741 77.842-70.051h60.326c48.087 0 87.209 39.122 87.209 87.208v29.362z"/><path d="m256.652 209.23h30.054v30.052h-30.054z"/><path d="m286.706 179.176h30.054v30.052h-30.054z"/></g></svg>