<svg id="Capa_1" enable-background="new 0 0 512 512" height="512" viewBox="0 0 512 512" width="512" xmlns="http://www.w3.org/2000/svg"><g><path d="m30.125 512h90.25v-120.375h-90.25zm30-90.375h30.25v60.375h-30.25z"/><path d="m150.625 512h90.25v-210.75h-90.25zm30-180.75h30.25v150.75h-30.25z"/><path d="m391.625 120.5v130.413l-125.453-250.913h-20.344l-127.658 255.323 9.706 15.686h143.249v240.991h90.25v-240.991h22.749l7.501-12.122v253.113h90.25v-391.5zm-135.625-73.761 97.133 194.27h-194.266zm75.375 435.261h-30.25v-210.991h30.25zm120.5 0h-30.25v-331.5h30.25z"/><path d="m241 186.192h30v30h-30z"/><path d="m241 108.817h30v58.25h-30z"/></g></svg>