<svg id="Capa_1" enable-background="new 0 0 512 512" height="512" viewBox="0 0 512 512" width="512" xmlns="http://www.w3.org/2000/svg"><g><path d="m361 151h-210v210h210c0-13.291 0-202.5 0-210zm-180 30h150v45c0 8.271-6.729 15-15 15s-15-6.729-15-15v-15h-30v15c0 8.271-6.729 15-15 15s-15-6.729-15-15v-15h-30v15c0 8.271-6.729 15-15 15s-15-6.729-15-15c0-14.095 0-30.95 0-45zm90 150v-30h-30v30h-60v-62.58c4.695 1.665 9.741 2.58 15 2.58 11.517 0 22.032-4.354 30-11.495 7.968 7.141 18.483 11.495 30 11.495s22.032-4.354 30-11.495c7.968 7.141 18.483 11.495 30 11.495 5.259 0 10.305-.915 15-2.58v62.58z"/><path d="m91 0v512h330v-512zm300 30v391h-270v-391zm-270 452v-31h270v31z"/><path d="m241 61h30v30h-30z"/></g></svg>