<svg id="Capa_1" enable-background="new 0 0 510 510" height="512" viewBox="0 0 510 510" width="512" xmlns="http://www.w3.org/2000/svg"><g><path d="m465 90v-11.5c0-43.285-35.215-78.5-78.5-78.5h-266.5c-33.084 0-60 26.916-60 60v30h-60v30h60v240h90v150h315c0-58.976 0-344.274 0-390h45v-30zm-375-30c0-16.542 13.458-30 30-30s30 13.458 30 30v30h-60zm0 60h60v75h-60zm60 135h-60v-30h60zm-60 75v-45h60v45zm90 60h255v30h-255zm255 90h-255v-30h255zm-255-120c0-14.052 0-289.566 0-300 0-10.925-2.949-21.168-8.072-30h214.572c26.743 0 48.5 21.757 48.5 48.5v281.5z"/></g></svg>