<svg id="Capa_1" enable-background="new 0 0 512 512" height="512" viewBox="0 0 512 512" width="512" xmlns="http://www.w3.org/2000/svg"><path d="m256 0c-140.884 0-256 115.956-256 257 0 140.607 114.841 255 256 255s256-114.393 256-255c0-140.875-114.956-257-256-257zm222.633 217.891c-28.916-22.901-65.163-35.891-102.633-35.891-55.833 0-87.663 21.757-112.679 45.927-7.316-29.48-8.709-58.522 13.707-97.35 20.734-35.912 57.389-60.518 98.394-66.21 53.439 33.545 91.987 88.876 103.211 153.524zm-144-173.709c-34.799 13.484-64.634 38.573-83.585 71.396-27.915 48.349-24.996 86.796-16.573 120.544-29.185-8.404-55.031-21.72-77.447-60.544-20.757-35.952-23.722-80.057-8.089-118.445 31.885-17.3 68.35-27.133 107.061-27.133 27.64 0 54.132 5.019 78.633 14.182zm-223.717 38.916c-5.554 36.693 1.286 74.836 20.132 107.479 27.914 48.348 62.669 65.044 96.106 74.624-21.87 21.073-46.324 36.799-91.154 36.799-41.126 0-80.455-19.117-105.909-51.297 1.832-67.199 32.886-127.189 80.825-167.605zm-77.482 213.064c28.905 22.869 65.125 35.838 102.566 35.838 55.833 0 87.663-21.757 112.679-45.927 7.316 29.48 8.709 58.522-13.707 97.35-20.361 35.265-56.072 59.632-96.181 65.889-54.48-33.033-93.887-88.357-105.357-153.15zm146.419 172.683c33.734-13.701 62.6-38.382 81.099-70.422 27.915-48.349 24.996-86.796 16.573-120.544 29.185 8.404 55.031 21.72 77.447 60.544 20.353 35.254 23.605 78.348 8.985 116.203-32.097 17.447-68.884 27.374-107.957 27.374-26.708 0-52.343-4.649-76.147-13.155zm221.502-39.703c5.074-36.15-1.858-73.598-20.403-105.719-27.914-48.348-62.669-65.044-96.106-74.624 21.87-21.073 46.324-36.799 91.154-36.799 41.125 0 80.453 19.116 105.907 51.294-1.843 66.46-32.781 125.801-80.552 165.848z"/></svg>