<svg id="Capa_1" enable-background="new 0 0 512 512" height="512" viewBox="0 0 512 512" width="512" xmlns="http://www.w3.org/2000/svg"><g><path d="m218.5 295.637c-16.542 0-30 13.457-30 29.999v70.001h20v-40h20v40h20v-70.001c0-16.542-13.458-29.999-30-29.999zm-10 40v-10.001c0-5.514 4.486-9.999 10-9.999s10 4.485 10 9.999v10.001z"/><path d="m293.5 295.637c-16.542 0-30 13.457-30 29.999v70.001h20v-40h20v40h20v-70.001c0-16.542-13.458-29.999-30-29.999zm-10 40v-10.001c0-5.514 4.486-9.999 10-9.999s10 4.485 10 9.999v10.001z"/><path d="m149.688 336.885c-9.826-3.625-18.975-7.572-21.783-8.802-2.177-1.75-2.104-4.188-1.958-5.205.203-1.412 1.229-4.863 6.363-6.41 11.383-3.429 21.917 5.011 22.022 5.096l6.377-7.703 6.435-7.655c-.756-.634-18.747-15.47-40.603-8.888-11.044 3.327-18.857 12.032-20.392 22.719-1.439 10.026 2.907 19.671 11.343 25.17l.663.433.724.323c.463.206 11.48 5.11 23.887 9.687 3.508 1.294 11.551 4.945 10.489 10.892-.798 4.472-6.244 9.097-13.975 9.097-7.951 0-15.603-3.205-20.468-8.574l-14.82 13.43c8.593 9.483 21.784 15.145 35.288 15.145 16.859 0 31.017-10.759 33.663-25.581 1.993-11.158-3.071-25.729-23.255-33.174z"/><path d="m381.934 336.885c-9.827-3.625-18.976-7.572-21.783-8.802-2.177-1.75-2.104-4.188-1.958-5.205.202-1.412 1.229-4.863 6.362-6.41 11.383-3.43 21.916 5.009 22.022 5.095l6.376-7.701 6.436-7.656c-.755-.634-18.744-15.469-40.603-8.888-11.044 3.327-18.857 12.033-20.391 22.72-1.439 10.025 2.907 19.67 11.343 25.169l.663.433.724.323c.463.206 11.479 5.11 23.887 9.687 3.508 1.294 11.551 4.945 10.489 10.892-.799 4.472-6.244 9.097-13.976 9.097-7.951 0-15.603-3.205-20.468-8.574l-14.82 13.43c8.593 9.483 21.784 15.145 35.288 15.145 16.859 0 31.018-10.759 33.664-25.581 1.992-11.158-3.072-25.729-23.255-33.174z"/><path d="m512 257.527c0-20.882-7.777-40.844-21.899-56.209-11.323-12.32-25.927-20.838-41.962-24.641-4.462-20.079-15.041-38.373-30.476-52.39-18.47-16.774-42.392-26.012-67.358-26.012-2.438 0-4.897.093-7.364.278-20.932-26.58-52.78-42.191-86.94-42.191s-66.009 15.611-86.94 42.191c-2.467-.186-4.927-.278-7.364-.278-24.967 0-48.889 9.237-67.358 26.012-15.435 14.017-26.014 32.311-30.476 52.39-16.035 3.803-30.639 12.32-41.962 24.641-14.124 15.366-21.901 35.328-21.901 56.209 0 26.515 12.594 51.129 33.504 66.684-1.374 6.933-2.101 14.095-2.101 21.425 0 60.654 49.346 110 109.999 110h229.197c60.653 0 109.999-49.347 109.999-110.001 0-7.33-.727-14.492-2.101-21.424 20.909-15.554 33.503-40.169 33.503-66.684zm-141.401 168.11h-229.198c-44.111 0-79.999-35.889-79.999-80.001 0-44.111 35.888-79.999 79.999-79.999h229.197c44.111 0 79.999 35.888 79.999 80s-35.887 80-79.998 80zm97.027-131.777c-18.548-34.62-55.081-58.224-97.027-58.224h-229.198c-41.946 0-78.479 23.604-97.027 58.224-9.096-9.701-14.374-22.619-14.374-36.333 0-13.342 4.968-26.094 13.987-35.908 8.969-9.759 21.144-15.784 34.28-16.968l12.315-1.109 1.261-12.301c3.678-35.896 33.707-62.965 69.852-62.965 3.883 0 7.864.342 11.834 1.015l9.65 1.636 5.384-8.173c15.01-22.787 40.22-36.391 67.437-36.391s52.427 13.604 67.437 36.391l5.384 8.173 9.65-1.636c3.97-.673 7.951-1.015 11.834-1.015 36.145 0 66.174 27.069 69.852 62.965l1.261 12.301 12.315 1.109c13.137 1.184 25.312 7.209 34.28 16.968 9.02 9.814 13.987 22.566 13.987 35.908 0 13.714-5.278 26.632-14.374 36.333z"/></g></svg>