<svg id="Capa_1" enable-background="new 0 0 512.025 512.025" height="512" viewBox="0 0 512.025 512.025" width="512" xmlns="http://www.w3.org/2000/svg"><g><path d="m46.991 259.025c.109.103 267.426 252.866 267.567 253-21.851-54.813-21.237-52.589-100.965-253.393l62.225-62.225-90-120 51.115-51.116-18.528-9.333c-21.022-10.589-43.697-15.958-67.392-15.958-83.262 0-151 67.29-151 150 0 41.673 16.685 80.394 46.978 109.025zm104.022-229.025c11.668 0 23.021 1.624 33.942 4.844l-38.748 38.748 90 120-57.774 57.775s32.578 82.078 57.737 145.278c-71.826-67.916-168.565-159.415-168.567-159.418-24.24-22.911-37.59-53.888-37.59-87.227 0-66.168 54.28-120 121-120z"/><path d="m367.983 0c-.015 0-.033 0-.048 0-53.211.021-97.556 34.656-121.664 95.022l-3.124 7.823 72.278 96.372-66.589 66.589 56.991 143.813 159.203-150.59c30.297-28.635 46.982-67.356 46.982-109.029.001-84.333-71.203-150-144.029-150zm76.436 237.23-127.023 120.151-33.407-84.301 71.048-71.048-77.655-103.541c19.927-44.235 51.851-68.475 90.565-68.491h.037c56.519 0 114.028 52.497 114.028 120 .001 33.338-13.349 64.316-37.593 87.23z"/></g></svg>