<svg id="Capa_1" enable-background="new 0 0 512.209 512.209" height="512" viewBox="0 0 512.209 512.209" width="512" xmlns="http://www.w3.org/2000/svg"><g><path d="m255.916 187.394 86.417-83.438c11.812-11.271 18.583-27.09 18.583-43.413 0-33.084-26.916-60-60-60-17.901 0-33.997 7.881-45 20.354-11.003-12.474-27.099-20.354-45-20.354-33.084 0-60 26.916-60 60 0 16.322 6.772 32.142 18.584 43.413zm-45-156.851c16.542 0 30 13.458 30 30h30c0-16.542 13.458-30 30-30s30 13.458 30 30c0 8.292-3.308 16.008-9.314 21.729l-65.686 63.42-65.61-63.35-.074-.071c-6.007-5.722-9.315-13.438-9.315-21.729-.001-16.541 13.457-29.999 29.999-29.999z"/><path d="m382.351 235.199-.188-.154c-18.607-15.077-42.068-23.379-66.059-23.379-21.595 0-42.481 6.613-60 18.824-17.519-12.211-38.405-18.824-60-18.824-23.99 0-47.451 8.303-66.059 23.379l-130.045 108.891c20.022 28.87 43.084 57.7 78.466 88.97 49.941 44.138 111.277 78.76 177.639 78.76 66.384 0 127.722-34.643 177.639-78.76 34.755-30.716 57.888-59.298 78.466-88.97zm-126.247 246.467c-63.562 0-120.603-38.495-157.262-70.789-27.238-23.995-47.633-48.272-58.226-61.823l108.406-90.773c13.458-10.87 29.735-16.614 47.081-16.614 18.483 0 36.239 6.781 49.996 19.094l10.004 8.954 10.004-8.954c13.757-12.313 31.513-19.094 49.996-19.094 17.346 0 33.623 5.744 47.081 16.614l108.399 90.768c-26.22 33.494-112.534 132.617-215.479 132.617z"/><path d="m256.104 301.666c-17.03 0-33.546 3.238-46.505 9.118-51.528 23.379-84.831 20.447-88.495 20.882h-30v30h90c33.084 0 60 26.916 60 60h30c0-33.084 26.916-60 60-60h90v-30c-23.164-1.808-56.631 7.186-118.495-20.882-12.959-5.88-29.474-9.118-46.505-9.118zm0 70.309c-9.293-13.98-22.384-25.227-37.792-32.251 1.227-.538 2.452-1.063 3.681-1.621 9.149-4.151 21.264-6.437 34.11-6.437s24.961 2.286 34.11 6.437c1.229.558 2.455 1.083 3.681 1.621-15.406 7.024-28.496 18.271-37.79 32.251z"/></g></svg>