<svg id="Capa_1" enable-background="new 0 0 512 512" height="512" viewBox="0 0 512 512" width="512" xmlns="http://www.w3.org/2000/svg"><path d="m309.873 241.002 8.914-8.916v-12.426l-23.906-23.906 23.906-23.906v-42.556l-60.25-60.255v-69.037h-150.5v69.037l-60.25 60.255v42.556l23.908 23.908-23.908 23.914v12.426l23.909 23.909-23.909 23.915v12.426l23.908 23.908-23.908 23.914v12.426l23.907 23.906-23.907 23.907v111.593h389.326l27.101-270.998zm121.19 30-3.208 32.08c-11.765 2.658-16.497 9.698-30.394 9.757-19.165-.804-21.736-11.94-46.227-11.587-24.555-.408-26.234 10.494-46.221 11.587-13.205.052-17.1-6.317-30.389-9.757l-3.207-32.079zm-163.607-60.247 15.123 15.123-15.124 15.124h-168.336l-15.124-15.124 15.123-15.123zm-26.187 60.248 3.024 30.247h-145.175l-15.123-15.123 15.124-15.124zm6.023 60.249 3.024 30.248h-151.196l-15.125-15.125 15.123-15.123zm-109.255-301.252h90.5v30.25h-90.5zm-60.25 111.718 51.463-51.468h108.072l51.464 51.468v17.704l-21.331 21.331h-168.337l-21.331-21.331zm0 340.282v-69.167l21.333-21.333h154.196l9.048 90.5zm214.727 0-14.513-145.154c6.126 2.948 13.988 5.993 27.013 5.993 24.555.408 26.234-10.494 46.221-11.587 19.166.804 21.735 11.94 46.227 11.587 13.027 0 20.89-3.045 27.017-5.993l-14.517 145.154z"/></svg>