<svg id="Capa_1" enable-background="new 0 0 512 512" height="512" viewBox="0 0 512 512" width="512" xmlns="http://www.w3.org/2000/svg"><g><path d="m345.986 337h-19.056c-6.093-5.502-9.641-13.344-9.641-21.688v-24.14c.749-.555 1.502-1.104 2.238-1.681.325.007.649.01.973.01 28.397 0 51.5-23.103 51.5-51.5 0-12.718-4.666-24.832-13-34.2v-203.801h-101.125c-57.828 0-104.875 47.047-104.875 104.875v103.543c0 33.854 16.419 63.942 41.71 82.728v24.166c0 8.345-3.548 16.187-9.641 21.688h-19.056c-88.224 0-160 71.775-160 160v15h499.973v-15c0-88.225-71.776-160-160-160zm-162.986-232.125c0-41.286 33.589-74.875 74.875-74.875h71.125v90.567c-6.512-.562-14.813-2.019-23.388-5.478-18.225-7.352-39.424-26.103-39.629-26.285l-6.954-6.2-76.029 30.67zm0 103.543v-62.795l70.277-28.351c9.093 7.288 25.364 19.285 41.111 25.639 12.854 5.186 25.213 7.116 34.612 7.72v57.787c0 .432-.009.861-.017 1.291l-.135 7.226 5.475 4.605c4.879 4.105 7.677 10.104 7.677 16.46 0 11.855-9.645 21.5-21.5 21.5-1.141 0-2.307-.095-3.465-.282l-7.062-1.143-5.332 4.77c-13.39 11.978-30.665 18.573-48.641 18.573-40.252 0-73-32.748-73-73zm73 103c10.722 0 21.26-1.684 31.29-4.881v8.774c0 13.019 4.253 25.443 11.846 35.558l-43.136 34.327-43.135-34.327c7.593-10.114 11.846-22.539 11.846-35.558v-8.758c9.872 3.155 20.384 4.865 31.289 4.865zm-219.126 170.582c7.458-64.646 62.529-115 129.14-115h18.943l71.043 56.536 71.044-56.536h18.943c66.611 0 121.682 50.354 129.14 115z"/><path d="m256 229c8.271 0 15 6.729 15 15h30c0-24.813-20.187-45-45-45s-45 20.187-45 45h30c0-8.271 6.729-15 15-15z"/><path d="m425.949 280.006h30v61.466h-30z" transform="matrix(.627 -.779 .779 .627 -77.545 459.596)"/><path d="m410.215 150.261h61.466v30h-61.466z" transform="matrix(.779 -.627 .627 .779 -6.229 312.839)"/><path d="m430.524 223h57.476v30h-57.476z"/></g></svg>