<svg id="Capa_1" enable-background="new 0 0 512 512" height="512" viewBox="0 0 512 512" width="512" xmlns="http://www.w3.org/2000/svg"><g><path d="m436 422h-10.458l-34.542-23.028v-323.972c0-41.355-33.645-75-75-75h-285v242h86.834c35.922 0 71.285-5.129 105.207-15.122 5.521 16.594 12.354 33.84 19.013 50.646 14.231 35.914 28.946 73.05 28.946 99.476-.795 7.428 3.131 20.657-8.034 31.821-1.994 2.76-21.966 16.909-21.966 45.753 0 31.665 25.762 57.426 57.427 57.426h137.573c24.813 0 45-20.187 45-45s-20.187-45-45-45zm-75-207.013v200.041l55.458 36.972h19.542c8.271 0 15 6.729 15 15s-6.729 15-15 15h-137.573c-15.123 0-27.427-12.303-27.427-27.426 0-15.01 10.834-21.477 13.18-24.541 21.559-21.558 15.956-46.933 16.82-53.033 0-32.153-15.788-71.997-31.056-110.528-6.522-16.461-13.218-33.357-18.492-49.23 25.432-9.792 49.858-22.421 72.868-37.761l-16.641-24.962c-13.126 8.751-26.759 16.527-40.793 23.34-46.287 22.427-97.036 34.141-149.052 34.141h-56.834v-60s28.859.005 29.871.014l.264-29.999c-1.1-.01-30.135-.015-30.135-.015v-92h255c24.813 0 45 20.187 45 45z"/><path d="m119.565 153.474c14.262 1.328 28.58 3.577 42.559 6.686l6.514-29.284c-15.205-3.382-30.779-5.829-46.291-7.273z"/><path d="m189.886 167.569c13.671 4.27 27.206 9.454 40.229 15.407l12.473-27.284c-14.166-6.476-28.889-12.114-43.757-16.759z"/></g></svg>