<svg id="Capa_1" enable-background="new 0 0 512 512" height="512" viewBox="0 0 512 512" width="512" xmlns="http://www.w3.org/2000/svg"><g><path d="m347.366 411.155-12.524-10.75-12.807-109.189c25.465-1.669 45.675-22.906 45.675-48.785 0-22.381-15.119-41.285-35.676-47.071 6.64-13.134 10.077-28.68 10.077-46.025 0-24.494-13.204-52.071-39.245-81.964-12.497-14.347-24.906-25.678-31.866-31.698v-35.673h-30v35.673c-6.96 6.021-19.369 17.351-31.866 31.696-26.042 29.894-39.246 57.47-39.246 81.964 0 17.346 3.437 32.891 10.077 46.025-20.557 5.786-35.676 24.689-35.676 47.071 0 25.879 20.21 47.116 45.675 48.785l-12.807 109.19-12.523 10.75c-17.447 14.976-27.453 36.752-27.453 59.745v41.101h237.637v-41.101c.001-22.992-10.005-44.768-27.452-59.744zm-2.547 70.845h-177.638v-11.101c0-14.232 6.194-27.711 16.993-36.981l11.166-9.585h121.32l11.166 9.585c10.799 9.27 16.993 22.749 16.993 36.981zm-151.625-220.667c-10.423 0-18.903-8.48-18.903-18.903s8.48-18.903 18.903-18.903h125.613c10.423 0 18.903 8.48 18.903 18.903s-8.48 18.903-18.903 18.903zm6.695-112c0-30.034 34.732-67.672 56.111-86.951 7.382 6.657 16.354 15.503 24.939 25.467l-46.212 46.212 21.213 21.213 43.104-43.104c7.746 12.517 13.067 25.42 13.067 37.164 0 18.899-5.375 33.937-15.227 44.193h-81.767c-9.853-10.257-15.228-25.295-15.228-44.194zm91.954 142 12.081 103h-95.848l12.081-103z"/></g></svg>