<?xml version="1.0" encoding="iso-8859-1"?>
<!-- Generator: Adobe Illustrator 19.0.0, SVG Export Plug-In . SVG Version: 6.00 Build 0)  -->
<svg xmlns="http://www.w3.org/2000/svg" xmlns:xlink="http://www.w3.org/1999/xlink" version="1.1" id="Layer_1" x="0px" y="0px" viewBox="0 0 512 512" style="enable-background:new 0 0 512 512;" xml:space="preserve">
<g>
	<g>
		<path d="M495.45,0.543C379.4,4.351,269.663,52.273,186.452,135.485C111.284,210.653,50.69,296.897,6.354,391.821L0,405.423    l70.715,35.862l35.862,70.715l13.602-6.354c94.925-44.337,181.168-104.931,256.336-180.097    c83.212-83.212,131.135-192.95,134.942-308.998L512,0.001L495.45,0.543z M40.923,391.402    c42.16-86.313,98.446-164.973,167.458-233.987c67.651-67.65,154.058-110.269,246.733-122.459L79.238,410.834L40.923,391.402z     M354.585,303.619c-69.012,69.011-147.672,125.297-233.987,167.457l-19.431-38.314L477.045,56.886    C464.855,149.562,422.235,235.969,354.585,303.619z"/>
	</g>
</g>
<g>
</g>
<g>
</g>
<g>
</g>
<g>
</g>
<g>
</g>
<g>
</g>
<g>
</g>
<g>
</g>
<g>
</g>
<g>
</g>
<g>
</g>
<g>
</g>
<g>
</g>
<g>
</g>
<g>
</g>
</svg>
