<svg id="Capa_1" enable-background="new 0 0 510 510" height="512" viewBox="0 0 510 510" width="512" xmlns="http://www.w3.org/2000/svg"><g><path d="m342.297 150-12-60h-30.297v-60h30v-30c-18.838 0-134.387 0-150 0v30h30v60h-30.297l-12 60h-167.703v360h510v-360zm-198.51 165h150l15 15-60 60h-137.574l-81.213-81.213v-107.574zm-60 90-53.787 53.787v-107.574zm27.426 15h150l68.787-68.787 53.787 53.787-75 75h-257.574zm300-30-60-60 128.787-128.787v188.787zm-171.213-360h30v60h-30zm-35.703 90h101.406l6 30h-113.406zm35.703 60v60h30v-60h188.787l-128.787 128.787-23.787-23.787h-150l-105-105zm111.213 300 60-60h68.787v60z"/></g></svg>