<svg id="Layer_1" enable-background="new 0 0 510 510" height="512" viewBox="0 0 510 510" width="512" xmlns="http://www.w3.org/2000/svg"><g><path d="m339.429 406.09-9.429 3.772v25.155h-225v-150h30v75h270v-60h45v-76.109c35.84-20.779 60-59.565 60-103.891 0-66.168-53.832-120-120-120s-120 53.832-120 120c0 44.325 24.16 83.111 60 103.891v76.109h45v30h-210v-45h75v-285h-240v285h75v180h255v25.155l9.429 3.772c26.731 10.693 53.651 16.039 80.571 16.039s53.84-5.346 80.571-16.039l9.429-3.772v-80.311l-9.429-3.771c-53.463-21.386-107.679-21.386-161.142 0zm-39.429-286.073c0-49.626 40.374-90 90-90s90 40.374 90 90-40.374 90-90 90-90-40.374-90-90zm60 116.203c9.592 2.478 19.645 3.797 30 3.797s20.408-1.319 30-3.797v33.797h-60zm-150-206.203v90h-180v-90zm-180 120h180v105h-180zm450 319.597c-40.281 13.99-79.719 13.99-120 0v-39.194c40.281-13.99 79.719-13.99 120 0z"/><path d="m345 105.017h90v30h-90z"/><path d="m150 195.017h30v30h-30z"/><path d="m60 195.017h30v30h-30z"/></g></svg>