<?xml version="1.0" encoding="iso-8859-1"?>
<!-- Generator: Adobe Illustrator 19.0.0, SVG Export Plug-In . SVG Version: 6.00 Build 0)  -->
<svg xmlns="http://www.w3.org/2000/svg" xmlns:xlink="http://www.w3.org/1999/xlink" version="1.1" id="Layer_1" x="0px" y="0px" viewBox="0 0 512 512" style="enable-background:new 0 0 512 512;" xml:space="preserve">
<g>
	<g>
		<path d="M477.201,226.676c-20.049-18.577-47.122-31.141-76.23-35.378c-42.294-6.156-52.091-42.777-57.356-62.451    c-0.641-2.396-1.194-4.464-1.763-6.281c-10.896-34.785-33.063-66.006-62.417-87.914C249.058,11.982,212.915,0,174.911,0    C78.465,0,0,78.465,0,174.911v195.66v30.417V512h512V400.989v-30.417V304.36C512,274.633,499.966,247.77,477.201,226.676z     M30.417,174.911c0-79.674,64.82-144.494,144.494-144.494c31.397,0,61.249,9.894,86.33,28.612    c24.266,18.109,42.584,43.903,51.583,72.63c0.377,1.205,0.854,2.986,1.406,5.049c5.535,20.689,20.24,75.646,82.359,84.689    c23.075,3.359,44.361,13.157,59.939,27.589c11.43,10.59,25.055,28.794,25.055,55.371v66.211H30.417V174.911z M481.585,481.583    h-0.002H30.417v-80.594h17.741v66.917h30.417v-66.917h17.741v66.917h30.417v-66.917h17.741v66.917h30.417v-66.917h17.741v66.917    h30.417v-66.917h17.741v66.917h30.417v-66.917h17.741v66.917h30.417v-66.917h17.741v66.917h30.417v-66.917h17.741v66.917h30.417    v-66.917h17.741v66.917h30.417v-66.917h17.741V481.583z"/>
	</g>
</g>
<g>
	<g>
		<path d="M252.145,71.219c-22.434-16.743-49.141-25.593-77.234-25.593v30.417c21.486,0,41.903,6.761,59.041,19.552    c16.633,12.414,29.181,30.065,35.334,49.704l29.026-9.093C290.262,110.51,273.866,87.429,252.145,71.219z"/>
	</g>
</g>
<g>
</g>
<g>
</g>
<g>
</g>
<g>
</g>
<g>
</g>
<g>
</g>
<g>
</g>
<g>
</g>
<g>
</g>
<g>
</g>
<g>
</g>
<g>
</g>
<g>
</g>
<g>
</g>
<g>
</g>
</svg>
