<svg id="Capa_1" enable-background="new 0 0 511.838 511.838" height="512" viewBox="0 0 511.838 511.838" width="512" xmlns="http://www.w3.org/2000/svg"><g><g><g><path d="m255.919 0c-68.827 0-142.833 15.5-204.261 50.022v388.37l58.624 73.446c43.473-15.211 99.135-26.438 145.637-26.438s102.164 11.226 145.638 26.437l58.624-75.584v-386.231c-60.595-35.022-135.435-50.022-204.262-50.022zm135.378 476.603c-43.603-14.073-89.09-21.202-135.378-21.202s-91.775 7.128-135.377 21.202l-35.683-44.705c53.772-24.712 111.284-37.241 171.06-37.241s117.288 12.529 171.061 37.241zm38.883-76.129c-15.651-6.762-31.585-12.572-47.771-17.429v-78.235h-30v70.398c-31.388-7.013-63.621-10.552-96.49-10.552-28.001 0-55.54 2.568-82.488 7.663v-15.057c0-31.981 10.65-63.622 29.988-89.094 23.277-30.658 36.097-68.741 36.097-107.234v-71.652h-30v71.652c0 31.981-10.65 63.622-29.99 89.094-23.276 30.659-36.095 68.742-36.095 107.234v21.841c-21.016 5.543-41.63 12.667-61.772 21.371v-331.756c15.614-7.342 31.55-13.645 47.772-18.91v62.502h30v-70.968c31.29-7.538 63.529-11.342 96.488-11.342 28.065 0 55.608 2.76 82.489 8.232v21.625c0 31.981-10.65 63.622-29.989 89.094-23.277 30.657-36.096 68.74-36.096 107.234v71.652h30v-71.652c0-31.982 10.65-63.622 29.988-89.094 23.277-30.658 36.097-68.741 36.097-107.234v-14.311c21.073 6.003 41.689 13.728 61.772 23.172z"/></g></g><path d="m352.409 224.128h30v50.682h-30z"/><path d="m129.43 142.31h30v50.683h-30z"/></g></svg>