<?xml version="1.0" encoding="iso-8859-1"?>
<!-- Generator: Adobe Illustrator 19.0.0, SVG Export Plug-In . SVG Version: 6.00 Build 0)  -->
<svg xmlns="http://www.w3.org/2000/svg" xmlns:xlink="http://www.w3.org/1999/xlink" version="1.1" id="Layer_1" x="0px" y="0px" viewBox="0 0 512 512" style="enable-background:new 0 0 512 512;" xml:space="preserve">
<g>
	<g>
		<path d="M512,241h-28.105c-1.879-7.787-4.165-15.555-6.951-23.054c-18.823-50.655-50.409-61.288-73.593-61.288    c-23.241,0-54.862,10.684-73.669,61.5c-0.026-0.071-0.051-0.142-0.077-0.212c-18.823-50.655-50.409-61.288-73.593-61.288    c-23.241,0-54.862,10.684-73.669,61.5c-0.026-0.071-0.051-0.142-0.077-0.212c-18.823-50.655-50.409-61.288-73.593-61.288    c-23.292,0-55.002,10.727-73.794,61.831c-2.696,7.332-4.921,14.912-6.755,22.511H0v30h22.681    c-1.535,11.929-2.302,23.087-2.654,32.452c-0.509,13.557,4.596,26.915,14.005,36.65c9.363,9.686,22.458,15.24,35.929,15.24h76.705    c13.039,0,25.38-4.994,34.749-14.061l0.583-0.564c9.316,9.298,22.125,14.625,35.302,14.625h76.705    c13.039,0,25.381-4.994,34.754-14.065l0.578-0.56c9.316,9.298,22.125,14.624,35.302,14.624h76.705    c13.039,0,25.38-4.994,34.753-14.065l0.688-0.665c10.209-9.878,15.744-23.676,15.184-37.855    c-0.363-9.188-1.127-20.096-2.628-31.756H512V241z M108.673,186.658c26.984,0,41.592,26.024,49.501,54.342h-34.841v-14h-30v14    H59.147C67.055,212.643,81.668,186.658,108.673,186.658z M161.247,319.052l-0.692,0.669c-3.745,3.625-8.678,5.621-13.889,5.621    H69.962c-5.383,0-10.617-2.22-14.359-6.091c-3.761-3.891-5.801-9.239-5.597-14.674c0.284-7.558,1.037-19.792,3.006-33.577h40.322    v15.333h30V271h40.991c1.937,13.525,2.697,25.506,2.99,32.94C167.538,309.596,165.326,315.104,161.247,319.052z M256.012,186.658    c26.984,0,41.592,26.024,49.501,54.342H271v-14h-30v14h-34.514C214.394,212.643,229.007,186.658,256.012,186.658z     M308.582,319.055l-0.688,0.666c-3.745,3.625-8.678,5.621-13.889,5.621H217.3c-5.383,0-10.617-2.22-14.359-6.091    c-3.761-3.891-5.801-9.239-5.597-14.674c0.284-7.558,1.038-19.792,3.006-33.577H241v15.333h30V271h40.664    c1.937,13.525,2.697,25.506,2.99,32.94C314.877,309.596,312.665,315.104,308.582,319.055z M403.351,186.658    c26.984,0,41.592,26.024,49.501,54.342h-34.513v-14h-30v14h-34.514C361.733,212.643,376.346,186.658,403.351,186.658z     M455.921,319.055l-0.688,0.666c-3.745,3.625-8.678,5.621-13.889,5.621H364.64c-5.383,0-10.617-2.22-14.359-6.091    c-3.761-3.891-5.801-9.239-5.597-14.674c0.284-7.558,1.038-19.792,3.006-33.577h40.65v15.333h30V271h40.664    c1.936,13.525,2.696,25.506,2.989,32.939C462.216,309.596,460.004,315.104,455.921,319.055z"/>
	</g>
</g>
<g>
</g>
<g>
</g>
<g>
</g>
<g>
</g>
<g>
</g>
<g>
</g>
<g>
</g>
<g>
</g>
<g>
</g>
<g>
</g>
<g>
</g>
<g>
</g>
<g>
</g>
<g>
</g>
<g>
</g>
</svg>
