<svg id="Capa_1" enable-background="new 0 0 512 512" height="512" viewBox="0 0 512 512" width="512" xmlns="http://www.w3.org/2000/svg"><g><path d="m437.02 74.98c-48.353-48.351-112.64-74.98-181.02-74.98s-132.667 26.629-181.02 74.98c-48.351 48.353-74.98 112.64-74.98 181.02s26.629 132.667 74.98 181.02c48.353 48.351 112.64 74.98 181.02 74.98s132.667-26.629 181.02-74.98c48.351-48.353 74.98-112.64 74.98-181.02s-26.629-132.667-74.98-181.02zm-21.214 340.826c-42.686 42.686-99.439 66.194-159.806 66.194s-117.12-23.508-159.806-66.194-66.194-99.439-66.194-159.806 23.508-117.12 66.194-159.806 99.439-66.194 159.806-66.194 117.12 23.508 159.806 66.194 66.194 99.439 66.194 159.806-23.508 117.12-66.194 159.806z"/><path d="m309.5 256c0-29.5-24-53.5-53.5-53.5s-53.5 24-53.5 53.5 24 53.5 53.5 53.5 53.5-24 53.5-53.5zm-77 0c0-12.958 10.542-23.5 23.5-23.5s23.5 10.542 23.5 23.5-10.542 23.5-23.5 23.5-23.5-10.542-23.5-23.5z"/><path d="m409.118 214.881 28.979-7.762c-17.358-64.813-68.403-115.857-133.216-133.216l-7.762 28.979c54.49 14.594 97.405 57.509 111.999 111.999z"/><path d="m102.882 297.119-28.979 7.762c17.358 64.813 68.403 115.857 133.216 133.216l7.762-28.979c-54.49-14.594-97.405-57.509-111.999-111.999z"/><path d="m376.075 241c-6.8-54.752-50.323-98.268-105.075-105.068v-68.432h-30v68.463c-40.737 5.144-76.867 30.942-94.579 68.661l27.154 12.752c14.941-31.817 47.294-52.376 82.425-52.376 50.178 0 91 40.822 91 91v15h66.791c-6.194 65.297-52.428 120.913-116.672 138.118l7.762 28.979c82.205-22.016 139.619-96.897 139.619-182.097v-15z"/><path d="m365.579 307.376-27.154-12.752c-14.941 31.817-47.294 52.376-82.425 52.376-50.178 0-91-40.822-91-91v-15h-66.791c6.194-65.297 52.428-120.913 116.672-138.118l-7.762-28.979c-82.205 22.016-139.619 96.897-139.619 182.097v15h68.425c6.8 54.752 50.323 98.268 105.075 105.068v68.432h30v-68.463c40.737-5.144 76.867-30.942 94.579-68.661z"/></g></svg>