<svg id="Capa_1" enable-background="new 0 0 512 512" height="512" viewBox="0 0 512 512" width="512" xmlns="http://www.w3.org/2000/svg"><g><path d="m377 211c36.22 0 66.522-25.808 73.491-60h16.509c24.813 0 45-20.187 45-45s-20.187-45-45-45h-15v-30h-150v105c0 41.355 33.645 75 75 75zm90-120c8.271 0 15 6.729 15 15s-6.729 15-15 15h-15v-30zm-135-30h90v75c0 24.813-20.187 45-45 45s-45-20.187-45-45z"/><path d="m60 393.58c-4.695-1.665-9.741-2.58-15-2.58-24.813 0-45 20.187-45 45s20.187 45 45 45 45-20.187 45-45v-105h90v62.58c-4.695-1.665-9.741-2.58-15-2.58-24.813 0-45 20.187-45 45s20.187 45 45 45 45-20.187 45-45v-135h-150zm105 57.42c-8.271 0-15-6.729-15-15s6.729-15 15-15 15 6.729 15 15-6.729 15-15 15zm-120 0c-8.271 0-15-6.729-15-15s6.729-15 15-15 15 6.729 15 15-6.729 15-15 15z"/><path d="m302 482h150v30h30v-30h30v-180h-210zm180-30h-60v-120h60zm-150-120h60v120h-60z"/><path d="m153.561 163.505c47.581-47.581 61.559-108.147 31.82-137.885-32.538-32.54-94.727-11.338-137.886 31.82-47.581 47.581-61.559 108.147-31.82 137.885 32.341 32.342 94.382 11.684 137.886-31.82zm-116.673 10.607c-8.265-8.265-9.147-24.938-2.069-44.496l46.554 46.554c-.615.225-30.442 11.986-44.485-2.058zm72.288-12.565-19.255-19.255 42.427-42.427 19.302 19.302c-5.312 7.746-11.722 15.545-19.302 23.125-7.265 7.264-15.115 13.748-23.172 19.255zm54.992-114.714c8.265 8.265 9.147 24.938 2.069 44.496l-46.554-46.554c14.014-5.117 34.048-8.38 44.485 2.058zm-72.288 12.565 19.255 19.255-42.427 42.427-19.302-19.302c5.312-7.746 11.722-15.545 19.302-23.125 7.264-7.265 15.115-13.749 23.172-19.255z"/><path d="m271 0h-30v241h-241v30h241v241h30v-241h241v-30h-241z"/></g></svg>