<svg id="Capa_1" enable-background="new 0 0 511.953 511.953" height="512" viewBox="0 0 511.953 511.953" width="512" xmlns="http://www.w3.org/2000/svg"><g><path d="m436.977 119.953h-76v-100.631l-55.032-19.322-9.938 28.307 34.969 12.277v79.369h-60v-60h-30v60h-60v-49.369l34.969-12.277-9.937-28.307-55.031 19.322v70.631h-76v30h31.191l30 362h239.617l30-362h31.191v-30zm-273.192 362-22.541-272h229.465l-22.541 272zm209.41-302h-234.437l-2.486-30h239.41z"/><path d="m308.06 292.036c0-28.719-23.364-52.083-52.083-52.083s-52.083 23.364-52.083 52.083c0 23.505 15.655 43.414 37.083 49.872v22.211h-30v30h30v30h30v-30h30v-30h-30v-22.211c21.428-6.458 37.083-26.367 37.083-49.872zm-74.166 0c0-12.177 9.906-22.083 22.083-22.083s22.083 9.906 22.083 22.083-9.906 22.083-22.083 22.083-22.083-9.906-22.083-22.083z"/></g></svg>