<svg id="Capa_1" enable-background="new 0 0 510 510" height="512" viewBox="0 0 510 510" width="512" xmlns="http://www.w3.org/2000/svg"><g><path d="m270 234.956 65.604-65.604c18.124-18.124 18.124-47.613 0-65.737-18.08-18.082-47.472-18.126-65.604-.134-18.134-17.991-47.525-17.947-65.605.134-18.124 18.124-18.124 47.613 0 65.737zm-44.392-110.128c6.427-6.427 16.885-6.428 23.312 0l21.08 21.079 21.079-21.079c6.428-6.428 16.885-6.428 23.312 0 6.442 6.442 6.442 16.869 0 23.312l-44.391 44.39-44.392-44.391c-6.442-6.442-6.442-16.869 0-23.311z"/><path d="m480 300v-270h-390v-30h-30v480h-30v30h90v-30h-30v-180zm-30-240v30h-45v30h45v30h-45v30h45v30h-45v30h45v30h-360v-30h45v-30h-45v-30h45v-30h-45v-30h45v-30h-45v-30z"/></g></svg>