<svg id="Capa_1" enable-background="new 0 0 512 512" height="512" viewBox="0 0 512 512" width="512" xmlns="http://www.w3.org/2000/svg"><g><path d="m391.169 271h33.411c6.192 17.459 22.865 30 42.42 30 24.813 0 45-20.187 45-45s-20.187-45-45-45c-19.555 0-36.228 12.541-42.42 30h-33.411c-2.078-18.852-8.019-36.556-17.021-52.298l27.054-19.655c15.271 10.485 36.131 10.831 51.952-.663 20.075-14.585 24.541-42.782 9.956-62.856s-42.782-24.54-62.856-9.955c-15.82 11.494-21.937 31.44-16.685 49.204l-27.082 19.676c-12.394-13.591-27.499-24.668-44.452-32.365l10.326-31.781c18.518-.493 35.598-12.475 41.641-31.073 7.668-23.599-5.292-49.036-28.892-56.703s-49.036 5.293-56.703 28.892c-6.043 18.598.732 38.33 15.423 49.614l-10.32 31.762c-8.889-1.834-18.089-2.799-27.51-2.799s-18.621.965-27.508 2.797l-10.32-31.762c14.691-11.284 21.466-31.016 15.423-49.614-7.668-23.599-33.104-36.56-56.703-28.892s-36.56 33.105-28.892 56.704c6.043 18.598 23.123 30.58 41.641 31.073l10.326 31.781c-16.954 7.697-32.059 18.774-44.452 32.365l-27.082-19.676c5.252-17.764-.865-37.71-16.685-49.204-20.075-14.585-48.271-10.119-62.856 9.955s-10.119 48.271 9.956 62.856c15.82 11.494 36.68 11.148 51.952.663l27.054 19.655c-9.002 15.742-14.943 33.446-17.021 52.298h-33.413c-6.192-17.459-22.865-30-42.42-30-24.813 0-45 20.187-45 45s20.187 45 45 45c19.555 0 36.228-12.541 42.42-30h33.411c2.078 18.852 8.019 36.556 17.021 52.298l-27.054 19.655c-15.271-10.485-36.131-10.831-51.952.663-20.075 14.585-24.541 42.782-9.956 62.856s42.782 24.54 62.856 9.955c15.82-11.494 21.937-31.44 16.685-49.204l27.082-19.676c12.394 13.591 27.499 24.668 44.452 32.365l-10.326 31.781c-18.518.494-35.598 12.475-41.641 31.073-7.668 23.599 5.292 49.036 28.892 56.703s49.036-5.293 56.703-28.892c6.043-18.598-.732-38.33-15.423-49.614l10.32-31.762c8.889 1.835 18.089 2.8 27.51 2.8s18.621-.965 27.508-2.797l10.32 31.762c-14.691 11.284-21.466 31.016-15.423 49.614 7.668 23.599 33.104 36.56 56.703 28.892s36.56-33.104 28.892-56.703c-6.043-18.598-23.123-30.58-41.641-31.073l-10.326-31.781c16.954-7.697 32.059-18.774 44.452-32.365l27.082 19.676c-5.252 17.764.865 37.71 16.685 49.204 20.074 14.585 48.271 10.119 62.856-9.955s10.119-48.271-9.956-62.856c-15.82-11.494-36.68-11.148-51.952-.663l-27.054-19.655c9.003-15.744 14.945-33.448 17.023-52.3zm26.717-151.158c6.692-4.862 16.09-3.373 20.952 3.318s3.373 16.09-3.319 20.952-16.09 3.373-20.952-3.318-3.373-16.09 3.319-20.952zm-110.949-69.15c2.556-7.867 11.034-12.187 18.901-9.631s12.187 11.034 9.631 18.901-11.034 12.187-18.901 9.631-12.187-11.035-9.631-18.901zm-130.406 9.27c-2.556-7.867 1.764-16.345 9.631-18.901s16.345 1.764 18.901 9.631-1.764 16.345-9.631 18.901-16.344-1.764-18.901-9.631zm-79.098 80.832c-4.862 6.692-14.26 8.18-20.952 3.318s-8.18-14.26-3.319-20.952 14.26-8.18 20.952-3.318 8.181 14.26 3.319 20.952zm-3.319 251.364c-6.692 4.862-16.09 3.373-20.952-3.318s-3.373-16.09 3.319-20.952 16.09-3.373 20.952 3.318c4.862 6.692 3.373 16.09-3.319 20.952zm110.949 69.15c-2.556 7.867-11.034 12.187-18.901 9.631s-12.187-11.034-9.631-18.901 11.034-12.187 18.901-9.631 12.187 11.035 9.631 18.901zm130.406-9.27c2.556 7.867-1.764 16.345-9.631 18.901s-16.345-1.764-18.901-9.631 1.764-16.345 9.631-18.901c7.866-2.556 16.344 1.764 18.901 9.631zm79.098-80.832c4.862-6.692 14.26-8.18 20.952-3.318s8.18 14.26 3.319 20.952-14.26 8.18-20.952 3.318-8.18-14.26-3.319-20.952zm52.433-130.206c8.271 0 15 6.729 15 15s-6.729 15-15 15-15-6.729-15-15 6.729-15 15-15zm-422 30c-8.271 0-15-6.729-15-15s6.729-15 15-15 15 6.729 15 15-6.729 15-15 15zm211 91c-58.448 0-106-47.552-106-106s47.552-106 106-106 106 47.552 106 106-47.552 106-106 106z"/><path d="m188.173 216.84v78.32l67.827 39.16 67.827-39.16v-78.32l-67.827-39.16zm105.654 61-37.827 21.84-37.827-21.84v-43.68l37.827-21.84 37.827 21.84z"/></g></svg>