<?xml version="1.0" encoding="iso-8859-1"?>
<!-- Generator: Adobe Illustrator 19.0.0, SVG Export Plug-In . SVG Version: 6.00 Build 0)  -->
<svg version="1.1" id="Layer_1" xmlns="http://www.w3.org/2000/svg" xmlns:xlink="http://www.w3.org/1999/xlink" x="0px" y="0px"
	 viewBox="0 0 512 512" style="enable-background:new 0 0 512 512;" xml:space="preserve">
<g>
	<g>
		<path d="M408.216,0h-62.27v83.027H166.054V0h-62.27c-34.336,0-62.27,27.934-62.27,62.27V512h428.973V62.27
			C470.486,27.934,442.553,0,408.216,0z M428.973,470.487H83.027V62.27c0-11.445,9.311-20.757,20.757-20.757h20.757v83.027h262.919
			V41.513h20.757c11.447,0,20.757,9.312,20.757,20.757V470.487z"/>
	</g>
</g>
<g>
	<g>
		<path d="M124.541,304.432v124.541h262.919V304.432H124.541z M345.946,387.459H166.054v-41.513h179.892V387.459z"/>
	</g>
</g>
<g>
	<g>
		<polygon points="345.946,168.073 305.443,249.081 386.451,249.081 		"/>
	</g>
</g>
<g>
</g>
<g>
</g>
<g>
</g>
<g>
</g>
<g>
</g>
<g>
</g>
<g>
</g>
<g>
</g>
<g>
</g>
<g>
</g>
<g>
</g>
<g>
</g>
<g>
</g>
<g>
</g>
<g>
</g>
</svg>
