<svg id="Capa_1" enable-background="new 0 0 512 512" height="512" viewBox="0 0 512 512" width="512" xmlns="http://www.w3.org/2000/svg"><g><path d="m391.182 228.961v-76.961h-31.623c-3.345-17.727-12.56-33.973-26.399-46.001l-24.916-21.656v-31.843c0-28.948-23.551-52.5-52.5-52.5s-52.5 23.552-52.5 52.5v31.881l-24.729 21.674c-13.736 12.038-22.874 28.268-26.176 45.945h-31.156v76.847c-10.359 2.627-19.858 8.001-27.606 15.762-11.336 11.355-17.565 26.445-17.539 42.493l.296 164.997c.055 33.03 26.971 59.901 60 59.901h239.63c33.084 0 60-26.916 60-60v-165c-.001-27.827-19.045-51.285-44.782-58.039zm-30-1.961h-30v-45h30zm-180-45v45h-30v-45zm30 0h30v45h-30zm60 0h30v45h-30zm-72.894-53.385 34.956-30.637v-45.478c0-12.406 10.093-22.5 22.5-22.5s22.5 10.094 22.5 22.5v45.517l35.236 30.625c7.229 6.283 12.436 14.402 15.203 23.358h-145.488c2.735-8.955 7.905-17.085 15.093-23.385zm-62.251 128.385h239.926c16.542 0 30 13.458 30 30h-299.925c0-8.005 3.112-15.53 8.768-21.195 5.669-5.678 13.209-8.805 21.231-8.805zm239.926 225h-239.63c-16.515 0-29.973-13.436-30-29.953l-.242-135.047h299.872v135c0 16.542-13.458 30-30 30z"/></g></svg>