<svg id="Capa_1" enable-background="new 0 0 512.728 512.728" height="512" viewBox="0 0 512.728 512.728" width="512" xmlns="http://www.w3.org/2000/svg"><g><path d="m487.364 256.364c0-7.595-.381-15.258-1.135-22.882l26.499-16.545-25.787-79.363-31.142 2.189c-7.724-13.187-16.74-25.579-26.925-37.009l11.718-28.975-67.51-49.049-23.891 20.061c-14.02-6.16-28.606-10.896-43.565-14.148l-7.539-30.279h-83.447l-7.539 30.279c-14.958 3.252-29.545 7.988-43.565 14.148l-23.891-20.061-67.509 49.05 11.718 28.975c-10.185 11.43-19.202 23.822-26.925 37.009l-31.142-2.189-25.787 79.362 26.499 16.545c-.754 7.624-1.135 15.287-1.135 22.882s.381 15.258 1.135 22.882l-26.499 16.545 25.787 79.363 31.142-2.189c7.724 13.187 16.74 25.579 26.925 37.009l-11.718 28.975 67.51 49.049 23.891-20.061c14.02 6.16 28.607 10.896 43.565 14.148l7.539 30.279h83.447l7.539-30.279c14.958-3.252 29.545-7.988 43.565-14.148l23.891 20.061 67.51-49.049-11.718-28.975c10.185-11.43 19.202-23.822 26.925-37.009l31.142 2.189 25.787-79.363-26.499-16.545c.753-7.624 1.134-15.288 1.134-22.882zm-32.014-28.454c1.336 9.432 2.014 19.005 2.014 28.454s-.678 19.022-2.014 28.454l-1.369 9.661 22.969 14.341-11.295 34.764-26.998-1.897-4.569 8.625c-8.91 16.819-20.169 32.294-33.462 45.995l-6.804 7.012 10.167 25.142-29.572 21.484-20.733-17.409-8.775 4.313c-17.111 8.412-35.308 14.32-54.084 17.563l-9.64 1.665-6.545 26.287h-36.553l-6.545-26.287-9.64-1.665c-18.777-3.243-36.974-9.151-54.084-17.563l-8.775-4.313-20.733 17.409-29.572-21.484 10.167-25.142-6.804-7.012c-13.292-13.702-24.551-29.177-33.461-45.996l-4.569-8.625-26.998 1.897-11.296-34.763 22.969-14.341-1.369-9.661c-1.336-9.432-2.014-19.005-2.014-28.454s.678-19.022 2.014-28.454l1.369-9.661-22.969-14.341 11.295-34.764 26.998 1.897 4.569-8.625c8.91-16.819 20.169-32.294 33.462-45.995l6.804-7.012-10.167-25.142 29.572-21.484 20.734 17.409 8.774-4.314c17.11-8.411 35.307-14.319 54.084-17.563l9.64-1.665 6.545-26.287h36.553l6.545 26.287 9.64 1.665c18.777 3.243 36.974 9.151 54.084 17.563l8.774 4.314 20.734-17.409 29.572 21.484-10.167 25.142 6.804 7.012c13.293 13.701 24.552 29.176 33.462 45.995l4.569 8.625 26.998-1.897 11.295 34.764-22.969 14.341z"/><path d="m256.364 103.364c-69.477 0-126 56.523-126 126v60c0 24.813 20.187 45 45 45s45-20.187 45-45v-30c0-24.813-20.187-45-45-45h-13.83c7.222-45.836 46.997-81 94.83-81s87.607 35.164 94.83 81h-13.83c-24.813 0-45 20.187-45 45v30c0 24.813 20.187 45 45 45 5.258 0 10.305-.915 15-2.58v2.58c0 16.542-13.458 30-30 30h-66v30h66c33.084 0 60-26.916 60-60v-105c0-69.477-56.524-126-126-126zm-81 141c8.271 0 15 6.729 15 15v30c0 8.271-6.729 15-15 15s-15-6.729-15-15v-45zm177 45c0 8.271-6.729 15-15 15s-15-6.729-15-15v-30c0-8.271 6.729-15 15-15h15z"/></g></svg>