<svg id="Capa_1" enable-background="new 0 0 510 510" height="512" viewBox="0 0 510 510" width="512" xmlns="http://www.w3.org/2000/svg"><g><path d="m510 246.213v-102.426l-38.787-38.787h-62.508c-24.052-61.401-83.881-105-153.705-105s-129.653 43.599-153.705 105h-62.508l-38.787 38.787v102.426l60 60v26.367c-27.751 9.843-38.669 43.188-22.382 67.441-22.459 12.973-37.618 37.231-37.618 64.979v45h150v-45c0-27.748-15.159-52.006-37.618-64.978 16.286-24.25 5.374-57.598-22.382-67.441v-38.793l-60-60v-77.574l21.213-21.214h41.528c-1.795 9.732-2.741 19.757-2.741 30 0 85.925 66.022 156.707 150 164.311v33.27c-17.459 6.192-30 22.865-30 42.42 0 9.254 2.81 17.862 7.618 25.022-22.459 12.971-37.618 37.229-37.618 64.977v15h150v-15c0-27.748-15.158-52.007-37.618-64.978 4.807-7.16 7.618-15.768 7.618-25.022 0-19.555-12.541-36.228-30-42.42v-33.27c83.977-7.604 150-78.386 150-164.311 0-10.243-.946-20.268-2.741-30h41.528l21.213 21.214v77.574l-60 60v38.793c-17.459 6.192-30 22.865-30 42.42 0 9.254 2.81 17.862 7.618 25.022-22.46 12.971-37.618 37.23-37.618 64.978v45h150v-45c0-27.748-15.158-52.007-37.618-64.978 4.807-7.16 7.618-15.768 7.618-25.022 0-19.555-12.541-36.228-30-42.42v-26.367zm-390 233.787h-90v-15c0-24.814 20.187-45 45-45s45 20.186 45 45zm-60-105c0-8.272 6.729-15 15-15s15 6.728 15 15-6.729 15-15 15-15-6.728-15-15zm330-210c0 20.13-4.436 39.24-12.37 56.417l-62.63-62.63v-43.787l-45-60v-24.162c67.405 7.486 120 64.793 120 134.162zm-210-112.194v41.736l30 45v10.458h-51.213l-36.987 36.986c-1.178-7.157-1.8-14.5-1.8-21.986 0-46.708 23.846-87.947 60-112.194zm18.583 234.824 26.417-26.417v-21.213h38.787l47.63 47.63c-17.177 7.935-36.287 12.37-56.417 12.37s-39.24-4.435-56.417-12.37zm13.987 192.37c6.191-17.461 22.873-30 42.43-30s36.239 12.539 42.43 30zm27.43-75c0-8.272 6.729-15 15-15s15 6.728 15 15-6.729 15-15 15-15-6.728-15-15zm97.779-133.434-61.566-61.566h-81.213v38.787l-22.779 22.779c-17.488-13.615-31.547-31.432-40.654-51.92l39.646-39.646h68.787v-49.542l-30-45v-47.736c9.555-3.389 19.601-5.729 30-6.884v34.162l45 60v46.213l76.566 76.566c-6.912 8.879-14.908 16.875-23.787 23.787zm142.221 208.434h-90v-15c0-24.814 20.186-45 45-45 24.813 0 45 20.186 45 45zm-60-105c0-8.272 6.728-15 15-15 8.271 0 15 6.728 15 15s-6.729 15-15 15c-8.272 0-15-6.728-15-15z"/></g></svg>