<svg id="Capa_1" enable-background="new 0 0 512 512" height="512" viewBox="0 0 512 512" width="512" xmlns="http://www.w3.org/2000/svg"><g><path d="m512 90v-90h-90v30h-121v-30h-90v30h-121v-30h-90v90h30.538c.089 27.608.105 67.83.049 120h-30.587v90h30.44c-.106 51.34-.23 97.079-.302 122h-30.138v90h90v-30h121v30h90v-30h121v30h90v-90h-30v-122h30v-90h-30v-120zm-60-60h30v30h-30zm-211 0h30v30h-30zm-211 0h30v30h-30zm0 210h30v30h-30zm30 242h-30v-30h30zm211 0h-30v-30h30zm211 0h-30v-30h30zm0-212h-30v-30h30zm-30-60h-30v90h30v122h-30v30h-121v-30h-90v30h-121v-30h-29.862c.072-24.955.196-70.684.302-122h29.56v-90h-29.414c.057-52.127.041-92.35-.048-120h29.462v-30h121v30h90v-30h121v30h30z"/><path d="m271 210h-30v30h-30v30h30v30h30v-30h30v-30h-30z"/></g></svg>