<svg height="512pt" viewBox="0 0 512 512" width="512pt" xmlns="http://www.w3.org/2000/svg"><path d="m467 211c-16.351562 0-32.789062.566406-49.269531 1.683594 14.5625-7.140625 28.789062-14.71875 42.636719-22.710938 21.535156-12.4375 28.90625-39.933594 16.46875-61.472656-12.40625-21.488281-39.980469-28.878906-61.46875-16.472656-13.820313 7.980468-27.46875 16.496094-40.910157 25.515625 9.019531-13.4375 17.535157-27.089844 25.515625-40.90625 12.402344-21.488281 5.015625-49.0625-16.472656-61.472657-21.535156-12.433593-49.035156-5.070312-61.472656 16.472657-7.992188 13.84375-15.570313 28.074219-22.710938 42.632812 1.117188-16.480469 1.683594-32.917969 1.683594-49.269531 0-24.8125-20.1875-45-45-45s-45 20.1875-45 45c0 16.351562.566406 32.789062 1.683594 49.269531-7.140625-14.5625-14.71875-28.789062-22.710938-42.632812-12.433594-21.539063-39.929687-28.910157-61.472656-16.472657-21.488281 12.40625-28.878906 39.984376-16.472656 61.46875 7.980468 13.820313 16.496094 27.46875 25.515625 40.910157-13.441407-9.019531-27.089844-17.535157-40.910157-25.515625-21.484374-12.40625-49.0625-5.015625-61.46875 16.472656-12.4375 21.539062-5.070312 49.035156 16.46875 61.472656 13.847657 7.996094 28.074219 15.570313 42.636719 22.710938-16.480469-1.117188-32.917969-1.683594-49.269531-1.683594-24.8125 0-45 20.1875-45 45s20.1875 45 45 45c16.351562 0 32.789062-.566406 49.269531-1.683594-14.5625 7.140625-28.789062 14.71875-42.636719 22.710938-21.535156 12.4375-28.90625 39.933594-16.46875 61.472656 12.347657 21.386719 39.886719 28.933594 61.46875 16.472656 13.820313-7.980468 27.46875-16.496094 40.910157-25.515625-9.019531 13.4375-17.535157 27.085938-25.511719 40.90625-12.40625 21.488281-5.019531 49.066407 16.46875 61.472657 21.585938 12.464843 49.058594 5.03125 61.472656-16.472657 7.996094-13.847656 15.570313-28.074219 22.710938-42.632812-1.117188 16.480469-1.683594 32.917969-1.683594 49.269531 0 24.8125 20.1875 45 45 45s45-20.1875 45-45c0-16.351562-.566406-32.789062-1.683594-49.269531 7.140625 14.558593 14.71875 28.785156 22.714844 42.632812 12.40625 21.492188 39.886719 28.933594 61.472656 16.472657 21.484375-12.40625 28.875-39.984376 16.46875-61.46875-7.980468-13.820313-16.492187-27.46875-25.515625-40.910157 13.441407 9.019531 27.089844 17.535157 40.910157 25.515625 21.617187 12.480469 49.140624 4.882813 61.472656-16.472656 12.433594-21.539062 5.066406-49.035156-16.472656-61.472656-13.847657-7.996094-28.074219-15.570313-42.636719-22.710938 16.480469 1.117188 32.917969 1.683594 49.269531 1.683594 24.8125 0 45-20.1875 45-45s-20.1875-45-45-45zm-211 90c-24.863281 0-45-20.308594-45-45 0-24.355469 19.769531-45 45-45 24.460938 0 45 19.859375 45 45 0 25.058594-20.480469 45-45 45zm174.367188-162.988281c7.199218-4.160157 16.375-1.632813 20.488281 5.488281 4.144531 7.179688 1.691406 16.347656-5.488281 20.492188-38.425782 22.183593-79.925782 41.027343-123.539063 56.101562-.585937-1.0625-1.191406-2.113281-1.824219-3.144531 34.863282-30.234375 71.933594-56.753907 110.363282-78.9375zm-82.355469-71.378907c4.09375-7.09375 13.234375-9.675781 20.488281-5.488281 7.160156 4.136719 9.625 13.328125 5.488281 20.492188-22.183593 38.429687-48.703125 75.496093-78.9375 110.359375-1.03125-.632813-2.082031-1.238282-3.144531-1.824219 15.074219-43.609375 33.914062-85.105469 56.105469-123.539063zm-92.011719-36.632812c8.269531 0 15 6.730469 15 15 0 44.980469-4.433594 90.679688-13.183594 136.046875-2.660156-.066406-.953125-.066406-3.632812 0-8.75-45.367187-13.183594-91.066406-13.183594-136.046875 0-8.269531 6.730469-15 15-15zm-112.5 31.144531c7.191406-4.152343 16.355469-1.675781 20.488281 5.492188 22.191407 38.429687 41.03125 79.925781 56.105469 123.535156-1.066406.585937-2.113281 1.191406-3.148438 1.824219-30.230468-34.863282-56.75-71.929688-78.9375-110.359375-4.132812-7.164063-1.667968-16.359375 5.492188-20.492188zm-82.355469 82.355469c4.121094-7.140625 13.304688-9.636719 20.488281-5.488281 38.429688 22.183593 75.5 48.703125 110.363282 78.9375-.632813 1.03125-1.238282 2.082031-1.824219 3.144531-43.605469-15.070312-85.105469-33.914062-123.535156-56.101562-7.179688-4.144532-9.640625-13.3125-5.492188-20.492188zm-31.144531 112.5c0-8.269531 6.730469-15 15-15 44.980469 0 90.679688 4.433594 136.046875 13.183594-.066406 2.648437-.066406.980468 0 3.632812-45.367187 8.75-91.066406 13.183594-136.046875 13.183594-8.269531 0-15-6.730469-15-15zm51.632812 117.992188c-7.160156 4.132812-16.355468 1.667968-20.488281-5.492188-4.144531-7.179688-1.691406-16.34375 5.488281-20.488281 38.433594-22.191407 79.929688-41.03125 123.539063-56.105469.582031 1.066406 1.191406 2.113281 1.824219 3.148438-34.863282 30.230468-71.933594 56.75-110.363282 78.9375zm82.355469 71.375c-4.140625 7.175781-13.308593 9.636718-20.488281 5.488281-7.160156-4.132813-9.625-13.328125-5.488281-20.488281 22.183593-38.433594 48.703125-75.5 78.9375-110.363282 1.03125.632813 2.082031 1.242188 3.144531 1.824219-15.074219 43.609375-33.914062 85.109375-56.105469 123.539063zm92.011719 36.632812c-8.269531 0-15-6.730469-15-15 0-44.980469 4.433594-90.679688 13.183594-136.046875.605468.015625 1.207031.046875 1.816406.046875s1.210938-.03125 1.816406-.046875c8.75 45.367187 13.183594 91.066406 13.183594 136.046875 0 8.269531-6.730469 15-15 15zm112.5-31.144531c-7.179688 4.144531-16.34375 1.691406-20.488281-5.492188-22.191407-38.429687-41.03125-79.925781-56.105469-123.535156 1.066406-.582031 2.113281-1.191406 3.148438-1.824219 30.230468 34.863282 56.75 71.929688 78.9375 110.363282 4.132812 7.160156 1.667968 16.351562-5.492188 20.488281zm82.355469-82.355469c-4.136719 7.160156-13.328125 9.625-20.488281 5.488281-38.429688-22.183593-75.5-48.703125-110.363282-78.9375.632813-1.03125 1.238282-2.082031 1.824219-3.144531 43.605469 15.070312 85.105469 33.914062 123.535156 56.101562 7.179688 4.144532 9.640625 13.3125 5.492188 20.492188zm16.144531-97.5c-44.980469 0-90.679688-4.433594-136.046875-13.183594.015625-.605468.046875-1.207031.046875-1.816406s-.03125-1.210938-.046875-1.816406c45.367187-8.75 91.066406-13.183594 136.046875-13.183594 8.269531 0 15 6.730469 15 15s-6.730469 15-15 15zm0 0"/></svg>