<svg id="Capa_1" enable-background="new 0 0 512 512" height="512" viewBox="0 0 512 512" width="512" xmlns="http://www.w3.org/2000/svg"><g><path d="m362 106c0-58.448-47.551-106-106-106s-106 47.552-106 106v15h212zm-180.514-15c6.984-34.747 37.741-61 74.514-61s67.53 26.253 74.514 61z"/><path d="m482 271h-452v90h38.072c-5.123 8.833-8.072 19.075-8.072 30v121h30v-76h332v76h30v-121c0-10.925-2.949-21.167-8.072-30h38.072zm-60 120v15h-332v-15c0-16.542 13.458-30 30-30h272c16.542 0 30 13.458 30 30zm30-60h-392v-30h392z"/><path d="m211 151h30v30h-30z"/><path d="m151 151h30v30h-30z"/><path d="m331 151h30v30h-30z"/><path d="m271 151h30v30h-30z"/><path d="m211 211h30v30h-30z"/><path d="m151 211h30v30h-30z"/><path d="m331 211h30v30h-30z"/><path d="m271 211h30v30h-30z"/></g></svg>