<svg id="Capa_1" enable-background="new 0 0 513.565 513.565" height="512" viewBox="0 0 513.565 513.565" width="512" xmlns="http://www.w3.org/2000/svg"><g><path d="m357.198 513.565 29.836-3.131-29.918-285.051v-54.216h19.392v-90h-19.392v-36.167c0-24.813-20.187-45-45-45h-110.666c-24.813 0-45 20.187-45 45v36.168h-19.393v90h19.393v54.216l-29.918 285.051 29.836 3.131 5.434-51.773h189.963zm-190.141-402.397h179.452v30h-179.452zm19.393 60h140.666v40h-140.667zm142.158 70 5.27 50.208h-154.19l5.27-50.208zm-152.069 80.208h160.487l4.22 40.208h-168.927zm9.911-276.376c0-8.271 6.729-15 15-15h110.667c8.271 0 15 6.729 15 15v36.168h-140.667zm-21.5 386.792 4.22-40.208h175.225l4.22 40.208z"/></g></svg>