<svg id="Capa_1" enable-background="new 0 0 512 512" height="512" viewBox="0 0 512 512" width="512" xmlns="http://www.w3.org/2000/svg"><g><path d="m512 75c0-41.355-33.645-75-75-75s-75 33.645-75 75c0 36.257 25.862 66.582 60.106 73.51v306.72c0 14.762-12.009 26.771-26.771 26.771-14.761 0-26.771-12.009-26.771-26.771v-78.551c0-33.893-27.574-61.466-61.466-61.466s-62.466 27.573-62.466 61.466v55.754c0 27.332-22.236 49.567-49.568 49.567s-49.568-22.235-49.568-49.567v-33.647c17.064-6.401 29.244-22.876 29.244-42.147v-34.658c49.421-17.969 84.735-64.642 84.735-119.249v-202.732h-66.064v30h36.064v172.73c0 53.563-44.742 97.141-99.738 97.141s-99.737-43.577-99.737-97.141v-172.73h36.064v-30h-66.064v202.73c0 54.607 35.314 101.28 84.736 119.249l.002 34.661c.001 19.834 12.907 36.7 30.758 42.674v33.118c0 43.874 35.694 79.567 79.568 79.567s79.568-35.693 79.568-79.567v-55.754c0-17.351 15.116-31.466 32.466-31.466s31.466 14.115 31.466 31.466v78.551c0 31.304 25.467 56.771 56.771 56.771s56.771-25.467 56.771-56.771v-306.758c34.14-7.009 59.894-37.289 59.894-73.471zm-382.261 296.639c-8.271 0-15-6.729-15.001-15l-.002-27.622c4.924.558 9.927.855 15.001.855s10.078-.297 15.002-.855v27.622c.001 8.27-6.728 15-15 15zm307.261-251.639c-24.813 0-45-20.187-45-45s20.187-45 45-45 45 20.187 45 45-20.187 45-45 45z"/><path d="m422 60h30v30h-30z"/></g></svg>