<svg id="Layer_1" enable-background="new 0 0 510 510" height="512" viewBox="0 0 510 510" width="512" xmlns="http://www.w3.org/2000/svg"><g><path d="m450.956 195c38.845-33.712 18.46-98.441-10.032-133.021l-51.65-61.979h-194.051l-51.65 61.979c-28.482 34.552-48.88 99.326-10.032 133.021-13.034 11.285-21.292 27.946-21.292 46.5v111.565c-14.172 8.219-24.697 22.062-28.475 38.46-68.639 17.322-57.987 116.751 13.475 118.475h375v-268.5c0-18.554-8.259-35.215-21.293-46.5zm-308.707 46.5c0-17.369 14.131-31.5 31.5-31.5v-30c-51.535-4.009-29.523-73.454-7.128-98.815l42.653-51.185h165.949l42.654 51.185c22.383 25.329 44.408 94.825-7.129 98.815v30c17.369 0 31.5 14.131 31.5 31.5v82.147l-44.808-64.723-73.828 103.359-61.172-88.359-70.08 98.111c-10.742-16.275-29.193-27.035-50.111-27.035zm75 148.5h-.852l45.66-63.925 106.563 153.925h-99.444c22.986-39.631-5.631-90-51.927-90zm-120 90c-39.754-1.513-39.724-58.501 0-60h15v-15c1.513-39.754 58.501-39.724 60 0v15h45c39.754 1.513 39.724 58.501 0 60zm307.859 0-63.35-91.506 55.299-77.419 45.192 65.277v103.648z"/><path d="m221.806 207.99 27.665-15.973c7.523 7.658 17.072 13.318 27.777 16.084v31.899h30v-31.898c10.705-2.766 20.255-8.426 27.778-16.084l27.665 15.973 15-25.98-27.636-15.955c2.89-10.394 2.96-21.465 0-32.109l27.636-15.955-15-25.98-27.665 15.973c-7.523-7.658-17.073-13.318-27.778-16.084v-31.901h-30v31.898c-10.705 2.766-20.254 8.426-27.777 16.084l-27.665-15.972-15 25.98 27.641 15.958c-2.896 10.413-2.966 21.439 0 32.104l-27.641 15.958zm70.443-87.99c16.542 0 30 13.458 30 30-1.508 39.744-58.498 39.734-60 0 0-16.542 13.458-30 30-30z"/></g></svg>