<svg id="Capa_1" enable-background="new 0 0 512 512" height="512" viewBox="0 0 512 512" width="512" xmlns="http://www.w3.org/2000/svg"><g><path d="m512 121h-38.787l30-30h-494.426l30 30h-38.787v270h38.787l-30 30h494.427l-30-30h38.786zm-30 240h-81.213l30 30h-349.574l30-30h-81.213v-210h81.213l-30-30h349.573l-30 30h81.214z"/><path d="m361 211h-30v30h-32.58c-6.192-17.458-22.865-30-42.42-30s-36.228 12.542-42.42 30h-32.58v-30h-30v30h-61v-30h-30v90h30v-30h61v30h30v-30h32.58c6.192 17.458 22.865 30 42.42 30s36.228-12.542 42.42-30h32.58v30h30v-30h61v30h30c0-11.219 0-80.184 0-90h-30v30h-61zm-105 60c-8.271 0-15-6.729-15-15s6.729-15 15-15 15 6.729 15 15-6.729 15-15 15z"/></g></svg>