<svg id="Capa_1" enable-background="new 0 0 512 512" height="512" viewBox="0 0 512 512" width="512" xmlns="http://www.w3.org/2000/svg"><g><path d="m84.996 0v512h342.007v-512zm312.008 296.337h-128.885v-119.168h128.885zm-158.885 0h-123.123v-119.168h123.123zm8.411 30 31.23 34h-162.764v-34zm40.734 0h109.74v39.323l-52.004 23.535zm109.74-179.168h-128.885v-117.169h128.885zm-158.885-117.169v117.169h-123.123v-117.169zm-123.123 452v-91.663h190.319l32.276 35.14 59.412-26.887v83.41z"/><path d="m175 90.004h32.003v-30h-62.003v58.77h30z"/><path d="m332.414 118.774v-28.77h32.764v-30h-62.764v58.77z"/><path d="m175 266.001v-28.772h32.003v-30h-62.003v58.772z"/><path d="m332.414 266.001v-28.772h32.764v-30h-62.764v58.772z"/></g></svg>