<svg id="Capa_1" enable-background="new 0 0 512 512" height="512" viewBox="0 0 512 512" width="512" xmlns="http://www.w3.org/2000/svg"><g><path d="m271 104v-20.705c44.246-17.168 33.07-82.424-15.001-83.295-48.077.875-59.238 66.136-14.999 83.296v20.704h-73.431l-47.059 79.569 48.626 205.431h15.983c1.142 20.46 10.982 38.635 25.881 50.874v72.126h90v-72.126c14.898-12.239 24.738-30.414 25.881-50.874h15.984l48.62-205.406-46.777-79.594zm-15-74c7.168 0 13 5.832 13 13-.714 17.246-25.288 17.241-26 0 0-7.168 5.832-13 13-13zm-71.319 104h142.861l21.744 37h-186.488zm56.066 171-20.288-104h71.082l-20.288 104zm-50.854-104 20.288 104h-30.099l-24.617-104zm-2.71 134h137.634l-5.681 24h-126.272zm114.636-30 20.288-104h34.428l-24.617 104zm-30.819 151v26h-30v-26zm-15-30c-21.258 0-38.789-16.263-40.807-37h81.613c-2.017 20.737-19.548 37-40.806 37z"/><path d="m-.255 428h90.51v30h-90.51z" transform="matrix(.707 -.707 .707 .707 -300.068 161.572)"/><path d="m30 97.745h30v90.51h-30z" transform="matrix(.707 -.707 .707 .707 -87.936 73.704)"/><path d="m0 278h82v30h-82z"/><path d="m452 397.745h30v90.51h-30z" transform="matrix(.707 -.707 .707 .707 -176.467 459.971)"/><path d="m421.745 128h90.51v30h-90.51z" transform="matrix(.707 -.707 .707 .707 35.665 372.103)"/><path d="m430 278h82v30h-82z"/></g></svg>