<svg id="Layer_1" enable-background="new 0 0 509.512 509.512" height="512" viewBox="0 0 509.512 509.512" width="512" xmlns="http://www.w3.org/2000/svg"><g><path d="m284.511 359.172h-210c-99.386 3.782-99.311 146.253 0 150h210c99.387-3.782 99.311-146.254 0-150zm-255 75c0-24.814 20.187-45 45-45h90v90h-90c-24.813 0-45-20.187-45-45zm255 45h-90v-90h90c59.632 2.269 59.587 87.752 0 90z"/><path d="m158.298 277.205 148.493-148.493c67.719-72.912-33.24-173.644-106.066-106.065l-148.493 148.491c-29.242 29.243-29.242 76.824.001 106.066 29.307 29.309 76.751 29.315 106.065.001zm63.64-233.346c17.586-17.586 46.05-17.588 63.64 0 17.585 17.587 17.589 46.051 0 63.64l-63.64 63.641-63.64-63.641zm-148.493 148.492 63.64-63.64 63.64 63.641-63.64 63.64c-43.751 40.63-104.183-19.942-63.64-63.641z"/><path d="m404.511 134.172c-57.898 0-105 47.103-105 105 5.278 139.106 204.743 139.068 210-.001 0-57.897-47.102-104.999-105-104.999zm-75 105c0-36.22 25.808-66.522 60-73.49v146.98c-34.192-6.968-60-37.271-60-73.49zm90 73.49v-146.98c79.513 17.378 79.458 129.632 0 146.98z"/></g></svg>