<svg height="512pt" viewBox="0 0 512 512" width="512pt" xmlns="http://www.w3.org/2000/svg"><path d="m246.175781 155.335938 9.824219 8.511718 9.824219-8.511718c43.070312-37.332032 79.597656-61.171876 79.597656-99.941407 0-31.0625-22.933594-55.394531-52.210937-55.394531-17.203126 0-29.175782 8.03125-37.210938 17.121094-8.035156-9.089844-20.007812-17.121094-37.210938-17.121094-29.277343 0-52.210937 24.332031-52.210937 55.394531 0 38.113281 34.613281 60.953125 79.597656 99.941407zm-27.386719-125.335938c13.628907 0 20.179688 14.054688 22.359376 20.097656l3.582031 9.902344h22.542969l3.578124-9.902344c2.179688-6.042968 8.730469-20.097656 22.359376-20.097656 14.582031 0 22.210937 12.773438 22.210937 25.394531 0 20.777344-23.921875 38.660157-59.421875 68.84375-37.542969-31.917969-59.421875-48.515625-59.421875-68.84375 0-12.621093 7.628906-25.394531 22.210937-25.394531zm0 0"/><path d="m346 182c-33.152344 0-64.046875 9.835938-89.933594 26.730469-26.785156-17.519531-57.699218-26.730469-90.066406-26.730469-91.53125 0-166 74.019531-166 165s74.46875 165 166 165c33.152344 0 64.046875-9.835938 89.933594-26.730469 26.785156 17.519531 57.699218 26.730469 90.066406 26.730469 91.53125 0 166-74.019531 166-165s-74.46875-165-166-165zm-316 165c0-74.4375 61.011719-135 136-135 23.09375 0 45.269531 5.75 65.09375 16.710938-7.378906 7.171874-14.097656 15.019531-20.039062 23.453124-14.003907-6.679687-29.332032-10.164062-45.054688-10.164062-58.050781 0-106 47.117188-106 105 0 57.8125 47.886719 105 106 105 57.898438 0 105-47.101562 105-105 0-19.660156 7.613281-37.566406 20.035156-50.957031 6.546875 16.089843 9.964844 33.414062 9.964844 50.957031 0 74.4375-60.5625 135-135 135-74.988281 0-136-60.5625-136-135zm165.976562 68.730469c-9.1875 4.023437-19.324218 6.269531-29.976562 6.269531-41.90625 0-76-33.644531-76-75s34.09375-75 76-75c10.425781 0 20.605469 2.152344 30.011719 6.277344-9.628907 20.933594-15.011719 44.210937-15.011719 68.722656 0 23.796875 5.152344 47.273438 14.976562 68.730469zm120.046876-137.460938c9.1875-4.023437 19.320312-6.269531 29.976562-6.269531 41.90625 0 76 33.644531 76 75s-34.09375 75-76 75c-10.425781 0-20.605469-2.152344-30.011719-6.277344 9.628907-20.933594 15.011719-44.210937 15.011719-68.722656 0-23.796875-5.152344-47.273438-14.976562-68.730469zm29.976562 203.730469c-23.09375 0-45.269531-5.75-65.09375-16.710938 7.378906-7.171874 14.097656-15.019531 20.039062-23.453124 14.003907 6.679687 29.332032 10.164062 45.054688 10.164062 58.050781 0 106-47.117188 106-105 0-57.8125-47.886719-105-106-105-57.898438 0-105 47.101562-105 105 0 19.660156-7.613281 37.566406-20.035156 50.957031-6.546875-16.089843-9.964844-33.414062-9.964844-50.957031 0-74.4375 60.5625-135 135-135 74.988281 0 136 60.5625 136 135s-61.011719 135-136 135zm0 0"/><path d="m421 120h30v-30h30v-30h-30v-30h-30v30h-30v30h30zm0 0"/><path d="m61 120h30v-30h30v-30h-30v-30h-30v30h-30v30h30zm0 0"/><path d="m361 120h30v30h-30zm0 0"/><path d="m151 120h30v30h-30zm0 0"/></svg>