<svg id="Layer_1" enable-background="new 0 0 510 510" height="512" viewBox="0 0 510 510" width="512" xmlns="http://www.w3.org/2000/svg"><path id="XMLID_1565_" d="m360 285h-51.5v-32.674c46.656-35.27 35.162-81.139 36.5-132.326h60v-30h-60v-15c0-41.355-33.645-75-75-75h-30c-41.355 0-75 33.645-75 75v105c0 30.487 15.241 57.477 38.5 73.766v31.234h-53.5c-57.897 0-105 47.103-105 105v120h420v-120c0-57.897-47.103-105-105-105zm75 105v30h-30v-30h-30v90h-75v-63.456c27.865-8.226 50.245-30.676 57.622-60.147l10.245-40.982c37.671 3.945 67.133 35.887 67.133 74.585zm-195-360h30c24.814 0 45 20.187 45 45v15h-120v-15c0-24.813 20.187-45 45-45zm-45 90h120v60c0 33.084-26.916 60-60 60s-60-26.916-60-60zm83.5 146.881v18.119c0 8.272-6.729 15-15 15h-15c-8.271 0-15-6.728-15-15v-17.602c14.77 3.633 30.297 3.463 45-.517zm-63.505 48.119c8.245 9.199 20.208 15 33.505 15h15c13.297 0 25.26-5.801 33.505-15h40.044c-8.142 29.707-8.356 57.658-41.166 71.23-15.811-34.76-65.964-34.743-81.764-.004-32.826-13.584-33.019-41.563-41.157-71.226zm55.005 90c0 8.272-6.729 15-15 15-19.872-.754-19.867-29.249 0-30 8.271 0 15 6.728 15 15zm-127.858-89.586 10.248 40.988c7.625 30.46 31.058 52.899 59.25 60.604 6.917 24.944 33.664 39.173 58.361 30.413v32.581h-135.001v-90h-30v30h-30v-30c0-38.701 29.467-70.646 67.142-74.586zm-67.142 134.586h30v30h-30zm330 30v-30h30v30z"/></svg>