<svg id="Capa_1" enable-background="new 0 0 512.024 512.024" height="512" viewBox="0 0 512.024 512.024" width="512" xmlns="http://www.w3.org/2000/svg"><path d="m483.733 279.049c-15.907-37.735-38.466-76.193-67.05-114.305l-.165-.216c-15.033-19.306-35.883-26.19-57.203-18.895-28.061 9.605-49.6 41.865-51.743 76.429l-6.445-3.878v-218.172h-90.24v218.173l-6.445 3.878c-2.142-34.563-23.682-66.823-51.742-76.429-21.32-7.297-42.17-.412-57.203 18.895l-.165.216c-28.584 38.111-51.143 76.569-67.05 114.305-18.761 44.507-28.274 88.134-28.274 129.669v58.033c-.53 26.692 25.558 49.639 52.79 44.463l114.386-19.732c21.7-3.743 37.449-22.442 37.449-44.463v-124.105l51.381-29.828 51.369 29.77v124.163c0 22.021 15.75 40.72 37.45 44.463l114.385 19.732c25.725 5.366 53.564-17.153 52.79-44.463v-58.033c0-41.535-9.513-85.162-28.275-129.67zm-321.649 182.872-114.386 19.732c-7.736 1.431-17.697-4.731-17.69-14.9v-58.033c0-37.511 8.72-77.217 25.919-118.017 14.94-35.442 36.245-71.727 63.319-107.842 7.052-9.005 14.82-11.893 23.739-8.844 19.496 6.674 31.607 32.999 31.648 53.562v41.844c-16.498 5.229-32.104 12.692-46.291 22.11-9.61-7.228-23.663-13.179-42.778-13.179v30c6.807 0 12.754 1.096 17.814 3.215-22.48 21.717-37.269 48.141-42.841 76.639l29.442 5.757c2.081-10.64 5.852-20.946 11.15-30.709 9.957 11.942 14.998 26.254 14.998 51.721h30c0-37.935-10.101-59.106-27.031-76.597 14.173-15.436 34.59-29.08 55.537-37.137v145.777c0 7.379-5.278 13.646-12.549 14.901zm93.918-203.516-51.369 29.821v-31.266l36.255-21.814v-205.265h30.24v205.266l36.255 21.814v31.222zm226.006 208.348c.097 7.868-7.671 16.634-17.69 14.9l-114.385-19.732c-7.272-1.255-12.55-7.521-12.55-14.9v-145.776c20.912 8.2 40.167 20.657 55.537 37.137-16.93 17.491-27.031 38.663-27.031 76.597h30c0-25.468 5.041-39.78 14.998-51.721 5.298 9.762 9.069 20.069 11.15 30.709l29.442-5.757c-5.572-28.498-20.361-54.922-42.841-76.639 5.06-2.119 11.007-3.215 17.814-3.215v-30c-19.115 0-33.168 5.951-42.778 13.179-14.187-9.418-29.793-16.881-46.291-22.11v-41.845c.041-20.563 12.153-46.889 31.648-53.562 8.919-3.055 16.687-.161 23.739 8.844 27.074 36.115 48.378 72.399 63.319 107.842 17.199 40.8 25.919 80.506 25.919 118.017z"/></svg>