<svg id="Capa_1" enable-background="new 0 0 510 510" height="512" viewBox="0 0 510 510" width="512" xmlns="http://www.w3.org/2000/svg"><g><path d="m120 240c-14.981 0-30.019 0-45 0 0-10.492 0-19.508 0-30h45c0-10.492 0-19.508 0-30-20.194 0-63.236 0-75 0v90h45v30c-14.981 0-30.019 0-45 0v30h75c0-10.889 0-79.039 0-90z"/><path d="m465 240c-14.981 0-30.019 0-45 0 0-10.492 0-19.508 0-30h45c0-10.492 0-19.508 0-30-20.194 0-63.236 0-75 0v90h45v30c-14.981 0-30.019 0-45 0v30h75c0-10.889 0-79.039 0-90z"/><path d="m210 300c-10.492 0-19.508 0-30 0 0-14.518 0-105.387 0-120-10.492 0-19.508 0-30 0v150h90c0-10.128 0-139.871 0-150-10.492 0-19.508 0-30 0z"/><path d="m315 180c-5.246 0-34.508 0-45 0v150h45c24.813 0 45-20.186 45-45 0-11.151-4.104-21.754-11.495-30 7.381-8.235 11.495-18.834 11.495-30 0-24.812-20.186-45-45-45zm0 120c-5.246 0-9.754 0-15 0 0-10.492 0-19.508 0-30h15c8.271 0 15 6.729 15 15s-6.729 15-15 15zm0-60c-5.246 0-9.754 0-15 0 0-10.492 0-19.508 0-30h15c8.271 0 15 6.729 15 15s-6.729 15-15 15z"/><path d="m232.5 0c-10.492 0-19.508 0-30 0v120c-10.492 0-19.508 0-30 0 0-14.518 0-105.387 0-120-10.492 0-19.508 0-30 0v150h90c0-10.128 0-139.871 0-150z"/><path d="m292.5 53.289c8.183 26.186 25.39 81.249 30.222 96.711h44.778c0-10.128 0-139.871 0-150-10.492 0-19.508 0-30 0v96.711c-8.183-26.186-25.39-81.249-30.222-96.711-14.934 0-29.855 0-44.778 0v150h30c0-26.188 0-81.253 0-96.711z"/><path d="m345.304 360c-14.981 0-30.019 0-45 0v150h45c24.813 0 45-20.186 45-45 0-11.151-4.103-21.754-11.495-30 7.382-8.236 11.495-18.835 11.495-30 0-24.812-20.186-45-45-45zm0 120c-5.246 0-9.754 0-15 0 0-10.492 0-19.508 0-30h15c8.272 0 15 6.729 15 15s-6.728 15-15 15zm0-60c-5.246 0-9.754 0-15 0 0-10.492 0-19.508 0-30h15c8.272 0 15 6.729 15 15s-6.728 15-15 15z"/><path d="m210.304 405c0-24.812-20.186-45-45-45-7.259 0-52.693 0-60 0v150h30c0-16.188 0-32.326 0-48.507 9.289 5.573 17.27 10.361 26.558 15.935 11.375 6.825 18.442 19.306 18.442 32.572h30c0-23.742-12.646-46.081-33.007-58.297-.103-.062-4.175-2.505-4.036-2.422 21.123-3.786 37.043-22.277 37.043-44.281zm-45 15c-10.492 0-19.508 0-30 0 0-10.492 0-19.508 0-30h30c8.271 0 15 6.729 15 15s-6.728 15-15 15z"/><path d="m495.304 390c0-10.492 0-19.508 0-30-20.194 0-63.236 0-75 0v150h75c0-10.492 0-19.508 0-30-14.981 0-30.019 0-45 0 0-10.492 0-19.508 0-30h45c0-10.492 0-19.508 0-30-14.981 0-30.019 0-45 0 0-10.492 0-19.508 0-30z"/><path d="m14.696 510h60c0-10.492 0-19.508 0-30-10.492 0-19.508 0-30 0 0-10.889 0-79.039 0-90h30c0-10.492 0-19.508 0-30-7.259 0-52.693 0-60 0z"/><path d="m240.304 360v150h30c0-10.128 0-139.871 0-150-5.246 0-24.754 0-30 0z"/></g></svg>