<svg id="Layer_1" enable-background="new 0 0 510 510" height="512" viewBox="0 0 510 510" width="512" xmlns="http://www.w3.org/2000/svg"><g><path d="m219.307 389.452 19.167-39.171-26.948-13.185-26.361 53.874 17.557 29.03h52.278v-30h-35.361z"/><path d="m313.475 306.441-25.171-51.441h-36.608l-25.17 51.44 26.948 13.185 16.526-33.775 16.527 33.777z"/><path d="m301.527 350.283 19.166 39.169-.332.548h-35.361v30h52.278l17.557-29.03-26.36-53.872z"/><path d="m165 210h210v-150h-210zm30-120h150v90h-150z"/><path d="m435 480v-480h-330v83.787l-60 60v276.213h60v60h-30v30h390v-30zm-330-225h-30v-30h30zm0-128.787v68.787h-30v-38.787zm-30 263.787v-105h30v105zm60 90v-450h270v450z"/><path d="m225 120h30v30h-30z"/><path d="m285 120h30v30h-30z"/></g></svg>