<svg id="Capa_1" enable-background="new 0 0 512 512" height="512" viewBox="0 0 512 512" width="512" xmlns="http://www.w3.org/2000/svg"><g><path d="m375.542 237.994c0-65.915-53.626-119.541-119.542-119.541s-119.542 53.626-119.542 119.541v53h239.083v-53zm-119.542-89.541c35.852 0 66.845 21.183 81.134 51.688l-11.44 5.527-34.847-16.836-34.847 16.836-34.847-16.836-34.847 16.836-11.44-5.527c14.289-30.505 45.282-51.688 81.134-51.688zm89.542 112.541h-179.084v-23c0-2.835.139-5.637.398-8.405l19.45 9.397 34.847-16.836 34.847 16.836 34.847-16.836 34.847 16.836 19.45-9.397c.259 2.768.397 5.571.397 8.405v23z"/><path d="m503.672 332.883c-18.842-9.725-44.219-13.484-68.13-11.298v-60.312c5.361-107.666-78.335-218.366-155.162-255.336-15.265-7.909-33.496-7.907-48.764-.002-12.383 6.412-55.782 31.145-94.315 80.212-57.46 70.345-64.221 148.469-60.842 235.438-27.846-2.583-54.522 2.76-76.458 15.599v174.811h512v-174.811zm-397.214-71.611c-4.613-96.879 70.216-195.248 138.954-228.695 6.63-3.434 14.547-3.433 21.178-.002 11.027 5.71 49.712 27.783 84.515 72.101 55.228 67.269 56.826 140.858 54.436 223.241-4.076 1.436-7.972 3.086-11.616 4.967-22.158 11.605-60.896 11.604-83.053-.001-30.77-15.881-78.975-15.882-109.747.001-22.16 11.605-60.894 11.604-83.053-.001-3.644-1.881-7.538-3.531-11.613-4.966v-66.645zm-2.149 98.268c30.853 16.119 79.235 16.156 110.166.215 21.99-11.55 60.57-11.571 82.635-.215 30.855 16.119 79.233 16.156 110.166.215 19.582-10.279 52.167-11.412 74.725-3.579v49.735c-28.822-7.184-63.849-4.532-88.075 7.973-22.158 11.604-60.897 11.605-83.053-.001-30.927-15.939-79.305-15.904-110.16.215-22.07 11.356-60.65 11.339-82.64-.215-24.225-12.503-59.25-15.156-88.073-7.972v-49.735c22.367-7.798 54.857-6.678 74.309 3.364zm-74.309 122.454v-44.807c22.563-7.836 55.146-6.714 74.728 3.568 30.928 15.94 79.305 15.903 110.16-.215 21.901-11.303 60.324-11.304 82.222-.002 15.544 8.118 35.346 12.117 55.29 12.128 19.94-.011 39.748-4.009 55.289-12.126 19.458-10.042 51.947-11.155 74.312-3.354v44.807h-452.001z"/></g></svg>