<svg id="Capa_1" enable-background="new 0 0 512 512" height="512" viewBox="0 0 512 512" width="512" xmlns="http://www.w3.org/2000/svg"><g><path d="m361 28.205c-39.67 0-77.079 15.437-105 42.862-27.921-27.425-65.33-42.862-105-42.862-83.262 0-151 67.29-151 150 0 41.673 16.686 80.395 47.01 109.056l208.99 196.534 209.017-196.561c30.297-28.635 46.983-67.356 46.983-109.029 0-82.711-67.738-150-151-150zm83.438 237.201-188.438 177.208-188.41-177.182c-24.24-22.911-37.59-53.889-37.59-87.227 0-66.168 54.28-120 121-120 36.395 0 70.416 16.247 93.339 44.576l11.661 14.409 11.661-14.41c22.923-28.328 56.944-44.575 93.339-44.575 66.72 0 121 53.832 121 120 0 33.338-13.35 64.316-37.562 87.201z"/><path d="m297.674 212.392c-8.462-32.798-30.263-53.648-31.404-54.72l-10.27-9.647-10.27 9.646c-1.141 1.072-22.942 21.922-31.404 54.72-29.686-18.086-61.88-20.135-63.55-20.229l-16.763-.944.944 16.763c3.263 57.961 43.799 120.223 121.042 120.223 76.83 0 117.767-62.037 121.042-120.223l.944-16.763-16.763.944c-1.668.094-33.862 2.143-63.548 20.23zm-129.407 13.05c12.82 3.275 29.73 9.693 43.171 22.091 1.596 17.569 7.44 33.388 13.813 45.975-36.978-12.359-51.433-46.348-56.984-68.066zm87.733 61.775c-7.12-12.051-15-29.742-15-49.012 0-19.323 8.039-35.513 15.048-45.957 6.988 10.373 14.952 26.471 14.952 45.957 0 19.27-7.88 36.961-15 49.012zm30.749 6.291c6.372-12.587 12.216-28.405 13.813-45.974 13.35-12.296 30.296-18.722 43.155-22.028-5.563 21.721-20.026 55.656-56.968 68.002z"/></g></svg>