<svg id="Capa_1" enable-background="new 0 0 510 510" height="512" viewBox="0 0 510 510" width="512" xmlns="http://www.w3.org/2000/svg"><g><path d="m360.001 0h-210c-49.626 0-90 40.374-90 90h-.001v82.75c0 44.617 8.265 88.298 24.567 129.829l35.433 90.265v117.156h270v-115.461l24.73-37.088c23.073-34.612 35.27-74.894 35.27-116.49v-150.807c0-50.645-41.187-90.154-89.999-90.154zm-210 30h210c33.084 0 60 26.916 60 60h-.001v.077c0 33.048-26.94 59.923-59.999 59.923h-210c-33.084 0-60-26.916-60-60s26.916-60 60-60zm24.652 345h-29.427l-29.022-73.934c107.583-96.281 154.132-22.976 122.479 10.474-28.634 30.26-51.061 52.477-64.03 63.46zm185.347 105h-30v-45h-30v45h-30v-45h-30v45h-30v-45h-30v45h-30v-75h210zm29.77-139.19-22.797 34.19h-148.304c13.885-13.634 29.055-29.367 41.803-42.841 52.893-55.894-16.931-175.058-155.256-61.087-10.098-31.785-15.216-64.762-15.216-98.322v-15.732c16 14.282 36.97 22.982 60.001 22.982h210c23.03 0 43.999-8.699 59.999-22.979v83.939c0 35.655-10.454 70.183-30.23 99.85z"/></g></svg>