<svg id="Capa_1" enable-background="new 0 0 512 512" height="512" viewBox="0 0 512 512" width="512" xmlns="http://www.w3.org/2000/svg"><g><path d="m466 210c0-115.794-94.206-210-210-210s-210 94.206-210 210c0 64.179 28.949 121.714 74.464 160.266l-55.459 71.281 77.445 19.361 40.874 51.092 51.117-93.1c7.089.726 14.282 1.1 21.56 1.1s14.47-.374 21.56-1.1l51.117 93.1 40.874-51.092 77.445-19.361-55.459-71.281c45.513-38.552 74.462-96.087 74.462-160.266zm-287.324 248.167-19.126-23.908-42.555-10.639 27.69-35.631c17.91 11.241 37.621 19.865 58.602 25.309zm-102.676-248.167c0-99.252 80.748-180 180-180s180 80.748 180 180-80.748 180-180 180-180-80.748-180-180zm319.005 213.621-42.555 10.555-19.126 23.991-24.611-44.869c20.982-5.444 40.693-14.067 58.602-25.309z"/><path d="m256 60c-82.71 0-150 67.29-150 150s67.29 150 150 150 150-67.29 150-150-67.29-150-150-150zm0 270c-66.168 0-120-53.832-120-120s53.832-120 120-120 120 53.832 120 120-53.832 120-120 120z"/><path d="m283.705 171.868-27.705-55.409-27.705 55.409-61.258 9.226 44.136 43.471-10.157 61.113 54.984-28.545 54.984 28.544-10.157-61.113 44.136-43.471zm-12.153 59.537-15.552-8.073-15.552 8.074 2.873-17.286-12.484-12.296 17.327-2.61 7.836-15.673 7.836 15.673 17.327 2.61-12.484 12.296z"/></g></svg>