<svg id="Capa_1" enable-background="new 0 0 512 512" height="512" viewBox="0 0 512 512" width="512" xmlns="http://www.w3.org/2000/svg"><g><path d="m459.5 100.667h-85.667l-22.5 30v-130.667h-190.666v130.667l-22.5-30h-85.667l-52.5 70v170.666l52.5 70h85.667l22.5-30v130.667h190.667v-130.667l22.5 30h85.666l52.5-70v-170.666zm-70.667 30h55.667l22.5 30h-100.667zm-37.5 190.666v-130.666h130.667v130.666zm-190.666-130.666v130.666h-130.667v-130.666zm30 0h130.667v130.666h-130.667zm130.666-160.667v130.667h-130.666v-130.667zm-253.833 100.667h55.667l22.5 30h-100.667zm55.667 250.666h-55.667l-22.5-30h100.667zm67.5 100.667v-130.667h130.667v130.667zm253.833-100.667h-55.667l-22.5-30h100.667z"/></g></svg>