<svg id="Layer_1" enable-background="new 0 0 510 510" height="512" viewBox="0 0 510 510" width="512" xmlns="http://www.w3.org/2000/svg"><path id="XMLID_97_" d="m510 0h-510v90h30v420h450c0-156.17 0-264.932 0-420h30zm-450 90h180v30h-180zm210 150v-30h120v30zm120 30v30h-120v-30zm-120-90v-30h120v30zm0-60v-30h120v30zm-210 30h180v30h-180zm0 60h180v30h-180zm180 60v30h-180v-30zm-180 60h180v150h-180zm390 150h-180v-150h120v60h30v-60h30zm0-180h-30v-30h30zm0-60h-30v-30h30zm0-60h-30v-30h30zm0-60h-30v-30h30zm30-60h-450v-30h450z"/></svg>