<svg id="Capa_1" enable-background="new 0 0 510 510" height="512" viewBox="0 0 510 510" width="512" xmlns="http://www.w3.org/2000/svg"><g><path d="m318.981 281.502 55.969-26.502-55.969-26.502 20.836-58.314-58.315 20.835-26.502-55.969-26.502 55.969-58.315-20.835 20.836 58.314-55.969 26.502 55.969 26.502-20.836 58.314 58.315-20.835 26.502 55.969 26.502-55.969 58.315 20.835zm-28.732 8.748-24.236-8.659-11.013 23.26-11.014-23.26-24.236 8.659 8.66-24.236-23.26-11.014 23.26-11.014-8.66-24.236 24.236 8.659 11.014-23.26 11.014 23.26 24.236-8.659-8.66 24.236 23.26 11.014-23.26 11.014z"/><path d="m240 60h30v45h-30z"/><path d="m240 0h30v30h-30z"/><path d="m118.024 110.524h30v45h-30z" transform="matrix(.707 -.707 .707 .707 -55.1 133.024)"/><path d="m70.294 70.294h30v30h-30z" transform="matrix(.707 -.707 .707 .707 -35.33 85.292)"/><path d="m60 240h45v30h-45z"/><path d="m0 240h30v30h-30z"/><path d="m110.524 361.976h45v30h-45z" transform="matrix(.707 -.707 .707 .707 -227.599 204.473)"/><path d="m70.294 409.705h30v30h-30z" transform="matrix(.707 -.707 .707 .707 -275.336 184.714)"/><path d="m240 405h30v45h-30z"/><path d="m240 480h30v30h-30z"/><path d="m361.976 354.476h30v45h-30z" transform="matrix(.707 -.707 .707 .707 -156.149 376.976)"/><path d="m409.705 409.705h30v30h-30z" transform="matrix(.707 -.707 .707 .707 -175.919 424.693)"/><path d="m405 240h45v30h-45z"/><path d="m480 240h30v30h-30z"/><path d="m354.476 118.024h45v30h-45z" transform="matrix(.707 -.707 .707 .707 16.35 305.521)"/><path d="m409.705 70.294h30v30h-30z" transform="matrix(.707 -.707 .707 .707 64.087 325.303)"/><path d="m168.247 44.272h30v75h-30z" transform="matrix(.924 -.383 .383 .924 -17.344 76.351)"/><path d="m66.772 145.747h30v75h-30z" transform="matrix(.383 -.924 .924 .383 -118.819 188.67)"/><path d="m44.272 311.753h75v30h-75z" transform="matrix(.924 -.383 .383 .924 -118.818 56.165)"/><path d="m145.747 413.227h75v30h-75z" transform="matrix(.383 -.924 .924 .383 -282.509 433.65)"/><path d="m311.753 390.728h30v75h-30z" transform="matrix(.924 -.383 .383 .924 -139.004 157.642)"/><path d="m413.227 289.253h30v75h-30z" transform="matrix(.383 -.924 .924 .383 -37.528 597.341)"/><path d="m390.728 168.247h75v30h-75z" transform="matrix(.924 -.383 .383 .924 -37.529 177.822)"/><path d="m289.253 66.772h75v30h-75z" transform="matrix(.383 -.924 .924 .383 126.162 352.36)"/></g></svg>