<?xml version="1.0" encoding="iso-8859-1"?>
<!-- Generator: Adobe Illustrator 19.0.0, SVG Export Plug-In . SVG Version: 6.00 Build 0)  -->
<svg xmlns="http://www.w3.org/2000/svg" xmlns:xlink="http://www.w3.org/1999/xlink" version="1.1" id="Layer_1" x="0px" y="0px" viewBox="0 0 512 512" style="enable-background:new 0 0 512 512;" xml:space="preserve">
<g>
	<g>
		<path d="M384.112,319.57c84.462-84.461,84.462-221.89,0-306.351L372.684,1.792L336.62,37.856C306.912,13.34,269.95,0,230.936,0    c-44.446,0-86.231,17.308-117.658,48.736C81.85,80.164,64.542,121.949,64.542,166.395c0,39.014,13.34,75.976,37.856,105.684    l-36.064,36.064l11.427,11.427c42.23,42.231,97.703,63.346,153.175,63.346c2.404,0,4.806-0.054,7.208-0.134v44.459h-66.94V512    h166.204v-84.759h-66.94v-47.946C312.128,371.622,351.959,351.723,384.112,319.57z M96.865,166.394    c0-35.813,13.946-69.48,39.268-94.803c25.323-25.323,58.991-39.269,94.804-39.269c35.813,0,69.48,13.946,94.804,39.269    c52.275,52.275,52.275,137.332,0,189.606c-25.324,25.323-58.992,39.269-94.804,39.269s-69.48-13.946-94.803-39.269    C110.811,235.875,96.865,202.207,96.865,166.394z M305.085,459.564v20.113H203.527v-20.113H305.085z M112.54,307.646    l12.713-12.711c29.708,24.516,66.67,37.855,105.684,37.855c44.446,0,86.231-17.309,117.659-48.736    c61.021-61.022,64.64-158.034,10.871-223.333L372.188,48c60.718,72.333,57.077,180.707-10.93,248.715    C293.248,364.722,184.877,368.365,112.54,307.646z"/>
	</g>
</g>
<g>
</g>
<g>
</g>
<g>
</g>
<g>
</g>
<g>
</g>
<g>
</g>
<g>
</g>
<g>
</g>
<g>
</g>
<g>
</g>
<g>
</g>
<g>
</g>
<g>
</g>
<g>
</g>
<g>
</g>
</svg>
