<svg id="Capa_1" enable-background="new 0 0 512 512" height="512" viewBox="0 0 512 512" width="512" xmlns="http://www.w3.org/2000/svg"><g><path d="m422 0h-30v45.25h-136v30h136v30.25h-106v30h81.825l-33.711 30.25h-156.228l-33.711-30.25h111.825v-30h-136v-30.25h106v-30h-106v-45.25h-30v127.193l143.54 128.807-143.54 128.807v127.193h30v-45.25h106v-30h-106v-30.25h136v-30h-111.825l33.711-30.25h156.229l33.711 30.25h-81.826v30h106v30.25h-136v30h136v45.25h30v-127.193l-143.54-128.807 143.54-128.807zm-121.317 316.25h-89.365l44.682-40.096zm-89.366-120.5h89.365l-44.682 40.096z"/></g></svg>