<svg id="Capa_1" enable-background="new 0 0 512 512" height="512" viewBox="0 0 512 512" width="512" xmlns="http://www.w3.org/2000/svg"><g><path d="m512 331.25v-331.25h-512v331.25h60.25v30.25h-60.25v150.5h512v-150.5h-60.25v-30.25zm-30 60.25v90.5h-452v-90.5zm-391.75-30v-30.25h331.5v30.25zm-60.25-60.25v-271.25h452v271.25z"/><path d="m241 150.626h30v30h-30z"/><path d="m256 105.355c-59.518 2.358-94.546 44.468-108.633 60.271 3.581 2.311 41.282 57.82 108.633 60.271 59.518-2.358 94.546-44.468 108.633-60.271-3.581-2.31-41.282-57.819-108.633-60.271zm0 90.542c-28.094-.793-50.142-15.697-67.19-30.262 13.552-11.9 39.041-30.28 67.19-30.28 28.155.845 48.995 14.995 67.191 30.263-13.544 11.893-39.037 30.279-67.191 30.279z"/><path d="m60.25 421.75h30v30h-30z"/><path d="m120.5 421.75h30v30h-30z"/><path d="m180.75 421.75h150.5v30h-150.5z"/><path d="m361.5 421.75h30v30h-30z"/><path d="m421.75 421.75h30v30h-30z"/><path d="m60.25 271h391.5v-210.75h-391.5zm30-180.75h331.5v150.75h-331.5z"/></g></svg>