<svg id="Capa_1" enable-background="new 0 0 512 512" height="512" viewBox="0 0 512 512" width="512" xmlns="http://www.w3.org/2000/svg"><g><path d="m347.764 482v-54.034h126.559l-76.438-97.994h37.445l-66.22-93.559h40.529l-69.254-87.775h39.904l-124.289-148.638-124.29 148.638h39.905l-69.254 87.775h28.844c-9.057 12.748-18.17 30.809-22.281 54.949-12.819-10.35-29.076-16.606-46.77-16.699l-18.859-.069 4.155 18.402c.097.43 9.525 43.417-4.624 87.061-7.402 22.835-6.516 47.572 2.497 69.655 4.986 12.218 12.295 23.153 21.393 32.288h-66.716v30h512v-30zm65.111-84.034h-123.183c-.81-6.043-2.156-12.039-4.059-17.908-5.751-17.743-7.606-35.377-7.776-50.086h81.982zm-35.533-97.994h-97.543c.635-4.345 1.184-6.851 1.205-6.946l4.225-18.362h-20.514c-17.918 0-34.415 6.336-47.373 16.876-4.339-23.896-13.771-42.182-22.92-55.126h137.934zm-121.342-253.204 60.098 71.87h-120.195zm-46.172 101.87h92.343l45.585 57.775h-183.512zm-47.181 332.239c-14.812 0-26.863-12.051-26.863-26.862 0-8.287 12.486-28.608 26.863-47.112 14.378 18.506 26.863 38.825 26.863 47.112 0 14.811-12.051 26.862-26.863 26.862zm59.797-7.102c-2.569 1.257-5.186 2.36-7.844 3.311 3.146-7.057 4.91-14.86 4.91-23.071 0-4.755 0-19.224-23.69-52.675-10.8-15.25-33.173-40.697-33.173-40.697s-22.373 25.447-33.172 40.697c-23.69 33.451-23.69 47.92-23.69 52.675 0 7.642 1.525 14.931 4.271 21.594-1.359-.57-2.706-1.181-4.04-1.834-30.522-14.936-45.419-51.248-34.65-84.466 10.087-31.117 10.146-61.292 8.484-80.866 15.318 6.715 26.226 21.678 27.1 39.199h30.063v-17.822l-.03-.952c-2.912-45.801 14.734-72.169 25.908-84.085 11.348 12.6 29.531 39.994 26.592 84.038l-.028 18.82h30.064c.918-18.301 12.798-33.796 29.167-40.035-1.734 19.544-1.821 50.14 8.411 81.702 10.767 33.218-4.129 69.531-34.653 84.467zm95.32 8.225h-56.02c9.098-9.135 16.407-20.07 21.394-32.288 2.868-7.029 4.905-14.327 6.122-21.746h28.504z"/></g></svg>