<svg id="Capa_1" enable-background="new 0 0 512 512" height="512" viewBox="0 0 512 512" width="512" xmlns="http://www.w3.org/2000/svg"><g id="XMLID_74_"><path id="XMLID_1301_" d="m256 66.333c-26.1 0-47.333 21.234-47.333 47.334s21.233 47.333 47.333 47.333 47.333-21.233 47.333-47.333-21.233-47.334-47.333-47.334zm0 64.667c-9.558 0-17.333-7.775-17.333-17.333s7.775-17.334 17.333-17.334 17.333 7.776 17.333 17.334-7.775 17.333-17.333 17.333z"/><path id="XMLID_1315_" d="m374.823 481.667-95.464-208.649h75.641v-30h-43v-26.685h69.333v-192.333h-64.859l-20-20.625h-81.197l-20 20.625h-16.277v-24h-30v24h-18.333v192.333h69.333v56.685h32.641l-95.464 208.649h-29.177v30h87.333v-30h-25.165l70.832-154.812v85.491h-17.5v30h17.5v69.654h30v-69.654h17.5v-30h-17.5v-85.491l70.832 154.812h-25.165v30h87.333v-30zm-214.156-295.334v-132.333h47.307l20-20.625h55.803l20 20.625h47.557v132.333zm69.333 30h52v26.685h-52z"/></g></svg>