<svg id="Capa_1" enable-background="new 0 0 510.998 510.998" height="512" viewBox="0 0 510.998 510.998" width="512" xmlns="http://www.w3.org/2000/svg"><path id="XMLID_1129_" d="m444.351 95.751h-28.234c-.387-22.206-14.695-41.075-34.56-48.225-.03-22.582-16.089-42.306-38.597-46.657-19.173-3.704-38.295 4.682-48.735 20.417-19.157 3.321-34.633 18.073-38.466 37.901-2.11 10.917-.31 22.08 4.842 31.641-2.621 4.541-4.48 9.512-5.495 14.765-4.985 25.794 11.944 50.835 37.737 55.819 3.02.584 6.053.875 9.082.875.716 0 1.432-.022 2.148-.055-14.009 31.768-45.8 54.002-82.691 54.002h-124.735v-69.963h-30v109.187c0 76.249 49.682 143.654 121.742 166.547 7.402 15.83 21.334 27.321 38.003 31.672v57.321h60.392v-30h-30.392v-27.321c16.669-4.351 30.601-15.842 38.003-31.672 72.061-22.892 121.743-90.298 121.743-166.547v-129.707h28.211v-30zm-139.091 36.21c-2.215.433-4.477.43-6.725-.004-9.553-1.846-15.821-11.119-13.976-20.672.694-3.591 2.453-6.825 5.088-9.355l10.937-10.502-10.62-10.823c-4.075-4.153-5.852-10.031-4.751-15.724 1.656-8.567 9.186-14.566 17.87-14.288l10.558.351 3.888-9.822c3.113-7.864 11.411-12.404 19.737-10.797 7.794 1.507 13.488 7.984 14.208 15.642-22.8 5.599-39.768 26.203-39.768 50.705v29.236c0 1.52-.039 3.032-.114 4.534zm-21.798 96.985.082.406.189.817c1.999 7.626.474 15.646-4.185 22.006-4.658 6.359-11.846 10.233-19.719 10.627l-9.781.49-4.376 11.487c-2.571 6.747-7.658 11.993-14.323 14.772-6.664 2.776-13.97 2.698-20.572-.224l-18.154-8.034-6.388 3.307c-.077.04-8.152 4.013-18.021 4.517-12.448.625-21.479-4.282-28.402-15.48l-6.202-11.095-11.704 4.89c-1.952.603-13.333 3.496-25.162-6.867-.06-1.697-.097-3.399-.097-5.107v-9.224h124.733c22.698 0 43.946-6.32 62.082-17.288zm102.678 26.512c0 65.302-43.982 122.771-106.956 139.754l-8.032 2.166-2.416 7.959c-3.62 11.929-14.864 20.259-27.342 20.259-12.479 0-23.722-8.33-27.342-20.258l-2.416-7.96-8.032-2.166c-49.243-13.28-86.871-51.316-100.94-98.494 6.467 1.558 12.6 1.84 17.928 1.376 12.411 14.599 29.526 21.983 49.154 20.984 9.503-.485 17.735-2.817 23.228-4.823l5.665 2.507c7.291 3.227 14.978 4.842 22.675 4.842 7.298 0 14.605-1.453 21.583-4.362 12.305-5.13 22.11-14.172 28.14-25.81 13.053-2.966 24.648-10.514 32.717-21.529 9.933-13.561 13.244-30.63 9.114-46.904l-3.147-15.485c19.841-21.463 31.986-50.14 31.986-81.604v-29.238c0-12.25 9.967-22.217 22.217-22.217s22.217 9.967 22.217 22.217v158.786z"/></svg>