<svg id="Capa_1" enable-background="new 0 0 510 510" height="512" viewBox="0 0 510 510" width="512" xmlns="http://www.w3.org/2000/svg"><g><path d="m330 150c0-82.71-67.29-150-150-150s-150 67.29-150 150v172.98c-18.401 16.491-30 40.424-30 67.02v120h510v-210h-180zm-270 0c0-66.168 53.831-120 120-120s120 53.832 120 120v150h-60v-37.98c18.401-16.49 30-40.424 30-67.02v-68.493l-90-54-90 54v68.493c0 26.596 11.599 50.529 30 67.02v37.98h-30c-10.515 0-20.612 1.818-30 5.147zm120 105c-33.084 0-60-26.916-60-60v-51.507l60-36 60 36v51.507c0 33.084-26.916 60-60 60zm-30 24.853c18.821 6.674 40.106 7.055 60 0v35.147c0 7.797-14.796 20.185-29.999 28.289-15.212-8.11-30.001-20.494-30.001-28.289zm-120 200.147v-30h45v30zm75 0v-60h-75v-30c0-33.084 26.916-60 60-60h33.157c4.248 10.026 12.775 19.725 25.547 28.971 12.361 8.947 24.649 14.488 25.166 14.72l6.129 2.744 6.129-2.744c.499-.224 11.96-5.392 23.871-13.795v120.104zm375-90h-45v30h45v60h-240v-60h45v-30h-45v-60h240z"/><path d="m360 450c24.813 0 45-20.186 45-45s-20.187-45-45-45-45 20.186-45 45 20.187 45 45 45zm0-60c8.271 0 15 6.728 15 15s-6.729 15-15 15-15-6.728-15-15 6.729-15 15-15z"/><path d="m420 60h90v-30h-60v-30h-30v30c-33.084 0-60 26.916-60 60s26.916 60 60 60h30c16.542 0 30 13.458 30 30s-13.458 30-30 30h-90v30h60v30h30v-30c33.084 0 60-26.916 60-60s-26.916-60-60-60h-30c-16.542 0-30-13.458-30-30s13.458-30 30-30z"/></g></svg>