<svg id="Capa_1" enable-background="new 0 0 512 512" height="512" viewBox="0 0 512 512" width="512" xmlns="http://www.w3.org/2000/svg"><g><path d="m437.012 317.465c41.485-.813 74.988-34.789 74.988-76.465h-30c0 22.91-16.657 41.99-38.494 45.799l10.778-75.799h-45.552c.122-3.506.012-7.349-.476-11.451-1.923-16.146-10.182-39.604-38.605-59.669-12.928-9.127-22.428-12.843-30.811-16.122-11.809-4.62-21.136-8.269-40.569-30.399-17.528-19.964-27.078-43.85-27.165-44.068l-4.988-12.734-13.14 3.794c-24.6 7.102-41.012 27.458-49.608 41.115-14.682-8.047-25.88-20.819-26.001-20.958l-8.08-9.391-10.749 6.159c-55.159 31.609-66.045 78.044-65.465 111.432.284 16.364 3.323 31.103 6.541 42.293h-41.9l10.777 75.799c-21.836-3.81-38.493-22.89-38.493-45.8h-30c0 41.676 33.503 75.652 74.988 76.465 17.453 58.595 61.961 105.311 120.012 124.773v9.762c0 16.542-13.458 30-30 30h-59v30h300v-30h-59c-16.542 0-30-13.458-30-30v-9.762c58.052-19.462 102.559-66.178 120.012-124.773zm-23.607-32.072c-2.289 16.098-6.925 31.424-13.552 45.607h-68.853v-90h88.716zm-219.574-114.601c14.163 7.847 41.692 20.48 74.056 21.829 19.642.818 30.413 9.625 36.3 18.379h-121.035c-.586-11.327.571-28.432 10.679-40.208zm107.169 70.208v90h-90v-90zm-177.928-72.814c-.576-33.147 13.125-59.609 40.754-78.806 9.136 8.396 24.275 20.196 41.83 25.508l12.712 3.795 5.368-12.125c.036-.081 3.649-8.168 10.487-16.967 3.764-4.845 9.072-10.606 15.634-14.979 5.401 10.46 14.05 25.076 25.872 38.541 24.249 27.616 38.449 33.172 52.183 38.544 7.451 2.914 14.488 5.667 24.438 12.691 15.118 10.673 23.848 23.271 25.948 37.443.501 3.383.559 6.492.403 9.169h-41.352c-1.719-4.813-4.232-10.388-7.895-16.032-9.071-13.977-26.899-30.929-60.317-32.321-37.333-1.556-68.053-22.468-68.33-22.658l-8.456-5.895-8.534 5.781c-27.713 18.773-31.469 50.9-30.697 71.125h-22.031c-3.251-9.105-7.704-24.751-8.017-42.814zm-30.788 72.814h88.716v90h-68.852c-6.628-14.184-11.264-29.509-13.553-45.607zm124.644 241c5.123-8.833 8.072-19.075 8.072-30v-5.904h62v5.904c0 10.925 2.949 21.167 8.072 30zm82.968-65.904h-87.792c-33.054-9.259-61.37-28.872-81.652-55.096h251.097c-20.283 26.224-48.599 45.837-81.653 55.096z"/><path d="m241 271h30v30h-30z"/><path d="m361 271h30v30h-30z"/><path d="m121 271h30v30h-30z"/><path d="m331 0h30v30h-30z"/><path d="m361 60h30v30h-30z"/><path d="m75 30h30v30h-30z"/></g></svg>