<svg id="Capa_1" enable-background="new 0 0 511.966 511.966" height="512" viewBox="0 0 511.966 511.966" width="512" xmlns="http://www.w3.org/2000/svg"><g><path d="m436.314 328.482c37.584-68.206 13.589-146.964-47.023-194.988v-34.524c0-54.57-44.4-98.97-98.98-98.97-54.57 0-98.97 44.4-98.97 98.97v34.522c-38.387 31.634-61.692 70.84-64.837 117.287-53.594-34.734-127.093 5.504-126.462 69.782-.001 28.899 14.939 54.379 37.499 69.109v77.39c.313 43.968 56.549 61.35 81.7 26h392.35c3.75-64.536-23.951-127.335-75.277-164.578zm-16.513-101.011c8.303 28.419 5.173 57.87-9.044 85.137-8.713-4.714-32.694-14.199-42.136-18.278-17.38-7.21-28.197-24.573-27.43-43.32 26.618-16.009 45.117-44.166 47.769-76.753 14.794 16.157 25.277 34.166 30.841 53.214zm-292.26 162.199c12.38-8.08 22.46-19.4 29.03-32.74 11.42-9.27 24.27-17.03 38.33-22.91 3.041-1.334 30.945-12.792 33.138-14.039l47.275 59.023v84.056h-147.773zm120.427-286.136c31.044 0 76.34-5.388 105.236-32.878 3.909 8.649 6.088 18.236 6.088 28.314v56.74h-137.95v-53.497c6.046.617 15.402 1.321 26.626 1.321zm108.493 82.176c-19.843 65.482-112.474 65.448-132.289 0zm-66.227 163.933-38.552-48.133c9.23-10.84 15.27-24.25 17.14-38.75 13.749 3.137 29.241 3.135 42.99 0 1.84 14.31 7.75 27.559 16.779 38.329zm.077-319.643c17 0 32.6 6.19 44.64 16.44.002.002.004.003.006.005-21.387 25.197-77.013 29.59-108.352 26.108 10.381-24.966 35.029-42.553 63.706-42.553zm-129.483 197.471c5.564-19.049 16.048-37.059 30.843-53.216v.005c2.65 32.59 21.16 60.75 47.77 76.75.766 18.748-10.05 36.11-27.43 43.32-9.563 4.095-33.26 13.517-42.137 18.279-14.218-27.268-17.349-56.718-9.046-85.138zm-130.787 93.089c2.881-69.646 102.127-69.632 105 0 .146 20.163-12.021 39.028-30.1 47.47-33.933 16.652-75.401-9.507-74.9-47.47zm37.5 81.13c9.689 1.817 20.275 1.828 30 0v65.37c0 8.27-6.73 15-15 15-8.34.017-15.039-6.876-15-15zm237.774 61.37v-84.112l46.781-59.216c2.54 1.504 30.262 12.782 33.636 14.288 53.57 22.42 89.71 72.08 95.14 129.04z"/></g></svg>