<svg id="Capa_1" enable-background="new 0 0 511.999 511.999" height="512" viewBox="0 0 511.999 511.999" width="512" xmlns="http://www.w3.org/2000/svg"><g><path d="m413.784 511.999h-222.221l-4.151-3.411c-15.172-12.469-27.503-28.508-35.66-46.384-9.688-21.234-25.032-39.405-44.374-52.549l-19.899-13.522c-11.57-7.862-19.385-19.76-22.007-33.501-2.622-13.74.265-27.68 8.127-39.249 16.231-23.884 48.866-30.11 72.75-13.88l16.901 11.486v-69.73c0-17.979 7.956-34.852 21.826-46.291 13.871-11.438 31.95-16.033 49.598-12.612l3.576.693v-139.904c0-28.525 22.838-52.357 50.909-53.126 14.27-.381 27.759 4.87 37.978 14.812 10.223 9.946 15.852 23.277 15.852 37.537v160.996l55.903 10.843c28.147 5.46 48.576 30.231 48.576 58.902v77.462c0 23.479-.003 65.874-33.685 90.751v60.677zm-211.257-30h181.258v-47.411l7.489-4.333c26.196-15.153 26.196-47.969 26.196-69.684v-77.462c0-14.335-10.215-26.722-24.288-29.451l-80.191-15.554v-185.736c0-6.091-2.405-11.786-6.772-16.034-4.364-4.247-10.137-6.497-16.236-6.326-11.983.328-21.732 10.708-21.732 23.137v176.282l-39.288-7.621c-8.825-1.71-17.863.587-24.799 6.307-6.936 5.719-10.913 14.155-10.913 23.146v132.82l-24.838-21.579c-6.073-5.276-12.474-10.209-19.026-14.661l-19.899-13.523c-10.203-6.932-24.143-4.271-31.076 5.929-3.358 4.942-4.591 10.896-3.472 16.766 1.12 5.87 4.458 10.952 9.401 14.311l19.898 13.522c23.885 16.23 42.837 38.676 54.806 64.908 5.551 12.163 13.615 23.22 23.482 32.247z"/></g></svg>