<svg id="Capa_1" enable-background="new 0 0 512 512" height="512" viewBox="0 0 512 512" width="512" xmlns="http://www.w3.org/2000/svg"><path d="m512 84.101v-30h-51.338l-30.979 30.979c-2.53-.758-5.091-1.427-7.685-1.974l-.828-.15c-25.781-3.947-68.432-11.866-86.953-18.313l-11.533-64.643h-133.368l-11.534 64.642c-18.521 6.447-61.172 14.366-86.953 18.313l-.828.15c-2.594.547-5.154 1.216-7.685 1.974l-30.978-30.978h-51.338v30h38.912l14.836 14.836c-17.731 12.359-31.578 30.256-38.37 50.862-10.474 31.323-10.485 65.828-.031 97.157l.117.339c9.499 26.352 5.331 56.634-.586 85.426-15.193 85.735 4.738 160.362 8.047 179.279h466.643c3.969-26.345 22.334-96.206 7.556-179.272-5.919-28.799-10.087-59.081-.588-85.433l.117-.339c10.455-31.329 10.443-65.834-.01-97.096-6.805-20.646-20.658-38.557-38.392-50.922l14.838-14.837zm-379.889 356.481c3.24-18.646 8.133-87.556-.404-116.189-2.223-7.457-3.454-15.009-4.112-21.746 4.163.758 8.461 1.16 12.859 1.16l79.509-.001c14.04 0 26.778-5.238 36.037-13.849 9.259 8.61 21.998 13.849 36.037 13.849l79.509.001c4.398 0 8.696-.402 12.859-1.16-.658 6.737-1.889 14.29-4.112 21.746-8.537 28.634-3.644 97.544-.404 116.188 2.797 16.1 2.407 31.335 1.565 41.419h-50.204v-52.092c17.457-6.192 29.998-22.864 29.998-42.417 0-24.812-20.186-44.997-44.998-44.997s-44.998 20.186-44.998 44.997c0 19.553 12.54 36.225 29.998 42.417v52.092h-90.5v-52.092c17.457-6.192 29.998-22.864 29.998-42.417 0-24.812-20.186-44.997-44.998-44.997s-44.998 20.186-44.998 44.997c0 19.553 12.54 36.225 29.998 42.417v52.092h-50.226c-.846-10.036-1.229-25.207 1.587-41.418zm169.141-53.092c0-8.27 6.728-14.997 14.998-14.997s14.998 6.728 14.998 14.997-6.728 14.998-14.998 14.998-14.998-6.728-14.998-14.998zm-120.5 0c0-8.27 6.728-14.997 14.998-14.997s14.998 6.728 14.998 14.997-6.728 14.998-14.998 14.998-14.998-6.728-14.998-14.998zm287.419-228.178c8.407 25.142 8.433 52.831.078 77.987-5.482 15.288-7.838 32.111-7.203 51.425.607 18.45 3.895 36.435 6.692 50.041 10.688 52.257 1.491 117.004-3.132 143.234h-53.049c.852-11.949.994-28.685-2.111-46.555-3.306-19.023-6.64-81.563-.404-102.482 5.006-16.79 6.043-33.494 6.057-44.344 12.332-10.045 20.656-24.35 22.358-40.738l4.972-47.897-29.84-3.098-4.972 47.897c-1.689 16.274-17.534 29.023-36.071 29.023l-79.509-.001c-10.907 0-20.181-7.299-21.111-16.615h-29.852c-.931 9.316-10.204 16.615-21.111 16.615l-79.509.001c-18.538 0-34.382-12.749-36.071-29.023l-4.972-47.897-29.84 3.098 4.972 47.897c1.701 16.388 10.026 30.693 22.358 40.738.014 10.85 1.051 27.554 6.057 44.344 6.236 20.919 2.902 83.459-.404 102.483-3.105 17.869-2.962 34.605-2.11 46.554h-53.042c-4.612-26.257-13.838-91.29-3.14-143.233 6.464-31.452 11.455-68.093-.511-101.467-8.355-25.156-8.329-52.847.099-78.049 5.346-16.22 16.907-30.032 31.552-38.661l49.496 49.495c-2.817 5.875-4.397 12.45-4.397 19.388 0 24.812 20.186 44.997 44.998 44.997s44.998-20.186 44.998-44.997c0-24.812-20.186-44.998-44.998-44.998-6.938 0-13.513 1.581-19.388 4.397l-38.26-38.26c28.757-5.02 76.492-12.901 96.772-25.597l9.815-55.014h83.125l9.816 55.016c20.336 12.806 67.936 20.49 96.772 25.597l-38.26 38.26c-5.874-2.817-12.45-4.397-19.388-4.397-24.812 0-44.998 20.186-44.998 44.998s20.186 44.997 44.998 44.997 44.998-20.186 44.998-44.997c0-6.938-1.581-13.513-4.397-19.388l49.495-49.494c14.646 8.632 26.211 22.457 31.572 38.72zm-302.673 15.164c8.27 0 14.998 6.729 14.998 14.998s-6.728 14.997-14.998 14.997-14.998-6.728-14.998-14.997 6.728-14.998 14.998-14.998zm196.002 14.998c0 8.27-6.728 14.997-14.998 14.997s-14.998-6.728-14.998-14.997 6.728-14.998 14.998-14.998 14.998 6.728 14.998 14.998z"/></svg>