<svg id="Layer_1" enable-background="new 0 0 510 510" height="512" viewBox="0 0 510 510" width="512" xmlns="http://www.w3.org/2000/svg"><path d="m444.1 55.781-62.42 41.613 16.641 24.961 27.58-18.387 49.575 185.906h-171.167c-30.431-18.219-68.186-18.219-98.618 0h-171.167l49.575-185.906 27.581 18.387 16.641-24.961-62.42-41.613-65.901 247.128v39.466c3.473 135.711 193.004 153.518 222.738 22.5h64.524c29.79 131.108 219.306 113.11 222.738-22.5v-39.466zm-159.1 257.664v21.43h-60v-21.43c18.867-9.634 41.133-9.634 60 0zm-172.5 111.43c-45.491 0-82.5-37.01-82.5-82.5v-22.5h165v22.5c0 45.49-37.009 82.5-82.5 82.5zm285 0c-45.49 0-82.5-37.01-82.5-82.5v-22.5h165v22.5c0 45.49-37.01 82.5-82.5 82.5z"/></svg>