<svg id="Capa_1" enable-background="new 0 0 512.332 512.332" height="512" viewBox="0 0 512.332 512.332" width="512" xmlns="http://www.w3.org/2000/svg"><g><path d="m367.132 219.838.213-.438 29.966-14.591 14.591-29.966 44.232-21.538-123.141-123.141c-40.219-40.219-105.661-40.219-145.88 0l-142.675 142.675c-40.219 40.219-40.219 105.661 0 145.88l40.903 40.903-71.198 71.197c-18.622 18.622-18.622 48.924 0 67.546 9.311 9.312 21.542 13.967 33.772 13.967 12.231 0 24.462-4.656 33.773-13.967l71.198-71.198 14.693 14.693 21.537-44.232 29.966-14.591 9.995-20.527v149.424h283.076v-292.096zm115.023 168.514-33.2 33.199c-12.124 12.124-18.8 28.243-18.8 45.389v14.994h-31.941v-31.021c0-8.045 3.133-15.608 8.821-21.298l27.7-27.699c23.441-23.44 23.441-61.581 0-85.021-23.44-23.439-61.58-23.44-85.019-.003l-.971.971c-5.688 5.689-13.252 8.822-21.297 8.822h-14.904c-16.06 0-31.157 6.254-42.511 17.608l-10.953 10.953v-45.961h19.223c20.033 0 38.867-7.801 53.033-21.967l37.479-37.479h113.34zm-142.566 16.579c-6.938-6.938-16.163-10.76-25.976-10.76-9.812 0-19.037 3.821-25.963 10.748l-.479.478c-1.271 1.272-2.962 1.973-4.76 1.973h-7.179c-5.694 0-11.187 1.295-16.153 3.731v-13.429l32.167-32.166c5.688-5.688 13.251-8.821 21.297-8.821h14.904c16.059 0 31.156-6.254 42.508-17.606l.971-.971c11.744-11.744 30.852-11.744 42.596 0s11.744 30.852 0 42.596l-27.7 27.699c-11.354 11.355-17.608 26.453-17.608 42.511v31.021h-43.94v-6.95c0-1.799.701-3.489 1.973-4.762l13.342-13.343c6.938-6.938 10.759-16.162 10.759-25.975-.001-9.812-3.822-19.037-10.759-25.974zm-13.2-155.093-16.267 16.267c-8.5 8.499-19.8 13.18-31.82 13.18h-19.223v-29.446h67.31zm-291.032 227.314c-6.925-6.926-6.925-18.194 0-25.12l7.767-7.767 25.12 25.12-7.767 7.767c-6.926 6.925-18.195 6.925-25.12 0zm54.099-28.979-25.12-25.12 42.218-42.218 25.12 25.119zm77.221-72.986-7.645 15.7-93.381-93.381c-28.522-28.522-28.522-74.932 0-103.454l142.675-142.675c14.261-14.261 32.994-21.392 51.727-21.392s37.466 7.131 51.727 21.392l93.381 93.382-15.699 7.644-8.82 18.113-89.204-89.205c-8.383-8.384-19.529-13-31.385-13-11.855 0-23.001 4.616-31.384 13l-133.084 133.084c-8.383 8.383-13 19.528-13 31.384s4.617 23.002 13 31.385l89.204 89.204zm44.557-44.557-6.47 13.287-87.966-87.966c-2.717-2.717-4.213-6.329-4.213-10.172 0-3.842 1.496-7.454 4.213-10.171l133.083-133.084c2.717-2.717 6.33-4.213 10.171-4.213 3.842 0 7.454 1.496 10.171 4.213l87.966 87.967-13.286 6.469-11.14 22.879h-104.684v102.103zm47.845 120.103 11.393-11.393c1.271-1.271 2.961-1.971 4.761-1.971h7.179c9.812 0 19.037-3.821 25.963-10.748l.479-.478c1.715-1.717 3.719-1.973 4.76-1.973 1.042 0 3.045.256 4.762 1.973s1.972 3.72 1.972 4.761c0 1.042-.256 3.046-1.973 4.762l-13.342 13.343c-6.938 6.938-10.759 16.163-10.759 25.975v6.95h-35.195zm201.076 31.201v-14.994c0-9.132 3.557-17.718 10.014-24.176l11.986-11.986v51.156z"/></g></svg>