<?xml version="1.0" encoding="iso-8859-1"?>
<!-- Generator: Adobe Illustrator 19.0.0, SVG Export Plug-In . SVG Version: 6.00 Build 0)  -->
<svg xmlns="http://www.w3.org/2000/svg" xmlns:xlink="http://www.w3.org/1999/xlink" version="1.1" id="Layer_1" x="0px" y="0px" viewBox="0 0 512 512" style="enable-background:new 0 0 512 512;" xml:space="preserve">
<g>
	<g>
		<path d="M429.883,103.36L512,21.243L490.757,0L408.64,82.117L310.691,50.21L71.615,289.286l-34.21-34.21l-21.242,21.243    l78.01,78.011l-50.571,50.572l-22.358-22.358L0,403.786L108.214,512l21.243-21.243L107.1,468.4l50.572-50.572l78.012,78.011    l21.243-21.243l-34.21-34.21l239.076-239.076L429.883,103.36z M85.856,447.156l-21.012-21.012l50.571-50.571l21.013,21.012    L85.856,447.156z M201.471,419.142L92.858,310.529l49.526-49.526l45.032,45.031l21.243-21.244l-45.031-45.03l35.097-35.096    l45.031,45.031l21.243-21.243l-45.032-45.031l35.097-35.097l45.031,45.031l21.243-21.244l-45.031-45.03l42.599-42.599    l81.925,26.689l26.688,81.926L201.471,419.142z"/>
	</g>
</g>
<g>
</g>
<g>
</g>
<g>
</g>
<g>
</g>
<g>
</g>
<g>
</g>
<g>
</g>
<g>
</g>
<g>
</g>
<g>
</g>
<g>
</g>
<g>
</g>
<g>
</g>
<g>
</g>
<g>
</g>
</svg>
