<svg id="Capa_1" enable-background="new 0 0 512 512" height="512" viewBox="0 0 512 512" width="512" xmlns="http://www.w3.org/2000/svg"><g><path d="m256 241c-49.797 0-90.31 40.513-90.31 90.31s40.513 90.31 90.31 90.31 90.31-40.513 90.31-90.31-40.513-90.31-90.31-90.31zm60.31 90.31c0 5.613-.787 11.043-2.229 16.203l-43.081-24.866v-49.757c26.022 6.684 45.31 30.341 45.31 58.42zm-75.31-58.421v49.758l-43.081 24.865c-1.441-5.16-2.229-10.59-2.229-16.203 0-28.078 19.288-51.735 45.31-58.42zm-28.059 100.591 28.059-16.194v32.444c-10.821-2.78-20.47-8.502-28.059-16.25zm58.059 16.25v-32.444l28.059 16.195c-7.589 7.747-17.238 13.469-28.059 16.249z"/><path d="m40.951 205.699v306.301h430.098v-306.301c-36.894-9.748-64.331-31.619-64.466-70.71v-134.989h-90.25v82.158c0 33.257-27.056 60.312-60.312 60.312s-60.312-27.056-60.312-60.312v-82.158h-90.29v134.989c-.137 39.091-27.574 60.962-64.468 70.71zm30 21.467c38.876-15.7 64.82-50.675 64.466-92.177v-104.989h30.29v52.158c0 49.799 40.514 90.312 90.312 90.312s90.312-40.514 90.312-90.312v-52.158h30.25v104.989c-.197 41.866 25.954 76.828 64.466 92.177v254.834h-370.096z"/></g></svg>