<svg id="Capa_1" enable-background="new 0 0 512 512" height="512" viewBox="0 0 512 512" width="512" xmlns="http://www.w3.org/2000/svg"><g><path d="m509.777 232.202 2.223-6.626c-22.198-45.094-52.107-84.151-93.425-113.231-47.386-33.351-104.637-51.4-162.575-51.4-57.937 0-115.189 18.049-162.575 51.4-41.318 29.081-71.227 68.137-93.425 113.231 23.817 48.382 56.842 89.744 102.342 119.259 52.216 33.872 115.047 49.481 177.049 44.409 21.741 36.952 61.925 61.81 107.812 61.81 68.925 0 124.798-56.075 124.798-125 0-23.971-6.586-46.383-18.332-65.427 5.912-9.162 11.313-18.687 16.108-28.425zm-30.298-6.631c-1.843 3.479-3.797 6.908-5.806 10.305-18.802-18.036-43.211-30.267-70.318-33.78-5.859-37.063-25.975-70.985-55.505-94.101 55.713 21.571 102.6 62.633 131.629 117.576zm-153.575-8.419c-4.179-34.872-33.924-62-69.904-62-38.833 0-70.425 31.593-70.425 70.425 0 42.258 38.656 75.694 80.466 69.698-4.079 16.047-4.908 32.886-2.47 49.261-67.739 4.245-126.773-51.109-126.773-118.959 0-65.729 53.474-119.202 119.202-119.202 57.13 0 105.772 40.873 116.836 95.511-16.89 1.941-32.765 7.26-46.932 15.266zm-39.28 34.768c-7.419 8.613-18.392 14.082-30.624 14.082-22.291 0-40.425-18.135-40.425-40.426 0-22.29 18.135-40.425 40.425-40.425s40.425 18.135 40.425 40.425c0 10.152-3.911 18.375-9.801 26.344zm-254.106-26.344c29.065-55.021 76.037-96.118 131.847-117.665-35.013 27.328-57.567 69.91-57.567 117.665 0 45.614 21.43 89.514 57.375 117.592-55.726-21.567-102.623-62.634-131.655-117.592zm354.684 195.479c-52.383 0-95-42.617-95-95 0-51.712 43.314-95 95-95 52.383 0 95 42.617 95 95s-42.617 95-95 95z"/><path d="m374.279 340.889-26.054-17.989-17.045 24.688 50.689 34.996 65.158-93.94-24.65-17.098z"/></g></svg>