<svg id="Capa_1" enable-background="new 0 0 512.177 512.177" height="512" viewBox="0 0 512.177 512.177" width="512" xmlns="http://www.w3.org/2000/svg"><g><path d="m421.646 245.966c-11.482 0-22.473 2.141-32.605 6.042l-35.395-60.129v-60.413c.96-23.214 34.041-23.212 35 0v21.5h30v-21.5c-2.611-63.018-92.401-62.994-95 0v49.5h-126.92l-12.29-25h32.21v-30h-92v30h26.37l18.618 37.876-6.249 8.577c-51.164-28.12-118.538-21.524-163.385 15.936l18.994 23.221c34.637-28.898 86.258-34.862 126.513-14.618l-18.925 25.976c-58.583-25.261-126.711 20.003-125.935 84.033 3.331 111.744 159.581 123.82 180.759 14.999h32.82c6.18 17.46 22.87 30 42.42 30 36.059.208 57.627-41.336 37-70.58 0 0 45.592-84.843 45.593-84.844l23.971 40.722c-.001.001-.002.002-.003.003-64.419 53.955-26.636 160.351 58.441 160.7 120.719-4.994 120.691-177.023-.002-182.001zm-177.93 98.59c-.38-.63-.71-1.3-.98-2-4.118-9.597 3.637-20.826 13.91-20.59 13.088-.038 19.865 15.883 10.93 25.26-6.525 7.259-19.059 5.89-23.86-2.67zm-29.489-22.59h-32.82c-3.48-20.94-14.15-39.49-29.37-53.02 0 0-.001-.001-.001-.001l32.552-44.678 39.93 81.24c-4.541 4.619-8.091 10.229-10.291 16.459zm-79.97-28.62c7.9 7.73 13.72 17.58 16.53 28.62h-37.381zm-42.611 104.62c-33.64 0-61-27.36-61-61-.622-39.733 39.532-69.986 77.501-58.73l-38.501 52.845v20.885h81.14c-6.7 26.41-30.67 46-59.14 46zm177.44-104.25c-5.53-1.617-11.798-2.147-17.65-1.45l-39.96-81.3h102.08zm152.56 104.25c-54.354.107-81.309-66.775-42.908-104.322l29.981 50.932 25.854-15.219-29.992-50.951h.006c38.063-11.718 78.703 18.607 78.059 58.561 0 33.639-27.36 60.999-61 60.999z"/></g></svg>