<svg id="Capa_1" enable-background="new 0 0 512 512" height="512" viewBox="0 0 512 512" width="512" xmlns="http://www.w3.org/2000/svg"><g><path d="m409.084 0h-306.167c-27.662 0-50.167 22.504-50.167 50.167 0 24.234 17.273 44.507 40.153 49.161l18.924 113.539c5.681 34.086 23.33 65.159 49.697 87.496 13.6 11.521 29.114 20.364 45.689 26.234v22.277c-7.769 10.44-11.989 23.099-11.989 36.245 0 11.834 3.419 23.272 9.769 33.053-6.35 9.781-9.769 21.218-9.769 33.052 0 33.511 27.263 60.776 60.776 60.776s60.777-27.265 60.777-60.777c0-11.833-3.419-23.271-9.769-33.052 6.35-9.781 9.769-21.219 9.769-33.053 0-13.146-4.221-25.804-11.989-36.245v-22.277c16.574-5.871 32.088-14.713 45.688-26.234 26.367-22.336 44.018-53.409 49.698-87.496l18.923-113.539c22.88-4.654 40.153-24.927 40.153-49.161 0-27.662-22.505-50.166-50.166-50.166zm-130.365 430.465c5.196 5.682 8.059 13.054 8.059 20.758-.001 16.97-13.807 30.777-30.778 30.777-16.97 0-30.776-13.807-30.776-30.777 0-7.704 2.862-15.076 8.059-20.758l3.931-4.298v-15.991l-3.931-4.298c-5.196-5.682-8.059-13.054-8.059-20.759 0-7.704 2.862-15.076 8.059-20.759l3.931-4.298v-26.282c6.203.805 12.477 1.22 18.786 1.22s12.584-.415 18.788-1.221v26.282l3.931 4.298c5.196 5.683 8.059 13.055 8.059 20.759 0 7.705-2.862 15.077-8.059 20.759l-3.931 4.298v15.991zm52.365-152.993c-20.955 17.752-47.62 27.528-75.084 27.528s-54.129-9.776-75.084-27.528c-20.955-17.751-35.249-41.472-40.542-75.805h231.253c-5.96 34.833-19.587 58.053-40.543 75.805zm45.543-105.805h-241.253l-11.889-71.333h265.031zm32.457-101.333h-306.167c-11.12 0-20.167-9.047-20.167-20.167s9.047-20.167 20.167-20.167h306.167c11.119 0 20.166 9.047 20.166 20.167s-9.047 20.167-20.166 20.167z"/></g></svg>