<svg id="Capa_1" enable-background="new 0 0 512 512" height="512" viewBox="0 0 512 512" width="512" xmlns="http://www.w3.org/2000/svg"><g><path d="m301.454 278.366c-12.274-12.274-30.66-14.8-45.454-7.579-14.791-7.222-33.18-4.696-45.454 7.579-15.456 15.456-15.456 40.604 0 56.061l45.454 45.454 45.454-45.455c15.456-15.455 15.456-40.604 0-56.06zm-21.213 34.848-24.241 24.241-24.241-24.241c-3.759-3.759-3.759-9.875 0-13.634 1.88-1.879 4.349-2.819 6.817-2.819s4.938.94 6.817 2.819l10.607 10.606 10.606-10.606c3.76-3.759 9.875-3.759 13.635 0 3.759 3.758 3.759 9.875 0 13.634z"/><path d="m435.963 306.874-21.299-76.583c-8.206-29.509-35.329-50.119-65.959-50.119h-31.378c6.323-8.128 11.083-17.566 13.783-27.898 14.502-5.565 24.662-19.585 24.662-35.991 0-15.312-9.004-28.672-22.111-34.872v-3.75c0-42.823-34.839-77.661-77.661-77.661s-77.661 34.838-77.661 77.661v3.75c-13.107 6.199-22.111 19.56-22.111 34.872 0 16.406 10.16 30.426 24.662 35.991 2.7 10.333 7.46 19.771 13.783 27.898h-31.378c-30.63 0-57.753 20.61-65.959 50.119l-21.299 76.583c-3.744 13.461-1.043 27.563 7.41 38.688 8.454 11.125 21.315 17.506 35.288 17.506.859 0 1.711-.034 2.561-.083l-21.513 77.354h81.061v71.661h150.312v-71.661h81.061l-21.513-77.354c.849.049 1.702.083 2.561.083 13.973 0 26.834-6.381 35.288-17.506 8.453-11.125 11.154-25.227 7.41-38.688zm-179.963-276.874c26.28 0 47.661 21.38 47.661 47.661v.114h-31.718l-15.943-12.192-15.943 12.192h-31.718v-.114c0-26.281 21.381-47.661 47.661-47.661zm-47.324 108.082-1.477-12.718-12.792-.539c-4.587-.193-8.18-3.946-8.18-8.543 0-4.429 3.393-8.113 7.767-8.507h56.218l5.787-4.426 5.787 4.426h56.218c4.374.394 7.767 4.078 7.767 8.507 0 4.598-3.593 8.351-8.18 8.543l-12.792.539-1.477 12.718c-2.787 23.995-23.132 42.089-47.324 42.089s-44.535-18.094-47.322-42.089zm-89.941 194.986c-4.515 0-8.67-2.062-11.401-5.656s-3.604-8.15-2.395-12.5l21.299-76.583c4.61-16.578 19.849-28.157 37.057-28.157h.5l-31.268 112.431c-1.723 6.162-7.392 10.465-13.792 10.465zm92.109 107.271h30.156v41.661h-30.156zm90.312 41.661h-30.156v-41.661h30.156zm-161.89-71.661 22.168-79.711c0-.001.001-.002.001-.004l33.498-120.453h122.135l33.498 120.453c0 .001.001.002.001.004l22.168 79.711zm265.4-82.927c-2.731 3.595-6.887 5.656-11.401 5.656-6.4 0-12.069-4.303-13.791-10.466l-31.268-112.431h.5c17.208 0 32.446 11.579 37.057 28.157l21.299 76.583c1.208 4.35.335 8.906-2.396 12.501z"/></g></svg>