<svg id="Capa_1" enable-background="new 0 0 509.178 509.178" height="512" viewBox="0 0 509.178 509.178" width="512" xmlns="http://www.w3.org/2000/svg"><g><path d="m442.882 326.133c45.152-36.668 45.156-106.416 0-143.089l32.188-55.75h-64.376c-9.18-57.437-69.581-92.314-123.918-71.544l-32.187-55.75-32.188 55.751c-54.333-20.77-114.737 14.1-123.918 71.543h-64.375l32.188 55.751c-45.152 36.668-45.156 106.416-.001 143.089l-32.187 55.75h64.375c9.15 57.26 69.428 92.372 123.918 71.543l32.188 55.751 32.187-55.749c54.45 20.816 114.761-14.246 123.918-71.545h64.376zm-15.293-26.488c-5.343-9.254-20.475-35.464-26.013-45.056l26.013-45.055c25.381 24.186 25.659 65.657 0 90.111zm-51.994-60.056h-95.026l47.513-82.295h95.025zm4.512-112.295h-52.025l-26.012-45.055c33.634-9.886 69.692 10.607 78.037 45.055zm-78.005 15-47.513 82.295-47.513-82.295 47.513-82.294c5.645 9.777 40.227 69.675 47.513 82.294zm-173.032-15.001c8.273-34.148 44.101-55.032 78.038-45.054l-26.013 45.055zm52.025 30.001 47.513 82.295h-95.026l-47.512-82.295zm-99.506 52.239c5.343 9.254 20.475 35.464 26.013 45.056l-26.013 45.055c-25.381-24.186-25.659-65.658 0-90.111zm51.994 60.056h95.026l-47.513 82.295h-95.026zm73.524 157.351c-33.634 9.892-69.692-10.608-78.037-45.056h52.025zm41.87 12.517-41.901-72.573 47.513-82.295 47.513 82.295-47.513 82.294zm131.13-57.572c-8.254 34.069-44.037 55.054-78.038 45.054l26.013-45.055zm-52.024-30.001-47.513-82.295h95.026l47.513 82.295c-18.925 0-72.671 0-95.026 0z"/></g></svg>