<svg id="Capa_1" enable-background="new 0 0 512 512" height="512" viewBox="0 0 512 512" width="512" xmlns="http://www.w3.org/2000/svg"><g><path d="m329.571 176.489c-6.57-.18-12.964.97-18.885 3.323v-109.272c0-25.869-20.725-47.483-46.199-48.183-8.218-.229-16.147 1.619-23.216 5.301-7.538-16.308-24.042-27.658-43.157-27.658-19.169 0-35.724 11.408-43.231 27.792-6.178-3.288-13.136-5.232-20.491-5.435-12.934-.375-25.189 4.418-34.463 13.441-9.276 9.025-14.385 21.123-14.385 34.064v178.92h-.388c-24.448 0-44.338 19.89-44.338 44.338v51.403c0 92.347 75.13 167.476 167.477 167.476 92.346 0 167.476-75.129 167.476-167.476v-119.852c-.002-25.87-20.726-47.484-46.2-48.182zm16.198 168.035c0 75.805-61.671 137.476-137.476 137.476s-137.476-61.671-137.476-137.476v-51.403c0-7.906 6.432-14.338 14.338-14.338h30.388v-208.92c0-4.772 1.884-9.233 5.306-12.563 3.419-3.327 7.937-5.077 12.72-4.955 9.386.258 17.021 8.42 17.021 18.194v189.61h30v-212.626c0-9.662 7.861-17.523 17.523-17.523s17.524 7.861 17.524 17.527v212.623h30l.005-190.391c.027-4.733 1.904-9.154 5.301-12.458 3.419-3.327 7.947-5.076 12.72-4.955 9.386.258 17.021 8.42 17.021 18.194v189.61h30v-36.156h.037c0-4.771 1.884-9.232 5.306-12.562 3.419-3.326 7.938-5.053 12.721-4.955 9.385.258 17.021 8.419 17.021 18.193z"/><path d="m422.909.394-21.213 21.212 12.06 12.061h-73.071v30h73.071l-12.06 12.06 21.213 21.212 48.274-48.272z"/></g></svg>