<svg id="Capa_1" enable-background="new 0 0 512.03 512.03" height="512" viewBox="0 0 512.03 512.03" width="512" xmlns="http://www.w3.org/2000/svg"><path d="m454.49 92.814c-36.541-45.337-87.742-77.454-144.173-90.435-35.359-8.639-76.283 6.759-96.802 37.961-12.216 17.982-17.708 39.783-15.464 61.385 1.96 18.867 9.728 36.573 22.089 50.687-25.142 2.378-47.809 17.427-59.671 39.849-6.084 11.499-17.945 18.643-30.954 18.643h-129.5v30h266.504c.579 5.02.885 10.071.885 15.125s-.307 10.105-.885 15.125h-266.504v30h129.5c13.009 0 24.87 7.144 30.954 18.643 11.862 22.422 34.529 37.472 59.671 39.849-12.362 14.114-20.129 31.82-22.089 50.687-2.245 21.602 3.248 43.402 15.464 61.385 20.079 30.388 60.179 46.712 96.802 37.961 56.431-12.98 107.633-45.098 144.173-90.435 36.85-45.466 57.708-103.956 57.525-163.215.182-59.259-20.675-117.749-57.525-163.215zm-226.123.354c11.785-.644 22.914-1.249 29.406 2.434 8.354 4.738 13.728 15.772 19.417 27.455 7.641 19.063 22.743 36.362 41.216 47.394 10.39 7.173 20.203 13.947 23.156 21.803 3.125 8.312.114 20.071-3.075 32.52-6.278 19.182-6.791 42.124.098 62.606 3.233 12.453 6.288 24.216 3.167 32.542-2.932 7.819-12.753 14.579-23.15 21.736-17.278 10.395-33.226 27.057-41.258 47.168-5.733 11.688-11.149 22.727-19.602 27.499-5.677 3.366-18.626 3.16-30.269 2.385.282-15.996 6.798-31.693 19.165-43.391 31.789-30.07 50.767-74.665 50.767-119.29s-18.979-89.22-50.767-119.29c-12.401-11.73-18.917-27.481-19.165-43.522.296-.017.598-.033.894-.049zm-44.077 117.735c.953-1.494 1.858-3.028 2.697-4.613 7.439-14.062 21.929-23.317 37.815-24.154l20.024-1.056c6.075 9.239 11.037 19.293 14.748 29.824h-75.284zm2.696 94.864c-.839-1.585-1.743-3.12-2.697-4.613h75.284c-3.711 10.531-8.673 20.585-14.748 29.824l-20.024-1.056c-15.885-.838-30.375-10.094-37.815-24.155zm244.146 94.65c-32.339 40.125-77.635 68.544-127.542 80.024-25.156 5.786-50.772-4.255-65.261-25.583v.001c-1.277-1.88-2.426-3.81-3.476-5.772 10.801.591 26.755-.247 37.639-6.64 16.542-9.341 24.64-25.847 31.784-40.408 7.009-16.512 15.427-25.631 31.333-35.67 13.12-9.03 27.99-19.265 34.232-35.919 6.452-17.211 1.844-34.955-2.221-50.611-5.275-17.069-5.636-29.375-.074-47.622 4.006-15.638 8.546-33.363 2.094-50.522-6.259-16.647-21.099-26.893-34.192-35.932-15.17-9.64-23.737-18.159-31.289-35.841-7.095-14.57-15.137-31.085-31.588-40.416-11.674-6.62-24.687-7.176-37.638-6.691 1.028-1.908 2.15-3.786 3.393-5.616 14.489-21.327 40.107-31.37 65.261-25.583 49.907 11.48 95.202 39.899 127.542 80.024 33.288 41.3 50.882 91.229 50.882 144.389s-17.591 103.088-50.879 144.388z"/></svg>