<?xml version="1.0" encoding="iso-8859-1"?>
<!-- Generator: Adobe Illustrator 19.0.0, SVG Export Plug-In . SVG Version: 6.00 Build 0)  -->
<svg xmlns="http://www.w3.org/2000/svg" xmlns:xlink="http://www.w3.org/1999/xlink" version="1.1" id="Layer_1" x="0px" y="0px" viewBox="0 0 512 512" style="enable-background:new 0 0 512 512;" xml:space="preserve">
<g>
	<g>
		<rect x="124.541" y="0.388" width="261.997" height="31.323"/>
	</g>
</g>
<g>
	<g>
		<path d="M469.982,83.695l-83.82-83.694l-33.42,74.546H159.257L125.838,0l-83.82,83.695l108.367,234.616    c-14.024,20.491-21.667,44.962-21.667,69.929c0,68.241,55.518,123.76,123.759,123.76s123.759-55.518,123.759-123.76    c0-22.584-6.052-44.367-17.57-63.544L469.982,83.695z M396.167,54.254l36.212,36.156l-95.687,207.164    c-0.413-0.383-0.835-0.758-1.254-1.136c-0.161-0.145-0.321-0.292-0.482-0.436c-1.14-1.018-2.3-2.011-3.476-2.985    c-0.199-0.166-0.4-0.331-0.6-0.495c-1.173-0.96-2.362-1.897-3.568-2.812c-0.197-0.15-0.397-0.298-0.595-0.446    c-1.233-0.924-2.481-1.829-3.746-2.706c-0.148-0.102-0.299-0.203-0.447-0.304c-1.334-0.917-2.683-1.813-4.052-2.676    c-0.003-0.002-0.007-0.004-0.01-0.007c-1.37-0.863-2.76-1.695-4.162-2.505c-0.151-0.088-0.301-0.177-0.452-0.264    c-1.34-0.765-2.695-1.502-4.063-2.218c-0.217-0.114-0.433-0.229-0.65-0.34c-1.346-0.694-2.704-1.364-4.075-2.008    c-0.234-0.11-0.468-0.219-0.703-0.327c-1.382-0.64-2.776-1.257-4.183-1.846c-0.204-0.085-0.408-0.167-0.613-0.252    c-0.512-0.211-1.021-0.426-1.536-0.63L396.167,54.254z M338.7,105.87l-71.5,159.492c-7.491-0.888-15.09-1.083-22.668-0.6    L173.3,105.87H338.7z M79.622,90.411l36.21-36.156l97.155,216.715c-0.156,0.052-0.31,0.11-0.465,0.163    c-0.218,0.074-0.434,0.152-0.653,0.229c-1.467,0.511-2.927,1.043-4.373,1.608c-0.095,0.038-0.189,0.077-0.283,0.115    c-1.442,0.568-2.872,1.164-4.292,1.785c-0.128,0.056-0.259,0.11-0.387,0.167c-1.406,0.621-2.798,1.274-4.181,1.947    c-0.217,0.105-0.435,0.21-0.651,0.316c-1.339,0.661-2.665,1.349-3.978,2.058c-0.238,0.128-0.476,0.258-0.713,0.388    c-1.309,0.717-2.605,1.457-3.887,2.22c-0.21,0.125-0.419,0.254-0.628,0.38c-1.315,0.794-2.618,1.607-3.902,2.448    c-0.12,0.078-0.237,0.16-0.356,0.238c-1.302,0.859-2.589,1.742-3.858,2.651c-0.071,0.051-0.143,0.099-0.214,0.15    c-1.276,0.917-2.531,1.864-3.772,2.829c-0.165,0.128-0.331,0.255-0.495,0.383c-0.883,0.694-1.76,1.397-2.625,2.116L79.622,90.411z     M252.477,480.677c-50.969,0-92.436-41.467-92.436-92.437c0-21.446,7.13-41.568,20.623-58.194c1.131-1.395,2.266-2.72,3.371-3.938    c0.874-0.962,1.768-1.904,2.679-2.826c1.824-1.844,3.722-3.606,5.689-5.284c0.984-0.839,1.983-1.657,2.999-2.453    c9.144-7.165,19.589-12.574,30.712-15.888c1.062-0.316,2.132-0.605,3.206-0.882c0.175-0.046,0.349-0.1,0.525-0.144    c1.022-0.258,2.053-0.487,3.084-0.71c0.232-0.05,0.46-0.111,0.693-0.159c1.265-0.263,2.538-0.499,3.817-0.708l0.913-0.149    c0.548-0.092,1.096-0.185,1.649-0.259c4.141-0.558,8.337-0.839,12.475-0.839c6.15,0,12.308,0.611,18.308,1.815    c0.232,0.047,0.461,0.102,0.692,0.155l1.571,0.357c2.553,0.581,5.075,1.27,7.56,2.064c3.033,0.97,6.002,2.115,8.91,3.391    c10.959,4.806,20.947,11.724,29.327,20.356c2.15,2.214,4.207,4.526,6.133,6.959l0.002,0.002c0.925,1.168,1.893,2.473,3.048,4.109    l0.025,0.037c11.029,15.635,16.859,34.028,16.859,53.194C344.913,439.21,303.446,480.677,252.477,480.677z"/>
	</g>
</g>
<g>
	<g>
		<polygon points="298.118,375.764 266.581,371.182 252.477,342.604 238.372,371.182 206.835,375.764 229.656,398.009     224.269,429.419 252.477,414.589 280.685,429.419 275.297,398.009   "/>
	</g>
</g>
<g>
</g>
<g>
</g>
<g>
</g>
<g>
</g>
<g>
</g>
<g>
</g>
<g>
</g>
<g>
</g>
<g>
</g>
<g>
</g>
<g>
</g>
<g>
</g>
<g>
</g>
<g>
</g>
<g>
</g>
</svg>
