<svg id="Capa_1" enable-background="new 0 0 512 512" height="512" viewBox="0 0 512 512" width="512" xmlns="http://www.w3.org/2000/svg"><g><path d="m391.851 87.143h-45.851c-24.813 0-45-20.187-45-45v-42.143h-90v42.143c0 24.813-20.187 45-45 45h-45.851c-49.709 0-90.149 40.44-90.149 90.149s40.44 90.149 90.149 90.149h.851v244.559h270v-244.559h.851c49.708 0 90.149-40.44 90.149-90.149s-40.44-90.149-90.149-90.149zm-89.998 90 33.795 29.154h-159.296l33.795-29.154zm-150.853-30v-12.929c0-9.413 7.658-17.071 17.071-17.071h175.857c9.413 0 17.071 7.658 17.071 17.071v12.929zm90-117.143h30v12.143c0 16.871 5.603 32.456 15.041 45h-60.082c9.438-12.544 15.041-28.129 15.041-45zm-120.851 207.441c-33.166 0-60.149-26.982-60.149-60.149 0-33.166 26.983-60.149 60.149-60.149h4.069c-2.069 5.297-3.218 11.051-3.218 17.071v42.929h43.22l-43.22 37.284v23.015h-.851zm30.851 244.559v-245.703h210v245.703zm240.851-244.559h-.851v-23.015l-43.22-37.284h43.22v-42.929c0-6.021-1.149-11.775-3.218-17.071h4.069c33.166 0 60.149 26.983 60.149 60.149 0 33.168-26.983 60.15-60.149 60.15z"/><path d="m226 275.223h60v30h-60z"/><path d="m226 344.148h60v30h-60z"/><path d="m226 413.074h60v30h-60z"/></g></svg>