<?xml version="1.0" encoding="iso-8859-1"?>
<!-- Generator: Adobe Illustrator 19.0.0, SVG Export Plug-In . SVG Version: 6.00 Build 0)  -->
<svg version="1.1" id="Layer_1" xmlns="http://www.w3.org/2000/svg" xmlns:xlink="http://www.w3.org/1999/xlink" x="0px" y="0px"
	 viewBox="0 0 512 512" style="enable-background:new 0 0 512 512;" xml:space="preserve">
<g>
	<g>
		<path d="M440.212,78.253c-1.048-1.1-5.367-5.418-6.466-6.466C385.785,25.465,322.853,0,256,0
			C187.62,0,123.332,26.628,74.981,74.981C26.629,123.333,0,187.621,0,256s26.628,132.668,74.981,181.019
			C123.333,485.371,187.62,512,256,512c68.379,0,132.668-26.628,181.019-74.981C485.371,388.667,512,324.379,512,256
			C512,189.147,486.535,126.215,440.212,78.253z M354.625,66.249c0.522-0.522,2.033-1.02,4.566-1.02
			c3.051,0,7.583,0.722,13.646,2.996c13.316,4.994,28.63,15.534,42.016,28.921c13.386,13.386,23.926,28.7,28.921,42.016
			c4.159,11.094,3.127,17.06,1.977,18.213c-1.152,1.15-7.117,2.184-18.211-1.978c-13.316-4.994-28.63-15.534-42.016-28.921
			c-13.386-13.386-23.926-28.699-28.921-42.015C352.443,73.368,353.474,67.4,354.625,66.249z M74.126,322.577
			c-6.77,15.572-11.435,30.169-14.02,43.593C41.337,332.915,31.347,295.227,31.347,256c0-60.007,23.368-116.423,65.799-158.854
			S195.993,31.347,256,31.347c26.34,0,51.986,4.506,76.062,13.146c-4.747,4.919-10.678,14.267-9.696,29.725
			c-46.446,20.239-97.716,57.075-144.393,103.754C131.225,224.72,94.344,276.076,74.126,322.577z M97.146,414.854
			c-12.638-12.639-10.497-42.463,5.727-79.779c18.688-42.982,53.23-90.903,97.264-134.938c42.711-42.712,89.08-76.491,131.05-95.536
			c7.181,14.875,18.344,30.215,32.169,44.039c13.824,13.825,29.164,24.989,44.039,32.169
			c-19.045,41.97-52.824,88.339-95.536,131.051c-44.035,44.035-91.956,78.577-134.938,97.264
			C139.61,425.351,109.785,427.493,97.146,414.854z M414.854,414.854c-42.431,42.431-98.846,65.799-158.854,65.799
			c-39.223,0-76.91-9.989-110.163-28.756c13.421-2.586,28.018-7.255,43.586-14.024c46.5-20.219,97.855-57.098,144.605-103.847
			c46.682-46.681,83.521-97.954,103.757-144.402c1.142,0.072,2.263,0.12,3.338,0.12c13.487,0,21.828-5.416,26.383-9.812
			c8.641,24.079,13.147,49.726,13.147,76.066C480.653,316.007,457.285,372.423,414.854,414.854z"/>
	</g>
</g>
<g>
</g>
<g>
</g>
<g>
</g>
<g>
</g>
<g>
</g>
<g>
</g>
<g>
</g>
<g>
</g>
<g>
</g>
<g>
</g>
<g>
</g>
<g>
</g>
<g>
</g>
<g>
</g>
<g>
</g>
</svg>
