<svg id="Capa_1" enable-background="new 0 0 512 512" height="512" viewBox="0 0 512 512" width="512" xmlns="http://www.w3.org/2000/svg"><g><path d="m512 419.5c0-28.08-16.057-52.464-39.462-64.501l12.054-28.996c10.78-25.367-11.449-53.304-38.588-48.495 0 0-20.005 3.381-20.005 3.381l-20.006-3.381c-27.143-4.811-49.366 23.136-38.587 48.495 0 0 12.054 28.995 12.054 28.995-9.282 4.774-17.402 11.488-23.828 19.61-24.602-11.205-53.126-12.288-78.634-2.572v-23.382c29.902-7.964 52-35.278 52-67.654v-24.47c0-38.026-23.311-70.706-56.391-84.512l9.984-24.015c4.946-11.896 3.035-25.55-4.986-35.631-8.022-10.082-20.895-15.013-33.602-12.864l-20.003 3.381-20.006-3.381c-27.143-4.808-49.366 23.134-38.587 48.495 0 0 11.501 27.666 11.501 27.666-30.857 15.139-53.248 44.978-57.979 80.331h-51.929v129.236c-38.011 6.654-67 39.877-67 79.764v27h512v-30h-13.817c8.68-11.951 13.817-26.633 13.817-42.5zm-116.892-105.013c-1.619-4.014 1.61-8.074 5.887-7.4 0 0 25.005 4.227 25.005 4.227l25.004-4.227c4.259-.692 7.518 3.413 5.888 7.399 0 0-13.559 32.616-13.559 32.616-5.543-.177-29.119-.177-34.665 0zm-202-178c-1.619-4.015 1.609-8.071 5.887-7.4 0 0 25.005 4.227 25.005 4.227l25.004-4.227c4.259-.693 7.518 3.413 5.888 7.399 0 0-11.924 28.683-11.924 28.683-11.681-.263-25.968-.721-37.402 1.281zm29.892 58.513h14.47c33.928 0 61.53 27.603 61.53 61.53v24.47c0 22.056-17.944 40-40 40s-40-17.944-40-40v-25h-69.689c6.575-34.687 37.117-61 73.689-61zm-192.913 267c1.28-21.944 16.503-40.198 36.913-46.034v46.034zm216.913 0h-30v-98h-30v98h-30v-98h-30v98h-30v-176h92.177c2.288 32.254 26.525 58.543 57.823 63.971zm30-57.337c21.115-10.67 43.539-12.687 65.27-3.191-5.528 20.408-.711 44.204 11.547 60.528h-76.817zm135.5 57.337c-56.375-2.331-56.372-82.671 0-85h27c23.435 0 42.5 19.065 42.5 42.5s-19.065 42.5-42.5 42.5z"/><path d="m346 176h30c0-7.896 2.447-11.078 6.889-16.852 17.564-20.188 17.495-50.188.001-70.29-4.443-5.775-6.89-8.957-6.89-16.856 0-7.898 2.447-11.08 6.89-16.855 5.533-7.194 13.11-17.044 13.11-35.147h-30c0 7.898-2.447 11.08-6.89 16.855-17.562 20.188-17.495 50.192 0 70.294 4.442 5.775 6.889 8.957 6.889 16.856 0 7.896-2.447 11.077-6.889 16.851-5.532 7.192-13.11 17.042-13.11 35.144z"/><path d="m33 176h30c0-7.896 2.447-11.078 6.889-16.852 17.564-20.188 17.495-50.188.001-70.29-4.443-5.775-6.89-8.957-6.89-16.856 0-7.898 2.447-11.08 6.89-16.855 5.533-7.194 13.11-17.044 13.11-35.147h-30c0 7.898-2.447 11.08-6.89 16.855-17.562 20.188-17.495 50.192 0 70.294 4.442 5.775 6.889 8.957 6.889 16.856 0 7.896-2.447 11.077-6.889 16.851-5.532 7.192-13.11 17.042-13.11 35.144z"/><path d="m428.918 217.504h30v30h-30z"/><path d="m455 88h30v30h-30z"/><path d="m155 34h30v30h-30z"/><path d="m282 34h30v30h-30z"/></g></svg>