<svg id="Capa_1" enable-background="new 0 0 512 512" height="512" viewBox="0 0 512 512" width="512" xmlns="http://www.w3.org/2000/svg"><g><path d="m406 30v-30h-210v90h-30v67.255c-37.715 28.3-60 72.573-60 120.005v234.74h300v-234.74c0-47.432-22.285-91.705-60-120.005v-67.255h-30v-60zm-90 90v30h-120v-30zm-180 362v-38.072c8.833 5.123 19.075 8.072 30 8.072h180c10.925 0 21.167-2.949 30-8.072v38.072zm240-204.74v114.74c0 16.542-13.458 30-30 30h-180c-16.542 0-30-13.458-30-30v-114.74c0-38.651 18.507-74.678 49.717-97.26h140.566c31.21 22.581 49.717 58.609 49.717 97.26zm-90-187.26h-60v-60h60z"/></g></svg>