<svg id="Capa_1" enable-background="new 0 0 512 512" height="512" viewBox="0 0 512 512" width="512" xmlns="http://www.w3.org/2000/svg"><g><path d="m38.446 0v512h435.107v-512zm171.554 30h92v36c0 25.364-20.636 46-46 46s-46-20.636-46-46zm-30 0v36c0 41.906 34.093 76 76 76s76-34.094 76-76v-36h51.892v391.996h-255.784v-391.996zm263.554 452h-375.108v-452h29.662v421.996h315.784v-421.996h29.662z"/><path d="m158.445 172.498h195.11v30h-195.11z"/><path d="m158.445 235.498h195.11v30h-195.11z"/><path d="m158.445 298.498h195.11v30h-195.11z"/><path d="m158.445 361.498h195.11v30h-195.11z"/></g></svg>