<?xml version="1.0" encoding="iso-8859-1"?>
<!-- Generator: Adobe Illustrator 19.0.0, SVG Export Plug-In . SVG Version: 6.00 Build 0)  -->
<svg version="1.1" id="Layer_1" xmlns="http://www.w3.org/2000/svg" xmlns:xlink="http://www.w3.org/1999/xlink" x="0px" y="0px"
	 viewBox="0 0 512 512" style="enable-background:new 0 0 512 512;" xml:space="preserve">
<g>
	<g>
		<path d="M335.644,184.09v-34.133H197.089l93.734-93.735l-24.136-24.136l-117.869,117.87h-30.529
			c4.379-8.541,6.867-18.204,6.867-28.444c0-34.505-28.072-62.578-62.578-62.578C28.072,58.934,0,87.006,0,121.512
			s28.072,62.578,62.578,62.578h52.107l-41.084,41.084c-24.4,24.398-24.4,64.099-0.001,88.497
			c5.148,5.148,11.035,9.287,17.423,12.321v48.105h34.133v-42.535c13.949-1.612,26.864-7.813,36.943-17.893
			c24.4-24.399,24.4-64.099,0-88.498c-7.111-7.109-15.638-12.281-24.938-15.287l25.796-25.796H335.644z M62.578,149.956
			c-15.684,0-28.444-12.759-28.444-28.444c0-15.684,12.76-28.444,28.444-28.444s28.444,12.76,28.444,28.444
			S78.262,149.956,62.578,149.956z M137.962,249.31c11.091,11.091,11.091,29.135,0,40.226c-5.373,5.373-12.516,8.331-20.114,8.331
			s-14.741-2.959-20.114-8.331c-11.091-11.091-11.091-29.135,0.001-40.226c5.373-5.373,12.514-8.331,20.112-8.331
			S132.59,243.939,137.962,249.31z"/>
	</g>
</g>
<g>
	<g>
		<polygon points="125.156,445.778 125.156,405.956 91.022,405.956 91.022,479.912 164.978,479.912 164.978,445.778 		"/>
	</g>
</g>
<g>
	<g>
		<rect x="239.457" y="445.781" width="124.12" height="34.133"/>
	</g>
</g>
<g>
	<g>
		<polygon points="477.867,405.956 477.867,445.778 438.044,445.778 438.044,479.912 512,479.912 512,405.956 		"/>
	</g>
</g>
<g>
	<g>
		<rect x="477.867" y="273.555" width="34.133" height="82.751"/>
	</g>
</g>
<g>
	<g>
		<polygon points="438.044,149.956 438.044,184.09 477.867,184.09 477.867,223.912 512,223.912 512,149.956 		"/>
	</g>
</g>
<g>
	<g>
		<rect x="358.4" y="149.959" width="56.889" height="34.133"/>
	</g>
</g>
<g>
</g>
<g>
</g>
<g>
</g>
<g>
</g>
<g>
</g>
<g>
</g>
<g>
</g>
<g>
</g>
<g>
</g>
<g>
</g>
<g>
</g>
<g>
</g>
<g>
</g>
<g>
</g>
<g>
</g>
</svg>
