<?xml version="1.0" encoding="iso-8859-1"?>
<!-- Generator: Adobe Illustrator 19.0.0, SVG Export Plug-In . SVG Version: 6.00 Build 0)  -->
<svg xmlns="http://www.w3.org/2000/svg" xmlns:xlink="http://www.w3.org/1999/xlink" version="1.1" id="Layer_1" x="0px" y="0px" viewBox="0 0 512 512" style="enable-background:new 0 0 512 512;" xml:space="preserve">
<g>
	<g>
		<path d="M355.124,99.001v-58.48c0-22.182-18.046-40.229-40.229-40.229H197.104c-22.182,0-40.229,18.046-40.229,40.229v58.48H0    v412.706h512V99.001H355.124z M188.223,40.521c0-4.814,4.068-8.882,8.882-8.882h117.791c4.814,0,8.882,4.068,8.882,8.882v57.963    H188.223V40.521z M480.653,480.361H31.347V302.748h177.29v70.528h94.726v-70.528h177.29V480.361z M272.016,302.748v39.181h-32.032    v-39.181H272.016z M239.984,271.401v-14.104h32.032v14.104H239.984z M480.653,271.401h-177.29V225.95h-94.726v45.451H31.347    V130.348h449.306V271.401z"/>
	</g>
</g>
<g>
</g>
<g>
</g>
<g>
</g>
<g>
</g>
<g>
</g>
<g>
</g>
<g>
</g>
<g>
</g>
<g>
</g>
<g>
</g>
<g>
</g>
<g>
</g>
<g>
</g>
<g>
</g>
<g>
</g>
</svg>
