<svg id="Capa_1" enable-background="new 0 0 512 512" height="512" viewBox="0 0 512 512" width="512" xmlns="http://www.w3.org/2000/svg"><path d="m90.65 0v59.902h-44.12v30h44.12v30.375h-44.12v30h44.12v30.375h-44.12v30h44.12v30.375h-44.12v30h44.12v30.375h-44.12v30h44.12v30.375h-44.12v30h44.12v30.375h-44.12v30h44.12v59.848h374.82v-512zm202.41 30v452h-30v-452zm-172.41 422.152h29.88v-30h-29.88v-30.375h29.88v-30h-29.88v-30.375h29.88v-30h-29.88v-30.375h29.88v-30h-29.88v-30.375h29.88v-30h-29.88v-30.375h29.88v-30h-29.88v-30.375h29.88v-30h-29.88v-29.902h112.41v452h-112.41zm314.82 29.848h-112.41v-452h112.41z"/></svg>