<svg id="Capa_1" enable-background="new 0 0 510 510" height="512" viewBox="0 0 510 510" width="512" xmlns="http://www.w3.org/2000/svg"><g><path d="m240 101.565-14.72 30.455-15.28-30.561v-41.459h-30v48.541l35.729 71.459h19.681l34.59-71.565v-48.435h-30z"/><path d="m300 60h30v120h-30z"/><path d="m405 60h-45v120h30v-30h15c24.813 0 45-20.186 45-45s-20.187-45-45-45zm0 60h-15v-30h15c8.271 0 15 6.729 15 15s-6.729 15-15 15z"/><path d="m510 155.262v-155.262h-390v135h-90v113.787l-30 30v156.213c0 41.355 33.644 75 75 75 24.508 0 46.306-11.817 60-30.052 30.091 40.066 89.918 40.055 120 0 30.091 40.066 89.918 40.055 120 0 13.694 18.235 35.492 30.052 60 30.052 41.355 0 75-33.645 75-75 0-14.874 0-93.549 0-110.935 0-21.254-14.49-39.317-35.238-43.929l-100.08-22.239c-16.477-3.661-32.225-9.726-46.8-17.897h114.327zm-480 174.738h45v-30h-45v-8.787l21.213-21.213h32.574l36.213 36.213v53.787h-90zm45 150c-19.557 0-36.239-12.539-42.43-30h84.859c-6.19 17.461-22.872 30-42.429 30zm120 0c-19.557 0-36.239-12.539-42.43-30h84.859c-6.19 17.461-22.872 30-42.429 30zm120 0c-19.557 0-36.239-12.539-42.43-30h84.859c-6.19 17.461-22.872 30-42.429 30zm120 0c-19.557 0-36.239-12.539-42.43-30h84.859c-6.19 17.461-22.872 30-42.429 30zm45-60c-4.333 0-437.8 0-450 0v-30h450zm0-95.935v35.935h-330v-66.213l-53.787-53.787h-36.213v-75h67.791l54.869 68.586c19.561 33.557 46.469 66.414 85.293 66.414h157.9l42.399 9.422c6.918 1.537 11.748 7.558 11.748 14.643zm-159.64-54.065h-52.407c-19.618 0-31.037-12.496-44.767-30h53.526c13.212 11.921 27.899 21.984 43.648 30zm-118.151-60-52.209-65.262v-114.738h330v114.738l-52.209 65.262c-10.822 0-214.716 0-225.582 0z"/></g></svg>