<svg id="Capa_1" enable-background="new 0 0 512 512" height="512" viewBox="0 0 512 512" width="512" xmlns="http://www.w3.org/2000/svg"><g><path d="m512 210.62h-61v-15.62c0-52.076-20.283-101.045-57.115-137.889-36.455-36.443-84.9-56.725-136.411-57.106-.487-.003-.966-.005-1.452-.005-51.225 0-99.664 20.102-136.53 56.695-37.719 37.441-58.492 87.13-58.492 139.913v14.012h-61v90h61v84.271l60 30v97.109h270v-97.11l60-30v-84.27h61zm-421-14.012c0-44.729 17.625-86.855 49.626-118.621 31.207-30.976 72.142-47.987 115.402-47.987.405 0 .818.001 1.223.005 43.584.322 84.576 17.484 115.42 48.319 31.166 31.175 48.329 72.612 48.329 116.676v15.62h-330zm0 169.742v-65.73h30v80.73zm270 115.65h-210v-181.38h210zm60-115.65-30 15v-80.73h30zm61-95.73h-452v-30h452z"/><path d="m297.239 66.535h-82.479l-4.118 8.395c-14.716 30.001-6.188 66.585 20.278 86.987l25.08 19.332 25.079-19.332c26.466-20.402 34.994-56.986 20.278-86.987zm-34.476 71.622-6.763 5.213-6.763-5.213c-12.818-9.881-18.318-26.361-14.678-41.622h42.882c3.64 15.261-1.86 31.741-14.678 41.622z"/></g></svg>