<svg id="Capa_1" enable-background="new 0 0 512 512" height="512" viewBox="0 0 512 512" width="512" xmlns="http://www.w3.org/2000/svg"><g><path d="m512 362v-90h-393.509c-6.968-34.192-37.272-60-73.491-60h-45v150h181v60h-45c-24.813 0-45 20.187-45 45s20.187 45 45 45 45-20.187 45-45c0-5.258-.915-10.305-2.58-15h155.161c-1.665 4.695-2.58 9.742-2.58 15 0 24.813 20.187 45 45 45s45-20.187 45-45-20.187-45-45-45h-45v-60zm-361 105c0 8.271-6.729 15-15 15s-15-6.729-15-15 6.729-15 15-15 15 6.729 15 15zm240 0c0 8.271-6.729 15-15 15s-15-6.729-15-15 6.729-15 15-15 15 6.729 15 15zm-361-225h15c19.556 0 36.239 12.539 42.43 30h-57.43zm0 90v-30h452v30c-6.429 0-422.845 0-452 0zm271 90h-90v-60h90z"/><path d="m181 212h30v-30h30v30h30v-30h30v30h30v-30h30v-15c0-52.804-39.184-96.623-90-103.924v-63.076h-30v63.076c-50.816 7.301-90 51.119-90 103.924v15h30zm75-120c36.219 0 66.524 25.809 73.493 60-17.056 0-122.226 0-146.986 0 6.969-34.191 37.274-60 73.493-60z"/></g></svg>