<svg id="Layer_1" enable-background="new 0 0 509 509" height="512" viewBox="0 0 509 509" width="512" xmlns="http://www.w3.org/2000/svg"><g><path d="m404.5 290.281v-155.281c0-74.439-60.561-135-135-135h-30c-74.44 0-135 60.561-135 135v155.281c-26.461 11.597-45 38.027-45 68.719v150h390v-150c0-30.691-18.539-57.122-45-68.719zm-270-155.281c0-57.897 47.102-105 105-105h30c57.897 0 105 47.103 105 105v149h-60v-37.98c18.4-16.49 30-40.424 30-67.02v-49.556c0-26.909-18.118-50.695-44.062-57.845l-45.938-12.658-45.94 12.659c-25.942 7.149-44.06 30.936-44.06 57.845v49.555c0 26.596 11.599 50.529 30 67.02v37.98h-60zm120 187.787-30-30v-28.936c18.821 6.676 40.106 7.055 60 0v28.936zm0-83.787c-33.084 0-60-26.916-60-60v-49.556c0-13.454 9.06-25.348 22.03-28.923l37.97-10.463 37.969 10.463c12.972 3.575 22.031 15.469 22.031 28.923v49.556c0 33.084-26.916 60-60 60zm-165 120c0-24.814 20.186-45 45-45h68.787l36.213 36.213v128.787h-150zm330 120h-150v-128.787l36.213-36.213h68.787c24.813 0 45 20.186 45 45z"/><path d="m314.5 374h60v30h-60z"/><path d="m134.5 374h60v30h-60z"/></g></svg>