<svg id="Capa_1" enable-background="new 0 0 512 512" height="512" viewBox="0 0 512 512" width="512" xmlns="http://www.w3.org/2000/svg"><g><path d="m91 16v112.5c0 20.678 16.822 37.5 37.5 37.5s37.5-16.822 37.5-37.5v-112.5h-30v112.5c0 4.136-3.364 7.5-7.5 7.5s-7.5-3.364-7.5-7.5v-112.5z"/><path d="m37.5 166c20.678 0 37.5-16.822 37.5-37.5v-15c0-20.678-16.822-37.5-37.5-37.5-4.136 0-7.5-3.364-7.5-7.5v-15c0-4.136 3.364-7.5 7.5-7.5s7.5 3.364 7.5 7.5v15h30v-15c0-20.678-16.822-37.5-37.5-37.5s-37.5 16.822-37.5 37.5v15c0 20.678 16.822 37.5 37.5 37.5 4.136 0 7.5 3.364 7.5 7.5v15c0 4.136-3.364 7.5-7.5 7.5s-7.5-3.364-7.5-7.5v-15h-30v15c0 20.678 16.822 37.5 37.5 37.5z"/><path d="m211 16h-30v150h30c24.813 0 45-20.187 45-45 0-11.517-4.354-22.032-11.495-30 7.141-7.968 11.495-18.483 11.495-30 0-24.813-20.187-45-45-45zm0 30c8.271 0 15 6.729 15 15s-6.729 15-15 15zm0 90v-30c8.271 0 15 6.729 15 15s-6.729 15-15 15z"/><path d="m376 166v-150h-40.395l-12.105 32.28-12.105-32.28h-40.395v150h30v-92.28l22.5 60 22.5-60v92.28z"/><path d="m437 16v30h22.5v120h30v-120h22.5v-30c-14.488 0-60.407 0-75 0z"/><path d="m391 16h30v150h-30z"/><path d="m481 286c0-49.626-40.374-90-90-90h-270c-49.626 0-90 40.374-90 90s40.374 90 90 90h80.729l-30 60h69.271v60h30v-60h69.271l-30-60h80.729c49.626 0 90-40.374 90-90zm-260.729 120 35.729-71.459 35.729 71.459c-20.2 0-59.932 0-71.458 0zm170.729-60h-95.729l-39.271-78.541-39.271 78.541h-95.729c-33.084 0-60-26.916-60-60s26.916-60 60-60h270c33.084 0 60 26.916 60 60s-26.916 60-60 60z"/><path d="m83.5 421h67.5v30h-67.5z" transform="matrix(.6 -.8 .8 .6 -301.9 268.2)"/><path d="m379.75 402.25h30v67.5h-30z" transform="matrix(.8 -.6 .6 .8 -182.65 324.05)"/></g></svg>