<?xml version="1.0" encoding="iso-8859-1"?>
<!-- Generator: Adobe Illustrator 19.0.0, SVG Export Plug-In . SVG Version: 6.00 Build 0)  -->
<svg xmlns="http://www.w3.org/2000/svg" xmlns:xlink="http://www.w3.org/1999/xlink" version="1.1" id="Layer_1" x="0px" y="0px" viewBox="0 0 512 512" style="enable-background:new 0 0 512 512;" xml:space="preserve">
<g>
	<g>
		<path d="M78.679,0v471.054h56.512V512h34.517v-40.946h184.09V512h34.517v-40.946h45.007V0H78.679z M398.804,436.537H113.196    V34.517h285.609V436.537z"/>
	</g>
</g>
<g>
	<g>
		<path d="M256,195.596c-60.27,0-109.303,49.034-109.303,109.303c0,60.27,49.033,109.303,109.303,109.303    s109.303-49.034,109.303-109.303C365.303,244.629,316.27,195.596,256,195.596z M256,379.685    c-41.237,0-74.786-33.549-74.786-74.787s33.549-74.786,74.786-74.786s74.787,33.549,74.787,74.786S297.237,379.685,256,379.685z"/>
	</g>
</g>
<g>
	<g>
		<path d="M256,57.528c-31.721,0-57.528,25.807-57.528,57.528c0,31.721,25.807,57.528,57.528,57.528s57.528-25.807,57.528-57.528    C313.528,83.335,287.721,57.528,256,57.528z M256,138.067c-12.688,0-23.011-10.323-23.011-23.011    c0-12.688,10.323-23.011,23.011-23.011c12.688,0,23.011,10.323,23.011,23.011C279.011,127.745,268.688,138.067,256,138.067z"/>
	</g>
</g>
<g>
	<g>
		<path d="M256,276.135c-15.86,0-28.764,12.904-28.764,28.764c0,15.861,12.904,28.764,28.764,28.764s28.764-12.904,28.764-28.764    C284.764,289.038,271.86,276.135,256,276.135z"/>
	</g>
</g>
<g>
</g>
<g>
</g>
<g>
</g>
<g>
</g>
<g>
</g>
<g>
</g>
<g>
</g>
<g>
</g>
<g>
</g>
<g>
</g>
<g>
</g>
<g>
</g>
<g>
</g>
<g>
</g>
<g>
</g>
</svg>
