<svg id="Capa_1" enable-background="new 0 0 512 512" height="512" viewBox="0 0 512 512" width="512" xmlns="http://www.w3.org/2000/svg"><g><path d="m483.961 139.569 28.039-16.548-7.611-12.912c-25.027-42.461-60.804-77.949-103.462-102.63l-13.017-7.479-16.035 27.773c-35.74-18.154-75.503-27.69-115.902-27.69-28.78 0-56.904 4.713-83.769 14.023-8.204-8.633-19.789-14.023-32.61-14.023-24.81 0-44.995 20.183-44.995 44.992 0 3.846.486 7.582 1.398 11.148-27.744 22.263-50.851 50.346-67.233 81.826-18.817 36.161-28.764 76.963-28.764 117.993 0 68.369 26.626 132.645 74.973 180.99 48.347 48.343 112.627 74.968 181 74.968 41.031 0 81.835-9.946 117.999-28.763 31.482-16.381 59.567-39.487 81.832-67.23 3.566.912 7.3 1.397 11.146 1.397 24.81 0 44.995-20.183 44.995-44.992 0-12.82-5.391-24.405-14.024-32.608 9.311-26.866 14.024-54.987 14.024-83.764.001-40.619-9.636-80.582-27.984-116.471zm-85.284-98.226c28.41 18.748 52.903 43.046 71.879 71.308l-171.485 101.205zm-17.848 214.699c0 68.842-56.01 124.849-124.856 124.849-53.819 0-101.66-35.154-118.453-85.28 14.04-7.623 23.593-22.501 23.593-39.568s-9.553-31.945-23.593-39.568c16.793-50.128 64.634-85.282 118.453-85.282 17.339 0 34.421 3.594 50.139 10.48l-33.733 58.424c-5.206-1.529-10.712-2.35-16.406-2.35-32.146 0-58.299 26.151-58.299 58.295 0 32.143 26.153 58.294 58.299 58.294s58.298-26.151 58.298-58.294c0-5.238-.695-10.316-1.996-15.148l58.322-34.42c6.724 15.559 10.232 32.442 10.232 49.568zm-264.711-14.997c8.27 0 14.998 6.727 14.998 14.997 0 8.269-6.728 14.997-14.998 14.997s-14.998-6.727-14.998-14.997 6.728-14.997 14.998-14.997zm168.156 14.997c0 15.604-12.696 28.299-28.301 28.299-15.606 0-28.302-12.695-28.302-28.299 0-15.605 12.696-28.3 28.302-28.3 15.605-.001 28.301 12.695 28.301 28.3zm-144.68-225.964c8.27 0 14.998 6.727 14.998 14.997s-6.728 14.997-14.998 14.997-14.998-6.727-14.998-14.997 6.728-14.997 14.998-14.997zm116.379 451.927c-124.604 0-225.976-101.366-225.976-225.963 0-67.666 30.733-132.088 82.813-174.836 7.488 5.565 16.758 8.861 26.784 8.861 24.81 0 44.995-20.183 44.995-44.992 0-1.162-.044-2.314-.131-3.454 22.968-7.664 46.965-11.543 71.515-11.543 35.134 0 69.712 8.162 100.88 23.712l-35.668 61.776c-20.329-9.435-42.599-14.37-65.212-14.37-35.565 0-70.303 12.357-97.815 34.796-24.12 19.672-41.82 46.302-50.638 75.882-20.712 4.023-36.398 22.298-36.398 44.167s15.686 40.144 36.398 44.167c8.818 29.579 26.518 56.208 50.637 75.88 27.512 22.44 62.25 34.797 97.815 34.797 85.386 0 154.853-69.462 154.853-154.844 0-22.495-4.888-44.664-14.232-64.911l61.481-36.285c15.657 31.252 23.875 65.938 23.875 101.195 0 24.548-3.879 48.543-11.544 71.511-1.14-.087-2.292-.131-3.454-.131-24.81 0-44.995 20.183-44.995 44.992 0 10.025 3.297 19.295 8.863 26.783-42.751 52.078-107.176 82.81-174.846 82.81zm210.978-94.595c-8.27 0-14.998-6.727-14.998-14.997 0-8.269 6.728-14.997 14.998-14.997s14.998 6.727 14.998 14.997c0 8.269-6.728 14.997-14.998 14.997z"/></g></svg>