<svg id="Capa_1" enable-background="new 0 0 512 512" height="512" viewBox="0 0 512 512" width="512" xmlns="http://www.w3.org/2000/svg"><g><path d="m293.75 60c-49.902 0-90.5 40.598-90.5 90.5v90.5h90.5c49.902 0 90.5-40.598 90.5-90.5s-40.598-90.5-90.5-90.5zm0 151h-60.5v-60.5c0-33.359 27.14-60.5 60.5-60.5s60.5 27.141 60.5 60.5-27.14 60.5-60.5 60.5z"/><path d="m293.75 0c-39.904 0-77.51 15.563-105.544 43.208-28.053-27.645-65.628-43.208-105.456-43.208h-15v90h15c33.36 0 60.5 27.141 60.5 60.5v361.5h90v-211h60.5c82.986 0 150.5-67.514 150.5-150.5s-67.514-150.5-150.5-150.5zm0 271h-90.5v211h-30v-331.5c0-44.794-32.71-82.091-75.5-89.257v-30.314c30.785 3.834 58.916 19.404 78.79 44.021l11.68 14.468 11.669-14.476c23.024-28.561 57.236-44.942 93.861-44.942 66.444 0 120.5 54.056 120.5 120.5s-54.056 120.5-120.5 120.5z"/></g></svg>