<svg id="Capa_1" enable-background="new 0 0 512 512" height="512" viewBox="0 0 512 512" width="512" xmlns="http://www.w3.org/2000/svg"><g><path d="m429.154 267.69c-.14-41.689 17.505-81.646 48.409-109.625l11.178-10.117-59.539-85.395-10.959 4.198c-19.496 7.468-41.018 5.715-59.047-4.814-18.029-10.528-30.133-28.41-33.216-49.105l-1.874-12.832-136.188.087-1.905 12.791c-3.076 20.65-15.18 38.532-33.209 49.06-18.029 10.529-39.551 12.283-59.047 4.814l-10.959-4.198-59.539 85.395 11.176 10.116c30.905 27.98 48.55 67.937 48.411 109.626s-18.051 81.527-49.143 109.299l-10.015 8.946 60.117 84.447 11.624-6.177c23.688-12.589 51.117-16.15 77.235-10.023 26.117 6.125 49.104 21.508 64.727 43.315l10.39 14.502h16.438l10.389-14.502c15.623-21.808 38.609-37.19 64.727-43.315s53.546-2.565 77.235 10.023l11.624 6.177 60.117-84.447-10.015-8.946c-31.091-27.773-49.003-67.611-49.142-109.3zm-96.669 157.285c-30.106 7.06-56.94 23.8-76.485 47.532-19.546-23.732-46.379-40.472-76.485-47.532-10.612-2.489-21.393-3.719-32.136-3.719-18.486 0-36.854 3.643-54.038 10.793l-29.938-42.054c31.421-32.712 49.29-76.534 49.443-122.204.155-46.374-17.97-90.968-50.081-124.05l31.638-45.377c24.839 6.242 51.07 2.597 73.53-10.519 22.148-12.935 38.078-33.587 45.008-57.845h86.119c6.929 24.258 22.859 44.91 45.008 57.844 22.46 13.117 48.69 16.762 73.53 10.519l31.638 45.376c-32.109 33.082-50.236 77.677-50.081 124.051.153 45.67 18.022 89.492 49.443 122.204l-29.938 42.054c-27.17-11.302-57.305-13.844-86.175-7.073z"/><path d="m358.577 171.433c-33.553 0-66.226-9.557-94.493-27.641l-8.084-5.171-8.083 5.172c-28.269 18.085-60.939 27.641-94.494 27.641-.07 0-.141 0-.211 0l-.036 30h.247c36.133-.001 71.398-9.465 102.577-27.455 31.181 17.991 66.441 27.455 102.577 27.455h.247l-.036-30c-.072-.001-.139-.001-.211-.001z"/><path d="m358.577 244c-33.553 0-66.226-9.557-94.493-27.641l-8.084-5.171-8.083 5.172c-28.269 18.084-60.939 27.64-94.494 27.64-.07 0-.141 0-.211 0l-.036 30h.247c36.133-.001 71.398-9.465 102.577-27.455 31.181 17.991 66.441 27.455 102.577 27.455h.247l-.036-30c-.072 0-.139 0-.211 0z"/><path d="m358.577 316.567c-33.553 0-66.226-9.557-94.493-27.641l-8.084-5.171-8.083 5.172c-28.269 18.085-60.939 27.641-94.494 27.641-.07 0-.141 0-.211 0l-.036 30h.247c36.133-.001 71.398-9.465 102.577-27.455 31.181 17.991 66.441 27.455 102.577 27.455h.247l-.036-30c-.072-.001-.139-.001-.211-.001z"/></g></svg>