<svg id="Capa_1" enable-background="new 0 0 510 510" height="512" viewBox="0 0 510 510" width="512" xmlns="http://www.w3.org/2000/svg"><g><path d="m255 0c-140.929 0-255 114.049-255 255 0 140.929 114.049 255 255 255 140.929 0 255-114.049 255-255 0-140.929-114.049-255-255-255zm0 480c-124.065 0-225-100.935-225-225s100.935-225 225-225 225 100.935 225 225-100.935 225-225 225z"/><path d="m328.929 150c0-41.355-33.645-75-75-75-18.745 0-36.484 6.902-50.152 19.231-54.357-19.042-109.313 28.006-98.521 84.819-19.346 13.942-31.327 36.706-31.327 60.95 0 41.355 33.645 75 75 75 46.751 0 82.487-42.636 73.673-89.047 2.244-1.609 4.398-3.346 6.454-5.193 48.924 17.159 99.873-19.361 99.873-70.76zm-143.907-29.587c-12.003 27.972-6.114 61.268 16.665 83.413-24.09 14.166-55.206 2.926-64.921-23.068v-.002c-11.845-31.61 14.407-64.94 48.256-60.343zm-36.093 164.587c-24.813 0-45-20.186-45-45 0-12.401 4.946-23.855 13.458-32.156 16.778 23.988 46.781 36.769 76.518 30.669.834 25.606-19.79 46.487-44.976 46.487zm105-90c-25.444 0-46.038-21.141-44.96-46.954.994-23.761 20.593-43.046 44.96-43.046 24.813 0 45 20.187 45 45s-20.187 45-45 45z"/><path d="m382.5 195c-31.151 0-57.662 21.033-65.294 50.32-28.227 11.213-47.206 38.605-47.206 69.68 0 41.355 33.645 75 75 75 40.123 0 72.989-31.673 74.911-71.328 18.545-12.399 30.089-33.505 30.089-56.172 0-37.22-30.28-67.5-67.5-67.5zm15.906 101.462-9.424 4.424.848 10.376c2.17 26.546-18.825 48.738-44.83 48.738-24.813 0-45-20.186-45-45 0-20.657 13.97-38.601 33.972-43.636l10.134-2.55 1.119-10.391c2.051-19.054 18.076-33.423 37.275-33.423 20.678 0 37.5 16.822 37.5 37.5 0 14.473-8.476 27.804-21.594 33.962z"/><path d="m234.536 355.606-21.213-21.212-18.858 18.858-18.859-18.858-21.212 21.212 18.858 18.859-34.929 34.929 21.213 21.212 34.929-34.928 33.858 33.857 21.213-21.213-33.858-33.857z"/></g></svg>