<svg id="Layer_1" enable-background="new 0 0 510 510" height="512" viewBox="0 0 510 510" width="512" xmlns="http://www.w3.org/2000/svg"><path d="m390 195v-195h-270v195c0 69.369 52.595 126.676 120 134.162v45.838c0 57.897-47.103 105-105 105v30h240v-30c-57.897 0-105-47.103-105-105v-45.838c67.405-7.486 120-64.793 120-134.162zm-240 0v-165h98.787l-60.001 60h60l-49.393 49.394 21.213 21.213 100.607-100.607h-60l30-30h68.787v165c-5.295 139.141-204.755 139.035-210 0zm140.237 285h-70.474c14.53-11.752 26.583-26.457 35.237-43.188 8.654 16.731 20.706 31.436 35.237 43.188z"/></svg>