<svg id="Capa_1" enable-background="new 0 0 512.042 512.042" height="512" viewBox="0 0 512.042 512.042" width="512" xmlns="http://www.w3.org/2000/svg"><g><path d="m509.256 495.207c-6.708-54.456-49.313-98.021-103.607-105.939l-75.571-11.023-2.3-7.436c29.191-18.343 50.926-47.498 59.544-81.809h10.197c29.845 0 54.125-24.28 54.125-54.125 0-27.658-20.857-50.522-47.666-53.726 5.58-12.162 8.541-25.472 8.541-39.149v-34.08c0-46.732-38.02-84.752-84.752-84.752-14.839 0-28.368 5.727-38.49 15.084-14.063-22.926-39.362-38.252-68.173-38.252-67.179 0-121.834 54.655-121.834 121.835v20.165c0 13.677 2.96 26.987 8.541 39.149-26.809 3.205-47.666 26.068-47.666 53.726 0 29.845 24.28 54.125 54.125 54.125h10.201c8.617 34.309 30.351 63.464 59.54 81.806l-2.303 7.448-75.292 11.053c-52.443 6.894-97.182 51.727-103.371 104.936l-2.333 17.756 510.618.043zm-159.916-284.383c-6.2-17.558-22.953-30.177-42.606-30.177-16.125 0-30.294 8.498-38.29 21.244-3.877-1.258-7.973-1.929-12.165-1.929-.056 0-.114 0-.17.001-4.136.018-8.176.683-12 1.923-7.996-12.744-22.165-21.24-38.287-21.24-19.653 0-36.406 12.619-42.606 30.177h-12.818l-.002-40.533c0-8.34 6.785-15.125 15.125-15.125h60.25c24.619 0 46.513-11.882 60.25-30.214 13.737 18.332 35.631 30.214 60.25 30.214 8.34 0 15.125 6.785 15.125 15.125v40.533h-12.056zm-27.43 15c0 8.368-6.808 15.176-15.176 15.176s-15.176-6.808-15.176-15.176 6.808-15.177 15.176-15.177 15.176 6.809 15.176 15.177zm-100.912 0c0 8.368-6.808 15.176-15.176 15.176s-15.176-6.808-15.176-15.176 6.808-15.177 15.176-15.177 15.176 6.809 15.176 15.177zm200.647 9.051c0 13.303-10.822 24.125-24.125 24.125h-6.163c.022-.998.038-1.997.038-3v-45.25h6.125c13.303 0 24.125 10.822 24.125 24.125zm-93.877-181.707c30.19 0 54.752 24.562 54.752 54.752v34.08c0 .47-.023.937-.033 1.406-8.232-11.06-21.401-18.24-36.217-18.24-24.951 0-45.25-20.299-45.25-45.25 0-14.749 11.999-26.748 26.748-26.748zm-198.498 68.667c0-50.638 41.197-91.835 91.834-91.835 27.523 0 49.916 22.393 49.916 49.916 0 24.951-20.299 45.25-45.25 45.25h-60.25c-14.816 0-27.985 7.179-36.217 18.24-.01-.469-.033-.936-.033-1.406zm-15 137.165c-13.303 0-24.125-10.822-24.125-24.125s10.822-24.125 24.125-24.125h6.127l.003 45.267c0 .997.016 1.991.038 2.983zm36.13-2.985-.001-15.19h12.816c6.2 17.557 22.953 30.176 42.606 30.176 22.858 0 41.793-17.068 44.759-39.127 2.169-1.669 4.539-1.905 5.657-1.91h.036c1.144 0 3.526.232 5.701 1.907 2.965 22.06 21.901 39.13 44.76 39.13 19.653 0 36.406-12.618 42.606-30.176h12.055v15.175c0 58.173-47.327 105.5-105.5 105.5-58.166 0-105.49-47.32-105.495-105.485zm105.495 135.485c15.601 0 30.591-2.659 44.551-7.533l2.658 8.595c-6.078 27.487-28.926 37.355-47.209 37.355-18.284 0-41.131-9.869-47.211-37.355l2.658-8.596c13.961 4.875 28.951 7.534 44.553 7.534zm-145.122 27.488 71.296-10.467c8.563 25.539 31.387 45.179 58.826 50.007v23.49l-119.957-.01v-23.872h-30v23.87l-54.512-.005c10.623-32.896 39.316-57.87 74.347-63.013zm310.747 63.046v-23.898h-30v23.895l-120.625-.01v-23.493c26.208-4.552 50.1-23.621 58.83-50.019l71.595 10.443c35.185 5.132 63.862 30.105 74.457 63.086z"/><path d="m286.02 323.746h16.125v-30h-16.125c-8.34 0-15.125-6.785-15.125-15.125h-30c0 8.34-6.785 15.125-15.125 15.125h-16.125v30h16.125c11.566 0 22.131-4.375 30.125-11.556 7.994 7.181 18.559 11.556 30.125 11.556z"/></g></svg>