<svg id="Capa_1" enable-background="new 0 0 512 512" height="512" viewBox="0 0 512 512" width="512" xmlns="http://www.w3.org/2000/svg"><g><path d="m465.658 202.327c-9.59-15.697-14.658-34.091-14.658-53.193v-74.134c0-41.355-33.645-75-75-75h-240c-41.355 0-75 33.645-75 75v74.134c0 19.103-5.068 37.497-14.658 53.193-13.222 21.642-18.114 47.578-13.776 73.03 7.272 42.673 42.131 77.637 84.77 85.025 11.666 2.022 22.84 2.054 33.665.511v46.107c0 57.897 47.103 105 105 105s105-47.103 105-105c0-21.422 0-37.598 0-46.09 11.063 1.576 22.443 1.416 33.665-.528 42.639-7.388 77.497-42.352 84.77-85.025 4.336-25.453-.557-51.389-13.778-73.03zm-134.658 204.673c0 36.219-25.808 66.522-60 73.491v-58.491h-30v58.491c-34.192-6.968-60-37.271-60-73.491v-30c0-8.271 6.729-15 15-15h120c8.271 0 15 6.729 15 15zm118.861-136.684c-5.176 30.368-29.979 55.249-60.318 60.506-9.727 1.685-19.287 1.57-28.542-.317v-163.505c0-8.271 6.729-15 15-15h15v-30h-15c-24.813 0-45 20.187-45 45v167.58c-4.695-1.665-9.742-2.58-15-2.58h-120.001c-5.258 0-10.305.915-15 2.58v-167.58c0-24.813-20.187-45-45-45h-15v30h15c8.271 0 15 6.729 15 15v163.505c-9.256 1.888-18.817 2.002-28.542.317-30.339-5.257-55.143-30.138-60.318-60.506-3.165-18.569.226-36.672 9.804-52.35 12.466-20.407 19.056-44.209 19.056-68.832v-74.134c0-24.813 20.187-45 45-45h240c24.813 0 45 20.187 45 45v74.134c0 24.624 6.59 48.425 19.057 68.833 9.578 15.678 12.968 33.78 9.804 52.349z"/><path d="m241 60h30v62h-30z"/><path d="m241 152h30v60h-30z"/><path d="m241 242h30v60h-30z"/></g></svg>