<svg id="Capa_1" enable-background="new 0 0 510 510" height="512" viewBox="0 0 510 510" width="512" xmlns="http://www.w3.org/2000/svg"><g><path d="m510 157.333c0-32.518-23.171-59.724-53.869-65.978 5.619-9.131 8.869-19.87 8.869-31.355 0-33.084-26.916-60-60-60s-60 26.916-60 60c0 10.925 2.949 21.168 8.072 30h-23.072v-45c0-24.813-20.187-45-45-45-11.517 0-22.032 4.353-30 11.495-7.968-7.142-18.483-11.495-30-11.495-24.813 0-45 20.187-45 45v45h-23.072c5.123-8.832 8.072-19.075 8.072-30 0-33.084-26.916-60-60-60s-60 26.916-60 60c0 11.485 3.249 22.224 8.869 31.354-30.698 6.255-53.869 33.46-53.869 65.979v172.667h30v180h150v-180h30v-150h90v150h30v180h150v-180h30zm-135-97.333c0-16.542 13.458-30 30-30s30 13.458 30 30-13.458 30-30 30-30-13.458-30-30zm-270-30c16.542 0 30 13.458 30 30s-13.458 30-30 30-30-13.458-30-30 13.458-30 30-30zm45 450h-30v-105h-30v105h-30v-150h90zm90-330h-60v150h-150v-142.667c0-20.586 16.748-37.333 37.333-37.333h142.667v-75c0-8.271 6.729-15 15-15s15 6.729 15 15zm210 330h-30v-105h-30v105h-30v-150h90zm30-180h-150v-150h-60v-105c0-8.271 6.729-15 15-15s15 6.729 15 15v75h142.666c20.586 0 37.334 16.747 37.334 37.333z"/></g></svg>