<svg id="Capa_1" enable-background="new 0 0 512 512" height="512" viewBox="0 0 512 512" width="512" xmlns="http://www.w3.org/2000/svg"><g><path d="m116.44 76h30v30h-30z"/><path d="m180.44 76h30v30h-30z"/><path d="m244.44 76h30v30h-30z"/><path d="m308.44 76h30v30h-30z"/><path d="m464.56 238.399c0-41.289-23.134-77.274-57.119-95.68v-142.719h-360v512h417.119v-194.868h-33.815c20.819-19.82 33.815-47.787 33.815-78.733zm-30 243.601h-157.464v-52.434h157.464zm-357.12-452h300v101.828c-6.987-1.415-14.215-2.161-21.613-2.161-24.771 0-47.629 8.332-65.931 22.333h-212.456zm0 452v-81.098h81.098v81.098zm0-111.098v-77.804h81.098v77.804zm111.098-77.804h73.351c5.195 8.887 11.61 16.978 19.021 24.034h-33.814v53.77h-58.558zm74.359-111.098c-10.023 16.454-15.801 35.764-15.801 56.399 0 8.493.981 16.761 2.832 24.699h-61.389v-81.098zm92.93 135.132c-43.413 0-78.732-35.319-78.732-78.732s35.318-78.732 78.732-78.732c43.413 0 78.732 35.319 78.732 78.732s-35.319 78.732-78.732 78.732zm-197.289-135.132v81.098h-81.098v-81.098zm30 218.902h58.558v81.098h-58.558zm246.022-1.336h-157.464v-52.434h157.464z"/></g></svg>