<svg id="Capa_1" enable-background="new 0 0 512 512" height="512" viewBox="0 0 512 512" width="512" xmlns="http://www.w3.org/2000/svg"><g><path d="m481.648 146.031 30-.016-.077-146.015h-145.97v30h94.811l-117.006 117.006c-24.026-19.382-54.557-31.006-87.758-31.006-33.206 0-63.743 11.628-87.77 31.017l-59.505-59.505 45.116-7.092-4.659-29.637-53.893 8.472 8.472-53.893-29.636-4.658-7.092 45.116-35.926-35.926-21.213 21.212 35.925 35.925-45.115 7.093 4.659 29.637 53.893-8.472-8.472 53.893 29.636 4.658 7.092-45.115 59.505 59.505c-19.388 24.027-31.017 54.564-31.017 87.77 0 72.129 54.831 131.686 125 139.195v43.805h-51.074v30h51.074v43h30v-43h51.074v-30h-51.074v-43.805c70.169-7.509 125-67.066 125-139.195 0-33.212-11.633-63.754-31.027-87.783l116.977-116.977zm-226 219.969c-60.654 0-110-49.346-110-110s49.346-110 110-110 110 49.346 110 110-49.346 110-110 110z"/></g></svg>