<svg id="Layer_1" enable-background="new 0 0 509.867 509.867" height="512" viewBox="0 0 509.867 509.867" width="512" xmlns="http://www.w3.org/2000/svg"><g id="XMLID_308_"><path id="XMLID_313_" d="m489.913 296.569-53.506-90.144c-1.09-53.977-23.256-104.909-62.695-143.836-133.082-132.258-358.176-41.431-358.763 146.444-.475 64.585 26.529 137.116 74.994 179.314v121.52h255v-75h58.681c17.27 0 31.319-14.045 31.319-31.31v-58.69h28.657c11.567 0 22.146-6.335 27.607-16.532 5.389-10.066 4.885-22.195-1.294-31.766zm-25.154 17.604c-.371.694-.884.694-1.159.694h-58.657v88.69c0 .722-.592 1.31-1.319 1.31h-88.681v75h-195v-105.791l-5.671-4.504c-41.926-33.297-69.784-97.724-69.323-160.318.746-101.073 80.61-180.975 179.751-179.363 100.217 1.626 181.749 82.697 181.749 180.722v4.116c.58.977-6.831-11.503 58.247 98.092.152.23.437.656.063 1.352z"/><path id="XMLID_758_" d="m224.943 59.867c-82.71 0-150 67.29-150 150 7.541 198.722 292.489 198.668 300-.002 0-82.708-67.29-149.998-150-149.998zm0 270c-66.168 0-120-53.832-120-120 6.033-158.978 233.991-158.934 240 .002 0 66.166-53.832 119.998-120 119.998z"/><path id="XMLID_759_" d="m272.966 173.882c17.815 23.697 15.409 57.406-5.596 78.412-23.395 23.392-61.459 23.393-84.854 0-21.006-21.006-23.411-54.716-5.596-78.413l-23.978-18.027c-26.678 35.482-23.536 85.758 8.361 117.653 35.091 35.092 92.189 35.09 127.279 0 31.896-31.894 35.04-82.165 8.363-117.652z"/><path id="XMLID_760_" d="m209.943 119.867h30v105h-30z"/></g></svg>