<svg id="Capa_1" enable-background="new 0 0 512 512" height="512" viewBox="0 0 512 512" width="512" xmlns="http://www.w3.org/2000/svg"><g><g><path d="m265.173 119.559 4.587-67.618h-27.52l4.587 67.618z"/><path d="m512 0h-512v450.347h185.147c-6.351 18.397-23.831 31.653-44.359 31.653h-26.274v30h282.278v-30h-26.274c-20.528 0-38.008-13.256-44.359-31.653h185.841zm-30 30v329.968h-452v-329.968zm-172.375 452h-107.945c7.066-9.148 12.131-19.916 14.504-31.653h78.937c2.374 11.737 7.438 22.505 14.504 31.653zm-279.625-61.653v-30.379h452v30.379z"/><path d="m422.047 182.382h-332.094v145.648h332.094zm-30 115.648h-272.094v-85.648h272.094z"/><path d="m148.002 240.206h30.002v30h-30.002z"/><path d="m210 240.206h30.002v30h-30.002z"/><path d="m271.998 240.206h30.002v30h-30.002z"/><path d="m333.996 240.206h30.002v30h-30.002z"/></g><circle cx="256" cy="147.823" r="13.76"/></g></svg>