<?xml version="1.0" encoding="iso-8859-1"?>
<!-- Generator: Adobe Illustrator 19.0.0, SVG Export Plug-In . SVG Version: 6.00 Build 0)  -->
<svg xmlns="http://www.w3.org/2000/svg" xmlns:xlink="http://www.w3.org/1999/xlink" version="1.1" id="Layer_1" x="0px" y="0px" viewBox="0 0 512 512" style="enable-background:new 0 0 512 512;" xml:space="preserve">
<g>
	<g>
		<path d="M447.516,53.219h-12.862h-30.417h-49.88V43.074C354.357,19.323,335.034,0,311.283,0H200.716    c-23.751,0-43.073,19.323-43.073,43.074v10.145h-49.88H77.346H64.483c-20.884,0-37.873,16.99-37.873,37.873v12.862v30.417v296.475    v30.417v12.862C26.61,495.01,43.6,512,64.483,512h12.862h30.417h296.474h30.417h12.862c20.884,0,37.873-16.99,37.873-37.873    v-12.862v-30.417V134.372v-30.417V91.092C485.39,70.209,468.4,53.219,447.516,53.219z M57.027,91.092    c0-4.111,3.345-7.456,7.456-7.456h12.862v20.319H57.027C57.027,103.955,57.027,91.092,57.027,91.092z M77.346,481.583H64.483    c-4.112,0-7.456-3.345-7.456-7.456v-12.862h20.319V481.583z M77.346,430.847H57.027V134.372h20.319V430.847z M188.06,43.074    c0-6.979,5.678-12.657,12.656-12.657h110.567c6.979,0,12.656,5.678,12.656,12.657v10.145H188.06V43.074z M404.237,481.583H107.763    v-20.319h296.474V481.583z M404.237,430.847H107.763V134.372h296.474V430.847z M404.237,103.955H107.763V83.636h49.88h196.714    h49.88V103.955z M454.973,474.126c0,4.111-3.345,7.456-7.456,7.456h-12.862v-20.319h20.319V474.126z M454.973,430.847h-20.319    V134.372h20.319V430.847z M454.973,103.955h-20.319V83.636h12.862c4.112,0,7.456,3.345,7.456,7.456V103.955z"/>
	</g>
</g>
<g>
	<g>
		<path d="M256,143.741c-76.572,0-138.868,62.295-138.868,138.868S179.428,421.477,256,421.477    c76.571,0,138.868-62.295,138.868-138.868C394.868,206.038,332.572,143.741,256,143.741z M256,391.059    c-59.8,0-108.45-48.65-108.45-108.45S196.2,174.159,256,174.159c59.799,0,108.45,48.65,108.45,108.45S315.8,391.059,256,391.059z"/>
	</g>
</g>
<g>
	<g>
		<path d="M256,189.367v30.417c34.641,0,62.825,28.183,62.825,62.825h30.417C349.242,231.196,307.413,189.367,256,189.367z"/>
	</g>
</g>
<g>
	<g>
		<path d="M256,236.443c-25.456,0-46.166,20.71-46.166,46.166s20.709,46.167,46.166,46.167c25.456,0,46.166-20.71,46.166-46.167    C302.166,257.153,281.456,236.443,256,236.443z M256,298.359c-8.684,0-15.749-7.065-15.749-15.75    c0-8.684,7.064-15.749,15.749-15.749c8.684,0,15.749,7.065,15.749,15.749S264.684,298.359,256,298.359z"/>
	</g>
</g>
<g>
</g>
<g>
</g>
<g>
</g>
<g>
</g>
<g>
</g>
<g>
</g>
<g>
</g>
<g>
</g>
<g>
</g>
<g>
</g>
<g>
</g>
<g>
</g>
<g>
</g>
<g>
</g>
<g>
</g>
</svg>
