<svg id="Capa_1" enable-background="new 0 0 512 512" height="512" viewBox="0 0 512 512" width="512" xmlns="http://www.w3.org/2000/svg"><g><path d="m105 362c-24.813 0-45 20.187-45 45s20.187 45 45 45 45-20.187 45-45-20.187-45-45-45zm0 60c-8.271 0-15-6.729-15-15s6.729-15 15-15 15 6.729 15 15-6.729 15-15 15z"/><path d="m452 45c-19.918 0-38.476 9.842-49.67 26.334l-13.037 18.666h-180.369c-7.301-50.817-51.12-90-103.924-90-57.897 0-105 47.103-105 105v302c0 57.897 47.103 105 105 105h165c50.139 0 93.195-30.911 111.113-74.676.024.01 126.453-309.656 126.453-309.656 2.942-7.207 4.434-14.834 4.434-22.668 0-33.084-26.916-60-60-60zm-422 60c0-41.355 33.645-75 75-75s75 33.645 75 75v228.596c-19.073-19.483-45.646-31.596-75-31.596s-55.927 12.113-75 31.596zm0 302c0-41.355 33.645-75 75-75s75 33.645 75 75-33.645 75-75 75-75-33.645-75-75zm240 75h-91.596c19.483-19.073 31.596-45.646 31.596-75v-287h158.34l-127.112 182h28.772c49.626 0 90 40.374 90 90s-40.374 90-90 90zm209.792-365.671-96.448 236.233c-13.486-38.652-46.218-68.355-86.659-77.572l130.297-186.561.132-.191c5.6-8.29 14.903-13.238 24.886-13.238 16.542 0 30 13.458 30 30 0 3.928-.743 7.739-2.208 11.329z"/></g></svg>