<svg id="Capa_1" enable-background="new 0 0 512 512" height="512" viewBox="0 0 512 512" width="512" xmlns="http://www.w3.org/2000/svg"><g><path d="m375 92c-24.813 0-45 20.187-45 45s20.187 45 45 45 45-20.187 45-45-20.187-45-45-45zm0 60c-8.271 0-15-6.729-15-15s6.729-15 15-15 15 6.729 15 15-6.729 15-15 15z"/><path d="m512 152v-30h-33.076c-2.552-17.763-9.56-34.106-19.862-47.849l22.004-22.004-21.213-21.213-22.004 22.004c-13.743-10.302-30.086-17.31-47.849-19.862v-33.076h-30v33.076c-17.763 2.552-34.106 9.56-47.849 19.862l-22.004-22.004-21.213 21.213 22.004 22.004c-10.301 13.743-17.31 30.086-19.862 47.849h-31.076v30h31.076c2.552 17.763 9.56 34.106 19.862 47.849l-22.004 22.004 21.213 21.213 22.004-22.004c13.743 10.301 30.086 17.31 47.849 19.862v31.076h30v-31.076c17.763-2.552 34.106-9.56 47.849-19.862l22.004 22.004 21.213-21.213-22.004-22.004c10.301-13.743 17.31-30.086 19.862-47.849zm-137 60c-41.355 0-75-33.645-75-75s33.645-75 75-75 75 33.645 75 75-33.645 75-75 75z"/><path d="m360 317c0 41.355-33.645 75-75 75s-75-33.645-75-75v-210c0-41.355-33.645-75-75-75s-75 33.645-75 75v165h-15c-24.813 0-45 20.187-45 45v120c0 41.355 33.645 75 75 75s75-33.645 75-75v-120c0-24.813-20.187-45-45-45h-15v-165c0-24.813 20.187-45 45-45s45 20.187 45 45v210c0 57.897 47.103 105 105 105s105-47.103 105-105v-15h-30zm-240 0v120c0 24.813-20.187 45-45 45s-45-20.187-45-45v-120c0-8.271 6.729-15 15-15h60c8.271 0 15 6.729 15 15z"/><path d="m60 332h30v60h-30z"/></g></svg>