<?xml version="1.0" encoding="iso-8859-1"?>
<!-- Generator: Adobe Illustrator 19.0.0, SVG Export Plug-In . SVG Version: 6.00 Build 0)  -->
<svg version="1.1" id="Layer_1" xmlns="http://www.w3.org/2000/svg" xmlns:xlink="http://www.w3.org/1999/xlink" x="0px" y="0px"
	 viewBox="0 0 512 512" style="enable-background:new 0 0 512 512;" xml:space="preserve">
<g>
	<g>
		<g>
			<polygon points="0,116.364 46.545,116.364 46.545,46.545 116.364,46.545 116.364,0 0,0 			"/>
			<polygon points="395.636,0 395.636,46.545 465.455,46.545 465.455,116.364 512,116.364 512,0 			"/>
			<polygon points="465.455,465.455 395.636,465.455 395.636,512 512,512 512,395.636 465.455,395.636 			"/>
			<polygon points="46.545,395.636 0,395.636 0,512 116.364,512 116.364,465.455 46.545,465.455 			"/>
			<path d="M256,155.152c-55.608,0-100.848,45.241-100.848,100.848S200.392,356.849,256,356.849S356.849,311.608,356.849,256
				S311.608,155.152,256,155.152z M256,310.303c-29.943,0-54.303-24.36-54.303-54.303s24.36-54.303,54.303-54.303
				s54.303,24.36,54.303,54.303S285.943,310.303,256,310.303z"/>
		</g>
	</g>
</g>
<g>
</g>
<g>
</g>
<g>
</g>
<g>
</g>
<g>
</g>
<g>
</g>
<g>
</g>
<g>
</g>
<g>
</g>
<g>
</g>
<g>
</g>
<g>
</g>
<g>
</g>
<g>
</g>
<g>
</g>
</svg>
