<svg id="Capa_1" enable-background="new 0 0 511.926 511.926" height="512" viewBox="0 0 511.926 511.926" width="512" xmlns="http://www.w3.org/2000/svg"><g><path d="m493.171 365.212c-9.335-9.455-21.081-15.706-33.868-18.17-6.021-17.281-17.537-32.078-32.91-42.218-.472-92.058-74.483-167.037-166.17-169.068-7.253-22.386-26.201-39.228-49.453-43.714-11.592-33.07-43.242-56.079-79.068-56.079-35.824 0-67.473 23.009-79.067 56.076-12.791 2.463-24.543 8.715-33.881 18.173-12.093 12.25-18.754 28.477-18.754 45.693 0 35.873 29.185 65.059 65.059 65.059h44.016c-14.414 24.962-22.669 53.906-22.669 84.744 0 93.738 76.262 170 170 170v.256h190.463c35.873 0 65.059-29.186 65.059-65.059-.002-17.216-6.662-33.443-18.757-45.693zm-428.112-174.249c-19.332 0-35.059-15.727-35.059-35.058 0-19.055 15.501-34.773 34.555-35.042l12.066-.169 2.419-11.822c5.086-24.863 27.234-42.908 52.663-42.908 25.428 0 47.576 18.045 52.663 42.908l2.419 11.822 12.066.169c12.575.177 23.616 6.959 29.663 17.146-38.284 6.346-72.288 25.521-97.428 52.955h-66.027zm51.346 114.744c0-77.196 62.804-140 140-140s140 62.804 140 140-62.804 140-140 140-140-62.803-140-140zm330.463 140.256h-94.513c35.224-24.173 60.922-61.253 70.225-104.367 5.052 6.45 8.62 14.031 10.307 22.275l2.418 11.822 12.066.169c19.054.269 34.555 15.987 34.555 35.042 0 19.332-15.727 35.059-35.058 35.059z"/><path d="m149.405 288.707h30v30h-30z"/><path d="m333.405 317.707h30v30h-30z"/><path d="m200.405 227.707h30v30h-30z"/><path d="m318.405 283.798c11.809 0 23.617-4.494 32.606-13.484l-21.213-21.213c-6.283 6.281-16.504 6.281-22.787 0-6.282-6.282-6.282-16.505 0-22.787l-21.213-21.213c-17.979 17.979-17.979 47.233 0 65.213 8.99 8.99 20.798 13.484 32.607 13.484z"/><path d="m301.405 363.707c0-24.813-20.187-45-45-45s-45 20.187-45 45 20.187 45 45 45 45-20.186 45-45zm-60 0c0-8.271 6.729-15 15-15s15 6.729 15 15-6.729 15-15 15-15-6.728-15-15z"/></g></svg>