<svg id="Layer_1" enable-background="new 0 0 510 510" height="512" viewBox="0 0 510 510" width="512" xmlns="http://www.w3.org/2000/svg"><path id="XMLID_1586_" d="m509.407 359.773c-3.373-50.56-30.784-107.658-79.874-118.482-2.907-52.441-32.578-113.086-84.696-120.828-29.235-120.342-150.465-120.285-179.674 0-52.141 7.773-81.768 68.354-84.696 120.828-49.111 10.854-76.482 67.889-79.874 118.482h-.593v30c0 49.626 40.374 90 90 90h330c49.626 0 90-40.374 90-90v-30zm-30.105 0h-128.604c13.558-119.279 115.076-119.192 128.604 0zm-224.302-90c32.089 0 59.639 39.885 64.302 90h-128.604c4.663-50.115 32.213-90 64.302-90zm144.458-28.253c-26.915 5.174-52.573 31.9-64.458 59.961-11.89-28.066-37.539-54.783-64.458-59.961 12.618-121.579 116.328-121.49 128.916 0zm-144.458-181.747c25.452 0 49.1 25.783 59.451 63.076-24.856 6.783-48.245 32.345-59.451 58.632-11.209-26.29-34.592-51.846-59.451-58.632 10.351-37.293 33.999-63.076 59.451-63.076zm-80 90c32.461 0 60.28 40.814 64.458 91.747-26.915 5.174-52.573 31.9-64.458 59.961-11.89-28.066-37.539-54.783-64.458-59.961 4.178-50.933 31.997-91.747 64.458-91.747zm-80 120c32.089 0 59.639 39.885 64.302 90h-128.604c4.663-50.115 32.213-90 64.302-90zm325 180h-330c-33.084 0-60-26.916-60-60h450c0 33.084-26.916 60-60 60z"/></svg>