<?xml version="1.0" encoding="iso-8859-1"?>
<!-- Generator: Adobe Illustrator 19.0.0, SVG Export Plug-In . SVG Version: 6.00 Build 0)  -->
<svg xmlns="http://www.w3.org/2000/svg" xmlns:xlink="http://www.w3.org/1999/xlink" version="1.1" id="Layer_1" x="0px" y="0px" viewBox="0 0 512 512" style="enable-background:new 0 0 512 512;" xml:space="preserve">
<g>
	<g>
		<path d="M445.216,129.151L445.216,129.151c-48.762-42.399-99.12-41.903-132.775-34.019c-16.569,3.88-30.695,9.868-41.203,15.263    c3.332-24.64,16.782-61.646,64.943-82.939L324.056,0c-36.186,15.998-56.649,39.488-68.21,61.418    c-3.682-5.812-8.291-11.418-14.059-16.432c-30.899-26.856-73.56-18.104-75.36-17.719l-11.029,2.362l-0.794,11.257    c-0.097,1.384-1.645,26.377,10.782,50.106c-29.45-0.206-64.416,8.434-98.6,38.159c-32.233,28.028-48.458,72.733-46.92,129.282    c1.16,42.676,12.776,90.045,32.707,133.383c20.236,44.001,47.822,81.029,77.676,104.261l0.359,0.271    c1.673,1.223,17.046,12.034,41.395,14.952c20.342,2.437,50.705-0.442,83.997-25.871C283.367,506.333,308.754,512,328.224,512    c4.215,0,8.152-0.266,11.773-0.7c24.35-2.918,39.724-13.729,41.396-14.952l0.358-0.271    c29.854-23.232,57.439-60.259,77.676-104.261c19.931-43.337,31.547-90.707,32.707-133.382    C493.673,201.885,477.448,157.18,445.216,129.151z M222.113,67.647c11.417,9.923,15.7,24.519,17.285,34.982    c-10.584-0.111-25.643-2.313-37.044-12.222c-11.412-9.918-15.574-24.429-17.061-34.795    C195.759,55.636,210.703,57.73,222.113,67.647z M462.147,257.618c-2.181,80.155-44.513,172.297-98.523,214.54    c-3.449,2.352-45.325,29.149-97.658-17.396l-9.965-8.863l-9.965,8.863c-52.331,46.539-94.203,19.75-97.656,17.396    c-54.012-42.242-96.345-134.387-98.524-214.541c-0.897-32.968,4.727-78.086,36.61-105.809    c31.183-27.114,66.594-36.428,105.255-27.68c29.926,6.772,50.876,22.246,51.051,22.377l13.23,9.198l12.737-8.84l0.492-0.357    c0.199-0.151,20.325-15.184,50.047-22.145c39.047-9.143,74.796,0.091,106.26,27.449h-0.001    C457.419,179.532,463.043,224.65,462.147,257.618z"/>
	</g>
</g>
<g>
</g>
<g>
</g>
<g>
</g>
<g>
</g>
<g>
</g>
<g>
</g>
<g>
</g>
<g>
</g>
<g>
</g>
<g>
</g>
<g>
</g>
<g>
</g>
<g>
</g>
<g>
</g>
<g>
</g>
</svg>
