<svg id="Capa_1" enable-background="new 0 0 510 510" height="512" viewBox="0 0 510 510" width="512" xmlns="http://www.w3.org/2000/svg"><g><path d="m434.255 137.458c-7.977-66.718-76.623-109.592-140.699-85.939-21.701-31.248-57.937-51.519-98.556-51.519-72.664 0-129.315 64.604-118.75 137.339-43.616 9.666-76.25 48.587-76.25 95.161 0 53.762 43.738 97.5 97.5 97.5h67.5v30h30v-30h120v30h30v-30h67.5c53.762 0 97.5-43.738 97.5-97.5 0-45.773-31.796-85.023-75.745-95.042zm-21.755 162.542h-315c-37.22 0-67.5-30.28-67.5-67.5 0-36.456 28.524-66.075 64.938-67.432l19.355-.721-5.54-18.559c-17.225-57.702 26.164-115.788 86.247-115.788 49.599 0 90 40.344 90 90h30c0-14.608-2.627-28.613-7.429-41.572 48.484-15.142 97.384 21.253 97.429 71.501l-.118 14.125 13.767 1.24c34.976 3.151 61.351 32.044 61.351 67.206 0 37.22-30.28 67.5-67.5 67.5z"/><path d="m37.721 420 63.639 63.64 63.639-63.64-63.639-63.64zm63.639 21.214-21.213-21.214 21.213-21.214 21.214 21.214z"/><path d="m258.64 356.36-63.639 63.64 63.639 63.64 63.64-63.64zm-21.214 63.64 21.213-21.214 21.214 21.214-21.214 21.214z"/><path d="m345 420 63.64 63.64 63.64-63.64-63.64-63.64zm63.64 21.214-21.214-21.214 21.214-21.214 21.213 21.214z"/><path d="m165 480h30v30h-30z"/><path d="m315 480h30v30h-30z"/></g></svg>