<svg id="Capa_1" enable-background="new 0 0 512 512" height="512" viewBox="0 0 512 512" width="512" xmlns="http://www.w3.org/2000/svg"><g><path d="m406.5 150h-15.5v-29.605h45v-75.395c0-24.813-20.187-45-45-45h-270c-24.813 0-45 20.187-45 45v75.395h45v29.605h-15.5c-24.813 0-45 20.187-45 45v317h391v-317c0-24.813-20.187-45-45-45zm-234.5-59.605v-60.395h36v60.395zm66-60.395h36v60.395h-36zm66 0h36v60.395h-36zm102 15v45.395h-36v-60.395h21c8.271 0 15 6.729 15 15zm-300 0c0-8.271 6.729-15 15-15h21v60.395h-36zm45 75.395h210v29.605h-210zm270.5 361.605h-331v-287c0-8.271 6.729-15 15-15h301c8.271 0 15 6.729 15 15z"/><path d="m256 211c-66.168 0-120 53.832-120 120s53.832 120 120 120 120-53.832 120-120-53.832-120-120-120zm-90 120c0-49.626 40.374-90 90-90 .91 0 1.815.018 2.718.045l-77.423 104.955h90l-50.145 67.977c-32.369-13.646-55.15-45.701-55.15-82.977zm90 90c-.91 0-1.815-.018-2.718-.045l77.423-104.955h-90l50.145-67.977c32.369 13.646 55.15 45.701 55.15 82.977 0 49.626-40.374 90-90 90z"/></g></svg>