<svg id="Capa_1" enable-background="new 0 0 512.001 512.001" height="512" viewBox="0 0 512.001 512.001" width="512" xmlns="http://www.w3.org/2000/svg"><g><path d="m407 122.522c-34.63-35.57-83.59-44.802-124.175-12.863-39.372-31.48-91.748-23.426-124.037 13.442v174.556h248.212zm-70.221-3.522c13.54-.433 27.047 5.082 40.222 16.453v80.895c-13.238-7.143-27.048-10.513-41.217-10.035-14.785.491-27.677 5.189-37.889 10.718v-80.888c5.955-5.324 20.601-16.536 38.884-17.143zm-147.99 16.288c6.482-5.582 20.566-15.712 37.914-16.288 13.873-.46 27.71 5.375 41.192 17.321v80.579c-12.723-7.057-25.953-10.631-39.575-10.631-.868 0-1.742.015-2.613.044-14.319.476-26.865 4.896-36.918 10.197zm0 117.298c6.479-5.581 20.56-15.714 37.914-16.291 13.874-.441 27.71 5.377 41.192 17.321v14.041h-79.106zm109.106 15.071v-14.219c5.955-5.323 20.601-16.535 38.884-17.142 13.536-.429 27.046 5.104 40.222 16.473v14.888z"/><path d="m489.774 205.774c0-113.464-92.31-205.774-205.774-205.774-44.388 0-86.66 13.912-122.247 40.233-34.871 25.792-60.319 61.137-73.593 102.215l-.352 1.089-8.956 55.412-56.625 102.69v38.361h47.105l18.983 103.695h106.936l16.135 68.306h244.439l-28.293-158.774c39.657-38.635 62.242-91.901 62.242-147.453zm-254.649 276.227-16.135-68.306h-105.668l-18.983-103.695h-42.112v-.639l55.41-100.485 9.417-58.27c23.826-72.188 90.773-120.606 166.946-120.606 96.923 0 175.774 78.853 175.774 175.774 0 49.867-21.306 97.577-58.453 130.897l-6.217 5.576 24.903 139.753h-184.882z"/></g></svg>