<svg id="Layer_1" enable-background="new 0 0 509.98 509.98" height="512" viewBox="0 0 509.98 509.98" width="512" xmlns="http://www.w3.org/2000/svg"><g><path d="m299.978 90.098c-48.355 0-94.813 16.689-131.898 46.628-5.449-24.388-18.102-27.172-18.102-51.63 0-13.516 3.366-19.405 8.023-27.557 5.336-9.338 11.977-20.958 11.977-42.441v-15h-150v15c0 13.516-3.366 19.405-8.023 27.557-15.946 23.87-15.907 61.08 0 84.881 4.658 8.151 8.023 14.04 8.023 27.556s-3.365 19.405-8.023 27.557c-15.947 23.871-15.906 61.083 0 84.885 4.658 8.151 8.023 14.041 8.023 27.558 0 13.518-3.366 19.408-8.024 27.561-15.95 23.974-15.928 60.95.001 84.887 4.657 8.152 8.023 14.043 8.023 27.561v15h133.077c130.518 129.634 358.044 34.25 356.922-150.003.001-115.794-94.205-210-209.999-210zm-270 274.996c0-13.518 3.366-19.408 8.024-27.561 15.95-23.973 15.928-60.952 0-84.886-4.658-8.151-8.023-14.041-8.023-27.558s3.366-19.406 8.024-27.558c15.946-23.871 15.906-61.081 0-84.882-4.658-8.151-8.023-14.04-8.023-27.555 0-25.479 14.066-28.011 18.774-54.998h29.21c-4.536 14.331-17.984 24.086-17.984 54.998 0 21.482 6.641 33.103 11.977 42.439 4.658 8.151 8.023 14.04 8.023 27.556s-3.365 19.405-8.023 27.557c-15.947 23.871-15.906 61.083 0 84.885 4.658 8.151 8.023 14.041 8.023 27.558 0 13.518-3.366 19.408-8.024 27.561-15.94 23.936-15.932 60.963 0 84.887 2.473 4.328 4.575 8.027 6.009 12.56h-29.213c-4.707-26.991-18.774-29.487-18.774-55.003zm101.976-97.562c4.658 8.151 8.023 14.041 8.023 27.558 0 13.518-3.366 19.408-8.024 27.561-5.336 9.338-11.976 20.959-11.976 42.443.115 29.428 10.568 35.88 17.995 55.004h-29.226c-4.683-26.842-18.77-29.603-18.77-55.004 0-13.518 3.366-19.408 8.024-27.561 15.938-23.93 15.934-60.964-.001-84.886-4.658-8.151-8.023-14.041-8.023-27.558s3.366-19.406 8.024-27.558c15.946-23.871 15.906-61.081-.001-84.882-4.658-8.151-8.023-14.04-8.023-27.555 0-25.121 14.122-28.361 18.77-54.998h29.225c-4.505 14.242-17.995 24.049-17.995 54.998 0 21.482 6.641 33.103 11.977 42.439 4.658 8.151 8.023 14.04 8.023 27.556s-3.365 19.405-8.023 27.557c-15.946 23.873-15.904 61.084.001 84.886zm168.024 212.566c-49.395 0-96.735-20.43-130.664-56.217-3.221-28.74-19.359-32.173-19.336-58.787.001-13.518 3.366-19.408 8.024-27.561 15.931-23.903 15.937-60.972 0-84.886-4.658-8.151-8.023-14.041-8.023-27.558 0-22.616 9.998-25.316 16.501-45.7 108.631-121.57 314.314-42.483 313.498 120.711 0 99.25-80.748 179.998-180 179.998z"/><path d="m334.473 198.766c-67.36-57.125-159.982 26.113-111.109 99.111-36.692 59.582 6.108 137.22 76.614 137.22 40.023 0 74.793-26.33 86.128-63.872 112.243-38.425 63.809-201.858-51.633-172.459zm36.5 145.306-10.143 1.877-1.877 10.144c-5.254 28.395-30.057 49.005-58.975 49.005-33.084 0-60-26.916-60-60 0-28.287 18.456-42.504 22.493-48.745l-9.533-9.669c-41.407-45.724 24.051-106.092 66.223-60.829l7.16 8.359c7.072-2.529 16.788-9.116 33.656-9.116 33.084 0 60 26.916 60 60 .001 28.918-20.609 53.72-49.004 58.974z"/></g></svg>