<svg id="Layer_1" enable-background="new 0 0 509.846 509.846" height="512" viewBox="0 0 509.846 509.846" width="512" xmlns="http://www.w3.org/2000/svg"><g id="XMLID_761_"><path id="XMLID_771_" d="m489.903 296.549-53.506-90.144c-2.426-179.036-230.005-275.659-357.905-148.299-40.557 39.61-63.128 93.203-63.554 150.906-.475 64.585 26.529 137.116 74.994 179.314v121.521h255v-75h58.68c17.271 0 31.32-14.045 31.32-31.31v-58.69h28.657c11.567 0 22.146-6.335 27.607-16.532 5.39-10.066 4.885-22.195-1.293-31.766zm-25.154 17.603c-.371.694-.884.694-1.159.694h-58.657v88.69c0 .722-.592 1.31-1.32 1.31h-88.68v75h-195v-105.791l-5.671-4.504c-41.926-33.297-69.784-97.724-69.323-160.318.746-101.072 80.61-180.975 179.751-179.362 100.217 1.626 181.749 82.697 181.749 180.722v4.116c.58.977-6.831-11.503 58.247 98.092.152.229.436.656.063 1.351z"/><path id="XMLID_775_" d="m245.849 141.554-26.832-13.416-48.355 96.708h60l-26.645 53.292 26.832 13.416 48.354-96.708h-60z"/><path id="XMLID_778_" d="m224.933 59.846c-82.71 0-150 67.29-150 150 7.541 198.722 292.489 198.668 300-.002 0-82.708-67.29-149.998-150-149.998zm0 270c-66.168 0-120-53.832-120-120 6.033-158.978 233.991-158.934 240 .002 0 66.166-53.832 119.998-120 119.998z"/></g></svg>