<svg id="Layer_1" enable-background="new 0 0 510.034 510.034" height="512" viewBox="0 0 510.034 510.034" width="512" xmlns="http://www.w3.org/2000/svg"><g><path d="m240.017 270.034h30v30h-30z"/><path d="m270.017 330.034h30v30h-30z"/><path d="m210.017 330.034h30v30h-30z"/><path d="m474.458 235.212c-17.668-25.509-25.881-57.473-23.14-90.033 2.459-19.873 6.23-44.102 7.971-48.801 18.639-42.007-9.575-96.826-54.273-96.344-44.633-.431-72.938 53.74-54.271 96.345 1.74 4.702 5.511 28.93 7.97 48.8 2.741 32.561-5.472 64.524-23.148 90.046-.236.342-.461.688-.694 1.031-47.441-34.92-112.111-35.038-159.711 0-.236-.348-.464-.697-.703-1.044-17.668-25.509-25.881-57.473-23.14-90.033 2.459-19.869 6.229-44.095 7.97-48.799 18.113-40.933-7.99-94.573-51.451-96.264-45.333-2.997-76.429 52.356-57.093 96.263 1.74 4.702 5.511 28.93 7.97 48.8 2.741 32.561-5.472 64.524-23.146 90.042-43.715 60.613-44.255 141.976-16.386 206.47 12.395 28.496 29.899 51.196 50.624 65.647l3.866 2.695h63.794l4.3-3.939c17.565-16.087 30.231-31.155 40.009-47.708 44.096 28.591 101.52 29.152 146.48 0 9.781 16.558 22.446 31.623 40.009 47.708l4.3 3.939h63.794l3.866-2.695c20.725-14.451 38.23-37.151 50.624-65.647 27.871-64.517 27.331-145.841-16.391-206.479zm-53.006-92.874c-.654 7.602-.807 15.184-.48 22.695h-31.91c.326-7.512.174-15.093-.48-22.695-.014-.114-.243-2.15-.913-7.305h34.697c-.671 5.155-.9 7.191-.914 7.305zm-17.659-112.264c24.234-1.321 38.132 31.874 27.818 54.73-1.581 3.755-3.246 11.456-4.784 20.229h-43.62c-1.538-8.771-3.203-16.471-4.782-20.223-9.952-21.858 2.706-53.694 25.368-54.736zm-282.341 112.264c-.654 7.602-.807 15.184-.48 22.695h-31.91c.326-7.512.174-15.093-.48-22.695-.014-.114-.243-2.15-.913-7.305h34.697c-.671 5.155-.9 7.191-.914 7.305zm-16.435-112.304c.646 0 1.021.031 1.224.04 22.671 1.048 35.313 32.878 25.371 54.73-1.581 3.755-3.246 11.456-4.784 20.229h-43.62c-1.538-8.771-3.203-16.471-4.782-20.223-10.145-22.466 3.118-54.941 26.591-54.776zm20.703 450h-42.41c-55.742-43.27-73.641-162.15-23.072-227.739 11.883-17.156 20.268-36.64 24.867-57.261h39.824c4.599 20.62 12.98 40.1 24.858 57.248 1.053 1.523 2.067 3.061 3.064 4.602-45.603 52.78-43.628 131.747 5.405 182.188-7.788 14.209-18.052 27.141-32.536 40.962zm24.297-135c0-57.897 47.102-105 105-105 139.106 5.278 139.068 204.743-.001 210-57.897 0-104.999-47.103-104.999-105zm276.707 135h-42.41c-14.48-13.816-24.744-26.748-32.537-40.963 48.914-50.315 51.124-129.275 5.405-182.188.995-1.538 2.007-3.071 3.056-4.589 11.883-17.156 20.268-36.64 24.867-57.261h39.824c4.599 20.62 12.982 40.101 24.861 57.252 50.578 65.565 32.667 184.512-23.066 227.749z"/></g></svg>