<svg id="Capa_1" enable-background="new 0 0 512 512" height="512" viewBox="0 0 512 512" width="512" xmlns="http://www.w3.org/2000/svg"><g><path d="m52.36 0v512h407.28v-512zm377.28 482h-347.28v-452h347.28z"/><path d="m390.99 69.805h-269.98v132.561h269.98zm-30 102.56h-209.98v-72.56h209.98z"/><path d="m270.36 352.195h-149.72v90h149.72zm-30 60h-89.72v-30h89.72z"/><path d="m121 232.195h30v30h-30z"/><path d="m181 232.195h30v30h-30z"/><path d="m241 232.195h30v30h-30z"/><path d="m301 232.195h30v30h-30z"/><path d="m361 232.195h30v30h-30z"/><path d="m121 292.195h30v30h-30z"/><path d="m181 292.195h30v30h-30z"/><path d="m241 292.195h30v30h-30z"/><path d="m301 292.195h30v30h-30z"/><path d="m361 292.195h30v30h-30z"/><path d="m301 352.195h30v30h-30z"/><path d="m361 352.195h30v30h-30z"/><path d="m301 412.195h30v30h-30z"/><path d="m361 412.195h30v30h-30z"/></g></svg>