<?xml version="1.0" encoding="iso-8859-1"?>
<!-- Generator: Adobe Illustrator 19.0.0, SVG Export Plug-In . SVG Version: 6.00 Build 0)  -->
<svg xmlns="http://www.w3.org/2000/svg" xmlns:xlink="http://www.w3.org/1999/xlink" version="1.1" id="Capa_1" x="0px" y="0px" viewBox="0 0 512 512" style="enable-background:new 0 0 512 512;" xml:space="preserve">
<g>
	<g>
		<path d="M320.451,144.728c9.839-6.916,15.832-12.876,16.42-13.47l-21.313-21.113c-0.147,0.148-8.394,8.198-20.965,15.516    c0.208-1.625,0.327-3.278,0.327-4.959c0-16.146-9.885-30.024-23.919-35.909V0h-30v84.792    c-14.034,5.885-23.919,19.763-23.919,35.909c0,1.698,0.121,3.367,0.333,5.008c-12.608-7.338-20.837-15.431-20.971-15.564    l-21.313,21.113c0.588,0.594,6.582,6.554,16.42,13.47c-48.548,11.449-84.792,55.134-84.792,107.128V512h298.483V251.855    C405.241,199.861,368.999,156.177,320.451,144.728z M271.001,173.574c28.381,6.782,49.551,32.344,49.551,62.772v189.997h-49.551    V173.574z M256.001,111.782c4.918,0,8.919,4.001,8.919,8.919c0,4.918-4.001,8.919-8.919,8.919c-4.918,0-8.919-4.001-8.919-8.919    C247.082,115.783,251.084,111.782,256.001,111.782z M191.452,236.346c0-30.428,21.17-55.99,49.55-62.772v252.769h-49.55V236.346z     M136.76,251.855c0.001-30.577,17.238-57.194,42.499-70.674c-11.2,15.537-17.809,34.593-17.809,55.165v189.997h-24.69V251.855z     M375.241,482h-238.48v-25.657h238.48V482z M375.241,426.342h-24.689V236.346c0-20.572-6.608-39.628-17.808-55.164    c25.261,13.48,42.497,40.097,42.497,70.673V426.342z"/>
	</g>
</g>
<g>
</g>
<g>
</g>
<g>
</g>
<g>
</g>
<g>
</g>
<g>
</g>
<g>
</g>
<g>
</g>
<g>
</g>
<g>
</g>
<g>
</g>
<g>
</g>
<g>
</g>
<g>
</g>
<g>
</g>
</svg>
