<svg id="Capa_1" enable-background="new 0 0 512 512" height="512" viewBox="0 0 512 512" width="512" xmlns="http://www.w3.org/2000/svg"><g><path d="m361 75v91c0 41.177-23.896 77.836-60.01 94.923l.001-215.923c0-8.271 6.739-15 15.01-15h42.999v-30h-209.875v30h46.875c8.271 0 15 6.729 15 15v215.923c-36.114-17.086-60-53.746-60-94.923v-91c0-24.813-20.187-45-45-45h-106v30h46c8.271 0 15 6.729 15 15v91c0 91.167 63.215 169.136 150 189.755v111.245c0 8.271-6.729 15-15 15h-45v30h210v-30h-45c-8.271 0-15-6.729-15-15v-111.245c86.964-20.662 150-98.774 150-189.755v-91c0-8.271 6.729-15 15-15h46v-30h-106c-24.813 0-45 20.187-45 45zm60 0v91c0 80.86-57.823 149.289-137.491 162.709l-12.509 2.107v136.184c0 5.257.906 10.307 2.57 15h-35.141c1.664-4.693 2.57-9.743 2.57-15v-136.184l-12.508-2.107c-79.667-13.42-137.491-81.849-137.491-162.709v-91c0-5.257-.906-10.307-2.57-15h17.57c8.271 0 15 6.729 15 15v91c0 61.636 41.64 115.401 101.261 130.746l18.739 4.823v-256.579c0-5.257-.906-10.307-2.57-15h35.142c-1.664 4.693-2.57 9.743-2.57 15l-.002 256.579 18.739-4.823c59.621-15.346 101.261-69.11 101.261-130.746v-91c0-8.271 6.729-15.01 15-15.01h17.57c-1.664 4.693-2.57 9.753-2.57 15.01z"/></g></svg>