<svg id="Capa_1" enable-background="new 0 0 512 512" height="512" viewBox="0 0 512 512" width="512" xmlns="http://www.w3.org/2000/svg"><g><g><path d="m463.25 165c26.881 0 48.75-21.869 48.75-48.75s-21.869-48.75-48.75-48.75h-55.009c-9.58-22.815-32.17-38.364-57.702-38.364h-8.54c-15.596-18.376-38.56-29.136-62.899-29.136-31.228 0-59.544 17.703-73.487 45h-31.213c-18.289 0-35.525 8.441-46.818 22.5h-78.832c-26.881 0-48.75 21.869-48.75 48.75s21.869 48.75 48.75 48.75h27.25v111.228l-40.28 235.772h440.56l-40.28-235.772v-111.228zm-391.97 317 22.124-129.5h55.192l22.124 129.5zm32.375-189.5h34.691l5.125 30h-44.942zm62.345-16.272v-111.228h45v81.379l-23.447 156.004zm39.923 205.772 23.973-159.5h52.208l23.973 159.5zm32.991-219.5h34.172l4.509 30h-43.19zm62.086-16.121v-81.379h45v111.228l-21.553 126.155zm139.72 235.621h-99.44l22.124-129.5h55.191zm-67.065-189.5h34.69l5.125 30h-44.94zm32.345-157.5v127.5h-30v-127.5h-105v97.5h-30v-97.5h-105v127.5h-30v-127.5h-57.25c-10.339 0-18.75-8.411-18.75-18.75s8.411-18.75 18.75-18.75h95.335l4.333-7.486c5.359-9.261 15.315-15.014 25.982-15.014h51.663l3.536-10c7.401-20.935 27.294-35 49.501-35 17.223 0 33.369 8.475 43.189 22.67l4.474 6.466h23.776c15.529 0 28.966 11.04 31.949 26.251l2.376 12.113h78.386c10.339 0 18.75 8.411 18.75 18.75s-8.411 18.75-18.75 18.75z"/></g></g></svg>