<svg id="Capa_1" enable-background="new 0 0 512 512" height="512" viewBox="0 0 512 512" width="512" xmlns="http://www.w3.org/2000/svg"><g><path d="m193.373 291.69v-80.968c9.781-12.298 15.646-27.843 15.646-44.742v-65.98h-57.019v-40h22.333v-30h-22.333v-30h-30v30h-22.333v30h22.333v40h-57.02v65.98c0 16.899 5.865 32.444 15.646 44.742v80.967l-27.192 130.311h-20.434v90h208v-90h-20.434zm-82.746-58.713c8.174 3.229 17.065 5.023 26.373 5.023s18.199-1.794 26.373-5.023v45.262h-52.746zm-15.647-102.977h84.039v35.98c0 23.17-18.85 42.02-42.019 42.02s-42.02-18.85-42.02-42.02zm12.84 178.238h58.36l23.74 113.762h-105.84zm103.18 173.762h-148v-30h148z"/><path d="m456.83 422-25.071-111.902c12.98-14.14 20.276-32.658 20.276-52.063 0-42.477-34.557-77.035-77.035-77.035-42.477 0-77.034 34.558-77.034 77.035 0 19.404 7.295 37.923 20.275 52.063l-25.071 111.902h-22.17v90h208v-90zm-112.368-128.212c-10.483-8.966-16.496-21.998-16.496-35.753 0-25.935 21.099-47.035 47.034-47.035 25.936 0 47.035 21.1 47.035 47.035 0 13.755-6.013 26.786-16.497 35.753l-6.862 5.868 27.41 122.344h-102.172l27.41-122.344zm104.538 188.212h-148v-30h148z"/></g></svg>