<svg id="Capa_1" enable-background="new 0 0 512 512" height="512" viewBox="0 0 512 512" width="512" xmlns="http://www.w3.org/2000/svg"><g><path d="m437.02 74.98c-48.353-48.351-112.64-74.98-181.02-74.98s-132.667 26.629-181.02 74.98c-48.351 48.353-74.98 112.64-74.98 181.02s26.629 132.667 74.98 181.02c48.353 48.351 112.64 74.98 181.02 74.98s132.667-26.629 181.02-74.98c48.351-48.353 74.98-112.64 74.98-181.02s-26.629-132.667-74.98-181.02zm-181.02 407.02c-124.617 0-226-101.383-226-226s101.383-226 226-226 226 101.383 226 226-101.383 226-226 226z"/><path d="m214.919 210.617c0-25.342-16.084-46.996-38.579-55.295 9.385 2.773 18.932 4.444 28.174 4.444 5.731 0 11.347-.642 16.733-2.058l-7.63-29.014c-21.306 5.607-57.682-11.246-79.167-30.07l-19.77 22.564c13.09 11.469 34.24 24.988 56.811 32.593-4.939-1.348-10.128-2.081-15.489-2.081-32.486 0-58.915 26.429-58.915 58.915s26.429 58.915 58.915 58.915 58.917-26.426 58.917-58.913zm-87.83 0c0-15.943 12.971-28.915 28.915-28.915s28.915 12.972 28.915 28.915-12.971 28.915-28.915 28.915-28.915-12.971-28.915-28.915z"/><path d="m355.995 151.702c-5.364 0-10.557.734-15.499 2.084 22.575-7.605 43.732-21.127 56.823-32.596l-19.77-22.564c-21.486 18.825-57.869 35.673-79.166 30.07l-7.631 29.014c5.389 1.417 10.999 2.058 16.733 2.058 9.244 0 18.792-1.672 28.179-4.446-22.497 8.298-38.583 29.953-38.583 55.297 0 32.486 26.429 58.915 58.914 58.915 32.486 0 58.915-26.429 58.915-58.915s-26.429-58.917-58.915-58.917zm0 87.83c-15.943 0-28.914-12.972-28.914-28.915s12.971-28.915 28.914-28.915 28.915 12.972 28.915 28.915-12.972 28.915-28.915 28.915z"/><path d="m256 353.38c-35.33 0-66.966-21.062-80.597-53.656l-27.677 11.574c18.312 43.788 60.812 72.082 108.274 72.082 47.254 0 89.682-28.123 108.091-71.647l-27.631-11.686c-13.703 32.398-45.285 53.333-80.46 53.333z"/></g></svg>