<svg id="Capa_1" enable-background="new 0 0 512 512" height="512" viewBox="0 0 512 512" width="512" xmlns="http://www.w3.org/2000/svg"><g><path d="m501.528 224.571c0-4.096-.5-8.076-1.418-11.894l11.89-6.865-15-25.98-12.207 7.048c-5.444-4.937-11.959-8.713-19.15-10.936v-14.217h-30v14.217c-7.191 2.223-13.705 5.998-19.15 10.936l-12.207-7.048-15 25.98 11.89 6.865c-.918 3.818-1.418 7.798-1.418 11.894 0 3.684.403 7.275 1.151 10.739l-11.622 6.71 15 25.98 11.35-6.553c5.614 5.332 12.431 9.407 20.007 11.749v12.908h30v-12.908c7.576-2.342 14.393-6.417 20.007-11.749l11.349 6.553 15-25.98-11.622-6.71c.747-3.464 1.15-7.055 1.15-10.739zm-50.885 20.885c-11.516 0-20.885-9.369-20.885-20.885 0-11.517 9.369-20.886 20.885-20.886s20.885 9.369 20.885 20.886c0 11.515-9.369 20.885-20.885 20.885z"/><path d="m15 330.19 11.35-6.553c5.614 5.332 12.431 9.407 20.007 11.749v12.907h30v-12.907c7.576-2.342 14.393-6.417 20.007-11.749l11.35 6.553 15-25.98-11.622-6.71c.747-3.464 1.151-7.055 1.151-10.74 0-4.096-.5-8.076-1.418-11.894l11.89-6.865-15-25.98-12.208 7.048c-5.444-4.937-11.959-8.712-19.149-10.935v-14.217h-30v14.217c-7.19 2.223-13.705 5.998-19.149 10.935l-12.209-7.049-15 25.98 11.89 6.865c-.918 3.818-1.418 7.798-1.418 11.894 0 3.685.403 7.276 1.151 10.74l-11.623 6.71zm46.357-64.315c11.516 0 20.885 9.369 20.885 20.885 0 11.517-9.369 20.886-20.885 20.886s-20.885-9.369-20.885-20.886c0-11.516 9.369-20.885 20.885-20.885z"/><path d="m256 264.27c10.41 0 19.14 7 21.48 16.41l28.9-5.75c-2.75-13.81-16.81-39.94-50.38-39.94s-47.63 26.13-50.38 39.94l28.9 5.75c2.34-9.41 11.07-16.41 21.48-16.41z"/><path d="m376.765 355.61-46.581-6.795-8.889-28.737c22.751-19.864 37.27-49.87 37.27-83.387v-51.093c18.558-15.079 28.042-32.814 27.523-51.668-.12-73.858-58.43-133.91-130.086-133.91-74.491 0-132.85 58.314-132.9 132.769-.291 27.324 17.486 43.757 30.333 53.176v50.726c0 33.517 14.519 63.522 37.269 83.385l-8.891 28.748-46.581 6.838c-81.238 12.767-131.815 77.979-135.231 156.318h511.999c-3.026-81.038-56.376-143.998-135.235-156.37zm-220.983-210.385c-1.8-3.667-2.736-7.637-2.681-12.166-1.194-56.122 46.021-104.163 102.901-103.039 55.188 0 100.087 46.716 100.087 104.138l.008.483c.08 2.481-.271 4.887-.959 7.207-8.218-23.153-30.332-39.782-56.267-39.782-9.676 0-18.773 3.769-25.615 10.61-8.342 8.633-24.808 9.954-34.512 0-6.842-6.842-15.939-10.61-25.615-10.61-27.179 0-50.157 18.264-57.347 43.159zm27.653 91.466v-74.931c0-16.373 13.321-29.694 29.694-29.694 1.663 0 3.226.647 4.401 1.823 19.674 20.6 56.478 21.363 76.939 0 1.176-1.176 2.739-1.823 4.402-1.823 16.374 0 29.694 13.321 29.694 29.694v74.931c0 43.125-32.553 78.209-72.565 78.209s-72.565-35.084-72.565-78.209zm119.776 126.442c-6.08 27.486-28.927 37.354-47.211 37.354s-41.132-9.869-47.21-37.356l8.161-26.388c12.043 5.251 25.23 8.156 39.05 8.156 13.819 0 27.005-2.905 39.048-8.156zm118.414 118.847v-45.253h-30v45.253h-271.25v-45.253h-30v45.253h-56.008c11.768-50.229 53.144-88.991 105.223-96.636l42.585-6.252c10.096 30.593 40.692 51.716 73.826 51.395 32.255.25 63.37-19.842 73.83-51.407l42.605 6.215c52.287 7.626 93.614 46.354 105.353 96.685z"/></g></svg>