<svg id="Capa_1" enable-background="new 0 0 512 512" height="512" viewBox="0 0 512 512" width="512" xmlns="http://www.w3.org/2000/svg"><g><path d="m446.109 150v-30h-30v-60h-117.689c1.665-4.695 2.58-9.741 2.58-15 0-24.813-20.187-45-45-45s-45 20.187-45 45c0 5.259.915 10.305 2.58 15h-117.689v60h-30v30h30v55.521h-30v30h30v4.892c0 30.387 24.722 55.108 55.109 55.108h14.174l20 60.261h25.826v156.218h90v-156.218h25.826l20-60.261h14.174c30.387 0 55.108-24.722 55.108-55.108v-4.892h30v-30h-30v-55.521zm-205.109-105c0-8.271 6.729-15 15-15s15 6.729 15 15-6.729 15-15 15-15-6.729-15-15zm-115.109 45h260.217v30h-260.217zm98.109 115.521v-55.521h64v55.521zm-98.109-55.521h68.109v55.521h-68.109zm145.109 332h-30v-126.218h30zm34.174-156.218h-98.348l-10.043-30.261h118.434zm80.935-85.369c0 13.845-11.264 25.108-25.108 25.108h-210.001c-13.845 0-25.109-11.264-25.109-25.108v-4.892h260.217v4.892zm0-34.892h-68.109v-55.521h68.108v55.521z"/></g></svg>