<svg id="Capa_1" enable-background="new 0 0 512 512" height="512" viewBox="0 0 512 512" width="512" xmlns="http://www.w3.org/2000/svg"><g><path d="m403.439 407.707h-273.835l143.537-143.776 20.454 20.463 218.405-218.497-63.613-63.638-218.405 218.495 21.955 21.964-143.588 143.827v-55.945h-108.349v181.4h511.787v-181.4h-108.348zm44.948-363.022 21.205 21.213-175.997 176.07-21.204-21.214zm-14.961 315.915h48.374v121.4h-451.812v-121.4h48.373v77.107h355.065z"/><path d="m44.981 177h171.929v-30h-171.929c-8.268 0-14.994-6.729-14.994-15v-29c0-8.271 6.726-15 14.994-15h150.937c24.803 0 44.981-20.187 44.981-45v-43h-29.988v43c0 8.271-6.726 15-14.994 15h-150.936c-24.802 0-44.981 20.187-44.981 45v29c0 24.813 20.179 45 44.981 45z"/></g></svg>