<svg id="Capa_1" enable-background="new 0 0 512 512" height="512" viewBox="0 0 512 512" width="512" xmlns="http://www.w3.org/2000/svg"><g><path d="m136 0c-49.626 0-90 40.374-90 90v30c0 33.245 18.12 62.335 45.001 77.919v71.419h-15.001v182.662c0 33.084 26.916 60 60 60s60-26.916 60-60v-182.662h-14.999v-71.42c26.88-15.585 44.999-44.675 44.999-77.918v-30c0-49.626-40.374-90-90-90zm30 299.34v29.602h-60v-29.602zm-30 182.66c-16.542 0-30-13.458-30-30v-93.059h60v93.059c0 16.542-13.458 30-30 30zm15.001-212.662h-30v-60.595c4.88.822 9.889 1.257 14.999 1.257 5.111 0 10.121-.435 15.001-1.257zm44.999-149.338c0 33.084-26.916 60-60 60s-60-26.916-60-60v-30c0-33.084 26.916-60 60-60s60 26.916 60 60z"/><path d="m256 0v105c0 41.803 24.558 77.974 60.002 94.856v69.482h-15.002v182.662c0 33.084 26.916 60 60 60s60-26.916 60-60v-182.662h-14.998v-69.484c35.442-16.882 59.998-53.052 59.998-94.854v-105zm135 299.34v29.602h-60v-29.602zm-30 182.66c-16.542 0-30-13.458-30-30v-93.059h60v93.059c0 16.542-13.458 30-30 30zm15.002-212.662h-30v-60.414c4.9.704 9.906 1.076 14.998 1.076 5.093 0 10.101-.372 15.002-1.076zm59.998-164.338c0 41.355-33.645 75-75 75s-75-33.645-75-75v-75h30v59.353h30v-59.353h30v59.353h30v-59.353h30z"/></g></svg>