<svg id="Capa_1" enable-background="new 0 0 512 512" height="512" viewBox="0 0 512 512" width="512" xmlns="http://www.w3.org/2000/svg"><g><path d="m466.976 112.09c-24.826 0-45.023 20.197-45.023 45.023v57.343c-4.761-1.681-9.826-2.556-15.024-2.556-12.026 0-23.333 4.684-31.836 13.188l-119.093 119.091-119.091-119.091c-8.504-8.504-19.811-13.188-31.837-13.188-5.198 0-10.263.875-15.024 2.556v-57.343c0-24.826-20.198-45.023-45.024-45.023s-45.024 20.197-45.024 45.023v154.455l84.63 144.68v55.752h342.74v-55.752l84.63-144.68v-154.455c0-24.826-20.198-45.023-45.024-45.023zm-225.976 369.91h-126.37v-33.883l-84.63-144.679v-146.325c0-8.284 6.74-15.023 15.024-15.023s15.024 6.739 15.024 15.023v99.789.021c0 12.026 4.683 23.333 13.188 31.837l60.549 60.55 21.213-21.213-60.549-60.55c-2.838-2.838-4.401-6.611-4.401-10.624s1.563-7.785 4.401-10.623c2.837-2.838 6.61-4.4 10.623-4.4s7.786 1.563 10.624 4.4l125.304 125.304zm241-178.562-84.63 144.679v33.883h-126.37v-110.396l125.306-125.304c2.837-2.838 6.609-4.4 10.622-4.4s7.786 1.563 10.624 4.401c2.817 2.816 4.378 6.555 4.4 10.535v.065.021c0 4.013-1.563 7.786-4.4 10.624l-60.55 60.55 21.213 21.213 60.55-60.55c8.504-8.504 13.188-19.811 13.188-31.837 0-.051 0-.101 0-.151v-99.659c0-8.284 6.739-15.023 15.023-15.023s15.024 6.74 15.024 15.024z"/><path d="m217.973 180h76.055v30h30v-38.789c0-26.078-13.377-50.303-35.091-66.211 21.715-15.909 35.091-40.133 35.091-66.21v-38.79h-30v30h-76.055v-30h-30v38.789c0 26.079 13.377 50.303 35.09 66.211-21.715 15.908-35.09 40.132-35.09 66.21v38.79h30zm38.026-90.905c-15.039-5.831-26.731-16.4-32.98-29.095h65.962c-6.25 12.695-17.941 23.263-32.982 29.095zm.002 31.81c15.039 5.831 26.731 16.399 32.98 29.095h-65.962c6.25-12.695 17.941-23.263 32.982-29.095z"/></g></svg>