<?xml version="1.0" encoding="iso-8859-1"?>
<!-- Generator: Adobe Illustrator 19.0.0, SVG Export Plug-In . SVG Version: 6.00 Build 0)  -->
<svg xmlns="http://www.w3.org/2000/svg" xmlns:xlink="http://www.w3.org/1999/xlink" version="1.1" id="Layer_1" x="0px" y="0px" viewBox="0 0 511.999 511.999" style="enable-background:new 0 0 511.999 511.999;" xml:space="preserve">
<g>
	<g>
		<path d="M501.302,154.594v-17.931c0-21.632-17.598-39.231-39.231-39.231c-14.266,0-26.773,7.655-33.64,19.072L73.03,29.995    C69.811,12.942,54.813,0,36.839,0C16.527,0,0,16.526,0,36.838c0,20.313,16.527,36.839,36.839,36.839    c11.751,0,22.227-5.538,28.976-14.133l357.023,86.903v8.146H0v357.406h511.999V154.594H501.302z M36.839,43.26    c-3.541,0-6.421-2.88-6.421-6.421c0-3.541,2.88-6.422,6.421-6.422c3.541,0,6.421,2.88,6.421,6.421    C43.26,40.379,40.38,43.26,36.839,43.26z M453.256,136.663c0-4.86,3.953-8.814,8.814-8.814c4.861,0,8.814,3.953,8.814,8.814    v17.931h-17.628V136.663z M481.583,481.583h-0.001H30.417V185.011h392.422h58.744V481.583z"/>
	</g>
</g>
<g>
	<g>
		<rect x="65.904" y="227.216" width="38.093" height="30.417"/>
	</g>
</g>
<g>
	<g>
		<rect x="65.904" y="272.649" width="38.093" height="30.417"/>
	</g>
</g>
<g>
	<g>
		<rect x="65.904" y="318.093" width="38.093" height="30.417"/>
	</g>
</g>
<g>
	<g>
		<rect x="65.904" y="363.526" width="38.093" height="30.417"/>
	</g>
</g>
<g>
	<g>
		<rect x="65.904" y="408.959" width="38.093" height="30.417"/>
	</g>
</g>
<g>
	<g>
		<rect x="116.335" y="227.216" width="38.093" height="30.417"/>
	</g>
</g>
<g>
	<g>
		<rect x="116.335" y="272.649" width="38.093" height="30.417"/>
	</g>
</g>
<g>
	<g>
		<rect x="116.335" y="318.093" width="38.093" height="30.417"/>
	</g>
</g>
<g>
	<g>
		<rect x="116.335" y="363.526" width="38.093" height="30.417"/>
	</g>
</g>
<g>
	<g>
		<rect x="116.335" y="408.959" width="38.093" height="30.417"/>
	</g>
</g>
<g>
	<g>
		<rect x="166.757" y="227.216" width="38.093" height="30.417"/>
	</g>
</g>
<g>
	<g>
		<rect x="166.757" y="272.649" width="38.093" height="30.417"/>
	</g>
</g>
<g>
	<g>
		<rect x="166.757" y="318.093" width="38.093" height="30.417"/>
	</g>
</g>
<g>
	<g>
		<rect x="166.757" y="363.526" width="38.093" height="30.417"/>
	</g>
</g>
<g>
	<g>
		<rect x="166.757" y="408.959" width="38.093" height="30.417"/>
	</g>
</g>
<g>
	<g>
		<rect x="217.179" y="227.216" width="38.093" height="30.417"/>
	</g>
</g>
<g>
	<g>
		<rect x="217.179" y="272.649" width="38.093" height="30.417"/>
	</g>
</g>
<g>
	<g>
		<rect x="217.179" y="318.093" width="38.093" height="30.417"/>
	</g>
</g>
<g>
	<g>
		<rect x="217.179" y="363.526" width="38.093" height="30.417"/>
	</g>
</g>
<g>
	<g>
		<rect x="217.179" y="408.959" width="38.093" height="30.417"/>
	</g>
</g>
<g>
	<g>
		<rect x="267.6" y="227.216" width="38.092" height="30.417"/>
	</g>
</g>
<g>
	<g>
		<rect x="267.6" y="272.649" width="38.092" height="30.417"/>
	</g>
</g>
<g>
	<g>
		<rect x="267.6" y="318.093" width="38.092" height="30.417"/>
	</g>
</g>
<g>
	<g>
		<rect x="267.6" y="363.526" width="38.092" height="30.417"/>
	</g>
</g>
<g>
	<g>
		<rect x="267.6" y="408.959" width="38.092" height="30.417"/>
	</g>
</g>
<g>
	<g>
		<path d="M394.652,227.217c-27.12,0-49.185,22.065-49.185,49.185c0,27.121,22.065,49.185,49.185,49.185    c27.121,0,49.186-22.065,49.186-49.185C443.837,249.282,421.773,227.217,394.652,227.217z M394.652,295.169    c-10.348,0-18.767-8.419-18.767-18.767s8.419-18.767,18.767-18.767c10.349,0,18.768,8.419,18.768,18.767    C413.42,286.751,405.001,295.169,394.652,295.169z"/>
	</g>
</g>
<g>
	<g>
		<path d="M394.652,341.007c-27.12,0-49.185,22.065-49.185,49.185c0,27.12,22.065,49.185,49.185,49.185    c27.121,0,49.186-22.065,49.186-49.185C443.837,363.071,421.773,341.007,394.652,341.007z M394.652,408.959    c-10.348,0-18.767-8.419-18.767-18.767s8.419-18.767,18.767-18.767c10.349,0,18.768,8.419,18.768,18.767    S405.001,408.959,394.652,408.959z"/>
	</g>
</g>
<g>
</g>
<g>
</g>
<g>
</g>
<g>
</g>
<g>
</g>
<g>
</g>
<g>
</g>
<g>
</g>
<g>
</g>
<g>
</g>
<g>
</g>
<g>
</g>
<g>
</g>
<g>
</g>
<g>
</g>
</svg>
