<svg id="Capa_1" enable-background="new 0 0 512 512" height="512" viewBox="0 0 512 512" width="512" xmlns="http://www.w3.org/2000/svg"><g><path d="m317.637 119.585c43.407-22.29 73.174-67.526 73.174-119.585h-30c0 57.529-46.804 104.333-104.333 104.333-57.53 0-104.334-46.804-104.334-104.333h-30c0 51.675 29.333 96.62 72.219 119.081-43.407 22.29-73.174 67.527-73.174 119.586 0 68.993 52.285 125.995 119.311 133.488v66.845h-51.074v30h51.074v43h30v-43h51.074v-30h-51.074v-66.84c67.048-7.473 119.356-64.485 119.356-133.493 0-51.675-29.333-96.621-72.219-119.082zm-62.115 223.415c-57.529 0-104.333-46.804-104.333-104.333 0-57.53 46.804-104.334 104.333-104.334 57.53 0 104.334 46.804 104.334 104.334 0 57.529-46.803 104.333-104.334 104.333z"/></g></svg>