<svg id="Capa_1" enable-background="new 0 0 512 512" height="512" viewBox="0 0 512 512" width="512" xmlns="http://www.w3.org/2000/svg"><g><path d="m199.096 241.088 56.904-56.904 56.904 56.904 63.64-63.64-56.904-56.904 56.904-56.904-63.64-63.64-56.904 56.904-56.904-56.904-63.64 63.64 56.904 56.904-56.904 56.904zm-21.214-177.448 21.214-21.214 56.904 56.904 56.904-56.904 21.214 21.214-56.904 56.904 56.904 56.904-21.214 21.214-56.904-56.904-56.904 56.904-21.214-21.214 56.904-56.904z"/><path d="m397.155 422c34.875-36.145 54.845-84.612 54.845-136v-15h-110.321l-28.774 28.793-28.775-28.793h-224.13v15c0 51.388 19.97 99.855 54.845 136h-114.845v15c0 41.355 33.645 75 75 75h362c41.355 0 75-33.645 75-75v-15zm-306.482-121h181.025l41.206 41.232 41.206-41.232h67.217c-4.372 48.555-29.835 92.752-70.144 121h-190.366c-40.31-28.248-65.772-72.445-70.144-121zm346.327 181h-362c-19.557 0-36.239-12.539-42.43-30h446.86c-6.191 17.461-22.873 30-42.43 30z"/></g></svg>