<svg id="Capa_1" enable-background="new 0 0 512 512" height="512" viewBox="0 0 512 512" width="512" xmlns="http://www.w3.org/2000/svg"><g><path d="m488.636 348.195-46.936-46.936h-107.243l-22.4-22.4v-78.849c21.973-17.182 34.862-43.361 34.862-71.566v-37.525c0-50.133-40.786-90.919-90.919-90.919s-90.919 40.786-90.919 90.919v37.525c0 28.205 12.888 54.385 34.862 71.566v78.849l-22.4 22.4h-107.243l-46.936 46.936v103.444h30.006v19.141c0 22.729 18.49 41.22 41.219 41.22h322.821c22.729 0 41.219-18.491 41.219-41.22v-19.141h30.006v-103.444zm-405.908-16.929h107.244l39.977-39.978v-107.182l-6.876-4.431c-17.523-11.293-27.986-30.445-27.986-51.232v-37.524c0-33.587 27.325-60.912 60.913-60.912s60.913 27.325 60.913 60.912v37.525c0 20.787-10.462 39.938-27.986 51.232l-6.876 4.431v107.181l39.977 39.978h107.244l29.358 29.358v1.344h-405.26v-1.344zm345.895 139.514c0 6.183-5.029 11.213-11.212 11.213h-322.822c-6.183 0-11.212-5.031-11.212-11.213v-19.141h345.246zm-375.253-49.147v-29.659h405.26v29.659z"/></g></svg>