<svg id="Capa_1" enable-background="new 0 0 510 510" height="512" viewBox="0 0 510 510" width="512" xmlns="http://www.w3.org/2000/svg"><g><path d="m175.853 360h30.001v30h-30.001z"/><path d="m160.853 270h30.001v30h-30.001z"/><path d="m235.854 315h30v30h-30z"/><path d="m220.854 225h30v30h-30z"/><path d="m460.854 105c0-57.897-47.103-105-105-105-52.806 0-96.623 39.184-103.925 90h-109.364l-13.833-55.331-66.17-33.085-13.416 26.832 53.828 26.915 8.668 34.669h-42.215l31.426 345.681v74.319h240.001v-74.319l20.529-225.826c55.337-2.886 99.471-48.812 99.471-104.855zm-105-75c41.355 0 75 33.645 75 75 0 38.556-29.244 70.41-66.716 74.546l8.141-89.546h-89.919c6.97-34.19 37.274-60 73.494-60zm-24.446 178.225-19.252 211.775h-182.605l-21.783-239.625c6.895.812 11.074 2.89 16.376 5.541 8.094 4.048 18.166 9.084 36.707 9.084s28.613-5.037 36.707-9.084c6.869-3.435 11.834-5.916 23.291-5.916 11.461 0 16.423 2.481 23.293 5.916 8.094 4.048 18.168 9.084 36.709 9.084s28.615-5.036 36.709-9.084c5.304-2.651 9.483-4.729 16.379-5.541l-2.532 27.85zm8.019-88.225-2.735 30.099c-15.919.689-25.084 5.253-32.548 8.985-6.869 3.435-11.832 5.916-23.293 5.916-11.459 0-16.422-2.481-23.293-5.916-8.094-4.048-18.168-9.084-36.709-9.084-18.539 0-28.613 5.036-36.707 9.084-6.87 3.435-11.832 5.916-23.291 5.916s-16.422-2.481-23.289-5.916c-7.464-3.732-16.628-8.296-32.547-8.985l-2.736-30.099zm-28.573 360h-180.001v-30h180.001z"/></g></svg>