<svg id="Capa_1" enable-background="new 0 0 512 512" height="512" viewBox="0 0 512 512" width="512" xmlns="http://www.w3.org/2000/svg"><g><path d="m437.02 74.98c-48.353-48.351-112.64-74.98-181.02-74.98s-132.667 26.629-181.02 74.98c-48.351 48.352-74.98 112.64-74.98 181.02s26.629 132.668 74.98 181.02c48.353 48.351 112.64 74.98 181.02 74.98s132.667-26.629 181.02-74.98c48.351-48.352 74.98-112.64 74.98-181.02s-26.629-132.668-74.98-181.02zm-340.826 340.826c-42.686-42.686-66.194-99.439-66.194-159.806s23.508-117.12 66.194-159.806 99.439-66.194 159.806-66.194 117.12 23.508 159.806 66.194 66.194 99.439 66.194 159.806-23.508 117.12-66.194 159.806-99.439 66.194-159.806 66.194-117.12-23.508-159.806-66.194z"/><path d="m334.77 220.362c-11.104 0-21.509 3.022-30.462 8.267v-8.373h-30v114.689h-119.28l114.148-159.835.036-28.056h-148.591v30h110.302l-114.154 159.844v28.047h187.539v-84.121c0-16.797 13.666-30.462 30.463-30.462s30.462 13.666 30.462 30.462v84.121h30v-84.121c-.001-33.339-27.125-60.462-60.463-60.462z"/></g></svg>