<svg id="Capa_1" enable-background="new 0 0 511.989 511.989" height="512" viewBox="0 0 511.989 511.989" width="512" xmlns="http://www.w3.org/2000/svg"><g><path d="m510.922 342.379-16.845-106.683h-49.721c1.055-2.86 2.41-5.43 3.95-8.339 4.341-8.199 9.743-18.404 9.743-37.24 0-18.837-5.402-29.042-9.743-37.241-3.633-6.861-6.257-11.819-6.257-23.205 0-11.385 2.624-16.342 6.257-23.203 4.341-8.199 9.743-18.403 9.743-37.24h-30c0 11.385-2.624 16.342-6.257 23.203-4.341 8.199-9.743 18.403-9.743 37.24s5.402 29.042 9.743 37.241c3.633 6.861 6.257 11.819 6.257 23.205 0 11.385-2.624 16.343-6.257 23.204-3.031 5.725-6.573 12.439-8.439 22.376h-33.997c1.055-2.86 2.41-5.43 3.95-8.339 4.341-8.199 9.743-18.404 9.743-37.24 0-18.837-5.402-29.042-9.743-37.241-3.633-6.861-6.257-11.819-6.257-23.205h-30c0 18.837 5.402 29.042 9.743 37.241 2.286 4.318 4.171 7.885 5.256 12.773 2.538 11.438.103 23.513-5.256 33.636-3.031 5.725-6.574 12.439-8.439 22.376h-37.332l-15.326 97.064h-37.148c-18.725 0-34.906-9.291-43.286-24.854l-.255-.475-14.876-23.425c-34.726-57.402-67.623-74.911-140.681-74.911h-59.449v94.999h59.451c18.112 0 34.698 9.907 43.286 25.854l15.674 29.109c27.801 51.63 81.498 83.704 140.138 83.704h166.597c25.434 0 49.497-11.09 66.02-30.426 16.522-19.338 23.723-44.836 19.756-69.958zm-174.264-76.683h131.784l7.031 44.532h-145.846zm-277.207 8.398h-29.451v-34.999h29.451c54.301 0 79.259 9.456 104.005 43.678l-35.59 30.66c-14.154-24.332-40.129-39.339-68.415-39.339zm199.098 138.667c-47.587 0-89.882-25.765-116.083-72.308l37.475-32.284 9.179 14.461c13.579 24.77 40.127 40.131 69.429 40.131h34.836c1.423 18.11 8.507 35.48 20.551 49.574.123.144.25.283.374.426zm209.808-19.915c-10.814 12.656-26.564 19.915-43.212 19.915h-45.19c-16.648 0-32.398-7.259-43.212-19.915s-16.576-29.85-11.853-52.617h155.321c5.789 23.933-1.039 39.961-11.854 52.617z"/></g></svg>