<svg id="Capa_1" enable-background="new 0 0 512 512" height="512" viewBox="0 0 512 512" width="512" xmlns="http://www.w3.org/2000/svg"><g><g><path d="m307.613 294.925c81.311 0 147.462-66.151 147.462-147.462 0-81.312-66.151-147.463-147.462-147.463s-147.462 66.151-147.462 147.463c0 81.31 66.151 147.462 147.462 147.462zm0-264.925c64.769 0 117.462 52.693 117.462 117.463 0 64.769-52.693 117.462-117.462 117.462s-117.462-52.693-117.462-117.462c0-64.77 52.693-117.463 117.462-117.463z"/></g><g><path d="m343.844 198.694c28.249 0 51.231-22.982 51.231-51.231s-22.982-51.231-51.231-51.231-51.231 22.982-51.231 51.231 22.982 51.231 51.231 51.231zm0-72.463c11.707 0 21.231 9.524 21.231 21.231s-9.524 21.231-21.231 21.231-21.231-9.524-21.231-21.231 9.524-21.231 21.231-21.231z"/></g><g><path d="m479.273 316.842-37.271-37.271-73.733 73.734v-27.893h-170.017l-29.264 19.964h-13.079v-21.522h-137.948v188.146h137.949v-21.522h13.006l30.507 21.207h159.226l120.989-123.591c19.343-19.743 19.18-51.707-.365-71.252zm-353.364 165.158h-77.948v-128.146h77.949v128.146zm332.295-114.897-112.17 114.582h-137.208l-30.507-21.207h-22.41v-85.102h22.337l29.264-19.964h130.759v19.35c0 11.383-9.26 20.643-20.643 20.643h-78.569v30h78.569c13.886 0 26.481-5.621 35.639-14.702l.017.017 88.721-88.722 16.057 16.058c7.967 7.965 8.034 20.995.144 29.047z"/></g></g></svg>