<svg id="Capa_1" enable-background="new 0 0 512 512" height="512" viewBox="0 0 512 512" width="512" xmlns="http://www.w3.org/2000/svg"><g><path d="m224.94 86.377v-86.377h-131.5v86.377h-30.422l-31.458 425.623h255.262l-31.459-425.623zm21.614 287.812h-174.727l11.087-150h152.553zm-123.114-344.189h71.5v56.377h-71.5zm104.058 86.377 5.751 77.812h-148.118l5.751-77.812zm-163.64 365.623 5.751-77.811h179.162l5.751 77.811z"/><path d="m431.312 0h-100.872v148h60v41.609l-34 88v234.391h90v-217.609l34-88v-157.262c0-27.09-22.039-49.129-49.128-49.129zm-70.872 118v-88h30v88zm90 82.797-34 88v193.203h-30v-198.797l34-88v-165.203h10.871c10.548 0 19.129 8.581 19.129 19.129z"/><path d="m159.19 344.189c24.813 0 45-20.187 45-45s-20.187-45-45-45-45 20.187-45 45 20.187 45 45 45zm0-60c8.271 0 15 6.729 15 15s-6.729 15-15 15-15-6.729-15-15 6.729-15 15-15z"/></g></svg>