<svg id="Capa_1" enable-background="new 0 0 510 510" height="512" viewBox="0 0 510 510" width="512" xmlns="http://www.w3.org/2000/svg"><g><path d="m510 165h-30v-.836c0-49.165-39.999-89.164-89.164-89.164-33.991 0-64.55 18.887-79.75 49.289l-35.357 70.711h-41.459l-35.356-70.711c-15.2-30.402-45.759-49.289-79.75-49.289-49.165 0-89.164 39.999-89.164 89.164v.836h-30v180h30v.836c0 49.165 39.999 89.164 89.164 89.164 33.991 0 64.55-18.887 79.75-49.289l35.356-70.711h41.459l35.356 70.711c15.2 30.402 45.759 49.289 79.75 49.289 49.166 0 89.165-39.999 89.165-89.164v-.836h30zm-480 30h30v120h-30zm142.081 177.295c-10.086 20.173-30.362 32.705-52.917 32.705-32.623 0-59.164-26.541-59.164-59.164v-.836h30v-180h-30v-.836c0-32.623 26.541-59.164 59.164-59.164 22.555 0 42.831 12.532 52.918 32.705l37.918 75.836v82.918zm67.919-147.295h30v60h-30zm210 120.836c0 32.623-26.541 59.164-59.164 59.164-22.555 0-42.831-12.532-52.918-32.705l-37.918-75.836v-82.918l37.919-75.836c10.086-20.173 30.362-32.705 52.917-32.705 32.623 0 59.164 26.541 59.164 59.164v.836h-30v180h30zm30-30.836h-30v-120h30z"/></g></svg>