<?xml version="1.0" encoding="iso-8859-1"?>
<!-- Generator: Adobe Illustrator 19.0.0, SVG Export Plug-In . SVG Version: 6.00 Build 0)  -->
<svg xmlns="http://www.w3.org/2000/svg" xmlns:xlink="http://www.w3.org/1999/xlink" version="1.1" id="Layer_1" x="0px" y="0px" viewBox="0 0 512 512" style="enable-background:new 0 0 512 512;" xml:space="preserve">
<g>
	<g>
		<path d="M411.19,18.944c-21.636,21.613-24.758,54.825-9.369,79.786l-30.345,30.314c-7.531-4.091-16.006-6.269-24.818-6.269    c-13.908,0-26.984,5.41-36.818,15.235L9.096,438.44L82.733,512l300.743-300.43c9.835-9.824,15.251-22.886,15.251-36.781    c0-8.684-2.116-17.043-6.104-24.489l50.387-50.334l-10.607-10.595c-13.588-13.575-13.588-35.661,0-49.236    c13.588-13.574,35.698-13.574,49.288,0l21.213-21.191C477.618-6.315,436.475-6.314,411.19,18.944z M82.733,469.618l-31.21-31.178    l31.21-31.178l31.21,31.178L82.733,469.618z M362.263,190.379l-227.107,226.87l-31.21-31.178l227.107-226.87    c4.168-4.164,9.71-6.457,15.604-6.457c5.895,0,11.437,2.293,15.605,6.458c4.168,4.164,6.464,9.7,6.464,15.588    C368.727,180.679,366.432,186.215,362.263,190.379z"/>
	</g>
</g>
<g>
</g>
<g>
</g>
<g>
</g>
<g>
</g>
<g>
</g>
<g>
</g>
<g>
</g>
<g>
</g>
<g>
</g>
<g>
</g>
<g>
</g>
<g>
</g>
<g>
</g>
<g>
</g>
<g>
</g>
</svg>
