<svg id="Capa_1" enable-background="new 0 0 512 512" height="512" viewBox="0 0 512 512" width="512" xmlns="http://www.w3.org/2000/svg"><g><path d="m300.06 189.17c0-51.93-42.24-94.17-94.16-94.17-124.925 5.166-124.899 183.18.001 188.33 51.919 0 94.159-42.24 94.159-94.16zm-94.16 64.16c-35.38 0-64.17-28.78-64.17-64.16 3.53-85.125 124.817-85.11 128.33 0 0 35.38-28.78 64.16-64.16 64.16z"/><path d="m470.48 398.43c.277-4.543.271-9.063-.05-13.6l24.51-14.15-45-77.94-24.79 14.31c-3.78-2.52-7.72-4.78-11.8-6.77v-28.28h-34.19c52.863-129.449-32.013-270.722-173.262-272-104.308 0-189.168 84.86-189.168 189.17 0 34.71 9.63 72.89 28.63 113.48 14.89 31.82 35.58 65.27 61.5 99.44 55.195 70.601 80.853 90.926 99.04 108.18 16.88-15.718 20.981-17.809 58.46-58.95l23.06 39.94 24.79-14.31c3.78 2.52 7.72 4.78 11.8 6.77v28.28h90v-28.61c4.07-2.02 7.99-4.31 11.76-6.85l24.5 14.14 45-77.94zm-55.47 48.68c-6.35 5.34-13.49 9.51-21.23 12.39l-9.77 3.64v18.86h-30v-18.71l-9.88-3.58c-7.77-2.82-14.94-6.93-21.33-12.22l-8.04-6.66-16.36 9.45-13.34-23.11-1.66-2.87c4.002-2.311 12.176-7.028 16.2-9.35-.45-2.554-1.369-7.781-1.82-10.35-1.434-8.092-1.46-16.491-.1-24.62 0 0 1.73-10.27 1.73-10.27-3.531-2.039-12.698-7.329-16.34-9.43l15-25.98c2.736 1.58 13.717 7.922 16.23 9.37l8.05-6.78c6.35-5.35 13.5-9.52 21.23-12.39l9.77-3.64v-18.86h30v18.71l9.88 3.58c7.77 2.82 14.94 6.93 21.33 12.22l8.04 6.66 16.36-9.45 15 25.98-16.2 9.35c1.21 6.999 3.09 15.868 2.92 22.95.163 6.76-1.618 15.584-2.73 22.29l16.34 9.43-15 25.98-16.23-9.37zm-209.11 22.12c-36.47-35.91-159.17-165.27-159.17-280.06 0-87.77 71.4-159.17 159.17-159.17 87.76 0 159.16 71.4 159.16 159.17 0 27.27-6.92 55.36-17.98 82.83h-23.73v28.61c-4.07 2.02-7.99 4.31-11.76 6.85l-24.5-14.14-45 77.94 24.79 14.31c-.277 4.543-.271 9.063.05 13.6l-24.51 14.15 6.05 10.49c-17.6 20.25-33.03 36.03-42.57 45.42z"/><path d="m353.68 377h30v30h-30z"/></g></svg>