<svg id="Capa_1" enable-background="new 0 0 512 512" height="512" viewBox="0 0 512 512" width="512" xmlns="http://www.w3.org/2000/svg"><g><path d="m394.913 130.281-37.224-130.281h-203.378l-37.224 130.281c-17.616 61.657-.392 128.127 44.951 173.47 12.066 12.066 18.712 28.11 18.712 45.176v102.823h30.125v60.25h90.25v-60.25h30.125v-102.823c0-17.065 6.646-33.109 18.712-45.176 45.343-45.343 62.567-111.813 44.951-173.47zm-123.788 351.719h-30.25v-30.25h30.25zm30.125-60.25h-.125-90.25-.125v-57.823h90.5zm27.499-139.212c-14.146 14.145-23.222 32.011-26.314 51.389h-92.869c-3.093-19.378-12.169-37.244-26.314-51.389-37.644-37.645-51.943-92.827-37.318-144.015l31.005-108.523h158.121l31.007 108.523c14.625 51.188.326 106.371-37.318 144.015z"/><path d="m256 60.243c-24.882 0-45.125 20.243-45.125 45.125s20.243 45.125 45.125 45.125 45.125-20.243 45.125-45.125-20.243-45.125-45.125-45.125zm0 60.25c-8.34 0-15.125-6.785-15.125-15.125s6.785-15.125 15.125-15.125 15.125 6.785 15.125 15.125-6.785 15.125-15.125 15.125z"/><path d="m210.875 180.75h90.25v30h-90.25z"/><path d="m240.999 241h30v30h-30z"/></g></svg>