<svg id="Capa_1" enable-background="new 0 0 510 510" height="512" viewBox="0 0 510 510" width="512" xmlns="http://www.w3.org/2000/svg"><g><path d="m240 150h30v-30h30v-30h-30v-30h-30v30h-30v30h30z"/><path d="m510 90h-151.076c-7.301-50.816-51.119-90-103.924-90s-96.623 39.184-103.924 90h-151.076v120h30v300h450c0-12.267 0-289.242 0-300h30zm-255-60c41.355 0 75 33.645 75 75s-33.645 75-75 75-75-33.645-75-75 33.645-75 75-75zm-225 90h121.076c3.354 23.348 14.417 44.236 30.52 60h-151.596zm90 360v-90h60v90zm330-120h-90v-90h90zm0-120h-120v150h120v90h-240v-120h-120v120h-30v-270h390zm30-60h-151.596c16.103-15.764 27.165-36.652 30.52-60h121.076z"/><path d="m90 240h120v30h-120z"/><path d="m90 300h120v30h-120z"/></g></svg>