<svg id="Capa_1" enable-background="new 0 0 512.474 512.474" height="512" viewBox="0 0 512.474 512.474" width="512" xmlns="http://www.w3.org/2000/svg"><g><path d="m222.989 17.608c-11.52-11.45-26.645-17.714-42.596-17.606-10.468.063-20.668 2.845-29.642 7.979-9.079-5.197-19.41-7.981-30.014-7.981s-20.935 2.784-30.015 7.98c-8.974-5.135-19.174-7.916-29.641-7.979-15.979-.1-31.076 6.156-42.596 17.607-11.597 11.526-18.248 27.433-18.248 43.641v193.877c0 22.534 3.862 44.713 11.479 65.92l28.032 78.041v32.398c0 44.657 36.331 80.988 80.988 80.988s80.988-36.331 80.988-80.988v-32.398l28.032-78.041c7.617-21.207 11.479-43.386 11.479-65.92v-193.877c.002-16.208-6.649-32.115-18.246-43.641zm-51.264 317.991c-13.932-11.322-31.678-18.125-50.988-18.125s-37.056 6.803-50.988 18.125v-27.137c0-28.115 22.873-50.988 50.988-50.988s50.988 22.873 50.988 50.988zm-35.974-301.628v171.155c0 7.885-.568 15.718-1.682 23.464-4.34-.722-8.79-1.117-13.332-1.117s-8.991.394-13.332 1.116c-1.113-7.746-1.681-15.578-1.681-23.464v-171.154c4.549-2.582 9.712-3.971 15.013-3.971s10.464 1.389 15.014 3.971zm-105.514 27.278c0-8.277 3.425-16.429 9.397-22.364 5.769-5.734 13.251-8.885 21.089-8.885.06 0 .119 0 .178.001 5.23.031 10.327 1.42 14.823 3.971v171.154c0 11.49 1.029 22.883 3.023 34.106-23.364 14.223-38.999 39.935-38.999 69.23v1.861c-6.308-17.769-9.512-36.335-9.512-55.197v-193.877zm90.5 421.225c-28.115 0-50.988-22.873-50.988-50.988v-33.023c0-28.115 22.873-50.988 50.988-50.988s50.988 22.873 50.988 50.988v33.023c0 28.115-22.873 50.988-50.988 50.988zm90.5-227.348c0 18.862-3.204 37.428-9.512 55.197v-1.861c0-29.295-15.635-55.007-38.998-69.23 1.995-11.224 3.024-22.617 3.024-34.106v-171.155c4.496-2.551 9.592-3.939 14.823-3.97.059-.001.118-.001.177-.001 7.838 0 15.321 3.151 21.089 8.885 5.973 5.936 9.397 14.087 9.397 22.364z"/><path d="m493.989 17.608c-11.52-11.45-26.645-17.714-42.596-17.606-10.468.063-20.668 2.845-29.642 7.979-9.079-5.197-19.41-7.981-30.014-7.981s-20.935 2.784-30.015 7.98c-8.974-5.135-19.174-7.916-29.641-7.979-15.979-.101-31.077 6.155-42.597 17.606-11.597 11.526-18.248 27.434-18.248 43.642v193.877c0 22.534 3.862 44.713 11.479 65.92l28.032 78.041v32.398c0 44.657 36.331 80.988 80.988 80.988s80.988-36.331 80.988-80.988v-32.398l28.032-78.041c7.617-21.207 11.479-43.386 11.479-65.92v-193.877c.003-16.208-6.648-32.115-18.245-43.641zm-51.264 317.991c-13.932-11.322-31.678-18.125-50.988-18.125s-37.056 6.803-50.988 18.125v-27.137c0-28.115 22.873-50.988 50.988-50.988s50.988 22.873 50.988 50.988zm-35.974-301.628v171.155c0 7.885-.568 15.718-1.682 23.464-4.34-.722-8.79-1.117-13.332-1.117s-8.991.394-13.332 1.116c-1.113-7.746-1.681-15.578-1.681-23.464v-171.154c4.549-2.582 9.712-3.971 15.013-3.971s10.464 1.389 15.014 3.971zm-105.514 27.278c0-8.277 3.425-16.429 9.397-22.364 5.769-5.734 13.251-8.885 21.089-8.885.06 0 .119 0 .178.001 5.23.031 10.327 1.42 14.823 3.971v171.154c0 11.49 1.029 22.883 3.023 34.106-23.364 14.223-38.999 39.935-38.999 69.23v1.861c-6.308-17.769-9.512-36.335-9.512-55.197v-193.877zm90.5 421.225c-28.115 0-50.988-22.873-50.988-50.988v-33.023c0-28.115 22.873-50.988 50.988-50.988s50.988 22.873 50.988 50.988v33.023c0 28.115-22.873 50.988-50.988 50.988zm90.5-227.348c0 18.862-3.204 37.428-9.512 55.197v-1.861c0-29.295-15.635-55.007-38.998-69.23 1.995-11.224 3.024-22.617 3.024-34.106v-171.155c4.496-2.551 9.592-3.939 14.823-3.97.059-.001.118-.001.177-.001 7.838 0 15.321 3.151 21.089 8.885 5.973 5.936 9.397 14.087 9.397 22.364z"/></g></svg>