<svg id="Capa_1" enable-background="new 0 0 512.001 512.001" height="512" viewBox="0 0 512.001 512.001" width="512" xmlns="http://www.w3.org/2000/svg"><g><path d="m306.446 291.312-29.424-5.854c-1.07 6.736-10.631 16.959-20.956 15.792-9.615 1.31-19.979-8.694-20.997-15.989l.041.197-29.424 5.854c2.748 13.813 16.813 39.938 50.38 39.938s47.632-26.124 50.38-39.938z"/><path d="m508.342 494.795c-6.283-42.254-38.628-76.376-80.484-84.908l-102.664-20.931-3.315-14.549c4.643-2.591 9.12-5.446 13.408-8.547 20.793 5.703 39.038 14.705 56.061 25.22 38.841-44.63 60.481-102.111 60.469-164.436.773-117.51-81.399-226.155-195.751-226.644-118.464.655-196.786 114.381-195.75 226.646-.234 62.09 21.921 120.093 60.469 164.436 17.004-10.492 34.433-19.172 56.061-25.22 4.288 3.101 8.764 5.955 13.408 8.547l-3.318 14.561-102.653 21.056c-40.827 7.808-74.054 43.067-80.128 83.378l-3.055 18.597h509.8zm-252.276-39.358c25.646.178 51.668-13.58 64.998-36.706l10.377 2.116v61.155h-150.75v-61.126l10.385-2.131c13.332 23.117 39.35 36.87 64.99 36.692zm-105.5-199.436v-45.25h15.125c38.322-.001 71.932-20.563 90.375-51.235 18.443 30.672 52.053 51.234 90.375 51.235h15.125v45.25c0 58.173-47.327 105.5-105.5 105.5s-105.5-47.327-105.5-105.5zm232.948 96.284c-7.301-3.618-15.044-6.9-23.182-9.843 12.738-15.338 22.159-33.522 27.163-53.441h10.197c5.67 0 11.133-.889 16.272-2.515-6.429 23.889-16.694 46.212-30.45 65.799zm8.052-96.284v-45.25h6.125c13.303 0 24.125 10.822 24.125 24.125s-10.822 24.125-24.125 24.125h-6.163c.022-.998.038-1.997.038-3zm-135.5-226.001c79.271 0 145.704 66.373 161.937 154.732-6.277-2.553-13.128-3.981-20.312-3.981h-51.25c-41.562-.001-75.375-33.814-75.375-75.376h-30c0 41.562-33.813 75.375-75.375 75.376h-51.25c-7.18 0-14.035 1.412-20.309 3.963 16.239-88.35 82.668-154.714 161.934-154.714zm-165.75 204.876c0-13.303 10.822-24.125 24.125-24.125h6.125v45.25c0 1.003.016 2.002.038 3h-6.163c-13.302 0-24.125-10.822-24.125-24.125zm38.303 117.409c-13.757-19.588-24.022-41.909-30.451-65.796 5.14 1.624 10.604 2.512 16.273 2.512h10.197c5.004 19.92 14.425 38.103 27.163 53.442-8.138 2.942-15.88 6.225-23.182 9.842zm127.447 39.216c13.085 0 25.741-1.871 37.72-5.348l3.21 14.09c-9.085 18.482-26.769 25.193-40.931 25.193-14.161 0-31.846-6.711-40.93-25.193l3.21-14.09c11.98 3.477 24.636 5.348 37.721 5.348zm-165.754 47.914 60.38-12.386v54.972h-112.218c9.113-21.472 28.425-37.784 51.838-42.586zm271.129 42.586v-55.039l60.424 12.319c23.597 4.811 42.908 21.143 51.986 42.72z"/></g></svg>