<svg id="Capa_1" enable-background="new 0 0 512 512" height="512" viewBox="0 0 512 512" width="512" xmlns="http://www.w3.org/2000/svg"><g><path d="m100.088 403.03c-49.82-15.565-84.088-61.783-84.088-114.53 0-37.274 16.977-71.774 45.95-94.442-4.251-14.131-6.4-28.794-6.4-43.737 0-83.715 68.101-150.321 151.81-150.321 43.082 0 83.418 16.428 112.188 48.025 10.163-2.602 20.601-3.916 31.152-3.916 69.339 0 125.75 56.411 125.75 125.75 0 23.464-6.317 45.836-18.392 65.502 23.99 21.256 37.942 51.816 37.942 84.349 0 62.159-50.57 112.729-112.73 112.729-17.963 0-35.364-4.195-51.11-12.239-13.904 20.082-34.432 35.494-58.184 43.302-24.173 7.944-49.436 7.734-72.608-.39-16.737 30.832-50.174 48.888-84.859 48.888-28.194.002-49.602-13.278-72.613-27.361 11.011-5.957 23.337-11.23 33.063-19.219 18.168-14.925 26.921-39.27 23.129-62.39zm3.995 78.29c17.636 3.393 36.39-.854 51.148-10.985 17.098-11.736 23.451-29.399 29.932-48.198 8.901 4.631 17.745 9.864 27.295 13.04 18.507 6.155 38.8 5.232 56.902-1.89 26.759-10.528 39.862-31.67 51.865-56.152 13.767 9.739 26.94 19.475 43.787 23.271 21.186 4.774 43.791.941 62.174-10.62 36.674-23.063 49.52-72.113 28.49-110.117-9.424-17.032-24.197-27.243-39.892-37.761 13.369-16.92 25.395-33.443 29.226-55.324 4.241-24.225-1.058-49.575-14.78-69.995-12.786-19.028-32.333-33.146-54.467-39.154-22.9-6.216-44.497-2.174-66.407 5.411-14.063-17.672-29.28-32.825-50.175-42.324-23.928-10.879-51.464-13.79-77.177-8.415-47.086 9.843-85.094 47.801-94.254 95.132-5.327 27.526.528 53.012 10.471 78.625-14.778 9.387-28.383 19.004-38.04 34.052-11.4 17.763-16.147 39.375-13.423 60.292 5.234 40.187 35.217 67.399 73.091 77.082l9.142 14.975c6.855 32.105-1.73 65.366-24.908 89.055z"/></g></svg>