<svg id="Layer_1" enable-background="new 0 0 509.425 509.425" height="512" viewBox="0 0 509.425 509.425" width="512" xmlns="http://www.w3.org/2000/svg"><path id="XMLID_1633_" d="m420.012 262.212c-.217 0-.433.007-.649.008l-26.472-150.008h42.121v30h30v-60h-107.879l13.235 75h-163.645l-7.5-30h40.789v-30h-75v-30h-30v60h33.289l10.596 42.384-61.625 96.841c-56.465-18.94-118.299 25.978-117.259 85.776 2.988 110.287 157.944 122.394 178.742 14.999h50.445l15 45h40.812v-30h-19.189l-8.93-26.788 122.644-146.255 10.281 58.259c-93.764 34.932-71.135 172.883 30.195 174.784 119.23-4.523 119.201-175.492-.001-180zm-231.086-52.498 31.875 127.498h-42.046c-3.904-23.171-16.689-43.365-34.728-56.942zm-61.075 95.977c9.78 7.971 17.016 18.951 20.263 31.521h-40.322zm-37.839 106.521c-33.084 0-60-26.916-60-60-.368-36.772 34.161-65.76 70.284-59.1l-25.284 39.731v34.368h73.102c-6.678 25.851-30.196 45.001-58.102 45.001zm157.414-92.186-33.203-132.814h144.575zm172.586 92.186c-64.593-.713-82.64-87.848-24.864-114.584l10.093 57.19 29.543-5.213-10.093-57.193c75.933 8.221 71.928 117.397-4.679 119.8z"/></svg>