<svg id="Capa_1" enable-background="new 0 0 512 512" height="512" viewBox="0 0 512 512" width="512" xmlns="http://www.w3.org/2000/svg"><path d="m331.25 152.518v-62.143h-30.125v-30.25h30.192v-30h-30.192v-30.125h-90.25v90.375h-30.125v62.143c-25.954 6.682-45.188 30.284-45.188 58.295v301.187h240.875v-301.188c.001-28.01-19.233-51.612-45.187-58.294zm-90.375-122.518h30.25v60.375h-30.25zm-30.125 90.375h.125 90.25.125v30.25h-90.5zm-15 60.25h120.5c16.646 0 30.188 13.542 30.188 30.188v30.187h-180.876v-30.188c0-16.645 13.542-30.187 30.188-30.187zm150.688 90.375v120.503h-180.876v-120.503zm-180.876 211v-60.497h180.875v60.497z"/></svg>