<svg id="Capa_1" enable-background="new 0 0 512 512" height="512" viewBox="0 0 512 512" width="512" xmlns="http://www.w3.org/2000/svg"><g><path d="m214.77 232v-100.77c0-22.734 18.496-41.23 41.23-41.23s41.23 18.496 41.23 41.23v70.77h90v-70.77c0-72.36-58.87-131.23-131.23-131.23s-131.23 58.87-131.23 131.23v100.77h-30.02v280h322.5v-280zm-60-100.77c0-55.818 45.412-101.23 101.23-101.23s101.23 45.412 101.23 101.23v40.77h-30v-40.77c0-39.276-31.954-71.23-71.23-71.23s-71.23 31.954-71.23 71.23v100.77h-30zm232.48 350.77h-262.5v-220h262.5z"/><path d="m256 417c24.813 0 45-20.187 45-45s-20.187-45-45-45-45 20.187-45 45 20.187 45 45 45zm0-60c8.271 0 15 6.729 15 15s-6.729 15-15 15-15-6.729-15-15 6.729-15 15-15z"/></g></svg>