<svg id="Layer_1" enable-background="new 0 0 509.637 509.637" height="512" viewBox="0 0 509.637 509.637" width="512" xmlns="http://www.w3.org/2000/svg"><g><path d="m152.341 93.229-18.524 12.35 16.641 24.961 18.524-12.35c21.595-14.396 24.576-44.923 6.262-63.237-4.951-4.951-4.138-13.179 1.689-17.063l18.524-12.35-16.64-24.962-18.524 12.35c-21.338 13.586-24.519 45.732-6.261 63.237 3.227 3.227 3.385 6.981 3.192 8.932-.193 1.95-1.085 5.599-4.883 8.132z"/><path d="m242.341 93.229-18.524 12.35 16.641 24.961 18.524-12.35c21.595-14.396 24.576-44.923 6.262-63.237-4.951-4.951-4.138-13.179 1.689-17.063l18.524-12.35-16.64-24.962-18.524 12.35c-21.596 14.396-24.576 44.923-6.262 63.237 3.227 3.228 3.386 6.981 3.192 8.932-.192 1.95-1.084 5.599-4.882 8.132z"/><path d="m332.341 93.229-18.524 12.35 16.641 24.961 18.524-12.35c21.338-13.584 24.519-45.734 6.262-63.237-3.228-3.228-3.386-6.981-3.192-8.932.192-1.95 1.084-5.6 4.882-8.132l18.524-12.35-16.641-24.961-18.524 12.35c-21.338 13.586-24.519 45.732-6.261 63.237 3.227 3.227 3.385 6.981 3.192 8.932-.193 1.95-1.085 5.599-4.883 8.132z"/><path d="m509.637 299.059c0-33.084-26.916-60-60-60h-.87c-11.014 0-21.515-5.64-28.093-15.087-57.56-82.669-277.666-77.317-332.108.196-6.55 9.324-17.001 14.891-27.959 14.891h-.97c-73.231 1.964-81.668 104.659-10.533 119.055l60.378 150.945h290.311l60.378-150.945c28.075-4.995 49.466-29.566 49.466-59.055zm-379.845 180-18-45h285.689l-18 45zm279.69-75h-309.69l-18-45h345.689zm40.155-75h-390c-39.754-1.513-39.724-58.501 0-60h.97c20.719 0 40.349-10.336 52.508-27.648 42.056-59.873 237.133-66.084 282.94-.297 12.183 17.499 31.889 27.945 52.713 27.945h.87c39.753 1.513 39.723 58.501-.001 60z"/><path d="m160.244 262.453h30v30h-30z" transform="matrix(.707 -.707 .707 .707 -144.861 205.179)"/><path d="m319.031 262.453h30v30h-30z" transform="matrix(.707 -.707 .707 .707 -98.353 317.459)"/><path d="m239.637 229.453h30v30h-30z" transform="matrix(.707 -.707 .707 .707 -98.273 251.654)"/></g></svg>