<?xml version="1.0" encoding="iso-8859-1"?>
<!-- Generator: Adobe Illustrator 19.0.0, SVG Export Plug-In . SVG Version: 6.00 Build 0)  -->
<svg xmlns="http://www.w3.org/2000/svg" xmlns:xlink="http://www.w3.org/1999/xlink" version="1.1" id="Layer_1" x="0px" y="0px" viewBox="0 0 512 512" style="enable-background:new 0 0 512 512;" xml:space="preserve">
<g>
	<g>
		<path d="M363.946,294.074c-15.132-19.835-35.721-35.267-58.836-44.284V31.347h28.582V0H305.11h-98.22h-28.582v31.347h28.582    V249.79c-23.115,9.016-43.704,24.449-58.836,44.284c-18.154,23.795-27.749,52.23-27.749,82.23c0,10.124,1.127,20.24,3.351,30.064    c6.685,29.537,23.402,56.347,47.07,75.492C194.754,501.296,225.04,512,256,512c30.967,0,61.256-10.708,85.288-30.151    c23.671-19.151,40.385-45.969,47.064-75.515c2.219-9.815,3.344-19.919,3.344-30.03C391.696,346.304,382.1,317.869,363.946,294.074    z M226.922,276.062l11.315-3.276V31.347h35.526v241.439l11.315,3.276c18.522,5.362,34.695,15.696,47.264,29.267H179.658    C192.227,291.758,208.4,281.424,226.922,276.062z M357.776,399.423c-10.639,47.068-53.442,81.23-101.776,81.23    c-48.321,0-91.122-34.151-101.771-81.204c-1.71-7.558-2.578-15.345-2.578-23.144c0-13.872,2.81-27.287,7.917-39.629h192.864    c5.107,12.341,7.917,25.757,7.917,39.629C360.349,384.094,359.483,391.872,357.776,399.423z"/>
	</g>
</g>
<g>
	<g>
		<rect x="201.143" y="358.661" width="23.51" height="23.51"/>
	</g>
</g>
<g>
	<g>
		<rect x="232.49" y="389.224" width="23.51" height="23.51"/>
	</g>
</g>
<g>
	<g>
		<rect x="192" y="407.771" width="23.51" height="23.51"/>
	</g>
</g>
<g>
</g>
<g>
</g>
<g>
</g>
<g>
</g>
<g>
</g>
<g>
</g>
<g>
</g>
<g>
</g>
<g>
</g>
<g>
</g>
<g>
</g>
<g>
</g>
<g>
</g>
<g>
</g>
<g>
</g>
</svg>
