<?xml version="1.0" encoding="iso-8859-1"?>
<!-- Generator: Adobe Illustrator 19.0.0, SVG Export Plug-In . SVG Version: 6.00 Build 0)  -->
<svg version="1.1" id="Layer_1" xmlns="http://www.w3.org/2000/svg" xmlns:xlink="http://www.w3.org/1999/xlink" x="0px" y="0px"
	 viewBox="0 0 512 512" style="enable-background:new 0 0 512 512;" xml:space="preserve">
<g>
	<g>
		<path d="M230,286c0-1.724-0.022-3.389-0.065-5H291v-30h-65.336c-1.965-6.656-4.348-11.863-6.6-16.78
			C214.737,224.769,211,216.605,211,196c0-24.813,20.187-45,45-45s45,20.187,45,45h30c0-41.355-33.645-75-75-75
			c-41.355,0-75,33.645-75,75c0,27.147,5.731,39.665,10.788,50.709c0.661,1.443,1.308,2.858,1.931,4.291H166v30h33.922
			c0.05,1.586,0.078,3.245,0.078,5c0,43.294-25.901,79.858-26.145,80.195l-2.855,3.94V391h160v-30H211.388
			C220.143,343.108,230,316.248,230,286z"/>
	</g>
</g>
<g>
	<g>
		<path d="M256,0C114.615,0,0,114.615,0,256s114.615,256,256,256s256-114.615,256-256S397.385,0,256,0z M256,482
			C131.184,482,30,380.816,30,256S131.184,30,256,30s226,101.184,226,226S380.816,482,256,482z"/>
	</g>
</g>
<g>
</g>
<g>
</g>
<g>
</g>
<g>
</g>
<g>
</g>
<g>
</g>
<g>
</g>
<g>
</g>
<g>
</g>
<g>
</g>
<g>
</g>
<g>
</g>
<g>
</g>
<g>
</g>
<g>
</g>
</svg>
