<svg id="Capa_1" enable-background="new 0 0 512 512" height="512" viewBox="0 0 512 512" width="512" xmlns="http://www.w3.org/2000/svg"><g><path d="m377.577 316-43.073-103h52.846l29 32h65.65v-30h-52.351l-14.945-16.491 38.296-38.296v-67.213h-30v54.787l-35.213 35.213h-53.287v-87.852l-52.278 34.457-16.504-38.509-101.218-36.438v56.342h-62.287l-36.213-36.213v-64.787h-30v77.213l36.576 36.576-60.01 40.807 16.869 24.808 71.182-48.404h63.883v72.873l-29.563 102.127h-134.937v186h512v-186zm104.423 140.802-58.827-44.605 18.344-66.197h40.483zm-366.025-110.802h125.025v31.127l-58.717 25.281-75.382-14.283zm278.617 57h-63.499l-60.093-25.873v-31.127h139.387zm-195.592 24.873 57-24.542 57 24.542v44.127h-114zm144 5.127h57.956l51.435 39h-109.391zm-152.426-201.31 36.848 2.781 25.927 31.977 23.303-18.895-34.073-42.023-48.078-3.629v-104.559l48.782 17.562 25.496 59.491 35.722-23.543v68.159l40.558 96.989h-178.891zm-105.287 114.31-9.322 43.281-45.965 19.791v-63.072zm-55.287 95.734 60.717-26.142 78.283 14.833v41.575h-139z"/></g></svg>