<svg id="Capa_1" enable-background="new 0 0 512 512" height="512" viewBox="0 0 512 512" width="512" xmlns="http://www.w3.org/2000/svg"><g><path d="m499.893 268.728c6.79-10.345 10.755-22.703 10.755-35.975 0-15.104-9.257-35.02-28.299-60.883-13.034-17.704-37.385-44.096-37.385-44.096s-23.754 25.409-36.499 42.276v-170.05h-408.465v512h512v-243.272zm-55.099-96.224c17.138 20.678 35.854 47.9 35.854 60.249 0 19.716-16.04 35.756-35.756 35.756-20.086 0-36.427-16.04-36.427-35.756 0-11.425 17.305-37.699 36.329-60.249zm-414.794-142.504h348.465v322.448h-40.111c5.828-9.093 8.971-19.887 8.971-31.466 0-1.26 0-258.515 0-258.515h-288.182v387.064h111.07v32.469h-140.213zm290.744 352.705v23.688c0 8.271-6.729 15-15 15s-15-6.729-15-15v-23.688zm-150.531-30.257v67.084h-81.07v-49.776c3.439-59.67 53.064-107.161 113.58-107.161 16.718 0 33.018 3.625 47.942 10.569-20.071 29.893-20.075 43.236-20.075 47.818 0 11.579 3.396 22.373 9.224 31.466zm118.871-2.972c-15.712 0-28.494-12.782-28.494-28.493 0-8.799 13.304-30.301 28.494-49.652 15.191 19.354 28.493 40.854 28.493 49.652 0 15.71-12.782 28.493-28.493 28.493zm-85.935-117.688c-20.867 0-37.844-16.977-37.844-37.844s16.977-37.844 37.844-37.844c20.868 0 37.845 16.977 37.845 37.844s-16.976 37.844-37.845 37.844zm114.008 26.917c-8.907-11.781-28.073-33.432-28.073-33.432s-15.114 17.065-20.234 23.404c-5.539-2.875-11.25-5.358-17.089-7.476 11.89-12.227 19.233-28.897 19.233-47.258 0-37.409-30.435-67.844-67.845-67.844-37.409 0-67.844 30.435-67.844 67.844 0 18.253 7.259 34.832 19.024 47.039-25.994 9.319-48.547 25.921-65.188 47.338v-195.852h228.015v166.237zm61.308 222.89h-178.252v-99.146h60.531v23.945c0 24.813 20.187 45 45 45s45-20.187 45-45v-23.945h27.721zm104.356 0h-74.356v-129.147-53.721h74.356z"/></g></svg>