<svg id="Layer_1" enable-background="new 0 0 510 510" height="512" viewBox="0 0 510 510" width="512" xmlns="http://www.w3.org/2000/svg"><g><path d="m225.342 300h-30v-30h-30v30h-30v30h30v30h30v-30h30z"/><path d="m390.342 300c-16.095 0-31.354 3.645-45 10.145v-115.145c0-29.157-20.871-53.792-49.622-58.576l-31.933-5.32c-2.954-.939-8.445-10.188-8.445-17.283v-23.821h30v-90h-210v90h30v23.82c0 7.095-5.491 16.345-8.357 17.264l-32.015 5.339c-28.757 4.785-49.628 29.42-49.628 58.577v315h375c139.141-5.295 139.035-204.755 0-210zm75 105c0 17.19-5.826 33.035-15.59 45.697l-105.108-105.107c47.985-37.937 121.264-2.256 120.698 59.41zm-178.924-15h-241.076v-150h270v91.596c-15.237 15.565-25.682 35.836-28.924 58.404zm-121.076-330v-30h30v30zm90 0h-30v-30h30zm-150-30h30v30h-30zm-35.442 136.016 32.021-5.34c21.521-3.59 33.422-29.983 33.422-46.855v-23.821h90v23.82c0 16.872 11.901 43.266 33.422 46.855l32.026 5.341c14.227 2.367 24.552 14.556 24.552 28.983v15h-270v-15c-.001-14.427 10.324-26.615 24.557-28.983zm-24.558 313.984v-60h241.076c3.355 23.348 14.417 44.236 30.52 60zm270-75c0-13.315 3.504-25.822 9.614-36.673l102.059 102.059c-48.551 28.32-112.462-8.884-111.673-65.386z"/></g></svg>