<svg id="Capa_1" enable-background="new 0 0 512 512" height="512" viewBox="0 0 512 512" width="512" xmlns="http://www.w3.org/2000/svg"><g><path d="m106 150h45v214.58c-17.459 6.192-30 22.865-30 42.42v30c0 24.813 20.187 45 45 45s45-20.187 45-45v-30c0-19.555-12.541-36.228-30-42.42v-214.58h45v-150h-120zm75 287c0 8.271-6.729 15-15 15s-15-6.729-15-15v-30c0-8.271 6.729-15 15-15s15 6.729 15 15zm-45-317v-30h60v30zm60-90v30h-60v-30z"/><path d="m256 0v437c0 41.355 33.645 75 75 75s75-33.645 75-75v-437zm120 30v30h-90v-30zm-45 452c-24.813 0-45-20.187-45-45v-347h90v30h-60v151h60v166c0 24.813-20.187 45-45 45zm45-332v91h-30v-91z"/></g></svg>