<svg height="512pt" viewBox="-151 0 512 512" width="512pt" xmlns="http://www.w3.org/2000/svg"><path d="m210 15c0-8.285156-6.714844-15-15-15h-180c-8.285156 0-15 6.714844-15 15 0 50.355469 26.8125 96.144531 68.019531 120.972656-41.613281 24.859375-68.019531 70.046875-68.019531 120.027344s26.40625 95.167969 68.019531 120.027344c-42.359375 25.523437-68.019531 72.285156-68.019531 120.972656 0 8.285156 6.714844 15 15 15h180c8.285156 0 15-6.714844 15-15 0-51.171875-27.605469-96.621094-68.019531-120.972656 41.613281-24.859375 68.019531-70.046875 68.019531-120.027344s-26.40625-95.167969-68.019531-120.027344c41.324219-24.898437 68.019531-70.800781 68.019531-120.972656zm-30.992188 15c-1.453124 10.859375-4.472656 21.28125-8.839843 31h-130.335938c-4.367187-9.71875-7.386719-20.140625-8.839843-31zm-8.628906 271h-130.757812c-4.226563-9.425781-7.144532-19.519531-8.582032-30.011719h147.921876c-1.4375 10.492188-4.355469 20.585938-8.582032 30.011719zm8.582032-60h-147.921876c1.4375-10.492188 4.355469-20.574219 8.582032-30h130.757812c4.226563 9.425781 7.144532 19.507812 8.582032 30zm-147.96875 241c1.453124-10.859375 4.472656-21.28125 8.839843-31h130.332031c4.367188 9.71875 7.390626 20.140625 8.839844 31zm119.296874-61h-90.578124c12.171874-13.085938 27.578124-23.261719 45.289062-29.1875 17.707031 5.925781 33.117188 16.101562 45.289062 29.1875zm-45.289062-60.8125c-17.785156-5.953125-33.242188-16.140625-45.4375-29.199219h90.878906c-12.199218 13.058594-27.65625 23.25-45.441406 29.199219zm45.4375-179.1875h-90.878906c12.199218-13.054688 27.65625-23.238281 45.441406-29.1875 17.785156 5.949219 33.242188 16.132812 45.4375 29.1875zm-45.4375-60.8125c-17.707031-5.925781-33.117188-16.109375-45.289062-29.199219h90.574218c-12.167968 13.089844-27.574218 23.273438-45.285156 29.199219zm0 0"/></svg>