<svg id="Layer_1" enable-background="new 0 0 510 510" height="512" viewBox="0 0 510 510" width="512" xmlns="http://www.w3.org/2000/svg"><g><path d="m0 0v510h510v-510zm480 480h-450v-450h450z"/><path d="m390 60h-270v150h270zm-30 120h-210v-90h210z"/><path d="m90 450h135v-180h30v-30h-30-135-30v30h30zm105-180v150h-75v-150z"/><path d="m300 240h150v30h-150z"/><path d="m300 420h30v30h-30z"/><path d="m360 420h30v30h-30z"/><path d="m420 420h30v30h-30z"/><path d="m300 360h30v30h-30z"/><path d="m360 360h30v30h-30z"/><path d="m420 360h30v30h-30z"/><path d="m300 300h30v30h-30z"/><path d="m360 300h30v30h-30z"/><path d="m420 300h30v30h-30z"/><path d="m60 60h30v30h-30z"/><path d="m60 120h30v30h-30z"/><path d="m60 180h30v30h-30z"/><path d="m420 60h30v30h-30z"/><path d="m420 120h30v30h-30z"/><path d="m420 180h30v30h-30z"/></g></svg>