<svg id="Capa_1" enable-background="new 0 0 512 512" height="512" viewBox="0 0 512 512" width="512" xmlns="http://www.w3.org/2000/svg"><path id="XMLID_577_" d="m378.806 299.148v-198.596l-66.257-47.465v-53.087h-189.313v131.948h79.656v73.246h-83.605v30h25.268v90.483h-30.459v30h9.445v2.598c0 30.449 18.921 56.546 45.616 67.197v56.528h-28.738v30h154.948v-30h-28.738v-56.528c26.695-10.652 45.616-36.748 45.616-67.197v-2.598h9.445v-30h-25.896v-32.951h20.705v-30h-20.705v-27.532h20.705v-30h-83.606v-73.246h79.657v-41.957l36.257 25.973v191.817l23.687 37.75 25.412-15.945zm-179.649 182.852v-51.392h37.472v51.392zm83.088-123.725c0 23.343-18.991 42.333-42.334 42.333h-44.037c-23.343 0-42.333-18.99-42.333-42.333v-2.598h128.704zm-16.452-32.597h-91.239v-90.483h91.239zm16.756-223.73h-129.313v-71.948h49.656v30.793h30v-30.793h49.657z"/></svg>