<svg id="Capa_1" enable-background="new 0 0 511.361 511.361" height="512" viewBox="0 0 511.361 511.361" width="512" xmlns="http://www.w3.org/2000/svg"><g><path d="m493.31 83.213c-12.498-12.548-29.82-19.028-47.489-17.74 3.096-34.942-26.796-66.289-61.754-65.387h-31.04v30h31.145l.224-.002c8.357-.093 16.557 3.197 22.473 9.113 12.074 11.585 12.075 32.431 0 44.016 0 0-2.724 2.724-2.724 2.724-51.446-31.394-134.865-.434-188.239 32.403-5.227-8.447-14.339-19.514-20.569-27.465l-92.539 92.538c-51.256 49.979-75.77 124.197-45.58 190.611l-57.218 57.216 80.054 80.054 57.214-57.214c42.475 18.637 91.004 17.479 132.924-3.762 21.353-10.823 40.762-24.894 57.69-41.821l92.538-92.539c-7.99-6.26-18.974-15.309-27.459-20.565 32.764-52.997 63.815-137.247 32.399-188.245l2.721-2.721c11.586-12.074 32.43-12.075 44.016.001 5.916 5.915 9.237 14.105 9.113 22.471l-.002 31.368h30c-.505-28.65 4.521-52.367-17.898-75.054zm-405.575 171.452c9.387-18.521 21.592-35.356 36.274-50.04l67.979-67.978c35.731 57.812 27.728 133.718-21.359 182.805l-69.644 69.644c-29.991-38.086-35.594-90.346-13.25-134.431zm-7.681 214.203-37.628-37.628 30.119-30.119c2.242 3.173 4.611 6.278 7.109 9.306l-.509.509c5.287 5.287 15.927 15.927 21.213 21.213l.51-.51c3.027 2.499 6.13 4.87 9.304 7.111zm226.615-81.584c-50.194 51.658-125.165 69.411-184.471 23.024l69.644-69.644c49.087-49.086 124.992-57.092 182.805-21.359zm97.628-195.137c-6.471 28.962-20.057 60.72-37.942 89.2-43.05-18.251-91.461-18.691-134.474-1.933 16.757-43.013 16.318-91.424-1.934-134.474 88.773-53.698 202.711-73.56 174.35 47.207z"/><path d="m281.932 178.148h30v30h-30z" transform="matrix(.707 -.707 .707 .707 -49.605 266.543)"/><path d="m324.359 178.148h30v30h-30z" transform="matrix(.707 -.707 .707 .707 -37.181 296.534)"/></g></svg>