<svg id="Capa_1" enable-background="new 0 0 512 512" height="512" viewBox="0 0 512 512" width="512" xmlns="http://www.w3.org/2000/svg"><g><path d="m467 0h-422c-24.813 0-45 20.187-45 45v90c0 24.813 20.187 45 45 45h422c24.813 0 45-20.187 45-45v-90c0-24.813-20.187-45-45-45zm15 135c0 8.271-6.729 15-15 15h-422c-8.271 0-15-6.729-15-15v-90c0-8.271 6.729-15 15-15h422c8.271 0 15 6.729 15 15z"/><path d="m60 60h30v60h-30z"/><path d="m120 60h30v60h-30z"/><path d="m180 60h30v60h-30z"/><path d="m241 60h30v60h-30z"/><path d="m301 60h30v60h-30z"/><path d="m362 60h30v60h-30z"/><path d="m422 60h30v60h-30z"/><path d="m0 512h90v-60h332v60h90v-150h-512zm30-120h452v90h-30v-60h-392v60h-30z"/><path d="m120 210v70.787l-15-15-21.213 21.213 51.213 51.213 51.213-51.213-21.213-21.213-15 15v-70.787z"/><path d="m362 210v70.787l-15-15-21.213 21.213 51.213 51.213 51.213-51.213-21.213-21.213-15 15v-70.787z"/></g></svg>