<svg id="Capa_1" enable-background="new 0 0 511.997 511.997" height="512" viewBox="0 0 511.997 511.997" width="512" xmlns="http://www.w3.org/2000/svg"><g><path d="m450.481 251.714v-35.518l-.109-.9c-5.006-41.201-27.055-80.143-62.086-109.652-35.212-29.662-79.033-45.771-123.35-45.393-50.904.027-98.657 19.765-134.467 55.582-35.824 35.832-55.554 83.614-55.554 134.544 0 51.344 20.151 99.46 56.743 135.486 15.234 15 22.858 35.858 20.918 57.228l-6.257 68.906h214.549v-36.79h38.885c23.127 0 41.942-18.815 41.942-41.942v-52.983l55.375-19.812zm-38.786 107.438v74.112c0 6.585-5.357 11.942-11.942 11.942h-68.885v36.79h-151.701l3.286-36.193c2.757-30.351-8.086-59.99-29.748-81.317-30.817-30.343-47.79-70.867-47.79-114.109 0-42.918 16.609-83.167 46.77-113.333s70.405-46.784 113.322-46.793c74.986-.851 146.565 57.72 155.474 127.788v39.831l36.455 85.097z"/><path d="m119.6 85.135-19.865-22.48c-6.901 6.114-14.81 13.83-22.227 22.236l22.488 19.855c3.05-3.453 16.174-16.58 19.604-19.611z"/><path d="m165.299 54.001-13.633-26.724c-9.322 4.755-18.436 10.156-27.088 16.052l16.895 24.791c7.61-5.187 15.627-9.937 23.826-14.119z"/><path d="m82.996 126.619-24.797-16.885c-5.891 8.649-11.285 17.76-16.033 27.076l26.729 13.623c4.175-8.193 8.921-16.206 14.101-23.814z"/><path d="m57.91 175.842-28.232-10.145c-3.533 9.834-6.479 20.004-8.753 30.227l29.283 6.516c2.002-8.997 4.594-17.945 7.702-26.598z"/><path d="m217.317 35.294-6.523-29.281c-10.222 2.276-20.393 5.225-30.229 8.76l10.148 28.232c8.656-3.113 17.607-5.706 26.604-7.711z"/><path d="m272.386 30.105.932-29.986c-10.448-.322-21.052.012-31.443.99l2.814 29.867c9.15-.862 18.485-1.158 27.697-.871z"/><path d="m393.013 34.799c-9-5.327-18.436-10.133-28.044-14.283l-11.896 27.539c8.449 3.65 16.746 7.877 24.66 12.561z"/><path d="m335.351 9.884c-10.037-2.904-20.371-5.202-30.715-6.828l-4.66 29.635c9.105 1.433 18.202 3.455 27.036 6.012z"/><path d="m67.49 404.186c6.398 8.229 13.405 16.163 20.825 23.583l21.213-21.213c-6.542-6.543-12.719-13.536-18.356-20.786z"/><path d="m45.897 229.808-29.87-2.808c-.86 9.454-1.338 20.369-.982 31.445l29.985-.939c-.559-7.794-.152-21.477.867-27.698z"/><path d="m442.606 73.302c-7.419-7.411-15.353-14.41-23.582-20.804l-18.406 23.689c7.251 5.634 14.245 11.804 20.787 18.339z"/><path d="m63.004 338.205-27.537 11.904c4.152 9.606 8.964 19.045 14.3 28.055l25.812-15.289c-4.692-7.923-8.924-16.223-12.575-24.67z"/><path d="m47.622 285.097-29.635 4.666c1.628 10.341 3.928 20.677 6.836 30.72l28.816-8.344c-2.559-8.839-4.583-17.938-6.017-27.042z"/><path d="m265.008 120.497c-71.728 0-130.083 58.355-130.083 130.083 0 71.729 58.355 130.084 130.083 130.084s130.083-58.355 130.083-130.084c0-71.728-58.356-130.083-130.083-130.083zm0 230.167c-55.186 0-100.083-44.897-100.083-100.084 0-55.186 44.897-100.083 100.083-100.083s100.083 44.897 100.083 100.083-44.898 100.084-100.083 100.084z"/><path d="m265.008 180.747c-24.882 0-45.125 20.243-45.125 45.125h30c0-8.34 6.785-15.125 15.125-15.125s15.125 6.785 15.125 15.125-6.785 15.125-15.125 15.125h-15v36.333h30v-8.896c17.53-6.196 30.125-22.937 30.125-42.562 0-24.882-20.243-45.125-45.125-45.125z"/><path d="m250.008 290.12h30v30h-30z"/></g></svg>