<svg id="Capa_1" enable-background="new 0 0 511.82 511.82" height="512" viewBox="0 0 511.82 511.82" width="512" xmlns="http://www.w3.org/2000/svg"><g><path d="m487.739 188c-17.55-17.54-46.09-17.54-63.64 0l-70.15 70.15c-31.45-9-66.76-1.13-91.48 23.59l-46.55 46.55v-93.65h16.67c49.71 0 90.15-40.44 90.15-90.15v-46.67c-40.573.834-74.07-6.418-106.82 23.05 0-2.624 0-33.565 0-35.05h-.11c-2.26-47.71-41.78-85.82-90.04-85.82h-46.67v46.67c0 49.71 40.44 90.15 90.15 90.15h16.67v202.08c-37.37 5.38-69.22 30.6-82.91 65.92-49.23-3.431-92.303 35.276-92.09 85.001 0-.001 0 21.999 0 21.999h380c.555-30 .533-51.559-19.4-76.07l22.48-22.48c24.72-24.73 32.59-60.03 23.59-91.48l70.15-70.15c17.55-17.55 17.55-46.09 0-63.64zm-211.67-60.18h16.67v16.67c0 33.16-26.99 60.15-60.15 60.15h-16.67v-16.67c0-33.17 26.98-60.15 60.15-60.15zm-106.82-21c-33.16 0-60.15-26.98-60.15-60.15v-16.67h16.67c33.17 0 60.15 26.99 60.15 60.15v16.67zm198.66 179.8 9.29-9.3 21.22 21.22-9.3 9.29c-5.952.783-18.39 2.407-24.4 3.19zm98.62-56.19-46.89 46.89-21.22-21.22 46.89-46.89c5.85-5.84 15.37-5.84 21.22 0 5.85 5.85 5.85 15.37 0 21.22zm-425.03 251.39c3.89-26.55 26.81-47 54.42-47h29.53l2.94-11.17c8.67-32.87 38.5-55.83 72.53-55.83s63.86 22.96 72.53 55.83l2.94 11.17h29.53c26.585-.518 51.068 20.745 54.43 47zm331.28-89.77-24.21 24.21c-12.82-7.47-27.43-11.44-42.65-11.44h-7.09c-10.51-27.12-31.72-48.28-57.92-59.08l42.78-42.78c14.72-14.73 34.98-20.63 54.14-17.7l-7.9 60.55 60.55-7.9c2.93 19.16-2.97 39.42-17.7 54.14z"/></g></svg>