<svg id="Capa_1" enable-background="new 0 0 512 512" height="512" viewBox="0 0 512 512" width="512" xmlns="http://www.w3.org/2000/svg"><g><path d="m271 426.666v-85.409c15.163-2.805 29.282-9.835 40.78-20.488 25.301-23.441 39.812-56.667 39.812-91.158v-105.946h-191.185v105.945c0 34.491 14.511 67.717 39.812 91.157 11.498 10.654 25.617 17.684 40.78 20.49v85.409zm-80.116-187.667h130.231c-2.294 22.732-12.84 44.12-29.724 59.763-19.846 18.388-50.937 18.388-70.783 0-16.884-15.643-27.43-37.031-29.724-59.763zm130.708-30h-131.185v-55.334h131.185z"/><path d="m227.165 480.164c-49.967-6.389-95.257-28.643-130.972-64.358-42.685-42.685-66.193-99.439-66.193-159.807 0-52.273 17.639-101.83 50.082-141.897l4.142 30.432 29.726-4.047-11.241-82.59-82.59 11.241 4.046 29.726 33.316-4.535c-37.233 45.548-57.481 102.052-57.481 161.67 0 68.381 26.628 132.668 74.98 181.02 40.455 40.454 91.763 65.664 148.38 72.903 10.726 1.371 21.511 2.049 32.288 2.049 44.316 0 88.411-11.47 126.853-33.34l-14.835-26.076c-42.177 23.996-92.075 33.802-140.501 27.609z"/><path d="m454.518 417.669c37.234-45.547 57.482-102.051 57.482-161.67 0-68.381-26.628-132.668-74.981-181.02-40.455-40.453-91.763-65.663-148.379-72.902-54.833-7.009-111.35 4.103-159.141 31.291l14.835 26.076c42.178-23.997 92.075-33.802 140.501-27.609 49.967 6.389 95.257 28.644 130.972 64.358 42.685 42.685 66.193 99.439 66.193 159.806 0 52.273-17.639 101.83-50.082 141.897l-4.142-30.432-29.726 4.047 11.241 82.59 82.59-11.241-4.046-29.727z"/></g></svg>