<svg id="Capa_1" enable-background="new 0 0 512 512" height="512" viewBox="0 0 512 512" width="512" xmlns="http://www.w3.org/2000/svg"><g><path d="m333.672 123.667v-45.995c0-42.828-34.844-77.672-77.672-77.672s-77.672 34.844-77.672 77.672v45.995h-96.74v388.333h348.824v-388.333zm66.74 358.333h-288.824v-328.333h288.824zm-96.74-404.328v45.995h-95.344v-45.995c0-26.286 21.386-47.672 47.672-47.672s47.672 21.386 47.672 47.672z"/><path d="m256 428.833c61.206 0 111-49.794 111-111s-49.794-111-111-111-111 49.794-111 111 49.795 111 111 111zm81-111c0 44.663-36.336 81-81 81s-81-36.337-81-81 36.336-81 81-81 81 36.337 81 81z"/><path d="m241 365.833h30v-33h33v-30h-33v-33h-30v33h-33v30h33z"/></g></svg>