<svg id="Capa_1" enable-background="new 0 0 512 512" height="512" viewBox="0 0 512 512" width="512" xmlns="http://www.w3.org/2000/svg"><path d="m462.762 302.417h-16.437c3.47-7.08 5.425-15.031 5.425-23.433 0-29.463-23.97-53.433-53.433-53.433h-36.817v51.666h30v-21.666h6.817c12.921 0 23.433 10.512 23.433 23.433s-10.512 23.433-23.433 23.433h-89.484c-16.648 0-30.808-10.814-35.853-25.782 18.932-6.806 32.641-24.658 33.313-45.744 17.801-6.209 30.609-23.166 30.609-43.058 0-21.107-14.42-38.91-33.927-44.072-4.861-21.448-24.078-37.511-46.976-37.511s-42.114 16.062-46.976 37.511c-19.507 5.162-33.927 22.965-33.927 44.072 0 19.892 12.809 36.849 30.609 43.058.672 21.086 14.381 38.938 33.313 45.744-5.045 14.968-19.205 25.782-35.853 25.782h-89.484c-12.921 0-23.433-10.512-23.433-23.433s10.512-23.433 23.433-23.433h6.817v21.666h30v-51.666h-36.817c-29.463 0-53.433 23.97-53.433 53.433 0 8.401 1.955 16.353 5.425 23.433h-16.435c-27.15 0-49.238 22.088-49.238 49.238s22.088 49.238 49.238 49.238c22.726 0 41.214-18.488 41.214-41.214h-30c0 6.184-5.03 11.214-11.214 11.214-10.608 0-19.238-8.63-19.238-19.238s8.63-19.238 19.238-19.238h76.021c-4.773 8.483-7.509 18.259-7.509 28.666v44.667h44.667c32.349 0 58.666-26.318 58.666-58.667v-17.085c13.937-3.822 26.09-11.981 34.917-22.939 8.827 10.957 20.98 19.117 34.917 22.939v17.085c0 32.349 26.317 58.667 58.666 58.667h44.667v-44.667c0-10.407-2.736-20.183-7.509-28.666h76.021c10.608 0 19.238 8.63 19.238 19.238s-8.63 19.238-19.238 19.238c-6.184 0-11.214-5.03-11.214-11.214h-30c0 22.726 18.488 41.214 41.214 41.214 27.15 0 49.238-22.088 49.238-49.238s-22.088-49.238-49.238-49.238zm-271.679 44.666c0 15.807-12.859 28.667-28.666 28.667h-14.667v-14.667c0-15.807 12.86-28.666 28.667-28.666h14.666zm29.598-143.666c-8.593 0-15.583-6.991-15.583-15.584s6.99-15.583 15.583-15.583c6.166 0 12.672.89 18.781 1.369-.585-6.213-1.625-12.918-1.625-19.206 0-10.016 8.147-18.163 18.163-18.163s18.163 8.147 18.163 18.163c0 6.288-1.04 12.993-1.625 19.206 6.109-.479 12.615-1.369 18.781-1.369 8.593 0 15.583 6.99 15.583 15.583s-6.99 15.584-15.583 15.584h-15v25.847c0 11.204-9.115 20.319-20.319 20.319s-20.319-9.115-20.319-20.319v-25.847zm143.569 157.666v14.667h-14.667c-15.807 0-28.666-12.86-28.666-28.667v-14.666h14.666c15.807 0 28.667 12.859 28.667 28.666z"/></svg>