<svg id="Layer_1" enable-background="new 0 0 510 510" height="512" viewBox="0 0 510 510" width="512" xmlns="http://www.w3.org/2000/svg"><g><path d="m160 165h30c0-3.484.919-4.706 5.606-9.395 19.24-16.887 19.188-44.381 0-61.215-4.688-4.688-5.606-5.91-5.606-9.395 0-3.482.919-4.704 5.606-9.391 5.732-5.73 14.394-14.391 14.394-30.604h-30c0 3.482-.919 4.704-5.606 9.391-19.241 16.887-19.188 44.379 0 61.213 4.688 4.688 5.606 5.91 5.606 9.395 0 3.484-.919 4.706-5.606 9.395-5.733 5.731-14.394 14.392-14.394 30.606z"/><path d="m230 165h30c0-3.484.919-4.706 5.606-9.395 19.24-16.887 19.188-44.381 0-61.215-4.688-4.688-5.606-5.91-5.606-9.395 0-3.482.919-4.704 5.606-9.391 5.732-5.73 14.394-14.391 14.394-30.604h-30c0 3.482-.919 4.704-5.606 9.391-19.241 16.887-19.188 44.379 0 61.213 4.688 4.688 5.606 5.91 5.606 9.395 0 3.484-.919 4.706-5.606 9.395-5.733 5.731-14.394 14.392-14.394 30.606z"/><path d="m300 165h30c0-3.484.919-4.706 5.606-9.395 19.24-16.887 19.188-44.381 0-61.215-4.688-4.688-5.606-5.91-5.606-9.395 0-3.482.919-4.704 5.606-9.391 5.732-5.73 14.394-14.391 14.394-30.604h-30c0 3.482-.919 4.704-5.606 9.391-19.241 16.887-19.188 44.379 0 61.213 4.688 4.688 5.606 5.91 5.606 9.395 0 3.484-.919 4.706-5.606 9.395-5.733 5.731-14.394 14.392-14.394 30.606z"/><path d="m510 375c-22.589 0-24.086 0-36.858 0l3.351-8.377c12.736-31.84-10.707-66.623-45.107-66.623h-28.667c-9.126-18.295-27.448-30-48.334-30h-12.353l4.956-22.302c-53.888-37.641-126.248-40.079-183.977 0l4.957 22.302h-12.353c-20.872 0-39.201 11.693-48.334 30h-28.667c-34.293 0-57.884 34.682-45.107 66.624l3.351 8.376c-12.5 0-14.364 0-36.858 0v30h31.51c6.968 34.192 37.27 60 73.49 60h300c36.22 0 66.522-25.808 73.49-60h31.51zm-61.361-19.519-7.808 19.519h-44.959c9.735-34.845 11.198-37.293 12.097-45h23.417c13.085 0 22.168 13.19 17.253 25.481zm-94.254-55.481c15.899 0 27.373 15.197 23.003 30.495l-12.716 44.505h-45.973l16.666-75zm-41.426-37.462-24.991 112.462h-65.936l-24.991-112.462c36.37-18.939 79.548-18.939 115.918 0zm-157.344 37.462h19.02l16.666 75h-45.973l-12.716-44.504c-4.368-15.293 7.097-30.496 23.003-30.496zm-94.254 55.482c-4.859-12.153 4.019-25.482 17.253-25.482h23.417c.897 7.7 2.342 10.084 12.096 45h-44.958zm343.639 79.518h-300c-19.557 0-36.239-12.539-42.43-30h384.859c-6.19 17.461-22.872 30-42.429 30z"/></g></svg>