<svg id="Capa_1" enable-background="new 0 0 512 512" height="512" viewBox="0 0 512 512" width="512" xmlns="http://www.w3.org/2000/svg"><g id="XMLID_677_"><path id="XMLID_1240_" d="m256 173.185c-48.057 0-87.154 39.098-87.154 87.154s39.097 87.154 87.154 87.154 87.154-39.098 87.154-87.154-39.097-87.154-87.154-87.154zm0 144.308c-31.515 0-57.154-25.64-57.154-57.154s25.639-57.154 57.154-57.154 57.154 25.64 57.154 57.154-25.639 57.154-57.154 57.154z"/><path id="XMLID_1271_" d="m241 245.678h30v29.322h-30z"/><path id="XMLID_1274_" d="m474.414 247.474c-18.698-2.686-36.385 6.915-44.852 22.665l-27.243-3.917c.078-1.952.128-3.912.128-5.883 0-16.387-2.706-32.153-7.693-46.877l24.999-11.417c4.43 4.505 9.827 8.026 15.923 10.299 4.987 1.86 10.166 2.786 15.333 2.786 6.197 0 12.377-1.332 18.181-3.983 10.646-4.862 18.763-13.579 22.853-24.545s3.665-22.868-1.197-33.515-13.579-18.762-24.545-22.853c-10.966-4.088-22.868-3.664-33.515 1.197-10.646 4.862-18.762 13.579-22.853 24.545-2.273 6.096-3.147 12.481-2.644 18.779l-25.047 11.438c-9.108-15.449-20.968-29.088-34.904-40.24l14.914-23.207c3.164.71 6.372 1.064 9.568 1.064 14.425 0 28.569-7.104 36.931-20.116 6.328-9.846 8.442-21.566 5.955-33.003s-9.28-21.22-19.126-27.548c-20.327-13.061-47.489-7.152-60.551 13.172-10.215 15.896-8.826 35.972 1.984 50.216l-14.885 23.162c-15.644-7.951-32.896-13.178-51.129-15.042v-27.502c16.796-6.138 28.817-22.277 28.817-41.171 0-24.161-19.656-43.817-43.817-43.817s-43.817 19.656-43.817 43.817c0 18.895 12.022 35.033 28.817 41.171v27.505c-18.234 1.864-35.485 7.09-51.129 15.042l-14.885-23.162c10.811-14.244 12.199-34.321 1.984-50.216-13.062-20.326-40.225-26.232-60.551-13.172-9.846 6.328-16.638 16.111-19.126 27.548s-.373 23.157 5.955 33.003c8.363 13.013 22.504 20.116 36.931 20.116 3.195 0 6.404-.354 9.568-1.064l14.915 23.207c-13.936 11.151-25.796 24.79-34.904 40.24l-25.047-11.438c.503-6.298-.37-12.683-2.644-18.779-4.09-10.966-12.206-19.683-22.853-24.545s-22.549-5.287-33.515-1.197c-10.966 4.091-19.683 12.206-24.545 22.853s-5.287 22.549-1.197 33.515 12.206 19.683 22.852 24.545c5.806 2.651 11.984 3.983 18.182 3.983 5.167 0 10.348-.927 15.333-2.786 6.096-2.273 11.493-5.794 15.923-10.299l24.999 11.417c-4.987 14.724-7.693 30.49-7.693 46.877 0 1.971.051 3.93.128 5.883l-27.243 3.917c-8.467-15.749-26.154-25.348-44.852-22.665h-.001c-23.914 3.439-40.573 25.693-37.135 49.607 1.666 11.585 7.743 21.828 17.113 28.842 7.659 5.734 16.767 8.748 26.166 8.748 2.099 0 4.214-.15 6.329-.454 11.585-1.666 21.828-7.743 28.842-17.112 3.899-5.208 6.536-11.089 7.827-17.273l27.206-3.911c4.415 17.623 12.03 33.989 22.193 48.444l-20.835 18.054c-15.637-8.673-35.706-7.19-49.986 5.182l-.001.001c-18.259 15.822-20.242 43.55-4.42 61.81 8.653 9.985 20.866 15.103 33.144 15.103 10.173 0 20.391-3.514 28.665-10.683 14.279-12.374 18.603-32.027 12.243-48.74l20.851-18.067c12.945 12.167 28.096 22.009 44.782 28.858l-7.754 26.407c-17.846 1.157-33.926 13.255-39.25 31.385-6.807 23.182 6.516 47.58 29.698 54.388 4.106 1.205 8.247 1.779 12.324 1.779 18.945 0 36.461-12.401 42.063-31.478 5.323-18.128-1.665-37-16.051-47.622l7.749-26.391c8.645 1.596 17.552 2.438 26.652 2.438s18.006-.842 26.652-2.438l7.749 26.39c-14.386 10.622-21.374 29.494-16.051 47.623 5.602 19.077 23.116 31.478 42.063 31.478 4.077 0 8.22-.574 12.325-1.779 23.182-6.808 36.504-31.206 29.697-54.388-5.323-18.129-21.404-30.227-39.249-31.385l-7.754-26.407c16.686-6.849 31.837-16.69 44.782-28.858l20.851 18.067c-6.36 16.713-2.035 36.367 12.243 48.74 8.274 7.17 18.491 10.683 28.665 10.683 12.278 0 24.492-5.117 33.145-15.103 15.821-18.26 13.838-45.987-4.421-61.811-14.28-12.373-34.349-13.855-49.986-5.182l-20.835-18.054c10.162-14.455 17.777-30.821 22.193-48.444l27.206 3.911c1.291 6.185 3.928 12.065 7.827 17.273 7.014 9.369 17.257 15.446 28.842 17.112h-.001c2.116.304 4.23.454 6.33.454 9.398 0 18.507-3.015 26.166-8.748 9.37-7.014 15.447-17.257 17.113-28.842 3.437-23.917-13.222-46.171-37.137-49.61zm-36.371-81.012c1.99-5.337 7.241-8.996 12.94-8.996 5.367 0 10.348 3.206 12.576 8.085 1.533 3.356 1.667 7.11.378 10.567-2.627 7.039-10.739 10.745-17.775 8.119-7.035-2.626-10.742-10.742-8.119-17.775zm-77.775-93.926c2.637-4.102 7.095-6.342 11.644-6.343 6.315-.001 12.147 4.74 13.481 10.877 1.604 7.374-3.209 14.839-10.564 16.439-3.606.786-7.302.118-10.407-1.878-6.41-4.119-8.273-12.684-4.154-19.095zm-223.097 20.973c-3.606-.784-6.691-2.927-8.687-6.031-1.995-3.105-2.662-6.801-1.877-10.407.784-3.606 2.926-6.691 6.031-8.687 2.307-1.482 4.892-2.19 7.449-2.19 4.549 0 9.009 2.24 11.645 6.343 4.119 6.41 2.256 14.976-4.154 19.095-3.105 1.995-6.8 2.663-10.407 1.877zm-63.592 83.522c-1.533 3.357-4.282 5.916-7.74 7.206s-7.211 1.154-10.569-.378c-3.357-1.533-5.917-4.282-7.206-7.74-1.29-3.457-1.156-7.211.377-10.567 1.533-3.357 4.282-5.917 7.74-7.207 1.573-.586 3.206-.878 4.835-.878 1.955 0 3.903.42 5.734 1.256 3.357 1.533 5.916 4.282 7.206 7.74 1.29 3.457 1.156 7.21-.377 10.568zm-18.696 122.095c-2.212 2.954-5.442 4.871-9.096 5.396-3.651.528-7.291-.402-10.247-2.614-2.955-2.212-4.871-5.442-5.396-9.096-1.084-7.54 4.169-14.558 11.71-15.643 7.545-1.091 14.559 4.169 15.644 11.71.525 3.654-.404 7.292-2.615 10.247zm153.982 170.784c-2.146 7.31-9.835 11.512-17.15 9.364-7.311-2.146-11.512-9.841-9.365-17.151 1.766-6.016 7.289-9.926 13.264-9.926 1.285 0 2.592.182 3.886.562 7.31 2.147 11.512 9.841 9.365 17.151zm120.785-7.787c2.147 7.311-2.055 15.005-9.364 17.151-7.308 2.147-15.004-2.055-17.151-9.364-2.146-7.311 2.055-15.005 9.364-17.151 7.312-2.143 15.004 2.056 17.151 9.364zm-73.65-429.963c7.619 0 13.817 6.198 13.817 13.817s-6.198 13.818-13.817 13.818-13.817-6.198-13.817-13.817 6.198-13.818 13.817-13.818zm-152.955 378.998c-5.757 4.988-14.502 4.364-19.491-1.395-4.989-5.757-4.364-14.501 1.394-19.49 5.757-4.992 14.502-4.364 19.491 1.394s4.364 14.502-1.394 19.491zm152.955-34.372c-64.209 0-116.448-52.238-116.448-116.447 0-64.21 52.238-116.448 116.448-116.448s116.448 52.238 116.448 116.448c0 64.209-52.239 116.447-116.448 116.447zm171.051 13.487c5.758 4.989 6.383 13.733 1.395 19.491-4.989 5.758-13.732 6.383-19.491 1.395-5.758-4.989-6.383-13.733-1.394-19.491 4.989-5.76 13.732-6.385 19.49-1.395zm54.805-97.461c-.525 3.653-2.442 6.884-5.396 9.096-2.955 2.212-6.594 3.143-10.247 2.614h-.001c-3.653-.524-6.883-2.441-9.095-5.396-2.211-2.955-3.141-6.594-2.615-10.247.989-6.878 6.913-11.853 13.668-11.853.651 0 1.312.047 1.975.143 7.541 1.084 12.795 8.102 11.711 15.643z"/></g></svg>