<svg id="Capa_1" enable-background="new 0 0 512 512" height="512" viewBox="0 0 512 512" width="512" xmlns="http://www.w3.org/2000/svg"><g><path d="m453.715 337.513-98.78-337.513h-197.87l-98.78 337.513h152.715v54.487h-19.4c-24.813 0-45 20.187-45 45 0 19.557 12.539 36.239 30 42.43v32.57h158.8v-32.57c17.461-6.19 30-22.873 30-42.43 0-24.813-20.187-45-45-45h-19.4v-54.487h67.696v29.357h30v-29.357zm-121.258-307.513 8.726 29.816h-170.366l8.726-29.816zm-170.42 59.816h187.926l63.713 217.696h-315.352zm173.363 347.184c0 8.271-6.729 15-15 15h-15v30h-98.8v-30h-15c-8.271 0-15-6.729-15-15s6.729-15 15-15h128.8c8.271 0 15 6.729 15 15zm-64.4-45h-30v-54.487h30z"/></g></svg>