<svg id="Capa_1" enable-background="new 0 0 512 512" height="512" viewBox="0 0 512 512" width="512" xmlns="http://www.w3.org/2000/svg"><path d="m0 406.623h84.93v60.129h342.14v-60.129h84.93v-90.25h-15.063v-.063c0-64.356-25.062-124.861-70.568-170.368-29.48-29.48-65.258-50.367-104.297-61.428-12.783-23.375-37.605-39.266-66.072-39.266-28.469 0-53.292 15.893-66.073 39.27-39.038 11.06-74.816 31.944-104.295 61.424-45.507 45.506-70.569 106.011-70.569 170.368v.063h-15.063zm135.5-90.251-90.437.001v-.063c0-10.247.745-20.322 2.164-30.183h130.982c-5.456 16.626-23.706 30.702-42.709 30.245zm45.282-197.121c-.007.417-.032.829-.032 1.247v135.629h-126.929c18.759-62.903 66.135-113.581 126.961-136.876zm120.468 1.247v150.629c0 16.971 5.653 32.644 15.167 45.246h-120.79c9.807-12.975 15.123-28.7 15.123-45.248v-150.627c0-24.951 20.299-45.25 45.25-45.25s45.25 20.299 45.25 45.25zm156.932 135.629h-126.932v-135.629c0-.418-.025-.831-.032-1.247 60.827 23.294 108.204 73.975 126.964 136.876zm8.755 60.246h-90.517c-19.659-.033-36.409-12.671-42.604-30.246h130.958c1.419 9.86 2.162 19.936 2.162 30.183v.063zm-352.007 90.25h282.14v30.129h-282.14zm-84.93-60.25h452v30.25h-452z"/></svg>