<svg id="Capa_1" enable-background="new 0 0 511.816 511.816" height="512" viewBox="0 0 511.816 511.816" width="512" xmlns="http://www.w3.org/2000/svg"><g><path d="m441.319 56.211c-107.703-116.33-303.971-40.304-299.004 120.088-63.299 5.527-113.124 58.809-113.124 123.518 0 68.374 55.626 124 124 124 22.594 0 43.793-6.078 62.056-16.679 1.762 58.021 49.504 104.679 107.944 104.679 27.993 0 52.952-11.353 72.18-32.831 15.677-17.512 27.902-42.224 35.355-71.464 40.71-159.708 48.499-200.52 51.416-236.493 3.39-41.819-11.108-82.595-40.823-114.818zm-288.128 337.605c-51.832 0-94-42.168-94-94s42.168-94 94-94 94 42.168 94 94-42.168 94-94 94zm180.5-183.999c-28.394 0-53.634 13.753-69.415 34.945-7.781-15.635-18.76-29.409-32.085-40.451v-17.936c0-13.809 3.19-27.671 9.227-40.087 26.136-54.29 105.146-55.244 132.009-1.075 8.433 15.688 11.054 34.048 7.092 51.435 0 0-2.977 13.169-2.977 13.169zm37.065 30-25.553 113h-11.513c-31.154 0-56.5-25.346-56.5-56.5s25.346-56.5 56.5-56.5zm81.483-71.212c-2.771 34.19-10.413 73.915-50.584 231.507-7.778 30.515-28.314 81.705-78.465 81.705-43.01 0-78-34.99-78-78v-20.952c8.632-9.553 15.8-20.45 21.149-32.338 15.869 19.677 40.163 32.289 67.351 32.289h35.486l40.603-179.552c5.49-24.175 2.007-49.709-9.586-71.601-25.985-53.8-97.462-73.484-147.508-41.056-32.475 19.821-50.465 57.85-50.488 95.312-9.389-4.056-19.373-6.986-29.784-8.613-5.945-133.899 157.01-197.199 246.853-100.755 23.968 25.989 35.679 58.683 32.973 92.054z"/><path d="m168.191 245.317h-30v39.499h-39.5v30h39.5v39.5h30v-39.5h39.5v-30h-39.5z"/></g></svg>