<svg id="Capa_1" enable-background="new 0 0 509.278 509.278" height="512" viewBox="0 0 509.278 509.278" width="512" xmlns="http://www.w3.org/2000/svg"><g><path d="m189.549 181.329h19.828v134h30v-164h-49.828z"/><path d="m352.161 225.617c24.084-28.748 3.131-73.766-34.72-73.598-37.848-.169-58.805 44.857-34.718 73.598-37.137 31.84-14.784 93.525 34.72 93.711 49.504-.187 71.855-61.88 34.718-93.711zm-34.719-43.598c8.271 0 15 6.729 15 15-.824 19.9-29.179 19.894-30 0 0-8.271 6.729-15 15-15zm0 107.31c-12.853 0-23.309-10.457-23.309-23.31 1.28-30.922 45.343-30.913 46.618 0 0 12.853-10.457 23.31-23.309 23.31z"/><path d="m155.28 192.662h-30v21.951h-21.951v30h21.951v21.952h30v-21.952h21.952v-30h-21.952z"/><path d="m465.689 65.16c-55.462-57.767-155.125-58.068-210.942-.688-53.224-52.612-138.852-58.198-198.672-10.315-64.427 51.572-74.885 145.945-23.314 210.37 3.409 4.26 7.095 8.379 10.958 12.247l211.016 211.11 211.019-211.019.003-.003c58.056-55.739 58.022-156.001-.068-211.702zm-21.148 190.493-189.801 189.8-189.8-189.884c-3.085-3.089-6.031-6.382-8.757-9.788-62.729-77.616-5.594-195.156 93.304-194.398 35.117-.001 69.938 15.35 93.54 44.835l11.707 14.625 11.711-14.622c43.007-55.294 129.216-60.087 178.038-9.84 46.444 44.532 46.477 124.711.058 169.272z"/></g></svg>