<svg id="Layer_1" enable-background="new 0 0 510 510" height="512" viewBox="0 0 510 510" width="512" xmlns="http://www.w3.org/2000/svg"><g><path d="m76.625 383.787-48.25 48.251 38.98 77.962h129.27v-30h-110.729l-21.02-42.038 41.748-41.749v-96.213h90v-60h30v-240h-150c.001 5.836.001 372.358.001 383.787zm90-113.787h-60v-30h60zm30-60h-30v-180h30zm-90-180h30v180h-30z"/><path d="m481.625 0h-150v383.787l-48.25 48.251 38.98 77.962h129.27v-30h-110.728l-21.02-42.038 41.748-41.749v-96.213h90v-60h30zm-120 30h30v180h-30zm60 240h-60v-30h60zm30-60h-30v-180h30z"/></g></svg>