<svg id="Capa_1" enable-background="new 0 0 512 512" height="512" viewBox="0 0 512 512" width="512" xmlns="http://www.w3.org/2000/svg"><g><path d="m437.02 74.98c-48.353-48.351-112.64-74.98-181.02-74.98s-132.667 26.629-181.02 74.98c-48.351 48.353-74.98 112.64-74.98 181.02s26.629 132.667 74.98 181.02c48.353 48.351 112.64 74.98 181.02 74.98s132.667-26.629 181.02-74.98c48.351-48.353 74.98-112.64 74.98-181.02s-26.629-132.667-74.98-181.02zm-338.138 189.814 24.058-24.059 119.759 119.548h-48.327zm64.391-26.186-35.271-35.209c3.214-12.462 14.551-21.697 28.003-21.697 15.943 0 28.914 12.972 28.914 28.915 0 13.297-9.082 24.746-21.646 27.991zm-61.564-19.066-24.039 24.04-24.55-24.55c-6.632-8.006-6.632-16.012 0-24.019 6.623-6.62 17.396-6.621 24.027.01zm154.291 262.458c-124.617 0-226-101.383-226-226 0-5.747.219-11.444.643-17.085.414.447 151.304 151.368 151.304 151.368h145.062v-30h-41.846l-99.146-98.971c17.406-10.343 28.902-29.353 28.902-50.695 0-32.486-26.429-58.915-58.914-58.915-21.574 0-40.466 11.663-50.731 29.009-13.163-15.607-34.819-24.963-54.976-18.281 35.646-78.053 114.44-132.43 205.702-132.43 124.617 0 226 101.383 226 226s-101.383 226-226 226z"/><path d="m355.995 151.702c-32.485 0-58.914 26.429-58.914 58.915s26.429 58.915 58.914 58.915c32.486 0 58.915-26.429 58.915-58.915s-26.429-58.915-58.915-58.915zm0 87.83c-15.943 0-28.914-12.972-28.914-28.915s12.971-28.915 28.914-28.915 28.915 12.972 28.915 28.915-12.972 28.915-28.915 28.915z"/><path d="m120.277 125.582 1.275 29.973c30.254-1.288 82.466-14.908 102.307-47.151l-25.551-15.723c-11.543 18.761-49.493 31.686-78.031 32.901z"/><path d="m391.723 125.582c-28.538-1.215-66.487-14.14-78.031-32.901l-25.551 15.723c19.841 32.243 72.053 45.863 102.307 47.151z"/></g></svg>