<svg id="Capa_1" enable-background="new 0 0 512 512" height="512" viewBox="0 0 512 512" width="512" xmlns="http://www.w3.org/2000/svg"><g><g><path d="m408.006 79.096-77.006-13.917v-65.179h-150v65.179l-77.006 13.917c-42.875 7.748-73.994 44.995-73.994 88.564v344.34h452v-344.34c0-43.569-31.119-80.816-73.994-88.564zm43.994 402.904h-30v-257h-30v257h-272v-257h-30v257h-30v-314.34c0-29.046 20.746-53.877 49.33-59.043l101.67-18.374v-60.243h90v60.243l101.67 18.374c28.584 5.166 49.33 29.997 49.33 59.043z"/><path d="m241 182h30v270h-30z"/><path d="m181 159.86c0 23.375-9.634 46.104-26.432 62.36l20.863 21.559c22.605-21.876 35.569-52.463 35.569-83.919v-17.86h-30z"/><path d="m336.568 243.779 20.863-21.559c-16.797-16.255-26.431-38.985-26.431-62.36v-17.86h-30v17.86c0 31.456 12.964 62.043 35.568 83.919z"/><path d="m181 392h30v30h-30z"/><path d="m151 422h30v30h-30z"/><path d="m181 272h30v30h-30z"/><path d="m151 332h30v30h-30z"/><path d="m331 302h30v30h-30z"/><path d="m301 272h30v30h-30z"/><path d="m331 422h30v30h-30z"/><path d="m301 362h30v30h-30z"/></g></g></svg>