<svg id="Capa_1" enable-background="new 0 0 512 512" height="512" viewBox="0 0 512 512" width="512" xmlns="http://www.w3.org/2000/svg"><g><path d="m31.26 346.257 51.03 46.758v118.985l107.76-37.607v-81.378l51.03-46.758v-346.17h-209.82zm128.79 33.445v73.243l-47.76 16.667v-89.91l-51.03-46.758v-30.531h149.82v30.531zm51.03-349.462v242.021h-149.82v-242.021z"/><path d="m90.92 68.189h30v155.224h-30z"/><path d="m150.92 68.189h30v155.224h-30z"/><path d="m429.71 118.984v-118.984l-107.76 37.607v81.378l-51.03 46.758v346.17h209.82v-346.17zm-77.76 13.314v-73.243l47.76-16.667v89.91l51.03 46.758v30.531h-149.82v-30.531zm-51.03 349.462v-242.021h149.82v242.021z"/><path d="m391.08 288.587h30v155.224h-30z"/><path d="m331.08 288.587h30v155.224h-30z"/></g></svg>