<svg id="Capa_1" enable-background="new 0 0 510 510" height="512" viewBox="0 0 510 510" width="512" xmlns="http://www.w3.org/2000/svg"><g><path d="m480 390v-300h-301.072c5.123-8.832 8.072-19.075 8.072-30 0-33.084-26.916-60-60-60s-60 26.916-60 60c0 10.925 2.949 21.168 8.072 30h-45.072v300h-30v66.213l53.787 53.787h402.426l53.787-53.787v-66.213zm-270-68.787 38.787 38.787h72.426l38.787-38.787 68.787 68.787h-105l-30 30h-77.574l-30-30h-45zm21.213-21.213 53.787-53.787 53.787 53.787-30 30h-47.574zm150 0 68.787-68.787v137.574zm68.787-111.213-90 90-53.787-53.787 105-105h38.787zm-81.213-68.787-83.787 83.787-30-30v-53.787zm-271.787-60c0-16.542 13.458-30 30-30s30 13.458 30 30-13.458 30-30 30-30-13.458-30-30zm15 60v120h30v-120h83v66.213l38.787 38.787-60 60h-143.787v-165zm-52 195h113.787l-75 75h-38.787zm420 128.787-36.213 36.213h-377.574l-36.213-36.213v-23.787h143.787l30 30h102.426l30-30h143.787z"/></g></svg>