<svg id="Capa_1" enable-background="new 0 0 512 512" height="512" viewBox="0 0 512 512" width="512" xmlns="http://www.w3.org/2000/svg"><g><path d="m121 181h30v150h-30z"/><path d="m256 211v-30h-75v150h30v-60h30v-30h-30v-30z"/><circle cx="271" cy="316" r="15"/><circle cx="331" cy="316" r="15"/><circle cx="391" cy="316" r="15"/><path d="m256 0c-140.755 0-256 115.263-256 256 0 140.755 115.263 256 256 256 140.755 0 256-115.263 256-256 0-140.755-115.263-256-256-256zm0 482c-124.617 0-226-101.383-226-226s101.383-226 226-226 226 101.383 226 226-101.383 226-226 226z"/></g></svg>