<svg id="Capa_1" enable-background="new 0 0 512 512" height="512" viewBox="0 0 512 512" width="512" xmlns="http://www.w3.org/2000/svg"><g><path d="m512 95v-30h-65v-65h-30v65h-40.4v-65h-30v65h-40.4v-65h-30v65h-40.4v-65h-30v65h-40.4v-65h-30v65h-40.4v-65h-30v65h-65v30h65v40.4h-65v30h65v40.4h-65v30h65v40.4h-65v30h65v40.4h-65v30h65v40.4h-65v30h65v65h30v-65h40.4v65h30v-65h40.4v65h30v-65h40.4v65h30v-65h40.4v65h30v-65h40.4v65h30v-65h65v-30h-65v-40.4h65v-30h-65v-40.4h65v-30h-65v-40.4h65v-30h-65v-40.4h65v-30h-65v-40.4zm-417 0h322v322h-322z"/><path d="m372 297h-45v-26h45v-30h-45v-26h45v-30h-45v-45h-30v45h-26v-45h-30v45h-26v-45h-30v45h-45v30h45v26h-45v30h45v26h-45v30h45v45h30v-45h26v45h30v-45h26v45h30v-45h45zm-157-82h82v82h-82z"/><path d="m357 125h30v30h-30z"/><path d="m125 125h30v30h-30z"/><path d="m357 357h30v30h-30z"/><path d="m125 357h30v30h-30z"/></g></svg>