<svg id="Capa_1" enable-background="new 0 0 510 510" height="512" viewBox="0 0 510 510" width="512" xmlns="http://www.w3.org/2000/svg"><g><path d="m421.284 385.24c60.901-19.047 90.861-87.717 63.602-145.24 28.365-59.855-5.153-130.067-68.29-146.596-19.608-74.899-110.451-103.031-169.096-53.82-46.95-39.396-117.469-30.361-153.023 19.508l-59.21-59.092h-35.267v510h510v-36.222zm-185.032-314.836 11.248 12.749 11.248-12.749c14.244-16.144 34.747-25.404 56.252-25.404 36.631 0 68.49 27.245 74.107 63.375l1.685 10.833 10.833 1.685c36.13 5.617 63.375 37.476 63.375 74.107 0 25.48-12.451 40.763-14.364 45 1.97 4.364 14.364 19.621 14.364 45 0 39.419-30.574 71.809-69.25 74.758l-40.786-40.704c16.599-24.839 16.787-57.626.169-82.803 32.567-49.338-2.721-116.251-62.633-116.251-14.828 0-29.086 4.337-41.25 12.366-25.392-16.76-58.298-16.339-83.03.319l-52.099-51.993c26.324-42.743 86.686-48.195 120.131-10.288zm96.823 144.061c-14.196-9.109-31.206-13.371-48.495-11.545 1.819-17.226-2.403-34.246-11.546-48.494 29.736-14.278 64.466 7.448 64.466 40.574 0 6.828-1.538 13.452-4.425 19.465zm-82.649.262-60.261-60.14c16.344-8.037 36.73-5.559 50.77 7.723 14.902 14.116 17.794 35.426 9.491 52.417zm87.074 62.773c0 6.923-1.557 13.6-4.492 19.643l-60.205-60.084c30.07-14.676 64.697 7.421 64.697 40.441zm-307.5-151.287 353.787 353.787h-353.787zm396.213 353.787-396.213-396.213v-46.659l443.766 442.872z"/><path d="m60 240h30v30h-30z"/><path d="m60 330h30v30h-30z"/><path d="m225 405h30v30h-30z"/><path d="m120 360h30v30h-30z"/><path d="m135 300h30v30h-30z"/><path d="m165 420h30v30h-30z"/><path d="m60 420h30v30h-30z"/></g></svg>