<svg id="Capa_1" enable-background="new 0 0 512 512" height="512" viewBox="0 0 512 512" width="512" xmlns="http://www.w3.org/2000/svg"><g><path d="m511.999 275.696h-120.809v-155.26h-169.706c1.622-4.652 2.515-9.643 2.515-14.841 0-24.923-20.276-45.199-45.198-45.199h-.179c1.702-4.752 2.636-9.868 2.636-15.198 0-24.923-20.276-45.198-45.198-45.198h-65.297c-24.923 0-45.199 20.275-45.199 45.198 0 11.599 4.395 22.188 11.603 30.198-7.208 8.011-11.603 18.6-11.603 30.199 0 5.198.893 10.189 2.515 14.841h-28.079v391.564h450.075l61.925-61.926zm-150.809-95.259h-61.529v-30h61.529zm-91.529-30v30h-239.661v-30zm-198.898-120.437h65.297c8.38 0 15.199 6.818 15.199 15.198s-6.818 15.198-15.199 15.198h-65.297c-8.38 0-15.198-6.818-15.198-15.198s6.817-15.198 15.198-15.198zm-15.199 75.596c0-8.381 6.818-15.199 15.198-15.199h108.039c8.38 0 15.198 6.818 15.198 15.199 0 7.265-5.128 13.349-11.953 14.841h-114.529c-6.825-1.492-11.953-7.576-11.953-14.841zm-25.564 376.404v-271.563h331.19v65.26h-87.606c-18.941-21.839-46.88-35.674-77.989-35.674-51.822 0-94.84 38.389-102.127 88.221h-28.097v30h28.097c7.287 49.832 50.305 88.22 102.127 88.22 28.572 0 54.467-11.671 73.175-30.493v34.105l31.925 31.924zm93.925-153.757c6.941-33.203 36.436-58.221 71.669-58.221 39.767 0 72.208 31.873 73.175 71.412v3.618c-.967 39.538-33.407 71.411-73.175 71.411-35.233 0-64.728-25.018-71.669-58.22h25.905v-30zm313.723 153.757h-93.177-1.35l-44.352-44.351v-131.953h183.229l.002 131.952z"/><path d="m406.272 369.796c0 8.735-7.106 15.842-15.842 15.842s-15.842-7.106-15.842-15.842v-33.876h-30v33.876c0 25.277 20.564 45.842 45.842 45.842s45.842-20.564 45.842-45.842v-33.876h-30z"/></g></svg>