<svg id="Layer_1" enable-background="new 0 0 510 510" height="512" viewBox="0 0 510 510" width="512" xmlns="http://www.w3.org/2000/svg"><g><path d="m510 240h-30.504c-7.342-112.268-97.043-202.143-209.496-209.496v-30.504h-30v30.504c-112.268 7.342-202.143 97.043-209.496 209.496h-30.504v30h30.504c7.341 112.268 97.043 202.143 209.496 209.496v30.504h30v-30.504c112.268-7.341 202.143-97.043 209.496-209.496h30.504zm-60.571 0h-30.119c-7.156-79.035-70.275-142.154-149.31-149.311v-30.118c95.591 7.306 172.123 83.838 179.429 179.429zm-194.429 75c-33.084 0-60-26.916-60-60 3.017-79.489 116.996-79.467 120 .001 0 33.083-26.916 59.999-60 59.999zm-15-148.743c-37.631 6.341-67.402 36.112-73.743 73.743h-45.419c6.939-62.479 56.684-112.223 119.162-119.162zm-73.743 103.743c6.341 37.631 36.112 67.402 73.743 73.743v45.419c-62.479-6.939-112.223-56.684-119.162-119.162zm103.743 73.743c37.631-6.341 67.402-36.112 73.743-73.743h45.419c-6.939 62.478-56.684 112.223-119.162 119.162zm73.743-103.743c-6.341-37.631-36.112-67.402-73.743-73.743v-45.419c62.478 6.939 112.223 56.684 119.162 119.162zm-103.743-179.429v30.118c-79.035 7.157-142.154 70.276-149.311 149.311h-30.118c7.306-95.591 83.838-172.123 179.429-179.429zm-179.429 209.429h30.118c7.157 79.035 70.276 142.154 149.311 149.311v30.118c-95.591-7.306-172.123-83.838-179.429-179.429zm209.429 179.429v-30.118c79.035-7.156 142.154-70.275 149.31-149.311h30.118c-7.305 95.591-83.837 172.123-179.428 179.429z"/><path d="m240 240h30v30h-30z"/></g></svg>