<svg id="Capa_1" enable-background="new 0 0 510.838 510.838" height="512" viewBox="0 0 510.838 510.838" width="512" xmlns="http://www.w3.org/2000/svg"><g id="XMLID_1099_"><path id="XMLID_1125_" d="m448.311 93.919v-25h-30v25h-36.392v-25h-30v25h-171.877v-58h-111.819v58h-68.223v381h510.838v-381zm-350.088-28h51.819v28h-51.819zm382.615 58v230h-115.647c13.112-20.344 20.728-44.549 20.728-70.5 0-71.958-58.542-130.5-130.5-130.5s-130.5 58.542-130.5 130.5c0 25.951 7.616 50.156 20.728 70.5h-115.647v-230zm-325.919 159.5c0-55.416 45.084-100.5 100.5-100.5s100.5 45.084 100.5 100.5-45.084 100.5-100.5 100.5-100.5-45.084-100.5-100.5zm-124.919 161.5v-61h142.264c22.595 18.728 51.583 30 83.155 30s60.56-11.272 83.155-30h142.264v61z"/><path id="XMLID_1183_" d="m255.419 356.501 54.441-59.394c9.9-10.801 13.556-25.7 9.781-39.858-4.98-18.671-21.967-31.712-41.308-31.712-8.104 0-16.027 2.322-22.914 6.717-6.887-4.395-14.809-6.717-22.914-6.717-19.341 0-36.328 13.04-41.309 31.714-3.774 14.156-.118 29.056 9.782 39.856zm-35.236-91.52c1.483-5.561 6.55-9.444 12.322-9.444 2.383 0 4.733.698 6.796 2.019l16.117 10.318 16.119-10.318c2.063-1.32 4.413-2.019 6.796-2.019 5.771 0 10.838 3.884 12.321 9.443 1.123 4.211.036 8.644-2.909 11.855l-32.326 35.267-32.326-35.267c-2.945-3.212-4.032-7.644-2.91-11.854z"/><path id="XMLID_1184_" d="m67.919 156.919h52.424v30h-52.424z"/><path id="XMLID_1185_" d="m418.57 156.919h29.482v30h-29.482z"/><path id="XMLID_1186_" d="m418.57 216.252h29.482v30h-29.482z"/></g></svg>