<svg id="Capa_1" enable-background="new 0 0 512 512" height="512" viewBox="0 0 512 512" width="512" xmlns="http://www.w3.org/2000/svg"><g><path d="m376 226c-35.304 0-72.267 19.262-106.892 55.704l-13.108 13.796-13.108-13.796c-34.625-36.442-71.588-55.704-106.892-55.704-74.456 0-136 60.426-136 135 0 74.466 61.426 135 136 135 35.304 0 72.267-19.262 106.892-55.704l13.108-13.796 13.108 13.795c34.625 36.443 71.587 55.705 106.892 55.705 74.456 0 136-60.426 136-135 0-74.466-61.426-135-136-135zm0 240c-33.959 0-65.045-25.215-85.144-46.369l-14.165-14.907 20.854-21.947 15.717 16.541c23.128 24.34 44.236 36.682 62.738 36.682 41.458 0 76-33.535 76-75 0-41.457-34.534-75-76-75-18.503 0-39.611 12.342-62.739 36.683l-92.117 96.949c-20.099 21.153-51.185 46.368-85.144 46.368-58.448 0-106-47.103-106-105s47.552-105 106-105c33.959 0 65.045 25.215 85.144 46.368l14.165 14.908-20.854 21.947-15.717-16.541c-23.128-24.34-44.236-36.682-62.738-36.682-41.458 0-76 33.535-76 75 0 41.457 34.534 75 76 75 18.503 0 39.611-12.342 62.739-36.683l92.117-96.949c20.099-21.153 51.185-46.368 85.144-46.368 58.448 0 106 47.103 106 105s-47.552 105-106 105zm-57.764-105 16.772-17.652c23.454-24.683 36.48-27.348 40.992-27.348 24.935 0 46 20.607 46 45s-21.065 45-46 45c-4.512 0-17.537-2.665-40.99-27.348zm-124.472 0-16.772 17.652c-23.454 24.683-36.48 27.348-40.992 27.348-24.935 0-46-20.607-46-45s21.065-45 46-45c4.512 0 17.537 2.665 40.99 27.348z"/><path d="m151 121c0 57.897 47.103 105 105 105s105-47.103 105-105-47.103-105-105-105-105 47.103-105 105zm180 0c0 41.355-33.645 75-75 75s-75-33.645-75-75 33.645-75 75-75 75 33.645 75 75z"/><path d="m241 121h-30c0 24.813 20.187 45 45 45s45-20.187 45-45h-30c0 8.271-6.729 15-15 15s-15-6.729-15-15z"/></g></svg>