<svg id="Capa_1" enable-background="new 0 0 510 510" height="512" viewBox="0 0 510 510" width="512" xmlns="http://www.w3.org/2000/svg"><g><path d="m120 0c-66.168 0-120 53.832-120 120v135c0 13.441 5.341 25.651 14 34.646v114.354c0 58.448 47.552 106 106 106s106-47.552 106-106v-114.354c8.658-8.994 14-21.204 14-34.646v-135c0-66.168-53.832-120-120-120zm20 255c0 11.028-8.972 20-20 20s-20-8.972-20-20h-30c0 11.028-8.972 20-20 20s-20-8.972-20-20v-30h180v30c0 11.028-8.972 20-20 20s-20-8.972-20-20zm70-60h-180v-30h180zm-90 285c-41.906 0-76-34.094-76-76v-99.373c15.452 1.857 30.317-3.479 41-13.965 19.498 19.14 50.543 19.099 70 0 10.667 10.471 25.524 15.824 41 13.965v99.373c0 41.906-34.094 76-76 76zm90-345h-180v-15c0-49.626 40.374-90 90-90s90 40.374 90 90z"/><path d="m510 120c0-66.168-53.832-120-120-120s-120 53.832-120 120v135c0 13.441 5.341 25.651 14 34.646v114.354c0 58.448 47.552 106 106 106s106-47.552 106-106v-114.354c8.658-8.994 14-21.204 14-34.646zm-100 135c0 11.028-8.972 20-20 20s-20-8.972-20-20h-30c0 11.028-8.972 20-20 20s-20-8.972-20-20v-30h180v30c0 11.028-8.972 20-20 20s-20-8.972-20-20zm70-60h-180v-30h180zm-90-165c49.626 0 90 40.374 90 90v15h-180v-15c0-49.626 40.374-90 90-90zm0 450c-41.906 0-76-34.094-76-76v-99.373c15.452 1.857 30.317-3.479 41-13.965 19.498 19.14 50.543 19.099 70 0 10.667 10.471 25.524 15.824 41 13.965v99.373c0 41.906-34.094 76-76 76z"/><path d="m105 390h30v30h-30z"/><path d="m375 390h30v30h-30z"/></g></svg>