<svg id="Capa_1" enable-background="new 0 0 510 510" height="512" viewBox="0 0 510 510" width="512" xmlns="http://www.w3.org/2000/svg"><g id="XMLID_1181_"><path id="XMLID_1183_" d="m255 330h45v30h-45v90h75v-30h-45v-30h45v-90h-75z"/><path id="XMLID_1222_" d="m360 450h90v-150h-90zm30-30v-30h30v30zm30-90v30h-30v-30z"/><path id="XMLID_1226_" d="m390 90v-45c0-8.271 6.728-15 15-15s15 6.729 15 15v15h30v-15c0-24.813-20.186-45-45-45s-45 20.187-45 45v45h-120v-45c0-8.271 6.729-15 15-15 8.272 0 15 6.729 15 15v15h30v-15c0-24.813-20.186-45-45-45s-45 20.187-45 45v45h-120v-45c0-8.271 6.729-15 15-15s15 6.729 15 15v15h30v-15c0-24.813-20.186-45-45-45s-45 20.187-45 45v45h-60v420h510v-420zm-330 30v30h30v-30h120v30h30v-30h120v30h30v-30h90v60h-450v-60zm-30 360v-270h450v270z"/><path id="XMLID_1228_" d="m60 240h30v30h-30z"/><path id="XMLID_1229_" d="m120 240h30v30h-30z"/><path id="XMLID_1230_" d="m180 240h30v30h-30z"/><path id="XMLID_1231_" d="m240 240h30v30h-30z"/><path id="XMLID_1232_" d="m300 240h30v30h-30z"/><path id="XMLID_1233_" d="m360 240h30v30h-30z"/><path id="XMLID_1234_" d="m420 240h30v30h-30z"/><path id="XMLID_1235_" d="m180 300h30v30h-30z"/><path id="XMLID_1236_" d="m180 360h30v30h-30z"/><path id="XMLID_1237_" d="m180 420h30v30h-30z"/><path id="XMLID_1238_" d="m120 300h30v30h-30z"/><path id="XMLID_1239_" d="m120 360h30v30h-30z"/><path id="XMLID_1240_" d="m120 420h30v30h-30z"/><path id="XMLID_1242_" d="m60 300h30v30h-30z"/><path id="XMLID_1243_" d="m60 360h30v30h-30z"/><path id="XMLID_1244_" d="m60 420h30v30h-30z"/></g></svg>