<?xml version="1.0" encoding="iso-8859-1"?>
<!-- Generator: Adobe Illustrator 19.0.0, SVG Export Plug-In . SVG Version: 6.00 Build 0)  -->
<svg version="1.1" id="Layer_1" xmlns="http://www.w3.org/2000/svg" xmlns:xlink="http://www.w3.org/1999/xlink" x="0px" y="0px"
	 viewBox="0 0 512 512" style="enable-background:new 0 0 512 512;" xml:space="preserve">
<g>
	<g>
		<path d="M375.07,0H136.93c-22.979,0-41.674,18.695-41.674,41.674v428.651c0,22.979,18.695,41.674,41.674,41.674h238.14
			c22.979,0,41.674-18.695,41.674-41.674V41.674C416.744,18.695,398.049,0,375.07,0z M381.023,470.326
			c0,3.283-2.671,5.953-5.953,5.953H136.93c-3.283,0-5.953-2.671-5.953-5.953V392.93h250.047V470.326z M381.023,357.209H130.977
			V107.163h250.047V357.209z M381.023,71.442H130.977V41.674c0-3.283,2.671-5.953,5.953-5.953h238.14
			c3.283,0,5.953,2.671,5.953,5.953V71.442z"/>
	</g>
</g>
<g>
	<g>
		<polygon points="166.698,142.884 166.698,208.372 202.419,208.372 202.419,178.605 232.186,178.605 232.186,142.884 		"/>
	</g>
</g>
<g>
	<g>
		<polygon points="202.419,285.767 202.419,256 166.698,256 166.698,321.488 232.186,321.488 232.186,285.767 		"/>
	</g>
</g>
<g>
	<g>
		<polygon points="309.581,256 309.581,285.767 279.814,285.767 279.814,321.488 345.302,321.488 345.302,256 		"/>
	</g>
</g>
<g>
	<g>
		<polygon points="279.814,142.884 279.814,178.605 309.581,178.605 309.581,208.372 345.302,208.372 345.302,142.884 		"/>
	</g>
</g>
<g>
	<g>
		<circle cx="256" cy="434.605" r="23.814"/>
	</g>
</g>
<g>
</g>
<g>
</g>
<g>
</g>
<g>
</g>
<g>
</g>
<g>
</g>
<g>
</g>
<g>
</g>
<g>
</g>
<g>
</g>
<g>
</g>
<g>
</g>
<g>
</g>
<g>
</g>
<g>
</g>
</svg>
