<?xml version="1.0" encoding="iso-8859-1"?>
<!-- Generator: Adobe Illustrator 19.0.0, SVG Export Plug-In . SVG Version: 6.00 Build 0)  -->
<svg xmlns="http://www.w3.org/2000/svg" xmlns:xlink="http://www.w3.org/1999/xlink" version="1.1" id="Layer_1" x="0px" y="0px" viewBox="0 0 511.999 511.999" style="enable-background:new 0 0 511.999 511.999;" xml:space="preserve">
<g>
	<g>
		<path d="M256,216.022c-30.414,0-55.158,24.744-55.158,55.158c0,30.414,24.744,55.158,55.158,55.158s55.158-24.744,55.158-55.158    S286.414,216.022,256,216.022z M256,296.252c-13.825,0-25.072-11.247-25.072-25.072s11.247-25.072,25.072-25.072    s25.072,11.247,25.072,25.072S269.825,296.252,256,296.252z"/>
	</g>
</g>
<g>
	<g>
		<rect x="-2.221" y="78.143" transform="matrix(0.7071 -0.7071 0.7071 0.7071 -43.0459 82.4545)" width="160.458" height="30.09"/>
	</g>
</g>
<g>
	<g>
		<rect x="-2.58" y="42.685" transform="matrix(0.7071 -0.7071 0.7071 0.7071 -28.3587 46.9959)" width="90.259" height="30.09"/>
	</g>
</g>
<g>
	<g>
		<path d="M444.631,196.012l21.274-21.274L352.443,61.275l-21.274,21.275l24.82,24.82l-19.357,19.357    c-23.873-13.378-51.374-21.021-80.631-21.021c-29.257,0-56.759,7.643-80.631,21.021l-19.357-19.357l24.82-24.82l-21.276-21.275    L46.094,174.737l21.274,21.274l24.82-24.82l19.358,19.358c-13.378,23.872-21.021,51.374-21.021,80.631    c0,64.176,36.723,119.936,90.259,147.371v48.19h-35.101v30.086h220.633v-30.086h-35.101v-48.19    c53.536-27.435,90.259-83.195,90.259-147.371c0-29.257-7.643-56.759-21.021-80.631l19.358-19.358L444.631,196.012z     M134.737,128.643l15.432,15.432c-7.716,6.436-14.839,13.558-21.274,21.275l-15.433-15.433L134.737,128.643z M210.87,466.741    v-36.342c14.351,4.073,29.49,6.256,45.129,6.256c15.639,0,30.778-2.182,45.129-6.256v36.342H210.87z M256,406.569    c-74.654,0-135.388-60.735-135.388-135.388S181.346,135.792,256,135.792s135.388,60.735,135.388,135.388    S330.654,406.569,256,406.569z M383.105,165.35c-6.435-7.716-13.558-14.839-21.274-21.275l15.432-15.432l21.275,21.274    L383.105,165.35z"/>
	</g>
</g>
<g>
	<g>
		<rect x="418.962" y="12.96" transform="matrix(0.7071 -0.7071 0.7071 0.7071 61.223 334.1836)" width="30.09" height="160.458"/>
	</g>
</g>
<g>
	<g>
		<rect x="454.404" y="12.592" transform="matrix(0.7071 -0.7071 0.7071 0.7071 96.6838 348.8575)" width="30.09" height="90.259"/>
	</g>
</g>
<g>
</g>
<g>
</g>
<g>
</g>
<g>
</g>
<g>
</g>
<g>
</g>
<g>
</g>
<g>
</g>
<g>
</g>
<g>
</g>
<g>
</g>
<g>
</g>
<g>
</g>
<g>
</g>
<g>
</g>
</svg>
