<svg id="Layer_1" enable-background="new 0 0 510 510" height="512" viewBox="0 0 510 510" width="512" xmlns="http://www.w3.org/2000/svg"><g id="XMLID_840_"><path id="XMLID_845_" d="m450 180h-15c-24.814 0-45-20.186-45-45v-15h-270v15c0 24.814-20.187 45-45 45h-15-60v210h510v-210zm-360 28.493c29.342-5.98 52.513-29.151 58.493-58.493h213.014c5.98 29.342 29.151 52.513 58.493 58.493v31.507h-330zm-30 151.507h-30v-30h30zm60 0h-30v-30h30zm60 0h-30v-30h30zm60 0h-30v-30h30zm60 0h-30v-30h30zm60 0h-30v-30h30zm60 0h-30v-30h30zm60 0h-30v-30h30zm0-60h-450v-90h30v60h390v-60h30z"/><path id="XMLID_867_" d="m195 180h30v30h-30z"/><path id="XMLID_868_" d="m285 180h30v30h-30z"/></g></svg>