<svg id="Layer_1" enable-background="new 0 0 510 510" height="512" viewBox="0 0 510 510" width="512" xmlns="http://www.w3.org/2000/svg"><g><path d="m450 0h30v30h-30z"/><path d="m390 15h30v30h-30z"/><path d="m330 30h30v30h-30z"/><path d="m390 75h30v30h-30z"/><path d="m450 60h30v30h-30z"/><path d="m450 120h30v30h-30z"/><path d="m255 90h-30v-30h60v-30h-60v-30h-120v90h-30v60h-45v360h270v-360h-45zm-120-60h60v60h-60zm-30 90h120v30h-120zm-45 120h210v180h-210zm0 240v-30h210v30zm210-270h-210v-30h210z"/><path d="m225 315h-45v-45h-30v45h-45v30h45v45h30v-45h45z"/></g></svg>