<svg id="Capa_1" enable-background="new 0 0 512.865 512.865" height="512" viewBox="0 0 512.865 512.865" width="512" xmlns="http://www.w3.org/2000/svg"><g><path d="m394.456 256.622 22.74-22.74c16.341-16.34 16.456-42.844.364-59.339l95.305-46.814-127.728-127.729-46.814 95.305c-16.493-16.09-42.998-15.977-59.339.364l-183.315 183.314c-16.341 16.34-16.456 42.844-.364 59.339l-95.305 46.815 127.729 127.729 46.814-95.305c8.184 7.984 18.829 11.986 29.479 11.986 10.813 0 21.628-4.117 29.86-12.35l22.74-22.74c5.192 17.234 14.59 33.025 27.676 46.111 20.87 20.871 48.619 32.365 78.135 32.365s57.265-11.494 78.135-32.365c20.869-20.87 32.365-48.621 32.365-78.135 0-29.516-11.494-57.265-32.365-78.135-13.087-13.087-28.877-22.485-46.112-27.676zm-130.737 56.034-103.159-56.138 67.684-67.684 118.083 64.259c-23.403 3.397-45.004 14.18-62.028 31.204-8.442 8.441-15.347 18.007-20.58 28.359zm129.857-261.791 68.424 68.424-66.842 32.833-34.415-34.415zm-93.38 66.017c4.771-4.768 12.527-4.767 17.296 0l78.491 78.491c4.769 4.769 4.769 12.527 0 17.296l-21.56 21.56-124.061-67.513zm-180.907 345.118-68.424-68.424 66.842-32.833 34.415 34.415zm93.38-66.017c-4.77 4.77-12.526 4.768-17.296 0l-78.491-78.491c-4.769-4.769-4.769-12.527 0-17.296l21.56-21.56 115.471 62.838c-.945 4.948-1.559 9.986-1.824 15.089zm206.685 23.371c-15.205 15.205-35.42 23.578-56.922 23.578s-41.717-8.373-56.922-23.578-23.578-35.42-23.578-56.922 8.373-41.717 23.578-56.922 35.42-23.578 56.922-23.578 41.717 8.373 56.922 23.578 23.578 35.42 23.578 56.922-8.372 41.717-23.578 56.922z"/><path d="m387.598 316.055-25.165 25.165-25.165-25.165-21.213 21.213 25.165 25.165-25.165 25.165 21.213 21.213 25.165-25.165 25.165 25.165 21.213-21.213-25.165-25.165 25.165-25.165z"/></g></svg>