<svg id="Capa_1" enable-background="new 0 0 512.001 512.001" height="512" viewBox="0 0 512.001 512.001" width="512" xmlns="http://www.w3.org/2000/svg"><g><path d="m284.771 66.667c-75.385 0-136.714 61.33-136.714 136.714s61.329 136.714 136.714 136.714 136.715-61.33 136.715-136.714-61.33-136.714-136.715-136.714zm0 243.428c-58.842 0-106.714-47.872-106.714-106.714s47.872-106.714 106.714-106.714c58.843 0 106.715 47.872 106.715 106.714s-47.872 106.714-106.715 106.714z"/><path d="m489.774 205.774c0-113.464-92.31-205.774-205.774-205.774-44.388 0-86.66 13.912-122.247 40.233-34.871 25.792-60.319 61.137-73.594 102.215l-.352 1.089-8.955 55.412-56.625 102.69v38.361h47.106l18.982 103.695h106.936l16.135 68.306h244.439l-28.293-158.774c39.657-38.635 62.242-91.901 62.242-147.453zm-254.649 276.227-16.135-68.306h-105.668l-18.983-103.695h-42.112v-.639l55.41-100.485 9.416-58.27c23.827-72.187 90.775-120.606 166.947-120.606 96.923 0 175.774 78.853 175.774 175.774 0 49.867-21.306 97.577-58.453 130.897l-6.217 5.576 24.903 139.753h-184.882z"/><path d="m301.125 125.667h-30v84.653l53.498 45.445 19.421-22.864-42.919-36.46z"/></g></svg>