<?xml version="1.0" encoding="iso-8859-1"?>
<!-- Generator: Adobe Illustrator 19.0.0, SVG Export Plug-In . SVG Version: 6.00 Build 0)  -->
<svg xmlns="http://www.w3.org/2000/svg" xmlns:xlink="http://www.w3.org/1999/xlink" version="1.1" id="Layer_1" x="0px" y="0px" viewBox="0 0 512 512" style="enable-background:new 0 0 512 512;" xml:space="preserve">
<g>
	<g>
		<path d="M493.035,19.345C480.806,7.128,464.545,0.4,447.25,0.4c-17.296,0-33.555,6.727-45.785,18.944    C389.235,31.561,382.5,47.803,382.5,65.079c0,12.173,3.357,23.824,9.61,33.923l-30.315,30.282    c-19.703-10.65-44.889-7.68-61.522,8.933L0,438.159L73.522,511.6l300.273-299.942c9.82-9.809,15.227-22.849,15.227-36.721    c0-8.669-2.113-17.015-6.094-24.45l30.362-30.329c10.11,6.246,21.775,9.599,33.961,9.599c17.295,0,33.555-6.727,45.784-18.944    C505.265,98.597,512,82.354,512,65.078S505.265,31.561,493.035,19.345z M73.522,469.286l-31.161-31.127l31.161-31.127    l31.161,31.127L73.522,469.286z M352.615,190.501L125.863,417.002l-31.161-31.126l226.752-226.501    c8.591-8.583,22.571-8.582,31.161,0c4.161,4.157,6.454,9.685,6.454,15.564C359.069,180.816,356.776,186.343,352.615,190.501z     M471.855,89.658c-13.568,13.552-35.643,13.552-49.211,0c-13.567-13.553-13.567-35.604,0-49.156    c6.783-6.775,15.694-10.164,24.605-10.164c8.91,0,17.821,3.389,24.605,10.164C485.423,54.053,485.423,76.105,471.855,89.658z"/>
	</g>
</g>
<g>
</g>
<g>
</g>
<g>
</g>
<g>
</g>
<g>
</g>
<g>
</g>
<g>
</g>
<g>
</g>
<g>
</g>
<g>
</g>
<g>
</g>
<g>
</g>
<g>
</g>
<g>
</g>
<g>
</g>
</svg>
