<svg id="Layer_1" enable-background="new 0 0 510 510" height="512" viewBox="0 0 510 510" width="512" xmlns="http://www.w3.org/2000/svg"><path id="XMLID_871_" d="m510 14.115h-30c0 12.771-17.505 27.658-46.825 39.821-14.2 5.89-30.752 11.005-49.016 15.222l-9.929-29.787-28.461 9.486 8.704 26.113c-14.16 2.315-29.026 4.138-44.371 5.426-20.59-48.084-89.634-48.056-110.205 0-15.345-1.288-30.211-3.11-44.372-5.426l8.705-26.113-28.461-9.486-9.929 29.787c-18.264-4.217-34.816-9.332-49.016-15.222-29.319-12.163-46.824-27.049-46.824-39.821h-30c0 39.946 50.564 67.887 116.341 83.543l-10.571 31.713 28.461 9.486 11.713-35.139c16.06 2.79 32.657 4.924 49.356 6.392 2.515 25.231 20.725 45.912 44.7 52.105v76.899h-32.58c-17.384-46.977-86.463-35.72-87.42 15.001.962 50.727 70.043 61.969 87.42 14.999h32.58v185.729l-58.043-29.02c-19.712-9.856-31.957-29.669-31.957-51.708v-15h-60v30h31.266c4.655 27.281 21.888 50.848 47.275 63.541l86.459 43.229 86.459-43.228c25.387-12.693 42.62-36.26 47.275-63.541h31.266v-30h-60v15c0 22.039-12.246 41.852-31.958 51.709l-58.042 29.019v-185.729h32.58c17.386 46.977 86.462 35.719 87.42-15.001-.961-50.728-70.045-61.969-87.42-14.999h-32.58v-76.899c23.975-6.193 42.185-26.874 44.7-52.105 16.7-1.468 33.296-3.602 49.356-6.392l11.713 35.139 28.461-9.486-10.571-31.713c65.776-15.657 116.341-43.597 116.341-83.544zm-345 255c-8.271 0-15-6.729-15-15 .754-19.872 29.249-19.867 30 0 0 8.272-6.729 15-15 15zm180-30c8.271 0 15 6.729 15 15-.754 19.872-29.249 19.867-30 0 0-8.271 6.729-15 15-15zm-90-105c-16.542 0-30-13.459-30-30 1.508-39.745 58.498-39.734 60 0 0 16.541-13.458 30-30 30z"/></svg>