<?xml version="1.0" encoding="iso-8859-1"?>
<!-- Generator: Adobe Illustrator 19.0.0, SVG Export Plug-In . SVG Version: 6.00 Build 0)  -->
<svg version="1.1" id="Layer_1" xmlns="http://www.w3.org/2000/svg" xmlns:xlink="http://www.w3.org/1999/xlink" x="0px" y="0px"
	 viewBox="0 0 512 512" style="enable-background:new 0 0 512 512;" xml:space="preserve">
<g>
	<g>
		<polygon points="248.82,207.969 160.136,89.723 133.992,109.332 232.48,240.65 344.635,240.65 344.635,207.969 		"/>
	</g>
</g>
<g>
	<g>
		<path d="M461.886,261.447c2.038-12.226,3.073-24.644,3.073-37.137C464.959,100.624,364.335,0,240.65,0
			S16.34,100.624,16.34,224.309S116.966,448.619,240.65,448.619c1.483,0,2.97-0.023,4.457-0.052V512H495.66V261.447H461.886z
			 M245.106,415.887c-1.487,0.034-2.973,0.051-4.457,0.051c-105.664,0-191.628-85.964-191.628-191.629S134.986,32.681,240.65,32.681
			s191.629,85.964,191.629,191.629c0,12.53-1.235,24.959-3.624,37.137H245.106V415.887z M462.979,479.319H277.787V294.128h185.191
			V479.319z"/>
	</g>
</g>
<g>
	<g>
		<path d="M338.312,397.181c2.353-1.655,4.727-3.158,7.124-4.51c2.396-1.35,4.683-2.766,6.863-4.248
			c1.83-1.22,3.572-2.526,5.229-3.922c1.655-1.393,3.072-2.941,4.248-4.641c1.177-1.699,2.111-3.595,2.811-5.686
			c0.696-2.092,1.046-4.487,1.046-7.19c0-7.407-2.594-13.18-7.778-17.321c-5.186-4.138-12.79-6.209-22.811-6.209
			c-3.748,0-7.409,0.306-10.981,0.915c-3.574,0.611-6.95,1.46-10.131,2.549c-3.182,1.09-6.079,2.398-8.693,3.922
			c-2.614,1.525-4.751,3.203-6.405,5.033l15.687,18.432c2.788-3.312,5.468-5.707,8.039-7.19c2.57-1.48,5.294-2.222,8.17-2.222
			c2.439,0,4.356,0.523,5.752,1.569c1.393,1.046,2.092,2.659,2.092,4.837c0,0.784-0.196,1.503-0.588,2.157
			c-0.392,0.654-1.286,1.461-2.68,2.418c-1.394,0.96-3.464,2.202-6.209,3.726c-2.745,1.526-6.471,3.552-11.177,6.079
			c-3.66,2.006-6.732,4.052-9.216,6.144c-2.484,2.092-4.51,4.467-6.079,7.124c-1.569,2.659-2.702,5.643-3.399,8.955
			c-0.699,3.314-1.046,7.147-1.046,11.504h68.891v-22.223H338.312z"/>
	</g>
</g>
<g>
	<g>
		<path d="M432.825,397.573v-52.812h-16.994l-41.439,52.812v22.223h33.596v16.21h24.837v-16.21h11.504v-22.223H432.825z
			 M410.864,397.573h-12.027l12.027-15.687V397.573z"/>
	</g>
</g>
<g>
</g>
<g>
</g>
<g>
</g>
<g>
</g>
<g>
</g>
<g>
</g>
<g>
</g>
<g>
</g>
<g>
</g>
<g>
</g>
<g>
</g>
<g>
</g>
<g>
</g>
<g>
</g>
<g>
</g>
</svg>
