<svg id="Capa_1" enable-background="new 0 0 512 512" height="512" viewBox="0 0 512 512" width="512" xmlns="http://www.w3.org/2000/svg"><g><path d="m375 362v150h39.271l20.729-41.459 20.729 41.459h39.271v-150h-30v101.459l-30-60-30 60v-101.459z"/><path d="m0 512h30v-60h5.729l32.562 60 26.833-13.417-33.353-61.583 33.354-66.708-26.833-13.417-32.563 65.125h-5.729v-60h-30z"/><path d="m120 512h30v-92.28l34.605 92.28h40.395v-150h-30v92.28l-34.605-92.28h-40.395z"/><path d="m300 512c24.813 0 45-20.187 45-45v-60c0-24.813-20.187-45-45-45s-45 20.187-45 45v60c0 24.813 20.187 45 45 45zm-15-105c0-8.271 6.729-15 15-15s15 6.729 15 15v60c0 8.271-6.729 15-15 15s-15-6.729-15-15z"/><path d="m407 0c-57.897 0-105 47.103-105 105v15h90v-15c0-8.271 6.729-15 15-15s15 6.729 15 15c0 6.078-3.642 11.521-9.308 13.878-30.794 12.891-50.692 42.77-50.692 76.122v45h90v-40.115c36.614-17.354 60-54.062 60-94.885 0-57.897-47.103-105-105-105zm28.841 174.25c-8.408 3.496-13.841 11.641-13.841 20.75v15h-30v-15c0-21.224 12.669-40.241 32.247-48.437 16.859-7.015 27.753-23.33 27.753-41.563 0-24.813-20.187-45-45-45-19.556 0-36.239 12.539-42.43 30h-31.063c6.969-34.191 37.274-60 73.493-60 41.355 0 75 33.645 75 75 0 30.373-18.125 57.558-46.159 69.25z"/><path d="m45 0h-45v150h45c24.813 0 45-20.187 45-45v-60c0-24.813-20.187-45-45-45zm15 105c0 8.271-6.729 15-15 15h-15v-90h15c8.271 0 15 6.729 15 15z"/><path d="m225 0h-45v150h45c24.813 0 45-20.187 45-45v-60c0-24.813-20.187-45-45-45zm15 105c0 8.271-6.729 15-15 15h-15v-90h15c8.271 0 15 6.729 15 15z"/><path d="m120 0h30v150h-30z"/><path d="m75 330v-71.459l35.125-70.249-26.833-13.417-23.292 46.584-23.292-46.584-26.833 13.417 35.125 70.249v71.459z"/><path d="m120 285c0 24.813 20.187 45 45 45s45-20.187 45-45v-60c0-24.813-20.187-45-45-45s-45 20.187-45 45zm30-60c0-8.271 6.729-15 15-15s15 6.729 15 15v60c0 8.271-6.729 15-15 15s-15-6.729-15-15z"/><path d="m300 285c0 8.271-6.729 15-15 15s-15-6.729-15-15v-120h-30v120c0 24.813 20.187 45 45 45s45-20.187 45-45v-120h-30z"/><path d="m407 255c-24.813 0-45 20.187-45 45s20.187 45 45 45 45-20.187 45-45-20.187-45-45-45zm0 60c-8.271 0-15-6.729-15-15s6.729-15 15-15 15 6.729 15 15-6.729 15-15 15z"/></g></svg>