<svg id="Capa_1" enable-background="new 0 0 512.028 512.028" height="512" viewBox="0 0 512.028 512.028" width="512" xmlns="http://www.w3.org/2000/svg"><g><path d="m490.044 21.984c-29.309-29.31-76.752-29.315-106.066 0l-169.705 169.706c-33.541 33.541-44.879 56.216-55.843 78.145-10.349 20.698-20.125 40.249-50.223 70.348l-95.051 95.051c-17.539 17.539-17.541 46.1 0 63.64 17.54 17.54 46.1 17.541 63.64 0l95.052-95.051c30.099-30.099 49.649-39.874 70.348-50.223 21.928-10.964 44.604-22.302 78.144-55.843l169.704-169.707c29.309-29.308 29.315-76.752 0-106.066zm-434.463 455.676c-5.816 5.816-15.398 5.815-21.213 0-5.816-5.816-5.814-15.398 0-21.213l42.018-42.019 21.214 21.213zm243.544-201.117c-30.099 30.098-49.649 39.874-70.348 50.223-21.929 10.964-44.604 22.302-78.145 55.843l-31.82 31.82-21.214-21.213 31.82-31.82c33.541-33.541 44.879-56.216 55.843-78.144 10.349-20.699 20.125-40.25 50.223-70.348l137.888-137.887 63.64 63.64zm169.706-169.706-10.607 10.607-63.64-63.64 10.607-10.607c17.585-17.585 46.051-17.589 63.64 0 17.585 17.586 17.588 46.051 0 63.64z"/><path d="m358.372 123.657h30v30h-30z" transform="matrix(.707 -.707 .707 .707 11.313 304.625)"/><path d="m239.125 197.902h120v30h-120z" transform="matrix(.707 -.707 .707 .707 -62.933 273.871)"/></g></svg>