<svg id="Capa_1" enable-background="new 0 0 512 512" height="512" viewBox="0 0 512 512" width="512" xmlns="http://www.w3.org/2000/svg"><g><path d="m461.952 400 15.972-130.234c2.54-20.711-3.934-41.551-17.761-57.177-13.826-15.627-33.723-24.589-54.589-24.589h-60.192l-6.396-39.29 14.15-8.921c20.706-13.054 33.067-35.46 33.067-59.937 0-39.068-31.784-70.852-70.852-70.852h-118.702c-39.068 0-70.853 31.784-70.853 70.853 0 24.477 12.361 46.883 33.066 59.936l14.15 8.922-6.394 39.289h-60.192c-20.866 0-40.763 8.962-54.589 24.589-13.827 15.626-20.3 36.466-17.761 57.177l15.972 130.234h-50.048v103h512v-103zm-56.378-182c12.278 0 23.986 5.273 32.122 14.469s11.945 21.458 10.451 33.645l-16.42 133.886h-51.833l-29.628-182zm-56.075 182h-186.998l29.628-182h127.742zm-174.636-285.59c-11.938-7.525-19.066-20.444-19.066-34.558 0-22.526 18.326-40.853 40.853-40.853h118.701c22.526 0 40.853 18.326 40.853 40.853 0 14.113-7.127 27.032-19.066 34.559l-30.952 19.514 8.801 54.075h-117.974l8.803-54.075zm-111.01 151.703c-1.495-12.187 2.314-24.449 10.451-33.645s19.844-14.468 32.122-14.468h55.308l-29.628 182h-51.833zm418.147 206.887h-452v-43h452z"/></g></svg>