<svg id="Capa_1" enable-background="new 0 0 512 512" height="512" viewBox="0 0 512 512" width="512" xmlns="http://www.w3.org/2000/svg"><g><path d="m194.575 398h62v-277h-32v-67h-30v-54h-30v54h-30v67h-32v277h62v84h-66v30h162v-30h-66zm-30-314h30v37h-30zm-32 67h94v58h-37v30h37v48h-37v30h37v51h-94z"/><path d="m399.425 238.185v-103.185c0-24.813-20.187-45-45-45s-45 20.187-45 45v103.185l-14 57v157.815c0 32.533 26.467 59 59 59s59-26.467 59-59v-157.815zm-45-118.185c8.271 0 15 6.729 15 15v90h-30v-90c0-8.271 6.729-15 15-15zm29 333c0 15.99-13.009 29-29 29s-29-13.01-29-29v-154.185l10.762-43.815h36.477l10.762 43.815v154.185z"/></g></svg>