<svg id="Capa_1" enable-background="new 0 0 512.073 512.073" height="512" viewBox="0 0 512.073 512.073" width="512" xmlns="http://www.w3.org/2000/svg"><g><path d="m504.764 460.369c-4.513-31.874-26.175-58.328-56.533-69.038l-105.952-37.379-12.093-40.346c13.375-11.664 23.982-26.423 30.7-43.148 68.68-6.524 122.587-64.522 122.587-134.881 0-28.989-9.026-56.642-26.103-79.967l-24.206 17.721c13.286 18.148 20.309 39.673 20.309 62.246 0 51.159-36.605 93.924-84.998 103.494.324-3.479.498-7.001.498-10.564v-20.684c31.302-9.114 54.25-38.042 54.25-72.246.083-41.959-35.366-76.866-77.842-75.184-9.037-9.798-22.936-18.784-36.238-22.911 12.024-4.776 25.125-7.405 38.83-7.405v-30c-33.937 0-64.999 12.543-88.797 33.234h-138.614v60.712c-.46 23.993 7.545 50.135 22.598 74.097v60.386c0 33.918 15.036 64.388 38.79 85.102l-12.096 40.363-105.582 37.507c-29.865 10.609-51.404 36.66-56.211 67.986l-8.061 52.531h512.073zm-172.39-367.269c3.81 7.073 6.054 14.906 6.577 23.074-6.861-3.28-14.536-5.122-22.634-5.122h-6.341c5.291-8.169 13.132-14.539 22.398-17.952zm-16.057 47.952c12.416 0 22.526 10.039 22.65 22.426v.19h.005c0 .013.001.027.001.04v16.218c-18.903-3.83-33.556-19.482-35.907-38.874zm76.906-5.475c0 17.374-9.848 32.483-24.25 40.063l.111-55.542c.025-9.1-1.366-17.981-4.03-26.414 16.506 6.756 28.169 22.984 28.169 41.893zm-116.374-24.525h-31.491c4.346-18.185 13.412-34.555 25.828-47.74 12.72-.513 27.328.295 39.019 7.222-15.459 9.011-27.424 23.363-33.356 40.518zm-126.287-47.74h82.841c-9.07 14.329-15.529 30.466-18.7 47.74h-18.886c-15.476 0-29.412 6.713-39.055 17.378-4.281-11.588-6.427-23.137-6.203-33.944zm22.599 165.195v-64.799c0-12.493 10.164-22.656 22.656-22.656h16.779c1.449 35.414 16.884 69.246 42.87 93.535l20.485-21.918c-20.249-18.925-31.964-44.185-33.341-71.617h30.333c2.6 35.951 30.553 64.968 66.029 69.218v18.237c0 4.112-.312 8.151-.893 12.104-6.041-.562-12.009-1.629-17.832-3.21l-7.862 28.951c5.138 1.395 10.364 2.467 15.642 3.246-14.306 24.955-41.193 41.816-71.961 41.816-45.714-.001-82.905-37.192-82.905-82.907zm82.906 112.906c17.127 0 33.372-3.84 47.93-10.694l8.426 28.109-56.352 34.686-56.353-34.687 8.424-28.108c14.555 6.855 30.799 10.694 47.925 10.694zm165.628 140.582v-34.431h-30v34.431h-271.25v-34.431h-30v34.431h-55.49l2.759-17.98c3.13-20.397 17.154-37.359 36.6-44.268l105.978-37.646 75.777 46.643 75.794-46.653 106.387 37.532c19.767 6.974 33.871 24.198 36.809 44.952l2.466 17.421h-55.83z"/><path d="m427.849 26.114c-11.398-8.33-23.948-14.793-37.303-19.209l-9.42 28.482c10.385 3.435 20.149 8.464 29.022 14.947z"/><path d="m236.919 271.563 19.154 10.001 19.151-10 12.208 6.374 13.886-26.592-26.093-13.626-19.153 10-19.153-9.999-26.096 13.624 13.884 26.594z"/><path d="m30.195 165.702h30v-15.125h15.125v-30h-15.125v-15.125h-30v15.125h-15.125v30h15.125z"/><path d="m90.445 210.952h30v30h-30z"/><path d="m60.32 30.202h30v30h-30z"/></g></svg>