<?xml version="1.0" encoding="iso-8859-1"?>
<!-- Generator: Adobe Illustrator 19.0.0, SVG Export Plug-In . SVG Version: 6.00 Build 0)  -->
<svg xmlns="http://www.w3.org/2000/svg" xmlns:xlink="http://www.w3.org/1999/xlink" version="1.1" id="Layer_1" x="0px" y="0px" viewBox="0 0 512.002 512.002" style="enable-background:new 0 0 512.002 512.002;" xml:space="preserve">
<g>
	<g>
		<path d="M437.001,0h-257v70h-80v31h-100v30h100v28h80v71h172v47h30v28c0,30.439,21.036,56.047,49.331,63.079    c-6.567,63.908-60.717,113.923-126.331,113.923c-70.028,0-127-56.972-127-127.003c0-49.074-39.925-88.999-88.999-88.999    S0.003,305.925,0.003,355l30-0.001C30.003,322.467,56.47,296,89.002,296s58.999,26.467,58.999,59.002c0,86.57,70.43,157,157,157    c82.068,0,149.62-63.298,156.425-143.635c28.919-6.581,50.575-32.484,50.575-63.366v-75v-30V75    C512.001,33.645,478.356,0,437.001,0z M180.001,129h-50v-29h50V129z M482.001,305c0,19.299-15.701,35-35,35s-35-15.701-35-35v-75    h70V305z M482.001,200h-272v-41V70V30h227c24.813,0,45,20.187,45,45V200z"/>
	</g>
</g>
<g>
	<g>
		<rect x="286" y="130" width="120" height="30"/>
	</g>
</g>
<g>
	<g>
		<rect x="286" y="70" width="120" height="30"/>
	</g>
</g>
<g>
</g>
<g>
</g>
<g>
</g>
<g>
</g>
<g>
</g>
<g>
</g>
<g>
</g>
<g>
</g>
<g>
</g>
<g>
</g>
<g>
</g>
<g>
</g>
<g>
</g>
<g>
</g>
<g>
</g>
</svg>
