<svg id="Capa_1" enable-background="new 0 0 512 512" height="512" viewBox="0 0 512 512" width="512" xmlns="http://www.w3.org/2000/svg"><g><path d="m183.25 150h92v30h-92z"/><path d="m123.25 150h30v30h-30z"/><path d="m123.25 210h30v30h-30z"/><path d="m123.25 270h30v30h-30z"/><path d="m123.25 330h30v30h-30z"/><path d="m369.644 295.606-31.821-31.819-21.213 21.213 53.034 53.032 74.246-74.245-21.213-21.213z"/><path d="m508.75 285c0-65.781-49.687-120.166-113.5-127.62v-97.38h-62.58c-6.192-17.459-22.865-30-42.42-30h-23.909c-17.068-19.156-41.117-30-67.091-30-25.975 0-50.024 10.843-67.091 30h-23.909c-19.555 0-36.228 12.541-42.42 30h-62.58v452h392v-99.38c63.813-7.454 113.5-61.839 113.5-127.62zm-143.5-127.62c-10.429 1.218-20.481 3.688-30 7.258v-74.638h30zm-89.277 52.62h-92.723v30h76.639c-3.571 9.519-6.04 19.571-7.258 30h-69.38v30h69.38c1.218 10.429 3.688 20.481 7.258 30h-76.639v30h92.723c8.121 11.26 18.018 21.156 29.277 29.277v32.723h-212v-302h212v60.723c-11.26 8.121-21.156 18.017-29.277 29.277zm-167.723-150h38.492l4.5-5.991c11.462-15.258 28.96-24.009 48.008-24.009 19.047 0 36.545 8.751 48.008 24.01l4.5 5.99h38.492c8.271 0 15 6.729 15 15v15h-212v-15c0-8.271 6.729-15 15-15zm-75 422v-392h30v362h272v-46.639c9.519 3.571 19.571 6.04 30 7.258v69.381zm347-98.5c-54.313 0-98.5-44.187-98.5-98.5s44.187-98.5 98.5-98.5 98.5 44.187 98.5 98.5-44.187 98.5-98.5 98.5z"/></g></svg>