<svg id="Capa_1" enable-background="new 0 0 509.944 509.944" height="512" viewBox="0 0 509.944 509.944" width="512" xmlns="http://www.w3.org/2000/svg"><g id="XMLID_1287_"><path id="XMLID_1292_" d="m359.726 298.215 21.213 21.213 21.213-21.213-21.213-21.213 21.213-21.214 21.214 21.214 21.213-21.213-21.213-21.214 10.606-10.606c4.263-4.263 8.111-8.83 11.531-13.648l32.774 17.795 14.314-26.365-33.432-18.151c3.657-10.766 5.565-22.174 5.565-33.876 0-1.032-.019-2.062-.049-3.09l45.267-13.196-8.396-28.801-42.033 12.254c-3.53-10.765-8.809-20.898-15.686-30.056l21.964-21.964-21.213-21.213-21.964 21.964c-9.7-7.286-20.496-12.775-31.977-16.294l6.611-44.416-29.674-4.416-6.586 44.243c-.421-.005-.842-.016-1.264-.016-11.52 0-22.755 1.847-33.372 5.392l-17.347-31.95-26.365 14.315 16.92 31.16c-4.977 3.495-9.689 7.446-14.08 11.837l-10.606 10.607-21.214-21.214-21.213 21.213 21.214 21.213-21.214 21.214-21.213-21.213-21.213 21.213 21.213 21.213-21.213 21.214-21.212-21.214-21.213 21.213 21.213 21.214-10.609 10.606c-4.86 4.86-9.137 10.087-12.843 15.585l-31.484-17.094-14.314 26.365 32.775 17.795c-3.496 11.145-5.099 22.758-4.799 34.334-7.016 1.253-15.203 4.243-23.18 12.22-11.989 11.989-12.721 24.458-13.206 32.709-.387 6.595-.547 9.324-4.464 13.24-3.922 3.923-6.656 4.084-13.26 4.473-8.252.486-20.723 1.221-32.71 13.208-11.989 11.989-12.72 24.458-13.203 32.71-.386 6.598-.546 9.329-4.467 13.25-4.04 4.039-5.283 4.126-10.514 4.492-3.36.234-7.542.526-12.531 1.908l8.004 28.912c2.084-.577 4.085-.717 6.619-.893 7.455-.522 17.665-1.234 29.636-13.206 11.989-11.989 12.719-24.458 13.202-32.709.387-6.599.546-9.33 4.468-13.251 3.922-3.923 6.656-4.084 13.26-4.473 8.252-.486 20.723-1.221 32.709-13.208 11.982-11.982 12.714-24.446 13.199-32.694.388-6.6.548-9.332 4.471-13.255 2.387-2.387 4.337-3.376 6.982-3.876 4.935 15.352 13.485 29.785 25.65 41.95 11.958 11.958 26.294 20.67 41.939 25.708-.503 2.617-1.496 4.556-3.864 6.925-3.923 3.923-6.655 4.083-13.255 4.471-8.249.484-20.713 1.217-32.695 13.199-11.987 11.987-12.721 24.458-13.207 32.71-.389 6.604-.55 9.337-4.472 13.26-3.921 3.921-6.652 4.081-13.251 4.467-8.251.483-20.721 1.214-32.71 13.203-11.972 11.971-12.685 22.181-13.206 29.636-.177 2.533-.317 4.534-.894 6.619l28.913 8.002c1.381-4.988 1.673-9.17 1.908-12.529.366-5.232.453-6.476 4.492-10.516 3.921-3.921 6.652-4.081 13.251-4.467 8.251-.483 20.721-1.214 32.71-13.203 11.987-11.987 12.721-24.458 13.207-32.71.389-6.603.55-9.337 4.473-13.26 3.916-3.916 6.645-4.076 13.24-4.463 8.251-.485 20.72-1.218 32.71-13.207 7.957-7.957 10.952-16.124 12.21-23.128.914.023 1.83.036 2.748.036 11.074 0 21.884-1.71 32.136-4.991l18.561 34.188 26.365-14.314-17.955-33.071c5.368-3.673 10.439-7.864 15.139-12.564l10.607-10.607 21.214 21.213 21.213-21.213-21.214-21.213zm-74.246 31.82c-14.166 14.166-33 21.967-53.033 21.967s-38.867-7.801-53.033-21.967c-29.242-29.242-29.242-76.824 0-106.066l127.279-127.279c14.621-14.621 33.827-21.932 53.033-21.932s38.412 7.311 53.033 21.932c29.242 29.243 29.242 76.823 0 106.066z"/><path id="XMLID_1295_" d="m310.709 118.813h45v30h-45z" transform="matrix(.707 -.707 .707 .707 2.975 274.808)"/><path id="XMLID_1296_" d="m321.316 193.06h45v30h-45z" transform="matrix(.707 -.707 .707 .707 -46.419 304.055)"/><path id="XMLID_1297_" d="m225.857 203.666h44.999v30h-44.999z" transform="matrix(.707 -.707 .707 .707 -81.878 239.66)"/><path id="XMLID_1310_" d="m236.463 277.912h45v30h-45z" transform="matrix(.707 -.707 .707 .707 -131.271 268.907)"/><path id="XMLID_1313_" d="m484.395 377.775-23.037 23.037c-12.227-5.824-26.552-5.824-38.778 0l-23.037-23.037-21.213 21.213 23.037 23.038c-5.824 12.227-5.824 26.551 0 38.777l-23.037 23.038 21.213 21.213 23.037-23.038c6.113 2.912 12.75 4.377 19.39 4.377s13.275-1.465 19.389-4.377l23.037 23.038 21.213-21.213-23.037-23.038c5.824-12.227 5.824-26.551 0-38.777l23.037-23.038zm-53.033 74.246c-5.849-5.849-5.849-15.364 0-21.213 2.925-2.924 6.766-4.387 10.606-4.387 3.842 0 7.683 1.463 10.607 4.387 2.833 2.833 4.394 6.6 4.394 10.606 0 4.007-1.561 7.773-4.394 10.606-5.848 5.848-15.363 5.849-21.213.001z"/><path id="XMLID_1316_" d="m24.542 130.054 23.018-23.019c5.983 2.864 12.579 4.379 19.408 4.379s13.425-1.516 19.408-4.38l23.019 23.02 21.213-21.213-23.038-23.038c5.824-12.227 5.824-26.551 0-38.777l23.038-23.038-21.212-21.213-23.02 23.019c-5.983-2.864-12.578-4.38-19.408-4.38s-13.425 1.515-19.408 4.379l-23.018-23.018-21.213 21.213 23.038 23.038c-5.824 12.227-5.824 26.551 0 38.777l-23.038 23.038zm53.033-74.246c2.833 2.833 4.393 6.6 4.393 10.606 0 4.007-1.56 7.773-4.393 10.607h-.001c-2.833 2.833-6.6 4.393-10.606 4.393-4.007 0-7.773-1.561-10.607-4.393-2.833-2.833-4.394-6.6-4.394-10.607s1.561-7.773 4.394-10.606 6.6-4.394 10.607-4.394 7.774 1.561 10.607 4.394z"/></g></svg>