<svg id="Layer_1" enable-background="new 0 0 510 510" height="512" viewBox="0 0 510 510" width="512" xmlns="http://www.w3.org/2000/svg"><g><path d="m405 30v-30h-30v30h-60v-30h-30v30h-60v-30h-30v30h-60v-30h-30v30h-105v480h510v-480zm-300 30v30h30v-30h60v30h30v-30h60v30h30v-30h60v30h30v-30h75v60h-450v-60zm-75 420v-330h450v330z"/><path d="m75 435h360v-240h-360zm180-70.619 40.647-33.257 84.43 73.876h-250.155l84.43-73.877zm64.191-52.521 85.809-70.206v145.289zm-64.191 13.759-122.979-100.619h245.957zm-64.191-13.759-85.809 75.083v-145.29z"/></g></svg>