<svg id="Capa_1" enable-background="new 0 0 511.924 511.924" height="512" viewBox="0 0 511.924 511.924" width="512" xmlns="http://www.w3.org/2000/svg"><g><path d="m316.924 0c-107.523 0-195 87.477-195 195 0 37.494 10.647 72.544 29.062 102.304l-150.986 150.985 63.635 63.635 150.985-150.986c29.76 18.415 64.81 29.062 102.304 29.062 107.523 0 195-87.477 195-195s-87.476-195-195-195zm-253.289 469.498-21.208-21.208 126.483-126.484c6.519 7.598 13.611 14.69 21.209 21.209zm253.289-109.498c-90.981 0-165-74.019-165-165s74.019-165 165-165 165 74.019 165 165-74.018 165-165 165z"/><path d="m316.924 90c-57.897 0-105 47.103-105 105s47.103 105 105 105 105-47.103 105-105-47.103-105-105-105zm0 180c-41.355 0-75-33.645-75-75s33.645-75 75-75 75 33.645 75 75-33.645 75-75 75z"/><path d="m316.924 210c-8.271 0-15-6.729-15-15h-30c0 24.813 20.187 45 45 45s45-20.187 45-45h-30c0 8.271-6.729 15-15 15z"/></g></svg>