<svg id="Capa_1" enable-background="new 0 0 510 510" height="512" viewBox="0 0 510 510" width="512" xmlns="http://www.w3.org/2000/svg"><g><path d="m270.5 217.5h-30v30h-30v30h30v30h30v-30h30v-30h-30z"/><path d="m510 286.815-127.745-144.315h-82.255v-15c0-24.813-20.186-45-45-45-24.813 0-45 20.187-45 45v15h-210v300h76.399c6.677 25.85 30.195 45 58.101 45s51.424-19.15 58.101-45h123.797c6.678 25.85 30.195 45 58.102 45 27.906 0 51.424-19.15 58.102-45h77.398zm-48.311-9.315h-101.189v-45h61.356zm-221.689-150c0-8.271 6.729-15 15-15s15 6.729 15 15v15h-30zm-105.5 330c-16.542 0-30-13.458-30-30s13.458-30 30-30 30 13.458 30 30-13.458 30-30 30zm240 0c-16.542 0-30-13.458-30-30s13.458-30 30-30 30 13.458 30 30-13.458 30-30 30zm58.102-45c-6.678-25.85-30.195-45-58.102-45-27.906 0-51.424 19.15-58.102 45h-123.797c-6.677-25.85-30.195-45-58.101-45s-51.424 19.15-58.101 45h-46.399v-45h30.5v-30h-30.5v-165h338.745l26.556 30h-64.801v105h149.5v30h-29.5v30h29.5v45z"/><path d="m60.5 307.5h120v-105h-120zm30-75h60v45h-60z"/><path d="m240 22.5h30v30h-30z"/><path d="m176.861 48.861h30v30h-30z" transform="matrix(.707 -.707 .707 .707 11.038 154.37)"/><path d="m304.14 48.861h30v30h-30z" transform="matrix(.707 -.707 .707 .707 48.318 244.37)"/></g></svg>