<svg id="Capa_1" enable-background="new 0 0 512 512" height="512" viewBox="0 0 512 512" width="512" xmlns="http://www.w3.org/2000/svg"><path d="m481 135c0-36.663-26.445-67.266-61.261-73.739-6.473-34.816-37.076-61.261-73.739-61.261-16.318 0-32.072 5.383-44.967 15.078-12.55-9.456-28.145-15.078-45.033-15.078s-32.483 5.622-45.033 15.078c-12.895-9.695-28.649-15.078-44.967-15.078-36.663 0-67.266 26.445-73.739 61.261-34.816 6.473-61.261 37.076-61.261 73.739 0 16.421 5.411 32.182 15.182 45-9.771 12.819-15.182 28.58-15.182 45 0 19.967 7.82 38.783 22.019 52.981 26.397 26.398 58.984 62.415 76.815 106.994l21.166 52.914v74.111h210v-74.111l21.166-52.914c17.832-44.579 50.418-80.596 76.815-106.993 14.199-14.199 22.019-33.015 22.019-52.982 0-16.42-5.411-32.181-15.182-45 9.771-12.818 15.182-28.579 15.182-45zm-225-105c24.813 0 45 20.187 45 45v15h15c24.813 0 45 20.187 45 45 0 12.938-5.636 25.189-15.462 33.611l-13.287 11.389 13.287 11.389c9.826 8.423 15.462 20.674 15.462 33.611 0 9.578-3.011 18.74-8.707 26.498-18.912 25.754-43.042 61.442-60.075 103.634l-11.514-103.623 45.902-45.902-21.213-21.213-28.932 28.932-4.757-42.816 39.902-39.902-21.213-21.213-34.393 34.392-34.394-34.394-21.213 21.213 39.902 39.902-4.757 42.816-28.932-28.932-21.213 21.213 45.902 45.902-11.514 103.623c-17.033-42.191-41.163-77.879-60.075-103.634-5.695-7.756-8.706-16.918-8.706-26.496 0-12.938 5.636-25.188 15.462-33.611l13.287-11.389-13.287-11.389c-9.826-8.422-15.462-20.673-15.462-33.611 0-24.813 20.187-45 45-45h15v-15c0-24.813 20.187-45 45-45zm-75 452v-49.889l-23.311-58.278c-19.859-49.646-55.032-88.64-83.457-117.065-8.533-8.533-13.232-19.814-13.232-31.768 0-12.938 5.636-25.188 15.462-33.611l13.287-11.389-13.287-11.389c-9.826-8.422-15.462-20.673-15.462-33.611 0-24.813 20.187-45 45-45h15v-15c0-24.813 20.187-45 45-45 8.956 0 17.638 2.72 24.988 7.661-4.154 7.204-7.156 15.152-8.726 23.601-34.817 6.472-61.262 37.075-61.262 73.738 0 16.421 5.411 32.182 15.182 45-9.771 12.819-15.182 28.58-15.182 45 0 16.009 5.023 31.312 14.526 44.253 39.945 54.399 61.873 99.225 71.096 145.342l4.378 21.89v45.515zm60 0v-46.169l15-135 15 135v46.169zm194.538-290.611c9.826 8.423 15.462 20.674 15.462 33.611 0 11.954-4.699 23.235-13.232 31.768-28.424 28.425-63.598 67.419-83.457 117.065l-23.311 58.278v49.889h-30v-45.515l4.377-21.889c9.224-46.118 31.151-90.944 71.097-145.343 9.503-12.941 14.526-28.244 14.526-44.253 0-16.42-5.411-32.181-15.182-45 9.771-12.818 15.182-28.579 15.182-45 0-36.663-26.445-67.266-61.261-73.739-1.571-8.448-4.572-16.396-8.726-23.601 7.349-4.94 16.031-7.66 24.987-7.66 24.813 0 45 20.187 45 45v15h15c24.813 0 45 20.187 45 45 0 12.938-5.636 25.189-15.462 33.611l-13.287 11.389z"/></svg>