<svg id="Capa_1" enable-background="new 0 0 512 512" height="512" viewBox="0 0 512 512" width="512" xmlns="http://www.w3.org/2000/svg"><g><path d="m476.606 175.606-21.213-21.213-85.606 85.607h-23.787v-135c0-11.517-4.354-22.032-11.495-30 7.141-7.968 11.495-18.483 11.495-30 0-24.813-20.187-45-45-45h-60c-41.355 0-75 33.645-75 75v165h-23.787l-85.606-85.606-21.213 21.213 85.606 85.606v250.787h270v-250.787zm-235.606-145.606h60c8.271 0 15 6.729 15 15s-6.729 15-15 15h-75v30h75c8.271 0 15 6.729 15 15s-6.729 15-15 15h-60c-24.813 0-45-20.187-45-45s20.187-45 45-45zm-45 104.959c12.544 9.438 28.129 15.041 45 15.041h60c5.258 0 10.305-.915 15-2.58v92.58h-120zm165 347.041h-210v-212h210z"/><path d="m226 180h60v30h-60z"/></g></svg>