<svg id="Capa_1" enable-background="new 0 0 511 511" height="512" viewBox="0 0 511 511" width="512" xmlns="http://www.w3.org/2000/svg"><g id="XMLID_421_"><g id="XMLID_510_"><path id="XMLID_1391_" d="m145.127 511h-30v-383.407c0-20.568-16.733-37.302-37.301-37.302-24.574 0-44.566-19.992-44.566-44.565 0-24.574 19.992-44.566 44.566-44.566h152.929c24.86 0 45.085 20.225 45.085 45.085s-20.225 45.085-45.085 45.085h-69.506v-30h69.506c8.318 0 15.085-6.768 15.085-15.085s-6.767-15.085-15.085-15.085h-152.929c-8.032 0-14.566 6.534-14.566 14.566 0 8.031 6.534 14.565 14.566 14.565 37.11 0 67.301 30.191 67.301 67.302z"/></g><g id="XMLID_512_"><path id="XMLID_1390_" d="m432.656 509.841h-152.93c-24.574 0-44.566-19.992-44.566-44.566 0-24.573 19.992-44.565 44.566-44.565 20.568 0 37.302-16.733 37.302-37.302v-383.408h30v383.407c0 37.11-30.191 67.302-67.301 67.302-8.032 0-14.566 6.534-14.566 14.565 0 8.032 6.534 14.566 14.566 14.566h152.93c8.318 0 15.084-6.768 15.084-15.085s-6.767-15.085-15.084-15.085h-69.507v-30h69.506c24.86 0 45.084 20.225 45.084 45.085s-20.224 45.086-45.084 45.086z"/></g></g></svg>