<svg id="Capa_1" enable-background="new 0 0 511.978 511.978" height="512" viewBox="0 0 511.978 511.978" width="512" xmlns="http://www.w3.org/2000/svg"><g><path d="m420.989 271.978c0-23.847 0-154.912 0-178.95 0-33.204-16.494-64.024-44.122-82.442l-15.878-10.586-15.878 10.585c-27.628 18.418-44.122 49.238-44.122 82.442v178.95h-30v240h180v-240h-30zm-90-178.95c0-22.843 11.198-44.068 30-56.965 18.804 12.896 30 34.121 30 56.965v88.95h-60zm0 118.95h60v60h-60zm90 270h-120v-180h120z"/><path d="m60.989 511.978h180c0-4.433 0-294.712 0-300h-180zm150-30h-120v-180h120zm0-240v30h-120v-30z"/></g></svg>