<svg id="Capa_1" enable-background="new 0 0 512 512" height="512" viewBox="0 0 512 512" width="512" xmlns="http://www.w3.org/2000/svg"><path d="m376.438 150.5h55.721l25.734-70.079-28.161-10.342-18.516 50.421h-34.779v-81.588l-38.911-38.912h-163.052l-38.912 38.912v81.588h-34.779l-18.515-50.421-28.161 10.342 25.734 70.079h55.721v60.375h-15.125v30h15.125v.125 210.875h-15.125v30h15.125v30.125h90.25v-45.125c0-24.882-20.243-45.125-45.125-45.125-5.304 0-10.394.927-15.125 2.616v-62.991h23.125c24.882 0 45.125-20.243 45.125-45.125v-30.125c0-24.882-20.243-45.125-45.125-45.125h-23.125v-60.375h180.875v60.375h-23.125c-24.882 0-45.125 20.243-45.125 45.125v30.125c0 24.882 20.243 45.125 45.125 45.125h23.125v62.991c-4.731-1.688-9.821-2.616-15.125-2.616-24.882 0-45.125 20.243-45.125 45.125v45.125h90.25v-30.125h15.125v-30h-15.125v-210.875-.125h15.125v-30h-15.125v-60.375zm-195.75 301.25c8.34 0 15.125 6.785 15.125 15.125v15.125h-30.25v-15.125c-.001-8.34 6.785-15.125 15.125-15.125zm8-180.75c8.34 0 15.125 6.785 15.125 15.125v30.125c0 8.34-6.785 15.125-15.125 15.125h-23.125v-15.188h23.125v-30h-23.125v-15.187zm157.75 211h-30.25v-15.125c0-8.34 6.785-15.125 15.125-15.125s15.125 6.785 15.125 15.125zm-23.126-150.625c-8.34 0-15.125-6.785-15.125-15.125v-30.125c0-8.34 6.785-15.125 15.125-15.125h23.125v15.188h-23.125v30h23.125v15.188h-23.125zm-157.75-280.037 21.339-21.338h138.198l21.338 21.338v8.912h-180.875zm0 99.287v-60.375h180.875v60.375z"/></svg>