<svg id="Capa_1" enable-background="new 0 0 512 512" height="512" viewBox="0 0 512 512" width="512" xmlns="http://www.w3.org/2000/svg"><g><path d="m296.125 240.493-21.213-21.213c-10.429 10.427-27.396 10.427-37.824 0l-21.213 21.213c11.063 11.063 25.592 16.594 40.125 16.594 14.529 0 29.063-5.532 40.125-16.594z"/><path d="m439.675 364.34-138.675-25.393v-17.197c42.906-17.735 73.174-60.035 73.174-109.271v-10.479h15.348c24.813 0 45-20.187 45-45 0-5.257-.906-10.306-2.571-15h50.049v-30h-107.826v-112h-236.348v112h-107.826v30h50.049c-1.664 4.694-2.571 9.743-2.571 15 0 24.813 20.187 45 45 45h15.348v10.479c0 49.237 30.268 91.537 73.174 109.271v17.197l-138.676 25.393c-41.907 7.675-72.324 44.167-72.324 86.77v60.89h512v-60.89c0-42.604-30.417-79.095-72.325-86.77zm-319.175 21.678 63.507-11.629v5.314c0 15.658 5.025 30.165 13.547 41.992h-77.054zm0 65.677h271v30.305h-271zm271-30h-77.054c8.522-11.827 13.547-26.334 13.547-41.992v-5.314l63.507 11.629zm-1.979-279.695c8.271 0 15 6.729 15 15s-6.729 15-15 15h-15.348v-30zm-45.347-112v82h-176.348v-82zm-221.696 142c-8.271 0-15-6.729-15-15s6.729-15 15-15h15.348v30zm45.348 40.479v-70.479h176.348v70.479c0 48.619-39.555 88.174-88.174 88.174-48.62-.001-88.174-39.555-88.174-88.174zm88.174 118.173c5.08 0 10.087-.322 15-.948v34.248l26.993 4.943v10.807c0 23.154-18.838 41.992-41.993 41.992s-41.993-18.838-41.993-41.992v-10.807l26.993-4.942v-34.248c4.913.625 9.92.947 15 .947zm-226 120.458c0-28.115 20.072-52.196 47.728-57.261l12.772-2.339v90.49h-60.5zm452 30.89h-60.5v-90.489l12.772 2.339c27.655 5.064 47.728 29.145 47.728 57.26z"/></g></svg>