<?xml version="1.0" encoding="iso-8859-1"?>
<!-- Generator: Adobe Illustrator 19.0.0, SVG Export Plug-In . SVG Version: 6.00 Build 0)  -->
<svg xmlns="http://www.w3.org/2000/svg" xmlns:xlink="http://www.w3.org/1999/xlink" version="1.1" id="Layer_1" x="0px" y="0px" viewBox="0 0 512 512" style="enable-background:new 0 0 512 512;" xml:space="preserve">
<g>
	<g>
		<path d="M455.32,325.42l-184.263-21.702l-59.81-59.81c-8.772-8.773-20.436-13.605-32.843-13.604    c-12.406,0-24.07,4.831-32.842,13.605c-18.11,18.108-18.11,47.574-0.001,65.684l86.283,86.283h219.341    c19.492,0,35.349-15.858,35.349-35.35C486.534,342.609,473.115,327.517,455.32,325.42z M451.185,364.913H244.67L167.457,287.7    c-6.037-6.037-6.037-15.859-0.001-21.896c6.04-6.037,15.86-6.036,21.896,0l67.41,67.41l194.935,22.959    c2.208,0.26,3.873,2.132,3.873,4.355C455.57,362.946,453.603,364.913,451.185,364.913z"/>
	</g>
</g>
<g>
	<g>
		<path d="M97.778,137.908c-30.943,0-56.117,25.174-56.117,56.118s25.174,56.118,56.117,56.118s56.118-25.174,56.118-56.118    S128.721,137.908,97.778,137.908z M97.778,219.179c-13.869,0-25.152-11.283-25.152-25.153s11.283-25.153,25.152-25.153    c13.87,0,25.153,11.283,25.153,25.153S111.647,219.179,97.778,219.179z"/>
	</g>
</g>
<g>
	<g>
		<polygon points="510.221,434.604 210.405,434.604 23.674,247.873 1.779,269.768 184.13,452.119 155.955,494.995 181.832,512     212.344,465.568 445.15,465.568 475.662,512 501.539,494.995 482.201,465.568 510.221,465.568   "/>
	</g>
</g>
<g>
	<g>
		<path d="M475.414,153.088l9.569-29.448l-37.859-12.301c0.154-1.861,0.253-3.737,0.253-5.638c0-1.9-0.099-3.778-0.253-5.639    l37.858-12.3l-9.568-29.449l-37.857,12.3c-1.96-3.221-4.196-6.255-6.648-9.095l23.416-32.231l-25.05-18.201l-23.389,32.192    c-3.44-1.45-7.032-2.607-10.732-3.477V0h-30.964v39.802c-3.701,0.869-7.292,2.026-10.732,3.477l-23.389-32.192l-25.05,18.201    l23.416,32.231c-2.452,2.84-4.688,5.874-6.648,9.095l-37.857-12.3l-9.568,29.449l37.858,12.3    c-0.154,1.861-0.253,3.738-0.253,5.639c0,1.9,0.099,3.777,0.253,5.638l-37.859,12.301l9.569,29.447l37.856-12.3    c1.96,3.221,4.196,6.255,6.649,9.096l-23.416,32.231l25.05,18.201l23.389-32.192c3.44,1.45,7.032,2.607,10.732,3.477v39.802    h30.964v-39.802c3.701-0.869,7.292-2.026,10.732-3.477l23.389,32.192l25.05-18.201l-23.416-32.231    c2.453-2.84,4.688-5.874,6.649-9.096L475.414,153.088z M379.67,142.443c-20.26,0-36.742-16.482-36.742-36.742    s16.483-36.742,36.742-36.742c20.26,0,36.742,16.482,36.742,36.742S399.93,142.443,379.67,142.443z"/>
	</g>
</g>
<g>
</g>
<g>
</g>
<g>
</g>
<g>
</g>
<g>
</g>
<g>
</g>
<g>
</g>
<g>
</g>
<g>
</g>
<g>
</g>
<g>
</g>
<g>
</g>
<g>
</g>
<g>
</g>
<g>
</g>
</svg>
