<?xml version="1.0" encoding="iso-8859-1"?>
<!-- Generator: Adobe Illustrator 19.0.0, SVG Export Plug-In . SVG Version: 6.00 Build 0)  -->
<svg xmlns="http://www.w3.org/2000/svg" xmlns:xlink="http://www.w3.org/1999/xlink" version="1.1" id="Layer_1" x="0px" y="0px" viewBox="0 0 512 512" style="enable-background:new 0 0 512 512;" xml:space="preserve">
<g>
	<g>
		<path d="M412.752,51.363C398.811,26.437,395.991,0.257,395.963,0h-29.904c0,16.681-3.142,32.478-8.285,43.906    c-57.102-13.594-103.48,9.277-122.538,21.112c-20.353-12.638-71.839-37.854-134.283-17.84    C66.557,58.212,39.584,87.131,26.952,126.52c-16.569,51.663-5.875,110.174,28.604,156.512    c14.776,19.868,24.767,41.761,29.693,65.076c2.18,10.299,4.093,21.755,5.685,34.04c10.691,82.939,31.95,126.577,63.186,129.701    c0.998,0.1,1.985,0.15,2.964,0.15c16.966-0.001,31.062-14.997,41.923-44.635c7.915-21.595,14.154-50.518,17.568-81.437    c2.376-21.499,8.183-33.489,12.633-39.759c1.917-2.7,4.595-3.103,6.021-3.104c1.429,0,4.113,0.403,6.031,3.101    c4.452,6.272,10.258,18.261,12.634,39.757c3.408,30.914,9.646,59.838,17.565,81.442C282.323,497.005,296.416,512,313.385,512    c0.978,0,1.967-0.05,2.964-0.15c31.236-3.125,52.495-46.763,63.186-129.701c1.563-12.128,3.473-23.581,5.674-34.031    c4.932-23.307,14.939-45.222,29.747-65.138c31.389-42.234,43.054-94.934,32.174-143.102c13.104-7.466,28.318-11.236,45.57-11.236    V98.659h0.001C457.203,98.659,430.304,82.746,412.752,51.363z M390.895,265.092c-17.404,23.407-29.186,49.253-35.02,76.831    c-2.368,11.236-4.412,23.482-6.075,36.394c-10.379,80.518-29.319,101.955-35.917,103.608c-1.463-0.935-8.273-6.392-16.197-30.416    c-6.197-18.784-11.164-43.243-13.99-68.876c-2.475-22.387-8.527-40.495-17.993-53.831c-6.999-9.843-18.388-15.719-30.471-15.719    c-0.003,0-0.007,0-0.01,0c-12.081,0.003-23.467,5.882-30.459,15.728c-9.461,13.328-15.513,31.437-17.987,53.824    c-2.83,25.634-7.8,50.093-13.994,68.872c-7.934,24.057-14.75,29.498-16.2,30.421c-6.954-1.621-25.466-22.585-35.911-103.621    c-1.695-13.083-3.743-25.332-6.087-36.403c-5.827-27.573-17.592-53.401-34.97-76.767c-28.717-38.595-37.73-86.992-24.111-129.461    c9.64-30.058,29.544-51.908,54.607-59.948c26.587-8.521,54.003-7.98,81.492,1.605c21.048,7.341,34.264,17.508,34.355,17.579    l9.24,7.346l9.281-7.315c0.131-0.102,13.347-10.27,34.394-17.61c19.946-6.956,39.852-9.124,59.431-6.548    c-27.857,25.495-67.007,27.766-69.525,27.885l-0.04,29.954c3.974,0.187,97.324,7.187,97.324,98.238l29.904-0.038    c0.027-0.257,2.848-25.964,16.789-50.889c2.434-4.353,5.055-8.397,7.847-12.153C423.712,198.547,413.316,234.924,390.895,265.092z     M386.058,162.251c-0.892,1.623-1.746,3.245-2.563,4.862c-12.741-25.809-33.135-41.574-51.345-51.059    c-1.615-0.841-3.232-1.643-4.842-2.405c1.609-0.762,3.227-1.564,4.842-2.405c18.21-9.484,38.604-25.25,51.345-51.058    c0.817,1.618,1.671,3.24,2.563,4.863c11.878,21.596,27.529,37.908,46.391,48.601C413.586,124.343,397.935,140.655,386.058,162.251    z"/>
	</g>
</g>
<g>
</g>
<g>
</g>
<g>
</g>
<g>
</g>
<g>
</g>
<g>
</g>
<g>
</g>
<g>
</g>
<g>
</g>
<g>
</g>
<g>
</g>
<g>
</g>
<g>
</g>
<g>
</g>
<g>
</g>
</svg>
