<svg id="Layer_1" enable-background="new 0 0 509.838 509.838" height="512" viewBox="0 0 509.838 509.838" width="512" xmlns="http://www.w3.org/2000/svg"><g id="XMLID_822_"><path id="XMLID_1020_" d="m489.657 296.54-53.505-90.144c-2.454-179.125-230.089-275.6-357.905-148.295-91.893 85.208-79.345 249.132 11.441 330.216v121.521h255v-75h58.681c17.27 0 31.319-14.045 31.319-31.31v-58.69h28.657c11.567 0 22.146-6.335 27.607-16.533 5.39-10.066 4.885-22.195-1.295-31.765zm-25.152 17.604c-.372.694-.884.694-1.159.694h-58.657v88.69c0 .722-.592 1.31-1.319 1.31h-88.681v75h-195v-105.792l-5.671-4.504c-126.056-108.395-73.411-339.943 110.427-339.68 100.217 1.626 181.749 82.697 181.749 180.722v4.116c.581.979-6.84-11.518 58.247 98.093.152.229.437.654.064 1.351z"/><path id="XMLID_1023_" d="m224.688 59.838c-82.71 0-150 67.29-150 150 7.541 198.722 292.489 198.668 300-.002 0-82.708-67.29-149.998-150-149.998zm0 270c-66.169 0-120-53.832-120-120 6.033-158.978 233.991-158.934 240 .002 0 66.166-53.832 119.998-120 119.998z"/><path id="XMLID_1024_" d="m164.688 149.838h30v30h-30z"/><path id="XMLID_1025_" d="m254.688 149.838h30v30h-30z"/><path id="XMLID_1026_" d="m224.688 254.838c-16.542 0-30-13.458-30-30h-30c3.026 79.509 117.002 79.448 120 0h-30c0 16.542-13.458 30-30 30z"/></g></svg>