<svg id="Capa_1" enable-background="new 0 0 510 510" height="512" viewBox="0 0 510 510" width="512" xmlns="http://www.w3.org/2000/svg"><g><path d="m240 345h30v30h-30z"/><path d="m480.468 367.425-50.102-39.947c-5.646-22.357-11.764-42.531-16.407-61.859l38.773 12.308 9.076-28.594-54.302-17.237c-1.581-11.586-2.506-23.758-2.506-37.096 0-47.916 32.852-102.883-1.123-185.693l-3.817-9.307h-290.12l-3.818 9.307c-33.996 82.866-1.122 137.676-1.122 185.693 0 12.524-.835 24.75-2.515 37.098l-54.295 17.234 9.076 28.594 38.762-12.305c-4.733 19.689-10.723 39.412-16.389 61.852l-50.108 39.952 18.702 23.457 21.427-17.085c-2.573 14.662-4.584 29.335-6.111 44.721-2.483 25.013 4.993 51.528 11.869 80.002l2.772 11.48h353.344l2.963-11.147c7.938-29.865 14.318-56.524 11.954-80.332-1.621-16.326-3.714-31.113-6.096-44.712l21.412 17.072zm-103.246 5.652 29.75-13.79c2.571 12.125 4.948 25.213 6.941 39.598-113.831 28.154-203.919 28.176-317.821.004 1.837-13.302 4.114-26.327 6.932-39.604l29.753 13.792 53.814-29.92-14.578-26.221-40.471 22.502-21.455-9.945c5.148-19.846 10.449-37.604 14.916-56.054l17.857 18.379 61.074-11.305-5.46-29.498-45.286 8.381-21.184-21.802c2.924-20.745 3.448-40.35 2.669-52.246 88.219-33.913 149.191-33.873 240.643.122-.792 12.227-.176 31.958 2.677 52.123l-21.185 21.803-45.286-8.381-5.46 29.498 61.073 11.305 17.854-18.375c4.428 18.328 9.75 36.088 14.921 56.05l-21.456 9.945-40.471-22.502-14.578 26.221zm-246.891-343.077h249.337c17.336 49.316 7.216 85.885-.155 125.064-92.753-33.404-159.358-33.468-249.062-.184-7.217-38.298-17.55-75.296-.12-124.88zm-28.545 450c-4.676-19.184-8.632-36.199-8.704-50.97 112.996 27.419 206.318 28.518 323.843-.002-.039 14.743-3.77 32.368-8.51 50.972z"/></g></svg>