<svg id="Capa_1" enable-background="new 0 0 512.286 512.286" height="512" viewBox="0 0 512.286 512.286" width="512" xmlns="http://www.w3.org/2000/svg"><g><path d="m378.601 69.825h30v30h-30z"/><path d="m294.25 18.286h30v30h-30z"/><path d="m.25 98.22h30v30h-30z"/><path d="m202.25 340.286h30v30h-30z"/><path d="m467.25 14.286h30v30h-30z"/><path d="m472.424 108.286-53.619 96.515 59.289 93.307-66.844 65.903v40.275h-30.401l-61.154-31.133-42.444 39.614v12.519h-100.919l-43.083 50.469v36.531h379c0-72.399 0-327.237 0-404zm9.826 44.087v96.337l-28.555-44.938zm-315.132 329.913 23.049-27h87.083v27zm315.132 0h-175v-56.481l17.556-16.386 48.846 24.867h108.598zm-41-78v-27.725l41-40.422v68.147z"/><path d="m359.714 328.31 8.571 20.798 25.175-25.178.059-6.129c.92-96.853-62.85-200.6-65.565-204.968l-.912-1.468-44.881-44.882-1.483-.918c-2.076-2.519-119.489-70.357-211.266-65.295l-25.203 25.206 20.853 8.552c.855.351 81.317 33.723 141.912 88.896l-206.938 206.935 63.64 63.64 206.939-206.938c55.206 60.59 88.749 140.9 89.099 141.749zm-4.903-75.864c-15.81-27.15-37.034-58.921-62.956-87.126.017-.017.205-.205.228-.228l19.817-19.817c11.715 21.757 31.539 62.431 42.911 107.171zm-60.812-131.696-23.129 23.13-21.213-21.213 23.13-23.13zm-45.778-39.074-20.006 20.006c-28.081-25.792-59.73-46.907-86.837-62.656 44.552 11.36 85.101 31.014 106.843 42.65zm-184.545 269.397-21.213-21.214 185.98-185.98 21.213 21.214z"/></g></svg>