<svg id="Capa_1" enable-background="new 0 0 510 510" height="512" viewBox="0 0 510 510" width="512" xmlns="http://www.w3.org/2000/svg"><g><path d="m509.758 151.806c-6.527-35.903-32.879-65.013-68-75.047l-1.064-.304-110.694-14.605v-61.85h-150v61.828l-110.479 14.397-1.074.307c-35.403 10.115-62.19 40.118-68.243 76.437l-.204 1.223v355.808h510c0-39.129 0-344.316 0-356.863zm-299.758-121.806h90v38.787l-45 45-45-45zm-120 450h-60v-165h60zm390 0h-60v-165h60zm-60-195v-45h-30v240h-270c0-9.623 0-235.93 0-240h-30v45h-60v-128.26c4.463-24.088 22.224-43.949 45.671-51.063l113.944-14.849 65.385 65.385 65.374-65.374 114.149 15.062c23.379 7.071 40.656 26.079 45.477 50.009v129.09z"/><path d="m243.345 232.321-41.153-69.054-31.902 31.902-22.45-37.17-25.68 15.51 42.256 69.961 31.736-31.737 21.422 35.946z"/><path d="m352.321 137.114-69.054 41.154 31.902 31.901-37.17 22.45 15.51 25.68 69.961-42.255-31.737-31.737 35.946-21.421z"/><path d="m255 270c-24.813 0-45 20.187-45 45 0 24.814 20.187 45 45 45 24.814 0 45-20.186 45-45 0-24.813-20.186-45-45-45zm0 60c-8.271 0-15-6.728-15-15 0-8.271 6.729-15 15-15s15 6.729 15 15c0 8.272-6.729 15-15 15z"/></g></svg>