<svg id="Capa_1" enable-background="new 0 0 512 512" height="512" viewBox="0 0 512 512" width="512" xmlns="http://www.w3.org/2000/svg"><g><path d="m503.324 494.229c-11.451-48.031-21.537-99.652-15.826-149.974l4.147-46.492c4.273-47.898-28.096-90.965-75.295-100.177l-19.003-3.238c15.804-12.778 25.155-34.422 23.213-53.746-17.17-12.231-29.109-32.552-28.874-54.29v-86.312h-271.374v86.313c.39 21.335-11.492 41.773-28.874 54.29-1.363 20.306 6.204 39.253 23.208 53.742l-18.646 3.176-.356.065c-47.195 9.212-79.563 52.278-75.291 100.176l4.147 46.479c5.572 50.382-4.028 100.513-15.826 149.988l-3.338 17.77 501.328.001zm-161.862-416.189v-48.04h20.225v56.313c0 25.522 10.172 49.641 28.162 67.358-5.425 18.374-26.138 29.916-44.292 31.348-11.49-3.933-20.639-13.318-24.064-25.174l-5.217-18.063c15.548-16.307 25.186-38.861 25.186-63.742zm-140.925-48.04h110.925v48.04c0 33.086-24.881 60.004-55.463 60.004s-55.462-26.918-55.462-60.004zm-50.225 56.313v-56.313h20.225v48.04c0 24.88 9.637 47.434 25.185 63.742l-5.216 18.062c-3.425 11.858-12.574 21.243-24.065 25.176-17.91-1.521-37.927-11.958-44.29-31.348 17.99-17.718 28.161-41.836 28.161-67.359zm257.063 395.687c-2.398-14.02-3.85-31.46-3.826-46.695-1.275-37.489 8.494-76.142 28.252-111.778l-26.237-14.547c-22.348 40.308-33.413 84.251-32.006 127.09.013 15.464 1.182 30.843 3.444 45.93h-242.004c1.756-11.713 2.841-23.601 3.244-35.568 8.578 3.464 17.854 5.322 27.384 5.322 58.104 0 105.375-47.271 105.375-105.375h-30c0 41.562-33.813 75.375-75.375 75.375-14.448 0-27.397-6.825-35.527-18.725-8.277-12.115-9.941-26.964-4.566-40.74 5.426-13.903 10.387-34.851-9.084-56.155l-22.145 20.24c6.918 7.569 7.716 13.646 3.282 25.009-9.402 24.115-5.529 52.224 10.909 72.847.283 17.732-.64 39.223-3.869 57.77h-62.775c11.822-44.649 17.02-93.724 12.53-140.424l-4.147-46.479c-2.897-32.486 19.016-61.703 50.99-68.033l64.472-10.979c25.425-4.33 46.477-23.138 53.633-47.916l2.241-7.76c10.539 4.905 22.186 7.636 34.43 7.636 12.243 0 23.89-2.731 34.429-7.636l2.242 7.762c7.156 24.776 28.207 43.584 53.631 47.914l64.47 10.98c31.98 6.327 53.893 35.544 50.994 68.033l-4.147 46.492c-4.391 47.058.46 94.367 12.529 140.41z"/><path d="m150.624 361.503h30v30h-30z"/><path d="m340.991 335.805-16.641 16.612-16.612-16.64-21.231 21.196 16.613 16.64-16.641 16.613 21.196 21.23 16.64-16.612 16.612 16.64 21.232-21.195-16.613-16.641 16.64-16.613z"/></g></svg>