<svg id="Capa_1" enable-background="new 0 0 512 512" height="512" viewBox="0 0 512 512" width="512" xmlns="http://www.w3.org/2000/svg"><g><path d="m370.667 0h-229.334c-30.327 0-55 24.673-55 55v402c0 30.327 24.673 55 55 55h229.334c30.327 0 55-24.673 55-55v-402c0-30.327-24.673-55-55-55zm0 482h-64.087c4.513-8.219 7.087-17.647 7.087-27.667s-2.573-19.448-7.086-27.666h89.086v30.333c0 13.785-11.215 25-25 25zm-254.334-25v-30.333h89.086c-4.513 8.218-7.086 17.647-7.086 27.666 0 10.02 2.573 19.448 7.087 27.667h-64.087c-13.785 0-25-11.215-25-25zm25-427h99.667v26.999h30v-26.999h99.667c13.785 0 25 11.215 25 25v341.667h-279.334v-341.667c0-13.785 11.215-25 25-25zm142.334 424.333c0 15.256-12.411 27.667-27.667 27.667s-27.667-12.411-27.667-27.667c0-15.255 12.411-27.666 27.667-27.666s27.667 12.411 27.667 27.666z"/><path d="m256 335c61.206 0 111-49.794 111-111s-49.794-111-111-111-111 49.794-111 111 49.795 111 111 111zm81-111c0 44.663-36.336 81-81 81s-81-36.337-81-81 36.336-81 81-81 81 36.337 81 81z"/><path d="m241 272h30v-33h33v-30h-33v-33h-30v33h-33v30h33z"/></g></svg>