<svg id="Capa_1" enable-background="new 0 0 509.237 509.237" height="512" viewBox="0 0 509.237 509.237" width="512" xmlns="http://www.w3.org/2000/svg"><g><path d="m509.237 197.453-175.937-25.564-78.681-159.427-78.682 159.427-175.937 25.564 127.31 124.097-30.054 175.225 157.363-82.73 157.363 82.73-30.054-175.225zm-147.383 101.769-33.888-11.143 49.22-47.978-67.86-9.86 20.801-28.498 114.642 16.657zm-71.328 30.125-35.907-18.877-35.907 18.877 6.858-39.983-29.05-28.315 40.145-5.834 17.954-36.378 17.954 36.378 40.146 5.834-29.05 28.315zm15.343-145.255-20.847 28.561-30.403-61.602-30.403 61.602-20.847-28.561 51.25-103.843zm-241.4 34.308 114.642-16.658 20.801 28.498-67.86 9.86 49.22 47.978-33.888 11.143zm92.217 109.342 33.768-11.104-11.585 67.551 60.751-31.94v35.79l-102.52 53.897zm112.933 60.296v-35.79l60.751 31.94-11.586-67.551 33.768 11.104 19.586 114.193z"/></g></svg>