<?xml version="1.0" encoding="iso-8859-1"?>
<!-- Generator: Adobe Illustrator 19.0.0, SVG Export Plug-In . SVG Version: 6.00 Build 0)  -->
<svg xmlns="http://www.w3.org/2000/svg" xmlns:xlink="http://www.w3.org/1999/xlink" version="1.1" id="Layer_1" x="0px" y="0px" viewBox="0 0 512 512" style="enable-background:new 0 0 512 512;" xml:space="preserve">
<g>
	<g>
		<path d="M456.457,340.252c-9.115-7.513-19.418-10.535-28.049-11.577V195.569c6.594-9.869,10.449-21.717,10.449-34.451V52.245    H313.469V32.131C313.469,14.413,299.056,0,281.339,0h-50.678c-17.717,0-32.131,14.413-32.131,32.131v20.114H73.143v108.874    c0,12.734,3.855,24.582,10.449,34.451v133.105c-8.631,1.043-18.935,4.065-28.049,11.576    c-13.282,10.945-20.016,27.887-20.016,50.354v63.739c0,26.439,18.54,47.948,41.329,47.948h23.593    c7.616,6.068,17.25,9.707,27.723,9.707h255.657c10.473,0,20.106-3.639,27.723-9.707h23.593c22.789,0,41.329-21.509,41.329-47.948    v-63.739C476.473,368.14,469.739,351.198,456.457,340.252z M83.592,467.42v3.525h-6.736c-4.713,0-9.982-7.099-9.982-16.601    v-63.739c0-12.563,2.853-21.331,8.478-26.059c2.474-2.079,5.384-3.325,8.24-4.051V467.42z M229.878,32.131    c0-0.433,0.352-0.784,0.784-0.784h50.678c0.432,0,0.784,0.351,0.784,0.784v20.114h-52.245V32.131z M397.061,467.42    c0,7.297-5.936,13.233-13.233,13.233H128.171c-7.297,0-13.233-5.936-13.233-13.233v-1.986h282.122V467.42z M397.061,331.568    v102.519H114.939V331.568V223.291h20.375h68.441v46.566h36.571v12.266h31.347v-12.266h36.571v-46.566h68.441h20.375V331.568z     M235.102,238.509v-15.219h41.796v15.219H235.102z M407.51,161.119c0,16.996-13.827,30.825-30.824,30.825h-68.441h-104.49h-68.441    c-16.997,0-30.824-13.828-30.824-30.825V83.592h94.041h114.939h94.041V161.119z M445.126,454.345    c0,9.501-5.269,16.601-9.982,16.601h-6.736v-3.525V360.521c2.818,0.713,5.685,1.921,8.114,3.92    c5.71,4.705,8.605,13.508,8.605,26.163V454.345z"/>
	</g>
</g>
<g>
</g>
<g>
</g>
<g>
</g>
<g>
</g>
<g>
</g>
<g>
</g>
<g>
</g>
<g>
</g>
<g>
</g>
<g>
</g>
<g>
</g>
<g>
</g>
<g>
</g>
<g>
</g>
<g>
</g>
</svg>
