<svg id="Capa_1" enable-background="new 0 0 511.492 511.492" height="512" viewBox="0 0 511.492 511.492" width="512" xmlns="http://www.w3.org/2000/svg"><g><path d="m468.152 65.917c-56.816-58.856-157.031-57.33-212.375 2.428-49.309-53.397-138.198-61.087-195.941-16.427-65.146 46.313-79.708 144.823-30.738 208.001 4.34 5.848 9.157 11.425 14.31 16.571l212.389 212.363s212.392-212.366 212.392-212.366c57.751-55.429 57.735-155.161-.037-210.57zm-260.705 332.169c24.451-29.948 72.246-29.934 96.681.019l-48.331 48.325zm239.528-142.81-121.579 121.564c-14.171-15.96-33.496-26.656-54.614-30.126v-56.028l40.364-40.364c25.352 15.007 59.309 8.518 79.966-12.662 27.515-26.23 31.383-82.717 27.376-115.893-33.219-4.009-89.669-.128-115.893 27.376-21.186 20.598-27.652 54.763-12.659 79.964l-34.158 34.159-34.159-34.159c14.993-25.208 8.527-59.359-12.659-79.964-26.201-27.508-82.771-31.387-115.893-27.376-4.021 33.206-.101 89.731 27.376 115.893 20.652 21.178 54.621 27.673 79.966 12.662l40.374 40.375v56.017c-21.112 3.469-40.433 14.158-54.601 30.108-6.239-6.88-132.048-130.255-132.998-134.786-39.084-50.432-27.469-129.064 24.537-166.034 51.134-39.149 128.551-27.573 166.032 24.538 0-.001 12.095 16.288 12.095 16.288l12.028-16.339c41.256-57.773 129.739-64.516 179.066-13.354 46.128 44.242 46.148 123.882.033 168.141zm-123.168-84.92c15.324-15.319 46.004-19.417 66.004-19.914-.481 29.377-9.011 76.118-46.13 78.031-9.049.423-17.317-2.629-23.294-8.606-13.529-13.336-10.122-36.575 3.42-49.511zm-155.937 58.117c-37.123-1.912-45.651-48.67-46.13-78.03 29.379.482 76.116 9.01 78.03 46.13 1.207 18.25-13.652 33.107-31.9 31.9z"/></g></svg>