<?xml version="1.0" encoding="iso-8859-1"?>
<!-- Generator: Adobe Illustrator 19.0.0, SVG Export Plug-In . SVG Version: 6.00 Build 0)  -->
<svg xmlns="http://www.w3.org/2000/svg" xmlns:xlink="http://www.w3.org/1999/xlink" version="1.1" id="Layer_1" x="0px" y="0px" viewBox="0 0 512 512" style="enable-background:new 0 0 512 512;" xml:space="preserve">
<g>
	<g>
		<path d="M0,45.511v420.978h147.911v-34.133h216.178v34.133H512V45.511H0z M34.133,79.644h124.562    c-6.043,88.096-58.382,158.814-124.562,169.31V79.644z M113.778,432.356H34.133V286.484    c45.215,10.936,79.644,64.532,79.644,128.804V432.356z M147.221,398.222c-2.973-36.871-15.543-71.16-36.154-97.952    c-9.338-12.139-19.897-22.22-31.348-30.074c23.665-11.226,45.274-28.883,63.481-52.29c29.218-37.567,46.589-86.142,49.708-138.262    h126.185c3.12,52.118,20.489,100.694,49.708,138.262c18.206,23.407,39.815,41.062,63.48,52.29    c-11.451,7.854-22.01,17.936-31.348,30.074c-20.61,26.792-33.18,61.082-36.153,97.952H147.221z M477.867,432.356h-79.644v-17.067    c0-64.271,34.429-117.867,79.644-128.804V432.356z M477.867,248.955c-66.179-10.496-118.518-81.215-124.562-169.31h124.562    V248.955z"/>
	</g>
</g>
<g>
</g>
<g>
</g>
<g>
</g>
<g>
</g>
<g>
</g>
<g>
</g>
<g>
</g>
<g>
</g>
<g>
</g>
<g>
</g>
<g>
</g>
<g>
</g>
<g>
</g>
<g>
</g>
<g>
</g>
</svg>
