<svg id="Layer_1" enable-background="new 0 0 511.977 511.977" height="512" viewBox="0 0 511.977 511.977" width="512" xmlns="http://www.w3.org/2000/svg"><g><path d="m436.999 74.978c-48.35-48.35-112.634-74.978-181.011-74.978s-132.661 26.628-181.01 74.978-74.978 112.633-74.978 181.01 26.627 132.661 74.977 181.011 112.634 74.978 181.011 74.978 132.661-26.628 181.011-74.978 74.977-112.634 74.977-181.011-26.627-132.661-74.977-181.01zm-21.213 340.808c-42.684 42.684-99.434 66.19-159.797 66.19s-117.114-23.507-159.797-66.19-66.192-99.434-66.192-159.798 23.507-117.114 66.191-159.798 99.434-66.19 159.797-66.19 117.114 23.507 159.797 66.19 66.19 99.435 66.19 159.798-23.506 117.115-66.189 159.798z"/><path d="m255.988 53.474c-111.667 0-202.515 90.848-202.515 202.515s90.848 202.515 202.515 202.515 202.515-90.848 202.515-202.515-90.848-202.515-202.515-202.515zm0 375.029c-95.125 0-172.515-77.39-172.515-172.515s77.39-172.515 172.515-172.515 172.515 77.39 172.515 172.515-77.39 172.515-172.515 172.515z"/><path d="m199.006 250.255h-7.569c-5.815 0-10.546-4.731-10.546-10.547h-30c0 22.357 18.189 40.547 40.546 40.547h7.569c22.357 0 40.547-18.189 40.547-40.547v-9.935c0-9.675-3.406-18.569-9.082-25.547 5.676-6.978 9.082-15.872 9.082-25.547v-9.935c0-22.357-18.189-40.547-40.547-40.547h-7.569c-22.357 0-40.546 18.189-40.546 40.547h30c0-5.815 4.731-10.547 10.546-10.547h7.569c5.815 0 10.547 4.731 10.547 10.547v9.935c0 5.815-4.731 10.547-10.547 10.547h-10.881v30h10.881c5.815 0 10.547 4.731 10.547 10.547v9.935c0 5.815-4.731 10.547-10.547 10.547z"/><path d="m292.622 235.267c0 24.807 20.182 44.988 44.988 44.988h2.81v-30h-2.81c-8.264 0-14.988-6.724-14.988-14.988v-16.525h14.869v-30h-14.869v-15.63h-30v15.63h-14.869v30h14.869z"/><path d="m319.988 325.372h-41.738c-4.827-7.133-12.993-11.831-22.236-11.831s-17.409 4.698-22.236 11.831h-42.456v-16.343h-30v62.685h30v-16.342h42.456c4.828 7.133 12.993 11.83 22.236 11.83s17.408-4.698 22.235-11.83h41.739v16.342h30v-62.685h-30z"/></g></svg>