<svg id="Layer_1" enable-background="new 0 0 510 510" height="512" viewBox="0 0 510 510" width="512" xmlns="http://www.w3.org/2000/svg"><path d="m270 270v-225h60v30h-30v45c0 19.555 12.541 36.228 30 42.42v32.58h30v-32.58c17.459-6.192 30-22.865 30-42.42v-45h-30v-60h-210v60h-30v45c0 19.555 12.542 36.228 30 42.42v32.58h30v-32.58c17.458-6.192 30-22.865 30-42.42v-45h-30v-30h60v225h-91.257c-7.163-42.511-44.228-75-88.743-75h-30v-30h-30v195h120v47.58c-46.977 17.385-35.719 86.462 15.001 87.42 50.727-.962 61.97-70.044 14.999-87.42v-47.58h210v47.58c-46.977 17.383-35.719 86.463 15.001 87.42 50.727-.961 61.97-70.046 14.999-87.42v-47.58h120c0-11.008 0-80.336 0-90zm90-150c-.756 19.877-29.251 19.862-30 0v-15h30zm-180 0c-.756 19.877-29.251 19.862-30 0v-15h30zm-45 345c-8.271 0-15-6.728-15-15 .754-19.872 29.249-19.867 30 0 0 8.272-6.729 15-15 15zm240 0c-8.272 0-15-6.728-15-15 .754-19.872 29.25-19.867 30 0 0 8.272-6.729 15-15 15zm-345-240h30c27.906 0 51.424 19.15 58.101 45h-88.101zm0 105v-30h450v30z"/></svg>