<svg id="Capa_1" enable-background="new 0 0 512 512" height="512" viewBox="0 0 512 512" width="512" xmlns="http://www.w3.org/2000/svg"><g><path d="m0 497v15h150v-15c0-41.459-33.535-76-75-76-41.458 0-75 34.535-75 76zm75-46c19.283 0 36.201 13.167 42.442 31h-84.884c6.241-17.833 23.159-31 42.442-31z"/><path d="m362 497v15h150v-15c0-41.459-33.535-76-75-76-41.458 0-75 34.535-75 76zm75-46c19.283 0 36.201 13.167 42.442 31h-84.885c6.242-17.833 23.16-31 42.443-31z"/><path d="m482 45c0-24.813-20.187-45-45-45s-45 20.187-45 45 20.187 45 45 45 45-20.187 45-45zm-45 15c-8.271 0-15-6.729-15-15s6.729-15 15-15 15 6.729 15 15-6.729 15-15 15z"/><path d="m437 90c-41.458 0-75 34.535-75 76v15h60v30h-71.145c-16.883-35.443-53.053-60-94.855-60s-77.973 24.557-94.855 60h-71.145v-30h60v-15c0-41.459-33.535-76-75-76-41.458 0-75 34.535-75 76v15h60v59.99h92.076c-.704 4.911-1.076 9.917-1.076 15.01s.372 10.099 1.076 15h-92.076v62.58c-17.459 6.192-30 22.865-30 42.42 0 24.813 20.187 45 45 45s45-20.187 45-45c0-19.555-12.541-36.228-30-42.42v-32.58h71.145c16.883 35.443 53.053 60 94.855 60s77.973-24.557 94.855-60h71.145v32.58c-17.459 6.192-30 22.865-30 42.42 0 24.813 20.187 45 45 45s45-20.187 45-45c0-19.555-12.541-36.228-30-42.42v-62.58h-92.076c.704-4.901 1.076-9.907 1.076-15s-.372-10.099-1.076-15h92.076v-60h60v-15c0-41.459-33.535-76-75-76zm-362 30c19.283 0 36.201 13.167 42.442 31h-84.884c6.241-17.833 23.159-31 42.442-31zm0 271c-8.271 0-15-6.729-15-15s6.729-15 15-15 15 6.729 15 15-6.729 15-15 15zm362 0c-8.271 0-15-6.729-15-15s6.729-15 15-15 15 6.729 15 15-6.729 15-15 15zm-181-60c-41.355 0-75-33.645-75-75s33.645-75 75-75 75 33.645 75 75-33.645 75-75 75zm138.558-180c6.241-17.833 23.159-31 42.442-31s36.201 13.167 42.442 31z"/><path d="m120 45c0-24.813-20.187-45-45-45s-45 20.187-45 45 20.187 45 45 45 45-20.187 45-45zm-45 15c-8.271 0-15-6.729-15-15s6.729-15 15-15 15 6.729 15 15-6.729 15-15 15z"/><path d="m256 271c-8.271 0-15-6.729-15-15h-30c0 24.813 20.187 45 45 45s45-20.187 45-45h-30c0 8.271-6.729 15-15 15z"/></g></svg>