<svg id="Layer_1" enable-background="new 0 0 511.977 511.977" height="512" viewBox="0 0 511.977 511.977" width="512" xmlns="http://www.w3.org/2000/svg"><g><path d="m352.037 172.879h-192.097c-24.138 0-43.776 19.638-43.776 43.776v96.346h33.74v14.09h30v-14.09h152.169v14.09h30v-14.09h33.74v-96.346c-.001-24.138-19.638-43.776-43.776-43.776zm13.775 43.776v10.198h-29.974v-23.975h16.198c7.597.001 13.776 6.181 13.776 13.777zm-159.674 10.199v-23.975h34.85v23.975zm64.85-23.975h34.85v23.975h-34.85zm-111.048 0h16.198v23.975h-29.974v-10.198c0-7.597 6.18-13.777 13.776-13.777zm-13.776 80.122v-26.147h219.648v26.147z"/><path d="m436.999 74.978c-48.35-48.35-112.634-74.978-181.011-74.978s-132.661 26.628-181.01 74.978-74.978 112.633-74.978 181.01 26.627 132.661 74.977 181.011 112.634 74.978 181.011 74.978 132.661-26.628 181.011-74.978 74.977-112.634 74.977-181.011-26.627-132.661-74.977-181.01zm-21.213 340.808c-42.684 42.684-99.434 66.19-159.797 66.19s-117.114-23.507-159.797-66.19-66.192-99.434-66.192-159.798 23.507-117.114 66.191-159.798 99.434-66.19 159.797-66.19 117.114 23.507 159.797 66.19 66.19 99.435 66.19 159.798-23.506 117.115-66.189 159.798z"/><path d="m255.988 53.474c-111.667 0-202.515 90.848-202.515 202.515s90.848 202.515 202.515 202.515 202.515-90.848 202.515-202.515-90.848-202.515-202.515-202.515zm0 375.029c-95.125 0-172.515-77.39-172.515-172.515s77.39-172.515 172.515-172.515 172.515 77.39 172.515 172.515-77.39 172.515-172.515 172.515z"/></g></svg>