<svg id="Capa_1" enable-background="new 0 0 512 512" height="512" viewBox="0 0 512 512" width="512" xmlns="http://www.w3.org/2000/svg"><g><path d="m427.041 54.259 26.515-10.795 5.81-39.048-29.673-4.416-3.292 22.128-21.933 8.93-14.002 31.855 27.464 12.072z"/><path d="m421.693 83.188 14.23 26.41 19.931-10.739 27.548 7.798 28.598-27.215-20.681-21.732-16.206 15.422-22.785-6.45z"/><path d="m486.241 144.839-14.208-18.945-34.367-5.453-4.701 29.629 22.361 3.548 17.176 22.904 39.243-4.296-3.266-29.823z"/><path d="m368.677 424.623 41.423-268.18c6.886-39.131-23.013-78.625-61.542-83.397l-113.614-16.717 2.796-24.273-237.74-32.056v256.985c30.677-.343 113.306-3.489 139.334-5.81 56.335-4.682 48.01-4.153 74.141-8.498l2.45-21.262c16.363-1.355 31.126-3.112 42.539-4.658-11.682 47.239-4.971 79.157 1.548 110.157 6.189 29.432 12.589 59.864 4.703 107.38-5.924 49.365.022 58.501 3.732 77.706h176.697v-55.43l-74.49-28.631c-1.356-.521-2.164-1.88-1.977-3.316zm-338.677-198.364v-191.943l174.569 23.539-18.291 158.771c-19.799 2.45-67.896 7.228-156.278 9.633zm385.143 255.741h-122.038c-1.062-9.884-1.704-25.274 1.204-42.794 8.811-53.081 1.505-87.817-4.939-118.465-9.382-44.091-13.868-70.944 12.544-141.559-30.406 4.963-34.922 7.386-82.469 11.682l12.064-104.719 112.683 16.58c23.477 2.899 40.19 27.182 36.261 49.138l-41.438 268.279-.021.145c-2.227 15.407 6.366 30.068 20.897 35.654l55.254 21.238v4.821z"/></g></svg>