<svg id="Layer_1" enable-background="new 0 0 510 510" height="512" viewBox="0 0 510 510" width="512" xmlns="http://www.w3.org/2000/svg"><g><path d="m408.687 344.591c20.233-51.609 13.511-111.852-21.457-158.632l30.198-30.198 21.211 21.212 21.213-21.213-21.211-21.212.003-.002-.002-.002 70.452-70.451-63.64-63.639-70.452 70.451-.002-.002-.002.002-21.211-21.212-21.213 21.213 21.212 21.212-38.74 38.74c-38.453-15.076-81.564-15.104-120.09 0l-38.74-38.74 21.212-21.212-21.213-21.213-21.211 21.212-.004-.002-.002.002-70.452-70.451-63.639 63.639 70.452 70.451-.002.002.003.002-21.213 21.212 21.213 21.213 21.211-21.212 30.198 30.198c-34.952 46.759-41.701 106.996-21.457 158.632l-101.312 101.312v63.643h63.644l92.77-92.77c57.543 43.014 137.819 44.367 197.174 0l92.77 92.77h63.642v-63.643zm36.767-301.711 21.213 21.213-49.238 49.238-21.213-21.213zm-70.456 70.451 21.217 21.217-29.013 29.014c-7.42-6.902-15.423-13.072-23.96-18.475zm-232.2 50.23-29.013-29.014 21.217-21.217 31.756 31.756c-8.537 5.403-16.539 11.573-23.96 18.475zm-99.465-99.468 21.213-21.213 49.238 49.238-21.213 21.213zm7.884 415.453h-21.217v-21.217l85.54-85.541c5.402 8.537 11.572 16.54 18.474 23.96zm68.783-195c0-74.439 60.56-135 135-135 178.85 6.787 178.801 263.241-.002 270-74.438 0-134.998-60.561-134.998-135zm360 195h-21.217l-82.798-82.798c6.902-7.42 13.072-15.423 18.474-23.96l85.541 85.541z"/><path d="m240 179.546h30v30h-30z"/><path d="m176.36 205.907h30v30h-30z" transform="matrix(.707 -.707 .707 .707 -100.156 200.007)"/><path d="m150 269.546h30v30h-30z"/><path d="m176.36 333.186h30v30h-30z" transform="matrix(.707 -.707 .707 .707 -190.159 237.301)"/><path d="m240 359.546h30v30h-30z"/><path d="m303.64 333.186h30v30h-30z" transform="matrix(.707 -.707 .707 .707 -152.877 327.282)"/><path d="m330 269.546h30v30h-30z"/><path d="m303.639 205.907h30v30h-30z" transform="matrix(.707 -.707 .707 .707 -62.876 290.023)"/><path d="m255 239.546c-24.813 0-45 20.186-45 45 2.262 59.617 87.747 59.6 90-.001 0-24.813-20.187-44.999-45-44.999zm0 60c-8.271 0-15-6.729-15-15 .754-19.872 29.249-19.867 30 0 0 8.271-6.729 15-15 15z"/></g></svg>