<?xml version="1.0" encoding="iso-8859-1"?>
<!-- Generator: Adobe Illustrator 19.0.0, SVG Export Plug-In . SVG Version: 6.00 Build 0)  -->
<svg xmlns="http://www.w3.org/2000/svg" xmlns:xlink="http://www.w3.org/1999/xlink" version="1.1" id="Capa_1" x="0px" y="0px" viewBox="0 0 512 512" style="enable-background:new 0 0 512 512;" xml:space="preserve">
<g>
	<g>
		<path d="M472.796,454.217L273.161,95.033l29.277-52.675l-26.223-14.574L256,64.155l-20.216-36.372l-26.223,14.574l29.277,52.675    L39.204,454.217H0v30h512v-30H472.796z M291.501,454.217h-71.002v-63.814c0-19.575,15.926-35.5,35.501-35.5    s35.501,15.925,35.501,35.5V454.217z M321.501,454.217v-63.814c0-36.117-29.384-65.5-65.501-65.5s-65.501,29.383-65.501,65.5    v63.814H73.527L256,125.91l182.473,328.307H321.501z"/>
	</g>
</g>
<g>
	<g>
		<rect x="222.67" y="273.36" width="66.65" height="30"/>
	</g>
</g>
<g>
	<g>
		<rect x="222.67" y="228.25" width="66.65" height="30"/>
	</g>
</g>
<g>
</g>
<g>
</g>
<g>
</g>
<g>
</g>
<g>
</g>
<g>
</g>
<g>
</g>
<g>
</g>
<g>
</g>
<g>
</g>
<g>
</g>
<g>
</g>
<g>
</g>
<g>
</g>
<g>
</g>
</svg>
