<?xml version="1.0" encoding="iso-8859-1"?>
<!-- Generator: Adobe Illustrator 19.0.0, SVG Export Plug-In . SVG Version: 6.00 Build 0)  -->
<svg version="1.1" id="Layer_1" xmlns="http://www.w3.org/2000/svg" xmlns:xlink="http://www.w3.org/1999/xlink" x="0px" y="0px"
	 viewBox="0 0 512 512" style="enable-background:new 0 0 512 512;" xml:space="preserve">
<g>
	<g>
		<path d="M0,41.513v428.973h512V41.513H0z M470.487,428.973H41.513v-12.159l103.784-103.782l96.865,96.865L394.378,257.68
			l76.108,76.108V428.973z M470.487,275.078l-76.108-76.108L242.162,351.186l-96.865-96.865L41.513,358.107V83.027h428.973V275.078z
			"/>
	</g>
</g>
<g>
	<g>
		<path d="M246.487,128.865c-34.337,0-62.27,27.934-62.27,62.27s27.933,62.27,62.27,62.27c34.337,0,62.27-27.934,62.27-62.27
			S280.824,128.865,246.487,128.865z M246.487,211.892c-11.445,0-20.757-9.312-20.757-20.757s9.311-20.757,20.757-20.757
			c11.445,0,20.757,9.312,20.757,20.757S257.932,211.892,246.487,211.892z"/>
	</g>
</g>
<g>
</g>
<g>
</g>
<g>
</g>
<g>
</g>
<g>
</g>
<g>
</g>
<g>
</g>
<g>
</g>
<g>
</g>
<g>
</g>
<g>
</g>
<g>
</g>
<g>
</g>
<g>
</g>
<g>
</g>
</svg>
