<svg id="Capa_1" enable-background="new 0 0 512 512" height="512" viewBox="0 0 512 512" width="512" xmlns="http://www.w3.org/2000/svg"><g><path d="m217.973 180h76.055v30h30v-38.789c0-26.079-13.377-50.303-35.09-66.211 21.715-15.908 35.09-40.132 35.09-66.21v-38.79h-30v30h-76.055v-30h-30v38.789c0 26.079 13.377 50.303 35.09 66.211-21.715 15.908-35.09 40.132-35.09 66.21v38.79h30zm38.026-90.905c-15.039-5.831-26.731-16.4-32.98-29.095h65.962c-6.25 12.695-17.941 23.263-32.982 29.095zm.002 31.81c15.039 5.831 26.731 16.399 32.98 29.095h-65.962c6.25-12.695 17.941-23.263 32.982-29.095z"/><path d="m451.667 361.333v-75h-180.667v-46.333h-30v46.333h-180.667v75h-60.333v150.667h150.667v-150.667h-60.334v-45h150.667v45h-60.333v150.667h150.667v-150.667h-60.334v-45h150.667v45h-60.333v150.667h150.666v-150.667zm-331 120.667h-90.667v-90.667h90.667zm180.666 0h-90.667v-90.667h90.667zm180.667 0h-90.667v-90.667h90.667z"/></g></svg>