<svg id="Capa_1" enable-background="new 0 0 512 512" height="512" viewBox="0 0 512 512" width="512" xmlns="http://www.w3.org/2000/svg"><path d="m423.744 210.875-2.8-60.25h-104.756v-120.5h-90.25v120.5h-104.757l-5.111 109.985c-24.072-31.292-61.234-49.735-101.07-49.735h-15v90.25h15c12.258 0 23.262 7.296 28.033 18.587l63.325 149.866-.571 12.297h330.552l-2.8-60.25h42.607l35.854-71.709v-139.041zm-167.807-150.75h30.25v90.5h-30.25zm136.369 120.5 1.406 30.25h-245.299l1.406-30.25zm-321.639 127.41c-7.473-17.685-22.645-30.434-40.667-35.032v-30.977c26.815 4.148 50.864 19.311 66.189 42.3l17.554 26.331-4.158 89.481zm66.546 143.84 9.806-211h248.087l9.806 211zm344.787-109.041-24.396 48.791h-25.46l-7.006-150.75h56.862z"/></svg>