<?xml version="1.0" encoding="iso-8859-1"?>
<!-- Generator: Adobe Illustrator 19.0.0, SVG Export Plug-In . SVG Version: 6.00 Build 0)  -->
<svg version="1.1" id="Capa_1" xmlns="http://www.w3.org/2000/svg" xmlns:xlink="http://www.w3.org/1999/xlink" x="0px" y="0px"
	 viewBox="0 0 512 512" style="enable-background:new 0 0 512 512;" xml:space="preserve">
<g>
	<g>
		<circle cx="135.5" cy="75" r="15"/>
	</g>
</g>
<g>
	<g>
		<circle cx="135.5" cy="197" r="15"/>
	</g>
</g>
<g>
	<g>
		<path d="M436.5,302c-36.219,0-66.522,25.808-73.491,60H240.5v-30h31c33.084,0,60-26.916,60-60v-15V60h75c8.271,0,15,6.729,15,15
			v16.769c-14.868,3.563-28.419,12.427-39.14,25.828C368.908,134.412,361.5,156.574,361.5,180c0,23.426,7.408,45.588,20.86,62.404
			C396.597,260.199,415.824,270,436.5,270c20.676,0,39.903-9.801,54.14-27.596c13.452-16.815,20.86-38.977,20.86-62.404
			s-7.408-45.588-20.86-62.404c-10.721-13.401-24.272-22.265-39.14-25.828V75c0-24.813-20.187-45-45-45h-77.58
			c-6.192-17.459-22.865-30-42.42-30h-151c-24.485,0-46.264,11.797-59.961,30.002C75.526,30.002,75.513,30,75.5,30h-30
			c-24.813,0-45,20.187-45,45v197c0,33.084,26.916,60,60,60h150v30h-45c-41.355,0-75,33.645-75,75c0,41.355,33.645,75,75,75
			s75-33.645,75-75v-45h122.509c6.968,34.192,37.271,60,73.491,60c41.355,0,75-33.645,75-75C511.5,335.645,477.855,302,436.5,302z
			 M481.5,180c0,33.084-20.187,60-45,60s-45-26.916-45-60s20.187-60,45-60S481.5,146.916,481.5,180z M210.5,437
			c0,24.813-20.187,45-45,45s-45-20.187-45-45s20.187-45,45-45h45V437z M90.5,75c0-24.813,20.187-45,45-45h151
			c8.271,0,15,6.729,15,15v197h-166c-24.813,0-45-20.187-45-45V75z M30.5,75c0-8.271,6.729-15.2,15-15.2h16.509
			C61.021,64.648,60.5,69.864,60.5,75v122c0,5.136,0.521,10.152,1.509,15H60.5c-10.925,0-21.167,2.949-30,8.072V75z M60.5,302
			c-16.542,0-30-13.458-30-30s13.458-30,30-30h15c0.013,0,0.026-0.002,0.039-0.002C89.236,260.203,111.015,271.8,135.5,271.8
			l166,0.2c0,16.542-13.458,30-30,30H60.5z M436.5,422c-24.813,0-45-20.187-45-45c0-19.555,12.541-36.228,30-42.42V377
			c0,8.284,6.716,15,15,15s15-6.716,15-15v-42.42c17.459,6.192,30,22.865,30,42.42C481.5,401.813,461.313,422,436.5,422z"/>
	</g>
</g>
<g>
</g>
<g>
</g>
<g>
</g>
<g>
</g>
<g>
</g>
<g>
</g>
<g>
</g>
<g>
</g>
<g>
</g>
<g>
</g>
<g>
</g>
<g>
</g>
<g>
</g>
<g>
</g>
<g>
</g>
</svg>
