<?xml version="1.0" encoding="iso-8859-1"?>
<!-- Generator: Adobe Illustrator 19.0.0, SVG Export Plug-In . SVG Version: 6.00 Build 0)  -->
<svg xmlns="http://www.w3.org/2000/svg" xmlns:xlink="http://www.w3.org/1999/xlink" version="1.1" id="Layer_1" x="0px" y="0px" viewBox="0 0 512 512" style="enable-background:new 0 0 512 512;" xml:space="preserve">
<g>
	<g>
		<path d="M512,11.782H0v270h91.495c2.896,43.226,18.136,67.886,31.748,89.891c13.6,21.986,26.471,42.826,27.658,83.001h-30.458    l45.553,45.542l45.564-45.542h-30.648c-1.268-48.82-17.637-75.312-32.155-98.782c-12.56-20.305-24.502-39.627-27.191-74.109    h89.929c2.896,43.226,18.136,67.886,31.748,89.891c13.6,21.986,26.471,42.826,27.658,83.001h-30.458l45.553,45.542l45.564-45.542    h-30.648c-1.268-48.82-17.637-75.312-32.155-98.782c-12.56-20.305-24.502-39.627-27.191-74.109h89.929    c2.896,43.226,18.136,67.886,31.748,89.891c13.6,21.986,26.471,42.826,27.658,83.001h-30.458l45.553,45.542l45.564-45.542h-30.648    c-1.268-48.82-17.637-75.312-32.155-98.782c-12.56-20.305-24.502-39.627-27.191-74.109H512V11.782z M482,251.782H361.566    c2.688-34.482,14.631-53.804,27.191-74.109C403.87,153.24,421,125.547,421,72.782h-30c0,44.236-13.482,66.032-27.757,89.109    c-13.611,22.005-28.852,46.664-31.748,89.891h-89.929c2.688-34.482,14.631-53.804,27.191-74.109    C283.87,153.24,301,125.547,301,72.782h-30c0,44.236-13.482,66.032-27.757,89.109c-13.611,22.005-28.852,46.664-31.748,89.891    h-89.929c2.688-34.482,14.631-53.804,27.191-74.109C163.87,153.24,181,125.547,181,72.782h-30    c0,44.236-13.482,66.032-27.757,89.109c-13.611,22.005-28.852,46.664-31.748,89.891H30v-210h452V251.782z"/>
	</g>
</g>
<g>
</g>
<g>
</g>
<g>
</g>
<g>
</g>
<g>
</g>
<g>
</g>
<g>
</g>
<g>
</g>
<g>
</g>
<g>
</g>
<g>
</g>
<g>
</g>
<g>
</g>
<g>
</g>
<g>
</g>
</svg>
