<svg id="Capa_1" enable-background="new 0 0 510 510" height="512" viewBox="0 0 510 510" width="512" xmlns="http://www.w3.org/2000/svg"><g><path d="m300 255h-90v45h-45v90h45v45h90v-45h45v-90h-45zm15 75v30h-45v45h-30v-45h-45v-30h45v-45h30v45z"/><path d="m510 75h-150v-60h-210v60h-150v135h30v285h450v-285h30zm-330-30h150v30h-150zm270 360h-75v30h75v30h-390v-30h75v-30h-75v-195h30v45h90v-45h150v45h90v-45h30zm-330-180v-60h30v60zm240 0v-60h30v60zm120-45h-60v-45h-90v45h-150v-45h-90v45h-60v-75h450z"/></g></svg>