<svg id="Layer_1" enable-background="new 0 0 509.846 509.846" height="512" viewBox="0 0 509.846 509.846" width="512" xmlns="http://www.w3.org/2000/svg"><g id="XMLID_1010_"><path id="XMLID_1013_" d="m489.901 296.548-53.505-90.144c-2.425-179.034-230.005-275.657-357.904-148.298-40.557 39.61-63.128 93.203-63.554 150.906-.474 64.562 26.512 137.102 74.994 179.312v121.521h255v-75h58.681c17.27 0 31.319-14.045 31.319-31.31v-58.69h28.657c11.567 0 22.146-6.335 27.607-16.533 5.391-10.065 4.885-22.194-1.295-31.764zm-25.152 17.604c-.372.694-.884.694-1.159.694h-58.657v88.69c0 .722-.592 1.31-1.319 1.31h-88.681v75h-195v-105.792l-5.671-4.504c-126.214-108.547-73.139-340.089 110.427-339.68 100.217 1.626 181.749 82.697 181.749 180.722v4.116c.581.979-6.84-11.518 58.247 98.093.153.228.437.654.064 1.351z"/><path id="XMLID_1016_" d="m224.932 59.846c-82.71 0-150 67.29-150 150 7.541 198.722 292.489 198.668 300-.002 0-82.708-67.29-149.998-150-149.998zm0 270c-66.168 0-120-53.832-120-120 6.033-158.978 233.991-158.934 240 .002 0 66.166-53.832 119.998-120 119.998z"/><path id="XMLID_1017_" d="m164.932 149.846h30v30h-30z"/><path id="XMLID_1018_" d="m254.932 149.846h30v30h-30z"/><path id="XMLID_1019_" d="m224.932 209.846c-33.084 0-60 26.916-60 60h30c1.513-39.754 58.501-39.724 60 0h30c0-33.084-26.916-60-60-60z"/></g></svg>