<svg id="Layer_1" enable-background="new 0 0 510 510" height="512" viewBox="0 0 510 510" width="512" xmlns="http://www.w3.org/2000/svg"><g><path d="m255 .799c-140.929 0-255 114.049-255 255 12.344 337.905 497.695 337.838 510-.003 0-140.926-114.049-254.997-255-254.997zm0 480c-124.065 0-225-100.935-225-225 11.312-298.083 438.734-298.002 450 .003 0 124.062-100.935 224.997-225 224.997z"/><path d="m324.997 306.104-35.004-23.333-34.998 23.332-35-23.333-34.998 23.333-26.677-17.785-16.642 24.961 43.318 28.881 10.004-6.668v40.307c3.026 79.509 117.002 79.448 120 0v-40.304l9.997 6.664 43.323-28.879-16.64-24.963zm-69.997 99.695c-16.542 0-30-13.458-30-30v-53.636l29.995 19.997 30.005-20.005v53.644c0 16.542-13.458 30-30 30z"/><path d="m145.606 221.405 26.894-26.894 26.894 26.894 21.212-21.213-26.893-26.893 26.893-26.894-21.212-21.213-26.894 26.894-26.894-26.894-21.212 21.213 26.893 26.894-26.893 26.893z"/><path d="m364.394 125.192-26.894 26.894-26.894-26.894-21.212 21.213 26.893 26.894-26.893 26.893 21.212 21.213 26.894-26.894 26.894 26.894 21.212-21.213-26.893-26.893 26.893-26.894z"/></g></svg>