<svg id="Capa_1" enable-background="new 0 0 512 512" height="512" viewBox="0 0 512 512" width="512" xmlns="http://www.w3.org/2000/svg"><g><path d="m452 165c33.084 0 60-26.916 60-60v-105h-512v105c0 33.084 26.916 60 60 60h.896l12.426 30h-73.322v317h512v-317h-73.322l12.426-30zm-422-60v-75h452v75c0 16.542-13.458 30-30 30h-392c-16.542 0-30-13.458-30-30zm452 377h-452v-257h167.898c6.678 25.85 30.195 45 58.102 45s51.424-19.15 58.102-45h167.898zm-75.794-287h-120.206v15c0 16.542-13.458 30-30 30s-30-13.458-30-30v-15h-120.206l-12.426-30h325.264z"/></g></svg>