<svg id="Capa_1" enable-background="new 0 0 512 512" height="512" viewBox="0 0 512 512" width="512" xmlns="http://www.w3.org/2000/svg"><g><path d="m443.486 0h-350.955c-35.224 0-63.881 28.657-63.881 63.881v100.612c-18.038 25.977-28.634 57.49-28.65 91.434-.016 33.283 10.016 65.02 28.65 91.765v164.308h376.323v-30h107.027v-413.486c0-37.779-30.735-68.514-68.514-68.514zm-239.395 300.189h.003 146.864c7.813 0 14.168 6.355 14.168 14.168s-6.356 14.169-14.168 14.169l-144.642-.017-.032 30 93.385.017c7.617.355 13.856 6.384 14.058 13.743.106 3.869-1.316 7.522-4.006 10.287-2.691 2.767-6.298 4.29-10.158 4.29l-138.703.008c-34.965.002-67.835-13.616-92.554-38.346-24.718-24.728-38.322-57.603-38.306-92.569.033-72.12 58.734-130.794 130.854-130.794h49.255c7.936 0 14.562 6.173 14.77 13.76.106 3.869-1.317 7.522-4.006 10.287-2.691 2.767-6.299 4.29-10.157 4.29h-65.653v30h205.895c7.813 0 14.168 6.355 14.168 14.168s-6.356 14.169-14.168 14.169h-146.867v30h164.407c7.813 0 14.168 6.355 14.168 14.168 0 7.812-6.356 14.169-14.171 14.169l-164.407.033zm246.2-88.37h-45.318v-28.337h45.318c7.813 0 14.168 6.355 14.168 14.168s-6.356 14.169-14.168 14.169zm-45.318 88.37h45.318c7.813 0 14.168 6.355 14.168 14.168s-6.356 14.169-14.168 14.169h-45.318zm62.852-30.033-57.512.025c1.517-4.458 2.353-9.229 2.353-14.194 0-4.955-.833-9.717-2.345-14.168h57.51c7.813 0 14.168 6.355 14.168 14.168.001 7.813-6.355 14.169-14.174 14.169zm-24.339-240.156c21.237 0 38.514 17.277 38.514 38.514v98.436c-8.034-8.296-19.276-13.467-31.709-13.467h-45.318v-84.969c0-21.237 17.277-38.514 38.513-38.514zm-350.955 0h294.317c-7.492 10.982-11.875 24.245-11.875 38.514v92.097c-6.919-4.501-15.164-7.128-24.015-7.128h-98.378c1.648-4.883 2.435-10.076 2.289-15.399-.649-23.676-20.728-42.938-44.758-42.938h-49.255c-38.775 0-74.394 13.798-102.205 36.741v-68.006c-.001-18.682 15.198-33.881 33.88-33.881zm-33.881 452v-101.773c28.727 23.722 64.476 36.629 102.212 36.628l138.702-.008c12.027 0 23.271-4.748 31.659-13.37 8.386-8.619 12.823-19.994 12.493-32.029-.123-4.5-.949-8.842-2.37-12.921h9.611c8.852 0 17.096-2.627 24.015-7.128v130.601zm346.323-30v-93.474h45.318c12.433 0 23.675-5.172 31.709-13.468v106.942z"/></g></svg>