<svg id="Layer_1" enable-background="new 0 0 510 510" height="512" viewBox="0 0 510 510" width="512" xmlns="http://www.w3.org/2000/svg"><g><path d="m449.5 0h-389c-33.359 0-60.5 27.141-60.5 60.5v389c0 33.359 27.141 60.5 60.5 60.5h389c33.359 0 60.5-27.141 60.5-60.5v-389c0-33.359-27.141-60.5-60.5-60.5zm30.5 449.5c0 16.817-13.683 30.5-30.5 30.5h-389c-16.817 0-30.5-13.683-30.5-30.5v-389c0-16.817 13.683-30.5 30.5-30.5h389c16.817 0 30.5 13.683 30.5 30.5z"/><path d="m255 60c-107.523 0-195 87.477-195 195s87.477 195 195 195 195-87.477 195-195-87.477-195-195-195zm164.31 210c-3.101 34.25-16.707 65.512-37.57 90.527l-20.675-20.675-21.213 21.213 20.675 20.675c-25.016 20.863-56.277 34.469-90.527 37.57v-29.31h-30v29.311c-34.25-3.102-65.512-16.707-90.527-37.57l20.675-20.675-21.213-21.213-20.675 20.675c-20.864-25.016-34.47-56.278-37.571-90.528h29.311v-30h-29.311c3.101-34.25 16.707-65.512 37.57-90.527l20.675 20.675 21.213-21.213-20.675-20.675c25.016-20.863 56.277-34.469 90.527-37.57v29.31h30v-29.311c34.25 3.102 65.512 16.707 90.527 37.57l-20.675 20.675 21.213 21.213 20.675-20.675c20.863 25.016 34.469 56.277 37.57 90.527h-29.309v30h29.31z"/><path d="m270 180h-30v84.271l68.292 34.145 13.416-26.832-51.708-25.854z"/></g></svg>