<svg id="Capa_1" enable-background="new 0 0 512 512" height="512" viewBox="0 0 512 512" width="512" xmlns="http://www.w3.org/2000/svg"><g><path d="m482 236.445v21c0 3.933-.366 7.799-1.058 11.586-4.154 17.846-20.179 31.187-39.271 31.187h-.342c-22.237 0-40.329-18.092-40.329-40.329v-22.782c.53-74.257-83.699-120.342-145-78.984-61.32-41.361-145.527 4.736-144.999 78.986-.001-.002-.001 22.78-.001 22.78 0 22.237-18.092 40.329-40.329 40.329h-.342c-19.092 0-35.117-13.341-39.271-31.187-.692-3.786-1.058-7.653-1.058-11.586v-21h-30v23.443c0 5.026.54 9.926 1.547 14.656 4.381 23.979 17.968 45.97 39.341 63.174 25.416 20.459 59.016 31.727 94.612 31.727s69.197-11.268 94.612-31.727c10.602-8.534 19.29-18.248 25.888-28.797 6.598 10.549 15.286 20.263 25.888 28.797 25.416 20.459 59.016 31.727 94.612 31.727s69.197-11.268 94.612-31.727c21.373-17.204 34.959-39.195 39.341-63.174 1.007-4.73 1.547-9.63 1.547-14.656v-23.443zm-211 21h-30c0 45.215-47.327 82-105.5 82-18.727 0-36.326-3.817-51.588-10.495 32.469-6.213 57.088-34.809 57.088-69.061v-22.782c-.086-54.755 64.134-84.729 105.161-48.864 0-.001 9.839 8.549 9.839 8.549l9.839-8.55c41.047-35.88 105.253-5.864 105.161 48.866 0-.001 0 22.781 0 22.781 0 34.252 24.619 62.848 57.088 69.062-15.262 6.678-32.861 10.495-51.588 10.495-58.173-.001-105.5-36.786-105.5-82.001z"/></g></svg>