<svg id="Capa_1" enable-background="new 0 0 512 512" height="512" viewBox="0 0 512 512" width="512" xmlns="http://www.w3.org/2000/svg"><path d="m346 90h60v-90c-19.368 0-171.469 0-195 0-57.897 0-105 47.103-105 105v15h60v20.917c0 32.41-9.503 63.795-27.481 90.763-21.274 31.911-32.519 69.05-32.519 107.403v172.917h240v-154.574c0-31.366-12.214-60.854-34.393-83.033-16.513-16.513-25.606-38.467-25.607-61.82v-92.573h30c0 33.084 26.916 60 60 60v-30c-16.542 0-30-13.458-30-30 0-10.492 0-19.508 0-30zm30-60v30h-30v-30zm-85.606 265.606c16.512 16.513 25.606 38.468 25.606 61.82v124.574h-180v-142.917c0-32.41 9.503-63.795 27.481-90.763 13.937-20.906 23.569-44.056 28.555-68.32h63.964v32.574c.001 31.365 12.215 60.854 34.394 83.032zm-34.394-145.606h-60.219c.14-3.019.219-6.047.219-9.083v-20.917h60zm-118.493-60c6.969-34.191 37.274-60 73.493-60h105v60c-21.904 0-163.462 0-178.493 0z"/></svg>