<svg id="Capa_1" enable-background="new 0 0 510 510" height="512" viewBox="0 0 510 510" width="512" xmlns="http://www.w3.org/2000/svg"><g><path d="m465 360v-75h-195v-30h103.412c47.586 0 86.061-37.883 86.061-86.053 0-32.825-18.724-62.541-47.545-76.971-3.069-51.234-45.725-91.976-97.718-91.976-30.149 0-58.718 14.166-77.133 37.631-31.841-7.778-64.632 6.494-81.187 33.868-38.226-4.593-71.581 26.333-69.77 64.82-21.25 10.177-35.594 32.02-35.594 56.312 0 34.39 27.978 62.368 62.368 62.368h127.106v30h-195v75h-45v150h120v-149.999h-45v-45h165v45h-45v150h120v-150h-45v-45h165v45h-45v150h120v-150zm-352.106-135c-17.848 0-32.368-14.52-32.368-32.368 0-15.137 10.721-28.439 25.492-31.63l15.617-3.373-4.351-15.373c-.817-2.889-1.232-5.86-1.232-8.835 0-22.27 22.079-37.921 43.092-30.542l13.799 4.845 5.192-13.673c8.789-23.144 35.543-35.027 58.916-24.885l12.083 5.244 6.762-11.304c12.4-20.73 34.2-33.106 58.314-33.106 38.509 0 69.674 32.243 67.813 71.194l-.532 11.157 10.537 3.707c22.397 7.88 37.445 29.134 37.445 52.889 0 31.555-24.965 56.053-56.061 56.053zm-82.894 255v-30h60v30zm60-60h-60v-30h60zm135 60v-30h60v30zm60-60h-60v-30h60zm195-30v30h-60v-30zm-60 90v-30h60v30z"/></g></svg>