<svg id="Capa_1" enable-background="new 0 0 511.333 511.333" height="512" viewBox="0 0 511.333 511.333" width="512" xmlns="http://www.w3.org/2000/svg"><g id="XMLID_371_"><path id="XMLID_400_" d="m218.354 224.953c10.777-18.092 16.474-38.834 16.474-59.985 0-32.384-12.901-62.541-36.326-84.916-23.413-22.363-54.168-33.866-86.601-32.371-29.128 1.337-56.63 13.535-77.439 34.348-20.808 20.811-33.003 48.315-34.337 77.444-1.066 23.295 4.68 46.093 16.618 65.93 10.582 17.584 16.175 37.923 16.175 58.818v53.004c-6.943 3.79-12.914 9.355-17.275 16.362-8.534 13.714-9.381 30.529-2.265 44.98 5.348 10.861 12.348 20.831 20.804 29.63 21.544 22.422 50.405 35.054 81.265 35.569.666.011 1.328.017 1.994.017 30.628-.001 59.527-11.834 81.373-33.318 9.005-8.855 16.443-18.975 22.109-30.075 7.405-14.509 6.739-31.478-1.782-45.394-4.331-7.072-10.286-12.694-17.232-16.529v-55.64c0-19.805 5.686-39.816 16.445-57.874zm-188.26-64.108c2.042-44.605 38.581-81.148 83.182-83.195 24.176-1.119 47.075 7.449 64.504 24.097 17.441 16.659 27.047 39.112 27.047 63.222 0 15.748-4.235 31.182-12.247 44.631-13.523 22.699-20.671 48.021-20.671 73.228v50.465c-14.437 2.348-27.121 11.458-34.152 24.944-1.105 2.118-2.549 4.062-4.292 5.776-4.42 4.346-10.218 6.685-16.46 6.565-8.293-.139-15.901-5.094-19.854-12.933-6.935-13.75-19.646-23.046-34.232-25.469v-47.955c0-26.346-7.079-52.034-20.471-74.287-8.877-14.75-13.149-31.725-12.354-49.089zm164.109 225.905c-4.197 8.224-9.723 15.733-16.424 22.324-16.2 15.933-37.629 24.707-60.338 24.708-.497 0-.992-.004-1.491-.013-22.812-.381-44.168-9.742-60.135-26.359-6.316-6.572-11.538-14.006-15.521-22.096-2.543-5.165-2.243-10.952.822-15.879 3.122-5.017 8.291-7.894 14.181-7.894 6.304 0 12.078 3.684 15.068 9.611 8.987 17.821 26.667 29.095 46.118 29.419 14.307.303 27.805-5.129 38.016-15.17 3.984-3.917 7.302-8.391 9.86-13.298 3.029-5.81 8.767-9.419 14.981-9.419 8.423 0 12.748 5.578 14.217 7.976 1.452 2.373 4.423 8.69.646 16.09z"/><path id="XMLID_592_" d="m478.415 338.466v-55.64c0-19.804 5.687-39.815 16.444-57.873 10.777-18.091 16.475-38.834 16.475-59.985 0-32.384-12.9-62.541-36.325-84.915-23.414-22.364-54.191-33.864-86.602-32.372-29.128 1.337-56.63 13.535-77.438 34.348-20.81 20.812-33.004 48.315-34.337 77.443-1.067 23.296 4.68 46.094 16.617 65.931 10.582 17.584 16.176 37.924 16.176 58.818v53.003c-6.943 3.79-12.915 9.355-17.275 16.363-8.534 13.714-9.381 30.529-2.266 44.979 5.348 10.862 12.348 20.832 20.804 29.631 21.545 22.422 50.405 35.054 81.265 35.569.666.011 1.329.017 1.994.017h.001c30.628-.001 59.526-11.834 81.373-33.319 9.003-8.854 16.441-18.972 22.109-30.074 7.405-14.509 6.738-31.479-1.782-45.394-4.332-7.073-10.287-12.695-17.233-16.53zm-171.815-177.622c2.042-44.604 38.579-81.147 83.182-83.194 24.167-1.119 47.076 7.449 64.505 24.097 17.441 16.659 27.047 39.112 27.047 63.222 0 15.749-4.235 31.182-12.248 44.631-13.522 22.699-20.671 48.021-20.671 73.228v50.465c-14.436 2.349-27.121 11.458-34.152 24.946-1.104 2.116-2.548 4.059-4.293 5.774-4.419 4.346-10.229 6.687-16.459 6.565-8.294-.139-15.901-5.094-19.854-12.933-6.935-13.75-19.646-23.046-34.232-25.469v-47.955c0-26.345-7.079-52.033-20.472-74.287-8.876-14.75-13.149-31.725-12.353-49.09zm164.109 225.905c-4.199 8.225-9.725 15.735-16.425 22.325-16.201 15.933-37.63 24.707-60.339 24.708-.497 0-.993-.004-1.491-.013-22.812-.381-44.169-9.742-60.136-26.359-6.316-6.572-11.538-14.006-15.521-22.096-2.543-5.165-2.243-10.952.822-15.878 3.121-5.018 8.29-7.895 14.181-7.895 6.305 0 12.079 3.684 15.068 9.611 8.986 17.821 26.666 29.095 46.118 29.419 14.307.272 27.805-5.129 38.015-15.169 3.986-3.919 7.305-8.393 9.861-13.298 3.029-5.811 8.768-9.42 14.982-9.42 8.423 0 12.748 5.578 14.216 7.976 1.455 2.373 4.426 8.69.649 16.089z"/></g></svg>