<svg id="Capa_1" enable-background="new 0 0 512 512" height="512" viewBox="0 0 512 512" width="512" xmlns="http://www.w3.org/2000/svg"><g><path d="m437.02 74.98c-48.353-48.351-112.64-74.98-181.02-74.98s-132.667 26.629-181.02 74.98c-48.351 48.353-74.98 112.64-74.98 181.02s26.629 132.667 74.98 181.02c48.353 48.351 112.64 74.98 181.02 74.98s132.667-26.629 181.02-74.98c48.351-48.353 74.98-112.64 74.98-181.02s-26.629-132.667-74.98-181.02zm-181.02 407.02c-124.617 0-226-101.383-226-226s101.383-226 226-226 226 101.383 226 226-101.383 226-226 226z"/><path d="m354.839 142.449c-32.486 0-58.915 26.429-58.915 58.914h30c0-15.943 12.971-28.914 28.915-28.914s28.915 12.971 28.915 28.914h30c0-32.485-26.429-58.914-58.915-58.914z"/><path d="m151.885 236.11c31.267 0 56.705-25.438 56.705-56.704s-25.438-56.704-56.705-56.704-56.704 25.438-56.704 56.704 25.437 56.704 56.704 56.704zm0-83.408c14.725 0 26.705 11.979 26.705 26.704s-11.979 26.704-26.705 26.704c-14.725 0-26.704-11.979-26.704-26.704s11.979-26.704 26.704-26.704z"/><path d="m102.106 282.872c0 84.857 69.036 153.894 153.894 153.894s153.894-69.036 153.894-153.894v-15h-307.788zm74.555 95.08c21.768-11.465 49.782-17.867 79.339-17.867 29.435 0 57.616 6.501 79.32 17.883-21.505 17.967-49.17 28.798-79.32 28.798-30.159 0-57.831-10.837-79.339-28.814zm202.33-80.08c-2.58 21.294-10.589 40.937-22.59 57.508-27.057-16.224-62.533-25.295-100.401-25.295-37.451 0-73.271 9.127-100.388 25.313-12.008-16.575-20.021-36.224-22.603-57.526z"/></g></svg>