<svg id="Capa_1" enable-background="new 0 0 511.935 511.935" height="512" viewBox="0 0 511.935 511.935" width="512" xmlns="http://www.w3.org/2000/svg"><g><path d="m105.968 285.968v-60c0-24.813-20.187-45-45-45h-45v150h45c24.813 0 45-20.187 45-45zm-60-75h15c8.271 0 15 6.729 15 15v60c0 8.271-6.729 15-15 15h-15z"/><path d="m225.968 210.968v-30h-90v150h90v-30h-60v-30h30v-30h-30v-30z"/><path d="m375.968 330.968v-150h-39.271l-20.729 41.459-20.73-41.459h-39.27v150h30v-101.459l30 60 30-60v101.459z"/><path d="m450.968 180.968c-24.813 0-45 20.187-45 45v60c0 24.813 20.187 45 45 45s45-20.187 45-45v-60c0-24.813-20.187-45-45-45zm15 105c0 8.271-6.729 15-15 15s-15-6.729-15-15v-60c0-8.271 6.729-15 15-15s15 6.729 15 15z"/><path d="m426.314 390.58-147.846 85.359c-13.879 8.013-31.121 8.013-45 0l-147.846-85.359c-7.577-4.375-13.675-10.812-17.633-18.616l-26.755 13.572c6.597 13.005 16.759 23.733 29.388 31.024l147.846 85.359c11.567 6.678 24.531 10.016 37.5 10.016 12.966 0 25.936-3.339 37.5-10.016l147.847-85.359c12.628-7.292 22.79-18.02 29.387-31.024l-26.755-13.572c-3.959 7.803-10.056 14.241-17.633 18.616z"/><path d="m85.621 121.355 147.846-85.359c13.879-8.013 31.121-8.013 45 0l147.846 85.359c7.577 4.375 13.675 10.812 17.633 18.616l26.755-13.572c-6.597-13.005-16.759-23.733-29.388-31.024l-147.845-85.359c-23.13-13.354-51.869-13.354-75 0l-147.847 85.359c-12.628 7.292-22.79 18.02-29.387 31.024l26.755 13.572c3.958-7.803 10.056-14.241 17.632-18.616z"/><path d="m338.466 139.928 15.004-25.978-97.501-56.314-97.502 56.301 15.002 25.979 82.498-47.636z"/></g></svg>