<svg id="Capa_1" enable-background="new 0 0 512 512" height="512" viewBox="0 0 512 512" width="512" xmlns="http://www.w3.org/2000/svg"><path d="m481 255c0-50.149-19.053-97.792-53.648-134.153-19.534-20.534-36.555-39.316-47.051-61.27-8.401-17.573-21.472-32.433-37.799-42.974-16.825-10.862-36.363-16.603-56.502-16.603s-39.677 5.741-56.501 16.603c-16.327 10.541-29.398 25.4-37.799 42.974-10.496 21.954-27.518 40.737-47.051 61.27-34.596 36.361-53.649 84.004-53.649 134.153 0 102.165 78.332 185.531 177.815 194.167-5.91 18.806-23.126 32.833-42.815 32.833h-195v30h195c20.044 0 38.962-8.242 53.269-23.208 10.593-11.081 17.581-24.703 20.365-39.343 100.731-6.918 181.366-90.654 181.366-194.449zm-180 164.234v-30.072c67.406-7.486 120-64.793 120-134.162 0-34.686-13.111-67.956-37.608-93.487-21.965-22.188-55.313-29.973-74.467-10.817-17.843 17.843-13.184 50.456 10.606 74.246 18.974 18.973 49.245 29.506 70.248 14.034.805 5.261 1.221 10.614 1.221 16.024 0 57.897-47.103 105-105 105s-105-47.103-105-105c0-5.414.417-10.771 1.222-16.035 6.709 4.982 14.917 7.416 23.721 7.416 15.352 0 32.496-7.379 46.555-21.438 23.79-23.791 28.449-56.404 10.606-74.247-19.662-19.663-53.05-10.729-74.456 10.824l-.025-.024c-24.114 25.099-37.623 58.276-37.623 93.504 0 69.369 52.594 126.676 120 134.162v30.072c-83.977-7.611-150-78.36-150-164.234 0-42.416 16.117-82.715 45.384-113.476 21.327-22.419 39.989-43.086 52.382-69.008 12.537-26.225 38.299-42.516 67.234-42.516s54.697 16.291 67.234 42.516c12.393 25.922 31.055 46.589 52.382 69.008 29.266 30.76 45.384 71.06 45.384 113.476 0 85.875-66.024 156.625-150 164.234zm71.563-204.898c-4.565 4.564-19.485 1.728-31.819-10.607-12.949-12.95-14.931-27.495-10.606-31.82 4.573-4.571 19.491-1.721 31.819 10.606 11.875 11.901 15.499 26.929 10.606 31.821zm-164.308-29.906c12.276-13.48 28.527-17.631 33.637-12.521 4.325 4.325 2.343 18.871-10.606 31.82-12.95 12.95-27.496 14.932-31.82 10.607-4.411-4.411-2.008-18.005 8.789-29.906z"/></svg>