<svg id="Capa_1" enable-background="new 0 0 512 512" height="512" viewBox="0 0 512 512" width="512" xmlns="http://www.w3.org/2000/svg"><g><path d="m457 35.667h-402c-30.327 0-55 24.673-55 55v256c0 30.327 24.673 55 55 55h99.162c-2.71 5.51-6.911 10.379-12.312 14.027-15.19 10.263-24.26 27.324-24.26 45.639v15h276.82v-15c0-18.314-9.069-35.374-24.26-45.638l-.001-.001c-5.401-3.648-9.601-8.518-12.311-14.027h99.162c30.327 0 55-24.673 55-55v-256c0-30.327-24.673-55-55-55zm25 311c0 13.785-11.215 25-25 25h-402c-13.785 0-25-11.215-25-25v-256c0-13.785 11.215-25 25-25h185.999v27.666h30v-27.666h186c13.785 0 25 11.215 25 25v256zm-128.644 93.886c2.365 1.599 4.406 3.56 6.066 5.779h-206.845c1.661-2.221 3.701-4.181 6.067-5.779 13.888-9.382 23.487-23.317 27.237-38.887h140.239c3.749 15.57 13.348 29.505 27.236 38.887z"/><path d="m255.999 115.667c-61.206 0-111 49.794-111 111s49.794 111 111 111 111-49.794 111-111c.001-61.206-49.793-111-111-111zm-81 111c0-44.663 36.337-81 81-81s81 36.337 81 81-36.337 81-81 81-81-36.337-81-81z"/><path d="m271 178.667h-30.001v33h-33v30h33v33h30.001v-33h33v-30h-33z"/></g></svg>