<svg id="Capa_1" enable-background="new 0 0 512.061 512.061" height="512" viewBox="0 0 512.061 512.061" width="512" xmlns="http://www.w3.org/2000/svg"><path d="m490.828 127.329 21.213-21.213-106.116-106.116-21.213 21.213 42.527 42.527-42.426 42.426-63.64-63.64-21.213 21.213 21.213 21.213-212.133 212.133 21.213 21.213-42.426 42.426 21.694 21.694-109.501 108.315 21.098 21.328 109.617-108.429 20.732 20.732 42.426-42.427 21.213 21.213 212.132-212.132 21.213 21.213 21.213-21.213-63.639-63.64 42.426-42.426zm-318.149 233.396-21.213 21.213-21.213-21.213 21.213-21.213c1.129 1.128-1.507-1.509 21.213 21.213zm211.689-169.263-21.213-21.213-21.213 21.213 21.213 21.212-21.213 21.214-42.427-42.427-21.213 21.213 42.427 42.427-21.213 21.213-21.213-21.213-21.213 21.213 21.213 21.213-21.213 21.213-42.426-42.426-21.213 21.213 42.426 42.426-20.77 20.77c-6.397-6.397-57.253-57.253-63.639-63.639l190.919-190.919 63.639 63.64z"/></svg>