<svg id="Capa_1" enable-background="new 0 0 511.943 511.943" height="512" viewBox="0 0 511.943 511.943" width="512" xmlns="http://www.w3.org/2000/svg"><path d="m436.722 277.472h-10.383c-23.249-65.621-83.387-113.941-155.367-119.885v-9.66c15.674-5.542 27.393-19.507 29.699-36.432 37.325-15.074 71.126-48.87 96.465-97.67l-26.626-13.825c-14.429 27.789-32.427 50.734-52.05 66.356-7.919 6.304-15.996 11.362-24.193 15.19-7.977-12.774-22.157-21.296-38.295-21.296-16.139 0-30.319 8.522-38.296 21.297-8.189-3.824-16.258-8.878-24.169-15.173-19.615-15.609-37.61-38.538-52.039-66.307l-26.621 13.832c25.334 48.758 59.122 82.524 96.426 97.592 2.305 16.927 14.024 30.893 29.699 36.435v9.66c-71.979 5.943-132.117 54.264-155.367 119.885h-10.383c-24.882 0-45.125 20.243-45.125 45.125s20.243 45.125 45.125 45.125h2.554c4.71 28.304 16.078 54.957 33.593 78.294 22.821 30.408 55.306 53.273 91.469 64.383 9.49 3.095 22.446 1.666 31.904-5.431 16.635-11.544 19.601-38.795 4.494-53.839-4.227-4.365-6.554-10.119-6.554-16.202-.276-12.53 11.233-24.172 24.995-23.23 11.466.799 20.932 10.427 21.549 21.917.354 6.569-1.95 12.777-6.485 17.481-14.548 14.213-12.866 41.419 4.748 53.665 9.403 6.917 21.191 8.889 32.34 5.415 35.986-11.222 68.292-34.112 90.967-64.455 17.387-23.266 28.678-49.817 33.37-77.998h2.555c24.882 0 45.125-20.243 45.125-45.125s-20.242-45.124-45.124-45.124zm-180.75-187.222c8.34 0 15.125 6.785 15.125 15.125s-6.785 15.125-15.125 15.125-15.125-6.785-15.125-15.125 6.785-15.125 15.125-15.125zm0 96.717c61.706 0 114.861 37.284 138.138 90.505h-276.276c23.277-53.221 76.432-90.505 138.138-90.505zm120.794 240.795c-18.922 25.32-45.866 44.418-75.867 53.772-4.408 1.243-11.166-3.173-6.561-9.617 10.229-10.608 15.639-25.157 14.845-39.915-1.44-26.773-22.686-48.369-49.42-50.233-29.223-2.847-57.673 22.782-57.082 53.158 0 13.913 5.327 27.078 15 37.069 2.791 2.767 1.605 11.332-6.034 9.725-30.149-9.262-57.241-28.337-76.285-53.712-13.566-18.076-22.702-38.544-27.08-60.287h295.378c-4.359 21.642-13.432 42.025-26.894 60.04zm59.956-90.04h-361.5c-8.34 0-15.125-6.785-15.125-15.125s6.785-15.125 15.125-15.125h361.5c8.34 0 15.125 6.785 15.125 15.125s-6.785 15.125-15.125 15.125z"/></svg>