<svg id="Layer_1" enable-background="new 0 0 509.213 509.213" height="512" viewBox="0 0 509.213 509.213" width="512" xmlns="http://www.w3.org/2000/svg"><path id="XMLID_889_" d="m423.889 170.153c-7.633-7.633-16.114-14.092-25.245-19.33-5.808-19.117-15.843-36.91-29.29-51.787-20.849-23.087-32.331-52.932-32.331-84.036v-15h-15c-49.954 0-82.394 26.384-92.957 74.854-14.436-5.089-27.25-7.251-41.939-7.354l-15.104-.104v15.104c0 18.938-9.034 33.776-16.611 42.887-3.12 3.75-5.967 7.712-8.52 11.831-93.128 17.274-129.505 136.077-61.736 202.64l169.367 169.355 169.368-169.357c46.781-46.793 46.78-122.922-.002-169.703zm-223.295-71.664c10.565 1.539 20.897 4.982 34.113 11.116l19.347 8.981 1.909-21.244c3.622-40.305 20.219-61.72 51.879-66.369 3.363 32.7 17.004 63.538 39.253 88.174 4.922 5.446 9.252 11.395 12.938 17.71-27.35-4.817-54.921.126-77.76 12.399l-6.486 3.484-7.329 43.987 25.772 25.772-39.707 47.649v-24.782l-29.091-29.091 9.009-63.102-9.487-4.889c-12.443-6.411-26.046-10.585-39.983-12.338 6.603-9.712 12.89-22.318 15.623-37.457zm202.082 220.154-148.153 148.144-148.152-148.142c-35.087-35.095-35.087-92.192-.001-127.278 25.883-25.882 63.279-32.597 95.263-20.649l-8.019 56.167 30.909 30.909v95.218l110.293-132.352-34.229-34.228 2.312-13.873c91-38.393 169.017 75.005 99.777 146.084z"/></svg>