<svg id="Capa_1" enable-background="new 0 0 512 512" height="512" viewBox="0 0 512 512" width="512" xmlns="http://www.w3.org/2000/svg"><g><path d="m469.974 33.758-33.757-33.758h-360.434l-33.757 33.757v53.883h29.974v122.624c0 72.154 42.498 137.991 108.269 167.726 17.211 7.781 28.332 25.253 28.332 44.511v89.499h94.799v-89.5c0-19.258 11.121-36.73 28.333-44.511 65.769-29.735 108.267-95.571 108.267-167.725v-122.624h29.974zm-231.399 448.268v-38.473h34.851v38.473zm80.808-131.349c-25.213 11.399-42.365 35.499-45.453 62.901h-35.861c-3.088-27.403-20.24-51.502-45.453-62.901-55.064-24.895-90.643-80.01-90.643-140.414v-61.267h308.053v61.267c0 60.404-35.579 115.52-90.643 140.414zm90.643-231.654h-308.052v-31.383h308.053v31.383zm29.974-61.357h-368v-11.493l16.199-16.199h335.603l16.198 16.199z"/></g></svg>