<svg id="Capa_1" enable-background="new 0 0 512 512" height="512" viewBox="0 0 512 512" width="512" xmlns="http://www.w3.org/2000/svg"><g><path d="m497 121c-8.271 0-15-6.729-15-15v-15h-136v15c0 8.271-6.729 15-15 15s-15-6.729-15-15v-15h-120v15c0 8.271-6.729 15-15 15s-15-6.729-15-15v-15h-136v15c0 8.271-6.729 15-15 15h-15v300h512v-300zm-15 270h-452v-242.57c12.768-4.527 22.903-14.662 27.43-27.43h81.141c6.191 17.461 22.874 30 42.43 30s36.239-12.539 42.43-30h65.141c6.191 17.461 22.874 30 42.43 30s36.239-12.539 42.43-30h81.141c4.527 12.768 14.662 22.903 27.43 27.43v242.57z"/><path d="m114.363 153.547-8.363-5.616-8.363 5.616c-3.75 2.519-36.637 25.527-36.637 57.453v150h90v-150c0-31.926-32.887-54.934-36.637-57.453zm6.637 177.453h-30v-120c0-9.222 7.975-19.021 14.988-25.652 6.901 6.534 15.012 16.366 15.012 25.652z"/><path d="m264.363 153.547-8.363-5.616-8.363 5.616c-3.75 2.519-36.637 25.527-36.637 57.453v150h90v-150c0-31.926-32.887-54.934-36.637-57.453zm6.637 177.453h-30v-120c0-9.222 7.975-19.021 14.988-25.652 6.901 6.534 15.012 16.366 15.012 25.652z"/><path d="m414.363 153.547-8.363-5.616-8.363 5.616c-3.75 2.519-36.637 25.527-36.637 57.453v150h90v-150c0-31.926-32.887-54.934-36.637-57.453zm6.637 177.453h-30v-120c0-9.222 7.975-19.021 14.988-25.652 6.901 6.534 15.012 16.366 15.012 25.652z"/></g></svg>