<svg id="Capa_1" enable-background="new 0 0 510 510" height="512" viewBox="0 0 510 510" width="512" xmlns="http://www.w3.org/2000/svg"><g><path d="m480 0h-450v30h182.58c-4.197 11.836-3.318 25.177 2.951 36.591l-59.593 113.409h-20.938v255.01c0 41.35 33.64 74.99 74.989 74.99h90.021c41.35 0 74.99-33.641 74.99-74.99v-255.01h-20.938l-59.593-113.408c6.255-11.388 7.159-24.725 2.951-36.592h182.58zm-135 210v105h-180v-105zm0 135v30h-180v-30zm-106.273-258.058c.422.164.845.325 1.273.478v92.58h-50.173zm61.284 393.058h-90.021c-24.808 0-44.99-20.183-44.99-44.99v-30.01h180v30.01c0 24.807-20.182 44.99-44.989 44.99zm-30.011-300v-92.58c.428-.152.851-.313 1.273-.478l48.9 93.058zm0-135c0 8.271-6.729 15-15 15s-15-6.729-15-15 6.729-15 15-15 15 6.729 15 15z"/></g></svg>