<svg id="Capa_1" enable-background="new 0 0 512 512" height="512" viewBox="0 0 512 512" width="512" xmlns="http://www.w3.org/2000/svg"><g><path d="m422 258.076v-76.076h-60v-76c0-58.448-47.551-106-106-106s-106 47.552-106 106v76h-60v76.076c-50.816 7.301-90 51.119-90 103.924v150h512v-150c0-52.805-39.184-96.623-90-103.924zm-30-46.076v45h-30v-45zm-212 45v-45h152v45zm0-151c0-41.906 34.093-76 76-76s76 34.094 76 76v76h-152zm-60 106h30v45h-30zm-30 270h-60v-120c0-36.219 25.809-66.523 60-73.493zm90-76v-30h152v30c0 41.906-34.093 76-76 76s-76-34.094-76-76zm149.81 76c19.84-19.274 32.19-46.22 32.19-76v-60h-212v60c0 29.78 12.349 56.726 32.19 76h-62.19v-195h182v29.353h30v-29.353h60v195zm152.19 0h-60v-193.493c34.191 6.97 60 37.274 60 73.493z"/></g></svg>