<svg id="Capa_1" enable-background="new 0 0 512 512" height="512" viewBox="0 0 512 512" width="512" xmlns="http://www.w3.org/2000/svg"><g><path d="m512 135v-105h-512v105h30v32.58c-17.459 6.192-30 22.865-30 42.42v272h512v-272c0-19.555-12.541-36.228-30-42.42v-32.58zm-482-75h452v45h-452zm452 392h-452v-242c0-8.271 6.729-15 15-15h422c8.271 0 15 6.729 15 15zm-30-287h-392v-30h392z"/><path d="m121 263.5c0 74.439 60.561 135 135 135s135-60.561 135-135v-15h-270zm150 36.213 47.846 47.845c-13.743 10.301-30.082 17.318-47.846 19.87zm-30 67.715c-17.763-2.552-34.102-9.568-47.846-19.87l47.846-47.845zm99.059-41.083-47.846-47.845h67.719c-2.552 17.764-9.572 34.102-19.873 47.845zm-120.272-47.845-47.846 47.845c-10.301-13.744-17.321-30.082-19.873-47.845z"/></g></svg>