<svg id="Capa_1" enable-background="new 0 0 512 512" height="512" viewBox="0 0 512 512" width="512" xmlns="http://www.w3.org/2000/svg"><g><path d="m212 92h-30c0 33.084 26.916 60 60 60v-30c-16.542 0-30-13.458-30-30z"/><path d="m182 347h30c0-16.542 13.458-30 30-30v-30c-33.084 0-60 26.916-60 60z"/><path d="m377 332h30v30h-30z"/><path d="m347 392h30v30h-30z"/><path d="m407 392h30v30h-30z"/><path d="m392 272c-3.42 0-6.804.152-10.152.434 6.673-18.855 10.152-39.3 10.152-60.434 0-51.31-21.583-104.29-63.599-132.205-12.165-45.602-53.45-79.795-101.401-79.795-58.621 0-105 49.576-105 107 0 21.02 6.173 42.302 16.761 60h-46.761v-167h-92v512h92v-255h46.761c-10.588 17.698-16.761 38.98-16.761 60 0 57.897 47.103 105 105 105 16.307 0 32.193-3.767 46.532-10.864 9.191 57.104 58.812 100.864 118.468 100.864 66.168 0 120-53.832 120-120s-53.832-120-120-120zm-240 45c0-24.243 11.415-49.68 28.403-63.295l33.323-26.705h-151.726v255h-32v-452h32v167h151.726l-33.322-26.705c-16.989-13.615-28.404-39.052-28.404-63.295 0-41.738 34.346-77 75-77 34.804 0 66.403 26.734 73.501 62.186l1.324 6.614 5.828 3.398c33.014 19.253 54.347 62.352 54.347 109.802 0 25.246-5.833 49.176-16.904 69.55-38.275 16.315-66.402 51.966-72.05 94.614-13.121 10.237-29.266 15.836-46.046 15.836-41.355 0-75-33.645-75-75zm240 165c-49.626 0-90-40.374-90-90s40.374-90 90-90 90 40.374 90 90-40.374 90-90 90z"/><path d="m297.607 254.427c-11.333-11.333-17.574-26.4-17.574-42.427s6.241-31.094 17.574-42.427l-21.214-21.213c-16.999 16.999-26.36 39.6-26.36 63.64s9.361 46.641 26.36 63.64z"/></g></svg>