<?xml version="1.0" encoding="iso-8859-1"?>
<!-- Generator: Adobe Illustrator 19.0.0, SVG Export Plug-In . SVG Version: 6.00 Build 0)  -->
<svg xmlns="http://www.w3.org/2000/svg" xmlns:xlink="http://www.w3.org/1999/xlink" version="1.1" id="Layer_1" x="0px" y="0px" viewBox="0 0 512 512" style="enable-background:new 0 0 512 512;" xml:space="preserve">
<g>
	<g>
		<path d="M415.706,247.959c5.526-13.09,8.403-27.287,8.341-41.924c-0.111-26.571-9.87-51.616-27.597-71.143    c-8.566-44.068-36.219-78.405-73.016-90.212c-57.176-18.331-104.457,4.285-123.772,16.127    c-19.316-11.843-66.595-34.455-123.765-16.126C43.903,54.944,18.825,81.809,7.092,118.39    C-8.256,166.244,1.639,220.425,33.56,263.324c13.478,18.124,22.59,38.083,27.081,59.317c2.008,9.52,3.758,20.015,5.199,31.193    c9.909,76.862,29.814,117.32,59.159,120.252c17.432,1.743,31.75-12.28,42.525-41.678c7.309-19.939,13.064-46.617,16.206-75.116    c2.153-19.501,7.387-30.324,11.4-35.971c1.441-2.03,3.46-2.333,4.535-2.333c1.075,0,3.094,0.303,4.537,2.336    c4.012,5.646,9.244,16.469,11.389,35.969c3.146,28.502,8.904,55.179,16.213,75.115c10.181,27.774,23.51,41.824,39.655,41.822    c0.944,0,1.9-0.048,2.863-0.145c29.353-2.931,49.26-43.39,59.169-120.251c1.444-11.2,3.193-21.691,5.198-31.179    c0.875-4.142,1.963-8.266,3.206-12.344c6.114-1.43,12.065-3.398,17.8-5.875l96.296,95.494L512,343.452L415.706,247.959z     M309.341,316.454c-2.171,10.266-4.055,21.553-5.602,33.543c-9.263,71.848-25.519,91.918-31.601,94.049    c-2.339-1.753-8.101-9.033-14.234-27.977c-5.517-17.043-9.953-39.086-12.49-62.064c-2.286-20.79-7.923-37.633-16.752-50.059    c-6.654-9.368-17.494-14.963-28.995-14.963s-22.341,5.593-28.993,14.96c-8.827,12.422-14.468,29.263-16.764,50.057    c-2.533,22.984-6.967,45.029-12.485,62.073c-6.134,18.947-11.897,26.223-14.235,27.972c-6.078-2.126-22.33-22.194-31.594-94.051    c-1.544-11.965-3.428-23.253-5.601-33.556c-5.395-25.505-16.283-49.4-32.363-71.023c-26.155-35.148-34.368-79.21-21.971-117.864    c8.737-27.243,26.743-47.036,49.398-54.303c24.139-7.739,49.043-7.255,74.02,1.437c19.175,6.673,31.223,15.932,31.299,15.99    l9.242,7.354l9.286-7.318c0.119-0.093,12.169-9.351,31.347-16.025c24.98-8.693,49.886-9.176,74.021-1.438    c16.229,5.208,30.043,16.963,39.764,33.021c-11.581-4.227-23.933-6.436-36.623-6.436c-0.15,0-0.307,0-0.458,0.001    c-28.486,0.119-55.222,11.324-75.28,31.551c-20.06,20.227-31.041,47.055-30.922,75.542c0.119,28.486,11.323,55.222,31.551,75.281    c18.393,18.24,42.24,28.967,67.833,30.675C309.861,314.072,309.593,315.262,309.341,316.454z M371.819,260.456    c-14.416,14.534-33.628,22.586-54.098,22.671c-0.111,0.001-0.22,0.001-0.331,0.001c-20.351,0-39.502-7.884-53.961-22.224    c-14.538-14.417-22.591-33.63-22.676-54.104c-0.086-20.473,7.807-39.753,22.223-54.291c14.417-14.537,33.631-22.59,54.104-22.676    c0.11-0.001,0.22-0.001,0.33-0.001c20.351,0,39.502,7.884,53.961,22.224c14.537,14.416,22.591,33.63,22.676,54.104    c0.086,20.471-7.805,39.749-22.218,54.286L371.819,260.456z M455.814,357.502l-69.566-68.989l13.757-13.872l69.567,68.988    L455.814,357.502z"/>
	</g>
</g>
<g>
</g>
<g>
</g>
<g>
</g>
<g>
</g>
<g>
</g>
<g>
</g>
<g>
</g>
<g>
</g>
<g>
</g>
<g>
</g>
<g>
</g>
<g>
</g>
<g>
</g>
<g>
</g>
<g>
</g>
</svg>
