<svg id="Capa_1" enable-background="new 0 0 512 512" height="512" viewBox="0 0 512 512" width="512" xmlns="http://www.w3.org/2000/svg"><g><path d="m286 129.74h30v30h-30z"/><path d="m196 129.74h30v30h-30z"/><path d="m442.91 0c-34.002 0-66.44 12.769-91.189 35.466-24.469-21.891-58.344-35.466-95.721-35.466s-71.252 13.575-95.721 35.466c-24.749-22.697-57.187-35.466-91.189-35.466h-69.09v216.68c0 18.772 7.183 36.539 20.224 50.024 13.684 14.158 32.061 21.956 51.747 21.956 20.072 0 39.378-8.473 52.969-23.245l23.489-25.532c2.488 2.66 5.129 5.215 7.919 7.651l27.515 24.019-19.438 24.206c-13.101 16.314-32.617 25.672-53.542 25.672v30c30.067 0 58.108-13.445 76.934-36.888l4.657-5.799 15.329 203.256h96.394l15.331-203.258 4.657 5.799c18.825 23.443 46.867 36.889 76.934 36.889v-30c-20.925 0-40.441-9.357-53.542-25.673l-19.437-24.205 27.515-24.019c2.789-2.435 5.43-4.99 7.918-7.65l23.489 25.533c13.591 14.771 32.897 23.244 52.969 23.244 19.686 0 38.063-7.798 51.744-21.953 13.042-13.488 20.225-31.255 20.225-50.027v-216.68zm39.09 30v30.29h-45.747l-.743.074c-19.483 1.944-37.315 11.406-49.846 26.211-3.314-10.143-8.093-19.736-14.125-28.584 19.304-17.909 44.72-27.991 71.371-27.991zm-412.91 0c26.651 0 52.068 10.082 71.37 27.991-6.032 8.848-10.811 18.442-14.125 28.584-12.528-14.803-30.362-24.266-49.846-26.21l-.743-.074h-45.746v-30.291zm33.771 215.104c-8.042 8.742-19.013 13.557-30.891 13.557-11.479 0-22.195-4.547-30.177-12.807-7.605-7.865-11.793-18.226-11.793-29.174v-126.39h44.2c12.69 1.463 24.166 8.224 31.565 18.622l15.235 21.427v42.18c0 14.545 3.469 28.892 9.93 42.073zm132.764 236.896-2.268-30.073h45.286l-2.268 30.073zm100.3-257.066-42.991 37.528-12.028 159.465h-49.811l-12.028-159.465-42.991-37.528c-16.171-14.117-25.076-32.731-25.076-52.414v-52.52c0-49.626 47.103-90 105-90s105 40.374 105 90v52.52c0 19.683-8.905 38.297-25.075 52.414zm134.279 20.922c-7.979 8.257-18.696 12.804-30.174 12.804-11.877 0-22.848-4.814-30.891-13.556l-28.07-30.511c6.462-13.181 9.93-27.529 9.93-42.073v-42.18l15.231-21.422c7.403-10.403 18.878-17.164 31.568-18.627h44.202v126.39c0 10.947-4.188 21.308-11.796 29.175z"/></g></svg>