<svg id="Capa_1" enable-background="new 0 0 513.474 513.474" height="512" viewBox="0 0 513.474 513.474" width="512" xmlns="http://www.w3.org/2000/svg"><g><path d="m513.474 211.104-256.737-210.058-256.737 210.058 18.997 23.219 31.692-25.93v304.034h412.096v-304.034l31.692 25.93zm-80.689 271.323h-352.096v-298.58l176.048-144.039 176.048 144.039z"/><path d="m210.623 189.521c-18.09.931-35.44 8.774-48.853 22.084s-21.389 30.598-22.458 48.679c-1.203 20.328 6.273 39.877 21.619 56.532l95.806 95.824 10.606-10.606 78.099-77.513 7.099-7.702c15.345-16.65 22.821-36.196 21.62-56.525-1.068-18.082-9.042-35.371-22.453-48.683s-30.759-21.157-48.849-22.09c-16.28-.839-32.009 3.876-46.122 13.721-14.107-9.844-29.841-14.561-46.114-13.721zm46.114 180.693-30.787-30.787h61.574zm73.765-73.749c-.587.54-12.392 12.391-12.978 12.962h-121.573l-13.152-13.152c-4.483-4.915-8.136-10.659-10.524-16.848h168.927c-2.419 6.269-6.137 12.082-10.7 17.038zm-84.014-62.991 10.247 9.589 10.249-9.587c16.444-15.382 42.484-21.524 63.591-.573 5.301 5.262 8.894 10.848 11.063 16.524h-169.8c2.169-5.678 5.76-11.265 11.063-16.527 21.112-20.949 47.148-14.806 63.587.574z"/></g></svg>