<svg id="Capa_1" enable-background="new 0 0 512 512" height="512" viewBox="0 0 512 512" width="512" xmlns="http://www.w3.org/2000/svg"><g><path d="m431.247 297.176c19.502-34.479 30.891-75.601 30.891-115.437v-47.574h-23.072c-3.605-34.523-30.573-62.2-64.776-66.863-10.849-29.007-38.93-49.048-70.689-49.048-8.681 0-17.321 1.514-25.461 4.426-13.288-10.592-29.939-16.515-47.072-16.515-17.132 0-33.784 5.923-47.072 16.515-8.14-2.912-16.78-4.426-25.461-4.426-31.759 0-59.84 20.041-70.688 49.048-34.203 4.663-61.171 32.34-64.776 66.863h-23.071v47.574c0 39.836 10.308 79.116 29.81 113.595 16.268 28.762 38.693 53.831 65.376 73.278-4.06 9.902-6.316 20.727-6.316 32.074v40.811h219.94c16.158 37.764 53.667 64.301 97.266 64.337 58.172.048 105.084-46.134 105.913-104.301.717-50.388-33.977-92.947-80.742-104.357zm-333.203-200.567 13.479.24 2.477-12.233c4.266-21.069 22.996-36.362 44.536-36.362 18.631 0 31.487 10.731 31.487 10.731l7.86-8.401c8.698-9.298 20.484-14.419 33.186-14.419 12.701 0 24.486 5.12 33.185 14.418l7.859 8.402s13.054-10.731 31.489-10.731c21.54 0 40.271 15.293 44.536 36.362l2.477 12.233 13.468-.24c22.35.018 40.963 16.258 44.708 37.556h-355.445c3.747-21.309 22.374-37.556 44.698-37.556zm322.002 153.866c-30.164-13.757-48.619-44.94-45.558-78.619l.699-7.691h56.951v17.574c0 23.527-4.139 46.821-12.092 68.736zm-301.744-78.618.7-7.692h96.042l.699 7.691c3.167 34.845-16.684 67.034-48.721 79.999-32.037-12.966-51.888-45.155-48.72-79.998zm128.093-.001.699-7.691h96.042l.699 7.691c3.168 34.843-16.684 67.033-48.721 79.998-32.032-12.967-51.886-45.156-48.719-79.998zm-216.395-7.691h56.951l.699 7.691c3.061 33.678-15.393 64.861-45.558 78.619-7.952-21.916-12.092-45.209-12.092-68.736zm24.418 113.636s37.324-26.588 48.557-43.764c13.349 20.41 40.91 41.896 64.046 49.607 23.137-7.712 50.698-29.198 64.047-49.608 13.348 20.41 40.91 41.897 64.046 49.608 23.137-7.712 50.703-29.068 64.051-49.478 0 0 0 0-.004-.13l.004.13c11.232 17.176 29.974 35.132 48.553 43.635-.502.921-7.114 12.188-10.193 16.718-36.586 2.97-67.969 24.625-84.568 55.387h-192.14c-26.756-17.585-50.642-44.247-66.399-72.105zm64.452 122.885c0-7.353 1.465-14.367 4.103-20.78h179.28c-1.256 6.508-1.922 13.224-1.922 20.094 0 3.885.217 7.72.627 11.498h-182.088zm211.461-.686c0-41.815 34.018-75.835 75.834-75.835 15.495 0 29.914 4.68 41.934 12.689l-105.08 105.079c-8.009-12.02-12.688-26.438-12.688-41.933zm33.9 63.146 105.08-105.08c8.008 12.021 12.689 26.439 12.689 41.934 0 41.815-34.02 75.835-75.835 75.835-15.496 0-29.914-4.68-41.934-12.689z"/></g></svg>