<svg id="Capa_1" enable-background="new 0 0 512.194 512.194" height="512" viewBox="0 0 512.194 512.194" width="512" xmlns="http://www.w3.org/2000/svg"><g><path d="m256.152 121.097c-81.261 0-185.702 69.618-244.303 124.005l-11.849 10.995 11.849 10.995c58.137 53.957 162.622 124.005 244.303 124.005 81.521 0 186.065-70.009 244.208-124.009l11.835-10.991-11.835-10.991c-57.766-53.649-162.442-124.009-244.208-124.009zm-117.593 201.243c-40.753-23.249-75.841-51.148-93.709-66.243 17.867-15.095 52.956-42.994 93.709-66.243-11.075 19.583-17.407 42.186-17.407 66.243s6.332 46.661 17.407 66.243zm117.593 38.757c-57.843 0-105-47.055-105-105 0-57.852 47.062-105 105-105 41.355 0 75 33.645 75 75s-33.645 75-75 75c-24.813 0-45-20.187-45-45s20.187-45 45-45c8.271 0 15 6.729 15 15s-6.729 15-15 15c-4.007 0-7.774-1.561-10.607-4.394l-21.212 21.214c8.5 8.499 19.8 13.18 31.819 13.18 24.813 0 45-20.187 45-45s-20.187-45-45-45c-41.355 0-75 33.645-75 75s33.645 75 75 75c52.804 0 96.623-39.184 103.924-90 .704 4.901 1.076 9.907 1.076 15 0 57.852-47.063 105-105 105zm117.608-38.784c11.065-19.576 17.392-42.169 17.392-66.215s-6.327-46.639-17.392-66.215c40.714 23.245 75.76 51.129 93.603 66.215-17.844 15.086-52.889 42.97-93.603 66.215z"/></g></svg>