<?xml version="1.0" encoding="iso-8859-1"?>
<!-- Generator: Adobe Illustrator 19.0.0, SVG Export Plug-In . SVG Version: 6.00 Build 0)  -->
<svg xmlns="http://www.w3.org/2000/svg" xmlns:xlink="http://www.w3.org/1999/xlink" version="1.1" id="Layer_1" x="0px" y="0px" viewBox="0 0 512 512" style="enable-background:new 0 0 512 512;" xml:space="preserve">
<g>
	<g>
		<path d="M443.222,47.826L443.222,47.826H380.65V0h-31.347v47.826H164.855V0h-31.347v47.826H68.778V325.46h132.023l-84.353,155.193    h-10.425V512h53.408v-31.347h-7.306l34.717-63.873h138.315l34.717,63.873h-5.776V512h53.409v-31.347h-11.956L311.199,325.46    h132.023V47.826z M203.88,385.434l32.598-59.974h39.043l32.598,59.974H203.88z M411.875,294.113h-311.75V79.173h311.75V294.113z"/>
	</g>
</g>
<g>
	<g>
		<polygon points="234.272,149.618 215.827,149.618 199.674,175.149 183.522,149.618 164.972,149.618 190.607,187.134     165.805,223.608 184.355,223.608 199.674,199.118 214.993,223.608 233.439,223.608 208.636,187.134   "/>
	</g>
</g>
<g>
	<g>
		<polygon points="263.137,179.944 263.137,169.106 248.131,169.106 248.131,179.944 238.335,179.944 238.335,193.283     248.131,193.283 248.131,204.122 263.137,204.122 263.137,193.283 273.037,193.283 273.037,179.944   "/>
	</g>
</g>
<g>
	<g>
		<polygon points="328.374,149.618 312.221,183.591 296.277,149.618 296.277,149.619 277.728,149.619 303.677,198.181     303.677,223.608 320.662,223.608 320.662,198.388 347.027,149.618   "/>
	</g>
</g>
<g>
</g>
<g>
</g>
<g>
</g>
<g>
</g>
<g>
</g>
<g>
</g>
<g>
</g>
<g>
</g>
<g>
</g>
<g>
</g>
<g>
</g>
<g>
</g>
<g>
</g>
<g>
</g>
<g>
</g>
</svg>
