<svg id="Capa_1" enable-background="new 0 0 512 512" height="512" viewBox="0 0 512 512" width="512" xmlns="http://www.w3.org/2000/svg"><g><path d="m512 49.455c0-27.269-22.186-49.455-49.455-49.455s-49.455 22.186-49.455 49.455c0 21.434 13.71 39.72 32.818 46.567-4.269 18.081-16.554 33.097-32.897 41.055-12.659-77.256-79.876-136.397-160.658-136.397-85.506 0-155.827 66.257-162.321 150.125-33.189 14.154-55.564 47.277-55.564 83.995v5.343c-19.964 6.364-34.468 25.082-34.468 47.128 0 27.269 22.186 49.454 49.455 49.454 27.27 0 49.455-22.186 49.455-49.454 0-22.047-14.504-40.764-34.469-47.128v-5.343c0-20.399 10.277-39.144 26.439-50.395 8.329 64.669 54.75 117.568 115.962 135.417l-5.213 139.764c-.454 13.864 4.608 26.989 14.254 36.956 9.647 9.969 22.599 15.458 36.47 15.458s26.823-5.49 36.47-15.458c9.646-9.968 14.709-23.093 14.253-36.983l-4.836-139.849c65.959-19.407 114.647-79.537 116.84-151.173 31.645-10.553 55.629-37.999 61.21-71.586 20.601-5.972 35.71-24.996 35.71-47.496zm-462.545 257.298c-10.742 0-19.482-8.74-19.482-19.482 0-10.743 8.74-19.483 19.482-19.483 10.743 0 19.483 8.74 19.483 19.483 0 10.742-8.74 19.482-19.483 19.482zm223.666 153.815c.186 5.676-1.886 11.049-5.835 15.131-3.949 4.081-9.253 6.329-14.932 6.329s-10.982-2.248-14.932-6.328c-3.949-4.081-6.022-9.455-5.838-15.063l5.039-135.094c5.178.499 10.424.763 15.731.763 5.431 0 10.8-.273 16.096-.795zm-20.768-164.236c-73.249 0-132.841-59.591-132.841-132.84s59.592-132.84 132.841-132.84c66.359 0 121.509 48.91 131.296 112.574h-32.142c-9.412-46.121-50.294-80.929-99.154-80.929-55.799 0-101.195 45.396-101.195 101.194 0 55.799 45.396 101.195 101.195 101.195 52.524 0 95.825-40.226 100.726-91.488h31.757c-4.987 68.735-62.499 123.134-132.483 123.134zm70.543-123.133c-4.751 34.694-34.565 61.515-70.543 61.515-39.272 0-71.223-31.95-71.223-71.222s31.95-71.222 71.223-71.222c32.232 0 59.516 21.529 68.268 50.957h-65.107v29.972zm139.649-104.262c-10.743 0-19.483-8.74-19.483-19.482 0-10.743 8.74-19.483 19.483-19.483s19.483 8.74 19.483 19.483c0 10.742-8.74 19.482-19.483 19.482z"/></g></svg>