<svg id="Capa_1" enable-background="new 0 0 512 512" height="512" viewBox="0 0 512 512" width="512" xmlns="http://www.w3.org/2000/svg"><g><path d="m223.156 159.954-4.876-10.92v-119.034h18.852v-30h-140.784v30h18.852v119.034l-4.876 10.92c-4.67 10.458-9.266 20.138-13.711 29.499-18.979 39.974-35.369 74.495-35.369 126.518v196.029h210.993v-196.029c0-52.022-16.391-86.544-35.369-126.518-4.445-9.361-9.042-19.041-13.712-29.499zm-34.876-129.954v47.111h-43.08v-47.111zm-64.567 172.32c4.519-9.517 9.19-19.357 14.003-30.134l7.484-16.758v-48.317h43.08v48.317l7.484 16.758c4.813 10.776 9.484 20.617 14.003 30.134 18.543 39.055 32.014 67.461 32.449 111.461h-27.189c-13.121-12.01-30.363-18.781-48.287-18.781s-35.166 6.771-48.287 18.781h-27.189c.435-44 13.906-72.406 32.449-111.461zm7.664 141.461 4.47-4.981c7.871-8.77 19.131-13.8 30.893-13.8s23.022 5.03 30.893 13.8l4.47 4.981h40.133v45.438h-40.133l-4.47 4.981c-7.871 8.77-19.131 13.8-30.893 13.8s-23.022-5.03-30.893-13.8l-4.47-4.981h-40.134v-45.438zm-40.134 138.219v-62.781h27.209c13.122 12.01 30.364 18.781 48.288 18.781s35.166-6.771 48.287-18.781h27.209v62.781z"/><path d="m450.757 317.868v-213.134h-138.904v213.134c0 33.145 23.345 60.925 54.452 67.802v96.33h-47v30h124v-30h-47v-96.329c31.107-6.878 54.452-34.658 54.452-67.803zm-108.904 0v-183.134h78.903v183.134c0 21.754-17.698 39.452-39.452 39.452s-39.451-17.698-39.451-39.452z"/></g></svg>