<svg id="Capa_1" enable-background="new 0 0 512 512" height="512" viewBox="0 0 512 512" width="512" xmlns="http://www.w3.org/2000/svg"><g><path d="m451.004 195c0-107.523-87.477-195-195-195s-195 87.477-195 195 87.477 195 195 195 195-87.477 195-195zm-195 165c-90.981 0-165-74.019-165-165s74.019-165 165-165 165 74.019 165 165-74.018 165-165 165z"/><path d="m301.004 270c-14.557 0-31.436-9.024-36.68-12.481-2.689-1.793-27.038-17.519-53.32-17.519s-50.631 15.726-53.32 17.519l-12.448 8.299 16.566 24.918c4.54-2.717 27.299-20.736 49.203-20.736 14.557 0 31.436 9.024 36.68 12.481 2.689 1.793 27.038 17.519 53.32 17.519s50.631-15.726 53.32-17.519l12.448-8.299-16.566-24.918c-4.54 2.717-27.299 20.736-49.203 20.736z"/><path d="m181.004 210c24.813 0 45-20.187 45-45s-20.187-45-45-45-45 20.187-45 45 20.187 45 45 45zm0-60c8.271 0 15 6.729 15 15s-6.729 15-15 15-15-6.729-15-15 6.729-15 15-15z"/><path d="m331.004 120c-24.813 0-45 20.187-45 45s20.187 45 45 45 45-20.187 45-45-20.187-45-45-45zm0 60c-8.271 0-15-6.729-15-15s6.729-15 15-15 15 6.729 15 15-6.729 15-15 15z"/><path d="m450.409 421.916c-19.967-20.582-46.392-31.916-74.405-31.916h-120-120c-28.013 0-54.438 11.334-74.405 31.916-37.638 38.793-29.523 83.205-30.595 90.084h450c-1.07-6.873 6.985-51.352-30.595-90.084zm-387.909 60.084c7.018-34.851 37.833-62 73.504-62h240c35.672 0 66.487 27.149 73.504 62z"/></g></svg>