<svg id="Capa_1" enable-background="new 0 0 512.048 512.048" height="512" viewBox="0 0 512.048 512.048" width="512" xmlns="http://www.w3.org/2000/svg"><g><path d="m464.317 48.947-115.241-48.923h-186.104l-115.241 48.923-47.731 155.67 75.024 31.392v276.016h362v-276.016l75.024-31.392zm11.083 138.484-38.376 16.056v-71.037c0-13.955 3.271-27.4 9.409-39.493zm-150.188-157.407-4.445 13.336c-9.304 27.911-35.322 46.664-64.743 46.664s-55.439-18.753-64.743-46.664l-4.445-13.336zm-288.564 157.407 28.967-94.474c6.138 12.094 9.409 25.538 9.409 39.493v71.037zm370.376 294.593h-302v-349.573c0-24.092-7.214-47.071-20.606-66.487l72.513-30.784 5.889 17.666c13.394 40.182 50.85 67.178 93.204 67.178s79.81-26.996 93.204-67.178l5.889-17.666 72.513 30.784c-13.393 19.416-20.606 42.395-20.606 66.487z"/><path d="m256.024 165.024c-36.99 0-67.083 30.094-67.083 67.083 0 31.832 22.294 58.537 52.083 65.371v31.712h-30v30h30v30h30v-30h30v-30h-30v-31.712c29.789-6.834 52.083-33.539 52.083-65.371 0-36.989-30.093-67.083-67.083-67.083zm0 104.166c-20.448 0-37.083-16.636-37.083-37.083s16.635-37.083 37.083-37.083c20.447 0 37.083 16.636 37.083 37.083s-16.635 37.083-37.083 37.083z"/></g></svg>