<svg id="Capa_1" enable-background="new 0 0 510.001 510.001" height="512" viewBox="0 0 510.001 510.001" width="512" xmlns="http://www.w3.org/2000/svg"><g><path d="m509.876 300.112-8.443-143.53c-2.196-37.335-33.212-66.581-70.612-66.581h-26.896c-7.301-50.816-51.12-90-103.924-90h-90c-57.633 0-104.563 46.675-104.99 104.209l-2.799 30.791h-74.507l11.105 77.738c3.902 27.318 24.257 49.482 51.277 55.609l-10.565 116.22c-1.209 13.297 2.106 26.572 9.192 37.696-25.192 7.118-43.714 30.297-43.714 57.737v30h420v-30c0-27.439-18.522-50.619-43.716-57.736 7.086-11.124 10.401-24.399 9.193-37.696l-.87-9.567h9.656c40.585-.001 73.014-34.064 70.613-74.89zm-139.153 119.889h-231.447c-17.52 0-31.488-14.991-29.877-32.716l24.299-267.284h242.604l24.298 267.284c1.586 17.454-12.085 32.716-29.877 32.716zm-160.723-390h90c36.219 0 66.523 25.81 73.493 60h-236.987c6.97-34.191 37.275-60 73.494-60zm-141.491 178.496-6.214-43.496h37.188l-6.632 72.955c-12.648-4.424-22.367-15.629-24.342-29.459zm366.491 271.504h-360c0-16.542 13.458-30 30-30h300c16.542 0 30 13.458 30 30zm4.263-135h-12.383l-20.455-225h24.395c21.537 0 39.4 16.842 40.665 38.343l8.442 143.53c1.373 23.332-17.113 43.127-40.664 43.127z"/><path d="m300 180.001c-24.814 0-45 20.187-45 45v165h90c0-17.564 0-145.832 0-165 0-24.814-20.188-45-45-45zm15 180h-30v-30h30zm0-60h-30v-30h30zm-30-60v-15c0-8.271 6.728-15 15-15 8.27 0 15 6.729 15 15v15z"/><path d="m37.496 69.116c-4.834-5.768-7.496-8.944-7.496-16.615s2.662-10.848 7.496-16.615c6.121-7.303 14.504-17.306 14.504-35.885h-30c0 7.671-2.663 10.848-7.497 16.615-6.12 7.303-14.503 17.306-14.503 35.885s8.383 28.582 14.503 35.885c4.834 5.767 7.497 8.944 7.497 16.615h30c0-18.579-8.383-28.582-14.504-35.885z"/></g></svg>