<svg id="Layer_1" enable-background="new 0 0 510 510" height="512" viewBox="0 0 510 510" width="512" xmlns="http://www.w3.org/2000/svg"><g><path d="m300 135c-82.71 0-150 67.29-150 150s67.29 150 150 150 150-67.29 150-150-67.29-150-150-150zm15 269.065v-29.065h-30v29.065c-54.199-6.789-97.275-49.865-104.064-104.065h29.064v-30h-29.064c6.789-54.199 49.865-97.275 104.064-104.064v29.064h30v-29.064c54.199 6.789 97.275 49.865 104.065 104.064h-29.065v30h29.065c-6.79 54.199-49.866 97.275-104.065 104.065z"/><path d="m315 225h-30v66.213l34.394 34.394 21.212-21.213-25.606-25.607z"/><path d="m510 135c0-41.355-33.645-75-75-75-23.606 0-45.302 10.885-59.34 29.108-19.043-7.381-39.419-12.061-60.66-13.567v-30.541h30v-30h-90v30h30v30.541c-21.241 1.507-41.617 6.187-60.66 13.567-14.038-18.223-35.734-29.108-59.34-29.108-41.355 0-75 33.645-75 75 0 20.748 8.464 40.191 23.151 54.209-10.424 20.25-17.64 42.406-20.999 65.791h-62.152v30h60c0 10.186.744 20.198 2.152 30h-92.152v30h98.748c3.093 10.355 6.959 20.379 11.542 30h-80.29v30h97.765c37.993 54.365 101.026 90 172.235 90 115.794 0 210-94.206 210-210 0-34.484-8.358-67.054-23.15-95.791 14.686-14.018 23.15-33.461 23.15-54.209zm-75-45c24.814 0 45 20.187 45 45 0 10.175-3.41 19.816-9.464 27.6-17.628-24.491-40.39-45.049-66.702-60.08 8.232-7.923 19.293-12.52 31.166-12.52zm-315 45c0-24.813 20.186-45 45-45 11.873 0 22.934 4.597 31.166 12.52-26.312 15.031-49.074 35.589-66.702 60.08-6.054-7.784-9.464-17.425-9.464-27.6zm180 330c-99.252 0-180-80.748-180-180s80.748-180 180-180 180 80.748 180 180-80.748 180-180 180z"/></g></svg>