<svg id="Capa_1" enable-background="new 0 0 512 512" height="512" viewBox="0 0 512 512" width="512" xmlns="http://www.w3.org/2000/svg"><g><g><path d="m464.286 42.54h-271.169c-18.946-26.441-52.098-42.54-88.706-42.54-57.572 0-104.411 40.487-104.411 90.254s46.839 90.255 104.411 90.255c36.607 0 69.76-16.099 88.706-42.54h271.169c26.31 0 47.714-21.404 47.714-47.714 0-26.311-21.404-47.715-47.714-47.715zm0 65.429h-288.015l-4.324 7.528c-12.217 21.269-38.727 35.012-67.536 35.012-41.03 0-74.411-27.03-74.411-60.255 0-33.224 33.381-60.254 74.411-60.254 28.81 0 55.319 13.743 67.536 35.012l4.324 7.528h288.015c9.768 0 17.714 7.947 17.714 17.715s-7.946 17.714-17.714 17.714z"/></g><g><path d="m382.5 243.123c-39.812-27.55-83.556-42.111-126.5-42.111s-86.688 14.562-126.5 42.111c-21.057 14.571-35.834 29.143-42.977 36.781h-34.348v121.396c0 61.04 49.66 110.7 110.7 110.7h186.251c61.04 0 110.699-49.66 110.699-110.7v-121.396h-34.349c-7.142-7.638-21.919-22.21-42.976-36.781zm47.325 108.601h-347.65v-41.819h347.65zm-282.514-84.441c35.056-24.068 71.624-36.271 108.689-36.271s73.634 12.203 108.689 36.271c6.217 4.268 11.829 8.553 16.794 12.621h-250.967c4.966-4.068 10.577-8.352 16.795-12.621zm201.815 214.717h-186.251c-44.498 0-80.7-36.202-80.7-80.7v-19.576h347.65v19.576c0 44.498-36.201 80.7-80.699 80.7z"/></g></g></svg>