<svg id="Capa_1" enable-background="new 0 0 512.019 512.019" height="512" viewBox="0 0 512.019 512.019" width="512" xmlns="http://www.w3.org/2000/svg"><path d="m503.875 430.005c-1.852-18.673-9.79-35.885-21.991-49.323v-80.538h15.125v-30h-45.294v-30.25h30.169v-30h-90.25v30h30.081v30.25h-45.206v30h15.125v37.813l-49.205-17.308-12.161-40.453c23.674-20.712 38.654-51.129 38.654-84.981v-65.479l.116-42.929c1.18-45.971-39.764-87.83-86.554-86.787h-161.968v60.712c-.46 23.991 7.543 50.13 22.594 74.09v60.393c0 33.847 14.975 64.26 38.643 84.972l-12.169 40.483-103.896 36.795c-30.985 10.975-53.276 39.184-56.789 71.865l-8.889 82.689h512zm-67.116-23.361c-8.34 0-15.125-6.785-15.125-15.125v-31.125h30.25v31.125c0 8.34-6.785 15.125-15.125 15.125zm15.125-106.5v30.25h-30.25v-30.25zm-301.368-270.125h131.968c29.725-.687 57.307 25.952 56.554 56.706l-.077 28.618c-21.06-1.207-37.826-18.717-37.826-40.074h-30c0 22.137-18.01 40.146-40.146 40.146h-64.575c-10.64-18.072-16.257-37.079-15.901-54.222zm22.593 165.195v-49.799h57.878c22.35 0 42.292-10.507 55.146-26.84 12.401 15.757 31.396 26.091 52.787 26.801v49.838c0 45.715-37.191 82.906-82.906 82.906-45.713.001-82.905-37.191-82.905-82.906zm82.907 112.907c17.188 0 33.487-3.867 48.084-10.766l9.566 31.82c-14.436 16.876-35.084 26.423-57.656 26.423-22.573 0-43.221-9.547-57.657-26.423l9.567-31.825c14.599 6.902 30.903 10.771 48.096 10.771zm-222.608 173.898 5.319-49.481c2.288-21.28 16.802-39.647 36.977-46.793l100.987-35.768c20.072 22.765 48.396 35.62 79.318 35.62 30.931 0 59.262-12.862 79.335-35.639l56.29 19.8v21.76c0 19.624 12.596 36.354 30.125 42.552v47.948h-388.351zm418.351 0v-47.948c7.672-2.713 14.396-7.441 19.535-13.55 1.363 3.988 2.302 8.154 2.727 12.446l4.864 49.053h-27.126z"/></svg>