<svg id="Capa_1" enable-background="new 0 0 512 512" height="512" viewBox="0 0 512 512" width="512" xmlns="http://www.w3.org/2000/svg"><g><path d="m451.004 195c0-107.523-87.477-195-195-195s-195 87.477-195 195 87.477 195 195 195 195-87.477 195-195zm-195 165c-90.981 0-165-74.019-165-165s74.019-165 165-165 165 74.019 165 165-74.018 165-165 165z"/><path d="m226.004 120h-30c0 16.542-13.458 30-30 30h-15v30h15c33.084 0 60-26.916 60-60z"/><path d="m346.004 180h15v-30h-15c-16.542 0-30-13.458-30-30h-30c0 33.084 26.916 60 60 60z"/><path d="m256.004 210c-44.568 0-84.375 28.146-99.056 70.039l-6.995 19.961h212.103l-6.995-19.961c-14.681-41.893-54.489-70.039-99.057-70.039zm-60.092 60c13.887-18.519 36.014-30 60.092-30s46.206 11.481 60.093 30z"/><path d="m450.409 421.916c-19.967-20.582-46.391-31.916-74.405-31.916-6.771 0-233.232 0-240 0-28.013 0-54.438 11.334-74.405 31.916-37.638 38.793-29.523 83.205-30.595 90.084h450c-1.07-6.873 6.985-51.352-30.595-90.084zm-387.909 60.084c7.018-34.851 37.833-62 73.504-62h240c35.672 0 66.486 27.149 73.504 62z"/></g></svg>