<?xml version="1.0" encoding="iso-8859-1"?>
<!-- Generator: Adobe Illustrator 19.0.0, SVG Export Plug-In . SVG Version: 6.00 Build 0)  -->
<svg version="1.1" id="Layer_1" xmlns="http://www.w3.org/2000/svg" xmlns:xlink="http://www.w3.org/1999/xlink" x="0px" y="0px"
	 viewBox="0 0 512.001 512.001" style="enable-background:new 0 0 512.001 512.001;" xml:space="preserve">
<g>
	<g>
		<path d="M374.5,401.595H349.28c8.207-6.297,15.858-13.53,22.88-21.698c22.747-26.456,38.288-62.379,42.643-98.557
			c5.86-48.691-3.543-89.787-3.947-91.512l-5.146-22.032l-35.649,23.707c-7.124-57.561-36.429-106.449-85.818-142.575
			C241.67,17.788,199.385,7.216,197.607,6.781L169.859,0l9.146,27.063c13.314,39.392,17.246,70.117,12.02,93.929
			c-4.375,19.936-14.625,33.655-28.67,48.122c-1.838,1.895-3.743,3.838-5.693,5.828c-15.907,16.24-35.704,36.449-47.912,58.338
			c-23.259,41.701-23.451,88.003-0.529,127.035c9.368,15.952,22.258,29.977,37.814,41.282h-8.535
			c-30.439,0-55.202,24.763-55.202,55.202s24.764,55.202,55.202,55.202H374.5c30.439,0,55.202-24.763,55.202-55.202
			S404.939,401.595,374.5,401.595z M137.501,480.594c-13.122,0-23.797-10.675-23.797-23.797S124.38,433,137.501,433
			c13.121,0,23.797,10.675,23.797,23.797S150.622,480.594,137.501,480.594z M135.302,344.408
			c-17.389-29.607-17.077-63.642,0.875-95.831c10.16-18.214,27.563-35.982,42.92-51.659c1.983-2.025,3.92-4.002,5.791-5.929
			c14.648-15.089,30.478-34.406,36.812-63.266c4.974-22.665,3.642-49.254-4.107-80.701c13.646,5.845,31.09,14.645,48.326,27.253
			c49.541,36.237,74.875,85.154,74.875,145.392v29.299l43.215-28.88c1.549,14.843,2.271,35.422-0.386,57.501
			c-3.629,30.154-16.487,59.982-35.277,81.837c-11.107,12.92-23.911,22.824-38.312,29.681c0.763-3.65,1.168-7.433,1.168-11.307
			c0-45.481-42.299-88.302-44.099-90.102L256,276.592l-11.103,11.103c-1.801,1.801-44.099,44.621-44.099,90.102
			c0,6.008,0.979,11.79,2.762,17.208c-9.035-2.595-17.65-6.06-25.654-10.383C159.718,374.802,144.986,360.896,135.302,344.408z
			 M279.796,377.798c0.001,10.555-6.907,19.521-16.439,22.628c-2.423,0.119-4.875,0.183-7.357,0.183h-6.77
			c-9.834-2.924-17.028-12.041-17.028-22.811c0-19.257,12.921-40.743,23.819-54.976C266.913,337.01,279.796,358.439,279.796,377.798
			z M374.5,480.595H187.303c3.459-7.211,5.4-15.281,5.4-23.797c0-8.516-1.941-16.587-5.4-23.797H374.5
			c13.122,0,23.797,10.675,23.797,23.797S387.622,480.595,374.5,480.595z"/>
	</g>
</g>
<g>
</g>
<g>
</g>
<g>
</g>
<g>
</g>
<g>
</g>
<g>
</g>
<g>
</g>
<g>
</g>
<g>
</g>
<g>
</g>
<g>
</g>
<g>
</g>
<g>
</g>
<g>
</g>
<g>
</g>
</svg>
