<svg id="Capa_1" enable-background="new 0 0 512 512" height="512" viewBox="0 0 512 512" width="512" xmlns="http://www.w3.org/2000/svg"><g><path d="m65.208 0c-24.882 0-45.125 20.243-45.125 45.125s20.243 45.125 45.125 45.125 45.125-20.243 45.125-45.125c0-8.34 6.785-15.125 15.125-15.125h5.083v45.874l10.042 120.498v156.173l30.125 30.126v80.441h-15.125v30h15.125v18.888h30v-18.889h15.125v-30h-15.125v-80.441l30.125-30.125v-156.169l10.042-120.502v-75.874zm15.125 45.125c0 8.34-6.785 15.125-15.125 15.125s-15.125-6.785-15.125-15.125 6.785-15.125 15.125-15.125h17.732c-1.688 4.73-2.607 9.822-2.607 15.125zm121.698 135.625h-32.646l-7.542-90.5h47.729zm-1.198 159.369-15.125 15.125-15.125-15.125v-129.369h30.25zm10.042-310.119v30.25h-50.333v-30.25z"/><path d="m446.792 0h-175.667v75.874l10.042 120.498v156.173l30.125 30.117v80.449h-15.125v30h15.125v18.889h30v-18.889h15.125v-30h-15.125v-80.441l30.125-30.125v-156.174l10.041-120.497v-45.874h5.084c8.34 0 15.125 6.785 15.125 15.125 0 24.882 20.243 45.125 45.125 45.125s45.125-20.243 45.125-45.125-20.243-45.125-45.125-45.125zm-104.177 180.75h-32.646l-7.542-90.5h47.729zm8.843-150.75v30.25h-50.333v-30.25zm-10.041 310.119-15.125 15.125-15.125-15.125v-129.369h30.25zm105.375-279.869c-8.34 0-15.125-6.785-15.125-15.125 0-5.303-.919-10.395-2.607-15.125h17.732c8.34 0 15.125 6.785 15.125 15.125s-6.785 15.125-15.125 15.125z"/></g></svg>