<svg id="Capa_1" enable-background="new 0 0 499.756 499.756" height="512" viewBox="0 0 499.756 499.756" width="512" xmlns="http://www.w3.org/2000/svg"><g><path d="m451.137 0c-10.612 0-21.101 3.55-29.533 9.998l-250.127 191.274-15.265 61.059-39.885 39.886-79.495 31.798-36.832 165.741 165.742-36.831 31.798-79.496 39.885-39.885 61.059-15.265 191.275-250.128c6.447-8.432 9.997-18.92 9.997-29.532 0-26.808-21.811-48.619-48.619-48.619zm-184.159 166.009 35.458-27.116 58.428 58.428-27.115 35.459zm-24.042 18.384 25.607 25.607-68.787 68.787-13.388-13.388 11.668-46.671zm-99.166 252.682-104.258 23.169 23.169-104.259 58.462-23.385 12.4 12.4-49.393 49.393 21.213 21.213 49.394-49.393 12.4 12.399zm40.986-83.288c-2.451-2.451 11.124 11.124-38.787-38.787l23.787-23.787 38.787 38.787zm96.271-52.066-46.67 11.668-13.388-13.389 68.787-68.787 25.607 25.607zm184.901-241.791-86.68 113.35-52.771-52.772 113.349-86.679c3.23-2.469 7.247-3.829 11.311-3.829 10.267 0 18.619 8.352 18.619 18.619 0 4.065-1.36 8.081-3.828 11.311z"/></g></svg>