<svg id="Layer_1" enable-background="new 0 0 510 510" height="512" viewBox="0 0 510 510" width="512" xmlns="http://www.w3.org/2000/svg"><g><path d="m54.188 510h401.623l-40-120h-97.014c53.991-54.73 114.591-132.815 116.199-209.686 2.094-100.038-81.002-180.314-179.996-180.314-99.252 0-180 80.748-180 180 0 76.968 61.768 155.63 115.794 210h-96.606zm50.812-330c6.715-198.287 294.325-199.05 300.003-.313-1.988 95.072-116.304 199.917-150.04 228.818-34.077-28.961-149.963-134.389-149.963-228.505zm10.812 240h106.614c16.304 14.564 24.146 20.438 32.609 27.096 8.423-6.677 16.162-12.512 32.367-27.096h106.786l20 60h-318.376z"/><path d="m375 180c0-66.168-53.832-120-120-120-158.978 6.033-158.934 233.991.002 240 66.166 0 119.998-53.832 119.998-120zm-210 0c0-49.626 40.374-90 90-90 119.233 4.525 119.201 175.493-.001 180-49.625 0-89.999-40.374-89.999-90z"/><path d="m270 225h30v-90h-30v30h-30v-30h-30v90h30v-30h30z"/></g></svg>