<?xml version="1.0" encoding="iso-8859-1"?>
<!-- Generator: Adobe Illustrator 19.0.0, SVG Export Plug-In . SVG Version: 6.00 Build 0)  -->
<svg xmlns="http://www.w3.org/2000/svg" xmlns:xlink="http://www.w3.org/1999/xlink" version="1.1" id="Layer_1" x="0px" y="0px" viewBox="0 0 511.999 511.999" style="enable-background:new 0 0 511.999 511.999;" xml:space="preserve">
<g>
	<g>
		<path d="M366.386,271.046c29.388-28.716,47.664-68.758,47.664-112.995C414.051,70.901,343.15,0,256.001,0    S97.95,70.901,97.95,158.05c0,44.237,18.276,84.279,47.664,112.995c-58.454,1.665-105.495,49.731-105.495,108.58v132.373h431.76    V379.626C471.881,320.777,424.84,272.711,366.386,271.046z M256.001,30.001c45.63,0,85.755,23.996,108.438,60.027    c-17.781,12.188-38.916,18.816-60.685,18.816c-28.699,0-55.679-11.181-75.965-31.482l-9.876-9.883l-10.559,9.15    c-14.798,12.825-33.748,19.888-53.357,19.888c-3.333,0-6.645-0.204-9.922-0.602C165.966,56.634,207.928,30.001,256.001,30.001z     M127.951,158.05c0-11.638,1.57-22.915,4.493-33.64c7.068,1.387,14.272,2.106,21.551,2.106c22.321,0,44.02-6.691,62.344-19.049    c24.555,20.321,55.133,31.378,87.414,31.378c26.245,0,51.784-7.514,73.683-21.432c4.286,12.774,6.612,26.438,6.612,40.637    c0,66.155-50.428,120.753-114.863,127.374c-0.084,0.009-0.167,0.017-0.251,0.025c-0.928,0.094-1.86,0.175-2.794,0.249    c-0.328,0.025-0.657,0.047-0.986,0.07c-0.75,0.053-1.501,0.103-2.254,0.143c-0.601,0.031-1.204,0.054-1.807,0.077    c-0.525,0.021-1.049,0.046-1.576,0.06c-1.169,0.031-2.341,0.05-3.516,0.05c-1.175,0-2.347-0.019-3.516-0.05    c-0.527-0.014-1.052-0.039-1.577-0.06c-0.602-0.023-1.204-0.045-1.805-0.077c-0.754-0.04-1.506-0.09-2.256-0.143    c-0.328-0.023-0.656-0.045-0.984-0.07c-0.935-0.074-1.868-0.156-2.797-0.249c-0.083-0.008-0.165-0.017-0.248-0.025    C178.381,278.804,127.951,224.206,127.951,158.05z M177.056,388.235c0,6.368-5.181,11.55-11.55,11.55s-11.549-5.181-11.549-11.55    c0-6.368,5.181-11.549,11.549-11.549S177.056,381.867,177.056,388.235z M70.122,481.999V379.626    c0-43.355,35.273-78.628,78.628-78.628h1.756v48.498c-15.517,6.03-26.55,21.115-26.55,38.738c0,22.911,18.64,41.551,41.551,41.551    s41.551-18.64,41.551-41.551c0-17.623-11.034-32.709-26.55-38.738v-48.498h8.014c17.479,8.276,35.994,13.172,55.221,14.63    c0.228,0.018,0.457,0.03,0.684,0.047c1.091,0.078,2.182,0.153,3.278,0.208c0.61,0.032,1.223,0.05,1.834,0.074    c0.748,0.03,1.494,0.066,2.244,0.086c1.402,0.037,2.807,0.057,4.218,0.057c1.411,0,2.818-0.021,4.22-0.057    c0.744-0.019,1.485-0.055,2.227-0.085c0.617-0.025,1.235-0.043,1.85-0.075c1.094-0.056,2.184-0.13,3.274-0.208    c0.229-0.017,0.46-0.029,0.688-0.047c19.226-1.458,37.742-6.353,55.221-14.63h8.013v27.242    c-32.695,6.926-57.308,36.005-57.308,70.732v38.51h-10.198v30.001h50.399v-30.001h-10.2v-38.51    c0-23.328,18.979-42.306,42.307-42.306s42.307,18.979,42.307,42.306v38.51h-10.199v30.001h50.399v-30.001h-10.198v-38.51    c0-34.728-24.612-63.806-57.308-70.732v-27.242h1.756c43.356,0,78.628,35.273,78.628,78.628v102.373H70.122z"/>
	</g>
</g>
<g>
</g>
<g>
</g>
<g>
</g>
<g>
</g>
<g>
</g>
<g>
</g>
<g>
</g>
<g>
</g>
<g>
</g>
<g>
</g>
<g>
</g>
<g>
</g>
<g>
</g>
<g>
</g>
<g>
</g>
</svg>
