<svg id="Layer_1" enable-background="new 0 0 510 510" height="512" viewBox="0 0 510 510" width="512" xmlns="http://www.w3.org/2000/svg"><path d="m420 420v-345h-90v75h-62.58c-4.527-12.764-14.656-22.893-27.42-27.42v-62.58h-30v-30h30v-30h-150v30h30v30h-30v210h30v60h90v-60h30v-62.58c12.764-4.527 22.893-14.656 27.42-27.42h62.58v240h-150v-30h60v-30h-150v30h60v30h-90v90h390v-90zm-270-390h30v30h-30zm30 270h-30v-30h30zm-60-60v-150h90v32.58c-17.459 6.192-30 22.865-30 42.42s12.541 36.227 30 42.42v32.58zm105-60c-8.271 0-15-6.729-15-15s6.729-15 15-15 15 6.729 15 15-6.729 15-15 15zm135-75h30v315h-30zm60 375h-330v-30h330z"/></svg>