<svg id="Capa_1" enable-background="new 0 0 512.006 512.006" height="512" viewBox="0 0 512.006 512.006" width="512" xmlns="http://www.w3.org/2000/svg"><path d="m504.006 319.561v-24.336c0-36.763-26.193-67.859-62.362-74.139l-66.438-15.647c-14.539-3.424-28.106-9.485-40.352-18.007l8.172-11.623-24.541-17.254-8.083 11.497-17.522-12.467 8.013-11.397-24.541-17.254-7.915 11.259-53.403-37.997c-13.964 26.132-35.436 48.179-64.576 56.087-47.646 13.995-79.566-11.754-116.354-27.926-21.287 33.012-34.432 72.3-34.098 112.348.015 26.555 5.304 52.701 15.437 76.856h-15.437v90.25h180.625v-60.25h39.139l61.678 60.25h230.558v-90.25zm-67.811-68.97c21.91 3.652 37.812 22.424 37.812 44.635v24.336h-170.31c6.203-17.599 22.989-30.25 42.684-30.25h11.824c27.798 0 51.46-17.984 60.006-42.923l17.012 4.007zm-403.635 21.288c37.727 3.876 73.236 20.782 100.664 47.683h-84.691c-7.687-14.966-13.065-31.051-15.973-47.683zm118.071 107.932h-120.625v-30.25h120.625zm22.549-60.25c-34.977-45.558-87.2-73.906-143.158-78.014.154-25.055 5.815-49.653 16.512-71.953 40.326 21.812 74.213 28.43 112.285 17.499 25.42-7.377 47.692-22.236 64.063-42.495l28.3 20.136-8.448 12.016 24.542 17.254 8.351-11.878 17.522 12.467-8.281 11.778 24.541 17.254 8.193-11.654c15.391 10.733 32.446 18.363 50.728 22.668l20.415 4.808c-5.212 11.69-16.936 19.863-30.539 19.863h-11.824c-36.358 0-66.772 25.919-73.745 60.25h-99.457zm308.826 60.25h-188.337l-30.967-30.25h219.304z"/></svg>