<svg id="Capa_1" enable-background="new 0 0 512 512" height="512" viewBox="0 0 512 512" width="512" xmlns="http://www.w3.org/2000/svg"><path d="m512 224.021v-96.021l-256-128-87.375 43.688v-43.688h-90.25v88.812l-78.375 39.188v96.021l36.25-18.125v276.104h-36.25v30h512v-30h-36.25v-276.104zm-403.625-194.021h30.25v28.688l-30.25 15.125zm-78.375 116.541 226-113 226 113v28.938l-226-113-226 113zm91.044 335.459 1.659-13.264c1.598-12.785 10.351-23.537 22.545-27.697l62.584-21.35 48.195 28.942 48.223-28.974 62.867 21.319c12.332 4.182 21.149 15.099 22.641 28.035l1.498 12.989zm73.135-264.687.003-23.52h78.726c8.197 0 15.9 3.196 21.689 9.001 5.526 5.541 8.663 12.821 8.918 20.61-2.911-.695-5.943-1.074-9.064-1.074h-76.847c-8.195 0-15.804 2.545-22.089 6.879-.946-4.108-1.415-8.12-1.336-11.896zm14.412 85.357v-41.324c0-4.971 4.044-9.015 9.015-9.015h76.847c4.971 0 9.015 4.044 9.015 9.015v41.324c0 26.157-21.28 47.438-47.438 47.438-26.158-.001-47.439-21.281-47.439-47.438zm47.438 77.437c9.08 0 17.794-1.584 25.897-4.469l3.823 20.137-29.726 17.86-29.66-17.812 3.798-20.175c8.095 2.878 16.799 4.459 25.868 4.459zm189.721 101.893h-24.295l-1.895-16.427c-2.822-24.459-19.491-45.1-42.809-53.008l-61.221-20.761-6.261-32.982c14.886-14.121 24.197-34.064 24.197-56.152l.073-78.079c.043-16.014-6.078-31.089-17.253-42.526-11.614-11.887-27.746-18.271-44.365-18.271h-107.74v53.061c-.293 15.878 4.805 33.052 14.409 48.838v36.978c0 22.095 9.316 42.042 24.209 56.164l-6.212 32.995-61.027 20.819c-23.056 7.865-39.604 28.195-42.627 52.367l-2.123 16.984h-24.56v-291.104l189.75-94.875 189.75 94.875z"/></svg>