<svg id="Layer_1" enable-background="new 0 0 510 510" height="512" viewBox="0 0 510 510" width="512" xmlns="http://www.w3.org/2000/svg"><g><path d="m75 0v510h360v-510c-36.452 0-326.081 0-360 0zm225 30v30h-90v-30zm-120 0v60h150v-60h75v210h-107.58c-14.183-39.762-70.673-39.737-84.84 0h-107.58v-210zm90 225c0 8.272-6.728 15-15 15-19.872-.753-19.867-29.25 0-30 8.272 0 15 6.729 15 15zm-60 225v-30h90v30zm120 0v-60h-150v60h-75v-210h107.58c14.183 39.762 70.673 39.737 84.84 0h107.58v210z"/><path d="m165 150h30v30h-30z"/><path d="m315 150h30v30h-30z"/><path d="m165 330h30v30h-30z"/><path d="m315 330h30v30h-30z"/></g></svg>