<svg id="Capa_1" enable-background="new 0 0 512 512" height="512" viewBox="0 0 512 512" width="512" xmlns="http://www.w3.org/2000/svg"><g><path d="m30 30h85v-30h-115v115h30z"/><path d="m323.667 240h-52.667v-105.001h-30v135.001h82.667z"/><path d="m397 0v30h85v85h30v-115z"/><path d="m482 482h-85v30h115v-115h-30z"/><path d="m30 397h-30v115h115v-30h-85z"/><path d="m120 120h30v30h-30z"/><path d="m362 120h30v30h-30z"/><path d="m120 362h30v30h-30z"/><path d="m240 362h30v30h-30z"/><path d="m240 302h30v30h-30z"/><path d="m353.667 240h30v30h-30z"/><path d="m150 242h30v30h-30z"/><path d="m452 302h-150v120h-62v30h212zm-30 120h-90v-90h90z"/><path d="m362 362h30v30h-30z"/><path d="m90 272h30v-30h-60v210h150v-150h-120zm90 150h-90v-90h90z"/><path d="m272 90v-30h-212v150h150v-120zm-92 90h-90v-90h90z"/><path d="m422 270h30v-210h-150v150h120zm-90-180h90v90h-90z"/></g></svg>