<svg id="Capa_1" enable-background="new 0 0 512 512" height="512" viewBox="0 0 512 512" width="512" xmlns="http://www.w3.org/2000/svg"><g><path d="m91 331c0-21.777 0-130.476 0-150h-30v60h-31v-60h-30v150h30v-60h31v60z"/><path d="m196 211v-30h-90v150h90v-30h-60v-30h30v-30h-30v-30z"/><path d="m241 181h-30v150h90v-30h-60z"/><path d="m406 301h-60v-120h-30v150h90z"/><path d="m467 181c-24.813 0-45 20.187-45 45v60c0 24.813 20.187 45 45 45s45-20.187 45-45v-60c0-24.813-20.187-45-45-45zm15 105c0 8.271-6.729 15-15 15s-15-6.729-15-15v-60c0-8.271 6.729-15 15-15s15 6.729 15 15z"/><path d="m342.012 133.865c8.468 10.227 20.689 16.135 33.988 16.135 13.298 0 25.519-5.909 33.988-16.135 13.088-2.222 24.315-9.851 30.965-21.366 6.647-11.517 7.642-25.052 3.02-37.499 4.622-12.447 3.629-25.984-3.02-37.499-6.648-11.517-17.874-19.146-30.964-21.368-8.468-10.226-20.688-16.133-33.989-16.133s-25.521 5.908-33.989 16.133c-13.088 2.222-24.314 9.851-30.963 21.366-6.649 11.516-7.643 25.053-3.021 37.5-4.622 12.447-3.628 25.983 3.021 37.501 6.65 11.516 17.875 19.144 30.964 21.365zm-4.984-81.365c2.549-4.414 7.417-7.04 13.042-7.04h.117l8.793.057 4.345-7.644c2.803-4.93 7.541-7.873 12.675-7.873s9.872 2.944 12.676 7.875l4.346 7.643 8.792-.057h.117c5.624 0 10.493 2.625 13.04 7.038l.001.001c2.565 4.443 2.384 10.019-.485 14.914l-4.447 7.586 4.446 7.585c2.869 4.895 3.051 10.471.485 14.914-2.548 4.413-7.416 7.038-13.041 7.038-.039 0-.078 0-.117 0l-8.79-.057-4.347 7.641c-2.805 4.934-7.544 7.879-12.676 7.879s-9.87-2.945-12.676-7.878l-4.346-7.642-8.791.057c-5.631.021-10.594-2.595-13.158-7.036-2.566-4.444-2.385-10.021.484-14.916l4.447-7.585-4.446-7.585c-2.869-4.896-3.051-10.472-.486-14.915z"/><path d="m200.953 399.5c-6.649-11.516-17.874-19.146-30.964-21.367-8.468-10.226-20.688-16.133-33.989-16.133s-25.521 5.907-33.989 16.133c-13.088 2.223-24.315 9.852-30.962 21.366-6.65 11.516-7.644 25.053-3.021 37.501-4.622 12.447-3.628 25.983 3.021 37.5 6.649 11.515 17.875 19.144 30.964 21.365 8.468 10.226 20.69 16.135 33.987 16.135 13.298 0 25.519-5.909 33.988-16.135 13.088-2.222 24.315-9.851 30.964-21.366 6.648-11.516 7.642-25.052 3.021-37.499 4.622-12.447 3.628-25.985-3.02-37.5zm-26.467 45.085c2.869 4.896 3.05 10.471.486 14.914-2.548 4.413-7.417 7.039-13.042 7.038-.039 0-.079 0-.118 0l-8.791-.057-4.346 7.642c-2.804 4.933-7.543 7.878-12.675 7.878s-9.871-2.945-12.677-7.879l-4.346-7.641-8.791.057c-5.682.018-10.592-2.594-13.158-7.037-2.566-4.444-2.385-10.02.485-14.915l4.447-7.585-4.446-7.585c-2.87-4.896-3.051-10.471-.485-14.916 2.548-4.413 7.416-7.038 13.04-7.038h.118l8.792.057 4.346-7.643c2.803-4.931 7.542-7.875 12.675-7.875s9.872 2.944 12.675 7.875l4.346 7.643 8.792-.057h.118c5.624 0 10.493 2.625 13.041 7.039 2.565 4.443 2.384 10.019-.485 14.915l-4.446 7.585z"/><circle cx="136" cy="437" r="15"/><circle cx="376" cy="75" r="15"/><path d="m437.471 400.51-16.471 9.509v-19.019h-30v19.019l-16.471-9.509-15 25.98 16.471 9.51-16.471 9.51 15 25.98 16.471-9.509v19.019h30v-19.019l16.471 9.509 15-25.98-16.471-9.51 16.471-9.51z"/><path d="m104.529 111.49 16.471-9.51v19.02h30v-19.02l16.471 9.51 15-25.98-16.471-9.51 16.471-9.51-15-25.98-16.471 9.51v-19.02h-30v19.02l-16.471-9.51-15 25.98 16.471 9.51-16.471 9.51z"/></g></svg>