<svg id="Capa_1" enable-background="new 0 0 510 510" height="512" viewBox="0 0 510 510" width="512" xmlns="http://www.w3.org/2000/svg"><g><path d="m239 300h30v30h-30z"/><path d="m299 300h30v30h-30z"/><path d="m359 300h30v30h-30z"/><path d="m239 240h30v30h-30z"/><path d="m299 240h30v30h-30z"/><path d="m359 240h30v30h-30z"/><path d="m420 90v-90h-210v90h-90v64.605l-120 45v310.395h510v-420zm-180-60h150v150h-150zm-90 90h60v90h210v-90h60v300h-90v-60h-150v60h-90c0-10.32 0-289.721 0-300zm-30 360h-90v-259.605l90-33.75zm30 0v-30h90v30zm120-90h30v90h-30zm60 90v-90h30v90zm60 0v-30h90v30z"/><path d="m330 60h-30v30h-30v30h30v30h30v-30h30v-30h-30z"/><path d="m60 255h30v30h-30z"/><path d="m60 330h30v30h-30z"/><path d="m60 405h30v30h-30z"/></g></svg>