<svg id="Layer_1" enable-background="new 0 0 510 510" height="512" viewBox="0 0 510 510" width="512" xmlns="http://www.w3.org/2000/svg"><path id="XMLID_1692_" d="m510 60v-30h-60v-30h-30v30h-330v-30h-30v30h-60v30h60v30h-30v30h30v30h-30v30h30v30h-30v30h30v30h-30v30h30v30h-30v30h30v60c-33.084 0-60 26.916-60 60v30h150v-30c0-33.084-26.916-60-60-60v-360h30c0 27.906 19.15 51.424 45 58.102v63.797c-67.268 18.748-55.583 116.482 15.001 118.101 70.596-1.626 82.255-99.365 14.999-118.102v-63.797c25.85-6.678 45-30.195 45-58.102h30c0 27.906 19.15 51.424 45 58.102v63.797c-67.268 18.749-55.583 116.483 15.001 118.102 70.596-1.626 82.255-99.365 14.999-118.102v-63.797c25.85-6.678 45-30.195 45-58.102h30v360c-33.084 0-60 26.916-60 60v30h150v-30c0-33.084-26.916-60-60-60v-60h30v-30h-30v-30h30v-30h-30v-30h30v-30h-30v-30h30v-30h-30v-30h30v-29.999h-30v-30zm-390 420h-90c0-16.542 13.458-30 30-30h30c16.542 0 30 13.458 30 30zm90-240c0 16.542-13.458 30-30 30-39.744-1.508-39.734-58.498 0-60 16.542 0 30 13.458 30 30zm-30-150c-16.542 0-30-13.458-30-30h60c0 16.542-13.458 30-30 30zm180 150c0 16.542-13.458 30-30 30-39.744-1.508-39.734-58.498 0-60 16.542 0 30 13.458 30 30zm-30-150c-16.542 0-30-13.458-30-30h60c0 16.542-13.458 30-30 30zm150 390h-90c0-16.542 13.458-30 30-30h30c16.542 0 30 13.458 30 30z"/></svg>