<svg id="Capa_1" enable-background="new 0 0 510 510" height="512" viewBox="0 0 510 510" width="512" xmlns="http://www.w3.org/2000/svg"><path d="m325.255 243.561c13-14.973 24.209-31.262 33.468-48.561h63.857c6.192 17.459 22.865 30 42.42 30 24.814 0 45-20.186 45-45 0-24.813-20.186-45-45-45-19.555 0-36.228 12.541-42.42 30h-50.161c21.066-54.919 17.098-99.047 17.581-105h32.58c6.192 17.459 22.865 30 42.42 30 24.814 0 45-20.187 45-45s-20.186-45-45-45c-19.555 0-36.228 12.541-42.42 30h-32.58v-30h-90v30h-90v-30h-90v30h-32.58c-6.192-17.459-22.865-30-42.42-30-24.813 0-45 20.187-45 45s20.187 45 45 45c19.555 0 36.228-12.541 42.42-30h32.58c.502 6.294-3.437 50.166 17.648 105h-50.228c-6.192-17.459-22.865-30-42.42-30-24.813 0-45 20.187-45 45 0 24.814 20.187 45 45 45 19.555 0 36.228-12.541 42.42-30h63.942c9.278 17.367 20.436 33.594 33.384 48.52-18.605 21.43-33.519 45.568-44.329 71.48h-52.997c-6.192-17.459-22.865-30-42.42-30-24.813 0-45 20.187-45 45 0 24.814 20.187 45 45 45 19.555 0 36.228-12.541 42.42-30h42.53c-6.541 23.203-9.95 47.449-9.95 72.153v32.847h-32.58c-6.192-17.459-22.865-30-42.42-30-24.813 0-45 20.187-45 45 0 24.814 20.187 45 45 45 19.555 0 36.228-12.541 42.42-30h32.58v30h90v-45h90v45h90v-30h32.58c6.192 17.459 22.865 30 42.42 30 24.814 0 45-20.186 45-45 0-24.813-20.186-45-45-45-19.555 0-36.228 12.541-42.42 30h-32.58v-32.85c0-24.572-3.372-48.734-10.011-72.15h42.591c6.192 17.459 22.865 30 42.42 30 24.814 0 45-20.186 45-45 0-24.813-20.186-45-45-45-19.555 0-36.228 12.541-42.42 30h-53.071c-10.919-26.158-25.765-50.124-44.254-71.439zm139.745-78.561c8.272 0 15 6.729 15 15s-6.728 15-15 15-15-6.729-15-15 6.728-15 15-15zm0-135c8.272 0 15 6.729 15 15s-6.728 15-15 15-15-6.729-15-15 6.728-15 15-15zm-420 30c-8.271 0-15-6.729-15-15s6.729-15 15-15 15 6.729 15 15-6.729 15-15 15zm0 285c-8.271 0-15-6.728-15-15 0-8.271 6.729-15 15-15s15 6.729 15 15c0 8.272-6.729 15-15 15zm0 135c-8.271 0-15-6.728-15-15 0-8.271 6.729-15 15-15s15 6.729 15 15c0 8.272-6.729 15-15 15zm420-30c8.272 0 15 6.729 15 15 0 8.272-6.728 15-15 15s-15-6.728-15-15c0-8.271 6.728-15 15-15zm-209.974-278.784c-11.521-15.828-20.993-32.95-28.262-51.216h56.543c-7.234 18.148-16.717 35.355-28.281 51.216zm37.96-81.216h-75.896c-2.469-9.87-4.294-19.903-5.479-30h86.817c-1.171 10.157-2.989 20.176-5.442 30zm-142.986-60h30v2.85c0 58.074 19.163 115.268 55.264 162.023-6.223 6.532-12.844 12.751-19.866 18.604-3.296 2.746-6.5 5.575-9.642 8.459-36.052-42.45-55.756-95.861-55.756-152.006zm-105 165c-8.271 0-15-6.729-15-15s6.729-15 15-15 15 6.729 15 15-6.729 15-15 15zm135 285h-30v-62.847c0-69.988 30.837-135.825 84.602-180.63 60.626-50.521 95.398-124.758 95.398-203.676v-2.847h30v39.929c0 69.988-30.837 135.825-84.603 180.63-60.626 50.521-95.397 124.758-95.397 203.676zm35.196-75h79.535c2.121 9.898 3.628 19.928 4.466 30h-88.413c.825-10.142 2.314-20.157 4.412-30zm8.516-30c7.528-21.068 18.03-40.984 31.263-59.135 12.977 17.827 23.495 37.438 31.235 59.135zm136.288 105h-30v-25.76c0-38.613-8.654-77.502-25.027-112.464-8.248-17.608-18.393-34.231-30.236-49.568 6.223-6.532 12.844-12.751 19.866-18.603 3.296-2.746 6.5-5.576 9.642-8.459 36.052 42.448 55.755 95.859 55.755 152.004zm105-165c8.272 0 15 6.729 15 15 0 8.272-6.728 15-15 15s-15-6.728-15-15c0-8.271 6.728-15 15-15z"/></svg>