<svg id="Capa_1" enable-background="new 0 0 512 512" height="512" viewBox="0 0 512 512" width="512" xmlns="http://www.w3.org/2000/svg"><g><path d="m120 422h30v30h-30z" transform="matrix(.707 -.707 .707 .707 -269.465 223.454)"/><path d="m132.426 349.574h30v30h-30z" transform="matrix(.707 -.707 .707 .707 -214.612 211.026)"/><path d="m174.853 307.147h30v30h-30z" transform="matrix(.707 -.707 .707 .707 -172.186 228.602)"/><path d="m450.739 61.261c-6.472-34.816-37.076-61.261-73.739-61.261-41.355 0-75 33.645-75 75v28.935l-198.066 198.065h-28.934c-41.355 0-75 33.645-75 75 0 36.663 26.445 67.267 61.261 73.739 6.473 34.816 37.076 61.261 73.739 61.261 41.355 0 75-33.645 75-75v-28.935l198.065-198.065h28.935c41.355 0 75-33.645 75-75 0-36.663-26.445-67.267-61.261-73.739zm-13.739 118.739h-41.36l-215.64 215.64v41.36c0 24.813-20.187 45-45 45s-45-20.187-45-45v-15h-15c-24.813 0-45-20.187-45-45s20.187-45 45-45h41.361l215.639-215.64v-41.36c0-24.813 20.187-45 45-45s45 20.187 45 45v15h15c24.813 0 45 20.187 45 45s-20.187 45-45 45z"/><path d="m307.147 174.853h30v30h-30z" transform="matrix(.707 -.707 .707 .707 -39.891 283.4)"/></g></svg>