<svg id="Capa_1" enable-background="new 0 0 509.947 509.947" height="512" viewBox="0 0 509.947 509.947" width="512" xmlns="http://www.w3.org/2000/svg"><g><path d="m388.863 254.974 108.525-78.849h-133.95l41.356-127.279-108.367 78.733-41.453-127.579-41.454 127.58-108.367-78.734 41.355 127.279h-133.949l108.525 78.849-108.525 78.848h133.95l-41.355 127.279 108.368-78.734 41.453 127.58 41.453-127.579 108.368 78.734-41.357-127.28h133.95zm16.196-48.849-41.715 30.308-15.775-11.462 6.123-18.846zm-150.085 4.007 13.203 26.752 29.523 4.29-21.363 20.823 5.043 29.404-26.406-13.882-26.406 13.883 5.043-29.405-21.363-20.823 29.523-4.29zm64.602 3.906-31.478-4.574-14.077-28.523 73.71-53.554c-4.792 14.749-26.338 81.057-28.155 86.651zm-80.536-67.918 15.934-49.038 15.934 49.038-15.934 11.577zm-3.114 34.82-14.077 28.523-31.478 4.574-28.155-86.651zm-131.037 25.185h51.367l6.123 18.846-15.776 11.462zm0 97.697c10.425-7.574 63.318-46.003 73.71-53.554l22.777 22.203-5.377 31.351c-12.889 0-78.224 0-91.11 0zm57.327 78.738 15.835-48.738h19.695l6.026 18.545zm64.603-56.346 28.154-14.802 28.154 14.802-28.154 86.651c-5.854-18.018-22.32-68.694-28.154-86.651zm120.911 56.346-41.556-30.192 6.025-18.545h19.694zm-33.782-78.738-5.377-31.351 22.777-22.203c10.392 7.551 63.285 45.979 73.71 53.554-12.891 0-78.223 0-91.11 0z"/></g></svg>