<svg id="Capa_1" enable-background="new 0 0 510 510" height="512" viewBox="0 0 510 510" width="512" xmlns="http://www.w3.org/2000/svg"><g><path d="m105 0c-24.813 0-45 20.187-45 45v420c0 24.814 20.187 45 45 45h345v-30h-30v-30h30c0-15.785 0-431.133 0-450-12.597 0-332.2 0-345 0zm-15 45c0-8.271 6.729-15 15-15h15v390c-13.461.018-20.59-.765-30 2.57zm300 435h-285c-8.271 0-15-6.728-15-15s6.729-15 15-15h285zm-240-60v-390h270v390z"/><path d="m285 60c-57.897 0-105 47.103-105 105s47.103 105 105 105 105-47.102 105-105-47.103-105-105-105zm0 180c-41.355 0-75-33.645-75-75s33.645-75 75-75 75 33.645 75 75-33.645 75-75 75z"/><path d="m300 120h-30v30h-30v30h30v30h30v-30h30v-30h-30z"/><path d="m180 300h210v30h-210z"/><path d="m330 360h60v30h-60z"/></g></svg>