<svg id="Capa_1" enable-background="new 0 0 512 512" height="512" viewBox="0 0 512 512" width="512" xmlns="http://www.w3.org/2000/svg"><g><path d="m452 0h-392c-33.084 0-60 26.916-60 60v392c0 33.084 26.916 60 60 60h392c33.084 0 60-26.916 60-60v-392c0-33.084-26.916-60-60-60zm30 452c0 16.542-13.458 30-30 30h-392c-16.542 0-30-13.458-30-30v-392c0-16.542 13.458-30 30-30h392c16.542 0 30 13.458 30 30z"/><path d="m332 60h-152v90h152zm-30 60h-92v-30h92z"/><path d="m362 150c0 16.542-13.458 30-30 30h-152c-16.542 0-30-13.458-30-30v-90h-90v392h392v-392h-90zm30 0v-60h30v332h-332v-332h30v60c0 33.084 26.916 60 60 60h152c33.084 0 60-26.916 60-60z"/></g></svg>