<svg id="Capa_1" enable-background="new 0 0 510.29 510.29" height="512" viewBox="0 0 510.29 510.29" width="512" xmlns="http://www.w3.org/2000/svg"><g><path d="m345.494 101.156-132.229 132.228 63.64 63.64 132.229-132.229zm-89.802 132.228 89.802-89.803 21.214 21.214-89.803 89.803z"/><path d="m479.585 30.705c-40.939-40.939-107.553-40.939-148.492 0l-179.444 179.443-61.436 146.288-77.055 77.056c-17.544 17.545-17.544 46.094 0 63.639 8.772 8.773 20.296 13.159 31.82 13.159s23.047-4.386 31.82-13.159l77.055-77.054 146.289-61.437 179.443-179.443c40.939-40.94 40.939-107.553 0-148.492zm-21.213 21.213c14.166 14.166 21.967 33 21.967 53.033 0 12.944-3.275 25.379-9.401 36.386l-101.985-101.985c11.007-6.126 23.442-9.401 36.386-9.401 20.033 0 38.867 7.8 53.033 21.967zm-355.469 334.255 21.213 21.214-28.933 28.933-21.214-21.213zm-68.531 89.745c-5.848-5.849-5.848-15.364 0-21.213l18.385-18.385 21.214 21.213-18.385 18.385c-5.849 5.849-15.365 5.849-21.214 0zm248.723-142.657-134.284 56.395-28.177-28.177 56.395-134.284 168.67-168.671 106.067 106.066z"/></g></svg>