<svg id="Capa_1" enable-background="new 0 0 512 512" height="512" viewBox="0 0 512 512" width="512" xmlns="http://www.w3.org/2000/svg"><g><path d="m437.02 74.98c-48.353-48.351-112.64-74.98-181.02-74.98s-132.667 26.629-181.02 74.98c-48.351 48.353-74.98 112.64-74.98 181.02s26.629 132.667 74.98 181.02c48.353 48.351 112.64 74.98 181.02 74.98s132.667-26.629 181.02-74.98c48.351-48.353 74.98-112.64 74.98-181.02s-26.629-132.667-74.98-181.02zm-21.214 340.826c-42.686 42.686-99.439 66.194-159.806 66.194s-117.12-23.508-159.806-66.194-66.194-99.439-66.194-159.806 23.508-117.12 66.194-159.806 99.439-66.194 159.806-66.194 117.12 23.508 159.806 66.194 66.194 99.439 66.194 159.806-23.508 117.12-66.194 159.806z"/><path d="m175.985 263.065 51.617-51.616-51.617-51.615-21.213 21.213 30.404 30.402-30.404 30.404z"/><path d="m115.442 101.546h85.346v29.999h-85.346z" transform="matrix(.886 -.464 .464 .886 -36.039 86.753)"/><path d="m334.321 159.834-51.616 51.615 51.616 51.616 21.213-21.212-30.403-30.404 30.403-30.402z"/><path d="m337.192 73.872h29.999v85.347h-29.999z" transform="matrix(.464 -.886 .886 .464 85.426 374.341)"/><path d="m256 268.013c-67.656 0-120.653 51.31-120.653 116.811v28.845h241.307v-28.845c-.001-65.502-52.998-116.811-120.654-116.811zm0 30c24.608 0 47.473 8.843 64.379 24.899.319.303.616.622.93.929h-130.618c.313-.307.611-.626.93-.929 16.906-16.057 39.771-24.899 64.379-24.899zm-90.646 85.655c.132-10.425 2.065-20.479 5.631-29.827h170.03c3.566 9.349 5.499 19.402 5.631 29.827z"/></g></svg>