<svg id="Capa_1" enable-background="new 0 0 512 512" height="512" viewBox="0 0 512 512" width="512" xmlns="http://www.w3.org/2000/svg"><g><path d="m512 382v-372h-512v372h192v46.041l-69.772 73.959h267.545l-69.773-73.959v-46.041zm-482-342h452v312h-452zm290.228 432h-128.456l30.228-32.041v-57.959h68v57.959z"/><path d="m183.801 102.005c-16.485.229-25.898 7.784-33.764 15.308h-6.001c-7.865-7.523-17.279-15.078-33.763-15.308-11.785-.148-22.208 3.853-30.081 11.617-41.503 41.49 9.554 168.257 12.729 175.378h42.408l11.739-37.188 11.651 37.188h42.433c5.695-15.84 26.931-60.899 28.849-128.18.628-24.699-11.138-59.447-46.2-58.815zm-3.123 156.74-7.215-23.03v-.001c-8.136-25.699-44.568-25.721-52.754-.056 0 0-7.301 23.126-7.301 23.126-6.421-18.367-19.334-60.023-19.334-97.964.239-13.686 3.286-29.296 15.489-28.819 6.392.032 8.547 1.9 16.182 9.366l6.114 5.946h30.358l6.115-5.946c7.513-7.352 9.732-9.278 15.888-9.363 4.854-.097 7.155 1.556 8.598 2.979 20.123 24.166-7.189 110.048-12.14 123.762z"/><path d="m362 70h30v30h-30z"/><path d="m422 70h30v30h-30z"/><path d="m269 279h60v43h123c0-47.719 0-145.358 0-192h-183zm153 13h-63v-72h63zm-123-132h123v30h-93v59h-30z"/><path d="m302 70h30v30h-30z"/></g></svg>