<svg id="Capa_1" enable-background="new 0 0 508.426 508.426" height="512" viewBox="0 0 508.426 508.426" width="512" xmlns="http://www.w3.org/2000/svg"><g id="XMLID_1210_"><path id="XMLID_1218_" d="m429.602 271.956c5.459-20.419-.217-42.646-15.529-57.957-17.087-17.087-41.995-21.677-63.302-13.804-22.456-30.385-58.272-48.77-96.558-48.77s-74.101 18.384-96.557 48.769c-21.307-7.874-46.216-3.283-63.303 13.805-15.312 15.311-20.988 37.538-15.529 57.957l-78.824 78.83 84.853 84.853 78.824-78.831c15.523 4.17 32.186 1.971 46.263-6.425 13.92-8.303 23.244-21.397 27.159-35.934 5.581 1.305 11.324 1.975 17.114 1.975s11.533-.671 17.114-1.975c3.915 14.536 13.24 27.631 27.16 35.934 14.076 8.396 30.739 10.595 46.262 6.424l78.824 78.832 84.853-84.853zm-235.03 52.662c-8.629 5.147-19.213 5.631-28.307 1.298l-9.566-4.558-71.848 71.853-42.426-42.426 71.852-71.858-4.571-9.571c-5.468-11.449-3.113-25.171 5.86-34.145 11.697-11.697 30.729-11.695 42.427 0 5.223 5.223 8.324 12.16 8.733 19.536l.742 13.389 13.389.757c9.986.564 19.001 6.019 24.114 14.592 8.474 14.207 3.808 32.66-10.399 41.133zm83.117-56.5c-2.849 4.777-4.939 9.797-6.336 14.92-5.398 2.222-11.223 3.388-17.14 3.388s-11.741-1.166-17.14-3.388c-1.398-5.123-3.487-10.143-6.336-14.92-8.091-13.564-21.059-23.226-36.003-27.226-2.315-8.659-6.558-16.71-12.448-23.562 16.875-22.39 43.497-35.904 71.927-35.904s55.051 13.515 71.927 35.904c-5.891 6.853-10.133 14.903-12.448 23.562-14.945 4.001-27.913 13.662-36.003 27.226zm74.038 53.24-9.566 4.558c-9.095 4.335-19.679 3.85-28.307-1.298-14.207-8.474-18.873-26.926-10.399-41.133 5.113-8.573 14.128-14.028 24.114-14.592l13.389-.757.742-13.389c.409-7.376 3.511-14.313 8.733-19.536 11.698-11.695 30.73-11.695 42.427 0 8.974 8.974 11.328 22.695 5.86 34.145l-4.571 9.571 71.851 71.859-42.426 42.426z"/><path id="XMLID_1302_" d="m395.084 121.768 31.82 10.607 38.374-38.376-21.213-21.213-25.264 25.265-31.821-10.608-38.373 38.376 21.212 21.213z"/><path id="XMLID_1303_" d="m113.342 121.768 25.265 25.264 21.212-21.213-38.374-38.376-31.82 10.608-25.265-25.265-21.213 21.213 38.374 38.376z"/></g></svg>