<svg id="Capa_1" enable-background="new 0 0 512 512" height="512" viewBox="0 0 512 512" width="512" xmlns="http://www.w3.org/2000/svg"><g><path d="m350.248 195.643-11.182-100.59c-4.711-42.383-40.421-74.344-83.066-74.344s-78.355 31.961-83.066 74.344l-11.182 100.59h-161.752v60.618c0 32.743 26.639 59.382 59.382 59.382h393.236c32.743 0 59.382-26.639 59.382-59.382v-60.618zm-154.394-35.237 22.322 11.973 37.284-20 37.289 20 23.337-12.517 3.917 35.237h-128.006zm60.146-109.697c27.337 0 50.229 20.488 53.25 47.658l3.265 29.368-19.766 10.601-37.289-20-37.284 20-18.751-10.059 3.325-29.91c3.021-27.17 25.913-47.658 53.25-47.658zm226 205.552c0 16.201-13.181 29.382-29.382 29.382h-393.236c-16.201 0-29.382-13.181-29.382-29.382v-30.618h452z"/><path d="m383.877 461.291v-.026c-16.831.322-22.631-3.997-25.823-8.27-5.067-6.78-7.729-18.984-10.811-33.115-1.426-6.54-3.043-13.952-5.077-21.623-6.006-22.647-26.463-38.464-49.748-38.464-14.217 0-27.102 5.802-36.418 15.16-9.316-9.358-22.201-15.16-36.418-15.16-23.285 0-43.742 15.816-49.748 38.463-2.034 7.672-3.651 15.084-5.077 21.624-3.082 14.131-5.743 26.335-10.811 33.115-3.192 4.272-9.043 8.594-25.871 8.27v.026 29.968c.099.002-.098.004 0 .006v.026h62.832c26.799 0 50.547-13.244 65.093-33.517 14.545 20.272 38.294 33.517 65.093 33.517h62.784v-.027c.098-.001-.099-.003 0-.005zm-192.97 0h-7.209c5.038-10.581 7.722-22.879 10.369-35.019 1.426-6.538 2.9-13.299 4.765-20.326 2.522-9.511 11.055-16.153 20.75-16.153 11.807 0 21.412 9.605 21.412 21.412 0 27.617-22.469 50.086-50.087 50.086zm130.186 0c-27.618 0-50.087-22.469-50.087-50.086 0-11.807 9.605-21.412 21.412-21.412 9.695 0 18.228 6.643 20.75 16.154 1.864 7.026 3.339 13.787 4.765 20.325 2.647 12.142 5.327 24.437 10.367 35.019z"/></g></svg>