<svg id="Capa_1" enable-background="new 0 0 510 510" height="512" viewBox="0 0 510 510" width="512" xmlns="http://www.w3.org/2000/svg"><g><path d="m492.887 338.35c-32.05 4.56-34.75 18.866-67.891 18.866-37.602 0-38.864-20-85.004-20-45.735 0-47.809 20-84.999 20-37.601 0-38.859-20-84.997-20-45.736 0-47.808 20-84.999 20-33.047 0-36.013-14.329-67.884-18.866l-17.113-2.436v171.302h510v-171.301zm-407.89 48.866c45.736 0 47.808-20 84.999-20 37.601 0 38.859 20 84.997 20 45.739 0 47.807-20 84.999-20 37.602 0 38.864 20 85.004 20 29.184 0 41.874-8.541 55.004-14.226v28.119c-21.779 6.34-27.123 16.106-55.004 16.106-37.602 0-38.864-20-85.004-20-45.735 0-47.809 20-84.999 20-37.601 0-38.859-20-84.997-20-45.736 0-47.808 20-84.999 20-27.9 0-33.195-9.761-54.997-16.105v-28.119c13.181 5.71 25.817 14.225 54.997 14.225zm-54.997 90v-44.226c13.177 5.708 25.843 14.226 54.997 14.226 45.736 0 47.808-20 84.999-20 37.601 0 38.859 20 84.997 20 45.739 0 47.807-20 84.999-20 37.602 0 38.864 20 85.004 20 28.69 0 40.911-8.122 55.004-14.227v44.227z"/><path d="m195 297.216h120v-120h75.67l-135.67-174.432-135.669 174.432h75.669zm-14.331-150 74.331-95.567 74.33 95.567h-44.33v120h-60v-120z"/></g></svg>