<svg id="Capa_1" enable-background="new 0 0 510 510" height="512" viewBox="0 0 510 510" width="512" xmlns="http://www.w3.org/2000/svg"><g id="XMLID_119_"><g id="XMLID_142_"><path id="XMLID_1406_" d="m510 485.463h-171.421l-50.967-50h-65.225l-50.967 50h-171.42v-90h134.646l50.967-50h138.775l50.967 50h134.645zm-159.163-30h129.163v-30h-116.903l-50.967-50h-114.26l-50.967 50h-116.903v30h129.163l50.967-50h89.74z"/></g><g id="XMLID_128_"><path id="XMLID_1403_" d="m510 315.463h-125.048c-25.137 0-50.354-5.85-72.925-16.917l-50.75-24.886c-3.871-1.898-8.682-1.898-12.555 0l-50.75 24.885c-22.569 11.068-47.787 16.918-72.925 16.918h-125.047v-90h125.048c11.479 0 22.994-2.672 33.301-7.726l50.75-24.884c28.738-14.096 63.059-14.097 91.805 0l50.748 24.885c10.307 5.054 21.822 7.725 33.301 7.725h125.047zm-254.999-73.226c6.693 0 13.385 1.495 19.485 4.487l50.749 24.886c18.482 9.062 39.133 13.853 59.717 13.853h95.048v-30h-95.048c-16.031 0-32.114-3.73-46.509-10.789l-50.749-24.885c-20.474-10.039-44.918-10.039-65.388 0l-50.75 24.884c-14.394 7.059-30.477 10.79-46.509 10.79h-95.047v30h95.048c20.585 0 41.234-4.79 59.717-13.854l50.751-24.885c6.1-2.99 12.794-4.487 19.485-4.487z"/></g><g id="XMLID_120_"><path id="XMLID_1400_" d="m510 163.322h-125.048c-25.137 0-50.354-5.85-72.925-16.917l-57.027-27.964-57.025 27.964c-22.572 11.068-47.789 16.918-72.927 16.918h-125.048v-90h125.048c11.479 0 22.994-2.672 33.301-7.726l72.302-35.454c15.249-7.473 33.449-7.475 48.69-.004l72.312 35.459c10.306 5.054 21.82 7.725 33.3 7.725h125.047zm-255-78.294 70.235 34.441c18.482 9.062 39.133 13.853 59.717 13.853h95.048v-30h-95.048c-16.032 0-32.114-3.73-46.509-10.789l-72.309-35.458c-6.97-3.415-15.3-3.416-22.279.005l-72.298 35.452c-14.395 7.059-30.478 10.79-46.51 10.79h-95.047v30h95.048c20.585 0 41.234-4.791 59.719-13.854z"/></g></g></svg>