<svg id="Capa_1" enable-background="new 0 0 512 512" height="512" viewBox="0 0 512 512" width="512" xmlns="http://www.w3.org/2000/svg"><g><path d="m437.02 74.98c-48.353-48.351-112.64-74.98-181.02-74.98s-132.667 26.629-181.02 74.98c-48.351 48.353-74.98 112.64-74.98 181.02s26.629 132.667 74.98 181.02c48.353 48.351 112.64 74.98 181.02 74.98s132.667-26.629 181.02-74.98c48.351-48.353 74.98-112.64 74.98-181.02s-26.629-132.667-74.98-181.02zm-181.02 287.02c-58.449 0-106-47.552-106-106s47.551-106 106-106c58.448 0 106 47.552 106 106s-47.552 106-106 106zm122.562-164.922 65.805-65.806c23.764 35.771 37.633 78.657 37.633 124.728s-13.869 88.957-37.633 124.728l-65.805-65.806c8.61-17.836 13.438-37.826 13.438-58.922s-4.828-41.086-13.438-58.922zm47.418-89.846-63.84 63.841c-6.273-7.824-13.39-14.941-21.214-21.214l63.841-63.84c7.529 6.598 14.616 13.685 21.213 21.213zm-45.252-39.599-65.806 65.805c-17.836-8.61-37.826-13.438-58.922-13.438s-41.086 4.829-58.923 13.438l-65.805-65.805c35.771-23.764 78.658-37.633 124.728-37.633 46.071 0 88.957 13.869 124.728 37.633zm-273.495 18.386 63.841 63.841c-7.824 6.273-14.941 13.39-21.214 21.214l-63.841-63.841c6.598-7.529 13.685-14.616 21.214-21.214zm-39.6 45.253 65.805 65.805c-8.61 17.837-13.438 37.827-13.438 58.923s4.828 41.086 13.438 58.922l-65.805 65.805c-23.764-35.77-37.633-78.656-37.633-124.727s13.869-88.957 37.633-124.728zm18.386 273.495 63.841-63.841c6.273 7.824 13.39 14.941 21.214 21.214l-63.841 63.841c-7.529-6.598-14.616-13.685-21.214-21.214zm45.253 39.6 65.805-65.805c17.837 8.609 37.827 13.438 58.923 13.438s41.086-4.828 58.922-13.438l65.806 65.805c-35.771 23.764-78.657 37.633-124.728 37.633-46.07 0-88.957-13.869-124.728-37.633zm273.496-18.387-63.841-63.84c7.824-6.273 14.941-13.39 21.214-21.214l63.84 63.841c-6.598 7.529-13.685 14.616-21.213 21.213z"/></g></svg>