<svg id="Capa_1" enable-background="new 0 0 512 512" height="512" viewBox="0 0 512 512" width="512" xmlns="http://www.w3.org/2000/svg"><g><path d="m180.75 241h30v30h-30z"/><path d="m210.75 361.5v-30.25h45.25v-30h-45.25v-15.38h-30v16.885c-34.331 6.972-60.25 37.387-60.25 73.745 0 41.493 33.757 75.25 75.25 75.25 30.845 0 57.401-18.661 69.007-45.28l23.739 23.739 21.213-21.213-47.496-47.496zm-15 60.25c-24.951 0-45.25-20.299-45.25-45.25 0-19.694 12.651-36.481 30.25-42.684v57.684h57.684c-6.203 17.599-22.99 30.25-42.684 30.25z"/><path d="m481.875 135.5c0-74.715-60.785-135.5-135.5-135.5s-135.5 60.785-135.5 135.5c0 15.862 2.749 31.092 7.78 45.25h-188.53v331.25h331.25v-241.846c16.525-1.841 32.621-6.693 47.364-14.341l61.169 3.221-3.221-61.169c9.95-19.178 15.188-40.642 15.188-62.365zm-421.75 346.5v-271.25h173.622c21.704 32.378 56.985 54.918 97.628 59.416v211.834zm376.154-291.107 1.918 36.43-36.43-1.918c-15.796 9.668-36.178 15.693-55.393 15.596-58.173 0-105.5-47.327-105.5-105.5s47.328-105.501 105.501-105.501 105.5 47.327 105.5 105.5c.097 19.214-5.928 39.596-15.596 55.393z"/><path d="m331.375 60.25h30v30h-30z"/><path d="m331.375 109.877h30v100.873h-30z"/></g></svg>