<svg id="Capa_1" enable-background="new 0 0 512 512" height="512" viewBox="0 0 512 512" width="512" xmlns="http://www.w3.org/2000/svg"><g><path d="m146.091 165.495c-28.555 0-51.786 23.237-51.786 51.8s23.231 51.8 51.786 51.8 51.786-23.237 51.786-51.8-23.231-51.8-51.786-51.8zm0 73.6c-12.013 0-21.786-9.779-21.786-21.8s9.773-21.8 21.786-21.8 21.786 9.779 21.786 21.8-9.773 21.8-21.786 21.8z"/><path d="m512 119.606-110.97-41.115v26.924h-162.686c-25.268-21.09-57.758-33.8-93.163-33.8-38.886 0-75.386 15.163-102.778 42.697-27.343 27.485-42.403 64.058-42.403 102.983v223.09h512zm-246.43 15.809h135.46v82.08h-110.217c0-.066 0-.134 0-.2 0-30.335-9.322-58.53-25.243-81.88zm-235.57 81.88c0-63.786 51.67-115.68 115.182-115.68 63.759 0 115.631 51.894 115.631 115.68 0 4.932-.229 8.944-.764 13.417l-2.009 16.783h172.99v-125.896l50.97 18.884v191.491h-452zm451.91 193.09h-451.82v-48.41h451.82z"/></g></svg>