<svg id="Capa_1" enable-background="new 0 0 512 512" height="512" viewBox="0 0 512 512" width="512" xmlns="http://www.w3.org/2000/svg"><g><path d="m181 120.159h30v30h-30z"/><path d="m241 120.159h30v30h-30z"/><path d="m181 182.178h30v30h-30z"/><path d="m241 182.178h30v30h-30z"/><path d="m181 244.197h30v30h-30z"/><path d="m241 244.197h30v30h-30z"/><path d="m181 306.216h30v30h-30z"/><path d="m241 306.216h30v30h-30z"/><path d="m301 120.159h30v30h-30z"/><path d="m181 60.159h30v30h-30z"/><path d="m241 60.159h30v30h-30z"/><path d="m301 60.159h30v30h-30z"/><path d="m301 182.178h30v30h-30z"/><path d="m301 244.197h30v30h-30z"/><path d="m301 306.216h30v30h-30z"/><path d="m391 120.159v-120.159h-270v120.159h-121v391.841h512v-391.841zm-270 361.841h-91v-331.841h91zm180 0h-30v-85.765h30zm-60 0h-30v-85.765h30zm120 0h-30v-115.765h-150v115.765h-30v-361.841-90.159h210v90.159zm121 0h-91v-331.841h91z"/><path d="m60.5 241.079h30v30h-30z"/><path d="m60.5 181.079h30v30h-30z"/><path d="m60.5 301.079h30v30h-30z"/><path d="m60.5 361.08h30v30h-30z"/><path d="m60.5 421.08h30v30h-30z"/><path d="m421.5 241.079h30v30h-30z"/><path d="m421.5 181.079h30v30h-30z"/><path d="m421.5 301.079h30v30h-30z"/><path d="m421.5 361.08h30v30h-30z"/><path d="m421.5 421.08h30v30h-30z"/></g></svg>