<svg id="Capa_1" enable-background="new 0 0 512 512" height="512" viewBox="0 0 512 512" width="512" xmlns="http://www.w3.org/2000/svg"><g><path d="m512 1h-512v120h30v390h452v-390h30zm-60 480h-392v-360h392zm30-390h-452v-60h452z"/><path d="m210 241h92c24.813 0 45-20.187 45-45s-20.187-45-45-45h-92c-24.813 0-45 20.187-45 45s20.187 45 45 45zm0-60h92c8.271 0 15 6.729 15 15s-6.729 15-15 15h-92c-8.271 0-15-6.729-15-15s6.729-15 15-15z"/><path d="m422 451v-180h-332v180zm-302-90h45v60h-45zm75 60v-60h197v60zm197-90h-197v-30h197zm-227-30v30h-45v-30z"/></g></svg>