<svg id="Capa_1" enable-background="new 0 0 512 512" height="512" viewBox="0 0 512 512" width="512" xmlns="http://www.w3.org/2000/svg"><g><path d="m472.106 71.356c-25.054-24.566-58.068-38.045-93.104-38.045-.446 0-.897.002-1.344.006-35.533.35-68.802 14.516-93.692 39.899l-28.588 29.219-29.206-28.577c-52.377-51.356-136.771-50.526-188.126 1.85-24.879 25.373-38.388 58.915-38.039 94.447.35 35.532 14.516 68.802 39.888 93.68l219.211 214.854 214.849-219.206c24.879-25.373 38.387-58.915 38.039-94.447-.35-35.532-14.516-68.802-39.888-93.68zm-289.623 124.737c0 9.943-8.09 18.032-18.033 18.032s-18.032-8.089-18.032-18.032v-14.209c0-9.943 8.089-18.033 18.032-18.033s18.033 8.09 18.033 18.033zm-18.142 50.867 47.656 17.771c.501 9.229 3.86 17.705 9.197 24.573l-11.541 4.127c-19.516 6.979-32.63 25.594-32.63 46.322v16.479l-81.352-79.736c3.832-4.587 8.844-8.143 14.555-10.185zm135.657 17.827 48.332-17.83 53.524 19.292c5.438 1.96 10.264 5.316 14.024 9.629l-80.901 82.542v-18.732c0-20.672-13.066-39.27-32.513-46.28l-11.598-4.181c5.291-6.839 8.623-15.267 9.132-24.44zm66.471-68.694c0 9.943-8.089 18.032-18.032 18.032s-18.033-8.089-18.033-18.032v-14.209c0-9.943 8.09-18.033 18.033-18.033s18.032 8.09 18.032 18.033zm-96.398 66.224c0 7.76-6.312 14.072-14.071 14.072s-14.071-6.312-14.071-14.072v-6.057c0-7.759 6.312-14.071 14.071-14.071s14.071 6.312 14.071 14.071zm-11.391 173.949-51.656-50.63v-45.883c0-8.088 5.116-15.351 12.731-18.074l36.477-13.045 36.058 12.997c7.588 2.735 12.687 9.992 12.687 18.058v49.341zm193.852-197.785-15.639 15.956c-6.845-7.289-15.358-12.983-24.867-16.41l-27.749-10.002c7.576-8.494 12.192-19.682 12.192-31.932v-14.209c0-26.485-21.547-48.033-48.032-48.033s-48.033 21.548-48.033 48.033v14.209c0 12.3 4.652 23.53 12.283 32.037l-18.191 6.711c-7.541-13.499-21.967-22.651-38.496-22.651-16.504 0-30.911 9.125-38.461 22.59l-17.46-6.511c7.704-8.522 12.403-19.81 12.403-32.176v-14.209c0-26.485-21.548-48.033-48.033-48.033s-48.032 21.548-48.032 48.033v14.209c0 12.197 4.578 23.34 12.095 31.82l-28.388 10.152c-10.015 3.582-18.891 9.631-25.902 17.41l-13.327-13.062c-19.649-19.268-30.62-45.034-30.891-72.552-.271-27.52 10.192-53.498 29.46-73.148 39.775-40.565 105.137-41.209 145.715-1.422l50.661 49.568 49.557-50.65c19.268-19.651 45.035-30.622 72.555-30.893 27.551-.264 53.498 10.192 73.148 29.46 19.651 19.269 30.622 45.036 30.893 72.555s-10.191 53.498-29.461 73.15z"/></g></svg>