<svg id="Capa_1" enable-background="new 0 0 512.019 512.019" height="512" viewBox="0 0 512.019 512.019" width="512" xmlns="http://www.w3.org/2000/svg"><g><path d="m479.451 272.96c6.71-8.926 10.692-20.012 10.692-32.013 0-29.437-23.948-53.385-53.385-53.385-5.207 0-10.236.763-14.998 2.159l.137-39.087h-120.763v-30.25h120.5v-90.25h-210.75v119.828h-120.765l.139 39.759c-4.762-1.397-9.792-2.16-14.999-2.16-29.437 0-53.385 23.948-53.385 53.385 0 12.001 3.983 23.089 10.693 32.014-19.845 17.577-32.95 45.868-32.558 73.423-.546 38.439 24.153 76.182 60.25 91.237v44.263h45.125c74.715 0 135.5-60.785 135.5-135.5 0-26.589-7.705-51.408-20.99-72.355l9.188-10.337c7.911 4.642 17.11 7.317 26.927 7.317s19.016-2.675 26.927-7.317l9.186 10.334c-13.284 20.949-20.988 45.769-20.988 72.358 0 74.715 60.785 135.5 135.5 135.5h45.125v-44.263c35.276-14.677 60.849-52.05 60.25-91.237.391-27.553-12.714-55.845-32.558-73.423zm-19.307-32.013c0 12.895-10.49 23.385-23.385 23.385s-23.385-10.49-23.385-23.385 10.49-23.385 23.385-23.385 23.385 10.491 23.385 23.385zm-68.351-60.312-.109 31.079c-31.244 3.445-59.323 17.551-80.504 38.597l-7.585-8.533c3.699-7.259 5.8-15.462 5.8-24.152 0-10.463-3.037-20.224-8.26-28.472v-8.519zm-.159-120.5v30.25h-120.5v76.051c-4.799-1.42-9.872-2.196-15.125-2.196s-10.326.775-15.125 2.196v-106.301zm-316.375 157.427c12.895 0 23.385 10.49 23.385 23.385s-10.49 23.385-23.385 23.385-23.385-10.49-23.385-23.385 10.49-23.385 23.385-23.385zm-45.25 128.823c0-21.953 10.591-42.263 27.429-55.123.928.33 1.87.631 2.821.91v111.369c-18.465-12.685-30.25-34.005-30.25-57.156zm75.375 105.5h-15.125v-159.713c21.383-6.272 37.242-25.585 38.321-48.707 47.051 10.597 82.304 52.714 82.304 102.92 0 58.172-47.327 105.5-105.5 105.5zm14.951-240.169-.11-31.753h90.659v9.191c-5.222 8.247-8.26 18.009-8.26 28.472 0 8.69 2.1 16.894 5.8 24.152l-7.589 8.537c-21.181-21.043-49.257-35.154-80.5-38.599zm135.674 29.294c-12.895 0-23.385-10.49-23.385-23.385s10.49-23.385 23.385-23.385 23.385 10.49 23.385 23.385-10.491 23.385-23.385 23.385zm150.625 210.875c-58.173 0-105.5-47.327-105.5-105.5 0-50.205 35.254-92.322 82.304-102.919 1.08 23.122 16.938 42.434 38.321 48.706v159.713zm45.125-48.344v-111.369c.951-.279 1.892-.58 2.821-.91 16.838 12.859 27.429 33.17 27.429 55.123 0 23.151-11.785 44.471-30.25 57.156z"/><path d="m104.509 330.385c0 24.882 20.243 45.125 45.125 45.125s45.125-20.243 45.125-45.125-20.243-45.125-45.125-45.125-45.125 20.243-45.125 45.125zm60.25 0c0 8.34-6.785 15.125-15.125 15.125s-15.125-6.785-15.125-15.125 6.785-15.125 15.125-15.125 15.125 6.785 15.125 15.125z"/><path d="m120.509 391.635h30v30h-30z"/><path d="m362.384 285.26c-24.882 0-45.125 20.243-45.125 45.125s20.243 45.125 45.125 45.125 45.125-20.243 45.125-45.125-20.243-45.125-45.125-45.125zm0 60.25c-8.34 0-15.125-6.785-15.125-15.125s6.785-15.125 15.125-15.125 15.125 6.785 15.125 15.125-6.785 15.125-15.125 15.125z"/><path d="m361.509 391.635h30v30h-30z"/></g></svg>