<svg id="Capa_1" enable-background="new 0 0 512 512" height="512" viewBox="0 0 512 512" width="512" xmlns="http://www.w3.org/2000/svg"><g><path d="m256 0c-113.489 0-205.819 92.33-205.819 205.819v306.181h411.639v-306.181c-.001-113.489-92.331-205.819-205.82-205.819zm175.819 482h-351.638v-276.181c0-96.947 78.872-175.819 175.819-175.819s175.819 78.872 175.819 175.819z"/><path d="m342.491 88.485c-13.613-10.058-31.494-11.552-46.664-3.896-15.313 7.726-24.827 23.158-24.827 40.274v117.047c-4.848-.988-9.864-1.509-15-1.509s-10.152.521-15 1.509v-116.764c0-17.189-9.573-32.652-24.984-40.355-15.257-7.624-33.175-6.029-46.763 4.166-36.99 27.757-59.073 71.982-59.073 118.303v139.74c0 57.897 47.103 105 105 105h81.641c57.897 0 105-47.103 105-105v-141.18c-.001-46.026-22.179-89.889-59.33-117.335zm-42.362 218.081-44.129 22.065-44.129-22.064c4.116-20.598 22.339-36.165 44.129-36.165s40.013 15.567 44.129 36.164zm71.691 40.434c0 41.355-33.645 75-75 75h-81.64c-41.355 0-75-33.645-75-75v-139.74c0-36.931 17.6-72.186 47.079-94.307 6.495-4.875 12.896-2.553 15.344-1.327 5.258 2.628 8.397 7.683 8.397 13.521v70.137h-40v30h40v30.159c-18.204 13.697-30 35.475-30 59.959v9.271l75 37.5 75-37.5v-9.271c0-24.484-11.796-46.262-30-59.959v-30.159h40v-30h-40v-70.42c0-5.812 3.118-10.855 8.341-13.49 2.438-1.229 8.809-3.57 15.324 1.241 29.527 21.813 47.155 56.657 47.155 93.206z"/></g></svg>