<svg id="Capa_1" enable-background="new 0 0 510.704 510.704" height="512" viewBox="0 0 510.704 510.704" width="512" xmlns="http://www.w3.org/2000/svg"><g id="XMLID_865_"><path id="XMLID_1107_" d="m240.828 292.462c-.628-1.312-1.176-2.683-1.649-4.099 17.161-.404 47.575-3.979 73.305-22.06h-.001c37.439-26.309 49.35-72.367 49.838-74.314l4.227-16.845-17.28-1.73c-1.997-.199-49.366-4.601-86.805 21.709-7.481 5.257-13.939 11.303-19.494 17.627 1.198-3.858 1.817-7.866 1.817-11.982 0-9.671-3.409-18.558-9.083-25.533 5.673-6.975 9.083-15.862 9.083-25.532 0-6.109-1.331-11.988-3.957-17.475-2.436-5.09-3.724-11.051-3.724-17.236v-39.749c0-6.186 1.288-12.146 3.725-17.238 2.625-5.486 3.956-11.365 3.956-17.473-.001-22.349-18.183-40.532-40.534-40.532h-26.103c-22.35 0-40.532 18.183-40.532 40.532 0 6.108 1.331 11.987 3.956 17.475 2.437 5.09 3.724 11.05 3.724 17.236v37.07c-7.133-10.092-16.314-20.198-27.97-28.388-37.438-26.31-84.809-21.908-86.806-21.708l-17.28 1.73 4.227 16.845c.488 1.948 12.4 48.006 49.839 74.314 27.614 19.406 60.63 22.104 76.857 22.104.354 0 .698-.001 1.036-.004-4.766 6.646-7.583 14.778-7.583 23.562 0 6.109 1.331 11.988 3.956 17.474 2.436 5.09 3.724 11.05 3.724 17.236v39.749c0 1.194-.063 2.376-.158 3.549-6.054-7.304-13.266-14.34-21.812-20.345-37.437-26.308-84.806-21.908-86.805-21.708l-17.28 1.73 4.227 16.845c.488 1.947 12.398 48.006 49.838 74.314 22.183 15.589 47.843 20.393 65.495 21.68-.768 3.113-1.184 6.363-1.184 9.71 0 6.108 1.331 11.987 3.956 17.475 2.437 5.09 3.724 11.05 3.724 17.236v39.748c0 6.186-1.288 12.146-3.724 17.236-2.625 5.485-3.956 11.364-3.956 17.475 0 22.35 18.183 40.532 40.532 40.532h26.103c22.351 0 40.533-18.183 40.533-40.532 0-6.109-1.331-11.988-3.957-17.475-2.436-5.09-3.724-11.051-3.724-17.236v-39.748c0-6.186 1.288-12.146 3.725-17.238 2.625-5.486 3.956-11.365 3.956-17.473 0-9.671-3.409-18.558-9.083-25.532 5.673-6.975 9.083-15.862 9.083-25.533-.001-6.11-1.332-11.989-3.958-17.475zm38.884-72.795c14.976-10.524 32.765-14.502 46.186-15.915-5.843 12.099-15.59 27.414-30.662 38.006-14.949 10.505-32.704 14.487-46.116 15.908 5.882-12.144 15.644-27.495 30.592-37.999zm-195.157-89.105c-14.975-10.524-24.746-25.915-30.623-38.062 13.363 1.397 31.074 5.378 46.147 15.97 14.975 10.523 24.746 25.914 30.623 38.062-13.363-1.398-31.074-5.379-46.147-15.97zm83.062 179.375c0-1.592.342-3.114 1.017-4.523 4.359-9.107 6.663-19.546 6.663-30.187v-39.749c0-10.641-2.304-21.079-6.663-30.188-.675-1.409-1.017-2.931-1.017-4.522 0-5.808 4.725-10.533 10.532-10.533h26.103c5.808 0 10.533 4.726 10.533 10.533 0 1.59-.343 3.111-1.019 4.524-4.358 9.109-6.662 19.548-6.662 30.186v39.749c0 10.641 2.304 21.079 6.663 30.187.675 1.411 1.018 2.933 1.018 4.523 0 5.808-4.726 10.533-10.533 10.533h-26.103c-5.807 0-10.532-4.726-10.532-10.533zm1.018-264.879c-.676-1.411-1.018-2.934-1.018-4.525 0-5.808 4.725-10.532 10.532-10.532h26.103c5.808 0 10.533 4.725 10.533 10.532 0 1.591-.343 3.113-1.018 4.524-4.359 9.109-6.663 19.548-6.663 30.187v39.748c0 10.641 2.304 21.079 6.663 30.188.675 1.411 1.018 2.933 1.018 4.523 0 5.808-4.726 10.532-10.533 10.532h-26.103c-5.808 0-10.532-4.725-10.532-10.532 0-1.592.342-3.114 1.017-4.523 4.359-9.108 6.663-19.547 6.663-30.188v-39.749c0-10.641-2.304-21.08-6.662-30.185zm-78.08 260.008c-14.948-10.505-24.711-25.86-30.592-37.997 13.417 1.42 31.169 5.401 46.115 15.905 14.976 10.523 24.747 25.914 30.624 38.062-13.363-1.397-31.074-5.378-46.147-15.97zm123.213 160.582c.675 1.411 1.018 2.933 1.018 4.523 0 5.808-4.726 10.532-10.533 10.532h-26.103c-5.808 0-10.532-4.725-10.532-10.532 0-1.592.342-3.114 1.017-4.523 4.359-9.108 6.663-19.547 6.663-30.188v-39.748c0-10.642-2.304-21.08-6.662-30.186-.676-1.411-1.018-2.934-1.018-4.525 0-5.808 4.725-10.532 10.532-10.532h26.103c5.808 0 10.533 4.725 10.533 10.532 0 1.591-.343 3.113-1.018 4.524-4.359 9.109-6.663 19.548-6.663 30.187v39.748c-.001 10.642 2.303 21.08 6.663 30.188z"/><path id="XMLID_1198_" d="m493.506 132.228c-2.436-5.09-3.724-11.051-3.724-17.236v-39.749c0-6.187 1.287-12.146 3.725-17.238 2.625-5.486 3.956-11.365 3.956-17.473 0-22.349-18.183-40.532-40.533-40.532h-26.103c-22.35 0-40.533 18.183-40.533 40.532 0 3.39.425 6.706 1.239 9.927-5.334-5.928-11.478-11.583-18.528-16.538-37.438-26.31-84.807-21.909-86.806-21.708l-17.28 1.73 4.227 16.845c.488 1.948 12.399 48.005 49.838 74.314h.001c25.686 18.05 56.036 21.643 73.212 22.056-.536 1.76-1.176 3.461-1.945 5.068-2.626 5.486-3.957 11.365-3.957 17.475 0 9.671 3.409 18.558 9.083 25.532-5.674 6.975-9.083 15.862-9.083 25.533 0 6.108 1.331 11.987 3.957 17.474 2.436 5.09 3.724 11.05 3.724 17.236v39.749c0 6.187-1.287 12.146-3.724 17.235-2.626 5.486-3.957 11.365-3.957 17.475 0 5.167.982 10.106 2.753 14.654-17.663 1.005-44.781 5.488-68.062 21.848-37.439 26.309-49.35 72.367-49.838 74.314l-4.227 16.845 17.28 1.73c.524.053 4.174.395 9.95.395 16.23 0 49.244-2.7 76.854-22.103h.001c9.097-6.393 16.684-13.953 22.969-21.762v39.603c0 6.186-1.288 12.146-3.724 17.236-2.626 5.486-3.957 11.365-3.957 17.475 0 22.35 18.184 40.532 40.533 40.532h26.103c22.351 0 40.533-18.183 40.533-40.532 0-6.109-1.331-11.988-3.957-17.475-2.436-5.09-3.724-11.051-3.724-17.236v-39.748c0-6.187 1.287-12.146 3.725-17.238 2.625-5.486 3.956-11.365 3.956-17.473 0-9.671-3.409-18.558-9.083-25.532 5.673-6.975 9.083-15.862 9.083-25.533 0-6.109-1.331-11.988-3.957-17.475-2.437-5.09-3.724-11.049-3.724-17.235v-39.749c0-6.187 1.288-12.146 3.724-17.236 2.626-5.486 3.957-11.365 3.957-17.474 0-9.671-3.409-18.558-9.083-25.533 5.673-6.975 9.083-15.862 9.083-25.532 0-6.108-1.331-11.987-3.957-17.473zm-153.274-51.669c-14.975-10.523-24.745-25.914-30.623-38.062 13.363 1.397 31.074 5.378 46.147 15.97 14.975 10.523 24.746 25.914 30.623 38.062-13.362-1.398-31.073-5.379-46.147-15.97zm17.524 312.516c-14.976 10.523-32.765 14.501-46.186 15.914 5.843-12.099 15.59-27.414 30.662-38.006 14.949-10.505 32.704-14.487 46.116-15.907-5.882 12.143-15.644 27.495-30.592 37.999zm73.071-363.075h26.103c5.808 0 10.533 4.725 10.533 10.532 0 1.591-.343 3.113-1.018 4.523-4.359 9.107-6.663 19.546-6.663 30.188v39.748c0 10.641 2.304 21.079 6.663 30.188.675 1.411 1.018 2.933 1.018 4.523 0 5.808-4.726 10.532-10.533 10.532h-26.103c-5.808 0-10.533-4.725-10.533-10.532 0-1.591.343-3.112 1.018-4.523 4.359-9.108 6.663-19.547 6.663-30.188v-39.748c0-10.642-2.304-21.08-6.662-30.186-.676-1.412-1.019-2.935-1.019-4.525 0-5.807 4.726-10.532 10.533-10.532zm36.636 170.768c0 1.59-.343 3.111-1.018 4.522-4.359 9.108-6.663 19.547-6.663 30.188v39.749c0 10.641 2.304 21.079 6.663 30.187.675 1.411 1.018 2.933 1.018 4.523 0 5.808-4.726 10.533-10.533 10.533h-26.103c-5.808 0-10.533-4.726-10.533-10.533 0-1.591.343-3.112 1.018-4.523 4.359-9.107 6.663-19.546 6.663-30.187v-39.749c0-10.641-2.304-21.079-6.663-30.188-.675-1.411-1.018-2.933-1.018-4.522 0-5.808 4.726-10.533 10.533-10.533h26.103c5.807-.001 10.533 4.725 10.533 10.533zm-1.018 264.88c.675 1.411 1.018 2.933 1.018 4.523 0 5.808-4.726 10.532-10.533 10.532h-26.103c-5.808 0-10.533-4.725-10.533-10.532 0-1.591.343-3.112 1.018-4.523 4.359-9.108 6.663-19.547 6.663-30.188v-39.748c0-10.642-2.304-21.08-6.662-30.186-.676-1.412-1.019-2.935-1.019-4.525 0-5.808 4.726-10.532 10.533-10.532h26.103c5.808 0 10.533 4.725 10.533 10.532 0 1.591-.343 3.113-1.018 4.523-4.359 9.107-6.663 19.546-6.663 30.188v39.748c0 10.642 2.304 21.08 6.663 30.188z"/></g></svg>