<svg id="Capa_1" enable-background="new 0 0 510 510" height="512" viewBox="0 0 510 510" width="512" xmlns="http://www.w3.org/2000/svg"><g><path d="m481.64 342.597c-10.875-13.594-24.663-22.516-39.783-25.974-2.849-28.879-15.02-48.147-31.707-62.517 43.658-6.167 77.35-43.773 77.35-89.106v-15h-45c-43.55 0-79.972 31.095-88.238 72.247-42.136-18.796-73.887-33.219-99.022-72.247h7.261c49.626 0 90-40.374 90-90v-15h-45c-38.568 0-71.543 24.389-84.326 58.551-37.589-47.771-101.551-103.551-215.675-103.551v30c121.589 0 178.314 69.41 210 116.939 14.206 21.927 21.224 34.208 36.871 49.633-9.111 10.129-21.12 26.095-31.291 48.376-14.764-29.581-45.336-49.948-80.58-49.948h-45v15c0 49.626 40.374 90 90 90h18.766c-1.711 9.891-2.908 20.45-3.442 31.695-14.994 3.511-28.664 12.404-39.463 25.901-27.82 34.775-27.837 90.01 0 124.807 14.237 17.796 33.463 27.597 54.139 27.597s39.902-9.801 54.14-27.597c27.82-34.775 27.837-90.01 0-124.807-10.635-13.293-24.055-22.122-38.781-25.741 1.802-34.395 10.737-65.215 26.664-91.753 6.456-10.758 12.96-18.833 17.987-24.334 25.008 17.534 51.897 27.912 74.99 38.64 31.946 14.953 54.986 28.207 59.236 62.552-14.567 3.681-27.839 12.466-38.376 25.637-27.82 34.775-27.837 90.01 0 124.807 14.238 17.795 33.464 27.596 54.14 27.596s39.902-9.801 54.14-27.597c13.452-16.815 20.86-38.977 20.86-62.403s-7.408-45.588-20.86-62.403zm-39.14-162.597h13.102c-6.677 25.85-30.195 45-58.102 45h-13.102c6.677-25.85 30.196-45 58.102-45zm-121.898-105c-6.677 25.85-30.195 45-58.102 45h-13.102c13.344-51.661 70.211-44.705 71.204-45zm-133.102 195c-27.906 0-51.425-19.15-58.102-45h13.102c27.906 0 51.425 19.15 58.102 45zm75 150c0 33.084-20.187 60-45 60-24.814 0-45-26.916-45-60s20.186-60 45-60c24.813 0 45 26.916 45 60zm165 45c-24.814 0-45-26.916-45-60s20.186-60 45-60c24.813 0 45 26.916 45 60s-20.187 60-45 60z"/></g></svg>