<?xml version="1.0" encoding="iso-8859-1"?>
<!-- Generator: Adobe Illustrator 19.0.0, SVG Export Plug-In . SVG Version: 6.00 Build 0)  -->
<svg xmlns="http://www.w3.org/2000/svg" xmlns:xlink="http://www.w3.org/1999/xlink" version="1.1" id="Layer_1" x="0px" y="0px" viewBox="0 0 512 512" style="enable-background:new 0 0 512 512;" xml:space="preserve">
<g>
	<g>
		<path d="M498.411,101.152c-8.77-8.77-20.43-13.6-32.832-13.6c-12.402,0-24.062,4.83-32.832,13.6L87.563,446.335L153.228,512    l345.184-345.183C516.515,148.712,516.515,119.255,498.411,101.152z M153.229,468.224l-21.889-21.889l43.777-43.777l21.889,21.889    L153.229,468.224z M218.893,402.56l-21.889-21.889l87.553-87.553l21.889,21.889L218.893,402.56z M476.524,144.929L328.333,293.12    l-21.889-21.889L454.635,123.04c2.923-2.923,6.81-4.534,10.944-4.534s8.02,1.611,10.944,4.534    C482.558,129.075,482.558,138.894,476.524,144.929z"/>
	</g>
</g>
<g>
	<g>
		<path d="M410.859,13.6C402.088,4.83,390.429,0,378.026,0c-12.402,0-24.062,4.831-32.831,13.6L0.011,358.784l65.665,65.665    L410.859,79.264c8.77-8.769,13.6-20.429,13.6-32.832C424.459,34.029,419.629,22.37,410.859,13.6z M65.675,380.673l-21.888-21.889    l43.777-43.777l21.888,21.889L65.675,380.673z M131.34,315.009l-21.888-21.889l87.552-87.553l21.889,21.888L131.34,315.009z     M388.972,57.375L240.78,205.567l-21.889-21.888L367.084,35.488c2.923-2.923,6.81-4.534,10.943-4.534    c4.134,0,8.02,1.611,10.944,4.534c2.923,2.923,4.534,6.811,4.534,10.943C393.504,50.566,391.895,54.452,388.972,57.375z"/>
	</g>
</g>
<g>
</g>
<g>
</g>
<g>
</g>
<g>
</g>
<g>
</g>
<g>
</g>
<g>
</g>
<g>
</g>
<g>
</g>
<g>
</g>
<g>
</g>
<g>
</g>
<g>
</g>
<g>
</g>
<g>
</g>
</svg>
