<svg id="Capa_1" enable-background="new 0 0 510 510" height="512" viewBox="0 0 510 510" width="512" xmlns="http://www.w3.org/2000/svg"><g><path d="m480 210v30h-45.63c-3.182-38.379-18.455-73.373-41.992-101.165l32.327-32.327 21.214 21.213 21.213-21.213-63.64-63.64-21.213 21.213 21.214 21.214-32.328 32.327c-27.792-23.537-62.787-38.81-101.165-41.992v-45.63h30v-30h-90v30h30v45.63c-38.379 3.182-73.374 18.455-101.165 41.992l-32.328-32.327 21.214-21.214-21.213-21.213-63.64 63.64 21.213 21.213 21.213-21.213 32.328 32.327c-23.537 27.792-38.81 62.786-41.992 101.165h-45.63v-30h-30v90h30v-30h45.63c3.182 38.379 18.455 73.373 41.992 101.165l-32.328 32.327-21.213-21.213-21.213 21.213 63.64 63.64 21.213-21.213-21.214-21.214 32.328-32.327c27.791 23.537 62.786 38.81 101.165 41.991v45.631h-30v30h90v-30h-30v-45.631c38.378-3.182 73.373-18.454 101.165-41.991l32.328 32.327-21.214 21.214 21.213 21.213 63.64-63.64-21.213-21.213-21.213 21.213-32.328-32.327c23.537-27.792 38.811-62.786 41.992-101.165h45.63v30h30v-90zm-225 195c-82.71 0-150-67.29-150-150s67.29-150 150-150 150 67.29 150 150-67.29 150-150 150z"/><path d="m210 270c-24.814 0-45 20.187-45 45 0 24.814 20.186 45 45 45s45-20.186 45-45c0-24.813-20.186-45-45-45zm0 60c-8.271 0-15-6.728-15-15 0-8.271 6.729-15 15-15s15 6.729 15 15c0 8.272-6.729 15-15 15z"/><path d="m300 150c-24.814 0-45 20.187-45 45 0 24.814 20.186 45 45 45s45-20.186 45-45c0-24.813-20.186-45-45-45zm0 60c-8.272 0-15-6.729-15-15s6.728-15 15-15 15 6.729 15 15-6.728 15-15 15z"/><path d="m135 210h30v30h-30z"/><path d="m345 255h30v30h-30z"/><path d="m285 270h30v30h-30z"/><path d="m180 150h30v30h-30z"/><path d="m285 330h30v30h-30z"/><path d="m195 210h30v30h-30z"/></g></svg>