<svg id="Capa_1" enable-background="new 0 0 512 512" height="512" viewBox="0 0 512 512" width="512" xmlns="http://www.w3.org/2000/svg"><g><path d="m512 120.439c0-58.104-47.271-105.376-105.376-105.376-53.012 0-97 39.352-104.304 90.376h-202.723l-4.795-23.976c-4.203-21.017-22.813-36.273-44.248-36.273h-50.554v30h50.554c7.185 0 13.422 5.113 14.831 12.158l50.562 252.816c4.204 21.02 22.813 36.275 44.249 36.275h186.18c8.34 0 15.124 6.784 15.124 15.124s-6.784 15.124-15.124 15.124h-225.876v30h32.74c-1.688 4.731-2.615 9.82-2.615 15.123 0 24.882 20.243 45.125 45.125 45.125s45.125-20.243 45.125-45.125c0-5.303-.927-10.392-2.615-15.123h35.48c-1.688 4.731-2.615 9.82-2.615 15.123 0 24.882 20.243 45.125 45.125 45.125s45.125-20.243 45.125-45.125c0-5.896-1.149-11.526-3.215-16.694 19.183-5.196 33.34-22.748 33.34-43.553 0-24.882-20.242-45.124-45.124-45.124h-186.18c-7.185 0-13.422-5.114-14.831-12.159l-3.618-18.091h259.1l18.223-91.114c52.259-6.175 92.93-50.742 92.93-104.636zm-301.125 331.373c0 8.34-6.785 15.125-15.125 15.125s-15.125-6.785-15.125-15.125c0-8.327 6.764-15.102 15.086-15.123h.077c8.323.02 15.087 6.796 15.087 15.123zm105.375 15.125c-8.34 0-15.125-6.785-15.125-15.125 0-8.327 6.764-15.102 15.086-15.123h.077c8.322.021 15.086 6.796 15.086 15.123.001 8.339-6.784 15.125-15.124 15.125zm-198.603-271.247h215.292c14.946 14.638 34.217 24.873 55.697 28.583l-.333 1.667h-264.606zm184.673-60.25c1.529 10.68 4.661 20.848 9.151 30.251h-199.823l-6.05-30.25zm-166.573 150.75-6.05-30.25h252.606l-6.05 30.25zm270.877-90.375c-41.562 0-75.376-33.813-75.376-75.376s33.813-75.376 75.376-75.376 75.376 33.814 75.376 75.376-33.813 75.376-75.376 75.376z"/><path d="m377.5 105.316h14.124v60.25h30v-90.25h-44.124z"/></g></svg>