<svg id="Capa_1" enable-background="new 0 0 512.011 512.011" height="512" viewBox="0 0 512.011 512.011" width="512" xmlns="http://www.w3.org/2000/svg"><g><path d="m271.011 60c-99.281 0-180 81.573-180 181 0 99.252 80.748 180 180 180 99.272 0 181-80.574 181-180 0-99.37-81.651-181-181-181zm0 331c-82.71 0-150-67.29-150-150 0-83.262 67.29-151 150-151 83.262 0 151 67.738 151 151 0 82.71-67.739 150-151 150z"/><path d="m271.011 331c-49.626 0-90-40.374-90-90h-30c0 66.168 53.832 120 120 120s120-53.832 120-120h-30c0 49.626-40.374 90-90 90z"/><path d="m271.011 0c-132.336 0-240 108.112-240 241 0 48.561 14.482 95.095 41.979 135.19l-72.99 135.821 135.82-72.989c40.096 27.496 86.63 41.978 135.191 41.978 132.888 0 241-107.664 241-240 0-132.67-108.341-241-241-241zm0 451c-80.744 0-127.839-44.675-132.765-47.339l-64.625 34.729 34.729-64.626c-2.426-4.484-47.34-52.926-47.34-132.764 0-116.346 94.206-211 210-211 116.346 0 211 94.654 211 211 .001 115.794-94.654 210-210.999 210z"/><path d="m211.011 151h30v60h-30z"/><path d="m301.011 151h30v60h-30z"/></g></svg>