<svg id="Capa_1" enable-background="new 0 0 510 510" height="512" viewBox="0 0 510 510" width="512" xmlns="http://www.w3.org/2000/svg"><path d="m510 195v-90h-45c-39.673 0-77.086 15.447-105.012 42.881-58.333-57.201-151.617-57.24-209.988.012-28.207-27.666-65.431-42.893-105-42.893h-45v90h30v120h-30v90h45c39.569 0 76.793-15.227 105-42.892 58.327 57.209 151.613 57.256 209.988.011 27.926 27.434 65.339 42.881 105.012 42.881h45v-90h-30v-120zm-105 60c0-27.906 19.15-51.424 45-58.102v116.203c-25.85-6.677-45-30.195-45-58.101zm75-120v30h-15c-28.614 0-54.151 13.425-70.647 34.305-3.962-9.918-8.992-19.402-15.038-28.309 42.495-43.413 94.332-34.939 100.685-35.996zm-392.576 162.423c-7.706 7.706-17.14 13.052-27.424 15.688v-116.222c44.385 11.381 60.541 67.418 27.424 100.534zm-57.424 77.577v-30h15c27.58 0 53.338-12.353 70.723-34.365 3.962 9.93 8.978 19.442 14.984 28.342-42.837 43.753-94.016 34.925-100.707 36.023zm131.662-44.573c-17.442-21.563-26.662-47.645-26.662-75.427 0-49.734-40.263-90-90-90h-15v-30h15c65.948 0 120 53.318 120 120 0 24.035 9.362 46.635 26.363 63.638 37.862 37.858 100.571 34.775 134.36-8.003 3.961 9.929 8.977 19.441 14.983 28.342-50.315 51.375-133.975 47.215-179.044-8.55zm108.338-133.538c44.799 11.487 60.266 67.693 27.424 100.534-7.706 7.706-17.14 13.052-27.424 15.688zm-30 116.222c-25.174-6.455-45-29.459-45-58.111s19.825-51.655 45-58.111zm240 61.889h-15c-65.886 0-120-53.244-120-120 0-49.734-40.263-90-90-90-27.58 0-53.338 12.354-70.724 34.365-3.961-9.93-8.977-19.442-14.983-28.342 22.746-23.232 53.268-36.023 85.707-36.023 66.321 0 120 53.669 120 120 0 49.626 40.374 90 90 90h15z"/></svg>