<svg id="Capa_1" enable-background="new 0 0 512.001 512.001" height="512" viewBox="0 0 512.001 512.001" width="512" xmlns="http://www.w3.org/2000/svg"><g><path d="m489.774 205.774c0-113.464-92.31-205.774-205.774-205.774-44.388 0-86.66 13.912-122.247 40.233-34.871 25.792-60.319 61.137-73.594 102.215l-.352 1.089-8.955 55.412-56.625 102.69v38.361h47.106l18.982 103.695h106.936l16.135 68.306h244.439l-28.293-158.774c39.657-38.635 62.242-91.901 62.242-147.453zm-254.649 276.227-16.135-68.306h-105.668l-18.983-103.695h-42.112v-.639l55.41-100.485 9.416-58.27c23.827-72.187 90.775-120.606 166.947-120.606 96.923 0 175.774 78.853 175.774 175.774 0 49.867-21.306 97.577-58.453 130.897l-6.217 5.576 24.903 139.753h-184.882z"/><path d="m181.243 129.721v69.016c0 28.58 10.348 56.18 29.136 77.716 19.131 21.929 46.397 35.779 75.08 39.688 28.145-2.68 56.636-18.546 75.08-39.688 18.789-21.536 29.136-49.136 29.136-77.716v-69.016l-104.217-53.232zm178.431 69.015c0 43.188-31.763 80.271-74.216 87.1-42.453-6.829-74.216-43.912-74.216-87.1v-50.652l74.216-37.907 74.216 37.907z"/><path d="m257.074 183.216-19.332 22.939 42.731 36.012 54.267-61.28-22.459-19.889-34.861 39.364z"/></g></svg>