<svg id="Capa_1" enable-background="new 0 0 500.989 500.989" height="512" viewBox="0 0 500.989 500.989" width="512" xmlns="http://www.w3.org/2000/svg"><g><path d="m153.195 278.943-11.922-15.615c-13.696 17.194-45.286 59.341-43.999 78.718 2.411 58.36 85.587 58.366 87.999-.001 1.462-14.048-20.065-47.751-32.078-63.102zm-11.922 77.103c-7.72 0-14-6.28-14.001-13.963.178-4.245 5.975-15.521 13.99-27.931 7.959 12.357 13.825 23.736 14.011 27.918-.013 7.708-6.288 13.976-14 13.976z"/><path d="m500.761 432.945-40.271-40.271c12.714-16.582 17.678-37.229 14.919-56.994 63.492-159.62-57.17-336.821-229.137-335.633-132.222-2.727-248.737 113.767-245.997 246.001-1.574 168.717 171.28 289.892 329.377 231.489l23.452 23.452 39.807-39.807 39.807 39.807zm-68.044 25.618-69.007-69.007c-15.828-15.328-19.561-41.06-9.037-60.273l103.662 103.662zm-56.05-152.258c42.507-23.791 87.595 23.798 62.3 64.846l-63.883-63.883c.342-.219.689-.428 1.036-.637.187-.102.376-.196.563-.298zm85.606-60.259c0 16.751-1.902 33.224-5.646 49.264-23.185-26.765-65.379-33.093-95.422-14.722-44.363 24.934-105.071 14.694-138.683-21.509 26.759-33.176 35.735-78.054 22.758-119.537 16.671-23.79 41.024-80.569 51.864-103.491 94.462 21.351 166.831 112.614 165.129 209.995zm-242.063-81.629c3.388 24.439-2.513 49.27-16.341 69.518-7.946-14.395-12.946-30.634-14.166-47.901 7.505-4.682 19.092-12.348 30.507-21.617zm26.063 297.629c-116.103 2.391-218.4-99.893-215.998-216.002-1.827-125.055 111.917-228.513 236.223-215.058-10.488 23.046-31.353 68.113-42.197 86.187-14.707 22.275-47.593 41.95-64.891 51.868-5.453 90.441 74.978 166.405 165.042 154.215-8.632 21.147-7.425 46.962 3.173 67.125l-42.565 42.565 20.778 20.778c-19.257 5.519-39.205 8.322-59.565 8.322zm106.831-3.483-25.618-25.618 18.594-18.594 25.618 25.618z"/></g></svg>