<svg id="Capa_1" enable-background="new 0 0 512 512" height="512" viewBox="0 0 512 512" width="512" xmlns="http://www.w3.org/2000/svg"><g><path d="m404.011 444.439c29.985-34.462 48.165-79.454 48.165-128.615 0-80.872-49.447-153.007-124.007-182.464v-70.186h-28.602c1.964-5.149 3.049-10.728 3.049-16.559 0-25.704-20.912-46.615-46.616-46.615s-46.616 20.911-46.616 46.616c0 5.831 1.086 11.409 3.049 16.559h-28.602v70.186c-74.56 29.455-124.007 101.591-124.007 182.463 0 49.16 18.18 94.153 48.165 128.615v.104h.093c35.992 41.307 88.957 67.457 147.918 67.457s111.926-26.15 147.918-67.457h.092v-.104zm-148.011-351.209c.837 0 1.668-.024 2.494-.068h39.688v36.065h-84.362v-36.065h39.687c.825.044 1.656.068 2.493.068zm55.731 65.985c22.248 7.912 42.026 20.238 58.474 35.802h-228.411c16.448-15.564 36.226-27.89 58.473-35.802zm-72.359-112.599c0-9.169 7.459-16.628 16.628-16.628s16.628 7.459 16.628 16.628c0 8.713-6.74 15.868-15.278 16.559h-2.699c-8.539-.691-15.279-7.847-15.279-16.559zm-122.589 178.389h278.433c17.205 26.392 26.972 57.742 26.972 90.819 0 36.944-12.124 71.107-32.593 98.731h-267.19c-20.469-27.625-32.593-61.787-32.593-98.731 0-33.077 9.767-64.427 26.971-90.819zm139.217 257.007c-39.79 0-76.353-14.062-104.995-37.469h209.991c-28.643 23.407-65.206 37.469-104.996 37.469z"/><path d="m210.577 387.224 45.423-10.327 45.423 10.327 4.215-46.391 23.858-40.01-42.818-18.343-30.678-35.056-30.678 35.055-42.818 18.343 23.858 40.01zm32.822-79.864 12.601-14.4 12.601 14.399 17.589 7.535-9.8 16.434-1.732 19.058-18.658-4.242-18.658 4.242-1.732-19.058-9.8-16.434z"/><path d="m128.52 326.178h29.988v29.988h-29.988z"/><path d="m347.875 326.178h29.988v29.988h-29.988z"/></g></svg>