<svg id="Layer_1" enable-background="new 0 0 510 510" height="512" viewBox="0 0 510 510" width="512" xmlns="http://www.w3.org/2000/svg"><g><path d="m435 135h-33.012c-7.765-38.454-30.002-71.185-60.57-92.702l1.677-12.298h76.905v-30h-103.095l-3.642 26.707c-86.403-36.327-186.371 14.793-205.251 108.293h-33.012v90h31.496l30 285h237.008l30-285h31.496zm-330 60v-30h300v30zm266.228-60h-42.454l7.911-58.004c16.511 15.314 28.733 35.273 34.543 58.004zm-62.203-77.209-10.529 77.209h-159.725c19.079-74.639 102.518-111.294 170.254-77.209zm-22.798 167.209-11.209 82.201c-5.487-.811-11.288-1.201-17.688-1.201-43.815 0-45.573 18-81.33 18-13.999 0-21.958-2.379-29.496-5.503l-9.842-93.497zm-122.723 255-13.56-128.817c6.988 1.685 15.366 2.817 26.056 2.817 43.593 0 45.889-18 81.33-18 36.603 0 36.879 18 81.33 18 8.33 0 15.272-.697 21.291-1.82l-13.455 127.82zm199.798-159.654c-17.171 6.2-43.171 4.468-59.244-4.068l12.445-91.278h56.835z"/><path d="m195 420h30v30h-30z"/><path d="m285 390h30v30h-30z"/></g></svg>