<svg id="Capa_1" enable-background="new 0 0 512 512" height="512" viewBox="0 0 512 512" width="512" xmlns="http://www.w3.org/2000/svg"><g><path d="m256 0c-91.532 0-166 74.468-166 166 0 38.556 13.517 76.12 38.062 105.774 21.563 26.053 50.673 44.943 82.938 54.039v36.187h-60v90h60v60h90v-60h60v-90h-60v-36.187c32.266-9.096 61.376-27.986 82.938-54.039 24.545-29.654 38.062-67.218 38.062-105.774 0-91.532-74.468-166-166-166zm27.036 299.311-12.036 2.425v90.264h60v30h-60v60h-30v-60h-60v-30h60v-90.264l-12.036-2.426c-63.138-12.727-108.964-68.792-108.964-133.31 0-74.99 61.01-136 136-136s136 61.01 136 136c0 64.518-45.826 120.583-108.964 133.311z"/><path d="m256 60c-58.448 0-106 47.552-106 106s47.552 106 106 106 106-47.552 106-106-47.552-106-106-106zm76 106c0 5.012-.501 9.908-1.431 14.651l-59.569-24.674v-64.483c34.746 6.984 61 37.734 61 74.506zm-91-74.506v64.483l-59.569 24.674c-.93-4.743-1.431-9.639-1.431-14.651 0-36.772 26.254-67.522 61-74.506zm-48.069 116.866 48.069-19.911v52.057c-19.938-4.007-37.08-15.838-48.069-32.146zm78.069 32.146v-52.057l48.069 19.911c-10.989 16.308-28.131 28.139-48.069 32.146z"/></g></svg>