<svg id="Capa_1" enable-background="new 0 0 512 512" height="512" viewBox="0 0 512 512" width="512" xmlns="http://www.w3.org/2000/svg"><g><path d="m465.886 0h-209.886v30h209.886c8.886 0 16.114 7.229 16.114 16.114s-7.229 16.113-16.114 16.113h-239.202c-30.523 0-60.251 6.069-88.358 18.039-27.134 11.556-51.505 28.047-72.437 49.017-42.596 42.672-65.995 98.87-65.889 158.243.107 59.982 23.548 116.358 66.003 158.742 42.46 42.387 98.886 65.732 158.883 65.732h173.38v-45c0-11.517-4.353-22.032-11.495-30 7.141-7.968 11.495-18.483 11.495-30v-45h-176.905c-34.173 0-62.177-27.364-62.426-61-.123-16.513 6.213-32.057 17.839-43.77 11.628-11.715 27.122-18.167 43.627-18.167h81.865c74.439 0 135-60.561 135-135v-11.835h28.62c25.428 0 46.114-20.687 46.114-46.113 0-25.428-20.686-46.115-46.114-46.115zm-272.118 94.992c-12.353 15.208-19.768 34.58-19.768 55.654 0 23.653 9.337 45.166 24.517 61.048-8.723 2.131-17.051 5.537-24.763 10.126l-78.787-78.787c28.14-25.364 62.207-41.849 98.801-48.041zm-116.889 318.917c-24.008-27.936-39.383-61.634-44.747-97.797h98.154c2.026 11.586 6.266 22.439 12.278 32.112zm53.2-127.797h-100.064c.233-44.511 15.771-86.932 44.195-121.41l76.556 76.555c-10.989 12.868-18.08 28.293-20.687 44.855zm238.187 195.888h-97.266v-30h82.266c8.271 0 15 6.729 15 15zm0-90v15c0 8.271-6.729 15-15 15h-82.266v-30zm-146.905 0h19.639v90h-16.114c-47.017 0-91.502-16.546-126.796-46.877l64.291-64.291c16.036 13.206 36.614 21.168 58.98 21.168zm185.905-287.936c0 57.897-47.103 105-105 105h-39.848c-32.212 0-58.418-26.206-58.418-58.418s26.206-58.418 58.418-58.418h144.848z"/><path d="m310.5 122.228h30v30h-30z"/></g></svg>