<svg id="Capa_1" enable-background="new 0 0 510.348 510.348" height="512" viewBox="0 0 510.348 510.348" width="512" xmlns="http://www.w3.org/2000/svg"><g id="XMLID_1188_"><path id="XMLID_1219_" d="m306.617 146.537c-8.314-31.171-36.677-52.941-68.972-52.941-13.547 0-26.799 3.899-38.325 11.277l-8.229 5.268-8.228-5.267c-11.524-7.378-24.777-11.278-38.324-11.278-32.296 0-60.658 21.771-68.973 52.942-6.302 23.631-.198 48.503 16.327 66.532l99.197 108.222 99.2-108.222c16.525-18.029 22.629-42.9 16.327-66.533zm-38.442 46.262-77.083 84.095-77.082-84.095c-9.57-10.441-13.105-24.845-9.456-38.53 4.817-18.06 21.26-30.673 39.986-30.673 7.803 0 15.462 2.263 22.15 6.545l24.401 15.619 24.402-15.619c6.688-4.282 14.349-6.545 22.151-6.545 18.726 0 35.168 12.613 39.985 30.672 3.65 13.686.116 28.09-9.454 38.531z"/><path id="XMLID_1228_" d="m491.784 402.154-127.363-127.362c12.348-25.609 18.876-53.872 18.876-83.142 0-51.192-19.936-99.319-56.133-135.517-36.196-36.198-84.323-56.133-135.515-56.133s-99.319 19.935-135.516 56.133c-36.198 36.197-56.133 84.324-56.133 135.516 0 51.191 19.935 99.318 56.133 135.516 36.197 36.197 84.324 56.133 135.517 56.133 29.27 0 57.533-6.528 83.142-18.876l127.363 127.363c11.971 11.971 27.887 18.563 44.815 18.563s32.845-6.593 44.814-18.563c11.971-11.97 18.563-27.886 18.563-44.814s-6.592-32.846-18.563-44.817zm-414.438-96.202c-30.532-30.531-47.346-71.125-47.346-114.303 0-43.179 16.814-83.772 47.346-114.304s71.125-47.345 114.303-47.345 83.771 16.814 114.303 47.346 47.346 71.125 47.346 114.304c0 43.178-16.814 83.771-47.346 114.303s-71.125 47.346-114.303 47.346c-43.178-.001-83.772-16.816-114.303-47.347zm249.819 21.213c7.996-7.996 15.195-16.576 21.564-25.64l84.953 84.953-47.204 47.204-84.953-84.953c9.064-6.369 17.644-13.568 25.64-21.564zm143.406 143.406c-6.305 6.305-14.687 9.776-23.602 9.776-8.916 0-17.298-3.472-23.603-9.776l-15.677-15.677 47.204-47.204 15.677 15.677c6.305 6.305 9.776 14.687 9.776 23.603.002 8.915-3.47 17.297-9.775 23.601z"/><path id="XMLID_1239_" d="m25.104 402.279h49.348v30h-49.348z" transform="matrix(.551 -.835 .835 .551 -325.892 228.94)"/><path id="XMLID_1240_" d="m195.602 431.959h30v50.268h-30z"/><path id="XMLID_1241_" d="m436.277 229.726h29.999v48.831h-29.999z" transform="matrix(.38 -.925 .925 .38 44.749 575.037)"/><path id="XMLID_1242_" d="m413.043 75.606h50.041v30h-50.041z" transform="matrix(.963 -.271 .271 .963 -8.169 122)"/></g></svg>