<svg id="Capa_1" enable-background="new 0 0 510.984 510.984" height="512" viewBox="0 0 510.984 510.984" width="512" xmlns="http://www.w3.org/2000/svg"><g><path d="m495.411 255.501 15.573-60.292-15.667-60.664 15.617-74.936h-510.883l15.617 74.936-15.668 60.664 15.574 60.292-15.574 60.293 15.668 60.655-15.618 74.926h510.886l-15.618-74.926 15.667-60.655zm-448.852 0-15.574-60.292 15.481-59.936-9.518-45.664h437.091l-9.518 45.664 15.479 59.936-15.573 60.292 15.573 60.293-15.479 59.927 9.517 45.654h-437.09l9.517-45.654-15.481-59.927z"/><path d="m119.826 391.032h271.333c27.57 0 50-22.43 50-50v-171.08c0-27.57-22.43-50-50-50h-271.333c-27.57 0-50 22.43-50 50v171.08c0 27.571 22.43 50 50 50zm-20-221.08c0-11.028 8.972-20 20-20h58.68c-32.857 23.725-54.284 62.341-54.284 105.873 0 43.127 21.032 81.43 53.372 105.207h-57.767c-11.028 0-20-8.972-20-20v-171.08zm311.333 0v171.08c0 11.028-8.972 20-20 20h-59.278c32.34-23.777 53.372-62.08 53.372-105.207 0-43.532-21.427-82.148-54.284-105.873h60.19c11.029 0 20 8.972 20 20zm-156.422 186.389c-55.425 0-100.516-45.091-100.516-100.516s45.091-100.515 100.516-100.515 100.516 45.09 100.516 100.515-45.091 100.516-100.516 100.516z"/></g></svg>