<svg id="Layer_1" enable-background="new 0 0 509.867 509.867" height="512" viewBox="0 0 509.867 509.867" width="512" xmlns="http://www.w3.org/2000/svg"><g id="XMLID_990_"><path id="XMLID_993_" d="m489.912 296.569-53.505-90.144c-1.09-53.977-23.256-104.909-62.695-143.836-133.082-132.258-358.176-41.43-358.763 146.444-.474 64.562 26.512 137.102 74.994 179.312v121.521h255v-75h58.681c17.27 0 31.319-14.045 31.319-31.309v-58.691h28.657c11.567 0 22.146-6.335 27.607-16.533 5.39-10.065 4.884-22.194-1.295-31.764zm-25.153 17.604c-.372.694-.884.694-1.159.694h-58.657v88.691c0 .722-.592 1.309-1.319 1.309h-88.681v75h-195v-105.792l-5.671-4.504c-126.213-108.547-73.138-340.089 110.428-339.68 100.217 1.626 181.749 82.697 181.749 180.722v4.116c.581.979-6.84-11.519 58.247 98.093.152.229.436.654.063 1.351z"/><path id="XMLID_996_" d="m224.943 59.867c-82.71 0-150 67.29-150 150 7.541 198.722 292.489 198.668 300-.002 0-82.708-67.29-149.998-150-149.998zm-15 30.936v97.166l-91.035 78.029c-39.99-72.273 9.742-166.436 91.035-175.195zm-73.677 199.828 73.677-63.15v101.451c-29.043-3.639-54.893-17.695-73.677-38.301zm103.677 38.3v-101.451l73.676 63.15c-18.783 20.607-44.633 34.663-73.676 38.301zm91.035-62.933-91.035-78.029v-97.166c81.31 8.763 131.016 102.936 91.035 175.195z"/></g></svg>