<svg id="Capa_1" enable-background="new 0 0 512 512" height="512" viewBox="0 0 512 512" width="512" xmlns="http://www.w3.org/2000/svg"><g><path d="m512 60.078h-261.334v-60.078h-250.666v300.212h80.333v211.788h90v-211.788h50.333v59.907h100.667v151.881h90v-151.881h100.667zm-371.667 421.922h-30v-181.788h30zm-110.333-211.788v-240.212h190.666v240.212zm351.333 211.788h-30v-121.881h30zm100.667-151.881h-231.334v-240.041h231.334z"/><path d="m366.333 295.362c47.015 0 85.264-38.249 85.264-85.264s-38.249-85.264-85.264-85.264-85.264 38.249-85.264 85.264 38.249 85.264 85.264 85.264zm0-30c-9.797 0-18.999-2.573-26.987-7.063l75.187-75.188c4.49 7.987 7.064 17.19 7.064 26.987 0 30.473-24.791 55.264-55.264 55.264zm0-110.527c9.797 0 19 2.574 26.987 7.064l-75.187 75.188c-4.49-7.988-7.064-17.19-7.064-26.988 0-30.473 24.791-55.264 55.264-55.264z"/><path d="m159.727 94.499-34.394 34.394-34.394-34.394-21.212 21.213 34.393 34.393-34.393 34.394 21.212 21.213 34.394-34.394 34.394 34.394 21.212-21.213-34.393-34.394 34.393-34.393z"/></g></svg>