<svg id="Capa_1" enable-background="new 0 0 512 512" height="512" viewBox="0 0 512 512" width="512" xmlns="http://www.w3.org/2000/svg"><g><path d="m436.75 0h-361.5c-33.187 0-60.187 27-60.187 60.188v150.562h15.063v241h30.124v60.25h84.521l30.125-60.25h162.21l30.123 60.25h84.521v-60.25h30.125v-241h15.063v-150.562c0-33.188-27-60.188-60.188-60.188zm30.188 180.75h-60.375v-30.125h-90.25v30.125h-120.625v-30.125h-90.25v30.125h-60.375v-60.375h421.875zm-90.375-.125v30.25h-30.25v-30.25zm-210.875 0v30.25h-30.25v-30.25zm-39.459 301.375h-35.979v-30.25h51.105zm295.521 0h-35.979l-15.125-30.25h51.105v30.25zm30.125-60.25h-391.75v-211h45.313v30.125h90.25v-30.125h120.625v30.125h90.25v-30.125h45.313v211zm-406.812-331.375v-30.187c0-16.646 13.541-30.188 30.187-30.188h361.5c16.646 0 30.188 13.542 30.188 30.188v30.188h-421.875z"/><path d="m271.068 271.125h-30v30.125h-30.125v30h30.125v30.125h30v-30.125h30.125v-30h-30.125z"/></g></svg>