<svg id="Capa_1" enable-background="new 0 0 510 510" height="512" viewBox="0 0 510 510" width="512" xmlns="http://www.w3.org/2000/svg"><g><path d="m465 165c0-24.814-20.186-45-45-45h-4.605l-45-120c-19.73 0-224.548 0-230.789 0l-45 120h-4.606c-24.813 0-45 20.186-45 45 0 20.216 13.4 37.357 31.784 43.017l45.298 301.983h265.836l45.298-301.983c18.384-5.66 31.784-22.801 31.784-43.017zm-180-135v30h-60v-30zm-124.605 0h34.605v60h120v-60h34.605l33.75 90h-256.71zm-70.395 120h330c8.272 0 15 6.729 15 15s-6.728 15-15 15h-330c-8.271 0-15-6.729-15-15s6.729-15 15-15zm308.082 90h-286.164l-4.5-30h295.164zm-128.082 180v-150h43.698l-12.5 150zm-61.198 0-12.5-150h43.698v150zm-92.384-150h49.78l12.5 150h-39.78zm31.5 210-4.5-30h223.164l-4.5 30zm223.164-60h-39.78l12.5-150h49.78z"/></g></svg>