<svg id="Capa_1" enable-background="new 0 0 512 512" height="512" viewBox="0 0 512 512" width="512" xmlns="http://www.w3.org/2000/svg"><g><path d="m346 151c-32.36 0-63.297 8.37-90.085 24.29-1.167-.692-2.342-1.371-3.529-2.037l79.319-79.319-63.639-63.64-57.066 57.067v-87.361h-90v87.361l-57.36-57-63.64 63.639 79.425 79.064c-47.603 26.401-79.425 73.872-79.425 127.936 0 38.085 10.95 69.955 33.477 97.431 19.081 23.274 43.505 39.711 65.054 54.214 32.531 21.894 52.469 36.473 52.469 59.355h30c0-22.91 19.804-37.49 52.116-59.381 7.494-5.078 15.339-10.402 23.183-16.165 7.252 5.28 14.509 10.221 21.599 15.039 32.923 22.377 53.102 37.271 53.102 60.507h30c0-22.882 19.938-37.461 52.47-59.355 21.549-14.502 45.973-30.94 65.054-54.214 22.526-27.476 33.476-59.346 33.476-97.431 0-82.71-74.467-150-166-150zm-77.934-78.279 21.213 21.213-66.292 66.292c-3.928-1.319-7.926-2.507-11.988-3.555v-26.884zm-87.066-42.721v121.626c-9.963-.82-19.67-.847-30-.007v-121.619zm-138.574 64 21.214-21.213 57.36 57v26.817c-4.091 1.042-8.119 2.22-12.076 3.533zm173.864 333.782c-16.294 11.039-31.685 21.466-43.554 33.925-2.474 2.596-4.73 5.222-6.775 7.885-2.066-2.675-4.349-5.314-6.849-7.921-11.943-12.454-27.433-22.878-43.832-33.915-41.926-28.216-85.28-57.394-85.28-126.756 0-66.168 61.01-120 136-120 74.439 0 135 53.832 135 120 0 69.392-43.064 98.567-84.71 126.782zm102.788-182.747c8.54-2.654 17.646-4.035 26.922-4.035 41.355 0 75 26.916 75 60 0 34.285-15.054 47.445-58.15 76.365-5.262 3.527-10.988 7.365-16.85 11.507-10.066-7.111-18.817-12.701-29.415-20.048 9.667-20.25 14.415-42.681 14.415-67.824 0-19.774-4.24-38.663-11.922-55.965zm77.642 182.721c-17.988 12.106-37.814 25.183-50.672 41.825-12.846-16.774-32.255-29.965-51.286-42.899-4.752-3.229-9.583-6.517-14.393-9.896 7.607-7.051 14.315-14.251 20.5-22.358 13.602 9.377 24.143 15.978 36.114 24.981l9.017 6.781 9.017-6.781c8.272-6.222 16.541-11.765 24.537-17.125l.088-.059c44.242-29.688 71.358-50.46 71.358-101.225 0-49.626-47.103-90-105-90-14.61 0-28.974 2.6-42.213 7.578-6.17-8.496-13.256-16.397-21.144-23.571 19.376-9.204 40.929-14.007 63.357-14.007 74.99 0 136 53.832 136 120 0 69.362-43.354 98.54-85.28 126.756z"/><path d="m61 301h30c0-33.084 33.645-60 75-60v-30c-57.897 0-105 40.374-105 90z"/></g></svg>