<svg id="Capa_1" enable-background="new 0 0 512 512" height="512" viewBox="0 0 512 512" width="512" xmlns="http://www.w3.org/2000/svg"><g><path d="m482 45c0-24.813-20.187-45-45-45h-362c-24.813 0-45 20.187-45 45v45h113.316c-17.016 9.819-32.858 21.929-47.122 36.193-42.686 42.687-66.194 99.44-66.194 159.807s23.508 117.12 66.193 159.807c42.687 42.685 99.44 66.193 159.807 66.193s117.12-23.508 159.807-66.193c42.685-42.687 66.193-99.44 66.193-159.807s-23.508-117.12-66.193-159.807c-14.265-14.264-30.107-26.374-47.123-36.193h113.316zm-211 45.569v30.116c-4.943-.445-9.943-.685-15-.685s-10.057.24-15 .685v-30.116c4.952-.376 9.954-.569 15-.569s10.048.192 15 .569zm-15 59.431c74.99 0 136 61.01 136 136s-61.01 136-136 136-136-61.01-136-136 61.01-136 136-136zm196 136c0 108.075-87.925 196-196 196s-196-87.925-196-196c0-92.594 64.543-170.39 151-190.779v30.981c-69.737 19.665-121 83.856-121 159.798 0 91.532 74.468 166 166 166s166-74.468 166-166c0-75.942-51.263-140.133-121-159.798v-30.981c86.457 20.389 151 98.185 151 190.779zm0-226h-392v-15c0-8.271 6.729-15 15-15h362c8.271 0 15 6.729 15 15z"/><path d="m286 211h30v30h-30z"/><path d="m316 271h30v30h-30z"/></g></svg>