<svg id="Capa_1" enable-background="new 0 0 512 512" height="512" viewBox="0 0 512 512" width="512" xmlns="http://www.w3.org/2000/svg"><g><g><path d="m481.75 329.95c0 24.92-20.28 45.87-45.19 45.19-24.3-.67-44.69-44.11-45.19-45.19l-25.91-24.32c11.58-2.57 22.6-8.36 31.6-17.35 0 0 42.72-43.16 44.82-46.12 18.041-25.364 14.86-61.13-7.09-83.08l-3.92-3.92c-22.58-22.58-57.84-24.94-83.07-7.08-2.51 1.77-46.11 44.83-46.11 44.83-4.14 4.14-7.6 8.7-10.37 13.55l-8.26-39.88 92.94-89.58.19-.19c17.55-17.55 17.55-46.1 0-63.64-17.54-17.55-46.09-17.55-63.58-.06l-125.89 124.46-2.13 73.01-63.96 119.37c0 24.92-20.27 45.19-45.19 45.19-24.91 0-45.19-20.27-45.19-45.19h-30.25c0 41.46 33.98 75.19 75.44 75.19 24.59 0 46.46-11.87 60.19-30.17 13.72 18.3 35.59 30.17 60.18 30.17s46.46-11.87 60.19-30.17c13.73 18.3 35.6 30.17 60.19 30.17s46.46-11.87 60.18-30.17c13.73 18.3 35.6 30.17 60.19 30.17 41.46 0 75.44-33.73 75.44-75.19zm-72.09-153.58 3.92 3.92c10.394 10.394 13.112 26.79 6.55 39.97l-50.42-50.42c12.97-6.44 29.16-4.26 39.95 6.53zm-86.76 37.75 24.26-24.26 52.94 52.95-24.26 24.25c-13.51 13.52-35.5 13.52-49.02 0l-3.92-3.92c-13.52-13.51-13.52-35.51 0-49.02zm-6.71 161.02c-24.92 0-45.19-20.27-45.19-45.19h-30c0 24.92-20.27 45.19-45.19 45.19-23.69 0-43.19-18.33-45.04-41.57l63.6-114.83 1.99-68.29 117.41-116.07c5.85-5.84 15.36-5.85 21.21 0 5.82 5.82 5.85 15.28.08 21.13l-104.73 100.95 21.28 102.76 89.3 77.19c-3.14 21.87-22 38.73-44.72 38.73z"/></g><g><g><path d="m436.559 512c-24.591 0-46.46-11.864-60.187-30.172-13.726 18.308-35.596 30.172-60.185 30.172-24.591 0-46.46-11.864-60.187-30.172-13.727 18.308-35.596 30.172-60.187 30.172-24.59 0-46.46-11.864-60.186-30.172-13.726 18.308-35.595 30.172-60.186 30.172-41.458 0-75.441-33.729-75.441-75.187h30.255c0 24.916 20.271 45.187 45.187 45.187s45.187-20.271 45.187-45.187h30c0 24.916 20.271 45.187 45.186 45.187 24.914 0 45.185-20.271 45.185-45.187h30c0 24.916 20.271 45.187 45.187 45.187 24.915 0 45.186-20.271 45.186-45.187h30c0 24.916 20.271 45.187 45.187 45.187s45.187-20.271 45.187-45.187h30.253c0 41.458-33.983 75.187-75.441 75.187z"/></g></g></g></svg>