<svg id="Capa_1" enable-background="new 0 0 510 510" height="512" viewBox="0 0 510 510" width="512" xmlns="http://www.w3.org/2000/svg"><g><path d="m510 180c0-41.355-33.645-75-75-75s-75 33.645-75 75c0 36.22 25.808 66.523 60 73.49v121.51c0 33.084-26.916 60-60 60s-60-26.916-60-60v-75h30v-300c-12.835 0-257.566 0-270 0v300h150v135h-32.727c-9.751-26.158-44.603-45-87.273-45-50.467 0-90 26.355-90 60s39.533 60 90 60c42.67 0 77.521-18.842 87.273-45h62.727v-165h30v75c0 49.626 40.374 90 90 90s90-40.374 90-90v-121.51c34.191-6.967 60-37.27 60-73.49zm-420 300c-34.341 0-60-15.839-60-30s25.659-30 60-30 60 15.839 60 30-25.659 30-60 30zm210-450v45h-45v30h45v30h-45v30h45v30h-45v30h45v45h-14c-41.906 0-76-34.094-76-76v-88c0-41.906 34.094-76 76-76zm-210 0h122.189c-19.839 19.275-32.189 46.221-32.189 76v88c0 29.779 12.35 56.727 32.189 76h-122.189zm345 195c-24.814 0-45-20.186-45-45 0-24.813 20.186-45 45-45s45 20.187 45 45c0 24.814-20.186 45-45 45z"/><path d="m420 165h30v30h-30z"/></g></svg>