<svg id="Capa_1" enable-background="new 0 0 512.022 512.022" height="512" viewBox="0 0 512.022 512.022" width="512" xmlns="http://www.w3.org/2000/svg"><g><path d="m419.649 301.272h-32.951v-45.25c0-41.493-33.757-75.25-75.25-75.25h-153.807l-49.958-148.341c-6.529-19.385-24.659-32.409-45.113-32.409-30.872-.998-56.148 32.764-45.113 62.796l93.699 278.223c-10.518 8.269-17.294 21.094-17.294 35.481 0 19.624 12.596 36.354 30.125 42.552v2.698h-16.425c-41.492 0-75.249 33.757-75.249 75.25v15h354.385v-71.959l23.329 46.658c7.803 15.606 23.489 25.302 40.938 25.302 35.107.134 55.581-37.623 40.938-66.239zm-108.2-90.5c24.95 0 45.249 20.299 45.249 45.25v45.25h-25.377v-60.25h-153.389l-10.188-30.25zm-10.128 90.5h-103.098l-10.188-30.25h113.285v30.25zm-162.334 60.125c8.34 0 15.125 6.785 15.125 15.125s-6.785 15.125-15.125 15.125-15.125-6.785-15.125-15.125 6.785-15.125 15.125-15.125zm42.552 30.125h175.159v30.25h-202.711v-2.698c12.833-4.538 23.014-14.72 27.552-27.552zm-116.671 90.5c6.202-17.601 22.999-30.25 42.694-30.25h249.136v30.25zm386.098 0c-6.012 0-11.417-3.34-14.105-8.718l-55.892-111.782h-199.43c-6.136-17.354-22.598-29.863-41.969-30.11l-93.682-278.169c-3.627-9.706 4.191-23.505 16.682-23.222 7.564 0 14.269 4.816 16.683 11.984l97.418 289.266h224.438l63.964 127.927c3.818 10.501.294 21.364-14.107 22.824z"/><path d="m411.565 222.647 28.461-9.482c-13.414-40.262-45.459-72.307-85.721-85.721l-9.482 28.461c31.348 10.444 56.298 35.394 66.742 66.742z"/><path d="m468.739 203.589 28.461-9.482c-19.386-58.187-65.701-104.489-123.894-123.857l-9.475 28.465c49.275 16.4 88.493 55.605 104.908 104.874z"/></g></svg>