<svg id="Capa_1" enable-background="new 0 0 512.012 512.012" height="512" viewBox="0 0 512.012 512.012" width="512" xmlns="http://www.w3.org/2000/svg"><path d="m46.689 158.284c-32.247 31.521-39.064 66.472-38.502 91.954 3.711 46.544 11.619 50.632 20.563 69.985l29.118-14.65c-4.067 34.491 10.275 69.746 33.262 99.522l30.354-20.403c3.404 24.127 13.128 51.964 44.827 75.046l23.307-21.916c18.356 50.546 53.616 66.633 66.388 74.182 10.15-6.59 47.106-21.293 66.388-74.182l23.307 21.916c25.998-18.888 41.066-44.603 44.827-75.046l30.354 20.403c22.315-29.697 37.307-62.567 33.262-99.522l29.118 14.65c8.945-19.353 16.852-23.442 20.563-69.985.562-25.482-6.255-60.433-38.502-91.954 26.937-15.577 47.086-50.505 46.683-74.954v-20.469l-19.518 6.165c-40.632 12.837-59.698-.945-97.684-28.401-6.461-4.67-13.142-9.498-20.496-14.588-22.693-15.707-57.344-32.532-93.551-23.49-10.537 2.632-18.811 6.872-24.752 10.772-5.941-3.9-14.215-8.141-24.752-10.772-19.984-4.99-52.436-4.965-93.551 23.49-7.354 5.09-14.035 9.918-20.496 14.588-37.985 27.456-57.05 41.235-97.682 28.401l-19.518-6.165v20.469c-.403 24.448 19.746 59.377 46.683 74.954zm29.336 13.971c15.901 5.803 34.884 8.73 50.09 7.691 14.578 35.79 50.893 61.631 89.432 60.933 8.321 0 16.579-1.214 24.546-3.607 10.409-3.125 21.415-3.126 31.826.001 7.965 2.393 16.223 3.606 24.544 3.606 39.155.425 75.091-25.41 89.433-60.934 17.441 1.133 35.14-2.434 50.09-7.69 25.464 20.881 38.197 46.48 37.865 76.223-.137 12.205-2.505 23.01-4.931 30.947l-61.803-31.096 11.565 34.531c9.778 29.193 7.922 54.519-6.239 80.417l-54.451-36.601 3.602 32.183c.037.351 3.388 34.983-15.746 59.839l-48.836-45.922v34.695c0 36.407-27.564 60.265-40.967 69.711-13.372-9.508-41.047-33.555-41.047-69.711v-34.695l-48.854 45.938c-19.342-24.97-15.772-59.463-15.729-59.855l3.602-32.183-54.451 36.601c-14.161-25.898-16.018-51.224-6.239-80.417l11.565-34.531-61.802 31.097c-2.424-7.933-4.793-18.74-4.93-30.948-.331-29.743 12.401-55.342 37.865-76.223zm220.439 38.624c-5.396 0-10.749-.787-15.912-2.338-16.059-4.824-33.034-4.823-49.089-.001-5.166 1.552-10.52 2.339-15.915 2.339-24.895 0-47.24-13.774-58.439-35.974 43.789-11.753 81.297-40.456 98.897-55.638 17.599 15.181 55.111 43.88 98.898 55.635-11.197 22.202-33.544 35.977-58.44 35.977zm-261.008-107.764c40.183 4.57 66.895-14.737 99.324-38.176 6.339-4.582 12.894-9.319 19.995-14.234 64.606-41.892 88.489-10.588 101.521 4.426 4.505-3.36 28.873-52.301 100.94-4.426 7.102 4.915 13.656 9.652 19.995 14.234 32.431 23.44 59.146 42.745 99.324 38.177-7.217 15.112-23.981 34.847-62.917 44.495-72.847 16.083-145.889-57.806-157.643-69.773-1.939 1.218-79.307 86.983-157.623 69.773-38.934-9.648-55.699-29.382-62.916-44.496z"/></svg>