<svg id="Layer_1" enable-background="new 0 0 510 510" height="512" viewBox="0 0 510 510" width="512" xmlns="http://www.w3.org/2000/svg"><g id="XMLID_930_"><path id="XMLID_933_" d="m510 262.505v-30c-22.608 0-497.055 0-510 0v30h30v210h-30v30h510v-30h-30v-210zm-390 210h-60v-210h60v30h-30v150h30zm0-150h30v90h-30zm120 150h-90v-30h30v-150h-30v-30h90v30h-30v150h30zm0-150h30v90h-30zm120 150h-90v-30h30v-150h-30v-30h90v30h-30v150h30zm0-150h30v90h-30zm90 150h-60v-30h30v-150h-30v-30h60z"/><path id="XMLID_957_" d="m346.819 189.326c13.828-13.828 16.749-34.485 8.782-51.209l107.895-107.895-21.213-21.213-107.875 107.875c-16.345-7.825-37.085-5.344-51.228 8.801-17.546 17.547-17.546 46.094-.001 63.641 17.587 17.586 46.053 17.589 63.64 0zm-42.424-42.428c5.86-5.862 15.35-5.862 21.212 0 5.849 5.85 5.849 15.365 0 21.215-5.862 5.861-15.351 5.862-21.213 0-5.849-5.85-5.849-15.365.001-21.215z"/><path id="XMLID_960_" d="m67.717 201.002 107.875-107.875c45.237 20.971 86.528-35.737 51.228-72.441-17.584-17.586-46.051-17.589-63.639 0-13.828 13.828-16.749 34.486-8.782 51.21l-107.895 107.893zm116.678-159.104c5.86-5.862 15.35-5.862 21.212 0 5.849 5.85 5.849 15.365 0 21.215-5.861 5.861-15.35 5.863-21.212 0h-.001c-5.849-5.85-5.849-15.365.001-21.215z"/></g></svg>