<svg id="Capa_1" enable-background="new 0 0 512 512" height="512" viewBox="0 0 512 512" width="512" xmlns="http://www.w3.org/2000/svg"><g><path d="m391 292v-76.413c0-21.215-13.529-39.953-33.666-46.628l-28.769-9.537c6.755-12.021 10.626-25.87 10.626-40.613v-35.619c0-45.871-37.319-83.19-83.191-83.19s-83.191 37.319-83.191 83.19v35.619c0 14.743 3.872 28.592 10.626 40.613l-28.769 9.537c-20.137 6.675-33.666 25.413-33.666 46.628v76.413h-60v220h390v-220zm-30-76.413v76.413h-30v-69.368c0-10.833-1.143-21.5-3.404-31.925l20.299 6.729c7.838 2.598 13.105 9.892 13.105 18.151zm-158.191-132.397c0-5.098.736-10.024 2.081-14.695 13.127 13.523 31.349 21.505 51.11 21.505s37.983-7.982 51.11-21.505c1.345 4.671 2.081 9.597 2.081 14.695v35.619c0 29.329-23.861 53.19-53.191 53.19s-53.191-23.861-53.191-53.19zm12.333 108.043c7.34 4.157 15.362 7.245 23.865 9.017-4.194 13.586-14.664 24.438-28.007 29.17v-6.788c0-10.707 1.389-21.211 4.142-31.399zm85.858 31.399v6.788c-13.343-4.732-23.813-15.584-28.007-29.17 8.503-1.772 16.525-4.859 23.865-9.017 2.753 10.188 4.142 20.692 4.142 31.399zm-90 37.859c11.078-2.258 21.275-6.967 30-13.531v45.04h-30zm60-13.532c8.725 6.565 18.922 11.274 30 13.531v31.51h-30zm18.945-204.686c-7.595 10.994-20.123 17.727-33.945 17.727s-26.35-6.733-33.945-17.727c9.218-7.659 21.052-12.273 33.945-12.273s24.727 4.614 33.945 12.273zm-138.945 173.314c0-8.259 5.267-15.553 13.105-18.151l20.299-6.729c-2.261 10.425-3.404 21.091-3.404 31.925v69.368h-30zm270 266.413h-330v-160h330z"/><path d="m286 432h-40v-20h20v-20h-20v-20h40v-20h-60v100h60z"/><path d="m181 452c16.542 0 30-13.458 30-30h-20c0 5.514-4.486 10-10 10s-10-4.486-10-10v-40c0-5.514 4.486-10 10-10s10 4.486 10 10h20c0-16.542-13.458-30-30-30s-30 13.458-30 30v40c0 16.542 13.458 30 30 30z"/><path d="m331 452c16.542 0 30-13.458 30-30v-40c0-16.542-13.458-30-30-30s-30 13.458-30 30v40c0 16.542 13.458 30 30 30zm-10-70c0-5.514 4.486-10 10-10s10 4.486 10 10v40c0 5.514-4.486 10-10 10s-10-4.486-10-10z"/></g></svg>