<svg id="Capa_1" enable-background="new 0 0 512 512" height="512" viewBox="0 0 512 512" width="512" xmlns="http://www.w3.org/2000/svg"><g><path d="m139.379 229.379 21.213 21.213c25.532-25.531 59.415-39.592 95.408-39.592s69.876 14.061 95.408 39.592l21.213-21.213c-31.198-31.198-72.615-48.379-116.621-48.379s-85.423 17.181-116.621 48.379z"/><path d="m224.241 314.197 21.213 21.213c1.647-1.647 5.208-4.41 10.546-4.41s8.898 2.763 10.546 4.41l21.213-21.213c-4.929-4.928-15.609-13.197-31.759-13.197s-26.83 8.269-31.759 13.197z"/><path d="m181.783 271.783 21.213 21.213c14.184-14.184 33.008-21.996 53.004-21.996s38.82 7.812 53.005 21.996l21.213-21.214c-19.851-19.85-46.209-30.782-74.218-30.782-28.01 0-54.367 10.932-74.217 30.783z"/><path d="m512 421v-421h-512v421h181v61h-60v30h270v-30h-60v-61zm-482-391h452v27c0 17.89-15.57 33-34 33-18.2 0-33-14.8-33-33h-30c0 18.2-14.8 33-33 33s-33-14.8-33-33h-30c0 18.2-14.8 33-33 33s-33-14.8-33-33h-30c0 18.2-14.8 33-33 33s-33-14.8-33-33h-30c0 18.2-14.8 33-33 33-18.43 0-34-15.11-34-33zm271 452h-90v-61h90zm-271-91v-280.75c10.14 6.35 21.84 9.75 34 9.75 19.21 0 36.44-8.64 48-22.24 11.56 13.6 28.79 22.24 48 22.24s36.44-8.64 48-22.24c11.56 13.6 28.79 22.24 48 22.24s36.44-8.64 48-22.24c11.56 13.6 28.79 22.24 48 22.24s36.44-8.64 48-22.24c11.56 13.6 28.79 22.24 48 22.24 12.16 0 23.86-3.4 34-9.75v280.75z"/></g></svg>