<svg id="Capa_1" enable-background="new 0 0 512 512" height="512" viewBox="0 0 512 512" width="512" xmlns="http://www.w3.org/2000/svg"><g><path d="m510.24 387.797-46.761-252.797h-102.479v-30c0-57.897-47.103-105-105-105s-105 47.103-105 105v30h-102.479l-46.761 252.797c-1.168 6.312-1.76 12.773-1.76 19.203 0 57.897 47.103 105 105 105h302c57.897 0 105-47.103 105-105 0-6.43-.592-12.891-1.76-19.203zm-149.24-185.797c0 8.271-6.729 15-15 15s-15-6.729-15-15c0-12.891 5.584-25.088 15-33.553 9.416 8.465 15 20.662 15 33.553zm-105-172c41.355 0 75 33.645 75 75v30h-150v-30c0-41.355 33.645-75 75-75zm0 258.027 30 20v113.973h-60v-113.973zm-75-86.027c0 8.271-6.729 15-15 15s-15-6.729-15-15c0-12.891 5.584-25.088 15-33.553 9.416 8.465 15 20.662 15 33.553zm226 280h-302c-41.355 0-75-33.645-75-75 0-4.604.424-9.229 1.26-13.746l42.219-228.254h57.327c-6.31 11.123-9.806 23.842-9.806 37 0 24.813 20.187 45 45 45s45-20.187 45-45c0-13.158-3.497-25.877-9.806-37h39.806v96.973l-45 30v160.027h120v-160.027l-45-30v-96.973h39.806c-6.31 11.123-9.806 23.842-9.806 37 0 24.813 20.187 45 45 45s45-20.187 45-45c0-13.158-3.497-25.877-9.806-37h57.327l42.22 228.254c.836 4.518 1.26 9.143 1.26 13.746-.001 41.355-33.646 75-75.001 75z"/></g></svg>