<svg id="Capa_1" enable-background="new 0 0 512 512" height="512" viewBox="0 0 512 512" width="512" xmlns="http://www.w3.org/2000/svg"><g><path d="m453.318 257.926v-79.121c0-45.186-36.761-81.948-81.947-81.948-45.187 0-81.948 36.761-81.948 81.948v234.243c0 38.042-30.949 68.991-68.991 68.991s-68.991-30.949-68.991-68.991v-88.569c35.47-6.002 64.967-31.224 76.014-66.523l42.646-136.276v-76.74c0-24.78-20.16-44.94-44.942-44.94h-58.797v29.961h58.797c8.261 0 14.98 6.72 14.98 14.98v72.161l-18.049 57.674c-14.645 34.882-48.563 57.75-87.042 57.75-38.477 0-72.396-22.868-87.04-57.75l-18.049-57.674v-72.161c0-8.261 6.72-14.98 14.98-14.98h66.619v-29.961h-66.617c-24.781 0-44.941 20.16-44.941 44.941v76.74l42.646 136.276c11.338 36.23 42.114 61.837 78.833 66.95v88.142c0 54.562 44.389 98.952 98.952 98.952 54.562 0 98.951-44.389 98.951-98.952v-234.244c0-28.666 23.321-51.987 51.988-51.987 28.666 0 51.987 23.321 51.987 51.987v79.19c-33.3 6.996-58.382 36.59-58.382 71.939 0 40.535 32.977 73.512 73.512 73.512s73.513-32.977 73.513-73.511c0-35.456-25.231-65.129-58.682-72.009zm-382.078-8.917-1.591-5.085c19.644 12.174 42.058 18.563 65.402 18.563 23.343 0 45.757-6.389 65.401-18.563l-1.591 5.085c-8.778 28.048-34.421 46.893-63.811 46.893-29.389 0-55.033-18.845-63.81-46.893zm367.248 124.477c-24.014 0-43.551-19.537-43.551-43.551 0-24.015 19.537-43.552 43.551-43.552s43.551 19.537 43.551 43.552c0 24.014-19.537 43.551-43.551 43.551z"/><path d="m423.506 314.954h29.963v29.961h-29.963z"/></g></svg>