<svg id="Capa_1" enable-background="new 0 0 512 512" height="512" viewBox="0 0 512 512" width="512" xmlns="http://www.w3.org/2000/svg"><g><g><path d="m188.5 213.333h30v30h-30z"/></g><g><path d="m293.5 213.333h30v30h-30z"/></g><g><path d="m430.599 305.81-8.599-2.85v-29.626h-39.943c3.701-9.656 6.291-19.716 7.693-30h16.25c24.813 0 45-20.187 45-45 0-19.651-12.666-36.389-30.259-42.508-4.778-86.731-76.839-155.826-164.741-155.826s-159.963 69.095-164.741 155.825c-17.593 6.119-30.259 22.857-30.259 42.508 0 24.813 20.187 45 45 45h16.25c1.402 10.284 3.993 20.344 7.693 30h-39.943v29.635l-8.599 2.842c-30.745 10.191-51.401 38.8-51.401 71.19v135h452v-135c0-32.39-20.656-60.999-51.401-71.19zm21.401 71.19v15h-30v-57.417c17.979 6.354 30 23.282 30 42.417zm-60 17.58c-17.459 6.192-30 22.865-30 42.42v30c0 5.259.915 10.305 2.58 15h-63.58v-178.667h91zm-121-91.247v30h-30v-30zm0 118.667h-30v-58.667h30zm-30 30h30v30h-30zm165-238.667h-15v-30h15c8.271 0 15 6.729 15 15s-6.729 15-15 15zm-15.51-60h-47.509c-25.001 0-49.011-10.292-67.607-28.979-11.783-11.842-27.47-18.363-44.17-18.363h-18.291v-68.94c13.537-4.571 28.028-7.051 43.087-7.051 70.509 0 128.555 54.336 134.49 123.333zm-207.577-101.788v68.79c-1.797 18.852-16.91 32.998-35.374 32.998h-26.029c3.669-42.661 27.258-79.715 61.403-101.788zm-91.913 146.788c0-8.271 6.729-15 15-15h15v30h-15c-8.271 0-15-6.729-15-15zm60 26.667v-41.762c28.168-1.454 51.527-20.572 59.314-47.248h20.89c8.659 0 16.793 3.383 22.904 9.523 24.269 24.389 55.831 37.819 88.873 37.819h18.019v41.668c0 16.922-4.057 33.47-11.772 48.333h-186.456c-7.715-14.863-11.772-31.411-11.772-48.333zm60 78.333v178.667h-63.58c1.665-4.695 2.58-9.741 2.58-15v-30c0-19.555-12.541-36.228-30-42.42v-91.247zm-121 31.25v57.417h-30v-15c0-19.14 12.026-36.071 30-42.417zm-30 147.417v-60h45c8.271 0 15 6.729 15 15v30c0 8.271-6.729 15-15 15zm347 0c-8.271 0-15-6.729-15-15v-30c0-8.271 6.729-15 15-15h45v60z"/></g></g></svg>