<svg id="Capa_1" enable-background="new 0 0 508.428 508.428" height="512" viewBox="0 0 508.428 508.428" width="512" xmlns="http://www.w3.org/2000/svg"><g><path d="m478.123 134.214h-143.602l-80.307-134.214-80.307 134.214h-143.602l71.801 120-71.801 120h143.603l80.307 134.214 80.307-134.214h143.603l-71.801-120zm-52.91 210h-107.702l-63.297 105.786-63.297-105.786h-107.702l53.852-90-53.852-90h107.702l63.297-105.786 63.297 105.786h107.702l-53.852 90z"/><path d="m296.524 194.214-42.311-75.765-42.311 75.765h-74.271l36.232 60-36.232 60h74.271l42.311 75.765 42.311-75.765h74.271l-36.233-60 36.233-60zm21.109 90h-38.716l-24.703 44.235-24.703-44.235h-38.716l18.115-30-18.115-30h38.716l24.703-44.235 24.703 44.235h38.716l-18.115 30z"/></g></svg>