<svg id="Capa_1" enable-background="new 0 0 501.834 501.834" height="512" viewBox="0 0 501.834 501.834" width="512" xmlns="http://www.w3.org/2000/svg"><g><path d="m501.833 106.067-106.065-106.067-47.803 47.805c-29.916-14.321-62.9-21.887-97.048-21.887-124.35 0-225 100.633-225 225 0 34.148 7.565 67.132 21.887 97.048l-47.803 47.803 106.065 106.065 47.803-47.803c29.916 14.321 62.9 21.887 97.048 21.887 124.35 0 225-100.632 225-225 0-34.148-7.565-67.132-21.887-97.048zm-106.065-63.639 63.64 63.64-20.741 20.74c-16.236-24.454-37.792-46.477-63.64-63.639zm-289.702 416.98-63.64-63.64 20.741-20.74c16.2 24.398 37.739 46.441 63.64 63.639zm144.851-13.49c-107.523 0-195-87.477-195-195s87.477-195 195-195 195 87.477 195 195-87.477 195-195 195z"/><path d="m280.917 85.918h-90v90h90zm-30 60h-30v-30h30z"/><path d="m310.917 130.918h30v30h-30z"/><path d="m130.917 190.918h30v30h-30z"/><path d="m205.917 370.918h30v30h-30z"/><path d="m325.917 190.918c-18.833 0-33.506 19.489-46.176 61.333-8.653 28.577-13.824 59.896-13.824 73.667 0 33.084 26.916 60 60 60s60-26.916 60-60c0-13.771-5.171-45.09-13.824-73.667-12.67-41.844-27.343-61.333-46.176-61.333zm0 31.202c8.613 9.477 16.522 34.902 19.866 47.193-12.498-4.402-26.522-4.653-39.732 0 3.345-12.291 11.253-37.716 19.866-47.193zm0 133.798c-16.542 0-30-13.458-30-30s13.458-30 30-30 30 13.458 30 30-13.458 30-30 30z"/><path d="m160.917 250.918c-33.084 0-60 26.916-60 60s26.916 60 60 60 60-26.916 60-60-26.916-60-60-60zm0 90c-16.542 0-30-13.458-30-30s13.458-30 30-30 30 13.458 30 30-13.458 30-30 30z"/></g></svg>