<?xml version="1.0" encoding="iso-8859-1"?>
<!-- Generator: Adobe Illustrator 19.0.0, SVG Export Plug-In . SVG Version: 6.00 Build 0)  -->
<svg xmlns="http://www.w3.org/2000/svg" xmlns:xlink="http://www.w3.org/1999/xlink" version="1.1" id="Layer_1" x="0px" y="0px" viewBox="0 0 512 512" style="enable-background:new 0 0 512 512;" xml:space="preserve">
<g>
	<g>
		<path d="M401.189,272.925c-2.854,0-5.682,0.109-8.482,0.321c2.209-3.443,4.531-6.829,6.991-10.136    c34.799-46.807,45.579-105.893,28.837-158.055c-12.76-39.757-39.991-68.945-74.711-80.08    C290.687,4.732,238.642,30.284,218.141,43.03c-20.502-12.746-72.55-38.298-135.686-18.053    C47.726,36.112,20.49,65.309,7.732,105.081c-16.739,52.184-5.939,111.285,28.893,158.095    c14.949,20.094,25.053,42.238,30.033,65.829c2.21,10.435,4.144,22.014,5.745,34.408c10.796,83.772,32.247,127.845,63.755,130.996    c18.42,1.85,33.646-13.255,45.236-44.879c7.996-21.819,14.299-51.041,17.747-82.282c2.402-21.768,8.283-33.899,12.797-40.248    c1.974-2.778,4.732-3.194,6.2-3.194c1.468,0,4.226,0.416,6.204,3.2c4.504,6.335,10.38,18.459,12.784,40.241    c3.448,31.243,9.751,60.466,17.749,82.284c10.961,29.903,25.167,45.031,42.255,45.03c0.982,0,1.976-0.05,2.977-0.15    c12.555-1.246,23.577-9.091,32.916-23.369c18.812,14.72,42.481,23.506,68.164,23.506c61.102,0,110.811-49.709,110.811-110.811    C512,322.635,462.291,272.925,401.189,272.925z M297.622,464.437c-1.411-0.871-8.346-6.23-16.443-30.721    c-6.283-19.005-11.322-43.782-14.189-69.765c-2.499-22.632-8.609-40.92-18.157-54.348c-7.045-9.917-18.519-15.839-30.692-15.839    s-23.648,5.921-30.689,15.834c-9.56,13.444-15.673,31.732-18.171,54.354c-2.866,25.977-7.904,50.751-14.186,69.757    c-8.089,24.474-15.02,29.849-16.437,30.726c-7.03-1.571-25.869-22.717-36.457-104.867c-1.705-13.193-3.774-25.57-6.149-36.778    c-5.88-27.857-17.764-53.947-35.324-77.548c-29.056-39.048-38.173-88.014-24.389-130.984c9.758-30.421,29.91-52.535,55.289-60.672    c26.9-8.626,54.642-8.081,82.458,1.621c21.292,7.426,34.662,17.711,34.755,17.783l9.259,7.36l9.298-7.328    c0.133-0.103,13.501-10.389,34.795-17.815c27.815-9.702,55.559-10.247,82.457-1.622c25.37,8.137,45.519,30.244,55.279,60.653    c13.786,42.952,4.687,91.904-24.34,130.947c-9.07,12.197-16.717,25.251-22.787,38.877c-36.922,17.997-62.424,55.911-62.424,99.674    c0,24.199,7.803,46.607,21.016,64.852C305.882,459.161,300.811,463.737,297.622,464.437z M401.189,464.504    c-44.536,0-80.768-36.233-80.768-80.768s36.232-80.768,80.768-80.768c44.536,0,80.768,36.232,80.768,80.768    C481.957,428.272,445.725,464.504,401.189,464.504z"/>
	</g>
</g>
<g>
	<g>
		<polygon points="415.733,370.392 415.733,335.342 385.69,335.342 385.69,370.392 350.64,370.392 350.64,400.435 385.69,400.435     385.69,435.485 415.733,435.485 415.733,400.435 450.783,400.435 450.783,370.392   "/>
	</g>
</g>
<g>
</g>
<g>
</g>
<g>
</g>
<g>
</g>
<g>
</g>
<g>
</g>
<g>
</g>
<g>
</g>
<g>
</g>
<g>
</g>
<g>
</g>
<g>
</g>
<g>
</g>
<g>
</g>
<g>
</g>
</svg>
