<svg id="Capa_1" enable-background="new 0 0 512 512" height="512" viewBox="0 0 512 512" width="512" xmlns="http://www.w3.org/2000/svg"><g><path d="m463.096 240.83h-8.233c-10.411 0-18.881-8.47-18.881-18.881v-42.537h-30v42.537c0 26.953 21.928 48.881 48.881 48.881h8.233c10.411 0 18.881 8.47 18.881 18.881s-8.47 18.881-18.881 18.881h-140.121v-111.051c32.448-18.774 52.95-53.77 52.95-91.684 0-58.37-47.487-105.857-105.857-105.857h-164.189c-58.369 0-105.856 47.487-105.856 105.856 0 37.914 20.503 72.911 52.95 91.684v116.919c-32.448 18.773-52.95 53.769-52.95 91.685 0 58.369 47.487 105.856 105.856 105.856h164.188c58.37 0 105.857-47.487 105.857-105.857 0-25.071-8.962-48.875-24.415-67.551h111.586c26.953 0 48.881-21.928 48.881-48.881s-21.927-48.881-48.88-48.881zm-380.123-37.235h210.002v104.811h-210.002zm130.272-173.595h56.634l-56.634 56.634zm-30 143.595h-30.004v-143.595h30.004zm-20.541 308.405h-56.24l56.24-56.24zm30-143.595h30.003v143.595h-30.003zm111.55-164.81h-50.686l89.236-89.236c2.02 6.82 3.122 14.031 3.122 21.498-.001 28.596-16.268 54.888-41.672 67.738zm23.642-116.754-114.651 114.651v-42.432l90.928-90.928c9.113 4.607 17.173 10.993 23.723 18.709zm-204.655-26.841v143.595h-30.004v-142.521c4.114-.694 30.004-1.074 30.004-1.074zm-93.218 75.856c0-26.028 13.181-49.03 33.214-62.698v125.429c-20.496-13.985-33.214-37.453-33.214-62.731zm41.67 232.549h51.082l-89.543 89.542c-2.078-6.91-3.209-14.227-3.209-21.805 0-28.596 16.267-54.887 41.67-67.737zm-23.458 116.965 114.468-114.467v42.432l-90.668 90.668c-9.136-4.576-17.22-10.939-23.8-18.633zm204.472 26.63v-143.595h30.004v142.521c-4.115.694-30.004 1.074-30.004 1.074zm60.003-13.157v-125.43c20.496 13.983 33.215 37.452 33.215 62.731 0 26.028-13.181 49.03-33.215 62.699z"/></g></svg>