<?xml version="1.0" encoding="iso-8859-1"?>
<!-- Generator: Adobe Illustrator 19.0.0, SVG Export Plug-In . SVG Version: 6.00 Build 0)  -->
<svg xmlns="http://www.w3.org/2000/svg" xmlns:xlink="http://www.w3.org/1999/xlink" version="1.1" id="Layer_1" x="0px" y="0px" viewBox="0 0 512 512" style="enable-background:new 0 0 512 512;" xml:space="preserve">
<g>
	<g>
		<path d="M131.657,0c-26.503,0-48.065,21.563-48.065,48.065V464.98h0.262c2.63,26.364,24.939,47.02,51.983,47.02h292.571v-73.788    V407.51V0H131.657z M114.939,48.065c0-9.218,7.5-16.718,16.718-16.718h4.18v375.519c-7.336,0-14.428,1.595-20.898,4.494V48.065z     M397.061,480.653H135.837c-11.523,0-20.898-9.375-20.898-20.898c0-2.022,0.293-4.031,0.87-5.971l0.002-0.008    c2.616-8.784,10.851-14.919,20.025-14.919h261.224V480.653z M397.061,406.865H167.184V31.347h229.878V406.865z"/>
	</g>
</g>
<g>
	<g>
		<path d="M198.531,62.694v85.139h167.184V62.694H198.531z M334.367,116.486h-104.49V94.041h104.49V116.486z"/>
	</g>
</g>
<g>
</g>
<g>
</g>
<g>
</g>
<g>
</g>
<g>
</g>
<g>
</g>
<g>
</g>
<g>
</g>
<g>
</g>
<g>
</g>
<g>
</g>
<g>
</g>
<g>
</g>
<g>
</g>
<g>
</g>
</svg>
