<svg id="Capa_1" enable-background="new 0 0 512 512" height="512" viewBox="0 0 512 512" width="512" xmlns="http://www.w3.org/2000/svg"><g><path d="m412.218 153.275c-1.595-84.788-71.055-153.275-156.218-153.275s-154.623 68.487-156.218 153.275h-60.05v42.03c0 103.82 73.539 190.775 171.259 211.543v42.667l-32.477 32.478h-28.024v30.007h211.02v-30.006h-28.524l-32.477-32.478v-42.558c97.97-20.577 171.759-107.656 171.759-211.653v-42.03zm-156.218 198.286c4.89 0 9.726-.237 14.503-.679v30.124c-4.787.37-9.623.561-14.503.561-5.051 0-10.053-.209-15.003-.606v-30.124c4.939.473 9.942.724 15.003.724zm0-30.006c-32.372 0-61.933-12.252-84.302-32.356l193.869-195.615c10.61 18.478 16.683 39.878 16.683 62.671v39.05c0 69.615-56.636 126.25-126.25 126.25zm91.418-252.285-195.559 197.32c-6.857-9.986-12.314-21.001-16.092-32.764l185.566-185.565c9.607 5.833 18.377 12.911 26.085 21.009zm-217.668 86.986c0-69.615 56.635-126.25 126.25-126.25 12.481 0 24.54 1.829 35.935 5.219l-162.158 162.158c-.011-.692-.026-1.383-.026-2.078v-39.049zm-60.011 39.049v-12.024h30.006v12.024c0 70.518 46.96 130.265 111.247 149.638v31.113c-81.031-20.184-141.253-93.561-141.253-180.751zm220.813 286.689h-69.605l20.05-20.05v-50.901c4.959.342 9.959.529 15.003.529 4.875 0 9.708-.178 14.503-.498v50.869zm151.709-286.689c0 87.369-60.471 160.867-141.753 180.873v-31.086c64.543-19.213 111.747-79.086 111.747-149.787v-12.024h30.006z"/></g></svg>