<svg id="Capa_1" enable-background="new 0 0 510 510" height="512" viewBox="0 0 510 510" width="512" xmlns="http://www.w3.org/2000/svg"><g><path d="m295.014 214.986-40.014-80.027-40.014 80.027-80.027 40.014 80.027 40.014 40.014 80.027 40.014-80.027 80.027-40.014zm-22.362 57.666-17.652 35.306-17.652-35.306-35.306-17.652 35.306-17.652 17.652-35.306 17.652 35.306 35.306 17.652z"/><path d="m240 60h30v45h-30z"/><path d="m240 0h30v30h-30z"/><path d="m133.557 104.09h30v88.934h-30z" transform="matrix(.707 -.707 .707 .707 -61.534 148.557)"/><path d="m70.295 70.294h30v30.001h-30z" transform="matrix(.707 -.707 .707 .707 -35.33 85.295)"/><path d="m60 240h45v30h-45z"/><path d="m0 240h30v30h-30z"/><path d="m104.09 346.443h88.934v30h-88.934z" transform="matrix(.707 -.707 .707 .707 -212.067 210.91)"/><path d="m70.294 409.706h30.001v30h-30.001z" transform="matrix(.707 -.707 .707 .707 -275.33 184.706)"/><path d="m240 405h30v45h-30z"/><path d="m240 480h30v30h-30z"/><path d="m346.443 316.976h30v88.934h-30z" transform="matrix(.707 -.707 .707 .707 -149.715 361.443)"/><path d="m409.706 409.705h30v30.001h-30z" transform="matrix(.707 -.707 .707 .707 -175.919 424.707)"/><path d="m405 240h45v30h-45z"/><path d="m480 240h30v30h-30z"/><path d="m316.976 133.557h88.934v30h-88.934z" transform="matrix(.707 -.707 .707 .707 .818 299.09)"/><path d="m409.705 70.295h30.001v30h-30.001z" transform="matrix(.707 -.707 .707 .707 64.081 325.294)"/><path d="m168.247 44.272h30v75h-30z" transform="matrix(.924 -.383 .383 .924 -17.344 76.35)"/><path d="m66.772 145.747h30v75h-30z" transform="matrix(.383 -.924 .924 .383 -118.819 188.67)"/><path d="m44.272 311.753h75v30h-75z" transform="matrix(.924 -.383 .383 .924 -118.818 56.165)"/><path d="m145.747 413.227h75v30h-75z" transform="matrix(.383 -.924 .924 .383 -282.509 433.653)"/><path d="m311.753 390.728h30v75h-30z" transform="matrix(.924 -.383 .383 .924 -139.003 157.639)"/><path d="m413.227 289.253h30v75h-30z" transform="matrix(.383 -.924 .924 .383 -37.528 597.341)"/><path d="m390.728 168.247h75v30h-75z" transform="matrix(.924 -.383 .383 .924 -37.529 177.822)"/><path d="m289.253 66.772h75v30h-75z" transform="matrix(.383 -.924 .924 .383 126.164 352.361)"/></g></svg>