<?xml version="1.0" encoding="iso-8859-1"?>
<!-- Generator: Adobe Illustrator 19.0.0, SVG Export Plug-In . SVG Version: 6.00 Build 0)  -->
<svg version="1.1" id="Layer_1" xmlns="http://www.w3.org/2000/svg" xmlns:xlink="http://www.w3.org/1999/xlink" x="0px" y="0px"
	 viewBox="0 0 512 512" style="enable-background:new 0 0 512 512;" xml:space="preserve">
<g>
	<g>
		<path d="M455.111,255.834v-81.632h-32.238c2.373-7.308,3.626-15.018,3.626-22.923c0-19.754-7.693-38.327-21.661-52.295
			c-24.683-24.683-62.615-28.236-91.116-10.662L256,30.599L112.398,174.201H56.889v81.632C24.309,263.556,0,292.892,0,327.801
			s24.309,64.245,56.889,71.968v81.632h398.222v-81.632c32.58-7.723,56.889-37.06,56.889-71.968S487.691,263.557,455.111,255.834z
			 M256,78.87l56.318,56.317l12.067-12.067c15.526-15.526,40.791-15.527,56.318,0c7.521,7.522,11.663,17.522,11.663,28.159
			c0,8.327-2.55,16.26-7.261,22.923H160.669L256,78.87z M438.044,367.623h-17.067v79.644H91.022v-79.644H73.956
			c-21.958,0-39.822-17.864-39.822-39.822s17.864-39.822,39.822-39.822h17.067v-79.644h329.956v79.644h17.067
			c21.958,0,39.822,17.864,39.822,39.822S460.002,367.623,438.044,367.623z"/>
	</g>
</g>
<g>
	<g>
		<path d="M170.667,242.467c-25.095,0-45.511,20.416-45.511,45.511c0,25.095,20.416,45.511,45.511,45.511
			c25.095,0,45.511-20.416,45.511-45.511C216.178,262.884,195.761,242.467,170.667,242.467z M170.667,299.356
			c-6.274,0-11.378-5.104-11.378-11.378c0-6.274,5.104-11.378,11.378-11.378c6.274,0,11.378,5.104,11.378,11.378
			C182.044,294.252,176.94,299.356,170.667,299.356z"/>
	</g>
</g>
<g>
	<g>
		
			<rect x="173.967" y="310.729" transform="matrix(0.5547 -0.8321 0.8321 0.5547 -158.7383 358.9969)" width="164.097" height="34.135"/>
	</g>
</g>
<g>
	<g>
		<path d="M329.956,322.112c-25.095,0-45.511,20.416-45.511,45.511c0,25.095,20.416,45.511,45.511,45.511
			s45.511-20.416,45.511-45.511C375.467,342.528,355.05,322.112,329.956,322.112z M329.956,379.001
			c-6.274,0-11.378-5.104-11.378-11.378c0-6.274,5.104-11.378,11.378-11.378s11.378,5.104,11.378,11.378
			C341.333,373.897,336.229,379.001,329.956,379.001z"/>
	</g>
</g>
<g>
</g>
<g>
</g>
<g>
</g>
<g>
</g>
<g>
</g>
<g>
</g>
<g>
</g>
<g>
</g>
<g>
</g>
<g>
</g>
<g>
</g>
<g>
</g>
<g>
</g>
<g>
</g>
<g>
</g>
</svg>
