<svg id="Capa_1" enable-background="new 0 0 512 512" height="512" viewBox="0 0 512 512" width="512" xmlns="http://www.w3.org/2000/svg"><g><g><path d="m62.44 0v512h387.12v-512zm357.12 30v393.104h-327.12v-393.104zm-327.12 452v-28.896h327.12v28.896z"/><path d="m241 59.775h30v30h-30z"/><path d="m266.696 271.426 4.587-67.617h-27.521l4.587 67.617z"/><path d="m256 367.847c62.804 0 113.898-51.095 113.898-113.898s-51.094-113.898-113.898-113.898-113.898 51.094-113.898 113.897 51.094 113.899 113.898 113.899zm0-197.796c46.262 0 83.898 37.637 83.898 83.897 0 46.262-37.636 83.898-83.898 83.898s-83.898-37.637-83.898-83.898c0-46.26 37.636-83.897 83.898-83.897z"/></g><circle cx="257.522" cy="299.698" r="12.768"/></g></svg>