<svg id="Capa_1" enable-background="new 0 0 511.995 511.995" height="512" viewBox="0 0 511.995 511.995" width="512" xmlns="http://www.w3.org/2000/svg"><g><path d="m426.924 276.133v-83.307c0-24.486-19.624-44.945-43.745-45.606-12.272-.344-23.853 4.184-32.634 12.729-8.783 8.546-13.621 20.001-13.621 32.254v141.197c0 8.269-6.727 14.998-14.996 15l-35.942.013c-11.511.004-22.022 4.358-29.988 11.498-7.965-7.14-18.476-11.495-29.987-11.498l-35.943-.013c-8.27-.002-14.996-6.731-14.996-15v-141.197c0-12.254-4.837-23.708-13.621-32.254-8.781-8.544-20.361-13.056-32.634-12.729-24.121.661-43.745 21.12-43.745 45.606v83.307l-85.072 14.996v105.025c0 49.927 40.619 90.546 90.547 90.546 28.631 0 56.826-9.704 79.393-27.323l26.838-20.956h118.44l26.838 20.956c22.566 17.619 50.762 27.323 79.394 27.323 49.927 0 90.546-40.619 90.546-90.546v-105.025zm-240.471 132.288-34.977 27.31c-17.318 13.522-38.957 20.97-60.93 20.97-33.385 0-60.546-27.161-60.546-60.546v-79.852l85.071-14.996v-108.48c0-8.392 6.535-15.397 14.567-15.618 4.084-.102 7.964 1.395 10.892 4.242 2.928 2.849 4.541 6.668 4.541 10.752v141.197c0 24.806 20.181 44.992 44.986 45l35.943.013c8.269.002 14.995 6.73 14.996 14.998v15.011h-54.543zm295.542-12.266c0 33.385-27.161 60.546-60.547 60.546-21.973 0-43.611-7.447-60.93-20.97l-34.977-27.31h-54.544v-15.01c.001-8.269 6.729-14.997 14.997-14.999l35.942-.013c24.806-.008 44.986-20.194 44.986-45v-141.196c0-4.084 1.613-7.902 4.542-10.752 2.926-2.848 6.792-4.365 10.891-4.242 8.032.221 14.567 7.227 14.567 15.618v108.48l85.071 14.996v79.852z"/><path d="m203.439 100.628-12.06-12.06h129.243l-12.06 12.06 21.212 21.213 48.273-48.273-48.273-48.274-21.212 21.213 12.06 12.061h-129.243l12.06-12.061-21.212-21.213-48.274 48.274 48.274 48.273z"/></g></svg>