<svg id="Capa_1" enable-background="new 0 0 510 510" height="512" viewBox="0 0 510 510" width="512" xmlns="http://www.w3.org/2000/svg"><path d="m465 165h-4.898c-3.37-16.557-12.076-31.178-24.613-41.919-1.158-32.641-23.531-61.176-55.585-69.705-15.164-28.846-47.678-44.911-80.325-38.685-26.143-19.37-62.424-19.807-89.156 0-32.272-6.157-64.974 9.494-80.321 38.676-5.789 1.535-11.333 3.76-16.588 6.633h-68.514c-24.813 0-45 20.187-45 45s20.187 45 45 45h9.623c-8.322 19.178-8.355 40.844.046 60-13.085 29.836-5.381 65.309 19.843 86.919 1.158 32.641 23.531 61.176 55.585 69.705 15.036 28.603 47.255 44.793 79.903 38.756v14.62c0 33.084-26.916 60-60 60h-15v30h240v-30h-15c-33.084 0-60-26.916-60-60v-14.62c31.975 5.913 64.546-9.543 79.903-38.756 30.788-8.192 52.98-34.993 55.403-66.636 11.218-.096 22.117-4.382 30.351-12.047 16.08-14.971 14.202-34.784 14.343-35.512 17.461-6.19 30-22.873 30-42.43 0-24.812-20.186-44.999-45-44.999zm-435-60c0-8.271 6.729-15 15-15h195c8.271 0 15 6.729 15 15s-6.729 15-15 15h-45v75c0 8.441-6.962 15.249-15.432 14.994-8.033-.221-14.568-7.227-14.568-15.618v-74.376h-120c-8.271 0-15-6.728-15-15zm187.02 375c14.281-15.935 22.98-36.969 22.98-60v-120h30v120c0 23.031 8.699 44.065 22.98 60zm178.713-157.771c-14.034 17.598-32.983 16.512-37.115 17.726-2.076 3.714-5.215 22.442-25.516 32.223-17.084 8.229-32.801 2.384-33.102 2.349v-104.527h-90v104.525c-.212.024-16.111 5.834-33.1-2.349-20.298-9.777-23.414-28.46-25.518-32.223-4.139-1.216-23.076-.122-37.115-17.726-14.032-17.6-8.75-35.826-9.013-40.124-3.158-2.85-20.73-10.084-25.741-32.052-5.012-21.959 7.65-36.063 9.279-40.053-1.622-3.974-14.289-18.098-9.28-40.05 1.716-7.509 5.24-14.316 10.292-19.95h45.196v44.376c0 24.781 20.141 45.626 45.021 45.626 24.752 0 44.979-20.027 44.979-45v-45h15c24.814 0 45-20.187 45-45s-20.186-45-45-45h-78.498c11.447-14.122 30.454-20.105 48.227-14.609l8.291 2.563c3.52-2.469 14.453-17.954 36.98-17.954 22.521 0 33.457 15.481 36.979 17.954 4.247-.698 20.843-9.899 41.12-.131 20.297 9.777 23.414 28.46 25.518 32.223 4.138 1.216 23.076.122 37.115 17.726 14.032 17.6 8.75 35.826 9.013 40.124 3.749 3.21 17.928 8.974 24.301 27.105h-84.046c-24.814 0-45 20.186-45 45s20.186 45 45 45h45.004c.178 13.262 6.022 25.283 15.232 33.559-.101 1.037 3.134 17.817-9.503 33.669zm69.267-97.229h-15v30c0 8.644-7.309 15.606-16.138 14.959-7.773-.557-13.862-7.401-13.862-15.583v-29.376h-75c-8.271 0-15-6.729-15-15s6.729-15 15-15h120c8.272 0 15 6.729 15 15s-6.728 15-15 15z"/></svg>