<svg id="Capa_1" enable-background="new 0 0 512 512" height="512" viewBox="0 0 512 512" width="512" xmlns="http://www.w3.org/2000/svg"><g><path d="m301.953 181h30v30h-30z"/><path d="m180.047 181h30v30h-30z"/><path d="m396.634 323.374-14.889-4.014c12.374-18.635 20.722-40.161 23.789-63.334h1.391c33.084 0 60-26.916 60-60s-26.916-60-60-60h-.807c-7.485-76.249-71.964-136.026-150.147-136.026s-142.661 59.777-150.146 136.026h-.807c-33.084 0-60 26.916-60 60s26.916 60 60 60h1.391c3.068 23.178 11.42 44.709 23.798 63.347l-14.841 4.001c-50.262 13.55-85.366 59.37-85.366 111.427v77.199h452v-77.199c0-52.057-35.104-97.877-85.366-111.427zm-185.634 56.78v101.846h-40.141v-121.368c12.215 8.376 25.713 15.008 40.141 19.522zm60 36.845h-30v-30.742c4.926.488 9.92.742 14.972.742 5.071 0 10.084-.256 15.028-.747zm-30 30h30v35.001h-30zm60-66.863c14.411-4.515 27.894-11.143 40.095-19.511v121.375h-40.095zm135.925-184.11c0 16.542-13.458 30-30 30h-.076v-60h.076c16.542 0 30 13.458 30 30zm-180.953-166.026c23.064 0 44.637 6.497 62.994 17.751-15.836 17.927-38.51 28.306-62.966 28.306-24.466 0-47.15-10.387-62.986-28.329 18.348-11.24 39.909-17.728 62.958-17.728zm-120.878 120.878c0-32.815 13.15-62.611 34.448-84.414 21.515 25.053 52.736 39.592 86.458 39.592 33.707 0 64.918-14.527 86.431-39.561 21.281 21.8 34.417 51.583 34.417 84.382v85.243c0 66.652-54.226 120.878-120.877 120.878h-.001c-66.651 0-120.877-54.226-120.877-120.878v-85.242zm-60.076 45.148c0-16.542 13.458-30 30-30h.076v60h-.076c-16.542 0-30-13.458-30-30zm-15.018 238.775c0-38.524 25.979-72.433 63.175-82.46l17.685-4.767v134.426h-80.86zm392 47.199h-80.905v-134.439l17.73 4.78c37.196 10.027 63.175 43.935 63.175 82.46z"/></g></svg>