<?xml version="1.0" encoding="iso-8859-1"?>
<!-- Generator: Adobe Illustrator 19.0.0, SVG Export Plug-In . SVG Version: 6.00 Build 0)  -->
<svg xmlns="http://www.w3.org/2000/svg" xmlns:xlink="http://www.w3.org/1999/xlink" version="1.1" id="Layer_1" x="0px" y="0px" viewBox="0 0 512.001 512.001" style="enable-background:new 0 0 512.001 512.001;" xml:space="preserve">
<g>
	<g>
		<path d="M0,23.008l23.109,332.095v133.887h206.242V355.105l23.109-332.096H0z M199.343,458.983H53.118v-11.645h146.225V458.983z     M113.953,417.329c3.062-3.308,7.425-5.394,12.276-5.394s9.216,2.086,12.277,5.394H113.953z M199.343,417.329h-27.756    c-5.087-20.312-23.491-35.402-45.357-35.402c-21.866,0-40.269,15.09-45.357,35.402H53.118v-47.745h146.225V417.329z     M200.35,339.576H52.111L32.169,53.017h188.123L200.35,339.576z"/>
	</g>
</g>
<g>
	<g>
		<path d="M477.652,290.891v-39.507h-15.138c-4.45-21.131-18.494-39.285-41.273-53.091c-19.646-11.907-39.212-16.441-40.035-16.628    l-18.33-4.166v18.797c0,8.854-14.018,19.994-25.281,28.945c-10.101,8.027-20.434,16.244-25.968,26.143h-17.704v39.507    c-19.534,3.726-34.348,20.925-34.348,41.528v156.573h252.426V332.419C512,311.816,497.186,294.617,477.652,290.891z     M356.265,248.734c11.448-9.099,24.861-19.758,31.844-33.37c14.205,5.578,35.461,16.823,43.083,36.02h-78.248    C354.121,250.438,355.246,249.544,356.265,248.734z M323.931,281.392h123.713v8.74H323.931V281.392z M481.992,458.983H289.582    V332.419c0-6.77,5.508-12.276,12.276-12.276h167.856c6.77,0,12.276,5.508,12.276,12.276V458.983z"/>
	</g>
</g>
<g>
	<g>
		<path d="M311.238,341.797v95.531h149.099v-95.531H311.238z M430.328,407.32h-89.082v-35.514h89.082V407.32z"/>
	</g>
</g>
<g>
</g>
<g>
</g>
<g>
</g>
<g>
</g>
<g>
</g>
<g>
</g>
<g>
</g>
<g>
</g>
<g>
</g>
<g>
</g>
<g>
</g>
<g>
</g>
<g>
</g>
<g>
</g>
<g>
</g>
</svg>
