<?xml version="1.0" encoding="iso-8859-1"?>
<!-- Generator: Adobe Illustrator 19.0.0, SVG Export Plug-In . SVG Version: 6.00 Build 0)  -->
<svg xmlns="http://www.w3.org/2000/svg" xmlns:xlink="http://www.w3.org/1999/xlink" version="1.1" id="Layer_1" x="0px" y="0px" viewBox="0 0 512 512" style="enable-background:new 0 0 512 512;" xml:space="preserve">
<g>
	<g>
		<path d="M338.699,0l-38.621,70.323l-96.217-52.834l-87.257,158.91H10.937V512h434.497V190.465l55.628-101.303L338.699,0z     M216.275,60.129l68.69,37.72l27.526,15.113l11.115,6.102l-31.483,57.334H277.65h-35.816h-89.403L216.275,60.129z M42.336,207.798    h57.031h35.816h89.403h35.826h14.464h35.816h89.413h13.931v27.558h-29.065h-89.403h-35.826h-14.464h-35.826h-89.393H84.233H42.336    V207.798z M42.336,360.972v-49.317v-44.9h24.648h35.826h89.403h35.826h14.464h35.816h89.403h35.826h10.487v31.066h-96.358v96.962    h96.358v26.873H193.26h-40.41H42.336V360.972z M410.897,329.219v34.164h-61.82v-34.164H410.897z M414.036,480.601L414.036,480.601    h-371.7v-27.547h371.7V480.601z M417.343,176.399H327.94l38.296-69.747l-38.631-21.215l23.497-42.797l107.332,58.936    L417.343,176.399z"/>
	</g>
</g>
<g>
</g>
<g>
</g>
<g>
</g>
<g>
</g>
<g>
</g>
<g>
</g>
<g>
</g>
<g>
</g>
<g>
</g>
<g>
</g>
<g>
</g>
<g>
</g>
<g>
</g>
<g>
</g>
<g>
</g>
</svg>
