<svg id="Capa_1" enable-background="new 0 0 512 512" height="512" viewBox="0 0 512 512" width="512" xmlns="http://www.w3.org/2000/svg"><g><path d="m421.625 180.75h-271v210.75h271zm-30 60.25h-60.25v69.037l-15.125 15.125-15.125-15.125v-99.287h90.5zm-120.5-30.25v39.035l-51.464 51.444-39.036.015v-90.494zm-90.5 120.495 51.464-.019 39.036-39.022v30.259l39.037 39.037h-129.537zm171.963 30.255-15.125-15.125 23.912-23.912v-51.463h30.25v90.5z"/><path d="m400.412 0-38.912 38.912v51.712l-232.217-.345-38.908 39.021v51.45h-15.125c-24.882 0-45.125 20.243-45.125 45.125v60.25c0 24.882 20.243 45.125 45.125 45.125h15.125v30.25h-15.125c-24.882 0-45.125 20.243-45.125 45.125s20.243 45.125 45.125 45.125h15.125v60.25h391.5v-512zm-325.162 301.25c-8.34 0-15.125-6.785-15.125-15.125v-60.25c0-8.34 6.785-15.125 15.125-15.125h15.125v90.5zm0 120.5c-8.34 0-15.125-6.785-15.125-15.125s6.785-15.125 15.125-15.125h15.125v30.25zm376.625 60.25h-331.5v-340.3l21.342-21.403 310.158.461zm-60.375-391.332v-39.33l21.338-21.338h39.037v60.758z"/><path d="m150.625 421.75h30v30h-30z"/><path d="m391.632 421.75h30v30h-30z"/><path d="m210.875 421.75h150.5v30h-150.5z"/></g></svg>