<svg id="Capa_1" enable-background="new 0 0 510 510" height="512" viewBox="0 0 510 510" width="512" xmlns="http://www.w3.org/2000/svg"><g><path d="m424.542 120h-35.38c-7.486-67.405-64.793-120-134.162-120s-126.676 52.595-134.162 120h-35.38l-48.778 32.52 16.64 24.96 41.222-27.48h25.458v360h270v-360h25.458l41.222 27.48 16.641-24.961zm-169.542-90c52.805 0 96.623 39.184 103.924 90h-58.924v-30h-90v30h-58.924c7.301-50.816 51.119-90 103.924-90zm-15 120v-30h30v30zm-90 330v-330h60v30h30v150c-7.259 0-52.693 0-60 0v30h30v120zm90 0v-120h30v120zm120 0h-60v-120h30v-30c-7.259 0-52.693 0-60 0v-150h30v-30h60z"/></g></svg>