<svg id="Capa_1" enable-background="new 0 0 512.001 512.001" height="512" viewBox="0 0 512.001 512.001" width="512" xmlns="http://www.w3.org/2000/svg"><g><path d="m309.698 139.626 8.828-31.049 24.046 6.837 8.205-28.855-52.903-15.042-19.364 68.109h-90.315v30h22.693l13.333 173.333h112.448l13.333-173.333h22.692v-30zm-57.696 173.333-6.359-82.667h69.604l-6.359 82.667zm65.553-112.667h-74.219l-2.359-30.666h78.937z"/><path d="m489.774 205.774c0-113.464-92.31-205.774-205.774-205.774-44.388 0-86.66 13.912-122.247 40.233-34.871 25.792-60.319 61.137-73.594 102.215l-.352 1.089-8.955 55.412-56.625 102.69v38.361h47.106l18.982 103.695h106.936l16.135 68.306h244.439l-28.293-158.774c39.657-38.635 62.242-91.901 62.242-147.453zm-254.649 276.227-16.135-68.306h-105.668l-18.983-103.695h-42.112v-.639l55.41-100.485 9.416-58.27c23.827-72.187 90.775-120.606 166.947-120.606 96.923 0 175.774 78.853 175.774 175.774 0 49.867-21.306 97.577-58.453 130.897l-6.217 5.576 24.903 139.753h-184.882z"/></g></svg>