<svg id="Capa_1" enable-background="new 0 0 512 512" height="512" viewBox="0 0 512 512" width="512" xmlns="http://www.w3.org/2000/svg"><g><path d="m438.22 180.408c-9.512-9.814-22.75-15.408-36.412-15.408-.213 0-.428.001-.64.004-13.668.175-26.413 5.795-35.888 15.824-9.547 10.105-14.671 23.87-14.059 37.764l4.306 97.748c.182 4.128-1.291 8.045-4.148 11.03-2.856 2.985-6.705 4.63-10.837 4.63h-37.747c-4.079 0-7.894-1.608-10.74-4.529-2.848-2.921-4.358-6.775-4.255-10.854l6.717-263.276c.359-14.077-4.809-27.425-14.55-37.583-9.525-9.934-22.279-15.527-35.91-15.751-14.158-.229-27.393 5.167-37.333 15.198-9.943 10.034-15.221 23.336-14.86 37.457l3.838 150.456c.104 4.077-1.406 7.932-4.254 10.852-2.847 2.922-6.662 4.53-10.741 4.53h-9.236c-4.133 0-7.982-1.645-10.839-4.631-2.856-2.985-4.329-6.903-4.146-11.032l4.28-96.742c.615-13.894-4.508-27.659-14.054-37.767-9.475-10.03-22.22-15.649-35.887-15.824-13.877-.193-27.392 5.439-37.051 15.406-9.66 9.97-14.849 23.641-14.235 37.508l7.083 160.071c1.067 24.118 20.814 43.011 44.956 43.011h72.19c8.199 0 14.786 6.421 14.995 14.618l1.403 55.029c.301 11.8 5.122 22.836 13.574 31.075s19.608 12.778 31.412 12.778h7.961c8.271 0 15 6.729 15 15v75h90v-75c0-8.271 6.729-15 15-15h27.298c24.147 0 43.895-18.896 44.956-43.02l7.096-161.065c.61-13.868-4.581-27.539-14.243-37.507zm-51.132 21.022c3.85-4.075 8.986-6.358 14.463-6.428.093-.001.185-.002.276-.002 5.65 0 10.915 2.227 14.852 6.287 4.001 4.129 6.065 9.564 5.813 15.308l-.415 9.405h-40.5l-.385-8.729c-.256-5.829 1.892-11.603 5.896-15.841zm-2.714 88.07-1.476-33.5h37.857l-1.476 33.5zm-152.933 93.637c-.779-1.758-1.232-3.7-1.284-5.755l-1.011-39.646h33.69c1.544 2.964 3.436 5.764 5.646 8.361zm-6.32-203.138-.765-30h37.685l-.765 30zm37.685-60h-39.216l-.765-30h40.746zm-34.773-83.678c4.133-4.172 9.671-6.419 15.531-6.318 5.567.091 10.806 2.406 14.75 6.52 4.159 4.337 6.365 10.038 6.212 16.054l-.189 7.423h-42.277l-.207-8.103c-.149-5.871 2.046-11.403 6.18-15.576zm-52.327 212.179v30h-49.86l32.062-32.062c4.323 1.357 8.882 2.062 13.562 2.062zm-79.114 15.663-1.965-44.408h34.854c1.132 2.922 2.578 5.722 4.318 8.367l-37.107 37.107c-.041-.353-.084-.705-.1-1.066zm30.442-74.408h-33.734l-1.77-40h37.274zm-31.716-100.968c3.936-4.061 9.199-6.287 14.85-6.287.092 0 .184.001.274.002 5.476.069 10.611 2.352 14.46 6.427 4.003 4.237 6.15 10.011 5.893 15.84l-.663 14.986h-39.93l-.693-15.663c-.254-5.741 1.809-11.177 5.809-15.305zm110.388 195.421v-43.278c2.578-1.731 5.001-3.738 7.224-6.018 6.736-6.91 10.965-15.564 12.305-24.912h35.275l-2.494 97.736h-32.087c-2.293-6.144-5.928-11.757-10.75-16.458-2.871-2.799-6.059-5.159-9.473-7.07zm92.407 197.792v-30h30v30zm32.58-60h-35.16c-5.034-14.194-16.997-25.128-31.805-28.724l31.854-31.854c2.363.377 4.771.578 7.214.578h31.534l30.735 30.735c-15.984 2.9-29.051 14.26-34.372 29.265zm75.07-30.991-38.094-38.095c1.898-1.443 3.701-3.041 5.386-4.802 7.529-7.868 11.852-17.895 12.422-28.611h32.482l-2.562 58.16c-.273 6.155-4.2 11.278-9.634 13.348z"/></g></svg>