<svg id="Capa_1" enable-background="new 0 0 510 510" height="512" viewBox="0 0 510 510" width="512" xmlns="http://www.w3.org/2000/svg"><g id="XMLID_233_"><path id="XMLID_238_" d="m448.924 353.816c10.054-12.763 16.076-28.844 16.076-46.316 0-38.936-29.827-71.027-67.83-74.649 14.186-15.795 22.83-36.663 22.83-59.515 0-33.991-18.887-64.55-49.289-79.75l-70.711-35.357v24.271c0 16.542-13.458 30-30 30h-105c-41.355 0-75 33.645-75 75 0 17.472 6.021 33.553 16.076 46.316-34.722 6.549-61.076 37.087-61.076 73.684 0 17.472 6.021 33.553 16.076 46.316-34.722 6.549-61.076 37.087-61.076 73.684 0 41.355 33.645 75 75 75h360c41.355 0 75-33.645 75-75 0-36.597-26.353-67.135-61.076-73.684zm-283.924-211.316h105c25.264 0 46.931-15.696 55.763-37.848l31.532 15.767c20.173 10.086 32.705 30.362 32.705 52.917 0 32.623-26.541 59.164-59.164 59.164h-165.836c-24.814 0-45-20.186-45-45 0-24.813 20.186-45 45-45zm-45 120h270c24.814 0 45 20.187 45 45 0 24.814-20.186 45-45 45h-270c-24.813 0-45-20.186-45-45 0-24.813 20.187-45 45-45zm315 210h-360c-24.813 0-45-20.186-45-45 0-24.813 20.187-45 45-45h360c24.814 0 45 20.187 45 45 0 24.814-20.186 45-45 45z"/><path id="XMLID_1197_" d="m50 112.5h30c0-18.188-7.554-28.102-13.068-35.341-4.47-5.866-6.932-9.097-6.932-17.159s2.462-11.293 6.932-17.159c5.514-7.239 13.068-17.153 13.068-35.341h-30c0 8.062-2.462 11.293-6.932 17.159-5.514 7.24-13.068 17.153-13.068 35.341s7.554 28.102 13.068 35.341c4.47 5.866 6.932 9.097 6.932 17.159z"/><path id="XMLID_1198_" d="m430 112.5h30c0-8.062 2.462-11.293 6.932-17.159 5.514-7.239 13.068-17.153 13.068-35.341s-7.554-28.101-13.068-35.341c-4.47-5.866-6.932-9.097-6.932-17.159h-30c0 18.188 7.554 28.102 13.068 35.341 4.47 5.866 6.932 9.097 6.932 17.159s-2.462 11.293-6.932 17.159c-5.514 7.239-13.068 17.153-13.068 35.341z"/></g></svg>