<svg id="Capa_1" enable-background="new 0 0 512 512" height="512" viewBox="0 0 512 512" width="512" xmlns="http://www.w3.org/2000/svg"><path d="m256 0c-140.959 0-256 115.049-256 256 0 140.959 115.049 256 256 256 140.959 0 256-115.049 256-256 0-140.959-115.049-256-256-256zm-226 256c0-56.922 21.162-108.988 56.02-148.767l85.128 85.127-21.213 21.213-42.426-42.427-53.034 53.034 21.213 21.213 31.82-31.819 21.213 21.213-10.607 10.606c-40.939 40.939-40.939 107.553 0 148.492 41.034 41.034 107.453 41.039 148.492 0l10.607-10.607 21.213 21.213-31.82 31.82 21.213 21.213 53.033-53.033-42.426-42.426 21.214-21.214 85.128 85.127c-39.779 34.86-91.846 56.022-148.768 56.022-124.617 0-226-101.383-226-226zm321.46-95.459c17.545 17.545 17.545 46.094 0 63.639l-10.607 10.607-63.64-63.64 10.606-10.606c17.546-17.546 46.093-17.546 63.641 0zm-116.673 10.606 106.066 106.066-21.214 21.213-106.066-106.065zm63.64 148.493-53.033 53.033c-25.611 25.611-65.288 28.789-94.393 9.539l62.573-62.572-21.213-21.213-62.572 62.572c-19.25-29.104-16.072-68.781 9.539-94.393l53.033-53.033zm127.553 85.127-85.128-85.127 21.214-21.213 42.426 42.427 53.033-53.033-21.213-21.213-31.82 31.819-42.426-42.427 10.607-10.607c14.543-14.543 21.847-33.624 21.924-52.728l34.05-6.81-5.883-29.417-34.025 6.805c-3.651-8.697-8.996-16.845-16.067-23.916s-15.219-12.416-23.916-16.067l6.804-34.025-29.418-5.883-6.809 34.049c-19.104.077-38.184 7.381-52.728 21.925l-10.605 10.608-42.427-42.426 31.82-31.82-21.213-21.213-53.033 53.033 42.427 42.426-21.214 21.213-85.128-85.127c39.779-34.858 91.846-56.02 148.768-56.02 124.617 0 226 101.383 226 226 0 56.922-21.162 108.988-56.02 148.767z"/></svg>