<svg id="Capa_1" enable-background="new 0 0 512 512" height="512" viewBox="0 0 512 512" width="512" xmlns="http://www.w3.org/2000/svg"><path id="XMLID_589_" d="m436.414 65.89v-65.89h-108.021v65.89h-12.959v96.265c0 24.262 19.738 44 44 44h8.103v89.242c-24.351-29.734-61.333-48.745-102.674-48.745-41.444 0-78.505 19.105-102.853 48.967v-89.464h26.008c24.262 0 44-19.738 44-44v-96.265h-17.726v-65.89h-134.565v65.89h-17.368v96.265c0 24.262 19.738 44 44 44h25.65v173.172h.179c0 73.156 59.518 132.674 132.674 132.674s132.674-59.518 132.674-132.674v-173.173h8.104c24.262 0 44-19.738 44-44v-96.264zm-326.687-35.89h74.565v35.89h-74.565zm-17.368 132.154v-66.264h109.658v66.265c0 7.72-6.28 14-14 14h-81.658c-7.719-.001-14-6.281-14-14.001zm172.504 319.846c-56.615 0-102.674-46.06-102.674-102.674 0-56.615 46.06-102.675 102.674-102.675s102.674 46.06 102.674 102.675c0 56.614-46.059 102.674-102.674 102.674zm93.53-452h48.021v35.89h-48.021zm61.248 132.154c0 7.72-6.28 14-14 14h-46.207c-7.72 0-14-6.28-14-14v-66.264h74.207z"/></svg>