<svg id="Capa_1" enable-background="new 0 0 512 512" height="512" viewBox="0 0 512 512" width="512" xmlns="http://www.w3.org/2000/svg"><g><path d="m241 233.797v30.703h30v-30.703c8.978-1.887 17.344-5.439 24.78-10.304l21.739 21.739 21.213-21.213-21.739-21.739c4.866-7.435 8.418-15.802 10.304-24.78h30.703v-30h-30.703c-1.887-8.978-5.439-17.344-10.304-24.78l21.739-21.739-21.213-21.213-21.739 21.739c-7.436-4.866-15.802-8.418-24.78-10.304v-30.703h-30v30.703c-8.978 1.887-17.344 5.439-24.78 10.304l-21.739-21.739-21.213 21.213 21.739 21.739c-4.866 7.435-8.418 15.802-10.304 24.78h-30.703v30h30.703c1.887 8.978 5.439 17.344 10.304 24.78l-21.739 21.739 21.213 21.213 21.739-21.739c7.436 4.866 15.802 8.417 24.78 10.304zm15-114.154c23.632 0 42.857 19.226 42.857 42.857s-19.225 42.857-42.857 42.857-42.857-19.226-42.857-42.857 19.225-42.857 42.857-42.857z"/><path d="m323.31 325 95.19-95.19v-134.62l-95.19-95.19h-134.62l-95.19 95.19v134.62l95.19 95.19zm-199.81-217.384 77.616-77.616h109.768l77.616 77.616v109.768l-77.616 77.616h-109.768l-77.616-77.616z"/><path d="m468.631 298.883h-76.631v63.117h-272v-63.059h-76.631l-43.369 74.604v138.455l512-.059v-138.455zm-378.631 183.117h-60v-100.369l30.631-52.689h29.369zm302 0h-30.353v-39.142h-30v39.142h-30.412v-59.153h-30v59.153h-30.412v-59.165h-30v59.165h-30.411v-39.13h-30v39.13h-30.412v-90h272zm90-.059h-60v-153.058h29.369l30.631 52.689z"/></g></svg>