<svg id="Capa_1" enable-background="new 0 0 512 512" height="512" viewBox="0 0 512 512" width="512" xmlns="http://www.w3.org/2000/svg"><g><g><path d="m437.115 136.568h30v30.002h-30z"/><g><path d="m482 55.77h30v30.002h-30z"/><path d="m451.998 25.769h30v30.001h-30z"/></g><path d="m132.139 235.003c-27.394 0-49.68 22.287-49.68 49.681h30c0-10.852 8.829-19.681 19.68-19.681 10.852 0 19.681 8.829 19.681 19.681h30c-.001-27.394-22.287-49.681-49.681-49.681z"/><path d="m271.454 265.003c10.852 0 19.681 8.829 19.681 19.681h30c0-27.394-22.287-49.681-49.681-49.681s-49.68 22.287-49.68 49.681h30c0-10.852 8.829-19.681 19.68-19.681z"/></g><path d="m425.54 296.743v28.983c0 20.333-14.937 37.239-34.413 40.332 4.708-16.954 7.236-34.807 7.236-53.24 0-34.575-9.001-68.639-26.03-98.512-16.028-28.116-38.872-52.077-66.157-69.491l-107.092-144.815-107.04 144.907c-27.246 17.422-50.055 41.377-66.056 69.473-17.002 29.854-25.988 63.893-25.988 98.438 0 109.829 89.353 199.182 199.182 199.182 79.993 0 149.112-47.407 180.769-115.595h56.872c41.453 0 75.177-33.725 75.177-75.178v-24.484zm-226.442-246.637 44.129 61.129c-11.666 11.613-27.291 18.139-44.136 18.139-16.827 0-32.437-6.512-44.099-18.102zm-62.262 85.11c16.863 15.411 38.763 23.994 62.255 23.994 23.515 0 45.435-8.601 62.305-24.041l15.73 20.721c-19.744 22.454-47.713 35.159-78.036 35.159-30.294 0-58.24-12.682-77.98-35.096zm62.346 346.948c-93.378 0-169.346-75.968-169.346-169.346 0-29.377 7.635-58.311 22.078-83.672 11.821-20.758 28.016-38.855 47.251-52.97 25.373 28.558 61.154 44.711 99.925 44.711 38.805 0 74.622-16.184 99.998-44.791 19.264 14.112 35.483 32.215 47.325 52.987 14.467 25.378 22.114 54.333 22.114 83.735 0 18.781-3.078 36.855-8.748 53.751h-113.715c1.303-4.091 2.012-8.445 2.012-12.962 0-23.599-19.199-42.798-42.798-42.798h-21.226v29.836h21.226c7.147 0 12.962 5.815 12.962 12.962s-5.815 12.962-12.962 12.962h-21.226v29.836h21.226c7.147 0 12.962 5.815 12.962 12.961 0 7.147-5.815 12.962-12.962 12.962h-21.226v29.836h21.226c23.599 0 42.798-19.199 42.798-42.798 0-4.517-.709-8.87-2.012-12.961h100.353c-29.167 51.176-84.236 85.759-147.235 85.759zm243.429-115.964c7.889-11.255 12.585-24.905 12.76-39.621h26.478c-2.432 20.586-18.711 36.994-39.238 39.621z"/></g></svg>