<?xml version="1.0" encoding="iso-8859-1"?>
<!-- Generator: Adobe Illustrator 19.0.0, SVG Export Plug-In . SVG Version: 6.00 Build 0)  -->
<svg xmlns="http://www.w3.org/2000/svg" xmlns:xlink="http://www.w3.org/1999/xlink" version="1.1" id="Layer_1" x="0px" y="0px" viewBox="0 0 512 512" style="enable-background:new 0 0 512 512;" xml:space="preserve">
<g>
	<g>
		<path d="M512,176.668l-66.251-66.25l-88.335,88.335l-11.041-11.041l-22.083,22.083l33.126,33.125L165.627,434.708l-33.126-33.126    l-22.083,22.083l33.126,33.126l-33.126,33.126L132.501,512l33.126-33.126L198.753,512l22.083-22.083l-33.126-33.126    l191.787-191.788l33.126,33.126l22.083-22.083l-11.042-11.041L512,176.668z M401.582,242.919l-22.084-22.083l66.251-66.251    l22.083,22.083L401.582,242.919z"/>
	</g>
</g>
<g>
	<g>
		<path d="M401.582,66.25L335.331,0l-88.335,88.335l-11.042-11.041l-22.083,22.083l33.126,33.126L55.209,324.29l-33.126-33.126    L0,313.247l33.126,33.126L0,379.498l22.083,22.083l33.126-33.126l33.126,33.126l22.083-22.083l-33.126-33.126l191.788-191.787    l33.126,33.125l22.083-22.083l-11.042-11.041L401.582,66.25z M291.164,132.502l-22.084-22.084l66.251-66.251l22.083,22.084    L291.164,132.502z"/>
	</g>
</g>
<g>
</g>
<g>
</g>
<g>
</g>
<g>
</g>
<g>
</g>
<g>
</g>
<g>
</g>
<g>
</g>
<g>
</g>
<g>
</g>
<g>
</g>
<g>
</g>
<g>
</g>
<g>
</g>
<g>
</g>
</svg>
