<svg id="Capa_1" enable-background="new 0 0 509.207 509.207" height="512" viewBox="0 0 509.207 509.207" width="512" xmlns="http://www.w3.org/2000/svg"><g><path d="m254.604 0c-90.981 0-165 74.019-165 165 0 73.863 49.138 138.67 120 158.775v51.225h-60.954l105.953 134.207 105.954-134.207h-60.953v-51.225c70.773-20.08 120-84.82 120-158.775 0-90.981-74.019-165-165-165zm27.015 297.296-12.016 2.44v105.264h29.047l-44.047 55.793-44.046-55.793h29.047v-105.265l-12.016-2.44c-62.57-12.701-107.984-68.34-107.984-132.296 0-74.439 60.56-135 135-135s135 60.561 135 135c0 63.957-45.415 119.596-107.985 132.297z"/><path d="m254.604 60c-57.897 0-105 47.103-105 105 0 57.898 47.103 105 105 105s105-47.102 105-105c0-57.897-47.103-105-105-105zm0 180c-41.355 0-75-33.645-75-75s33.645-75 75-75 75 33.645 75 75-33.645 75-75 75z"/><path d="m209.604 150h90v30h-90z"/></g></svg>