<svg id="Layer_1" enable-background="new 0 0 510 510" height="512" viewBox="0 0 510 510" width="512" xmlns="http://www.w3.org/2000/svg"><g><path d="m499.734 435-83.333-300h-86.401v-45h75c33.084 0 60-26.916 60-60v-30h-420v30c0 33.084 26.916 60 60 60h75v45h-86.401l-83.333 300h49.734v75h105v-75h180v75h105v-75zm-424.734-405h360c0 16.542-13.458 30-30 30h-300c-16.542 0-30-13.458-30-30zm135 60h90v45h-90zm-93.599 75h277.197l66.667 240h-410.531zm18.599 315h-45v-45h45zm285 0h-45v-45h45z"/><path d="m255 195c-49.626 0-90 40.374-90 90s40.374 90 90 90 90-40.374 90-90-40.374-90-90-90zm15 148.102v-58.102h-30v58.102c-25.85-6.678-45-30.195-45-58.102 0-33.084 26.916-60 60-60s60 26.916 60 60c0 27.906-19.15 51.424-45 58.102z"/></g></svg>