<svg id="Capa_1" enable-background="new 0 0 512 512" height="512" viewBox="0 0 512 512" width="512" xmlns="http://www.w3.org/2000/svg"><g><path d="m368.373 147c-31.362-.024-61.624 10.099-86.59 28.93l11.02-94.08.1-.87v-80.98h-292.53v80.98l38.607 329.744v43.643c0 31.779 25.854 57.633 57.633 57.633h100.047c31.779 0 57.633-25.854 57.633-57.633v-43.62l3.25-27.767c26.923 32.629 68.359 52.283 110.83 52.02 191.027-7.905 190.984-280.117 0-288zm-105.47-117v35.106h-232.53v-35.106zm-230.671 65.106h228.811c0-.001-13.81 117.993-13.81 117.994-4.62 7.17-8.6 14.77-11.9 22.73l-55.17 55.17 51.87 51.87-6.09 51.97h-158.62c0-.001-35.091-299.733-35.091-299.734zm164.428 386.894h-100.047c-15.237 0-27.633-12.396-27.633-27.633v-29.527h155.313v29.527c0 15.237-12.396 27.633-27.633 27.633zm171.713-77c-47.304.616-91.949-31.163-107.43-75.64l-24.46-24.46-13.9-13.9 38.36-38.36c15.524-44.529 60.108-76.235 107.43-75.64 151.211 6.246 151.215 221.754 0 228z"/><path d="m381.373 218h-30c0 32.53-26.47 59-59 59v30c32.53 0 59 26.47 59 59h30c0-32.53 26.47-59 59-59v-30c-32.53 0-59-26.47-59-59zm-15 98.6c-6.51-9.72-14.88-18.09-24.6-24.6 9.72-6.51 18.09-14.88 24.6-24.6 6.51 9.72 14.88 18.09 24.6 24.6-9.72 6.51-18.09 14.88-24.6 24.6z"/><path d="m146.633 228c35.84 0 65-25.12 65-56-3.517-74.278-126.499-74.251-130 0 0 30.88 29.16 56 65 56zm0-82c18.98 0 35 11.91 35 26s-16.02 26-35 26c-18.97 0-35-11.91-35-26s16.03-26 35-26z"/></g></svg>