<svg id="Capa_1" enable-background="new 0 0 513.325 513.325" height="512" viewBox="0 0 513.325 513.325" width="512" xmlns="http://www.w3.org/2000/svg"><path id="XMLID_474_" d="m492.732 95.082c-18.168-18.168-47.729-18.168-65.896 0-12.086 12.086-16.121 29.212-12.126 44.675-9.522 4.371-21.179 2.643-29.01-5.188-4.87-4.869-7.551-11.344-7.551-18.229 0-6.887 2.682-13.361 7.551-18.23l76.897-76.896-21.213-21.214-76.897 76.896c-10.536 10.535-16.338 24.543-16.338 39.443 0 9.756 2.503 19.123 7.179 27.389l-66.091 66.092-25.979-25.979-241.16 241.16c-20.173 20.173-20.173 52.997 0 73.17 9.772 9.772 22.765 15.154 36.585 15.154s26.813-5.382 36.585-15.154l241.159-241.158-25.979-25.979 66.105-66.105c8.469 4.768 17.921 7.167 27.379 7.166 9.466 0 18.926-2.403 27.399-7.179 8.35 6.45 18.398 9.688 28.453 9.688 11.932 0 23.864-4.542 32.948-13.626 18.167-18.168 18.167-47.729 0-65.896zm-434.049 388.243c-5.807 0-11.266-2.262-15.372-6.367-8.476-8.477-8.476-22.268 0-30.744l17.864-17.864 30.744 30.744-17.864 17.864c-4.106 4.105-9.565 6.367-15.372 6.367zm54.448-45.444-30.744-30.744 180.868-180.869 30.745 30.745zm358.388-298.115c-3.135 3.135-7.302 4.86-11.735 4.86s-8.601-1.726-11.735-4.86c-6.471-6.471-6.471-17 0-23.471 3.135-3.135 7.302-4.86 11.735-4.86s8.601 1.726 11.735 4.86c6.47 6.471 6.47 17 0 23.471z"/></svg>