<svg height="512pt" viewBox="0 0 512 512" width="512pt" xmlns="http://www.w3.org/2000/svg"><path d="m497 90h-69.945312l-116-87c-2.597657-1.945312-5.753907-3-9-3h-166.054688c-8.285156 0-15 6.714844-15 15 0 41.355469 33.644531 74.988281 75 74.988281h57.953125c-15.695313 28.496094-11.476563 65.121094 12.652344 89.25l.835937.835938c-4.457031 3.828125-8.242187 8.0625-11.414062 12.316406-13.367188-17.925781-31.296875-27.390625-51.949219-27.390625-38.8125 0-66.925781 32.195312-66.925781 71.363281 0 12.046875 2.800781 23.953125 8.296875 35.636719h-130.449219c-8.285156 0-15 6.714844-15 15v120c0 8.285156 6.714844 15 15 15h69.945312l116 87c2.597657 1.945312 5.753907 3 9 3h166.054688c8.285156 0 15-6.714844 15-15 0-41.355469-33.644531-75-75-75h-57.953125c8.308594-15.082031 11.03125-32.4375 8.183594-49.015625 7.507812-6.503906 14.699219-12.636719 21.65625-18.566406 45.585937-38.867188 84.839843-70.773438 86.871093-114.417969h122.242188c8.285156 0 15-6.714844 15-15v-120c0-8.285156-6.714844-15-15-15zm-181 362c19.558594 0 36.238281 12.539062 42.429688 30h-143.484376l-116-87c-2.597656-1.945312-5.753906-3-9-3h-59.945312v-90h123.570312c12.289063 0 23.554688 4.914062 31.816407 13.179688l38.796875 38.792968c13.824218 13.828125 16.753906 34.484375 8.785156 51.207032l-48.828125-48.832032c-5.859375-5.859375-15.355469-5.859375-21.214844 0s-5.859375 15.355469 0 21.214844c0 0 61.28125 61.277344 61.292969 61.289062 8.496094 8.480469 19.78125 13.148438 31.78125 13.148438zm-47.578125-120.410156c-4.570313 3.894531-9.253906 7.890625-14.058594 12.015625-2.601562-3.820313-5.582031-7.457031-8.96875-10.84375l-38.792969-38.792969c-6.078124-6.078125-13.015624-10.976562-20.539062-14.597656-12.539062-14.488282-18.90625-28.945313-18.90625-43.007813 0-23.582031 15.871094-41.363281 36.921875-41.363281 27.382813 0 37.085937 32.679688 37.46875 34.003906 1.796875 6.496094 7.710937 10.996094 14.453125 10.996094s12.65625-4.5 14.457031-10.996094c.058594-.210937 5.285157-17.871094 18.285157-27.625l16.65625 16.652344c10.886718 10.890625 24.542968 18 39.371093 20.714844-1.558593 29.0625-31.546875 54.644531-76.347656 92.84375zm213.578125-121.589844h-121.851562c-2.632813-.230469-19.210938 1.148438-33.539063-13.179688l-38.792969-38.792968c-13.824218-13.828125-16.753906-34.484375-8.789062-51.207032l48.832031 48.832032c5.859375 5.855468 15.355469 5.855468 21.214844 0 5.855469-5.859375 5.855469-15.355469 0-21.214844l-61.257813-61.253906c-8.5-8.5-19.800781-13.183594-31.816406-13.183594h-60c-19.558594 0-36.238281-12.539062-42.429688-30h143.484376l116 87c2.597656 1.945312 5.753906 3 9 3h59.945312zm0 0"/></svg>