<svg id="Capa_1" enable-background="new 0 0 512 512" height="512" viewBox="0 0 512 512" width="512" xmlns="http://www.w3.org/2000/svg"><g><g><path d="m306.507 317.755h87.889c38.966 0 70.666-31.701 70.666-70.666v-82.415h-53.955l49.712-51.153-21.514-20.908-70.031 72.061h-116.199v-164.674h-124.392l-81.745 81.745v82.93 15 67.415c0 38.965 31.701 70.666 70.666 70.666h87.889c1.125 3.78 2.662 7.381 4.561 10.755l-43.48 44.74c-11.672-7.446-25.513-11.782-40.355-11.782-41.502 0-75.266 33.764-75.266 75.266s33.764 75.266 75.266 75.266c41.501 0 75.266-33.764 75.266-75.266 0-15.833-4.926-30.531-13.309-42.667l43.39-44.647c7.309 3.843 15.619 6.029 24.434 6.029s17.124-2.187 24.433-6.029l43.39 44.647c-8.383 12.135-13.308 26.833-13.308 42.666 0 41.502 33.764 75.266 75.266 75.266s75.267-33.764 75.267-75.266c0-41.501-33.765-75.266-75.267-75.266-14.842 0-28.682 4.336-40.355 11.782l-43.479-44.74c1.898-3.374 3.435-6.975 4.56-10.755zm128.555-123.08v52.415c0 22.423-18.243 40.666-40.666 40.666h-87.889c-1.125-3.78-2.662-7.381-4.561-10.755l80.006-82.325h53.11zm-238.987-53.782-109.066-56.792 45.177-45.177zm27-13.41-61.079-97.483h61.079zm-146.137-14.803 99.852 51.995h-99.852zm0 134.409v-52.415h263.181l-59.685 61.416c-7.309-3.843-15.619-6.029-24.434-6.029-23.845 0-44.03 15.925-50.507 37.694h-87.889c-22.423 0-40.666-18.242-40.666-40.666zm49.282 234.911c-24.96 0-45.266-20.306-45.266-45.266 0-24.959 20.306-45.266 45.266-45.266 24.959 0 45.266 20.306 45.266 45.266-.001 24.96-20.307 45.266-45.266 45.266zm107.086-179.245c0-12.514 10.181-22.694 22.694-22.694s22.694 10.181 22.694 22.694-10.181 22.694-22.694 22.694-22.694-10.18-22.694-22.694zm197.741 133.979c0 24.96-20.307 45.266-45.267 45.266s-45.266-20.306-45.266-45.266c0-24.959 20.306-45.266 45.266-45.266s45.267 20.306 45.267 45.266z"/></g><g><path d="m111.22 421.734h30v30h-30z"/></g><g><path d="m370.78 421.734h30v30h-30z"/></g></g></svg>