<svg id="Layer_1" enable-background="new 0 0 512 512" height="512" viewBox="0 0 512 512" width="512" xmlns="http://www.w3.org/2000/svg"><path d="m496.998 482v-154.863h-72.2v-33.038l-66.798-22.434v-64.774h15.002v-30h-34.003v-14.184c0-29.639-15.608-55.7-39.037-70.397v-21.809c0-18.998-12.102-35.222-29.002-41.369v-29.132h-30v29.132c-16.9 6.147-29.002 22.371-29.002 41.369v21.809c-23.429 14.697-39.037 40.758-39.037 70.397v14.184h-34.003v30h15.002v64.774l-66.798 22.434v33.038h-72.2v154.863h-14.922v30h512v-30zm-30 0h-42.2v-124.863h42.2zm-349.876-124.863h31.535v124.863h-31.535zm61.535 0h31.535v124.863h-31.535zm61.535 0h31.535v124.863h-31.535zm61.536 0h31.535v124.863h-31.535zm61.535 0h31.535v124.863h-31.535zm-35.263-95.547-28.038-9.417v-45.282h28.038zm-58.038-54.699v35.207l-14.002-4.703-14.002 4.703v-35.207zm-28.004-136.39c.706-18.553 27.303-18.542 28.004 0v10.348c-9.06-1.57-18.944-1.57-28.004 0zm-39.037 92.207c2.676-70.282 103.426-70.235 106.078.001 0-.001 0 14.183 0 14.183h-106.078zm-19.001 44.183h28.038v45.282l-28.038 9.417zm-66.798 108.778 138.838-46.628 138.838 46.628v11.468h-277.676zm-72.2 41.468h42.2v124.863h-42.2z"/></svg>