<svg id="Capa_1" enable-background="new 0 0 512 512" height="512" viewBox="0 0 512 512" width="512" xmlns="http://www.w3.org/2000/svg"><g><path d="m98.81 53c-11.229 33.774-11.229 70.976 0 104.75l28.469-9.465c-9.2-27.671-9.2-58.149 0-85.82z"/><path d="m41.639 33.943c-15.314 46.063-15.314 96.8 0 142.863l28.469-9.465c-13.286-39.96-13.286-83.974 0-123.934z"/><path d="m413.133 157.75c11.229-33.774 11.229-70.976 0-104.75l-28.469 9.465c9.2 27.671 9.2 58.149 0 85.82z"/><path d="m470.303 176.807c15.314-46.063 15.314-96.8 0-142.863l-28.469 9.465c13.286 39.96 13.286 83.974 0 123.934z"/><path d="m436.721 257c-5.893 0-11.525 1.136-16.69 3.199-5.201-19.177-22.76-33.324-43.56-33.324-5.893 0-11.525 1.136-16.69 3.199-5.201-19.177-22.76-33.324-43.56-33.324-3.316 0-6.549.359-9.664 1.042 32.626-17.93 54.789-52.633 54.789-92.417 0-58.104-47.271-105.375-105.375-105.375s-105.375 47.271-105.375 105.375c0 41.966 24.66 78.28 60.25 95.215v83.393c-4.73-1.688-9.822-2.607-15.125-2.607-24.882 0-45.125 20.243-45.125 45.125v67.646c0 31.479 12.259 61.075 34.519 83.335l34.519 34.518h226.358l19.208-38.417c10.891-21.781 16.646-46.164 16.646-70.514v-100.944c0-24.882-20.243-45.125-45.125-45.125zm-256.125-151.625c0-41.562 33.814-75.375 75.375-75.375s75.375 33.813 75.375 75.375c0 24.648-11.9 46.557-30.25 60.313v-60.313c0-24.882-20.243-45.125-45.125-45.125s-45.125 20.243-45.125 45.125v60.308c-18.348-13.758-30.25-35.662-30.25-60.308zm271.25 297.694c0 19.717-4.661 39.461-13.479 57.098l-10.916 21.833h-195.392l-25.731-25.731c-16.593-16.594-25.731-38.655-25.731-62.122v-67.647c0-8.34 6.785-15.125 15.125-15.125s15.125 6.785 15.125 15.125v60.25h30v-281.375c0-8.34 6.785-15.125 15.125-15.125s15.125 6.785 15.125 15.125v221.125h30v-84.625c0-8.34 6.785-15.125 15.125-15.125s15.125 6.785 15.125 15.125v30.125 54.5h30v-54.5c0-8.34 6.785-15.125 15.125-15.125s15.125 6.785 15.125 15.125v30.125 24.375h30v-24.375c0-8.34 6.785-15.125 15.125-15.125s15.125 6.785 15.125 15.125v100.944z"/></g></svg>