<svg id="Capa_1" enable-background="new 0 0 510 510" height="512" viewBox="0 0 510 510" width="512" xmlns="http://www.w3.org/2000/svg"><g><path d="m510 180h-60v-120c-13.078 0-439.599 0-450 0v150h60v90h-60v150h450v-120h60zm-259.212-90-7.5 30h-36.576l-7.5-30zm-220.788 90v-90h138.288l15 60h83.424l15-60h138.288v90c-27.695 0-373.588 0-390 0zm280.788 30-7.5 30h-36.576l-7.5-30zm109.212 210h-390v-90h138.288l15 60h83.424l15-60h138.288zm-220.788-90h51.576l-7.5 30h-36.576zm280.788-30c-10.836 0-379.184 0-390 0v-90h138.288l15 60h83.424l15-60h138.288z"/></g></svg>