<svg id="Capa_1" enable-background="new 0 0 512.355 512.355" height="512" viewBox="0 0 512.355 512.355" width="512" xmlns="http://www.w3.org/2000/svg"><g><path d="m497.185.027c-141.028-1.865-274.435 93.251-319.761 226.467-42.976 11.071-78.886 46.064-91.255 88.593-47.886 5.473-86.918 49.8-85.983 98.197-.001 54.628 44.443 99.072 99.072 99.072h223.855c54.628 0 99.072-44.443 99.072-99.072 0-25.886-9.894-50.299-27.873-68.867-2.854-58.586 44.024-108.569 102.873-108.397h15v-235.993zm-182.203 89.439c49.099-35.931 106.627-56.21 167.204-59.085v38.723c-98.926 4.367-191.911 68.561-231.537 159.06-12.683-4.025-25.995-6.129-39.46-6.13 21.56-52.88 57.142-98.428 103.793-132.568zm-20.796 162.37c-5.111-4.218-10.52-8.019-16.17-11.385 34.999-79.897 116.846-136.834 204.169-141.293v38.762c-78.153 5.795-145.39 56.487-173.086 128.398-4.565-5.191-9.538-10.047-14.913-14.482zm28.927 230.519h-223.855c-60.853.144-92.073-74.464-49.165-117.575 12.824-12.99 29.934-20.285 48.175-20.541l12.066-.17c17.774-122.446 183.965-122.375 201.702 0l12.066.17c18.242.256 35.351 7.551 48.176 20.541 42.909 43.105 11.682 117.731-49.165 117.575zm42.081-158.773c-9.119-4.281-18.871-7.166-28.992-8.495-1.627-5.427-3.629-10.727-5.943-15.881 17.012-71.993 78.626-124.802 151.927-131.197v38.85c-61.203 6.908-109.944 55.562-116.992 116.723z"/></g></svg>