<svg id="Capa_1" enable-background="new 0 0 512.145 512.145" height="512" viewBox="0 0 512.145 512.145" width="512" xmlns="http://www.w3.org/2000/svg"><g><path d="m366.198 116.412c22.923-9.496 33.848-35.872 24.354-58.796-4.6-11.105-13.25-19.754-24.354-24.354s-23.336-4.6-34.441 0l-114.476 47.417c2.544-12.671 1.494-26.2-3.812-39.011-14.244-34.385-53.807-50.771-88.194-36.531-34.386 14.243-50.773 53.807-36.53 88.194 5.463 13.188 14.653 23.721 25.843 30.901-14.459 9.269-24.537 24.539-27.097 41.808-.557 3.758-1.382 7.561-2.449 12.113l-1.572 6.708-13.143-8.653c-20.451-13.463-48.33-8.325-62.148 11.458-7.024 10.057-9.622 22.222-7.314 34.255 2.308 12.036 9.215 22.376 19.449 29.113l24.596 16.195c22.057 14.519 49.87 17.352 74.412 7.574.341-.137.679-.273 1.002-.407 10.434-4.322 19.784-10.803 27.489-18.866l15.068 36.378-16.289 25.082c-17.711 27.272-27.072 58.877-27.072 91.396v103.601h90v-103.602c0-15.078 4.341-29.732 12.553-42.378l13.617-20.969 69.218 167.106 83.149-34.441-130.937-316.11zm-229.442-83.558c4.678-1.937 9.528-2.855 14.302-2.855 14.722 0 28.719 8.725 34.694 23.15 7.913 19.104-1.191 41.083-20.294 48.996-19.103 7.914-41.083-1.19-48.996-20.295-7.914-19.103 1.19-41.083 20.294-48.996zm.04 185.218c-5.004 12.896-15.193 23.322-27.97 28.614l-.621.252c-15.431 6.15-32.927 4.366-46.8-4.767l-24.596-16.194c-3.411-2.246-5.714-5.693-6.483-9.706-.769-4.01.1-8.068 2.446-11.428 4.601-6.588 14.046-8.193 21.056-3.579l24.072 15.849c5.78 3.806 12.781 4.518 19.204 1.954 6.425-2.562 11.013-7.893 12.588-14.62l4.558-19.449c1.071-4.57 2.165-9.497 2.916-14.56 1.564-10.553 8.367-19.284 18.198-23.355l207.874-86.104c3.702-1.535 7.778-1.532 11.48-.001 3.702 1.533 6.584 4.417 8.118 8.118 3.165 7.642-.477 16.434-8.118 19.599l-136.795 56.662 29.552 71.346-71.078 29.441-26.07-62.938zm184.346 254.876-79.558-192.069-44.673 68.79c-11.378 17.521-17.392 37.826-17.392 58.717v73.601h-30v-73.601c0-26.705 7.688-52.659 22.232-75.056l24.885-38.32-8.76-21.148 71.078-29.441 89.904 217.048z"/><path d="m512.102 191.256-68.597-9.967-30.678-62.16-30.677 62.16-68.597 9.967 49.637 48.385-11.718 68.319 61.355-32.256 61.355 32.256-11.718-68.319zm-77.763 61.865-21.512-11.309-21.511 11.309 4.108-23.952-17.403-16.965 24.05-3.494 10.755-21.793 10.756 21.793 24.05 3.494-17.403 16.965z"/></g></svg>