<?xml version="1.0" encoding="iso-8859-1"?>
<!-- Generator: Adobe Illustrator 19.0.0, SVG Export Plug-In . SVG Version: 6.00 Build 0)  -->
<svg version="1.1" id="Layer_1" xmlns="http://www.w3.org/2000/svg" xmlns:xlink="http://www.w3.org/1999/xlink" x="0px" y="0px"
	 viewBox="0 0 512 512" style="enable-background:new 0 0 512 512;" xml:space="preserve">
<g>
	<g>
		<path d="M495.889,166.711l-5.859-15.716l-14.953,7.559c-11.815,5.972-26.259,1.648-32.884-9.845
			c-6.617-11.479-3.145-26.162,7.905-33.427l13.996-9.202l-10.665-12.926c-19.988-24.226-43.945-44.37-71.206-59.873l-14.573-8.288
			l-6.615,15.422c-5.22,12.17-19.056,18.151-31.502,13.615c-12.446-4.537-19.208-18.027-15.395-30.711l4.833-16.077l-16.488-3.03
			c-30.55-5.615-62.419-5.615-92.969,0l-16.488,3.03l4.833,16.077c3.813,12.684-2.95,26.174-15.395,30.711
			c-12.444,4.536-26.282-1.444-31.502-13.615l-6.615-15.422l-14.573,8.288c-27.261,15.503-51.218,35.647-71.206,59.873
			l-10.665,12.927l13.996,9.202c11.051,7.265,14.522,21.948,7.905,33.427c-6.625,11.494-21.069,15.818-32.883,9.845l-14.953-7.56
			l-5.859,15.716C5.42,195.386,0,225.553,0,256.374c0,0.459,0.007,0.916,0.015,1.373l0.135,17.451l16.623-1.95
			c13.121-1.537,25.199,7.473,27.496,20.519c2.3,13.068-5.989,25.68-18.87,28.711l-16.308,3.837l5.602,15.811
			c10.472,29.557,26.134,56.688,46.551,80.637L72.1,435.498l11.467-12.186c9.062-9.63,24.1-10.501,34.235-1.985
			c10.142,8.524,11.891,23.514,3.981,34.127l-10.004,13.422l14.407,8.506c27.058,15.974,56.47,26.695,87.418,31.864L230.095,512
			l0.952-16.717c0.753-13.222,11.713-23.579,24.953-23.579s24.2,10.357,24.953,23.578L281.905,512l16.493-2.755
			c30.948-5.169,60.36-15.889,87.418-31.864l14.407-8.506l-10.004-13.422c-7.91-10.613-6.161-25.603,3.982-34.127
			c10.133-8.518,25.171-7.645,34.234,1.985l11.467,12.186l10.856-12.735c20.418-23.95,36.08-51.08,46.551-80.637l5.602-15.811
			l-16.308-3.837c-12.882-3.031-21.17-15.643-18.87-28.711c2.297-13.047,14.374-22.059,27.496-20.519l16.621,1.952l0.125-16.76
			l0.01-0.691c0.008-0.458,0.015-0.915,0.015-1.374C512,225.552,506.58,195.385,495.889,166.711z M438.188,288.548
			c-4.039,22.942,6.767,45.248,25.707,56.716c-7.116,16.696-16.194,32.413-27.126,46.965c-19.384-10.666-44.059-8.875-61.854,6.081
			c-17.812,14.969-23.853,39.008-16.71,59.985c-16.188,8.244-33.228,14.455-50.906,18.557
			c-7.991-20.666-28.049-35.194-51.299-35.194s-43.307,14.528-51.299,35.194c-17.678-4.101-34.718-10.313-50.906-18.557
			c7.142-20.977,1.101-45.017-16.714-59.986c-17.797-14.957-42.473-16.747-61.854-6.081c-10.932-14.551-20.01-30.268-27.126-46.965
			c18.94-11.468,29.746-33.773,25.707-56.716c-4.034-22.916-21.787-40.173-43.483-44.478c0.972-18.207,4.106-36.096,9.361-53.44
			c21.869,3.406,44.466-6.722,56.097-26.898c11.617-20.153,9.093-44.8-4.761-62.064c12.408-13.279,26.294-24.956,41.488-34.89
			c14.568,16.676,38.368,23.45,60.214,15.486c21.844-7.962,35.727-28.469,36.188-50.618c17.963-2.152,36.21-2.152,54.173,0
			c0.461,22.149,14.345,42.656,36.188,50.618c21.845,7.965,45.645,1.189,60.213-15.486c15.196,9.934,29.08,21.61,41.488,34.89
			c-13.854,17.264-16.379,41.911-4.761,62.064c10.143,17.595,28.619,27.55,47.684,27.549c2.8,0,5.614-0.214,8.414-0.651
			c5.254,17.345,8.388,35.233,9.36,53.441C459.977,248.376,442.222,265.634,438.188,288.548z"/>
	</g>
</g>
<g>
	<g>
		<path d="M256,111.15c-79.953,0-145,65.147-145,145.223s65.047,145.223,145,145.223s145-65.147,145-145.223
			S335.953,111.15,256,111.15z M256,371.55c-63.411,0-115-51.667-115-115.176s51.589-115.177,115-115.177s115,51.667,115,115.176
			C371,319.882,319.411,371.55,256,371.55z"/>
	</g>
</g>
<g>
</g>
<g>
</g>
<g>
</g>
<g>
</g>
<g>
</g>
<g>
</g>
<g>
</g>
<g>
</g>
<g>
</g>
<g>
</g>
<g>
</g>
<g>
</g>
<g>
</g>
<g>
</g>
<g>
</g>
</svg>
