<svg id="Capa_1" enable-background="new 0 0 512 512" height="512" viewBox="0 0 512 512" width="512" xmlns="http://www.w3.org/2000/svg"><g><g><path d="m512 164.75c0-41.355-33.645-75-75-75h-76v-15.5c0-24.813-20.187-45-45-45h-120c-24.813 0-45 20.187-45 45v15.5h-76c-41.355 0-75 33.645-75 75v288h90v30h30v-30h272v30h30v-30h90zm-331-90.5c0-8.271 6.729-15 15-15h120c8.271 0 15 6.729 15 15v15.5h-150zm-106 45.5h362c24.813 0 45 20.187 45 45v91.5h-105.084c-7.416-60.132-58.811-106.841-120.916-106.841s-113.5 46.709-120.916 106.841h-105.084v-91.5c0-24.813 20.187-45 45-45zm60.084 166.5c7.416 60.132 58.812 106.84 120.916 106.84s113.5-46.708 120.916-106.84h45.084v136.5h-332v-136.5zm29.076-15c0-50.642 41.199-91.841 91.84-91.841s91.84 41.199 91.84 91.841c0 50.641-41.199 91.84-91.84 91.84s-91.84-41.199-91.84-91.84zm-134.16 15h30v136.5h-30zm422 136.5v-136.5h30v136.5z"/></g><g><path d="m241.056 331.25h30v-45h45v-30h-45v-45h-30v45h-45v30h45z"/></g></g></svg>