<svg id="Capa_1" enable-background="new 0 0 512 512" height="512" viewBox="0 0 512 512" width="512" xmlns="http://www.w3.org/2000/svg"><path d="m512 167.667h-93.62c12.126-14.496 19.441-33.146 19.441-53.479 0-26.885-16.77-51.653-41.728-61.634-18.106-7.24-44.716-7.592-63.351 7.944-16.773 13.985-24.56 42.412-9.416 62.438 11.21 14.822 30.2 14.787 41.547 14.812h.598v-30h-.609c-5.752-.003-15.405.006-17.608-2.907-4.466-5.904-1.08-16.481 4.699-21.301 7.545-6.289 21.731-7.637 33-3.13 13.678 5.469 22.867 19.044 22.867 33.778 0 29.487-23.99 53.478-53.479 53.479h-61.435l-36.906-41.962-36.908 41.962h-61.435c-29.488-.001-53.479-23.991-53.479-53.479 0-14.734 9.189-28.31 22.868-33.778 11.268-4.506 25.455-3.16 33 3.13 5.78 4.819 9.166 15.396 4.701 21.301-2.203 2.912-11.842 2.901-17.609 2.907h-.609v30h.598c11.361.023 30.337.011 41.547-14.812 15.143-20.025 7.357-48.452-9.417-62.438-18.633-15.536-45.244-15.185-63.35-7.944-24.959 9.98-41.729 34.749-41.729 61.634 0 20.332 7.315 38.983 19.441 53.479h-93.619v30h57.196c-4.773 8.483-7.509 18.259-7.509 28.666v59.334c0 10.407 2.736 20.183 7.509 28.666h-57.196v30h93.62c-12.126 14.496-19.441 33.146-19.441 53.479 0 26.885 16.77 51.653 41.728 61.634 7.492 2.996 16.437 4.812 25.673 4.812 13.086 0 26.754-3.647 37.678-12.756 16.773-13.985 24.56-42.412 9.416-62.438-11.21-14.822-30.212-14.838-41.547-14.812h-.598v30h.609c5.74.004 15.405-.006 17.608 2.907 4.466 5.904 1.08 16.481-4.699 21.301-7.546 6.289-21.732 7.636-33 3.13-13.678-5.469-22.867-19.044-22.867-33.778 0-29.487 23.99-53.478 53.479-53.479h61.435l36.906 41.962 36.908-41.962h61.435c29.488.001 53.479 23.991 53.479 53.479 0 14.734-9.189 28.31-22.868 33.778-11.269 4.505-25.455 3.16-33-3.13-5.78-4.819-9.166-15.396-4.701-21.301 2.204-2.912 11.851-2.904 17.609-2.907h.609v-30h-.598c-11.357-.028-30.337-.011-41.547 14.812-15.143 20.025-7.357 48.452 9.417 62.438 10.925 9.109 24.59 12.757 37.678 12.757 9.234-.001 18.182-1.817 25.672-4.812 24.959-9.98 41.729-34.749 41.729-61.634 0-20.332-7.315-38.983-19.441-53.479h93.619v-30h-57.196c4.773-8.483 7.509-18.259 7.509-28.666v-59.334c0-10.407-2.736-20.183-7.509-28.666h57.196zm-279.342 30 23.342-26.538 23.342 26.538h17.811v10.458c0 18.127-14.748 32.875-32.875 32.875h-16.555c-18.127 0-32.875-14.748-32.875-32.875v-10.458zm-152.97 28.666c0-15.807 12.86-28.666 28.667-28.666h14.667v14.666c0 15.807-12.86 28.667-28.667 28.667h-14.667zm0 59.334v-14.667h14.667c15.807 0 28.667 12.86 28.667 28.667v14.666h-14.667c-15.808 0-28.667-12.86-28.667-28.666zm73.333 28.666v-14.666c0-17.327-7.556-32.918-19.54-43.667 11.984-10.749 19.54-26.34 19.54-43.667v-14.666h31.827v10.458c0 19.159 8.624 36.333 22.183 47.875-13.559 11.542-22.183 28.716-22.183 47.875v10.458zm126.321 0-23.342 26.538-23.342-26.538h-17.811v-10.458c0-18.127 14.748-32.875 32.875-32.875h16.555c18.127 0 32.875 14.748 32.875 32.875v10.458zm47.81 0v-10.458c0-19.159-8.624-36.333-22.183-47.875 13.559-11.542 22.183-28.716 22.183-47.875v-10.458h31.827v14.666c0 17.327 7.556 32.918 19.54 43.667-11.984 10.749-19.54 26.34-19.54 43.667v14.666zm105.16-28.666c0 15.807-12.86 28.666-28.667 28.666h-14.667v-14.666c0-15.807 12.86-28.667 28.667-28.667h14.667zm0-59.334v14.667h-14.667c-15.807 0-28.667-12.86-28.667-28.667v-14.666h14.667c15.808 0 28.667 12.859 28.667 28.666z"/></svg>