<svg id="Capa_1" enable-background="new 0 0 510 510" height="512" viewBox="0 0 510 510" width="512" xmlns="http://www.w3.org/2000/svg"><g><path d="m434.255 137.458c-7.994-66.851-76.752-109.546-140.7-85.939-21.656-31.185-57.86-51.519-98.555-51.519-72.664 0-129.315 64.604-118.75 137.339-43.616 9.667-76.25 48.587-76.25 95.161 0 53.762 43.738 97.5 97.5 97.5h315c53.762 0 97.5-43.738 97.5-97.5 0-45.77-31.793-85.023-75.745-95.042zm-21.755 162.542h-315c-37.22 0-67.5-30.28-67.5-67.5 0-36.456 28.524-66.075 64.938-67.432l19.355-.721-5.54-18.559c-17.225-57.702 26.164-115.788 86.247-115.788 49.604 0 90 40.367 90 90h30c0-14.608-2.627-28.613-7.429-41.572 48.486-15.142 97.384 21.26 97.429 71.508l-.061 14.123 13.71 1.235c34.976 3.151 61.351 32.044 61.351 67.206 0 37.22-30.28 67.5-67.5 67.5z"/><path d="m157.5 429.51-16.471 9.51v-19.02h-30v19.02l-16.471-9.51-15 25.98 16.471 9.51-16.471 9.51 15 25.98 16.471-9.51v19.02h30v-19.02l16.471 9.51 15-25.98-16.471-9.51 16.471-9.51z"/><path d="m286.471 429.51-16.471 9.51v-19.02h-30v19.02l-16.471-9.51-15 25.98 16.471 9.51-16.471 9.51 15 25.98 16.471-9.51v19.02h30v-19.02l16.471 9.51 15-25.98-16.471-9.51 16.471-9.51z"/><path d="m415.442 429.51-16.471 9.51v-19.02h-30v19.02l-16.471-9.51-15 25.98 16.471 9.51-16.471 9.51 15 25.98 16.471-9.51v19.02h30v-19.02l16.471 9.51 15-25.98-16.471-9.51 16.471-9.51z"/><path d="m90 360h30v30h-30z"/><path d="m150 360h30v30h-30z"/><path d="m210 360h30v30h-30z"/><path d="m270 360h30v30h-30z"/><path d="m330 360h30v30h-30z"/><path d="m390 360h30v30h-30z"/></g></svg>