<svg id="Capa_1" enable-background="new 0 0 512 512" height="512" viewBox="0 0 512 512" width="512" xmlns="http://www.w3.org/2000/svg"><g><path d="m329.493 60c-6.969-34.191-37.274-60-73.493-60s-66.524 25.809-73.493 60c-13.593 0-109.562 0-121.507 0v452h390v-452c-10.805 0-109.819 0-121.507 0zm-118.493 30v-15c0-24.813 20.187-45 45-45s45 20.187 45 45v15h60v30h-210v-30zm-60 60h210v270h-210zm270 332h-330v-392h30v360h270c0-16.373 0-344.176 0-360h30z"/><path d="m241 60h30v30h-30z"/><path d="m241 270h30v-30h30v-30h-30v-30h-30v30h-30v30h30z"/><path d="m181 300h150v30h-150z"/><path d="m181 360h150v30h-150z"/></g></svg>