<svg id="Capa_1" enable-background="new 0 0 511.938 511.938" height="512" viewBox="0 0 511.938 511.938" width="512" xmlns="http://www.w3.org/2000/svg"><g><path d="m406.938 206.167h-32.672l-192.026-109.307c-3.715-2.115-8.204-2.653-12.315-1.482-4.111 1.175-7.638 4.006-9.676 7.769l-8.519 15.736c-5.917 10.93-9.043 23.276-9.043 35.704v.816c0 20.021-14.602 37.184-33.971 39.922-1.676.237-3.238.366-4.771.392-21.469.315-39.075-16.147-40.055-37.576l-.655-14.314h-18.235c-24.813 0-45 20.187-45 45v183.341c0 24.813 20.187 45 45 45h421.938c24.813 0 45-20.187 45-45v-61c0-57.899-47.104-105.001-105-105.001zm-376.938-17.341c0-5.231 2.692-9.847 6.764-12.531 3.456 11.547 9.9 22.047 18.884 30.52 13.245 12.49 30.576 19.215 48.802 18.898 2.75-.047 5.602-.277 8.472-.684 34.072-4.818 59.766-34.751 59.766-69.626v-.816c0-7.457 1.876-14.865 5.426-21.423l1.71-3.159 66.339 37.762-18.556 42.167 27.459 12.084 17.308-39.331 26.548 15.112-15.615 35.483 27.459 12.084 14.367-32.647 41.193 23.448h40.612c37.207 0 68.159 27.239 73.996 62.821-16.905 3.891-31.854 13.859-41.966 28.179h-217.968l-26.786-15.654c-16.058-9.385-34.378-14.346-52.979-14.346h-111.235zm451.938 183.341c0 8.271-6.729 15-15 15h-421.938c-8.271 0-15-6.729-15-15v-45h111.234c13.287 0 26.372 3.543 37.842 10.246l33.799 19.754h243.524l4.215-8.022c4.684-8.915 12.307-15.608 21.323-19.147v42.169z"/></g></svg>