<svg id="Capa_1" enable-background="new 0 0 512 512" height="512" viewBox="0 0 512 512" width="512" xmlns="http://www.w3.org/2000/svg"><g><path d="m434.47 273.69c27.207-12.276 34.933-46.922 16.317-69.59 5.136-111.703-84.318-204.1-194.783-204.1-110.523 0-199.916 92.455-194.783 204.1-18.644 22.702-10.842 57.333 16.317 69.59 30.555 69.292 99.606 116.31 178.466 116.31 78.955 0 147.951-47.108 178.466-116.31zm-7.277-51.041c5.504 6.166 4.973 15.66-1.189 21.171-6.157 5.507-15.641 5.012-21.169-1.167-2.965-3.499-7.028-17.401-10.294-34.009 16.138 5.088 29.498 10.669 32.652 14.005zm-341.189 21.171c-6.162-5.511-6.693-15.005-1.189-21.171 3.154-3.336 16.515-8.917 32.652-14.006-3.265 16.608-7.325 30.506-10.282 33.996-5.535 6.187-15.014 6.698-21.181 1.181zm25.559 31.065c6.834-2.507 12.992-6.667 17.983-12.246 16.89-18.883 22.791-85.738 24.054-94.393-17.993 4.345-40.184 9.226-62.347 17.755 4.689-86.813 76.789-156.001 164.751-156.001s160.062 69.188 164.752 156.001c-22.048-8.485-44.088-13.345-62.347-17.755 1.618 11.084 7.367 75.738 24.054 94.393 4.99 5.579 11.148 9.739 17.983 12.246-28.798 52.301-83.497 85.115-144.442 85.115s-115.644-32.814-144.441-85.115z"/><path d="m450.409 421.916c-19.967-20.582-46.392-31.916-74.405-31.916h-120-120c-28.013 0-54.438 11.334-74.405 31.916-37.638 38.793-29.523 83.205-30.595 90.084h450c-1.07-6.873 6.985-51.352-30.595-90.084zm-387.909 60.084c7.018-34.851 37.833-62 73.504-62h240c35.672 0 66.487 27.149 73.504 62z"/><path d="m196.004 150c8.271 0 15 6.729 15 15h30c0-24.813-20.187-45-45-45s-45 20.187-45 45h30c0-8.271 6.729-15 15-15z"/><path d="m316.004 120c-24.813 0-45 20.187-45 45h30c0-8.271 6.729-15 15-15s15 6.729 15 15h30c0-24.813-20.187-45-45-45z"/><path d="m203.098 307.908c13.94 14.249 32.72 22.092 52.906 22.092s38.966-7.843 52.906-22.092c28.082-27.468 21.037-60.634 22.094-67.908h-150c1.038 7.14-6.005 40.423 22.094 67.908zm95.361-37.908c-5.371 15.153-21.113 30-42.455 30-20.936 0-36.934-14.423-42.455-30z"/></g></svg>