<svg id="Capa_1" enable-background="new 0 0 511.996 511.996" height="512" viewBox="0 0 511.996 511.996" width="512" xmlns="http://www.w3.org/2000/svg"><g><path d="m355.608 190.626c-10.227 0-19.713 3.212-27.522 8.667-8.778-11.953-22.923-19.73-38.856-19.73-6.964 0-13.582 1.497-19.565 4.167l-4.245-12.29 33.458-82.514c4.836-11.929 4.739-25.026-.276-36.882-5.015-11.854-14.346-21.047-26.274-25.883-18.891-7.66-39.851-2.424-53.1 11.543l-1.811-5.243c-8.675-25.116-36.168-38.494-61.281-29.816-12.167 4.202-21.969 12.891-27.6 24.466-5.631 11.574-6.418 24.648-2.216 36.815l36.199 104.803-33.341 82.227c-12.593 7.971-20.978 22.015-20.978 37.989v75.251c0 81.496 66.302 147.799 147.799 147.799s147.799-66.303 147.799-147.799v-125.381c-.001-26.572-21.619-48.189-48.19-48.189zm-66.378 18.936c10.029 0 18.189 8.16 18.189 18.189v99.567c0 10.029-8.16 18.188-18.189 18.188-10.03 0-18.189-8.159-18.189-18.188v-99.567c-.001-10.029 8.159-18.189 18.189-18.189zm-51.866-145.579c3.77-9.294 14.398-13.79 23.691-10.021 4.502 1.825 8.024 5.294 9.917 9.769s1.93 9.419.104 13.921l-20.547 50.674-18.057-52.278zm-81.852-23.747c2.125-4.369 5.825-7.648 10.417-9.234 9.48-3.279 19.856 1.773 23.131 11.254l56.812 164.481c-3.093 6.355-4.832 13.485-4.832 21.015v16.257h-20.781l-65.583-189.877c-1.587-4.592-1.29-9.528.836-13.896zm33.008 203.772h-24.152l13.042-32.166zm52.521 237.042c-57.917-7.372-102.842-56.966-102.842-116.854v-75.251c0-8.236 6.701-14.938 14.938-14.938h87.904v3.69c-.01 24.736-20.137 44.857-44.875 44.857h-25.352v21.696l51.358 57.843c12.168 13.705 18.87 31.346 18.87 49.673v29.284zm30-.01v-29.272c0-25.676-9.389-50.39-26.436-69.591l-28.655-32.273c9.582-2.628 18.395-7.127 26.04-13.063 4.433 22.026 23.928 38.667 47.241 38.667 15.616 0 29.515-7.472 38.326-19.023 7.908 5.683 17.592 9.043 28.052 9.043 6.434 0 12.573-1.277 18.189-3.575v2.244c-.001 59.86-44.878 109.435-102.757 116.843zm102.756-163.7c0 10.029-8.16 18.188-18.189 18.188s-18.189-8.159-18.189-18.188v-78.524c0-10.029 8.16-18.189 18.189-18.189s18.189 8.16 18.189 18.189z"/></g></svg>