<svg id="Capa_1" enable-background="new 0 0 512 512" height="512" viewBox="0 0 512 512" width="512" xmlns="http://www.w3.org/2000/svg"><path d="m485.515 166.479c-14.369-22.203-37.718-37.005-64.062-40.61-26.669-3.65-53.53 4.484-73.689 22.321-10.512 9.312-16.619 22.719-16.872 36.899-14.049 1.575-30.516-11.549-29.767-27.625v-157.464h-30v165.625c0 25.521-15.614 42.287-30.25 52.397v-218.022h-30v157.464c.352 15.311-13.62 28.763-29.767 27.625-.252-14.181-6.36-27.588-16.877-36.904-20.153-17.833-47.01-25.968-73.683-22.316-26.344 3.605-49.693 18.407-64.062 40.61-17.328 26.773-26.486 57.852-26.486 89.876 0 30.947 8.594 61.137 24.854 87.304 14.163 22.793 37.516 38.196 64.07 42.262 25.399 4.128 54.606-3.817 74.673-21.829 10.753-9.173 17.024-22.702 17.245-37.15 14.108-1.739 30.798 11.413 30.032 27.595v157.463h30v-157.464c0-23.674 10.171-43.12 30.25-57.904v57.904 157.464h30v-157.464c-.355-15.413 13.784-28.901 30.032-27.595.221 14.449 6.492 27.977 17.184 37.099 20.186 17.787 47.742 25.986 74.734 21.881 26.555-4.065 49.907-19.469 64.07-42.262 16.262-26.167 24.856-56.356 24.856-87.304 0-32.024-9.158-63.103-26.485-89.876zm-156.783 48.676c3.539 0 7.082-.348 10.59-1.01 5.154 7.83 14.4 15.951 24.481 19.803-.763 2.287-1.358 4.644-1.781 7.052-19.736-.332-42.272 2.744-60.898 8.369v-41.33c8.619 4.725 18.092 7.116 27.608 7.116zm-145.464 0c9.514 0 18.99-2.392 27.607-7.116v24.672c-18.036 6.44-40.984 8.947-60.898 8.288-.423-2.408-1.018-4.765-1.78-7.053 8.924-3.427 18.322-10.618 24.481-19.802 3.507.663 7.05 1.011 10.59 1.011zm-39.203 126.166c-12.914 11.636-32.596 17.888-50.602 14.945-17.878-2.737-33.598-13.104-43.128-28.441-13.303-21.409-20.335-46.123-20.335-71.47 0-26.228 7.494-51.671 21.671-73.578 9.616-14.858 25.268-24.768 42.944-27.187 16.297-2.485 36.57 3.001 49.729 15.056 17.199 15.622-1.368 43.598-21.525 34.768l-12.869 27.1.141.067c.016.007.03.014.045.021 6.957 3.329 11.092 10.585 10.543 18.519l-.012.187c-.251 4.444-.171 6.774-.058 8.96.874 7.139-3.046 16.35-10.641 19.742l12.755 27.153c21.095-8.9 37.814 19.424 21.342 34.158zm28.138-43.388c-4.869-7.29-14.332-15.613-24.067-19.248.835-2.486 1.463-5.057 1.897-7.685 19.648.536 41.569-1.34 60.842-6.882v39.839c-11.967-6.561-25.591-8.606-38.672-6.024zm89.324-31.026c-7.751 4.862-14.635 10.25-20.652 16.112v-30.329c9.759-4.747 21.489-12.328 30.25-20.539v29.274c-3.313 1.732-6.525 3.554-9.598 5.482zm39.598 37.05v-23.031c17.506-6.516 40.096-10.253 60.842-9.925.434 2.627 1.062 5.198 1.897 7.684-8.887 3.519-17.611 10.011-24.068 19.25-13.081-2.583-26.704-.539-38.671 6.022zm160.54 23.868c-9.531 15.338-25.25 25.704-43.128 28.441-17.525 2.819-37.056-2.823-50.662-14.997-16.576-15.046.429-42.851 21.401-34.107l12.735-27.162c-6.511-2.987-11.637-11.226-10.622-19.733.113-2.186.194-4.516-.058-8.96l-.012-.187c-.548-7.934 3.587-15.189 10.543-18.519.016-.007.03-.014.045-.021l.141-.067-12.869-27.1c-20.965 9.13-38.109-19.775-21.531-34.763 13.602-12.035 31.727-17.52 49.735-15.061 17.676 2.419 33.328 12.328 42.944 27.187 14.179 21.909 21.673 47.352 21.673 73.579 0 25.347-7.032 50.061-20.335 71.47z"/></svg>