<svg id="Capa_1" enable-background="new 0 0 512 512" height="512" viewBox="0 0 512 512" width="512" xmlns="http://www.w3.org/2000/svg"><g><path d="m369.292 84.658-32.562 65.125h-5.73v-60h-30v150h30v-60h5.729l32.562 65.125 26.833-13.417-33.354-66.708 33.354-66.708z"/><path d="m226 89.783h-45v150h45c24.813 0 45-20.187 45-45v-60c0-24.813-20.187-45-45-45zm15 105c0 8.271-6.729 15-15 15h-15v-90h15c8.271 0 15 6.729 15 15z"/><path d="m121 89.783h30v150h-30z"/><circle cx="196" cy="284.783" r="15"/><circle cx="256" cy="284.783" r="15"/><circle cx="316" cy="284.783" r="15"/><path d="m347 29.783h-182c-90.981 0-165 74.019-165 165s74.019 165 165 165h50.188l40.812 122.434 40.812-122.434h50.188c90.981 0 165-74.019 165-165s-74.019-165-165-165zm0 300h-71.812l-19.188 57.566-19.188-57.566h-71.812c-74.439 0-135-60.561-135-135s60.561-135 135-135h182c74.439 0 135 60.561 135 135s-60.561 135-135 135z"/></g></svg>