<svg id="Capa_1" enable-background="new 0 0 512 512" height="512" viewBox="0 0 512 512" width="512" xmlns="http://www.w3.org/2000/svg"><g><path d="m512 209.719v-88.028h-512v88.028c0 39.451 21.981 75.509 56.55 93.752l20.791 56.66 69.159-25.377v55.555h124v-22.067l81 13.659 7.371-43.708 6.001 19.755 118.647-36.039-9.414-30.991c23.858-20.045 37.895-49.83 37.895-81.199zm-416.83 111.914-12.4-33.797c-2.944-8.024-2.588-16.715 1.004-24.471 3.592-7.757 9.989-13.649 18.014-16.594 16.567-6.077 34.987 2.455 41.065 19.018l5.287 14.409c-1.06 4.536-1.639 9.256-1.639 14.111v8.489zm81.33-27.324c0-17.645 14.355-32 32-32s32 14.355 32 32v.122l-11.109 65.878h-52.891zm161.381-12.06-10.975 65.082-63.108-10.643 10.975-65.082c1.421-8.429 6.04-15.799 13.005-20.754s15.441-6.896 23.871-5.479c8.428 1.422 15.798 6.04 20.753 13.005 4.954 6.964 6.901 15.442 5.479 23.871zm46.976 38.275-10.463-34.445c-5.128-16.884 4.435-34.791 21.317-39.92 3.089-.938 6.21-1.385 9.284-1.385 13.723 0 26.446 8.909 30.636 22.702l10.463 34.446zm2.135-103.07c-12.997 3.948-23.743 11.814-31.366 21.902-9.57-12.577-23.331-20.924-38.99-23.565-16.331-2.755-32.755 1.018-46.25 10.616-8.393 5.971-15.024 13.754-19.503 22.712-11.096-10.413-26.002-16.81-42.383-16.81-15.67 0-29.991 5.855-40.918 15.478-14.271-26.969-46.706-39.975-76.129-29.179-15.547 5.705-27.942 17.122-34.902 32.15-1.905 4.114-3.323 8.366-4.286 12.688-13.988-14.01-22.265-33.23-22.265-53.727v-58.028h452v58.028c0 17.976-6.435 35.227-17.753 48.77-10.045-32.542-44.634-50.94-77.255-41.035z"/></g></svg>