<svg id="Capa_1" enable-background="new 0 0 509.606 509.606" height="512" viewBox="0 0 509.606 509.606" width="512" xmlns="http://www.w3.org/2000/svg"><g id="XMLID_248_"><path id="XMLID_265_" d="m364.629 141.438 95.455-95.463-21.215-21.213-95.454 95.462-21.139-21.14-42.739 42.114-20.979-20.979-190.918 190.92-21.213-21.213-21.213 21.213 63.64 63.64-35.82 35.819-31.82-31.819-21.214 21.213 84.853 84.853 21.213-21.213-31.82-31.82 35.82-35.819 63.64 63.64 21.213-21.213-21.213-21.213 190.919-190.919-21.213-21.213 42.426-42.427zm-275.776 190.914 97.587-97.587 87.505 39.775-36.599 36.599-21.213-21.213-21.213 21.213 21.213 21.213-21.214 21.214-21.213-21.213-21.213 21.213 21.213 21.213-21.213 21.214zm207.747-80.467-87.505-39.775 49.463-49.464 63.64 63.641zm25.598-68.024-21.447-21.448 21.369-21.057 21.291 21.291z"/><path id="XMLID_270_" d="m460.771 250.219-11.164-12.44-11.164 12.44c-.481.537-11.924 13.325-23.514 29.441-17.039 23.693-25.322 41.873-25.322 55.577 0 33.084 26.916 60 60 60s60-26.916 60-60c0-13.704-8.283-31.884-25.322-55.577-11.591-16.116-23.033-28.904-23.514-29.441zm-11.165 115.019c-16.542 0-30-13.458-30-30 0-9.561 14.098-31.892 30-51.774 15.903 19.885 30 42.214 30 51.774 0 16.542-13.458 30-30 30z"/><path id="XMLID_271_" d="m479.606 95.238h30v30h-30z"/><path id="XMLID_272_" d="m434.606 155.238h30v30h-30z"/></g></svg>