<svg id="Capa_1" enable-background="new 0 0 512 512" height="512" viewBox="0 0 512 512" width="512" xmlns="http://www.w3.org/2000/svg"><g><path d="m188.5 210h30v30h-30z"/><path d="m293.5 210h30v30h-30z"/><path d="m430.599 337.001-72.327-23.976c13.409-15.557 23.335-34.195 28.56-54.692h11.668c28.949 0 52.5-23.552 52.5-52.5 0-12.031-4.078-23.122-10.911-31.986 9.731-5.38 20.133-13.575 29.107-26.107l-24.392-17.467c-7.75 10.823-16.927 16.727-24.473 19.954-7.497-84.085-78.329-150.227-164.331-150.227s-156.834 66.142-164.331 150.227c-7.546-3.226-16.723-9.13-24.473-19.954l-24.392 17.467c8.974 12.532 19.375 20.727 29.107 26.107-6.833 8.864-10.911 19.955-10.911 31.986 0 28.948 23.552 52.5 52.5 52.5h11.668c5.225 20.498 15.152 39.135 28.56 54.692l-72.327 23.976c-30.745 10.191-51.401 38.801-51.401 71.19v103.809h452v-103.809c0-32.389-20.656-60.999-51.401-71.19zm-62.739-247.505c12.549 18.531 20.609 40.335 22.63 63.837h-14.49c-.378 0-31.689-.231-56.76-16.828.191-.121.388-.238.578-.359 20.594-13.136 36.659-28.774 48.042-46.65zm30.64 138.837h-7.542c.027-1.108.042-2.219.042-3.333v-41.667h7.5c12.407 0 22.5 10.094 22.5 22.5s-10.094 22.5-22.5 22.5zm-142.5-198.333c35.087 0 67.087 13.459 91.119 35.48-44.449 86.636-209.412 87.851-211.121 87.853h-14.488c5.935-68.997 63.981-123.333 134.49-123.333zm-142.5 198.333c-12.407 0-22.5-10.094-22.5-22.5s10.094-22.5 22.5-22.5h7.5v41.667c0 1.114.015 2.225.042 3.333zm37.5-45.508c18.45-1.017 51.707-4.071 87.656-13.241 18.84-4.806 36.094-10.725 51.631-17.675 23.153 20.921 53.017 27.916 70.713 30.252v42.839c0 57.897-47.103 105-105 105s-105-47.103-105-105zm43.734 299.175c-25.624-26.902-32.69-56.912-34.596-73.158 17.951-5.619 31.781-20.637 35.712-39.263 5.471 7.426 11.813 15.504 19.1 24.016 21.849 25.521 55.672 58.751 102.848 88.405zm-72.749-126.847 45-14.917v18.49c0 12.406-10.093 22.5-22.5 22.5s-22.5-10.094-22.5-22.5zm-61.985 53.038c0-19.434 12.394-36.6 30.84-42.714l1.529-.507c2.521 21.161 17.672 38.49 37.684 44.222 1.578 16.185 7.169 44.459 26.298 72.808h-96.351zm392 73.809h-71.658c-68.657-32.132-114.984-75.836-141.863-107.055-5.729-6.654-10.835-13.032-15.357-19.002 10.528 2.645 21.541 4.057 32.878 4.057 28.416 0 54.805-8.833 76.579-23.886l88.58 29.364c18.446 6.114 30.84 23.28 30.84 42.714v73.808z"/></g></svg>