<svg id="Layer_1" enable-background="new 0 0 510 510" height="512" viewBox="0 0 510 510" width="512" xmlns="http://www.w3.org/2000/svg"><g><path d="m362.444 0h-214.889l-147.555 147.556v214.889l147.555 147.555h214.889l147.556-147.556v-214.888zm117.556 350.018-129.981 129.982h-190.037l-129.982-129.982v-190.037l129.982-129.981h190.037l129.981 129.981z"/><path d="m60 255c0 107.523 87.477 195 195 195s195-87.477 195-195-87.477-195-195-195-195 87.477-195 195zm301.065-84.853 20.675-20.675c20.863 25.016 34.47 56.277 37.57 90.527h-29.31v30h29.31c-3.1 34.25-16.707 65.512-37.57 90.527l-20.675-20.675-21.213 21.213 20.675 20.675c-25.016 20.863-56.277 34.469-90.527 37.57v-29.309h-30v29.31c-34.251-3.101-65.512-16.707-90.527-37.57l20.674-20.675-21.213-21.213-20.674 20.675c-20.864-25.015-34.47-56.277-37.571-90.527h29.311v-30h-29.311c3.101-34.25 16.707-65.512 37.571-90.527l20.674 20.675 21.213-21.213-20.674-20.675c25.016-20.863 56.277-34.469 90.527-37.57v29.31h30v-29.311c34.25 3.102 65.512 16.707 90.527 37.57l-20.675 20.675z"/><path d="m270 180h-30v84.271l68.292 34.145 13.416-26.832-51.708-25.854z"/></g></svg>