<svg id="Layer_1" enable-background="new 0 0 508.926 508.926" height="512" viewBox="0 0 508.926 508.926" width="512" xmlns="http://www.w3.org/2000/svg"><path id="XMLID_1046_" d="m473.892 0-84.429 33.771v130.154h-30v-69.269l-30-15v-35.73h-30v35.731l-30 15v69.269h-30v-69.27l-30-15v-35.73h-30v35.731l-30 15v69.269h-30v-130.155l-84.429-33.771-11.142 27.854 65.571 26.229v334.844h30v32.58c-46.977 17.386-35.719 86.462 15.001 87.42 50.727-.962 61.97-70.043 14.999-87.42v-32.58h210v32.58c-46.977 17.386-35.719 86.462 15.001 87.42 50.727-.962 61.97-70.043 14.999-87.42v-32.58h30v-334.845l65.571-26.229zm-339.429 478.926c-8.271 0-15-6.729-15-15 .754-19.872 29.249-19.867 30 0 0 8.271-6.729 15-15 15zm240 0c-8.271 0-15-6.729-15-15 .754-19.872 29.249-19.867 30 0 0 8.271-6.729 15-15 15zm-75-365.729 15-7.5 15 7.5v50.728h-30zm-120 0 15-7.5 15 7.5v50.728h-30zm210 80.729v105h-75.041c9.438-12.543 15.041-28.129 15.041-45v-15h-150v15c0 16.871 5.603 32.457 15.041 45h-75.041v-105zm-177.43 75h84.859c-14.18 39.762-70.694 39.737-84.859 0zm-92.57 90v-30h270v30z"/></svg>