<?xml version="1.0" encoding="iso-8859-1"?>
<!-- Generator: Adobe Illustrator 19.0.0, SVG Export Plug-In . SVG Version: 6.00 Build 0)  -->
<svg xmlns="http://www.w3.org/2000/svg" xmlns:xlink="http://www.w3.org/1999/xlink" version="1.1" id="Layer_1" x="0px" y="0px" viewBox="0 0 512 512" style="enable-background:new 0 0 512 512;" xml:space="preserve">
<g>
	<g>
		<path d="M223.436,231.741L141.061,89.822V15.673h-31.347v74.148L27.34,231.741C9.709,262.114,0,300.415,0,339.592    c0,45.051,12.419,87.603,34.968,119.816C58.709,493.322,90.819,512,125.388,512s66.679-18.678,90.42-52.592    c22.549-32.213,34.968-74.766,34.968-119.816C250.775,300.415,241.066,262.114,223.436,231.741z M213.773,291.83h-36.14v-31.347    h25.373C207.476,270.269,211.09,280.8,213.773,291.83z M185.679,229.136h-44.618v-31.347h26.423L185.679,229.136z     M146.286,260.483v31.347H104.49v-31.347H146.286z M125.388,125.263l23.902,41.178h-47.804L125.388,125.263z M83.291,197.789    h26.423v31.347H65.096L83.291,197.789z M47.77,260.483h25.373v31.347h-36.14C39.686,280.8,43.3,270.269,47.77,260.483z     M47.03,417.217c-4.378-9.806-7.885-20.321-10.462-31.347h36.575v31.347H47.03z M109.714,478.655    c-15.931-4.093-30.938-14.395-43.686-30.091h43.686V478.655z M104.49,417.217V385.87h41.796v31.347H104.49z M141.061,478.655    v-30.091h43.686C172,464.261,156.992,474.562,141.061,478.655z M203.746,417.217h-26.113V385.87h36.575    C211.629,396.896,208.124,407.411,203.746,417.217z M218.902,354.523H31.874c-0.347-4.926-0.527-9.907-0.527-14.932    c0-5.51,0.241-10.986,0.672-16.415h186.737c0.432,5.429,0.673,10.906,0.673,16.415    C219.429,344.617,219.249,349.598,218.902,354.523z"/>
	</g>
</g>
<g>
	<g>
		<path d="M477.032,52.592C453.291,18.678,421.181,0,386.612,0s-66.679,18.678-90.42,52.592    c-22.549,32.213-34.968,74.766-34.968,119.816c0,39.176,9.709,77.478,27.34,107.851l82.375,141.919v74.148h31.347v-74.148    l82.375-141.919C502.291,249.886,512,211.585,512,172.408C512,127.357,499.581,84.805,477.032,52.592z M464.97,94.783    c4.378,9.806,7.885,20.321,10.462,31.347h-36.575V94.783H464.97z M402.286,33.345c15.931,4.093,30.938,14.395,43.686,30.091    h-43.686V33.345z M407.51,94.783v31.347h-41.796V94.783H407.51z M370.939,33.345v30.091h-43.686    C340,47.739,355.008,37.438,370.939,33.345z M308.254,94.783h26.113v31.347h-36.575    C300.371,115.104,303.876,104.589,308.254,94.783z M298.227,220.17h36.14v31.347h-25.373    C304.524,241.731,300.91,231.2,298.227,220.17z M326.321,282.864h44.618v31.347h-26.423L326.321,282.864z M365.714,251.517V220.17    h41.796v31.347H365.714z M386.612,386.737l-23.902-41.178h47.804L386.612,386.737z M428.709,314.211h-26.423v-31.347h44.618    L428.709,314.211z M464.23,251.517h-25.373V220.17h36.14C472.314,231.2,468.701,241.731,464.23,251.517z M479.981,188.824H293.243    c-0.43-5.429-0.672-10.906-0.672-16.415c0-5.025,0.18-10.006,0.527-14.932h187.028c0.347,4.926,0.527,9.907,0.527,14.932    C480.653,177.918,480.412,183.394,479.981,188.824z"/>
	</g>
</g>
<g>
</g>
<g>
</g>
<g>
</g>
<g>
</g>
<g>
</g>
<g>
</g>
<g>
</g>
<g>
</g>
<g>
</g>
<g>
</g>
<g>
</g>
<g>
</g>
<g>
</g>
<g>
</g>
<g>
</g>
</svg>
