<svg id="Capa_1" enable-background="new 0 0 510 510" height="512" viewBox="0 0 510 510" width="512" xmlns="http://www.w3.org/2000/svg"><g><path d="m217.5 360c28.949 0 52.5-23.552 52.5-52.5v-130.203l105-21v76.779c-6.824-3.251-14.452-5.076-22.5-5.076-28.949 0-52.5 23.552-52.5 52.5s23.551 52.5 52.5 52.5 52.5-23.552 52.5-52.5v-220.797l-165 33v167.373c-6.824-3.251-14.452-5.076-22.5-5.076-28.949 0-52.5 23.552-52.5 52.5s23.551 52.5 52.5 52.5zm135-57c-12.407 0-22.5-10.094-22.5-22.5s10.093-22.5 22.5-22.5 22.5 10.094 22.5 22.5-10.093 22.5-22.5 22.5zm22.5-206.703v29.406l-105 21v-29.406zm-157.5 188.703c12.407 0 22.5 10.094 22.5 22.5s-10.093 22.5-22.5 22.5-22.5-10.094-22.5-22.5 10.093-22.5 22.5-22.5z"/><path d="m465 420v-420h-360c-33.084 0-60 26.916-60 60v390c0 33.084 26.916 60 60 60h360v-30h-30v-60zm-30-30h-300v-360h300zm-360-330c0-16.542 13.458-30 30-30v360c-10.92 0-21.17 2.934-30 8.052zm330 420h-300c-16.542 0-30-13.458-30-30s13.458-30 30-30h300z"/></g></svg>