<svg id="Capa_1" enable-background="new 0 0 512 512" height="512" viewBox="0 0 512 512" width="512" xmlns="http://www.w3.org/2000/svg"><path d="m512 286.885v-110.886l-193.423 8.026-30.619-156.708c-137.259 19.183-237.71 118.838-237.71 118.838s-.318 47.95.005 49.004l-50.253 2.085v89.641h118.095c-48.509 30.903-60.714 48.725-67.847 57.068l.005 49.004-50.253 2.085v89.641h512v-110.886l-193.423 8.026-18.55-94.938zm-223.744-101.602-35.517 1.474-22.119-114.945c10.626-3.231 21.851-6.247 33.712-8.967zm-208.007-28.246c10.748-11.544 48.653-47.916 121.695-75.484l20.486 106.462-142.177 5.899zm-50.249 99.848v-30.859l452-18.755v49.614h-187.834l-6.208-31.771c-38.768 6.937-81.356 19.129-110.864 31.771zm50.249 97.971c5.969-6.391 20.204-20.342 43.777-36.05 17.989-11.987 43.817-26.513 77.928-39.406l20.476 106.412-142.177 5.899zm401.751 99.827h-452v-30.859l452-18.755zm-229.262-70.128-22.113-114.917c10.599-3.232 21.824-6.261 33.708-8.992l23.923 122.436z"/></svg>