<svg id="Layer_1" enable-background="new 0 0 511.998 511.998" height="512" viewBox="0 0 511.998 511.998" width="512" xmlns="http://www.w3.org/2000/svg"><path d="m511.998 171.703h-26.525s2.634-22.859 2.634-22.859c6.244-46.66-33.116-90.848-80.197-89.967.001-.001-303.822-.001-303.822-.001-47.042-.885-86.475 43.316-80.195 89.968-.001-.001 2.633 22.859 2.633 22.859h-26.526v93.786h28.353v187.646h455.292v-187.646h28.353zm-313.528 93.786v157.646h-55.059v-157.646zm30 0h55.059v157.646h-55.059zm85.058 0h55.059v157.646h-55.059zm-283.528-30v-33.786h451.998v33.786zm23.694-90.079c-3.916-29.323 20.802-57.085 50.394-56.534-.001 0 303.823 0 303.823 0 14.45 0 28.251 6.187 37.867 16.973 18.344 20.722 12.077 41.327 9.497 65.854h-398.551zm4.659 120.079h55.058v157.646h-55.058zm395.292 157.646h-55.058v-157.646h55.058z"/></svg>