<svg id="Capa_1" enable-background="new 0 0 512 512" height="512" viewBox="0 0 512 512" width="512" xmlns="http://www.w3.org/2000/svg"><g><path d="m303.824 94.068-23.964 18.049 6.314 8.383h-60.348l6.314-8.383-23.964-18.049-31.204 41.432 31.203 41.432 23.964-18.049-6.314-8.383h60.35l-6.314 8.383 23.964 18.049 31.203-41.432z"/><path d="m133.909 131.743c10.269-10.8 16.591-25.386 16.591-41.43 0-33.188-27-60.188-60.188-60.188s-60.188 27-60.188 60.188c0 16.044 6.322 30.63 16.591 41.43-27.828 15.405-46.715 45.071-46.715 79.069v90.312h15.391l4 180.75h141.844l4-180.75h15.391v-90.312c-.001-33.998-18.888-63.664-46.717-79.069zm-73.784-41.431c0-16.646 13.542-30.188 30.188-30.188s30.187 13.543 30.187 30.188-13.542 30.188-30.188 30.188-30.187-13.542-30.187-30.188zm-30.125 120.5c0-33.257 27.056-60.312 60.312-60.312s60.312 27.056 60.312 60.312v60.312h-120.624zm101.891 241.063h-26.578v-119.5h-30v119.5h-26.579l-3.336-150.75h89.829z"/><path d="m512 210.812c0-33.999-18.887-63.664-46.716-79.07 10.269-10.8 16.591-25.386 16.591-41.43 0-33.188-27-60.188-60.188-60.188s-60.188 27-60.188 60.188c0 16.044 6.322 30.63 16.591 41.43-27.83 15.406-46.716 45.071-46.716 79.07v90.312h15.391l4 180.75h141.844l4-180.75h15.391zm-120.5-120.5c0-16.646 13.542-30.188 30.188-30.188s30.188 13.542 30.188 30.188-13.543 30.188-30.188 30.188-30.188-13.542-30.188-30.188zm-30.125 120.5c0-33.257 27.056-60.312 60.312-60.312s60.313 27.056 60.313 60.312v60.312h-120.625zm101.891 241.063h-26.578v-119.5h-30v119.5h-26.578l-3.336-150.75h89.829z"/></g></svg>