<svg id="Capa_1" enable-background="new 0 0 512 512" height="512" viewBox="0 0 512 512" width="512" xmlns="http://www.w3.org/2000/svg"><g><path d="m381.884 356h99.116v-356h-450v356h99.104c2.448 2.376 5.434 5.426 8.442 8.785l-83.775 83.58 63.635 63.635 71.344-71.128c8.213.452 17.207 1.582 23.201 4.064 17.416 7.215 40.149 35.711 43.052 38.76 3.127-3.367 25.68-31.564 43.052-38.76 5.716-2.368 14.636-3.578 23.198-4.068l71.346 71.132 63.635-63.692-83.777-83.524c2.864-3.213 5.792-6.234 8.427-8.784zm-170.884-326h90v99.787l-45-45-45 45zm-150 0h120v172.213l75-75 75 75v-172.213h120v296h-69.099c-6.909-6.708-18.12-18.776-21.962-28.052-7.219-17.43-3.141-53.573-3.035-57.85-4.592.17-40.478 4.161-57.85-3.034-17.425-7.219-40.105-35.665-43.052-38.76-3.127 3.367-25.68 31.564-43.052 38.76-17.417 7.213-53.669 3.138-57.85 3.035.17 4.592 4.161 40.478-3.034 57.85-3.555 8.582-14.063 20.423-21.946 28.052h-69.12zm36.229 418.397 57.004-56.889c2.217 10.703 2.457 25.157 1.947 33.395l-.479 7.542-37.255 37.169zm190.345-31.177c-11.506 4.766-23.26 14.475-31.571 22.319-8.311-7.845-20.065-17.554-31.572-22.32-11.506-4.766-26.683-6.212-38.106-6.542-.33-11.424-1.776-26.601-6.542-38.106-4.766-11.506-14.475-23.26-22.319-31.571 7.845-8.311 17.554-20.065 22.32-31.572 4.766-11.506 6.212-26.683 6.542-38.106 11.423-.33 26.601-1.776 38.106-6.542 11.506-4.766 23.26-14.475 31.571-22.319 8.311 7.845 20.065 17.554 31.571 22.32s26.683 6.212 38.106 6.542c.33 11.423 1.776 26.601 6.542 38.106 4.766 11.506 14.475 23.26 22.319 31.571-7.845 8.311-17.554 20.065-22.32 31.572-4.766 11.506-6.212 26.683-6.542 38.106-11.423.33-26.599 1.776-38.105 6.542zm105.985 52.337-37.255-37.113-.479-7.542c-.359-5.65-.552-21.512 1.932-33.411l57.02 56.848z"/><path d="m256 296c-24.813 0-45 20.187-45 45s20.187 45 45 45 45-20.187 45-45-20.187-45-45-45zm0 60c-8.271 0-15-6.729-15-15s6.729-15 15-15 15 6.729 15 15-6.729 15-15 15z"/></g></svg>