<?xml version="1.0" encoding="iso-8859-1"?>
<!-- Generator: Adobe Illustrator 19.0.0, SVG Export Plug-In . SVG Version: 6.00 Build 0)  -->
<svg xmlns="http://www.w3.org/2000/svg" xmlns:xlink="http://www.w3.org/1999/xlink" version="1.1" id="Layer_1" x="0px" y="0px" viewBox="0 0 512 512" style="enable-background:new 0 0 512 512;" xml:space="preserve">
<g>
	<g>
		<path d="M356.009,150.967h-15.001V90.961h-33.689l-19.03-66.605C284.127,9.788,271.151,0,256,0    c-15.151,0-28.127,9.788-32.289,24.355l-19.03,66.606h-33.689v60.005h-15.001c-41.359,0-75.007,33.648-75.007,75.007v211.019    c0,41.359,33.648,75.007,75.007,75.007h200.018c41.359,0,75.007-33.648,75.007-75.007V225.974    C431.016,184.615,397.369,150.967,356.009,150.967z M252.56,32.598c0.184-0.642,0.741-2.595,3.44-2.595    c2.699,0,3.257,1.953,3.44,2.595l16.676,58.363h-40.232L252.56,32.598z M200.995,120.964h110.01v30.003h-110.01V120.964z     M401.013,436.993c0,24.815-20.189,45.004-45.004,45.004H155.991c-24.815,0-45.004-20.189-45.004-45.004V225.974    c0-24.815,20.189-45.004,45.004-45.004h200.018c24.815,0,45.004,20.189,45.004,45.004V436.993z"/>
	</g>
</g>
<g>
	<g>
		<path d="M160.991,240.975v180.017h190.017V240.975H160.991z M321.006,390.989H190.994V270.978h130.012V390.989z"/>
	</g>
</g>
<g>
</g>
<g>
</g>
<g>
</g>
<g>
</g>
<g>
</g>
<g>
</g>
<g>
</g>
<g>
</g>
<g>
</g>
<g>
</g>
<g>
</g>
<g>
</g>
<g>
</g>
<g>
</g>
<g>
</g>
</svg>
