<svg id="Capa_1" enable-background="new 0 0 512 512" height="512" viewBox="0 0 512 512" width="512" xmlns="http://www.w3.org/2000/svg"><g><path d="m256 282.525c55.125 0 99.973-44.848 99.973-99.973 0-38.929-22.349-73.724-56.745-90.167-5.488-18.693-22.784-32.385-43.228-32.385s-37.74 13.692-43.228 32.385c-34.396 16.443-56.745 51.238-56.745 90.167 0 55.125 44.848 99.973 99.973 99.973zm-15.054-177.471c0-8.301 6.753-15.054 15.054-15.054s15.054 6.753 15.054 15.054v17.576h-15.054c-8.301 0-15.054-6.753-15.054-15.054zm-26.086 20.854c7.037 15.729 22.824 26.722 41.14 26.722h45.054v-23.66c15.484 13.011 24.919 32.421 24.919 53.581 0 38.583-31.39 69.973-69.973 69.973s-69.973-31.39-69.973-69.973c0-22.889 11.037-43.735 28.833-56.643z"/><path d="m256 222.525c22.042 0 39.973-17.932 39.973-39.973h-30c0 5.499-4.474 9.973-9.973 9.973s-9.973-4.474-9.973-9.973h-30c0 22.041 17.931 39.973 39.973 39.973z"/><path d="m256 0c-87.845 0-159.312 71.467-159.312 159.312v193.376c0 87.845 71.467 159.312 159.312 159.312s159.312-71.467 159.312-159.312v-193.376c0-87.845-71.467-159.312-159.312-159.312zm0 30c71.303 0 129.312 58.009 129.312 129.312v59.364c-24.654 42.383-59.604 78.36-101.292 104.208-9.074 5.626-18.439 10.748-28.038 15.36-54.401-26.161-98.954-67.367-129.294-119.581v-59.35c0-71.304 58.009-129.313 129.312-129.313zm-129.312 322.688v-80.671c25.574 32.591 56.95 59.926 92.92 80.87-25.128 8.26-51.335 13.22-77.846 14.626l-14.134.75c-.615-5.108-.94-10.304-.94-15.575zm129.312 129.312c-55.397 0-102.762-35.018-121.141-84.078l8.493-.45c55.301-2.933 109.41-19.909 156.477-49.091 32.751-20.306 61.719-46.3 85.484-76.481v80.789c-.001 71.302-58.01 129.311-129.313 129.311z"/></g></svg>