<svg id="Capa_1" enable-background="new 0 0 512 512" height="512" viewBox="0 0 512 512" width="512" xmlns="http://www.w3.org/2000/svg"><g><path d="m385.87 252.262c69.548 0 126.13-56.582 126.13-126.131s-56.582-126.131-126.13-126.131-126.13 56.582-126.13 126.131 56.581 126.131 126.13 126.131zm0-222.262c53.006 0 96.13 43.124 96.13 96.131s-43.124 96.131-96.13 96.131-96.13-43.124-96.13-96.131 43.123-96.131 96.13-96.131z"/><path d="m0 512h232.305v-232.305h-232.305zm30-202.305h172.305v172.305h-172.305z"/><path d="m178.783 15v-15h-125.261v15c0 21.242-17.281 38.523-38.522 38.523h-15v125.26h15c21.241 0 38.522 17.281 38.522 38.522v15h125.26v-15c0-21.241 17.281-38.522 38.522-38.522h15v-125.26h-15c-21.24 0-38.521-17.281-38.521-38.523zm23.522 135.438c-25.762 5.775-46.092 26.106-51.869 51.868h-68.567c-5.777-25.762-26.107-46.093-51.869-51.868v-68.569c25.762-5.776 46.092-26.106 51.869-51.869h68.568c5.776 25.763 26.106 46.093 51.869 51.869v68.569z"/><path d="m385.87 279.695c-33.435 0-63.11 19.219-76.955 48.824h-49.176v134.656h49.176c13.844 29.606 43.519 48.825 76.955 48.825 33.435 0 63.11-19.219 76.955-48.824h49.175v-134.656h-49.176c-13.845-29.606-43.52-48.825-76.954-48.825zm96.13 153.481h-40.371l-3.318 10.467c-7.273 22.943-28.348 38.357-52.441 38.357-24.094 0-45.168-15.414-52.441-38.356l-3.318-10.468h-40.372v-74.656h40.371l3.318-10.468c7.272-22.942 28.347-38.356 52.441-38.356s45.168 15.414 52.441 38.357l3.318 10.467h40.372z"/><path d="m131.153 340.886h-30v17.857h-29.989v30h29.989v1.703c0 16.536-13.453 29.989-29.989 29.989v30c17.897 0 33.988-7.878 44.989-20.348 11.001 12.47 27.092 20.348 44.988 20.348v-30c-16.536 0-29.988-13.453-29.988-29.989v-1.703h29.988v-30h-29.988z"/></g></svg>