<svg id="Capa_1" enable-background="new 0 0 512 512" height="512" viewBox="0 0 512 512" width="512" xmlns="http://www.w3.org/2000/svg"><g id="XMLID_600_"><path id="XMLID_760_" d="m456.983 109.613c0-60.441-49.172-109.613-109.613-109.613-48.61 0-89.924 31.809-104.238 75.704-5.053.442-10.009 1.222-14.844 2.328-15.102-7.893-31.431-11.752-49.718-11.752-60.441 0-109.614 49.172-109.614 109.613 0 29.383 10.498 55.743 29.823 75.599-4.666 7.908-8.351 16.472-10.928 25.533h-32.834l34.492 234.975h184.579l34.156-232.685c22.68-13.364 40.344-34.691 48.748-60.515 55.951-4.889 99.991-51.988 99.991-109.187zm-184.333 80.121-19.893 16.942-20.052-17.076v-17.12l19.533-8.459c5.494 9.57 12.395 18.231 20.412 25.713zm-31.63-53.547-38.315 16.592v50.677l50.051 42.627 45.309-38.588c8.595 4.347 17.834 7.597 27.536 9.559-12.517 28.263-40.924 47.451-72.845 47.451-43.899 0-79.614-35.714-79.614-79.613 0-38.785 27.884-71.162 64.653-78.184-.025.966-.039 1.935-.039 2.907 0 9.16 1.137 18.06 3.264 26.572zm-62.45-39.907c3.119 0 6.15.16 9.108.462-26.998 19.985-44.535 52.055-44.535 88.148 0 8.216.915 16.22 2.637 23.925-10.417 4.865-19.854 11.285-28.045 18.973-12.191-13.929-18.778-31.914-18.778-51.895 0-43.899 35.714-79.613 79.613-79.613zm-22.211 140.755c8.817 16.234 21.616 30.002 37.077 39.99h-73.894c7.081-17.358 20.074-31.525 36.817-39.99zm91.811 244.965h-51.372v-63.23h-30v63.23h-51.372l-25.684-174.975h184.112zm99.2-292.772c-43.899 0-79.613-35.715-79.613-79.614s35.714-79.614 79.613-79.614 79.614 35.714 79.614 79.613-35.715 79.615-79.614 79.615z"/><path id="XMLID_770_" d="m297.319 77.501v50.678l50.051 42.625 50.051-42.625v-50.678l-50.051-21.674zm70.102 36.822-20.051 17.076-20.051-17.076v-17.121l20.051-8.684 20.051 8.684z"/></g></svg>