<svg id="Capa_1" enable-background="new 0 0 512 512" height="512" viewBox="0 0 512 512" width="512" xmlns="http://www.w3.org/2000/svg"><g><path d="m269.439 222.238 165.126-18.495 77.435 35.133v-186.405l-77.4 34.563-165.268-18.233c-26.271-42.247-72.534-68.41-122.579-68.796-39.003-.318-75.765 14.746-103.6 42.367-27.828 27.614-43.153 64.278-43.153 103.239 0 30.118 9.119 59.025 26.372 83.594 15.12 21.531 35.463 38.373 59.206 49.106l19.082 133.45c2.727 19.074 16.915 34.269 34.919 38.959 6.399 34.816 36.971 61.28 73.609 61.28h54.771c26.407 0 50.148-14.673 61.958-38.293 6.695-13.39 20.154-21.708 35.125-21.708h20.466c6.967 34.193 37.272 60.001 73.492 60.001h23v-30.001h30v-30h-30v-30h30v-30h-30v-30.001h-23c-36.22 0-66.525 25.808-73.492 60.001h-20.466c-26.407 0-50.148 14.673-61.958 38.292-6.695 13.391-20.154 21.709-35.125 21.709h-54.771c-20.825 0-38.38-14.271-43.4-33.547 16.836-7.198 28.664-23.926 28.664-43.364v-63.874h29.503v-30h-29.503v-29.894c29.194-11.428 54.384-32.364 70.987-59.083zm182.561 170.304v88.914c-21.5-3.372-38-22.024-38-44.457 0-22.432 16.5-41.085 38-44.457zm30-200.221-30-13.61v-66.592l30-13.396zm-313.547 67.198v145.57c0 9.448-7.686 17.135-17.134 17.135-8.471 0-15.763-6.323-16.961-14.709l-21.541-150.65-8.268-3.143c-44.59-16.946-74.549-60.393-74.549-108.111 0-30.904 12.175-60.006 34.284-81.944 21.899-21.731 50.75-33.666 81.331-33.666.302 0 .604.001.906.004 41.848.321 80.366 23.349 100.524 60.094l3.752 6.839 171.203 18.888v59.137l-171.133 19.168-3.741 6.845c-14.467 26.465-39.257 46.629-68.014 55.321z"/><path d="m97.665 100.597h97.943v30h-97.943z"/><path d="m97.665 160.597h97.943v30h-97.943z"/></g></svg>