<svg id="Capa_1" enable-background="new 0 0 512 512" height="512" viewBox="0 0 512 512" width="512" xmlns="http://www.w3.org/2000/svg"><g><path d="m221.262 292.333c24.223 0 47.391-9.01 65.234-25.368 17.725-16.25 28.706-38.343 30.918-62.208l-22.629-14.262c-7.122 4.255-15.293 6.504-23.627 6.504-25.456 0-46.167-20.71-46.167-46.166 0-10.063 3.178-19.624 9.191-27.648l-12.921-24.019c-53.256 0-96.583 43.327-96.583 96.583 0 53.257 43.328 96.584 96.584 96.584zm-24.366-158.551c-1.261 5.534-1.904 11.243-1.904 17.051 0 41.998 34.168 76.166 76.167 76.166 3.085 0 6.155-.186 9.197-.557-3.559 6.843-8.32 13.08-14.132 18.409-12.296 11.273-28.264 17.481-44.961 17.481-36.714 0-66.583-29.869-66.583-66.584-.002-28.117 17.519-52.221 42.216-61.966z"/><path d="m280.324 114.333h30v30h-30z"/><path d="m386.741 309.844v-243.262c0-36.714-29.868-66.582-66.581-66.582h-190.318c-36.713 0-66.581 29.868-66.581 66.582v361.816c0 36.714 29.869 66.582 66.582 66.582h155.569c16.565 10.76 36.311 17.02 57.493 17.02 58.357 0 105.835-47.478 105.835-105.835 0-42.73-25.457-79.623-61.999-96.321zm-256.899 155.136c-20.171 0-36.582-16.41-36.582-36.582v-18.732h75.607c-4.511 8.216-7.083 17.641-7.083 27.657s2.572 19.441 7.083 27.657zm0-434.98h190.318c20.171 0 36.582 16.41 36.582 36.582v234.653c-4.53-.594-9.148-.905-13.837-.905-49.21 0-90.683 33.76-102.475 79.336h-147.17v-313.084c.001-20.172 16.412-36.582 36.582-36.582zm149.916 418.099c-8.009-12.02-12.689-26.438-12.689-41.934 0-41.815 34.02-75.835 75.835-75.835 15.495 0 29.914 4.68 41.934 12.688zm-87.973-10.776c0-15.25 12.407-27.657 27.657-27.657h11.117c2.276 0 4.487.282 6.605.803.674 16.774 5.267 32.556 12.893 46.45-5.004 4.979-11.897 8.062-19.497 8.062h-11.117c-15.251-.001-27.658-12.408-27.658-27.658zm151.119 44.677c-15.495 0-29.914-4.68-41.934-12.689l105.08-105.08c8.008 12.02 12.689 26.438 12.689 41.934 0 41.815-34.019 75.835-75.835 75.835z"/></g></svg>