<svg id="Capa_1" enable-background="new 0 0 512 512" height="512" viewBox="0 0 512 512" width="512" xmlns="http://www.w3.org/2000/svg"><g><path d="m60 242.448h392v-182.448h-392zm30-76.224h60.5v46.225h-60.5zm181-30v-46.224h60.5v46.224zm60.5 30v46.225h-60.5v-46.225zm-90.5-30h-60.5v-46.224h60.5zm0 30v46.225h-60.5v-46.225zm120.5 46.224v-46.225h60.5v46.225zm60.5-76.224h-60.5v-46.224h60.5zm-271.5-46.224v46.224h-60.5v-46.224z"/><path d="m346 362.448v-60h166v-302.448h-512v302.448h166v60h45v59.552h-70.812l-30 90h291.623l-30-90h-70.811v-59.552zm-316-332.448h452v242.448h-452zm166 272.448h120v30h-120zm164.188 179.552h-208.376l10-30h188.377zm-89.188-60h-30v-59.552h30z"/></g></svg>