<svg id="Capa_1" enable-background="new 0 0 509.207 509.207" height="512" viewBox="0 0 509.207 509.207" width="512" xmlns="http://www.w3.org/2000/svg"><g><path d="m269.603 120h-29.999v30h-30v30h30v30h29.999v-30h30v-30h-30z"/><path d="m254.604 0c-90.981 0-165 74.019-165 165 0 73.879 49.15 138.674 120 158.776v51.224h-60.954l105.953 134.207 105.954-134.207h-60.953v-51.224c70.774-20.081 120-84.821 120-158.776-.001-90.981-74.019-165-165-165zm27.015 297.297-12.016 2.439v105.264h29.047l-44.047 55.793-44.046-55.793h29.047v-105.264l-12.016-2.439c-62.57-12.701-107.984-68.34-107.984-132.297 0-74.439 60.561-135 135-135s135 60.561 135 135c-.001 63.957-45.415 119.596-107.985 132.297z"/><path d="m254.604 60c-57.897 0-105 47.103-105 105s47.103 105 105 105c57.898 0 105-47.103 105-105-.001-57.897-47.103-105-105-105zm0 180c-41.355 0-75-33.645-75-75s33.645-75 75-75 75 33.645 75 75c-.001 41.355-33.645 75-75 75z"/></g></svg>