<svg id="Capa_1" enable-background="new 0 0 512 512" height="512" viewBox="0 0 512 512" width="512" xmlns="http://www.w3.org/2000/svg"><g><path d="m188.5 338.5h30v30h-30z"/><path d="m143.5 293.5h30v30h-30z"/><path d="m279.628 292.111c-.444-1.127-.907-2.245-1.389-3.354 4-15.269-.3-31.937-11.679-43.316-11.38-11.381-28.047-15.687-43.317-11.68-1.109-.481-2.228-.945-3.355-1.39-7.967-13.624-22.794-22.371-38.888-22.371s-30.921 8.747-38.889 22.372c-1.126.443-2.246.907-3.354 1.389-15.264-3.999-31.936.299-43.316 11.68-11.38 11.38-15.681 28.048-11.68 43.316-.481 1.109-.945 2.228-1.389 3.354-13.625 7.968-22.372 22.795-22.372 38.889s8.748 30.921 22.372 38.889c.444 1.127.907 2.245 1.389 3.354-4 15.269.3 31.937 11.68 43.316 11.379 11.379 28.045 15.684 43.316 11.68 1.109.481 2.228.945 3.354 1.389 7.968 13.625 22.795 22.372 38.889 22.372s30.921-8.747 38.889-22.372c1.127-.443 2.245-.906 3.354-1.388 15.267 3.995 31.937-.3 43.316-11.681 11.38-11.38 15.681-28.048 11.68-43.316.481-1.109.945-2.228 1.389-3.354 13.625-7.968 22.372-22.795 22.372-38.889s-8.747-30.921-22.372-38.889zm-17.341 52.929-6.753 2.546-2.225 6.866c-1.238 3.819-2.783 7.551-4.591 11.089l-3.288 6.43 2.976 6.58c2.559 5.657 1.329 12.406-3.061 16.796-4.389 4.39-11.139 5.618-16.794 3.06l-6.582-2.978-6.431 3.29c-3.533 1.807-7.263 3.352-11.087 4.591l-6.865 2.225-2.546 6.753c-2.19 5.81-7.833 9.713-14.04 9.713s-11.85-3.903-14.04-9.713l-2.546-6.753-6.865-2.225c-3.823-1.239-7.554-2.783-11.088-4.591l-6.431-3.289-6.582 2.977c-5.656 2.562-12.405 1.329-16.794-3.06-4.389-4.39-5.619-11.139-3.06-16.796l2.976-6.58-3.288-6.43c-1.809-3.538-3.354-7.27-4.592-11.091l-2.225-6.864-6.752-2.546c-5.81-2.19-9.713-7.833-9.713-14.04s3.903-11.85 9.713-14.04l6.753-2.546 2.225-6.866c1.238-3.819 2.783-7.551 4.591-11.089l3.288-6.43-2.976-6.58c-2.559-5.657-1.329-12.406 3.061-16.796 4.389-4.39 11.139-5.618 16.794-3.06l6.582 2.977 6.431-3.289c3.534-1.808 7.265-3.352 11.088-4.591l6.866-2.225 2.546-6.753c2.19-5.81 7.832-9.713 14.04-9.713s11.85 3.903 14.04 9.713l2.546 6.753 6.866 2.225c3.823 1.238 7.553 2.783 11.088 4.591l6.431 3.289 6.582-2.977c5.656-2.561 12.405-1.329 16.794 3.06 4.389 4.39 5.619 11.139 3.06 16.796l-2.976 6.58 3.288 6.43c1.809 3.538 3.354 7.27 4.591 11.089l2.225 6.866 6.753 2.546c5.81 2.19 9.713 7.833 9.713 14.04s-3.906 11.85-9.716 14.04z"/><path d="m448.945 163.928c-29.284-38.559-56.945-74.979-56.945-148.928v-15h-272v15c0 73.949-27.661 110.369-56.945 148.928-31 40.816-63.055 83.021-63.055 167.072 0 99.804 81.196 181 181 181 51.593 0 99.767-21.489 134.074-59.391 18.831 9.447 39.651 14.391 60.926 14.391 74.991 0 136-61.01 136-136 0-84.051-32.055-126.256-63.055-167.072zm-72.945 273.072c-20.025 0-39.524-5.614-56.391-16.235l-11.438-7.203-8.35 10.631c-28.859 36.737-72.168 57.807-118.821 57.807-83.262 0-151-67.738-151-151 0-73.949 27.661-110.369 56.945-148.928 29.098-38.312 59.127-77.853 62.701-152.072h212.708c3.574 74.219 33.603 113.76 62.701 152.072 29.284 38.559 56.945 74.979 56.945 148.928 0 58.448-47.551 106-106 106z"/></g></svg>