<svg id="Capa_1" enable-background="new 0 0 511 511" height="512" viewBox="0 0 511 511" width="512" xmlns="http://www.w3.org/2000/svg"><g id="XMLID_1058_"><path id="XMLID_1096_" d="m476.631 79.048-11.991-79.048h-420.464l-11.992 79.048h-32.184v30h30.62l11.991 327.251h27.154v74.701h88v-74.701h193.285v74.701h88v-74.701h27.153l11.991-327.251h32.806v-30zm-406.663-49.048h368.879l7.44 49.048h-383.76zm57.797 451h-28v-44.701h28zm281.285 0h-28v-44.701h28zm28.233-74.701h-56.233v-80.376h-30v80.376h-193.285v-80.376h-30v80.376h-56.233l-10.892-297.251h387.535z"/><path id="XMLID_1100_" d="m198.978 157.021h113v30h-113z"/></g></svg>