<svg id="Capa_1" enable-background="new 0 0 510 510" height="512" viewBox="0 0 510 510" width="512" xmlns="http://www.w3.org/2000/svg"><g><path d="m90 0v121.268c0 31.328 8.519 62.086 24.638 88.95 13.321 22.202 20.362 47.623 20.362 73.514v226.268h105v-300c0-8.271 6.729-15 15-15s15 6.729 15 15v300h105v-226.268c0-25.892 7.041-51.312 20.362-73.515 16.118-26.863 24.638-57.621 24.638-88.949 0-13.241 0-109.293 0-121.268zm75 390h45v30h-45zm0 90v-30h45v30zm135-90h45v30h-45zm0 90v-30h45v30zm90-358.732c0 25.892-7.041 51.312-20.362 73.515-16.119 26.863-24.638 57.621-24.638 88.949v76.268h-45v-150c0-24.814-20.187-45-45-45s-45 20.186-45 45v150h-45v-76.268c0-31.328-8.52-62.086-24.638-88.95-13.321-22.202-20.362-47.623-20.362-73.514v-31.268h270zm-270-61.268v-30h270v30z"/></g></svg>