<svg id="Capa_1" enable-background="new 0 0 512 512" height="512" viewBox="0 0 512 512" width="512" xmlns="http://www.w3.org/2000/svg"><g><path d="m226 72.506h60v30.02h-60z"/><path d="m457.485 371.548-6.013-.959c8.105-11.182 12.789-24.829 12.789-39.145v-23.799h-15c-11.244 0-20.392-9.154-20.392-20.404v-77.298c0-32.565-21.367-60.221-50.805-69.695l16.974-34.624c6.831-13.934 7.185-30.081.972-44.3-6.211-14.218-18.293-24.919-33.147-29.362l-106.863-31.962-106.864 31.961c-14.854 4.442-26.936 15.144-33.147 29.362-6.213 14.22-5.858 30.366.972 44.3l16.974 34.624c-29.438 9.475-50.805 37.13-50.805 69.695v77.298c0 11.251-9.147 20.404-20.392 20.404h-15v23.799c0 14.316 4.684 27.963 12.789 39.145l-6.013.959c-31.587 5.04-54.514 31.928-54.514 63.936v76.517h512v-76.517c0-32.008-22.927-58.896-54.515-63.935zm-58.616-161.606v77.298c0 22.502 14.807 41.61 35.184 48.078-1.353 12.563-9.213 23.716-20.618 29.204l-98.202-15.662c33.229-20.134 55.485-56.663 55.485-98.299v-81.106c16.42 6.113 28.151 21.953 28.151 40.487zm-49.227 272.038h-29.695l-23.389-71.212 7.168-31.069 61.071 74.471zm-201.535-27.874 60.171-74.395 7.165 31.058-23.389 71.212h-28.757zm23.176-242.339c12.544 9.444 28.129 15.051 45 15.051h79.435c16.871 0 32.456-5.607 45-15.052v38.796c0 46.76-38.004 84.802-84.718 84.802s-84.717-38.042-84.717-84.802zm2.567-45.006h164.303c-6.186 17.482-22.873 30.037-42.435 30.037h-79.435c-19.56 0-36.245-12.552-42.433-30.037zm69.082 229.703-7.602-32.952c6.707 1.227 13.615 1.872 20.67 1.872s13.963-.645 20.67-1.872l-7.602 32.952zm-1.072 30.02h28.281l18.227 55.495h-64.736zm-98.383-353.136c2.67-6.113 7.865-10.714 14.25-12.624l98.273-29.392 98.273 29.393c6.385 1.909 11.58 6.51 14.25 12.624 2.672 6.115 2.52 13.061-.418 19.053l-21.737 44.339h-180.736l-21.737-44.339c-2.938-5.993-3.09-12.938-.418-19.054zm-65.53 261.971c20.376-6.468 35.184-25.576 35.184-48.078v-77.298c0-18.534 11.731-34.374 28.152-40.486v81.106c0 41.635 22.256 78.163 55.484 98.298l-98.202 15.663c-11.406-5.489-19.264-16.643-20.618-29.205zm-47.947 100.164c0-17.166 12.296-31.587 29.236-34.288l106.855-17.043-53.936 66.686 16.971 31.142h-99.126zm452 46.497h-98.188l17.007-31.207-54.591-66.57 106.536 16.991c16.94 2.701 29.236 17.122 29.236 34.288z"/></g></svg>