<?xml version="1.0" encoding="iso-8859-1"?>
<!-- Generator: Adobe Illustrator 19.0.0, SVG Export Plug-In . SVG Version: 6.00 Build 0)  -->
<svg version="1.1" id="Layer_1" xmlns="http://www.w3.org/2000/svg" xmlns:xlink="http://www.w3.org/1999/xlink" x="0px" y="0px"
	 viewBox="0 0 512 512" style="enable-background:new 0 0 512 512;" xml:space="preserve">
<g>
	<g>
		<path d="M376.5,32.188c-52.415,0-97.974,29.912-120.5,73.566c-22.526-43.653-68.084-73.566-120.5-73.566
			C60.785,32.188,0,92.973,0,167.688C0,204.181,14.295,238.407,40.189,264L256,479.812l215.75-215.751
			C497.705,238.406,512,204.18,512,167.688C512,92.973,451.215,32.188,376.5,32.188z M450.599,242.787L256,437.385L61.34,242.725
			C41.13,222.749,30,196.101,30,167.688c0-58.173,47.327-105.5,105.5-105.5c58.173,0,105.5,47.328,105.5,105.5h30
			c0-58.172,47.327-105.5,105.5-105.5c58.173,0,105.5,47.327,105.5,105.5C482,196.101,470.87,222.75,450.599,242.787z"/>
	</g>
</g>
<g>
</g>
<g>
</g>
<g>
</g>
<g>
</g>
<g>
</g>
<g>
</g>
<g>
</g>
<g>
</g>
<g>
</g>
<g>
</g>
<g>
</g>
<g>
</g>
<g>
</g>
<g>
</g>
<g>
</g>
</svg>
