<svg id="Capa_1" enable-background="new 0 0 512.001 512.001" height="512" viewBox="0 0 512.001 512.001" width="512" xmlns="http://www.w3.org/2000/svg"><g><path d="m489.774 205.774c0-113.464-92.31-205.774-205.774-205.774-44.388 0-86.66 13.912-122.247 40.233-34.871 25.792-60.319 61.137-73.593 102.215l-.352 1.089-8.956 55.412-56.625 102.69v38.361h47.105l18.983 103.695h106.936l16.135 68.306h244.439l-28.293-158.774c39.656-38.635 62.242-91.901 62.242-147.453zm-254.649 276.227-16.135-68.306h-105.668l-18.983-103.695h-42.112v-.639l55.41-100.485 9.417-58.27c23.826-72.188 90.773-120.606 166.946-120.606 96.922 0 175.774 78.853 175.774 175.774 0 49.867-21.306 97.577-58.454 130.897l-6.217 5.576 24.904 139.753h-184.882z"/><path d="m333.897 80.813-171.962 171.961-5.164 68.98 68.98-5.163 171.962-171.963zm21.39 63.816-21.39 21.39-21.39-21.39 21.39-21.39zm-42.603 42.603-69.238 69.239-21.39-21.39 69.239-69.239zm-123.394 102.005 1.73-23.121 9.822-9.822 21.39 21.39-9.822 9.822z"/></g></svg>