<svg id="Capa_1" enable-background="new 0 0 497.108 497.108" height="512" viewBox="0 0 497.108 497.108" width="512" xmlns="http://www.w3.org/2000/svg"><g><path d="m489.068 432.987-43.354 12.06-24.658-88.64c17.299-10.244 35.506-32.83 44.093-81.209 13.862-78.1-7.428-168.891-8.258-175.79l-208.337 57.954-208.337-57.954c-.81 6.731-22.161 97.46-8.258 175.789 8.586 48.38 26.793 70.966 44.092 81.21l-24.657 88.64-43.354-12.06-8.04 28.902 115.61 32.159 8.04-28.902-43.354-12.06 24.658-88.645c31.171.195 59.258-23.391 79.693-46.771 22.94-26.246 45.086-62.815 63.906-105.149 18.82 42.334 40.966 78.903 63.906 105.149 20.429 23.374 48.515 46.966 79.693 46.771l24.659 88.645-43.354 12.06 8.04 28.902 115.611-32.159zm-55.903-295.841c1.698 10.73 3.071 21.3 4.123 31.642-32.441 14.239-33.43 28.41-73.024 39.424-39.781 11.065-47.417-.652-82.893 3.948-4.44-9.4-8.722-19.159-12.809-29.225zm-204.619 45.789c-4.087 10.065-8.369 19.826-12.809 29.226-35.494-4.603-43.119 7.116-82.893-3.949-39.806-11.072-40.247-25.037-73.024-39.424 1.051-10.342 2.424-20.911 4.123-31.642zm-66.486 114.993c-23.836 27.272-47.184 40.222-64.055 35.527-16.872-4.693-30.178-27.838-36.507-63.501-3.555-20.028-4.85-43.362-3.936-68.755 18.411 10.711 28.291 25.079 67.243 35.914 38.938 10.831 54.865 3.637 76.13 3.969-12.331 22.217-25.489 41.531-38.875 56.846zm172.988 0c-13.386-15.315-26.545-34.629-38.875-56.848 21.309-.332 37.177 6.869 76.13-3.967 38.899-10.82 48.928-25.259 67.243-35.914.914 25.393-.381 48.727-3.936 68.755-6.329 35.663-19.636 58.808-36.508 63.501-16.873 4.702-40.217-8.255-64.054-35.527z"/><path d="m233.554 3.06h30v75h-30z"/><path d="m295.679 48.562h59.252v30h-59.252z" transform="matrix(.447 -.894 .894 .447 122.977 326.101)"/><path d="m156.803 33.935h30v59.252h-30z" transform="matrix(.894 -.447 .447 .894 -10.288 83.543)"/></g></svg>