<svg id="Capa_1" enable-background="new 0 0 512.156 512.156" height="512" viewBox="0 0 512.156 512.156" width="512" xmlns="http://www.w3.org/2000/svg"><g><path d="m487.487 300.989c-17.275-8.745-37.592-5.249-51.01 7.23l-44.608-24.904c5.69-15.496 8.797-32.228 8.797-49.672 0-26.086-6.95-50.58-19.093-71.728l38.153-32.745c5.748 3.311 12.208 5.323 19.018 5.842 1.169.09 2.333.134 3.493.134 10.733 0 21.005-3.791 29.235-10.855 9.122-7.828 14.648-18.739 15.562-30.726.914-11.984-2.894-23.608-10.723-32.729-7.827-9.121-18.739-14.647-30.725-15.562-11.987-.924-23.608 2.894-32.729 10.722-9.122 7.828-14.648 18.739-15.562 30.726-.519 6.809.49 13.5 2.89 19.683l-36.24 31.104c-26.482-29.658-64.985-48.365-107.781-48.365-41.527 0-79.012 17.615-105.394 45.757l-64.109-57.954c7.037-17.364 2.699-38.04-12.238-50.964-18.763-16.235-47.239-14.176-63.474 4.588-16.235 18.765-14.177 47.239 4.588 63.474 8.25 7.138 18.574 10.972 29.375 10.972 1.1 0 2.205-.039 3.312-.119 6.617-.479 12.91-2.37 18.545-5.492l65.787 59.467c-13.252 21.827-20.889 47.423-20.889 74.77 0 39.658 16.062 75.632 42.019 101.769l-76.129 76.13c-16.723-7.967-37.382-5.045-51.21 8.782-17.544 17.545-17.544 46.094 0 63.639 8.772 8.773 20.296 13.159 31.82 13.159 11.523 0 23.047-4.387 31.82-13.159 13.826-13.827 16.748-34.484 8.782-51.208l78.266-78.267c22.747 14.945 49.939 23.655 79.132 23.655 18.661 0 36.507-3.556 52.896-10.025l24.542 44.19c-4.367 5.225-7.518 11.417-9.17 18.229-2.833 11.682-.947 23.767 5.31 34.029 6.256 10.264 16.135 17.477 27.816 20.31 3.547.86 7.13 1.285 10.688 1.285 8.163 0 16.194-2.237 23.341-6.595 10.264-6.256 17.477-16.135 20.31-27.816s.947-23.767-5.31-34.029c-6.256-10.264-16.135-17.477-27.816-20.31-6.457-1.566-13.035-1.684-19.362-.426l-23.739-42.744c17.257-11.415 31.93-26.429 42.945-43.967l43.995 24.562c-2.605 18.539 6.609 37.531 24.22 46.448 6.498 3.289 13.424 4.847 20.253 4.847 16.437 0 32.304-9.029 40.222-24.668 11.208-22.137 2.316-49.266-19.821-60.474zm-60.276-211.987c.305-3.995 2.146-7.632 5.188-10.242 2.744-2.354 6.167-3.618 9.745-3.618.387 0 .775.015 1.164.045 3.995.305 7.632 2.146 10.241 5.187l.001.001c2.609 3.04 3.878 6.915 3.573 10.909-.305 3.995-2.146 7.632-5.188 10.242-3.041 2.608-6.926 3.886-10.909 3.573-3.995-.305-7.632-2.146-10.242-5.188-2.609-3.039-3.878-6.914-3.573-10.909zm-381.15-14.027c-3.999.3-7.865-.996-10.896-3.617-6.255-5.411-6.941-14.903-1.53-21.158 2.963-3.424 7.147-5.179 11.354-5.179 3.479 0 6.974 1.2 9.804 3.649 6.255 5.411 6.94 14.903 1.529 21.158-2.62 3.031-6.265 4.859-10.261 5.147zm322.079 351.162c1.187 0 2.381.142 3.562.429 3.894.944 7.187 3.349 9.272 6.77v.001c2.086 3.421 2.714 7.448 1.77 11.342s-3.349 7.187-6.771 9.272c-3.42 2.088-7.45 2.716-11.342 1.77-3.894-.944-7.187-3.349-9.272-6.771-2.086-3.421-2.714-7.448-1.77-11.342s3.349-7.187 6.771-9.272c2.382-1.454 5.059-2.199 7.78-2.199zm-299.366 36.612c-2.833 2.833-6.6 4.394-10.607 4.394s-7.773-1.561-10.606-4.394c-5.848-5.849-5.848-15.364 0-21.213 2.833-2.833 6.6-4.394 10.607-4.394s7.773 1.561 10.606 4.394c5.848 5.849 5.848 15.365 0 21.213zm187.393-114.606c-63.136 0-114.5-51.364-114.5-114.5s51.364-114.5 114.5-114.5 114.5 51.364 114.5 114.5-51.364 114.5-114.5 114.5zm224.376-.23c-3.737 7.379-12.779 10.342-20.158 6.606-3.574-1.81-6.23-4.903-7.479-8.711-1.248-3.807-.938-7.872.872-11.447 1.81-3.574 4.903-6.23 8.711-7.479 1.536-.504 3.115-.754 4.687-.754 2.322 0 4.629.546 6.761 1.626 7.378 3.736 10.342 12.78 6.606 20.159z"/><path d="m220.167 205.143c-24.813 0-45 20.187-45 45s20.187 45 45 45 45-20.187 45-45-20.187-45-45-45zm0 60c-8.271 0-15-6.729-15-15s6.729-15 15-15 15 6.729 15 15-6.729 15-15 15z"/><path d="m300.167 189.143h30v30h-30z"/><path d="m295.167 255.143h30v30h-30z"/><path d="m239.667 149.143h30v30h-30z"/></g></svg>