<svg id="Capa_1" enable-background="new 0 0 512 512" height="512" viewBox="0 0 512 512" width="512" xmlns="http://www.w3.org/2000/svg"><g><path d="m156.147 332h199.706v30h-199.706z" transform="matrix(.707 -.707 .707 .707 -170.385 282.653)"/><path d="m316 362c-24.813 0-45 20.187-45 45s20.187 45 45 45 45-20.187 45-45-20.187-45-45-45zm0 60c-8.271 0-15-6.729-15-15s6.729-15 15-15 15 6.729 15 15-6.729 15-15 15z"/><path d="m241 287c0-24.813-20.187-45-45-45s-45 20.187-45 45 20.187 45 45 45 45-20.187 45-45zm-60 0c0-8.271 6.729-15 15-15s15 6.729 15 15-6.729 15-15 15-15-6.729-15-15z"/><path d="m497 227c-16.804 0-31-13.738-31-30v-15h-53.719l-115.721-117.518c2.845-5.898 4.44-12.507 4.44-19.482 0-24.813-20.187-45-45-45s-45 20.187-45 45c0 6.975 1.595 13.584 4.44 19.482l-115.721 117.518h-53.719v15c0 16.262-14.196 30-31 30h-15v240h15c16.804 0 31 13.738 31 30v15h420v-15c0-16.262 14.196-30 31-30h15v-240zm-241-197c8.271 0 15 6.729 15 15s-6.729 15-15 15-15-6.729-15-15 6.729-15 15-15zm-19.296 55.645c5.852 2.789 12.394 4.355 19.296 4.355s13.444-1.566 19.296-4.355l94.882 96.355h-228.356zm245.296 353.212c-10.341 2.61-19.889 7.916-27.765 15.557-8.004 7.766-13.562 17.255-16.293 27.585h-363.883c-2.732-10.331-8.289-19.819-16.293-27.585-7.876-7.642-17.424-12.947-27.765-15.557v-183.714c10.341-2.61 19.889-7.916 27.765-15.557 8.004-7.766 13.562-17.255 16.293-27.585h363.883c2.732 10.331 8.289 19.819 16.293 27.585 7.876 7.642 17.424 12.947 27.765 15.557z"/></g></svg>