<svg id="Layer_1" enable-background="new 0 0 511.957 511.957" height="512" viewBox="0 0 511.957 511.957" width="512" xmlns="http://www.w3.org/2000/svg"><g><g><path d="m255.978 511.957c-11.412 0-22.14-4.443-30.209-12.513l-213.256-213.257c-16.657-16.657-16.657-43.76 0-60.417l213.257-213.257c8.068-8.07 18.797-12.513 30.208-12.513s22.14 4.443 30.209 12.513l213.257 213.257c16.657 16.657 16.657 43.76 0 60.417l-213.257 213.257c-8.068 8.07-18.797 12.513-30.209 12.513zm0-481.957c-3.398 0-6.593 1.323-8.996 3.726l-213.256 213.256c-4.96 4.96-4.96 13.031 0 17.991l213.257 213.258c2.403 2.402 5.598 3.726 8.996 3.726s6.593-1.323 8.996-3.726l213.257-213.258c4.96-4.96 4.96-13.031 0-17.991l-213.257-213.256c-2.404-2.403-5.598-3.726-8.997-3.726z"/></g><g><path d="m295.98 403.986h-80.003v-207.675h-37.799l77.801-121.084 77.801 121.084h-37.8v4.318c0 16.284 7.035 31.767 19.3 42.478l64.15 56.021-52.623 60.26-30.828-26.921v71.519zm-50.003-30h20.003v-107.546l57.963 50.616 13.157-15.066-41.553-36.286c-18.791-16.409-29.568-40.128-29.568-65.075v-34.318h12.864l-22.866-35.586-22.866 35.586h12.864v207.675z"/></g></g></svg>