<svg id="Capa_1" enable-background="new 0 0 512 512" height="512" viewBox="0 0 512 512" width="512" xmlns="http://www.w3.org/2000/svg"><g><path d="m61 90h30v-30h-30v-30h60v-30h-90v150h30z"/><path d="m181 90h5.729l32.562 65.125 26.833-13.417-28.6-57.2c13.976-7.645 23.476-22.487 23.476-39.508 0-24.813-20.187-45-45-45h-45v150h30zm0-60h15c8.271 0 15 6.729 15 15s-6.729 15-15 15h-15z"/><path d="m211 226c0-24.813-20.187-45-45-45h-45v150h30v-60h5.729l32.562 65.125 26.833-13.417-28.6-57.2c13.976-7.645 23.476-22.487 23.476-39.508zm-60 15v-30h15c8.271 0 15 6.729 15 15s-6.729 15-15 15z"/><path d="m361 120h-60v-30h30v-30h-30v-30h60v-30h-90v150h90z"/><path d="m481 120h-60v-30h30v-30h-30v-30h60v-30h-90v150h90z"/><path d="m90 211v-30c-9.503 0-80.659 0-90 0v30h30v120h30v-120z"/><path d="m241 181h30v150h-30z"/><path d="m301 226v105h30v-60h30v60h30c0-21.425 0-83.666 0-105 0-24.813-20.187-45-45-45s-45 20.187-45 45zm60 0v15h-30v-15c0-8.271 6.729-15 15-15s15 6.729 15 15z"/><path d="m451 301v-120h-30v150h91v-30z"/><path d="m421 377c0 22.838-17.106 41.744-39.176 44.61l-59.611-59.61h-261.213v150h261.213l60.301-60.301c38.314-3.314 68.486-35.54 68.486-74.699v-15h-30zm-111.213 105h-218.787v-90h218.787l30 30h-68.787v30h68.787z"/></g></svg>