<svg id="Capa_1" enable-background="new 0 0 512 512" height="512" viewBox="0 0 512 512" width="512" xmlns="http://www.w3.org/2000/svg"><g><path d="m337.518 245.867h30v191.269h-30z"/><path d="m475.817 244.463c-20.582-25.082-48.454-43.364-79.374-52.268-4.105-20.612-22.334-36.195-44.135-36.195-13.55 0-25.717 6.022-33.974 15.528-3.492-30.357-15.656-59.33-35.133-83.065-20.582-25.081-48.454-43.364-79.374-52.268-4.105-20.612-22.334-36.195-44.135-36.195s-40.03 15.583-44.135 36.195c-30.92 8.903-58.792 27.187-79.374 52.268-23.333 28.434-36.183 64.385-36.183 101.228v36.826c0 71.397 58.085 129.483 129.482 129.483h.418c11.199 0 21.766-4.06 30.03-11.483 7.97 7.136 18.482 11.483 29.971 11.483.908 0 1.812-.016 2.715-.034v26.552c0 71.396 58.085 129.482 129.482 129.482h.418c11.198 0 21.766-4.06 30.03-11.483 7.97 7.137 18.482 11.483 29.971 11.483 71.398 0 129.483-58.086 129.483-129.482v-36.826c0-36.844-12.85-72.795-36.183-101.229zm-285.916 81.537c-8.233 0-14.962-6.698-15-14.944l-.001-.252c0-.003 0-.005 0-.008v-.013l-30 .149c.018 4.019-1.533 7.802-4.369 10.65s-6.611 4.418-10.631 4.418h-.418c-54.855 0-99.482-44.628-99.482-99.482v-36.826c0-29.922 10.432-59.114 29.374-82.197 18.693-22.781 44.766-38.653 73.413-44.695l11.905-2.51v-15.29c0-8.271 6.729-15 15-15s15 6.729 15 15v15.289l11.905 2.51c28.647 6.042 54.72 21.914 73.413 44.695 18.942 23.083 29.374 52.275 29.374 82.197v36.826c0 54.855-44.628 99.483-99.483 99.483zm292.099 56.518c0 54.854-44.627 99.482-99.482 99.482-8.233 0-14.963-6.698-15-14.918l-.001-.271c0-.005 0-.01 0-.014l-30 .121v.014c.018 4.02-1.534 7.803-4.37 10.651s-6.611 4.417-10.63 4.417h-.418c-54.855 0-99.482-44.628-99.482-99.482v-30.708c55.609-14.531 96.768-65.194 96.768-125.292v-6.29c1.993-.523 3.999-1.003 6.019-1.429l11.905-2.51v-15.289c0-8.271 6.729-15 15-15s15 6.729 15 15v15.289l11.905 2.51c28.647 6.041 54.719 21.914 73.413 44.694 18.941 23.084 29.373 52.277 29.373 82.198z"/><path d="m144.901 89.867h30v191.269h-30z"/></g></svg>