<svg id="Capa_1" enable-background="new 0 0 512 512" height="512" viewBox="0 0 512 512" width="512" xmlns="http://www.w3.org/2000/svg"><g><path d="m489.118 146.789h-31.647v-146.785l-14.996-.004c-.02 0-.032 0-.052 0-64.523 0-124.985 31.662-161.735 84.699l-.667.962c-7.585-2.399-15.653-3.7-24.021-3.7s-16.436 1.301-24.021 3.7l-.667-.962c-36.752-53.04-97.208-84.699-161.735-84.699-.016 0-.036 0-.052 0l-14.996.004v146.785h-31.647v110h38.118v255.211h390v-255.211h38.118zm-68.118 335.211h-330v-225h330zm6.471-451.329v116.118h-93.077c-3.569-18.689-13.66-35.089-27.825-46.717 28.35-39.832 72.625-65.058 120.902-69.401zm-123.955 116.118h-95.031c6.381-20.167 25.267-34.827 47.516-34.827s41.134 14.661 47.515 34.827zm-218.987-116.118c48.273 4.345 92.553 29.572 120.902 69.402-14.165 11.627-24.256 28.028-27.825 46.717h-93.077zm374.589 196.118h-406.236v-50h406.235v50z"/><path d="m256.001 454.948 69.42-69.358c10.691-10.682 16.579-24.708 16.579-39.494s-5.888-28.812-16.578-39.493c-18.801-18.785-47.65-21.562-69.42-8.33-21.772-13.231-50.62-10.453-69.421 8.33-10.694 10.683-16.582 24.71-16.581 39.497.001 14.783 5.89 28.808 16.581 39.49zm-48.217-127.123c5.186-5.181 11.997-7.771 18.808-7.771s13.622 2.59 18.808 7.771l10.602 10.592 10.602-10.592c10.371-10.362 27.244-10.362 37.615 0 5.019 5.014 7.782 11.503 7.782 18.271 0 6.769-2.764 13.258-7.782 18.271l-48.216 48.173-48.217-48.173c-5.02-5.015-7.784-11.504-7.785-18.27-.001-6.767 2.763-13.256 7.783-18.272z"/></g></svg>