<svg id="Capa_1" enable-background="new 0 0 512 512" height="512" viewBox="0 0 512 512" width="512" xmlns="http://www.w3.org/2000/svg"><g><path d="m241 249.789v22.211h-30v30h30v30h30v-30h30v-30h-30v-22.211c21.428-6.458 37.083-26.366 37.083-49.872 0-28.719-23.364-52.083-52.083-52.083s-52.083 23.364-52.083 52.083c0 23.505 15.655 43.414 37.083 49.872zm15-71.955c12.177 0 22.083 9.906 22.083 22.083s-9.906 22.083-22.083 22.083-22.083-9.906-22.083-22.083 9.906-22.083 22.083-22.083z"/><path d="m368.083 199.916c0-61.802-50.28-112.082-112.083-112.082s-112.083 50.28-112.083 112.082v22.088h-60v57.913c0 79.321 53.952 146.268 127.083 166.102v35.981h-97.083v30h284.166v-30h-97.083v-35.981c73.131-19.833 127.083-86.78 127.083-166.102v-57.913h-60zm-194.166 0c0-45.26 36.822-82.082 82.083-82.082s82.083 36.822 82.083 82.082v80.001c0 45.261-36.822 82.083-82.083 82.083s-82.083-36.822-82.083-82.083zm97.083 282.084h-30v-30.661c4.945.429 9.946.661 15 .661s10.055-.232 15-.661zm127.083-229.996v27.913c0 78.345-63.738 142.083-142.083 142.083s-142.083-63.738-142.083-142.083v-27.913h30v27.913c0 61.803 50.28 112.083 112.083 112.083s112.083-50.28 112.083-112.083v-27.913z"/><path d="m241 0h30v57.834h-30z"/><path d="m155.5 22.91h30v57.833h-30z" transform="matrix(.866 -.5 .5 .866 -3.07 92.195)"/><path d="m92.91 85.5h30v57.834h-30z" transform="matrix(.5 -.866 .866 .5 -45.133 150.661)"/><path d="m312.583 36.827h57.833v30h-57.833z" transform="matrix(.5 -.866 .866 .5 125.866 321.66)"/><path d="m375.173 99.417h57.834v30h-57.834z" transform="matrix(.866 -.5 .5 .866 -3.07 217.376)"/></g></svg>