<svg id="Capa_1" enable-background="new 0 0 512 512" height="512" viewBox="0 0 512 512" width="512" xmlns="http://www.w3.org/2000/svg"><g><path d="m456.388 226.943c-35.238-95.041-99.347-159.838-102.059-162.549l-25.606-25.607v96.213c0 8.271-6.729 15-15 15s-15-6.729-15-15c0-74.439-60.561-135-135-135h-15v15c0 70.054-45.969 120.517-80.905 185.392-35.242 65.44-33.556 145.614 4.399 209.233 37.915 63.552 106.498 102.375 180.324 102.375h6.969c68.677 0 133.113-33.693 172.366-90.129 39.245-56.426 48.389-130.53 24.512-194.928zm-49.141 177.798c-33.648 48.377-88.876 77.259-147.737 77.259h-6.969c-63.047 0-122.271-33.622-154.561-87.745-32.578-54.606-34.014-123.439-3.75-179.639 33.052-61.375 77.942-111.991 83.839-183.64 51.134 7.017 90.652 50.992 90.652 104.023 0 24.813 20.187 45 45 45s45-20.187 45-45v-19.612c20.945 26.729 50.167 69.741 69.536 121.983 20.463 55.187 12.411 119.319-21.01 167.371z"/><path d="m238.723 256c0-24.813-20.187-45-45-45s-45 20.187-45 45 20.187 45 45 45 45-20.187 45-45zm-60 0c0-8.271 6.729-15 15-15s15 6.729 15 15-6.729 15-15 15-15-6.729-15-15z"/><path d="m313.723 331c-24.813 0-45 20.187-45 45s20.187 45 45 45 45-20.187 45-45-20.187-45-45-45zm0 60c-8.271 0-15-6.729-15-15s6.729-15 15-15 15 6.729 15 15-6.729 15-15 15z"/><path d="m136.569 301h234.307v30h-234.307z" transform="matrix(.64 -.768 .768 .64 -151.464 308.617)"/></g></svg>