<svg id="Capa_1" enable-background="new 0 0 512 512" height="512" viewBox="0 0 512 512" width="512" xmlns="http://www.w3.org/2000/svg"><g><path d="m503.232 25.598c-30.033-13.72-69.633-21.275-111.504-21.275s-81.471 7.556-111.521 21.282l-.896.41c-26.205 11.97-61.378 18.563-99.04 18.563-33.616 0-65.229-5.265-90.272-14.906v-29.672h-89.999v512h90v-112.998c26.418 8.518 57.644 13.125 90.272 13.125 41.871 0 81.471-7.556 111.497-21.271l.92-.42c26.205-11.97 61.378-18.563 99.04-18.563s72.834 6.593 99.04 18.563l21.231 9.699v-370.532zm-443.232 456.402h-30v-452h30zm422-127.029c-26.414-8.513-57.652-13.098-90.272-13.098-41.871 0-81.471 7.556-111.497 21.271l-.92.42c-26.205 11.97-61.378 18.563-99.04 18.563-33.616 0-65.229-5.265-90.272-14.906v-305.768c26.418 8.518 57.644 13.125 90.272 13.125 41.871 0 81.471-7.556 111.497-21.271l.92-.421c26.205-11.97 61.378-18.563 99.04-18.563 33.607 0 65.232 5.249 90.272 14.885z"/><path d="m286 108.78c-54.834 0-99.445 44.61-99.445 99.444s44.611 99.446 99.445 99.446 99.445-44.611 99.445-99.445-44.611-99.445-99.445-99.445zm69.445 99.445c0 10.126-2.197 19.743-6.11 28.427-10.802-4.917-18.335-15.805-18.335-28.427 0-12.621 7.533-23.51 18.335-28.426 3.913 8.683 6.11 18.3 6.11 28.426zm-132.654 28.705c-3.992-8.756-6.236-18.471-6.236-28.705s2.243-19.949 6.235-28.705c10.753 5.089 18.21 16.041 18.21 28.705s-7.457 23.616-18.209 28.705zm18.282 24.187c17.919-10.819 29.927-30.478 29.927-52.892s-12.008-42.073-29.927-52.892c12.121-10.311 27.805-16.553 44.927-16.553 17.222 0 32.987 6.315 45.136 16.733-18.02 10.668-30.136 30.297-30.136 52.712s12.116 42.044 30.135 52.712c-12.148 10.417-27.913 16.733-45.135 16.733-17.123 0-32.806-6.242-44.927-16.553z"/></g></svg>