<svg id="Capa_1" enable-background="new 0 0 512 512" height="512" viewBox="0 0 512 512" width="512" xmlns="http://www.w3.org/2000/svg"><g><path d="m502.936 406.736c-9.347-4.27-20.874-6.778-32.788-7.532 2.829-7.883 4.383-16.366 4.383-25.211v-35.098h-180.732c16.99-35.558 28.09-71.249 33.305-106.979h20.563v-30h-17.562c3.482-64.841-12.405-129.73-47.674-194.122l-4.269-7.794h-11.842l-146.594 37.601-52.516 164.315h-22.877v30h13.288l-15.331 47.971 148.578 59.009h-153.399v35.098c0 8.843 1.553 17.324 4.381 25.205-11.974.746-23.571 3.26-32.976 7.557l-8.874 4.086v101.158h512v-101.148zm-359.685-344.198 118.184-30.314c26.048 50.711 39.245 101.871 39.245 152.225 0 5.813-.183 11.636-.534 17.468h-201.441zm-54.134 169.378h207.693c-5.56 34.296-17.097 68.781-34.513 103.068l-182.904-72.642zm-21.648 136.98h377.062v5.098c0 10.756-3.797 20.638-10.116 28.388-4.457 1.163-8.677 2.616-12.525 4.374l-.255.117c-14.936 6.821-41.138 6.822-56.106-.015l-.265-.121c-22.711-10.374-58.292-10.375-81.046.019l-.255.117c-14.936 6.823-41.138 6.822-56.106-.015l-.265-.121c-22.711-10.374-58.292-10.375-81.046.019l-.255.117c-14.936 6.823-41.138 6.822-56.106-.015l-.265-.121c-3.781-1.727-7.925-3.16-12.301-4.312-6.339-7.756-10.15-17.656-10.15-28.431v-5.098zm414.531 113.104h-452v-50.897c15.02-3.699 35.089-2.728 47.413 2.902l.339.154c22.711 10.375 58.292 10.376 80.972.015l.329-.15c14.935-6.821 41.138-6.822 56.032-.019l.339.154c22.712 10.375 58.293 10.376 80.972.015l.329-.15c14.936-6.821 41.139-6.822 56.032-.019l.339.154c22.71 10.374 58.292 10.375 80.972.015l.329-.15c12.406-5.666 32.588-6.627 47.604-2.89v50.866z"/></g></svg>