<svg id="Layer_1" enable-background="new 0 0 510 510" height="512" viewBox="0 0 510 510" width="512" xmlns="http://www.w3.org/2000/svg"><g><path d="m90 120h30v30h-30z"/><path d="m150 120h30v30h-30z"/><path d="m405 90h-135v90h165v-60c0-16.542-13.458-30-30-30zm0 60h-105v-30h105z"/><path d="m165 300v-60h345v-120c0-49.626-40.374-90-90-90h-15v-30h-30v30h-30v-30h-30v30h-225c-49.626 0-90 40.374-90 90v120h45v60h45.306l-.051 32.574c-35.787 12.575-60.255 69.871-60.255 104.093 0 40.436 33.644 73.333 75 73.333s75-32.897 75-73.333c0-35.233-24.916-91.24-59.745-103.915l.051-32.752zm-105 136.667c0-20.425 13.243-54.044 30.2-69.384l-.173 110.241c-17.472-5.956-30.027-22.017-30.027-40.857zm90 0c0 18.82-12.528 34.869-29.973 40.839l.173-109.856c16.607 15.359 29.8 48.563 29.8 69.017zm-120-316.667c0-33.084 26.916-60 60-60h330c33.084 0 60 26.916 60 60v90h-450zm45 120h60v30h-60z"/></g></svg>