<svg id="Capa_1" enable-background="new 0 0 512 512" height="512" viewBox="0 0 512 512" width="512" xmlns="http://www.w3.org/2000/svg"><g id="Soya_2_"><g><path d="m203.5 330c-41.355 0-75-33.645-75-75s33.645-75 75-75 75 33.645 75 75-33.645 75-75 75zm0-120c-24.813 0-45 20.187-45 45s20.187 45 45 45 45-20.187 45-45-20.187-45-45-45z"/></g><g><path d="m233.5 450c-24.813 0-45-20.187-45-45s20.187-45 45-45 45 20.187 45 45-20.187 45-45 45zm0-60c-8.271 0-15 6.729-15 15s6.729 15 15 15 15-6.729 15-15-6.729-15-15-15z"/></g><g><path d="m233.5 150c-24.813 0-45-20.187-45-45s20.187-45 45-45 45 20.187 45 45-20.187 45-45 45zm0-60c-8.271 0-15 6.729-15 15s6.729 15 15 15 15-6.729 15-15-6.729-15-15-15z"/></g><g><path d="m338.5 512h-101.16c-44.174 0-85.281-27.767-101.378-68.733-6.991-17.791-9.085-35.908-6.224-53.847 1.823-11.428-2.264-22.714-10.665-29.454-32.14-25.782-50.573-64.041-50.573-104.966 0-40.924 18.433-79.183 50.573-104.966 8.402-6.739 12.488-18.026 10.665-29.455-2.862-17.938-.768-36.052 6.225-53.839 15.692-39.919 56.449-66.74 101.416-66.74h206.121v30h-60c-24.813 0-45 20.187-45 45v30c0 20.442-6.036 40.293-17.455 57.408-5.101 7.646-4.951 17.912.402 27.463 11.157 19.902 17.053 42.423 17.053 65.129s-5.896 45.227-17.053 65.129c-5.353 9.551-5.503 19.817-.402 27.463 11.419 17.115 17.455 36.966 17.455 57.408zm-101.121-482c-32.741 0-62.277 19.175-73.497 47.716-5.005 12.732-6.525 25.563-4.52 38.137 3.518 22.049-4.728 44.113-21.518 57.583-25.003 20.058-39.344 49.787-39.344 81.564 0 31.778 14.34 61.507 39.345 81.565 16.79 13.469 25.035 35.532 21.518 57.581-2.006 12.577-.485 25.412 4.521 38.15 11.499 29.265 41.705 49.704 73.456 49.704h71.16v-77c0-14.496-4.292-28.589-12.41-40.757-11.317-16.961-11.628-39.485-.812-58.781 8.65-15.433 13.222-32.882 13.222-50.462s-4.572-35.029-13.222-50.461c-10.816-19.296-10.505-41.82.812-58.781 8.119-12.168 12.41-26.262 12.41-40.757v-30.001c0-16.869 5.6-32.457 15.036-45z"/></g></g></svg>