<?xml version="1.0" encoding="iso-8859-1"?>
<!-- Generator: Adobe Illustrator 19.0.0, SVG Export Plug-In . SVG Version: 6.00 Build 0)  -->
<svg xmlns="http://www.w3.org/2000/svg" xmlns:xlink="http://www.w3.org/1999/xlink" version="1.1" id="Layer_1" x="0px" y="0px" viewBox="0 0 512 512" style="enable-background:new 0 0 512 512;" xml:space="preserve">
<g>
	<g>
		<path d="M324.267,198.163c-21.958,0-39.822,17.864-39.822,39.822c0,21.958,17.864,39.822,39.822,39.822    c21.958,0,39.822-17.864,39.822-39.822C364.089,216.027,346.225,198.163,324.267,198.163z"/>
	</g>
</g>
<g>
	<g>
		<path d="M0,118.518v238.933h56.889v36.03h34.133v-36.03h329.956v36.03h34.133v-36.03H512V118.518H0z M34.133,323.318V152.652    h206.616c-22.167,21.701-35.949,51.935-35.949,85.333c0,33.398,13.782,63.633,35.949,85.333H34.133z M324.267,323.318    c-47.053,0-85.333-38.281-85.333-85.333s38.281-85.333,85.333-85.333s85.333,38.281,85.333,85.333    S371.319,323.318,324.267,323.318z M477.867,323.318h-70.083c22.167-21.701,35.949-51.935,35.949-85.333    c0-33.398-13.782-63.632-35.949-85.333h70.083V323.318z"/>
	</g>
</g>
<g>
	<g>
		<rect x="79.644" y="209.544" width="79.644" height="56.889"/>
	</g>
</g>
<g>
</g>
<g>
</g>
<g>
</g>
<g>
</g>
<g>
</g>
<g>
</g>
<g>
</g>
<g>
</g>
<g>
</g>
<g>
</g>
<g>
</g>
<g>
</g>
<g>
</g>
<g>
</g>
<g>
</g>
</svg>
