<svg id="Capa_1" enable-background="new 0 0 512 512" height="512" viewBox="0 0 512 512" width="512" xmlns="http://www.w3.org/2000/svg"><g><path d="m497.821 157.655c-12.558-12.558-30.346-16.763-46.417-12.638v-59.225c0-47.306-38.451-85.792-85.714-85.792h-335.292v87.899c-18.786 19.068-30.398 45.221-30.398 74.039s11.612 54.97 30.398 74.038v276.024h421.006v-239.355l46.417-46.417c18.906-18.905 18.906-49.668 0-68.573zm-201.902 228.063-26.161-26.161 137.929-137.929 26.16 26.161zm-54.51 2.187 7.142-7.142 26.161 26.161-7.143 7.143-31.231 5.07zm-135.851-120.409c16.047 0 31.266-3.606 44.899-10.04v75.323l-45.707-20.661-44.362 25.433v-80.222c13.702 6.514 29.017 10.167 45.17 10.167zm74.889-14.348h153.307l-29.99 29.99h-123.317zm240.493-174.512c-6.151-2.638-12.846-4.032-19.778-4.032h-26.01v-23.525c0-7.427-1.607-14.481-4.47-20.854 26.025 2.326 46.947 22.641 50.258 48.411zm-96.883-48.646c11.637 0 21.104 9.461 21.104 21.089v53.515h56c5.416 0 10.453 2.084 14.184 5.867 3.997 4.054 6.151 9.587 6.066 15.577l-.002 36.01h.004v3.44l-57.669 57.669h-172.241c12.343-17.278 19.613-38.415 19.613-61.219 0-58.205-47.353-105.559-105.558-105.559-16.154 0-31.468 3.652-45.17 10.167v-36.556zm-218.499 56.379c41.668 0 75.568 33.9 75.568 75.569s-33.9 75.567-75.568 75.567-75.568-33.899-75.568-75.567 33.9-75.569 75.568-75.569zm315.855 395.641h-361.025v-109.89l45.978-26.359 74.081 33.485v-66.118h93.326l-60.416 60.416-13.29 81.863 81.863-13.29 139.482-139.483v179.376zm55.201-276.988-21.561 21.562-26.16-26.161 21.56-21.56c7.213-7.212 18.949-7.212 26.161 0v-.001c7.213 7.212 7.213 18.947 0 26.16z"/><path d="m105.558 211.328c27.234 0 49.391-22.156 49.391-49.39 0-27.235-22.157-49.391-49.391-49.391s-49.391 22.157-49.391 49.391 22.157 49.39 49.391 49.39zm0-68.791c10.698 0 19.401 8.703 19.401 19.401 0 10.697-8.703 19.4-19.401 19.4-10.697 0-19.401-8.703-19.401-19.4.001-10.698 8.704-19.401 19.401-19.401z"/><path d="m262.55 163.177h96.832v29.99h-96.832z"/></g></svg>