<svg id="Capa_1" enable-background="new 0 0 511.623 511.623" height="512" viewBox="0 0 511.623 511.623" width="512" xmlns="http://www.w3.org/2000/svg"><g><path d="m421.811 274.623h-141.997c13.944-16.318 31.383-26.614 53.425-28.392v-29.902c-23.418 1.889-45.024 10.828-62.427 25.201v-39.7c20.73-5.361 37.175-21.575 42.723-42.377 58.695-16.173 58.658-99.295 0-115.445-16.172-58.695-99.295-58.658-115.445 0-58.696 16.172-58.658 99.295 0 115.445 5.547 20.802 21.992 37.016 42.722 42.377v39.7c-17.403-14.373-39.008-23.312-62.426-25.201v29.902c22.041 1.778 39.481 12.074 53.425 28.392h-142v90h28.987l46.15 147h181.725l46.15-147h28.988zm-195.697-129.015v-14.09h-14.18c-15.77-.841-28.123-13.975-28.123-29.788s12.353-28.947 28.123-29.788h14.18v-14.09c.84-15.77 13.885-28.122 29.697-28.122s28.856 12.353 29.697 28.122v14.09h14.181c15.77.841 28.122 13.975 28.122 29.788s-12.353 28.947-28.122 29.788h-14.181v14.09c-3.134 37.283-56.268 37.267-59.394 0zm-106.303 159.015h272v30h-272zm204.837 177h-137.674l-36.732-117h211.138z"/><path d="m240.811 86.23h30v30h-30z"/></g></svg>