<svg id="Capa_1" enable-background="new 0 0 512 512" height="512" viewBox="0 0 512 512" width="512" xmlns="http://www.w3.org/2000/svg"><path d="m512 0h-74.012l-98.791 101.681c-40.208-65.724-88.437-101.681-136.959-101.681-52.007 0-103.679 41.302-145.498 116.297-34.468 61.813-56.74 137.753-56.74 193.465 0 111.514 90.724 202.238 202.238 202.238s202.238-90.724 202.238-202.238c0-31.309-7.233-70.298-20.367-110.081l127.276-130.929zm-372.779 57.814c21.143-18.456 42.345-27.814 63.017-27.814 20.673 0 41.875 9.358 63.017 27.814 18.262 15.942 36.243 38.714 52.299 66.144l-9.625 9.906h-226.606c.539-.987 1.074-1.98 1.619-2.958 17.033-30.545 36.494-55.82 56.279-73.092zm110.414 136.051h-195.419c3.727-10.112 7.819-20.163 12.234-30h212.332zm-29.148 30-7.564 7.785c-15.613 1.951-30.194 9.274-40.732 20.633-6.656 7.174-11.446 15.595-14.183 24.688l-15.799-10.002-60.019 38-49.206-31.153c2.424-15.883 6.271-32.785 11.306-49.951zm-35.119 72.897c-.406-8.96 2.726-17.51 8.816-24.075 5.264-5.674 12.442-9.504 20.262-10.936l40.598 38.257c-2.727 13.663-8.965 23.925-18.973 31.214-17.064 12.429-41.496 13.979-58.778 13.138 4.805-11.782 8.965-27.939 8.075-47.598zm84.91-24.713-.433.685-28.718-27.062 55.542-57.167 29.471 27.771-54.843 56.417zm-187.855 161.32h239.63c-31.024 30.082-73.291 48.631-119.815 48.631s-88.791-18.549-119.815-48.631zm264.328-30h-289.025c-17.528-26.967-27.726-59.117-27.726-93.607 0-.76.02-1.54.03-2.309l52.161 33.024 60.02-38 12.86 8.141c-2.184 22.126-12.298 35.265-13.219 36.419l-16.532 18.968 24.911 5.319c.628.135 15.254 3.21 34.479 3.21.467 0 .938-.002 1.411-.006 27.739-.219 50.45-6.604 67.5-18.977 13.85-10.05 23.394-23.623 28.538-40.476l40.122 25.399 52.162-33.021c.01.767.034 1.551.034 2.307 0 34.492-10.198 66.642-27.726 93.609zm24.755-129.562-49.226 31.163-25.084-15.88 63.119-64.931c5.034 17.225 8.815 33.998 11.191 49.648zm109.988-217.346-134.44 138.301-29.477-27.777 133.091-136.985h31.062z"/></svg>