<svg id="Capa_1" enable-background="new 0 0 512 512" height="512" viewBox="0 0 512 512" width="512" xmlns="http://www.w3.org/2000/svg"><g><path d="m297.324 121.757v-61.756h-35v-15.001c0-24.813-20.187-45-45-45s-45 20.186-45 45v15.001h-35v61.757c-29.456 6.912-51.454 33.404-51.454 64.938v325.304h262.909v-325.305c-.001-31.534-21.999-58.027-51.455-64.938zm-95-76.757c0-8.271 6.729-15 15-15s15 6.728 15 15v15h-30zm65 45v30h-100v-30zm-114.759 60h129.518c20.234 0 36.695 16.462 36.695 36.695v79.046h-24.567c-18.329-23.814-46.494-37.803-76.887-37.803s-58.558 13.989-76.887 37.803h-24.567v-79.046c0-20.233 16.461-36.695 36.695-36.695zm166.213 145.741v88.517h-40.535l-4.427 6.899c-12.417 19.351-33.536 30.905-56.493 30.905-22.956 0-44.075-11.554-56.492-30.905l-4.427-6.899h-40.534v-88.517h40.535l4.427-6.899c12.417-19.351 33.536-30.904 56.492-30.904s44.075 11.553 56.493 30.904l4.427 6.899zm-202.908 186.259v-67.743h24.567c18.329 23.815 46.494 37.804 76.887 37.804s58.559-13.989 76.888-37.804h24.567v67.743z"/><path d="m320.217 0h105.913v30h-105.913z"/><path d="m358.174 53.521h30v65.286h-30z" transform="matrix(.342 -.94 .94 .342 164.574 407.363)"/></g></svg>