<svg id="Capa_1" enable-background="new 0 0 510 510" height="512" viewBox="0 0 510 510" width="512" xmlns="http://www.w3.org/2000/svg"><g><path d="m390 480v-90c0-31.365-12.215-60.853-34.394-83.032l-10.606-10.607-10.606 10.606c-22.179 22.18-34.394 51.668-34.394 83.033v90h-30v30h30 90 30v-30zm-60 0v-90c0-17.733 5.245-34.662 15-49.013 9.755 14.351 15 31.279 15 49.013v90z"/><path d="m240 405h30v-30h-30v-228.541l-20.73-41.459h-24.27v-105h-30v105h-24.271l-20.729 41.459v228.541h-30v30h30 45v75h-30v30h90v-30h-30v-75zm-80.73-270h41.459l9.271 18.541v41.459h-60v-41.459zm-9.27 90h60v150h-60z"/></g></svg>