<svg id="Capa_1" enable-background="new 0 0 512 512" height="512" viewBox="0 0 512 512" width="512" xmlns="http://www.w3.org/2000/svg"><g><path d="m414.208 49.431c-42.433-31.876-98.62-49.431-158.208-49.431s-115.775 17.555-158.208 49.431c-43.716 32.839-67.792 76.9-67.792 124.069 0 4.614.238 9.274.707 13.85 2.665 26.021 15.551 49.26 36.285 65.437 7.001 5.462 14.701 9.9 22.838 13.262-17.721 16.447-28.83 39.924-28.83 65.951 0 82.71 60.561 150 135 150 5.257 0 10.307-.906 15-2.57v32.57h90v-32.57c4.693 1.664 9.743 2.57 15 2.57 74.439 0 135-67.29 135-150 0-26.032-11.114-49.514-28.841-65.962 8.14-3.362 15.847-7.789 22.849-13.252 20.734-16.177 33.62-39.416 36.285-65.437.469-4.575.707-9.235.707-13.85 0-47.168-24.076-91.229-67.792-124.068zm-203.208 387.569c0 8.271-6.729 15-15 15-57.897 0-105-53.832-105-120 0-33.084 26.916-60 60-60s60 26.916 60 60zm30 45v-107.58c4.695 1.665 9.742 2.58 15 2.58s10.305-.915 15-2.58v107.58zm75-30c-8.271 0-15-6.729-15-15v-105c0-33.084 26.916-60 60-60s60 26.916 60 60c0 66.168-47.103 120-105 120zm135.45-267.707c-1.824 17.813-10.666 33.738-24.896 44.84-14.707 11.475-33.875 16.502-52.583 13.797-4.238-.606-8.567-.93-12.971-.93-49.626 0-90 40.374-90 90 0 8.271-6.729 15-15 15s-15-6.729-15-15c0-49.626-40.374-90-90-90-4.404 0-8.733.324-12.969.938-18.713 2.7-37.877-2.33-52.585-13.805-14.229-11.102-23.071-27.026-24.896-44.84-.365-3.564-.55-7.196-.55-10.793 0-79.126 87.925-143.5 196-143.5s196 64.374 196 143.5c0 3.597-.185 7.229-.55 10.793z"/><path d="m121 317h30v30h-30z"/><path d="m151 377h30v30h-30z"/><path d="m361 317h30v30h-30z"/><path d="m331 377h30v30h-30z"/></g></svg>