<svg id="Capa_1" enable-background="new 0 0 512 512" height="512" viewBox="0 0 512 512" width="512" xmlns="http://www.w3.org/2000/svg"><g><g><path d="m211 122h-37.744c-7.956 0-15.499 1.795-22.256 4.989v-126.989h-30v126.989c-6.757-3.194-14.299-4.989-22.256-4.989h-37.744v-92h-30v369.744c0 28.814 23.442 52.256 52.256 52.256h37.744v60h30v-60h37.744c28.814 0 52.256-23.442 52.256-52.256v-369.744h-30zm-37.744 30h37.744v45h-37.744c-7.956 0-15.499 1.795-22.256 4.989v-27.733c0-12.272 9.984-22.256 22.256-22.256zm-52.256 124.989c-6.757-3.194-14.299-4.989-22.256-4.989h-37.744v-45h37.744c12.272 0 22.256 9.984 22.256 22.256zm-22.256 25.011c12.272 0 22.256 9.984 22.256 22.256v27.733c-6.757-3.194-14.299-4.989-22.256-4.989h-37.744v-45zm52.256 22.256c0-12.271 9.984-22.256 22.256-22.256h37.744v45h-37.744c-7.956 0-15.499 1.795-22.256 4.989zm22.256-52.256c-7.956 0-15.499 1.795-22.256 4.989v-27.733c0-12.271 9.984-22.256 22.256-22.256h37.744v45zm-74.512-120c12.272 0 22.256 9.984 22.256 22.256v27.733c-6.757-3.194-14.299-4.989-22.256-4.989h-37.744v-45zm-15.488 270c-12.272 0-22.256-9.984-22.256-22.256v-22.744h37.744c12.272 0 22.256 9.984 22.256 22.256v22.744zm105.488 0h-37.744v-22.744c0-12.271 9.984-22.256 22.256-22.256h37.744v22.744c0 12.272-9.984 22.256-22.256 22.256z"/><path d="m451 105v92h-37.744c-7.956 0-15.499 1.795-22.256 4.989v-126.989h-30v126.989c-6.757-3.194-14.299-4.989-22.256-4.989h-37.744v-92h-30v294.744c0 28.815 23.442 52.256 52.256 52.256h37.744v60h30v-60h37.744c28.814 0 52.256-23.441 52.256-52.256v-294.744zm-37.744 122h37.744v45h-37.744c-7.956 0-15.499 1.795-22.256 4.989v-27.733c0-12.272 9.984-22.256 22.256-22.256zm-52.256 124.989c-6.757-3.194-14.299-4.989-22.256-4.989h-37.744v-45h37.744c12.272 0 22.256 9.984 22.256 22.256zm30-27.733c0-12.271 9.984-22.256 22.256-22.256h37.744v45h-37.744c-7.956 0-15.499 1.795-22.256 4.989zm-52.256-97.256c12.272 0 22.256 9.984 22.256 22.256v27.733c-6.757-3.194-14.299-4.989-22.256-4.989h-37.744v-45zm-15.488 195c-12.272 0-22.256-9.984-22.256-22.256v-22.744h37.744c12.272 0 22.256 9.984 22.256 22.256v22.744zm105.488 0h-37.744v-22.744c0-12.271 9.984-22.256 22.256-22.256h37.744v22.744c0 12.272-9.984 22.256-22.256 22.256z"/></g></g></svg>