<?xml version="1.0" encoding="iso-8859-1"?>
<!-- Generator: Adobe Illustrator 19.0.0, SVG Export Plug-In . SVG Version: 6.00 Build 0)  -->
<svg xmlns="http://www.w3.org/2000/svg" xmlns:xlink="http://www.w3.org/1999/xlink" version="1.1" id="Layer_1" x="0px" y="0px" viewBox="0 0 512 512" style="enable-background:new 0 0 512 512;" xml:space="preserve">
<g>
	<g>
		<path d="M117.612,360.932l-45.84,12.286L59.489,419.07l33.557,33.566l45.84-12.286l12.283-45.852L117.612,360.932z     M114.32,415.778l-12.282,3.292l-8.992-8.994l3.291-12.286l12.282-3.292l8.992,8.994L114.32,415.778z"/>
	</g>
</g>
<g>
	<g>
		<path d="M501.749,59.907l-9.169-19.201l-75.229,75.249c-5.866,5.867-15.41,5.867-21.275,0s-5.865-15.413,0-21.28l75.229-75.249    l-19.196-9.172c-40.185-19.201-88.353-10.931-119.855,20.58c-28.922,28.929-38.259,71.913-24.74,109.867L140.705,307.556    c-37.945-13.523-80.915-4.183-109.837,24.747c-41.695,41.707-40.617,108.333,0,148.961c37.608,37.618,104.718,44.214,148.92,0    c28.922-28.93,38.259-71.913,24.74-109.867l166.808-166.854c37.942,13.521,80.915,4.183,109.838-24.747    C512.677,148.284,520.945,100.105,501.749,59.907z M459.9,158.517c-22.502,22.51-56.909,28.42-85.615,14.705l-9.599-4.586    L168.629,364.747l4.585,9.601c13.711,28.712,7.804,63.127-14.7,85.637c-30.831,30.839-78.291,28.088-106.372,0    c-31.591-31.6-27.321-79.073,0-106.401c14.417-14.421,33.717-22.028,53.274-22.028c10.971,0,22.024,2.394,32.34,7.323l9.599,4.586    l196.058-196.11l-4.585-9.602c-13.712-28.712-7.804-63.127,14.7-85.637c17.01-17.015,40.822-24.545,63.827-21.285l-42.553,42.565    c-17.596,17.601-17.596,46.24,0,63.841c17.596,17.601,46.229,17.6,63.823,0l42.554-42.565    C484.437,117.686,476.91,141.503,459.9,158.517z"/>
	</g>
</g>
<g>
</g>
<g>
</g>
<g>
</g>
<g>
</g>
<g>
</g>
<g>
</g>
<g>
</g>
<g>
</g>
<g>
</g>
<g>
</g>
<g>
</g>
<g>
</g>
<g>
</g>
<g>
</g>
<g>
</g>
</svg>
