<svg id="Capa_1" enable-background="new 0 0 512 512" height="512" viewBox="0 0 512 512" width="512" xmlns="http://www.w3.org/2000/svg"><g><path d="m121 0v121h-90v150h90v241h270v-62.076c50.816-7.301 90-51.119 90-103.924s-39.184-96.623-90-103.924v-242.076zm-60 151h150v80l7.5 10h-157.5zm90 331v-211h127.5l-37.5-50v-100h-90v-91h210v212.076c-50.816 7.301-90 51.119-90 103.924 0 25.087 9.272 49.425 25.777 68.455l-22.841 36.545h87.064v31zm300-136c0 41.355-33.645 75-75 75h-47.936l7.035-11.255-9.282-8.426c-16.004-14.527-24.817-34.173-24.817-55.319 0-41.355 33.645-75 75-75s75 33.645 75 75z"/><path d="m361 346h-30c0 24.813 20.187 45 45 45s45-20.187 45-45h-30c0 8.271-6.729 15-15 15s-15-6.729-15-15z"/><path d="m91 181h30v30h-30z"/><path d="m151 181h30v30h-30z"/><path d="m211 60h90v30h-90z"/></g></svg>