<svg id="Capa_1" enable-background="new 0 0 510 510" height="512" viewBox="0 0 510 510" width="512" xmlns="http://www.w3.org/2000/svg"><g><path d="m510 60h-151.109c-20.779-35.84-59.565-60-103.891-60s-83.112 24.16-103.891 60h-151.109v360h208.491c-6.968 34.191-37.271 60-73.491 60h-15v30h270v-30h-15c-36.219 0-66.523-25.809-73.491-60h208.491zm-255-30c49.626 0 90 40.374 90 90 0 16.384-4.403 31.758-12.085 45.006-9.222-15.891-23.121-28.59-39.63-36.393 4.253-6.869 6.715-14.957 6.715-23.613 0-24.813-20.187-45-45-45s-45 20.187-45 45c0 8.656 2.462 16.744 6.715 23.613-16.509 7.803-30.408 20.502-39.63 36.393-7.682-13.248-12.085-28.621-12.085-45.006 0-49.626 40.374-90 90-90zm-15 75c0-8.271 6.729-15 15-15s15 6.729 15 15-6.729 15-15 15-15-6.729-15-15zm15 45c25.602 0 48.202 16.379 56.561 39.949-15.466 12.531-35.151 20.051-56.561 20.051s-41.095-7.52-56.562-20.051c8.36-23.57 30.959-39.949 56.562-39.949zm-116.203-60c-19.635 76.006 38.097 150 116.203 150 78.176 0 135.817-74.074 116.203-150h108.797v240h-450v-240zm162.799 390h-93.192c16.103-15.764 27.165-36.652 30.52-60h32.152c3.355 23.348 14.417 44.236 30.52 60zm-271.596-90v-30h450v30z"/><path d="m165 270h180v30h-180z"/></g></svg>