<svg id="Capa_1" enable-background="new 0 0 512 512" height="512" viewBox="0 0 512 512" width="512" xmlns="http://www.w3.org/2000/svg"><g><path d="m407 120v-45c0-41.355-33.645-75-75-75h-152c-41.355 0-75 33.645-75 75v45h-105v392h512v-392zm75 30v90h-75v-90zm-105-75v165h-30v-207.42c17.459 6.192 30 22.865 30 42.42zm-182 15h122v30h-122zm122-30h-122v-30h122zm-122 90h122v90h-122zm-30-117.42v207.42h-30v-165c0-19.555 12.541-36.228 30-42.42zm-60 117.42v90h-75v-90zm-75 231.928c8.833 5.123 19.075 8.072 30 8.072v92h-30zm392 8.072v92h-332v-92zm30 92v-92c10.925 0 21.167-2.949 30-8.072v100.072zm0-122h-392c-16.542 0-30-13.458-30-30v-60h452v60c0 16.542-13.458 30-30 30z"/></g></svg>