<?xml version="1.0" encoding="iso-8859-1"?>
<!-- Generator: Adobe Illustrator 19.0.0, SVG Export Plug-In . SVG Version: 6.00 Build 0)  -->
<svg xmlns="http://www.w3.org/2000/svg" xmlns:xlink="http://www.w3.org/1999/xlink" version="1.1" id="Layer_1" x="0px" y="0px" viewBox="0 0 512 512" style="enable-background:new 0 0 512 512;" xml:space="preserve">
<g>
	<g>
		<path d="M396.038,231.843c29.695,0,59.392-11.304,81.998-33.91C499.938,176.031,512,146.91,512,115.935    s-12.063-60.095-33.965-81.998c-45.215-45.215-118.783-45.213-163.996,0c-41.618,41.62-44.924,107.263-9.922,152.702    l-12.007,12.007l-30.614-30.614l11.826-11.826l-21.216-21.217l-44.867,44.868l21.216,21.216l11.826-11.826l30.614,30.615    l-11.431,11.431c-42.306-37.519-107.27-36.033-147.773,4.47L31.54,315.914c-42.053,42.052-42.053,110.477,0,152.53l11.989,11.99    c21.026,21.026,48.646,31.54,76.265,31.54c27.62,0,55.239-10.514,76.266-31.54l80.151-80.151    c40.504-40.503,41.989-105.467,4.47-147.773l11.431-11.431l124.281,124.278l21.216-21.216l-124.28-124.28l12.007-12.006    C346.091,223.845,371.065,231.843,396.038,231.843z M254.995,379.065l-80.151,80.151c-30.355,30.355-79.745,30.353-110.099,0    l-11.989-11.99c-30.354-30.354-30.354-79.744,0-110.098l80.151-80.151c30.355-30.354,79.746-30.354,110.099,0l11.989,11.99    C285.35,299.322,285.35,348.712,254.995,379.065z M335.257,55.153c16.759-16.759,38.768-25.136,60.782-25.136    c22.009,0,44.026,8.38,60.781,25.136c16.234,16.235,25.177,37.821,25.177,60.782s-8.94,44.546-25.177,60.781    c-16.759,16.759-38.768,25.139-60.782,25.136c-22.009-0.002-44.026-8.38-60.781-25.136    C301.742,143.201,301.743,88.668,335.257,55.153z"/>
	</g>
</g>
<g>
	<g>
		<path d="M244.387,279.577l-21.216,21.215c6.204,6.204,9.62,14.452,9.62,23.225c0,8.773-3.417,17.021-9.619,23.224l-23.238,23.238    l21.216,21.217l23.238-23.238c11.871-11.871,18.408-27.653,18.408-44.44S256.257,291.448,244.387,279.577z"/>
	</g>
</g>
<g>
	<g>
		<polygon points="455.644,77.544 434.428,56.328 374.823,115.934 434.428,175.541 455.644,154.325 417.255,115.934   "/>
	</g>
</g>
<g>
</g>
<g>
</g>
<g>
</g>
<g>
</g>
<g>
</g>
<g>
</g>
<g>
</g>
<g>
</g>
<g>
</g>
<g>
</g>
<g>
</g>
<g>
</g>
<g>
</g>
<g>
</g>
<g>
</g>
</svg>
