<svg id="Capa_1" enable-background="new 0 0 512 512" height="512" viewBox="0 0 512 512" width="512" xmlns="http://www.w3.org/2000/svg"><g><path d="m430.941 215.473c2.73-34.671 17.537-66.9 42.396-91.76l34.27-34.269-21.213-21.213-34.27 34.269c-30.529 30.53-48.474 70.283-51.258 112.973h-129.866v-5.555c0-26.63 5.167-52.607 15.358-77.21 10.19-24.604 24.905-46.626 43.735-65.456l46.039-46.039-21.212-21.213-46.039 46.039c-21.63 21.63-38.533 46.927-50.239 75.188s-17.642 58.101-17.642 88.691v5.555h-126.84c2.73-34.671 17.537-66.9 42.396-91.76l34.27-34.269-21.213-21.213-34.27 34.269c-30.528 30.529-48.474 70.282-51.257 112.973h-84.086v296.527h512v-296.527zm-3.482 112.324c-.033 6.581-5.396 11.925-11.985 11.925-6.608 0-11.985-5.377-11.987-11.893.244-3.675 5.201-13.213 11.992-23.729 6.765 10.475 11.709 19.987 11.98 23.697zm-316.782 0c-.033 6.581-5.396 11.925-11.985 11.925-6.609 0-11.985-5.377-11.987-11.893.244-3.674 5.199-13.21 11.987-23.722 6.769 10.483 11.715 19.994 11.985 23.69zm-26.985-82.324v27.688c-2.743 3.717-6.913 9.545-11.122 16.113-14.219 22.188-15.863 32.578-15.863 38.463 0 23.15 18.834 41.985 41.985 41.985 23.15 0 41.985-18.835 41.985-41.985 0-5.885-1.645-16.274-15.863-38.462-4.209-6.569-8.379-12.397-11.122-16.114v-27.688h127.308v27.666c-3.484 4.681-9.373 12.827-15.313 22.098-17.976 28.05-20.055 40.77-20.055 47.896 0 27.773 22.595 50.368 50.368 50.368s50.368-22.595 50.368-50.368c0-7.127-2.079-19.847-20.055-47.896-5.941-9.271-11.829-17.416-15.313-22.098v-27.666h129.474v27.688c-2.743 3.717-6.912 9.544-11.122 16.112-14.219 22.188-15.863 32.578-15.863 38.463 0 23.15 18.835 41.985 41.985 41.985s41.985-18.835 41.985-41.985c0-5.885-1.645-16.274-15.863-38.463-4.21-6.568-8.379-12.396-11.122-16.112v-27.688h51.526v160.897c-14.315 1.932-23.451 6.49-31.737 10.63-9.414 4.704-16.851 8.419-33.328 8.419-16.479 0-23.915-3.715-33.329-8.419-10.866-5.429-23.183-11.581-46.737-11.581s-35.87 6.153-46.735 11.582c-9.414 4.703-16.85 8.418-33.327 8.418-16.476 0-23.912-3.715-33.326-8.418-10.865-5.429-23.18-11.582-46.734-11.582s-35.869 6.153-46.735 11.582c-9.414 4.703-16.85 8.418-33.326 8.418s-23.913-3.715-33.327-8.419c-8.595-4.294-18.104-9.039-33.359-10.835v-160.692zm172.308 58.217c11.689 17.224 20.368 33.641 20.368 39.442 0 11.231-9.137 20.368-20.368 20.368s-20.368-9.137-20.368-20.368c0-5.801 8.679-22.22 20.368-39.442zm-226 178.31v-45.53c8.048 1.426 13.544 4.166 19.951 7.366 10.865 5.429 23.181 11.582 46.734 11.582s35.869-6.153 46.734-11.581c9.414-4.704 16.85-8.419 33.327-8.419 16.476 0 23.912 3.715 33.326 8.418 10.865 5.429 23.18 11.582 46.734 11.582s35.87-6.153 46.735-11.581c9.414-4.704 16.85-8.419 33.327-8.419 16.479 0 23.915 3.715 33.329 8.419 10.866 5.429 23.183 11.581 46.737 11.581s35.87-6.152 46.736-11.581c5.967-2.981 11.146-5.562 18.329-7.054v45.217z"/></g></svg>