<svg id="Capa_1" enable-background="new 0 0 510 510" height="512" viewBox="0 0 510 510" width="512" xmlns="http://www.w3.org/2000/svg"><g><path d="m510 420v-420h-510v420h180v38.787l-21.213 21.213h-38.787v30h51.213l30-30h107.574l30 30h51.213v-30h-38.787l-21.213-21.213v-38.787zm-480-30v-360h450v360c-44.076 0-399.31 0-450 0zm270 60h-90v-30h90z"/><path d="m375 330h-45v30h75v-75h-30z"/><path d="m375 135h30v-75h-75v30h45z"/><path d="m135 90h45v-30h-75v75h30z"/><path d="m135 285h-30v75h75v-30h-45z"/><path d="m358.924 225h46.076v-30h-46.076c-6.597-45.916-43.008-82.327-88.924-88.924v-46.076h-30v46.076c-45.916 6.597-82.327 43.008-88.924 88.924h-46.078v30h46.078c6.597 45.916 43.009 82.328 88.926 88.924v46.076h30v-46.076c45.915-6.598 82.325-43.009 88.922-88.924zm-30.433-30h-31.071c-4.527-12.764-14.656-22.893-27.42-27.42v-31.07c29.344 5.979 52.511 29.146 58.491 58.49zm-73.491 0c8.271 0 15 6.729 15 15s-6.729 15-15 15c-8.272 0-15-6.729-15-15s6.728-15 15-15zm-15-58.49v31.07c-12.764 4.527-22.893 14.656-27.42 27.42h-31.071c5.98-29.344 29.147-52.511 58.491-58.49zm-58.491 88.49h31.071c4.527 12.765 14.657 22.895 27.422 27.42v31.071c-29.345-5.979-52.513-29.146-58.493-58.491zm88.493 58.49v-31.071c12.763-4.526 22.891-14.655 27.418-27.419h31.071c-5.98 29.344-29.146 52.51-58.489 58.49z"/></g></svg>