<svg id="Capa_1" enable-background="new 0 0 512 512" height="512" viewBox="0 0 512 512" width="512" xmlns="http://www.w3.org/2000/svg"><g><path d="m0 0v512h512v-512zm482 482h-452v-452h452z"/><path d="m256 211.201c71.654 0 129.949-58.295 129.949-129.949v-15h-259.898v15c0 71.654 58.295 129.949 129.949 129.949zm-15-114.949v42.475h30v-42.475h83.826c-7.257 48.023-48.81 84.949-98.826 84.949s-91.569-36.926-98.826-84.949z"/><path d="m444.49 174.218h-36.365c-38.934 44.478-92.268 72.12-152.125 72.12-59.858 0-113.192-27.643-152.125-72.12h-36.365v271.53h376.98zm-30 241.53h-316.98v-204.231c42.142 41.387 99 64.821 158.49 64.821s116.348-23.435 158.49-64.821z"/></g></svg>