<svg id="Capa_1" enable-background="new 0 0 512 512" height="512" viewBox="0 0 512 512" width="512" xmlns="http://www.w3.org/2000/svg"><g><path d="m18.837 65.042c0 10.427 3.509 20.715 9.879 28.968l23.396 30.312v342.658c0 24.824 20.196 45.021 45.021 45.021h.773c24.825 0 45.021-20.196 45.021-45.021v-342.658l23.396-30.312c6.371-8.252 9.879-18.541 9.879-28.968v-65.042h-157.365zm94.02 69.187v60.58h-30.675v-60.58zm-14.951 347.701h-.773c-8.244 0-14.951-6.707-14.951-14.951v-242.1h30.675v242.101c0 8.243-6.707 14.95-14.951 14.95zm48.226-416.888c0 3.813-1.283 7.576-3.613 10.595l-22.014 28.522h-7.95v-74.089h33.578v34.972zm-97.225-34.972h33.577v74.09h-7.95l-22.014-28.524c-2.33-3.018-3.613-6.78-3.613-10.594z"/><path d="m219.688 41.888v469.959h273.475v-469.959zm243.405 439.89h-213.335v-409.82h213.335z"/><path d="m356.426 260.488c43.179 0 78.308-35.129 78.308-78.308s-35.128-78.308-78.308-78.308-78.309 35.128-78.309 78.307c0 43.18 35.13 78.309 78.309 78.309zm0-126.547c26.599 0 48.238 21.639 48.238 48.238s-21.639 48.239-48.238 48.239-48.239-21.64-48.239-48.239c0-26.598 21.64-48.238 48.239-48.238z"/><path d="m356.426 449.661c43.179 0 78.308-35.129 78.308-78.309s-35.128-78.308-78.308-78.308-78.309 35.128-78.309 78.308 35.13 78.309 78.309 78.309zm0-126.546c26.599 0 48.238 21.639 48.238 48.238s-21.639 48.239-48.238 48.239-48.239-21.64-48.239-48.239 21.64-48.238 48.239-48.238z"/></g></svg>