<svg id="Capa_1" enable-background="new 0 0 512 512" height="512" viewBox="0 0 512 512" width="512" xmlns="http://www.w3.org/2000/svg"><path d="m372.683 349.503c-5.126-44.794-17.176-91.421-37.921-146.737-1.482-3.952-1.293-8.294.517-11.915l13.902-27.803c8.676-17.352 5.289-38.227-8.43-51.944l-40.317-40.317v-70.787h-90v70.787l-40.317 40.317c-13.718 13.718-17.105 34.593-8.43 51.944l14.558 29.117c1.807 3.614 1.998 7.95.524 11.896-20.552 55.013-32.474 101.435-37.519 146.094-10.404 92.108 13.25 153.553 14.821 161.845h203.865c1.547-8.185 25.322-70.078 14.747-162.497zm-27.183 42.497h-179.006c.394-28.616 4.206-58.292 11.518-90h155.975c7.308 31.708 11.118 61.387 11.513 90zm-105.066-362h30v32h-30zm-49.104 102.317 40.317-40.317h47.574l40.317 40.317c4.572 4.573 5.702 11.531 2.81 17.315l-13.902 27.803c-5.528 11.056-6.175 24.129-1.774 35.865 7.666 20.441 14.168 39.943 19.547 58.7h-140.439c5.27-18.368 11.627-37.457 19.092-57.44 4.379-11.721 3.725-24.774-1.793-35.812l-14.558-29.117c-2.893-5.783-1.763-12.741 2.809-17.314zm-14.359 349.683c-4.959-19.879-8.172-39.756-9.626-60h177.307c-1.451 20.249-4.66 40.127-9.617 60z"/></svg>