<svg id="Capa_1" enable-background="new 0 0 512 512" height="512" viewBox="0 0 512 512" width="512" xmlns="http://www.w3.org/2000/svg"><g><path d="m462 200v-60h-50v-75c0-35.841-29.159-65-65-65h-207v84h-140v368c0 33.084 26.916 60 60 60h392c33.084 0 60-26.916 60-60v-252zm-50-30h20v30h-20zm-60-139.637c15.304 2.199 27.438 14.333 29.637 29.637h-29.637zm-182-.363h152v60h60v110h-212zm-80 422c0 16.542-13.458 30-30 30s-30-13.458-30-30v-338h110v86h-50zm392 0c0 16.542-13.458 30-30 30h-340.052c5.119-8.83 8.052-19.08 8.052-30v-222h362z"/><path d="m306.662 322.234-30.662-62.128-30.662 62.128-68.562 9.962 49.612 48.359-11.711 68.283 61.323-32.238 61.323 32.239-11.711-68.283 49.612-48.359zm-9.183 71.765-21.479-11.292-21.479 11.292 4.102-23.918-17.376-16.938 24.014-3.489 10.739-21.76 10.74 21.761 24.014 3.489-17.376 16.938z"/></g></svg>