<svg id="Capa_1" enable-background="new 0 0 512 512" height="512" viewBox="0 0 512 512" width="512" xmlns="http://www.w3.org/2000/svg"><g><path d="m505 168h-75v-120c-2.653-63.7-93.377-63.642-96 0 .513 10.261-7.688 19.031-18 19-9.925 0-18-8.075-18-18 0-27.019-21.981-49-49-49h-63c-27.019 0-49 21.981-49 49v59h-89v90h28v98.389l-69 135v80.611h290v-80.704l-71-135v-98.296h31v-90h-90v-59c0-10.477 8.523-19 19-19h63c10.477 0 19 8.523 19 19 0 26.468 21.532 48 48 48 26.83.032 48.556-22.191 48-49 0-9.925 8.075-18 18-18s18 8.075 18 18v120h-75v90h30v194c0 33.08 26.92 60 60 60s60-26.92 60-60v-194h30zm-238 314h-230v-43.389l22.405-43.836c14.993 2.971 19.364 7.242 40.593 7.224 15.255 0 23.306-2.477 30.41-4.663 11.75-4.452 31.444-4.445 43.177 0 16.488 6.161 44.302 6.173 60.826-.001 3.181-.978 6.018-1.846 9.544-2.453l23.045 43.822zm-37.461-114.524c-8.797 2.545-12.63 4.493-25.542 4.524-10.745 0-15.531-1.473-21.59-3.337-16.527-6.174-44.341-6.16-60.822.001-6.058 1.864-10.843 3.336-21.586 3.336-13.367-.022-17.11-2.161-26.501-4.795l32.502-63.594v-105.611h31v55h30v-55h29v105.704zm-2.539-199.476h-149v-30h149zm248 60c-33.489 0-86.511 0-120 0v-30h120zm-60 254c-16.54 0-30-13.46-30-30v-81h60v81c0 16.54-13.46 30-30 30zm30-141h-60v-83h60z"/></g></svg>