<svg id="Layer_1" enable-background="new 0 0 510 510" height="512" viewBox="0 0 510 510" width="512" xmlns="http://www.w3.org/2000/svg"><g id="XMLID_1029_"><path id="XMLID_1059_" d="m465 480c0-104.649 0-209.721 0-315h-30v30h-23.787l-30-30h-252.426l-30 30h-23.787v-30h-30v315h-45v30h45 465v-30zm-390-255h36.213l30-30h227.574l30 30h36.213v30c-14.794 0-344.035 0-360 0zm0 255v-195h30v195zm141.164-56.29c3.753-4.089 7.936-9.778 10.711-16.93 6.062 1.7 10.817 4.119 27.649 11.088l2.007-20.224c.827-8.336 3.315-14.309 7.388-17.75 1.311-1.104 2.858-2.024 4.64-2.757 3.207 13.149 10.09 25.366 20.146 35.46 26.389 26.855 1.952 65.761-34.111 64.999-23.88-.144-43.85-17.242-44.516-38.118-.194-6.06 2.078-11.406 6.086-15.768zm98.541 56.29c21.668-26.59 19.804-63.946-4.749-88.578-8.677-8.709-13.455-19.868-13.455-31.422v-15h-15c-23.805 0-42.585 10.408-50.777 31.837-11.082-2.444-18.314-1.476-30.715-1.795v15.094c0 5.63-3.232 10.332-5.94 13.281-9.1 9.904-14.434 22.784-13.974 37.022.462 14.479 5.747 28.184 15.067 39.561h-60.162v-195h240v195zm90.295 0v-195h30v195z"/><path id="XMLID_1072_" d="m197.038 55.29c1.171.587 2.283 1.264 3.352 1.999-3.287 14.445-.57 29.482 7.766 41.986l23.816 35.725h46.055l23.817-35.725c8.335-12.504 11.052-27.541 7.766-41.987 1.065-.733 2.174-1.408 3.338-1.992 19.379-9.688 32.052-29.611 32.052-51.866v-3.43h-30v3.43c0 10.549-5.938 20.268-15.481 25.041-1.504.754-2.967 1.574-4.392 2.449-9.941-9.969-23.621-15.92-38.386-15.92h-3.482c-14.765 0-28.445 5.951-38.385 15.92-1.429-.877-2.896-1.7-4.406-2.457-9.311-4.654-15.468-14.249-15.468-25.033v-3.43h-30c.231 1.911-1.673 17.213 8.658 33.913 5.664 9.169 13.754 16.564 23.38 21.377zm56.221-10.29h3.482c19.339 0 30.839 21.586 20.142 37.635l-14.91 22.365h-13.945l-14.91-22.365c-10.691-16.037.789-37.635 20.141-37.635z"/></g></svg>