<svg id="Capa_1" enable-background="new 0 0 512 512" height="512" viewBox="0 0 512 512" width="512" xmlns="http://www.w3.org/2000/svg"><g><path d="m512 165.626c0-58.104-47.271-105.376-105.376-105.376-41.966 0-78.276 24.661-95.211 60.25h-311.413v331.25h451.75v-190.913c35.589-16.935 60.25-53.245 60.25-95.211zm-196.037 53.65-90.088 77.218-170.326-145.994h246.79c-.713 4.941-1.09 9.99-1.09 15.126-.001 19.58 5.373 37.925 14.714 53.65zm-148.282 66.849-137.681 118.012v-236.024zm23.048 19.756 35.146 30.125 35.146-30.125 135.18 115.869h-340.653zm231.021 98.256-137.681-118.012 50.723-43.477c18.835 17.578 44.097 28.354 71.832 28.354 5.136 0 10.185-.376 15.126-1.09zm-15.126-163.135c-41.562 0-75.376-33.813-75.376-75.376s33.813-75.376 75.376-75.376 75.376 33.813 75.376 75.376-33.813 75.376-75.376 75.376z"/><path d="m421.624 120.5h-30v60.126h60.126v-30h-30.126z"/></g></svg>