<?xml version="1.0" encoding="iso-8859-1"?>
<!-- Generator: Adobe Illustrator 19.0.0, SVG Export Plug-In . SVG Version: 6.00 Build 0)  -->
<svg version="1.1" id="Layer_1" xmlns="http://www.w3.org/2000/svg" xmlns:xlink="http://www.w3.org/1999/xlink" x="0px" y="0px"
	 viewBox="0 0 511.999 511.999" style="enable-background:new 0 0 511.999 511.999;" xml:space="preserve">
<g>
	<g>
		<path d="M375.166,225.68l0.276-0.124L274.331,0L1.287,122.399l101.111,225.557l66.11-29.636l-31.953,71.28l273.043,122.399
			l101.113-225.558L375.166,225.68z M94.794,235.579l-41.929-93.531l201.815-90.471l31.284,69.789l-60.176-22.924l-39.298,103.159
			l-68.773-26.199L94.794,235.579z M122.047,296.376l-4.674-10.43l22.923-60.176l68.773,26.199l39.298-103.159l60.176,22.924
			l15.319,34.173L122.047,296.376z M389.949,460.42l-201.814-90.469l15.319-34.173l60.176-22.924l39.298,103.159l68.772-26.199
			l22.924,60.176L389.949,460.42z M394.279,339.447l-68.772,26.199L287.208,265.11l40.252-18.044l131.672,59.025l-41.929,93.533
			L394.279,339.447z"/>
	</g>
</g>
<g>
	<g>
		<circle cx="160.539" cy="143.679" r="26.019"/>
	</g>
</g>
<g>
	<g>
		<circle cx="351.469" cy="307.744" r="26.019"/>
	</g>
</g>
<g>
</g>
<g>
</g>
<g>
</g>
<g>
</g>
<g>
</g>
<g>
</g>
<g>
</g>
<g>
</g>
<g>
</g>
<g>
</g>
<g>
</g>
<g>
</g>
<g>
</g>
<g>
</g>
<g>
</g>
</svg>
