<svg id="Capa_1" enable-background="new 0 0 512 512" height="512" viewBox="0 0 512 512" width="512" xmlns="http://www.w3.org/2000/svg"><path d="m346.312 90.375v-60.25h-180.625v60.25h-165.687v391.5h512v-391.5zm-150.625-30.25h120.625v30.25h-120.625zm286.313 60.25v93.003l-30.25 5.554v-32.182h-90.25v48.753l-105.5 19.371-105.5-19.37v-48.754h-90.25v32.184l-30.25-5.554v-93.005zm-60.25 96.375v54.816l-15.125 8.939-15.125-8.939v-54.816zm-301.25 0v54.816l-15.125 8.939-15.125-8.939v-54.816zm-90.5 235.125v-207.994l30.25 5.554v39.248l45.125 26.67 45.125-26.67v-22.678l105.5 19.371 105.5-19.371v22.679l45.125 26.67 45.125-26.67v-39.25l30.25-5.554v207.996h-452z"/></svg>