<svg id="Capa_1" enable-background="new 0 0 512 512" height="512" viewBox="0 0 512 512" width="512" xmlns="http://www.w3.org/2000/svg"><g><path d="m336.831 151.591c-.499.144-50.184 14.409-80.831 14.409-13.277 0-30.125-2.677-45-5.724v-160.276h-152.282l19.359 136.228c-24.585 1.323-54.22 8.136-66.7 11.243l-11.377 2.831v361.698h512v-361.698c-7.591-1.802-53.391-14.302-86-14.302-34.921 0-86.973 14.955-89.169 15.591zm-155.831-121.591v123.192c-20.239-5.396-43.851-12.091-72.431-15.619l-15.287-107.573zm-70.852 219.266c7.378-13.963 10.089-29.671 7.839-45.415l-5.03-35.396c29.532 4.559 53.446 12.064 68.042 15.738v24.345c0 41.157 21.518 136.193 64.394 179.068l4.393 4.394h36.214c8.271 0 15 6.729 15 15s-6.729 15-15 15h-57.889c-15.08 0-29.077-7.491-37.442-20.039l-8.163-12.245c-18.779-28.169-46.369-51.89-79.786-68.599-6.802-3.401-11.369-7.257-12.861-10.858-1.816-4.381.089-22.768 20.289-60.993zm371.852 232.734h-452v-308.093c13.908-3.098 35.417-7.276 52.317-7.839l5.971 42.015c1.35 9.445-.263 18.839-4.664 27.166-5.448 10.309-13.016 25.743-18.132 40.732-6.781 19.863-7.877 34.832-3.351 45.759 4.378 10.57 13.517 19.389 27.162 26.211 28.755 14.378 52.353 34.574 68.241 58.407l8.163 12.245c13.942 20.912 37.27 33.397 62.404 33.397h57.889c24.813 0 45-20.187 45-45s-20.187-45-45-45h-23.49c-33.37-38.244-51.51-120.099-51.51-153.462v-17.683c14.938 2.839 31.289 5.145 45 5.145 34.921 0 86.973-14.955 89.169-15.591.499-.144 50.184-14.409 80.831-14.409 17.346 0 41.061 4.58 56 7.907z"/><path d="m323.286 212.994c-39.724 5.185-64.805 51.324-70.617 58.006 5.506 6.318 30.59 52.516 70.552 57.733 32.009 4.176 65.715-18.78 91.991-38.656 8.372 6.748 17.392 14.217 27.139 22.407l19.299-22.968c-7.759-6.52-15.172-12.705-22.282-18.525 7.148-5.838 14.566-12.023 22.282-18.507l-19.299-22.968c-9.688 8.14-18.696 15.59-27.096 22.341-36.27-27.607-64.471-42.452-91.969-38.863zm3.818 85.991c-11.986-1.564-23.766-10.296-37.486-27.99 13.838-17.885 25.635-26.698 37.552-28.253 15.618-2.041 34.997 7.32 63.36 28.195-28.016 20.481-47.825 30.085-63.426 28.048z"/></g></svg>