<svg id="Capa_1" enable-background="new 0 0 512 512" height="512" viewBox="0 0 512 512" width="512" xmlns="http://www.w3.org/2000/svg"><g id="XMLID_1054_"><path id="XMLID_1111_" d="m0 53.87v30h26.743l16.533 115.52 38.86 31.817h71.249l38.86-31.817 16.535-115.52h26.742v-30zm164.203 129.707-21.532 17.63h-49.819l-21.532-17.63-14.271-99.707h121.426z"/><path id="XMLID_1117_" d="m276.478 53.87v30h26.742l16.534 115.52 38.86 31.817h71.249l38.86-31.817 16.533-115.52h26.744v-30zm164.203 129.707-21.532 17.63h-49.819l-21.532-17.63-14.273-99.707h121.426z"/><path id="XMLID_1118_" d="m92.333 119.537h50v30h-50z"/><path id="XMLID_1119_" d="m369.238 119.537h50v30h-50z"/><path id="XMLID_1122_" d="m0 280.793v30h26.743l16.533 115.52 38.86 31.817h71.249l38.86-31.817 16.534-115.52h26.742v-30zm164.203 129.707-21.532 17.63h-49.819l-21.533-17.63-14.271-99.707h121.426z"/><path id="XMLID_1130_" d="m276.478 280.793v30h26.742l16.534 115.52 38.86 31.817h71.249l38.86-31.817 16.533-115.52h26.744v-30zm164.203 129.707-21.532 17.63h-49.819l-21.532-17.63-14.271-99.707h121.426z"/><path id="XMLID_1131_" d="m92.333 346.461h50v30h-50z"/><path id="XMLID_1132_" d="m369.238 346.461h50v30h-50z"/></g></svg>