<svg id="Capa_1" enable-background="new 0 0 512.004 512.004" height="512" viewBox="0 0 512.004 512.004" width="512" xmlns="http://www.w3.org/2000/svg"><g><path d="m331.502 75c0-41.355-33.645-75-75-75s-75 33.645-75 75 33.645 75 75 75 75-33.645 75-75zm-75 45c-24.813 0-45-20.187-45-45s20.187-45 45-45 45 20.187 45 45-20.187 45-45 45z"/><path d="m511.502 347c0-24.813-20.187-45-45-45-56.916 0-105-49-105-107 0-24.813-20.187-45-45-45h-120c-24.813 0-45 20.187-45 45 0 58-48.542 107-106 107-24.813 0-45 20.187-45 45 0 13.745 6.201 26.062 15.944 34.323-9.888 10.701-15.944 24.992-15.944 40.677 0 29.062 20.733 53.894 49.314 59.049l168.666 30.236c13.667 2.463 27.628-1.465 38.02-10.78 10.387 9.31 24.346 13.244 38.021 10.78l167.68-30.239c28.566-5.152 49.3-29.984 49.3-59.046 0-15.684-6.056-29.976-15.944-40.677 9.742-8.26 15.943-20.578 15.943-34.323zm-287.699 134.76-168.677-30.238c-14.268-2.573-24.624-14.989-24.624-29.522 0-16.542 13.458-30 30-30 3.584 0 7.084.622 10.43 1.859l160.77 59.063c5.862 2.167 9.8 7.825 9.8 14.079 0 9.29-8.425 16.432-17.699 14.759zm-107.207-103.086c23.906-9.246 45.304-22.826 63.584-39.958-2.557 21.906-8.391 42.739-13.678 58.292zm340.282 72.848-167.677 30.238c-9.281 1.673-17.699-5.475-17.699-14.76 0-6.254 3.938-11.912 9.799-14.079l159.801-59.073c3.316-1.227 6.815-1.848 10.4-1.848 16.542 0 30 13.458 30 30 0 14.533-10.356 26.949-24.624 29.522zm-124.031-112.625c18.282 17.232 39.633 30.697 62.828 39.759l-49.224 18.197c-5.258-15.494-11.045-36.188-13.604-57.956zm133.655 23.103c-109.676 0-148.251-95.076-159.979-106.997l-3.996 41.384c-.68 7.041-1.024 13.976-1.024 20.613 0 32.881 8.242 65.389 16.787 90.264l-47.392 17.519c-5.404 1.998-10.26 4.988-14.398 8.711-4.144-3.727-9.008-6.72-14.422-8.722l-47.395-17.412c8.558-24.885 16.821-57.433 16.821-90.36 0-6.639-.345-13.575-1.025-20.614l-3.999-41.378c-11.945 12.095-50.101 106.992-160.978 106.992-8.271 0-15-6.729-15-15s6.729-15 15-15h7.364v-.202c69.988-3.852 128.636-63.627 128.636-136.798 0-8.271 6.729-15 15-15h120c8.271 0 15 6.729 15 15 0 36.066 14.014 70.266 39.461 96.298 23.898 24.448 54.973 38.665 88.176 40.499v.203h7.363c8.271 0 15 6.729 15 15s-6.729 15-15 15z"/></g></svg>