<svg id="Capa_1" enable-background="new 0 0 512 512" height="512" viewBox="0 0 512 512" width="512" xmlns="http://www.w3.org/2000/svg"><g><path d="m362 120.996c0-30.399-12.867-57.845-33.436-77.192l13.387-32.318-27.717-11.48-10.849 26.192c-14.268-7.163-30.363-11.202-47.385-11.202-58.449 0-106 47.552-106 106 0 30.399 12.867 57.846 33.436 77.193l-13.387 32.318 27.717 11.48 10.849-26.192c14.268 7.161 30.363 11.2 47.385 11.2 58.448.001 106-47.551 106-105.999zm-182 0c0-41.906 34.093-76 76-76 12.963 0 25.174 3.269 35.864 9.016l-23.195 55.996-41.574-17.221-31.015 74.876c-10.062-12.892-16.08-29.085-16.08-46.667zm76 76c-12.963 0-25.174-3.269-35.863-9.016l23.195-55.996 41.574 17.221 31.015-74.875c10.061 12.89 16.079 29.084 16.079 46.666 0 41.906-34.094 76-76 76z"/><path d="m466.976 120.923c-24.826 0-45.023 20.198-45.023 45.024v57.37c-15.845-5.579-34.21-2.047-46.86 10.604l-77.731 77.73c-17.001 16.999-26.362 39.599-26.362 63.641v136.704h156.37v-70.264l84.63-120.657v-155.127c0-24.826-20.198-45.025-45.024-45.025zm15.024 190.679-84.63 120.657v49.736h-96.37v-106.703c0-16.027 6.241-31.094 17.573-42.426l77.731-77.731c5.858-5.858 15.391-5.856 21.247 0 2.817 2.817 4.378 6.557 4.4 10.537v.065.021c0 4.013-1.563 7.786-4.4 10.624l-60.55 60.549 21.213 21.213 60.55-60.549c8.504-8.504 13.188-19.811 13.188-31.837 0-.051 0-.101 0-.151v-99.659c0-8.284 6.739-15.024 15.023-15.024s15.025 6.74 15.025 15.024z"/><path d="m136.909 233.921c-12.65-12.65-31.017-16.188-46.861-10.603v-57.371c0-24.826-20.198-45.024-45.024-45.024s-45.024 20.199-45.024 45.025v155.127l84.63 120.657v70.264h156.37v-136.704c0-24.04-9.362-46.641-26.36-63.639zm74.091 248.075h-96.37v-49.736l-84.63-120.658v-145.654c0-8.284 6.74-15.024 15.024-15.024s15.024 6.74 15.024 15.024v99.789h.021c-.005 11.537 4.383 23.075 13.166 31.858l60.549 60.549 21.213-21.213-60.549-60.549c-5.858-5.858-5.858-15.39 0-21.248 5.857-5.855 15.389-5.859 21.248 0l77.731 77.731c11.332 11.333 17.573 26.4 17.573 42.427z"/></g></svg>