<svg id="Capa_1" enable-background="new 0 0 512 512" height="512" viewBox="0 0 512 512" width="512" xmlns="http://www.w3.org/2000/svg"><g><path d="m434.46 233.317v-38.547l-39.768-39.769h-74.052l-2.773-49.644h-68.266v-26.11c.001-43.697-35.549-79.247-79.246-79.247s-79.247 35.55-79.247 79.247v26.111h-68.266l-22.712 406.642h511.74v-278.683zm-52.193-48.315 22.193 22.194v26.121h-102.696v-26.121l22.194-22.194zm-261.159-105.755c0-27.155 22.092-49.247 49.247-49.247s49.247 22.092 49.247 49.247v26.111h-98.494zm-89.255 402.753 19.36-346.642h238.283l2.205 39.475-19.937 19.937v38.547h-77.409v18.384c-7.383-3.126-15.491-4.862-24-4.862-34.099 0-61.84 27.741-61.84 61.841 0 34.099 27.742 61.84 61.84 61.84 8.51 0 16.618-1.736 24-4.862v116.342zm162.502-152.433c-5.842 6.703-14.432 10.952-24 10.952-17.557 0-31.84-14.283-31.84-31.84s14.284-31.841 31.84-31.841c9.569 0 18.159 4.249 24 10.953zm287.515 152.433h-257.515v-218.683h257.515z"/><path d="m353.113 310.818c-34.1 0-61.841 27.741-61.841 61.84 0 34.1 27.741 61.841 61.841 61.841 34.099 0 61.84-27.741 61.84-61.841 0-34.098-27.742-61.84-61.84-61.84zm0 93.681c-17.557 0-31.841-14.284-31.841-31.841s14.284-31.84 31.841-31.84 31.84 14.283 31.84 31.84-14.284 31.841-31.84 31.841z"/></g></svg>