<svg id="Capa_1" enable-background="new 0 0 510 510" height="512" viewBox="0 0 510 510" width="512" xmlns="http://www.w3.org/2000/svg"><g><path d="m480 300v-210h-60v-45h-60v-45h-270c-33.084 0-60 26.916-60 60v240h-30v210h510v-210zm-30-180v180h-30v-180zm-60-45v225h-30v-225zm-60 225h-210v-270h210zm.125 30-22.98 30h-105.1l-22.53-30zm-270.125-270c0-16.542 13.458-30 30-30v270h-30zm420 420h-450v-150h111.996l45.06 60h134.899l45.96-60h112.085z"/><path d="m300 60h-150v150h150zm-30 120h-90v-90h90z"/><path d="m150 240h150v30h-150z"/><path d="m210 120h30v30h-30z"/></g></svg>