<svg id="Capa_1" enable-background="new 0 0 512 512" height="512" viewBox="0 0 512 512" width="512" xmlns="http://www.w3.org/2000/svg"><g><path d="m0 60v30h142c90.981 0 165 74.019 165 165v257h90v-102.749c0-23.223 10.489-44.75 28.777-59.063l57.446-44.958c18.288-14.312 28.777-35.839 28.777-59.062v-31.168c0-57.429-22.364-111.42-62.972-152.028-40.608-40.608-94.599-62.972-152.028-62.972h-120.721c-28.047 0-54.414 10.922-74.246 30.754l-7.279 7.279c-14.166 14.165-33 21.967-53.033 21.967zm457 165c0-60.1-23.404-116.602-65.901-159.099-8.659-8.659-17.908-16.51-27.641-23.547 69.271 26.756 118.542 94.051 118.542 172.646v31.168c0 13.934-6.293 26.851-17.266 35.438l-7.734 6.052zm-120 175.401h30v81.599h-30zm-75.272-299.209c61.544 23.982 105.272 83.881 105.272 153.808v115.401h-30v-115.401c0-62.428-29.493-118.093-75.272-153.808zm-146.522-41.192c.255-.25 8.04-8.033 8.04-8.033 14.166-14.165 33-21.967 53.033-21.967h55.721c107.523 0 195 87.477 195 195v86.136l-19.712 15.427c-3.659 2.863-7.086 5.939-10.288 9.192v-80.755c0-107.523-87.477-195-195-195z"/><path d="m77.89 351c0 45.827 37.283 83.11 83.11 83.11s83.11-37.283 83.11-83.11-37.283-83.11-83.11-83.11-83.11 37.283-83.11 83.11zm30 0c0-29.285 23.825-53.11 53.11-53.11s53.11 23.825 53.11 53.11-23.825 53.11-53.11 53.11-53.11-23.825-53.11-53.11z"/></g></svg>