<svg id="Capa_1" enable-background="new 0 0 512 512" height="512" viewBox="0 0 512 512" width="512" xmlns="http://www.w3.org/2000/svg"><g><path d="m0 0v512h512v-512zm482 30v30h-452v-30zm-392 240.999h226.666c19.741 0 36.565 12.688 42.772 30.334h-269.438zm300.496 30.334c-6.974-34.377-37.426-60.334-73.83-60.334h-226.666v-30.332h332v90.666zm31.504-180.999h-105.666c-19.741 0-36.565-12.688-42.772-30.334h148.438zm-179.496-30.334c2.274 11.211 7.048 21.522 13.709 30.334h-60.879c-19.741 0-36.565-12.688-42.772-30.334zm-121 0c6.974 34.377 37.426 60.334 73.83 60.334h226.666v30.333h-332v-90.667zm-61.504 332h-30v-332h30zm30-30.334h105.666c19.741 0 36.565 12.688 42.772 30.334h-148.438zm179.496 30.334c-6.974-34.377-37.426-60.334-73.83-60.334h-105.666v-30.333h332v90.667zm182.504-332h30v332h-30zm-422 392v-30h452v30z"/></g></svg>