<svg id="Capa_1" enable-background="new 0 0 512 512" height="512" viewBox="0 0 512 512" width="512" xmlns="http://www.w3.org/2000/svg"><g><path d="m512 332v-30h-30v-137c0-25.832-13.127-48.654-33.06-62.148 11.133-10.899 18.06-26.079 18.06-42.852 0-33.084-26.916-60-60-60s-60 26.916-60 60c0 16.773 6.927 31.953 18.06 42.852-19.933 13.494-33.06 36.316-33.06 62.148v137h-152v-137c0-25.832-13.127-48.654-33.06-62.148 11.133-10.899 18.06-26.079 18.06-42.852 0-33.084-26.916-60-60-60s-60 26.916-60 60c0 16.773 6.927 31.953 18.06 42.852-19.933 13.494-33.06 36.316-33.06 62.148v137h-30v30h229.947l-87.084 150h-36.363v30h299v-30h-36.363l-87.083-150zm-135-272c0-16.542 13.458-30 30-30s30 13.458 30 30-13.458 30-30 30-30-13.458-30-30zm30 60c24.813 0 45 20.187 45 45v16h-90v-16c0-24.813 20.187-45 45-45zm-45 91h90v91h-30v-61h-30v61h-30zm-287-151c0-16.542 13.458-30 30-30s30 13.458 30 30-13.458 30-30 30-30-13.458-30-30zm30 60c24.813 0 45 20.187 45 45v16h-90v-16c0-24.813 20.187-45 45-45zm-45 91h90v91h-30v-61h-30v61h-30zm117.552 271 78.448-135.124 78.447 135.124z"/></g></svg>