<svg id="Capa_1" enable-background="new 0 0 512 512" height="512" viewBox="0 0 512 512" width="512" xmlns="http://www.w3.org/2000/svg"><path d="m512 121h-61v-45c0-24.813-20.187-45-45-45h-270c-41.355 0-75 33.645-75 75v15h-61v90h61v270h330c0-6.676 0-113.36 0-120h60v-150h61zm-91-45v45h-30v-45c0-8.271 6.729-15 15-15s15 6.729 15 15zm-391 105v-30h31v30zm331 270h-270v-30h270zm0-60h-270c0-52.38 0-220.833 0-285 0-24.813 20.187-45 45-45h227.58c-1.665 4.695-2.58 9.742-2.58 15zm60-60h-30v-120h30zm61-150c-9.297 0-80.638 0-91 0v-30h91z"/></svg>