<svg id="Capa_1" enable-background="new 0 0 512 512" height="512" viewBox="0 0 512 512" width="512" xmlns="http://www.w3.org/2000/svg"><path d="m270.728 287.325c0-34.362 24.978-62.98 57.727-68.702 6.488 16.974 22.935 29.064 42.161 29.064 24.882 0 45.125-20.243 45.125-45.125s-20.243-45.125-45.125-45.125c-19.923 0-36.86 12.983-42.824 30.929-22.076 2.817-41.915 12.882-57.063 27.719v-132.273c-.001-29.671 24.139-53.812 53.811-53.812s53.812 24.141 53.812 53.812v32.188h30v-32.188c.001-46.214-37.597-83.812-83.812-83.812-45.372 0-82.413 36.246-83.749 81.301-6.611-3.078-13.97-4.809-21.73-4.809-28.489 0-51.667 23.178-51.667 51.666h30c0-11.946 9.72-21.666 21.667-21.666s21.667 9.72 21.667 21.666v53.992c-8.483-4.773-18.259-7.509-28.667-7.509h-44.667v36.625h-6.279c-20.455 0-39.802 10.834-50.492 28.273l-14.363 23.437 14.364 23.435c10.689 17.439 30.036 28.273 50.492 28.273h6.279v36.625h44.667c10.408 0 20.183-2.736 28.667-7.509v80.308c0 31.922-25.971 57.893-57.893 57.893-21.875 0-39.67-17.796-39.67-39.67 0-14.338 11.665-26.003 26.003-26.003 8.686 0 15.752 7.066 15.752 15.752h30c0-25.228-20.524-45.752-45.752-45.752-30.88 0-56.003 25.123-56.003 56.003 0 38.416 31.254 69.67 69.67 69.67 48.464 0 87.893-39.429 87.893-87.893v-39.765c0-24.033 16.71-44.223 39.118-49.598 6.581 16.786 22.929 28.71 42.021 28.71 24.882 0 45.125-20.243 45.125-45.125s-20.243-45.125-45.125-45.125c-20.001 0-36.995 13.085-42.896 31.141-14.343 2.281-27.439 8.34-38.243 17.122v-34.143zm99.887-99.887c8.34 0 15.125 6.785 15.125 15.125s-6.785 15.125-15.125 15.125-15.125-6.785-15.125-15.125 6.786-15.125 15.125-15.125zm-18.749 115.767c8.34 0 15.125 6.785 15.125 15.125s-6.785 15.125-15.125 15.125-15.125-6.785-15.125-15.125 6.786-15.125 15.125-15.125zm-154.471-98.563h14.667c15.807 0 28.667 12.86 28.667 28.667v14.667h-14.667c-15.807 0-28.667-12.86-28.667-28.667zm-25.721 80.042h-8.892c-10.093 0-19.64-5.346-24.914-13.951l-4.754-7.757 4.754-7.758c5.275-8.605 14.821-13.951 24.914-13.951h8.892c3.389 8.364 8.645 15.775 15.26 21.709-6.615 5.933-11.871 13.344-15.26 21.708zm40.387 36.625h-14.667v-14.667c0-15.807 12.86-28.666 28.667-28.666h14.667v14.666c0 15.806-12.86 28.667-28.667 28.667z"/></svg>