<svg id="Layer_1" enable-background="new 0 0 510 510" height="512" viewBox="0 0 510 510" width="512" xmlns="http://www.w3.org/2000/svg"><g id="XMLID_1038_"><path id="XMLID_1054_" d="m255 179.977c-74.439 0-135 60.561-135 135 6.787 178.85 263.241 178.801 270-.002 0-74.438-60.56-134.998-135-134.998zm105 135c-5.278 139.104-204.741 139.07-210-.001.344-102.577 132.91-143.209 190.908-60.301l-26.729 17.822 16.643 24.961 23.747-15.833c3.52 10.483 5.431 21.697 5.431 33.352z"/><path id="XMLID_1068_" d="m435.313 134.664c-159.494-160.03-435.716-45.512-435.313 180.313v15h90v-15c8.321-218.65 321.757-218.483 330 0v15h90v-15c0-68.114-26.524-132.151-74.687-180.313zm-374.741 165.313h-30.077c1.99-30.064 9.924-58.527 22.616-84.24l26.037 15.032c-10.21 21.235-16.694 44.587-18.576 69.208zm33.618-95.164-26.041-15.035c16.354-24.327 37.323-45.303 61.65-61.656l15.038 26.047c-19.828 13.624-37.021 30.816-50.647 50.644zm145.81-84.258c-24.621 1.883-47.976 8.355-69.21 18.566l-15.035-26.041c25.711-12.691 54.181-20.606 84.245-22.596zm99.21 18.566c-21.234-10.211-44.589-16.684-69.21-18.566v-30.07c30.065 1.989 58.533 9.904 84.245 22.595zm76.601 65.692c-13.627-19.828-30.818-37.02-50.646-50.645l15.038-26.047c24.326 16.354 45.296 37.329 61.65 61.656zm33.618 95.164c-1.882-24.621-8.366-47.973-18.576-69.208l26.037-15.032c12.691 25.712 20.626 54.175 22.616 84.24z"/><path id="XMLID_1074_" d="m290.971 275.332-20.664-21.75-67.27 63.911 44.678 10.453-27.156 27.247 21.248 21.177 65.156-65.373-42.955-10.049z"/><path id="XMLID_1075_" d="m480 359.977h-30v30h-30v30h30v30h30v-30h30v-30h-30z"/><path id="XMLID_1076_" d="m0 389.977h90v30h-90z"/></g></svg>