<svg id="Capa_1" enable-background="new 0 0 512 512" height="512" viewBox="0 0 512 512" width="512" xmlns="http://www.w3.org/2000/svg"><g><path d="m270.996 75.028h-30v28.259h-28.259v30h28.259v28.26h30v-28.26h28.26v-30h-28.26z"/><path d="m425.124 213.978-17.594-213.978h-303.063l-17.594 213.977c-23.522 11.5-39.234 34.639-39.234 59.239-.72 29.901 25.387 58.918 55.645 64.96v21.11c0 84.207 68.507 152.715 152.714 152.715s152.714-68.508 152.714-152.715v-21.11c29.086-5.692 56.477-34.279 55.645-64.96 0-24.595-15.714-47.738-39.233-59.238zm-46.412 130.309h-62.272c-21.073 2.014-45.601-27.262-60.441-38.366-15.328 11.47-38.841 40.037-60.441 38.366h-62.273v-104.95h245.428v104.95zm-246.611-314.287h247.793l14.746 179.337h-277.284zm-54.462 243.216c0-14.229 10.423-27.768 25.645-33.719v67.457c-14.582-5.74-25.645-19.247-25.645-33.738zm178.359 208.784c-62.587 0-114.374-47.099-121.796-107.713h61.355c23.52.917 44.318-13.546 60.441-28.899 16.09 15.42 36.78 29.662 60.441 28.899h61.354c-7.421 60.614-59.208 107.713-121.795 107.713zm152.714-175.046v-67.456c15.22 5.95 25.645 19.492 25.645 33.718 0 14.491-11.063 27.998-25.645 33.738z"/></g></svg>