<svg id="Capa_1" enable-background="new 0 0 512.01 512.01" height="512" viewBox="0 0 512.01 512.01" width="512" xmlns="http://www.w3.org/2000/svg"><g><path d="m491.24 291.002c-23.206-24.09-63.482-27.745-90.656-8.557-4.496-3.074-9.306-5.599-14.343-7.551 8.998-68.397 26.939-165.862-25.851-221.503-16.494-16.263-37.63-24.371-62.85-23.98-39.55.55-58.715 19.43-81.011 41.243h-36.792c-22.296-21.813-41.46-40.693-81.011-41.243-25.175-.384-46.355 7.717-62.847 23.98-84.435 81.098 3.015 358.722 30.405 429.008h81.677l32.081-101.623c2.519-7.979 9.833-13.339 18.199-13.339 8.386 0 15.704 5.376 18.211 13.378l31.828 101.585h81.701c6.014-15.932 6.341-15.329 18.324-52.067l52.28 52.28 90.654-90.654c27.694-26.571 27.696-74.388.001-100.957zm-182.028 161.398h-38.893l-25.238-80.554c-6.449-20.58-25.272-34.408-46.839-34.408-21.519 0-40.33 13.787-46.808 34.308l-25.461 80.654h-38.906c-9.419-26.739-102.096-300.75-30.124-377.648 10.713-10.562 24.251-15.579 41.367-15.344 30.739-.586 47.233 20.108 69.237 41.246h61.173c22.033-21.149 38.476-41.815 69.238-41.245 17.142-.229 30.653 4.781 41.364 15.343 40.87 44.086 25.933 131.709 17.29 195.445-61.416 3.23-90.215 78.27-46.68 121.761-.001 0 14.415 14.416 14.415 14.416-6.251 20.538-11.755 36.557-15.135 46.026zm160.815-81.655-69.441 69.441-69.441-69.441c-7.816-7.817-12.122-18.211-12.122-29.266-.459-22.246 19.141-41.847 41.388-41.386 19.406.217 27.643 10.379 40.175 22.999l10.911-10.877c15.406-16.056 43.125-16.056 58.53 0 16.055 15.404 16.055 43.125 0 58.53z"/></g></svg>