<svg id="Capa_1" enable-background="new 0 0 512 512" height="512" viewBox="0 0 512 512" width="512" xmlns="http://www.w3.org/2000/svg"><g><path d="m430.154 361.11-114.154-41.949v-27.64c35.84-20.779 60-59.566 60-103.891v-67.63c0-66.168-53.832-120-120-120s-120 53.832-120 120v67.63c0 44.325 24.159 83.112 60 103.891v27.64l-114.151 41.947c-29.386 10.791-49.129 39.08-49.129 70.392v80.5h446.56v-80.5c0-31.312-19.743-59.6-49.126-70.39zm-174.154-331.11c44.637 0 81.782 32.667 88.801 75.347-28.62-.026-56.583-8.025-80.876-23.142l-7.925-4.932-7.925 4.931c-12.111 7.536-25.193 13.337-38.889 17.244-13.652 3.903-27.778 5.886-41.987 5.899 7.019-42.68 44.164-75.347 88.801-75.347zm-90 157.63v-52.28h1.06c17.047 0 33.995-2.374 50.365-7.055 13.428-3.831 26.366-9.186 38.574-15.959 27.178 15.083 57.735 23.014 88.941 23.014h1.06v52.28c0 49.626-40.374 90-90 90s-90-40.374-90-90zm90 120c10.355 0 20.408-1.319 30-3.797v25.511c0 16.542-13.458 30-30 30s-30-13.458-30-30v-25.511c9.592 2.478 19.645 3.797 30 3.797zm193.28 174.37h-60v-49.677h-30v49.677h-206.56v-49.677h-30v49.677h-60v-50.5c0-18.786 11.843-35.757 29.474-42.231l107.402-39.467c8.383 23.041 30.502 39.542 56.404 39.542 25.903 0 48.021-16.501 56.404-39.542l107.405 39.469c17.627 6.473 29.471 23.443 29.471 42.229z"/><path d="m277.213 243.314 21.213-21.212-21.213-21.214 21.213-21.213-21.213-21.213-21.213 21.213-21.213-21.213-21.213 21.213 21.213 21.213-21.213 21.214 21.213 21.212 21.213-21.213z"/></g></svg>