<svg id="Capa_1" enable-background="new 0 0 512 512" height="512" viewBox="0 0 512 512" width="512" xmlns="http://www.w3.org/2000/svg"><g><path d="m512 270.367h-63.189v-59.997h-117.721v-30.373h117.715v-149.72h-90v59.72h-50.781c5.122-8.832 8.07-19.074 8.07-29.997 0-33.084-26.916-60-60-60s-60 26.916-60 60c0 10.923 2.949 21.165 8.07 29.997h-50.794v-59.72h-90v149.72h117.72v30.373h-117.72v59.997h-63.37l30 45-30 45h151.028v-59.997h30.062v151.63h60v60h90v-211.63h29.883v59.997h151.027l-30-45zm-123.195-150.37v-59.72h30v89.72h-102.428l-.306-.008c-8.108-.144-14.706-6.869-14.706-14.992 0-4.008 1.558-7.77 4.396-10.604 2.763-2.763 6.422-4.32 10.303-4.388zm-162.712-59.997c0-16.542 13.458-30 30-30s30 13.458 30 30c0 16.503-13.396 29.934-29.885 29.997h-.231c-16.488-.063-29.884-13.494-29.884-29.997zm-132.723.277h30v59.72h72.388l.353.009c3.881.067 7.541 1.626 10.313 4.397 2.829 2.824 4.387 6.586 4.387 10.594 0 8.123-6.597 14.849-14.707 14.992l-102.734.008zm117.72 117.008c17.278-6.313 29.72-22.979 29.72-42.288 0-5.192-.877-10.247-2.552-15h35.66c-1.676 4.753-2.552 9.808-2.552 15 0 19.311 12.444 35.978 29.725 42.29v33.083h-90v-33.085zm-90.062 153.082h-64.972l10-15-10-15 64.972.003zm90.062 91.633v-121.63h30v121.63zm90 60h-30v-181.63h30zm-207.72-211.633v-29.997h325.44v29.997zm362.575 60h-64.973v-29.997l64.973-.003-10 15z"/></g></svg>