<svg id="Capa_1" enable-background="new 0 0 512 512" height="512" viewBox="0 0 512 512" width="512" xmlns="http://www.w3.org/2000/svg"><g><path d="m458.657 94.576-25.868 20.693c-10.272 8.219-23.176 12.745-36.334 12.745h-29.795c-18.631 0-35.961 5.676-50.353 15.389l1.696-36.368c6.029-10.476 9.497-22.605 9.497-35.535 0-39.425-32.075-71.5-71.5-71.5s-71.5 32.075-71.5 71.5c0 12.93 3.468 25.059 9.496 35.536l1.696 36.367c-14.391-9.712-31.721-15.388-50.351-15.388h-29.796c-13.157 0-26.061-4.526-36.334-12.745l-25.868-20.694h-25.225v79.031c0 46.719 38.008 84.727 84.726 84.727h32.156v19.665c0 25.916 21.084 47 47 47h12.162l1.586 34h-13.748c-25.916 0-47 21.084-47 47s21.084 47 47 47h18.132l.743 15.932c1.126 24.151 20.947 43.069 45.124 43.069s43.999-18.918 45.125-43.069l.743-15.932h18.133c9.374 0 17 7.626 17 17h30c0-25.916-21.084-47-47-47h-16.733l1.586-34h15.147c25.916 0 47-21.084 47-47s-21.084-47-47-47h-10.763l1.71-36.665h88.21c46.718 0 84.726-38.008 84.726-84.727v-79.031zm-345.814 133.758c-30.176 0-54.726-24.55-54.726-54.727v-36.794c17.049 14.186 37.483 21.201 57.427 21.201h29.796c22.483 0 42.116 12.39 52.464 30.692l1.848 39.628zm79.156 66.665c-9.374 0-17-7.626-17-17v-19.665h26.053l1.71 36.665zm0 128c-9.374 0-17-7.626-17-17s7.626-17 17-17h15.147l1.586 34zm79.159 44.533c-.379 8.113-7.037 14.468-15.158 14.468s-14.779-6.354-15.158-14.468l-.678-14.533h31.672zm2.077-44.533h-34.471l-4.571-98h43.612zm5.97-128h-46.41l-7.411-158.9c9.287 4.419 19.666 6.901 30.616 6.901s21.33-2.482 30.616-6.901zm-23.206-181.999c-22.883 0-41.5-18.617-41.5-41.5s18.617-41.5 41.5-41.5 41.5 18.617 41.5 41.5-18.617 41.5-41.5 41.5zm64.001 211.999c9.374 0 17 7.626 17 17s-7.626 17-17 17h-13.748l1.586-34zm133.882-151.392c0 30.177-24.55 54.727-54.726 54.727h-86.811l1.848-39.626c10.348-18.303 29.982-30.694 52.465-30.694h29.795c19.944 0 40.712-6.765 57.428-21.201v36.794z"/></g></svg>