<svg id="Capa_1" enable-background="new 0 0 512.334 512.334" height="512" viewBox="0 0 512.334 512.334" width="512" xmlns="http://www.w3.org/2000/svg"><g id="XMLID_833_"><path id="XMLID_843_" d="m200.377 74.667v-14.521h-44.237v-60.146h-111.332v60.146h-44.237v392.043h44.237v60.146h111.332v-60.146h44.237v-14.521h311.386v-363h-311.386zm-125.569-44.667h51.332v30.146h-51.332zm-44.237 392.188v-332.042h57.8l-12.779 36.72 18 51.717-18 51.718 18 51.72-18 51.719 18.001 51.726-12.781 36.725h-50.241zm95.569 60.146h-51.332v-30.146h51.332zm-13.563-60.146 12.78-36.725-18-51.726 18-51.719-18-51.72 18-51.718-18-51.717 12.78-36.72h50.241v332.043h-57.801zm87.8-14.521v-303h52.239l-7.728 22.2 18 51.71-18 51.72 18 51.72-17.999 51.721 17.999 51.729-7.729 22.201h-54.782zm86.548 0 7.729-22.199-18.001-51.73 18.001-51.721-18-51.72 18-51.72-18-51.71 7.728-22.2h109.654l-7.728 22.2 18 51.71-18 51.72 18 51.72-17.999 51.721 17.999 51.729-7.729 22.201h-109.654zm194.838 0h-53.417l7.728-22.199-18.001-51.73 18.001-51.721-18-51.72 18-51.72-18-51.71 7.728-22.2h55.962v303z"/><path id="XMLID_1228_" d="m326.07 133.18h30v30h-30z"/><path id="XMLID_1229_" d="m326.07 204.514h30v30h-30z"/><path id="XMLID_1230_" d="m326.07 275.847h30v30h-30z"/><path id="XMLID_1231_" d="m326.07 347.18h30v30h-30z"/></g></svg>