<svg id="Capa_1" enable-background="new 0 0 509.943 509.943" height="512" viewBox="0 0 509.943 509.943" width="512" xmlns="http://www.w3.org/2000/svg"><g><path d="m464.677 146.632 45.267-13.195-8.396-28.801-42.033 12.253c-3.53-10.765-8.809-20.897-15.687-30.056l21.964-21.964-21.213-21.213-21.975 21.974c-9.83-7.36-20.666-12.772-31.977-16.235l6.621-44.484-29.674-4.416-6.593 44.292c-11.689-.139-23.395 1.657-34.596 5.389l-17.38-32.012-26.365 14.314 16.927 31.177c-11.078 7.75-16.45 14.509-24.695 22.429l-21.213-21.214-21.213 21.213 21.214 21.214-21.214 21.213-21.214-21.213-21.213 21.213 21.214 21.213-21.214 21.214-21.213-21.213-21.213 21.213 21.213 21.213c-7.855 8.222-15.249 14.03-23.471 26.181l-31.463-17.082-14.314 26.365 32.718 17.764c-3.473 11.042-5.093 22.604-4.794 34.373-7.004 1.259-15.171 4.254-23.128 12.211-11.989 11.989-12.722 24.458-13.207 32.709-.387 6.596-.547 9.325-4.463 13.241-3.923 3.923-6.656 4.083-13.26 4.473-8.252.485-20.723 1.22-32.71 13.207-11.989 11.989-12.72 24.458-13.203 32.71-.386 6.598-.546 9.329-4.467 13.25-4.04 4.04-5.283 4.127-10.516 4.492-3.358.234-7.54.526-12.528 1.906l8.002 28.914c7.938-2.198 20.44 1.716 36.256-14.101 11.989-11.989 12.72-24.458 13.203-32.71.386-6.598.546-9.329 4.467-13.25 3.923-3.923 6.656-4.083 13.26-4.473 8.252-.485 20.723-1.22 32.71-13.207 11.982-11.982 12.715-24.446 13.199-32.695.388-6.6.548-9.332 4.471-13.255 2.369-2.369 4.309-3.361 6.925-3.864 10.276 31.911 35.68 57.352 67.646 67.646-.503 2.616-1.495 4.556-3.864 6.925-3.923 3.923-6.655 4.083-13.255 4.471-8.248.484-20.713 1.217-32.694 13.199-11.987 11.987-12.722 24.458-13.208 32.71-.389 6.603-.55 9.337-4.473 13.26-3.921 3.921-6.652 4.081-13.251 4.468-8.251.483-20.72 1.214-32.709 13.202-15.821 15.821-11.902 28.321-14.1 36.255l28.912 8.004c1.382-4.989 1.674-9.171 1.908-12.531.366-5.232.453-6.475 4.492-10.515 3.921-3.92 6.652-4.08 13.25-4.467 8.252-.483 20.721-1.214 32.71-13.203 11.987-11.986 12.722-24.456 13.208-32.709.389-6.604.55-9.338 4.473-13.261 3.916-3.916 6.646-4.076 13.24-4.463 8.251-.485 20.72-1.218 32.709-13.206 7.957-7.958 10.952-16.124 12.211-23.13 11.931.307 23.69-1.371 34.884-4.954l18.561 34.188 26.365-14.315-17.955-33.071c11.899-8.14 17.443-15.227 25.745-23.171l21.214 21.213 21.213-21.213-21.214-21.213 21.214-21.214 21.213 21.214 21.213-21.213-21.213-21.214 21.213-21.213 21.214 21.213 21.213-21.213-21.214-21.213c8.128-8.439 14.516-13.514 22.139-24.256l32.774 17.795 14.314-26.365-33.432-18.152c3.947-11.615 5.887-24.045 5.518-36.965zm-179.198 183.403c-29.242 29.242-76.824 29.242-106.066 0s-29.242-76.823 0-106.066l127.279-127.28c14.623-14.622 33.825-21.931 53.033-21.931 41.223 0 75 33.259 75 74.964 0 20.033-7.801 38.867-21.967 53.033z"/><path d="m310.709 118.813h45v30h-45z" transform="matrix(.707 -.707 .707 .707 2.975 274.807)"/><path d="m321.315 193.059h45v30h-45z" transform="matrix(.707 -.707 .707 .707 -46.418 304.053)"/><path d="m225.856 203.666h45v30h-45z" transform="matrix(.707 -.707 .707 .707 -81.878 239.66)"/><path d="m236.462 277.912h45.001v30h-45.001z" transform="matrix(.707 -.707 .707 .707 -131.271 268.906)"/></g></svg>