<svg id="Capa_1" enable-background="new 0 0 512 512" height="512" viewBox="0 0 512 512" width="512" xmlns="http://www.w3.org/2000/svg"><g><path d="m76 0v77.403l20.971 63.754c19.368 58.877 31.278 120.088 35.401 181.932l1.665 24.976c1.295 19.417 14.386 35.511 31.962 41.462v122.473h180v-122.474c17.576-5.951 30.668-22.044 31.962-41.462l1.665-24.976c4.123-61.844 16.034-123.055 35.401-181.932l20.973-63.752v-77.404zm330 60h-36v-30h36zm-234 0v-30h36v30zm66-30h36v30h-36zm66 0h36v30h-36zm-162 0v30h-36v-30zm174 362v30h-120v-30zm-120 90v-30h120v30zm153.693-160.907-1.665 24.977c-.594 8.933-8.075 15.93-17.028 15.93h-150c-8.953 0-16.433-6.998-17.029-15.932l-1.665-24.976c-4.29-64.352-16.684-128.045-36.837-189.311l-13.744-41.781h288.55l-13.745 41.782c-20.152 61.266-32.546 124.959-36.837 189.311z"/><path d="m211 301h90v30h-90z"/><path d="m256 120c-41.355 0-75 33.645-75 75s33.645 75 75 75 75-33.645 75-75-33.645-75-75-75zm0 120c-24.813 0-45-20.187-45-45s20.187-45 45-45 45 20.187 45 45-20.187 45-45 45z"/></g></svg>