<svg id="Capa_1" enable-background="new 0 0 512.929 512.929" height="512" viewBox="0 0 512.929 512.929" width="512" xmlns="http://www.w3.org/2000/svg"><g><path d="m264.822 287.54-8.822-6.417-8.822 6.417c-2.318 1.686-56.778 41.955-56.778 99.532 0 36.172 29.429 65.6 65.601 65.6s65.601-29.428 65.601-65.6c-.001-57.576-54.461-97.846-56.78-99.532zm-8.822 135.132c-19.63 0-35.601-15.97-35.601-35.6 0-30.259 22.655-55.688 35.609-67.754 3.963 3.686 8.828 8.62 13.663 14.553 10.004 12.278 21.929 31.474 21.929 53.201.001 19.631-15.97 35.6-35.6 35.6z"/><path d="m482.929 255.887v58.119c0 12.094-9.387 22.408-21.473 22.865-12.706.479-23.194-9.717-23.194-22.317v-94.722c0-32.43-26.29-58.72-58.72-58.72h-28.935c13.979-26.402 21.501-56.154 21.501-86.106v-15h-232.215v15c0 29.952 7.522 59.703 21.502 86.106-31.33 0-56.728-25.398-56.728-56.728v-50.584c0-28.657-22.671-52.659-51.323-53.201-29.318-.556-53.344 23.131-53.344 52.323v43.417h30v-42.867c0-12.094 9.386-22.409 21.472-22.866 12.706-.481 23.195 9.716 23.195 22.316v56.682c0 43.709 39 77.735 77.825 81.415-58.36 64.75-91.238 149.395-91.238 237.342v83.978h389.492v-83.979c0-21.572-1.983-42.945-5.83-63.875 5.052 1.59 10.431 2.436 16.009 2.401 28.92-.18 52.004-24.299 52.004-53.22v-57.779zm-103.387-64.774c15.836 0 28.72 12.884 28.72 28.72v40.393c-13.344-24.768-29.65-47.997-48.668-69.112h19.948zm-38.183-101.107c-2.527 25.354-11.397 49.983-25.68 71.106h-119.358c-14.283-21.123-23.153-45.754-25.681-71.106zm79.387 392.333h-329.492v-53.978c0-89.906 37.529-176.04 103.173-237.248h14.51c-6.954 19.801-13.039 41.772-18.097 65.227h30.71c5.403-23.846 11.917-45.859 19.333-65.227h30.234c7.416 19.368 13.929 41.381 19.333 65.227h30.71c-5.058-23.455-11.142-45.425-18.096-65.227h14.51c65.643 61.207 103.172 147.341 103.172 237.247z"/></g></svg>