<svg id="Capa_1" enable-background="new 0 0 512.002 512.002" height="512" viewBox="0 0 512.002 512.002" width="512" xmlns="http://www.w3.org/2000/svg"><g><path d="m480 297.754v-200.787c0-35.512-28.789-64.301-64.301-64.301h-351.398c-35.513 0-64.301 28.788-64.301 64.301v232.657c0 35.361 28.667 64.027 64.028 64.043h.272 55.128v64.333h223.087c18.071 13.647 40.637 21.644 65.047 21.328 56.538-.732 102.908-46.452 104.402-102.975.814-30.794-11.605-58.75-31.964-78.599zm-330.572 95.912h152.841c2.39 12.337 6.925 23.918 13.207 34.333h-166.048zm-85.127-331h351.398c18.913 0 34.301 15.388 34.301 34.301v180.212c-13.363-6.105-28.207-9.513-43.833-9.513-19.115 0-37.062 5.095-52.556 13.996h-323.611v-184.695c0-18.913 15.388-34.301 34.301-34.301zm-33.905 271.916c-.261-1.702-.396-22.92-.396-22.92h290.332c-10.768 14.905-17.752 32.711-19.538 52.004h-236.493-.001c-17.14 0-31.384-12.638-33.904-29.084zm312.625 80.852c-8.008-12.02-12.688-26.438-12.688-41.933 0-41.815 34.018-75.835 75.834-75.835 15.495 0 29.914 4.68 41.934 12.689zm21.213 21.213 105.08-105.08c8.008 12.02 12.688 26.438 12.688 41.933 0 41.815-34.02 75.835-75.835 75.835-15.495.001-29.914-4.679-41.933-12.688z"/><path d="m98.606 217.848 24.471-24.471 24.471 24.471 21.213-21.213-24.471-24.471 24.471-24.471-21.213-21.213-24.471 24.471-24.471-24.471-21.212 21.213 24.47 24.471-24.47 24.471z"/><path d="m215.529 217.848 24.471-24.471 24.471 24.471 21.213-21.213-24.471-24.471 24.471-24.471-21.213-21.213-24.471 24.471-24.471-24.471-21.213 21.213 24.471 24.471-24.471 24.471z"/><path d="m332.453 217.848 24.47-24.471 24.47 24.471 21.213-21.213-24.47-24.471 24.47-24.471-21.213-21.213-24.47 24.471-24.47-24.471-21.213 21.213 24.47 24.471-24.47 24.471z"/></g></svg>