<svg id="Capa_1" enable-background="new 0 0 512 512" height="512" viewBox="0 0 512 512" width="512" xmlns="http://www.w3.org/2000/svg"><path d="m437.02 74.98c-48.353-48.351-112.64-74.98-181.02-74.98s-132.667 26.629-181.02 74.98c-48.351 48.353-74.98 112.64-74.98 181.02s26.629 132.667 74.98 181.02c48.353 48.351 112.64 74.98 181.02 74.98s132.667-26.629 181.02-74.98c48.351-48.353 74.98-112.64 74.98-181.02s-26.629-132.667-74.98-181.02zm-196.02 256.43v150.08c-19.958-1.314-39.222-5.215-57.444-11.397zm-85.14 127.152c-17.631-8.752-33.965-19.733-48.627-32.582l106.05-106.051zm115.14-166.349 133.768 133.767c-36.256 31.771-82.723 52.148-133.768 55.51zm21.213-21.213h189.277c-3.362 51.045-23.739 97.512-55.51 133.768zm189.277-30h-210.49v-210.49c112.689 7.422 203.068 97.801 210.49 210.49zm-240.49-210.49v215.467l-199.093 82.467c-7.719-22.751-11.907-47.118-11.907-72.444 0-119.576 93.351-217.742 211-225.49zm-187.562 325.63 138.633-57.424-106.051 106.052c-12.849-14.663-23.83-30.997-32.582-48.628z"/></svg>