<svg id="Capa_1" enable-background="new 0 0 511.94 511.94" height="512" viewBox="0 0 511.94 511.94" width="512" xmlns="http://www.w3.org/2000/svg"><g><path d="m358.442 92.766h30v30.026h-30z"/><path d="m494.672 232.862c16.438-15.454 21.688-38.992 13.377-59.967-7.348-18.541-23.789-31.274-43.089-33.982l-19.261-34.379c-2.287-28.199-19.034-50.418-45.381-59.87-29.506-10.587-63.318-1.939-84.297 21.512l-28.466 28.466c-24.174-26.129-61.286-39.919-98.181-35.359-119.218 10.27-102.026-2.124-170.641-25.53v44.678c0 40.144-.004 85.383 61.101 108.552 4.324 29.479 25.793 53.457 53.921 61.46l-133.755 133.754c1.877 12.428 1.52 41.094 37.129 72.819 25.983 22.479 69.772 26.829 106.517 20.569l36.808-108.962 66.621.409c78.012 0 141.48-63.468 141.48-141.479v-43.353c0-7.642 6.218-13.859 13.859-13.859h6.043c-.744 1.477-1.435 2.992-2.054 4.554-8.312 20.975-3.062 44.514 13.375 59.967l15.55 14.62-23.598 22.187 20.551 21.855 24.944-23.453 24.944 23.453 20.551-21.855-23.598-22.187zm-383.074-41.86h103.042v-30h-118.28c-47.624-15.491-47.627-42.295-47.627-82.571v-.601c31.228 13.537 51.478 19.582 143.509 11.315 42.908-5.269 74.052 19.989 87.225 45.281 9.728 18.262 9.124 39.843-1.615 57.73-10.957 18.251-30.163 29.147-51.376 29.147h-72.138c-19.724.002-36.534-12.672-42.74-30.301zm246.957-8.802v43.354c0 61.47-50.01 111.479-111.388 111.479l-88.199-.542-37.622 111.371c-27.452 1.92-49.326-3.444-65.118-15.985-15.827-12.568-22.09-29.839-24.422-39.06l141.512-141.512h53.157c31.846 0 60.667-16.339 77.097-43.706 16.099-26.606 17.191-60.78 1.786-88.334l32.188-32.188c14.146-16.882 37.522-19.829 52.642-14.177 16.63 5.591 26.366 21.717 25.874 40.111l14.19 25.328h-27.838c-24.185.001-43.859 19.676-43.859 43.861zm98.671 44.692-16.897-15.888c-7.645-7.188-9.9-17.303-6.034-27.058 3.865-9.756 12.438-15.58 22.932-15.58s19.067 5.824 22.933 15.58c3.866 9.755 1.609 19.87-6.036 27.059z"/></g></svg>