<svg height="512pt" viewBox="0 0 512 512" width="512pt" xmlns="http://www.w3.org/2000/svg"><path d="m0 0v512h512v-512zm68.785156 90h373.355469l39.859375-39.207031v251.207031h-31v-79.433594l-34.1875-102.566406h-51.625l-19.1875 57.566406-19.1875-57.566406h-51.625l-19.1875 57.566406-19.1875-57.566406h-51.625l-19.1875 57.566406-19.1875-57.566406h-52.625l-34.1875 102.566406v79.433594h-30v-250.785156zm-17.570312-60h409.144531l-30.5 30h-348.644531zm38.785156 210h61v62h-61zm5.8125-30 20-60h9.375l20 60zm85.1875 30h60v62h-60zm5.8125-30 20-60h8.375l20 60zm84.1875 30h60v62h-60zm5.8125-30 20-60h8.375l20 60zm84.1875 30h60v62h-60zm5.8125-30 20-60h8.375l20 60zm-336.8125 122h452v68.738281l-82.164062 81.261719h-288.621094l-81.214844-81.214844zm0 111.214844 38.785156 38.785156h-38.785156zm412.496094 38.785156 39.503906-39.066406v39.066406zm0 0"/><path d="m331 452v-90h-150v90zm-30-30h-30v-30h30zm-90-30h30v30h-30zm0 0"/></svg>