<svg id="Capa_1" enable-background="new 0 0 508.402 508.402" height="512" viewBox="0 0 508.402 508.402" width="512" xmlns="http://www.w3.org/2000/svg"><g><path d="m434.896.003h-361.389l-73.507 146.858c2.408 38.451 18.516 83.779 35.312 118.683 71.259 148.076 205.242 231.237 218.889 242.855 13.135-11.181 147.447-94.399 218.889-242.856 16.791-34.89 32.906-80.263 35.312-118.683zm10.36 254.188c-27.009 55.531-81.967 137.707-191.055 217.331-109.088-79.624-164.046-161.8-191.055-217.331-24.945-51.287-31.188-89.674-32.594-101.345l61.487-122.843h324.324l61.485 122.841c-1.412 11.719-7.661 50.09-32.592 101.347z"/><path d="m125.769 60.878-58.89 96.804c.766 2.43 3.461 28.663 33.809 86.574 66.552 126.985 148.404 180.915 153.513 186.454 5.525-5.99 86.447-58.491 153.514-186.454 19.406-37.03 27.301-66.503 30.279-80.775l1.175-5.628-56.334-96.975h-257.066zm255.374 169.453c-22.064 42.1-58.924 103.816-126.941 161.596-68.018-57.78-104.878-119.497-126.942-161.596-15.583-29.735-24.609-53.297-28.45-67.415l43.824-72.037h222.934l41.817 71.984c-3.397 14.071-10.777 37.958-26.242 67.468z"/><path d="m305.868 179.55 22.579-22.58-21.213-21.213-22.579 22.58c-4.772-2.824-9.958-5.016-15.454-6.436v-31.898h-30v31.898c-5.496 1.42-10.683 3.611-15.454 6.436l-22.579-22.58-21.213 21.213 22.579 22.58c-2.822 4.77-5.015 9.957-6.435 15.453h-31.898v30h31.899c1.42 5.496 3.612 10.684 6.436 15.454l-22.58 22.579 21.213 21.213 22.58-22.579c4.771 2.823 9.957 5.015 15.453 6.435v31.898h30v-31.898c5.496-1.42 10.683-3.611 15.453-6.435l22.58 22.579 21.213-21.213-22.58-22.579c2.823-4.77 5.016-9.958 6.436-15.454h31.898v-30h-31.898c-1.421-5.496-3.614-10.682-6.436-15.453zm-51.667 60.453c-16.542 0-30-13.458-30-30s13.458-30 30-30 30 13.458 30 30-13.458 30-30 30z"/></g></svg>