<svg id="Capa_1" enable-background="new 0 0 512 512" height="512" viewBox="0 0 512 512" width="512" xmlns="http://www.w3.org/2000/svg"><g><path d="m504.026 53.282c-75.544-40.052-149.963-20.323-221.931-1.246-66.564 17.646-129.591 34.346-192.095 5.265v-57.301h-90v512h90v-73.12c24.808 9.53 49.477 13.22 73.966 13.22 42.574 0 84.602-11.141 125.817-22.066 69.44-18.408 135.028-35.795 200.19-1.246l22.027 11.678v-382.956zm-444.026 428.718h-30v-452h30zm422-89.77c-67.979-26.166-134.941-8.414-199.904 8.806-66.565 17.646-129.592 34.347-192.096 5.265v-316.422c67.941 26.098 134.86 8.366 199.783-8.844 66.609-17.658 129.672-34.378 192.217-5.218z"/><path d="m325.636 241.607c21.888-21.889 21.887-57.503-.001-79.391-10.603-10.604-24.699-16.442-39.694-16.442s-29.092 5.839-39.696 16.442c-21.887 21.888-21.887 57.503 0 79.391l18.483 18.482-50.6 50.6 21.213 21.213 50.6-50.6 50.6 50.6 21.213-21.213-50.6-50.6zm-58.179-58.177c5.097-5.096 11.789-7.644 18.483-7.644 6.692 0 13.387 2.549 18.481 7.644 10.191 10.191 10.191 26.773.001 36.965l-18.482 18.482-18.482-18.482c-10.191-10.192-10.191-26.774-.001-36.965z"/></g></svg>