<svg id="Capa_1" enable-background="new 0 0 512 512" height="512" viewBox="0 0 512 512" width="512" xmlns="http://www.w3.org/2000/svg"><g><path d="m171.303 271.566 11.48 27.717c23.331-9.664 47.964-14.564 73.217-14.564 25.252 0 49.886 4.9 73.217 14.564l11.48-27.717c-26.989-11.179-55.485-16.848-84.697-16.848-29.212.001-57.709 5.67-84.697 16.848z"/><path d="m194.265 326.999 11.481 27.717c32.406-13.424 68.101-13.424 100.509 0l11.48-27.717c-39.81-16.49-83.66-16.49-123.47 0z"/><path d="m191 172.551h30v30h-30z"/><path d="m291 172.551h30v30h-30z"/><path d="m467.005.01c-.014 0-.026 0-.04 0-31.797 0-62.646 13.182-84.643 36.17l-12.813 13.392c-28.323-30.473-68.724-49.572-113.509-49.572s-85.186 19.099-113.509 49.571l-12.813-13.391c-21.997-22.99-52.843-36.17-84.643-36.17-.012 0-.029 0-.041 0l-14.994.005v75.203c.147 32.84 15.22 63.106 41.355 83.041 8.657 6.601 18.855 11.163 29.645 13.371v115.51l90.558 224.86h128.885l90.557-224.86v-115.51c10.79-2.208 20.988-6.771 29.646-13.373 26.134-19.933 41.207-50.199 41.354-83.107v-75.135zm-407.005 75.14v-43.829c18.168 3.198 35.124 12.14 48.002 25.599l16.074 16.8c-12.272 19.845-20.189 42.65-22.419 67.078-4.38-1.48-8.486-3.631-12.11-6.394-18.672-14.243-29.442-35.864-29.547-59.254zm157.986 406.85c4.442-16.838 19.799-29.291 38.014-29.291s33.571 12.453 38.014 29.291zm163.014-200.675-68.637 170.43c-12.586-17.567-33.153-29.046-56.363-29.046s-43.777 11.479-56.363 29.046l-68.637-170.43v-126.325c0-68.925 56.075-125 125-125s125 56.075 125 125zm71-206.242c-.104 23.457-10.874 45.078-29.545 59.319-3.626 2.764-7.732 4.916-12.112 6.395-2.23-24.427-10.147-47.232-22.419-67.078l16.074-16.8c12.88-13.46 29.833-22.401 48.002-25.6z"/></g></svg>