<svg id="Capa_1" enable-background="new 0 0 512 512" height="512" viewBox="0 0 512 512" width="512" xmlns="http://www.w3.org/2000/svg"><g><path d="m248.652 389.788-.277-111.89h-27.72v-277.898h-89.991v277.898h-27.719v72.714l-33.802 35.802v12.719c0 62.235 50.632 112.867 112.866 112.867h158.858v-29.997c-50.848 0-92.215-41.367-92.215-92.215zm12.08 92.2c-46.622-.32-84.456-38.334-84.456-85.031v-29.04h42.379v21.871c0 36.758 16.311 69.776 42.077 92.2zm-127.791-144.068v-30.024h85.436v30.024zm27.719-307.923h29.997v247.901h-29.997zm21.349 452.006c-45.694 0-82.869-37.175-82.869-82.87l28.921-31.216h18.218v29.04c0 33.66 14.532 63.989 37.65 85.046z"/><path d="m382.863 163.831h29.997v29.997h-29.997z"/><path d="m382.863 223.825h29.997v29.997h-29.997z"/><path d="m352.866 193.828h29.997v29.997h-29.997z"/><path d="m294.871 276.684h29.997v29.997h-29.997z"/><path d="m412.86 193.828h29.997v29.997h-29.997z"/></g></svg>