<svg id="Capa_1" enable-background="new 0 0 511.521 511.521" height="512" viewBox="0 0 511.521 511.521" width="512" xmlns="http://www.w3.org/2000/svg"><g><g><path d="m447.807 210.967 63.714-63.713-147.254-147.254-63.713 63.713 14.586 14.586-41.734 41.734c-10.765-12.037-26.401-19.632-43.782-19.632-27.721 0-51.003 19.307-57.146 45.176-22.775 10.294-42.275 26.463-56.693 47.145-16.255 23.316-24.847 50.714-24.847 79.23 0 9.503.963 18.786 2.792 27.757l-69.274 69.274c-15.771 15.77-24.456 36.738-24.456 59.042 0 22.303 8.686 43.271 24.456 59.04 15.771 15.771 36.738 24.456 59.042 24.456 22.303 0 43.271-8.686 59.041-24.456l76.806-76.806c3.395.25 6.822.381 10.279.381 76.472 0 138.687-62.215 138.687-138.687 0-3.445-.132-6.873-.381-10.28l65.293-65.292zm-83.54-168.541 104.827 104.828-21.287 21.287-104.827-104.828zm-163.39 116.722c0-15.851 12.896-28.746 28.746-28.746s28.746 12.896 28.746 28.746v42.372h-28.746c-15.851 0-28.746-12.896-28.746-28.746zm-79.552 306.704c-10.104 10.104-23.539 15.669-37.828 15.669s-27.724-5.564-37.828-15.669c-10.105-10.105-15.669-23.538-15.669-37.827 0-14.29 5.564-27.724 15.668-37.828l58.712-58.712c15.884 33.282 44.65 59.278 79.808 71.503zm108.298-85.212c-59.93 0-108.686-48.757-108.686-108.687 0-22.351 6.728-43.815 19.457-62.073 8.346-11.972 18.862-22.011 30.967-29.7 3.655 28.906 28.38 51.339 58.262 51.339h58.746v-51.027c11.901 7.648 22.249 17.575 30.484 29.387 12.729 18.258 19.457 39.723 19.457 62.073 0 59.931-48.757 108.688-108.687 108.688zm131.057-154.143c-4.128-11.905-9.885-23.258-17.217-33.774-13.908-19.949-32.533-35.717-54.273-46.048l47.163-47.163 75.656 75.656z"/></g><g><path d="m229.623 320.64c-15.981 0-28.983-13.002-28.983-28.983h-30c0 32.523 26.46 58.983 58.983 58.983 32.524 0 58.984-26.46 58.984-58.983h-30c0 15.981-13.002 28.983-28.984 28.983z"/></g></g></svg>