<svg id="Capa_1" enable-background="new 0 0 512 512" height="512" viewBox="0 0 512 512" width="512" xmlns="http://www.w3.org/2000/svg"><g><path d="m512 219.666h-30v-35c0-57.897-47.103-105-105-105h-63.739v90h63.739c8.271 0 15 6.729 15 15v35h-272v-35c0-8.271 6.729-15 15-15h63.74v-90h-63.74c-57.897 0-105 47.103-105 105v35h-30v90h20v122.668l35.091-14.717 20.091 8.426 20.091-8.426 20.091 8.426 20.091-8.426 20.091 8.426 20.091-8.426 20.091 8.426 20.091-8.426 20.091 8.426 20.09-8.426 20.091 8.426 20.091-8.426 20.091 8.426 20.091-8.426 20.092 8.426 20.09-8.426 20.092 8.426 20.091-8.426 20.091 8.426 20.091-8.426 35.089 14.717v-122.668h20zm-135-80h-33.739v-30h33.739c41.355 0 75 33.645 75 75v35h-30v-35c0-24.813-20.187-45-45-45zm-317 45c0-41.355 33.645-75 75-75h33.74v30h-33.74c-24.813 0-45 20.187-45 45v35h-30zm-30 65h452v30h-452zm432 137.555-5.091-2.135-20.091 8.426-20.091-8.426-20.091 8.426-20.092-8.426-20.09 8.426-20.092-8.426-20.091 8.426-20.091-8.426-20.091 8.426-20.089-8.426-20.091 8.426-20.091-8.426-20.091 8.426-20.091-8.426-20.091 8.426-20.091-8.426-20.091 8.426-20.091-8.426-20.091 8.426-20.091-8.426-5.09 2.135v-77.555h412z"/></g></svg>