<svg id="Capa_1" enable-background="new 0 0 512 512" height="512" viewBox="0 0 512 512" width="512" xmlns="http://www.w3.org/2000/svg"><g><path d="m443.407 50.116c-15.502-30.912-46.581-50.116-81.109-50.116h-15.298c-41.355 0-75 33.645-75 75v3.541l15 30c12.787 25.573 38.491 41.459 67.082 41.459h4.621l-8.762 43.806c-8.601 43.002-14.03 71.513-16.458 106.176-4.482-3.145-9.463-6.096-14.922-8.825-24.707-12.353-57.224-19.157-91.561-19.157-39.988 0-76.511 9.05-101.555 24.708-25.387-33.675-67.064-54.708-110.445-54.708h-15v270h15c31.987 0 63.095-10.918 87.151-30.285 30.787 19.107 76.314 30.285 124.849 30.285 46.079 0 90.14-10.171 120.885-27.906 36.359-20.973 77.502-32.07 118.98-32.09 24.888-.013 45.135-20.201 45.135-45.004v-65.072c0-101.418-23.719-202.325-68.593-291.812zm38.593 356.884c0 8.269-6.796 15-15.149 15.004-38.131.019-75.991 8.339-110.86 24.221l-28.868-14.434-13.416 26.833 9.263 4.631c-25.64 11.986-59.88 18.745-95.97 18.745-36.658 0-71.858-7.213-97.412-19.448l23.644-10.348-12.028-27.483-41.381 18.042-9.33 9.229c-15.751 15.438-37.61 25.764-60.493 28.958v-207.89c32.829 4.646 62.662 24.241 78.583 52.538l9.257 16.452 13.935-12.735c18.157-16.593 55.535-27.315 95.225-27.315 60.096 0 105 23.758 105 45h30c0-57.944 5.636-88.692 17.359-147.31l15.938-79.69h-41.215c-17.154 0-32.577-9.532-40.25-24.875l-2.562-5.125h50.73v-30h-57.417c6.192-17.458 22.863-30 42.417-30h15.298c23.107 0 43.911 12.861 54.293 33.564 42.791 85.334 65.409 181.591 65.409 278.364z"/><path d="m247.762 436.93c13.705 1.653 27.202 4.956 40.117 9.816l10.566-28.077c-15.16-5.706-31.004-9.583-47.09-11.523z"/><path d="m171.154 413.559 8.283 28.834c13.262-3.81 26.98-6.02 40.775-6.569l-1.193-29.977c-16.193.646-32.297 3.24-47.865 7.712z"/></g></svg>