<svg id="Capa_1" enable-background="new 0 0 510 510" height="512" viewBox="0 0 510 510" width="512" xmlns="http://www.w3.org/2000/svg"><g><path id="XMLID_1317_" d="m420 165v30h-53.764c-11.517-28.367-33.579-51.365-61.3-64.104 11.812-10.562 20.274-24.795 23.554-40.896h31.51v30h90v-90h-90v30h-31.51c-6.968-34.191-37.27-60-73.49-60-41.355 0-75 33.645-75 75 0 22.191 9.695 42.152 25.064 55.896-41.308 18.983-70.064 60.747-70.064 109.104v15h-45v-30h-90v90h90v-30h45v75h31.425l6 60h-67.425v-30h-90v90h90v-30h70.425l6 60h147.15l15-150h31.425v-120c0-5.079-.32-10.085-.935-15h45.935v30h90v-90zm-30-105h30v30h-30zm-330 225h-30v-30h30zm15 165h-30v-30h30zm135-375c0-24.813 20.186-45 45-45 19.555 0 36.228 12.541 42.42 30h-42.42v30h42.42c-6.192 17.459-22.865 30-42.42 30-24.814 0-45-20.187-45-45zm135 165v90h-28.575l-15 150h-92.85l-3-30h34.425v-30h-37.425l-9-90h-28.575v-45h45v-30h-45v-15c0-49.626 40.374-90 90-90 33.244 0 62.334 18.119 77.918 45h-32.918v30h43.743c.822 4.88 1.257 9.89 1.257 15zm135-15h-30v-30h30z"/></g></svg>