<svg id="Capa_1" enable-background="new 0 0 512 512" height="512" viewBox="0 0 512 512" width="512" xmlns="http://www.w3.org/2000/svg"><g><path d="m407 241h30v30h-30z"/><path d="m362 196h30v30h-30z"/><path d="m362 286h30v30h-30z"/><path d="m512 256c0-25.696-10.827-48.909-28.156-65.323 6.97-23.526 4.1-49.222-8.286-70.677-12.841-22.242-33.809-36.928-57.01-42.485-9.453-40.115-45.258-69.131-87.548-69.131-24.04 0-46.642 9.362-63.64 26.359-4.297 4.296-8.101 8.953-11.394 13.898-16.141-24.246-43.717-40.258-74.966-40.258-42.29 0-78.095 29.016-87.549 69.131-23.2 5.557-44.169 20.244-57.01 42.487-12.386 21.454-15.256 47.15-8.286 70.676-17.328 16.414-28.155 39.627-28.155 65.323s10.827 48.909 28.156 65.323c-6.97 23.526-4.1 49.222 8.286 70.677 12.841 22.241 33.809 36.92 57.008 42.478 9.451 40.119 45.258 69.138 87.551 69.138 31.271 0 58.863-16.034 75-40.309 16.137 24.275 43.729 40.31 75 40.31 42.293 0 78.1-29.02 87.551-69.14 23.198-5.559 44.169-20.239 57.008-42.477 12.386-21.454 15.256-47.151 8.286-70.676 17.327-16.415 28.154-39.628 28.154-65.324zm-331 217.616c-25.009 0-46.626-15.209-55.588-37.302 11.642-1.422 23.19-5.147 33.972-11.372l-15-25.98c-28.652 16.539-65.419 6.689-81.962-21.962-6.694-11.594-9.202-25.05-7.439-38.092 10.768 4.565 22.603 7.092 35.017 7.092v-30c-33.084 0-60-26.916-60-60s26.916-60 60-60v-30c-12.414 0-24.249 2.527-35.017 7.092-1.763-13.042.745-26.498 7.439-38.092 16.543-28.651 53.313-38.502 81.962-21.962l15-25.98c-10.781-6.225-22.327-9.956-33.969-11.378 8.963-22.09 30.578-37.297 55.585-37.297 33.084 0 60 26.916 60 60 0 23.85-14.134 45.438-36.007 54.998l12.014 27.488c8.924-3.9 16.98-9.145 23.993-15.421v181.104c-7.013-6.277-15.069-11.521-23.993-15.421l-12.014 27.488c21.873 9.561 36.007 31.148 36.007 54.998 0 33.083-26.916 59.999-60 59.999zm268.578-96.616c-16.542 28.652-53.311 38.502-81.962 21.962l-15 25.98c10.783 6.226 22.329 9.951 33.972 11.372-8.962 22.093-30.579 37.303-55.588 37.303-33.084-.001-60-26.917-60-60 0-23.85 14.134-45.438 36.007-54.998l-12.014-27.488c-8.924 3.9-16.98 9.145-23.993 15.421v-181.104c7.013 6.277 15.069 11.521 23.993 15.421l12.014-27.488c-21.873-9.561-36.007-31.149-36.007-54.998 0-16.026 6.241-31.094 17.573-42.426 11.333-11.333 26.4-17.573 42.427-17.573 25.007 0 46.622 15.207 55.586 37.297-11.642 1.421-23.189 5.153-33.969 11.377l15 25.98c28.649-16.54 65.418-6.69 81.962 21.962 6.694 11.594 9.202 25.05 7.439 38.092-10.769-4.565-22.604-7.092-35.018-7.092v30c33.084 0 60 26.916 60 60s-26.916 60-60 60v30c12.414 0 24.248-2.526 35.017-7.092 1.762 13.042-.746 26.498-7.439 38.092z"/></g></svg>