<svg id="Capa_1" enable-background="new 0 0 512.011 512.011" height="512" viewBox="0 0 512.011 512.011" width="512" xmlns="http://www.w3.org/2000/svg"><g><path d="m121.006 150h30v-120h30v-30c-11.219 0-80.184 0-90 0v30h30z"/><path d="m256.006 150c24.813 0 45-20.187 45-45v-60c0-24.813-20.187-45-45-45s-45 20.187-45 45v60c0 24.813 20.186 45 45 45zm-15-105c0-8.271 6.729-15 15-15s15 6.729 15 15v60c0 8.271-6.729 15-15 15s-15-6.729-15-15z"/><path d="m361.006 90h15c24.813 0 45-20.187 45-45s-20.187-45-45-45h-45v150h30zm0-60h15c8.271 0 15 6.729 15 15s-6.729 15-15 15h-15z"/><path d="m256.006 225v60c0 24.813 20.187 45 45 45s45-20.187 45-45v-60c0-24.813-20.187-45-45-45s-45 20.187-45 45zm60 0v60c0 8.271-6.729 15-15 15s-15-6.729-15-15v-60c0-8.271 6.729-15 15-15s15 6.729 15 15z"/><path d="m166.006 210v30h15c5.259 0 10.305-.915 15-2.58v92.58h30v-135-15h-30v15c0 8.271-6.729 15-15 15z"/><path d="m510.303 407.035-61.703-8.966-27.595-55.913-27.595 55.913-54.905 7.978-54.905-7.978-27.595-55.913-27.595 55.913-54.905 7.978-54.905-7.978-27.595-55.913-27.595 55.913-61.703 8.966 44.649 43.522-10.542 61.454 55.19-29.015 55.19 29.015-10.542-61.454 37.852-36.896 37.852 36.896-10.542 61.454 55.19-29.015 55.19 29.015-10.542-61.454 37.852-36.896 37.852 36.896-10.542 61.454 55.19-29.015 55.19 29.015-10.542-61.454zm-403.953 50.135-15.345-8.067-15.345 8.067 2.931-17.087-12.415-12.101 17.156-2.493 7.673-15.546 7.673 15.546 17.156 2.493-12.415 12.101zm165 0-15.345-8.067-15.345 8.067 2.931-17.087-12.415-12.101 17.156-2.493 7.673-15.546 7.673 15.546 17.156 2.493-12.415 12.101zm165 0-15.345-8.067-15.345 8.067 2.931-17.087-12.415-12.101 17.156-2.493 7.673-15.546 7.673 15.546 17.156 2.493-12.415 12.101z"/></g></svg>