<svg id="Capa_1" enable-background="new 0 0 512 512" height="512" viewBox="0 0 512 512" width="512" xmlns="http://www.w3.org/2000/svg"><g><path d="m469.347 241.642v-136.642c0-57.897-47.103-105-105-105h-216.694c-57.897 0-105 47.103-105 105v136.642l-42.653 185.449v84.909h512v-84.909zm-293.719-52.654h160.744c21.686 38.926 61.598 64.801 105.907 68.811l35.879 155.995h-444.316l35.879-155.995c44.309-4.01 84.221-29.885 105.907-68.811zm-27.975-158.988h216.693c41.355 0 75 33.645 75 75v122.257c-34.668-5.044-65.184-27.32-80.2-59.596l-4.035-8.673h-198.222l-4.035 8.673c-15.016 32.276-45.532 54.552-80.2 59.596v-122.257c-.001-41.355 33.644-75 74.999-75zm-117.653 452v-38.206h452v38.206z"/><path d="m256.001 383.994 69.42-69.358c10.691-10.682 16.579-24.707 16.579-39.494s-5.888-28.812-16.579-39.493c-18.802-18.784-47.649-21.561-69.42-8.33-21.771-13.23-50.619-10.454-69.42 8.33-10.693 10.684-16.582 24.711-16.581 39.497.001 14.783 5.89 28.808 16.581 39.49zm-48.217-127.123c5.186-5.181 11.996-7.771 18.808-7.771s13.622 2.59 18.808 7.771l10.602 10.593 10.602-10.593c10.369-10.361 27.242-10.363 37.615 0 5.019 5.014 7.782 11.503 7.782 18.271 0 6.769-2.764 13.257-7.782 18.271l-48.217 48.173-48.216-48.173c-5.02-5.015-7.785-11.504-7.785-18.271-.002-6.766 2.763-13.255 7.783-18.271z"/></g></svg>