<svg id="Capa_1" enable-background="new 0 0 512 512" height="512" viewBox="0 0 512 512" width="512" xmlns="http://www.w3.org/2000/svg"><g><path d="m486.057 229.878v-.064c0-40.429-17.237-76.901-44.741-102.474v-127.339h-15c-61.09-.001-112.626 41.66-127.711 98.06-15.531 5.581-29.994 13.925-42.809 24.801-12.815-10.876-27.277-19.22-42.808-24.801-15.084-56.4-66.62-98.061-127.711-98.061h-15v127.34c-27.503 25.573-44.74 62.046-44.74 102.474v282.186h460.927zm-74.74-198.78v74.914c-19.487-10.307-41.68-16.156-65.216-16.156-4.382 0-8.729.203-13.034.596 14.028-31.224 43.272-54.188 78.25-59.354zm-311.04 0c34.978 5.166 64.222 28.13 78.251 59.354-4.305-.392-8.652-.596-13.034-.596-23.537 0-45.73 5.849-65.217 16.156zm10.437 188.094-.061 262.808h-55.116v-252.186c0-60.631 49.326-109.957 109.957-109.957 15.527 0 30.506 3.176 44.244 9.214-2.807-.258-5.639-.403-8.497-.403-49.917-.001-90.527 40.608-90.527 90.524zm259.511 262.808h-229.511v-100.193c1.269-26.027 22.618-46.807 48.683-46.807 4.306 0 8.546.591 12.622 1.707-1.056 19.543 8.27 33.749 21.762 41.909l14.548 8.799c-5.406 14.162-19.125 24.251-35.164 24.251v30c21.245 0 40.222-9.855 52.63-25.224 12.408 15.369 31.386 25.224 52.631 25.224v-30c-15.869 0-29.465-9.878-34.988-23.804l15.287-9.246c13.492-8.16 23.987-23.616 21.734-42.298 3.583-.85 7.274-1.319 11.021-1.319 26.878 0 48.744 22.097 48.744 49.258v97.743zm-138.316-142.278c0-8.486 6.795-15.389 15.146-15.389h18.398c8.352 0 15.146 6.903 15.146 15.389 0 5.396-2.835 10.463-7.399 13.224l-16.946 10.25-16.946-10.25c-4.564-2.76-7.399-7.827-7.399-13.224zm138.752-17.297c-13.486-10.889-30.585-17.425-49.18-17.425-7.964 0-15.789 1.243-23.234 3.576-8.236-8.76-19.886-14.242-32.793-14.242h-18.398c-13.104 0-24.916 5.646-33.171 14.64-7.817-2.593-16.075-3.974-24.487-3.974-18.368 0-35.273 6.38-48.683 17.031v-102.84c0-33.373 27.151-60.524 60.525-60.524 16.674 0 32.207 6.639 43.74 18.694l10.839 11.329 10.839-11.329c11.533-12.055 27.067-18.694 43.741-18.694 33.373 0 60.524 27.151 60.524 60.486zm85.396 159.575h-55.8l.667-262.808c0-49.915-40.609-90.524-90.524-90.524-2.878 0-5.73.148-8.556.409 13.742-6.042 28.726-9.22 44.258-9.22 60.623 0 109.945 49.317 109.957 109.938v252.205z"/><path d="m174.085 236.667h30v30h-30z"/><path d="m307.508 236.667h30v30h-30z"/></g></svg>