<svg id="Capa_1" enable-background="new 0 0 512 512" height="512" viewBox="0 0 512 512" width="512" xmlns="http://www.w3.org/2000/svg"><g><path d="m512 136h-26.993l5-30h-355.007v30h27.293l-5 30h-24.866c-29.229 0-56.828 10.606-78.4 30h-54.027v180h69.026c21.572 19.394 49.171 30 78.4 30h76.65c20.687 0 38.638-14.017 43.655-34.086l21.481-85.914h10.788c24.813 0 45-20.187 45-45 0-5.259-.915-10.305-2.58-15h127.587l10-60h31.993zm-239.707 60h-29.586l10-60h29.586zm-79.586-60h29.586l-10 60h-29.586zm122.293 105c0 8.271-6.729 15-15 15h-34.212l-27.159 108.638c-1.673 6.69-7.656 11.362-14.552 11.362h-76.65c-23.353 0-45.308-9.094-61.82-25.606l-4.394-4.394h-51.213v-120h36.213l4.394-4.394c16.512-16.512 38.467-25.606 61.82-25.606h19.866l-5 30h152.707c8.271 0 15 6.729 15 15zm129.593-45h-141.886l10-60h141.886z"/></g></svg>