<svg id="Capa_1" enable-background="new 0 0 511.996 511.996" height="512" viewBox="0 0 511.996 511.996" width="512" xmlns="http://www.w3.org/2000/svg"><g><path d="m255.998 0-221.7 127.999v255.998l221.7 127.999 221.7-127.999v-255.998zm191.7 366.677-191.7 110.679-191.7-110.679v-221.358l191.7-110.679 191.7 110.679z"/><path d="m94.298 162.64v186.717l161.7 93.357 161.7-93.357v-186.717l-161.7-93.357zm199.727-36.762v40.121h-76.055v-40.121l38.027-21.955zm-38.027 146.026c20.667 8.012 35.023 24.972 37.607 44.095h-75.214c2.584-19.123 16.94-36.083 37.607-44.095zm0-31.809c-20.667-8.012-35.024-24.972-37.607-44.096h75.214c-2.583 19.124-16.94 36.084-37.607 44.096zm-131.7-60.135 63.673-36.761v46.591c0 26.078 13.376 50.302 35.091 66.21-21.715 15.909-35.091 40.133-35.091 66.21v46.588l-63.673-36.761zm93.673 206.158v-40.119h76.055v40.119l-38.027 21.955zm169.727-54.082-63.673 36.761v-46.587c0-26.078-13.376-50.302-35.091-66.21 21.715-15.909 35.091-40.133 35.091-66.21v-46.591l63.673 36.761z"/></g></svg>