<?xml version="1.0" encoding="iso-8859-1"?>
<!-- Generator: Adobe Illustrator 19.0.0, SVG Export Plug-In . SVG Version: 6.00 Build 0)  -->
<svg xmlns="http://www.w3.org/2000/svg" xmlns:xlink="http://www.w3.org/1999/xlink" version="1.1" id="Capa_1" x="0px" y="0px" viewBox="0 0 512 512" style="enable-background:new 0 0 512 512;" xml:space="preserve">
<g>
	<g>
		<path d="M357.291,222.008l-0.304-5.59c-3.227-59.269-27.495-111.69-47.285-145.229c-21.338-36.162-41.841-58.407-42.703-59.336    L256,0l-10.999,11.853c-0.862,0.929-21.365,23.175-42.703,59.336c-35.854,60.765-45.503,112.515-47.285,145.229l-0.304,5.59    l30.745,39.629l-26.052,18.189l2.293,9.885c18.065,77.885,65.144,137.168,79.301,153.67V512h30.011v-68.619    c14.156-16.501,61.236-75.784,79.301-153.67l2.293-9.885l-26.052-18.189L357.291,222.008z M240.994,393.602    c-16.331-24.138-36.362-59.546-47.604-100.904l35.12-24.521l-43.162-55.635c2.218-27.928,9.582-54.319,19.031-77.864    l36.615,31.535V393.602z M240.994,126.605l-23.639-20.359c7.857-15.353,16.134-28.841,23.639-39.963V126.605z M271.006,66.199    c7.52,11.123,15.815,24.625,23.685,40.009l-23.685,20.399V66.199z M271.006,393.533V166.213l36.653-31.568    c9.43,23.529,16.776,49.921,18.993,77.896l-43.162,55.635l35.119,24.52C307.389,333.919,287.348,369.351,271.006,393.533z"/>
	</g>
</g>
<g>
</g>
<g>
</g>
<g>
</g>
<g>
</g>
<g>
</g>
<g>
</g>
<g>
</g>
<g>
</g>
<g>
</g>
<g>
</g>
<g>
</g>
<g>
</g>
<g>
</g>
<g>
</g>
<g>
</g>
</svg>
