<?xml version="1.0" encoding="iso-8859-1"?>
<!-- Generator: Adobe Illustrator 19.0.0, SVG Export Plug-In . SVG Version: 6.00 Build 0)  -->
<svg xmlns="http://www.w3.org/2000/svg" xmlns:xlink="http://www.w3.org/1999/xlink" version="1.1" id="Layer_1" x="0px" y="0px" viewBox="0 0 512 512" style="enable-background:new 0 0 512 512;" xml:space="preserve">
<g>
	<g>
		<path d="M512,108.668c0-29.026-11.303-56.316-31.829-76.839C459.648,11.303,432.359,0,403.332,0    c-23.847,0-46.517,7.635-65.231,21.74l-11.432-11.432l-21.697,21.697l11.441,11.441c-16.29,21.679-23.405,48.109-21.344,73.941    l-34.529,38.33L77.176,359.264l26.931,26.931L0,490.303L21.697,512l104.107-104.107l26.932,26.932l203.547-183.365l38.33-34.53    c2.902,0.231,5.81,0.354,8.719,0.354c22.991,0,45.977-7.237,65.222-21.698l11.441,11.441l21.697-21.697l-11.432-11.432    C504.365,155.185,512,132.515,512,108.668z M153.838,392.532l-34.37-34.37l142.235-157.889l50.025,50.025L153.838,392.532z     M334.558,229.732l-52.29-52.29l21.875-24.281c2.306,5.149,5.04,10.094,8.136,14.83c0.186,0.285,0.372,0.57,0.56,0.853    c0.593,0.889,1.199,1.769,1.819,2.642c0.456,0.643,0.919,1.284,1.39,1.919c0.358,0.481,0.716,0.96,1.082,1.436    c0.732,0.952,1.484,1.895,2.252,2.828c0.268,0.324,0.538,0.646,0.81,0.968c0.868,1.03,1.754,2.05,2.667,3.054    c0.167,0.183,0.338,0.363,0.505,0.545c1.01,1.096,2.039,2.182,3.102,3.245c0.008,0.008,0.016,0.017,0.025,0.026    c0.008,0.009,0.017,0.016,0.027,0.026c1.064,1.064,2.149,2.093,3.245,3.102c0.181,0.168,0.361,0.338,0.543,0.503    c1.004,0.913,2.025,1.8,3.055,2.669c0.321,0.271,0.643,0.541,0.967,0.809c0.934,0.768,1.876,1.521,2.829,2.253    c0.475,0.366,0.954,0.724,1.435,1.081c0.634,0.471,1.273,0.933,1.915,1.388c0.876,0.623,1.759,1.23,2.65,1.825    c0.281,0.187,0.563,0.371,0.845,0.555c4.74,3.098,9.686,5.834,14.837,8.141L334.558,229.732z M354.4,169.384    c-0.219-0.177-0.437-0.356-0.654-0.536c-0.727-0.6-1.444-1.218-2.154-1.848c-0.248-0.22-0.497-0.436-0.742-0.659    c-0.887-0.807-1.761-1.633-2.618-2.489c-0.014-0.014-0.029-0.028-0.043-0.041c-0.015-0.015-0.029-0.031-0.044-0.045    c-0.854-0.856-1.679-1.731-2.485-2.615c-0.224-0.245-0.441-0.497-0.662-0.746c-0.63-0.709-1.248-1.426-1.847-2.152    c-0.179-0.217-0.358-0.433-0.534-0.652c-21.469-26.598-22.869-64.127-4.199-92.151L446.55,173.58    C418.526,192.251,380.999,190.851,354.4,169.384z M468.263,151.901L360.099,43.737c12.696-8.492,27.614-13.053,43.233-13.053    c20.83,0,40.413,8.112,55.143,22.841c14.728,14.729,22.841,34.312,22.841,55.143C481.316,124.287,476.754,139.205,468.263,151.901    z"/>
	</g>
</g>
<g>
</g>
<g>
</g>
<g>
</g>
<g>
</g>
<g>
</g>
<g>
</g>
<g>
</g>
<g>
</g>
<g>
</g>
<g>
</g>
<g>
</g>
<g>
</g>
<g>
</g>
<g>
</g>
<g>
</g>
</svg>
