<svg id="Capa_1" enable-background="new 0 0 510 510" height="512" viewBox="0 0 510 510" width="512" xmlns="http://www.w3.org/2000/svg"><g><path d="m408.287 204.37 11.713 14.642 11.713-14.642c.636-.795 15.754-19.758 31.062-44.634 21.383-34.747 32.225-63.257 32.225-84.736 0-41.355-33.645-75-75-75s-75 33.645-75 75c0 21.479 10.842 49.989 32.226 84.736 15.307 24.876 30.425 43.839 31.061 44.634zm11.713-174.37c24.814 0 45 20.187 45 45 0 26.139-26.431 68.951-45 95.007-18.57-26.058-45-68.868-45-95.007 0-24.813 20.186-45 45-45z"/><path d="m405 60h30v30h-30z"/><path d="m510 349.189-96.897-32.299-106.89-106.89h-66.213v-30h60v-60h-30v30h-165v-30h-30v60h75v30h-83.705l-66.295 116.017v138.983h61.898c6.678 25.85 30.195 45 58.102 45 27.906 0 51.424-19.15 58.102-45h153.797c6.678 25.85 30.195 45 58.102 45 27.906 0 51.424-19.15 58.102-45h61.897zm-141.213-34.189h-98.787v-75h23.787zm-218.787 0v-75h90v75zm30-135h30v30h-30zm-96.295 60h36.295v75h-79.152zm36.295 240c-16.542 0-30-13.458-30-30s13.458-30 30-30 30 13.458 30 30-13.458 30-30 30zm270 0c-16.542 0-30-13.458-30-30s13.458-30 30-30 30 13.458 30 30-13.458 30-30 30zm90-45h-31.898c-6.775-26.23-30.644-45-58.102-45-27.362 0-51.31 18.709-58.102 45h-153.796c-6.774-26.227-30.596-45-58.102-45-27.785 0-51.399 19.05-58.102 45h-31.898v-90h372.566l77.434 25.811z"/></g></svg>