<svg id="Capa_1" enable-background="new 0 0 512.74 512.74" height="512" viewBox="0 0 512.74 512.74" width="512" xmlns="http://www.w3.org/2000/svg"><g><path d="m469.852 226.758c-9.072-.252-17.757 2.211-25.177 7.028-7.873-9.878-19.769-16.37-33.059-16.734-9.225-.263-18.021 2.286-25.51 7.247-8.099-9.779-20.328-16.02-33.988-16.02-4.936 0-9.684.814-14.118 2.316v-105.501c0-22.664-17.156-41.8-38.979-44.411v-60.313h-299.021v451h239.8c27.651 37.002 71.791 61 121.432 61 83.542 0 151.509-67.967 151.509-151.509v-89.396c-.001-24.004-19.241-44.06-42.889-44.707zm-359.572-196.388h78.46v30h-78.46zm-80.28 391v-391h50.28v60h138.46v-60h50.28v37.673c-2.077 1.425-4.056 3.027-5.901 4.823-8.612 8.378-13.354 19.609-13.354 31.623v169.104c-9.595.28-18.374 3.857-25.254 9.627v-12.35h-30v30h17.646c-1.575 4.365-2.435 9.069-2.435 13.971v46.021c0 21.501 4.512 41.964 12.622 60.509h-192.344zm452.74-60.509c0 67-54.509 121.509-121.509 121.509-67.001 0-121.51-54.509-121.51-121.509v-46.021c0-6.212 5.054-11.266 11.266-11.266h28.777v-199.086c0-3.845 1.519-7.439 4.275-10.122 2.755-2.679 6.408-4.092 10.248-3.991 7.562.208 13.713 6.811 13.713 14.719v147.304h30c0-7.785 6.333-14.118 14.118-14.118 7.784 0 14.117 6.333 14.117 14.175l.033 8.755 30-.057c0-3.844 1.519-7.438 4.274-10.12 2.755-2.681 6.403-4.116 10.25-3.992 7.561.208 13.712 6.811 13.712 14.719v9.1h30c0-3.845 1.519-7.438 4.274-10.12 2.754-2.68 6.396-4.108 10.25-3.992 7.561.207 13.711 6.81 13.711 14.719v89.394z"/><path d="m134.51 361.37h30v30h-30z"/><path d="m74.51 150.87h30v30h-30z"/><path d="m134.51 150.87h30v30h-30z"/><path d="m194.51 150.87h30v30h-30z"/><path d="m74.51 210.87h30v30h-30z"/><path d="m134.51 210.87h30v30h-30z"/><path d="m194.51 210.87h30v30h-30z"/><path d="m74.51 270.87h30v30h-30z"/><path d="m134.51 270.87h30v30h-30z"/></g></svg>