<svg id="Capa_1" enable-background="new 0 0 512 512" height="512" viewBox="0 0 512 512" width="512" xmlns="http://www.w3.org/2000/svg"><path d="m457.51 63.978-2.372-7.115-7.115-2.372c-2.942-.98-72.317-23.359-120.714 24.156-13.889-49.969-62.388-74.335-64.782-75.492l-6.527-3.155-6.527 3.155c-2.394 1.157-50.893 25.523-64.781 75.492-48.398-47.516-117.772-25.138-120.714-24.157l-7.115 2.372-2.372 7.115c-.985 2.958-23.588 72.991 24.837 121.416 8.336 8.335 17.187 15.664 26.461 21.938-9.39 11.504-14.789 26.146-14.789 42.669v60c0 124.778 61.764 188.764 64.394 191.393l10.606 10.607 10.606-10.606c.931-.931 18.015-18.296 34.352-52.058 16.159 33.397 33.086 50.708 34.436 52.058l10.606 10.606 10.606-10.607c1.35-1.349 18.277-19.447 34.436-52.844 16.337 33.762 33.421 51.914 34.352 52.845l10.606 10.606 10.606-10.606c2.63-2.63 64.394-66.616 64.394-191.394v-60c0-16.523-5.399-31.165-14.788-42.668 9.274-6.274 18.125-13.603 26.461-21.938 48.425-48.426 25.822-118.459 24.837-121.416zm-201.47-30.038c13.888 8.749 44.96 33.028 44.96 72.06 0 .158.003.407.008.742.178 11.264-1.231 47.894-24.354 76.614-1.852-.437-3.735-.82-5.654-1.137v-91.219h-30v91.219c-1.935.32-3.833.707-5.699 1.148-19.888-24.514-24.301-55.088-24.301-77.367 0-38.77 31.19-63.253 45.04-72.06zm-174.977 47.068c16.337-3.479 55.545-8.04 83.118 19.533 6.563 6.563 12.41 13.534 17.421 20.762 1.268 15.987 4.778 34.01 12.546 51.633l-61.788-61.788-21.213 21.213 48.848 48.849c-10.383.656-19.99 3.005-28.536 6.789-10.925-6.212-21.296-14.194-30.92-23.817-27.39-27.393-22.889-66.823-19.476-83.174zm84.927 385.893c-16.912-23.832-28.843-53.092-36.033-81.901h21.043v-30h-26.878c-4.72-33.294-2.59-55.26-3.122-90h30v-30h-27.12c6.881-16.386 25.011-24 42.12-24 8.2 0 16.154 2.251 23.06 6.372-5.183 9.558-8.06 20.59-8.06 32.628v60c0 38.65 5.929 71.386 14.188 98.25-9.306 26.819-20.921 46.966-29.198 58.651zm89.991.041c-10.463-14.733-26.253-42.57-36.074-81.942h21.093v-30h-26.901c-4.684-33.281-2.573-55.195-3.099-90h30v-30h-27.12c6.88-16.386 25.01-24 42.12-24 21.674 0 45 12.205 45 39v45h-30v30h29.656c-2.235 49.409-16.331 102.018-44.675 141.942zm89.994.009c-8.242-11.603-19.795-31.666-29.163-58.7 8.259-26.864 14.188-59.6 14.188-98.251v-60c0-12.038-2.877-23.07-8.06-32.628 6.906-4.121 14.86-6.372 23.06-6.372 17.109 0 35.239 7.614 42.12 24h-27.12v30h30c-.532 34.719 1.598 56.703-3.122 90h-26.878v30h21.043c-7.147 28.638-19.047 57.983-36.068 81.951zm34.565-278.953c-8.546-3.784-18.153-6.132-28.536-6.789l48.848-48.849-21.213-21.213-62.15 62.15c8.622-19.457 11.843-38.552 12.969-52.08 4.998-7.198 10.824-14.14 17.361-20.677 27.393-27.39 66.821-22.89 83.173-19.478 3.479 16.338 8.039 55.546-19.532 83.117-9.624 9.625-19.995 17.606-30.92 23.819z"/></svg>