<?xml version="1.0" encoding="iso-8859-1"?>
<!-- Generator: Adobe Illustrator 19.0.0, SVG Export Plug-In . SVG Version: 6.00 Build 0)  -->
<svg version="1.1" id="Capa_1" xmlns="http://www.w3.org/2000/svg" xmlns:xlink="http://www.w3.org/1999/xlink" x="0px" y="0px"
	 viewBox="0 0 512 512" style="enable-background:new 0 0 512 512;" xml:space="preserve">
<g>
	<g>
		<circle cx="278.331" cy="233.67" r="15.001"/>
	</g>
</g>
<g>
	<g>
		<circle cx="235.91" cy="276.092" r="15.001"/>
	</g>
</g>
<g>
	<g>
		<circle cx="193.478" cy="318.524" r="15.001"/>
	</g>
</g>
<g>
	<g>
		<path d="M416.227,95.774c-17.587-17.587-46.053-17.59-63.642,0l-18.71,18.71l-60.283,20.094c-2.056,0.685-4.101,1.889-5.795,3.562
			c-0.022,0.022-0.047,0.04-0.068,0.062L55.593,350.338c-0.002,0.001-0.003,0.003-0.005,0.004l-21.214,21.214
			c-13.829,13.828-16.75,34.486-8.782,51.21l-12.433,12.432c-17.545,17.546-17.545,46.096,0,63.643
			C21.932,507.613,33.455,512,44.98,512c11.523,0,23.048-4.386,31.821-13.159l12.432-12.432c16.79,7.998,37.421,5.008,51.211-8.782
			l11.673-11.674c29.121,19.262,68.794,16.063,94.396-9.54c12.932-12.932,23.49-34.34,34.667-57.006
			c9.609-19.485,19.545-39.634,28.975-49.064l21.214-21.214c5.858-5.858,5.858-15.356,0-21.214c-5.857-5.858-15.356-5.858-21.214,0
			l-21.214,21.214c-12.933,12.932-23.49,34.341-34.668,57.007c-9.608,19.485-19.545,39.633-28.974,49.063
			c-13.828,13.828-34.486,16.75-51.211,8.782l199.709-199.709c0.022-0.022,0.04-0.046,0.062-0.068
			c1.666-1.687,2.873-3.729,3.562-5.795l20.094-60.283l18.71-18.709C433.814,141.828,433.816,113.363,416.227,95.774z
			 M55.588,477.627c-5.848,5.849-15.365,5.849-21.214,0s-5.849-15.366,0-21.214l10.607-10.607l21.213,21.214L55.588,477.627z
			 M119.23,456.413c-5.849,5.849-15.366,5.849-21.215,0l-42.428-42.428c-5.849-5.849-5.849-15.366,0-21.214l10.607-10.607
			l63.643,63.643L119.23,456.413z M151.05,424.592l-63.643-63.643l190.927-190.927l63.643,63.643L151.05,424.592z M356.637,205.895
			l-50.531-50.531l31.821-10.606l29.317,29.317L356.637,205.895z M395.013,138.201l-10.607,10.606l-21.214-21.214l10.607-10.607
			c5.862-5.862,15.35-5.862,21.214,0C400.874,122.851,400.875,132.338,395.013,138.201z"/>
	</g>
</g>
<g>
	<g>
		<path d="M507.606,4.395c-5.857-5.858-15.356-5.858-21.214,0l-30.001,30.001c-5.858,5.858-5.858,15.356,0,21.214
			c5.857,5.858,15.357,5.858,21.214,0l30.001-30.001C513.464,19.75,513.464,10.253,507.606,4.395z"/>
	</g>
</g>
<g>
	<g>
		<path d="M406.996,0.001c-8.284,0-15.001,6.716-15.001,15.001v30.001c0,8.284,6.715,15.001,15.001,15.001
			c8.284,0,15.001-6.716,15.001-15.001V15.001C421.996,6.717,415.28,0.001,406.996,0.001z"/>
	</g>
</g>
<g>
	<g>
		<path d="M497,90.092c-0.02,0-0.041,0-0.06,0l-28.74,0.112c-8.284,0.033-14.975,6.574-14.942,14.86
			c0.032,8.265,6.742,14.942,15,14.942c0.02,0,0.041,0,0.06,0l28.74-0.112c8.284-0.033,14.975-6.774,14.942-15.06
			C511.967,96.57,505.258,90.092,497,90.092z"/>
	</g>
</g>
<g>
</g>
<g>
</g>
<g>
</g>
<g>
</g>
<g>
</g>
<g>
</g>
<g>
</g>
<g>
</g>
<g>
</g>
<g>
</g>
<g>
</g>
<g>
</g>
<g>
</g>
<g>
</g>
<g>
</g>
</svg>
