<svg id="Capa_1" enable-background="new 0 0 512 512" height="512" viewBox="0 0 512 512" width="512" xmlns="http://www.w3.org/2000/svg"><g><path d="m447 59.667h-300.677c-35.841 0-65 29.159-65 65v9.667h-81.323v94h81.323v55.333h-81.323v94h81.323v9.667c0 35.841 29.159 65 65 65h300.677c35.841 0 65-29.159 65-65v-262.667c0-35.841-29.159-65-65-65zm35 327.666c0 19.299-15.701 35-35 35h-300.677c-19.299 0-35-15.701-35-35v-262.666c0-19.299 15.701-35 35-35h300.677c19.299 0 35 15.701 35 35zm-452-73.666h51.323v34h-51.323zm0-149.334h51.323v34h-51.323z"/><path d="m425.844 287.264c-5.844 7.736-15.882 10.733-24.417 10.733-23.157 0-41.997-18.84-41.997-41.997s18.84-41.997 41.997-41.997c8.417 0 16.533 2.477 23.47 7.164l16.795-24.859c-11.916-8.05-25.839-12.305-40.265-12.305-39.699 0-71.997 32.298-71.997 71.997s32.298 71.997 71.997 71.997c15.887 0 30.153-5.227 41.258-15.116 2.171-1.934 4.236-4.064 6.14-6.332z"/><path d="m280.696 183.663-15.101 75.879-20.998-72.823-27.563-.036-21.058 72.814-15.001-75.834h-30.581l28.567 144.418 28.465-.194 23.362-80.778 23.345 80.965 28.449-.194 28.702-144.217z"/></g></svg>