<svg id="Capa_1" enable-background="new 0 0 512 512" height="512" viewBox="0 0 512 512" width="512" xmlns="http://www.w3.org/2000/svg"><g><path d="m512 94.399c0-28.873-4.791-57.249-14.24-84.339l-3.509-10.06h-476.502l-3.509 10.06c-9.449 27.087-14.24 55.463-14.24 84.339 0 43.728 10.907 85.773 31.403 123.057-20.841 40.677-31.403 83.543-31.403 127.543 0 43.398 12.642 122.512 18.077 154.512l2.121 12.488h220.802v-44.998h30v44.998h220.802l2.121-12.488c5.436-32 18.077-111.113 18.077-154.512 0-44-10.562-86.866-31.403-127.542 20.496-37.284 31.403-79.33 31.403-123.058zm-472.681-64.398h433.36c6.189 20.838 9.32 42.45 9.32 64.398 0 119.576-93.351 217.742-211 225.49v-199.888h-30v199.888c-117.648-7.748-210.999-105.914-210.999-225.49 0-21.948 3.132-43.564 9.319-64.398zm35.661 245.418c2.878 2.878 5.816 5.673 8.805 8.396-14.515-2.749-28.964-5.836-43.294-9.264 2.794-9.218 6.142-18.346 10.042-27.372 7.396 9.903 15.551 19.343 24.447 28.24zm-29.41 206.58c-4.988-30.449-12.662-81.271-14.922-118.248l69.781 15.168c24.889 5.409 47.656 17.693 65.841 35.524l44.73 43.859v23.698h-165.43zm186.558-44.998-44.854-43.979c-22.227-21.793-50.054-36.807-80.472-43.419l-76.502-16.628c.487-9.815 1.576-19.565 3.254-29.236 35.18 8.414 71.055 14.866 106.901 19.239 35.38 17.93 74.732 27.422 115.545 27.422s80.166-9.493 115.545-27.422c35.846-4.372 71.721-10.825 106.901-19.239 1.678 9.671 2.766 19.422 3.254 29.237l-76.5 16.628c-30.419 6.612-58.246 21.626-80.473 43.419l-44.854 43.979h-47.745zm68.872 44.998v-23.698l44.73-43.858c18.185-17.831 40.952-30.115 65.841-35.524l69.781-15.168c-2.26 36.977-9.934 87.799-14.922 118.248zm170.508-207.447c-14.329 3.427-28.778 6.515-43.294 9.264 2.988-2.723 5.927-5.519 8.805-8.396 8.897-8.897 17.051-18.337 24.447-28.239 3.901 9.025 7.249 18.153 10.042 27.371z"/><path d="m241 60h30v30h-30z"/></g></svg>