<svg id="Capa_1" enable-background="new 0 0 512 512" height="512" viewBox="0 0 512 512" width="512" xmlns="http://www.w3.org/2000/svg"><g><path d="m30 341.785c0-39.149 31.851-71 71-71h310c55.691 0 101-45.309 101-101s-45.309-101-101-101h-184v30h184c39.149 0 71 31.851 71 71s-31.851 71-71 71h-310c-55.691 0-101 45.309-101 101s45.309 101 101 101h199v-30h-199c-39.149 0-71-31.851-71-71z"/><path d="m484.39 321.575c-15.77-13.85-36.91-21.79-57.99-21.79s-42.22 7.94-57.99 21.79c-17.81 15.63-27.61 37.64-27.61 61.97 0 21.15 13.01 47.82 38.68 79.27 18.1 22.19 35.98 38.79 36.73 39.48l10.19 9.42 10.19-9.42c.75-.69 18.63-17.29 36.73-39.48 25.67-31.45 38.68-58.12 38.68-79.27 0-24.33-9.8-46.34-27.61-61.97zm-57.99 8.21c27.33 0 55.6 20.11 55.6 53.76 0 22.8-30.85 61.66-55.6 86.82-24.75-25.16-55.6-64.02-55.6-86.82 0-33.65 28.27-53.76 55.6-53.76z"/><path d="m411.4 366.785h30v30h-30z"/><path d="m75.41 202.795 10.19 9.42 10.19-9.42c.75-.69 18.63-17.29 36.73-39.48 25.67-31.45 38.68-58.12 38.68-79.27 0-24.33-9.8-46.34-27.61-61.97-15.77-13.85-36.91-21.79-57.99-21.79s-42.22 7.94-57.99 21.79c-17.81 15.63-27.61 37.64-27.61 61.97 0 21.15 13.01 47.82 38.68 79.27 18.1 22.19 35.98 38.79 36.73 39.48zm10.19-172.51c27.33 0 55.6 20.11 55.6 53.76 0 22.8-30.85 61.66-55.6 86.82-24.75-25.16-55.6-64.02-55.6-86.82 0-33.65 28.27-53.76 55.6-53.76z"/><path d="m70.6 67.285h30v30h-30z"/></g></svg>