<svg id="Layer_1" enable-background="new 0 0 511.986 511.986" height="512" viewBox="0 0 511.986 511.986" width="512" xmlns="http://www.w3.org/2000/svg"><g><path d="m34.623 0v511.986h442.74v-511.986zm412.74 481.986h-382.74v-451.986h382.74z"/><path d="m421.282 56.078h-330.578v399.83h330.578zm-30 30v140.268h-29.285v-19.76c0-50.058-40.725-90.782-90.782-90.782-50.055 0-90.777 40.723-90.777 90.778v19.764h-59.733v-140.268zm-59.285 339.83h-28.948v-97.525c16.759 5.268 28.948 20.95 28.948 39.425zm-105.801-168.804c-8.689 0-15.759-7.069-15.759-15.759v-33.384c0-15.458 12.575-28.034 28.033-28.034h6.545c15.458 0 28.033 12.576 28.033 28.034v141.747c-10.601 1.547-21.252 1.547-31.853 0v-92.605h-14.999zm105.801 52.606c-8.468-6.039-18.306-10.276-28.948-12.145v-89.604c0-30.702-23.964-55.912-54.17-57.907 6.918-2.743 14.454-4.251 22.337-4.251 33.515 0 60.781 27.267 60.781 60.782zm-120.801 116.198h-32.53v-52.36c0-20.88 13.67-38.627 32.53-44.762zm30-45.943c10.607 1.219 21.245 1.219 31.853 0v45.943h-31.853zm-120.492-123.619h62.259c4.588 13.186 15.048 23.646 28.233 28.234v13.285c-35.569 6.812-62.53 38.157-62.53 75.683v52.36h-27.962zm241.293 169.562v-169.562h29.285v169.562z"/></g></svg>