<svg id="Capa_1" enable-background="new 0 0 512 512" height="512" viewBox="0 0 512 512" width="512" xmlns="http://www.w3.org/2000/svg"><g><path d="m467 302h-92c-8.271 0-15-6.729-15-15s6.729-15 15-15h15v-30h-15c-24.813 0-45 20.187-45 45s20.187 45 45 45h92c8.271 0 15 6.729 15 15v45h30v-45c0-24.813-20.187-45-45-45z"/><path d="m270 30h-90v60h-30v-90h-90v60h-60v452h512v-90h-242c0-41.357 0-331.219 0-392zm-60 182v-30h30v60h-210v-60h30v30zm0-152h30v92h-30c0-10.5 0-80.908 0-92zm-30 60v62h-30v-62zm-90-90h30v152h-30c0-15.014 0-134.464 0-152zm-60 60h30v62h-30zm0 392v-210h210v150h-120v60zm120-30h120v30h-120zm332 30h-182v-30h182z"/></g></svg>