<svg id="Capa_1" enable-background="new 0 0 510.531 510.531" height="512" viewBox="0 0 510.531 510.531" width="512" xmlns="http://www.w3.org/2000/svg"><g><path d="m510.531 111.723-111.722-111.723-42.427 42.427-20.506-20.506-313.955 313.955 20.506 20.506-42.427 42.427 111.723 111.723 42.427-42.427 21.213 21.213 313.955-313.955-21.213-21.213zm-111.722-69.297 69.297 69.297-21.214 21.214-69.297-69.297zm-62.933 21.921 21.213 21.213-271.529 271.529-21.213-21.213zm-224.153 403.758-69.297-69.297 21.214-21.214 69.297 69.297zm210.718-219.203 25.456 25.455-26.163 26.164-25.456-25.456zm21.213-21.213 26.163-26.164 25.456 25.456-26.163 26.163zm-68.589 68.589 25.456 25.456-26.163 26.164-25.455-25.456zm-47.376 47.376 25.455 25.456-26.163 26.163-25.456-25.455zm188.797-137.886-46.669-46.668-210.717 210.717 46.669 46.668-30.406 30.406-68.59-68.59 271.529-271.529 68.59 68.59z"/></g></svg>