<svg id="Capa_1" enable-background="new 0 0 510 510" height="512" viewBox="0 0 510 510" width="512" xmlns="http://www.w3.org/2000/svg"><g><path d="m510 157.5c0-49.626-40.374-90-90-90s-90 40.374-90 90c0 23.031 8.699 44.065 22.98 60h-22.98v30h75v75h-90v-30h-120v30h-90v-75h75v-30h-18.732c30.556-54.105-4.324-131.291-56.268-118.735v-8.765c0-12.406 10.094-22.5 22.5-22.5v-30c-28.948 0-52.5 23.552-52.5 52.5v8.765c-20.739-5.013-40.271 5.255-52.487 22.707-18.682 26.69-19.922 67.446-3.78 96.028h-18.733v30h75v105h120v90h-30v30h180v-30h-30v-90h120v-105h75v-30h-22.98c14.281-15.935 22.98-36.969 22.98-60zm-472.5 15c0-26.52 14.229-45 27-45 10.443 0 15.96 9.848 25.5 19.562 9.141-9.308 15.018-19.562 25.5-19.562 12.77 0 27 18.48 27 45s-14.23 45-27 45h-51c-12.771 0-27-18.48-27-45zm247.5 150v60h-60v-60zm-60 120v-30h60v30zm195-345c27.906 0 51.424 19.15 58.102 45h-116.204c6.678-25.85 30.196-45 58.102-45zm-58.102 75h116.203c-6.678 25.85-30.195 45-58.102 45-27.905 0-51.423-19.15-58.101-45z"/></g></svg>