<svg id="Capa_1" enable-background="new 0 0 512 512" height="512" viewBox="0 0 512 512" width="512" xmlns="http://www.w3.org/2000/svg"><g><path d="m461.544 107.649c11.318-11.427 18.322-27.134 18.322-44.449 0-34.849-28.351-63.2-63.199-63.2s-63.2 28.352-63.2 63.2c0 17.315 7.004 33.022 18.323 44.449-14.433 7.734-26.657 19.071-35.456 32.806-8.799-13.735-21.023-25.072-35.456-32.806 11.318-11.426 18.322-27.133 18.322-44.449 0-34.848-28.351-63.2-63.2-63.2s-63.2 28.352-63.2 63.2c0 17.316 7.004 33.023 18.323 44.449-14.432 7.734-26.657 19.071-35.456 32.806-8.799-13.735-21.024-25.072-35.456-32.806 11.318-11.427 18.323-27.134 18.323-44.449 0-34.849-28.352-63.2-63.2-63.2s-63.2 28.352-63.2 63.2c0 17.315 7.004 33.022 18.322 44.449-30.001 16.076-50.456 47.737-50.456 84.088v320.263h512v-259.618-60.645c0-36.351-20.455-68.012-50.456-84.088zm-44.877-77.649c18.306 0 33.199 14.894 33.199 33.2s-14.894 33.2-33.199 33.2c-18.307 0-33.2-14.894-33.2-33.2s14.893-33.2 33.2-33.2zm-160.667 0c18.307 0 33.2 14.894 33.2 33.2s-14.893 33.2-33.2 33.2-33.2-14.894-33.2-33.2 14.893-33.2 33.2-33.2zm0 96.404c36.024 0 65.333 29.309 65.333 65.333v30.643h-130.666v-30.643c0-36.024 29.309-65.333 65.333-65.333zm-160.667-96.404c18.307 0 33.2 14.894 33.2 33.2s-14.894 33.2-33.2 33.2-33.199-14.894-33.199-33.2 14.893-33.2 33.199-33.2zm-65.333 161.737c0-36.024 29.309-65.333 65.333-65.333 36.025 0 65.334 29.309 65.334 65.333v30.643h-130.667zm0 290.263v-229.618h211v229.618zm452 0h-211v-229.618h211zm-130.667-259.62v-30.643c0-36.024 29.309-65.333 65.334-65.333 36.024 0 65.333 29.309 65.333 65.333v30.643z"/><path d="m301.5 367.189c0 41.355 33.645 75 75 75s75-33.645 75-75-33.645-75-75-75-75 33.645-75 75zm75 45c-6.939 0-13.514-1.581-19.389-4.397l59.991-59.992c2.817 5.875 4.398 12.451 4.398 19.389 0 24.814-20.187 45-45 45zm0-90c6.939 0 13.515 1.581 19.39 4.398l-59.992 59.992c-2.817-5.875-4.398-12.451-4.398-19.39 0-24.813 20.187-45 45-45z"/><path d="m135.5 292.189c-41.355 0-75 33.645-75 75s33.645 75 75 75 75-33.645 75-75-33.645-75-75-75zm0 30c6.939 0 13.515 1.581 19.39 4.398l-59.992 59.993c-2.817-5.875-4.398-12.451-4.398-19.39 0-24.814 20.187-45.001 45-45.001zm0 90c-6.939 0-13.514-1.581-19.389-4.397l59.991-59.992c2.817 5.875 4.398 12.451 4.398 19.389 0 24.814-20.187 45-45 45z"/></g></svg>