<svg id="Capa_1" enable-background="new 0 0 512 512" height="512" viewBox="0 0 512 512" width="512" xmlns="http://www.w3.org/2000/svg"><g><path d="m420.658 247.55-24.895-199.343c-3.439-27.539-26.848-48.207-54.601-48.207h-170.324c-27.753 0-51.162 20.668-54.602 48.207l-24.894 199.343-91.342 60.894v203.556h512v-203.556zm61.342 234.45h-76.5v-122.593h-30v122.593h-239v-122.593h-30v122.593h-76.5v-157.501l89.408-59.605 25.077-200.803c2.433-19.475 18.987-34.091 38.614-34.091h145.803c19.626 0 36.181 14.616 38.613 34.091l25.078 200.803 89.407 59.605z"/><path d="m182.567 60.472-27.297 210.75h201.459l-27.297-210.75zm6.84 180.75 19.525-150.75h94.135l19.525 150.75z"/></g></svg>