<svg id="Capa_1" enable-background="new 0 0 511.878 511.878" height="512" viewBox="0 0 511.878 511.878" width="512" xmlns="http://www.w3.org/2000/svg"><g><path d="m240.912 300.939h30v-30h30v-30h-30v-30h-30v30h-30v30h30z"/><path d="m434.322 169.652c-50-43.763-111.732-78.713-178.41-78.713-66.819 0-128.562 35.092-178.387 78.714-28.858 25.267-54.199 53.171-77.525 86.286 23.265 33.029 48.589 60.95 77.525 86.286 49.843 43.639 111.584 78.714 178.387 78.714 66.667 0 128.396-34.937 178.41-78.713 28.867-25.266 54.219-53.172 77.556-86.287-23.276-33.029-48.611-60.952-77.556-86.287zm-178.41-48.713c59.684 0 113.999 33.928 151.073 64.815-39.582-17.839-92.606-34.815-151.073-34.815-58.384 0-111.333 16.928-150.889 34.74 40.019-33.4 92.992-64.74 150.889-64.74zm75 135c0 41.355-33.645 75-75 75s-75-33.645-75-75 33.645-75 75-75 75 33.645 75 75zm-75 135c-83.38 0-164.745-66.882-216.693-132.274 20.978-15.485 69.917-47.93 132.659-65.611-13.16 17.541-20.965 39.318-20.965 62.885 0 57.897 47.103 105 105 105s105-47.103 105-105c0-23.547-7.792-45.309-20.932-62.842 47.802 13.449 94.73 37.515 132.669 65.557-26.99 33.907-114.152 132.285-216.738 132.285z"/></g></svg>