<svg id="Layer_1" enable-background="new 0 0 510 510" height="512" viewBox="0 0 510 510" width="512" xmlns="http://www.w3.org/2000/svg"><g><path d="m405 30v-30h-30v30h-60v-30h-30v30h-60v-30h-30v30h-60v-30h-30v30h-105v480h510v-480zm-300 30v30h30v-30h60v30h30v-30h60v30h30v-30h60v30h30v-30h75v60h-450v-60zm-75 420v-330h450v330z"/><path d="m255 180c-74.439 0-135 60.561-135 135s60.561 135 135 135 135-60.561 135-135-60.56-135-135-135zm103.924 120h-44.271c-1.184-26.543-5.754-56.24-15.912-80.443 31.771 14.617 55.039 44.64 60.183 80.443zm-103.924 120c-2.139 0-9.995-4.668-17.774-25.414-6.565-17.506-10.663-40.043-11.855-64.586h59.258c-1.191 24.543-5.289 47.08-11.854 64.586-7.78 20.746-15.636 25.414-17.775 25.414zm-29.629-120c1.191-24.543 5.289-47.08 11.855-64.586 7.779-20.745 15.635-25.414 17.774-25.414s9.995 4.669 17.774 25.414c6.565 17.506 10.663 40.043 11.854 64.586zm-14.112-80.443c-10.153 24.193-14.728 53.883-15.912 80.443h-44.27c5.143-35.803 28.411-65.826 60.182-80.443zm-60.183 110.443h44.27c1.185 26.543 5.754 56.24 15.912 80.443-31.77-14.617-55.038-44.64-60.182-80.443zm147.665 80.443c10.153-24.193 14.727-53.883 15.912-80.443h44.271c-5.144 35.803-28.412 65.826-60.183 80.443z"/></g></svg>