<svg id="Capa_1" enable-background="new 0 0 512 512" height="512" viewBox="0 0 512 512" width="512" xmlns="http://www.w3.org/2000/svg"><g><path d="m256.138 151.807v-76.807c0-41.355-33.645-75-75-75l-.005.003-.005-.003c-41.355 0-75 33.645-75 75v76.807l8.792 8.792-38.782 38.782v267.619c0 24.813 20.187 45 45 45s45-20.187 45-45l.001-225.194 14.994-14.994 14.994 14.994.001 225.194c0 24.813 20.187 45 45 45s45-20.187 45-45v-267.619l-38.782-38.782zm-30-76.807v64.381l-.005.005-29.996-29.997-.001-76.819c17.461 6.191 30.002 22.873 30.002 42.43zm-105 407c-8.271 0-15-6.729-15-15v-125.5h30v125.5c0 8.271-6.729 15-15 15zm15.001-252.62v82.12h-30.001v-99.693l29.995-29.995 23.787 23.787zm104.989 252.62c-8.271 0-15-6.729-15-15v-125.5h30v125.5c0 8.271-6.729 15-15 15zm15-170.5h-30.001v-82.12l-89.999-89.999v-64.381c0-19.557 12.541-36.239 30.002-42.431l.009 89.247 89.989 89.99z"/><path d="m435.862 298.993h-44.865v-191.993h25.06l14.87-107h-109.86l14.87 107h25.061v191.993h-44.869v30h10.38v133.52c0 27.287 22.2 49.487 49.487 49.487s49.487-22.2 49.487-49.487v-133.52h10.38v-30zm-39.392-268.993-6.532 47h-27.882l-6.532-47zm-.988 432.513c0 10.745-8.742 19.487-19.487 19.487s-19.487-8.742-19.487-19.487v-133.52h38.975v133.52z"/></g></svg>