<svg id="Capa_1" enable-background="new 0 0 512 512" height="512" viewBox="0 0 512 512" width="512" xmlns="http://www.w3.org/2000/svg"><g><path d="m150 300h30v60h-30z"/><path d="m512 180h-182v-135c0-24.813-20.187-45-45-45h-240c-24.813 0-45 20.187-45 45v422c0 24.813 20.187 45 45 45h240c24.813 0 45-20.187 45-45v-197h182zm-287 60c-19.557 0-36.239-12.539-42.43-30h108.16l-15 30zm-75 150v32h-60v-332h60v105c0 41.355 33.645 75 75 75h15v152h-60v-32zm90-210h-60v-90h60zm60 287c0 8.271-6.729 15-15 15h-240c-8.271 0-15-6.729-15-15v-422c0-8.271 6.729-15 15-15h240c8.271 0 15 6.729 15 15v135h-30v-120h-210v392h210v-182h30zm182-227h-172.73l15-30h157.73z"/></g></svg>