<svg id="Capa_1" enable-background="new 0 0 512 512" height="512" viewBox="0 0 512 512" width="512" xmlns="http://www.w3.org/2000/svg"><g><path d="m428.595 159.633h-36.688c-9.672-25.161-26.442-47.584-48.028-63.968-21.447-16.278-46.395-26.089-72.879-28.776v-21.889c0-24.813-20.187-45-45-45h-60v30h60c8.271 0 15 6.729 15 15v21.889c-26.484 2.687-51.432 12.499-72.879 28.776-21.586 16.384-38.356 38.807-48.028 63.968h-36.688v90h29.866l16.323 262.367h252.813l16.323-262.367h29.866v-90zm-102.854-40.071c19.559 14.845 34.134 35.91 41.042 59.317l3.174 10.754h28.638v30h-127.595v-122.532c19.869 2.555 38.565 10.182 54.741 22.461zm-212.336 70.071h28.638l3.174-10.754c6.908-23.407 21.483-44.473 41.042-59.317 16.176-12.278 34.872-19.906 54.741-22.46v122.532h-127.595zm35.968 157.151h52.998l4.264-7.818c9.867-18.094 28.783-29.333 49.366-29.333s39.499 11.239 49.366 29.333l4.264 7.818h52.998l-2.368 38.063h-50.631l-4.264 7.818c-9.867 18.095-28.783 29.335-49.366 29.335s-39.499-11.24-49.366-29.334l-4.264-7.818h-50.629zm8.412 135.216-4.178-67.152h31.506c15.999 23.12 42.401 37.152 70.887 37.152s54.888-14.032 70.887-37.152h31.506l-4.178 67.152zm206.709-165.216h-37.607c-15.998-23.12-42.4-37.151-70.887-37.151s-54.889 14.031-70.887 37.151h-37.607l-4.178-67.151h225.344z"/></g></svg>