<svg id="Capa_1" enable-background="new 0 0 510 510" height="512" viewBox="0 0 510 510" width="512" xmlns="http://www.w3.org/2000/svg"><g><path d="m450 165v-90h-34.845l-30-75h-260.31l-30 75h-34.845v90h31.248l5.217 60h-22.767l17.5 210h23.527l6.522 75h267.504l6.521-75h23.528l17.5-210h-22.767l5.217-60zm-360-60h330v30h-330zm55.155-75h219.689l18 45h-255.689zm216.093 450h-212.496l-3.912-45h220.32zm29.95-75h-272.396l-12.5-150h297.396zm-7.776-180h-256.844l-5.217-60h267.277z"/><path d="m237.167 375h35.666c31.522 0 57.167-25.645 57.167-57.167v-32.833h-32.833c-16.678 0-31.707 7.182-42.167 18.611-10.46-11.429-25.489-18.611-42.167-18.611h-32.833v32.833c0 31.522 25.645 57.167 57.167 57.167zm60-60h2.833v2.833c0 14.979-12.188 27.167-27.167 27.167h-2.833v-2.833c0-14.979 12.188-27.167 27.167-27.167zm-87.167 0h2.833c14.98 0 27.167 12.188 27.167 27.167v2.833h-2.833c-14.979 0-27.167-12.188-27.167-27.167z"/></g></svg>