<svg id="Capa_1" enable-background="new 0 0 512 512" height="512" viewBox="0 0 512 512" width="512" xmlns="http://www.w3.org/2000/svg"><g><path d="m512 206.695-21.216-21.212-55.458 55.459h-87.746c-2.363-14.421-8.059-27.734-16.273-39.119l61.98-61.981h78.595v-29.999h-69.725v-69.727h-30.001v78.432l-62.075 62.075c-11.363-8.175-24.641-13.845-39.021-16.202v-87.75l55.459-55.459-21.217-21.212-49.302 49.303-49.302-49.303-21.216 21.212 55.576 55.577v87.613c-14.425 2.345-27.744 8.023-39.138 16.221l-62.075-62.075v-78.432h-30.001v69.728h-69.726v29.999h78.595l61.98 61.981c-8.214 11.385-13.91 24.698-16.273 39.119h-87.746l-55.458-55.459-21.216 21.211 49.305 49.305-49.305 49.305 21.216 21.212 55.576-55.576h87.608c2.345 14.426 8.024 27.745 16.223 39.14l-62.076 62.077h-78.429v29.999h69.725v69.728h30.001v-78.598l61.979-61.979c11.415 8.235 24.768 13.94 39.234 16.291v87.613l-55.576 55.577 21.217 21.211 49.302-49.303 49.302 49.303 21.216-21.212-55.459-55.459v-87.75c14.42-2.363 27.732-8.059 39.116-16.272l61.979 61.979v78.598h30.001v-69.728h69.725v-29.999h-78.429l-62.076-62.077c8.199-11.395 13.878-24.715 16.223-39.14h87.609l55.576 55.576 21.217-21.211-49.305-49.305zm-256 112.113c-34.632 0-62.807-28.175-62.807-62.808s28.175-62.808 62.807-62.808 62.807 28.175 62.807 62.808-28.175 62.808-62.807 62.808z"/></g></svg>