<svg id="Capa_1" enable-background="new 0 0 512.084 512.084" height="512" viewBox="0 0 512.084 512.084" width="512" xmlns="http://www.w3.org/2000/svg"><g><path d="m316.042 105.027h-45v-45h-30v75h75z"/><path d="m512.084 305.872-76.237-94.727-73.162-36.138c8.531-16.481 13.357-35.177 13.357-54.98 0-66.168-53.832-120-120-120s-120 53.832-120 120c0 19.803 4.826 38.499 13.357 54.98l-73.162 36.138-76.237 94.727 70.848 34.995v79.716l185.194 91.475 185.194-91.475v-79.716zm-46.824-10.332-142.64 70.456-43.166-53.635 142.639-70.456zm-209.218-265.513c49.626 0 90 40.374 90 90s-40.374 90-90 90-90-40.374-90-90 40.374-90 90-90zm0 210c35.492 0 67.43-15.494 89.419-40.067l46.904 23.168-136.323 67.336-136.323-67.336 46.904-23.168c21.989 24.573 53.927 40.067 89.419 40.067zm-166.051 1.878 142.639 70.456-43.166 53.635-142.64-70.456zm10.857 113.78 96.901 47.864 43.293-53.792v121.431l-140.194-69.248zm310.388 46.255-140.194 69.247v-121.431l43.293 53.792 96.901-47.864z"/></g></svg>