<svg id="Capa_1" enable-background="new 0 0 509 509" height="512" viewBox="0 0 509 509" width="512" xmlns="http://www.w3.org/2000/svg"><g id="XMLID_526_"><path id="XMLID_567_" d="m479.66 354.096c-7.005-30.676-34.569-53.681-67.271-53.681-32.703 0-60.268 23.005-67.272 53.681h-32.117v-102.574h-14v-40.004h32v-20.501c0-42.182-34.317-76.5-76.5-76.5s-76.5 34.318-76.5 76.5v20.501h28v40.004h-14v102.574h-28.116c-7.005-30.676-34.569-53.681-67.271-53.681-32.703 0-60.268 23.005-67.272 53.681h-29.341v101.845h509v-101.845zm-225.16-209.579c22.387 0 41.129 15.899 45.524 37.001h-91.049c4.396-21.101 23.138-37.001 45.525-37.001zm-18.5 67.001h33v40.004h-33zm-14 70.004h61v72.574h-61zm257 144.419h-449v-41.845h27.533l.087-14.913c.124-21.377 17.615-38.768 38.992-38.768 21.376 0 38.868 17.391 38.991 38.768l.087 14.913h237.62l.087-14.913c.123-21.377 17.615-38.768 38.992-38.768 21.376 0 38.867 17.391 38.991 38.768l.087 14.913h27.533z"/><path id="XMLID_644_" d="m95.001 181.518h42v30h-42z"/><path id="XMLID_645_" d="m4 181.518h42v30h-42z"/><path id="XMLID_646_" d="m462 181.518h42v30h-42z"/><path id="XMLID_647_" d="m370.999 181.518h42v30h-42z"/><path id="XMLID_649_" d="m445.564 60.176h42.129v30.001h-42.129z" transform="matrix(.918 -.396 .396 .918 8.388 190.974)"/><path id="XMLID_651_" d="m361.046 93.906h42.129v30.001h-42.129z" transform="matrix(.918 -.396 .396 .918 -11.885 160.256)"/><path id="XMLID_652_" d="m21.868 54.112h30v42.128h-30z" transform="matrix(.396 -.918 .918 .396 -46.763 79.251)"/><path id="XMLID_653_" d="m106.386 87.842h30v42.128h-30z" transform="matrix(.396 -.918 .918 .396 -26.693 177.226)"/></g></svg>