<svg id="Capa_1" enable-background="new 0 0 512 512" height="512" viewBox="0 0 512 512" width="512" xmlns="http://www.w3.org/2000/svg"><g><path d="m482 226c0-124.378-101.632-226-226-226-124.378 0-226 101.632-226 226v75h-30v30h30v136c0 24.813 20.187 45 45 45h362c24.813 0 45-20.187 45-45v-136h30v-30h-30zm-30 241c0 8.271-6.729 15-15 15h-362c-8.271 0-15-6.729-15-15v-136h392zm-241-226h37.741c9.434 0 18.055-3.531 24.626-9.333-1.549 6.312-2.367 12.109-2.367 17.067 0 12.277 9.988 22.266 22.266 22.266h37.734v30h-120zm-67.741-30c-4.003 0-7.259-3.256-7.259-7.259 0-23.323 26.606-82.741 60-82.741 34.031 0 60 58.747 60 82.741 0 4.002-3.256 7.259-7.259 7.259zm158.755 30c5.279-24.708 26.34-60 43.986-60 18.533 0 39.183 35.292 44.069 60zm149.986 60h-91v-30h37.734c12.277 0 22.266-9.988 22.266-22.266 0-30.14-30.099-97.734-75-97.734-27.009 0-47.713 24.59-60.163 48.392-2.596-39.386-37.668-108.392-89.837-108.392-55.998 0-90 78.304-90 112.741 0 20.545 16.714 37.259 37.259 37.259h37.741v60h-121v-75c0-108.075 87.925-196 196-196s196 87.925 196 196z"/></g></svg>