<svg id="Capa_1" enable-background="new 0 0 512 512" height="512" viewBox="0 0 512 512" width="512" xmlns="http://www.w3.org/2000/svg"><g><path d="m302.68 224.383c-26.487-26.487-69.584-26.486-96.071.001s-26.487 69.583 0 96.07 69.583 26.487 96.07 0 26.488-69.584.001-96.071zm-74.858 74.857c-14.79-14.79-14.79-38.854 0-53.643s38.854-14.791 53.644-.001 14.789 38.854-.001 53.644-38.853 14.79-53.643 0z"/><path d="m196.815 330.247c-26.487-26.487-69.583-26.487-96.07 0s-26.488 69.584-.001 96.071 69.584 26.486 96.071-.001 26.487-69.583 0-96.07zm-74.857 74.858c-14.79-14.79-14.789-38.854.001-53.644s38.854-14.79 53.643 0 14.79 38.854 0 53.643-38.854 14.791-53.644.001z"/><path d="m408.543 118.519c-26.487-26.487-69.583-26.487-96.07 0s-26.488 69.584-.001 96.071 69.584 26.486 96.071-.001 26.487-69.583 0-96.07zm-74.857 74.858c-14.79-14.79-14.789-38.854.001-53.644s38.854-14.79 53.643 0 14.79 38.854 0 53.643-38.854 14.79-53.644.001z"/><path d="m438.416 270.879 23.506-23.506c54.948-54.948 25.227-145.983 13.539-175.333 13.912-17.19 21.476-38.448 21.476-60.871v-11.169h-30v11.169c0 14.581-4.63 28.448-13.191 39.929-30.627-12.003-119.88-40.134-174.056 14.043l-23.506 23.506c-11.8 10.705-19.95 30.337-26.175 44.578-14.9 6.601-32.736 13.658-44.578 26.175l-43.805 43.805c-11.8 10.705-19.95 30.337-26.175 44.578-14.899 6.601-32.736 13.658-44.577 26.175l-23.506 23.506c-54.601 54.601-25.596 144.843-13.759 174.778l-18.544 18.544 21.211 21.214 18.544-18.544c29.935 11.836 120.177 40.841 174.778-13.759l23.506-23.506c11.798-10.703 19.949-30.338 26.175-44.577 14.9-6.601 32.735-13.657 44.578-26.175l43.805-43.805c11.798-10.704 19.949-30.338 26.175-44.578 14.901-6.603 32.736-13.659 44.579-26.177zm-21.213-21.214c-8.384 9.797-34.727 19.135-46.054 24.699-6.148 12.406-14.045 36.185-24.699 46.054l-43.805 43.805c-8.384 9.797-34.727 19.135-46.054 24.699-6.148 12.405-14.046 36.185-24.698 46.054l-23.506 23.506c-43.403 43.403-124.601 14.371-145.603 5.798-8.574-21.002-37.605-102.2 5.798-145.603l23.506-23.506c8.384-9.796 34.726-19.135 46.054-24.698 6.149-12.406 14.045-36.185 24.699-46.054l43.805-43.805c8.384-9.797 34.726-19.135 46.054-24.699 6.149-12.406 14.045-36.185 24.699-46.054l23.506-23.506c43.409-43.409 124.624-14.364 145.603-5.799 8.574 21.003 37.606 102.201-5.798 145.605z"/></g></svg>