<svg id="Capa_1" enable-background="new 0 0 512 512" height="512" viewBox="0 0 512 512" width="512" xmlns="http://www.w3.org/2000/svg"><g><path d="m339.511 225.265c3.901-76.965 37.67-150.409 94.002-203.423l-20.562-21.842c-32.973 31.031-58.797 67.838-76.756 109.399-15.97 36.957-24.938 75.866-26.729 115.866h-105.716c3.901-76.964 37.67-150.409 94.003-203.423l-20.563-21.842c-32.973 31.031-58.797 67.838-76.756 109.399-15.97 36.957-24.939 75.866-26.73 115.866h-103.704v286.735h372v-286.735zm72.489 59.991h-72.869v-29.996h72.869zm-102.869 0h-105.762v-29.996h105.762zm-135.762-29.996v29.995h-73.369v-29.995zm-73.369 226.745v-166.754h73.369v33.297l-18.982 18.979c-18.738 18.734-18.738 49.219 0 67.953 9.369 9.368 21.676 14.051 33.982 14.051s24.613-4.684 33.983-14.051c18.735-18.735 18.735-49.218-.001-67.953l-18.982-18.979v-33.297h105.762v33.297l-18.982 18.98c-18.738 18.734-18.738 49.219 0 67.953 9.369 9.368 21.676 14.051 33.981 14.051 12.307 0 24.613-4.684 33.982-14.051 18.738-18.734 18.738-49.219 0-67.953l-18.981-18.979v-33.297h72.869v166.754h-312zm75.6-93.268 12.77-12.767 12.769 12.767c7.041 7.04 7.041 18.494-.001 25.534-3.41 3.411-7.944 5.288-12.768 5.288s-9.358-1.878-12.77-5.288-5.289-7.944-5.289-12.767 1.877-9.357 5.289-12.767zm135.761 0 12.77-12.766 12.769 12.766c3.411 3.411 5.289 7.944 5.289 12.766 0 4.823-1.878 9.357-5.289 12.767-7.04 7.039-18.496 7.041-25.538 0-3.411-3.411-5.289-7.944-5.289-12.767-.001-4.822 1.877-9.356 5.288-12.766z"/></g></svg>