<svg id="Capa_1" enable-background="new 0 0 512 512" height="512" viewBox="0 0 512 512" width="512" xmlns="http://www.w3.org/2000/svg"><g><path d="m257.161 345.023 66.909-.165c6.82-54.819-19.394-100.181-70.261-121.66l-33.534 57.796c-2.502-.225-5.102-.225-7.604 0l-33.534-57.796c-50.89 21.49-77.077 66.867-70.261 121.66l66.909.165c.871 1.837 1.866 3.603 2.968 5.294l-32.516 56.641c44.06 33.316 96.459 33.294 140.491-.017l-32.533-56.629c1.102-1.69 2.096-3.454 2.966-5.289zm-55.688-19.202c0-8.271 6.729-15 15-15 19.9.824 19.894 29.179 0 30-8.271 0-15-6.729-15-15zm63.389-61.894c15.983 12.125 26.941 31.1 29.454 51.004l-34.163.084c-2.062-8.333-6.452-15.752-12.438-21.536zm-116.574 22.584c5.09-8.816 11.814-16.463 19.797-22.584l17.146 29.552c-5.985 5.784-10.375 13.203-12.438 21.536l-34.163-.084c1.312-9.968 4.571-19.609 9.658-28.42zm68.185 115.489c-10.175 0-20.153-1.998-29.441-5.846l15.766-27.464c8.552 2.823 18.806 2.823 27.357-.002l15.776 27.459c-9.292 3.853-19.278 5.853-29.458 5.853z"/><path d="m459.501 339.738 19.386-79.967h-79.413v-89.771h29.5v-108h-129v-62h-167v62h-129v108h29.5v342h424.486c27.577 0 50.014-22.436 50.014-50.014 1.147-45.618-16.366-90.059-48.473-122.248zm-28.416-10.124h-34.723l-9.659-39.843h54.041zm-268.112-299.614h107v32h-107zm-129 62h365v48h-365zm29.5 78h306v89.771h-20.913l19.386 79.967c-32.107 32.189-49.621 76.63-48.473 122.248 0 7.114 1.503 13.881 4.192 20.014h-260.192zm414.5 291.986c0 11.036-8.979 20.014-20.014 20.014-10.573.014-79.784-.01-88.473 0-11.035 0-20.014-8.979-20.014-20.014-1.137-38.291 13.659-75.681 41.027-102.372h46.445c27.37 26.691 42.168 64.081 41.029 102.372z"/></g></svg>