<svg id="Capa_1" enable-background="new 0 0 512 512" height="512" viewBox="0 0 512 512" width="512" xmlns="http://www.w3.org/2000/svg"><g><path d="m0 0v512h512c0-34.217 0-501.443 0-512zm482 482h-452v-332h452zm-452-362v-90h452v90z"/><path d="m421 60h30v30h-30z"/><path d="m361 60h30v30h-30z"/><path d="m301 60h30v30h-30z"/><path d="m256 451c74.439 0 135-60.561 135-135s-60.561-135-135-135-135 60.561-135 135 60.561 135 135 135zm-45-40.145v-4.855c0-24.813 20.187-45 45-45s45 20.187 45 45v4.855c-13.646 6.5-28.905 10.145-45 10.145s-31.354-3.645-45-10.145zm45-199.855c57.897 0 105 47.103 105 105 0 29.316-12.082 55.86-31.522 74.928-6.996-34.157-37.284-59.928-73.478-59.928s-66.482 25.771-73.478 59.928c-19.44-19.068-31.522-45.612-31.522-74.928 0-57.897 47.103-105 105-105z"/><path d="m301 286c0-24.813-20.187-45-45-45s-45 20.187-45 45 20.187 45 45 45 45-20.187 45-45zm-45 15c-8.271 0-15-6.729-15-15s6.729-15 15-15 15 6.729 15 15-6.729 15-15 15z"/></g></svg>