<svg id="Capa_1" enable-background="new 0 0 511.941 511.941" height="512" viewBox="0 0 511.941 511.941" width="512" xmlns="http://www.w3.org/2000/svg"><g><path d="m486.653 401.103c-22.862-32.775-72.186-40.239-103.718-15.694 0-.001-47.376 35.302-47.376 35.302h-23.034c6.223-16.451 2.042-36.121-10.606-48.466 0 0-60.65-60.651-60.65-60.651-17.188-17.188-40.04-26.653-64.347-26.653h-160.389v143h47.96l122.46 84h175.546l132.91-98.831zm-134.086 80.838h-156.314l-122.46-84h-27.26v-83h130.39c16.293 0 31.612 6.345 43.134 17.866l60.65 60.65c6.176 5.926 6.181 16.598.004 22.522-6.211 6.208-16.314 6.211-22.521.004l-65.609-65.61-21.213 21.213 65.609 65.61c8.887 8.887 20.539 13.361 32.217 13.423v.09h76.313l55.354-41.247c14.479-11.135 35.815-11.504 50.739-1.163z"/><path d="m217.592 225.129c22.967 1.156 45.515-5.441 63.246-18.686 41.27 31.122 102.546 21.721 138.408-15.331 60.228-65.02 47.245-172.868 46.757-189.591-17.046-.524-118.413-12.845-185.165 42.585-66.597-55.379-168.181-43.131-185.164-42.586-5.399 43.882-5.815 215.007 121.918 223.609zm219.957-195.144c-.005 42.442-5.206 104.162-39.515 139.914-27.005 27.002-66.617 32.629-94.705 15.507l83.038-83.038-21.213-21.213-45.77 45.77c-.297-21.321-6.961-42.093-18.934-60.121 37.458-34.101 107.82-37.136 137.099-36.819zm-313.409-.011c42.445.01 104.159 5.203 139.913 39.515 25.223 24.588 33.883 64.972 15.52 94.718l-83.052-83.052-21.213 21.213 83.036 83.036c-10.688 6.516-23.036 9.753-35.736 9.752-87.043-1.545-99.776-112.157-98.468-165.182z"/></g></svg>