<svg id="Capa_1" enable-background="new 0 0 510.806 510.806" height="512" viewBox="0 0 510.806 510.806" width="512" xmlns="http://www.w3.org/2000/svg"><path id="XMLID_1247_" d="m467.557 179c-23.848 0-43.25 19.402-43.25 43.25v11.489c0 6.939.128 13.875.365 20.807-30.434 6.713-53.277 33.884-53.277 66.307v46.723c0 12.884-10.481 23.365-23.364 23.365-12.884 0-23.365-10.481-23.365-23.365v-80.801l57.504-62.736c26.431-28.836 36.192-68.616 26.112-106.411-9.48-35.549-34.588-63.576-68.885-76.895-34.294-13.318-71.738-9.583-102.727 10.252l-30.582 19.574-30.583-19.574c-30.988-19.834-68.431-23.571-102.727-10.252-34.296 13.318-59.403 41.346-68.884 76.895-10.08 37.795-.318 77.575 26.112 106.411l176.082 192.101 88.577-96.636v48.071c0 29.426 23.939 53.365 53.365 53.365 29.425 0 53.364-23.939 53.364-53.365v-46.723c0-16.412 10.483-30.416 25.104-35.68 2.92 34.472 8.753 68.681 17.478 102.192l23.58 90.568 23.58-90.568c13.051-50.134 19.669-101.82 19.669-153.625v-11.489c.001-23.848-19.4-43.25-43.248-43.25zm-377.008 66.69h41.541v16.5h30v-16.5h28.999v16.5h30v-16.5h27.999v-30h-27.999v-16.5h-30v16.5h-28.999v-16.5h-30v16.5h-69.039l-10.929-11.923c-19.476-21.248-26.669-50.56-19.241-78.409 6.986-26.194 25.487-46.846 50.758-56.659 9.979-3.875 20.317-5.791 30.583-5.791 15.733 0 31.294 4.501 45.112 13.345l46.755 29.926 46.754-29.926c22.834-14.613 50.424-17.369 75.695-7.554 24.785 9.625 43.05 29.679 50.334 55.158h-26.48v-16.5h-30v16.5h-24.304v30h24.304v16.5h30v-16.5h29.499c-1.474 18.324-8.974 35.876-21.837 49.91l-153.965 167.974zm390.257-11.951c0 41.428-4.451 82.776-13.249 123.233-8.799-40.456-13.25-81.805-13.25-123.233v-11.489c0-7.306 5.944-13.25 13.25-13.25s13.249 5.944 13.249 13.25z"/></svg>