<svg id="Capa_1" enable-background="new 0 0 512 512" height="512" viewBox="0 0 512 512" width="512" xmlns="http://www.w3.org/2000/svg"><g><path d="m254.925 338.854 61.609-62.859c8.327-8.492 12.848-19.718 12.73-31.609-.116-11.892-4.857-23.025-13.349-31.352-8.385-8.222-19.434-12.732-31.159-12.732-.149 0-.3.001-.449.002-11.554.113-22.394 4.592-30.646 12.645-17.576-16.465-45.273-15.953-62.219 1.33-8.327 8.492-12.848 19.718-12.73 31.609.116 11.892 4.857 23.025 13.349 31.352zm-42.063-103.573c5.605-5.719 14.819-5.807 20.549-.19l20.711 20.266 20.253-20.701c5.606-5.717 14.817-5.809 20.537-.202 2.77 2.716 4.316 6.348 4.354 10.227s-1.437 7.541-4.155 10.312l-40.612 41.438-41.435-40.611c-2.77-2.716-4.316-6.348-4.354-10.227s1.436-7.542 4.152-10.312z"/><path d="m190.167 374.735c-5.689-2.7-12.252-4.052-19.688-4.052h-32.894v66.74h32.894c7.437 0 13.999-1.35 19.688-4.052 5.688-2.701 10.106-6.562 13.252-11.585 3.146-5.02 4.72-10.932 4.72-17.733s-1.573-12.712-4.72-17.733c-3.146-5.02-7.565-8.882-13.252-11.585zm-9.058 40.998c-2.894 2.765-6.755 4.147-11.584 4.147h-9.439v-31.654h9.439c4.829 0 8.69 1.383 11.584 4.147 2.892 2.765 4.338 6.659 4.338 11.68 0 5.022-1.446 8.916-4.338 11.68z"/><path d="m242.08 370.684-29.175 66.74h22.883l4.48-11.632h25.361l4.481 11.632h23.264l-29.175-66.74zm4.386 38.9 6.483-16.781 6.483 16.781z"/><path d="m354.348 374.735c-5.689-2.7-12.252-4.052-19.688-4.052h-32.894v66.74h32.894c7.437 0 13.999-1.35 19.688-4.052 5.688-2.701 10.106-6.562 13.252-11.585 3.146-5.02 4.72-10.932 4.72-17.733s-1.573-12.712-4.72-17.733c-3.146-5.02-7.565-8.882-13.252-11.585zm-9.058 40.998c-2.894 2.765-6.755 4.147-11.584 4.147h-9.439v-31.654h9.439c4.829 0 8.69 1.383 11.584 4.147 2.892 2.765 4.338 6.659 4.338 11.68 0 5.022-1.446 8.916-4.338 11.68z"/><path d="m387.146 84.489-31.749-84.489h-198.883l-31.754 84.505-124.76 20.461v407.034h512v-407.034zm-30.143 5.073-46.812 34.967-31.734-36.097 60.048-48.097zm-101.568-21.127-47.309-38.435h95.294zm-82.061-28.016 58.718 47.702-32.937 36.313-44.336-34.637zm308.626 441.581h-452v-351.554l105.891-17.366 66.76 52.155 52.498-57.881 50.801 57.787 69.782-52.124 106.268 17.429z"/></g></svg>