<svg id="Capa_1" enable-background="new 0 0 512 512" height="512" viewBox="0 0 512 512" width="512" xmlns="http://www.w3.org/2000/svg"><g><g><path d="m183.514 422h144.973v30h-144.973z"/><path d="m183.514 362h144.973v30h-144.973z"/></g><path d="m358.22 76.734v-76.734h-204.44v76.734h-153.78v435.266h512v-435.266zm-174.44-46.734h144.44v46.623h-144.44zm-153.78 280.694h30v66.306c0 19.557-12.539 36.239-30 42.43zm452 108.736c-17.461-6.19-30-22.873-30-42.43v-66.306h30zm0-138.736h-60v96.306c0 36.22 25.808 66.522 60 73.491v31.509h-452v-31.509c34.192-6.969 60-37.271 60-73.491v-96.306h-60v-90.098l43.098 43.098h134.003v60h97.799v-60h134.003l43.097-43.097zm-244.899-47h37.799v30h-37.799zm244.899-85.523-55.523 55.523h-340.954l-55.523-55.523v-41.437h452z"/></g></svg>