<svg id="Capa_1" enable-background="new 0 0 512 512" height="512" viewBox="0 0 512 512" width="512" xmlns="http://www.w3.org/2000/svg"><g><path d="m482 0v130.667h-30v-100.668h-392v100.668h-30v-130.667h-30v512h30v-30h452v30h30v-512zm-60 130.667h-90.666v-70.668h30.333v30h30v-30h30.333zm-151-40.668v-30h30.334v70.668h-90.666v-70.668h30.332v30zm-181-30h30.333v30h30v-30h30.335v70.668h-90.668zm392 100.668v130.666h-30v-100.666h-392v100.666h-30v-130.666zm-331.667 90v-30h30.335v70.666h-90.668v-70.666h30.333v30zm60.335-30h30.332v30h30v-30h30.334v70.666h-90.666zm120.666 0h30.333v30h30v-30h30.333v70.666h-90.666zm-181.001 190.666v-30h30.335v70.667h-90.668v-70.667h30.333v30zm120.667 0v-30h30.334v70.667h-90.666v-70.667h30.332v30zm120.667 0v-30h30.333v70.667h-90.666v-70.667h30.333v30zm60.333 40.667v-100.667h-392v100.667h-30v-130.667h452v130.667z"/></g></svg>