<svg id="Capa_1" enable-background="new 0 0 510.057 510.057" height="512" viewBox="0 0 510.057 510.057" width="512" xmlns="http://www.w3.org/2000/svg"><g><path d="m435.341 74.744c-99.652-99.652-260.959-99.666-360.625 0-48.163 48.163-74.688 112.2-74.688 180.313 0 140.932 114.049 255 255 255 140.932 0 255-114.049 255-255 0-68.113-26.524-132.15-74.687-180.313zm-339.412 21.213c43.869-43.868 101.475-65.795 159.1-65.795 52.928 0 105.864 18.531 148.131 55.551l-30.688 30.688c-48.053-62.84-144.986-51.945-178.408 18.818-42.229 2.774-73.96 40.236-69.646 82.439-41.91 37.126-40.063 102.618 3.18 137.485.454 1.565.958 3.108 1.494 4.637l-43.407 43.407c-77.323-88.277-73.918-223.068 10.244-307.23zm250.49 134.131 10.216 8.233c39.849 32.118 23.55 95.581-25.621 105.538l-12.266 2.483c.016.761.28 14.584.28 13.714 0 33.084-26.916 60-60 60-35.826 0-51.096-29.008-52.38-30.185-2.338-.922-24.846-2.451-40.936-24.286l197.373-197.373c5.417 34.005-13.175 54.677-16.666 61.876zm-193.834 106.199c-.809-.9-28.557-16.045-28.557-51.23 0-37.538 30.991-52.094 33.539-54.783l-2.319-9.825c-7.021-29.751 16.991-57.766 47.576-55.217l11.569.97 3.84-10.956c10.52-30.02 38.97-50.188 70.795-50.188 25.724 0 48.457 13.021 61.973 32.815zm261.543 77.869c-84.162 84.161-218.952 87.566-307.23 10.244l37.453-37.453c11.392 13.932 26.87 24.399 44.591 29.541 17.028 21.118 42.82 33.568 70.087 33.568 46.225 0 84.422-35.027 89.44-79.935 35.707-12.366 60.56-46.435 60.56-85.065 0-23.143-8.758-44.993-24.377-61.586 11.104-24.455 12.695-53.234 2.901-79.726l36.819-36.819c77.322 88.278 73.918 223.069-10.244 307.231z"/><path d="m240.028 345.057h30v30h-30z"/></g></svg>