<svg id="Capa_1" enable-background="new 0 0 512 512" height="512" viewBox="0 0 512 512" width="512" xmlns="http://www.w3.org/2000/svg"><g><path d="m0 45v422h512v-422zm482 60h-30v-30h30zm-120 332h-212v-122h212zm-242-152v152h-30v-302h332v302h-30v-152zm-30-180v-30h332v30zm-30-30v30h-30v-30zm-30 60h30v302h-30zm422 302v-302h30v302z"/><path d="m302 165h-92c-24.813 0-45 20.187-45 45s20.187 45 45 45h92c24.813 0 45-20.187 45-45s-20.187-45-45-45zm0 60h-92c-8.271 0-15-6.729-15-15s6.729-15 15-15h92c8.271 0 15 6.729 15 15s-6.729 15-15 15z"/></g></svg>