<svg id="Capa_1" enable-background="new 0 0 512 512" height="512" viewBox="0 0 512 512" width="512" xmlns="http://www.w3.org/2000/svg"><path d="m331.251 328.635c4.731 1.688 9.82 2.615 15.124 2.615 23.398.531 45.637-20.445 45.123-45.128-.013-110.138-.022-110.528-.033-110.945-.567-22.881-10.049-44.273-26.695-60.236-15.473-14.836-35.5-23.429-56.793-24.459 5.21-8.905 8.212-19.253 8.212-30.294-.001-33.188-27.001-60.188-60.188-60.188s-60.187 27-60.187 60.188c0 11.041 3.002 21.389 8.212 30.294-21.294 1.03-41.32 9.623-56.793 24.459-16.646 15.963-26.128 37.355-26.695 60.239-.008.296-.022.912-.033 110.942-.534 23.397 20.44 45.639 45.123 45.128 5.304 0 10.393-.927 15.124-2.615v183.365h90.25v-92.991c4.731 1.688 9.821 2.616 15.125 2.616s10.394-.927 15.125-2.616v62.991h-15.125v30h60.25v-30h-15.125v-105.5-47.865zm-75.25-298.635c16.646 0 30.188 13.542 30.188 30.188s-13.542 30.188-30.188 30.188-30.187-13.542-30.187-30.188 13.541-30.188 30.187-30.188zm-90.374 271.25c-7.052.042-15.136-6.093-15.123-15.125.005-49.154.015-107.103.027-110.332.829-30.569 26.747-55.418 57.835-55.418h95.27c31.09 0 57.009 24.852 57.835 55.42.015 3.718.023 78.287.027 110.331.043 7.052-6.092 15.136-15.124 15.124-8.339 0-15.123-6.784-15.123-15.124v-120.501h-30v105.5h-90.5v-105.5h-30v120.501c0 8.34-6.785 15.124-15.124 15.124zm120.499 90.375c-8.34 0-15.125-6.785-15.125-15.125v-30.165h-30v30.165 105.5h-30.25v-180.875h90.5v15.125 60.25c0 8.34-6.786 15.125-15.125 15.125z"/></svg>