<svg id="Capa_1" enable-background="new 0 0 510.002 510.002" height="512" viewBox="0 0 510.002 510.002" width="512" xmlns="http://www.w3.org/2000/svg"><g><path d="m390.001 262.741v-187.741c0-41.355-33.645-75-75-75s-75 33.645-75 75v187.741c-37.162 24.895-59.944 67.07-60 112.088-.09 73.472 59.602 135.173 135.065 135.173 73.68-.003 134.935-59.553 134.935-135.002 0-45.091-22.78-87.329-60-112.259zm-75 82.259c16.542 0 30 13.458 30 30s-13.458 30-30 30-30-13.458-30-30 13.458-30 30-30zm-15-165h-30v-30h30zm10.894 299.922c-55.701-2.116-100.962-49.244-100.894-105.056.084-68.653 58.464-93.675 60-95.157v-69.709h30v106.898c-25.85 6.678-45 30.195-45 58.102 0 33.084 26.916 60 60 60s60-26.916 60-60c0-27.906-19.15-51.424-45-58.102v-226.898h-30v30h-30v-45c0-24.813 20.186-45 45-45s45 20.187 45 45v204.709c1.582 1.527 60 26.504 60 95.291 0 59.455-49.21 107.185-109.106 104.922z"/><path d="m420.001 30h45v30h-45z"/><path d="m420.001 90h60v30h-60z"/><path d="m420.001 150h45v30h-45z"/><path d="m420.001 210h60v30h-60z"/><path d="m30.001 30h30v30h-30z"/><path d="m180.001 135v-30h-60v-45h75v-30h-105v165h30v-60z"/></g></svg>