<svg id="Layer_1" enable-background="new 0 0 510 510" height="512" viewBox="0 0 510 510" width="512" xmlns="http://www.w3.org/2000/svg"><path id="XMLID_1045_" d="m495 102.488c-16.459 0-23.888-3.714-33.292-8.416-26.148-15.436-67.357-15.39-93.416.001-19.274 11.308-47.273 11.323-66.573.001-26.041-15.435-67.489-15.373-93.417-.001-19.234 11.309-47.343 11.312-66.584-.001-26.152-15.435-67.364-15.392-93.426.001-9.404 4.701-16.833 8.415-33.292 8.415h-15v325h71.712l30-120h39.501l30-30h167.574l30 30h39.501l30 120h71.712c0-21.153 0-312.912 0-325zm-15 295h-18.288l-30-120h-50.499l-30-30h-192.426l-30 30h-50.499l-30 120h-18.288v-180h450zm-450-210v-55.949c14.305-1.933 23.428-6.494 31.708-10.635 19.291-11.326 47.336-11.306 66.595.002 26.191 15.443 67.342 15.384 93.415-.003 19.234-11.309 47.344-11.312 66.584.002 26.043 15.433 67.481 15.368 93.406-.002 19.233-11.309 47.345-11.312 66.584.001 8.28 4.141 17.403 8.702 31.708 10.635v55.949z"/></svg>