<svg id="Capa_1" enable-background="new 0 0 512 512" height="512" viewBox="0 0 512 512" width="512" xmlns="http://www.w3.org/2000/svg"><g><path d="m195.75 138.76-45.188-40.125v-98.635h-30v98.634l-45.188 40.122v222.744h-15.124v30h30.188v90.5h-30.188v30h150.625v-30h-30.188v-90.5h30.188v-30h-15.125zm-90.375 192.49h60.375v30.25h-60.375zm30.187-205.815 30.188 26.806v28.51h-30.188v30h30.188v30.249h-30.188v30h30.188v30.25h-60.375v-149.012zm15.126 356.565h-30.25v-90.5h30.25z"/><path d="m435.104 279.417-13.479-26.958v-11.584h15.062v-90.25h-180.625v90.25h15.062v11.584l-13.479 26.958c-10.889 21.781-16.645 46.164-16.645 70.514v162.069h210.75v-162.069c0-24.35-5.756-48.733-16.646-70.514zm-13.354 85.514v56.822h-150.75v-56.822zm-15.062-184.306v30.25l-120.625-.002v-30.247h120.625zm-15.063 60.25v18.666l16.646 33.292c6.578 13.155 10.839 27.483 12.582 42.098h-148.955c1.743-14.614 6.004-28.942 12.581-42.098l16.646-33.292v-18.666zm-120.625 241.125v-30.247h150.75v30.247z"/></g></svg>