<svg id="Capa_1" enable-background="new 0 0 512 512" height="512" viewBox="0 0 512 512" width="512" xmlns="http://www.w3.org/2000/svg"><g><path d="m376.377 285.191v-65.829h22.078v-30h-71.714c17.219-17.757 27.836-41.949 27.836-68.577 0-20.269-6.107-39.744-17.663-56.319-9.801-14.059-22.903-25.192-38.189-32.537-5.46-18.436-22.542-31.929-42.725-31.929s-37.265 13.493-42.726 31.929c-15.286 7.345-28.388 18.478-38.188 32.537-11.555 16.576-17.663 36.05-17.663 56.319 0 26.629 10.618 50.821 27.836 68.577h-71.715v30h22.079v65.829h-135.623v226.809h512v-226.809zm-134.937-240.631c0-8.028 6.532-14.56 14.56-14.56s14.56 6.532 14.56 14.56v16.008h-14.56c-8.028 0-14.56-6.532-14.56-14.56zm-54.017 76.225c0-22.147 10.937-42.801 28.391-55.534 7.194 14.963 22.503 25.317 40.186 25.317h44.56v-21.852c14.89 12.841 24.018 31.834 24.018 52.069 0 37.813-30.764 68.577-68.577 68.577s-68.578-30.763-68.578-68.577zm158.954 98.577v262.638h-30.988v-98.405h-118.777v98.405h-30.989v-262.638zm-60.988 262.638h-58.777v-68.405h58.777zm-255.389-166.809h105.623v166.809h-105.623zm452 166.809h-105.623v-166.809h105.623z"/><path d="m218.516 318.851h74.969v30h-74.969z"/><path d="m218.516 254.106h74.969v30h-74.969z"/><path d="m407.851 416.397h42.676v30h-42.676z"/><path d="m407.851 350.794h42.676v30h-42.676z"/><path d="m61.474 416.397h42.676v30h-42.676z"/><path d="m61.474 350.794h42.676v30h-42.676z"/><path d="m256 129.362c-5.045 0-9.149-4.104-9.149-9.149h-30c0 21.587 17.562 39.149 39.149 39.149s39.149-17.562 39.149-39.149h-30c0 5.045-4.104 9.149-9.149 9.149z"/></g></svg>