<svg id="Capa_1" enable-background="new 0 0 512 512" height="512" viewBox="0 0 512 512" width="512" xmlns="http://www.w3.org/2000/svg"><g><path d="m500.759 139.88-7.887-12.74-182.023 112.392c-11.3-14.462-24.269-27.414-38.751-38.7l112.545-181.775-12.762-7.881c-35.181-21.72-81.501-10.813-103.255 24.322l-145.68 235.294c-31.643-.548-63.461 11.201-87.555 35.26-22.822 22.794-35.391 53.098-35.391 85.331 0 32.235 12.569 62.539 35.392 85.331 23.556 23.525 54.498 35.286 85.439 35.286 30.942 0 61.884-11.761 85.44-35.285 22.823-22.792 35.393-53.097 35.393-85.331 0-1.136-.02-2.269-.051-3.4l234.79-144.976c17.043-10.524 28.964-27.047 33.564-46.525 4.602-19.479 1.331-39.581-9.208-56.603zm-215.606 115.519-75.828 46.821 46.884-75.724c10.657 8.599 20.334 18.261 28.944 28.903zm8.986-204.136c10.291-16.621 29.736-24.206 47.855-20.291l-159.053 256.891c-8.806-5.268-18.141-9.324-27.765-12.156zm-237.539 404.257c-17.155-17.131-26.601-39.909-26.601-64.137 0-19.163 5.931-37.405 16.89-52.677l22.021 21.998c-5.348 8.994-8.431 19.481-8.431 30.679 0 33.237 27.074 60.277 60.353 60.277 11.206 0 21.702-3.076 30.704-8.413l22.01 21.988c-15.711 11.196-34.205 16.813-52.715 16.811-23.258-.001-46.524-8.843-64.231-26.526zm64.232-33.829c-16.738 0-30.354-13.596-30.354-30.308s13.617-30.308 30.354-30.308 30.354 13.596 30.354 30.308-13.616 30.308-30.354 30.308zm73.942 22.37-22.02-21.999c5.348-8.994 8.431-19.481 8.431-30.679 0-33.237-27.074-60.277-60.353-60.277-11.206 0-21.702 3.076-30.704 8.413l-22.011-21.988c15.711-11.195 34.205-16.812 52.715-16.812 23.258 0 46.525 8.844 64.231 26.527 17.155 17.132 26.602 39.909 26.602 64.137.001 19.163-5.931 37.406-16.891 52.678zm285.996-254.46c-2.76 11.686-9.913 21.599-20.14 27.914l-224.228 138.455c-2.957-9.668-7.135-18.912-12.446-27.552l257.011-158.697c1.416 6.476 1.373 13.239-.197 19.88z"/></g></svg>