<svg id="Capa_1" enable-background="new 0 0 512 512" height="512" viewBox="0 0 512 512" width="512" xmlns="http://www.w3.org/2000/svg"><g><g><path d="m203.5 180h105c49.626 0 90-40.374 90-90s-40.374-90-90-90h-105c-49.626 0-90 40.374-90 90s40.374 90 90 90zm0-150h105c33.084 0 60 26.916 60 60s-26.916 60-60 60h-105c-33.084 0-60-26.916-60-60s26.916-60 60-60z"/></g><g><path d="m301 75h30v30h-30z"/></g><g><path d="m241 75h30v30h-30z"/></g><g><path d="m181 75h30v30h-30z"/></g><g><path d="m478.94 263.263c11.133-10.899 18.06-26.078 18.06-42.852 0-33.084-26.916-60-60-60s-60 26.916-60 60c0 16.783 6.936 31.971 18.081 42.871-9.3 6.272-17.238 14.63-23.025 24.631l-21.132 36.587c-2.671 4.626-7.648 7.5-12.99 7.5h-21.934c-24.813 0-45 20.187-45 45 0 5.259.915 10.305 2.58 15h-35.16c1.665-4.695 2.58-9.741 2.58-15 0-24.813-20.187-45-45-45h-21.934c-5.342 0-10.319-2.874-12.991-7.502l-21.137-36.596c-5.784-9.996-13.72-18.351-23.018-24.621 11.145-10.9 18.08-26.087 18.08-42.87 0-33.084-26.916-60-60-60s-60 26.916-60 60c0 16.773 6.927 31.953 18.06 42.852-19.933 13.494-33.06 36.317-33.06 62.148v186.589h512v-186.589c0-25.831-13.127-48.654-33.06-62.148zm-71.94-42.852c0-16.542 13.458-30 30-30s30 13.458 30 30-13.458 30-30 30-30-13.458-30-30zm15 261.589h-332v-60h332zm-377-261.589c0-16.542 13.458-30 30-30s30 13.458 30 30-13.458 30-30 30-30-13.458-30-30zm-15 105c0-24.813 20.187-45 45-45 16.003 0 30.936 8.628 38.966 22.506l21.13 36.583c8.012 13.878 22.944 22.5 38.971 22.5h21.933c8.271 0 15 6.729 15 15s-6.729 15-15 15h-136v90h-30zm452 156.589h-30v-90h-136c-8.271 0-15-6.729-15-15s6.729-15 15-15h21.934c16.026 0 30.959-8.622 38.97-22.498l21.125-36.574c8.036-13.889 22.969-22.517 38.972-22.517 24.813 0 45 20.187 45 45v156.589z"/></g></g></svg>