<?xml version="1.0" encoding="iso-8859-1"?>
<!-- Generator: Adobe Illustrator 19.0.0, SVG Export Plug-In . SVG Version: 6.00 Build 0)  -->
<svg version="1.1" id="Layer_1" xmlns="http://www.w3.org/2000/svg" xmlns:xlink="http://www.w3.org/1999/xlink" x="0px" y="0px"
	 viewBox="0 0 512 512" style="enable-background:new 0 0 512 512;" xml:space="preserve">
<g>
	<g>
		<path d="M420.602,465.884l56.549-169.648l-75.623-37.812V100.969H307.77V0H204.23v100.969h-93.758v157.455l-75.623,37.812
			l56.549,169.649c-9.545-2.484-21.271-4.311-37.336-4.311h-15.71v31.421h15.71c22.381,0,32.839,3.937,44.946,8.495
			c13.086,4.927,27.916,10.51,56.017,10.51c28.102,0,42.933-5.585,56.019-10.51c12.109-4.559,22.566-8.495,44.948-8.495
			c22.384,0,32.841,3.937,44.951,8.495c13.087,4.927,27.919,10.51,56.021,10.51c28.102,0,42.934-5.585,56.021-10.51
			c12.11-4.559,22.566-8.495,44.951-8.495h15.71v-31.421h-15.71C441.872,461.574,430.147,463.399,420.602,465.884z M235.65,31.421
			h40.699v69.548H235.65V31.421z M141.894,132.39h228.213v110.324L256,185.659l-114.107,57.054V132.39z M383.681,477.284
			c0,0-13.802,3.295-26.715,3.295c-22.384,0-32.841-3.937-44.951-8.495c-13.087-4.927-27.919-10.51-56.021-10.51
			c-28.102,0-42.933,5.585-56.019,10.51c-12.109,4.559-22.566,8.495-44.949,8.495c-12.912,0-26.707-3.295-26.707-3.295
			L73.275,312.152l167.015-83.507v133.246h31.421V228.645l167.015,83.507L383.681,477.284z"/>
	</g>
</g>
<g>
</g>
<g>
</g>
<g>
</g>
<g>
</g>
<g>
</g>
<g>
</g>
<g>
</g>
<g>
</g>
<g>
</g>
<g>
</g>
<g>
</g>
<g>
</g>
<g>
</g>
<g>
</g>
<g>
</g>
</svg>
