<svg id="Capa_1" enable-background="new 0 0 512 512" height="512" viewBox="0 0 512 512" width="512" xmlns="http://www.w3.org/2000/svg"><g><path d="m225.735 135.794v-75.53c0-16.688 13.577-30.265 30.265-30.265s30.266 13.577 30.266 30.265v45.265h30v-45.264c-.001-33.231-27.036-60.265-60.267-60.265s-60.265 27.034-60.265 60.265v75.53h-149.084v30h31.096c5.334 47.994 32.587 90.205 87.294 111.582-15.393 8.258-25.887 24.505-25.887 43.161 0 26.99 21.958 48.948 48.948 48.948h18.949v44.707c-35.88 1.85-64.503 31.623-64.503 67.954v29.853h226.902v-29.853c0-36.331-28.622-66.104-64.502-67.954v-44.707h18.948c10.448 0 18.949 8.501 18.949 18.949h30c0-26.99-21.959-48.949-48.949-48.949h-18.948v-43.963l48.354-20.665c45.09-19.269 75.695-61.106 80.967-109.063h31.079v-30zm-37.633 203.692c-10.448 0-18.948-8.5-18.948-18.948s8.5-18.949 18.948-18.949h18.949v37.897zm151.349 142.514h-166.903c.079-20.911 17.115-37.897 38.045-37.897h26.458v-74.616h37.897v74.616h26.457c20.93 0 37.967 16.986 38.046 37.897zm-64.502-206.281v63.767h-37.897v-64.109l-66.365-28.197c-34.072-14.478-57.54-45.486-62.701-81.385h87.75v14.704c0 26.99 21.959 48.949 48.949 48.949h79.213c9.881 0 18.009 7.605 18.864 17.267-.417.185-67.813 29.004-67.813 29.004zm94.257-45.819c-7.312-17.845-24.862-30.452-45.309-30.452h-79.213c-10.448 0-18.949-8.501-18.949-18.949v-14.704h178.304c-3.56 25.053-16.051 47.739-34.833 64.105z"/></g></svg>