<svg id="Layer_1" enable-background="new 0 0 510 510" height="512" viewBox="0 0 510 510" width="512" xmlns="http://www.w3.org/2000/svg"><g><path d="m255 .799c-140.93 0-255 114.051-255 255 12.345 337.906 497.695 337.837 510-.003 0-140.927-114.051-254.997-255-254.997zm0 480c-124.065 0-225-100.935-225-225 11.312-298.083 438.734-298.002 450 .003 0 124.062-100.935 224.997-225 224.997z"/><path d="m181.819 211.865c17.587-17.586 17.589-46.053 0-63.64-17.545-17.545-46.094-17.545-63.639 0-17.586 17.584-17.59 46.052 0 63.639 17.543 17.542 46.093 17.548 63.639.001zm-42.425-42.427c5.862-5.862 15.35-5.862 21.213 0 13.543 14.568-6.653 34.756-21.213 21.212-5.863-5.86-5.863-15.349 0-21.212z"/><path d="m328.181 148.225c-17.586 17.584-17.59 46.052 0 63.639 43.741 40.56 104.254-19.934 63.639-63.639-17.546-17.545-46.094-17.545-63.639 0zm42.425 42.426c-5.862 5.862-15.351 5.864-21.213-.001-5.862-5.86-5.862-15.35 0-21.212 14.57-13.542 34.753 6.652 21.213 21.213z"/><path d="m337.5 285.799h-165c-69.57 2.648-69.517 102.377 0 105h165c69.57-2.649 69.517-102.377 0-105zm-67.5 30h30v45h-30zm-30 45h-30v-45h30zm-90-22.5c0-12.406 10.094-22.5 22.5-22.5h7.5v45h-7.5c-12.406 0-22.5-10.094-22.5-22.5zm187.5 22.5h-7.5v-45h7.5c29.816 1.135 29.793 43.875 0 45z"/></g></svg>