<svg id="Capa_1" enable-background="new 0 0 510 510" height="512" viewBox="0 0 510 510" width="512" xmlns="http://www.w3.org/2000/svg"><g><path d="m510 225v-36.213l-68.787-68.787h-124.693c9.039-19.297 13.48-34.163 13.48-45 0-41.355-33.645-75-75-75s-75 33.645-75 75c0 10.837 4.441 25.703 13.48 45h-124.693l-68.787 68.787v36.213c0 19.555 12.541 36.228 30 42.42v212.58h-30v30h510v-30h-30v-212.555c17.086-6.029 30-22.447 30-42.445zm-90 0c0 8.271-6.728 15-15 15s-15-6.729-15-15v-15h30zm-60 0c0 8.271-6.728 15-15 15s-15-6.729-15-15v-15h30zm-60 0c0 8.271-6.728 15-15 15s-15-6.729-15-15v-15h30zm-120 0c0 8.271-6.729 15-15 15s-15-6.729-15-15v-15h30zm-60 0c0 8.271-6.729 15-15 15s-15-6.729-15-15v-15h30zm-60 0c0 8.281-6.717 15-15 15-8.271 0-15-6.729-15-15v-15h30zm150-15h30v15c0 8.271-6.729 15-15 15s-15-6.729-15-15zm255 30c-8.272 0-15-6.729-15-15v-15h30v15c0 8.281-6.717 15-15 15zm-36.213-90 30 30c-19.837 0-160.689 0-176.012 0 6.241-9.875 12.22-19.767 18.041-30zm-173.787-120c24.814 0 45 20.187 45 45 0 16.383-23.41 59.14-45 92.876-21.59-33.736-45-76.493-45-92.876 0-24.813 20.186-45 45-45zm-173.787 120h127.971c5.822 10.234 11.801 20.127 18.041 30-16.76 0-129.388 0-176.012 0zm38.787 330v-120h60v120zm90 0v-150h-120v150h-30v-212.555c5.494-1.939 10.584-4.95 15.014-8.928 17.109 15.32 42.892 15.309 59.986-.012 17.079 15.307 42.871 15.351 60 0 17.079 15.307 42.871 15.351 60 0 17.079 15.307 42.871 15.351 60 0 17.079 15.307 42.871 15.351 60 0 17.079 15.307 42.871 15.351 60 0 4.33 3.88 9.412 6.933 15 8.914v212.581z"/><path d="m240 330v120h180v-120zm150 90h-120v-60h120z"/><path d="m240 60h30v30h-30z"/></g></svg>