<svg id="Capa_1" enable-background="new 0 0 512 512" height="512" viewBox="0 0 512 512" width="512" xmlns="http://www.w3.org/2000/svg"><g><path d="m470.309.324v22.649c0 13.299-10.819 24.118-24.119 24.118h-48.284c-29.768 0-53.986 24.218-53.986 53.986v14.884h-90.954v117.407h-34.82v-14.57c0-29.769-24.218-53.987-53.986-53.987h-48.285c-13.299 0-24.119-10.819-24.119-24.119v-4.582l12.775-12.585 37.996-9.926-9.83-37.816 10.268-37.67-37.638-10.388-27.489-27.725-27.814 27.4-37.757 9.942 9.823 37.788-10.266 37.67 37.592 10.376 12.473 12.722v4.794c0 29.769 24.218 53.986 53.986 53.986h48.285c13.299 0 24.119 10.82 24.119 24.12v14.57h-98.02v278.632h352.677v-396.039h-69.148v-14.884c0-13.299 10.819-24.119 24.119-24.119h48.284c29.769 0 53.986-24.218 53.986-53.986v-22.648zm-421.841 91.606 4.53-16.617-4.333-16.67 16.656-4.386 12.269-12.087 12.126 12.23 16.602 4.583-4.53 16.617 4.326 16.641-16.857 4.403-12.221 12.041-11.923-12.16zm229.833 171.306v84.12l-31.486 15.216-46.926-19.733-47.346 19.912-32.417-13.633v-85.882zm29.867 102.858 38.155-18.438 40.388 19.947 26.357-13.017v41.163h-104.9zm-29.867 56.663h-158.175v-41.238l32.417 13.633 47.346-19.912 47.779 20.091 30.633-14.803zm-158.175 59.375v-29.508h158.175v29.508zm188.042 0v-56.516h104.9v56.516zm104.901-160.857-26.357 13.017-40.245-19.877-38.298 18.507v-99.554h-25.335v-87.54h130.235z"/></g></svg>