<svg id="Capa_1" enable-background="new 0 0 512 512" height="512" viewBox="0 0 512 512" width="512" xmlns="http://www.w3.org/2000/svg"><g><path d="m469.751 50.074c-27.725-27.725-66.587-42.993-105.796-42.993-66.27 0-126.007 46.216-142.263 110.569h-221.692v319.971h65.907l-18.241 67.299 134.512-67.299h173.848v-137.192c2.64.141 155.974.221 155.974.221v-146.779c0-39.209-14.523-76.073-42.249-103.797zm-143.726 357.547h-150.933l-80.947 40.5 10.978-40.5h-74.868v-259.971h187.051c-2.932 67.011 43.112 131.64 108.72 148.042v111.929zm156.72-136.971h-118.79c-63.784 0-116.78-53.02-116.78-116.779 0-63.632 53.135-116.79 116.78-116.79 64.383 0 118.79 51.847 118.79 116.79z"/></g></svg>