<svg id="Capa_1" enable-background="new 0 0 510.269 510.269" height="512" viewBox="0 0 510.269 510.269" width="512" xmlns="http://www.w3.org/2000/svg"><g><path d="m295.36 189.169c0-51.93-42.24-94.17-94.16-94.17-124.925 5.167-124.899 183.181 0 188.331 51.92-.001 94.16-42.24 94.16-94.161zm-158.33 0c0-35.38 28.79-64.17 64.17-64.17 85.112 3.525 85.097 124.822 0 128.33-35.38 0-64.17-28.78-64.17-64.16z"/><path d="m424.93 212.779-46.03 46.03c44.519-125.119-43.968-258.824-177.702-258.809-104.308-.001-189.168 84.859-189.168 189.169 0 34.71 9.63 72.89 28.63 113.48 14.89 31.82 35.58 65.27 61.5 99.44 55.195 70.601 80.853 90.926 99.04 108.18 17.159-16.002 22.842-19.406 62.43-63.44l36.93 36.94 197.68-197.68zm-185.69 167.24 30.89-30.88c7.311 7.316 23.248 23.261 30.43 30.44l44.06-44.06 80.31-80.31 30.89 30.88-155.26 155.26c-18.087-18.104-43.19-43.182-61.32-61.33zm-38.04 89.21c-36.47-35.91-159.17-165.27-159.17-280.06 0-87.77 71.4-159.17 159.17-159.17 87.76 0 159.16 71.4 159.16 159.17 0 42.51-16.83 87.03-39.88 128.06l-19.92 19.92-30.43-30.43-73.31 73.3 45.48 45.48c-16.99 19.43-31.83 34.6-41.1 43.73z"/></g></svg>