<svg id="Capa_1" enable-background="new 0 0 512.043 512.043" height="512" viewBox="0 0 512.043 512.043" width="512" xmlns="http://www.w3.org/2000/svg"><g><path d="m421.771 120.508h30v30h-30z"/><path d="m150.646 225.883c0 58.104 47.271 105.375 105.375 105.375s105.375-47.271 105.375-105.375-47.271-105.375-105.375-105.375-105.375 47.272-105.375 105.375zm31.504 15h29.133c.95 18.34 3.672 36.101 8.306 50.957-18.997-10.536-32.994-29.03-37.439-50.957zm88.568-30h-29.393c1.916-32.857 9.826-52.929 14.697-59.048 4.87 6.119 12.78 26.192 14.696 59.048zm0 30c-1.916 32.857-9.826 52.929-14.697 59.048-4.87-6.119-12.781-26.19-14.697-59.048zm21.737 50.957c4.634-14.855 7.356-32.617 8.306-50.957h29.133c-4.446 21.927-18.443 40.421-37.439 50.957zm37.438-80.957h-29.133c-.95-18.34-3.672-36.101-8.306-50.957 18.997 10.536 32.994 29.031 37.439 50.957zm-110.304-50.956c-4.634 14.855-7.356 32.617-8.306 50.957h-29.133c4.445-21.927 18.442-40.422 37.439-50.957z"/><path d="m496.063 61.332c-164.452 10.812-331.616 10.341-496.063-1.047v331.197c66.01-4.531 133.404-7.455 200.021-8.436v38.712h-31v30h174v-30h-31v-38.712c66.385.965 133.856 3.904 200.021 8.436v-331.196zm-214.042 360.426h-52v-39.044c17.333-.122 34.667-.122 52 0zm200.022-62.268c-75.036-4.582-150.525-6.872-226.021-6.872s-150.986 2.29-226.022 6.872v-267.211c150.059 9.166 301.957 9.165 452.043-.001z"/></g></svg>