<?xml version="1.0" encoding="iso-8859-1"?>
<!-- Generator: Adobe Illustrator 19.0.0, SVG Export Plug-In . SVG Version: 6.00 Build 0)  -->
<svg xmlns="http://www.w3.org/2000/svg" xmlns:xlink="http://www.w3.org/1999/xlink" version="1.1" id="Layer_1" x="0px" y="0px" viewBox="0 0 512.001 512.001" style="enable-background:new 0 0 512.001 512.001;" xml:space="preserve">
<g>
	<g>
		<path d="M440.075,392.857h-38.533c4.051-19.085-1.304-39.785-16.098-54.579c-8.346-8.346-18.735-13.904-30.037-16.221V199.117    c0-21.111-15.53-38.661-35.766-41.831v-16.656h35.766V0H12.357v140.631h35.766v16.656c-20.235,3.171-35.766,20.72-35.766,41.832    v30.583v209.371v72.928h325.856h101.861c32.848,0,59.571-26.723,59.571-59.571S472.922,392.857,440.075,392.857z M341.382,350.909    l0.674-0.044c0.421-0.018,0.842-0.031,1.266-0.031c7.898,0,15.324,3.076,20.909,8.66c10.578,10.578,11.443,27.238,2.609,38.821    l-0.226,0.289c-0.79,1.007-1.57,1.894-2.383,2.707l-25.406,25.406L297.007,384.9l25.406-25.406    c0.33-0.331,0.668-0.651,1.011-0.963c0.183-0.167,0.372-0.326,0.56-0.488c0.153-0.133,0.304-0.268,0.46-0.397    c0.276-0.229,0.557-0.45,0.84-0.668c0.062-0.048,0.123-0.097,0.186-0.145C330.054,353.362,335.579,351.287,341.382,350.909z     M42.358,110.629V30.001h283.047v80.628h-5.764H48.122H42.358z M289.641,140.631v16.142H78.124v-16.142H289.641z M42.358,199.117    c0-6.806,5.537-12.344,12.344-12.344h258.359c6.806,0,12.345,5.537,12.345,12.344V323.57c-5.663,1.778-11.025,4.406-15.936,7.814    c-0.004,0.003-0.008,0.006-0.013,0.009c-0.887,0.616-1.758,1.258-2.614,1.924c-0.162,0.125-0.323,0.251-0.483,0.378    c-0.714,0.567-1.415,1.153-2.106,1.755c-0.197,0.171-0.397,0.337-0.592,0.511c-0.837,0.749-1.661,1.517-2.462,2.317    l-16.804,16.803V229.701H42.358V199.117z M42.358,482.001v-0.002v-42.927h170.911c-0.12,0.525-0.237,1.051-0.343,1.578    c-0.068,0.338-0.129,0.676-0.191,1.015c-0.099,0.543-0.191,1.088-0.275,1.633c-0.053,0.345-0.105,0.689-0.152,1.035    c-0.077,0.565-0.142,1.131-0.203,1.698c-0.034,0.317-0.072,0.633-0.101,0.95c-0.066,0.721-0.115,1.443-0.155,2.165    c-0.009,0.159-0.024,0.318-0.032,0.478c-0.041,0.872-0.06,1.744-0.062,2.617c-0.001,0.289,0.008,0.578,0.012,0.867    c0.007,0.597,0.018,1.193,0.043,1.79c0.014,0.341,0.035,0.682,0.055,1.023c0.032,0.551,0.071,1.101,0.118,1.651    c0.03,0.347,0.061,0.694,0.097,1.041c0.058,0.565,0.128,1.128,0.202,1.691c0.042,0.319,0.08,0.638,0.128,0.956    c0.104,0.697,0.223,1.392,0.351,2.086c0.033,0.177,0.059,0.355,0.093,0.533c0.167,0.86,0.356,1.717,0.561,2.57    c0.066,0.272,0.141,0.542,0.211,0.814c0.151,0.592,0.307,1.182,0.477,1.77c0.094,0.325,0.195,0.649,0.294,0.973    c0.165,0.537,0.337,1.072,0.517,1.605c0.112,0.33,0.225,0.658,0.342,0.986c0.195,0.545,0.401,1.087,0.613,1.627    c0.117,0.298,0.229,0.596,0.351,0.893c0.27,0.658,0.555,1.31,0.85,1.96c0.077,0.17,0.148,0.343,0.227,0.513    c0.377,0.811,0.775,1.615,1.19,2.412c0.122,0.233,0.253,0.463,0.378,0.695c0.234,0.435,0.463,0.872,0.708,1.302H42.358z     M42.358,409.07V259.702h212.036v125.381l-10.083,10.083l-13.904,13.904H42.358z M292.203,473.336    c-5.584,5.585-13.011,8.66-20.908,8.66c-7.404,0-14.394-2.703-19.841-7.643c-0.362-0.327-0.719-0.666-1.068-1.016    c-0.721-0.721-1.396-1.469-2.026-2.243c-4.413-5.414-6.62-12.041-6.62-18.666c0-6.583,2.181-13.166,6.538-18.561l0.198-0.239    c0.315-0.38,0.632-0.748,0.951-1.1c0.311-0.342,0.629-0.679,0.959-1.009l25.406-25.407l41.817,41.818L292.203,473.336z     M374.143,482h-35.93c-0.491-0.001-0.981-0.016-1.47-0.04c-0.159-0.008-0.317-0.022-0.476-0.032    c-0.331-0.022-0.661-0.047-0.991-0.08c-0.183-0.018-0.366-0.041-0.549-0.063c-0.307-0.037-0.613-0.077-0.918-0.124    c-0.184-0.028-0.368-0.057-0.552-0.088c-0.31-0.053-0.619-0.113-0.927-0.175c-0.17-0.035-0.341-0.067-0.51-0.105    c-0.362-0.081-0.722-0.17-1.081-0.264c-0.109-0.029-0.219-0.053-0.328-0.083c-0.466-0.128-0.929-0.268-1.388-0.418    c-0.112-0.037-0.222-0.079-0.333-0.116c-0.279-0.095-0.555-0.196-0.831-0.299l46.284-46.284V482z M440.075,481.999h-35.93v-59.14    h35.93c16.305,0,29.569,13.265,29.569,29.569S456.379,481.999,440.075,481.999z"/>
	</g>
</g>
<g>
	<g>
		<rect x="69.937" y="296.364" width="156.877" height="30.001"/>
	</g>
</g>
<g>
	<g>
		<rect x="69.937" y="342.406" width="156.877" height="30.001"/>
	</g>
</g>
<g>
</g>
<g>
</g>
<g>
</g>
<g>
</g>
<g>
</g>
<g>
</g>
<g>
</g>
<g>
</g>
<g>
</g>
<g>
</g>
<g>
</g>
<g>
</g>
<g>
</g>
<g>
</g>
<g>
</g>
</svg>
