<svg id="Layer_1" enable-background="new 0 0 510 510" height="512" viewBox="0 0 510 510" width="512" xmlns="http://www.w3.org/2000/svg"><path d="m441.928 345c14.229-24.532 9.36-55.882-12.281-74.979 27.35-24.153 26.938-66.228 0-90 41.388-35.985 15.03-105.298-39.647-105.021h-75v-60h-120v60h-75c-55.267-.072-80.719 69.147-39.646 104.98-27.282 23.015-26.564 67.686.023 90.02-21.623 19.062-26.562 50.42-12.305 75h-68.072v30c0 33.084 26.916 60 60 60h20.729l30 60h288.541l30-60h20.73c33.084 0 60-26.916 60-60v-30zm-21.928-120c0 16.581-13.418 30-30 30h-32.58c4.273-12.047 1.878-17.574 2.58-60h30c16.542 0 30 13.458 30 30zm-8.786-68.787c-5.667 5.667-13.2 8.787-21.214 8.787h-30v-60h30c26.559 0 40.06 32.366 21.214 51.213zm-186.214-111.213h60v30h-60zm105 60v135c-.756 19.877-29.251 19.862-30 0v-60c0-24.814-20.186-45-45-45s-45 20.186-45 45c-.743 19.86-29.249 19.876-30 0v-75zm-240 30c0-16.581 13.417-30 30-30h30v60h-30c-16.542 0-30-13.458-30-30zm0 90c0-16.581 13.417-30 30-30h32.58c17.399 46.988 86.46 35.711 87.42-15.001.743-19.859 29.249-19.876 30 .001.756 58.078-1.794 62.667 2.58 75h-152.58c-16.542 0-30-13.458-30-30zm0 90c0-16.542 13.458-30 30-30h270c39.754 1.513 39.724 58.501 0 60h-270c-16.542 0-30-13.458-30-30zm290.729 150h-251.459l-15-30h281.459zm69.271-60c-18.282 0-371.549 0-390 0-16.542 0-30-13.458-30-30h450c0 16.542-13.458 30-30 30z"/></svg>