<svg id="Capa_1" enable-background="new 0 0 512 512" height="512" viewBox="0 0 512 512" width="512" xmlns="http://www.w3.org/2000/svg"><g><path d="m256 512c140.959 0 256-115.049 256-256 0-140.959-115.049-256-256-256-140.959 0-256 115.049-256 256 0 140.959 115.049 256 256 256zm-15-30.51c-51.045-3.362-97.512-23.739-133.768-55.51l43.24-43.24c25.015 20.863 56.277 34.469 90.527 37.571v61.179zm-120-225.49c0-42.3 19.561-80.112 50.107-104.883-3.303 9.355-5.107 19.411-5.107 29.883 0 49.626 40.374 90 90 90 33.084 0 60 26.916 60 60s-26.916 60-60 60c-74.439 0-135-60.561-135-135zm150 225.49v-61.179c34.25-3.102 65.512-16.708 90.527-37.571l43.24 43.24c-36.255 31.771-82.722 52.148-133.767 55.51zm154.98-76.723-43.24-43.24c20.864-25.015 34.469-56.277 37.571-90.537h61.179c-3.362 51.054-23.739 97.521-55.51 133.777zm55.51-163.767h-61.179c-3.102-34.25-16.707-65.512-37.571-90.527l43.24-43.24c31.771 36.256 52.148 82.723 55.51 133.767zm-210.49-210.49c51.045 3.362 97.512 23.739 133.768 55.51l-43.24 43.24c-25.016-20.864-56.278-34.469-90.528-37.571zm120 225.49c0 42.3-19.561 80.112-50.107 104.883 3.303-9.355 5.107-19.411 5.107-29.883 0-49.626-40.374-90-90-90-33.084 0-60-26.916-60-60s26.916-60 60-60c74.439 0 135 60.561 135 135zm-150-225.49v61.179c-34.25 3.102-65.512 16.708-90.527 37.571l-43.24-43.24c36.255-31.771 82.722-52.148 133.767-55.51zm-154.98 76.723 43.24 43.24c-20.864 25.015-34.469 56.277-37.571 90.527h-61.179c3.362-51.044 23.739-97.511 55.51-133.767zm5.669 163.767c3.102 34.25 16.707 65.512 37.571 90.527l-43.24 43.24c-31.771-36.256-52.148-82.723-55.51-133.767z"/><path d="m241 166h30v30h-30z"/><path d="m241 316h30v30h-30z"/></g></svg>