<svg id="Capa_1" enable-background="new 0 0 510 510" height="512" viewBox="0 0 510 510" width="512" xmlns="http://www.w3.org/2000/svg"><g><path d="m450 75v-60h-90v60h-210v-60h-90v60h-60v420h510c0-46.891 0-369.182 0-420zm-60-30h30v30h-30zm30 60v60h-270v-60zm-330-60h30v30h-30zm-60 60h90v60h-90zm450 360h-450v-270h450zm-30-300v-60h30v60z"/><path d="m105 420h90v-45h120v45h90v-75h30v-30h-30v-75h-90v45h-120v-45h-90v75h-30v30h30zm240-150h30v120h-30c0-36.68 0-83.065 0-120zm-30 45v30h-120v-30zm-180-45h30v120h-30z"/></g></svg>