<svg id="Capa_1" enable-background="new 0 0 510.928 510.928" height="512" viewBox="0 0 510.928 510.928" width="512" xmlns="http://www.w3.org/2000/svg"><g><path d="m216.595 188.374c-21.185 0-41.497 8.768-57.193 24.686-14.988 15.201-23.584 34.998-23.584 54.313 0 17.339 7.871 57.667 80.777 57.667s80.777-40.328 80.777-57.667c0-19.315-8.596-39.112-23.584-54.313-15.696-15.919-36.007-24.686-57.193-24.686zm39.121 99.062c-8.786 4.975-22.314 7.605-39.121 7.605s-30.335-2.63-39.121-7.605c-8.061-4.564-11.656-10.752-11.656-20.062 0-22.66 22.181-49 50.777-49s50.777 26.34 50.777 49c.001 9.31-3.594 15.498-11.656 20.062z"/><path d="m95.595 173.374h30v30h-30z"/><path d="m307.595 173.374h30v30h-30z"/><path d="m428.685 265.358c.91-25.239-3.766-51.039-11.325-71.671 3.98-7.644 8.346-17.708 11.63-29.797 7.064-26.005 7.403-73.14-16.432-120.729-51.61-13.011-99.963-6.49-133.067 16.773-20.449-6.793-41.523-10.228-62.896-10.228s-42.447 3.434-62.896 10.228c-32.104-22.747-81.456-29.783-133.067-16.772-23.835 47.589-23.496 94.723-16.431 120.728 3.284 12.088 7.649 22.153 11.63 29.797-7.559 20.632-11.568 41.965-11.568 63.021 0 25.527 5.952 48.257 17.691 67.559 10.972 18.04 27.025 33.127 47.716 44.841 35.864 20.305 85.297 30.601 146.926 30.601 31.689 0 60.143-2.729 85.196-8.135 10.544 47.318 52.854 82.801 103.302 82.801 58.358 0 105.835-47.477 105.835-105.835-.001-50.252-35.205-92.431-82.244-103.182zm-99.426 103.181c0-41.815 34.018-75.834 75.834-75.834 15.495 0 29.914 4.68 41.934 12.688l-105.079 105.079c-8.009-12.019-12.689-26.438-12.689-41.933zm-112.664 1.169c-55.59 0-101.285-9.235-132.145-26.707-33.771-19.12-50.188-47.347-50.188-86.293 0-42.31 19.492-86.346 53.479-120.814 35.724-36.231 81.485-56.186 128.854-56.186s93.131 19.954 128.855 56.186c33.986 34.469 53.326 77.559 53.326 127.005-53.015 3.137-95.65 45.472-99.261 98.36-23.993 5.573-51.915 8.449-82.92 8.449zm-175.194-300.697c27.684-5.773 53.59-3.672 77.224 6.244-19.035 10.407-36.56 23.666-52.246 39.575-12.823 13.006-23.857 27.249-32.929 42.264-6.066-21.688-8.115-52.309 7.951-88.083zm350.395.005c12.992 28.861 15.241 59.992 7.936 88.065-9.07-15.011-20.101-29.25-32.921-42.252-15.679-15.902-33.194-29.155-52.219-39.56 19.232-7.991 45.092-12.92 77.204-6.253zm-28.635 362.669 105.079-105.079c8.008 12.02 12.688 26.438 12.688 41.933 0 41.816-34.02 75.835-75.835 75.835-15.495 0-29.913-4.681-41.932-12.689z"/></g></svg>