<svg id="Capa_1" enable-background="new 0 0 512 512" height="512" viewBox="0 0 512 512" width="512" xmlns="http://www.w3.org/2000/svg"><g><path d="m324.901 327.102-10.901-1.354v-28.676c27.147-18.567 45-49.772 45-85.072v-125.85l47.831 26.026 14.338-26.352-43.785-23.824 43.785-23.824-14.338-26.352-49.119 26.726c-5.096-22.054-24.884-38.55-48.465-38.55h-106.494c-27.434 0-49.753 22.319-49.753 49.752v162.248c0 35.3 17.853 66.505 45 85.072v28.676l-10.902 1.354c-85.57 10.63-150.098 83.67-150.098 169.898v15h218 220v-15c0-86.228-64.528-159.268-150.099-169.898zm-140.107-99.077h142.412c-7.326 32.566-36.46 56.975-71.206 56.975s-63.88-24.409-71.206-56.975zm144.206-105.025v75.025h-146v-75.025zm0-73.248v43.248h-58v-63h38.247c10.892 0 19.753 8.861 19.753 19.752zm-126.247-19.752h38.247v63h-58v-43.248c0-10.891 8.861-19.752 19.753-19.752zm53.247 285c9.702 0 19.094-1.35 28-3.869v21.446l-28 26.698-28-26.698v-21.446c8.906 2.519 18.298 3.869 28 3.869zm-65.204 41.874 16.998-2.112 33.206 31.661v95.577h-173.205c6.868-64.428 57.448-116.983 123.001-125.126zm80.204 125.126v-95.577l33.206-31.661 16.997 2.111c65.554 8.144 116.134 60.699 123.002 125.126h-173.205z"/><path d="m152 422h59v30h-59z"/></g></svg>