<?xml version="1.0" encoding="iso-8859-1"?>
<!-- Generator: Adobe Illustrator 19.0.0, SVG Export Plug-In . SVG Version: 6.00 Build 0)  -->
<svg xmlns="http://www.w3.org/2000/svg" xmlns:xlink="http://www.w3.org/1999/xlink" version="1.1" id="Layer_1" x="0px" y="0px" viewBox="0 0 512 512" style="enable-background:new 0 0 512 512;" xml:space="preserve">
<g>
	<g>
		<path d="M443.093,413.847H196.546c-1.609-7.771-4.335-15.135-8.001-21.924h255.373V116.516H150.055v239.57    c-6.403-2.872-13.234-4.951-20.368-6.09V0.094H0v91.541h67.016V60.3H31.335v-28.87h67.016v319.642    c-36.078,8.377-63.047,40.778-63.047,79.362c0,44.925,36.548,81.472,81.472,81.472c39.89,0,73.179-28.818,80.135-66.724h232.175    l59.558,66.567L512,490.859L443.093,413.847z M164.699,445.182c-6.309,20.472-25.403,35.388-47.922,35.388    c-27.648,0-50.137-22.488-50.137-50.137c0-21.141,13.161-39.263,31.711-46.627c5.703-2.256,11.918-3.499,18.425-3.499    c4.46,0,8.784,0.585,12.91,1.682c16.044,4.283,28.943,16.326,34.406,31.858c1.828,5.191,2.82,10.779,2.82,16.587    C166.913,435.562,166.14,440.524,164.699,445.182z M181.39,147.851h99.928v106.365h31.335V147.851h99.93v212.736H181.39V147.851z"/>
	</g>
</g>
<g>
</g>
<g>
</g>
<g>
</g>
<g>
</g>
<g>
</g>
<g>
</g>
<g>
</g>
<g>
</g>
<g>
</g>
<g>
</g>
<g>
</g>
<g>
</g>
<g>
</g>
<g>
</g>
<g>
</g>
</svg>
