<svg id="Layer_1" enable-background="new 0 0 511.887 511.887" height="512" viewBox="0 0 511.887 511.887" width="512" xmlns="http://www.w3.org/2000/svg"><g><path d="m248.451 397.323c33.226 0 63.41-17.191 80.774-44.055l10.662 16.135 25.029-16.539-46.083-69.741h-47.276v-48.016h37.616v-30h-37.616v-25.883c8.586-5.127 14.351-14.509 14.351-25.216 0-16.184-13.167-29.351-29.351-29.351-16.185 0-29.352 13.167-29.352 29.351 0 10.707 5.765 20.089 14.352 25.216v26.132c-49.788 3.547-89.213 45.183-89.213 95.859 0 52.995 43.113 96.108 96.107 96.108zm-6.894-161.855v77.655h61.142l7.589 11.486c-9.615 25.435-34.197 42.714-61.836 42.714-36.452 0-66.107-29.655-66.107-66.107-.001-34.124 25.988-62.289 59.212-65.748z"/><path d="m0 0v511.887h511.887v-511.887zm481.887 481.887h-451.887v-451.887h451.887z"/><path d="m453.857 58.028h-395.829v395.829h395.829zm-30 365.829h-335.829v-335.829h335.829z"/></g></svg>