<svg id="Layer_1" enable-background="new 0 0 515.809 515.809" height="512" viewBox="0 0 515.809 515.809" width="512" xmlns="http://www.w3.org/2000/svg"><g><path d="m464.208 310.404h-75.999l-43.001-150h-172.464l-45 150h-76.143l-51.601 180h515.809zm-269.144-120h127.536l34.399 120c-19.443 0-177.392 0-197.936 0zm-155.255 270 34.399-120h127.536l36 120zm218.095-37.201-24.84-82.799h49.68zm56.161-82.799h127.536l34.399 120h-197.935z"/><path d="m452.904 205.404h30v-30h30v-30h-30v-30h-30v30h-30v30h30z"/><path d="m32.904 280.404h30v-30h30v-30h-30v-30h-30v30h-30v30h30z"/><path d="m122.904 385.404h30v30h-30z"/><path d="m362.904 385.404h30v30h-30z"/><path d="m242.904 235.404h30v30h-30z"/><path d="m242.904 25.404h30v60h-30z"/><path d="m312.757 75.551h60.001v30h-60.001z" transform="matrix(.707 -.707 .707 .707 36.362 268.888)"/><path d="m158.051 60.551h30v60.001h-30z" transform="matrix(.707 -.707 .707 .707 -13.344 148.888)"/></g></svg>