<svg id="Capa_1" enable-background="new 0 0 512 512" height="512" viewBox="0 0 512 512" width="512" xmlns="http://www.w3.org/2000/svg"><g><path d="m0 0v512h512v-512zm211 482.527h-121v-289.347h121zm60 0h-30v-289.347h30zm151 0h-121v-289.347h121zm60-.527h-30v-318.82h-392v318.82h-30v-452h452z"/><path d="m167.532 91.91-21.213-21.213-20.319 20.32-20.319-20.32-21.213 21.213 41.532 41.532z"/><path d="m386 102.517 20.319 20.319 21.213-21.213-41.532-41.532-41.532 41.532 21.213 21.213z"/><path d="m211 81.767h30v30h-30z"/><path d="m271 81.767h30v30h-30z"/></g></svg>