<svg id="Capa_1" enable-background="new 0 0 512 512" height="512" viewBox="0 0 512 512" width="512" xmlns="http://www.w3.org/2000/svg"><path id="XMLID_1218_" d="m421.945 169.606c-10.277-14.216-23.188-25.006-37.162-33.195v-31.271l31.382-25.5-18.918-23.283-42.464 34.504v32.036c-8.498-2.872-16.989-5.061-25.176-6.719.861-4.608 1.293-9.373 1.293-14.344 0-18.656-6.997-35.701-18.488-48.679.961-13.125 12.004-23.155 25.94-23.155v-30c-23.893 0-43.834 13.989-52.017 34.26-8.894-3.827-18.683-5.955-28.963-5.955-10.304 0-20.115 2.139-29.025 5.982-8.177-20.285-28.125-34.287-52.029-34.287v30c13.963 0 25.022 10.068 25.945 23.231-11.452 12.969-18.422 29.983-18.422 48.603 0 4.83.414 9.4 1.249 13.813-8.104 1.542-16.546 3.596-25.028 6.313v-31.099l-42.465-34.504-18.917 23.284 31.383 25.5v29.649c-15.064 8.37-29.037 19.642-40.008 34.817-47.066 65.104-17.193 173.668-15.898 178.257l2.829 10.028 10.384.85c.903.073 5.969.455 13.87.455 8.344 0 19.851-.428 32.947-2.089l-15.505 20.068 24.047 49.691 27.004-13.068-15.957-32.975 10.453-13.53c.107.212.208.426.316.637 25.726 49.929 65.119 95.8 77.813 110v34.069h30v-34.015c12.78-14.131 52.101-59.49 77.685-109.586.108-.212.209-.429.316-.642l11.597 14.782-8.291 34.267 29.158 7.055 11.711-48.399-14.153-18.039c12.032 1.403 22.586 1.776 30.38 1.776 7.896 0 12.967-.382 13.87-.455l10.384-.85 2.829-10.028c1.295-4.592 31.168-113.155-15.899-178.26zm-24.312 17.577c13.785 19.068 19.19 43.886 20.438 67.948l-59.601-26.767-62.534-86.5c30.24 2.188 77.112 11.311 101.697 45.319zm-183.83 204.97c-5.854-8.776-11.594-17.979-16.877-27.371 40.557-5.325 80.491-5.358 121.093-.1-5.259 9.456-10.989 18.703-16.845 27.507-32.013-3.234-56.033-3.246-87.371-.036zm67.081 28.431c-8.989 11.79-17.276 21.764-23.464 28.945-6.151-7.206-14.39-17.199-23.342-28.984 15.967-1.034 30.589-1.022 46.806.039zm-36.741-119.793c4.684-6.479 8.594-13.393 11.858-20.586 3.264 7.194 7.174 14.108 11.858 20.586 9.809 13.567 22.016 24.015 35.257 32.059-31.736-2.924-63.196-2.784-94.929.424 13.511-8.099 25.975-18.677 35.956-32.483zm-6.561-137.484c4.778 33.672 6.818 85.923-17.751 119.908-13.145 18.183-32.759 29.246-52.791 35.939l10.61-72.947zm54.589 119.908c-24.57-33.986-22.529-86.24-17.752-119.908l59.932 82.9 10.619 73.016c-20.008-6.691-39.613-17.768-52.799-36.008zm-78.33-181.381c0-24.002 19.527-43.529 43.53-43.529 24.002 0 43.529 19.527 43.529 43.529 0 3.634-.347 6.998-1.06 10.206-19.322-1.536-33.119-.51-34.668-.384l-9.172.75-9.172-.75c-1.473-.121-14.024-1.056-31.871.175-.757-3.131-1.116-6.402-1.116-9.997zm-99.474 85.349c24.481-33.862 71.387-43.03 101.661-45.268l-62.497 86.448-59.602 26.767c1.248-24.061 6.653-48.88 20.438-67.947zm-13.846 141.962c-2.006-9.374-4.694-24.208-6.043-41.373l50.083-22.492-8.909 61.248c-14.17 2.131-26.755 2.616-35.131 2.617zm275.837-2.557-8.917-61.309 50.082 22.492c-1.351 17.182-4.042 32.027-6.048 41.397-8.371.009-20.95-.459-35.117-2.58z"/></svg>