<svg id="Capa_1" enable-background="new 0 0 512 512" height="512" viewBox="0 0 512 512" width="512" xmlns="http://www.w3.org/2000/svg"><g><path d="m377.819 89.487c-17.545-17.546-46.094-17.546-63.639 0l-38.787 38.787 21.213 21.213 38.787-38.787c5.847-5.848 15.362-5.849 21.254.041l103.94 103.14h-409.175l103.982-103.181c5.848-5.848 15.365-5.848 21.213 0l38.787 38.787 21.213-21.213-38.787-38.787c-17.547-17.547-46.094-17.545-63.598-.041l-134.222 133.187v112.077c0 33.024 21.187 61.804 52.768 71.629l84.374 25.938c21.016 6.538 43.744 3.544 62.351-8.216 18.606-11.76 31.063-31.002 34.177-52.792l2.938-20.571c1.369-9.588 9.706-16.818 19.393-16.818s18.024 7.23 19.393 16.819l2.938 20.571c3.113 21.79 15.57 41.032 34.177 52.792 18.439 11.655 41.146 14.811 62.303 8.231l84.47-25.968c31.533-9.81 52.72-38.59 52.72-71.614v-112.078zm72.597 288.177-84.47 25.968c-12.611 3.923-26.247 2.127-37.411-4.93-11.163-7.056-18.638-18.601-20.505-31.675l-2.938-20.57c-3.466-24.273-24.57-42.578-49.092-42.578-24.521 0-45.625 18.304-49.092 42.577l-2.938 20.571c-1.867 13.074-9.342 24.619-20.505 31.675-11.165 7.057-24.802 8.854-37.459 4.915l-84.374-25.938c-18.92-5.886-31.632-23.154-31.632-42.969v-90.83h452v90.83c0 19.815-12.712 37.083-31.584 42.954z"/><path d="m93.574 303.881h84.853v30h-84.853z" transform="matrix(.707 -.707 .707 .707 -185.649 189.564)"/><path d="m333.574 303.881h84.853v30h-84.853z" transform="matrix(.707 -.707 .707 .707 -115.355 359.27)"/></g></svg>