<svg id="Capa_1" enable-background="new 0 0 508.082 508.082" height="512" viewBox="0 0 508.082 508.082" width="512" xmlns="http://www.w3.org/2000/svg"><g><path d="m508.082 254.041-115.101-57.551 40.694-122.083-122.083 40.694-57.551-115.101-57.551 115.102-122.083-40.695 40.694 122.083-115.101 57.551 115.101 57.551-40.694 122.083 122.083-40.695 57.551 115.102 57.551-115.102 122.083 40.694-40.694-122.083zm-211.687 102.252-42.354 84.707-42.354-84.707-89.847 29.948 29.949-89.847-84.707-42.353 84.707-42.354-29.949-89.847 89.847 29.948 42.354-84.707 42.353 84.707 89.847-29.948-29.949 89.847 84.708 42.354-84.708 42.353 29.949 89.847z"/><path d="m365.734 254.041-62.49-27.991 25.403-25.402-21.213-21.213-25.403 25.402-27.991-62.489-27.991 62.489-25.402-25.402-21.213 21.213 25.402 25.402-62.489 27.991 62.489 27.991-25.402 25.402 21.213 21.213 25.402-25.402 27.991 62.489 27.991-62.489 25.403 25.402 21.213-21.213-25.403-25.402zm-111.693 38.307-11.851-26.456-26.456-11.851 26.456-11.851 11.851-26.456 11.85 26.456 26.457 11.851-26.457 11.851z"/></g></svg>