<svg id="Capa_1" enable-background="new 0 0 503.345 503.345" height="512" viewBox="0 0 503.345 503.345" width="512" xmlns="http://www.w3.org/2000/svg"><g><path d="m461.672 176.014v-77.669h-77.67c-17.148 0-33.951 4.382-48.822 12.448-3.439-20.918-13.306-40.591-28.592-55.875l-54.916-54.918c-54.367 54.975-57.328 55.898-65.91 67.931-40.999-29.166-98.763-12.762-117.709 34.298-9.822 24.396-6.604 51.185 7.326 72.207-17.247 20.216-23.15 48.219-15.14 73.909h-18.567v15c0 73.509 40.905 140.897 105 174.349v65.651h210v-65.651c64.095-33.451 105-100.84 105-174.349v-15h-30.012c18.605-18.636 30.012-44.314 30.012-72.331zm-36.169 132.331h-347.661c-2.71-9.731-4.58-19.763-5.498-30h358.658c-.919 10.237-2.789 20.268-5.499 30zm-188.831-60c0-25.962 16.548-48.862 41.195-56.991 38.674-12.803 78.805 16.172 78.805 56.991zm15-205.919 33.703 33.705c21.384 21.384 27.444 54.455 14.154 82.264-5.587-.176-11.106.146-16.777 1.029-12.182-26.312-37.923-43.432-66.222-45.104-1.808-8.071-4.948-16.105-9.69-23.832 7.635-12.912 13.698-16.105 44.832-48.062zm-146.747 145.012 13.183-10.402-11.82-11.93c-13.018-13.14-17.817-33.262-10.404-51.674 15.923-39.554 71.994-39.988 88.688-.883 5.314 12.484 3.413 21.402 4.26 34.377l16.612-2.293c19.784-2.729 39.103 7.194 48.586 24.441-26.405 14.16-44.143 40.659-46.951 70.836-1.478-.152-2.949-.368-4.41-.658l-20.244-47.527-27.601 11.756 19.109 44.864h-81.221c-11.578-20.969-5.856-46.646 12.213-60.907zm71.747 285.907v-30h150v30zm161.592-60h-173.183c-33.269-16.063-59.581-42.767-75.688-75h324.562c-16.11 32.233-42.422 58.938-75.691 75zm93.408-237.331c0 30.006-18.479 56.225-45.159 67.045-2.081-35.74-25.108-65.951-56.961-78.495 2.091-5.349 3.729-10.874 4.893-16.555 13.449-12.708 30.883-19.664 49.558-19.664h47.67v47.669z"/></g></svg>