<svg id="Capa_1" enable-background="new 0 0 512 512" height="512" viewBox="0 0 512 512" width="512" xmlns="http://www.w3.org/2000/svg"><g><path d="m154 335h204v-158h-204zm30-128h144v98h-144z"/><path d="m422 225h30v30h-30z"/><path d="m392 255h30v30h-30z"/><path d="m60 225h30v30h-30z"/><path d="m90 255h30v30h-30z"/><path d="m487.417 151c-22.989 0-44.374-10.325-58.67-28.328l-4.504-5.672h-336.486l-4.504 5.672c-14.296 18.003-35.681 28.328-58.67 28.328h-24.583v154.902c0 49.129 39.969 89.098 89.098 89.098h333.805c49.128 0 89.097-39.969 89.097-89.098v-154.902zm-5.417 154.902c0 32.587-26.511 59.098-59.098 59.098h-333.804c-32.587 0-59.098-26.511-59.098-59.098v-125.039c27.644-1.401 53.277-13.491 71.911-33.863h308.178c18.634 20.372 44.268 32.462 71.911 33.863z"/></g></svg>