<svg id="Capa_1" enable-background="new 0 0 512 512" height="512" viewBox="0 0 512 512" width="512" xmlns="http://www.w3.org/2000/svg"><g><path d="m188.5 255h30v30h-30z"/><path d="m293.5 255h30v30h-30z"/><path d="m430.599 397.001-72.327-23.976c16.613-19.275 27.877-43.281 31.479-69.692h16.249c24.813 0 45-20.187 45-45 0-19.651-12.666-36.389-30.259-42.508-3.312-60.13-38.962-111.783-89.816-137.811.04-1.004.075-2.009.075-3.014 0-41.355-33.645-75-75-75s-75 33.645-75 75c0 1.005.035 2.01.075 3.014-50.853 26.028-86.504 77.681-89.816 137.811-17.593 6.119-30.259 22.857-30.259 42.508 0 24.813 20.187 45 45 45h16.249c3.602 26.411 14.865 50.417 31.479 69.692l-72.327 23.976c-30.745 10.191-51.401 38.801-51.401 71.19v43.809h452v-43.809c0-32.389-20.656-60.999-51.401-71.19zm-24.599-123.668h-15v-30h15c8.271 0 15 6.729 15 15s-6.729 15-15 15zm-150-243.333c21.729 0 39.909 15.48 44.093 35.992-14.042-3.899-28.827-5.992-44.093-5.992s-30.051 2.093-44.093 5.992c4.184-20.512 22.364-35.992 44.093-35.992zm0 60c70.509 0 128.555 54.336 134.49 123.333h-14.698c-5.628 0-10.772-2.911-13.76-7.789-7.335-11.97-19.709-29.229-37.004-43.481-21.152-17.432-44.376-26.27-69.029-26.27s-47.877 8.838-69.029 26.27c-17.294 14.252-29.668 31.512-37.004 43.482-2.988 4.877-8.132 7.788-13.76 7.788h-14.696c5.935-68.997 63.981-123.333 134.49-123.333zm-165 168.333c0-8.271 6.729-15 15-15h15v30h-15c-8.271 0-15-6.729-15-15zm60-17.421c10.066-3.398 18.756-10.243 24.546-19.692 29.554-48.226 63.092-55.427 80.453-55.427s50.9 7.201 80.453 55.426c5.79 9.45 14.481 16.295 24.547 19.693v44.088c0 57.897-47.103 105-105 105s-105-47.103-105-105v-44.088zm301 241.088h-392v-13.809c0-19.434 12.394-36.6 30.84-42.714l88.581-29.364c21.774 15.054 48.163 23.887 76.579 23.887s54.805-8.833 76.579-23.886l88.58 29.364c18.446 6.114 30.84 23.28 30.84 42.714v13.808z"/><path d="m90 30h30v30h-30z"/><path d="m60 90h30v30h-30z"/><path d="m392 0h30v30h-30z"/><path d="m392 60h30v30h-30z"/><path d="m422 30h30v30h-30z"/><path d="m362 30h30v30h-30z"/></g></svg>