<svg id="Capa_1" enable-background="new 0 0 512 512" height="512" viewBox="0 0 512 512" width="512" xmlns="http://www.w3.org/2000/svg"><g><g><path d="m256 392c-74.991 0-136-61.01-136-136s61.009-136 136-136 136 61.01 136 136-61.009 136-136 136zm0-242c-58.449 0-106 47.552-106 106s47.551 106 106 106 106-47.552 106-106-47.551-106-106-106z"/></g><g><path d="m241 0h30v90h-30z"/></g><g><path d="m171.735 73.778h29.999v29.999h-29.999z" transform="matrix(.924 -.383 .383 .924 -19.76 78.219)"/></g><g><path d="m148.774 18.345h29.999v29.999h-29.999z" transform="matrix(.924 -.383 .383 .924 -.294 65.213)"/></g><g><path d="m73.778 171.734h30v30h-30z" transform="matrix(.383 -.924 .924 .383 -117.716 197.296)"/></g><g><path d="m18.345 148.773h30v30h-30z" transform="matrix(.383 -.924 .924 .383 -130.723 131.907)"/></g><g><path d="m73.778 310.265h30v30h-30z" transform="matrix(.924 -.383 .383 .924 -117.714 58.732)"/></g><g><path d="m18.345 333.226h30v30h-30z" transform="matrix(.924 -.383 .383 .924 -130.72 39.267)"/></g><g><path d="m171.735 408.222h29.999v29.999h-29.999z" transform="matrix(.383 -.924 .924 .383 -275.732 433.779)"/></g><g><path d="m148.774 463.655h29.999v29.999h-29.999z" transform="matrix(.383 -.924 .924 .383 -341.119 446.785)"/></g><g><path d="m310.266 408.222h29.999v29.999h-29.999z" transform="matrix(.924 -.383 .383 .924 -137.202 156.693)"/></g><g><path d="m333.227 463.655h29.999v29.999h-29.999z" transform="matrix(.924 -.383 .383 .924 -156.668 169.699)"/></g><g><path d="m408.222 310.265h30v30h-30z" transform="matrix(.383 -.924 .924 .383 -39.243 591.801)"/></g><g><path d="m463.655 333.227h30v30h-30z" transform="matrix(.383 -.924 .924 .383 -26.238 657.186)"/></g><g><path d="m408.222 171.734h30v30h-30z" transform="matrix(.924 -.383 .383 .924 -39.244 176.172)"/></g><g><path d="m463.655 148.773h30v30h-30z" transform="matrix(.924 -.383 .383 .924 -26.238 195.637)"/></g><g><path d="m310.266 73.778h29.999v29.999h-29.999z" transform="matrix(.383 -.924 .924 .383 118.77 355.309)"/></g><g><path d="m333.227 18.345h29.999v29.999h-29.999z" transform="matrix(.383 -.924 .924 .383 184.157 342.303)"/></g><g><path d="m360.2 91.801h90v30h-90z" transform="matrix(.707 -.707 .707 .707 43.161 317.801)"/></g><g><path d="m422 241h90v30h-90z"/></g><g><path d="m390.2 360.2h30v90h-30z" transform="matrix(.707 -.707 .707 .707 -167.839 405.2)"/></g><g><path d="m241 422h30v90h-30z"/></g><g><path d="m61.8 390.2h90v30h-90z" transform="matrix(.707 -.707 .707 .707 -255.238 194.2)"/></g><g><path d="m0 241h90v30h-90z"/></g><g><path d="m91.801 61.8h30v90h-30z" transform="matrix(.707 -.707 .707 .707 -44.238 106.8)"/></g></g></svg>