<svg id="Capa_1" enable-background="new 0 0 510 510" height="512" viewBox="0 0 510 510" width="512" xmlns="http://www.w3.org/2000/svg"><g><path d="m195 0h-90c-24.813 0-45 20.187-45 45v45h30v201.213l45 45v86.367c-17.459 6.192-30 22.865-30 42.42v45h90v-45c0-19.555-12.542-36.228-30-42.42v-86.367l45-45v-201.213h30v-45c0-24.813-20.187-45-45-45zm-30 480h-30v-15c0-8.272 6.729-15 15-15s15 6.728 15 15zm15-201.213-30 30-30-30v-83.787h60zm0-113.787h-60v-75h60zm30-105h-120v-15c0-8.271 6.729-15 15-15h90c8.271 0 15 6.729 15 15z"/><path d="m405 0h-90c-24.813 0-45 20.187-45 45v45h30v201.213l45 45v86.367c-17.458 6.192-30 22.865-30 42.42v45h90v-45c0-19.555-12.542-36.228-30-42.42v-86.367l45-45v-201.213h30v-45c0-24.813-20.187-45-45-45zm-30 480h-30v-15c0-8.272 6.729-15 15-15s15 6.728 15 15zm15-201.213-30 30-30-30v-83.787h60zm0-113.787h-60v-75h60zm30-105h-120v-15c0-8.271 6.729-15 15-15h90c8.271 0 15 6.729 15 15z"/></g></svg>