<svg id="Capa_1" enable-background="new 0 0 506.831 506.831" height="512" viewBox="0 0 506.831 506.831" width="512" xmlns="http://www.w3.org/2000/svg"><g id="XMLID_334_"><path id="XMLID_338_" d="m417.449 351.626c1.48-13.799 1.364-28.338-1.092-45.748 27.326 5.938 50.793 23.863 63.643 49.551l26.831-13.422c-18.969-37.918-55.452-63.025-96.993-67.535-2.89-10.643-6.47-21.391-10.697-32.053 39.02-5.678 74.17-29.959 92.69-66.99l-26.831-13.42c-15.254 30.5-45.238 49.938-79.008 51.582-5.565-10.732-11.631-21.004-18.661-31.197l22.926-34.387c27.5-41.256 22.014-96.646-13.044-131.705l-8.191-8.189-21.214 21.213 8.192 8.189c24.982 24.982 28.892 64.455 9.295 93.852l-17.493 26.236c-11.653-12.871-24.1-23.48-36.977-31.455 1.679-5.52 2.59-11.369 2.59-17.43 0-33.084-26.915-60-59.999-60s-60 26.916-60 60c0 6.057.91 11.902 2.587 17.416-12.87 7.959-25.3 18.547-36.977 31.463l-17.488-26.229c-19.597-29.4-15.688-68.871 9.296-93.854l8.189-8.189-21.214-21.212-8.189 8.189c-35.06 35.059-40.546 90.449-13.044 131.707l22.931 34.389c-6.601 9.576-12.764 19.807-18.661 31.193-33.771-1.641-63.758-21.082-79.014-51.582l-26.832 13.42c10.271 20.533 26.021 37.768 45.55 49.838 14.447 8.93 30.498 14.734 47.167 17.156-4.2 10.621-7.779 21.373-10.677 32.045-41.56 4.496-78.063 29.607-97.04 67.539l26.831 13.422c12.855-25.695 36.332-43.623 63.669-49.557-2.231 15.703-2.772 30.332-1.118 45.754-44.762 15.121-75.967 57.541-75.967 105.783v41.309h30v-41.309c0-33.971 21.156-64 51.951-76.053 20.06 66.865 82.428 117.361 158.049 117.361 75.514 0 137.965-50.422 158.049-117.361 30.795 12.053 51.95 42.082 51.95 76.053v41.309h30v-41.309c.001-48.24-31.202-90.662-75.965-105.783zm-164.034-272.908c16.542 0 29.999 13.459 29.999 30 0 16.543-13.457 30-29.999 30-16.541 0-30-13.457-30-30 0-16.541 13.459-30 30-30zm0 390c-74.587 0-135-60.375-135-135 0-60.881 39.898-149.002 93.223-181.994 10.812 10.506 25.548 16.994 41.777 16.994 16.23 0 30.965-6.488 41.777-16.992 53.375 33.018 93.223 121.074 93.223 181.992 0 74.586-60.374 135-135 135z"/><path id="XMLID_335_" d="m253.415 198.718c-24.748 0-47.771 20.932-66.582 60.531-14.006 29.488-23.418 65.443-23.418 89.469 0 49.627 40.375 90 90 90 49.626 0 89.999-40.373 89.999-90 0-24.025-9.411-59.98-23.418-89.469-18.809-39.599-41.833-60.531-66.581-60.531zm0 210c-33.084 0-60-26.916-60-60 0-16.6 7.048-48.242 20.517-76.596 12.718-26.773 27.847-43.404 39.483-43.404 11.639 0 26.768 16.631 39.485 43.404 13.468 28.354 20.515 59.996 20.515 76.596 0 33.084-26.915 60-60 60z"/></g></svg>