<svg id="Capa_1" enable-background="new 0 0 512 512" height="512" viewBox="0 0 512 512" width="512" xmlns="http://www.w3.org/2000/svg"><g><path d="m451.004 195c0-107.523-87.477-195-195-195s-195 87.477-195 195 87.477 195 195 195 195-87.477 195-195zm-195 165c-90.981 0-165-74.019-165-165s74.019-165 165-165 165 74.019 165 165-74.018 165-165 165z"/><path d="m450.409 421.916c-19.967-20.582-46.392-31.916-74.405-31.916h-120-120c-28.013 0-54.438 11.334-74.405 31.916-37.638 38.793-29.523 83.205-30.595 90.084h450c-1.07-6.873 6.985-51.352-30.595-90.084zm-387.909 60.084c7.018-34.851 37.833-62 73.504-62h240c35.672 0 66.487 27.149 73.504 62z"/><path d="m181.004 270h150v30h-150z"/><path d="m151.004 150h90v30h-90z"/><path d="m271.004 150h90v30h-90z"/></g></svg>