<svg id="Capa_1" enable-background="new 0 0 512 512" height="512" viewBox="0 0 512 512" width="512" xmlns="http://www.w3.org/2000/svg"><g><path d="m467 391.999h-313.414l46.278-32.395c15.389 10.978 36.132 11.335 51.936.269l165-115.503c20.326-14.23 25.292-42.342 11.074-62.659-14.245-20.379-42.291-25.34-62.673-11.078l-165.001 115.504c-16.018 11.214-22.487 31.048-17.553 48.9l-81.375 56.962h-56.272c-24.813 0-45 20.187-45 45s20.187 45 45 45h16v30h90v-30h211v30h90v-30h15c24.813 0 45-20.187 45-45s-20.187-45-45-45zm-249.595-81.285 164.998-115.502c6.879-4.812 16.209-2.998 20.888 3.693 4.74 6.773 3.082 16.144-3.695 20.889l-165.003 115.504c-6.8 4.763-16.155 3.059-20.883-3.696-4.74-6.773-3.082-16.144 3.695-20.888zm249.595 141.285h-45v30h-30v-30h-271v30h-30v-30h-46c-8.271 0-15-6.729-15-15s6.729-15 15-15h422c8.271 0 15 6.729 15 15s-6.729 15-15 15z"/><path d="m450.252 160.176c.844-2.572 8.248-25.612 8.248-42.177s-7.403-39.604-8.246-42.17c-1.878-5.744-6.754-22.839-6.754-32.83 0-10.076 4.917-27.964 6.811-34.007-2.928-.92 10.603 3.331-28.621-8.992-.838 2.666-8.19 26.527-8.19 42.999 0 16.564 7.403 39.604 8.246 42.17 1.878 5.744 6.754 22.839 6.754 32.83s-4.876 27.086-6.752 32.823z"/></g></svg>