<svg id="Capa_1" enable-background="new 0 0 512 512" height="512" viewBox="0 0 512 512" width="512" xmlns="http://www.w3.org/2000/svg"><g><path d="m414.5 377c-13.189 0-25.497 3.817-35.904 10.383l-21.263-21.263c-13.782-13.781-32.724-19.929-51.969-16.849-19.246 3.073-35.333 14.808-44.137 32.196l-13.429 26.523c-4.377 8.642-13.112 14.01-22.798 14.01h-15v-128.5h30v-128.5c0-29.519-21.434-54.11-49.553-59.071 7.588-10.915 12.053-24.157 12.053-38.429 0-37.22-30.28-67.5-67.5-67.5s-67.5 30.28-67.5 67.5c0 14.272 4.465 27.514 12.053 38.429-28.119 4.961-49.553 29.552-49.553 59.071v128.5h30v218.5h150v-60h15c21.059 0 40.049-11.671 49.562-30.459l13.429-26.522c4.409-8.708 12.465-14.585 22.104-16.124 9.64-1.535 19.124 1.536 26.025 8.438l21.263 21.263c-6.566 10.407-10.383 22.715-10.383 35.904 0 37.22 30.28 67.5 67.5 67.5s67.5-30.28 67.5-67.5-30.28-67.5-67.5-67.5zm-279.5-347c20.678 0 37.5 16.822 37.5 37.5s-16.822 37.5-37.5 37.5-37.5-16.822-37.5-37.5 16.822-37.5 37.5-37.5zm-75 135c0-16.542 13.458-30 30-30h90c16.542 0 30 13.458 30 30v98.5h-150zm30 128.5h90v128.5h-30v-98.5h-30v158.5h-30zm90 188.5h-30v-30h30zm234.5 0c-20.678 0-37.5-16.822-37.5-37.5s16.822-37.5 37.5-37.5 37.5 16.822 37.5 37.5-16.822 37.5-37.5 37.5z"/></g></svg>