<svg id="Capa_1" enable-background="new 0 0 513.022 513.022" height="512" viewBox="0 0 513.022 513.022" width="512" xmlns="http://www.w3.org/2000/svg"><g id="XMLID_469_"><path id="XMLID_487_" d="m424.286 155.656v-79.394h-90.114l-77.661-76.262-77.661 76.262h-90.113v79.395l-69.99 67.725v289.641h475.529v-289.641zm32.809 73.494-32.809 28.529v-60.277zm-200.584-187.104 34.844 34.216h-69.687zm137.775 64.216v177.504l-24.476 21.283h-226.598l-24.476-21.283v-177.504zm-305.549 151.417-32.809-28.529 32.809-31.748zm-39.99 225.343v-220.36l83.247 72.387h249.035l83.247-72.387v220.361h-415.529z"/><path id="XMLID_508_" d="m256.511 283.262 63.063-68.801c10.712-11.687 14.668-27.808 10.582-43.123-3.842-14.406-14.017-25.765-27.915-31.162-13.899-5.396-29.073-3.882-41.63 4.155l-4.101 2.625-4.1-2.625c-12.559-8.038-27.731-9.551-41.631-4.155-13.898 5.397-24.073 16.756-27.915 31.161-4.086 15.316-.13 31.437 10.582 43.124zm-44.659-104.194c1.348-5.052 4.915-9.034 9.789-10.927 1.924-.747 3.918-1.117 5.897-1.117 3.034 0 6.035.868 8.7 2.574l20.272 12.975 20.273-12.975c4.402-2.818 9.725-3.349 14.597-1.457 4.874 1.893 8.441 5.875 9.789 10.928 1.433 5.37.045 11.022-3.711 15.121l-40.948 44.673-40.948-44.673c-3.755-4.098-5.143-9.751-3.71-15.122z"/><path id="XMLID_509_" d="m202.326 384.321h108.371v30h-108.371z"/></g></svg>