<svg id="Capa_1" enable-background="new 0 0 512 512" height="512" viewBox="0 0 512 512" width="512" xmlns="http://www.w3.org/2000/svg"><g><path d="m26.199 186.62h30v-28.665h127.194v28.665h30v-28.665h26.197v-89.84h-26.402l-29.049-68.115h-128.685l-29.05 68.115h-26.404v89.84h26.199zm3.801-88.505h179.59v29.84h-179.59zm45.274-68.115h89.044l16.255 38.115h-121.554z"/><path d="m30 332.955c0-39.149 31.851-71 71-71h310c55.691 0 101-45.309 101-101s-45.309-101-101-101h-130v30h130c39.149 0 71 31.851 71 71s-31.851 71-71 71h-310c-55.691 0-101 45.309-101 101s45.309 101 101 101h199v-30h-199c-39.149 0-71-31.851-71-71z"/><path d="m484.39 312.745c-15.77-13.85-36.91-21.79-57.99-21.79s-42.22 7.94-57.99 21.79c-17.81 15.63-27.61 37.64-27.61 61.97 0 21.15 13.01 47.82 38.68 79.27 18.1 22.19 35.98 38.79 36.73 39.48l10.19 9.42 10.19-9.42c.75-.69 18.63-17.29 36.73-39.48 25.67-31.45 38.68-58.12 38.68-79.27 0-24.33-9.8-46.34-27.61-61.97zm-57.99 8.21c27.33 0 55.6 20.11 55.6 53.76 0 22.8-30.85 61.66-55.6 86.82-24.75-25.16-55.6-64.02-55.6-86.82 0-33.65 28.27-53.76 55.6-53.76z"/><path d="m411.4 357.955h30v30h-30z"/></g></svg>