<svg id="Capa_1" enable-background="new 0 0 512.026 512.026" height="512" viewBox="0 0 512.026 512.026" width="512" xmlns="http://www.w3.org/2000/svg"><g><path d="m339.446 190.523-27.337 15.783c-10.583-11.93-24.892-20.481-41.095-23.784v-31.509h-30v31.509c-16.203 3.302-30.512 11.854-41.095 23.784l-27.337-15.783-15 25.98 27.307 15.766c-2.5 7.468-3.875 15.446-3.875 23.744s1.375 16.276 3.875 23.744l-27.307 15.766 15 25.98 27.337-15.783c10.583 11.93 24.892 20.481 41.095 23.784v31.509h30v-31.509c16.203-3.302 30.512-11.854 41.095-23.784l27.337 15.783 15-25.98-27.307-15.766c2.5-7.468 3.875-15.446 3.875-23.744s-1.375-16.276-3.875-23.744l27.307-15.766zm-83.433 110.49c-24.813 0-45-20.187-45-45s20.187-45 45-45 45 20.187 45 45-20.187 45-45 45z"/><path d="m241.013 241.013h30v30h-30z"/><path d="m460.763 307.65 51.213-51.213-51.213-51.213-21.213 21.213 15 15h-34.188c-3.018-34.311-16.574-65.642-37.414-90.722l28.071-28.071v21.214h30v-72.426h-72.426v30h21.213l-28.036 28.036c-25.054-20.973-56.401-34.654-90.757-37.765v-34.276l15 15 21.213-21.213-51.213-51.214-51.213 51.213 21.213 21.213 15-15v34.275c-34.356 3.111-65.703 16.792-90.757 37.765l-28.036-28.036h21.213v-30h-72.425v72.427h30v-21.214l28.071 28.071c-20.841 25.08-34.396 56.411-37.414 90.722h-34.188l15-15-21.213-21.213-51.214 51.214 51.213 51.213 21.213-21.213-15-15h34.264c3.185 34.19 16.841 65.383 37.728 90.333l-28.46 28.459v-21.214h-30v72.427h72.426v-30h-21.213l28.495-28.495c24.977 20.755 56.153 34.285 90.297 37.376v34.277l-15-15-21.213 21.213 51.213 51.213 51.213-51.213-21.213-21.213-15 15v-34.275c34.145-3.092 65.321-16.622 90.297-37.376l28.495 28.495h-21.213v30h72.426v-72.427h-30v21.214l-28.46-28.459c20.886-24.951 34.543-56.144 37.728-90.333h34.263l-15 15zm-204.75 83.363c-74.439 0-135-60.561-135-135s60.561-135 135-135 135 60.561 135 135-60.56 135-135 135z"/></g></svg>