<svg id="Capa_1" enable-background="new 0 0 510 510" height="512" viewBox="0 0 510 510" width="512" xmlns="http://www.w3.org/2000/svg"><g><path d="m272.247 357.753 45.713 76.188 76.189-198.09-198.091 76.189zm39.793 8.012-17.928-29.878-29.877-17.927 77.682-29.877z"/><path d="m120 180h30v30h-30z"/><path d="m120 60h30v90h-30z"/><path d="m315 120c-15.377 0-30.56 1.783-45.351 5.313-4.983-69.934-63.467-125.313-134.649-125.313-74.439 0-135 60.561-135 135 0 71.182 55.378 129.666 125.313 134.649-3.529 14.791-5.313 29.974-5.313 45.351 0 107.523 87.477 195 195 195s195-87.477 195-195-87.477-195-195-195zm-285 15c0-57.897 47.103-105 105-105 61.061 0 109.911 52.334 104.6 114.132-4.694 54.579-50.12 95.868-104.6 95.868-57.897 0-105-47.102-105-105zm285 345c-90.981 0-165-74.018-165-165 0-15.941 2.259-31.628 6.725-46.755 57.151-9.28 102.203-54.278 111.52-111.519 15.127-4.467 30.814-6.726 46.755-6.726 90.981 0 165 74.019 165 165 0 90.982-74.019 165-165 165z"/></g></svg>