<svg id="Layer_1" enable-background="new 0 0 510.157 510.157" height="512" viewBox="0 0 510.157 510.157" width="512" xmlns="http://www.w3.org/2000/svg"><g><path d="m397.782 120h-285.439l-86.271 120.779 227.935 269.378 230.078-269.332zm-218.572 105 53.571-75h44.561l53.571 75zm158.091 30-83.108 193.658-81.539-193.658zm-197.199 0 62.101 147.49-124.799-147.49zm229.846 0h62.572l-125.741 147.195zm65.966-30h-68.132l-53.571-75h68.132zm-308.133-75h68.133l-53.571 75h-68.133z"/><path d="m449.062 390h-30v30h-30v30h30v30h30v-30h30v-30h-30z"/><path d="m89.062 390h-30v30h-30v30h30v30h30v-30h30v-30h-30z"/><path d="m239.062 0h30v48.64h-30z"/><path d="m308.915 38.787h60.001v30h-60.001z" transform="matrix(.707 -.707 .707 .707 61.233 255.403)"/><path d="m154.209 23.787h30v60h-30z" transform="matrix(.707 -.707 .707 .707 11.527 135.402)"/></g></svg>