<?xml version="1.0" encoding="iso-8859-1"?>
<!-- Generator: Adobe Illustrator 19.0.0, SVG Export Plug-In . SVG Version: 6.00 Build 0)  -->
<svg version="1.1" id="Layer_1" xmlns="http://www.w3.org/2000/svg" xmlns:xlink="http://www.w3.org/1999/xlink" x="0px" y="0px"
	 viewBox="0 0 512 512" style="enable-background:new 0 0 512 512;" xml:space="preserve">
<g>
	<g>
		<path d="M406.857,44.735V0.327H375.51v44.408H271.673V0.327h-31.347v44.408H136.49V0.327h-31.347v44.408H0v466.939h512V44.735
			H406.857z M480.653,480.327H31.347V181.225h449.306V480.327z M480.653,149.878H31.347V76.082h73.796v29.388h31.347V76.082h103.837
			v29.388h31.347V76.082H375.51v29.388h31.347V76.082h73.796V149.878z"/>
	</g>
</g>
<g>
	<g>
		<path d="M356.837,345.845l8.612-30.141l-93.775-26.792v-48.26c0-8.656-7.018-15.673-15.673-15.673
			c-8.656,0-15.673,7.018-15.673,15.673v48.26l-93.775,26.793l8.612,30.141l85.163-24.333v74.687l-33.694,9.627l8.612,30.141
			L256,424.324l40.755,11.644l8.612-30.141l-33.694-9.627v-74.687L356.837,345.845z"/>
	</g>
</g>
<g>
</g>
<g>
</g>
<g>
</g>
<g>
</g>
<g>
</g>
<g>
</g>
<g>
</g>
<g>
</g>
<g>
</g>
<g>
</g>
<g>
</g>
<g>
</g>
<g>
</g>
<g>
</g>
<g>
</g>
</svg>
