<svg id="Capa_1" enable-background="new 0 0 512 512" height="512" viewBox="0 0 512 512" width="512" xmlns="http://www.w3.org/2000/svg"><g><path d="m406.161 239.036-79.654 21.154 23.975-109.16-42.323-38.039 65.39-85.193-17.837-7.569c-31.626-13.423-65.219-20.229-99.845-20.229-68.345 0-132.599 26.629-180.926 74.98-48.326 48.353-74.941 112.64-74.941 181.02s26.615 132.667 74.941 181.02c48.327 48.351 112.581 74.98 180.926 74.98 48.401 0 95.527-13.589 136.284-39.299 39.641-25.007 71.67-60.347 92.622-102.201l7.201-14.384-107.664-44.839zm-150.294-209.036c23.957 0 47.342 3.684 69.764 10.974l-58.161 75.773 49.49 44.48h-182.019l-45.596 45.62h-53.98c22.488-101.062 112.816-176.847 220.502-176.847zm0 452c-79.545 0-149.618-41.351-189.874-103.696h202.991l51.593 55.62h74.893c-38.986 30.687-87.726 48.076-139.603 48.076zm194.377-110.768c-6.913 11.695-14.766 22.617-23.437 32.691h-93.149l-51.593-55.62h-232.374c-12.661-28.196-19.707-59.442-19.707-92.303 0-6.45.272-12.838.804-19.152h70.978l45.596-45.62h163.592l-24.288 110.582 75.222-19.977-14.131 46.716z"/><path d="m393.3 202.841 118.7-149.086-101.171-17.718-43.25 54.296zm29.886-134.183 33.888 5.935-48.43 60.826-8.617-37.689z"/><path d="m457.372 239.871h29.991v82.257h-29.991z" transform="matrix(.717 -.697 .697 .717 -62.148 409.003)"/><path d="m450.226 166.568h59.149v29.993h-59.149z" transform="matrix(.742 -.67 .67 .742 1.966 368.241)"/><path d="m87.05 277.575h29.983v30h-29.983z"/><path d="m151.972 95.695h29.983v30h-29.983z"/><path d="m183.348 408.521h29.983v30h-29.983z"/></g></svg>