<svg id="Layer_1" enable-background="new 0 0 510 510" height="512" viewBox="0 0 510 510" width="512" xmlns="http://www.w3.org/2000/svg"><g><path d="m105 255c0 82.71 67.29 150 150 150s150-67.29 150-150-67.29-150-150-150-150 67.29-150 150zm269.064-15h-29.064v30h29.064c-6.789 54.199-49.865 97.275-104.064 104.065v-29.065h-30v29.065c-54.2-6.789-97.275-49.865-104.064-104.065h29.064v-30h-29.064c6.789-54.199 49.864-97.275 104.064-104.064v29.064h30v-29.064c54.199 6.789 97.275 49.865 104.064 104.064z"/><path d="m270 195h-30v68.027l51.68 34.453 16.64-24.96-38.32-25.547z"/><path d="m459.348 102.436 41.591 2.537 1.826-29.945-92.02-5.613-5.711 84.504 29.932 2.023 2.229-32.984c27.763 38.206 42.805 84.135 42.805 132.042 0 124.065-100.935 225-225 225s-225-100.935-225-225 100.935-225 225-225v-30c-140.929 0-255 114.049-255 255 0 140.929 114.049 255 255 255 140.93 0 255-114.049 255-255 0-55.516-17.815-108.694-50.652-152.564z"/></g></svg>