<svg id="Capa_1" enable-background="new 0 0 512 512" height="512" viewBox="0 0 512 512" width="512" xmlns="http://www.w3.org/2000/svg"><g><path d="m106.645 289.247c0 26.267 9.004 52.02 25.354 72.515 13.513 16.94 31.63 29.802 51.866 37.059 7.396 33.017 36.92 57.772 72.136 57.772 34.936 0 64.269-24.364 71.954-56.986 21.085-7.077 39.993-20.222 53.994-37.726 16.41-20.517 25.447-46.312 25.447-72.633v-15h-300.751zm149.355 137.346c-24.228 0-43.938-19.71-43.938-43.938v-78.409h28.938v63.035h30v-63.035h28.938v78.409c0 24.228-19.71 43.938-43.938 43.938zm102.52-83.451c-7.777 9.724-17.591 17.623-28.582 23.193v-62.088h46.179c-2.458 14.18-8.42 27.42-17.597 38.895zm-176.458-38.895v61.113c-23.207-12.421-39.565-34.884-44.128-61.113z"/><path d="m437.02 74.98c-48.353-48.351-112.64-74.98-181.02-74.98s-132.667 26.629-181.02 74.98c-48.351 48.353-74.98 112.64-74.98 181.02s26.629 132.667 74.98 181.02c48.353 48.351 112.64 74.98 181.02 74.98s132.667-26.629 181.02-74.98c48.351-48.353 74.98-112.64 74.98-181.02s-26.629-132.667-74.98-181.02zm-21.214 340.826c-42.686 42.686-99.439 66.194-159.806 66.194s-117.12-23.508-159.806-66.194-66.194-99.439-66.194-159.806 23.508-117.12 66.194-159.806 99.439-66.194 159.806-66.194 117.12 23.508 159.806 66.194 66.194 99.439 66.194 159.806-23.508 117.12-66.194 159.806z"/><path d="m325.52 245.668c41.995 0 76.16-34.166 76.16-76.16s-34.165-76.16-76.16-76.16-76.16 34.165-76.16 76.16 34.164 76.16 76.16 76.16zm0-122.32c25.453 0 46.16 20.707 46.16 46.16s-20.707 46.16-46.16 46.16-46.16-20.708-46.16-46.16 20.706-46.16 46.16-46.16z"/><path d="m166.403 195.863c16.408 0 29.758 13.35 29.758 29.758h30c0-32.951-26.808-59.758-59.758-59.758-32.951 0-59.759 26.808-59.759 59.758h30c.001-16.408 13.35-29.758 29.759-29.758z"/><path d="m310.519 154.508h30.002v30h-30.002z"/></g></svg>