<?xml version="1.0" encoding="iso-8859-1"?>
<!-- Generator: Adobe Illustrator 19.0.0, SVG Export Plug-In . SVG Version: 6.00 Build 0)  -->
<svg xmlns="http://www.w3.org/2000/svg" xmlns:xlink="http://www.w3.org/1999/xlink" version="1.1" id="Capa_1" x="0px" y="0px" viewBox="0 0 512 512" style="enable-background:new 0 0 512 512;" xml:space="preserve">
<g>
	<g>
		<path d="M366.844,169.371l-65.718,113.827L190.282,91.21L0,420.79h354.531h26.033H512L366.844,169.371z M366.842,229.493    l14.229,24.643l-0.069-0.051l-14.043,10.379l-14.045-10.381l-0.469,0.347L366.842,229.493z M190.284,151.335l29.535,51.156    l-10.062-7.436l-18.979,14.029l-18.981-14.029l-11.787,8.717L190.284,151.335z M52.067,390.73L52.067,390.73l88.517-153.315    l12.244,9.05l18.974-14.028l18.977,14.027l18.979-14.029l18.982,14.029l11.542-8.53l88.217,152.796H52.067z M363.209,390.729    l-44.727-77.47l10.72-18.567l9.681,7.156l14.038-10.38l14.042,10.378l14.044-10.38l14.044,10.379l9.51-7.028l55.372,95.913    H363.209z"/>
	</g>
</g>
<g>
</g>
<g>
</g>
<g>
</g>
<g>
</g>
<g>
</g>
<g>
</g>
<g>
</g>
<g>
</g>
<g>
</g>
<g>
</g>
<g>
</g>
<g>
</g>
<g>
</g>
<g>
</g>
<g>
</g>
</svg>
