<svg id="Capa_1" enable-background="new 0 0 512 512" height="512" viewBox="0 0 512 512" width="512" xmlns="http://www.w3.org/2000/svg"><g><path d="m466.875 120.5h-75.375v-60.25h-391.5v316.25c0 41.493 33.757 75.25 75.25 75.25h361.5c41.493 0 75.25-33.757 75.25-75.25v-210.875c0-24.882-20.243-45.125-45.125-45.125zm-391.625 301.25c-24.951 0-45.25-20.299-45.25-45.25v-286.25h331.5v286.25c0 16.971 5.647 32.647 15.161 45.25zm406.75-45.25c0 24.951-20.299 45.25-45.25 45.25s-45.25-20.299-45.25-45.25v-226h32.866c-1.689 4.731-2.616 9.821-2.616 15.125v210.875h30v-210.875c0-8.34 6.785-15.125 15.125-15.125s15.125 6.785 15.125 15.125z"/><path d="m60.25 210.75h120.375v-90.25h-120.375zm30-60.25h60.375v30.25h-60.375z"/><path d="m60.25 241h120.375v30h-120.375z"/><path d="m60.25 301.25h120.375v30h-120.375z"/><path d="m60.25 361.5h120.375v30h-120.375z"/><path d="m210.875 120.5h120.375v30h-120.375z"/><path d="m210.875 180.75h120.375v30h-120.375z"/><path d="m210.875 241h120.375v30h-120.375z"/><path d="m210.875 301.25h120.375v30h-120.375z"/><path d="m210.875 361.5h30v30h-30z"/></g></svg>