<svg id="Capa_1" enable-background="new 0 0 509.363 509.363" height="512" viewBox="0 0 509.363 509.363" width="512" xmlns="http://www.w3.org/2000/svg"><g id="XMLID_517_"><path id="XMLID_534_" d="m435.363 108.398h-72.32v-82.487h-224.093v82.487h-64.95c-40.804 0-74 33.196-74 74v301.054h509.363v-301.054c0-40.804-33.196-74-74-74zm-266.413-52.487h164.093v52.487h-164.093zm310.413 397.541h-449.363v-230.974h49.712v63.333h97.7v-63.333h154.539v63.333h97.7v-63.333h49.712zm-369.651-230.974h37.7v33.333h-37.7zm252.239 0h37.7v33.333h-37.7zm-331.951-30v-10.08c0-24.262 19.738-44 44-44h361.363c24.262 0 44 19.738 44 44v10.08z"/><path id="XMLID_1332_" d="m265.859 298.109h-30v34.684h-34.682v30h34.682v34.683h30v-34.683h34.684v-30h-34.684z"/></g></svg>