<svg id="Capa_1" enable-background="new 0 0 512 512" height="512" viewBox="0 0 512 512" width="512" xmlns="http://www.w3.org/2000/svg"><g><path d="m455.764 174.449c-36.558-35.331-86.321-54.788-140.122-54.788h-251.677c.484-16.121 13.74-29.089 29.977-29.089h130.67c32.785 0 59.458-26.673 59.458-59.458v-13.532h-30v13.532c0 16.243-13.215 29.458-29.458 29.458h-9.389c4.98-8.691 7.843-18.744 7.843-29.458v-13.532h-30v13.532c0 16.243-13.215 29.458-29.458 29.458h-69.667c-32.779 0-59.486 26.425-59.977 59.089h-33.964v30h35.113c3.265 26.693 15.221 51.407 34.48 70.77 22.822 22.947 53.214 35.681 85.577 35.856l67.781.368v66.439c0 24.505 19.936 44.441 44.44 44.441h12.304v-30h-12.304c-7.963 0-14.44-6.478-14.44-14.441v-66.276l30.004.163v22.246c0 24.504 19.936 44.44 44.44 44.44h12.304v-30h-12.304c-7.963 0-14.44-6.478-14.44-14.44v-21.122c36.113 5.972 63.799 37.484 63.799 75.199 0 42.032-34.195 76.227-76.227 76.227h-97.007v-4.217c0-42.888-34.892-77.78-77.779-77.78h-16.551v72.562h-72.563v16.55c0 42.883 34.892 77.771 77.78 77.771h209.923c50.151 0 97.271-19.409 132.678-54.651 35.462-35.296 54.992-82.329 54.992-132.435 0-50.644-19.972-97.836-56.236-132.882zm26.236 132.882c0 3.679-.133 7.338-.382 10.973h-75.933c-2.953-20.712-11.923-39.542-25.081-54.645l56.992-64.982c28.664 29.05 44.404 67.484 44.404 108.654zm-67.415-127.915-56.651 64.593c-16.42-10.608-35.926-16.818-56.832-16.931l-16.002-.087v-77.33h30.541c36.587 0 70.874 10.435 98.944 29.755zm-349.143-29.755h94.667v27.593h30v-27.593h64.991v77.168l-99.769-.541c-45.142-.245-82.717-33.447-89.889-76.627zm189.659 289.87v24.887h-51.581v-24.887zm-81.581-34.217v7.781c-9.883-6.998-21.623-11.53-34.33-12.689v-40.945c19.818 5.823 34.33 24.176 34.33 45.853zm-59.113 59.104c-21.677 0-40.028-14.508-45.853-34.321h64.152c20.296 0 37.179 14.891 40.297 34.321zm170.694 0v-24.887h15.427c20.936 0 40.476-6.091 56.944-16.59l24.229 30.833c-18.035 6.986-37.415 10.644-57.37 10.644zm150.744-45.914c-8.239 8.201-17.237 15.376-26.833 21.472l-28.741-36.575c13.349-15.168 22.447-34.159 25.419-55.097h70.937c-7.065 26.341-20.95 50.461-40.782 70.2z"/></g></svg>