<svg id="Capa_1" enable-background="new 0 0 512 512" height="512" viewBox="0 0 512 512" width="512" xmlns="http://www.w3.org/2000/svg"><g><path d="m346.522 90.375 6.056-36.337 58.065-26.8-12.57-27.238-72.477 33.45-9.487 56.925h-97.262c-8.551-34.92-40.096-60.915-77.614-60.915-44.065 0-79.915 35.85-79.915 79.915 0 38.329 27.128 70.429 63.189 78.14l24.961 324.485h268.781l32.433-421.625zm71.763 30-4.821 62.669c-12.198 3.07-17.522 11.611-31.868 11.634-19.916-1.01-24.148-14.871-50.153-13.833l10.078-60.471h76.764zm-118.869 70.156c-4.654 2.603-8.072 4.148-15.565 4.148-19.992-.986-22.968-14.358-48.871-13.857-26.085-.53-27.997 12.536-48.869 13.857-10.624.188-16.285-4.988-23.353-8.358 30.208-8.463 53.23-34.259 57.613-65.946h90.736zm-149.985-70.156h40.48c-4.218 18.673-18.924 33.403-37.583 37.657zm-58.112-11c0-27.523 22.392-49.915 49.915-49.915 20.798 0 38.658 12.79 46.148 30.915h-70.346l5.006 65.072c-18.025-7.536-30.723-25.347-30.723-46.072zm85.93 372.625-20.365-264.741c6.572 3.61 15.001 7.419 29.228 7.419 26.085.53 27.997-12.536 48.869-13.857 19.992.986 22.968 14.358 48.871 13.857 26.085.53 27.997-12.536 48.869-13.857 19.995.986 22.97 14.358 48.876 13.857 14.232 0 22.663-3.812 29.236-7.423l-20.365 264.745z"/><path d="m208.608 391.625h30v30h-30z"/><path d="m208.608 331.375h30v30h-30z"/><path d="m208.608 271.125h30v30h-30z"/><path d="m268.858 361.5h30v30h-30z"/><path d="m268.858 421.75h30v30h-30z"/></g></svg>