<svg id="Capa_1" enable-background="new 0 0 512 512" height="512" viewBox="0 0 512 512" width="512" xmlns="http://www.w3.org/2000/svg"><g><path d="m421.915 152.217c-3.199-18.89-12.226-36.233-26.177-49.907-13.777-13.502-31.029-22.042-49.626-24.76-2.828-19.086-11.62-36.707-25.477-50.654-17.231-17.344-40.185-26.896-64.635-26.896s-47.404 9.552-64.635 26.896c-13.856 13.947-22.649 31.568-25.477 50.654-18.595 2.719-35.85 11.259-49.626 24.76-13.951 13.674-22.978 31.018-26.177 49.907-49.767.549-90.085 41.203-90.085 91.098v148.401h30v-85.066c14.153 11.632 32.255 18.626 51.961 18.626h4.409v51.724 74.717h30v-32.297c4.695 1.665 9.742 2.58 15 2.58 24.813 0 45-20.187 45-45v-51.723h30v111.723c0 24.813-20.187 45-45 45h-161.37v30h512v-30h-160.63c-24.813 0-45-20.187-45-45v-17.58c4.695 1.665 9.742 2.58 15 2.58 5.857 0 11.449-1.136 16.586-3.181 5.205 19.097 22.691 33.181 43.414 33.181 24.813 0 45-20.187 45-45v-81.723h3.668c19.707 0 37.809-6.994 51.961-18.626v115.066h30v-178.402c.001-49.894-40.316-90.549-90.084-91.098zm-275.545 224.783c0 8.271-6.729 15-15 15s-15-6.729-15-15v-51.723h30zm74.959 105c9.438-12.544 15.041-28.129 15.041-45v-111.723h40v51.723 60c0 16.871 5.603 32.456 15.041 45zm100.041-90c-8.271 0-15-6.729-15-15v-51.723h30v51.723c0 8.271-6.729 15-15 15zm75 15c0 8.271-6.729 15-15 15s-15-6.729-15-15v-30-51.723h30zm33.669-111.723h-348.078c-28.651 0-51.961-23.309-51.961-51.962 0-33.693 27.412-61.104 61.105-61.104h27.581l.101-14.898c.112-16.535 6.673-32.011 18.474-43.577 11.48-11.254 26.538-17.37 42.435-17.121l15.3.204-.101-15.302c-.107-16.406 6.197-31.847 17.752-43.478 11.558-11.633 26.954-18.039 43.353-18.039s31.795 6.406 43.352 18.039c11.555 11.631 17.859 27.071 17.752 43.478l-.101 15.302 15.3-.204c15.872-.233 30.954 5.868 42.435 17.121 11.801 11.566 18.362 27.042 18.474 43.577l.101 14.898h27.581c33.694 0 61.105 27.412 61.105 61.105.001 28.652-23.309 51.961-51.96 51.961z"/><path d="m241 103.984h30v30h-30z"/><path d="m241 223.984h30v30h-30z"/><path d="m171 163.984h30v30h-30z"/><path d="m311 163.984h30v30h-30z"/></g></svg>