<svg id="Capa_1" enable-background="new 0 0 512 512" height="512" viewBox="0 0 512 512" width="512" xmlns="http://www.w3.org/2000/svg"><g><path d="m366.08 137.298c-16.445-12.247-39.601-31.015-65.74-61.422 4.174-7.383 6.569-15.899 6.569-24.968 0-28.071-22.838-50.908-50.91-50.908s-50.908 22.837-50.908 50.908c0 9.069 2.395 17.585 6.569 24.968-26.139 30.405-49.295 49.174-65.74 61.422-49.846 37.121-69.266 74.003-69.266 131.545v242.157 1h358.69v-1-242.156c.001-57.543-19.419-94.425-69.264-131.546zm39.265 343.702h-298.69v-30h298.69zm0-60h-298.69v-152.156c0-35.602 8.273-60.278 29.839-83.508h54.647v71.398c-13.859 17.586-21.384 39.169-21.384 61.89v36.712h-24.423v30h221.333v-30h-81.807c9.436-11.133 16.057-24.724 18.74-39.666h38.645v-24.54c0-19.419-7.595-37.685-21.384-51.47v-54.325h54.647c21.565 23.23 29.838 47.906 29.838 83.508v152.157zm-128.436-370.092c0 11.529-9.38 20.909-20.909 20.909s-20.908-9.379-20.908-20.909c0-11.529 9.379-20.908 20.908-20.908s20.909 9.379 20.909 20.908zm-43.451 45.63c6.8 3.373 14.451 5.279 22.542 5.279s15.742-1.906 22.542-5.279c23.67 27.375 45.063 45.876 61.699 58.798h-168.481c16.635-12.923 38.029-31.425 61.698-58.798zm78.44 189.132h-36.969v15c0 30.143-24.523 54.666-54.666 54.666h-20.507v-36.712c0-38.454 31.278-69.955 69.724-70.22 11.315-.078 21.962 4.313 30.067 12.363 6.872 6.825 11.153 15.517 12.351 24.903zm-21.038-64.119c-6.912-2.114-14.169-3.194-21.587-3.145-17.126.118-33.577 4.514-48.133 12.66v-45.73h69.72z"/></g></svg>