<svg id="Capa_1" enable-background="new 0 0 512.611 512.611" height="512" viewBox="0 0 512.611 512.611" width="512" xmlns="http://www.w3.org/2000/svg"><g><path d="m309.059 189.109h72.025l27.499 27.499 21.213-21.213-21.286-21.286 21.286-21.286-21.213-21.213-27.499 27.499h-72.025c-1.152-4.013-2.746-7.84-4.739-11.418l32.049-32.049h29.666v-30h-20.879v-20.879h-30v29.666l-32.049 32.049c-3.579-1.993-7.405-3.587-11.418-4.739v-72.025l27.499-27.499-21.213-21.213-21.286 21.286-21.286-21.286-21.213 21.213 27.499 27.499v72.025c-4.013 1.152-7.84 2.746-11.418 4.739l-32.049-32.049v-29.666h-30v20.879h-20.879v30h29.666l32.049 32.049c-1.993 3.579-3.587 7.405-4.739 11.418h-72.025l-27.499-27.499-21.213 21.213 21.286 21.286-21.286 21.286 21.213 21.213 27.499-27.499h72.025c1.152 4.013 2.746 7.84 4.739 11.418l-32.049 32.049h-29.666v30h20.879v20.879h30v-29.666l32.049-32.049c3.579 1.993 7.405 3.587 11.418 4.739v72.025l-27.499 27.499 21.213 21.213 21.286-21.286 21.286 21.286 21.213-21.213-27.499-27.499v-72.025c4.013-1.152 7.84-2.746 11.418-4.739l32.049 32.049v29.666h30v-20.879h20.879v-30h-29.666l-32.049-32.049c1.993-3.579 3.588-7.405 4.739-11.418zm-76.856-15c0-13.502 10.984-24.486 24.486-24.486 32.484 1.345 32.475 47.633 0 48.973-13.502-.001-24.486-10.985-24.486-24.487z"/><path d="m269.059 392.896-9.37-7.497c-10.995 9.215-49.041 36.056-50.845 75.366.001 28.036 22.809 50.844 50.845 50.844s50.844-22.809 50.844-50.844c0-33.716-37.228-64.473-41.474-67.869zm-9.37 88.713c-11.493 0-20.844-9.351-20.844-20.844-.644-9.289 10.966-26.281 20.844-35.775 9.886 9.506 21.485 26.48 20.843 35.776.001 11.492-9.35 20.843-20.843 20.843z"/><path d="m60.216 311.896-9.37-7.496c-10.996 9.213-49.043 36.054-50.846 75.365.001 28.036 22.809 50.844 50.846 50.844 28.035 0 50.844-22.809 50.844-50.844-.001-33.716-37.229-64.473-41.474-67.869zm-9.37 88.713c-11.494 0-20.845-9.351-20.845-20.844-.644-9.289 10.967-26.283 20.845-35.775 9.886 9.506 21.485 26.48 20.843 35.776 0 11.492-9.35 20.843-20.843 20.843z"/><path d="m471.138 312.818-9.37-7.496c-10.995 9.213-49.042 36.054-50.846 75.365.001 28.036 22.809 50.844 50.846 50.844 28.035 0 50.844-22.809 50.844-50.844-.001-33.716-37.229-64.473-41.474-67.869zm-9.371 88.713c-11.494 0-20.845-9.351-20.845-20.844-.644-9.289 10.967-26.283 20.845-35.775 9.886 9.506 21.485 26.48 20.843 35.776.001 11.492-9.349 20.843-20.843 20.843z"/></g></svg>