<svg id="Layer_1" enable-background="new 0 0 509.943 509.943" height="512" viewBox="0 0 509.943 509.943" width="512" xmlns="http://www.w3.org/2000/svg"><path d="m496.784 13.159c-17.545-17.545-46.094-17.545-63.639 0l-103.622 103.621c-6.84 6.84-15.934 10.605-25.607 10.605-17.686 0-34.314 6.889-46.82 19.395l-235.164 235.165c-29.243 29.242-29.243 76.823 0 106.065 29.242 29.244 76.823 29.244 106.065 0l235.165-235.164c12.506-12.506 19.394-29.134 19.394-46.82 0-9.674 3.767-18.768 10.606-25.607l103.622-103.621c17.546-17.545 17.546-46.094 0-63.639zm-453.639 453.639c-17.545-17.545-17.545-46.094 0-63.64l63.64 63.64c-17.546 17.545-46.094 17.545-63.64 0zm328.805-307.592c-12.506 12.507-19.393 29.135-19.393 46.82 0 9.672-3.767 18.768-10.607 25.607l-213.953 213.952-63.64-63.64 21.213-21.214 31.821 31.82 21.213-21.213-31.821-31.82 21.214-21.213 31.82 31.82 21.213-21.213-31.82-31.82 21.213-21.214 31.82 31.819 21.213-21.212-31.82-31.821 21.213-21.213 31.82 31.82 21.214-21.213-31.821-31.82 44.247-44.246c6.84-6.84 15.935-10.607 25.607-10.607 17.686 0 34.314-6.887 46.819-19.393l62.39-62.389 21.213 21.213zm103.621-103.621-20.02 20.02-21.213-21.213 20.019-20.02c5.85-5.848 15.363-5.848 21.213 0s5.85 15.364.001 21.213z"/></svg>