<svg id="Capa_1" enable-background="new 0 0 512 512" height="512" viewBox="0 0 512 512" width="512" xmlns="http://www.w3.org/2000/svg"><g><path d="m100 0v512h312v-512zm207.66 30-8.5 30h-86.318l-8.5-30zm-134.5 0 17 60h131.682l17-60h43.158v392h-252v-392zm-43.16 452v-30h252v30z"/><path d="m201.884 349h42.408l11.74-37.188 11.651 37.188h42.434c3.104-6.937 54.26-133.866 12.729-175.378-7.873-7.764-18.296-11.763-30.081-11.617-16.486.229-25.898 7.784-33.764 15.308h-6.002c-7.865-7.523-17.277-15.078-33.763-15.308-11.844-.168-22.208 3.853-30.081 11.617-41.503 41.489 9.554 168.257 12.729 175.378zm8.337-154.018c1.33-1.415 4.055-3.111 8.599-2.979 6.154.085 8.374 2.012 15.886 9.362l6.116 5.947h30.357l6.116-5.947c7.512-7.351 9.731-9.277 15.887-9.362 4.547-.126 7.263 1.561 8.598 2.98 20.125 24.172-7.187 110.045-12.138 123.763l-7.216-23.03v-.001c-8.136-25.699-44.569-25.721-52.753-.056 0 0-7.301 23.126-7.301 23.126-4.887-13.459-32.301-99.713-12.151-123.803z"/></g></svg>