<?xml version="1.0" encoding="iso-8859-1"?>
<!-- Generator: Adobe Illustrator 19.0.0, SVG Export Plug-In . SVG Version: 6.00 Build 0)  -->
<svg xmlns="http://www.w3.org/2000/svg" xmlns:xlink="http://www.w3.org/1999/xlink" version="1.1" id="Layer_1" x="0px" y="0px" viewBox="0 0 512 512" style="enable-background:new 0 0 512 512;" xml:space="preserve">
<g>
	<g>
		<circle cx="293.832" cy="66.783" r="33.391"/>
	</g>
</g>
<g>
	<g>
		<path d="M465.41,74.655l-19.676-19.676l-82.639,82.639c-12.404,12.404-28.895,19.233-46.436,19.233    c-17.54,0-34.031-6.831-46.435-19.233L211.195,78.59L108.261,181.524H38.377v33.391h83.715l18.271-18.272l23.612,23.612    l-30.527,30.527H63.563v33.391h83.715l112.147-112.147c15.015,10.677,32.637,16.914,51.243,18.017l-97.111,97.111l78.704,78.703    L465.41,192.71C497.958,160.161,497.958,107.203,465.41,74.655z M187.586,196.645l-23.612-23.612l47.223-47.223l23.612,23.612    L187.586,196.645z M441.8,169.098L292.262,318.635l-31.482-31.481l184.738-184.737C461.237,122.063,459.999,150.9,441.8,169.098z"/>
	</g>
</g>
<g>
	<g>
		<path d="M464.696,397.913h-33.391c0,26.084-21.22,47.304-47.304,47.304s-47.304-21.22-47.304-47.304h-33.391    c0,26.084-21.22,47.304-47.304,47.304s-47.304-21.22-47.304-47.304h-33.391c0,26.084-21.22,47.304-47.304,47.304    s-47.304-21.22-47.304-47.304H47.304c0,26.084-21.22,47.304-47.304,47.304v33.391c26.04,0,49.234-12.395,64-31.597    c14.766,19.202,37.96,31.597,64,31.597c26.04,0,49.234-12.395,64-31.597c14.766,19.202,37.96,31.597,64,31.597    s49.234-12.395,64-31.597c14.766,19.202,37.96,31.597,64,31.597s49.234-12.395,64-31.597c14.766,19.202,37.96,31.597,64,31.597    v-33.391C485.916,445.217,464.696,423.997,464.696,397.913z"/>
	</g>
</g>
<g>
</g>
<g>
</g>
<g>
</g>
<g>
</g>
<g>
</g>
<g>
</g>
<g>
</g>
<g>
</g>
<g>
</g>
<g>
</g>
<g>
</g>
<g>
</g>
<g>
</g>
<g>
</g>
<g>
</g>
</svg>
