<svg id="Capa_1" enable-background="new 0 0 512 512" height="512" viewBox="0 0 512 512" width="512" xmlns="http://www.w3.org/2000/svg"><g><path d="m281.081 180.75h92.252v30h-92.252z"/><path d="m281.081 241h92.252v30h-92.252z"/><path d="m146.523 269.96 11.35-6.553c5.614 5.332 12.431 9.407 20.007 11.749v12.907h30v-12.907c7.576-2.342 14.393-6.417 20.007-11.749l11.35 6.553 15-25.98-11.622-6.71c.747-3.464 1.151-7.055 1.151-10.74 0-4.096-.5-8.076-1.418-11.894l11.89-6.865-15-25.98-12.208 7.048c-5.444-4.937-11.959-8.712-19.149-10.935v-14.217h-30v14.217c-7.19 2.223-13.705 5.998-19.149 10.935l-12.208-7.048-15 25.98 11.89 6.865c-.918 3.819-1.418 7.798-1.418 11.894 0 3.685.403 7.275 1.151 10.74l-11.622 6.71zm46.357-64.315c11.516 0 20.885 9.369 20.885 20.885 0 11.517-9.369 20.886-20.885 20.886s-20.885-9.369-20.885-20.886c0-11.516 9.369-20.885 20.885-20.885z"/><path d="m138.583 361.503h234.75v30h-234.75z"/><path d="m138.583 301.25h234.75v30h-234.75z"/><path d="m138.583 421.753h165.134v30h-165.134z"/><path d="m346.312 60.253v-30.128h-38.016l-12-30.125h-80.593l-12 30.125h-38.016v30.128h-87.354v451.747h355.335v-451.747zm-150.624-.128h28.359l12-30.125h39.907l12 30.125h28.359v30.25h-120.625zm207.979 421.875h-295.334v-391.747h57.355v30.122h180.625v-30.122h57.355v391.747z"/></g></svg>