<svg id="Capa_1" enable-background="new 0 0 512 512" height="512" viewBox="0 0 512 512" width="512" xmlns="http://www.w3.org/2000/svg"><g><path d="m406.5 240.667v-60h105.5v-180.667h-241v180.667h105.5v30h-241v-30h105.5v-180.667h-241v180.667h105.5v60h135.5v30h-150.5v211.333h-30v30h391v-30h-30v-211.333h-150.5v-30zm43.681-210.667-58.681 41.901-58.681-41.901zm-149.181 14.142 90.5 64.623 90.5-64.623v106.525h-181zm-121.819-14.142-58.681 41.901-58.681-41.901zm-149.181 14.142 90.5 64.623 90.5-64.623v106.525h-181zm361.5 437.858h-271v-181.333h271z"/><path d="m150.5 330.667h90.5v30h-90.5z"/><path d="m150.5 390.667h90.5v30h-90.5z"/><path d="m271 330.667h90.5v30h-90.5z"/><path d="m271 390.667h90.5v30h-90.5z"/></g></svg>