<svg id="Capa_1" enable-background="new 0 0 512 512" height="512" viewBox="0 0 512 512" width="512" xmlns="http://www.w3.org/2000/svg"><g><path d="m256 77.46c-112.4 0-223.34 67.53-256 178.54 32.69 111.05 143.6 178.54 256 178.54s223.31-67.49 256-178.54c-32.66-111.01-143.6-178.54-256-178.54zm-224.58 178.54c26.1-78.59 102.63-135.61 193.28-146.6-67.42 14.7-118.06 74.84-118.06 146.6s50.64 131.9 118.06 146.6c-90.65-10.99-167.18-68.01-193.28-146.6zm105.22 0c0-66.19 53.17-120.04 119.36-120.04s119.36 53.85 119.36 120.04-53.17 120.04-119.36 120.04-119.36-53.85-119.36-120.04zm150.66 146.6c67.42-14.7 118.06-74.84 118.06-146.6s-50.64-131.9-118.06-146.6c90.65 10.99 167.18 68.01 193.28 146.6-26.1 78.59-102.63 135.61-193.28 146.6z"/><path d="m256 165.96c-49.65 0-89.36 40.39-89.36 90.04s39.71 90.04 89.36 90.04 89.36-40.39 89.36-90.04-39.71-90.04-89.36-90.04zm0 150.08c-33.11 0-59.36-26.93-59.36-60.04s26.25-60.04 59.36-60.04 59.36 26.93 59.36 60.04-26.25 60.04-59.36 60.04z"/></g></svg>