<svg id="Capa_1" enable-background="new 0 0 512 512" height="512" viewBox="0 0 512 512" width="512" xmlns="http://www.w3.org/2000/svg"><g><path d="m437.019 74.981c-48.352-48.353-112.639-74.981-181.019-74.981s-132.667 26.628-181.019 74.981c-48.353 48.352-74.981 112.639-74.981 181.019 0 63.745 23.15 123.927 65.458 170.964-11.923 13.817-15.459 25.559-18.368 35.225-2.935 9.755-5.253 17.46-16.292 28.5l21.213 21.213c16.378-16.378 20.498-30.069 23.808-41.069 2.393-7.956 4.381-14.549 11.018-22.698 46.768 41.291 106.227 63.865 169.163 63.865 68.38 0 132.667-26.628 181.019-74.981 48.353-48.352 74.981-112.639 74.981-181.019s-26.628-132.667-74.981-181.019zm-21.213 340.825c-42.686 42.686-99.439 66.194-159.806 66.194-53.667 0-104.468-18.594-145.078-52.71 3.133-1.27 6.286-2.227 9.689-3.25 6.66-2.004 14.308-4.31 22.939-9.448 32.713 23.01 71.628 35.408 112.45 35.408 52.354 0 101.573-20.388 138.593-57.407s57.407-86.239 57.407-138.593-20.388-101.573-57.407-138.593-86.239-57.407-138.593-57.407-101.573 20.388-138.593 57.407-57.407 86.239-57.407 138.593 20.388 101.573 57.407 138.593c.257.257.521.505.779.76-2.012.689-4.064 1.311-6.218 1.959-6.893 2.074-14.843 4.467-23.848 9.994-37.564-41.581-58.12-94.863-58.12-151.306 0-60.367 23.508-117.12 66.194-159.806s99.439-66.194 159.806-66.194 117.12 23.508 159.806 66.194 66.194 99.439 66.194 159.806-23.508 117.12-66.194 159.806zm-228.757-140.517c.262-13.785 5.906-26.876 15.891-36.861 11.897-11.897 34.101-24.3 55.25-30.863 10.327-3.204 19.768-4.801 27.543-4.801 8.225 0 14.585 1.789 18.15 5.353 6.934 6.934 7.145 24.442.551 45.693-6.562 21.149-18.965 43.353-30.862 55.25-9.985 9.985-23.077 15.629-36.862 15.891-13.591.255-26.196-4.753-35.553-14.11-9.356-9.356-14.366-21.982-14.108-35.552zm-1.565 85.877c1.959-6.511 3.657-12.113 7.842-18.398 12.489 7.94 27.042 12.193 42.367 12.193.528 0 1.059-.005 1.588-.015 21.583-.411 42.004-9.173 57.504-24.673 15.268-15.268 30.302-41.792 38.301-67.573 10.354-33.371 7.517-60.289-7.991-75.796-15.508-15.508-42.427-18.345-75.796-7.991-25.781 8-52.305 23.034-67.573 38.302-15.5 15.5-24.262 35.921-24.673 57.504-.328 17.248 4.713 33.585 14.341 47.177-8.987 11.843-12.06 22.053-14.639 30.628-2.653 8.821-4.825 15.973-13.374 25.421-1.61-1.49-3.203-3.005-4.763-4.565-31.351-31.354-48.618-73.04-48.618-117.38s17.267-86.026 48.62-117.38c31.354-31.353 73.04-48.62 117.38-48.62s86.026 17.267 117.38 48.62c31.353 31.354 48.62 73.04 48.62 117.38s-17.267 86.026-48.62 117.38c-31.354 31.353-73.04 48.62-117.38 48.62-31.938 0-62.498-8.961-88.813-25.689 11.87-13.782 15.396-25.499 18.297-35.145z"/></g></svg>