<svg id="Layer_1" enable-background="new 0 0 510 510" height="512" viewBox="0 0 510 510" width="512" xmlns="http://www.w3.org/2000/svg"><g><path d="m150 120.799c-28.949 0-52.5 26.916-52.5 60 2.736 79.529 102.273 79.511 105-.001 0-33.083-23.551-59.999-52.5-59.999zm0 90c-12.196 0-22.5-13.738-22.5-30 1.641-39.773 43.362-39.765 45 0 0 16.261-10.304 30-22.5 30z"/><path d="m255 .799c-140.929 0-255 114.049-255 255 12.344 337.905 497.695 337.838 510-.003 0-140.926-114.049-254.997-255-254.997zm0 480c-124.065 0-225-100.935-225-225 11.312-298.083 438.734-298.002 450 .003 0 124.062-100.935 224.997-225 224.997z"/><path d="m360 120.799c-28.949 0-52.5 26.916-52.5 60 2.736 79.529 102.273 79.511 105-.001 0-33.083-23.551-59.999-52.5-59.999zm0 90c-12.196 0-22.5-13.738-22.5-30 1.641-39.773 43.362-39.765 45 0 0 16.261-10.304 30-22.5 30z"/><path d="m289.394 290.192-34.394 34.394-34.394-34.394-21.212 21.213 34.393 34.394-34.393 34.393 21.212 21.213 34.394-34.394 34.394 34.394 21.212-21.213-34.393-34.393 34.393-34.394z"/></g></svg>