<svg id="Capa_1" enable-background="new 0 0 512 512" height="512" viewBox="0 0 512 512" width="512" xmlns="http://www.w3.org/2000/svg"><g><path d="m255.997 239.949c8.196 0 15.903 3.192 21.699 8.988l21.213-21.213c-11.462-11.462-26.702-17.775-42.912-17.775s-31.45 6.312-42.912 17.775l21.214 21.213c5.795-5.796 13.501-8.988 21.698-8.988z"/><path d="m503.866 429.987c-3.296-33.232-25.534-61.55-57.037-72.631l-104.409-36.726-12.162-40.452c23.675-20.712 38.655-51.129 38.655-84.982l.116-108.408c.062-23.19-8.932-45.002-25.324-61.41-16.472-16.486-39.066-25.378-62.37-25.378h-160.829v60.712c-.46 23.991 7.543 50.13 22.594 74.091v60.393c0 33.847 14.975 64.26 38.643 84.972l-12.169 40.482-103.895 36.797c-31.174 11.041-53.254 38.982-56.789 71.865l-8.89 82.688h512zm-347.162-334.872c-4.28-11.587-6.426-23.134-6.201-33.94l.003-31.175h131.968c15.135 0 29.355 5.902 40.043 16.618 9.778 9.804 15.502 22.557 16.378 36.246-6.862-3.281-14.539-5.124-22.639-5.124h-120.5c-15.474 0-29.409 6.712-39.052 17.375zm16.396 100.08v-64.799c0-12.493 10.164-22.656 22.656-22.656h120.5c12.493 0 22.656 10.164 22.656 22.656v64.799c0 45.715-37.191 82.906-82.906 82.906s-82.906-37.191-82.906-82.906zm44.43 237.994c0-8.553 6.958-15.512 15.512-15.512 8.5-1.172 18.008 12.912 22.958 18.194 6.012-6.011 12.632-18.263 22.958-18.194 8.554 0 15.512 6.959 15.512 15.512 0 14.438-21.44 31.756-38.48 43.238-33.242-22.309-38.46-36.523-38.46-43.238zm204.095 48.811v-45.253h-30v45.253h-93.824c18.053-16.484 26.669-32.411 26.669-48.811 0-25.096-20.417-45.512-45.512-45.512-8.153 0-16.062 2.19-22.958 6.223-6.896-4.032-14.805-6.223-22.958-6.223-25.096 0-45.512 20.416-45.512 45.512 0 16.4 8.616 32.327 26.669 48.811h-93.824v-45.253h-30v45.253h-56.977l5.319-49.475c2.302-21.414 16.681-39.611 36.983-46.801l118.225-41.873 13.984-46.521c14.6 6.903 30.904 10.772 48.096 10.772 17.188 0 33.487-3.867 48.084-10.766l13.99 46.535 118.788 41.784c20.516 7.216 34.998 25.658 37.145 47.3l4.865 49.045z"/></g></svg>