<svg id="Capa_1" enable-background="new 0 0 512.027 512.027" height="512" viewBox="0 0 512.027 512.027" width="512" xmlns="http://www.w3.org/2000/svg"><g><path d="m338.722 0c-95.551 0-173.287 77.736-173.287 173.287 0 42.387 15.306 81.26 40.67 111.404l-20.533 20.533-23.011-23.011-148.609 148.608c-8.985 8.984-13.933 20.93-13.933 33.637 0 12.706 4.948 24.651 13.933 33.636 8.984 8.985 20.93 13.934 33.637 13.934s24.652-4.948 33.636-13.934l148.608-148.607-23.049-23.049 20.534-20.533c30.145 25.363 69.018 40.669 111.404 40.669 95.551 0 173.287-77.735 173.287-173.286s-77.737-173.288-173.287-173.288zm-278.711 476.881c-3.318 3.318-7.73 5.146-12.423 5.146s-9.104-1.828-12.423-5.146h-.001c-6.85-6.851-6.85-17.996 0-24.847l127.396-127.395 24.847 24.848zm278.711-160.308c-79.009 0-143.287-64.278-143.287-143.286 0-79.009 64.278-143.287 143.287-143.287 79.008 0 143.287 64.278 143.287 143.287-.001 79.008-64.279 143.286-143.287 143.286z"/><path d="m383.709 124.774v-18.221l11.525-11.525-21.213-21.213-20.313 20.313v11.242c-4.788-1.28-9.814-1.972-15-1.972s-10.212.692-15 1.972v-11.243l-20.335-20.337-21.213 21.213 11.55 11.55v18.221c-4.884 5.968-8.595 12.924-10.808 20.513h-37.369v30h35.042v30h-35.042v30h37.369c7.048 24.171 29.391 41.89 55.808 41.89s48.759-17.718 55.807-41.89h37.394v-30h-35.067v-30h35.067v-30h-37.394c-2.213-7.59-5.924-14.545-10.808-20.513zm-16.866 94.269c0 15.513-12.621 28.134-28.134 28.134s-28.134-12.621-28.134-28.134v-57.512c0-15.514 12.621-28.135 28.134-28.135s28.134 12.621 28.134 28.135z"/></g></svg>