<?xml version="1.0" encoding="iso-8859-1"?>
<!-- Generator: Adobe Illustrator 19.0.0, SVG Export Plug-In . SVG Version: 6.00 Build 0)  -->
<svg xmlns="http://www.w3.org/2000/svg" xmlns:xlink="http://www.w3.org/1999/xlink" version="1.1" id="Layer_1" x="0px" y="0px" viewBox="0 0 512 512" style="enable-background:new 0 0 512 512;" xml:space="preserve">
<g>
	<g>
		<path d="M355.514,285.856l124.065-95.27l0.693-0.693c8.02-8.02,22.418-24.578,28.737-45.373    c6.923-22.78,1.738-44.323-14.599-60.659l-12.405-12.405c2.863-5.982,4.375-12.577,4.375-19.405    c0-12.016-4.679-23.313-13.176-31.809c-17.526-17.526-46.032-17.541-63.575-0.043L248.404,178.98l-36.115-36.036l77.064-77.064    l-43.388-43.178l-75.49-8.022l-43.236,43.236L84.826,15.505L21.207,79.124l42.413,42.413L0,185.156l85.039,85.039l63.631-63.631    l35.628,35.55L0.344,423.282l76.537,76.537l206.651-158.688L434.46,491.73c17.304,17.304,45.768,17.851,63.619,0    c15.305-15.305,19.887-43.732-0.012-63.631L355.514,285.856z M430.71,41.529l0.081-0.081c5.848-5.847,15.36-5.846,21.206,0    c5.709,5.709,5.875,15.331,0,21.206l-10.604,10.603l31.811,31.809c8.607,8.607,10.866,18.372,7.11,30.733    c-2.091,6.878-6.082,14.325-11.418,21.51l-34.571-34.571l-75.171-10.739L430.71,41.529z M332.29,138.458l87.897,12.557    l26.792,26.792l-112.88,86.682l-64.465-64.324L332.29,138.458z M84.826,57.918l21.206,21.206L84.826,100.33L63.62,79.124    L84.826,57.918z M85.038,227.782l-42.625-42.626L181.551,46.017l50.744,5.392l14.593,14.523L85.038,227.782z M79.483,460.008    L42.92,423.444l162.609-160.146l56.588,56.465L79.483,460.008z M476.874,470.523c-5.847,5.846-15.359,5.846-21.219-0.011    L169.876,185.357l21.207-21.206l285.791,285.166C482.515,454.958,482.931,464.465,476.874,470.523z"/>
	</g>
</g>
<g>
</g>
<g>
</g>
<g>
</g>
<g>
</g>
<g>
</g>
<g>
</g>
<g>
</g>
<g>
</g>
<g>
</g>
<g>
</g>
<g>
</g>
<g>
</g>
<g>
</g>
<g>
</g>
<g>
</g>
</svg>
