<?xml version="1.0" encoding="iso-8859-1"?>
<!-- Generator: Adobe Illustrator 19.0.0, SVG Export Plug-In . SVG Version: 6.00 Build 0)  -->
<svg xmlns="http://www.w3.org/2000/svg" xmlns:xlink="http://www.w3.org/1999/xlink" version="1.1" id="Layer_1" x="0px" y="0px" viewBox="0 0 512 512" style="enable-background:new 0 0 512 512;" xml:space="preserve">
<g>
	<g>
		<path d="M256,45.626v30.417c99.228,0,179.956,80.728,179.956,179.957h30.417C466.374,139.999,372,45.626,256,45.626z"/>
	</g>
</g>
<g>
	<g>
		<path d="M256,208.463c-26.213,0-47.538,21.325-47.538,47.537s21.326,47.537,47.538,47.537c26.213,0,47.538-21.326,47.538-47.537    S282.213,208.463,256,208.463z M256,273.12c-9.44,0-17.121-7.68-17.121-17.12c0-9.439,7.68-17.12,17.121-17.12    c9.44,0,17.121,7.68,17.121,17.12C273.121,265.439,265.441,273.12,256,273.12z"/>
	</g>
</g>
<g>
	<g>
		<path d="M511.999,256c0-68.38-26.629-132.668-74.98-181.02C388.668,26.628,324.38,0,256,0c-42.086,0-82.615,10.102-118.839,29.133    l-0.144-0.144l-4.959,2.902c-20.682,11.477-39.89,25.903-57.077,43.091c-17.176,17.176-31.593,36.37-43.068,57.035l-2.926,5    l0.145,0.145C10.103,173.385,0.001,213.914,0.001,256c0,68.38,26.629,132.668,74.98,181.02S187.62,512,256,512    c42.086,0,82.615-10.102,118.839-29.133l0.144,0.144l4.959-2.902c20.682-11.477,39.89-25.903,57.077-43.09    c17.179-17.179,31.599-36.377,43.074-57.048l2.919-4.988l-0.143-0.145C501.898,338.614,511.999,298.085,511.999,256z     M132.334,67.322l79.791,79.79c-29.501,11.93-53.082,35.512-65.012,65.012l-79.792-79.791    C84.304,106.488,106.489,84.303,132.334,67.322z M213.28,180.276c0.191-0.108,0.378-0.222,0.57-0.328    c0.723-0.404,1.458-0.788,2.193-1.17c0.426-0.221,0.852-0.443,1.281-0.657c0.654-0.326,1.312-0.644,1.974-0.954    c0.554-0.259,1.112-0.51,1.672-0.757c0.586-0.26,1.171-0.519,1.763-0.767c0.777-0.322,1.562-0.628,2.35-0.929    c0.404-0.154,0.802-0.319,1.209-0.467c1.21-0.441,2.431-0.855,3.665-1.243c0.326-0.103,0.659-0.193,0.988-0.292    c0.949-0.286,1.903-0.561,2.865-0.815c0.418-0.111,0.839-0.212,1.258-0.316c0.891-0.221,1.786-0.429,2.688-0.623    c0.444-0.095,0.888-0.19,1.335-0.278c0.905-0.18,1.818-0.339,2.732-0.49c0.437-0.072,0.871-0.151,1.31-0.216    c4.2-0.626,8.493-0.958,12.864-0.958c47.963,0,86.982,39.02,86.982,86.982c0,4.362-0.332,8.648-0.954,12.839    c-0.069,0.47-0.154,0.936-0.231,1.403c-0.146,0.881-0.299,1.76-0.471,2.632c-0.093,0.471-0.193,0.94-0.293,1.409    c-0.188,0.871-0.388,1.737-0.601,2.599c-0.111,0.446-0.219,0.893-0.337,1.337c-0.243,0.922-0.508,1.836-0.782,2.746    c-0.109,0.366-0.211,0.736-0.326,1.099c-0.383,1.219-0.793,2.427-1.228,3.623c-0.166,0.454-0.35,0.9-0.523,1.352    c-0.283,0.738-0.568,1.475-0.87,2.203c-0.257,0.616-0.527,1.227-0.798,1.836c-0.236,0.534-0.475,1.067-0.723,1.596    c-0.319,0.682-0.646,1.36-0.981,2.032c-0.203,0.406-0.412,0.807-0.62,1.209c-0.393,0.757-0.789,1.513-1.205,2.257    c-0.087,0.157-0.18,0.311-0.269,0.467c-2.198,3.883-4.681,7.588-7.431,11.075c-0.012,0.016-0.025,0.031-0.037,0.048    c-4.259,5.395-9.142,10.278-14.536,14.538c-0.02,0.016-0.042,0.032-0.062,0.049c-3.47,2.734-7.153,5.205-11.015,7.394    c-0.178,0.101-0.354,0.207-0.532,0.306c-0.73,0.408-1.473,0.796-2.215,1.182c-0.418,0.217-0.834,0.434-1.255,0.644    c-0.66,0.33-1.325,0.651-1.995,0.964c-0.545,0.255-1.095,0.502-1.647,0.745c-0.593,0.263-1.186,0.526-1.786,0.776    c-0.766,0.318-1.54,0.618-2.317,0.916c-0.414,0.158-0.822,0.328-1.239,0.48c-1.207,0.44-2.426,0.853-3.657,1.24    c-0.333,0.104-0.671,0.197-1.007,0.298c-0.943,0.284-1.891,0.558-2.846,0.81c-0.421,0.112-0.845,0.214-1.267,0.319    c-0.888,0.22-1.78,0.427-2.679,0.619c-0.445,0.095-0.891,0.19-1.339,0.279c-0.905,0.18-1.817,0.339-2.731,0.489    c-0.437,0.072-0.871,0.151-1.31,0.216c-4.2,0.626-8.494,0.958-12.864,0.958c-47.963,0-86.982-39.02-86.982-86.982    c0.002-4.362,0.333-8.648,0.956-12.839c0.069-0.47,0.154-0.935,0.231-1.403c0.146-0.882,0.299-1.76,0.471-2.633    c0.093-0.47,0.192-0.94,0.293-1.408c0.188-0.872,0.388-1.738,0.601-2.6c0.111-0.446,0.219-0.892,0.336-1.335    c0.244-0.924,0.509-1.839,0.783-2.751c0.109-0.364,0.21-0.732,0.323-1.094c0.384-1.22,0.793-2.429,1.229-3.625    c0.164-0.45,0.347-0.892,0.518-1.339c0.285-0.742,0.571-1.484,0.876-2.216c0.255-0.614,0.525-1.221,0.794-1.828    c0.238-0.537,0.479-1.074,0.727-1.605c0.317-0.678,0.643-1.354,0.977-2.023c0.205-0.41,0.416-0.815,0.627-1.222    c0.391-0.753,0.785-1.505,1.197-2.245c0.091-0.164,0.189-0.326,0.282-0.489c2.194-3.874,4.672-7.57,7.415-11.05    c0.016-0.021,0.033-0.043,0.05-0.063c4.255-5.388,9.133-10.267,14.52-14.522c0.028-0.022,0.057-0.045,0.085-0.067    C205.765,184.92,209.434,182.459,213.28,180.276z M256,481.583c-60.255,0-116.904-23.465-159.511-66.072    C53.883,372.903,30.418,316.255,30.418,256c0-33.804,7.387-66.47,21.393-96.161l87.133,87.133c-0.227,2.98-0.344,5.99-0.344,9.028    c0,64.734,52.664,117.399,117.399,117.399c3.037,0,6.048-0.116,9.027-0.344l87.133,87.133    C322.47,474.195,289.803,481.583,256,481.583z M379.667,444.677l-79.791-79.79c29.5-11.93,53.082-35.511,65.012-65.012    l79.792,79.79C427.697,405.51,405.512,427.696,379.667,444.677z M460.189,352.16l-87.133-87.132    c0.227-2.98,0.344-5.99,0.344-9.028c0-64.734-52.664-117.399-117.399-117.399c-3.037,0-6.048,0.116-9.028,0.344L159.84,51.812    C189.531,37.804,222.197,30.417,256,30.417c60.255,0,116.904,23.465,159.511,66.072c42.606,42.607,66.071,99.255,66.071,159.511    C481.582,289.803,474.195,322.47,460.189,352.16z"/>
	</g>
</g>
<g>
</g>
<g>
</g>
<g>
</g>
<g>
</g>
<g>
</g>
<g>
</g>
<g>
</g>
<g>
</g>
<g>
</g>
<g>
</g>
<g>
</g>
<g>
</g>
<g>
</g>
<g>
</g>
<g>
</g>
</svg>
