<svg id="Capa_1" enable-background="new 0 0 512 512" height="512" viewBox="0 0 512 512" width="512" xmlns="http://www.w3.org/2000/svg"><g><path d="m0 0v512h100.956v-60h310.089v60h100.955v-512zm70.956 482h-40.956v-30h40.956zm411.044 0h-40.956v-30h40.956zm0-60h-452v-392h452z"/><path d="m452 60h-392v332h392zm-30 302h-332v-272h332z"/><path d="m256 332c58.449 0 106-47.552 106-106s-47.551-106-106-106-106 47.552-106 106 47.551 106 106 106zm0-30c-15.541 0-30.001-4.697-42.053-12.734l22.663-22.664c5.875 2.817 12.451 4.398 19.39 4.398s13.515-1.581 19.39-4.398l22.663 22.664c-12.052 8.037-26.512 12.734-42.053 12.734zm-15-76c0-8.271 6.729-15 15-15s15 6.729 15 15-6.729 15-15 15-15-6.729-15-15zm91 0c0 15.541-4.697 30.001-12.734 42.053l-22.663-22.664c2.816-5.875 4.397-12.45 4.397-19.389s-1.581-13.514-4.398-19.389l22.663-22.664c8.038 12.052 12.735 26.512 12.735 42.053zm-76-76c15.541 0 30.001 4.697 42.053 12.734l-22.663 22.664c-5.875-2.817-12.451-4.398-19.39-4.398s-13.515 1.581-19.39 4.398l-22.663-22.664c12.052-8.037 26.512-12.734 42.053-12.734zm-63.266 33.947 22.663 22.664c-2.816 5.875-4.397 12.45-4.397 19.389s1.581 13.514 4.398 19.389l-22.663 22.664c-8.038-12.052-12.735-26.512-12.735-42.053s4.697-30.001 12.734-42.053z"/></g></svg>