<svg id="Capa_1" enable-background="new 0 0 512 512" height="512" viewBox="0 0 512 512" width="512" xmlns="http://www.w3.org/2000/svg"><g><path d="m512 43.166v-43.166h-30v38.926h-52.01c-37.891-24.938-81.896-38.926-127.259-38.926h-38.676c-46.763 0-91.713 14.2-129.989 41.062l-18.843 13.222s23.148 16.181 25.331 17.604l-19.78 5.094c-41.48 10.683-78.108 33.546-105.924 66.12l-14.85 17.391 21.402 8.051c23.565 8.867 48.171 13.326 72.882 13.326 17.326 0 34.707-2.193 51.804-6.597l34.083-8.778c38.036-9.796 72.301-29.77 99.514-57.926h23.047c45.362 0 89.367-13.182 127.258-38.12l1.09-.717h45.866c-7.664 19.42-23.551 35.039-44.197 41.993l-278.023 93.634c-52.923 17.824-90.571 63.498-98.889 117.441-31.699 6.704-55.565 34.893-55.565 68.559v50.561c-.001 38.642 31.437 70.08 70.08 70.08s70.081-31.438 70.081-70.081v-50.561c0-33.179-23.185-61.026-54.198-68.243 7.904-41.118 37.292-75.595 78.066-89.327l89.816-30.249c-7.395 14.391-11.5 30.608-11.5 47.548v8.913c-31.456 6.889-55.08 34.954-55.08 68.447v50.561c0 38.643 31.438 70.081 70.081 70.081 38.642 0 70.08-31.438 70.08-70.081v-50.561c0-33.494-23.624-61.559-55.081-68.447v-8.912c0-31.713 20.168-59.893 50.187-70.122l104.063-35.606c-15.394 31.499-23.436 66.086-23.436 101.504v38.676c0 46.763 14.199 91.713 41.064 129.992l13.223 18.835 13.218-18.837c26.864-38.276 41.064-83.226 41.064-129.989v-38.676c0-44.521-12.706-87.73-36.753-125.138 22.82-19.047 36.753-47.554 36.753-78.561zm-401.567 348.193v50.561c0 22.101-17.98 40.081-40.081 40.081s-40.081-17.98-40.081-40.081v-50.561c0-16.316 9.805-30.377 23.828-36.624v35.655h30v-36.681c15.35 5.621 26.334 20.377 26.334 37.65zm187.264-62.911v50.561c0 22.101-17.98 40.081-40.08 40.081-22.1 0-40.08-17.98-40.08-40.081v-50.561c0-16.798 10.392-31.206 25.08-37.157v31.539h30v-31.539c14.688 5.951 25.08 20.359 25.08 37.157zm-125.009-191.005-34.082 8.778c-28.387 7.31-57.667 7.497-85.802.671 21.336-19.566 47.067-33.547 75.452-40.857l34.082-8.778c6.542-1.685 13.236-2.991 19.939-3.938 17.364 6.742 35.51 11.298 54.114 13.566-18.927 14.187-40.496 24.581-63.703 30.558zm130.043-58.874h-38.676c-33.384 0-65.7-8.341-94.603-24.285 28.904-15.943 61.22-24.284 94.604-24.284h38.676c33.685 0 66.513 8.353 95.908 24.284-29.397 15.934-62.222 24.285-95.909 24.285zm179.269 206.972c0 33.384-8.341 65.699-24.285 94.603-15.943-28.903-24.284-61.219-24.284-94.603v-38.676c0-33.685 8.353-66.513 24.285-95.907 15.931 29.394 24.284 62.222 24.284 95.907z"/></g></svg>