<svg id="Capa_1" enable-background="new 0 0 511.936 511.936" height="512" viewBox="0 0 511.936 511.936" width="512" xmlns="http://www.w3.org/2000/svg"><g><path d="m484.179 230.531-11.801-11.801c42.265-52.85 38.933-130.391-10.012-179.337s-126.487-52.277-179.337-10.012l-11.802-11.801-21.213 21.213 11.804 11.804c-20.528 25.672-30.298 57.163-29.305 88.38l-202.269 243.179 12.778 12.778-32.845 32.845 43.449 84.158 53.199-53.199 13.862 13.862 242.143-203.36c31.201.982 62.671-8.785 88.329-29.302l11.807 11.807zm-43.027-169.925c37.233 37.233 40.51 95.753 9.843 136.741l-146.584-146.584c40.989-30.666 99.508-27.39 136.741 9.843zm-192.387 105.746 86.696 86.696-23.239 19.517-82.872-82.872zm-177.954 213.945 139.275-167.443 79.077 79.077-166.709 140.008zm-9.364 81.391-14.557-28.197 17.345-17.345 21.377 21.377zm302.68-222.401-101.652-101.651c-.651-23.072 6.255-46.314 20.725-65.657l146.578 146.578c-19.341 14.47-42.581 21.379-65.651 20.73z"/><path d="m189.712 274.695h45.111v30h-45.111z" transform="matrix(.707 -.707 .707 .707 -142.673 234.946)"/></g></svg>