<svg id="Capa_1" enable-background="new 0 0 512.104 512.104" height="512" viewBox="0 0 512.104 512.104" width="512" xmlns="http://www.w3.org/2000/svg"><g id="XMLID_541_"><path id="XMLID_544_" d="m507.325 123.176c-11.634-43.622-42.443-78.012-84.527-94.355s-88.029-11.757-126.053 12.581l-40.693 26.046-40.693-26.046c-38.025-24.337-83.969-28.923-126.053-12.581-42.085 16.342-72.893 50.733-84.528 94.355-12.369 46.377-.39 95.19 32.042 130.574l219.231 239.176 219.232-239.176c32.432-35.384 44.411-84.197 32.042-130.574zm-473.56 7.73c9.139-34.267 33.341-61.282 66.4-74.12 13.053-5.069 26.578-7.575 40.006-7.575 20.583 0 40.938 5.887 59.014 17.457l45.361 29.034 22.481 43.933-28.072 56.476 26.935 59.649-22.918 59.603 22.857 59.241-17.291 65.726-189.602-206.851c-25.477-27.796-34.887-66.141-25.171-102.573zm419.403 102.572-167.171 182.38 11.313-43.003-22.189-57.511 23.268-60.511-26.237-58.105 28.477-57.289-25.018-48.891 37.309-23.88c29.87-19.118 65.961-22.721 99.021-9.882 33.059 12.837 57.261 39.853 66.4 74.12 9.714 36.432.304 74.777-25.173 102.572z"/><path id="XMLID_546_" d="m375.338 87.681v30c21.608 0 39.188 17.58 39.188 39.187h30c0-38.149-31.038-69.187-69.188-69.187z"/></g></svg>