<svg id="Capa_1" enable-background="new 0 0 512 512" height="512" viewBox="0 0 512 512" width="512" xmlns="http://www.w3.org/2000/svg"><g><path d="m60 512h392v-392h-392zm105.5-136.822 64.022 106.822h-128.044zm17.488-29.178 73.012-121.822 73.012 121.822-73.012 121.822zm163.512 29.178 64.022 106.822h-128.044zm17.488-29.178 58.012-96.794v193.588zm-17.488-29.178-64.022-106.822h128.045zm-181 0-64.022-106.822h128.045zm-17.488 29.178-58.012 96.794v-193.588zm273.988-196v30h-332v-30z"/><path d="m0 0h362v30h-362z"/><path d="m150 60h362v30h-362z"/></g></svg>