<svg id="Capa_1" enable-background="new 0 0 512 512" height="512" viewBox="0 0 512 512" width="512" xmlns="http://www.w3.org/2000/svg"><g><g><path d="m376 0h-240c-24.813 0-45 20.187-45 45v422c0 24.813 20.187 45 45 45h240c24.813 0 45-20.187 45-45v-422c0-24.813-20.187-45-45-45zm15 467c0 8.271-6.729 15-15 15h-240c-8.271 0-15-6.729-15-15v-74.82h270zm0-104.82h-270v-272.18h270zm-270-302.18v-15c0-8.271 6.729-15 15-15h240c8.271 0 15 6.729 15 15v15z"/></g><g><path d="m241 422.117h30v30h-30z"/></g><g><path d="m205.4 316.957 50.6-50.6 50.6 50.6 21.213-21.213-50.6-50.6 18.482-18.482c21.888-21.888 21.888-57.503 0-79.391-21.888-21.889-57.503-21.889-79.391 0-21.888 21.888-21.888 57.503 0 79.391l18.482 18.482-50.6 50.6zm32.118-148.473c5.096-5.096 11.789-7.644 18.482-7.644s13.387 2.548 18.482 7.644c10.191 10.191 10.191 26.773 0 36.965l-18.482 18.483-18.482-18.482c-10.191-10.192-10.191-26.774 0-36.966z"/></g></g></svg>