<svg id="Capa_1" enable-background="new 0 0 510 510" height="512" viewBox="0 0 510 510" width="512" xmlns="http://www.w3.org/2000/svg"><g><path d="m255 0c-140.93 0-255 114.051-255 255 0 140.93 114.051 255 255 255 140.93 0 255-114.051 255-255 0-140.93-114.051-255-255-255zm0 480c-124.065 0-225-100.935-225-225s100.935-225 225-225 225 100.935 225 225-100.935 225-225 225z"/><path d="m300 120c0-24.813-20.187-45-45-45-24.814 0-45 20.187-45 45s20.186 45 45 45c24.813 0 45-20.186 45-45zm-45 15c-8.272 0-15-6.729-15-15s6.728-15 15-15c8.271 0 15 6.729 15 15s-6.729 15-15 15z"/><path d="m153.64 155.148v-42.427h-30v42.427c0 9.274-7.546 16.819-16.82 16.819-25.816 0-46.819 21.004-46.819 46.82v21.213h30v-21.213c0-9.274 7.545-16.82 16.819-16.82 25.816 0 46.82-21.003 46.82-46.819z"/><path d="m450 240h-32.58c-4.527-12.764-14.656-22.893-27.42-27.42v-32.58h-30v32.58c-12.764 4.527-22.893 14.656-27.42 27.42h-32.58v30h32.58c4.527 12.764 14.656 22.893 27.42 27.42v32.58h30v-32.58c12.764-4.527 22.893-14.656 27.42-27.42h32.58zm-75 30c-8.272 0-15-6.728-15-15 0-8.271 6.728-15 15-15 8.271 0 15 6.729 15 15 0 8.272-6.729 15-15 15z"/><path d="m202.49 375c-4.141 0-7.51-3.369-7.51-7.51v-10.037c17.136-6.031 30.02-22.479 30.02-42.453 0-8.01-3.072-17.395-.794-33.568 4.985-35.401-14.007-71.432-44.206-71.432-25.233 0-45 26.355-45 60 0 11.633 3.161 20.107.477 38.44-3.194 21.724 9.698 41.935 29.503 48.973v10.078c0 20.683 16.827 37.51 37.51 37.51 4.141 0 7.51 3.369 7.51 7.51v22.489h30v-22.49c0-20.683-16.827-37.51-37.51-37.51zm-37.49-105c0-18.314 8.884-30 15-30 7.028 0 17.54 15.625 14.499 37.25-2.786 19.774.501 34.105.501 37.75 0 8.287-6.704 15-15 15-.003 0-.007 0-.01 0-9.313-.006-16.174-8.068-14.83-17.209 3.192-21.795-.16-34.579-.16-42.791z"/><path d="m285 330h30v30h-30z"/><path d="m315 390h30v30h-30z"/></g></svg>