<svg id="Capa_1" enable-background="new 0 0 512 512" height="512" viewBox="0 0 512 512" width="512" xmlns="http://www.w3.org/2000/svg"><g><path d="m55.186 90h30v60h30c0-5.675 0-142.881 0-150h-30v60h-30v-60h-30v150h30z"/><path d="m175.186 90h30v60h30c0-21.425 0-83.666 0-105 0-24.813-20.187-45-45-45s-45 20.187-45 45v105h30zm0-45c0-8.271 6.729-15 15-15s15 6.729 15 15v15h-30z"/><path d="m175.186 226v105h30v-60h30v60h30c0-21.425 0-83.666 0-105 0-24.813-20.187-45-45-45s-45 20.187-45 45zm60 0v15h-30v-15c0-8.271 6.729-15 15-15s15 6.729 15 15z"/><path d="m295.186 57.72 34.605 92.28h40.395v-150h-30v92.28l-34.605-92.28h-40.395v150h30z"/><path d="m445.186 0h-45v150h45c24.813 0 45-20.187 45-45v-60c0-24.813-20.187-45-45-45zm15 105c0 8.271-6.729 15-15 15h-15v-90h15c8.271 0 15 6.729 15 15z"/><path d="m295.186 181v150h45c24.813 0 45-20.187 45-45v-60c0-24.813-20.187-45-45-45zm60 45v60c0 8.271-6.729 15-15 15h-15v-90h15c8.271 0 15 6.729 15 15z"/><path d="m55.186 229.541 30 60 30-60v101.459h30v-150h-39.271l-20.729 41.459-20.73-41.459h-39.27v150h30z"/><path d="m415.186 331h75v-30h-45v-30h30v-30h-30v-30h45v-30h-75z"/><path d="m445.186 362c-6.959 0-13.913 1.638-20.106 4.735l-69.057 34.527c-2.827-22.114-21.767-39.262-44.637-39.262h-109.231c-29.994 0-58.616 12.865-78.527 35.298l-101.814 114.702h306.369v-.101c5.944-.4 11.805-1.982 17.108-4.635l120.001-59.999c15.354-7.678 24.893-23.106 24.893-40.266.001-24.812-20.186-44.999-44.999-44.999zm6.69 58.434-120.001 59.999c-2.08 1.04-4.331 1.567-6.689 1.567h-236.629l57.507-64.787c14.222-16.024 34.667-25.213 56.091-25.213h109.231c8.271 0 15 6.729 15 15s-6.728 15-15 15h-91.2v30h91.2c8.577 0 16.6-2.411 23.428-6.593l103.682-51.84c2.08-1.04 4.331-1.567 6.689-1.567 8.271 0 15 6.729 15 15 .001 5.723-3.184 10.87-8.309 13.434z"/></g></svg>