<svg id="Capa_1" enable-background="new 0 0 509.692 509.692" height="512" viewBox="0 0 509.692 509.692" width="512" xmlns="http://www.w3.org/2000/svg"><path id="XMLID_580_" d="m488.479 148.432 21.213-21.213-127.219-127.219-21.213 21.213 29.653 29.653-41.86 41.86-29.653-29.653-21.213 21.213 18.82 18.82-205.588 205.588-9.973 78.339-101.446 101.446 21.213 21.213 101.446-101.446 78.339-9.973 205.588-205.588 18.82 18.82 21.213-21.213-29.653-29.653 41.86-41.86zm-146.577 66.51-23.576-23.576-21.213 21.213 23.576 23.576-32.466 32.466-23.576-23.576-21.213 21.213 23.576 23.576-32.466 32.466-23.576-23.576-21.213 21.213 23.576 23.576-26.295 26.295-54.031 6.878 6.878-54.03 198.337-198.336 47.152 47.152zm53.851-75.516-25.487-25.487 41.859-41.859 25.487 25.487z"/></svg>