<svg id="Capa_1" enable-background="new 0 0 512 512" height="512" viewBox="0 0 512 512" width="512" xmlns="http://www.w3.org/2000/svg"><path d="m377.015 90.014c-5.559-.13-10.96.744-16.018 2.526v-17.54c0-24.813-20.187-45-45-45-5.857 0-11.449 1.136-16.586 3.181-5.204-19.097-22.69-33.181-43.413-33.181s-38.209 14.084-43.414 33.181c-5.137-2.045-10.73-3.181-16.586-3.181-24.813 0-45 20.187-45 45v95.938c-4.694-1.665-9.74-2.579-14.997-2.579-24.812 0-44.998 20.187-44.998 44.998v93.931c0 13.196 5.759 25.677 15.801 34.241l49.396 42.121v128.35h219.964v-129.977l28.215-34.989c10.716-13.288 16.618-30.009 16.618-47.08v-164.35c.001-24.599-19.729-45.05-43.982-45.59zm13.983 209.94c0 10.243-3.541 20.274-9.971 28.248l-34.863 43.231v110.566h-159.964v-112.192l-59.93-51.104c-3.348-2.855-5.268-7.016-5.268-11.414v-93.931c0-8.27 6.729-14.998 15-14.998 8.238 0 14.942 6.677 14.995 14.904v.096h.005v60.059h30v-60.059c0-.064-.005-.128-.005-.192v-138.168c0-8.271 6.729-15 15-15s15 6.729 15 15v138.529h30v-168.529c0-8.271 6.729-15 15-15s15 6.729 15 15v168.529h30v-138.529c0-8.271 6.729-15 15-15s15 6.729 15 15v138.529h30v-78.527c0-4.008 1.558-7.77 4.405-10.612 2.914-2.919 6.802-4.451 10.945-4.384 8.078.18 14.65 7.177 14.65 15.598v164.35z"/></svg>