<svg id="Capa_1" enable-background="new 0 0 511.883 511.883" height="512" viewBox="0 0 511.883 511.883" width="512" xmlns="http://www.w3.org/2000/svg"><g><path d="m393.235 140.649c-13.969-13.718-35.315-17.459-53.116-9.311l-49.778 22.784-49.777-22.784c-17.803-8.148-39.148-4.406-53.117 9.312l-41.154 40.415c-42.395-32.561-95.543 19.658-63.756 62.611l-13.737 13.49c95.147 194.386 348.122 194.134 443.083 0zm-184.767 21.404c5.157-5.064 13.037-6.446 19.61-3.438l62.263 28.499 62.264-28.499c6.571-3.009 14.453-1.627 19.61 3.438l81.258 79.798-107.468-9.116-55.663 26.167-55.663-26.167-78.224 6.635c5.622-8.996 7.923-21.069 5.726-31.862zm-90.468 38.969c8.271 0 15 6.729 15 15-.824 19.9-29.179 19.894-30 0 0-8.271 6.729-15 15-15zm315.872 113.067c-98.3 95.401-248.861 70.452-321.613-40.862l116.938-9.919 61.144 28.745 61.145-28.745 116.937 9.919c-7.67 11.292-19.133 26.146-34.551 40.862z"/><path d="m0 243.579h30v30h-30z"/><path d="m8 163.022h30v30h-30z"/><path d="m75 109.022h30v30h-30z"/></g></svg>