<svg id="Capa_1" enable-background="new 0 0 510 510" height="512" viewBox="0 0 510 510" width="512" xmlns="http://www.w3.org/2000/svg"><g><path d="m180 128.543c-33.084 0-60 26.916-60 60s26.916 60 60 60 60-26.916 60-60-26.916-60-60-60zm0 90c-16.542 0-30-13.458-30-30s13.458-30 30-30 30 13.458 30 30-13.458 30-30 30z"/><path d="m510 68.182h-114.271l-15 30h-26.459l-15-30h-159.27c-66.554 0-120.829 54.692-119.981 121.777-34.201 6.961-60.019 37.358-60.019 73.584v132.695c0 22.578 16.568 41.986 38.54 45.145 15.864 2.279 29.617-4.492 38.381-18.256 7.69-12.076 11.963-29.708 13.063-53.903 2.873-63.204-14.389-99.872-16.246-124.98 20.102 38.194 60.187 64.299 106.262 64.299 58.363 0 107.12-41.885 117.812-97.171l212.188-40.417zm-449.984 299.68c-1.233 27.115-7.157 43.96-15.459 43.96-.543 0-1.132-.045-1.748-.134-7.303-1.049-12.809-7.691-12.809-15.449v-132.696c0-12.966 5.512-24.668 14.315-32.887-4.997 34.655 18.878 67.276 15.701 137.206zm119.984-89.319c-49.626 0-90-40.374-90-90s40.374-90 90-90 90 40.374 90 90-40.374 90-90 90zm300-132.412-180.278 34.157c-2.173-32.552-17.382-61.106-40.443-82.106h61.451l15 30h63.541l15-30h65.729z"/></g></svg>