<svg id="Capa_1" enable-background="new 0 0 512 512" height="512" viewBox="0 0 512 512" width="512" xmlns="http://www.w3.org/2000/svg"><g id="XMLID_441_"><path id="XMLID_461_" d="m512 385.311v-357.145h-512v357.145h204.594v68.523h-135.241v30h373.294v-30h-135.241v-68.523zm-482-30v-297.145h452v297.145zm247.406 98.523h-42.812v-68.523h42.812z"/><path id="XMLID_523_" d="m203.585 131.992v149.133l144.025-74.566zm30 49.314 48.774 25.252-48.774 25.252z"/><path id="XMLID_527_" d="m377.971 206.539c0-67.255-54.716-121.971-121.971-121.971s-121.971 54.716-121.971 121.971 54.716 121.971 121.971 121.971 121.971-54.716 121.971-121.971zm-121.971 91.971c-50.713 0-91.971-41.258-91.971-91.971s41.258-91.971 91.971-91.971 91.971 41.258 91.971 91.971-41.258 91.971-91.971 91.971z"/></g></svg>