<svg id="Layer_1" enable-background="new 0 0 510 510" height="512" viewBox="0 0 510 510" width="512" xmlns="http://www.w3.org/2000/svg"><g><path d="m157.472 0v510h330v-510zm300 30v30h-270v-30zm0 60v330h-270v-330zm-270 390v-30h270v30z"/><path d="m217.472 345h90v30h30v-30h90v-30h-30v-75c0-36.22-25.808-66.523-60-73.49v-31.51h-30v31.51c-34.192 6.968-60 37.271-60 73.49v75h-30zm60-105c0-24.814 20.186-45 45-45 24.813 0 45 20.186 45 45v75h-90z"/><path d="m57.619 155.902c-46.788 46.787-46.788 122.916 0 169.704l21.213-21.213c-35.091-35.091-35.091-92.188 0-127.279z"/><path d="m100.046 198.327c-23.447 23.448-23.453 61.401 0 84.852l21.213-21.213c-11.726-11.723-11.725-30.699 0-42.427z"/></g></svg>