<svg id="Capa_1" enable-background="new 0 0 512.108 512.108" height="512" viewBox="0 0 512.108 512.108" width="512" xmlns="http://www.w3.org/2000/svg"><g><path d="m467.054 301.078c0-64.215-28.843-121.812-74.244-160.543l23.585-23.585 64.405-.603 31.308-116.323-116.323 31.308-.602 64.405-26.804 26.804c-32.548-20.55-71.069-32.463-112.324-32.463s-79.778 11.912-112.325 32.462l-26.804-26.804-.602-64.405-116.324-31.307 31.308 116.322 64.405.603 23.585 23.585c-45.401 38.732-74.244 96.329-74.244 160.543 0 41.256 11.912 79.777 32.463 112.324l-77.469 77.47 21.213 21.213 74.25-74.251c38.732 45.401 96.329 74.244 160.543 74.244s121.812-28.843 160.543-74.244l74.25 74.251 21.213-21.213-77.469-77.47c20.551-32.547 32.463-71.068 32.463-112.323zm-41.483-246.696 44.029-11.85-11.85 44.029-32.483.304zm-371.213 32.179-11.85-44.029 44.029 11.851.304 32.482zm382.07 199.517h-106.883c-1.949-9.562-5.731-18.461-10.948-26.33l54.837-54.837-21.213-21.213-54.837 54.837c-7.869-5.217-16.768-9-26.329-10.948v-106.883c87.863 7.243 158.13 77.51 165.373 165.374zm-180.374 60c-24.813 0-45-20.187-45-45s20.187-45 45-45 45 20.187 45 45-20.187 45-45 45zm-15-225.374v106.883c-9.561 1.948-18.46 5.731-26.329 10.948l-54.837-54.837-21.213 21.213 54.837 54.837c-5.218 7.869-9 16.768-10.948 26.33h-106.884c7.243-87.864 77.51-158.131 165.374-165.374zm-165.374 195.374h106.883c1.949 9.562 5.731 18.461 10.948 26.33l-54.837 54.837 21.213 21.213 54.837-54.837c7.869 5.217 16.768 9 26.329 10.948v106.883c-87.863-7.244-158.13-77.51-165.373-165.374zm195.374 165.373v-106.883c9.561-1.948 18.46-5.731 26.329-10.948l54.837 54.837 21.213-21.213-54.837-54.837c5.218-7.869 9-16.768 10.948-26.33h106.883c-7.242 87.865-77.509 158.131-165.373 165.374z"/></g></svg>