<svg id="Capa_1" enable-background="new 0 0 511.5 511.5" height="512" viewBox="0 0 511.5 511.5" width="512" xmlns="http://www.w3.org/2000/svg"><g id="XMLID_720_"><path id="XMLID_1554_" d="m481 57.5h-26.75v-14.75c0-23.572-19.178-42.75-42.75-42.75-10.585 0-20.276 3.875-27.75 10.271-7.474-6.396-17.165-10.271-27.75-10.271s-20.276 3.875-27.75 10.271c-7.474-6.396-17.165-10.271-27.75-10.271s-20.276 3.875-27.75 10.271c-7.474-6.396-17.165-10.271-27.75-10.271s-20.276 3.875-27.75 10.271c-7.474-6.396-17.165-10.271-27.75-10.271s-20.276 3.875-27.75 10.271c-7.474-6.396-17.165-10.271-27.75-10.271-23.572 0-42.75 19.178-42.75 42.75v14.75h-30.75v-14.5h-30v59h30v-14.5h30.75v424h30v-61.333h36.6v61.333h30v-61.333h36.6v61.333h30v-61.333h36.6v61.333h30v-61.333h36.6v61.333h30v-61.333h36.6v61.333h30v-424h26.75zm-69.5-27.5c7.03 0 12.75 5.72 12.75 12.75v14.75h-25.5v-14.75c0-7.03 5.72-12.75 12.75-12.75zm-55.5 0c7.03 0 12.75 5.72 12.75 12.75v14.75h-25.5v-14.75c0-7.03 5.72-12.75 12.75-12.75zm-55.5 0c7.03 0 12.75 5.72 12.75 12.75v14.75h-25.5v-14.75c0-7.03 5.72-12.75 12.75-12.75zm-55.5 0c7.03 0 12.75 5.72 12.75 12.75v14.75h-25.5v-14.75c0-7.03 5.72-12.75 12.75-12.75zm-55.5 0c7.03 0 12.75 5.72 12.75 12.75v14.75h-25.5v-14.75c0-7.03 5.72-12.75 12.75-12.75zm-68.25 12.75c0-7.03 5.72-12.75 12.75-12.75s12.75 5.72 12.75 12.75v14.75h-25.5zm303 87.417h-59.475v30h59.475v42.445h-59.475v30h59.475v42.444h-59.475v30h59.475v42.444h-59.475v30h59.475v42.667h-303v-42.667h59.475v-30h-59.475v-42.444h59.475v-30h-59.475v-42.444h59.475v-30h-59.475v-42.445h59.475v-30h-59.475v-42.667h303z"/><path id="XMLID_1561_" d="m235.513 130.167h74.475v30h-74.475z"/><path id="XMLID_1562_" d="m235.513 202.611h74.475v30h-74.475z"/><path id="XMLID_1563_" d="m235.513 275.056h74.475v30h-74.475z"/><path id="XMLID_1564_" d="m235.513 347.5h74.475v30h-74.475z"/></g></svg>