<svg id="Capa_1" enable-background="new 0 0 512 512" height="512" viewBox="0 0 512 512" width="512" xmlns="http://www.w3.org/2000/svg"><g><path d="m437.02 74.98c-48.353-48.351-112.64-74.98-181.02-74.98s-132.667 26.629-181.02 74.98c-48.351 48.353-74.98 112.64-74.98 181.02s26.629 132.667 74.98 181.02c48.353 48.351 112.64 74.98 181.02 74.98s132.667-26.629 181.02-74.98c48.351-48.353 74.98-112.64 74.98-181.02s-26.629-132.667-74.98-181.02zm-75.02 181.02c0 22.122-6.816 42.679-18.452 59.692-14.455-1.257-22.382-6.258-32.058-12.373-3.555-2.247-7.244-4.576-11.312-6.77 9.817-10.687 15.822-24.928 15.822-40.549 0-33.084-26.916-60-60-60s-60 26.916-60 60c0 15.621 6.005 29.862 15.823 40.549-4.068 2.195-7.757 4.524-11.312 6.77-9.676 6.114-17.603 11.116-32.058 12.373-11.637-17.013-18.453-37.57-18.453-59.692 0-58.448 47.551-106 106-106s106 47.552 106 106zm-136 0c0-16.542 13.458-30 30-30s30 13.458 30 30-13.458 30-30 30-30-13.458-30-30zm-9.464 72.681c11.212-7.085 20.068-12.681 39.464-12.681s28.252 5.596 39.464 12.681c6.843 4.324 14.173 8.955 23.772 12.339-17.665 13.173-39.555 20.98-63.236 20.98s-45.571-7.807-63.237-20.98c9.6-3.385 16.93-8.015 23.773-12.339zm-96.536-72.681c0 32.879 11.73 63.07 31.223 86.61-45.364-17.798-85.705-47.244-117.335-86.485 31.56-39.154 71.791-68.558 117.033-86.368-19.312 23.487-30.921 53.534-30.921 86.243zm272 0c0-32.709-11.609-62.756-30.921-86.243 45.241 17.81 85.473 47.214 117.033 86.368-31.63 39.241-71.97 68.688-117.335 86.485 19.493-23.54 31.223-53.731 31.223-86.61zm-136-226c109.16 0 200.489 77.794 221.466 180.853-22.874-22.531-49.151-41.62-77.627-56.231-44.774-22.974-93.168-34.622-143.839-34.622s-99.065 11.648-143.839 34.622c-28.476 14.611-54.752 33.7-77.627 56.231 20.977-103.059 112.306-180.853 221.466-180.853zm0 452c-109.052 0-200.311-77.638-221.407-180.544 22.86 22.506 49.116 41.574 77.568 56.172 44.774 22.974 93.168 34.622 143.839 34.622s99.065-11.648 143.839-34.622c28.452-14.598 54.707-33.667 77.568-56.172-21.096 102.906-112.355 180.544-221.407 180.544z"/></g></svg>