<svg id="Capa_1" enable-background="new 0 0 512 512" height="512" viewBox="0 0 512 512" width="512" xmlns="http://www.w3.org/2000/svg"><path d="m462.762 413.521h-16.437c3.47-7.08 5.425-15.031 5.425-23.433 0-29.463-23.97-53.433-53.433-53.433h-36.817v51.666h30v-21.666h6.817c12.921 0 23.433 10.512 23.433 23.433s-10.512 23.433-23.433 23.433h-234.985v-34.855h13.452c32.349 0 58.667-26.318 58.667-58.667v-43.452h-43.453c-32.349 0-58.667 26.318-58.667 58.667v13.452h-34.854v-234.983c0-12.921 10.512-23.433 23.433-23.433s23.433 10.512 23.433 23.433v6.817h-21.667v30h51.667v-36.817c0-29.463-23.97-53.433-53.433-53.433-8.401 0-16.353 1.955-23.433 5.425v-16.437c0-27.15-22.089-49.238-49.239-49.238s-49.238 22.088-49.238 49.238c0 22.726 18.488 41.214 41.214 41.214v-30c-6.183 0-11.214-5.03-11.214-11.214 0-10.608 8.63-19.238 19.238-19.238s19.238 8.63 19.238 19.238v78.771c-8.483-4.773-18.259-7.509-28.667-7.509h-39.809v39.811c0 32.349 26.318 58.666 58.667 58.666h9.81v33.646c-8.483-4.773-18.259-7.509-28.667-7.509h-39.81v39.811c0 32.349 26.318 58.666 58.667 58.666h9.81v69.931h-.643c-20.862-.001-37.834-16.974-37.834-37.835h-30c0 37.216 31.468 68.036 68.477 67.834-.204 37.009 30.616 68.479 67.833 68.479v-30c-20.861 0-37.833-16.972-37.833-37.833v-.646h69.933v9.81c0 32.349 26.318 58.667 58.667 58.667h39.81v-39.811c0-10.407-2.736-20.183-7.509-28.666h33.645v9.81c0 32.349 26.317 58.667 58.666 58.667h39.811v-39.811c0-10.407-2.736-20.183-7.509-28.666h78.771c10.608 0 19.238 8.63 19.238 19.238s-8.63 19.238-19.238 19.238c-6.184 0-11.214-5.03-11.214-11.214h-30c0 22.726 18.488 41.214 41.214 41.214 27.15 0 49.238-22.088 49.238-49.238s-22.088-49.238-49.238-49.238zm-404.095-224.544c-15.807 0-28.667-12.86-28.667-28.666v-9.811h9.81c15.807 0 28.667 12.86 28.667 28.667v9.81zm0 124.613c-15.807 0-28.667-12.86-28.667-28.666v-9.811h9.81c15.807 0 28.667 12.86 28.667 28.667v9.81zm104.665 21.623c0-15.807 12.86-28.667 28.667-28.667h13.453v13.452c0 15.807-12.86 28.667-28.667 28.667h-13.452v-13.452zm-64.855 78.308v-34.855h34.855v34.855zm138.41 58.666v9.811h-9.81c-15.807 0-28.667-12.86-28.667-28.667v-9.81h9.81c15.807 0 28.667 12.859 28.667 28.666zm124.613 0v9.811h-9.811c-15.807 0-28.666-12.86-28.666-28.667v-9.81h9.81c15.807 0 28.667 12.859 28.667 28.666z"/></svg>