<svg id="Capa_1" enable-background="new 0 0 512 512" height="512" viewBox="0 0 512 512" width="512" xmlns="http://www.w3.org/2000/svg"><g><path d="m421.8 66.304c-6.557 1.865-12.649 4.712-18.152 8.335v-74.639h-30v74.639c-5.503-3.623-11.595-6.47-18.152-8.335l-81.354-23.143v239.048c0 29.476 19.801 55.695 48.152 63.761l51.354 14.609v151.421h30v-151.422l51.355-14.609c28.351-8.065 48.152-34.285 48.152-63.761v-239.047zm8.208 28.855 43.147-12.274v12.313c0 12.307-8.285 23.191-20.148 26.467l-37.196 10.272c-4.298 1.187-8.365 2.861-12.163 4.935v-6.808c0-16.136 10.84-30.49 26.36-34.905zm-26.36 92.163c0-12.307 8.285-23.191 20.148-26.467l37.197-10.272c4.298-1.187 8.364-2.861 12.162-4.935v14.851c0 12.308-8.285 23.191-20.148 26.467l-37.197 10.272c-4.298 1.187-8.365 2.861-12.163 4.935v-14.851zm-30 14.851c-3.798-2.074-7.865-3.748-12.163-4.935l-37.196-10.272c-11.863-3.276-20.148-14.159-20.148-26.467v-14.851c3.798 2.074 7.865 3.748 12.163 4.935l37.196 10.272c11.863 3.276 20.148 14.159 20.148 26.467zm-69.507 8.776c3.798 2.074 7.865 3.748 12.163 4.935l37.196 10.271c11.863 3.276 20.148 14.16 20.148 26.467v14.852c-3.798-2.074-7.865-3.748-12.163-4.935l-37.196-10.272c-11.863-3.276-20.148-14.159-20.148-26.467zm99.507 41.674c0-12.307 8.286-23.191 20.148-26.467l37.196-10.272c4.298-1.187 8.365-2.861 12.163-4.935v14.851c0 12.308-8.285 23.191-20.148 26.467l-37.197 10.272c-4.298 1.187-8.365 2.861-12.163 4.935v-14.851zm-30-122.559v6.808c-3.798-2.074-7.865-3.748-12.163-4.935l-37.196-10.271c-11.863-3.276-20.148-14.16-20.148-26.467v-12.314l43.146 12.274c15.521 4.415 26.361 18.768 26.361 34.905zm-69.507 152.144v-5.958c3.798 2.074 7.865 3.748 12.163 4.935l37.196 10.271c11.863 3.276 20.148 14.16 20.148 26.467v11.464l-43.146-12.274c-15.521-4.414-26.361-18.768-26.361-34.905zm142.654 34.906-43.147 12.274v-11.464c0-12.307 8.286-23.19 20.148-26.467l37.196-10.272c4.298-1.187 8.365-2.861 12.163-4.935v5.958c0 16.137-10.84 30.491-26.36 34.906z"/><path d="m138.352 74.639v-74.639h-30v74.639c-5.503-3.623-11.595-6.47-18.152-8.335l-81.355-23.143v178.074c0 29.476 19.801 55.695 48.152 63.761l51.355 14.609v212.395h30v-212.396l51.355-14.609c28.351-8.065 48.152-34.285 48.152-63.761v-178.073l-81.354 23.143c-6.558 1.865-12.65 4.712-18.153 8.335zm-99.507 71.009c3.798 2.074 7.865 3.748 12.163 4.935l37.196 10.272c11.863 3.276 20.148 14.16 20.148 26.467v14.852c-3.798-2.074-7.865-3.749-12.163-4.936l-37.196-10.272c-11.863-3.276-20.148-14.159-20.148-26.467zm99.507 41.674c0-12.308 8.285-23.191 20.148-26.467l37.197-10.272c4.298-1.187 8.364-2.861 12.162-4.935v14.851c0 12.308-8.285 23.191-20.148 26.467l-37.197 10.272c-4.298 1.187-8.364 2.861-12.162 4.935zm-30-57.258v6.808c-3.798-2.074-7.865-3.748-12.163-4.935l-37.196-10.271c-11.863-3.276-20.148-14.16-20.148-26.467v-12.314l43.147 12.274c15.52 4.415 26.36 18.768 26.36 34.905zm-69.507 91.17v-10.286c3.798 2.074 7.865 3.748 12.163 4.935l37.196 10.271c11.863 3.276 20.149 14.16 20.149 26.467v15.791l-43.147-12.272c-15.521-4.415-26.361-18.769-26.361-34.906zm142.653 34.906-43.146 12.274v-15.791c0-12.307 8.285-23.191 20.148-26.467l37.196-10.272c4.298-1.187 8.365-2.861 12.163-4.935v10.286c0 16.136-10.84 30.49-26.361 34.905zm26.361-173.255v12.313c0 12.307-8.285 23.191-20.148 26.467l-37.196 10.272c-4.298 1.187-8.365 2.861-12.163 4.935v-6.808c0-16.137 10.84-30.49 26.361-34.905z"/></g></svg>