<svg id="Capa_1" enable-background="new 0 0 512 512" height="512" viewBox="0 0 512 512" width="512" xmlns="http://www.w3.org/2000/svg"><g><path d="m421 268.43v17.57h30v-45h-15c-8.271 0-15-6.729-15-15v-15h-45v30h17.57c4.527 12.768 14.662 22.903 27.43 27.43z"/><path d="m91 268.43c12.768-4.527 22.903-14.662 27.43-27.43h17.57v-30h-45v15c0 8.271-6.729 15-15 15h-15v45h30z"/><path d="m91 406v15h45v-30h-17.57c-4.527-12.768-14.662-22.903-27.43-27.43v-17.57h-30v45h15c8.271 0 15 6.729 15 15z"/><path d="m421 363.57c-12.768 4.527-22.903 14.662-27.43 27.43h-17.57v30h45v-15c0-8.271 6.729-15 15-15h15v-45h-30z"/><path d="m256 391c41.355 0 75-33.645 75-75s-33.645-75-75-75-75 33.645-75 75 33.645 75 75 75zm0-120c24.813 0 45 20.187 45 45s-20.187 45-45 45-45-20.187-45-45 20.187-45 45-45z"/><path d="m241 301h30v30h-30z" transform="matrix(.707 -.707 .707 .707 -148.465 273.574)"/><path d="m121 301h30v30h-30z" transform="matrix(.707 -.707 .707 .707 -183.612 188.721)"/><path d="m361 301h30v30h-30z" transform="matrix(.707 -.707 .707 .707 -113.318 358.426)"/><path d="m0 31v450h512c0-15.54 0-444.186 0-450zm482 60h-151v-30h151zm-271 60v-90h90v90zm-30-90v30h-151v-30zm-151 60h151v30h-151zm452 330h-452v-270h452zm-151-300v-30h151v30z"/></g></svg>