<svg id="Capa_1" enable-background="new 0 0 512 512" height="512" viewBox="0 0 512 512" width="512" xmlns="http://www.w3.org/2000/svg"><g><path d="m166 302c-24.813 0-45 20.187-45 45s20.187 45 45 45 45-20.187 45-45-20.187-45-45-45zm0 60c-8.271 0-15-6.729-15-15s6.729-15 15-15 15 6.729 15 15-6.729 15-15 15z"/><path d="m166 182c-24.813 0-45 20.187-45 45s20.187 45 45 45 45-20.187 45-45-20.187-45-45-45zm0 60c-8.271 0-15-6.729-15-15s6.729-15 15-15 15 6.729 15 15-6.729 15-15 15z"/><path d="m166 62c-24.813 0-45 20.187-45 45s20.187 45 45 45 45-20.187 45-45-20.187-45-45-45zm0 60c-8.271 0-15-6.729-15-15s6.729-15 15-15 15 6.729 15 15-6.729 15-15 15z"/><path d="m286 152c24.813 0 45-20.187 45-45s-20.187-45-45-45-45 20.187-45 45 20.186 45 45 45zm0-60c8.271 0 15 6.729 15 15s-6.729 15-15 15-15-6.729-15-15 6.728-15 15-15z"/><path d="m286 272c24.813 0 45-20.187 45-45s-20.187-45-45-45-45 20.187-45 45 20.186 45 45 45zm0-60c8.271 0 15 6.729 15 15s-6.729 15-15 15-15-6.729-15-15 6.728-15 15-15z"/><path d="m391 312.145v-312.145h-330v452h190.144c16.882 35.443 53.053 60 94.855 60 57.897 0 105-47.103 105-105 .001-41.802-24.556-77.973-59.999-94.855zm-300 109.855v-392h270v273.076c-4.901-.704-9.907-1.076-15-1.076-57.897 0-105 47.103-105 105 0 5.093.372 10.099 1.076 15zm180-15c0-15.265 4.594-29.471 12.458-41.33l41.329 41.33 21.213-21.213-41.329-41.33c11.859-7.863 26.065-12.457 41.329-12.457 41.355 0 75 33.645 75 75 0 15.264-4.594 29.47-12.457 41.329l-41.329-41.329-21.213 21.213 41.329 41.329c-11.859 7.863-26.066 12.458-41.33 12.458-41.356 0-75-33.645-75-75z"/></g></svg>