<?xml version="1.0" encoding="iso-8859-1"?>
<!-- Generator: Adobe Illustrator 19.0.0, SVG Export Plug-In . SVG Version: 6.00 Build 0)  -->
<svg version="1.1" id="Layer_1" xmlns="http://www.w3.org/2000/svg" xmlns:xlink="http://www.w3.org/1999/xlink" x="0px" y="0px"
	 viewBox="0 0 512 512" style="enable-background:new 0 0 512 512;" xml:space="preserve">
<g>
	<g>
		<path d="M321.488,157.814V26.837H0V253.07h47.628v101.116l88.477-101.116h54.407v130.977h185.383l88.477,101.116V384.046H512
			V157.814H321.488z M190.512,217.349h-70.617l-36.546,41.767v-41.767H35.721V62.558h250.047v95.256h-95.256V217.349z
			 M476.279,348.326h-47.628v41.767l-36.546-41.767H226.233V193.535h250.047V348.326z"/>
	</g>
</g>
<g>
	<g>
		<path d="M183.391,100.422c-1.857-3.715-4.286-6.716-7.287-9.002s-6.358-3.952-10.073-5.001c-3.715-1.047-7.384-1.572-11.002-1.572
			c-6.858,0-12.955,1.621-18.289,4.858c-5.336,3.24-9.241,7.765-11.716,13.574l17.289,12.288c0.572-0.666,1.166-1.5,1.786-2.5
			c0.618-1,1.38-1.975,2.286-2.929c0.904-0.951,1.975-1.761,3.215-2.429c1.237-0.666,2.715-1,4.429-1
			c2.286,0,4.286,0.643,6.001,1.929s2.572,3.024,2.572,5.215c0,2-0.714,3.835-2.143,5.501c-1.429,1.667-3.121,3.168-5.072,4.501
			c-1.954,1.335-3.907,2.478-5.858,3.429c-1.954,0.954-3.454,1.715-4.501,2.286c-2.572,1.336-4.621,2.811-6.144,4.429
			c-1.525,1.621-2.668,3.311-3.429,5.072c-0.763,1.763-1.24,3.621-1.429,5.572c-0.193,1.954-0.286,3.929-0.286,5.93h22.147
			c0-1.523,0.594-2.858,1.786-4.001c1.19-1.143,2.715-2.237,4.572-3.286c1.857-1.047,3.88-2.094,6.073-3.143
			c2.19-1.047,4.334-2.286,6.43-3.715c4.287-2.858,7.263-6.167,8.93-9.93c1.666-3.763,2.5-7.93,2.5-12.502
			C186.177,108.663,185.249,104.137,183.391,100.422z"/>
	</g>
</g>
<g>
	<g>
		<rect x="134.168" y="164.15" width="22.147" height="23.433"/>
	</g>
</g>
<g>
	<g>
		<rect x="339.73" y="216.112" width="27.148" height="59.583"/>
	</g>
</g>
<g>
	<g>
		<rect x="339.73" y="292.269" width="27.148" height="26.291"/>
	</g>
</g>
<g>
</g>
<g>
</g>
<g>
</g>
<g>
</g>
<g>
</g>
<g>
</g>
<g>
</g>
<g>
</g>
<g>
</g>
<g>
</g>
<g>
</g>
<g>
</g>
<g>
</g>
<g>
</g>
<g>
</g>
</svg>
