<svg id="Capa_1" enable-background="new 0 0 510 510" height="512" viewBox="0 0 510 510" width="512" xmlns="http://www.w3.org/2000/svg"><g><path d="m420 180h30v30h-30z"/><path d="m450 320.143c5.367-7.023 16.516-22.109 27.774-40.406 21.384-34.748 32.226-63.257 32.226-84.737 0-36.22-25.808-66.523-60-73.49 0-14.213 0-107.373 0-121.51h-450v510h510v-30h-60c0-15.803 0-143.1 0-159.857zm-30 99.857h-30v-30h30zm60-225c0 26.139-26.431 68.951-45 95.007-15.866-22.263-45-67.512-45-95.007 0-24.814 20.186-45 45-45s45 20.186 45 45zm-450-165h390v30h-390zm0 120h30v30h-30zm0 120h30v30h-30zm0 120h30v30h-30zm180 60v30h-60v-90h60v30h-30v30zm30 30v-30h30v-30h-30v-30h60v90zm90 0v-120h-210v120h-90v-30h60v-90h-60v-30h60v-90h-60v-30h60v-90h-60v-30h390v31.507c-33.95 6.989-58.309 36.167-59.908 69.859-.293 6.107.119 12.658 1.936 21.05 5.206 24.037 19.504 50.361 32.644 71.246 8.072 12.819 17.11 25.723 25.328 36.481v39.857h-60v90h60v30c-10.889 0-79.039 0-90 0z"/><path d="m120 330h90v-90h-90zm30-60h30v30h-30z"/><path d="m120 210h90v-90h-90zm30-60h30v30h-30z"/><path d="m240 330h90v-90h-90zm30-60h30v30h-30z"/><path d="m240 210h90v-90h-90zm30-60h30v30h-30z"/></g></svg>