<svg id="Capa_1" enable-background="new 0 0 511.209 511.209" height="512" viewBox="0 0 511.209 511.209" width="512" xmlns="http://www.w3.org/2000/svg"><g><path d="m474.373 216.742c0-35.841-29.159-65-65-65h-182.929l-5.603-25.761 51.087-10.428c17.011-3.472 31.652-13.362 41.226-27.846s12.934-31.83 9.461-48.841l-7.933-38.866-220.845 45.08c-18.65 3.807-34.699 14.652-45.188 30.536s-14.161 34.901-10.338 53.549l14.729 69.025v313.019h179.333v-251.667h66.536v59.833h20.797v191.833h104.667v-191.832h21.333v-59.833h28.667zm-58.667 72.634h-86.797v-29.833h86.797zm-66 191.833v-161.833h44.667v161.833zm-147.333-251.667v170.667h-119.334v-191.353l132.832-27.114h193.501c19.299 0 35 15.701 35 35v12.801h-241.999zm0 251.667h-119.334v-51h119.334zm-134.684-358.119c-2.196-10.777-.067-21.764 5.994-30.943 6.071-9.194 15.359-15.47 26.154-17.673l191.451-39.08 1.934 9.471c1.87 9.16.061 18.5-5.095 26.299-5.155 7.799-13.038 13.124-22.198 14.994l-80.859 16.506 11.401 52.42-116.865 23.854z"/></g></svg>