<svg id="Capa_1" enable-background="new 0 0 510 510" height="512" viewBox="0 0 510 510" width="512" xmlns="http://www.w3.org/2000/svg"><g><path d="m452.867 398.107-53.033-53.033c-17.545-17.545-46.094-17.545-63.639 0l-21.213 21.215c-7.476 7.477-45.375-2.949-84.853-42.428-18.161-18.16-32.689-38.857-39.859-56.783-6.014-15.035-5.546-25.09-2.566-28.068l21.212-21.215c17.585-17.583 17.589-46.052 0-63.639l-53.033-53.033c-17.545-17.547-46.095-17.547-63.64 0l-21.213 21.213c-15.337 15.338-24.249 34.852-26.488 58-7.311 75.602 57.286 163.718 111.34 217.771 51.533 51.534 132.99 111.893 206.098 111.893 26.286 0 50.641-8.007 69.674-27.039l21.213-21.213c17.546-17.545 17.546-46.094 0-63.641zm-318.197-275.771 53.033 53.035c5.86 5.859 5.862 15.349-.001 21.211l-10.606 10.607-74.246-74.246 10.606-10.608c5.863-5.861 15.35-5.861 21.214.001zm227.026 357.529c-49.679-.006-118.666-37.037-184.601-102.971-45.154-45.154-78.472-93.831-93.814-137.066-8.956-25.236-15.298-58.695-.281-84.308l75.271 75.273c-17.66 47.661 53.874 135.332 117.499 160.783 22.034 8.813 37.274 7.903 47.427 4.142l75.227 75.226c-10.4 5.999-22.797 8.923-36.728 8.921zm69.958-39.33-10.606 10.605-74.246-74.246 10.606-10.605c5.85-5.85 15.365-5.85 21.213-.002l53.033 53.033c5.862 5.864 5.862 15.352 0 21.215z"/><path d="m358.991 210c57.897 0 105-47.102 105-105s-47.103-105-105-105-105 47.102-105 105 47.103 105 105 105zm0-180c41.355 0 75 33.645 75 75s-33.645 75-75 75-75-33.645-75-75 33.645-75 75-75z"/><path d="m343.991 150h30v-30h30v-30h-30v-30h-30v30h-30v30h30z"/></g></svg>