<svg id="Capa_1" enable-background="new 0 0 512.013 512.013" height="512" viewBox="0 0 512.013 512.013" width="512" xmlns="http://www.w3.org/2000/svg"><g id="XMLID_582_"><path id="XMLID_585_" d="m177.096 182.029c40.88 0 71.708-19.274 71.708-44.834s-30.828-44.834-71.708-44.834-71.708 19.274-71.708 44.834c-.001 25.56 30.827 44.834 71.708 44.834zm0-59.668c27.368 0 41.708 11.022 41.708 14.834s-14.341 14.834-41.708 14.834-41.708-11.021-41.708-14.834 14.34-14.834 41.708-14.834z"/><path id="XMLID_586_" d="m372.159 250.034h30v50.788h-30z"/><path id="XMLID_589_" d="m506.176 302.277-16.059-41.27 16.059-41.272-16.059-41.271 21.896-56.269h-37.323c-42.125 0-83.94 9.916-121.615 28.434.732-4.422 1.116-8.903 1.116-13.434 0-32.726-19.339-62.987-54.456-85.209-32.985-20.874-76.54-32.37-122.641-32.37s-89.655 11.496-122.64 32.37c-35.115 22.222-54.454 52.484-54.454 85.209v237.622c0 32.726 19.339 62.987 54.456 85.209 32.985 20.874 76.539 32.37 122.64 32.37 52.431 0 101.741-15.041 135.286-41.265 42.318-33.083 95.612-51.302 150.066-51.302h49.564l-21.895-56.276zm-435.678-224.941c28.247-17.875 66.104-27.72 106.598-27.72s78.351 9.844 106.598 27.72c26.116 16.527 40.498 37.785 40.498 59.859s-14.382 43.332-40.498 59.859c-28.247 17.875-66.104 27.72-106.598 27.72s-78.351-9.844-106.598-27.72c-26.116-16.527-40.498-37.785-40.498-59.859s14.382-43.332 40.498-59.859zm397.651 292.494h-5.702c-20.373 0-40.604 2.288-60.288 6.7v-28.837h-30v37.356c-28.2 9.762-54.731 24.058-78.254 42.448-28.371 22.179-70.946 34.899-116.809 34.899-40.494 0-78.351-9.845-106.598-27.72-26.116-16.526-40.498-37.784-40.498-59.859v-171.615c7.01 6.892 15.176 13.33 24.456 19.203 32.985 20.874 76.54 32.37 122.64 32.37 46.101 0 89.656-11.496 122.641-32.37 7.86-4.974 14.923-10.353 21.162-16.07l5.906-4.472c14.102-10.677 29.341-19.75 45.355-27.108v28.408h30v-39.899c21.33-6.62 43.556-10.364 65.953-10.977l-10.187 26.179 16.059 41.271-16.059 41.272 16.06 41.271-16.059 41.276z"/></g></svg>