<svg id="Capa_1" enable-background="new 0 0 512 512" height="512" viewBox="0 0 512 512" width="512" xmlns="http://www.w3.org/2000/svg"><g><path d="m429.187 37.688h60.25v30h-60.25z" transform="matrix(.707 -.707 .707 .707 97.274 340.215)"/><path d="m391.625 0h30v60.25h-30z"/><path d="m451.749 90.376h60.25v30h-60.25z"/><path d="m270.53 411.794v-48.817h-30v36.39l-70.207 70.207-21.39-21.39 255.619-255.619-10.651-10.651 42.603-42.603-63.816-63.816-42.603 42.603-10.651-10.651-319.434 319.435 85.118 85.118 42.603-42.603 42.603 42.603zm-142.809 15.176-42.691-42.691 234.406-234.406 42.692 42.692zm244.968-309.05 21.39 21.39-21.39 21.39-21.39-21.39zm-287.571 351.653-42.692-42.692 21.39-21.39 42.692 42.692z"/></g></svg>