<svg id="Capa_1" enable-background="new 0 0 512 512" height="512" viewBox="0 0 512 512" width="512" xmlns="http://www.w3.org/2000/svg"><g><path d="m512 331.5v-30h-512v30h60v30h-60v150.5h512v-150.5h-60v-30zm-482 60h90v90.5h-90zm180 0h92v30.5h-92zm122 60.5v-60.5h30v90.5h-212v-90.5h30v60.5zm150 30h-90v-90.5h90zm-60-120.5h-332v-30h332z"/><path d="m256 272c74.99 0 136-61.01 136-136s-61.01-136-136-136c-74.991 0-136 61.01-136 136s61.009 136 136 136zm-104.934-121h29.887c1.6 27.424 7.567 53.083 17.239 73.805-25.017-16.34-42.736-42.953-47.126-73.805zm119.934 84.076v-84.076h30c-2.643 39.588-15.475 70.813-30 84.076zm0-114.076v-84.076c14.525 13.262 27.357 44.488 30 84.076zm-30-84.076v84.076h-30c2.643-39.588 15.475-70.813 30-84.076zm0 114.076v84.076c-14.525-13.262-27.357-44.488-30-84.076zm72.808 73.805c9.673-20.722 15.639-46.382 17.24-73.805h29.887c-4.391 30.852-22.111 57.465-47.127 73.805zm47.126-103.805h-29.887c-1.6-27.424-7.567-53.083-17.24-73.805 25.017 16.34 42.737 42.953 47.127 73.805zm-162.742-73.805c-9.672 20.722-15.639 46.381-17.239 73.805h-29.887c4.39-30.852 22.109-57.465 47.126-73.805z"/></g></svg>