<svg id="Capa_1" enable-background="new 0 0 512 512" height="512" viewBox="0 0 512 512" width="512" xmlns="http://www.w3.org/2000/svg"><g><path d="m376 121h-15v-76c0-24.813-20.187-45-45-45h-120c-24.813 0-45 20.187-45 45v76h-15c-24.813 0-45 20.187-45 45v316h60v30h30v-30h150v30h30v-30h60v-316c0-24.813-20.187-45-45-45zm-195-76c0-8.271 6.729-15 15-15h120c8.271 0 15 6.729 15 15v76h-150zm210 407h-270v-286c0-8.271 6.729-15 15-15h240c8.271 0 15 6.729 15 15z"/><path d="m316 271h-120c-24.813 0-45 20.187-45 45v106h210v-106c0-24.813-20.187-45-45-45zm15 121h-150v-76c0-8.271 6.729-15 15-15h120c8.271 0 15 6.729 15 15z"/><path d="m151 211h180v30h30v-60h-210z"/></g></svg>