<svg id="Layer_1" enable-background="new 0 0 510 510" height="512" viewBox="0 0 510 510" width="512" xmlns="http://www.w3.org/2000/svg"><g><path d="m185.201 444.245c24.25 0 56.371-4.155 77.738-22.923 38.82-34.097 24.497-98.583 23.868-101.311l-2.228-9.664c-39.375-6.784-87.662-7.582-117.946 16.091v-63.479c19.975-14.161 75-58.147 75-112.958 0-50.906-46.379-94.996-90-122.703-43.416 27.576-90 71.797-90 122.703 0 54.811 55.024 98.797 75 112.958v63.479c-30.418-23.777-78.548-22.879-117.946-16.091l-2.228 9.664c-.629 2.728-14.952 67.215 23.868 101.311l-.001-.001c21.37 18.771 53.487 22.925 77.739 22.924 6.993 0 13.329-.347 18.567-.786v36.541h-105v30h105 30 105v-30h-105v-36.541c5.24.44 11.575.786 18.569.786zm-1.79-92.776c18.465-16.219 54.648-16.65 75.68-14.678 1.71 15.736 2.211 46.041-15.948 61.99-18.467 16.22-54.651 16.651-75.681 14.679-1.71-15.735-2.211-46.041 15.949-61.991zm-91.777-201.469c0-38.66 42.046-73.602 59.999-86.758 17.964 13.163 60.001 48.101 60.001 86.758 0 29.975-25.275 57.711-45 74.795v-59.795h-30v59.794c-19.729-17.085-45-44.819-45-74.794zm44.209 263.456c-21.036 1.979-57.244 1.552-75.717-14.674l-.001-.001c-18.294-16.068-17.74-46.282-15.985-61.986 21.038-1.977 57.244-1.552 75.718 14.675 13.006 11.424 16.482 29.995 16.776 45.421v4.609c-.088 4.471-.411 8.555-.791 11.956z"/><path d="m391.634 0c-57.897 0-105 47.103-105 105s47.103 105 105 105 105-47.102 105-105-47.103-105-105-105zm0 180c-41.355 0-75-33.645-75-75s33.645-75 75-75 75 33.645 75 75-33.645 75-75 75z"/><path d="m406.634 60h-30v51.213l26.893 26.894 21.213-21.213-18.106-18.107z"/></g></svg>