<svg id="Capa_1" enable-background="new 0 0 512.015 512.015" height="512" viewBox="0 0 512.015 512.015" width="512" xmlns="http://www.w3.org/2000/svg"><g><path d="m330.888 367.214v-81.997c19.44-20.279 30.119-46.818 30.119-75v-45.217c0-29.519-21.434-54.11-49.553-59.071 7.588-10.915 12.053-24.157 12.053-38.429 0-37.22-30.28-67.5-67.5-67.5s-67.5 30.28-67.5 67.5c0 14.272 4.465 27.514 12.053 38.429-28.119 4.96-49.553 29.551-49.553 59.071v45.217c0 28.068 10.59 54.508 29.881 74.756v82.241c0 10.977-1.985 21.742-5.901 31.995l-30.816 80.699 84.078 32.106 27.639-72.378 27.64 72.378 84.078-32.106-30.817-80.698c-3.915-10.254-5.901-21.02-5.901-31.996zm-74.881-337.214c20.678 0 37.5 16.822 37.5 37.5s-16.822 37.5-37.5 37.5-37.5-16.822-37.5-37.5 16.823-37.5 37.5-37.5zm-75 135c0-16.542 13.458-30 30-30h90c16.542 0 30 13.458 30 30v45.217c0 20.956-8.16 40.657-22.979 55.475l-11.412 11.412c-2.143-4.495-5.072-8.707-8.789-12.424l-10.607-10.607 9.595-9.596c9.151-9.151 14.191-21.318 14.191-34.26v-45.217h-30v45.217c0 4.928-1.919 9.562-5.404 13.047l-9.596 9.596-9.596-9.596c-3.485-3.485-5.404-8.118-5.404-13.047v-45.217h-30v45.217c0 12.941 5.04 25.108 14.191 34.26l41.416 41.416c5.849 5.849 5.849 15.365 0 21.214-2.833 2.833-6.601 4.394-10.606 4.394-4.006 0-7.773-1.561-10.606-4.394l-41.415-41.415c-14.818-14.817-22.979-34.519-22.979-55.475zm50.032 255.614-20.114 52.672-28.026-10.702 20.114-52.673c5.225-13.684 7.875-28.049 7.875-42.697v-52.194l13.299 13.3c4.799 4.798 10.491 8.378 16.701 10.588v28.307c0 18.32-3.313 36.287-9.849 53.399zm69.813 52.672-20.115-52.672c-6.535-17.112-9.849-35.079-9.849-53.4v-28.228c6.302-2.202 12.079-5.807 16.938-10.667l13.062-13.062v51.956c0 14.648 2.649 29.014 7.875 42.698l20.114 52.672z"/><path d="m156.147 93.705-18.326-23.752c-29.751 22.955-46.814 57.599-46.814 95.047h30c0-28.078 12.808-54.064 35.14-71.295z"/><path d="m374.194 69.953-18.326 23.752c22.332 17.231 35.14 43.217 35.14 71.295h30c-.001-37.448-17.063-72.092-46.814-95.047z"/></g></svg>