<svg id="Capa_1" enable-background="new 0 0 512 512" height="512" viewBox="0 0 512 512" width="512" xmlns="http://www.w3.org/2000/svg"><g><path d="m165.625 164.379h180.75v30h-180.75z"/><path d="m256.001 224.629c-49.797 0-90.31 40.513-90.31 90.309 0 49.797 40.513 90.31 90.31 90.31 49.796 0 90.309-40.513 90.309-90.31.001-49.796-40.512-90.309-90.309-90.309zm60.31 90.309c0 5.614-.787 11.043-2.229 16.203l-43.08-24.865v-49.757c26.021 6.685 45.309 30.341 45.309 58.419zm-75.31-58.42v49.757l-43.081 24.866c-1.442-5.16-2.229-10.59-2.229-16.204.001-28.077 19.289-51.734 45.31-58.419zm-28.058 100.591 28.058-16.195v32.444c-10.82-2.78-20.469-8.502-28.058-16.249zm58.059 16.248v-32.443l28.058 16.194c-7.589 7.748-17.237 13.47-28.058 16.249z"/><path d="m468.21 15.088c-18.88 0-35.006 12.01-41.144 28.791h-342.132c-6.138-16.781-22.264-28.791-41.143-28.791-24.146 0-43.791 19.644-43.791 43.791 0 24.146 19.645 43.79 43.791 43.79 18.879 0 35.006-12.01 41.143-28.79h13.442v356.447l157.624 66.586 157.625-66.586v-356.447h13.442c6.137 16.78 22.264 28.79 41.143 28.79 24.146 0 43.79-19.645 43.79-43.79 0-24.147-19.645-43.791-43.79-43.791zm-424.419 57.581c-7.604 0-13.791-6.187-13.791-13.79 0-7.604 6.187-13.791 13.791-13.791s13.791 6.187 13.791 13.791c-.001 7.603-6.187 13.79-13.791 13.79zm212.209 391.677-127.625-53.914v-276.303h255.25v276.303zm127.625-360.217h-255.25v-30.25h255.25zm84.585-31.46c-7.604 0-13.791-6.187-13.791-13.79 0-7.604 6.187-13.791 13.791-13.791s13.79 6.187 13.79 13.791c0 7.603-6.187 13.79-13.79 13.79z"/></g></svg>