<svg id="Layer_1" enable-background="new 0 0 510 510" height="512" viewBox="0 0 510 510" width="512" xmlns="http://www.w3.org/2000/svg"><path d="m0 0v510h510v-510zm480 90h-60v-60h60zm-90 390h-120v-85.457l23.027-34.543h66.973v-66.973l34.542-23.027h85.458v120h-90zm-270-450h120v85.458l-23.028 34.542h-66.972v66.973l-34.542 23.027h-85.458v-120h90zm210 150v30h-30v-30zm10.458 60 22.5 15-22.5 15h-70.458v70.458l-15 22.5-15-22.5v-70.458h-70.458l-22.5-15 22.5-15h70.458v-70.458l15.001-22.5 14.999 22.499v70.459zm-10.458 60v30h-30v-30zm-150 30v-30h30v30zm0-120v-30h30v30zm-64.542 60 34.542 23.027v66.973h66.972l23.028 34.541v85.459h-120v-90h-90v-120zm279.084-30-34.542-23.027v-66.973h-66.972l-23.028-34.542v-85.458h120v90h90v120zm-304.542-210v60h-60v-60zm-60 390h60v60h-60zm390 60v-60h60v60z"/></svg>