<svg id="Capa_1" enable-background="new 0 0 512 512" height="512" viewBox="0 0 512 512" width="512" xmlns="http://www.w3.org/2000/svg"><g><path d="m512 223.162h-131.021v-64.015h-86.85v64.015h-30v-148.743c0-24.493 19.926-44.419 44.419-44.419s44.419 19.926 44.419 44.419v24.576h30v-24.576c-.001-41.035-33.385-74.419-74.42-74.419s-74.419 33.384-74.419 74.419v148.743h-28.128v-64.015h-86.85v64.015h-119.15v56.213l27.359 27.359v33.353c0 51.685 42.048 93.733 93.733 93.733h38.355v78.18h193.106v-78.18h38.355c51.685 0 93.733-42.049 93.733-93.733v-33.353l27.359-27.359zm-187.872-34.016h26.85v34.015h-26.85zm-174.978 0h26.85v34.015h-26.85zm-119.15 64.016h452v13.787l-16.213 16.213h-419.574l-16.213-16.214zm292.553 228.838h-133.106v-48.18h133.106zm132.088-141.914c0 35.143-28.59 63.733-63.733 63.733h-269.816c-35.143 0-63.733-28.591-63.733-63.733v-26.925h397.282z"/></g></svg>