<svg id="Capa_1" enable-background="new 0 0 512 512" height="512" viewBox="0 0 512 512" width="512" xmlns="http://www.w3.org/2000/svg"><g><path d="m437.02 74.98c-48.353-48.351-112.64-74.98-181.02-74.98s-132.667 26.629-181.02 74.98c-48.351 48.353-74.98 112.64-74.98 181.02s26.629 132.667 74.98 181.02c48.353 48.351 112.64 74.98 181.02 74.98s132.667-26.629 181.02-74.98c48.351-48.353 74.98-112.64 74.98-181.02s-26.629-132.667-74.98-181.02zm-21.214 340.826c-42.686 42.686-99.439 66.194-159.806 66.194s-117.12-23.508-159.806-66.194-66.194-99.439-66.194-159.806 23.508-117.12 66.194-159.806 99.439-66.194 159.806-66.194 117.12 23.508 159.806 66.194 66.194 99.439 66.194 159.806-23.508 117.12-66.194 159.806z"/><path d="m175.05 177.357h30v61.998h-30z"/><path d="m306.95 177.357h30v61.998h-30z"/><path d="m256 323.661c-13.842 0-27.279 2.886-39.66 8.429-9.037-21.537-41.873-75.873-41.873-75.873s-49.745 82.874-49.745 104.604c0 27.429 22.315 49.745 49.745 49.745 27.152 0 49.279-21.87 49.724-48.917 9.727-5.241 20.573-7.988 31.81-7.988 28.651 0 54.198 18.176 63.57 45.229l28.348-9.82c-13.555-39.123-50.493-65.409-91.919-65.409zm-81.534 56.905c-10.888 0-19.745-8.857-19.745-19.745 0-5.485 7.563-23.614 19.747-45.962 12.182 22.339 19.743 40.468 19.743 45.962 0 10.887-8.857 19.745-19.745 19.745z"/><path d="m138.238 144.525c9.579-8.838 22.016-13.303 35.033-12.576l1.677-29.953c-21.194-1.181-41.454 6.087-57.054 20.481-15.599 14.393-24.476 34.005-24.996 55.223l29.991.734c.319-13.028 5.771-25.071 15.349-33.909z"/><path d="m394.105 122.477c-15.6-14.394-35.862-21.667-57.054-20.481l1.677 29.953c13.008-.728 25.455 3.738 35.033 12.576s15.03 20.88 15.349 33.909l29.991-.734c-.519-21.218-9.396-40.83-24.996-55.223z"/></g></svg>