<svg id="Capa_1" enable-background="new 0 0 512 512" height="512" viewBox="0 0 512 512" width="512" xmlns="http://www.w3.org/2000/svg"><g><path d="m482 300v-45c0-57.897-47.103-105-105-105h-45v-30h-60v-32.58c12.764-4.527 22.893-14.656 27.42-27.42h62.58v-30h-62.58c-6.192-17.458-22.865-30-42.42-30s-36.228 12.542-42.42 30h-62.58v30h62.58c4.527 12.764 14.656 22.893 27.42 27.42v32.58h-60v30h-92v-54.271l-90-45v288.541l90-45v-54.27h107.041c13.697 18.204 35.475 30 59.959 30s46.262-11.796 59.959-30h60.041c8.271 0 15 6.729 15 15v45h-30v30h150v-30zm-225-270c8.271 0 15 6.729 15 15s-6.729 15-15 15-15-6.729-15-15 6.729-15 15-15zm-197 245.729-30 15v-191.458l30 15zm30-65.729v-30h92v15c0 5.136.521 10.152 1.509 15zm212-15c0 24.813-20.187 45-45 45s-45-20.187-45-45v-45h90zm120 105v-45c0-24.813-20.187-45-45-45h-46.509c.988-4.848 1.509-9.864 1.509-15v-15h45c41.355 0 75 33.645 75 75v45z"/><path d="m435 366.494-42.154 71.96c-11.228 19.169-8.099 43.528 7.609 59.237 9.228 9.227 21.495 14.309 34.545 14.309s25.317-5.082 34.545-14.309c15.707-15.709 18.837-40.068 7.608-59.237zm13.331 109.985c-3.56 3.561-8.295 5.521-13.331 5.521s-9.771-1.961-13.331-5.521c-6.063-6.063-7.271-15.464-2.938-22.861l16.269-27.772 16.268 27.771c4.334 7.398 3.126 16.799-2.937 22.862z"/></g></svg>