<svg id="Capa_1" enable-background="new 0 0 512 512" height="512" viewBox="0 0 512 512" width="512" xmlns="http://www.w3.org/2000/svg"><g><path d="m362.039 0h-212.078l-149.961 149.961v212.078l149.961 149.961h212.078l149.961-149.961v-212.078zm78.481 163.333-91.853-91.853 12.426-30 109.426 109.426zm-115.76 258.667h-137.52l-97.24-97.24v-137.52l97.24-97.24h137.52l97.24 97.24v137.52zm-3.81-362h-129.9l-12.426-30h154.753zm-157.617 11.48-91.853 91.853-30-12.426 109.427-109.426zm-103.333 119.57v129.9l-30 12.426v-154.752zm11.48 157.617 91.853 91.853-12.426 30-109.426-109.427zm119.57 103.333h129.9l12.426 30h-154.752zm157.617-11.48 91.853-91.853 30 12.426-109.427 109.426zm103.333-119.57v-129.9l30-12.426v154.753z"/><path d="m241 119.241h30v30h-30z"/><path d="m241 361.482h30v30h-30z"/><path d="m362.121 240.361h30v30h-30z"/><path d="m119.879 240.361h30v30h-30z"/><path d="m271 181.042h-30v89.958h77.819v-30h-47.819z"/></g></svg>