<svg id="Capa_1" enable-background="new 0 0 510.661 510.661" height="512" viewBox="0 0 510.661 510.661" width="512" xmlns="http://www.w3.org/2000/svg"><g id="XMLID_621_"><path id="XMLID_636_" d="m375.723 0h-240.785c-52.499 0-95.21 42.711-95.21 95.21v300.962h67.584v114.489h296.037v-114.489h67.584v-300.962c.001-52.499-42.711-95.21-95.21-95.21zm-120.392 75.57-35.677-45.57h71.354zm-185.603 290.602v-32.845h37.584v32.845zm67.584-237.612h-30v174.768h-37.584v-208.118c0-35.957 29.253-65.21 65.21-65.21h46.615l58.777 75.076v375.585h-103.018zm303.622 237.612h-37.584v-32.845h37.584zm-37.585-62.844v-174.768h-30v352.102h-103.018v-375.586l58.777-75.076h46.615c35.957 0 65.21 29.253 65.21 65.21v208.117h-37.584z"/><path id="XMLID_645_" d="m300.801 178.661h42v30h-42z"/><path id="XMLID_647_" d="m179.395 232.994h30v30h-30z"/><path id="XMLID_648_" d="m179.395 310.985h30v30h-30z"/><path id="XMLID_649_" d="m179.395 388.975h30v30h-30z"/></g></svg>