<svg id="Capa_1" enable-background="new 0 0 510 510" height="512" viewBox="0 0 510 510" width="512" xmlns="http://www.w3.org/2000/svg"><path d="m360 122.58v-17.58c0-31.031-30.817-52.77-60-42.42v-17.58c0-24.813-20.186-45-45-45-20.919 0-38.288 14.204-43.425 33.177-29.416-11.701-61.575 10.063-61.575 41.823v92.58c-4.695-1.665-9.741-2.58-15-2.58-24.813 0-45 20.186-45 45v125l45 60v115h240v-115l45-60v-170c0-31.031-30.817-52.77-60-42.42zm-195 357.42v-30h180v30zm225-155-45 60v35h-180v-35l-45-60v-115c0-8.271 6.729-15 15-15s15 6.729 15 15v60h30c0-5.43 0-185.82 0-195 0-8.271 6.729-15 15-15s15 6.729 15 15v150h30c0-7.854 0-171.408 0-180 0-8.283 6.719-15 15-15 8.272 0 15 6.729 15 15v180h30v-120c0-8.271 6.728-15 15-15s15 6.729 15 15v120h30v-60c0-8.271 6.728-15 15-15s15 6.729 15 15z"/></svg>