<svg height="512pt" viewBox="0 0 512 512" width="512pt" xmlns="http://www.w3.org/2000/svg"><path d="m391 155.730469-120-60v-5.730469h15c41.355469 0 75-33.644531 75-75v-15h-120v95.730469l-120 60v114.269531h-121v242h512v-242h-121zm-120-125.742188h57.429688c-6.191407 17.460938-22.871094 30.011719-42.429688 30.011719h-15zm30 452.011719h-30v-92h30zm-60 0h-30v-92h30zm241-182v182h-31v-62h-30v62h-30v-62h-30v62h-30v-122h-150v122h-30v-62h-30v62h-30v-62h-30v62h-31v-182h121v-125.730469l105-52.5 105 52.5v125.730469zm0 0"/><path d="m361 330h30v60h-30zm0 0"/><path d="m301 270h30v60h-30zm0 0"/><path d="m241 270h30v60h-30zm0 0"/><path d="m181 270h30v60h-30zm0 0"/><path d="m421 330h30v60h-30zm0 0"/><path d="m61 330h30v60h-30zm0 0"/><path d="m121 330h30v60h-30zm0 0"/><path d="m256 150c-24.8125 0-45 20.1875-45 45s20.1875 45 45 45 45-20.1875 45-45-20.1875-45-45-45zm0 60c-8.269531 0-15-6.730469-15-15s6.730469-15 15-15 15 6.730469 15 15-6.730469 15-15 15zm0 0"/></svg>