<svg id="Capa_1" enable-background="new 0 0 512 512" height="512" viewBox="0 0 512 512" width="512" xmlns="http://www.w3.org/2000/svg"><g><path d="m274.107 212v-150h-90v253.933c-16.884-16.882-39.353-39.346-62.58-62.567l-63.634 63.634c162.941 162.939 146.638 146.641 156.213 156.217v38.783h210v-41.459l30-60v-198.541zm-30.107 248.89-143.68-143.89 21.21-21.21c45.735 45.725 80.376 80.365 92.577 92.564v-296.354h30v210h30v-60h30v60h30v-60h30v60h30v-60h30v161.459l-30 60v18.541h-150z"/><path d="m229.107 30c41.355 0 75 33.645 75 75h30c0-57.897-47.103-105-105-105s-105 47.103-105 105h30c0-41.355 33.645-75 75-75z"/></g></svg>