<svg id="Capa_1" enable-background="new 0 0 512 512" height="512" viewBox="0 0 512 512" width="512" xmlns="http://www.w3.org/2000/svg"><g><path d="m512 0h-512v120h30v392h452v-392h30zm-452 482v-362h60v362zm302-202.88h-212v-159.12h212zm-212 30h91v172.88h-91zm121 172.88v-172.88h91v172.88zm181 0h-60v-362h60zm30-392h-452v-60h452z"/><path d="m201 244.561h30v-30h50v30h30v-30h20v-30h-20v-30h-30v30h-50v-30h-30v30h-20v30h20z"/><path d="m181 380.561h30v30h-30z"/><path d="m301 380.561h30v30h-30z"/></g></svg>