<svg id="Capa_1" enable-background="new 0 0 512 512" height="512" viewBox="0 0 512 512" width="512" xmlns="http://www.w3.org/2000/svg"><g><path d="m308.5 181.154v-52.605c14.383-14.065 22.5-33.199 22.5-53.549 0-41.355-33.645-75-75-75s-75 33.645-75 75c0 20.35 8.117 39.484 22.5 53.549v52.605c-46.666 7.237-82.5 47.684-82.5 96.346v234.5h270v-234.5c0-48.662-35.834-89.109-82.5-96.346zm-75-44.332h45v43.178h-45zm22.5-106.822c24.813 0 45 20.187 45 45 0 12.059-4.761 23.408-13.203 31.822h-63.593c-8.443-8.414-13.204-19.763-13.204-31.822 0-24.813 20.187-45 45-45zm105 452h-210v-204.5c0-37.22 30.28-67.5 67.5-67.5h75c37.22 0 67.5 30.28 67.5 67.5z"/><path d="m293.5 240h-75c-20.678 0-37.5 16.822-37.5 37.5v174.5h150v-174.5c0-20.678-16.822-37.5-37.5-37.5zm7.5 182h-90v-144.5c0-4.136 3.364-7.5 7.5-7.5h75c4.136 0 7.5 3.364 7.5 7.5z"/><path d="m241 362h30v30h-30z"/></g></svg>