<svg id="Capa_1" enable-background="new 0 0 512 512" height="512" viewBox="0 0 512 512" width="512" xmlns="http://www.w3.org/2000/svg"><g><path d="m421.787 139.032c4.099-36.517-7.816-74.506-35.76-102.449-48.736-48.738-128.039-48.738-176.776 0-12.274 12.274-21.453 26.488-27.545 41.662l-181.706 120.68v313.046h512v-313.046zm-212.536 74.328c3.589 3.59 7.349 6.907 11.245 9.968l-96.099 96.097c-2.833 2.833-6.6 4.394-10.606 4.394-4.007 0-7.773-1.561-10.607-4.395-2.833-2.832-4.393-6.599-4.393-10.605s1.561-7.773 4.394-10.606l96.098-96.098c3.061 3.896 6.379 7.655 9.968 11.245zm-127.279 127.278c8.499 8.5 19.8 13.181 31.82 13.181 11.72 0 22.747-4.461 31.169-12.561l37.978 25.214-152.939 101.536v-203.073l41.777 27.736c-1.953 5.086-2.986 10.536-2.986 16.148.001 12.02 4.682 23.321 13.181 31.819zm165.732 18.847c5.04-3.347 11.553-3.348 16.592 0l184.496 122.486h-385.584zm81.356 6.987 152.94-101.537v203.073zm152.94-151.455v13.907l-180.06 119.543-21.05-13.975c-15.119-10.039-34.659-10.038-49.779-.001l-21.051 13.976-43.438-28.839 80.377-80.376c16.079 7.103 33.359 10.661 50.64 10.661 32.01 0 64.02-12.184 88.388-36.553 12.724-12.724 22.119-27.534 28.2-43.336zm-251.536-157.222c18.522-18.522 42.845-27.78 67.175-27.78 24.324 0 48.657 9.263 67.175 27.78 37.041 37.041 37.041 97.311 0 134.352-37.041 37.039-97.309 37.039-134.35 0-37.04-37.041-37.04-97.311 0-134.352zm-57.667 62.42c-.712 18.856 2.808 37.842 10.563 55.396l-93.232 93.232-60.128-39.918v-13.907z"/><path d="m322.389 100.222 21.213-21.213c-25.344-25.344-66.58-25.344-91.924 0l21.213 21.213c13.646-13.646 35.851-13.646 49.498 0z"/></g></svg>