<svg id="Capa_1" enable-background="new 0 0 512 512" height="512" viewBox="0 0 512 512" width="512" xmlns="http://www.w3.org/2000/svg"><g><path d="m475.254 122c-10.273 0-20.551.531-30.781 1.578v-100.593h-30v45h-15c-8.271 0-15-6.729-15-15h-30c0 24.813 20.187 45 45 45h15v30.172c-25.751 5.242-50.839 13.776-74.364 25.394-37.69 18.611-79.83 28.449-121.862 28.449h-218.247v330h512v-390zm-257.007 90c46.615 0 93.347-10.91 135.145-31.551 37.689-18.611 79.829-28.449 121.862-28.449h6.746v90h-6.746-181.5c-42.033 0-84.172-9.838-121.862-28.449-1.062-.525-2.13-1.039-3.199-1.551zm263.753 150h-6.746-181.5c-42.033 0-84.172-9.838-121.862-28.449-1.062-.525-2.13-1.039-3.199-1.551h49.554c46.615 0 93.347-10.91 135.145-31.551 37.689-18.611 79.829-28.449 121.862-28.449h6.746zm-445.253-150c42.033 0 84.172 9.838 121.862 28.449 41.797 20.641 88.53 31.551 135.145 31.551h49.554c-1.069.512-2.137 1.026-3.199 1.551-37.69 18.611-79.83 28.449-121.862 28.449h-181.5-6.747v-90zm-6.747 120h6.747c42.033 0 84.172 9.838 121.862 28.449 41.797 20.641 88.53 31.551 135.145 31.551h49.554c-1.069.512-2.137 1.026-3.199 1.551-37.69 18.611-79.83 28.449-121.862 28.449h-68.199v-35h-30v35h-30v-35h-30v35h-30.048zm452 150h-452v-30h188.247c46.615 0 93.347-10.91 135.145-31.551 37.689-18.611 79.829-28.449 121.862-28.449h6.746z"/><path d="m55 110c30.327 0 55-24.673 55-55s-24.673-55-55-55-55 24.673-55 55 24.673 55 55 55zm0-80c13.785 0 25 11.215 25 25s-11.215 25-25 25-25-11.215-25-25 11.215-25 25-25z"/></g></svg>