<svg id="Capa_1" enable-background="new 0 0 512 512" height="512" viewBox="0 0 512 512" width="512" xmlns="http://www.w3.org/2000/svg"><g><path d="m437 0h-362c-41.355 0-75 33.645-75 75v224.644h30.041v182.356h-30.041v30h89.919v-30h-29.878v-182.356h29.959v-59.761h30v242.117h272v-242.117h30v59.761h30.121v182.356h-30.04v30h89.919v-30h-29.879v-182.356h29.879v-224.644c0-41.355-33.645-75-75-75zm-407 180h30v89.644h-30zm60 29.883v-29.883h30v29.883zm272 242.117h-212v-272h30v151.617h30v-30.205h92v90.588h-31v-60.383h-30v60.383h-31v-30.235h-30v60.235h152v-180.765h-30v30.177h-31v-59.883h-30v59.883h-31v-91.412h92v31.529h30v-31.529h30zm30-242.117v-29.883h30v29.883zm90 59.761h-30v-89.644h30zm-452-119.644v-75c0-24.813 20.187-45 45-45h362c24.813 0 45 20.187 45 45v75z"/><path d="m60 75h30v30h-30z"/><path d="m120 75h30v30h-30z"/><path d="m180 75h30v30h-30z"/><path d="m302 75h150v30h-150z"/></g></svg>