<svg id="Capa_1" enable-background="new 0 0 512 512" height="512" viewBox="0 0 512 512" width="512" xmlns="http://www.w3.org/2000/svg"><g><path d="m59.783 59.826h30v30h-30z"/><path d="m323.782 59.826h30v30h-30z"/><path d="m59.783 323.826h30v30h-30z"/><path d="m323.782 323.826h30v30h-30z"/><path d="m482 0v351.892c0 71.742-58.367 130.108-130.109 130.108-49.476 0-92.586-27.761-114.582-68.521h176.169v-413.479h-413.478v413.479h204.108c24.179 57.801 81.312 98.521 147.783 98.521 88.284 0 160.109-71.824 160.109-160.108v-351.892zm-452 383.479v-353.479h353.478v353.479h-157.81c-2.533-10.117-3.885-20.696-3.885-31.587v-20.19c40.848-7.129 72-42.844 72-85.702v-55h30v-30h-234v30h30v55c0 42.857 31.151 78.573 72 85.702v20.19c0 10.811 1.083 21.372 3.136 31.587zm119.783-192.479h114v55c0 31.43-25.57 57-57 57s-57-25.57-57-57z"/></g></svg>