<svg id="Capa_1" enable-background="new 0 0 512 512" height="512" viewBox="0 0 512 512" width="512" xmlns="http://www.w3.org/2000/svg"><g><path d="m271 366.001h-30v18.352l-15.893-9.176-15 25.98 15.894 9.176-15.894 9.177 15 25.98 15.893-9.176v18.352h30v-18.352l15.894 9.176 15-25.98-15.894-9.177 15.894-9.176-15-25.98-15.894 9.176z"/><path d="m167.448 375.177-15.894 9.176v-18.352h-30v18.352l-15.893-9.176-15 25.98 15.894 9.176-15.894 9.177 15 25.98 15.893-9.176v18.352h30v-18.352l15.894 9.176 15-25.98-15.894-9.177 15.894-9.176z"/><path d="m344.553 445.49 15.892-9.176v18.352h30v-18.352l15.894 9.176 15-25.98-15.894-9.177 15.894-9.176-15-25.98-15.894 9.176v-18.352h-30v18.352l-15.892-9.176-15 25.98 15.893 9.176-15.893 9.177z"/><path d="m400.572 216c.279-3.465.428-6.965.428-10.5v-205.5h-90v205.5c0 3.631-.481 7.15-1.382 10.5h-78.212c-.917-3.379-1.405-6.904-1.405-10.5v-128.788l-116.743 88.954 26.742 26.742v13.092c0 3.521.146 7.022.422 10.5h-105.039v296h441.234v-296zm-59.572-10.5v-175.5h30v175.5c0 3.546-.194 7.048-.555 10.5h-30.243c.518-3.427.798-6.93.798-10.5zm-141-68.212v68.212c0 29.107 18.279 55.602 45.484 65.929 6.084 2.31 10.016 7.864 10.016 14.15 0 4.987-2.35 9.475-6.447 12.311-4.135 2.862-9.218 3.484-13.943 1.706-18.93-7.123-35.124-19.671-46.83-36.285-11.959-16.973-18.28-36.963-18.28-57.811v-25.518l-11.257-11.258zm246.617 344.712h-381.234v-236h81.031c3.99 12.236 9.794 23.877 17.342 34.59 15.186 21.552 36.206 37.833 60.788 47.084 5.158 1.941 10.548 2.896 15.911 2.896 9.054 0 18.029-2.722 25.672-8.012 12.132-8.396 19.374-22.221 19.374-36.979 0-16.494-9.314-31.708-23.704-39.579h184.821v236z"/></g></svg>