<svg id="Capa_1" enable-background="new 0 0 512 512" height="512" viewBox="0 0 512 512" width="512" xmlns="http://www.w3.org/2000/svg"><g><path d="m346.794 134.719-18.593-14.874v-73.47c0-25.571-20.804-46.375-46.375-46.375h-51.651c-25.572 0-46.375 20.804-46.375 46.375v73.469l-18.593 14.874c-15.921 12.737-25.051 31.734-25.051 52.122v325.16h231.69v-325.159c-.001-20.389-9.132-39.386-25.052-52.122zm-176.639 347.281v-51h15.106c28.372 0 55.756-8.452 79.193-24.443 18.433-12.576 39.971-19.224 62.285-19.224h15.106v94.667zm77.391-100.224c-18.432 12.577-39.97 19.224-62.285 19.224h-15.106v-160h171.69v116.333h-15.106c-28.372 0-55.756 8.453-79.193 24.443zm94.299-170.776h-171.69v-24.159c0-11.225 5.027-21.684 13.792-28.696l18.931-15.145h106.244l18.931 15.145c8.765 7.012 13.792 17.471 13.792 28.696zm-128.046-164.625c0-9.029 7.346-16.375 16.375-16.375h51.651c9.029 0 16.375 7.346 16.375 16.375v66.625h-84.402v-66.625z"/><path d="m208 285.667h96v30h-96z"/></g></svg>