<svg id="Capa_1" enable-background="new 0 0 501.958 501.958" height="512" viewBox="0 0 501.958 501.958" width="512" xmlns="http://www.w3.org/2000/svg"><g><path d="m235.235 198.48h106.282v30h-106.282z" transform="matrix(.707 -.707 .707 .707 -66.49 266.441)"/><path d="m475.598 26.27-.76-.759-.037-.028c-33.385-33.943-92.533-33.946-125.916-.001 0-.001-174.403 174.392-174.403 174.392l-54.98 115.714c-.183.186-106.085 106.089-106.249 106.263-8.761 9.07-13.465 21.009-13.246 33.617-.073 25.318 22.469 46.949 47.202 46.458 11.8 0 23.601-4.44 32.796-13.321l106.264-106.25 115.715-54.98 173.608-173.609c35.152-35.149 35.155-92.343.006-127.496zm-416.514 440.832c-6.707 6.398-17.153 6.373-23.83-.076-6.755-6.26-6.99-17.723-.499-24.253l42.966-42.97 24.334 24.334zm225.348-164.603-115.714 54.98-45.45 45.445-24.336-24.336 45.445-45.45 54.98-115.713 117.5-117.5 85.074 85.075zm169.947-169.947-31.235 31.235-31.931-31.931 35.894-35.894-21.213-21.212-35.894 35.893-31.931-31.931 31.24-31.24c23.5-23.51 61.804-23.439 85.221.157 23.307 23.467 23.255 61.518-.151 84.923z"/></g></svg>