<svg id="Capa_1" enable-background="new 0 0 512 512" height="512" viewBox="0 0 512 512" width="512" xmlns="http://www.w3.org/2000/svg"><g><path d="m151 150c24.813 0 45-20.187 45-45v-15h-30v15c0 8.271-6.729 15-15 15s-15-6.729-15-15v-60c0-8.271 6.729-15 15-15s15 6.729 15 15v15h30v-15c0-24.813-20.187-45-45-45s-45 20.187-45 45v60c0 24.813 20.187 45 45 45z"/><path d="m241 90h30v60h30c0-21.425 0-83.666 0-105 0-24.813-20.187-45-45-45s-45 20.187-45 45v105h30zm0-45c0-8.271 6.729-15 15-15s15 6.729 15 15v15h-30z"/><path d="m346 76.847 18.288 73.153h41.712v-150h-30v73.153l-18.288-73.153h-41.712v150h30z"/><path d="m173.5 300h-37.5v-30h15v-30h-15v-30h37.5v-30h-67.5v150h67.5z"/><path d="m45 330c24.813 0 45-20.187 45-45v-15h-30v15c0 8.271-6.729 15-15 15s-15-6.729-15-15v-60c0-8.271 6.729-15 15-15s15 6.729 15 15v15h30v-15c0-24.813-20.187-45-45-45s-45 20.187-45 45v60c0 24.813 20.187 45 45 45z"/><path d="m406 210v-30h-67.5v150h67.5v-30h-37.5v-30h22.5v-30h-22.5v-30z"/><path d="m188.5 180v150h60v-30h-30v-120z"/><path d="m263.5 180v150h60v-30h-30v-120z"/><path d="m467 180h-45v150h45c24.813 0 45-20.187 45-45v-60c0-24.813-20.187-45-45-45zm15 105c0 8.271-6.729 15-15 15h-15v-90h15c8.271 0 15 6.729 15 15z"/><path d="m256 512c41.355 0 75-33.645 75-75s-33.645-75-75-75-75 33.645-75 75 33.645 75 75 75zm0-30c-6.939 0-13.514-1.581-19.389-4.397l59.992-59.992c2.816 5.874 4.397 12.45 4.397 19.389 0 24.813-20.187 45-45 45zm0-90c6.939 0 13.514 1.581 19.389 4.397l-59.992 59.992c-2.816-5.874-4.397-12.45-4.397-19.389 0-24.813 20.187-45 45-45z"/></g></svg>