<svg id="Capa_1" enable-background="new 0 0 512 512" height="512" viewBox="0 0 512 512" width="512" xmlns="http://www.w3.org/2000/svg"><g><g><path d="m135 347h-30v30h-30v30h30v30h30v-30h30v-30h-30z"/></g><g><path d="m512 437h-41.882c-5.439-21.053-22.048-37.663-43.101-43.101v-136.899c0-24.813-20.187-45-45-45h-153.477v-60.268h15c24.813 0 45-20.187 45-45s-20.187-45-45-45h-108.54v-61.732h-59.68c-41.532 0-75.32 33.788-75.32 75.32h30c0-24.989 20.331-45.32 45.32-45.32h29.68v242.936c-59.115 7.404-105 57.975-105 119.064 0 66.168 53.832 120 120 120s120-53.832 120-120c0-10.434-1.341-20.559-3.856-30.217h160.872v32.115c-25.849 6.677-45 30.195-45 58.101 0 33.084 26.916 60 60 60 27.906 0 51.424-19.151 58.101-45h41.883zm-129.983-195c8.271 0 15 6.729 15 15v15h-168.477v-30zm-183.477 30h-63.54v-120.268h63.54zm45-180.268c8.271 0 15 6.729 15 15s-6.729 15-15 15h-108.54v-30zm-123.54 390.268c-49.626 0-90-40.374-90-90s40.374-90 90-90 90 40.374 90 90-40.374 90-90 90zm103.763-150.217c-6.527-11.203-14.816-21.257-24.484-29.783h197.738v29.783zm188.254 150.217c-16.542 0-30-13.458-30-30s13.458-30 30-30 30 13.458 30 30-13.458 30-30 30z"/></g></g></svg>