<svg id="Capa_1" enable-background="new 0 0 512 512" height="512" viewBox="0 0 512 512" width="512" xmlns="http://www.w3.org/2000/svg"><g><path d="m286.578 123.182c15.208-7.256 27.431-20.019 34.012-36.073 8.796-21.455 6.479-45.814-6.195-65.161l-14.379-21.946-25.094 16.441 14.379 21.945c7.256 11.076 8.576 25.035 3.531 37.341-4.777 11.889-15.858 21.228-28.855 23.496-108.514 19.107-216.506 103.989-263.977 156.775 82.001 88.677 190.951 144.599 263.972 156.773 12.269 2.017 23.977 11.22 28.86 23.497 5.045 12.306 3.725 26.265-3.531 37.34l-14.379 21.946 25.094 16.441 14.379-21.947c12.675-19.346 14.991-43.705 6.195-65.16-6.581-16.055-18.804-28.817-34.011-36.073 29.403-37.824 45.344-84.092 45.344-132.818-.001-48.725-15.941-94.993-45.345-132.817zm10.757 173.755c-15.251-7.43-25.663-23.235-25.663-40.937s10.412-33.507 25.663-40.937c5.995 26.931 5.995 54.943 0 81.874zm-22.553 56.128c-16.692-7.344-31.513-19.076-42.473-33.814-13.664-18.375-20.887-40.247-20.887-63.251s7.223-44.876 20.887-63.251c10.96-14.738 25.781-26.47 42.473-33.814 5.328 8.774 9.877 17.893 13.63 27.262-10.813 4.445-20.552 11.384-28.335 20.373-11.869 13.707-18.405 31.262-18.405 49.431s6.536 35.724 18.405 49.431c7.783 8.989 17.521 15.928 28.335 20.373-3.753 9.368-8.302 18.487-13.63 27.26zm-232.871-97.057c28.562-27.168 112.761-100.41 212.832-124.178.693.779 1.383 1.561 2.061 2.348-19.058 9.434-35.611 23.246-48.568 40.669-17.541 23.589-26.813 51.651-26.813 81.153s9.272 57.564 26.813 81.153c12.957 17.423 29.51 31.235 48.568 40.669-.674.783-1.359 1.559-2.048 2.333-88.21-21.957-160.151-75.12-212.845-124.147z"/><path d="m421.567 282.78-23.708-18.383-40.33 52.012 39.972 51.702 23.734-18.349-14.217-18.39h104.982v-30h-104.849z"/><path d="m407.151 180.863 14.415-18.591-23.707-18.382-40.33 52.01 39.972 51.703 23.734-18.35-14.217-18.39h104.982v-30z"/></g></svg>