<svg id="Layer_1" enable-background="new 0 0 511.977 511.977" height="512" viewBox="0 0 511.977 511.977" width="512" xmlns="http://www.w3.org/2000/svg"><g><path d="m341.879 143.383h-171.804l-38.739 81.603v110.424h28.223v21.178h30v-21.178h132.837v21.178h30v-21.178h28.224v-110.425zm-152.837 30h133.87l18.981 39.982h-171.832zm-27.706 69.982h189.283v62.044h-189.283z"/><path d="m436.999 74.978c-48.35-48.35-112.634-74.978-181.011-74.978s-132.661 26.628-181.01 74.978-74.978 112.633-74.978 181.01 26.628 132.661 74.978 181.011 112.634 74.978 181.011 74.978 132.661-26.628 181.011-74.978 74.978-112.634 74.978-181.011-26.629-132.661-74.979-181.01zm-21.213 340.808c-42.684 42.684-99.435 66.19-159.798 66.19s-117.114-23.506-159.798-66.19-66.19-99.434-66.19-159.798 23.507-117.114 66.19-159.798 99.435-66.19 159.798-66.19 117.114 23.507 159.798 66.19 66.19 99.435 66.19 159.798-23.506 117.115-66.19 159.798z"/><path d="m255.988 53.474c-111.667 0-202.515 90.848-202.515 202.515s90.848 202.515 202.515 202.515 202.515-90.848 202.515-202.515-90.848-202.515-202.515-202.515zm0 375.029c-95.125 0-172.515-77.39-172.515-172.515s77.39-172.515 172.515-172.515 172.515 77.39 172.515 172.515-77.39 172.515-172.515 172.515z"/><path d="m293.614 258.321h30.002v30h-30.002z"/><path d="m188.338 258.321h30.002v30h-30.002z"/></g></svg>