<?xml version="1.0" encoding="iso-8859-1"?>
<!-- Generator: Adobe Illustrator 19.0.0, SVG Export Plug-In . SVG Version: 6.00 Build 0)  -->
<svg xmlns="http://www.w3.org/2000/svg" xmlns:xlink="http://www.w3.org/1999/xlink" version="1.1" id="Layer_1" x="0px" y="0px" viewBox="0 0 512 512" style="enable-background:new 0 0 512 512;" xml:space="preserve">
<g>
	<g>
		<path d="M336.067,0.001l-22.083,22.083l14.723,14.723L203.048,162.465l-84.654,3.681L0,284.538l103.057,103.057l118.394-118.394    l3.68-84.652L350.79,58.891l14.722,14.722l22.083-22.083L336.067,0.001z M190.777,255.71l-87.72,87.719l-58.889-58.89    l87.72-87.719l38.479-1.673l-48.907,48.907l22.083,22.083l48.907-48.907L190.777,255.71z"/>
	</g>
</g>
<g>
	<g>
		<path d="M460.471,124.405l-22.083,22.083l14.722,14.723L327.452,286.869l-84.654,3.681L124.404,408.943l103.057,103.057    l118.394-118.394l3.681-84.654l125.658-125.657l14.722,14.722L512,175.934L460.471,124.405z M315.182,380.113l-87.72,87.72    l-58.889-58.89l87.72-87.719l38.479-1.673l-48.907,48.907l22.083,22.083l48.907-48.907L315.182,380.113z"/>
	</g>
</g>
<g>
</g>
<g>
</g>
<g>
</g>
<g>
</g>
<g>
</g>
<g>
</g>
<g>
</g>
<g>
</g>
<g>
</g>
<g>
</g>
<g>
</g>
<g>
</g>
<g>
</g>
<g>
</g>
<g>
</g>
</svg>
