<svg id="Capa_1" enable-background="new 0 0 512 512" height="512" viewBox="0 0 512 512" width="512" xmlns="http://www.w3.org/2000/svg"><g><path d="m391.6 37.667c-36.434-24.29-84.591-37.667-135.6-37.667s-99.165 13.377-135.6 37.667c-38.304 25.536-59.4 60.103-59.4 97.333 0 29.312 13.108 57.103 37.908 80.37 23.108 21.681 54.753 37.894 91.512 46.888l9.621 2.354 28.521-38.028-14.312-28.622 41.75-41.749 41.749 41.749-14.312 28.622 28.522 38.028 9.621-2.354c36.759-8.994 68.402-25.207 91.512-46.888 24.8-23.267 37.908-51.058 37.908-80.37 0-37.23-21.096-71.797-59.4-97.333zm-213.851 154.371 15.688 31.378-5.371 7.162c-58.456-17.042-97.066-54.659-97.066-95.578 0-26.876 16.352-52.579 46.041-72.372 28.037-18.691 64.511-29.915 103.959-32.19v38.348l-36.213 36.214 30 30zm146.186 38.54-5.372-7.162 15.688-31.378-78.251-78.251-8.787-8.787 23.787-23.787v-50.775c39.448 2.275 75.922 13.498 103.959 32.189 29.69 19.794 46.041 45.497 46.041 72.373 0 40.919-38.61 78.537-97.065 95.578z"/><path d="m256 362c-24.813 0-45 20.187-45 45s20.187 45 45 45 45-20.187 45-45-20.187-45-45-45zm0 60c-8.271 0-15-6.729-15-15s6.729-15 15-15 15 6.729 15 15-6.729 15-15 15z"/><path d="m313.087 318.928c-19.573-12.69-34.48-30.8-43.116-52.391l-14.106-35.129-13.841 35.147c-8.629 21.572-23.536 39.682-43.109 52.373-30.003 19.452-47.915 52.376-47.915 88.072 0 57.897 47.103 105 105 105s105-47.103 105-105c0-35.696-17.911-68.62-47.913-88.072zm-57.087 163.072c-41.355 0-75-33.645-75-75 0-25.487 12.798-49.001 34.234-62.9 16.346-10.598 30.126-24.184 40.764-40.068 10.631 15.873 24.415 29.466 40.769 40.068 21.435 13.899 34.233 37.412 34.233 62.9 0 41.355-33.645 75-75 75z"/></g></svg>