<svg id="Capa_1" enable-background="new 0 0 512 512" height="512" viewBox="0 0 512 512" width="512" xmlns="http://www.w3.org/2000/svg"><g><path d="m485.634 482-31.315-58.212h-44.464v-26.833h14.791c18.22 0 34.518-9.43 43.6-25.225 9.081-15.795 9.03-34.625-.109-50.325l-171.045-296.259c-9.091-15.745-25.372-25.146-43.554-25.146-.001 0 0 0 0 0-18.181 0-34.465 9.401-43.555 25.146l-171.173 296.48-.027.047c-9.015 15.746-8.964 34.518.137 50.214 9.1 15.697 25.365 25.068 43.509 25.068h19.717v26.833h-44.464l-31.315 58.212h-26.367v30h512v-30zm-420.762-125.16c-3.724-6.423-3.747-13.8-.064-20.245l171.154-296.449c3.669-6.353 10.239-10.146 17.575-10.146s13.906 3.793 17.574 10.146l171.071 296.306c3.698 6.354 3.719 13.951.055 20.325-3.664 6.373-10.24 10.178-17.592 10.178h-342.217c-7.43 0-13.829-3.687-17.556-10.115zm67.273 40.115h247.709v26.833h-247.709zm-56.537 56.833h360.782l15.178 28.212h-391.136z"/><path d="m111.604 333.458h287.036l-143.517-248.579zm51.962-30 91.556-158.58 91.556 158.58z"/></g></svg>