<?xml version="1.0" encoding="iso-8859-1"?>
<!-- Generator: Adobe Illustrator 19.0.0, SVG Export Plug-In . SVG Version: 6.00 Build 0)  -->
<svg xmlns="http://www.w3.org/2000/svg" xmlns:xlink="http://www.w3.org/1999/xlink" version="1.1" id="Layer_1" x="0px" y="0px" viewBox="0 0 512 512" style="enable-background:new 0 0 512 512;" xml:space="preserve">
<g>
	<g>
		<path d="M512,113.16C512,51.703,462.003,1.717,400.557,1.717c-61.457,0-111.454,49.986-111.454,111.443    c0,2.724,0.094,5.428,0.292,8.11H0v103.333h84.117V193.29H31.313v-40.707h81.122l16.679,83.126l33.62,172.274h36.48    c-19.852,7.63-33.985,26.888-33.985,49.391c0,29.173,23.725,52.909,52.898,52.909c29.184,0,52.909-23.735,52.909-52.909    c0-22.504-14.133-41.761-33.985-49.391h149.541c-19.852,7.63-33.985,26.888-33.985,49.391c0,29.173,23.735,52.909,52.909,52.909    s52.909-23.735,52.909-52.909c0-22.504-14.133-41.761-33.985-49.391h40.081v-30.635H187.972l-4.927-25.207H465.5l41.01-204.422    c2.672-8.162,4.426-16.732,5.135-25.593l0.167-0.856h-0.104C511.906,118.588,512,115.884,512,113.16z M405.515,435.1    c12.285,0,22.274,9.989,22.274,22.274c0,12.285-9.989,22.274-22.274,22.274s-22.274-9.989-22.274-22.274    C383.241,445.089,393.23,435.1,405.515,435.1z M218.127,435.1c12.285,0,22.284,9.989,22.284,22.274    c0,12.285-9.999,22.274-22.284,22.274c-12.275,0-22.274-9.989-22.274-22.274C195.853,445.089,205.852,435.1,218.127,435.1z     M178.13,320.828l-33.755-168.245h55.643l20.03,168.245H178.13z M293.671,320.828L293.671,320.828h-42.77l-20.03-168.245h62.799    V320.828z M364.912,320.828h-40.609V194.359c14.393,13.536,32.386,23.283,52.372,27.666L364.912,320.828z M439.844,320.828    h-44.078l11.481-96.434c20.573-1.211,39.663-8.047,55.748-18.976L439.844,320.828z M480.28,121.27    c-1.138,11.294-4.634,21.898-9.989,31.313c-12.139,21.397-33.839,36.688-59.265,40.018c-3.424,0.459-6.92,0.689-10.469,0.689    c-6.962,0-13.715-0.887-20.155-2.568c-21.209-5.511-39.027-19.508-49.589-38.139c-5.355-9.415-8.851-20.019-9.989-31.313    c-0.271-2.672-0.407-5.375-0.407-8.11c0-44.183,35.947-80.13,80.141-80.13c44.183,0,80.13,35.947,80.13,80.13    C480.687,115.895,480.551,118.598,480.28,121.27z"/>
	</g>
</g>
<g>
	<g>
		<rect x="341.553" y="97.498" width="118.51" height="31.313"/>
	</g>
</g>
<g>
</g>
<g>
</g>
<g>
</g>
<g>
</g>
<g>
</g>
<g>
</g>
<g>
</g>
<g>
</g>
<g>
</g>
<g>
</g>
<g>
</g>
<g>
</g>
<g>
</g>
<g>
</g>
<g>
</g>
</svg>
