<svg id="Capa_1" enable-background="new 0 0 512 512" height="512" viewBox="0 0 512 512" width="512" xmlns="http://www.w3.org/2000/svg"><g><path d="m512 393.584-31.28-124.319h-89.992l-31.28 124.319h61.303v6.767c0 22.007-17.873 39.91-39.841 39.91h-70.278c-5.273-19.251-20.44-34.445-39.658-39.727v-91.627h79.315l-41.715-167.329h-37.6v-53.24c22.171-6.5 38.411-27.054 38.411-51.337v-7h29.948v-30.001h-166.666v30h29.948v7c0 24.283 16.24 44.837 38.411 51.337v53.24h-37.599l-41.716 167.329h79.315v91.627c-19.217 5.282-34.384 20.476-39.657 39.727h-70.278c-21.968 0-39.84-17.903-39.84-39.91v-6.767h61.302l-31.28-124.319h-89.993l-31.28 124.32h61.303v6.767c0 38.549 31.307 69.91 69.788 69.91h70.278c6.582 24.031 28.581 41.739 54.631 41.739s48.049-17.708 54.631-41.739h70.278c38.481 0 69.789-31.361 69.789-69.91v-6.767zm-279.437-356.584v-7h46.875v7c0 12.946-10.514 23.479-23.437 23.479-12.925 0-23.438-10.533-23.438-23.479zm-5.747 134.577h58.369l26.757 107.329h-111.884zm-172.2 127.688h43.32l16.184 64.319h-75.687zm201.384 182.735c-14.718 0-26.693-11.995-26.693-26.739s11.974-26.739 26.693-26.739c14.718 0 26.693 11.995 26.693 26.739s-11.975 26.739-26.693 26.739zm158.064-182.735h43.32l16.184 64.319h-75.688z"/></g></svg>