<svg id="Capa_1" enable-background="new 0 0 509.149 509.149" height="512" viewBox="0 0 509.149 509.149" width="512" xmlns="http://www.w3.org/2000/svg"><g><path d="m224.665 243.707c-12.152-12.151-31.924-12.151-44.076 0l-93.81 93.811c-12.152 12.15-12.152 31.924 0 44.076l40.776 40.775c12.152 12.152 31.924 12.153 44.076 0l93.81-93.809c12.152-12.152 12.152-31.926 0-44.076zm19.563 63.641-93.809 93.809c-.455.455-1.195.455-1.65 0l-40.776-40.775c-.455-.455-.455-1.195 0-1.65l93.81-93.811c.453-.452 1.194-.456 1.65 0l40.776 40.777c.454.454.454 1.195-.001 1.65z"/><path d="m509.149 127.277-127.278-127.277-63.64 63.639 21.214 21.213-28.614 28.613c-19.499 19.498-45.331 31.914-72.737 34.961-34.151 3.793-66.34 19.264-90.638 43.562l-133.274 133.274c-18.909 18.908-18.91 49.678 0 68.588l101.116 101.117c18.91 18.909 49.681 18.91 68.589 0l133.273-133.273c24.298-24.299 39.769-56.486 43.562-90.637 3.046-27.408 15.461-53.24 34.959-72.738l28.615-28.614 21.213 21.214zm-213.201 213.203-133.274 133.274c-7.213 7.213-18.95 7.213-26.163 0l-101.115-101.116c-7.214-7.214-7.214-18.95-.001-26.163l133.273-133.273c19.499-19.5 45.331-31.914 72.738-34.959 24.621-2.736 48.221-11.543 68.58-25.349l46.268 46.269c-13.805 20.359-22.611 43.959-25.348 68.58-3.044 27.405-15.459 53.237-34.958 72.737zm79.599-164.453-42.426-42.426 27.536-27.537 42.427 42.428zm6.324-133.601 84.853 84.852-21.213 21.215-84.853-84.854z"/></g></svg>