<svg id="Capa_1" enable-background="new 0 0 512 512" height="512" viewBox="0 0 512 512" width="512" xmlns="http://www.w3.org/2000/svg"><g><path d="m0 0v512h512v-512zm30 30h211v452h-211zm452 452h-211v-452h211z"/><path d="m376.5 317.781c42.072 0 76.3-34.228 76.3-76.3 0-58.455-62.417-129.55-65.074-132.548l-11.226-12.664-11.226 12.665c-2.657 2.998-65.073 74.093-65.073 132.548 0 42.072 34.228 76.299 76.299 76.299zm-15-45c0-8.271 6.729-15 15-15s15 6.729 15 15c0 8.207-6.624 14.895-14.806 14.999-.065 0-.129.001-.194.001s-.129-.001-.194-.001c-8.182-.104-14.806-6.792-14.806-14.999zm15-130.215c18.864 24.556 46.3 67.167 46.3 98.915 0 6.205-1.227 12.128-3.451 17.541-5.827-18.104-22.832-31.241-42.849-31.241-20.016 0-37.021 13.136-42.848 31.24-2.224-5.412-3.45-11.335-3.45-17.54-.001-31.748 27.434-74.359 46.298-98.915z"/><path d="m306.5 347.723h140v30h-140z"/><path d="m336.5 407.723h80v30h-80z"/><path d="m135.5 317.781c42.072 0 76.3-34.228 76.3-76.3 0-58.455-62.417-129.55-65.074-132.548l-11.226-12.664-11.226 12.665c-2.657 2.998-65.073 74.093-65.073 132.548 0 42.072 34.228 76.299 76.299 76.299zm-15-45c0-8.271 6.729-15 15-15s15 6.729 15 15c0 8.207-6.624 14.895-14.806 14.999-.065 0-.129.001-.194.001s-.129-.001-.194-.001c-8.182-.104-14.806-6.792-14.806-14.999zm15-130.215c18.864 24.556 46.3 67.167 46.3 98.915 0 6.205-1.227 12.128-3.451 17.541-5.827-18.104-22.832-31.241-42.849-31.241-20.016 0-37.021 13.136-42.848 31.24-2.224-5.412-3.45-11.335-3.45-17.54-.001-31.748 27.434-74.359 46.298-98.915z"/><path d="m65.5 347.723h140v30h-140z"/><path d="m95.5 407.723h80v30h-80z"/><path d="m181.326 59.305h30v30h-30z"/><path d="m422.326 59.305h30v30h-30z"/></g></svg>