<svg id="Capa_1" enable-background="new 0 0 512 512" height="512" viewBox="0 0 512 512" width="512" xmlns="http://www.w3.org/2000/svg"><g><path d="m120 362h150v30h-150z"/><path d="m207.43 30c-6.191-17.461-22.873-30-42.43-30s-36.239 12.539-42.43 30c-15.65 0-118.946 0-122.57 0v482h330c0-23.566 0-457.991 0-482-15.327 0-109.187 0-122.57 0zm-87.43 30h30v-15c0-8.271 6.729-15 15-15s15 6.729 15 15v15h30v30h-90zm180 0v422h-270v-422h60v60h150v-60z"/><path d="m60 362h30v30h-30z"/><path d="m120 422h150v30h-150z"/><path d="m60 422h30v30h-30z"/><path d="m120 302h150v30h-150z"/><path d="m60 302h30v30h-30z"/><path d="m150 272h30v-45h45v-30h-45v-45h-30v45h-45v30h45z"/><path d="m467 92h-15v-30h-30v-30h-30v30h-30v381.213l30 30v38.787h30v-38.787l30-30v-321.213h15c8.271 0 15 6.729 15 15v60h30v-60c0-24.813-20.187-45-45-45zm-45 0v30h-30v-30zm0 60v210h-30v-210zm-15 293.787-15-15v-38.787h30v38.787z"/></g></svg>