<svg id="Capa_1" enable-background="new 0 0 512 512" height="512" viewBox="0 0 512 512" width="512" xmlns="http://www.w3.org/2000/svg"><g><g><path d="m60 376h392v-240h-392zm30-60c16.542 0 30 13.458 30 30h-30zm332 30h-30c0-16.542 13.458-30 30-30zm0-150c-16.542 0-30-13.458-30-30h30zm0 30v60c-33.084 0-60 26.916-60 60h-212c0-33.084-26.916-60-60-60v-60c33.084 0 60-26.916 60-60h212c0 33.084 26.916 60 60 60zm-332-60h30c0 16.542-13.458 30-30 30z"/></g><g><path d="m346 241h30v30h-30z"/></g><g><path d="m136 241h30v30h-30z"/></g><g><path d="m256 316c33.084 0 60-26.916 60-60s-26.916-60-60-60-60 26.916-60 60 26.916 60 60 60zm0-90c16.542 0 30 13.458 30 30s-13.458 30-30 30-30-13.458-30-30 13.458-30 30-30z"/></g><g><path d="m30 106h75v-30h-105v105h30z"/></g><g><path d="m482 406h-75v30h105v-105h-30z"/></g><g><path d="m407 76v30h75v75h30v-105z"/></g><g><path d="m30 331h-30v105h105v-30h-75z"/></g></g></svg>