<svg id="Capa_1" enable-background="new 0 0 512 512" height="512" viewBox="0 0 512 512" width="512" xmlns="http://www.w3.org/2000/svg"><g><path d="m84.73 449.572 25.683-90.175c-9.321-6.76-17.874-14.15-25.544-22.079-48.813-11.42-84.869-54.294-84.869-103.772s36.057-92.353 84.87-103.772c86.923-89.794 255.337-89.794 342.26 0 48.813 11.42 84.87 54.294 84.87 103.772s-36.057 92.353-84.87 103.772c-59.173 61.128-154.684 78.999-235.354 59.133zm171.27-356.62c-58.345 0-115.971 20.904-155.756 64.353-37.757 7.054-70.107 35.566-70.107 76.241 0 40.674 32.35 69.187 70.107 76.241 13.38 14.608 28.455 26.063 45.018 36.777l-13.096 45.977 56.372-27.974c78.077 21.107 166.952 6.667 223.218-54.78 37.757-7.054 70.107-35.566 70.107-76.241 0-40.674-32.35-69.187-70.107-76.241-39.785-43.449-97.411-64.353-155.756-64.353z"/></g></svg>