<svg id="Capa_1" enable-background="new 0 0 512.054 512.054" height="512" viewBox="0 0 512.054 512.054" width="512" xmlns="http://www.w3.org/2000/svg"><g><path d="m169.111 309.559c59.788-44.639 37.337-140.396-35.995-154.022-8.549-28.75-34.745-48.483-65.142-48.483-67.732.535-93.269 88.299-36.871 125.14-3.122 30.144 10.791 59.803 33.559 76.955-38.247 19.094-64.582 58.628-64.582 104.204v98.701h232.788v-98.701c0-45.248-25.955-84.545-63.757-103.794zm-51.956-12.6c-28.819 0-52.648-21.712-56.026-49.635 37.903 15.081 83.725-.374 104.692-35.377 22.212 36.748-5.489 85.437-48.666 85.012zm0-112.905c9.447 0 18.352 2.344 26.184 6.463-12.795 28.497-49.808 41.22-77.324 26.116 9.011-19.226 28.541-32.579 51.14-32.579zm-87.181-9c.339-38.677 51.053-52.224 70.71-19.419-26.356 5.105-48.481 22.214-60.429 45.394-6.471-6.912-10.281-16.124-10.281-25.975zm132.987 165.506c-22.293 31.376-70.147 31.056-92.03-.59 26.49-17.4 65.794-17.13 92.03.59zm39.907 141.494h-172.788v-68.701c0-20.063 6.875-38.551 18.393-53.231 33.846 44.744 102.265 45.17 136.682.885 11.106 14.536 17.714 32.682 17.714 52.346v68.701z"/><path d="m499.38 360.728 6.85-22.263c10.272-33.383.491-69.311-24.35-92.897 3.058-49.336-36.856-91.685-86.3-91.514-49.441-.172-89.362 42.179-86.3 91.514-24.841 23.587-34.621 59.515-24.35 92.897l6.85 22.264c-8.049 15.813-12.594 33.697-12.594 52.624v98.701h232.788v-98.701c0-18.927-4.544-36.812-12.594-52.625zm-21.824-31.085-.275.895c-8.621-8.506-18.558-15.679-29.477-21.184 9.974-7.584 18.255-17.282 24.173-28.42 8.383 14.441 10.706 32.047 5.579 48.709zm-35.961 10.623c-22.093 31.517-69.946 31.507-92.03 0 26.364-17.564 65.667-17.562 92.03 0zm-46.016-43.307c-28.14 0-51.533-20.698-55.765-47.669 38.602 12.276 82.813-5.865 101.537-41.766 26.892 36.585-.032 89.688-45.772 89.435zm0-112.905c7.685 0 15.014 1.549 21.698 4.343-11.234 28.098-46.014 42.495-73.781 30.346 8.537-20.355 28.666-34.689 52.083-34.689zm-52.224 125.3c-10.918 5.505-20.855 12.678-29.477 21.185-5.461-16.848-3.245-34.919 5.304-49.605 5.918 11.138 14.199 20.835 24.173 28.42zm138.619 172.7h-172.788v-68.701c0-19.861 6.741-38.175 18.049-52.783 34.15 44.515 102.551 44.503 136.69 0 11.308 14.609 18.049 32.922 18.049 52.783z"/><path d="m335.603 52.793c.187-40.669-44.838-66.18-79.629-45.395-19.961-12.219-47.824-8.828-64.182 8.103-9.961 9.961-15.447 23.204-15.447 37.292s5.486 27.331 15.447 37.292l64.182 64.182 64.182-64.182c9.961-9.96 15.447-23.204 15.447-37.292zm-36.66 16.079-42.969 42.968-42.969-42.968c-14.25-14.187-4.019-38.901 16.079-38.818 6.074 0 11.784 2.365 16.079 6.66l10.81 10.811 10.811-10.811c8.464-8.821 23.694-8.822 32.158.001 8.822 8.463 8.822 23.694.001 32.157z"/></g></svg>