<svg id="Capa_1" enable-background="new 0 0 510 510" height="512" viewBox="0 0 510 510" width="512" xmlns="http://www.w3.org/2000/svg"><g><path d="m502.448 348.487c-12.439-18.659-37.053-25.385-57.251-15.638l-.362.175c-103.126 56.673-93.699 51.712-96.18 52.814-1.631.726-3.424 1.521-5.549 2.22 1.254-4.135 1.936-8.518 1.936-13.059 0-24.814-20.187-45-45-45h-62.958c-20.661 0-40.67 6.058-57.862 17.52-12.249 8.166-26.502 12.481-41.222 12.481h-17.958v-30h-120v180h120v-30h17.958c14.721 0 28.975 4.315 41.221 12.48 17.191 11.461 37.2 17.52 57.863 17.52h53.93c18.359 0 36.458-4.869 52.34-14.082 14.247-8.264 133.238-77.287 148.729-86.272l.854-.678c18.276-14.503 22.454-41.07 9.511-60.481zm-412.406 131.513h-60v-120h60zm384.937-95.115-146.679 85.083c-11.314 6.563-24.207 10.032-37.286 10.032h-53.93c-14.721 0-28.975-4.315-41.221-12.48-17.191-11.461-37.2-17.52-57.863-17.52h-17.958v-60h17.958c20.661 0 40.67-6.058 57.862-17.52 12.248-8.165 26.502-12.48 41.222-12.48h62.958c8.271 0 15 6.728 15 15.031 0 8.254-6.715 14.969-14.969 14.969-7.513 0-52.517 0-60.031 0v30h90.031c15.604 0 25.475-4.392 30.778-6.752 3.895-1.732-6.711 3.878 97.683-53.52 6.735-3.067 14.831-.784 18.953 5.4 4.185 6.276 3.048 14.775-2.508 19.757z"/><path d="m330.042 148.49v61.51h-45v30h45v45h30v-45h45v-30h-45v-61.51c34.192-6.968 60-37.271 60-73.49 0-41.355-33.645-75-75-75s-75 33.645-75 75c0 36.22 25.807 66.523 60 73.49zm15-118.49c24.813 0 45 20.187 45 45s-20.187 45-45 45c-24.814 0-45-20.187-45-45s20.186-45 45-45z"/></g></svg>