<svg id="Capa_1" enable-background="new 0 0 512 512" height="512" viewBox="0 0 512 512" width="512" xmlns="http://www.w3.org/2000/svg"><g><path d="m452 16h-120v60h-152v-60h-120v30h-60v150h60v30h120v-60h152v60h120v-30h60v-150h-60zm-392 150h-30v-90h30zm90 30h-60v-150h60zm182-60h-152v-30h152zm90 60h-60v-150h60zm60-120v90h-30v-90z"/><path d="m452 286h-120v60h-152v-60h-120v30h-60v150h60v30h120v-60h152v60h120v-30h60v-150h-60zm-392 150h-30v-90h30zm90 30h-60v-150h60zm182-60h-152v-30h152zm90 60h-60v-150h60zm60-120v90h-30v-90z"/></g></svg>