<svg id="Capa_1" enable-background="new 0 0 512.05 512.05" height="512" viewBox="0 0 512.05 512.05" width="512" xmlns="http://www.w3.org/2000/svg"><g><path d="m437.067 74.982c-160.843-160.519-436.804-46.205-437.018 181.021-2.838 137.596 118.392 258.848 256.001 255.996 227.235-.226 341.536-276.193 181.017-437.017zm-88.629 387.395-46.017-55.86 4.5-96.889-29.967-1.392-1.789 38.501-42.937-9.339-5.204-94.814-29.955 1.644 6.456 117.628 70.228 15.276-1.837 39.538 46.633 56.607c-103.297 30.815-219.055-20.594-265.527-117.768l73.736-5.672 12.156 34.189 28.267-10.051-19.844-55.811-106.178 8.167c-32.759-96.935 8.146-209.391 95.766-262.468l68.174 81.476-46.267 40.233-32.677-32.677-21.213 21.213 31.197 31.197-16.784 14.595-2.292 50.42 29.969 1.362 1.708-37.58 81.16-70.572 72.148 19.028v50.443h30v-73.557l-97.559-25.73-70.491-84.244c59.756-27.279 134.62-25.67 193.028 4.224l-22.964 27.308h-57.015v30h70.985l35.207-41.869c97.184 64.595 127.86 200.212 68.446 300.172l-23.875-69.579 13.713-45.058-17.804-83.784-29.346 6.235 16.196 76.216-8.644 28.399-48.972-13.215-7.816 28.964 55.307 14.924 29.983 87.377c-22.076 26.806-50.839 48.728-81.989 62.593z"/></g></svg>