<svg id="Capa_1" enable-background="new 0 0 512 512" height="512" viewBox="0 0 512 512" width="512" xmlns="http://www.w3.org/2000/svg"><g><path d="m316.5 0v150.5c0 33.359-27.141 60.5-60.5 60.5s-60.5-27.141-60.5-60.5v-150.5h-90v150.5c0 34.288 11.886 67.859 33.467 94.529 18.696 23.104 43.948 40.24 72.033 49.086v217.885h90v-217.885c28.085-8.846 53.337-25.982 72.033-49.086 21.581-26.67 33.467-60.241 33.467-94.529v-150.5zm60 150.5c0 55.76-39.457 105.184-93.819 117.52l-11.681 2.65v211.33h-30v-211.33l-11.681-2.65c-54.362-12.336-93.819-61.76-93.819-117.52v-120.5h30v120.5c0 49.902 40.598 90.5 90.5 90.5s90.5-40.598 90.5-90.5v-120.5h30z"/></g></svg>