<svg id="Capa_1" enable-background="new 0 0 511.999 511.999" height="512" viewBox="0 0 511.999 511.999" width="512" xmlns="http://www.w3.org/2000/svg"><g><path d="m465 191.999h-24.113c4.236-53.686 13.772-121.266-30.465-169.018-15.794-15.576-36.018-23.298-60.161-22.97-37.672.522-55.95 18.398-77.115 39.098-.003.003-.007.007-.011.011h-34.271c-.003-.003-.007-.007-.011-.011-21.165-20.7-39.443-38.576-77.115-39.098-24.143-.336-44.365 7.394-60.16 22.971-44.244 47.802-34.698 115.213-30.465 169.017h-24.113v90h118.165l36 230h109.67l36-230h118.165zm-367.661-65.04c.904-51.119 15.344-97.257 63.982-96.952 28.901-.573 44.606 19.209 65.356 39.112h58.645c20.781-19.907 36.431-39.68 65.356-39.111 16.014-.213 28.673 4.466 38.678 14.333 30.951 29.339 27.055 100.55 21.365 147.658h-309.442c-2.616-22.922-3.94-44.748-3.94-65.04zm202.146 263.548-82.108 31.068-7.821-49.965 98.734-37.359zm-72.65 91.492-4.718-30.141 72.032-27.255-8.984 57.397h-58.33zm86.792-181.843-108.811 41.172-9.286-59.329h120.939zm121.373-48.157h-358v-30h358z"/></g></svg>