<svg id="Capa_1" enable-background="new 0 0 512.02 512.02" height="512" viewBox="0 0 512.02 512.02" width="512" xmlns="http://www.w3.org/2000/svg"><g><path d="m498.829 95.779c-17.545-17.546-46.094-17.546-63.639 0-7.744 7.744-16.855 22.514-22.673 36.753-5.573 13.64-7.49 25.044-5.769 34.114l-240.101 240.103c-9.071-1.721-20.475.196-34.115 5.769-14.24 5.817-29.01 14.929-36.753 22.672-17.546 17.545-17.546 46.094 0 63.64 17.585 17.586 46.051 17.589 63.639 0 7.744-7.744 16.855-22.514 22.673-36.753 5.572-13.639 7.489-25.043 5.768-34.113l240.103-240.104c11.033 2.093 23.716-1.52 34.114-5.768 14.239-5.817 29.01-14.929 36.753-22.672 17.587-17.588 17.59-46.052 0-63.641zm-346.189 358.824c-4.762 10.395-10.866 19.445-14.435 23.014-5.862 5.862-15.35 5.863-21.213 0-5.849-5.849-5.849-15.365 0-21.214 3.568-3.568 12.619-9.672 23.014-14.435 9.016-4.13 15.095-5.458 18.382-5.748-.29 3.288-1.618 9.368-5.748 18.383zm324.977-316.398c-3.568 3.568-12.62 9.673-23.015 14.435-9.015 4.13-15.095 5.458-18.382 5.749.29-3.287 1.618-9.367 5.749-18.382 4.762-10.394 10.866-19.445 14.435-23.014 5.851-5.849 15.363-5.848 21.213 0 5.862 5.863 5.862 15.349 0 21.212z"/><path d="m105.271 345.374 240.103-240.104c11.037 2.092 23.714-1.519 34.113-5.768 14.24-5.817 29.01-14.929 36.753-22.672 17.546-17.545 17.546-46.094 0-63.64-17.585-17.586-46.051-17.589-63.639 0-7.744 7.744-16.855 22.514-22.673 36.754-5.573 13.64-7.49 25.044-5.768 34.114l-240.102 240.103c-9.071-1.721-20.475.196-34.115 5.769-14.239 5.817-29.01 14.929-36.753 22.672-17.586 17.587-17.589 46.051 0 63.64 17.544 17.545 46.093 17.546 63.639 0 7.744-7.744 16.855-22.514 22.673-36.753 5.573-13.64 7.49-25.045 5.769-34.115zm254.109-287.957c4.762-10.395 10.866-19.445 14.435-23.014 5.862-5.862 15.35-5.863 21.213 0 5.849 5.849 5.849 15.365 0 21.214-3.568 3.568-12.619 9.672-23.014 14.435-9.016 4.13-15.095 5.458-18.382 5.748.29-3.288 1.618-9.367 5.748-18.383zm-289.329 314.597c-4.762 10.394-10.866 19.445-14.435 23.014-5.85 5.848-15.363 5.848-21.213 0-5.862-5.863-5.863-15.35 0-21.213 3.568-3.568 12.62-9.673 23.015-14.435 9.015-4.13 15.095-5.458 18.382-5.749-.29 3.288-1.618 9.367-5.749 18.383z"/></g></svg>