<svg id="Capa_1" enable-background="new 0 0 512 512" height="512" viewBox="0 0 512 512" width="512" xmlns="http://www.w3.org/2000/svg"><g><path d="m136.048 68.578c-.128-.001-.253-.01-.381-.01h-.759c-.128 0-.253.009-.38.01-56.893.411-103.053 46.814-103.053 103.802v46.097c0 26.829 10.613 52.594 29.032 71.807-18.419 19.213-29.032 44.979-29.032 71.807v46.097c0 56.988 46.159 103.391 103.052 103.802.128.001.253.01.381.01h.759c.128 0 .253-.009.381-.01 56.892-.411 103.051-46.814 103.051-103.802v-46.097c0-26.829-10.613-52.594-29.032-71.807 18.419-19.213 29.032-44.979 29.032-71.807v-46.097c0-56.987-46.158-103.39-103.051-103.802zm14.951 45.323v352.767c0 8.325-6.674 15.108-14.951 15.313-.255.003-.506.019-.761.019s-.505-.017-.76-.019c-8.278-.205-14.952-6.988-14.952-15.313v-352.767c0-8.325 6.674-15.108 14.951-15.313.254-.003.505-.019.76-.019s.506.017.76.019c8.279.205 14.953 6.987 14.953 15.313zm-89.524 58.479c0-23.446 11.002-44.358 28.1-57.889v161.776c-17.648-14.02-28.1-35.392-28.1-57.791zm0 235.808v-46.097c0-22.398 10.452-43.77 28.1-57.791v161.776c-17.098-13.529-28.1-34.441-28.1-57.888zm147.624 0c0 23.446-11.002 44.358-28.1 57.888v-161.775c17.647 14.021 28.1 35.393 28.1 57.791zm0-189.711c0 22.398-10.452 43.77-28.1 57.791v-161.777c17.098 13.53 28.1 34.442 28.1 57.888z"/><path d="m480.525 103.812c0-56.987-46.158-103.39-103.05-103.802-.128-.001-.254-.01-.382-.01h-.759c-.128 0-.253.009-.38.01-56.894.41-103.052 46.814-103.052 103.802v46.097c0 26.829 10.613 52.594 29.032 71.807-18.419 19.213-29.032 44.979-29.032 71.807v46.097c0 56.988 46.159 103.391 103.052 103.802.127.001.253.01.38.01h.759c.128 0 .254-.009.381-.01 56.892-.411 103.05-46.815 103.05-103.802v-46.097c0-26.829-10.612-52.594-29.031-71.807 18.419-19.213 29.031-44.978 29.031-71.807v-46.097zm-88.1-58.479v352.767c0 8.325-6.674 15.108-14.95 15.313-.255.003-.506.019-.761.019s-.505-.017-.76-.019c-8.278-.205-14.952-6.988-14.952-15.313v-352.767c0-8.326 6.674-15.109 14.952-15.313.254-.003.505-.019.76-.019s.507.017.761.019c8.276.205 14.95 6.987 14.95 15.313zm-89.523 58.479c0-23.446 11.002-44.358 28.1-57.889v161.776c-17.647-14.02-28.1-35.392-28.1-57.79zm0 235.808v-46.097c0-22.398 10.453-43.77 28.1-57.79v161.776c-17.099-13.53-28.1-34.443-28.1-57.889zm147.623 0c0 23.446-11.002 44.358-28.1 57.889v-161.777c17.647 14.02 28.1 35.392 28.1 57.791zm0-189.711c0 22.399-10.452 43.771-28.1 57.791v-161.777c17.098 13.53 28.1 34.442 28.1 57.889z"/></g></svg>