<svg id="Capa_1" enable-background="new 0 0 512 512" height="512" viewBox="0 0 512 512" width="512" xmlns="http://www.w3.org/2000/svg"><g><path d="m399.062 30.125h-15.125v-30.125h-195.75c-41.493 0-75.25 33.757-75.25 75.25v15h30.125v421.75h240.875v-225.875c0-41.493-33.757-75.25-75.25-75.25-24.951 0-45.25-20.299-45.25-45.25v-39.123c14.615 14.68 35.655 23.536 59.357 23.991l.92-29.986c-22.733-.697-37.871-9.277-50.854-30.257h111.076v-30.125h15.125v-30zm-210.874-.125h105.5v30.25h-148.195c6.201-17.601 22.999-30.25 42.695-30.25zm-15.126 60.25h60.375v30.25h-60.375zm135.626 150.625c24.951 0 45.25 20.299 45.25 45.25v195.875h-180.876v-331.5h60.375v15.125c.001 41.493 33.757 75.25 75.251 75.25zm45.25-180.625h-30.25v-30.25h30.25z"/><path d="m203.312 421.625h120.375v-120.375h-120.375zm30-90.375h60.375v60.375h-60.375z"/></g></svg>