<svg id="Layer_1" enable-background="new 0 0 510 510" height="512" viewBox="0 0 510 510" width="512" xmlns="http://www.w3.org/2000/svg"><g><path d="m255 .799c-140.93 0-255 114.049-255 255 12.345 337.906 497.697 337.837 510-.003 0-140.929-114.049-254.997-255-254.997zm0 479.999c-124.066 0-225-100.935-225-225 11.311-298.083 438.734-298.002 450 .003 0 124.063-100.935 224.997-225 224.997z"/><path d="m255 75.799c-99.252 0-180 80.748-180 180 9.05 238.466 350.986 238.401 360-.002 0-99.25-80.748-179.998-180-179.998zm0 329.999c-82.71 0-150-67.29-150-150 7.541-198.722 292.489-198.668 300 .002 0 82.709-67.29 149.998-150 149.998z"/><path d="m329.033 181.765-41.974-3.374-32.059-27.292-32.06 27.292-41.973 3.374-3.375 41.973-27.292 32.061 27.292 32.06 3.374 41.973 41.974 3.375 32.06 27.291 32.06-27.292 41.973-3.374 3.375-41.974 27.292-32.06-27.292-32.06zm-25.753 94.027-2.105 26.183-26.182 2.104-19.993 17.02-19.993-17.021-26.183-2.105-2.105-26.182-17.02-19.993 17.02-19.994 2.105-26.182 26.182-2.105 19.994-17.019 19.993 17.02 26.183 2.105 2.105 26.183 17.02 19.993z"/><path d="m240 240.799h30v30h-30z"/></g></svg>