<svg id="Capa_1" enable-background="new 0 0 512 512" height="512" viewBox="0 0 512 512" width="512" xmlns="http://www.w3.org/2000/svg"><g><path d="m437.02 74.98c-48.353-48.351-112.64-74.98-181.02-74.98s-132.667 26.629-181.02 74.98c-48.351 48.353-74.98 112.64-74.98 181.02s26.629 132.667 74.98 181.02c48.353 48.351 112.64 74.98 181.02 74.98s132.667-26.629 181.02-74.98c48.351-48.353 74.98-112.64 74.98-181.02s-26.629-132.667-74.98-181.02zm-289.744 379.249c-10.25-5.641-20.094-12.096-29.444-19.349v-215.436c0-18.455 12.482-34.04 29.444-38.782zm215.239-273.568c16.962 4.743 29.444 20.327 29.444 38.782v217.119c-9.365 7.083-19.202 13.396-29.444 18.883zm59.444 228.727v-189.944c0-38.749-31.524-70.273-70.273-70.273s-70.273 31.524-70.273 70.273h30c0-15.271 8.544-28.584 21.103-35.411v284.744c-24.221 8.692-50.02 13.223-76.516 13.223-27.305 0-53.865-4.825-78.724-14.044v-283.923c12.559 6.826 21.103 20.139 21.103 35.411h30c0-38.749-31.524-70.273-70.273-70.273s-70.273 31.524-70.273 70.273v187.536c-37.38-41.533-57.833-94.683-57.833-150.98 0-58.442 22.034-113.497 62.171-155.68 8.696-6.377 47.081-18.975 74.88 1.353l17.708-24.216c-13.445-9.832-28.613-14.739-43.487-16.265 34.393-20.334 73.724-31.192 114.728-31.192 41.012 0 80.349 10.862 114.747 31.204-15.214 1.518-30.64 6.42-44.088 16.254l17.709 24.216c29.067-21.256 69.737-6.506 75.904-.518l.17-.175c39.744 42.097 61.558 96.879 61.558 155.019 0 57.394-21.263 111.511-60.041 153.388z"/><path d="m207.28 312.777v52.347c0 26.255 21.36 47.615 47.615 47.615s47.615-21.36 47.615-47.615v-52.347c0-26.255-21.36-47.615-47.615-47.615s-47.615 21.359-47.615 47.615zm47.616 69.962c-9.713 0-17.615-7.902-17.615-17.615v-17.119h35.23v17.119c0 9.713-7.903 17.615-17.615 17.615zm17.615-69.962v5.229h-35.23v-5.229c0-9.713 7.902-17.615 17.615-17.615s17.615 7.902 17.615 17.615z"/></g></svg>