<svg id="Layer_1" enable-background="new 0 0 510 510" height="512" viewBox="0 0 510 510" width="512" xmlns="http://www.w3.org/2000/svg"><g><path d="m90 420v-300h30v-30h120v44.04c-20.902 10.362-38.715 25.922-51.913 45.443-15.523 22.961-23.501 49.81-23.07 77.646.543 35.145 14.641 68.278 39.697 93.298 25.056 25.019 58.21 39.067 93.355 39.56.651.01 1.301.014 1.951.014 35.712 0 69.299-13.76 94.764-38.87 25.934-25.574 40.216-59.713 40.216-96.131 0-27.416-8.176-53.812-23.645-76.335-13.141-19.135-30.758-34.411-51.355-44.625v-44.04h30v-30h-30v-30h30v-30h-180v30h30v30h-120v-30h-30v-30h-30v30h-30v30h-30v30h30v30h30v300h-60v90h510v-90zm283.721-90.231c-20.166 19.886-46.879 30.626-75.231 30.222-56.19-.788-102.608-47.139-103.477-103.324-.126-8.154.669-16.138 2.304-23.839 12.857 3.591 26.548 7.173 52.681 7.173 27.061 0 40.779-3.841 54.046-7.556 11.836-3.314 23.016-6.444 45.955-6.444 22.941 0 34.124 3.13 45.962 6.444 2.277.638 4.596 1.284 7.012 1.919 1.326 6.7 2.027 13.603 2.027 20.636 0 28.325-11.108 54.878-31.279 74.769zm-43.721-299.769v123.842l9.371 3.794c21.303 8.624 38.572 23.554 50.041 42.148-9.859-2.158-21.814-3.783-39.414-3.783-27.061 0-40.778 3.841-54.044 7.556-11.837 3.313-23.017 6.443-45.957 6.443-20.535 0-31.646-2.509-42.242-5.412 11.333-20.807 29.677-37.562 52.874-46.953l9.371-3.793v-123.842zm-270 30h30v30h-30zm420 420h-450v-30h450z"/><path d="m315 270h30v30h-30z"/><path d="m255 285h30v30h-30z"/></g></svg>