<svg id="Capa_1" enable-background="new 0 0 510 510" height="512" viewBox="0 0 510 510" width="512" xmlns="http://www.w3.org/2000/svg"><g><path d="m435 75h-34.845l-30-75h-230.31l-30 75h-34.845v90h30.639l14.999 345h268.725l14.999-345h30.638zm-30 60h-300v-30h300zm-244.845-105h189.689l18 45h-225.689zm-21.881 195h233.45l-8.479 195h-216.491zm11.088 255-1.305-30h213.884l-1.304 30zm223.667-285h-236.058l-1.305-30h238.668z"/><path d="m307.95 263.42c-13.954-9.249-31.637-10.969-47.31-4.599-3.567 1.452-7.717 1.45-11.286-.002-32.128-13.072-71.178 8.71-69.271 49.683 1.873 39.965 35.389 66.509 75.385 66.509 71.509 0 97.028-82.062 52.482-111.591zm-97.937 40.429c.327-14.177 15.104-22.504 28.039-17.239 10.624 4.318 22.834 4.496 33.887.003 13.415-5.45 27.858 3.585 28.057 17.653l.005.648c-.001 54.262-91.268 53.05-89.988-1.065z"/></g></svg>