<svg id="Capa_1" enable-background="new 0 0 512 512" height="512" viewBox="0 0 512 512" width="512" xmlns="http://www.w3.org/2000/svg"><g><path d="m362.329 237.954c-8.603-.245-16.829 2.034-23.912 6.491-7.638-9.313-19.011-15.41-31.688-15.758-4.824-.141-9.539.525-14.001 1.918l-.01-53.13c14.694-3.717 28.399-8.956 40.466-15.611l-14.488-26.27c-7.852 4.33-16.602 7.941-25.983 10.791l-.008-43.585c0-23.601-19.2-42.801-42.801-42.801-16.464 0-30.787 9.346-37.943 23.01-5.052-2.356-10.62-3.738-16.465-3.898-11.678-.326-22.685 3.979-31.037 12.105-8.354 8.129-12.955 19.024-12.955 30.679v8.46c-16.319-11.15-25.229-24.623-25.229-38.367 0-15.093 10.741-29.86 30.244-41.582 21.892-13.159 51.314-20.406 82.845-20.406s60.953 7.247 82.846 20.406c19.503 11.722 30.244 26.489 30.244 41.582v2.132l-12.061-12.06-21.213 21.213 48.273 48.272 48.273-48.272-21.213-21.213-12.061 12.06v-2.132c0-26.036-15.906-49.936-44.789-67.296-26.492-15.922-61.402-24.692-98.299-24.692s-71.808 8.77-98.301 24.692c-28.884 17.36-44.79 41.26-44.79 67.296s15.906 49.936 44.79 67.296c3.349 2.013 6.834 3.909 10.439 5.69v117.72c-21.244.969-38.23 18.556-38.23 40.035v43.938c0 80.137 65.195 145.332 145.332 145.332s145.332-65.195 145.332-145.332v-85.352c0-23.28-18.665-42.732-41.607-43.361zm-112.426-147.954c7.059 0 12.801 5.742 12.801 12.804l.009 49.784c-7.613.909-15.425 1.389-23.349 1.389-.757 0-1.506-.024-2.261-.032v-51.143c0-7.06 5.742-12.802 12.8-12.802zm-64.525 22.719c2.497-2.43 5.802-3.699 9.294-3.619 6.854.188 12.431 6.188 12.431 13.374v28.85c-8.96-1.505-17.541-3.642-25.601-6.371v-23.057c0-3.486 1.377-6.746 3.876-9.177zm188.558 253.949c0 63.595-51.737 115.332-115.332 115.332s-115.332-51.737-115.332-115.332v-43.938c0-5.557 4.521-10.077 10.077-10.077h28.153v-136.344c8.221 2.291 16.787 4.085 25.601 5.359v104.332h30v-102.057c.755.008 1.504.034 2.261.034 7.88 0 15.684-.427 23.355-1.222l.016 88.72 30-.003c0-3.485 1.377-6.744 3.876-9.177 2.497-2.43 5.804-3.693 9.295-3.619 6.854.188 12.43 6.188 12.43 13.374v8.688h30c0-3.485 1.376-6.744 3.876-9.177 2.497-2.429 5.81-3.692 9.295-3.619 6.854.188 12.43 6.188 12.43 13.374v85.352z"/></g></svg>