<svg id="Capa_1" enable-background="new 0 0 498.167 498.167" height="512" viewBox="0 0 498.167 498.167" width="512" xmlns="http://www.w3.org/2000/svg"><g><path d="m283.846 325.413c-5.763-8.488-.491-22.761 12.742-23.053h30.119l57.168-41.12-39.878-61.937-3.313-77.556c27.473-54.716-14.879-122.345-76.299-121.29-89.117 1.275-161.71-14.162-226.132 63.917-28.933 35.846-39.658 78.565-37.54 124.048-.001 84.585 40.593 164.488 108.742 214.398v95.347h155.032v-60.71h37.194l27.149-74.892v-30.108h-32.242c-7.507 0-11.412-4.926-12.742-7.044zm-253.134-136.991v-17.231c-1.334-75.61 64.981-142.342 140.736-140.733-.001-.001 92.938-.001 92.938-.001 37.174-.703 64.566 38.453 51.49 73h-123.26l-31.71 95c-59.423-4.499-96.226 61.348-59.716 108.767 0 0 8.264 10.448 8.264 10.448v46.562c-49.693-44.424-78.742-108.437-78.742-175.812zm249.934 219.035h-46.159v60.71h-95.032v-160.926l-14.735-18.629c-5.163-6.528-8.007-14.707-8.007-23.03 0-20.471 16.654-37.125 37.125-37.125h28.682l31.71-95h96.928l3.216 75.25 28.854 44.816-26.188 18.837h-20.451c-17.191 0-33.121 10.007-40.582 25.494-14.705 29.385 8.106 65.361 40.953 64.603z"/><path d="m255.819 240.063 27.893-27.893v-15.427l-27.893-27.893-21.213 21.213 14.394 14.394-14.394 14.393z"/><path d="m439.712 286.457h58v30h-58z"/><path d="m436.112 344.831h30v58h-30z" transform="matrix(.47 -.883 .883 .47 -90.835 596.419)"/><path d="m399.713 404.457h30v58h-30z" transform="matrix(.707 -.707 .707 .707 -185.034 420.199)"/></g></svg>