<svg id="Capa_1" enable-background="new 0 0 512 512" height="512" viewBox="0 0 512 512" width="512" xmlns="http://www.w3.org/2000/svg"><g><path d="m316.5 0v150.5c0 33.359-27.141 60.5-60.5 60.5s-60.5-27.141-60.5-60.5v-150.5h-90v150.5c0 82.986 67.514 150.5 150.5 150.5 21.021 0 41.546-4.341 60.5-12.695v73.195c0 33.359-27.141 60.5-60.5 60.5s-60.5-27.141-60.5-60.5v-15h-90v15c0 82.986 67.514 150.5 150.5 150.5s150.5-67.514 150.5-150.5v-361.5zm60 361.5c0 66.444-54.056 120.5-120.5 120.5-61.366 0-112.166-46.106-119.571-105.5h30.314c7.166 42.79 44.463 75.5 89.257 75.5 49.902 0 90.5-40.598 90.5-90.5v-126.726l-23.38 15.747c-19.89 13.398-43.099 20.479-67.12 20.479-66.444 0-120.5-54.056-120.5-120.5v-120.5h30v120.5c0 49.902 40.598 90.5 90.5 90.5s90.5-40.598 90.5-90.5v-120.5h30z"/></g></svg>