<svg id="Capa_1" enable-background="new 0 0 512 512" height="512" viewBox="0 0 512 512" width="512" xmlns="http://www.w3.org/2000/svg"><path d="m311.269 255.998c20.147-28.554 40.076-58.412 56.922-91.688 24.53-47.872 37.958-100.914 37.81-149.356l-.047-14.954h-90.151l.198 15.195c.069 5.295-.106 10.562-.494 15.805h-118.983c-.396-5.242-.594-10.51-.525-15.805l.197-15.195h-90.15l-.046 14.954c-.148 48.442 13.279 101.485 37.776 149.291 17.212 34 37.992 64.886 56.955 91.757-20.147 28.554-40.076 58.412-56.922 91.688-24.53 47.872-37.958 100.915-37.81 149.356l.047 14.954h90.151l-.198-15.195c-.069-5.295.106-10.562.494-15.805h118.983c.396 5.242.594 10.51.525 15.805l-.197 15.195h90.15l.046-14.954c.148-48.441-13.279-101.484-37.776-149.291-17.212-34-37.992-64.886-56.955-91.757zm-55.299-78.351c-11.833-17.939-23.26-36.894-32.913-56.647h65.866c-9.332 19.005-20.583 37.847-32.953 56.647zm54.949-116.647c-2.314 10.072-5.359 20.067-9.033 30h-91.72c-3.628-9.85-6.682-19.858-9.018-30zm-174.495-31h29.935c3.866 64.854 37.09 123.895 71.377 174.333-7.54 10.692-13.311 18.573-18.53 25.759-16.617-23.882-34.118-50.664-48.697-79.462-19.863-38.762-31.75-81.039-34.085-120.63zm0 452c2.336-39.592 14.227-81.875 34.118-120.695 41.449-81.877 104.198-144.782 144.072-224.758 18.793-37.694 29.008-72.714 31.028-106.547h29.935c-2.336 39.592-14.227 81.875-34.118 120.695-41.449 81.877-104.198 144.782-144.072 224.758-18.793 37.694-29.008 72.713-31.027 106.547zm119.606-147.647c11.833 17.939 23.26 36.894 32.913 56.647h-65.866c9.332-19.005 20.583-37.847 32.953-56.647zm-54.949 116.647c2.314-10.072 5.359-20.067 9.033-30h91.72c3.628 9.85 6.682 19.858 9.018 30zm144.561 31c-3.866-64.854-37.09-123.895-71.377-174.333 7.54-10.692 13.311-18.573 18.53-25.759 16.617 23.882 34.118 50.664 48.697 79.462 19.862 38.762 31.749 81.039 34.085 120.63z"/></svg>