<svg id="Layer_1" enable-background="new 0 0 510.167 510.167" height="512" viewBox="0 0 510.167 510.167" width="512" xmlns="http://www.w3.org/2000/svg"><g><path d="m255 .007c-225.011-1.566-340.701 277.535-180 435.615v74.385h30v-48.737c165.102 122.586 406.989.173 404.998-206.267.002-140.926-114.049-254.996-254.998-254.996zm0 480c-57.577 0-110.163-21.748-150-57.45v-139.146c64.464 66.723 180.183 20.419 179.999-73.406-5.274-139.099-204.741-139.07-209.999.002v179.852c-111.098-144.379-3.705-361.558 180.003-359.851 298.067 11.301 298.01 438.73-.003 449.999zm-150-270c0-41.355 33.645-75 75-75 99.361 3.77 99.334 146.245-.001 150-41.354 0-74.999-33.645-74.999-75z"/><path d="m180 255.007c24.814 0 45-20.186 45-45-2.262-59.617-87.747-59.6-90 .001 0 24.812 20.187 44.999 45 44.999zm0-60c8.271 0 15 6.729 15 15-.753 19.872-29.25 19.867-30 0 0-8.272 6.729-15 15-15z"/><path d="m360 165.007c-24.814 0-45 20.186-45 45 2.262 59.617 87.747 59.6 90-.001 0-24.813-20.186-44.999-45-44.999zm0 60c-8.271 0-15-6.729-15-15 .753-19.872 29.25-19.867 30 0 0 8.271-6.728 15-15 15z"/><path d="m300 375.007c-16.542 0-30-13.457-30-30h-30c-1.512 39.755-58.502 39.724-60 0h-30c-.015 55.221 69.183 80.743 105 39.623 35.836 41.138 105.024 15.568 105-39.623h-30c0 16.543-13.458 30-30 30z"/></g></svg>