<svg id="Capa_1" enable-background="new 0 0 512 512" height="512" viewBox="0 0 512 512" width="512" xmlns="http://www.w3.org/2000/svg"><g id="XMLID_462_"><path id="XMLID_471_" d="m377.866 0h-243.732l12.542 80.201v166.431l26.706 154.391c2.61 16.653 14.485 29.61 29.952 34.014v76.963h105.332v-76.964c15.467-4.404 27.342-17.36 29.952-34.014l26.706-154.391v-166.43zm-35.056 30-5.322 34.033h-162.975l-5.323-34.033zm-64.144 452h-45.332v-45.333h45.332zm56.658-237.944-26.29 151.986-.047.288c-.917 5.99-5.979 10.337-12.038 10.337h-81.898c-6.059 0-11.121-4.347-12.038-10.337l-26.337-152.274v-150.023h158.648z"/><path id="XMLID_615_" d="m256 281.558c26.729 0 48.476-21.746 48.476-48.476 0-26.729-21.746-48.476-48.476-48.476s-48.476 21.746-48.476 48.476 21.747 48.476 48.476 48.476zm0-66.952c10.188 0 18.476 8.288 18.476 18.476s-8.288 18.476-18.476 18.476-18.476-8.288-18.476-18.476 8.288-18.476 18.476-18.476z"/></g></svg>