<svg id="Capa_1" enable-background="new 0 0 512 512" height="512" viewBox="0 0 512 512" width="512" xmlns="http://www.w3.org/2000/svg"><g><path d="m114.409 352.574h60v30h-60z" transform="matrix(.707 -.707 .707 .707 -217.618 209.772)"/><path d="m50.769 416.214h60v30h-60z" transform="matrix(.707 -.707 .707 .707 -281.257 183.412)"/><path d="m400.786 81.195h30v30.001h-30z" transform="matrix(.707 -.707 .707 .707 53.763 322.185)"/><path d="m358.361 123.622h30v30h-30z" transform="matrix(.707 -.707 .707 .707 11.334 304.607)"/><path d="m197.441 335.754 27.427-27.426 21.213 21.213 53.033-53.033c24.475-24.474 41.217-31.649 58.942-39.246 19.556-8.381 39.777-17.048 68.337-45.607l63.64-63.64c29.242-29.242 29.242-76.823 0-106.065-29.242-29.243-76.824-29.243-106.066 0l-63.64 63.64c-28.559 28.559-37.226 48.781-45.606 68.337-7.597 17.726-14.772 34.468-39.246 58.942l-53.033 53.033 21.213 21.213-27.426 27.426zm104.854-170.01c7.597-17.726 14.771-34.468 39.245-58.941l63.64-63.64c17.587-17.586 46.051-17.589 63.641 0 17.545 17.545 17.545 46.094 0 63.64l-63.64 63.64c-24.475 24.474-41.217 31.649-58.942 39.246-16.974 7.275-34.448 14.763-57.442 35.289l-21.79-21.79c20.525-22.995 28.014-40.47 35.288-57.444zm-56.214 78.944 21.214 21.213-21.214 21.213-21.214-21.213z"/><path d="m0 481.983h512v30h-512z"/></g></svg>