<svg id="Capa_1" enable-background="new 0 0 512 512" height="512" viewBox="0 0 512 512" width="512" xmlns="http://www.w3.org/2000/svg"><g><path d="m483.754 482-53.823-68.671 33.912-168.978c-20.172 0-160.75 0-181.904 0l-42.806 213.295-34.735-44.317 33.912-168.978c-20.172 0-160.75 0-181.904 0l-47.695 237.649h-8.711v30h512v-30zm-117.895-128.433h45.467l-9.877 49.216h-45.467zm-40.476 49.217h-44.642l9.877-49.216h44.642zm91.963-79.217h-45.466l9.877-49.216h45.467zm-66.188-49.216-9.877 49.216h-44.642l9.877-49.216zm-210.832 79.216h45.467l-9.877 49.216h-45.467zm-40.477 49.217h-44.641l9.877-49.216h44.642zm91.964-79.217h-45.467l9.877-49.216h45.467zm-66.188-49.216-9.877 49.216h-44.642l9.877-49.216zm-76.438 158.433h44.642l-9.878 49.216h-44.641zm65.363 49.216 9.877-49.216h45.467l-9.877 49.216zm82.077-29.953 23.477 29.953h-29.488zm78.093-19.263h44.642l-9.877 49.216h-44.643zm65.364 49.216 9.877-49.216h45.467l-9.877 49.216zm82.077-29.953 23.476 29.953h-29.487z"/><path d="m195.438 144.329-24.275 24.275 21.213 21.213 24.275-24.275c7.314 4.768 15.533 8.255 24.349 10.124v34.294h30v-34.294c8.815-1.869 17.035-5.355 24.349-10.124l24.275 24.275 21.213-21.213-24.275-24.275c4.769-7.314 8.255-15.534 10.124-24.349h34.295v-30h-34.295c-1.869-8.815-5.355-17.034-10.124-24.349l24.275-24.275-21.213-21.213-24.275 24.275c-7.314-4.769-15.534-8.255-24.349-10.124v-34.294h-30v34.294c-8.815 1.869-17.035 5.355-24.349 10.124l-24.275-24.275-21.213 21.213 24.275 24.275c-4.769 7.314-8.255 15.534-10.124 24.349h-34.294v30h34.295c1.868 8.815 5.355 17.035 10.123 24.349zm60.562-81.611c23.303 0 42.262 18.958 42.262 42.262-2.322 56.066-82.21 56.05-84.524 0 0-23.303 18.959-42.262 42.262-42.262z"/></g></svg>