<svg id="Layer_1" enable-background="new 0 0 511.977 511.977" height="512" viewBox="0 0 511.977 511.977" width="512" xmlns="http://www.w3.org/2000/svg"><g><path d="m339.893 129.654h-167.831v144.053h-14.116v30h196.063v-30h-14.116zm-137.831 30h107.831v114.053h-107.831z"/><path d="m309.893 338.447h-31.101c-4.912-7.374-13.298-12.244-22.804-12.244s-17.892 4.87-22.804 12.244h-31.123v-13.649h-30v57.3h30v-13.65h30.944c4.885 7.529 13.359 12.523 22.983 12.523s18.098-4.995 22.983-12.523h30.921v13.65h30v-57.3h-30v13.649z"/><path d="m436.999 74.978c-48.35-48.35-112.634-74.978-181.011-74.978s-132.661 26.628-181.01 74.978-74.978 112.633-74.978 181.01 26.628 132.661 74.978 181.011 112.634 74.978 181.011 74.978 132.661-26.628 181.011-74.978 74.978-112.634 74.978-181.011-26.629-132.661-74.979-181.01zm-21.213 340.808c-42.684 42.684-99.435 66.19-159.798 66.19s-117.114-23.506-159.798-66.19-66.19-99.434-66.19-159.798 23.507-117.114 66.19-159.798 99.435-66.19 159.798-66.19 117.114 23.507 159.798 66.19 66.19 99.435 66.19 159.798-23.506 117.115-66.19 159.798z"/><path d="m255.988 53.474c-111.667 0-202.515 90.848-202.515 202.515s90.848 202.515 202.515 202.515 202.515-90.848 202.515-202.515-90.848-202.515-202.515-202.515zm0 375.029c-95.125 0-172.515-77.39-172.515-172.515s77.39-172.515 172.515-172.515 172.515 77.39 172.515 172.515-77.39 172.515-172.515 172.515z"/></g></svg>