<svg id="Capa_1" enable-background="new 0 0 512 512" height="512" viewBox="0 0 512 512" width="512" xmlns="http://www.w3.org/2000/svg"><g><path d="m-8.149 240.999h528.299v30.002h-528.299z" transform="matrix(.707 -.707 .707 .707 -106.039 255.973)"/><path d="m346.549 325.346-21.879-21.882 163.28-163.305c15.509-15.512 24.05-36.135 24.05-58.072s-8.542-42.561-24.052-58.072c-32.015-32.02-84.109-32.02-116.126.001l-163.279 163.304-21.879-21.882 21.778-21.782-130.102-130.121-64.77 64.778 130.104 130.122 21.777-21.781 21.879 21.882-163.279 163.305c-15.51 15.512-24.051 36.135-24.051 58.072s8.542 42.561 24.052 58.072c16.008 16.011 37.034 24.015 58.062 24.015 21.027 0 42.056-8.005 58.063-24.015l163.28-163.305 21.879 21.882-21.778 21.781 130.104 130.122 64.769-64.778-130.104-130.122zm-268.209-269.379 44.472 44.478-22.343 22.346-44.473-44.478zm43.342 88.041 22.343-22.346 21.992 21.996-22.343 22.346zm-2.717 322.761c-20.32 20.321-53.382 20.32-73.7.001-9.844-9.846-15.265-22.935-15.265-36.857s5.421-27.011 15.264-36.856l347.771-347.825c20.32-20.321 53.382-20.32 73.7-.001 9.844 9.845 15.265 22.934 15.265 36.856s-5.421 27.011-15.264 36.856zm249.362-120.772 21.992 21.996-22.343 22.346-21.992-21.996zm65.334 110.037-44.472-44.478 22.343-22.346 44.472 44.478z"/></g></svg>