<svg id="Capa_1" enable-background="new 0 0 512 512" height="512" viewBox="0 0 512 512" width="512" xmlns="http://www.w3.org/2000/svg"><g><path d="m451.75 421.75v-376.625c0-24.882-20.243-45.125-45.125-45.125h-361.5c-24.882 0-45.125 20.243-45.125 45.125v45.125h60.25v376.625c0 24.882 20.243 45.125 45.125 45.125h361.5c24.882 0 45.125-20.243 45.125-45.125v-45.125zm-421.75-376.625c0-8.34 6.785-15.125 15.125-15.125s15.125 6.785 15.125 15.125v15.125h-30.25zm90.5 421.75c0 8.34-6.785 15.125-15.125 15.125s-15.125-6.785-15.125-15.125v-421.75c0-5.304-.927-10.394-2.616-15.125h318.991c8.34 0 15.125 6.785 15.125 15.125v376.625h-301.25zm361.5 0c0 8.34-6.785 15.125-15.125 15.125h-318.982c1.688-4.73 2.607-9.822 2.607-15.125v-15.125h331.5z"/><path d="m256.001 210.875c-49.796 0-90.309 40.513-90.309 90.31s40.513 90.31 90.309 90.31c49.797 0 90.31-40.513 90.31-90.31s-40.513-90.31-90.31-90.31zm60.31 90.31c0 5.613-.787 11.043-2.229 16.203l-43.081-24.866v-49.757c26.022 6.684 45.31 30.341 45.31 58.42zm-75.31-58.421v49.758l-43.08 24.865c-1.441-5.16-2.229-10.59-2.229-16.203 0-28.078 19.288-51.734 45.309-58.42zm-28.058 100.591 28.058-16.194v32.444c-10.821-2.78-20.469-8.502-28.058-16.25zm58.058 16.25v-32.445l28.059 16.195c-7.589 7.748-17.238 13.47-28.059 16.25z"/><path d="m210.938 87.967h90.188v30h-90.188z"/><path d="m150.625 148.217h210.75v30h-210.75z"/></g></svg>