<svg id="Capa_1" enable-background="new 0 0 512 512" height="512" viewBox="0 0 512 512" width="512" xmlns="http://www.w3.org/2000/svg"><g><path d="m217.328 219.702h-30c0 15.943-12.972 28.915-28.915 28.915s-28.915-12.972-28.915-28.915h-30c0 32.486 26.429 58.915 58.915 58.915s58.915-26.429 58.915-58.915z"/><path d="m353.587 248.617c-15.943 0-28.915-12.972-28.915-28.915h-30c0 32.486 26.429 58.915 58.915 58.915s58.915-26.429 58.915-58.915h-30c0 15.944-12.972 28.915-28.915 28.915z"/><path d="m256 317.437c-31.154 0-56.5 25.346-56.5 56.5s25.346 56.5 56.5 56.5 56.5-25.346 56.5-56.5-25.346-56.5-56.5-56.5zm0 83c-14.612 0-26.5-11.888-26.5-26.5s11.888-26.5 26.5-26.5 26.5 11.888 26.5 26.5-11.888 26.5-26.5 26.5z"/><path d="m502.43 97.363v-30h-35.902l45.472-67.363h-88.524v30l35.869.03-27.209 40.198c-47.756-45.338-110.032-70.228-176.136-70.228-68.38 0-132.667 26.629-181.02 74.98-48.351 48.353-74.98 112.64-74.98 181.02s26.629 132.667 74.98 181.02c48.353 48.351 112.64 74.98 181.02 74.98s132.667-26.629 181.02-74.98c48.351-48.353 74.98-112.64 74.98-181.02 0-58.304-19.373-113.624-55.051-158.637zm-246.43 384.637c-124.617 0-226-101.383-226-226s101.383-226 226-226c51.235 0 98.533 17.148 136.482 45.991h-80.684v30l35.869.03-45.575 67.333h88.66v-30h-35.902l42.76-63.345c51.426 41.461 84.39 104.944 84.39 175.991 0 124.617-101.383 226-226 226z"/></g></svg>