<svg id="Capa_1" enable-background="new 0 0 512 512" height="512" viewBox="0 0 512 512" width="512" xmlns="http://www.w3.org/2000/svg"><g><path d="m22.567 170.49 27.337-15.783c10.583 11.93 24.892 20.481 41.095 23.784v31.509h30v-31.509c16.203-3.302 30.512-11.854 41.095-23.784l27.337 15.783 15-25.98-27.307-15.766c2.5-7.467 3.875-15.446 3.875-23.744s-1.375-16.276-3.875-23.744l27.307-15.766-15-25.98-27.337 15.783c-10.582-11.93-24.891-20.481-41.094-23.784v-31.509h-30v31.509c-16.203 3.302-30.512 11.854-41.095 23.784l-27.338-15.783-15 25.98 27.307 15.766c-2.499 7.468-3.874 15.446-3.874 23.744s1.375 16.276 3.875 23.744l-27.308 15.766zm83.433-110.49c24.813 0 45 20.187 45 45s-20.187 45-45 45-45-20.187-45-45 20.187-45 45-45z"/><path d="m91 90h30v30h-30z"/><path d="m451 482v-422h-90v422h-60v-302h-90v302h-60v-182h-90v182h-60v30h510v-30zm-360 0v-152h30v152zm150 0v-272h30v272zm150 0v-392h30v392z"/></g></svg>