<svg id="Capa_1" enable-background="new 0 0 512.434 512.434" height="512" viewBox="0 0 512.434 512.434" width="512" xmlns="http://www.w3.org/2000/svg"><g><path d="m465.309 164.341c-25.984 0-47.125 21.141-47.125 47.125s21.141 47.125 47.125 47.125 47.125-21.141 47.125-47.125-21.141-47.125-47.125-47.125zm0 64.25c-9.442 0-17.125-7.683-17.125-17.125s7.683-17.125 17.125-17.125 17.125 7.683 17.125 17.125-7.683 17.125-17.125 17.125z"/><path d="m307.723 413.491v-147.994c0-22.547-10.015-42.786-25.813-56.546 21.061-13.294 35.09-36.759 35.09-63.454v-98.155c0-25.984-21.141-47.125-47.125-47.125-12.406 0-23.701 4.827-32.125 12.692-8.424-7.865-19.719-12.692-32.125-12.692s-23.701 4.827-32.125 12.691c-8.424-7.865-19.719-12.692-32.125-12.692s-23.701 4.827-32.125 12.692c-8.424-7.864-19.719-12.691-32.125-12.691-25.984 0-47.125 21.14-47.125 47.125v352.947c-17.916 10.391-30 29.769-30 51.928 0 33.084 26.916 60 60 60 22.159 0 41.537-12.084 51.928-30h134.66c7.877 17.656 25.586 30 46.135 30 27.846 0 50.5-22.654 50.5-50.5 0-22.625-14.956-41.823-35.5-48.226zm-37.848-383.274c9.442 0 17.125 7.683 17.125 17.125 0 3.57-1.101 6.885-2.977 9.632h-28.297c-1.876-2.747-2.977-6.062-2.977-9.632.001-9.443 7.684-17.125 17.126-17.125zm-64.25 0c9.442 0 17.125 7.683 17.125 17.125 0 3.57-1.101 6.885-2.977 9.632h-28.297c-1.876-2.747-2.977-6.062-2.977-9.632.001-9.443 7.684-17.125 17.126-17.125zm-64.25 0c9.442 0 17.125 7.683 17.125 17.125 0 3.57-1.101 6.885-2.977 9.632h-28.297c-1.876-2.747-2.977-6.062-2.977-9.632.001-9.443 7.684-17.125 17.126-17.125zm-64.25 0c9.442 0 17.125 7.683 17.125 17.125 0 3.57-1.101 6.885-2.977 9.632h-28.296c-1.876-2.747-2.977-6.063-2.977-9.632 0-9.443 7.683-17.125 17.125-17.125zm-17.125 56.757h227v58.523c0 24.813-20.187 45-45 45h-182zm0 395.243c-16.542 0-30-13.458-30-30s13.458-30 30-30 30 13.458 30 30-13.458 30-30 30zm183.131-30h-123.131c0-33.084-26.916-60-60-60v-171.72h172.723c24.813 0 45 20.187 45 45v147.994c-17.595 5.484-31.079 20.357-34.592 38.726zm49.592 30c-11.304 0-20.5-9.196-20.5-20.5s9.196-20.5 20.5-20.5 20.5 9.196 20.5 20.5-9.197 20.5-20.5 20.5z"/><path d="m353.341 270.297h76.274v30h-76.274z" transform="matrix(.707 -.707 .707 .707 -87.074 360.378)"/><path d="m342.127 206.657h56.275v30h-56.275z" transform="matrix(.707 -.707 .707 .707 -48.288 326.738)"/><path d="m426.98 291.51h56.275v30h-56.275z" transform="matrix(.707 -.707 .707 .707 -83.435 411.591)"/></g></svg>