<svg id="Capa_1" enable-background="new 0 0 511.827 511.827" height="512" viewBox="0 0 511.827 511.827" width="512" xmlns="http://www.w3.org/2000/svg"><g><path d="m95.854 427.245 25.824 25.824 42.426-42.426 14.604 14.604 206.437-190.367c29.85-.177 59.656-11.625 82.381-34.351 45.813-45.813 45.813-120.356 0-166.17-45.814-45.813-120.357-45.812-166.17 0-25.362 25.363-36.675 59.53-33.956 92.754l-50.825 55.116-25.673-25.673-21.213 21.213 26.532 26.532-114.4 124.058 9.422 9.422-42.426 42.426 25.824 25.824-21.744 21.744c-19.203 19.202-19.203 50.448 0 69.65 9.602 9.603 22.211 14.402 34.824 14.401 12.61-.001 25.225-4.802 34.825-14.401l6.718-6.718-21.213-21.213-6.718 6.717c-7.505 7.506-19.719 7.507-27.224.001-7.506-7.506-7.506-19.719 0-27.225zm288.587-397.26c22.404 0 44.815 8.531 61.872 25.587 30.498 30.5 33.708 78.084 9.678 112.209l-121.887-121.887c15.039-10.591 32.679-15.909 50.337-15.909zm-71.549 37.122 121.887 121.887c-34.125 24.03-81.711 20.82-112.209-9.678-30.499-30.498-33.709-78.083-9.678-112.209zm-37.072 95.13c5.726 13.937 14.234 26.99 25.537 38.293 13.365 13.365 29.174 22.823 46 28.389l-167.807 154.743-56.145-56.145zm-163.363 196.758 30.435 30.435-21.213 21.213-30.435-30.435z"/><path d="m99.941 158.723v-118.779h-30v76.358c-4.695-1.665-9.741-2.58-15-2.58-24.813 0-45 20.187-45 45s20.187 45 45 45 45-20.186 45-44.999zm-60 0c0-8.271 6.729-15 15-15s15 6.729 15 15-6.729 15-15 15-15-6.729-15-15z"/><path d="m414.447 408.001c-4.695-1.665-9.741-2.58-15-2.58-24.813 0-45 20.187-45 45s20.187 45 45 45 45-20.187 45-45v-88.778h31.161v-30h-61.161zm-15 57.42c-8.271 0-15-6.729-15-15s6.729-15 15-15 15 6.729 15 15-6.728 15-15 15z"/></g></svg>