<svg id="Layer_1" enable-background="new 0 0 507.519 507.519" height="512" viewBox="0 0 507.519 507.519" width="512" xmlns="http://www.w3.org/2000/svg"><g><path d="m269.991 207.522h30v30h-30z"/><path d="m478.515 106.792-77.795-77.794c-48.085-48.087-129.261-34.504-158.873 26.999l-50.085 104.022c-14.633 30.39-15.064 64.899-2.791 94.883l-38.994 38.995-123.171 92.956c-32.641 24.482-35.998 72.217-7.18 101.033 28.938 28.941 76.661 25.316 101.006-7.143l92.983-123.207 38.985-38.984c29.873 12.23 64.397 11.884 94.893-2.801l104.022-50.085c61.273-29.501 75.269-110.607 27-158.874zm-381.855 355.915c-13.523 18.03-39.899 19.89-55.82 3.967-15.919-15.919-14.085-42.28 4.003-55.847l113.621-85.75 23.973 23.973zm129.017-159.658-23.407 23.406-21.213-21.213 23.406-23.407c6.355 8.257 13.401 15.137 21.214 21.214zm212.824-64.413-104.021 50.085c-73.623 35.257-150.888-42.338-115.688-115.689l50.085-104.021c20.625-42.833 77.123-52.304 110.63-18.801l77.795 77.795c33.487 33.488 24.027 90.009-18.801 110.631z"/><path d="m329.991 87.522h30v30h-30z"/><path d="m269.991 132.522h30v30h-30z"/><path d="m389.991 147.522h30v30h-30z"/><path d="m344.991 207.522h30v30h-30z"/></g></svg>