<svg id="Capa_1" enable-background="new 0 0 511.88 511.88" height="512" viewBox="0 0 511.88 511.88" width="512" xmlns="http://www.w3.org/2000/svg"><g><path d="m407.518 190.88h-30.091c-2.827-15.933-6.193-31.78-10.085-47.515 29.085-27.485 9.36-77.549-31.093-77.485h-10.119c-25.294-70.186-118.062-88.857-168.218-33.697-29.467-5.918-60.533 8.154-75.468 33.733-37.104 1.266-56.649 45.881-32.61 73.913-30.886 121.872-29.412 250.751 3.558 372.051h309.513c8.32-31.223 14.959-63.039 19.196-95h25.417c42.31 0 76.731-34.421 76.731-76.731v-72.537c.001-42.311-34.421-76.732-76.731-76.732zm-67.983-35c2.774 11.607 5.228 23.281 7.4 35h-277.572c2.172-11.719 4.626-23.393 7.4-35zm-255.285-60h17.386l3.855-9.206c6.562-15.669 21.776-25.794 38.759-25.794 7.94-.342 17.06 3.491 24.429 6.095l6.617-8.827c13.465-17.964 34.042-28.268 56.454-28.268 32.933 0 61.154 22.374 68.632 54.409l2.705 11.591h33.163c8.271 0 15 6.729 15 15s-6.729 15-15 15h-252c-19.818-.784-19.973-29.146 0-30zm-26.2 198.399h34.7v187.601h-15.987c-14.687-61.45-20.912-124.657-18.713-187.601zm124.497 187.601v-187.601h51.203v187.601zm-30-217.601v217.601h-29.797v-217.601h-63.012c1.128-14.506 2.708-28.98 4.737-43.399h287.348c2.029 14.419 3.609 28.893 4.737 43.399h-62.81v217.601h-30v-217.601zm186.988 217.601h-15.785v-187.601h34.498c2.199 62.944-4.027 126.151-18.713 187.601zm114.715-141.732c0 25.768-20.964 46.731-46.731 46.731h-21.985c5.138-55.238 3.983-110.992-3.433-166h25.417c25.768 0 46.731 20.964 46.731 46.731v72.538z"/></g></svg>