<svg id="Capa_1" enable-background="new 0 0 512 512" height="512" viewBox="0 0 512 512" width="512" xmlns="http://www.w3.org/2000/svg"><g id="Virus_2_"><g><path d="m256 512c-24.813 0-45-20.187-45-45v-33.982c0-10.569-6.729-19.923-17.559-24.411l-.82-.342c-10.959-4.612-22.448-2.796-29.982 4.737l-23.311 23.311c-17.542 17.54-46.091 17.548-63.64 0-17.545-17.544-17.546-46.093-.001-63.64l23.312-23.311c7.533-7.534 9.349-19.023 4.736-29.984l-.327-.783c-4.503-10.866-13.856-17.595-24.425-17.595h-33.983c-24.813 0-45-20.187-45-45s20.187-45 45-45h33.983c10.568 0 19.922-6.729 24.41-17.559l.353-.843c4.602-10.936 2.786-22.425-4.747-29.959l-23.311-23.311c-17.586-17.586-17.59-46.051 0-63.641 17.544-17.544 46.093-17.545 63.639 0l23.312 23.312c7.534 7.534 19.024 9.348 29.984 4.736l.83-.346c10.818-4.484 17.547-13.837 17.547-24.407v-33.982c0-24.813 20.187-45 45-45s45 20.187 45 45v33.982c0 10.569 6.729 19.923 17.56 24.411l.801.334c10.979 4.62 22.468 2.803 30.001-4.729l23.312-23.311c17.548-17.546 46.098-17.543 63.64 0 17.544 17.544 17.545 46.093.001 63.64l-23.312 23.311c-7.533 7.534-9.349 19.023-4.736 29.984l.346.83c4.482 10.819 13.836 17.548 24.405 17.548h33.982c24.813 0 45 20.187 45 45s-20.187 45-45 45h-33.982c-10.568 0-19.923 6.729-24.411 17.56l-.332.796c-4.621 10.982-2.806 22.472 4.728 30.005l23.311 23.311c17.544 17.548 17.544 46.096 0 63.641-17.543 17.544-46.092 17.545-63.639.001l-23.312-23.312c-7.533-7.534-19.025-9.35-29.983-4.736l-.83.346c-10.821 4.483-17.55 13.836-17.55 24.406v33.982c0 24.813-20.187 45-45 45zm-51.742-131.387.656.274c21.926 9.086 36.086 29.547 36.086 52.131v33.982c0 8.271 6.729 15 15 15s15-6.729 15-15v-33.982c0-22.584 14.16-43.045 36.075-52.126l.686-.286c22.067-9.287 46.73-4.899 62.813 11.183l23.312 23.311c5.85 5.849 15.366 5.848 21.214 0 5.848-5.849 5.848-15.366-.001-21.216l-23.31-23.31c-16.082-16.082-20.469-40.745-11.176-62.832l.273-.656c9.089-21.926 29.549-36.086 52.132-36.086h33.982c8.271 0 15-6.729 15-15s-6.729-15-15-15h-33.982c-22.583 0-43.043-14.16-52.126-36.074l-.287-.689c-9.284-22.066-4.897-46.729 11.185-62.811l23.311-23.311c5.848-5.849 5.848-15.366 0-21.214s-15.363-5.848-21.215.001l-23.311 23.31c-16.083 16.083-40.746 20.468-62.831 11.175l-.656-.274c-21.928-9.086-36.088-29.546-36.088-52.131v-33.982c0-8.271-6.729-15-15-15s-15 6.729-15 15v33.982c0 22.584-14.16 43.044-36.074 52.126l-.666.278c-22.086 9.292-46.751 4.908-62.834-11.175l-23.311-23.311c-5.85-5.848-15.364-5.849-21.214 0-5.862 5.862-5.863 15.35.001 21.215l23.31 23.31c16.082 16.082 20.469 40.745 11.176 62.832l-.294.702c-9.066 21.88-29.526 36.04-52.11 36.04h-33.984c-8.271 0-15 6.729-15 15s6.729 15 15 15h33.983c22.584 0 43.044 14.16 52.125 36.075l.269.642c9.304 22.112 4.917 46.775-11.165 62.857l-23.311 23.311c-5.849 5.849-5.849 15.366 0 21.214 5.849 5.849 15.364 5.849 21.215 0l23.31-23.31c15.831-15.831 40.416-20.607 62.832-11.175z"/></g><g><path d="m196 331c-24.813 0-45-20.187-45-45s20.187-45 45-45 45 20.187 45 45-20.187 45-45 45zm0-60c-8.271 0-15 6.729-15 15s6.729 15 15 15 15-6.729 15-15-6.729-15-15-15z"/></g><g><path d="m316 271c-24.813 0-45-20.187-45-45s20.187-45 45-45 45 20.187 45 45-20.187 45-45 45zm0-60c-8.271 0-15 6.729-15 15s6.729 15 15 15 15-6.729 15-15-6.729-15-15-15z"/></g><g><path d="m241 331h30v30h-30z" transform="matrix(.707 -.707 .707 .707 -169.677 282.351)"/></g><g><path d="m301 301h30v30h-30z" transform="matrix(.707 -.707 .707 .707 -130.891 315.99)"/></g><g><path d="m181 181h30v30h-30z" transform="matrix(.707 -.707 .707 .707 -81.186 195.994)"/></g><g><path d="m241 151h30v30h-30z" transform="matrix(.707 -.707 .707 .707 -42.4 229.633)"/></g></g></svg>