<svg id="Capa_1" enable-background="new 0 0 512 512" height="512" viewBox="0 0 512 512" width="512" xmlns="http://www.w3.org/2000/svg"><g><path d="m121.002 0v75c1.132 13.02-9.555 157.237 60 332.841v104.159h150v-104.159c47.325-119.48 60-222.618 60-332.841v-75zm30 30h210v30h-210zm150 452h-30v-30h-30v30h-30v-62h90zm4.778-92h-99.557c-61.39-159.03-54.257-289.354-55.222-300h210c-1.641 18.13 5.912 141.636-55.221 300z"/><path d="m199.452 252.867c12.071 19.531 29.306 35.281 49.842 45.549l6.708 3.354 6.708-3.354c20.536-10.268 37.771-26.019 49.842-45.549 12.07-19.53 18.45-41.99 18.45-64.949v-67.918h-150v67.918c0 22.959 6.38 45.419 18.45 64.949zm11.55-102.867h90v37.918c0 33.089-17.058 63.076-45 79.969-27.942-16.893-45-46.88-45-79.969z"/></g></svg>