<svg id="Capa_1" enable-background="new 0 0 512 512" height="512" viewBox="0 0 512 512" width="512" xmlns="http://www.w3.org/2000/svg"><g><g><path d="m188.5 195h30v30h-30z"/><path d="m293.5 195h30v30h-30z"/><path d="m447.167 329.845c8.885-19.6 13.712-41.112 13.712-63.217h-30c0 18.092-4.026 35.688-11.416 51.681l-28.631-9.491c6.422-12.688 10.047-27.023 10.047-42.189 0-7.882-1.005-15.714-2.946-23.296h8.067c24.813 0 45-20.187 45-45 0-19.651-12.666-36.389-30.259-42.508-4.778-86.73-76.839-155.825-164.741-155.825s-159.963 69.095-164.741 155.825c-17.593 6.119-30.259 22.857-30.259 42.508 0 24.813 20.187 45 45 45h8.067c-1.94 7.582-2.946 15.414-2.946 23.296 0 15.167 3.625 29.501 10.047 42.189l-28.631 9.491c-7.39-15.992-11.416-33.589-11.416-51.681h-30c0 22.105 4.827 43.616 13.712 63.217-21.365 13.52-34.833 37.198-34.833 63.346v118.809h452v-118.809c0-26.148-13.468-49.826-34.833-63.346zm-306.046-63.216c0-10.564 2.626-20.993 7.602-30.218 2.326-3.574 2.323-7.168 2.321-10.666l-.033-43.525c23.562-2.919 69.959-13.482 104.988-51.676 35.03 38.194 81.429 48.757 104.99 51.676l-.033 43.525c-.002 3.498-.005 7.092 2.321 10.666 4.976 9.225 7.602 19.653 7.602 30.218 0 35.146-28.593 63.738-63.738 63.738h-102.282c-35.145 0-63.738-28.593-63.738-63.738zm264.879-53.296h-15.035c.007-9.162.016-20.837.023-30h15.012c8.271 0 15 6.729 15 15s-6.729 15-15 15zm-150-183.333c70.509 0 128.555 54.336 134.49 123.333h-14.45c-.691-.004-69.678-1.007-107.761-55.306l-12.28-17.51-12.28 17.51c-38.083 54.299-107.068 55.302-107.721 55.306h-14.488c5.935-68.997 63.981-123.333 134.49-123.333zm-165 168.333c0-8.271 6.729-15 15-15h15.012c.007 9.163.016 20.838.023 30h-15.035c-8.271 0-15-6.729-15-15zm361 283.667h-392v-88.809c0-15.248 7.632-29.097 19.829-37.31 12.563 17.61 28.865 32.67 48.136 43.842l15.047-25.953c-13.267-7.691-24.781-17.672-34.167-29.261l31.11-10.313c16.856 16.198 39.737 26.171 64.905 26.171h102.281c25.168 0 48.049-9.973 64.905-26.171l31.11 10.313c-9.386 11.589-20.9 21.57-34.167 29.261l15.047 25.953c19.271-11.172 35.573-26.232 48.136-43.842 12.197 8.213 19.829 22.062 19.829 37.31v88.809z"/></g></g></svg>