<svg id="Capa_1" enable-background="new 0 0 512 512" height="512" viewBox="0 0 512 512" width="512" xmlns="http://www.w3.org/2000/svg"><g><path d="m323.19 119.377 47.937-119.377h-95.275l-18.919 47.115-19.39-47.115h-95.181l47.937 119.377h-69.253v392.623h269.907v-392.623zm-27.063-89.387h30.641l-37.97 94.556-15.508-37.684zm-78.672 0 49.127 119.377h-31.924l-47.936-119.377zm143.509 452.02h-209.928v-332.644h51.306l12.043 29.99h84.721l12.043-29.99h49.816v332.644z"/><path d="m197.561 410.682h116.877v29.99h-116.877z"/><path d="m297.845 289.892-4.055-2.186c5.501-7.649 8.754-17.017 8.754-27.137 0-25.691-20.901-46.592-46.592-46.592s-46.592 20.901-46.592 46.592c0 10.119 3.253 19.488 8.754 27.136l-4.056 2.186c-20.361 10.975-33.01 32.162-33.01 55.292v35.208h149.809v-35.208c-.002-23.13-12.651-44.316-33.012-55.291zm-41.894-45.925c9.155 0 16.603 7.448 16.603 16.603s-7.448 16.603-16.603 16.603-16.603-7.448-16.603-16.603 7.448-16.603 16.603-16.603zm44.914 106.436h-89.829v-5.218c0-12.087 6.61-23.158 17.25-28.893l16.938-9.129h21.456l16.937 9.129c10.64 5.735 17.25 16.806 17.25 28.893v5.218z"/></g></svg>