<svg id="Capa_1" enable-background="new 0 0 510 510" height="512" viewBox="0 0 510 510" width="512" xmlns="http://www.w3.org/2000/svg"><g><path d="m465 0h-62.993c-21.933 0-42.3 10.431-54.48 28.67-6.604 9.886-17.644 15.33-29.534 15.33-15.247 0-110.638 0-125.986 0-11.89 0-22.93-5.444-29.533-15.33-12.181-18.239-32.548-28.67-54.481-28.67h-62.993c-24.813 0-45 19.729-45 44.542v119.834c0 24.813 20.187 44.624 45 44.624h62.993c21.933 0 42.3-10.93 54.48-29.169 6.604-9.888 17.644-15.831 29.533-15.831h125.986c11.89 0 22.93 5.943 29.533 15.831 12.182 18.239 32.549 29.169 54.482 29.169h62.993c24.814 0 45-19.811 45-44.624v-119.834c0-24.813-20.186-44.542-45-44.542zm-327.474 163.398c-6.603 9.887-17.643 15.602-29.533 15.602h-62.993c-8.271 0-15-6.352-15-14.624v-119.834c0-8.271 6.729-14.542 15-14.542h62.993c11.89 0 22.93 5.674 29.533 15.561 3.524 5.277 7.738 9.706 12.474 13.667v90.462c-4.735 3.96-8.949 8.431-12.474 13.708zm54.481-29.398c-4.07 0-8.087.835-12.007 1.562v-62.208c3.92.728 7.936.646 12.007.646h125.986c4.07 0 8.087.081 12.007-.646v62.209c-3.92-.727-7.936-1.562-12.007-1.562-15.247-.001-110.638-.001-125.986-.001zm287.993 30.376c0 8.271-6.728 14.624-15 14.624h-62.993c-11.89 0-22.93-5.715-29.533-15.602-3.524-5.277-7.738-9.748-12.474-13.709v-90.461c4.735-3.961 8.949-8.39 12.474-13.667 6.603-9.887 17.643-15.561 29.533-15.561h62.993c8.272 0 15 6.271 15 14.542z"/><path d="m465 255h-62.993c-21.933 0-42.299 10.93-54.48 29.168-6.604 9.888-17.644 15.832-29.534 15.832-15.247 0-110.638 0-125.986 0-11.89 0-22.93-5.944-29.533-15.833-12.182-18.237-32.548-29.167-54.481-29.167h-62.993c-24.813 0-45 19.812-45 44.626v119.832c0 24.814 20.187 44.542 45 44.542h62.993c21.933 0 42.299-10.43 54.48-28.668 6.604-9.888 17.644-15.332 29.533-15.332h125.986c11.89 0 22.93 5.444 29.533 15.333 12.183 18.237 32.549 28.667 54.482 28.667h62.993c24.814 0 45-19.728 45-44.542v-119.832c0-24.814-20.186-44.626-45-44.626zm-327.474 163.441c-6.603 9.885-17.643 15.559-29.533 15.559h-62.993c-8.271 0-15-6.271-15-14.542v-119.832c0-8.272 6.729-14.626 15-14.626h62.993c11.89 0 22.93 5.715 29.533 15.602 3.524 5.277 7.738 9.748 12.474 13.709v90.463c-4.735 3.96-8.949 8.39-12.474 13.667zm54.481-28.441c-4.07 0-8.087-.081-12.007.647v-62.209c3.92.728 7.936 1.562 12.007 1.562h125.986c4.07 0 8.087-.835 12.007-1.562v62.209c-3.92-.728-7.936-.647-12.007-.647-15.247 0-110.638 0-125.986 0zm287.993 29.458c0 8.271-6.728 14.542-15 14.542h-62.993c-11.89 0-22.93-5.674-29.533-15.559-3.524-5.277-7.738-9.707-12.474-13.668v-90.463c4.735-3.961 8.949-8.432 12.474-13.709 6.603-9.887 17.644-15.602 29.533-15.602h62.993c8.272 0 15 6.354 15 14.626z"/></g></svg>