<svg id="Capa_1" enable-background="new 0 0 512 512" height="512" viewBox="0 0 512 512" width="512" xmlns="http://www.w3.org/2000/svg"><g><path d="m87 0v512h338v-512zm101.687 30h134.627v31.352h-134.627zm206.313 452h-278v-452h41.687v61.352h194.627v-61.352h41.686z"/><path d="m241 422h30v30h-30z"/><path d="m308.061 211.449c0-28.706-23.354-52.061-52.061-52.061s-52.061 23.354-52.061 52.061v29.857h-16.212v112.656h136.545v-112.655h-16.212v-29.858zm-74.122 0c0-12.164 9.896-22.061 22.061-22.061s22.061 9.896 22.061 22.061v29.857h-44.121v-29.857zm60.333 112.514h-76.545v-52.656h76.545z"/></g></svg>