<svg id="Capa_1" enable-background="new 0 0 512 512" height="512" viewBox="0 0 512 512" width="512" xmlns="http://www.w3.org/2000/svg"><g><path d="m210.875 286.188h30v30h-30z"/><path d="m496.938 105.375c0-58.104-47.272-105.375-105.376-105.375-56.042 0-102 43.979-105.191 99.236-19.17-5.758-39.476-8.861-60.496-8.861-116.242 0-210.812 94.57-210.812 210.812s94.57 210.813 210.812 210.813 210.812-94.57 210.812-210.812c0-33.389-7.811-64.984-21.69-93.068 46.862-10.684 81.941-52.694 81.941-102.745zm-271.063 376.625c-99.7 0-180.812-81.112-180.812-180.812s81.112-180.812 180.812-180.812c22.42 0 43.892 4.116 63.719 11.611 11.053 42.323 47.825 74.355 92.544 78.338 15.596 26.715 24.55 57.761 24.55 90.864 0 99.699-81.113 180.811-180.813 180.811zm165.687-301.25c-41.562 0-75.375-33.813-75.375-75.375s33.814-75.375 75.375-75.375 75.375 33.813 75.375 75.375-33.813 75.375-75.375 75.375z"/><path d="m406.562 59.062h-30v31.313h-31.313v30h31.313v31.313h30v-31.313h31.314v-30h-31.314z"/><path d="m160.625 301.188c0 35.979 29.271 65.25 65.25 65.25s65.25-29.271 65.25-65.25-29.271-65.25-65.25-65.25-65.25 29.271-65.25 65.25zm65.25-35.25c19.437 0 35.25 15.813 35.25 35.25s-15.813 35.25-35.25 35.25-35.25-15.813-35.25-35.25 15.813-35.25 35.25-35.25z"/><path d="m165.829 214.428-17.098-24.65c-8.958 6.213-17.165 13.509-24.394 21.684l22.473 19.873c5.638-6.376 12.037-12.064 19.019-16.907z"/><path d="m120.375 301.305-30 .033c.012 10.953 1.337 21.855 3.939 32.405l29.127-7.186c-2.025-8.21-3.057-16.706-3.066-25.252z"/><path d="m132.37 252.278-26.568-13.932c-5.077 9.683-8.967 19.971-11.559 30.579l29.143 7.121c2.014-8.243 5.037-16.24 8.984-23.768z"/><path d="m212.961 196.469-3.629-29.779c-10.855 1.322-21.527 3.964-31.721 7.851l10.689 28.031c7.922-3.021 16.219-5.074 24.661-6.103z"/><path d="m328.28 275.703 29.119-7.217c-2.626-10.595-6.548-20.867-11.656-30.533l-26.523 14.02c3.971 7.513 7.02 15.498 9.06 23.73z"/><path d="m273.712 174.379c-10.209-3.854-20.895-6.46-31.761-7.746l-3.525 29.793c8.451 1 16.759 3.025 24.692 6.02z"/><path d="m331.375 301.188c0 8.545-1.022 17.043-3.038 25.257l29.135 7.15c2.59-10.551 3.903-21.455 3.903-32.407v-.268h-30z"/><path d="m302.66 189.53-17.02 24.705c7 4.822 13.417 10.49 19.073 16.847l22.411-19.943c-7.254-8.153-15.484-15.423-24.464-21.609z"/><path d="m304.86 371.132 22.453 19.895c7.248-8.18 13.494-17.218 18.565-26.863l-26.553-13.961c-3.949 7.511-8.816 14.553-14.465 20.929z"/><path d="m148.965 412.759c9.001 6.216 18.736 11.325 28.934 15.187l10.623-28.057c-7.931-3.002-15.504-6.978-22.51-11.815z"/><path d="m105.936 364.286c5.08 9.64 11.334 18.669 18.589 26.838l22.432-19.92c-5.653-6.366-10.524-13.398-14.479-20.904z"/><path d="m263.34 399.847 10.656 28.043c10.187-3.87 19.909-8.986 28.897-15.206l-17.07-24.67c-6.996 4.84-14.56 8.822-22.483 11.833z"/><path d="m213.208 405.937-3.557 29.789c5.349.639 10.807.962 16.224.962 5.479 0 10.995-.331 16.396-.983l-3.6-29.783c-8.372 1.011-17.072 1.016-25.463.015z"/></g></svg>