<svg id="Capa_1" enable-background="new 0 0 512 512" height="512" viewBox="0 0 512 512" width="512" xmlns="http://www.w3.org/2000/svg"><g><path d="m442.949 104.587c0-41.127-33.46-74.587-74.587-74.587h-44.587v-30h-150v90h30v33.608h-53.762c-23.433 0-45.693 10.139-61.075 27.815-15.383 17.677-22.348 41.125-19.11 64.333l41.329 296.244h275.236l41.329-296.242c2.638-18.908-1.497-37.976-11.438-53.952 16.767-13.954 26.665-34.642 26.665-57.219zm-74.587-44.587c24.585 0 44.587 20.002 44.587 44.587 0 13.971-6.342 26.735-17.016 35.076-13.86-10.336-30.798-16.055-48.396-16.055h-53.762v-33.608h30v-30zm-164.586-30h90v30h-90zm-92.206 141.117c9.683-11.127 23.694-17.509 38.444-17.509h83.762v-63.608h30v63.608h83.762c14.75 0 28.763 6.382 38.445 17.509s14.066 25.887 12.027 40.495l-1.044 7.482c-16.262 1.63-26.144 6.575-35.05 11.032-9.396 4.701-16.816 8.414-33.258 8.414s-23.862-3.713-33.258-8.414c-10.853-5.431-23.153-11.586-46.682-11.586-23.527 0-35.828 6.155-46.681 11.586-9.395 4.701-16.814 8.414-33.255 8.414-16.439 0-23.86-3.713-33.254-8.414-8.887-4.447-18.745-9.38-34.943-11.021l-1.045-7.493c-2.037-14.608 2.347-29.369 12.03-40.495zm248.718 310.883h-223.025l-32.347-231.86c6.608 1.52 11.541 3.989 17.188 6.814 10.853 5.431 23.152 11.586 46.68 11.586s35.828-6.155 46.681-11.586c9.395-4.701 16.814-8.414 33.255-8.414s23.862 3.713 33.258 8.414c10.853 5.431 23.153 11.586 46.682 11.586s35.829-6.155 46.682-11.586c5.678-2.841 10.635-5.321 17.298-6.839z"/><path d="m309.864 362.261h30v30h-30z"/><path d="m265.078 419.13h30v30h-30z"/></g></svg>