<svg id="Capa_1" enable-background="new 0 0 512 512" height="512" viewBox="0 0 512 512" width="512" xmlns="http://www.w3.org/2000/svg"><g><path d="m429.367 181.244c-16.421-21.995-25.465-49.224-25.465-76.672v-104.572h-197.918v82.891l-109.426-37.089v-21.406h-30v222.208h30v-21.406l109.426-37.089v11.917c-34.928 21.17-58.317 59.548-58.317 103.287v208.687h241.375v-208.687c0-43.739-23.39-82.117-58.317-103.287v-109.379h43.178v13.925c0 33.874 11.161 67.477 31.426 94.62l16.074 21.53 24.039-17.947zm-193.383-151.244h137.918v30.647h-137.918zm-139.426 163.522v-116.044l109.426 37.089v41.866zm262.483 109.791v178.687h-181.374v-36.671h50.747v-30h-50.747v-36.671h50.747v-30h-50.747v-36.671h50.747v-30h-48.208c9.618-39.747 45.487-69.36 88.148-69.36 50.005-.001 90.687 40.681 90.687 90.686zm-58.317-116.272c-10.306-2.873-21.16-4.415-32.37-4.415-11.209 0-22.064 1.542-32.37 4.415v-96.394h64.74z"/></g></svg>