<?xml version="1.0" encoding="iso-8859-1"?>
<!-- Generator: Adobe Illustrator 19.0.0, SVG Export Plug-In . SVG Version: 6.00 Build 0)  -->
<svg version="1.1" id="Layer_1" xmlns="http://www.w3.org/2000/svg" xmlns:xlink="http://www.w3.org/1999/xlink" x="0px" y="0px"
	 viewBox="0 0 511.998 511.998" style="enable-background:new 0 0 511.998 511.998;" xml:space="preserve">
<g>
	<g>
		<circle cx="190.51" cy="333.396" r="17.861"/>
	</g>
</g>
<g>
	<g>
		<circle cx="321.488" cy="333.396" r="17.861"/>
	</g>
</g>
<g>
	<g>
		<ellipse cx="255.999" cy="398.885" rx="35.721" ry="23.814"/>
	</g>
</g>
<g>
	<g>
		<path d="M506.045,369.115h-53.748c0.1-1.978,0.167-3.961,0.167-5.953c0-9.804-1.234-19.443-3.622-28.825l53.284-26.642
			l-15.974-31.95l-51.157,25.579c-10.021-16.723-24.197-32.022-42.14-45.18c-3.634-2.665-7.387-5.206-11.243-7.631
			c17.947-47.405,51.983-138.518,57.149-161.185c8.754-38.409-15.372-76.778-53.781-85.532
			c-38.409-8.754-76.778,15.372-85.532,53.781c-4.109,18.028-12.517,106.712-17.343,160.048c-8.589-0.855-17.305-1.299-26.106-1.299
			c-8.802,0-17.518,0.445-26.106,1.299c-4.826-53.335-13.233-142.019-17.343-160.048c-8.754-38.407-47.124-62.531-85.532-53.781
			c-38.41,8.753-62.536,47.122-53.782,85.532c5.167,22.666,39.202,113.78,57.149,161.185c-3.855,2.425-7.609,4.966-11.243,7.631
			c-17.943,13.158-32.12,28.455-42.14,45.18l-51.157-25.579L9.87,307.693l53.284,26.642c-2.389,9.382-3.622,19.021-3.622,28.825
			c0,1.992,0.065,3.976,0.165,5.953H5.95v35.721h61.262c9.338,24.637,26.994,47.058,51.931,65.343
			c36.775,26.968,85.378,41.82,136.856,41.82c51.478,0,100.081-14.852,136.856-41.82c24.936-18.286,42.594-40.707,51.931-65.343
			h61.262v-35.72H506.045z M334.275,63.511c4.378-19.204,23.569-31.268,42.766-26.89c19.204,4.377,31.267,23.562,26.89,42.766
			c-4.196,18.413-34.272,99.645-54.325,152.745c-10.295-4.211-21.06-7.712-32.186-10.459
			C323.346,156.062,331.06,77.617,334.275,63.511z M108.065,79.388c-4.377-19.205,7.686-38.389,26.89-42.767
			c2.661-0.606,5.321-0.897,7.942-0.897c16.295,0,31.055,11.244,34.825,27.786c3.215,14.105,10.929,92.551,16.853,158.161
			c-11.126,2.747-21.89,6.248-32.186,10.459C142.337,179.033,112.262,97.803,108.065,79.388z M371.729,441.372
			c-30.694,22.509-71.795,34.904-115.732,34.904s-85.038-12.396-115.732-34.904c-29.027-21.286-45.013-49.063-45.013-78.213
			c0-29.15,15.986-56.925,45.013-78.213c30.694-22.509,71.795-34.904,115.732-34.904s85.038,12.396,115.732,34.904
			c29.027,21.286,45.013,49.063,45.013,78.213C416.743,392.31,400.756,420.086,371.729,441.372z"/>
	</g>
</g>
<g>
</g>
<g>
</g>
<g>
</g>
<g>
</g>
<g>
</g>
<g>
</g>
<g>
</g>
<g>
</g>
<g>
</g>
<g>
</g>
<g>
</g>
<g>
</g>
<g>
</g>
<g>
</g>
<g>
</g>
</svg>
