<?xml version="1.0" encoding="iso-8859-1"?>
<!-- Generator: Adobe Illustrator 19.0.0, SVG Export Plug-In . SVG Version: 6.00 Build 0)  -->
<svg version="1.1" id="Layer_1" xmlns="http://www.w3.org/2000/svg" xmlns:xlink="http://www.w3.org/1999/xlink" x="0px" y="0px"
	 viewBox="0 0 512 512" style="enable-background:new 0 0 512 512;" xml:space="preserve">
<g>
	<g>
		<path d="M405.374,87.872C365.954,31.207,312.906,0,256,0S146.046,31.207,106.626,87.872
			c-38.045,54.691-58.998,127.086-58.998,203.849C47.628,413.183,141.102,512,256,512s208.372-98.817,208.372-220.279
			C464.372,214.958,443.419,142.563,405.374,87.872z M256,476.279c-95.2,0-172.651-82.793-172.651-184.558
			c0-69.539,18.681-134.689,52.6-183.448C168.496,61.486,211.13,35.721,256,35.721s87.504,25.766,120.051,72.552
			c33.919,48.759,52.6,113.909,52.6,183.448C428.651,393.486,351.2,476.279,256,476.279z"/>
	</g>
</g>
<g>
	<g>
		<path d="M390.82,255.759c3.32-16.966-0.167-34.21-9.817-48.554c-9.649-14.344-24.308-24.072-41.274-27.392
			c-16.473-3.224-33.2-0.013-47.287,9.008l3.186-22.301c0.468-3.27,3.08-6.982,6.82-9.69c3.866-2.798,8.493-4.216,12.065-3.708
			l10.403,1.486l5.051-35.361l-10.402-1.486c-12.771-1.824-26.644,1.869-38.062,10.133c-11.655,8.435-19.395,20.673-21.237,33.574
			L256,191.33l-4.266-29.859c-1.843-12.902-9.584-25.139-21.237-33.575c-11.418-8.263-25.29-11.958-38.062-10.133l-10.402,1.486
			l5.051,35.361l10.403-1.486c3.578-0.508,8.199,0.91,12.065,3.708c3.74,2.706,6.352,6.42,6.82,9.69l3.276,22.932
			c-29.586-19.691-69.694-11.77-89.554,17.751c-9.649,14.344-13.136,31.588-9.816,48.554c2.976,15.209,11.114,28.552,23.098,38.106
			c-7.182,8.287-12.149,18.34-14.366,29.427c-3.419,17.098,0.061,34.485,9.796,48.956c9.649,14.344,24.308,24.072,41.276,27.392
			c4.187,0.819,8.388,1.224,12.562,1.224c12.737,0,25.188-3.772,35.992-11.04c9.765-6.569,18.402-19.581,26.913-35.048
			c8.511,15.467,17.148,28.479,26.913,35.048c11.059,7.441,23.608,11.001,36.031,11.001c20.838,0,41.318-10.023,53.799-28.577
			c9.649-14.344,13.136-31.588,9.816-48.554c-2.19-11.196-7.186-21.375-14.442-29.784
			C379.681,284.353,387.84,270.993,390.82,255.759z M208.697,360.186c-6.426,4.325-14.154,5.886-21.758,4.398
			c-7.603-1.487-14.17-5.846-18.495-12.274c-4.378-6.508-5.943-14.326-4.406-22.014c1.504-7.52,5.821-13.969,12.158-18.158
			c1.069-0.706,2.731-1.534,4.901-2.434c17.22,4.388,36.928,7.678,52.681,9.682C226.171,334.278,214.785,356.091,208.697,360.186z
			 M237.688,283.968c-28.843-3.658-62.154-11.238-70.08-16.571c-6.427-4.325-10.787-10.893-12.275-18.495
			c-1.486-7.604,0.076-15.33,4.4-21.758c5.593-8.313,14.769-12.805,24.108-12.805c5.565,0,11.189,1.597,16.145,4.929
			c7.407,4.983,25.799,26.979,37.702,48.605V283.968z M342.655,352.311c-8.927,13.268-26.985,16.803-40.253,7.874
			c-6.087-4.095-17.472-25.907-25.082-40.799c15.711-1.998,35.355-5.277,52.543-9.647c2.164,0.794,3.806,1.574,4.915,2.319
			c6.427,4.323,10.786,10.893,12.275,18.495C348.541,338.156,346.979,345.883,342.655,352.311z M355.763,248.902
			c-1.487,7.603-5.846,14.171-12.275,18.495c-7.925,5.332-41.236,12.913-70.08,16.571v-16.094
			c11.906-21.627,30.297-43.624,37.705-48.607c6.427-4.323,14.155-5.886,21.756-4.398c7.603,1.488,14.17,5.847,18.495,12.275
			C355.688,233.572,357.25,241.3,355.763,248.902z"/>
	</g>
</g>
<g>
</g>
<g>
</g>
<g>
</g>
<g>
</g>
<g>
</g>
<g>
</g>
<g>
</g>
<g>
</g>
<g>
</g>
<g>
</g>
<g>
</g>
<g>
</g>
<g>
</g>
<g>
</g>
<g>
</g>
</svg>
