<?xml version="1.0" encoding="iso-8859-1"?>
<!-- Generator: Adobe Illustrator 19.0.0, SVG Export Plug-In . SVG Version: 6.00 Build 0)  -->
<svg version="1.1" id="Layer_1" xmlns="http://www.w3.org/2000/svg" xmlns:xlink="http://www.w3.org/1999/xlink" x="0px" y="0px"
	 viewBox="0 0 512 512" style="enable-background:new 0 0 512 512;" xml:space="preserve">
<g>
	<g>
		<path d="M358.225,226.497c-22.122-31.8-50.692-51.804-81.955-57.846c4.682-7.766,11.947-20.131,19.288-33.834
			c23.241-43.388,25.93-60.347,25.93-69.328C321.488,29.378,292.11,0,256,0s-65.488,29.378-65.488,65.488
			c0,8.981,2.689,25.941,25.93,69.328c7.339,13.703,14.607,26.068,19.288,33.834c-31.263,6.043-59.833,26.047-81.955,57.846
			c-25.452,36.587-39.468,84.911-39.468,136.071C114.307,444.965,177.87,512,256,512s141.693-67.035,141.693-149.433
			C397.693,311.408,383.677,263.083,358.225,226.497z M226.233,65.488c0-16.414,13.354-29.767,29.767-29.767
			s29.767,13.354,29.767,29.767c0,8.155-11.059,34.429-29.767,67.303C237.292,99.917,226.233,73.643,226.233,65.488z
			 M183.098,246.896c19.953-28.682,45.842-44.477,72.902-44.477s52.949,15.796,72.902,44.477
			c7.442,10.698,13.713,22.67,18.73,35.586c-7.494-4.51-17.434-8.621-32.102-8.621c-20.644,0-31.949,8.14-40.203,14.082
			c-6.582,4.739-10.208,7.35-19.33,7.35c-9.123,0-12.749-2.61-19.331-7.35c-8.255-5.945-19.558-14.084-40.203-14.084
			c-14.661,0-24.6,4.108-32.093,8.616C169.386,269.563,175.657,257.593,183.098,246.896z M256,476.279
			c-42.81,0-79.77-27.381-96.474-66.679h192.949C335.77,448.898,298.81,476.279,256,476.279z M150.551,373.878
			c-0.344-3.72-0.523-7.493-0.523-11.31c0-11.332,0.787-22.47,2.312-33.292c11.369-2.71,18.876-8.084,24.792-12.344
			c6.582-4.739,10.208-7.35,19.33-7.35s12.748,2.61,19.33,7.35c8.255,5.943,19.558,14.082,40.204,14.082
			c20.644,0,31.949-8.14,40.203-14.082c6.582-4.739,10.208-7.35,19.33-7.35c9.124,0,12.751,2.611,19.335,7.35
			c5.918,4.26,13.424,9.634,24.795,12.344c1.525,10.821,2.312,21.96,2.312,33.291c0,3.817-0.179,7.591-0.523,11.312H150.551z"/>
	</g>
</g>
<g>
</g>
<g>
</g>
<g>
</g>
<g>
</g>
<g>
</g>
<g>
</g>
<g>
</g>
<g>
</g>
<g>
</g>
<g>
</g>
<g>
</g>
<g>
</g>
<g>
</g>
<g>
</g>
<g>
</g>
</svg>
