<?xml version="1.0" encoding="iso-8859-1"?>
<!-- Generator: Adobe Illustrator 19.0.0, SVG Export Plug-In . SVG Version: 6.00 Build 0)  -->
<svg version="1.1" id="Layer_1" xmlns="http://www.w3.org/2000/svg" xmlns:xlink="http://www.w3.org/1999/xlink" x="0px" y="0px"
	 viewBox="0 0 512.001 512.001" style="enable-background:new 0 0 512.001 512.001;" xml:space="preserve">
<g>
	<g>
		<path d="M390.295,105.103c1.742-10.3,0.443-20.758-3.727-30.234c4.958-11.268,5.877-23.926,2.422-36.053
			c-3.911-13.727-12.935-25.109-25.407-32.049c-12.47-6.94-26.897-8.609-40.628-4.697c-6.368,1.815-17.341,6.781-40.329,28.119
			c-7.753-4.772-16.871-7.532-26.625-7.532c-9.754,0-18.871,2.76-26.625,7.532C206.387,8.85,195.415,3.886,189.047,2.071
			c-13.726-3.913-28.155-2.244-40.628,4.696c-12.472,6.941-21.495,18.323-25.407,32.05c-3.456,12.128-2.536,24.786,2.422,36.053
			c-4.168,9.476-5.47,19.934-3.727,30.234c-33.88,35.08-52.504,80.94-52.504,129.529V441.81c0,38.703,31.487,70.191,70.191,70.191
			h233.215c38.703,0,70.191-31.487,70.191-70.191V234.634C442.799,186.044,424.174,140.184,390.295,105.103z M304.037,56.66
			c12.769-11.948,23.675-20.606,28.226-21.927c5.003-1.425,10.261-0.817,14.804,1.712c4.545,2.529,7.834,6.677,9.26,11.68
			c1.647,5.777,0.56,11.892-2.982,16.778l-7.223,9.966l7.223,9.966c3.541,4.886,4.629,11.002,2.982,16.78
			c-1.425,5.002-4.714,9.151-9.26,11.679c-4.544,2.53-9.801,3.138-14.804,1.712c-4.635-1.345-15.861-10.302-28.933-22.591
			c2.324-5.825,3.615-12.169,3.615-18.812C306.945,67.663,305.913,61.963,304.037,56.66z M256.001,56.621
			c9.364,0,16.982,7.618,16.982,16.982s-7.618,16.982-16.982,16.982s-16.982-7.618-16.982-16.982
			C239.019,64.239,246.637,56.621,256.001,56.621z M158.656,64.903c-3.541-4.885-4.628-11.001-2.981-16.779
			c1.425-5.002,4.714-9.151,9.258-11.679c2.937-1.634,6.17-2.466,9.44-2.466c1.792,0,3.594,0.25,5.365,0.755
			c4.551,1.321,15.456,9.978,28.225,21.927c-1.876,5.304-2.907,11.004-2.907,16.942c0,6.643,1.292,12.988,3.615,18.812
			c-13.073,12.289-24.299,21.247-28.932,22.591c-5.004,1.425-10.26,0.818-14.806-1.712c-4.545-2.529-7.833-6.677-9.258-11.679
			c-1.647-5.778-0.56-11.894,2.982-16.78l7.223-9.966L158.656,64.903z M408.836,441.809c0,19.976-16.251,36.228-36.228,36.228
			H139.393c-19.976,0-36.228-16.251-36.228-36.228v-12.449c15.094,9.429,32.729,14.713,50.945,14.713
			c18.073,0,35.744-5.119,50.945-14.604c15.201,9.485,32.872,14.604,50.945,14.604s35.744-5.119,50.945-14.604
			c15.201,9.485,32.872,14.604,50.945,14.604c18.216,0,35.852-5.284,50.945-14.713V441.809z M408.836,381.807v1.808
			c-11.67,16.67-30.403,26.495-50.945,26.495c-14.619,0-28.833-5.178-40.02-14.579l-10.925-9.181l-10.925,9.181
			c-11.188,9.402-25.401,14.579-40.02,14.579c-14.62,0-28.831-5.178-40.02-14.579l-10.925-9.181l-10.925,9.181
			c-11.188,9.402-25.4,14.579-40.02,14.579c-20.542,0-39.275-9.825-50.945-26.495v-1.808v-13.585h305.67V381.807z M103.917,330.862
			c4.6-44.218,29.862-79.248,59.25-79.248c8.181,0,16.041,2.718,23.226,7.59c-13.335,19.935-21.566,44.898-23.75,71.658H103.917z
			 M196.75,330.862c4.6-44.218,29.862-79.248,59.25-79.248s54.65,35.03,59.25,79.248H196.75z M325.608,259.205
			c7.185-4.871,15.045-7.591,23.226-7.591c29.389,0,54.65,35.03,59.25,79.248h-58.727
			C347.173,304.103,338.943,279.141,325.608,259.205z M408.837,246.692c-16.713-18.823-37.63-29.041-60.002-29.041
			c-16.657,0-32.506,5.668-46.417,16.33c-13.91-10.661-29.76-16.33-46.417-16.33c-16.657,0-32.506,5.668-46.417,16.33
			c-13.91-10.661-29.76-16.33-46.417-16.33c-22.372,0-43.289,10.218-60.002,29.041v-12.059
			c-0.001-36.238,12.692-70.635,35.976-98.196c2.825,2.469,5.92,4.669,9.277,6.536c8.058,4.483,16.931,6.768,25.905,6.767
			c4.917,0,9.864-0.685,14.723-2.071c6.521-1.859,17.862-7.008,42-29.676c7.381,4.165,15.891,6.555,24.954,6.555
			s17.573-2.39,24.953-6.555c24.139,22.667,35.48,27.817,42.001,29.676c4.859,1.385,9.806,2.071,14.724,2.071
			c8.973,0,17.847-2.284,25.904-6.767c3.356-1.867,6.452-4.067,9.275-6.536c23.284,27.56,35.977,61.958,35.977,98.196V246.692z"/>
	</g>
</g>
<g>
</g>
<g>
</g>
<g>
</g>
<g>
</g>
<g>
</g>
<g>
</g>
<g>
</g>
<g>
</g>
<g>
</g>
<g>
</g>
<g>
</g>
<g>
</g>
<g>
</g>
<g>
</g>
<g>
</g>
</svg>
