<?xml version="1.0" encoding="iso-8859-1"?>
<!-- Generator: Adobe Illustrator 19.0.0, SVG Export Plug-In . SVG Version: 6.00 Build 0)  -->
<svg version="1.1" id="Layer_1" xmlns="http://www.w3.org/2000/svg" xmlns:xlink="http://www.w3.org/1999/xlink" x="0px" y="0px"
	 viewBox="0 0 512 512" style="enable-background:new 0 0 512 512;" xml:space="preserve">
<g>
	<g>
		<circle cx="256" cy="277.59" r="18.506"/>
	</g>
</g>
<g>
	<g>
		<path d="M397.88,311.248v-60.405L274.506,139.807V80.193h30.843V43.181h-30.843V0h-37.012v43.181h-30.843v37.012h30.843v59.613
			L114.12,250.842v60.405l-86.361,61.687V512h456.482V372.935L397.88,311.248z M114.12,474.988H64.771v-83.007l49.349-35.249
			V474.988z M274.506,474.988h-37.012V419.47c0-10.204,8.302-18.506,18.506-18.506s18.506,8.302,18.506,18.506V474.988z
			 M360.867,474.988h-49.349V419.47c0-30.613-24.905-55.518-55.518-55.518s-55.518,24.905-55.518,55.518v55.518h-49.349V267.327
			L256,172.946l104.867,94.381V474.988z M447.229,474.988H397.88V356.732l49.349,35.249V474.988z"/>
	</g>
</g>
<g>
	<g>
		<rect x="355.057" y="43.181" width="61.687" height="37.012"/>
	</g>
</g>
<g>
	<g>
		
			<rect x="352.937" y="115.13" transform="matrix(0.3333 -0.9428 0.9428 0.3333 110.0119 447.5221)" width="37.011" height="61.686"/>
	</g>
</g>
<g>
	<g>
		<rect x="95.614" y="43.181" width="61.687" height="37.012"/>
	</g>
</g>
<g>
	<g>
		<rect x="110.093" y="127.48" transform="matrix(0.9428 -0.3333 0.3333 0.9428 -40.599 55.3223)" width="61.684" height="37.011"/>
	</g>
</g>
<g>
</g>
<g>
</g>
<g>
</g>
<g>
</g>
<g>
</g>
<g>
</g>
<g>
</g>
<g>
</g>
<g>
</g>
<g>
</g>
<g>
</g>
<g>
</g>
<g>
</g>
<g>
</g>
<g>
</g>
</svg>
