<?xml version="1.0" encoding="iso-8859-1"?>
<!-- Generator: Adobe Illustrator 19.0.0, SVG Export Plug-In . SVG Version: 6.00 Build 0)  -->
<svg version="1.1" id="Layer_1" xmlns="http://www.w3.org/2000/svg" xmlns:xlink="http://www.w3.org/1999/xlink" x="0px" y="0px"
	 viewBox="0 0 512 512" style="enable-background:new 0 0 512 512;" xml:space="preserve">
<g>
	<g>
		<path d="M494.744,273.545c-14.383-14.383-34.397-19.783-53.033-16.183c3.027-12.069,4.647-24.735,4.647-37.792
			c0-50.358-13.816-97.952-38.903-134.014c-26.602-38.239-62.673-59.299-101.569-59.299s-74.967,21.06-101.569,59.299
			c-25.087,36.062-38.903,83.656-38.903,134.014c0,9.191,0.806,18.188,2.334,26.919c-11.793-6.521-25.201-10.181-39.093-10.181H0
			v210.051h90.569c14.454,23.699,40.623,39.385,69.595,39.385c0,0,179.547-0.009,180.038-0.024
			c16.119,0.377,31.799-5.885,43.146-17.232l111.397-111.397C505.872,345.964,512,331.129,512,315.317
			C512,299.506,505.872,284.672,494.744,273.545z M78.769,406.974H39.385V275.692h39.385V406.974z M236.649,108.046
			c19.023-27.346,43.612-42.405,69.238-42.405c25.626,0,50.215,15.059,69.238,42.405c15.478,22.248,25.708,50.227,29.813,80.805
			l-47.181-20.189l-52.363,26.182l-58.842-26.151l-39.507,18.702C211.276,157.388,221.418,129.942,236.649,108.046z M247.07,212.024
			l59.312,26.361l52.662-26.331l47.218,20.204c-4.516,41.505-30.872,75.932-66.367,89.603
			c-5.906-26.385-29.498-46.169-57.639-46.169h-62.889c-7.389-13.107-12.256-28.022-13.917-43.965L247.07,212.024z M466.895,329.241
			L355.5,440.638c-3.879,3.878-9.072,5.906-14.662,5.699l-0.794-0.029l-0.796,0.036c-0.177,0.008-0.357,0.016-0.541,0.016H160.164
			c-20.602,0-38.46-15.373-41.539-35.761l-0.471-3.119V275.692h10.503c17.126,0,32.856,10.798,39.144,26.868l4.897,12.516h4.533
			h105.026c10.858,0,19.692,8.834,19.692,19.692s-8.834,19.692-19.692,19.692h-94.523v39.385h94.523
			c22.686,0,42.413-12.86,52.308-31.667l44.553-0.074l59.929-60.714c7.679-7.677,20.171-7.677,27.849,0
			c3.689,3.689,5.72,8.634,5.72,13.925C472.615,320.608,470.584,325.552,466.895,329.241z"/>
	</g>
</g>
<g>
</g>
<g>
</g>
<g>
</g>
<g>
</g>
<g>
</g>
<g>
</g>
<g>
</g>
<g>
</g>
<g>
</g>
<g>
</g>
<g>
</g>
<g>
</g>
<g>
</g>
<g>
</g>
<g>
</g>
</svg>
