<?xml version="1.0" encoding="iso-8859-1"?>
<!-- Generator: Adobe Illustrator 19.0.0, SVG Export Plug-In . SVG Version: 6.00 Build 0)  -->
<svg version="1.1" id="Layer_1" xmlns="http://www.w3.org/2000/svg" xmlns:xlink="http://www.w3.org/1999/xlink" x="0px" y="0px"
	 viewBox="0 0 512 512" style="enable-background:new 0 0 512 512;" xml:space="preserve">
<g>
	<g>
		<path d="M438.363,257.81c-16.183-16.184-38.048-23.296-59.232-21.351L179.859,18.386l-0.629-0.657
			c-23.639-23.639-62.103-23.639-85.743,0C82.067,29.15,75.778,44.375,75.778,60.601s6.289,31.452,17.709,42.87l69.698,63.697
			c-33.828,4.588-64.814,25.175-88.428,59.122c-25.406,36.52-39.398,84.718-39.398,135.71C35.359,444.711,99.224,512,177.725,512
			s142.367-67.289,142.367-150.001c0-6.459-0.226-12.872-0.671-19.225c3.499,7.164,8.2,13.884,14.146,19.83
			c22.539,22.539,44.548,25.947,62.232,28.684c16.219,2.51,27.937,4.324,42.564,18.95l25.239,25.239l8.658-34.629
			C473.152,397.287,493.457,312.902,438.363,257.81z M121.805,74.622c-3.619-3.755-5.606-8.718-5.606-14.02
			c0-5.431,2.086-10.506,5.87-14.292c7.792-7.789,20.413-7.88,28.312-0.263l106.699,116.765l-18.511,18.509L121.805,74.622z
			 M107.938,249.373c19.184-27.577,43.968-42.764,69.788-42.764s50.605,15.187,69.788,42.764
			c5.455,7.841,10.246,16.404,14.373,25.521c-4.926-1.124-10.463-1.818-16.802-1.818c-23.36,0-36.151,9.21-45.491,15.935
			c-7.448,5.362-11.551,8.317-21.872,8.317c-10.323,0-14.426-2.953-21.874-8.317c-9.34-6.724-22.131-15.935-45.492-15.935
			c-6.335,0-11.868,0.694-16.79,1.815C97.693,265.774,102.484,257.213,107.938,249.373z M177.727,471.582
			c-39.016,0-72.967-23.691-90.098-58.383h180.195C250.692,447.89,216.742,471.582,177.727,471.582z M279.175,372.779H76.278
			c-0.325-3.547-0.499-7.141-0.499-10.779c0-11.357,0.827-22.503,2.394-33.326c3.941-2.281,7.298-4.69,10.311-6.861
			c7.448-5.362,11.551-8.317,21.872-8.317c10.323,0,14.426,2.953,21.874,8.317c9.34,6.724,22.131,15.935,45.491,15.935
			c23.36,0,36.151-9.21,45.491-15.935c7.448-5.362,11.551-8.317,21.872-8.317c10.324,0,14.428,2.953,21.878,8.317
			c3.017,2.171,6.378,4.585,10.318,6.867c1.567,10.818,2.394,21.965,2.394,33.319C279.674,365.638,279.5,369.231,279.175,372.779z
			 M328.175,263.203l-59.736-54.588l15.936-15.936l54.586,59.737L328.175,263.203z M401.983,351.344
			c-15.464-2.393-26.636-4.123-39.835-17.32c-13.132-13.134-13.132-34.501,0-47.634c6.567-6.567,15.192-9.85,23.818-9.85
			c8.625,0,17.251,3.283,23.818,9.85c15.87,15.87,24.685,37.865,26.201,65.376c0.159,2.894,0.226,5.706,0.222,8.407
			C423.78,354.718,412.185,352.923,401.983,351.344z"/>
	</g>
</g>
<g>
</g>
<g>
</g>
<g>
</g>
<g>
</g>
<g>
</g>
<g>
</g>
<g>
</g>
<g>
</g>
<g>
</g>
<g>
</g>
<g>
</g>
<g>
</g>
<g>
</g>
<g>
</g>
<g>
</g>
</svg>
