<?xml version="1.0" encoding="iso-8859-1"?>
<!-- Generator: Adobe Illustrator 19.0.0, SVG Export Plug-In . SVG Version: 6.00 Build 0)  -->
<svg version="1.1" id="Layer_1" xmlns="http://www.w3.org/2000/svg" xmlns:xlink="http://www.w3.org/1999/xlink" x="0px" y="0px"
	 viewBox="0 0 512 512" style="enable-background:new 0 0 512 512;" xml:space="preserve">
<g>
	<g>
		<path d="M405.373,87.872C365.954,31.207,312.906,0,256,0S146.046,31.207,106.627,87.872
			c-38.046,54.691-58.999,127.086-58.999,203.849C47.628,413.183,141.104,512,256,512s208.372-98.817,208.372-220.279
			C464.372,214.958,443.419,142.563,405.373,87.872z M135.95,108.273C168.497,61.486,211.13,35.721,256,35.721
			s87.503,25.766,120.05,72.552c19.913,28.624,34.565,62.901,43.278,100.392l-30.265,7.566c-4.937-7.67-11.718-14.056-19.914-18.618
			c-13.118-7.299-28.292-9.053-42.731-4.939c-6.698,1.909-18.238,7.132-42.416,29.575c-8.153-5.02-17.744-7.923-28.002-7.923
			s-19.849,2.903-28.003,7.922c-24.178-22.442-35.719-27.666-42.416-29.575c-14.435-4.114-29.611-2.359-42.731,4.939
			c-8.197,4.562-14.977,10.947-19.916,18.618l-30.264-7.566C101.384,171.172,116.037,136.896,135.95,108.273z M358.381,279.722
			c3.726,5.138,4.869,11.57,3.136,17.647c-1.499,5.26-4.958,9.624-9.739,12.283c-4.779,2.66-10.308,3.301-15.57,1.8
			c-4.875-1.415-16.682-10.835-30.431-23.76c2.443-6.126,3.803-12.799,3.803-19.786c0-6.249-1.086-12.245-3.06-17.825
			c13.424-12.561,24.893-21.664,29.689-23.055c5.26-1.5,10.791-0.86,15.57,1.8c4.781,2.66,8.24,7.023,9.739,12.284
			c1.732,6.076,0.588,12.507-3.136,17.647l-7.597,10.482L358.381,279.722z M273.861,267.907c0,9.848-8.012,17.86-17.86,17.86
			s-17.86-8.012-17.86-17.86s8.012-17.86,17.86-17.86S273.861,258.059,273.861,267.907z M153.619,258.759
			c-3.725-5.139-4.869-11.571-3.136-17.648c1.499-5.26,4.958-9.624,9.739-12.283c3.089-1.718,6.488-2.593,9.928-2.593
			c1.884,0,3.78,0.263,5.641,0.794c4.787,1.39,16.255,10.495,29.686,23.061c-1.974,5.577-3.059,11.571-3.059,17.818
			c0,6.987,1.359,13.66,3.802,19.786c-13.749,12.925-25.556,22.346-30.431,23.76c-5.259,1.5-10.791,0.86-15.568-1.8
			c-4.781-2.66-8.24-7.023-9.739-12.284c-1.732-6.076-0.589-12.507,3.136-17.646l7.597-10.482L153.619,258.759z M83.349,291.721
			c0-16.228,1.03-32.213,3.021-47.811l27.735,6.933c0.46,6.326,1.994,12.54,4.571,18.397c-2.205,5.01-3.641,10.283-4.3,15.662
			l-31.016,7.754C83.358,292.344,83.349,292.034,83.349,291.721z M256,476.279c-83.383,0-153.149-63.518-169.184-147.667
			l34.71-8.678c5.021,8.704,12.318,15.918,21.324,20.931c8.474,4.716,17.807,7.118,27.246,7.118c5.17,0,10.375-0.72,15.484-2.178
			c6.86-1.954,18.787-7.37,44.176-31.212c7.763,4.382,16.713,6.894,26.244,6.894s18.482-2.512,26.244-6.894
			c25.388,23.841,37.317,29.258,44.175,31.212c5.11,1.456,10.314,2.178,15.485,2.178c9.439,0,18.771-2.402,27.246-7.118
			c9.006-5.012,16.303-12.228,21.324-20.931l34.71,8.678C409.149,412.761,339.383,476.279,256,476.279z M397.623,284.903
			c-0.658-5.381-2.096-10.653-4.298-15.662c2.576-5.856,4.112-12.07,4.571-18.397l27.735-6.933
			c1.991,15.598,3.021,31.583,3.021,47.811c0,0.313-0.01,0.623-0.012,0.936L397.623,284.903z"/>
	</g>
</g>
<g>
</g>
<g>
</g>
<g>
</g>
<g>
</g>
<g>
</g>
<g>
</g>
<g>
</g>
<g>
</g>
<g>
</g>
<g>
</g>
<g>
</g>
<g>
</g>
<g>
</g>
<g>
</g>
<g>
</g>
</svg>
