<?xml version="1.0" encoding="iso-8859-1"?>
<!-- Generator: Adobe Illustrator 19.0.0, SVG Export Plug-In . SVG Version: 6.00 Build 0)  -->
<svg version="1.1" id="Layer_1" xmlns="http://www.w3.org/2000/svg" xmlns:xlink="http://www.w3.org/1999/xlink" x="0px" y="0px"
	 viewBox="0 0 511.999 511.999" style="enable-background:new 0 0 511.999 511.999;" xml:space="preserve">
<g>
	<g>
		<path d="M408.049,239.07h-32.111c0.184-2.871,0.288-5.766,0.288-8.688c0-43.061-11.816-83.762-33.271-114.604
			C320.187,83.05,289.305,65.026,256,65.026s-64.187,18.025-86.955,50.753c-21.455,30.841-33.271,71.542-33.271,114.604
			c0,2.921,0.102,5.816,0.288,8.688h-32.111C46.632,239.07,0,285.702,0,343.022c0,57.319,46.632,103.951,103.951,103.951h304.097
			c57.319,0,103.951-46.632,103.951-103.951C512,285.702,465.368,239.07,408.049,239.07z M197.065,135.271
			c16.2-23.287,37.13-36.112,58.935-36.112s42.735,12.824,58.935,36.112c4.607,6.622,8.652,13.852,12.139,21.552
			c-4.16-0.949-8.837-1.535-14.19-1.535c-19.727,0-30.529,7.778-38.416,13.456c-6.29,4.528-9.754,7.023-18.471,7.023
			c-8.718,0-12.182-2.494-18.472-7.023c-7.887-5.679-18.689-13.456-38.416-13.456c-5.349,0-10.024,0.586-14.181,1.533
			C188.413,149.122,192.458,141.892,197.065,135.271z M171.93,202.239c3.329-1.926,6.164-3.962,8.709-5.795
			c6.289-4.527,9.753-7.022,18.47-7.022c8.717,0,12.181,2.494,18.471,7.024c7.888,5.679,18.689,13.456,38.417,13.456
			c19.727,0,30.529-7.778,38.416-13.456c6.29-4.528,9.754-7.024,18.471-7.024c8.719,0,12.184,2.494,18.475,7.025
			c2.547,1.833,5.386,3.872,8.712,5.798c1.323,9.138,2.021,18.55,2.021,28.137c0,2.931-0.142,5.825-0.391,8.688H170.299
			c-0.249-2.863-0.391-5.756-0.391-8.688C169.908,220.792,170.606,211.379,171.93,202.239z M408.049,412.841H103.951
			c-30.674,0-56.772-19.892-66.12-47.448c3.058,1.186,5.65,3.045,9.078,5.514c7.888,5.677,18.69,13.455,38.418,13.455
			c19.729,0,30.531-7.778,38.419-13.456c6.291-4.528,9.756-7.024,18.475-7.024c8.715,0,12.18,2.494,18.47,7.024
			c7.887,5.679,18.688,13.456,38.415,13.456c19.727,0,30.529-7.778,38.416-13.456c6.29-4.528,9.754-7.024,18.47-7.024
			c8.718,0,12.182,2.494,18.472,7.024c7.888,5.679,18.69,13.456,38.417,13.456s30.529-7.778,38.416-13.456
			c6.29-4.528,9.754-7.024,18.47-7.024c8.72,0,12.186,2.494,18.476,7.025c7.888,5.677,18.69,13.455,38.418,13.455
			c19.729,0,30.531-7.778,38.419-13.456c3.434-2.471,6.028-4.333,9.091-5.517C464.824,392.946,438.725,412.841,408.049,412.841z
			 M445.138,343.203c-6.291,4.529-9.756,7.025-18.476,7.025c-8.719,0-12.184-2.494-18.475-7.024
			c-7.888-5.679-18.69-13.456-38.419-13.456c-19.726,0-30.528,7.778-38.415,13.456c-6.29,4.528-9.754,7.024-18.471,7.024
			c-8.718,0-12.182-2.494-18.472-7.024c-7.888-5.679-18.69-13.456-38.417-13.456c-19.726,0-30.528,7.778-38.415,13.456
			c-6.29,4.528-9.754,7.024-18.471,7.024c-8.715,0-12.18-2.494-18.47-7.024c-7.887-5.679-18.688-13.456-38.415-13.456
			c-19.728,0-30.53,7.778-38.418,13.455c-6.291,4.529-9.756,7.025-18.476,7.025c-8.719,0-12.184-2.494-18.475-7.024
			c-6.912-4.977-16.064-11.563-31.499-13.116c6.085-32.337,34.519-56.884,68.597-56.884h5.968
			c-4.195,8.335-6.571,17.736-6.571,27.687h34.133c0-15.267,12.42-27.687,27.687-27.687h73.766v28.1h34.133v-28.1h73.766
			c15.267,0,27.687,12.42,27.687,27.687h34.133c0-9.951-2.377-19.351-6.572-27.687h5.969c34.078,0,62.511,24.546,68.597,56.883
			C461.207,331.639,452.052,338.227,445.138,343.203z"/>
	</g>
</g>
<g>
</g>
<g>
</g>
<g>
</g>
<g>
</g>
<g>
</g>
<g>
</g>
<g>
</g>
<g>
</g>
<g>
</g>
<g>
</g>
<g>
</g>
<g>
</g>
<g>
</g>
<g>
</g>
<g>
</g>
</svg>
