<?xml version="1.0" encoding="iso-8859-1"?>
<!-- Generator: Adobe Illustrator 19.0.0, SVG Export Plug-In . SVG Version: 6.00 Build 0)  -->
<svg version="1.1" id="Layer_1" xmlns="http://www.w3.org/2000/svg" xmlns:xlink="http://www.w3.org/1999/xlink" x="0px" y="0px"
	 viewBox="0 0 512 512" style="enable-background:new 0 0 512 512;" xml:space="preserve">
<g>
	<g>
		<path d="M480,463.786v-256h-30.525c6.211-25.141,6.595-50.479,0.877-73.029c-7.886-31.09-26.225-53.469-51.639-63.018
			c-13.891-5.217-28.718-6.15-43.619-2.958c-0.422-0.625-0.841-1.253-1.27-1.87C328.21,30.092,293.468,9.814,256,9.814
			s-72.21,20.278-97.823,57.097c-0.429,0.617-0.847,1.245-1.27,1.869c-14.902-3.192-29.728-2.262-43.62,2.959
			c-25.414,9.549-43.753,31.928-51.639,63.018c-5.719,22.55-5.334,47.889,0.877,73.029H32v256H0v38.4h512v-38.4H480z
			 M385.207,107.686c28.156,10.579,38.653,55.456,24.375,100.1h-18.808c0.312-3.94,0.48-7.922,0.48-11.945
			c0-32.105-5.843-63.04-16.808-90.358C378.175,105.691,381.786,106.401,385.207,107.686z M189.7,88.84
			c18.225-26.199,41.77-40.626,66.3-40.626s48.077,14.427,66.301,40.626c5.183,7.45,9.733,15.584,13.656,24.246
			c-4.68-1.068-9.942-1.725-15.964-1.725c-22.193,0-34.345,8.749-43.218,15.137c-7.076,5.094-10.973,7.903-20.779,7.903
			c-9.807,0-13.705-2.807-20.781-7.903c-8.873-6.388-21.025-15.137-43.218-15.137c-6.019,0-11.276,0.658-15.951,1.723
			C179.967,104.422,184.518,96.288,189.7,88.84z M161.421,164.179c3.744-2.167,6.934-4.457,9.797-6.519
			c7.076-5.093,10.973-7.899,20.778-7.899c9.807,0,13.705,2.805,20.781,7.9c8.873,6.388,21.025,15.14,43.219,15.14
			c22.193,0,34.345-8.751,43.218-15.14c7.076-5.094,10.973-7.9,20.78-7.9c9.809,0,13.708,2.804,20.785,7.901
			c2.866,2.062,6.06,4.356,9.801,6.523c1.489,10.278,2.273,20.869,2.273,31.656c0,3.455-0.166,6.868-0.474,10.24H159.62
			c-0.307-3.372-0.474-6.785-0.474-10.24C159.146,185.051,159.932,174.46,161.421,164.179z M98.871,144.198
			c4.704-18.549,14.621-31.515,27.922-36.512c3.428-1.289,7.036-2.022,10.771-2.228c-10.97,27.324-16.818,58.267-16.818,90.383
			c0,4.023,0.168,8.005,0.48,11.945H102.41C95.302,185.696,94.012,163.35,98.871,144.198z M441.6,463.786H70.4v-51.2h371.2V463.786z
			 M441.6,374.186H70.4v-56.925c18.277,11.949,39.891,18.525,62.72,18.525c20.198,0,39.971-5.37,57.297-15.352
			c19.438,11.402,41.801,17.912,65.583,17.912s46.145-6.51,65.583-17.912c17.326,9.983,37.098,15.352,57.297,15.352
			c22.516,0,44.296-6.755,62.72-18.783V374.186z M441.6,264.556c-14.295,20.652-37.385,32.831-62.72,32.831
			c-17.932,0-35.364-6.351-49.088-17.884l-12.352-10.38l-12.352,10.38c-13.724,11.533-31.156,17.884-49.088,17.884
			s-35.364-6.351-49.088-17.884l-12.352-10.381l-12.352,10.381c-13.723,11.533-31.155,17.884-49.088,17.884
			c-25.334,0-48.425-12.18-62.72-32.831v-18.369h371.2V264.556z"/>
	</g>
</g>
<g>
</g>
<g>
</g>
<g>
</g>
<g>
</g>
<g>
</g>
<g>
</g>
<g>
</g>
<g>
</g>
<g>
</g>
<g>
</g>
<g>
</g>
<g>
</g>
<g>
</g>
<g>
</g>
<g>
</g>
</svg>
