<?xml version="1.0" encoding="iso-8859-1"?>
<!-- Generator: Adobe Illustrator 19.0.0, SVG Export Plug-In . SVG Version: 6.00 Build 0)  -->
<svg version="1.1" id="Layer_1" xmlns="http://www.w3.org/2000/svg" xmlns:xlink="http://www.w3.org/1999/xlink" x="0px" y="0px"
	 viewBox="0 0 512.001 512.001" style="enable-background:new 0 0 512.001 512.001;" xml:space="preserve">
<g>
	<g>
		<path d="M495.863,250.385c2.512-16.191,2.823-32.205,0.809-47.45c-4.945-37.426-23.124-66.015-51.189-80.5h-0.001
			c-10.728-5.537-22.301-8.694-34.367-9.506c-21.382-29.454-49.933-45.637-80.682-45.637c-27.843,0-53.883,13.272-74.432,37.649
			c-20.549-24.377-46.589-37.649-74.433-37.649c-30.749,0-59.3,16.182-80.682,45.637c-12.066,0.813-23.64,3.969-34.367,9.506h-0.001
			c-28.065,14.485-46.244,43.074-51.189,80.5c-2.013,15.245-1.704,31.258,0.809,47.45L0,243.47l14.968,149.677l90.234,51.562
			h301.596l90.234-51.562l14.968-149.677L495.863,250.385z M404.804,146.537c9.045,0,17.552,1.96,25.191,5.903
			c17.956,9.266,29.747,28.771,33.201,54.918c2.475,18.729,0.476,39.105-5.602,59.428l-45.04,19.302l-43.117-12.953
			c0.252-3.246,0.386-6.526,0.386-9.838c0-34.28-7.94-66.983-22.585-93.857c6.025-4.716,12.297-8.828,18.76-12.247
			C379.393,150.109,392.591,146.537,404.804,146.537z M330.431,101.057c14.38,0,28.364,6.046,40.662,17.334
			c-6.943,2.295-13.922,5.274-20.882,8.956c-7.704,4.075-15.175,8.905-22.343,14.402c-10.392-11.612-22.096-20.478-34.659-26.34
			C304.646,106.043,317.376,101.057,330.431,101.057z M256,140.824c20.206,0,39.629,11.924,54.69,33.575
			c16.36,23.518,25.37,55.09,25.37,88.899c0,5.037-0.427,9.964-1.202,14.765l-23.459,17L256,261.823l-55.399,33.239l-23.459-17
			c-0.776-4.801-1.202-9.73-1.202-14.765c0-33.809,9.01-65.38,25.37-88.899C216.371,152.748,235.794,140.824,256,140.824z
			 M181.567,101.056c13.057,0.001,25.784,4.987,37.224,14.352c-12.564,5.862-24.267,14.727-34.659,26.34
			c-7.167-5.497-14.639-10.326-22.343-14.402c-6.96-3.682-13.94-6.661-20.885-8.956
			C153.203,107.102,167.186,101.056,181.567,101.056z M48.803,207.357c3.454-26.146,15.245-45.651,33.201-54.918h-0.001
			c17.956-9.266,40.684-7.579,63.998,4.753c6.461,3.419,12.735,7.531,18.76,12.247c-14.646,26.875-22.585,59.577-22.585,93.857
			c0,3.312,0.134,6.592,0.386,9.838l-43.117,12.953l-45.04-19.302C48.328,246.464,46.328,226.088,48.803,207.357z M465.167,372.466
			l-67.335,38.477H114.168l-67.335-38.477l-7.542-75.423l58.125,24.911l58.5-17.575l42.933,31.111L256,301.2l57.151,34.291
			l42.933-31.111l58.5,17.575l58.125-24.911L465.167,372.466z"/>
	</g>
</g>
<g>
</g>
<g>
</g>
<g>
</g>
<g>
</g>
<g>
</g>
<g>
</g>
<g>
</g>
<g>
</g>
<g>
</g>
<g>
</g>
<g>
</g>
<g>
</g>
<g>
</g>
<g>
</g>
<g>
</g>
</svg>
