<?xml version="1.0" encoding="iso-8859-1"?>
<!-- Generator: Adobe Illustrator 19.0.0, SVG Export Plug-In . SVG Version: 6.00 Build 0)  -->
<svg version="1.1" id="Layer_1" xmlns="http://www.w3.org/2000/svg" xmlns:xlink="http://www.w3.org/1999/xlink" x="0px" y="0px"
	 viewBox="0 0 511.998 511.998" style="enable-background:new 0 0 511.998 511.998;" xml:space="preserve">
<g>
	<g>
		<path d="M505.283,101.101c-0.706-1.99-1.526-4.079-2.502-6.386l-7.287-17.219l-175.69,88.641c0.205-2.079,0.315-4.185,0.315-6.316
			c0-8.495-1.675-16.602-4.689-24.028c10.498-11.206,16.347-25.273,16.347-40.091c0-19.111-9.694-36.994-26.597-49.068
			c-13.587-9.705-31.053-15.05-49.18-15.05s-35.592,5.345-49.18,15.05c-16.903,12.073-26.597,29.958-26.597,49.068
			c0,14.817,5.85,28.884,16.347,40.091c-3.014,7.426-4.689,15.533-4.689,24.028c0,2.131,0.11,4.238,0.315,6.315L16.514,77.501
			L9.22,94.706c-0.971,2.293-1.792,4.383-2.504,6.387c-10.638,29.875-8.542,62.648,5.605,91.03
			c-12.952,57.091,18.723,115.632,74.567,135.516l85.847,30.763c-5.065,17.38-12.644,34.023-22.614,49.429l-6.63,10.246l7.329,9.757
			c25.101,33.415,63.437,52.581,105.178,52.581c41.741,0,80.076-19.165,105.178-52.581l7.329-9.757l-6.63-10.246
			c-9.969-15.405-17.549-32.047-22.613-49.425l85.812-30.756c55.877-19.896,87.553-78.436,74.601-135.528
			C513.824,163.744,515.92,130.976,505.283,101.101z M255.998,66.557c22.535,0,40.803,13.049,40.803,29.145
			c0,4.26-1.291,8.304-3.592,11.952c-10.5-7.511-23.343-11.952-37.211-11.952c-13.868,0-26.71,4.439-37.211,11.952
			c-2.3-3.648-3.592-7.692-3.592-11.952C215.196,79.606,233.464,66.557,255.998,66.557z M285.143,159.821
			c0,16.071-13.074,29.145-29.145,29.145c-16.07,0-29.145-13.074-29.145-29.145s13.074-29.145,29.145-29.145
			C272.069,130.676,285.143,143.751,285.143,159.821z M180.222,305.91c0,5.939-0.308,11.847-0.862,17.714l-80.707-28.921
			c-32.899-11.714-53.8-42.567-54.22-75.853l135.789,64.322V305.91z M45.962,180.877c-9.576-16.667-12.969-35.846-9.867-54.324
			l166.83,84.171c-9.627,9.46-16.75,21.459-20.258,34.909L45.962,180.877z M255.998,445.442c-26.749,0-51.596-10.727-69.74-29.779
			c18.969-33.439,28.937-71.116,28.937-109.753v-41.168c0-22.499,18.304-40.803,40.803-40.803c22.499,0,40.803,18.304,40.803,40.803
			v41.168c0,38.637,9.969,76.314,28.936,109.753C307.596,434.715,282.748,445.442,255.998,445.442z M413.309,294.716
			c-22.131,7.936-52.298,18.751-80.67,28.92c-0.556-5.871-0.864-11.783-0.864-17.726v-22.739l135.789-64.321
			C467.143,252.139,446.236,282.993,413.309,294.716z M466.035,180.877l-136.705,64.755c-3.508-13.45-10.631-25.447-20.259-34.907
			l166.83-84.171C479.004,145.03,475.61,164.211,466.035,180.877z"/>
	</g>
</g>
<g>
</g>
<g>
</g>
<g>
</g>
<g>
</g>
<g>
</g>
<g>
</g>
<g>
</g>
<g>
</g>
<g>
</g>
<g>
</g>
<g>
</g>
<g>
</g>
<g>
</g>
<g>
</g>
<g>
</g>
</svg>
