<?xml version="1.0" encoding="iso-8859-1"?>
<!-- Generator: Adobe Illustrator 19.0.0, SVG Export Plug-In . SVG Version: 6.00 Build 0)  -->
<svg version="1.1" id="Layer_1" xmlns="http://www.w3.org/2000/svg" xmlns:xlink="http://www.w3.org/1999/xlink" x="0px" y="0px"
	 viewBox="0 0 512 512" style="enable-background:new 0 0 512 512;" xml:space="preserve">
<g>
	<g>
		<path d="M256,0C134.537,0,35.721,98.816,35.721,220.279c0,58.117,22.633,111.039,59.535,150.442v23.4
			C95.256,459.12,148.136,512,213.135,512h85.73c64.999,0,117.879-52.88,117.879-117.879v-23.4
			c36.901-39.404,59.535-92.326,59.535-150.442C476.279,98.816,377.463,0,256,0z M381.025,394.121
			c-0.001,45.302-36.857,82.158-82.159,82.158h-85.73c-45.302,0-82.158-36.856-82.158-82.158v-6.075
			c14.251,13.875,32.092,24.284,52.335,29.607l15.502,4.076l5.724-14.971c4.796-12.544,16.972-20.972,30.301-20.972h42.326
			c13.327,0,25.505,8.428,30.301,20.972l5.724,14.971l15.502-4.076c20.242-5.324,38.083-15.732,52.335-29.607V394.121z
			 M151.489,250.047c44.201,0,83.002-23.557,104.511-58.774c21.509,35.217,60.31,58.774,104.511,58.774h20.512v53.581
			c0,32.681-19.399,61.825-48.541,74.928c-12.644-17.519-33.222-28.491-55.32-28.491h-42.326c-22.097,0-42.675,10.972-55.319,28.491
			c-29.142-13.104-48.541-42.247-48.541-74.928v-53.581H151.489z M131.216,214.326c3.063-42.531,38.62-76.205,81.919-76.205h24.352
			c-5.178,42.867-41.757,76.205-85.999,76.205H131.216z M274.513,138.121h24.352c43.297,0,78.855,33.674,81.919,76.205h-20.272
			C316.27,214.326,279.69,180.988,274.513,138.121z M298.865,102.4h-85.73c-64.999,0-117.879,52.88-117.879,117.879v90.589
			c-15.15-26.778-23.814-57.689-23.814-90.589c0-101.765,82.793-184.558,184.558-184.558s184.558,82.793,184.558,184.558
			c0,32.9-8.664,63.812-23.814,90.589v-90.589C416.744,155.28,363.864,102.4,298.865,102.4z"/>
	</g>
</g>
<g>
	<g>
		<circle cx="190.512" cy="309.581" r="17.86"/>
	</g>
</g>
<g>
	<g>
		<circle cx="321.488" cy="309.581" r="17.86"/>
	</g>
</g>
<g>
	<g>
		<path d="M226.233,416.744c0,16.44,13.326,29.767,29.767,29.767c16.44,0,29.767-13.327,29.767-29.767H226.233z"/>
	</g>
</g>
<g>
</g>
<g>
</g>
<g>
</g>
<g>
</g>
<g>
</g>
<g>
</g>
<g>
</g>
<g>
</g>
<g>
</g>
<g>
</g>
<g>
</g>
<g>
</g>
<g>
</g>
<g>
</g>
<g>
</g>
</svg>
