<?xml version="1.0" encoding="iso-8859-1"?>
<!-- Generator: Adobe Illustrator 19.0.0, SVG Export Plug-In . SVG Version: 6.00 Build 0)  -->
<svg version="1.1" id="Layer_1" xmlns="http://www.w3.org/2000/svg" xmlns:xlink="http://www.w3.org/1999/xlink" x="0px" y="0px"
	 viewBox="0 0 512 512" style="enable-background:new 0 0 512 512;" xml:space="preserve">
<g>
	<g>
		<path d="M311.365,229.024v-86.123h-36.91v-10.236L391.378,27.434L366.688,0L256,99.618L145.312,0l-24.691,27.435l116.924,105.231
			v10.235h-36.91v86.123h-86.123v110.73h86.123V512h110.73V339.754h86.123v-110.73H311.365z M200.635,302.844h-49.213v-36.91h49.213
			V302.844z M274.455,475.09h-36.91V339.754h36.91V475.09z M274.455,302.844h-36.91v-36.91h36.91V302.844z M274.455,229.024h-36.91
			v-49.213h36.91V229.024z M360.578,302.844h-49.213v-36.91h49.213V302.844z"/>
	</g>
</g>
<g>
</g>
<g>
</g>
<g>
</g>
<g>
</g>
<g>
</g>
<g>
</g>
<g>
</g>
<g>
</g>
<g>
</g>
<g>
</g>
<g>
</g>
<g>
</g>
<g>
</g>
<g>
</g>
<g>
</g>
</svg>
