<?xml version="1.0" encoding="iso-8859-1"?>
<!-- Generator: Adobe Illustrator 19.0.0, SVG Export Plug-In . SVG Version: 6.00 Build 0)  -->
<svg version="1.1" id="Layer_1" xmlns="http://www.w3.org/2000/svg" xmlns:xlink="http://www.w3.org/1999/xlink" x="0px" y="0px"
	 viewBox="0 0 512 512" style="enable-background:new 0 0 512 512;" xml:space="preserve">
<g>
	<g>
		<circle cx="199.111" cy="204.8" r="17.067"/>
	</g>
</g>
<g>
	<g>
		<circle cx="312.889" cy="204.8" r="17.067"/>
	</g>
</g>
<g>
	<g>
		<path d="M448.548,230.099l-3.838-20.463l-47.669,19.199c0.777-6.007,1.181-12.13,1.181-18.346
			c0-72.424-54.418-132.375-124.512-141.121c2.012-7.186,8.603-12.479,16.423-12.479h11.378V22.756h-11.378
			c-8.12,0-15.799,1.908-22.627,5.286C259.038,11.42,241.766,0,221.867,0h-11.378v34.133h11.378c9.411,0,17.067,7.656,17.067,17.067
			v18.094c-70.403,8.458-125.156,68.549-125.156,141.195c0,6.216,0.404,12.338,1.181,18.346l-47.669-19.199l-3.838,20.463
			c-4.355,23.216-6.563,47.243-6.563,71.413C56.889,417.575,146.21,512,256,512s199.111-94.425,199.111-210.489
			C455.111,277.341,452.904,253.315,448.548,230.099z M256,102.4c59.6,0,108.089,48.489,108.089,108.089
			c0,11.8-1.908,23.159-5.418,33.799l-11.87,4.781L256,215.017l-90.802,34.05l-11.87-4.781c-3.51-10.638-5.417-21.998-5.417-33.798
			C147.911,150.889,196.4,102.4,256,102.4z M256,477.867c-66.453,0-123.847-42.222-149.96-102.884
			c7.696,5.436,18.243,11.861,36.178,11.861c19.727,0,30.529-7.778,38.416-13.457c6.29-4.528,9.754-7.023,18.47-7.023
			c8.718,0,12.182,2.494,18.472,7.023c7.888,5.679,18.69,13.457,38.417,13.457s30.529-7.778,38.416-13.457
			c6.29-4.528,9.754-7.023,18.47-7.023c8.72,0,12.186,2.495,18.476,7.023c7.888,5.679,18.69,13.457,38.418,13.457
			c17.944,0,28.492-6.43,36.19-11.866C379.851,435.643,322.454,477.867,256,477.867z M418.387,332.741
			c-14.603,1.795-23.435,8.12-30.138,12.946c-6.291,4.528-9.756,7.023-18.476,7.023c-8.719,0-12.184-2.495-18.475-7.023
			c-7.889-5.679-18.691-13.455-38.42-13.455c-19.726,0-30.528,7.778-38.415,13.456c-6.29,4.528-9.754,7.023-18.471,7.023
			c-8.718,0-12.182-2.494-18.472-7.023c-7.888-5.679-18.69-13.456-38.417-13.456c-19.726,0-30.528,7.778-38.415,13.456
			c-6.29,4.528-9.754,7.023-18.471,7.023c-8.715,0-12.18-2.494-18.47-7.023c-6.703-4.826-15.532-11.15-30.134-12.947
			c-1.703-10.139-2.592-20.576-2.592-31.23c0-14.937,0.923-29.805,2.748-44.413l70.987,28.59L256,251.472l91.243,34.216
			l70.987-28.589c1.825,14.607,2.748,29.475,2.748,44.412C420.978,312.165,420.089,322.602,418.387,332.741z"/>
	</g>
</g>
<g>
</g>
<g>
</g>
<g>
</g>
<g>
</g>
<g>
</g>
<g>
</g>
<g>
</g>
<g>
</g>
<g>
</g>
<g>
</g>
<g>
</g>
<g>
</g>
<g>
</g>
<g>
</g>
<g>
</g>
</svg>
