<?xml version="1.0" encoding="iso-8859-1"?>
<!-- Generator: Adobe Illustrator 19.0.0, SVG Export Plug-In . SVG Version: 6.00 Build 0)  -->
<svg version="1.1" id="Layer_1" xmlns="http://www.w3.org/2000/svg" xmlns:xlink="http://www.w3.org/1999/xlink" x="0px" y="0px"
	 viewBox="0 0 512.001 512.001" style="enable-background:new 0 0 512.001 512.001;" xml:space="preserve">
<g>
	<g>
		<circle cx="216.034" cy="299.466" r="17.129"/>
	</g>
</g>
<g>
	<g>
		<circle cx="295.971" cy="299.466" r="17.129"/>
	</g>
</g>
<g>
	<g>
		<path d="M391.462,106c1.757-10.389,0.446-20.937-3.759-30.496c5.001-11.366,5.928-24.134,2.443-36.368
			C382,10.556,352.119-6.074,323.538,2.071h-0.001c-6.422,1.832-17.49,6.839-40.679,28.364c-7.821-4.814-17.018-7.597-26.858-7.597
			c-9.839,0-19.036,2.784-26.857,7.597C205.956,8.911,194.887,3.903,188.464,2.071h-0.001c-28.589-8.15-58.463,8.485-66.608,37.065
			c-3.486,12.234-2.558,25.002,2.443,36.368c-4.206,9.559-5.518,20.106-3.759,30.496c-34.173,35.386-52.96,81.643-52.96,130.655
			V441.2c0,39.04,31.761,70.801,70.801,70.801h235.242c39.04,0,70.801-31.761,70.801-70.801V236.655
			C444.422,187.643,425.636,141.386,391.462,106z M377.661,142.252c21.075,26.974,32.501,59.861,32.501,94.403v92.634h-24.836
			c1.006-5.059,1.519-10.222,1.519-15.457c0-27.714-14.334-53.401-40.362-72.328c-1.126-0.819-2.287-1.603-3.446-2.389
			C354.511,208.98,373.671,157.857,377.661,142.252z M304.452,57.13c12.873-12.046,23.872-20.776,28.472-22.112
			c10.412-2.97,21.304,3.091,24.273,13.508c1.661,5.829,0.565,11.996-3.008,16.925l-7.286,10.053l7.286,10.053
			c3.573,4.929,4.669,11.097,3.008,16.924c-1.438,5.046-4.755,9.23-9.34,11.781c-4.585,2.551-9.886,3.167-14.932,1.727
			c-4.675-1.357-15.999-10.392-29.185-22.788c2.344-5.877,3.646-12.275,3.646-18.976C307.387,68.233,306.345,62.481,304.452,57.13z
			 M309.17,141.937c6.639,4.318,11.104,6.068,14.367,6.999c4.902,1.397,9.892,2.089,14.851,2.089c0.202,0,0.403-0.017,0.604-0.019
			c-6.387,18.503-16.983,47.011-26.705,72.601c-3.591-1.295-7.259-2.463-10.992-3.502
			C303.864,192.155,306.927,160.824,309.17,141.937z M256,57.096c9.445,0,17.129,7.684,17.129,17.129S265.445,91.354,256,91.354
			c-9.445,0-17.129-7.684-17.129-17.129C238.871,64.78,246.554,57.096,256,57.096z M256,125.613c7.691,0,14.988-1.709,21.545-4.752
			c-2.662,14.867-7.154,61.099-10.136,93.533c-3.776-0.245-7.579-0.387-11.409-0.387c-3.83,0-7.634,0.142-11.409,0.387
			c-2.982-32.434-7.474-78.667-10.136-93.533C241.012,123.903,248.309,125.613,256,125.613z M256,248.265
			c26.782,0,51.761,7.439,70.335,20.946c16.928,12.31,26.251,28.157,26.251,44.621c0,5.247-0.957,10.431-2.794,15.457H162.209
			c-1.839-5.027-2.794-10.21-2.794-15.457c0-16.463,9.323-32.31,26.251-44.621C204.239,255.704,229.218,248.265,256,248.265z
			 M199.714,223.606c-9.721-25.589-20.318-54.096-26.705-72.601c0.202,0.002,0.402,0.019,0.604,0.019
			c4.958,0,9.95-0.692,14.851-2.089c3.263-0.93,7.728-2.681,14.367-6.999c2.243,18.887,5.306,50.219,7.875,78.166
			C206.972,221.143,203.306,222.311,199.714,223.606z M157.81,65.452c-3.573-4.929-4.669-11.097-3.008-16.925
			c2.457-8.625,10.345-14.262,18.898-14.262c1.777,0,3.585,0.243,5.375,0.754c4.591,1.334,15.59,10.066,28.47,22.117
			c-1.892,5.351-2.933,11.1-2.933,17.089c0,6.703,1.304,13.105,3.649,18.982c-13.18,12.392-24.505,21.423-29.187,22.782
			c-5.046,1.44-10.35,0.826-14.932-1.727c-4.585-2.551-7.902-6.735-9.34-11.781c-1.662-5.827-0.565-11.995,3.008-16.924
			l7.286-10.053L157.81,65.452z M101.836,236.655h0.001c0-34.542,11.426-67.429,32.501-94.403
			c3.99,15.606,23.151,66.729,34.625,96.862c-1.159,0.786-2.319,1.57-3.446,2.389c-26.028,18.927-40.362,44.614-40.362,72.328
			c0,5.236,0.513,10.399,1.519,15.457h-24.837V236.655z M410.164,441.2c0,20.15-16.394,36.542-36.542,36.542H138.38
			c-20.15,0-36.542-16.393-36.542-36.542v-12.557c15.224,9.512,33.014,14.841,51.388,14.841c18.23,0,36.055-5.163,51.388-14.73
			c15.333,9.567,33.158,14.73,51.388,14.73c18.23,0,36.055-5.163,51.388-14.73c15.333,9.567,33.158,14.73,51.388,14.73
			c18.374,0,36.163-5.328,51.388-14.841V441.2z M410.164,382.5c-11.772,16.816-30.668,26.725-51.388,26.725
			c-14.747,0-29.083-5.222-40.368-14.706l-11.02-9.261l-11.02,9.261c-11.285,9.484-25.621,14.706-40.368,14.706
			c-14.747,0-29.083-5.222-40.368-14.706l-11.02-9.261l-11.02,9.261c-11.285,9.484-25.621,14.706-40.368,14.706
			c-20.721,0-39.615-9.91-51.388-26.725v-15.527h308.326V382.5z"/>
	</g>
</g>
<g>
</g>
<g>
</g>
<g>
</g>
<g>
</g>
<g>
</g>
<g>
</g>
<g>
</g>
<g>
</g>
<g>
</g>
<g>
</g>
<g>
</g>
<g>
</g>
<g>
</g>
<g>
</g>
<g>
</g>
</svg>
