<?xml version="1.0" encoding="iso-8859-1"?>
<!-- Generator: Adobe Illustrator 19.0.0, SVG Export Plug-In . SVG Version: 6.00 Build 0)  -->
<svg version="1.1" id="Layer_1" xmlns="http://www.w3.org/2000/svg" xmlns:xlink="http://www.w3.org/1999/xlink" x="0px" y="0px"
	 viewBox="0 0 512 512" style="enable-background:new 0 0 512 512;" xml:space="preserve">
<g>
	<g>
		<ellipse cx="255.993" cy="253.193" rx="21.098" ry="14.066"/>
	</g>
</g>
<g>
	<g>
		<path d="M400.55,249.297h-40.768c0.558-3.561,1.039-7.153,1.403-10.786l39.123-19.561l-15.096-30.193l-24.29,12.145
			c-3.457-23.232-13.736-44.11-28.604-60.292c10.069-26.672,27.052-72.385,29.801-84.449c2.728-11.964,0.632-24.272-5.899-34.66
			c-6.532-10.387-16.716-17.609-28.679-20.336c-11.965-2.728-24.272-0.632-34.659,5.9c-10.387,6.531-17.609,16.716-20.336,28.679
			c-1.93,8.464-5.378,42.711-8.03,71.092c-2.811-0.236-5.65-0.36-8.518-0.36s-5.707,0.124-8.518,0.36
			c-2.651-28.381-6.101-62.627-8.03-71.092c-2.727-11.964-9.948-22.149-20.336-28.679c-10.387-6.532-22.697-8.623-34.659-5.9
			c-11.964,2.726-22.148,9.948-28.679,20.336c-6.531,10.387-8.626,22.696-5.899,34.659c2.749,12.065,19.732,57.778,29.8,84.45
			c-14.867,16.182-25.147,37.061-28.603,60.292l-24.29-12.145l-15.096,30.193l39.123,19.561c0.363,3.632,0.845,7.224,1.403,10.786
			h-40.768v33.758h49.347c4.675,12.951,10.761,24.977,18.185,35.65c14.481,20.816,32.708,34.9,52.805,41.158
			c0.887,16.115,7.499,25.316,12.423,32.154c4.105,5.703,6.166,8.564,6.166,16.105c0,7.541-2.061,10.404-6.168,16.108
			c-5.286,7.343-12.529,17.403-12.529,35.831s7.242,28.487,12.529,35.831c4.106,5.704,6.168,8.567,6.168,16.108h33.757
			c0-18.428-7.242-28.487-12.529-35.831c-4.106-5.704-6.167-8.567-6.167-16.108s2.061-10.404,6.167-16.108
			c5.286-7.343,12.529-17.403,12.529-35.831c0-18.428-7.242-28.485-12.53-35.829c-2.617-3.635-4.4-6.119-5.352-9.395
			c25.584-3.25,48.999-18.649,66.77-44.193c7.424-10.672,13.51-22.7,18.184-35.65h49.347v-33.758H400.55z M184.355,39.471
			c1.731-2.753,4.431-4.668,7.602-5.391c0.908-0.207,1.814-0.305,2.707-0.305c5.555,0,10.586,3.833,11.872,9.472
			c1.458,6.399,4.887,40.402,7.831,72.181c-2.317,1.043-4.592,2.168-6.822,3.376c-11.102-29.64-22.97-62.313-24.754-70.146
			C182.068,45.487,182.623,42.223,184.355,39.471z M305.309,299.426c-13.627,19.585-31.138,30.37-49.311,30.37
			s-35.684-10.786-49.308-30.37c-14.922-21.451-23.14-50.274-23.14-81.159c0-43.027,32.501-78.033,72.449-78.033
			c39.949,0,72.449,35.004,72.449,78.033C328.449,249.152,320.23,277.976,305.309,299.426z M329.206,48.66
			c-1.785,7.831-13.653,40.504-24.754,70.145c-2.229-1.207-4.505-2.333-6.822-3.376c2.944-31.78,6.372-65.784,7.831-72.183
			c1.492-6.547,8.035-10.659,14.58-9.166c3.171,0.724,5.872,2.638,7.602,5.391C329.374,42.224,329.928,45.488,329.206,48.66z"/>
	</g>
</g>
<g>
</g>
<g>
</g>
<g>
</g>
<g>
</g>
<g>
</g>
<g>
</g>
<g>
</g>
<g>
</g>
<g>
</g>
<g>
</g>
<g>
</g>
<g>
</g>
<g>
</g>
<g>
</g>
<g>
</g>
</svg>
