<?xml version="1.0" encoding="iso-8859-1"?>
<!-- Generator: Adobe Illustrator 19.0.0, SVG Export Plug-In . SVG Version: 6.00 Build 0)  -->
<svg version="1.1" id="Layer_1" xmlns="http://www.w3.org/2000/svg" xmlns:xlink="http://www.w3.org/1999/xlink" x="0px" y="0px"
	 viewBox="0 0 512 512" style="enable-background:new 0 0 512 512;" xml:space="preserve">
<g>
	<g>
		<path d="M397.652,339.554c-27.307,0-50.875,16.248-61.588,39.576V197.902c0-30.564-24.866-55.429-55.429-55.429H258.95
			c9.694-11.721,15.526-26.748,15.526-43.112c0-15.877-9.422-35.127-28.805-58.847c-12.913-15.805-25.695-27.958-26.233-28.468
			L206.73,0L194.02,12.045c-0.538,0.51-13.319,12.664-26.233,28.468c-19.382,23.721-28.805,42.97-28.805,58.847
			c0,16.364,5.832,31.39,15.526,43.112h-21.685c-30.564,0-55.429,24.866-55.429,55.429v203.24H46.601V512h320.257V407.301
			c0-16.98,13.814-30.794,30.794-30.794s30.794,13.814,30.794,30.794v30.794h36.953v-30.794
			C465.399,369.945,435.008,339.554,397.652,339.554z M206.73,51.887c16.29,17.886,30.794,38.483,30.794,47.474
			c0,16.98-13.814,30.794-30.794,30.794s-30.794-13.814-30.794-30.794C175.936,90.369,190.441,69.771,206.73,51.887z
			 M114.35,197.903c-0.002-10.189,8.286-18.478,18.474-18.478h147.811c10.188,0,18.476,8.289,18.476,18.476v198.595
			c-17.601-3.943-30.794-19.693-30.794-38.467v-98.255c0-6.835-3.73-13.123-9.733-16.411c-3.057-1.674-6.267-2.305-9.368-2.305
			c-8.184,0-15.601,4.391-17.431,5.561c-7.473,4.778-16.138,7.304-25.055,7.304c-9.318,0-18.311-2.742-26.007-7.93
			c-9.629-6.493-22.073-6.493-31.699,0c-7.696,5.187-16.69,7.93-26.009,7.93c-2.941,0-5.834-0.267-8.665-0.798V197.903z
			 M114.348,290.426c2.861,0.294,5.751,0.451,8.665,0.451c14.805,0,29.162-3.868,41.858-11.232
			c12.696,7.365,27.052,11.232,41.858,11.232c8.414,0,16.708-1.258,24.635-3.701v70.853c0,15.986,4.947,30.833,13.374,43.112
			h-130.39V290.426z M329.906,475.047H83.554c0,0,0-36.953,0-36.953h246.352V475.047z"/>
	</g>
</g>
<g>
</g>
<g>
</g>
<g>
</g>
<g>
</g>
<g>
</g>
<g>
</g>
<g>
</g>
<g>
</g>
<g>
</g>
<g>
</g>
<g>
</g>
<g>
</g>
<g>
</g>
<g>
</g>
<g>
</g>
</svg>
