<?xml version="1.0" encoding="iso-8859-1"?>
<!-- Generator: Adobe Illustrator 19.0.0, SVG Export Plug-In . SVG Version: 6.00 Build 0)  -->
<svg version="1.1" id="Layer_1" xmlns="http://www.w3.org/2000/svg" xmlns:xlink="http://www.w3.org/1999/xlink" x="0px" y="0px"
	 viewBox="0 0 511.997 511.997" style="enable-background:new 0 0 511.997 511.997;" xml:space="preserve">
<g>
	<g>
		<path d="M493.981,329.429c-35.698-41.745-75.076-64.138-117.036-66.558c-5.648-0.328-11.123-0.263-16.415,0.102
			c7.698-11.961,14.794-24.297,21.255-36.988c14.677-6.564,52.038-26.806,71.344-69.458c17.273-38.163,15.616-83.291-4.923-134.135
			L439.155,0l-20.743,12.375c-47.09,28.094-75.681,63.048-84.984,103.893c-8.981,39.438,2.883,73.677,11.261,91.362
			c-7.111,13.922-15.066,27.366-23.818,40.3c-1.175-10.084-3.546-20.681-7.68-31.474c-15.028-39.231-48.377-69.921-99.123-91.219
			l-22.352-9.382l-5.759,23.546c-12.989,53.106-8.166,97.953,14.337,133.292c15.897,24.969,37.639,40.091,55.425,48.987
			c-14.668,12.824-30.327,24.568-46.92,35.13c-5.427,3.455-10.943,6.751-16.523,9.92c1.264-17.492-0.312-38.495-8.988-60.138
			c-15.634-38.995-49.454-69.169-100.519-89.683l-22.498-9.038l-5.393,23.637c-12.163,53.302-6.644,98.07,16.402,133.059
			c10.91,16.565,24.38,28.67,37.472,37.452c-34.579,10.069-70.49,15.357-106.545,15.561v41.382
			c50.896-0.266,101.536-9.667,149.184-27.544c8.719,18.487,25.209,43.995,54.518,61.403c21.513,12.778,46.218,19.175,73.864,19.175
			c18.786,0,38.936-2.958,60.349-8.875l23.444-6.479l-10.151-22.104c-22.884-49.826-54.599-82.087-94.269-95.887
			c-2.039-0.711-4.066-1.341-6.086-1.931c13.111-9.533,25.614-19.788,37.505-30.698c13.732,14.947,35.766,33.089,66.701,41.279
			c11.067,2.93,22.408,4.393,34.005,4.393c30.938,0,63.677-10.412,97.735-31.137l20.777-12.643L493.981,329.429z M373.893,124.992
			c5.368-22.985,20.223-43.951,44.259-62.542c7.914,29.339,7.079,55.018-2.534,76.574c-9.249,20.741-25.205,34.149-37.304,41.876
			C373.334,167.414,368.731,147.099,373.893,124.992z M149.203,377.141c-13.239-5.792-31.167-16.611-43.619-35.741
			c-12.868-19.773-17.774-44.931-14.671-75.016c26.784,14.704,44.827,33.193,53.777,55.158
			C153.219,342.473,151.939,363.12,149.203,377.141z M303.555,468.739c-30.113,4.506-55.626,0.749-76.084-11.251
			c-19.581-11.483-31.189-28.713-37.588-41.553c13.871-3.365,34.389-5.594,55.668,1.811
			C268.079,425.584,287.521,442.693,303.555,468.739z M278.013,286.478c-13.039-5.948-30.656-16.931-42.803-36.011
			c-12.757-20.034-17.359-45.401-13.762-75.638c26.552,15.115,44.308,33.878,52.917,55.979
			C282.57,251.871,280.967,272.5,278.013,286.478z M368.333,347.415c-22.034-5.703-37.956-19.152-47.647-29.784
			c12.498-7.069,31.752-14.856,54.364-13.411c23.677,1.498,46.937,12.661,69.38,33.255
			C416.773,350.001,391.259,353.346,368.333,347.415z"/>
	</g>
</g>
<g>
</g>
<g>
</g>
<g>
</g>
<g>
</g>
<g>
</g>
<g>
</g>
<g>
</g>
<g>
</g>
<g>
</g>
<g>
</g>
<g>
</g>
<g>
</g>
<g>
</g>
<g>
</g>
<g>
</g>
</svg>
