<?xml version="1.0" encoding="iso-8859-1"?>
<!-- Generator: Adobe Illustrator 19.0.0, SVG Export Plug-In . SVG Version: 6.00 Build 0)  -->
<svg version="1.1" id="Layer_1" xmlns="http://www.w3.org/2000/svg" xmlns:xlink="http://www.w3.org/1999/xlink" x="0px" y="0px"
	 viewBox="0 0 512 512" style="enable-background:new 0 0 512 512;" xml:space="preserve">
<g>
	<g>
		<path d="M350.263,325.478c-0.539-2.356-1.14-4.689-1.848-6.977c30.466-26.104,49.807-64.841,49.807-108.013
			c0-72.424-54.418-132.375-124.512-141.121c2.012-7.186,8.603-12.479,16.423-12.479h11.378V22.756h-11.378
			c-8.12,0-15.799,1.908-22.627,5.286C259.038,11.42,241.766,0,221.867,0h-11.378v34.133h11.378c9.411,0,17.067,7.656,17.067,17.067
			v18.094c-70.403,8.458-125.156,68.549-125.156,141.195c0,43.172,19.341,81.909,49.807,108.013
			c-0.708,2.288-1.308,4.621-1.848,6.976c-2.864,2.282-5.628,4.719-8.256,7.347c-31.151,31.149-37.335,79.403-15.041,117.342
			c5.225,8.893,14.096,14.743,24.338,16.053c1.435,0.183,2.866,0.274,4.286,0.274c8.742,0,17.081-3.427,23.372-9.719l19.074-19.074
			l-3.347,40.166h-18.43V512h49.837l5.761-69.123c4.148,0.546,8.372,0.857,12.669,0.857c4.297,0,8.52-0.311,12.669-0.857L274.43,512
			h49.837v-34.133h-18.43l-3.346-40.165l19.074,19.074c6.291,6.292,14.63,9.719,23.372,9.719c1.42,0,2.851-0.091,4.286-0.274
			c10.242-1.308,19.114-7.16,24.338-16.052c22.295-37.941,16.11-86.195-15.041-117.344
			C355.891,330.197,353.125,327.761,350.263,325.478z M167.212,431.729c-9.57-17.096-10.346-37.245-3.103-54.604
			c4.481,13.639,11.913,25.943,21.545,36.162L167.212,431.729z M256,409.6c-34.505,0-62.578-28.072-62.578-62.578
			c0-2.899,0.214-5.748,0.598-8.544c18.744,9.114,39.774,14.232,61.979,14.232s43.236-5.119,61.979-14.232
			c0.383,2.796,0.598,5.645,0.598,8.544C318.578,381.528,290.505,409.6,256,409.6z M256,318.578
			c-59.6,0-108.089-48.489-108.089-108.089S196.4,102.4,256,102.4s108.089,48.489,108.089,108.089S315.6,318.578,256,318.578z
			 M344.788,431.729l-18.443-18.442c9.632-10.219,17.065-22.522,21.546-36.162C355.133,394.482,354.357,414.631,344.788,431.729z"/>
	</g>
</g>
<g>
	<g>
		<circle cx="199.111" cy="204.8" r="17.067"/>
	</g>
</g>
<g>
	<g>
		<circle cx="312.889" cy="204.8" r="17.067"/>
	</g>
</g>
<g>
	<g>
		<path d="M256,242.726c-15.71,0-28.444,12.735-28.444,28.444L256,290.133l28.444-18.963
			C284.444,255.461,271.709,242.726,256,242.726z"/>
	</g>
</g>
<g>
</g>
<g>
</g>
<g>
</g>
<g>
</g>
<g>
</g>
<g>
</g>
<g>
</g>
<g>
</g>
<g>
</g>
<g>
</g>
<g>
</g>
<g>
</g>
<g>
</g>
<g>
</g>
<g>
</g>
</svg>
