<?xml version="1.0" encoding="iso-8859-1"?>
<!-- Generator: Adobe Illustrator 19.0.0, SVG Export Plug-In . SVG Version: 6.00 Build 0)  -->
<svg version="1.1" id="Layer_1" xmlns="http://www.w3.org/2000/svg" xmlns:xlink="http://www.w3.org/1999/xlink" x="0px" y="0px"
	 viewBox="0 0 512 512" style="enable-background:new 0 0 512 512;" xml:space="preserve">
<g>
	<g>
		<path d="M383.999,254.338c-1.442,0-2.873,0.051-4.299,0.109c-20.453-38.933-58.748-67.083-103.948-73.51V86.442h33.247V46.545
			h-33.247V0h-39.896v46.545h-33.247v39.896h33.247v94.55c-45.029,6.535-83.161,34.635-103.556,73.455
			c-1.428-0.059-2.858-0.109-4.299-0.109c-57.747,0-104.727,46.98-104.727,104.727V512h465.455V359.065
			C488.726,301.318,441.746,254.338,383.999,254.338z M116.362,319.169v152.935H63.168V359.065
			c0-32.511,24.057-59.502,55.304-64.125C117.088,302.811,116.362,310.906,116.362,319.169z M355.739,472.104h-199.48V319.169
			c0-54.997,44.743-99.74,99.74-99.74s99.74,44.743,99.74,99.74V472.104z M448.83,472.104h-53.195V319.169
			c0-8.262-0.726-16.357-2.109-24.229c31.247,4.623,55.304,31.614,55.304,64.125V472.104z"/>
	</g>
</g>
<g>
	<g>
		<rect x="362.588" y="46.545" width="66.494" height="39.896"/>
	</g>
</g>
<g>
	<g>
		
			<rect x="360.293" y="124.102" transform="matrix(0.3333 -0.9428 0.9428 0.3333 105.1529 463.401)" width="39.895" height="66.492"/>
	</g>
</g>
<g>
	<g>
		<rect x="82.916" y="46.545" width="66.493" height="39.896"/>
	</g>
</g>
<g>
	<g>
		
			<rect x="98.513" y="137.418" transform="matrix(0.9428 -0.3333 0.3333 0.9428 -44.9169 52.9147)" width="66.492" height="39.895"/>
	</g>
</g>
<g>
	<g>
		<rect x="202.804" y="365.714" width="106.39" height="39.896"/>
	</g>
</g>
<g>
	<g>
		<rect x="229.401" y="299.221" width="53.195" height="39.896"/>
	</g>
</g>
<g>
</g>
<g>
</g>
<g>
</g>
<g>
</g>
<g>
</g>
<g>
</g>
<g>
</g>
<g>
</g>
<g>
</g>
<g>
</g>
<g>
</g>
<g>
</g>
<g>
</g>
<g>
</g>
<g>
</g>
</svg>
