<?xml version="1.0" encoding="iso-8859-1"?>
<!-- Generator: Adobe Illustrator 19.0.0, SVG Export Plug-In . SVG Version: 6.00 Build 0)  -->
<svg version="1.1" id="Layer_1" xmlns="http://www.w3.org/2000/svg" xmlns:xlink="http://www.w3.org/1999/xlink" x="0px" y="0px"
	 viewBox="0 0 512 512" style="enable-background:new 0 0 512 512;" xml:space="preserve">
<g>
	<g>
		<path d="M512,256c0-47.684-33.157-87.745-77.62-98.405c5.201-19.399,6.823-42.214,4.813-68.35l-1.174-15.264l-15.264-1.174
			c-26.135-2.011-48.95-0.389-68.35,4.813C343.745,33.157,303.684,0,256,0s-87.745,33.157-98.405,77.62
			c-19.399-5.201-42.213-6.824-68.35-4.813l-15.264,1.174l-1.174,15.264c-2.01,26.137-0.388,48.951,4.813,68.35
			C33.157,168.255,0,208.316,0,256s33.157,87.745,77.62,98.405c-5.201,19.399-6.823,42.214-4.813,68.35l1.174,15.264l15.264,1.174
			c7.264,0.56,14.265,0.838,21.015,0.838c17.538,0,33.326-1.891,47.336-5.646C168.256,478.844,208.317,512,256,512
			s87.742-33.155,98.404-77.616c14.009,3.755,29.797,5.646,47.336,5.646c6.748,0,13.754-0.279,21.015-0.838l15.264-1.174
			l1.174-15.264c2.01-26.137,0.388-48.951-4.813-68.35C478.843,343.745,512,303.684,512,256z M355.966,114.552
			c13.13-4.793,29.248-7.102,48.336-6.855c0.248,19.085-2.062,35.204-6.856,48.336c-11.777,2.161-31.727,8.091-65.817,24.337
			C347.875,146.28,353.805,126.329,355.966,114.552z M107.696,107.697c19.087-0.245,35.207,2.065,48.338,6.857
			c2.161,11.778,8.091,31.727,24.335,65.816c-34.09-16.246-54.04-22.176-65.817-24.337
			C109.759,142.902,107.447,126.782,107.696,107.697z M156.034,397.453c-13.13,4.794-29.248,7.104-48.336,6.85
			c-0.248-19.084,2.062-35.204,6.856-48.336c11.777-2.161,31.727-8.091,65.817-24.337
			C164.122,365.725,158.194,385.675,156.034,397.453z M185.988,288.95c-56.575,29.189-77.987,32.538-84.779,32.538
			c-36.11,0-65.488-29.378-65.488-65.488s29.378-65.488,65.488-65.488c6.788,0,28.198,3.347,84.779,32.538
			c-4.727,10.004-7.383,21.171-7.383,32.95S181.261,278.946,185.988,288.95z M256,476.279c-36.11,0-65.488-29.378-65.488-65.488
			c0-6.788,3.347-28.198,32.538-84.779c10.004,4.727,21.171,7.383,32.95,7.383s22.946-2.656,32.95-7.383
			c29.189,56.575,32.538,77.987,32.538,84.779C321.488,446.901,292.11,476.279,256,476.279z M214.326,256
			c0-22.979,18.695-41.674,41.674-41.674s41.674,18.695,41.674,41.674S278.979,297.674,256,297.674S214.326,278.979,214.326,256z
			 M288.95,185.988c-10.004-4.727-21.171-7.383-32.95-7.383s-22.946,2.656-32.95,7.383c-29.189-56.575-32.538-77.987-32.538-84.779
			c0-36.11,29.378-65.488,65.488-65.488s65.488,29.378,65.488,65.488C321.488,107.997,318.141,129.407,288.95,185.988z
			 M404.304,404.303c-19.093,0.252-35.209-2.057-48.336-6.85c-2.16-11.777-8.09-31.727-24.337-65.823
			c34.09,16.246,54.04,22.176,65.817,24.337C402.242,369.098,404.553,385.218,404.304,404.303z M410.791,321.488
			c-6.788,0-28.198-3.347-84.779-32.538c4.727-10.004,7.383-21.171,7.383-32.95s-2.656-22.946-7.383-32.95
			c56.575-29.189,77.987-32.538,84.779-32.538c36.11,0,65.488,29.378,65.488,65.488S446.901,321.488,410.791,321.488z"/>
	</g>
</g>
<g>
</g>
<g>
</g>
<g>
</g>
<g>
</g>
<g>
</g>
<g>
</g>
<g>
</g>
<g>
</g>
<g>
</g>
<g>
</g>
<g>
</g>
<g>
</g>
<g>
</g>
<g>
</g>
<g>
</g>
</svg>
