<?xml version="1.0" encoding="iso-8859-1"?>
<!-- Generator: Adobe Illustrator 19.0.0, SVG Export Plug-In . SVG Version: 6.00 Build 0)  -->
<svg version="1.1" id="Layer_1" xmlns="http://www.w3.org/2000/svg" xmlns:xlink="http://www.w3.org/1999/xlink" x="0px" y="0px"
	 viewBox="0 0 512 512" style="enable-background:new 0 0 512 512;" xml:space="preserve">
<g>
	<g>
		<path d="M396.358,419.263v0.001c-16.099-48.293-18.269-99.799-18.269-143.815c0-19.267-4.494-37.504-12.477-53.725
			c8.17-6.625,14.458-15.731,17.554-26.593c3.43-12.036,2.516-24.598-2.404-35.779c4.92-11.181,5.833-23.743,2.404-35.779
			c-3.882-13.622-12.837-24.918-25.214-31.807c-12.38-6.888-26.697-8.542-40.32-4.66c-1.756,0.5-3.865,1.244-6.484,2.507
			c5.695-14.687,6.646-22.657,6.646-27.819C317.793,27.72,290.073,0,256,0c-34.073,0-61.793,27.72-61.793,61.793
			c0,5.163,0.952,13.132,6.646,27.819c-2.618-1.263-4.729-2.007-6.484-2.507c-13.621-3.879-27.942-2.226-40.32,4.66
			c-12.378,6.888-21.332,18.184-25.214,31.808c-3.43,12.035-2.515,24.597,2.404,35.778c-4.92,11.181-5.833,23.743-2.404,35.78
			c3.095,10.862,9.384,19.967,17.553,26.593c-7.983,16.221-12.475,34.457-12.475,53.724c0,44.016-2.171,95.522-18.269,143.814
			L103.75,454.94h90.657C196.834,486.808,223.522,512,256,512s59.166-25.193,61.593-57.06h90.657L396.358,419.263z M326.869,119.52
			c4.964-1.416,10.182-0.811,14.693,1.7c4.511,2.51,7.775,6.626,9.189,11.59c1.634,5.733,0.555,11.802-2.96,16.652l-7.168,9.89
			l7.168,9.89c3.515,4.849,4.594,10.919,2.96,16.651c-0.841,2.951-2.344,5.532-4.281,7.662
			c-16.481-18.188-38.354-31.404-63.073-37.095C302.096,137.261,320.586,121.343,326.869,119.52z M344.583,296.76
			c-7.298-4.742-17.143-9.462-32.414-9.462c-19.479,0-30.146,7.68-37.934,13.288c-6.211,4.472-9.632,6.935-18.239,6.935
			c-8.608,0-12.029-2.463-18.24-6.935c-7.789-5.607-18.455-13.288-37.934-13.288c-15.267,0-25.109,4.718-32.406,9.458
			c0.147-7.259,0.2-14.373,0.2-21.306c0-48.734,39.649-88.383,88.384-88.383s88.384,39.649,88.384,88.383
			C344.383,282.384,344.436,289.499,344.583,296.76z M255.999,33.706c15.488,0,28.088,12.6,28.088,28.088
			c0,7.696-10.435,32.486-28.088,63.504c-17.653-31.018-28.088-55.809-28.088-63.504C227.911,46.307,240.511,33.706,255.999,33.706z
			 M164.208,149.462c-3.515-4.849-4.594-10.919-2.96-16.65c1.414-4.965,4.678-9.081,9.189-11.591
			c2.914-1.621,6.123-2.448,9.369-2.448c1.777,0,3.567,0.248,5.323,0.749c6.284,1.823,24.773,17.742,43.471,36.941
			c-24.718,5.689-46.593,18.905-63.074,37.096c-1.935-2.132-3.437-4.712-4.278-7.663c-1.634-5.734-0.555-11.804,2.96-16.653
			l7.168-9.89L164.208,149.462z M255.999,478.295c-13.874,0-25.424-10.114-27.681-23.354h55.361
			C281.422,468.181,269.873,478.295,255.999,478.295z M150.373,421.234c8.46-28.066,12.848-56.543,15.076-83.923
			c6.843-2.703,11.917-6.338,16.133-9.373c6.211-4.472,9.632-6.935,18.239-6.935s12.028,2.463,18.239,6.935
			c7.789,5.607,18.455,13.288,37.935,13.288c19.479,0,30.146-7.68,37.934-13.288c6.211-4.472,9.632-6.935,18.239-6.935
			c8.609,0,12.032,2.463,18.244,6.935c4.216,3.036,9.293,6.67,16.136,9.373c2.227,27.379,6.616,55.856,15.076,83.923H150.373z"/>
	</g>
</g>
<g>
	<g>
		<circle cx="194.209" cy="377.174" r="16.853"/>
	</g>
</g>
<g>
	<g>
		<circle cx="317.795" cy="377.174" r="16.853"/>
	</g>
</g>
<g>
	<g>
		<circle cx="256.002" cy="377.174" r="16.853"/>
	</g>
</g>
<g>
</g>
<g>
</g>
<g>
</g>
<g>
</g>
<g>
</g>
<g>
</g>
<g>
</g>
<g>
</g>
<g>
</g>
<g>
</g>
<g>
</g>
<g>
</g>
<g>
</g>
<g>
</g>
<g>
</g>
</svg>
