<?xml version="1.0" encoding="iso-8859-1"?>
<!-- Generator: Adobe Illustrator 19.0.0, SVG Export Plug-In . SVG Version: 6.00 Build 0)  -->
<svg version="1.1" id="Layer_1" xmlns="http://www.w3.org/2000/svg" xmlns:xlink="http://www.w3.org/1999/xlink" x="0px" y="0px"
	 viewBox="0 0 512.002 512.002" style="enable-background:new 0 0 512.002 512.002;" xml:space="preserve">
<g>
	<g>
		<path d="M364.632,90.716l-16.484-0.132c-15.236-0.125-28.964,1.321-41.164,4.309c-2.802-26.646-15.6-53.452-38.229-79.958
			L256.003,0l-12.75,14.935c-22.633,26.509-35.43,53.318-38.231,79.965c-12.208-2.992-25.939-4.442-41.164-4.315l-16.485,0.132
			l-0.145,16.485c-0.336,38.129,10.531,66.611,32.3,84.653c6.32,5.24,13.074,9.144,19.867,12.037
			c-10.023,12.456-16.041,28.266-16.041,45.461c0,14.263,6.194,68.911,14.293,138.871c3.724,32.169,7.943,68.632,8.061,73.484
			c0,27.732,22.562,50.294,50.294,50.294c27.732,0,50.294-22.562,50.293-50.194c0.117-4.953,4.339-41.415,8.063-73.584
			c8.097-69.96,14.291-124.607,14.291-138.871c0-17.195-6.019-33.004-16.042-45.461c6.794-2.894,13.547-6.798,19.867-12.037
			c21.77-18.043,32.636-46.525,32.299-84.653L364.632,90.716z M256.003,53.503c12.691,19.135,18.715,37.792,17.97,55.689
			c-6.283,4.331-11.801,9.408-16.529,15.235c-0.501,0.617-0.966,1.243-1.441,1.866c-0.475-0.624-0.94-1.25-1.441-1.866
			c-4.727-5.823-10.244-10.898-16.528-15.228C237.286,91.301,243.311,72.642,256.003,53.503z M200.925,166.039
			c-10.566-8.758-17.019-22.567-19.271-41.176c21.625,2.178,37.298,9.042,46.707,20.489c8.639,10.513,10.695,23.502,10.855,32.776
			C228.542,178.078,212.939,175.996,200.925,166.039z M281.05,384.367c-6.012,51.939-8.283,72.062-8.283,77.338
			c0,9.244-7.52,16.765-16.765,16.765c-9.244,0-16.765-7.521-16.765-16.765c0-5.276-2.272-25.401-8.284-77.338
			c-5.938-51.298-14.069-121.552-14.069-135.016c0-21.57,17.548-39.118,39.118-39.118s39.118,17.548,39.118,39.118
			C295.12,262.814,286.989,333.069,281.05,384.367z M311.245,165.902c-12.047,10.085-27.749,12.18-38.472,12.227
			c0.154-9.204,2.184-22.074,10.705-32.573c9.391-11.571,25.115-18.503,46.872-20.692
			C328.111,143.376,321.713,157.14,311.245,165.902z"/>
	</g>
</g>
<g>
</g>
<g>
</g>
<g>
</g>
<g>
</g>
<g>
</g>
<g>
</g>
<g>
</g>
<g>
</g>
<g>
</g>
<g>
</g>
<g>
</g>
<g>
</g>
<g>
</g>
<g>
</g>
<g>
</g>
</svg>
