<?xml version="1.0" encoding="iso-8859-1"?>
<!-- Generator: Adobe Illustrator 19.0.0, SVG Export Plug-In . SVG Version: 6.00 Build 0)  -->
<svg version="1.1" id="Layer_1" xmlns="http://www.w3.org/2000/svg" xmlns:xlink="http://www.w3.org/1999/xlink" x="0px" y="0px"
	 viewBox="0 0 511.998 511.998" style="enable-background:new 0 0 511.998 511.998;" xml:space="preserve">
<g>
	<g>
		<path d="M463.973,198.179c-8.398-8.934-19.798-14.548-31.9-15.846c-2.583-24.654-22.792-44.162-47.7-45.702
			c-14.29-0.886-27.886,4.018-38.285,13.793c-8.863,8.333-14.459,19.623-15.813,31.619h-23.077v-34.454
			c11.996-1.354,23.286-6.95,31.619-15.813c9.777-10.4,14.675-23.997,13.793-38.285c-1.539-24.906-21.042-45.113-45.693-47.698
			C304.333,21.142,284.125,1.639,259.222,0.1c-14.293-0.877-27.886,4.015-38.286,13.791c-8.934,8.398-14.548,19.8-15.847,31.901
			c-24.656,2.582-44.162,22.79-45.701,47.699c-0.882,14.289,4.016,27.886,13.793,38.285c8.332,8.863,19.623,14.459,31.619,15.813
			v34.454h-23.076c-1.355-11.996-6.951-23.286-15.813-31.619c-10.399-9.777-23.996-14.683-38.286-13.793
			c-24.907,1.541-45.117,21.047-47.699,45.702c-12.101,1.298-23.502,6.912-31.9,15.846c-9.777,10.4-14.675,23.998-13.792,38.286
			c1.541,24.906,21.043,45.112,45.693,47.696c2.586,24.65,22.794,44.156,47.699,45.694c1.097,0.068,2.189,0.101,3.277,0.101
			c13.08,0,25.406-4.869,35.008-13.895c8.863-8.333,14.459-19.623,15.813-31.619h23.075v79.965
			c-11.996,1.354-23.286,6.95-31.619,15.813c-9.777,10.4-14.675,23.997-13.793,38.285c1.539,24.91,21.05,45.121,45.701,47.699
			c1.299,12.101,6.913,23.503,15.847,31.901c9.601,9.026,21.925,13.893,35.004,13.892c1.089,0,2.185-0.033,3.282-0.101
			c24.904-1.539,45.109-21.041,47.697-45.693c24.651-2.584,44.155-22.792,45.693-47.698c0.882-14.289-4.016-27.886-13.793-38.285
			c-8.332-8.863-19.623-14.459-31.619-15.813v-79.965h23.076c1.355,11.996,6.951,23.286,15.813,31.619
			c10.4,9.777,23.99,14.67,38.286,13.793c24.904-1.539,45.112-21.043,47.698-45.694c24.65-2.585,44.154-22.791,45.693-47.696
			C478.648,222.176,473.75,208.578,463.973,198.179z M198.049,108.396c-3.259-3.466-4.889-8.012-4.593-12.801
			c0.514-8.335,7.441-15.322,15.767-15.906c1.343-0.091,2.674-0.039,3.962,0.166c7.117,1.128,14.416-1.246,19.523-6.34
			c5.14-5.127,7.543-12.475,6.427-19.657c-0.134-0.873-0.204-1.766-0.204-2.659c0-4.759,1.911-9.176,5.382-12.439
			c3.465-3.256,8.007-4.894,12.801-4.592c8.335,0.514,15.322,7.441,15.906,15.765c0.094,1.34,0.038,2.675-0.165,3.961
			c-1.129,7.14,1.256,14.46,6.377,19.581c5.121,5.122,12.439,7.505,19.579,6.377c1.287-0.206,2.62-0.259,3.962-0.166
			c8.326,0.585,15.253,7.571,15.767,15.906c0.296,4.789-1.335,9.335-4.593,12.801c-3.262,3.472-7.679,5.384-12.438,5.384
			c-0.836,0-1.683-0.063-2.5-0.182c-6.481-0.952-13.058,0.961-18.038,5.26c-5.026,4.338-7.906,10.633-7.906,17.269v45.919h-34.133
			v-45.919c0-6.637-2.881-12.932-7.906-17.269c-4.979-4.298-11.552-6.217-18.024-5.261c-0.832,0.121-1.677,0.183-2.514,0.183
			C205.728,113.777,201.311,111.865,198.049,108.396z M273.065,233.243c0,9.411-7.656,17.067-17.067,17.067
			c-9.411,0-17.067-7.656-17.067-17.067s7.656-17.067,17.067-17.067C265.409,216.176,273.065,223.833,273.065,233.243z
			 M170.253,250.312c-6.632-0.002-12.926,2.879-17.265,7.902c-4.299,4.979-6.217,11.553-5.262,18.038
			c0.121,0.824,0.183,1.665,0.183,2.502c0,4.759-1.911,9.176-5.38,12.439c-3.465,3.259-8.011,4.906-12.8,4.593
			c-8.336-0.514-15.324-7.441-15.907-15.766c-0.094-1.339-0.039-2.673,0.166-3.962c1.128-7.14-1.256-14.46-6.377-19.581
			c-4.284-4.284-10.105-6.651-16.072-6.651c-1.166,0-2.339,0.09-3.508,0.274c-1.287,0.205-2.618,0.258-3.961,0.166
			c-8.326-0.584-15.253-7.571-15.768-15.906c-0.296-4.789,1.335-9.335,4.593-12.8c3.261-3.473,7.679-5.384,12.437-5.384
			c0.893,0,1.787,0.069,2.659,0.205c7.183,1.116,14.527-1.287,19.654-6.426c5.095-5.107,7.465-12.405,6.341-19.522
			c-0.205-1.293-0.261-2.627-0.166-3.963c0.585-8.327,7.572-15.254,15.906-15.768c4.789-0.302,9.335,1.336,12.801,4.593
			c3.47,3.262,5.381,7.68,5.381,12.439c0,0.837-0.061,1.68-0.183,2.503c-0.955,6.483,0.963,13.058,5.261,18.036
			c4.338,5.024,10.633,7.905,17.268,7.905h37.477c-1.894,5.342-2.935,11.083-2.935,17.067s1.041,11.725,2.935,17.067H170.253z
			 M313.947,403.601c3.259,3.466,4.889,8.012,4.593,12.801c-0.514,8.335-7.441,15.322-15.774,15.906
			c-1.333,0.096-2.664,0.039-3.954-0.166c-7.138-1.129-14.459,1.256-19.58,6.377c-5.121,5.121-7.506,12.442-6.378,19.577
			c0.204,1.291,0.261,2.626,0.166,3.963c-0.584,8.326-7.571,15.253-15.906,15.767c-4.792,0.312-9.335-1.335-12.8-4.592
			c-3.47-3.262-5.382-7.68-5.382-12.439c0-0.893,0.068-1.786,0.205-2.66c1.115-7.181-1.288-14.528-6.428-19.654
			c-4.271-4.26-10.073-6.614-16.02-6.614c-1.165,0-2.337,0.09-3.503,0.274c-1.291,0.205-2.621,0.256-3.963,0.166
			c-8.326-0.585-15.253-7.571-15.767-15.906c-0.296-4.789,1.335-9.335,4.593-12.801c3.262-3.47,7.68-5.381,12.438-5.381
			c0.836,0,1.683,0.063,2.5,0.182c6.484,0.956,13.058-0.96,18.038-5.26c5.026-4.338,7.906-10.633,7.906-17.269v-91.429h34.133v91.43
			c0,6.637,2.882,12.932,7.908,17.269c4.979,4.299,11.551,6.215,18.023,5.261c0.832-0.121,1.677-0.183,2.513-0.183
			C306.269,398.22,310.685,400.132,313.947,403.601z M443.697,234.358c-0.515,8.335-7.442,15.324-15.77,15.906
			c-1.34,0.093-2.673,0.04-3.959-0.165c-7.14-1.129-14.459,1.256-19.579,6.376c-5.121,5.121-7.507,12.44-6.379,19.582
			c0.205,1.291,0.261,2.625,0.166,3.961c-0.585,8.326-7.572,15.253-15.906,15.767c-4.789,0.298-9.335-1.336-12.801-4.593
			c-3.47-3.262-5.382-7.679-5.382-12.438c0-0.837,0.061-1.679,0.182-2.5c0.956-6.484-0.961-13.059-5.26-18.038
			c-4.338-5.024-10.633-7.906-17.269-7.906h-37.477c1.894-5.342,2.935-11.083,2.935-17.067c0-5.984-1.041-11.725-2.935-17.067
			h37.477c6.637,0,12.932-2.882,17.27-7.906c4.299-4.979,6.216-11.553,5.26-18.035c-0.121-0.824-0.183-1.666-0.183-2.503
			c0-4.759,1.911-9.176,5.381-12.439c3.466-3.257,8.016-4.898,12.8-4.593c8.336,0.514,15.324,7.441,15.907,15.766
			c0.094,1.339,0.039,2.674-0.166,3.965c-1.124,7.117,1.247,14.414,6.341,19.522c5.127,5.139,12.468,7.546,19.657,6.425
			c0.872-0.132,1.765-0.201,2.658-0.201c4.759,0,9.176,1.911,12.439,5.382C442.362,225.023,443.993,229.569,443.697,234.358z"/>
	</g>
</g>
<g>
</g>
<g>
</g>
<g>
</g>
<g>
</g>
<g>
</g>
<g>
</g>
<g>
</g>
<g>
</g>
<g>
</g>
<g>
</g>
<g>
</g>
<g>
</g>
<g>
</g>
<g>
</g>
<g>
</g>
</svg>
