<?xml version="1.0" encoding="iso-8859-1"?>
<!-- Generator: Adobe Illustrator 19.0.0, SVG Export Plug-In . SVG Version: 6.00 Build 0)  -->
<svg version="1.1" id="Layer_1" xmlns="http://www.w3.org/2000/svg" xmlns:xlink="http://www.w3.org/1999/xlink" x="0px" y="0px"
	 viewBox="0 0 512 512" style="enable-background:new 0 0 512 512;" xml:space="preserve">
<g>
	<g>
		<path d="M432.552,164.782V0H44.138v512h35.31v-41.195h353.103V306.023h35.31V164.782H432.552z M114.759,435.494h-35.31V35.31
			h35.31V435.494z M397.241,435.494H150.069V35.31h247.172v129.471h-35.31v141.241h35.31V435.494z M432.552,270.713h-35.31v-70.621
			h35.31V270.713z"/>
	</g>
</g>
<g>
	<g>
		<polygon points="273.655,188.322 273.655,147.126 238.345,147.126 238.345,188.322 197.149,188.322 197.149,223.632 
			238.345,223.632 238.345,335.448 273.655,335.448 273.655,223.632 314.851,223.632 314.851,188.322 		"/>
	</g>
</g>
<g>
</g>
<g>
</g>
<g>
</g>
<g>
</g>
<g>
</g>
<g>
</g>
<g>
</g>
<g>
</g>
<g>
</g>
<g>
</g>
<g>
</g>
<g>
</g>
<g>
</g>
<g>
</g>
<g>
</g>
</svg>
