<?xml version="1.0" encoding="iso-8859-1"?>
<!-- Generator: Adobe Illustrator 19.0.0, SVG Export Plug-In . SVG Version: 6.00 Build 0)  -->
<svg version="1.1" id="Layer_1" xmlns="http://www.w3.org/2000/svg" xmlns:xlink="http://www.w3.org/1999/xlink" x="0px" y="0px"
	 viewBox="0 0 512 512" style="enable-background:new 0 0 512 512;" xml:space="preserve">
<g>
	<g>
		<path d="M418.743,90.563V0H93.257v90.563c0,83.24,62.822,152.074,143.543,161.604v45.536c-22.346,7.926-38.4,29.267-38.4,54.298
			c0,19.441,9.691,36.651,24.486,47.087L124.087,512h263.825l-98.799-112.913C303.909,388.651,313.6,371.441,313.6,352
			c0-25.03-16.054-46.372-38.4-54.298v-45.536C355.921,242.637,418.743,173.802,418.743,90.563z M134.112,115.2
			c-1.608-7.967-2.455-16.205-2.455-24.637V38.4h248.686v52.163c0,8.433-0.849,16.671-2.455,24.637H134.112z M256,332.8
			c10.587,0,19.2,8.613,19.2,19.2s-8.613,19.2-19.2,19.2s-19.2-8.613-19.2-19.2S245.413,332.8,256,332.8z M303.287,473.6h-94.574
			L256,419.557L303.287,473.6z M256,214.906c-45.571,0-85.487-24.646-107.139-61.306h214.277
			C341.486,190.259,301.571,214.906,256,214.906z"/>
	</g>
</g>
<g>
	<g>
		<circle cx="172.8" cy="76.8" r="19.2"/>
	</g>
</g>
<g>
	<g>
		<circle cx="339.2" cy="76.8" r="19.2"/>
	</g>
</g>
<g>
	<g>
		<circle cx="256" cy="76.8" r="19.2"/>
	</g>
</g>
<g>
</g>
<g>
</g>
<g>
</g>
<g>
</g>
<g>
</g>
<g>
</g>
<g>
</g>
<g>
</g>
<g>
</g>
<g>
</g>
<g>
</g>
<g>
</g>
<g>
</g>
<g>
</g>
<g>
</g>
</svg>
