<?xml version="1.0" encoding="iso-8859-1"?>
<!-- Generator: Adobe Illustrator 19.0.0, SVG Export Plug-In . SVG Version: 6.00 Build 0)  -->
<svg version="1.1" id="Layer_1" xmlns="http://www.w3.org/2000/svg" xmlns:xlink="http://www.w3.org/1999/xlink" x="0px" y="0px"
	 viewBox="0 0 512 512" style="enable-background:new 0 0 512 512;" xml:space="preserve">
<g>
	<g>
		<path d="M410.175,272.303c-1.561,0.261-38.685,6.728-78.327,37.307c-18.763,14.472-40.08,36.066-57.923,67.432V261.038h9.958
			h1.992c30.308,0,56.483-9.439,75.693-27.298c20.844-19.378,31.863-47.44,31.863-81.151c0-55.523-35.349-102.528-65.004-132.182
			L315.581,7.56l-12.674,13.019c-0.025,0.025-0.049,0.05-0.074,0.075c-2.241-2.939-4.562-5.788-6.982-8.521L285.111,0
			l-29.112,20.953L226.887,0l-10.741,12.132c-2.42,2.733-4.742,5.582-6.982,8.521c-0.025-0.025-0.049-0.051-0.074-0.075
			L196.416,7.559l-12.847,12.847c-29.654,29.656-65.004,76.66-65.004,132.183c0,33.712,11.019,61.773,31.863,81.151
			c19.211,17.858,45.385,27.298,75.693,27.298h1.992h9.959v116.003c-17.842-31.366-39.16-52.958-57.923-67.432
			c-39.643-30.578-76.767-37.046-78.327-37.307l-25.903-4.319l22.158,105.182c9.023,42.831,29.756,80.281,58.382,105.45
			C181.312,500.468,210.7,512,240.75,512c5.069,0,25.43,0,30.501,0c30.048,0,59.439-11.532,84.291-33.384
			c28.626-25.169,49.359-62.618,58.382-105.45l22.158-105.182L410.175,272.303z M341.645,149.997
			c0-24.733-3.233-48.154-9.416-69.479c14.281,20.915,25.351,45.645,25.351,72.071c0,23.827-6.87,42.296-20.421,54.893
			c-3.644,3.387-7.75,6.293-12.25,8.73C335.748,197.202,341.645,174.142,341.645,149.997z M174.838,207.481
			c-13.55-12.597-20.42-31.065-20.42-54.892c0-26.425,11.07-51.156,25.35-72.072c-6.183,21.325-9.416,44.745-9.416,69.479
			c0,24.145,5.896,47.205,16.736,66.215C182.589,213.775,178.482,210.868,174.838,207.481z M180.131,451.692
			c-22.853-20.094-39.535-50.607-46.974-85.916l-10.321-48.994c10.719,4.802,23.635,11.927,36.848,22.333
			c39.564,31.161,64.964,77.131,75.654,136.825C215.854,474.603,196.735,466.291,180.131,451.692z M255.998,225.186
			c-26.992,0-49.795-34.434-49.795-75.19c0-39.22,9.7-75.169,26.987-101.285l22.809,16.416l22.807-16.416
			c17.287,26.116,26.987,62.065,26.987,101.285C305.793,190.753,282.99,225.186,255.998,225.186z M378.839,365.776
			c-7.438,35.31-24.121,65.821-46.974,85.916c-16.604,14.6-35.721,22.912-55.208,24.248c10.69-59.694,36.09-105.664,75.654-136.825
			c13.213-10.405,26.129-17.532,36.848-22.333L378.839,365.776z"/>
	</g>
</g>
<g>
</g>
<g>
</g>
<g>
</g>
<g>
</g>
<g>
</g>
<g>
</g>
<g>
</g>
<g>
</g>
<g>
</g>
<g>
</g>
<g>
</g>
<g>
</g>
<g>
</g>
<g>
</g>
<g>
</g>
</svg>
