<?xml version="1.0" encoding="iso-8859-1"?>
<!-- Generator: Adobe Illustrator 19.0.0, SVG Export Plug-In . SVG Version: 6.00 Build 0)  -->
<svg version="1.1" id="Layer_1" xmlns="http://www.w3.org/2000/svg" xmlns:xlink="http://www.w3.org/1999/xlink" x="0px" y="0px"
	 viewBox="0 0 512 512" style="enable-background:new 0 0 512 512;" xml:space="preserve">
<g>
	<g>
		<circle cx="202.105" cy="116.772" r="17.965"/>
	</g>
</g>
<g>
	<g>
		<circle cx="309.895" cy="116.772" r="17.965"/>
	</g>
</g>
<g>
	<g>
		<path d="M256,146.713c-16.537,0-29.942,13.405-29.942,29.942L256,196.616l29.942-19.961
			C285.942,160.119,272.536,146.713,256,146.713z"/>
	</g>
</g>
<g>
	<g>
		<path d="M417.684,245.52c0-5.183-0.134-10.519-0.4-15.862l-0.848-17.074h-10.82c0.054-1.74,0.091-3.485,0.091-5.24
			c0-54.219-14.846-105.419-41.804-144.171C335.564,22.436,297.244,0,256,0s-79.564,22.436-107.903,63.174
			c-26.958,38.752-41.804,89.952-41.804,144.171c0,1.755,0.037,3.5,0.091,5.24h-10.82l-0.848,17.074
			c-0.266,5.343-0.4,10.68-0.4,15.862c0,62.589,32.089,117.406,79.809,147.111L150.25,512h211.5l-23.874-119.368
			C385.594,362.926,417.684,308.109,417.684,245.52z M177.592,83.693C199.018,52.892,226.863,35.93,256,35.93
			s56.982,16.962,78.408,47.763c22.808,32.786,35.369,76.701,35.369,123.652c0,1.756-0.042,3.502-0.113,5.24H142.334
			c-0.069-1.738-0.111-3.484-0.111-5.24C142.222,160.393,154.783,116.479,177.592,83.693z M194.077,476.07l13.538-67.692
			c15.283,5.07,31.537,7.809,48.384,7.809s33.101-2.738,48.384-7.809l13.538,67.692H194.077z M256,380.257
			c-39.952,0-75.607-20.073-98.659-51.293c8.39-2.931,14.405-7.236,19.325-10.779c6.621-4.767,10.268-7.393,19.442-7.393
			c9.176,0,12.823,2.625,19.444,7.393c8.303,5.978,19.674,14.165,40.439,14.165c20.765,0,32.136-8.187,40.438-14.165
			c6.621-4.767,10.268-7.393,19.442-7.393c9.179,0,12.827,2.626,19.449,7.393c4.921,3.543,10.941,7.851,19.335,10.781
			C331.604,360.186,295.95,380.257,256,380.257z M315.871,274.863c-20.764,0-32.134,8.187-40.437,14.165
			c-6.621,4.767-10.268,7.393-19.443,7.393c-9.177,0-12.823-2.625-19.444-7.393c-8.303-5.978-19.674-14.165-40.439-14.165
			c-20.764,0-32.134,8.187-40.437,14.165c-5.767,4.152-9.281,6.678-16.153,7.261c-5.641-14.803-8.897-30.91-9.244-47.775h251.448
			c-0.346,16.864-3.603,32.972-9.245,47.776c-6.882-0.581-10.397-3.108-16.167-7.263
			C348.009,283.049,336.639,274.863,315.871,274.863z"/>
	</g>
</g>
<g>
</g>
<g>
</g>
<g>
</g>
<g>
</g>
<g>
</g>
<g>
</g>
<g>
</g>
<g>
</g>
<g>
</g>
<g>
</g>
<g>
</g>
<g>
</g>
<g>
</g>
<g>
</g>
<g>
</g>
</svg>
