<?xml version="1.0" encoding="iso-8859-1"?>
<!-- Generator: Adobe Illustrator 19.0.0, SVG Export Plug-In . SVG Version: 6.00 Build 0)  -->
<svg version="1.1" id="Layer_1" xmlns="http://www.w3.org/2000/svg" xmlns:xlink="http://www.w3.org/1999/xlink" x="0px" y="0px"
	 viewBox="0 0 512 512" style="enable-background:new 0 0 512 512;" xml:space="preserve">
<g>
	<g>
		<circle cx="287.22" cy="124.878" r="18.732"/>
	</g>
</g>
<g>
	<g>
		<path d="M389.896,236.254c14.088-23.445,22.202-50.87,22.202-80.157c0-22.583-4.826-44.057-13.494-63.456L419.4,60.719
			l-39.717-0.135l11.214-41.853L348.15,30.186C322.306,11.219,290.441,0,256,0C169.928,0,99.902,70.025,99.902,156.098
			c0,27.996,7.415,54.292,20.374,77.035l-82.813,35.492v12.352C37.463,408.364,135.499,512,256,512s218.537-103.636,218.537-231.024
			v-12.981L389.896,236.254z M256,37.463c65.415,0,118.634,53.219,118.634,118.634c0,25.175-7.889,48.539-21.315,67.764
			l-97.788,48.895l-89.986-39.992c-17.565-20.694-28.179-47.461-28.179-76.666C137.366,90.683,190.585,37.463,256,37.463z
			 M256,474.537c-59.285,0-111.997-30.621-145.047-77.836c5.626,1.757,12.233,2.91,20.164,2.91c21.651,0,33.507-8.537,42.164-14.769
			c6.902-4.97,10.706-7.709,20.271-7.709c9.568,0,13.371,2.737,20.274,7.709c8.657,6.233,20.513,14.769,42.164,14.769
			c21.651,0,33.509-8.537,42.164-14.769c6.903-4.97,10.706-7.709,20.271-7.709c9.571,0,13.374,2.737,20.279,7.71
			c8.658,6.231,20.514,14.768,42.166,14.768c7.937,0,14.547-1.154,20.178-2.912C367.999,443.914,315.286,474.537,256,474.537z
			 M428.064,341.277c-12.44,2.766-20.55,8.58-26.914,13.161c-6.904,4.971-10.708,7.71-20.279,7.71
			c-9.569,0-13.373-2.737-20.278-7.709c-8.658-6.234-20.514-14.771-42.168-14.771c-21.65,0-33.506,8.537-42.163,14.769
			c-6.903,4.97-10.706,7.709-20.274,7.709c-9.568,0-13.371-2.737-20.274-7.709c-8.655-6.233-20.511-14.769-42.164-14.769
			c-21.651,0-33.507,8.537-42.164,14.769c-6.902,4.97-10.706,7.709-20.271,7.709s-13.369-2.737-20.271-7.709
			c-6.363-4.582-14.471-10.396-26.911-13.162c-4.702-15.29-7.676-31.409-8.653-48.102l68.191-29.224l112.997,50.221l100.503-50.251
			l79.706,29.89C435.665,310.276,432.705,326.18,428.064,341.277z"/>
	</g>
</g>
<g>
</g>
<g>
</g>
<g>
</g>
<g>
</g>
<g>
</g>
<g>
</g>
<g>
</g>
<g>
</g>
<g>
</g>
<g>
</g>
<g>
</g>
<g>
</g>
<g>
</g>
<g>
</g>
<g>
</g>
</svg>
