<?xml version="1.0" encoding="iso-8859-1"?>
<!-- Generator: Adobe Illustrator 19.0.0, SVG Export Plug-In . SVG Version: 6.00 Build 0)  -->
<svg version="1.1" id="Layer_1" xmlns="http://www.w3.org/2000/svg" xmlns:xlink="http://www.w3.org/1999/xlink" x="0px" y="0px"
	 viewBox="0 0 512 512" style="enable-background:new 0 0 512 512;" xml:space="preserve">
<g>
	<g>
		<path d="M405.373,87.872C365.954,31.207,312.906,0,256,0S146.046,31.207,106.626,87.872
			c-38.045,54.691-58.998,127.086-58.998,203.849C47.628,413.183,141.102,512,256,512c114.896,0,208.372-98.817,208.372-220.279
			C464.372,214.958,443.419,142.563,405.373,87.872z M256,476.279c-95.2,0-172.651-82.793-172.651-184.558
			c0-69.539,18.681-134.689,52.6-183.448C168.496,61.486,211.13,35.721,256,35.721s87.503,25.766,120.05,72.552
			c33.922,48.759,52.602,113.91,52.602,183.448C428.651,393.486,351.2,476.279,256,476.279z"/>
	</g>
</g>
<g>
	<g>
		<path d="M341.135,204.205c-5.25,0-13.31,0.949-28.033,6.6c5.651-14.723,6.6-22.783,6.6-28.033
			c0-35.126-28.577-63.702-63.702-63.702s-63.702,28.577-63.702,63.702c0,5.25,0.949,13.31,6.6,28.033
			c-14.723-5.651-22.783-6.6-28.033-6.6c-35.126,0-63.702,28.577-63.702,63.702c0,35.126,28.577,63.702,63.702,63.702
			c5.25,0,13.31-0.949,28.033-6.6c-5.651,14.723-6.6,22.783-6.6,28.033c0,35.126,28.577,63.702,63.702,63.702
			s63.702-28.577,63.702-63.702c0-5.25-0.949-13.31-6.6-28.033c14.723,5.651,22.783,6.6,28.033,6.6
			c35.126,0,63.702-28.577,63.702-63.702C404.837,232.781,376.26,204.205,341.135,204.205z M204.718,283.421
			c-15.381,7.47-28.149,12.468-33.853,12.468c-15.429,0-27.981-12.552-27.981-27.981c0-15.429,12.552-27.981,27.981-27.981
			c5.703,0,18.471,4.997,33.853,12.468c-1.49,4.914-2.299,10.12-2.299,15.514S203.228,278.507,204.718,283.421z M256,381.023
			c-15.429,0-27.981-12.552-27.981-27.981c0-5.703,4.997-18.472,12.468-33.853c4.914,1.49,10.12,2.299,15.514,2.299
			c5.393,0,10.6-0.81,15.514-2.298c7.47,15.379,12.468,28.148,12.468,33.852C283.981,368.471,271.429,381.023,256,381.023z
			 M238.14,267.907c0-9.848,8.012-17.86,17.86-17.86s17.86,8.012,17.86,17.86s-8.012,17.86-17.86,17.86
			S238.14,277.755,238.14,267.907z M271.514,216.624c-4.914-1.488-10.121-2.298-15.514-2.298c-5.394,0-10.6,0.81-15.514,2.298
			c-7.47-15.38-12.468-28.148-12.468-33.852c0-15.429,12.552-27.981,27.981-27.981s27.981,12.552,27.981,27.981
			C283.981,188.476,278.984,201.243,271.514,216.624z M341.135,295.888c-5.703,0-18.472-4.997-33.853-12.468
			c1.49-4.914,2.299-10.12,2.299-15.514c0-5.395-0.81-10.604-2.3-15.52c15.374-7.468,28.142-12.462,33.854-12.462
			c15.429,0,27.981,12.552,27.981,27.981S356.564,295.888,341.135,295.888z"/>
	</g>
</g>
<g>
</g>
<g>
</g>
<g>
</g>
<g>
</g>
<g>
</g>
<g>
</g>
<g>
</g>
<g>
</g>
<g>
</g>
<g>
</g>
<g>
</g>
<g>
</g>
<g>
</g>
<g>
</g>
<g>
</g>
</svg>
