<?xml version="1.0" encoding="iso-8859-1"?>
<!-- Generator: Adobe Illustrator 19.0.0, SVG Export Plug-In . SVG Version: 6.00 Build 0)  -->
<svg version="1.1" id="Layer_1" xmlns="http://www.w3.org/2000/svg" xmlns:xlink="http://www.w3.org/1999/xlink" x="0px" y="0px"
	 viewBox="0 0 512 512" style="enable-background:new 0 0 512 512;" xml:space="preserve">
<g>
	<g>
		<path d="M428.065,119.07h-70.856v-17.86C357.209,45.402,311.806,0,255.999,0S154.79,45.402,154.79,101.209v17.86H83.934
			L70.836,512h370.327L428.065,119.07z M190.511,101.209c0-36.11,29.378-65.488,65.488-65.488s65.488,29.378,65.488,65.488v17.86
			H190.511V101.209z M107.767,476.279l10.716-321.488h36.307v53.581h35.721v-53.581h130.977v53.581h35.721v-53.581h36.307
			l10.716,321.488H107.767z"/>
	</g>
</g>
<g>
	<g>
		<path d="M321.741,264.308c-17.082-24.553-40.429-38.075-65.742-38.075s-48.66,13.522-65.74,38.075
			c-15.705,22.578-24.356,52.276-24.356,83.625c0,52.168,40.417,94.612,90.097,94.612c49.679,0,90.096-42.444,90.096-94.612
			C346.097,316.584,337.447,286.884,321.741,264.308z M255.999,261.953c20.947,0,39.574,19.897,48.604,48.133
			c-2.664-0.456-5.567-0.729-8.772-0.729c-15.72,0-24.526,6.341-30.353,10.538c-4.165,2.998-5.283,3.803-9.48,3.803
			c-4.197,0-5.316-0.806-9.482-3.804c-5.828-4.195-14.635-10.536-30.354-10.536c-3.202,0-6.104,0.273-8.766,0.728
			C216.427,281.849,235.053,261.953,255.999,261.953z M255.999,406.823c-28.649,0-52.178-24.127-54.215-54.602
			c1.857-1.169,3.501-2.335,4.897-3.34c4.164-2.998,5.283-3.803,9.48-3.803c4.198,0,5.318,0.806,9.482,3.804
			c5.827,4.195,14.634,10.536,30.353,10.536s24.526-6.34,30.353-10.536c4.165-2.999,5.284-3.804,9.482-3.804
			c4.2,0,5.319,0.806,9.484,3.804c1.424,1.025,3.048,2.185,4.899,3.349C308.171,382.702,284.645,406.823,255.999,406.823z"/>
	</g>
</g>
<g>
</g>
<g>
</g>
<g>
</g>
<g>
</g>
<g>
</g>
<g>
</g>
<g>
</g>
<g>
</g>
<g>
</g>
<g>
</g>
<g>
</g>
<g>
</g>
<g>
</g>
<g>
</g>
<g>
</g>
</svg>
