<?xml version="1.0" encoding="iso-8859-1"?>
<!-- Generator: Adobe Illustrator 19.0.0, SVG Export Plug-In . SVG Version: 6.00 Build 0)  -->
<svg version="1.1" id="Layer_1" xmlns="http://www.w3.org/2000/svg" xmlns:xlink="http://www.w3.org/1999/xlink" x="0px" y="0px"
	 viewBox="0 0 512 512" style="enable-background:new 0 0 512 512;" xml:space="preserve">
<g>
	<g>
		<path d="M505.285,66.487c-0.706-1.99-1.526-4.079-2.502-6.386l-7.287-17.219l-178.555,90.085
			c-7.149-19.624-23.541-34.882-43.868-40.442L256,66.917l-17.047,25.572c-10.039,2.712-19.328,7.828-27.192,15.164
			c-7.55,7.04-13.231,15.763-16.702,25.315L16.505,42.883L9.217,60.102c-0.977,2.307-1.795,4.396-2.501,6.378
			c-10.639,29.876-8.543,62.649,5.605,91.031c-12.951,57.09,18.724,115.631,74.567,135.516l105.703,37.878l-49.099,75.876
			l7.329,9.757c25.101,33.415,63.437,52.581,105.178,52.581s80.076-19.165,105.178-52.581l7.329-9.757l-49.096-75.871
			l105.667-37.871c55.877-19.896,87.553-78.436,74.601-135.528C513.825,129.131,515.922,96.361,505.285,66.487z M98.654,260.091
			c-32.898-11.714-53.799-42.566-54.219-75.853l120.091,56.885c-2.877,14.47-2.26,29.203,1.686,43.178L98.654,260.091z
			 M182.314,202.048c-1.662,2.137-3.192,4.348-4.649,6.6L45.963,146.263c-9.575-16.665-12.968-35.845-9.866-54.323l156.432,78.922
			C193.004,181.802,189.411,192.924,182.314,202.048z M238.513,432.552c-19.837-3.592-37.909-13.243-51.983-27.906l37.406-57.804
			c2.762,1.008,5.582,1.894,8.457,2.645c2.034,0.532,4.076,0.991,6.12,1.384V432.552z M241.23,315.648
			c-29.948-7.82-48.862-38.763-42.162-68.974c1.896-8.542,5.547-16.332,10.851-23.152c14.192-18.241,20.238-41.399,16.59-63.537
			c-0.266-1.604-0.4-3.254-0.4-4.903c0-8.375,3.376-16.136,9.505-21.852c5.592-5.216,12.755-8.021,20.371-8.021
			c0.722,0,1.45,0.024,2.18,0.076c14.792,1.032,26.67,12.975,27.626,27.783c0.129,1.996,0.066,3.994-0.188,5.939
			c-3.119,23.858,2.737,46.802,16.488,64.604c10.917,14.134,14.749,32.175,10.514,49.494c-3.74,15.291-13.247,28.153-26.769,36.217
			C272.317,317.384,256.475,319.629,241.23,315.648z M325.47,404.647c-14.074,14.661-32.146,24.313-51.983,27.906v-81.648
			c4.944-0.948,9.817-2.304,14.579-4.059L325.47,404.647z M413.31,260.102c-18.734,6.717-43.229,15.499-67.517,24.207
			c0.267-0.963,0.546-1.921,0.785-2.896c3.289-13.448,3.53-27.162,0.923-40.303l120.064-56.872
			C467.144,217.525,446.237,248.379,413.31,260.102z M466.038,146.263l-131.72,62.391c-1.419-2.191-2.934-4.333-4.548-6.424
			c-6.691-8.663-10.131-19.662-9.99-31.524l156.124-78.767C479.006,110.416,475.612,129.597,466.038,146.263z"/>
	</g>
</g>
<g>
</g>
<g>
</g>
<g>
</g>
<g>
</g>
<g>
</g>
<g>
</g>
<g>
</g>
<g>
</g>
<g>
</g>
<g>
</g>
<g>
</g>
<g>
</g>
<g>
</g>
<g>
</g>
<g>
</g>
</svg>
