<?xml version="1.0" encoding="iso-8859-1"?>
<!-- Generator: Adobe Illustrator 19.0.0, SVG Export Plug-In . SVG Version: 6.00 Build 0)  -->
<svg version="1.1" id="Layer_1" xmlns="http://www.w3.org/2000/svg" xmlns:xlink="http://www.w3.org/1999/xlink" x="0px" y="0px"
	 viewBox="0 0 512 512" style="enable-background:new 0 0 512 512;" xml:space="preserve">
<g>
	<g>
		<path d="M467.14,140.8c-0.627-35.997-10.803-69.944-28.872-95.918C418.134,15.94,390.679,0,360.96,0
			c-18.833,0-36.753,6.409-52.48,18.463C292.753,6.409,274.833,0,256,0s-36.753,6.409-52.48,18.463
			C187.793,6.409,169.873,0,151.04,0c-29.719,0-57.174,15.94-77.308,44.882C55.663,70.856,45.487,104.803,44.86,140.8H19.2v70.4
			c0,90.235,69.526,164.525,157.82,172.143l20.613,30.918c-29.398,10.78-50.433,39.049-50.433,72.138
			c0,2.789,0.164,5.663,0.488,8.543L149.603,512h212.795l1.915-17.057c0.324-2.88,0.488-5.754,0.488-8.543
			c0-33.089-21.036-61.358-50.433-72.137l20.613-30.918c88.294-7.62,157.82-81.91,157.82-172.145v-70.4H467.14z M360.96,38.4
			c36.018,0,66.541,46.539,67.78,102.4h-66.56c-0.611-35.048-10.295-68.125-27.48-93.819C342.824,41.473,351.709,38.4,360.96,38.4z
			 M256,38.4c36.018,0,66.541,46.539,67.78,102.4H188.22C189.459,84.94,219.982,38.4,256,38.4z M151.04,38.4
			c9.249,0,18.136,3.073,26.26,8.581c-17.185,25.693-26.871,58.771-27.48,93.819H83.26C84.499,84.94,115.022,38.4,151.04,38.4z
			 M324.206,473.6H187.794C193.076,458.7,207.313,448,224,448h64C304.687,448,318.924,458.7,324.206,473.6z M223.608,384h64.783
			l-17.066,25.6h-30.65L223.608,384z M320,345.6H192c-55.218,0-102.756-33.475-123.409-81.193
			c17.391,9.613,37.21,14.847,58.001,14.847c23.008,0,45.492-6.661,64.704-18.982c19.21,12.32,41.696,18.982,64.704,18.982
			s45.494-6.662,64.704-18.982c19.212,12.321,41.696,18.982,64.704,18.982c20.791,0,40.611-5.234,58.001-14.847
			C422.756,312.125,375.218,345.6,320,345.6z M454.4,202.63c-15.02,23.962-40.69,38.223-68.992,38.223
			c-19.123,0-37.715-6.774-52.351-19.072l-12.352-10.381l-12.352,10.381c-14.636,12.298-33.228,19.072-52.351,19.072
			c-19.123,0-37.716-6.774-52.351-19.072L191.3,211.401l-12.352,10.381c-14.637,12.298-33.227,19.072-52.351,19.072
			c-28.302,0-53.972-14.263-68.992-38.223V179.2H454.4V202.63z"/>
	</g>
</g>
<g>
</g>
<g>
</g>
<g>
</g>
<g>
</g>
<g>
</g>
<g>
</g>
<g>
</g>
<g>
</g>
<g>
</g>
<g>
</g>
<g>
</g>
<g>
</g>
<g>
</g>
<g>
</g>
<g>
</g>
</svg>
