<?xml version="1.0" encoding="iso-8859-1"?>
<!-- Generator: Adobe Illustrator 19.0.0, SVG Export Plug-In . SVG Version: 6.00 Build 0)  -->
<svg version="1.1" id="Layer_1" xmlns="http://www.w3.org/2000/svg" xmlns:xlink="http://www.w3.org/1999/xlink" x="0px" y="0px"
	 viewBox="0 0 512 512" style="enable-background:new 0 0 512 512;" xml:space="preserve">
<g>
	<g>
		<path d="M447.685,142.333h-6.305V91.889c0-41.722-33.943-75.665-75.665-75.665H75.665C33.943,16.224,0,50.168,0,91.889v189.163
			c0,37.426,27.314,68.593,63.054,74.616v89.664l97.976-53.442c11.365,18.235,31.591,30.404,54.615,30.404h111.196l134.715,73.482
			v-74.988C490.375,414.427,512,388.68,512,357.978v-151.33C512,171.185,483.148,142.333,447.685,142.333z M100.887,381.601v-62.715
			H75.665c-20.861,0-37.833-16.97-37.833-37.833V91.891c0-20.86,16.972-37.832,37.833-37.832h290.049
			c20.861,0,37.833,16.973,37.833,37.832v189.163c0,20.862-16.972,37.833-37.833,37.833H215.866L100.887,381.601z M474.167,357.978
			c0,14.602-11.881,26.483-26.483,26.483h-23.961v47.582l-87.235-47.582H215.645c-8.713,0-16.433-4.249-21.263-10.763l31.132-16.98
			h140.2c41.722,0,75.665-33.943,75.665-75.665V180.165h6.305c14.602,0,26.483,11.881,26.483,26.483V357.978z"/>
	</g>
</g>
<g>
	<g>
		<path d="M289.721,112.945c-17.931-25.775-42.447-39.971-69.032-39.971s-51.1,14.196-69.032,39.971
			c-16.475,23.683-25.55,54.833-25.55,87.713c0,54.76,42.429,99.31,94.581,99.31s94.581-44.55,94.581-99.31
			C315.271,167.779,306.197,136.629,289.721,112.945z M220.69,110.806c21.773,0,41.14,20.625,50.609,49.941
			c-2.706-0.441-5.652-0.704-8.886-0.704c-16.533,0-25.79,6.666-31.917,11.076c-4.319,3.11-5.481,3.946-9.809,3.946
			c-4.331,0-5.491-0.836-9.81-3.946c-6.125-4.411-15.383-11.076-31.917-11.076c-3.23,0-6.174,0.26-8.878,0.704
			C179.549,131.431,198.917,110.806,220.69,110.806z M220.69,262.136c-29.861,0-54.391-25.12-56.572-56.875
			c1.906-1.206,3.595-2.404,5.036-3.44c4.319-3.109,5.479-3.945,9.807-3.945c4.331,0,5.491,0.836,9.81,3.946
			c6.125,4.411,15.383,11.076,31.917,11.076c16.532,0,25.789-6.665,31.916-11.076c4.319-3.11,5.481-3.946,9.81-3.946
			c4.332,0,5.492,0.836,9.813,3.946c1.468,1.057,3.14,2.249,5.036,3.448C275.075,237.02,250.547,262.136,220.69,262.136z"/>
	</g>
</g>
<g>
</g>
<g>
</g>
<g>
</g>
<g>
</g>
<g>
</g>
<g>
</g>
<g>
</g>
<g>
</g>
<g>
</g>
<g>
</g>
<g>
</g>
<g>
</g>
<g>
</g>
<g>
</g>
<g>
</g>
</svg>
