<?xml version="1.0" encoding="iso-8859-1"?>
<!-- Generator: Adobe Illustrator 19.0.0, SVG Export Plug-In . SVG Version: 6.00 Build 0)  -->
<svg version="1.1" id="Layer_1" xmlns="http://www.w3.org/2000/svg" xmlns:xlink="http://www.w3.org/1999/xlink" x="0px" y="0px"
	 viewBox="0 0 512.001 512.001" style="enable-background:new 0 0 512.001 512.001;" xml:space="preserve">
<g>
	<g>
		<path d="M365.832,300.326h-91.859v-29.967c3.432,1.313,7.019,2.291,10.731,2.893c2.923,0.474,5.851,0.711,8.756,0.711
			c11.218,0,22.128-3.5,31.408-10.189c11.684-8.419,19.39-20.887,21.696-35.102l8.638-53.22l-18.513-3.005
			c4.221-6.262,7.196-13.501,8.483-21.429l8.636-53.222l-45.798-7.431c4.861-18.033,0.242-38.112-13.885-52.241L256.001,0
			l-38.125,38.124c-14.127,14.129-18.745,34.207-13.883,52.241l-45.799,7.432l8.638,53.221v0.001
			c1.287,7.928,4.262,15.167,8.483,21.429l-18.514,3.005l8.639,53.22c2.306,14.215,10.012,26.683,21.695,35.102
			c9.282,6.689,20.189,10.189,31.408,10.189c2.904,0,5.831-0.235,8.754-0.709c3.741-0.607,7.328-1.592,10.733-2.902v29.974H146.17
			c-58.358,0-105.837,47.479-105.837,105.838S87.812,512.001,146.17,512.001h219.661c58.358,0,105.837-47.478,105.837-105.838
			C471.669,347.804,424.191,300.326,365.832,300.326z M311.084,222.913c-0.769,4.739-3.337,8.894-7.231,11.701
			c-3.895,2.808-8.651,3.934-13.388,3.16c-4.739-0.769-8.894-3.337-11.701-7.231c-2.807-3.894-3.929-8.648-3.159-13.387
			c1.429-8.811,9.076-15.096,17.73-15.096c0.954,0,1.921,0.076,2.89,0.234l17.739,2.879L311.084,222.913z M274.211,139.5
			c1.429-8.811,9.077-15.094,17.731-15.094c0.953,0,1.919,0.076,2.89,0.234l17.739,2.878l-2.879,17.742
			c-1.588,9.782-10.834,16.451-20.619,14.859c-4.739-0.769-8.894-3.337-11.701-7.231C274.564,148.993,273.443,144.239,274.211,139.5
			z M233.239,230.542c-2.807,3.894-6.963,6.463-11.702,7.232c-4.741,0.768-9.493-0.353-13.387-3.161
			c-3.894-2.806-6.463-6.962-7.232-11.701l-2.879-17.74l17.74-2.879c9.79-1.594,19.031,5.079,20.619,14.861
			C237.167,221.892,236.045,226.648,233.239,230.542z M234.632,152.888c-2.807,3.894-6.962,6.463-11.701,7.231
			c-9.787,1.592-19.031-5.079-20.62-14.858l-2.879-17.742l17.74-2.878c9.781-1.597,19.033,5.078,20.62,14.859
			C238.561,144.239,237.438,148.993,234.632,152.888z M243.292,63.541l12.709-12.708l12.708,12.708
			c7.008,7.008,7.008,18.41,0,25.418c-7.008,7.008-18.41,7.008-25.416,0C236.286,81.95,236.286,70.549,243.292,63.541z
			 M365.832,476.055H146.171c-38.539,0-69.892-31.354-69.892-69.893s31.353-69.892,69.892-69.892
			c38.539,0,69.892,31.353,69.892,69.892h35.945c0-26.764-9.99-51.235-26.432-69.892h30.427c38.539,0,69.892,31.353,69.892,69.892
			h35.945c0-26.764-9.991-51.235-26.434-69.892h30.428c38.539,0,69.892,31.354,69.892,69.893
			C435.725,444.702,404.371,476.055,365.832,476.055z"/>
	</g>
</g>
<g>
	<g>
		<rect x="399.777" y="151.219" width="59.908" height="35.945"/>
	</g>
</g>
<g>
	<g>
		<rect x="397.719" y="221.106" transform="matrix(0.3333 -0.9428 0.9428 0.3333 40.4349 559.3)" width="35.943" height="59.905"/>
	</g>
</g>
<g>
	<g>
		<rect x="52.315" y="151.219" width="59.908" height="35.945"/>
	</g>
</g>
<g>
	<g>
		<rect x="66.362" y="233.09" transform="matrix(0.9428 -0.3333 0.3333 0.9428 -78.173 46.4585)" width="59.906" height="35.944"/>
	</g>
</g>
<g>
</g>
<g>
</g>
<g>
</g>
<g>
</g>
<g>
</g>
<g>
</g>
<g>
</g>
<g>
</g>
<g>
</g>
<g>
</g>
<g>
</g>
<g>
</g>
<g>
</g>
<g>
</g>
<g>
</g>
</svg>
