<?xml version="1.0" encoding="iso-8859-1"?>
<!-- Generator: Adobe Illustrator 19.0.0, SVG Export Plug-In . SVG Version: 6.00 Build 0)  -->
<svg version="1.1" id="Layer_1" xmlns="http://www.w3.org/2000/svg" xmlns:xlink="http://www.w3.org/1999/xlink" x="0px" y="0px"
	 viewBox="0 0 512 512" style="enable-background:new 0 0 512 512;" xml:space="preserve">
<g>
	<g>
		<path d="M405.374,87.872C365.954,31.207,312.906,0,256,0S146.046,31.207,106.626,87.872
			c-38.045,54.691-58.998,127.086-58.998,203.849C47.628,413.183,141.102,512,256,512s208.372-98.817,208.372-220.279
			C464.372,214.958,443.419,142.563,405.374,87.872z M256,35.721c41.543,0,81.166,22.103,112.645,62.512h-225.29
			C174.834,57.824,214.455,35.721,256,35.721z M120.295,133.953h271.409c7.993,14.983,14.766,31.075,20.241,48.024
			c-7.484,2.88-12.986,6.83-17.546,10.113c-6.583,4.739-10.21,7.35-19.335,7.35c-9.124,0-12.75-2.611-19.335-7.35
			c-8.255-5.943-19.56-14.082-40.206-14.082c-20.644,0-31.949,8.14-40.203,14.082c-6.582,4.739-10.208,7.35-19.33,7.35
			c-9.123,0-12.749-2.61-19.331-7.35c-8.254-5.943-19.558-14.082-40.204-14.082c-20.644,0-31.949,8.14-40.203,14.082
			c-6.581,4.739-10.208,7.35-19.329,7.35c-9.121,0-12.748-2.61-19.329-7.35c-4.56-3.283-10.06-7.231-17.543-10.113
			C105.529,165.029,112.302,148.936,120.295,133.953z M90.826,217.081c1.846,1.088,3.708,2.423,5.898,4
			c8.254,5.943,19.558,14.082,40.202,14.082c20.644,0,31.949-8.14,40.203-14.082c6.581-4.739,10.208-7.35,19.329-7.35
			c9.123,0,12.749,2.61,19.331,7.35c8.254,5.944,19.558,14.082,40.203,14.082s31.949-8.14,40.203-14.082
			c6.582-4.739,10.208-7.35,19.33-7.35c9.125,0,12.751,2.611,19.335,7.35c8.255,5.943,19.56,14.082,40.205,14.082
			c20.646,0,31.95-8.138,40.206-14.082c2.191-1.578,4.056-2.914,5.904-4.002c4.044,19.617,6.488,40.043,7.23,60.949H83.597
			C84.34,257.123,86.783,236.698,90.826,217.081z M256,476.279c-51.848,0-98.428-24.562-130.102-63.368
			c3.357,0.541,7.01,0.856,11.027,0.856c20.644,0,31.949-8.14,40.203-14.082c6.581-4.739,10.208-7.35,19.329-7.35
			c9.123,0,12.749,2.61,19.331,7.35c8.254,5.944,19.558,14.082,40.203,14.082s31.949-8.14,40.203-14.082
			c6.582-4.739,10.208-7.35,19.33-7.35c9.125,0,12.751,2.611,19.335,7.35c8.255,5.943,19.56,14.082,40.205,14.082
			c4.022,0,7.68-0.317,11.039-0.857C354.429,451.716,307.849,476.279,256,476.279z M416.779,358.979
			c-10.034,2.855-16.891,7.766-22.38,11.718c-6.583,4.739-10.21,7.35-19.335,7.35c-9.124,0-12.75-2.611-19.335-7.35
			c-8.255-5.943-19.56-14.082-40.206-14.082c-20.644,0-31.949,8.14-40.203,14.082c-6.582,4.739-10.208,7.35-19.33,7.35
			c-9.123,0-12.749-2.61-19.331-7.35c-8.254-5.943-19.558-14.082-40.204-14.082c-20.644,0-31.949,8.14-40.203,14.082
			c-6.581,4.739-10.208,7.35-19.329,7.35c-9.121,0-12.748-2.61-19.329-7.35c-5.488-3.951-12.344-8.861-22.377-11.716
			c-5.253-14.298-8.874-29.464-10.636-45.231h342.833C425.653,329.516,422.032,344.681,416.779,358.979z"/>
	</g>
</g>
<g>
</g>
<g>
</g>
<g>
</g>
<g>
</g>
<g>
</g>
<g>
</g>
<g>
</g>
<g>
</g>
<g>
</g>
<g>
</g>
<g>
</g>
<g>
</g>
<g>
</g>
<g>
</g>
<g>
</g>
</svg>
