<?xml version="1.0" encoding="iso-8859-1"?>
<!-- Generator: Adobe Illustrator 19.0.0, SVG Export Plug-In . SVG Version: 6.00 Build 0)  -->
<svg version="1.1" id="Layer_1" xmlns="http://www.w3.org/2000/svg" xmlns:xlink="http://www.w3.org/1999/xlink" x="0px" y="0px"
	 viewBox="0 0 512 512" style="enable-background:new 0 0 512 512;" xml:space="preserve">
<g>
	<g>
		<circle cx="199.111" cy="182.044" r="17.067"/>
	</g>
</g>
<g>
	<g>
		<circle cx="312.889" cy="182.044" r="17.067"/>
	</g>
</g>
<g>
	<g>
		<path d="M256,219.97c-15.709,0-28.444,12.735-28.444,28.444L256,267.378l28.444-18.963C284.444,232.705,271.709,219.97,256,219.97
			z"/>
	</g>
</g>
<g>
	<g>
		<path d="M377.994,260.765c12.835-21.361,20.229-46.347,20.229-73.032c0-15.078-2.367-29.611-6.733-43.258l46.252,12.848
			l-16.156-33.834C384.659,46.164,322.758,0,256,0S127.341,46.164,90.416,123.49l-16.156,33.834l46.252-12.848
			c-4.367,13.646-6.733,28.179-6.733,43.257c0,25.508,6.756,49.466,18.563,70.187l-75.452,32.337v11.254
			C56.889,417.575,146.21,512,256,512s199.111-94.425,199.111-210.489v-11.827L377.994,260.765z M256,34.133
			c42.912,0,83.944,25.232,114.547,69.098l-48.039-13.345L256,123.141l-66.508-33.254l-48.039,13.345
			C172.056,59.366,213.088,34.133,256,34.133z M364.089,187.733c0,22.938-7.187,44.224-19.421,61.74l-89.097,44.549l-81.987-36.438
			c-16.003-18.853-25.673-43.242-25.673-69.85c0-20.099,5.521-38.93,15.115-55.068l22.948-6.375L256,161.304l70.026-35.013
			l22.948,6.375C358.568,148.803,364.089,167.635,364.089,187.733z M256,477.867c-54.015,0-102.042-27.899-132.154-70.919
			c5.127,1.602,11.146,2.652,18.372,2.652c19.727,0,30.529-7.778,38.416-13.457c6.289-4.528,9.754-7.023,18.47-7.023
			c8.718,0,12.182,2.494,18.472,7.023c7.887,5.68,18.689,13.457,38.416,13.457s30.529-7.778,38.416-13.457
			c6.29-4.528,9.754-7.023,18.471-7.023c8.72,0,12.184,2.495,18.475,7.023c7.888,5.679,18.69,13.457,38.418,13.457
			c7.232,0,13.255-1.051,18.384-2.654C358.044,449.966,310.016,477.867,256,477.867z M412.77,356.451
			c-11.336,2.519-18.724,7.818-24.523,11.992c-6.291,4.528-9.756,7.024-18.475,7.024c-8.719,0-12.183-2.495-18.475-7.024
			c-7.887-5.68-18.69-13.456-38.418-13.456c-19.727,0-30.529,7.778-38.416,13.456c-6.29,4.528-9.754,7.023-18.471,7.023
			c-8.718,0-12.182-2.494-18.472-7.023c-7.887-5.679-18.689-13.456-38.417-13.456c-19.727,0-30.529,7.778-38.416,13.456
			c-6.289,4.528-9.754,7.023-18.47,7.023c-8.715,0-12.181-2.494-18.47-7.023c-5.798-4.174-13.185-9.472-24.519-11.992
			c-4.284-13.931-6.994-28.617-7.884-43.826l62.13-26.627l102.953,45.758l91.57-45.784l72.621,27.233
			C419.694,328.207,416.998,342.696,412.77,356.451z"/>
	</g>
</g>
<g>
</g>
<g>
</g>
<g>
</g>
<g>
</g>
<g>
</g>
<g>
</g>
<g>
</g>
<g>
</g>
<g>
</g>
<g>
</g>
<g>
</g>
<g>
</g>
<g>
</g>
<g>
</g>
<g>
</g>
</svg>
