<?xml version="1.0" encoding="iso-8859-1"?>
<!-- Generator: Adobe Illustrator 19.0.0, SVG Export Plug-In . SVG Version: 6.00 Build 0)  -->
<svg version="1.1" id="Layer_1" xmlns="http://www.w3.org/2000/svg" xmlns:xlink="http://www.w3.org/1999/xlink" x="0px" y="0px"
	 viewBox="0 0 512 512" style="enable-background:new 0 0 512 512;" xml:space="preserve">
<g>
	<g>
		<path d="M477.182,156.308c-23.827-34.252-56.144-53.113-90.998-53.113c-23.452,0-45.75,8.553-65.092,24.574
			c-19.342-16.021-41.64-24.574-65.092-24.574s-45.75,8.553-65.092,24.574c-19.342-16.021-41.64-24.574-65.092-24.574
			c-34.854,0-67.172,18.863-90.998,53.113C12.365,188.584,0,231.178,0,276.242c0,73.097,56.441,132.564,125.817,132.564
			c23.807,0,46.09-7.004,65.092-19.157c19.002,12.153,41.285,19.157,65.092,19.157c23.807,0,46.09-7.004,65.092-19.157
			c19.002,12.153,41.285,19.157,65.092,19.157c69.374,0,125.815-59.467,125.815-132.564
			C512,231.178,499.635,188.584,477.182,156.308z M194.325,176.708c16.953-24.371,38.857-37.792,61.675-37.792
			s44.721,13.419,61.675,37.79c4.821,6.93,9.055,14.498,12.702,22.553c-4.352-0.99-9.246-1.604-14.848-1.604
			c-20.643,0-31.949,8.14-40.202,14.082c-6.582,4.739-10.208,7.35-19.33,7.35c-9.123,0-12.749-2.61-19.331-7.35
			c-8.255-5.943-19.561-14.082-40.204-14.082c-5.597,0-10.489,0.612-14.838,1.604C185.271,191.202,189.505,183.638,194.325,176.708z
			 M162.389,364.714c-11.185,5.364-23.554,8.371-36.572,8.371c-49.678,0-90.095-43.443-90.095-96.843
			c0-0.798,0.031-1.588,0.039-2.384c9.846-0.021,17.821-8.007,17.821-17.858c0-8.662-6.168-15.88-14.35-17.512
			c4.403-23.245,12.866-44.465,24.911-61.782c16.953-24.371,38.857-37.792,61.675-37.792c14.28,0,28.202,5.257,40.775,15.164
			c-0.532,0.738-1.067,1.475-1.591,2.229c-22.453,32.275-34.818,74.87-34.818,119.934
			C130.183,310.211,142.376,341.233,162.389,364.714z M256,373.085c-34.48,0-64.485-20.937-79.624-51.597h159.249
			C320.483,352.148,290.48,373.085,256,373.085z M345.655,285.767H166.344c-0.286-3.135-0.441-6.312-0.441-9.526
			c0-10.036,0.731-19.888,2.116-29.452c3.483-2.016,6.45-4.145,9.114-6.064c6.582-4.738,10.208-7.349,19.329-7.349
			c9.123,0,12.749,2.61,19.331,7.35c8.254,5.943,19.558,14.082,40.204,14.082c20.644,0,31.949-8.14,40.203-14.082
			c6.582-4.739,10.208-7.35,19.33-7.35c9.125,0,12.751,2.61,19.335,7.351c2.666,1.918,5.637,4.051,9.117,6.068
			c1.385,9.563,2.115,19.412,2.115,29.446C346.095,279.456,345.942,282.632,345.655,285.767z M386.183,373.085
			c-13.018,0-25.387-3.007-36.572-8.371c20.012-23.482,32.206-54.502,32.206-88.472c0-45.064-12.365-87.658-34.818-119.934
			c-0.524-0.754-1.059-1.491-1.591-2.229c12.575-9.907,26.495-15.164,40.775-15.164c22.819,0,44.721,13.42,61.675,37.792
			c12.046,17.316,20.507,38.536,24.911,61.782c-8.181,1.631-14.349,8.849-14.349,17.512c0,9.851,7.975,17.837,17.821,17.858
			c0.008,0.795,0.039,1.586,0.039,2.384C476.279,329.642,435.862,373.085,386.183,373.085z"/>
	</g>
</g>
<g>
	<g>
		<circle cx="416.744" cy="214.326" r="17.86"/>
	</g>
</g>
<g>
	<g>
		<circle cx="416.744" cy="297.674" r="17.86"/>
	</g>
</g>
<g>
	<g>
		<circle cx="95.256" cy="214.326" r="17.86"/>
	</g>
</g>
<g>
	<g>
		<circle cx="95.256" cy="297.674" r="17.86"/>
	</g>
</g>
<g>
</g>
<g>
</g>
<g>
</g>
<g>
</g>
<g>
</g>
<g>
</g>
<g>
</g>
<g>
</g>
<g>
</g>
<g>
</g>
<g>
</g>
<g>
</g>
<g>
</g>
<g>
</g>
<g>
</g>
</svg>
