<?xml version="1.0" encoding="iso-8859-1"?>
<!-- Generator: Adobe Illustrator 19.0.0, SVG Export Plug-In . SVG Version: 6.00 Build 0)  -->
<svg version="1.1" id="Layer_1" xmlns="http://www.w3.org/2000/svg" xmlns:xlink="http://www.w3.org/1999/xlink" x="0px" y="0px"
	 viewBox="0 0 511.999 511.999" style="enable-background:new 0 0 511.999 511.999;" xml:space="preserve">
<g>
	<g>
		<path d="M448.645,242.525c-6.03-10.831-15.472-18.989-26.751-23.374c-4.39-11.277-12.551-20.714-23.387-26.741
			c-25.315-14.078-57.367-4.937-71.446,20.378c-2.764,4.968-4.799,11.786-6.217,20.959h-69.339v-84.354
			c0-23.038-9.491-43.895-24.757-58.889c9.511-12.083,12.437-19.008,13.731-23.549c7.938-27.858-8.267-56.982-36.127-64.921
			c-11.923-3.398-24.366-2.493-35.444,2.382c-11.077-4.874-23.522-5.778-35.445-2.382c-27.859,7.939-44.065,37.063-36.126,64.921
			v0.001c1.294,4.54,4.221,11.465,13.731,23.548c-15.266,14.996-24.757,35.851-24.757,58.889v3.417l-29.583,19.721l29.583,19.721
			v58.189c0,79.356,56.755,145.697,131.804,160.589v67.578h-38.955v33.39h144.691v-33.39h-16.695v-64.546
			c52.073-2.121,94.448-42.53,99.638-93.769c9.451-1.426,16.44-3.492,21.509-6.313C453.61,299.888,462.736,267.835,448.645,242.525z
			 M142.612,34.145c5.679-1.616,11.692-0.551,16.497,2.933l9.798,7.101l9.798-7.101c4.803-3.483,10.816-4.551,16.496-2.933
			c10.153,2.894,16.058,13.506,13.166,23.658c-0.807,2.779-4.403,7.972-9.82,14.514c-9.207-3.553-19.195-5.522-29.639-5.522
			c-10.446,0-20.435,1.97-29.643,5.523c-5.416-6.538-9.01-11.732-9.818-14.515C126.554,47.651,132.461,37.039,142.612,34.145z
			 M119.7,240.19v-90.797c0-27.133,22.074-49.207,49.206-49.207s49.206,22.074,49.206,49.207v90.797
			c0,27.133-22.074,49.207-49.206,49.207S119.7,267.323,119.7,240.19z M273.764,478.608h-22.26v-64.443h22.26V478.608z
			 M421.159,273.323c-1.401,4.918-4.633,8.996-9.099,11.485c-0.185,0.1-4.709,2.491-22.624,3.776l-15.501,1.112v19.996
			c0,39.196-31.888,71.082-71.082,71.082h-1.263c-23.526,0-42.665-19.139-42.665-42.665h-33.39c0,15.574,4.714,30.067,12.778,42.136
			c-42.763-3.828-79.644-28.396-100.479-63.548c9.6,3.914,20.085,6.089,31.074,6.089c36.109,0,66.861-23.302,78.06-55.65h104.404
			l1.106-15.508c1.278-17.908,3.664-22.429,3.765-22.611c5.132-9.227,16.812-12.556,26.036-7.428
			c5.162,2.872,8.659,7.878,9.596,13.737l1.91,11.947l11.948,1.905c5.86,0.934,10.867,4.429,13.74,9.589
			C421.96,263.236,422.559,268.405,421.159,273.323z"/>
	</g>
</g>
<g>
	<g>
		<circle cx="168.03" cy="161.396" r="16.695"/>
	</g>
</g>
<g>
</g>
<g>
</g>
<g>
</g>
<g>
</g>
<g>
</g>
<g>
</g>
<g>
</g>
<g>
</g>
<g>
</g>
<g>
</g>
<g>
</g>
<g>
</g>
<g>
</g>
<g>
</g>
<g>
</g>
</svg>
