<?xml version="1.0" encoding="iso-8859-1"?>
<!-- Generator: Adobe Illustrator 19.0.0, SVG Export Plug-In . SVG Version: 6.00 Build 0)  -->
<svg version="1.1" id="Layer_1" xmlns="http://www.w3.org/2000/svg" xmlns:xlink="http://www.w3.org/1999/xlink" x="0px" y="0px"
	 viewBox="0 0 512 512" style="enable-background:new 0 0 512 512;" xml:space="preserve">
<g>
	<g>
		<path d="M510.191,121.489c-5.775-37.288-24.626-65.471-53.076-79.361c-28.453-13.889-62.268-11.414-95.22,6.967
			c-5.319,2.968-10.51,6.308-15.56,9.978c-19.744-20.941-43.969-32.263-69.761-32.263c-31.66,0-60.963,17.057-82.511,48.031
			c-15.149,21.776-25.174,48.768-29.213,77.977c-11.144-3.685-23.084-4.64-34.993-2.653c-19.306,3.223-36.201,13.77-47.573,29.7
			c-12.699,17.788-16.272,39.368-11.686,59.152c-1.534,0.159-3.069,0.348-4.604,0.605c-19.306,3.223-36.201,13.77-47.573,29.7
			c-11.372,15.93-15.861,35.335-12.639,54.64c3.222,19.305,13.77,36.202,29.7,47.573v0.001L0,421.235l89.457,63.863l48.95-68.566
			v68.659h354.168V228.724h-0.012C509.179,193.324,515.439,155.37,510.191,121.489z M48.236,290.61
			c5.686-7.965,14.134-13.239,23.788-14.851c2.04-0.341,4.083-0.509,6.11-0.509c7.566,0,14.929,2.344,21.21,6.828v0.001
			l-42.576,59.637c-7.965-5.686-13.239-14.134-14.851-23.788C40.307,308.277,42.55,298.574,48.236,290.61z M138.406,353.475
			l-57.48,80.515l-29.819-21.287l87.299-122.283V353.475z M120.631,252.261v-0.001c-16.441-11.739-20.268-34.664-8.531-51.106
			c5.686-7.965,14.134-13.24,23.788-14.851c2.041-0.341,4.081-0.509,6.11-0.509c7.565,0,14.929,2.344,21.209,6.828L120.631,252.261z
			 M224.137,95.764c14.498-20.841,33.12-32.317,52.435-32.317c19.316,0,37.938,11.475,52.435,32.317
			c11.481,16.503,19.214,37.114,22.644,59.683H201.494C204.923,132.878,212.656,112.267,224.137,95.764z M353.121,192.086
			c-1.473,13.451-5.921,25.932-12.644,36.638H212.667c-6.722-10.706-11.17-23.187-12.644-36.638H353.121z M455.936,448.552H175.044
			v-183.19h129.591c-4.052,7.391-7.464,16.999-7.464,30.531c0,21.174,8.349,32.769,14.444,41.235
			c4.861,6.751,7.539,10.47,7.539,19.826h36.638c0-21.174-8.349-32.769-14.444-41.235c-4.861-6.751-7.539-10.47-7.539-19.826
			s2.677-13.075,7.539-19.826c2.2-3.056,4.691-6.53,6.98-10.704h25.448c-2.644,6.437-4.549,14.334-4.549,24.424
			c0,21.174,8.349,32.769,14.444,41.235c4.861,6.751,7.539,10.47,7.539,19.826c0,9.359-2.678,13.079-7.539,19.831
			c-6.095,8.467-14.444,20.062-14.444,41.239h36.638c0-9.36,2.678-13.079,7.539-19.832c6.095-8.467,14.444-20.062,14.444-41.237
			c0-21.174-8.349-32.769-14.444-41.235c-4.861-6.751-7.539-10.47-7.539-19.826c0-9.357,2.678-13.075,7.539-19.827
			c1.044-1.451,2.136-2.975,3.232-4.597h39.302V448.552z M472.718,172.573c-2.512-5.758-7.903-10.08-14.589-10.886
			c-10.045-1.211-19.169,5.949-20.38,15.994c-1.211,10.045,5.949,19.169,15.994,20.381c4.87,0.587,9.515-0.805,13.156-3.529
			c-2.408,7.1-5.302,14.175-8.704,21.145c-2.254,4.619-4.879,8.969-7.805,13.046h-68.98c5.733-14.284,8.906-29.974,8.906-46.429
			c0-34.141-7.97-66.695-22.617-93.45c3.92-2.853,7.937-5.46,12.047-7.753c13.258-7.397,26.372-11.137,38.486-11.137
			c8.142,0,15.835,1.691,22.812,5.098c17.358,8.473,29.056,26.956,32.943,52.044C476.208,141.458,475.721,156.892,472.718,172.573z"
			/>
	</g>
</g>
<g>
	<g>
		<circle cx="421.741" cy="120.026" r="18.319"/>
	</g>
</g>
<g>
</g>
<g>
</g>
<g>
</g>
<g>
</g>
<g>
</g>
<g>
</g>
<g>
</g>
<g>
</g>
<g>
</g>
<g>
</g>
<g>
</g>
<g>
</g>
<g>
</g>
<g>
</g>
<g>
</g>
</svg>
