<?xml version="1.0" encoding="iso-8859-1"?>
<!-- Generator: Adobe Illustrator 19.0.0, SVG Export Plug-In . SVG Version: 6.00 Build 0)  -->
<svg version="1.1" id="Layer_1" xmlns="http://www.w3.org/2000/svg" xmlns:xlink="http://www.w3.org/1999/xlink" x="0px" y="0px"
	 viewBox="0 0 512 512" style="enable-background:new 0 0 512 512;" xml:space="preserve">
<g>
	<g>
		<path d="M405.063,32.405V0h-38.886v32.405H145.823V0h-38.886v32.405H3.24V512h505.519V32.405H405.063z M469.873,473.114H42.127
			V149.063h427.747V473.114z M469.873,110.177H42.127V71.291h427.747V110.177z"/>
	</g>
</g>
<g>
	<g>
		<path d="M329.4,230.489c-19.085-27.433-45.152-42.54-73.4-42.54s-54.315,15.107-73.397,42.54
			c-17.587,25.281-27.273,58.547-27.273,93.669c0,58.31,45.161,105.749,100.672,105.749c55.511,0,100.672-47.44,100.672-105.749
			C356.673,289.036,346.987,255.771,329.4,230.489z M256,226.835c24.078,0,45.471,23.037,55.593,55.592
			c-3.242-0.623-6.813-1.005-10.803-1.005c-17.47,0-27.272,7.058-33.758,11.728c-4.692,3.378-6.108,4.399-11.035,4.399
			c-4.927,0-6.344-1.02-11.037-4.399c-6.486-4.672-16.288-11.728-33.758-11.728c-3.986,0-7.556,0.381-10.795,1.003
			C210.53,249.872,231.922,226.835,256,226.835z M256,391.022c-32.673,0-59.489-27.594-61.631-62.376
			c2.214-1.375,4.156-2.757,5.801-3.94c4.692-3.378,6.108-4.398,11.033-4.398c4.927,0,6.344,1.02,11.037,4.399
			c6.486,4.672,16.288,11.728,33.758,11.728s27.272-7.058,33.757-11.728c4.692-3.378,6.109-4.399,11.036-4.399
			c4.929,0,6.346,1.02,11.04,4.401c1.677,1.209,3.589,2.582,5.799,3.953C315.48,363.436,288.668,391.022,256,391.022z"/>
	</g>
</g>
<g>
</g>
<g>
</g>
<g>
</g>
<g>
</g>
<g>
</g>
<g>
</g>
<g>
</g>
<g>
</g>
<g>
</g>
<g>
</g>
<g>
</g>
<g>
</g>
<g>
</g>
<g>
</g>
<g>
</g>
</svg>
