<?xml version="1.0" encoding="iso-8859-1"?>
<!-- Generator: Adobe Illustrator 19.0.0, SVG Export Plug-In . SVG Version: 6.00 Build 0)  -->
<svg version="1.1" id="Layer_1" xmlns="http://www.w3.org/2000/svg" xmlns:xlink="http://www.w3.org/1999/xlink" x="0px" y="0px"
	 viewBox="0 0 511.999 511.999" style="enable-background:new 0 0 511.999 511.999;" xml:space="preserve">
<g>
	<g>
		<path d="M411.385,153.048c11.959-12.738,19.307-29.854,19.307-48.664c0-16.681-9.898-36.903-30.259-61.822
			c-13.566-16.602-26.995-29.372-27.56-29.907L359.521,0l-13.352,12.653c-0.565,0.536-13.994,13.305-27.56,29.907
			c-20.361,24.92-30.259,45.142-30.259,61.822c0,18.81,7.347,35.927,19.307,48.664c-16.469,5.876-29.533,18.963-35.379,35.447
			h-52.511c-33.553,0-63.293,21.341-74.969,51.761H61.896v219.984H188.71c28.104,0,54.223-15.162,68.623-38.821h11.606v90.581
			h181.163V207.904C450.103,182.639,433.923,161.089,411.385,153.048z M139.537,421.419h-38.821V279.076h38.821V421.419z
			 M359.53,54.499c17.11,18.765,32.341,40.399,32.341,49.885c0,17.838-14.512,32.351-32.351,32.351s-32.351-14.512-32.351-32.351
			C327.171,94.935,342.414,73.289,359.53,54.499z M307.759,207.905c0-10.703,8.708-19.41,19.41-19.41h64.701
			c10.703,0,19.41,8.707,19.41,19.41v17.383c-7.584,2.69-12.997,6.565-17.143,9.55c-5.322,3.833-7.526,5.419-13.872,5.419
			c-6.346,0-8.55-1.586-13.873-5.419c-7.043-5.071-17.688-12.736-36.556-12.736c-9.106,0-16.283,1.792-22.077,4.209V207.905z
			 M232.122,382.598L232.122,382.598l-4.827,12.337c-6.198,15.84-21.703,26.483-38.584,26.483h-10.352V265.638l0.465-3.075
			c3.034-20.094,20.637-35.248,40.944-35.248h49.173v77.641h-21.998v38.821h93.169c10.703,0,19.41,8.707,19.41,19.41
			c0,10.703-8.707,19.41-19.41,19.41H232.122z M411.282,473.179H307.76v-51.761h32.351c32.109,0,58.231-26.122,58.231-58.231
			s-26.122-58.231-58.231-58.231H307.76v-33.172c3.181-1.831,5.831-3.733,8.207-5.444c5.322-3.833,7.525-5.419,13.871-5.419
			s8.55,1.586,13.872,5.419c7.043,5.071,17.688,12.736,36.556,12.736c14.499,0,24.131-4.526,31.016-8.924V473.179z"/>
	</g>
</g>
<g>
</g>
<g>
</g>
<g>
</g>
<g>
</g>
<g>
</g>
<g>
</g>
<g>
</g>
<g>
</g>
<g>
</g>
<g>
</g>
<g>
</g>
<g>
</g>
<g>
</g>
<g>
</g>
<g>
</g>
</svg>
