<svg id="Capa_1" enable-background="new 0 0 510 510" height="512" viewBox="0 0 510 510" width="512" xmlns="http://www.w3.org/2000/svg"><g><path d="m120 420h30v30h-30z"/><path d="m120 480h30v30h-30z"/><path d="m180 420h30v90h-30z"/><path d="m240 420h30v30h-30z"/><path d="m240 480h30v30h-30z"/><path d="m300 420h30v90h-30z"/><path d="m360 420h30v30h-30z"/><path d="m360 480h30v30h-30z"/><path d="m420 420h30v90h-30z"/><path d="m60 420h30v90h-30z"/><path d="m434.255 197.458c-.877-7.332-2.513-14.435-4.826-21.226 12.516-4.115 23.727-11.473 32.632-21.506l27.303 15.764 15-25.98-27.285-15.753c5.087-15.265 5.193-31.919-.022-47.501l27.307-15.766-15-25.98-27.337 15.783c-10.583-11.93-24.892-20.481-41.095-23.783v-31.51h-30v31.51c-16.203 3.302-30.512 11.853-41.095 23.783l-27.337-15.783-15 25.98 27.307 15.766c-4.152 12.404-3.697 21.652-3.874 23.755-13.117-.103-25.69 2.193-37.377 6.508-22.427-32.294-59.213-51.519-98.556-51.519-72.663 0-129.315 64.604-118.75 137.339-43.616 9.666-76.25 48.587-76.25 95.161 0 53.762 43.738 97.5 97.5 97.5h315c53.762 0 97.5-43.738 97.5-97.5 0-45.77-31.792-85.022-75.745-95.042zm-28.322-137.458c24.813 0 45 20.187 45 45 0 21.68-15.073 39.667-35.528 43.984-13.181-18.396-32.149-32.377-54.221-39.256-2.813-26.56 18.095-49.728 44.749-49.728zm6.567 300h-315c-37.22 0-67.5-30.28-67.5-67.5 0-36.456 28.524-66.075 64.938-67.432l19.355-.721-5.54-18.559c-17.225-57.702 26.164-115.788 86.247-115.788 49.622 0 90 40.365 90 90h30c0-14.608-2.628-28.613-7.429-41.572 48.487-15.143 97.389 21.259 97.429 71.511l-.004 14.125 13.653 1.23c34.976 3.152 61.351 32.045 61.351 67.206 0 37.22-30.28 67.5-67.5 67.5z"/></g></svg>