<svg id="Capa_1" enable-background="new 0 0 512 512" height="512" viewBox="0 0 512 512" width="512" xmlns="http://www.w3.org/2000/svg"><g><path d="m256 266c-44.388 0-80.5 36.112-80.5 80.5s36.112 80.5 80.5 80.5 80.5-36.112 80.5-80.5-36.112-80.5-80.5-80.5zm0 131c-27.846 0-50.5-22.654-50.5-50.5s22.654-50.5 50.5-50.5 50.5 22.654 50.5 50.5-22.654 50.5-50.5 50.5z"/><path d="m512 60h-166v-30h30v-30h-240v30h30v30h-166v386h122.344l16.579 28.716 30.472-17.593c10.385 8.123 21.926 14.798 34.105 19.724v35.153h105v-35.152c12.179-4.927 23.72-11.601 34.104-19.725l30.473 17.594 16.58-28.717h122.343zm-316-30h120v30h-120zm-166 60h452v96.326h-.001c0 37.164-30.235 67.399-67.399 67.399h-21.06l-20.462-35.441-30.473 17.593c-10.385-8.123-21.925-14.798-34.104-19.724v-35.153h-105v35.152c-12.179 4.927-23.72 11.601-34.104 19.725l-30.473-17.594-20.463 35.442h-21.061c-37.165 0-67.4-30.235-67.4-67.399zm0 326v-159.428c17.511 16.808 41.269 27.154 67.4 27.154h3.74l-14.717 25.49 30.457 17.585c-.917 6.518-1.379 13.109-1.379 19.699s.463 13.182 1.38 19.699l-30.457 17.584 18.6 32.217zm332.097 17.736-23.179-13.382-8.111 7.465c-11.947 10.996-26.396 19.352-41.784 24.164l-10.522 3.291v26.726h-45v-26.728l-10.523-3.29c-15.388-4.812-29.836-13.167-41.784-24.164l-8.111-7.466-23.178 13.383-22.5-38.972 23.145-13.361-2.395-10.748c-1.761-7.9-2.653-16.026-2.653-24.154s.893-16.255 2.653-24.154l2.396-10.747-23.145-13.363 22.5-38.972 23.179 13.382 8.111-7.465c11.947-10.996 26.396-19.352 41.784-24.164l10.523-3.291v-26.726h45v26.728l10.523 3.29c15.388 4.812 29.836 13.167 41.783 24.163l8.11 7.467 23.18-13.383 22.5 38.972-23.146 13.362 2.396 10.748c1.761 7.897 2.653 16.023 2.653 24.153 0 8.131-.893 16.257-2.653 24.152l-2.396 10.749 23.146 13.363zm44.88-17.736 18.6-32.216-30.457-17.585c.917-6.517 1.38-13.107 1.38-19.699 0-6.591-.463-13.183-1.38-19.699l30.457-17.584-14.717-25.491h3.74c26.131 0 49.89-10.346 67.4-27.155v159.429z"/></g></svg>