<?xml version="1.0" encoding="iso-8859-1"?>
<!-- Generator: Adobe Illustrator 19.0.0, SVG Export Plug-In . SVG Version: 6.00 Build 0)  -->
<svg xmlns="http://www.w3.org/2000/svg" xmlns:xlink="http://www.w3.org/1999/xlink" version="1.1" id="Layer_1" x="0px" y="0px" viewBox="0 0 511.998 511.998" style="enable-background:new 0 0 511.998 511.998;" xml:space="preserve">
<g>
	<g>
		<path d="M406.691,106.635V0H105.307v106.635H87.992v45.335v30.001v45.335h17.316v33.351v187.989v63.352h301.383v-284.69h17.316    v-45.335v-30.001v-45.336H406.691z M135.309,30.001h241.38v76.634h-241.38V30.001z M376.689,481.999h-241.38v-33.351h208.028    V260.659H135.309v-33.351h241.38V481.999z M135.309,418.646V290.66h178.026v127.986H135.309z M394.006,197.306H117.993v-15.334    h276.013V197.306z M394.006,151.97H117.993v-15.334h276.013V151.97z"/>
	</g>
</g>
<g>
	<g>
		<rect x="154.307" y="316.135" width="140.027" height="30.001"/>
	</g>
</g>
<g>
	<g>
		<rect x="154.307" y="363.167" width="140.027" height="30.001"/>
	</g>
</g>
<g>
</g>
<g>
</g>
<g>
</g>
<g>
</g>
<g>
</g>
<g>
</g>
<g>
</g>
<g>
</g>
<g>
</g>
<g>
</g>
<g>
</g>
<g>
</g>
<g>
</g>
<g>
</g>
<g>
</g>
</svg>
