<?xml version="1.0" encoding="iso-8859-1"?>
<!-- Generator: Adobe Illustrator 19.0.0, SVG Export Plug-In . SVG Version: 6.00 Build 0)  -->
<svg version="1.1" id="Layer_1" xmlns="http://www.w3.org/2000/svg" xmlns:xlink="http://www.w3.org/1999/xlink" x="0px" y="0px"
	 viewBox="0 0 512.001 512.001" style="enable-background:new 0 0 512.001 512.001;" xml:space="preserve">
<g>
	<g>
		<path d="M413.343,202.632l-99.751-57.592h-62.834v-33.967l101.111-50.556L219.305,0v145.04H198.41l-99.752,57.592l-57.591,99.751
			v209.618h429.867V302.383L413.343,202.632z M250.758,48.936l28.199,12.873l-28.199,14.099V48.936z M271.727,480.546h-31.454
			v-89.119c0-8.672,7.055-15.727,15.727-15.727c8.672,0,15.727,7.055,15.727,15.727V480.546z M324.15,480.546h-20.969v-89.119
			c0-26.016-21.164-47.181-47.181-47.181c-26.015,0-47.181,21.165-47.181,47.181v89.119h-20.969v-89.119
			c0-37.578,30.572-68.15,68.15-68.15s68.15,30.572,68.15,68.15V480.546z M439.481,365.216h-47.181v31.454h47.181v31.454H413.27
			v31.454h26.211v20.969h-83.876v-89.119c-0.001-54.921-44.683-99.603-99.604-99.603s-99.603,44.682-99.603,99.603v89.119H72.521
			v-20.969h26.211v-31.454H72.521V396.67h47.181v-31.454H72.521v-31.454h26.211v-31.454H77.43l44.254-76.652l85.154-49.163h98.326
			l85.155,49.163l44.254,76.652H413.27v31.454h26.211V365.216z"/>
	</g>
</g>
<g>
	<g>
		<rect x="219.307" y="218.435" width="73.392" height="31.454"/>
	</g>
</g>
<g>
</g>
<g>
</g>
<g>
</g>
<g>
</g>
<g>
</g>
<g>
</g>
<g>
</g>
<g>
</g>
<g>
</g>
<g>
</g>
<g>
</g>
<g>
</g>
<g>
</g>
<g>
</g>
<g>
</g>
</svg>
