<svg id="Capa_1" enable-background="new 0 0 512 512" height="512" viewBox="0 0 512 512" width="512" xmlns="http://www.w3.org/2000/svg"><g><path d="m166 95.394c-24.813 0-45 20.187-45 45v105h30v-60h30v60h30c0-21.425 0-83.666 0-105 0-24.814-20.187-45-45-45zm-15 60v-15c0-8.271 6.729-15 15-15s15 6.729 15 15v15z"/><path d="m256 95.394h-30v150h75v-30h-45z"/><path d="m346 95.394h-30v150h75v-30h-45z"/><path d="m467 125.394h-16v-45c0-24.813-20.187-45-45-45h-300c-24.813 0-45 20.187-45 45v45h-16c-24.813 0-45 20.187-45 45v210c0 24.813 20.187 45 45 45h136v-30h-136c-8.271 0-15-6.729-15-15v-210c0-8.271 6.729-15 15-15h16v105c0 24.813 20.187 45 45 45h300c24.813 0 45-20.187 45-45v-105h16c8.271 0 15 6.729 15 15v210c0 8.271-6.729 15-15 15h-114.787l30-30-21.213-21.213-66.213 66.213 66.213 66.212 21.213-21.213-30-30h114.787c24.813 0 45-20.187 45-45v-210c0-24.813-20.187-44.999-45-44.999zm-46 135c0 8.271-6.729 15-15 15h-300c-8.271 0-15-6.729-15-15 0-52.276 0-124.655 0-180 0-8.271 6.729-15 15-15h300c8.271 0 15 6.729 15 15z"/></g></svg>