<svg id="Capa_1" enable-background="new 0 0 510 510" height="512" viewBox="0 0 510 510" width="512" xmlns="http://www.w3.org/2000/svg"><g><path d="m435.491 123.08c-1.157-32.567-23.481-61.168-55.588-69.704-15.2-28.893-47.758-44.913-80.326-38.683-26.187-19.404-62.461-19.777-89.154-.001-31.952-6.101-64.829 9.224-80.326 38.684-31.493 8.374-54.407 36.503-55.588 69.704-24.744 21.215-33.181 56.496-19.839 86.92-13.064 29.789-5.432 65.254 19.839 86.92 1.157 32.564 23.479 61.166 55.588 69.704 15.227 28.944 47.628 44.732 79.903 38.755v14.621c0 33.084-26.916 60-60 60h-15v30h240v-30h-15c-33.084 0-60-26.916-60-60v-14.621c32.277 5.984 64.682-9.82 79.903-38.755 31.493-8.375 54.407-36.501 55.588-69.704 24.744-21.215 33.181-56.496 19.839-86.92 13.064-29.789 5.432-65.254-19.839-86.92zm-218.471 356.92c14.281-15.934 22.98-36.969 22.98-60v-90h30v90c0 23.031 8.699 44.065 22.98 60zm213.467-229.946c-5.011 21.953-22.542 29.175-25.739 32.061-.264 4.299 5.025 22.5-9.018 40.113-14.038 17.603-32.968 16.504-37.102 17.718-2.102 3.759-5.233 22.454-25.529 32.228-17.13 8.251-32.766 2.387-33.099 2.35v-74.524h-90v74.523c-.254.028-16.061 5.855-33.1-2.35-20.288-9.77-23.426-28.468-25.528-32.228-4.075-1.196-23.06-.107-37.102-17.719-14.04-17.605-8.755-35.812-9.019-40.112-3.202-2.892-20.727-10.102-25.739-32.061-5.011-21.963 7.653-36.068 9.28-40.055-1.622-3.974-14.289-18.102-9.28-40.054 5.011-21.953 22.542-29.175 25.739-32.061.264-4.299-5.025-22.503 9.019-40.112 14.04-17.606 32.968-16.505 37.102-17.719 2.103-3.759 5.232-22.454 25.529-32.228 20.29-9.77 36.874-.564 41.114.134 3.526-2.471 14.46-17.958 36.985-17.958 22.519 0 33.458 15.484 36.984 17.96 4.249-.7 20.818-9.909 41.115-.134 20.288 9.77 23.426 28.468 25.528 32.228 4.075 1.196 23.058.107 37.102 17.719 14.04 17.604 8.755 35.812 9.018 40.112 3.202 2.892 20.727 10.102 25.739 32.061 5.011 21.963-7.653 36.068-9.28 40.055 1.623 3.973 14.29 18.101 9.281 40.053z"/><path d="m270 107.58v-32.58h-30v32.58c-17.459 6.191-30 22.865-30 42.42 0 24.813 20.186 45 45 45s45-20.187 45-45c0-19.554-12.541-36.228-30-42.42zm-15 57.42c-8.272 0-15-6.729-15-15s6.728-15 15-15c8.271 0 15 6.729 15 15 0 8.272-6.728 15-15 15z"/><path d="m360 197.58v-32.58h-30v32.58c-17.459 6.191-30 22.865-30 42.42 0 24.813 20.186 45 45 45s45-20.187 45-45c0-19.554-12.541-36.228-30-42.42zm-15 57.42c-8.271 0-15-6.729-15-15s6.729-15 15-15c8.272 0 15 6.729 15 15 0 8.272-6.728 15-15 15z"/><path d="m180 197.58v-32.58h-30v32.58c-17.459 6.191-30 22.865-30 42.42 0 24.813 20.187 45 45 45s45-20.187 45-45c0-19.554-12.541-36.228-30-42.42zm-15 57.42c-8.272 0-15-6.729-15-15s6.728-15 15-15c8.271 0 15 6.729 15 15 0 8.272-6.728 15-15 15z"/></g></svg>