<?xml version="1.0" encoding="iso-8859-1"?>
<!-- Generator: Adobe Illustrator 19.0.0, SVG Export Plug-In . SVG Version: 6.00 Build 0)  -->
<svg version="1.1" id="Layer_1" xmlns="http://www.w3.org/2000/svg" xmlns:xlink="http://www.w3.org/1999/xlink" x="0px" y="0px"
	 viewBox="0 0 512 512" style="enable-background:new 0 0 512 512;" xml:space="preserve">
<g>
	<g>
		<polygon points="88.141,203.167 88.141,228.466 118.652,228.466 118.652,308.833 147.671,308.833 147.671,228.466 
			178.032,228.466 178.032,203.167 		"/>
	</g>
</g>
<g>
	<g>
		<path d="M233.81,203.167h-26.492l-36.76,105.666h29.616l6.252-20.687h28.128l6.398,20.687h29.467L233.81,203.167z M210.74,268.799
			l9.824-32.742l9.375,32.742H210.74z"/>
	</g>
</g>
<g>
	<g>
		<polygon points="378.468,203.167 347.214,203.167 328.016,236.503 308.816,203.167 277.415,203.167 312.686,256.744 
			278.605,308.833 310.008,308.833 328.016,276.983 346.023,308.833 377.277,308.833 343.196,256.744 		"/>
	</g>
</g>
<g>
	<g>
		<rect x="394.839" y="203.168" width="29.019" height="105.666"/>
	</g>
</g>
<g>
	<g>
		<path d="M484.663,132.983H27.337L0,379.017h512L484.663,132.983z M35.129,347.575l20.35-183.15h401.041l20.35,183.15H35.129z"/>
	</g>
</g>
<g>
</g>
<g>
</g>
<g>
</g>
<g>
</g>
<g>
</g>
<g>
</g>
<g>
</g>
<g>
</g>
<g>
</g>
<g>
</g>
<g>
</g>
<g>
</g>
<g>
</g>
<g>
</g>
<g>
</g>
</svg>
