<?xml version="1.0" encoding="iso-8859-1"?>
<!-- Generator: Adobe Illustrator 19.0.0, SVG Export Plug-In . SVG Version: 6.00 Build 0)  -->
<svg xmlns="http://www.w3.org/2000/svg" xmlns:xlink="http://www.w3.org/1999/xlink" version="1.1" id="Capa_1" x="0px" y="0px" viewBox="0 0 512 512" style="enable-background:new 0 0 512 512;" xml:space="preserve">
<g>
	<g>
		<path d="M437.02,74.981C388.667,26.629,324.38,0,256,0S123.333,26.629,74.98,74.981C26.629,123.333,0,187.62,0,256    c0,43.625,11.125,86.494,32.227,124.398L0.251,498.464l13.285,13.286l118.067-31.977C169.506,500.875,212.375,512,256,512    c68.38,0,132.667-26.629,181.02-74.981C485.371,388.667,512,324.38,512,256S485.371,123.333,437.02,74.981z M256,482    c-40.409,0-80.072-10.805-114.701-31.246l-5.444-3.214l-97.914,26.518l26.518-97.914l-3.214-5.444    C40.805,336.073,30,296.41,30,256C30,131.383,131.383,30,256,30s226,101.383,226,226S380.617,482,256,482z"/>
	</g>
</g>
<g>
</g>
<g>
</g>
<g>
</g>
<g>
</g>
<g>
</g>
<g>
</g>
<g>
</g>
<g>
</g>
<g>
</g>
<g>
</g>
<g>
</g>
<g>
</g>
<g>
</g>
<g>
</g>
<g>
</g>
</svg>
