<?xml version="1.0" encoding="iso-8859-1"?>
<!-- Generator: Adobe Illustrator 19.0.0, SVG Export Plug-In . SVG Version: 6.00 Build 0)  -->
<svg xmlns="http://www.w3.org/2000/svg" xmlns:xlink="http://www.w3.org/1999/xlink" version="1.1" id="Layer_1" x="0px" y="0px" viewBox="0 0 512 512" style="enable-background:new 0 0 512 512;" xml:space="preserve">
<g>
	<g>
		<path d="M332.43,179.57l-24.136,24.136c13.969,13.969,21.661,32.54,21.661,52.295s-7.693,38.326-21.662,52.295    c-13.967,13.969-32.539,21.661-52.293,21.661s-38.326-7.693-52.295-21.661s-21.661-32.54-21.661-52.295    s7.693-38.326,21.661-52.295L179.57,179.57c-20.415,20.415-31.659,47.559-31.659,76.43s11.244,56.015,31.659,76.43    c20.415,20.415,47.559,31.659,76.43,31.659s56.015-11.243,76.43-31.659s31.659-47.559,31.659-76.43S352.845,199.985,332.43,179.57    z"/>
	</g>
</g>
<g>
	<g>
		<rect x="238.933" y="130.844" width="34.133" height="125.156"/>
	</g>
</g>
<g>
	<g>
		<path d="M256,0C116.812,0,0,113.778,0,256c0,137.671,109.986,256,256,256c146.773,0,256-119.088,256-256    C512,122.88,405.049,0,256,0z M256,477.867c-122.337,0-221.867-99.529-221.867-221.867S133.663,34.133,256,34.133    S477.867,133.663,477.867,256S378.337,477.867,256,477.867z"/>
	</g>
</g>
<g>
</g>
<g>
</g>
<g>
</g>
<g>
</g>
<g>
</g>
<g>
</g>
<g>
</g>
<g>
</g>
<g>
</g>
<g>
</g>
<g>
</g>
<g>
</g>
<g>
</g>
<g>
</g>
<g>
</g>
</svg>
