<?xml version="1.0" encoding="iso-8859-1"?>
<!-- Generator: Adobe Illustrator 19.0.0, SVG Export Plug-In . SVG Version: 6.00 Build 0)  -->
<svg version="1.1" id="Layer_1" xmlns="http://www.w3.org/2000/svg" xmlns:xlink="http://www.w3.org/1999/xlink" x="0px" y="0px"
	 viewBox="0 0 512.001 512.001" style="enable-background:new 0 0 512.001 512.001;" xml:space="preserve">
<g>
	<g>
		<path d="M353.5,71.849L320.819,0l-13.205,35.255c-35.931-8.366-73.602-7.884-109.319,1.482
			C159.607,46.881,124.131,67.27,95.702,95.7c-34.981,34.981-57.152,79.292-64.115,128.139
			c-6.731,47.219,1.801,96.322,24.025,138.264l32.484-17.213c-39.278-74.125-25.775-163.82,33.6-223.196
			c45.147-45.146,110.626-64.484,172.891-51.659l-12.932,34.525L353.5,71.849z"/>
	</g>
</g>
<g>
	<g>
		<path d="M456.389,149.895l-32.483,17.213c39.278,74.125,25.775,163.822-33.6,223.197c-45.146,45.145-110.621,64.481-172.885,51.66
			l12.93-34.525l-71.844,32.714l32.685,71.847l13.202-35.255c16.948,3.945,34.279,5.937,51.614,5.937
			c19.416,0,38.831-2.475,57.7-7.422c38.686-10.145,74.162-30.534,102.59-58.964c34.981-34.981,57.152-79.292,64.115-128.139
			C487.145,240.939,478.613,191.835,456.389,149.895z"/>
	</g>
</g>
<g>
	<g>
		<path d="M325.32,215.212l25.994-25.994l-34.659-34.659l-25.994,25.994l-30.327-30.327L130.361,280.2l95.314,95.312
			l129.973-129.973L325.32,215.212z M225.675,323.523l-43.324-43.325l77.983-77.984l43.325,43.325L225.675,323.523z"/>
	</g>
</g>
<g>
</g>
<g>
</g>
<g>
</g>
<g>
</g>
<g>
</g>
<g>
</g>
<g>
</g>
<g>
</g>
<g>
</g>
<g>
</g>
<g>
</g>
<g>
</g>
<g>
</g>
<g>
</g>
<g>
</g>
</svg>
