<svg id="Capa_1" enable-background="new 0 0 512 512" height="512" viewBox="0 0 512 512" width="512" xmlns="http://www.w3.org/2000/svg"><g><path d="m120 60h-60v30h30c0 16.542-13.458 30-30 30s-30-13.458-30-30v-30c0-16.542 13.458-30 30-30 8.013 0 15.547 3.121 21.213 8.787l10.607 10.607 21.213-21.213-10.607-10.606c-11.332-11.334-26.4-17.575-42.426-17.575-33.014 0-59.885 26.8-60 59.787v30.213c0 33.084 26.916 60 60 60s60-26.916 60-60z"/><path d="m240 45c0-24.813-20.187-45-45-45s-45 20.187-45 45v60c0 24.813 20.187 45 45 45s45-20.187 45-45zm-30 60c0 8.271-6.729 15-15 15s-15-6.729-15-15v-60c0-8.271 6.729-15 15-15s15 6.729 15 15z"/><path d="m165 180c-24.813 0-45 20.187-45 45v60c0 24.813 20.187 45 45 45s45-20.187 45-45v-60c0-24.813-20.187-45-45-45zm15 105c0 8.271-6.729 15-15 15s-15-6.729-15-15v-60c0-8.271 6.729-15 15-15s15 6.729 15 15z"/><path d="m315 0c-24.813 0-45 20.187-45 45v60c0 24.813 20.187 45 45 45s45-20.187 45-45v-60c0-24.813-20.187-45-45-45zm15 105c0 8.271-6.729 15-15 15s-15-6.729-15-15v-60c0-8.271 6.729-15 15-15s15 6.729 15 15z"/><path d="m480 105v-60c0-24.813-20.187-45-45-45h-45v150h45c24.813 0 45-20.187 45-45zm-60-75h15c8.271 0 15 6.729 15 15v60c0 8.271-6.729 15-15 15h-15z"/><path d="m60 285c0 8.271-6.729 15-15 15s-15-6.729-15-15v-15h-30v15c0 24.813 20.187 45 45 45s45-20.187 45-45v-105h-30z"/><path d="m285 180h-45v150h45c24.813 0 45-20.187 45-45 0-11.517-4.353-22.032-11.495-30 7.141-7.968 11.495-18.483 11.495-30 0-24.813-20.187-45-45-45zm-15 30h15c8.271 0 15 6.729 15 15s-6.729 15-15 15h-15zm15 90h-15v-30h15c8.271 0 15 6.729 15 15s-6.729 15-15 15z"/><path d="m437 193.459-75 150v168.541h150v-168.541zm35.729 138.541h-71.459l35.73-71.459zm-20.729 150v-90h-30v90h-30v-120h90v120z"/></g></svg>