<?xml version="1.0" encoding="iso-8859-1"?>
<!-- Generator: Adobe Illustrator 19.0.0, SVG Export Plug-In . SVG Version: 6.00 Build 0)  -->
<svg version="1.1" id="Layer_1" xmlns="http://www.w3.org/2000/svg" xmlns:xlink="http://www.w3.org/1999/xlink" x="0px" y="0px"
	 viewBox="0 0 512 512" style="enable-background:new 0 0 512 512;" xml:space="preserve">
<g>
	<g>
		<path d="M355.932,177.106V119.25c0-55.103-44.83-99.933-99.933-99.933s-99.933,44.83-99.933,99.933v57.856H0l64.284,315.577
			h383.432L512,177.106H355.932z M156.067,461.124H90.062v0.001l-12.223-60.006c13.579,4.765,30.192,9.142,57.185,9.142
			c7.832,0,14.781-0.372,21.044-1.011V461.124z M156.067,377.524c-6.011,0.75-12.873,1.18-21.044,1.18
			c-27.369,0-40.138-4.807-54.923-10.374c-3.123-1.175-6.305-2.371-9.662-3.536L38.635,208.663h117.432V377.524z M324.375,461.125
			h-136.75v-58.459c4.821-1.558,9.211-3.208,13.443-4.801c14.786-5.567,27.555-10.374,54.925-10.374
			c27.372,0,40.141,4.807,54.927,10.374c4.235,1.595,8.629,3.246,13.455,4.805V461.125z M324.375,369.207
			c-0.775-0.289-1.553-0.583-2.336-0.877c-15.436-5.81-32.932-12.397-66.046-12.397s-50.609,6.587-66.045,12.398
			c-0.779,0.292-1.553,0.585-2.323,0.872V208.663h136.75V369.207z M324.375,177.106h-136.75V119.25
			c0-37.702,30.673-68.375,68.375-68.375s68.375,30.673,68.375,68.375V177.106z M421.938,461.125h-66.006v-51.874
			c6.261,0.638,13.207,1.01,21.035,1.01c26.998,0,43.612-4.377,57.194-9.143L421.938,461.125z M441.561,364.792
			c-3.359,1.166-6.542,2.363-9.667,3.539c-14.786,5.566-27.556,10.373-54.926,10.373c-8.167,0-15.027-0.43-21.035-1.178V208.663
			h117.433L441.561,364.792z"/>
	</g>
</g>
<g>
</g>
<g>
</g>
<g>
</g>
<g>
</g>
<g>
</g>
<g>
</g>
<g>
</g>
<g>
</g>
<g>
</g>
<g>
</g>
<g>
</g>
<g>
</g>
<g>
</g>
<g>
</g>
<g>
</g>
</svg>
