<?xml version="1.0" encoding="iso-8859-1"?>
<!-- Generator: Adobe Illustrator 19.0.0, SVG Export Plug-In . SVG Version: 6.00 Build 0)  -->
<svg xmlns="http://www.w3.org/2000/svg" xmlns:xlink="http://www.w3.org/1999/xlink" version="1.1" id="Layer_1" x="0px" y="0px" viewBox="0 0 512.001 512.001" style="enable-background:new 0 0 512.001 512.001;" xml:space="preserve">
<g>
	<g>
		<path d="M494.684,183.755c-10.918-21.425-26.849-40.413-46.073-54.913c-36.438-27.48-88.437-20.194-115.917,16.242    c-13.313,17.65-18.954,39.428-15.886,61.322c0.694,4.951,1.821,9.771,3.343,14.425h-24.149V0h-80.004v220.832h-24.149    c1.523-4.653,2.65-9.473,3.343-14.425c3.068-21.894-2.574-43.672-15.886-61.322c-27.48-36.436-79.481-43.722-115.917-16.242    c-19.224,14.499-35.156,33.488-46.073,54.912C5.988,205.983,0,230.965,0,256c0,25.031,5.985,50.01,17.311,72.236    c10.917,21.423,26.845,40.411,46.064,54.91c14.479,10.922,31.696,16.696,49.793,16.696c26.239,0,50.341-12.001,66.125-32.924    c16.946-22.463,20.671-50.843,12.5-75.749h24.205v220.832h80.004V291.169h24.203c-8.17,24.904-4.444,53.284,12.502,75.749    c15.785,20.924,39.887,32.926,66.126,32.926c18.097,0,35.315-5.773,49.793-16.696c19.219-14.499,35.148-33.486,46.064-54.91    c11.325-22.226,17.311-47.204,17.311-72.235C512,230.965,506.013,205.983,494.684,183.755z M135.679,258.667    c0.004,0.038,0.006,0.077,0.01,0.115c0.678,5.853,3.491,11.178,7.976,15.081c0.429,0.374,0.869,0.739,1.329,1.086    c0.888,0.67,1.748,1.375,2.592,2.101c0.191,0.163,0.376,0.331,0.564,0.497c0.725,0.641,1.435,1.299,2.124,1.979    c0.102,0.101,0.207,0.2,0.309,0.301c1.636,1.643,3.166,3.397,4.581,5.251c13.981,18.344,14.733,44.477,0.177,63.771    c-10.063,13.34-25.435,20.991-42.174,20.991c-11.524,0-22.494-3.681-31.726-10.646c-15.607-11.774-28.539-27.189-37.401-44.58    C34.857,296.588,30.001,276.319,30.001,256c0-20.322,4.856-40.594,14.045-58.624c8.862-17.392,21.798-32.807,37.408-44.581    c9.494-7.161,20.644-10.618,31.709-10.618c16.006,0,31.833,7.239,42.19,20.973c8.486,11.252,12.084,25.136,10.128,39.094    c-1.202,8.576-4.418,16.544-9.325,23.386l-0.864,1.14c-2.141,2.825-4.557,5.41-7.196,7.737c-0.166,0.146-0.33,0.293-0.498,0.437    c-0.846,0.727-1.708,1.434-2.599,2.105c-6.017,4.538-9.468,11.446-9.468,18.951C135.529,256.899,135.582,257.789,135.679,258.667z     M337.752,261.167h-71.751V482H246V261.167h-71.752c-1.633-1.781-3.346-3.509-5.157-5.163c1.814-1.653,3.543-3.379,5.19-5.17H246    V30.001h20.001v220.832h71.719c1.647,1.791,3.376,3.517,5.19,5.17C341.099,257.658,339.385,259.386,337.752,261.167z     M467.958,314.616c-8.861,17.391-21.794,32.807-37.401,44.58c-9.231,6.964-20.202,10.645-31.725,10.645    c-16.739,0-32.112-7.651-42.175-20.992c-14.552-19.29-13.803-45.417,0.168-63.759c1.419-1.859,2.953-3.619,4.594-5.266    c0.097-0.097,0.198-0.192,0.296-0.289c0.692-0.684,1.405-1.344,2.133-1.988c0.187-0.165,0.372-0.333,0.562-0.496    c0.844-0.725,1.704-1.431,2.593-2.101c0.353-0.266,0.696-0.543,1.031-0.825c0.021-0.017,0.043-0.034,0.064-0.051    c0.205-0.174,0.399-0.357,0.597-0.536c0.146-0.132,0.298-0.26,0.441-0.396c0.062-0.059,0.118-0.121,0.179-0.18    c4.575-4.448,7.153-10.479,7.153-16.96c0-7.505-3.451-14.414-9.468-18.951c-0.891-0.672-1.755-1.38-2.602-2.108    c-0.166-0.142-0.328-0.287-0.492-0.431c-2.64-2.327-5.057-4.913-7.199-7.739l-0.864-1.14c-4.906-6.842-8.123-14.811-9.325-23.386    c-1.956-13.958,1.641-27.841,10.128-39.094c10.359-13.736,26.183-20.973,42.19-20.973c11.064,0,22.215,3.458,31.709,10.619    c15.61,11.774,28.545,27.189,37.408,44.582c9.188,18.029,14.045,38.301,14.045,58.623    C481.999,276.319,477.143,296.588,467.958,314.616z"/>
	</g>
</g>
<g>
	<g>
		<path d="M454.588,204.187c-7.835-15.376-19.273-29.004-33.076-39.415l-18.065,23.953c10.188,7.684,18.629,17.741,24.41,29.084    c5.979,11.731,9.139,24.937,9.139,38.19h30.001C466.999,238.032,462.707,220.115,454.588,204.187z"/>
	</g>
</g>
<g>
</g>
<g>
</g>
<g>
</g>
<g>
</g>
<g>
</g>
<g>
</g>
<g>
</g>
<g>
</g>
<g>
</g>
<g>
</g>
<g>
</g>
<g>
</g>
<g>
</g>
<g>
</g>
<g>
</g>
</svg>
