<?xml version="1.0" encoding="iso-8859-1"?>
<!-- Generator: Adobe Illustrator 19.0.0, SVG Export Plug-In . SVG Version: 6.00 Build 0)  -->
<svg xmlns="http://www.w3.org/2000/svg" xmlns:xlink="http://www.w3.org/1999/xlink" version="1.1" id="Layer_1" x="0px" y="0px" viewBox="0 0 512 512" style="enable-background:new 0 0 512 512;" xml:space="preserve">
<g>
	<g>
		<path d="M340.283,303.42v-67.427h67.427V67.427h-67.427V0H171.717v67.427H104.29v168.567h67.427v67.427h67.427v99.777    l-84.964,84.964L178.018,512l77.983-77.983L333.985,512l23.839-23.839l-84.964-84.964V303.42H340.283z M308.634,101.14h65.362    v101.14h-65.362c12.626-13.136,20.411-30.956,20.411-50.57C329.046,132.096,321.26,114.276,308.634,101.14z M205.43,33.713h101.14    v65.362C293.434,86.45,275.616,78.664,256,78.664s-37.434,7.786-50.57,20.411V33.713z M295.332,151.71    c0,21.688-17.644,39.332-39.332,39.332c-21.688,0-39.332-17.644-39.332-39.332c0-21.688,17.644-39.332,39.332-39.332    C277.688,112.378,295.332,130.022,295.332,151.71z M203.366,202.28h-65.362V101.14h65.362    c-12.625,13.136-20.411,30.956-20.411,50.57C182.954,171.324,190.74,189.144,203.366,202.28z M205.43,269.707v-65.362    c13.136,12.626,30.956,20.411,50.57,20.411c19.614,0,37.434-7.786,50.57-20.411v65.362H205.43z"/>
	</g>
</g>
<g>
</g>
<g>
</g>
<g>
</g>
<g>
</g>
<g>
</g>
<g>
</g>
<g>
</g>
<g>
</g>
<g>
</g>
<g>
</g>
<g>
</g>
<g>
</g>
<g>
</g>
<g>
</g>
<g>
</g>
</svg>
