<?xml version="1.0" encoding="iso-8859-1"?>
<!-- Generator: Adobe Illustrator 19.0.0, SVG Export Plug-In . SVG Version: 6.00 Build 0)  -->
<svg version="1.1" id="Layer_1" xmlns="http://www.w3.org/2000/svg" xmlns:xlink="http://www.w3.org/1999/xlink" x="0px" y="0px"
	 viewBox="0 0 512 512" style="enable-background:new 0 0 512 512;" xml:space="preserve">
<g>
	<g>
		<path d="M407.447,440.892c-15.295-5.757-32.632-12.285-65.445-12.285h-13.104c-10.411-22.939-30.297-40.695-54.653-48.203v-24.766
			h-11.774l-8.23-156.361h20.003v-83.393h-20.848v-26.06c0-31.979-22.275-58.835-52.12-65.915V1.22h-31.272v22.69
			c-29.845,7.08-52.12,33.937-52.12,65.915v26.06H97.035v83.393h20.003l-8.23,156.361H97.035v24.766
			c-36.178,11.155-62.544,44.897-62.544,84.687V512h443.019v-60.828h-15.635C434.752,451.172,422.099,446.409,407.447,440.892z
			 M149.156,89.824c0-20.117,16.367-36.484,36.484-36.484s36.484,16.367,36.484,36.484v26.06h-20.848v-26.06h-31.272v26.06h-20.848
			V89.824z M128.308,147.157h114.665v20.848H128.308V147.157z M226.669,270.401l4.487,85.239h-91.03l1.974-37.512L226.669,270.401z
			 M144.047,281.118l4.308-81.841h74.571l1.908,36.249L144.047,281.118z M128.308,386.911h114.665v31.272H128.308V386.911z
			 M305.517,479.099H65.763v-14.008c0-22.232,12.728-41.535,31.272-51.042v35.405h177.21V414.05
			c18.543,9.507,31.272,28.809,31.272,51.042V479.099z M336.789,479.278v-14.186c0-1.751-0.066-3.486-0.166-5.212h5.378
			c27.122,0,39.774,4.764,54.426,10.279c9.983,3.759,20.838,7.845,36.297,10.23L336.789,479.278z"/>
	</g>
</g>
<g>
	<g>
		<polygon points="332.102,76.501 332.102,92.138 332.102,107.774 373.798,107.774 373.798,76.501 		"/>
	</g>
</g>
<g>
	<g>
		<polygon points="340.214,11.056 329.157,0 299.673,29.484 310.729,40.54 321.786,51.596 351.269,22.113 		"/>
	</g>
</g>
<g>
	<g>
		<polygon points="321.786,132.677 310.729,143.734 299.673,154.789 329.157,184.273 340.214,173.217 351.269,162.16 		"/>
	</g>
</g>
<g>
</g>
<g>
</g>
<g>
</g>
<g>
</g>
<g>
</g>
<g>
</g>
<g>
</g>
<g>
</g>
<g>
</g>
<g>
</g>
<g>
</g>
<g>
</g>
<g>
</g>
<g>
</g>
<g>
</g>
</svg>
