<?xml version="1.0" encoding="iso-8859-1"?>
<!-- Generator: Adobe Illustrator 19.0.0, SVG Export Plug-In . SVG Version: 6.00 Build 0)  -->
<svg xmlns="http://www.w3.org/2000/svg" xmlns:xlink="http://www.w3.org/1999/xlink" version="1.1" id="Capa_1" x="0px" y="0px" viewBox="0 0 512.001 512.001" style="enable-background:new 0 0 512.001 512.001;" xml:space="preserve">
<g>
	<g>
		<path d="M100,384.501c-11.028,0-20,8.972-20,20s8.972,20,20,20s20-8.972,20-20S111.028,384.501,100,384.501z"/>
	</g>
</g>
<g>
	<g>
		<path d="M444.895,207.501H341.759l13.458-121.115c1.664-14.972-3.145-29.997-13.191-41.222    c-10.048-11.225-24.45-17.663-39.515-17.663c-22.112,0-42.107,13.939-49.756,34.686l-60.106,163.039    c-4.251,11.529-15.361,19.275-27.649,19.275H0v240h180v-29.626c7.695,1.103,14.799,4.638,20.394,10.233    c12.506,12.506,29.134,19.393,46.82,19.393h169.682c19.833,0,37.105-12.727,42.98-31.669l49.113-158.347    c1.999-6.444,3.012-13.132,3.012-19.879C512,237.603,481.897,207.501,444.895,207.501z M150,454.501H30v-180h120V454.501z     M480.334,285.598l-49.113,158.347c-1.958,6.314-7.716,10.556-14.327,10.556H247.213c-9.673,0-18.767-3.767-25.607-10.607    C210.338,432.626,195.72,425.939,180,424.72V272.55c18.49-4.863,33.997-18.501,40.797-36.947l60.106-163.039    c3.321-9.01,12.005-15.063,21.607-15.063c6.638,0,12.732,2.724,17.16,7.671c4.427,4.946,6.461,11.304,5.729,17.902    l-17.158,154.427h136.654c20.46,0,37.105,16.645,37.105,37.105C482,278.335,481.439,282.033,480.334,285.598z"/>
	</g>
</g>
<g>
</g>
<g>
</g>
<g>
</g>
<g>
</g>
<g>
</g>
<g>
</g>
<g>
</g>
<g>
</g>
<g>
</g>
<g>
</g>
<g>
</g>
<g>
</g>
<g>
</g>
<g>
</g>
<g>
</g>
</svg>
