<?xml version="1.0" encoding="iso-8859-1"?>
<!-- Generator: Adobe Illustrator 19.0.0, SVG Export Plug-In . SVG Version: 6.00 Build 0)  -->
<svg xmlns="http://www.w3.org/2000/svg" xmlns:xlink="http://www.w3.org/1999/xlink" version="1.1" id="Layer_1" x="0px" y="0px" viewBox="0 0 512 512" style="enable-background:new 0 0 512 512;" xml:space="preserve">
<g>
	<g>
		<path d="M420.978,218.133v-72.177c0-72.148-58.697-130.844-130.844-130.844h-68.267c-72.148,0-130.844,58.697-130.844,130.844    v72.177H0v125.156h45.511v113.778h45.511v39.822h34.133v-39.822h261.689v39.822h34.133v-39.822h45.511V343.289H512V218.133    H420.978z M125.156,145.955c0-53.326,43.385-96.711,96.711-96.711h68.267c53.326,0,96.711,43.385,96.711,96.711v163.201H125.156    V145.955z M34.133,309.155v-56.889h56.889v56.889H34.133z M432.356,422.933H79.644v-79.644h352.711V422.933z M477.867,309.155    h-56.889v-56.889h56.889V309.155z"/>
	</g>
</g>
<g>
</g>
<g>
</g>
<g>
</g>
<g>
</g>
<g>
</g>
<g>
</g>
<g>
</g>
<g>
</g>
<g>
</g>
<g>
</g>
<g>
</g>
<g>
</g>
<g>
</g>
<g>
</g>
<g>
</g>
</svg>
