<?xml version="1.0" encoding="iso-8859-1"?>
<!-- Generator: Adobe Illustrator 19.0.0, SVG Export Plug-In . SVG Version: 6.00 Build 0)  -->
<svg version="1.1" id="Layer_1" xmlns="http://www.w3.org/2000/svg" xmlns:xlink="http://www.w3.org/1999/xlink" x="0px" y="0px"
	 viewBox="0 0 512 512" style="enable-background:new 0 0 512 512;" xml:space="preserve">
<g>
	<g>
		<polygon points="292.717,250.343 292.717,204.581 253.998,204.581 253.998,262.067 283.063,305.662 315.278,284.186 		"/>
	</g>
</g>
<g>
	<g>
		<path d="M292.717,135.131v-33.8h-38.719v33.8c-58.441,9.309-103.25,60.055-103.25,121.076
			c0,67.607,55.002,122.609,122.609,122.609s122.609-55.002,122.609-122.609C395.967,195.187,351.158,144.441,292.717,135.131z
			 M273.358,340.096c-46.257,0-83.89-37.633-83.89-83.89s37.633-83.89,83.89-83.89c46.257,0,83.89,37.633,83.89,83.89
			S319.615,340.096,273.358,340.096z"/>
	</g>
</g>
<g>
	<g>
		<path d="M442.18,87.373c-73.13-73.129-183.019-89.292-267.244-48.756l15.951,35.28c75.402-34.089,165.387-17.671,223.914,40.853
			c77.997,77.999,77.997,204.911,0,282.908c-66.892,66.892-194.503,88.405-282.908,0C87.184,352.95,66.445,290.101,75.345,227.818
			l37.127,11.333l-39.071-73.38L0,204.819L37.939,216.4c-12.852,76.251,11.791,153.851,66.577,208.637
			c105.191,105.191,256.79,80.874,337.664,0C535.274,331.944,535.274,180.468,442.18,87.373z"/>
	</g>
</g>
<g>
</g>
<g>
</g>
<g>
</g>
<g>
</g>
<g>
</g>
<g>
</g>
<g>
</g>
<g>
</g>
<g>
</g>
<g>
</g>
<g>
</g>
<g>
</g>
<g>
</g>
<g>
</g>
<g>
</g>
</svg>
