<?xml version="1.0" encoding="iso-8859-1"?>
<!-- Generator: Adobe Illustrator 19.0.0, SVG Export Plug-In . SVG Version: 6.00 Build 0)  -->
<svg version="1.1" id="Layer_1" xmlns="http://www.w3.org/2000/svg" xmlns:xlink="http://www.w3.org/1999/xlink" x="0px" y="0px"
	 viewBox="0 0 512 512" style="enable-background:new 0 0 512 512;" xml:space="preserve">
<g>
	<g>
		<path d="M496.327,312.663c-24.966,0-40.99,3.768-53.969,8.108l45.281-45.28l-141.949-130.12H245.551v31.347h35.86l10.851,31.347
			H88.34l19.359,61.414l-7.02,5.46H67.133l-46.748,37.775C18.847,312.683,0,312.663,0,312.663v31.347h15.673
			c27.187,0,39.87,4.775,54.556,10.304c15.332,5.772,32.71,12.314,65.602,12.314s50.27-6.542,65.603-12.314
			c14.687-5.529,27.37-10.304,54.558-10.304c27.189,0,39.874,4.775,54.563,10.304c15.333,5.772,32.712,12.314,65.605,12.314
			c32.893,0,50.272-6.542,65.604-12.314c14.688-5.529,27.372-10.304,54.563-10.304H512v-31.347H496.327z M333.495,176.718
			l34.197,31.347h-42.259l-10.851-31.347H333.495z M306.326,239.412h95.562l22.798,20.898H280.024L306.326,239.412z
			 M255.936,239.412l-26.303,20.898h-91.957l-6.587-20.898H255.936z M383.648,335.15c-2.372,0.086-4.859,0.131-7.487,0.131
			c-21.455,0-33.879-2.975-45.381-6.944c-3.074-1.062-6.083-2.194-9.18-3.359c-15.334-5.772-32.713-12.314-65.606-12.314
			c-32.892,0-50.27,6.542-65.603,12.314c-3.098,1.165-6.106,2.298-9.18,3.359c-11.502,3.971-23.924,6.944-45.378,6.944
			s-33.876-2.975-45.377-6.944c-3.074-1.062-6.083-2.194-9.18-3.359c-5.63-2.119-11.539-4.342-18.387-6.307l15.327-12.385h33.22
			l18.808-14.629h296.897L383.648,335.15z"/>
	</g>
</g>
<g>
</g>
<g>
</g>
<g>
</g>
<g>
</g>
<g>
</g>
<g>
</g>
<g>
</g>
<g>
</g>
<g>
</g>
<g>
</g>
<g>
</g>
<g>
</g>
<g>
</g>
<g>
</g>
<g>
</g>
</svg>
