<?xml version="1.0" encoding="iso-8859-1"?>
<!-- Generator: Adobe Illustrator 19.0.0, SVG Export Plug-In . SVG Version: 6.00 Build 0)  -->
<svg version="1.1" id="Layer_1" xmlns="http://www.w3.org/2000/svg" xmlns:xlink="http://www.w3.org/1999/xlink" x="0px" y="0px"
	 viewBox="0 0 512 512" style="enable-background:new 0 0 512 512;" xml:space="preserve">
<g>
	<g>
		<path d="M437.019,74.981C388.668,26.628,324.38,0,256,0S123.332,26.628,74.981,74.981C26.629,123.333,0,187.621,0,256
			s26.628,132.668,74.981,181.019C123.333,485.371,187.62,512,256,512c68.38,0,132.668-26.628,181.019-74.981
			C485.371,388.667,512,324.379,512,256S485.372,123.332,437.019,74.981z M339.595,47.366c27.845,11.152,53.41,27.93,75.259,49.78
			c21.849,21.85,38.628,47.413,49.78,75.258l-91.895,25.063c-12.632-25.091-33.115-45.574-58.206-58.206L339.595,47.366z
			 M355.265,256c0,54.735-44.53,99.265-99.265,99.265s-99.265-44.53-99.265-99.265s44.53-99.265,99.265-99.265
			S355.265,201.265,355.265,256z M256,31.347c18.341,0,36.343,2.194,53.716,6.437l-24.775,90.841
			c-9.312-2.115-18.998-3.237-28.942-3.237c-9.943,0-19.629,1.122-28.942,3.237l-24.775-90.841
			C219.657,33.541,237.659,31.347,256,31.347z M97.146,97.146c21.849-21.849,47.412-38.628,75.259-49.78l25.062,91.895
			c-25.091,12.632-45.574,33.115-58.206,58.206l-91.895-25.063C58.518,144.56,75.297,118.996,97.146,97.146z M31.347,256
			c0-18.341,2.194-36.343,6.438-53.716l90.841,24.776c-2.116,9.312-3.238,18.997-3.238,28.941c0,9.943,1.122,19.628,3.237,28.941
			l-90.841,24.776C33.541,292.343,31.347,274.341,31.347,256z M172.405,464.634c-27.846-11.152-53.41-27.93-75.259-49.78
			c-21.849-21.85-38.628-47.413-49.78-75.258l91.895-25.063c12.632,25.091,33.115,45.574,58.206,58.206L172.405,464.634z
			 M256,480.653c-18.341,0-36.343-2.194-53.716-6.437l24.775-90.841c9.312,2.115,18.998,3.237,28.942,3.237
			c9.943,0,19.629-1.122,28.942-3.237l24.775,90.841C292.343,478.459,274.341,480.653,256,480.653z M414.854,414.854
			c-21.849,21.849-47.412,38.628-75.259,49.78l-25.062-91.895c25.091-12.632,45.574-33.115,58.206-58.206l91.895,25.063
			C453.482,367.44,436.703,393.004,414.854,414.854z M383.374,284.941c2.116-9.312,3.238-18.997,3.238-28.941
			c0-9.943-1.122-19.628-3.237-28.941l90.841-24.776c4.242,17.374,6.437,35.375,6.437,53.716c0,18.341-2.194,36.343-6.438,53.716
			L383.374,284.941z"/>
	</g>
</g>
<g>
</g>
<g>
</g>
<g>
</g>
<g>
</g>
<g>
</g>
<g>
</g>
<g>
</g>
<g>
</g>
<g>
</g>
<g>
</g>
<g>
</g>
<g>
</g>
<g>
</g>
<g>
</g>
<g>
</g>
</svg>
