<?xml version="1.0" encoding="iso-8859-1"?>
<!-- Generator: Adobe Illustrator 19.0.0, SVG Export Plug-In . SVG Version: 6.00 Build 0)  -->
<svg xmlns="http://www.w3.org/2000/svg" xmlns:xlink="http://www.w3.org/1999/xlink" version="1.1" id="Layer_1" x="0px" y="0px" viewBox="0 0 512 512" style="enable-background:new 0 0 512 512;" xml:space="preserve">
<g>
	<g>
		<path d="M459.614,410.127h-32.578c0,25.449-20.703,46.153-46.153,46.153c-25.449,0-46.153-20.703-46.153-46.153h-32.578    c0,25.449-20.703,46.153-46.153,46.153s-46.153-20.703-46.153-46.153h-32.578c0,25.449-20.703,46.153-46.153,46.153    s-46.153-20.703-46.153-46.153H52.386c0,25.449-20.703,46.153-46.153,46.153v32.578c25.406,0,48.036-12.093,62.442-30.828    c14.406,18.735,37.036,30.828,62.442,30.828s48.036-12.093,62.442-30.828c14.406,18.735,37.036,30.828,62.442,30.828    s48.036-12.093,62.442-30.828c14.406,18.735,37.036,30.828,62.442,30.828c25.406,0,48.036-12.093,62.442-30.828    c14.406,18.735,37.036,30.828,62.442,30.828v-32.578C480.319,456.279,459.614,435.576,459.614,410.127z"/>
	</g>
</g>
<g>
	<g>
		<path d="M487.306,158.365V62.903c8.274-3.057,16.507-6.271,24.694-9.663l-12.467-30.098c-157.044,65.049-330.02,65.049-487.067,0    L0,53.24c8.19,3.393,16.424,6.61,24.694,9.667v95.458c-4.085-1.596-8.163-3.225-12.228-4.91L0,183.554    c81.87,33.912,167.862,51.092,255.676,51.092c1.671,0,3.345-0.005,5.017-0.018C347.184,233.984,431.737,216.8,512,183.554    l-12.467-30.098C495.469,155.14,491.391,156.769,487.306,158.365z M96.367,181.663c-13.104-3.424-26.142-7.269-39.094-11.549    V74.016c12.949,4.051,25.982,7.699,39.094,10.942V181.663z M168.039,196.045c-13.073-1.846-26.109-4.107-39.094-6.779V92.15    c12.966,2.522,26,4.655,39.094,6.395V196.045z M239.711,202.026c-13.043-0.339-26.08-1.086-39.094-2.237v-97.735    c12.982,1.075,26.016,1.776,39.094,2.086V202.026z M311.383,199.789c-13.014,1.152-26.051,1.899-39.094,2.237v-97.91    c13.081-0.321,26.115-1.021,39.094-2.099V199.789z M383.055,189.266c-12.985,2.673-26.021,4.933-39.094,6.78V98.5    c13.099-1.741,26.132-3.87,39.094-6.388V189.266z M454.727,170.115c-12.952,4.28-25.99,8.124-39.094,11.549V84.928    c13.118-3.239,26.153-6.882,39.094-10.926V170.115z"/>
	</g>
</g>
<g>
</g>
<g>
</g>
<g>
</g>
<g>
</g>
<g>
</g>
<g>
</g>
<g>
</g>
<g>
</g>
<g>
</g>
<g>
</g>
<g>
</g>
<g>
</g>
<g>
</g>
<g>
</g>
<g>
</g>
</svg>
