<?xml version="1.0" encoding="iso-8859-1"?>
<!-- Generator: Adobe Illustrator 19.0.0, SVG Export Plug-In . SVG Version: 6.00 Build 0)  -->
<svg version="1.1" id="Layer_1" xmlns="http://www.w3.org/2000/svg" xmlns:xlink="http://www.w3.org/1999/xlink" x="0px" y="0px"
	 viewBox="0 0 512 512" style="enable-background:new 0 0 512 512;" xml:space="preserve">
<g>
	<g>
		<path d="M428.408,198.531c0-89.784-68.987-163.743-156.735-171.689V0h-31.347v26.841
			c-87.748,7.946-156.735,81.905-156.735,171.689v250.775h34.043c-1.74,4.906-2.696,10.179-2.696,15.674
			c0,25.927,21.093,47.02,47.02,47.02c25.927,0,47.02-21.093,47.02-47.02c0-5.494-0.956-10.768-2.696-15.674h99.432
			c-1.74,4.906-2.696,10.179-2.696,15.674c0,25.927,21.093,47.02,47.02,47.02c25.927,0,47.02-21.093,47.02-47.02
			c0-5.494-0.956-10.768-2.696-15.674h34.043V198.531z M161.959,480.653c-8.642,0-15.673-7.031-15.673-15.673
			c0-8.642,7.031-15.674,15.673-15.674c8.642,0,15.674,7.031,15.674,15.674C177.633,473.622,170.602,480.653,161.959,480.653z
			 M350.041,480.653c-8.642,0-15.673-7.031-15.673-15.673c0-8.642,7.031-15.674,15.673-15.674s15.673,7.031,15.673,15.674
			C365.714,473.622,358.683,480.653,350.041,480.653z M397.061,417.959H114.939v-62.694h282.122V417.959z M292.571,208.98v20.898
			h-73.143V208.98H292.571z M219.429,177.633v-20.898h73.143v20.898H219.429z M323.918,261.224h20.898v62.694H167.184v-62.694
			h20.898H323.918z M397.061,323.918h-20.898v-94.041h-52.245v-104.49H188.082v104.49h-52.245v94.041h-20.898V198.531
			c0-77.782,63.28-141.061,141.061-141.061s141.061,63.279,141.061,141.061V323.918z"/>
	</g>
</g>
<g>
	<g>
		<rect x="224.653" y="370.939" width="62.694" height="31.347"/>
	</g>
</g>
<g>
	<g>
		<rect x="224.653" y="276.898" width="62.694" height="31.347"/>
	</g>
</g>
<g>
</g>
<g>
</g>
<g>
</g>
<g>
</g>
<g>
</g>
<g>
</g>
<g>
</g>
<g>
</g>
<g>
</g>
<g>
</g>
<g>
</g>
<g>
</g>
<g>
</g>
<g>
</g>
<g>
</g>
</svg>
