<?xml version="1.0" encoding="iso-8859-1"?>
<!-- Generator: Adobe Illustrator 19.0.0, SVG Export Plug-In . SVG Version: 6.00 Build 0)  -->
<svg version="1.1" id="Layer_1" xmlns="http://www.w3.org/2000/svg" xmlns:xlink="http://www.w3.org/1999/xlink" x="0px" y="0px"
	 viewBox="0 0 512 512" style="enable-background:new 0 0 512 512;" xml:space="preserve">
<g>
	<g>
		<g>
			<path d="M428.973,83.027V48.432h-41.513v34.595h-76.108V41.513H200.649v41.514h-76.108V48.432H83.027v34.595H0v387.459h512
				V83.027H428.973z M470.487,428.973H41.513V124.541h428.973V428.973z"/>
			<path d="M159.135,359.784h193.73c41.966,0,76.108-34.142,76.108-76.108s-34.142-76.108-76.108-76.108h-193.73
				c-41.966,0-76.108,34.142-76.108,76.108S117.169,359.784,159.135,359.784z M352.865,249.081
				c19.076,0,34.595,15.519,34.595,34.595c0,19.076-15.519,34.595-34.595,34.595c-19.075,0-34.595-15.519-34.595-34.595
				C318.27,264.6,333.789,249.081,352.865,249.081z M226.892,249.081h58.216c-5.325,10.388-8.351,22.142-8.351,34.595
				c0,12.453,3.026,24.207,8.351,34.595h-58.216c5.325-10.388,8.351-22.142,8.351-34.595
				C235.243,271.223,232.217,259.469,226.892,249.081z M159.135,249.081c19.076,0,34.595,15.519,34.595,34.595
				c0,19.076-15.519,34.595-34.595,34.595c-19.075,0-34.595-15.519-34.595-34.595C124.541,264.6,140.06,249.081,159.135,249.081z"/>
		</g>
	</g>
</g>
<g>
</g>
<g>
</g>
<g>
</g>
<g>
</g>
<g>
</g>
<g>
</g>
<g>
</g>
<g>
</g>
<g>
</g>
<g>
</g>
<g>
</g>
<g>
</g>
<g>
</g>
<g>
</g>
<g>
</g>
</svg>
