<?xml version="1.0" encoding="iso-8859-1"?>
<!-- Generator: Adobe Illustrator 19.0.0, SVG Export Plug-In . SVG Version: 6.00 Build 0)  -->
<svg xmlns="http://www.w3.org/2000/svg" xmlns:xlink="http://www.w3.org/1999/xlink" version="1.1" id="Layer_1" x="0px" y="0px" viewBox="0 0 512 512" style="enable-background:new 0 0 512 512;" xml:space="preserve">
<g>
	<g>
		<path d="M404.211,261.389v-32.337H291.792v-32.337h112.419v-16.168c0-62.407-50.772-113.179-113.179-113.179H129.347v129.347    h33.097v32.337H32.337v32.337H16.168v32.337h16.168v13.985L0,425.201v19.43h118.568v-32.337h-16.803l5.934-21.558h10.87    c39.04,0,71.704-27.818,79.216-64.674h55.86l-27.002,98.11l31.178,8.581l29.364-106.69h117.027v-32.337H512v-32.338H404.211z     M161.684,164.379V99.705h129.347c39.04,0,71.705,27.819,79.218,64.674H161.684z M259.455,196.716v32.337h-64.674v-32.337H259.455    z M118.568,358.4h-1.97l8.9-32.337h38.793C157.618,344.881,139.647,358.4,118.568,358.4z M371.874,293.726H100.86L68.226,412.295    H37.091l27.582-100.216v-50.689h307.2V293.726z"/>
	</g>
</g>
<g>
</g>
<g>
</g>
<g>
</g>
<g>
</g>
<g>
</g>
<g>
</g>
<g>
</g>
<g>
</g>
<g>
</g>
<g>
</g>
<g>
</g>
<g>
</g>
<g>
</g>
<g>
</g>
<g>
</g>
</svg>
