<?xml version="1.0" encoding="iso-8859-1"?>
<!-- Generator: Adobe Illustrator 19.0.0, SVG Export Plug-In . SVG Version: 6.00 Build 0)  -->
<svg xmlns="http://www.w3.org/2000/svg" xmlns:xlink="http://www.w3.org/1999/xlink" version="1.1" id="Layer_1" x="0px" y="0px" viewBox="0 0 512 512" style="enable-background:new 0 0 512 512;" xml:space="preserve">
<g>
	<g>
		<path d="M0,108.07V403.93h512V108.07H0z M481.999,373.93H30.001V138.071h451.997V373.93z"/>
	</g>
</g>
<g>
	<g>
		<path d="M147.931,157.79c-54.154,0-98.211,44.057-98.211,98.211s44.057,98.211,98.211,98.211c54.153,0,98.21-44.057,98.21-98.211    S202.083,157.79,147.931,157.79z M79.722,255.999c0-37.61,30.598-68.208,68.209-68.208c13.385,0,25.87,3.891,36.416,10.579    L90.3,292.416C83.613,281.871,79.722,269.385,79.722,255.999z M147.931,324.21c-13.385,0-25.871-3.891-36.417-10.578    l94.046-94.046c6.687,10.545,10.578,23.032,10.578,36.417C216.139,293.611,185.541,324.21,147.931,324.21z"/>
	</g>
</g>
<g>
	<g>
		<path d="M364.07,157.79c-54.154,0-98.211,44.057-98.211,98.211s44.057,98.211,98.211,98.211c54.153,0,98.209-44.057,98.209-98.211    S418.223,157.79,364.07,157.79z M364.07,324.21c-32.456,0-59.672-22.793-66.527-53.208h133.051    C423.74,301.417,396.525,324.21,364.07,324.21z M297.544,241c6.855-30.414,34.07-53.208,66.526-53.208    c32.455,0,59.67,22.793,66.525,53.208H297.544z"/>
	</g>
</g>
<g>
</g>
<g>
</g>
<g>
</g>
<g>
</g>
<g>
</g>
<g>
</g>
<g>
</g>
<g>
</g>
<g>
</g>
<g>
</g>
<g>
</g>
<g>
</g>
<g>
</g>
<g>
</g>
<g>
</g>
</svg>
