<?xml version="1.0" encoding="iso-8859-1"?>
<!-- Generator: Adobe Illustrator 19.0.0, SVG Export Plug-In . SVG Version: 6.00 Build 0)  -->
<svg version="1.1" id="Layer_1" xmlns="http://www.w3.org/2000/svg" xmlns:xlink="http://www.w3.org/1999/xlink" x="0px" y="0px"
	 viewBox="0 0 512 512" style="enable-background:new 0 0 512 512;" xml:space="preserve">
<g>
	<g>
		<path d="M463.898,391.837c4.022-7.844,6.306-16.718,6.306-26.122c0-12.266-3.876-23.639-10.449-32.981V193.306h-83.592V88.816
			h-31.347V36.571H167.184v52.245h-31.347v104.49H52.245v139.427c-6.573,9.342-10.449,20.715-10.449,32.981
			c0,9.404,2.285,18.278,6.306,26.122H0v83.592h512v-83.592H463.898z M83.592,444.082H31.347v-20.898h52.245V444.082z
			 M73.143,365.714c0-14.404,11.719-26.122,26.122-26.122s26.122,11.719,26.122,26.122s-11.719,26.122-26.122,26.122
			S73.143,380.118,73.143,365.714z M135.837,444.082h-20.898v-20.898h20.898V444.082z M135.837,321.416
			c-9.943-8.223-22.69-13.171-36.571-13.171c-5.433,0-10.687,0.774-15.673,2.19v-85.782h52.245V321.416z M198.531,67.918h114.939
			v20.898H198.531V67.918z M240.327,444.082h-20.898v-31.347h20.898V444.082z M292.571,444.082h-20.898v-31.347h20.898V444.082z
			 M344.816,444.082h-20.898v-62.694H188.082v62.694h-20.898V120.163h177.633V444.082z M376.163,224.653h52.245v85.782
			c-4.986-1.415-10.24-2.19-15.673-2.19c-13.881,0-26.628,4.948-36.571,13.171V224.653z M397.061,444.082h-20.898v-20.898h20.898
			V444.082z M386.612,365.714c0-14.404,11.719-26.122,26.122-26.122s26.122,11.719,26.122,26.122s-11.719,26.122-26.122,26.122
			S386.612,380.118,386.612,365.714z M480.653,444.082h-52.245v-20.898h52.245V444.082z"/>
	</g>
</g>
<g>
	<g>
		<rect x="188.082" y="156.735" width="31.347" height="41.796"/>
	</g>
</g>
<g>
	<g>
		<polygon points="240.327,156.735 240.327,193.306 240.327,198.531 271.673,198.531 271.673,193.306 271.673,156.735 		"/>
	</g>
</g>
<g>
	<g>
		<rect x="292.571" y="156.735" width="31.347" height="41.796"/>
	</g>
</g>
<g>
	<g>
		<rect x="188.082" y="229.878" width="31.347" height="41.796"/>
	</g>
</g>
<g>
	<g>
		<rect x="240.327" y="229.878" width="31.347" height="41.796"/>
	</g>
</g>
<g>
	<g>
		<rect x="292.571" y="229.878" width="31.347" height="41.796"/>
	</g>
</g>
<g>
	<g>
		<rect x="188.082" y="303.02" width="31.347" height="41.796"/>
	</g>
</g>
<g>
	<g>
		<rect x="240.327" y="303.02" width="31.347" height="41.796"/>
	</g>
</g>
<g>
	<g>
		<rect x="292.571" y="303.02" width="31.347" height="41.796"/>
	</g>
</g>
<g>
</g>
<g>
</g>
<g>
</g>
<g>
</g>
<g>
</g>
<g>
</g>
<g>
</g>
<g>
</g>
<g>
</g>
<g>
</g>
<g>
</g>
<g>
</g>
<g>
</g>
<g>
</g>
<g>
</g>
</svg>
