<?xml version="1.0" encoding="iso-8859-1"?>
<!-- Generator: Adobe Illustrator 19.0.0, SVG Export Plug-In . SVG Version: 6.00 Build 0)  -->
<svg xmlns="http://www.w3.org/2000/svg" xmlns:xlink="http://www.w3.org/1999/xlink" version="1.1" id="Layer_1" x="0px" y="0px" viewBox="0 0 512 512" style="enable-background:new 0 0 512 512;" xml:space="preserve">
<g>
	<g>
		<path d="M417.959,347.112v-196.45l83.592,10.449V93.694l-78.484-58.485c6.858-1.029,13.874-1.567,21.015-1.567V2.295    c-95.066,0-172.408,77.342-172.408,172.408v5.224H78.367C35.156,179.928,0,215.083,0,258.295v57.469h31.347v-57.469    c0-25.927,21.093-47.02,47.02-47.02h0.043c-9.862,13.108-15.716,29.393-15.716,47.021v88.816H31.347v124.12L15.04,487.539    l22.165,22.165l25.488-25.488V378.459h31.347v92.773l-16.307,16.307L99.9,509.705l25.488-25.488V378.459h26.122    c26.255,0,48.437-17.704,55.279-41.796h98.421c6.841,24.092,29.024,41.796,55.279,41.796h57.469v61.426l-16.307,16.308    l22.165,22.165l25.488-25.489v-74.41h31.347v61.426l-16.307,16.308l22.165,22.165L512,452.87V347.112H417.959z M386.612,115.154    v231.959H360.49c-14.404,0-26.122-11.719-26.122-26.122v-47.02H303.02v31.347H208.98V273.97h-31.347v47.02    c0,14.404-11.719,26.122-26.122,26.122H94.041v-88.816c0-25.927,21.093-47.02,47.02-47.02H303.02v-36.571    c0-56.921,33.891-106.07,82.551-128.342l84.633,63.066v16.174L386.612,115.154z"/>
	</g>
</g>
<g>
</g>
<g>
</g>
<g>
</g>
<g>
</g>
<g>
</g>
<g>
</g>
<g>
</g>
<g>
</g>
<g>
</g>
<g>
</g>
<g>
</g>
<g>
</g>
<g>
</g>
<g>
</g>
<g>
</g>
</svg>
