<?xml version="1.0" encoding="iso-8859-1"?>
<!-- Generator: Adobe Illustrator 19.0.0, SVG Export Plug-In . SVG Version: 6.00 Build 0)  -->
<svg version="1.1" id="Layer_1" xmlns="http://www.w3.org/2000/svg" xmlns:xlink="http://www.w3.org/1999/xlink" x="0px" y="0px"
	 viewBox="0 0 512 512" style="enable-background:new 0 0 512 512;" xml:space="preserve">
<g>
	<g>
		<g>
			<path d="M135.602,95.419H27.678v122.682h107.924c15.875,37.19,45.723,67.039,82.914,82.914v92.64l-89.43,89.43L158.003,512
				l80.962-80.962L319.926,512l28.916-28.916l-89.43-89.43v-81.467c6.694,0.876,13.518,1.333,20.447,1.333h74.972V0H279.86
				C215.176,0,159.524,39.379,135.602,95.419z M123.097,177.207H68.572v-40.894h54.525V177.207z M313.935,272.626h-34.078
				c-63.889,0-115.866-51.978-115.866-115.866S215.968,40.894,279.857,40.894h34.078V272.626z"/>
			<rect x="402.535" y="136.313" width="81.788" height="40.894"/>
			
				<rect x="384.443" y="238.894" transform="matrix(-0.9397 -0.342 0.342 -0.9397 736.3319 648.5084)" width="81.788" height="40.894"/>
			
				<rect x="404.891" y="13.305" transform="matrix(0.342 0.9397 -0.9397 0.342 330.8033 -364.0276)" width="40.894" height="81.788"/>
		</g>
	</g>
</g>
<g>
</g>
<g>
</g>
<g>
</g>
<g>
</g>
<g>
</g>
<g>
</g>
<g>
</g>
<g>
</g>
<g>
</g>
<g>
</g>
<g>
</g>
<g>
</g>
<g>
</g>
<g>
</g>
<g>
</g>
</svg>
