<?xml version="1.0" encoding="iso-8859-1"?>
<!-- Generator: Adobe Illustrator 19.0.0, SVG Export Plug-In . SVG Version: 6.00 Build 0)  -->
<svg xmlns="http://www.w3.org/2000/svg" xmlns:xlink="http://www.w3.org/1999/xlink" version="1.1" id="Layer_1" x="0px" y="0px" viewBox="0 0 512 512" style="enable-background:new 0 0 512 512;" xml:space="preserve">
<g>
	<g>
		<polygon points="256,225.466 213.932,288.568 298.067,288.568   "/>
	</g>
</g>
<g>
	<g>
		<path d="M425.586,102.582c-41.466-41.466-95.443-65.864-153.418-69.698V0h-32.337v32.884    c-57.975,3.834-111.952,28.232-153.418,69.698C41.115,147.88,16.168,208.107,16.168,272.168s24.947,124.289,70.245,169.586    C131.711,487.053,191.939,512,256,512s124.289-24.947,169.586-70.245c45.297-45.297,70.245-105.525,70.245-169.586    S470.884,147.88,425.586,102.582z M256,479.663c-114.413,0-207.495-93.082-207.495-207.495S141.587,64.674,256,64.674    s207.495,93.082,207.495,207.495S370.413,479.663,256,479.663z"/>
	</g>
</g>
<g>
	<g>
		<path d="M256,97.011c-96.583,0-175.158,78.575-175.158,175.158S159.417,447.326,256,447.326s175.158-78.575,175.158-175.158    S352.583,97.011,256,97.011z M272.168,414.069v-31.416h-32.337v31.416c-65.857-7.456-118.276-59.875-125.732-125.732h31.416V256    H114.1c7.456-65.857,59.874-118.276,125.732-125.732v31.416h32.337v-31.416c65.857,7.456,118.276,59.875,125.732,125.732h-31.416    v32.337h31.416C390.445,354.194,338.026,406.613,272.168,414.069z"/>
	</g>
</g>
<g>
</g>
<g>
</g>
<g>
</g>
<g>
</g>
<g>
</g>
<g>
</g>
<g>
</g>
<g>
</g>
<g>
</g>
<g>
</g>
<g>
</g>
<g>
</g>
<g>
</g>
<g>
</g>
<g>
</g>
</svg>
