<?xml version="1.0" encoding="iso-8859-1"?>
<!-- Generator: Adobe Illustrator 19.0.0, SVG Export Plug-In . SVG Version: 6.00 Build 0)  -->
<svg xmlns="http://www.w3.org/2000/svg" xmlns:xlink="http://www.w3.org/1999/xlink" version="1.1" id="Layer_1" x="0px" y="0px" viewBox="0 0 512 512" style="enable-background:new 0 0 512 512;" xml:space="preserve">
<g>
	<g>
		<path d="M325.034,477.483v-86.292c0-28.91-19.494-53.335-46.022-60.869V80.539c0-28.549-23.226-51.775-51.775-51.775h-28.764V0    h-34.517v437.214h34.517v-28.764h23.011v69.034h-74.786V512h218.607v-34.517H325.034z M244.494,356.674    c0,9.516-7.742,17.258-17.258,17.258h-28.764V63.281h28.764c9.516,0,17.258,7.742,17.258,17.258V356.674z M290.517,477.483H256    v-77.783c11.021-7.392,19.056-18.901,21.888-32.308c7.616,5.18,12.629,13.915,12.629,23.798V477.483z"/>
	</g>
</g>
<g>
</g>
<g>
</g>
<g>
</g>
<g>
</g>
<g>
</g>
<g>
</g>
<g>
</g>
<g>
</g>
<g>
</g>
<g>
</g>
<g>
</g>
<g>
</g>
<g>
</g>
<g>
</g>
<g>
</g>
</svg>
