<?xml version="1.0" encoding="iso-8859-1"?>
<!-- Generator: Adobe Illustrator 19.0.0, SVG Export Plug-In . SVG Version: 6.00 Build 0)  -->
<svg xmlns="http://www.w3.org/2000/svg" xmlns:xlink="http://www.w3.org/1999/xlink" version="1.1" id="Layer_1" x="0px" y="0px" viewBox="0 0 512 512" style="enable-background:new 0 0 512 512;" xml:space="preserve">
<g>
	<g>
		<path d="M256,209.454c-12.833,0-23.273,10.44-23.273,23.273S243.167,256,256,256s23.273-10.44,23.273-23.273    S268.833,209.454,256,209.454z"/>
	</g>
</g>
<g>
	<g>
		<path d="M162.909,209.454c-12.833,0-23.273,10.44-23.273,23.273S150.077,256,162.909,256s23.273-10.44,23.273-23.273    S175.742,209.454,162.909,209.454z"/>
	</g>
</g>
<g>
	<g>
		<path d="M442.182,209.454c-12.833,0-23.273,10.44-23.273,23.273S429.349,256,442.182,256s23.273-10.44,23.273-23.273    S455.014,209.454,442.182,209.454z"/>
	</g>
</g>
<g>
	<g>
		<path d="M349.091,209.454c-12.833,0-23.273,10.44-23.273,23.273S336.258,256,349.091,256c12.833,0,23.273-10.44,23.273-23.273    S361.924,209.454,349.091,209.454z"/>
	</g>
</g>
<g>
	<g>
		<path d="M69.818,209.454c-12.833,0-23.273,10.44-23.273,23.273S56.986,256,69.818,256s23.273-10.44,23.273-23.273    S82.651,209.454,69.818,209.454z"/>
	</g>
</g>
<g>
	<g>
		<path d="M209.455,290.909c-12.833,0-23.273,10.44-23.273,23.273s10.44,23.273,23.273,23.273s23.273-10.44,23.273-23.273    S222.287,290.909,209.455,290.909z"/>
	</g>
</g>
<g>
	<g>
		<path d="M116.364,290.909c-12.833,0-23.273,10.44-23.273,23.273s10.44,23.273,23.273,23.273s23.273-10.44,23.273-23.273    S129.196,290.909,116.364,290.909z"/>
	</g>
</g>
<g>
	<g>
		<path d="M395.636,290.909c-12.833,0-23.273,10.44-23.273,23.273s10.44,23.273,23.273,23.273c12.833,0,23.273-10.44,23.273-23.273    S408.469,290.909,395.636,290.909z"/>
	</g>
</g>
<g>
	<g>
		<path d="M488.727,290.909c-12.833,0-23.273,10.44-23.273,23.273s10.44,23.273,23.273,23.273c12.833,0,23.273-10.44,23.273-23.273    S501.56,290.909,488.727,290.909z"/>
	</g>
</g>
<g>
	<g>
		<path d="M302.545,290.909c-12.833,0-23.273,10.44-23.273,23.273s10.44,23.273,23.273,23.273s23.273-10.44,23.273-23.273    S315.378,290.909,302.545,290.909z"/>
	</g>
</g>
<g>
	<g>
		<path d="M23.273,290.909C10.44,290.909,0,301.349,0,314.182s10.44,23.273,23.273,23.273s23.273-10.44,23.273-23.273    S36.105,290.909,23.273,290.909z"/>
	</g>
</g>
<g>
	<g>
		<path d="M256,372.364c-12.833,0-23.273,10.44-23.273,23.273c0,12.833,10.44,23.273,23.273,23.273s23.273-10.44,23.273-23.273    C279.273,382.804,268.833,372.364,256,372.364z"/>
	</g>
</g>
<g>
	<g>
		<path d="M162.909,372.364c-12.833,0-23.273,10.44-23.273,23.273c0,12.833,10.44,23.273,23.273,23.273s23.273-10.44,23.273-23.273    C186.182,382.804,175.742,372.364,162.909,372.364z"/>
	</g>
</g>
<g>
	<g>
		<path d="M442.182,372.364c-12.833,0-23.273,10.44-23.273,23.273c0,12.833,10.44,23.273,23.273,23.273s23.273-10.44,23.273-23.273    C465.455,382.804,455.014,372.364,442.182,372.364z"/>
	</g>
</g>
<g>
	<g>
		<path d="M349.091,372.364c-12.833,0-23.273,10.44-23.273,23.273c0,12.833,10.44,23.273,23.273,23.273    c12.833,0,23.273-10.44,23.273-23.273C372.364,382.804,361.924,372.364,349.091,372.364z"/>
	</g>
</g>
<g>
	<g>
		<path d="M69.818,372.364c-12.833,0-23.273,10.44-23.273,23.273c0,12.833,10.44,23.273,23.273,23.273s23.273-10.44,23.273-23.273    C93.091,382.804,82.651,372.364,69.818,372.364z"/>
	</g>
</g>
<g>
	<g>
		<rect y="93.091" width="512" height="34.909"/>
	</g>
</g>
<g>
</g>
<g>
</g>
<g>
</g>
<g>
</g>
<g>
</g>
<g>
</g>
<g>
</g>
<g>
</g>
<g>
</g>
<g>
</g>
<g>
</g>
<g>
</g>
<g>
</g>
<g>
</g>
<g>
</g>
</svg>
