<?xml version="1.0" encoding="iso-8859-1"?>
<!-- Generator: Adobe Illustrator 19.0.0, SVG Export Plug-In . SVG Version: 6.00 Build 0)  -->
<svg version="1.1" id="Layer_1" xmlns="http://www.w3.org/2000/svg" xmlns:xlink="http://www.w3.org/1999/xlink" x="0px" y="0px"
	 viewBox="0 0 512 512" style="enable-background:new 0 0 512 512;" xml:space="preserve">
<g>
	<g>
		<path d="M306.67,188.082l-62.694-104.49H0v344.816h512V188.082H306.67z M31.347,114.939h194.881l43.886,73.143H208.98v-47.02
			h-31.347v47.02h-31.347v-47.02h-31.347v47.02H83.592v-47.02H52.245v47.02H31.347V114.939z M480.653,397.061h-20.898v-47.02
			h-31.347v47.02h-31.347v-47.02h-31.347v47.02h-31.347v-47.02H303.02v47.02h-31.347v-47.02h-31.347v47.02H208.98v-47.02h-31.347
			v47.02h-31.347v-47.02h-31.347v47.02H83.592v-47.02H52.245v47.02H31.347v-73.143h449.306V397.061z M480.653,292.571h-20.898
			v-47.02h-31.347v47.02h-31.347v-47.02h-31.347v47.02h-31.347v-47.02H303.02v47.02h-31.347v-47.02h-31.347v47.02H208.98v-47.02
			h-31.347v47.02h-31.347v-47.02h-31.347v47.02H83.592v-47.02H52.245v47.02H31.347v-73.143h449.306V292.571z"/>
	</g>
</g>
<g>
</g>
<g>
</g>
<g>
</g>
<g>
</g>
<g>
</g>
<g>
</g>
<g>
</g>
<g>
</g>
<g>
</g>
<g>
</g>
<g>
</g>
<g>
</g>
<g>
</g>
<g>
</g>
<g>
</g>
</svg>
