<?xml version="1.0" encoding="iso-8859-1"?>
<!-- Generator: Adobe Illustrator 19.0.0, SVG Export Plug-In . SVG Version: 6.00 Build 0)  -->
<svg version="1.1" id="Layer_1" xmlns="http://www.w3.org/2000/svg" xmlns:xlink="http://www.w3.org/1999/xlink" x="0px" y="0px"
	 viewBox="0 0 512 512" style="enable-background:new 0 0 512 512;" xml:space="preserve">
<g>
	<g>
		<path d="M512,277.333v-42.667h-65.192c-4.107-36.976-18.753-70.817-40.865-98.441l46.16-46.161l-30.17-30.17l-46.161,46.161
			c-27.622-22.111-61.461-36.757-98.439-40.865V0h-42.667v65.192c-36.978,4.107-70.817,18.753-98.441,40.865L90.065,59.895
			l-30.17,30.17l46.16,46.161c-22.11,27.624-36.757,61.464-40.863,98.441H0v42.667h65.192c4.107,36.976,18.753,70.815,40.865,98.441
			l-46.16,46.161l30.17,30.17l46.161-46.161c27.622,22.111,61.461,36.757,98.439,40.865V512h42.667v-65.192
			c36.978-4.107,70.817-18.753,98.441-40.865l46.161,46.161l30.17-30.17l-46.16-46.161c22.111-27.624,36.757-61.463,40.865-98.441
			H512z M234.667,403.803c-72.272-10.384-128-72.703-128-147.803s55.728-137.419,128-147.803V403.803z M277.333,403.803V108.197
			c72.272,10.384,128,72.703,128,147.803S349.605,393.419,277.333,403.803z"/>
	</g>
</g>
<g>
</g>
<g>
</g>
<g>
</g>
<g>
</g>
<g>
</g>
<g>
</g>
<g>
</g>
<g>
</g>
<g>
</g>
<g>
</g>
<g>
</g>
<g>
</g>
<g>
</g>
<g>
</g>
<g>
</g>
</svg>
