<?xml version="1.0" encoding="iso-8859-1"?>
<!-- Generator: Adobe Illustrator 19.0.0, SVG Export Plug-In . SVG Version: 6.00 Build 0)  -->
<svg xmlns="http://www.w3.org/2000/svg" xmlns:xlink="http://www.w3.org/1999/xlink" version="1.1" id="Layer_1" x="0px" y="0px" viewBox="0 0 512 512" style="enable-background:new 0 0 512 512;" xml:space="preserve">
<g>
	<g>
		<path d="M364.089,477.867V312.889c0-24.685-17.562-45.346-40.846-50.146c11.133-14.378,17.782-32.395,17.782-51.945v-17.067    H316.02l-6.943-41.653c19.636-15.649,32.256-39.744,32.256-66.744C341.333,38.281,303.053,0,256,0s-85.333,38.281-85.333,85.333    c0,27.001,12.62,51.095,32.256,66.743l-6.943,41.653h-25.005v17.067c0,19.55,6.649,37.567,17.782,51.945    c-23.285,4.801-40.846,25.462-40.846,50.148v164.978h-39.822V512h295.822v-34.133H364.089z M256,34.133    c28.232,0,51.2,22.968,51.2,51.2c0,28.232-22.968,51.2-51.2,51.2s-51.2-22.968-51.2-51.2S227.768,34.133,256,34.133z     M303.948,227.864c-7.03,19.692-25.871,33.825-47.948,33.825s-40.918-14.133-47.949-33.825H303.948z M230.635,193.422    l4.235-25.408c6.76,1.729,13.839,2.652,21.13,2.652s14.37-0.923,21.13-2.652l4.235,25.408H230.635z M329.956,477.867H182.044    V312.889c0-9.411,7.656-17.067,17.067-17.067h113.778c9.411,0,17.067,7.656,17.067,17.067V477.867z"/>
	</g>
</g>
<g>
</g>
<g>
</g>
<g>
</g>
<g>
</g>
<g>
</g>
<g>
</g>
<g>
</g>
<g>
</g>
<g>
</g>
<g>
</g>
<g>
</g>
<g>
</g>
<g>
</g>
<g>
</g>
<g>
</g>
</svg>
