<?xml version="1.0" encoding="iso-8859-1"?>
<!-- Generator: Adobe Illustrator 19.0.0, SVG Export Plug-In . SVG Version: 6.00 Build 0)  -->
<svg version="1.1" id="Layer_1" xmlns="http://www.w3.org/2000/svg" xmlns:xlink="http://www.w3.org/1999/xlink" x="0px" y="0px"
	 viewBox="0 0 512 512" style="enable-background:new 0 0 512 512;" xml:space="preserve">
<g>
	<g>
		<path d="M449.73,62.27V0h-41.513v62.27h-41.514V0h-41.513v62.27h-41.514v20.757c0,50.121,35.713,92.052,83.027,101.696v209.656
			c0,41.966-34.142,76.108-76.108,76.108h-69.189c-34.77,0-64.147-23.445-73.208-55.351h93.964V0H20.757v415.135h84.898
			C115.491,470.121,163.632,512,221.405,512h69.189c64.857,0,117.622-52.765,117.622-117.622V184.723
			c47.314-9.642,83.027-51.575,83.027-101.696V62.27H449.73z M62.27,373.622V41.513h138.378v332.108H62.27z M387.46,145.297
			c-27.061,0-50.147-17.351-58.714-41.513h117.427C437.606,127.946,414.521,145.297,387.46,145.297z"/>
	</g>
</g>
<g>
	<g>
		<path d="M131.459,276.757c-15.26,0-27.676,12.415-27.676,27.676s12.415,27.676,27.676,27.676s27.676-12.415,27.676-27.676
			S146.72,276.757,131.459,276.757z"/>
	</g>
</g>
<g>
	<g>
		<path d="M131.459,83.027c-15.26,0-27.676,12.415-27.676,27.676s12.415,27.676,27.676,27.676s27.676-12.415,27.676-27.676
			S146.72,83.027,131.459,83.027z"/>
	</g>
</g>
<g>
	<g>
		<path d="M131.459,179.892c-15.26,0-27.676,12.415-27.676,27.676s12.415,27.676,27.676,27.676s27.676-12.415,27.676-27.676
			S146.72,179.892,131.459,179.892z"/>
	</g>
</g>
<g>
</g>
<g>
</g>
<g>
</g>
<g>
</g>
<g>
</g>
<g>
</g>
<g>
</g>
<g>
</g>
<g>
</g>
<g>
</g>
<g>
</g>
<g>
</g>
<g>
</g>
<g>
</g>
<g>
</g>
</svg>
