<?xml version="1.0" encoding="iso-8859-1"?>
<!-- Generator: Adobe Illustrator 19.0.0, SVG Export Plug-In . SVG Version: 6.00 Build 0)  -->
<svg version="1.1" id="Layer_1" xmlns="http://www.w3.org/2000/svg" xmlns:xlink="http://www.w3.org/1999/xlink" x="0px" y="0px"
	 viewBox="0 0 512 512" style="enable-background:new 0 0 512 512;" xml:space="preserve">
<g>
	<g>
		<path d="M397.061,107.193V0h-31.347v103.251L256,233.626L146.286,103.251V0h-31.347v107.193L79.587,261.224h352.827
			L397.061,107.193z M118.944,229.878l19.915-86.768l73.017,86.768H118.944z M300.123,229.878l73.02-86.768l19.914,86.768H300.123z"
			/>
	</g>
</g>
<g>
	<g>
		<path d="M67.918,303.02v31.347h36.571v47.02h31.347v-18.275c41.734,21.253,71.349,61.053,79.203,108.181L221.825,512h68.351
			l6.785-40.706c7.854-47.129,37.468-86.929,79.203-108.181v18.275h31.347v-47.02h36.571V303.02H67.918z M266.039,466.14
			l-2.419,14.513H248.38l-2.419-14.513c-9.608-57.648-46.1-106.258-97.462-131.773h215.002
			C312.138,359.883,275.647,408.492,266.039,466.14z"/>
	</g>
</g>
<g>
</g>
<g>
</g>
<g>
</g>
<g>
</g>
<g>
</g>
<g>
</g>
<g>
</g>
<g>
</g>
<g>
</g>
<g>
</g>
<g>
</g>
<g>
</g>
<g>
</g>
<g>
</g>
<g>
</g>
</svg>
