<?xml version="1.0" encoding="iso-8859-1"?>
<!-- Generator: Adobe Illustrator 19.0.0, SVG Export Plug-In . SVG Version: 6.00 Build 0)  -->
<svg version="1.1" id="Layer_1" xmlns="http://www.w3.org/2000/svg" xmlns:xlink="http://www.w3.org/1999/xlink" x="0px" y="0px"
	 viewBox="0 0 512 512" style="enable-background:new 0 0 512 512;" xml:space="preserve">
<g>
	<g>
		<path d="M449.306,83.592V47.02h-31.347v36.571h-83.592V47.02H303.02v36.571H165.606c-7.281-35.727-38.943-62.694-76.79-62.694H0
			v470.204h31.347v-41.796H303.02v41.796h31.347v-41.796h83.592v41.796h31.347v-41.796h31.347v41.796H512V83.592H449.306z
			 M167.184,114.939h41.796v41.796h-41.796V114.939z M31.347,52.245h57.469c20.435,0,37.866,13.102,44.335,31.347H31.347V52.245z
			 M31.347,114.939h104.49v41.796H31.347V114.939z M31.347,313.469h57.469c20.435,0,37.866,13.102,44.335,31.347H31.347V313.469z
			 M135.837,417.959H31.347v-41.796h104.49V417.959z M208.98,417.959h-41.796v-41.796h41.796V417.959z M303.02,417.959h-62.694
			v-41.796h62.694V417.959z M303.02,344.816H165.606c-7.281-35.727-38.944-62.694-76.79-62.694H31.347v-94.041H303.02V344.816z
			 M303.02,156.735h-62.694v-41.796h62.694V156.735z M417.959,417.959h-83.592v-20.898h83.592V417.959z M417.959,365.714h-83.592
			v-20.898h83.592V365.714z M417.959,313.469h-83.592v-20.898h83.592V313.469z M417.959,261.224h-83.592v-20.898h83.592V261.224z
			 M417.959,208.98h-83.592v-20.898h83.592V208.98z M417.959,156.735h-83.592v-41.796h83.592V156.735z M480.653,417.959h-31.347
			v-41.796h31.347V417.959z M480.653,344.816h-31.347V188.082h31.347V344.816z M480.653,156.735h-31.347v-41.796h31.347V156.735z"/>
	</g>
</g>
<g>
</g>
<g>
</g>
<g>
</g>
<g>
</g>
<g>
</g>
<g>
</g>
<g>
</g>
<g>
</g>
<g>
</g>
<g>
</g>
<g>
</g>
<g>
</g>
<g>
</g>
<g>
</g>
<g>
</g>
</svg>
