<?xml version="1.0" encoding="iso-8859-1"?>
<!-- Generator: Adobe Illustrator 19.0.0, SVG Export Plug-In . SVG Version: 6.00 Build 0)  -->
<svg version="1.1" id="Layer_1" xmlns="http://www.w3.org/2000/svg" xmlns:xlink="http://www.w3.org/1999/xlink" x="0px" y="0px"
	 viewBox="0 0 512 512" style="enable-background:new 0 0 512 512;" xml:space="preserve">
<g>
	<g>
		<path d="M370.939,0c-53.256,0-99.709,29.67-123.712,73.344c-88.294,4.185-163.11,72.224-173.003,162.801
			c-0.404,3.698-0.682,7.39-0.865,11.074C29.676,271.218,0,317.675,0,370.939C0,448.72,63.28,512,141.061,512
			c53.254,0,99.705-29.667,123.709-73.338c88.29-4.187,163.113-72.232,173.007-162.807c0.404-3.699,0.682-7.391,0.865-11.075
			C482.324,240.782,512,194.325,512,141.061C512,63.28,448.72,0,370.939,0z M141.061,480.653
			c-60.496,0-109.714-49.218-109.714-109.714s49.218-109.714,109.714-109.714s109.714,49.218,109.714,109.714
			S201.558,480.653,141.061,480.653z M277.721,405.96c2.871-11.202,4.401-22.937,4.401-35.021
			c0-77.781-63.28-141.061-141.061-141.061c-12.076,0-23.802,1.528-34.996,4.396c9.747-67.463,63.185-118.805,128.214-128.236
			c-2.872,11.203-4.402,22.939-4.402,35.024c0,77.781,63.28,141.061,141.061,141.061c12.076,0,23.802-1.528,34.997-4.396
			C396.189,345.193,342.757,396.532,277.721,405.96z M370.939,250.775c-60.496,0-109.714-49.218-109.714-109.714
			S310.442,31.347,370.939,31.347s109.714,49.218,109.714,109.714S431.435,250.775,370.939,250.775z"/>
	</g>
</g>
<g>
	<g>
		<path d="M163.492,382.114c-0.921,2.456-2.174,4.526-3.76,6.215c-1.587,1.688-3.376,3.07-5.372,4.143
			c-1.995,1.074-4.067,1.842-6.215,2.302c-2.148,0.461-4.246,0.691-6.291,0.691c-3.889,0-7.315-0.741-10.282-2.226
			c-2.969-1.482-5.524-3.504-7.673-6.061h14.272l6.139-15.347h-27.163c-0.103-0.817-0.18-1.712-0.23-2.684
			c-0.052-0.972-0.076-2.277-0.076-3.914h25.628l6.139-15.346h-27.624c1.942-3.376,4.604-6.189,7.98-8.441
			c3.376-2.249,7.57-3.375,12.584-3.375c2.046,0,4.167,0.206,6.369,0.613c2.198,0.411,4.321,1.127,6.369,2.149
			c2.046,1.023,3.913,2.405,5.602,4.143c1.688,1.741,3.043,3.94,4.067,6.599l22.865-16.266c-3.787-7.161-9.541-12.915-17.264-17.264
			c-7.726-4.348-16.857-6.523-27.393-6.523c-7.059,0-13.481,1.024-19.26,3.07c-5.781,2.048-10.922,4.835-15.424,8.364
			c-4.504,3.53-8.313,7.623-11.432,12.276c-3.122,4.657-5.501,9.542-7.137,14.656h-6.752l-6.139,15.346h10.435
			c0,1.331,0.024,2.508,0.077,3.532c0.05,1.023,0.128,2.047,0.23,3.068h-4.604l-6.139,15.347h14.886
			c1.942,4.811,4.552,9.337,7.827,13.582c3.273,4.245,7.059,7.956,11.356,11.125c4.297,3.172,9.078,5.654,14.349,7.443
			c5.268,1.789,10.869,2.685,16.804,2.685c4.604,0,9.335-0.563,14.195-1.688c4.858-1.126,9.411-2.764,13.658-4.913
			c4.244-2.148,8.031-4.808,11.357-7.98c3.323-3.17,5.805-6.752,7.443-10.743L163.492,382.114z"/>
	</g>
</g>
<g>
	<g>
		<path d="M412.604,143.78c-1.535-3.581-3.736-6.624-6.599-9.131c-2.865-2.505-6.318-4.68-10.359-6.521
			c-4.043-1.842-8.57-3.53-13.582-5.065c-1.128-0.307-2.201-0.637-3.222-0.998c-1.024-0.357-1.996-0.637-2.916-0.844v-13.813
			c2.863,0.513,5.702,1.254,8.517,2.226c2.813,0.974,5.345,2.022,7.596,3.146c2.659,1.228,5.115,2.559,7.367,3.99l12.891-24.708
			c-2.148-1.022-4.504-2.122-7.059-3.299c-2.559-1.175-5.294-2.302-8.21-3.376s-5.961-2.02-9.131-2.839
			c-3.172-0.818-6.445-1.432-9.821-1.842V65.054h-12.278v15.499c-4.811,0.513-9.338,1.689-13.582,3.531
			c-4.246,1.841-7.956,4.297-11.126,7.365c-3.172,3.07-5.679,6.728-7.52,10.974c-1.842,4.245-2.763,9.13-2.763,14.655
			c0,3.99,0.537,7.52,1.611,10.59c1.074,3.069,2.736,5.808,4.987,8.21c2.249,2.405,5.115,4.553,8.594,6.445
			c3.477,1.894,7.62,3.659,12.43,5.294c3.17,1.126,6.343,2.098,9.515,2.915v13.505c-3.683-0.511-7.29-1.405-10.819-2.685
			c-3.53-1.278-6.626-2.583-9.285-3.913c-3.172-1.535-6.139-3.17-8.901-4.911l-12.891,26.243c5.525,3.276,11.765,5.985,18.722,8.133
			c6.957,2.148,13.965,3.53,21.025,4.143v18.876h12.278v-18.569c4.704-0.307,9.258-1.151,13.658-2.532
			c4.397-1.381,8.311-3.426,11.739-6.139c3.426-2.71,6.189-6.189,8.287-10.435c2.095-4.244,3.146-9.384,3.146-15.424
			C414.907,151.709,414.139,147.362,412.604,143.78z M367.946,118.611c-2.047-0.817-3.582-1.712-4.604-2.685
			c-1.024-0.971-1.535-2.225-1.535-3.76c0-2.966,2.046-4.705,6.139-5.218V118.611z M381.144,162.963
			c-1.023,0.819-2.762,1.329-5.217,1.534v-11.356c2.045,0.82,3.682,1.764,4.911,2.839c1.228,1.074,1.841,2.329,1.841,3.761
			C382.679,161.071,382.166,162.146,381.144,162.963z"/>
	</g>
</g>
<g>
</g>
<g>
</g>
<g>
</g>
<g>
</g>
<g>
</g>
<g>
</g>
<g>
</g>
<g>
</g>
<g>
</g>
<g>
</g>
<g>
</g>
<g>
</g>
<g>
</g>
<g>
</g>
<g>
</g>
</svg>
