<?xml version="1.0" encoding="iso-8859-1"?>
<!-- Generator: Adobe Illustrator 19.0.0, SVG Export Plug-In . SVG Version: 6.00 Build 0)  -->
<svg xmlns="http://www.w3.org/2000/svg" xmlns:xlink="http://www.w3.org/1999/xlink" version="1.1" id="Layer_1" x="0px" y="0px" viewBox="0 0 512 512" style="enable-background:new 0 0 512 512;" xml:space="preserve">
<g>
	<g>
		<path d="M512,142.222c0-69.011-56.145-125.156-125.156-125.156c-46.044,0-86.354,24.997-108.089,62.128    c-21.735-37.131-62.045-62.128-108.089-62.128c-69.011,0-125.156,56.145-125.156,125.156c0,35.83,15.138,68.186,39.349,91.022    H68.267v61.654L0,272.143v168.981l68.267-11.378v65.188h420.978V233.244h-16.593C496.862,210.408,512,178.052,512,142.222z     M386.844,51.2c50.19,0,91.022,40.833,91.022,91.022s-40.833,91.022-91.022,91.022c-50.19,0-91.022-40.833-91.022-91.022    S336.655,51.2,386.844,51.2z M301.038,233.244h-44.565c8.692-8.198,16.211-17.623,22.282-27.995    C284.827,215.621,292.346,225.047,301.038,233.244z M79.644,142.222c0-50.19,40.833-91.022,91.022-91.022    c50.19,0,91.022,40.833,91.022,91.022s-40.833,91.022-91.022,91.022C120.477,233.244,79.644,192.412,79.644,142.222z     M455.111,460.8H102.4v-71.347l-68.267,11.378v-81.331l68.267,22.756v-74.878h352.711V460.8z"/>
	</g>
</g>
<g>
</g>
<g>
</g>
<g>
</g>
<g>
</g>
<g>
</g>
<g>
</g>
<g>
</g>
<g>
</g>
<g>
</g>
<g>
</g>
<g>
</g>
<g>
</g>
<g>
</g>
<g>
</g>
<g>
</g>
</svg>
