<?xml version="1.0" encoding="iso-8859-1"?>
<!-- Generator: Adobe Illustrator 19.0.0, SVG Export Plug-In . SVG Version: 6.00 Build 0)  -->
<svg xmlns="http://www.w3.org/2000/svg" xmlns:xlink="http://www.w3.org/1999/xlink" version="1.1" id="Layer_1" x="0px" y="0px" viewBox="0 0 512.001 512.001" style="enable-background:new 0 0 512.001 512.001;" xml:space="preserve">
<g>
	<g>
		<path d="M489.08,0.516L211.978,277.619l-32.832-32.832l-21.888,21.888l10.944,10.944L0,445.82l65.665,65.665l168.201-168.202    l10.944,10.944l21.888-21.888l-32.832-32.832l1.101-1.101c12.886,8.523,27.781,12.786,42.675,12.786    c19.817,0,39.634-7.544,54.721-22.63c17.868-17.869,25.156-42.371,21.86-65.653c3.604,0.509,7.268,0.767,10.972,0.767    c20.67,0,40.105-8.049,54.72-22.666c14.617-14.616,22.666-34.05,22.666-54.72c0-3.704-0.258-7.368-0.767-10.972    c13.16,1.861,26.71,0.341,39.232-4.56v327.884c0,8.534-6.943,15.477-15.477,15.477s-15.477-6.943-15.477-15.477v-15.477    l10.943-10.943l-41.898-41.899v68.32c0,25.602,20.829,46.432,46.432,46.432s46.432-20.829,46.432-46.432V0.516H489.08z     M65.665,467.708L43.777,445.82L190.09,299.507l21.888,21.888L65.665,467.708z M310.474,266.675    c-14.267,14.268-35.582,17.282-52.838,9.061l61.9-61.899C327.756,231.092,324.741,252.408,310.474,266.675z M398.026,179.122    c-8.769,8.77-20.429,13.599-32.831,13.599c-7.046,0-13.852-1.563-20.025-4.518l61.939-61.939    c2.955,6.173,4.518,12.978,4.518,20.025C411.626,158.692,406.796,170.353,398.026,179.122z M481.046,95.534    c-14.005,10.787-32.791,12.488-48.304,5.097l48.304-48.304V95.534z"/>
	</g>
</g>
<g>
</g>
<g>
</g>
<g>
</g>
<g>
</g>
<g>
</g>
<g>
</g>
<g>
</g>
<g>
</g>
<g>
</g>
<g>
</g>
<g>
</g>
<g>
</g>
<g>
</g>
<g>
</g>
<g>
</g>
</svg>
