<?xml version="1.0" encoding="iso-8859-1"?>
<!-- Generator: Adobe Illustrator 19.0.0, SVG Export Plug-In . SVG Version: 6.00 Build 0)  -->
<svg version="1.1" id="Layer_1" xmlns="http://www.w3.org/2000/svg" xmlns:xlink="http://www.w3.org/1999/xlink" x="0px" y="0px"
	 viewBox="0 0 512 512" style="enable-background:new 0 0 512 512;" xml:space="preserve">
<g>
	<g>
		<path d="M120.163,15.673C53.905,15.673,0,69.579,0,135.837v250.775c0,60.496,49.218,109.714,109.714,109.714
			s109.714-49.218,109.714-109.714V273.869l20.898-73.143v-64.889C240.327,69.579,186.421,15.673,120.163,15.673z M188.082,386.612
			c0,43.212-35.156,78.367-78.367,78.367s-78.367-35.156-78.367-78.367v-78.963l96.589-149.274l60.145,137.475V386.612z
			 M208.98,196.335l-11.939,41.786l-49.32-112.733h-35.776L31.347,249.947v-114.11c0-48.973,39.843-88.816,88.816-88.816
			s88.816,39.843,88.816,88.816V196.335z"/>
	</g>
</g>
<g>
	<g>
		<path d="M125.388,323.918v62.694c0,8.642-7.031,15.673-15.673,15.673s-15.673-7.031-15.673-15.673v-62.694H62.694v62.694
			c0,25.927,21.093,47.02,47.02,47.02s47.02-21.093,47.02-47.02v-62.694H125.388z"/>
	</g>
</g>
<g>
	<g>
		<path d="M417.959,323.918v62.694c0,8.642-7.031,15.673-15.673,15.673s-15.673-7.031-15.673-15.673v-62.694h-31.347v62.694
			c0,25.927,21.093,47.02,47.02,47.02s47.02-21.093,47.02-47.02v-62.694H417.959z"/>
	</g>
</g>
<g>
	<g>
		<path d="M391.837,15.673c-66.258,0-120.163,53.905-120.163,120.163v64.889l20.898,73.143v112.743
			c0,60.496,49.218,109.714,109.714,109.714S512,447.109,512,386.612V135.837C512,69.579,458.095,15.673,391.837,15.673z
			 M480.653,386.612c0,43.212-35.156,78.367-78.367,78.367c-43.212,0-78.367-35.156-78.367-78.367V295.85l60.145-137.475
			l96.589,149.274V386.612z M480.653,249.947l-80.597-124.559H364.28l-49.321,112.734l-11.938-41.787v-60.499
			c0-48.973,39.843-88.816,88.816-88.816s88.816,39.843,88.816,88.816V249.947z"/>
	</g>
</g>
<g>
</g>
<g>
</g>
<g>
</g>
<g>
</g>
<g>
</g>
<g>
</g>
<g>
</g>
<g>
</g>
<g>
</g>
<g>
</g>
<g>
</g>
<g>
</g>
<g>
</g>
<g>
</g>
<g>
</g>
</svg>
