<?xml version="1.0" encoding="iso-8859-1"?>
<!-- Generator: Adobe Illustrator 19.0.0, SVG Export Plug-In . SVG Version: 6.00 Build 0)  -->
<svg xmlns="http://www.w3.org/2000/svg" xmlns:xlink="http://www.w3.org/1999/xlink" version="1.1" id="Layer_1" x="0px" y="0px" viewBox="0 0 512 512" style="enable-background:new 0 0 512 512;" xml:space="preserve">
<g>
	<g>
		<path d="M167.184,0c-12.032,0-23.022,4.542-31.347,12.002C127.512,4.542,116.522,0,104.49,0C91.929,0,80.121,4.891,71.241,13.773    l22.168,22.163c2.959-2.959,6.894-4.589,11.081-4.589c8.642,0,15.673,7.031,15.673,15.674h31.347    c0-8.642,7.031-15.674,15.673-15.674c4.187,0,8.122,1.63,11.081,4.59l22.167-22.163C191.553,4.891,179.744,0,167.184,0z"/>
	</g>
</g>
<g>
	<g>
		<path d="M407.51,83.592c-12.032,0-23.022,4.542-31.347,12.002c-8.325-7.46-19.315-12.002-31.347-12.002    c-12.561,0-24.369,4.891-33.249,13.773l22.167,22.163c2.959-2.959,6.894-4.589,11.081-4.589c8.642,0,15.673,7.031,15.673,15.673    h31.347c0-8.642,7.031-15.673,15.673-15.673c4.187,0,8.122,1.63,11.081,4.59l22.167-22.163    C431.879,88.483,420.071,83.592,407.51,83.592z"/>
	</g>
</g>
<g>
	<g>
		<path d="M451.918,436.245h-31.347c0,24.487-19.921,44.408-44.408,44.408s-44.408-19.921-44.408-44.408h-31.347    c0,24.487-19.921,44.408-44.408,44.408s-44.408-19.921-44.408-44.408h-31.347c0,24.487-19.921,44.408-44.408,44.408    s-44.408-19.921-44.408-44.408H60.082c0,24.487-19.921,44.408-44.408,44.408V512c24.445,0,46.22-11.636,60.082-29.663    C89.617,500.364,111.391,512,135.837,512s46.22-11.636,60.082-29.663C209.78,500.364,231.555,512,256,512    c24.445,0,46.22-11.636,60.082-29.663C329.943,500.364,351.718,512,376.163,512s46.22-11.636,60.082-29.663    C450.107,500.364,471.881,512,496.327,512v-31.347C471.839,480.653,451.918,460.732,451.918,436.245z"/>
	</g>
</g>
<g>
	<g>
		<path d="M451.918,323.918h-31.347c0,24.487-19.921,44.408-44.408,44.408s-44.408-19.921-44.408-44.408h-31.347    c0,24.487-19.921,44.408-44.408,44.408s-44.408-19.921-44.408-44.408h-31.347c0,24.487-19.921,44.408-44.408,44.408    s-44.408-19.921-44.408-44.408H60.082c0,24.487-19.921,44.408-44.408,44.408v31.347c24.445,0,46.22-11.636,60.082-29.663    c13.862,18.027,35.636,29.663,60.082,29.663s46.22-11.636,60.082-29.663c13.862,18.027,35.636,29.663,60.082,29.663    c24.445,0,46.22-11.636,60.082-29.663c13.862,18.027,35.636,29.663,60.082,29.663s46.22-11.636,60.082-29.663    c13.862,18.027,35.636,29.663,60.082,29.663v-31.347C471.839,368.327,451.918,348.406,451.918,323.918z"/>
	</g>
</g>
<g>
	<g>
		<path d="M451.918,211.592h-31.347c0,24.487-19.921,44.408-44.408,44.408s-44.408-19.921-44.408-44.408h-31.347    C300.408,236.079,280.487,256,256,256s-44.408-19.921-44.408-44.408h-31.347c0,24.487-19.921,44.408-44.408,44.408    s-44.408-19.921-44.408-44.408H60.082c0,24.487-19.921,44.408-44.408,44.408v31.347c24.445,0,46.22-11.636,60.082-29.663    c13.862,18.027,35.636,29.663,60.082,29.663s46.22-11.636,60.082-29.663c13.862,18.027,35.636,29.663,60.082,29.663    c24.445,0,46.22-11.636,60.082-29.663c13.862,18.027,35.636,29.663,60.082,29.663s46.22-11.636,60.082-29.663    c13.862,18.027,35.636,29.663,60.082,29.663V256C471.839,256,451.918,236.079,451.918,211.592z"/>
	</g>
</g>
<g>
</g>
<g>
</g>
<g>
</g>
<g>
</g>
<g>
</g>
<g>
</g>
<g>
</g>
<g>
</g>
<g>
</g>
<g>
</g>
<g>
</g>
<g>
</g>
<g>
</g>
<g>
</g>
<g>
</g>
</svg>
