<?xml version="1.0" encoding="iso-8859-1"?>
<!-- Generator: Adobe Illustrator 19.0.0, SVG Export Plug-In . SVG Version: 6.00 Build 0)  -->
<svg xmlns="http://www.w3.org/2000/svg" xmlns:xlink="http://www.w3.org/1999/xlink" version="1.1" id="Layer_1" x="0px" y="0px" viewBox="0 0 512 512" style="enable-background:new 0 0 512 512;" xml:space="preserve">
<g>
	<g>
		<path d="M256,227.556c-47.053,0-85.333,38.281-85.333,85.333c0,47.053,38.281,85.333,85.333,85.333s85.333-38.281,85.333-85.333    C341.333,265.836,303.053,227.556,256,227.556z M256,364.089c-28.232,0-51.2-22.968-51.2-51.2c0-28.232,22.968-51.2,51.2-51.2    s51.2,22.968,51.2,51.2C307.2,341.121,284.232,364.089,256,364.089z"/>
	</g>
</g>
<g>
	<g>
		<path d="M401.333,86.495c-7.934-33.335-37.905-57.533-72.929-57.533c-4.194,0-8.348,0.345-12.44,1.031    C301.946,11.429,279.671,0,256,0s-45.946,11.429-59.964,29.993c-4.091-0.686-8.247-1.031-12.44-1.031    c-35.024,0-64.996,24.198-72.929,57.533c-20.593,13.955-31.021,32.669-31.021,55.727v0.7L109.95,512h292.101l30.305-369.078v-0.7    C432.356,119.164,421.927,100.45,401.333,86.495z M134.525,111.836l7.498-4.254l1.026-8.561    c2.454-20.481,19.886-35.927,40.547-35.927c4.919,0,9.733,0.868,14.31,2.581l14.539,5.439l6.789-13.959    c6.905-14.199,20.993-23.021,36.766-23.021s29.861,8.821,36.767,23.021l6.789,13.959l14.538-5.439    c4.576-1.712,9.39-2.58,14.31-2.58c20.661,0,38.092,15.445,40.547,35.926l1.026,8.561l7.498,4.254    c7.234,4.104,12.397,8.417,15.768,13.32H118.757C122.127,120.253,127.291,115.94,134.525,111.836z M370.605,477.867h-229.21    l-26.159-318.578h281.527L370.605,477.867z"/>
	</g>
</g>
<g>
</g>
<g>
</g>
<g>
</g>
<g>
</g>
<g>
</g>
<g>
</g>
<g>
</g>
<g>
</g>
<g>
</g>
<g>
</g>
<g>
</g>
<g>
</g>
<g>
</g>
<g>
</g>
<g>
</g>
</svg>
