<svg id="Capa_1" enable-background="new 0 0 512 512" height="512" viewBox="0 0 512 512" width="512" xmlns="http://www.w3.org/2000/svg"><g><path d="m336.729 181-20.729 41.459-20.729-41.459h-39.271v150h30v-101.459l30 60 30-60v101.459h30v-150z"/><path d="m166 181h-30v30h30v120h30v-120h30v-30h-30z"/><path d="m256 0c-140.96 0-256 115.049-256 256 0 140.96 115.049 256 256 256 140.96 0 256-115.049 256-256 0-140.96-115.049-256-256-256zm0 482c-124.617 0-226-101.383-226-226s101.383-226 226-226 226 101.383 226 226-101.383 226-226 226z"/><path d="m256 61c-107.523 0-195 87.477-195 195s87.477 195 195 195 195-87.477 195-195-87.477-195-195-195zm0 360c-90.981 0-165-74.019-165-165s74.019-165 165-165 165 74.019 165 165-74.019 165-165 165z"/></g></svg>