<?xml version="1.0" encoding="iso-8859-1"?>
<!-- Generator: Adobe Illustrator 19.0.0, SVG Export Plug-In . SVG Version: 6.00 Build 0)  -->
<svg xmlns="http://www.w3.org/2000/svg" xmlns:xlink="http://www.w3.org/1999/xlink" version="1.1" id="Layer_1" x="0px" y="0px" viewBox="0 0 512.001 512.001" style="enable-background:new 0 0 512.001 512.001;" xml:space="preserve">
<g>
	<g>
		<path d="M406.719,321.757h105.282l-26.975-60.692h26.93L401.875,12.228h-20.657L271.135,261.065h26.931l-26.975,60.692h105.282    v40.461H135.629v-40.461h105.282l-26.974-60.692h26.931L130.786,12.228h-20.657L0.047,261.065h26.931L0,321.757h105.282v40.461    H23.348v30.346h162.001l-48.986,93.075l26.854,14.133l56.425-107.208h72.717l56.425,107.208l26.854-14.133l-48.986-93.075h162.001    v-30.346h-81.934V321.757z M46.695,291.411l26.974-60.692H46.652l73.803-166.83l73.803,166.83h-27.018l26.974,60.692H46.695z     M317.786,291.411l26.974-60.692h-27.018l73.803-166.83l73.803,166.83h-27.018l26.974,60.692H317.786z"/>
	</g>
</g>
<g>
</g>
<g>
</g>
<g>
</g>
<g>
</g>
<g>
</g>
<g>
</g>
<g>
</g>
<g>
</g>
<g>
</g>
<g>
</g>
<g>
</g>
<g>
</g>
<g>
</g>
<g>
</g>
<g>
</g>
</svg>
