<?xml version="1.0" encoding="iso-8859-1"?>
<!-- Generator: Adobe Illustrator 19.0.0, SVG Export Plug-In . SVG Version: 6.00 Build 0)  -->
<svg version="1.1" id="Layer_1" xmlns="http://www.w3.org/2000/svg" xmlns:xlink="http://www.w3.org/1999/xlink" x="0px" y="0px"
	 viewBox="0 0 512 512" style="enable-background:new 0 0 512 512;" xml:space="preserve">
<g>
	<g>
		<path d="M312.626,123.265l-123.283,203.22l-50.353-71.253L0,451.912h512L312.626,123.265z M87.108,420.505H60.653l41.695-59.001
			L87.108,420.505z M119.547,420.505l26.173-101.327l71.606,101.327H119.547z M209.109,354.456l67.584-111.406l-34.945,157.594
			L209.109,354.456z M319.488,195.133l136.723,225.372H269.515L319.488,195.133z"/>
	</g>
</g>
<g>
	<g>
		<path d="M143.381,60.088c-44.526,0-80.752,36.225-80.752,80.752s36.225,80.752,80.752,80.752s80.752-36.225,80.752-80.752
			S187.907,60.088,143.381,60.088z M143.381,190.184c-27.208,0-49.344-22.136-49.344-49.344c0-27.208,22.136-49.344,49.344-49.344
			c27.208,0,49.344,22.136,49.344,49.344C192.725,168.048,170.589,190.184,143.381,190.184z"/>
	</g>
</g>
<g>
</g>
<g>
</g>
<g>
</g>
<g>
</g>
<g>
</g>
<g>
</g>
<g>
</g>
<g>
</g>
<g>
</g>
<g>
</g>
<g>
</g>
<g>
</g>
<g>
</g>
<g>
</g>
<g>
</g>
</svg>
