<?xml version="1.0" encoding="iso-8859-1"?>
<!-- Generator: Adobe Illustrator 19.0.0, SVG Export Plug-In . SVG Version: 6.00 Build 0)  -->
<svg version="1.1" id="Layer_1" xmlns="http://www.w3.org/2000/svg" xmlns:xlink="http://www.w3.org/1999/xlink" x="0px" y="0px"
	 viewBox="0 0 512 512" style="enable-background:new 0 0 512 512;" xml:space="preserve">
<g>
	<g>
		<g>
			<path d="M256,178.605c29.546,0,53.581-24.035,53.581-53.581S285.546,71.442,256,71.442s-53.581,24.037-53.581,53.581
				S226.454,178.605,256,178.605z M256,107.163c9.848,0,17.86,8.012,17.86,17.86s-8.012,17.86-17.86,17.86s-17.86-8.012-17.86-17.86
				S246.152,107.163,256,107.163z"/>
			<path d="M341.452,216.196c24.339-22.826,39.572-55.251,39.572-91.173C381.023,56.085,324.938,0,256,0
				S130.977,56.085,130.977,125.023c0,35.922,15.234,68.347,39.572,91.173c-22.77,6.175-39.572,27.012-39.572,51.711V512h250.047
				V267.907C381.023,243.208,364.221,222.371,341.452,216.196z M166.698,125.023c0-49.241,40.061-89.302,89.302-89.302
				s89.302,40.061,89.302,89.302S305.241,214.326,256,214.326S166.698,174.265,166.698,125.023z M345.302,476.279H166.698V267.907
				c0-9.848,8.012-17.86,17.86-17.86h142.884c9.849,0,17.86,8.012,17.86,17.86V476.279z"/>
			<rect x="202.419" y="285.767" width="107.163" height="35.721"/>
			<path d="M256,381.023c-13.131,0-23.814,10.683-23.814,23.814s10.683,23.814,23.814,23.814s23.814-10.683,23.814-23.814
				S269.131,381.023,256,381.023z"/>
		</g>
	</g>
</g>
<g>
</g>
<g>
</g>
<g>
</g>
<g>
</g>
<g>
</g>
<g>
</g>
<g>
</g>
<g>
</g>
<g>
</g>
<g>
</g>
<g>
</g>
<g>
</g>
<g>
</g>
<g>
</g>
<g>
</g>
</svg>
