<?xml version="1.0" encoding="iso-8859-1"?>
<!-- Generator: Adobe Illustrator 19.0.0, SVG Export Plug-In . SVG Version: 6.00 Build 0)  -->
<svg version="1.1" id="Layer_1" xmlns="http://www.w3.org/2000/svg" xmlns:xlink="http://www.w3.org/1999/xlink" x="0px" y="0px"
	 viewBox="0 0 512 512" style="enable-background:new 0 0 512 512;" xml:space="preserve">
<g>
	<g>
		<path d="M444.225,254.508v-0.001L211.969,22.249L45.628,188.591l65.915,65.917H0v131.459c0,57.226,46.557,103.784,103.784,103.784
			h304.432c57.226,0,103.784-46.557,103.784-103.784V254.508H444.225z M104.335,188.591L211.968,80.958l173.549,173.55H170.251
			L104.335,188.591z M388.298,296.02l-56.05,56.05c-1.781-1.218-3.591-2.491-5.473-3.819c-15.5-10.94-34.79-24.555-70.782-24.555
			c-5.597,0-10.788,0.331-15.627,0.927l-28.603-28.603H388.298z M41.514,296.021h111.543v-0.001l44.132,44.133
			c-4.326,2.704-8.263,5.478-11.975,8.101c-13.946,9.843-24.022,16.957-46.84,16.957s-32.893-7.114-46.838-16.957
			c-12.212-8.621-26.785-18.898-50.021-22.871V296.021z M470.487,385.964c0,34.339-27.933,62.272-62.27,62.272H103.784
			c-34.336,0-62.27-27.933-62.27-62.27v-18.1c9.954,2.93,17.245,8.063,26.082,14.299c15.498,10.94,34.787,24.557,70.778,24.557
			s55.281-13.615,70.779-24.555c13.946-9.844,24.022-16.958,46.841-16.958s32.894,7.114,46.842,16.958
			c15.5,10.94,34.788,24.555,70.782,24.555s55.284-13.616,70.783-24.555c8.837-6.238,16.131-11.371,26.086-14.301V385.964z
			 M470.487,325.382c-23.238,3.973-37.812,14.249-50.025,22.87c-13.039,9.204-22.701,16.017-42.551,16.867l69.096-69.098h23.48
			V325.382z"/>
	</g>
</g>
<g>
</g>
<g>
</g>
<g>
</g>
<g>
</g>
<g>
</g>
<g>
</g>
<g>
</g>
<g>
</g>
<g>
</g>
<g>
</g>
<g>
</g>
<g>
</g>
<g>
</g>
<g>
</g>
<g>
</g>
</svg>
