<?xml version="1.0" encoding="iso-8859-1"?>
<!-- Generator: Adobe Illustrator 19.0.0, SVG Export Plug-In . SVG Version: 6.00 Build 0)  -->
<svg version="1.1" id="Layer_1" xmlns="http://www.w3.org/2000/svg" xmlns:xlink="http://www.w3.org/1999/xlink" x="0px" y="0px"
	 viewBox="0 0 512 512" style="enable-background:new 0 0 512 512;" xml:space="preserve">
<g>
	<g>
		<rect x="212.108" y="227.37" transform="matrix(0.14 -0.9902 0.9902 0.14 -35.775 444.8788)" width="52.212" height="31.327"/>
	</g>
</g>
<g>
	<g>
		<rect x="263.797" y="234.673" transform="matrix(0.14 -0.9902 0.9902 0.14 1.447 502.3393)" width="52.212" height="31.327"/>
	</g>
</g>
<g>
	<g>
		<rect x="196.009" y="341.079" transform="matrix(0.14 -0.9902 0.9902 0.14 -162.2084 526.7287)" width="52.212" height="31.327"/>
	</g>
</g>
<g>
	<g>
		<rect x="247.702" y="348.376" transform="matrix(0.14 -0.9902 0.9902 0.14 -124.9782 584.1877)" width="52.212" height="31.327"/>
	</g>
</g>
<g>
	<g>
		<rect x="228.144" y="113.645" transform="matrix(0.14 -0.9902 0.9902 0.14 90.6214 362.9528)" width="52.212" height="31.327"/>
	</g>
</g>
<g>
	<g>
		<rect x="279.83" y="120.949" transform="matrix(0.14 -0.9902 0.9902 0.14 127.8393 420.4108)" width="52.212" height="31.327"/>
	</g>
</g>
<g>
	<g>
		<path d="M320.6,480.675l5.014-35.467l15.508,2.193l4.385-31.017l-15.509-2.193l11.692-82.712l15.508,2.193l4.385-31.017
			l-15.508-2.193l11.691-82.713l15.508,2.193l4.385-31.017l-15.508-2.193l16.076-113.728l-23.837-3.37l7.315-51.741L235.122,0
			l-7.313,51.741l-25.345-3.584l-16.076,113.729l-15.508-2.193l-4.385,31.017l15.508,2.193l-11.692,82.712l-15.508-2.193
			l-4.385,31.017l15.509,2.193l-11.692,82.713l-15.508-2.193l-4.385,31.017l15.508,2.193l-8.525,60.311H83.71V512h344.58v-31.325
			H320.6z M261.754,35.403l64.547,9.123l-2.93,20.724l-64.547-9.124L261.754,35.403z M229.095,83.561l113.729,16.076l-11.692,82.711
			l-113.729-16.076L229.095,83.561z M288.963,480.673H172.962l7.905-55.926l113.729,16.076L288.963,480.673z M298.981,409.807
			L185.251,393.73l11.692-82.712l113.729,16.076L298.981,409.807z M201.328,280.001l11.692-82.713l113.729,16.076l-11.692,82.712
			L201.328,280.001z"/>
	</g>
</g>
<g>
</g>
<g>
</g>
<g>
</g>
<g>
</g>
<g>
</g>
<g>
</g>
<g>
</g>
<g>
</g>
<g>
</g>
<g>
</g>
<g>
</g>
<g>
</g>
<g>
</g>
<g>
</g>
<g>
</g>
</svg>
