<?xml version="1.0" encoding="iso-8859-1"?>
<!-- Generator: Adobe Illustrator 19.0.0, SVG Export Plug-In . SVG Version: 6.00 Build 0)  -->
<svg xmlns="http://www.w3.org/2000/svg" xmlns:xlink="http://www.w3.org/1999/xlink" version="1.1" id="Layer_1" x="0px" y="0px" viewBox="0 0 512 512" style="enable-background:new 0 0 512 512;" xml:space="preserve">
<g>
	<g>
		<polygon points="281,295.822 349.267,398.222 432.356,398.222 432.356,295.822   "/>
	</g>
</g>
<g>
	<g>
		<polygon points="79.644,295.822 79.644,398.222 162.733,398.222 231,295.822   "/>
	</g>
</g>
<g>
	<g>
		<path d="M474.964,34.133H364.089c-31.369,0-56.889,25.52-56.889,56.889s25.52,56.889,56.889,56.889h13.169l7.586,68.267H127.157    l7.586-68.267h13.169c31.369,0,56.889-25.52,56.889-56.889s-25.52-56.889-56.889-56.889H37.036L0,231.658v246.208h195.583    L256,407.38l60.417,70.487H512V231.658L474.964,34.133z M364.089,113.778c-12.547,0-22.756-10.208-22.756-22.756    s10.208-22.756,22.756-22.756h82.547l27.733,147.911h-55.182l-11.378-102.4H364.089z M65.364,68.267h82.547    c12.547,0,22.756,10.208,22.756,22.756s-10.208,22.756-22.756,22.756h-43.72l-11.378,102.4H37.631L65.364,68.267z     M477.867,443.733h-145.75L256,354.931l-76.116,88.802H34.133V250.311h443.733V443.733z"/>
	</g>
</g>
<g>
</g>
<g>
</g>
<g>
</g>
<g>
</g>
<g>
</g>
<g>
</g>
<g>
</g>
<g>
</g>
<g>
</g>
<g>
</g>
<g>
</g>
<g>
</g>
<g>
</g>
<g>
</g>
<g>
</g>
</svg>
