<?xml version="1.0" encoding="iso-8859-1"?>
<!-- Generator: Adobe Illustrator 19.0.0, SVG Export Plug-In . SVG Version: 6.00 Build 0)  -->
<svg xmlns="http://www.w3.org/2000/svg" xmlns:xlink="http://www.w3.org/1999/xlink" version="1.1" id="Layer_1" x="0px" y="0px" viewBox="0 0 512 512" style="enable-background:new 0 0 512 512;" xml:space="preserve">
<g>
	<g>
		<path d="M437.019,74.981C388.668,26.629,324.38,0,256,0S123.332,26.629,74.981,74.981C26.628,123.332,0,187.62,0,256v47.02h104.49    v83.592C104.49,455.751,160.739,512,229.878,512s125.388-56.249,125.388-125.388v-25.71l70.76-26.535H512V256    C512,187.62,485.372,123.332,437.019,74.981z M323.918,386.612c0,51.854-42.187,94.041-94.041,94.041    s-94.041-42.187-94.041-94.041V303.02h114.939l73.143,54.857V386.612z M342.128,332.351l-62.266-46.7l29.017-29.017    c7.361-7.361,16.724-10.998,26.382-10.241c10.916,0.857,21.048,6.995,28.532,17.284l34.6,47.575L342.128,332.351z M480.653,303.02    h-49.488l-42.023-57.781c-12.775-17.565-31.52-28.535-51.431-30.097c-18.937-1.485-37.05,5.378-50.998,19.326l-37.205,37.205    H31.347V256C31.347,132.125,132.126,31.347,256,31.347S480.653,132.125,480.653,256V303.02z"/>
	</g>
</g>
<g>
	<g>
		<rect x="146.286" y="208.98" width="31.347" height="31.347"/>
	</g>
</g>
<g>
	<g>
		<rect x="94.041" y="156.735" width="31.347" height="31.347"/>
	</g>
</g>
<g>
</g>
<g>
</g>
<g>
</g>
<g>
</g>
<g>
</g>
<g>
</g>
<g>
</g>
<g>
</g>
<g>
</g>
<g>
</g>
<g>
</g>
<g>
</g>
<g>
</g>
<g>
</g>
<g>
</g>
</svg>
