<?xml version="1.0" encoding="iso-8859-1"?>
<!-- Generator: Adobe Illustrator 19.0.0, SVG Export Plug-In . SVG Version: 6.00 Build 0)  -->
<svg xmlns="http://www.w3.org/2000/svg" xmlns:xlink="http://www.w3.org/1999/xlink" version="1.1" id="Layer_1" x="0px" y="0px" viewBox="0 0 512.001 512.001" style="enable-background:new 0 0 512.001 512.001;" xml:space="preserve">
<g>
	<g>
		<path d="M461.569,50.433c-67.244-67.243-176.656-67.243-243.9,0c-9.52,9.52-17.876,20.092-24.898,31.475l-7.723-7.723    l-22.172,22.172l252.769,252.768l22.172-22.172l-7.722-7.722c11.39-7.028,21.958-15.382,31.475-24.898    C528.811,227.089,528.811,117.676,461.569,50.433z M307.665,196.8l18.249-32.094c0.692-1.218,1.574-2.366,2.619-3.412    c2.952-2.952,6.889-4.577,11.086-4.577c4.197,0,8.134,1.625,11.086,4.577c2.952,2.952,4.577,6.889,4.577,11.087    c0,4.198-1.625,8.134-4.579,11.089c-1.043,1.043-2.183,1.92-3.392,2.607l-32.11,18.259L307.665,196.8z M361.191,250.328    l-22.995-22.996l24.612-13.996c3.652-2.076,7.041-4.666,10.07-7.696c8.874-8.874,13.761-20.686,13.761-33.259    s-4.887-24.385-13.761-33.259c-8.873-8.874-20.685-13.761-33.258-13.761c-12.572,0-24.384,4.887-33.259,13.763    c-3.033,3.034-5.626,6.429-7.705,10.088l-13.985,24.595l-22.996-22.996l9.725-17.101c3.466-6.1,7.77-11.738,12.789-16.757    c14.779-14.779,34.464-22.917,55.432-22.917c20.968,0,40.654,8.138,55.432,22.917c30.565,30.565,30.565,80.298,0,110.863    c-5.021,5.02-10.656,9.321-16.753,12.787L361.191,250.328z M409.276,295.13l-2.09,1.192l-22.998-22.998l9.608-5.463    c8.537-4.852,16.419-10.865,23.428-17.873c42.791-42.792,42.791-112.417,0-155.209c-20.701-20.7-48.26-32.1-77.604-32.1    c-29.342,0-56.905,11.401-77.604,32.1c-7.007,7.007-13.023,14.891-17.878,23.433l-5.46,9.604l-22.997-22.997l1.202-2.108    c6.244-10.983,13.968-21.112,22.961-30.104c55.019-55.017,144.536-55.018,199.555,0c55.017,55.017,55.017,144.536,0,199.554    C430.404,281.151,420.276,288.877,409.276,295.13z"/>
	</g>
</g>
<g>
	<g>
		
			<rect x="240.318" y="77.278" transform="matrix(0.7071 -0.7071 0.7071 0.7071 -106.0474 256.0002)" width="31.357" height="357.465"/>
	</g>
</g>
<g>
	<g>
		<path d="M96.357,162.875l-22.172,22.172l7.722,7.722c-11.39,7.028-21.958,15.382-31.475,24.898    c-67.243,67.243-67.243,176.656,0,243.899c33.626,33.626,77.781,50.436,121.95,50.432c44.159-0.004,88.332-16.815,121.95-50.432    c9.52-9.519,17.875-20.091,24.898-31.475l7.723,7.723l22.172-22.172L96.357,162.875z M204.337,315.201l-18.249,32.094    c-0.692,1.218-1.574,2.366-2.619,3.412c-2.952,2.952-6.889,4.577-11.086,4.577s-8.134-1.625-11.086-4.577    c-2.952-2.952-4.577-6.889-4.577-11.086s1.625-8.134,4.579-11.089c1.043-1.043,2.183-1.92,3.392-2.607l32.11-18.26    L204.337,315.201z M150.809,261.671l22.995,22.996l-24.611,13.998c-3.652,2.076-7.041,4.666-10.07,7.696    c-8.874,8.874-13.761,20.686-13.761,33.259c0,12.573,4.888,24.385,13.761,33.259c8.873,8.874,20.685,13.761,33.258,13.761    c12.572,0,24.384-4.888,33.259-13.763c3.033-3.034,5.626-6.429,7.705-10.088l13.985-24.595l22.996,22.996l-9.725,17.101    c-3.466,6.1-7.77,11.738-12.789,16.757c-14.779,14.779-34.464,22.917-55.432,22.917c-20.968,0-40.654-8.138-55.432-22.917    c-14.779-14.777-22.917-34.463-22.917-55.432c0-20.968,8.138-40.654,22.917-55.432c5.02-5.02,10.655-9.322,16.753-12.787    L150.809,261.671z M295.12,409.292c-6.244,10.983-13.968,21.112-22.961,30.104c-27.513,27.513-63.639,41.266-99.778,41.263    c-36.129-0.003-72.272-13.757-99.778-41.263c-55.017-55.017-55.017-144.536,0-199.554c8.993-8.992,19.121-16.717,30.12-22.971    l2.09-1.192l22.998,22.998l-9.608,5.463c-8.537,4.852-16.419,10.866-23.428,17.873c-42.791,42.791-42.791,112.417,0,155.208    c20.701,20.7,48.26,32.1,77.604,32.1c29.342,0,56.905-11.401,77.604-32.1c7.007-7.007,13.023-14.891,17.878-23.433l5.46-9.604    l22.997,22.997L295.12,409.292z"/>
	</g>
</g>
<g>
</g>
<g>
</g>
<g>
</g>
<g>
</g>
<g>
</g>
<g>
</g>
<g>
</g>
<g>
</g>
<g>
</g>
<g>
</g>
<g>
</g>
<g>
</g>
<g>
</g>
<g>
</g>
<g>
</g>
</svg>
