<?xml version="1.0" encoding="iso-8859-1"?>
<!-- Generator: Adobe Illustrator 19.0.0, SVG Export Plug-In . SVG Version: 6.00 Build 0)  -->
<svg xmlns="http://www.w3.org/2000/svg" xmlns:xlink="http://www.w3.org/1999/xlink" version="1.1" id="Layer_1" x="0px" y="0px" viewBox="0 0 512 512" style="enable-background:new 0 0 512 512;" xml:space="preserve">
<g>
	<g>
		<path d="M399.048,127.841l85.804,126.84l26.137-17.68L399.048,71.524l-47.332,69.97L255.999,0l-95.716,141.494l-47.332-69.97    L1.011,237.001l26.137,17.68l85.804-126.84l28.284,41.811L1.011,376.94l26.137,17.68l93.291-137.909l43.286,39.476l46.133-42.073    l46.135,42.073l46.134-42.073l46.14,42.073l43.292-39.476l93.292,137.911l26.137-17.68L370.765,169.653L399.048,127.841z     M373.694,230.299l-25.426,23.184l-46.141-42.074l-46.133,42.073l-46.136-42.073l-46.132,42.073L138.307,230.3L255.999,56.317    L373.694,230.299z"/>
	</g>
</g>
<g>
	<g>
		<path d="M255.999,338.448c-52.198,0-94.665,42.467-94.665,94.665V512h31.555v-78.887c0-34.799,28.311-63.11,63.11-63.11    c34.799,0,63.11,28.311,63.11,63.11V512h31.555v-78.887C350.664,380.915,308.198,338.448,255.999,338.448z"/>
	</g>
</g>
<g>
</g>
<g>
</g>
<g>
</g>
<g>
</g>
<g>
</g>
<g>
</g>
<g>
</g>
<g>
</g>
<g>
</g>
<g>
</g>
<g>
</g>
<g>
</g>
<g>
</g>
<g>
</g>
<g>
</g>
</svg>
