<?xml version="1.0" encoding="iso-8859-1"?>
<!-- Generator: Adobe Illustrator 19.0.0, SVG Export Plug-In . SVG Version: 6.00 Build 0)  -->
<svg xmlns="http://www.w3.org/2000/svg" xmlns:xlink="http://www.w3.org/1999/xlink" version="1.1" id="Layer_1" x="0px" y="0px" viewBox="0 0 512.001 512.001" style="enable-background:new 0 0 512.001 512.001;" xml:space="preserve">
<g>
	<g>
		<path d="M296.335,40.335C177.418,40.335,80.671,137.082,80.671,256c0,36.192,8.975,70.321,24.794,100.303    c-44.775-47.201-72.285-110.933-72.285-180.974H0c0,79.215,30.807,153.648,86.748,209.588    c55.94,55.94,130.373,86.748,209.588,86.748c118.917,0,215.665-96.747,215.665-215.665S415.254,40.335,296.335,40.335z     M296.335,438.485c-100.623,0-182.485-81.863-182.485-182.485S195.713,73.515,296.335,73.515S478.821,155.378,478.821,256    S396.959,438.485,296.335,438.485z"/>
	</g>
</g>
<g>
	<g>
		<path d="M296.335,228.351c-15.246,0-27.649,12.403-27.649,27.649s12.403,27.649,27.649,27.649s27.649-12.404,27.649-27.649    S311.581,228.351,296.335,228.351z"/>
	</g>
</g>
<g>
	<g>
		<path d="M191.268,206.231c-27.443,0-49.769,22.326-49.769,49.769s22.326,49.769,49.769,49.769s49.769-22.326,49.769-49.769    C241.037,228.558,218.712,206.231,191.268,206.231z M191.268,272.59c-9.148,0-16.59-7.442-16.59-16.59    c0-9.148,7.442-16.59,16.59-16.59c9.147,0,16.59,7.442,16.59,16.59C207.858,265.147,200.417,272.59,191.268,272.59z"/>
	</g>
</g>
<g>
	<g>
		<path d="M296.335,311.299c-27.443,0-49.769,22.326-49.769,49.769c0,27.443,22.326,49.769,49.769,49.769    s49.769-22.326,49.769-49.769C346.104,333.625,323.779,311.299,296.335,311.299z M296.335,377.657    c-9.148,0-16.59-7.442-16.59-16.59c0-9.147,7.442-16.59,16.59-16.59c9.147,0,16.59,7.442,16.59,16.59    C312.925,370.215,305.484,377.657,296.335,377.657z"/>
	</g>
</g>
<g>
	<g>
		<path d="M401.403,206.231c-27.443,0-49.769,22.326-49.769,49.769s22.326,49.769,49.769,49.769    c27.442,0,49.769-22.326,49.769-49.769C451.172,228.558,428.846,206.231,401.403,206.231z M401.403,272.59    c-9.148,0-16.59-7.442-16.59-16.59c0-9.148,7.442-16.59,16.59-16.59c9.147,0,16.59,7.442,16.59,16.59    C417.992,265.147,410.551,272.59,401.403,272.59z"/>
	</g>
</g>
<g>
	<g>
		<path d="M296.335,101.164c-27.443,0-49.769,22.326-49.769,49.769s22.326,49.769,49.769,49.769s49.769-22.326,49.769-49.769    S323.779,101.164,296.335,101.164z M296.335,167.522c-9.148,0-16.59-7.442-16.59-16.59s7.442-16.59,16.59-16.59    c9.147,0,16.59,7.442,16.59,16.59S305.484,167.522,296.335,167.522z"/>
	</g>
</g>
<g>
</g>
<g>
</g>
<g>
</g>
<g>
</g>
<g>
</g>
<g>
</g>
<g>
</g>
<g>
</g>
<g>
</g>
<g>
</g>
<g>
</g>
<g>
</g>
<g>
</g>
<g>
</g>
<g>
</g>
</svg>
