<?xml version="1.0" encoding="iso-8859-1"?>
<!-- Generator: Adobe Illustrator 19.0.0, SVG Export Plug-In . SVG Version: 6.00 Build 0)  -->
<svg version="1.1" id="Layer_1" xmlns="http://www.w3.org/2000/svg" xmlns:xlink="http://www.w3.org/1999/xlink" x="0px" y="0px"
	 viewBox="0 0 512 512" style="enable-background:new 0 0 512 512;" xml:space="preserve">
<g>
	<g>
		<path d="M404.029,54.078h-89.225h-30.417h-56.783h-30.417H107.97H0v107.97v67.293v77.553v30.417v9.786v30.417v9.786v30.417v40.204
			h197.187h30.426h56.773h30.418H512v-40.204V387.3v-9.786v-30.417v-40.203v-77.553v-67.293V54.078H404.029z M30.417,84.495h45.26
			c-5.581,22.183-23.077,39.679-45.26,45.26V84.495z M30.417,261.634c22.182,5.581,39.679,23.077,45.26,45.26h-45.26V261.634z
			 M197.187,427.506H30.417v-9.787h166.77V427.506z M197.187,387.301H30.417v-9.786h166.77V387.301z M197.187,347.097H30.417v-9.786
			h77.553h89.218V347.097z M197.187,254.053c-25.651-7.021-44.611-30.601-44.611-58.358s18.959-51.337,44.611-58.358V254.053z
			 M197.187,106.194c-18.367,3.222-35.274,11.988-48.664,25.487c-17.001,17.138-26.364,39.872-26.364,64.014
			s9.362,46.875,26.364,64.013c13.391,13.498,30.297,22.264,48.664,25.487v21.7h-90.471c-6.459-38.988-37.311-69.841-76.299-76.299
			v-69.799c38.988-6.459,69.841-37.312,76.299-76.299c0,0,90.471,0,90.471,0V106.194z M284.386,347.098v30.417v9.786v30.417v9.787
			h-56.773v-9.787v-30.417v-9.786v-30.417v-9.786h56.773V347.098z M284.387,104.659V286.73v20.164h-0.001h-56.773h-0.009V286.73
			V104.659V84.495h56.783V104.659z M314.805,137.335c25.652,7.02,44.614,30.601,44.614,58.36c0,27.759-18.962,51.339-44.614,58.359
			V137.335z M481.583,427.506H314.805v-9.787h166.778V427.506z M481.583,387.301H314.805v-9.786h166.778V387.301z M481.583,347.098
			H314.805v-9.786h89.225h77.554V347.098z M481.583,306.893h-45.26c5.581-22.182,23.077-39.679,45.26-45.26V306.893z
			 M481.583,230.594c-38.988,6.459-69.841,37.312-76.299,76.299h-90.479v-21.698c18.368-3.222,35.275-11.988,48.666-25.487
			c17.002-17.138,26.365-39.872,26.365-64.015c0-24.143-9.363-46.876-26.365-64.015c-13.392-13.498-30.299-22.264-48.666-25.487
			V84.495h90.479c6.459,38.988,37.311,69.841,76.299,76.299V230.594z M481.583,129.755c-22.182-5.581-39.679-23.078-45.26-45.26
			h45.26V129.755z"/>
	</g>
</g>
<g>
</g>
<g>
</g>
<g>
</g>
<g>
</g>
<g>
</g>
<g>
</g>
<g>
</g>
<g>
</g>
<g>
</g>
<g>
</g>
<g>
</g>
<g>
</g>
<g>
</g>
<g>
</g>
<g>
</g>
</svg>
