<?xml version="1.0" encoding="iso-8859-1"?>
<!-- Generator: Adobe Illustrator 19.0.0, SVG Export Plug-In . SVG Version: 6.00 Build 0)  -->
<svg version="1.1" id="Layer_1" xmlns="http://www.w3.org/2000/svg" xmlns:xlink="http://www.w3.org/1999/xlink" x="0px" y="0px"
	 viewBox="0 0 512.002 512.002" style="enable-background:new 0 0 512.002 512.002;" xml:space="preserve">
<g>
	<g>
		<path d="M422.101,76.991c-18.629-18.629-48.941-18.629-67.569,0c-18.629,18.629-18.629,48.94,0,67.569
			c9.315,9.315,21.548,13.972,33.784,13.972c12.234,0,24.471-4.658,33.785-13.972C440.729,125.931,440.729,95.619,422.101,76.991z
			 M400.621,123.08c-6.784,6.784-17.825,6.785-24.609,0c-6.784-6.784-6.784-17.825,0-24.609c3.392-3.392,7.848-5.088,12.304-5.088
			c4.456,0,8.913,1.696,12.305,5.088C407.405,105.256,407.405,116.295,400.621,123.08z"/>
	</g>
</g>
<g>
	<g>
		<path d="M456.87,42.22c-56.293-56.294-147.891-56.294-204.184,0c-21.288,21.289-35.201,48.18-40.232,77.768
			c-4.314,25.364-1.872,51.032,7.045,74.866L12.911,401.44l13.328,64.968l45.594,45.594l232.406-232.406
			c23.832,8.916,49.501,11.359,74.866,7.044c29.588-5.033,56.479-18.945,77.768-40.233C513.164,190.112,513.164,98.514,456.87,42.22
			z M71.831,469.039l-10.15-10.15l54.081-54.081l10.15,10.15L71.831,469.039z M147.393,393.479l-10.15-10.15l13.29-13.29
			l10.15,10.15L147.393,393.479z M182.163,358.709l-10.15-10.15l27.198-27.198l10.15,10.15L182.163,358.709z M435.39,224.925
			c-33.614,33.612-85.194,42.834-128.35,22.949l-9.612-4.43l-66.587,66.587l-10.15-10.15l50.677-50.677l-21.48-21.48L49.411,428.201
			l-3.455-16.844l209.692-209.692l-4.43-9.612c-19.887-43.156-10.665-94.737,22.948-128.35c44.451-44.451,116.775-44.45,161.224,0
			C479.84,108.151,479.84,180.475,435.39,224.925z"/>
	</g>
</g>
<g>
</g>
<g>
</g>
<g>
</g>
<g>
</g>
<g>
</g>
<g>
</g>
<g>
</g>
<g>
</g>
<g>
</g>
<g>
</g>
<g>
</g>
<g>
</g>
<g>
</g>
<g>
</g>
<g>
</g>
</svg>
