<?xml version="1.0" encoding="iso-8859-1"?>
<!-- Generator: Adobe Illustrator 19.0.0, SVG Export Plug-In . SVG Version: 6.00 Build 0)  -->
<svg version="1.1" id="Layer_1" xmlns="http://www.w3.org/2000/svg" xmlns:xlink="http://www.w3.org/1999/xlink" x="0px" y="0px"
	 viewBox="0 0 512 512" style="enable-background:new 0 0 512 512;" xml:space="preserve">
<g>
	<g>
		<path d="M0,70.978v370.045h512V70.978H0z M67.828,410.605H51.925l15.903-15.904V410.605z M135.656,410.605h-37.41v-46.321
			l37.41-37.409V410.605z M203.484,410.605h-37.411v-64.927l24.253,24.253l13.158-13.159V410.605z M271.313,410.605h-37.411v-84.25
			l37.411-37.411V410.605z M339.141,410.605h-37.41V258.527l3.756-3.755l33.655,33.654V410.605z M481.583,410.605H369.558v-122.18
			l64.89-64.89v29.138h30.417V171.61h-81.063v30.417h29.138l-58.591,58.591l-48.863-48.862l-115.16,115.16l-48.863-48.863
			L30.417,389.097V101.395h451.166V410.605z"/>
	</g>
</g>
<g>
</g>
<g>
</g>
<g>
</g>
<g>
</g>
<g>
</g>
<g>
</g>
<g>
</g>
<g>
</g>
<g>
</g>
<g>
</g>
<g>
</g>
<g>
</g>
<g>
</g>
<g>
</g>
<g>
</g>
</svg>
