<?xml version="1.0" encoding="iso-8859-1"?>
<!-- Generator: Adobe Illustrator 19.0.0, SVG Export Plug-In . SVG Version: 6.00 Build 0)  -->
<svg version="1.1" id="Layer_1" xmlns="http://www.w3.org/2000/svg" xmlns:xlink="http://www.w3.org/1999/xlink" x="0px" y="0px"
	 viewBox="0 0 512 512" style="enable-background:new 0 0 512 512;" xml:space="preserve">
<g>
	<g>
		<path d="M0,511.92h512V94.788L0,511.92z M481.592,481.512h-20.275v-18.74H430.91v18.74h-20.275v-18.74h-30.408v18.74h-20.275
			v-18.74h-30.408v18.74H309.27v-18.74h-30.408v18.74h-20.275v-18.74H228.18v18.74h-20.275v-18.74h-30.408v18.74h-20.275v-18.74
			h-30.408v18.74H85.465l396.127-322.729V481.512z"/>
	</g>
</g>
<g>
	<g>
		<path d="M199.419,440.969h241.63V244.11L199.419,440.969z M410.641,410.561H284.885l125.756-102.456V410.561z"/>
	</g>
</g>
<g>
	<g>
		<path d="M0.16,0.08v366.782l37.244,51.387l37.242-51.387V0.08H0.16z M30.568,30.488h13.671v20.275H30.568V30.488z M44.24,357.001
			l-6.836,9.432l-6.837-9.432V81.17H44.24V357.001z"/>
	</g>
</g>
<g>
</g>
<g>
</g>
<g>
</g>
<g>
</g>
<g>
</g>
<g>
</g>
<g>
</g>
<g>
</g>
<g>
</g>
<g>
</g>
<g>
</g>
<g>
</g>
<g>
</g>
<g>
</g>
<g>
</g>
</svg>
