<?xml version="1.0" encoding="iso-8859-1"?>
<!-- Generator: Adobe Illustrator 19.0.0, SVG Export Plug-In . SVG Version: 6.00 Build 0)  -->
<svg version="1.1" id="Layer_1" xmlns="http://www.w3.org/2000/svg" xmlns:xlink="http://www.w3.org/1999/xlink" x="0px" y="0px"
	 viewBox="0 0 512 512" style="enable-background:new 0 0 512 512;" xml:space="preserve">
<g>
	<g>
		<path d="M363.006,208.232V107.007C363.006,48.003,315.003,0,255.999,0S148.992,48.003,148.992,107.007v101.225
			c-38.861,31.33-63.771,79.302-63.771,132.99C85.221,435.389,161.832,512,256,512s170.779-76.611,170.779-170.778
			C426.778,287.534,401.867,239.562,363.006,208.232z M179.409,107.007c0-42.231,34.358-76.59,76.59-76.59s76.59,34.358,76.59,76.59
			v81.522c-17.135-8.631-35.551-14.243-54.662-16.682c-0.109-0.014-0.218-0.029-0.328-0.043c-1.174-0.147-2.35-0.281-3.528-0.405
			c-0.438-0.047-0.876-0.09-1.315-0.134c-0.983-0.095-1.969-0.185-2.956-0.264c-0.667-0.054-1.336-0.099-2.006-0.145
			c-0.823-0.056-1.648-0.114-2.473-0.157c-0.91-0.05-1.824-0.083-2.738-0.119c-0.625-0.023-1.247-0.055-1.873-0.071
			c-1.565-0.043-3.136-0.068-4.712-0.068c-1.576,0-3.146,0.025-4.712,0.068c-0.626,0.017-1.248,0.048-1.873,0.071
			c-0.914,0.034-1.827,0.069-2.738,0.119c-0.826,0.044-1.65,0.101-2.474,0.157c-0.669,0.046-1.338,0.091-2.004,0.145
			c-0.988,0.078-1.972,0.168-2.957,0.264c-0.438,0.043-0.876,0.087-1.314,0.133c-1.179,0.124-2.356,0.258-3.53,0.405
			c-0.108,0.014-0.216,0.028-0.324,0.043c-19.113,2.439-37.529,8.051-54.665,16.684V107.007z M255.999,481.583
			c-77.395,0-140.361-62.966-140.361-140.36c0-68.773,49.72-126.148,115.101-138.079c0.31-0.057,0.621-0.113,0.932-0.166
			c1.311-0.23,2.629-0.438,3.951-0.632c0.922-0.134,1.843-0.268,2.77-0.382c0.713-0.089,1.43-0.167,2.145-0.246
			c1.063-0.116,2.128-0.222,3.196-0.313c0.467-0.041,0.932-0.088,1.4-0.125c1.54-0.117,3.086-0.205,4.635-0.272
			c0.433-0.019,0.866-0.034,1.3-0.05c1.639-0.056,3.283-0.096,4.932-0.096c1.649,0,3.291,0.04,4.932,0.096
			c0.434,0.015,0.867,0.03,1.3,0.05c1.549,0.067,3.094,0.155,4.635,0.272c0.468,0.036,0.935,0.084,1.402,0.125
			c1.067,0.092,2.131,0.198,3.193,0.313c0.717,0.079,1.434,0.156,2.147,0.246c0.921,0.115,1.837,0.247,2.754,0.38
			c1.329,0.194,2.653,0.404,3.97,0.635c0.308,0.054,0.616,0.109,0.924,0.165c65.383,11.93,115.104,69.305,115.104,138.08
			C396.36,418.617,333.395,481.583,255.999,481.583z"/>
	</g>
</g>
<g>
	<g>
		<path d="M201.168,237.749c-26.821,0-48.641,21.82-48.641,48.642c0,26.822,21.82,48.641,48.641,48.641s48.641-21.82,48.641-48.641
			C249.809,259.57,227.989,237.749,201.168,237.749z M201.168,304.615c-10.049,0-18.224-8.175-18.224-18.224
			c0-10.049,8.175-18.225,18.224-18.225s18.224,8.175,18.224,18.225S211.217,304.615,201.168,304.615z"/>
	</g>
</g>
<g>
	<g>
		<path d="M310.83,237.749c-26.822,0-48.642,21.82-48.642,48.642c0,26.822,21.821,48.641,48.642,48.641
			c26.821,0,48.642-21.82,48.642-48.641C359.472,259.57,337.652,237.749,310.83,237.749z M310.83,304.615
			c-10.05,0-18.225-8.175-18.225-18.224c0-10.049,8.176-18.225,18.225-18.225s18.225,8.175,18.225,18.225
			S320.88,304.615,310.83,304.615z"/>
	</g>
</g>
<g>
	<g>
		<path d="M201.168,347.411c-26.821,0-48.641,21.82-48.641,48.642c0,26.822,21.82,48.641,48.641,48.641s48.641-21.82,48.641-48.641
			C249.809,369.233,227.989,347.411,201.168,347.411z M201.168,414.278c-10.049,0-18.224-8.175-18.224-18.224
			c0-10.049,8.175-18.225,18.224-18.225s18.224,8.175,18.224,18.225S211.217,414.278,201.168,414.278z"/>
	</g>
</g>
<g>
	<g>
		<path d="M310.83,347.411c-26.821,0-48.642,21.82-48.642,48.642c0,26.822,21.82,48.641,48.642,48.641
			c26.822,0,48.642-21.82,48.642-48.641C359.472,369.233,337.652,347.411,310.83,347.411z M310.83,414.278
			c-10.049,0-18.225-8.175-18.225-18.224c0-10.049,8.175-18.225,18.225-18.225c10.05,0,18.225,8.175,18.225,18.225
			S320.88,414.278,310.83,414.278z"/>
	</g>
</g>
<g>
</g>
<g>
</g>
<g>
</g>
<g>
</g>
<g>
</g>
<g>
</g>
<g>
</g>
<g>
</g>
<g>
</g>
<g>
</g>
<g>
</g>
<g>
</g>
<g>
</g>
<g>
</g>
<g>
</g>
</svg>
