<?xml version="1.0" encoding="iso-8859-1"?>
<!-- Generator: Adobe Illustrator 19.0.0, SVG Export Plug-In . SVG Version: 6.00 Build 0)  -->
<svg version="1.1" id="Layer_1" xmlns="http://www.w3.org/2000/svg" xmlns:xlink="http://www.w3.org/1999/xlink" x="0px" y="0px"
	 viewBox="0 0 512 512" style="enable-background:new 0 0 512 512;" xml:space="preserve">
<g>
	<g>
		<path d="M92.837,166.887l100.904,100.904l-45.486,45.486l-9.548-9.548L14.408,428.027C5.117,437.318,0,449.671,0,462.81
			c0,13.139,5.117,25.492,14.408,34.783C23.698,506.883,36.051,512,49.19,512c13.139,0,25.492-5.117,34.782-14.408l124.298-124.298
			l-9.548-9.548l45.486-45.486l100.905,100.905L512,0L92.837,166.887z M62.493,476.114c-7.335,7.335-19.27,7.335-26.606,0
			c-7.335-7.336-7.335-19.271,0-26.606L138.706,346.69l26.605,26.605L62.493,476.114z M177.24,342.267l-7.506-7.51l45.486-45.486
			l80.436-80.436c0.001-0.001,0.002-0.002,0.003-0.003c0.238-0.238,0.497-0.443,0.766-0.625c0.039-0.025,0.076-0.054,0.114-0.078
			c0.271-0.174,0.554-0.324,0.846-0.443c0.02-0.008,0.04-0.016,0.061-0.023c0.303-0.12,0.614-0.213,0.93-0.274
			c0.014-0.003,0.027-0.005,0.042-0.008c0.655-0.124,1.328-0.124,1.984,0c0.013,0.003,0.027,0.005,0.041,0.008
			c0.316,0.062,0.627,0.155,0.93,0.274c0.02,0.008,0.042,0.016,0.062,0.024c0.293,0.12,0.574,0.27,0.846,0.443
			c0.038,0.024,0.076,0.053,0.114,0.078c0.268,0.183,0.526,0.387,0.763,0.624c0.002,0.002,0.004,0.003,0.006,0.005
			c2.07,2.07,2.07,5.439-0.001,7.51l-40.217,40.217L177.24,342.267z M333.961,365.053l-68.272-68.272l58.953-58.954
			c0.071-0.071,0.136-0.145,0.206-0.216c0.355-0.36,0.707-0.726,1.045-1.099c0.077-0.085,0.148-0.174,0.225-0.26
			c0.329-0.371,0.653-0.743,0.965-1.124c0.022-0.027,0.042-0.056,0.065-0.083c5.148-6.335,7.949-14.178,7.949-22.453
			c0-8.29-2.81-16.145-7.975-22.487c-0.011-0.014-0.022-0.029-0.033-0.044c-0.329-0.403-0.671-0.798-1.02-1.188
			c-0.058-0.065-0.111-0.132-0.17-0.196c-0.398-0.44-0.809-0.872-1.231-1.295c-0.007-0.007-0.014-0.015-0.021-0.022
			c-0.108-0.108-0.222-0.209-0.331-0.316c-6.701-6.537-15.523-10.138-24.902-10.138c0,0,0,0-0.001,0
			c-9.532,0-18.493,3.712-25.233,10.453l-58.956,58.955l-68.273-68.272L457.675,54.325L333.961,365.053z"/>
	</g>
</g>
<g>
</g>
<g>
</g>
<g>
</g>
<g>
</g>
<g>
</g>
<g>
</g>
<g>
</g>
<g>
</g>
<g>
</g>
<g>
</g>
<g>
</g>
<g>
</g>
<g>
</g>
<g>
</g>
<g>
</g>
</svg>
