<?xml version="1.0" encoding="iso-8859-1"?>
<!-- Generator: Adobe Illustrator 19.0.0, SVG Export Plug-In . SVG Version: 6.00 Build 0)  -->
<svg version="1.1" id="Layer_1" xmlns="http://www.w3.org/2000/svg" xmlns:xlink="http://www.w3.org/1999/xlink" x="0px" y="0px"
	 viewBox="0 0 511.997 511.997" style="enable-background:new 0 0 511.997 511.997;" xml:space="preserve">
<g>
	<g>
		<path d="M474.485,23.06H37.515C16.829,23.06,0,39.89,0,60.574v245.747v30.417v44.701c0,20.685,16.829,37.515,37.515,37.515
			h134.504l-5.733,39.566h-28.914v30.417h24.506h188.241h24.506V458.52h-28.914l-5.733-39.566h134.504
			c20.686,0,37.514-16.83,37.514-37.515v-44.701v-30.417V60.574C512,39.889,495.17,23.06,474.485,23.06z M197.02,458.52
			l5.733-39.566h106.494l5.733,39.566H197.02z M481.583,381.439c0,3.913-3.184,7.097-7.097,7.097H335.574h-159.15H37.515
			c-3.914,0-7.097-3.185-7.097-7.097v-44.701h451.166V381.439z M481.583,306.322H30.417V60.574c0-3.913,3.184-7.097,7.097-7.097
			h436.971c3.914,0,7.097,3.185,7.097,7.097V306.322z"/>
	</g>
</g>
<g>
	<g>
		<rect x="235.054" y="347.434" width="41.895" height="30.417"/>
	</g>
</g>
<g>
	<g>
		<path d="M256,66.763L128.477,203.888h65.317v84.05h124.411v-84.05h65.317L256,66.763z M287.788,173.471v84.05h-63.577v-84.05
			h-25.909L256,111.429l57.698,62.042H287.788z"/>
	</g>
</g>
<g>
</g>
<g>
</g>
<g>
</g>
<g>
</g>
<g>
</g>
<g>
</g>
<g>
</g>
<g>
</g>
<g>
</g>
<g>
</g>
<g>
</g>
<g>
</g>
<g>
</g>
<g>
</g>
<g>
</g>
</svg>
