<?xml version="1.0" encoding="iso-8859-1"?>
<!-- Generator: Adobe Illustrator 19.0.0, SVG Export Plug-In . SVG Version: 6.00 Build 0)  -->
<svg version="1.1" id="Layer_1" xmlns="http://www.w3.org/2000/svg" xmlns:xlink="http://www.w3.org/1999/xlink" x="0px" y="0px"
	 viewBox="0 0 512 512" style="enable-background:new 0 0 512 512;" xml:space="preserve">
<g>
	<g>
		<path d="M417.427,109.835V30.417h45.491V0h-45.491H94.681H49.082v30.417h45.599v79.418c0,64.565,38.121,120.386,93.032,146.165
			c-54.911,25.778-93.032,81.599-93.032,146.165v79.418H49.082V512h45.599h322.745h45.491v-30.417h-45.491v-79.418
			c0-64.566-38.121-120.386-93.032-146.165C379.306,230.222,417.427,174.401,417.427,109.835z M387.009,481.583H125.098v-64.21
			h261.911V481.583z M386.122,386.955H125.986c7.561-65.069,63.003-115.747,130.068-115.747
			C323.12,271.209,378.561,321.886,386.122,386.955z M256.054,240.791c-72.209,0-130.956-58.747-130.956-130.956V30.417h261.911
			v79.418C387.01,182.045,328.263,240.791,256.054,240.791z"/>
	</g>
</g>
<g>
	<g>
		<polygon points="244.858,93.775 318.162,93.775 318.162,63.358 192.933,63.358 192.933,188.586 223.35,188.586 223.35,115.283 
			304.209,196.141 325.717,174.633 		"/>
	</g>
</g>
<g>
</g>
<g>
</g>
<g>
</g>
<g>
</g>
<g>
</g>
<g>
</g>
<g>
</g>
<g>
</g>
<g>
</g>
<g>
</g>
<g>
</g>
<g>
</g>
<g>
</g>
<g>
</g>
<g>
</g>
</svg>
