<?xml version="1.0" encoding="iso-8859-1"?>
<!-- Generator: Adobe Illustrator 19.0.0, SVG Export Plug-In . SVG Version: 6.00 Build 0)  -->
<svg version="1.1" id="Layer_1" xmlns="http://www.w3.org/2000/svg" xmlns:xlink="http://www.w3.org/1999/xlink" x="0px" y="0px"
	 viewBox="0 0 512 512" style="enable-background:new 0 0 512 512;" xml:space="preserve">
<g>
	<g>
		<path d="M85.346,251.14v74.353h103.628V251.14H85.346z M158.557,295.076h-42.794v-13.518h42.794V295.076z"/>
	</g>
</g>
<g>
	<g>
		<path d="M323.025,251.14v74.353h103.628V251.14H323.025z M396.236,295.076h-42.794v-13.518h42.794V295.076z"/>
	</g>
</g>
<g>
	<g>
		<path d="M437.019,181.052c-48.352-48.351-112.64-74.98-181.02-74.98S123.333,132.7,74.98,181.052
			C26.629,229.403,0,293.691,0,362.071v43.858h209.256h93.488H512v-43.858C512,293.691,485.371,229.403,437.019,181.052z
			 M272.327,375.511h-32.654v-93.954h32.654V375.511z M481.583,375.511L481.583,375.511H302.744V251.14h-93.488v124.371H30.417
			v-13.44c0-60.255,23.465-116.904,66.072-159.511c42.607-42.606,99.256-66.071,159.511-66.071s116.904,23.465,159.511,66.071
			s66.072,99.256,66.072,159.511V375.511z"/>
	</g>
</g>
<g>
</g>
<g>
</g>
<g>
</g>
<g>
</g>
<g>
</g>
<g>
</g>
<g>
</g>
<g>
</g>
<g>
</g>
<g>
</g>
<g>
</g>
<g>
</g>
<g>
</g>
<g>
</g>
<g>
</g>
</svg>
