<?xml version="1.0" encoding="iso-8859-1"?>
<!-- Generator: Adobe Illustrator 19.0.0, SVG Export Plug-In . SVG Version: 6.00 Build 0)  -->
<svg version="1.1" id="Layer_1" xmlns="http://www.w3.org/2000/svg" xmlns:xlink="http://www.w3.org/1999/xlink" x="0px" y="0px"
	 viewBox="0 0 511.999 511.999" style="enable-background:new 0 0 511.999 511.999;" xml:space="preserve">
<g>
	<g>
		<path d="M474.213,51.19H37.786C16.95,51.19,0,68.142,0,88.976v334.046c0,20.836,16.951,37.786,37.786,37.786h436.427
			c20.836,0,37.787-16.951,37.786-37.786V88.976C511.999,68.141,495.049,51.19,474.213,51.19z M481.582,423.024
			c0,4.064-3.305,7.369-7.369,7.369H37.786c-4.064,0-7.369-3.306-7.369-7.369V88.977c0-4.064,3.305-7.369,7.369-7.369v-0.001
			h436.427c4.064,0,7.369,3.306,7.369,7.369V423.024z"/>
	</g>
</g>
<g>
	<g>
		<path d="M46.64,97.83v281.865H465.36h0.001V97.83H46.64z M434.944,349.277H77.057v-221.03h357.887V349.277z"/>
	</g>
</g>
<g>
	<g>
		<circle cx="256.001" cy="405.045" r="15.039"/>
	</g>
</g>
<g>
	<g>
		<path d="M254.591,135.657L138.206,260.804h61.05v73.94h110.667h0.001v-73.94h61.05L254.591,135.657z M279.506,230.387v73.94
			h-49.832v-73.94h-21.643l46.559-50.065l46.56,50.065H279.506z"/>
	</g>
</g>
<g>
</g>
<g>
</g>
<g>
</g>
<g>
</g>
<g>
</g>
<g>
</g>
<g>
</g>
<g>
</g>
<g>
</g>
<g>
</g>
<g>
</g>
<g>
</g>
<g>
</g>
<g>
</g>
<g>
</g>
</svg>
