<?xml version="1.0" encoding="iso-8859-1"?>
<!-- Generator: Adobe Illustrator 19.0.0, SVG Export Plug-In . SVG Version: 6.00 Build 0)  -->
<svg version="1.1" id="Layer_1" xmlns="http://www.w3.org/2000/svg" xmlns:xlink="http://www.w3.org/1999/xlink" x="0px" y="0px"
	 viewBox="0 0 511.999 511.999" style="enable-background:new 0 0 511.999 511.999;" xml:space="preserve">
<g>
	<g>
		<path d="M82.342,0v231.551v30.417v47.113H191.76c6.686,0,12.925,2.649,17.568,7.46c4.622,4.79,7.048,11.084,6.836,17.731
			l-6.404,129.594l-0.009,0.211c-0.45,12.665,4.149,24.662,12.95,33.78c8.801,9.119,20.627,14.141,33.3,14.141
			s24.499-5.022,33.3-14.141c8.801-9.119,13.4-21.116,12.949-33.781l-6.412-129.809c-0.212-6.647,2.214-12.938,6.835-17.727
			c4.644-4.811,10.882-7.46,17.569-7.46h109.417v-47.113V231.55V0H82.342z M320.24,278.664c-15.016,0-29.028,5.951-39.456,16.755
			c-10.427,10.805-15.876,25.019-15.342,40.025l6.412,129.8c0.13,4.309-1.446,8.387-4.442,11.492
			c-3.016,3.125-7.069,4.846-11.413,4.846s-8.397-1.722-11.414-4.846c-2.995-3.104-4.57-7.18-4.441-11.487l6.404-129.593
			l0.009-0.211c0.532-15.006-4.916-29.221-15.343-40.026c-10.427-10.804-24.439-16.755-39.455-16.755h-79v-16.696h286.48v16.697
			H320.24z M399.24,231.551h-286.48V30.417h286.48V231.551z"/>
	</g>
</g>
<g>
</g>
<g>
</g>
<g>
</g>
<g>
</g>
<g>
</g>
<g>
</g>
<g>
</g>
<g>
</g>
<g>
</g>
<g>
</g>
<g>
</g>
<g>
</g>
<g>
</g>
<g>
</g>
<g>
</g>
</svg>
