<?xml version="1.0" encoding="iso-8859-1"?>
<!-- Generator: Adobe Illustrator 19.0.0, SVG Export Plug-In . SVG Version: 6.00 Build 0)  -->
<svg version="1.1" id="Layer_1" xmlns="http://www.w3.org/2000/svg" xmlns:xlink="http://www.w3.org/1999/xlink" x="0px" y="0px"
	 viewBox="0 0 512 512" style="enable-background:new 0 0 512 512;" xml:space="preserve">
<g>
	<g>
		<path d="M508.995,369.772L470.01,211.329c11.179-0.436,21.468-5.666,28.411-14.524c7.255-9.258,9.804-21.118,6.994-32.538
			L480.202,61.789H316.653c0.54-2.559,0.829-5.21,0.829-7.928c0-21.144-17.202-38.345-38.345-38.345
			c-8.685,0-16.701,2.906-23.136,7.792c-6.435-4.885-14.452-7.792-23.136-7.792c-21.144,0-38.345,17.202-38.345,38.345
			c0,2.718,0.289,5.369,0.829,7.928H31.798L6.584,164.267c-2.81,11.422-0.261,23.281,6.995,32.538
			c6.943,8.857,17.232,14.088,28.412,14.523L3.005,369.772c-7.559,30.723-0.7,62.627,18.818,87.528
			c19.518,24.901,48.857,39.183,80.496,39.183h307.364c31.639,0,60.978-14.282,80.496-39.183
			C509.696,432.398,516.554,400.495,508.995,369.772z M279.137,45.932c4.372,0,7.928,3.557,7.928,7.928
			c0,4.371-3.557,7.928-7.928,7.928c-4.371,0-7.928-3.557-7.928-7.928C271.209,49.489,274.766,45.932,279.137,45.932z
			 M232.863,45.933c4.371,0,7.928,3.557,7.928,7.928s-3.557,7.928-7.928,7.928c-4.371,0-7.928-3.557-7.928-7.928
			C224.935,49.489,228.492,45.933,232.863,45.933z M37.52,178.04c-0.854-1.088-2.17-3.38-1.4-6.507l19.52-79.328h400.723
			l19.519,79.328c0.77,3.127-0.547,5.419-1.399,6.507c-0.853,1.087-2.765,2.913-5.984,2.913c-3.507,0-6.543-2.379-7.383-5.782
			l-16.672-67.757H67.558l-16.671,67.757c-0.842,3.405-3.876,5.782-7.383,5.782C40.283,180.953,38.371,179.128,37.52,178.04z
			 M466.238,438.536c-13.712,17.496-34.327,27.529-56.555,27.529H102.318c-22.229,0-42.843-10.034-56.555-27.529
			c-13.713-17.496-18.532-39.91-13.221-61.496l58.858-239.209h329.203L479.46,377.04
			C484.771,398.626,479.952,421.04,466.238,438.536z"/>
	</g>
</g>
<g>
	<g>
		<path d="M459.768,381.884l-29.535,7.268c2.034,8.267-0.995,14.413-3.894,18.11c-2.899,3.699-8.143,8.108-16.656,8.108h-39.111
			v30.417h39.111c21.844,0,34.81-12.381,40.596-19.76C456.062,418.647,464.989,403.099,459.768,381.884z"/>
	</g>
</g>
<g>
</g>
<g>
</g>
<g>
</g>
<g>
</g>
<g>
</g>
<g>
</g>
<g>
</g>
<g>
</g>
<g>
</g>
<g>
</g>
<g>
</g>
<g>
</g>
<g>
</g>
<g>
</g>
<g>
</g>
</svg>
