<?xml version="1.0" encoding="iso-8859-1"?>
<!-- Generator: Adobe Illustrator 19.0.0, SVG Export Plug-In . SVG Version: 6.00 Build 0)  -->
<svg version="1.1" id="Layer_1" xmlns="http://www.w3.org/2000/svg" xmlns:xlink="http://www.w3.org/1999/xlink" x="0px" y="0px"
	 viewBox="0 0 512.002 512.002" style="enable-background:new 0 0 512.002 512.002;" xml:space="preserve">
<g>
	<g>
		<path d="M243.654,0.001c-37.122,0-67.322,30.201-67.322,67.322s30.2,67.323,67.322,67.323s67.323-30.201,67.323-67.322
			C310.977,30.203,280.776,0.001,243.654,0.001z M243.654,104.229c-20.35,0-36.905-16.556-36.905-36.905
			s16.555-36.905,36.905-36.905s36.906,16.556,36.906,36.905S264.004,104.229,243.654,104.229z"/>
	</g>
</g>
<g>
	<g>
		<rect x="187.704" y="187.543" width="111.895" height="30.417"/>
	</g>
</g>
<g>
	<g>
		<path d="M114.287,233.725c-8.93,0-16.193,7.265-16.193,16.193c0,8.93,7.265,16.194,16.193,16.194
			c8.929,0,16.193-7.265,16.193-16.194C130.482,240.989,123.217,233.725,114.287,233.725z"/>
	</g>
</g>
<g>
	<g>
		<path d="M481.582,224.804v22.691c0,17.189-10.838,31.887-26.035,37.641c-8.878-79.026-76.1-140.659-157.458-140.659H196.316
			c-2.525,0-5.061,0.061-7.6,0.182c-11.794-24.319-36.754-40.43-64.475-40.43h-15.209v66.444
			c-25.158,16.638-45.136,40.186-57.424,67.655H0v129.226h51.591c9.252,20.664,22.955,39.294,40.048,54.339
			c16.851,14.832,36.733,25.937,58.066,32.509v57.598h87.653v-50.595h19.691v50.595h87.653v-57.582
			c29.854-9.207,56.698-27.283,76.535-51.747c19.897-24.539,31.983-54.672,34.72-86.05c31.971-6.751,56.045-35.176,56.045-69.127
			v-22.691H481.582z M397.609,383.514c-18.142,22.372-43.512,38.133-71.438,44.38l-11.889,2.659v51.031h-26.819v-50.595h-80.525
			v50.595h-26.819v-51.048l-11.888-2.659c-20.843-4.663-40.38-14.627-56.498-28.814c-16.011-14.091-28.338-32.059-35.65-51.961
			l-3.66-9.964H30.417v-68.392h42.026l3.661-9.962c10.252-27.891,30.068-51.518,55.799-66.527l7.545-4.401v-50.284
			c11.717,4.676,20.998,14.611,24.502,27.263l3.501,12.64l13.018-1.605c5.25-0.647,10.581-0.975,15.846-0.975h101.772
			c70.605,0,128.047,57.442,128.047,128.047C426.135,332.213,416.005,360.828,397.609,383.514z"/>
	</g>
</g>
<g>
</g>
<g>
</g>
<g>
</g>
<g>
</g>
<g>
</g>
<g>
</g>
<g>
</g>
<g>
</g>
<g>
</g>
<g>
</g>
<g>
</g>
<g>
</g>
<g>
</g>
<g>
</g>
<g>
</g>
</svg>
