<?xml version="1.0" encoding="iso-8859-1"?>
<!-- Generator: Adobe Illustrator 19.0.0, SVG Export Plug-In . SVG Version: 6.00 Build 0)  -->
<svg version="1.1" id="Layer_1" xmlns="http://www.w3.org/2000/svg" xmlns:xlink="http://www.w3.org/1999/xlink" x="0px" y="0px"
	 viewBox="0 0 512 512" style="enable-background:new 0 0 512 512;" xml:space="preserve">
<g>
	<g>
		<path d="M32.913,0v94.789v30.417V512h446.174V125.206V94.789V0H32.913z M448.67,481.583H63.33V125.206h385.34V481.583z
			 M448.67,94.789H63.33V30.417h385.34V94.789z"/>
	</g>
</g>
<g>
	<g>
		<rect x="90.816" y="47.395" width="41.517" height="30.417"/>
	</g>
</g>
<g>
	<g>
		<rect x="151.65" y="47.395" width="41.517" height="30.417"/>
	</g>
</g>
<g>
	<g>
		<rect x="379.668" y="47.395" width="41.517" height="30.417"/>
	</g>
</g>
<g>
	<g>
		<path d="M398.932,267.823c-7.29-29.317-23.556-55.898-46.655-75.87c-26.72-23.105-60.911-35.828-96.276-35.828
			c-81.204,0-147.268,66.064-147.268,147.269c0,81.204,66.064,147.268,147.268,147.268c35.365,0,69.557-12.724,96.276-35.828
			c23.099-19.972,39.365-46.552,46.655-75.87h32.137v-71.141H398.932z M332.383,391.826c-21.196,18.326-48.322,28.42-76.383,28.42
			c-64.432,0-116.851-52.419-116.851-116.851c0-64.433,52.419-116.852,116.851-116.852c28.061,0,55.187,10.093,76.383,28.42
			c16.389,14.171,28.445,32.523,34.949,52.861h-21.541c-14.42-36.443-49.802-61.003-89.79-61.003
			c-53.25,0-96.572,43.322-96.572,96.572s43.323,96.573,96.572,96.573c39.987,0,75.37-24.56,89.79-61.003h21.541
			C360.828,359.303,348.772,377.654,332.383,391.826z M311.791,338.966C299.886,357.628,279.059,369.55,256,369.55
			c-36.478,0-66.155-29.678-66.155-66.156c0-36.478,29.678-66.155,66.155-66.155c23.061,0,43.887,11.919,55.792,30.585h-42.274
			v71.142H311.791z M400.651,308.548h-46.225h-54.49V298.24h54.49h46.225V308.548z"/>
	</g>
</g>
<g>
</g>
<g>
</g>
<g>
</g>
<g>
</g>
<g>
</g>
<g>
</g>
<g>
</g>
<g>
</g>
<g>
</g>
<g>
</g>
<g>
</g>
<g>
</g>
<g>
</g>
<g>
</g>
<g>
</g>
</svg>
