<?xml version="1.0" encoding="iso-8859-1"?>
<!-- Generator: Adobe Illustrator 19.0.0, SVG Export Plug-In . SVG Version: 6.00 Build 0)  -->
<svg version="1.1" id="Layer_1" xmlns="http://www.w3.org/2000/svg" xmlns:xlink="http://www.w3.org/1999/xlink" x="0px" y="0px"
	 viewBox="0 0 512 512" style="enable-background:new 0 0 512 512;" xml:space="preserve">
<g>
	<g>
		<path d="M465.518,90.634l-1.778-1.778l28.645-28.645l-47.02-47.021c-17.522-17.521-46.034-17.522-63.556,0l-73.177,73.177
			c-8.488,8.488-13.163,19.774-13.163,31.778s4.674,23.29,13.163,31.778l47.02,47.021l28.632-28.632
			c9.026,9.312,13.997,21.54,13.997,34.539c0,13.264-5.166,25.734-14.544,35.114L237.938,383.763
			c-19.174,19.174-50.248,19.347-69.652,0.547l28.631-28.631l-47.02-47.021c-17.522-17.521-46.034-17.522-63.556,0l-73.177,73.177
			C4.674,390.323,0,401.609,0,413.613s4.674,23.29,13.163,31.778l47.02,47.021l28.646-28.646l1.777,1.777
			c30.938,30.938,71.578,46.408,112.217,46.408c40.639,0,81.279-15.469,112.217-46.408l150.477-150.477
			C495.492,285.093,512,245.24,512,202.85C512,160.46,495.493,120.608,465.518,90.634z M355.651,153.926l-25.512-25.512
			c-5.663-5.663-5.663-14.877,0-20.541l73.177-73.177c2.831-2.831,6.551-4.246,10.27-4.246c3.719,0,7.438,1.415,10.27,4.246
			l25.513,25.513L355.651,153.926z M60.184,449.395l-25.513-25.512c-2.743-2.743-4.253-6.391-4.253-10.27s1.511-7.526,4.253-10.27
			l73.177-73.178c2.831-2.831,6.551-4.246,10.27-4.246s7.438,1.415,10.27,4.246l25.514,25.513L60.184,449.395z M444.009,293.56
			L293.533,444.037c-50.017,50.017-131.401,50.018-181.418,0l-1.776-1.777l36.429-36.429c15.541,15.241,35.795,22.859,56.058,22.857
			c20.503-0.002,41.014-7.807,56.622-23.416l145.799-145.799c15.124-15.124,23.454-35.233,23.454-56.622
			c0-21.124-8.124-40.999-22.895-56.058l36.43-36.429l1.777,1.777c24.229,24.229,37.573,56.443,37.573,90.709
			C481.583,237.116,468.239,269.33,444.009,293.56z"/>
	</g>
</g>
<g>
</g>
<g>
</g>
<g>
</g>
<g>
</g>
<g>
</g>
<g>
</g>
<g>
</g>
<g>
</g>
<g>
</g>
<g>
</g>
<g>
</g>
<g>
</g>
<g>
</g>
<g>
</g>
<g>
</g>
</svg>
