<?xml version="1.0" encoding="iso-8859-1"?>
<!-- Generator: Adobe Illustrator 19.0.0, SVG Export Plug-In . SVG Version: 6.00 Build 0)  -->
<svg version="1.1" id="Layer_1" xmlns="http://www.w3.org/2000/svg" xmlns:xlink="http://www.w3.org/1999/xlink" x="0px" y="0px"
	 viewBox="0 0 512 512" style="enable-background:new 0 0 512 512;" xml:space="preserve">
<g>
	<g>
		<path d="M71.458,163.73v125.734h157.167V163.73H71.458z M134.832,259.044h-32.954v-64.895h32.954V259.044z M198.206,259.044
			h-32.954v-64.895h32.954V259.044z"/>
	</g>
</g>
<g>
	<g>
		<path d="M248.908,163.73v125.734h90.753V163.73H248.908z M309.242,259.044h-29.914v-64.895h29.914V259.044z"/>
	</g>
</g>
<g>
	<g>
		<path d="M182.495,309.746V435.48h157.167V309.746H182.495z M245.869,405.06h-32.954v-64.895h32.954V405.06z M309.243,405.06
			h-32.954v-64.895h32.954V405.06z"/>
	</g>
</g>
<g>
	<g>
		<path d="M71.458,309.746V435.48h90.754V309.746H71.458z M131.793,405.06h-29.916v-64.895h29.916V405.06z"/>
	</g>
</g>
<g>
	<g>
		<path d="M488.175,243h-97.812v-99.554h20.756L376.925,25.824H34.195L0,143.446h20.756v342.73h339.188h30.419h100.88V324.949H512
			L488.175,243z M359.944,243v51.53v30.419v130.808H51.176v-312.31h308.769V243z M40.522,113.027L57.03,56.244h297.06l16.508,56.783
			H40.522z M460.824,455.756h-70.461V324.949h70.461V455.756z M390.364,294.529v-21.11h74.977l6.137,21.11H390.364z"/>
	</g>
</g>
<g>
</g>
<g>
</g>
<g>
</g>
<g>
</g>
<g>
</g>
<g>
</g>
<g>
</g>
<g>
</g>
<g>
</g>
<g>
</g>
<g>
</g>
<g>
</g>
<g>
</g>
<g>
</g>
<g>
</g>
</svg>
