<?xml version="1.0" encoding="iso-8859-1"?>
<!-- Generator: Adobe Illustrator 19.0.0, SVG Export Plug-In . SVG Version: 6.00 Build 0)  -->
<svg version="1.1" id="Layer_1" xmlns="http://www.w3.org/2000/svg" xmlns:xlink="http://www.w3.org/1999/xlink" x="0px" y="0px"
	 viewBox="0 0 511.999 511.999" style="enable-background:new 0 0 511.999 511.999;" xml:space="preserve">
<g>
	<g>
		<path d="M400.525,33.706V0h-30.417v33.706H141.892V0h-30.417v33.706H38.697V144.47v30.417v337.111h434.604V174.888V144.47V33.706
			H400.525z M69.114,64.123h42.36v33.707h30.417V64.123h228.216v33.707h30.417V64.123h42.36v80.347H69.114V64.123z M442.885,481.583
			H69.114V174.888h373.77V481.583z"/>
	</g>
</g>
<g>
	<g>
		<path d="M110.495,207.507v76.043h20.519v160.448h0.001h76.043v-236.49H110.495z M176.64,413.58h-15.209V253.133h-20.519v-15.209
			h35.728V413.58z"/>
	</g>
</g>
<g>
	<g>
		<path d="M229.809,207.41l-0.487,76.042l72.252,0.463l-59.083,142.638l70.255,29.1L415.08,208.598L229.809,207.41z
			 M296.284,415.911l-14.051-5.82l64.743-156.304l-87.043-0.557l0.097-15.21l109.647,0.703L296.284,415.911z"/>
	</g>
</g>
<g>
</g>
<g>
</g>
<g>
</g>
<g>
</g>
<g>
</g>
<g>
</g>
<g>
</g>
<g>
</g>
<g>
</g>
<g>
</g>
<g>
</g>
<g>
</g>
<g>
</g>
<g>
</g>
<g>
</g>
</svg>
