<?xml version="1.0" encoding="iso-8859-1"?>
<!-- Generator: Adobe Illustrator 19.0.0, SVG Export Plug-In . SVG Version: 6.00 Build 0)  -->
<svg version="1.1" id="Layer_1" xmlns="http://www.w3.org/2000/svg" xmlns:xlink="http://www.w3.org/1999/xlink" x="0px" y="0px"
	 viewBox="0 0 512 512" style="enable-background:new 0 0 512 512;" xml:space="preserve">
<g>
	<g>
		<path d="M496.181,221.441L496.181,221.441L437.234,99.856h34.078V69.438H291.978V35.973c0-19.835-16.136-35.971-35.971-35.971
			s-35.971,16.136-35.971,35.971v33.465H40.688v30.417h34.077L15.82,221.441H0v29.067c0,48.919,39.798,88.717,88.717,88.717
			s88.717-39.798,88.717-88.717v-29.067h-15.82L102.668,99.856h117.368v334.589H179.94c-34.377,0-62.343,27.968-62.343,62.344
			v15.209h276.821v-15.209c0-34.377-27.968-62.344-62.343-62.344h-40.096V99.856h117.354l-58.947,121.586h-15.82v29.067
			c0,48.919,39.798,88.717,88.717,88.717S512,299.427,512,250.508v-29.067H496.181z M88.717,308.808
			c-31.696,0-57.564-25.424-58.284-56.949h116.569C146.281,283.383,120.413,308.808,88.717,308.808z M127.81,221.44H49.624
			l39.093-80.637L127.81,221.44z M256.008,30.419c3.063,0,5.554,2.491,5.554,5.554v33.465h-11.107V35.973h-0.001
			C250.453,32.91,252.945,30.419,256.008,30.419z M250.453,99.856h11.107v334.589h-11.107V99.856z M332.074,464.862
			c12.102,0,22.653,6.769,28.066,16.718H151.874c5.413-9.949,15.964-16.718,28.066-16.718h40.096h71.942H332.074z M423.283,140.803
			l39.094,80.637H384.19L423.283,140.803z M423.283,308.808c-31.696,0-57.564-25.424-58.283-56.949h116.568
			C480.847,283.383,454.979,308.808,423.283,308.808z"/>
	</g>
</g>
<g>
</g>
<g>
</g>
<g>
</g>
<g>
</g>
<g>
</g>
<g>
</g>
<g>
</g>
<g>
</g>
<g>
</g>
<g>
</g>
<g>
</g>
<g>
</g>
<g>
</g>
<g>
</g>
<g>
</g>
</svg>
