<?xml version="1.0" encoding="iso-8859-1"?>
<!-- Generator: Adobe Illustrator 19.0.0, SVG Export Plug-In . SVG Version: 6.00 Build 0)  -->
<svg version="1.1" id="Layer_1" xmlns="http://www.w3.org/2000/svg" xmlns:xlink="http://www.w3.org/1999/xlink" x="0px" y="0px"
	 viewBox="0 0 511.999 511.999" style="enable-background:new 0 0 511.999 511.999;" xml:space="preserve">
<g>
	<g>
		<path d="M310.152,442.558h-19.68V186.04h112.259L351.213,0H160.786l-51.518,186.04h52.128v73.001h-12.167v30.417h54.751v-30.417
			h-12.167V186.04h29.714v256.519h-19.68c-24.929,0-45.21,20.281-45.21,45.21v24.23h198.726v-24.23
			C355.362,462.84,335.081,442.558,310.152,442.558z M165.034,155.623h-15.781l34.673-125.205h15.78L165.034,155.623z
			 M221.526,155.623h-24.929l34.671-125.205h96.805l34.672,125.205h-72.272H221.526z M260.055,186.04v256.519h-8.111V186.04H260.055
			z M188.41,481.583c2.346-5.076,7.488-8.606,13.436-8.606h19.68h68.946h19.68c5.949,0,11.09,3.53,13.436,8.606H188.41z"/>
	</g>
</g>
<g>
</g>
<g>
</g>
<g>
</g>
<g>
</g>
<g>
</g>
<g>
</g>
<g>
</g>
<g>
</g>
<g>
</g>
<g>
</g>
<g>
</g>
<g>
</g>
<g>
</g>
<g>
</g>
<g>
</g>
</svg>
