<?xml version="1.0" encoding="iso-8859-1"?>
<!-- Generator: Adobe Illustrator 19.0.0, SVG Export Plug-In . SVG Version: 6.00 Build 0)  -->
<svg version="1.1" id="Layer_1" xmlns="http://www.w3.org/2000/svg" xmlns:xlink="http://www.w3.org/1999/xlink" x="0px" y="0px"
	 viewBox="0 0 512 512" style="enable-background:new 0 0 512 512;" xml:space="preserve">
<g>
	<g>
		<path d="M474.658,430.477L474.658,430.477c-2.085-28.488-25.912-51.034-54.924-51.034h-11.756l-66.24-114.733l49.348-28.492
			c20.217-11.672,34.679-30.52,40.721-53.068c6.042-22.549,2.941-46.102-8.732-66.319L385.67,52.046
			c-24.094-41.734-77.652-56.082-119.387-31.991c-41.735,24.096-56.085,77.653-31.99,119.387l65.894,114.133l-66.451,38.366h-48.761
			V269.94h-30.417v22.002h-38.211C52.194,291.943,0,344.136,0,408.291v65.211h139.826c13.195,18.235,34.635,30.132,58.813,30.132
			c40.015,0,72.57-32.555,72.57-72.569c0-22.014-9.866-41.756-25.394-55.075v-55.897l69.582-40.173l57.624,99.81
			c-26.408,2.696-47.338,24.128-49.286,50.747h-37.342v73.157H512v-73.157H474.658z M154.217,373.741
			c-0.778,0.604-1.546,1.22-2.298,1.853c-0.047,0.04-0.092,0.081-0.139,0.121c-8.384,7.108-15.135,16.078-19.611,26.271
			c-0.053,0.12-0.109,0.237-0.162,0.358c-0.352,0.812-0.68,1.636-1.003,2.464c-0.102,0.263-0.211,0.522-0.31,0.786
			c-0.276,0.733-0.53,1.475-0.783,2.218c-0.126,0.371-0.258,0.739-0.377,1.113c-0.216,0.672-0.414,1.352-0.61,2.032
			c-0.132,0.456-0.267,0.911-0.39,1.372c-0.167,0.625-0.319,1.255-0.469,1.887c-0.126,0.527-0.252,1.054-0.367,1.586
			c-0.127,0.589-0.24,1.181-0.353,1.775c-0.111,0.582-0.218,1.165-0.313,1.752c-0.092,0.565-0.173,1.133-0.252,1.701
			c-0.087,0.624-0.168,1.248-0.239,1.877c-0.062,0.551-0.116,1.103-0.165,1.657c-0.058,0.65-0.108,1.302-0.149,1.957
			c-0.034,0.552-0.062,1.104-0.084,1.659c-0.012,0.321-0.041,0.639-0.049,0.961c-0.009,0.343,0.002,0.683-0.002,1.026
			c-0.004,0.301-0.023,0.598-0.023,0.9c0,0.261,0.017,0.517,0.019,0.777c0.007,0.623,0.024,1.243,0.048,1.864
			c0.022,0.617,0.048,1.234,0.085,1.847c0.032,0.528,0.076,1.055,0.121,1.581c0.058,0.698,0.12,1.393,0.197,2.086
			c0.049,0.427,0.107,0.853,0.163,1.28c0.1,0.771,0.205,1.54,0.33,2.303c0.015,0.095,0.025,0.191,0.041,0.286H30.417v-34.794
			c0-47.382,38.549-85.93,85.931-85.93h99.048v38.072c-4.214-0.995-8.531-1.606-12.909-1.833c-0.11-0.01-0.221-0.013-0.332-0.019
			c-1.08-0.051-2.163-0.079-3.249-0.082c-0.09,0-0.178-0.007-0.269-0.007c-0.041,0-0.08,0.003-0.121,0.003
			c-0.959,0.002-1.919,0.018-2.883,0.059c-0.126,0.005-0.248,0.019-0.374,0.024c-0.531,0.024-1.057,0.067-1.585,0.103
			c-0.686,0.047-1.372,0.091-2.053,0.157c-0.509,0.049-1.012,0.114-1.518,0.173c-0.687,0.081-1.374,0.162-2.055,0.262
			c-0.503,0.074-1.002,0.161-1.502,0.245c-0.67,0.112-1.34,0.228-2.005,0.359c-0.509,0.1-1.013,0.213-1.518,0.324
			c-0.642,0.142-1.282,0.285-1.916,0.444c-0.521,0.13-1.038,0.271-1.555,0.412c-0.603,0.165-1.206,0.333-1.803,0.513
			c-0.539,0.162-1.075,0.335-1.609,0.509c-0.558,0.182-1.114,0.369-1.666,0.565c-0.562,0.199-1.119,0.407-1.675,0.618
			c-0.508,0.195-1.013,0.393-1.516,0.598c-0.586,0.239-1.169,0.487-1.747,0.741c-0.453,0.2-0.904,0.404-1.353,0.612
			c-0.613,0.285-1.222,0.576-1.826,0.878c-0.395,0.198-0.788,0.4-1.179,0.605c-0.642,0.335-1.28,0.676-1.91,1.03
			c-0.334,0.188-0.664,0.38-0.995,0.573c-0.672,0.391-1.339,0.789-1.998,1.2c-0.27,0.169-0.535,0.343-0.803,0.515
			c-0.705,0.453-1.403,0.915-2.091,1.391c-0.201,0.14-0.398,0.284-0.598,0.425c-0.739,0.524-1.471,1.056-2.19,1.607
			C154.468,373.541,154.344,373.643,154.217,373.741z M198.638,473.217c-16.525,0-30.851-9.563-37.757-23.442
			c-0.099-0.2-0.202-0.397-0.298-0.598c-0.208-0.435-0.404-0.875-0.597-1.318c-0.143-0.33-0.282-0.661-0.416-0.994
			c-0.153-0.377-0.306-0.754-0.449-1.137c-0.265-0.714-0.517-1.433-0.742-2.16c-0.043-0.138-0.077-0.279-0.119-0.418
			c-0.202-0.675-0.388-1.356-0.556-2.041c-0.052-0.211-0.098-0.423-0.147-0.635c-0.149-0.654-0.284-1.31-0.401-1.971
			c-0.031-0.178-0.066-0.356-0.095-0.534c-0.278-1.678-0.454-3.376-0.529-5.085c-0.009-0.216-0.01-0.434-0.016-0.65
			c-0.017-0.622-0.022-1.244-0.012-1.868c0.005-0.332,0.012-0.663,0.025-0.993c0.012-0.314,0.028-0.627,0.048-0.939
			c0.024-0.4,0.056-0.798,0.091-1.194c0.026-0.294,0.055-0.587,0.087-0.879c0.046-0.406,0.097-0.81,0.155-1.213
			c0.04-0.282,0.08-0.564,0.126-0.844c0.066-0.404,0.139-0.805,0.216-1.206c0.053-0.276,0.105-0.553,0.164-0.826
			c0.084-0.395,0.177-0.788,0.273-1.179c0.067-0.275,0.133-0.551,0.205-0.823c0.101-0.381,0.212-0.758,0.323-1.136
			c0.082-0.278,0.162-0.556,0.249-0.831c0.116-0.363,0.241-0.722,0.367-1.082c0.098-0.282,0.194-0.565,0.298-0.844
			c0.128-0.343,0.266-0.679,0.403-1.018c0.117-0.289,0.229-0.579,0.351-0.864c0.137-0.319,0.285-0.634,0.43-0.949
			c0.136-0.295,0.267-0.593,0.41-0.885c0.142-0.292,0.295-0.578,0.444-0.866c0.158-0.306,0.312-0.615,0.478-0.918
			c0.14-0.255,0.29-0.503,0.434-0.754c0.188-0.326,0.371-0.656,0.567-0.976c0.108-0.178,0.226-0.35,0.338-0.526
			c0.804-1.272,1.674-2.498,2.606-3.675c0.158-0.2,0.311-0.405,0.474-0.602c0.229-0.279,0.469-0.548,0.706-0.821
			c0.198-0.229,0.391-0.461,0.593-0.684c0.223-0.247,0.456-0.486,0.684-0.728c0.228-0.241,0.453-0.485,0.686-0.72
			c0.217-0.219,0.443-0.431,0.665-0.645c0.258-0.248,0.512-0.498,0.776-0.739c0.213-0.195,0.432-0.383,0.648-0.574
			c0.284-0.25,0.568-0.502,0.859-0.744c0.207-0.172,0.42-0.34,0.63-0.508c0.312-0.25,0.625-0.5,0.943-0.741
			c0.201-0.151,0.405-0.298,0.608-0.446c0.34-0.248,0.68-0.494,1.028-0.732c0.193-0.132,0.389-0.26,0.584-0.388
			c0.367-0.242,0.737-0.483,1.112-0.714c0.185-0.114,0.371-0.224,0.558-0.335c0.394-0.235,0.792-0.465,1.194-0.688
			c0.177-0.097,0.356-0.193,0.534-0.288c0.42-0.224,0.844-0.442,1.271-0.652c0.169-0.083,0.34-0.165,0.511-0.245
			c0.444-0.211,0.892-0.414,1.345-0.609c0.163-0.07,0.326-0.14,0.491-0.208c0.466-0.195,0.938-0.38,1.413-0.559
			c0.157-0.059,0.314-0.118,0.471-0.174c0.487-0.175,0.977-0.341,1.472-0.499c0.154-0.049,0.308-0.099,0.463-0.147
			c0.501-0.153,1.007-0.296,1.516-0.431c0.155-0.042,0.31-0.084,0.466-0.124c0.509-0.129,1.023-0.246,1.539-0.357
			c0.162-0.034,0.324-0.071,0.487-0.104c0.509-0.102,1.023-0.192,1.538-0.275c0.176-0.028,0.352-0.061,0.529-0.087
			c0.496-0.074,0.997-0.134,1.498-0.191c0.204-0.022,0.406-0.05,0.609-0.07c0.466-0.046,0.936-0.077,1.406-0.107
			c0.245-0.015,0.49-0.036,0.736-0.048c0.658-0.031,1.319-0.05,1.984-0.051c0.044,0,0.086,0.002,0.13,0.002
			c0.626,0.001,1.248,0.018,1.868,0.047c0.165,0.008,0.329,0.019,0.495,0.028c0.534,0.031,1.066,0.071,1.594,0.122
			c0.131,0.012,0.262,0.024,0.392,0.037c21.155,2.235,37.695,20.178,37.695,41.915C240.791,454.307,221.881,473.217,198.638,473.217
			z M260.637,124.235c-7.609-13.181-9.632-28.536-5.692-43.238c3.94-14.702,13.368-26.989,26.548-34.6
			c8.952-5.168,18.733-7.623,28.394-7.623c19.707,0,38.902,10.221,49.443,28.48l37.405,64.787
			c7.609,13.181,9.632,28.536,5.692,43.238c-3.939,14.701-13.367,26.988-26.549,34.599l-49.347,28.491L260.637,124.235z
			 M378.657,409.86h41.076c12.224,0,22.399,8.936,24.339,20.617h-89.753C356.259,418.795,366.435,409.86,378.657,409.86z
			 M481.583,473.217H316.809v-12.323h6.76h151.254h6.76V473.217z"/>
	</g>
</g>
<g>
</g>
<g>
</g>
<g>
</g>
<g>
</g>
<g>
</g>
<g>
</g>
<g>
</g>
<g>
</g>
<g>
</g>
<g>
</g>
<g>
</g>
<g>
</g>
<g>
</g>
<g>
</g>
<g>
</g>
</svg>
