<?xml version="1.0" encoding="iso-8859-1"?>
<!-- Generator: Adobe Illustrator 19.0.0, SVG Export Plug-In . SVG Version: 6.00 Build 0)  -->
<svg version="1.1" id="Layer_1" xmlns="http://www.w3.org/2000/svg" xmlns:xlink="http://www.w3.org/1999/xlink" x="0px" y="0px"
	 viewBox="0 0 512 512" style="enable-background:new 0 0 512 512;" xml:space="preserve">
<g>
	<g>
		<path d="M0,0v512h512V0H0z M190.945,30.417h130.11v65.9h-130.11V30.417z M321.055,288.949h-130.11V223.05h130.11V288.949z
			 M401.319,319.366v65.9h-130.11v-65.9H401.319z M240.791,319.366v65.9h-130.11v-65.9H240.791z M110.681,192.634v-65.9h130.11v65.9
			H110.681z M271.209,192.633v-65.9h130.11v65.9H271.209z M30.417,30.417h130.11v65.9H30.417V30.417z M30.417,126.733h49.847v65.9
			H30.417V126.733z M30.417,223.05h130.11v65.899H30.417V223.05z M30.417,319.366h49.847v65.9H30.417V319.366z M160.528,481.583
			H30.417v-65.9h130.11V481.583z M321.055,481.583h-130.11v-65.9h130.11V481.583z M481.583,481.583h-130.11v-65.9h130.11V481.583z
			 M431.735,385.266v-65.9h49.847v65.9H431.735z M481.583,288.949h-130.11V223.05h130.11V288.949z M431.735,192.633v-65.9h49.847
			v65.9H431.735z M481.583,96.317L481.583,96.317h-130.11v-65.9h130.11V96.317z"/>
	</g>
</g>
<g>
</g>
<g>
</g>
<g>
</g>
<g>
</g>
<g>
</g>
<g>
</g>
<g>
</g>
<g>
</g>
<g>
</g>
<g>
</g>
<g>
</g>
<g>
</g>
<g>
</g>
<g>
</g>
<g>
</g>
</svg>
