<?xml version="1.0" encoding="iso-8859-1"?>
<!-- Generator: Adobe Illustrator 19.0.0, SVG Export Plug-In . SVG Version: 6.00 Build 0)  -->
<svg version="1.1" id="Layer_1" xmlns="http://www.w3.org/2000/svg" xmlns:xlink="http://www.w3.org/1999/xlink" x="0px" y="0px"
	 viewBox="0 0 512 512" style="enable-background:new 0 0 512 512;" xml:space="preserve">
<g>
	<g>
		<path d="M443.065,178.086V159.52c0-64.612-52.566-117.177-117.177-117.177H186.112c-64.612,0-117.177,52.566-117.177,117.177
			v18.566C30.526,180.457,0,212.442,0,251.437c0,29.109,17.225,55.158,43.079,66.92v151.3h73.52h30.417h217.967h30.417h73.52v-151.3
			C494.775,306.594,512,280.546,512,251.437C512,212.442,481.474,180.457,443.065,178.086z M116.599,270.13v30.417v21.875v30.417
			v86.4H73.496V296.068l-11.247-3.035c-18.742-5.057-31.832-22.162-31.832-41.596c0-23.761,19.33-43.091,43.091-43.091
			c2.696,0,5.331,0.261,7.891,0.737c0.577,0.107,1.149,0.227,1.717,0.356c0.112,0.025,0.222,0.051,0.333,0.077
			c0.485,0.114,0.965,0.237,1.443,0.367c0.225,0.062,0.449,0.127,0.673,0.192c0.37,0.107,0.739,0.218,1.104,0.334
			c0.393,0.127,0.785,0.261,1.173,0.397c0.2,0.07,0.401,0.138,0.6,0.211c12.454,4.616,22.213,14.831,26.2,27.574
			c0.024,0.079,0.047,0.159,0.071,0.239c0.168,0.551,0.326,1.105,0.474,1.665c0.052,0.197,0.098,0.395,0.147,0.594
			c0.11,0.448,0.216,0.898,0.313,1.353c0.053,0.245,0.101,0.491,0.149,0.737c0.081,0.417,0.156,0.835,0.225,1.257
			c0.044,0.265,0.086,0.529,0.125,0.796c0.061,0.419,0.113,0.84,0.161,1.262c0.03,0.263,0.063,0.525,0.088,0.789
			c0.044,0.458,0.076,0.921,0.105,1.383c0.014,0.228,0.034,0.455,0.046,0.684c0.033,0.692,0.053,1.386,0.053,2.086V270.13z
			 M364.983,439.24H147.017v-86.4h217.967V439.24z M364.983,322.423H147.017v-21.874h217.967V322.423z M368.322,229.513
			c-0.036,0.116-0.069,0.233-0.104,0.349c-0.286,0.933-0.554,1.874-0.803,2.821c-0.073,0.277-0.144,0.555-0.214,0.833
			c-0.215,0.856-0.413,1.716-0.597,2.582c-0.054,0.251-0.113,0.502-0.163,0.754c-0.22,1.091-0.419,2.188-0.59,3.295
			c-0.03,0.196-0.053,0.394-0.081,0.591c-0.133,0.907-0.249,1.82-0.349,2.738c-0.04,0.362-0.072,0.725-0.106,1.088
			c-0.075,0.803-0.136,1.61-0.185,2.419c-0.021,0.346-0.045,0.69-0.061,1.037c-0.052,1.134-0.086,2.271-0.086,3.416v18.694h-32.936
			V144.132h-30.417v125.999h-30.421V144.132h-30.417v125.999H210.37V144.132h-30.417v125.999h-32.936v-18.694
			c0-1.145-0.034-2.282-0.086-3.416c-0.016-0.347-0.041-0.691-0.061-1.037c-0.049-0.81-0.109-1.616-0.185-2.419
			c-0.033-0.363-0.067-0.726-0.106-1.088c-0.099-0.918-0.216-1.829-0.349-2.738c-0.028-0.197-0.051-0.395-0.081-0.591
			c-0.171-1.106-0.37-2.204-0.59-3.295c-0.052-0.253-0.109-0.502-0.163-0.754c-0.185-0.866-0.383-1.727-0.597-2.582
			c-0.07-0.279-0.141-0.557-0.214-0.833c-0.25-0.948-0.517-1.89-0.804-2.824c-0.035-0.115-0.067-0.23-0.103-0.345
			c-6.699-21.455-22.989-38.92-44.326-46.902V159.52c0-47.84,38.921-86.76,86.76-86.76h139.776c47.84,0,86.76,38.921,86.76,86.76
			v23.092C391.312,190.594,375.021,208.059,368.322,229.513z M449.75,293.033l-11.247,3.035V439.24H395.4v-86.4v-30.417v-21.874
			v-30.417v-18.694c0-0.7,0.02-1.394,0.053-2.086c0.011-0.229,0.031-0.456,0.046-0.684c0.029-0.462,0.062-0.925,0.105-1.383
			c0.025-0.264,0.058-0.526,0.088-0.789c0.049-0.423,0.1-0.844,0.161-1.262c0.039-0.266,0.081-0.531,0.125-0.796
			c0.069-0.421,0.144-0.84,0.225-1.257c0.048-0.246,0.096-0.493,0.149-0.737c0.096-0.454,0.202-0.904,0.313-1.353
			c0.049-0.198,0.095-0.396,0.147-0.594c0.147-0.56,0.305-1.114,0.474-1.665c0.024-0.079,0.046-0.159,0.071-0.239
			c3.988-12.743,13.747-22.958,26.2-27.574c0.199-0.073,0.399-0.141,0.6-0.211c0.389-0.138,0.78-0.272,1.173-0.397
			c0.366-0.117,0.734-0.227,1.104-0.334c0.224-0.065,0.448-0.13,0.673-0.192c0.478-0.13,0.958-0.253,1.443-0.367
			c0.111-0.026,0.222-0.052,0.333-0.077c0.568-0.129,1.14-0.249,1.717-0.356c2.56-0.477,5.195-0.737,7.891-0.737
			c23.761,0,43.091,19.33,43.091,43.091C481.583,270.871,468.492,287.976,449.75,293.033z"/>
	</g>
</g>
<g>
</g>
<g>
</g>
<g>
</g>
<g>
</g>
<g>
</g>
<g>
</g>
<g>
</g>
<g>
</g>
<g>
</g>
<g>
</g>
<g>
</g>
<g>
</g>
<g>
</g>
<g>
</g>
<g>
</g>
</svg>
