<?xml version="1.0" encoding="iso-8859-1"?>
<!-- Generator: Adobe Illustrator 19.0.0, SVG Export Plug-In . SVG Version: 6.00 Build 0)  -->
<svg version="1.1" id="Layer_1" xmlns="http://www.w3.org/2000/svg" xmlns:xlink="http://www.w3.org/1999/xlink" x="0px" y="0px"
	 viewBox="0 0 512 512" style="enable-background:new 0 0 512 512;" xml:space="preserve">
<g>
	<g>
		<path d="M335.768,121.317v-24.5c0-27.862-22.668-50.53-50.53-50.53h-58.476c-27.862,0-50.53,22.668-50.53,50.53v24.501H0v113.546
			v30.417v200.431h512V265.281v-30.417V121.317H335.768z M206.647,96.817L206.647,96.817c0.001-11.09,9.024-20.113,20.114-20.113
			h58.476c11.09,0,20.113,9.023,20.113,20.113v24.501h-98.703V96.817z M30.417,151.735h145.814h159.537h145.814v83.129H304.008
			v-48.665h-96.017v48.665H30.417V151.735z M238.409,234.864v-18.248h35.183v18.248H238.409z M273.591,265.281v18.248h-35.183
			v-18.248H273.591z M481.583,435.295H30.417V265.281h177.574v48.665h96.017v-48.665h177.574V435.295z"/>
	</g>
</g>
<g>
</g>
<g>
</g>
<g>
</g>
<g>
</g>
<g>
</g>
<g>
</g>
<g>
</g>
<g>
</g>
<g>
</g>
<g>
</g>
<g>
</g>
<g>
</g>
<g>
</g>
<g>
</g>
<g>
</g>
</svg>
