<?xml version="1.0" encoding="iso-8859-1"?>
<!-- Generator: Adobe Illustrator 19.0.0, SVG Export Plug-In . SVG Version: 6.00 Build 0)  -->
<svg version="1.1" id="Layer_1" xmlns="http://www.w3.org/2000/svg" xmlns:xlink="http://www.w3.org/1999/xlink" x="0px" y="0px"
	 viewBox="0 0 512 512" style="enable-background:new 0 0 512 512;" xml:space="preserve">
<g>
	<g>
		<path d="M466.011,223.074h-1.147V104.93h-52.723V20.28H99.859v84.649H47.135v118.144h-1.147C20.631,223.074,0,243.705,0,269.063
			V491.72h64.879h382.242H512V269.063C512,243.705,491.369,223.074,466.011,223.074z M412.141,135.347h22.306v87.727h-22.306
			V135.347z M381.724,50.697v54.232v118.144H130.276V104.93V50.697H381.724z M77.553,135.347h22.306v87.727H77.553V135.347z
			 M416.704,461.303H95.296v-28.127h321.408V461.303z M416.704,402.759H95.296v-28.127h321.408V402.759z M481.583,461.303
			L481.583,461.303h-34.462v-28.127v-30.417v-58.544H64.879v58.544v30.417v28.127H30.417V269.063c0-8.586,6.986-15.57,15.572-15.57
			h1.147h52.723h30.417h251.449h30.417h52.723h1.147c8.586,0,15.572,6.986,15.572,15.57V461.303z"/>
	</g>
</g>
<g>
	<g>
		<rect x="64.878" y="293.516" width="38.021" height="30.417"/>
	</g>
</g>
<g>
	<g>
		<rect x="123.179" y="293.516" width="38.021" height="30.417"/>
	</g>
</g>
<g>
	<g>
		<rect x="358.405" y="293.516" width="88.717" height="30.417"/>
	</g>
</g>
<g>
	<g>
		<rect x="153.597" y="70.974" width="204.809" height="30.417"/>
	</g>
</g>
<g>
	<g>
		<rect x="153.597" y="121.679" width="204.809" height="30.417"/>
	</g>
</g>
<g>
	<g>
		<rect x="153.597" y="172.375" width="204.809" height="30.417"/>
	</g>
</g>
<g>
</g>
<g>
</g>
<g>
</g>
<g>
</g>
<g>
</g>
<g>
</g>
<g>
</g>
<g>
</g>
<g>
</g>
<g>
</g>
<g>
</g>
<g>
</g>
<g>
</g>
<g>
</g>
<g>
</g>
</svg>
