<?xml version="1.0" encoding="iso-8859-1"?>
<!-- Generator: Adobe Illustrator 19.0.0, SVG Export Plug-In . SVG Version: 6.00 Build 0)  -->
<svg version="1.1" id="Layer_1" xmlns="http://www.w3.org/2000/svg" xmlns:xlink="http://www.w3.org/1999/xlink" x="0px" y="0px"
	 viewBox="0 0 512 512" style="enable-background:new 0 0 512 512;" xml:space="preserve">
<g>
	<g>
		<path d="M512,198.989v-51.78l-256-104.73L0,147.208v51.78h26.811v161.888H0v108.645h512V360.877h-26.811V198.989H512z
			 M30.417,167.629l225.582-92.286l225.582,92.286v0.943h-79.073h-42.554h-82.679h-42.555h-82.679h-42.554H30.417V167.629z
			 M454.771,198.989v161.888h-21.845V198.989H454.771z M402.51,198.989v161.888h-42.554V198.989H402.51z M329.539,198.989v161.888
			h-21.845V198.989H329.539z M277.277,198.989v161.888h-42.555V198.989H277.277z M204.305,198.989v161.888h-21.845V198.989H204.305z
			 M152.044,198.989v161.888H109.49V198.989H152.044z M79.073,198.989v161.888H57.228V198.989H79.073z M481.583,439.105H30.417
			v-47.811h79.073h42.554h82.679h42.555h82.679h42.554h79.073V439.105z"/>
	</g>
</g>
<g>
</g>
<g>
</g>
<g>
</g>
<g>
</g>
<g>
</g>
<g>
</g>
<g>
</g>
<g>
</g>
<g>
</g>
<g>
</g>
<g>
</g>
<g>
</g>
<g>
</g>
<g>
</g>
<g>
</g>
</svg>
