<?xml version="1.0" encoding="iso-8859-1"?>
<!-- Generator: Adobe Illustrator 19.0.0, SVG Export Plug-In . SVG Version: 6.00 Build 0)  -->
<svg version="1.1" id="Layer_1" xmlns="http://www.w3.org/2000/svg" xmlns:xlink="http://www.w3.org/1999/xlink" x="0px" y="0px"
	 viewBox="0 0 512 512" style="enable-background:new 0 0 512 512;" xml:space="preserve">
<g>
	<g>
		<path d="M240.72,50.695c-42.356,0-82.818,15.895-113.931,44.756c-30.937,28.699-49.826,67.541-53.186,109.373l30.32,2.435
			c2.749-34.217,18.216-66.005,43.552-89.508c25.471-23.628,58.585-36.64,93.245-36.64c44.408,0,86.293,21.668,112.044,57.962
			l24.807-17.6C346.128,77.155,294.968,50.695,240.72,50.695z"/>
	</g>
</g>
<g>
	<g>
		<path d="M459.074,212.633V85.732h-44.88C372.97,31.904,308.713,0,240.72,0C182.396,0,127.563,22.713,86.322,63.954
			c-40.572,40.572-63.212,94.298-63.937,151.562L0.963,271.945h45.216v45.345h82.034l28.109,60.305V512h75.763V377.595
			l28.109-60.305H431.9v-45.345h79.136L459.074,212.633z M201.668,481.583h-14.929v-92.149h14.929V481.583z M207.185,359.016
			h-25.964l-19.45-41.726h64.864L207.185,359.016z M401.483,286.872H274.372H114.035H76.595v-14.928h324.888V286.872z
			 M431.899,241.528H46.178h-1.133l7.739-20.385v-2.789c0-103.628,84.307-187.937,187.935-187.937
			c60.809,0,118.149,29.654,153.39,79.323l4.545,6.408h30v107.925l15.292,17.454H431.899z"/>
	</g>
</g>
<g>
</g>
<g>
</g>
<g>
</g>
<g>
</g>
<g>
</g>
<g>
</g>
<g>
</g>
<g>
</g>
<g>
</g>
<g>
</g>
<g>
</g>
<g>
</g>
<g>
</g>
<g>
</g>
<g>
</g>
</svg>
