<?xml version="1.0" encoding="iso-8859-1"?>
<!-- Generator: Adobe Illustrator 19.0.0, SVG Export Plug-In . SVG Version: 6.00 Build 0)  -->
<svg version="1.1" id="Layer_1" xmlns="http://www.w3.org/2000/svg" xmlns:xlink="http://www.w3.org/1999/xlink" x="0px" y="0px"
	 viewBox="0 0 512 512" style="enable-background:new 0 0 512 512;" xml:space="preserve">
<g>
	<g>
		<path d="M0,0v512h512V0H0z M481.583,481.583H30.417V30.417h451.166V481.583z"/>
	</g>
</g>
<g>
	<g>
		<path d="M50.695,50.695v46.121h-9.27v30.417h9.27v257.533h-9.27v30.417h9.27v46.122h410.609V50.695H50.695z M430.887,430.887
			H81.113v-15.703h29.549v-30.417H81.113V127.234h29.549V96.817H81.113V81.113h349.775V430.887z"/>
	</g>
</g>
<g>
	<g>
		<path d="M301.289,210.712v-69.621h-90.576v69.621H141.09v90.576h69.622v69.621h0h90.576v-69.621h69.621v-90.576H301.289z
			 M340.492,270.872h-69.621v69.621H241.13v-69.621h-69.622V241.13h69.622v-69.621h29.742v69.621h69.621V270.872z"/>
	</g>
</g>
<g>
	<g>
		<rect x="385.69" y="231.526" width="30.417" height="48.951"/>
	</g>
</g>
<g>
</g>
<g>
</g>
<g>
</g>
<g>
</g>
<g>
</g>
<g>
</g>
<g>
</g>
<g>
</g>
<g>
</g>
<g>
</g>
<g>
</g>
<g>
</g>
<g>
</g>
<g>
</g>
<g>
</g>
</svg>
