<?xml version="1.0" encoding="iso-8859-1"?>
<!-- Generator: Adobe Illustrator 19.0.0, SVG Export Plug-In . SVG Version: 6.00 Build 0)  -->
<svg version="1.1" id="Layer_1" xmlns="http://www.w3.org/2000/svg" xmlns:xlink="http://www.w3.org/1999/xlink" x="0px" y="0px"
	 viewBox="0 0 512 512" style="enable-background:new 0 0 512 512;" xml:space="preserve">
<g>
	<g>
		<path d="M371.833,179.957v-64.124C371.833,51.963,319.87,0,256,0c-63.87,0-115.833,51.963-115.833,115.833v64.124H89.979v216.527
			C89.979,460.179,141.8,512,205.495,512h101.009c63.696,0,115.516-51.821,115.516-115.516V179.957H371.833z M170.585,115.833
			c0-47.098,38.318-85.415,85.415-85.415s85.415,38.318,85.415,85.415v64.124H170.585V115.833z M391.604,396.483
			c0,46.924-38.176,85.099-85.099,85.099H205.495c-46.924,0-85.099-38.176-85.099-85.099V210.374h19.771h231.665h19.771V396.483z"/>
	</g>
</g>
<g>
	<g>
		<path d="M256,257.995c-30.293,0-54.938,24.645-54.938,54.938c0,15.898,6.757,30.702,18.419,41.043v58.164h73.041v-58.164
			c11.662-10.341,18.419-25.146,18.419-41.043C310.938,282.64,286.293,257.995,256,257.995z M269.14,333.63l-7.036,4.483v43.611
			h-12.206v-43.611l-7.037-4.483c-7.127-4.54-11.381-12.277-11.381-20.696c0-13.52,11.001-24.521,24.521-24.521
			c13.52,0,24.521,11.001,24.521,24.521C280.521,321.352,276.267,329.089,269.14,333.63z"/>
	</g>
</g>
<g>
</g>
<g>
</g>
<g>
</g>
<g>
</g>
<g>
</g>
<g>
</g>
<g>
</g>
<g>
</g>
<g>
</g>
<g>
</g>
<g>
</g>
<g>
</g>
<g>
</g>
<g>
</g>
<g>
</g>
</svg>
