<?xml version="1.0" encoding="iso-8859-1"?>
<!-- Generator: Adobe Illustrator 19.0.0, SVG Export Plug-In . SVG Version: 6.00 Build 0)  -->
<svg version="1.1" id="Layer_1" xmlns="http://www.w3.org/2000/svg" xmlns:xlink="http://www.w3.org/1999/xlink" x="0px" y="0px"
	 viewBox="0 0 512 512" style="enable-background:new 0 0 512 512;" xml:space="preserve">
<g>
	<g>
		<path d="M407.11,127.511L407.11,127.511l-28.448,91.976l-34.243,8.619l25.762-83.294H0L35.716,250.05
			c-21.092,12.657-35.241,35.745-35.241,62.082c0,39.898,32.458,72.357,72.357,72.357s72.357-32.459,72.357-72.357
			c0-0.848-0.035-1.687-0.064-2.527l55.726-14.026l36.963-9.303l54.905,98.214h44.391V261.283l65.536-16.495L429.52,157.9H512
			v-30.389H407.11z M72.832,354.1c-23.141,0-41.968-18.827-41.968-41.968c0-18.55,12.103-34.317,28.823-39.848
			c0.381-0.126,0.763-0.248,1.146-0.364c0.187-0.056,0.376-0.107,0.564-0.16c0.412-0.117,0.826-0.234,1.241-0.338
			c0.042-0.01,0.084-0.019,0.127-0.029c0.839-0.208,1.685-0.383,2.533-0.539c0.283-0.052,0.564-0.106,0.849-0.152
			c0.309-0.05,0.62-0.091,0.93-0.134c0.344-0.048,0.69-0.093,1.037-0.132c0.281-0.031,0.561-0.061,0.842-0.086
			c0.409-0.037,0.82-0.068,1.233-0.094c0.23-0.014,0.459-0.031,0.689-0.043c0.648-0.03,1.3-0.05,1.955-0.05
			c0.672,0,1.338,0.019,2.003,0.051c0.204,0.009,0.405,0.026,0.608,0.039c0.467,0.028,0.933,0.063,1.396,0.106
			c0.22,0.021,0.439,0.046,0.658,0.07c0.464,0.052,0.925,0.109,1.384,0.176c0.188,0.027,0.376,0.054,0.563,0.084
			c0.555,0.088,1.106,0.186,1.654,0.296c0.079,0.016,0.159,0.029,0.238,0.046c10.55,2.18,19.656,8.339,25.697,16.824l-42.004,10.572
			l7.417,29.47l42.021-10.576C111.903,338.022,94.216,354.1,72.832,354.1z M306.721,347.26l-38.386-68.667l0.552-0.139l37.834-9.523
			V347.26z M309.924,236.788l-17.978,4.525l-154.193,38.811c-9.823-19.985-28.382-34.343-50.227-38.845
			c-0.121-0.025-0.241-0.048-0.362-0.072c-0.99-0.199-1.985-0.377-2.988-0.535c-0.172-0.027-0.344-0.058-0.517-0.083
			c-1.095-0.164-2.197-0.307-3.306-0.421c-0.174-0.018-0.349-0.03-0.525-0.047c-0.926-0.089-1.856-0.159-2.79-0.213
			c-0.295-0.017-0.589-0.033-0.884-0.048c-1.103-0.05-2.209-0.084-3.323-0.084c-1.128,0-2.254,0.033-3.377,0.086
			c-0.175,0.008-0.35,0.013-0.526,0.022c-1.025,0.056-2.047,0.136-3.067,0.234c-0.275,0.026-0.549,0.054-0.824,0.084
			c-0.183,0.019-0.369,0.033-0.553,0.056l-22.08-65.058h286.567L309.924,236.788z"/>
	</g>
</g>
<g>
</g>
<g>
</g>
<g>
</g>
<g>
</g>
<g>
</g>
<g>
</g>
<g>
</g>
<g>
</g>
<g>
</g>
<g>
</g>
<g>
</g>
<g>
</g>
<g>
</g>
<g>
</g>
<g>
</g>
</svg>
