<?xml version="1.0" encoding="iso-8859-1"?>
<!-- Generator: Adobe Illustrator 19.0.0, SVG Export Plug-In . SVG Version: 6.00 Build 0)  -->
<svg version="1.1" id="Layer_1" xmlns="http://www.w3.org/2000/svg" xmlns:xlink="http://www.w3.org/1999/xlink" x="0px" y="0px"
	 viewBox="0 0 512 512" style="enable-background:new 0 0 512 512;" xml:space="preserve">
<g>
	<g>
		<path d="M479.992,149.554l-21.526-21.526l-10.481-10.481L426.46,96.022l-10.481-10.481l-21.526-21.525l-10.481-10.481
			l-21.526-21.526L330.438,0L226.694,103.744l-21.526,21.525l-12.885,12.885l-21.526,21.526l-38.623,38.623l38.119,38.118
			c5.947,5.948,9.141,13.855,8.992,22.265c-0.149,8.411-3.622,16.199-9.777,21.932L16.319,423.262
			c-10.268,9.563-16.061,22.556-16.31,36.586c-0.249,14.03,5.078,27.221,15.001,37.143C24.711,506.692,37.533,512,51.212,512
			c0.313,0,0.628-0.003,0.942-0.008c14.03-0.25,27.023-6.042,36.586-16.31l142.642-153.15c5.732-6.155,13.521-9.627,21.931-9.777
			c8.398-0.146,16.318,3.044,22.265,8.992l38.118,38.119l38.623-38.623l21.526-21.526l12.885-12.885l21.526-21.526l103.744-103.744
			L479.992,149.554z M394.453,107.066l10.481,10.481l-82.219,82.219l-10.481-10.481L394.453,107.066z M372.927,85.54l-82.219,82.219
			l-10.481-10.481l82.219-82.219L372.927,85.54z M330.438,43.052l10.481,10.481l-82.219,82.219l-10.481-10.481L330.438,43.052z
			 M313.696,336.814l-16.593-16.593c-11.843-11.843-27.602-18.223-44.332-17.904c-16.745,0.297-32.253,7.211-43.668,19.467
			L66.462,474.934c-3.882,4.167-9.156,6.519-14.851,6.62c-5.708,0.125-11.049-2.061-15.077-6.088
			c-4.027-4.027-6.19-9.382-6.088-15.077c0.102-5.695,2.453-10.968,6.62-14.851l153.151-142.642
			c12.255-11.416,19.168-26.924,19.466-43.669s-6.061-32.489-17.904-44.332l-16.593-16.593l17.096-17.096l138.51,138.511
			L313.696,336.814z M352.319,298.191l-138.51-138.51l12.885-12.885l10.481,10.481l21.526,21.526l10.481,10.481l21.526,21.526
			l10.481,10.481l21.526,21.526l10.481,10.481l21.526,21.526l10.481,10.481L352.319,298.191z M354.723,231.773l-10.481-10.481
			l82.219-82.219l10.481,10.481L354.723,231.773z M386.729,263.78l-10.481-10.481l82.219-82.219l10.481,10.481L386.729,263.78z"/>
	</g>
</g>
<g>
</g>
<g>
</g>
<g>
</g>
<g>
</g>
<g>
</g>
<g>
</g>
<g>
</g>
<g>
</g>
<g>
</g>
<g>
</g>
<g>
</g>
<g>
</g>
<g>
</g>
<g>
</g>
<g>
</g>
</svg>
