<?xml version="1.0" encoding="iso-8859-1"?>
<!-- Generator: Adobe Illustrator 19.0.0, SVG Export Plug-In . SVG Version: 6.00 Build 0)  -->
<svg version="1.1" id="Layer_1" xmlns="http://www.w3.org/2000/svg" xmlns:xlink="http://www.w3.org/1999/xlink" x="0px" y="0px"
	 viewBox="0 0 512 512" style="enable-background:new 0 0 512 512;" xml:space="preserve">
<g>
	<g>
		<path d="M246.114,179.956v-64.124C246.114,51.963,194.151,0,130.281,0S14.448,51.963,14.448,115.833v79.332h30.417v-79.332
			c0-47.098,38.318-85.416,85.416-85.416s85.416,38.318,85.416,85.416v64.124h-50.188v216.527
			c0,63.696,51.821,115.516,115.517,115.516h101.011c63.696,0,115.516-51.82,115.516-115.516V179.956H246.114z M467.135,396.484
			L467.135,396.484c0,46.924-38.176,85.099-85.099,85.099h-101.01c-46.924,0-85.099-38.175-85.099-85.099v-186.11h271.209V396.484z"
			/>
	</g>
</g>
<g>
	<g>
		<path d="M331.531,257.996c-30.293,0-54.939,24.645-54.939,54.939c0,15.897,6.756,30.702,18.418,41.043v58.164h73.041v-58.164
			c11.662-10.341,18.419-25.146,18.419-41.043C386.469,282.641,361.824,257.996,331.531,257.996z M344.67,333.629l-7.036,4.484
			v43.612h-12.206v-43.612l-7.037-4.484c-7.127-4.54-11.381-12.275-11.381-20.695c0-13.52,11-24.521,24.52-24.521
			s24.521,11.001,24.521,24.521C356.051,321.354,351.796,329.09,344.67,333.629z"/>
	</g>
</g>
<g>
</g>
<g>
</g>
<g>
</g>
<g>
</g>
<g>
</g>
<g>
</g>
<g>
</g>
<g>
</g>
<g>
</g>
<g>
</g>
<g>
</g>
<g>
</g>
<g>
</g>
<g>
</g>
<g>
</g>
</svg>
