<?xml version="1.0" encoding="iso-8859-1"?>
<!-- Generator: Adobe Illustrator 19.0.0, SVG Export Plug-In . SVG Version: 6.00 Build 0)  -->
<svg version="1.1" id="Layer_1" xmlns="http://www.w3.org/2000/svg" xmlns:xlink="http://www.w3.org/1999/xlink" x="0px" y="0px"
	 viewBox="0 0 511.999 511.999" style="enable-background:new 0 0 511.999 511.999;" xml:space="preserve">
<g>
	<g>
		<path d="M509.575,106.968l-3.936-14.69l-117.358,31.447L419.727,6.367l-14.69-3.937c-37.763-10.115-76.718,12.374-86.838,50.137
			l-25.963,96.893l-79.76,21.371l5.102,19.042l-22.685,6.078l-5.102-19.042L31.931,219.208
			c-11.109,2.977-20.395,10.101-26.144,20.061c-5.751,9.96-7.278,21.564-4.301,32.673v-0.001
			c2.977,11.109,10.1,20.393,20.061,26.144c6.634,3.83,13.997,5.787,21.457,5.786c3.74,0,7.505-0.491,11.215-1.485l128.48-34.426
			l52.066-13.951l31.738-8.505l-8.505,31.738l-13.951,52.066L209.62,457.788c-2.977,11.108-1.449,22.711,4.301,32.672
			c5.75,9.961,15.035,17.085,26.144,20.061c3.719,0.996,7.454,1.471,11.133,1.471c19.008,0,36.452-12.703,41.599-31.916
			l42.299-157.86l-19.042-5.102l6.078-22.686l19.042,5.102l21.372-79.759l96.894-25.962
			C497.204,183.688,519.694,144.732,509.575,106.968z M46.345,273.006c-3.262,0.871-6.667,0.425-9.59-1.262
			c-2.924-1.688-5.015-4.415-5.889-7.674v-0.001c-0.874-3.261-0.425-6.666,1.262-9.59c1.688-2.924,4.414-5.015,7.675-5.889
			l128.48-34.427l4.991,18.627l1.551,5.79L46.345,273.006z M204.205,230.707l-1.383-5.162l-0.057-0.213l22.685-6.078l0.057,0.213
			l1.383,5.162L204.205,230.707z M289.887,285.788l2.863,0.768l-6.077,22.685l-5.376-1.441l6.078-22.685L289.887,285.788z
			 M256.271,216.756l-1.551-5.79l-4.99-18.627l33.416-8.954l-7.555,28.195L256.271,216.756z M263.417,472.204
			c-1.804,6.731-8.747,10.745-15.48,8.935c-3.261-0.873-5.986-2.965-7.674-5.889s-2.136-6.33-1.263-9.591l34.426-128.48
			l24.418,6.543L263.417,472.204z M344.334,170.219l-15.712,58.64l-8.955,33.418l-11.069-2.966l-13.348-3.577l5.917-22.085
			l24.995-93.28l21.417-79.93c4.387-16.371,18.263-27.716,34.129-29.702L344.334,170.219z M451.567,164.427l-79.93,21.418
			l7.555-28.195l102.077-27.352C479.283,146.164,467.939,160.041,451.567,164.427z"/>
	</g>
</g>
<g>
</g>
<g>
</g>
<g>
</g>
<g>
</g>
<g>
</g>
<g>
</g>
<g>
</g>
<g>
</g>
<g>
</g>
<g>
</g>
<g>
</g>
<g>
</g>
<g>
</g>
<g>
</g>
<g>
</g>
</svg>
