<?xml version="1.0" encoding="iso-8859-1"?>
<!-- Generator: Adobe Illustrator 19.0.0, SVG Export Plug-In . SVG Version: 6.00 Build 0)  -->
<svg version="1.1" id="Layer_1" xmlns="http://www.w3.org/2000/svg" xmlns:xlink="http://www.w3.org/1999/xlink" x="0px" y="0px"
	 viewBox="0 0 512.002 512.002" style="enable-background:new 0 0 512.002 512.002;" xml:space="preserve">
<g>
	<g>
		<path d="M512,0.001H0v340.042h20.279v171.958h86.245V340.043h20.281v171.958h86.245V340.043h85.901v171.958h86.245V340.043h20.281
			v171.958h86.245V340.043h20.279V0.001H512z M76.107,481.584H50.696v-141.54h25.411V481.584z M182.632,481.584h-25.411v-141.54
			h25.411V481.584z M354.778,481.584h-0.001h-25.409v-141.54h25.411V481.584z M461.304,481.584h-25.411v-141.54h25.411V481.584z
			 M481.583,309.626h-76.107h-20.281h-86.244h-85.901h-86.245h-20.281H30.417V30.418h451.166V309.626z"/>
	</g>
</g>
<g>
	<g>
		<rect x="126.384" y="78.761" width="259.236" height="30.417"/>
	</g>
</g>
<g>
	<g>
		<rect x="74.512" y="129.467" width="362.979" height="30.417"/>
	</g>
</g>
<g>
	<g>
		<rect x="74.512" y="180.162" width="362.979" height="30.417"/>
	</g>
</g>
<g>
	<g>
		<rect x="126.384" y="230.858" width="259.236" height="30.417"/>
	</g>
</g>
<g>
</g>
<g>
</g>
<g>
</g>
<g>
</g>
<g>
</g>
<g>
</g>
<g>
</g>
<g>
</g>
<g>
</g>
<g>
</g>
<g>
</g>
<g>
</g>
<g>
</g>
<g>
</g>
<g>
</g>
</svg>
