<?xml version="1.0" encoding="iso-8859-1"?>
<!-- Generator: Adobe Illustrator 19.0.0, SVG Export Plug-In . SVG Version: 6.00 Build 0)  -->
<svg version="1.1" id="Layer_1" xmlns="http://www.w3.org/2000/svg" xmlns:xlink="http://www.w3.org/1999/xlink" x="0px" y="0px"
	 viewBox="0 0 512 512" style="enable-background:new 0 0 512 512;" xml:space="preserve">
<g>
	<g>
		<path d="M54.999,0v415.178L151.82,512h305.18V0H54.999z M142.911,460.074l-35.987-35.987h35.987V460.074z M426.584,481.583
			H173.328V393.67H85.417V30.417h341.167V481.583z"/>
	</g>
</g>
<g>
	<g>
		<rect x="113.933" y="80.281" width="156.456" height="30.417"/>
	</g>
</g>
<g>
	<g>
		<rect x="113.933" y="130.986" width="156.456" height="30.417"/>
	</g>
</g>
<g>
	<g>
		<rect x="113.933" y="181.682" width="156.456" height="30.417"/>
	</g>
</g>
<g>
	<g>
		<rect x="113.933" y="292.268" width="284.137" height="30.417"/>
	</g>
</g>
<g>
	<g>
		<rect x="113.933" y="342.974" width="284.137" height="30.417"/>
	</g>
</g>
<g>
	<g>
		<path d="M347.975,58.109c-34.59,0-62.732,28.142-62.732,62.732c0,17.741,7.416,33.775,19.296,45.197v79.138l43.437-15.602
			l43.437,15.602v-79.138c11.88-11.422,19.296-27.455,19.296-45.197C410.708,86.251,382.566,58.109,347.975,58.109z
			 M360.994,201.931l-13.02-4.677l-13.02,4.677v-19.704c1.14,0.24,2.291,0.442,3.451,0.617c0.344,0.053,0.693,0.086,1.038,0.134
			c0.671,0.09,1.341,0.189,2.018,0.257c2.141,0.222,4.314,0.339,6.513,0.339s4.372-0.117,6.513-0.339
			c0.676-0.069,1.345-0.167,2.018-0.257c0.346-0.048,0.695-0.081,1.038-0.134c1.158-0.176,2.31-0.378,3.449-0.617V201.931z
			 M366.627,147.205c-0.357,0.253-0.717,0.498-1.081,0.736c-0.27,0.175-0.537,0.354-0.813,0.521
			c-0.501,0.305-1.01,0.592-1.524,0.869c-0.318,0.171-0.642,0.336-0.967,0.496c-0.342,0.169-0.687,0.329-1.035,0.485
			c-0.486,0.219-0.977,0.426-1.475,0.622c-0.348,0.137-0.698,0.269-1.049,0.392c-0.326,0.116-0.654,0.229-0.985,0.334
			c-0.581,0.184-1.168,0.352-1.759,0.502c-0.275,0.07-0.555,0.13-0.832,0.193c-0.505,0.114-1.012,0.217-1.523,0.305
			c-0.206,0.036-0.41,0.078-0.617,0.111c-0.702,0.108-1.409,0.19-2.121,0.252c-0.195,0.017-0.39,0.031-0.586,0.045
			c-0.756,0.053-1.517,0.089-2.282,0.089s-1.526-0.038-2.282-0.089c-0.196-0.013-0.391-0.027-0.586-0.045
			c-0.712-0.062-1.419-0.144-2.121-0.252c-0.207-0.032-0.412-0.074-0.617-0.111c-0.511-0.089-1.019-0.192-1.523-0.305
			c-0.278-0.063-0.558-0.123-0.832-0.193c-0.592-0.15-1.178-0.318-1.759-0.502c-0.332-0.104-0.659-0.219-0.985-0.334
			c-0.353-0.124-0.702-0.257-1.049-0.392c-0.499-0.196-0.991-0.403-1.477-0.622c-0.347-0.156-0.693-0.315-1.034-0.485
			c-0.326-0.16-0.648-0.324-0.967-0.496c-0.514-0.277-1.023-0.563-1.524-0.869c-0.275-0.167-0.543-0.346-0.813-0.521
			c-0.364-0.237-0.725-0.483-1.081-0.736c-8.258-5.86-13.663-15.489-13.663-26.364c0.001-17.819,14.497-32.315,32.316-32.315
			c17.818,0,32.315,14.497,32.315,32.315C380.291,131.715,374.885,141.346,366.627,147.205z"/>
	</g>
</g>
<g>
</g>
<g>
</g>
<g>
</g>
<g>
</g>
<g>
</g>
<g>
</g>
<g>
</g>
<g>
</g>
<g>
</g>
<g>
</g>
<g>
</g>
<g>
</g>
<g>
</g>
<g>
</g>
<g>
</g>
</svg>
