<?xml version="1.0" encoding="iso-8859-1"?>
<!-- Generator: Adobe Illustrator 19.0.0, SVG Export Plug-In . SVG Version: 6.00 Build 0)  -->
<svg version="1.1" id="Layer_1" xmlns="http://www.w3.org/2000/svg" xmlns:xlink="http://www.w3.org/1999/xlink" x="0px" y="0px"
	 viewBox="0 0 512 512" style="enable-background:new 0 0 512 512;" xml:space="preserve">
<g>
	<g>
		<path d="M480.958,180.55l-12.36,5.12l-20.687-49.942l12.359-5.12l-31.042-74.94l-153.081,63.408l31.041,74.94l12.36-5.12
			l4.542,10.964l-63.209,26.182l-7.799-18.829L0,312.041l27.205,65.674l253.08-104.83l-7.799-18.829l63.209-26.182l4.542,10.964
			l-12.359,5.119l31.041,74.94L512,255.49L480.958,180.55z M43.615,338.095l-3.995-9.642l197.05-81.621l3.994,9.642L43.615,338.095z
			 M323.601,154.394l-7.832-18.908l97.05-40.199l7.833,18.908l-48.525,20.1L323.601,154.394z M347.566,177.292l36.165-14.981
			l36.165-14.98l20.687,49.942l-52.391,21.702l-19.94,8.259L347.566,177.292z M375.329,279.277l-7.832-18.908l97.05-40.2
			l7.833,18.908L375.329,279.277z"/>
	</g>
</g>
<g>
	<g>
		<path d="M266.284,388.065v68.268h244.929v-68.268H266.284z M480.89,426.009H296.608v-7.62H480.89V426.009z"/>
	</g>
</g>
<g>
</g>
<g>
</g>
<g>
</g>
<g>
</g>
<g>
</g>
<g>
</g>
<g>
</g>
<g>
</g>
<g>
</g>
<g>
</g>
<g>
</g>
<g>
</g>
<g>
</g>
<g>
</g>
<g>
</g>
</svg>
