<?xml version="1.0" encoding="iso-8859-1"?>
<!-- Generator: Adobe Illustrator 19.0.0, SVG Export Plug-In . SVG Version: 6.00 Build 0)  -->
<svg version="1.1" id="Layer_1" xmlns="http://www.w3.org/2000/svg" xmlns:xlink="http://www.w3.org/1999/xlink" x="0px" y="0px"
	 viewBox="0 0 511.999 511.999" style="enable-background:new 0 0 511.999 511.999;" xml:space="preserve">
<g>
	<g>
		<path d="M55.765,281.347v126.738h121.158V281.347H55.765z M146.506,377.668H86.182v-65.904h60.323V377.668z"/>
	</g>
</g>
<g>
	<g>
		<path d="M335.076,408.085h121.158V281.347H335.076V408.085z M365.493,311.764h60.323v65.904h-60.323V311.764z"/>
	</g>
</g>
<g>
	<g>
		<path d="M350.752,48.154H161.247L0,200.787v29.865v30.417v202.776h195.421h121.158h195.421V261.069v-30.417v-29.865
			L350.752,48.154z M30.417,213.877L173.36,78.571h165.279l142.943,135.306v16.774H30.417V213.877z M286.161,433.428h-60.323v-0.001
			V311.764h60.323V433.428z M481.583,433.427H316.579v-152.08H195.421v152.081H30.417V261.069h451.166V433.427z"/>
	</g>
</g>
<g>
</g>
<g>
</g>
<g>
</g>
<g>
</g>
<g>
</g>
<g>
</g>
<g>
</g>
<g>
</g>
<g>
</g>
<g>
</g>
<g>
</g>
<g>
</g>
<g>
</g>
<g>
</g>
<g>
</g>
</svg>
