<?xml version="1.0" encoding="iso-8859-1"?>
<!-- Generator: Adobe Illustrator 19.0.0, SVG Export Plug-In . SVG Version: 6.00 Build 0)  -->
<svg version="1.1" id="Layer_1" xmlns="http://www.w3.org/2000/svg" xmlns:xlink="http://www.w3.org/1999/xlink" x="0px" y="0px"
	 viewBox="0 0 512 512" style="enable-background:new 0 0 512 512;" xml:space="preserve">
<g>
	<g>
		<g>
			<path d="M298.943,99.853h49.675V69.435h-37.076L340.304,0h-77.539l-28.762,69.434h-49.682v30.417h37.083l-14.262,34.43h-49.68
				v30.417h37.082l-14.262,34.429h-49.68v30.417h37.081l-14.262,34.43h-49.678v30.417h37.08l-14.262,34.43H76.88v30.417h37.078
				L99.695,393.67H50.019v30.417h37.077L50.68,511.999h77.539l128.112-309.277l128.112,309.277h77.537L295.1,109.129L298.943,99.853
				z M239.869,162.983l-131.974,318.6H96.203L283.09,30.417h11.691l-16.143,38.972L239.869,162.983z M416.457,481.582h-11.691
				l-131.974-318.6l3.621-8.739l2.226-5.374L416.457,481.582z"/>
			<polygon points="461.981,511.999 461.98,511.999 461.981,512 			"/>
		</g>
	</g>
</g>
<g>
</g>
<g>
</g>
<g>
</g>
<g>
</g>
<g>
</g>
<g>
</g>
<g>
</g>
<g>
</g>
<g>
</g>
<g>
</g>
<g>
</g>
<g>
</g>
<g>
</g>
<g>
</g>
<g>
</g>
</svg>
