<?xml version="1.0" encoding="iso-8859-1"?>
<!-- Generator: Adobe Illustrator 19.0.0, SVG Export Plug-In . SVG Version: 6.00 Build 0)  -->
<svg version="1.1" id="Layer_1" xmlns="http://www.w3.org/2000/svg" xmlns:xlink="http://www.w3.org/1999/xlink" x="0px" y="0px"
	 viewBox="0 0 512 512" style="enable-background:new 0 0 512 512;" xml:space="preserve">
<g>
	<g>
		<path d="M457.674,113.196h-161.16V0.275h-81.025v62.277H54.326L0,122.308l54.326,59.756h161.161v20.259H102.744l-44.519,48.969
			l44.519,48.969h112.743v211.464h81.025V232.708h161.161L512,172.952L457.674,113.196z M215.488,269.877h-99.302l-16.897-18.584
			l16.897-18.584h99.302V269.877z M215.488,151.68H67.768l-26.703-29.372l26.703-29.372h147.72V151.68z M266.129,113.196v119.512
			V481.34h-20.256V300.261v-97.937v-20.259V62.552V30.659h20.256V113.196z M444.233,202.324h-147.72V143.58h147.72l26.703,29.372
			L444.233,202.324z"/>
	</g>
</g>
<g>
</g>
<g>
</g>
<g>
</g>
<g>
</g>
<g>
</g>
<g>
</g>
<g>
</g>
<g>
</g>
<g>
</g>
<g>
</g>
<g>
</g>
<g>
</g>
<g>
</g>
<g>
</g>
<g>
</g>
</svg>
