<?xml version="1.0" encoding="iso-8859-1"?>
<!-- Generator: Adobe Illustrator 19.0.0, SVG Export Plug-In . SVG Version: 6.00 Build 0)  -->
<svg version="1.1" id="Layer_1" xmlns="http://www.w3.org/2000/svg" xmlns:xlink="http://www.w3.org/1999/xlink" x="0px" y="0px"
	 viewBox="0 0 511.999 511.999" style="enable-background:new 0 0 511.999 511.999;" xml:space="preserve">
<g>
	<g>
		<path d="M401.821,177.591v109.84H386.93c0.563-2.617,0.867-5.329,0.867-8.111c0-21.244-17.284-38.529-38.529-38.529h-78.06V225.92
			h62.27c29.951,0,54.318-24.367,54.318-54.318v-52.658C387.796,53.358,334.438,0,268.852,0h-25.706
			C177.56,0,124.203,53.358,124.203,118.945v52.658c0,29.951,24.367,54.318,54.318,54.318h62.27v14.871h-78.058
			c-21.244,0-38.529,17.284-38.529,38.529c0,2.782,0.303,5.494,0.867,8.111h-14.893V177.591H58.784v30.417h20.977v109.84h82.972
			h78.058v15.209h-23.32v101.886H84.829v30.417h14.64c-0.563,2.617-0.867,5.329-0.867,8.111c0,21.244,17.284,38.529,38.528,38.529
			c21.244,0,38.529-17.284,38.529-38.529c0-2.782-0.303-5.494-0.867-8.111h42.677h0.867c-0.563,2.617-0.867,5.329-0.867,8.111
			c0,21.244,17.284,38.529,38.528,38.529c21.244,0,38.528-17.284,38.528-38.529c0-2.782-0.303-5.494-0.867-8.111h0.867h42.678
			c-0.563,2.617-0.867,5.329-0.867,8.111c0,21.244,17.284,38.529,38.528,38.529c21.244,0,38.529-17.284,38.529-38.529
			c0-2.782-0.303-5.494-0.867-8.111h14.64v-30.417h-132.64V333.056h-23.32v-15.209h78.06h82.971v-109.84h20.977v-30.417H401.821z
			 M137.13,481.583c-4.472,0-8.111-3.639-8.111-8.111s3.639-8.111,8.111-8.111c4.472,0,8.111,3.638,8.111,8.111
			C145.242,477.944,141.603,481.583,137.13,481.583z M374.868,465.36c4.472,0,8.111,3.638,8.111,8.111
			c0,4.472-3.639,8.111-8.111,8.111c-4.472,0-8.111-3.639-8.111-8.111S370.395,465.36,374.868,465.36z M178.52,195.504
			c-13.179-0.001-23.9-10.723-23.9-23.902v-52.658c0-48.814,39.713-88.526,88.526-88.526h25.706
			c48.814,0,88.527,39.713,88.527,88.527v52.658c0,13.179-10.722,23.901-23.901,23.901H178.52z M255.999,481.583
			c-4.472,0-8.111-3.639-8.111-8.111s3.639-8.111,8.111-8.111c4.472,0,8.111,3.638,8.111,8.111
			C264.11,477.944,260.471,481.583,255.999,481.583z M264.11,434.943h-16.223v-71.468h16.223V434.943z M349.267,287.431H162.733
			c-4.472,0-8.111-3.639-8.111-8.111s3.639-8.111,8.111-8.111h186.535c4.472,0,8.111,3.639,8.111,8.111
			S353.74,287.431,349.267,287.431z"/>
	</g>
</g>
<g>
</g>
<g>
</g>
<g>
</g>
<g>
</g>
<g>
</g>
<g>
</g>
<g>
</g>
<g>
</g>
<g>
</g>
<g>
</g>
<g>
</g>
<g>
</g>
<g>
</g>
<g>
</g>
<g>
</g>
</svg>
