<?xml version="1.0" encoding="iso-8859-1"?>
<!-- Generator: Adobe Illustrator 19.0.0, SVG Export Plug-In . SVG Version: 6.00 Build 0)  -->
<svg version="1.1" id="Layer_1" xmlns="http://www.w3.org/2000/svg" xmlns:xlink="http://www.w3.org/1999/xlink" x="0px" y="0px"
	 viewBox="0 0 511.999 511.999" style="enable-background:new 0 0 511.999 511.999;" xml:space="preserve">
<g>
	<g>
		<polygon points="104.367,0.001 104.367,33.707 86.98,33.707 86.98,0.001 56.563,0.001 56.563,97.832 86.98,97.832 86.98,64.124 
			104.367,64.124 104.367,97.832 134.784,97.832 134.784,0.001 		"/>
	</g>
</g>
<g>
	<g>
		<path d="M142.609,0.001v97.83h72.355V0.001H142.609z M184.547,67.413h-11.521V30.418h11.521V67.413z"/>
	</g>
</g>
<g>
	<g>
		<polygon points="380.325,30.418 380.325,0.001 308.838,0.001 308.838,97.831 380.325,97.831 380.325,67.413 339.255,67.413 
			339.255,64.124 363.357,64.124 363.357,33.707 339.255,33.707 339.255,30.418 		"/>
	</g>
</g>
<g>
	<g>
		<polygon points="419.437,67.413 419.437,0 389.02,0 389.02,97.831 460.507,97.831 460.507,67.413 		"/>
	</g>
</g>
<g>
	<g>
		<polygon points="223.659,0.001 223.659,30.418 246.694,30.418 246.694,97.832 277.111,97.832 277.111,30.418 300.144,30.418 
			300.144,0.001 		"/>
	</g>
</g>
<g>
	<g>
		<path d="M458.323,202.264h-49.026V111.35H102.703v90.914H53.676c-29.596,0-53.675,24.079-53.675,53.675v256.06h102.702h30.417
			h63.815h118.128h63.815h30.417h102.702V255.94C511.999,226.343,487.92,202.264,458.323,202.264z M30.418,481.583V255.94
			c0-12.824,10.434-23.258,23.258-23.258h49.026v248.901H30.418z M240.791,481.583h-13.438v-35.625h13.438V481.583z
			 M284.646,481.583h-13.438v-35.625h13.438V481.583z M378.88,202.264v279.319h0h-63.815v-66.042H196.936v66.042H133.12V202.264
			v-60.497H378.88V202.264z M409.297,481.583V232.681h49.026c12.824,0,23.258,10.434,23.258,23.258v225.644H409.297z"/>
	</g>
</g>
<g>
	<g>
		<rect x="148.334" y="162.052" width="35.909" height="30.417"/>
	</g>
</g>
<g>
	<g>
		<rect x="208.144" y="162.052" width="35.909" height="30.417"/>
	</g>
</g>
<g>
	<g>
		<rect x="267.944" y="162.052" width="35.909" height="30.417"/>
	</g>
</g>
<g>
	<g>
		<rect x="327.765" y="162.052" width="35.909" height="30.417"/>
	</g>
</g>
<g>
	<g>
		<rect x="148.334" y="212.747" width="35.909" height="30.417"/>
	</g>
</g>
<g>
	<g>
		<rect x="208.144" y="212.747" width="35.909" height="30.417"/>
	</g>
</g>
<g>
	<g>
		<rect x="267.944" y="212.747" width="35.909" height="30.417"/>
	</g>
</g>
<g>
	<g>
		<rect x="327.765" y="212.747" width="35.909" height="30.417"/>
	</g>
</g>
<g>
	<g>
		<rect x="148.334" y="263.443" width="35.909" height="30.417"/>
	</g>
</g>
<g>
	<g>
		<rect x="208.144" y="263.443" width="35.909" height="30.417"/>
	</g>
</g>
<g>
	<g>
		<rect x="267.944" y="263.443" width="35.909" height="30.417"/>
	</g>
</g>
<g>
	<g>
		<rect x="327.765" y="263.443" width="35.909" height="30.417"/>
	</g>
</g>
<g>
	<g>
		<rect x="148.334" y="314.148" width="35.909" height="30.417"/>
	</g>
</g>
<g>
	<g>
		<rect x="208.144" y="314.148" width="35.909" height="30.417"/>
	</g>
</g>
<g>
	<g>
		<rect x="267.944" y="314.148" width="35.909" height="30.417"/>
	</g>
</g>
<g>
	<g>
		<rect x="327.765" y="314.148" width="35.909" height="30.417"/>
	</g>
</g>
<g>
	<g>
		<rect x="148.334" y="364.843" width="35.909" height="30.417"/>
	</g>
</g>
<g>
	<g>
		<rect x="208.144" y="364.843" width="35.909" height="30.417"/>
	</g>
</g>
<g>
	<g>
		<rect x="267.944" y="364.843" width="35.909" height="30.417"/>
	</g>
</g>
<g>
	<g>
		<rect x="327.765" y="364.843" width="35.909" height="30.417"/>
	</g>
</g>
<g>
</g>
<g>
</g>
<g>
</g>
<g>
</g>
<g>
</g>
<g>
</g>
<g>
</g>
<g>
</g>
<g>
</g>
<g>
</g>
<g>
</g>
<g>
</g>
<g>
</g>
<g>
</g>
<g>
</g>
</svg>
