<?xml version="1.0" encoding="iso-8859-1"?>
<!-- Generator: Adobe Illustrator 19.0.0, SVG Export Plug-In . SVG Version: 6.00 Build 0)  -->
<svg version="1.1" id="Layer_1" xmlns="http://www.w3.org/2000/svg" xmlns:xlink="http://www.w3.org/1999/xlink" x="0px" y="0px"
	 viewBox="0 0 512 512" style="enable-background:new 0 0 512 512;" xml:space="preserve">
<g>
	<g>
		<path d="M172.529,287.308c-40.546,0-73.533,32.986-73.533,73.532v100.852h147.066V360.84
			C246.061,320.294,213.075,287.308,172.529,287.308z M157.623,431.881h-28.817v-39.495h28.817V431.881z M157.623,362.575h-28.817
			v-1.735c0-18.875,12.026-34.993,28.817-41.102V362.575z M216.25,431.881h-28.816v-39.495h28.816V431.881z M216.25,362.575h-28.816
			v-42.837c16.791,6.108,28.816,22.226,28.816,41.102V362.575z"/>
	</g>
</g>
<g>
	<g>
		<path d="M339.471,287.308c-40.546,0-73.532,32.986-73.532,73.532v100.852h147.066V360.84
			C413.005,320.294,380.018,287.308,339.471,287.308z M324.566,431.881H295.75v-39.495h28.815V431.881z M324.566,362.575H295.75
			v-1.735c0-18.875,12.025-34.993,28.816-41.102V362.575z M383.194,431.881h-28.817v-39.495h28.817V431.881z M383.194,362.575
			h-28.817v-42.837c16.792,6.108,28.817,22.226,28.817,41.102V362.575z"/>
	</g>
</g>
<g>
	<g>
		<path d="M454.467,78.702L256,4.598L57.533,78.702L0,271.408h43.348v235.994h425.305V271.408H512L454.467,78.702z M438.841,477.591
			H73.159V271.408h365.682V477.591z M43.348,241.597h-3.335v0l41.843-140.155L256,36.419l174.144,65.023l41.843,140.155h-3.335
			H43.348z"/>
	</g>
</g>
<g>
	<g>
		<path d="M256,67.036c-36.141,0-65.544,29.403-65.544,65.544v89.141h131.088V132.58C321.544,96.438,292.141,67.036,256,67.036z
			 M241.094,191.909h-20.827v-30.05h20.827V191.909z M241.094,132.047h-20.813c0.208-14.156,8.686-26.34,20.813-31.931V132.047z
			 M270.906,100.116c12.127,5.591,20.605,17.774,20.813,31.932h-20.813V100.116z M291.733,191.909h-20.827v-30.05h20.827V191.909z"
			/>
	</g>
</g>
<g>
	<g>
		<path d="M97.668,123.6v98.12h72.911V123.6H97.668z M140.768,191.909h-13.289v-38.497h13.289V191.909z"/>
	</g>
</g>
<g>
	<g>
		<path d="M341.421,123.6v98.12h72.911V123.6H341.421z M384.521,191.909h-13.289v-38.497h13.289V191.909z"/>
	</g>
</g>
<g>
</g>
<g>
</g>
<g>
</g>
<g>
</g>
<g>
</g>
<g>
</g>
<g>
</g>
<g>
</g>
<g>
</g>
<g>
</g>
<g>
</g>
<g>
</g>
<g>
</g>
<g>
</g>
<g>
</g>
</svg>
