<?xml version="1.0" encoding="iso-8859-1"?>
<!-- Generator: Adobe Illustrator 19.0.0, SVG Export Plug-In . SVG Version: 6.00 Build 0)  -->
<svg version="1.1" id="Layer_1" xmlns="http://www.w3.org/2000/svg" xmlns:xlink="http://www.w3.org/1999/xlink" x="0px" y="0px"
	 viewBox="0 0 511.999 511.999" style="enable-background:new 0 0 511.999 511.999;" xml:space="preserve">
<g>
	<g>
		<path d="M338.082,142.649C335.869,63.614,270.89,0,191.329,0C110.376,0,44.515,65.859,44.515,146.812v365.186h70.973V146.812
			c0-41.818,34.023-75.839,75.841-75.839c40.441,0,73.585,31.818,75.726,71.734c-48.136,15.16-83.143,60.213-83.143,113.29v15.209
			h237.49v-15.209C421.402,202.853,386.31,157.754,338.082,142.649z M191.33,40.556c-58.592,0-106.258,47.667-106.258,106.256
			v334.769H74.932V146.812c0-64.18,52.215-116.395,116.396-116.395c60.992,0,111.18,47.161,116.016,106.927
			c-0.146-0.006-0.292-0.002-0.438-0.008c-1.411-0.05-2.827-0.084-4.25-0.084c-0.089,0-0.176,0.003-0.266,0.003
			c-0.157,0-0.314,0.005-0.471,0.006c-1.475,0.009-2.944,0.046-4.406,0.109c-0.114,0.005-0.227,0.003-0.341,0.008
			C292.383,83.192,246.741,40.556,191.33,40.556z M215.639,240.788c6.288-36.089,34.56-64.714,70.459-71.55
			c0.732-0.139,1.467-0.261,2.203-0.38c0.594-0.097,1.186-0.2,1.784-0.285c0.969-0.138,1.943-0.251,2.917-0.357
			c0.38-0.042,0.758-0.093,1.141-0.13c5.655-0.538,11.374-0.538,17.029,0c0.382,0.036,0.759,0.088,1.141,0.13
			c0.974,0.105,1.948,0.219,2.917,0.357c0.598,0.085,1.19,0.188,1.784,0.285c0.736,0.12,1.472,0.242,2.204,0.38
			c35.896,6.838,64.168,35.462,70.456,71.55H215.639z"/>
	</g>
</g>
<g>
	<g>
		
			<rect x="70.068" y="379.698" transform="matrix(0.2061 -0.9785 0.9785 0.2061 -248.1366 483.9663)" width="208.25" height="30.416"/>
	</g>
</g>
<g>
	<g>
		
			<rect x="135.968" y="389.819" transform="matrix(0.1047 -0.9945 0.9945 0.1047 -189.3372 599.739)" width="204.92" height="30.417"/>
	</g>
</g>
<g>
	<g>
		<rect x="287.451" y="308.207" width="30.417" height="203.785"/>
	</g>
</g>
<g>
	<g>
		
			<rect x="351.69" y="302.575" transform="matrix(0.9945 -0.1047 0.1047 0.9945 -40.3909 40.6407)" width="30.417" height="204.92"/>
	</g>
</g>
<g>
	<g>
		
			<rect x="415.933" y="290.737" transform="matrix(0.9785 -0.2061 0.2061 0.9785 -72.1268 97.3388)" width="30.416" height="208.25"/>
	</g>
</g>
<g>
</g>
<g>
</g>
<g>
</g>
<g>
</g>
<g>
</g>
<g>
</g>
<g>
</g>
<g>
</g>
<g>
</g>
<g>
</g>
<g>
</g>
<g>
</g>
<g>
</g>
<g>
</g>
<g>
</g>
</svg>
