<?xml version="1.0" encoding="iso-8859-1"?>
<!-- Generator: Adobe Illustrator 19.0.0, SVG Export Plug-In . SVG Version: 6.00 Build 0)  -->
<svg version="1.1" id="Layer_1" xmlns="http://www.w3.org/2000/svg" xmlns:xlink="http://www.w3.org/1999/xlink" x="0px" y="0px"
	 viewBox="0 0 511.999 511.999" style="enable-background:new 0 0 511.999 511.999;" xml:space="preserve">
<g>
	<g>
		<path d="M443.201,31.026h-30.416h-38.38h-30.417h-38.38H275.19h-38.38h-30.417h-38.38h-30.417h-38.38H68.798H0v95.193v30.417
			v1.585v322.753h78.446h145.411h288.142V158.221v-1.585v-30.417V31.026H443.201z M443.202,126.218V61.443h38.38v64.775h-38.38
			V126.218z M443.202,156.636h38.38v1.585c0,9.974-8.114,18.088-18.089,18.088h-2.203c-9.974,0-18.088-8.114-18.088-18.088V156.636z
			 M374.405,61.443h38.38v64.775h-38.38V61.443z M374.404,156.636h38.38v1.585h0.001c0,9.974-8.114,18.088-18.089,18.088h-2.203
			c-9.975,0-18.089-8.114-18.089-18.088V156.636z M305.607,61.443h38.38v64.775h-38.38V61.443z M305.607,156.636h38.38v1.585
			c0,9.974-8.114,18.088-18.089,18.088h-2.203c-9.974,0-18.088-8.114-18.088-18.088V156.636z M236.81,61.443h38.38v64.775h-38.38
			V61.443z M236.809,156.636h38.38v1.585h0.001c0,9.974-8.114,18.088-18.089,18.088h-2.203c-9.975,0-18.089-8.114-18.089-18.088
			V156.636z M168.012,61.443h38.38v64.775h-38.38V61.443z M168.012,156.636h38.38v1.585c0,9.974-8.114,18.088-18.089,18.088H186.1
			c-9.974,0-18.088-8.114-18.088-18.088V156.636z M99.215,61.443h38.38v64.775h-38.38V61.443z M99.214,156.636h38.38v1.585h0.001
			c0,9.974-8.114,18.088-18.089,18.088h-2.203c-9.975,0-18.089-8.114-18.089-18.088V156.636z M30.417,61.443h38.38v64.775h-38.38
			V61.443z M30.417,156.635h38.38v1.585c0,9.974-8.114,18.088-18.089,18.088h-2.203c-9.974,0-18.088-8.114-18.088-18.088V156.635z
			 M193.44,450.556h-84.577V253.999h84.577V450.556z M481.586,450.556H223.857V223.582H78.446v226.974H30.417V203.214
			c5.594,2.257,11.695,3.512,18.088,3.512h2.203c12.885,0,24.602-5.059,33.298-13.283c8.695,8.224,20.413,13.283,33.298,13.283
			h2.203c12.885,0,24.602-5.059,33.298-13.283c8.694,8.224,20.412,13.283,33.297,13.283h2.203c12.885,0,24.602-5.059,33.298-13.283
			c8.695,8.224,20.413,13.283,33.298,13.283h2.203c12.885,0,24.602-5.059,33.298-13.283c8.694,8.224,20.412,13.283,33.297,13.283
			h2.203c12.885,0,24.602-5.059,33.298-13.283c8.695,8.224,20.413,13.283,33.298,13.283h2.203c12.885,0,24.602-5.059,33.298-13.283
			c8.694,8.224,20.412,13.283,33.297,13.283h2.203c6.393,0,12.494-1.255,18.089-3.512V450.556z"/>
	</g>
</g>
<g>
	<g>
		<path d="M248.936,223.582v155.994h184.617V223.582H248.936z M326.036,349.158h-46.682v-32.371h46.682V349.158z M326.036,286.37
			h-46.682v-32.371h46.682V286.37z M403.136,349.159h-46.683v-32.371h46.683V349.159z M403.136,286.37h-46.683v-32.371h46.683
			V286.37z"/>
	</g>
</g>
<g>
</g>
<g>
</g>
<g>
</g>
<g>
</g>
<g>
</g>
<g>
</g>
<g>
</g>
<g>
</g>
<g>
</g>
<g>
</g>
<g>
</g>
<g>
</g>
<g>
</g>
<g>
</g>
<g>
</g>
</svg>
