<?xml version="1.0" encoding="iso-8859-1"?>
<!-- Generator: Adobe Illustrator 19.0.0, SVG Export Plug-In . SVG Version: 6.00 Build 0)  -->
<svg version="1.1" id="Layer_1" xmlns="http://www.w3.org/2000/svg" xmlns:xlink="http://www.w3.org/1999/xlink" x="0px" y="0px"
	 viewBox="0 0 511.999 511.999" style="enable-background:new 0 0 511.999 511.999;" xml:space="preserve">
<g>
	<g>
		<path d="M332.88,0H179.119C86.631,0,11.388,75.243,11.388,167.731s75.243,167.731,167.731,167.731h33.661v176.538h86.44V335.461
			h33.661c92.488,0,167.731-75.244,167.731-167.732S425.368,0,332.88,0z M268.802,281.822v53.64v146.121h-25.605V335.461v-53.64
			l-104.019-104.02L153.8,163.18l89.398,89.398V122.42h25.605v130.158l89.398-89.398l14.622,14.622L268.802,281.822z
			 M332.88,305.044h-33.661v-10.625l116.619-116.619L358.2,120.163l-58.981,58.981V92.003h-86.44v87.142l-58.981-58.981
			l-57.638,57.638L212.78,294.421v10.625h-33.661c-75.715,0-137.314-61.599-137.314-137.315
			c0-75.715,61.599-137.313,137.314-137.313H332.88c75.715,0,137.313,61.599,137.313,137.313S408.595,305.044,332.88,305.044z"/>
	</g>
</g>
<g>
</g>
<g>
</g>
<g>
</g>
<g>
</g>
<g>
</g>
<g>
</g>
<g>
</g>
<g>
</g>
<g>
</g>
<g>
</g>
<g>
</g>
<g>
</g>
<g>
</g>
<g>
</g>
<g>
</g>
</svg>
