<?xml version="1.0" encoding="iso-8859-1"?>
<!-- Generator: Adobe Illustrator 19.0.0, SVG Export Plug-In . SVG Version: 6.00 Build 0)  -->
<svg version="1.1" id="Layer_1" xmlns="http://www.w3.org/2000/svg" xmlns:xlink="http://www.w3.org/1999/xlink" x="0px" y="0px"
	 viewBox="0 0 511.999 511.999" style="enable-background:new 0 0 511.999 511.999;" xml:space="preserve">
<g>
	<g>
		<circle cx="230.154" cy="421.147" r="20.879"/>
	</g>
</g>
<g>
	<g>
		<path d="M482.56,274.958l-32.094,13.294l-65.28-157.603l-22.461,9.304L310.614,14.15L163.211,75.205l52.109,125.804l-22.461,9.304
			l56.598,136.64c-11.167-2.931-22.742-3.295-34.009-1.07L93.242,50.85L11.647,17.052L0,45.171l69.947,28.974L187.329,357.53
			c-12.434,8.332-22.149,20.134-28.007,34.277c-7.837,18.919-7.837,39.757,0,58.676c7.837,18.919,22.572,33.654,41.49,41.49
			c9.459,3.918,19.399,5.877,29.338,5.877s19.879-1.959,29.338-5.877c18.919-7.837,33.654-22.571,41.49-41.49
			c2.581-6.232,4.294-12.673,5.175-19.184l205.846-85.265L482.56,274.958z M202.977,91.678l91.165-37.761l40.462,97.684
			l-91.165,37.761L202.977,91.678z M272.86,438.834c-4.726,11.408-13.611,20.293-25.019,25.018c-11.408,4.726-23.973,4.726-35.381,0
			c-11.408-4.725-20.292-13.61-25.019-25.018c-4.726-11.407-4.725-23.973,0-35.381c4.726-11.407,13.611-20.293,25.019-25.018
			c5.705-2.363,11.697-3.544,17.691-3.544c5.993,0,11.987,1.181,17.69,3.544c5.471,2.266,10.354,5.498,14.484,9.497l0.674,0.68
			c3.168,3.196,5.824,6.798,7.929,10.749c0.177,0.335,0.342,0.678,0.511,1.018c0.165,0.329,0.337,0.653,0.495,0.987
			c0.324,0.686,0.633,1.383,0.925,2.088c0.293,0.707,0.567,1.418,0.823,2.133c0.111,0.308,0.206,0.622,0.309,0.932
			c0.134,0.399,0.274,0.796,0.397,1.197c1.304,4.28,1.973,8.705,1.992,13.205l0.004,0.965
			C276.291,427.631,275.125,433.366,272.86,438.834z M232.625,226.785l136.088-56.37l53.634,129.483l-136.088,56.37L232.625,226.785
			z M303.667,399.384c-0.012-0.041-0.027-0.079-0.039-0.12c-0.288-0.962-0.608-1.916-0.934-2.87c-0.103-0.301-0.193-0.606-0.3-0.907
			c-0.415-1.164-0.86-2.32-1.333-3.471c-0.029-0.071-0.053-0.142-0.082-0.213c-0.033-0.08-0.072-0.156-0.106-0.236
			c-0.475-1.136-0.973-2.259-1.497-3.365c-0.142-0.3-0.3-0.59-0.446-0.888c-0.437-0.893-0.881-1.782-1.349-2.653
			c-0.02-0.039-0.039-0.079-0.06-0.117l163.653-67.787l4.913-2.035l6.146,14.836L303.667,399.384z"/>
	</g>
</g>
<g>
</g>
<g>
</g>
<g>
</g>
<g>
</g>
<g>
</g>
<g>
</g>
<g>
</g>
<g>
</g>
<g>
</g>
<g>
</g>
<g>
</g>
<g>
</g>
<g>
</g>
<g>
</g>
<g>
</g>
</svg>
