<?xml version="1.0" encoding="iso-8859-1"?>
<!-- Generator: Adobe Illustrator 19.0.0, SVG Export Plug-In . SVG Version: 6.00 Build 0)  -->
<svg version="1.1" id="Layer_1" xmlns="http://www.w3.org/2000/svg" xmlns:xlink="http://www.w3.org/1999/xlink" x="0px" y="0px"
	 viewBox="0 0 512 512" style="enable-background:new 0 0 512 512;" xml:space="preserve">
<g>
	<g>
		<path d="M366.657,258.149c14.583-21.423,23.118-47.277,23.118-75.09v-49.285c0-9.779-1.065-19.312-3.066-28.499l0.51-0.302
			l-3.637-11.518c-0.189-0.597-0.403-1.182-0.599-1.775c-0.149-0.449-0.3-0.898-0.453-1.345
			c-8.766-25.585-24.849-47.639-46.707-63.917c-16.739-12.465-35.77-20.666-55.96-24.284c-0.126-0.022-0.25-0.046-0.376-0.068
			c-1.585-0.279-3.176-0.528-4.773-0.751c-0.578-0.081-1.155-0.169-1.736-0.242c-0.726-0.091-1.454-0.17-2.182-0.25
			c-0.944-0.104-1.89-0.198-2.839-0.282c-0.514-0.046-1.027-0.098-1.543-0.138c-1.464-0.114-2.936-0.196-4.412-0.262
			c-0.414-0.018-0.827-0.032-1.242-0.048C259.178,0.038,257.593,0,256,0c-1.13,0-2.258,0.015-3.384,0.043
			c-0.271,0.007-0.54,0.021-0.811,0.029c-0.864,0.026-1.728,0.056-2.589,0.098c-0.234,0.012-0.467,0.029-0.702,0.043
			c-0.907,0.05-1.813,0.104-2.717,0.172c-0.143,0.011-0.284,0.025-0.427,0.036c-1.008,0.079-2.014,0.167-3.017,0.269
			c-0.019,0.002-0.038,0.004-0.057,0.006c-30.031,3.046-57.98,16.065-79.829,37.436c-21.695,21.22-35.296,48.627-39.123,78.311
			c-0.019,0.149-0.041,0.297-0.059,0.446c-0.104,0.833-0.198,1.669-0.287,2.505c-0.034,0.319-0.072,0.639-0.103,0.959
			c-0.066,0.662-0.122,1.326-0.177,1.991c-0.041,0.48-0.085,0.959-0.121,1.441c-0.036,0.499-0.064,1.001-0.095,1.501
			c-0.04,0.634-0.082,1.266-0.114,1.902c-0.015,0.321-0.023,0.644-0.036,0.966c-0.033,0.803-0.067,1.605-0.086,2.412
			c0,0.001,0,0.002,0,0.003l-0.493,20.925l0.452-0.135v31.7c0,27.812,8.535,53.667,23.118,75.09
			c-67.098,2.813-120.821,58.27-120.821,126.049V512h462.955V384.199C487.478,316.421,433.755,260.963,366.657,258.149z
			 M245.413,30.956c0.015-0.001,0.029-0.003,0.045-0.005c0.776-0.079,1.554-0.146,2.335-0.208c0.109-0.008,0.216-0.019,0.324-0.027
			c0.697-0.053,1.397-0.094,2.098-0.134c0.182-0.01,0.363-0.023,0.545-0.032c0.673-0.034,1.349-0.057,2.027-0.077
			c0.199-0.006,0.396-0.016,0.596-0.021c0.87-0.021,1.743-0.033,2.618-0.033c1.228,0,2.452,0.03,3.673,0.072
			c0.322,0.011,0.644,0.022,0.965,0.036c1.137,0.05,2.271,0.116,3.401,0.202c0.409,0.031,0.814,0.073,1.221,0.109
			c0.717,0.063,1.432,0.135,2.145,0.213c0.579,0.064,1.158,0.126,1.734,0.199c0.09,0.011,0.179,0.026,0.27,0.038
			c1.614,0.21,3.217,0.455,4.807,0.739c0.044,0.008,0.086,0.016,0.13,0.023c25.322,4.554,47.47,18.364,62.806,37.788
			c0.107,0.136,0.213,0.272,0.319,0.408c0.43,0.551,0.857,1.104,1.276,1.664c0.138,0.185,0.272,0.372,0.409,0.558
			c0.65,0.88,1.286,1.771,1.908,2.672c0.247,0.358,0.497,0.715,0.74,1.076c0.285,0.424,0.564,0.852,0.843,1.28
			c0.248,0.38,0.494,0.762,0.737,1.146c0.276,0.436,0.551,0.872,0.82,1.313c0.219,0.357,0.431,0.717,0.646,1.076
			c1.062,1.78,2.073,3.593,3.029,5.441c0.075,0.145,0.151,0.289,0.225,0.434c0.353,0.69,0.7,1.384,1.036,2.084
			c0.008,0.016,0.015,0.032,0.023,0.049c0.285,0.591,0.561,1.187,0.834,1.784c-14.711,6.604-30.747,10.054-47.026,10.054
			c-31.333,0-60.608-12.397-82.434-34.907l-13.345-13.764l-10.367,16.126c-10.27,15.975-24.238,29.052-40.532,38.198
			C167.382,66.005,202.561,35.336,245.413,30.956z M211.858,99.175c25.717,20.823,57.476,32.113,91.115,32.113
			c19.127,0,37.99-3.783,55.502-11.021c0.58,4.422,0.882,8.929,0.882,13.507v49.285c0,37.399-19.966,70.222-49.798,88.37
			c-0.002,0.001-0.005,0.003-0.007,0.004c-0.974,0.592-1.963,1.164-2.959,1.725c-0.52,0.292-1.04,0.587-1.565,0.87
			c-0.527,0.285-1.059,0.565-1.592,0.841c-0.969,0.501-1.943,0.992-2.926,1.461c-0.298,0.143-0.599,0.28-0.898,0.42
			c-9.316,4.336-19.252,7.273-29.48,8.686c-0.28,0.037-0.559,0.076-0.839,0.112c-1.175,0.152-2.353,0.283-3.534,0.394
			c-0.547,0.051-1.093,0.093-1.641,0.136c-0.837,0.066-1.676,0.123-2.517,0.168c-0.681,0.036-1.364,0.067-2.046,0.09
			c-0.598,0.02-1.197,0.029-1.797,0.04c-1.172,0.019-2.344,0.019-3.516,0c-0.599-0.01-1.198-0.019-1.797-0.04
			c-0.682-0.023-1.365-0.054-2.046-0.09c-0.841-0.046-1.679-0.102-2.517-0.168c-0.547-0.043-1.094-0.084-1.641-0.136
			c-1.181-0.113-2.36-0.242-3.534-0.394c-0.28-0.036-0.559-0.074-0.839-0.112c-10.228-1.413-20.166-4.352-29.48-8.686
			c-0.299-0.14-0.6-0.278-0.898-0.42c-0.984-0.469-1.957-0.961-2.926-1.461c-0.533-0.277-1.065-0.556-1.592-0.841
			c-0.525-0.283-1.044-0.578-1.565-0.87c-0.996-0.561-1.984-1.133-2.959-1.725c-0.002-0.001-0.005-0.003-0.007-0.004
			c-29.832-18.148-49.798-50.971-49.798-88.37v-41.279h-0.001C175.669,132.855,196.06,118.171,211.858,99.175z M263.817,316.607
			l-2.917,11.718h-9.798l-2.917-11.718c0.119,0.007,0.236,0.009,0.355,0.015c0.425,0.023,0.851,0.045,1.278,0.064
			c0.553,0.025,1.107,0.046,1.661,0.065c0.27,0.009,0.538,0.022,0.808,0.029c0.196,0.005,0.391,0.01,0.587,0.014
			c1.042,0.024,2.085,0.04,3.129,0.04s2.085-0.015,3.127-0.04c0.196-0.005,0.391-0.009,0.587-0.014
			c0.27-0.007,0.538-0.02,0.808-0.029c0.554-0.019,1.107-0.039,1.661-0.065c0.426-0.019,0.853-0.041,1.278-0.064
			C263.581,316.616,263.699,316.614,263.817,316.607z M54.94,481.583v-97.384c0-48.831,36.742-89.237,84.03-95.035l-32.146,82.754
			l22.228,14.295l-15.795,25.997l95.807,69.373H54.94z M153.821,404.026l16.622-27.359l-26.269-16.895L162.07,313.7l58.688,138.794
			L153.821,404.026z M218.156,368.242l-29.409-69.553c3.034,1.764,6.132,3.406,9.287,4.923c0.02,0.009,0.04,0.019,0.06,0.028
			c0.82,0.393,1.644,0.779,2.471,1.156c0.295,0.135,0.591,0.269,0.887,0.401c0.512,0.228,1.026,0.453,1.541,0.675
			c0.509,0.221,1.019,0.441,1.531,0.655c0.162,0.068,0.325,0.133,0.488,0.2c3.369,1.394,6.806,2.654,10.306,3.775l8.272,33.233
			L218.156,368.242z M256.001,457.74l-17.406-41.165l12.825-57.833h9.162l12.826,57.831L256.001,457.74z M296.681,310.503
			c3.5-1.119,6.937-2.381,10.306-3.775c0.162-0.067,0.326-0.132,0.488-0.2c0.513-0.215,1.022-0.435,1.531-0.655
			c0.515-0.222,1.029-0.446,1.541-0.675c0.296-0.133,0.592-0.267,0.887-0.401c0.827-0.377,1.652-0.761,2.471-1.156
			c0.02-0.01,0.04-0.019,0.06-0.028c3.155-1.517,6.254-3.158,9.287-4.922l-29.408,69.551l-5.436-24.507L296.681,310.503z
			 M349.93,313.7l17.896,46.072l-26.269,16.894l16.622,27.36l-66.937,48.469L349.93,313.7z M302.935,481.583l95.807-69.373
			l-15.795-25.997l22.228-14.295l-32.146-82.754c47.289,5.799,84.03,46.206,84.03,95.035v97.384H302.935z"/>
	</g>
</g>
<g>
</g>
<g>
</g>
<g>
</g>
<g>
</g>
<g>
</g>
<g>
</g>
<g>
</g>
<g>
</g>
<g>
</g>
<g>
</g>
<g>
</g>
<g>
</g>
<g>
</g>
<g>
</g>
<g>
</g>
</svg>
