<?xml version="1.0" encoding="iso-8859-1"?>
<!-- Generator: Adobe Illustrator 19.0.0, SVG Export Plug-In . SVG Version: 6.00 Build 0)  -->
<svg version="1.1" id="Layer_1" xmlns="http://www.w3.org/2000/svg" xmlns:xlink="http://www.w3.org/1999/xlink" x="0px" y="0px"
	 viewBox="0 0 511.999 511.999" style="enable-background:new 0 0 511.999 511.999;" xml:space="preserve">
<g>
	<g>
		<path d="M464.875,116.248V77.045h-92.266v39.203h-26.701v-24.5c0-27.862-22.668-50.531-50.531-50.531h-78.754
			c-27.862,0-50.531,22.668-50.531,50.531v24.5H139.39V77.045H47.124v39.203H0v129.976v94.582v129.976h129.974h252.051h129.974
			V340.807v-94.582V116.248H464.875z M464.875,146.665h16.708v26.124l-26.124-26.124H464.875z M403.026,107.463h31.431v8.786
			h-31.431V107.463z M196.508,91.748c0-11.09,9.023-20.114,20.114-20.114h78.754c11.09,0,20.114,9.023,20.114,20.114v24.5H196.508
			V91.748z M77.543,107.463h31.431v8.786H77.543V107.463z M30.417,146.665h16.708h9.416L30.417,172.79V146.665z M30.417,440.367
			L30.417,440.367v-26.124l26.124,26.124H30.417z M481.583,440.366h-26.124l26.124-26.124V440.366z M481.584,371.224
			L481.584,371.224l-69.141,69.141H99.558l-69.14-69.141V215.807l69.14-69.141h39.833h26.701h179.816h26.701h39.833l69.14,69.141
			V371.224z"/>
	</g>
</g>
<g>
</g>
<g>
</g>
<g>
</g>
<g>
</g>
<g>
</g>
<g>
</g>
<g>
</g>
<g>
</g>
<g>
</g>
<g>
</g>
<g>
</g>
<g>
</g>
<g>
</g>
<g>
</g>
<g>
</g>
</svg>
