<?xml version="1.0" encoding="iso-8859-1"?>
<!-- Generator: Adobe Illustrator 19.0.0, SVG Export Plug-In . SVG Version: 6.00 Build 0)  -->
<svg version="1.1" id="Layer_1" xmlns="http://www.w3.org/2000/svg" xmlns:xlink="http://www.w3.org/1999/xlink" x="0px" y="0px"
	 viewBox="0 0 512 512" style="enable-background:new 0 0 512 512;" xml:space="preserve">
<g>
	<g>
		<path d="M12.561,244.85V512h156.525V244.85H12.561z M138.67,481.583H42.978V275.267h95.691V481.583z"/>
	</g>
</g>
<g>
	<g>
		<path d="M342.913,148.954v363.045h156.525V199.295L342.913,148.954z M469.022,481.583H373.33V190.688l95.691,30.776V481.583z"/>
	</g>
</g>
<g>
	<g>
		<path d="M318.133,88.707L287.714,30.42h-16.505V0h-30.417v30.42h-16.506l-30.418,58.287h-16.13v39.881v30.417v352.994h156.525
			V159.005v-30.417V88.707H318.133z M242.722,60.837h26.555l14.544,27.87h-55.644L242.722,60.837z M303.846,481.583L303.846,481.583
			h-95.691V159.005h95.691V481.583z M303.846,128.588h-95.691v-9.464h95.691V128.588z"/>
	</g>
</g>
<g>
	<g>
		<rect x="54.325" y="287.34" width="30.417" height="41.57"/>
	</g>
</g>
<g>
	<g>
		<rect x="96.909" y="287.34" width="30.417" height="41.57"/>
	</g>
</g>
<g>
	<g>
		<rect x="54.325" y="345.467" width="30.417" height="41.57"/>
	</g>
</g>
<g>
	<g>
		<rect x="96.909" y="345.467" width="30.417" height="41.57"/>
	</g>
</g>
<g>
	<g>
		<rect x="54.325" y="403.605" width="30.417" height="41.57"/>
	</g>
</g>
<g>
	<g>
		<rect x="96.909" y="403.605" width="30.417" height="41.57"/>
	</g>
</g>
<g>
	<g>
		<rect x="219.5" y="287.34" width="30.417" height="41.57"/>
	</g>
</g>
<g>
	<g>
		<rect x="262.084" y="287.34" width="30.417" height="41.57"/>
	</g>
</g>
<g>
	<g>
		<rect x="219.5" y="345.467" width="30.417" height="41.57"/>
	</g>
</g>
<g>
	<g>
		<rect x="262.084" y="345.467" width="30.417" height="41.57"/>
	</g>
</g>
<g>
	<g>
		<rect x="219.5" y="403.605" width="30.417" height="41.57"/>
	</g>
</g>
<g>
	<g>
		<rect x="262.084" y="403.605" width="30.417" height="41.57"/>
	</g>
</g>
<g>
	<g>
		<rect x="219.5" y="171.076" width="30.417" height="41.57"/>
	</g>
</g>
<g>
	<g>
		<rect x="262.084" y="171.076" width="30.417" height="41.57"/>
	</g>
</g>
<g>
	<g>
		<rect x="219.5" y="229.213" width="30.417" height="41.57"/>
	</g>
</g>
<g>
	<g>
		<rect x="262.084" y="229.213" width="30.417" height="41.57"/>
	</g>
</g>
<g>
	<g>
		<rect x="384.675" y="287.34" width="30.417" height="41.57"/>
	</g>
</g>
<g>
	<g>
		<rect x="427.259" y="287.34" width="30.417" height="41.57"/>
	</g>
</g>
<g>
	<g>
		<rect x="384.675" y="345.467" width="30.417" height="41.57"/>
	</g>
</g>
<g>
	<g>
		<rect x="427.259" y="345.467" width="30.417" height="41.57"/>
	</g>
</g>
<g>
	<g>
		<rect x="384.675" y="403.605" width="30.417" height="41.57"/>
	</g>
</g>
<g>
	<g>
		<rect x="427.259" y="403.605" width="30.417" height="41.57"/>
	</g>
</g>
<g>
	<g>
		<rect x="384.675" y="229.213" width="30.417" height="41.57"/>
	</g>
</g>
<g>
	<g>
		<rect x="427.259" y="229.213" width="30.417" height="41.57"/>
	</g>
</g>
<g>
</g>
<g>
</g>
<g>
</g>
<g>
</g>
<g>
</g>
<g>
</g>
<g>
</g>
<g>
</g>
<g>
</g>
<g>
</g>
<g>
</g>
<g>
</g>
<g>
</g>
<g>
</g>
<g>
</g>
</svg>
