<?xml version="1.0" encoding="iso-8859-1"?>
<!-- Generator: Adobe Illustrator 19.0.0, SVG Export Plug-In . SVG Version: 6.00 Build 0)  -->
<svg version="1.1" id="Layer_1" xmlns="http://www.w3.org/2000/svg" xmlns:xlink="http://www.w3.org/1999/xlink" x="0px" y="0px"
	 viewBox="0 0 512 512" style="enable-background:new 0 0 512 512;" xml:space="preserve">
<g>
	<g>
		<path d="M481.583,149.478h-39.024V55.954h-124.71V13.488H186.041v42.465h-51.616C60.303,55.954,0,116.257,0,190.378v308.133
			h308.134c74.122,0,134.425-60.303,134.425-134.425V179.895H512V98.782h-30.417V149.478z M216.458,43.906h70.973v12.048h-70.973
			V43.906z M412.141,364.087c0,57.35-46.658,104.007-104.007,104.007H30.417V190.378c0-57.35,46.658-104.007,104.007-104.007h51.616
			h131.808h94.293V364.087z"/>
	</g>
</g>
<g>
	<g>
		<path d="M221.279,109.826c-92.309,0-167.407,75.098-167.407,167.407S128.971,444.64,221.279,444.64
			s167.407-75.098,167.407-167.407S313.588,109.826,221.279,109.826z M221.279,414.222c-75.537,0-136.99-61.453-136.99-136.99
			s61.454-136.99,136.99-136.99s136.99,61.453,136.99,136.99S296.816,414.222,221.279,414.222z"/>
	</g>
</g>
<g>
	<g>
		<polygon points="131.252,195.106 131.252,225.523 153.556,225.523 153.556,358.346 183.973,358.346 183.973,195.106 		"/>
	</g>
</g>
<g>
	<g>
		<path d="M204.255,195.106v163.239h104.008V195.106H204.255z M277.847,327.928h-43.174V225.523h43.174V327.928z"/>
	</g>
</g>
<g>
</g>
<g>
</g>
<g>
</g>
<g>
</g>
<g>
</g>
<g>
</g>
<g>
</g>
<g>
</g>
<g>
</g>
<g>
</g>
<g>
</g>
<g>
</g>
<g>
</g>
<g>
</g>
<g>
</g>
</svg>
