<?xml version="1.0" encoding="iso-8859-1"?>
<!-- Generator: Adobe Illustrator 19.0.0, SVG Export Plug-In . SVG Version: 6.00 Build 0)  -->
<svg version="1.1" id="Layer_1" xmlns="http://www.w3.org/2000/svg" xmlns:xlink="http://www.w3.org/1999/xlink" x="0px" y="0px"
	 viewBox="0 0 512 512" style="enable-background:new 0 0 512 512;" xml:space="preserve">
<g>
	<g>
		<path d="M374.04,313.671h-12.783V46.6c0-25.695-20.904-46.6-46.6-46.6c-25.694,0-46.599,20.905-46.599,46.6v87.614h-24.116V46.6
			c0-25.695-20.905-46.6-46.6-46.6c-25.694,0-46.599,20.905-46.599,46.6v267.07h-12.783v73.101l24.178,54.661v23.692
			c0,25.847,21.029,46.875,46.875,46.875h93.976c25.847,0,46.875-21.029,46.875-46.875v-23.692l24.178-54.66v-73.102H374.04z
			 M298.506,235.763V134.213V46.6c0-8.906,7.246-16.152,16.151-16.152c8.906,0,16.152,7.246,16.152,16.152v267.07h-32.303V235.763z
			 M243.941,164.662h24.116v40.652h-24.116V164.662z M243.941,235.763h24.117v77.908h-24.117V235.763z M181.19,46.6
			c0-8.906,7.246-16.152,16.152-16.152c8.905,0,16.151,7.246,16.151,16.152v87.614v101.548v77.908H181.19V46.6z M302.987,481.552
			h-93.976c-9.057,0-16.427-7.369-16.427-16.427v-11.684h126.828v11.684h0.001C319.414,474.182,312.044,481.552,302.987,481.552z
			 M324.725,422.992H187.274l-10.71-24.213h158.87L324.725,422.992z M343.593,368.332h-0.001H168.407v-24.213h75.534h24.117h75.534
			V368.332z"/>
	</g>
</g>
<g>
</g>
<g>
</g>
<g>
</g>
<g>
</g>
<g>
</g>
<g>
</g>
<g>
</g>
<g>
</g>
<g>
</g>
<g>
</g>
<g>
</g>
<g>
</g>
<g>
</g>
<g>
</g>
<g>
</g>
</svg>
