<?xml version="1.0" encoding="iso-8859-1"?>
<!-- Generator: Adobe Illustrator 19.0.0, SVG Export Plug-In . SVG Version: 6.00 Build 0)  -->
<svg version="1.1" id="Layer_1" xmlns="http://www.w3.org/2000/svg" xmlns:xlink="http://www.w3.org/1999/xlink" x="0px" y="0px"
	 viewBox="0 0 512 512" style="enable-background:new 0 0 512 512;" xml:space="preserve">
<g>
	<g>
		<path d="M0,57.781v396.438h512V57.781H0z M481.583,423.802H30.417V88.198h451.166V423.802z"/>
	</g>
</g>
<g>
	<g>
		<path d="M50.698,108.479V245.04h410.602V108.479H50.698z M430.883,214.623H81.115v-75.727h349.768V214.623z"/>
	</g>
</g>
<g>
	<g>
		<path d="M298.303,349.632c-6.248-17.327-22.85-29.748-42.303-29.748c-19.453,0-36.055,12.421-42.303,29.748h-163v30.417h162.998
			c6.249,17.327,22.85,29.748,42.304,29.748c19.453,0,36.055-12.421,42.303-29.748h162.998v-30.417H298.303z M256,379.38
			c-8.017,0-14.539-6.523-14.539-14.539s6.522-14.539,14.539-14.539c8.017,0,14.539,6.523,14.539,14.539S264.017,379.38,256,379.38z
			"/>
	</g>
</g>
<g>
	<g>
		<rect x="103.753" y="282.13" width="69.442" height="30.417"/>
	</g>
</g>
<g>
	<g>
		<polygon points="388.733,282.128 388.733,262.613 358.316,262.613 358.316,282.128 338.802,282.128 338.802,312.545 
			358.316,312.545 358.316,332.059 388.733,332.059 388.733,312.545 408.247,312.545 408.247,282.128 		"/>
	</g>
</g>
<g>
	<g>
		<rect x="319.35" y="154.276" width="30.417" height="44.977"/>
	</g>
</g>
<g>
	<g>
		<rect x="370.045" y="154.276" width="30.417" height="44.977"/>
	</g>
</g>
<g>
</g>
<g>
</g>
<g>
</g>
<g>
</g>
<g>
</g>
<g>
</g>
<g>
</g>
<g>
</g>
<g>
</g>
<g>
</g>
<g>
</g>
<g>
</g>
<g>
</g>
<g>
</g>
<g>
</g>
</svg>
