<?xml version="1.0" encoding="iso-8859-1"?>
<!-- Generator: Adobe Illustrator 19.0.0, SVG Export Plug-In . SVG Version: 6.00 Build 0)  -->
<svg version="1.1" id="Layer_1" xmlns="http://www.w3.org/2000/svg" xmlns:xlink="http://www.w3.org/1999/xlink" x="0px" y="0px"
	 viewBox="0 0 512 512" style="enable-background:new 0 0 512 512;" xml:space="preserve">
<g>
	<g>
		
			<rect x="86.11" y="359.614" transform="matrix(0.7071 -0.7071 0.7071 0.7071 -257.0206 190.3779)" width="30.372" height="91.652"/>
	</g>
</g>
<g>
	<g>
		<path d="M465.076,26.016C451.7,12.639,433.916,5.273,414.998,5.273s-36.701,7.366-50.078,20.743L110.396,280.539l-12.529-15.889
			l-84.241,84.242C4.839,357.679,0,369.361,0,381.787c0,12.426,4.839,24.108,13.626,32.895l78.419,78.419
			c8.787,8.787,20.469,13.626,32.895,13.626c12.426,0,24.108-4.839,32.895-13.626l67.192-67.19l-16.44-20.849l8.531-3.674
			l6.313-22.862l21.784-9.381l6.313-22.863l21.785-9.382l6.315-22.865l21.785-9.382l6.316-22.865l21.785-9.383l6.312-22.86
			l21.785-9.381l6.314-22.865l21.786-9.381l6.314-22.865l21.786-9.384l6.317-22.866l21.788-9.386l6.316-22.866l21.788-9.386
			l6.319-22.87L512,72.934L465.076,26.016z M136.359,471.626c-6.297,6.296-16.542,6.296-22.839,0l-78.419-78.419
			c-3.049-3.049-4.729-7.105-4.729-11.419c0-4.314,1.68-8.37,4.73-11.419l60.076-60.077l33.237,42.15l56.048,71.079L136.359,471.626
			z M450.945,66.17l-6.319,22.87l-21.789,9.386l-6.316,22.866l-21.788,9.386l-6.315,22.866l-21.788,9.384l-6.314,22.863
			l-21.784,9.381l-6.316,22.865l-21.785,9.381l-6.312,22.862l-21.785,9.383l-6.314,22.863l-21.786,9.382l-6.315,22.865
			l-21.786,9.382l-6.313,22.863l-21.784,9.381l-6.313,22.862l-2.6,1.12l-59.788-75.823L386.397,47.492
			c15.771-15.771,41.433-15.771,57.205,0l15.266,15.266L450.945,66.17z"/>
	</g>
</g>
<g>
</g>
<g>
</g>
<g>
</g>
<g>
</g>
<g>
</g>
<g>
</g>
<g>
</g>
<g>
</g>
<g>
</g>
<g>
</g>
<g>
</g>
<g>
</g>
<g>
</g>
<g>
</g>
<g>
</g>
</svg>
