<?xml version="1.0" encoding="iso-8859-1"?>
<!-- Generator: Adobe Illustrator 19.0.0, SVG Export Plug-In . SVG Version: 6.00 Build 0)  -->
<svg version="1.1" id="Layer_1" xmlns="http://www.w3.org/2000/svg" xmlns:xlink="http://www.w3.org/1999/xlink" x="0px" y="0px"
	 viewBox="0 0 512.001 512.001" style="enable-background:new 0 0 512.001 512.001;" xml:space="preserve">
<g>
	<g>
		<path d="M445.258,186.13h-87.184V95.601L291.33,27.723H153.927v76.208l-16.525-16.806H0V416.4l66.744,67.878h137.403v-16.807
			l16.525,16.807h137.403v-16.807l16.526,16.807h137.402V254.01L445.258,186.13z M57.909,431.91l-27.492-27.961V139.493
			l27.492,27.961V431.91z M51.492,117.543h73.161l28.001,28.478H79.493L51.492,117.543z M173.728,436.537v17.324H88.327V176.438
			h85.401V436.537z M211.837,431.91l-7.691-7.822V155.004h0l-19.801-20.138V80.09l27.492,27.961V431.91z M205.42,58.14h73.162
			l28,28.478h-73.161L205.42,58.14z M327.656,186.13v250.408v17.324h-85.401V117.035h85.401V186.13z M365.765,431.91l-7.692-7.822
			V258.635l7.692,7.822V431.91z M359.346,216.547h73.162l28.001,28.478h-73.162L359.346,216.547z M481.583,453.861h-85.4V275.442
			h85.4V453.861z"/>
	</g>
</g>
<g>
</g>
<g>
</g>
<g>
</g>
<g>
</g>
<g>
</g>
<g>
</g>
<g>
</g>
<g>
</g>
<g>
</g>
<g>
</g>
<g>
</g>
<g>
</g>
<g>
</g>
<g>
</g>
<g>
</g>
</svg>
