<?xml version="1.0" encoding="iso-8859-1"?>
<!-- Generator: Adobe Illustrator 19.0.0, SVG Export Plug-In . SVG Version: 6.00 Build 0)  -->
<svg version="1.1" id="Layer_1" xmlns="http://www.w3.org/2000/svg" xmlns:xlink="http://www.w3.org/1999/xlink" x="0px" y="0px"
	 viewBox="0 0 512.002 512.002" style="enable-background:new 0 0 512.002 512.002;" xml:space="preserve">
<g>
	<g>
		<path d="M499.015,78.98l-8.168-13.879l-64.222,42.913l5.615,11.861c3.358,7.093,0.963,15.732-5.57,20.096l-24.036,16.062
			c-7.324,4.891-17.258,2.915-22.153-4.408c-5.572-8.34-12.575-15.161-20.465-20.365c-7.111-5.033-8.889-14.649-4.049-21.894
			l16.061-24.036c4.367-6.533,13.006-8.928,20.097-5.57l11.861,5.615l42.913-64.222l-13.879-8.168
			c-42.96-25.282-98.322-12.594-126.033,28.882l-16.06,24.039c-13.349,19.978-18.465,43.996-14.654,67.401L0.001,317.906
			l37.698,56.421l270.872-180.991c2.174-1.451,5.12-0.864,6.57,1.307l0.298,0.444c1.28,1.915,2.621,3.766,4.013,5.556
			c0.034,0.808-0.12,1.791-0.787,2.788l-180.99,270.872l56.419,37.698l184.625-276.31c22.701,3.682,46.788-0.862,67.373-14.615
			l24.038-16.062C511.609,177.301,524.295,121.94,499.015,78.98z M316.218,82.808L332.28,58.77
			c15.651-23.422,44.319-33.285,70.27-25.989l-10.402,15.568c-17.312-2.506-35.309,4.968-45.409,20.084l-16.061,24.036
			c-5.524,8.267-8.068,17.595-7.886,26.764c-5.748-0.252-11.544,0.163-17.262,1.284C305.044,107.26,308.684,94.083,316.218,82.808z
			 M185.704,469.81l-5.835-3.9l162.978-243.916c1.979,1.267,4,2.458,6.058,3.568L185.704,469.81z M453.233,179.723l-24.037,16.062
			c-14.166,9.463-31.165,12.85-47.877,9.523c-16.709-3.323-31.122-12.954-40.587-27.119l-0.297-0.445
			c-10.772-16.117-32.646-20.468-48.763-9.698L46.092,332.134l-3.9-5.836l253.757-169.556c19.582-13.088,46.155-7.797,59.241,11.784
			c6.884,10.302,17.368,17.307,29.521,19.725c12.152,2.416,24.519-0.043,34.823-6.927l24.035-16.061
			c15.116-10.101,22.601-28.087,20.085-45.409l15.568-10.402C486.52,135.406,476.655,164.073,453.233,179.723z"/>
	</g>
</g>
<g>
</g>
<g>
</g>
<g>
</g>
<g>
</g>
<g>
</g>
<g>
</g>
<g>
</g>
<g>
</g>
<g>
</g>
<g>
</g>
<g>
</g>
<g>
</g>
<g>
</g>
<g>
</g>
<g>
</g>
</svg>
