<?xml version="1.0" encoding="iso-8859-1"?>
<!-- Generator: Adobe Illustrator 19.0.0, SVG Export Plug-In . SVG Version: 6.00 Build 0)  -->
<svg version="1.1" id="Layer_1" xmlns="http://www.w3.org/2000/svg" xmlns:xlink="http://www.w3.org/1999/xlink" x="0px" y="0px"
	 viewBox="0 0 512 512" style="enable-background:new 0 0 512 512;" xml:space="preserve">
<g>
	<g>
		<path d="M221.527,166.33V36.996H0v438.007h191.11h30.417h20.278h219.499H512V166.33H221.527z M191.11,166.331v278.255H30.417
			V67.414H191.11V166.331z M430.888,444.586H272.223v-13.973h158.665V444.586z M430.888,400.196H272.223v-13.973h158.665V400.196z
			 M430.888,355.806H272.223v-13.974h158.665V355.806z M430.888,311.415H272.223v-13.973h158.665V311.415z M481.583,444.586
			L481.583,444.586h-20.278v-13.973v-30.417v-13.973v-30.417v-13.974v-30.417v-44.39H241.805v44.39v30.417v13.974v30.417v13.973
			v30.417v13.973h-20.278V196.747h260.056V444.586z"/>
	</g>
</g>
<g>
	<g>
		<path d="M125.973,87.692H95.556h-44.86v125.724h44.86h30.417h44.859V87.692H125.973z M95.556,182.999H81.112v-64.89h14.443
			V182.999z M140.415,182.999h-14.442v-64.89h14.442V182.999z"/>
	</g>
</g>
<g>
	<g>
		<path d="M125.973,267.025H95.556h-44.86V392.75h44.86h30.417h44.859V267.025H125.973z M95.556,362.332H81.112v-64.89h14.443
			V362.332z M140.415,362.332h-14.442v-64.89h14.442V362.332z"/>
	</g>
</g>
<g>
</g>
<g>
</g>
<g>
</g>
<g>
</g>
<g>
</g>
<g>
</g>
<g>
</g>
<g>
</g>
<g>
</g>
<g>
</g>
<g>
</g>
<g>
</g>
<g>
</g>
<g>
</g>
<g>
</g>
</svg>
