<?xml version="1.0" encoding="iso-8859-1"?>
<!-- Generator: Adobe Illustrator 19.0.0, SVG Export Plug-In . SVG Version: 6.00 Build 0)  -->
<svg version="1.1" id="Layer_1" xmlns="http://www.w3.org/2000/svg" xmlns:xlink="http://www.w3.org/1999/xlink" x="0px" y="0px"
	 viewBox="0 0 511.999 511.999" style="enable-background:new 0 0 511.999 511.999;" xml:space="preserve">
<g>
	<g>
		<path d="M440.529,0H71.469v485.143h25.826v26.856h30.417v-26.856h256.575v26.856h30.417v-26.856h25.826L440.529,0L440.529,0z
			 M410.112,454.726H101.886V30.417h308.227V454.726z"/>
	</g>
</g>
<g>
	<g>
		<path d="M255.999,55.823c-35.425,0-64.246,28.82-64.246,64.246s28.821,64.246,64.246,64.246c35.425,0,64.246-28.82,64.246-64.246
			S291.424,55.823,255.999,55.823z M255.999,153.897c-18.653,0-33.829-15.176-33.829-33.829s15.176-33.829,33.829-33.829
			c18.653,0,33.829,15.176,33.829,33.829S274.652,153.897,255.999,153.897z"/>
	</g>
</g>
<g>
	<g>
		<path d="M255.999,208.245c-60.951,0-110.538,49.587-110.538,110.538S195.048,429.32,255.999,429.32
			s110.538-49.587,110.538-110.538C366.537,257.832,316.95,208.245,255.999,208.245z M255.999,398.903
			c-44.179,0-80.121-35.942-80.121-80.121c0-44.179,35.942-80.121,80.121-80.121s80.121,35.942,80.121,80.121
			C336.12,362.961,300.179,398.903,255.999,398.903z"/>
	</g>
</g>
<g>
	<g>
		<path d="M255.999,275.101c-24.086,0-43.682,19.596-43.682,43.682s19.596,43.682,43.682,43.682s43.682-19.596,43.682-43.682
			S280.085,275.101,255.999,275.101z M255.999,332.047c-7.314,0-13.265-5.951-13.265-13.265s5.951-13.265,13.265-13.265
			c7.314,0,13.265,5.951,13.265,13.265S263.313,332.047,255.999,332.047z"/>
	</g>
</g>
<g>
</g>
<g>
</g>
<g>
</g>
<g>
</g>
<g>
</g>
<g>
</g>
<g>
</g>
<g>
</g>
<g>
</g>
<g>
</g>
<g>
</g>
<g>
</g>
<g>
</g>
<g>
</g>
<g>
</g>
</svg>
