<?xml version="1.0" encoding="iso-8859-1"?>
<!-- Generator: Adobe Illustrator 19.0.0, SVG Export Plug-In . SVG Version: 6.00 Build 0)  -->
<svg version="1.1" id="Layer_1" xmlns="http://www.w3.org/2000/svg" xmlns:xlink="http://www.w3.org/1999/xlink" x="0px" y="0px"
	 viewBox="0 0 512 512" style="enable-background:new 0 0 512 512;" xml:space="preserve">
<g>
	<g>
		<path d="M105.854,0.001V20.28H89.719V0.001H0v511.999h89.719V236.735h16.135v20.279H512V0.001H105.854z M59.302,481.582H30.417
			V30.418h28.885V481.582z M105.855,206.317H89.719V50.697h16.135V206.317z M136.271,226.597V30.418h345.311v196.18H136.271z"/>
	</g>
</g>
<g>
	<g>
		<polygon points="356.732,80.595 356.732,113.553 313.094,69.317 313.094,176.42 343.511,176.42 343.511,143.463 387.149,187.699 
			387.149,80.595 		"/>
	</g>
</g>
<g>
	<g>
		<polygon points="397.115,77.587 397.115,108.004 416.314,108.004 416.314,176.42 446.731,176.42 446.731,108.004 465.931,108.004 
			465.931,77.587 		"/>
	</g>
</g>
<g>
	<g>
		<polygon points="303.128,108.004 303.128,77.587 231.693,77.587 231.693,179.427 303.128,179.427 303.128,149.01 262.11,149.01 
			262.11,143.717 280.33,143.717 280.33,113.299 262.11,113.299 262.11,108.004 		"/>
	</g>
</g>
<g>
	<g>
		<path d="M224.394,77.587h-74.056v50.921v15.209v32.703h30.417v-15.484l22.901,19.045l19.449-23.387l-15.484-12.877h16.773V77.587z
			 M193.976,113.299h-13.221v-5.296h13.221V113.299z"/>
	</g>
</g>
<g>
</g>
<g>
</g>
<g>
</g>
<g>
</g>
<g>
</g>
<g>
</g>
<g>
</g>
<g>
</g>
<g>
</g>
<g>
</g>
<g>
</g>
<g>
</g>
<g>
</g>
<g>
</g>
<g>
</g>
</svg>
