<?xml version="1.0" encoding="iso-8859-1"?>
<!-- Generator: Adobe Illustrator 19.0.0, SVG Export Plug-In . SVG Version: 6.00 Build 0)  -->
<svg version="1.1" id="Layer_1" xmlns="http://www.w3.org/2000/svg" xmlns:xlink="http://www.w3.org/1999/xlink" x="0px" y="0px"
	 viewBox="0 0 512 512" style="enable-background:new 0 0 512 512;" xml:space="preserve">
<g>
	<g>
		<path d="M146.768,292.372v150.138h218.464V292.372H146.768z M240.881,412.272h-63.876v-29.713h63.876V412.272z M240.881,352.321
			h-63.876v-29.712h63.876V352.321z M334.995,412.272h-63.876v-29.713h63.876V412.272z M334.995,352.322h-63.876V322.61h63.876
			V352.322z"/>
	</g>
</g>
<g>
	<g>
		<path d="M256,111.916c-25.565,0-46.364,20.799-46.364,46.364s20.799,46.364,46.364,46.364s46.364-20.799,46.364-46.364
			S281.565,111.916,256,111.916z M256,174.406c-8.892,0-16.127-7.235-16.127-16.126c0-8.892,7.235-16.127,16.127-16.127
			s16.126,7.235,16.126,16.127C272.126,167.172,264.892,174.406,256,174.406z"/>
	</g>
</g>
<g>
	<g>
		<path d="M256,1.468L163.274,93.15V46.401H87.681v121.491L0,254.586h39.984v255.946h432.034V254.586H512L256,1.468z
			 M117.918,76.639h15.119v46.408l-15.119,14.948V76.639z M87.681,210.414v0.002l75.593-74.743L256,43.991l182.414,180.359H73.587
			L87.681,210.414z M441.78,480.294h-0.001H70.221V254.586H441.78V480.294z"/>
	</g>
</g>
<g>
</g>
<g>
</g>
<g>
</g>
<g>
</g>
<g>
</g>
<g>
</g>
<g>
</g>
<g>
</g>
<g>
</g>
<g>
</g>
<g>
</g>
<g>
</g>
<g>
</g>
<g>
</g>
<g>
</g>
</svg>
