<?xml version="1.0" encoding="iso-8859-1"?>
<!-- Generator: Adobe Illustrator 19.0.0, SVG Export Plug-In . SVG Version: 6.00 Build 0)  -->
<svg version="1.1" id="Layer_1" xmlns="http://www.w3.org/2000/svg" xmlns:xlink="http://www.w3.org/1999/xlink" x="0px" y="0px"
	 viewBox="0 0 511.999 511.999" style="enable-background:new 0 0 511.999 511.999;" xml:space="preserve">
<g>
	<g>
		<path d="M344.648,179.671h-86.274c-24.79,0-44.959-20.169-44.959-44.959v-0.001c0-23.609,18.805-43.102,41.918-43.456
			c0.218-0.003,0.434-0.005,0.651-0.005c17.796,0,33.814,11.146,39.994,27.907c6.592,17.875,23.613,29.886,42.352,29.886h1.058
			c14.715,0,28.543-7.189,36.991-19.227c8.48-12.084,10.541-27.599,5.512-41.501C362.767,35.439,312.216,0,255.99,0
			c-0.151,0-0.311,0.001-0.462,0.001c-35.463,0.123-68.949,14.405-94.286,40.213c-25.199,25.668-39.077,59.374-39.077,94.91v376.876
			h267.67V224.858C389.835,199.942,369.564,179.671,344.648,179.671z M359.418,481.582H152.582V135.123
			c0-27.516,10.784-53.655,30.365-73.6c19.599-19.965,45.413-31.01,72.685-31.106c0.121-0.001,0.239-0.001,0.358-0.001
			c43.45,0,82.521,27.387,97.296,68.243c1.685,4.66,1.027,9.647-1.806,13.684c-2.802,3.993-7.211,6.283-12.094,6.283h-1.057
			c-6.152,0-11.575-3.923-13.812-9.992c-10.714-29.058-38.696-48.249-69.647-47.792c-39.63,0.604-71.871,33.743-71.871,73.87
			c0,41.562,33.814,75.376,75.376,75.376h86.274c8.144,0,14.77,6.626,14.77,14.77V481.582z"/>
	</g>
</g>
<g>
	<g>
		<path d="M256,266.138c-36.899,0-66.918,30.019-66.918,66.918c0,36.899,30.019,66.918,66.918,66.918
			c36.898,0,66.918-30.019,66.918-66.918C322.918,296.157,292.899,266.138,256,266.138z M256,369.556
			c-20.127,0-36.501-16.374-36.501-36.501c0-20.127,16.374-36.501,36.501-36.501c20.126,0,36.501,16.374,36.501,36.501
			C292.501,353.183,276.127,369.556,256,369.556z"/>
	</g>
</g>
<g>
</g>
<g>
</g>
<g>
</g>
<g>
</g>
<g>
</g>
<g>
</g>
<g>
</g>
<g>
</g>
<g>
</g>
<g>
</g>
<g>
</g>
<g>
</g>
<g>
</g>
<g>
</g>
<g>
</g>
</svg>
