<?xml version="1.0" encoding="iso-8859-1"?>
<!-- Generator: Adobe Illustrator 19.0.0, SVG Export Plug-In . SVG Version: 6.00 Build 0)  -->
<svg version="1.1" id="Layer_1" xmlns="http://www.w3.org/2000/svg" xmlns:xlink="http://www.w3.org/1999/xlink" x="0px" y="0px"
	 viewBox="0 0 512 512" style="enable-background:new 0 0 512 512;" xml:space="preserve">
<g>
	<g>
		<path d="M512,323.933V46.121h-60.205L425.953,0H372.42v30.417h35.71l8.799,15.703H95.071l8.799-15.703h35.71V0H86.046
			L60.205,46.121H0v277.812h212.284v157.65h-108.37V512h108.37h87.43h108.37v-30.417h-108.37v-157.65H512z M269.297,481.583h-26.596
			v-157.65h26.596V481.583z M212.284,293.516H30.417V76.538h451.166v216.978H299.715H212.284z"/>
	</g>
</g>
<g>
	<g>
		<path d="M45.626,91.746v176.421h420.748V91.746H45.626z M435.957,237.75H76.043V122.163h359.914V237.75z"/>
	</g>
</g>
<g>
</g>
<g>
</g>
<g>
</g>
<g>
</g>
<g>
</g>
<g>
</g>
<g>
</g>
<g>
</g>
<g>
</g>
<g>
</g>
<g>
</g>
<g>
</g>
<g>
</g>
<g>
</g>
<g>
</g>
</svg>
