<?xml version="1.0" encoding="iso-8859-1"?>
<!-- Generator: Adobe Illustrator 19.0.0, SVG Export Plug-In . SVG Version: 6.00 Build 0)  -->
<svg version="1.1" id="Layer_1" xmlns="http://www.w3.org/2000/svg" xmlns:xlink="http://www.w3.org/1999/xlink" x="0px" y="0px"
	 viewBox="0 0 512 512" style="enable-background:new 0 0 512 512;" xml:space="preserve">
<g>
	<g>
		<path d="M0,0.001v511.999h512V0.001H0z M481.583,481.582H30.417V30.418h451.166V481.582z"/>
	</g>
</g>
<g>
	<g>
		<path d="M45.626,45.626v420.747h420.748V45.626H45.626z M435.957,435.957H76.043V76.043h359.914V435.957z"/>
	</g>
</g>
<g>
	<g>
		<g>
			<path d="M272.078,103.915H144.108v304.172h76.284V295.544h51.685c52.832,0,95.814-42.982,95.814-95.815
				C367.892,146.897,324.91,103.915,272.078,103.915z M272.076,265.127h-82.102v112.543h-15.45V134.332h97.552
				c36.06,0,65.397,29.337,65.397,65.397C337.473,235.789,308.137,265.127,272.076,265.127z"/>
			<path d="M272.078,149.54h-82.343v100.378h82.343c27.674,0,50.188-22.515,50.188-50.189
				C322.266,172.055,299.751,149.54,272.078,149.54z M272.076,219.501H220.15v-39.543h51.926c10.902,0,19.771,8.87,19.771,19.771
				C291.848,210.631,282.978,219.501,272.076,219.501z"/>
		</g>
	</g>
</g>
<g>
</g>
<g>
</g>
<g>
</g>
<g>
</g>
<g>
</g>
<g>
</g>
<g>
</g>
<g>
</g>
<g>
</g>
<g>
</g>
<g>
</g>
<g>
</g>
<g>
</g>
<g>
</g>
<g>
</g>
</svg>
