<?xml version="1.0" encoding="iso-8859-1"?>
<!-- Generator: Adobe Illustrator 19.0.0, SVG Export Plug-In . SVG Version: 6.00 Build 0)  -->
<svg version="1.1" id="Layer_1" xmlns="http://www.w3.org/2000/svg" xmlns:xlink="http://www.w3.org/1999/xlink" x="0px" y="0px"
	 viewBox="0 0 512 512" style="enable-background:new 0 0 512 512;" xml:space="preserve">
<g>
	<g>
		<path d="M393.714,212.401V29.585H118.285v182.817H0v30.417h20.28v166.28H0.001v73.315h511.998v-73.315H491.72v-166.28H512v-0.001
			v-30.417H393.714z M442.718,242.818h18.585v166.28h-18.585V242.818z M393.714,242.818H412.3v166.28h-18.586V242.818z
			 M148.702,60.002h214.595v152.4h-20.281V80.283H168.983v132.119h-20.281V60.002z M363.297,242.818v166.28h-18.585v-166.28H363.297
			z M295.709,242.818h18.586v166.28h-18.586V242.818z M271.209,212.401V110.701H312.6v101.701H271.209z M265.292,242.818v166.28
			h-18.585v-166.28h0H265.292z M199.4,212.401V110.701h41.391v101.701H199.4z M216.29,242.818v166.28h-18.586v-166.28H216.29z
			 M148.702,242.818h18.585v166.28h-18.585V242.818z M99.699,242.818h18.586v166.28H99.699V242.818z M50.697,242.818h18.585v166.28
			H50.697V242.818z M481.582,451.997H30.418v-12.481h451.164V451.997z"/>
	</g>
</g>
<g>
</g>
<g>
</g>
<g>
</g>
<g>
</g>
<g>
</g>
<g>
</g>
<g>
</g>
<g>
</g>
<g>
</g>
<g>
</g>
<g>
</g>
<g>
</g>
<g>
</g>
<g>
</g>
<g>
</g>
</svg>
