<?xml version="1.0" encoding="iso-8859-1"?>
<!-- Generator: Adobe Illustrator 19.0.0, SVG Export Plug-In . SVG Version: 6.00 Build 0)  -->
<svg version="1.1" id="Layer_1" xmlns="http://www.w3.org/2000/svg" xmlns:xlink="http://www.w3.org/1999/xlink" x="0px" y="0px"
	 viewBox="0 0 512 512" style="enable-background:new 0 0 512 512;" xml:space="preserve">
<g>
	<g>
		<path d="M214.192,45.626c-92.942,0-168.556,75.614-168.556,168.557s75.614,168.556,168.557,168.556
			c92.942,0,168.556-75.614,168.556-168.556S307.134,45.626,214.192,45.626z M214.192,352.322
			c-76.17,0-138.14-61.969-138.14-138.139s61.97-138.14,138.14-138.14s138.139,61.969,138.139,138.14
			S290.362,352.322,214.192,352.322z"/>
	</g>
</g>
<g>
	<g>
		<path d="M499.711,440.317l-107.37-107.371c22.748-34.012,36.033-74.863,36.033-118.764C428.374,96.082,332.293,0,214.192,0
			S0.01,96.082,0.01,214.183c0,118.1,96.082,214.182,214.183,214.182c43.901,0,84.752-13.285,118.764-36.033l107.37,107.37
			c7.93,7.931,18.475,12.299,29.692,12.299s21.761-4.368,29.692-12.299C516.083,483.329,516.083,456.689,499.711,440.317z
			 M214.192,397.948c-101.328,0-183.765-82.437-183.765-183.765c0-101.329,82.437-183.766,183.765-183.766
			s183.765,82.437,183.765,183.766S315.52,397.948,214.192,397.948z M478.203,478.192c-2.186,2.186-5.093,3.391-8.184,3.391
			c-3.092,0-5.998-1.203-8.184-3.389L357.228,373.586c5.745-5.158,11.211-10.624,16.369-16.369l104.607,104.607
			C482.715,466.337,482.715,473.68,478.203,478.192z"/>
	</g>
</g>
<g>
	<g>
		<path d="M214.192,98.97L106.094,212.166h30.678v79.996h154.841v-79.996h30.678L214.192,98.97z M214.192,143.013l36.991,38.736
			H177.2L214.192,143.013z M261.196,261.745h-94.006v-49.579h94.006V261.745z"/>
	</g>
</g>
<g>
</g>
<g>
</g>
<g>
</g>
<g>
</g>
<g>
</g>
<g>
</g>
<g>
</g>
<g>
</g>
<g>
</g>
<g>
</g>
<g>
</g>
<g>
</g>
<g>
</g>
<g>
</g>
<g>
</g>
</svg>
