<?xml version="1.0" encoding="iso-8859-1"?>
<!-- Generator: Adobe Illustrator 19.0.0, SVG Export Plug-In . SVG Version: 6.00 Build 0)  -->
<svg version="1.1" id="Layer_1" xmlns="http://www.w3.org/2000/svg" xmlns:xlink="http://www.w3.org/1999/xlink" x="0px" y="0px"
	 viewBox="0 0 512 512" style="enable-background:new 0 0 512 512;" xml:space="preserve">
<g>
	<g>
		<path d="M374.743,91.375c-20.972,0-38.036,17.063-38.036,38.036s17.064,38.036,38.036,38.036s38.035-17.063,38.035-38.036
			S395.716,91.375,374.743,91.375z M374.743,136.999c-4.183,0-7.587-3.404-7.587-7.587c0-4.183,3.404-7.587,7.587-7.587
			s7.586,3.404,7.586,7.587C382.329,133.595,378.926,136.999,374.743,136.999z"/>
	</g>
</g>
<g>
	<g>
		<path d="M357.665,31.196c-37.302,0-71.357,21.411-87.843,54.255H82.638l-25.981,39.392v48.529h213.165
			c16.485,32.844,50.541,54.255,87.843,54.255c54.156,0,98.216-44.059,98.216-98.216S411.821,31.196,357.665,31.196z
			 M357.664,197.178c-28.258,0-53.815-17.804-63.595-44.302l-3.674-9.953h-93.242v-16.974h-30.449v16.974h-10.659v-16.974h-30.449
			v16.974H87.106v-8.943L99.03,115.9h191.365l3.674-9.953c9.781-26.499,35.337-44.302,63.595-44.302
			c37.366,0,67.767,30.399,67.767,67.767C425.43,166.778,395.031,197.178,357.664,197.178z"/>
	</g>
</g>
<g>
	<g>
		<path d="M495.055,301.256l-121.274,29.41v-43.655l-140.178-35.103L89.527,274.259H0v206.546h105.536V438.15l74.011-8.301
			l143.401,40.257L512,365.908L495.055,301.256z M75.087,441.566v8.79H30.449V304.708h44.637V441.566z M319.172,437.418
			l-137.115-38.491l-76.521,8.583V302.589l126.647-19.647l111.148,27.834v19.864l-85.273-20.797l-7.213,29.582l107.701,26.266
			l114.633-27.8l3.354,12.795L319.172,437.418z"/>
	</g>
</g>
<g>
</g>
<g>
</g>
<g>
</g>
<g>
</g>
<g>
</g>
<g>
</g>
<g>
</g>
<g>
</g>
<g>
</g>
<g>
</g>
<g>
</g>
<g>
</g>
<g>
</g>
<g>
</g>
<g>
</g>
</svg>
