<?xml version="1.0" encoding="iso-8859-1"?>
<!-- Generator: Adobe Illustrator 19.0.0, SVG Export Plug-In . SVG Version: 6.00 Build 0)  -->
<svg version="1.1" id="Layer_1" xmlns="http://www.w3.org/2000/svg" xmlns:xlink="http://www.w3.org/1999/xlink" x="0px" y="0px"
	 viewBox="0 0 512 512" style="enable-background:new 0 0 512 512;" xml:space="preserve">
<g>
	<g>
		<path d="M336.466,77.121l-21.128,67.725l-21.129-67.725H187.102h-79.997H0l37.823,121.238v236.521h107.105h78.549h76.615h30.491
			h143.595V198.359L512,77.121H336.466z M41.452,107.611h75.165l22.83,73.179H64.282L41.452,107.611z M144.928,404.389H68.313
			V211.281h76.615V404.389z M148.557,107.611h16.118l22.829,73.179h-16.118L148.557,107.611z M192.986,404.389h-17.568V211.281
			h17.568V404.389z M196.615,107.611h75.166l22.829,73.179h-71.134h-4.032L196.615,107.611z M300.092,404.389h-0.001h-76.615
			V211.281h5.481h65.653h5.481V404.389z M443.687,404.389h-0.001H330.582V211.281h5.481h107.624V404.389z M447.719,180.791H336.062
			l22.83-73.179h111.656L447.719,180.791z"/>
	</g>
</g>
<g>
</g>
<g>
</g>
<g>
</g>
<g>
</g>
<g>
</g>
<g>
</g>
<g>
</g>
<g>
</g>
<g>
</g>
<g>
</g>
<g>
</g>
<g>
</g>
<g>
</g>
<g>
</g>
<g>
</g>
</svg>
