<?xml version="1.0" encoding="iso-8859-1"?>
<!-- Generator: Adobe Illustrator 19.0.0, SVG Export Plug-In . SVG Version: 6.00 Build 0)  -->
<svg version="1.1" id="Layer_1" xmlns="http://www.w3.org/2000/svg" xmlns:xlink="http://www.w3.org/1999/xlink" x="0px" y="0px"
	 viewBox="0 0 512 512" style="enable-background:new 0 0 512 512;" xml:space="preserve">
<g>
	<g>
		<path d="M369.398,109.57h-26.201V78.487c0-22.643-18.421-41.063-41.063-41.063c-22.643,0-41.063,18.421-41.063,41.063v20.085
			h30.417V78.487c0-5.871,4.775-10.646,10.646-10.646c5.87,0,10.646,4.775,10.646,10.646v31.083h-61.851V78.487
			c0-22.643-18.421-41.063-41.063-41.063c-22.643,0-41.063,18.421-41.063,41.063v20.085h30.417V78.487
			c0-5.871,4.775-10.646,10.646-10.646c5.87,0,10.646,4.775,10.646,10.646v31.083h-77.91C63.971,109.57,0,173.542,0,252.172v79.802
			c0,78.631,63.971,142.602,142.602,142.602h226.797c78.63,0,142.602-63.97,142.602-142.602v-79.802
			C512,173.542,448.029,109.57,369.398,109.57z M343.197,139.987h26.201c23.361,0,45.075,7.181,63.058,19.448
			c-2.948,1.037-5.447,2.191-7.736,3.252c-4.76,2.205-7.905,3.661-15.502,3.661c-7.594,0-10.738-1.457-15.499-3.661
			c-6.231-2.887-13.986-6.478-28.282-6.478c-10.083,0-16.905,1.788-22.241,3.854V139.987z M250.928,139.987h61.851v25.337
			c-2.302-0.639-4.264-1.546-6.622-2.638c-6.231-2.887-13.986-6.478-28.282-6.478c-13.295,0-20.931,3.107-26.948,5.863V139.987z
			 M142.602,139.987h77.909v23.573c-0.616-0.276-1.246-0.567-1.908-0.873c-6.231-2.887-13.985-6.479-28.28-6.479
			c-14.296,0-22.05,3.591-28.282,6.478c-4.759,2.204-7.903,3.661-15.497,3.661c-7.594,0-10.738-1.457-15.499-3.661
			c-6.232-2.887-13.986-6.478-28.282-6.478c-13.253,0-20.881,3.086-26.888,5.836C94.538,148.193,117.628,139.987,142.602,139.987z
			 M45.799,195.539c3.724,0.746,8.046,1.226,13.187,1.226c14.296,0,22.05-3.591,28.282-6.478c4.759-2.204,7.904-3.661,15.498-3.661
			c7.594,0,10.738,1.457,15.499,3.661c6.232,2.887,13.986,6.478,28.282,6.478c14.296,0,22.05-3.591,28.282-6.478
			c4.759-2.204,7.903-3.661,15.497-3.661c7.592,0,10.735,1.457,15.495,3.66c6.23,2.887,13.985,6.479,28.28,6.479
			c14.296,0,22.051-3.591,28.282-6.478c4.759-2.204,7.903-3.661,15.497-3.661c7.594,0,10.738,1.457,15.499,3.661
			c6.232,2.887,13.986,6.478,28.282,6.478s22.051-3.591,28.283-6.478c4.76-2.204,7.904-3.661,15.5-3.661
			c7.594,0,10.738,1.457,15.499,3.661c6.231,2.887,13.986,6.478,28.283,6.478s22.052-3.591,28.284-6.478
			c4.76-2.205,7.905-3.661,15.502-3.661c3.429,0,5.94,0.317,7.948,0.784c10.689,15.066,17.748,32.873,19.916,52.14
			c-6.163-2.85-13.883-6.283-27.864-6.283c-14.297,0-22.052,3.591-28.284,6.478c-4.76,2.205-7.905,3.661-15.502,3.661
			c-7.594,0-10.738-1.457-15.499-3.661c-6.231-2.887-13.986-6.478-28.282-6.478c-14.297,0-22.051,3.591-28.283,6.478
			c-4.76,2.204-7.904,3.661-15.499,3.661c-7.594,0-10.738-1.457-15.499-3.661c-6.232-2.887-13.986-6.478-28.282-6.478
			s-22.05,3.591-28.281,6.478c-4.759,2.204-7.904,3.661-15.498,3.661c-7.592,0-10.735-1.457-15.494-3.66
			c-6.232-2.887-13.985-6.479-28.28-6.479c-14.296,0-22.05,3.591-28.282,6.478c-4.759,2.204-7.903,3.661-15.497,3.661
			c-7.594,0-10.738-1.457-15.499-3.661c-6.231-2.887-13.986-6.478-28.282-6.478c-14.296,0-22.05,3.591-28.282,6.478
			c-4.759,2.204-7.903,3.661-15.498,3.661c-7.593,0-10.737-1.457-15.497-3.661c-3.268-1.514-6.967-3.217-11.797-4.499
			C33.867,220.951,38.752,207.538,45.799,195.539z M369.4,444.159H142.602c-23.363,0-45.079-7.183-63.062-19.451
			c2.944-1.037,5.441-2.19,7.727-3.249c4.759-2.204,7.904-3.661,15.498-3.661c7.594,0,10.738,1.457,15.499,3.661
			c6.232,2.887,13.986,6.478,28.282,6.478s22.05-3.591,28.282-6.478c4.759-2.204,7.903-3.661,15.497-3.661
			c7.592,0,10.735,1.457,15.495,3.66c6.23,2.887,13.985,6.479,28.28,6.479c14.296,0,22.051-3.591,28.282-6.478
			c4.759-2.204,7.903-3.661,15.497-3.661c7.594,0,10.738,1.457,15.499,3.661c6.231,2.887,13.986,6.478,28.282,6.478
			s22.051-3.591,28.283-6.478c4.76-2.204,7.904-3.661,15.5-3.661c7.594,0,10.738,1.457,15.499,3.661
			c6.231,2.887,13.986,6.478,28.283,6.478c13.278,0,20.912-3.097,26.925-5.851C417.481,435.947,394.383,444.159,369.4,444.159z
			 M466.211,388.596c-3.734-0.746-8.042-1.215-13.206-1.215c-14.297,0-22.052,3.591-28.284,6.478
			c-4.76,2.205-7.905,3.661-15.502,3.661c-7.594,0-10.738-1.457-15.499-3.661c-6.232-2.887-13.986-6.478-28.282-6.478
			c-14.297,0-22.051,3.591-28.283,6.478c-4.76,2.204-7.904,3.661-15.499,3.661s-10.738-1.457-15.499-3.661
			c-6.231-2.887-13.986-6.478-28.282-6.478s-22.05,3.591-28.282,6.478c-4.759,2.204-7.903,3.661-15.497,3.661
			c-7.592,0-10.735-1.457-15.495-3.66c-6.232-2.887-13.985-6.479-28.28-6.479c-14.296,0-22.05,3.591-28.282,6.478
			c-4.759,2.204-7.903,3.661-15.497,3.661c-7.594,0-10.738-1.457-15.499-3.661c-6.231-2.887-13.986-6.478-28.282-6.478
			c-14.296,0-22.05,3.591-28.282,6.478c-4.759,2.204-7.904,3.661-15.498,3.661c-3.424,0-5.932-0.317-7.937-0.782
			c-10.689-15.066-17.749-32.873-19.917-52.14c6.161,2.85,13.879,6.281,27.854,6.281c14.296,0,22.05-3.591,28.282-6.478
			c4.759-2.204,7.903-3.661,15.498-3.661c7.594,0,10.738,1.457,15.499,3.661c6.231,2.887,13.986,6.478,28.282,6.478
			c14.296,0,22.05-3.591,28.282-6.478c4.759-2.204,7.903-3.661,15.497-3.661c7.592,0,10.735,1.457,15.495,3.66
			c6.23,2.887,13.985,6.479,28.28,6.479c14.296,0,22.051-3.591,28.282-6.478c4.759-2.204,7.903-3.661,15.497-3.661
			c7.594,0,10.738,1.457,15.499,3.661c6.231,2.887,13.986,6.478,28.282,6.478c14.296,0,22.051-3.591,28.283-6.478
			c4.76-2.204,7.904-3.661,15.5-3.661c7.594,0,10.738,1.457,15.499,3.661c6.231,2.887,13.986,6.478,28.283,6.478
			c14.297,0,22.052-3.591,28.284-6.478c4.76-2.205,7.905-3.661,15.502-3.661s10.741,1.457,15.503,3.661
			c3.269,1.514,6.969,3.217,11.8,4.499C478.137,363.191,473.254,376.601,466.211,388.596z M481.584,316.936
			c-0.099-0.045-0.195-0.088-0.295-0.135c-6.232-2.886-13.987-6.478-28.285-6.478c-14.297,0-22.052,3.591-28.284,6.478
			c-4.76,2.205-7.905,3.661-15.502,3.661c-7.594,0-10.738-1.457-15.499-3.661c-6.231-2.887-13.986-6.478-28.282-6.478
			c-14.297,0-22.051,3.591-28.283,6.478c-4.76,2.204-7.904,3.661-15.499,3.661c-7.594,0-10.738-1.457-15.499-3.661
			c-6.231-2.887-13.986-6.478-28.282-6.478s-22.05,3.591-28.281,6.478c-4.759,2.204-7.904,3.661-15.498,3.661
			c-7.592,0-10.735-1.457-15.495-3.66c-6.231-2.887-13.985-6.479-28.28-6.479c-14.296,0-22.05,3.591-28.282,6.478
			c-4.759,2.204-7.903,3.661-15.497,3.661c-7.594,0-10.738-1.457-15.499-3.661c-6.232-2.887-13.986-6.478-28.282-6.478
			c-14.296,0-22.05,3.591-28.282,6.478c-4.759,2.204-7.903,3.661-15.498,3.661c-7.593,0-10.737-1.457-15.497-3.661
			c-3.552-1.645-7.602-3.517-13.072-4.824v-44.765c0.096,0.045,0.19,0.087,0.288,0.133c6.232,2.887,13.985,6.478,28.281,6.478
			s22.05-3.591,28.282-6.478c4.759-2.204,7.903-3.661,15.497-3.661c7.594,0,10.738,1.457,15.499,3.661
			c6.231,2.887,13.986,6.478,28.282,6.478s22.05-3.591,28.282-6.478c4.759-2.204,7.903-3.661,15.497-3.661
			c7.592,0,10.735,1.457,15.494,3.66c6.23,2.887,13.985,6.479,28.28,6.479c14.296,0,22.051-3.591,28.282-6.478
			c4.759-2.204,7.903-3.661,15.497-3.661c7.594,0,10.738,1.457,15.499,3.661c6.231,2.887,13.986,6.478,28.282,6.478
			s22.051-3.591,28.283-6.478c4.76-2.204,7.904-3.661,15.5-3.661c7.594,0,10.738,1.457,15.499,3.661
			c6.231,2.887,13.986,6.478,28.283,6.478c14.297,0,22.052-3.591,28.284-6.478c4.76-2.205,7.905-3.661,15.502-3.661
			s10.741,1.457,15.503,3.661c3.552,1.645,7.604,3.517,13.075,4.824V316.936z"/>
	</g>
</g>
<g>
</g>
<g>
</g>
<g>
</g>
<g>
</g>
<g>
</g>
<g>
</g>
<g>
</g>
<g>
</g>
<g>
</g>
<g>
</g>
<g>
</g>
<g>
</g>
<g>
</g>
<g>
</g>
<g>
</g>
</svg>
