<?xml version="1.0" encoding="iso-8859-1"?>
<!-- Generator: Adobe Illustrator 19.0.0, SVG Export Plug-In . SVG Version: 6.00 Build 0)  -->
<svg version="1.1" id="Layer_1" xmlns="http://www.w3.org/2000/svg" xmlns:xlink="http://www.w3.org/1999/xlink" x="0px" y="0px"
	 viewBox="0 0 512 512" style="enable-background:new 0 0 512 512;" xml:space="preserve">
<g>
	<g>
		<path d="M17.145,0v512h82.026h141.62h30.417h141.62h82.026V0H17.145z M240.792,481.583H129.589v-363.28h111.203V481.583z
			 M382.413,481.583H271.21v-363.28h111.203V481.583z M464.439,481.583H412.83V87.885H271.21h-30.417H99.172v393.697h-51.61V30.417
			h416.876V481.583z"/>
	</g>
</g>
<g>
	<g>
		<rect x="99.171" y="43.943" width="37.697" height="30.417"/>
	</g>
</g>
<g>
	<g>
		<rect x="58.159" y="261.74" width="30.417" height="60.503"/>
	</g>
</g>
<g>
	<g>
		<rect x="154.368" y="43.943" width="37.697" height="30.417"/>
	</g>
</g>
<g>
	<g>
		<rect x="209.555" y="43.943" width="37.697" height="30.417"/>
	</g>
</g>
<g>
	<g>
		<rect x="264.752" y="43.943" width="37.697" height="30.417"/>
	</g>
</g>
<g>
	<g>
		<rect x="319.939" y="43.943" width="37.697" height="30.417"/>
	</g>
</g>
<g>
	<g>
		<rect x="375.136" y="43.943" width="37.697" height="30.417"/>
	</g>
</g>
<g>
</g>
<g>
</g>
<g>
</g>
<g>
</g>
<g>
</g>
<g>
</g>
<g>
</g>
<g>
</g>
<g>
</g>
<g>
</g>
<g>
</g>
<g>
</g>
<g>
</g>
<g>
</g>
<g>
</g>
</svg>
