<?xml version="1.0" encoding="iso-8859-1"?>
<!-- Generator: Adobe Illustrator 19.0.0, SVG Export Plug-In . SVG Version: 6.00 Build 0)  -->
<svg version="1.1" id="Layer_1" xmlns="http://www.w3.org/2000/svg" xmlns:xlink="http://www.w3.org/1999/xlink" x="0px" y="0px"
	 viewBox="0 0 512 512" style="enable-background:new 0 0 512 512;" xml:space="preserve">
<g>
	<g>
		<rect x="65.904" y="295.503" width="158.666" height="30.417"/>
	</g>
</g>
<g>
	<g>
		<rect x="65.904" y="346.209" width="158.666" height="30.417"/>
	</g>
</g>
<g>
	<g>
		<rect x="65.904" y="396.904" width="158.666" height="30.417"/>
	</g>
</g>
<g>
	<g>
		<path d="M397.073,244.81L497.287,71.233l-64.528-37.255L311.034,244.81H0v233.212h512V244.81H397.073z M443.892,75.529
			l11.845,6.838l-10.141,17.564l-11.844-6.838L443.892,75.529z M418.543,119.434l11.844,6.838L292.428,365.225l-10.639,4.751
			l-1.204-11.59L418.543,119.434z M481.583,447.605H30.417V275.227h263.057l-44.163,76.492l6.562,63.145l57.966-25.889
			l65.672-113.748h102.071V447.605z"/>
	</g>
</g>
<g>
</g>
<g>
</g>
<g>
</g>
<g>
</g>
<g>
</g>
<g>
</g>
<g>
</g>
<g>
</g>
<g>
</g>
<g>
</g>
<g>
</g>
<g>
</g>
<g>
</g>
<g>
</g>
<g>
</g>
</svg>
