<?xml version="1.0" encoding="iso-8859-1"?>
<!-- Generator: Adobe Illustrator 19.0.0, SVG Export Plug-In . SVG Version: 6.00 Build 0)  -->
<svg version="1.1" id="Layer_1" xmlns="http://www.w3.org/2000/svg" xmlns:xlink="http://www.w3.org/1999/xlink" x="0px" y="0px"
	 viewBox="0 0 512 512" style="enable-background:new 0 0 512 512;" xml:space="preserve">
<g>
	<g>
		<path d="M0.001,0v512h511.999V0H0.001z M481.582,481.583H30.418V30.417h451.165V481.583z"/>
	</g>
</g>
<g>
	<g>
		<path d="M60.835,60.834v390.331h390.33V60.834H60.835z M240.791,420.748H91.252V91.252h149.539v20.281h-33.966
			c-19.567,0-35.487,15.919-35.487,35.487s15.919,35.487,35.487,35.487h33.966V420.748z M305.175,141.95
			c2.795,0,5.07,2.274,5.07,5.07s-2.274,5.07-5.07,5.07h-98.349c-2.795,0-5.07-2.274-5.07-5.07s2.274-5.07,5.07-5.07H305.175z
			 M420.748,420.748H271.209V182.506h33.966c19.567,0,35.487-15.919,35.487-35.487c0-19.567-15.919-35.487-35.487-35.487h-33.966
			V91.252h149.539V420.748z"/>
	</g>
</g>
<g>
</g>
<g>
</g>
<g>
</g>
<g>
</g>
<g>
</g>
<g>
</g>
<g>
</g>
<g>
</g>
<g>
</g>
<g>
</g>
<g>
</g>
<g>
</g>
<g>
</g>
<g>
</g>
<g>
</g>
</svg>
