<?xml version="1.0" encoding="iso-8859-1"?>
<!-- Generator: Adobe Illustrator 19.0.0, SVG Export Plug-In . SVG Version: 6.00 Build 0)  -->
<svg version="1.1" id="Layer_1" xmlns="http://www.w3.org/2000/svg" xmlns:xlink="http://www.w3.org/1999/xlink" x="0px" y="0px"
	 viewBox="0 0 512 512" style="enable-background:new 0 0 512 512;" xml:space="preserve">
<g>
	<g>
		<path d="M256,1.468L0,254.587h39.984v255.945h432.033V254.587H512L256,1.468z M441.78,480.294H70.221V227.679L256,43.99
			l185.78,183.689V480.294z"/>
	</g>
</g>
<g>
	<g>
		<path d="M346.318,217.594C346.318,217.594,346.318,217.594,346.318,217.594c-6.617-6.619-15.415-10.263-24.772-10.263
			c-9.358,0-18.156,3.645-24.772,10.262c-13.659,13.658-13.659,35.883,0,49.543c6.83,6.83,15.801,10.244,24.771,10.244
			c8.972,0,17.943-3.415,24.772-10.244C359.977,253.477,359.977,231.252,346.318,217.594z M324.937,245.755
			c-1.869,1.869-4.912,1.871-6.782,0c-1.869-1.87-1.869-4.911,0.001-6.782c1.222-1.222,2.649-1.404,3.391-1.404
			c0.742,0,2.169,0.182,3.39,1.403l0.001,0.001C326.805,240.843,326.805,243.885,324.937,245.755z"/>
	</g>
</g>
<g>
	<g>
		<path d="M372.925,190.986c-16.541-16.541-38.531-25.649-61.923-25.649c-23.391,0-45.382,9.108-61.922,25.649
			c-23.247,23.245-31.305,57.68-21.525,88.51L112.099,394.953l8.586,41.855l31.637,31.637l132.092-132.091
			c30.827,9.778,65.264,1.72,88.51-21.525C407.069,280.686,407.069,225.13,372.925,190.986z M351.544,293.449
			c-16.907,16.905-42.848,21.544-64.551,11.543l-9.568-4.41L152.323,425.684l-3.841-3.841l-3.491-17.02l118.338-118.337l-4.41-9.568
			c-10.001-21.705-5.363-47.647,11.543-64.551c10.829-10.829,25.228-16.793,40.541-16.793c15.315,0,29.713,5.964,40.542,16.793
			C373.899,234.72,373.899,271.093,351.544,293.449z"/>
	</g>
</g>
<g>
</g>
<g>
</g>
<g>
</g>
<g>
</g>
<g>
</g>
<g>
</g>
<g>
</g>
<g>
</g>
<g>
</g>
<g>
</g>
<g>
</g>
<g>
</g>
<g>
</g>
<g>
</g>
<g>
</g>
</svg>
