<?xml version="1.0" encoding="iso-8859-1"?>
<!-- Generator: Adobe Illustrator 19.0.0, SVG Export Plug-In . SVG Version: 6.00 Build 0)  -->
<svg version="1.1" id="Layer_1" xmlns="http://www.w3.org/2000/svg" xmlns:xlink="http://www.w3.org/1999/xlink" x="0px" y="0px"
	 viewBox="0 0 511.999 511.999" style="enable-background:new 0 0 511.999 511.999;" xml:space="preserve">
<g>
	<g>
		<path d="M266.825,326.595l-10.788-10.942l-10.831,10.9c-20.695,20.827-31.189,41.154-31.189,60.42
			c0,23.149,18.833,41.982,41.983,41.982s41.983-18.833,41.983-41.982C297.983,363.19,281.039,341.012,266.825,326.595z
			 M256,398.537c-6.377,0-11.566-5.188-11.566-11.565c0-7.562,4.012-16.744,11.511-26.632c7.497,9.956,11.62,19.27,11.62,26.632
			C267.566,393.349,262.378,398.537,256,398.537z"/>
	</g>
</g>
<g>
	<g>
		<path d="M272.687,26.641h-33.374c-35.358,0-66.885,21.402-80.34,53.284H0v102.405h21.525v303.029h50.695h367.558h50.695V182.329
			h21.525V79.925H353.027C339.572,48.043,308.044,26.641,272.687,26.641z M256,454.941c-37.479,0-67.969-30.49-67.969-67.968
			c0-50.44,48.647-89.721,67.969-103.33c19.322,13.609,67.968,52.891,67.968,103.33C323.969,424.45,293.479,454.941,256,454.941z
			 M409.361,454.941h-82.293c16.913-17.676,27.318-41.63,27.318-67.968c0-80.047-86.933-132.461-90.635-134.653l-7.751-4.591
			l-7.751,4.591c-3.701,2.192-90.635,54.606-90.635,134.653c0,26.338,10.405,50.291,27.318,67.968h-82.293V259.469
			c0-14.581,11.863-26.444,26.444-26.444h253.836c14.581,0,26.444,11.863,26.444,26.444V454.941z M439.779,454.941V259.469
			c0-31.353-25.508-56.861-56.861-56.861H129.083c-31.353,0-56.861,25.508-56.861,56.861v195.472H51.943V182.329h408.114v272.611
			H439.779z M481.583,151.912H30.417v-41.57H181.46l3.023-11.266c6.64-24.739,29.187-42.017,54.83-42.017h33.374
			c25.643,0,48.189,17.279,54.83,42.017l3.023,11.266h151.042V151.912z"/>
	</g>
</g>
<g>
</g>
<g>
</g>
<g>
</g>
<g>
</g>
<g>
</g>
<g>
</g>
<g>
</g>
<g>
</g>
<g>
</g>
<g>
</g>
<g>
</g>
<g>
</g>
<g>
</g>
<g>
</g>
<g>
</g>
</svg>
