<?xml version="1.0" encoding="iso-8859-1"?>
<!-- Generator: Adobe Illustrator 19.0.0, SVG Export Plug-In . SVG Version: 6.00 Build 0)  -->
<svg version="1.1" id="Layer_1" xmlns="http://www.w3.org/2000/svg" xmlns:xlink="http://www.w3.org/1999/xlink" x="0px" y="0px"
	 viewBox="0 0 512 512" style="enable-background:new 0 0 512 512;" xml:space="preserve">
<g>
	<g>
		<path d="M443.223,266.308l-21.314-60.743h-84.797V68.686H0v330.781h85.681c2.544,24.6,23.392,43.847,48.652,43.847
			s46.108-19.247,48.653-43.847h123.707h30.417h33.723c2.544,24.6,23.392,43.847,48.652,43.847s46.108-19.247,48.653-43.847h43.861
			V287.639H512L443.223,266.308z M134.334,412.897c-10.2,0-18.498-8.299-18.498-18.499c0-8.284,5.473-15.312,12.992-17.661
			c0.013-0.004,0.027-0.007,0.041-0.011c0.51-0.158,1.031-0.288,1.558-0.401c0.13-0.027,0.261-0.055,0.391-0.079
			c0.433-0.083,0.872-0.148,1.315-0.201c0.153-0.018,0.304-0.041,0.458-0.056c0.574-0.054,1.154-0.088,1.742-0.088
			s1.168,0.034,1.743,0.088c0.154,0.015,0.305,0.038,0.457,0.056c0.443,0.053,0.882,0.118,1.316,0.201
			c0.131,0.024,0.261,0.052,0.39,0.079c0.528,0.114,1.05,0.243,1.561,0.401c0.012,0.004,0.024,0.007,0.036,0.011
			c7.52,2.348,12.994,9.378,12.994,17.661C152.832,404.598,144.534,412.897,134.334,412.897z M306.693,205.565v163.484H176.202
			c-7.259-12.053-19.388-20.377-33.362-22.811c-0.499-0.088-0.998-0.173-1.501-0.246c-0.406-0.058-0.812-0.107-1.22-0.155
			c-0.617-0.072-1.238-0.133-1.862-0.182c-0.333-0.026-0.665-0.057-1-0.076c-0.968-0.058-1.942-0.095-2.924-0.095
			s-1.956,0.037-2.924,0.095c-0.335,0.02-0.666,0.051-0.999,0.076c-0.625,0.05-1.245,0.109-1.863,0.182
			c-0.408,0.049-0.814,0.098-1.219,0.155c-0.505,0.073-1.006,0.159-1.506,0.247c-2.049,0.357-4.057,0.841-6.018,1.446
			c-0.002,0-0.003,0.001-0.005,0.001c-11.401,3.518-21.143,11.081-27.335,21.363h-62.05V99.103h276.276V205.565z M419.486,412.897
			c-10.2,0-18.498-8.299-18.498-18.499c0-8.284,5.473-15.312,12.992-17.661c0.013-0.004,0.027-0.007,0.041-0.011
			c0.51-0.158,1.031-0.288,1.558-0.401c0.13-0.027,0.261-0.055,0.391-0.079c0.433-0.083,0.872-0.148,1.315-0.201
			c0.153-0.018,0.304-0.041,0.458-0.056c0.574-0.054,1.154-0.088,1.742-0.088c0.588,0,1.168,0.034,1.742,0.088
			c0.154,0.015,0.305,0.038,0.458,0.056c0.443,0.053,0.882,0.118,1.315,0.201c0.131,0.024,0.262,0.052,0.392,0.079
			c0.527,0.114,1.048,0.243,1.558,0.401c0.013,0.004,0.027,0.007,0.041,0.011c7.52,2.349,12.993,9.378,12.993,17.661
			C437.985,404.598,429.686,412.897,419.486,412.897z M481.585,369.049h-0.002h-20.229c-6.192-10.283-15.934-17.846-27.335-21.362
			c-0.002-0.001-0.004-0.002-0.007-0.003c-1.96-0.604-3.966-1.088-6.016-1.445c-0.5-0.088-1.001-0.174-1.506-0.247
			c-0.405-0.058-0.81-0.106-1.218-0.155c-0.617-0.072-1.239-0.133-1.863-0.182c-0.333-0.025-0.664-0.057-0.999-0.076
			c-0.968-0.058-1.942-0.095-2.924-0.095s-1.956,0.037-2.924,0.095c-0.335,0.02-0.666,0.05-0.999,0.076
			c-0.624,0.05-1.244,0.109-1.862,0.182c-0.408,0.049-0.814,0.098-1.22,0.155c-0.504,0.073-1.004,0.159-1.503,0.246
			c-13.973,2.433-26.102,10.759-33.359,22.811h-40.509V235.982h63.235l19.244,54.842l61.993,19.228V369.049z"/>
	</g>
</g>
<g>
	<g>
		<path d="M168.556,134.741L59.248,242.82h37.982v84.412h142.652V242.82h37.982L168.556,134.741z M168.556,177.518l35.283,34.885
			h-70.566L168.556,177.518z M209.465,296.815h-81.818V242.82h81.818V296.815z"/>
	</g>
</g>
<g>
</g>
<g>
</g>
<g>
</g>
<g>
</g>
<g>
</g>
<g>
</g>
<g>
</g>
<g>
</g>
<g>
</g>
<g>
</g>
<g>
</g>
<g>
</g>
<g>
</g>
<g>
</g>
<g>
</g>
</svg>
