<?xml version="1.0" encoding="iso-8859-1"?>
<!-- Generator: Adobe Illustrator 19.0.0, SVG Export Plug-In . SVG Version: 6.00 Build 0)  -->
<svg version="1.1" id="Layer_1" xmlns="http://www.w3.org/2000/svg" xmlns:xlink="http://www.w3.org/1999/xlink" x="0px" y="0px"
	 viewBox="0 0 512 512" style="enable-background:new 0 0 512 512;" xml:space="preserve">
<g>
	<g>
		<path d="M497.893,82.525l-45.395-45.395c-18.808-18.81-49.409-18.808-68.217,0l-22.549,22.548l56.954,56.954l-21.665,21.665
			l-56.954-56.954L13.97,407.444c-18.626,18.626-18.626,48.934,0,67.563c9.314,9.313,21.546,13.969,33.78,13.969
			c12.233,0,24.467-4.657,33.779-13.97l177.522-177.522c6.016,4.084,12.524,7.296,19.346,9.592l-90.249,90.249l49.325,49.326
			l132.569-132.568l14.883,14.883l59.857-59.856l-32.627-32.627l41.524-41.525l44.214-44.214
			C516.702,131.935,516.702,101.333,497.893,82.525z M237.475,403.63l-6.305-6.306l87.155-87.155l23.903-23.903l6.305,6.306
			L237.475,403.63z M384.927,285.945l-36.072-36.073l16.836-16.836l24.955,24.956h0.001l11.115,11.116L384.927,285.945z
			 M390.645,214.971l-24.954-24.956l-44.892,44.893l-14.965,14.965l7.442,7.442l7.442,7.442l-16.081,16.081
			c-13.397,0.123-26.257-5.018-35.844-14.605l-10.754-10.754L60.02,453.496c-6.765,6.765-17.774,6.765-24.541,0
			c-6.765-6.766-6.766-17.775,0-24.542l304.589-304.589l35.444,35.444l-0.001,0.001l35.147,35.147L390.645,214.971z
			 M476.384,129.233l-44.214,44.214l-13.636-13.636l43.175-43.176l-56.954-56.954l1.038-1.038c6.948-6.946,18.25-6.946,25.197,0
			l45.395,45.395C483.331,110.982,483.331,122.285,476.384,129.233z"/>
	</g>
</g>
<g>
</g>
<g>
</g>
<g>
</g>
<g>
</g>
<g>
</g>
<g>
</g>
<g>
</g>
<g>
</g>
<g>
</g>
<g>
</g>
<g>
</g>
<g>
</g>
<g>
</g>
<g>
</g>
<g>
</g>
</svg>
