<?xml version="1.0" encoding="iso-8859-1"?>
<!-- Generator: Adobe Illustrator 19.0.0, SVG Export Plug-In . SVG Version: 6.00 Build 0)  -->
<svg version="1.1" id="Layer_1" xmlns="http://www.w3.org/2000/svg" xmlns:xlink="http://www.w3.org/1999/xlink" x="0px" y="0px"
	 viewBox="0 0 512.001 512.001" style="enable-background:new 0 0 512.001 512.001;" xml:space="preserve">
<g>
	<g>
		<path d="M256,1.468L0,254.587h39.984v255.946h69.969h292.096h69.969V254.587h39.984L256,1.468z M371.811,480.295H140.19v-15.613
			h231.622V480.295z M371.811,434.445H140.19v-15.613h231.622V434.445z M371.811,388.595H140.19v-15.613h231.622V388.595z
			 M371.811,342.744H140.19v-15.613h231.622V342.744z M371.811,296.894H140.19V281.28h231.622V296.894z M441.779,480.295
			L441.779,480.295h-39.732v-15.613v-30.237v-15.613v-30.237v-15.613v-30.237V327.13v-30.237v-45.851H109.952v45.851v30.237v15.613
			v30.237v15.613v30.237v15.613v30.237v15.613H70.221V227.679L256,43.99l185.779,183.689V480.295z"/>
	</g>
</g>
<g>
</g>
<g>
</g>
<g>
</g>
<g>
</g>
<g>
</g>
<g>
</g>
<g>
</g>
<g>
</g>
<g>
</g>
<g>
</g>
<g>
</g>
<g>
</g>
<g>
</g>
<g>
</g>
<g>
</g>
</svg>
