<?xml version="1.0" encoding="iso-8859-1"?>
<!-- Generator: Adobe Illustrator 19.0.0, SVG Export Plug-In . SVG Version: 6.00 Build 0)  -->
<svg version="1.1" id="Layer_1" xmlns="http://www.w3.org/2000/svg" xmlns:xlink="http://www.w3.org/1999/xlink" x="0px" y="0px"
	 viewBox="0 0 512 512" style="enable-background:new 0 0 512 512;" xml:space="preserve">
<g>
	<g>
		<polygon points="89.14,117.887 89.14,151.589 71.757,151.589 71.757,117.887 41.345,117.887 41.345,215.701 71.757,215.701 
			71.757,182 89.14,182 89.14,215.701 119.551,215.701 119.551,117.887 		"/>
	</g>
</g>
<g>
	<g>
		<path d="M127.374,117.889V215.7h72.341v-97.811H127.374z M169.304,185.288h-11.519v-36.988h11.519V185.288z"/>
	</g>
</g>
<g>
	<g>
		<polygon points="365.046,148.299 365.046,117.888 293.573,117.888 293.573,215.7 365.046,215.7 365.046,185.289 323.984,185.289 
			323.984,182 348.081,182 348.081,151.589 323.984,151.589 323.984,148.299 		"/>
	</g>
</g>
<g>
	<g>
		<polygon points="404.149,185.289 404.149,117.887 373.738,117.887 373.738,215.7 445.213,215.7 445.213,185.289 		"/>
	</g>
</g>
<g>
	<g>
		<polygon points="208.409,117.888 208.409,148.299 231.439,148.299 231.439,215.701 261.851,215.701 261.851,148.299 
			284.88,148.299 284.88,117.888 		"/>
	</g>
</g>
<g>
	<g>
		<path d="M449.339,52.245H284.333V0.05h-99.344v52.194H0v229.099h184.989V511.95h99.344V281.344h165.006L512,166.794
			L449.339,52.245z M215.4,30.461h38.521v21.783H215.4V30.461z M253.921,481.539H215.4V281.344h38.521V481.539z M431.311,250.932
			H284.333h-99.344H30.411V82.656h154.578h99.344h146.978l46.026,84.138L431.311,250.932z"/>
	</g>
</g>
<g>
</g>
<g>
</g>
<g>
</g>
<g>
</g>
<g>
</g>
<g>
</g>
<g>
</g>
<g>
</g>
<g>
</g>
<g>
</g>
<g>
</g>
<g>
</g>
<g>
</g>
<g>
</g>
<g>
</g>
</svg>
