<?xml version="1.0" encoding="iso-8859-1"?>
<!-- Generator: Adobe Illustrator 19.0.0, SVG Export Plug-In . SVG Version: 6.00 Build 0)  -->
<svg version="1.1" id="Layer_1" xmlns="http://www.w3.org/2000/svg" xmlns:xlink="http://www.w3.org/1999/xlink" x="0px" y="0px"
	 viewBox="0 0 512 512" style="enable-background:new 0 0 512 512;" xml:space="preserve">
<g>
	<g>
		<path d="M82.621,116.588v237.254h346.756V116.588H82.621z M398.96,323.425H113.039c0,0,0-176.42,0-176.42H398.96V323.425z"/>
	</g>
</g>
<g>
	<g>
		<path d="M469.934,363.981V76.031H42.065v287.95H0v36.909c0,19.342,15.736,35.078,35.078,35.078h441.844
			c19.342,0,35.078-15.736,35.078-35.078v-36.909H469.934z M72.482,106.449h367.035v257.533H72.482V106.449z M476.922,405.552
			H35.078c-2.569,0-4.661-2.092-4.661-4.661v-6.492h11.648h427.869h11.648v6.492h0.001
			C481.583,403.461,479.491,405.552,476.922,405.552z"/>
	</g>
</g>
<g>
</g>
<g>
</g>
<g>
</g>
<g>
</g>
<g>
</g>
<g>
</g>
<g>
</g>
<g>
</g>
<g>
</g>
<g>
</g>
<g>
</g>
<g>
</g>
<g>
</g>
<g>
</g>
<g>
</g>
</svg>
