<?xml version="1.0" encoding="iso-8859-1"?>
<!-- Generator: Adobe Illustrator 19.0.0, SVG Export Plug-In . SVG Version: 6.00 Build 0)  -->
<svg version="1.1" id="Layer_1" xmlns="http://www.w3.org/2000/svg" xmlns:xlink="http://www.w3.org/1999/xlink" x="0px" y="0px"
	 viewBox="0 0 511.999 511.999" style="enable-background:new 0 0 511.999 511.999;" xml:space="preserve">
<g>
	<g>
		<path d="M457.001,36.448c-30.326,0-54.998,24.672-54.998,54.998v13.601h-24.003V91.446c0-30.326-24.672-54.998-54.999-54.998
			c-30.326,0-54.998,24.672-54.998,54.998v13.601h-24.003V91.446c0-30.326-24.672-54.998-54.998-54.998
			C158.672,36.448,134,61.12,134,91.446v13.601h-24.003V91.446c0-30.326-24.672-54.998-54.998-54.998
			C24.672,36.448,0,61.12,0,91.446v329.106c0,30.326,24.672,54.998,54.998,54.998s54.998-24.672,54.998-54.998v-13.601H134v13.601
			c0,30.326,24.672,54.998,54.999,54.998c30.326,0,54.998-24.672,54.998-54.998v-13.601h24.003v13.601
			c0,30.326,24.672,54.998,54.998,54.998c30.327,0,54.999-24.672,54.999-54.998v-13.601h24.003v13.601
			c0,30.326,24.672,54.998,54.998,54.998c30.326,0,54.998-24.672,54.998-54.998V91.446C512,61.12,487.328,36.448,457.001,36.448z
			 M79.58,105.047v86.957v127.992v86.957v13.601c0,13.554-11.027,24.581-24.581,24.581s-24.581-11.027-24.581-24.581V91.446
			c0-13.554,11.027-24.581,24.581-24.581S79.58,77.892,79.58,91.446V105.047z M134,376.535h-24.003v-26.122H134V376.535z
			 M134,319.995h-24.003V192.004H134V319.995z M134,135.464v26.122h-24.003v-26.122L134,135.464L134,135.464z M213.581,105.047
			v86.957v127.992v86.957v13.601c0,13.554-11.027,24.581-24.581,24.581c-13.555,0-24.582-11.027-24.582-24.581v-13.601v-86.957
			V192.004v-86.957V91.446c0-13.554,11.027-24.581,24.582-24.581c13.554,0,24.581,11.027,24.581,24.581V105.047z M268.001,376.535
			h-24.003v-26.122h24.003V376.535z M268.001,319.995h-24.003V192.004h24.003V319.995z M268.001,135.464v26.122h-24.003v-26.122
			L268.001,135.464L268.001,135.464z M347.582,105.047v86.957v127.992v86.957v13.601c0,13.554-11.027,24.581-24.582,24.581
			c-13.554,0-24.581-11.027-24.581-24.581v-13.601v-86.957V192.004v-86.957V91.446c0-13.554,11.027-24.581,24.581-24.581
			c13.555,0,24.582,11.027,24.582,24.581V105.047z M402.002,376.535h-24.003v-26.122h24.003V376.535z M402.002,319.995h-24.003
			V192.004h24.003V319.995z M402.002,135.464v26.122h-24.003v-26.122L402.002,135.464L402.002,135.464z M481.583,420.553
			c0,13.554-11.027,24.581-24.581,24.581s-24.581-11.027-24.581-24.581v-13.601v-86.957V192.004v-86.957V91.446
			c0-13.554,11.027-24.581,24.581-24.581s24.581,11.027,24.581,24.581V420.553z"/>
	</g>
</g>
<g>
</g>
<g>
</g>
<g>
</g>
<g>
</g>
<g>
</g>
<g>
</g>
<g>
</g>
<g>
</g>
<g>
</g>
<g>
</g>
<g>
</g>
<g>
</g>
<g>
</g>
<g>
</g>
<g>
</g>
</svg>
