<?xml version="1.0" encoding="iso-8859-1"?>
<!-- Generator: Adobe Illustrator 19.0.0, SVG Export Plug-In . SVG Version: 6.00 Build 0)  -->
<svg version="1.1" id="Layer_1" xmlns="http://www.w3.org/2000/svg" xmlns:xlink="http://www.w3.org/1999/xlink" x="0px" y="0px"
	 viewBox="0 0 511.999 511.999" style="enable-background:new 0 0 511.999 511.999;" xml:space="preserve">
<g>
	<g>
		<path d="M46.127,307.918v116.676h81.622V307.918H46.127z M97.331,394.177H76.544v-55.841h20.787V394.177z"/>
	</g>
</g>
<g>
	<g>
		<path d="M143.459,307.918v116.676h81.622V307.918H143.459z M194.663,394.177h-20.787v-55.841h20.787V394.177z"/>
	</g>
</g>
<g>
	<g>
		<path d="M286.919,307.918v116.676h0h81.622V307.918H286.919z M338.123,394.176h-20.787v-55.841h20.787V394.176z"/>
	</g>
</g>
<g>
	<g>
		<path d="M384.251,307.918v116.676h81.622V307.918H384.251z M435.455,394.176h-20.787v-55.841h20.787V394.176z"/>
	</g>
</g>
<g>
	<g>
		<path d="M384.243,76.785H173.887v-51.19H94.76v51.19H0v169.322v30.417v209.88h240.791h30.417h240.791V256.46L384.243,76.785z
			 M125.177,76.785V56.012h18.293v20.773v64.89h-18.293V76.785z M240.791,455.987H30.417V276.524h210.374V455.987z M248.152,246.107
			H30.417V107.203H94.76v64.89h79.127v-64.89H346.92L248.152,246.107z M271.208,455.987V266.172L376.395,118.24l105.187,147.932
			v189.815H271.208z"/>
	</g>
</g>
<g>
	<g>
		<path d="M376.395,195.841c-24.412,0-44.273,19.861-44.273,44.273c0,24.413,19.861,44.274,44.273,44.274
			c24.413,0,44.274-19.861,44.274-44.274C420.669,215.703,400.809,195.841,376.395,195.841z M376.395,253.972
			c-7.64,0-13.856-6.216-13.856-13.857c0-7.64,6.216-13.856,13.856-13.856c7.641,0,13.857,6.216,13.857,13.856
			C390.252,247.755,384.037,253.972,376.395,253.972z"/>
	</g>
</g>
<g>
</g>
<g>
</g>
<g>
</g>
<g>
</g>
<g>
</g>
<g>
</g>
<g>
</g>
<g>
</g>
<g>
</g>
<g>
</g>
<g>
</g>
<g>
</g>
<g>
</g>
<g>
</g>
<g>
</g>
</svg>
