<?xml version="1.0" encoding="iso-8859-1"?>
<!-- Generator: Adobe Illustrator 19.0.0, SVG Export Plug-In . SVG Version: 6.00 Build 0)  -->
<svg version="1.1" id="Layer_1" xmlns="http://www.w3.org/2000/svg" xmlns:xlink="http://www.w3.org/1999/xlink" x="0px" y="0px"
	 viewBox="0 0 512 512" style="enable-background:new 0 0 512 512;" xml:space="preserve">
<g>
	<g>
		<path d="M71.116,194.678v250.024h274.761V194.678H71.116z M315.479,414.304H101.514V225.076h213.965V414.304z"/>
	</g>
</g>
<g>
	<g>
		<path d="M400.807,372.672c-19.859,0-36.014,16.156-36.014,36.014s16.156,36.014,36.014,36.014
			c19.858,0,36.014-16.156,36.014-36.014S420.666,372.672,400.807,372.672z M400.807,414.304c-3.098,0-5.617-2.52-5.617-5.617
			c0-3.097,2.52-5.617,5.617-5.617c3.097,0,5.617,2.52,5.617,5.617C406.424,411.784,403.905,414.304,400.807,414.304z"/>
	</g>
</g>
<g>
	<g>
		<rect x="358.148" y="194.678" width="85.317" height="30.398"/>
	</g>
</g>
<g>
	<g>
		<rect x="358.148" y="239.931" width="85.317" height="30.398"/>
	</g>
</g>
<g>
	<g>
		<rect x="358.148" y="285.193" width="85.317" height="30.398"/>
	</g>
</g>
<g>
	<g>
		<path d="M280.131,106.527l85.033-85.032L343.67,0l-90.001,90.001c-8.736-3.297-18.192-5.115-28.067-5.115
			s-19.331,1.818-28.067,5.115L107.532,0L86.037,21.494l85.033,85.032c-11.979,11.25-20.489,26.143-23.737,42.9H25.864v340.529
			h45.254V512h30.398v-22.046h308.967V512h30.398v-22.046h45.255V149.427H303.868C300.619,132.671,292.11,117.778,280.131,106.527z
			 M225.6,115.285c21.906,0,40.522,14.349,46.945,34.142h-93.891C185.078,129.634,203.694,115.285,225.6,115.285z M455.74,179.825
			v279.733h-0.001H56.261V179.825h89.601h159.477H455.74z"/>
	</g>
</g>
<g>
</g>
<g>
</g>
<g>
</g>
<g>
</g>
<g>
</g>
<g>
</g>
<g>
</g>
<g>
</g>
<g>
</g>
<g>
</g>
<g>
</g>
<g>
</g>
<g>
</g>
<g>
</g>
<g>
</g>
</svg>
