<?xml version="1.0" encoding="iso-8859-1"?>
<!-- Generator: Adobe Illustrator 19.0.0, SVG Export Plug-In . SVG Version: 6.00 Build 0)  -->
<svg version="1.1" id="Layer_1" xmlns="http://www.w3.org/2000/svg" xmlns:xlink="http://www.w3.org/1999/xlink" x="0px" y="0px"
	 viewBox="0 0 511.998 511.998" style="enable-background:new 0 0 511.998 511.998;" xml:space="preserve">
<g>
	<g>
		<path d="M464.457,91.258h-47.982V40.558h-79.083v50.698h-81.12V70.975V15.209V0h-88.919v70.975h58.501v20.281h-73.999v29.895
			H47.539v148.797h104.319h30.417h155.118v242.05h79.083v-242.05h47.982V91.258H464.457z M367.81,70.975h18.248v20.281H367.81
			V70.975z M197.772,40.558V30.417h28.084v10.141H197.772z M151.857,151.57v32.484l-43.405-32.484H151.857z M77.956,166.739
			l36.15,27.054l-36.15,29.148V166.739z M151.858,239.532h-46.019l33.399-26.93l12.62,9.445V239.532z M386.058,481.583H367.81
			V269.95h18.248V481.583z M434.04,239.532h-17.565h-79.083H182.274V121.675h43.582v58.929h30.417v-58.929h81.12h79.083h17.565
			V239.532z"/>
	</g>
</g>
<g>
</g>
<g>
</g>
<g>
</g>
<g>
</g>
<g>
</g>
<g>
</g>
<g>
</g>
<g>
</g>
<g>
</g>
<g>
</g>
<g>
</g>
<g>
</g>
<g>
</g>
<g>
</g>
<g>
</g>
</svg>
