<?xml version="1.0" encoding="iso-8859-1"?>
<!-- Generator: Adobe Illustrator 19.0.0, SVG Export Plug-In . SVG Version: 6.00 Build 0)  -->
<svg version="1.1" id="Layer_1" xmlns="http://www.w3.org/2000/svg" xmlns:xlink="http://www.w3.org/1999/xlink" x="0px" y="0px"
	 viewBox="0 0 512 512" style="enable-background:new 0 0 512 512;" xml:space="preserve">
<g>
	<g>
		<path d="M468.203,120.768c-5.629-18.191-22.605-31.444-42.621-31.444h-16.687h-30.416h-16.216V75.356H29.246v61.485
			C10.101,171.672,0,210.964,0,250.743v185.901h123.679v-94.805h50.015l-7.592-73.288h95.029c50.596,0,92.631-37.349,99.987-85.923
			h17.36h30.416h16.687c20.016,0,36.992-13.252,42.621-31.444H512v-30.415H468.203z M123.68,311.423v-42.872h11.845l4.441,42.872
			H123.68z M331.848,167.419c0,38.992-31.723,70.715-70.715,70.715h-98.18H93.263v103.704v64.389H30.416V250.743
			c0-32.953,7.975-65.51,23.093-94.72h133.768v-30.416H59.662v-19.834h272.186V167.419z M378.48,152.211h-16.216V119.74h16.216
			V152.211z M439.771,138.023c0,7.824-6.364,14.188-14.188,14.188h-16.687V119.74h16.687c7.824,0,14.188,6.364,14.188,14.188
			V138.023z"/>
	</g>
</g>
<g>
	<g>
		<rect x="217.545" y="116.047" width="38.441" height="30.416"/>
	</g>
</g>
<g>
	<g>
		<rect x="217.545" y="156.743" width="38.441" height="30.416"/>
	</g>
</g>
<g>
	<g>
		<rect x="217.545" y="197.44" width="38.441" height="30.416"/>
	</g>
</g>
<g>
</g>
<g>
</g>
<g>
</g>
<g>
</g>
<g>
</g>
<g>
</g>
<g>
</g>
<g>
</g>
<g>
</g>
<g>
</g>
<g>
</g>
<g>
</g>
<g>
</g>
<g>
</g>
<g>
</g>
</svg>
