<?xml version="1.0" encoding="iso-8859-1"?>
<!-- Generator: Adobe Illustrator 19.0.0, SVG Export Plug-In . SVG Version: 6.00 Build 0)  -->
<svg version="1.1" id="Layer_1" xmlns="http://www.w3.org/2000/svg" xmlns:xlink="http://www.w3.org/1999/xlink" x="0px" y="0px"
	 viewBox="0 0 512.001 512.001" style="enable-background:new 0 0 512.001 512.001;" xml:space="preserve">
<g>
	<g>
		<path d="M256,1.468L0,254.587h39.984v255.946h432.034V254.587h39.984L256,1.468z M441.779,480.294L441.779,480.294H70.221V227.679
			L256,43.99l185.779,183.689V480.294z"/>
	</g>
</g>
<g>
	<g>
		<path d="M317.912,197.807c-26.702-27.524-53.264-42.923-54.382-43.566l-7.531-4.326l-7.529,4.326
			c-1.118,0.643-27.679,16.042-54.382,43.566c-36.195,37.311-55.328,79.292-55.328,121.407c0,64.647,52.594,117.24,117.24,117.24
			s117.24-52.594,117.24-117.24C373.24,277.099,354.108,235.116,317.912,197.807z M240.881,196.379v51.39l-26.896-26.897
			C223.319,211.025,232.769,202.791,240.881,196.379z M240.881,404.875c-40.788-7.18-71.884-42.846-71.884-85.661
			c0-4.451,0.273-8.819,0.78-13.106l71.104,71.104V404.875z M240.882,334.45L240.882,334.45l-61.959-61.959
			c4.306-10.082,9.746-19.484,15.789-28.131l46.17,46.17V334.45z M271.119,196.38c8.114,6.41,17.563,14.645,26.896,24.493
			l-26.896,26.897V196.38z M317.289,244.361c6.041,8.647,11.482,18.049,15.789,28.131L271.12,334.45v-43.919h-0.001L317.289,244.361
			z M271.119,404.875v-27.663l71.104-71.104c0.508,4.286,0.78,8.655,0.78,13.106C343.003,362.029,311.908,397.694,271.119,404.875z"
			/>
	</g>
</g>
<g>
</g>
<g>
</g>
<g>
</g>
<g>
</g>
<g>
</g>
<g>
</g>
<g>
</g>
<g>
</g>
<g>
</g>
<g>
</g>
<g>
</g>
<g>
</g>
<g>
</g>
<g>
</g>
<g>
</g>
</svg>
