<?xml version="1.0" encoding="iso-8859-1"?>
<!-- Generator: Adobe Illustrator 19.0.0, SVG Export Plug-In . SVG Version: 6.00 Build 0)  -->
<svg version="1.1" id="Layer_1" xmlns="http://www.w3.org/2000/svg" xmlns:xlink="http://www.w3.org/1999/xlink" x="0px" y="0px"
	 viewBox="0 0 512.002 512.002" style="enable-background:new 0 0 512.002 512.002;" xml:space="preserve">
<g>
	<g>
		<path d="M473.404,380.794v-7.434c0-27.168-22.102-49.27-49.27-49.27c-34.159,0-61.559-10.112-81.44-30.054
			c-20.198-20.261-31.724-50.501-31.623-82.962c0.128-40.921,7.13-59.531,13.901-77.526c5.615-14.925,11.422-30.356,11.422-55.068
			c0-21.584-8.928-41.695-25.14-56.628C296.176,7.964,276.038,0,256.002,0s-40.175,7.964-55.252,21.854
			c-16.211,14.933-25.14,35.044-25.14,56.628c0,24.711,5.807,40.144,11.422,55.068c6.771,17.996,13.773,36.605,13.901,77.526
			c0.101,32.462-11.426,62.701-31.623,82.962c-19.881,19.943-47.281,30.054-81.44,30.054c-27.168,0-49.27,22.102-49.27,49.27v7.434
			H9.714v87.122h28.885v44.084h434.805v-44.084h28.884v-87.124H473.404z M69.016,373.36c0-10.396,8.457-18.853,18.853-18.853
			c41.938,0,77.549-13.485,102.982-38.997c25.864-25.944,40.625-64.045,40.498-104.532c-0.145-46.406-8.852-69.548-15.849-88.143
			c-5.293-14.067-9.473-25.178-9.473-44.356c0-28.75,25.84-48.063,49.974-48.063s49.974,19.313,49.974,48.063
			c0,19.178-4.18,30.289-9.473,44.356c-6.997,18.595-15.704,41.738-15.849,88.143c-0.127,40.487,14.636,78.588,40.499,104.532
			c25.432,25.512,61.043,38.997,102.982,38.997c10.396,0,18.853,8.457,18.853,18.853v7.434H69.016V373.36z M442.987,481.583H69.016
			v-13.666h373.971V481.583z M471.871,437.499H40.131v-26.287h431.74V437.499z"/>
	</g>
</g>
<g>
</g>
<g>
</g>
<g>
</g>
<g>
</g>
<g>
</g>
<g>
</g>
<g>
</g>
<g>
</g>
<g>
</g>
<g>
</g>
<g>
</g>
<g>
</g>
<g>
</g>
<g>
</g>
<g>
</g>
</svg>
