<?xml version="1.0" encoding="iso-8859-1"?>
<!-- Generator: Adobe Illustrator 19.0.0, SVG Export Plug-In . SVG Version: 6.00 Build 0)  -->
<svg version="1.1" id="Layer_1" xmlns="http://www.w3.org/2000/svg" xmlns:xlink="http://www.w3.org/1999/xlink" x="0px" y="0px"
	 viewBox="0 0 512 512" style="enable-background:new 0 0 512 512;" xml:space="preserve">
<g>
	<g>
		<path d="M114.067,163.88v-39.727H74.34V98.057c0-4.601,3.743-8.344,8.345-8.344c4.602,0,8.345,3.743,8.345,8.344v10.094h30.417
			V98.057c0-21.373-17.388-38.762-38.763-38.762c-21.374,0-38.763,17.388-38.763,38.762v26.096v15.209v24.518H0v70.145h24.452
			v71.064c0,38.653,20.453,72.614,51.101,91.645L62.665,444.83l29.381,7.874l11.696-43.649c9.086,2.494,18.643,3.834,28.509,3.834
			h247.496c9.866,0,19.424-1.339,28.509-3.834l11.696,43.649l29.381-7.874l-12.888-48.097
			c30.648-19.031,51.101-52.992,51.101-91.645v-71.064H512V163.88H114.067z M74.34,154.571h9.311v9.31H74.34V154.571z
			 M457.13,305.089c0,42.669-34.713,77.382-77.382,77.382H132.252c-42.668,0-77.382-34.713-77.382-77.382v-71.064H457.13V305.089z
			 M481.583,203.608H30.417v-9.311h13.505h70.145h367.515V203.608z"/>
	</g>
</g>
<g>
	<g>
		<path d="M406.435,269.512v35.577c0,14.716-11.972,26.687-26.687,26.687v30.417c31.487,0,57.104-25.617,57.104-57.104v-35.577
			H406.435z"/>
	</g>
</g>
<g>
</g>
<g>
</g>
<g>
</g>
<g>
</g>
<g>
</g>
<g>
</g>
<g>
</g>
<g>
</g>
<g>
</g>
<g>
</g>
<g>
</g>
<g>
</g>
<g>
</g>
<g>
</g>
<g>
</g>
</svg>
