<?xml version="1.0" encoding="iso-8859-1"?>
<!-- Generator: Adobe Illustrator 19.0.0, SVG Export Plug-In . SVG Version: 6.00 Build 0)  -->
<svg version="1.1" id="Layer_1" xmlns="http://www.w3.org/2000/svg" xmlns:xlink="http://www.w3.org/1999/xlink" x="0px" y="0px"
	 viewBox="0 0 512 512" style="enable-background:new 0 0 512 512;" xml:space="preserve">
<g>
	<g>
		<path d="M395.231,0l-50.854,50.853l32.958,32.958L178.537,282.609l-52.117-52.117l-94.351,94.352
			c-42.758,42.758-42.758,112.33,0,155.087C53.447,501.31,81.529,512,109.612,512c28.083,0,56.166-10.689,77.544-32.069
			l94.352-94.352l-52.116-52.116L428.19,134.666l32.957,32.958L512,116.769L395.231,0z M186.389,333.464l-40.004,40.004
			l-7.851-7.851l40.004-40.004L186.389,333.464z M238.506,385.58l-72.851,72.851c-30.901,30.901-81.182,30.902-112.085,0
			c-30.901-30.902-30.901-81.183,0-112.085l72.85-72.851l30.616,30.615L95.53,365.616l50.855,50.853l61.505-61.505L238.506,385.58z
			 M207.89,311.961l-7.851-7.851l198.797-198.798l7.852,7.852L207.89,311.961z M424.262,87.736L398.836,62.31l-11.458-11.457
			l7.852-7.852l73.766,73.767l-7.851,7.851L424.262,87.736z"/>
	</g>
</g>
<g>
</g>
<g>
</g>
<g>
</g>
<g>
</g>
<g>
</g>
<g>
</g>
<g>
</g>
<g>
</g>
<g>
</g>
<g>
</g>
<g>
</g>
<g>
</g>
<g>
</g>
<g>
</g>
<g>
</g>
</svg>
