<?xml version="1.0" encoding="iso-8859-1"?>
<!-- Generator: Adobe Illustrator 19.0.0, SVG Export Plug-In . SVG Version: 6.00 Build 0)  -->
<svg version="1.1" id="Layer_1" xmlns="http://www.w3.org/2000/svg" xmlns:xlink="http://www.w3.org/1999/xlink" x="0px" y="0px"
	 viewBox="0 0 512 512" style="enable-background:new 0 0 512 512;" xml:space="preserve">
<g>
	<g>
		<path d="M474.605,437.489V0H37.395v437.489H0V512h512v-74.511H474.605z M67.812,30.417h376.376v407.072H67.812V30.417z
			 M481.583,481.583H30.417v-13.677h6.978h437.21h6.978V481.583z"/>
	</g>
</g>
<g>
	<g>
		<path d="M297.57,45.626h-26.362h-30.417H214.43H83.021V344.21v78.071h157.771h30.417h157.771V344.21V45.626H297.57z
			 M113.438,76.043h20.078v153.597h30.417V76.043h20.079v151.966c0,42.114-30.501,77.235-70.575,84.433V76.043z M240.791,391.863
			H113.438v-48.649c56.913-7.474,100.992-56.286,100.992-115.205V76.043h26.362V391.863z M398.562,391.863H271.209V76.043h26.362
			v151.966c0,58.919,44.08,107.732,100.992,115.205V391.863z M398.562,312.442c-40.073-7.198-70.575-42.32-70.575-84.433V76.043
			h20.078v153.597h30.417V76.043h20.079V312.442z"/>
	</g>
</g>
<g>
</g>
<g>
</g>
<g>
</g>
<g>
</g>
<g>
</g>
<g>
</g>
<g>
</g>
<g>
</g>
<g>
</g>
<g>
</g>
<g>
</g>
<g>
</g>
<g>
</g>
<g>
</g>
<g>
</g>
</svg>
