<?xml version="1.0" encoding="iso-8859-1"?>
<!-- Generator: Adobe Illustrator 19.0.0, SVG Export Plug-In . SVG Version: 6.00 Build 0)  -->
<svg version="1.1" id="Layer_1" xmlns="http://www.w3.org/2000/svg" xmlns:xlink="http://www.w3.org/1999/xlink" x="0px" y="0px"
	 viewBox="0 0 512 512" style="enable-background:new 0 0 512 512;" xml:space="preserve">
<g>
	<g>
		<path d="M256,1.469L0,254.586h62.877V462.71v15.119v32.703h30.237v-32.703h14.264h30.237h14.264h30.237h14.264v32.703h30.237
			v-32.703h58.765v32.703h30.237v-32.703h14.264h30.237h14.264h30.237h14.264v32.703h30.237v-32.703V462.71V254.586H512L256,1.469z
			 M107.378,447.593H93.114V254.586h14.264V447.593z M151.879,447.593L151.879,447.593h-14.264V254.586h14.264V447.593z
			 M196.38,280.236v30.237v137.119h-14.264V254.586h14.264V280.236z M285.382,447.593h-58.765V310.474h14.264h30.237h14.264V447.593
			z M226.617,280.236v-25.65h14.264v25.65H226.617z M285.382,280.237h-14.264v-25.65h14.264V280.237z M329.883,447.593H315.62
			V310.474v-30.237v-25.65h14.264V447.593z M374.385,447.593h-14.264V254.586h14.264V447.593z M418.887,447.593h-14.264V254.586
			h14.264V447.593z M404.622,224.349h-30.237h-14.264h-30.237H315.62h-30.237h-14.264h-30.237h-14.264H196.38h-14.264h-30.237
			h-14.264h-30.237H73.587L256,43.989l182.413,180.36H404.622z"/>
	</g>
</g>
<g>
	<g>
		<path d="M256,95.823c-30.174,0-54.722,24.547-54.722,54.722c0,30.175,24.549,54.722,54.722,54.722s54.722-24.547,54.722-54.722
			C310.722,120.37,286.174,95.823,256,95.823z M256,175.03c-13.501,0-24.485-10.983-24.485-24.485
			c0-13.502,10.984-24.485,24.485-24.485c13.501,0,24.485,10.983,24.485,24.485C280.485,164.047,269.501,175.03,256,175.03z"/>
	</g>
</g>
<g>
</g>
<g>
</g>
<g>
</g>
<g>
</g>
<g>
</g>
<g>
</g>
<g>
</g>
<g>
</g>
<g>
</g>
<g>
</g>
<g>
</g>
<g>
</g>
<g>
</g>
<g>
</g>
<g>
</g>
</svg>
