<?xml version="1.0" encoding="iso-8859-1"?>
<!-- Generator: Adobe Illustrator 19.0.0, SVG Export Plug-In . SVG Version: 6.00 Build 0)  -->
<svg version="1.1" id="Layer_1" xmlns="http://www.w3.org/2000/svg" xmlns:xlink="http://www.w3.org/1999/xlink" x="0px" y="0px"
	 viewBox="0 0 512 512" style="enable-background:new 0 0 512 512;" xml:space="preserve">
<g>
	<g>
		<path d="M256,1.468L0,254.586h39.984v255.946h432.033V254.586H512L256,1.468z M441.779,480.295H70.221V227.677L256,43.989
			l185.779,183.69V480.295z"/>
	</g>
</g>
<g>
	<g>
		<path d="M368.037,229.045c-29.898-29.897-78.546-29.895-108.442,0l-3.597,3.596l-3.596-3.596
			c-14.483-14.483-33.739-22.459-54.22-22.459c-20.481,0-39.739,7.977-54.22,22.459c-29.898,29.898-29.898,78.545,0.001,108.442
			l112.039,112.038l112.036-112.038C397.934,307.589,397.933,258.942,368.037,229.045z M346.656,316.106l-90.657,90.656
			l-90.657-90.656c-18.108-18.108-18.108-47.572,0-65.68c8.772-8.772,20.434-13.603,32.84-13.603
			c12.406,0,24.069,4.831,32.84,13.604L256,275.403l24.976-24.977c18.108-18.107,47.57-18.109,65.68,0
			C364.764,268.534,364.764,297.997,346.656,316.106z"/>
	</g>
</g>
<g>
</g>
<g>
</g>
<g>
</g>
<g>
</g>
<g>
</g>
<g>
</g>
<g>
</g>
<g>
</g>
<g>
</g>
<g>
</g>
<g>
</g>
<g>
</g>
<g>
</g>
<g>
</g>
<g>
</g>
</svg>
