<?xml version="1.0" encoding="iso-8859-1"?>
<!-- Generator: Adobe Illustrator 19.0.0, SVG Export Plug-In . SVG Version: 6.00 Build 0)  -->
<svg version="1.1" id="Layer_1" xmlns="http://www.w3.org/2000/svg" xmlns:xlink="http://www.w3.org/1999/xlink" x="0px" y="0px"
	 viewBox="0 0 512.001 512.001" style="enable-background:new 0 0 512.001 512.001;" xml:space="preserve">
<g>
	<g>
		<path d="M271.209,126.423V0h-30.417v126.423c-92.825,7.751-165.993,85.765-165.993,180.558v15.209h113.566
			c6.953,30.937,34.629,54.127,67.635,54.127s60.682-23.19,67.635-54.127h113.566v-15.209
			C437.202,212.188,364.033,134.174,271.209,126.423z M256,345.899c-16.066,0-29.89-9.786-35.824-23.71h71.65
			C285.89,336.113,272.067,345.899,256,345.899z M325.337,291.772H186.664h-80.687C113.623,215.74,177.988,156.196,256,156.196
			c78.012,0,142.377,59.546,150.023,135.576H325.337z"/>
	</g>
</g>
<g>
	<g>
		<path d="M325.916,196.819c-20.906-13.31-45.083-20.345-69.916-20.345v30.417c19.036,0,37.564,5.39,53.58,15.587
			c15.613,9.94,28.171,23.951,36.316,40.518l27.296-13.419C362.586,228.001,346.238,209.757,325.916,196.819z"/>
	</g>
</g>
<g>
	<g>
		<rect x="240.792" y="401.668" width="30.417" height="110.333"/>
	</g>
</g>
<g>
	<g>
		
			<rect x="94.873" y="397.74" transform="matrix(0.7071 -0.7071 0.7071 0.7071 -248.0534 227.0432)" width="110.332" height="30.417"/>
	</g>
</g>
<g>
	<g>
		
			<rect x="346.758" y="357.784" transform="matrix(0.7071 -0.7071 0.7071 0.7071 -185.9824 376.8994)" width="30.417" height="110.332"/>
	</g>
</g>
<g>
</g>
<g>
</g>
<g>
</g>
<g>
</g>
<g>
</g>
<g>
</g>
<g>
</g>
<g>
</g>
<g>
</g>
<g>
</g>
<g>
</g>
<g>
</g>
<g>
</g>
<g>
</g>
<g>
</g>
</svg>
