<?xml version="1.0" encoding="iso-8859-1"?>
<!-- Generator: Adobe Illustrator 19.0.0, SVG Export Plug-In . SVG Version: 6.00 Build 0)  -->
<svg version="1.1" id="Layer_1" xmlns="http://www.w3.org/2000/svg" xmlns:xlink="http://www.w3.org/1999/xlink" x="0px" y="0px"
	 viewBox="0 0 512.001 512.001" style="enable-background:new 0 0 512.001 512.001;" xml:space="preserve">
<g>
	<g>
		<path d="M460.961,26.017l-51.039,57.774v66.392H375.36V83.793l-51.04-57.774l-51.039,57.774v66.392h-34.562V83.793l-51.039-57.775
			l-51.04,57.774v66.392h-34.562V83.793L51.039,26.017L0,83.793v402.191h102.078v-60.839h34.562v60.839h102.079v-60.839h34.562
			v60.839h102.079v-60.839h34.562v60.839h102.078V83.793L460.961,26.017z M71.661,150.185v72.166v130.629v72.166v30.42H30.417
			V95.304l20.622-23.343l20.622,23.343V150.185z M136.64,394.728h-34.562v-11.331h34.562V394.728z M136.64,352.979h-34.562V222.35
			h34.562V352.979z M136.64,191.933h-34.562v-11.331h34.562V191.933z M208.301,150.185v72.166v130.629v72.166v30.42h-41.245v-30.421
			v-72.166V222.35v-72.166V95.304l20.623-23.343l20.622,23.343V150.185z M273.281,394.728h-34.562v-11.331h34.562V394.728z
			 M273.281,352.979h-34.562V222.35h34.562V352.979z M273.281,191.933h-34.562v-11.331h34.562V191.933z M344.943,150.185v72.166
			v130.629v72.166v30.42h-41.245v-30.421v-72.166V222.35v-72.166V95.304l20.622-23.343l20.623,23.343V150.185z M409.922,394.728
			H375.36v-11.331h34.562V394.728z M409.922,352.979H375.36V222.35h34.562V352.979z M409.922,191.933H375.36v-11.331h34.562V191.933
			z M481.583,455.565h-41.244v-30.421v-72.166V222.35v-72.166V95.304l20.622-23.343l20.622,23.343V455.565z"/>
	</g>
</g>
<g>
</g>
<g>
</g>
<g>
</g>
<g>
</g>
<g>
</g>
<g>
</g>
<g>
</g>
<g>
</g>
<g>
</g>
<g>
</g>
<g>
</g>
<g>
</g>
<g>
</g>
<g>
</g>
<g>
</g>
</svg>
