<?xml version="1.0" encoding="iso-8859-1"?>
<!-- Generator: Adobe Illustrator 19.0.0, SVG Export Plug-In . SVG Version: 6.00 Build 0)  -->
<svg version="1.1" id="Layer_1" xmlns="http://www.w3.org/2000/svg" xmlns:xlink="http://www.w3.org/1999/xlink" x="0px" y="0px"
	 viewBox="0 0 512 512" style="enable-background:new 0 0 512 512;" xml:space="preserve">
<g>
	<g>
		<path d="M324.607,264.786H294.19h-76.381h-30.417H80.594v144.643h106.798h30.417h76.381h30.417h106.798V264.786H324.607z
			 M187.392,379.012h-76.38v-26.696h76.38V379.012z M187.392,321.9h-76.381v-26.696h76.381V321.9z M294.19,379.012h-76.381v-26.696
			h76.381V379.012z M294.19,321.9h-76.381v-26.696h76.381V321.9z M400.987,379.012h-76.381v-26.696h76.381V379.012z M400.989,321.9
			h-76.381v-26.696h76.381V321.9z"/>
	</g>
</g>
<g>
	<g>
		<path d="M424.561,48.155H87.438L0,203.343v37.447h19.76v223.055h472.48V240.789H512v-37.447L424.561,48.155z M461.823,433.427
			H50.177V240.789h411.646V433.427z M30.952,210.372l74.261-131.8h301.573l74.261,131.8H30.952z"/>
	</g>
</g>
<g>
</g>
<g>
</g>
<g>
</g>
<g>
</g>
<g>
</g>
<g>
</g>
<g>
</g>
<g>
</g>
<g>
</g>
<g>
</g>
<g>
</g>
<g>
</g>
<g>
</g>
<g>
</g>
<g>
</g>
</svg>
