<?xml version="1.0" encoding="iso-8859-1"?>
<!-- Generator: Adobe Illustrator 19.0.0, SVG Export Plug-In . SVG Version: 6.00 Build 0)  -->
<svg version="1.1" id="Layer_1" xmlns="http://www.w3.org/2000/svg" xmlns:xlink="http://www.w3.org/1999/xlink" x="0px" y="0px"
	 viewBox="0 0 512 512" style="enable-background:new 0 0 512 512;" xml:space="preserve">
<g>
	<g>
		<polygon points="462.283,412.565 440.767,434.082 453.755,447.069 130.737,447.069 143.724,434.082 122.208,412.565 
			72.491,462.283 122.208,512 143.724,490.484 130.737,477.497 453.755,477.497 440.767,490.484 462.283,512 512,462.283 		"/>
	</g>
</g>
<g>
	<g>
		<polygon points="64.931,381.263 64.931,58.245 77.919,71.233 99.435,49.717 49.717,0 0,49.717 21.516,71.233 34.503,58.245 
			34.503,381.263 21.516,368.276 0,389.792 49.717,439.509 99.435,389.792 77.919,368.276 		"/>
	</g>
</g>
<g>
	<g>
		<path d="M381.55,0.216H106.841V405.16h404.943V147.78H381.55V0.216z M137.269,30.644h91.712v49.865h-91.712V30.644z
			 M178.265,374.731h-40.996V253.262h40.996V374.731z M351.122,374.731H208.693V253.262h142.429V374.731z M351.122,162.995v15.213
			v44.626H137.269V110.937h213.853V162.995z M351.122,80.509h-91.712V30.644h91.712V80.509z M481.356,178.208v196.523H381.55
			V178.208H481.356z"/>
	</g>
</g>
<g>
</g>
<g>
</g>
<g>
</g>
<g>
</g>
<g>
</g>
<g>
</g>
<g>
</g>
<g>
</g>
<g>
</g>
<g>
</g>
<g>
</g>
<g>
</g>
<g>
</g>
<g>
</g>
<g>
</g>
</svg>
