<?xml version="1.0" encoding="iso-8859-1"?>
<!-- Generator: Adobe Illustrator 19.0.0, SVG Export Plug-In . SVG Version: 6.00 Build 0)  -->
<svg version="1.1" id="Layer_1" xmlns="http://www.w3.org/2000/svg" xmlns:xlink="http://www.w3.org/1999/xlink" x="0px" y="0px"
	 viewBox="0 0 512 512" style="enable-background:new 0 0 512 512;" xml:space="preserve">
<g>
	<g>
		<path d="M45.642,111.462v169.292h73.287V111.462H45.642z M88.501,250.326h-12.43V141.89h12.43V250.326z"/>
	</g>
</g>
<g>
	<g>
		<path d="M179.787,111.462v169.292h73.287V111.462H179.787z M222.645,250.326h-12.43V141.89h12.43V250.326z"/>
	</g>
</g>
<g>
	<g>
		<rect x="45.641" y="301.048" width="73.292" height="30.428"/>
	</g>
</g>
<g>
	<g>
		<rect x="45.641" y="351.761" width="73.292" height="30.428"/>
	</g>
</g>
<g>
	<g>
		<rect x="179.781" y="301.048" width="73.292" height="30.428"/>
	</g>
</g>
<g>
	<g>
		<rect x="179.781" y="351.761" width="73.292" height="30.428"/>
	</g>
</g>
<g>
	<g>
		<path d="M398.21,97.734l-71.877,14.297l33.027,166.04l71.878-14.299L398.21,97.734z M383.267,242.291l-21.154-106.352
			l12.192-2.425l21.155,106.352L383.267,242.291z"/>
	</g>
</g>
<g>
	<g>
		<path d="M434.073,44.063L298.716,70.988V65.82H164.572h-30.428H0v399.442h134.143h30.428h134.144V207.144l51.875,260.793
			L512,435.83L434.073,44.063z M134.143,434.833H30.428V96.248h103.715V434.833z M268.287,434.833H164.572V96.248h103.716V434.833z
			 M308.443,100.077l101.724-20.234l66.055,332.08l-101.724,20.234L308.443,100.077z"/>
	</g>
</g>
<g>
	<g>
		
			<rect x="365.592" y="290.531" transform="matrix(0.9808 -0.1951 0.1951 0.9808 -51.9205 84.3507)" width="73.293" height="30.429"/>
	</g>
</g>
<g>
	<g>
		
			<rect x="375.457" y="340.277" transform="matrix(0.9808 -0.1951 0.1951 0.9808 -61.4362 87.231)" width="73.293" height="30.429"/>
	</g>
</g>
<g>
</g>
<g>
</g>
<g>
</g>
<g>
</g>
<g>
</g>
<g>
</g>
<g>
</g>
<g>
</g>
<g>
</g>
<g>
</g>
<g>
</g>
<g>
</g>
<g>
</g>
<g>
</g>
<g>
</g>
</svg>
