<?xml version="1.0" encoding="iso-8859-1"?>
<!-- Generator: Adobe Illustrator 19.0.0, SVG Export Plug-In . SVG Version: 6.00 Build 0)  -->
<svg version="1.1" id="Layer_1" xmlns="http://www.w3.org/2000/svg" xmlns:xlink="http://www.w3.org/1999/xlink" x="0px" y="0px"
	 viewBox="0 0 512 512" style="enable-background:new 0 0 512 512;" xml:space="preserve">
<g>
	<g>
		<path d="M322.892,64.482l-54.44,54.441l103.28,103.281l54.441-54.441L322.892,64.482z M311.439,118.923l11.454-11.454
			l60.293,60.292l-11.455,11.454L311.439,118.923z"/>
	</g>
</g>
<g>
	<g>
		<path d="M322.893,0L203.969,118.924l57.562,57.562L21.345,416.672l52.638,52.638L116.673,512l55.951-55.951l-42.691-42.691
			l6.336-6.336l42.691,42.691l55.951-55.951l-42.691-42.691l121.949-121.949l57.563,57.563l118.923-118.924L322.893,0z
			 M116.673,469.012l-21.197-21.197l11.198-11.198l1.765-1.764l21.197,21.197L116.673,469.012z M178.96,406.726l-21.197-21.197
			l12.963-12.963l21.197,21.197L178.96,406.726z M371.731,243.698l-57.563-57.563L170.726,329.578l-55.951,55.951l-6.336,6.336
			l-34.457,34.457l-9.65-9.65l240.186-240.186l-57.562-57.562l75.936-75.936l124.775,124.774L371.731,243.698z"/>
	</g>
</g>
<g>
</g>
<g>
</g>
<g>
</g>
<g>
</g>
<g>
</g>
<g>
</g>
<g>
</g>
<g>
</g>
<g>
</g>
<g>
</g>
<g>
</g>
<g>
</g>
<g>
</g>
<g>
</g>
<g>
</g>
</svg>
