<?xml version="1.0" encoding="iso-8859-1"?>
<!-- Generator: Adobe Illustrator 19.0.0, SVG Export Plug-In . SVG Version: 6.00 Build 0)  -->
<svg version="1.1" id="Layer_1" xmlns="http://www.w3.org/2000/svg" xmlns:xlink="http://www.w3.org/1999/xlink" x="0px" y="0px"
	 viewBox="0 0 512 512" style="enable-background:new 0 0 512 512;" xml:space="preserve">
<g>
	<g>
		<path d="M512,272.9l-54.481-88.616h-93.727l4.956-24.914l-9.204-5.502c-0.662-0.396-16.595-9.832-49.16-21.668h-0.001
			c-31.114-11.308-66.561-20.953-105.358-28.671c-38.799-7.717-75.239-12.37-108.31-13.83c-34.616-1.527-52.949,1.093-53.711,1.205
			l-10.609,1.561L0,255.313l9.204,5.502c0.662,0.396,16.595,9.832,49.161,21.668c12.254,4.454,25.189,8.645,38.727,12.566H47.145
			v85.423h55.75c0.053,23.337,19.052,42.306,42.401,42.306c23.349,0,42.349-18.969,42.401-42.306h14.262
			c0.053,23.337,19.052,42.306,42.401,42.306c23.349,0,42.349-18.969,42.401-42.306h99.907
			c0.053,23.337,19.051,42.306,42.401,42.306s42.349-18.969,42.401-42.306H512L512,272.9L512,272.9z M434.727,214.699h5.789
			l29.077,47.295h-34.866V214.699z M348.345,261.943v33.107h-6.586L348.345,261.943z M316.578,167.178
			c7.604,3.112,13.607,5.842,18.02,7.969l-23.754,119.428c-4.896,0.277-11.485,0.501-19.699,0.466L316.578,167.178z M52.169,247.505
			c-7.605-3.112-13.607-5.841-18.021-7.968l23.755-119.428c4.896-0.277,11.485-0.501,19.699-0.465L52.169,247.505z M81.054,258.193
			l27.324-137.369c28.033,1.922,58.475,6.123,90.712,12.536c32.235,6.412,61.969,14.179,88.604,23.132L260.37,293.861
			c-28.033-1.922-58.475-6.123-90.712-12.536C137.423,274.913,107.69,267.146,81.054,258.193z M145.296,392.365
			c-6.611,0-11.989-5.378-11.989-11.989c0-2.499,0.771-4.822,2.084-6.745c0.229-0.336,0.476-0.655,0.734-0.963
			c0.12-0.142,0.247-0.275,0.373-0.411c0.176-0.192,0.357-0.379,0.545-0.558c0.142-0.135,0.286-0.267,0.435-0.395
			c0.201-0.172,0.409-0.337,0.619-0.495c0.14-0.105,0.277-0.215,0.421-0.315c0.351-0.24,0.711-0.466,1.085-0.668
			c0.088-0.048,0.182-0.085,0.271-0.13c0.311-0.158,0.627-0.306,0.95-0.437c0.138-0.056,0.28-0.103,0.42-0.154
			c0.289-0.104,0.581-0.198,0.878-0.28c0.148-0.041,0.296-0.08,0.445-0.115c0.313-0.073,0.631-0.131,0.95-0.178
			c0.134-0.02,0.266-0.046,0.4-0.062c0.454-0.053,0.913-0.085,1.378-0.085c0.464,0,0.923,0.033,1.378,0.085
			c0.135,0.015,0.267,0.042,0.4,0.062c0.319,0.048,0.638,0.105,0.951,0.178c0.15,0.036,0.297,0.074,0.445,0.115
			c0.297,0.082,0.59,0.175,0.879,0.28c0.14,0.051,0.282,0.098,0.419,0.153c0.324,0.131,0.641,0.279,0.952,0.438
			c0.088,0.045,0.18,0.082,0.268,0.129c0.374,0.202,0.735,0.428,1.086,0.669c0.143,0.098,0.278,0.208,0.417,0.312
			c0.213,0.16,0.423,0.324,0.625,0.499c0.147,0.127,0.29,0.258,0.431,0.391c0.19,0.18,0.372,0.37,0.55,0.563
			c0.124,0.135,0.25,0.266,0.369,0.406c0.265,0.314,0.517,0.642,0.752,0.986c1.305,1.919,2.069,4.233,2.069,6.723
			C157.286,386.987,151.907,392.365,145.296,392.365z M244.361,392.365c-6.611,0-11.989-5.378-11.989-11.989
			c0-2.499,0.77-4.822,2.084-6.745c0.229-0.336,0.475-0.655,0.734-0.963c0.12-0.142,0.247-0.275,0.373-0.411
			c0.176-0.192,0.357-0.379,0.545-0.558c0.142-0.135,0.286-0.267,0.435-0.395c0.201-0.172,0.409-0.337,0.619-0.495
			c0.14-0.105,0.277-0.215,0.421-0.315c0.351-0.24,0.711-0.466,1.085-0.668c0.088-0.048,0.181-0.085,0.271-0.13
			c0.311-0.158,0.627-0.306,0.95-0.437c0.138-0.056,0.28-0.103,0.42-0.154c0.289-0.104,0.581-0.198,0.878-0.28
			c0.148-0.041,0.296-0.08,0.445-0.115c0.313-0.073,0.631-0.131,0.95-0.178c0.134-0.02,0.266-0.046,0.4-0.062
			c0.454-0.053,0.913-0.085,1.378-0.085s0.923,0.033,1.378,0.085c0.135,0.015,0.266,0.042,0.399,0.061
			c0.32,0.048,0.639,0.105,0.953,0.179c0.148,0.034,0.295,0.073,0.441,0.114c0.299,0.083,0.594,0.177,0.885,0.282
			c0.138,0.05,0.278,0.097,0.414,0.151c0.328,0.133,0.649,0.282,0.964,0.443c0.084,0.043,0.173,0.079,0.256,0.124
			c0.375,0.203,0.737,0.43,1.09,0.671c0.141,0.097,0.275,0.205,0.412,0.308c0.215,0.161,0.426,0.326,0.63,0.503
			c0.147,0.127,0.29,0.257,0.43,0.39c0.189,0.179,0.37,0.368,0.548,0.561c0.126,0.136,0.255,0.269,0.373,0.411
			c0.253,0.3,0.494,0.614,0.719,0.942c1.322,1.927,2.1,4.256,2.1,6.764C256.351,386.987,250.973,392.365,244.361,392.365z
			 M429.071,392.365c-6.611,0-11.989-5.378-11.989-11.989c0-2.518,0.784-4.855,2.116-6.785c0.22-0.319,0.454-0.625,0.701-0.919
			c0.122-0.145,0.252-0.28,0.38-0.419c0.174-0.19,0.354-0.374,0.539-0.551c0.143-0.136,0.288-0.27,0.438-0.398
			c0.2-0.172,0.407-0.335,0.616-0.493c0.141-0.105,0.278-0.217,0.423-0.316c0.351-0.24,0.711-0.466,1.084-0.668
			c0.089-0.048,0.183-0.086,0.274-0.132c0.31-0.157,0.625-0.305,0.947-0.435c0.138-0.056,0.281-0.104,0.422-0.154
			c0.288-0.104,0.581-0.198,0.877-0.28c0.148-0.041,0.296-0.08,0.446-0.115c0.312-0.073,0.63-0.131,0.95-0.178
			c0.134-0.02,0.266-0.046,0.4-0.062c0.454-0.053,0.913-0.085,1.378-0.085s0.923,0.033,1.378,0.085
			c0.135,0.015,0.267,0.042,0.4,0.062c0.319,0.048,0.637,0.105,0.95,0.178c0.15,0.035,0.298,0.074,0.446,0.115
			c0.297,0.082,0.589,0.175,0.877,0.28c0.141,0.051,0.283,0.098,0.422,0.154c0.322,0.13,0.637,0.277,0.947,0.435
			c0.09,0.046,0.185,0.084,0.274,0.132c0.373,0.202,0.733,0.427,1.084,0.668c0.145,0.099,0.282,0.211,0.423,0.316
			c0.21,0.158,0.417,0.32,0.616,0.493c0.149,0.129,0.295,0.262,0.438,0.398c0.186,0.176,0.364,0.362,0.539,0.551
			c0.128,0.139,0.259,0.274,0.38,0.419c0.246,0.293,0.481,0.599,0.701,0.919c1.331,1.931,2.116,4.267,2.116,6.785
			C441.06,386.987,435.682,392.365,429.071,392.365z M481.586,350.059h-22.865v-0.001c-3.798-3.719-8.243-6.662-13.088-8.717
			c-0.032-0.014-0.064-0.028-0.095-0.043c-0.537-0.226-1.081-0.439-1.627-0.643c-0.12-0.045-0.237-0.092-0.357-0.137
			c-0.467-0.169-0.94-0.325-1.414-0.479c-0.2-0.065-0.396-0.134-0.597-0.196c-0.407-0.125-0.818-0.237-1.23-0.35
			c-0.268-0.074-0.533-0.152-0.803-0.22c-0.36-0.091-0.724-0.169-1.087-0.252c-0.321-0.072-0.64-0.15-0.964-0.215
			c-0.333-0.067-0.669-0.121-1.005-0.18c-0.354-0.063-0.705-0.13-1.061-0.183c-0.341-0.052-0.685-0.088-1.027-0.131
			c-0.352-0.044-0.701-0.094-1.054-0.13c-0.403-0.041-0.808-0.064-1.214-0.092c-0.298-0.021-0.593-0.051-0.893-0.066
			c-0.708-0.035-1.418-0.054-2.132-0.054c-0.714,0-1.424,0.019-2.132,0.054c-0.299,0.015-0.595,0.045-0.893,0.066
			c-0.405,0.028-0.811,0.053-1.214,0.092c-0.354,0.036-0.704,0.085-1.054,0.13c-0.343,0.043-0.686,0.08-1.027,0.131
			c-0.357,0.054-0.708,0.121-1.061,0.183c-0.336,0.059-0.671,0.113-1.005,0.18c-0.323,0.065-0.643,0.143-0.964,0.215
			c-0.363,0.082-0.727,0.16-1.087,0.252c-0.27,0.068-0.535,0.147-0.803,0.22c-0.412,0.113-0.823,0.225-1.23,0.35
			c-0.201,0.062-0.398,0.131-0.597,0.196c-0.474,0.153-0.947,0.31-1.414,0.479c-0.12,0.044-0.237,0.092-0.357,0.137
			c-0.546,0.204-1.09,0.417-1.627,0.643c-0.032,0.014-0.064,0.028-0.095,0.043c-4.845,2.055-9.29,4.998-13.088,8.717H274.012
			c-3.791-3.712-8.227-6.649-13.06-8.703c-0.045-0.019-0.089-0.04-0.134-0.059c-0.524-0.221-1.055-0.428-1.589-0.628
			c-0.132-0.05-0.262-0.102-0.394-0.151c-0.455-0.165-0.914-0.317-1.376-0.466c-0.212-0.069-0.422-0.142-0.635-0.208
			c-0.394-0.122-0.793-0.23-1.191-0.339c-0.28-0.077-0.559-0.159-0.84-0.231c-0.349-0.088-0.701-0.164-1.052-0.243
			c-0.331-0.075-0.662-0.155-0.997-0.223c-0.324-0.065-0.653-0.118-0.979-0.175c-0.361-0.064-0.72-0.133-1.084-0.188
			c-0.337-0.051-0.675-0.086-1.014-0.129c-0.356-0.045-0.71-0.095-1.068-0.131c-0.399-0.041-0.803-0.064-1.204-0.092
			c-0.3-0.021-0.598-0.051-0.901-0.066c-0.708-0.036-1.418-0.054-2.132-0.054c-0.714,0-1.424,0.019-2.132,0.054
			c-0.3,0.015-0.596,0.045-0.894,0.066c-0.404,0.028-0.81,0.053-1.213,0.092c-0.355,0.036-0.705,0.086-1.056,0.13
			c-0.342,0.043-0.685,0.08-1.025,0.13c-0.357,0.054-0.709,0.122-1.063,0.185c-0.335,0.059-0.67,0.113-1.003,0.179
			c-0.324,0.065-0.644,0.143-0.965,0.216c-0.363,0.082-0.726,0.16-1.086,0.251c-0.27,0.068-0.535,0.147-0.803,0.22
			c-0.412,0.113-0.823,0.225-1.23,0.35c-0.201,0.062-0.398,0.131-0.597,0.196c-0.473,0.153-0.947,0.31-1.414,0.48
			c-0.12,0.044-0.237,0.091-0.356,0.136c-0.547,0.205-1.091,0.417-1.629,0.644c-0.03,0.013-0.06,0.026-0.09,0.04
			c-4.847,2.055-9.294,4.999-13.093,8.719h-39.764c-3.797-3.718-8.241-6.659-13.083-8.714c-0.034-0.015-0.068-0.03-0.102-0.045
			c-0.534-0.225-1.075-0.436-1.618-0.64c-0.123-0.046-0.243-0.095-0.366-0.14c-0.464-0.169-0.934-0.323-1.405-0.477
			c-0.203-0.066-0.403-0.136-0.606-0.199c-0.405-0.125-0.813-0.235-1.222-0.348c-0.27-0.075-0.538-0.153-0.81-0.223
			c-0.358-0.09-0.719-0.168-1.08-0.25c-0.323-0.073-0.645-0.151-0.971-0.217c-0.331-0.066-0.664-0.12-0.997-0.178
			c-0.356-0.064-0.71-0.131-1.069-0.186c-0.339-0.051-0.681-0.087-1.022-0.13c-0.353-0.044-0.705-0.094-1.06-0.13
			c-0.401-0.041-0.806-0.064-1.21-0.092c-0.299-0.021-0.595-0.052-0.896-0.066c-0.708-0.035-1.418-0.054-2.132-0.054
			c-0.714,0-1.424,0.019-2.132,0.054c-0.3,0.015-0.596,0.045-0.894,0.066c-0.404,0.028-0.81,0.053-1.213,0.092
			c-0.355,0.036-0.705,0.086-1.056,0.13c-0.342,0.043-0.685,0.08-1.025,0.13c-0.357,0.054-0.709,0.122-1.063,0.185
			c-0.335,0.059-0.67,0.113-1.003,0.18c-0.324,0.065-0.644,0.143-0.965,0.216c-0.363,0.082-0.726,0.16-1.086,0.251
			c-0.27,0.068-0.535,0.147-0.803,0.22c-0.412,0.113-0.823,0.225-1.23,0.35c-0.201,0.062-0.398,0.131-0.597,0.196
			c-0.473,0.153-0.947,0.31-1.414,0.479c-0.12,0.044-0.237,0.091-0.356,0.136c-0.547,0.205-1.091,0.417-1.629,0.644
			c-0.03,0.013-0.06,0.026-0.09,0.04c-4.847,2.055-9.294,4.999-13.093,8.719h-38.09v-24.595h301.2V214.7h25.554v77.709h77.273
			V350.059z"/>
	</g>
</g>
<g>
</g>
<g>
</g>
<g>
</g>
<g>
</g>
<g>
</g>
<g>
</g>
<g>
</g>
<g>
</g>
<g>
</g>
<g>
</g>
<g>
</g>
<g>
</g>
<g>
</g>
<g>
</g>
<g>
</g>
</svg>
