<?xml version="1.0" encoding="iso-8859-1"?>
<!-- Generator: Adobe Illustrator 19.0.0, SVG Export Plug-In . SVG Version: 6.00 Build 0)  -->
<svg version="1.1" id="Layer_1" xmlns="http://www.w3.org/2000/svg" xmlns:xlink="http://www.w3.org/1999/xlink" x="0px" y="0px"
	 viewBox="0 0 512.001 512.001" style="enable-background:new 0 0 512.001 512.001;" xml:space="preserve">
<g>
	<g>
		<path d="M256,1.468L0,254.587h39.984v255.946h432.034V254.587h39.984L256,1.468z M441.779,480.294L441.779,480.294H70.221V227.679
			L256,43.99l185.779,183.689V480.294z"/>
	</g>
</g>
<g>
	<g>
		<path d="M256,143.833c-85.775,0-155.557,69.782-155.557,155.557S170.225,454.947,256,454.947s155.557-69.782,155.557-155.557
			S341.775,143.833,256,143.833z M256,424.71c-69.102,0-125.32-56.218-125.32-125.32S186.898,174.07,256,174.07
			s125.32,56.218,125.32,125.32S325.102,424.71,256,424.71z"/>
	</g>
</g>
<g>
	<g>
		<path d="M360.381,316.894c-3.621-13.512-12.286-24.805-24.4-31.799c-9.121-5.267-22.561-9.302-36.05-11.067
			c5.214-12.563,8.439-26.22,8.439-36.753c0-28.877-23.493-52.371-52.37-52.371s-52.37,23.494-52.37,52.371
			c0,10.534,3.225,24.191,8.439,36.753c-13.488,1.766-26.928,5.8-36.049,11.067c-12.115,6.994-20.78,18.287-24.401,31.799
			c-3.62,13.512-1.762,27.626,5.232,39.74c9.689,16.782,27.327,26.175,45.441,26.175c8.879,0,17.871-2.257,26.098-7.006
			c9.123-5.267,19.337-14.888,27.61-25.685c8.273,10.798,18.486,20.419,27.61,25.685c8.227,4.75,17.217,7.007,26.098,7.006
			c18.112-0.001,35.753-9.394,45.441-26.175C362.143,344.519,364.001,330.407,360.381,316.894z M213.273,349.616
			c-5.12,2.955-11.084,3.741-16.795,2.21c-5.711-1.53-10.483-5.192-13.439-10.312c-2.956-5.12-3.741-11.084-2.21-16.795
			c1.53-5.711,5.192-10.483,10.313-13.439c3.81-2.201,10.281-4.505,17.74-6.072c0.036,0.298,0.09,0.591,0.131,0.887
			c0.04,0.282,0.08,0.565,0.125,0.846c0.091,0.571,0.195,1.139,0.305,1.703c0.033,0.17,0.067,0.34,0.102,0.509
			c0.142,0.681,0.298,1.357,0.469,2.027c0.009,0.035,0.018,0.07,0.027,0.105c2.691,10.488,8.857,19.635,17.341,26.026
			C222.302,342.976,217.079,347.418,213.273,349.616z M273.148,301.068c-0.014,0.148-0.041,0.292-0.059,0.44
			c-0.05,0.411-0.108,0.82-0.188,1.223c-0.027,0.141-0.063,0.278-0.095,0.418c-0.093,0.415-0.195,0.826-0.316,1.231
			c-0.031,0.103-0.065,0.203-0.098,0.305c-0.147,0.453-0.307,0.9-0.49,1.334c-0.018,0.044-0.037,0.089-0.056,0.133
			c-1.734,4.048-4.975,7.297-9.013,9.05c-0.111,0.047-0.223,0.093-0.336,0.138c-0.351,0.144-0.709,0.273-1.07,0.393
			c-0.207,0.068-0.413,0.134-0.623,0.193c-0.271,0.08-0.547,0.147-0.824,0.213c-0.281,0.065-0.563,0.132-0.85,0.184
			c-1.018,0.188-2.062,0.299-3.133,0.299c-1.07,0-2.116-0.111-3.133-0.299c-0.287-0.052-0.568-0.118-0.85-0.184
			c-0.276-0.066-0.552-0.133-0.824-0.213c-0.21-0.06-0.416-0.126-0.623-0.193c-0.362-0.12-0.72-0.249-1.07-0.393
			c-0.112-0.045-0.225-0.091-0.336-0.138c-4.038-1.753-7.278-5.002-9.012-9.05c-0.019-0.044-0.038-0.09-0.056-0.135
			c-0.182-0.435-0.343-0.881-0.489-1.333c-0.032-0.102-0.068-0.203-0.098-0.306c-0.122-0.402-0.224-0.814-0.316-1.23
			c-0.031-0.14-0.067-0.277-0.095-0.418c-0.08-0.401-0.136-0.811-0.188-1.223c-0.018-0.147-0.044-0.291-0.059-0.44
			c-0.053-0.553-0.085-1.113-0.085-1.679c0-0.563,0.031-1.118,0.085-1.667c0.015-0.153,0.042-0.304,0.06-0.457
			c0.049-0.4,0.106-0.798,0.181-1.189c0.031-0.162,0.073-0.324,0.109-0.485c0.086-0.378,0.179-0.754,0.289-1.122
			c0.046-0.155,0.098-0.309,0.148-0.464c0.767-2.324,2.02-4.424,3.633-6.195c0.206-0.227,0.407-0.458,0.624-0.672
			c0.223-0.221,0.462-0.424,0.696-0.633c0.208-0.183,0.412-0.369,0.627-0.541c0.246-0.198,0.502-0.384,0.758-0.567
			c0.225-0.161,0.452-0.32,0.684-0.472c0.26-0.165,0.523-0.324,0.789-0.476c0.255-0.147,0.513-0.284,0.774-0.417
			c0.258-0.131,0.517-0.259,0.783-0.377c0.293-0.131,0.593-0.248,0.893-0.362c0.248-0.095,0.495-0.19,0.749-0.273
			c0.342-0.112,0.69-0.204,1.039-0.294c0.228-0.058,0.452-0.126,0.682-0.175c0.406-0.088,0.819-0.147,1.233-0.206
			c0.186-0.026,0.369-0.065,0.557-0.086c0.608-0.064,1.222-0.102,1.84-0.102c0.619,0,1.233,0.036,1.84,0.102
			c0.189,0.021,0.371,0.06,0.557,0.086c0.413,0.058,0.827,0.118,1.233,0.206c0.231,0.049,0.455,0.117,0.682,0.175
			c0.349,0.091,0.697,0.182,1.039,0.294c0.253,0.083,0.5,0.179,0.749,0.273c0.3,0.114,0.6,0.231,0.893,0.362
			c0.265,0.118,0.525,0.246,0.783,0.377c0.261,0.133,0.52,0.271,0.774,0.417c0.266,0.152,0.529,0.311,0.786,0.478
			c0.232,0.15,0.459,0.31,0.684,0.472c0.257,0.184,0.513,0.37,0.758,0.567c0.215,0.172,0.42,0.358,0.627,0.541
			c0.235,0.209,0.474,0.412,0.696,0.633c0.217,0.215,0.418,0.445,0.624,0.672c1.613,1.772,2.865,3.87,3.633,6.195
			c0.05,0.153,0.102,0.307,0.148,0.462c0.11,0.369,0.204,0.745,0.289,1.124c0.036,0.161,0.077,0.322,0.109,0.484
			c0.077,0.392,0.133,0.79,0.182,1.191c0.019,0.151,0.045,0.302,0.06,0.455c0.052,0.549,0.085,1.105,0.085,1.667
			C273.232,299.957,273.201,300.515,273.148,301.068z M274.522,255.669c-3.356-1.421-6.884-2.443-10.512-3.061
			c-0.271-0.046-0.539-0.103-0.811-0.144c-0.379-0.058-0.763-0.098-1.145-0.146c-0.41-0.053-0.818-0.114-1.232-0.156
			c-0.386-0.038-0.776-0.059-1.164-0.089c-0.411-0.031-0.82-0.072-1.235-0.094c-0.804-0.04-1.613-0.061-2.423-0.061
			s-1.619,0.021-2.423,0.061c-0.415,0.021-0.826,0.063-1.238,0.095c-0.387,0.029-0.775,0.049-1.16,0.088
			c-0.413,0.042-0.821,0.104-1.232,0.156c-0.382,0.048-0.766,0.088-1.145,0.146c-0.273,0.041-0.54,0.098-0.811,0.144
			c-3.629,0.618-7.157,1.64-10.512,3.061c-2.372-7.24-3.61-13.995-3.61-18.395c0-12.204,9.929-22.134,22.133-22.134
			c12.204,0,22.132,9.93,22.132,22.134C278.133,241.675,276.894,248.43,274.522,255.669z M328.962,341.515
			c-2.955,5.12-7.729,8.783-13.439,10.312c-5.712,1.531-11.675,0.744-16.795-2.21c-3.806-2.198-9.029-6.64-14.108-12.305
			c8.485-6.391,14.65-15.538,17.341-26.026c0.009-0.035,0.018-0.07,0.027-0.105c0.17-0.67,0.327-1.346,0.469-2.027
			c0.035-0.169,0.069-0.339,0.102-0.509c0.111-0.565,0.215-1.132,0.305-1.703c0.045-0.28,0.085-0.563,0.125-0.846
			c0.041-0.296,0.095-0.589,0.131-0.887c7.459,1.566,13.929,3.87,17.74,6.072c5.12,2.956,8.783,7.729,10.312,13.439
			C332.704,330.431,331.917,336.395,328.962,341.515z"/>
	</g>
</g>
<g>
</g>
<g>
</g>
<g>
</g>
<g>
</g>
<g>
</g>
<g>
</g>
<g>
</g>
<g>
</g>
<g>
</g>
<g>
</g>
<g>
</g>
<g>
</g>
<g>
</g>
<g>
</g>
<g>
</g>
</svg>
