<?xml version="1.0" encoding="iso-8859-1"?>
<!-- Generator: Adobe Illustrator 19.0.0, SVG Export Plug-In . SVG Version: 6.00 Build 0)  -->
<svg version="1.1" id="Layer_1" xmlns="http://www.w3.org/2000/svg" xmlns:xlink="http://www.w3.org/1999/xlink" x="0px" y="0px"
	 viewBox="0 0 512 512" style="enable-background:new 0 0 512 512;" xml:space="preserve">
<g>
	<g>
		<path d="M427.846,343.196v-53.737h-28.079L385.57,0h-78.642l-14.195,289.458h-6.653L273.748,38.01H201.63l-12.332,251.449H84.154
			v53.737H0V512h84.154h30.417h282.857h30.417H512V343.196H427.846z M84.154,481.583H30.417v-107.97h53.737V481.583z
			 M335.889,30.418h20.719l12.703,259.041h-46.125L335.889,30.418z M230.592,68.427h14.195l10.839,221.032h-35.873L230.592,68.427z
			 M114.572,481.583V343.196v-23.32h73.235h99.764h3.669h106.187v23.32v138.387H114.572z M481.583,481.583h-53.737v-107.97h53.737
			V481.583z"/>
	</g>
</g>
<g>
	<g>
		<rect x="145.435" y="350.295" width="38.599" height="30.417"/>
	</g>
</g>
<g>
	<g>
		<rect x="206.279" y="350.295" width="38.599" height="30.417"/>
	</g>
</g>
<g>
	<g>
		<rect x="267.114" y="350.295" width="38.599" height="30.417"/>
	</g>
</g>
<g>
	<g>
		<rect x="327.959" y="350.295" width="38.599" height="30.417"/>
	</g>
</g>
<g>
</g>
<g>
</g>
<g>
</g>
<g>
</g>
<g>
</g>
<g>
</g>
<g>
</g>
<g>
</g>
<g>
</g>
<g>
</g>
<g>
</g>
<g>
</g>
<g>
</g>
<g>
</g>
<g>
</g>
</svg>
