<?xml version="1.0" encoding="iso-8859-1"?>
<!-- Generator: Adobe Illustrator 19.0.0, SVG Export Plug-In . SVG Version: 6.00 Build 0)  -->
<svg version="1.1" id="Layer_1" xmlns="http://www.w3.org/2000/svg" xmlns:xlink="http://www.w3.org/1999/xlink" x="0px" y="0px"
	 viewBox="0 0 512 512" style="enable-background:new 0 0 512 512;" xml:space="preserve">
<g>
	<g>
		<path d="M245.177,287.077h-15.859l-27.756,76.086h18.003l5.788-17.039h23.683l5.894,17.039h18.003L245.177,287.077z
			 M228.139,334.015l9.109-26.898l8.895,26.898H228.139z"/>
	</g>
</g>
<g>
	<g>
		<rect x="285.791" y="287.077" width="17.575" height="76.086"/>
	</g>
</g>
<g>
	<g>
		<path d="M346.747,0H47.628v512h416.744V117.625L346.747,0z M357.209,60.979l46.184,46.184h-46.184V60.979z M428.651,476.279
			H83.349v-35.721h345.302V476.279z M428.651,404.837H83.349V250.047h345.302V404.837z M428.651,214.326H83.349V35.721h238.14
			v107.163h107.163V214.326z"/>
	</g>
</g>
<g>
</g>
<g>
</g>
<g>
</g>
<g>
</g>
<g>
</g>
<g>
</g>
<g>
</g>
<g>
</g>
<g>
</g>
<g>
</g>
<g>
</g>
<g>
</g>
<g>
</g>
<g>
</g>
<g>
</g>
</svg>
