<?xml version="1.0" encoding="iso-8859-1"?>
<!-- Generator: Adobe Illustrator 19.0.0, SVG Export Plug-In . SVG Version: 6.00 Build 0)  -->
<svg version="1.1" id="Layer_1" xmlns="http://www.w3.org/2000/svg" xmlns:xlink="http://www.w3.org/1999/xlink" x="0px" y="0px"
	 viewBox="0 0 512 512" style="enable-background:new 0 0 512 512;" xml:space="preserve">
<g>
	<g>
		<path d="M324.386,198.993l-68.385-68.385l-68.344,68.344c-18.293,18.272-28.367,42.571-28.368,68.426
			c0.001,53.326,43.386,96.711,96.711,96.711c53.326,0,96.711-43.385,96.711-96.711
			C352.711,241.549,342.652,217.263,324.386,198.993z M256,329.956c-34.504,0-62.577-28.072-62.578-62.576
			c0.001-16.73,6.519-32.455,18.364-44.283l44.216-44.216l44.248,44.248c11.818,11.823,18.327,27.536,18.327,44.249
			C318.578,301.883,290.505,329.956,256,329.956z"/>
	</g>
</g>
<g>
	<g>
		<path d="M102.4,34.133V0H0v102.4h34.133v17.067h34.133V102.4H102.4V68.267h17.067V34.133H102.4z M68.267,68.267H34.133V34.133
			h34.133V68.267z"/>
	</g>
</g>
<g>
	<g>
		<path d="M409.6,0v34.133h-17.067v34.133H409.6V102.4h34.133v17.067h34.133V102.4H512V0H409.6z M477.867,68.267h-34.133V34.133
			h34.133V68.267z"/>
	</g>
</g>
<g>
	<g>
		<path d="M307.2,34.133V0H204.8v34.133h-17.067v34.133H204.8V102.4h102.4V68.267h17.067V34.133H307.2z M273.067,68.267h-34.133
			V34.133h34.133V68.267z"/>
	</g>
</g>
<g>
	<g>
		<path d="M307.2,443.733V409.6H204.8v34.133h-17.067v34.133H204.8V512h102.4v-34.133h17.067v-34.133H307.2z M273.067,477.867
			h-34.133v-34.133h34.133V477.867z"/>
	</g>
</g>
<g>
	<g>
		<path d="M102.4,443.733V409.6H68.267v-17.067H34.133V409.6H0V512h102.4v-34.133h17.067v-34.133H102.4z M68.267,477.867H34.133
			v-34.133h34.133V477.867z"/>
	</g>
</g>
<g>
	<g>
		<rect x="136.533" y="34.133" width="34.133" height="34.133"/>
	</g>
</g>
<g>
	<g>
		<rect x="341.333" y="34.133" width="34.133" height="34.133"/>
	</g>
</g>
<g>
	<g>
		<rect x="136.533" y="443.733" width="34.133" height="34.133"/>
	</g>
</g>
<g>
	<g>
		<rect x="341.333" y="443.733" width="34.133" height="34.133"/>
	</g>
</g>
<g>
	<g>
		<path d="M68.267,204.8v-17.067H34.133V204.8H0v102.4h34.133v17.067h34.133V307.2H102.4V204.8H68.267z M68.267,273.067H34.133
			v-34.133h34.133V273.067z"/>
	</g>
</g>
<g>
	<g>
		<rect x="34.133" y="341.333" width="34.133" height="34.133"/>
	</g>
</g>
<g>
	<g>
		<rect x="34.133" y="136.533" width="34.133" height="34.133"/>
	</g>
</g>
<g>
	<g>
		<rect x="443.733" y="341.333" width="34.133" height="34.133"/>
	</g>
</g>
<g>
	<g>
		<path d="M477.867,409.6v-17.067h-34.133V409.6H409.6v34.133h-17.067v34.133H409.6V512H512V409.6H477.867z M477.867,477.867
			h-34.133v-34.133h34.133V477.867z"/>
	</g>
</g>
<g>
	<g>
		<rect x="443.733" y="136.533" width="34.133" height="34.133"/>
	</g>
</g>
<g>
	<g>
		<path d="M477.867,204.8v-17.067h-34.133V204.8H409.6v102.4h34.133v17.067h34.133V307.2H512V204.8H477.867z M477.867,273.067
			h-34.133v-34.133h34.133V273.067z"/>
	</g>
</g>
<g>
</g>
<g>
</g>
<g>
</g>
<g>
</g>
<g>
</g>
<g>
</g>
<g>
</g>
<g>
</g>
<g>
</g>
<g>
</g>
<g>
</g>
<g>
</g>
<g>
</g>
<g>
</g>
<g>
</g>
</svg>
