<?xml version="1.0" encoding="iso-8859-1"?>
<!-- Generator: Adobe Illustrator 19.0.0, SVG Export Plug-In . SVG Version: 6.00 Build 0)  -->
<svg version="1.1" id="Layer_1" xmlns="http://www.w3.org/2000/svg" xmlns:xlink="http://www.w3.org/1999/xlink" x="0px" y="0px"
	 viewBox="0 0 512 512" style="enable-background:new 0 0 512 512;" xml:space="preserve">
<g>
	<g>
		<path d="M417.007,314.573l-87.876,65.815l20.017,26.726l41.631-31.18c-14.867,53.923-61.299,94.885-118.084,101.674V179.842
			h50.428v-33.391h-50.428v-27.27c25.411-7.275,44.071-30.699,44.071-58.415C316.767,27.26,289.507,0,256,0
			s-60.767,27.26-60.767,60.767c0,27.716,18.659,51.141,44.071,58.415v27.27h-50.428v33.391h50.428v297.766
			c-56.785-6.79-103.217-47.751-118.084-101.674l41.631,31.18l20.017-26.726l-87.876-65.815l-58.253,93.06l28.304,17.717
			l24.41-38.995C110.162,458.809,176.985,512,256,512s145.838-53.191,166.548-125.645l24.41,38.995l28.302-17.717L417.007,314.573z
			 M228.625,60.767c0-15.095,12.28-27.375,27.375-27.375s27.375,12.28,27.375,27.375S271.095,88.141,256,88.141
			S228.625,75.861,228.625,60.767z"/>
	</g>
</g>
<g>
</g>
<g>
</g>
<g>
</g>
<g>
</g>
<g>
</g>
<g>
</g>
<g>
</g>
<g>
</g>
<g>
</g>
<g>
</g>
<g>
</g>
<g>
</g>
<g>
</g>
<g>
</g>
<g>
</g>
</svg>
