<?xml version="1.0" encoding="iso-8859-1"?>
<!-- Generator: Adobe Illustrator 19.0.0, SVG Export Plug-In . SVG Version: 6.00 Build 0)  -->
<svg version="1.1" id="Layer_1" xmlns="http://www.w3.org/2000/svg" xmlns:xlink="http://www.w3.org/1999/xlink" x="0px" y="0px"
	 viewBox="0 0 512 512" style="enable-background:new 0 0 512 512;" xml:space="preserve">
<g>
	<g>
		<path d="M449.306,240.327V0H271.673v104.49h-31.347V0H62.694v240.327h73.143v31.347H62.694V512h177.633V271.673h-73.143v-31.347
			h73.143v-104.49h31.347v104.49h73.143v31.347h-73.143V512h177.633V271.673h-73.143v-31.347H449.306z M208.98,303.02v177.633
			H94.041V303.02h41.796v93.474h-31.929l47.598,47.587l47.61-47.587h-31.932V303.02H208.98z M208.98,208.98H94.041V31.347H208.98
			V208.98z M417.959,303.02v177.633H303.02V303.02h41.796v93.474h-31.929l47.598,47.587l47.61-47.587h-31.932V303.02H417.959z
			 M303.02,208.98v-73.143h51.679v31.929l47.587-47.598l-47.587-47.61v31.932H303.02V31.347h114.939V208.98H303.02z"/>
	</g>
</g>
<g>
	<g>
		<circle cx="151.51" cy="120.163" r="20.898"/>
	</g>
</g>
<g>
</g>
<g>
</g>
<g>
</g>
<g>
</g>
<g>
</g>
<g>
</g>
<g>
</g>
<g>
</g>
<g>
</g>
<g>
</g>
<g>
</g>
<g>
</g>
<g>
</g>
<g>
</g>
<g>
</g>
</svg>
