<?xml version="1.0" encoding="iso-8859-1"?>
<!-- Generator: Adobe Illustrator 19.0.0, SVG Export Plug-In . SVG Version: 6.00 Build 0)  -->
<svg version="1.1" id="Layer_1" xmlns="http://www.w3.org/2000/svg" xmlns:xlink="http://www.w3.org/1999/xlink" x="0px" y="0px"
	 viewBox="0 0 512 512" style="enable-background:new 0 0 512 512;" xml:space="preserve">
<g>
	<g>
		<path d="M324.416,268.609c29.039-21.178,47.948-55.452,47.948-94.064c0-35.627-16.099-67.56-41.399-88.92
			c0.439-3.304,0.671-6.637,0.671-9.989C331.636,33.93,297.706,0,256,0s-75.636,33.93-75.636,75.636
			c0,3.351,0.233,6.685,0.671,9.989c-25.3,21.361-41.399,53.293-41.399,88.92c0,38.612,18.909,72.885,47.948,94.064
			C115.399,296.233,64,366.221,64,448c0,35.29,28.71,64,64,64h256c35.29,0,64-28.71,64-64
			C448,366.221,396.601,296.233,324.416,268.609z M256,34.909c18.786,0,34.634,12.788,39.316,30.115
			C283.029,60.6,269.791,58.182,256,58.182c-13.793,0-27.029,2.418-39.316,6.842C221.366,47.697,237.214,34.909,256,34.909z
			 M174.714,169.534c2.6-42.587,38.056-76.443,81.286-76.443c22.33,0,42.586,9.038,57.315,23.64
			c-22.2,35.925-61.022,57.814-103.86,57.814C197.577,174.545,185.936,172.862,174.714,169.534z M181.275,206.924
			c9.242,1.677,18.652,2.531,28.18,2.531c29.791,0,58.789-8.382,83.859-24.24c15.396-9.738,28.906-22.021,40.006-36.241
			c2.669,8.048,4.135,16.64,4.135,25.572c0,44.914-36.54,81.455-81.455,81.455C222.588,256,193.823,235.771,181.275,206.924z
			 M384,477.091H128c-16.041,0-29.091-13.05-29.091-29.091c0-86.621,70.47-157.091,157.091-157.091S413.091,361.379,413.091,448
			C413.091,464.041,400.041,477.091,384,477.091z"/>
	</g>
</g>
<g>
</g>
<g>
</g>
<g>
</g>
<g>
</g>
<g>
</g>
<g>
</g>
<g>
</g>
<g>
</g>
<g>
</g>
<g>
</g>
<g>
</g>
<g>
</g>
<g>
</g>
<g>
</g>
<g>
</g>
</svg>
