<?xml version="1.0" encoding="iso-8859-1"?>
<!-- Generator: Adobe Illustrator 19.0.0, SVG Export Plug-In . SVG Version: 6.00 Build 0)  -->
<svg version="1.1" id="Layer_1" xmlns="http://www.w3.org/2000/svg" xmlns:xlink="http://www.w3.org/1999/xlink" x="0px" y="0px"
	 viewBox="0 0 512 512" style="enable-background:new 0 0 512 512;" xml:space="preserve">
<g>
	<g>
		<g>
			<path d="M168.922,462.613h174.157V334.263H168.922V462.613z M202.313,367.654h107.374v61.567H202.313V367.654z"/>
			<path d="M433.112,512l-30.631-374.496l11.646-94.348h-89.63C324.181,19.307,304.758,0,280.914,0h-49.829
				c-23.844,0-43.267,19.307-43.581,43.156h-89.63l11.646,94.348L78.888,512H433.112z M231.086,33.391h49.829
				c5.433,0,9.874,4.332,10.175,9.765h-70.18C221.212,37.723,225.653,33.391,231.086,33.391z M376.36,76.547l-7.79,63.107
				c-4.469,36.207-26.102,67.642-57.156,85.069v-24.959H200.587v24.959c-31.054-17.427-52.687-48.861-57.157-85.069l-7.79-63.107
				H376.36z M278.023,233.156v0.001v36.979h-44.044v-36.98H278.023z M136.96,211.624c15.898,22.029,37.823,39.565,63.627,50.091
				v41.812h110.827v-41.811c25.804-10.527,47.729-28.062,63.626-50.091l21.838,266.985H115.122L136.96,211.624z"/>
		</g>
	</g>
</g>
<g>
</g>
<g>
</g>
<g>
</g>
<g>
</g>
<g>
</g>
<g>
</g>
<g>
</g>
<g>
</g>
<g>
</g>
<g>
</g>
<g>
</g>
<g>
</g>
<g>
</g>
<g>
</g>
<g>
</g>
</svg>
