<?xml version="1.0" encoding="iso-8859-1"?>
<!-- Generator: Adobe Illustrator 19.0.0, SVG Export Plug-In . SVG Version: 6.00 Build 0)  -->
<svg version="1.1" id="Layer_1" xmlns="http://www.w3.org/2000/svg" xmlns:xlink="http://www.w3.org/1999/xlink" x="0px" y="0px"
	 viewBox="0 0 512.001 512.001" style="enable-background:new 0 0 512.001 512.001;" xml:space="preserve">
<g>
	<g>
		<g>
			<path d="M199.439,101.774c22.217,0,41.143-14.317,48.065-34.206h16.451c6.922,19.889,25.848,34.206,48.065,34.206
				c28.059,0,50.887-22.827,50.887-50.887S340.079,0,312.02,0c-22.217,0-41.143,14.317-48.065,34.207h-16.45
				C240.582,14.317,221.656,0,199.439,0c-28.059,0-50.887,22.828-50.887,50.888S171.38,101.774,199.439,101.774z M312.02,33.361
				c9.664,0,17.526,7.862,17.526,17.527s-7.861,17.526-17.526,17.526s-17.527-7.861-17.527-17.526S302.356,33.361,312.02,33.361z
				 M199.439,33.361c9.664,0,17.527,7.862,17.527,17.527s-7.862,17.526-17.527,17.526s-17.526-7.861-17.526-17.526
				S189.775,33.361,199.439,33.361z"/>
			<path d="M408.973,215.896c-0.286-0.369-0.581-0.727-0.871-1.091c17.688-19.742,23.383-44.656,14.799-69.698l-5.926-17.291
				l-16.678,7.479c-17.261,7.739-30.427,2.047-50.482-7.883c-23.796-11.78-55.555-27.502-94.087,5.652
				c-38.532-33.155-70.29-17.434-94.086-5.652c-20.053,9.929-33.22,15.625-50.482,7.883l-16.678-7.479l-5.926,17.291
				c-9.358,27.299-1.743,54.445,19.878,74.905c-0.785,0.932-1.56,1.877-2.313,2.848c-19.809,25.567-23.366,55.789-10.284,87.398
				c5.293,12.791,12.367,23.265,17.578,30.018c2.195,38.247,19.706,69.183,51.151,90.262c12.613,41.959,42.338,69.838,87.299,80.542
				l3.864,0.92l3.864-0.92c44.961-10.704,74.686-38.583,87.3-80.542c31.475-21.099,48.989-52.074,51.157-90.371
				c5.206-6.197,14.712-18.773,21.422-34.989C432.836,272.883,429.205,242.01,408.973,215.896z M176.444,157.31
				c11.874-5.879,22.172-10.93,32.063-10.811c3.939,0.058,15.924,0.231,34.871,21.102l12.349,13.602l12.349-13.602
				c18.947-20.871,30.933-21.044,34.872-21.102c9.955-0.123,20.189,4.932,32.063,10.811c16.051,7.947,35.136,17.404,58.067,14.442
				c-1.21,10.388-7.484,23.225-27.095,34.265c-15.474,8.712-31.583,12.447-46.419,12.446c-21.8-0.002-40.845-8.071-51.03-20.278
				l-12.808-15.353l-12.808,15.353c-21.985,26.347-67.699,24.58-97.447,7.832c-19.612-11.04-25.886-23.879-27.096-34.265
				C141.306,174.711,160.395,165.254,176.444,157.31z M391.357,284.772c-2.789-9.668-5.408-15.714-5.635-16.232l-30.563,13.372
				c0.093,0.22,9.496,22.251,9.766,48.853c0.177,17.445-3.57,32.687-11.173,45.625c-0.069-4.677-0.276-9.452-0.632-14.334
				l-33.272,2.429c4.542,62.211-17.029,100.257-64.121,113.155c-47.092-12.897-68.661-50.943-64.12-113.155l-33.272-2.429
				c-0.356,4.882-0.563,9.658-0.632,14.334c-7.603-12.938-11.349-28.179-11.173-45.625c0.27-26.603,9.672-48.632,9.767-48.853
				l-30.563-13.372c-0.18,0.41-1.86,4.291-3.935,10.683c-1.4-13.026,2.14-24.893,10.692-35.933c1.224-1.581,2.518-3.06,3.859-4.449
				c17.16,8.168,37.068,12.755,56.776,12.755c22.633,0,45.001-6.055,62.601-19.691c34.973,27.092,88.731,24.246,126.091,3.47
				c0.259,0.32,0.528,0.625,0.782,0.952C393.861,250.86,396.737,266.769,391.357,284.772z"/>
		</g>
	</g>
</g>
<g>
</g>
<g>
</g>
<g>
</g>
<g>
</g>
<g>
</g>
<g>
</g>
<g>
</g>
<g>
</g>
<g>
</g>
<g>
</g>
<g>
</g>
<g>
</g>
<g>
</g>
<g>
</g>
<g>
</g>
</svg>
