<?xml version="1.0" encoding="iso-8859-1"?>
<!-- Generator: Adobe Illustrator 19.0.0, SVG Export Plug-In . SVG Version: 6.00 Build 0)  -->
<svg version="1.1" id="Layer_1" xmlns="http://www.w3.org/2000/svg" xmlns:xlink="http://www.w3.org/1999/xlink" x="0px" y="0px"
	 viewBox="0 0 511.998 511.998" style="enable-background:new 0 0 511.998 511.998;" xml:space="preserve">
<g>
	<g>
		<path d="M452.635,132.633c-1.28-1.651-2.6-3.255-3.953-4.816c24.246-24.992,32.448-57.144,21.393-89.395l-5.926-17.29
			l-16.677,7.479c-25.976,11.649-46.624,1.428-70.53-10.409c-32.163-15.924-71.59-35.45-120.945,9.663
			c-49.355-45.114-88.782-25.587-120.945-9.663c-23.903,11.836-44.553,22.058-70.527,10.409l-16.677-7.479l-5.926,17.29
			c-11.054,32.251-2.852,64.403,21.394,89.396c-1.353,1.561-2.673,3.165-3.953,4.816c-25.299,32.653-29.815,71.314-13.061,111.801
			c9.069,21.915,22.121,38.563,28.354,45.798c2.364,49.919,25.138,90.129,66.429,117.156
			c15.771,54.122,53.614,90.014,111.051,103.69l3.864,0.92l3.864-0.92c57.438-13.676,95.28-49.569,111.051-103.69
			c41.292-27.027,64.065-67.237,66.429-117.156c6.232-7.235,19.284-23.882,28.355-45.798
			C482.449,203.948,477.934,165.288,452.635,132.633z M70.415,65.421c31.459,6.428,57.671-6.545,79.441-17.323
			c33.447-16.561,55.542-27.497,93.795,14.637l12.348,13.602l12.348-13.602c38.252-42.133,60.348-31.196,93.795-14.637
			c21.771,10.779,47.979,23.755,79.441,17.323c0.886,29.685-25.679,48.322-38.632,55.614
			c-40.77,22.951-103.65,25.101-134.145-11.452l-12.807-15.352l-12.805,15.352c-30.496,36.553-93.376,34.403-134.145,11.452
			C96.093,113.741,69.528,95.105,70.415,65.421z M435.216,230.839c-0.822,2.03-1.692,4.004-2.594,5.924
			c-4.562-21.186-10.691-35.355-11.089-36.262l-30.544,13.412c0.126,0.286,12.533,28.939,13.188,64.666
			c0.568,31.086-7.895,57.111-25.202,77.794c0.504-11.186,0.325-22.885-0.566-35.086l-33.269,2.43
			c2.853,39.096-2.227,71.783-15.102,97.152c-14.699,28.961-38.943,47.569-74.039,56.793c-35.096-9.224-59.34-27.832-74.039-56.793
			c-12.875-25.368-17.956-58.055-15.102-97.152l-33.269-2.43c-0.891,12.2-1.07,23.897-0.566,35.082
			c-17.121-20.463-25.588-46.159-25.217-76.811c0.435-35.842,13.089-65.381,13.216-65.676l-15.285-6.675l-15.271-6.706
			c-0.398,0.906-6.527,15.075-11.088,36.258c-0.777-1.655-1.532-3.346-2.251-5.082c-12.082-29.197-9.187-55.647,8.606-78.615
			c1.272-1.641,2.595-3.209,3.957-4.712c0.99,0.588,1.977,1.179,2.993,1.75c48.532,27.322,119.199,30.774,163.316-6.298
			c22.546,18.946,52.028,27.31,81.945,27.31c28.62,0,57.643-7.654,81.371-21.011c1.016-0.572,2.003-1.162,2.993-1.75
			c1.363,1.503,2.686,3.071,3.957,4.712C443.885,175.807,446.896,201.973,435.216,230.839z"/>
	</g>
</g>
<g>
</g>
<g>
</g>
<g>
</g>
<g>
</g>
<g>
</g>
<g>
</g>
<g>
</g>
<g>
</g>
<g>
</g>
<g>
</g>
<g>
</g>
<g>
</g>
<g>
</g>
<g>
</g>
<g>
</g>
</svg>
