<?xml version="1.0" encoding="iso-8859-1"?>
<!-- Generator: Adobe Illustrator 19.0.0, SVG Export Plug-In . SVG Version: 6.00 Build 0)  -->
<svg version="1.1" id="Layer_1" xmlns="http://www.w3.org/2000/svg" xmlns:xlink="http://www.w3.org/1999/xlink" x="0px" y="0px"
	 viewBox="0 0 495 495" style="enable-background:new 0 0 495 495;" xml:space="preserve">
<g>
	<path d="M410.492,242.611l-19.321-6.103V61.371C430.258,68.465,460,102.727,460,143.829h30c0-57.681-43.127-105.474-98.829-112.84
		V0h-30v30.99c-55.702,7.365-98.829,55.158-98.829,112.84c0,54.59,27.493,92.129,79.508,108.56l19.321,6.103v175.137
		c-39.087-7.094-68.829-41.357-68.829-82.458h-30c0,57.681,43.127,105.474,98.829,112.84V495h30v-30.99
		C446.873,456.645,490,408.852,490,351.171C490,296.581,462.507,259.042,410.492,242.611z M350.887,223.783
		c-39.942-12.617-58.545-38.023-58.545-79.954c0-41.102,29.742-75.365,68.829-82.458v165.661L350.887,223.783z M391.171,433.629
		v-165.66l10.284,3.249C441.397,283.835,460,309.24,460,351.171C460,392.273,430.258,426.535,391.171,433.629z"/>
	<path d="M161.619,250.782c30.89-21.789,51.246-58.722,51.246-100.535c0-66.834-51.98-121.207-115.887-121.207L5,29.137v439.903h30
		V271.428h81.993c47.35,0,85.872,40.916,85.872,91.207v106.406h30V362.635C232.865,312.336,203.422,269.1,161.619,250.782z
		 M35,241.428V59.106l61.993-0.065c47.35,0,85.872,40.915,85.872,91.207c0,50.277-38.522,91.18-85.872,91.18H35z"/>
</g>
<g>
</g>
<g>
</g>
<g>
</g>
<g>
</g>
<g>
</g>
<g>
</g>
<g>
</g>
<g>
</g>
<g>
</g>
<g>
</g>
<g>
</g>
<g>
</g>
<g>
</g>
<g>
</g>
<g>
</g>
</svg>
