<?xml version="1.0" encoding="iso-8859-1"?>
<!-- Generator: Adobe Illustrator 19.0.0, SVG Export Plug-In . SVG Version: 6.00 Build 0)  -->
<svg version="1.1" id="Layer_1" xmlns="http://www.w3.org/2000/svg" xmlns:xlink="http://www.w3.org/1999/xlink" x="0px" y="0px"
	 viewBox="0 0 512 512" style="enable-background:new 0 0 512 512;" xml:space="preserve">
<g>
	<g>
		<path d="M367.32,95.256c-8.298-40.711-44.38-71.442-87.506-71.442h-47.628c-43.126,0-79.209,30.731-87.506,71.442H0v392.93h512
			V95.256H367.32z M232.186,59.535h47.628c23.284,0,43.135,14.932,50.509,35.721H181.677
			C189.049,74.467,208.902,59.535,232.186,59.535z M35.721,130.977h45.132c-6.183,21.772-23.36,38.949-45.132,45.132V130.977z
			 M35.721,452.465v-45.132c21.772,6.183,38.949,23.36,45.132,45.132H35.721z M476.279,452.465h-45.132
			c6.182-21.772,23.36-38.949,45.132-45.132V452.465z M476.279,370.727c-41.511,7.425-74.313,40.227-81.739,81.738H117.459
			c-7.425-41.511-40.227-74.313-81.738-81.738V212.716c41.511-7.425,74.313-40.227,81.738-81.739H394.54
			c7.425,41.511,40.227,74.313,81.739,81.739V370.727z M476.279,176.109c-21.772-6.183-38.949-23.36-45.132-45.132h45.132V176.109z"
			/>
	</g>
</g>
<g>
</g>
<g>
</g>
<g>
</g>
<g>
</g>
<g>
</g>
<g>
</g>
<g>
</g>
<g>
</g>
<g>
</g>
<g>
</g>
<g>
</g>
<g>
</g>
<g>
</g>
<g>
</g>
<g>
</g>
</svg>
