<?xml version="1.0" encoding="iso-8859-1"?>
<!-- Generator: Adobe Illustrator 19.0.0, SVG Export Plug-In . SVG Version: 6.00 Build 0)  -->
<svg version="1.1" id="Capa_1" xmlns="http://www.w3.org/2000/svg" xmlns:xlink="http://www.w3.org/1999/xlink" x="0px" y="0px"
	 viewBox="0 0 484.457 484.457" style="enable-background:new 0 0 484.457 484.457;" xml:space="preserve">
<path d="M74.291,53.076l56.569,56.569l-21.213,21.213L53.078,74.289L74.291,53.076z M147.679,22.679h30v80h-30V22.679z
	 M22.679,147.679h80v30h-80V147.679z M374.811,353.593l56.569,56.569l-21.213,21.213l-56.569-56.569L374.811,353.593z
	 M306.778,381.778h30v80h-30V381.778z M381.778,306.778h80v30h-80V306.778z M374.811,289.958l-21.213-21.213l72.302-72.302
	c18.415-18.415,28.558-42.899,28.558-68.942c0-26.044-10.143-50.528-28.558-68.943S383,30,356.956,30
	c-26.043,0-50.527,10.143-68.942,28.558l-72.302,72.302l-21.213-21.213l72.302-72.302C290.882,13.263,322.9,0,356.956,0
	c34.057,0,66.075,13.263,90.156,37.345c24.082,24.081,37.345,56.1,37.345,90.156s-13.263,66.074-37.345,90.155L374.811,289.958z
	 M127.501,484.457c-34.057,0-66.075-13.263-90.156-37.345C13.263,423.031,0,391.013,0,356.956c0-34.056,13.263-66.074,37.345-90.155
	l72.302-72.302l21.213,21.213l-72.302,72.302C40.143,306.429,30,330.913,30,356.956c0,26.044,10.143,50.528,28.558,68.943
	s42.899,28.558,68.943,28.558c26.043,0,50.527-10.143,68.942-28.558l72.302-72.302l21.213,21.213l-72.302,72.302
	C193.575,471.194,161.557,484.457,127.501,484.457z"/>
<g>
</g>
<g>
</g>
<g>
</g>
<g>
</g>
<g>
</g>
<g>
</g>
<g>
</g>
<g>
</g>
<g>
</g>
<g>
</g>
<g>
</g>
<g>
</g>
<g>
</g>
<g>
</g>
<g>
</g>
</svg>
