<?xml version="1.0" encoding="iso-8859-1"?>
<!-- Generator: Adobe Illustrator 19.0.0, SVG Export Plug-In . SVG Version: 6.00 Build 0)  -->
<svg version="1.1" id="Layer_1" xmlns="http://www.w3.org/2000/svg" xmlns:xlink="http://www.w3.org/1999/xlink" x="0px" y="0px"
	 viewBox="0 0 512 512" style="enable-background:new 0 0 512 512;" xml:space="preserve">
<g>
	<g>
		<path d="M370.357,299.745C344.903,261.17,302.154,238.14,256,238.14c-46.153,0-88.902,23.03-114.356,61.604l-6.492,9.838
			l6.49,9.838c25.455,38.574,68.204,61.604,114.357,61.604c46.154,0,88.903-23.03,114.357-61.606l6.489-9.836L370.357,299.745z
			 M256,345.302c-29.987,0-58.036-13.162-77.169-35.721c19.132-22.559,47.183-35.721,77.169-35.721
			c29.988,0,58.036,13.162,77.169,35.721C314.036,332.14,285.988,345.302,256,345.302z"/>
	</g>
</g>
<g>
	<g>
		<circle cx="256" cy="309.581" r="23.814"/>
	</g>
</g>
<g>
	<g>
		<path d="M458.419,17.86H53.581C24.037,17.86,0,41.898,0,71.442v369.116c0,29.545,24.037,53.581,53.581,53.581h404.837
			c29.546,0,53.581-24.038,53.581-53.581V71.442C512,41.898,487.965,17.86,458.419,17.86z M476.279,440.558
			c0,9.849-8.011,17.86-17.86,17.86H53.581c-9.848,0-17.86-8.011-17.86-17.86V160.744h440.558V440.558z M476.279,125.023H35.721
			V71.442c0-9.848,8.012-17.86,17.86-17.86h404.837c9.849,0,17.86,8.012,17.86,17.86V125.023z"/>
	</g>
</g>
<g>
	<g>
		<rect x="256" y="71.442" width="202.419" height="35.721"/>
	</g>
</g>
<g>
	<g>
		<circle cx="71.442" cy="89.302" r="23.814"/>
	</g>
</g>
<g>
</g>
<g>
</g>
<g>
</g>
<g>
</g>
<g>
</g>
<g>
</g>
<g>
</g>
<g>
</g>
<g>
</g>
<g>
</g>
<g>
</g>
<g>
</g>
<g>
</g>
<g>
</g>
<g>
</g>
</svg>
