<?xml version="1.0" encoding="iso-8859-1"?>
<!-- Generator: Adobe Illustrator 19.0.0, SVG Export Plug-In . SVG Version: 6.00 Build 0)  -->
<svg version="1.1" id="Layer_1" xmlns="http://www.w3.org/2000/svg" xmlns:xlink="http://www.w3.org/1999/xlink" x="0px" y="0px"
	 viewBox="0 0 512 512" style="enable-background:new 0 0 512 512;" xml:space="preserve">
<g>
	<g>
		<path d="M321.488,309.583c0-5.531-0.697-10.902-1.993-16.036l17.615-10.169l-17.86-30.938l-17.658,10.194
			c-7.674-7.455-17.161-13.044-27.731-16.046v-20.355H238.14v20.356c-10.57,3.002-20.057,8.59-27.731,16.046l-17.659-10.196
			l-17.86,30.934l17.616,10.171c-1.297,5.135-1.993,10.507-1.993,16.038c0,5.531,0.697,10.901,1.993,16.034l-17.615,10.17
			l17.859,30.937l17.659-10.195c7.674,7.456,17.162,13.045,27.731,16.047l-0.001,20.354l35.721,0.001l0.001-20.355
			c10.57-3.002,20.057-8.59,27.733-16.046l17.656,10.195l17.862-30.934l-17.615-10.171
			C320.793,320.485,321.488,315.113,321.488,309.583z M256,339.349c-16.414,0-29.767-13.354-29.767-29.767
			c0-16.414,13.354-29.767,29.767-29.767s29.767,13.354,29.767,29.767C285.767,325.995,272.414,339.349,256,339.349z"/>
	</g>
</g>
<g>
	<g>
		<path d="M458.419,17.86H53.581C24.037,17.86,0,41.897,0,71.442v369.116c0,29.545,24.037,53.581,53.581,53.581h404.837
			c29.546,0,53.581-24.037,53.581-53.581V71.442C512,41.897,487.965,17.86,458.419,17.86z M476.279,440.558
			c0,9.848-8.011,17.86-17.86,17.86H53.581c-9.848,0-17.86-8.012-17.86-17.86V160.744h440.558V440.558z M476.279,125.023H35.721
			V71.442c0-9.848,8.012-17.86,17.86-17.86h404.837c9.849,0,17.86,8.012,17.86,17.86V125.023z"/>
	</g>
</g>
<g>
	<g>
		<rect x="256" y="71.442" width="202.419" height="35.721"/>
	</g>
</g>
<g>
	<g>
		<circle cx="71.442" cy="89.302" r="23.814"/>
	</g>
</g>
<g>
</g>
<g>
</g>
<g>
</g>
<g>
</g>
<g>
</g>
<g>
</g>
<g>
</g>
<g>
</g>
<g>
</g>
<g>
</g>
<g>
</g>
<g>
</g>
<g>
</g>
<g>
</g>
<g>
</g>
</svg>
