<?xml version="1.0" encoding="iso-8859-1"?>
<!-- Generator: Adobe Illustrator 19.0.0, SVG Export Plug-In . SVG Version: 6.00 Build 0)  -->
<svg version="1.1" id="Layer_1" xmlns="http://www.w3.org/2000/svg" xmlns:xlink="http://www.w3.org/1999/xlink" x="0px" y="0px"
	 viewBox="0 0 512 512" style="enable-background:new 0 0 512 512;" xml:space="preserve">
<g>
	<g>
		<path d="M158.583,202.419c-4.197-3.694-9.683-5.953-15.699-5.953s-11.502,2.26-15.699,5.953H77.395v35.721h49.789
			c4.196,3.694,9.683,5.953,15.699,5.953c5.851,0,11.364-2.117,15.714-5.953h276.007v-35.721H158.583z"/>
	</g>
</g>
<g>
	<g>
		<path d="M384.811,381.023c-4.196-3.69-9.679-5.949-15.695-5.953c-5.85,0-11.364,2.117-15.712,5.953H77.395v35.721h276.022
			c4.196,3.694,9.683,5.953,15.699,5.953s11.502-2.26,15.699-5.953h49.789v-35.721H384.811z"/>
	</g>
</g>
<g>
	<g>
		<path d="M271.695,291.721c-4.196-3.69-9.679-5.949-15.695-5.953c-5.851,0-11.364,2.117-15.714,5.953H77.395v35.721h162.905
			c4.196,3.694,9.683,5.953,15.699,5.953s11.502-2.26,15.699-5.953h162.905v-35.721H271.695z"/>
	</g>
</g>
<g>
	<g>
		<path d="M458.419,17.86H53.581C24.037,17.86,0,41.898,0,71.442v369.116c0,29.545,24.037,53.581,53.581,53.581h404.837
			c29.546,0,53.581-24.038,53.581-53.581V71.442C512,41.898,487.965,17.86,458.419,17.86z M476.279,440.558
			c0,9.849-8.011,17.86-17.86,17.86H53.581c-9.848,0-17.86-8.011-17.86-17.86V160.744h440.558V440.558z M476.279,125.023H35.721
			V71.442c0-9.848,8.012-17.86,17.86-17.86h404.837c9.849,0,17.86,8.012,17.86,17.86V125.023z"/>
	</g>
</g>
<g>
	<g>
		<rect x="256" y="71.442" width="202.419" height="35.721"/>
	</g>
</g>
<g>
	<g>
		<circle cx="71.442" cy="89.302" r="23.814"/>
	</g>
</g>
<g>
</g>
<g>
</g>
<g>
</g>
<g>
</g>
<g>
</g>
<g>
</g>
<g>
</g>
<g>
</g>
<g>
</g>
<g>
</g>
<g>
</g>
<g>
</g>
<g>
</g>
<g>
</g>
<g>
</g>
</svg>
