<?xml version="1.0" encoding="iso-8859-1"?>
<!-- Generator: Adobe Illustrator 19.0.0, SVG Export Plug-In . SVG Version: 6.00 Build 0)  -->
<svg version="1.1" id="Layer_1" xmlns="http://www.w3.org/2000/svg" xmlns:xlink="http://www.w3.org/1999/xlink" x="0px" y="0px"
	 viewBox="0 0 512 512" style="enable-background:new 0 0 512 512;" xml:space="preserve">
<g>
	<g>
		<path d="M404.837,208.372c-13.131,0-23.814,10.683-23.814,23.815c0,0.216,0.026,0.424,0.032,0.638l-77.686,93.221l-73.465-61.711
			c-1.732-11.438-11.602-20.242-23.516-20.242c-13.131,0-23.814,10.683-23.814,23.815c0,0.588,0.046,1.163,0.088,1.74
			l-80.226,105.897c-10.875,2.198-19.088,11.826-19.088,23.339c0,13.126,10.681,23.809,23.807,23.814h0.007
			c6.361,0,12.34-2.477,16.84-6.974c4.5-4.5,6.976-10.483,6.974-16.84c0-0.588-0.046-1.164-0.088-1.741l78.394-103.479
			l72.812,61.164c1.732,11.434,11.6,20.238,23.509,20.242h0.007c6.361,0,12.34-2.477,16.839-6.974
			c4.502-4.502,6.98-10.487,6.975-16.84c0-0.216-0.026-0.424-0.032-0.639l79.104-94.924c4.968-0.763,9.557-3.047,13.179-6.668
			c4.5-4.5,6.976-10.483,6.974-16.84C428.651,219.055,417.968,208.372,404.837,208.372z"/>
	</g>
</g>
<g>
	<g>
		<path d="M458.419,17.86H53.581C24.037,17.86,0,41.897,0,71.442v369.116c0,29.545,24.037,53.581,53.581,53.581h404.837
			c29.546,0,53.581-24.037,53.581-53.581V71.442C512,41.897,487.965,17.86,458.419,17.86z M476.279,440.558
			c0,9.848-8.011,17.86-17.86,17.86H53.581c-9.848,0-17.86-8.012-17.86-17.86V160.744h440.558V440.558z M476.279,125.023H35.721
			V71.442c0-9.848,8.012-17.86,17.86-17.86h404.837c9.849,0,17.86,8.012,17.86,17.86V125.023z"/>
	</g>
</g>
<g>
	<g>
		<rect x="256" y="71.442" width="202.419" height="35.721"/>
	</g>
</g>
<g>
	<g>
		<circle cx="71.442" cy="89.302" r="23.814"/>
	</g>
</g>
<g>
</g>
<g>
</g>
<g>
</g>
<g>
</g>
<g>
</g>
<g>
</g>
<g>
</g>
<g>
</g>
<g>
</g>
<g>
</g>
<g>
</g>
<g>
</g>
<g>
</g>
<g>
</g>
<g>
</g>
</svg>
