<?xml version="1.0" encoding="iso-8859-1"?>
<!-- Generator: Adobe Illustrator 19.0.0, SVG Export Plug-In . SVG Version: 6.00 Build 0)  -->
<svg version="1.1" id="Layer_1" xmlns="http://www.w3.org/2000/svg" xmlns:xlink="http://www.w3.org/1999/xlink" x="0px" y="0px"
	 viewBox="0 0 512 512" style="enable-background:new 0 0 512 512;" xml:space="preserve">
<g>
	<g>
		<path d="M170.49,381.023c-4.197-3.694-9.683-5.953-15.699-5.953s-11.502,2.26-15.699,5.953H89.302v35.721h49.79
			c4.195,3.691,9.679,5.951,15.692,5.953h0.006c5.851,0,11.364-2.117,15.714-5.953h252.193v-35.721H170.49z"/>
	</g>
</g>
<g>
	<g>
		<polygon points="220.279,196.465 220.279,339.349 315.535,267.907 		"/>
	</g>
</g>
<g>
	<g>
		<path d="M458.419,17.86H53.581C24.037,17.86,0,41.897,0,71.442v369.116c0,29.546,24.037,53.581,53.581,53.581h404.837
			c29.546,0,53.581-24.035,53.581-53.581V71.442C512,41.897,487.965,17.86,458.419,17.86z M476.279,440.558
			c0,9.849-8.011,17.86-17.86,17.86H53.581c-9.848,0-17.86-8.011-17.86-17.86V160.744h440.558V440.558z M476.279,125.023H35.721
			V71.442c0-9.848,8.012-17.86,17.86-17.86h404.837c9.849,0,17.86,8.012,17.86,17.86V125.023z"/>
	</g>
</g>
<g>
	<g>
		<rect x="256" y="71.442" width="202.419" height="35.721"/>
	</g>
</g>
<g>
	<g>
		<circle cx="71.442" cy="89.302" r="23.814"/>
	</g>
</g>
<g>
</g>
<g>
</g>
<g>
</g>
<g>
</g>
<g>
</g>
<g>
</g>
<g>
</g>
<g>
</g>
<g>
</g>
<g>
</g>
<g>
</g>
<g>
</g>
<g>
</g>
<g>
</g>
<g>
</g>
</svg>
