<?xml version="1.0" encoding="iso-8859-1"?>
<!-- Generator: Adobe Illustrator 19.0.0, SVG Export Plug-In . SVG Version: 6.00 Build 0)  -->
<svg version="1.1" id="Layer_1" xmlns="http://www.w3.org/2000/svg" xmlns:xlink="http://www.w3.org/1999/xlink" x="0px" y="0px"
	 viewBox="0 0 512 512" style="enable-background:new 0 0 512 512;" xml:space="preserve">
<g>
	<g>
		<path d="M148.837,214.326c-36.11,0-65.488,29.378-65.488,65.488s29.378,65.488,65.488,65.488s65.488-29.378,65.488-65.488
			S184.948,214.326,148.837,214.326z M166.698,303.611v-11.89c0-9.864-7.997-17.86-17.86-17.86c-9.864,0-17.86,7.997-17.86,17.86
			v11.89c-7.225-5.436-11.907-14.08-11.907-23.797c0-16.414,13.354-29.767,29.767-29.767s29.767,13.354,29.767,29.767
			C178.605,289.531,173.923,298.176,166.698,303.611z"/>
	</g>
</g>
<g>
	<g>
		<rect x="256" y="214.326" width="166.698" height="35.721"/>
	</g>
</g>
<g>
	<g>
		<rect x="256" y="285.767" width="166.698" height="35.721"/>
	</g>
</g>
<g>
	<g>
		<rect x="256" y="357.209" width="119.07" height="35.721"/>
	</g>
</g>
<g>
	<g>
		<rect x="89.302" y="357.209" width="119.07" height="35.721"/>
	</g>
</g>
<g>
	<g>
		<path d="M458.419,17.86H53.581C24.037,17.86,0,41.898,0,71.442v369.116c0,29.545,24.037,53.581,53.581,53.581h404.837
			c29.546,0,53.581-24.038,53.581-53.581V71.442C512,41.898,487.965,17.86,458.419,17.86z M476.279,440.558
			c0,9.849-8.011,17.86-17.86,17.86H53.581c-9.848,0-17.86-8.011-17.86-17.86V160.744h440.558V440.558z M476.279,125.023H35.721
			V71.442c0-9.848,8.012-17.86,17.86-17.86h404.837c9.849,0,17.86,8.012,17.86,17.86V125.023z"/>
	</g>
</g>
<g>
	<g>
		<rect x="256" y="71.442" width="202.419" height="35.721"/>
	</g>
</g>
<g>
	<g>
		<circle cx="71.442" cy="89.302" r="23.814"/>
	</g>
</g>
<g>
</g>
<g>
</g>
<g>
</g>
<g>
</g>
<g>
</g>
<g>
</g>
<g>
</g>
<g>
</g>
<g>
</g>
<g>
</g>
<g>
</g>
<g>
</g>
<g>
</g>
<g>
</g>
<g>
</g>
</svg>
