<?xml version="1.0" encoding="iso-8859-1"?>
<!-- Generator: Adobe Illustrator 19.0.0, SVG Export Plug-In . SVG Version: 6.00 Build 0)  -->
<svg version="1.1" id="Capa_1" xmlns="http://www.w3.org/2000/svg" xmlns:xlink="http://www.w3.org/1999/xlink" x="0px" y="0px"
	 viewBox="0 0 475.756 475.756" style="enable-background:new 0 0 475.756 475.756;" xml:space="preserve">
<g>
	<rect x="137.878" y="130" width="200" height="30"/>
	<rect x="137.878" y="200" width="200" height="30"/>
	<path d="M388.869,360h61.509V0h-425v360h216.509c3.5,17.176,12.891,32.234,25.961,42.969l-25.394,61.306l27.717,11.48
		l24.329-58.735c6.633,1.926,13.633,2.979,20.878,2.979c7.392,0,14.53-1.092,21.281-3.094l24.292,58.646l27.717-11.48l-25.425-61.38
		C376.138,391.974,385.398,377.029,388.869,360z M241.887,330H55.378V30h365v300h-31.509c-6.968-34.192-37.271-60-73.491-60
		S248.856,295.808,241.887,330z M270.378,345c0-24.813,20.187-45,45-45s45,20.187,45,45s-20.187,45-45,45
		S270.378,369.813,270.378,345z"/>
</g>
<g>
</g>
<g>
</g>
<g>
</g>
<g>
</g>
<g>
</g>
<g>
</g>
<g>
</g>
<g>
</g>
<g>
</g>
<g>
</g>
<g>
</g>
<g>
</g>
<g>
</g>
<g>
</g>
<g>
</g>
</svg>
