<?xml version="1.0" encoding="iso-8859-1"?>
<!-- Generator: Adobe Illustrator 19.0.0, SVG Export Plug-In . SVG Version: 6.00 Build 0)  -->
<svg version="1.1" id="Layer_1" xmlns="http://www.w3.org/2000/svg" xmlns:xlink="http://www.w3.org/1999/xlink" x="0px" y="0px"
	 viewBox="0 0 512 512" style="enable-background:new 0 0 512 512;" xml:space="preserve">
<g>
	<g>
		<path d="M399.032,319.072c48.534,0,88.02-39.486,88.02-88.02c0-43.143-31.201-79.135-72.224-86.601
			C407.207,63.528,338.884,0,256,0S104.793,63.528,97.171,144.452c-41.022,7.464-72.224,43.458-72.224,86.601
			c0,48.534,39.486,88.02,88.02,88.02h38.509v33.007H81.542L256,512l174.458-159.92h-69.934v-33.007H399.032z M256,467.222
			l-89.602-82.135h18.086V231.052h143.032v154.035h18.086L256,467.222z M151.476,198.045v88.02h-38.509
			c-30.334,0-55.013-24.679-55.013-55.012c0-30.334,24.679-55.013,55.013-55.013h16.504v-16.504
			c0-69.768,56.761-126.529,126.529-126.529s126.529,56.761,126.529,126.529v16.504h16.504c30.334,0,55.012,24.679,55.012,55.013
			c0,30.334-24.679,55.012-55.012,55.012h-38.509v-88.02H151.476z"/>
	</g>
</g>
<g>
</g>
<g>
</g>
<g>
</g>
<g>
</g>
<g>
</g>
<g>
</g>
<g>
</g>
<g>
</g>
<g>
</g>
<g>
</g>
<g>
</g>
<g>
</g>
<g>
</g>
<g>
</g>
<g>
</g>
</svg>
