<?xml version="1.0" encoding="iso-8859-1"?>
<!-- Generator: Adobe Illustrator 19.0.0, SVG Export Plug-In . SVG Version: 6.00 Build 0)  -->
<svg version="1.1" id="Layer_1" xmlns="http://www.w3.org/2000/svg" xmlns:xlink="http://www.w3.org/1999/xlink" x="0px" y="0px"
	 viewBox="0 0 486.127 486.127" style="enable-background:new 0 0 486.127 486.127;" xml:space="preserve">
<g>
	<path d="M464.995,259.534c0.746-4.97,1.132-9.982,1.132-14.97c0-51.193-38.375-93.592-87.872-99.942
		C364.279,76.392,303.939,26.37,233.063,26.37S101.848,76.392,87.872,144.623C38.375,150.972,0,193.371,0,244.564
		c0,55.561,45.202,100.763,100.763,100.763h127.379c7.458,64.327,62.261,114.429,128.555,114.429
		c71.368,0,129.43-58.062,129.43-129.429C486.127,304.216,478.347,279.891,464.995,259.534z M30,244.564
		c0-39.019,31.746-70.763,70.768-70.763H114.1l1.564-13.24c7.018-59.399,57.489-104.191,117.399-104.191
		s110.381,44.792,117.399,104.191l1.564,13.24h13.332c32.742,0,60.352,22.354,68.393,52.599
		c-21.543-16.014-48.211-25.502-77.055-25.502c-66.294,0-121.097,50.103-128.555,114.43H100.763
		C61.744,315.328,30,283.583,30,244.564z M356.697,429.757c-54.826,0-99.429-44.604-99.429-99.429s44.604-99.43,99.429-99.43
		s99.43,44.604,99.43,99.43S411.523,429.757,356.697,429.757z"/>
	<rect x="295.082" y="315.328" width="123.232" height="30"/>
</g>
<g>
</g>
<g>
</g>
<g>
</g>
<g>
</g>
<g>
</g>
<g>
</g>
<g>
</g>
<g>
</g>
<g>
</g>
<g>
</g>
<g>
</g>
<g>
</g>
<g>
</g>
<g>
</g>
<g>
</g>
</svg>
