<?xml version="1.0" encoding="iso-8859-1"?>
<!-- Generator: Adobe Illustrator 19.0.0, SVG Export Plug-In . SVG Version: 6.00 Build 0)  -->
<svg version="1.1" id="Layer_1" xmlns="http://www.w3.org/2000/svg" xmlns:xlink="http://www.w3.org/1999/xlink" x="0px" y="0px"
	 viewBox="0 0 489.648 489.648" style="enable-background:new 0 0 489.648 489.648;" xml:space="preserve">
<g>
	<path d="M244.147,432.114c-14.826,0-28.755-3.885-40.851-10.666l227.608-406.8L404.723,0l-55.124,98.522
		c-5.758-14.121-14.268-26.839-24.868-37.474l25.961-46.399L324.511,0l-23.831,42.592c-16.666-9.576-35.972-15.058-56.534-15.058
		c-62.766,0-113.83,51.064-113.83,113.83v205.715L58.745,475l26.181,14.648l54.341-97.124c5.905,13.946,14.519,26.475,25.17,36.935
		L138.957,475l26.181,14.648l23.508-42.015c16.43,9.215,35.362,14.48,55.502,14.48c62.766,0,113.83-51.064,113.83-113.83h-30
		C327.977,394.508,290.371,432.114,244.147,432.114z M160.317,141.364c0-46.224,37.606-83.83,83.83-83.83
		c15.247,0,29.544,4.112,41.876,11.255L160.317,293.461V141.364z M160.569,354.452L309.278,88.667
		c10.893,13.437,17.725,30.29,18.597,48.683L179.82,401.965C168.893,388.893,161.885,372.452,160.569,354.452z"/>
</g>
<g>
</g>
<g>
</g>
<g>
</g>
<g>
</g>
<g>
</g>
<g>
</g>
<g>
</g>
<g>
</g>
<g>
</g>
<g>
</g>
<g>
</g>
<g>
</g>
<g>
</g>
<g>
</g>
<g>
</g>
</svg>
