<?xml version="1.0" encoding="iso-8859-1"?>
<!-- Generator: Adobe Illustrator 19.0.0, SVG Export Plug-In . SVG Version: 6.00 Build 0)  -->
<svg version="1.1" id="Layer_1" xmlns="http://www.w3.org/2000/svg" xmlns:xlink="http://www.w3.org/1999/xlink" x="0px" y="0px"
	 viewBox="0 0 466.127 466.127" style="enable-background:new 0 0 466.127 466.127;" xml:space="preserve">
<g>
	<path d="M378.255,191.837c-13.976-68.23-74.316-118.253-145.191-118.253S101.848,123.607,87.872,191.837
		C38.375,198.187,0,240.586,0,291.779c0,55.561,45.202,100.763,100.763,100.763h264.601c55.561,0,100.763-45.202,100.763-100.763
		C466.127,240.586,427.751,198.187,378.255,191.837z M365.364,362.542H100.763C61.744,362.542,30,330.798,30,291.779
		s31.746-70.763,70.768-70.763H114.1l1.564-13.24c7.018-59.399,57.489-104.192,117.399-104.192s110.381,44.793,117.399,104.192
		l1.564,13.24h13.332c39.021,0,70.768,31.744,70.768,70.763S404.383,362.542,365.364,362.542z"/>
	<path d="M170.563,272.542c-16.542,0-30,13.458-30,30s13.458,30,30,30s30-13.458,30-30c0-1.704-0.15-3.373-0.425-5h0.425v-85h65v60
		c-16.542,0-30,13.458-30,30s13.458,30,30,30s30-13.458,30-30c0-1.704-0.15-3.373-0.425-5h0.425v-115h-125V272.542z"/>
</g>
<g>
</g>
<g>
</g>
<g>
</g>
<g>
</g>
<g>
</g>
<g>
</g>
<g>
</g>
<g>
</g>
<g>
</g>
<g>
</g>
<g>
</g>
<g>
</g>
<g>
</g>
<g>
</g>
<g>
</g>
</svg>
