<?xml version="1.0" encoding="iso-8859-1"?>
<!-- Generator: Adobe Illustrator 19.0.0, SVG Export Plug-In . SVG Version: 6.00 Build 0)  -->
<svg version="1.1" id="Layer_1" xmlns="http://www.w3.org/2000/svg" xmlns:xlink="http://www.w3.org/1999/xlink" x="0px" y="0px"
	 viewBox="0 0 512 512" style="enable-background:new 0 0 512 512;" xml:space="preserve">
<g>
	<g>
		<path d="M479.499,324.073h-0.001h-60.915l-91.465-158.423c0.991-4.777,1.516-9.723,1.516-14.789c0-20.547-8.59-39.115-22.35-52.34
			V0H205.711v98.522c-13.761,13.226-22.35,31.793-22.35,52.34c0,5.066,0.525,10.012,1.516,14.788L93.414,324.073H32.501v33.525
			h41.557l-32.574,56.42l58.2,33.601l-27.493,47.617l29.032,16.762l88.968-154.401h49.045v27.937h33.525v-27.937h49.045L410.969,512
			l29.032-16.762l-27.54-47.701l58.052-33.516l-32.574-56.422h41.56V324.073z M239.237,33.525h33.525v46.674
			c-5.384-1.278-10.993-1.975-16.762-1.975c-5.77,0-11.378,0.696-16.762,1.975V33.525z M255.999,111.749
			c21.567,0,39.112,17.546,39.112,39.112s-17.546,39.112-39.112,39.112s-39.112-17.546-39.112-39.112
			S234.433,111.749,255.999,111.749z M116.315,418.51L87.28,401.748L203.308,200.78c7.727,8.153,17.31,14.527,28.079,18.417
			L116.315,418.51z M272.762,324.073v-27.937h-33.525v27.937H209.55l46.45-80.455l46.451,80.455H272.762z M395.686,418.513
			L280.611,219.198c10.768-3.89,20.352-10.265,28.079-18.417l116.028,200.97L395.686,418.513z"/>
	</g>
</g>
<g>
</g>
<g>
</g>
<g>
</g>
<g>
</g>
<g>
</g>
<g>
</g>
<g>
</g>
<g>
</g>
<g>
</g>
<g>
</g>
<g>
</g>
<g>
</g>
<g>
</g>
<g>
</g>
<g>
</g>
</svg>
