<?xml version="1.0" encoding="iso-8859-1"?>
<!-- Generator: Adobe Illustrator 19.0.0, SVG Export Plug-In . SVG Version: 6.00 Build 0)  -->
<svg version="1.1" id="Layer_1" xmlns="http://www.w3.org/2000/svg" xmlns:xlink="http://www.w3.org/1999/xlink" x="0px" y="0px"
	 viewBox="0 0 485 485" style="enable-background:new 0 0 485 485;" xml:space="preserve">
<g>
	<path d="M181.654,75.833c-6.547-23.057-27.777-40-52.904-40s-46.356,16.943-52.904,40H0v30h75.846
		c6.547,23.057,27.777,40,52.904,40s46.356-16.943,52.904-40H485v-30H181.654z M128.75,115.833c-13.785,0-25-11.215-25-25
		s11.215-25,25-25s25,11.215,25,25S142.535,115.833,128.75,115.833z"/>
	<path d="M242.5,187.5c-25.127,0-46.356,16.943-52.904,40H0v30h189.596c6.547,23.057,27.777,40,52.904,40s46.356-16.943,52.904-40
		H485v-30H295.404C288.856,204.443,267.627,187.5,242.5,187.5z M242.5,267.5c-13.785,0-25-11.215-25-25s11.215-25,25-25
		s25,11.215,25,25S256.285,267.5,242.5,267.5z"/>
	<path d="M128.75,339.167c-25.127,0-46.356,16.943-52.904,40H0v30h75.846c6.547,23.057,27.777,40,52.904,40s46.356-16.943,52.904-40
		H485v-30H181.654C175.106,356.11,153.877,339.167,128.75,339.167z M128.75,419.167c-13.785,0-25-11.215-25-25s11.215-25,25-25
		s25,11.215,25,25S142.535,419.167,128.75,419.167z"/>
</g>
<g>
</g>
<g>
</g>
<g>
</g>
<g>
</g>
<g>
</g>
<g>
</g>
<g>
</g>
<g>
</g>
<g>
</g>
<g>
</g>
<g>
</g>
<g>
</g>
<g>
</g>
<g>
</g>
<g>
</g>
</svg>
