<?xml version="1.0" encoding="iso-8859-1"?>
<!-- Generator: Adobe Illustrator 19.0.0, SVG Export Plug-In . SVG Version: 6.00 Build 0)  -->
<svg version="1.1" id="Layer_1" xmlns="http://www.w3.org/2000/svg" xmlns:xlink="http://www.w3.org/1999/xlink" x="0px" y="0px"
	 viewBox="0 0 512 512" style="enable-background:new 0 0 512 512;" xml:space="preserve">
<g>
	<g>
		<path d="M344.248,115.236c-1.095-21.948-18.643-39.287-40.365-40.336L298.214,0h-84.429l-5.671,74.9
			c-21.722,1.049-39.27,18.388-40.364,40.337L147.969,512h216.061L344.248,115.236z M241.985,30.417h28.027l3.363,44.431h-34.754
			L241.985,30.417z M189.021,299.429h60.782v-30.417h-59.266l1.011-20.278h58.255v-30.417h-56.738l1.097-22.009l0.557-11.157h71.865
			l7.351,147.444h-86.566L189.021,299.429z M185.851,363.011h120.055l-10.384-208.279h-99.286l1.894-37.981
			c0.32-6.44,5.623-11.486,12.073-11.486h91.594c6.448,0,11.752,5.045,12.073,11.486l14.744,295.727H183.385L185.851,363.011z
			 M195.142,481.582H179.94l1.928-38.687h14.238L195.142,481.582z M240.79,481.582H225.57l0.964-38.687h14.257V481.582z
			 M271.209,481.582v-38.687h14.257l0.964,38.687H271.209z M316.855,481.583l-0.964-38.687h14.238l1.928,38.687H316.855z"/>
	</g>
</g>
<g>
</g>
<g>
</g>
<g>
</g>
<g>
</g>
<g>
</g>
<g>
</g>
<g>
</g>
<g>
</g>
<g>
</g>
<g>
</g>
<g>
</g>
<g>
</g>
<g>
</g>
<g>
</g>
<g>
</g>
</svg>
