<?xml version="1.0" encoding="iso-8859-1"?>
<!-- Generator: Adobe Illustrator 19.0.0, SVG Export Plug-In . SVG Version: 6.00 Build 0)  -->
<svg version="1.1" id="Capa_1" xmlns="http://www.w3.org/2000/svg" xmlns:xlink="http://www.w3.org/1999/xlink" x="0px" y="0px"
	 viewBox="0 0 485 485" style="enable-background:new 0 0 485 485;" xml:space="preserve">
<g>
	<circle cx="242.5" cy="364.226" r="20"/>
	<circle cx="158.684" cy="364.226" r="20"/>
	<circle cx="326.316" cy="364.226" r="20"/>
	<path d="M485,100.774c0-30.327-24.673-55-55-55s-55,24.673-55,55c0,19.213,9.909,36.146,24.878,45.984L336.3,201.011
		l-63.232-54.538c14.722-9.88,24.433-26.675,24.433-45.698c0-30.327-24.673-55-55-55s-55,24.673-55,55
		c0,19.021,9.708,35.814,24.427,45.694l-63.233,54.542l-63.573-54.251C100.09,136.921,110,119.988,110,100.774
		c0-30.327-24.673-55-55-55s-55,24.673-55,55c0,25.325,17.21,46.695,40.546,53.059L59.868,305.18v134.045h365.264V305.177
		l19.323-151.343C467.79,147.469,485,126.099,485,100.774z M430,75.774c13.785,0,25,11.215,25,25s-11.215,25-25,25s-25-11.215-25-25
		S416.215,75.774,430,75.774z M242.5,75.774c13.785,0,25,11.215,25,25s-11.215,25-25,25s-25-11.215-25-25
		S228.715,75.774,242.5,75.774z M148.798,240.538l93.696-80.817l93.7,80.817l75.132-64.11l-14.401,112.798H88.075L73.674,176.43
		L148.798,240.538z M55,75.774c13.785,0,25,11.215,25,25s-11.215,25-25,25s-25-11.215-25-25S41.215,75.774,55,75.774z
		 M395.132,409.226H89.868v-90h305.264V409.226z"/>
</g>
<g>
</g>
<g>
</g>
<g>
</g>
<g>
</g>
<g>
</g>
<g>
</g>
<g>
</g>
<g>
</g>
<g>
</g>
<g>
</g>
<g>
</g>
<g>
</g>
<g>
</g>
<g>
</g>
<g>
</g>
</svg>
