<?xml version="1.0" encoding="iso-8859-1"?>
<!-- Generator: Adobe Illustrator 19.0.0, SVG Export Plug-In . SVG Version: 6.00 Build 0)  -->
<svg version="1.1" id="Layer_1" xmlns="http://www.w3.org/2000/svg" xmlns:xlink="http://www.w3.org/1999/xlink" x="0px" y="0px"
	 viewBox="0 0 445 445" style="enable-background:new 0 0 445 445;" xml:space="preserve">
<g>
	<path d="M203.547,116.167c0,50.277-38.521,91.18-85.871,91.18H35.683V0h-30v445h30V237.347h81.993
		c47.35,0,85.871,40.916,85.871,91.207V445h30V328.554c0-45.692-24.299-85.555-60.086-106.205
		c35.787-20.646,60.086-60.5,60.086-106.182V0h-30V116.167z"/>
	<polygon points="365.427,81.084 400.062,16.142 373.591,2.024 351.359,43.711 328.7,1.932 302.329,16.234 337.498,81.08 	"/>
	<path d="M351.17,410c-32.062,0-58.146-26.084-58.146-58.146V198.706c0-32.062,26.084-58.146,58.146-58.146
		s58.146,26.084,58.146,58.146h30c0-48.604-39.542-88.146-88.146-88.146s-88.146,39.542-88.146,88.146v153.147
		c0,48.604,39.542,88.146,88.146,88.146s88.146-39.542,88.146-88.146h-30C409.317,383.916,383.232,410,351.17,410z"/>
</g>
<g>
</g>
<g>
</g>
<g>
</g>
<g>
</g>
<g>
</g>
<g>
</g>
<g>
</g>
<g>
</g>
<g>
</g>
<g>
</g>
<g>
</g>
<g>
</g>
<g>
</g>
<g>
</g>
<g>
</g>
</svg>
