<?xml version="1.0" encoding="iso-8859-1"?>
<!-- Generator: Adobe Illustrator 19.0.0, SVG Export Plug-In . SVG Version: 6.00 Build 0)  -->
<svg version="1.1" id="Layer_1" xmlns="http://www.w3.org/2000/svg" xmlns:xlink="http://www.w3.org/1999/xlink" x="0px" y="0px"
	 viewBox="0 0 445 445" style="enable-background:new 0 0 445 445;" xml:space="preserve">
<g>
	<path d="M234.779,116.167c0,50.277-38.522,91.18-85.872,91.18H66.915V0h-30v445h30V237.347h81.993
		c47.35,0,85.872,40.916,85.872,91.207V445h30V328.554c0-45.692-24.299-85.555-60.086-106.205
		c35.787-20.646,60.086-60.5,60.086-106.182V0h-30V116.167z"/>
	<path d="M324.256,157.117v-41.91h-30V445h30V234.036c0-46.224,37.606-83.83,83.83-83.83v-30
		C374.949,120.207,345.077,134.443,324.256,157.117z"/>
</g>
<g>
</g>
<g>
</g>
<g>
</g>
<g>
</g>
<g>
</g>
<g>
</g>
<g>
</g>
<g>
</g>
<g>
</g>
<g>
</g>
<g>
</g>
<g>
</g>
<g>
</g>
<g>
</g>
<g>
</g>
</svg>
