<?xml version="1.0" encoding="iso-8859-1"?>
<!-- Generator: Adobe Illustrator 19.0.0, SVG Export Plug-In . SVG Version: 6.00 Build 0)  -->
<svg version="1.1" id="Layer_1" xmlns="http://www.w3.org/2000/svg" xmlns:xlink="http://www.w3.org/1999/xlink" x="0px" y="0px"
	 viewBox="0 0 512 512" style="enable-background:new 0 0 512 512;" xml:space="preserve">
<g>
	<g>
		<path d="M488.042,235.1c5.665-8.352,8.979-18.423,8.979-29.253c0-18.389-9.558-34.577-23.957-43.89
			c5.665-8.352,8.979-18.423,8.979-29.253c0-18.389-9.558-34.577-23.958-43.89c5.665-8.352,8.979-18.423,8.979-29.253
			c0-28.808-23.437-52.245-52.245-52.245H0v323.92h164.042c66.465,0,118.53,53.234,118.53,121.195
			c0,28.812,23.44,52.251,52.251,52.251c28.812,0,52.252-23.44,52.252-52.251c0-44.541-9.07-85.908-26.412-121.197h99.092
			c28.808,0,52.245-23.437,52.245-52.245C512,260.601,502.442,244.414,488.042,235.1z M85.674,299.89H31.347V38.664h54.327V299.89z
			 M148.368,299.89h-31.347V38.664h31.347V299.89z M459.755,299.888H318.694v21.373l2.541,3.9
			c22.566,34.643,34.493,78.652,34.493,127.271c0,11.526-9.378,20.904-20.905,20.904c-11.526,0-20.904-9.378-20.904-20.904
			c0-40.834-15.341-79.086-43.196-107.711c-24.481-25.158-56.35-40.473-91.007-44.027V38.664h235.102
			c11.523,0,20.898,9.375,20.898,20.898S426.34,80.46,414.817,80.46h-10.449v31.347h25.429c11.523,0,20.898,9.375,20.898,20.898
			s-9.375,20.898-20.898,20.898h-25.429v31.347h40.407c11.523,0,20.898,9.375,20.898,20.898s-9.375,20.898-20.898,20.898h-40.407
			v31.347h55.387c11.523,0,20.898,9.375,20.898,20.898S471.278,299.888,459.755,299.888z"/>
	</g>
</g>
<g>
</g>
<g>
</g>
<g>
</g>
<g>
</g>
<g>
</g>
<g>
</g>
<g>
</g>
<g>
</g>
<g>
</g>
<g>
</g>
<g>
</g>
<g>
</g>
<g>
</g>
<g>
</g>
<g>
</g>
</svg>
