<?xml version="1.0" encoding="iso-8859-1"?>
<!-- Generator: Adobe Illustrator 19.0.0, SVG Export Plug-In . SVG Version: 6.00 Build 0)  -->
<svg version="1.1" id="Layer_1" xmlns="http://www.w3.org/2000/svg" xmlns:xlink="http://www.w3.org/1999/xlink" x="0px" y="0px"
	 viewBox="0 0 440 440" style="enable-background:new 0 0 440 440;" xml:space="preserve">
<g>
	<path d="M316.562,35V0h-30v35h-40.414v30h40.414v82.911c-20.821-22.673-50.692-36.91-83.829-36.91
		c-62.767,0-113.83,51.064-113.83,113.83v29.681c0,62.766,51.063,113.829,113.83,113.829c33.137,0,63.008-14.236,83.829-36.91
		v38.765h30V254.512v-29.681V65h39.536V35H316.562z M202.732,338.341c-46.224,0-83.83-37.605-83.83-83.829v-29.681
		c0-46.224,37.606-83.83,83.83-83.83s83.829,37.606,83.829,83.83v29.681C286.562,300.736,248.956,338.341,202.732,338.341z"/>
	<rect x="83.902" y="410" width="237.659" height="30"/>
</g>
<g>
</g>
<g>
</g>
<g>
</g>
<g>
</g>
<g>
</g>
<g>
</g>
<g>
</g>
<g>
</g>
<g>
</g>
<g>
</g>
<g>
</g>
<g>
</g>
<g>
</g>
<g>
</g>
<g>
</g>
</svg>
