<?xml version="1.0" encoding="iso-8859-1"?>
<!-- Generator: Adobe Illustrator 19.0.0, SVG Export Plug-In . SVG Version: 6.00 Build 0)  -->
<svg version="1.1" id="Layer_1" xmlns="http://www.w3.org/2000/svg" xmlns:xlink="http://www.w3.org/1999/xlink" x="0px" y="0px"
	 viewBox="0 0 512 512" style="enable-background:new 0 0 512 512;" xml:space="preserve">
<g>
	<g>
		<path d="M511.999,255.908V0H0.001v255.908c0,0.03-0.001,0.06-0.001,0.091s0.001,0.061,0.001,0.091v255.908h255.817
			c0.06,0,0.121,0.002,0.182,0.002s0.122-0.002,0.182-0.002h255.817V256.09c0-0.03,0.001-0.06,0.001-0.091
			C512,255.968,511.999,255.937,511.999,255.908z M453.73,34.133l-29.184,29.184c-12.684-11.126-26.292-20.878-40.646-29.184H453.73
			z M342.697,193.437l81.711-81.711c33.287,38.799,53.434,89.182,53.456,144.188v0.173c-0.023,55.007-20.169,105.388-53.455,144.188
			l-63.226-63.227c9.962-17.561,15.661-37.846,15.661-59.437C376.845,245.931,364.729,216.115,342.697,193.437z M342.712,277.61
			c0,47.813-38.899,86.711-86.712,86.711s-86.71-38.899-86.711-86.71c0.001-23.179,9.034-44.966,25.442-61.358l61.272-61.27
			l61.312,61.311C333.692,232.676,342.712,254.45,342.712,277.61z M400.274,87.589l-81.697,81.697l-62.574-62.573l-62.578,62.576
			l-81.7-81.7C150.546,54.287,200.961,34.133,256,34.133S361.454,54.287,400.274,87.589z M128.1,34.133
			c-14.354,8.306-27.962,18.058-40.646,29.184L58.27,34.133H128.1z M34.134,58.269l29.184,29.184
			c-11.126,12.683-20.879,26.291-29.184,40.645V58.269z M34.134,255.912c0.023-55.006,20.17-105.388,53.455-144.188l81.715,81.714
			c-22.031,22.676-34.148,52.488-34.149,84.171c0,21.593,5.698,41.876,15.661,59.436l-63.227,63.227
			c-33.287-38.8-53.433-89.182-53.455-144.188V255.912z M34.134,383.9c8.306,14.353,18.058,27.962,29.184,40.645l-29.184,29.184
			V383.9z M58.27,477.865l29.183-29.183c12.684,11.125,26.291,20.877,40.643,29.183H58.27z M256.175,477.865h-0.35v0
			c-54.97-0.042-105.32-20.186-144.099-53.455l60.143-60.143c21.774,21.146,51.457,34.188,84.131,34.188
			c32.677,0,62.36-13.042,84.133-34.187l60.142,60.142C361.495,457.678,311.146,477.822,256.175,477.865z M383.904,477.865
			c14.353-8.306,27.96-18.058,40.644-29.183l29.183,29.183H383.904z M477.866,453.729l-29.184-29.184
			c11.126-12.682,20.878-26.291,29.184-40.645V453.729z M477.866,128.097c-8.307-14.353-18.058-27.962-29.184-40.645l29.184-29.184
			V128.097z"/>
	</g>
</g>
<g>
</g>
<g>
</g>
<g>
</g>
<g>
</g>
<g>
</g>
<g>
</g>
<g>
</g>
<g>
</g>
<g>
</g>
<g>
</g>
<g>
</g>
<g>
</g>
<g>
</g>
<g>
</g>
<g>
</g>
</svg>
