<?xml version="1.0" encoding="iso-8859-1"?>
<!-- Generator: Adobe Illustrator 19.0.0, SVG Export Plug-In . SVG Version: 6.00 Build 0)  -->
<svg version="1.1" id="Layer_1" xmlns="http://www.w3.org/2000/svg" xmlns:xlink="http://www.w3.org/1999/xlink" x="0px" y="0px"
	 viewBox="0 0 512 512" style="enable-background:new 0 0 512 512;" xml:space="preserve">
<g>
	<g>
		<path d="M256,417.959c-25.927,0-47.02,21.093-47.02,47.02c0,25.927,21.093,47.02,47.02,47.02s47.02-21.093,47.02-47.02
			C303.02,439.053,281.927,417.959,256,417.959z M256,480.653c-8.642,0-15.673-7.031-15.673-15.673
			c0-8.642,7.031-15.674,15.673-15.674c8.642,0,15.673,7.031,15.673,15.674C271.673,473.622,264.642,480.653,256,480.653z"/>
	</g>
</g>
<g>
	<g>
		<path d="M208.98,0v386.612h94.041V0H208.98z M271.673,355.265h-31.347V31.347h31.347V355.265z"/>
	</g>
</g>
<g>
</g>
<g>
</g>
<g>
</g>
<g>
</g>
<g>
</g>
<g>
</g>
<g>
</g>
<g>
</g>
<g>
</g>
<g>
</g>
<g>
</g>
<g>
</g>
<g>
</g>
<g>
</g>
<g>
</g>
</svg>
