<?xml version="1.0" encoding="iso-8859-1"?>
<!-- Generator: Adobe Illustrator 19.0.0, SVG Export Plug-In . SVG Version: 6.00 Build 0)  -->
<svg version="1.1" id="Layer_1" xmlns="http://www.w3.org/2000/svg" xmlns:xlink="http://www.w3.org/1999/xlink" x="0px" y="0px"
	 viewBox="0 0 511.999 511.999" style="enable-background:new 0 0 511.999 511.999;" xml:space="preserve">
<g>
	<g>
		<path d="M345.487,266.528v-45.423v-30.417v-9.173c0-23.869-18.176-43.57-41.414-45.994L291.857,31.879
			C289.716,13.706,274.301,0,255.999,0s-33.716,13.706-35.857,31.878L207.926,135.52c-23.237,2.424-41.414,22.125-41.414,45.994
			v9.173v30.417v45.423c-16.862,2.607-29.813,17.218-29.813,34.799v210.673H375.3V301.326
			C375.3,283.746,362.349,269.134,345.487,266.528z M250.35,35.438c0.338-2.862,2.767-5.021,5.649-5.021s5.312,2.159,5.649,5.022
			l11.765,99.827h-34.832L250.35,35.438z M196.929,181.514h0.001c0-8.729,7.101-15.83,15.829-15.83h86.481
			c8.728,0,15.829,7.101,15.829,15.83v9.173H196.929V181.514z M196.929,221.104H315.07v45.009H196.929V221.104z M167.116,481.583
			V301.326c0-2.644,2.151-4.796,4.796-4.796h168.174c2.644,0,4.796,2.151,4.796,4.796v180.257H167.116z"/>
	</g>
</g>
<g>
	<g>
		<circle cx="256.001" cy="389.057" r="16.146"/>
	</g>
</g>
<g>
	<g>
		<path d="M328.185,383.407c-0.205-0.512-22.765-51.365-72.185-51.365s-71.98,50.852-72.185,51.365l-2.26,5.648l2.26,5.648
			c0.205,0.513,22.765,51.365,72.185,51.365s71.98-50.852,72.185-51.365l2.26-5.648L328.185,383.407z M255.999,415.652
			c-20.747,0-34.537-17.038-40.64-26.596c6.105-9.559,19.894-26.596,40.64-26.596s34.537,17.038,40.64,26.596
			C290.536,398.615,276.746,415.652,255.999,415.652z"/>
	</g>
</g>
<g>
</g>
<g>
</g>
<g>
</g>
<g>
</g>
<g>
</g>
<g>
</g>
<g>
</g>
<g>
</g>
<g>
</g>
<g>
</g>
<g>
</g>
<g>
</g>
<g>
</g>
<g>
</g>
<g>
</g>
</svg>
