<?xml version="1.0" encoding="iso-8859-1"?>
<!-- Generator: Adobe Illustrator 19.0.0, SVG Export Plug-In . SVG Version: 6.00 Build 0)  -->
<svg version="1.1" id="Layer_1" xmlns="http://www.w3.org/2000/svg" xmlns:xlink="http://www.w3.org/1999/xlink" x="0px" y="0px"
	 viewBox="0 0 485 485" style="enable-background:new 0 0 485 485;" xml:space="preserve">
<g>
	<path d="M0,0v485h485V0H0z M455,455H30V30h425V455z"/>
	<path d="M233.489,349.493l9.01,6.769l9.01-6.768c7.503-5.637,33.868-26.08,58.118-52.499
		c32.297-35.185,48.673-67.389,48.673-95.718c0-37.923-30.853-68.776-68.776-68.776c-17.711,0-34.456,6.842-47.023,18.63
		c-12.567-11.789-29.313-18.63-47.023-18.63c-37.924,0-68.776,30.853-68.776,68.776c0,28.329,16.376,60.532,48.672,95.717
		C199.622,323.412,225.986,343.856,233.489,349.493z M195.477,162.5c14.066,0,27.058,7.672,33.904,20.021l13.119,23.664
		l13.119-23.664c6.847-12.35,19.838-20.021,33.904-20.021c21.382,0,38.776,17.395,38.776,38.776
		c0,38.446-50.316,88.791-85.801,117.231c-35.483-28.441-85.799-78.787-85.799-117.231C156.7,179.895,174.095,162.5,195.477,162.5z"
		/>
</g>
<g>
</g>
<g>
</g>
<g>
</g>
<g>
</g>
<g>
</g>
<g>
</g>
<g>
</g>
<g>
</g>
<g>
</g>
<g>
</g>
<g>
</g>
<g>
</g>
<g>
</g>
<g>
</g>
<g>
</g>
</svg>
