<?xml version="1.0" encoding="iso-8859-1"?>
<!-- Generator: Adobe Illustrator 19.0.0, SVG Export Plug-In . SVG Version: 6.00 Build 0)  -->
<svg version="1.1" id="Layer_1" xmlns="http://www.w3.org/2000/svg" xmlns:xlink="http://www.w3.org/1999/xlink" x="0px" y="0px"
	 viewBox="0 0 475.943 475.943" style="enable-background:new 0 0 475.943 475.943;" xml:space="preserve">
<path d="M466.549,117.944c-7.564-8.88-18.938-13.973-31.204-13.973H210.243c-7.851-17.548-25.871-30-45.545-30H40.948
	c-12.227,0-23.62,5.071-31.258,13.913s-11.001,20.851-9.225,32.947L41.74,401.971h393.237l40.409-250.997
	C477.335,138.863,474.114,126.825,466.549,117.944z M67.657,371.971l-37.51-255.496c-0.516-3.516,0.281-6.705,2.245-8.978
	c1.964-2.273,5.002-3.525,8.557-3.525h123.75c9.078,0,18.198,7.878,19.517,16.86l12.206,83.138h154.625
	c9.314,0,19.523,8.305,21.418,17.424l31.296,150.576H67.657z M445.767,146.206l-25.442,158.035l-18.487-88.951
	c-4.815-23.17-27.126-41.32-50.791-41.32H222.338l-5.873-39.999h218.879c3.513,0,6.484,1.217,8.368,3.427
	C445.596,139.609,446.325,142.737,445.767,146.206z"/>
<g>
</g>
<g>
</g>
<g>
</g>
<g>
</g>
<g>
</g>
<g>
</g>
<g>
</g>
<g>
</g>
<g>
</g>
<g>
</g>
<g>
</g>
<g>
</g>
<g>
</g>
<g>
</g>
<g>
</g>
</svg>
