<?xml version="1.0" encoding="iso-8859-1"?>
<!-- Generator: Adobe Illustrator 19.0.0, SVG Export Plug-In . SVG Version: 6.00 Build 0)  -->
<svg version="1.1" id="Layer_1" xmlns="http://www.w3.org/2000/svg" xmlns:xlink="http://www.w3.org/1999/xlink" x="0px" y="0px"
	 viewBox="0 0 512 512" style="enable-background:new 0 0 512 512;" xml:space="preserve">
<g>
	<g>
		<path d="M453.914,206.783c-17.286-30.787-50.252-51.639-88.002-51.639c-43.595,0-80.814,27.805-94.865,66.61
			c-4.779-1.647-9.856-2.527-15.047-2.527c-5.191,0-10.268,0.878-15.047,2.527c-14.051-38.805-51.27-66.61-94.865-66.61
			c-37.75,0-70.715,20.852-88.002,51.639L0,218.199v75.602l58.086,11.415c17.286,30.787,50.252,51.639,88.002,51.639
			c55.497,0,100.665-45.058,100.85-100.513c2.396-2.344,5.639-3.721,9.062-3.721c3.424,0,6.666,1.376,9.062,3.721
			c0.185,55.454,45.353,100.513,100.85,100.513c37.75,0,70.715-20.852,88.002-51.639L512,293.801v-75.602L453.914,206.783z
			 M46.046,268.82l-12.654-2.487v-20.667l12.654-2.487c-0.535,4.198-0.811,8.478-0.811,12.82
			C45.234,260.342,45.51,264.622,46.046,268.82z M146.088,323.463c-37.199,0-67.463-30.264-67.463-67.463
			s30.264-67.463,67.463-67.463s67.463,30.264,67.463,67.463S183.287,323.463,146.088,323.463z M365.912,323.463
			c-37.199,0-67.463-30.264-67.463-67.463s30.264-67.463,67.463-67.463s67.463,30.264,67.463,67.463
			S403.111,323.463,365.912,323.463z M478.609,266.333l-12.654,2.487c0.535-4.198,0.811-8.478,0.811-12.82
			c0-4.342-0.276-8.622-0.811-12.82l12.654,2.487V266.333z"/>
	</g>
</g>
<g>
</g>
<g>
</g>
<g>
</g>
<g>
</g>
<g>
</g>
<g>
</g>
<g>
</g>
<g>
</g>
<g>
</g>
<g>
</g>
<g>
</g>
<g>
</g>
<g>
</g>
<g>
</g>
<g>
</g>
</svg>
