<?xml version="1.0" encoding="iso-8859-1"?>
<!-- Generator: Adobe Illustrator 19.0.0, SVG Export Plug-In . SVG Version: 6.00 Build 0)  -->
<svg version="1.1" id="Layer_1" xmlns="http://www.w3.org/2000/svg" xmlns:xlink="http://www.w3.org/1999/xlink" x="0px" y="0px"
	 viewBox="0 0 512 512" style="enable-background:new 0 0 512 512;" xml:space="preserve">
<g>
	<g>
		<polygon points="444.082,193.31 396.495,145.7 396.495,177.633 67.918,177.633 67.918,208.98 396.495,208.98 396.495,240.909 		
			"/>
	</g>
</g>
<g>
	<g>
		<path d="M512,94.041H0v198.531h30.079L0,322.651v95.308h114.939v-95.308l-30.079-30.079h342.281l-30.079,30.079v95.308H512
			v-95.308l-30.079-30.079H512V94.041z M83.592,386.612H31.347v-50.977l26.122-26.122l26.122,26.122V386.612z M480.653,386.612
			h-52.245v-50.977l26.122-26.122l26.122,26.122V386.612z M480.653,261.224H31.347V125.388h449.306V261.224z"/>
	</g>
</g>
<g>
</g>
<g>
</g>
<g>
</g>
<g>
</g>
<g>
</g>
<g>
</g>
<g>
</g>
<g>
</g>
<g>
</g>
<g>
</g>
<g>
</g>
<g>
</g>
<g>
</g>
<g>
</g>
<g>
</g>
</svg>
