<?xml version="1.0" encoding="iso-8859-1"?>
<!-- Generator: Adobe Illustrator 19.0.0, SVG Export Plug-In . SVG Version: 6.00 Build 0)  -->
<svg version="1.1" id="Layer_1" xmlns="http://www.w3.org/2000/svg" xmlns:xlink="http://www.w3.org/1999/xlink" x="0px" y="0px"
	 viewBox="0 0 478.945 478.945" style="enable-background:new 0 0 478.945 478.945;" xml:space="preserve">
<g>
	<path d="M278.461,151.423c32.608,0,59.138-26.529,59.138-59.138s-26.529-59.138-59.138-59.138s-59.138,26.529-59.138,59.138
		S245.853,151.423,278.461,151.423z M278.461,63.147c16.066,0,29.138,13.071,29.138,29.138c0,16.067-13.071,29.138-29.138,29.138
		s-29.138-13.071-29.138-29.138C249.323,76.218,262.395,63.147,278.461,63.147z"/>
	<path d="M123.75,150.41c41.355,0,75-33.645,75-75s-33.645-75-75-75s-75,33.645-75,75S82.395,150.41,123.75,150.41z M123.75,30.41
		c24.813,0,45,20.187,45,45s-20.187,45-45,45s-45-20.187-45-45S98.937,30.41,123.75,30.41z"/>
	<path d="M358.31,219.981c-17.411-27.072-47.244-43.558-79.849-43.558c-28.833,0-55.501,12.89-73.327,34.594
		c-21.772-19.047-50.252-30.607-81.384-30.607C55.514,180.41,0,235.924,0,304.16v15h223.59c-2.286,9.616-3.504,19.641-3.504,29.946
		c0,71.368,58.062,129.43,129.43,129.43s129.43-58.062,129.43-129.43C478.945,280.694,425.591,224.518,358.31,219.981z
		 M31.199,289.16c7.201-44.588,45.962-78.75,92.551-78.75s85.35,34.162,92.551,78.75H31.199z M225.478,233.78
		c12.099-17.068,31.681-27.357,52.983-27.357c16.198,0,31.397,5.954,43.073,16.309c-31.87,7.052-59.365,25.879-77.659,51.674
		C240.219,259.647,233.907,245.927,225.478,233.78z M349.516,448.536c-54.826,0-99.43-44.604-99.43-99.43s44.604-99.43,99.43-99.43
		s99.43,44.604,99.43,99.43S404.342,448.536,349.516,448.536z"/>
	<rect x="287.899" y="334.106" width="123.231" height="30"/>
</g>
<g>
</g>
<g>
</g>
<g>
</g>
<g>
</g>
<g>
</g>
<g>
</g>
<g>
</g>
<g>
</g>
<g>
</g>
<g>
</g>
<g>
</g>
<g>
</g>
<g>
</g>
<g>
</g>
<g>
</g>
</svg>
