<?xml version="1.0" encoding="iso-8859-1"?>
<!-- Generator: Adobe Illustrator 19.0.0, SVG Export Plug-In . SVG Version: 6.00 Build 0)  -->
<svg version="1.1" id="Layer_1" xmlns="http://www.w3.org/2000/svg" xmlns:xlink="http://www.w3.org/1999/xlink" x="0px" y="0px"
	 viewBox="0 0 511.998 511.998" style="enable-background:new 0 0 511.998 511.998;" xml:space="preserve">
<g>
	<g>
		<g>
			<path d="M225.647,233.227c-13.4,0-25.982,5.29-35.43,14.896c-19.327,19.646-19.327,51.612-0.002,71.257
				c9.448,9.608,22.031,14.899,35.432,14.899c13.4,0,25.984-5.291,35.43-14.897c19.327-19.646,19.327-51.612,0.001-71.257
				C251.631,238.518,239.047,233.227,225.647,233.227z M237.27,295.967c-3.12,3.173-7.248,4.921-11.623,4.921
				s-8.504-1.747-11.626-4.923c-6.625-6.734-6.625-17.692,0-24.424l0.001-0.002c3.12-3.173,7.248-4.92,11.625-4.92
				c4.375,0,8.504,1.747,11.626,4.922C243.897,278.275,243.897,289.231,237.27,295.967z"/>
			
				<rect x="89.962" y="360.446" transform="matrix(-0.7012 -0.713 0.713 -0.7012 -41.2585 736.9923)" width="87.698" height="33.392"/>
			<path d="M487.484,133.99l23.632-23.59l-15.06-15.087l9.118-7.645L422.739,5.089l-7.636,9.129L400.909,0l-23.632,23.59
				l16.314,16.343l-6.437,7.694l-16.904-16.934L346.62,54.284l19.024,19.057L351.06,90.776l4.635,4.642l-80.173,82.431
				c-15.779-8.358-32.586-12.644-48.91-12.167c-25.186,0.727-48.491,11.269-67.397,30.49c-9.22,9.374-15.968,21.357-20.053,35.617
				c-1.549,5.408-6.782,9.426-12.444,9.552c-25.976,0.575-62.501,6.914-88.984,33.842c-26.813,27.26-39.408,60.934-36.422,97.379
				c2.707,33.059,18.694,66.038,45.032,92.896c0,0,0,0,0,0.001l0.195,0.198c26.475,26.837,59.024,43.134,91.686,45.899
				c3.479,0.295,6.926,0.441,10.351,0.441c32.064-0.001,61.581-12.871,85.884-37.584c26.398-26.841,32.608-63.811,33.171-90.098
				c0.127-5.937,4.055-11.383,9.337-12.947c14.108-4.177,25.951-11.064,35.203-20.47c18.835-19.149,29.164-42.716,29.872-68.152
				c0.412-14.679-2.873-29.75-9.375-44.145l81.9-84.207l5.02,5.028l17.413-14.601l19.823,19.858l23.631-23.59l-17.767-17.799
				l7.685-6.443L487.484,133.99z M308.668,281.817c-0.469,16.854-7.488,32.645-20.299,45.67
				c-5.237,5.324-12.261,9.316-20.878,11.868c-19.134,5.666-32.803,23.861-33.241,44.25c-0.433,20.243-4.877,48.367-23.594,67.398
				c-19.705,20.037-43.77,29.476-69.611,27.284c-24.758-2.096-49.896-14.93-70.795-36.142
				c-20.921-21.31-33.582-46.984-35.656-72.307c-2.169-26.476,7.149-51.109,26.949-71.238
				c18.623-18.937,46.125-23.435,65.918-23.873c20.232-0.449,38.244-14.324,43.803-33.739c2.533-8.841,6.49-16.04,11.758-21.398
				c12.744-12.957,28.151-20.055,44.552-20.528c8.824-0.244,31.886,1.756,55.569,25.835
				C306.943,249.094,308.922,272.762,308.668,281.817z M314.308,209.594c-2.323-2.773-4.772-5.483-7.358-8.112
				c-1.32-1.342-2.662-2.646-4.021-3.919l76.358-78.51l11.69,11.711L314.308,209.594z M421.596,114.171l-25.339-25.384
				l28.657-34.257l30.898,30.952L421.596,114.171z"/>
		</g>
	</g>
</g>
<g>
</g>
<g>
</g>
<g>
</g>
<g>
</g>
<g>
</g>
<g>
</g>
<g>
</g>
<g>
</g>
<g>
</g>
<g>
</g>
<g>
</g>
<g>
</g>
<g>
</g>
<g>
</g>
<g>
</g>
</svg>
