<?xml version="1.0" encoding="iso-8859-1"?>
<!-- Generator: Adobe Illustrator 19.0.0, SVG Export Plug-In . SVG Version: 6.00 Build 0)  -->
<svg version="1.1" id="Layer_1" xmlns="http://www.w3.org/2000/svg" xmlns:xlink="http://www.w3.org/1999/xlink" x="0px" y="0px"
	 viewBox="0 0 512 512" style="enable-background:new 0 0 512 512;" xml:space="preserve">
<g>
	<g>
		<path d="M450.861,239.304c-3.517-41.405-19.987-79.169-45.333-109.221l43.298-43.299l-23.611-23.611l-43.298,43.299
			c-30.052-25.346-67.815-41.816-109.221-45.333V0h-33.391v61.139c-41.405,3.517-79.169,19.987-109.221,45.333L86.786,63.175
			L63.175,86.786l43.299,43.298c-25.347,30.051-41.817,67.814-45.334,109.22H0v33.391h61.139
			c3.517,41.405,19.987,79.169,45.333,109.221l-43.299,43.298l23.611,23.611l43.299-43.298
			c30.052,25.346,67.815,41.816,109.221,45.333V512h33.391v-61.139c41.405-3.517,79.169-19.987,109.221-45.333l43.298,43.298
			l23.611-23.611l-43.298-43.298c25.347-30.052,41.816-67.816,45.333-109.221H512v-33.391H450.861z M272.696,94.665
			c32.219,3.31,61.668,16.096,85.52,35.508l-72.277,72.277c-4.143-2.325-8.58-4.178-13.243-5.498V94.665z M239.304,94.665v102.286
			c-4.663,1.32-9.1,3.173-13.243,5.498l-72.277-72.277C177.636,110.761,207.085,97.976,239.304,94.665z M130.174,153.785
			l72.277,72.277c-2.325,4.143-4.178,8.58-5.498,13.243H94.665C97.976,207.085,110.761,177.636,130.174,153.785z M94.665,272.696
			h102.286c1.32,4.663,3.173,9.1,5.498,13.243l-72.277,72.277C110.761,334.364,97.976,304.915,94.665,272.696z M239.304,417.335
			c-32.219-3.31-61.668-16.096-85.52-35.508l72.277-72.277c4.143,2.325,8.58,4.178,13.243,5.498V417.335z M256,283.984
			c-15.43,0-27.984-12.553-27.984-27.984s12.553-27.984,27.984-27.984s27.984,12.553,27.984,27.984S271.43,283.984,256,283.984z
			 M272.696,417.335V315.048c4.663-1.32,9.1-3.173,13.243-5.498l72.277,72.277C334.364,401.239,304.915,414.024,272.696,417.335z
			 M381.826,358.215l-72.277-72.277c2.325-4.143,4.178-8.58,5.498-13.243h102.286C414.024,304.915,401.239,334.364,381.826,358.215z
			 M315.048,239.304c-1.32-4.663-3.173-9.1-5.498-13.243l72.277-72.277c19.413,23.851,32.198,53.3,35.508,85.52H315.048z"/>
	</g>
</g>
<g>
</g>
<g>
</g>
<g>
</g>
<g>
</g>
<g>
</g>
<g>
</g>
<g>
</g>
<g>
</g>
<g>
</g>
<g>
</g>
<g>
</g>
<g>
</g>
<g>
</g>
<g>
</g>
<g>
</g>
</svg>
