<?xml version="1.0" encoding="iso-8859-1"?>
<!-- Generator: Adobe Illustrator 19.0.0, SVG Export Plug-In . SVG Version: 6.00 Build 0)  -->
<svg version="1.1" id="Layer_1" xmlns="http://www.w3.org/2000/svg" xmlns:xlink="http://www.w3.org/1999/xlink" x="0px" y="0px"
	 viewBox="0 0 512 512" style="enable-background:new 0 0 512 512;" xml:space="preserve">
<g>
	<g>
		<path d="M412.735,0H99.265C44.53,0,0,44.53,0,99.265v313.469C0,467.47,44.53,512,99.265,512h313.469
			C467.47,512,512,467.47,512,412.735V99.265C512,44.53,467.47,0,412.735,0z M412.735,31.347c37.45,0,67.918,30.468,67.918,67.918
			v33.779c-11.564-21.059-26.174-40.605-43.634-58.064c-17.459-17.46-37.005-32.07-58.063-43.634H412.735z M372.07,224.887
			l96.984-40.172c7.517,22.408,11.598,46.378,11.598,71.285s-4.081,48.877-11.598,71.286l-96.984-40.172
			c2.663-9.929,4.093-20.357,4.093-31.114C376.163,245.243,374.734,234.815,372.07,224.887z M457.013,155.772l-96.969,40.166
			c-10.559-18.22-25.763-33.424-43.983-43.983l40.166-96.97C399.737,76.769,435.231,112.262,457.013,155.772z M344.816,256
			c0,48.973-39.843,88.816-88.816,88.816S167.184,304.973,167.184,256s39.843-88.816,88.816-88.816S344.816,207.027,344.816,256z
			 M256,31.347c24.907,0,48.877,4.081,71.285,11.598l-40.172,96.984c-9.928-2.663-20.356-4.093-31.113-4.093
			c-10.757,0-21.185,1.429-31.113,4.093l-40.172-96.984C207.123,35.428,231.093,31.347,256,31.347z M195.938,151.955
			c-18.22,10.559-33.424,25.763-43.983,43.983l-96.97-40.166c21.783-43.511,57.277-79.004,100.787-100.787L195.938,151.955z
			 M31.347,99.265c0-37.45,30.468-67.918,67.918-67.918h33.778C111.986,42.911,92.44,57.521,74.98,74.981
			c-17.46,17.46-32.069,37.005-43.633,58.064V99.265z M42.945,184.714l96.984,40.172c-2.663,9.929-4.093,20.357-4.093,31.114
			c0,10.757,1.429,21.185,4.093,31.113l-96.984,40.173C35.428,304.877,31.347,280.907,31.347,256S35.428,207.123,42.945,184.714z
			 M99.265,480.653c-37.45,0-67.918-30.468-67.918-67.918v-33.779c11.564,21.058,26.174,40.604,43.634,58.064
			c17.46,17.46,37.006,32.07,58.064,43.634H99.265z M54.987,356.228l96.969-40.166c10.559,18.22,25.763,33.424,43.983,43.983
			l-40.166,96.97C112.263,435.231,76.769,399.738,54.987,356.228z M256,480.653c-24.907,0-48.877-4.081-71.285-11.598l40.172-96.984
			c9.928,2.663,20.356,4.093,31.113,4.093c10.757,0,21.185-1.429,31.113-4.093l40.172,96.984
			C304.877,476.572,280.907,480.653,256,480.653z M316.062,360.045c18.22-10.559,33.424-25.763,43.983-43.983l96.97,40.166
			c-21.783,43.511-57.277,79.004-100.787,100.787L316.062,360.045z M480.654,412.735h-0.001c0,37.45-30.468,67.918-67.918,67.918
			h-33.778c21.058-11.564,40.604-26.174,58.064-43.634c17.459-17.459,32.07-37.006,43.634-58.064V412.735z"/>
	</g>
</g>
<g>
</g>
<g>
</g>
<g>
</g>
<g>
</g>
<g>
</g>
<g>
</g>
<g>
</g>
<g>
</g>
<g>
</g>
<g>
</g>
<g>
</g>
<g>
</g>
<g>
</g>
<g>
</g>
<g>
</g>
</svg>
