<?xml version="1.0" encoding="iso-8859-1"?>
<!-- Generator: Adobe Illustrator 19.0.0, SVG Export Plug-In . SVG Version: 6.00 Build 0)  -->
<svg version="1.1" id="Layer_1" xmlns="http://www.w3.org/2000/svg" xmlns:xlink="http://www.w3.org/1999/xlink" x="0px" y="0px"
	 viewBox="0 0 495 495" style="enable-background:new 0 0 495 495;" xml:space="preserve">
<g>
	<polygon points="86.689,146.064 151.071,146.064 151.071,237.348 181.071,237.348 181.071,24.847 151.071,24.847 151.071,116.064 
		86.689,116.064 86.689,24.847 56.689,24.847 56.689,237.348 86.689,237.348 	"/>
	<path d="M151.175,312.82c0,19.688-14.879,35.704-33.169,35.704H86.689v-91.177h-30v212.5h30v-91.323h31.317
		c18.29,0,33.169,16.022,33.169,35.716v55.606h30V414.24c0-20.397-8.979-38.652-23.04-50.715
		c14.061-12.061,23.04-30.313,23.04-50.706v-55.473h-30V312.82z"/>
	<path d="M358.803,242.611l-19.321-6.103V61.371c39.087,7.094,68.829,41.357,68.829,82.458h30
		c0-57.681-43.127-105.474-98.829-112.84V0h-30v30.99c-55.702,7.365-98.83,55.158-98.83,112.84c0,54.59,27.494,92.129,79.508,108.56
		l19.321,6.103v175.137c-39.087-7.094-68.83-41.357-68.83-82.458h-30c0,57.681,43.128,105.474,98.83,112.84V495h30v-30.99
		c55.702-7.365,98.829-55.158,98.829-112.84C438.311,296.581,410.817,259.042,358.803,242.611z M299.197,223.783
		c-39.942-12.618-58.545-38.023-58.545-79.954c0-41.102,29.742-75.365,68.83-82.458v165.661L299.197,223.783z M339.481,433.629
		v-165.66l10.284,3.249c39.942,12.617,58.545,38.022,58.545,79.953C408.311,392.273,378.569,426.535,339.481,433.629z"/>
</g>
<g>
</g>
<g>
</g>
<g>
</g>
<g>
</g>
<g>
</g>
<g>
</g>
<g>
</g>
<g>
</g>
<g>
</g>
<g>
</g>
<g>
</g>
<g>
</g>
<g>
</g>
<g>
</g>
<g>
</g>
</svg>
