<?xml version="1.0" encoding="iso-8859-1"?>
<!-- Generator: Adobe Illustrator 19.0.0, SVG Export Plug-In . SVG Version: 6.00 Build 0)  -->
<svg version="1.1" id="Layer_1" xmlns="http://www.w3.org/2000/svg" xmlns:xlink="http://www.w3.org/1999/xlink" x="0px" y="0px"
	 viewBox="0 0 512 512" style="enable-background:new 0 0 512 512;" xml:space="preserve">
<g>
	<g>
		<path d="M53.333,42.667V416H512V42.667H53.333z M480,384H85.333v-41.373L176,251.961l85.333,85.333l128-128L480,299.961V384z
			 M480,254.706l-90.667-90.667l-128,128L176,206.706l-90.667,90.667V74.667H480V254.706z"/>
	</g>
</g>
<g>
	<g>
		<polygon points="32,437.333 32,112 0,112 0,469.333 442.667,469.333 442.667,437.333 		"/>
	</g>
</g>
<g>
	<g>
		<path d="M261.333,106.667c-26.468,0-48,21.533-48,48c0,26.467,21.532,48,48,48s48-21.532,48-48S287.802,106.667,261.333,106.667z
			 M261.333,170.667c-8.822,0-16-7.178-16-16s7.178-16,16-16c8.822,0,16,7.178,16,16S270.156,170.667,261.333,170.667z"/>
	</g>
</g>
<g>
</g>
<g>
</g>
<g>
</g>
<g>
</g>
<g>
</g>
<g>
</g>
<g>
</g>
<g>
</g>
<g>
</g>
<g>
</g>
<g>
</g>
<g>
</g>
<g>
</g>
<g>
</g>
<g>
</g>
</svg>
