<?xml version="1.0" encoding="iso-8859-1"?>
<!-- Generator: Adobe Illustrator 19.0.0, SVG Export Plug-In . SVG Version: 6.00 Build 0)  -->
<svg version="1.1" id="Layer_1" xmlns="http://www.w3.org/2000/svg" xmlns:xlink="http://www.w3.org/1999/xlink" x="0px" y="0px"
	 viewBox="0 0 512 512" style="enable-background:new 0 0 512 512;" xml:space="preserve">
<g>
	<g>
		<path d="M0,47.628v416.744h512V47.628H0z M476.279,428.651H35.721v-46.184L136.93,281.258l95.256,95.256L375.07,233.63
			L476.279,334.84V428.651z M476.279,284.323L375.07,183.114L232.186,325.998l-95.256-95.256L35.721,331.951V83.349h440.558V284.323
			z"/>
	</g>
</g>
<g>
	<g>
		<path d="M232.186,119.07c-29.545,0-53.581,24.037-53.581,53.581c0,29.545,24.037,53.581,53.581,53.581
			c29.546,0,53.581-24.035,53.581-53.581S261.732,119.07,232.186,119.07z M232.186,190.512c-9.848,0-17.86-8.012-17.86-17.86
			c0-9.848,8.012-17.86,17.86-17.86s17.86,8.012,17.86,17.86C250.047,182.499,242.034,190.512,232.186,190.512z"/>
	</g>
</g>
<g>
</g>
<g>
</g>
<g>
</g>
<g>
</g>
<g>
</g>
<g>
</g>
<g>
</g>
<g>
</g>
<g>
</g>
<g>
</g>
<g>
</g>
<g>
</g>
<g>
</g>
<g>
</g>
<g>
</g>
</svg>
