<?xml version="1.0" encoding="iso-8859-1"?>
<!-- Generator: Adobe Illustrator 19.0.0, SVG Export Plug-In . SVG Version: 6.00 Build 0)  -->
<svg version="1.1" id="Layer_1" xmlns="http://www.w3.org/2000/svg" xmlns:xlink="http://www.w3.org/1999/xlink" x="0px" y="0px"
	 viewBox="0 0 512 512" style="enable-background:new 0 0 512 512;" xml:space="preserve">
<g>
	<g>
		<rect x="141.061" y="232.49" width="31.347" height="31.347"/>
	</g>
</g>
<g>
	<g>
		<rect x="193.306" y="232.49" width="31.347" height="31.347"/>
	</g>
</g>
<g>
	<g>
		<rect x="350.041" y="232.49" width="31.347" height="31.347"/>
	</g>
</g>
<g>
	<g>
		<rect x="297.796" y="232.49" width="31.347" height="31.347"/>
	</g>
</g>
<g>
	<g>
		<rect x="245.551" y="232.49" width="31.347" height="31.347"/>
	</g>
</g>
<g>
	<g>
		<rect x="88.816" y="232.49" width="31.347" height="31.347"/>
	</g>
</g>
<g>
	<g>
		<rect x="402.286" y="232.49" width="31.347" height="31.347"/>
	</g>
</g>
<g>
	<g>
		<rect x="339.592" y="295.184" width="31.347" height="31.347"/>
	</g>
</g>
<g>
	<g>
		<rect x="391.837" y="295.184" width="31.347" height="31.347"/>
	</g>
</g>
<g>
	<g>
		<rect x="130.612" y="295.184" width="31.347" height="31.347"/>
	</g>
</g>
<g>
	<g>
		<rect x="78.367" y="295.184" width="31.347" height="31.347"/>
	</g>
</g>
<g>
	<g>
		<rect x="287.347" y="295.184" width="31.347" height="31.347"/>
	</g>
</g>
<g>
	<g>
		<rect x="182.857" y="295.184" width="31.347" height="31.347"/>
	</g>
</g>
<g>
	<g>
		<rect x="235.102" y="295.184" width="31.347" height="31.347"/>
	</g>
</g>
<g>
	<g>
		<rect x="88.816" y="357.878" width="31.347" height="31.347"/>
	</g>
</g>
<g>
	<g>
		<rect x="141.061" y="357.878" width="31.347" height="31.347"/>
	</g>
</g>
<g>
	<g>
		<rect x="402.286" y="357.878" width="31.347" height="31.347"/>
	</g>
</g>
<g>
	<g>
		<path d="M272.738,169.796c2.55-17.248,9.376-27.07,17.027-38.07c11.11-15.972,23.704-34.076,23.704-71.644h-31.347
			c0,27.738-8.383,39.789-18.091,53.743c-9.441,13.571-19.948,28.69-22.895,55.971H0v282.122h512V169.796H272.738z M480.653,420.571
			H31.347V201.143h449.306V420.571z"/>
	</g>
</g>
<g>
	<g>
		<rect x="193.306" y="357.878" width="188.082" height="31.347"/>
	</g>
</g>
<g>
</g>
<g>
</g>
<g>
</g>
<g>
</g>
<g>
</g>
<g>
</g>
<g>
</g>
<g>
</g>
<g>
</g>
<g>
</g>
<g>
</g>
<g>
</g>
<g>
</g>
<g>
</g>
<g>
</g>
</svg>
