<?xml version="1.0" encoding="iso-8859-1"?>
<!-- Generator: Adobe Illustrator 19.0.0, SVG Export Plug-In . SVG Version: 6.00 Build 0)  -->
<svg version="1.1" id="Layer_1" xmlns="http://www.w3.org/2000/svg" xmlns:xlink="http://www.w3.org/1999/xlink" x="0px" y="0px"
	 viewBox="0 0 489.801 489.801" style="enable-background:new 0 0 489.801 489.801;" xml:space="preserve">
<g>
	<path d="M39.92,404.094c0,14.24-11.586,25.826-25.826,25.826H0v30h14.094c30.782,0,55.826-25.043,55.826-55.826V54.9h132.735v410
		h30v-440H39.92V404.094z"/>
	<path d="M421.913,236.638c28.93-21.001,47.907-55.983,47.907-95.509C469.82,77.04,419.954,24.9,358.659,24.9h-96.523v435H378.64
		c61.295,0,111.161-52.128,111.161-116.203C489.801,295.65,461.771,254.318,421.913,236.638z M292.136,54.9h66.523
		c44.752,0,81.161,38.682,81.161,86.228c0,47.533-36.409,86.203-81.161,86.203v0.138h-66.523V54.9z M378.64,429.9h-86.504V257.469
		h86.504c44.752,0,81.161,38.682,81.161,86.228C459.801,391.23,423.392,429.9,378.64,429.9z"/>
</g>
<g>
</g>
<g>
</g>
<g>
</g>
<g>
</g>
<g>
</g>
<g>
</g>
<g>
</g>
<g>
</g>
<g>
</g>
<g>
</g>
<g>
</g>
<g>
</g>
<g>
</g>
<g>
</g>
<g>
</g>
</svg>
