<?xml version="1.0" encoding="iso-8859-1"?>
<!-- Generator: Adobe Illustrator 19.0.0, SVG Export Plug-In . SVG Version: 6.00 Build 0)  -->
<svg version="1.1" id="Layer_1" xmlns="http://www.w3.org/2000/svg" xmlns:xlink="http://www.w3.org/1999/xlink" x="0px" y="0px"
	 viewBox="0 0 512 512" style="enable-background:new 0 0 512 512;" xml:space="preserve">
<g>
	<g>
		<path d="M432.356,176.356C432.356,79.113,353.242,0,256,0S79.644,79.113,79.644,176.356c0,60.845,29.686,92.181,55.877,119.826
			c21.753,22.961,40.914,43.201,45.486,79.285h-16.03V409.6h17.067v28.444C182.044,478.824,215.221,512,256,512
			s73.956-33.176,73.956-73.956V409.6h17.065v-34.133h-16.029c4.572-36.083,23.733-56.323,45.486-79.285
			C402.67,268.536,432.356,237.201,432.356,176.356z M295.822,438.044c0,21.958-17.864,39.822-39.822,39.822
			s-39.822-17.864-39.822-39.822V409.6h79.644V438.044z M296.656,375.467h-23.59V240.313l52.698-52.698l-24.136-24.136L256,209.109
			l-45.631-45.629l-24.136,24.136l52.7,52.698v135.153h-23.59c-4.964-49.88-31.421-77.825-55.042-102.76
			c-24.964-26.351-46.524-49.108-46.524-96.352c0-78.421,63.801-142.222,142.222-142.222s142.222,63.801,142.222,142.222
			c0,47.244-21.56,70.001-46.523,96.352C328.077,297.642,301.621,325.586,296.656,375.467z"/>
	</g>
</g>
<g>
</g>
<g>
</g>
<g>
</g>
<g>
</g>
<g>
</g>
<g>
</g>
<g>
</g>
<g>
</g>
<g>
</g>
<g>
</g>
<g>
</g>
<g>
</g>
<g>
</g>
<g>
</g>
<g>
</g>
</svg>
