<?xml version="1.0" encoding="iso-8859-1"?>
<!-- Generator: Adobe Illustrator 19.0.0, SVG Export Plug-In . SVG Version: 6.00 Build 0)  -->
<svg version="1.1" id="Layer_1" xmlns="http://www.w3.org/2000/svg" xmlns:xlink="http://www.w3.org/1999/xlink" x="0px" y="0px"
	 viewBox="0 0 382.136 382.136" style="enable-background:new 0 0 382.136 382.136;" xml:space="preserve">
<g>
	<path d="M289.141,297.203l-79.93-80.314v165.246h164.456l-63.322-63.626c16.806-14.794,30.909-32.669,41.26-52.464
		c13.484-25.785,20.611-54.891,20.611-84.171C372.217,81.588,290.628,0,190.343,0S8.469,81.588,8.469,181.874
		c0,34.777,9.851,68.584,28.488,97.768c18.133,28.394,43.703,51.175,73.944,65.881l13.119-26.979
		c-52.77-25.66-85.551-78.029-85.551-136.669C38.469,98.13,106.599,30,190.343,30s151.874,68.13,151.874,151.874
		C342.217,226.255,322.579,268.484,289.141,297.203z M239.211,352.136v-62.573l62.274,62.573H239.211z"/>
</g>
<g>
</g>
<g>
</g>
<g>
</g>
<g>
</g>
<g>
</g>
<g>
</g>
<g>
</g>
<g>
</g>
<g>
</g>
<g>
</g>
<g>
</g>
<g>
</g>
<g>
</g>
<g>
</g>
<g>
</g>
</svg>
