<?xml version="1.0" encoding="iso-8859-1"?>
<!-- Generator: Adobe Illustrator 19.0.0, SVG Export Plug-In . SVG Version: 6.00 Build 0)  -->
<svg version="1.1" id="Layer_1" xmlns="http://www.w3.org/2000/svg" xmlns:xlink="http://www.w3.org/1999/xlink" x="0px" y="0px"
	 viewBox="0 0 485 485" style="enable-background:new 0 0 485 485;" xml:space="preserve">
<g>
	<polygon points="209.537,384.175 242.5,351.213 275.463,384.175 296.676,362.962 263.713,330 296.676,297.038 275.463,275.825 
		242.5,308.787 209.537,275.825 188.324,297.038 221.287,330 188.324,362.962 	"/>
	<path d="M345,175v-72.5C345,45.981,299.019,0,242.5,0S140,45.981,140,102.5V175H70v310h345V175H345z M170,102.5
		c0-39.977,32.523-72.5,72.5-72.5S315,62.523,315,102.5V175H170V102.5z M385,455H100V205h285V455z"/>
</g>
<g>
</g>
<g>
</g>
<g>
</g>
<g>
</g>
<g>
</g>
<g>
</g>
<g>
</g>
<g>
</g>
<g>
</g>
<g>
</g>
<g>
</g>
<g>
</g>
<g>
</g>
<g>
</g>
<g>
</g>
</svg>
