<?xml version="1.0" encoding="iso-8859-1"?>
<!-- Generator: Adobe Illustrator 19.0.0, SVG Export Plug-In . SVG Version: 6.00 Build 0)  -->
<svg version="1.1" id="Capa_1" xmlns="http://www.w3.org/2000/svg" xmlns:xlink="http://www.w3.org/1999/xlink" x="0px" y="0px"
	 viewBox="0 0 485 485" style="enable-background:new 0 0 485 485;" xml:space="preserve">
<g>
	<path d="M242.5,180.923c-64.535,0-117.039,52.503-117.039,117.039S177.964,415,242.5,415v-30
		c-47.993,0-87.039-39.045-87.039-87.039s39.045-87.039,87.039-87.039s87.038,39.045,87.038,87.039h30
		C359.538,233.427,307.035,180.923,242.5,180.923z"/>
	<path d="M369.627,160.905L436.276,0L295.564,0L249.558,111.07c-2.343-0.087-4.694-0.147-7.058-0.147
		c-2.364,0-4.714,0.059-7.058,0.147L189.436,0L48.725,0l66.648,160.904c-36.825,34.181-59.912,82.971-59.912,137.058
		C55.461,401.095,139.366,485,242.5,485c103.133,0,187.038-83.905,187.038-187.039C429.538,243.875,406.452,195.086,369.627,160.905
		z M315.609,30l75.769,0l-46.256,111.671c-19.353-12.751-41.197-22.013-64.638-26.868L315.609,30z M93.623,30l75.767,0
		l35.127,84.803c-23.441,4.855-45.285,14.117-64.638,26.867L93.623,30z M242.5,455c-86.591,0-157.039-70.447-157.039-157.039
		S155.908,140.923,242.5,140.923c86.591,0,157.038,70.447,157.038,157.039S329.09,455,242.5,455z"/>
</g>
<g>
</g>
<g>
</g>
<g>
</g>
<g>
</g>
<g>
</g>
<g>
</g>
<g>
</g>
<g>
</g>
<g>
</g>
<g>
</g>
<g>
</g>
<g>
</g>
<g>
</g>
<g>
</g>
<g>
</g>
</svg>
