<?xml version="1.0" encoding="iso-8859-1"?>
<!-- Generator: Adobe Illustrator 19.0.0, SVG Export Plug-In . SVG Version: 6.00 Build 0)  -->
<svg version="1.1" id="Capa_1" xmlns="http://www.w3.org/2000/svg" xmlns:xlink="http://www.w3.org/1999/xlink" x="0px" y="0px"
	 viewBox="0 0 461.857 461.857" style="enable-background:new 0 0 461.857 461.857;" xml:space="preserve">
<g>
	<path d="M379.16,148.23C379.16,66.496,312.664,0,230.929,0S82.698,66.496,82.698,148.23c0,57.944,33.424,108.221,82,132.585
		l-22.319,181.042l88.55-50.6l88.55,50.6l-22.319-181.042C345.735,256.451,379.16,206.175,379.16,148.23z M282.378,406.105
		l-51.449-29.4l-51.449,29.4l14.104-114.411c11.935,3.109,24.45,4.768,37.345,4.768s25.41-1.659,37.345-4.768L282.378,406.105z
		 M230.929,266.462c-65.193,0-118.231-53.038-118.231-118.231C112.698,83.038,165.736,30,230.929,30S349.16,83.038,349.16,148.23
		C349.16,213.424,296.122,266.462,230.929,266.462z"/>
	<path d="M230.929,70c-43.137,0-78.231,35.094-78.231,78.23s35.094,78.231,78.231,78.231s78.231-35.095,78.231-78.231
		S274.065,70,230.929,70z M230.929,196.462c-26.595,0-48.231-21.637-48.231-48.231S204.334,100,230.929,100
		s48.231,21.636,48.231,48.23S257.523,196.462,230.929,196.462z"/>
</g>
<g>
</g>
<g>
</g>
<g>
</g>
<g>
</g>
<g>
</g>
<g>
</g>
<g>
</g>
<g>
</g>
<g>
</g>
<g>
</g>
<g>
</g>
<g>
</g>
<g>
</g>
<g>
</g>
<g>
</g>
</svg>
