<?xml version="1.0" encoding="iso-8859-1"?>
<!-- Generator: Adobe Illustrator 19.0.0, SVG Export Plug-In . SVG Version: 6.00 Build 0)  -->
<svg version="1.1" id="Capa_1" xmlns="http://www.w3.org/2000/svg" xmlns:xlink="http://www.w3.org/1999/xlink" x="0px" y="0px"
	 viewBox="0 0 479.886 479.886" style="enable-background:new 0 0 479.886 479.886;" xml:space="preserve">
<g>
	<path d="M426.981,187.038c0-25.991-13.769-49.696-35.417-62.804c6.039-24.576-0.986-51.074-19.365-69.452
		c-13.856-13.856-32.28-21.487-51.879-21.487c-5.907,0-11.824,0.726-17.565,2.135C289.648,13.773,265.94,0,239.943,0
		c-25.998,0-49.706,13.773-62.812,35.43c-5.741-1.409-11.659-2.135-17.566-2.135c-19.598,0-38.022,7.631-51.878,21.487
		c-18.379,18.379-25.404,44.876-19.366,69.452c-21.647,13.108-35.416,36.813-35.416,62.804s13.769,49.695,35.416,62.804
		c-6.039,24.575,0.987,51.073,19.366,69.452c12.76,12.761,29.398,20.224,47.256,21.328v139.264l85-24.285l85,24.285V340.622
		c17.858-1.103,34.496-8.567,47.256-21.328c18.379-18.379,25.404-44.877,19.366-69.452
		C413.212,236.733,426.981,213.029,426.981,187.038z M239.943,424.399l-55,15.715v-90.866c13.664,15.445,33.549,24.828,55,24.828
		c21.45,0,41.336-9.383,55-24.828v90.866L239.943,424.399z M367.975,227.979l-15.792,5.55l7.242,15.091
		c7.956,16.58,4.564,36.457-8.439,49.461c-8.19,8.19-19.081,12.7-30.666,12.7c-6.487,0-12.986-1.474-18.795-4.261l-15.091-7.242
		l-5.55,15.792c-6.098,17.35-22.551,29.006-40.941,29.006s-34.844-11.656-40.941-29.006l-5.55-15.792l-15.091,7.242
		c-5.809,2.787-12.308,4.261-18.795,4.261c-11.585,0-22.475-4.511-30.666-12.7c-13.004-13.005-16.396-32.881-8.439-49.46
		l7.242-15.092l-15.792-5.55c-17.349-6.098-29.006-22.551-29.006-40.941s11.657-34.844,29.005-40.941l15.792-5.55l-7.242-15.091
		c-7.956-16.58-4.564-36.457,8.44-49.461c8.19-8.189,19.081-12.7,30.666-12.7c6.487,0,12.986,1.474,18.795,4.261l15.091,7.242
		l5.55-15.792C205.099,41.656,221.552,30,239.943,30s34.844,11.656,40.941,29.006l5.55,15.792l15.091-7.242
		c5.81-2.787,12.309-4.261,18.795-4.261c11.585,0,22.476,4.511,30.666,12.7c13.004,13.004,16.396,32.881,8.439,49.461l-7.241,15.091
		l15.791,5.55c17.35,6.098,29.006,22.551,29.006,40.941S385.325,221.882,367.975,227.979z"/>
	<path d="M239.943,70c-64.535,0-117.039,52.503-117.039,117.038s52.503,117.038,117.039,117.038s117.038-52.503,117.038-117.038
		S304.478,70,239.943,70z M239.943,274.076c-47.993,0-87.039-39.045-87.039-87.038S191.95,100,239.943,100
		s87.038,39.045,87.038,87.038S287.936,274.076,239.943,274.076z"/>
</g>
<g>
</g>
<g>
</g>
<g>
</g>
<g>
</g>
<g>
</g>
<g>
</g>
<g>
</g>
<g>
</g>
<g>
</g>
<g>
</g>
<g>
</g>
<g>
</g>
<g>
</g>
<g>
</g>
<g>
</g>
</svg>
