<?xml version="1.0" encoding="iso-8859-1"?>
<!-- Generator: Adobe Illustrator 19.0.0, SVG Export Plug-In . SVG Version: 6.00 Build 0)  -->
<svg version="1.1" id="Layer_1" xmlns="http://www.w3.org/2000/svg" xmlns:xlink="http://www.w3.org/1999/xlink" x="0px" y="0px"
	 viewBox="0 0 511.999 511.999" style="enable-background:new 0 0 511.999 511.999;" xml:space="preserve">
<g>
	<g>
		<path d="M390.635,162.048h-2.544v-25.59h18.618V39.326C406.71,17.641,389.068,0,367.384,0H144.615
			c-21.685,0-39.326,17.641-39.326,39.326v97.131h18.618v25.59h-2.544c-19.769,0-35.852,16.084-35.852,35.853v314.098h340.976
			V197.901C426.488,178.131,410.404,162.048,390.635,162.048z M135.706,39.326c0-4.912,3.997-8.909,8.909-8.909h222.769
			c4.912,0,8.909,3.997,8.909,8.909v66.714H135.706V39.326z M357.675,136.458v25.59h-203.35v-25.59H357.675z M396.07,481.583
			H115.929V197.902c0-2.997,2.437-5.436,5.435-5.436h2.544h264.185h2.544c2.997,0,5.435,2.438,5.435,5.436V481.583z"/>
	</g>
</g>
<g>
	<g>
		<path d="M315.361,277.663V227.61H196.637v50.052h-50.052v118.725h50.052v50.052h118.724v-50.052h50.052V277.663H315.361z
			 M334.996,365.97h-50.052v50.052h-57.89V365.97h-50.052v-57.89h50.052v-50.052h57.89v50.052h50.052V365.97z"/>
	</g>
</g>
<g>
</g>
<g>
</g>
<g>
</g>
<g>
</g>
<g>
</g>
<g>
</g>
<g>
</g>
<g>
</g>
<g>
</g>
<g>
</g>
<g>
</g>
<g>
</g>
<g>
</g>
<g>
</g>
<g>
</g>
</svg>
