<?xml version="1.0" encoding="iso-8859-1"?>
<!-- Generator: Adobe Illustrator 19.0.0, SVG Export Plug-In . SVG Version: 6.00 Build 0)  -->
<svg version="1.1" id="Layer_1" xmlns="http://www.w3.org/2000/svg" xmlns:xlink="http://www.w3.org/1999/xlink" x="0px" y="0px"
	 viewBox="0 0 511.999 511.999" style="enable-background:new 0 0 511.999 511.999;" xml:space="preserve">
<g>
	<g>
		<path d="M135.097,207.332v253.973h241.805V207.332H135.097z M346.485,430.886h-180.97V237.749h180.97V430.886z"/>
	</g>
</g>
<g>
	<g>
		<path d="M391.863,157.179v-26.228h22.306V41.743C414.169,18.726,395.443,0,372.426,0H139.572C116.556,0,97.83,18.726,97.83,41.743
			v89.209h22.306v26.228c-20.232,3.264-35.734,20.849-35.734,41.987v312.833h343.196V199.167
			C427.597,178.029,412.095,160.443,391.863,157.179z M366.515,30.417h5.911c6.246,0,11.325,5.081,11.325,11.325v58.791h-17.236
			V30.417z M318.862,30.417h17.236v70.117h-17.236V30.417z M271.208,30.417h17.236v70.117h-17.236V30.417z M223.554,30.417h17.236
			v70.117h-17.236V30.417z M175.901,30.417h17.236v70.117h-17.236V30.417z M128.247,41.743c0-6.245,5.081-11.325,11.325-11.325
			h5.911v70.117h-17.236V41.743z M397.18,481.583H114.819V199.167c0-6.679,5.434-12.112,12.112-12.112h23.622v-56.103h210.893
			v56.103h23.622c6.679,0,12.112,5.434,12.112,12.112V481.583z"/>
	</g>
</g>
<g>
	<g>
		<rect x="188.07" y="319.107" width="135.864" height="30.417"/>
	</g>
</g>
<g>
	<g>
		<rect x="188.07" y="369.803" width="135.864" height="30.417"/>
	</g>
</g>
<g>
	<g>
		<rect x="188.07" y="268.412" width="135.864" height="30.417"/>
	</g>
</g>
<g>
</g>
<g>
</g>
<g>
</g>
<g>
</g>
<g>
</g>
<g>
</g>
<g>
</g>
<g>
</g>
<g>
</g>
<g>
</g>
<g>
</g>
<g>
</g>
<g>
</g>
<g>
</g>
<g>
</g>
</svg>
