<?xml version="1.0" encoding="iso-8859-1"?>
<!-- Generator: Adobe Illustrator 19.0.0, SVG Export Plug-In . SVG Version: 6.00 Build 0)  -->
<svg version="1.1" id="Layer_1" xmlns="http://www.w3.org/2000/svg" xmlns:xlink="http://www.w3.org/1999/xlink" x="0px" y="0px"
	 viewBox="0 0 512 512" style="enable-background:new 0 0 512 512;" xml:space="preserve">
<g>
	<g>
		<path d="M289.032,115.613h-15.394c2.687-18.175,9.879-28.526,17.942-40.117C303.288,58.665,316.559,39.588,316.559,0h-33.032
			c0,29.229-8.834,41.928-19.064,56.633c-9.948,14.301-21.02,30.232-24.126,58.98h-17.369c-63.75,0-115.613,51.863-115.613,115.613
			v165.161c0,63.749,51.863,115.613,115.613,115.613h66.065c63.749,0,115.613-51.864,115.613-115.613V231.226
			C404.645,167.476,352.781,115.613,289.032,115.613z M371.613,396.387c0,45.535-37.046,82.581-82.581,82.581h-66.065
			c-45.535,0-82.581-37.046-82.581-82.581V231.226c0-45.535,37.046-82.581,82.581-82.581h66.065
			c45.535,0,82.581,37.046,82.581,82.581V396.387z"/>
	</g>
</g>
<g>
	<g>
		<rect x="239.484" y="198.194" width="33.032" height="99.097"/>
	</g>
</g>
<g>
</g>
<g>
</g>
<g>
</g>
<g>
</g>
<g>
</g>
<g>
</g>
<g>
</g>
<g>
</g>
<g>
</g>
<g>
</g>
<g>
</g>
<g>
</g>
<g>
</g>
<g>
</g>
<g>
</g>
</svg>
