<?xml version="1.0" encoding="iso-8859-1"?>
<!-- Generator: Adobe Illustrator 19.0.0, SVG Export Plug-In . SVG Version: 6.00 Build 0)  -->
<svg version="1.1" id="Layer_1" xmlns="http://www.w3.org/2000/svg" xmlns:xlink="http://www.w3.org/1999/xlink" x="0px" y="0px"
	 viewBox="0 0 512 512" style="enable-background:new 0 0 512 512;" xml:space="preserve">
<g>
	<g>
		<path d="M460.8,56.889H51.2c-28.232,0-51.2,22.968-51.2,51.2v295.822c0,28.233,22.968,51.2,51.2,51.2h409.6
			c28.233,0,51.2-22.967,51.2-51.2V108.089C512,79.857,489.033,56.889,460.8,56.889z M477.867,403.911
			c0,9.412-7.655,17.067-17.067,17.067H51.2c-9.411,0-17.067-7.655-17.067-17.067V108.089c0-9.411,7.656-17.067,17.067-17.067h409.6
			c9.412,0,17.067,7.656,17.067,17.067V403.911z"/>
	</g>
</g>
<g>
	<g>
		<path d="M162.913,136.533c-4.01-3.529-9.252-5.689-15.002-5.689c-5.749,0-10.991,2.16-15.003,5.689H85.333v34.133h47.577
			c4.008,3.527,9.249,5.687,14.995,5.689h0.006c5.59,0,10.859-2.023,15.014-5.689h263.741v-34.133H162.913z"/>
	</g>
</g>
<g>
	<g>
		<polygon points="240.071,271.171 240.071,331.851 285.582,301.511 		"/>
	</g>
</g>
<g>
	<g>
		<path d="M256,216.178c-47.053,0-85.333,38.281-85.333,85.333s38.281,85.333,85.333,85.333s85.333-38.281,85.333-85.333
			S303.053,216.178,256,216.178z M256,352.711c-28.233,0-51.2-22.967-51.2-51.2c0-28.233,22.967-51.2,51.2-51.2
			c28.233,0,51.2,22.967,51.2,51.2C307.2,329.744,284.233,352.711,256,352.711z"/>
	</g>
</g>
<g>
	<g>
		<rect x="381.156" y="284.444" width="56.889" height="34.133"/>
	</g>
</g>
<g>
	<g>
		<rect x="73.956" y="284.444" width="56.889" height="34.133"/>
	</g>
</g>
<g>
</g>
<g>
</g>
<g>
</g>
<g>
</g>
<g>
</g>
<g>
</g>
<g>
</g>
<g>
</g>
<g>
</g>
<g>
</g>
<g>
</g>
<g>
</g>
<g>
</g>
<g>
</g>
<g>
</g>
</svg>
