<?xml version="1.0" encoding="iso-8859-1"?>
<!-- Generator: Adobe Illustrator 19.0.0, SVG Export Plug-In . SVG Version: 6.00 Build 0)  -->
<svg version="1.1" id="Layer_1" xmlns="http://www.w3.org/2000/svg" xmlns:xlink="http://www.w3.org/1999/xlink" x="0px" y="0px"
	 viewBox="0 0 512 512" style="enable-background:new 0 0 512 512;" xml:space="preserve">
<g>
	<g>
		<path d="M506.389,201.189l-5.914-17.255l-16.644,7.464c-32.066,14.38-57.103,1.986-86.092-12.367
			c-21.386-10.589-43.523-21.498-69.168-21.164c-24.774,0.361-48.635,11.528-72.571,34.045
			c-23.936-22.519-47.797-33.685-72.571-34.045c-25.668-0.375-47.784,10.576-69.17,21.164
			c-28.99,14.352-54.026,26.748-86.093,12.367l-16.644-7.464L5.61,201.189c-8.959,26.138-7.16,52.465,5.201,76.135
			c10.754,20.596,29.24,38.686,53.456,52.319c57.198,32.201,140.746,35.991,191.733-8.831c26.333,23.149,61.348,33.33,96.935,33.33
			c33.321,0,67.141-8.927,94.799-24.498c24.215-13.633,42.701-31.725,53.456-52.319C513.55,253.653,515.349,227.326,506.389,201.189
			z M431.401,300.633c-22.62,12.734-50.883,20.142-78.445,20.139c-32.535-0.002-64.089-10.328-84.176-34.404l-12.782-15.322
			l-12.782,15.322c-37.102,44.471-113.298,42.03-162.619,14.265c-41.799-23.532-48.506-52.399-46.913-72.226
			c7.949,1.94,15.582,2.785,22.944,2.785c27.304-0.001,50.829-11.647,72.402-22.327c39.368-19.492,67.811-33.574,114.644,18.011
			l12.325,13.575l12.324-13.575c46.832-51.585,75.276-37.503,114.645-18.011c27.389,13.561,57.916,28.677,95.345,19.541
			C479.907,248.233,473.201,277.101,431.401,300.633z"/>
	</g>
</g>
<g>
</g>
<g>
</g>
<g>
</g>
<g>
</g>
<g>
</g>
<g>
</g>
<g>
</g>
<g>
</g>
<g>
</g>
<g>
</g>
<g>
</g>
<g>
</g>
<g>
</g>
<g>
</g>
<g>
</g>
</svg>
