<?xml version="1.0" encoding="iso-8859-1"?>
<!-- Generator: Adobe Illustrator 19.0.0, SVG Export Plug-In . SVG Version: 6.00 Build 0)  -->
<svg version="1.1" id="Layer_1" xmlns="http://www.w3.org/2000/svg" xmlns:xlink="http://www.w3.org/1999/xlink" x="0px" y="0px"
	 viewBox="0 0 512 512" style="enable-background:new 0 0 512 512;" xml:space="preserve">
<g>
	<g>
		<path d="M256,323.918c-17.313,0-31.347,14.034-31.347,31.347c0,11.6,6.307,21.722,15.673,27.143v46h31.347v-46
			c9.366-5.421,15.673-15.542,15.673-27.143C287.347,337.952,273.313,323.918,256,323.918z"/>
	</g>
</g>
<g>
	<g>
		<path d="M397.061,229.878v-88.816C397.061,63.28,333.781,0,256,0S114.939,63.28,114.939,141.061v88.816H83.592V512h344.816
			V229.878H397.061z M146.286,141.061c0-60.496,49.218-109.714,109.714-109.714s109.714,49.218,109.714,109.714v88.816h-31.347
			v-88.816c0-43.212-35.156-78.367-78.367-78.367c-43.212,0-78.367,35.156-78.367,78.367v88.816h-31.347V141.061z M303.02,141.061
			v88.816H208.98v-88.816c0-25.927,21.093-47.02,47.02-47.02S303.02,115.134,303.02,141.061z M397.061,480.653H114.939V261.224
			h282.122V480.653z"/>
	</g>
</g>
<g>
</g>
<g>
</g>
<g>
</g>
<g>
</g>
<g>
</g>
<g>
</g>
<g>
</g>
<g>
</g>
<g>
</g>
<g>
</g>
<g>
</g>
<g>
</g>
<g>
</g>
<g>
</g>
<g>
</g>
</svg>
