<?xml version="1.0" encoding="iso-8859-1"?>
<!-- Generator: Adobe Illustrator 19.0.0, SVG Export Plug-In . SVG Version: 6.00 Build 0)  -->
<svg version="1.1" id="Layer_1" xmlns="http://www.w3.org/2000/svg" xmlns:xlink="http://www.w3.org/1999/xlink" x="0px" y="0px"
	 viewBox="0 0 512 512" style="enable-background:new 0 0 512 512;" xml:space="preserve">
<g>
	<g>
		<path d="M68.267,68.267v102.4h102.4v-102.4H68.267z M136.533,136.533H102.4V102.4h34.133V136.533z"/>
	</g>
</g>
<g>
	<g>
		<path d="M68.267,204.8v102.4h102.4V204.8H68.267z M136.533,273.067H102.4v-34.133h34.133V273.067z"/>
	</g>
</g>
<g>
	<g>
		<path d="M341.333,341.333v102.4h102.4v-102.4H341.333z M409.6,409.6h-34.133v-34.133H409.6V409.6z"/>
	</g>
</g>
<g>
	<g>
		<path d="M119.467,341.333c-28.233,0-51.2,22.968-51.2,51.2c0,28.233,22.968,51.2,51.2,51.2s51.2-22.967,51.2-51.2
			C170.667,364.302,147.699,341.333,119.467,341.333z M119.467,409.6c-9.411,0-17.067-7.655-17.067-17.067
			c0-9.411,7.656-17.067,17.067-17.067c9.411,0,17.067,7.656,17.067,17.067C136.533,401.945,128.877,409.6,119.467,409.6z"/>
	</g>
</g>
<g>
	<g>
		<path d="M312.556,127.04l-72.41,72.406l72.409,72.409l72.408-72.408L312.556,127.04z M288.419,199.447l24.137-24.136
			l24.136,24.136l-24.137,24.136L288.419,199.447z"/>
	</g>
</g>
<g>
	<g>
		<path d="M407.885,273.067l73.62-73.62L312.554,30.495l-73.621,73.622V0H0v392.533c0,62.036,47.532,113.174,108.089,118.923V512
			H512V273.067H407.885z M238.933,392.533v-47.057l49.484-49.484l-49.484-49.487v-94.118l73.621-73.62l120.68,120.68
			L238.917,393.764C238.922,393.354,238.933,392.945,238.933,392.533z M119.467,477.867c-47.053,0-85.333-38.281-85.333-85.333
			v-358.4H204.8v358.4C204.8,439.586,166.519,477.867,119.467,477.867z M477.867,477.867H202.984
			c0.306-0.299,0.616-0.594,0.918-0.898l0.041,0.041l33.277-33.277h69.98v-69.98l66.553-66.553h104.114V477.867z"/>
	</g>
</g>
<g>
</g>
<g>
</g>
<g>
</g>
<g>
</g>
<g>
</g>
<g>
</g>
<g>
</g>
<g>
</g>
<g>
</g>
<g>
</g>
<g>
</g>
<g>
</g>
<g>
</g>
<g>
</g>
<g>
</g>
</svg>
