<?xml version="1.0" encoding="iso-8859-1"?>
<!-- Generator: Adobe Illustrator 19.0.0, SVG Export Plug-In . SVG Version: 6.00 Build 0)  -->
<svg version="1.1" id="Layer_1" xmlns="http://www.w3.org/2000/svg" xmlns:xlink="http://www.w3.org/1999/xlink" x="0px" y="0px"
	 viewBox="0 0 485 485" style="enable-background:new 0 0 485 485;" xml:space="preserve">
<g>
	<path d="M326.472,114.209L372.155,0H112.845l45.684,114.209L88.248,250.4l5.178,7.421C136.979,320.238,160,393.608,160,470v15h165
		v-15c0-76.392,23.021-149.762,66.574-212.179l5.178-7.421L326.472,114.209z M157.156,30h170.688l-28,70H185.156L157.156,30z
		 M295.274,455H257.5V300.853c11.814-5.628,20-17.682,20-31.616c0-19.299-15.701-35-35-35s-35,15.701-35,35
		c0,13.934,8.186,25.989,20,31.616V455h-37.774c-2.719-74.114-25.568-145.157-66.571-206.823L184.139,130h116.722l60.985,118.177
		C320.842,309.843,297.993,380.886,295.274,455z"/>
</g>
<g>
</g>
<g>
</g>
<g>
</g>
<g>
</g>
<g>
</g>
<g>
</g>
<g>
</g>
<g>
</g>
<g>
</g>
<g>
</g>
<g>
</g>
<g>
</g>
<g>
</g>
<g>
</g>
<g>
</g>
</svg>
