<?xml version="1.0" encoding="iso-8859-1"?>
<!-- Generator: Adobe Illustrator 19.0.0, SVG Export Plug-In . SVG Version: 6.00 Build 0)  -->
<svg version="1.1" id="Layer_1" xmlns="http://www.w3.org/2000/svg" xmlns:xlink="http://www.w3.org/1999/xlink" x="0px" y="0px"
	 viewBox="0 0 512 512" style="enable-background:new 0 0 512 512;" xml:space="preserve">
<g>
	<g>
		<polygon points="271.208,240.188 271.208,206.147 240.791,206.147 240.791,240.188 206.751,240.188 206.751,270.605 
			240.791,270.605 240.791,304.645 271.208,304.645 271.208,270.605 305.249,270.605 305.249,240.188 		"/>
	</g>
</g>
<g>
	<g>
		<path d="M410.794,218.137c0.159-2.877,0.248-5.773,0.248-8.69v-63.142H100.958v60.826c-12.029-8.448-19.845-22.457-19.845-37.82
			c0-25.438,20.695-46.133,46.133-46.133h372.199l4.204-8.408C509.19,103.683,512,91.763,512,79.34C512,35.593,476.408,0,432.661,0
			c-29.481,0-56.42,16.527-70.05,42.065H127.245C57.082,42.065,0,99.147,0,169.311s57.082,127.245,127.245,127.245h0.564
			c25.238,37.023,66.078,62.598,112.982,67.186v25.08H91.252c-36.339,0-65.904,29.565-65.904,65.904v15.209h215.443v11.648h-111.44
			V512h253.296v-30.417h-111.44v-11.648h113.545c70.163,0,127.245-57.082,127.245-127.245c0-32.075-12.016-62.731-33.833-86.323
			C460.032,236.759,436.52,223.504,410.794,218.137z M30.417,169.311c0-53.391,43.437-96.828,96.828-96.828h255.807l3.654-9.976
			c7.033-19.193,25.501-32.089,45.954-32.089c26.975,0,48.922,21.947,48.922,48.922c0,4.602-0.625,9.091-1.864,13.421H127.245
			c-42.21,0-76.55,34.34-76.55,76.55c0,18.327,6.603,36.071,18.591,49.96c9.405,10.896,21.637,18.883,35.187,23.119
			c0.081,0.376,0.18,0.746,0.265,1.12c0.204,0.907,0.419,1.81,0.639,2.711c0.39,1.607,0.809,3.205,1.25,4.797
			c0.094,0.34,0.185,0.681,0.282,1.021c1.228,4.314,2.621,8.574,4.221,12.759C65.379,257.104,30.417,217.214,30.417,169.311z
			 M384.754,296.556c25.438,0,46.133,20.695,46.133,46.133s-20.695,46.133-46.133,46.133H271.208v-25.08
			c46.903-4.588,87.744-30.162,112.982-67.186H384.754z M133.416,231.953c-0.042-0.226-0.085-0.451-0.125-0.677
			c-0.114-0.639-0.216-1.282-0.319-1.923c-0.07-0.437-0.143-0.874-0.209-1.313c-0.911-6.067-1.388-12.275-1.388-18.592v-32.725
			h249.249v32.725c0,63.57-47.845,116.169-109.416,123.695v-0.084h-30.417v0.084C186.662,326.525,143.145,285.072,133.416,231.953z
			 M384.755,439.517H59.192c5.705-11.979,17.932-20.278,32.06-20.278h293.503c42.21,0,76.55-34.34,76.55-76.55
			c0-37.075-26.494-68.08-61.543-75.074c2.556-6.303,4.686-12.768,6.385-19.368c18.948,4.288,36.251,14.239,49.691,28.771
			c16.603,17.953,25.747,41.275,25.747,65.671C481.583,396.08,438.146,439.517,384.755,439.517z"/>
	</g>
</g>
<g>
	<g>
		<circle cx="432.756" cy="63.451" r="16.146"/>
	</g>
</g>
<g>
</g>
<g>
</g>
<g>
</g>
<g>
</g>
<g>
</g>
<g>
</g>
<g>
</g>
<g>
</g>
<g>
</g>
<g>
</g>
<g>
</g>
<g>
</g>
<g>
</g>
<g>
</g>
<g>
</g>
</svg>
