<?xml version="1.0" encoding="iso-8859-1"?>
<!-- Generator: Adobe Illustrator 19.0.0, SVG Export Plug-In . SVG Version: 6.00 Build 0)  -->
<svg version="1.1" id="Layer_1" xmlns="http://www.w3.org/2000/svg" xmlns:xlink="http://www.w3.org/1999/xlink" x="0px" y="0px"
	 viewBox="0 0 512 512" style="enable-background:new 0 0 512 512;" xml:space="preserve">
<g>
	<g>
		<g>
			<path d="M256,398.877c56.156,0,101.844-45.687,101.844-101.844S312.156,195.19,256,195.19s-101.843,45.687-101.843,101.843
				S199.844,398.877,256,398.877z M256,228.581c37.744,0,68.452,30.708,68.452,68.452S293.744,365.486,256,365.486
				s-68.452-30.708-68.452-68.452S218.256,228.581,256,228.581z"/>
			<path d="M256,339.547c23.442,0,42.513-19.072,42.513-42.513c0-23.441-19.071-42.513-42.513-42.513s-42.513,19.071-42.513,42.512
				S232.558,339.547,256,339.547z M256,287.913c5.03,0,9.121,4.091,9.121,9.12s-4.092,9.121-9.121,9.121
				c-5.03,0-9.121-4.093-9.121-9.121S250.97,287.913,256,287.913z"/>
			<path d="M172.466,67.674v82.068h-24.963V67.676H24.963v82.066H0v294.584h512v-277.89v-16.693V67.674H172.466z M58.355,101.068
				h55.757v48.674H58.355V101.068z M478.609,410.935H33.391V183.133h445.217V410.935z M478.609,149.742H205.857v-48.677h272.751
				V149.742z"/>
		</g>
	</g>
</g>
<g>
</g>
<g>
</g>
<g>
</g>
<g>
</g>
<g>
</g>
<g>
</g>
<g>
</g>
<g>
</g>
<g>
</g>
<g>
</g>
<g>
</g>
<g>
</g>
<g>
</g>
<g>
</g>
<g>
</g>
</svg>
