<?xml version="1.0" encoding="iso-8859-1"?>
<!-- Generator: Adobe Illustrator 19.0.0, SVG Export Plug-In . SVG Version: 6.00 Build 0)  -->
<svg version="1.1" id="Layer_1" xmlns="http://www.w3.org/2000/svg" xmlns:xlink="http://www.w3.org/1999/xlink" x="0px" y="0px"
	 viewBox="0 0 512 512" style="enable-background:new 0 0 512 512;" xml:space="preserve">
<g>
	<g>
		<path d="M256,0C114.84,0,0,114.842,0,256s114.84,256,256,256s256-114.842,256-256S397.16,0,256,0z M274.73,38.275
			c66.283,5.654,124.212,41.014,160.39,92.681l-98.064,56.617c-15.65-18.509-37.503-31.59-62.325-36.031V38.275z M237.268,473.722
			C125.504,464.192,37.463,370.19,37.463,256s88.04-208.192,199.805-217.725v113.267c-49.622,8.876-87.415,52.323-87.415,104.457
			s37.793,95.58,87.415,104.457V473.722z M187.317,256c0-37.872,30.811-68.683,68.683-68.683s68.683,30.811,68.683,68.683
			S293.872,324.683,256,324.683S187.317,293.872,187.317,256z M274.732,473.725V360.458c49.622-8.876,87.415-52.321,87.415-104.457
			c0-12.639-2.23-24.765-6.301-36.016l98.058-56.613c13.225,28.139,20.634,59.533,20.634,92.628
			C474.537,370.19,386.496,464.192,274.732,473.725z"/>
	</g>
</g>
<g>
</g>
<g>
</g>
<g>
</g>
<g>
</g>
<g>
</g>
<g>
</g>
<g>
</g>
<g>
</g>
<g>
</g>
<g>
</g>
<g>
</g>
<g>
</g>
<g>
</g>
<g>
</g>
<g>
</g>
</svg>
