<?xml version="1.0" encoding="iso-8859-1"?>
<!-- Generator: Adobe Illustrator 19.0.0, SVG Export Plug-In . SVG Version: 6.00 Build 0)  -->
<svg version="1.1" id="Layer_1" xmlns="http://www.w3.org/2000/svg" xmlns:xlink="http://www.w3.org/1999/xlink" x="0px" y="0px"
	 viewBox="0 0 512 512" style="enable-background:new 0 0 512 512;" xml:space="preserve">
<g>
	<g>
		<path d="M492.186,19.797c-26.375-26.376-69.291-26.376-95.665,0l-69.998,70c-26.375,26.375-26.375,69.291,0,95.665
			c12.776,12.777,29.763,19.815,47.832,19.815c18.069,0,35.057-7.036,47.833-19.813l69.999-69.999
			c12.777-12.777,19.813-29.763,19.813-47.834C511.999,49.562,504.963,32.575,492.186,19.797z M400.68,163.955
			c-7.032,7.032-16.381,10.905-26.325,10.905c-9.945,0-19.294-3.873-26.326-10.905c-14.516-14.516-14.516-38.136,0-52.652
			l24.246-24.246l52.653,52.652L400.68,163.955z M470.68,93.958l-24.246,24.246l-52.653-52.653l24.246-24.247
			c7.259-7.258,16.791-10.887,26.326-10.887c9.533,0,19.069,3.63,26.326,10.887C485.196,55.82,485.196,79.44,470.68,93.958z"/>
	</g>
</g>
<g>
	<g>
		<path d="M254.481,24.545c-32.694-32.696-85.893-32.694-118.589,0c-32.695,32.695-32.695,85.895,0,118.59
			c16.347,16.348,37.821,24.522,59.294,24.522c21.473,0,42.947-8.175,59.294-24.522C287.175,110.44,287.175,57.24,254.481,24.545z
			 M157.399,46.052c17.101-17.1,42.999-20.154,63.254-9.185l-72.44,72.441C137.244,89.05,140.298,63.152,157.399,46.052z
			 M232.974,121.628c-17.1,17.099-42.998,20.154-63.254,9.185l72.44-72.441C253.128,78.629,250.074,104.528,232.974,121.628z"/>
	</g>
</g>
<g>
	<g>
		<path d="M300.775,206.978c-30.088-30.087-79.044-30.087-109.131,0c-30.088,30.088-30.088,79.043,0,109.131
			c15.043,15.043,34.805,22.566,54.565,22.566c19.761,0,39.521-7.523,54.566-22.566
			C330.862,286.021,330.862,237.066,300.775,206.978z M279.268,294.603c-18.229,18.227-47.889,18.228-66.118,0
			c-18.228-18.228-18.228-47.889,0-66.118c18.229-18.227,47.889-18.228,66.118,0C297.496,246.714,297.496,276.374,279.268,294.603z"
			/>
	</g>
</g>
<g>
	<g>
		<path d="M107.839,155.044c-11.928-11.928-27.786-18.497-44.655-18.497c-16.868,0-32.727,6.569-44.655,18.497
			c-24.622,24.623-24.622,64.687,0,89.309c11.928,11.928,27.786,18.497,44.655,18.497c16.868,0,32.727-6.569,44.655-18.497
			C132.462,219.731,132.462,179.667,107.839,155.044z M86.332,222.848c-6.182,6.183-14.404,9.588-23.148,9.588
			s-16.965-3.404-23.148-9.588c-12.763-12.764-12.763-33.533,0-46.296c6.183-6.183,14.405-9.588,23.148-9.588
			c8.744,0,16.965,3.404,23.148,9.588C99.096,189.316,99.096,210.084,86.332,222.848z"/>
	</g>
</g>
<g>
	<g>
		<path d="M340.393,420.349c-20.922-20.922-54.963-20.924-75.886,0c-10.135,10.134-15.717,23.609-15.717,37.942
			c0,14.334,5.581,27.809,15.717,37.943c10.462,10.462,24.2,15.693,37.943,15.692c13.74-0.001,27.483-5.231,37.943-15.692
			c10.135-10.134,15.717-23.609,15.717-37.943C356.11,443.958,350.529,430.483,340.393,420.349z M318.887,474.727
			c-9.063,9.063-23.809,9.063-32.873,0c-4.39-4.39-6.808-10.228-6.808-16.436c0-6.208,2.418-12.045,6.808-16.435
			c4.532-4.532,10.484-6.797,16.436-6.797c5.952,0,11.905,2.265,16.436,6.797c4.39,4.39,6.808,10.228,6.808,16.435
			C325.695,464.5,323.277,470.337,318.887,474.727z"/>
	</g>
</g>
<g>
	<g>
		<path d="M486.241,273.109c-16.611-16.611-38.696-25.759-62.187-25.759c-23.491,0-45.576,9.148-62.186,25.759
			c-16.611,16.611-25.759,38.695-25.759,62.186c0,23.491,9.148,45.576,25.759,62.187c17.145,17.145,39.665,25.717,62.186,25.717
			c22.52,0,45.042-8.572,62.187-25.717C502.852,380.871,512,358.786,512,335.295C512,311.804,502.852,289.72,486.241,273.109z
			 M464.734,375.975c-22.431,22.431-58.928,22.431-81.36,0c-10.866-10.866-16.851-25.314-16.851-40.68
			c0-15.366,5.984-29.813,16.851-40.679c10.865-10.866,25.313-16.85,40.679-16.85s29.814,5.984,40.68,16.85
			c10.866,10.866,16.85,25.314,16.85,40.679C481.585,350.662,475.6,365.109,464.734,375.975z"/>
	</g>
</g>
<g>
	<g>
		<polygon points="439.262,320.087 439.262,299.126 408.847,299.126 408.847,320.087 387.886,320.087 387.886,350.503 
			408.847,350.503 408.847,371.464 439.262,371.464 439.262,350.503 460.223,350.503 460.223,320.087 		"/>
	</g>
</g>
<g>
	<g>
		<path d="M220.992,416.94c-5.882-28.074-22.136-56.55-45.767-80.18c-23.631-23.632-52.106-39.885-80.181-45.768
			c-30.411-6.372-56.985-0.052-74.831,17.796C2.366,326.635-3.954,353.211,2.418,383.62c5.882,28.074,22.135,56.55,45.767,80.18
			c23.632,23.632,52.106,39.885,80.18,45.768c7.725,1.618,15.197,2.417,22.347,2.417c20.996,0,39.172-6.899,52.484-20.213
			C221.043,473.924,227.363,447.35,220.992,416.94z M181.689,470.265c-10.343,10.342-27.068,13.726-47.088,9.532
			c-22.357-4.684-45.41-18.004-64.91-37.504s-32.82-42.554-37.505-64.91c-4.195-20.023-0.809-36.746,9.533-47.088
			c7.448-7.448,18.203-11.288,31.118-11.288c5.02,0,10.367,0.58,15.97,1.754c22.357,4.684,45.41,18.004,64.911,37.505
			C191.653,396.202,204.463,447.491,181.689,470.265z"/>
	</g>
</g>
<g>
	<g>
		
			<rect x="96.498" y="348.377" transform="matrix(0.7071 -0.7071 0.7071 0.7071 -250.323 196.2268)" width="30.415" height="103.806"/>
	</g>
</g>
<g>
</g>
<g>
</g>
<g>
</g>
<g>
</g>
<g>
</g>
<g>
</g>
<g>
</g>
<g>
</g>
<g>
</g>
<g>
</g>
<g>
</g>
<g>
</g>
<g>
</g>
<g>
</g>
<g>
</g>
</svg>
