<?xml version="1.0" encoding="iso-8859-1"?>
<!-- Generator: Adobe Illustrator 19.0.0, SVG Export Plug-In . SVG Version: 6.00 Build 0)  -->
<svg version="1.1" id="Layer_1" xmlns="http://www.w3.org/2000/svg" xmlns:xlink="http://www.w3.org/1999/xlink" x="0px" y="0px"
	 viewBox="0 0 512 512" style="enable-background:new 0 0 512 512;" xml:space="preserve">
<g>
	<g>
		<rect x="239.779" y="279.724" width="32.451" height="30.422"/>
	</g>
</g>
<g>
	<g>
		<rect x="328.338" y="279.724" width="32.451" height="30.422"/>
	</g>
</g>
<g>
	<g>
		<rect x="239.779" y="366.904" width="32.451" height="30.422"/>
	</g>
</g>
<g>
	<g>
		<rect x="328.338" y="366.904" width="32.451" height="30.422"/>
	</g>
</g>
<g>
	<g>
		<rect x="328.338" y="454.317" width="32.451" height="30.422"/>
	</g>
</g>
<g>
	<g>
		<rect x="151.209" y="366.904" width="32.451" height="30.422"/>
	</g>
</g>
<g>
	<g>
		<rect x="195.494" y="235.449" width="32.451" height="30.422"/>
	</g>
</g>
<g>
	<g>
		<rect x="284.054" y="324.008" width="32.451" height="30.422"/>
	</g>
</g>
<g>
	<g>
		<rect x="239.779" y="454.317" width="32.451" height="30.422"/>
	</g>
</g>
<g>
	<g>
		<rect x="195.494" y="324.008" width="32.451" height="30.422"/>
	</g>
</g>
<g>
	<g>
		<rect x="284.054" y="411.422" width="32.451" height="30.422"/>
	</g>
</g>
<g>
	<g>
		<rect x="195.494" y="411.422" width="32.451" height="30.422"/>
	</g>
</g>
<g>
	<g>
		<path d="M158.043,54.34c-36.106-36.106-94.856-36.106-130.963,0c-36.107,36.106-36.106,94.856,0,130.963l89.654,89.654
			l130.963-130.963L158.043,54.34z M48.591,163.791c-24.244-24.245-24.244-63.694,0.001-87.94
			c12.122-12.122,28.046-18.183,43.969-18.183c15.923,0,31.847,6.061,43.969,18.183l30.368,30.368l-87.94,87.94L48.591,163.791z
			 M100.471,215.67l87.94-87.94l16.263,16.263l-87.939,87.94L100.471,215.67z"/>
	</g>
</g>
<g>
	<g>
		<path d="M484.92,54.34c-36.106-36.106-94.856-36.106-130.963,0l-89.655,89.654l130.963,130.963l89.654-89.654
			C521.026,149.197,521.026,90.447,484.92,54.34z M395.267,231.934l-87.94-87.94l16.263-16.263l87.94,87.94L395.267,231.934z
			 M463.409,163.791l-30.368,30.368l-87.94-87.94l30.368-30.368c24.246-24.245,63.695-24.245,87.94,0
			S487.653,139.547,463.409,163.791z"/>
	</g>
</g>
<g>
</g>
<g>
</g>
<g>
</g>
<g>
</g>
<g>
</g>
<g>
</g>
<g>
</g>
<g>
</g>
<g>
</g>
<g>
</g>
<g>
</g>
<g>
</g>
<g>
</g>
<g>
</g>
<g>
</g>
</svg>
