<?xml version="1.0" encoding="iso-8859-1"?>
<!-- Generator: Adobe Illustrator 19.0.0, SVG Export Plug-In . SVG Version: 6.00 Build 0)  -->
<svg version="1.1" id="Layer_1" xmlns="http://www.w3.org/2000/svg" xmlns:xlink="http://www.w3.org/1999/xlink" x="0px" y="0px"
	 viewBox="0 0 512 512" style="enable-background:new 0 0 512 512;" xml:space="preserve">
<g>
	<g>
		<path d="M346.747,0H47.628v512h416.744V117.625L346.747,0z M357.209,60.979l46.184,46.184h-46.184V60.979z M428.651,476.279
			H83.349v-35.721h345.302V476.279z M428.651,404.837H83.349V250.047h345.302V404.837z M428.651,214.326H83.349V35.721h238.14
			v107.163h107.163V214.326z"/>
	</g>
</g>
<g>
	<g>
		<path d="M257.286,318.366c-8.302-2.265-15.967-3.753-15.967-9.323c0-4.214,3.143-6.321,9.43-6.321
			c5.287,0,13.919,2.515,20.254,7.287l7.718-14.574c-8.469-4.71-16.804-8.359-27.434-8.359c-19.66,0-28.077,12.132-28.077,24.753
			c0,12.457,6.989,17.568,27.808,23.147c6.208,1.665,11.091,3.971,11.091,8.144c0,3.788-3.108,5.681-9.323,5.681
			c-9.997,0-18.407-4.347-25.077-8.896l-7.716,15.324c9.326,6.118,19.968,9.432,32.47,9.432c19.647,0,28.505-10.482,28.505-23.255
			C280.969,328.529,274.081,322.948,257.286,318.366z"/>
	</g>
</g>
<g>
	<g>
		<path d="M185.702,287.719h-32.47v76.086v0h17.575v-24.539h15.431c13.352,0,24.326-11.181,24.326-25.826
			C210.564,300.698,199.74,287.719,185.702,287.719z M185.168,323.94h-14.36v-20.788h13.717c5.02,0,8.252,4.17,8.252,10.288
			C192.776,319.377,189.842,323.94,185.168,323.94z"/>
	</g>
</g>
<g>
	<g>
		<path d="M325.01,287.719h-28.398v76.086v0h28.398c21.681,0,37.936-14.884,37.936-38.15
			C362.946,303.873,348.28,287.719,325.01,287.719z M325.01,348.374h-10.823v-45.223h10.823c13.744,0,20.039,11.04,20.039,22.503
			C345.05,338.403,338.159,348.373,325.01,348.374z"/>
	</g>
</g>
<g>
</g>
<g>
</g>
<g>
</g>
<g>
</g>
<g>
</g>
<g>
</g>
<g>
</g>
<g>
</g>
<g>
</g>
<g>
</g>
<g>
</g>
<g>
</g>
<g>
</g>
<g>
</g>
<g>
</g>
</svg>
