<?xml version="1.0" encoding="iso-8859-1"?>
<!-- Generator: Adobe Illustrator 19.0.0, SVG Export Plug-In . SVG Version: 6.00 Build 0)  -->
<svg version="1.1" id="Layer_1" xmlns="http://www.w3.org/2000/svg" xmlns:xlink="http://www.w3.org/1999/xlink" x="0px" y="0px"
	 viewBox="0 0 511.999 511.999" style="enable-background:new 0 0 511.999 511.999;" xml:space="preserve">
<g>
	<g>
		<path d="M403.307,278.823V147.307C403.307,66.081,337.225,0,256,0S108.693,66.081,108.693,147.307v131.516
			c-6.802,36.205-36.797,196.986-36.797,216.48v16.696h368.207v-16.696C440.103,475.809,410.109,315.028,403.307,278.823z
			 M142.086,147.307C142.084,84.493,193.187,33.391,256,33.391s113.916,51.102,113.916,113.916V263.68h-227.83V147.307z
			 M139.247,297.072h233.508c2.753,14.73,5.507,29.629,8.194,44.306c-27.572,11.585-72.843,26.297-124.949,26.297
			c-52.108,0-97.376-14.712-124.948-26.297C133.739,326.702,136.495,311.802,139.247,297.072z M269.148,400.782v19.074h-26.298
			v-19.074h0.001c4.335,0.183,8.717,0.284,13.148,0.284S264.814,400.965,269.148,400.782z M107.29,478.609
			c3.17-21.401,9.805-59.947,17.668-103.66c21.41,8.495,50.632,17.826,84.502,22.708v55.591h93.08v-55.591
			c33.87-4.882,63.093-14.214,84.502-22.708c7.862,43.713,14.497,82.259,17.668,103.66H107.29z"/>
	</g>
</g>
<g>
</g>
<g>
</g>
<g>
</g>
<g>
</g>
<g>
</g>
<g>
</g>
<g>
</g>
<g>
</g>
<g>
</g>
<g>
</g>
<g>
</g>
<g>
</g>
<g>
</g>
<g>
</g>
<g>
</g>
</svg>
