<?xml version="1.0" encoding="iso-8859-1"?>
<!-- Generator: Adobe Illustrator 19.0.0, SVG Export Plug-In . SVG Version: 6.00 Build 0)  -->
<svg version="1.1" id="Layer_1" xmlns="http://www.w3.org/2000/svg" xmlns:xlink="http://www.w3.org/1999/xlink" x="0px" y="0px"
	 viewBox="0 0 382.136 382.136" style="enable-background:new 0 0 382.136 382.136;" xml:space="preserve">
<path d="M359.409,129.561l-27.637,11.671c7.893,18.689,11.895,38.55,11.895,59.03c0,83.744-68.131,151.874-151.874,151.874
	S39.919,284.005,39.919,200.262c0-44.381,19.638-86.611,53.076-115.33l79.93,80.314V0H8.469l63.322,63.626
	C54.984,78.42,40.882,96.295,30.53,116.09c-13.484,25.785-20.611,54.891-20.611,84.171c0,100.286,81.588,181.874,181.874,181.874
	s181.874-81.588,181.874-181.874C373.667,175.751,368.87,151.964,359.409,129.561z M142.925,30v62.573L80.65,30H142.925z"/>
<g>
</g>
<g>
</g>
<g>
</g>
<g>
</g>
<g>
</g>
<g>
</g>
<g>
</g>
<g>
</g>
<g>
</g>
<g>
</g>
<g>
</g>
<g>
</g>
<g>
</g>
<g>
</g>
<g>
</g>
</svg>
