<?xml version="1.0" encoding="iso-8859-1"?>
<!-- Generator: Adobe Illustrator 19.0.0, SVG Export Plug-In . SVG Version: 6.00 Build 0)  -->
<svg version="1.1" id="Layer_1" xmlns="http://www.w3.org/2000/svg" xmlns:xlink="http://www.w3.org/1999/xlink" x="0px" y="0px"
	 viewBox="0 0 409.586 409.586" style="enable-background:new 0 0 409.586 409.586;" xml:space="preserve">
<g>
	<path d="M409.586,233.661H244.34l80.313,79.929c-28.718,33.439-70.947,53.076-115.329,53.076
		c-83.744,0-151.874-68.13-151.874-151.874h-30c0,100.286,81.588,181.874,181.874,181.874c29.28,0,58.387-7.127,84.171-20.611
		c19.796-10.352,37.67-24.454,52.464-41.261l63.626,63.322V233.661z M379.586,325.935l-62.574-62.274h62.574V325.935z"/>
	<path d="M84.932,95.995c28.719-33.439,70.949-53.076,115.33-53.076c83.743,0,151.874,68.13,151.874,151.874h30
		c0-100.286-81.588-181.874-181.874-181.874c-29.28,0-58.386,7.127-84.171,20.611C96.295,43.882,78.42,57.984,63.626,74.791
		L0,11.469v164.456h165.246L84.932,95.995z M30,83.651l62.573,62.274H30V83.651z"/>
</g>
<g>
</g>
<g>
</g>
<g>
</g>
<g>
</g>
<g>
</g>
<g>
</g>
<g>
</g>
<g>
</g>
<g>
</g>
<g>
</g>
<g>
</g>
<g>
</g>
<g>
</g>
<g>
</g>
<g>
</g>
</svg>
