<?xml version="1.0" encoding="iso-8859-1"?>
<!-- Generator: Adobe Illustrator 19.0.0, SVG Export Plug-In . SVG Version: 6.00 Build 0)  -->
<svg version="1.1" id="Layer_1" xmlns="http://www.w3.org/2000/svg" xmlns:xlink="http://www.w3.org/1999/xlink" x="0px" y="0px"
	 viewBox="0 0 409.586 409.586" style="enable-background:new 0 0 409.586 409.586;" xml:space="preserve">
<g>
	<path d="M334.795,63.626L398.117,0H233.661v165.246l79.93-80.314c33.439,28.719,53.076,70.949,53.076,115.33
		c0,83.744-68.13,151.874-151.874,151.874v30c100.286,0,181.874-81.588,181.874-181.874c0-29.28-7.127-58.386-20.611-84.171
		C365.704,96.295,351.601,78.42,334.795,63.626z M263.661,30h62.274l-62.274,62.573V30z"/>
	<path d="M12.919,209.324c0,29.28,7.127,58.386,20.611,84.171c10.352,19.795,24.454,37.67,41.261,52.464l-63.322,63.626h164.456
		V244.34l-79.93,80.314c-33.439-28.719-53.076-70.948-53.076-115.329c0-83.744,68.13-151.874,151.874-151.874v-30
		C94.508,27.45,12.919,109.039,12.919,209.324z M145.925,379.586H83.651l62.274-62.573V379.586z"/>
</g>
<g>
</g>
<g>
</g>
<g>
</g>
<g>
</g>
<g>
</g>
<g>
</g>
<g>
</g>
<g>
</g>
<g>
</g>
<g>
</g>
<g>
</g>
<g>
</g>
<g>
</g>
<g>
</g>
<g>
</g>
</svg>
