<?xml version="1.0" encoding="iso-8859-1"?>
<!-- Generator: Adobe Illustrator 19.0.0, SVG Export Plug-In . SVG Version: 6.00 Build 0)  -->
<svg version="1.1" id="Layer_1" xmlns="http://www.w3.org/2000/svg" xmlns:xlink="http://www.w3.org/1999/xlink" x="0px" y="0px"
	 viewBox="0 0 386.611 386.611" style="enable-background:new 0 0 386.611 386.611;" xml:space="preserve">
<g>
	<path d="M333.344,207.099c-20.704-20.705-46.325-36.246-74.093-44.944c-21.316-6.677-43.928-9.344-66.273-7.922l-0.215-89.766
		L76.476,180.755l116.846,116.847l-0.271-113.31c43.954-3.339,87.698,12.638,119.081,44.02
		c28.496,28.497,44.293,66.383,44.48,106.678l30-0.14C386.387,286.594,367.47,241.225,333.344,207.099z M118.901,180.755
		l44.035-44.034l0.211,88.28L118.901,180.755z"/>
	<polygon points="150.229,72.834 129.017,51.621 0,180.638 128.991,310.249 150.255,289.087 42.375,180.689 	"/>
</g>
<g>
</g>
<g>
</g>
<g>
</g>
<g>
</g>
<g>
</g>
<g>
</g>
<g>
</g>
<g>
</g>
<g>
</g>
<g>
</g>
<g>
</g>
<g>
</g>
<g>
</g>
<g>
</g>
<g>
</g>
</svg>
