<?xml version="1.0" encoding="iso-8859-1"?>
<!-- Generator: Adobe Illustrator 19.0.0, SVG Export Plug-In . SVG Version: 6.00 Build 0)  -->
<svg version="1.1" id="Layer_1" xmlns="http://www.w3.org/2000/svg" xmlns:xlink="http://www.w3.org/1999/xlink" x="0px" y="0px"
	 viewBox="0 0 512 512" style="enable-background:new 0 0 512 512;" xml:space="preserve">
<g>
	<g>
		<path d="M62.694,0v512h386.612V0H62.694z M417.959,480.653H94.041V135.837h31.347v104.49h261.224v-104.49h31.347V480.653z
			 M156.735,208.98V94.041h198.531V208.98H156.735z M417.959,104.49h-31.347V62.694H125.388v41.796H94.041V31.347h323.918V104.49z"
			/>
	</g>
</g>
<g>
	<g>
		<rect x="188.082" y="135.837" width="78.367" height="31.347"/>
	</g>
</g>
<g>
	<g>
		<path d="M125.388,271.673v177.633h261.224V271.673H125.388z M355.265,417.959H156.735V303.02h198.531V417.959z"/>
	</g>
</g>
<g>
	<g>
		<rect x="188.082" y="344.816" width="78.367" height="31.347"/>
	</g>
</g>
<g>
	<g>
		<polygon points="292.571,123.647 292.571,179.373 334.367,151.51 		"/>
	</g>
</g>
<g>
	<g>
		<polygon points="292.571,332.627 292.571,388.353 334.367,360.49 		"/>
	</g>
</g>
<g>
</g>
<g>
</g>
<g>
</g>
<g>
</g>
<g>
</g>
<g>
</g>
<g>
</g>
<g>
</g>
<g>
</g>
<g>
</g>
<g>
</g>
<g>
</g>
<g>
</g>
<g>
</g>
<g>
</g>
</svg>
