<?xml version="1.0" encoding="iso-8859-1"?>
<!-- Generator: Adobe Illustrator 19.0.0, SVG Export Plug-In . SVG Version: 6.00 Build 0)  -->
<svg version="1.1" id="Layer_1" xmlns="http://www.w3.org/2000/svg" xmlns:xlink="http://www.w3.org/1999/xlink" x="0px" y="0px"
	 viewBox="0 0 512 512" style="enable-background:new 0 0 512 512;" xml:space="preserve">
<g>
	<g>
		<path d="M62.694,0v512h386.612V0H62.694z M417.959,480.653H94.041V240.327h323.918V480.653z M105.757,208.98l60.773-60.773
			l60.773,60.773H105.757z M417.959,208.98H246.818l96.039-96.039l75.102,75.102V208.98z M417.959,143.712L342.857,68.61
			L237.061,174.406l-70.531-70.531l-72.49,72.49V31.347h323.918V143.712z"/>
	</g>
</g>
<g>
	<g>
		<path d="M125.388,271.673v177.633h261.224V271.673H125.388z M355.265,417.959H156.735V303.02h198.531V417.959z"/>
	</g>
</g>
<g>
	<g>
		<rect x="188.082" y="344.816" width="78.367" height="31.347"/>
	</g>
</g>
<g>
	<g>
		<circle cx="303.02" cy="360.49" r="20.898"/>
	</g>
</g>
<g>
	<g>
		<circle cx="229.878" cy="83.592" r="20.898"/>
	</g>
</g>
<g>
</g>
<g>
</g>
<g>
</g>
<g>
</g>
<g>
</g>
<g>
</g>
<g>
</g>
<g>
</g>
<g>
</g>
<g>
</g>
<g>
</g>
<g>
</g>
<g>
</g>
<g>
</g>
<g>
</g>
</svg>
