<?xml version="1.0" encoding="iso-8859-1"?>
<!-- Generator: Adobe Illustrator 19.0.0, SVG Export Plug-In . SVG Version: 6.00 Build 0)  -->
<svg version="1.1" id="Layer_1" xmlns="http://www.w3.org/2000/svg" xmlns:xlink="http://www.w3.org/1999/xlink" x="0px" y="0px"
	 viewBox="0 0 512 512" style="enable-background:new 0 0 512 512;" xml:space="preserve">
<g>
	<g>
		<path d="M512,173.406C511.888,84.81,439.72,12.73,351.126,12.73h-0.209c-34.636,0.043-67.582,10.963-94.954,31.125
			c-27.419-20.169-60.421-31.068-95.066-31.068l-1.012,0.003c-42.971,0.265-83.269,17.248-113.466,47.821
			C16.222,91.184-0.262,131.687,0.003,174.658c0.264,42.797,17.129,82.977,47.487,113.137
			c14.271,14.177,30.735,25.357,48.621,33.225c-0.618,5.724-0.943,11.533-0.942,17.418c0.023,88.683,72.194,160.831,160.878,160.831
			h0.048c42.974-0.012,83.369-16.757,113.746-47.153c30.376-30.395,47.099-70.799,47.085-113.772
			c-0.002-5.886-0.331-11.695-0.951-17.419c18.071-7.961,34.684-19.301,49.048-33.7C495.37,256.799,512.054,216.379,512,173.406z
			 M288.469,172.877c0.018,2.648-0.058,5.276-0.201,7.885c-10.427-2.13-21.219-3.25-32.267-3.25
			c-11.05,0.003-21.843,1.127-32.271,3.262c-0.129-2.32-0.201-4.655-0.204-7.007c-0.04-31.693,11.404-61.631,32.362-85.076
			C275.958,111.101,288.269,140.596,288.469,172.877z M229.927,213.496c8.435-1.763,17.172-2.696,26.125-2.698
			c8.928,0,17.642,0.926,26.058,2.68c-5.544,16.84-14.51,32.148-26.072,45.095C244.465,245.637,235.488,230.336,229.927,213.496z
			 M230.852,280.31c-19.89,13.096-43.649,20.79-69.186,20.948l-0.807,0.002c-8.915,0-17.623-0.93-26.035-2.689
			c10.622-32.252,33.778-58.862,63.69-74.036C205.48,245.334,216.589,264.251,230.852,280.31z M313.525,224.5
			c29.92,15.163,53.093,41.772,63.73,74.03c-8.452,1.751-17.142,2.66-25.974,2.672h-0.164c-25.774,0-49.79-7.699-69.88-20.909
			C295.488,264.224,306.58,245.299,313.525,224.5z M33.288,174.453c-0.211-34.081,12.863-66.204,36.812-90.451
			c23.95-24.248,55.909-37.717,89.99-37.927l0.807-0.002c25.704,0,49.688,7.697,69.773,20.897
			c-26.184,29.496-40.478,67.073-40.428,106.841c0.008,5.867,0.341,11.659,0.963,17.365c-41.211,18.223-73.387,53.25-87.788,96.346
			C62.119,266.547,33.591,223.74,33.288,174.453z M346.297,428.587c-24.092,24.106-56.13,37.387-90.211,37.397l-0.039,16.643
			v-16.643c-70.336,0-127.573-57.221-127.593-127.555c-0.001-2.383,0.07-4.75,0.199-7.101c10.49,2.122,21.266,3.216,32.207,3.216
			l1.012-0.003c35.228-0.218,67.771-11.81,94.18-31.254c26.657,19.6,59.537,31.199,95.066,31.199h0.205
			c10.913-0.014,21.659-1.112,32.114-3.233c0.132,2.351,0.204,4.718,0.204,7.1C383.651,372.436,370.389,404.482,346.297,428.587z
			 M408.686,287.549c-14.406-43.132-46.622-78.184-87.882-96.403c0.659-6.067,0.992-12.23,0.952-18.477
			c-0.245-39.425-14.587-76.622-40.576-105.817c20.553-13.525,44.602-20.806,69.78-20.837h0.166
			c70.263,0,127.499,57.166,127.588,127.433c0.043,34.081-13.189,66.139-37.257,90.269
			C431.708,273.491,420.654,281.489,408.686,287.549z"/>
	</g>
</g>
<g>
</g>
<g>
</g>
<g>
</g>
<g>
</g>
<g>
</g>
<g>
</g>
<g>
</g>
<g>
</g>
<g>
</g>
<g>
</g>
<g>
</g>
<g>
</g>
<g>
</g>
<g>
</g>
<g>
</g>
</svg>
