<?xml version="1.0" encoding="iso-8859-1"?>
<!-- Generator: Adobe Illustrator 19.0.0, SVG Export Plug-In . SVG Version: 6.00 Build 0)  -->
<svg version="1.1" id="Layer_1" xmlns="http://www.w3.org/2000/svg" xmlns:xlink="http://www.w3.org/1999/xlink" x="0px" y="0px"
	 viewBox="0 0 512 512" style="enable-background:new 0 0 512 512;" xml:space="preserve">
<g>
	<g>
		<path d="M405.333,0.001L0,405.333l106.665,106.666L512,106.664L405.333,0.001z M42.665,405.333l21.334-21.333l46.222,46.222
			l21.333-21.334l-46.222-46.221l21.333-21.334l24.889,24.889l21.333-21.334L128,319.999l21.333-21.334l46.222,46.223l21.333-21.334
			l-46.222-46.222L192,255.999l24.888,24.888l21.334-21.333l-24.889-24.888l21.333-21.334l46.222,46.222l21.333-21.333L256,191.999
			l21.333-21.334l24.888,24.889l21.334-21.333l-24.889-24.889l21.333-21.333l46.223,46.223l21.333-21.334l-46.222-46.222l64-64
			l64.001,63.998L106.665,469.333L42.665,405.333z"/>
	</g>
</g>
<g>
	<g>
		<path d="M423.11,88.889c-7.842-7.842-20.602-7.843-28.448,0.003c-7.837,7.843-7.836,20.602,0.003,28.44
			c7.843,7.843,20.603,7.843,28.449-0.002C430.951,109.487,430.95,96.729,423.11,88.889z"/>
	</g>
</g>
<g>
</g>
<g>
</g>
<g>
</g>
<g>
</g>
<g>
</g>
<g>
</g>
<g>
</g>
<g>
</g>
<g>
</g>
<g>
</g>
<g>
</g>
<g>
</g>
<g>
</g>
<g>
</g>
<g>
</g>
</svg>
