<?xml version="1.0" encoding="iso-8859-1"?>
<!-- Generator: Adobe Illustrator 19.0.0, SVG Export Plug-In . SVG Version: 6.00 Build 0)  -->
<svg version="1.1" id="Layer_1" xmlns="http://www.w3.org/2000/svg" xmlns:xlink="http://www.w3.org/1999/xlink" x="0px" y="0px"
	 viewBox="0 0 440 440" style="enable-background:new 0 0 440 440;" xml:space="preserve">
<g>
	<path d="M375.247,262.788l-44.115-13.936c-27.704-8.751-40.607-26.374-40.607-55.459c0-32.062,26.084-58.146,58.146-58.146
		s58.146,26.084,58.146,58.146h30c0-48.604-39.542-88.146-88.146-88.146s-88.146,39.542-88.146,88.146
		c0,42.272,21.291,71.342,61.57,84.065l44.115,13.936c27.704,8.751,40.607,26.374,40.607,55.459
		c0,32.062-26.084,58.146-58.146,58.146s-58.146-26.084-58.146-58.146h-30c0,48.604,39.542,88.146,88.146,88.146
		s88.146-39.542,88.146-88.146C436.817,304.581,415.526,275.512,375.247,262.788z"/>
	<path d="M159.802,221.742c30.89-21.789,51.245-58.722,51.245-100.535C211.047,54.373,159.067,0,95.16,0L3.183,0.097V440h30V242.387
		h81.993c47.35,0,85.871,40.915,85.871,91.207V440h30V333.594C231.047,283.296,201.604,240.059,159.802,221.742z M33.183,212.387
		V30.065L95.176,30c47.35,0,85.871,40.915,85.871,91.207c0,50.277-38.521,91.18-85.871,91.18H33.183z"/>
</g>
<g>
</g>
<g>
</g>
<g>
</g>
<g>
</g>
<g>
</g>
<g>
</g>
<g>
</g>
<g>
</g>
<g>
</g>
<g>
</g>
<g>
</g>
<g>
</g>
<g>
</g>
<g>
</g>
<g>
</g>
</svg>
