<?xml version="1.0" encoding="iso-8859-1"?>
<!-- Generator: Adobe Illustrator 19.0.0, SVG Export Plug-In . SVG Version: 6.00 Build 0)  -->
<svg version="1.1" id="Layer_1" xmlns="http://www.w3.org/2000/svg" xmlns:xlink="http://www.w3.org/1999/xlink" x="0px" y="0px"
	 viewBox="0 0 512 512" style="enable-background:new 0 0 512 512;" xml:space="preserve">
<g>
	<g>
		<path d="M488.374,387.298L512,363.701l-56.851-56.922l-60.406-60.481L499.511,141.4L367.689,9.412H144.311L12.489,141.399
			l104.767,104.898l-60.406,60.481L0,363.7l23.626,23.596l45.038-45.095l5.19,5.197l-45.067,45.124l23.626,23.596l45.038-45.095
			l5.19,5.197l-45.067,45.124l23.626,23.596l45.038-45.095l5.19,5.197l-45.069,45.126l23.626,23.596l45.038-45.095l5.19,5.197
			l-45.067,45.124l23.626,23.596l56.851-56.922l60.376-60.451l60.376,60.451l56.851,56.922l23.626-23.596l-45.067-45.124l5.19-5.197
			l45.038,45.095l23.626-23.596l-45.067-45.124l5.19-5.197l45.038,45.095l23.626-23.596l-45.067-45.124l5.19-5.197l45.038,45.095
			l23.626-23.596l-45.067-45.124l5.19-5.197L488.374,387.298z M452.318,141.399l-81.171,81.273l-91.551-91.665l81.171-81.273
			L452.318,141.399z M320.496,42.804L256,107.38l-64.496-64.576H320.496z M183.812,410.242L92.26,318.577l48.593-48.653
			l91.551,91.665L183.812,410.242z M328.189,410.243L59.682,141.399l91.551-91.665L419.74,318.578L328.189,410.243z"/>
	</g>
</g>
<g>
</g>
<g>
</g>
<g>
</g>
<g>
</g>
<g>
</g>
<g>
</g>
<g>
</g>
<g>
</g>
<g>
</g>
<g>
</g>
<g>
</g>
<g>
</g>
<g>
</g>
<g>
</g>
<g>
</g>
</svg>
