<?xml version="1.0" encoding="iso-8859-1"?>
<!-- Generator: Adobe Illustrator 19.0.0, SVG Export Plug-In . SVG Version: 6.00 Build 0)  -->
<svg version="1.1" id="Layer_1" xmlns="http://www.w3.org/2000/svg" xmlns:xlink="http://www.w3.org/1999/xlink" x="0px" y="0px"
	 viewBox="0 0 460.74 460.74" style="enable-background:new 0 0 460.74 460.74;" xml:space="preserve">
<g>
	<path d="M208.562,229.775l32.63,32.63l21.213-21.213l-32.63-32.63c9.869-13.263,16.609-28.984,19.124-46.062H295v-30h-46.101
		c-2.515-17.078-9.255-32.799-19.124-46.062l32.63-32.63l-21.213-21.213l-32.63,32.63c-13.263-9.87-28.984-16.609-46.062-19.124V0
		h-30v46.101c-17.078,2.515-32.799,9.255-46.062,19.124l-32.63-32.63L32.595,53.808l32.63,32.63
		c-9.869,13.263-16.609,28.984-19.124,46.062H0v30h46.101c2.515,17.078,9.255,32.799,19.124,46.062l-32.63,32.63l21.213,21.213
		l32.63-32.63c13.263,9.87,28.984,16.609,46.062,19.124V295h30v-46.101C179.578,246.384,195.299,239.645,208.562,229.775z M75,147.5
		c0-39.977,32.523-72.5,72.5-72.5s72.5,32.523,72.5,72.5S187.477,220,147.5,220S75,187.477,75,147.5z"/>
	<path d="M427.106,331.719l33.634-13.932l-11.48-27.717l-33.623,13.927c-6.131-9.391-14.086-17.278-23.277-23.292l13.923-33.612
		l-27.717-11.48l-13.935,33.642c-5.366-1.112-10.899-1.704-16.54-1.704c-5.535,0-11.003,0.579-16.37,1.7l-13.934-33.638
		l-27.717,11.48l13.938,33.649c-9.445,6.182-17.29,14.153-23.246,23.275l-33.669-13.946l-11.48,27.717l33.668,13.946
		c-2.239,10.661-2.328,21.845-0.02,32.895l-33.648,13.938l11.48,27.717l33.623-13.927c6.131,9.391,14.086,17.278,23.277,23.292
		L290.07,449.26l27.717,11.48l13.935-33.642c5.366,1.112,10.899,1.704,16.54,1.704c5.535,0,11.003-0.579,16.37-1.7l13.934,33.638
		l27.717-11.48l-13.932-33.634c9.298-6.069,17.186-13.968,23.254-23.284l33.655,13.941l11.48-27.717l-33.655-13.941
		C429.382,353.748,429.39,342.585,427.106,331.719z M394.919,367.538c-5.183,12.511-14.902,22.246-27.37,27.41
		c-6.174,2.558-12.664,3.854-19.288,3.854c-20.601,0-38.993-12.268-46.857-31.252c-5.164-12.467-5.154-26.224,0.028-38.735
		s14.902-22.246,27.37-27.41c6.174-2.558,12.664-3.854,19.288-3.854c20.601,0,38.993,12.268,46.857,31.252
		C400.112,341.271,400.102,355.027,394.919,367.538z"/>
</g>
<g>
</g>
<g>
</g>
<g>
</g>
<g>
</g>
<g>
</g>
<g>
</g>
<g>
</g>
<g>
</g>
<g>
</g>
<g>
</g>
<g>
</g>
<g>
</g>
<g>
</g>
<g>
</g>
<g>
</g>
</svg>
