<?xml version="1.0" encoding="iso-8859-1"?>
<!-- Generator: Adobe Illustrator 19.0.0, SVG Export Plug-In . SVG Version: 6.00 Build 0)  -->
<svg version="1.1" id="Layer_1" xmlns="http://www.w3.org/2000/svg" xmlns:xlink="http://www.w3.org/1999/xlink" x="0px" y="0px"
	 viewBox="0 0 512 512" style="enable-background:new 0 0 512 512;" xml:space="preserve">
<g>
	<g>
		<g>
			<path d="M512,198.727L426.457,62.868l-91.952-45.689l-5.526,1.055c-0.486,0.093-48.866,9.289-72.978,9.289
				c-24.112,0-72.493-9.196-72.978-9.289l-5.527-1.056l-91.953,45.69L0,198.727l104.01,60.095l17.514-18.616l-7.928,237.945
				l11.063,4.275c3.282,1.269,34.855,12.395,131.34,12.395s128.058-11.126,131.34-12.395l11.063-4.275l-7.928-237.945l17.514,18.616
				L512,198.727z M256,60.917c9.379,0,21.427-1.123,33.287-2.61c-8.593,4.777-19.53,8.202-33.287,8.202
				c-13.744,0-24.68-3.42-33.273-8.2C234.583,59.795,246.626,60.917,256,60.917z M354.156,152.872l10.032,301.065
				c-15.513,3.03-48.498,7.493-108.187,7.493s-92.675-4.464-108.187-7.493l10.032-301.065l-60.031,63.807l-51.078-29.513
				l62.065-98.569l64.245-31.923c11.896,17.587,37.1,43.225,82.953,43.225c45.85,0,71.056-25.638,82.951-43.225l64.247,31.923
				l62.065,98.569l-51.078,29.513L354.156,152.872z"/>
			<path d="M283.323,207.277L256,156.564l-27.323,50.713l-56.859,10.272l39.953,41.666l-7.774,57.092l52.004-25.018l52.004,25.018
				l-7.774-57.092l39.953-41.666L283.323,207.277z M266.543,259.306L256,254.234l-10.543,5.072l1.574-11.563l-8.05-8.396
				l11.463-2.07L256,226.964l5.555,10.312l11.463,2.07l-8.05,8.396L266.543,259.306z"/>
		</g>
	</g>
</g>
<g>
</g>
<g>
</g>
<g>
</g>
<g>
</g>
<g>
</g>
<g>
</g>
<g>
</g>
<g>
</g>
<g>
</g>
<g>
</g>
<g>
</g>
<g>
</g>
<g>
</g>
<g>
</g>
<g>
</g>
</svg>
