<?xml version="1.0" encoding="iso-8859-1"?>
<!-- Generator: Adobe Illustrator 19.0.0, SVG Export Plug-In . SVG Version: 6.00 Build 0)  -->
<svg version="1.1" id="Layer_1" xmlns="http://www.w3.org/2000/svg" xmlns:xlink="http://www.w3.org/1999/xlink" x="0px" y="0px"
	 viewBox="0 0 512 512" style="enable-background:new 0 0 512 512;" xml:space="preserve">
<g>
	<g>
		<g>
			<path d="M416.264,44.124L372.14,0H139.861L95.736,44.124L31.579,43.49V512h448.843V43.49L416.264,44.124z M386.083,61.165
				l-85.614,85.612l-20.857-20.857l85.613-85.613L386.083,61.165z M146.776,40.307l85.612,85.612l-20.857,20.857l-85.612-85.611
				L146.776,40.307z M239.305,478.609H64.97V77.213l30.071,0.297L211.531,194l27.774-27.774V478.609z M187.083,33.391h137.835
				l-68.917,68.916L187.083,33.391z M447.031,478.609H272.696V166.226l27.773,27.773L416.959,77.51l30.072-0.297V478.609z"/>
			<path d="M293.338,356.76H426.39V205.472H293.338V356.76z M326.729,238.864h66.269v15.051h-66.269V238.864z M326.729,287.304
				h66.269v36.065h-66.269V287.304z"/>
			<circle cx="195.785" cy="253.151" r="16.696"/>
			<circle cx="195.785" cy="322.794" r="16.696"/>
			<circle cx="195.785" cy="392.437" r="16.696"/>
		</g>
	</g>
</g>
<g>
</g>
<g>
</g>
<g>
</g>
<g>
</g>
<g>
</g>
<g>
</g>
<g>
</g>
<g>
</g>
<g>
</g>
<g>
</g>
<g>
</g>
<g>
</g>
<g>
</g>
<g>
</g>
<g>
</g>
</svg>
