<?xml version="1.0" encoding="iso-8859-1"?>
<!-- Generator: Adobe Illustrator 19.0.0, SVG Export Plug-In . SVG Version: 6.00 Build 0)  -->
<svg version="1.1" id="Layer_1" xmlns="http://www.w3.org/2000/svg" xmlns:xlink="http://www.w3.org/1999/xlink" x="0px" y="0px"
	 viewBox="0 0 512 512" style="enable-background:new 0 0 512 512;" xml:space="preserve">
<g>
	<g>
		<path d="M0,45.166v421.668h215.643V355.898h80.715v110.936H512V45.166H0z M33.391,159.382h88.917
			c-7.182,45.611-43.305,81.734-88.917,88.917V159.382z M239.304,322.507h-57.052v110.936H33.391V282
			c64.048-7.629,114.987-58.568,122.616-122.617h83.297V322.507z M239.304,125.991H33.391V78.557h205.913V125.991z M478.609,433.443
			H329.748V322.507h-57.052V159.382h83.297C363.621,223.431,414.561,274.37,478.609,282V433.443z M478.609,248.299
			c-45.611-7.182-81.733-43.305-88.917-88.917h88.917V248.299z M478.609,125.991H272.696V78.557h205.913V125.991z"/>
	</g>
</g>
<g>
</g>
<g>
</g>
<g>
</g>
<g>
</g>
<g>
</g>
<g>
</g>
<g>
</g>
<g>
</g>
<g>
</g>
<g>
</g>
<g>
</g>
<g>
</g>
<g>
</g>
<g>
</g>
<g>
</g>
</svg>
