<?xml version="1.0" encoding="iso-8859-1"?>
<!-- Generator: Adobe Illustrator 19.0.0, SVG Export Plug-In . SVG Version: 6.00 Build 0)  -->
<svg version="1.1" id="Layer_1" xmlns="http://www.w3.org/2000/svg" xmlns:xlink="http://www.w3.org/1999/xlink" x="0px" y="0px"
	 viewBox="0 0 495 495" style="enable-background:new 0 0 495 495;" xml:space="preserve">
<g>
	<path d="M410.492,242.611l-19.321-6.103V61.371C430.258,68.465,460,102.727,460,143.829h30c0-57.681-43.127-105.474-98.829-112.84
		V0h-30v30.99c-55.702,7.365-98.83,55.158-98.83,112.84c0,54.59,27.494,92.129,79.509,108.56l19.321,6.103v175.137
		c-39.087-7.094-68.83-41.357-68.83-82.458h-30c0,57.681,43.128,105.474,98.83,112.84V495h30v-30.99
		C446.873,456.645,490,408.852,490,351.171C490,296.581,462.506,259.042,410.492,242.611z M350.886,223.783
		c-39.942-12.617-58.545-38.023-58.545-79.954c0-41.102,29.742-75.365,68.83-82.458v165.661L350.886,223.783z M391.171,433.629
		v-165.66l10.285,3.249C441.397,283.835,460,309.24,460,351.171C460,392.273,430.258,426.535,391.171,433.629z"/>
	<path d="M118.829,60c46.224,0,83.83,37.605,83.83,83.829h30C232.659,81.063,181.595,30,118.829,30S5,81.063,5,143.829
		c0,54.59,27.494,92.129,79.509,108.56l59.605,18.829c39.941,12.617,58.544,38.022,58.544,79.953
		c0,46.224-37.606,83.829-83.83,83.829S35,397.395,35,351.171H5C5,413.937,56.063,465,118.829,465s113.83-51.063,113.83-113.829
		c0-54.59-27.494-92.129-79.508-108.56l-59.606-18.829C53.603,211.166,35,185.76,35,143.829C35,97.605,72.605,60,118.829,60z"/>
</g>
<g>
</g>
<g>
</g>
<g>
</g>
<g>
</g>
<g>
</g>
<g>
</g>
<g>
</g>
<g>
</g>
<g>
</g>
<g>
</g>
<g>
</g>
<g>
</g>
<g>
</g>
<g>
</g>
<g>
</g>
</svg>
