<?xml version="1.0" encoding="iso-8859-1"?>
<!-- Generator: Adobe Illustrator 19.0.0, SVG Export Plug-In . SVG Version: 6.00 Build 0)  -->
<svg version="1.1" id="Layer_1" xmlns="http://www.w3.org/2000/svg" xmlns:xlink="http://www.w3.org/1999/xlink" x="0px" y="0px"
	 viewBox="0 0 512 512" style="enable-background:new 0 0 512 512;" xml:space="preserve">
<g>
	<g>
		<path d="M512,132.084c0-35.281-13.739-68.451-38.687-93.398c-51.46-51.462-135.17-51.497-186.678-0.112l-26.025-26.025
			l-90.192,90.191l26.024,26.024l-67.676,67.677l-26.024-26.024l-90.192,90.191l26.025,26.025C13.698,311.568,0,344.688,0,379.915
			c0,35.281,13.739,68.451,38.687,93.398c25.752,25.754,59.57,38.625,93.398,38.625c33.77,0,67.548-12.841,93.281-38.512
			l25.958,25.958l90.192-90.191l-25.957-25.957l67.676-67.676l25.957,25.957l90.192-90.191l-25.958-25.958
			C498.302,200.431,512,167.31,512,132.084z M310.246,62.186c38.491-38.365,101.014-38.329,139.455,0.111
			c18.641,18.641,28.907,43.425,28.907,69.787c0,26.308-10.227,51.041-28.794,69.67L423.86,175.8l-33.29,33.29l-87.727-87.726
			l33.29-33.29L310.246,62.186z M260.609,59.77l28.302,28.304l-42.969,42.969l-28.302-28.304L260.609,59.77z M102.741,217.639
			l28.302,28.304l-42.969,42.969l-28.302-28.304L102.741,217.639z M201.754,449.813c-38.49,38.367-101.014,38.33-139.455-0.111
			c-18.641-18.641-28.907-43.425-28.907-69.787c0-26.308,10.227-51.042,28.794-69.669l25.887,25.887l33.29-33.29l87.727,87.726
			l-33.29,33.29L201.754,449.813z M251.324,452.163l-28.302-28.304l42.969-42.969l28.302,28.304L251.324,452.163z M359.624,291.948
			l-67.676,67.676l-25.957-25.956l-33.29,33.29l-87.727-87.726l33.29-33.29l-25.891-25.891l67.676-67.677l25.891,25.891l33.29-33.29
			l87.727,87.726l-33.29,33.29L359.624,291.948z M409.193,294.294l-28.302-28.304l42.969-42.969l28.302,28.304L409.193,294.294z"/>
	</g>
</g>
<g>
</g>
<g>
</g>
<g>
</g>
<g>
</g>
<g>
</g>
<g>
</g>
<g>
</g>
<g>
</g>
<g>
</g>
<g>
</g>
<g>
</g>
<g>
</g>
<g>
</g>
<g>
</g>
<g>
</g>
</svg>
