<?xml version="1.0" encoding="iso-8859-1"?>
<!-- Generator: Adobe Illustrator 19.0.0, SVG Export Plug-In . SVG Version: 6.00 Build 0)  -->
<svg version="1.1" id="Layer_1" xmlns="http://www.w3.org/2000/svg" xmlns:xlink="http://www.w3.org/1999/xlink" x="0px" y="0px"
	 viewBox="0 0 512 512" style="enable-background:new 0 0 512 512;" xml:space="preserve">
<g>
	<g>
		<path d="M438.857,219.429v-84.859L335.635,31.347H73.143v188.082H0v198.531h73.143v62.694h365.714v-62.694H512V219.429H438.857z
			 M344.816,84.859l40.528,40.528h-40.528V84.859z M104.49,62.694h208.98v94.041h94.041v62.694H104.49V62.694z M407.51,449.306
			H104.49v-31.347h303.02V449.306z M480.653,386.612H31.347V250.775h449.306V386.612z"/>
	</g>
</g>
<g>
	<g>
		<polygon points="161.209,312.329 186.223,282.518 168.919,282.518 144.469,311.296 144.469,282.518 129.046,282.518 
			129.046,349.287 144.47,349.287 144.47,329.633 151.429,322.392 170.331,349.287 187.917,349.287 		"/>
	</g>
</g>
<g>
	<g>
		<polygon points="213.023,321.546 239.354,321.546 239.354,309.039 213.023,309.039 213.023,296.061 243.681,296.061 
			243.681,282.518 197.601,282.518 197.601,349.287 244.527,349.287 244.527,335.747 213.023,335.747 		"/>
	</g>
</g>
<g>
	<g>
		<polygon points="253.366,282.518 253.366,296.061 273.773,296.061 273.773,349.287 289.195,349.287 289.195,296.061 
			309.508,296.061 309.508,282.518 		"/>
	</g>
</g>
<g>
	<g>
		<polygon points="430.067,282.518 430.067,308.38 403.454,308.38 403.454,282.518 388.031,282.518 388.031,349.287 
			403.454,349.287 403.454,321.923 430.067,321.923 430.067,349.287 445.491,349.287 445.491,282.518 		"/>
	</g>
</g>
<g>
	<g>
		<path d="M363.018,326.907c-2.264,5.468-7.922,9.216-14.953,9.216c-11.561,0-17.586-10.693-17.586-20.22
			c0-11.982,7.678-20.031,17.398-20.031c1.377,0,11.005-0.201,15.14,9.121l11.85-8.276c-3.664-6.859-12.154-14.575-26.615-14.575
			c-17.344,0-33.479,13.138-33.479,33.196c0,18.276,14.698,34.513,32.916,34.513c13.717,0,24.363-7.095,27.93-15.517
			L363.018,326.907z"/>
	</g>
</g>
<g>
	<g>
		<path d="M94.534,309.415c-7.285-1.987-14.012-3.293-14.012-8.182c0-3.698,2.759-5.548,8.276-5.548
			c4.639,0,12.215,2.207,17.774,6.395l6.772-12.787c-7.432-4.134-14.747-7.335-24.074-7.335c-17.252,0-24.639,10.646-24.639,21.722
			c0,10.932,6.134,15.416,24.403,20.313c5.448,1.461,9.733,3.485,9.733,7.147c0,3.323-2.727,4.984-8.182,4.984
			c-8.773,0-16.152-3.815-22.007-7.806l-6.77,13.448c8.184,5.369,17.523,8.277,28.494,8.277c17.241,0,25.015-9.199,25.015-20.408
			C115.317,318.333,109.272,313.436,94.534,309.415z"/>
	</g>
</g>
<g>
</g>
<g>
</g>
<g>
</g>
<g>
</g>
<g>
</g>
<g>
</g>
<g>
</g>
<g>
</g>
<g>
</g>
<g>
</g>
<g>
</g>
<g>
</g>
<g>
</g>
<g>
</g>
<g>
</g>
</svg>
