<?xml version="1.0" encoding="iso-8859-1"?>
<!-- Generator: Adobe Illustrator 19.0.0, SVG Export Plug-In . SVG Version: 6.00 Build 0)  -->
<svg version="1.1" id="Layer_1" xmlns="http://www.w3.org/2000/svg" xmlns:xlink="http://www.w3.org/1999/xlink" x="0px" y="0px"
	 viewBox="0 0 512 512" style="enable-background:new 0 0 512 512;" xml:space="preserve">
<g>
	<g>
		<path d="M462.979,43.574H49.021C21.991,43.574,0,65.565,0,92.596v326.808c0,27.031,21.991,49.021,49.021,49.021h413.957
			c27.031,0,49.021-21.99,49.021-49.021V92.596C512,65.565,490.01,43.574,462.979,43.574z M479.319,419.404
			c0,9.011-7.329,16.34-16.34,16.34H49.021c-9.01,0-16.34-7.329-16.34-16.34V92.596c0-9.01,7.33-16.34,16.34-16.34h413.957
			c9.011,0,16.34,7.33,16.34,16.34V419.404z"/>
	</g>
</g>
<g>
	<g>
		<path d="M65.362,108.936v294.128h381.277V108.936H65.362z M239.66,370.383H98.043V141.617H239.66V370.383z M413.957,370.383
			H272.34V141.617h141.617V370.383z"/>
	</g>
</g>
<g>
	<g>
		<rect x="299.574" y="174.298" width="87.149" height="32.681"/>
	</g>
</g>
<g>
	<g>
		<rect x="299.574" y="239.66" width="87.149" height="32.681"/>
	</g>
</g>
<g>
	<g>
		<rect x="299.574" y="305.021" width="65.362" height="32.681"/>
	</g>
</g>
<g>
	<g>
		<rect x="125.277" y="174.298" width="87.149" height="32.681"/>
	</g>
</g>
<g>
	<g>
		<rect x="125.277" y="239.66" width="87.149" height="32.681"/>
	</g>
</g>
<g>
	<g>
		<rect x="125.277" y="305.021" width="65.362" height="32.681"/>
	</g>
</g>
<g>
</g>
<g>
</g>
<g>
</g>
<g>
</g>
<g>
</g>
<g>
</g>
<g>
</g>
<g>
</g>
<g>
</g>
<g>
</g>
<g>
</g>
<g>
</g>
<g>
</g>
<g>
</g>
<g>
</g>
</svg>
