<?xml version="1.0" encoding="iso-8859-1"?>
<!-- Generator: Adobe Illustrator 19.0.0, SVG Export Plug-In . SVG Version: 6.00 Build 0)  -->
<svg version="1.1" id="Layer_1" xmlns="http://www.w3.org/2000/svg" xmlns:xlink="http://www.w3.org/1999/xlink" x="0px" y="0px"
	 viewBox="0 0 512 512" style="enable-background:new 0 0 512 512;" xml:space="preserve">
<g>
	<g>
		<path d="M434.605,285.767H77.395C34.72,285.767,0,320.487,0,363.163s34.72,77.395,77.395,77.395h357.209
			c42.676,0,77.395-34.72,77.395-77.395S477.28,285.767,434.605,285.767z M369.44,404.837H77.395
			c-22.979,0-41.674-18.695-41.674-41.674s18.695-41.674,41.674-41.674H369.44c-7.729,12.039-12.231,26.337-12.231,41.674
			S361.711,392.798,369.44,404.837z M434.605,404.837c-22.979,0-41.674-18.695-41.674-41.674s18.695-41.674,41.674-41.674
			c22.979,0,41.674,18.695,41.674,41.674S457.584,404.837,434.605,404.837z"/>
	</g>
</g>
<g>
	<g>
		<path d="M434.605,71.442H77.395C34.72,71.442,0,106.161,0,148.837s34.72,77.395,77.395,77.395h357.209
			c42.676,0,77.395-34.72,77.395-77.395S477.28,71.442,434.605,71.442z M77.395,190.512c-22.979,0-41.674-18.695-41.674-41.674
			c0-22.979,18.695-41.674,41.674-41.674c22.979,0,41.674,18.695,41.674,41.674C119.07,171.816,100.375,190.512,77.395,190.512z
			 M434.605,190.512H142.561c7.728-12.039,12.23-26.337,12.23-41.674c0-15.337-4.502-29.635-12.23-41.674h292.044
			c22.979,0,41.674,18.695,41.674,41.674C476.279,171.816,457.584,190.512,434.605,190.512z"/>
	</g>
</g>
<g>
</g>
<g>
</g>
<g>
</g>
<g>
</g>
<g>
</g>
<g>
</g>
<g>
</g>
<g>
</g>
<g>
</g>
<g>
</g>
<g>
</g>
<g>
</g>
<g>
</g>
<g>
</g>
<g>
</g>
</svg>
