<?xml version="1.0" encoding="iso-8859-1"?>
<!-- Generator: Adobe Illustrator 19.0.0, SVG Export Plug-In . SVG Version: 6.00 Build 0)  -->
<svg version="1.1" id="Layer_1" xmlns="http://www.w3.org/2000/svg" xmlns:xlink="http://www.w3.org/1999/xlink" x="0px" y="0px"
	 viewBox="0 0 440 440" style="enable-background:new 0 0 440 440;" xml:space="preserve">
<g>
	<path d="M368.933,197.5v-30h-35V0h-30v167.5H136.067V0h-30v167.5h-35v30h35v40h-35v30h35V440h35.21l67.998-172.5h21.192
		l68.27,172.5h35.195V267.5h35v-30h-35v-40H368.933z M136.067,197.5h68.555l-15.768,40h-52.787V197.5z M136.067,371.414V267.5
		h40.961L136.067,371.414z M303.933,371.604L262.732,267.5h41.201V371.604z M303.933,237.5h-53.074l-15.831-40h68.904V237.5z"/>
</g>
<g>
</g>
<g>
</g>
<g>
</g>
<g>
</g>
<g>
</g>
<g>
</g>
<g>
</g>
<g>
</g>
<g>
</g>
<g>
</g>
<g>
</g>
<g>
</g>
<g>
</g>
<g>
</g>
<g>
</g>
</svg>
