<?xml version="1.0" encoding="iso-8859-1"?>
<!-- Generator: Adobe Illustrator 19.0.0, SVG Export Plug-In . SVG Version: 6.00 Build 0)  -->
<svg version="1.1" id="Layer_1" xmlns="http://www.w3.org/2000/svg" xmlns:xlink="http://www.w3.org/1999/xlink" x="0px" y="0px"
	 viewBox="0 0 429.833 429.833" style="enable-background:new 0 0 429.833 429.833;" xml:space="preserve">
<g>
	<polygon points="157.501,208.329 67.753,81.762 0,81.762 0,111.762 52.249,111.762 139.113,234.261 52.248,356.762 0,356.762 
		0,386.762 67.752,386.762 157.501,260.193 247.251,386.762 315,386.762 315,356.762 262.755,356.762 175.889,234.261 
		262.752,111.762 315,111.762 315,81.762 247.248,81.762 	"/>
	<path d="M387.133,123.43c0-1.96,0.512-3.779,1.54-5.46c1.026-1.68,2.45-3.266,4.271-4.76c1.819-1.492,3.965-2.94,6.439-4.341
		c2.472-1.399,5.156-2.846,8.05-4.34c3.267-1.68,6.252-3.43,8.96-5.25c2.706-1.819,5.04-3.92,7-6.299
		c1.961-2.381,3.5-5.086,4.62-8.121c1.12-3.031,1.681-6.602,1.681-10.709c0-9.612-2.965-17.196-8.891-22.75
		c-5.928-5.553-14.443-8.33-25.55-8.33c-4.761,0-9.218,0.514-13.37,1.539c-4.154,1.029-7.91,2.334-11.27,3.92
		c-3.36,1.589-6.301,3.314-8.82,5.181c-2.52,1.868-4.528,3.688-6.02,5.46l14,14.84c1.211-1.306,2.659-2.611,4.34-3.92
		c1.68-1.307,3.476-2.496,5.39-3.57c1.911-1.072,3.942-1.936,6.09-2.59c2.146-0.652,4.34-0.98,6.58-0.98
		c3.546,0,6.44,0.959,8.681,2.871c2.239,1.914,3.359,4.783,3.359,8.609c0,2.801-0.678,5.274-2.03,7.42
		c-1.354,2.148-3.128,4.084-5.319,5.811c-2.194,1.729-4.69,3.289-7.49,4.689c-2.801,1.4-5.694,2.801-8.68,4.2
		c-5.041,2.429-9.17,5.019-12.391,7.771c-3.22,2.754-5.788,5.949-7.699,9.59c-1.914,3.64-3.221,7.888-3.921,12.74
		c-0.7,4.854-1.05,10.5-1.05,16.939h74.2v-20.16H387.133z"/>
</g>
<g>
</g>
<g>
</g>
<g>
</g>
<g>
</g>
<g>
</g>
<g>
</g>
<g>
</g>
<g>
</g>
<g>
</g>
<g>
</g>
<g>
</g>
<g>
</g>
<g>
</g>
<g>
</g>
<g>
</g>
</svg>
