<?xml version="1.0" encoding="iso-8859-1"?>
<!-- Generator: Adobe Illustrator 19.0.0, SVG Export Plug-In . SVG Version: 6.00 Build 0)  -->
<svg version="1.1" id="Layer_1" xmlns="http://www.w3.org/2000/svg" xmlns:xlink="http://www.w3.org/1999/xlink" x="0px" y="0px"
	 viewBox="0 0 440.153 440.153" style="enable-background:new 0 0 440.153 440.153;" xml:space="preserve">
<g>
	<polygon points="413.34,30.153 413.34,0.153 180.696,0.153 180.696,440.153 210.696,440.153 210.696,232.584 373.38,232.584 
		373.38,202.584 210.696,202.584 210.696,30.153 	"/>
	<polygon points="121.195,318.717 56.813,318.717 56.813,227.499 26.813,227.499 26.813,440 56.813,440 56.813,348.717 
		121.195,348.717 121.195,440 151.195,440 151.195,227.499 121.195,227.499 	"/>
	<path d="M88.836,212.5c34.2,0,62.023-27.824,62.023-62.023h-30c0,17.658-14.365,32.023-32.023,32.023s-32.023-14.366-32.023-32.023
		V62.023C56.813,44.366,71.178,30,88.836,30s32.023,14.366,32.023,32.023h30C150.86,27.824,123.037,0,88.836,0
		S26.813,27.824,26.813,62.023v88.453C26.813,184.676,54.636,212.5,88.836,212.5z"/>
</g>
<g>
</g>
<g>
</g>
<g>
</g>
<g>
</g>
<g>
</g>
<g>
</g>
<g>
</g>
<g>
</g>
<g>
</g>
<g>
</g>
<g>
</g>
<g>
</g>
<g>
</g>
<g>
</g>
<g>
</g>
</svg>
