<?xml version="1.0" encoding="iso-8859-1"?>
<!-- Generator: Adobe Illustrator 19.0.0, SVG Export Plug-In . SVG Version: 6.00 Build 0)  -->
<svg version="1.1" id="Layer_1" xmlns="http://www.w3.org/2000/svg" xmlns:xlink="http://www.w3.org/1999/xlink" x="0px" y="0px"
	 viewBox="0 0 511.998 511.998" style="enable-background:new 0 0 511.998 511.998;" xml:space="preserve">
<g>
	<g>
		<path d="M404.432,382.964l23.329-23.329l-40.463-40.464l21.913-21.913L221.631,109.676c6.126-2.475,11.751-6.174,16.564-10.987
			c19.441-19.442,19.441-51.074,0-70.516c-9.418-9.417-21.94-14.604-35.258-14.604c-13.318,0-25.841,5.187-35.257,14.604
			c-9.418,9.418-14.605,21.94-14.605,35.258c0,8.084,1.922,15.869,5.53,22.85l-25.428,25.428l-24.825-24.825
			c12.697-22.164,9.603-50.978-9.306-69.887C88.086,6.036,73.514,0,58.014,0C42.513,0,27.942,6.036,16.982,16.996
			c-22.626,22.625-22.626,59.439,0,82.063c10.959,10.96,25.531,16.996,41.032,16.996c10.296,0,20.176-2.679,28.867-7.679
			l24.814,24.814l-25.439,25.439c-18.758-9.649-42.4-6.634-58.097,9.063c-19.441,19.442-19.441,51.075,0,70.516
			c9.721,9.721,22.489,14.58,35.258,14.58c12.768,0,25.538-4.86,35.258-14.581c4.885-4.885,8.541-10.542,10.97-16.581
			l187.598,187.599l21.913-21.914l40.463,40.464l23.33-23.33l107.553,107.554l21.483-21.48L404.432,382.964z M77.564,77.577
			c-5.221,5.221-12.165,8.097-19.55,8.097c-7.386,0.001-14.329-2.875-19.55-8.097c-10.78-10.78-10.78-28.32,0-39.099
			c5.221-5.221,12.164-8.097,19.55-8.097c7.385,0,14.328,2.876,19.55,8.097C88.344,49.258,88.344,66.798,77.564,77.577z
			 M77.193,216.726c-7.595,7.596-19.957,7.596-27.552,0c-7.595-7.596-7.595-19.956,0-27.551c7.596-7.597,19.955-7.595,27.551-0.001
			l0.001,0.001C84.788,196.771,84.788,209.131,77.193,216.726z M189.161,49.655c3.68-3.679,8.571-5.706,13.776-5.706
			c5.204,0,10.096,2.026,13.777,5.706c7.595,7.595,7.595,19.956,0,27.551c-3.68,3.68-8.572,5.707-13.777,5.707
			c-5.201,0-10.091-2.025-13.771-5.701l-0.005-0.005c-3.68-3.679-5.707-8.571-5.707-13.776S185.481,53.335,189.161,49.655z
			 M178.419,109.43l112.16,112.159l-23.761,23.761l-112.16-112.159L178.419,109.43z M109.416,178.433l23.761-23.76l112.159,112.16
			l-23.761,23.761L109.416,178.433z M297.243,366.262l-54.186-54.186l69.004-69.004l54.186,54.186L297.243,366.262z M359.62,384.812
			l-18.981-18.981l25.177-25.177l18.981,18.981L359.62,384.812z"/>
	</g>
</g>
<g>
</g>
<g>
</g>
<g>
</g>
<g>
</g>
<g>
</g>
<g>
</g>
<g>
</g>
<g>
</g>
<g>
</g>
<g>
</g>
<g>
</g>
<g>
</g>
<g>
</g>
<g>
</g>
<g>
</g>
</svg>
