<?xml version="1.0" encoding="iso-8859-1"?>
<!-- Generator: Adobe Illustrator 19.0.0, SVG Export Plug-In . SVG Version: 6.00 Build 0)  -->
<svg version="1.1" id="Layer_1" xmlns="http://www.w3.org/2000/svg" xmlns:xlink="http://www.w3.org/1999/xlink" x="0px" y="0px"
	 viewBox="0 0 512 512" style="enable-background:new 0 0 512 512;" xml:space="preserve">
<g>
	<g>
		<path d="M464.98,52.245H47.02C21.093,52.245,0,73.338,0,99.265v313.469c0,25.928,21.093,47.02,47.02,47.02H464.98
			c25.927,0,47.02-21.092,47.02-47.02V99.265C512,73.338,490.907,52.245,464.98,52.245z M480.653,412.735
			c0,8.643-7.031,15.673-15.673,15.673H47.02c-8.642,0-15.674-7.03-15.674-15.673V99.265c0-8.642,7.031-15.673,15.674-15.673H464.98
			c8.642,0,15.673,7.031,15.673,15.673V412.735z"/>
	</g>
</g>
<g>
	<g>
		<path d="M135.837,114.939v282.122h313.469V114.939H135.837z M417.959,365.714H167.184V146.286h250.776V365.714z"/>
	</g>
</g>
<g>
	<g>
		<rect x="57.469" y="167.184" width="52.245" height="31.347"/>
	</g>
</g>
<g>
	<g>
		<rect x="57.469" y="313.469" width="52.245" height="31.347"/>
	</g>
</g>
<g>
	<g>
		<polygon points="320.648,188.026 230.975,277.7 231.663,316.907 270.872,317.596 360.546,227.925 		"/>
	</g>
</g>
<g>
	<g>
		<circle cx="83.592" cy="256" r="20.898"/>
	</g>
</g>
<g>
</g>
<g>
</g>
<g>
</g>
<g>
</g>
<g>
</g>
<g>
</g>
<g>
</g>
<g>
</g>
<g>
</g>
<g>
</g>
<g>
</g>
<g>
</g>
<g>
</g>
<g>
</g>
<g>
</g>
</svg>
