<?xml version="1.0" encoding="iso-8859-1"?>
<!-- Generator: Adobe Illustrator 19.0.0, SVG Export Plug-In . SVG Version: 6.00 Build 0)  -->
<svg version="1.1" id="Layer_1" xmlns="http://www.w3.org/2000/svg" xmlns:xlink="http://www.w3.org/1999/xlink" x="0px" y="0px"
	 viewBox="0 0 512 512" style="enable-background:new 0 0 512 512;" xml:space="preserve">
<g>
	<g>
		<path d="M72.418,0v512h367.164V0H72.418z M409.165,481.583H102.835V30.417h306.329V481.583z"/>
	</g>
</g>
<g>
	<g>
		<path d="M183.581,45.626c-36.138,0-65.538,29.4-65.538,65.538c0,36.138,29.4,65.538,65.538,65.538
			c36.139,0,65.539-29.4,65.539-65.538C249.12,75.026,219.719,45.626,183.581,45.626z M183.581,146.284
			c-13.92,0-25.975-8.141-31.653-19.912h63.308C209.557,138.144,197.503,146.284,183.581,146.284z M151.928,95.955
			c5.678-11.771,17.733-19.912,31.653-19.912c13.921,0,25.976,8.141,31.655,19.912H151.928z"/>
	</g>
</g>
<g>
	<g>
		<path d="M328.417,335.299c-36.138,0-65.538,29.4-65.538,65.538c0,36.138,29.4,65.538,65.538,65.538
			c36.139,0,65.539-29.4,65.539-65.538C393.956,364.699,364.556,335.299,328.417,335.299z M328.417,435.957
			c-13.92,0-25.975-8.141-31.653-19.912h63.308C354.393,427.815,342.338,435.957,328.417,435.957z M296.764,385.628
			c5.678-11.771,17.733-19.912,31.653-19.912c13.921,0,25.976,8.141,31.655,19.912H296.764z"/>
	</g>
</g>
<g>
	<g>
		<path d="M183.581,190.461c-36.138,0-65.538,29.4-65.538,65.539c0.001,36.138,29.4,65.538,65.538,65.538
			c36.139,0,65.539-29.4,65.539-65.538C249.12,219.861,219.719,190.461,183.581,190.461z M148.461,256
			c0-19.366,15.755-35.121,35.12-35.121c4.075,0,7.986,0.705,11.627,1.986l-44.761,44.761
			C149.166,263.986,148.461,260.074,148.461,256z M183.581,291.121c-4.074,0-7.984-0.705-11.625-1.986l44.761-44.761
			c1.282,3.642,1.986,7.553,1.986,11.626C218.702,275.366,202.947,291.121,183.581,291.121z"/>
	</g>
</g>
<g>
	<g>
		<path d="M328.417,190.461c-36.138,0-65.538,29.4-65.538,65.539c0,36.138,29.4,65.538,65.538,65.538
			c36.139,0,65.539-29.4,65.539-65.538C393.956,219.861,364.556,190.461,328.417,190.461z M313.209,287.654
			c-11.77-5.679-19.912-17.733-19.912-31.653c0-13.922,8.142-25.976,19.912-31.655V287.654z M343.626,287.654v-63.308
			c11.771,5.678,19.913,17.733,19.913,31.654C363.539,269.921,355.397,281.975,343.626,287.654z"/>
	</g>
</g>
<g>
	<g>
		<path d="M328.417,45.626c-36.138,0-65.538,29.4-65.538,65.538c0,36.138,29.4,65.538,65.538,65.538
			c36.139,0,65.539-29.4,65.539-65.538C393.956,75.026,364.556,45.626,328.417,45.626z M328.416,146.283
			c-19.365,0.001-35.12-15.754-35.12-35.12c0-4.074,0.705-7.984,1.986-11.626l44.76,44.76
			C336.402,145.579,332.49,146.283,328.416,146.283z M361.553,122.79l-44.761-44.761c3.641-1.282,7.553-1.986,11.626-1.986
			c19.366,0,35.121,15.755,35.121,35.121C363.539,115.237,362.834,119.148,361.553,122.79z"/>
	</g>
</g>
<g>
	<g>
		<path d="M183.581,335.299c-36.138,0-65.538,29.4-65.538,65.538c0,36.138,29.4,65.538,65.538,65.538
			c36.139,0,65.539-29.4,65.539-65.538C249.12,364.699,219.719,335.299,183.581,335.299z M183.581,435.956
			c-19.365,0.001-35.12-15.755-35.12-35.12c0-4.074,0.705-7.985,1.986-11.626l44.76,44.76
			C191.566,435.251,187.655,435.956,183.581,435.956z M216.716,412.463l-44.761-44.761c3.641-1.282,7.553-1.986,11.626-1.986
			c19.366,0,35.121,15.755,35.121,35.121C218.702,404.91,217.998,408.821,216.716,412.463z"/>
	</g>
</g>
<g>
</g>
<g>
</g>
<g>
</g>
<g>
</g>
<g>
</g>
<g>
</g>
<g>
</g>
<g>
</g>
<g>
</g>
<g>
</g>
<g>
</g>
<g>
</g>
<g>
</g>
<g>
</g>
<g>
</g>
</svg>
