<?xml version="1.0" encoding="iso-8859-1"?>
<!-- Generator: Adobe Illustrator 19.0.0, SVG Export Plug-In . SVG Version: 6.00 Build 0)  -->
<svg version="1.1" id="Layer_1" xmlns="http://www.w3.org/2000/svg" xmlns:xlink="http://www.w3.org/1999/xlink" x="0px" y="0px"
	 viewBox="0 0 511.999 511.999" style="enable-background:new 0 0 511.999 511.999;" xml:space="preserve">
<g>
	<g>
		<path d="M354.921,289.958c-14.174-3.79-27.28-7.444-38.526-10.653c44.51-26.578,73.169-75.1,73.169-129.044
			C389.565,67.407,322.159,0,239.304,0S89.043,67.407,89.043,150.261c0,64.196,40.585,120.716,100.174,141.709v21.625
			c-31.872,7.556-55.652,36.255-55.652,70.403v33.391c0,52.167,42.441,94.609,94.609,94.609h100.174
			c52.167,0,94.609-42.441,94.609-94.609v-55.652C422.956,324.68,401.973,302.542,354.921,289.958z M122.434,150.261
			c0-64.442,52.428-116.87,116.87-116.87s116.87,52.428,116.87,116.87c0,45.826-26.594,86.605-66.783,105.626V150.261
			c0-27.618-22.468-50.087-50.087-50.087c-27.618,0-50.087,22.469-50.087,50.087v105.626
			C149.027,236.866,122.434,196.088,122.434,150.261z M389.565,417.391c0,33.755-27.462,61.217-61.217,61.217H228.173
			c-33.755,0-61.217-27.462-61.217-61.217V384c0-15.51,9.11-28.931,22.261-35.194v68.586h33.391v-267.13
			c0-9.206,7.49-16.696,16.696-16.696c9.206,0,16.696,7.49,16.696,16.696v145.871c0,0,46.157,14.28,90.296,26.084
			c43.27,11.572,43.27,27.727,43.27,39.523V417.391z"/>
	</g>
</g>
<g>
</g>
<g>
</g>
<g>
</g>
<g>
</g>
<g>
</g>
<g>
</g>
<g>
</g>
<g>
</g>
<g>
</g>
<g>
</g>
<g>
</g>
<g>
</g>
<g>
</g>
<g>
</g>
<g>
</g>
</svg>
