<?xml version="1.0" encoding="iso-8859-1"?>
<!-- Generator: Adobe Illustrator 19.0.0, SVG Export Plug-In . SVG Version: 6.00 Build 0)  -->
<svg version="1.1" id="Layer_1" xmlns="http://www.w3.org/2000/svg" xmlns:xlink="http://www.w3.org/1999/xlink" x="0px" y="0px"
	 viewBox="0 0 512 512" style="enable-background:new 0 0 512 512;" xml:space="preserve">
<g>
	<g>
		<path d="M392.93,72.606V23.814H0v375.07c0,49.241,40.061,89.302,89.302,89.302h214.326c49.241,0,89.302-40.061,89.302-89.302
			v-54.746C460.026,335.359,512,277.823,512,208.372S460.026,81.385,392.93,72.606z M357.209,398.884
			c0,29.545-24.035,53.581-53.581,53.581H89.302c-29.545,0-53.581-24.037-53.581-53.581V59.535h142.884v141.439l-47.628,47.628
			v84.793h130.977v-84.793l-47.628-47.628V59.535h142.884V398.884z M196.465,233.63l29.767,29.767v34.277h-59.535v-34.277
			L196.465,233.63z M392.93,307.97V108.774c47.314,8.464,83.349,49.889,83.349,99.598S440.244,299.507,392.93,307.97z"/>
	</g>
</g>
<g>
</g>
<g>
</g>
<g>
</g>
<g>
</g>
<g>
</g>
<g>
</g>
<g>
</g>
<g>
</g>
<g>
</g>
<g>
</g>
<g>
</g>
<g>
</g>
<g>
</g>
<g>
</g>
<g>
</g>
</svg>
