<?xml version="1.0" encoding="iso-8859-1"?>
<!-- Generator: Adobe Illustrator 19.0.0, SVG Export Plug-In . SVG Version: 6.00 Build 0)  -->
<svg version="1.1" id="Layer_1" xmlns="http://www.w3.org/2000/svg" xmlns:xlink="http://www.w3.org/1999/xlink" x="0px" y="0px"
	 viewBox="0 0 512 512" style="enable-background:new 0 0 512 512;" xml:space="preserve">
<g>
	<g>
		<path d="M409.6,0v34.133h-28.444v34.133H409.6V102.4h34.133v28.444h34.133V102.4H512V0H409.6z M477.867,68.267h-34.133V34.133
			h34.133V68.267z"/>
	</g>
</g>
<g>
	<g>
		<path d="M102.4,443.733V409.6H68.266v-28.444H34.132V409.6H0V512h102.4v-34.133h28.444v-34.133H102.4z M68.267,477.867H34.133
			v-34.133h34.133V477.867z"/>
	</g>
</g>
<g>
	<g>
		<rect x="34.132" y="153.6" width="34.133" height="34.133"/>
	</g>
</g>
<g>
	<g>
		<rect x="34.132" y="210.489" width="34.133" height="34.133"/>
	</g>
</g>
<g>
	<g>
		<rect x="34.132" y="324.267" width="34.133" height="34.133"/>
	</g>
</g>
<g>
	<g>
		<path d="M102.4,34.133V0H0v102.4h34.132v28.444h34.133V102.4H102.4V68.267h28.444V34.133H102.4z M68.267,68.267H34.133V34.133
			h34.133V68.267z"/>
	</g>
</g>
<g>
	<g>
		<rect x="34.132" y="267.378" width="34.133" height="34.133"/>
	</g>
</g>
<g>
	<g>
		<rect x="153.6" y="443.733" width="34.133" height="34.133"/>
	</g>
</g>
<g>
	<g>
		<rect x="210.489" y="443.733" width="34.133" height="34.133"/>
	</g>
</g>
<g>
	<g>
		<rect x="324.267" y="443.733" width="34.133" height="34.133"/>
	</g>
</g>
<g>
	<g>
		<rect x="267.378" y="443.733" width="34.133" height="34.133"/>
	</g>
</g>
<g>
	<g>
		<rect x="324.267" y="34.133" width="34.133" height="34.133"/>
	</g>
</g>
<g>
	<g>
		<rect x="267.378" y="34.133" width="34.133" height="34.133"/>
	</g>
</g>
<g>
	<g>
		<rect x="210.489" y="34.133" width="34.133" height="34.133"/>
	</g>
</g>
<g>
	<g>
		<rect x="153.6" y="34.133" width="34.133" height="34.133"/>
	</g>
</g>
<g>
	<g>
		<rect x="443.733" y="210.489" width="34.133" height="34.133"/>
	</g>
</g>
<g>
	<g>
		<rect x="443.733" y="324.267" width="34.133" height="34.133"/>
	</g>
</g>
<g>
	<g>
		<rect x="443.733" y="267.378" width="34.133" height="34.133"/>
	</g>
</g>
<g>
	<g>
		<path d="M477.867,409.6v-28.444h-34.133V409.6H409.6v34.133h-28.444v34.133H409.6V512H512V409.6H477.867z M477.867,477.867
			h-34.133v-34.133h34.133V477.867z"/>
	</g>
</g>
<g>
	<g>
		<rect x="443.733" y="153.6" width="34.133" height="34.133"/>
	</g>
</g>
<g>
	<g>
		<path d="M256,104.06L117.453,381.156h38.16l39.823-79.644h121.127l39.823,79.644h38.161L256,104.06z M212.503,267.378L256,180.384
			l43.496,86.993H212.503z"/>
	</g>
</g>
<g>
</g>
<g>
</g>
<g>
</g>
<g>
</g>
<g>
</g>
<g>
</g>
<g>
</g>
<g>
</g>
<g>
</g>
<g>
</g>
<g>
</g>
<g>
</g>
<g>
</g>
<g>
</g>
<g>
</g>
</svg>
