<?xml version="1.0" encoding="iso-8859-1"?>
<!-- Generator: Adobe Illustrator 19.0.0, SVG Export Plug-In . SVG Version: 6.00 Build 0)  -->
<svg version="1.1" id="Capa_1" xmlns="http://www.w3.org/2000/svg" xmlns:xlink="http://www.w3.org/1999/xlink" x="0px" y="0px"
	 viewBox="0 0 398.596 398.596" style="enable-background:new 0 0 398.596 398.596;" xml:space="preserve">
<g>
	<path d="M337.66,116.794c1.657-4.626,2.566-9.605,2.566-14.794c0-22.465-16.927-41.04-38.695-43.669
		c1.554-4.496,2.409-9.314,2.409-14.331c0-24.262-19.738-44-44-44H25.227v266.652l10.055,3.511
		c34.121,11.915,57.729,46.482,57.41,84.06c-0.206,24.262,19.364,44.167,43.625,44.372c0.093,0.001,0.188,0.001,0.281,0.001
		c24.149,0,43.886-19.512,44.09-43.626c0.28-32.97-8.429-64.868-25.286-92.97h140.825c24.262,0,44-19.738,44-44
		c0-5.189-0.909-10.168-2.566-14.794c20.31-3.89,35.709-21.779,35.709-43.206S357.97,120.684,337.66,116.794z M343.369,160
		c0,7.72-6.28,14-14,14h-99.428v30h66.285c7.72,0,14,6.28,14,14s-6.28,14-14,14H112.008v21.487l3.544,4.192
		c3.034,3.591,5.945,7.388,8.651,11.285c17.589,25.33,26.747,54.981,26.486,85.75c-0.065,7.673-6.365,13.882-14.062,13.882
		c-0.03,0-0.061-0.001-0.091-0.001c-7.686-0.064-13.913-6.398-13.848-14.118c0.396-46.488-26.879-89.625-67.463-108.548V30H259.94
		c7.72,0,14,6.28,14,14s-6.28,14-14,14h-29.999v30h66.285c7.72,0,14,6.28,14,14s-6.28,14-14,14h-66.285v30h99.428
		C337.089,146,343.369,152.28,343.369,160z"/>
</g>
<g>
</g>
<g>
</g>
<g>
</g>
<g>
</g>
<g>
</g>
<g>
</g>
<g>
</g>
<g>
</g>
<g>
</g>
<g>
</g>
<g>
</g>
<g>
</g>
<g>
</g>
<g>
</g>
<g>
</g>
</svg>
