<?xml version="1.0" encoding="iso-8859-1"?>
<!-- Generator: Adobe Illustrator 19.0.0, SVG Export Plug-In . SVG Version: 6.00 Build 0)  -->
<svg version="1.1" id="Layer_1" xmlns="http://www.w3.org/2000/svg" xmlns:xlink="http://www.w3.org/1999/xlink" x="0px" y="0px"
	 viewBox="0 0 485 485" style="enable-background:new 0 0 485 485;" xml:space="preserve">
<g>
	<path d="M443.089,106.198c-15.556-22.846-34.675-42.665-56.555-58.825h49.553v-30H314.538v122.244h30V56.048
		C412.319,93.057,455,163.972,455,242.5C455,359.673,359.673,455,242.5,455S30,359.673,30,242.5S125.327,30,242.5,30
		c5.257,0,10.617,0.2,15.93,0.593l2.215-29.918C254.598,0.227,248.493,0,242.5,0C177.726,0,116.829,25.225,71.026,71.026
		C25.225,116.829,0,177.726,0,242.5c0,64.774,25.225,125.671,71.026,171.473C116.829,459.775,177.726,485,242.5,485
		s125.671-25.225,171.474-71.027C459.775,368.171,485,307.274,485,242.5C485,193.601,470.507,146.468,443.089,106.198z"/>
	<path d="M204.631,235.246c-2.193,1.729-4.689,3.29-7.489,4.69c-2.801,1.4-5.694,2.8-8.681,4.2c-5.04,2.428-9.17,5.018-12.39,7.77
		c-3.22,2.754-5.788,5.95-7.7,9.59c-1.914,3.64-3.22,7.888-3.92,12.74c-0.7,4.854-1.05,10.5-1.05,16.94h74.2v-20.16h-42.7
		c0-1.96,0.512-3.78,1.54-5.46c1.025-1.68,2.45-3.266,4.27-4.76c1.82-1.492,3.966-2.94,6.44-4.34c2.472-1.4,5.155-2.846,8.05-4.34
		c3.266-1.68,6.252-3.43,8.96-5.25c2.706-1.82,5.04-3.92,7-6.3c1.96-2.38,3.5-5.086,4.62-8.12c1.12-3.032,1.68-6.602,1.68-10.71
		c0-9.612-2.964-17.196-8.89-22.75c-5.929-5.552-14.444-8.33-25.55-8.33c-4.761,0-9.219,0.514-13.37,1.54
		c-4.154,1.028-7.91,2.334-11.271,3.92c-3.359,1.588-6.3,3.314-8.819,5.18c-2.521,1.868-4.528,3.688-6.021,5.46l14,14.84
		c1.212-1.306,2.66-2.612,4.34-3.92c1.681-1.306,3.477-2.496,5.391-3.57c1.911-1.072,3.941-1.936,6.09-2.59
		c2.146-0.652,4.34-0.98,6.58-0.98c3.546,0,6.439,0.958,8.68,2.87c2.24,1.914,3.36,4.784,3.36,8.61c0,2.8-0.679,5.274-2.03,7.42
		C208.597,231.584,206.823,233.52,204.631,235.246z"/>
	<path d="M247.961,270.176h39.061v20.86h22.398v-20.86h12.32v-20.02h-12.32v-58.52h-15.26l-46.199,58.52V270.176z M289.541,225.236
		v24.92h-19.32L289.541,225.236z"/>
</g>
<g>
</g>
<g>
</g>
<g>
</g>
<g>
</g>
<g>
</g>
<g>
</g>
<g>
</g>
<g>
</g>
<g>
</g>
<g>
</g>
<g>
</g>
<g>
</g>
<g>
</g>
<g>
</g>
<g>
</g>
</svg>
