<?xml version="1.0" encoding="iso-8859-1"?>
<!-- Generator: Adobe Illustrator 19.0.0, SVG Export Plug-In . SVG Version: 6.00 Build 0)  -->
<svg version="1.1" id="Layer_1" xmlns="http://www.w3.org/2000/svg" xmlns:xlink="http://www.w3.org/1999/xlink" x="0px" y="0px"
	 viewBox="0 0 478.944 478.944" style="enable-background:new 0 0 478.944 478.944;" xml:space="preserve">
<g>
	<path d="M278.46,151.422c32.609,0,59.138-26.529,59.138-59.138c0-32.609-26.529-59.139-59.138-59.139s-59.138,26.529-59.138,59.139
		C219.322,124.893,245.852,151.422,278.46,151.422z M278.46,63.146c16.066,0,29.138,13.071,29.138,29.139
		c0,16.066-13.071,29.138-29.138,29.138c-16.067,0-29.138-13.071-29.138-29.138C249.322,76.217,262.394,63.146,278.46,63.146z"/>
	<path d="M123.75,150.41c41.355,0,75-33.645,75-75s-33.645-75-75-75s-75,33.645-75,75S82.395,150.41,123.75,150.41z M123.75,30.41
		c24.813,0,45,20.187,45,45s-20.187,45-45,45s-45-20.187-45-45S98.937,30.41,123.75,30.41z"/>
	<path d="M358.308,219.981c-17.411-27.073-47.244-43.559-79.847-43.559c-28.832,0-55.501,12.89-73.327,34.594
		c-21.772-19.047-50.252-30.607-81.384-30.607C55.514,180.41,0,235.923,0,304.16v15h223.589c-2.286,9.615-3.504,19.64-3.504,29.945
		c0,71.368,58.062,129.43,129.429,129.43s129.43-58.062,129.43-129.43C478.944,280.694,425.59,224.518,358.308,219.981z
		 M31.199,289.16c7.202-44.589,45.962-78.75,92.551-78.75s85.35,34.161,92.551,78.75H31.199z M225.477,233.779
		c12.1-17.067,31.681-27.356,52.983-27.356c16.198,0,31.397,5.954,43.073,16.309c-31.87,7.051-59.364,25.878-77.658,51.673
		C240.218,259.646,233.907,245.926,225.477,233.779z M349.515,448.535c-54.826,0-99.429-44.604-99.429-99.43
		c0-54.825,44.604-99.429,99.429-99.429s99.43,44.604,99.43,99.429C448.944,403.931,404.34,448.535,349.515,448.535z"/>
	<polygon points="369.822,318.438 349.514,283.145 329.207,318.438 289.368,326.845 316.656,357.065 312.342,397.552 
		349.515,380.938 386.688,397.551 382.374,357.065 409.662,326.845 	"/>
</g>
<g>
</g>
<g>
</g>
<g>
</g>
<g>
</g>
<g>
</g>
<g>
</g>
<g>
</g>
<g>
</g>
<g>
</g>
<g>
</g>
<g>
</g>
<g>
</g>
<g>
</g>
<g>
</g>
<g>
</g>
</svg>
