<?xml version="1.0" encoding="iso-8859-1"?>
<!-- Generator: Adobe Illustrator 19.0.0, SVG Export Plug-In . SVG Version: 6.00 Build 0)  -->
<svg version="1.1" id="Layer_1" xmlns="http://www.w3.org/2000/svg" xmlns:xlink="http://www.w3.org/1999/xlink" x="0px" y="0px"
	 viewBox="0 0 376.871 376.871" style="enable-background:new 0 0 376.871 376.871;" xml:space="preserve">
<g>
	<path d="M121.443,141.146c38.914,0,70.572-31.658,70.572-70.572S160.357,0,121.443,0S50.87,31.659,50.87,70.573
		S82.529,141.146,121.443,141.146z M121.443,30c22.372,0,40.572,18.201,40.572,40.573s-18.2,40.572-40.572,40.572
		S80.87,92.945,80.87,70.573S99.071,30,121.443,30z"/>
	<path d="M276.153,142.659c32.608,0,59.138-26.529,59.138-59.138s-26.529-59.138-59.138-59.138s-59.138,26.529-59.138,59.138
		S243.545,142.659,276.153,142.659z M276.153,54.384c16.066,0,29.138,13.071,29.138,29.138s-13.071,29.138-29.138,29.138
		s-29.138-13.071-29.138-29.138S260.087,54.384,276.153,54.384z"/>
	<path d="M276.153,167.659c-29.219,0-56.583,13.639-74.388,35.985c-20.828-20.108-49.154-32.498-80.322-32.498
		c-63.812,0-115.726,51.914-115.726,115.726v15h231.45v-15c0-3.101-0.126-6.172-0.367-9.212h134.352v-15
		C371.153,210.276,328.536,167.659,276.153,167.659z M37.031,271.871c7.113-40.144,42.258-70.726,84.412-70.726
		c42.153,0,77.298,30.582,84.411,70.726H37.031z M230.324,247.659c-2.468-6.833-5.564-13.367-9.215-19.537
		c11.795-18.724,32.624-30.463,55.044-30.463c30.681,0,56.465,21.365,63.253,50H230.324z"/>
	<circle cx="268.435" cy="356.871" r="20"/>
	<circle cx="108.435" cy="356.871" r="20"/>
	<circle cx="188.435" cy="356.871" r="20"/>
</g>
<g>
</g>
<g>
</g>
<g>
</g>
<g>
</g>
<g>
</g>
<g>
</g>
<g>
</g>
<g>
</g>
<g>
</g>
<g>
</g>
<g>
</g>
<g>
</g>
<g>
</g>
<g>
</g>
<g>
</g>
</svg>
