<?xml version="1.0" encoding="iso-8859-1"?>
<!-- Generator: Adobe Illustrator 19.0.0, SVG Export Plug-In . SVG Version: 6.00 Build 0)  -->
<svg version="1.1" id="Layer_1" xmlns="http://www.w3.org/2000/svg" xmlns:xlink="http://www.w3.org/1999/xlink" x="0px" y="0px"
	 viewBox="0 0 433.18 433.18" style="enable-background:new 0 0 433.18 433.18;" xml:space="preserve">
<g>
	<path d="M130.768,150c41.355,0,75-33.645,75-75s-33.645-75-75-75s-75,33.645-75,75S89.413,150,130.768,150z M130.768,30
		c24.813,0,45,20.187,45,45s-20.187,45-45,45s-45-20.187-45-45S105.955,30,130.768,30z"/>
	<path d="M296.732,174.321c-33.601,0-64.249,12.873-87.281,33.943C187.425,190.157,159.497,180,130.768,180
		c-68.236,0-123.75,55.514-123.75,123.75v15h161.159c7.458,64.327,62.261,114.43,128.555,114.43
		c71.368,0,129.43-58.062,129.43-129.43S368.1,174.321,296.732,174.321z M130.768,210c21.86,0,42.411,7.35,59.036,20.907
		c-11.523,16.861-19.161,36.574-21.627,57.843H38.216C45.418,244.162,84.179,210,130.768,210z M296.732,403.18
		c-54.826,0-99.43-44.604-99.43-99.43s44.604-99.429,99.43-99.429s99.43,44.604,99.43,99.429S351.558,403.18,296.732,403.18z"/>
	<rect x="235.117" y="288.75" width="123.231" height="30"/>
</g>
<g>
</g>
<g>
</g>
<g>
</g>
<g>
</g>
<g>
</g>
<g>
</g>
<g>
</g>
<g>
</g>
<g>
</g>
<g>
</g>
<g>
</g>
<g>
</g>
<g>
</g>
<g>
</g>
<g>
</g>
</svg>
