<?xml version="1.0" encoding="iso-8859-1"?>
<!-- Generator: Adobe Illustrator 19.0.0, SVG Export Plug-In . SVG Version: 6.00 Build 0)  -->
<svg version="1.1" id="Layer_1" xmlns="http://www.w3.org/2000/svg" xmlns:xlink="http://www.w3.org/1999/xlink" x="0px" y="0px"
	 viewBox="0 0 478.125 478.125" style="enable-background:new 0 0 478.125 478.125;" xml:space="preserve">
<g>
	<path d="M295.655,151.013c32.608,0,59.138-26.529,59.138-59.138s-26.529-59.138-59.138-59.138s-59.138,26.529-59.138,59.138
		S263.047,151.013,295.655,151.013z M295.655,62.737c16.066,0,29.138,13.071,29.138,29.138s-13.071,29.138-29.138,29.138
		s-29.138-13.071-29.138-29.138S279.589,62.737,295.655,62.737z"/>
	<path d="M140.945,150c41.355,0,75-33.645,75-75s-33.645-75-75-75s-75,33.645-75,75S99.59,150,140.945,150z M140.945,30
		c24.813,0,45,20.187,45,45s-20.187,45-45,45s-45-20.187-45-45S116.132,30,140.945,30z"/>
	<path d="M425.721,307.289v-29.012c0-29.466-21.708-53.955-49.972-58.318c-17.375-27.302-47.335-43.947-80.094-43.947
		c-28.832,0-55.501,12.89-73.327,34.593C200.557,191.559,172.077,180,140.945,180c-68.236,0-123.75,55.514-123.75,123.75v15h247.5
		v-15c0-26.128-8.146-50.386-22.023-70.381c12.099-17.067,31.68-27.356,52.983-27.356c17.517,0,33.87,6.956,45.856,18.918
		c-19.968,9.47-33.813,29.818-33.813,53.347v29.012h-35.209v170.836h188.44V307.289H425.721z M48.395,288.75
		C55.596,244.161,94.356,210,140.945,210s85.35,34.161,92.551,78.75H48.395z M337.698,278.277c0-15.997,13.015-29.011,29.012-29.011
		c15.996,0,29.011,13.014,29.011,29.011v29.012h-58.022V278.277z M430.93,448.125h-128.44V337.289h128.44V448.125z"/>
</g>
<g>
</g>
<g>
</g>
<g>
</g>
<g>
</g>
<g>
</g>
<g>
</g>
<g>
</g>
<g>
</g>
<g>
</g>
<g>
</g>
<g>
</g>
<g>
</g>
<g>
</g>
<g>
</g>
<g>
</g>
</svg>
