<?xml version="1.0" encoding="iso-8859-1"?>
<!-- Generator: Adobe Illustrator 19.0.0, SVG Export Plug-In . SVG Version: 6.00 Build 0)  -->
<svg version="1.1" id="Layer_1" xmlns="http://www.w3.org/2000/svg" xmlns:xlink="http://www.w3.org/1999/xlink" x="0px" y="0px"
	 viewBox="0 0 393.75 393.75" style="enable-background:new 0 0 393.75 393.75;" xml:space="preserve">
<g>
	<circle cx="276.875" cy="373.75" r="20"/>
	<circle cx="116.875" cy="373.75" r="20"/>
	<circle cx="196.875" cy="373.75" r="20"/>
	<path d="M196.875,150c41.355,0,75-33.645,75-75s-33.645-75-75-75s-75,33.645-75,75S155.52,150,196.875,150z M196.875,30
		c24.813,0,45,20.187,45,45s-20.187,45-45,45s-45-20.187-45-45S172.062,30,196.875,30z"/>
	<path d="M196.875,180c-68.236,0-123.75,55.514-123.75,123.75v15h247.5v-15C320.625,235.514,265.111,180,196.875,180z
		 M104.324,288.75c7.201-44.588,45.962-78.75,92.551-78.75s85.35,34.162,92.551,78.75H104.324z"/>
</g>
<g>
</g>
<g>
</g>
<g>
</g>
<g>
</g>
<g>
</g>
<g>
</g>
<g>
</g>
<g>
</g>
<g>
</g>
<g>
</g>
<g>
</g>
<g>
</g>
<g>
</g>
<g>
</g>
<g>
</g>
</svg>
