<?xml version="1.0" encoding="iso-8859-1"?>
<!-- Generator: Adobe Illustrator 19.0.0, SVG Export Plug-In . SVG Version: 6.00 Build 0)  -->
<svg version="1.1" id="Layer_1" xmlns="http://www.w3.org/2000/svg" xmlns:xlink="http://www.w3.org/1999/xlink" x="0px" y="0px"
	 viewBox="0 0 512 512" style="enable-background:new 0 0 512 512;" xml:space="preserve">
<g>
	<g>
		<path d="M475.727,229.878c-8.985-42.385-29.862-80.823-60.875-111.834c-13.437-13.437-28.274-24.963-44.216-34.451h85.791
			c3.681,3.239,8.494,5.222,13.771,5.224h0.005c5.582,0,10.829-2.173,14.778-6.12c3.949-3.949,6.122-9.199,6.12-14.778
			c0-11.523-9.375-20.898-20.898-20.898c-5.28,0-10.094,1.983-13.777,5.224H303.02V20.898H208.98v31.347H55.574
			c-3.682-3.241-8.498-5.224-13.778-5.224c-11.523,0-20.898,9.375-20.898,20.898c0,11.519,9.373,20.894,20.893,20.898h0.005
			c5.134,0,9.972-1.858,13.789-5.224h85.778c-15.943,9.489-30.779,21.014-44.216,34.451c-31.014,31.013-51.89,69.449-60.876,111.834
			H0v94.041h94.041v-94.041H68.475c17.267-68.568,71.937-123.239,140.504-140.504v25.565h24.832
			c-7.619,20.738-20.645,54.309-36.483,87.537c-44.465,93.294-70.306,100.544-77.166,100.544v31.347
			c21.498,0,50.364,21.699,56.34,62.694h-30.217v94.041h219.429v-94.041h-30.217c5.976-40.995,34.842-62.694,56.34-62.694V303.02
			c-6.86,0-32.701-7.25-77.166-100.544c-15.838-33.229-28.863-66.799-36.483-87.537h24.832V89.373
			c68.567,17.266,123.237,71.936,140.504,140.504h-25.566v94.041H512v-94.041H475.727z M62.694,292.571H31.347v-31.347h31.347
			V292.571z M240.327,52.245h31.347v31.347h-31.347V52.245z M256,303.02c8.642,0,15.673,7.031,15.673,15.674
			c0,8.642-7.031,15.673-15.673,15.673c-8.642,0-15.673-7.031-15.673-15.673C240.327,310.051,247.358,303.02,256,303.02z
			 M334.367,459.755H177.633v-31.347h156.735V459.755z M286.257,215.719c15.631,32.823,30.919,59.13,45.438,78.188
			c6.58,8.636,13.052,15.865,19.452,21.709c-7.502,4.832-14.523,10.968-20.771,18.262c-14.547,16.987-23.688,39.015-26.452,63.184
			h-95.849c-2.764-24.169-11.905-46.197-26.452-63.183c-6.248-7.293-13.269-13.43-20.772-18.262
			c6.4-5.845,12.872-13.074,19.452-21.709c14.52-19.058,29.808-45.364,45.438-78.189c5.205-10.93,10.089-21.821,14.584-32.277
			v90.928c-18.243,6.47-31.347,23.892-31.347,44.325c0,25.927,21.092,47.02,47.02,47.02c25.928,0,47.02-21.093,47.02-47.02
			c0-20.433-13.104-37.855-31.347-44.325v-90.928C276.169,193.899,281.052,204.79,286.257,215.719z M480.653,292.571h-31.347
			v-31.347h31.347V292.571z"/>
	</g>
</g>
<g>
</g>
<g>
</g>
<g>
</g>
<g>
</g>
<g>
</g>
<g>
</g>
<g>
</g>
<g>
</g>
<g>
</g>
<g>
</g>
<g>
</g>
<g>
</g>
<g>
</g>
<g>
</g>
<g>
</g>
</svg>
