<?xml version="1.0" encoding="iso-8859-1"?>
<!-- Generator: Adobe Illustrator 19.0.0, SVG Export Plug-In . SVG Version: 6.00 Build 0)  -->
<svg version="1.1" id="Layer_1" xmlns="http://www.w3.org/2000/svg" xmlns:xlink="http://www.w3.org/1999/xlink" x="0px" y="0px"
	 viewBox="0 0 512 512" style="enable-background:new 0 0 512 512;" xml:space="preserve">
<g>
	<g>
		<path d="M475.091,98.587H512V0.545h-98.043v98.043h27.8C422.776,185.779,353.144,239.115,256,239.115H36.15
			c-3.839-3.379-8.859-5.447-14.363-5.447C9.774,233.668,0,243.442,0,255.455c0,12.009,9.772,21.783,21.782,21.787h0.005
			c5.352,0,10.397-1.937,14.375-5.447h95.695c-49.24,29.979-83.217,79.166-94.948,141.617H0v98.043h98.043v-98.043H70.23
			C89.243,325.549,158.892,271.796,256,271.796h219.85c3.839,3.379,8.859,5.447,14.363,5.447c12.013,0,21.787-9.774,21.787-21.782
			c0.002-5.822-2.264-11.296-6.381-15.411c-4.115-4.115-9.586-6.38-15.411-6.38c-5.501,0.002-10.518,2.07-14.357,5.447h-95.097
			c8.663-5.269,16.895-11.146,24.637-17.636C441.76,190.994,465.672,148.721,475.091,98.587z M446.638,33.226h32.681v32.681h-32.681
			V33.226z M65.362,478.774H32.681v-32.681h32.681V478.774z"/>
	</g>
</g>
<g>
</g>
<g>
</g>
<g>
</g>
<g>
</g>
<g>
</g>
<g>
</g>
<g>
</g>
<g>
</g>
<g>
</g>
<g>
</g>
<g>
</g>
<g>
</g>
<g>
</g>
<g>
</g>
<g>
</g>
</svg>
