<?xml version="1.0" encoding="iso-8859-1"?>
<!-- Generator: Adobe Illustrator 19.0.0, SVG Export Plug-In . SVG Version: 6.00 Build 0)  -->
<svg version="1.1" id="Layer_1" xmlns="http://www.w3.org/2000/svg" xmlns:xlink="http://www.w3.org/1999/xlink" x="0px" y="0px"
	 viewBox="0 0 512 512" style="enable-background:new 0 0 512 512;" xml:space="preserve">
<g>
	<g>
		<g>
			<circle cx="256" cy="256" r="16.696"/>
			<path d="M256,172.522c-46.03,0-83.478,37.448-83.478,83.478S209.97,339.478,256,339.478S339.478,302.03,339.478,256
				S302.03,172.522,256,172.522z M256,306.087c-27.618,0-50.087-22.469-50.087-50.087c0-27.618,22.469-50.087,50.087-50.087
				c27.618,0,50.087,22.469,50.087,50.087C306.087,283.618,283.618,306.087,256,306.087z"/>
			<path d="M437.021,74.98C388.668,26.628,324.382,0,256,0C187.619,0,123.332,26.628,74.98,74.98C26.628,123.332,0,187.619,0,256
				c0,68.382,26.628,132.668,74.98,181.021C123.332,485.372,187.619,512,256,512c68.382,0,132.668-26.628,181.021-74.979
				C485.372,388.668,512,324.382,512,256C512,187.619,485.372,123.332,437.021,74.98z M256,478.609
				c-122.746,0-222.609-99.862-222.609-222.609S133.254,33.391,256,33.391S478.609,133.254,478.609,256S378.746,478.609,256,478.609
				z"/>
			<path d="M401.965,131.929l-23.805,23.417c25.183,25.598,39.627,62.284,39.627,100.65c0,38.37-14.444,75.059-39.627,100.659
				l23.805,23.417c31.275-31.795,49.212-77.019,49.213-124.077C451.178,208.942,433.24,163.721,401.965,131.929z"/>
			<path d="M356.919,168.621l-23.805,23.417c15.963,16.227,25.12,39.541,25.12,63.961c0,24.425-9.155,47.737-25.119,63.962
				l23.802,23.42c22.057-22.42,34.709-54.269,34.709-87.382C391.627,222.89,378.976,191.043,356.919,168.621z"/>
		</g>
	</g>
</g>
<g>
</g>
<g>
</g>
<g>
</g>
<g>
</g>
<g>
</g>
<g>
</g>
<g>
</g>
<g>
</g>
<g>
</g>
<g>
</g>
<g>
</g>
<g>
</g>
<g>
</g>
<g>
</g>
<g>
</g>
</svg>
