<?xml version="1.0" encoding="iso-8859-1"?>
<!-- Generator: Adobe Illustrator 19.0.0, SVG Export Plug-In . SVG Version: 6.00 Build 0)  -->
<svg version="1.1" id="Layer_1" xmlns="http://www.w3.org/2000/svg" xmlns:xlink="http://www.w3.org/1999/xlink" x="0px" y="0px"
	 viewBox="0 0 512 512" style="enable-background:new 0 0 512 512;" xml:space="preserve">
<g>
	<g>
		<path d="M71.442,139.907v297.674H238.14V139.907H71.442z M191.382,175.628l-36.591,73.18l-36.59-73.18H191.382z M107.163,233.424
			l27.66,55.32l-27.66,55.32V233.424z M118.201,401.86l36.59-73.18l36.59,73.18H118.201z M202.419,344.064l-27.66-55.32l27.66-55.32
			V344.064z"/>
	</g>
</g>
<g>
	<g>
		<path d="M273.86,139.907v297.674h166.698V139.907H273.86z M393.801,175.628l-36.591,73.18l-36.59-73.18H393.801z M309.581,233.424
			l27.66,55.32l-27.66,55.32V233.424z M320.619,401.86l36.59-73.18l36.59,73.18H320.619z M404.837,344.064l-27.66-55.32l27.66-55.32
			V344.064z"/>
	</g>
</g>
<g>
	<g>
		<polygon points="446.512,32.744 446.512,68.465 476.279,68.465 476.279,473.302 35.721,473.302 35.721,68.465 65.488,68.465 
			65.488,32.744 0,32.744 0,509.023 512,509.023 512,32.744 		"/>
	</g>
</g>
<g>
	<g>
		<rect x="238.14" y="2.977" width="35.721" height="95.256"/>
	</g>
</g>
<g>
	<g>
		<rect x="166.698" y="2.977" width="35.721" height="95.256"/>
	</g>
</g>
<g>
	<g>
		<rect x="95.256" y="2.977" width="35.721" height="95.256"/>
	</g>
</g>
<g>
	<g>
		<rect x="381.023" y="2.977" width="35.721" height="95.256"/>
	</g>
</g>
<g>
	<g>
		<rect x="309.581" y="2.977" width="35.721" height="95.256"/>
	</g>
</g>
<g>
</g>
<g>
</g>
<g>
</g>
<g>
</g>
<g>
</g>
<g>
</g>
<g>
</g>
<g>
</g>
<g>
</g>
<g>
</g>
<g>
</g>
<g>
</g>
<g>
</g>
<g>
</g>
<g>
</g>
</svg>
