<?xml version="1.0" encoding="iso-8859-1"?>
<!-- Generator: Adobe Illustrator 19.0.0, SVG Export Plug-In . SVG Version: 6.00 Build 0)  -->
<svg version="1.1" id="Layer_1" xmlns="http://www.w3.org/2000/svg" xmlns:xlink="http://www.w3.org/1999/xlink" x="0px" y="0px"
	 viewBox="0 0 512 512" style="enable-background:new 0 0 512 512;" xml:space="preserve">
<g>
	<g>
		<path d="M62.694,0v512h386.612V0H62.694z M417.959,480.653H94.041V135.837h31.347v104.49h261.224v-104.49h31.347V480.653z
			 M285.194,151.512l70.071-44.593v89.184L285.194,151.512z M317.112,208.98H194.888L256,170.09L317.112,208.98z M256,132.933
			l-61.115-38.892h122.231L256,132.933z M226.806,151.512l-70.071,44.59V106.92L226.806,151.512z M417.959,104.49h-31.347V62.694
			H125.388v41.796H94.041V31.347h323.918V104.49z"/>
	</g>
</g>
<g>
	<g>
		<path d="M125.388,271.673v177.633h261.224V271.673H125.388z M317.115,303.02L256,341.913l-61.115-38.892H317.115z M156.735,315.9
			l70.071,44.59l-70.071,44.59V315.9z M194.885,417.959L256,379.067l61.114,38.892H194.885z M355.265,405.081l-70.071-44.591
			l70.071-44.591V405.081z"/>
	</g>
</g>
<g>
</g>
<g>
</g>
<g>
</g>
<g>
</g>
<g>
</g>
<g>
</g>
<g>
</g>
<g>
</g>
<g>
</g>
<g>
</g>
<g>
</g>
<g>
</g>
<g>
</g>
<g>
</g>
<g>
</g>
</svg>
