<?xml version="1.0" encoding="iso-8859-1"?>
<!-- Generator: Adobe Illustrator 19.0.0, SVG Export Plug-In . SVG Version: 6.00 Build 0)  -->
<svg version="1.1" id="Layer_1" xmlns="http://www.w3.org/2000/svg" xmlns:xlink="http://www.w3.org/1999/xlink" x="0px" y="0px"
	 viewBox="0 0 489.661 489.661" style="enable-background:new 0 0 489.661 489.661;" xml:space="preserve">
<g>
	<path d="M489.66,116.673L372.988,0l-127.81,127.81L117.381,0.012L0.708,116.685l127.798,127.797l-81.404,81.404L0,489.661
		l163.774-47.102l81.404-81.404l127.798,127.798L489.649,372.28L361.851,244.482L489.66,116.673z M81.66,333.755l212.133-212.132
		l74.246,74.246L155.906,408.001L81.66,333.755z M447.234,116.673l-57.983,57.983l-74.246-74.246l57.983-57.983L447.234,116.673z
		 M43.135,116.685l74.246-74.246l42.686,42.686l-35.355,35.355l21.213,21.213l35.355-35.355l42.686,42.686l-74.247,74.246
		L43.135,116.685z M67.831,362.351l59.479,59.479l-83.491,24.012L67.831,362.351z M383.324,308.381l-35.355,35.355l21.213,21.213
		l35.355-35.355l42.687,42.686l-74.247,74.246L266.392,339.942l74.246-74.246L383.324,308.381z"/>
</g>
<g>
</g>
<g>
</g>
<g>
</g>
<g>
</g>
<g>
</g>
<g>
</g>
<g>
</g>
<g>
</g>
<g>
</g>
<g>
</g>
<g>
</g>
<g>
</g>
<g>
</g>
<g>
</g>
<g>
</g>
</svg>
