<?xml version="1.0" encoding="iso-8859-1"?>
<!-- Generator: Adobe Illustrator 19.0.0, SVG Export Plug-In . SVG Version: 6.00 Build 0)  -->
<svg version="1.1" id="Layer_1" xmlns="http://www.w3.org/2000/svg" xmlns:xlink="http://www.w3.org/1999/xlink" x="0px" y="0px"
	 viewBox="0 0 512 512" style="enable-background:new 0 0 512 512;" xml:space="preserve">
<g>
	<g>
		<path d="M372.423,306.76c19-30.707,29.985-66.87,29.985-105.556C402.408,90.26,312.148,0,201.204,0S0,90.26,0,201.204
			s90.26,201.204,201.204,201.204c38.686,0,74.85-10.985,105.556-29.985L446.336,512L512,446.336L372.423,306.76z M201.204,371.453
			c-93.876,0-170.249-76.373-170.249-170.249c0-93.876,76.374-170.249,170.249-170.249s170.249,76.374,170.249,170.249
			S295.079,371.453,201.204,371.453z M332.042,353.929c7.841-6.727,15.159-14.046,21.888-21.888l114.294,114.295l-21.888,21.888
			L332.042,353.929z"/>
	</g>
</g>
<g>
	<g>
		<path d="M201.204,61.909c-76.807,0-139.295,62.488-139.295,139.295s62.488,139.295,139.295,139.295
			s139.295-62.488,139.295-139.295S278.011,61.909,201.204,61.909z M201.204,309.544c-59.739,0-108.341-48.602-108.341-108.341
			S141.465,92.863,201.204,92.863s108.341,48.602,108.341,108.341S260.943,309.544,201.204,309.544z"/>
	</g>
</g>
<g>
	<g>
		<polygon points="216.681,185.727 216.681,139.295 185.727,139.295 185.727,185.727 139.295,185.727 139.295,216.681 
			185.727,216.681 185.727,263.113 216.681,263.113 216.681,216.681 263.113,216.681 263.113,185.727 		"/>
	</g>
</g>
<g>
</g>
<g>
</g>
<g>
</g>
<g>
</g>
<g>
</g>
<g>
</g>
<g>
</g>
<g>
</g>
<g>
</g>
<g>
</g>
<g>
</g>
<g>
</g>
<g>
</g>
<g>
</g>
<g>
</g>
</svg>
